{
    "header": {
        "PPQ": 480,
        "timeSignature": [
            4,
            4
        ],
        "bpm": 121.50003948751284,
        "name": "Etüde Nr. 12"
    },
    "startTime": 0,
    "duration": 164.69130450000014,
    "tracks": [
        {
            "startTime": 0,
            "duration": 0,
            "length": 0,
            "notes": [],
            "controlChanges": {},
            "id": 0,
            "name": "Etüde Nr. 12"
        },
        {
            "startTime": 0.004115224999999999,
            "duration": 164.69130450000014,
            "length": 780,
            "notes": [
                {
                    "name": "B5",
                    "midi": 83,
                    "time": 0.004115224999999999,
                    "velocity": 0.8110236220472441,
                    "duration": 0.9876539999999999
                },
                {
                    "name": "G5",
                    "midi": 79,
                    "time": 0.004115224999999999,
                    "velocity": 0.7401574803149606,
                    "duration": 0.9876539999999999
                },
                {
                    "name": "F5",
                    "midi": 77,
                    "time": 0.004115224999999999,
                    "velocity": 0.7401574803149606,
                    "duration": 0.9876539999999999
                },
                {
                    "name": "D5",
                    "midi": 74,
                    "time": 0.004115224999999999,
                    "velocity": 0.7401574803149606,
                    "duration": 0.9876539999999999
                },
                {
                    "name": "B4",
                    "midi": 71,
                    "time": 0.004115224999999999,
                    "velocity": 0.7401574803149606,
                    "duration": 0.9876539999999999
                },
                {
                    "name": "G#5",
                    "midi": 80,
                    "time": 3.4567889999999997,
                    "velocity": 0.8031496062992126,
                    "duration": 0.3703702500000001
                },
                {
                    "name": "D#5",
                    "midi": 75,
                    "time": 3.4567889999999997,
                    "velocity": 0.7322834645669292,
                    "duration": 0.3703702500000001
                },
                {
                    "name": "F5",
                    "midi": 77,
                    "time": 3.4567889999999997,
                    "velocity": 0.7322834645669292,
                    "duration": 0.3703702500000001
                },
                {
                    "name": "G#4",
                    "midi": 68,
                    "time": 3.4567889999999997,
                    "velocity": 0.7322834645669292,
                    "duration": 0.3703702500000001
                },
                {
                    "name": "G4",
                    "midi": 67,
                    "time": 3.82715925,
                    "velocity": 0.6850393700787402,
                    "duration": 0.12345674999999989
                },
                {
                    "name": "G5",
                    "midi": 79,
                    "time": 3.82715925,
                    "velocity": 0.7480314960629921,
                    "duration": 0.12345674999999989
                },
                {
                    "name": "D6",
                    "midi": 86,
                    "time": 3.9506159999999997,
                    "velocity": 0.8346456692913385,
                    "duration": 0.9876539999999996
                },
                {
                    "name": "F5",
                    "midi": 77,
                    "time": 3.9506159999999997,
                    "velocity": 0.7559055118110236,
                    "duration": 0.9876539999999996
                },
                {
                    "name": "G5",
                    "midi": 79,
                    "time": 3.9506159999999997,
                    "velocity": 0.7559055118110236,
                    "duration": 0.9876539999999996
                },
                {
                    "name": "D5",
                    "midi": 74,
                    "time": 3.9506159999999997,
                    "velocity": 0.7559055118110236,
                    "duration": 0.9876539999999996
                },
                {
                    "name": "G#5",
                    "midi": 80,
                    "time": 7.407404999999999,
                    "velocity": 0.7952755905511811,
                    "duration": 0.3703702499999997
                },
                {
                    "name": "D#5",
                    "midi": 75,
                    "time": 7.407404999999999,
                    "velocity": 0.7244094488188977,
                    "duration": 0.3703702499999997
                },
                {
                    "name": "F5",
                    "midi": 77,
                    "time": 7.407404999999999,
                    "velocity": 0.7244094488188977,
                    "duration": 0.3703702499999997
                },
                {
                    "name": "G#4",
                    "midi": 68,
                    "time": 7.407404999999999,
                    "velocity": 0.7244094488188977,
                    "duration": 0.3703702499999997
                },
                {
                    "name": "G4",
                    "midi": 67,
                    "time": 7.777775249999999,
                    "velocity": 0.6929133858267716,
                    "duration": 0.12345674999999989
                },
                {
                    "name": "G5",
                    "midi": 79,
                    "time": 7.777775249999999,
                    "velocity": 0.7480314960629921,
                    "duration": 0.12345674999999989
                },
                {
                    "name": "F5",
                    "midi": 77,
                    "time": 7.9012319999999985,
                    "velocity": 0.7559055118110236,
                    "duration": 0.24691349999999979
                },
                {
                    "name": "F6",
                    "midi": 89,
                    "time": 7.9012319999999985,
                    "velocity": 0.8346456692913385,
                    "duration": 0.24691349999999979
                },
                {
                    "name": "G5",
                    "midi": 79,
                    "time": 7.9012319999999985,
                    "velocity": 0.7559055118110236,
                    "duration": 0.24691349999999979
                },
                {
                    "name": "D6",
                    "midi": 86,
                    "time": 7.9012319999999985,
                    "velocity": 0.7559055118110236,
                    "duration": 0.24691349999999979
                },
                {
                    "name": "G#6",
                    "midi": 92,
                    "time": 8.150203112499998,
                    "velocity": 0.6850393700787402,
                    "duration": 0.13580242499999962
                },
                {
                    "name": "G6",
                    "midi": 91,
                    "time": 8.266458218749998,
                    "velocity": 0.6299212598425197,
                    "duration": 0.1358024250000014
                },
                {
                    "name": "F6",
                    "midi": 89,
                    "time": 8.389914968749999,
                    "velocity": 0.6850393700787402,
                    "duration": 0.13580242499999962
                },
                {
                    "name": "D6",
                    "midi": 86,
                    "time": 8.523659781249998,
                    "velocity": 0.6062992125984252,
                    "duration": 0.13580242499999962
                },
                {
                    "name": "D#6",
                    "midi": 87,
                    "time": 8.639914887499998,
                    "velocity": 0.6062992125984252,
                    "duration": 0.1358024250000014
                },
                {
                    "name": "D6",
                    "midi": 86,
                    "time": 8.763371637499999,
                    "velocity": 0.5984251968503937,
                    "duration": 0.13580242499999962
                },
                {
                    "name": "B5",
                    "midi": 83,
                    "time": 8.88991480625,
                    "velocity": 0.6850393700787402,
                    "duration": 0.13580242499999962
                },
                {
                    "name": "G5",
                    "midi": 79,
                    "time": 9.014400362499998,
                    "velocity": 0.6062992125984252,
                    "duration": 0.1358024250000014
                },
                {
                    "name": "G#5",
                    "midi": 80,
                    "time": 9.139914724999999,
                    "velocity": 0.6062992125984252,
                    "duration": 0.1358024250000014
                },
                {
                    "name": "G5",
                    "midi": 79,
                    "time": 9.2613138625,
                    "velocity": 0.5984251968503937,
                    "duration": 0.1358024250000014
                },
                {
                    "name": "F5",
                    "midi": 77,
                    "time": 9.382713,
                    "velocity": 0.6850393700787402,
                    "duration": 0.1358024250000014
                },
                {
                    "name": "D5",
                    "midi": 74,
                    "time": 9.503083331250002,
                    "velocity": 0.6062992125984252,
                    "duration": 0.13580242499999962
                },
                {
                    "name": "D#5",
                    "midi": 75,
                    "time": 9.632712918750002,
                    "velocity": 0.6062992125984252,
                    "duration": 0.13580242499999962
                },
                {
                    "name": "D5",
                    "midi": 74,
                    "time": 9.753083250000001,
                    "velocity": 0.5984251968503937,
                    "duration": 0.1358024250000014
                },
                {
                    "name": "B4",
                    "midi": 71,
                    "time": 9.876540000000002,
                    "velocity": 0.6850393700787402,
                    "duration": 0.13580242499999962
                },
                {
                    "name": "G4",
                    "midi": 67,
                    "time": 10.005140781250002,
                    "velocity": 0.6062992125984252,
                    "duration": 0.13580242499999962
                },
                {
                    "name": "G#4",
                    "midi": 68,
                    "time": 10.126539918750002,
                    "velocity": 0.6062992125984252,
                    "duration": 0.13580242499999962
                },
                {
                    "name": "G4",
                    "midi": 67,
                    "time": 10.242795025000001,
                    "velocity": 0.5984251968503937,
                    "duration": 0.13580242499999962
                },
                {
                    "name": "F4",
                    "midi": 65,
                    "time": 10.371395806250002,
                    "velocity": 0.6850393700787402,
                    "duration": 0.13580242499999962
                },
                {
                    "name": "D4",
                    "midi": 62,
                    "time": 10.49279494375,
                    "velocity": 0.6062992125984252,
                    "duration": 0.13580242499999962
                },
                {
                    "name": "D#4",
                    "midi": 63,
                    "time": 10.620366918750001,
                    "velocity": 0.6062992125984252,
                    "duration": 0.13580242499999962
                },
                {
                    "name": "D4",
                    "midi": 62,
                    "time": 10.74176605625,
                    "velocity": 0.5984251968503937,
                    "duration": 0.1358024250000014
                },
                {
                    "name": "B3",
                    "midi": 59,
                    "time": 10.865222806250001,
                    "velocity": 0.6850393700787402,
                    "duration": 0.1358024250000014
                },
                {
                    "name": "G3",
                    "midi": 55,
                    "time": 10.985593137500002,
                    "velocity": 0.6062992125984252,
                    "duration": 0.1358024250000014
                },
                {
                    "name": "G#3",
                    "midi": 56,
                    "time": 11.106992275000003,
                    "velocity": 0.6062992125984252,
                    "duration": 0.1358024250000014
                },
                {
                    "name": "G3",
                    "midi": 55,
                    "time": 11.231477831250004,
                    "velocity": 0.5984251968503937,
                    "duration": 0.1358024250000014
                },
                {
                    "name": "F3",
                    "midi": 53,
                    "time": 11.356992193750004,
                    "velocity": 0.6850393700787402,
                    "duration": 0.13580242499999962
                },
                {
                    "name": "D3",
                    "midi": 50,
                    "time": 11.484564168750005,
                    "velocity": 0.6062992125984252,
                    "duration": 0.13580242499999962
                },
                {
                    "name": "D#3",
                    "midi": 51,
                    "time": 11.604934500000004,
                    "velocity": 0.6062992125984252,
                    "duration": 0.13580242499999962
                },
                {
                    "name": "D3",
                    "midi": 50,
                    "time": 11.733535281250004,
                    "velocity": 0.5984251968503937,
                    "duration": 0.13580242499999962
                },
                {
                    "name": "C3",
                    "midi": 48,
                    "time": 11.854934418750004,
                    "velocity": 0.5433070866141733,
                    "duration": 0.12345675000000078
                },
                {
                    "name": "B2",
                    "midi": 47,
                    "time": 11.973247137500005,
                    "velocity": 0.5433070866141733,
                    "duration": 0.123456749999999
                },
                {
                    "name": "G3",
                    "midi": 55,
                    "time": 12.094646275000004,
                    "velocity": 0.5748031496062992,
                    "duration": 0.123456749999999
                },
                {
                    "name": "F3",
                    "midi": 53,
                    "time": 12.224275862500003,
                    "velocity": 0.5669291338582677,
                    "duration": 0.13580242499999962
                },
                {
                    "name": "D#3",
                    "midi": 51,
                    "time": 12.345675000000002,
                    "velocity": 0.5590551181102362,
                    "duration": 0.1358024250000014
                },
                {
                    "name": "D3",
                    "midi": 50,
                    "time": 12.463987718750003,
                    "velocity": 0.5511811023622047,
                    "duration": 0.13580242499999962
                },
                {
                    "name": "D#3",
                    "midi": 51,
                    "time": 12.594646112500003,
                    "velocity": 0.5433070866141733,
                    "duration": 0.13580242499999962
                },
                {
                    "name": "D3",
                    "midi": 50,
                    "time": 12.716045250000002,
                    "velocity": 0.5433070866141733,
                    "duration": 0.1358024250000014
                },
                {
                    "name": "C3",
                    "midi": 48,
                    "time": 12.835386775000003,
                    "velocity": 0.5433070866141733,
                    "duration": 0.13580242499999962
                },
                {
                    "name": "B2",
                    "midi": 47,
                    "time": 12.968102781250003,
                    "velocity": 0.5354330708661418,
                    "duration": 0.123456749999999
                },
                {
                    "name": "A#3",
                    "midi": 58,
                    "time": 13.082300275000003,
                    "velocity": 0.5984251968503937,
                    "duration": 0.13580242499999962
                },
                {
                    "name": "G#3",
                    "midi": 56,
                    "time": 13.213987475000003,
                    "velocity": 0.5826771653543307,
                    "duration": 0.13580242499999962
                },
                {
                    "name": "G3",
                    "midi": 55,
                    "time": 13.335386612500002,
                    "velocity": 0.5984251968503937,
                    "duration": 0.1358024250000014
                },
                {
                    "name": "F3",
                    "midi": 53,
                    "time": 13.454728137500004,
                    "velocity": 0.5826771653543307,
                    "duration": 0.1358024250000014
                },
                {
                    "name": "G3",
                    "midi": 55,
                    "time": 13.579213693750004,
                    "velocity": 0.5826771653543307,
                    "duration": 0.1358024250000014
                },
                {
                    "name": "F3",
                    "midi": 53,
                    "time": 13.698555218750005,
                    "velocity": 0.5748031496062992,
                    "duration": 0.13580242499999962
                },
                {
                    "name": "D#3",
                    "midi": 51,
                    "time": 13.832300031250005,
                    "velocity": 0.5748031496062992,
                    "duration": 0.13580242499999962
                },
                {
                    "name": "D3",
                    "midi": 50,
                    "time": 13.952670362500005,
                    "velocity": 0.5748031496062992,
                    "duration": 0.123456749999999
                },
                {
                    "name": "D#4",
                    "midi": 63,
                    "time": 14.069954275000004,
                    "velocity": 0.6456692913385826,
                    "duration": 0.13580242499999962
                },
                {
                    "name": "D4",
                    "midi": 62,
                    "time": 14.201641475000004,
                    "velocity": 0.6535433070866141,
                    "duration": 0.13580242499999962
                },
                {
                    "name": "C4",
                    "midi": 60,
                    "time": 14.325098225000003,
                    "velocity": 0.6614173228346457,
                    "duration": 0.1358024250000014
                },
                {
                    "name": "B3",
                    "midi": 59,
                    "time": 14.445468556250004,
                    "velocity": 0.6692913385826772,
                    "duration": 0.1358024250000014
                },
                {
                    "name": "C4",
                    "midi": 60,
                    "time": 14.564810081250005,
                    "velocity": 0.6692913385826772,
                    "duration": 0.1358024250000014
                },
                {
                    "name": "B3",
                    "midi": 59,
                    "time": 14.687238025000006,
                    "velocity": 0.6850393700787402,
                    "duration": 0.13580242499999962
                },
                {
                    "name": "G#3",
                    "midi": 56,
                    "time": 14.817896418750006,
                    "velocity": 0.6929133858267716,
                    "duration": 0.13580242499999962
                },
                {
                    "name": "G3",
                    "midi": 55,
                    "time": 14.938266750000006,
                    "velocity": 0.7007874015748031,
                    "duration": 0.1358024250000014
                },
                {
                    "name": "G#3",
                    "midi": 56,
                    "time": 15.057608275000007,
                    "velocity": 0.7086614173228346,
                    "duration": 0.13580242499999962
                },
                {
                    "name": "G3",
                    "midi": 55,
                    "time": 15.185180250000007,
                    "velocity": 0.7007874015748031,
                    "duration": 0.13580242499999784
                },
                {
                    "name": "F3",
                    "midi": 53,
                    "time": 15.311723418750006,
                    "velocity": 0.7244094488188977,
                    "duration": 0.13580242499999962
                },
                {
                    "name": "D#3",
                    "midi": 51,
                    "time": 15.431064943750005,
                    "velocity": 0.7401574803149606,
                    "duration": 0.1358024250000014
                },
                {
                    "name": "F3",
                    "midi": 53,
                    "time": 15.553492887500006,
                    "velocity": 0.7637795275590551,
                    "duration": 0.13580242499999962
                },
                {
                    "name": "D#3",
                    "midi": 51,
                    "time": 15.680036056250007,
                    "velocity": 0.8031496062992126,
                    "duration": 0.13580242499999962
                },
                {
                    "name": "C3",
                    "midi": 48,
                    "time": 15.799377581250006,
                    "velocity": 0.8188976377952756,
                    "duration": 0.24691350000000156
                },
                {
                    "name": "C6",
                    "midi": 84,
                    "time": 19.135796250000006,
                    "velocity": 0.7480314960629921,
                    "duration": 0.13374481249999803
                },
                {
                    "name": "C5",
                    "midi": 72,
                    "time": 19.135796250000006,
                    "velocity": 0.6850393700787402,
                    "duration": 0.13374481249999803
                },
                {
                    "name": "D5",
                    "midi": 74,
                    "time": 19.259253000000005,
                    "velocity": 0.7322834645669292,
                    "duration": 0.3806583124999996
                },
                {
                    "name": "D6",
                    "midi": 86,
                    "time": 19.259253000000005,
                    "velocity": 0.8031496062992126,
                    "duration": 0.3806583124999996
                },
                {
                    "name": "D#5",
                    "midi": 75,
                    "time": 19.629623250000005,
                    "velocity": 0.7637795275590551,
                    "duration": 0.123456749999999
                },
                {
                    "name": "D#6",
                    "midi": 87,
                    "time": 19.629623250000005,
                    "velocity": 0.84251968503937,
                    "duration": 0.123456749999999
                },
                {
                    "name": "D#5",
                    "midi": 75,
                    "time": 19.753080000000004,
                    "velocity": 0.8188976377952756,
                    "duration": 0.9876539999999991
                },
                {
                    "name": "D#6",
                    "midi": 87,
                    "time": 19.753080000000004,
                    "velocity": 0.8976377952755905,
                    "duration": 0.9876539999999991
                },
                {
                    "name": "C5",
                    "midi": 72,
                    "time": 21.111104250000004,
                    "velocity": 0.3700787401574803,
                    "duration": 0.123456749999999
                },
                {
                    "name": "G4",
                    "midi": 67,
                    "time": 21.111104250000004,
                    "velocity": 0.3700787401574803,
                    "duration": 0.123456749999999
                },
                {
                    "name": "D#5",
                    "midi": 75,
                    "time": 21.111104250000004,
                    "velocity": 0.3700787401574803,
                    "duration": 0.123456749999999
                },
                {
                    "name": "G5",
                    "midi": 79,
                    "time": 21.111104250000004,
                    "velocity": 0.3700787401574803,
                    "duration": 0.123456749999999
                },
                {
                    "name": "G4",
                    "midi": 67,
                    "time": 21.234561000000003,
                    "velocity": 0.3700787401574803,
                    "duration": 0.37037025000000057
                },
                {
                    "name": "C5",
                    "midi": 72,
                    "time": 21.234561000000003,
                    "velocity": 0.3700787401574803,
                    "duration": 0.37037025000000057
                },
                {
                    "name": "D#5",
                    "midi": 75,
                    "time": 21.234561000000003,
                    "velocity": 0.3700787401574803,
                    "duration": 0.37037025000000057
                },
                {
                    "name": "G5",
                    "midi": 79,
                    "time": 21.234561000000003,
                    "velocity": 0.3700787401574803,
                    "duration": 0.37037025000000057
                },
                {
                    "name": "G4",
                    "midi": 67,
                    "time": 21.604931250000003,
                    "velocity": 0.4251968503937008,
                    "duration": 0.123456749999999
                },
                {
                    "name": "C5",
                    "midi": 72,
                    "time": 21.604931250000003,
                    "velocity": 0.4251968503937008,
                    "duration": 0.123456749999999
                },
                {
                    "name": "D#5",
                    "midi": 75,
                    "time": 21.604931250000003,
                    "velocity": 0.4251968503937008,
                    "duration": 0.123456749999999
                },
                {
                    "name": "G5",
                    "midi": 79,
                    "time": 21.604931250000003,
                    "velocity": 0.4251968503937008,
                    "duration": 0.123456749999999
                },
                {
                    "name": "G#5",
                    "midi": 80,
                    "time": 21.728388000000002,
                    "velocity": 0.4330708661417323,
                    "duration": 0.9876539999999991
                },
                {
                    "name": "C5",
                    "midi": 72,
                    "time": 21.728388000000002,
                    "velocity": 0.4330708661417323,
                    "duration": 0.9876539999999991
                },
                {
                    "name": "D#5",
                    "midi": 75,
                    "time": 21.728388000000002,
                    "velocity": 0.4330708661417323,
                    "duration": 0.9876539999999991
                },
                {
                    "name": "G#4",
                    "midi": 68,
                    "time": 21.728388000000002,
                    "velocity": 0.4330708661417323,
                    "duration": 0.9876539999999991
                },
                {
                    "name": "G4",
                    "midi": 67,
                    "time": 22.716042,
                    "velocity": 0.3700787401574803,
                    "duration": 0.24691350000000156
                },
                {
                    "name": "C5",
                    "midi": 72,
                    "time": 22.716042,
                    "velocity": 0.3700787401574803,
                    "duration": 0.24691350000000156
                },
                {
                    "name": "D#5",
                    "midi": 75,
                    "time": 22.716042,
                    "velocity": 0.3700787401574803,
                    "duration": 0.24691350000000156
                },
                {
                    "name": "G5",
                    "midi": 79,
                    "time": 22.716042,
                    "velocity": 0.3700787401574803,
                    "duration": 0.24691350000000156
                },
                {
                    "name": "C6",
                    "midi": 84,
                    "time": 23.086412250000002,
                    "velocity": 0.7480314960629921,
                    "duration": 0.13374481249999803
                },
                {
                    "name": "C5",
                    "midi": 72,
                    "time": 23.086412250000002,
                    "velocity": 0.6850393700787402,
                    "duration": 0.13374481249999803
                },
                {
                    "name": "D5",
                    "midi": 74,
                    "time": 23.209869,
                    "velocity": 0.7244094488188977,
                    "duration": 0.3806583124999996
                },
                {
                    "name": "D6",
                    "midi": 86,
                    "time": 23.209869,
                    "velocity": 0.7952755905511811,
                    "duration": 0.3806583124999996
                },
                {
                    "name": "D#5",
                    "midi": 75,
                    "time": 23.58023925,
                    "velocity": 0.7637795275590551,
                    "duration": 0.123456749999999
                },
                {
                    "name": "D#6",
                    "midi": 87,
                    "time": 23.58023925,
                    "velocity": 0.84251968503937,
                    "duration": 0.123456749999999
                },
                {
                    "name": "D#5",
                    "midi": 75,
                    "time": 23.703696,
                    "velocity": 0.8110236220472441,
                    "duration": 0.9876539999999991
                },
                {
                    "name": "D#6",
                    "midi": 87,
                    "time": 23.703696,
                    "velocity": 0.889763779527559,
                    "duration": 0.9876539999999991
                },
                {
                    "name": "G4",
                    "midi": 67,
                    "time": 25.06172025,
                    "velocity": 0.5433070866141733,
                    "duration": 0.123456749999999
                },
                {
                    "name": "C5",
                    "midi": 72,
                    "time": 25.06172025,
                    "velocity": 0.5433070866141733,
                    "duration": 0.123456749999999
                },
                {
                    "name": "D#5",
                    "midi": 75,
                    "time": 25.06172025,
                    "velocity": 0.5433070866141733,
                    "duration": 0.123456749999999
                },
                {
                    "name": "G5",
                    "midi": 79,
                    "time": 25.06172025,
                    "velocity": 0.5984251968503937,
                    "duration": 0.123456749999999
                },
                {
                    "name": "G4",
                    "midi": 67,
                    "time": 25.185177,
                    "velocity": 0.5433070866141733,
                    "duration": 0.37037025000000057
                },
                {
                    "name": "C5",
                    "midi": 72,
                    "time": 25.185177,
                    "velocity": 0.5433070866141733,
                    "duration": 0.37037025000000057
                },
                {
                    "name": "D#5",
                    "midi": 75,
                    "time": 25.185177,
                    "velocity": 0.5433070866141733,
                    "duration": 0.37037025000000057
                },
                {
                    "name": "G5",
                    "midi": 79,
                    "time": 25.185177,
                    "velocity": 0.5984251968503937,
                    "duration": 0.37037025000000057
                },
                {
                    "name": "G5",
                    "midi": 79,
                    "time": 25.55554725,
                    "velocity": 0.6456692913385826,
                    "duration": 0.123456749999999
                },
                {
                    "name": "C5",
                    "midi": 72,
                    "time": 25.55554725,
                    "velocity": 0.5905511811023622,
                    "duration": 0.123456749999999
                },
                {
                    "name": "D#5",
                    "midi": 75,
                    "time": 25.55554725,
                    "velocity": 0.5905511811023622,
                    "duration": 0.123456749999999
                },
                {
                    "name": "G4",
                    "midi": 67,
                    "time": 25.55554725,
                    "velocity": 0.5905511811023622,
                    "duration": 0.123456749999999
                },
                {
                    "name": "A4",
                    "midi": 69,
                    "time": 25.679004,
                    "velocity": 0.6614173228346457,
                    "duration": 1.9753079999999983
                },
                {
                    "name": "C5",
                    "midi": 72,
                    "time": 25.679004,
                    "velocity": 0.6614173228346457,
                    "duration": 1.9753079999999983
                },
                {
                    "name": "D#5",
                    "midi": 75,
                    "time": 25.679004,
                    "velocity": 0.6614173228346457,
                    "duration": 1.9753079999999983
                },
                {
                    "name": "A5",
                    "midi": 81,
                    "time": 25.679004,
                    "velocity": 0.7244094488188977,
                    "duration": 1.9753079999999983
                },
                {
                    "name": "D5",
                    "midi": 74,
                    "time": 27.654311999999997,
                    "velocity": 0.7480314960629921,
                    "duration": 0.30864187500000284
                },
                {
                    "name": "A5",
                    "midi": 81,
                    "time": 27.654311999999997,
                    "velocity": 0.7480314960629921,
                    "duration": 0.24691350000000156
                },
                {
                    "name": "D6",
                    "midi": 86,
                    "time": 27.654311999999997,
                    "velocity": 0.8267716535433071,
                    "duration": 0.30864187500000284
                },
                {
                    "name": "G5",
                    "midi": 79,
                    "time": 28.148139,
                    "velocity": 0.7165354330708661,
                    "duration": 0.49382699999999957
                },
                {
                    "name": "G4",
                    "midi": 67,
                    "time": 28.148139,
                    "velocity": 0.6535433070866141,
                    "duration": 0.49382699999999957
                },
                {
                    "name": "D5",
                    "midi": 74,
                    "time": 28.148139,
                    "velocity": 0.6535433070866141,
                    "duration": 0.49382699999999957
                },
                {
                    "name": "G4",
                    "midi": 67,
                    "time": 29.01233625,
                    "velocity": 0.5196850393700787,
                    "duration": 0.123456749999999
                },
                {
                    "name": "C#5",
                    "midi": 73,
                    "time": 29.01233625,
                    "velocity": 0.5196850393700787,
                    "duration": 0.123456749999999
                },
                {
                    "name": "G5",
                    "midi": 79,
                    "time": 29.01233625,
                    "velocity": 0.5669291338582677,
                    "duration": 0.123456749999999
                },
                {
                    "name": "C#5",
                    "midi": 73,
                    "time": 29.135793,
                    "velocity": 0.6377952755905512,
                    "duration": 0.37037025000000057
                },
                {
                    "name": "G#4",
                    "midi": 68,
                    "time": 29.135793,
                    "velocity": 0.6377952755905512,
                    "duration": 0.37037025000000057
                },
                {
                    "name": "G#5",
                    "midi": 80,
                    "time": 29.135793,
                    "velocity": 0.7007874015748031,
                    "duration": 0.37037025000000057
                },
                {
                    "name": "C#5",
                    "midi": 73,
                    "time": 29.50616325,
                    "velocity": 0.5118110236220472,
                    "duration": 0.123456749999999
                },
                {
                    "name": "G4",
                    "midi": 67,
                    "time": 29.50616325,
                    "velocity": 0.5118110236220472,
                    "duration": 0.123456749999999
                },
                {
                    "name": "G5",
                    "midi": 79,
                    "time": 29.50616325,
                    "velocity": 0.5590551181102362,
                    "duration": 0.123456749999999
                },
                {
                    "name": "G4",
                    "midi": 67,
                    "time": 29.62962,
                    "velocity": 0.5826771653543307,
                    "duration": 0.2572015625000006
                },
                {
                    "name": "C5",
                    "midi": 72,
                    "time": 29.62962,
                    "velocity": 0.5826771653543307,
                    "duration": 0.24691350000000156
                },
                {
                    "name": "G5",
                    "midi": 79,
                    "time": 29.62962,
                    "velocity": 0.6377952755905512,
                    "duration": 0.2572015625000006
                },
                {
                    "name": "C5",
                    "midi": 72,
                    "time": 29.8765335,
                    "velocity": 0.5511811023622047,
                    "duration": 0.123456749999999
                },
                {
                    "name": "C6",
                    "midi": 84,
                    "time": 29.8765335,
                    "velocity": 0.5984251968503937,
                    "duration": 0.123456749999999
                },
                {
                    "name": "F4",
                    "midi": 65,
                    "time": 30.123447,
                    "velocity": 0.6062992125984252,
                    "duration": 0.49382699999999957
                },
                {
                    "name": "C5",
                    "midi": 72,
                    "time": 30.123447,
                    "velocity": 0.6062992125984252,
                    "duration": 0.49382699999999957
                },
                {
                    "name": "F5",
                    "midi": 77,
                    "time": 30.123447,
                    "velocity": 0.6771653543307087,
                    "duration": 0.49382699999999957
                },
                {
                    "name": "F4",
                    "midi": 65,
                    "time": 30.98764425,
                    "velocity": 0.49606299212598426,
                    "duration": 0.123456749999999
                },
                {
                    "name": "C5",
                    "midi": 72,
                    "time": 30.98764425,
                    "velocity": 0.49606299212598426,
                    "duration": 0.123456749999999
                },
                {
                    "name": "F5",
                    "midi": 77,
                    "time": 30.98764425,
                    "velocity": 0.5433070866141733,
                    "duration": 0.123456749999999
                },
                {
                    "name": "G4",
                    "midi": 67,
                    "time": 31.111100999999998,
                    "velocity": 0.6220472440944882,
                    "duration": 0.37037025000000057
                },
                {
                    "name": "C5",
                    "midi": 72,
                    "time": 31.111100999999998,
                    "velocity": 0.6220472440944882,
                    "duration": 0.37037025000000057
                },
                {
                    "name": "G5",
                    "midi": 79,
                    "time": 31.111100999999998,
                    "velocity": 0.6850393700787402,
                    "duration": 0.37037025000000057
                },
                {
                    "name": "F4",
                    "midi": 65,
                    "time": 31.48147125,
                    "velocity": 0.49606299212598426,
                    "duration": 0.123456749999999
                },
                {
                    "name": "C5",
                    "midi": 72,
                    "time": 31.48147125,
                    "velocity": 0.49606299212598426,
                    "duration": 0.123456749999999
                },
                {
                    "name": "F5",
                    "midi": 77,
                    "time": 31.48147125,
                    "velocity": 0.5433070866141733,
                    "duration": 0.123456749999999
                },
                {
                    "name": "E4",
                    "midi": 64,
                    "time": 31.604927999999997,
                    "velocity": 0.5984251968503937,
                    "duration": 1.8518512499999993
                },
                {
                    "name": "C5",
                    "midi": 72,
                    "time": 31.604927999999997,
                    "velocity": 0.5984251968503937,
                    "duration": 1.8518512499999993
                },
                {
                    "name": "E5",
                    "midi": 76,
                    "time": 31.604927999999997,
                    "velocity": 0.6614173228346457,
                    "duration": 1.8518512499999993
                },
                {
                    "name": "D#4",
                    "midi": 63,
                    "time": 33.45677925,
                    "velocity": 0.5511811023622047,
                    "duration": 0.12345675000000256
                },
                {
                    "name": "D#5",
                    "midi": 75,
                    "time": 33.45677925,
                    "velocity": 0.5511811023622047,
                    "duration": 0.12345675000000256
                },
                {
                    "name": "B4",
                    "midi": 71,
                    "time": 33.580236,
                    "velocity": 0.5905511811023622,
                    "duration": 0.9876540000000062
                },
                {
                    "name": "D#4",
                    "midi": 63,
                    "time": 33.580236,
                    "velocity": 0.5905511811023622,
                    "duration": 0.4938270000000031
                },
                {
                    "name": "D#5",
                    "midi": 75,
                    "time": 33.580236,
                    "velocity": 0.5905511811023622,
                    "duration": 0.4938270000000031
                },
                {
                    "name": "D4",
                    "midi": 62,
                    "time": 34.074063,
                    "velocity": 0.49606299212598426,
                    "duration": 0.4938270000000031
                },
                {
                    "name": "D5",
                    "midi": 74,
                    "time": 34.074063,
                    "velocity": 0.49606299212598426,
                    "duration": 0.4938270000000031
                },
                {
                    "name": "C5",
                    "midi": 72,
                    "time": 38.88887625,
                    "velocity": 0.48031496062992124,
                    "duration": 0.13374481250000514
                },
                {
                    "name": "C6",
                    "midi": 84,
                    "time": 38.88887625,
                    "velocity": 0.5275590551181102,
                    "duration": 0.13374481250000514
                },
                {
                    "name": "D6",
                    "midi": 86,
                    "time": 39.012333000000005,
                    "velocity": 0.5275590551181102,
                    "duration": 0.38065831250000315
                },
                {
                    "name": "D5",
                    "midi": 74,
                    "time": 39.012333000000005,
                    "velocity": 0.48031496062992124,
                    "duration": 0.38065831250000315
                },
                {
                    "name": "D#5",
                    "midi": 75,
                    "time": 39.382703250000006,
                    "velocity": 0.4881889763779528,
                    "duration": 0.12345675000000256
                },
                {
                    "name": "D#6",
                    "midi": 87,
                    "time": 39.382703250000006,
                    "velocity": 0.5354330708661418,
                    "duration": 0.12345675000000256
                },
                {
                    "name": "D#5",
                    "midi": 75,
                    "time": 39.50616000000001,
                    "velocity": 0.5669291338582677,
                    "duration": 0.9876539999999991
                },
                {
                    "name": "D#6",
                    "midi": 87,
                    "time": 39.50616000000001,
                    "velocity": 0.6220472440944882,
                    "duration": 0.9876539999999991
                },
                {
                    "name": "G4",
                    "midi": 67,
                    "time": 40.86418425000001,
                    "velocity": 0.4015748031496063,
                    "duration": 0.12345675000000256
                },
                {
                    "name": "C5",
                    "midi": 72,
                    "time": 40.86418425000001,
                    "velocity": 0.4015748031496063,
                    "duration": 0.12345675000000256
                },
                {
                    "name": "D#5",
                    "midi": 75,
                    "time": 40.86418425000001,
                    "velocity": 0.4015748031496063,
                    "duration": 0.12345675000000256
                },
                {
                    "name": "G5",
                    "midi": 79,
                    "time": 40.86418425000001,
                    "velocity": 0.4409448818897638,
                    "duration": 0.12345675000000256
                },
                {
                    "name": "G4",
                    "midi": 67,
                    "time": 40.98764100000001,
                    "velocity": 0.4015748031496063,
                    "duration": 0.37037025000000057
                },
                {
                    "name": "C5",
                    "midi": 72,
                    "time": 40.98764100000001,
                    "velocity": 0.4015748031496063,
                    "duration": 0.37037025000000057
                },
                {
                    "name": "D#5",
                    "midi": 75,
                    "time": 40.98764100000001,
                    "velocity": 0.4015748031496063,
                    "duration": 0.37037025000000057
                },
                {
                    "name": "G5",
                    "midi": 79,
                    "time": 40.98764100000001,
                    "velocity": 0.4409448818897638,
                    "duration": 0.37037025000000057
                },
                {
                    "name": "G4",
                    "midi": 67,
                    "time": 41.35801125000001,
                    "velocity": 0.4015748031496063,
                    "duration": 0.12345675000000256
                },
                {
                    "name": "C5",
                    "midi": 72,
                    "time": 41.35801125000001,
                    "velocity": 0.4015748031496063,
                    "duration": 0.12345675000000256
                },
                {
                    "name": "D#5",
                    "midi": 75,
                    "time": 41.35801125000001,
                    "velocity": 0.4015748031496063,
                    "duration": 0.12345675000000256
                },
                {
                    "name": "G5",
                    "midi": 79,
                    "time": 41.35801125000001,
                    "velocity": 0.4409448818897638,
                    "duration": 0.12345675000000256
                },
                {
                    "name": "G#4",
                    "midi": 68,
                    "time": 41.481468000000014,
                    "velocity": 0.47244094488188976,
                    "duration": 0.9876539999999991
                },
                {
                    "name": "C5",
                    "midi": 72,
                    "time": 41.481468000000014,
                    "velocity": 0.47244094488188976,
                    "duration": 0.9876539999999991
                },
                {
                    "name": "D#5",
                    "midi": 75,
                    "time": 41.481468000000014,
                    "velocity": 0.47244094488188976,
                    "duration": 0.9876539999999991
                },
                {
                    "name": "G#5",
                    "midi": 80,
                    "time": 41.481468000000014,
                    "velocity": 0.5196850393700787,
                    "duration": 0.9876539999999991
                },
                {
                    "name": "G5",
                    "midi": 79,
                    "time": 42.46912200000001,
                    "velocity": 0.4409448818897638,
                    "duration": 0.246913499999998
                },
                {
                    "name": "C5",
                    "midi": 72,
                    "time": 42.46912200000001,
                    "velocity": 0.4015748031496063,
                    "duration": 0.246913499999998
                },
                {
                    "name": "D#5",
                    "midi": 75,
                    "time": 42.46912200000001,
                    "velocity": 0.4015748031496063,
                    "duration": 0.246913499999998
                },
                {
                    "name": "G4",
                    "midi": 67,
                    "time": 42.46912200000001,
                    "velocity": 0.4015748031496063,
                    "duration": 0.246913499999998
                },
                {
                    "name": "C5",
                    "midi": 72,
                    "time": 42.83949225000001,
                    "velocity": 0.5669291338582677,
                    "duration": 0.13374481250000514
                },
                {
                    "name": "C6",
                    "midi": 84,
                    "time": 42.83949225000001,
                    "velocity": 0.6220472440944882,
                    "duration": 0.13374481250000514
                },
                {
                    "name": "D5",
                    "midi": 74,
                    "time": 42.962949000000016,
                    "velocity": 0.6614173228346457,
                    "duration": 0.38065831250000315
                },
                {
                    "name": "D6",
                    "midi": 86,
                    "time": 42.962949000000016,
                    "velocity": 0.7244094488188977,
                    "duration": 0.38065831250000315
                },
                {
                    "name": "D#5",
                    "midi": 75,
                    "time": 43.33331925000002,
                    "velocity": 0.7244094488188977,
                    "duration": 0.12345675000000256
                },
                {
                    "name": "D#6",
                    "midi": 87,
                    "time": 43.33331925000002,
                    "velocity": 0.7952755905511811,
                    "duration": 0.12345675000000256
                },
                {
                    "name": "D#5",
                    "midi": 75,
                    "time": 43.45677600000002,
                    "velocity": 0.7637795275590551,
                    "duration": 0.9876539999999991
                },
                {
                    "name": "D#6",
                    "midi": 87,
                    "time": 43.45677600000002,
                    "velocity": 0.84251968503937,
                    "duration": 0.9876539999999991
                },
                {
                    "name": "G5",
                    "midi": 79,
                    "time": 44.81480025000002,
                    "velocity": 0.6377952755905512,
                    "duration": 0.12345675000000256
                },
                {
                    "name": "C5",
                    "midi": 72,
                    "time": 44.81480025000002,
                    "velocity": 0.5826771653543307,
                    "duration": 0.12345675000000256
                },
                {
                    "name": "D#5",
                    "midi": 75,
                    "time": 44.81480025000002,
                    "velocity": 0.5826771653543307,
                    "duration": 0.12345675000000256
                },
                {
                    "name": "G4",
                    "midi": 67,
                    "time": 44.81480025000002,
                    "velocity": 0.5826771653543307,
                    "duration": 0.12345675000000256
                },
                {
                    "name": "G4",
                    "midi": 67,
                    "time": 44.93825700000002,
                    "velocity": 0.5826771653543307,
                    "duration": 0.37037025000000057
                },
                {
                    "name": "C5",
                    "midi": 72,
                    "time": 44.93825700000002,
                    "velocity": 0.5826771653543307,
                    "duration": 0.37037025000000057
                },
                {
                    "name": "D#5",
                    "midi": 75,
                    "time": 44.93825700000002,
                    "velocity": 0.5826771653543307,
                    "duration": 0.37037025000000057
                },
                {
                    "name": "G5",
                    "midi": 79,
                    "time": 44.93825700000002,
                    "velocity": 0.6377952755905512,
                    "duration": 0.37037025000000057
                },
                {
                    "name": "G4",
                    "midi": 67,
                    "time": 45.30862725000002,
                    "velocity": 0.5984251968503937,
                    "duration": 0.12345675000000256
                },
                {
                    "name": "C5",
                    "midi": 72,
                    "time": 45.30862725000002,
                    "velocity": 0.5984251968503937,
                    "duration": 0.12345675000000256
                },
                {
                    "name": "D#5",
                    "midi": 75,
                    "time": 45.30862725000002,
                    "velocity": 0.5984251968503937,
                    "duration": 0.12345675000000256
                },
                {
                    "name": "G5",
                    "midi": 79,
                    "time": 45.30862725000002,
                    "velocity": 0.6535433070866141,
                    "duration": 0.12345675000000256
                },
                {
                    "name": "A5",
                    "midi": 81,
                    "time": 45.432084000000025,
                    "velocity": 0.7480314960629921,
                    "duration": 1.9753079999999983
                },
                {
                    "name": "D#5",
                    "midi": 75,
                    "time": 45.432084000000025,
                    "velocity": 0.6850393700787402,
                    "duration": 1.9753079999999983
                },
                {
                    "name": "F5",
                    "midi": 77,
                    "time": 45.432084000000025,
                    "velocity": 0.6850393700787402,
                    "duration": 1.9753079999999983
                },
                {
                    "name": "A4",
                    "midi": 69,
                    "time": 45.432084000000025,
                    "velocity": 0.6850393700787402,
                    "duration": 1.9753079999999983
                },
                {
                    "name": "A#4",
                    "midi": 70,
                    "time": 47.40739200000002,
                    "velocity": 0.5590551181102362,
                    "duration": 0.7407405000000011
                },
                {
                    "name": "F5",
                    "midi": 77,
                    "time": 47.40739200000002,
                    "velocity": 0.5590551181102362,
                    "duration": 0.7407405000000011
                },
                {
                    "name": "A#5",
                    "midi": 82,
                    "time": 47.40739200000002,
                    "velocity": 0.6062992125984252,
                    "duration": 0.7407405000000011
                },
                {
                    "name": "A#4",
                    "midi": 70,
                    "time": 48.148132500000024,
                    "velocity": 0.5748031496062992,
                    "duration": 0.4938270000000031
                },
                {
                    "name": "F5",
                    "midi": 77,
                    "time": 48.148132500000024,
                    "velocity": 0.5748031496062992,
                    "duration": 0.4938270000000031
                },
                {
                    "name": "A#5",
                    "midi": 82,
                    "time": 48.148132500000024,
                    "velocity": 0.6299212598425197,
                    "duration": 0.4938270000000031
                },
                {
                    "name": "A#4",
                    "midi": 70,
                    "time": 48.64195950000003,
                    "velocity": 0.5984251968503937,
                    "duration": 0.4938270000000031
                },
                {
                    "name": "G5",
                    "midi": 79,
                    "time": 48.64195950000003,
                    "velocity": 0.5984251968503937,
                    "duration": 0.4938270000000031
                },
                {
                    "name": "A#5",
                    "midi": 82,
                    "time": 48.64195950000003,
                    "velocity": 0.6614173228346457,
                    "duration": 0.4938270000000031
                },
                {
                    "name": "G5",
                    "midi": 79,
                    "time": 49.13578650000003,
                    "velocity": 0.6220472440944882,
                    "duration": 0.4938270000000031
                },
                {
                    "name": "B4",
                    "midi": 71,
                    "time": 49.13578650000003,
                    "velocity": 0.6220472440944882,
                    "duration": 0.4938270000000031
                },
                {
                    "name": "B5",
                    "midi": 83,
                    "time": 49.13578650000003,
                    "velocity": 0.6850393700787402,
                    "duration": 0.4938270000000031
                },
                {
                    "name": "G5",
                    "midi": 79,
                    "time": 49.62961350000003,
                    "velocity": 0.6456692913385826,
                    "duration": 0.4938270000000031
                },
                {
                    "name": "C5",
                    "midi": 72,
                    "time": 49.62961350000003,
                    "velocity": 0.6456692913385826,
                    "duration": 0.4938270000000031
                },
                {
                    "name": "A#5",
                    "midi": 82,
                    "time": 49.62961350000003,
                    "velocity": 0.6456692913385826,
                    "duration": 0.4938270000000031
                },
                {
                    "name": "C6",
                    "midi": 84,
                    "time": 49.62961350000003,
                    "velocity": 0.7086614173228346,
                    "duration": 0.4938270000000031
                },
                {
                    "name": "C#5",
                    "midi": 73,
                    "time": 50.12344050000004,
                    "velocity": 0.6692913385826772,
                    "duration": 0.4938270000000031
                },
                {
                    "name": "C#6",
                    "midi": 85,
                    "time": 50.12344050000004,
                    "velocity": 0.7322834645669292,
                    "duration": 0.4938270000000031
                },
                {
                    "name": "A#5",
                    "midi": 82,
                    "time": 50.12344050000004,
                    "velocity": 0.6692913385826772,
                    "duration": 0.4938270000000031
                },
                {
                    "name": "D5",
                    "midi": 74,
                    "time": 50.61726750000004,
                    "velocity": 0.7007874015748031,
                    "duration": 0.2572015625000006
                },
                {
                    "name": "A#5",
                    "midi": 82,
                    "time": 50.61726750000004,
                    "velocity": 0.7007874015748031,
                    "duration": 0.246913499999998
                },
                {
                    "name": "D6",
                    "midi": 86,
                    "time": 50.61726750000004,
                    "velocity": 0.7637795275590551,
                    "duration": 0.2572015625000006
                },
                {
                    "name": "D#5",
                    "midi": 75,
                    "time": 50.86418100000004,
                    "velocity": 0.7086614173228346,
                    "duration": 0.2572015625000077
                },
                {
                    "name": "A#5",
                    "midi": 82,
                    "time": 50.86418100000004,
                    "velocity": 0.7086614173228346,
                    "duration": 0.24691350000000511
                },
                {
                    "name": "D#6",
                    "midi": 87,
                    "time": 50.86418100000004,
                    "velocity": 0.7795275590551181,
                    "duration": 0.2572015625000077
                },
                {
                    "name": "E5",
                    "midi": 76,
                    "time": 51.11109450000004,
                    "velocity": 0.7244094488188977,
                    "duration": 0.2572015625000077
                },
                {
                    "name": "A#5",
                    "midi": 82,
                    "time": 51.11109450000004,
                    "velocity": 0.7244094488188977,
                    "duration": 0.24691350000000511
                },
                {
                    "name": "E6",
                    "midi": 88,
                    "time": 51.11109450000004,
                    "velocity": 0.7952755905511811,
                    "duration": 0.2572015625000077
                },
                {
                    "name": "A#5",
                    "midi": 82,
                    "time": 51.35800800000005,
                    "velocity": 0.7637795275590551,
                    "duration": 0.9876539999999991
                },
                {
                    "name": "F6",
                    "midi": 89,
                    "time": 51.35800800000005,
                    "velocity": 0.84251968503937,
                    "duration": 0.9876539999999991
                },
                {
                    "name": "D6",
                    "midi": 86,
                    "time": 51.35800800000005,
                    "velocity": 0.7637795275590551,
                    "duration": 0.9876539999999991
                },
                {
                    "name": "F5",
                    "midi": 77,
                    "time": 51.35800800000005,
                    "velocity": 0.7637795275590551,
                    "duration": 0.9876539999999991
                },
                {
                    "name": "A#5",
                    "midi": 82,
                    "time": 52.34566200000005,
                    "velocity": 0.7086614173228346,
                    "duration": 0.4938270000000031
                },
                {
                    "name": "D5",
                    "midi": 74,
                    "time": 52.34566200000005,
                    "velocity": 0.7086614173228346,
                    "duration": 0.4938270000000031
                },
                {
                    "name": "F5",
                    "midi": 77,
                    "time": 52.34566200000005,
                    "velocity": 0.7086614173228346,
                    "duration": 0.4938270000000031
                },
                {
                    "name": "D6",
                    "midi": 86,
                    "time": 52.34566200000005,
                    "velocity": 0.7795275590551181,
                    "duration": 0.8641972500000037
                },
                {
                    "name": "D#5",
                    "midi": 75,
                    "time": 52.83948900000005,
                    "velocity": 0.6614173228346457,
                    "duration": 0.4938270000000031
                },
                {
                    "name": "F5",
                    "midi": 77,
                    "time": 52.83948900000005,
                    "velocity": 0.6614173228346457,
                    "duration": 0.4938270000000031
                },
                {
                    "name": "A5",
                    "midi": 81,
                    "time": 52.83948900000005,
                    "velocity": 0.6614173228346457,
                    "duration": 0.4938270000000031
                },
                {
                    "name": "C6",
                    "midi": 84,
                    "time": 53.20985925000005,
                    "velocity": 0.6692913385826772,
                    "duration": 0.12345675000000256
                },
                {
                    "name": "D5",
                    "midi": 74,
                    "time": 53.33331600000005,
                    "velocity": 0.5984251968503937,
                    "duration": 0.246913499999998
                },
                {
                    "name": "A#5",
                    "midi": 82,
                    "time": 53.33331600000005,
                    "velocity": 0.6535433070866141,
                    "duration": 0.246913499999998
                },
                {
                    "name": "B4",
                    "midi": 71,
                    "time": 55.30862400000005,
                    "velocity": 0.6535433070866141,
                    "duration": 1.4814810000000023
                },
                {
                    "name": "D#5",
                    "midi": 75,
                    "time": 55.30862400000005,
                    "velocity": 0.6535433070866141,
                    "duration": 1.4814810000000023
                },
                {
                    "name": "G#5",
                    "midi": 80,
                    "time": 55.30862400000005,
                    "velocity": 0.6535433070866141,
                    "duration": 1.4814810000000023
                },
                {
                    "name": "B5",
                    "midi": 83,
                    "time": 55.30862400000005,
                    "velocity": 0.7165354330708661,
                    "duration": 1.4814810000000023
                },
                {
                    "name": "D#5",
                    "midi": 75,
                    "time": 56.790105000000054,
                    "velocity": 0.5669291338582677,
                    "duration": 0.37037025000000057
                },
                {
                    "name": "G#4",
                    "midi": 68,
                    "time": 56.790105000000054,
                    "velocity": 0.5196850393700787,
                    "duration": 0.37037025000000057
                },
                {
                    "name": "B4",
                    "midi": 71,
                    "time": 56.790105000000054,
                    "velocity": 0.5196850393700787,
                    "duration": 0.37037025000000057
                },
                {
                    "name": "D#4",
                    "midi": 63,
                    "time": 56.790105000000054,
                    "velocity": 0.5196850393700787,
                    "duration": 0.37037025000000057
                },
                {
                    "name": "F4",
                    "midi": 65,
                    "time": 57.160475250000054,
                    "velocity": 0.5826771653543307,
                    "duration": 0.12345675000000256
                },
                {
                    "name": "F5",
                    "midi": 77,
                    "time": 57.160475250000054,
                    "velocity": 0.6377952755905512,
                    "duration": 0.12345675000000256
                },
                {
                    "name": "F#5",
                    "midi": 78,
                    "time": 57.28393200000006,
                    "velocity": 0.7165354330708661,
                    "duration": 1.4814810000000023
                },
                {
                    "name": "A#4",
                    "midi": 70,
                    "time": 57.28393200000006,
                    "velocity": 0.6535433070866141,
                    "duration": 1.4814810000000023
                },
                {
                    "name": "D#5",
                    "midi": 75,
                    "time": 57.28393200000006,
                    "velocity": 0.6535433070866141,
                    "duration": 1.4814810000000023
                },
                {
                    "name": "F#4",
                    "midi": 66,
                    "time": 57.28393200000006,
                    "velocity": 0.6535433070866141,
                    "duration": 1.4814810000000023
                },
                {
                    "name": "F#4",
                    "midi": 66,
                    "time": 58.76541300000006,
                    "velocity": 0.5748031496062992,
                    "duration": 0.37037025000000057
                },
                {
                    "name": "F#5",
                    "midi": 78,
                    "time": 58.76541300000006,
                    "velocity": 0.6299212598425197,
                    "duration": 0.37037025000000057
                },
                {
                    "name": "G#5",
                    "midi": 80,
                    "time": 59.13578325000006,
                    "velocity": 0.6692913385826772,
                    "duration": 0.12345675000000256
                },
                {
                    "name": "G#4",
                    "midi": 68,
                    "time": 59.13578325000006,
                    "velocity": 0.5984251968503937,
                    "duration": 0.12345675000000256
                },
                {
                    "name": "A5",
                    "midi": 81,
                    "time": 59.25924000000006,
                    "velocity": 0.7165354330708661,
                    "duration": 1.4814810000000023
                },
                {
                    "name": "A4",
                    "midi": 69,
                    "time": 59.25924000000006,
                    "velocity": 0.6535433070866141,
                    "duration": 1.4814810000000023
                },
                {
                    "name": "C#5",
                    "midi": 73,
                    "time": 59.25924000000006,
                    "velocity": 0.6535433070866141,
                    "duration": 1.4814810000000023
                },
                {
                    "name": "F#5",
                    "midi": 78,
                    "time": 59.25924000000006,
                    "velocity": 0.6535433070866141,
                    "duration": 1.4814810000000023
                },
                {
                    "name": "C#5",
                    "midi": 73,
                    "time": 60.740721000000065,
                    "velocity": 0.5984251968503937,
                    "duration": 0.37037025000000057
                },
                {
                    "name": "F#4",
                    "midi": 66,
                    "time": 60.740721000000065,
                    "velocity": 0.5511811023622047,
                    "duration": 0.37037025000000057
                },
                {
                    "name": "A4",
                    "midi": 69,
                    "time": 60.740721000000065,
                    "velocity": 0.5511811023622047,
                    "duration": 0.37037025000000057
                },
                {
                    "name": "C#4",
                    "midi": 61,
                    "time": 60.740721000000065,
                    "velocity": 0.5511811023622047,
                    "duration": 0.37037025000000057
                },
                {
                    "name": "D#4",
                    "midi": 63,
                    "time": 61.111091250000065,
                    "velocity": 0.6062992125984252,
                    "duration": 0.12345675000000256
                },
                {
                    "name": "D#5",
                    "midi": 75,
                    "time": 61.111091250000065,
                    "velocity": 0.6771653543307087,
                    "duration": 0.12345675000000256
                },
                {
                    "name": "E5",
                    "midi": 76,
                    "time": 61.23454800000007,
                    "velocity": 0.7165354330708661,
                    "duration": 1.4814810000000023
                },
                {
                    "name": "G#4",
                    "midi": 68,
                    "time": 61.23454800000007,
                    "velocity": 0.6535433070866141,
                    "duration": 1.4814810000000023
                },
                {
                    "name": "C#5",
                    "midi": 73,
                    "time": 61.23454800000007,
                    "velocity": 0.6535433070866141,
                    "duration": 1.4814810000000023
                },
                {
                    "name": "E4",
                    "midi": 64,
                    "time": 61.23454800000007,
                    "velocity": 0.6535433070866141,
                    "duration": 1.4814810000000023
                },
                {
                    "name": "E4",
                    "midi": 64,
                    "time": 62.71602900000007,
                    "velocity": 0.5748031496062992,
                    "duration": 0.37037025000000057
                },
                {
                    "name": "E5",
                    "midi": 76,
                    "time": 62.71602900000007,
                    "velocity": 0.6299212598425197,
                    "duration": 0.37037025000000057
                },
                {
                    "name": "F#4",
                    "midi": 66,
                    "time": 63.08639925000007,
                    "velocity": 0.6062992125984252,
                    "duration": 0.12345675000000256
                },
                {
                    "name": "F#5",
                    "midi": 78,
                    "time": 63.08639925000007,
                    "velocity": 0.6771653543307087,
                    "duration": 0.12345675000000256
                },
                {
                    "name": "G#4",
                    "midi": 68,
                    "time": 63.20985600000007,
                    "velocity": 0.6535433070866141,
                    "duration": 1.4814810000000023
                },
                {
                    "name": "D#5",
                    "midi": 75,
                    "time": 63.20985600000007,
                    "velocity": 0.6535433070866141,
                    "duration": 1.4814810000000023
                },
                {
                    "name": "F#5",
                    "midi": 78,
                    "time": 63.20985600000007,
                    "velocity": 0.6535433070866141,
                    "duration": 1.4814810000000023
                },
                {
                    "name": "G#5",
                    "midi": 80,
                    "time": 63.20985600000007,
                    "velocity": 0.7165354330708661,
                    "duration": 1.4814810000000023
                },
                {
                    "name": "G#5",
                    "midi": 80,
                    "time": 64.69133700000008,
                    "velocity": 0.6929133858267716,
                    "duration": 0.37037024999999346
                },
                {
                    "name": "D#5",
                    "midi": 75,
                    "time": 64.69133700000008,
                    "velocity": 0.6299212598425197,
                    "duration": 0.37037024999999346
                },
                {
                    "name": "F#5",
                    "midi": 78,
                    "time": 64.69133700000008,
                    "velocity": 0.6299212598425197,
                    "duration": 0.37037024999999346
                },
                {
                    "name": "G#4",
                    "midi": 68,
                    "time": 64.69133700000008,
                    "velocity": 0.6299212598425197,
                    "duration": 0.37037024999999346
                },
                {
                    "name": "A#4",
                    "midi": 70,
                    "time": 65.06170725000007,
                    "velocity": 0.6614173228346457,
                    "duration": 0.12345675000000256
                },
                {
                    "name": "A#5",
                    "midi": 82,
                    "time": 65.06170725000007,
                    "velocity": 0.7244094488188977,
                    "duration": 0.12345675000000256
                },
                {
                    "name": "B5",
                    "midi": 83,
                    "time": 65.18516400000007,
                    "velocity": 0.7795275590551181,
                    "duration": 0.493826999999996
                },
                {
                    "name": "F5",
                    "midi": 77,
                    "time": 65.18516400000007,
                    "velocity": 0.7165354330708661,
                    "duration": 0.493826999999996
                },
                {
                    "name": "G#5",
                    "midi": 80,
                    "time": 65.18516400000007,
                    "velocity": 0.7165354330708661,
                    "duration": 0.493826999999996
                },
                {
                    "name": "B4",
                    "midi": 71,
                    "time": 65.18516400000007,
                    "velocity": 0.7165354330708661,
                    "duration": 0.493826999999996
                },
                {
                    "name": "A#4",
                    "midi": 70,
                    "time": 65.67899100000007,
                    "velocity": 0.7165354330708661,
                    "duration": 0.9876540000000062
                },
                {
                    "name": "F5",
                    "midi": 77,
                    "time": 65.67899100000007,
                    "velocity": 0.7165354330708661,
                    "duration": 0.9876540000000062
                },
                {
                    "name": "G#5",
                    "midi": 80,
                    "time": 65.67899100000007,
                    "velocity": 0.7165354330708661,
                    "duration": 0.9876540000000062
                },
                {
                    "name": "A#5",
                    "midi": 82,
                    "time": 65.67899100000007,
                    "velocity": 0.7795275590551181,
                    "duration": 0.9876540000000062
                },
                {
                    "name": "A#4",
                    "midi": 70,
                    "time": 66.66664500000007,
                    "velocity": 0.7322834645669292,
                    "duration": 0.37037024999999346
                },
                {
                    "name": "F5",
                    "midi": 77,
                    "time": 66.66664500000007,
                    "velocity": 0.7322834645669292,
                    "duration": 0.37037024999999346
                },
                {
                    "name": "G#5",
                    "midi": 80,
                    "time": 66.66664500000007,
                    "velocity": 0.7322834645669292,
                    "duration": 0.37037024999999346
                },
                {
                    "name": "A#5",
                    "midi": 82,
                    "time": 66.66664500000007,
                    "velocity": 0.8031496062992126,
                    "duration": 0.37037024999999346
                },
                {
                    "name": "C5",
                    "midi": 72,
                    "time": 67.03701525000007,
                    "velocity": 0.7322834645669292,
                    "duration": 0.12345675000000256
                },
                {
                    "name": "C6",
                    "midi": 84,
                    "time": 67.03701525000007,
                    "velocity": 0.8031496062992126,
                    "duration": 0.12345675000000256
                },
                {
                    "name": "C#5",
                    "midi": 73,
                    "time": 67.16047200000007,
                    "velocity": 0.7480314960629921,
                    "duration": 0.493826999999996
                },
                {
                    "name": "G5",
                    "midi": 79,
                    "time": 67.16047200000007,
                    "velocity": 0.7480314960629921,
                    "duration": 0.493826999999996
                },
                {
                    "name": "A#5",
                    "midi": 82,
                    "time": 67.16047200000007,
                    "velocity": 0.7480314960629921,
                    "duration": 0.493826999999996
                },
                {
                    "name": "C#6",
                    "midi": 85,
                    "time": 67.16047200000007,
                    "velocity": 0.8346456692913385,
                    "duration": 0.493826999999996
                },
                {
                    "name": "A#5",
                    "midi": 82,
                    "time": 67.65429900000007,
                    "velocity": 0.7086614173228346,
                    "duration": 0.493826999999996
                },
                {
                    "name": "C5",
                    "midi": 72,
                    "time": 67.65429900000007,
                    "velocity": 0.7086614173228346,
                    "duration": 0.493826999999996
                },
                {
                    "name": "G5",
                    "midi": 79,
                    "time": 67.65429900000007,
                    "velocity": 0.7086614173228346,
                    "duration": 0.493826999999996
                },
                {
                    "name": "C6",
                    "midi": 84,
                    "time": 67.65429900000007,
                    "velocity": 0.7637795275590551,
                    "duration": 0.493826999999996
                },
                {
                    "name": "G#6",
                    "midi": 92,
                    "time": 71.11108800000007,
                    "velocity": 0.8188976377952756,
                    "duration": 0.9876540000000062
                },
                {
                    "name": "F6",
                    "midi": 89,
                    "time": 71.11108800000007,
                    "velocity": 0.7480314960629921,
                    "duration": 0.9876540000000062
                },
                {
                    "name": "C6",
                    "midi": 84,
                    "time": 71.11108800000007,
                    "velocity": 0.7480314960629921,
                    "duration": 0.9876540000000062
                },
                {
                    "name": "G#5",
                    "midi": 80,
                    "time": 71.11108800000007,
                    "velocity": 0.7480314960629921,
                    "duration": 0.9876540000000062
                },
                {
                    "name": "F6",
                    "midi": 89,
                    "time": 72.09874200000007,
                    "velocity": 0.7480314960629921,
                    "duration": 0.493826999999996
                },
                {
                    "name": "C6",
                    "midi": 84,
                    "time": 72.09874200000007,
                    "velocity": 0.6929133858267716,
                    "duration": 0.493826999999996
                },
                {
                    "name": "F5",
                    "midi": 77,
                    "time": 72.09874200000007,
                    "velocity": 0.6929133858267716,
                    "duration": 0.493826999999996
                },
                {
                    "name": "C5",
                    "midi": 72,
                    "time": 72.59256900000007,
                    "velocity": 0.6614173228346457,
                    "duration": 0.493826999999996
                },
                {
                    "name": "F5",
                    "midi": 77,
                    "time": 72.59256900000007,
                    "velocity": 0.6614173228346457,
                    "duration": 0.493826999999996
                },
                {
                    "name": "C6",
                    "midi": 84,
                    "time": 72.59256900000007,
                    "velocity": 0.7244094488188977,
                    "duration": 0.493826999999996
                },
                {
                    "name": "F5",
                    "midi": 77,
                    "time": 73.08639600000006,
                    "velocity": 0.6850393700787402,
                    "duration": 1.4814810000000023
                },
                {
                    "name": "A#4",
                    "midi": 70,
                    "time": 73.08639600000006,
                    "velocity": 0.6850393700787402,
                    "duration": 0.9876540000000062
                },
                {
                    "name": "A#5",
                    "midi": 82,
                    "time": 73.08639600000006,
                    "velocity": 0.7480314960629921,
                    "duration": 0.9876540000000062
                },
                {
                    "name": "G#4",
                    "midi": 68,
                    "time": 74.07405000000007,
                    "velocity": 0.5590551181102362,
                    "duration": 0.493826999999996
                },
                {
                    "name": "G#5",
                    "midi": 80,
                    "time": 74.07405000000007,
                    "velocity": 0.6062992125984252,
                    "duration": 0.493826999999996
                },
                {
                    "name": "G#5",
                    "midi": 80,
                    "time": 75.06170400000006,
                    "velocity": 0.6614173228346457,
                    "duration": 0.9876540000000062
                },
                {
                    "name": "F6",
                    "midi": 89,
                    "time": 75.06170400000006,
                    "velocity": 0.6614173228346457,
                    "duration": 0.9876540000000062
                },
                {
                    "name": "C6",
                    "midi": 84,
                    "time": 75.06170400000006,
                    "velocity": 0.6614173228346457,
                    "duration": 0.9876540000000062
                },
                {
                    "name": "G#6",
                    "midi": 92,
                    "time": 75.06170400000006,
                    "velocity": 0.7244094488188977,
                    "duration": 0.9876540000000062
                },
                {
                    "name": "F6",
                    "midi": 89,
                    "time": 76.04935800000007,
                    "velocity": 0.6850393700787402,
                    "duration": 0.493826999999996
                },
                {
                    "name": "C6",
                    "midi": 84,
                    "time": 76.04935800000007,
                    "velocity": 0.6220472440944882,
                    "duration": 0.493826999999996
                },
                {
                    "name": "F5",
                    "midi": 77,
                    "time": 76.04935800000007,
                    "velocity": 0.6220472440944882,
                    "duration": 0.493826999999996
                },
                {
                    "name": "C5",
                    "midi": 72,
                    "time": 76.54318500000007,
                    "velocity": 0.6220472440944882,
                    "duration": 0.493826999999996
                },
                {
                    "name": "F5",
                    "midi": 77,
                    "time": 76.54318500000007,
                    "velocity": 0.6220472440944882,
                    "duration": 0.493826999999996
                },
                {
                    "name": "C6",
                    "midi": 84,
                    "time": 76.54318500000007,
                    "velocity": 0.6850393700787402,
                    "duration": 0.493826999999996
                },
                {
                    "name": "C5",
                    "midi": 72,
                    "time": 77.03701200000006,
                    "velocity": 0.6771653543307087,
                    "duration": 1.4814810000000023
                },
                {
                    "name": "F5",
                    "midi": 77,
                    "time": 77.03701200000006,
                    "velocity": 0.6771653543307087,
                    "duration": 1.4814810000000023
                },
                {
                    "name": "C6",
                    "midi": 84,
                    "time": 77.03701200000006,
                    "velocity": 0.7401574803149606,
                    "duration": 1.4814810000000023
                },
                {
                    "name": "B4",
                    "midi": 71,
                    "time": 78.51849300000006,
                    "velocity": 0.5905511811023622,
                    "duration": 0.37037024999999346
                },
                {
                    "name": "F5",
                    "midi": 77,
                    "time": 78.51849300000006,
                    "velocity": 0.5905511811023622,
                    "duration": 0.37037024999999346
                },
                {
                    "name": "B5",
                    "midi": 83,
                    "time": 78.51849300000006,
                    "velocity": 0.6456692913385826,
                    "duration": 0.37037024999999346
                },
                {
                    "name": "C5",
                    "midi": 72,
                    "time": 78.88886325000006,
                    "velocity": 0.6692913385826772,
                    "duration": 0.12345675000000256
                },
                {
                    "name": "C6",
                    "midi": 84,
                    "time": 78.88886325000006,
                    "velocity": 0.7322834645669292,
                    "duration": 0.12345675000000256
                },
                {
                    "name": "D5",
                    "midi": 74,
                    "time": 79.01232000000006,
                    "velocity": 0.7322834645669292,
                    "duration": 0.9876540000000062
                },
                {
                    "name": "B5",
                    "midi": 83,
                    "time": 79.01232000000006,
                    "velocity": 0.7322834645669292,
                    "duration": 0.9876540000000062
                },
                {
                    "name": "F5",
                    "midi": 77,
                    "time": 79.01232000000006,
                    "velocity": 0.7322834645669292,
                    "duration": 0.9876540000000062
                },
                {
                    "name": "D6",
                    "midi": 86,
                    "time": 79.01232000000006,
                    "velocity": 0.8031496062992126,
                    "duration": 0.9876540000000062
                },
                {
                    "name": "G#4",
                    "midi": 68,
                    "time": 82.46910900000006,
                    "velocity": 0.7401574803149606,
                    "duration": 0.37037024999999346
                },
                {
                    "name": "D#5",
                    "midi": 75,
                    "time": 82.46910900000006,
                    "velocity": 0.7401574803149606,
                    "duration": 0.37037024999999346
                },
                {
                    "name": "F5",
                    "midi": 77,
                    "time": 82.46910900000006,
                    "velocity": 0.7401574803149606,
                    "duration": 0.37037024999999346
                },
                {
                    "name": "G#5",
                    "midi": 80,
                    "time": 82.46910900000006,
                    "velocity": 0.8110236220472441,
                    "duration": 0.37037024999999346
                },
                {
                    "name": "G4",
                    "midi": 67,
                    "time": 82.83947925000005,
                    "velocity": 0.7007874015748031,
                    "duration": 0.12345675000000256
                },
                {
                    "name": "G5",
                    "midi": 79,
                    "time": 82.83947925000005,
                    "velocity": 0.7637795275590551,
                    "duration": 0.12345675000000256
                },
                {
                    "name": "F6",
                    "midi": 89,
                    "time": 82.96293600000006,
                    "velocity": 0.84251968503937,
                    "duration": 0.9876540000000062
                },
                {
                    "name": "D6",
                    "midi": 86,
                    "time": 82.96293600000006,
                    "velocity": 0.7637795275590551,
                    "duration": 0.9876540000000062
                },
                {
                    "name": "F5",
                    "midi": 77,
                    "time": 82.96293600000006,
                    "velocity": 0.7637795275590551,
                    "duration": 0.9876540000000062
                },
                {
                    "name": "G5",
                    "midi": 79,
                    "time": 82.96293600000006,
                    "velocity": 0.7637795275590551,
                    "duration": 0.9876540000000062
                },
                {
                    "name": "G#5",
                    "midi": 80,
                    "time": 86.41972500000006,
                    "velocity": 0.7480314960629921,
                    "duration": 0.37037024999999346
                },
                {
                    "name": "D#5",
                    "midi": 75,
                    "time": 86.41972500000006,
                    "velocity": 0.6929133858267716,
                    "duration": 0.37037024999999346
                },
                {
                    "name": "F5",
                    "midi": 77,
                    "time": 86.41972500000006,
                    "velocity": 0.6929133858267716,
                    "duration": 0.37037024999999346
                },
                {
                    "name": "G#4",
                    "midi": 68,
                    "time": 86.41972500000006,
                    "velocity": 0.6929133858267716,
                    "duration": 0.37037024999999346
                },
                {
                    "name": "G4",
                    "midi": 67,
                    "time": 86.79009525000005,
                    "velocity": 0.6614173228346457,
                    "duration": 0.12345675000000256
                },
                {
                    "name": "G5",
                    "midi": 79,
                    "time": 86.79009525000005,
                    "velocity": 0.7244094488188977,
                    "duration": 0.12345675000000256
                },
                {
                    "name": "F5",
                    "midi": 77,
                    "time": 86.91355200000005,
                    "velocity": 0.7716535433070866,
                    "duration": 0.24691350000000511
                },
                {
                    "name": "D6",
                    "midi": 86,
                    "time": 86.91355200000005,
                    "velocity": 0.7716535433070866,
                    "duration": 0.24691350000000511
                },
                {
                    "name": "G5",
                    "midi": 79,
                    "time": 86.91355200000005,
                    "velocity": 0.7716535433070866,
                    "duration": 0.24691350000000511
                },
                {
                    "name": "G6",
                    "midi": 91,
                    "time": 86.91355200000005,
                    "velocity": 0.8503937007874016,
                    "duration": 0.24691350000000511
                },
                {
                    "name": "G#6",
                    "midi": 92,
                    "time": 87.16252311250005,
                    "velocity": 0.6850393700787402,
                    "duration": 0.1358024249999943
                },
                {
                    "name": "G6",
                    "midi": 91,
                    "time": 87.28700866875005,
                    "velocity": 0.6299212598425197,
                    "duration": 0.1358024250000085
                },
                {
                    "name": "F6",
                    "midi": 89,
                    "time": 87.41149422500006,
                    "velocity": 0.6850393700787402,
                    "duration": 0.1358024249999943
                },
                {
                    "name": "D6",
                    "midi": 86,
                    "time": 87.53392216875005,
                    "velocity": 0.6062992125984252,
                    "duration": 0.1358024249999943
                },
                {
                    "name": "D#6",
                    "midi": 87,
                    "time": 87.65840772500005,
                    "velocity": 0.6062992125984252,
                    "duration": 0.1358024250000085
                },
                {
                    "name": "D6",
                    "midi": 86,
                    "time": 87.78186447500005,
                    "velocity": 0.5984251968503937,
                    "duration": 0.1358024250000085
                },
                {
                    "name": "B5",
                    "midi": 83,
                    "time": 87.90635003125006,
                    "velocity": 0.6850393700787402,
                    "duration": 0.1358024250000085
                },
                {
                    "name": "G5",
                    "midi": 79,
                    "time": 88.02466275000006,
                    "velocity": 0.6062992125984252,
                    "duration": 0.1358024249999943
                },
                {
                    "name": "G#5",
                    "midi": 80,
                    "time": 88.14709069375006,
                    "velocity": 0.6062992125984252,
                    "duration": 0.1358024249999943
                },
                {
                    "name": "G5",
                    "midi": 79,
                    "time": 88.26746102500006,
                    "velocity": 0.5984251968503937,
                    "duration": 0.1358024249999943
                },
                {
                    "name": "F5",
                    "midi": 77,
                    "time": 88.39297538750006,
                    "velocity": 0.6850393700787402,
                    "duration": 0.1358024249999943
                },
                {
                    "name": "D5",
                    "midi": 74,
                    "time": 88.52260497500005,
                    "velocity": 0.6062992125984252,
                    "duration": 0.1358024250000085
                },
                {
                    "name": "D#5",
                    "midi": 75,
                    "time": 88.64091769375005,
                    "velocity": 0.6062992125984252,
                    "duration": 0.1358024249999943
                },
                {
                    "name": "D5",
                    "midi": 74,
                    "time": 88.76128802500006,
                    "velocity": 0.5984251968503937,
                    "duration": 0.1358024249999943
                },
                {
                    "name": "B4",
                    "midi": 71,
                    "time": 88.88371596875005,
                    "velocity": 0.6850393700787402,
                    "duration": 0.1358024249999943
                },
                {
                    "name": "G4",
                    "midi": 67,
                    "time": 89.01437436250005,
                    "velocity": 0.6062992125984252,
                    "duration": 0.1358024249999943
                },
                {
                    "name": "G#4",
                    "midi": 68,
                    "time": 89.13885991875004,
                    "velocity": 0.6062992125984252,
                    "duration": 0.1358024250000085
                },
                {
                    "name": "G4",
                    "midi": 67,
                    "time": 89.25408621875005,
                    "velocity": 0.5984251968503937,
                    "duration": 0.1358024250000085
                },
                {
                    "name": "F4",
                    "midi": 65,
                    "time": 89.37754296875005,
                    "velocity": 0.6850393700787402,
                    "duration": 0.1358024250000085
                },
                {
                    "name": "D4",
                    "midi": 62,
                    "time": 89.50511494375006,
                    "velocity": 0.6062992125984252,
                    "duration": 0.1358024250000085
                },
                {
                    "name": "D#4",
                    "midi": 63,
                    "time": 89.63165811250006,
                    "velocity": 0.6062992125984252,
                    "duration": 0.1358024250000085
                },
                {
                    "name": "D4",
                    "midi": 62,
                    "time": 89.75614366875007,
                    "velocity": 0.5984251968503937,
                    "duration": 0.1358024249999943
                },
                {
                    "name": "B3",
                    "midi": 59,
                    "time": 89.87239877500006,
                    "velocity": 0.6850393700787402,
                    "duration": 0.1358024250000085
                },
                {
                    "name": "G3",
                    "midi": 55,
                    "time": 89.99585552500007,
                    "velocity": 0.6062992125984252,
                    "duration": 0.1358024250000085
                },
                {
                    "name": "G#3",
                    "midi": 56,
                    "time": 90.11828346875008,
                    "velocity": 0.6062992125984252,
                    "duration": 0.1358024250000085
                },
                {
                    "name": "G3",
                    "midi": 55,
                    "time": 90.24482663750008,
                    "velocity": 0.5984251968503937,
                    "duration": 0.1358024249999943
                },
                {
                    "name": "F3",
                    "midi": 53,
                    "time": 90.36519696875008,
                    "velocity": 0.6850393700787402,
                    "duration": 0.1358024249999943
                },
                {
                    "name": "D3",
                    "midi": 50,
                    "time": 90.49894178125008,
                    "velocity": 0.6062992125984252,
                    "duration": 0.1358024249999943
                },
                {
                    "name": "D#3",
                    "midi": 51,
                    "time": 90.61931211250008,
                    "velocity": 0.5984251968503937,
                    "duration": 0.1358024249999943
                },
                {
                    "name": "D3",
                    "midi": 50,
                    "time": 90.73556721875008,
                    "velocity": 0.5984251968503937,
                    "duration": 0.1358024249999943
                },
                {
                    "name": "C3",
                    "midi": 48,
                    "time": 90.86931203125008,
                    "velocity": 0.5984251968503937,
                    "duration": 0.1358024249999943
                },
                {
                    "name": "B2",
                    "midi": 47,
                    "time": 90.98968236250008,
                    "velocity": 0.5984251968503937,
                    "duration": 0.12345674999998835
                },
                {
                    "name": "G3",
                    "midi": 55,
                    "time": 91.11005269375006,
                    "velocity": 0.6062992125984252,
                    "duration": 0.1358024249999943
                },
                {
                    "name": "F3",
                    "midi": 53,
                    "time": 91.22939421875006,
                    "velocity": 0.5984251968503937,
                    "duration": 0.1358024249999943
                },
                {
                    "name": "D#3",
                    "midi": 51,
                    "time": 91.35490858125006,
                    "velocity": 0.5826771653543307,
                    "duration": 0.1358024249999943
                },
                {
                    "name": "D3",
                    "midi": 50,
                    "time": 91.48042294375006,
                    "velocity": 0.5748031496062992,
                    "duration": 0.1358024249999943
                },
                {
                    "name": "D#3",
                    "midi": 51,
                    "time": 91.60696611250005,
                    "velocity": 0.5669291338582677,
                    "duration": 0.1358024250000085
                },
                {
                    "name": "D3",
                    "midi": 50,
                    "time": 91.73145166875005,
                    "velocity": 0.5590551181102362,
                    "duration": 0.1358024250000085
                },
                {
                    "name": "C3",
                    "midi": 48,
                    "time": 91.84667796875006,
                    "velocity": 0.5433070866141733,
                    "duration": 0.1358024250000085
                },
                {
                    "name": "B2",
                    "midi": 47,
                    "time": 91.97939397500006,
                    "velocity": 0.5433070866141733,
                    "duration": 0.12345675000000256
                },
                {
                    "name": "A#3",
                    "midi": 58,
                    "time": 92.09462027500007,
                    "velocity": 0.5826771653543307,
                    "duration": 0.1358024249999943
                },
                {
                    "name": "G#3",
                    "midi": 56,
                    "time": 92.22322105625007,
                    "velocity": 0.5748031496062992,
                    "duration": 0.1358024249999943
                },
                {
                    "name": "G3",
                    "midi": 55,
                    "time": 92.34667780625006,
                    "velocity": 0.5748031496062992,
                    "duration": 0.1358024250000085
                },
                {
                    "name": "F3",
                    "midi": 53,
                    "time": 92.47424978125007,
                    "velocity": 0.5669291338582677,
                    "duration": 0.1358024250000085
                },
                {
                    "name": "G3",
                    "midi": 55,
                    "time": 92.59256250000007,
                    "velocity": 0.5669291338582677,
                    "duration": 0.1358024249999943
                },
                {
                    "name": "F3",
                    "midi": 53,
                    "time": 92.71293283125007,
                    "velocity": 0.5590551181102362,
                    "duration": 0.1358024249999943
                },
                {
                    "name": "D#3",
                    "midi": 51,
                    "time": 92.83741838750007,
                    "velocity": 0.5511811023622047,
                    "duration": 0.1358024249999943
                },
                {
                    "name": "D3",
                    "midi": 50,
                    "time": 92.96601916875007,
                    "velocity": 0.5433070866141733,
                    "duration": 0.12345674999998835
                },
                {
                    "name": "D#4",
                    "midi": 63,
                    "time": 93.08433188750006,
                    "velocity": 0.5984251968503937,
                    "duration": 0.1358024249999943
                },
                {
                    "name": "D4",
                    "midi": 62,
                    "time": 93.20984625000006,
                    "velocity": 0.6062992125984252,
                    "duration": 0.1358024249999943
                },
                {
                    "name": "C4",
                    "midi": 60,
                    "time": 93.33433180625005,
                    "velocity": 0.6299212598425197,
                    "duration": 0.14917690625000546
                },
                {
                    "name": "B3",
                    "midi": 59,
                    "time": 93.45264452500005,
                    "velocity": 0.6377952755905512,
                    "duration": 0.14917690625000546
                },
                {
                    "name": "C4",
                    "midi": 60,
                    "time": 93.58536053125006,
                    "velocity": 0.6456692913385826,
                    "duration": 0.14917690624999125
                },
                {
                    "name": "B3",
                    "midi": 59,
                    "time": 93.70675966875005,
                    "velocity": 0.6614173228346457,
                    "duration": 0.14917690624999125
                },
                {
                    "name": "G#3",
                    "midi": 56,
                    "time": 93.82301477500005,
                    "velocity": 0.6850393700787402,
                    "duration": 0.14917690624999125
                },
                {
                    "name": "G3",
                    "midi": 55,
                    "time": 93.95058675000004,
                    "velocity": 0.6929133858267716,
                    "duration": 0.14917690625000546
                },
                {
                    "name": "G#3",
                    "midi": 56,
                    "time": 94.07610111250004,
                    "velocity": 0.7086614173228346,
                    "duration": 0.14917690625000546
                },
                {
                    "name": "G3",
                    "midi": 55,
                    "time": 94.20264428125004,
                    "velocity": 0.7244094488188977,
                    "duration": 0.14917690625000546
                },
                {
                    "name": "F3",
                    "midi": 53,
                    "time": 94.32404341875005,
                    "velocity": 0.7401574803149606,
                    "duration": 0.14917690624999125
                },
                {
                    "name": "D#3",
                    "midi": 51,
                    "time": 94.44647136250005,
                    "velocity": 0.7480314960629921,
                    "duration": 0.14917690624999125
                },
                {
                    "name": "F3",
                    "midi": 53,
                    "time": 94.56889930625005,
                    "velocity": 0.7795275590551181,
                    "duration": 0.14917690624999125
                },
                {
                    "name": "D#3",
                    "midi": 51,
                    "time": 94.69647128125004,
                    "velocity": 0.7952755905511811,
                    "duration": 0.1358024249999943
                },
                {
                    "name": "C3",
                    "midi": 48,
                    "time": 94.81889922500004,
                    "velocity": 0.8110236220472441,
                    "duration": 0.12345675000000256
                },
                {
                    "name": "C6",
                    "midi": 84,
                    "time": 98.14811625000004,
                    "velocity": 0.7637795275590551,
                    "duration": 0.13374481249999803
                },
                {
                    "name": "C5",
                    "midi": 72,
                    "time": 98.14811625000004,
                    "velocity": 0.7007874015748031,
                    "duration": 0.13374481249999803
                },
                {
                    "name": "C#5",
                    "midi": 73,
                    "time": 98.27157300000005,
                    "velocity": 0.7165354330708661,
                    "duration": 0.17489706249999415
                },
                {
                    "name": "C#6",
                    "midi": 85,
                    "time": 98.27157300000005,
                    "velocity": 0.7874015748031497,
                    "duration": 0.17489706249999415
                },
                {
                    "name": "D5",
                    "midi": 74,
                    "time": 98.43618200000004,
                    "velocity": 0.7559055118110236,
                    "duration": 0.25205753124998864
                },
                {
                    "name": "D6",
                    "midi": 86,
                    "time": 98.43618200000004,
                    "velocity": 0.8346456692913385,
                    "duration": 0.25205753124998864
                },
                {
                    "name": "D#5",
                    "midi": 75,
                    "time": 98.68309550000004,
                    "velocity": 0.7165354330708661,
                    "duration": 0.07201643749999675
                },
                {
                    "name": "D#6",
                    "midi": 87,
                    "time": 98.68309550000004,
                    "velocity": 0.7874015748031497,
                    "duration": 0.07201643749999675
                },
                {
                    "name": "D#5",
                    "midi": 75,
                    "time": 98.76540000000003,
                    "velocity": 0.8188976377952756,
                    "duration": 0.9876540000000062
                },
                {
                    "name": "D#6",
                    "midi": 87,
                    "time": 98.76540000000003,
                    "velocity": 0.8976377952755905,
                    "duration": 0.9876540000000062
                },
                {
                    "name": "G5",
                    "midi": 79,
                    "time": 100.12342425000003,
                    "velocity": 0.3858267716535433,
                    "duration": 0.12345675000000256
                },
                {
                    "name": "C5",
                    "midi": 72,
                    "time": 100.12342425000003,
                    "velocity": 0.3858267716535433,
                    "duration": 0.12345675000000256
                },
                {
                    "name": "D#5",
                    "midi": 75,
                    "time": 100.12342425000003,
                    "velocity": 0.3858267716535433,
                    "duration": 0.12345675000000256
                },
                {
                    "name": "G4",
                    "midi": 67,
                    "time": 100.12342425000003,
                    "velocity": 0.3858267716535433,
                    "duration": 0.12345675000000256
                },
                {
                    "name": "G4",
                    "midi": 67,
                    "time": 100.24688100000003,
                    "velocity": 0.3858267716535433,
                    "duration": 0.37037024999999346
                },
                {
                    "name": "C5",
                    "midi": 72,
                    "time": 100.24688100000003,
                    "velocity": 0.3858267716535433,
                    "duration": 0.37037024999999346
                },
                {
                    "name": "D#5",
                    "midi": 75,
                    "time": 100.24688100000003,
                    "velocity": 0.3858267716535433,
                    "duration": 0.37037024999999346
                },
                {
                    "name": "G5",
                    "midi": 79,
                    "time": 100.24688100000003,
                    "velocity": 0.3858267716535433,
                    "duration": 0.37037024999999346
                },
                {
                    "name": "G5",
                    "midi": 79,
                    "time": 100.61725125000002,
                    "velocity": 0.4409448818897638,
                    "duration": 0.12345675000000256
                },
                {
                    "name": "C5",
                    "midi": 72,
                    "time": 100.61725125000002,
                    "velocity": 0.4409448818897638,
                    "duration": 0.12345675000000256
                },
                {
                    "name": "D#5",
                    "midi": 75,
                    "time": 100.61725125000002,
                    "velocity": 0.4409448818897638,
                    "duration": 0.12345675000000256
                },
                {
                    "name": "G4",
                    "midi": 67,
                    "time": 100.61725125000002,
                    "velocity": 0.4409448818897638,
                    "duration": 0.12345675000000256
                },
                {
                    "name": "G#5",
                    "midi": 80,
                    "time": 100.74070800000003,
                    "velocity": 0.44881889763779526,
                    "duration": 0.9876540000000062
                },
                {
                    "name": "G#4",
                    "midi": 68,
                    "time": 100.74070800000003,
                    "velocity": 0.44881889763779526,
                    "duration": 0.9876540000000062
                },
                {
                    "name": "C5",
                    "midi": 72,
                    "time": 100.74070800000003,
                    "velocity": 0.44881889763779526,
                    "duration": 0.9876540000000062
                },
                {
                    "name": "D#5",
                    "midi": 75,
                    "time": 100.74070800000003,
                    "velocity": 0.44881889763779526,
                    "duration": 0.9876540000000062
                },
                {
                    "name": "G4",
                    "midi": 67,
                    "time": 101.72836200000003,
                    "velocity": 0.49606299212598426,
                    "duration": 0.16460899999999867
                },
                {
                    "name": "C5",
                    "midi": 72,
                    "time": 101.72836200000003,
                    "velocity": 0.49606299212598426,
                    "duration": 0.16460899999999867
                },
                {
                    "name": "D#5",
                    "midi": 75,
                    "time": 101.72836200000003,
                    "velocity": 0.49606299212598426,
                    "duration": 0.16460899999999867
                },
                {
                    "name": "G5",
                    "midi": 79,
                    "time": 101.72836200000003,
                    "velocity": 0.5433070866141733,
                    "duration": 0.17489706249999415
                },
                {
                    "name": "B4",
                    "midi": 71,
                    "time": 101.89297100000003,
                    "velocity": 0.5905511811023622,
                    "duration": 0.17489706249999415
                },
                {
                    "name": "B5",
                    "midi": 83,
                    "time": 101.89297100000003,
                    "velocity": 0.6456692913385826,
                    "duration": 0.16460899999999867
                },
                {
                    "name": "C5",
                    "midi": 72,
                    "time": 102.05758000000003,
                    "velocity": 0.6220472440944882,
                    "duration": 0.17489706249999415
                },
                {
                    "name": "C6",
                    "midi": 84,
                    "time": 102.05758000000003,
                    "velocity": 0.6850393700787402,
                    "duration": 0.17489706249999415
                },
                {
                    "name": "C#5",
                    "midi": 73,
                    "time": 102.22218900000003,
                    "velocity": 0.6929133858267716,
                    "duration": 0.17489706249999415
                },
                {
                    "name": "C#6",
                    "midi": 85,
                    "time": 102.22218900000003,
                    "velocity": 0.7480314960629921,
                    "duration": 0.17489706249999415
                },
                {
                    "name": "D5",
                    "midi": 74,
                    "time": 102.38679800000003,
                    "velocity": 0.7795275590551181,
                    "duration": 0.16460899999999867
                },
                {
                    "name": "D6",
                    "midi": 86,
                    "time": 102.38679800000003,
                    "velocity": 0.8582677165354331,
                    "duration": 0.16460899999999867
                },
                {
                    "name": "D#5",
                    "midi": 75,
                    "time": 102.63371150000003,
                    "velocity": 0.7480314960629921,
                    "duration": 0.08230450000000644
                },
                {
                    "name": "D#6",
                    "midi": 87,
                    "time": 102.63371150000003,
                    "velocity": 0.8188976377952756,
                    "duration": 0.08230450000000644
                },
                {
                    "name": "D#5",
                    "midi": 75,
                    "time": 102.71601600000004,
                    "velocity": 0.8346456692913385,
                    "duration": 0.9876540000000062
                },
                {
                    "name": "D#6",
                    "midi": 87,
                    "time": 102.71601600000004,
                    "velocity": 0.905511811023622,
                    "duration": 0.9876540000000062
                },
                {
                    "name": "G5",
                    "midi": 79,
                    "time": 104.07404025000004,
                    "velocity": 0.4251968503937008,
                    "duration": 0.12345675000000256
                },
                {
                    "name": "C5",
                    "midi": 72,
                    "time": 104.07404025000004,
                    "velocity": 0.3858267716535433,
                    "duration": 0.12345675000000256
                },
                {
                    "name": "D#5",
                    "midi": 75,
                    "time": 104.07404025000004,
                    "velocity": 0.3858267716535433,
                    "duration": 0.12345675000000256
                },
                {
                    "name": "G4",
                    "midi": 67,
                    "time": 104.07404025000004,
                    "velocity": 0.3858267716535433,
                    "duration": 0.12345675000000256
                },
                {
                    "name": "G4",
                    "midi": 67,
                    "time": 104.19749700000004,
                    "velocity": 0.4330708661417323,
                    "duration": 0.37037024999999346
                },
                {
                    "name": "C5",
                    "midi": 72,
                    "time": 104.19749700000004,
                    "velocity": 0.4330708661417323,
                    "duration": 0.37037024999999346
                },
                {
                    "name": "D#5",
                    "midi": 75,
                    "time": 104.19749700000004,
                    "velocity": 0.4330708661417323,
                    "duration": 0.37037024999999346
                },
                {
                    "name": "G5",
                    "midi": 79,
                    "time": 104.19749700000004,
                    "velocity": 0.47244094488188976,
                    "duration": 0.37037024999999346
                },
                {
                    "name": "G4",
                    "midi": 67,
                    "time": 104.56786725000003,
                    "velocity": 0.5275590551181102,
                    "duration": 0.12345675000000256
                },
                {
                    "name": "C5",
                    "midi": 72,
                    "time": 104.56786725000003,
                    "velocity": 0.5275590551181102,
                    "duration": 0.12345675000000256
                },
                {
                    "name": "D#5",
                    "midi": 75,
                    "time": 104.56786725000003,
                    "velocity": 0.5275590551181102,
                    "duration": 0.12345675000000256
                },
                {
                    "name": "G5",
                    "midi": 79,
                    "time": 104.56786725000003,
                    "velocity": 0.5748031496062992,
                    "duration": 0.12345675000000256
                },
                {
                    "name": "A5",
                    "midi": 81,
                    "time": 104.69132400000004,
                    "velocity": 0.6456692913385826,
                    "duration": 1.6049377500000048
                },
                {
                    "name": "C5",
                    "midi": 72,
                    "time": 104.69132400000004,
                    "velocity": 0.5905511811023622,
                    "duration": 1.6049377500000048
                },
                {
                    "name": "D#5",
                    "midi": 75,
                    "time": 104.69132400000004,
                    "velocity": 0.5905511811023622,
                    "duration": 1.6049377500000048
                },
                {
                    "name": "A4",
                    "midi": 69,
                    "time": 104.69132400000004,
                    "velocity": 0.5905511811023622,
                    "duration": 1.6049377500000048
                },
                {
                    "name": "A4",
                    "midi": 69,
                    "time": 106.48144687500005,
                    "velocity": 0.6692913385826772,
                    "duration": 0.3703702500000077
                },
                {
                    "name": "D5",
                    "midi": 74,
                    "time": 106.54317525000005,
                    "velocity": 0.6692913385826772,
                    "duration": 0.3086418750000064
                },
                {
                    "name": "A5",
                    "midi": 81,
                    "time": 106.60490362500005,
                    "velocity": 0.6850393700787402,
                    "duration": 0.24691350000000511
                },
                {
                    "name": "D6",
                    "midi": 86,
                    "time": 106.66663200000005,
                    "velocity": 0.7480314960629921,
                    "duration": 0.18518512500000384
                },
                {
                    "name": "G4",
                    "midi": 67,
                    "time": 107.16045900000006,
                    "velocity": 0.7480314960629921,
                    "duration": 0.493826999999996
                },
                {
                    "name": "D5",
                    "midi": 74,
                    "time": 107.16045900000006,
                    "velocity": 0.7480314960629921,
                    "duration": 0.493826999999996
                },
                {
                    "name": "G5",
                    "midi": 79,
                    "time": 107.16045900000006,
                    "velocity": 0.8188976377952756,
                    "duration": 0.493826999999996
                },
                {
                    "name": "C#5",
                    "midi": 73,
                    "time": 107.81889500000005,
                    "velocity": 0.5433070866141733,
                    "duration": 0.16460899999999867
                },
                {
                    "name": "G4",
                    "midi": 67,
                    "time": 107.81889500000005,
                    "velocity": 0.5433070866141733,
                    "duration": 0.16460899999999867
                },
                {
                    "name": "G5",
                    "midi": 79,
                    "time": 107.81889500000005,
                    "velocity": 0.5984251968503937,
                    "duration": 0.16460899999999867
                },
                {
                    "name": "C#5",
                    "midi": 73,
                    "time": 107.98350400000005,
                    "velocity": 0.5275590551181102,
                    "duration": 0.16460899999999867
                },
                {
                    "name": "G4",
                    "midi": 67,
                    "time": 107.98350400000005,
                    "velocity": 0.5275590551181102,
                    "duration": 0.16460899999999867
                },
                {
                    "name": "G5",
                    "midi": 79,
                    "time": 107.98350400000005,
                    "velocity": 0.5748031496062992,
                    "duration": 0.16460899999999867
                },
                {
                    "name": "G5",
                    "midi": 79,
                    "time": 108.14811300000005,
                    "velocity": 0.5984251968503937,
                    "duration": 0.16460899999999867
                },
                {
                    "name": "C#5",
                    "midi": 73,
                    "time": 108.14811300000005,
                    "velocity": 0.5433070866141733,
                    "duration": 0.16460899999999867
                },
                {
                    "name": "G4",
                    "midi": 67,
                    "time": 108.14811300000005,
                    "velocity": 0.5433070866141733,
                    "duration": 0.16460899999999867
                },
                {
                    "name": "G#5",
                    "midi": 80,
                    "time": 108.31272200000005,
                    "velocity": 0.5748031496062992,
                    "duration": 0.16460899999999867
                },
                {
                    "name": "C#5",
                    "midi": 73,
                    "time": 108.31272200000005,
                    "velocity": 0.5275590551181102,
                    "duration": 0.16460899999999867
                },
                {
                    "name": "G#4",
                    "midi": 68,
                    "time": 108.31272200000005,
                    "velocity": 0.5275590551181102,
                    "duration": 0.16460899999999867
                },
                {
                    "name": "G4",
                    "midi": 67,
                    "time": 108.55963550000006,
                    "velocity": 0.5433070866141733,
                    "duration": 0.08230450000000644
                },
                {
                    "name": "C#5",
                    "midi": 73,
                    "time": 108.55963550000006,
                    "velocity": 0.5433070866141733,
                    "duration": 0.08230450000000644
                },
                {
                    "name": "G5",
                    "midi": 79,
                    "time": 108.55963550000006,
                    "velocity": 0.5984251968503937,
                    "duration": 0.08230450000000644
                },
                {
                    "name": "G4",
                    "midi": 67,
                    "time": 108.64194000000006,
                    "velocity": 0.5669291338582677,
                    "duration": 0.13374481249999803
                },
                {
                    "name": "C5",
                    "midi": 72,
                    "time": 108.64194000000006,
                    "velocity": 0.5669291338582677,
                    "duration": 0.12345675000000256
                },
                {
                    "name": "G5",
                    "midi": 79,
                    "time": 108.64194000000006,
                    "velocity": 0.6456692913385826,
                    "duration": 0.13374481249999803
                },
                {
                    "name": "C5",
                    "midi": 72,
                    "time": 108.76539675000006,
                    "velocity": 0.5433070866141733,
                    "duration": 0.12345675000000256
                },
                {
                    "name": "C6",
                    "midi": 84,
                    "time": 108.76539675000006,
                    "velocity": 0.5984251968503937,
                    "duration": 0.12345675000000256
                },
                {
                    "name": "F4",
                    "midi": 65,
                    "time": 109.13576700000007,
                    "velocity": 0.6535433070866141,
                    "duration": 0.493826999999996
                },
                {
                    "name": "C5",
                    "midi": 72,
                    "time": 109.13576700000007,
                    "velocity": 0.6535433070866141,
                    "duration": 0.493826999999996
                },
                {
                    "name": "F5",
                    "midi": 77,
                    "time": 109.13576700000007,
                    "velocity": 0.7165354330708661,
                    "duration": 0.493826999999996
                },
                {
                    "name": "F4",
                    "midi": 65,
                    "time": 109.79420300000007,
                    "velocity": 0.5354330708661418,
                    "duration": 0.16460899999999867
                },
                {
                    "name": "C5",
                    "midi": 72,
                    "time": 109.79420300000007,
                    "velocity": 0.5354330708661418,
                    "duration": 0.16460899999999867
                },
                {
                    "name": "F5",
                    "midi": 77,
                    "time": 109.79420300000007,
                    "velocity": 0.5826771653543307,
                    "duration": 0.16460899999999867
                },
                {
                    "name": "F4",
                    "midi": 65,
                    "time": 109.95881200000007,
                    "velocity": 0.5196850393700787,
                    "duration": 0.16460899999999867
                },
                {
                    "name": "C5",
                    "midi": 72,
                    "time": 109.95881200000007,
                    "velocity": 0.5196850393700787,
                    "duration": 0.16460899999999867
                },
                {
                    "name": "F5",
                    "midi": 77,
                    "time": 109.95881200000007,
                    "velocity": 0.5669291338582677,
                    "duration": 0.16460899999999867
                },
                {
                    "name": "E4",
                    "midi": 64,
                    "time": 110.12342100000006,
                    "velocity": 0.5354330708661418,
                    "duration": 0.13374481249999803
                },
                {
                    "name": "C5",
                    "midi": 72,
                    "time": 110.12342100000006,
                    "velocity": 0.5354330708661418,
                    "duration": 0.12345675000000256
                },
                {
                    "name": "E5",
                    "midi": 76,
                    "time": 110.12342100000006,
                    "velocity": 0.5826771653543307,
                    "duration": 0.13374481249999803
                },
                {
                    "name": "F4",
                    "midi": 65,
                    "time": 110.24687775000007,
                    "velocity": 0.5590551181102362,
                    "duration": 0.13374481249999803
                },
                {
                    "name": "C5",
                    "midi": 72,
                    "time": 110.24687775000007,
                    "velocity": 0.5590551181102362,
                    "duration": 0.12345675000000256
                },
                {
                    "name": "F5",
                    "midi": 77,
                    "time": 110.24687775000007,
                    "velocity": 0.6062992125984252,
                    "duration": 0.13374481249999803
                },
                {
                    "name": "G4",
                    "midi": 67,
                    "time": 110.37033450000007,
                    "velocity": 0.5826771653543307,
                    "duration": 0.09259256250000192
                },
                {
                    "name": "C5",
                    "midi": 72,
                    "time": 110.37033450000007,
                    "velocity": 0.5826771653543307,
                    "duration": 0.09259256250000192
                },
                {
                    "name": "G5",
                    "midi": 79,
                    "time": 110.37033450000007,
                    "velocity": 0.6377952755905512,
                    "duration": 0.09259256250000192
                },
                {
                    "name": "F4",
                    "midi": 65,
                    "time": 110.55551962500007,
                    "velocity": 0.5669291338582677,
                    "duration": 0.0514403125000058
                },
                {
                    "name": "C5",
                    "midi": 72,
                    "time": 110.55551962500007,
                    "velocity": 0.5669291338582677,
                    "duration": 0.0514403125000058
                },
                {
                    "name": "F5",
                    "midi": 77,
                    "time": 110.55551962500007,
                    "velocity": 0.6220472440944882,
                    "duration": 0.0514403125000058
                },
                {
                    "name": "E4",
                    "midi": 64,
                    "time": 110.61724800000007,
                    "velocity": 0.6220472440944882,
                    "duration": 0.24691350000000511
                },
                {
                    "name": "C5",
                    "midi": 72,
                    "time": 110.61724800000007,
                    "velocity": 0.6220472440944882,
                    "duration": 0.24691350000000511
                },
                {
                    "name": "E5",
                    "midi": 76,
                    "time": 110.61724800000007,
                    "velocity": 0.6850393700787402,
                    "duration": 0.24691350000000511
                },
                {
                    "name": "C5",
                    "midi": 72,
                    "time": 111.11107500000008,
                    "velocity": 0.5433070866141733,
                    "duration": 1.4814810000000023
                },
                {
                    "name": "D#4",
                    "midi": 63,
                    "time": 111.11107500000008,
                    "velocity": 0.5433070866141733,
                    "duration": 1.3580242499999997
                },
                {
                    "name": "D#5",
                    "midi": 75,
                    "time": 111.11107500000008,
                    "velocity": 0.5984251968503937,
                    "duration": 1.3580242499999997
                },
                {
                    "name": "D#4",
                    "midi": 63,
                    "time": 112.46909925000008,
                    "velocity": 0.5275590551181102,
                    "duration": 0.12345675000000256
                },
                {
                    "name": "D#5",
                    "midi": 75,
                    "time": 112.46909925000008,
                    "velocity": 0.5748031496062992,
                    "duration": 0.12345675000000256
                },
                {
                    "name": "B4",
                    "midi": 71,
                    "time": 112.59255600000009,
                    "velocity": 0.5590551181102362,
                    "duration": 0.987653999999992
                },
                {
                    "name": "D#4",
                    "midi": 63,
                    "time": 112.59255600000009,
                    "velocity": 0.5590551181102362,
                    "duration": 0.493826999999996
                },
                {
                    "name": "D#5",
                    "midi": 75,
                    "time": 112.59255600000009,
                    "velocity": 0.6062992125984252,
                    "duration": 0.493826999999996
                },
                {
                    "name": "D4",
                    "midi": 62,
                    "time": 113.08638300000008,
                    "velocity": 0.5433070866141733,
                    "duration": 0.493826999999996
                },
                {
                    "name": "D5",
                    "midi": 74,
                    "time": 113.08638300000008,
                    "velocity": 0.5984251968503937,
                    "duration": 0.493826999999996
                },
                {
                    "name": "B4",
                    "midi": 71,
                    "time": 117.69543500000007,
                    "velocity": 0.6377952755905512,
                    "duration": 0.17489706249999415
                },
                {
                    "name": "B5",
                    "midi": 83,
                    "time": 117.69543500000007,
                    "velocity": 0.7007874015748031,
                    "duration": 0.17489706249999415
                },
                {
                    "name": "C6",
                    "midi": 84,
                    "time": 117.86004400000007,
                    "velocity": 0.7244094488188977,
                    "duration": 0.17489706249999415
                },
                {
                    "name": "C5",
                    "midi": 72,
                    "time": 117.86004400000007,
                    "velocity": 0.6614173228346457,
                    "duration": 0.17489706249999415
                },
                {
                    "name": "C#5",
                    "midi": 73,
                    "time": 118.02465300000007,
                    "velocity": 0.6850393700787402,
                    "duration": 0.17489706249999415
                },
                {
                    "name": "C#6",
                    "midi": 85,
                    "time": 118.02465300000007,
                    "velocity": 0.7480314960629921,
                    "duration": 0.17489706249999415
                },
                {
                    "name": "D5",
                    "midi": 74,
                    "time": 118.18926200000007,
                    "velocity": 0.7480314960629921,
                    "duration": 0.16460899999999867
                },
                {
                    "name": "D6",
                    "midi": 86,
                    "time": 118.18926200000007,
                    "velocity": 0.8267716535433071,
                    "duration": 0.16460899999999867
                },
                {
                    "name": "D#5",
                    "midi": 75,
                    "time": 118.43617550000008,
                    "velocity": 0.7401574803149606,
                    "duration": 0.08230450000000644
                },
                {
                    "name": "D#6",
                    "midi": 87,
                    "time": 118.43617550000008,
                    "velocity": 0.8110236220472441,
                    "duration": 0.08230450000000644
                },
                {
                    "name": "D#5",
                    "midi": 75,
                    "time": 118.51848000000008,
                    "velocity": 0.84251968503937,
                    "duration": 0.9876540000000062
                },
                {
                    "name": "D#6",
                    "midi": 87,
                    "time": 118.51848000000008,
                    "velocity": 0.9133858267716536,
                    "duration": 0.9876540000000062
                },
                {
                    "name": "G4",
                    "midi": 67,
                    "time": 119.87650425000008,
                    "velocity": 0.3858267716535433,
                    "duration": 0.12345675000000256
                },
                {
                    "name": "C5",
                    "midi": 72,
                    "time": 119.87650425000008,
                    "velocity": 0.3858267716535433,
                    "duration": 0.12345675000000256
                },
                {
                    "name": "D#5",
                    "midi": 75,
                    "time": 119.87650425000008,
                    "velocity": 0.3858267716535433,
                    "duration": 0.12345675000000256
                },
                {
                    "name": "G5",
                    "midi": 79,
                    "time": 119.87650425000008,
                    "velocity": 0.4251968503937008,
                    "duration": 0.12345675000000256
                },
                {
                    "name": "G5",
                    "midi": 79,
                    "time": 119.99996100000008,
                    "velocity": 0.4251968503937008,
                    "duration": 0.37037024999999346
                },
                {
                    "name": "G4",
                    "midi": 67,
                    "time": 119.99996100000008,
                    "velocity": 0.3858267716535433,
                    "duration": 0.37037024999999346
                },
                {
                    "name": "D#5",
                    "midi": 75,
                    "time": 119.99996100000008,
                    "velocity": 0.3858267716535433,
                    "duration": 0.37037024999999346
                },
                {
                    "name": "C5",
                    "midi": 72,
                    "time": 119.99996100000008,
                    "velocity": 0.3858267716535433,
                    "duration": 0.37037024999999346
                },
                {
                    "name": "G5",
                    "midi": 79,
                    "time": 120.37033125000008,
                    "velocity": 0.4251968503937008,
                    "duration": 0.12345675000000256
                },
                {
                    "name": "C5",
                    "midi": 72,
                    "time": 120.37033125000008,
                    "velocity": 0.3858267716535433,
                    "duration": 0.12345675000000256
                },
                {
                    "name": "D#5",
                    "midi": 75,
                    "time": 120.37033125000008,
                    "velocity": 0.3858267716535433,
                    "duration": 0.12345675000000256
                },
                {
                    "name": "G4",
                    "midi": 67,
                    "time": 120.37033125000008,
                    "velocity": 0.3858267716535433,
                    "duration": 0.12345675000000256
                },
                {
                    "name": "G#4",
                    "midi": 68,
                    "time": 120.49378800000008,
                    "velocity": 0.44881889763779526,
                    "duration": 0.9876540000000062
                },
                {
                    "name": "C5",
                    "midi": 72,
                    "time": 120.49378800000008,
                    "velocity": 0.44881889763779526,
                    "duration": 0.9876540000000062
                },
                {
                    "name": "D#5",
                    "midi": 75,
                    "time": 120.49378800000008,
                    "velocity": 0.44881889763779526,
                    "duration": 0.9876540000000062
                },
                {
                    "name": "G#5",
                    "midi": 80,
                    "time": 120.49378800000008,
                    "velocity": 0.4881889763779528,
                    "duration": 0.9876540000000062
                },
                {
                    "name": "G5",
                    "midi": 79,
                    "time": 121.48144200000009,
                    "velocity": 0.6062992125984252,
                    "duration": 0.16460899999999867
                },
                {
                    "name": "C5",
                    "midi": 72,
                    "time": 121.48144200000009,
                    "velocity": 0.5590551181102362,
                    "duration": 0.16460899999999867
                },
                {
                    "name": "D#5",
                    "midi": 75,
                    "time": 121.48144200000009,
                    "velocity": 0.5590551181102362,
                    "duration": 0.16460899999999867
                },
                {
                    "name": "G4",
                    "midi": 67,
                    "time": 121.48144200000009,
                    "velocity": 0.5590551181102362,
                    "duration": 0.16460899999999867
                },
                {
                    "name": "B4",
                    "midi": 71,
                    "time": 121.64605100000009,
                    "velocity": 0.5590551181102362,
                    "duration": 0.17489706249999415
                },
                {
                    "name": "B5",
                    "midi": 83,
                    "time": 121.64605100000009,
                    "velocity": 0.6062992125984252,
                    "duration": 0.17489706249999415
                },
                {
                    "name": "C6",
                    "midi": 84,
                    "time": 121.81066000000008,
                    "velocity": 0.6220472440944882,
                    "duration": 0.17489706249999415
                },
                {
                    "name": "C5",
                    "midi": 72,
                    "time": 121.81066000000008,
                    "velocity": 0.5669291338582677,
                    "duration": 0.17489706249999415
                },
                {
                    "name": "C#5",
                    "midi": 73,
                    "time": 121.97526900000008,
                    "velocity": 0.6377952755905512,
                    "duration": 0.13374481249999803
                },
                {
                    "name": "C#6",
                    "midi": 85,
                    "time": 121.97526900000008,
                    "velocity": 0.7007874015748031,
                    "duration": 0.13374481249999803
                },
                {
                    "name": "D5",
                    "midi": 74,
                    "time": 122.09872575000009,
                    "velocity": 0.6614173228346457,
                    "duration": 0.12345675000000256
                },
                {
                    "name": "D6",
                    "midi": 86,
                    "time": 122.09872575000009,
                    "velocity": 0.7244094488188977,
                    "duration": 0.13374481249999803
                },
                {
                    "name": "F5",
                    "midi": 77,
                    "time": 122.22218250000009,
                    "velocity": 0.7401574803149606,
                    "duration": 0.09259256250000192
                },
                {
                    "name": "F6",
                    "midi": 89,
                    "time": 122.22218250000009,
                    "velocity": 0.8110236220472441,
                    "duration": 0.09259256250000192
                },
                {
                    "name": "D#6",
                    "midi": 87,
                    "time": 122.40736762500009,
                    "velocity": 0.6929133858267716,
                    "duration": 0.0514403125000058
                },
                {
                    "name": "D#5",
                    "midi": 75,
                    "time": 122.40736762500009,
                    "velocity": 0.6299212598425197,
                    "duration": 0.0514403125000058
                },
                {
                    "name": "D#5",
                    "midi": 75,
                    "time": 122.46909600000009,
                    "velocity": 0.7874015748031497,
                    "duration": 0.9876540000000062
                },
                {
                    "name": "D#6",
                    "midi": 87,
                    "time": 122.46909600000009,
                    "velocity": 0.8661417322834646,
                    "duration": 0.9876540000000062
                },
                {
                    "name": "G5",
                    "midi": 79,
                    "time": 123.82712025000009,
                    "velocity": 0.4645669291338583,
                    "duration": 0.12345675000000256
                },
                {
                    "name": "C5",
                    "midi": 72,
                    "time": 123.82712025000009,
                    "velocity": 0.4251968503937008,
                    "duration": 0.12345675000000256
                },
                {
                    "name": "D#5",
                    "midi": 75,
                    "time": 123.82712025000009,
                    "velocity": 0.4251968503937008,
                    "duration": 0.12345675000000256
                },
                {
                    "name": "G4",
                    "midi": 67,
                    "time": 123.82712025000009,
                    "velocity": 0.4251968503937008,
                    "duration": 0.12345675000000256
                },
                {
                    "name": "G5",
                    "midi": 79,
                    "time": 123.9505770000001,
                    "velocity": 0.48031496062992124,
                    "duration": 0.37037024999999346
                },
                {
                    "name": "G4",
                    "midi": 67,
                    "time": 123.9505770000001,
                    "velocity": 0.4409448818897638,
                    "duration": 0.37037024999999346
                },
                {
                    "name": "C5",
                    "midi": 72,
                    "time": 123.9505770000001,
                    "velocity": 0.4409448818897638,
                    "duration": 0.37037024999999346
                },
                {
                    "name": "D#5",
                    "midi": 75,
                    "time": 123.9505770000001,
                    "velocity": 0.4409448818897638,
                    "duration": 0.37037024999999346
                },
                {
                    "name": "G4",
                    "midi": 67,
                    "time": 124.32094725000009,
                    "velocity": 0.5039370078740157,
                    "duration": 0.12345675000000256
                },
                {
                    "name": "C5",
                    "midi": 72,
                    "time": 124.32094725000009,
                    "velocity": 0.5039370078740157,
                    "duration": 0.12345675000000256
                },
                {
                    "name": "D#5",
                    "midi": 75,
                    "time": 124.32094725000009,
                    "velocity": 0.5039370078740157,
                    "duration": 0.12345675000000256
                },
                {
                    "name": "G5",
                    "midi": 79,
                    "time": 124.32094725000009,
                    "velocity": 0.5511811023622047,
                    "duration": 0.12345675000000256
                },
                {
                    "name": "A4",
                    "midi": 69,
                    "time": 124.44440400000009,
                    "velocity": 0.5905511811023622,
                    "duration": 1.9753079999999983
                },
                {
                    "name": "D#5",
                    "midi": 75,
                    "time": 124.44440400000009,
                    "velocity": 0.5905511811023622,
                    "duration": 1.9753079999999983
                },
                {
                    "name": "A5",
                    "midi": 81,
                    "time": 124.44440400000009,
                    "velocity": 0.6456692913385826,
                    "duration": 1.9753079999999983
                },
                {
                    "name": "A#4",
                    "midi": 70,
                    "time": 126.41971200000009,
                    "velocity": 0.7480314960629921,
                    "duration": 0.9876540000000062
                },
                {
                    "name": "C#5",
                    "midi": 73,
                    "time": 126.41971200000009,
                    "velocity": 0.7480314960629921,
                    "duration": 0.9876540000000062
                },
                {
                    "name": "A#5",
                    "midi": 82,
                    "time": 126.41971200000009,
                    "velocity": 0.8346456692913385,
                    "duration": 0.9876540000000062
                },
                {
                    "name": "G#5",
                    "midi": 80,
                    "time": 127.4073660000001,
                    "velocity": 0.7165354330708661,
                    "duration": 0.493826999999996
                },
                {
                    "name": "A#4",
                    "midi": 70,
                    "time": 127.4073660000001,
                    "velocity": 0.6535433070866141,
                    "duration": 0.493826999999996
                },
                {
                    "name": "C#5",
                    "midi": 73,
                    "time": 127.4073660000001,
                    "velocity": 0.6535433070866141,
                    "duration": 0.493826999999996
                },
                {
                    "name": "G#4",
                    "midi": 68,
                    "time": 127.4073660000001,
                    "velocity": 0.6535433070866141,
                    "duration": 0.493826999999996
                },
                {
                    "name": "F#4",
                    "midi": 66,
                    "time": 127.90119300000009,
                    "velocity": 0.6535433070866141,
                    "duration": 0.3703702500000077
                },
                {
                    "name": "A#4",
                    "midi": 70,
                    "time": 127.90119300000009,
                    "velocity": 0.6535433070866141,
                    "duration": 0.3703702500000077
                },
                {
                    "name": "C#5",
                    "midi": 73,
                    "time": 127.90119300000009,
                    "velocity": 0.6535433070866141,
                    "duration": 0.3703702500000077
                },
                {
                    "name": "F#5",
                    "midi": 78,
                    "time": 127.90119300000009,
                    "velocity": 0.7165354330708661,
                    "duration": 0.3703702500000077
                },
                {
                    "name": "F4",
                    "midi": 65,
                    "time": 128.2715632500001,
                    "velocity": 0.6535433070866141,
                    "duration": 0.12345675000000256
                },
                {
                    "name": "A#4",
                    "midi": 70,
                    "time": 128.2715632500001,
                    "velocity": 0.6535433070866141,
                    "duration": 0.12345675000000256
                },
                {
                    "name": "C#5",
                    "midi": 73,
                    "time": 128.2715632500001,
                    "velocity": 0.6535433070866141,
                    "duration": 0.12345675000000256
                },
                {
                    "name": "F5",
                    "midi": 77,
                    "time": 128.2715632500001,
                    "velocity": 0.7165354330708661,
                    "duration": 0.12345675000000256
                },
                {
                    "name": "F5",
                    "midi": 77,
                    "time": 128.3950200000001,
                    "velocity": 0.7716535433070866,
                    "duration": 0.987653999999992
                },
                {
                    "name": "F4",
                    "midi": 65,
                    "time": 128.3950200000001,
                    "velocity": 0.7007874015748031,
                    "duration": 0.987653999999992
                },
                {
                    "name": "C#5",
                    "midi": 73,
                    "time": 128.3950200000001,
                    "velocity": 0.7007874015748031,
                    "duration": 0.987653999999992
                },
                {
                    "name": "A#4",
                    "midi": 70,
                    "time": 128.3950200000001,
                    "velocity": 0.7007874015748031,
                    "duration": 1.4814810000000023
                },
                {
                    "name": "E4",
                    "midi": 64,
                    "time": 129.3826740000001,
                    "velocity": 0.6535433070866141,
                    "duration": 0.49382700000001023
                },
                {
                    "name": "E5",
                    "midi": 76,
                    "time": 129.3826740000001,
                    "velocity": 0.7165354330708661,
                    "duration": 0.49382700000001023
                },
                {
                    "name": "G#5",
                    "midi": 80,
                    "time": 130.37032800000011,
                    "velocity": 0.7874015748031497,
                    "duration": 0.987653999999992
                },
                {
                    "name": "B4",
                    "midi": 71,
                    "time": 130.37032800000011,
                    "velocity": 0.7165354330708661,
                    "duration": 0.987653999999992
                },
                {
                    "name": "E5",
                    "midi": 76,
                    "time": 130.37032800000011,
                    "velocity": 0.7165354330708661,
                    "duration": 0.987653999999992
                },
                {
                    "name": "G#4",
                    "midi": 68,
                    "time": 130.37032800000011,
                    "velocity": 0.7165354330708661,
                    "duration": 0.987653999999992
                },
                {
                    "name": "F#4",
                    "midi": 66,
                    "time": 131.3579820000001,
                    "velocity": 0.6220472440944882,
                    "duration": 0.49382700000001023
                },
                {
                    "name": "G#4",
                    "midi": 68,
                    "time": 131.3579820000001,
                    "velocity": 0.6220472440944882,
                    "duration": 0.49382700000001023
                },
                {
                    "name": "B4",
                    "midi": 71,
                    "time": 131.3579820000001,
                    "velocity": 0.6220472440944882,
                    "duration": 0.49382700000001023
                },
                {
                    "name": "F#5",
                    "midi": 78,
                    "time": 131.3579820000001,
                    "velocity": 0.6850393700787402,
                    "duration": 0.49382700000001023
                },
                {
                    "name": "E4",
                    "midi": 64,
                    "time": 131.85180900000012,
                    "velocity": 0.6220472440944882,
                    "duration": 0.3703702500000077
                },
                {
                    "name": "G#4",
                    "midi": 68,
                    "time": 131.85180900000012,
                    "velocity": 0.6220472440944882,
                    "duration": 0.3703702500000077
                },
                {
                    "name": "B4",
                    "midi": 71,
                    "time": 131.85180900000012,
                    "velocity": 0.6220472440944882,
                    "duration": 0.3703702500000077
                },
                {
                    "name": "E5",
                    "midi": 76,
                    "time": 131.85180900000012,
                    "velocity": 0.6850393700787402,
                    "duration": 0.3703702500000077
                },
                {
                    "name": "D#5",
                    "midi": 75,
                    "time": 132.22217925000012,
                    "velocity": 0.6614173228346457,
                    "duration": 0.12345675000000256
                },
                {
                    "name": "G#4",
                    "midi": 68,
                    "time": 132.22217925000012,
                    "velocity": 0.5984251968503937,
                    "duration": 0.12345675000000256
                },
                {
                    "name": "B4",
                    "midi": 71,
                    "time": 132.22217925000012,
                    "velocity": 0.5984251968503937,
                    "duration": 0.12345675000000256
                },
                {
                    "name": "D#4",
                    "midi": 63,
                    "time": 132.22217925000012,
                    "velocity": 0.5984251968503937,
                    "duration": 0.12345675000000256
                },
                {
                    "name": "G#4",
                    "midi": 68,
                    "time": 132.34563600000013,
                    "velocity": 0.6850393700787402,
                    "duration": 1.4814810000000023
                },
                {
                    "name": "D#5",
                    "midi": 75,
                    "time": 132.34563600000013,
                    "velocity": 0.7480314960629921,
                    "duration": 0.987653999999992
                },
                {
                    "name": "D#4",
                    "midi": 63,
                    "time": 132.34563600000013,
                    "velocity": 0.6850393700787402,
                    "duration": 0.987653999999992
                },
                {
                    "name": "B4",
                    "midi": 71,
                    "time": 132.34563600000013,
                    "velocity": 0.6850393700787402,
                    "duration": 0.987653999999992
                },
                {
                    "name": "D4",
                    "midi": 62,
                    "time": 133.33329000000012,
                    "velocity": 0.6220472440944882,
                    "duration": 0.49382700000001023
                },
                {
                    "name": "D5",
                    "midi": 74,
                    "time": 133.33329000000012,
                    "velocity": 0.6850393700787402,
                    "duration": 0.49382700000001023
                },
                {
                    "name": "G4",
                    "midi": 67,
                    "time": 134.32094400000014,
                    "velocity": 0.6062992125984252,
                    "duration": 1.9753080000000125
                },
                {
                    "name": "D#5",
                    "midi": 75,
                    "time": 134.32094400000014,
                    "velocity": 0.6062992125984252,
                    "duration": 1.9753080000000125
                },
                {
                    "name": "G5",
                    "midi": 79,
                    "time": 134.32094400000014,
                    "velocity": 0.6850393700787402,
                    "duration": 1.9753080000000125
                },
                {
                    "name": "G5",
                    "midi": 79,
                    "time": 136.29625200000015,
                    "velocity": 0.5118110236220472,
                    "duration": 1.728394499999979
                },
                {
                    "name": "G4",
                    "midi": 67,
                    "time": 136.29625200000015,
                    "velocity": 0.41732283464566927,
                    "duration": 0.987653999999992
                },
                {
                    "name": "D5",
                    "midi": 74,
                    "time": 136.29625200000015,
                    "velocity": 0.41732283464566927,
                    "duration": 1.975307999999984
                },
                {
                    "name": "G4",
                    "midi": 67,
                    "time": 137.28390600000014,
                    "velocity": 0.47244094488188976,
                    "duration": 0.987653999999992
                },
                {
                    "name": "F5",
                    "midi": 77,
                    "time": 138.02464650000013,
                    "velocity": 0.5275590551181102,
                    "duration": 0.24691350000000511
                },
                {
                    "name": "F5",
                    "midi": 77,
                    "time": 138.27156000000014,
                    "velocity": 0.5826771653543307,
                    "duration": 0.987653999999992
                },
                {
                    "name": "G4",
                    "midi": 67,
                    "time": 138.27156000000014,
                    "velocity": 0.48031496062992124,
                    "duration": 1.975307999999984
                },
                {
                    "name": "C5",
                    "midi": 72,
                    "time": 138.27156000000014,
                    "velocity": 0.48031496062992124,
                    "duration": 1.975307999999984
                },
                {
                    "name": "D#5",
                    "midi": 75,
                    "time": 139.25921400000013,
                    "velocity": 0.5511811023622047,
                    "duration": 0.987653999999992
                },
                {
                    "name": "F4",
                    "midi": 65,
                    "time": 140.24686800000012,
                    "velocity": 0.3779527559055118,
                    "duration": 1.975308000000041
                },
                {
                    "name": "G#4",
                    "midi": 68,
                    "time": 140.30859637500012,
                    "velocity": 0.3779527559055118,
                    "duration": 1.9135796250000396
                },
                {
                    "name": "D#5",
                    "midi": 75,
                    "time": 140.37032475000012,
                    "velocity": 0.44881889763779526,
                    "duration": 0.12345675000000256
                },
                {
                    "name": "F5",
                    "midi": 77,
                    "time": 140.49378150000013,
                    "velocity": 0.4645669291338583,
                    "duration": 0.12345675000000256
                },
                {
                    "name": "D#5",
                    "midi": 75,
                    "time": 140.61723825000013,
                    "velocity": 0.4881889763779528,
                    "duration": 0.12345675000000256
                },
                {
                    "name": "C#5",
                    "midi": 73,
                    "time": 140.74069500000013,
                    "velocity": 0.5196850393700787,
                    "duration": 0.3703702500000077
                },
                {
                    "name": "D#5",
                    "midi": 75,
                    "time": 141.11106525000014,
                    "velocity": 0.5511811023622047,
                    "duration": 0.12345675000000256
                },
                {
                    "name": "F5",
                    "midi": 77,
                    "time": 141.23452200000014,
                    "velocity": 0.5905511811023622,
                    "duration": 0.49382700000001023
                },
                {
                    "name": "G#4",
                    "midi": 68,
                    "time": 141.72834900000015,
                    "velocity": 0.5196850393700787,
                    "duration": 0.49382700000001023
                },
                {
                    "name": "D#4",
                    "midi": 63,
                    "time": 142.22217600000016,
                    "velocity": 0.49606299212598426,
                    "duration": 3.9506159999999966
                },
                {
                    "name": "C5",
                    "midi": 72,
                    "time": 142.22217600000016,
                    "velocity": 0.5354330708661418,
                    "duration": 3.9506159999999966
                },
                {
                    "name": "C5",
                    "midi": 72,
                    "time": 146.17279200000016,
                    "velocity": 0.5275590551181102,
                    "duration": 0.7407404999999869
                },
                {
                    "name": "D4",
                    "midi": 62,
                    "time": 146.17279200000016,
                    "velocity": 0.47244094488188976,
                    "duration": 1.4814810000000023
                },
                {
                    "name": "F4",
                    "midi": 65,
                    "time": 146.17279200000016,
                    "velocity": 0.47244094488188976,
                    "duration": 1.4814810000000023
                },
                {
                    "name": "B4",
                    "midi": 71,
                    "time": 146.91353250000014,
                    "velocity": 0.47244094488188976,
                    "duration": 0.24691350000000511
                },
                {
                    "name": "D5",
                    "midi": 74,
                    "time": 147.16044600000015,
                    "velocity": 0.5275590551181102,
                    "duration": 0.49382700000001023
                },
                {
                    "name": "C4",
                    "midi": 60,
                    "time": 150.12340800000015,
                    "velocity": 0.5590551181102362,
                    "duration": 0.12345675000000256
                },
                {
                    "name": "C5",
                    "midi": 72,
                    "time": 150.12340800000015,
                    "velocity": 0.5590551181102362,
                    "duration": 2.9629620000000045
                },
                {
                    "name": "F4",
                    "midi": 65,
                    "time": 152.09871600000017,
                    "velocity": 0.3858267716535433,
                    "duration": 1.975307999999984
                },
                {
                    "name": "G#4",
                    "midi": 68,
                    "time": 152.09871600000017,
                    "velocity": 0.3858267716535433,
                    "duration": 1.975307999999984
                },
                {
                    "name": "D5",
                    "midi": 74,
                    "time": 153.08637000000016,
                    "velocity": 0.4330708661417323,
                    "duration": 0.987653999999992
                },
                {
                    "name": "E4",
                    "midi": 64,
                    "time": 154.07402400000015,
                    "velocity": 0.41732283464566927,
                    "duration": 1.9753080000000125
                },
                {
                    "name": "G4",
                    "midi": 67,
                    "time": 154.07402400000015,
                    "velocity": 0.41732283464566927,
                    "duration": 1.9753080000000125
                },
                {
                    "name": "E5",
                    "midi": 76,
                    "time": 154.07402400000015,
                    "velocity": 0.4409448818897638,
                    "duration": 1.9753080000000125
                },
                {
                    "name": "C4",
                    "midi": 60,
                    "time": 156.04933200000016,
                    "velocity": 0.3228346456692913,
                    "duration": 1.9753080000000125
                },
                {
                    "name": "G4",
                    "midi": 67,
                    "time": 156.04933200000016,
                    "velocity": 0.3228346456692913,
                    "duration": 0.987653999999992
                },
                {
                    "name": "C5",
                    "midi": 72,
                    "time": 156.04933200000016,
                    "velocity": 0.3937007874015748,
                    "duration": 1.4814810000000023
                },
                {
                    "name": "G#4",
                    "midi": 68,
                    "time": 156.04933200000016,
                    "velocity": 0.3228346456692913,
                    "duration": 1.9753080000000125
                },
                {
                    "name": "F4",
                    "midi": 65,
                    "time": 157.03698600000016,
                    "velocity": 0.36220472440944884,
                    "duration": 0.9876540000000205
                },
                {
                    "name": "B4",
                    "midi": 71,
                    "time": 157.53081300000017,
                    "velocity": 0.4015748031496063,
                    "duration": 0.49382700000001023
                },
                {
                    "name": "D5",
                    "midi": 74,
                    "time": 157.53081300000017,
                    "velocity": 0.4330708661417323,
                    "duration": 0.49382700000001023
                },
                {
                    "name": "E4",
                    "midi": 64,
                    "time": 158.02464000000018,
                    "velocity": 0.4251968503937008,
                    "duration": 0.24691350000000511
                },
                {
                    "name": "E5",
                    "midi": 76,
                    "time": 158.02464000000018,
                    "velocity": 0.5039370078740157,
                    "duration": 0.24691350000000511
                },
                {
                    "name": "G4",
                    "midi": 67,
                    "time": 158.02464000000018,
                    "velocity": 0.4251968503937008,
                    "duration": 0.24691350000000511
                },
                {
                    "name": "C5",
                    "midi": 72,
                    "time": 158.02464000000018,
                    "velocity": 0.4251968503937008,
                    "duration": 0.24691350000000511
                },
                {
                    "name": "G#6",
                    "midi": 92,
                    "time": 158.2705246937502,
                    "velocity": 0.7007874015748031,
                    "duration": 0.12345675000000256
                },
                {
                    "name": "G6",
                    "midi": 91,
                    "time": 158.39809666875018,
                    "velocity": 0.6929133858267716,
                    "duration": 0.1358024250000085
                },
                {
                    "name": "E6",
                    "midi": 88,
                    "time": 158.51538058125018,
                    "velocity": 0.6692913385826772,
                    "duration": 0.1358024250000085
                },
                {
                    "name": "C6",
                    "midi": 84,
                    "time": 158.64603897500018,
                    "velocity": 0.6614173228346457,
                    "duration": 0.1358024250000085
                },
                {
                    "name": "C#6",
                    "midi": 85,
                    "time": 158.7643516937502,
                    "velocity": 0.7165354330708661,
                    "duration": 0.1358024250000085
                },
                {
                    "name": "C6",
                    "midi": 84,
                    "time": 158.8919236687502,
                    "velocity": 0.6850393700787402,
                    "duration": 0.1358024250000085
                },
                {
                    "name": "A#5",
                    "midi": 82,
                    "time": 159.0092075812502,
                    "velocity": 0.7007874015748031,
                    "duration": 0.1358024250000085
                },
                {
                    "name": "G5",
                    "midi": 79,
                    "time": 159.13060671875022,
                    "velocity": 0.6850393700787402,
                    "duration": 0.13580242499998008
                },
                {
                    "name": "G#5",
                    "midi": 80,
                    "time": 159.2602363062502,
                    "velocity": 0.7007874015748031,
                    "duration": 0.1358024250000085
                },
                {
                    "name": "G5",
                    "midi": 79,
                    "time": 159.3806066375002,
                    "velocity": 0.6929133858267716,
                    "duration": 0.1358024250000085
                },
                {
                    "name": "E5",
                    "midi": 76,
                    "time": 159.5040633875002,
                    "velocity": 0.6929133858267716,
                    "duration": 0.1358024250000085
                },
                {
                    "name": "C5",
                    "midi": 72,
                    "time": 159.6316353625002,
                    "velocity": 0.6850393700787402,
                    "duration": 0.1358024250000085
                },
                {
                    "name": "C#5",
                    "midi": 73,
                    "time": 159.7581785312502,
                    "velocity": 0.7165354330708661,
                    "duration": 0.1358024250000085
                },
                {
                    "name": "C5",
                    "midi": 72,
                    "time": 159.8734048312502,
                    "velocity": 0.6929133858267716,
                    "duration": 0.1358024250000085
                },
                {
                    "name": "A#4",
                    "midi": 70,
                    "time": 160.0040632250002,
                    "velocity": 0.7007874015748031,
                    "duration": 0.1358024250000085
                },
                {
                    "name": "G4",
                    "midi": 67,
                    "time": 160.1213471375002,
                    "velocity": 0.6929133858267716,
                    "duration": 0.1358024250000085
                },
                {
                    "name": "G#4",
                    "midi": 68,
                    "time": 160.2520055312502,
                    "velocity": 0.7480314960629921,
                    "duration": 0.1358024250000085
                },
                {
                    "name": "G4",
                    "midi": 67,
                    "time": 160.3723758625002,
                    "velocity": 0.7244094488188977,
                    "duration": 0.1358024250000085
                },
                {
                    "name": "E4",
                    "midi": 64,
                    "time": 160.49068858125023,
                    "velocity": 0.7086614173228346,
                    "duration": 0.13580242499998008
                },
                {
                    "name": "C4",
                    "midi": 60,
                    "time": 160.61517413750022,
                    "velocity": 0.7007874015748031,
                    "duration": 0.13580242499998008
                },
                {
                    "name": "C#4",
                    "midi": 61,
                    "time": 160.7386308875002,
                    "velocity": 0.7322834645669292,
                    "duration": 0.1358024250000085
                },
                {
                    "name": "C4",
                    "midi": 60,
                    "time": 160.8641452500002,
                    "velocity": 0.7244094488188977,
                    "duration": 0.13580242499998008
                },
                {
                    "name": "A#3",
                    "midi": 58,
                    "time": 160.9855443875002,
                    "velocity": 0.7165354330708661,
                    "duration": 0.13580242499998008
                },
                {
                    "name": "G3",
                    "midi": 55,
                    "time": 161.10797233125018,
                    "velocity": 0.7086614173228346,
                    "duration": 0.13580242499998008
                },
                {
                    "name": "G#3",
                    "midi": 56,
                    "time": 161.23040027500016,
                    "velocity": 0.7401574803149606,
                    "duration": 0.1358024250000085
                },
                {
                    "name": "G3",
                    "midi": 55,
                    "time": 161.35385702500017,
                    "velocity": 0.7244094488188977,
                    "duration": 0.1358024250000085
                },
                {
                    "name": "E3",
                    "midi": 52,
                    "time": 161.48348661250017,
                    "velocity": 0.7165354330708661,
                    "duration": 0.1358024250000085
                },
                {
                    "name": "C3",
                    "midi": 48,
                    "time": 161.60900097500019,
                    "velocity": 0.7086614173228346,
                    "duration": 0.13580242499998008
                },
                {
                    "name": "C#3",
                    "midi": 49,
                    "time": 161.73040011250018,
                    "velocity": 0.7401574803149606,
                    "duration": 0.13580242499998008
                },
                {
                    "name": "C3",
                    "midi": 48,
                    "time": 161.85591447500016,
                    "velocity": 0.8110236220472441,
                    "duration": 0.12345674999997414
                },
                {
                    "name": "C4",
                    "midi": 60,
                    "time": 161.97525600000014,
                    "velocity": 0.8661417322834646,
                    "duration": 0.9670778750000011
                },
                {
                    "name": "F3",
                    "midi": 53,
                    "time": 161.97525600000014,
                    "velocity": 0.7874015748031497,
                    "duration": 0.9670778750000011
                },
                {
                    "name": "A3",
                    "midi": 57,
                    "time": 161.97525600000014,
                    "velocity": 0.8661417322834646,
                    "duration": 0.9670778750000011
                },
                {
                    "name": "C3",
                    "midi": 48,
                    "time": 161.97525600000014,
                    "velocity": 0.7874015748031497,
                    "duration": 0.9670778750000011
                },
                {
                    "name": "C4",
                    "midi": 60,
                    "time": 162.96291000000014,
                    "velocity": 0.8503937007874016,
                    "duration": 0.9259256249999908
                },
                {
                    "name": "F3",
                    "midi": 53,
                    "time": 162.96291000000014,
                    "velocity": 0.7637795275590551,
                    "duration": 0.9259256249999908
                },
                {
                    "name": "G#3",
                    "midi": 56,
                    "time": 162.96291000000014,
                    "velocity": 0.8503937007874016,
                    "duration": 0.9259256249999908
                },
                {
                    "name": "C3",
                    "midi": 48,
                    "time": 162.96291000000014,
                    "velocity": 0.7637795275590551,
                    "duration": 0.9259256249999908
                },
                {
                    "name": "C4",
                    "midi": 60,
                    "time": 163.95056400000013,
                    "velocity": 0.8582677165354331,
                    "duration": 0.24691350000000511
                },
                {
                    "name": "C3",
                    "midi": 48,
                    "time": 163.95056400000013,
                    "velocity": 0.7795275590551181,
                    "duration": 0.24691350000000511
                },
                {
                    "name": "F3",
                    "midi": 53,
                    "time": 163.95056400000013,
                    "velocity": 0.7795275590551181,
                    "duration": 0.24691350000000511
                },
                {
                    "name": "G3",
                    "midi": 55,
                    "time": 163.95056400000013,
                    "velocity": 0.8582677165354331,
                    "duration": 0.24691350000000511
                },
                {
                    "name": "C4",
                    "midi": 60,
                    "time": 164.44439100000014,
                    "velocity": 0.8031496062992126,
                    "duration": 0.24691350000000511
                },
                {
                    "name": "E3",
                    "midi": 52,
                    "time": 164.44439100000014,
                    "velocity": 0.7322834645669292,
                    "duration": 0.24691350000000511
                },
                {
                    "name": "G3",
                    "midi": 55,
                    "time": 164.44439100000014,
                    "velocity": 0.8031496062992126,
                    "duration": 0.24691350000000511
                },
                {
                    "name": "C3",
                    "midi": 48,
                    "time": 164.44439100000014,
                    "velocity": 0.7322834645669292,
                    "duration": 0.24691350000000511
                }
            ],
            "controlChanges": {
                "7": [
                    {
                        "number": 7,
                        "time": 0,
                        "value": 0.7874015748031497
                    }
                ],
                "10": [
                    {
                        "number": 10,
                        "time": 0,
                        "value": 0.5039370078740157
                    }
                ],
                "64": [
                    {
                        "number": 64,
                        "time": 0,
                        "value": 0
                    }
                ],
                "91": [
                    {
                        "number": 91,
                        "time": 0,
                        "value": 1
                    },
                    {
                        "number": 91,
                        "time": 0,
                        "value": 1
                    }
                ]
            },
            "id": 1,
            "name": "Piano right",
            "instrumentNumber": 0,
            "instrument": "acoustic grand piano",
            "instrumentFamily": "piano",
            "channelNumber": 0,
            "isPercussion": false
        },
        {
            "startTime": 0.24176946874999997,
            "duration": 164.69130450000006,
            "length": 1308,
            "notes": [
                {
                    "name": "G#4",
                    "midi": 68,
                    "time": 0.24176946874999997,
                    "velocity": 0.5748031496062992,
                    "duration": 0.13580242499999992
                },
                {
                    "name": "G4",
                    "midi": 67,
                    "time": 0.3713990562499999,
                    "velocity": 0.5748031496062992,
                    "duration": 0.13580242499999995
                },
                {
                    "name": "F4",
                    "midi": 65,
                    "time": 0.49074058124999986,
                    "velocity": 0.6220472440944882,
                    "duration": 0.13580242499999995
                },
                {
                    "name": "D4",
                    "midi": 62,
                    "time": 0.6203701687499998,
                    "velocity": 0.5669291338582677,
                    "duration": 0.13580242499999995
                },
                {
                    "name": "D#4",
                    "midi": 63,
                    "time": 0.7417693062499998,
                    "velocity": 0.5669291338582677,
                    "duration": 0.13580242499999995
                },
                {
                    "name": "D4",
                    "midi": 62,
                    "time": 0.8641972499999998,
                    "velocity": 0.5590551181102362,
                    "duration": 0.13580242499999995
                },
                {
                    "name": "B3",
                    "midi": 59,
                    "time": 0.9855963874999998,
                    "velocity": 0.6220472440944882,
                    "duration": 0.13580242500000006
                },
                {
                    "name": "G3",
                    "midi": 55,
                    "time": 1.1152259749999998,
                    "velocity": 0.5669291338582677,
                    "duration": 0.13580242500000006
                },
                {
                    "name": "G#3",
                    "midi": 56,
                    "time": 1.2386827249999999,
                    "velocity": 0.5669291338582677,
                    "duration": 0.13580242500000006
                },
                {
                    "name": "G3",
                    "midi": 55,
                    "time": 1.3611106687499999,
                    "velocity": 0.5511811023622047,
                    "duration": 0.13580242500000006
                },
                {
                    "name": "F3",
                    "midi": 53,
                    "time": 1.477365775,
                    "velocity": 0.6220472440944882,
                    "duration": 0.13580242500000006
                },
                {
                    "name": "D3",
                    "midi": 50,
                    "time": 1.609052975,
                    "velocity": 0.5590551181102362,
                    "duration": 0.13580242500000006
                },
                {
                    "name": "D#3",
                    "midi": 51,
                    "time": 1.7304521125,
                    "velocity": 0.5590551181102362,
                    "duration": 0.13580242499999984
                },
                {
                    "name": "D3",
                    "midi": 50,
                    "time": 1.85185125,
                    "velocity": 0.5354330708661418,
                    "duration": 0.13580242499999984
                },
                {
                    "name": "B2",
                    "midi": 47,
                    "time": 1.9732503874999998,
                    "velocity": 0.6220472440944882,
                    "duration": 0.13580242499999962
                },
                {
                    "name": "G2",
                    "midi": 43,
                    "time": 2.0936207187499996,
                    "velocity": 0.5590551181102362,
                    "duration": 0.13580242499999962
                },
                {
                    "name": "G#2",
                    "midi": 44,
                    "time": 2.2181062749999993,
                    "velocity": 0.5590551181102362,
                    "duration": 0.13580242499999962
                },
                {
                    "name": "G2",
                    "midi": 43,
                    "time": 2.344649443749999,
                    "velocity": 0.5433070866141733,
                    "duration": 0.13580242500000006
                },
                {
                    "name": "F2",
                    "midi": 41,
                    "time": 2.465019774999999,
                    "velocity": 0.6220472440944882,
                    "duration": 0.13580242500000006
                },
                {
                    "name": "D2",
                    "midi": 38,
                    "time": 2.588476524999999,
                    "velocity": 0.5590551181102362,
                    "duration": 0.1358024250000005
                },
                {
                    "name": "D#2",
                    "midi": 39,
                    "time": 2.7211925312499994,
                    "velocity": 0.5590551181102362,
                    "duration": 0.13580242500000006
                },
                {
                    "name": "D2",
                    "midi": 38,
                    "time": 2.8384764437499994,
                    "velocity": 0.5354330708661418,
                    "duration": 0.13580242500000006
                },
                {
                    "name": "C2",
                    "midi": 36,
                    "time": 2.9588467749999996,
                    "velocity": 0.5984251968503937,
                    "duration": 0.1625513875000002
                },
                {
                    "name": "G1",
                    "midi": 31,
                    "time": 3.0812747187499996,
                    "velocity": 0.5433070866141733,
                    "duration": 0.1625513875000002
                },
                {
                    "name": "C2",
                    "midi": 36,
                    "time": 3.20473146875,
                    "velocity": 0.5511811023622047,
                    "duration": 0.16255138749999976
                },
                {
                    "name": "G1",
                    "midi": 31,
                    "time": 3.33230344375,
                    "velocity": 0.5354330708661418,
                    "duration": 0.16255138749999976
                },
                {
                    "name": "C2",
                    "midi": 36,
                    "time": 3.4567889999999997,
                    "velocity": 0.5826771653543307,
                    "duration": 0.16255138749999976
                },
                {
                    "name": "G1",
                    "midi": 31,
                    "time": 3.5812745562499995,
                    "velocity": 0.5590551181102362,
                    "duration": 0.16255138749999976
                },
                {
                    "name": "C2",
                    "midi": 36,
                    "time": 3.7047313062499994,
                    "velocity": 0.5905511811023622,
                    "duration": 0.16255138749999976
                },
                {
                    "name": "G1",
                    "midi": 31,
                    "time": 3.8281880562499992,
                    "velocity": 0.5826771653543307,
                    "duration": 0.13580242500000006
                },
                {
                    "name": "B1",
                    "midi": 35,
                    "time": 3.946500774999999,
                    "velocity": 0.6220472440944882,
                    "duration": 0.12345675000000034
                },
                {
                    "name": "G#4",
                    "midi": 68,
                    "time": 4.1995871125,
                    "velocity": 0.5590551181102362,
                    "duration": 0.1358024250000005
                },
                {
                    "name": "G4",
                    "midi": 67,
                    "time": 4.31995744375,
                    "velocity": 0.5511811023622047,
                    "duration": 0.13580242499999962
                },
                {
                    "name": "F4",
                    "midi": 65,
                    "time": 4.4423853875,
                    "velocity": 0.6220472440944882,
                    "duration": 0.13580242499999962
                },
                {
                    "name": "D4",
                    "midi": 62,
                    "time": 4.562755718749999,
                    "velocity": 0.5669291338582677,
                    "duration": 0.1358024250000005
                },
                {
                    "name": "D#4",
                    "midi": 63,
                    "time": 4.692385306249999,
                    "velocity": 0.5669291338582677,
                    "duration": 0.1358024250000005
                },
                {
                    "name": "D4",
                    "midi": 62,
                    "time": 4.81789966875,
                    "velocity": 0.5511811023622047,
                    "duration": 0.13580242499999962
                },
                {
                    "name": "B3",
                    "midi": 59,
                    "time": 4.94135641875,
                    "velocity": 0.6220472440944882,
                    "duration": 0.13580242499999962
                },
                {
                    "name": "G3",
                    "midi": 55,
                    "time": 5.061726749999999,
                    "velocity": 0.5590551181102362,
                    "duration": 0.1358024250000005
                },
                {
                    "name": "G#3",
                    "midi": 56,
                    "time": 5.183125887499999,
                    "velocity": 0.5590551181102362,
                    "duration": 0.1358024250000005
                },
                {
                    "name": "G3",
                    "midi": 55,
                    "time": 5.3127554749999994,
                    "velocity": 0.5354330708661418,
                    "duration": 0.1358024250000005
                },
                {
                    "name": "F3",
                    "midi": 53,
                    "time": 5.4341546124999995,
                    "velocity": 0.6220472440944882,
                    "duration": 0.1358024250000005
                },
                {
                    "name": "D3",
                    "midi": 50,
                    "time": 5.56069778125,
                    "velocity": 0.5669291338582677,
                    "duration": 0.13580242499999962
                },
                {
                    "name": "D#3",
                    "midi": 51,
                    "time": 5.68415453125,
                    "velocity": 0.5669291338582677,
                    "duration": 0.13580242499999962
                },
                {
                    "name": "D3",
                    "midi": 50,
                    "time": 5.802467249999999,
                    "velocity": 0.5511811023622047,
                    "duration": 0.1358024250000005
                },
                {
                    "name": "B2",
                    "midi": 47,
                    "time": 5.921808775,
                    "velocity": 0.6220472440944882,
                    "duration": 0.1358024250000005
                },
                {
                    "name": "G2",
                    "midi": 43,
                    "time": 6.04938075,
                    "velocity": 0.5590551181102362,
                    "duration": 0.1358024250000005
                },
                {
                    "name": "G#2",
                    "midi": 44,
                    "time": 6.16975108125,
                    "velocity": 0.5590551181102362,
                    "duration": 0.1358024250000005
                },
                {
                    "name": "G2",
                    "midi": 43,
                    "time": 6.300409475,
                    "velocity": 0.5511811023622047,
                    "duration": 0.1358024250000005
                },
                {
                    "name": "F2",
                    "midi": 41,
                    "time": 6.416664581250001,
                    "velocity": 0.6220472440944882,
                    "duration": 0.1358024250000005
                },
                {
                    "name": "D2",
                    "midi": 38,
                    "time": 6.546294168750001,
                    "velocity": 0.5590551181102362,
                    "duration": 0.1358024250000005
                },
                {
                    "name": "D#2",
                    "midi": 39,
                    "time": 6.670779725000002,
                    "velocity": 0.5590551181102362,
                    "duration": 0.13580242499999962
                },
                {
                    "name": "D2",
                    "midi": 38,
                    "time": 6.795265281250002,
                    "velocity": 0.5433070866141733,
                    "duration": 0.13580242499999962
                },
                {
                    "name": "C2",
                    "midi": 36,
                    "time": 6.9187220312500015,
                    "velocity": 0.6220472440944882,
                    "duration": 0.16255138749999976
                },
                {
                    "name": "G1",
                    "midi": 31,
                    "time": 7.038063556250001,
                    "velocity": 0.5669291338582677,
                    "duration": 0.16255138749999976
                },
                {
                    "name": "C2",
                    "midi": 36,
                    "time": 7.159462693750001,
                    "velocity": 0.5748031496062992,
                    "duration": 0.16255138750000064
                },
                {
                    "name": "G1",
                    "midi": 31,
                    "time": 7.280861831250001,
                    "velocity": 0.5748031496062992,
                    "duration": 0.16255138750000064
                },
                {
                    "name": "C2",
                    "midi": 36,
                    "time": 7.405347387500002,
                    "velocity": 0.5984251968503937,
                    "duration": 0.16255138749999976
                },
                {
                    "name": "G1",
                    "midi": 31,
                    "time": 7.534976975000002,
                    "velocity": 0.5984251968503937,
                    "duration": 0.16255138749999976
                },
                {
                    "name": "C2",
                    "midi": 36,
                    "time": 7.649174468750002,
                    "velocity": 0.6220472440944882,
                    "duration": 0.16255138749999976
                },
                {
                    "name": "G1",
                    "midi": 31,
                    "time": 7.776746443750001,
                    "velocity": 0.5984251968503937,
                    "duration": 0.1358024250000005
                },
                {
                    "name": "B1",
                    "midi": 35,
                    "time": 7.8971167750000015,
                    "velocity": 0.6220472440944882,
                    "duration": 0.12345674999999989
                },
                {
                    "name": "G#5",
                    "midi": 80,
                    "time": 8.150203112500002,
                    "velocity": 0.6220472440944882,
                    "duration": 0.1358024250000014
                },
                {
                    "name": "G5",
                    "midi": 79,
                    "time": 8.274688668750002,
                    "velocity": 0.5590551181102362,
                    "duration": 0.1358024250000014
                },
                {
                    "name": "F5",
                    "midi": 77,
                    "time": 8.397116612500003,
                    "velocity": 0.6220472440944882,
                    "duration": 0.1358024250000014
                },
                {
                    "name": "D5",
                    "midi": 74,
                    "time": 8.518515750000004,
                    "velocity": 0.5590551181102362,
                    "duration": 0.1358024250000014
                },
                {
                    "name": "D#5",
                    "midi": 75,
                    "time": 8.637857275000005,
                    "velocity": 0.5590551181102362,
                    "duration": 0.13580242499999962
                },
                {
                    "name": "D5",
                    "midi": 74,
                    "time": 8.764400443750006,
                    "velocity": 0.5511811023622047,
                    "duration": 0.13580242499999784
                },
                {
                    "name": "B4",
                    "midi": 71,
                    "time": 8.893001225000004,
                    "velocity": 0.6220472440944882,
                    "duration": 0.13580242499999962
                },
                {
                    "name": "G4",
                    "midi": 67,
                    "time": 9.007198718750004,
                    "velocity": 0.5511811023622047,
                    "duration": 0.13580242499999962
                },
                {
                    "name": "G#4",
                    "midi": 68,
                    "time": 9.135799500000005,
                    "velocity": 0.5511811023622047,
                    "duration": 0.13580242499999962
                },
                {
                    "name": "G4",
                    "midi": 67,
                    "time": 9.261313862500003,
                    "velocity": 0.5433070866141733,
                    "duration": 0.1358024250000014
                },
                {
                    "name": "F4",
                    "midi": 65,
                    "time": 9.381684193750004,
                    "velocity": 0.6220472440944882,
                    "duration": 0.1358024250000014
                },
                {
                    "name": "D4",
                    "midi": 62,
                    "time": 9.502054525000005,
                    "velocity": 0.5590551181102362,
                    "duration": 0.13580242499999962
                },
                {
                    "name": "D#4",
                    "midi": 63,
                    "time": 9.634770531250005,
                    "velocity": 0.5590551181102362,
                    "duration": 0.13580242499999962
                },
                {
                    "name": "D4",
                    "midi": 62,
                    "time": 9.758227281250004,
                    "velocity": 0.5433070866141733,
                    "duration": 0.1358024250000014
                },
                {
                    "name": "B3",
                    "midi": 59,
                    "time": 9.877568806250006,
                    "velocity": 0.6220472440944882,
                    "duration": 0.1358024250000014
                },
                {
                    "name": "G3",
                    "midi": 55,
                    "time": 9.997939137500007,
                    "velocity": 0.5590551181102362,
                    "duration": 0.1358024250000014
                },
                {
                    "name": "G#3",
                    "midi": 56,
                    "time": 10.123453500000007,
                    "velocity": 0.5590551181102362,
                    "duration": 0.1358024250000014
                },
                {
                    "name": "G3",
                    "midi": 55,
                    "time": 10.245881443750008,
                    "velocity": 0.5433070866141733,
                    "duration": 0.13580242499999962
                },
                {
                    "name": "F3",
                    "midi": 53,
                    "time": 10.374482225000008,
                    "velocity": 0.6220472440944882,
                    "duration": 0.13580242499999962
                },
                {
                    "name": "D3",
                    "midi": 50,
                    "time": 10.491766137500008,
                    "velocity": 0.5590551181102362,
                    "duration": 0.1358024250000014
                },
                {
                    "name": "D#3",
                    "midi": 51,
                    "time": 10.617280500000009,
                    "velocity": 0.5590551181102362,
                    "duration": 0.1358024250000014
                },
                {
                    "name": "D3",
                    "midi": 50,
                    "time": 10.73765083125001,
                    "velocity": 0.5433070866141733,
                    "duration": 0.13580242499999962
                },
                {
                    "name": "B2",
                    "midi": 47,
                    "time": 10.86933803125001,
                    "velocity": 0.6220472440944882,
                    "duration": 0.13580242499999962
                },
                {
                    "name": "G2",
                    "midi": 43,
                    "time": 10.98559313750001,
                    "velocity": 0.5590551181102362,
                    "duration": 0.13580242499999962
                },
                {
                    "name": "G#2",
                    "midi": 44,
                    "time": 11.11419391875001,
                    "velocity": 0.5590551181102362,
                    "duration": 0.13580242499999962
                },
                {
                    "name": "G2",
                    "midi": 43,
                    "time": 11.235593056250009,
                    "velocity": 0.5433070866141733,
                    "duration": 0.1358024250000014
                },
                {
                    "name": "F2",
                    "midi": 41,
                    "time": 11.35493458125001,
                    "velocity": 0.6220472440944882,
                    "duration": 0.13580242499999962
                },
                {
                    "name": "D2",
                    "midi": 38,
                    "time": 11.48456416875001,
                    "velocity": 0.5590551181102362,
                    "duration": 0.13580242499999962
                },
                {
                    "name": "D#2",
                    "midi": 39,
                    "time": 11.609049725000009,
                    "velocity": 0.5590551181102362,
                    "duration": 0.1358024250000014
                },
                {
                    "name": "D2",
                    "midi": 38,
                    "time": 11.72736244375001,
                    "velocity": 0.5511811023622047,
                    "duration": 0.1358024250000014
                },
                {
                    "name": "C2",
                    "midi": 36,
                    "time": 11.851848000000011,
                    "velocity": 0.4881889763779528,
                    "duration": 0.12345675000000078
                },
                {
                    "name": "B1",
                    "midi": 35,
                    "time": 11.979419975000011,
                    "velocity": 0.4881889763779528,
                    "duration": 0.123456749999999
                },
                {
                    "name": "G2",
                    "midi": 43,
                    "time": 12.093617468750011,
                    "velocity": 0.5275590551181102,
                    "duration": 0.123456749999999
                },
                {
                    "name": "F2",
                    "midi": 41,
                    "time": 12.227362281250011,
                    "velocity": 0.5196850393700787,
                    "duration": 0.13580242499999962
                },
                {
                    "name": "D#2",
                    "midi": 39,
                    "time": 12.34670380625001,
                    "velocity": 0.5118110236220472,
                    "duration": 0.13580242499999962
                },
                {
                    "name": "D2",
                    "midi": 38,
                    "time": 12.46398771875001,
                    "velocity": 0.5118110236220472,
                    "duration": 0.13580242499999962
                },
                {
                    "name": "D#2",
                    "midi": 39,
                    "time": 12.59258850000001,
                    "velocity": 0.5039370078740157,
                    "duration": 0.13580242499999962
                },
                {
                    "name": "D2",
                    "midi": 38,
                    "time": 12.71295883125001,
                    "velocity": 0.49606299212598426,
                    "duration": 0.13580242499999962
                },
                {
                    "name": "C2",
                    "midi": 36,
                    "time": 12.84361722500001,
                    "velocity": 0.49606299212598426,
                    "duration": 0.13580242499999962
                },
                {
                    "name": "B1",
                    "midi": 35,
                    "time": 12.963987556250009,
                    "velocity": 0.4881889763779528,
                    "duration": 0.12345675000000078
                },
                {
                    "name": "A#2",
                    "midi": 46,
                    "time": 13.08847311250001,
                    "velocity": 0.5511811023622047,
                    "duration": 0.13580242499999962
                },
                {
                    "name": "G#2",
                    "midi": 44,
                    "time": 13.20678583125001,
                    "velocity": 0.5354330708661418,
                    "duration": 0.13580242499999962
                },
                {
                    "name": "G2",
                    "midi": 43,
                    "time": 13.33744422500001,
                    "velocity": 0.5433070866141733,
                    "duration": 0.13580242499999962
                },
                {
                    "name": "F2",
                    "midi": 41,
                    "time": 13.45267052500001,
                    "velocity": 0.5433070866141733,
                    "duration": 0.13580242499999962
                },
                {
                    "name": "G2",
                    "midi": 43,
                    "time": 13.576127275000008,
                    "velocity": 0.5354330708661418,
                    "duration": 0.13580242499999962
                },
                {
                    "name": "F2",
                    "midi": 41,
                    "time": 13.706785668750008,
                    "velocity": 0.5354330708661418,
                    "duration": 0.13580242499999962
                },
                {
                    "name": "D#2",
                    "midi": 39,
                    "time": 13.825098387500008,
                    "velocity": 0.5275590551181102,
                    "duration": 0.13580242499999962
                },
                {
                    "name": "D2",
                    "midi": 38,
                    "time": 13.955756781250008,
                    "velocity": 0.5275590551181102,
                    "duration": 0.123456749999999
                },
                {
                    "name": "D#3",
                    "midi": 51,
                    "time": 14.072011887500008,
                    "velocity": 0.5984251968503937,
                    "duration": 0.13580242499999962
                },
                {
                    "name": "D3",
                    "midi": 50,
                    "time": 14.195468637500007,
                    "velocity": 0.5748031496062992,
                    "duration": 0.1358024250000014
                },
                {
                    "name": "C3",
                    "midi": 48,
                    "time": 14.316867775000008,
                    "velocity": 0.5826771653543307,
                    "duration": 0.13580242499999962
                },
                {
                    "name": "B2",
                    "midi": 47,
                    "time": 14.447526168750008,
                    "velocity": 0.5905511811023622,
                    "duration": 0.13580242499999962
                },
                {
                    "name": "C3",
                    "midi": 48,
                    "time": 14.572011725000007,
                    "velocity": 0.5984251968503937,
                    "duration": 0.1358024250000014
                },
                {
                    "name": "B2",
                    "midi": 47,
                    "time": 14.693410862500007,
                    "velocity": 0.6062992125984252,
                    "duration": 0.1358024250000014
                },
                {
                    "name": "G#2",
                    "midi": 44,
                    "time": 14.815838806250008,
                    "velocity": 0.6220472440944882,
                    "duration": 0.1358024250000014
                },
                {
                    "name": "G2",
                    "midi": 43,
                    "time": 14.941353168750009,
                    "velocity": 0.6299212598425197,
                    "duration": 0.1358024250000014
                },
                {
                    "name": "G#2",
                    "midi": 44,
                    "time": 15.05863708125001,
                    "velocity": 0.6377952755905512,
                    "duration": 0.1358024250000014
                },
                {
                    "name": "G2",
                    "midi": 43,
                    "time": 15.181065025000011,
                    "velocity": 0.6535433070866141,
                    "duration": 0.1358024250000014
                },
                {
                    "name": "F2",
                    "midi": 41,
                    "time": 15.303492968750012,
                    "velocity": 0.6535433070866141,
                    "duration": 0.1358024250000014
                },
                {
                    "name": "D#2",
                    "midi": 39,
                    "time": 15.426949718750013,
                    "velocity": 0.6692913385826772,
                    "duration": 0.13580242499999962
                },
                {
                    "name": "F2",
                    "midi": 41,
                    "time": 15.558636918750013,
                    "velocity": 0.6929133858267716,
                    "duration": 0.13580242499999962
                },
                {
                    "name": "D#2",
                    "midi": 39,
                    "time": 15.683122475000012,
                    "velocity": 0.7086614173228346,
                    "duration": 0.13580242499999962
                },
                {
                    "name": "C2",
                    "midi": 36,
                    "time": 15.798348775000012,
                    "velocity": 0.7244094488188977,
                    "duration": 0.12345675000000078
                },
                {
                    "name": "G2",
                    "midi": 43,
                    "time": 15.926949556250012,
                    "velocity": 0.3858267716535433,
                    "duration": 0.13580242499999784
                },
                {
                    "name": "C3",
                    "midi": 48,
                    "time": 16.04423346875001,
                    "velocity": 0.3937007874015748,
                    "duration": 0.13580242499999784
                },
                {
                    "name": "D3",
                    "midi": 50,
                    "time": 16.16871902500001,
                    "velocity": 0.4094488188976378,
                    "duration": 0.1358024250000014
                },
                {
                    "name": "D#3",
                    "midi": 51,
                    "time": 16.29526219375001,
                    "velocity": 0.4251968503937008,
                    "duration": 0.1358024250000014
                },
                {
                    "name": "G3",
                    "midi": 55,
                    "time": 16.42283416875001,
                    "velocity": 0.4330708661417323,
                    "duration": 0.1358024250000014
                },
                {
                    "name": "C4",
                    "midi": 60,
                    "time": 16.545262112500012,
                    "velocity": 0.44881889763779526,
                    "duration": 0.13580242499999784
                },
                {
                    "name": "D4",
                    "midi": 62,
                    "time": 16.66666125000001,
                    "velocity": 0.4645669291338583,
                    "duration": 0.13580242499999784
                },
                {
                    "name": "D#4",
                    "midi": 63,
                    "time": 16.78497396875001,
                    "velocity": 0.47244094488188976,
                    "duration": 0.13580242499999784
                },
                {
                    "name": "D4",
                    "midi": 62,
                    "time": 16.912545943750008,
                    "velocity": 0.4645669291338583,
                    "duration": 0.13580242499999784
                },
                {
                    "name": "C4",
                    "midi": 60,
                    "time": 17.033945081250007,
                    "velocity": 0.44881889763779526,
                    "duration": 0.1358024250000014
                },
                {
                    "name": "G3",
                    "midi": 55,
                    "time": 17.162545862500007,
                    "velocity": 0.44881889763779526,
                    "duration": 0.13580242499999784
                },
                {
                    "name": "D#3",
                    "midi": 51,
                    "time": 17.281887387500007,
                    "velocity": 0.44881889763779526,
                    "duration": 0.13580242499999784
                },
                {
                    "name": "D3",
                    "midi": 50,
                    "time": 17.406372943750004,
                    "velocity": 0.4409448818897638,
                    "duration": 0.13580242499999784
                },
                {
                    "name": "C3",
                    "midi": 48,
                    "time": 17.527772081250003,
                    "velocity": 0.4330708661417323,
                    "duration": 0.13580242499999784
                },
                {
                    "name": "G2",
                    "midi": 43,
                    "time": 17.65534405625,
                    "velocity": 0.4251968503937008,
                    "duration": 0.13580242499999784
                },
                {
                    "name": "C2",
                    "midi": 36,
                    "time": 17.777772,
                    "velocity": 0.4409448818897638,
                    "duration": 0.1358024250000014
                },
                {
                    "name": "G2",
                    "midi": 43,
                    "time": 17.90225755625,
                    "velocity": 0.4645669291338583,
                    "duration": 0.1358024250000014
                },
                {
                    "name": "C3",
                    "midi": 48,
                    "time": 18.020570275,
                    "velocity": 0.4881889763779528,
                    "duration": 0.13580242499999784
                },
                {
                    "name": "D3",
                    "midi": 50,
                    "time": 18.14814225,
                    "velocity": 0.49606299212598426,
                    "duration": 0.1358024250000014
                },
                {
                    "name": "D#3",
                    "midi": 51,
                    "time": 18.27674303125,
                    "velocity": 0.5354330708661418,
                    "duration": 0.1358024250000014
                },
                {
                    "name": "D3",
                    "midi": 50,
                    "time": 18.3971133625,
                    "velocity": 0.5196850393700787,
                    "duration": 0.1358024250000014
                },
                {
                    "name": "C3",
                    "midi": 48,
                    "time": 18.52365653125,
                    "velocity": 0.49606299212598426,
                    "duration": 0.1358024250000014
                },
                {
                    "name": "G2",
                    "midi": 43,
                    "time": 18.63888283125,
                    "velocity": 0.4645669291338583,
                    "duration": 0.12345675000000256
                },
                {
                    "name": "C2",
                    "midi": 36,
                    "time": 18.763368387500005,
                    "velocity": 0.4409448818897638,
                    "duration": 0.13580242499999784
                },
                {
                    "name": "G2",
                    "midi": 43,
                    "time": 18.884767525000004,
                    "velocity": 0.4645669291338583,
                    "duration": 0.1358024250000014
                },
                {
                    "name": "C3",
                    "midi": 48,
                    "time": 19.017483531250004,
                    "velocity": 0.49606299212598426,
                    "duration": 0.1358024250000014
                },
                {
                    "name": "D3",
                    "midi": 50,
                    "time": 19.135796250000006,
                    "velocity": 0.5118110236220472,
                    "duration": 0.1358024250000014
                },
                {
                    "name": "D#3",
                    "midi": 51,
                    "time": 19.264397031250006,
                    "velocity": 0.5275590551181102,
                    "duration": 0.1358024250000014
                },
                {
                    "name": "D3",
                    "midi": 50,
                    "time": 19.378594525000008,
                    "velocity": 0.5118110236220472,
                    "duration": 0.1358024250000014
                },
                {
                    "name": "C3",
                    "midi": 48,
                    "time": 19.507195306250008,
                    "velocity": 0.49606299212598426,
                    "duration": 0.1358024250000014
                },
                {
                    "name": "G2",
                    "midi": 43,
                    "time": 19.62550802500001,
                    "velocity": 0.48031496062992124,
                    "duration": 0.12345675000000256
                },
                {
                    "name": "C2",
                    "midi": 36,
                    "time": 19.752051193750013,
                    "velocity": 0.4645669291338583,
                    "duration": 0.1358024250000014
                },
                {
                    "name": "G2",
                    "midi": 43,
                    "time": 19.881680781250015,
                    "velocity": 0.36220472440944884,
                    "duration": 0.1358024250000014
                },
                {
                    "name": "C3",
                    "midi": 48,
                    "time": 19.994849468750015,
                    "velocity": 0.3700787401574803,
                    "duration": 0.1358024250000014
                },
                {
                    "name": "D3",
                    "midi": 50,
                    "time": 20.127565475000015,
                    "velocity": 0.3858267716535433,
                    "duration": 0.1358024250000014
                },
                {
                    "name": "D#3",
                    "midi": 51,
                    "time": 20.244849387500018,
                    "velocity": 0.4015748031496063,
                    "duration": 0.13580242499999784
                },
                {
                    "name": "G3",
                    "midi": 55,
                    "time": 20.367277331250015,
                    "velocity": 0.4094488188976378,
                    "duration": 0.1358024250000014
                },
                {
                    "name": "C4",
                    "midi": 60,
                    "time": 20.496906918750017,
                    "velocity": 0.4251968503937008,
                    "duration": 0.13580242499999784
                },
                {
                    "name": "D4",
                    "midi": 62,
                    "time": 20.616248443750017,
                    "velocity": 0.4330708661417323,
                    "duration": 0.1358024250000014
                },
                {
                    "name": "D#4",
                    "midi": 63,
                    "time": 20.737647581250016,
                    "velocity": 0.44881889763779526,
                    "duration": 0.1358024250000014
                },
                {
                    "name": "D4",
                    "midi": 62,
                    "time": 20.86521955625002,
                    "velocity": 0.4330708661417323,
                    "duration": 0.13580242499999784
                },
                {
                    "name": "C4",
                    "midi": 60,
                    "time": 20.988676306250017,
                    "velocity": 0.4251968503937008,
                    "duration": 0.13580242499999784
                },
                {
                    "name": "G3",
                    "midi": 55,
                    "time": 21.110075443750016,
                    "velocity": 0.4094488188976378,
                    "duration": 0.13580242499999784
                },
                {
                    "name": "D#3",
                    "midi": 51,
                    "time": 21.234561000000014,
                    "velocity": 0.3937007874015748,
                    "duration": 0.1358024250000014
                },
                {
                    "name": "D3",
                    "midi": 50,
                    "time": 21.359046556250014,
                    "velocity": 0.3858267716535433,
                    "duration": 0.13580242499999784
                },
                {
                    "name": "C3",
                    "midi": 48,
                    "time": 21.482503306250013,
                    "velocity": 0.3700787401574803,
                    "duration": 0.1358024250000014
                },
                {
                    "name": "G2",
                    "midi": 43,
                    "time": 21.609046475000014,
                    "velocity": 0.33858267716535434,
                    "duration": 0.12345675000000256
                },
                {
                    "name": "C2",
                    "midi": 36,
                    "time": 21.732503225000016,
                    "velocity": 0.25984251968503935,
                    "duration": 0.1358024250000014
                },
                {
                    "name": "G2",
                    "midi": 43,
                    "time": 21.852873556250017,
                    "velocity": 0.28346456692913385,
                    "duration": 0.1358024250000014
                },
                {
                    "name": "C3",
                    "midi": 48,
                    "time": 21.977359112500018,
                    "velocity": 0.30708661417322836,
                    "duration": 0.1358024250000014
                },
                {
                    "name": "D3",
                    "midi": 50,
                    "time": 22.09978705625002,
                    "velocity": 0.31496062992125984,
                    "duration": 0.13580242499999784
                },
                {
                    "name": "D#3",
                    "midi": 51,
                    "time": 22.221186193750018,
                    "velocity": 0.3543307086614173,
                    "duration": 0.13580242499999784
                },
                {
                    "name": "D3",
                    "midi": 50,
                    "time": 22.342585331250017,
                    "velocity": 0.36220472440944884,
                    "duration": 0.13580242499999784
                },
                {
                    "name": "C3",
                    "midi": 48,
                    "time": 22.472214918750016,
                    "velocity": 0.3543307086614173,
                    "duration": 0.13580242499999784
                },
                {
                    "name": "G2",
                    "midi": 43,
                    "time": 22.593614056250015,
                    "velocity": 0.33858267716535434,
                    "duration": 0.123456749999999
                },
                {
                    "name": "C2",
                    "midi": 36,
                    "time": 22.720157225000015,
                    "velocity": 0.31496062992125984,
                    "duration": 0.1358024250000014
                },
                {
                    "name": "G2",
                    "midi": 43,
                    "time": 22.836412331250017,
                    "velocity": 0.3543307086614173,
                    "duration": 0.13580242499999784
                },
                {
                    "name": "C3",
                    "midi": 48,
                    "time": 22.959869081250016,
                    "velocity": 0.3937007874015748,
                    "duration": 0.13580242499999784
                },
                {
                    "name": "D3",
                    "midi": 50,
                    "time": 23.087441056250015,
                    "velocity": 0.4251968503937008,
                    "duration": 0.1358024250000014
                },
                {
                    "name": "D#3",
                    "midi": 51,
                    "time": 23.211926612500015,
                    "velocity": 0.4645669291338583,
                    "duration": 0.1358024250000014
                },
                {
                    "name": "D3",
                    "midi": 50,
                    "time": 23.334354556250016,
                    "velocity": 0.44881889763779526,
                    "duration": 0.1358024250000014
                },
                {
                    "name": "C3",
                    "midi": 48,
                    "time": 23.454724887500017,
                    "velocity": 0.44881889763779526,
                    "duration": 0.13580242499999784
                },
                {
                    "name": "G2",
                    "midi": 43,
                    "time": 23.580239250000016,
                    "velocity": 0.4330708661417323,
                    "duration": 0.123456749999999
                },
                {
                    "name": "C2",
                    "midi": 36,
                    "time": 23.698551968750014,
                    "velocity": 0.41732283464566927,
                    "duration": 0.1358024250000014
                },
                {
                    "name": "G2",
                    "midi": 43,
                    "time": 23.830239168750015,
                    "velocity": 0.4015748031496063,
                    "duration": 0.13580242499999784
                },
                {
                    "name": "C3",
                    "midi": 48,
                    "time": 23.951638306250015,
                    "velocity": 0.41732283464566927,
                    "duration": 0.13580242499999784
                },
                {
                    "name": "D3",
                    "midi": 50,
                    "time": 24.075095056250014,
                    "velocity": 0.4251968503937008,
                    "duration": 0.13580242499999784
                },
                {
                    "name": "D#3",
                    "midi": 51,
                    "time": 24.19958061250001,
                    "velocity": 0.4409448818897638,
                    "duration": 0.1358024250000014
                },
                {
                    "name": "G3",
                    "midi": 55,
                    "time": 24.32406616875001,
                    "velocity": 0.44881889763779526,
                    "duration": 0.1358024250000014
                },
                {
                    "name": "C4",
                    "midi": 60,
                    "time": 24.440321275000013,
                    "velocity": 0.47244094488188976,
                    "duration": 0.1358024250000014
                },
                {
                    "name": "D4",
                    "midi": 62,
                    "time": 24.568922056250013,
                    "velocity": 0.4881889763779528,
                    "duration": 0.1358024250000014
                },
                {
                    "name": "D#4",
                    "midi": 63,
                    "time": 24.695465225000014,
                    "velocity": 0.5039370078740157,
                    "duration": 0.1358024250000014
                },
                {
                    "name": "D4",
                    "midi": 62,
                    "time": 24.819950781250014,
                    "velocity": 0.48031496062992124,
                    "duration": 0.13580242499999784
                },
                {
                    "name": "C4",
                    "midi": 60,
                    "time": 24.939292306250014,
                    "velocity": 0.4645669291338583,
                    "duration": 0.13580242499999784
                },
                {
                    "name": "G3",
                    "midi": 55,
                    "time": 25.064806668750013,
                    "velocity": 0.44881889763779526,
                    "duration": 0.1358024250000014
                },
                {
                    "name": "D#3",
                    "midi": 51,
                    "time": 25.180032968750012,
                    "velocity": 0.4330708661417323,
                    "duration": 0.1358024250000014
                },
                {
                    "name": "D3",
                    "midi": 50,
                    "time": 25.310691362500013,
                    "velocity": 0.4094488188976378,
                    "duration": 0.1358024250000014
                },
                {
                    "name": "C3",
                    "midi": 48,
                    "time": 25.437234531250013,
                    "velocity": 0.3937007874015748,
                    "duration": 0.1358024250000014
                },
                {
                    "name": "G2",
                    "midi": 43,
                    "time": 25.553489637500014,
                    "velocity": 0.3779527559055118,
                    "duration": 0.123456749999999
                },
                {
                    "name": "C2",
                    "midi": 36,
                    "time": 25.680032806250015,
                    "velocity": 0.6062992125984252,
                    "duration": 0.1358024250000014
                },
                {
                    "name": "F#2",
                    "midi": 42,
                    "time": 25.800403137500016,
                    "velocity": 0.41732283464566927,
                    "duration": 0.13580242499999784
                },
                {
                    "name": "C3",
                    "midi": 48,
                    "time": 25.921802275000015,
                    "velocity": 0.4409448818897638,
                    "duration": 0.13580242499999784
                },
                {
                    "name": "D3",
                    "midi": 50,
                    "time": 26.045259025000014,
                    "velocity": 0.4251968503937008,
                    "duration": 0.13580242499999784
                },
                {
                    "name": "D#3",
                    "midi": 51,
                    "time": 26.176946225000012,
                    "velocity": 0.4409448818897638,
                    "duration": 0.1358024250000014
                },
                {
                    "name": "D3",
                    "midi": 50,
                    "time": 26.300402975000015,
                    "velocity": 0.44881889763779526,
                    "duration": 0.13580242499999784
                },
                {
                    "name": "C3",
                    "midi": 48,
                    "time": 26.422830918750012,
                    "velocity": 0.44881889763779526,
                    "duration": 0.1358024250000014
                },
                {
                    "name": "F#2",
                    "midi": 42,
                    "time": 26.539086025000014,
                    "velocity": 0.4645669291338583,
                    "duration": 0.123456749999999
                },
                {
                    "name": "C2",
                    "midi": 36,
                    "time": 26.664600387500013,
                    "velocity": 0.6062992125984252,
                    "duration": 0.1358024250000014
                },
                {
                    "name": "F#2",
                    "midi": 42,
                    "time": 26.784970718750014,
                    "velocity": 0.4409448818897638,
                    "duration": 0.13580242499999784
                },
                {
                    "name": "C3",
                    "midi": 48,
                    "time": 26.908427468750013,
                    "velocity": 0.4645669291338583,
                    "duration": 0.1358024250000014
                },
                {
                    "name": "D3",
                    "midi": 50,
                    "time": 27.039085862500013,
                    "velocity": 0.44881889763779526,
                    "duration": 0.13580242499999784
                },
                {
                    "name": "D#3",
                    "midi": 51,
                    "time": 27.16460022500001,
                    "velocity": 0.44881889763779526,
                    "duration": 0.13580242499999784
                },
                {
                    "name": "D3",
                    "midi": 50,
                    "time": 27.28394175000001,
                    "velocity": 0.47244094488188976,
                    "duration": 0.13580242499999784
                },
                {
                    "name": "C3",
                    "midi": 48,
                    "time": 27.40636969375001,
                    "velocity": 0.4881889763779528,
                    "duration": 0.13580242499999784
                },
                {
                    "name": "F#2",
                    "midi": 42,
                    "time": 27.529826443750007,
                    "velocity": 0.47244094488188976,
                    "duration": 0.123456749999999
                },
                {
                    "name": "B1",
                    "midi": 35,
                    "time": 27.652254387500005,
                    "velocity": 0.5511811023622047,
                    "duration": 0.1358024250000014
                },
                {
                    "name": "B2",
                    "midi": 47,
                    "time": 27.777768750000007,
                    "velocity": 0.4251968503937008,
                    "duration": 0.13580242499999784
                },
                {
                    "name": "D3",
                    "midi": 50,
                    "time": 27.901225500000006,
                    "velocity": 0.44881889763779526,
                    "duration": 0.13580242499999784
                },
                {
                    "name": "G3",
                    "midi": 55,
                    "time": 28.020567025000005,
                    "velocity": 0.48031496062992124,
                    "duration": 0.13580242499999784
                },
                {
                    "name": "D4",
                    "midi": 62,
                    "time": 28.146081387500004,
                    "velocity": 0.48031496062992124,
                    "duration": 0.1358024250000014
                },
                {
                    "name": "G3",
                    "midi": 55,
                    "time": 28.274682168750005,
                    "velocity": 0.47244094488188976,
                    "duration": 0.1358024250000014
                },
                {
                    "name": "D3",
                    "midi": 50,
                    "time": 28.392994887500006,
                    "velocity": 0.4645669291338583,
                    "duration": 0.13580242499999784
                },
                {
                    "name": "B2",
                    "midi": 47,
                    "time": 28.522624475000004,
                    "velocity": 0.48031496062992124,
                    "duration": 0.12345674999999545
                },
                {
                    "name": "A#1",
                    "midi": 34,
                    "time": 28.64711003125,
                    "velocity": 0.44881889763779526,
                    "duration": 0.1358024250000014
                },
                {
                    "name": "A#2",
                    "midi": 46,
                    "time": 28.769537975000002,
                    "velocity": 0.4645669291338583,
                    "duration": 0.13580242499999784
                },
                {
                    "name": "C#3",
                    "midi": 49,
                    "time": 28.8909371125,
                    "velocity": 0.4881889763779528,
                    "duration": 0.13580242499999784
                },
                {
                    "name": "G3",
                    "midi": 55,
                    "time": 29.0102786375,
                    "velocity": 0.5039370078740157,
                    "duration": 0.1358024250000014
                },
                {
                    "name": "C#4",
                    "midi": 61,
                    "time": 29.14093703125,
                    "velocity": 0.5275590551181102,
                    "duration": 0.1358024250000014
                },
                {
                    "name": "G3",
                    "midi": 55,
                    "time": 29.255134525000003,
                    "velocity": 0.5118110236220472,
                    "duration": 0.1358024250000014
                },
                {
                    "name": "C#3",
                    "midi": 49,
                    "time": 29.377562468750003,
                    "velocity": 0.5196850393700787,
                    "duration": 0.1358024250000014
                },
                {
                    "name": "A#2",
                    "midi": 46,
                    "time": 29.509249668750005,
                    "velocity": 0.5118110236220472,
                    "duration": 0.123456749999999
                },
                {
                    "name": "A1",
                    "midi": 33,
                    "time": 29.629620000000003,
                    "velocity": 0.47244094488188976,
                    "duration": 0.1358024250000014
                },
                {
                    "name": "A2",
                    "midi": 45,
                    "time": 29.754105556250003,
                    "velocity": 0.4881889763779528,
                    "duration": 0.1358024250000014
                },
                {
                    "name": "C3",
                    "midi": 48,
                    "time": 29.881677531250006,
                    "velocity": 0.49606299212598426,
                    "duration": 0.1358024250000014
                },
                {
                    "name": "F3",
                    "midi": 53,
                    "time": 29.994846218750006,
                    "velocity": 0.5118110236220472,
                    "duration": 0.1358024250000014
                },
                {
                    "name": "C4",
                    "midi": 60,
                    "time": 30.127562225000005,
                    "velocity": 0.5275590551181102,
                    "duration": 0.1358024250000014
                },
                {
                    "name": "F3",
                    "midi": 53,
                    "time": 30.248961362500008,
                    "velocity": 0.47244094488188976,
                    "duration": 0.13580242499999784
                },
                {
                    "name": "C3",
                    "midi": 48,
                    "time": 30.368302887500008,
                    "velocity": 0.4881889763779528,
                    "duration": 0.13580242499999784
                },
                {
                    "name": "A2",
                    "midi": 45,
                    "time": 30.489702025000007,
                    "velocity": 0.47244094488188976,
                    "duration": 0.123456749999999
                },
                {
                    "name": "G#1",
                    "midi": 32,
                    "time": 30.617274000000005,
                    "velocity": 0.44881889763779526,
                    "duration": 0.1358024250000014
                },
                {
                    "name": "G#2",
                    "midi": 44,
                    "time": 30.737644331250007,
                    "velocity": 0.4645669291338583,
                    "duration": 0.1358024250000014
                },
                {
                    "name": "C3",
                    "midi": 48,
                    "time": 30.862129887500007,
                    "velocity": 0.4645669291338583,
                    "duration": 0.1358024250000014
                },
                {
                    "name": "F3",
                    "midi": 53,
                    "time": 30.992788281250007,
                    "velocity": 0.4409448818897638,
                    "duration": 0.1358024250000014
                },
                {
                    "name": "C4",
                    "midi": 60,
                    "time": 31.11212980625001,
                    "velocity": 0.48031496062992124,
                    "duration": 0.13580242499999784
                },
                {
                    "name": "F3",
                    "midi": 53,
                    "time": 31.236615362500007,
                    "velocity": 0.44881889763779526,
                    "duration": 0.13580242499999784
                },
                {
                    "name": "C3",
                    "midi": 48,
                    "time": 31.353899275000007,
                    "velocity": 0.4330708661417323,
                    "duration": 0.13580242499999784
                },
                {
                    "name": "G#2",
                    "midi": 44,
                    "time": 31.481471250000006,
                    "velocity": 0.4015748031496063,
                    "duration": 0.12345675000000256
                },
                {
                    "name": "G1",
                    "midi": 31,
                    "time": 31.603899193750006,
                    "velocity": 0.3700787401574803,
                    "duration": 0.1358024250000014
                },
                {
                    "name": "G2",
                    "midi": 43,
                    "time": 31.728384750000007,
                    "velocity": 0.3700787401574803,
                    "duration": 0.1358024250000014
                },
                {
                    "name": "C3",
                    "midi": 48,
                    "time": 31.854927918750008,
                    "velocity": 0.3779527559055118,
                    "duration": 0.1358024250000014
                },
                {
                    "name": "B2",
                    "midi": 47,
                    "time": 31.97529825000001,
                    "velocity": 0.3700787401574803,
                    "duration": 0.1358024249999943
                },
                {
                    "name": "C#3",
                    "midi": 49,
                    "time": 32.097726193750006,
                    "velocity": 0.4015748031496063,
                    "duration": 0.1358024249999943
                },
                {
                    "name": "C3",
                    "midi": 48,
                    "time": 32.2242693625,
                    "velocity": 0.41732283464566927,
                    "duration": 0.1358024250000014
                },
                {
                    "name": "D3",
                    "midi": 50,
                    "time": 32.3456685,
                    "velocity": 0.4330708661417323,
                    "duration": 0.1358024250000014
                },
                {
                    "name": "C#3",
                    "midi": 49,
                    "time": 32.47015405625,
                    "velocity": 0.4251968503937008,
                    "duration": 0.1358024250000014
                },
                {
                    "name": "D#3",
                    "midi": 51,
                    "time": 32.59155319375,
                    "velocity": 0.4409448818897638,
                    "duration": 0.1358024250000014
                },
                {
                    "name": "D3",
                    "midi": 50,
                    "time": 32.710894718750005,
                    "velocity": 0.4330708661417323,
                    "duration": 0.1358024249999943
                },
                {
                    "name": "E3",
                    "midi": 52,
                    "time": 32.8415531125,
                    "velocity": 0.44881889763779526,
                    "duration": 0.1358024250000014
                },
                {
                    "name": "D#3",
                    "midi": 51,
                    "time": 32.958837025,
                    "velocity": 0.44881889763779526,
                    "duration": 0.1358024250000014
                },
                {
                    "name": "F3",
                    "midi": 53,
                    "time": 33.08743780625,
                    "velocity": 0.4645669291338583,
                    "duration": 0.1358024250000014
                },
                {
                    "name": "E3",
                    "midi": 52,
                    "time": 33.213980975000005,
                    "velocity": 0.47244094488188976,
                    "duration": 0.1358024249999943
                },
                {
                    "name": "F#3",
                    "midi": 54,
                    "time": 33.3333225,
                    "velocity": 0.44881889763779526,
                    "duration": 0.1358024249999943
                },
                {
                    "name": "F3",
                    "midi": 53,
                    "time": 33.45986566875,
                    "velocity": 0.44881889763779526,
                    "duration": 0.1358024249999943
                },
                {
                    "name": "G3",
                    "midi": 55,
                    "time": 33.58023599999999,
                    "velocity": 0.4251968503937008,
                    "duration": 0.1358024249999943
                },
                {
                    "name": "F#3",
                    "midi": 54,
                    "time": 33.70266394374999,
                    "velocity": 0.4251968503937008,
                    "duration": 0.1358024249999943
                },
                {
                    "name": "G#3",
                    "midi": 56,
                    "time": 33.830235918749985,
                    "velocity": 0.4251968503937008,
                    "duration": 0.1358024250000014
                },
                {
                    "name": "G3",
                    "midi": 55,
                    "time": 33.951635056249984,
                    "velocity": 0.4251968503937008,
                    "duration": 0.1358024250000014
                },
                {
                    "name": "A#3",
                    "midi": 58,
                    "time": 34.072005387499985,
                    "velocity": 0.4251968503937008,
                    "duration": 0.1358024250000014
                },
                {
                    "name": "G#3",
                    "midi": 56,
                    "time": 34.20266378124999,
                    "velocity": 0.4251968503937008,
                    "duration": 0.1358024249999943
                },
                {
                    "name": "G3",
                    "midi": 55,
                    "time": 34.322005306249984,
                    "velocity": 0.4251968503937008,
                    "duration": 0.1358024249999943
                },
                {
                    "name": "F3",
                    "midi": 53,
                    "time": 34.44031802499998,
                    "velocity": 0.4251968503937008,
                    "duration": 0.1358024249999943
                },
                {
                    "name": "D#3",
                    "midi": 51,
                    "time": 34.56686119374998,
                    "velocity": 0.4251968503937008,
                    "duration": 0.1358024249999943
                },
                {
                    "name": "D3",
                    "midi": 50,
                    "time": 34.68723152499997,
                    "velocity": 0.4251968503937008,
                    "duration": 0.1358024250000014
                },
                {
                    "name": "C3",
                    "midi": 48,
                    "time": 34.81788991874998,
                    "velocity": 0.4094488188976378,
                    "duration": 0.1358024250000014
                },
                {
                    "name": "B2",
                    "midi": 47,
                    "time": 34.943404281249975,
                    "velocity": 0.4015748031496063,
                    "duration": 0.1358024250000014
                },
                {
                    "name": "G#2",
                    "midi": 44,
                    "time": 35.06274580624998,
                    "velocity": 0.3700787401574803,
                    "duration": 0.1358024250000014
                },
                {
                    "name": "G2",
                    "midi": 43,
                    "time": 35.18002971874998,
                    "velocity": 0.3464566929133858,
                    "duration": 0.1358024250000014
                },
                {
                    "name": "F2",
                    "midi": 41,
                    "time": 35.30657288749998,
                    "velocity": 0.31496062992125984,
                    "duration": 0.1358024249999943
                },
                {
                    "name": "D2",
                    "midi": 38,
                    "time": 35.426943218749976,
                    "velocity": 0.29133858267716534,
                    "duration": 0.12345675000000256
                },
                {
                    "name": "C2",
                    "midi": 36,
                    "time": 35.55760161249998,
                    "velocity": 0.2440944881889764,
                    "duration": 0.1358024250000085
                },
                {
                    "name": "G2",
                    "midi": 43,
                    "time": 35.674885524999986,
                    "velocity": 0.25196850393700787,
                    "duration": 0.1358024250000014
                },
                {
                    "name": "C3",
                    "midi": 48,
                    "time": 35.80657272499999,
                    "velocity": 0.2755905511811024,
                    "duration": 0.1358024250000014
                },
                {
                    "name": "D3",
                    "midi": 50,
                    "time": 35.93002947499999,
                    "velocity": 0.28346456692913385,
                    "duration": 0.1358024250000014
                },
                {
                    "name": "D#3",
                    "midi": 51,
                    "time": 36.05039980624999,
                    "velocity": 0.30708661417322836,
                    "duration": 0.1358024250000014
                },
                {
                    "name": "G3",
                    "midi": 55,
                    "time": 36.17488536249999,
                    "velocity": 0.31496062992125984,
                    "duration": 0.1358024250000014
                },
                {
                    "name": "C4",
                    "midi": 60,
                    "time": 36.30039972499999,
                    "velocity": 0.33858267716535434,
                    "duration": 0.1358024250000085
                },
                {
                    "name": "D4",
                    "midi": 62,
                    "time": 36.414597218749996,
                    "velocity": 0.3464566929133858,
                    "duration": 0.1358024250000085
                },
                {
                    "name": "D#4",
                    "midi": 63,
                    "time": 36.539082775000004,
                    "velocity": 0.3700787401574803,
                    "duration": 0.1358024250000014
                },
                {
                    "name": "D4",
                    "midi": 62,
                    "time": 36.6687123625,
                    "velocity": 0.3464566929133858,
                    "duration": 0.1358024250000014
                },
                {
                    "name": "C4",
                    "midi": 60,
                    "time": 36.79114030625001,
                    "velocity": 0.33858267716535434,
                    "duration": 0.1358024249999943
                },
                {
                    "name": "G3",
                    "midi": 55,
                    "time": 36.91048183125,
                    "velocity": 0.3228346456692913,
                    "duration": 0.1358024250000014
                },
                {
                    "name": "D#3",
                    "midi": 51,
                    "time": 37.03188096875,
                    "velocity": 0.30708661417322836,
                    "duration": 0.1358024250000014
                },
                {
                    "name": "D3",
                    "midi": 50,
                    "time": 37.156366525,
                    "velocity": 0.29133858267716534,
                    "duration": 0.1358024250000014
                },
                {
                    "name": "C3",
                    "midi": 48,
                    "time": 37.28496730625,
                    "velocity": 0.2755905511811024,
                    "duration": 0.1358024250000014
                },
                {
                    "name": "G2",
                    "midi": 43,
                    "time": 37.405337637500004,
                    "velocity": 0.25984251968503935,
                    "duration": 0.12345675000000256
                },
                {
                    "name": "C2",
                    "midi": 36,
                    "time": 37.52879438750001,
                    "velocity": 0.2440944881889764,
                    "duration": 0.1358024250000014
                },
                {
                    "name": "G2",
                    "midi": 43,
                    "time": 37.65327994375001,
                    "velocity": 0.2755905511811024,
                    "duration": 0.1358024250000014
                },
                {
                    "name": "C3",
                    "midi": 48,
                    "time": 37.77982311250001,
                    "velocity": 0.30708661417322836,
                    "duration": 0.1358024250000014
                },
                {
                    "name": "D3",
                    "midi": 50,
                    "time": 37.90430866875001,
                    "velocity": 0.33858267716535434,
                    "duration": 0.1358024249999943
                },
                {
                    "name": "D#3",
                    "midi": 51,
                    "time": 38.02776541875001,
                    "velocity": 0.3543307086614173,
                    "duration": 0.1358024250000014
                },
                {
                    "name": "D3",
                    "midi": 50,
                    "time": 38.14813575000001,
                    "velocity": 0.33070866141732286,
                    "duration": 0.1358024250000014
                },
                {
                    "name": "C3",
                    "midi": 48,
                    "time": 38.27262130625001,
                    "velocity": 0.30708661417322836,
                    "duration": 0.1358024250000014
                },
                {
                    "name": "G2",
                    "midi": 43,
                    "time": 38.39813566875001,
                    "velocity": 0.2755905511811024,
                    "duration": 0.12345675000000256
                },
                {
                    "name": "C2",
                    "midi": 36,
                    "time": 38.52262122500001,
                    "velocity": 0.25196850393700787,
                    "duration": 0.1358024249999943
                },
                {
                    "name": "G2",
                    "midi": 43,
                    "time": 38.637847525000005,
                    "velocity": 0.2677165354330709,
                    "duration": 0.1358024250000014
                },
                {
                    "name": "C3",
                    "midi": 48,
                    "time": 38.766448306250005,
                    "velocity": 0.29133858267716534,
                    "duration": 0.1358024250000014
                },
                {
                    "name": "D3",
                    "midi": 50,
                    "time": 38.887847443750005,
                    "velocity": 0.31496062992125984,
                    "duration": 0.1358024250000014
                },
                {
                    "name": "D#3",
                    "midi": 51,
                    "time": 39.009246581250004,
                    "velocity": 0.3464566929133858,
                    "duration": 0.1358024250000014
                },
                {
                    "name": "D3",
                    "midi": 50,
                    "time": 39.13167452500001,
                    "velocity": 0.3464566929133858,
                    "duration": 0.1358024249999943
                },
                {
                    "name": "C3",
                    "midi": 48,
                    "time": 39.263361725,
                    "velocity": 0.33070866141732286,
                    "duration": 0.1358024250000014
                },
                {
                    "name": "G2",
                    "midi": 43,
                    "time": 39.37755921875,
                    "velocity": 0.2992125984251969,
                    "duration": 0.12345675000000256
                },
                {
                    "name": "C2",
                    "midi": 36,
                    "time": 39.50513119375,
                    "velocity": 0.2440944881889764,
                    "duration": 0.1358024250000014
                },
                {
                    "name": "G2",
                    "midi": 43,
                    "time": 39.63064555625,
                    "velocity": 0.25984251968503935,
                    "duration": 0.1358024250000014
                },
                {
                    "name": "C3",
                    "midi": 48,
                    "time": 39.7510158875,
                    "velocity": 0.2755905511811024,
                    "duration": 0.1358024249999943
                },
                {
                    "name": "D3",
                    "midi": 50,
                    "time": 39.87755905625,
                    "velocity": 0.28346456692913385,
                    "duration": 0.1358024249999943
                },
                {
                    "name": "D#3",
                    "midi": 51,
                    "time": 39.996900581249996,
                    "velocity": 0.30708661417322836,
                    "duration": 0.1358024250000014
                },
                {
                    "name": "G3",
                    "midi": 55,
                    "time": 40.1213861375,
                    "velocity": 0.31496062992125984,
                    "duration": 0.1358024250000014
                },
                {
                    "name": "C4",
                    "midi": 60,
                    "time": 40.242785274999996,
                    "velocity": 0.33070866141732286,
                    "duration": 0.1358024250000014
                },
                {
                    "name": "D4",
                    "midi": 62,
                    "time": 40.37344366875,
                    "velocity": 0.33858267716535434,
                    "duration": 0.1358024249999943
                },
                {
                    "name": "D#4",
                    "midi": 63,
                    "time": 40.489698774999994,
                    "velocity": 0.3700787401574803,
                    "duration": 0.1358024250000014
                },
                {
                    "name": "D4",
                    "midi": 62,
                    "time": 40.61521313749999,
                    "velocity": 0.36220472440944884,
                    "duration": 0.1358024250000014
                },
                {
                    "name": "C4",
                    "midi": 60,
                    "time": 40.74381391874999,
                    "velocity": 0.3464566929133858,
                    "duration": 0.1358024250000014
                },
                {
                    "name": "G3",
                    "midi": 55,
                    "time": 40.86829947499999,
                    "velocity": 0.33858267716535434,
                    "duration": 0.1358024249999943
                },
                {
                    "name": "D#3",
                    "midi": 51,
                    "time": 40.99072741874999,
                    "velocity": 0.3228346456692913,
                    "duration": 0.1358024249999943
                },
                {
                    "name": "D3",
                    "midi": 50,
                    "time": 41.114184168749986,
                    "velocity": 0.30708661417322836,
                    "duration": 0.1358024250000014
                },
                {
                    "name": "C3",
                    "midi": 48,
                    "time": 41.235583306249985,
                    "velocity": 0.2992125984251969,
                    "duration": 0.1358024250000014
                },
                {
                    "name": "G2",
                    "midi": 43,
                    "time": 41.35595363749999,
                    "velocity": 0.28346456692913385,
                    "duration": 0.12345674999999545
                },
                {
                    "name": "C2",
                    "midi": 36,
                    "time": 41.485583224999985,
                    "velocity": 0.2992125984251969,
                    "duration": 0.1358024250000014
                },
                {
                    "name": "G2",
                    "midi": 43,
                    "time": 41.601838331249986,
                    "velocity": 0.3228346456692913,
                    "duration": 0.1358024249999943
                },
                {
                    "name": "C3",
                    "midi": 48,
                    "time": 41.73249672499998,
                    "velocity": 0.33858267716535434,
                    "duration": 0.1358024249999943
                },
                {
                    "name": "D3",
                    "midi": 50,
                    "time": 41.84875183124998,
                    "velocity": 0.3700787401574803,
                    "duration": 0.1358024250000014
                },
                {
                    "name": "D#3",
                    "midi": 51,
                    "time": 41.97220858124998,
                    "velocity": 0.3937007874015748,
                    "duration": 0.1358024249999943
                },
                {
                    "name": "D3",
                    "midi": 50,
                    "time": 42.09875174999998,
                    "velocity": 0.3700787401574803,
                    "duration": 0.1358024250000014
                },
                {
                    "name": "C3",
                    "midi": 48,
                    "time": 42.22735253124998,
                    "velocity": 0.3543307086614173,
                    "duration": 0.1358024250000014
                },
                {
                    "name": "G2",
                    "midi": 43,
                    "time": 42.34052121874998,
                    "velocity": 0.33858267716535434,
                    "duration": 0.12345675000000256
                },
                {
                    "name": "C2",
                    "midi": 36,
                    "time": 42.46397796874998,
                    "velocity": 0.3228346456692913,
                    "duration": 0.1358024250000014
                },
                {
                    "name": "G2",
                    "midi": 43,
                    "time": 42.59257874999998,
                    "velocity": 0.33858267716535434,
                    "duration": 0.1358024250000014
                },
                {
                    "name": "C3",
                    "midi": 48,
                    "time": 42.715006693749984,
                    "velocity": 0.3464566929133858,
                    "duration": 0.1358024249999943
                },
                {
                    "name": "D3",
                    "midi": 50,
                    "time": 42.83537702499998,
                    "velocity": 0.3858267716535433,
                    "duration": 0.1358024250000014
                },
                {
                    "name": "D#3",
                    "midi": 51,
                    "time": 42.95986258124998,
                    "velocity": 0.4015748031496063,
                    "duration": 0.1358024250000014
                },
                {
                    "name": "D3",
                    "midi": 50,
                    "time": 43.09052097499998,
                    "velocity": 0.4015748031496063,
                    "duration": 0.1358024249999943
                },
                {
                    "name": "C3",
                    "midi": 48,
                    "time": 43.20677608124998,
                    "velocity": 0.3858267716535433,
                    "duration": 0.1358024249999943
                },
                {
                    "name": "G2",
                    "midi": 43,
                    "time": 43.329204024999974,
                    "velocity": 0.3700787401574803,
                    "duration": 0.12345675000000256
                },
                {
                    "name": "C2",
                    "midi": 36,
                    "time": 43.45266077499998,
                    "velocity": 0.3700787401574803,
                    "duration": 0.1358024250000014
                },
                {
                    "name": "G2",
                    "midi": 43,
                    "time": 43.58537678124998,
                    "velocity": 0.3700787401574803,
                    "duration": 0.1358024250000014
                },
                {
                    "name": "C3",
                    "midi": 48,
                    "time": 43.69854546874998,
                    "velocity": 0.3779527559055118,
                    "duration": 0.1358024250000014
                },
                {
                    "name": "D3",
                    "midi": 50,
                    "time": 43.82200221874998,
                    "velocity": 0.3937007874015748,
                    "duration": 0.1358024249999943
                },
                {
                    "name": "D#3",
                    "midi": 51,
                    "time": 43.945458968749975,
                    "velocity": 0.4015748031496063,
                    "duration": 0.1358024249999943
                },
                {
                    "name": "G3",
                    "midi": 55,
                    "time": 44.07200213749997,
                    "velocity": 0.4015748031496063,
                    "duration": 0.1358024249999943
                },
                {
                    "name": "C4",
                    "midi": 60,
                    "time": 44.20266053124997,
                    "velocity": 0.4251968503937008,
                    "duration": 0.1358024250000014
                },
                {
                    "name": "D4",
                    "midi": 62,
                    "time": 44.31994444374997,
                    "velocity": 0.4330708661417323,
                    "duration": 0.1358024250000014
                },
                {
                    "name": "D#4",
                    "midi": 63,
                    "time": 44.44340119374997,
                    "velocity": 0.44881889763779526,
                    "duration": 0.1358024250000014
                },
                {
                    "name": "D4",
                    "midi": 62,
                    "time": 44.57303078124997,
                    "velocity": 0.4330708661417323,
                    "duration": 0.1358024250000014
                },
                {
                    "name": "C4",
                    "midi": 60,
                    "time": 44.69545872499997,
                    "velocity": 0.4330708661417323,
                    "duration": 0.1358024249999943
                },
                {
                    "name": "G3",
                    "midi": 55,
                    "time": 44.81480024999997,
                    "velocity": 0.41732283464566927,
                    "duration": 0.1358024249999943
                },
                {
                    "name": "D#3",
                    "midi": 51,
                    "time": 44.942372224999964,
                    "velocity": 0.4015748031496063,
                    "duration": 0.1358024250000014
                },
                {
                    "name": "D3",
                    "midi": 50,
                    "time": 45.06377136249996,
                    "velocity": 0.3937007874015748,
                    "duration": 0.1358024250000014
                },
                {
                    "name": "C3",
                    "midi": 48,
                    "time": 45.184141693749964,
                    "velocity": 0.3779527559055118,
                    "duration": 0.1358024250000014
                },
                {
                    "name": "G2",
                    "midi": 43,
                    "time": 45.305540831249964,
                    "velocity": 0.3700787401574803,
                    "duration": 0.12345675000000256
                },
                {
                    "name": "C2",
                    "midi": 36,
                    "time": 45.42693996874996,
                    "velocity": 0.44881889763779526,
                    "duration": 0.1358024250000085
                },
                {
                    "name": "G2",
                    "midi": 43,
                    "time": 45.55554074999997,
                    "velocity": 0.3779527559055118,
                    "duration": 0.1358024250000014
                },
                {
                    "name": "C3",
                    "midi": 48,
                    "time": 45.68414153124997,
                    "velocity": 0.3937007874015748,
                    "duration": 0.1358024250000014
                },
                {
                    "name": "D3",
                    "midi": 50,
                    "time": 45.80142544374997,
                    "velocity": 0.4015748031496063,
                    "duration": 0.1358024250000014
                },
                {
                    "name": "D#3",
                    "midi": 51,
                    "time": 45.92282458124997,
                    "velocity": 0.4251968503937008,
                    "duration": 0.1358024250000014
                },
                {
                    "name": "D3",
                    "midi": 50,
                    "time": 46.05039655624997,
                    "velocity": 0.4094488188976378,
                    "duration": 0.1358024249999943
                },
                {
                    "name": "C3",
                    "midi": 48,
                    "time": 46.16973808124997,
                    "velocity": 0.4015748031496063,
                    "duration": 0.1358024249999943
                },
                {
                    "name": "F2",
                    "midi": 41,
                    "time": 46.296281249999964,
                    "velocity": 0.3858267716535433,
                    "duration": 0.12345675000000256
                },
                {
                    "name": "C2",
                    "midi": 36,
                    "time": 46.424882031249965,
                    "velocity": 0.44881889763779526,
                    "duration": 0.1358024250000014
                },
                {
                    "name": "G2",
                    "midi": 43,
                    "time": 46.542165943749964,
                    "velocity": 0.3858267716535433,
                    "duration": 0.1358024250000014
                },
                {
                    "name": "C3",
                    "midi": 48,
                    "time": 46.670766724999964,
                    "velocity": 0.4015748031496063,
                    "duration": 0.1358024250000014
                },
                {
                    "name": "D3",
                    "midi": 50,
                    "time": 46.78496421874996,
                    "velocity": 0.41732283464566927,
                    "duration": 0.1358024250000085
                },
                {
                    "name": "D#3",
                    "midi": 51,
                    "time": 46.91870903124997,
                    "velocity": 0.4330708661417323,
                    "duration": 0.1358024250000014
                },
                {
                    "name": "D3",
                    "midi": 50,
                    "time": 47.03805055624997,
                    "velocity": 0.4251968503937008,
                    "duration": 0.1358024250000014
                },
                {
                    "name": "C3",
                    "midi": 48,
                    "time": 47.16356491874997,
                    "velocity": 0.41732283464566927,
                    "duration": 0.1358024250000014
                },
                {
                    "name": "F2",
                    "midi": 41,
                    "time": 47.28393524999997,
                    "velocity": 0.4015748031496063,
                    "duration": 0.12345675000000256
                },
                {
                    "name": "D2",
                    "midi": 38,
                    "time": 47.40327677499997,
                    "velocity": 0.5748031496062992,
                    "duration": 0.1358024250000014
                },
                {
                    "name": "A#2",
                    "midi": 46,
                    "time": 47.527762331249974,
                    "velocity": 0.33070866141732286,
                    "duration": 0.1358024250000014
                },
                {
                    "name": "B2",
                    "midi": 47,
                    "time": 47.65327669374997,
                    "velocity": 0.33070866141732286,
                    "duration": 0.1358024250000014
                },
                {
                    "name": "A#2",
                    "midi": 46,
                    "time": 47.772618218749976,
                    "velocity": 0.3228346456692913,
                    "duration": 0.12345674999999545
                },
                {
                    "name": "A#3",
                    "midi": 58,
                    "time": 47.90019019374997,
                    "velocity": 0.44881889763779526,
                    "duration": 0.1358024250000014
                },
                {
                    "name": "A#2",
                    "midi": 46,
                    "time": 48.019531718749974,
                    "velocity": 0.3464566929133858,
                    "duration": 0.1358024249999943
                },
                {
                    "name": "B2",
                    "midi": 47,
                    "time": 48.15019011249997,
                    "velocity": 0.3464566929133858,
                    "duration": 0.1358024250000014
                },
                {
                    "name": "A#2",
                    "midi": 46,
                    "time": 48.27570447499997,
                    "velocity": 0.33858267716535434,
                    "duration": 0.12345675000000256
                },
                {
                    "name": "D#2",
                    "midi": 39,
                    "time": 48.389901968749975,
                    "velocity": 0.5669291338582677,
                    "duration": 0.1358024249999943
                },
                {
                    "name": "A#2",
                    "midi": 46,
                    "time": 48.52158916874997,
                    "velocity": 0.36220472440944884,
                    "duration": 0.1358024249999943
                },
                {
                    "name": "B2",
                    "midi": 47,
                    "time": 48.64401711249997,
                    "velocity": 0.3700787401574803,
                    "duration": 0.1358024249999943
                },
                {
                    "name": "A#2",
                    "midi": 46,
                    "time": 48.76747386249996,
                    "velocity": 0.3700787401574803,
                    "duration": 0.12345674999999545
                },
                {
                    "name": "A#3",
                    "midi": 58,
                    "time": 48.891959418749956,
                    "velocity": 0.49606299212598426,
                    "duration": 0.1358024250000014
                },
                {
                    "name": "A#2",
                    "midi": 46,
                    "time": 49.01232974999996,
                    "velocity": 0.3858267716535433,
                    "duration": 0.1358024250000014
                },
                {
                    "name": "B2",
                    "midi": 47,
                    "time": 49.137844112499955,
                    "velocity": 0.3858267716535433,
                    "duration": 0.1358024250000085
                },
                {
                    "name": "A#2",
                    "midi": 46,
                    "time": 49.25512802499996,
                    "velocity": 0.3858267716535433,
                    "duration": 0.12345675000000256
                },
                {
                    "name": "E2",
                    "midi": 40,
                    "time": 49.38475761249997,
                    "velocity": 0.6062992125984252,
                    "duration": 0.1358024250000014
                },
                {
                    "name": "A#2",
                    "midi": 46,
                    "time": 49.50924316874997,
                    "velocity": 0.4094488188976378,
                    "duration": 0.1358024250000014
                },
                {
                    "name": "C3",
                    "midi": 48,
                    "time": 49.63269991874997,
                    "velocity": 0.4094488188976378,
                    "duration": 0.1358024250000014
                },
                {
                    "name": "A#2",
                    "midi": 46,
                    "time": 49.747926218749974,
                    "velocity": 0.4015748031496063,
                    "duration": 0.12345674999999545
                },
                {
                    "name": "A#3",
                    "midi": 58,
                    "time": 49.88064222499997,
                    "velocity": 0.49606299212598426,
                    "duration": 0.1358024250000014
                },
                {
                    "name": "A#2",
                    "midi": 46,
                    "time": 50.002041362499966,
                    "velocity": 0.4251968503937008,
                    "duration": 0.1358024250000014
                },
                {
                    "name": "C3",
                    "midi": 48,
                    "time": 50.12549811249997,
                    "velocity": 0.4251968503937008,
                    "duration": 0.1358024250000014
                },
                {
                    "name": "A#2",
                    "midi": 46,
                    "time": 50.24175321874997,
                    "velocity": 0.4409448818897638,
                    "duration": 0.12345675000000256
                },
                {
                    "name": "F2",
                    "midi": 41,
                    "time": 50.371382806249976,
                    "velocity": 0.6614173228346457,
                    "duration": 0.1358024250000014
                },
                {
                    "name": "A#2",
                    "midi": 46,
                    "time": 50.49895478124998,
                    "velocity": 0.44881889763779526,
                    "duration": 0.1358024250000014
                },
                {
                    "name": "A#3",
                    "midi": 58,
                    "time": 50.61212346874998,
                    "velocity": 0.44881889763779526,
                    "duration": 0.1358024250000014
                },
                {
                    "name": "A#2",
                    "midi": 46,
                    "time": 50.73866663749998,
                    "velocity": 0.44881889763779526,
                    "duration": 0.12345675000000256
                },
                {
                    "name": "F#2",
                    "midi": 42,
                    "time": 50.86006577499998,
                    "velocity": 0.5748031496062992,
                    "duration": 0.1358024250000014
                },
                {
                    "name": "A#2",
                    "midi": 46,
                    "time": 50.99278178124998,
                    "velocity": 0.47244094488188976,
                    "duration": 0.1358024250000014
                },
                {
                    "name": "A#3",
                    "midi": 58,
                    "time": 51.112123306249984,
                    "velocity": 0.47244094488188976,
                    "duration": 0.1358024250000014
                },
                {
                    "name": "A#2",
                    "midi": 46,
                    "time": 51.232493637499985,
                    "velocity": 0.4645669291338583,
                    "duration": 0.12345675000000256
                },
                {
                    "name": "F2",
                    "midi": 41,
                    "time": 51.36315203124999,
                    "velocity": 0.6220472440944882,
                    "duration": 0.1358024250000014
                },
                {
                    "name": "A#2",
                    "midi": 46,
                    "time": 51.48043594374999,
                    "velocity": 0.49606299212598426,
                    "duration": 0.1358024250000014
                },
                {
                    "name": "D3",
                    "midi": 50,
                    "time": 51.60697911249999,
                    "velocity": 0.5118110236220472,
                    "duration": 0.1358024249999943
                },
                {
                    "name": "F3",
                    "midi": 53,
                    "time": 51.72529183124999,
                    "velocity": 0.5354330708661418,
                    "duration": 0.1358024249999943
                },
                {
                    "name": "A#3",
                    "midi": 58,
                    "time": 51.84771977499999,
                    "velocity": 0.5590551181102362,
                    "duration": 0.1358024249999943
                },
                {
                    "name": "D4",
                    "midi": 62,
                    "time": 51.97220533124998,
                    "velocity": 0.5748031496062992,
                    "duration": 0.12345675000000256
                },
                {
                    "name": "G4",
                    "midi": 67,
                    "time": 52.098748499999985,
                    "velocity": 0.5826771653543307,
                    "duration": 0.18518512499999673
                },
                {
                    "name": "F4",
                    "midi": 65,
                    "time": 52.28393362499998,
                    "velocity": 0.5984251968503937,
                    "duration": 0.06172837500000128
                },
                {
                    "name": "F4",
                    "midi": 65,
                    "time": 52.34566199999998,
                    "velocity": 0.6220472440944882,
                    "duration": 0.1358024249999943
                },
                {
                    "name": "D4",
                    "midi": 62,
                    "time": 52.47323397499998,
                    "velocity": 0.5984251968503937,
                    "duration": 0.1358024249999943
                },
                {
                    "name": "A#3",
                    "midi": 58,
                    "time": 52.591546693749976,
                    "velocity": 0.5984251968503937,
                    "duration": 0.1358024249999943
                },
                {
                    "name": "G3",
                    "midi": 55,
                    "time": 52.71088821874997,
                    "velocity": 0.5748031496062992,
                    "duration": 0.1358024250000014
                },
                {
                    "name": "F3",
                    "midi": 53,
                    "time": 52.84257541874997,
                    "velocity": 0.5590551181102362,
                    "duration": 0.1358024250000014
                },
                {
                    "name": "D#3",
                    "midi": 51,
                    "time": 52.958830524999975,
                    "velocity": 0.5275590551181102,
                    "duration": 0.1358024250000014
                },
                {
                    "name": "C3",
                    "midi": 48,
                    "time": 53.091546531249975,
                    "velocity": 0.5118110236220472,
                    "duration": 0.1358024250000014
                },
                {
                    "name": "F2",
                    "midi": 41,
                    "time": 53.212945668749974,
                    "velocity": 0.48031496062992124,
                    "duration": 0.1358024250000085
                },
                {
                    "name": "A#1",
                    "midi": 34,
                    "time": 53.33743122499998,
                    "velocity": 0.48031496062992124,
                    "duration": 0.12345675000000256
                },
                {
                    "name": "C#3",
                    "midi": 49,
                    "time": 53.45368633124998,
                    "velocity": 0.49606299212598426,
                    "duration": 0.1358024250000014
                },
                {
                    "name": "C3",
                    "midi": 48,
                    "time": 53.58022949999999,
                    "velocity": 0.4881889763779528,
                    "duration": 0.1358024249999943
                },
                {
                    "name": "B2",
                    "midi": 47,
                    "time": 53.698542218749985,
                    "velocity": 0.4645669291338583,
                    "duration": 0.1358024249999943
                },
                {
                    "name": "A#2",
                    "midi": 46,
                    "time": 53.83022941874998,
                    "velocity": 0.44881889763779526,
                    "duration": 0.1358024250000014
                },
                {
                    "name": "C3",
                    "midi": 48,
                    "time": 53.94648452499998,
                    "velocity": 0.49606299212598426,
                    "duration": 0.1358024249999943
                },
                {
                    "name": "B2",
                    "midi": 47,
                    "time": 54.07302769374998,
                    "velocity": 0.48031496062992124,
                    "duration": 0.1358024249999943
                },
                {
                    "name": "A#2",
                    "midi": 46,
                    "time": 54.195455637499975,
                    "velocity": 0.4645669291338583,
                    "duration": 0.1358024249999943
                },
                {
                    "name": "A2",
                    "midi": 45,
                    "time": 54.32611403124997,
                    "velocity": 0.4409448818897638,
                    "duration": 0.1358024250000014
                },
                {
                    "name": "B2",
                    "midi": 47,
                    "time": 54.43928271874997,
                    "velocity": 0.5039370078740157,
                    "duration": 0.1358024250000014
                },
                {
                    "name": "A#2",
                    "midi": 46,
                    "time": 54.56479708124997,
                    "velocity": 0.48031496062992124,
                    "duration": 0.1358024250000014
                },
                {
                    "name": "A2",
                    "midi": 45,
                    "time": 54.68825383124997,
                    "velocity": 0.4645669291338583,
                    "duration": 0.1358024249999943
                },
                {
                    "name": "G#2",
                    "midi": 44,
                    "time": 54.81171058124997,
                    "velocity": 0.5039370078740157,
                    "duration": 0.1358024249999943
                },
                {
                    "name": "A#2",
                    "midi": 46,
                    "time": 54.934138524999966,
                    "velocity": 0.4330708661417323,
                    "duration": 0.1358024250000014
                },
                {
                    "name": "A2",
                    "midi": 45,
                    "time": 55.062739306249966,
                    "velocity": 0.48031496062992124,
                    "duration": 0.1358024250000014
                },
                {
                    "name": "G#2",
                    "midi": 44,
                    "time": 55.18928247499997,
                    "velocity": 0.5196850393700787,
                    "duration": 0.12345674999999545
                },
                {
                    "name": "G#1",
                    "midi": 32,
                    "time": 55.313768031249964,
                    "velocity": 0.5590551181102362,
                    "duration": 0.12345675000000256
                },
                {
                    "name": "G2",
                    "midi": 43,
                    "time": 55.55245108124997,
                    "velocity": 0.3937007874015748,
                    "duration": 0.1358024250000014
                },
                {
                    "name": "G#2",
                    "midi": 44,
                    "time": 55.68208066874997,
                    "velocity": 0.4094488188976378,
                    "duration": 0.1358024250000014
                },
                {
                    "name": "B2",
                    "midi": 47,
                    "time": 55.80450861249997,
                    "velocity": 0.41732283464566927,
                    "duration": 0.1358024249999943
                },
                {
                    "name": "D#3",
                    "midi": 51,
                    "time": 55.92796536249997,
                    "velocity": 0.4409448818897638,
                    "duration": 0.1358024249999943
                },
                {
                    "name": "A#2",
                    "midi": 46,
                    "time": 56.054508531249965,
                    "velocity": 0.4094488188976378,
                    "duration": 0.1358024249999943
                },
                {
                    "name": "B2",
                    "midi": 47,
                    "time": 56.17282124999996,
                    "velocity": 0.41732283464566927,
                    "duration": 0.1358024249999943
                },
                {
                    "name": "D#3",
                    "midi": 51,
                    "time": 56.301422031249956,
                    "velocity": 0.4409448818897638,
                    "duration": 0.1358024250000014
                },
                {
                    "name": "G#3",
                    "midi": 56,
                    "time": 56.42179236249996,
                    "velocity": 0.44881889763779526,
                    "duration": 0.1358024250000014
                },
                {
                    "name": "D3",
                    "midi": 50,
                    "time": 56.53907627499996,
                    "velocity": 0.4251968503937008,
                    "duration": 0.1358024250000014
                },
                {
                    "name": "D#3",
                    "midi": 51,
                    "time": 56.66767705624996,
                    "velocity": 0.4409448818897638,
                    "duration": 0.1358024250000014
                },
                {
                    "name": "G#3",
                    "midi": 56,
                    "time": 56.79113380624996,
                    "velocity": 0.4645669291338583,
                    "duration": 0.1358024250000014
                },
                {
                    "name": "B3",
                    "midi": 59,
                    "time": 56.91253294374996,
                    "velocity": 0.4881889763779528,
                    "duration": 0.1358024250000085
                },
                {
                    "name": "G3",
                    "midi": 55,
                    "time": 57.042162531249964,
                    "velocity": 0.48031496062992124,
                    "duration": 0.1358024250000014
                },
                {
                    "name": "G#3",
                    "midi": 56,
                    "time": 57.16047524999997,
                    "velocity": 0.5118110236220472,
                    "duration": 0.12345674999999545
                },
                {
                    "name": "D#2",
                    "midi": 39,
                    "time": 57.28496080624996,
                    "velocity": 0.5590551181102362,
                    "duration": 0.06172837500000128
                },
                {
                    "name": "D#4",
                    "midi": 63,
                    "time": 57.40738874999997,
                    "velocity": 0.4330708661417323,
                    "duration": 0.1358024250000014
                },
                {
                    "name": "F3",
                    "midi": 53,
                    "time": 57.52775908124997,
                    "velocity": 0.4409448818897638,
                    "duration": 0.1358024250000014
                },
                {
                    "name": "F#3",
                    "midi": 54,
                    "time": 57.65327344374997,
                    "velocity": 0.4330708661417323,
                    "duration": 0.1358024250000014
                },
                {
                    "name": "A#3",
                    "midi": 58,
                    "time": 57.77570138749997,
                    "velocity": 0.4645669291338583,
                    "duration": 0.1358024249999943
                },
                {
                    "name": "D#4",
                    "midi": 63,
                    "time": 57.896071718749965,
                    "velocity": 0.48031496062992124,
                    "duration": 0.1358024250000014
                },
                {
                    "name": "D3",
                    "midi": 50,
                    "time": 58.02775891874997,
                    "velocity": 0.4015748031496063,
                    "duration": 0.1358024250000014
                },
                {
                    "name": "D#3",
                    "midi": 51,
                    "time": 58.14504283124997,
                    "velocity": 0.4251968503937008,
                    "duration": 0.1358024250000014
                },
                {
                    "name": "F#3",
                    "midi": 54,
                    "time": 58.266441968749966,
                    "velocity": 0.4645669291338583,
                    "duration": 0.1358024250000014
                },
                {
                    "name": "A#3",
                    "midi": 58,
                    "time": 58.39401394374997,
                    "velocity": 0.48031496062992124,
                    "duration": 0.1358024250000014
                },
                {
                    "name": "A2",
                    "midi": 45,
                    "time": 58.51952830624997,
                    "velocity": 0.4251968503937008,
                    "duration": 0.1358024250000014
                },
                {
                    "name": "A#2",
                    "midi": 46,
                    "time": 58.63681221874997,
                    "velocity": 0.4409448818897638,
                    "duration": 0.1358024250000014
                },
                {
                    "name": "D#3",
                    "midi": 51,
                    "time": 58.762326581249965,
                    "velocity": 0.44881889763779526,
                    "duration": 0.1358024250000014
                },
                {
                    "name": "F#3",
                    "midi": 54,
                    "time": 58.88475452499997,
                    "velocity": 0.48031496062992124,
                    "duration": 0.1358024250000014
                },
                {
                    "name": "F2",
                    "midi": 41,
                    "time": 59.01438411249997,
                    "velocity": 0.49606299212598426,
                    "duration": 0.1358024250000014
                },
                {
                    "name": "F#2",
                    "midi": 42,
                    "time": 59.13475444374997,
                    "velocity": 0.5433070866141733,
                    "duration": 0.12345675000000256
                },
                {
                    "name": "F#1",
                    "midi": 30,
                    "time": 59.260268806249975,
                    "velocity": 0.5826771653543307,
                    "duration": 0.12345675000000256
                },
                {
                    "name": "F2",
                    "midi": 41,
                    "time": 59.50821111249998,
                    "velocity": 0.3858267716535433,
                    "duration": 0.1358024250000014
                },
                {
                    "name": "F#2",
                    "midi": 42,
                    "time": 59.62858144374998,
                    "velocity": 0.3937007874015748,
                    "duration": 0.1358024249999943
                },
                {
                    "name": "A2",
                    "midi": 45,
                    "time": 59.755124612499976,
                    "velocity": 0.4094488188976378,
                    "duration": 0.1358024250000014
                },
                {
                    "name": "C#3",
                    "midi": 49,
                    "time": 59.87549494374998,
                    "velocity": 0.4330708661417323,
                    "duration": 0.1358024250000014
                },
                {
                    "name": "G#2",
                    "midi": 44,
                    "time": 60.00409572499998,
                    "velocity": 0.4015748031496063,
                    "duration": 0.1358024250000014
                },
                {
                    "name": "A2",
                    "midi": 45,
                    "time": 60.12446605624998,
                    "velocity": 0.4094488188976378,
                    "duration": 0.1358024249999943
                },
                {
                    "name": "C#3",
                    "midi": 49,
                    "time": 60.243807581249975,
                    "velocity": 0.4251968503937008,
                    "duration": 0.1358024250000014
                },
                {
                    "name": "F#3",
                    "midi": 54,
                    "time": 60.37549478124998,
                    "velocity": 0.4409448818897638,
                    "duration": 0.1358024249999943
                },
                {
                    "name": "C3",
                    "midi": 48,
                    "time": 60.497922724999974,
                    "velocity": 0.4251968503937008,
                    "duration": 0.1358024249999943
                },
                {
                    "name": "C#3",
                    "midi": 49,
                    "time": 60.61623544374997,
                    "velocity": 0.4409448818897638,
                    "duration": 0.1358024250000014
                },
                {
                    "name": "F#3",
                    "midi": 54,
                    "time": 60.74586503124997,
                    "velocity": 0.44881889763779526,
                    "duration": 0.1358024250000014
                },
                {
                    "name": "A3",
                    "midi": 57,
                    "time": 60.86109133124997,
                    "velocity": 0.48031496062992124,
                    "duration": 0.1358024249999943
                },
                {
                    "name": "F3",
                    "midi": 53,
                    "time": 60.99174972499997,
                    "velocity": 0.5118110236220472,
                    "duration": 0.1358024250000014
                },
                {
                    "name": "F#3",
                    "midi": 54,
                    "time": 61.11212005624997,
                    "velocity": 0.5275590551181102,
                    "duration": 0.12345675000000256
                },
                {
                    "name": "C#2",
                    "midi": 37,
                    "time": 61.23351919374997,
                    "velocity": 0.5511811023622047,
                    "duration": 0.06172837500000128
                },
                {
                    "name": "C#4",
                    "midi": 61,
                    "time": 61.35903355624997,
                    "velocity": 0.47244094488188976,
                    "duration": 0.1358024250000014
                },
                {
                    "name": "D#3",
                    "midi": 51,
                    "time": 61.48351911249997,
                    "velocity": 0.41732283464566927,
                    "duration": 0.1358024250000014
                },
                {
                    "name": "E3",
                    "midi": 52,
                    "time": 61.59977421874997,
                    "velocity": 0.4409448818897638,
                    "duration": 0.1358024250000085
                },
                {
                    "name": "G#3",
                    "midi": 56,
                    "time": 61.726317387499975,
                    "velocity": 0.4645669291338583,
                    "duration": 0.1358024250000014
                },
                {
                    "name": "C#4",
                    "midi": 61,
                    "time": 61.84874533124998,
                    "velocity": 0.48031496062992124,
                    "duration": 0.1358024250000014
                },
                {
                    "name": "C3",
                    "midi": 48,
                    "time": 61.97425969374998,
                    "velocity": 0.4251968503937008,
                    "duration": 0.1358024250000014
                },
                {
                    "name": "C#3",
                    "midi": 49,
                    "time": 62.10286047499998,
                    "velocity": 0.4330708661417323,
                    "duration": 0.1358024250000014
                },
                {
                    "name": "E3",
                    "midi": 52,
                    "time": 62.22425961249998,
                    "velocity": 0.4645669291338583,
                    "duration": 0.1358024250000014
                },
                {
                    "name": "G#3",
                    "midi": 56,
                    "time": 62.34874516874998,
                    "velocity": 0.4881889763779528,
                    "duration": 0.1358024250000014
                },
                {
                    "name": "G2",
                    "midi": 43,
                    "time": 62.47323072499998,
                    "velocity": 0.41732283464566927,
                    "duration": 0.1358024249999943
                },
                {
                    "name": "G#2",
                    "midi": 44,
                    "time": 62.59154344374998,
                    "velocity": 0.4409448818897638,
                    "duration": 0.1358024249999943
                },
                {
                    "name": "C#3",
                    "midi": 49,
                    "time": 62.71500019374997,
                    "velocity": 0.44881889763779526,
                    "duration": 0.1358024250000014
                },
                {
                    "name": "E3",
                    "midi": 52,
                    "time": 62.84360097499997,
                    "velocity": 0.48031496062992124,
                    "duration": 0.1358024250000014
                },
                {
                    "name": "D#2",
                    "midi": 39,
                    "time": 62.96088488749997,
                    "velocity": 0.4881889763779528,
                    "duration": 0.1358024250000014
                },
                {
                    "name": "E2",
                    "midi": 40,
                    "time": 63.08537044374997,
                    "velocity": 0.5118110236220472,
                    "duration": 0.12345675000000256
                },
                {
                    "name": "C2",
                    "midi": 36,
                    "time": 63.21088480624998,
                    "velocity": 0.5511811023622047,
                    "duration": 0.06172837500000128
                },
                {
                    "name": "D#4",
                    "midi": 63,
                    "time": 63.33125513749998,
                    "velocity": 0.47244094488188976,
                    "duration": 0.1358024250000014
                },
                {
                    "name": "G3",
                    "midi": 55,
                    "time": 63.45985591874998,
                    "velocity": 0.44881889763779526,
                    "duration": 0.1358024250000014
                },
                {
                    "name": "G#3",
                    "midi": 56,
                    "time": 63.58331266874998,
                    "velocity": 0.4645669291338583,
                    "duration": 0.1358024250000085
                },
                {
                    "name": "A3",
                    "midi": 57,
                    "time": 63.706769418749985,
                    "velocity": 0.47244094488188976,
                    "duration": 0.1358024250000014
                },
                {
                    "name": "G#3",
                    "midi": 56,
                    "time": 63.83022616874999,
                    "velocity": 0.48031496062992124,
                    "duration": 0.1358024250000014
                },
                {
                    "name": "F#3",
                    "midi": 54,
                    "time": 63.94648127499999,
                    "velocity": 0.49606299212598426,
                    "duration": 0.1358024250000014
                },
                {
                    "name": "E3",
                    "midi": 52,
                    "time": 64.07096683124999,
                    "velocity": 0.5039370078740157,
                    "duration": 0.1358024250000085
                },
                {
                    "name": "D#3",
                    "midi": 51,
                    "time": 64.19442358124999,
                    "velocity": 0.5196850393700787,
                    "duration": 0.1358024249999943
                },
                {
                    "name": "C#3",
                    "midi": 49,
                    "time": 64.32302436249999,
                    "velocity": 0.5118110236220472,
                    "duration": 0.1358024249999943
                },
                {
                    "name": "C3",
                    "midi": 48,
                    "time": 64.44956753124998,
                    "velocity": 0.5354330708661418,
                    "duration": 0.1358024249999943
                },
                {
                    "name": "A2",
                    "midi": 45,
                    "time": 64.56685144374998,
                    "velocity": 0.5511811023622047,
                    "duration": 0.1358024249999943
                },
                {
                    "name": "G2",
                    "midi": 43,
                    "time": 64.69133699999998,
                    "velocity": 0.5590551181102362,
                    "duration": 0.1358024249999943
                },
                {
                    "name": "G#2",
                    "midi": 44,
                    "time": 64.81067852499997,
                    "velocity": 0.5590551181102362,
                    "duration": 0.1358024250000085
                },
                {
                    "name": "D#2",
                    "midi": 39,
                    "time": 64.94236572499997,
                    "velocity": 0.5826771653543307,
                    "duration": 0.1358024250000085
                },
                {
                    "name": "G#2",
                    "midi": 44,
                    "time": 65.05862083124998,
                    "velocity": 0.5905511811023622,
                    "duration": 0.12345675000000256
                },
                {
                    "name": "D2",
                    "midi": 38,
                    "time": 65.18516399999999,
                    "velocity": 0.6062992125984252,
                    "duration": 0.06172837500000128
                },
                {
                    "name": "F4",
                    "midi": 65,
                    "time": 65.31067836249998,
                    "velocity": 0.5748031496062992,
                    "duration": 0.1358024249999943
                },
                {
                    "name": "A3",
                    "midi": 57,
                    "time": 65.43104869374999,
                    "velocity": 0.5748031496062992,
                    "duration": 0.1358024249999943
                },
                {
                    "name": "A#3",
                    "midi": 58,
                    "time": 65.55759186249998,
                    "velocity": 0.5590551181102362,
                    "duration": 0.1358024250000085
                },
                {
                    "name": "B3",
                    "midi": 59,
                    "time": 65.67384696874998,
                    "velocity": 0.5669291338582677,
                    "duration": 0.1358024250000085
                },
                {
                    "name": "A#3",
                    "midi": 58,
                    "time": 65.79730371874999,
                    "velocity": 0.5433070866141733,
                    "duration": 0.1358024250000085
                },
                {
                    "name": "G#3",
                    "midi": 56,
                    "time": 65.92076046874999,
                    "velocity": 0.5590551181102362,
                    "duration": 0.1358024250000085
                },
                {
                    "name": "F#3",
                    "midi": 54,
                    "time": 66.04421721874999,
                    "velocity": 0.5433070866141733,
                    "duration": 0.1358024250000085
                },
                {
                    "name": "F3",
                    "midi": 53,
                    "time": 66.1707603875,
                    "velocity": 0.5354330708661418,
                    "duration": 0.1358024250000227
                },
                {
                    "name": "D#3",
                    "midi": 51,
                    "time": 66.29421713750001,
                    "velocity": 0.5275590551181102,
                    "duration": 0.1358024250000085
                },
                {
                    "name": "D3",
                    "midi": 50,
                    "time": 66.42178911250002,
                    "velocity": 0.5275590551181102,
                    "duration": 0.1358024249999943
                },
                {
                    "name": "B2",
                    "midi": 47,
                    "time": 66.53907302500002,
                    "velocity": 0.5196850393700787,
                    "duration": 0.1358024249999943
                },
                {
                    "name": "A2",
                    "midi": 45,
                    "time": 66.66561619375001,
                    "velocity": 0.5039370078740157,
                    "duration": 0.1358024250000085
                },
                {
                    "name": "A#2",
                    "midi": 46,
                    "time": 66.78495771875002,
                    "velocity": 0.49606299212598426,
                    "duration": 0.1358024249999943
                },
                {
                    "name": "F2",
                    "midi": 41,
                    "time": 66.91561611250002,
                    "velocity": 0.49606299212598426,
                    "duration": 0.1358024250000085
                },
                {
                    "name": "A#2",
                    "midi": 46,
                    "time": 67.03907286250002,
                    "velocity": 0.4881889763779528,
                    "duration": 0.12345675000000256
                },
                {
                    "name": "E2",
                    "midi": 40,
                    "time": 67.15738558125003,
                    "velocity": 0.47244094488188976,
                    "duration": 0.06172837500000128
                },
                {
                    "name": "G4",
                    "midi": 67,
                    "time": 67.28598636250004,
                    "velocity": 0.44881889763779526,
                    "duration": 0.1358024249999943
                },
                {
                    "name": "B3",
                    "midi": 59,
                    "time": 67.40841430625004,
                    "velocity": 0.44881889763779526,
                    "duration": 0.1358024249999943
                },
                {
                    "name": "C4",
                    "midi": 60,
                    "time": 67.53289986250003,
                    "velocity": 0.4409448818897638,
                    "duration": 0.1358024250000085
                },
                {
                    "name": "C#4",
                    "midi": 61,
                    "time": 67.65429900000004,
                    "velocity": 0.4645669291338583,
                    "duration": 0.1358024249999943
                },
                {
                    "name": "C4",
                    "midi": 60,
                    "time": 67.77364052500003,
                    "velocity": 0.4645669291338583,
                    "duration": 0.1358024249999943
                },
                {
                    "name": "A#3",
                    "midi": 58,
                    "time": 67.90121250000003,
                    "velocity": 0.4645669291338583,
                    "duration": 0.1358024250000085
                },
                {
                    "name": "G#3",
                    "midi": 56,
                    "time": 68.01952521875003,
                    "velocity": 0.44881889763779526,
                    "duration": 0.1358024249999943
                },
                {
                    "name": "G3",
                    "midi": 55,
                    "time": 68.15327003125003,
                    "velocity": 0.44881889763779526,
                    "duration": 0.1358024249999943
                },
                {
                    "name": "F3",
                    "midi": 53,
                    "time": 68.27158275000002,
                    "velocity": 0.44881889763779526,
                    "duration": 0.1358024249999943
                },
                {
                    "name": "E3",
                    "midi": 52,
                    "time": 68.40018353125002,
                    "velocity": 0.44881889763779526,
                    "duration": 0.1358024249999943
                },
                {
                    "name": "G3",
                    "midi": 55,
                    "time": 68.52158266875001,
                    "velocity": 0.4330708661417323,
                    "duration": 0.1358024249999943
                },
                {
                    "name": "F3",
                    "midi": 53,
                    "time": 68.64195300000002,
                    "velocity": 0.4409448818897638,
                    "duration": 0.1358024249999943
                },
                {
                    "name": "E3",
                    "midi": 52,
                    "time": 68.76746736250001,
                    "velocity": 0.4409448818897638,
                    "duration": 0.1358024250000085
                },
                {
                    "name": "C#3",
                    "midi": 49,
                    "time": 68.89092411250002,
                    "velocity": 0.4330708661417323,
                    "duration": 0.1358024249999943
                },
                {
                    "name": "C3",
                    "midi": 48,
                    "time": 69.01129444375002,
                    "velocity": 0.4094488188976378,
                    "duration": 0.1358024249999943
                },
                {
                    "name": "B2",
                    "midi": 47,
                    "time": 69.13475119375,
                    "velocity": 0.4330708661417323,
                    "duration": 0.1358024250000085
                },
                {
                    "name": "C3",
                    "midi": 48,
                    "time": 69.25409271875002,
                    "velocity": 0.4330708661417323,
                    "duration": 0.1358024250000085
                },
                {
                    "name": "C#3",
                    "midi": 49,
                    "time": 69.38577991875002,
                    "velocity": 0.44881889763779526,
                    "duration": 0.1358024250000085
                },
                {
                    "name": "C3",
                    "midi": 48,
                    "time": 69.50203502500003,
                    "velocity": 0.4330708661417323,
                    "duration": 0.1358024249999943
                },
                {
                    "name": "A#2",
                    "midi": 46,
                    "time": 69.62446296875002,
                    "velocity": 0.44881889763779526,
                    "duration": 0.1358024250000085
                },
                {
                    "name": "G#2",
                    "midi": 44,
                    "time": 69.75100613750003,
                    "velocity": 0.4645669291338583,
                    "duration": 0.1358024249999943
                },
                {
                    "name": "G2",
                    "midi": 43,
                    "time": 69.87960691875003,
                    "velocity": 0.47244094488188976,
                    "duration": 0.1358024249999943
                },
                {
                    "name": "F2",
                    "midi": 41,
                    "time": 69.99689083125003,
                    "velocity": 0.4881889763779528,
                    "duration": 0.1358024249999943
                },
                {
                    "name": "E2",
                    "midi": 40,
                    "time": 70.12137638750002,
                    "velocity": 0.49606299212598426,
                    "duration": 0.14917690625000546
                },
                {
                    "name": "C#2",
                    "midi": 37,
                    "time": 70.24689075000002,
                    "velocity": 0.49606299212598426,
                    "duration": 0.14917690625000546
                },
                {
                    "name": "C2",
                    "midi": 36,
                    "time": 70.36520346875002,
                    "velocity": 0.5275590551181102,
                    "duration": 0.14917690624999125
                },
                {
                    "name": "B1",
                    "midi": 35,
                    "time": 70.49277544375002,
                    "velocity": 0.5275590551181102,
                    "duration": 0.14917690624999125
                },
                {
                    "name": "C2",
                    "midi": 36,
                    "time": 70.61726100000001,
                    "velocity": 0.5590551181102362,
                    "duration": 0.14917690624999125
                },
                {
                    "name": "A#1",
                    "midi": 34,
                    "time": 70.74174655625,
                    "velocity": 0.5511811023622047,
                    "duration": 0.14917690625000546
                },
                {
                    "name": "G#1",
                    "midi": 32,
                    "time": 70.86726091875,
                    "velocity": 0.5826771653543307,
                    "duration": 0.14917690625000546
                },
                {
                    "name": "G1",
                    "midi": 31,
                    "time": 70.98660244375002,
                    "velocity": 0.5748031496062992,
                    "duration": 0.12345675000000256
                },
                {
                    "name": "F1",
                    "midi": 29,
                    "time": 71.10903038750001,
                    "velocity": 0.5984251968503937,
                    "duration": 0.1358024250000085
                },
                {
                    "name": "C2",
                    "midi": 36,
                    "time": 71.23865997500002,
                    "velocity": 0.49606299212598426,
                    "duration": 0.1358024250000085
                },
                {
                    "name": "F2",
                    "midi": 41,
                    "time": 71.36314553125003,
                    "velocity": 0.49606299212598426,
                    "duration": 0.1358024249999943
                },
                {
                    "name": "G2",
                    "midi": 43,
                    "time": 71.48248705625002,
                    "velocity": 0.49606299212598426,
                    "duration": 0.1358024249999943
                },
                {
                    "name": "G#2",
                    "midi": 44,
                    "time": 71.61005903125002,
                    "velocity": 0.49606299212598426,
                    "duration": 0.1358024249999943
                },
                {
                    "name": "C3",
                    "midi": 48,
                    "time": 71.72322771875001,
                    "velocity": 0.5039370078740157,
                    "duration": 0.1358024250000085
                },
                {
                    "name": "F3",
                    "midi": 53,
                    "time": 71.85285730625002,
                    "velocity": 0.5354330708661418,
                    "duration": 0.1358024250000085
                },
                {
                    "name": "G3",
                    "midi": 55,
                    "time": 71.97940047500002,
                    "velocity": 0.5354330708661418,
                    "duration": 0.1358024249999943
                },
                {
                    "name": "G#3",
                    "midi": 56,
                    "time": 72.09771319375001,
                    "velocity": 0.5669291338582677,
                    "duration": 0.1358024250000085
                },
                {
                    "name": "C4",
                    "midi": 60,
                    "time": 72.22014113750002,
                    "velocity": 0.5905511811023622,
                    "duration": 0.1358024250000085
                },
                {
                    "name": "F4",
                    "midi": 65,
                    "time": 72.34359788750002,
                    "velocity": 0.5984251968503937,
                    "duration": 0.1358024249999943
                },
                {
                    "name": "G4",
                    "midi": 67,
                    "time": 72.46396821875003,
                    "velocity": 0.6062992125984252,
                    "duration": 0.1358024249999943
                },
                {
                    "name": "G#4",
                    "midi": 68,
                    "time": 72.59359780625002,
                    "velocity": 0.6220472440944882,
                    "duration": 0.1358024250000085
                },
                {
                    "name": "G4",
                    "midi": 67,
                    "time": 72.71499694375002,
                    "velocity": 0.6062992125984252,
                    "duration": 0.1358024249999943
                },
                {
                    "name": "F4",
                    "midi": 65,
                    "time": 72.83433846875002,
                    "velocity": 0.5590551181102362,
                    "duration": 0.1358024250000085
                },
                {
                    "name": "C4",
                    "midi": 60,
                    "time": 72.95779521875002,
                    "velocity": 0.5275590551181102,
                    "duration": 0.12345675000001677
                },
                {
                    "name": "C#4",
                    "midi": 61,
                    "time": 73.08639600000004,
                    "velocity": 0.5039370078740157,
                    "duration": 0.1358024249999943
                },
                {
                    "name": "F4",
                    "midi": 65,
                    "time": 73.21396797500003,
                    "velocity": 0.49606299212598426,
                    "duration": 0.1358024249999943
                },
                {
                    "name": "C#4",
                    "midi": 61,
                    "time": 73.33845353125002,
                    "velocity": 0.4881889763779528,
                    "duration": 0.1358024249999943
                },
                {
                    "name": "G#3",
                    "midi": 56,
                    "time": 73.45573744375002,
                    "velocity": 0.48031496062992124,
                    "duration": 0.1358024249999943
                },
                {
                    "name": "F3",
                    "midi": 53,
                    "time": 73.58330941875002,
                    "velocity": 0.4645669291338583,
                    "duration": 0.1358024250000085
                },
                {
                    "name": "C#3",
                    "midi": 49,
                    "time": 73.70470855625003,
                    "velocity": 0.44881889763779526,
                    "duration": 0.1358024249999943
                },
                {
                    "name": "G#2",
                    "midi": 44,
                    "time": 73.83022291875002,
                    "velocity": 0.44881889763779526,
                    "duration": 0.1358024249999943
                },
                {
                    "name": "F2",
                    "midi": 41,
                    "time": 73.95470847500002,
                    "velocity": 0.4409448818897638,
                    "duration": 0.12345675000000256
                },
                {
                    "name": "C#2",
                    "midi": 37,
                    "time": 74.07507880625002,
                    "velocity": 0.4330708661417323,
                    "duration": 0.16255138750000242
                },
                {
                    "name": "G#1",
                    "midi": 32,
                    "time": 74.19853555625002,
                    "velocity": 0.4251968503937008,
                    "duration": 0.16255138750000242
                },
                {
                    "name": "C#2",
                    "midi": 37,
                    "time": 74.31581946875002,
                    "velocity": 0.4330708661417323,
                    "duration": 0.16255138750000242
                },
                {
                    "name": "F2",
                    "midi": 41,
                    "time": 74.44750666875002,
                    "velocity": 0.4094488188976378,
                    "duration": 0.14814810000000023
                },
                {
                    "name": "C#2",
                    "midi": 37,
                    "time": 74.56787700000002,
                    "velocity": 0.4330708661417323,
                    "duration": 0.1625513874999882
                },
                {
                    "name": "G#1",
                    "midi": 32,
                    "time": 74.69236255625002,
                    "velocity": 0.4251968503937008,
                    "duration": 0.1625513874999882
                },
                {
                    "name": "C#2",
                    "midi": 37,
                    "time": 74.81581930625,
                    "velocity": 0.4330708661417323,
                    "duration": 0.1625513874999882
                },
                {
                    "name": "F2",
                    "midi": 41,
                    "time": 74.93927605625,
                    "velocity": 0.41732283464566927,
                    "duration": 0.12345675000000256
                },
                {
                    "name": "F1",
                    "midi": 29,
                    "time": 75.06479041875,
                    "velocity": 0.4330708661417323,
                    "duration": 0.1358024249999943
                },
                {
                    "name": "C2",
                    "midi": 36,
                    "time": 75.18721836249999,
                    "velocity": 0.41732283464566927,
                    "duration": 0.1358024249999943
                },
                {
                    "name": "F2",
                    "midi": 41,
                    "time": 75.30655988749999,
                    "velocity": 0.4330708661417323,
                    "duration": 0.1358024249999943
                },
                {
                    "name": "G2",
                    "midi": 43,
                    "time": 75.42693021874999,
                    "velocity": 0.41732283464566927,
                    "duration": 0.13580242499998008
                },
                {
                    "name": "G#2",
                    "midi": 44,
                    "time": 75.55244458124997,
                    "velocity": 0.4409448818897638,
                    "duration": 0.1358024249999943
                },
                {
                    "name": "C3",
                    "midi": 48,
                    "time": 75.67693013749997,
                    "velocity": 0.44881889763779526,
                    "duration": 0.1358024249999943
                },
                {
                    "name": "F3",
                    "midi": 53,
                    "time": 75.79935808124996,
                    "velocity": 0.44881889763779526,
                    "duration": 0.1358024249999943
                },
                {
                    "name": "G3",
                    "midi": 55,
                    "time": 75.92898766874995,
                    "velocity": 0.44881889763779526,
                    "duration": 0.1358024250000085
                },
                {
                    "name": "G#3",
                    "midi": 56,
                    "time": 76.04832919374996,
                    "velocity": 0.4645669291338583,
                    "duration": 0.1358024249999943
                },
                {
                    "name": "C4",
                    "midi": 60,
                    "time": 76.17692997499996,
                    "velocity": 0.44881889763779526,
                    "duration": 0.1358024249999943
                },
                {
                    "name": "F4",
                    "midi": 65,
                    "time": 76.29215627499995,
                    "velocity": 0.4645669291338583,
                    "duration": 0.1358024250000085
                },
                {
                    "name": "G4",
                    "midi": 67,
                    "time": 76.42178586249996,
                    "velocity": 0.44881889763779526,
                    "duration": 0.1358024249999943
                },
                {
                    "name": "G#4",
                    "midi": 68,
                    "time": 76.54421380624996,
                    "velocity": 0.47244094488188976,
                    "duration": 0.1358024250000085
                },
                {
                    "name": "G4",
                    "midi": 67,
                    "time": 76.67075697499996,
                    "velocity": 0.49606299212598426,
                    "duration": 0.1358024250000085
                },
                {
                    "name": "F4",
                    "midi": 65,
                    "time": 76.78701208124997,
                    "velocity": 0.47244094488188976,
                    "duration": 0.1358024250000085
                },
                {
                    "name": "C4",
                    "midi": 60,
                    "time": 76.91355524999997,
                    "velocity": 0.44881889763779526,
                    "duration": 0.12345675000000256
                },
                {
                    "name": "D4",
                    "midi": 62,
                    "time": 77.04112722499998,
                    "velocity": 0.4645669291338583,
                    "duration": 0.1358024250000085
                },
                {
                    "name": "F4",
                    "midi": 65,
                    "time": 77.16355516875,
                    "velocity": 0.44881889763779526,
                    "duration": 0.1358024249999943
                },
                {
                    "name": "D4",
                    "midi": 62,
                    "time": 77.28906953125,
                    "velocity": 0.4645669291338583,
                    "duration": 0.1358024249999943
                },
                {
                    "name": "C4",
                    "midi": 60,
                    "time": 77.40429583124998,
                    "velocity": 0.44881889763779526,
                    "duration": 0.1358024250000085
                },
                {
                    "name": "G#3",
                    "midi": 56,
                    "time": 77.53495422499999,
                    "velocity": 0.4645669291338583,
                    "duration": 0.1358024249999943
                },
                {
                    "name": "F3",
                    "midi": 53,
                    "time": 77.65738216874999,
                    "velocity": 0.4645669291338583,
                    "duration": 0.1358024249999943
                },
                {
                    "name": "D3",
                    "midi": 50,
                    "time": 77.78289653124999,
                    "velocity": 0.4645669291338583,
                    "duration": 0.1358024249999943
                },
                {
                    "name": "C3",
                    "midi": 48,
                    "time": 77.90532447499999,
                    "velocity": 0.44881889763779526,
                    "duration": 0.1358024250000085
                },
                {
                    "name": "G#2",
                    "midi": 44,
                    "time": 78.02878122499999,
                    "velocity": 0.44881889763779526,
                    "duration": 0.1358024249999943
                },
                {
                    "name": "F2",
                    "midi": 41,
                    "time": 78.14915155624999,
                    "velocity": 0.44881889763779526,
                    "duration": 0.1358024249999943
                },
                {
                    "name": "D2",
                    "midi": 38,
                    "time": 78.26849308124999,
                    "velocity": 0.44881889763779526,
                    "duration": 0.1358024249999943
                },
                {
                    "name": "C2",
                    "midi": 36,
                    "time": 78.39606505624998,
                    "velocity": 0.4330708661417323,
                    "duration": 0.1358024249999943
                },
                {
                    "name": "G#1",
                    "midi": 32,
                    "time": 78.51540658124998,
                    "velocity": 0.44881889763779526,
                    "duration": 0.1358024250000085
                },
                {
                    "name": "C2",
                    "midi": 36,
                    "time": 78.63886333124998,
                    "velocity": 0.48031496062992124,
                    "duration": 0.1358024250000085
                },
                {
                    "name": "D2",
                    "midi": 38,
                    "time": 78.76849291874998,
                    "velocity": 0.5118110236220472,
                    "duration": 0.1358024250000085
                },
                {
                    "name": "G#2",
                    "midi": 44,
                    "time": 78.89194966874999,
                    "velocity": 0.5354330708661418,
                    "duration": 0.12345675000001677
                },
                {
                    "name": "G1",
                    "midi": 31,
                    "time": 79.008204775,
                    "velocity": 0.6220472440944882,
                    "duration": 0.24691350000000511
                },
                {
                    "name": "G2",
                    "midi": 43,
                    "time": 79.0143776125,
                    "velocity": 0.6220472440944882,
                    "duration": 0.24691350000000511
                },
                {
                    "name": "G#4",
                    "midi": 68,
                    "time": 79.25923350000001,
                    "velocity": 0.5748031496062992,
                    "duration": 0.1358024250000085
                },
                {
                    "name": "G4",
                    "midi": 67,
                    "time": 79.37754621875001,
                    "velocity": 0.5669291338582677,
                    "duration": 0.1358024250000085
                },
                {
                    "name": "F4",
                    "midi": 65,
                    "time": 79.50923341875001,
                    "velocity": 0.6220472440944882,
                    "duration": 0.1358024250000085
                },
                {
                    "name": "D4",
                    "midi": 62,
                    "time": 79.63371897500002,
                    "velocity": 0.5669291338582677,
                    "duration": 0.1358024250000085
                },
                {
                    "name": "D#4",
                    "midi": 63,
                    "time": 79.74894527500003,
                    "velocity": 0.5669291338582677,
                    "duration": 0.1358024249999943
                },
                {
                    "name": "D4",
                    "midi": 62,
                    "time": 79.87445963750002,
                    "velocity": 0.5433070866141733,
                    "duration": 0.1358024250000085
                },
                {
                    "name": "B3",
                    "midi": 59,
                    "time": 80.00100280625003,
                    "velocity": 0.6220472440944882,
                    "duration": 0.1358024249999943
                },
                {
                    "name": "G3",
                    "midi": 55,
                    "time": 80.12343075000003,
                    "velocity": 0.5669291338582677,
                    "duration": 0.1358024250000085
                },
                {
                    "name": "G#3",
                    "midi": 56,
                    "time": 80.24997391875003,
                    "velocity": 0.5669291338582677,
                    "duration": 0.1358024249999943
                },
                {
                    "name": "G3",
                    "midi": 55,
                    "time": 80.36725783125003,
                    "velocity": 0.5511811023622047,
                    "duration": 0.1358024249999943
                },
                {
                    "name": "F3",
                    "midi": 53,
                    "time": 80.49688741875002,
                    "velocity": 0.6220472440944882,
                    "duration": 0.1358024249999943
                },
                {
                    "name": "D3",
                    "midi": 50,
                    "time": 80.62240178125002,
                    "velocity": 0.5590551181102362,
                    "duration": 0.1358024249999943
                },
                {
                    "name": "D#3",
                    "midi": 51,
                    "time": 80.73557046875001,
                    "velocity": 0.5590551181102362,
                    "duration": 0.1358024249999943
                },
                {
                    "name": "D3",
                    "midi": 50,
                    "time": 80.86622886250001,
                    "velocity": 0.5511811023622047,
                    "duration": 0.1358024250000085
                },
                {
                    "name": "B2",
                    "midi": 47,
                    "time": 80.98968561250001,
                    "velocity": 0.6220472440944882,
                    "duration": 0.1358024249999943
                },
                {
                    "name": "G2",
                    "midi": 43,
                    "time": 81.10696952500001,
                    "velocity": 0.5511811023622047,
                    "duration": 0.1358024249999943
                },
                {
                    "name": "G#2",
                    "midi": 44,
                    "time": 81.22939746875001,
                    "velocity": 0.5590551181102362,
                    "duration": 0.1358024250000085
                },
                {
                    "name": "G2",
                    "midi": 43,
                    "time": 81.35594063750001,
                    "velocity": 0.5433070866141733,
                    "duration": 0.1358024250000085
                },
                {
                    "name": "F2",
                    "midi": 41,
                    "time": 81.48351261250002,
                    "velocity": 0.6220472440944882,
                    "duration": 0.1358024249999943
                },
                {
                    "name": "D2",
                    "midi": 38,
                    "time": 81.60902697500002,
                    "velocity": 0.5511811023622047,
                    "duration": 0.1358024249999943
                },
                {
                    "name": "D#2",
                    "midi": 39,
                    "time": 81.72939730625002,
                    "velocity": 0.5590551181102362,
                    "duration": 0.1358024249999943
                },
                {
                    "name": "D2",
                    "midi": 38,
                    "time": 81.85079644375001,
                    "velocity": 0.5354330708661418,
                    "duration": 0.12345675000000256
                },
                {
                    "name": "C2",
                    "midi": 36,
                    "time": 81.97836841875002,
                    "velocity": 0.6220472440944882,
                    "duration": 0.16255138750000242
                },
                {
                    "name": "G1",
                    "midi": 31,
                    "time": 82.09565233125002,
                    "velocity": 0.5433070866141733,
                    "duration": 0.16255138750000242
                },
                {
                    "name": "C2",
                    "midi": 36,
                    "time": 82.22425311250002,
                    "velocity": 0.5669291338582677,
                    "duration": 0.16255138750000242
                },
                {
                    "name": "G1",
                    "midi": 31,
                    "time": 82.34256583125003,
                    "velocity": 0.5590551181102362,
                    "duration": 0.16255138750000242
                },
                {
                    "name": "C2",
                    "midi": 36,
                    "time": 82.46602258125003,
                    "velocity": 0.5905511811023622,
                    "duration": 0.16255138750000242
                },
                {
                    "name": "G1",
                    "midi": 31,
                    "time": 82.59770978125003,
                    "velocity": 0.5984251968503937,
                    "duration": 0.1625513874999882
                },
                {
                    "name": "C2",
                    "midi": 36,
                    "time": 82.71396488750003,
                    "velocity": 0.6062992125984252,
                    "duration": 0.1625513874999882
                },
                {
                    "name": "G1",
                    "midi": 31,
                    "time": 82.83433521875001,
                    "velocity": 0.5984251968503937,
                    "duration": 0.12345675000000256
                },
                {
                    "name": "B1",
                    "midi": 35,
                    "time": 82.96602241875001,
                    "velocity": 0.6220472440944882,
                    "duration": 0.12345675000000256
                },
                {
                    "name": "G#4",
                    "midi": 68,
                    "time": 83.20573427500001,
                    "velocity": 0.5590551181102362,
                    "duration": 0.1358024250000085
                },
                {
                    "name": "G4",
                    "midi": 67,
                    "time": 83.32816221875002,
                    "velocity": 0.5590551181102362,
                    "duration": 0.1358024250000085
                },
                {
                    "name": "F4",
                    "midi": 65,
                    "time": 83.45161896875003,
                    "velocity": 0.6220472440944882,
                    "duration": 0.1358024250000085
                },
                {
                    "name": "D4",
                    "midi": 62,
                    "time": 83.57816213750003,
                    "velocity": 0.5669291338582677,
                    "duration": 0.1358024250000085
                },
                {
                    "name": "D#4",
                    "midi": 63,
                    "time": 83.70573411250004,
                    "velocity": 0.5669291338582677,
                    "duration": 0.1358024249999943
                },
                {
                    "name": "D4",
                    "midi": 62,
                    "time": 83.82507563750003,
                    "velocity": 0.5590551181102362,
                    "duration": 0.1358024249999943
                },
                {
                    "name": "B3",
                    "midi": 59,
                    "time": 83.94956119375003,
                    "velocity": 0.6220472440944882,
                    "duration": 0.1358024250000085
                },
                {
                    "name": "G3",
                    "midi": 55,
                    "time": 84.07301794375003,
                    "velocity": 0.5590551181102362,
                    "duration": 0.1358024250000085
                },
                {
                    "name": "G#3",
                    "midi": 56,
                    "time": 84.19235946875004,
                    "velocity": 0.5590551181102362,
                    "duration": 0.1358024249999943
                },
                {
                    "name": "G3",
                    "midi": 55,
                    "time": 84.32096025000004,
                    "velocity": 0.5433070866141733,
                    "duration": 0.1358024249999943
                },
                {
                    "name": "F3",
                    "midi": 53,
                    "time": 84.44647461250004,
                    "velocity": 0.6220472440944882,
                    "duration": 0.1358024249999943
                },
                {
                    "name": "D3",
                    "midi": 50,
                    "time": 84.56581613750004,
                    "velocity": 0.5669291338582677,
                    "duration": 0.1358024249999943
                },
                {
                    "name": "D#3",
                    "midi": 51,
                    "time": 84.69338811250003,
                    "velocity": 0.5669291338582677,
                    "duration": 0.1358024249999943
                },
                {
                    "name": "D3",
                    "midi": 50,
                    "time": 84.81890247500003,
                    "velocity": 0.5590551181102362,
                    "duration": 0.1358024249999943
                },
                {
                    "name": "B2",
                    "midi": 47,
                    "time": 84.93824400000003,
                    "velocity": 0.6220472440944882,
                    "duration": 0.1358024249999943
                },
                {
                    "name": "G2",
                    "midi": 43,
                    "time": 85.06272955625002,
                    "velocity": 0.5590551181102362,
                    "duration": 0.1358024249999943
                },
                {
                    "name": "G#2",
                    "midi": 44,
                    "time": 85.18001346875002,
                    "velocity": 0.5590551181102362,
                    "duration": 0.1358024249999943
                },
                {
                    "name": "G2",
                    "midi": 43,
                    "time": 85.30861425000002,
                    "velocity": 0.5511811023622047,
                    "duration": 0.1358024249999943
                },
                {
                    "name": "F2",
                    "midi": 41,
                    "time": 85.42898458125002,
                    "velocity": 0.6220472440944882,
                    "duration": 0.13580242499998008
                },
                {
                    "name": "D2",
                    "midi": 38,
                    "time": 85.55449894375,
                    "velocity": 0.5590551181102362,
                    "duration": 0.1358024249999943
                },
                {
                    "name": "D#2",
                    "midi": 39,
                    "time": 85.683099725,
                    "velocity": 0.5590551181102362,
                    "duration": 0.1358024249999943
                },
                {
                    "name": "D2",
                    "midi": 38,
                    "time": 85.80244125,
                    "velocity": 0.5511811023622047,
                    "duration": 0.1358024250000085
                },
                {
                    "name": "C2",
                    "midi": 36,
                    "time": 85.92075396875,
                    "velocity": 0.6220472440944882,
                    "duration": 0.1358024250000085
                },
                {
                    "name": "G1",
                    "midi": 31,
                    "time": 86.05038355625001,
                    "velocity": 0.5590551181102362,
                    "duration": 0.1358024250000085
                },
                {
                    "name": "C2",
                    "midi": 36,
                    "time": 86.17486911250002,
                    "velocity": 0.5748031496062992,
                    "duration": 0.1358024250000085
                },
                {
                    "name": "G1",
                    "midi": 31,
                    "time": 86.29935466875003,
                    "velocity": 0.5826771653543307,
                    "duration": 0.1358024250000085
                },
                {
                    "name": "C2",
                    "midi": 36,
                    "time": 86.42384022500003,
                    "velocity": 0.5984251968503937,
                    "duration": 0.1358024250000085
                },
                {
                    "name": "G1",
                    "midi": 31,
                    "time": 86.54729697500004,
                    "velocity": 0.5984251968503937,
                    "duration": 0.1358024249999943
                },
                {
                    "name": "C2",
                    "midi": 36,
                    "time": 86.66458088750004,
                    "velocity": 0.6220472440944882,
                    "duration": 0.1358024249999943
                },
                {
                    "name": "G1",
                    "midi": 31,
                    "time": 86.79421047500003,
                    "velocity": 0.6220472440944882,
                    "duration": 0.12345675000001677
                },
                {
                    "name": "B1",
                    "midi": 35,
                    "time": 86.91355200000004,
                    "velocity": 0.6220472440944882,
                    "duration": 0.12345675000000256
                },
                {
                    "name": "G#5",
                    "midi": 80,
                    "time": 87.16252311250004,
                    "velocity": 0.6220472440944882,
                    "duration": 0.1358024249999943
                },
                {
                    "name": "G5",
                    "midi": 79,
                    "time": 87.28186463750004,
                    "velocity": 0.5590551181102362,
                    "duration": 0.1358024250000085
                },
                {
                    "name": "F5",
                    "midi": 77,
                    "time": 87.40840780625004,
                    "velocity": 0.6220472440944882,
                    "duration": 0.1358024249999943
                },
                {
                    "name": "D5",
                    "midi": 74,
                    "time": 87.52877813750004,
                    "velocity": 0.5590551181102362,
                    "duration": 0.1358024249999943
                },
                {
                    "name": "D#5",
                    "midi": 75,
                    "time": 87.65532130625003,
                    "velocity": 0.5590551181102362,
                    "duration": 0.1358024250000085
                },
                {
                    "name": "D5",
                    "midi": 74,
                    "time": 87.77980686250004,
                    "velocity": 0.5511811023622047,
                    "duration": 0.1358024250000085
                },
                {
                    "name": "B4",
                    "midi": 71,
                    "time": 87.89811958125004,
                    "velocity": 0.6220472440944882,
                    "duration": 0.1358024250000085
                },
                {
                    "name": "G4",
                    "midi": 67,
                    "time": 88.02569155625005,
                    "velocity": 0.5511811023622047,
                    "duration": 0.1358024249999943
                },
                {
                    "name": "G#4",
                    "midi": 68,
                    "time": 88.14811950000005,
                    "velocity": 0.5511811023622047,
                    "duration": 0.1358024249999943
                },
                {
                    "name": "G4",
                    "midi": 67,
                    "time": 88.27672028125005,
                    "velocity": 0.5433070866141733,
                    "duration": 0.1358024249999943
                },
                {
                    "name": "F4",
                    "midi": 65,
                    "time": 88.39709061250005,
                    "velocity": 0.6220472440944882,
                    "duration": 0.1358024249999943
                },
                {
                    "name": "D4",
                    "midi": 62,
                    "time": 88.52157616875004,
                    "velocity": 0.5590551181102362,
                    "duration": 0.1358024250000085
                },
                {
                    "name": "D#4",
                    "midi": 63,
                    "time": 88.64297530625005,
                    "velocity": 0.5590551181102362,
                    "duration": 0.1358024250000085
                },
                {
                    "name": "D4",
                    "midi": 62,
                    "time": 88.76437444375006,
                    "velocity": 0.5433070866141733,
                    "duration": 0.1358024250000085
                },
                {
                    "name": "B3",
                    "midi": 59,
                    "time": 88.89194641875007,
                    "velocity": 0.6220472440944882,
                    "duration": 0.1358024250000085
                },
                {
                    "name": "G3",
                    "midi": 55,
                    "time": 89.01540316875007,
                    "velocity": 0.5590551181102362,
                    "duration": 0.1358024250000085
                },
                {
                    "name": "G#3",
                    "midi": 56,
                    "time": 89.14091753125008,
                    "velocity": 0.5590551181102362,
                    "duration": 0.1358024249999943
                },
                {
                    "name": "G3",
                    "midi": 55,
                    "time": 89.25614383125007,
                    "velocity": 0.5433070866141733,
                    "duration": 0.1358024250000085
                },
                {
                    "name": "F3",
                    "midi": 53,
                    "time": 89.38371580625008,
                    "velocity": 0.6220472440944882,
                    "duration": 0.1358024249999943
                },
                {
                    "name": "D3",
                    "midi": 50,
                    "time": 89.51128778125008,
                    "velocity": 0.5590551181102362,
                    "duration": 0.1358024249999943
                },
                {
                    "name": "D#3",
                    "midi": 51,
                    "time": 89.63062930625007,
                    "velocity": 0.5590551181102362,
                    "duration": 0.1358024249999943
                },
                {
                    "name": "D3",
                    "midi": 50,
                    "time": 89.75820128125007,
                    "velocity": 0.5433070866141733,
                    "duration": 0.1358024250000085
                },
                {
                    "name": "B2",
                    "midi": 47,
                    "time": 89.87651400000007,
                    "velocity": 0.6220472440944882,
                    "duration": 0.1358024250000085
                },
                {
                    "name": "G2",
                    "midi": 43,
                    "time": 89.99997075000007,
                    "velocity": 0.5590551181102362,
                    "duration": 0.1358024250000085
                },
                {
                    "name": "G#2",
                    "midi": 44,
                    "time": 90.12239869375009,
                    "velocity": 0.5590551181102362,
                    "duration": 0.1358024249999943
                },
                {
                    "name": "G2",
                    "midi": 43,
                    "time": 90.25099947500009,
                    "velocity": 0.5433070866141733,
                    "duration": 0.1358024249999943
                },
                {
                    "name": "F2",
                    "midi": 41,
                    "time": 90.37548503125008,
                    "velocity": 0.6220472440944882,
                    "duration": 0.1358024250000085
                },
                {
                    "name": "D2",
                    "midi": 38,
                    "time": 90.49071133125008,
                    "velocity": 0.5590551181102362,
                    "duration": 0.1358024250000085
                },
                {
                    "name": "D#2",
                    "midi": 39,
                    "time": 90.61416808125009,
                    "velocity": 0.5590551181102362,
                    "duration": 0.1358024250000085
                },
                {
                    "name": "D2",
                    "midi": 38,
                    "time": 90.73762483125009,
                    "velocity": 0.5433070866141733,
                    "duration": 0.1358024250000085
                },
                {
                    "name": "C2",
                    "midi": 36,
                    "time": 90.8672544187501,
                    "velocity": 0.5433070866141733,
                    "duration": 0.1358024249999943
                },
                {
                    "name": "B1",
                    "midi": 35,
                    "time": 90.99276878125009,
                    "velocity": 0.5118110236220472,
                    "duration": 0.12345675000000256
                },
                {
                    "name": "G2",
                    "midi": 43,
                    "time": 91.11211030625009,
                    "velocity": 0.5433070866141733,
                    "duration": 0.1358024250000085
                },
                {
                    "name": "F2",
                    "midi": 41,
                    "time": 91.2293942187501,
                    "velocity": 0.5354330708661418,
                    "duration": 0.1358024249999943
                },
                {
                    "name": "D#2",
                    "midi": 39,
                    "time": 91.3600526125001,
                    "velocity": 0.5275590551181102,
                    "duration": 0.1358024249999943
                },
                {
                    "name": "D2",
                    "midi": 38,
                    "time": 91.47630771875009,
                    "velocity": 0.5196850393700787,
                    "duration": 0.1358024250000085
                },
                {
                    "name": "D#2",
                    "midi": 39,
                    "time": 91.6059373062501,
                    "velocity": 0.5118110236220472,
                    "duration": 0.1358024249999943
                },
                {
                    "name": "D2",
                    "midi": 38,
                    "time": 91.7283652500001,
                    "velocity": 0.5039370078740157,
                    "duration": 0.1358024249999943
                },
                {
                    "name": "C2",
                    "midi": 36,
                    "time": 91.85079319375009,
                    "velocity": 0.49606299212598426,
                    "duration": 0.1358024249999943
                },
                {
                    "name": "B1",
                    "midi": 35,
                    "time": 91.97013471875009,
                    "velocity": 0.4881889763779528,
                    "duration": 0.1358024249999943
                },
                {
                    "name": "A#2",
                    "midi": 46,
                    "time": 92.10387953125009,
                    "velocity": 0.5354330708661418,
                    "duration": 0.1358024249999943
                },
                {
                    "name": "G#2",
                    "midi": 44,
                    "time": 92.21807702500008,
                    "velocity": 0.5275590551181102,
                    "duration": 0.1358024249999943
                },
                {
                    "name": "G2",
                    "midi": 43,
                    "time": 92.34667780625009,
                    "velocity": 0.5275590551181102,
                    "duration": 0.1358024249999943
                },
                {
                    "name": "F2",
                    "midi": 41,
                    "time": 92.46396171875008,
                    "velocity": 0.5118110236220472,
                    "duration": 0.1358024249999943
                },
                {
                    "name": "G2",
                    "midi": 43,
                    "time": 92.58844727500008,
                    "velocity": 0.5039370078740157,
                    "duration": 0.1358024250000085
                },
                {
                    "name": "F2",
                    "midi": 41,
                    "time": 92.71807686250008,
                    "velocity": 0.49606299212598426,
                    "duration": 0.1358024250000085
                },
                {
                    "name": "D#2",
                    "midi": 39,
                    "time": 92.8374183875001,
                    "velocity": 0.4881889763779528,
                    "duration": 0.1358024250000085
                },
                {
                    "name": "D2",
                    "midi": 38,
                    "time": 92.9608751375001,
                    "velocity": 0.48031496062992124,
                    "duration": 0.1358024250000085
                },
                {
                    "name": "D#3",
                    "midi": 51,
                    "time": 93.0884471125001,
                    "velocity": 0.5511811023622047,
                    "duration": 0.1358024249999943
                },
                {
                    "name": "D3",
                    "midi": 50,
                    "time": 93.2088174437501,
                    "velocity": 0.5590551181102362,
                    "duration": 0.1358024249999943
                },
                {
                    "name": "C3",
                    "midi": 48,
                    "time": 93.3322741937501,
                    "velocity": 0.5669291338582677,
                    "duration": 0.14917690625000546
                },
                {
                    "name": "B2",
                    "midi": 47,
                    "time": 93.4536733312501,
                    "velocity": 0.5748031496062992,
                    "duration": 0.14917690625000546
                },
                {
                    "name": "C3",
                    "midi": 48,
                    "time": 93.5822741125001,
                    "velocity": 0.5905511811023622,
                    "duration": 0.14917690625000546
                },
                {
                    "name": "B2",
                    "midi": 47,
                    "time": 93.6995580250001,
                    "velocity": 0.5984251968503937,
                    "duration": 0.14917690625000546
                },
                {
                    "name": "G#2",
                    "midi": 44,
                    "time": 93.82713000000011,
                    "velocity": 0.5984251968503937,
                    "duration": 0.14917690625000546
                },
                {
                    "name": "G2",
                    "midi": 43,
                    "time": 93.95058675000011,
                    "velocity": 0.6062992125984252,
                    "duration": 0.14917690625000546
                },
                {
                    "name": "G#2",
                    "midi": 44,
                    "time": 94.07712991875012,
                    "velocity": 0.6299212598425197,
                    "duration": 0.14917690624999125
                },
                {
                    "name": "G2",
                    "midi": 43,
                    "time": 94.19647144375011,
                    "velocity": 0.6456692913385826,
                    "duration": 0.14917690624999125
                },
                {
                    "name": "F2",
                    "midi": 41,
                    "time": 94.31581296875011,
                    "velocity": 0.6614173228346457,
                    "duration": 0.14917690624999125
                },
                {
                    "name": "D#2",
                    "midi": 39,
                    "time": 94.4423561375001,
                    "velocity": 0.6771653543307087,
                    "duration": 0.14917690625000546
                },
                {
                    "name": "F2",
                    "midi": 41,
                    "time": 94.5668416937501,
                    "velocity": 0.6929133858267716,
                    "duration": 0.14917690625000546
                },
                {
                    "name": "D#2",
                    "midi": 39,
                    "time": 94.68721202500011,
                    "velocity": 0.7086614173228346,
                    "duration": 0.1358024250000085
                },
                {
                    "name": "C2",
                    "midi": 36,
                    "time": 94.81787041875012,
                    "velocity": 0.7322834645669292,
                    "duration": 0.1358024249999943
                },
                {
                    "name": "G2",
                    "midi": 43,
                    "time": 94.94235597500011,
                    "velocity": 0.4015748031496063,
                    "duration": 0.1358024250000085
                },
                {
                    "name": "C3",
                    "midi": 48,
                    "time": 95.06375511250012,
                    "velocity": 0.4094488188976378,
                    "duration": 0.1358024250000085
                },
                {
                    "name": "D3",
                    "midi": 50,
                    "time": 95.18721186250012,
                    "velocity": 0.41732283464566927,
                    "duration": 0.1358024250000085
                },
                {
                    "name": "D#3",
                    "midi": 51,
                    "time": 95.30861100000013,
                    "velocity": 0.4251968503937008,
                    "duration": 0.1358024250000085
                },
                {
                    "name": "G3",
                    "midi": 55,
                    "time": 95.43515416875013,
                    "velocity": 0.4409448818897638,
                    "duration": 0.1358024250000085
                },
                {
                    "name": "C4",
                    "midi": 60,
                    "time": 95.55861091875013,
                    "velocity": 0.44881889763779526,
                    "duration": 0.1358024250000085
                },
                {
                    "name": "D4",
                    "midi": 62,
                    "time": 95.68412528125015,
                    "velocity": 0.44881889763779526,
                    "duration": 0.1358024249999943
                },
                {
                    "name": "D#4",
                    "midi": 63,
                    "time": 95.80243800000014,
                    "velocity": 0.47244094488188976,
                    "duration": 0.1358024250000085
                },
                {
                    "name": "D4",
                    "midi": 62,
                    "time": 95.92383713750014,
                    "velocity": 0.47244094488188976,
                    "duration": 0.1358024250000085
                },
                {
                    "name": "C4",
                    "midi": 60,
                    "time": 96.04523627500015,
                    "velocity": 0.4645669291338583,
                    "duration": 0.1358024250000085
                },
                {
                    "name": "G3",
                    "midi": 55,
                    "time": 96.17692347500015,
                    "velocity": 0.44881889763779526,
                    "duration": 0.1358024250000085
                },
                {
                    "name": "D#3",
                    "midi": 51,
                    "time": 96.30038022500015,
                    "velocity": 0.44881889763779526,
                    "duration": 0.1358024250000085
                },
                {
                    "name": "D3",
                    "midi": 50,
                    "time": 96.41972175000016,
                    "velocity": 0.44881889763779526,
                    "duration": 0.1358024249999943
                },
                {
                    "name": "C3",
                    "midi": 48,
                    "time": 96.53906327500016,
                    "velocity": 0.4409448818897638,
                    "duration": 0.1358024250000085
                },
                {
                    "name": "G2",
                    "midi": 43,
                    "time": 96.67075047500016,
                    "velocity": 0.4330708661417323,
                    "duration": 0.12345675000001677
                },
                {
                    "name": "C2",
                    "midi": 36,
                    "time": 96.79317841875017,
                    "velocity": 0.41732283464566927,
                    "duration": 0.1358024250000085
                },
                {
                    "name": "G2",
                    "midi": 43,
                    "time": 96.90840471875018,
                    "velocity": 0.4330708661417323,
                    "duration": 0.1358024250000085
                },
                {
                    "name": "C3",
                    "midi": 48,
                    "time": 97.03597669375019,
                    "velocity": 0.44881889763779526,
                    "duration": 0.1358024250000085
                },
                {
                    "name": "D3",
                    "midi": 50,
                    "time": 97.16560628125019,
                    "velocity": 0.4645669291338583,
                    "duration": 0.1358024250000085
                },
                {
                    "name": "D#3",
                    "midi": 51,
                    "time": 97.2787749687502,
                    "velocity": 0.48031496062992124,
                    "duration": 0.1358024250000085
                },
                {
                    "name": "D3",
                    "midi": 50,
                    "time": 97.4032605250002,
                    "velocity": 0.48031496062992124,
                    "duration": 0.1358024250000085
                },
                {
                    "name": "C3",
                    "midi": 48,
                    "time": 97.52774608125021,
                    "velocity": 0.47244094488188976,
                    "duration": 0.1358024249999943
                },
                {
                    "name": "G2",
                    "midi": 43,
                    "time": 97.65017402500021,
                    "velocity": 0.4645669291338583,
                    "duration": 0.12345675000000256
                },
                {
                    "name": "C2",
                    "midi": 36,
                    "time": 97.77877480625021,
                    "velocity": 0.49606299212598426,
                    "duration": 0.1358024250000085
                },
                {
                    "name": "G2",
                    "midi": 43,
                    "time": 97.89708752500022,
                    "velocity": 0.4645669291338583,
                    "duration": 0.1358024249999943
                },
                {
                    "name": "C3",
                    "midi": 48,
                    "time": 98.02568830625022,
                    "velocity": 0.49606299212598426,
                    "duration": 0.1358024249999943
                },
                {
                    "name": "D3",
                    "midi": 50,
                    "time": 98.1491450562502,
                    "velocity": 0.5196850393700787,
                    "duration": 0.1358024250000085
                },
                {
                    "name": "D#3",
                    "midi": 51,
                    "time": 98.27363061250021,
                    "velocity": 0.5354330708661418,
                    "duration": 0.1358024250000085
                },
                {
                    "name": "D3",
                    "midi": 50,
                    "time": 98.39811616875022,
                    "velocity": 0.5039370078740157,
                    "duration": 0.1358024249999943
                },
                {
                    "name": "C3",
                    "midi": 48,
                    "time": 98.52363053125022,
                    "velocity": 0.47244094488188976,
                    "duration": 0.1358024249999943
                },
                {
                    "name": "G2",
                    "midi": 43,
                    "time": 98.64400086250022,
                    "velocity": 0.4409448818897638,
                    "duration": 0.12345674999997414
                },
                {
                    "name": "C2",
                    "midi": 36,
                    "time": 98.7633423875002,
                    "velocity": 0.4094488188976378,
                    "duration": 0.13580242499998008
                },
                {
                    "name": "G2",
                    "midi": 43,
                    "time": 98.89194316875019,
                    "velocity": 0.36220472440944884,
                    "duration": 0.1358024249999943
                },
                {
                    "name": "C3",
                    "midi": 48,
                    "time": 99.01128469375018,
                    "velocity": 0.3700787401574803,
                    "duration": 0.1358024250000085
                },
                {
                    "name": "D3",
                    "midi": 50,
                    "time": 99.14091428125019,
                    "velocity": 0.3779527559055118,
                    "duration": 0.1358024250000085
                },
                {
                    "name": "D#3",
                    "midi": 51,
                    "time": 99.2623134187502,
                    "velocity": 0.3858267716535433,
                    "duration": 0.1358024249999943
                },
                {
                    "name": "G3",
                    "midi": 55,
                    "time": 99.3795973312502,
                    "velocity": 0.3937007874015748,
                    "duration": 0.1358024249999943
                },
                {
                    "name": "C4",
                    "midi": 60,
                    "time": 99.5020252750002,
                    "velocity": 0.4015748031496063,
                    "duration": 0.1358024250000085
                },
                {
                    "name": "D4",
                    "midi": 62,
                    "time": 99.6285684437502,
                    "velocity": 0.4094488188976378,
                    "duration": 0.1358024250000085
                },
                {
                    "name": "D#4",
                    "midi": 63,
                    "time": 99.7489387750002,
                    "velocity": 0.41732283464566927,
                    "duration": 0.1358024250000085
                },
                {
                    "name": "D4",
                    "midi": 62,
                    "time": 99.87753955625021,
                    "velocity": 0.4094488188976378,
                    "duration": 0.1358024249999943
                },
                {
                    "name": "C4",
                    "midi": 60,
                    "time": 99.99688108125021,
                    "velocity": 0.4015748031496063,
                    "duration": 0.1358024250000085
                },
                {
                    "name": "G3",
                    "midi": 55,
                    "time": 100.12856828125021,
                    "velocity": 0.3858267716535433,
                    "duration": 0.1358024250000085
                },
                {
                    "name": "D#3",
                    "midi": 51,
                    "time": 100.24379458125021,
                    "velocity": 0.3779527559055118,
                    "duration": 0.1358024249999943
                },
                {
                    "name": "D3",
                    "midi": 50,
                    "time": 100.36930894375021,
                    "velocity": 0.3700787401574803,
                    "duration": 0.1358024249999943
                },
                {
                    "name": "C3",
                    "midi": 48,
                    "time": 100.49173688750021,
                    "velocity": 0.3543307086614173,
                    "duration": 0.1358024249999943
                },
                {
                    "name": "G2",
                    "midi": 43,
                    "time": 100.6131360250002,
                    "velocity": 0.3464566929133858,
                    "duration": 0.12345675000000256
                },
                {
                    "name": "C2",
                    "midi": 36,
                    "time": 100.73762158125021,
                    "velocity": 0.33858267716535434,
                    "duration": 0.1358024250000085
                },
                {
                    "name": "G2",
                    "midi": 43,
                    "time": 100.85902071875022,
                    "velocity": 0.3543307086614173,
                    "duration": 0.1358024250000085
                },
                {
                    "name": "C3",
                    "midi": 48,
                    "time": 100.99070791875022,
                    "velocity": 0.3700787401574803,
                    "duration": 0.1358024250000085
                },
                {
                    "name": "D3",
                    "midi": 50,
                    "time": 101.11416466875022,
                    "velocity": 0.3937007874015748,
                    "duration": 0.1358024250000085
                },
                {
                    "name": "D#3",
                    "midi": 51,
                    "time": 101.23865022500023,
                    "velocity": 0.3937007874015748,
                    "duration": 0.1358024249999943
                },
                {
                    "name": "D3",
                    "midi": 50,
                    "time": 101.35284771875023,
                    "velocity": 0.3937007874015748,
                    "duration": 0.1358024249999943
                },
                {
                    "name": "C3",
                    "midi": 48,
                    "time": 101.48041969375022,
                    "velocity": 0.3937007874015748,
                    "duration": 0.1358024250000085
                },
                {
                    "name": "G2",
                    "midi": 43,
                    "time": 101.60387644375022,
                    "velocity": 0.3858267716535433,
                    "duration": 0.12345675000000256
                },
                {
                    "name": "C2",
                    "midi": 36,
                    "time": 101.73144841875023,
                    "velocity": 0.3700787401574803,
                    "duration": 0.1358024249999943
                },
                {
                    "name": "G2",
                    "midi": 43,
                    "time": 101.85181875000023,
                    "velocity": 0.3858267716535433,
                    "duration": 0.1358024249999943
                },
                {
                    "name": "C3",
                    "midi": 48,
                    "time": 101.97527550000022,
                    "velocity": 0.4015748031496063,
                    "duration": 0.1358024250000085
                },
                {
                    "name": "D3",
                    "midi": 50,
                    "time": 102.10181866875023,
                    "velocity": 0.41732283464566927,
                    "duration": 0.1358024249999943
                },
                {
                    "name": "D#3",
                    "midi": 51,
                    "time": 102.21910258125023,
                    "velocity": 0.4330708661417323,
                    "duration": 0.1358024249999943
                },
                {
                    "name": "D3",
                    "midi": 50,
                    "time": 102.34667455625022,
                    "velocity": 0.4330708661417323,
                    "duration": 0.1358024250000085
                },
                {
                    "name": "C3",
                    "midi": 48,
                    "time": 102.46498727500023,
                    "velocity": 0.4330708661417323,
                    "duration": 0.1358024250000085
                },
                {
                    "name": "G2",
                    "midi": 43,
                    "time": 102.59770328125023,
                    "velocity": 0.41732283464566927,
                    "duration": 0.12345675000001677
                },
                {
                    "name": "C2",
                    "midi": 36,
                    "time": 102.72013122500024,
                    "velocity": 0.4251968503937008,
                    "duration": 0.1358024250000085
                },
                {
                    "name": "G2",
                    "midi": 43,
                    "time": 102.84358797500025,
                    "velocity": 0.4251968503937008,
                    "duration": 0.1358024250000085
                },
                {
                    "name": "C3",
                    "midi": 48,
                    "time": 102.95778546875026,
                    "velocity": 0.4330708661417323,
                    "duration": 0.1358024249999943
                },
                {
                    "name": "D3",
                    "midi": 50,
                    "time": 103.08638625000026,
                    "velocity": 0.44881889763779526,
                    "duration": 0.1358024249999943
                },
                {
                    "name": "D#3",
                    "midi": 51,
                    "time": 103.21087180625025,
                    "velocity": 0.4645669291338583,
                    "duration": 0.1358024249999943
                },
                {
                    "name": "G3",
                    "midi": 55,
                    "time": 103.33638616875025,
                    "velocity": 0.48031496062992124,
                    "duration": 0.1358024250000085
                },
                {
                    "name": "C4",
                    "midi": 60,
                    "time": 103.45984291875025,
                    "velocity": 0.49606299212598426,
                    "duration": 0.1358024249999943
                },
                {
                    "name": "D4",
                    "midi": 62,
                    "time": 103.57712683125025,
                    "velocity": 0.5118110236220472,
                    "duration": 0.1358024249999943
                },
                {
                    "name": "D#4",
                    "midi": 63,
                    "time": 103.70881403125024,
                    "velocity": 0.5275590551181102,
                    "duration": 0.1358024250000085
                },
                {
                    "name": "D4",
                    "midi": 62,
                    "time": 103.83021316875025,
                    "velocity": 0.49606299212598426,
                    "duration": 0.1358024249999943
                },
                {
                    "name": "C4",
                    "midi": 60,
                    "time": 103.94749708125025,
                    "velocity": 0.48031496062992124,
                    "duration": 0.1358024249999943
                },
                {
                    "name": "G3",
                    "midi": 55,
                    "time": 104.07506905625024,
                    "velocity": 0.4645669291338583,
                    "duration": 0.1358024249999943
                },
                {
                    "name": "D#3",
                    "midi": 51,
                    "time": 104.19235296875024,
                    "velocity": 0.4409448818897638,
                    "duration": 0.1358024249999943
                },
                {
                    "name": "D3",
                    "midi": 50,
                    "time": 104.32095375000024,
                    "velocity": 0.41732283464566927,
                    "duration": 0.1358024249999943
                },
                {
                    "name": "C3",
                    "midi": 48,
                    "time": 104.44749691875023,
                    "velocity": 0.4015748031496063,
                    "duration": 0.1358024250000227
                },
                {
                    "name": "G2",
                    "midi": 43,
                    "time": 104.56992486250024,
                    "velocity": 0.3858267716535433,
                    "duration": 0.12345675000000256
                },
                {
                    "name": "C2",
                    "midi": 36,
                    "time": 104.68617996875025,
                    "velocity": 0.4015748031496063,
                    "duration": 0.1358024250000085
                },
                {
                    "name": "F#2",
                    "midi": 42,
                    "time": 104.81786716875025,
                    "velocity": 0.4094488188976378,
                    "duration": 0.1358024250000085
                },
                {
                    "name": "C3",
                    "midi": 48,
                    "time": 104.93926630625026,
                    "velocity": 0.4330708661417323,
                    "duration": 0.1358024250000085
                },
                {
                    "name": "D3",
                    "midi": 50,
                    "time": 105.06683828125027,
                    "velocity": 0.4409448818897638,
                    "duration": 0.1358024249999943
                },
                {
                    "name": "D#3",
                    "midi": 51,
                    "time": 105.18926622500027,
                    "velocity": 0.44881889763779526,
                    "duration": 0.1358024249999943
                },
                {
                    "name": "D3",
                    "midi": 50,
                    "time": 105.31169416875026,
                    "velocity": 0.4251968503937008,
                    "duration": 0.1358024249999943
                },
                {
                    "name": "C3",
                    "midi": 48,
                    "time": 105.43000688750026,
                    "velocity": 0.4330708661417323,
                    "duration": 0.1358024250000085
                },
                {
                    "name": "F#2",
                    "midi": 42,
                    "time": 105.55449244375026,
                    "velocity": 0.4251968503937008,
                    "duration": 0.12345675000000256
                },
                {
                    "name": "C2",
                    "midi": 36,
                    "time": 105.67897800000027,
                    "velocity": 0.41732283464566927,
                    "duration": 0.1358024250000085
                },
                {
                    "name": "F#2",
                    "midi": 42,
                    "time": 105.79729071875028,
                    "velocity": 0.4251968503937008,
                    "duration": 0.1358024250000085
                },
                {
                    "name": "C3",
                    "midi": 48,
                    "time": 105.92794911250029,
                    "velocity": 0.4330708661417323,
                    "duration": 0.1358024249999943
                },
                {
                    "name": "D3",
                    "midi": 50,
                    "time": 106.04420421875028,
                    "velocity": 0.44881889763779526,
                    "duration": 0.1358024250000085
                },
                {
                    "name": "D#3",
                    "midi": 51,
                    "time": 106.17589141875028,
                    "velocity": 0.4645669291338583,
                    "duration": 0.1358024250000085
                },
                {
                    "name": "D3",
                    "midi": 50,
                    "time": 106.29934816875029,
                    "velocity": 0.44881889763779526,
                    "duration": 0.1358024249999943
                },
                {
                    "name": "C3",
                    "midi": 48,
                    "time": 106.41663208125028,
                    "velocity": 0.44881889763779526,
                    "duration": 0.1358024249999943
                },
                {
                    "name": "F#2",
                    "midi": 42,
                    "time": 106.53906002500028,
                    "velocity": 0.4409448818897638,
                    "duration": 0.12345675000000256
                },
                {
                    "name": "B1",
                    "midi": 35,
                    "time": 106.66148796875028,
                    "velocity": 0.4330708661417323,
                    "duration": 0.1358024250000085
                },
                {
                    "name": "B2",
                    "midi": 47,
                    "time": 106.79214636250029,
                    "velocity": 0.4330708661417323,
                    "duration": 0.1358024249999943
                },
                {
                    "name": "D3",
                    "midi": 50,
                    "time": 106.90840146875028,
                    "velocity": 0.4409448818897638,
                    "duration": 0.1358024250000085
                },
                {
                    "name": "G3",
                    "midi": 55,
                    "time": 107.03494463750029,
                    "velocity": 0.4330708661417323,
                    "duration": 0.1358024249999943
                },
                {
                    "name": "D4",
                    "midi": 62,
                    "time": 107.16251661250028,
                    "velocity": 0.44881889763779526,
                    "duration": 0.1358024249999943
                },
                {
                    "name": "G3",
                    "midi": 55,
                    "time": 107.28700216875028,
                    "velocity": 0.4330708661417323,
                    "duration": 0.1358024249999943
                },
                {
                    "name": "D3",
                    "midi": 50,
                    "time": 107.40634369375027,
                    "velocity": 0.4330708661417323,
                    "duration": 0.1358024250000085
                },
                {
                    "name": "B2",
                    "midi": 47,
                    "time": 107.53597328125028,
                    "velocity": 0.4251968503937008,
                    "duration": 0.12345675000001677
                },
                {
                    "name": "A#1",
                    "midi": 34,
                    "time": 107.65531480625029,
                    "velocity": 0.4330708661417323,
                    "duration": 0.1358024249999943
                },
                {
                    "name": "A#2",
                    "midi": 46,
                    "time": 107.77568513750029,
                    "velocity": 0.4251968503937008,
                    "duration": 0.1358024249999943
                },
                {
                    "name": "C#3",
                    "midi": 49,
                    "time": 107.90119950000029,
                    "velocity": 0.4330708661417323,
                    "duration": 0.1358024249999943
                },
                {
                    "name": "G3",
                    "midi": 55,
                    "time": 108.02877147500028,
                    "velocity": 0.4330708661417323,
                    "duration": 0.1358024250000085
                },
                {
                    "name": "C#4",
                    "midi": 61,
                    "time": 108.14296896875028,
                    "velocity": 0.4409448818897638,
                    "duration": 0.1358024250000085
                },
                {
                    "name": "G3",
                    "midi": 55,
                    "time": 108.26745452500029,
                    "velocity": 0.41732283464566927,
                    "duration": 0.1358024250000085
                },
                {
                    "name": "C#3",
                    "midi": 49,
                    "time": 108.39091127500029,
                    "velocity": 0.4330708661417323,
                    "duration": 0.1358024250000085
                },
                {
                    "name": "A#2",
                    "midi": 46,
                    "time": 108.5143680250003,
                    "velocity": 0.3937007874015748,
                    "duration": 0.12345675000001677
                },
                {
                    "name": "A1",
                    "midi": 33,
                    "time": 108.64708403125032,
                    "velocity": 0.4330708661417323,
                    "duration": 0.1358024250000085
                },
                {
                    "name": "A2",
                    "midi": 45,
                    "time": 108.76333913750032,
                    "velocity": 0.4330708661417323,
                    "duration": 0.1358024249999943
                },
                {
                    "name": "C3",
                    "midi": 48,
                    "time": 108.88782469375032,
                    "velocity": 0.4409448818897638,
                    "duration": 0.1358024249999943
                },
                {
                    "name": "F3",
                    "midi": 53,
                    "time": 109.01539666875031,
                    "velocity": 0.4330708661417323,
                    "duration": 0.1358024250000085
                },
                {
                    "name": "C4",
                    "midi": 60,
                    "time": 109.13062296875032,
                    "velocity": 0.44881889763779526,
                    "duration": 0.1358024250000085
                },
                {
                    "name": "F3",
                    "midi": 53,
                    "time": 109.26231016875032,
                    "velocity": 0.4251968503937008,
                    "duration": 0.1358024250000085
                },
                {
                    "name": "C3",
                    "midi": 48,
                    "time": 109.37959408125033,
                    "velocity": 0.4409448818897638,
                    "duration": 0.1358024249999943
                },
                {
                    "name": "A2",
                    "midi": 45,
                    "time": 109.51025247500033,
                    "velocity": 0.4330708661417323,
                    "duration": 0.12345674999998835
                },
                {
                    "name": "G#1",
                    "midi": 32,
                    "time": 109.62650758125032,
                    "velocity": 0.4330708661417323,
                    "duration": 0.1358024249999943
                },
                {
                    "name": "G#2",
                    "midi": 44,
                    "time": 109.74996433125031,
                    "velocity": 0.4330708661417323,
                    "duration": 0.1358024250000085
                },
                {
                    "name": "C3",
                    "midi": 48,
                    "time": 109.87342108125031,
                    "velocity": 0.4409448818897638,
                    "duration": 0.1358024250000085
                },
                {
                    "name": "F3",
                    "midi": 53,
                    "time": 109.99687783125032,
                    "velocity": 0.44881889763779526,
                    "duration": 0.1358024250000085
                },
                {
                    "name": "C4",
                    "midi": 60,
                    "time": 110.12753622500033,
                    "velocity": 0.4251968503937008,
                    "duration": 0.1358024250000085
                },
                {
                    "name": "F3",
                    "midi": 53,
                    "time": 110.25099297500033,
                    "velocity": 0.4015748031496063,
                    "duration": 0.1358024250000085
                },
                {
                    "name": "C3",
                    "midi": 48,
                    "time": 110.37444972500033,
                    "velocity": 0.3937007874015748,
                    "duration": 0.1358024250000085
                },
                {
                    "name": "G#2",
                    "midi": 44,
                    "time": 110.49790647500033,
                    "velocity": 0.3779527559055118,
                    "duration": 0.12345675000000256
                },
                {
                    "name": "G1",
                    "midi": 31,
                    "time": 110.61827680625034,
                    "velocity": 0.36220472440944884,
                    "duration": 0.1358024249999943
                },
                {
                    "name": "G2",
                    "midi": 43,
                    "time": 110.73556071875034,
                    "velocity": 0.3700787401574803,
                    "duration": 0.1358024249999943
                },
                {
                    "name": "C3",
                    "midi": 48,
                    "time": 110.86004627500033,
                    "velocity": 0.3779527559055118,
                    "duration": 0.1358024250000085
                },
                {
                    "name": "B2",
                    "midi": 47,
                    "time": 110.98453183125034,
                    "velocity": 0.3858267716535433,
                    "duration": 0.1358024250000085
                },
                {
                    "name": "C#3",
                    "midi": 49,
                    "time": 111.10901738750034,
                    "velocity": 0.4015748031496063,
                    "duration": 0.1358024250000085
                },
                {
                    "name": "C3",
                    "midi": 48,
                    "time": 111.23350294375035,
                    "velocity": 0.41732283464566927,
                    "duration": 0.1358024250000085
                },
                {
                    "name": "D3",
                    "midi": 50,
                    "time": 111.35490208125036,
                    "velocity": 0.4330708661417323,
                    "duration": 0.1358024249999943
                },
                {
                    "name": "C#3",
                    "midi": 49,
                    "time": 111.48556047500036,
                    "velocity": 0.4330708661417323,
                    "duration": 0.1358024249999943
                },
                {
                    "name": "D#3",
                    "midi": 51,
                    "time": 111.60593080625036,
                    "velocity": 0.4409448818897638,
                    "duration": 0.1358024249999943
                },
                {
                    "name": "D3",
                    "midi": 50,
                    "time": 111.72938755625034,
                    "velocity": 0.4330708661417323,
                    "duration": 0.1358024250000085
                },
                {
                    "name": "E3",
                    "midi": 52,
                    "time": 111.85695953125035,
                    "velocity": 0.44881889763779526,
                    "duration": 0.1358024250000085
                },
                {
                    "name": "D#3",
                    "midi": 51,
                    "time": 111.97527225000036,
                    "velocity": 0.4330708661417323,
                    "duration": 0.1358024250000085
                },
                {
                    "name": "F3",
                    "midi": 53,
                    "time": 112.10181541875036,
                    "velocity": 0.4645669291338583,
                    "duration": 0.1358024249999943
                },
                {
                    "name": "E3",
                    "midi": 52,
                    "time": 112.22732978125036,
                    "velocity": 0.44881889763779526,
                    "duration": 0.1358024250000085
                },
                {
                    "name": "F#3",
                    "midi": 54,
                    "time": 112.35078653125036,
                    "velocity": 0.48031496062992124,
                    "duration": 0.1358024250000085
                },
                {
                    "name": "F3",
                    "midi": 53,
                    "time": 112.47321447500038,
                    "velocity": 0.44881889763779526,
                    "duration": 0.1358024250000085
                },
                {
                    "name": "G3",
                    "midi": 55,
                    "time": 112.59667122500038,
                    "velocity": 0.5039370078740157,
                    "duration": 0.1358024250000085
                },
                {
                    "name": "F#3",
                    "midi": 54,
                    "time": 112.71189752500038,
                    "velocity": 0.47244094488188976,
                    "duration": 0.1358024250000085
                },
                {
                    "name": "G#3",
                    "midi": 56,
                    "time": 112.83844069375039,
                    "velocity": 0.4881889763779528,
                    "duration": 0.1358024250000085
                },
                {
                    "name": "G3",
                    "midi": 55,
                    "time": 112.9608686375004,
                    "velocity": 0.47244094488188976,
                    "duration": 0.1358024249999943
                },
                {
                    "name": "A#3",
                    "midi": 58,
                    "time": 113.08226777500039,
                    "velocity": 0.49606299212598426,
                    "duration": 0.1358024250000085
                },
                {
                    "name": "G#3",
                    "midi": 56,
                    "time": 113.2149837812504,
                    "velocity": 0.48031496062992124,
                    "duration": 0.1358024250000085
                },
                {
                    "name": "G3",
                    "midi": 55,
                    "time": 113.3363829187504,
                    "velocity": 0.49606299212598426,
                    "duration": 0.1358024249999943
                },
                {
                    "name": "F3",
                    "midi": 53,
                    "time": 113.4588108625004,
                    "velocity": 0.47244094488188976,
                    "duration": 0.1358024249999943
                },
                {
                    "name": "D#3",
                    "midi": 51,
                    "time": 113.5750659687504,
                    "velocity": 0.49606299212598426,
                    "duration": 0.1358024249999943
                },
                {
                    "name": "D3",
                    "midi": 50,
                    "time": 113.70572436250039,
                    "velocity": 0.4645669291338583,
                    "duration": 0.1358024249999943
                },
                {
                    "name": "C3",
                    "midi": 48,
                    "time": 113.83020991875038,
                    "velocity": 0.47244094488188976,
                    "duration": 0.1358024250000085
                },
                {
                    "name": "B2",
                    "midi": 47,
                    "time": 113.95366666875039,
                    "velocity": 0.4645669291338583,
                    "duration": 0.1358024250000085
                },
                {
                    "name": "G#2",
                    "midi": 44,
                    "time": 114.0781522250004,
                    "velocity": 0.44881889763779526,
                    "duration": 0.1358024250000085
                },
                {
                    "name": "G2",
                    "midi": 43,
                    "time": 114.1933785250004,
                    "velocity": 0.41732283464566927,
                    "duration": 0.1358024250000085
                },
                {
                    "name": "F2",
                    "midi": 41,
                    "time": 114.3230081125004,
                    "velocity": 0.4015748031496063,
                    "duration": 0.1358024249999943
                },
                {
                    "name": "D2",
                    "midi": 38,
                    "time": 114.4433784437504,
                    "velocity": 0.3700787401574803,
                    "duration": 0.12345674999998835
                },
                {
                    "name": "C2",
                    "midi": 36,
                    "time": 114.5699216125004,
                    "velocity": 0.3228346456692913,
                    "duration": 0.1358024250000085
                },
                {
                    "name": "G2",
                    "midi": 43,
                    "time": 114.6964647812504,
                    "velocity": 0.33070866141732286,
                    "duration": 0.1358024250000085
                },
                {
                    "name": "C3",
                    "midi": 48,
                    "time": 114.81889272500041,
                    "velocity": 0.33858267716535434,
                    "duration": 0.1358024249999943
                },
                {
                    "name": "D3",
                    "midi": 50,
                    "time": 114.93309021875041,
                    "velocity": 0.3464566929133858,
                    "duration": 0.1358024250000085
                },
                {
                    "name": "D#3",
                    "midi": 51,
                    "time": 115.06477741875041,
                    "velocity": 0.3543307086614173,
                    "duration": 0.1358024249999943
                },
                {
                    "name": "G3",
                    "midi": 55,
                    "time": 115.1841189437504,
                    "velocity": 0.36220472440944884,
                    "duration": 0.1358024249999943
                },
                {
                    "name": "C4",
                    "midi": 60,
                    "time": 115.3034604687504,
                    "velocity": 0.3700787401574803,
                    "duration": 0.1358024249999943
                },
                {
                    "name": "D4",
                    "midi": 62,
                    "time": 115.4289748312504,
                    "velocity": 0.3779527559055118,
                    "duration": 0.1358024249999943
                },
                {
                    "name": "D#4",
                    "midi": 63,
                    "time": 115.5544891937504,
                    "velocity": 0.3937007874015748,
                    "duration": 0.1358024249999943
                },
                {
                    "name": "D4",
                    "midi": 62,
                    "time": 115.6748595250004,
                    "velocity": 0.3858267716535433,
                    "duration": 0.1358024249999943
                },
                {
                    "name": "C4",
                    "midi": 60,
                    "time": 115.8075755312504,
                    "velocity": 0.3779527559055118,
                    "duration": 0.1358024250000085
                },
                {
                    "name": "G3",
                    "midi": 55,
                    "time": 115.9258882500004,
                    "velocity": 0.3700787401574803,
                    "duration": 0.1358024249999943
                },
                {
                    "name": "D#3",
                    "midi": 51,
                    "time": 116.0462585812504,
                    "velocity": 0.3700787401574803,
                    "duration": 0.1358024249999943
                },
                {
                    "name": "D3",
                    "midi": 50,
                    "time": 116.17588816875039,
                    "velocity": 0.36220472440944884,
                    "duration": 0.1358024250000085
                },
                {
                    "name": "C3",
                    "midi": 48,
                    "time": 116.3003737250004,
                    "velocity": 0.3543307086614173,
                    "duration": 0.1358024249999943
                },
                {
                    "name": "G2",
                    "midi": 43,
                    "time": 116.41662883125039,
                    "velocity": 0.3464566929133858,
                    "duration": 0.12345674999998835
                },
                {
                    "name": "C2",
                    "midi": 36,
                    "time": 116.53802796875038,
                    "velocity": 0.3543307086614173,
                    "duration": 0.1358024250000085
                },
                {
                    "name": "G2",
                    "midi": 43,
                    "time": 116.66971516875039,
                    "velocity": 0.3779527559055118,
                    "duration": 0.1358024250000085
                },
                {
                    "name": "C3",
                    "midi": 48,
                    "time": 116.7869990812504,
                    "velocity": 0.4015748031496063,
                    "duration": 0.1358024249999943
                },
                {
                    "name": "D3",
                    "midi": 50,
                    "time": 116.9145710562504,
                    "velocity": 0.41732283464566927,
                    "duration": 0.1358024250000085
                },
                {
                    "name": "D#3",
                    "midi": 51,
                    "time": 117.0400854187504,
                    "velocity": 0.4409448818897638,
                    "duration": 0.1358024250000085
                },
                {
                    "name": "D3",
                    "midi": 50,
                    "time": 117.1645709750004,
                    "velocity": 0.41732283464566927,
                    "duration": 0.1358024249999943
                },
                {
                    "name": "C3",
                    "midi": 48,
                    "time": 117.2818548875004,
                    "velocity": 0.4015748031496063,
                    "duration": 0.1358024249999943
                },
                {
                    "name": "G2",
                    "midi": 43,
                    "time": 117.4073692500004,
                    "velocity": 0.3858267716535433,
                    "duration": 0.12345674999998835
                },
                {
                    "name": "C2",
                    "midi": 36,
                    "time": 117.53597003125039,
                    "velocity": 0.3700787401574803,
                    "duration": 0.1358024249999943
                },
                {
                    "name": "G2",
                    "midi": 43,
                    "time": 117.65839797500038,
                    "velocity": 0.3700787401574803,
                    "duration": 0.1358024249999943
                },
                {
                    "name": "C3",
                    "midi": 48,
                    "time": 117.77979711250038,
                    "velocity": 0.4015748031496063,
                    "duration": 0.1358024250000085
                },
                {
                    "name": "D3",
                    "midi": 50,
                    "time": 117.89810983125038,
                    "velocity": 0.41732283464566927,
                    "duration": 0.1358024250000085
                },
                {
                    "name": "D#3",
                    "midi": 51,
                    "time": 118.02773941875039,
                    "velocity": 0.4409448818897638,
                    "duration": 0.1358024250000085
                },
                {
                    "name": "D3",
                    "midi": 50,
                    "time": 118.1470809437504,
                    "velocity": 0.4251968503937008,
                    "duration": 0.1358024250000085
                },
                {
                    "name": "C3",
                    "midi": 48,
                    "time": 118.2705376937504,
                    "velocity": 0.4015748031496063,
                    "duration": 0.1358024250000085
                },
                {
                    "name": "G2",
                    "midi": 43,
                    "time": 118.38987921875041,
                    "velocity": 0.3779527559055118,
                    "duration": 0.12345675000000256
                },
                {
                    "name": "C2",
                    "midi": 36,
                    "time": 118.51950880625041,
                    "velocity": 0.3700787401574803,
                    "duration": 0.1358024250000085
                },
                {
                    "name": "G2",
                    "midi": 43,
                    "time": 118.64090794375042,
                    "velocity": 0.33858267716535434,
                    "duration": 0.1358024249999943
                },
                {
                    "name": "C3",
                    "midi": 48,
                    "time": 118.76127827500042,
                    "velocity": 0.3464566929133858,
                    "duration": 0.1358024249999943
                },
                {
                    "name": "D3",
                    "midi": 50,
                    "time": 118.88679263750042,
                    "velocity": 0.36220472440944884,
                    "duration": 0.1358024249999943
                },
                {
                    "name": "D#3",
                    "midi": 51,
                    "time": 119.01642222500041,
                    "velocity": 0.3700787401574803,
                    "duration": 0.1358024250000085
                },
                {
                    "name": "G3",
                    "midi": 55,
                    "time": 119.13267733125042,
                    "velocity": 0.3779527559055118,
                    "duration": 0.1358024250000085
                },
                {
                    "name": "C4",
                    "midi": 60,
                    "time": 119.26436453125042,
                    "velocity": 0.3858267716535433,
                    "duration": 0.1358024250000227
                },
                {
                    "name": "D4",
                    "midi": 62,
                    "time": 119.37856202500043,
                    "velocity": 0.3937007874015748,
                    "duration": 0.1358024250000227
                },
                {
                    "name": "D#4",
                    "midi": 63,
                    "time": 119.51024922500045,
                    "velocity": 0.4094488188976378,
                    "duration": 0.1358024250000085
                },
                {
                    "name": "D4",
                    "midi": 62,
                    "time": 119.63370597500045,
                    "velocity": 0.4015748031496063,
                    "duration": 0.1358024250000085
                },
                {
                    "name": "C4",
                    "midi": 60,
                    "time": 119.75201869375046,
                    "velocity": 0.4015748031496063,
                    "duration": 0.1358024250000085
                },
                {
                    "name": "G3",
                    "midi": 55,
                    "time": 119.87341783125046,
                    "velocity": 0.3937007874015748,
                    "duration": 0.1358024250000085
                },
                {
                    "name": "D#3",
                    "midi": 51,
                    "time": 120.00098980625047,
                    "velocity": 0.3858267716535433,
                    "duration": 0.1358024250000085
                },
                {
                    "name": "D3",
                    "midi": 50,
                    "time": 120.12444655625048,
                    "velocity": 0.3779527559055118,
                    "duration": 0.1358024250000085
                },
                {
                    "name": "C3",
                    "midi": 48,
                    "time": 120.24790330625048,
                    "velocity": 0.3700787401574803,
                    "duration": 0.1358024250000085
                },
                {
                    "name": "G2",
                    "midi": 43,
                    "time": 120.36930244375048,
                    "velocity": 0.36220472440944884,
                    "duration": 0.12345675000001677
                },
                {
                    "name": "C2",
                    "midi": 36,
                    "time": 120.4886439687505,
                    "velocity": 0.3464566929133858,
                    "duration": 0.1358024250000085
                },
                {
                    "name": "G2",
                    "midi": 43,
                    "time": 120.6213599750005,
                    "velocity": 0.36220472440944884,
                    "duration": 0.1358024250000085
                },
                {
                    "name": "C3",
                    "midi": 48,
                    "time": 120.7365862750005,
                    "velocity": 0.3700787401574803,
                    "duration": 0.1358024250000085
                },
                {
                    "name": "D3",
                    "midi": 50,
                    "time": 120.86107183125051,
                    "velocity": 0.3858267716535433,
                    "duration": 0.1358024250000085
                },
                {
                    "name": "D#3",
                    "midi": 51,
                    "time": 120.98555738750052,
                    "velocity": 0.4015748031496063,
                    "duration": 0.1358024249999943
                },
                {
                    "name": "D3",
                    "midi": 50,
                    "time": 121.11312936250052,
                    "velocity": 0.3937007874015748,
                    "duration": 0.1358024249999943
                },
                {
                    "name": "C3",
                    "midi": 48,
                    "time": 121.23555730625051,
                    "velocity": 0.3858267716535433,
                    "duration": 0.1358024249999943
                },
                {
                    "name": "G2",
                    "midi": 43,
                    "time": 121.36312928125051,
                    "velocity": 0.3779527559055118,
                    "duration": 0.12345675000001677
                },
                {
                    "name": "C2",
                    "midi": 36,
                    "time": 121.48247080625052,
                    "velocity": 0.3700787401574803,
                    "duration": 0.1358024250000085
                },
                {
                    "name": "G2",
                    "midi": 43,
                    "time": 121.60798516875053,
                    "velocity": 0.3858267716535433,
                    "duration": 0.1358024249999943
                },
                {
                    "name": "C3",
                    "midi": 48,
                    "time": 121.72732669375053,
                    "velocity": 0.4015748031496063,
                    "duration": 0.1358024249999943
                },
                {
                    "name": "D3",
                    "midi": 50,
                    "time": 121.85592747500053,
                    "velocity": 0.4251968503937008,
                    "duration": 0.1358024249999943
                },
                {
                    "name": "D#3",
                    "midi": 51,
                    "time": 121.97835541875052,
                    "velocity": 0.44881889763779526,
                    "duration": 0.1358024249999943
                },
                {
                    "name": "D3",
                    "midi": 50,
                    "time": 122.09461052500052,
                    "velocity": 0.4251968503937008,
                    "duration": 0.1358024249999943
                },
                {
                    "name": "C3",
                    "midi": 48,
                    "time": 122.22218250000051,
                    "velocity": 0.41732283464566927,
                    "duration": 0.1358024250000085
                },
                {
                    "name": "G2",
                    "midi": 43,
                    "time": 122.34049521875052,
                    "velocity": 0.4015748031496063,
                    "duration": 0.12345675000000256
                },
                {
                    "name": "C2",
                    "midi": 36,
                    "time": 122.46395196875052,
                    "velocity": 0.3543307086614173,
                    "duration": 0.1358024250000085
                },
                {
                    "name": "G2",
                    "midi": 43,
                    "time": 122.59563916875052,
                    "velocity": 0.3700787401574803,
                    "duration": 0.1358024250000085
                },
                {
                    "name": "C3",
                    "midi": 48,
                    "time": 122.71395188750053,
                    "velocity": 0.3779527559055118,
                    "duration": 0.1358024250000085
                },
                {
                    "name": "D3",
                    "midi": 50,
                    "time": 122.84358147500053,
                    "velocity": 0.3858267716535433,
                    "duration": 0.1358024250000085
                },
                {
                    "name": "D#3",
                    "midi": 51,
                    "time": 122.96292300000054,
                    "velocity": 0.4094488188976378,
                    "duration": 0.1358024250000085
                },
                {
                    "name": "G3",
                    "midi": 55,
                    "time": 123.08946616875055,
                    "velocity": 0.4251968503937008,
                    "duration": 0.1358024250000085
                },
                {
                    "name": "C4",
                    "midi": 60,
                    "time": 123.20469246875055,
                    "velocity": 0.4330708661417323,
                    "duration": 0.1358024250000085
                },
                {
                    "name": "D4",
                    "midi": 62,
                    "time": 123.33432205625056,
                    "velocity": 0.44881889763779526,
                    "duration": 0.1358024249999943
                },
                {
                    "name": "D#4",
                    "midi": 63,
                    "time": 123.45160596875056,
                    "velocity": 0.47244094488188976,
                    "duration": 0.1358024249999943
                },
                {
                    "name": "D4",
                    "midi": 62,
                    "time": 123.58226436250055,
                    "velocity": 0.4409448818897638,
                    "duration": 0.1358024250000085
                },
                {
                    "name": "C4",
                    "midi": 60,
                    "time": 123.70880753125056,
                    "velocity": 0.44881889763779526,
                    "duration": 0.1358024250000085
                },
                {
                    "name": "G3",
                    "midi": 55,
                    "time": 123.82712025000056,
                    "velocity": 0.4330708661417323,
                    "duration": 0.1358024249999943
                },
                {
                    "name": "D#3",
                    "midi": 51,
                    "time": 123.95263461250056,
                    "velocity": 0.4251968503937008,
                    "duration": 0.1358024249999943
                },
                {
                    "name": "D3",
                    "midi": 50,
                    "time": 124.07094733125055,
                    "velocity": 0.4015748031496063,
                    "duration": 0.1358024250000085
                },
                {
                    "name": "C3",
                    "midi": 48,
                    "time": 124.20160572500056,
                    "velocity": 0.4015748031496063,
                    "duration": 0.1358024249999943
                },
                {
                    "name": "G2",
                    "midi": 43,
                    "time": 124.32300486250055,
                    "velocity": 0.3858267716535433,
                    "duration": 0.12345675000000256
                },
                {
                    "name": "C2",
                    "midi": 36,
                    "time": 124.44543280625055,
                    "velocity": 0.47244094488188976,
                    "duration": 0.1358024250000085
                },
                {
                    "name": "F#2",
                    "midi": 42,
                    "time": 124.56477433125056,
                    "velocity": 0.3700787401574803,
                    "duration": 0.1358024249999943
                },
                {
                    "name": "C3",
                    "midi": 48,
                    "time": 124.69543272500056,
                    "velocity": 0.3937007874015748,
                    "duration": 0.1358024249999943
                },
                {
                    "name": "D3",
                    "midi": 50,
                    "time": 124.81477425000055,
                    "velocity": 0.4094488188976378,
                    "duration": 0.1358024249999943
                },
                {
                    "name": "D#3",
                    "midi": 51,
                    "time": 124.94131741875054,
                    "velocity": 0.41732283464566927,
                    "duration": 0.1358024250000085
                },
                {
                    "name": "D3",
                    "midi": 50,
                    "time": 125.05963013750055,
                    "velocity": 0.4094488188976378,
                    "duration": 0.1358024249999943
                },
                {
                    "name": "C3",
                    "midi": 48,
                    "time": 125.18000046875055,
                    "velocity": 0.4015748031496063,
                    "duration": 0.1358024249999943
                },
                {
                    "name": "F#2",
                    "midi": 42,
                    "time": 125.30860125000055,
                    "velocity": 0.3858267716535433,
                    "duration": 0.12345675000000256
                },
                {
                    "name": "C2",
                    "midi": 36,
                    "time": 125.43308680625056,
                    "velocity": 0.5039370078740157,
                    "duration": 0.1358024250000085
                },
                {
                    "name": "F#2",
                    "midi": 42,
                    "time": 125.55448594375056,
                    "velocity": 0.4330708661417323,
                    "duration": 0.1358024250000085
                },
                {
                    "name": "C3",
                    "midi": 48,
                    "time": 125.67794269375057,
                    "velocity": 0.44881889763779526,
                    "duration": 0.1358024250000085
                },
                {
                    "name": "D3",
                    "midi": 50,
                    "time": 125.79728421875058,
                    "velocity": 0.49606299212598426,
                    "duration": 0.1358024249999943
                },
                {
                    "name": "D#3",
                    "midi": 51,
                    "time": 125.92382738750057,
                    "velocity": 0.5039370078740157,
                    "duration": 0.1358024250000085
                },
                {
                    "name": "D3",
                    "midi": 50,
                    "time": 126.05037055625057,
                    "velocity": 0.4881889763779528,
                    "duration": 0.1358024250000085
                },
                {
                    "name": "C3",
                    "midi": 48,
                    "time": 126.17691372500057,
                    "velocity": 0.48031496062992124,
                    "duration": 0.1358024250000085
                },
                {
                    "name": "F#2",
                    "midi": 42,
                    "time": 126.29522644375058,
                    "velocity": 0.4645669291338583,
                    "duration": 0.12345675000000256
                },
                {
                    "name": "C#2",
                    "midi": 37,
                    "time": 126.42485603125058,
                    "velocity": 0.49606299212598426,
                    "duration": 0.1358024249999943
                },
                {
                    "name": "C#3",
                    "midi": 49,
                    "time": 126.54213994375058,
                    "velocity": 0.5039370078740157,
                    "duration": 0.1358024249999943
                },
                {
                    "name": "F#3",
                    "midi": 54,
                    "time": 126.66662550000058,
                    "velocity": 0.5433070866141733,
                    "duration": 0.1358024250000085
                },
                {
                    "name": "G#3",
                    "midi": 56,
                    "time": 126.78493821875058,
                    "velocity": 0.5590551181102362,
                    "duration": 0.1358024249999943
                },
                {
                    "name": "A#3",
                    "midi": 58,
                    "time": 126.91868303125058,
                    "velocity": 0.6062992125984252,
                    "duration": 0.1358024249999943
                },
                {
                    "name": "G#3",
                    "midi": 56,
                    "time": 127.04111097500058,
                    "velocity": 0.5826771653543307,
                    "duration": 0.1358024249999943
                },
                {
                    "name": "F#3",
                    "midi": 54,
                    "time": 127.15942369375057,
                    "velocity": 0.5748031496062992,
                    "duration": 0.1358024250000085
                },
                {
                    "name": "C#3",
                    "midi": 49,
                    "time": 127.28596686250057,
                    "velocity": 0.5275590551181102,
                    "duration": 0.12345675000000256
                },
                {
                    "name": "C#2",
                    "midi": 37,
                    "time": 127.40530838750058,
                    "velocity": 0.4881889763779528,
                    "duration": 0.1358024249999943
                },
                {
                    "name": "C#3",
                    "midi": 49,
                    "time": 127.53185155625057,
                    "velocity": 0.5118110236220472,
                    "duration": 0.1358024250000085
                },
                {
                    "name": "F#3",
                    "midi": 54,
                    "time": 127.65427950000058,
                    "velocity": 0.5433070866141733,
                    "duration": 0.1358024249999943
                },
                {
                    "name": "G#3",
                    "midi": 56,
                    "time": 127.77876505625058,
                    "velocity": 0.5826771653543307,
                    "duration": 0.1358024249999943
                },
                {
                    "name": "A#3",
                    "midi": 58,
                    "time": 127.89604896875058,
                    "velocity": 0.5984251968503937,
                    "duration": 0.1358024249999943
                },
                {
                    "name": "G#3",
                    "midi": 56,
                    "time": 128.02362094375056,
                    "velocity": 0.5669291338582677,
                    "duration": 0.1358024250000085
                },
                {
                    "name": "F#3",
                    "midi": 54,
                    "time": 128.14502008125058,
                    "velocity": 0.5590551181102362,
                    "duration": 0.13580242499998008
                },
                {
                    "name": "C#3",
                    "midi": 49,
                    "time": 128.27670728125057,
                    "velocity": 0.5118110236220472,
                    "duration": 0.12345674999997414
                },
                {
                    "name": "C#2",
                    "midi": 37,
                    "time": 128.39913522500055,
                    "velocity": 0.47244094488188976,
                    "duration": 0.13580242499998008
                },
                {
                    "name": "C#3",
                    "midi": 49,
                    "time": 128.52362078125054,
                    "velocity": 0.49606299212598426,
                    "duration": 0.13580242499998008
                },
                {
                    "name": "G3",
                    "midi": 55,
                    "time": 128.64296230625052,
                    "velocity": 0.5196850393700787,
                    "duration": 0.1358024250000085
                },
                {
                    "name": "A#3",
                    "midi": 58,
                    "time": 128.76641905625053,
                    "velocity": 0.5354330708661418,
                    "duration": 0.1358024250000085
                },
                {
                    "name": "C#4",
                    "midi": 61,
                    "time": 128.88370296875053,
                    "velocity": 0.5511811023622047,
                    "duration": 0.1358024250000085
                },
                {
                    "name": "C4",
                    "midi": 60,
                    "time": 129.01127494375052,
                    "velocity": 0.5511811023622047,
                    "duration": 0.1358024250000085
                },
                {
                    "name": "A#3",
                    "midi": 58,
                    "time": 129.13370288750053,
                    "velocity": 0.5433070866141733,
                    "duration": 0.13580242499998008
                },
                {
                    "name": "G#3",
                    "midi": 56,
                    "time": 129.25921725000052,
                    "velocity": 0.5354330708661418,
                    "duration": 0.12345675000000256
                },
                {
                    "name": "G3",
                    "midi": 55,
                    "time": 129.3775299687505,
                    "velocity": 0.5354330708661418,
                    "duration": 0.1358024250000085
                },
                {
                    "name": "F3",
                    "midi": 53,
                    "time": 129.51024597500052,
                    "velocity": 0.5354330708661418,
                    "duration": 0.1358024250000085
                },
                {
                    "name": "E3",
                    "midi": 52,
                    "time": 129.62752988750051,
                    "velocity": 0.5433070866141733,
                    "duration": 0.1358024250000085
                },
                {
                    "name": "C#3",
                    "midi": 49,
                    "time": 129.75613066875053,
                    "velocity": 0.5275590551181102,
                    "duration": 0.13580242499998008
                },
                {
                    "name": "C3",
                    "midi": 48,
                    "time": 129.8816450312505,
                    "velocity": 0.5196850393700787,
                    "duration": 0.13580242499998008
                },
                {
                    "name": "A#2",
                    "midi": 46,
                    "time": 130.0009865562505,
                    "velocity": 0.5039370078740157,
                    "duration": 0.1358024250000085
                },
                {
                    "name": "G#2",
                    "midi": 44,
                    "time": 130.1203280812505,
                    "velocity": 0.49606299212598426,
                    "duration": 0.13580242499998008
                },
                {
                    "name": "G2",
                    "midi": 43,
                    "time": 130.2448136375005,
                    "velocity": 0.4881889763779528,
                    "duration": 0.12345674999997414
                },
                {
                    "name": "B1",
                    "midi": 35,
                    "time": 130.37135680625047,
                    "velocity": 0.4881889763779528,
                    "duration": 0.1358024250000085
                },
                {
                    "name": "B2",
                    "midi": 47,
                    "time": 130.49789997500048,
                    "velocity": 0.5118110236220472,
                    "duration": 0.1358024250000085
                },
                {
                    "name": "E3",
                    "midi": 52,
                    "time": 130.6141550812505,
                    "velocity": 0.5275590551181102,
                    "duration": 0.13580242499998008
                },
                {
                    "name": "F#3",
                    "midi": 54,
                    "time": 130.73864063750048,
                    "velocity": 0.5433070866141733,
                    "duration": 0.13580242499998008
                },
                {
                    "name": "G#3",
                    "midi": 56,
                    "time": 130.86621261250045,
                    "velocity": 0.5669291338582677,
                    "duration": 0.1358024250000085
                },
                {
                    "name": "F#3",
                    "midi": 54,
                    "time": 130.99172697500046,
                    "velocity": 0.5748031496062992,
                    "duration": 0.1358024250000085
                },
                {
                    "name": "E3",
                    "midi": 52,
                    "time": 131.10798208125047,
                    "velocity": 0.5590551181102362,
                    "duration": 0.1358024250000085
                },
                {
                    "name": "B2",
                    "midi": 47,
                    "time": 131.23143883125047,
                    "velocity": 0.5275590551181102,
                    "duration": 0.12345675000000256
                },
                {
                    "name": "B1",
                    "midi": 35,
                    "time": 131.35695319375048,
                    "velocity": 0.4881889763779528,
                    "duration": 0.13580242499998008
                },
                {
                    "name": "B2",
                    "midi": 47,
                    "time": 131.48555397500047,
                    "velocity": 0.5275590551181102,
                    "duration": 0.1358024250000085
                },
                {
                    "name": "E3",
                    "midi": 52,
                    "time": 131.60592430625047,
                    "velocity": 0.5669291338582677,
                    "duration": 0.1358024250000085
                },
                {
                    "name": "F#3",
                    "midi": 54,
                    "time": 131.72320821875047,
                    "velocity": 0.5590551181102362,
                    "duration": 0.13580242500003692
                },
                {
                    "name": "G#3",
                    "midi": 56,
                    "time": 131.8569530312505,
                    "velocity": 0.5984251968503937,
                    "duration": 0.13580242500003692
                },
                {
                    "name": "F#3",
                    "midi": 54,
                    "time": 131.97012171875053,
                    "velocity": 0.5748031496062992,
                    "duration": 0.1358024250000085
                },
                {
                    "name": "E3",
                    "midi": 52,
                    "time": 132.09975130625054,
                    "velocity": 0.5826771653543307,
                    "duration": 0.1358024250000085
                },
                {
                    "name": "B2",
                    "midi": 47,
                    "time": 132.21909283125055,
                    "velocity": 0.5511811023622047,
                    "duration": 0.12345674999997414
                },
                {
                    "name": "B1",
                    "midi": 35,
                    "time": 132.34152077500053,
                    "velocity": 0.5039370078740157,
                    "duration": 0.1358024250000085
                },
                {
                    "name": "B2",
                    "midi": 47,
                    "time": 132.46497752500053,
                    "velocity": 0.5118110236220472,
                    "duration": 0.13580242499998008
                },
                {
                    "name": "F3",
                    "midi": 53,
                    "time": 132.58946308125053,
                    "velocity": 0.5275590551181102,
                    "duration": 0.13580242499998008
                },
                {
                    "name": "G#3",
                    "midi": 56,
                    "time": 132.7160062500005,
                    "velocity": 0.5590551181102362,
                    "duration": 0.1358024250000085
                },
                {
                    "name": "B3",
                    "midi": 59,
                    "time": 132.84460703125052,
                    "velocity": 0.5748031496062992,
                    "duration": 0.1358024250000085
                },
                {
                    "name": "A#3",
                    "midi": 58,
                    "time": 132.95777571875053,
                    "velocity": 0.5748031496062992,
                    "duration": 0.1358024250000085
                },
                {
                    "name": "G#3",
                    "midi": 56,
                    "time": 133.08123246875053,
                    "velocity": 0.5669291338582677,
                    "duration": 0.1358024250000085
                },
                {
                    "name": "F#3",
                    "midi": 54,
                    "time": 133.20777563750053,
                    "velocity": 0.5590551181102362,
                    "duration": 0.1358024250000085
                },
                {
                    "name": "F3",
                    "midi": 53,
                    "time": 133.33123238750053,
                    "velocity": 0.5590551181102362,
                    "duration": 0.1358024250000085
                },
                {
                    "name": "D#3",
                    "midi": 51,
                    "time": 133.45674675000055,
                    "velocity": 0.5590551181102362,
                    "duration": 0.1358024250000085
                },
                {
                    "name": "D3",
                    "midi": 50,
                    "time": 133.58020350000055,
                    "velocity": 0.5669291338582677,
                    "duration": 0.1358024250000085
                },
                {
                    "name": "B2",
                    "midi": 47,
                    "time": 133.70263144375056,
                    "velocity": 0.5590551181102362,
                    "duration": 0.1358024250000085
                },
                {
                    "name": "A#2",
                    "midi": 46,
                    "time": 133.83226103125057,
                    "velocity": 0.5511811023622047,
                    "duration": 0.13580242499998008
                },
                {
                    "name": "G#2",
                    "midi": 44,
                    "time": 133.95160255625055,
                    "velocity": 0.5275590551181102,
                    "duration": 0.1358024250000085
                },
                {
                    "name": "F#2",
                    "midi": 42,
                    "time": 134.07197288750055,
                    "velocity": 0.5039370078740157,
                    "duration": 0.1358024250000085
                },
                {
                    "name": "F2",
                    "midi": 41,
                    "time": 134.19748725000056,
                    "velocity": 0.4881889763779528,
                    "duration": 0.12345675000000256
                },
                {
                    "name": "A#1",
                    "midi": 34,
                    "time": 134.31991519375057,
                    "velocity": 0.4645669291338583,
                    "duration": 0.13580242499998008
                },
                {
                    "name": "A#2",
                    "midi": 46,
                    "time": 134.44954478125055,
                    "velocity": 0.4251968503937008,
                    "duration": 0.1358024250000085
                },
                {
                    "name": "D#3",
                    "midi": 51,
                    "time": 134.56888630625056,
                    "velocity": 0.3543307086614173,
                    "duration": 0.1358024250000085
                },
                {
                    "name": "F3",
                    "midi": 53,
                    "time": 134.69542947500057,
                    "velocity": 0.3779527559055118,
                    "duration": 0.13580242499998008
                },
                {
                    "name": "G3",
                    "midi": 55,
                    "time": 134.81785741875055,
                    "velocity": 0.3937007874015748,
                    "duration": 0.1358024250000085
                },
                {
                    "name": "F3",
                    "midi": 53,
                    "time": 134.94131416875055,
                    "velocity": 0.3700787401574803,
                    "duration": 0.13580242499998008
                },
                {
                    "name": "D#3",
                    "midi": 51,
                    "time": 135.06271330625054,
                    "velocity": 0.3543307086614173,
                    "duration": 0.13580242499998008
                },
                {
                    "name": "A#2",
                    "midi": 46,
                    "time": 135.18925647500052,
                    "velocity": 0.33858267716535434,
                    "duration": 0.12345675000000256
                },
                {
                    "name": "A#1",
                    "midi": 34,
                    "time": 135.30654038750052,
                    "velocity": 0.2992125984251969,
                    "duration": 0.1358024250000085
                },
                {
                    "name": "A#2",
                    "midi": 46,
                    "time": 135.43719878125052,
                    "velocity": 0.3228346456692913,
                    "duration": 0.1358024250000085
                },
                {
                    "name": "D#3",
                    "midi": 51,
                    "time": 135.55242508125053,
                    "velocity": 0.3464566929133858,
                    "duration": 0.13580242499998008
                },
                {
                    "name": "F3",
                    "midi": 53,
                    "time": 135.68411228125052,
                    "velocity": 0.36220472440944884,
                    "duration": 0.13580242499998008
                },
                {
                    "name": "G3",
                    "midi": 55,
                    "time": 135.8044826125005,
                    "velocity": 0.3858267716535433,
                    "duration": 0.13580242500003692
                },
                {
                    "name": "F3",
                    "midi": 53,
                    "time": 135.92176652500052,
                    "velocity": 0.3779527559055118,
                    "duration": 0.1358024250000085
                },
                {
                    "name": "D#3",
                    "midi": 51,
                    "time": 136.05242491875052,
                    "velocity": 0.3543307086614173,
                    "duration": 0.1358024250000085
                },
                {
                    "name": "A#2",
                    "midi": 46,
                    "time": 136.17279525000052,
                    "velocity": 0.3464566929133858,
                    "duration": 0.12345674999997414
                },
                {
                    "name": "B1",
                    "midi": 35,
                    "time": 136.2921367750005,
                    "velocity": 0.2440944881889764,
                    "duration": 0.13580242499998008
                },
                {
                    "name": "B2",
                    "midi": 47,
                    "time": 136.41456471875048,
                    "velocity": 0.25984251968503935,
                    "duration": 0.1358024250000085
                },
                {
                    "name": "D3",
                    "midi": 50,
                    "time": 136.5380214687505,
                    "velocity": 0.2677165354330709,
                    "duration": 0.1358024250000085
                },
                {
                    "name": "G3",
                    "midi": 55,
                    "time": 136.6666222500005,
                    "velocity": 0.2755905511811024,
                    "duration": 0.1358024250000085
                },
                {
                    "name": "D4",
                    "midi": 62,
                    "time": 136.7941942250005,
                    "velocity": 0.28346456692913385,
                    "duration": 0.1358024250000085
                },
                {
                    "name": "G3",
                    "midi": 55,
                    "time": 136.9094205250005,
                    "velocity": 0.2755905511811024,
                    "duration": 0.13580242499998008
                },
                {
                    "name": "D3",
                    "midi": 50,
                    "time": 137.0318484687505,
                    "velocity": 0.2677165354330709,
                    "duration": 0.13580242499998008
                },
                {
                    "name": "B2",
                    "midi": 47,
                    "time": 137.15736283125048,
                    "velocity": 0.25196850393700787,
                    "duration": 0.12345674999997414
                },
                {
                    "name": "B1",
                    "midi": 35,
                    "time": 137.28802122500045,
                    "velocity": 0.2440944881889764,
                    "duration": 0.1358024250000085
                },
                {
                    "name": "B2",
                    "midi": 47,
                    "time": 137.41044916875046,
                    "velocity": 0.2440944881889764,
                    "duration": 0.1358024250000085
                },
                {
                    "name": "D3",
                    "midi": 50,
                    "time": 137.53390591875046,
                    "velocity": 0.25984251968503935,
                    "duration": 0.1358024250000085
                },
                {
                    "name": "G3",
                    "midi": 55,
                    "time": 137.65633386250047,
                    "velocity": 0.2677165354330709,
                    "duration": 0.13580242500003692
                },
                {
                    "name": "D4",
                    "midi": 62,
                    "time": 137.77567538750048,
                    "velocity": 0.2755905511811024,
                    "duration": 0.1358024250000085
                },
                {
                    "name": "G3",
                    "midi": 55,
                    "time": 137.9042761687505,
                    "velocity": 0.2677165354330709,
                    "duration": 0.13580242499998008
                },
                {
                    "name": "D3",
                    "midi": 50,
                    "time": 138.02979053125048,
                    "velocity": 0.2677165354330709,
                    "duration": 0.13580242499998008
                },
                {
                    "name": "B2",
                    "midi": 47,
                    "time": 138.15221847500047,
                    "velocity": 0.25984251968503935,
                    "duration": 0.12345675000000256
                },
                {
                    "name": "C2",
                    "midi": 36,
                    "time": 138.26847358125048,
                    "velocity": 0.25196850393700787,
                    "duration": 0.1358024250000085
                },
                {
                    "name": "G2",
                    "midi": 43,
                    "time": 138.39501675000048,
                    "velocity": 0.2283464566929134,
                    "duration": 0.13580242499998008
                },
                {
                    "name": "C3",
                    "midi": 48,
                    "time": 138.51332946875047,
                    "velocity": 0.23622047244094488,
                    "duration": 0.1358024250000085
                },
                {
                    "name": "D3",
                    "midi": 50,
                    "time": 138.63678621875047,
                    "velocity": 0.2440944881889764,
                    "duration": 0.1358024250000085
                },
                {
                    "name": "D#3",
                    "midi": 51,
                    "time": 138.76024296875048,
                    "velocity": 0.25196850393700787,
                    "duration": 0.1358024250000085
                },
                {
                    "name": "G3",
                    "midi": 55,
                    "time": 138.88678613750048,
                    "velocity": 0.25984251968503935,
                    "duration": 0.1358024250000085
                },
                {
                    "name": "C4",
                    "midi": 60,
                    "time": 139.01435811250047,
                    "velocity": 0.2677165354330709,
                    "duration": 0.1358024250000085
                },
                {
                    "name": "D4",
                    "midi": 62,
                    "time": 139.13472844375048,
                    "velocity": 0.2755905511811024,
                    "duration": 0.13580242500003692
                },
                {
                    "name": "D#4",
                    "midi": 63,
                    "time": 139.2550987750005,
                    "velocity": 0.2755905511811024,
                    "duration": 0.1358024250000085
                },
                {
                    "name": "D4",
                    "midi": 62,
                    "time": 139.38061313750052,
                    "velocity": 0.2755905511811024,
                    "duration": 0.13580242499998008
                },
                {
                    "name": "C4",
                    "midi": 60,
                    "time": 139.5030410812505,
                    "velocity": 0.2755905511811024,
                    "duration": 0.1358024250000085
                },
                {
                    "name": "G3",
                    "midi": 55,
                    "time": 139.6326706687505,
                    "velocity": 0.2677165354330709,
                    "duration": 0.1358024250000085
                },
                {
                    "name": "D#3",
                    "midi": 51,
                    "time": 139.74892577500052,
                    "velocity": 0.2677165354330709,
                    "duration": 0.1358024250000085
                },
                {
                    "name": "D3",
                    "midi": 50,
                    "time": 139.87135371875053,
                    "velocity": 0.25984251968503935,
                    "duration": 0.13580242499998008
                },
                {
                    "name": "C3",
                    "midi": 48,
                    "time": 139.9999545000005,
                    "velocity": 0.25196850393700787,
                    "duration": 0.13580242499998008
                },
                {
                    "name": "G2",
                    "midi": 43,
                    "time": 140.1213536375005,
                    "velocity": 0.25196850393700787,
                    "duration": 0.12345674999997414
                },
                {
                    "name": "F1",
                    "midi": 29,
                    "time": 140.2499544187505,
                    "velocity": 0.2755905511811024,
                    "duration": 0.1358024250000085
                },
                {
                    "name": "C#2",
                    "midi": 37,
                    "time": 140.3662095250005,
                    "velocity": 0.2755905511811024,
                    "duration": 0.13580242499998008
                },
                {
                    "name": "F2",
                    "midi": 41,
                    "time": 140.4978967250005,
                    "velocity": 0.28346456692913385,
                    "duration": 0.13580242499998008
                },
                {
                    "name": "G2",
                    "midi": 43,
                    "time": 140.61312302500048,
                    "velocity": 0.2992125984251969,
                    "duration": 0.13580242499998008
                },
                {
                    "name": "G#2",
                    "midi": 44,
                    "time": 140.73555096875046,
                    "velocity": 0.30708661417322836,
                    "duration": 0.13580242499998008
                },
                {
                    "name": "C#3",
                    "midi": 49,
                    "time": 140.86003652500045,
                    "velocity": 0.31496062992125984,
                    "duration": 0.1358024250000085
                },
                {
                    "name": "F3",
                    "midi": 53,
                    "time": 140.99069491875045,
                    "velocity": 0.33070866141732286,
                    "duration": 0.1358024250000085
                },
                {
                    "name": "G3",
                    "midi": 55,
                    "time": 141.10797883125045,
                    "velocity": 0.33858267716535434,
                    "duration": 0.1358024250000085
                },
                {
                    "name": "G#3",
                    "midi": 56,
                    "time": 141.23555080625044,
                    "velocity": 0.3464566929133858,
                    "duration": 0.13580242500003692
                },
                {
                    "name": "G3",
                    "midi": 55,
                    "time": 141.35592113750047,
                    "velocity": 0.3464566929133858,
                    "duration": 0.1358024250000085
                },
                {
                    "name": "F3",
                    "midi": 53,
                    "time": 141.4814355000005,
                    "velocity": 0.33858267716535434,
                    "duration": 0.13580242499998008
                },
                {
                    "name": "C#3",
                    "midi": 49,
                    "time": 141.60694986250047,
                    "velocity": 0.33070866141732286,
                    "duration": 0.13580242499998008
                },
                {
                    "name": "G#2",
                    "midi": 44,
                    "time": 141.73246422500046,
                    "velocity": 0.3228346456692913,
                    "duration": 0.13580242499998008
                },
                {
                    "name": "F2",
                    "midi": 41,
                    "time": 141.85694978125045,
                    "velocity": 0.31496062992125984,
                    "duration": 0.13580242499998008
                },
                {
                    "name": "C#2",
                    "midi": 37,
                    "time": 141.98040653125042,
                    "velocity": 0.31496062992125984,
                    "duration": 0.1358024250000085
                },
                {
                    "name": "G#1",
                    "midi": 32,
                    "time": 142.09460402500042,
                    "velocity": 0.30708661417322836,
                    "duration": 0.12345675000003098
                },
                {
                    "name": "G1",
                    "midi": 31,
                    "time": 142.21806077500045,
                    "velocity": 0.2992125984251969,
                    "duration": 0.12345675000000256
                },
                {
                    "name": "E2",
                    "midi": 40,
                    "time": 142.47011830625044,
                    "velocity": 0.33070866141732286,
                    "duration": 0.1358024250000085
                },
                {
                    "name": "D#2",
                    "midi": 39,
                    "time": 142.59563266875045,
                    "velocity": 0.33858267716535434,
                    "duration": 0.13580242499998008
                },
                {
                    "name": "F2",
                    "midi": 41,
                    "time": 142.72011822500045,
                    "velocity": 0.33858267716535434,
                    "duration": 0.1358024250000085
                },
                {
                    "name": "E2",
                    "midi": 40,
                    "time": 142.83431571875045,
                    "velocity": 0.3464566929133858,
                    "duration": 0.1358024250000085
                },
                {
                    "name": "F#2",
                    "midi": 42,
                    "time": 142.96703172500045,
                    "velocity": 0.3464566929133858,
                    "duration": 0.1358024250000085
                },
                {
                    "name": "F2",
                    "midi": 41,
                    "time": 143.09048847500046,
                    "velocity": 0.3543307086614173,
                    "duration": 0.1358024250000085
                },
                {
                    "name": "G2",
                    "midi": 43,
                    "time": 143.20880119375047,
                    "velocity": 0.3543307086614173,
                    "duration": 0.13580242499998008
                },
                {
                    "name": "F#2",
                    "midi": 42,
                    "time": 143.33431555625046,
                    "velocity": 0.3543307086614173,
                    "duration": 0.13580242499998008
                },
                {
                    "name": "G#2",
                    "midi": 44,
                    "time": 143.45880111250045,
                    "velocity": 0.36220472440944884,
                    "duration": 0.13580242499998008
                },
                {
                    "name": "G2",
                    "midi": 43,
                    "time": 143.57917144375043,
                    "velocity": 0.3543307086614173,
                    "duration": 0.1358024250000085
                },
                {
                    "name": "A2",
                    "midi": 45,
                    "time": 143.70159938750044,
                    "velocity": 0.3700787401574803,
                    "duration": 0.1358024250000085
                },
                {
                    "name": "G#2",
                    "midi": 44,
                    "time": 143.83225778125043,
                    "velocity": 0.3779527559055118,
                    "duration": 0.1358024250000085
                },
                {
                    "name": "A#2",
                    "midi": 46,
                    "time": 143.95571453125044,
                    "velocity": 0.3858267716535433,
                    "duration": 0.13580242499998008
                },
                {
                    "name": "A2",
                    "midi": 45,
                    "time": 144.07711366875043,
                    "velocity": 0.3779527559055118,
                    "duration": 0.13580242499998008
                },
                {
                    "name": "B2",
                    "midi": 47,
                    "time": 144.19851280625042,
                    "velocity": 0.3858267716535433,
                    "duration": 0.13580242499998008
                },
                {
                    "name": "A#2",
                    "midi": 46,
                    "time": 144.3178543312504,
                    "velocity": 0.3937007874015748,
                    "duration": 0.1358024250000085
                },
                {
                    "name": "C3",
                    "midi": 48,
                    "time": 144.4402822750004,
                    "velocity": 0.3937007874015748,
                    "duration": 0.13580242499998008
                },
                {
                    "name": "B2",
                    "midi": 47,
                    "time": 144.5647678312504,
                    "velocity": 0.3858267716535433,
                    "duration": 0.1358024250000085
                },
                {
                    "name": "C#3",
                    "midi": 49,
                    "time": 144.6923398062504,
                    "velocity": 0.4094488188976378,
                    "duration": 0.1358024250000085
                },
                {
                    "name": "C3",
                    "midi": 48,
                    "time": 144.8147677500004,
                    "velocity": 0.41732283464566927,
                    "duration": 0.13580242499998008
                },
                {
                    "name": "D3",
                    "midi": 50,
                    "time": 144.9361668875004,
                    "velocity": 0.41732283464566927,
                    "duration": 0.13580242499998008
                },
                {
                    "name": "C#3",
                    "midi": 49,
                    "time": 145.0585948312504,
                    "velocity": 0.4094488188976378,
                    "duration": 0.1358024250000085
                },
                {
                    "name": "D#3",
                    "midi": 51,
                    "time": 145.1851380000004,
                    "velocity": 0.41732283464566927,
                    "duration": 0.1358024250000085
                },
                {
                    "name": "D3",
                    "midi": 50,
                    "time": 145.3106523625004,
                    "velocity": 0.4015748031496063,
                    "duration": 0.1358024250000085
                },
                {
                    "name": "E3",
                    "midi": 52,
                    "time": 145.4371955312504,
                    "velocity": 0.4251968503937008,
                    "duration": 0.1358024250000085
                },
                {
                    "name": "D#3",
                    "midi": 51,
                    "time": 145.5575658625004,
                    "velocity": 0.4330708661417323,
                    "duration": 0.1358024250000085
                },
                {
                    "name": "F3",
                    "midi": 53,
                    "time": 145.68410903125042,
                    "velocity": 0.4409448818897638,
                    "duration": 0.1358024250000085
                },
                {
                    "name": "E3",
                    "midi": 52,
                    "time": 145.79933533125043,
                    "velocity": 0.4251968503937008,
                    "duration": 0.1358024250000085
                },
                {
                    "name": "F#3",
                    "midi": 54,
                    "time": 145.92587850000044,
                    "velocity": 0.4409448818897638,
                    "duration": 0.1358024250000085
                },
                {
                    "name": "F3",
                    "midi": 53,
                    "time": 146.04624883125044,
                    "velocity": 0.4330708661417323,
                    "duration": 0.1358024250000085
                },
                {
                    "name": "G3",
                    "midi": 55,
                    "time": 146.17690722500043,
                    "velocity": 0.44881889763779526,
                    "duration": 0.1358024250000085
                },
                {
                    "name": "F#3",
                    "midi": 54,
                    "time": 146.29624875000044,
                    "velocity": 0.4330708661417323,
                    "duration": 0.13580242499998008
                },
                {
                    "name": "G#3",
                    "midi": 56,
                    "time": 146.41764788750044,
                    "velocity": 0.44881889763779526,
                    "duration": 0.13580242499998008
                },
                {
                    "name": "G3",
                    "midi": 55,
                    "time": 146.54316225000042,
                    "velocity": 0.4409448818897638,
                    "duration": 0.13580242499998008
                },
                {
                    "name": "A#3",
                    "midi": 58,
                    "time": 146.66764780625041,
                    "velocity": 0.44881889763779526,
                    "duration": 0.13580242499998008
                },
                {
                    "name": "G#3",
                    "midi": 56,
                    "time": 146.7880181375004,
                    "velocity": 0.4251968503937008,
                    "duration": 0.1358024250000085
                },
                {
                    "name": "G3",
                    "midi": 55,
                    "time": 146.9114748875004,
                    "velocity": 0.41732283464566927,
                    "duration": 0.13580242499998008
                },
                {
                    "name": "F3",
                    "midi": 53,
                    "time": 147.03287402500038,
                    "velocity": 0.3937007874015748,
                    "duration": 0.13580242499998008
                },
                {
                    "name": "D#3",
                    "midi": 51,
                    "time": 147.15838838750037,
                    "velocity": 0.41732283464566927,
                    "duration": 0.13580242499998008
                },
                {
                    "name": "D3",
                    "midi": 50,
                    "time": 147.28081633125035,
                    "velocity": 0.3779527559055118,
                    "duration": 0.13580242499998008
                },
                {
                    "name": "F3",
                    "midi": 53,
                    "time": 147.41250353125034,
                    "velocity": 0.4015748031496063,
                    "duration": 0.13580242499998008
                },
                {
                    "name": "D#3",
                    "midi": 51,
                    "time": 147.53390266875033,
                    "velocity": 0.3700787401574803,
                    "duration": 0.13580242499998008
                },
                {
                    "name": "G3",
                    "midi": 55,
                    "time": 147.6573594187503,
                    "velocity": 0.4094488188976378,
                    "duration": 0.1358024250000085
                },
                {
                    "name": "F3",
                    "midi": 53,
                    "time": 147.77978736250031,
                    "velocity": 0.3858267716535433,
                    "duration": 0.1358024250000085
                },
                {
                    "name": "D#3",
                    "midi": 51,
                    "time": 147.90324411250032,
                    "velocity": 0.4015748031496063,
                    "duration": 0.1358024250000085
                },
                {
                    "name": "D3",
                    "midi": 50,
                    "time": 148.02155683125034,
                    "velocity": 0.3700787401574803,
                    "duration": 0.13580242499998008
                },
                {
                    "name": "C3",
                    "midi": 48,
                    "time": 148.1511864187503,
                    "velocity": 0.4015748031496063,
                    "duration": 0.13580242499998008
                },
                {
                    "name": "B2",
                    "midi": 47,
                    "time": 148.2664127187503,
                    "velocity": 0.3779527559055118,
                    "duration": 0.1358024250000085
                },
                {
                    "name": "D3",
                    "midi": 50,
                    "time": 148.3970711125003,
                    "velocity": 0.41732283464566927,
                    "duration": 0.1358024250000085
                },
                {
                    "name": "C3",
                    "midi": 48,
                    "time": 148.5225854750003,
                    "velocity": 0.3858267716535433,
                    "duration": 0.1358024250000085
                },
                {
                    "name": "A#2",
                    "midi": 46,
                    "time": 148.6398693875003,
                    "velocity": 0.4015748031496063,
                    "duration": 0.1358024250000085
                },
                {
                    "name": "G#2",
                    "midi": 44,
                    "time": 148.7602397187503,
                    "velocity": 0.3937007874015748,
                    "duration": 0.1358024250000085
                },
                {
                    "name": "G2",
                    "midi": 43,
                    "time": 148.88884050000033,
                    "velocity": 0.3937007874015748,
                    "duration": 0.13580242499998008
                },
                {
                    "name": "F#2",
                    "midi": 42,
                    "time": 149.00715321875032,
                    "velocity": 0.3858267716535433,
                    "duration": 0.13580242499998008
                },
                {
                    "name": "G2",
                    "midi": 43,
                    "time": 149.1398692250003,
                    "velocity": 0.3858267716535433,
                    "duration": 0.1358024250000085
                },
                {
                    "name": "G#2",
                    "midi": 44,
                    "time": 149.2602395562503,
                    "velocity": 0.3700787401574803,
                    "duration": 0.1358024250000085
                },
                {
                    "name": "F2",
                    "midi": 41,
                    "time": 149.3826675000003,
                    "velocity": 0.3779527559055118,
                    "duration": 0.13580242499998008
                },
                {
                    "name": "G2",
                    "midi": 43,
                    "time": 149.5071530562503,
                    "velocity": 0.36220472440944884,
                    "duration": 0.13580242499998008
                },
                {
                    "name": "D#2",
                    "midi": 39,
                    "time": 149.63060980625028,
                    "velocity": 0.36220472440944884,
                    "duration": 0.1358024250000085
                },
                {
                    "name": "F2",
                    "midi": 41,
                    "time": 149.7561241687503,
                    "velocity": 0.3464566929133858,
                    "duration": 0.13580242499998008
                },
                {
                    "name": "D2",
                    "midi": 38,
                    "time": 149.87855211250027,
                    "velocity": 0.3464566929133858,
                    "duration": 0.1358024250000085
                },
                {
                    "name": "D#2",
                    "midi": 39,
                    "time": 150.00200886250028,
                    "velocity": 0.33858267716535434,
                    "duration": 0.12345675000000256
                },
                {
                    "name": "C2",
                    "midi": 36,
                    "time": 150.12340800000027,
                    "velocity": 0.33858267716535434,
                    "duration": 0.12345675000000256
                },
                {
                    "name": "C#4",
                    "midi": 61,
                    "time": 150.37340791875027,
                    "velocity": 0.3858267716535433,
                    "duration": 0.13580242499998008
                },
                {
                    "name": "C4",
                    "midi": 60,
                    "time": 150.49789347500027,
                    "velocity": 0.3779527559055118,
                    "duration": 0.13580242499998008
                },
                {
                    "name": "A#3",
                    "midi": 58,
                    "time": 150.61311977500026,
                    "velocity": 0.3700787401574803,
                    "duration": 0.1358024250000085
                },
                {
                    "name": "G3",
                    "midi": 55,
                    "time": 150.73966294375026,
                    "velocity": 0.36220472440944884,
                    "duration": 0.1358024250000085
                },
                {
                    "name": "G#3",
                    "midi": 56,
                    "time": 150.86723491875026,
                    "velocity": 0.3543307086614173,
                    "duration": 0.1358024250000085
                },
                {
                    "name": "G3",
                    "midi": 55,
                    "time": 150.98246121875027,
                    "velocity": 0.3464566929133858,
                    "duration": 0.1358024250000085
                },
                {
                    "name": "E3",
                    "midi": 52,
                    "time": 151.11003319375027,
                    "velocity": 0.3464566929133858,
                    "duration": 0.1358024250000085
                },
                {
                    "name": "C3",
                    "midi": 48,
                    "time": 151.22937471875028,
                    "velocity": 0.33858267716535434,
                    "duration": 0.13580242499998008
                },
                {
                    "name": "C#3",
                    "midi": 49,
                    "time": 151.35797550000026,
                    "velocity": 0.33070866141732286,
                    "duration": 0.1358024250000085
                },
                {
                    "name": "C3",
                    "midi": 48,
                    "time": 151.47834583125027,
                    "velocity": 0.3228346456692913,
                    "duration": 0.1358024250000085
                },
                {
                    "name": "A#2",
                    "midi": 46,
                    "time": 151.5997449687503,
                    "velocity": 0.31496062992125984,
                    "duration": 0.13580242499998008
                },
                {
                    "name": "G2",
                    "midi": 43,
                    "time": 151.72525933125027,
                    "velocity": 0.30708661417322836,
                    "duration": 0.13580242499998008
                },
                {
                    "name": "G#2",
                    "midi": 44,
                    "time": 151.85694653125026,
                    "velocity": 0.2992125984251969,
                    "duration": 0.13580242499998008
                },
                {
                    "name": "G2",
                    "midi": 43,
                    "time": 151.97525925000025,
                    "velocity": 0.29133858267716534,
                    "duration": 0.13580242499998008
                },
                {
                    "name": "F2",
                    "midi": 41,
                    "time": 152.09974480625024,
                    "velocity": 0.2755905511811024,
                    "duration": 0.1358024250000085
                },
                {
                    "name": "C2",
                    "midi": 36,
                    "time": 152.21702871875024,
                    "velocity": 0.25196850393700787,
                    "duration": 0.1358024250000085
                },
                {
                    "name": "F2",
                    "midi": 41,
                    "time": 152.34460069375024,
                    "velocity": 0.2755905511811024,
                    "duration": 0.1358024250000085
                },
                {
                    "name": "C2",
                    "midi": 36,
                    "time": 152.47423028125024,
                    "velocity": 0.2204724409448819,
                    "duration": 0.1358024250000085
                },
                {
                    "name": "F2",
                    "midi": 41,
                    "time": 152.59665822500025,
                    "velocity": 0.2755905511811024,
                    "duration": 0.1358024250000085
                },
                {
                    "name": "C2",
                    "midi": 36,
                    "time": 152.71394213750025,
                    "velocity": 0.2440944881889764,
                    "duration": 0.1358024250000085
                },
                {
                    "name": "F2",
                    "midi": 41,
                    "time": 152.83637008125027,
                    "velocity": 0.2755905511811024,
                    "duration": 0.13580242499998008
                },
                {
                    "name": "C2",
                    "midi": 36,
                    "time": 152.96085563750026,
                    "velocity": 0.2204724409448819,
                    "duration": 0.13580242499998008
                },
                {
                    "name": "F2",
                    "midi": 41,
                    "time": 153.08122596875023,
                    "velocity": 0.2755905511811024,
                    "duration": 0.1358024250000085
                },
                {
                    "name": "C2",
                    "midi": 36,
                    "time": 153.21497078125023,
                    "velocity": 0.25196850393700787,
                    "duration": 0.1358024250000085
                },
                {
                    "name": "F2",
                    "midi": 41,
                    "time": 153.32916827500023,
                    "velocity": 0.2755905511811024,
                    "duration": 0.1358024250000085
                },
                {
                    "name": "C2",
                    "midi": 36,
                    "time": 153.45159621875024,
                    "velocity": 0.23622047244094488,
                    "duration": 0.13580242499998008
                },
                {
                    "name": "F2",
                    "midi": 41,
                    "time": 153.57711058125022,
                    "velocity": 0.2755905511811024,
                    "duration": 0.13580242499998008
                },
                {
                    "name": "C2",
                    "midi": 36,
                    "time": 153.70159613750022,
                    "velocity": 0.25196850393700787,
                    "duration": 0.13580242499998008
                },
                {
                    "name": "F2",
                    "midi": 41,
                    "time": 153.8301969187502,
                    "velocity": 0.2755905511811024,
                    "duration": 0.13580242499998008
                },
                {
                    "name": "C2",
                    "midi": 36,
                    "time": 153.9526248625002,
                    "velocity": 0.2204724409448819,
                    "duration": 0.13580242499998008
                },
                {
                    "name": "C3",
                    "midi": 48,
                    "time": 154.07402400000018,
                    "velocity": 0.2755905511811024,
                    "duration": 0.12345674999997414
                },
                {
                    "name": "C#4",
                    "midi": 61,
                    "time": 154.31579346875014,
                    "velocity": 0.3700787401574803,
                    "duration": 0.1358024250000085
                },
                {
                    "name": "C4",
                    "midi": 60,
                    "time": 154.44130783125016,
                    "velocity": 0.36220472440944884,
                    "duration": 0.13580242499998008
                },
                {
                    "name": "A#3",
                    "midi": 58,
                    "time": 154.56373577500014,
                    "velocity": 0.3543307086614173,
                    "duration": 0.13580242499998008
                },
                {
                    "name": "G3",
                    "midi": 55,
                    "time": 154.68822133125013,
                    "velocity": 0.3464566929133858,
                    "duration": 0.1358024250000085
                },
                {
                    "name": "G#3",
                    "midi": 56,
                    "time": 154.81579330625013,
                    "velocity": 0.3464566929133858,
                    "duration": 0.1358024250000085
                },
                {
                    "name": "G3",
                    "midi": 55,
                    "time": 154.93410602500015,
                    "velocity": 0.3464566929133858,
                    "duration": 0.13580242499998008
                },
                {
                    "name": "E3",
                    "midi": 52,
                    "time": 155.06270680625013,
                    "velocity": 0.33858267716535434,
                    "duration": 0.13580242499998008
                },
                {
                    "name": "C3",
                    "midi": 48,
                    "time": 155.18101952500012,
                    "velocity": 0.33070866141732286,
                    "duration": 0.13580242499998008
                },
                {
                    "name": "C#3",
                    "midi": 49,
                    "time": 155.3075626937501,
                    "velocity": 0.3228346456692913,
                    "duration": 0.1358024250000085
                },
                {
                    "name": "C3",
                    "midi": 48,
                    "time": 155.4351346687501,
                    "velocity": 0.31496062992125984,
                    "duration": 0.1358024250000085
                },
                {
                    "name": "A#2",
                    "midi": 46,
                    "time": 155.5534473875001,
                    "velocity": 0.30708661417322836,
                    "duration": 0.1358024250000085
                },
                {
                    "name": "G2",
                    "midi": 43,
                    "time": 155.67381771875012,
                    "velocity": 0.2992125984251969,
                    "duration": 0.1358024250000085
                },
                {
                    "name": "G#2",
                    "midi": 44,
                    "time": 155.80036088750012,
                    "velocity": 0.29133858267716534,
                    "duration": 0.1358024250000085
                },
                {
                    "name": "G2",
                    "midi": 43,
                    "time": 155.9279328625001,
                    "velocity": 0.28346456692913385,
                    "duration": 0.1358024250000085
                },
                {
                    "name": "F2",
                    "midi": 41,
                    "time": 156.05344722500013,
                    "velocity": 0.2755905511811024,
                    "duration": 0.1358024250000085
                },
                {
                    "name": "C2",
                    "midi": 36,
                    "time": 156.17381755625013,
                    "velocity": 0.25984251968503935,
                    "duration": 0.1358024250000085
                },
                {
                    "name": "F2",
                    "midi": 41,
                    "time": 156.30036072500013,
                    "velocity": 0.2755905511811024,
                    "duration": 0.1358024250000085
                },
                {
                    "name": "C2",
                    "midi": 36,
                    "time": 156.41455821875013,
                    "velocity": 0.23622047244094488,
                    "duration": 0.1358024250000085
                },
                {
                    "name": "F2",
                    "midi": 41,
                    "time": 156.54624541875015,
                    "velocity": 0.2755905511811024,
                    "duration": 0.13580242499998008
                },
                {
                    "name": "C2",
                    "midi": 36,
                    "time": 156.67175978125013,
                    "velocity": 0.2677165354330709,
                    "duration": 0.13580242499998008
                },
                {
                    "name": "F2",
                    "midi": 41,
                    "time": 156.7911013062501,
                    "velocity": 0.2755905511811024,
                    "duration": 0.1358024250000085
                },
                {
                    "name": "C2",
                    "midi": 36,
                    "time": 156.91455805625012,
                    "velocity": 0.2283464566929134,
                    "duration": 0.1358024250000085
                },
                {
                    "name": "F2",
                    "midi": 41,
                    "time": 157.03801480625012,
                    "velocity": 0.2755905511811024,
                    "duration": 0.1358024250000085
                },
                {
                    "name": "C2",
                    "midi": 36,
                    "time": 157.16147155625012,
                    "velocity": 0.25984251968503935,
                    "duration": 0.1358024250000085
                },
                {
                    "name": "F2",
                    "midi": 41,
                    "time": 157.28081308125013,
                    "velocity": 0.2755905511811024,
                    "duration": 0.13580242499998008
                },
                {
                    "name": "C2",
                    "midi": 36,
                    "time": 157.41250028125012,
                    "velocity": 0.2440944881889764,
                    "duration": 0.13580242499998008
                },
                {
                    "name": "F2",
                    "midi": 41,
                    "time": 157.5277265812501,
                    "velocity": 0.2755905511811024,
                    "duration": 0.13580242499998008
                },
                {
                    "name": "C2",
                    "midi": 36,
                    "time": 157.6491257187501,
                    "velocity": 0.25984251968503935,
                    "duration": 0.13580242499998008
                },
                {
                    "name": "F2",
                    "midi": 41,
                    "time": 157.77464008125008,
                    "velocity": 0.2755905511811024,
                    "duration": 0.1358024250000085
                },
                {
                    "name": "C2",
                    "midi": 36,
                    "time": 157.8980968312501,
                    "velocity": 0.25196850393700787,
                    "duration": 0.12345675000000256
                },
                {
                    "name": "C3",
                    "midi": 48,
                    "time": 158.0246400000001,
                    "velocity": 0.2755905511811024,
                    "duration": 0.12345675000000256
                },
                {
                    "name": "G#5",
                    "midi": 80,
                    "time": 158.26640946875008,
                    "velocity": 0.6377952755905512,
                    "duration": 0.12345675000000256
                },
                {
                    "name": "G5",
                    "midi": 79,
                    "time": 158.3950102500001,
                    "velocity": 0.6299212598425197,
                    "duration": 0.13580242499998008
                },
                {
                    "name": "E5",
                    "midi": 76,
                    "time": 158.5194958062501,
                    "velocity": 0.6062992125984252,
                    "duration": 0.1358024250000085
                },
                {
                    "name": "C5",
                    "midi": 72,
                    "time": 158.6470677812501,
                    "velocity": 0.5984251968503937,
                    "duration": 0.1358024250000085
                },
                {
                    "name": "C#5",
                    "midi": 73,
                    "time": 158.7633228875001,
                    "velocity": 0.6377952755905512,
                    "duration": 0.1358024250000085
                },
                {
                    "name": "C5",
                    "midi": 72,
                    "time": 158.8898660562501,
                    "velocity": 0.6062992125984252,
                    "duration": 0.1358024250000085
                },
                {
                    "name": "A#4",
                    "midi": 70,
                    "time": 159.0153804187501,
                    "velocity": 0.6220472440944882,
                    "duration": 0.13580242499998008
                },
                {
                    "name": "G4",
                    "midi": 67,
                    "time": 159.1398659750001,
                    "velocity": 0.6062992125984252,
                    "duration": 0.13580242499998008
                },
                {
                    "name": "G#4",
                    "midi": 68,
                    "time": 159.2643515312501,
                    "velocity": 0.6614173228346457,
                    "duration": 0.13580242499998008
                },
                {
                    "name": "G4",
                    "midi": 67,
                    "time": 159.38677947500008,
                    "velocity": 0.6377952755905512,
                    "duration": 0.1358024250000085
                },
                {
                    "name": "E4",
                    "midi": 64,
                    "time": 159.50714980625008,
                    "velocity": 0.6377952755905512,
                    "duration": 0.1358024250000085
                },
                {
                    "name": "C4",
                    "midi": 60,
                    "time": 159.62752013750008,
                    "velocity": 0.6220472440944882,
                    "duration": 0.1358024250000085
                },
                {
                    "name": "C#4",
                    "midi": 61,
                    "time": 159.7561209187501,
                    "velocity": 0.6614173228346457,
                    "duration": 0.13580242499998008
                },
                {
                    "name": "C4",
                    "midi": 60,
                    "time": 159.87237602500008,
                    "velocity": 0.6299212598425197,
                    "duration": 0.1358024250000085
                },
                {
                    "name": "A#3",
                    "midi": 58,
                    "time": 159.99994800000007,
                    "velocity": 0.6299212598425197,
                    "duration": 0.1358024250000085
                },
                {
                    "name": "G3",
                    "midi": 55,
                    "time": 160.1254623625001,
                    "velocity": 0.6299212598425197,
                    "duration": 0.1358024250000085
                },
                {
                    "name": "G#3",
                    "midi": 56,
                    "time": 160.2458326937501,
                    "velocity": 0.6692913385826772,
                    "duration": 0.1358024250000085
                },
                {
                    "name": "G3",
                    "midi": 55,
                    "time": 160.3754622812501,
                    "velocity": 0.6456692913385826,
                    "duration": 0.1358024250000085
                },
                {
                    "name": "E3",
                    "midi": 52,
                    "time": 160.4896597750001,
                    "velocity": 0.6535433070866141,
                    "duration": 0.1358024250000085
                },
                {
                    "name": "C3",
                    "midi": 48,
                    "time": 160.6162029437501,
                    "velocity": 0.6377952755905512,
                    "duration": 0.1358024250000085
                },
                {
                    "name": "C#3",
                    "midi": 49,
                    "time": 160.7355444687501,
                    "velocity": 0.6614173228346457,
                    "duration": 0.1358024250000085
                },
                {
                    "name": "C3",
                    "midi": 48,
                    "time": 160.8662028625001,
                    "velocity": 0.6614173228346457,
                    "duration": 0.1358024250000085
                },
                {
                    "name": "A#2",
                    "midi": 46,
                    "time": 160.98451558125012,
                    "velocity": 0.6535433070866141,
                    "duration": 0.13580242499998008
                },
                {
                    "name": "G2",
                    "midi": 43,
                    "time": 161.1069435250001,
                    "velocity": 0.6535433070866141,
                    "duration": 0.13580242499998008
                },
                {
                    "name": "G#2",
                    "midi": 44,
                    "time": 161.2314290812501,
                    "velocity": 0.6929133858267716,
                    "duration": 0.13580242499998008
                },
                {
                    "name": "G2",
                    "midi": 43,
                    "time": 161.35488583125007,
                    "velocity": 0.6614173228346457,
                    "duration": 0.1358024250000085
                },
                {
                    "name": "E2",
                    "midi": 40,
                    "time": 161.48554422500007,
                    "velocity": 0.6535433070866141,
                    "duration": 0.1358024250000085
                },
                {
                    "name": "C2",
                    "midi": 36,
                    "time": 161.60797216875008,
                    "velocity": 0.6535433070866141,
                    "duration": 0.13580242499998008
                },
                {
                    "name": "C#2",
                    "midi": 37,
                    "time": 161.72319846875007,
                    "velocity": 0.6614173228346457,
                    "duration": 0.13580242499998008
                },
                {
                    "name": "C2",
                    "midi": 36,
                    "time": 161.85179925000006,
                    "velocity": 0.7322834645669292,
                    "duration": 0.12345675000000256
                },
                {
                    "name": "F1",
                    "midi": 29,
                    "time": 161.97525600000006,
                    "velocity": 0.8031496062992126,
                    "duration": 0.9670778750000011
                },
                {
                    "name": "F2",
                    "midi": 41,
                    "time": 161.97525600000006,
                    "velocity": 0.8031496062992126,
                    "duration": 0.9670778750000011
                },
                {
                    "name": "F1",
                    "midi": 29,
                    "time": 162.96291000000005,
                    "velocity": 0.7637795275590551,
                    "duration": 0.9259256249999908
                },
                {
                    "name": "F2",
                    "midi": 41,
                    "time": 162.96291000000005,
                    "velocity": 0.7637795275590551,
                    "duration": 0.9259256249999908
                },
                {
                    "name": "C1",
                    "midi": 24,
                    "time": 163.95056400000004,
                    "velocity": 0.7795275590551181,
                    "duration": 0.24691350000000511
                },
                {
                    "name": "C2",
                    "midi": 36,
                    "time": 163.95056400000004,
                    "velocity": 0.7795275590551181,
                    "duration": 0.24691350000000511
                },
                {
                    "name": "C1",
                    "midi": 24,
                    "time": 164.44439100000005,
                    "velocity": 0.7480314960629921,
                    "duration": 0.24691350000000511
                },
                {
                    "name": "C2",
                    "midi": 36,
                    "time": 164.44439100000005,
                    "velocity": 0.7480314960629921,
                    "duration": 0.24691350000000511
                }
            ],
            "controlChanges": {
                "7": [
                    {
                        "number": 7,
                        "time": 0,
                        "value": 0.7874015748031497
                    }
                ],
                "10": [
                    {
                        "number": 10,
                        "time": 0,
                        "value": 0.5039370078740157
                    }
                ],
                "64": [
                    {
                        "number": 64,
                        "time": 0,
                        "value": 0
                    },
                    {
                        "number": 64,
                        "time": 0.24691349999999995,
                        "value": 0.007874015748031496
                    },
                    {
                        "number": 64,
                        "time": 0.9290120437499998,
                        "value": 0
                    },
                    {
                        "number": 64,
                        "time": 0.9938268374999998,
                        "value": 0.007874015748031496
                    },
                    {
                        "number": 64,
                        "time": 1.9403285874999998,
                        "value": 0
                    },
                    {
                        "number": 64,
                        "time": 2.486624706249999,
                        "value": 1
                    },
                    {
                        "number": 64,
                        "time": 3.3858013687499997,
                        "value": 0
                    },
                    {
                        "number": 64,
                        "time": 3.4567889999999997,
                        "value": 1
                    },
                    {
                        "number": 64,
                        "time": 4.044237368749999,
                        "value": 0
                    },
                    {
                        "number": 64,
                        "time": 4.2448545875,
                        "value": 0.007874015748031496
                    },
                    {
                        "number": 64,
                        "time": 4.9032905875,
                        "value": 0
                    },
                    {
                        "number": 64,
                        "time": 4.955759706249999,
                        "value": 0.007874015748031496
                    },
                    {
                        "number": 64,
                        "time": 5.847734725,
                        "value": 0
                    },
                    {
                        "number": 64,
                        "time": 6.437240706250001,
                        "value": 1
                    },
                    {
                        "number": 64,
                        "time": 7.307610793750001,
                        "value": 0
                    },
                    {
                        "number": 64,
                        "time": 7.407405000000002,
                        "value": 1
                    },
                    {
                        "number": 64,
                        "time": 7.959873956250002,
                        "value": 0
                    },
                    {
                        "number": 64,
                        "time": 14.832299706250009,
                        "value": 1
                    },
                    {
                        "number": 64,
                        "time": 15.755138912500012,
                        "value": 0
                    },
                    {
                        "number": 64,
                        "time": 15.852875506250012,
                        "value": 1
                    },
                    {
                        "number": 64,
                        "time": 16.20884246875001,
                        "value": 0
                    },
                    {
                        "number": 64,
                        "time": 16.29629100000001,
                        "value": 1
                    },
                    {
                        "number": 64,
                        "time": 16.73970649375001,
                        "value": 0
                    },
                    {
                        "number": 64,
                        "time": 16.79011800000001,
                        "value": 1
                    },
                    {
                        "number": 64,
                        "time": 17.247936781250008,
                        "value": 0
                    },
                    {
                        "number": 64,
                        "time": 17.312751575000004,
                        "value": 1
                    },
                    {
                        "number": 64,
                        "time": 17.70472675625,
                        "value": 0
                    },
                    {
                        "number": 64,
                        "time": 17.777772,
                        "value": 1
                    },
                    {
                        "number": 64,
                        "time": 18.24999406875,
                        "value": 0
                    },
                    {
                        "number": 64,
                        "time": 18.300405575,
                        "value": 1
                    },
                    {
                        "number": 64,
                        "time": 18.729417781250003,
                        "value": 0
                    },
                    {
                        "number": 64,
                        "time": 18.808635862500005,
                        "value": 1
                    },
                    {
                        "number": 64,
                        "time": 19.66563146875001,
                        "value": 0
                    },
                    {
                        "number": 64,
                        "time": 19.753080000000015,
                        "value": 1
                    },
                    {
                        "number": 64,
                        "time": 20.574067387500016,
                        "value": 0
                    },
                    {
                        "number": 64,
                        "time": 20.740734000000018,
                        "value": 1
                    },
                    {
                        "number": 64,
                        "time": 21.633737825000015,
                        "value": 0
                    },
                    {
                        "number": 64,
                        "time": 21.728388000000017,
                        "value": 1
                    },
                    {
                        "number": 64,
                        "time": 22.585383606250016,
                        "value": 0
                    },
                    {
                        "number": 64,
                        "time": 22.759251862500015,
                        "value": 1
                    },
                    {
                        "number": 64,
                        "time": 23.637852400000014,
                        "value": 0
                    },
                    {
                        "number": 64,
                        "time": 23.703696000000015,
                        "value": 1
                    },
                    {
                        "number": 64,
                        "time": 24.618304756250016,
                        "value": 0
                    },
                    {
                        "number": 64,
                        "time": 24.691350000000014,
                        "value": 1
                    },
                    {
                        "number": 64,
                        "time": 25.569950537500013,
                        "value": 0
                    },
                    {
                        "number": 64,
                        "time": 25.679004000000013,
                        "value": 1
                    },
                    {
                        "number": 64,
                        "time": 26.142995618750014,
                        "value": 0
                    },
                    {
                        "number": 64,
                        "time": 26.184147868750014,
                        "value": 1
                    },
                    {
                        "number": 64,
                        "time": 26.608016043750013,
                        "value": 0
                    },
                    {
                        "number": 64,
                        "time": 26.666658000000012,
                        "value": 1
                    },
                    {
                        "number": 64,
                        "time": 27.130649618750013,
                        "value": 0
                    },
                    {
                        "number": 64,
                        "time": 27.177974706250012,
                        "value": 1
                    },
                    {
                        "number": 64,
                        "time": 27.589497206250005,
                        "value": 0
                    },
                    {
                        "number": 64,
                        "time": 27.654312000000008,
                        "value": 1
                    },
                    {
                        "number": 64,
                        "time": 28.104929137500005,
                        "value": 0
                    },
                    {
                        "number": 64,
                        "time": 28.133735712500005,
                        "value": 1
                    },
                    {
                        "number": 64,
                        "time": 28.584352850000002,
                        "value": 0
                    },
                    {
                        "number": 64,
                        "time": 28.637850775,
                        "value": 1
                    },
                    {
                        "number": 64,
                        "time": 29.0925831375,
                        "value": 0
                    },
                    {
                        "number": 64,
                        "time": 29.135793,
                        "value": 1
                    },
                    {
                        "number": 64,
                        "time": 29.593611781250004,
                        "value": 0
                    },
                    {
                        "number": 64,
                        "time": 29.629620000000003,
                        "value": 1
                    },
                    {
                        "number": 64,
                        "time": 30.052459368750007,
                        "value": 0
                    },
                    {
                        "number": 64,
                        "time": 30.123447000000006,
                        "value": 1
                    },
                    {
                        "number": 64,
                        "time": 30.552459206250006,
                        "value": 0
                    },
                    {
                        "number": 64,
                        "time": 30.617274000000005,
                        "value": 1
                    },
                    {
                        "number": 64,
                        "time": 31.540113206250005,
                        "value": 0
                    },
                    {
                        "number": 64,
                        "time": 35.59875386249998,
                        "value": 1
                    },
                    {
                        "number": 64,
                        "time": 35.99175784999999,
                        "value": 0
                    },
                    {
                        "number": 64,
                        "time": 36.049370999999994,
                        "value": 1
                    },
                    {
                        "number": 64,
                        "time": 36.53599635625,
                        "value": 0
                    },
                    {
                        "number": 64,
                        "time": 36.5864078625,
                        "value": 1
                    },
                    {
                        "number": 64,
                        "time": 37.00101678125,
                        "value": 0
                    },
                    {
                        "number": 64,
                        "time": 37.065831575000004,
                        "value": 1
                    },
                    {
                        "number": 64,
                        "time": 37.4876421375,
                        "value": 0
                    },
                    {
                        "number": 64,
                        "time": 37.55965857500001,
                        "value": 1
                    },
                    {
                        "number": 64,
                        "time": 38.00307406875001,
                        "value": 0
                    },
                    {
                        "number": 64,
                        "time": 38.07509050625001,
                        "value": 1
                    },
                    {
                        "number": 64,
                        "time": 38.46809449375001,
                        "value": 0
                    },
                    {
                        "number": 64,
                        "time": 38.55451421875001,
                        "value": 1
                    },
                    {
                        "number": 64,
                        "time": 39.411509825,
                        "value": 0
                    },
                    {
                        "number": 64,
                        "time": 39.50616,
                        "value": 1
                    },
                    {
                        "number": 64,
                        "time": 40.406365468749996,
                        "value": 0
                    },
                    {
                        "number": 64,
                        "time": 40.49381399999999,
                        "value": 1
                    },
                    {
                        "number": 64,
                        "time": 41.372414537499985,
                        "value": 0
                    },
                    {
                        "number": 64,
                        "time": 41.481467999999985,
                        "value": 1
                    },
                    {
                        "number": 64,
                        "time": 41.91768184999998,
                        "value": 0
                    },
                    {
                        "number": 64,
                        "time": 41.99689993124998,
                        "value": 1
                    },
                    {
                        "number": 64,
                        "time": 42.38167346874998,
                        "value": 0
                    },
                    {
                        "number": 64,
                        "time": 42.44031542499998,
                        "value": 1
                    },
                    {
                        "number": 64,
                        "time": 42.90533584999998,
                        "value": 0
                    },
                    {
                        "number": 64,
                        "time": 42.96294899999998,
                        "value": 1
                    },
                    {
                        "number": 64,
                        "time": 43.383730756249975,
                        "value": 0
                    },
                    {
                        "number": 64,
                        "time": 43.492784218749975,
                        "value": 1
                    },
                    {
                        "number": 64,
                        "time": 44.40842178124997,
                        "value": 0
                    },
                    {
                        "number": 64,
                        "time": 44.48043821874997,
                        "value": 1
                    },
                    {
                        "number": 64,
                        "time": 45.34463546874996,
                        "value": 0
                    },
                    {
                        "number": 64,
                        "time": 45.49792759999997,
                        "value": 1
                    },
                    {
                        "number": 64,
                        "time": 45.86829784999997,
                        "value": 0
                    },
                    {
                        "number": 64,
                        "time": 45.94031428749997,
                        "value": 1
                    },
                    {
                        "number": 64,
                        "time": 46.405334712499965,
                        "value": 0
                    },
                    {
                        "number": 64,
                        "time": 46.455746218749965,
                        "value": 1
                    },
                    {
                        "number": 64,
                        "time": 46.877556781249965,
                        "value": 0
                    },
                    {
                        "number": 64,
                        "time": 46.92796828749997,
                        "value": 1
                    },
                    {
                        "number": 64,
                        "time": 47.34154839999997,
                        "value": 0
                    },
                    {
                        "number": 64,
                        "time": 47.40739199999997,
                        "value": 1
                    },
                    {
                        "number": 64,
                        "time": 48.09566338124997,
                        "value": 0
                    },
                    {
                        "number": 64,
                        "time": 48.16562220624997,
                        "value": 1
                    },
                    {
                        "number": 64,
                        "time": 48.653276368749964,
                        "value": 0
                    },
                    {
                        "number": 64,
                        "time": 48.703687874999964,
                        "value": 1
                    },
                    {
                        "number": 64,
                        "time": 49.129613662499956,
                        "value": 0
                    },
                    {
                        "number": 64,
                        "time": 49.19751487499996,
                        "value": 1
                    },
                    {
                        "number": 64,
                        "time": 49.64093036874997,
                        "value": 0
                    },
                    {
                        "number": 64,
                        "time": 49.69134187499997,
                        "value": 1
                    },
                    {
                        "number": 64,
                        "time": 49.98866688124997,
                        "value": 0
                    },
                    {
                        "number": 64,
                        "time": 51.38372815624999,
                        "value": 1
                    },
                    {
                        "number": 64,
                        "time": 51.81171155624999,
                        "value": 0
                    },
                    {
                        "number": 64,
                        "time": 51.844633356249986,
                        "value": 1
                    },
                    {
                        "number": 64,
                        "time": 52.33846035624998,
                        "value": 0
                    },
                    {
                        "number": 64,
                        "time": 52.38578544374998,
                        "value": 1
                    },
                    {
                        "number": 64,
                        "time": 52.82097048749997,
                        "value": 0
                    },
                    {
                        "number": 64,
                        "time": 52.853892287499974,
                        "value": 1
                    },
                    {
                        "number": 64,
                        "time": 53.30759584374998,
                        "value": 0
                    },
                    {
                        "number": 64,
                        "time": 55.55553749999997,
                        "value": 0.007874015748031496
                    },
                    {
                        "number": 64,
                        "time": 56.65533138124996,
                        "value": 0
                    },
                    {
                        "number": 64,
                        "time": 57.401215912499964,
                        "value": 0.007874015748031496
                    },
                    {
                        "number": 64,
                        "time": 57.74792361874997,
                        "value": 0
                    },
                    {
                        "number": 64,
                        "time": 57.77467258124997,
                        "value": 0.007874015748031496
                    },
                    {
                        "number": 64,
                        "time": 58.23352016874997,
                        "value": 0
                    },
                    {
                        "number": 64,
                        "time": 58.26541316249997,
                        "value": 0.007874015748031496
                    },
                    {
                        "number": 64,
                        "time": 58.74175045624997,
                        "value": 0
                    },
                    {
                        "number": 64,
                        "time": 59.49998066249998,
                        "value": 0.007874015748031496
                    },
                    {
                        "number": 64,
                        "time": 59.74175013124998,
                        "value": 0
                    },
                    {
                        "number": 64,
                        "time": 59.782902381249976,
                        "value": 0.007874015748031496
                    },
                    {
                        "number": 64,
                        "time": 60.19956891249998,
                        "value": 0
                    },
                    {
                        "number": 64,
                        "time": 60.235577131249975,
                        "value": 0.007874015748031496
                    },
                    {
                        "number": 64,
                        "time": 60.71088561874997,
                        "value": 0
                    },
                    {
                        "number": 64,
                        "time": 61.36109116874997,
                        "value": 0.007874015748031496
                    },
                    {
                        "number": 64,
                        "time": 61.70471245624997,
                        "value": 0
                    },
                    {
                        "number": 64,
                        "time": 61.72837499999998,
                        "value": 0.007874015748031496
                    },
                    {
                        "number": 64,
                        "time": 62.20471229374998,
                        "value": 0
                    },
                    {
                        "number": 64,
                        "time": 62.22837483749998,
                        "value": 0.007874015748031496
                    },
                    {
                        "number": 64,
                        "time": 62.69545287499997,
                        "value": 0
                    },
                    {
                        "number": 64,
                        "time": 63.33022633124998,
                        "value": 0.007874015748031496
                    },
                    {
                        "number": 64,
                        "time": 63.69236613124998,
                        "value": 0
                    },
                    {
                        "number": 64,
                        "time": 63.71294225624999,
                        "value": 0.007874015748031496
                    },
                    {
                        "number": 64,
                        "time": 64.1501849125,
                        "value": 0
                    },
                    {
                        "number": 64,
                        "time": 64.18310671249999,
                        "value": 1
                    },
                    {
                        "number": 64,
                        "time": 64.64092549374998,
                        "value": 0
                    },
                    {
                        "number": 64,
                        "time": 64.67384729374997,
                        "value": 1
                    },
                    {
                        "number": 64,
                        "time": 65.27569894999999,
                        "value": 0
                    },
                    {
                        "number": 64,
                        "time": 65.31273597499998,
                        "value": 0.007874015748031496
                    },
                    {
                        "number": 64,
                        "time": 65.66150129374998,
                        "value": 0
                    },
                    {
                        "number": 64,
                        "time": 65.68310622499999,
                        "value": 0.007874015748031496
                    },
                    {
                        "number": 64,
                        "time": 66.144011425,
                        "value": 0
                    },
                    {
                        "number": 64,
                        "time": 66.18413486875001,
                        "value": 1
                    },
                    {
                        "number": 64,
                        "time": 66.63063678125002,
                        "value": 0
                    },
                    {
                        "number": 64,
                        "time": 66.65532813125002,
                        "value": 1
                    },
                    {
                        "number": 64,
                        "time": 67.23145963125003,
                        "value": 0
                    },
                    {
                        "number": 64,
                        "time": 67.26335262500004,
                        "value": 0.007874015748031496
                    },
                    {
                        "number": 64,
                        "time": 67.60388749375004,
                        "value": 0
                    },
                    {
                        "number": 64,
                        "time": 67.64812616250003,
                        "value": 0.007874015748031496
                    },
                    {
                        "number": 64,
                        "time": 68.48351683750002,
                        "value": 0
                    },
                    {
                        "number": 64,
                        "time": 68.52466908750002,
                        "value": 0.007874015748031496
                    },
                    {
                        "number": 64,
                        "time": 69.10388700625,
                        "value": 0
                    },
                    {
                        "number": 64,
                        "time": 70.12343400000002,
                        "value": 1
                    },
                    {
                        "number": 64,
                        "time": 70.95779586875001,
                        "value": 0
                    },
                    {
                        "number": 64,
                        "time": 71.15429786250002,
                        "value": 1
                    },
                    {
                        "number": 64,
                        "time": 71.55450349375002,
                        "value": 0
                    },
                    {
                        "number": 64,
                        "time": 71.61211664375001,
                        "value": 1
                    },
                    {
                        "number": 64,
                        "time": 72.06273378125002,
                        "value": 0
                    },
                    {
                        "number": 64,
                        "time": 72.14915350625002,
                        "value": 1
                    },
                    {
                        "number": 64,
                        "time": 72.56376242500002,
                        "value": 0
                    },
                    {
                        "number": 64,
                        "time": 72.63577886250002,
                        "value": 1
                    },
                    {
                        "number": 64,
                        "time": 73.01335075625003,
                        "value": 0
                    },
                    {
                        "number": 64,
                        "time": 73.12137541250003,
                        "value": 1
                    },
                    {
                        "number": 64,
                        "time": 73.98042863125002,
                        "value": 0
                    },
                    {
                        "number": 64,
                        "time": 74.10902941250002,
                        "value": 1
                    },
                    {
                        "number": 64,
                        "time": 74.9320744125,
                        "value": 0
                    },
                    {
                        "number": 64,
                        "time": 75.090510575,
                        "value": 1
                    },
                    {
                        "number": 64,
                        "time": 75.49791784999998,
                        "value": 0
                    },
                    {
                        "number": 64,
                        "time": 75.55553099999997,
                        "value": 1
                    },
                    {
                        "number": 64,
                        "time": 75.98351439999996,
                        "value": 0
                    },
                    {
                        "number": 64,
                        "time": 76.04935799999997,
                        "value": 1
                    },
                    {
                        "number": 64,
                        "time": 76.51437842499996,
                        "value": 0
                    },
                    {
                        "number": 64,
                        "time": 76.57199157499996,
                        "value": 1
                    },
                    {
                        "number": 64,
                        "time": 76.97939884999998,
                        "value": 0
                    },
                    {
                        "number": 64,
                        "time": 77.04524244999999,
                        "value": 1
                    },
                    {
                        "number": 64,
                        "time": 78.02466599999998,
                        "value": 0
                    },
                    {
                        "number": 64,
                        "time": 78.09050959999999,
                        "value": 1
                    },
                    {
                        "number": 64,
                        "time": 79.20059154375001,
                        "value": 0
                    },
                    {
                        "number": 64,
                        "time": 79.3065585875,
                        "value": 0.007874015748031496
                    },
                    {
                        "number": 64,
                        "time": 79.98865713125002,
                        "value": 0
                    },
                    {
                        "number": 64,
                        "time": 80.02980938125003,
                        "value": 0.007874015748031496
                    },
                    {
                        "number": 64,
                        "time": 80.94647575,
                        "value": 0
                    },
                    {
                        "number": 64,
                        "time": 81.50511754375002,
                        "value": 1
                    },
                    {
                        "number": 64,
                        "time": 82.37548763125002,
                        "value": 0
                    },
                    {
                        "number": 64,
                        "time": 82.46910900000003,
                        "value": 1
                    },
                    {
                        "number": 64,
                        "time": 83.08021991250001,
                        "value": 0
                    },
                    {
                        "number": 64,
                        "time": 83.20984950000002,
                        "value": 0.007874015748031496
                    },
                    {
                        "number": 64,
                        "time": 83.91561058750003,
                        "value": 0
                    },
                    {
                        "number": 64,
                        "time": 84.00305911875003,
                        "value": 0.007874015748031496
                    },
                    {
                        "number": 64,
                        "time": 84.89091891250003,
                        "value": 0
                    },
                    {
                        "number": 64,
                        "time": 85.44956070625001,
                        "value": 1
                    },
                    {
                        "number": 64,
                        "time": 86.34873736875002,
                        "value": 0
                    },
                    {
                        "number": 64,
                        "time": 86.41972500000003,
                        "value": 1
                    },
                    {
                        "number": 64,
                        "time": 87.04832561875004,
                        "value": 0
                    },
                    {
                        "number": 64,
                        "time": 94.81478400000012,
                        "value": 1
                    },
                    {
                        "number": 64,
                        "time": 95.25099785000013,
                        "value": 0
                    },
                    {
                        "number": 64,
                        "time": 95.30861100000013,
                        "value": 1
                    },
                    {
                        "number": 64,
                        "time": 95.72219111250014,
                        "value": 0
                    },
                    {
                        "number": 64,
                        "time": 95.79523635625014,
                        "value": 1
                    },
                    {
                        "number": 64,
                        "time": 96.27466006875015,
                        "value": 0
                    },
                    {
                        "number": 64,
                        "time": 96.32507157500017,
                        "value": 1
                    },
                    {
                        "number": 64,
                        "time": 96.74688213750017,
                        "value": 0
                    },
                    {
                        "number": 64,
                        "time": 96.79009200000017,
                        "value": 1
                    },
                    {
                        "number": 64,
                        "time": 97.75614106875021,
                        "value": 0
                    },
                    {
                        "number": 64,
                        "time": 97.79626451250022,
                        "value": 1
                    },
                    {
                        "number": 64,
                        "time": 98.67795146875021,
                        "value": 0
                    },
                    {
                        "number": 64,
                        "time": 98.7654000000002,
                        "value": 1
                    },
                    {
                        "number": 64,
                        "time": 99.6656054687502,
                        "value": 0
                    },
                    {
                        "number": 64,
                        "time": 99.7530540000002,
                        "value": 1
                    },
                    {
                        "number": 64,
                        "time": 100.6388561812502,
                        "value": 0
                    },
                    {
                        "number": 64,
                        "time": 100.76642815625021,
                        "value": 1
                    },
                    {
                        "number": 64,
                        "time": 101.68823855625023,
                        "value": 0
                    },
                    {
                        "number": 64,
                        "time": 101.76128380000023,
                        "value": 1
                    },
                    {
                        "number": 64,
                        "time": 102.61416418125023,
                        "value": 0
                    },
                    {
                        "number": 64,
                        "time": 102.71601600000024,
                        "value": 1
                    },
                    {
                        "number": 64,
                        "time": 103.63062475625024,
                        "value": 0
                    },
                    {
                        "number": 64,
                        "time": 103.70367000000024,
                        "value": 1
                    },
                    {
                        "number": 64,
                        "time": 104.58227053750025,
                        "value": 0
                    },
                    {
                        "number": 64,
                        "time": 104.75305237500025,
                        "value": 1
                    },
                    {
                        "number": 64,
                        "time": 105.16766129375027,
                        "value": 0
                    },
                    {
                        "number": 64,
                        "time": 105.19441025625026,
                        "value": 1
                    },
                    {
                        "number": 64,
                        "time": 105.64708500625026,
                        "value": 0
                    },
                    {
                        "number": 64,
                        "time": 105.67897800000027,
                        "value": 1
                    },
                    {
                        "number": 64,
                        "time": 106.15840171250028,
                        "value": 0
                    },
                    {
                        "number": 64,
                        "time": 106.18720828750028,
                        "value": 1
                    },
                    {
                        "number": 64,
                        "time": 106.61107646250028,
                        "value": 0
                    },
                    {
                        "number": 64,
                        "time": 106.68515051250029,
                        "value": 1
                    },
                    {
                        "number": 64,
                        "time": 107.12445078125029,
                        "value": 0
                    },
                    {
                        "number": 64,
                        "time": 107.16045900000029,
                        "value": 1
                    },
                    {
                        "number": 64,
                        "time": 107.62547942500028,
                        "value": 0
                    },
                    {
                        "number": 64,
                        "time": 107.65428600000028,
                        "value": 1
                    },
                    {
                        "number": 64,
                        "time": 108.12239284375028,
                        "value": 0
                    },
                    {
                        "number": 64,
                        "time": 108.15531464375029,
                        "value": 1
                    },
                    {
                        "number": 64,
                        "time": 108.6090182000003,
                        "value": 0
                    },
                    {
                        "number": 64,
                        "time": 108.65325686875032,
                        "value": 1
                    },
                    {
                        "number": 64,
                        "time": 109.11416206875032,
                        "value": 0
                    },
                    {
                        "number": 64,
                        "time": 109.14708386875031,
                        "value": 1
                    },
                    {
                        "number": 64,
                        "time": 109.59358578125033,
                        "value": 0
                    },
                    {
                        "number": 64,
                        "time": 109.64399728750031,
                        "value": 1
                    },
                    {
                        "number": 64,
                        "time": 110.55963485000034,
                        "value": 0
                    },
                    {
                        "number": 64,
                        "time": 114.0976995437504,
                        "value": 1
                    },
                    {
                        "number": 64,
                        "time": 114.57506564375039,
                        "value": 0
                    },
                    {
                        "number": 64,
                        "time": 114.6038722187504,
                        "value": 1
                    },
                    {
                        "number": 64,
                        "time": 115.01127949375041,
                        "value": 0
                    },
                    {
                        "number": 64,
                        "time": 115.07609428750041,
                        "value": 1
                    },
                    {
                        "number": 64,
                        "time": 115.5411147125004,
                        "value": 0
                    },
                    {
                        "number": 64,
                        "time": 115.5987278625004,
                        "value": 1
                    },
                    {
                        "number": 64,
                        "time": 115.9917318500004,
                        "value": 0
                    },
                    {
                        "number": 64,
                        "time": 116.0565466437504,
                        "value": 1
                    },
                    {
                        "number": 64,
                        "time": 116.47732840000039,
                        "value": 0
                    },
                    {
                        "number": 64,
                        "time": 116.56889215625039,
                        "value": 1
                    },
                    {
                        "number": 64,
                        "time": 116.9937891375004,
                        "value": 0
                    },
                    {
                        "number": 64,
                        "time": 117.0411142250004,
                        "value": 1
                    },
                    {
                        "number": 64,
                        "time": 117.48350091250039,
                        "value": 0
                    },
                    {
                        "number": 64,
                        "time": 117.53082600000039,
                        "value": 1
                    },
                    {
                        "number": 64,
                        "time": 118.44954998125041,
                        "value": 0
                    },
                    {
                        "number": 64,
                        "time": 118.51848000000041,
                        "value": 1
                    },
                    {
                        "number": 64,
                        "time": 119.38267725000044,
                        "value": 0
                    },
                    {
                        "number": 64,
                        "time": 119.50613400000044,
                        "value": 1
                    },
                    {
                        "number": 64,
                        "time": 120.42074275625049,
                        "value": 0
                    },
                    {
                        "number": 64,
                        "time": 120.5195081562505,
                        "value": 1
                    },
                    {
                        "number": 64,
                        "time": 121.47012513125051,
                        "value": 0
                    },
                    {
                        "number": 64,
                        "time": 121.51024857500053,
                        "value": 1
                    },
                    {
                        "number": 64,
                        "time": 122.37444582500052,
                        "value": 0
                    },
                    {
                        "number": 64,
                        "time": 122.46909600000052,
                        "value": 1
                    },
                    {
                        "number": 64,
                        "time": 123.41354013750056,
                        "value": 0
                    },
                    {
                        "number": 64,
                        "time": 123.50716150625055,
                        "value": 1
                    },
                    {
                        "number": 64,
                        "time": 124.32094725000056,
                        "value": 0
                    },
                    {
                        "number": 64,
                        "time": 124.47423938125056,
                        "value": 1
                    },
                    {
                        "number": 64,
                        "time": 124.90839561875055,
                        "value": 0
                    },
                    {
                        "number": 64,
                        "time": 124.94954786875054,
                        "value": 1
                    },
                    {
                        "number": 64,
                        "time": 125.36724320625055,
                        "value": 0
                    },
                    {
                        "number": 64,
                        "time": 125.43205800000055,
                        "value": 1
                    },
                    {
                        "number": 64,
                        "time": 125.89090558750057,
                        "value": 0
                    },
                    {
                        "number": 64,
                        "time": 125.95572038125057,
                        "value": 1
                    },
                    {
                        "number": 64,
                        "time": 126.37238691250059,
                        "value": 0
                    },
                    {
                        "number": 64,
                        "time": 126.41971200000059,
                        "value": 0.007874015748031496
                    },
                    {
                        "number": 64,
                        "time": 127.30757179375058,
                        "value": 0
                    },
                    {
                        "number": 64,
                        "time": 127.40736600000058,
                        "value": 0.007874015748031496
                    },
                    {
                        "number": 64,
                        "time": 128.27773608750056,
                        "value": 0
                    },
                    {
                        "number": 64,
                        "time": 128.39502000000056,
                        "value": 0.007874015748031496
                    },
                    {
                        "number": 64,
                        "time": 129.3415217500005,
                        "value": 0
                    },
                    {
                        "number": 64,
                        "time": 129.9063363812505,
                        "value": 1
                    },
                    {
                        "number": 64,
                        "time": 130.30551320625048,
                        "value": 0
                    },
                    {
                        "number": 64,
                        "time": 130.37032800000048,
                        "value": 1
                    },
                    {
                        "number": 64,
                        "time": 130.79934020625046,
                        "value": 0
                    },
                    {
                        "number": 64,
                        "time": 130.85283813125045,
                        "value": 1
                    },
                    {
                        "number": 64,
                        "time": 131.29934004375048,
                        "value": 0
                    },
                    {
                        "number": 64,
                        "time": 131.35798200000048,
                        "value": 1
                    },
                    {
                        "number": 64,
                        "time": 131.8281464562505,
                        "value": 0
                    },
                    {
                        "number": 64,
                        "time": 131.88678841250052,
                        "value": 1
                    },
                    {
                        "number": 64,
                        "time": 132.29831091250054,
                        "value": 0
                    },
                    {
                        "number": 64,
                        "time": 132.34563600000052,
                        "value": 1
                    },
                    {
                        "number": 64,
                        "time": 132.7808210437505,
                        "value": 0
                    },
                    {
                        "number": 64,
                        "time": 132.82197329375052,
                        "value": 1
                    },
                    {
                        "number": 64,
                        "time": 133.26230236875054,
                        "value": 0
                    },
                    {
                        "number": 64,
                        "time": 133.33329000000055,
                        "value": 1
                    },
                    {
                        "number": 64,
                        "time": 133.80345445625056,
                        "value": 0
                    },
                    {
                        "number": 64,
                        "time": 133.86209641250056,
                        "value": 1
                    },
                    {
                        "number": 64,
                        "time": 134.25612920625056,
                        "value": 0
                    },
                    {
                        "number": 64,
                        "time": 134.32094400000057,
                        "value": 1
                    },
                    {
                        "number": 64,
                        "time": 134.75715785000057,
                        "value": 0
                    },
                    {
                        "number": 64,
                        "time": 134.80756935625055,
                        "value": 1
                    },
                    {
                        "number": 64,
                        "time": 135.22835111250052,
                        "value": 0
                    },
                    {
                        "number": 64,
                        "time": 135.30859800000053,
                        "value": 1
                    },
                    {
                        "number": 64,
                        "time": 135.7736184250005,
                        "value": 0
                    },
                    {
                        "number": 64,
                        "time": 135.8384332187505,
                        "value": 1
                    },
                    {
                        "number": 64,
                        "time": 136.2386388500005,
                        "value": 0
                    },
                    {
                        "number": 64,
                        "time": 136.2962520000005,
                        "value": 1
                    },
                    {
                        "number": 64,
                        "time": 136.7314370437505,
                        "value": 0
                    },
                    {
                        "number": 64,
                        "time": 136.7900790000005,
                        "value": 1
                    },
                    {
                        "number": 64,
                        "time": 137.20777433750047,
                        "value": 0
                    },
                    {
                        "number": 64,
                        "time": 137.28390600000046,
                        "value": 1
                    },
                    {
                        "number": 64,
                        "time": 137.73658075000048,
                        "value": 0
                    },
                    {
                        "number": 64,
                        "time": 137.7839058375005,
                        "value": 1
                    },
                    {
                        "number": 64,
                        "time": 138.21291804375048,
                        "value": 0
                    },
                    {
                        "number": 64,
                        "time": 138.27156000000048,
                        "value": 1
                    },
                    {
                        "number": 64,
                        "time": 139.11415231875048,
                        "value": 0
                    },
                    {
                        "number": 64,
                        "time": 139.1974856250005,
                        "value": 1
                    },
                    {
                        "number": 64,
                        "time": 140.1851396250005,
                        "value": 0
                    },
                    {
                        "number": 64,
                        "time": 140.2468680000005,
                        "value": 1
                    },
                    {
                        "number": 64,
                        "time": 140.69336991250046,
                        "value": 0
                    },
                    {
                        "number": 64,
                        "time": 140.73349335625045,
                        "value": 1
                    },
                    {
                        "number": 64,
                        "time": 141.19851378125045,
                        "value": 0
                    },
                    {
                        "number": 64,
                        "time": 141.24583886875047,
                        "value": 1
                    },
                    {
                        "number": 64,
                        "time": 142.16044762500044,
                        "value": 0
                    },
                    {
                        "number": 64,
                        "time": 152.15632915000023,
                        "value": 0.007874015748031496
                    },
                    {
                        "number": 64,
                        "time": 153.9361639625002,
                        "value": 0
                    },
                    {
                        "number": 64,
                        "time": 156.07093693125012,
                        "value": 0.007874015748031496
                    },
                    {
                        "number": 64,
                        "time": 157.9011832500001,
                        "value": 0
                    },
                    {
                        "number": 64,
                        "time": 164.89089291250005,
                        "value": 0
                    }
                ],
                "91": [
                    {
                        "number": 91,
                        "time": 0,
                        "value": 1
                    },
                    {
                        "number": 91,
                        "time": 79.02055045,
                        "value": 0.9763779527559056
                    }
                ]
            },
            "id": 2,
            "name": "Piano left",
            "instrumentNumber": 0,
            "instrument": "acoustic grand piano",
            "instrumentFamily": "piano",
            "channelNumber": 0,
            "isPercussion": false
        },
        {
            "startTime": 0,
            "duration": 0,
            "length": 0,
            "notes": [],
            "controlChanges": {},
            "id": 3,
            "name": "Chopin: Etude Op, 10, No. 12"
        },
        {
            "startTime": 0,
            "duration": 0,
            "length": 0,
            "notes": [],
            "controlChanges": {},
            "id": 4,
            "name": "Copyright © 1999 by Bernd Krüger"
        },
        {
            "startTime": 0,
            "duration": 0,
            "length": 0,
            "notes": [],
            "controlChanges": {},
            "id": 5,
            "name": "email: bernd.krueger@piano-midi.de"
        },
        {
            "startTime": 0,
            "duration": 0,
            "length": 0,
            "notes": [],
            "controlChanges": {},
            "id": 6,
            "name": "http://www.piano-midi.de"
        },
        {
            "startTime": 0,
            "duration": 0,
            "length": 0,
            "notes": [],
            "controlChanges": {},
            "id": 7,
            "name": "Edition: 1.4.99"
        }
    ]
}