{
    "header": {
        "PPQ": 480,
        "timeSignature": [
            4,
            4
        ],
        "bpm": 52.50000656250082,
        "name": "Chopin Prelude  No. 2, Opus 28"
    },
    "startTime": 0,
    "duration": 105.14284400000012,
    "tracks": [
        {
            "startTime": 0,
            "duration": 0,
            "length": 0,
            "notes": [],
            "controlChanges": {},
            "id": 0,
            "name": "Chopin Prelude  No. 2, Opus 28"
        },
        {
            "startTime": 9.142856,
            "duration": 105.1428440000001,
            "length": 61,
            "notes": [
                {
                    "name": "E4",
                    "midi": 64,
                    "time": 9.142856,
                    "velocity": 0.4330708661417323,
                    "duration": 4.023809020833333
                },
                {
                    "name": "B3",
                    "midi": 59,
                    "time": 13.166665020833333,
                    "velocity": 0.3228346456692913,
                    "duration": 0.5595237395833337
                },
                {
                    "name": "D4",
                    "midi": 62,
                    "time": 13.726188760416667,
                    "velocity": 0.4330708661417323,
                    "duration": 4.559523239583333
                },
                {
                    "name": "D4",
                    "midi": 62,
                    "time": 18.285712,
                    "velocity": 0.4330708661417323,
                    "duration": 1.571428375
                },
                {
                    "name": "F#4",
                    "midi": 66,
                    "time": 19.857140375,
                    "velocity": 0.3464566929133858,
                    "duration": 0.14285712499999903
                },
                {
                    "name": "E4",
                    "midi": 64,
                    "time": 19.9999975,
                    "velocity": 0.4015748031496063,
                    "duration": 0.5714284999999997
                },
                {
                    "name": "D4",
                    "midi": 62,
                    "time": 20.571426,
                    "velocity": 0.41732283464566927,
                    "duration": 1.714285499999999
                },
                {
                    "name": "A3",
                    "midi": 57,
                    "time": 22.285711499999998,
                    "velocity": 0.3228346456692913,
                    "duration": 0.5714284999999997
                },
                {
                    "name": "B3",
                    "midi": 59,
                    "time": 22.857139999999998,
                    "velocity": 0.4094488188976378,
                    "duration": 1.1190474791666674
                },
                {
                    "name": "B3",
                    "midi": 59,
                    "time": 23.999996999999997,
                    "velocity": 0.3779527559055118,
                    "duration": 0.8333332291666657
                },
                {
                    "name": "B3",
                    "midi": 59,
                    "time": 24.857139749999995,
                    "velocity": 0.3464566929133858,
                    "duration": 0.2619047291666661
                },
                {
                    "name": "B3",
                    "midi": 59,
                    "time": 25.142853999999993,
                    "velocity": 0.36220472440944884,
                    "duration": 4.571428000000001
                },
                {
                    "name": "B4",
                    "midi": 71,
                    "time": 34.285709999999995,
                    "velocity": 0.4881889763779528,
                    "duration": 1.7142855000000026
                },
                {
                    "name": "F#4",
                    "midi": 66,
                    "time": 36.01190026041667,
                    "velocity": 0.41732283464566927,
                    "duration": 0.5714285000000032
                },
                {
                    "name": "A4",
                    "midi": 69,
                    "time": 36.58332876041667,
                    "velocity": 0.4645669291338583,
                    "duration": 4.559523239583335
                },
                {
                    "name": "A4",
                    "midi": 69,
                    "time": 41.142852000000005,
                    "velocity": 0.4015748031496063,
                    "duration": 1.5714283749999964
                },
                {
                    "name": "C#5",
                    "midi": 73,
                    "time": 42.714280375,
                    "velocity": 0.2992125984251969,
                    "duration": 0.14285712499999903
                },
                {
                    "name": "B4",
                    "midi": 71,
                    "time": 42.8571375,
                    "velocity": 0.3700787401574803,
                    "duration": 0.5714285000000032
                },
                {
                    "name": "A4",
                    "midi": 69,
                    "time": 43.428566000000004,
                    "velocity": 0.4015748031496063,
                    "duration": 1.7142855000000026
                },
                {
                    "name": "E4",
                    "midi": 64,
                    "time": 45.142851500000006,
                    "velocity": 0.36220472440944884,
                    "duration": 0.5714285000000032
                },
                {
                    "name": "F#4",
                    "midi": 66,
                    "time": 45.71428000000001,
                    "velocity": 0.41732283464566927,
                    "duration": 1.1190474791666674
                },
                {
                    "name": "F#4",
                    "midi": 66,
                    "time": 46.85713700000001,
                    "velocity": 0.4566929133858268,
                    "duration": 0.8333332291666693
                },
                {
                    "name": "F#4",
                    "midi": 66,
                    "time": 47.71427975000001,
                    "velocity": 0.4409448818897638,
                    "duration": 0.2619047291666661
                },
                {
                    "name": "F#4",
                    "midi": 66,
                    "time": 47.99999400000001,
                    "velocity": 0.49606299212598426,
                    "duration": 4.571427999999997
                },
                {
                    "name": "A4",
                    "midi": 69,
                    "time": 60.57142100000001,
                    "velocity": 0.4330708661417323,
                    "duration": 7.428570499999999
                },
                {
                    "name": "E4",
                    "midi": 64,
                    "time": 67.99999150000001,
                    "velocity": 0.3700787401574803,
                    "duration": 0.5714284999999961
                },
                {
                    "name": "F4",
                    "midi": 65,
                    "time": 68.59522952083334,
                    "velocity": 0.3858267716535433,
                    "duration": 4.5476184791666725
                },
                {
                    "name": "F4",
                    "midi": 65,
                    "time": 73.14284800000001,
                    "velocity": 0.36220472440944884,
                    "duration": 1.5714283749999964
                },
                {
                    "name": "A4",
                    "midi": 69,
                    "time": 74.71427637500001,
                    "velocity": 0.29133858267716534,
                    "duration": 0.14285712500000614
                },
                {
                    "name": "G4",
                    "midi": 67,
                    "time": 74.85713350000002,
                    "velocity": 0.33070866141732286,
                    "duration": 0.5714284999999961
                },
                {
                    "name": "F4",
                    "midi": 65,
                    "time": 75.42856200000001,
                    "velocity": 0.36220472440944884,
                    "duration": 1.7142855000000026
                },
                {
                    "name": "C4",
                    "midi": 60,
                    "time": 77.14284750000002,
                    "velocity": 0.33070866141732286,
                    "duration": 0.5714284999999961
                },
                {
                    "name": "D4",
                    "midi": 62,
                    "time": 77.71427600000001,
                    "velocity": 0.36220472440944884,
                    "duration": 1.1190474791666674
                },
                {
                    "name": "D4",
                    "midi": 62,
                    "time": 78.85713300000002,
                    "velocity": 0.3464566929133858,
                    "duration": 0.8333332291666693
                },
                {
                    "name": "D4",
                    "midi": 62,
                    "time": 79.71427575000003,
                    "velocity": 0.33070866141732286,
                    "duration": 0.2619047291666732
                },
                {
                    "name": "D4",
                    "midi": 62,
                    "time": 79.99999000000004,
                    "velocity": 0.36220472440944884,
                    "duration": 4.571427999999997
                },
                {
                    "name": "D4",
                    "midi": 62,
                    "time": 86.85713200000004,
                    "velocity": 0.36220472440944884,
                    "duration": 1.5714283749999964
                },
                {
                    "name": "F4",
                    "midi": 65,
                    "time": 88.42856037500003,
                    "velocity": 0.29133858267716534,
                    "duration": 0.14285712500000614
                },
                {
                    "name": "E4",
                    "midi": 64,
                    "time": 88.57141750000004,
                    "velocity": 0.33070866141732286,
                    "duration": 0.5714284999999961
                },
                {
                    "name": "D4",
                    "midi": 62,
                    "time": 89.14284600000003,
                    "velocity": 0.36220472440944884,
                    "duration": 1.7142855000000026
                },
                {
                    "name": "A3",
                    "midi": 57,
                    "time": 90.85713150000004,
                    "velocity": 0.2755905511811024,
                    "duration": 2.8571425000000232
                },
                {
                    "name": "B3",
                    "midi": 59,
                    "time": 91.42856000000003,
                    "velocity": 0.30708661417322836,
                    "duration": 1.1190474791666674
                },
                {
                    "name": "B3",
                    "midi": 59,
                    "time": 92.57141700000004,
                    "velocity": 0.3464566929133858,
                    "duration": 0.8333332291666693
                },
                {
                    "name": "B3",
                    "midi": 59,
                    "time": 93.42855975000005,
                    "velocity": 0.33070866141732286,
                    "duration": 0.2619047291666732
                },
                {
                    "name": "E3",
                    "midi": 52,
                    "time": 93.71427400000006,
                    "velocity": 0.2440944881889764,
                    "duration": 1.1428570000000065
                },
                {
                    "name": "B3",
                    "midi": 59,
                    "time": 93.71427400000006,
                    "velocity": 0.2992125984251969,
                    "duration": 1.1190474791666674
                },
                {
                    "name": "G#3",
                    "midi": 56,
                    "time": 93.71427400000006,
                    "velocity": 0.2440944881889764,
                    "duration": 1.1428570000000065
                },
                {
                    "name": "F#3",
                    "midi": 54,
                    "time": 94.85713100000007,
                    "velocity": 0.23622047244094488,
                    "duration": 1.1428570000000065
                },
                {
                    "name": "D#3",
                    "midi": 51,
                    "time": 94.85713100000007,
                    "velocity": 0.23622047244094488,
                    "duration": 1.1428570000000065
                },
                {
                    "name": "B3",
                    "midi": 59,
                    "time": 94.85713100000007,
                    "velocity": 0.29133858267716534,
                    "duration": 1.1190474791666674
                },
                {
                    "name": "B3",
                    "midi": 59,
                    "time": 95.99998800000007,
                    "velocity": 0.2992125984251969,
                    "duration": 1.8571426249999945
                },
                {
                    "name": "E3",
                    "midi": 52,
                    "time": 95.99998800000007,
                    "velocity": 0.2440944881889764,
                    "duration": 1.8571426249999945
                },
                {
                    "name": "G#3",
                    "midi": 56,
                    "time": 95.99998800000007,
                    "velocity": 0.2440944881889764,
                    "duration": 1.8571426249999945
                },
                {
                    "name": "D3",
                    "midi": 50,
                    "time": 97.85713062500007,
                    "velocity": 0.2440944881889764,
                    "duration": 2.714285375000017
                },
                {
                    "name": "E3",
                    "midi": 52,
                    "time": 97.99998775000007,
                    "velocity": 0.2440944881889764,
                    "duration": 2.571428250000011
                },
                {
                    "name": "G#3",
                    "midi": 56,
                    "time": 98.14284487500008,
                    "velocity": 0.2440944881889764,
                    "duration": 2.428571125000005
                },
                {
                    "name": "B3",
                    "midi": 59,
                    "time": 98.28570200000009,
                    "velocity": 0.2992125984251969,
                    "duration": 1.7142855000000026
                },
                {
                    "name": "C4",
                    "midi": 60,
                    "time": 99.99998750000009,
                    "velocity": 0.2992125984251969,
                    "duration": 0.5714284999999961
                },
                {
                    "name": "C3",
                    "midi": 48,
                    "time": 100.85713025000008,
                    "velocity": 0.2440944881889764,
                    "duration": 4.2857137500000135
                },
                {
                    "name": "E3",
                    "midi": 52,
                    "time": 100.99998737500009,
                    "velocity": 0.2440944881889764,
                    "duration": 4.142856625000007
                },
                {
                    "name": "A3",
                    "midi": 57,
                    "time": 101.1428445000001,
                    "velocity": 0.2992125984251969,
                    "duration": 3.9999995000000013
                }
            ],
            "controlChanges": {
                "7": [
                    {
                        "number": 7,
                        "time": 0,
                        "value": 0.7874015748031497
                    }
                ],
                "10": [
                    {
                        "number": 10,
                        "time": 0,
                        "value": 0.5039370078740157
                    }
                ],
                "67": [
                    {
                        "number": 67,
                        "time": 0,
                        "value": 1
                    }
                ],
                "91": [
                    {
                        "number": 91,
                        "time": 0,
                        "value": 1
                    }
                ]
            },
            "id": 1,
            "name": "Piano right",
            "instrumentNumber": 0,
            "instrument": "acoustic grand piano",
            "instrumentFamily": "piano",
            "channelNumber": 0,
            "isPercussion": false
        },
        {
            "startTime": 0.0023809520833333333,
            "duration": 105.14284400000012,
            "length": 281,
            "notes": [
                {
                    "name": "E2",
                    "midi": 40,
                    "time": 0.0023809520833333333,
                    "velocity": 0.2677165354330709,
                    "duration": 0.5690475479166667
                },
                {
                    "name": "B2",
                    "midi": 47,
                    "time": 0.0023809520833333333,
                    "velocity": 0.31496062992125984,
                    "duration": 0.5690475479166667
                },
                {
                    "name": "A#2",
                    "midi": 46,
                    "time": 0.5714285,
                    "velocity": 0.2204724409448819,
                    "duration": 0.5714285
                },
                {
                    "name": "G3",
                    "midi": 55,
                    "time": 0.5714285,
                    "velocity": 0.2677165354330709,
                    "duration": 0.5714285
                },
                {
                    "name": "E2",
                    "midi": 40,
                    "time": 1.142857,
                    "velocity": 0.2677165354330709,
                    "duration": 0.5714284999999999
                },
                {
                    "name": "B2",
                    "midi": 47,
                    "time": 1.142857,
                    "velocity": 0.31496062992125984,
                    "duration": 0.5714284999999999
                },
                {
                    "name": "G2",
                    "midi": 43,
                    "time": 1.7142855,
                    "velocity": 0.2204724409448819,
                    "duration": 0.5714285000000001
                },
                {
                    "name": "G3",
                    "midi": 55,
                    "time": 1.7142855,
                    "velocity": 0.2677165354330709,
                    "duration": 0.5714285000000001
                },
                {
                    "name": "E2",
                    "midi": 40,
                    "time": 2.285714,
                    "velocity": 0.2677165354330709,
                    "duration": 0.5714285000000001
                },
                {
                    "name": "B2",
                    "midi": 47,
                    "time": 2.285714,
                    "velocity": 0.31496062992125984,
                    "duration": 0.5714285000000001
                },
                {
                    "name": "A#2",
                    "midi": 46,
                    "time": 2.8571425,
                    "velocity": 0.2204724409448819,
                    "duration": 0.5714285000000001
                },
                {
                    "name": "G3",
                    "midi": 55,
                    "time": 2.8571425,
                    "velocity": 0.2677165354330709,
                    "duration": 0.5714285000000001
                },
                {
                    "name": "B2",
                    "midi": 47,
                    "time": 3.4285710000000003,
                    "velocity": 0.31496062992125984,
                    "duration": 0.5714285000000001
                },
                {
                    "name": "E2",
                    "midi": 40,
                    "time": 3.4285710000000003,
                    "velocity": 0.2677165354330709,
                    "duration": 0.5714285000000001
                },
                {
                    "name": "G2",
                    "midi": 43,
                    "time": 3.9999995000000004,
                    "velocity": 0.2125984251968504,
                    "duration": 0.5714284999999997
                },
                {
                    "name": "G3",
                    "midi": 55,
                    "time": 3.9999995000000004,
                    "velocity": 0.25984251968503935,
                    "duration": 0.5714284999999997
                },
                {
                    "name": "B2",
                    "midi": 47,
                    "time": 4.571428,
                    "velocity": 0.31496062992125984,
                    "duration": 0.5714285000000006
                },
                {
                    "name": "E2",
                    "midi": 40,
                    "time": 4.571428,
                    "velocity": 0.2677165354330709,
                    "duration": 0.5714285000000006
                },
                {
                    "name": "G3",
                    "midi": 55,
                    "time": 5.142856500000001,
                    "velocity": 0.25984251968503935,
                    "duration": 0.5714284999999997
                },
                {
                    "name": "A#2",
                    "midi": 46,
                    "time": 5.142856500000001,
                    "velocity": 0.2125984251968504,
                    "duration": 0.5714284999999997
                },
                {
                    "name": "E2",
                    "midi": 40,
                    "time": 5.714285,
                    "velocity": 0.2440944881889764,
                    "duration": 0.5714284999999997
                },
                {
                    "name": "B2",
                    "midi": 47,
                    "time": 5.714285,
                    "velocity": 0.2992125984251969,
                    "duration": 0.5714284999999997
                },
                {
                    "name": "G2",
                    "midi": 43,
                    "time": 6.2857135,
                    "velocity": 0.2047244094488189,
                    "duration": 0.5714284999999997
                },
                {
                    "name": "G3",
                    "midi": 55,
                    "time": 6.2857135,
                    "velocity": 0.2440944881889764,
                    "duration": 0.5714284999999997
                },
                {
                    "name": "E2",
                    "midi": 40,
                    "time": 6.857142,
                    "velocity": 0.23622047244094488,
                    "duration": 0.5714284999999997
                },
                {
                    "name": "B2",
                    "midi": 47,
                    "time": 6.857142,
                    "velocity": 0.28346456692913385,
                    "duration": 0.5714284999999997
                },
                {
                    "name": "A#2",
                    "midi": 46,
                    "time": 7.428570499999999,
                    "velocity": 0.1968503937007874,
                    "duration": 0.5714284999999997
                },
                {
                    "name": "G3",
                    "midi": 55,
                    "time": 7.428570499999999,
                    "velocity": 0.2283464566929134,
                    "duration": 0.5714284999999997
                },
                {
                    "name": "B2",
                    "midi": 47,
                    "time": 7.999998999999999,
                    "velocity": 0.2755905511811024,
                    "duration": 0.5714284999999997
                },
                {
                    "name": "E2",
                    "midi": 40,
                    "time": 7.999998999999999,
                    "velocity": 0.2204724409448819,
                    "duration": 0.5714284999999997
                },
                {
                    "name": "G2",
                    "midi": 43,
                    "time": 8.571427499999999,
                    "velocity": 0.1732283464566929,
                    "duration": 0.5714284999999997
                },
                {
                    "name": "G3",
                    "midi": 55,
                    "time": 8.571427499999999,
                    "velocity": 0.2047244094488189,
                    "duration": 0.5714284999999997
                },
                {
                    "name": "B2",
                    "midi": 47,
                    "time": 9.142855999999998,
                    "velocity": 0.25984251968503935,
                    "duration": 0.5714284999999997
                },
                {
                    "name": "E2",
                    "midi": 40,
                    "time": 9.142855999999998,
                    "velocity": 0.2125984251968504,
                    "duration": 0.5714284999999997
                },
                {
                    "name": "A#2",
                    "midi": 46,
                    "time": 9.714284499999998,
                    "velocity": 0.18110236220472442,
                    "duration": 0.5714284999999997
                },
                {
                    "name": "G3",
                    "midi": 55,
                    "time": 9.714284499999998,
                    "velocity": 0.2125984251968504,
                    "duration": 0.5714284999999997
                },
                {
                    "name": "B2",
                    "midi": 47,
                    "time": 10.285712999999998,
                    "velocity": 0.25984251968503935,
                    "duration": 0.5714284999999997
                },
                {
                    "name": "E2",
                    "midi": 40,
                    "time": 10.285712999999998,
                    "velocity": 0.2125984251968504,
                    "duration": 0.5714284999999997
                },
                {
                    "name": "G2",
                    "midi": 43,
                    "time": 10.857141499999997,
                    "velocity": 0.18110236220472442,
                    "duration": 0.5714284999999997
                },
                {
                    "name": "G3",
                    "midi": 55,
                    "time": 10.857141499999997,
                    "velocity": 0.2125984251968504,
                    "duration": 0.5714284999999997
                },
                {
                    "name": "B2",
                    "midi": 47,
                    "time": 11.428569999999997,
                    "velocity": 0.25984251968503935,
                    "duration": 0.5714284999999997
                },
                {
                    "name": "E2",
                    "midi": 40,
                    "time": 11.428569999999997,
                    "velocity": 0.2125984251968504,
                    "duration": 0.5714284999999997
                },
                {
                    "name": "A#2",
                    "midi": 46,
                    "time": 11.999998499999997,
                    "velocity": 0.18110236220472442,
                    "duration": 0.5714284999999997
                },
                {
                    "name": "G3",
                    "midi": 55,
                    "time": 11.999998499999997,
                    "velocity": 0.2125984251968504,
                    "duration": 0.5714284999999997
                },
                {
                    "name": "B2",
                    "midi": 47,
                    "time": 12.571426999999996,
                    "velocity": 0.25984251968503935,
                    "duration": 0.5714284999999997
                },
                {
                    "name": "E2",
                    "midi": 40,
                    "time": 12.571426999999996,
                    "velocity": 0.2125984251968504,
                    "duration": 0.5714284999999997
                },
                {
                    "name": "G3",
                    "midi": 55,
                    "time": 13.142855499999996,
                    "velocity": 0.2047244094488189,
                    "duration": 0.5714284999999997
                },
                {
                    "name": "G2",
                    "midi": 43,
                    "time": 13.142855499999996,
                    "velocity": 0.1732283464566929,
                    "duration": 0.5714284999999997
                },
                {
                    "name": "D2",
                    "midi": 38,
                    "time": 13.714283999999996,
                    "velocity": 0.2125984251968504,
                    "duration": 0.5714284999999997
                },
                {
                    "name": "B2",
                    "midi": 47,
                    "time": 13.714283999999996,
                    "velocity": 0.25984251968503935,
                    "duration": 0.5714284999999997
                },
                {
                    "name": "G3",
                    "midi": 55,
                    "time": 14.285712499999995,
                    "velocity": 0.2125984251968504,
                    "duration": 0.5714284999999997
                },
                {
                    "name": "A#2",
                    "midi": 46,
                    "time": 14.285712499999995,
                    "velocity": 0.18110236220472442,
                    "duration": 0.5714284999999997
                },
                {
                    "name": "D2",
                    "midi": 38,
                    "time": 14.857140999999995,
                    "velocity": 0.2125984251968504,
                    "duration": 0.5714284999999997
                },
                {
                    "name": "B2",
                    "midi": 47,
                    "time": 14.857140999999995,
                    "velocity": 0.25984251968503935,
                    "duration": 0.5714284999999997
                },
                {
                    "name": "G3",
                    "midi": 55,
                    "time": 15.428569499999995,
                    "velocity": 0.2125984251968504,
                    "duration": 0.5714284999999997
                },
                {
                    "name": "G2",
                    "midi": 43,
                    "time": 15.428569499999995,
                    "velocity": 0.18110236220472442,
                    "duration": 0.5714284999999997
                },
                {
                    "name": "B2",
                    "midi": 47,
                    "time": 15.999997999999994,
                    "velocity": 0.25984251968503935,
                    "duration": 0.5714284999999997
                },
                {
                    "name": "D2",
                    "midi": 38,
                    "time": 15.999997999999994,
                    "velocity": 0.2125984251968504,
                    "duration": 0.5714284999999997
                },
                {
                    "name": "A#2",
                    "midi": 46,
                    "time": 16.571426499999994,
                    "velocity": 0.18110236220472442,
                    "duration": 0.5714284999999997
                },
                {
                    "name": "G3",
                    "midi": 55,
                    "time": 16.571426499999994,
                    "velocity": 0.2125984251968504,
                    "duration": 0.5714284999999997
                },
                {
                    "name": "B2",
                    "midi": 47,
                    "time": 17.142854999999994,
                    "velocity": 0.25984251968503935,
                    "duration": 0.5714284999999997
                },
                {
                    "name": "D2",
                    "midi": 38,
                    "time": 17.142854999999994,
                    "velocity": 0.2125984251968504,
                    "duration": 0.5714284999999997
                },
                {
                    "name": "G2",
                    "midi": 43,
                    "time": 17.714283499999993,
                    "velocity": 0.1732283464566929,
                    "duration": 0.5714284999999997
                },
                {
                    "name": "G3",
                    "midi": 55,
                    "time": 17.714283499999993,
                    "velocity": 0.2047244094488189,
                    "duration": 0.5714284999999997
                },
                {
                    "name": "A2",
                    "midi": 45,
                    "time": 18.285711999999993,
                    "velocity": 0.25984251968503935,
                    "duration": 0.5714284999999997
                },
                {
                    "name": "D2",
                    "midi": 38,
                    "time": 18.285711999999993,
                    "velocity": 0.2125984251968504,
                    "duration": 0.5714284999999997
                },
                {
                    "name": "G3",
                    "midi": 55,
                    "time": 18.857140499999993,
                    "velocity": 0.2125984251968504,
                    "duration": 0.5714284999999997
                },
                {
                    "name": "G#2",
                    "midi": 44,
                    "time": 18.857140499999993,
                    "velocity": 0.18110236220472442,
                    "duration": 0.5714284999999997
                },
                {
                    "name": "D2",
                    "midi": 38,
                    "time": 19.428568999999992,
                    "velocity": 0.2125984251968504,
                    "duration": 0.5714284999999997
                },
                {
                    "name": "A2",
                    "midi": 45,
                    "time": 19.428568999999992,
                    "velocity": 0.25984251968503935,
                    "duration": 0.5714284999999997
                },
                {
                    "name": "G3",
                    "midi": 55,
                    "time": 19.999997499999992,
                    "velocity": 0.2125984251968504,
                    "duration": 0.5714284999999997
                },
                {
                    "name": "G2",
                    "midi": 43,
                    "time": 19.999997499999992,
                    "velocity": 0.18110236220472442,
                    "duration": 0.5714284999999997
                },
                {
                    "name": "D2",
                    "midi": 38,
                    "time": 20.57142599999999,
                    "velocity": 0.2125984251968504,
                    "duration": 0.5714284999999997
                },
                {
                    "name": "A2",
                    "midi": 45,
                    "time": 20.57142599999999,
                    "velocity": 0.25984251968503935,
                    "duration": 0.5714284999999997
                },
                {
                    "name": "F#3",
                    "midi": 54,
                    "time": 21.14285449999999,
                    "velocity": 0.2125984251968504,
                    "duration": 0.5714284999999997
                },
                {
                    "name": "G#2",
                    "midi": 44,
                    "time": 21.14285449999999,
                    "velocity": 0.18110236220472442,
                    "duration": 0.5714284999999997
                },
                {
                    "name": "D2",
                    "midi": 38,
                    "time": 21.71428299999999,
                    "velocity": 0.2125984251968504,
                    "duration": 0.5714284999999997
                },
                {
                    "name": "A2",
                    "midi": 45,
                    "time": 21.71428299999999,
                    "velocity": 0.25984251968503935,
                    "duration": 0.5714284999999997
                },
                {
                    "name": "F#3",
                    "midi": 54,
                    "time": 22.28571149999999,
                    "velocity": 0.2047244094488189,
                    "duration": 0.5714284999999997
                },
                {
                    "name": "F#2",
                    "midi": 42,
                    "time": 22.28571149999999,
                    "velocity": 0.1732283464566929,
                    "duration": 0.5714284999999997
                },
                {
                    "name": "G1",
                    "midi": 31,
                    "time": 22.85713999999999,
                    "velocity": 0.2125984251968504,
                    "duration": 0.5714284999999997
                },
                {
                    "name": "G2",
                    "midi": 43,
                    "time": 22.85713999999999,
                    "velocity": 0.25984251968503935,
                    "duration": 0.5714284999999997
                },
                {
                    "name": "G3",
                    "midi": 55,
                    "time": 23.42856849999999,
                    "velocity": 0.2047244094488189,
                    "duration": 0.5714284999999997
                },
                {
                    "name": "E3",
                    "midi": 52,
                    "time": 23.42856849999999,
                    "velocity": 0.1732283464566929,
                    "duration": 0.5714284999999997
                },
                {
                    "name": "G2",
                    "midi": 43,
                    "time": 23.99999699999999,
                    "velocity": 0.1968503937007874,
                    "duration": 0.5714284999999997
                },
                {
                    "name": "D3",
                    "midi": 50,
                    "time": 23.99999699999999,
                    "velocity": 0.2283464566929134,
                    "duration": 0.5714284999999997
                },
                {
                    "name": "D#3",
                    "midi": 51,
                    "time": 24.57142549999999,
                    "velocity": 0.14960629921259844,
                    "duration": 0.5714284999999997
                },
                {
                    "name": "G3",
                    "midi": 55,
                    "time": 24.57142549999999,
                    "velocity": 0.1889763779527559,
                    "duration": 0.5714284999999997
                },
                {
                    "name": "G2",
                    "midi": 43,
                    "time": 25.14285399999999,
                    "velocity": 0.18110236220472442,
                    "duration": 0.5714284999999997
                },
                {
                    "name": "D3",
                    "midi": 50,
                    "time": 25.14285399999999,
                    "velocity": 0.2125984251968504,
                    "duration": 0.5714284999999997
                },
                {
                    "name": "E3",
                    "midi": 52,
                    "time": 25.71428249999999,
                    "velocity": 0.14173228346456693,
                    "duration": 0.5714284999999997
                },
                {
                    "name": "G3",
                    "midi": 55,
                    "time": 25.71428249999999,
                    "velocity": 0.18110236220472442,
                    "duration": 0.5714284999999997
                },
                {
                    "name": "D3",
                    "midi": 50,
                    "time": 26.28571099999999,
                    "velocity": 0.2125984251968504,
                    "duration": 0.5714284999999997
                },
                {
                    "name": "G2",
                    "midi": 43,
                    "time": 26.28571099999999,
                    "velocity": 0.18110236220472442,
                    "duration": 0.5714284999999997
                },
                {
                    "name": "G3",
                    "midi": 55,
                    "time": 26.857139499999988,
                    "velocity": 0.1732283464566929,
                    "duration": 0.5714284999999997
                },
                {
                    "name": "D#3",
                    "midi": 51,
                    "time": 26.857139499999988,
                    "velocity": 0.14173228346456693,
                    "duration": 0.5714284999999997
                },
                {
                    "name": "G2",
                    "midi": 43,
                    "time": 27.428567999999988,
                    "velocity": 0.1889763779527559,
                    "duration": 0.5714284999999997
                },
                {
                    "name": "D3",
                    "midi": 50,
                    "time": 27.428567999999988,
                    "velocity": 0.2283464566929134,
                    "duration": 0.5714284999999997
                },
                {
                    "name": "G3",
                    "midi": 55,
                    "time": 27.999996499999988,
                    "velocity": 0.1968503937007874,
                    "duration": 0.5714284999999997
                },
                {
                    "name": "E3",
                    "midi": 52,
                    "time": 27.999996499999988,
                    "velocity": 0.15748031496062992,
                    "duration": 0.5714284999999997
                },
                {
                    "name": "G2",
                    "midi": 43,
                    "time": 28.571424999999987,
                    "velocity": 0.1968503937007874,
                    "duration": 0.5714284999999997
                },
                {
                    "name": "D3",
                    "midi": 50,
                    "time": 28.571424999999987,
                    "velocity": 0.23622047244094488,
                    "duration": 0.5714284999999997
                },
                {
                    "name": "D#3",
                    "midi": 51,
                    "time": 29.142853499999987,
                    "velocity": 0.1732283464566929,
                    "duration": 0.5714284999999997
                },
                {
                    "name": "G3",
                    "midi": 55,
                    "time": 29.142853499999987,
                    "velocity": 0.2047244094488189,
                    "duration": 0.5714284999999997
                },
                {
                    "name": "G2",
                    "midi": 43,
                    "time": 29.714281999999987,
                    "velocity": 0.2047244094488189,
                    "duration": 0.5714284999999997
                },
                {
                    "name": "D3",
                    "midi": 50,
                    "time": 29.714281999999987,
                    "velocity": 0.2440944881889764,
                    "duration": 0.5714284999999997
                },
                {
                    "name": "E3",
                    "midi": 52,
                    "time": 30.285710499999986,
                    "velocity": 0.18110236220472442,
                    "duration": 0.5714284999999997
                },
                {
                    "name": "G3",
                    "midi": 55,
                    "time": 30.285710499999986,
                    "velocity": 0.2125984251968504,
                    "duration": 0.5714284999999997
                },
                {
                    "name": "G2",
                    "midi": 43,
                    "time": 30.857138999999986,
                    "velocity": 0.2125984251968504,
                    "duration": 0.5714284999999997
                },
                {
                    "name": "D3",
                    "midi": 50,
                    "time": 30.857138999999986,
                    "velocity": 0.25984251968503935,
                    "duration": 0.5714284999999997
                },
                {
                    "name": "G3",
                    "midi": 55,
                    "time": 31.428567499999986,
                    "velocity": 0.2047244094488189,
                    "duration": 0.5714284999999997
                },
                {
                    "name": "D#3",
                    "midi": 51,
                    "time": 31.428567499999986,
                    "velocity": 0.1732283464566929,
                    "duration": 0.5714284999999997
                },
                {
                    "name": "B2",
                    "midi": 47,
                    "time": 31.999995999999985,
                    "velocity": 0.2125984251968504,
                    "duration": 0.5714284999999997
                },
                {
                    "name": "F#3",
                    "midi": 54,
                    "time": 31.999995999999985,
                    "velocity": 0.25984251968503935,
                    "duration": 0.5714284999999997
                },
                {
                    "name": "F3",
                    "midi": 53,
                    "time": 32.571424499999985,
                    "velocity": 0.18110236220472442,
                    "duration": 0.5714285000000032
                },
                {
                    "name": "D4",
                    "midi": 62,
                    "time": 32.571424499999985,
                    "velocity": 0.2125984251968504,
                    "duration": 0.5714285000000032
                },
                {
                    "name": "B2",
                    "midi": 47,
                    "time": 33.14285299999999,
                    "velocity": 0.2125984251968504,
                    "duration": 0.5714285000000032
                },
                {
                    "name": "F#3",
                    "midi": 54,
                    "time": 33.14285299999999,
                    "velocity": 0.25984251968503935,
                    "duration": 0.5714285000000032
                },
                {
                    "name": "D3",
                    "midi": 50,
                    "time": 33.71428149999999,
                    "velocity": 0.18110236220472442,
                    "duration": 0.5714285000000032
                },
                {
                    "name": "D4",
                    "midi": 62,
                    "time": 33.71428149999999,
                    "velocity": 0.2125984251968504,
                    "duration": 0.5714285000000032
                },
                {
                    "name": "F#3",
                    "midi": 54,
                    "time": 34.285709999999995,
                    "velocity": 0.25984251968503935,
                    "duration": 0.5714285000000032
                },
                {
                    "name": "B2",
                    "midi": 47,
                    "time": 34.285709999999995,
                    "velocity": 0.2125984251968504,
                    "duration": 0.5714285000000032
                },
                {
                    "name": "F3",
                    "midi": 53,
                    "time": 34.8571385,
                    "velocity": 0.18110236220472442,
                    "duration": 0.5714285000000032
                },
                {
                    "name": "D4",
                    "midi": 62,
                    "time": 34.8571385,
                    "velocity": 0.2125984251968504,
                    "duration": 0.5714285000000032
                },
                {
                    "name": "F#3",
                    "midi": 54,
                    "time": 35.428567,
                    "velocity": 0.25984251968503935,
                    "duration": 0.5714284999999961
                },
                {
                    "name": "B2",
                    "midi": 47,
                    "time": 35.428567,
                    "velocity": 0.2125984251968504,
                    "duration": 0.5714284999999961
                },
                {
                    "name": "D3",
                    "midi": 50,
                    "time": 35.9999955,
                    "velocity": 0.1732283464566929,
                    "duration": 0.5714285000000032
                },
                {
                    "name": "D4",
                    "midi": 62,
                    "time": 35.9999955,
                    "velocity": 0.2047244094488189,
                    "duration": 0.5714285000000032
                },
                {
                    "name": "F#3",
                    "midi": 54,
                    "time": 36.571424,
                    "velocity": 0.25984251968503935,
                    "duration": 0.5714284999999961
                },
                {
                    "name": "A2",
                    "midi": 45,
                    "time": 36.571424,
                    "velocity": 0.2125984251968504,
                    "duration": 0.5714284999999961
                },
                {
                    "name": "F3",
                    "midi": 53,
                    "time": 37.1428525,
                    "velocity": 0.18110236220472442,
                    "duration": 0.5714285000000032
                },
                {
                    "name": "D4",
                    "midi": 62,
                    "time": 37.1428525,
                    "velocity": 0.2125984251968504,
                    "duration": 0.5714285000000032
                },
                {
                    "name": "A2",
                    "midi": 45,
                    "time": 37.714281,
                    "velocity": 0.2125984251968504,
                    "duration": 0.5714285000000032
                },
                {
                    "name": "F#3",
                    "midi": 54,
                    "time": 37.714281,
                    "velocity": 0.25984251968503935,
                    "duration": 0.5714285000000032
                },
                {
                    "name": "D3",
                    "midi": 50,
                    "time": 38.2857095,
                    "velocity": 0.18110236220472442,
                    "duration": 0.5714285000000032
                },
                {
                    "name": "D4",
                    "midi": 62,
                    "time": 38.2857095,
                    "velocity": 0.2125984251968504,
                    "duration": 0.5714285000000032
                },
                {
                    "name": "A2",
                    "midi": 45,
                    "time": 38.857138000000006,
                    "velocity": 0.2125984251968504,
                    "duration": 0.5714285000000032
                },
                {
                    "name": "F#3",
                    "midi": 54,
                    "time": 38.857138000000006,
                    "velocity": 0.25984251968503935,
                    "duration": 0.5714285000000032
                },
                {
                    "name": "F3",
                    "midi": 53,
                    "time": 39.42856650000001,
                    "velocity": 0.18110236220472442,
                    "duration": 0.5714285000000032
                },
                {
                    "name": "D4",
                    "midi": 62,
                    "time": 39.42856650000001,
                    "velocity": 0.2125984251968504,
                    "duration": 0.5714285000000032
                },
                {
                    "name": "F#3",
                    "midi": 54,
                    "time": 39.99999500000001,
                    "velocity": 0.25984251968503935,
                    "duration": 0.5714284999999961
                },
                {
                    "name": "A2",
                    "midi": 45,
                    "time": 39.99999500000001,
                    "velocity": 0.2125984251968504,
                    "duration": 0.5714284999999961
                },
                {
                    "name": "D3",
                    "midi": 50,
                    "time": 40.57142350000001,
                    "velocity": 0.1732283464566929,
                    "duration": 0.5714285000000032
                },
                {
                    "name": "D4",
                    "midi": 62,
                    "time": 40.57142350000001,
                    "velocity": 0.2047244094488189,
                    "duration": 0.5714285000000032
                },
                {
                    "name": "E3",
                    "midi": 52,
                    "time": 41.14285200000001,
                    "velocity": 0.25984251968503935,
                    "duration": 0.5714284999999961
                },
                {
                    "name": "A2",
                    "midi": 45,
                    "time": 41.14285200000001,
                    "velocity": 0.2125984251968504,
                    "duration": 0.5714284999999961
                },
                {
                    "name": "D4",
                    "midi": 62,
                    "time": 41.71428050000001,
                    "velocity": 0.2125984251968504,
                    "duration": 0.5714285000000032
                },
                {
                    "name": "D#3",
                    "midi": 51,
                    "time": 41.71428050000001,
                    "velocity": 0.18110236220472442,
                    "duration": 0.5714285000000032
                },
                {
                    "name": "E3",
                    "midi": 52,
                    "time": 42.28570900000001,
                    "velocity": 0.25984251968503935,
                    "duration": 0.5714285000000032
                },
                {
                    "name": "A2",
                    "midi": 45,
                    "time": 42.28570900000001,
                    "velocity": 0.2125984251968504,
                    "duration": 0.5714285000000032
                },
                {
                    "name": "D4",
                    "midi": 62,
                    "time": 42.857137500000015,
                    "velocity": 0.2125984251968504,
                    "duration": 0.5714285000000032
                },
                {
                    "name": "D3",
                    "midi": 50,
                    "time": 42.857137500000015,
                    "velocity": 0.18110236220472442,
                    "duration": 0.5714285000000032
                },
                {
                    "name": "A2",
                    "midi": 45,
                    "time": 43.42856600000002,
                    "velocity": 0.2204724409448819,
                    "duration": 0.5714285000000032
                },
                {
                    "name": "E3",
                    "midi": 52,
                    "time": 43.42856600000002,
                    "velocity": 0.2204724409448819,
                    "duration": 0.5714285000000032
                },
                {
                    "name": "C#4",
                    "midi": 61,
                    "time": 43.99999450000002,
                    "velocity": 0.2125984251968504,
                    "duration": 0.5714285000000032
                },
                {
                    "name": "D#3",
                    "midi": 51,
                    "time": 43.99999450000002,
                    "velocity": 0.18110236220472442,
                    "duration": 0.5714285000000032
                },
                {
                    "name": "A2",
                    "midi": 45,
                    "time": 44.571423000000024,
                    "velocity": 0.2125984251968504,
                    "duration": 0.5714284999999961
                },
                {
                    "name": "E3",
                    "midi": 52,
                    "time": 44.571423000000024,
                    "velocity": 0.25984251968503935,
                    "duration": 0.5714284999999961
                },
                {
                    "name": "C#3",
                    "midi": 49,
                    "time": 45.14285150000002,
                    "velocity": 0.1732283464566929,
                    "duration": 0.5714285000000032
                },
                {
                    "name": "C#4",
                    "midi": 61,
                    "time": 45.14285150000002,
                    "velocity": 0.2047244094488189,
                    "duration": 0.5714285000000032
                },
                {
                    "name": "A2",
                    "midi": 45,
                    "time": 45.714280000000024,
                    "velocity": 0.2125984251968504,
                    "duration": 0.5714284999999961
                },
                {
                    "name": "D#3",
                    "midi": 51,
                    "time": 45.714280000000024,
                    "velocity": 0.25984251968503935,
                    "duration": 0.5714284999999961
                },
                {
                    "name": "D3",
                    "midi": 50,
                    "time": 46.28570850000002,
                    "velocity": 0.1968503937007874,
                    "duration": 0.5714285000000032
                },
                {
                    "name": "C#4",
                    "midi": 61,
                    "time": 46.28570850000002,
                    "velocity": 0.2283464566929134,
                    "duration": 0.5714285000000032
                },
                {
                    "name": "A2",
                    "midi": 45,
                    "time": 46.85713700000002,
                    "velocity": 0.2440944881889764,
                    "duration": 0.5714285000000032
                },
                {
                    "name": "D#3",
                    "midi": 51,
                    "time": 46.85713700000002,
                    "velocity": 0.2992125984251969,
                    "duration": 0.5714285000000032
                },
                {
                    "name": "C#4",
                    "midi": 61,
                    "time": 47.428565500000026,
                    "velocity": 0.2677165354330709,
                    "duration": 0.5714285000000032
                },
                {
                    "name": "C#3",
                    "midi": 49,
                    "time": 47.428565500000026,
                    "velocity": 0.2204724409448819,
                    "duration": 0.5714285000000032
                },
                {
                    "name": "A2",
                    "midi": 45,
                    "time": 47.99999400000003,
                    "velocity": 0.28346456692913385,
                    "duration": 0.5714285000000032
                },
                {
                    "name": "D#3",
                    "midi": 51,
                    "time": 47.99999400000003,
                    "velocity": 0.3464566929133858,
                    "duration": 0.5714285000000032
                },
                {
                    "name": "C#4",
                    "midi": 61,
                    "time": 48.57142250000003,
                    "velocity": 0.28346456692913385,
                    "duration": 0.5714285000000032
                },
                {
                    "name": "D3",
                    "midi": 50,
                    "time": 48.57142250000003,
                    "velocity": 0.23622047244094488,
                    "duration": 0.5714285000000032
                },
                {
                    "name": "A2",
                    "midi": 45,
                    "time": 49.142851000000036,
                    "velocity": 0.28346456692913385,
                    "duration": 0.5714284999999961
                },
                {
                    "name": "D#3",
                    "midi": 51,
                    "time": 49.142851000000036,
                    "velocity": 0.3464566929133858,
                    "duration": 0.5714284999999961
                },
                {
                    "name": "C#4",
                    "midi": 61,
                    "time": 49.71427950000003,
                    "velocity": 0.2755905511811024,
                    "duration": 0.5714285000000032
                },
                {
                    "name": "C#3",
                    "midi": 49,
                    "time": 49.71427950000003,
                    "velocity": 0.2283464566929134,
                    "duration": 0.5714285000000032
                },
                {
                    "name": "A2",
                    "midi": 45,
                    "time": 50.285708000000035,
                    "velocity": 0.28346456692913385,
                    "duration": 0.5714284999999961
                },
                {
                    "name": "D#3",
                    "midi": 51,
                    "time": 50.285708000000035,
                    "velocity": 0.3464566929133858,
                    "duration": 0.5714284999999961
                },
                {
                    "name": "D3",
                    "midi": 50,
                    "time": 50.85713650000003,
                    "velocity": 0.23622047244094488,
                    "duration": 0.5714285000000032
                },
                {
                    "name": "C#4",
                    "midi": 61,
                    "time": 50.85713650000003,
                    "velocity": 0.28346456692913385,
                    "duration": 0.5714285000000032
                },
                {
                    "name": "A2",
                    "midi": 45,
                    "time": 51.428565000000035,
                    "velocity": 0.28346456692913385,
                    "duration": 0.5714285000000032
                },
                {
                    "name": "D#3",
                    "midi": 51,
                    "time": 51.428565000000035,
                    "velocity": 0.3464566929133858,
                    "duration": 0.5714285000000032
                },
                {
                    "name": "C#3",
                    "midi": 49,
                    "time": 51.99999350000004,
                    "velocity": 0.23622047244094488,
                    "duration": 0.5714285000000032
                },
                {
                    "name": "C#4",
                    "midi": 61,
                    "time": 51.99999350000004,
                    "velocity": 0.28346456692913385,
                    "duration": 0.5714285000000032
                },
                {
                    "name": "D#3",
                    "midi": 51,
                    "time": 52.57142200000004,
                    "velocity": 0.3464566929133858,
                    "duration": 0.5714285000000032
                },
                {
                    "name": "A2",
                    "midi": 45,
                    "time": 52.57142200000004,
                    "velocity": 0.28346456692913385,
                    "duration": 0.5714285000000032
                },
                {
                    "name": "D3",
                    "midi": 50,
                    "time": 53.142850500000044,
                    "velocity": 0.23622047244094488,
                    "duration": 0.5714285000000032
                },
                {
                    "name": "C4",
                    "midi": 60,
                    "time": 53.142850500000044,
                    "velocity": 0.28346456692913385,
                    "duration": 0.5714285000000032
                },
                {
                    "name": "A2",
                    "midi": 45,
                    "time": 53.71427900000005,
                    "velocity": 0.28346456692913385,
                    "duration": 0.5714284999999961
                },
                {
                    "name": "D#3",
                    "midi": 51,
                    "time": 53.71427900000005,
                    "velocity": 0.3464566929133858,
                    "duration": 0.5714284999999961
                },
                {
                    "name": "C3",
                    "midi": 48,
                    "time": 54.28570750000004,
                    "velocity": 0.2283464566929134,
                    "duration": 0.5714285000000032
                },
                {
                    "name": "C4",
                    "midi": 60,
                    "time": 54.28570750000004,
                    "velocity": 0.2755905511811024,
                    "duration": 0.5714285000000032
                },
                {
                    "name": "F#2",
                    "midi": 42,
                    "time": 54.85713600000005,
                    "velocity": 0.28346456692913385,
                    "duration": 0.5714285000000032
                },
                {
                    "name": "D#3",
                    "midi": 51,
                    "time": 54.85713600000005,
                    "velocity": 0.3464566929133858,
                    "duration": 0.5714285000000032
                },
                {
                    "name": "D3",
                    "midi": 50,
                    "time": 55.42856450000005,
                    "velocity": 0.2283464566929134,
                    "duration": 0.5714285000000032
                },
                {
                    "name": "A3",
                    "midi": 57,
                    "time": 55.42856450000005,
                    "velocity": 0.2755905511811024,
                    "duration": 0.5714285000000032
                },
                {
                    "name": "D#3",
                    "midi": 51,
                    "time": 55.99999300000005,
                    "velocity": 0.31496062992125984,
                    "duration": 0.5714285000000032
                },
                {
                    "name": "F#2",
                    "midi": 42,
                    "time": 55.99999300000005,
                    "velocity": 0.2677165354330709,
                    "duration": 0.5714285000000032
                },
                {
                    "name": "C3",
                    "midi": 48,
                    "time": 56.571421500000056,
                    "velocity": 0.2125984251968504,
                    "duration": 0.5714285000000032
                },
                {
                    "name": "A3",
                    "midi": 57,
                    "time": 56.571421500000056,
                    "velocity": 0.25984251968503935,
                    "duration": 0.5714285000000032
                },
                {
                    "name": "D#3",
                    "midi": 51,
                    "time": 57.14285000000006,
                    "velocity": 0.2992125984251969,
                    "duration": 0.5714285000000032
                },
                {
                    "name": "F#2",
                    "midi": 42,
                    "time": 57.14285000000006,
                    "velocity": 0.2440944881889764,
                    "duration": 0.5714285000000032
                },
                {
                    "name": "A3",
                    "midi": 57,
                    "time": 57.71427850000006,
                    "velocity": 0.23622047244094488,
                    "duration": 0.5714285000000032
                },
                {
                    "name": "D3",
                    "midi": 50,
                    "time": 57.71427850000006,
                    "velocity": 0.1968503937007874,
                    "duration": 0.5714285000000032
                },
                {
                    "name": "F#2",
                    "midi": 42,
                    "time": 58.285707000000066,
                    "velocity": 0.2204724409448819,
                    "duration": 0.5714284999999961
                },
                {
                    "name": "D#3",
                    "midi": 51,
                    "time": 58.285707000000066,
                    "velocity": 0.2677165354330709,
                    "duration": 0.5714284999999961
                },
                {
                    "name": "C3",
                    "midi": 48,
                    "time": 58.85713550000006,
                    "velocity": 0.15748031496062992,
                    "duration": 0.5714285000000032
                },
                {
                    "name": "A3",
                    "midi": 57,
                    "time": 58.85713550000006,
                    "velocity": 0.2047244094488189,
                    "duration": 0.5714285000000032
                },
                {
                    "name": "F#2",
                    "midi": 42,
                    "time": 59.428564000000065,
                    "velocity": 0.2047244094488189,
                    "duration": 0.5714284999999961
                },
                {
                    "name": "D#3",
                    "midi": 51,
                    "time": 59.428564000000065,
                    "velocity": 0.2440944881889764,
                    "duration": 0.5714284999999961
                },
                {
                    "name": "D3",
                    "midi": 50,
                    "time": 59.99999250000006,
                    "velocity": 0.1732283464566929,
                    "duration": 0.5714285000000032
                },
                {
                    "name": "A3",
                    "midi": 57,
                    "time": 59.99999250000006,
                    "velocity": 0.2047244094488189,
                    "duration": 0.5714285000000032
                },
                {
                    "name": "D#3",
                    "midi": 51,
                    "time": 60.571421000000065,
                    "velocity": 0.2440944881889764,
                    "duration": 0.5714285000000032
                },
                {
                    "name": "F#2",
                    "midi": 42,
                    "time": 60.571421000000065,
                    "velocity": 0.2047244094488189,
                    "duration": 0.5714285000000032
                },
                {
                    "name": "C3",
                    "midi": 48,
                    "time": 61.14284950000007,
                    "velocity": 0.1732283464566929,
                    "duration": 0.5714285000000032
                },
                {
                    "name": "A3",
                    "midi": 57,
                    "time": 61.14284950000007,
                    "velocity": 0.2047244094488189,
                    "duration": 0.5714285000000032
                },
                {
                    "name": "D#3",
                    "midi": 51,
                    "time": 61.71427800000007,
                    "velocity": 0.23622047244094488,
                    "duration": 0.5714285000000032
                },
                {
                    "name": "F2",
                    "midi": 41,
                    "time": 61.71427800000007,
                    "velocity": 0.2047244094488189,
                    "duration": 0.5714285000000032
                },
                {
                    "name": "D3",
                    "midi": 50,
                    "time": 62.285706500000074,
                    "velocity": 0.1732283464566929,
                    "duration": 0.5714285000000032
                },
                {
                    "name": "A3",
                    "midi": 57,
                    "time": 62.285706500000074,
                    "velocity": 0.2047244094488189,
                    "duration": 0.5714285000000032
                },
                {
                    "name": "D#3",
                    "midi": 51,
                    "time": 62.85713500000008,
                    "velocity": 0.23622047244094488,
                    "duration": 0.5714284999999961
                },
                {
                    "name": "F2",
                    "midi": 41,
                    "time": 62.85713500000008,
                    "velocity": 0.1968503937007874,
                    "duration": 0.5714284999999961
                },
                {
                    "name": "B2",
                    "midi": 47,
                    "time": 63.428563500000074,
                    "velocity": 0.15748031496062992,
                    "duration": 0.5714285000000032
                },
                {
                    "name": "A3",
                    "midi": 57,
                    "time": 63.428563500000074,
                    "velocity": 0.1889763779527559,
                    "duration": 0.5714285000000032
                },
                {
                    "name": "C3",
                    "midi": 48,
                    "time": 63.99999200000008,
                    "velocity": 0.23622047244094488,
                    "duration": 0.5714285000000103
                },
                {
                    "name": "E2",
                    "midi": 40,
                    "time": 63.99999200000008,
                    "velocity": 0.1968503937007874,
                    "duration": 0.5714285000000103
                },
                {
                    "name": "B2",
                    "midi": 47,
                    "time": 64.57142050000009,
                    "velocity": 0.15748031496062992,
                    "duration": 0.5714284999999961
                },
                {
                    "name": "A3",
                    "midi": 57,
                    "time": 64.57142050000009,
                    "velocity": 0.1968503937007874,
                    "duration": 0.5714284999999961
                },
                {
                    "name": "C3",
                    "midi": 48,
                    "time": 65.14284900000008,
                    "velocity": 0.2283464566929134,
                    "duration": 0.5714285000000103
                },
                {
                    "name": "E2",
                    "midi": 40,
                    "time": 65.14284900000008,
                    "velocity": 0.1968503937007874,
                    "duration": 0.5714285000000103
                },
                {
                    "name": "A3",
                    "midi": 57,
                    "time": 65.7142775000001,
                    "velocity": 0.1968503937007874,
                    "duration": 0.5714284999999961
                },
                {
                    "name": "A2",
                    "midi": 45,
                    "time": 65.7142775000001,
                    "velocity": 0.15748031496062992,
                    "duration": 0.5714284999999961
                },
                {
                    "name": "E2",
                    "midi": 40,
                    "time": 66.28570600000009,
                    "velocity": 0.1968503937007874,
                    "duration": 0.5714285000000103
                },
                {
                    "name": "C3",
                    "midi": 48,
                    "time": 66.28570600000009,
                    "velocity": 0.2283464566929134,
                    "duration": 0.5714285000000103
                },
                {
                    "name": "A3",
                    "midi": 57,
                    "time": 66.8571345000001,
                    "velocity": 0.1889763779527559,
                    "duration": 0.5714284999999961
                },
                {
                    "name": "B2",
                    "midi": 47,
                    "time": 66.8571345000001,
                    "velocity": 0.15748031496062992,
                    "duration": 0.5714284999999961
                },
                {
                    "name": "E2",
                    "midi": 40,
                    "time": 67.4285630000001,
                    "velocity": 0.1889763779527559,
                    "duration": 0.5714284999999961
                },
                {
                    "name": "C3",
                    "midi": 48,
                    "time": 67.4285630000001,
                    "velocity": 0.2283464566929134,
                    "duration": 0.5714284999999961
                },
                {
                    "name": "A3",
                    "midi": 57,
                    "time": 67.99999150000009,
                    "velocity": 0.18110236220472442,
                    "duration": 0.5714284999999961
                },
                {
                    "name": "A2",
                    "midi": 45,
                    "time": 67.99999150000009,
                    "velocity": 0.14960629921259844,
                    "duration": 0.5714284999999961
                },
                {
                    "name": "C3",
                    "midi": 48,
                    "time": 68.57142000000009,
                    "velocity": 0.2283464566929134,
                    "duration": 0.5714285000000103
                },
                {
                    "name": "E2",
                    "midi": 40,
                    "time": 68.57142000000009,
                    "velocity": 0.1889763779527559,
                    "duration": 0.5714285000000103
                },
                {
                    "name": "B2",
                    "midi": 47,
                    "time": 69.1428485000001,
                    "velocity": 0.14960629921259844,
                    "duration": 0.5714284999999961
                },
                {
                    "name": "A3",
                    "midi": 57,
                    "time": 69.1428485000001,
                    "velocity": 0.1889763779527559,
                    "duration": 0.5714284999999961
                },
                {
                    "name": "C3",
                    "midi": 48,
                    "time": 69.7142770000001,
                    "velocity": 0.2204724409448819,
                    "duration": 0.5714285000000103
                },
                {
                    "name": "E2",
                    "midi": 40,
                    "time": 69.7142770000001,
                    "velocity": 0.1889763779527559,
                    "duration": 0.5714285000000103
                },
                {
                    "name": "A2",
                    "midi": 45,
                    "time": 70.2857055000001,
                    "velocity": 0.14960629921259844,
                    "duration": 0.5714284999999961
                },
                {
                    "name": "A3",
                    "midi": 57,
                    "time": 70.2857055000001,
                    "velocity": 0.1889763779527559,
                    "duration": 0.5714284999999961
                },
                {
                    "name": "C3",
                    "midi": 48,
                    "time": 70.8571340000001,
                    "velocity": 0.2204724409448819,
                    "duration": 0.5714285000000103
                },
                {
                    "name": "E2",
                    "midi": 40,
                    "time": 70.8571340000001,
                    "velocity": 0.1889763779527559,
                    "duration": 0.5714285000000103
                },
                {
                    "name": "A3",
                    "midi": 57,
                    "time": 71.42856250000011,
                    "velocity": 0.18110236220472442,
                    "duration": 0.5714284999999961
                },
                {
                    "name": "B2",
                    "midi": 47,
                    "time": 71.42856250000011,
                    "velocity": 0.14960629921259844,
                    "duration": 0.5714284999999961
                },
                {
                    "name": "E2",
                    "midi": 40,
                    "time": 71.99999100000011,
                    "velocity": 0.18110236220472442,
                    "duration": 0.5714284999999961
                },
                {
                    "name": "C3",
                    "midi": 48,
                    "time": 71.99999100000011,
                    "velocity": 0.2204724409448819,
                    "duration": 0.5714284999999961
                },
                {
                    "name": "A3",
                    "midi": 57,
                    "time": 72.5714195000001,
                    "velocity": 0.1732283464566929,
                    "duration": 0.5714284999999961
                },
                {
                    "name": "A2",
                    "midi": 45,
                    "time": 72.5714195000001,
                    "velocity": 0.14173228346456693,
                    "duration": 0.5714284999999961
                },
                {
                    "name": "E2",
                    "midi": 40,
                    "time": 79.9999900000001,
                    "velocity": 0.18110236220472442,
                    "duration": 0.5714284999999961
                },
                {
                    "name": "C3",
                    "midi": 48,
                    "time": 79.9999900000001,
                    "velocity": 0.2125984251968504,
                    "duration": 0.5714284999999961
                },
                {
                    "name": "F3",
                    "midi": 53,
                    "time": 80.57141850000009,
                    "velocity": 0.18110236220472442,
                    "duration": 0.5714284999999961
                },
                {
                    "name": "B2",
                    "midi": 47,
                    "time": 80.57141850000009,
                    "velocity": 0.14173228346456693,
                    "duration": 0.5714284999999961
                },
                {
                    "name": "E2",
                    "midi": 40,
                    "time": 81.14284700000009,
                    "velocity": 0.18110236220472442,
                    "duration": 0.5714285000000103
                },
                {
                    "name": "C3",
                    "midi": 48,
                    "time": 81.14284700000009,
                    "velocity": 0.2125984251968504,
                    "duration": 0.5714285000000103
                },
                {
                    "name": "F3",
                    "midi": 53,
                    "time": 81.7142755000001,
                    "velocity": 0.18110236220472442,
                    "duration": 0.5714284999999961
                },
                {
                    "name": "A2",
                    "midi": 45,
                    "time": 81.7142755000001,
                    "velocity": 0.14173228346456693,
                    "duration": 0.5714284999999961
                },
                {
                    "name": "E2",
                    "midi": 40,
                    "time": 82.2857040000001,
                    "velocity": 0.18110236220472442,
                    "duration": 0.5714285000000103
                },
                {
                    "name": "C3",
                    "midi": 48,
                    "time": 82.2857040000001,
                    "velocity": 0.2125984251968504,
                    "duration": 0.5714285000000103
                },
                {
                    "name": "B2",
                    "midi": 47,
                    "time": 82.8571325000001,
                    "velocity": 0.14173228346456693,
                    "duration": 0.5714284999999961
                },
                {
                    "name": "F3",
                    "midi": 53,
                    "time": 82.8571325000001,
                    "velocity": 0.18110236220472442,
                    "duration": 0.5714284999999961
                },
                {
                    "name": "E2",
                    "midi": 40,
                    "time": 83.4285610000001,
                    "velocity": 0.18110236220472442,
                    "duration": 0.5714284999999961
                },
                {
                    "name": "C3",
                    "midi": 48,
                    "time": 83.4285610000001,
                    "velocity": 0.2125984251968504,
                    "duration": 0.5714284999999961
                },
                {
                    "name": "A2",
                    "midi": 45,
                    "time": 83.9999895000001,
                    "velocity": 0.14173228346456693,
                    "duration": 0.5714285000000103
                },
                {
                    "name": "F3",
                    "midi": 53,
                    "time": 83.9999895000001,
                    "velocity": 0.1732283464566929,
                    "duration": 0.5714285000000103
                },
                {
                    "name": "E2",
                    "midi": 40,
                    "time": 93.7142740000001,
                    "velocity": 0.23622047244094488,
                    "duration": 1.1428570000000065
                },
                {
                    "name": "B1",
                    "midi": 35,
                    "time": 94.85713100000011,
                    "velocity": 0.1889763779527559,
                    "duration": 1.1428569999999922
                },
                {
                    "name": "B2",
                    "midi": 47,
                    "time": 94.85713100000011,
                    "velocity": 0.2204724409448819,
                    "duration": 1.1428569999999922
                },
                {
                    "name": "B2",
                    "midi": 47,
                    "time": 95.9999880000001,
                    "velocity": 0.23622047244094488,
                    "duration": 2.285714000000013
                },
                {
                    "name": "E2",
                    "midi": 40,
                    "time": 95.9999880000001,
                    "velocity": 0.1968503937007874,
                    "duration": 2.285714000000013
                },
                {
                    "name": "E2",
                    "midi": 40,
                    "time": 98.28570200000011,
                    "velocity": 0.23622047244094488,
                    "duration": 2.2857139999999987
                },
                {
                    "name": "E1",
                    "midi": 28,
                    "time": 98.28570200000011,
                    "velocity": 0.1968503937007874,
                    "duration": 2.2857139999999987
                },
                {
                    "name": "A1",
                    "midi": 33,
                    "time": 100.57141600000011,
                    "velocity": 0.1968503937007874,
                    "duration": 4.571428000000012
                },
                {
                    "name": "E2",
                    "midi": 40,
                    "time": 100.71427312500012,
                    "velocity": 0.23622047244094488,
                    "duration": 4.4285708750000055
                }
            ],
            "controlChanges": {
                "7": [
                    {
                        "number": 7,
                        "time": 0,
                        "value": 0.7874015748031497
                    }
                ],
                "10": [
                    {
                        "number": 10,
                        "time": 0,
                        "value": 0.5039370078740157
                    }
                ],
                "64": [
                    {
                        "number": 64,
                        "time": 0,
                        "value": 0
                    },
                    {
                        "number": 64,
                        "time": 0.21666663958333332,
                        "value": 1
                    },
                    {
                        "number": 64,
                        "time": 1.1690474729166667,
                        "value": 0
                    },
                    {
                        "number": 64,
                        "time": 1.3595236395833332,
                        "value": 1
                    },
                    {
                        "number": 64,
                        "time": 2.311904472916667,
                        "value": 0
                    },
                    {
                        "number": 64,
                        "time": 2.476190166666667,
                        "value": 1
                    },
                    {
                        "number": 64,
                        "time": 3.469047185416667,
                        "value": 0
                    },
                    {
                        "number": 64,
                        "time": 3.7285709625000005,
                        "value": 1
                    },
                    {
                        "number": 64,
                        "time": 4.595237520833334,
                        "value": 0
                    },
                    {
                        "number": 64,
                        "time": 4.788094639583334,
                        "value": 1
                    },
                    {
                        "number": 64,
                        "time": 5.740475472916667,
                        "value": 0
                    },
                    {
                        "number": 64,
                        "time": 5.930951639583333,
                        "value": 1
                    },
                    {
                        "number": 64,
                        "time": 6.883332472916666,
                        "value": 0
                    },
                    {
                        "number": 64,
                        "time": 7.047618166666666,
                        "value": 1
                    },
                    {
                        "number": 64,
                        "time": 8.040475185416666,
                        "value": 0
                    },
                    {
                        "number": 64,
                        "time": 8.299998962499998,
                        "value": 1
                    },
                    {
                        "number": 64,
                        "time": 9.164284568749999,
                        "value": 0
                    },
                    {
                        "number": 64,
                        "time": 9.359522639583332,
                        "value": 1
                    },
                    {
                        "number": 64,
                        "time": 10.311903472916665,
                        "value": 0
                    },
                    {
                        "number": 64,
                        "time": 10.502379639583332,
                        "value": 1
                    },
                    {
                        "number": 64,
                        "time": 11.454760472916664,
                        "value": 0
                    },
                    {
                        "number": 64,
                        "time": 11.619046166666664,
                        "value": 1
                    },
                    {
                        "number": 64,
                        "time": 12.611903185416663,
                        "value": 0
                    },
                    {
                        "number": 64,
                        "time": 12.871426962499996,
                        "value": 1
                    },
                    {
                        "number": 64,
                        "time": 13.740474472916663,
                        "value": 0
                    },
                    {
                        "number": 64,
                        "time": 13.93095063958333,
                        "value": 1
                    },
                    {
                        "number": 64,
                        "time": 14.883331472916662,
                        "value": 0
                    },
                    {
                        "number": 64,
                        "time": 15.073807639583329,
                        "value": 1
                    },
                    {
                        "number": 64,
                        "time": 16.02618847291666,
                        "value": 0
                    },
                    {
                        "number": 64,
                        "time": 16.19047416666666,
                        "value": 1
                    },
                    {
                        "number": 64,
                        "time": 17.18333118541666,
                        "value": 0
                    },
                    {
                        "number": 64,
                        "time": 17.442854962499993,
                        "value": 1
                    },
                    {
                        "number": 64,
                        "time": 18.31190247291666,
                        "value": 0
                    },
                    {
                        "number": 64,
                        "time": 18.502378639583327,
                        "value": 1
                    },
                    {
                        "number": 64,
                        "time": 19.45475947291666,
                        "value": 0
                    },
                    {
                        "number": 64,
                        "time": 19.645235639583326,
                        "value": 1
                    },
                    {
                        "number": 64,
                        "time": 20.59761647291666,
                        "value": 0
                    },
                    {
                        "number": 64,
                        "time": 20.76190216666666,
                        "value": 1
                    },
                    {
                        "number": 64,
                        "time": 21.754759185416656,
                        "value": 0
                    },
                    {
                        "number": 64,
                        "time": 22.01428296249999,
                        "value": 1
                    },
                    {
                        "number": 64,
                        "time": 22.87618761666666,
                        "value": 0
                    },
                    {
                        "number": 64,
                        "time": 23.073806639583324,
                        "value": 1
                    },
                    {
                        "number": 64,
                        "time": 24.026187472916657,
                        "value": 0
                    },
                    {
                        "number": 64,
                        "time": 24.216663639583324,
                        "value": 1
                    },
                    {
                        "number": 64,
                        "time": 25.169044472916656,
                        "value": 0
                    },
                    {
                        "number": 64,
                        "time": 25.333330166666656,
                        "value": 1
                    },
                    {
                        "number": 64,
                        "time": 26.326187185416654,
                        "value": 0
                    },
                    {
                        "number": 64,
                        "time": 26.585710962499988,
                        "value": 1
                    },
                    {
                        "number": 64,
                        "time": 27.447615616666656,
                        "value": 0
                    },
                    {
                        "number": 64,
                        "time": 27.64523463958332,
                        "value": 1
                    },
                    {
                        "number": 64,
                        "time": 28.597615472916655,
                        "value": 0
                    },
                    {
                        "number": 64,
                        "time": 28.78809163958332,
                        "value": 1
                    },
                    {
                        "number": 64,
                        "time": 29.740472472916654,
                        "value": 0
                    },
                    {
                        "number": 64,
                        "time": 29.904758166666653,
                        "value": 1
                    },
                    {
                        "number": 64,
                        "time": 30.89761518541665,
                        "value": 0
                    },
                    {
                        "number": 64,
                        "time": 31.157138962499985,
                        "value": 1
                    },
                    {
                        "number": 64,
                        "time": 32.02618647291665,
                        "value": 0
                    },
                    {
                        "number": 64,
                        "time": 32.21666263958332,
                        "value": 1
                    },
                    {
                        "number": 64,
                        "time": 33.169043472916655,
                        "value": 0
                    },
                    {
                        "number": 64,
                        "time": 33.359519639583326,
                        "value": 1
                    },
                    {
                        "number": 64,
                        "time": 34.31190047291666,
                        "value": 0
                    },
                    {
                        "number": 64,
                        "time": 34.476186166666665,
                        "value": 1
                    },
                    {
                        "number": 64,
                        "time": 35.469043185416666,
                        "value": 0
                    },
                    {
                        "number": 64,
                        "time": 35.7285669625,
                        "value": 1
                    },
                    {
                        "number": 64,
                        "time": 36.59285256875,
                        "value": 0
                    },
                    {
                        "number": 64,
                        "time": 36.78809063958333,
                        "value": 1
                    },
                    {
                        "number": 64,
                        "time": 37.74047147291667,
                        "value": 0
                    },
                    {
                        "number": 64,
                        "time": 37.93094763958334,
                        "value": 1
                    },
                    {
                        "number": 64,
                        "time": 38.88332847291667,
                        "value": 0
                    },
                    {
                        "number": 64,
                        "time": 39.047614166666676,
                        "value": 1
                    },
                    {
                        "number": 64,
                        "time": 40.04047118541668,
                        "value": 0
                    },
                    {
                        "number": 64,
                        "time": 40.29999496250001,
                        "value": 1
                    },
                    {
                        "number": 64,
                        "time": 41.16428056875001,
                        "value": 0
                    },
                    {
                        "number": 64,
                        "time": 41.35951863958334,
                        "value": 1
                    },
                    {
                        "number": 64,
                        "time": 42.31189947291668,
                        "value": 0
                    },
                    {
                        "number": 64,
                        "time": 42.50237563958335,
                        "value": 1
                    },
                    {
                        "number": 64,
                        "time": 43.454756472916685,
                        "value": 0
                    },
                    {
                        "number": 64,
                        "time": 43.61904216666669,
                        "value": 1
                    },
                    {
                        "number": 64,
                        "time": 44.61189918541669,
                        "value": 0
                    },
                    {
                        "number": 64,
                        "time": 44.87142296250002,
                        "value": 1
                    },
                    {
                        "number": 64,
                        "time": 45.745232377083354,
                        "value": 0
                    },
                    {
                        "number": 64,
                        "time": 45.930946639583354,
                        "value": 1
                    },
                    {
                        "number": 64,
                        "time": 46.88332747291669,
                        "value": 0
                    },
                    {
                        "number": 64,
                        "time": 47.07380363958336,
                        "value": 1
                    },
                    {
                        "number": 64,
                        "time": 48.0261844729167,
                        "value": 0
                    },
                    {
                        "number": 64,
                        "time": 48.1904701666667,
                        "value": 1
                    },
                    {
                        "number": 64,
                        "time": 49.1833271854167,
                        "value": 0
                    },
                    {
                        "number": 64,
                        "time": 49.44285096250003,
                        "value": 1
                    },
                    {
                        "number": 64,
                        "time": 50.30951752083337,
                        "value": 0
                    },
                    {
                        "number": 64,
                        "time": 50.502374639583365,
                        "value": 1
                    },
                    {
                        "number": 64,
                        "time": 51.4547554729167,
                        "value": 0
                    },
                    {
                        "number": 64,
                        "time": 51.64523163958337,
                        "value": 1
                    },
                    {
                        "number": 64,
                        "time": 52.59761247291671,
                        "value": 0
                    },
                    {
                        "number": 64,
                        "time": 52.76189816666671,
                        "value": 1
                    },
                    {
                        "number": 64,
                        "time": 53.75475518541671,
                        "value": 0
                    },
                    {
                        "number": 64,
                        "time": 54.01427896250004,
                        "value": 1
                    },
                    {
                        "number": 64,
                        "time": 54.883326472916714,
                        "value": 0
                    },
                    {
                        "number": 64,
                        "time": 55.073802639583384,
                        "value": 1
                    },
                    {
                        "number": 64,
                        "time": 56.02618347291672,
                        "value": 0
                    },
                    {
                        "number": 64,
                        "time": 56.21665963958339,
                        "value": 1
                    },
                    {
                        "number": 64,
                        "time": 57.16904047291673,
                        "value": 0
                    },
                    {
                        "number": 64,
                        "time": 57.33332616666673,
                        "value": 1
                    },
                    {
                        "number": 64,
                        "time": 58.32618318541673,
                        "value": 0
                    },
                    {
                        "number": 64,
                        "time": 58.58570696250006,
                        "value": 1
                    },
                    {
                        "number": 64,
                        "time": 59.459516377083396,
                        "value": 0
                    },
                    {
                        "number": 64,
                        "time": 59.645230639583396,
                        "value": 1
                    },
                    {
                        "number": 64,
                        "time": 60.59761147291673,
                        "value": 0
                    },
                    {
                        "number": 64,
                        "time": 60.7880876395834,
                        "value": 1
                    },
                    {
                        "number": 64,
                        "time": 61.74046847291674,
                        "value": 0
                    },
                    {
                        "number": 64,
                        "time": 61.90475416666674,
                        "value": 1
                    },
                    {
                        "number": 64,
                        "time": 62.89761118541674,
                        "value": 0
                    },
                    {
                        "number": 64,
                        "time": 63.15713496250007,
                        "value": 1
                    },
                    {
                        "number": 64,
                        "time": 64.02618247291674,
                        "value": 0
                    },
                    {
                        "number": 64,
                        "time": 64.21665863958341,
                        "value": 1
                    },
                    {
                        "number": 64,
                        "time": 65.16903947291675,
                        "value": 0
                    },
                    {
                        "number": 64,
                        "time": 65.35951563958342,
                        "value": 1
                    },
                    {
                        "number": 64,
                        "time": 66.31189647291676,
                        "value": 0
                    },
                    {
                        "number": 64,
                        "time": 66.47618216666676,
                        "value": 1
                    },
                    {
                        "number": 64,
                        "time": 67.46903918541676,
                        "value": 0
                    },
                    {
                        "number": 64,
                        "time": 67.72856296250009,
                        "value": 1
                    },
                    {
                        "number": 64,
                        "time": 68.59046761666676,
                        "value": 0
                    },
                    {
                        "number": 64,
                        "time": 68.78808663958343,
                        "value": 1
                    },
                    {
                        "number": 64,
                        "time": 69.74046747291676,
                        "value": 0
                    },
                    {
                        "number": 64,
                        "time": 69.93094363958343,
                        "value": 1
                    },
                    {
                        "number": 64,
                        "time": 70.88332447291677,
                        "value": 0
                    },
                    {
                        "number": 64,
                        "time": 71.04761016666677,
                        "value": 1
                    },
                    {
                        "number": 64,
                        "time": 72.04046718541677,
                        "value": 0
                    },
                    {
                        "number": 64,
                        "time": 72.2999909625001,
                        "value": 1
                    },
                    {
                        "number": 64,
                        "time": 73.17380037708344,
                        "value": 0
                    },
                    {
                        "number": 64,
                        "time": 73.3357051187501,
                        "value": 1
                    },
                    {
                        "number": 64,
                        "time": 75.4642762812501,
                        "value": 0
                    },
                    {
                        "number": 64,
                        "time": 75.56189531666676,
                        "value": 1
                    },
                    {
                        "number": 64,
                        "time": 77.7428474250001,
                        "value": 0
                    },
                    {
                        "number": 64,
                        "time": 78.48808542708343,
                        "value": 1
                    },
                    {
                        "number": 64,
                        "time": 80.03570428125009,
                        "value": 0
                    },
                    {
                        "number": 64,
                        "time": 80.23570425625009,
                        "value": 1
                    },
                    {
                        "number": 64,
                        "time": 81.16903747291676,
                        "value": 0
                    },
                    {
                        "number": 64,
                        "time": 81.35951363958343,
                        "value": 1
                    },
                    {
                        "number": 64,
                        "time": 82.31189447291676,
                        "value": 0
                    },
                    {
                        "number": 64,
                        "time": 82.47618016666677,
                        "value": 1
                    },
                    {
                        "number": 64,
                        "time": 83.46903718541677,
                        "value": 0
                    },
                    {
                        "number": 64,
                        "time": 83.7285609625001,
                        "value": 1
                    },
                    {
                        "number": 64,
                        "time": 84.3357037437501,
                        "value": 0
                    },
                    {
                        "number": 64,
                        "time": 87.0499891187501,
                        "value": 1
                    },
                    {
                        "number": 64,
                        "time": 89.18094123333344,
                        "value": 0
                    },
                    {
                        "number": 64,
                        "time": 89.4214173937501,
                        "value": 1
                    },
                    {
                        "number": 64,
                        "time": 91.45475047291677,
                        "value": 0
                    },
                    {
                        "number": 64,
                        "time": 91.93332184166677,
                        "value": 1
                    },
                    {
                        "number": 64,
                        "time": 93.74760732916677,
                        "value": 0
                    },
                    {
                        "number": 64,
                        "time": 94.04998824375011,
                        "value": 1
                    },
                    {
                        "number": 64,
                        "time": 94.8928452812501,
                        "value": 0
                    },
                    {
                        "number": 64,
                        "time": 95.10951192083344,
                        "value": 1
                    },
                    {
                        "number": 64,
                        "time": 96.03094037708344,
                        "value": 0
                    },
                    {
                        "number": 64,
                        "time": 96.34046414791678,
                        "value": 1
                    },
                    {
                        "number": 64,
                        "time": 98.32617818541678,
                        "value": 0
                    },
                    {
                        "number": 64,
                        "time": 98.57141625000011,
                        "value": 1
                    },
                    {
                        "number": 64,
                        "time": 100.59760647291678,
                        "value": 0
                    },
                    {
                        "number": 64,
                        "time": 100.77379692708345,
                        "value": 1
                    },
                    {
                        "number": 64,
                        "time": 106.28570100000013,
                        "value": 0
                    }
                ],
                "91": [
                    {
                        "number": 91,
                        "time": 0,
                        "value": 1
                    },
                    {
                        "number": 91,
                        "time": 0,
                        "value": 1
                    }
                ]
            },
            "id": 2,
            "name": "Piano left",
            "instrumentNumber": 0,
            "instrument": "acoustic grand piano",
            "instrumentFamily": "piano",
            "channelNumber": 0,
            "isPercussion": false
        },
        {
            "startTime": 0,
            "duration": 0,
            "length": 0,
            "notes": [],
            "controlChanges": {},
            "id": 3,
            "name": "Chopin: Prelude No.2 in A Minor, Op. 28"
        },
        {
            "startTime": 0,
            "duration": 0,
            "length": 0,
            "notes": [],
            "controlChanges": {},
            "id": 4,
            "name": "Copyright  2002 by Bernd Krueger"
        },
        {
            "startTime": 0,
            "duration": 0,
            "length": 0,
            "notes": [],
            "controlChanges": {},
            "id": 5,
            "name": "http://www.piano-midi.de"
        },
        {
            "startTime": 0,
            "duration": 0,
            "length": 0,
            "notes": [],
            "controlChanges": {},
            "id": 6,
            "name": "Edition: 2014-02-20"
        },
        {
            "startTime": 0,
            "duration": 0,
            "length": 0,
            "notes": [],
            "controlChanges": {
                "7": [
                    {
                        "number": 7,
                        "time": 0,
                        "value": 1
                    }
                ],
                "10": [
                    {
                        "number": 10,
                        "time": 0,
                        "value": 0.5039370078740157
                    }
                ]
            },
            "id": 7,
            "name": "Spur 7"
        },
        {
            "startTime": 0,
            "duration": 0,
            "length": 0,
            "notes": [],
            "controlChanges": {
                "7": [
                    {
                        "number": 7,
                        "time": 0,
                        "value": 1
                    }
                ],
                "10": [
                    {
                        "number": 10,
                        "time": 0,
                        "value": 0.5039370078740157
                    }
                ]
            },
            "id": 8,
            "name": "Spur 8"
        }
    ]
}