{
    "header": {
        "PPQ": 480,
        "timeSignature": [
            4,
            4
        ],
        "bpm": 34.99999416666764,
        "name": "Chopin Prelude No. 9"
    },
    "startTime": 0,
    "duration": 82.28572800000005,
    "tracks": [
        {
            "startTime": 0,
            "duration": 0,
            "length": 0,
            "notes": [],
            "controlChanges": {},
            "id": 0,
            "name": "Chopin Prelude No. 9"
        },
        {
            "startTime": 0.0035714291666666667,
            "duration": 82.28572800000005,
            "length": 67,
            "notes": [
                {
                    "name": "B3",
                    "midi": 59,
                    "time": 0.0035714291666666667,
                    "velocity": 0.6299212598425197,
                    "duration": 1.7107145708333333
                },
                {
                    "name": "B3",
                    "midi": 59,
                    "time": 1.714286,
                    "velocity": 0.5826771653543307,
                    "duration": 1.428571666666667
                },
                {
                    "name": "B3",
                    "midi": 59,
                    "time": 3.142857666666667,
                    "velocity": 0.6062992125984252,
                    "duration": 0.2857143333333334
                },
                {
                    "name": "B3",
                    "midi": 59,
                    "time": 3.4285720000000004,
                    "velocity": 0.6299212598425197,
                    "duration": 1.714286
                },
                {
                    "name": "C#4",
                    "midi": 61,
                    "time": 5.142858,
                    "velocity": 0.5905511811023622,
                    "duration": 1.7142859999999995
                },
                {
                    "name": "C#4",
                    "midi": 61,
                    "time": 6.857144,
                    "velocity": 0.5984251968503937,
                    "duration": 1.7142859999999995
                },
                {
                    "name": "D#4",
                    "midi": 63,
                    "time": 8.57143,
                    "velocity": 0.6141732283464567,
                    "duration": 1.4285716666666666
                },
                {
                    "name": "D#4",
                    "midi": 63,
                    "time": 10.000001666666666,
                    "velocity": 0.5905511811023622,
                    "duration": 0.28571433333333296
                },
                {
                    "name": "D#4",
                    "midi": 63,
                    "time": 10.285715999999999,
                    "velocity": 0.5905511811023622,
                    "duration": 1.7142859999999995
                },
                {
                    "name": "D#4",
                    "midi": 63,
                    "time": 12.000001999999999,
                    "velocity": 0.5748031496062992,
                    "duration": 1.7142859999999995
                },
                {
                    "name": "E4",
                    "midi": 64,
                    "time": 13.714287999999998,
                    "velocity": 0.5905511811023622,
                    "duration": 1.7142859999999995
                },
                {
                    "name": "E4",
                    "midi": 64,
                    "time": 15.428573999999998,
                    "velocity": 0.5984251968503937,
                    "duration": 1.4285716666666666
                },
                {
                    "name": "E4",
                    "midi": 64,
                    "time": 16.857145666666664,
                    "velocity": 0.6299212598425197,
                    "duration": 0.28571433333333474
                },
                {
                    "name": "E4",
                    "midi": 64,
                    "time": 17.14286,
                    "velocity": 0.6299212598425197,
                    "duration": 1.7142860000000013
                },
                {
                    "name": "D#4",
                    "midi": 63,
                    "time": 18.857146,
                    "velocity": 0.6692913385826772,
                    "duration": 1.4285716666666666
                },
                {
                    "name": "D#4",
                    "midi": 63,
                    "time": 20.285717666666667,
                    "velocity": 0.6692913385826772,
                    "duration": 0.28571433333333474
                },
                {
                    "name": "D#4",
                    "midi": 63,
                    "time": 20.571432,
                    "velocity": 0.7086614173228346,
                    "duration": 1.7142860000000013
                },
                {
                    "name": "D#4",
                    "midi": 63,
                    "time": 22.285718000000003,
                    "velocity": 0.6299212598425197,
                    "duration": 1.4285716666666666
                },
                {
                    "name": "C#4",
                    "midi": 61,
                    "time": 23.71428966666667,
                    "velocity": 0.5039370078740157,
                    "duration": 0.28571433333333474
                },
                {
                    "name": "C#4",
                    "midi": 61,
                    "time": 24.000004000000004,
                    "velocity": 0.5039370078740157,
                    "duration": 1.7142860000000013
                },
                {
                    "name": "C#4",
                    "midi": 61,
                    "time": 25.714290000000005,
                    "velocity": 0.5039370078740157,
                    "duration": 1.4285716666666666
                },
                {
                    "name": "B3",
                    "midi": 59,
                    "time": 27.142861666666672,
                    "velocity": 0.36220472440944884,
                    "duration": 0.28571433333333474
                },
                {
                    "name": "B3",
                    "midi": 59,
                    "time": 27.428576000000007,
                    "velocity": 0.3228346456692913,
                    "duration": 1.7142860000000013
                },
                {
                    "name": "B3",
                    "midi": 59,
                    "time": 29.142862000000008,
                    "velocity": 0.3464566929133858,
                    "duration": 1.4285716666666666
                },
                {
                    "name": "B3",
                    "midi": 59,
                    "time": 30.571433666666675,
                    "velocity": 0.3700787401574803,
                    "duration": 0.28571433333333474
                },
                {
                    "name": "B3",
                    "midi": 59,
                    "time": 30.85714800000001,
                    "velocity": 0.3700787401574803,
                    "duration": 1.7142860000000013
                },
                {
                    "name": "B3",
                    "midi": 59,
                    "time": 32.57143400000001,
                    "velocity": 0.4015748031496063,
                    "duration": 1.4285716666666701
                },
                {
                    "name": "B3",
                    "midi": 59,
                    "time": 34.00000566666668,
                    "velocity": 0.48031496062992124,
                    "duration": 0.2857143333333312
                },
                {
                    "name": "C4",
                    "midi": 60,
                    "time": 34.28572000000001,
                    "velocity": 0.4881889763779528,
                    "duration": 1.7142860000000013
                },
                {
                    "name": "D4",
                    "midi": 62,
                    "time": 36.00000600000001,
                    "velocity": 0.5196850393700787,
                    "duration": 1.7142860000000013
                },
                {
                    "name": "E4",
                    "midi": 64,
                    "time": 37.714292000000015,
                    "velocity": 0.5669291338582677,
                    "duration": 1.7142860000000013
                },
                {
                    "name": "E4",
                    "midi": 64,
                    "time": 39.428578000000016,
                    "velocity": 0.5984251968503937,
                    "duration": 1.4285716666666701
                },
                {
                    "name": "E4",
                    "midi": 64,
                    "time": 40.857149666666686,
                    "velocity": 0.6299212598425197,
                    "duration": 0.2857143333333312
                },
                {
                    "name": "E4",
                    "midi": 64,
                    "time": 41.14286400000002,
                    "velocity": 0.6535433070866141,
                    "duration": 1.7142860000000013
                },
                {
                    "name": "E4",
                    "midi": 64,
                    "time": 42.85715000000002,
                    "velocity": 0.6771653543307087,
                    "duration": 1.4285716666666701
                },
                {
                    "name": "E4",
                    "midi": 64,
                    "time": 44.28572166666669,
                    "velocity": 0.6850393700787402,
                    "duration": 0.2857143333333312
                },
                {
                    "name": "F4",
                    "midi": 65,
                    "time": 44.57143600000002,
                    "velocity": 0.7007874015748031,
                    "duration": 1.7142860000000013
                },
                {
                    "name": "G4",
                    "midi": 67,
                    "time": 46.28572200000002,
                    "velocity": 0.7165354330708661,
                    "duration": 1.7142860000000013
                },
                {
                    "name": "G#4",
                    "midi": 68,
                    "time": 48.00000800000002,
                    "velocity": 0.7559055118110236,
                    "duration": 1.1428573333333318
                },
                {
                    "name": "D#4",
                    "midi": 63,
                    "time": 49.142865333333354,
                    "velocity": 0.7165354330708661,
                    "duration": 0.5714286666666695
                },
                {
                    "name": "D#4",
                    "midi": 63,
                    "time": 49.714294000000024,
                    "velocity": 0.6929133858267716,
                    "duration": 1.4285716666666701
                },
                {
                    "name": "C#4",
                    "midi": 61,
                    "time": 51.142865666666694,
                    "velocity": 0.6141732283464567,
                    "duration": 0.2857143333333312
                },
                {
                    "name": "C4",
                    "midi": 60,
                    "time": 51.428580000000025,
                    "velocity": 0.5905511811023622,
                    "duration": 1.4285716666666701
                },
                {
                    "name": "B3",
                    "midi": 59,
                    "time": 52.857151666666695,
                    "velocity": 0.5590551181102362,
                    "duration": 0.2857143333333312
                },
                {
                    "name": "B3",
                    "midi": 59,
                    "time": 53.142866000000026,
                    "velocity": 0.5433070866141733,
                    "duration": 1.4285716666666701
                },
                {
                    "name": "B3",
                    "midi": 59,
                    "time": 54.5714376666667,
                    "velocity": 0.3464566929133858,
                    "duration": 0.2857143333333312
                },
                {
                    "name": "B3",
                    "midi": 59,
                    "time": 54.85715200000003,
                    "velocity": 0.28346456692913385,
                    "duration": 1.7142860000000013
                },
                {
                    "name": "B3",
                    "midi": 59,
                    "time": 56.57143800000003,
                    "velocity": 0.30708661417322836,
                    "duration": 1.5000002499999994
                },
                {
                    "name": "B3",
                    "midi": 59,
                    "time": 58.07143825000003,
                    "velocity": 0.31496062992125984,
                    "duration": 0.21428575000000194
                },
                {
                    "name": "B3",
                    "midi": 59,
                    "time": 58.28572400000003,
                    "velocity": 0.33070866141732286,
                    "duration": 1.7142860000000013
                },
                {
                    "name": "C4",
                    "midi": 60,
                    "time": 60.00001000000003,
                    "velocity": 0.3543307086614173,
                    "duration": 1.7142860000000013
                },
                {
                    "name": "C4",
                    "midi": 60,
                    "time": 61.71429600000003,
                    "velocity": 0.3858267716535433,
                    "duration": 1.7142860000000013
                },
                {
                    "name": "C4",
                    "midi": 60,
                    "time": 63.428582000000034,
                    "velocity": 0.33070866141732286,
                    "duration": 1.5000002499999994
                },
                {
                    "name": "C4",
                    "midi": 60,
                    "time": 64.92858225000003,
                    "velocity": 0.3543307086614173,
                    "duration": 0.21428575000000194
                },
                {
                    "name": "C4",
                    "midi": 60,
                    "time": 65.14286800000004,
                    "velocity": 0.36220472440944884,
                    "duration": 1.7142860000000013
                },
                {
                    "name": "D4",
                    "midi": 62,
                    "time": 66.85715400000004,
                    "velocity": 0.4881889763779528,
                    "duration": 1.4285716666666701
                },
                {
                    "name": "D4",
                    "midi": 62,
                    "time": 68.2857256666667,
                    "velocity": 0.5511811023622047,
                    "duration": 0.2857143333333312
                },
                {
                    "name": "D4",
                    "midi": 62,
                    "time": 68.57144000000004,
                    "velocity": 0.48031496062992124,
                    "duration": 1.7142860000000013
                },
                {
                    "name": "D4",
                    "midi": 62,
                    "time": 70.28572600000004,
                    "velocity": 0.5826771653543307,
                    "duration": 1.5000002499999994
                },
                {
                    "name": "D4",
                    "midi": 62,
                    "time": 71.78572625000004,
                    "velocity": 0.5748031496062992,
                    "duration": 0.21428575000000194
                },
                {
                    "name": "D4",
                    "midi": 62,
                    "time": 72.00001200000004,
                    "velocity": 0.5748031496062992,
                    "duration": 1.7142860000000013
                },
                {
                    "name": "D#4",
                    "midi": 63,
                    "time": 73.71429800000004,
                    "velocity": 0.6614173228346457,
                    "duration": 1.5000002499999994
                },
                {
                    "name": "E4",
                    "midi": 64,
                    "time": 75.21429825000004,
                    "velocity": 0.6456692913385826,
                    "duration": 0.21428575000000194
                },
                {
                    "name": "E4",
                    "midi": 64,
                    "time": 75.42858400000004,
                    "velocity": 0.7007874015748031,
                    "duration": 1.7142860000000013
                },
                {
                    "name": "E4",
                    "midi": 64,
                    "time": 77.14287000000004,
                    "velocity": 0.6929133858267716,
                    "duration": 1.5000002499999994
                },
                {
                    "name": "E4",
                    "midi": 64,
                    "time": 78.64287025000004,
                    "velocity": 0.6850393700787402,
                    "duration": 0.21428575000000194
                },
                {
                    "name": "E4",
                    "midi": 64,
                    "time": 78.85715600000005,
                    "velocity": 0.7401574803149606,
                    "duration": 3.4285720000000026
                }
            ],
            "controlChanges": {
                "7": [
                    {
                        "number": 7,
                        "time": 0,
                        "value": 0.7874015748031497
                    }
                ],
                "10": [
                    {
                        "number": 10,
                        "time": 0,
                        "value": 0.5039370078740157
                    }
                ],
                "91": [
                    {
                        "number": 91,
                        "time": 0,
                        "value": 1
                    },
                    {
                        "number": 91,
                        "time": 0,
                        "value": 1
                    }
                ]
            },
            "id": 1,
            "name": "Piano right",
            "instrumentNumber": 0,
            "instrument": "acoustic grand piano",
            "instrumentFamily": "piano",
            "channelNumber": 0,
            "isPercussion": false
        },
        {
            "startTime": 0.014285716666666667,
            "duration": 82.28572800000002,
            "length": 228,
            "notes": [
                {
                    "name": "E3",
                    "midi": 52,
                    "time": 0.014285716666666667,
                    "velocity": 0.3858267716535433,
                    "duration": 0.5714286666666667
                },
                {
                    "name": "G#3",
                    "midi": 56,
                    "time": 0.014285716666666667,
                    "velocity": 0.4566929133858268,
                    "duration": 0.5714286666666667
                },
                {
                    "name": "B2",
                    "midi": 47,
                    "time": 0.5714286666666667,
                    "velocity": 0.4094488188976378,
                    "duration": 0.5714286666666667
                },
                {
                    "name": "E3",
                    "midi": 52,
                    "time": 1.1428573333333334,
                    "velocity": 0.30708661417322836,
                    "duration": 0.5714286666666666
                },
                {
                    "name": "G#3",
                    "midi": 56,
                    "time": 1.1428573333333334,
                    "velocity": 0.3779527559055118,
                    "duration": 0.5714286666666666
                },
                {
                    "name": "D#3",
                    "midi": 51,
                    "time": 1.714286,
                    "velocity": 0.3543307086614173,
                    "duration": 0.5714286666666664
                },
                {
                    "name": "F#3",
                    "midi": 54,
                    "time": 1.714286,
                    "velocity": 0.4251968503937008,
                    "duration": 0.5714286666666664
                },
                {
                    "name": "B2",
                    "midi": 47,
                    "time": 2.2857146666666663,
                    "velocity": 0.4015748031496063,
                    "duration": 0.5714286666666668
                },
                {
                    "name": "D#3",
                    "midi": 51,
                    "time": 2.857143333333333,
                    "velocity": 0.2992125984251969,
                    "duration": 0.5714286666666668
                },
                {
                    "name": "F#3",
                    "midi": 54,
                    "time": 2.857143333333333,
                    "velocity": 0.3543307086614173,
                    "duration": 0.5714286666666668
                },
                {
                    "name": "E3",
                    "midi": 52,
                    "time": 3.428572,
                    "velocity": 0.3937007874015748,
                    "duration": 0.5714286666666668
                },
                {
                    "name": "G#3",
                    "midi": 56,
                    "time": 3.428572,
                    "velocity": 0.47244094488188976,
                    "duration": 0.5714286666666668
                },
                {
                    "name": "B2",
                    "midi": 47,
                    "time": 4.000000666666667,
                    "velocity": 0.36220472440944884,
                    "duration": 0.5714286666666668
                },
                {
                    "name": "E3",
                    "midi": 52,
                    "time": 4.571429333333334,
                    "velocity": 0.25984251968503935,
                    "duration": 0.5714286666666668
                },
                {
                    "name": "G#3",
                    "midi": 56,
                    "time": 4.571429333333334,
                    "velocity": 0.31496062992125984,
                    "duration": 0.5714286666666668
                },
                {
                    "name": "E3",
                    "midi": 52,
                    "time": 5.142858,
                    "velocity": 0.3937007874015748,
                    "duration": 0.5714286666666668
                },
                {
                    "name": "A3",
                    "midi": 57,
                    "time": 5.142858,
                    "velocity": 0.4645669291338583,
                    "duration": 0.5714286666666668
                },
                {
                    "name": "C#3",
                    "midi": 49,
                    "time": 5.714286666666667,
                    "velocity": 0.36220472440944884,
                    "duration": 0.5714286666666668
                },
                {
                    "name": "E3",
                    "midi": 52,
                    "time": 6.285715333333334,
                    "velocity": 0.2677165354330709,
                    "duration": 0.5714286666666668
                },
                {
                    "name": "A3",
                    "midi": 57,
                    "time": 6.285715333333334,
                    "velocity": 0.33070866141732286,
                    "duration": 0.5714286666666668
                },
                {
                    "name": "F#3",
                    "midi": 54,
                    "time": 6.857144000000001,
                    "velocity": 0.4251968503937008,
                    "duration": 0.5714286666666668
                },
                {
                    "name": "A3",
                    "midi": 57,
                    "time": 6.857144000000001,
                    "velocity": 0.5039370078740157,
                    "duration": 0.5714286666666668
                },
                {
                    "name": "C#3",
                    "midi": 49,
                    "time": 7.428572666666668,
                    "velocity": 0.3543307086614173,
                    "duration": 0.5714286666666659
                },
                {
                    "name": "F#3",
                    "midi": 54,
                    "time": 8.000001333333334,
                    "velocity": 0.28346456692913385,
                    "duration": 0.5714286666666659
                },
                {
                    "name": "A3",
                    "midi": 57,
                    "time": 8.000001333333334,
                    "velocity": 0.33858267716535434,
                    "duration": 0.5714286666666659
                },
                {
                    "name": "F#3",
                    "midi": 54,
                    "time": 8.57143,
                    "velocity": 0.4094488188976378,
                    "duration": 0.5714286666666659
                },
                {
                    "name": "A3",
                    "midi": 57,
                    "time": 8.57143,
                    "velocity": 0.48031496062992124,
                    "duration": 0.5714286666666659
                },
                {
                    "name": "C#3",
                    "midi": 49,
                    "time": 9.142858666666665,
                    "velocity": 0.33070866141732286,
                    "duration": 0.5714286666666659
                },
                {
                    "name": "F#3",
                    "midi": 54,
                    "time": 9.714287333333331,
                    "velocity": 0.2440944881889764,
                    "duration": 0.5714286666666659
                },
                {
                    "name": "A3",
                    "midi": 57,
                    "time": 9.714287333333331,
                    "velocity": 0.29133858267716534,
                    "duration": 0.5714286666666659
                },
                {
                    "name": "F#3",
                    "midi": 54,
                    "time": 10.285715999999997,
                    "velocity": 0.3937007874015748,
                    "duration": 0.5714286666666659
                },
                {
                    "name": "B3",
                    "midi": 59,
                    "time": 10.285715999999997,
                    "velocity": 0.47244094488188976,
                    "duration": 0.5714286666666659
                },
                {
                    "name": "D#3",
                    "midi": 51,
                    "time": 10.857144666666663,
                    "velocity": 0.33070866141732286,
                    "duration": 0.5714286666666659
                },
                {
                    "name": "F#3",
                    "midi": 54,
                    "time": 11.428573333333329,
                    "velocity": 0.2677165354330709,
                    "duration": 0.5714286666666659
                },
                {
                    "name": "B3",
                    "midi": 59,
                    "time": 11.428573333333329,
                    "velocity": 0.33070866141732286,
                    "duration": 0.5714286666666659
                },
                {
                    "name": "G#3",
                    "midi": 56,
                    "time": 12.000001999999995,
                    "velocity": 0.3937007874015748,
                    "duration": 0.5714286666666659
                },
                {
                    "name": "B3",
                    "midi": 59,
                    "time": 12.000001999999995,
                    "velocity": 0.47244094488188976,
                    "duration": 0.5714286666666659
                },
                {
                    "name": "D#3",
                    "midi": 51,
                    "time": 12.57143066666666,
                    "velocity": 0.3464566929133858,
                    "duration": 0.5714286666666659
                },
                {
                    "name": "G#3",
                    "midi": 56,
                    "time": 13.142859333333327,
                    "velocity": 0.29133858267716534,
                    "duration": 0.5714286666666659
                },
                {
                    "name": "B3",
                    "midi": 59,
                    "time": 13.142859333333327,
                    "velocity": 0.3464566929133858,
                    "duration": 0.5714286666666659
                },
                {
                    "name": "G#3",
                    "midi": 56,
                    "time": 13.714287999999993,
                    "velocity": 0.3779527559055118,
                    "duration": 0.5714286666666659
                },
                {
                    "name": "B3",
                    "midi": 59,
                    "time": 13.714287999999993,
                    "velocity": 0.44881889763779526,
                    "duration": 0.5714286666666659
                },
                {
                    "name": "E3",
                    "midi": 52,
                    "time": 14.285716666666659,
                    "velocity": 0.3779527559055118,
                    "duration": 0.5714286666666659
                },
                {
                    "name": "G#3",
                    "midi": 56,
                    "time": 14.857145333333325,
                    "velocity": 0.29133858267716534,
                    "duration": 0.5714286666666659
                },
                {
                    "name": "B3",
                    "midi": 59,
                    "time": 14.857145333333325,
                    "velocity": 0.3464566929133858,
                    "duration": 0.5714286666666659
                },
                {
                    "name": "C#4",
                    "midi": 61,
                    "time": 15.42857399999999,
                    "velocity": 0.47244094488188976,
                    "duration": 0.5714286666666659
                },
                {
                    "name": "F#3",
                    "midi": 54,
                    "time": 15.42857399999999,
                    "velocity": 0.4015748031496063,
                    "duration": 0.5714286666666659
                },
                {
                    "name": "E3",
                    "midi": 52,
                    "time": 16.000002666666656,
                    "velocity": 0.3543307086614173,
                    "duration": 0.5714286666666659
                },
                {
                    "name": "C#4",
                    "midi": 61,
                    "time": 16.571431333333322,
                    "velocity": 0.33858267716535434,
                    "duration": 0.5714286666666659
                },
                {
                    "name": "F#3",
                    "midi": 54,
                    "time": 16.571431333333322,
                    "velocity": 0.28346456692913385,
                    "duration": 0.5714286666666659
                },
                {
                    "name": "B3",
                    "midi": 59,
                    "time": 17.142859999999988,
                    "velocity": 0.5039370078740157,
                    "duration": 0.5714286666666659
                },
                {
                    "name": "F#3",
                    "midi": 54,
                    "time": 17.142859999999988,
                    "velocity": 0.4251968503937008,
                    "duration": 0.5714286666666659
                },
                {
                    "name": "E3",
                    "midi": 52,
                    "time": 17.714288666666654,
                    "velocity": 0.3543307086614173,
                    "duration": 0.5714286666666659
                },
                {
                    "name": "B3",
                    "midi": 59,
                    "time": 18.28571733333332,
                    "velocity": 0.33858267716535434,
                    "duration": 0.5714286666666659
                },
                {
                    "name": "F#3",
                    "midi": 54,
                    "time": 18.28571733333332,
                    "velocity": 0.29133858267716534,
                    "duration": 0.5714286666666659
                },
                {
                    "name": "B3",
                    "midi": 59,
                    "time": 18.857145999999986,
                    "velocity": 0.5039370078740157,
                    "duration": 0.5714286666666659
                },
                {
                    "name": "F#3",
                    "midi": 54,
                    "time": 18.857145999999986,
                    "velocity": 0.4251968503937008,
                    "duration": 0.5714286666666659
                },
                {
                    "name": "D#3",
                    "midi": 51,
                    "time": 19.428574666666652,
                    "velocity": 0.3543307086614173,
                    "duration": 0.5714286666666659
                },
                {
                    "name": "B3",
                    "midi": 59,
                    "time": 20.000003333333318,
                    "velocity": 0.3858267716535433,
                    "duration": 0.5714286666666659
                },
                {
                    "name": "F#3",
                    "midi": 54,
                    "time": 20.000003333333318,
                    "velocity": 0.33070866141732286,
                    "duration": 0.5714286666666659
                },
                {
                    "name": "G#3",
                    "midi": 56,
                    "time": 20.571431999999984,
                    "velocity": 0.4645669291338583,
                    "duration": 0.5714286666666659
                },
                {
                    "name": "B3",
                    "midi": 59,
                    "time": 20.571431999999984,
                    "velocity": 0.5511811023622047,
                    "duration": 0.5714286666666659
                },
                {
                    "name": "E3",
                    "midi": 52,
                    "time": 21.14286066666665,
                    "velocity": 0.3858267716535433,
                    "duration": 0.5714286666666659
                },
                {
                    "name": "G#3",
                    "midi": 56,
                    "time": 21.714289333333316,
                    "velocity": 0.2992125984251969,
                    "duration": 0.5714286666666659
                },
                {
                    "name": "B3",
                    "midi": 59,
                    "time": 21.714289333333316,
                    "velocity": 0.36220472440944884,
                    "duration": 0.5714286666666659
                },
                {
                    "name": "F#3",
                    "midi": 54,
                    "time": 22.28571799999998,
                    "velocity": 0.4251968503937008,
                    "duration": 0.5714286666666659
                },
                {
                    "name": "A#3",
                    "midi": 58,
                    "time": 22.28571799999998,
                    "velocity": 0.5039370078740157,
                    "duration": 0.5714286666666659
                },
                {
                    "name": "E3",
                    "midi": 52,
                    "time": 22.857146666666647,
                    "velocity": 0.3543307086614173,
                    "duration": 0.5714286666666659
                },
                {
                    "name": "F#3",
                    "midi": 54,
                    "time": 23.428575333333313,
                    "velocity": 0.2677165354330709,
                    "duration": 0.5714286666666659
                },
                {
                    "name": "A#3",
                    "midi": 58,
                    "time": 23.428575333333313,
                    "velocity": 0.33070866141732286,
                    "duration": 0.5714286666666659
                },
                {
                    "name": "F#3",
                    "midi": 54,
                    "time": 24.00000399999998,
                    "velocity": 0.33070866141732286,
                    "duration": 0.5714286666666659
                },
                {
                    "name": "A3",
                    "midi": 57,
                    "time": 24.00000399999998,
                    "velocity": 0.3937007874015748,
                    "duration": 0.5714286666666659
                },
                {
                    "name": "C#3",
                    "midi": 49,
                    "time": 24.571432666666645,
                    "velocity": 0.33070866141732286,
                    "duration": 0.5714286666666659
                },
                {
                    "name": "F#3",
                    "midi": 54,
                    "time": 25.14286133333331,
                    "velocity": 0.2677165354330709,
                    "duration": 0.5714286666666659
                },
                {
                    "name": "A3",
                    "midi": 57,
                    "time": 25.14286133333331,
                    "velocity": 0.33070866141732286,
                    "duration": 0.5714286666666659
                },
                {
                    "name": "F#3",
                    "midi": 54,
                    "time": 25.714289999999977,
                    "velocity": 0.33858267716535434,
                    "duration": 0.5714286666666659
                },
                {
                    "name": "A3",
                    "midi": 57,
                    "time": 25.714289999999977,
                    "velocity": 0.4015748031496063,
                    "duration": 0.5714286666666659
                },
                {
                    "name": "B2",
                    "midi": 47,
                    "time": 26.285718666666643,
                    "velocity": 0.33070866141732286,
                    "duration": 0.5714286666666659
                },
                {
                    "name": "F#3",
                    "midi": 54,
                    "time": 26.85714733333331,
                    "velocity": 0.2204724409448819,
                    "duration": 0.5714286666666659
                },
                {
                    "name": "A3",
                    "midi": 57,
                    "time": 26.85714733333331,
                    "velocity": 0.25984251968503935,
                    "duration": 0.5714286666666659
                },
                {
                    "name": "E3",
                    "midi": 52,
                    "time": 27.428575999999975,
                    "velocity": 0.2125984251968504,
                    "duration": 0.5714286666666659
                },
                {
                    "name": "G#3",
                    "midi": 56,
                    "time": 27.428575999999975,
                    "velocity": 0.25196850393700787,
                    "duration": 0.5714286666666659
                },
                {
                    "name": "B2",
                    "midi": 47,
                    "time": 28.00000466666664,
                    "velocity": 0.1968503937007874,
                    "duration": 0.5714286666666659
                },
                {
                    "name": "E3",
                    "midi": 52,
                    "time": 28.571433333333307,
                    "velocity": 0.16535433070866143,
                    "duration": 0.5714286666666659
                },
                {
                    "name": "G#3",
                    "midi": 56,
                    "time": 28.571433333333307,
                    "velocity": 0.1968503937007874,
                    "duration": 0.5714286666666659
                },
                {
                    "name": "D#3",
                    "midi": 51,
                    "time": 29.142861999999973,
                    "velocity": 0.2204724409448819,
                    "duration": 0.5714286666666659
                },
                {
                    "name": "F#3",
                    "midi": 54,
                    "time": 29.142861999999973,
                    "velocity": 0.2677165354330709,
                    "duration": 0.5714286666666659
                },
                {
                    "name": "B2",
                    "midi": 47,
                    "time": 29.71429066666664,
                    "velocity": 0.2125984251968504,
                    "duration": 0.5714286666666659
                },
                {
                    "name": "D#3",
                    "midi": 51,
                    "time": 30.285719333333304,
                    "velocity": 0.1732283464566929,
                    "duration": 0.5714286666666659
                },
                {
                    "name": "F#3",
                    "midi": 54,
                    "time": 30.285719333333304,
                    "velocity": 0.2125984251968504,
                    "duration": 0.5714286666666659
                },
                {
                    "name": "D3",
                    "midi": 50,
                    "time": 30.85714799999997,
                    "velocity": 0.2283464566929134,
                    "duration": 0.5714286666666659
                },
                {
                    "name": "G3",
                    "midi": 55,
                    "time": 30.85714799999997,
                    "velocity": 0.2677165354330709,
                    "duration": 0.5714286666666659
                },
                {
                    "name": "B2",
                    "midi": 47,
                    "time": 31.428576666666636,
                    "velocity": 0.2204724409448819,
                    "duration": 0.5714286666666695
                },
                {
                    "name": "D3",
                    "midi": 50,
                    "time": 32.000005333333306,
                    "velocity": 0.1732283464566929,
                    "duration": 0.5714286666666695
                },
                {
                    "name": "G3",
                    "midi": 55,
                    "time": 32.000005333333306,
                    "velocity": 0.2125984251968504,
                    "duration": 0.5714286666666695
                },
                {
                    "name": "D3",
                    "midi": 50,
                    "time": 32.571433999999975,
                    "velocity": 0.2677165354330709,
                    "duration": 0.5714286666666695
                },
                {
                    "name": "G3",
                    "midi": 55,
                    "time": 32.571433999999975,
                    "velocity": 0.31496062992125984,
                    "duration": 0.5714286666666695
                },
                {
                    "name": "B2",
                    "midi": 47,
                    "time": 33.142862666666645,
                    "velocity": 0.23622047244094488,
                    "duration": 0.5714286666666695
                },
                {
                    "name": "D3",
                    "midi": 50,
                    "time": 33.714291333333314,
                    "velocity": 0.1889763779527559,
                    "duration": 0.5714286666666695
                },
                {
                    "name": "G3",
                    "midi": 55,
                    "time": 33.714291333333314,
                    "velocity": 0.23622047244094488,
                    "duration": 0.5714286666666695
                },
                {
                    "name": "G3",
                    "midi": 55,
                    "time": 34.28571999999998,
                    "velocity": 0.3858267716535433,
                    "duration": 0.5714286666666695
                },
                {
                    "name": "C3",
                    "midi": 48,
                    "time": 34.85714866666665,
                    "velocity": 0.31496062992125984,
                    "duration": 0.5714286666666695
                },
                {
                    "name": "G3",
                    "midi": 55,
                    "time": 35.42857733333332,
                    "velocity": 0.31496062992125984,
                    "duration": 0.5714286666666695
                },
                {
                    "name": "A#3",
                    "midi": 58,
                    "time": 36.00000599999999,
                    "velocity": 0.4094488188976378,
                    "duration": 0.5714286666666695
                },
                {
                    "name": "G3",
                    "midi": 55,
                    "time": 36.00000599999999,
                    "velocity": 0.3464566929133858,
                    "duration": 0.5714286666666695
                },
                {
                    "name": "D3",
                    "midi": 50,
                    "time": 36.57143466666666,
                    "velocity": 0.33858267716535434,
                    "duration": 0.5714286666666695
                },
                {
                    "name": "A#3",
                    "midi": 58,
                    "time": 37.14286333333333,
                    "velocity": 0.33858267716535434,
                    "duration": 0.5714286666666695
                },
                {
                    "name": "G3",
                    "midi": 55,
                    "time": 37.14286333333333,
                    "velocity": 0.29133858267716534,
                    "duration": 0.5714286666666695
                },
                {
                    "name": "A#3",
                    "midi": 58,
                    "time": 37.714292,
                    "velocity": 0.4409448818897638,
                    "duration": 0.5714286666666695
                },
                {
                    "name": "G3",
                    "midi": 55,
                    "time": 37.714292,
                    "velocity": 0.3700787401574803,
                    "duration": 0.5714286666666695
                },
                {
                    "name": "E3",
                    "midi": 52,
                    "time": 38.28572066666667,
                    "velocity": 0.36220472440944884,
                    "duration": 0.5714286666666695
                },
                {
                    "name": "A#3",
                    "midi": 58,
                    "time": 38.85714933333334,
                    "velocity": 0.3779527559055118,
                    "duration": 0.5714286666666695
                },
                {
                    "name": "G3",
                    "midi": 55,
                    "time": 38.85714933333334,
                    "velocity": 0.30708661417322836,
                    "duration": 0.5714286666666695
                },
                {
                    "name": "C4",
                    "midi": 60,
                    "time": 39.42857800000001,
                    "velocity": 0.4566929133858268,
                    "duration": 0.5714286666666695
                },
                {
                    "name": "G3",
                    "midi": 55,
                    "time": 39.42857800000001,
                    "velocity": 0.3858267716535433,
                    "duration": 0.5714286666666695
                },
                {
                    "name": "E3",
                    "midi": 52,
                    "time": 40.00000666666668,
                    "velocity": 0.4094488188976378,
                    "duration": 0.5714286666666695
                },
                {
                    "name": "C4",
                    "midi": 60,
                    "time": 40.57143533333335,
                    "velocity": 0.3937007874015748,
                    "duration": 0.5714286666666695
                },
                {
                    "name": "G3",
                    "midi": 55,
                    "time": 40.57143533333335,
                    "velocity": 0.33070866141732286,
                    "duration": 0.5714286666666695
                },
                {
                    "name": "A3",
                    "midi": 57,
                    "time": 41.14286400000002,
                    "velocity": 0.4251968503937008,
                    "duration": 0.5714286666666695
                },
                {
                    "name": "C#4",
                    "midi": 61,
                    "time": 41.14286400000002,
                    "velocity": 0.5118110236220472,
                    "duration": 0.5714286666666695
                },
                {
                    "name": "E3",
                    "midi": 52,
                    "time": 41.71429266666669,
                    "velocity": 0.4566929133858268,
                    "duration": 0.5714286666666695
                },
                {
                    "name": "C#4",
                    "midi": 61,
                    "time": 42.285721333333356,
                    "velocity": 0.41732283464566927,
                    "duration": 0.5714286666666695
                },
                {
                    "name": "A3",
                    "midi": 57,
                    "time": 42.285721333333356,
                    "velocity": 0.3543307086614173,
                    "duration": 0.5714286666666695
                },
                {
                    "name": "A#3",
                    "midi": 58,
                    "time": 42.857150000000026,
                    "velocity": 0.4409448818897638,
                    "duration": 0.5714286666666695
                },
                {
                    "name": "C#4",
                    "midi": 61,
                    "time": 42.857150000000026,
                    "velocity": 0.5196850393700787,
                    "duration": 0.5714286666666695
                },
                {
                    "name": "E3",
                    "midi": 52,
                    "time": 43.428578666666695,
                    "velocity": 0.4566929133858268,
                    "duration": 0.5714286666666695
                },
                {
                    "name": "A#3",
                    "midi": 58,
                    "time": 44.000007333333365,
                    "velocity": 0.36220472440944884,
                    "duration": 0.5714286666666695
                },
                {
                    "name": "C#4",
                    "midi": 61,
                    "time": 44.000007333333365,
                    "velocity": 0.4251968503937008,
                    "duration": 0.5714286666666695
                },
                {
                    "name": "A#3",
                    "midi": 58,
                    "time": 44.571436000000034,
                    "velocity": 0.4645669291338583,
                    "duration": 0.5714286666666695
                },
                {
                    "name": "C#4",
                    "midi": 61,
                    "time": 44.571436000000034,
                    "velocity": 0.5511811023622047,
                    "duration": 0.5714286666666695
                },
                {
                    "name": "F3",
                    "midi": 53,
                    "time": 45.1428646666667,
                    "velocity": 0.4645669291338583,
                    "duration": 0.5714286666666695
                },
                {
                    "name": "A#3",
                    "midi": 58,
                    "time": 45.71429333333337,
                    "velocity": 0.36220472440944884,
                    "duration": 0.5714286666666695
                },
                {
                    "name": "C#4",
                    "midi": 61,
                    "time": 45.71429333333337,
                    "velocity": 0.4330708661417323,
                    "duration": 0.5714286666666695
                },
                {
                    "name": "A#3",
                    "midi": 58,
                    "time": 46.28572200000004,
                    "velocity": 0.47244094488188976,
                    "duration": 0.5714286666666695
                },
                {
                    "name": "C#4",
                    "midi": 61,
                    "time": 46.28572200000004,
                    "velocity": 0.5590551181102362,
                    "duration": 0.5714286666666695
                },
                {
                    "name": "G3",
                    "midi": 55,
                    "time": 46.85715066666671,
                    "velocity": 0.48031496062992124,
                    "duration": 0.5714286666666695
                },
                {
                    "name": "A#3",
                    "midi": 58,
                    "time": 47.42857933333338,
                    "velocity": 0.3700787401574803,
                    "duration": 0.5714286666666695
                },
                {
                    "name": "C#4",
                    "midi": 61,
                    "time": 47.42857933333338,
                    "velocity": 0.4409448818897638,
                    "duration": 0.5714286666666695
                },
                {
                    "name": "G#3",
                    "midi": 56,
                    "time": 48.00000800000005,
                    "velocity": 0.47244094488188976,
                    "duration": 0.5714286666666695
                },
                {
                    "name": "C4",
                    "midi": 60,
                    "time": 48.00000800000005,
                    "velocity": 0.5669291338582677,
                    "duration": 0.5714286666666695
                },
                {
                    "name": "D#3",
                    "midi": 51,
                    "time": 48.57143666666672,
                    "velocity": 0.4881889763779528,
                    "duration": 0.5714286666666695
                },
                {
                    "name": "G#3",
                    "midi": 56,
                    "time": 49.14286533333339,
                    "velocity": 0.3779527559055118,
                    "duration": 0.5714286666666695
                },
                {
                    "name": "C4",
                    "midi": 60,
                    "time": 49.14286533333339,
                    "velocity": 0.44881889763779526,
                    "duration": 0.5714286666666695
                },
                {
                    "name": "G3",
                    "midi": 55,
                    "time": 49.71429400000006,
                    "velocity": 0.47244094488188976,
                    "duration": 0.5714286666666695
                },
                {
                    "name": "C4",
                    "midi": 60,
                    "time": 49.71429400000006,
                    "velocity": 0.5669291338582677,
                    "duration": 0.5714286666666695
                },
                {
                    "name": "D#3",
                    "midi": 51,
                    "time": 50.28572266666673,
                    "velocity": 0.44881889763779526,
                    "duration": 0.5714286666666695
                },
                {
                    "name": "G3",
                    "midi": 55,
                    "time": 50.8571513333334,
                    "velocity": 0.3779527559055118,
                    "duration": 0.5714286666666695
                },
                {
                    "name": "A#3",
                    "midi": 58,
                    "time": 50.8571513333334,
                    "velocity": 0.44881889763779526,
                    "duration": 0.5714286666666695
                },
                {
                    "name": "G#3",
                    "midi": 56,
                    "time": 51.42858000000007,
                    "velocity": 0.49606299212598426,
                    "duration": 0.5714286666666695
                },
                {
                    "name": "D#3",
                    "midi": 51,
                    "time": 52.00000866666674,
                    "velocity": 0.3543307086614173,
                    "duration": 0.5714286666666695
                },
                {
                    "name": "G#3",
                    "midi": 56,
                    "time": 52.57143733333341,
                    "velocity": 0.3543307086614173,
                    "duration": 0.5714286666666695
                },
                {
                    "name": "D#3",
                    "midi": 51,
                    "time": 53.142866000000076,
                    "velocity": 0.3543307086614173,
                    "duration": 0.5714286666666695
                },
                {
                    "name": "G#3",
                    "midi": 56,
                    "time": 53.142866000000076,
                    "velocity": 0.4251968503937008,
                    "duration": 0.5714286666666695
                },
                {
                    "name": "B2",
                    "midi": 47,
                    "time": 53.714294666666746,
                    "velocity": 0.30708661417322836,
                    "duration": 0.5714286666666695
                },
                {
                    "name": "D#3",
                    "midi": 51,
                    "time": 54.285723333333415,
                    "velocity": 0.25984251968503935,
                    "duration": 0.5714286666666695
                },
                {
                    "name": "A3",
                    "midi": 57,
                    "time": 54.285723333333415,
                    "velocity": 0.30708661417322836,
                    "duration": 0.5714286666666695
                },
                {
                    "name": "E3",
                    "midi": 52,
                    "time": 54.857152000000085,
                    "velocity": 0.1889763779527559,
                    "duration": 0.5714286666666695
                },
                {
                    "name": "G#3",
                    "midi": 56,
                    "time": 54.857152000000085,
                    "velocity": 0.2204724409448819,
                    "duration": 0.5714286666666695
                },
                {
                    "name": "B2",
                    "midi": 47,
                    "time": 55.428580666666754,
                    "velocity": 0.16535433070866143,
                    "duration": 0.5714286666666695
                },
                {
                    "name": "E3",
                    "midi": 52,
                    "time": 56.00000933333342,
                    "velocity": 0.14960629921259844,
                    "duration": 0.5714286666666695
                },
                {
                    "name": "G#3",
                    "midi": 56,
                    "time": 56.00000933333342,
                    "velocity": 0.1732283464566929,
                    "duration": 0.5714286666666695
                },
                {
                    "name": "D#3",
                    "midi": 51,
                    "time": 56.57143800000009,
                    "velocity": 0.1889763779527559,
                    "duration": 0.5714286666666695
                },
                {
                    "name": "F#3",
                    "midi": 54,
                    "time": 56.57143800000009,
                    "velocity": 0.23622047244094488,
                    "duration": 0.5714286666666695
                },
                {
                    "name": "B2",
                    "midi": 47,
                    "time": 57.14286666666676,
                    "velocity": 0.1889763779527559,
                    "duration": 0.5714286666666695
                },
                {
                    "name": "D#3",
                    "midi": 51,
                    "time": 57.71429533333343,
                    "velocity": 0.14960629921259844,
                    "duration": 0.5714286666666695
                },
                {
                    "name": "F#3",
                    "midi": 54,
                    "time": 57.71429533333343,
                    "velocity": 0.1889763779527559,
                    "duration": 0.5714286666666695
                },
                {
                    "name": "E3",
                    "midi": 52,
                    "time": 58.2857240000001,
                    "velocity": 0.2283464566929134,
                    "duration": 0.5714286666666695
                },
                {
                    "name": "G#3",
                    "midi": 56,
                    "time": 58.2857240000001,
                    "velocity": 0.2677165354330709,
                    "duration": 0.5714286666666695
                },
                {
                    "name": "B2",
                    "midi": 47,
                    "time": 58.85715266666677,
                    "velocity": 0.1968503937007874,
                    "duration": 0.5714286666666695
                },
                {
                    "name": "E3",
                    "midi": 52,
                    "time": 59.42858133333344,
                    "velocity": 0.16535433070866143,
                    "duration": 0.5714286666666695
                },
                {
                    "name": "G#3",
                    "midi": 56,
                    "time": 59.42858133333344,
                    "velocity": 0.1968503937007874,
                    "duration": 0.5714286666666695
                },
                {
                    "name": "E3",
                    "midi": 52,
                    "time": 60.00001000000011,
                    "velocity": 0.23622047244094488,
                    "duration": 0.5714286666666695
                },
                {
                    "name": "A3",
                    "midi": 57,
                    "time": 60.00001000000011,
                    "velocity": 0.28346456692913385,
                    "duration": 0.5714286666666695
                },
                {
                    "name": "C3",
                    "midi": 48,
                    "time": 60.57143866666678,
                    "velocity": 0.2440944881889764,
                    "duration": 0.5714286666666695
                },
                {
                    "name": "E3",
                    "midi": 52,
                    "time": 61.14286733333345,
                    "velocity": 0.1968503937007874,
                    "duration": 0.5714286666666695
                },
                {
                    "name": "A3",
                    "midi": 57,
                    "time": 61.14286733333345,
                    "velocity": 0.2440944881889764,
                    "duration": 0.5714286666666695
                },
                {
                    "name": "F3",
                    "midi": 53,
                    "time": 61.71429600000012,
                    "velocity": 0.25984251968503935,
                    "duration": 0.5714286666666695
                },
                {
                    "name": "A3",
                    "midi": 57,
                    "time": 61.71429600000012,
                    "velocity": 0.30708661417322836,
                    "duration": 0.5714286666666695
                },
                {
                    "name": "C3",
                    "midi": 48,
                    "time": 62.28572466666679,
                    "velocity": 0.2125984251968504,
                    "duration": 0.5714286666666695
                },
                {
                    "name": "F3",
                    "midi": 53,
                    "time": 62.85715333333346,
                    "velocity": 0.1889763779527559,
                    "duration": 0.5714286666666695
                },
                {
                    "name": "A3",
                    "midi": 57,
                    "time": 62.85715333333346,
                    "velocity": 0.2204724409448819,
                    "duration": 0.5714286666666695
                },
                {
                    "name": "E3",
                    "midi": 52,
                    "time": 63.42858200000013,
                    "velocity": 0.1968503937007874,
                    "duration": 0.5714286666666695
                },
                {
                    "name": "G3",
                    "midi": 55,
                    "time": 63.42858200000013,
                    "velocity": 0.2283464566929134,
                    "duration": 0.5714286666666695
                },
                {
                    "name": "C3",
                    "midi": 48,
                    "time": 64.0000106666668,
                    "velocity": 0.1889763779527559,
                    "duration": 0.5714286666666624
                },
                {
                    "name": "E3",
                    "midi": 52,
                    "time": 64.57143933333346,
                    "velocity": 0.15748031496062992,
                    "duration": 0.5714286666666624
                },
                {
                    "name": "G3",
                    "midi": 55,
                    "time": 64.57143933333346,
                    "velocity": 0.1968503937007874,
                    "duration": 0.5714286666666624
                },
                {
                    "name": "F3",
                    "midi": 53,
                    "time": 65.14286800000012,
                    "velocity": 0.2440944881889764,
                    "duration": 0.5714286666666624
                },
                {
                    "name": "A3",
                    "midi": 57,
                    "time": 65.14286800000012,
                    "velocity": 0.29133858267716534,
                    "duration": 0.5714286666666624
                },
                {
                    "name": "C3",
                    "midi": 48,
                    "time": 65.71429666666678,
                    "velocity": 0.2204724409448819,
                    "duration": 0.5714286666666624
                },
                {
                    "name": "F3",
                    "midi": 53,
                    "time": 66.28572533333345,
                    "velocity": 0.1968503937007874,
                    "duration": 0.5714286666666624
                },
                {
                    "name": "A3",
                    "midi": 57,
                    "time": 66.28572533333345,
                    "velocity": 0.23622047244094488,
                    "duration": 0.5714286666666624
                },
                {
                    "name": "F3",
                    "midi": 53,
                    "time": 66.85715400000011,
                    "velocity": 0.30708661417322836,
                    "duration": 0.5714286666666624
                },
                {
                    "name": "A#3",
                    "midi": 58,
                    "time": 66.85715400000011,
                    "velocity": 0.3700787401574803,
                    "duration": 0.5714286666666624
                },
                {
                    "name": "D3",
                    "midi": 50,
                    "time": 67.42858266666677,
                    "velocity": 0.30708661417322836,
                    "duration": 0.5714286666666624
                },
                {
                    "name": "F3",
                    "midi": 53,
                    "time": 68.00001133333343,
                    "velocity": 0.23622047244094488,
                    "duration": 0.5714286666666624
                },
                {
                    "name": "A#3",
                    "midi": 58,
                    "time": 68.00001133333343,
                    "velocity": 0.28346456692913385,
                    "duration": 0.5714286666666624
                },
                {
                    "name": "G3",
                    "midi": 55,
                    "time": 68.5714400000001,
                    "velocity": 0.2677165354330709,
                    "duration": 0.5714286666666624
                },
                {
                    "name": "A#3",
                    "midi": 58,
                    "time": 68.5714400000001,
                    "velocity": 0.4409448818897638,
                    "duration": 0.5714286666666624
                },
                {
                    "name": "D3",
                    "midi": 50,
                    "time": 69.14286866666676,
                    "velocity": 0.36220472440944884,
                    "duration": 0.5714286666666624
                },
                {
                    "name": "G3",
                    "midi": 55,
                    "time": 69.71429733333342,
                    "velocity": 0.28346456692913385,
                    "duration": 0.5714286666666624
                },
                {
                    "name": "A#3",
                    "midi": 58,
                    "time": 69.71429733333342,
                    "velocity": 0.4015748031496063,
                    "duration": 0.5714286666666624
                },
                {
                    "name": "F#3",
                    "midi": 54,
                    "time": 70.28572600000008,
                    "velocity": 0.4015748031496063,
                    "duration": 0.5714286666666624
                },
                {
                    "name": "A3",
                    "midi": 57,
                    "time": 70.28572600000008,
                    "velocity": 0.47244094488188976,
                    "duration": 0.5714286666666624
                },
                {
                    "name": "D3",
                    "midi": 50,
                    "time": 70.85715466666674,
                    "velocity": 0.4330708661417323,
                    "duration": 0.5714286666666624
                },
                {
                    "name": "F#3",
                    "midi": 54,
                    "time": 71.4285833333334,
                    "velocity": 0.4094488188976378,
                    "duration": 0.5714286666666624
                },
                {
                    "name": "A3",
                    "midi": 57,
                    "time": 71.4285833333334,
                    "velocity": 0.4094488188976378,
                    "duration": 0.5714286666666624
                },
                {
                    "name": "G3",
                    "midi": 55,
                    "time": 72.00001200000007,
                    "velocity": 0.4015748031496063,
                    "duration": 0.5714286666666624
                },
                {
                    "name": "B3",
                    "midi": 59,
                    "time": 72.00001200000007,
                    "velocity": 0.47244094488188976,
                    "duration": 0.5714286666666624
                },
                {
                    "name": "D3",
                    "midi": 50,
                    "time": 72.57144066666673,
                    "velocity": 0.4330708661417323,
                    "duration": 0.5714286666666624
                },
                {
                    "name": "G3",
                    "midi": 55,
                    "time": 73.1428693333334,
                    "velocity": 0.30708661417322836,
                    "duration": 0.5714286666666624
                },
                {
                    "name": "B3",
                    "midi": 59,
                    "time": 73.1428693333334,
                    "velocity": 0.4330708661417323,
                    "duration": 0.5714286666666624
                },
                {
                    "name": "F#3",
                    "midi": 54,
                    "time": 73.71429800000006,
                    "velocity": 0.33070866141732286,
                    "duration": 0.5714286666666624
                },
                {
                    "name": "B3",
                    "midi": 59,
                    "time": 73.71429800000006,
                    "velocity": 0.5511811023622047,
                    "duration": 0.5714286666666624
                },
                {
                    "name": "D#3",
                    "midi": 51,
                    "time": 74.28572666666672,
                    "velocity": 0.5039370078740157,
                    "duration": 0.5714286666666624
                },
                {
                    "name": "F#3",
                    "midi": 54,
                    "time": 74.85715533333338,
                    "velocity": 0.33070866141732286,
                    "duration": 0.5714286666666624
                },
                {
                    "name": "B3",
                    "midi": 59,
                    "time": 74.85715533333338,
                    "velocity": 0.4645669291338583,
                    "duration": 0.5714286666666624
                },
                {
                    "name": "G#3",
                    "midi": 56,
                    "time": 75.42858400000004,
                    "velocity": 0.4251968503937008,
                    "duration": 0.5714286666666624
                },
                {
                    "name": "B3",
                    "midi": 59,
                    "time": 75.42858400000004,
                    "velocity": 0.5984251968503937,
                    "duration": 0.5714286666666624
                },
                {
                    "name": "E3",
                    "midi": 52,
                    "time": 76.0000126666667,
                    "velocity": 0.5196850393700787,
                    "duration": 0.5714286666666624
                },
                {
                    "name": "G#3",
                    "midi": 56,
                    "time": 76.57144133333337,
                    "velocity": 0.3937007874015748,
                    "duration": 0.5714286666666624
                },
                {
                    "name": "B3",
                    "midi": 59,
                    "time": 76.57144133333337,
                    "velocity": 0.4645669291338583,
                    "duration": 0.5714286666666624
                },
                {
                    "name": "G#3",
                    "midi": 56,
                    "time": 77.14287000000003,
                    "velocity": 0.4251968503937008,
                    "duration": 0.5714286666666624
                },
                {
                    "name": "B3",
                    "midi": 59,
                    "time": 77.14287000000003,
                    "velocity": 0.5984251968503937,
                    "duration": 0.5714286666666624
                },
                {
                    "name": "E3",
                    "midi": 52,
                    "time": 77.71429866666669,
                    "velocity": 0.5275590551181102,
                    "duration": 0.5714286666666624
                },
                {
                    "name": "B3",
                    "midi": 59,
                    "time": 78.28572733333336,
                    "velocity": 0.44881889763779526,
                    "duration": 4.000000666666665
                },
                {
                    "name": "G#3",
                    "midi": 56,
                    "time": 78.28572733333336,
                    "velocity": 0.3779527559055118,
                    "duration": 0.5714286666666624
                },
                {
                    "name": "G#3",
                    "midi": 56,
                    "time": 78.85715600000002,
                    "velocity": 0.4251968503937008,
                    "duration": 3.4285720000000026
                },
                {
                    "name": "E3",
                    "midi": 52,
                    "time": 78.85715600000002,
                    "velocity": 0.4251968503937008,
                    "duration": 3.4285720000000026
                }
            ],
            "controlChanges": {
                "7": [
                    {
                        "number": 7,
                        "time": 0,
                        "value": 0.7874015748031497
                    }
                ],
                "10": [
                    {
                        "number": 10,
                        "time": 0,
                        "value": 0.5039370078740157
                    }
                ],
                "91": [
                    {
                        "number": 91,
                        "time": 0,
                        "value": 1
                    }
                ]
            },
            "id": 2,
            "name": "Piano right Main",
            "instrumentNumber": 0,
            "instrument": "acoustic grand piano",
            "instrumentFamily": "piano",
            "channelNumber": 0,
            "isPercussion": false
        },
        {
            "startTime": 0.014285716666666667,
            "duration": 82.28572799999993,
            "length": 118,
            "notes": [
                {
                    "name": "E2",
                    "midi": 40,
                    "time": 0.014285716666666667,
                    "velocity": 0.48031496062992124,
                    "duration": 1.714286
                },
                {
                    "name": "B1",
                    "midi": 35,
                    "time": 1.714286,
                    "velocity": 0.4330708661417323,
                    "duration": 1.714286
                },
                {
                    "name": "E2",
                    "midi": 40,
                    "time": 3.428572,
                    "velocity": 0.5196850393700787,
                    "duration": 1.7142860000000004
                },
                {
                    "name": "A2",
                    "midi": 45,
                    "time": 5.142858,
                    "velocity": 0.5039370078740157,
                    "duration": 1.5000002499999994
                },
                {
                    "name": "G#2",
                    "midi": 44,
                    "time": 6.64285825,
                    "velocity": 0.5039370078740157,
                    "duration": 0.21428575000000016
                },
                {
                    "name": "F#2",
                    "midi": 42,
                    "time": 6.857144,
                    "velocity": 0.49606299212598426,
                    "duration": 3.428571999999999
                },
                {
                    "name": "B1",
                    "midi": 35,
                    "time": 10.285715999999999,
                    "velocity": 0.47244094488188976,
                    "duration": 1.7142859999999995
                },
                {
                    "name": "B2",
                    "midi": 47,
                    "time": 12.000001999999999,
                    "velocity": 0.4566929133858268,
                    "duration": 1.5000002499999994
                },
                {
                    "name": "B2",
                    "midi": 47,
                    "time": 13.500002249999998,
                    "velocity": 0.4881889763779528,
                    "duration": 0.21428575000000016
                },
                {
                    "name": "C#2",
                    "midi": 37,
                    "time": 13.714287999999998,
                    "velocity": 0.5039370078740157,
                    "duration": 1.7142859999999995
                },
                {
                    "name": "A2",
                    "midi": 45,
                    "time": 15.428573999999998,
                    "velocity": 0.5039370078740157,
                    "duration": 1.5000002499999994
                },
                {
                    "name": "A2",
                    "midi": 45,
                    "time": 16.928574249999997,
                    "velocity": 0.5354330708661418,
                    "duration": 0.2142857499999984
                },
                {
                    "name": "B1",
                    "midi": 35,
                    "time": 17.142859999999995,
                    "velocity": 0.5354330708661418,
                    "duration": 1.542857399999999
                },
                {
                    "name": "A#1",
                    "midi": 34,
                    "time": 18.685717399999994,
                    "velocity": 0.31496062992125984,
                    "duration": 0.08571429999999935
                },
                {
                    "name": "B1",
                    "midi": 35,
                    "time": 18.771431699999994,
                    "velocity": 0.31496062992125984,
                    "duration": 0.08571429999999935
                },
                {
                    "name": "C#2",
                    "midi": 37,
                    "time": 18.857145999999993,
                    "velocity": 0.31496062992125984,
                    "duration": 0.08571429999999935
                },
                {
                    "name": "B1",
                    "midi": 35,
                    "time": 18.942860299999992,
                    "velocity": 0.31496062992125984,
                    "duration": 0.08571429999999935
                },
                {
                    "name": "C#2",
                    "midi": 37,
                    "time": 19.028574599999992,
                    "velocity": 0.31496062992125984,
                    "duration": 0.08571429999999935
                },
                {
                    "name": "B1",
                    "midi": 35,
                    "time": 19.11428889999999,
                    "velocity": 0.31496062992125984,
                    "duration": 0.08571429999999935
                },
                {
                    "name": "C#2",
                    "midi": 37,
                    "time": 19.20000319999999,
                    "velocity": 0.31496062992125984,
                    "duration": 0.08571429999999935
                },
                {
                    "name": "B1",
                    "midi": 35,
                    "time": 19.28571749999999,
                    "velocity": 0.31496062992125984,
                    "duration": 0.08571429999999935
                },
                {
                    "name": "C#2",
                    "midi": 37,
                    "time": 19.37143179999999,
                    "velocity": 0.31496062992125984,
                    "duration": 0.08571429999999935
                },
                {
                    "name": "B1",
                    "midi": 35,
                    "time": 19.45714609999999,
                    "velocity": 0.31496062992125984,
                    "duration": 0.08571429999999935
                },
                {
                    "name": "C#2",
                    "midi": 37,
                    "time": 19.542860399999988,
                    "velocity": 0.30708661417322836,
                    "duration": 0.08571429999999935
                },
                {
                    "name": "B1",
                    "midi": 35,
                    "time": 19.628574699999987,
                    "velocity": 0.3228346456692913,
                    "duration": 0.08571429999999935
                },
                {
                    "name": "C#2",
                    "midi": 37,
                    "time": 19.714288999999987,
                    "velocity": 0.3464566929133858,
                    "duration": 0.08571429999999935
                },
                {
                    "name": "B1",
                    "midi": 35,
                    "time": 19.800003299999986,
                    "velocity": 0.3543307086614173,
                    "duration": 0.08571429999999935
                },
                {
                    "name": "C#2",
                    "midi": 37,
                    "time": 19.885717599999985,
                    "velocity": 0.3700787401574803,
                    "duration": 0.08571429999999935
                },
                {
                    "name": "B1",
                    "midi": 35,
                    "time": 19.971431899999985,
                    "velocity": 0.3858267716535433,
                    "duration": 0.08571429999999935
                },
                {
                    "name": "C#2",
                    "midi": 37,
                    "time": 20.057146199999984,
                    "velocity": 0.4015748031496063,
                    "duration": 0.08571429999999935
                },
                {
                    "name": "B1",
                    "midi": 35,
                    "time": 20.142860499999983,
                    "velocity": 0.41732283464566927,
                    "duration": 0.08571429999999935
                },
                {
                    "name": "C#2",
                    "midi": 37,
                    "time": 20.228574799999983,
                    "velocity": 0.4251968503937008,
                    "duration": 0.08571429999999935
                },
                {
                    "name": "B1",
                    "midi": 35,
                    "time": 20.314289099999982,
                    "velocity": 0.4409448818897638,
                    "duration": 0.08571429999999935
                },
                {
                    "name": "A#1",
                    "midi": 34,
                    "time": 20.40000339999998,
                    "velocity": 0.4566929133858268,
                    "duration": 0.08571429999999935
                },
                {
                    "name": "B1",
                    "midi": 35,
                    "time": 20.48571769999998,
                    "velocity": 0.48031496062992124,
                    "duration": 0.08571429999999935
                },
                {
                    "name": "C#2",
                    "midi": 37,
                    "time": 20.57143199999998,
                    "velocity": 0.4881889763779528,
                    "duration": 1.7142860000000013
                },
                {
                    "name": "F#2",
                    "midi": 42,
                    "time": 22.28571799999998,
                    "velocity": 0.5354330708661418,
                    "duration": 1.500000250000003
                },
                {
                    "name": "F#2",
                    "midi": 42,
                    "time": 23.785718249999984,
                    "velocity": 0.4251968503937008,
                    "duration": 0.2142857499999984
                },
                {
                    "name": "D#2",
                    "midi": 39,
                    "time": 24.000003999999983,
                    "velocity": 0.4251968503937008,
                    "duration": 1.542857399999999
                },
                {
                    "name": "D2",
                    "midi": 38,
                    "time": 25.542861399999982,
                    "velocity": 0.3464566929133858,
                    "duration": 0.08571429999999935
                },
                {
                    "name": "D#2",
                    "midi": 39,
                    "time": 25.62857569999998,
                    "velocity": 0.3464566929133858,
                    "duration": 0.08571429999999935
                },
                {
                    "name": "E2",
                    "midi": 40,
                    "time": 25.71428999999998,
                    "velocity": 0.3464566929133858,
                    "duration": 0.08571429999999935
                },
                {
                    "name": "D#2",
                    "midi": 39,
                    "time": 25.80000429999998,
                    "velocity": 0.33858267716535434,
                    "duration": 0.08571429999999935
                },
                {
                    "name": "E2",
                    "midi": 40,
                    "time": 25.88571859999998,
                    "velocity": 0.33858267716535434,
                    "duration": 0.08571429999999935
                },
                {
                    "name": "D#2",
                    "midi": 39,
                    "time": 25.97143289999998,
                    "velocity": 0.33858267716535434,
                    "duration": 0.08571429999999935
                },
                {
                    "name": "E2",
                    "midi": 40,
                    "time": 26.057147199999978,
                    "velocity": 0.33070866141732286,
                    "duration": 0.08571429999999935
                },
                {
                    "name": "D#2",
                    "midi": 39,
                    "time": 26.142861499999977,
                    "velocity": 0.33070866141732286,
                    "duration": 0.08571429999999935
                },
                {
                    "name": "E2",
                    "midi": 40,
                    "time": 26.228575799999977,
                    "velocity": 0.33070866141732286,
                    "duration": 0.08571429999999935
                },
                {
                    "name": "D#2",
                    "midi": 39,
                    "time": 26.314290099999976,
                    "velocity": 0.31496062992125984,
                    "duration": 0.08571429999999935
                },
                {
                    "name": "E2",
                    "midi": 40,
                    "time": 26.400004399999975,
                    "velocity": 0.3228346456692913,
                    "duration": 0.08571429999999935
                },
                {
                    "name": "D#2",
                    "midi": 39,
                    "time": 26.485718699999975,
                    "velocity": 0.31496062992125984,
                    "duration": 0.08571429999999935
                },
                {
                    "name": "E2",
                    "midi": 40,
                    "time": 26.571432999999974,
                    "velocity": 0.3228346456692913,
                    "duration": 0.08571429999999935
                },
                {
                    "name": "D#2",
                    "midi": 39,
                    "time": 26.657147299999973,
                    "velocity": 0.33070866141732286,
                    "duration": 0.08571429999999935
                },
                {
                    "name": "E2",
                    "midi": 40,
                    "time": 26.742861599999973,
                    "velocity": 0.33070866141732286,
                    "duration": 0.08571429999999935
                },
                {
                    "name": "D#2",
                    "midi": 39,
                    "time": 26.828575899999972,
                    "velocity": 0.33858267716535434,
                    "duration": 0.08571429999999935
                },
                {
                    "name": "E2",
                    "midi": 40,
                    "time": 26.91429019999997,
                    "velocity": 0.33858267716535434,
                    "duration": 0.1714285999999987
                },
                {
                    "name": "D#2",
                    "midi": 39,
                    "time": 27.00000449999997,
                    "velocity": 0.33858267716535434,
                    "duration": 0.1714285999999987
                },
                {
                    "name": "C#2",
                    "midi": 37,
                    "time": 27.08571879999997,
                    "velocity": 0.3464566929133858,
                    "duration": 0.08571429999999935
                },
                {
                    "name": "D#2",
                    "midi": 39,
                    "time": 27.17143309999997,
                    "velocity": 0.3464566929133858,
                    "duration": 0.08571429999999935
                },
                {
                    "name": "E2",
                    "midi": 40,
                    "time": 27.25714739999997,
                    "velocity": 0.33858267716535434,
                    "duration": 0.08571429999999935
                },
                {
                    "name": "F#2",
                    "midi": 42,
                    "time": 27.34286169999997,
                    "velocity": 0.4015748031496063,
                    "duration": 0.08571429999999935
                },
                {
                    "name": "E2",
                    "midi": 40,
                    "time": 27.428575999999968,
                    "velocity": 0.2677165354330709,
                    "duration": 1.7142860000000013
                },
                {
                    "name": "B1",
                    "midi": 35,
                    "time": 29.14286199999997,
                    "velocity": 0.28346456692913385,
                    "duration": 1.7142860000000013
                },
                {
                    "name": "G1",
                    "midi": 31,
                    "time": 30.85714799999997,
                    "velocity": 0.30708661417322836,
                    "duration": 1.7142859999999978
                },
                {
                    "name": "G2",
                    "midi": 43,
                    "time": 32.57143399999997,
                    "velocity": 0.33070866141732286,
                    "duration": 1.5000002499999994
                },
                {
                    "name": "F2",
                    "midi": 41,
                    "time": 34.07143424999997,
                    "velocity": 0.4094488188976378,
                    "duration": 0.21428575000000194
                },
                {
                    "name": "D2",
                    "midi": 38,
                    "time": 36.00000599999997,
                    "velocity": 0.41732283464566927,
                    "duration": 1.7142860000000013
                },
                {
                    "name": "C2",
                    "midi": 36,
                    "time": 37.71429199999997,
                    "velocity": 0.4409448818897638,
                    "duration": 1.7142859999999942
                },
                {
                    "name": "C2",
                    "midi": 36,
                    "time": 39.428577999999966,
                    "velocity": 0.3779527559055118,
                    "duration": 1.5000002499999994
                },
                {
                    "name": "C3",
                    "midi": 48,
                    "time": 39.428577999999966,
                    "velocity": 0.44881889763779526,
                    "duration": 1.5000002499999994
                },
                {
                    "name": "B1",
                    "midi": 35,
                    "time": 40.928578249999966,
                    "velocity": 0.33858267716535434,
                    "duration": 0.21428575000000194
                },
                {
                    "name": "B2",
                    "midi": 47,
                    "time": 40.928578249999966,
                    "velocity": 0.4094488188976378,
                    "duration": 0.21428575000000194
                },
                {
                    "name": "A1",
                    "midi": 33,
                    "time": 41.14286399999997,
                    "velocity": 0.33858267716535434,
                    "duration": 1.7142859999999942
                },
                {
                    "name": "A2",
                    "midi": 45,
                    "time": 41.14286399999997,
                    "velocity": 0.4094488188976378,
                    "duration": 1.7142859999999942
                },
                {
                    "name": "G1",
                    "midi": 31,
                    "time": 42.85714999999996,
                    "velocity": 0.3779527559055118,
                    "duration": 1.5000002499999994
                },
                {
                    "name": "G2",
                    "midi": 43,
                    "time": 42.85714999999996,
                    "velocity": 0.44881889763779526,
                    "duration": 1.5000002499999994
                },
                {
                    "name": "G1",
                    "midi": 31,
                    "time": 44.35715024999996,
                    "velocity": 0.3779527559055118,
                    "duration": 0.21428575000000194
                },
                {
                    "name": "G2",
                    "midi": 43,
                    "time": 44.35715024999996,
                    "velocity": 0.4409448818897638,
                    "duration": 0.21428575000000194
                },
                {
                    "name": "F1",
                    "midi": 29,
                    "time": 44.57143599999996,
                    "velocity": 0.3779527559055118,
                    "duration": 1.7142860000000013
                },
                {
                    "name": "F2",
                    "midi": 41,
                    "time": 44.57143599999996,
                    "velocity": 0.4409448818897638,
                    "duration": 1.7142860000000013
                },
                {
                    "name": "E1",
                    "midi": 28,
                    "time": 46.285721999999964,
                    "velocity": 0.3858267716535433,
                    "duration": 1.7142859999999942
                },
                {
                    "name": "E2",
                    "midi": 40,
                    "time": 46.285721999999964,
                    "velocity": 0.44881889763779526,
                    "duration": 1.7142859999999942
                },
                {
                    "name": "D#1",
                    "midi": 27,
                    "time": 48.00000799999996,
                    "velocity": 0.4094488188976378,
                    "duration": 3.4285720000000026
                },
                {
                    "name": "D#2",
                    "midi": 39,
                    "time": 48.00000799999996,
                    "velocity": 0.4881889763779528,
                    "duration": 3.4285720000000026
                },
                {
                    "name": "G#1",
                    "midi": 32,
                    "time": 51.42857999999996,
                    "velocity": 0.48031496062992124,
                    "duration": 1.7142859999999942
                },
                {
                    "name": "B1",
                    "midi": 35,
                    "time": 53.142865999999955,
                    "velocity": 0.41732283464566927,
                    "duration": 1.7142860000000013
                },
                {
                    "name": "E1",
                    "midi": 28,
                    "time": 54.85715199999996,
                    "velocity": 0.14173228346456693,
                    "duration": 1.7142860000000013
                },
                {
                    "name": "E2",
                    "midi": 40,
                    "time": 54.85715199999996,
                    "velocity": 0.1732283464566929,
                    "duration": 1.7142860000000013
                },
                {
                    "name": "B1",
                    "midi": 35,
                    "time": 56.57143799999996,
                    "velocity": 0.2125984251968504,
                    "duration": 1.7142859999999942
                },
                {
                    "name": "E2",
                    "midi": 40,
                    "time": 58.28572399999995,
                    "velocity": 0.23622047244094488,
                    "duration": 1.7142859999999942
                },
                {
                    "name": "A1",
                    "midi": 33,
                    "time": 60.000009999999946,
                    "velocity": 0.2204724409448819,
                    "duration": 1.5000002499999994
                },
                {
                    "name": "A2",
                    "midi": 45,
                    "time": 60.000009999999946,
                    "velocity": 0.25984251968503935,
                    "duration": 1.5000002499999994
                },
                {
                    "name": "A1",
                    "midi": 33,
                    "time": 61.500010249999946,
                    "velocity": 0.25984251968503935,
                    "duration": 0.21428575000000194
                },
                {
                    "name": "A2",
                    "midi": 45,
                    "time": 61.500010249999946,
                    "velocity": 0.30708661417322836,
                    "duration": 0.21428575000000194
                },
                {
                    "name": "F1",
                    "midi": 29,
                    "time": 61.71429599999995,
                    "velocity": 0.25984251968503935,
                    "duration": 1.7142860000000013
                },
                {
                    "name": "F2",
                    "midi": 41,
                    "time": 61.71429599999995,
                    "velocity": 0.31496062992125984,
                    "duration": 1.7142860000000013
                },
                {
                    "name": "C1",
                    "midi": 24,
                    "time": 63.42858199999995,
                    "velocity": 0.2125984251968504,
                    "duration": 1.7142860000000013
                },
                {
                    "name": "C2",
                    "midi": 36,
                    "time": 63.42858199999995,
                    "velocity": 0.25196850393700787,
                    "duration": 1.7142860000000013
                },
                {
                    "name": "F1",
                    "midi": 29,
                    "time": 65.14286799999995,
                    "velocity": 0.25984251968503935,
                    "duration": 1.7142860000000013
                },
                {
                    "name": "F2",
                    "midi": 41,
                    "time": 65.14286799999995,
                    "velocity": 0.30708661417322836,
                    "duration": 1.7142860000000013
                },
                {
                    "name": "A#1",
                    "midi": 34,
                    "time": 66.85715399999995,
                    "velocity": 0.30708661417322836,
                    "duration": 1.5000002499999994
                },
                {
                    "name": "A#2",
                    "midi": 46,
                    "time": 66.85715399999995,
                    "velocity": 0.3700787401574803,
                    "duration": 1.5000002499999994
                },
                {
                    "name": "A#1",
                    "midi": 34,
                    "time": 68.35715424999995,
                    "velocity": 0.36220472440944884,
                    "duration": 0.21428575000000194
                },
                {
                    "name": "A#2",
                    "midi": 46,
                    "time": 68.35715424999995,
                    "velocity": 0.4330708661417323,
                    "duration": 0.21428575000000194
                },
                {
                    "name": "G1",
                    "midi": 31,
                    "time": 68.57143999999995,
                    "velocity": 0.3779527559055118,
                    "duration": 1.7142860000000013
                },
                {
                    "name": "G2",
                    "midi": 43,
                    "time": 68.57143999999995,
                    "velocity": 0.44881889763779526,
                    "duration": 1.7142860000000013
                },
                {
                    "name": "D1",
                    "midi": 26,
                    "time": 70.28572599999995,
                    "velocity": 0.44881889763779526,
                    "duration": 1.7142860000000013
                },
                {
                    "name": "D2",
                    "midi": 38,
                    "time": 70.28572599999995,
                    "velocity": 0.5354330708661418,
                    "duration": 1.7142860000000013
                },
                {
                    "name": "G1",
                    "midi": 31,
                    "time": 72.00001199999996,
                    "velocity": 0.4251968503937008,
                    "duration": 1.7142860000000013
                },
                {
                    "name": "G2",
                    "midi": 43,
                    "time": 72.00001199999996,
                    "velocity": 0.5039370078740157,
                    "duration": 1.7142860000000013
                },
                {
                    "name": "B1",
                    "midi": 35,
                    "time": 73.71429799999996,
                    "velocity": 0.4409448818897638,
                    "duration": 1.5000002499999852
                },
                {
                    "name": "B2",
                    "midi": 47,
                    "time": 73.71429799999996,
                    "velocity": 0.5275590551181102,
                    "duration": 1.5000002499999852
                },
                {
                    "name": "B1",
                    "midi": 35,
                    "time": 75.21429824999994,
                    "velocity": 0.4409448818897638,
                    "duration": 0.10714287499999386
                },
                {
                    "name": "B2",
                    "midi": 47,
                    "time": 75.21429824999994,
                    "velocity": 0.5275590551181102,
                    "duration": 0.10714287499999386
                },
                {
                    "name": "E1",
                    "midi": 28,
                    "time": 75.32144112499994,
                    "velocity": 0.5275590551181102,
                    "duration": 3.5357148749999965
                },
                {
                    "name": "E2",
                    "midi": 40,
                    "time": 75.42858399999993,
                    "velocity": 0.5826771653543307,
                    "duration": 6.857144000000005
                },
                {
                    "name": "B1",
                    "midi": 35,
                    "time": 77.14286999999993,
                    "velocity": 0.5826771653543307,
                    "duration": 5.142858000000004
                },
                {
                    "name": "E1",
                    "midi": 28,
                    "time": 78.85715599999993,
                    "velocity": 0.5826771653543307,
                    "duration": 3.4285720000000026
                }
            ],
            "controlChanges": {
                "7": [
                    {
                        "number": 7,
                        "time": 0,
                        "value": 0.7874015748031497
                    }
                ],
                "10": [
                    {
                        "number": 10,
                        "time": 0,
                        "value": 0.5039370078740157
                    }
                ],
                "64": [
                    {
                        "number": 64,
                        "time": 0.15357145416666668,
                        "value": 1
                    },
                    {
                        "number": 64,
                        "time": 1.7571431499999999,
                        "value": 0
                    },
                    {
                        "number": 64,
                        "time": 1.9785717583333333,
                        "value": 1
                    },
                    {
                        "number": 64,
                        "time": 3.4785720083333334,
                        "value": 0
                    },
                    {
                        "number": 64,
                        "time": 3.64285775,
                        "value": 1
                    },
                    {
                        "number": 64,
                        "time": 5.1750008625,
                        "value": 0
                    },
                    {
                        "number": 64,
                        "time": 5.4071437583333335,
                        "value": 1
                    },
                    {
                        "number": 64,
                        "time": 6.896429720833333,
                        "value": 0
                    },
                    {
                        "number": 64,
                        "time": 7.110715470833333,
                        "value": 1
                    },
                    {
                        "number": 64,
                        "time": 8.628572866666666,
                        "value": 0
                    },
                    {
                        "number": 64,
                        "time": 8.810715754166665,
                        "value": 1
                    },
                    {
                        "number": 64,
                        "time": 10.300001716666666,
                        "value": 0
                    },
                    {
                        "number": 64,
                        "time": 10.460716029166665,
                        "value": 1
                    },
                    {
                        "number": 64,
                        "time": 12.053573437499999,
                        "value": 0
                    },
                    {
                        "number": 64,
                        "time": 12.264287758333332,
                        "value": 1
                    },
                    {
                        "number": 64,
                        "time": 13.742859433333331,
                        "value": 0
                    },
                    {
                        "number": 64,
                        "time": 13.910716604166664,
                        "value": 1
                    },
                    {
                        "number": 64,
                        "time": 15.485716866666664,
                        "value": 0
                    },
                    {
                        "number": 64,
                        "time": 15.625002604166664,
                        "value": 1
                    },
                    {
                        "number": 64,
                        "time": 17.17143143333333,
                        "value": 0
                    },
                    {
                        "number": 64,
                        "time": 17.289288595833327,
                        "value": 1
                    },
                    {
                        "number": 64,
                        "time": 18.65714596666666,
                        "value": 0
                    },
                    {
                        "number": 64,
                        "time": 18.96786030416666,
                        "value": 1
                    },
                    {
                        "number": 64,
                        "time": 20.600003433333313,
                        "value": 0
                    },
                    {
                        "number": 64,
                        "time": 20.692860591666648,
                        "value": 1
                    },
                    {
                        "number": 64,
                        "time": 22.31071800416665,
                        "value": 0
                    },
                    {
                        "number": 64,
                        "time": 22.442860883333317,
                        "value": 1
                    },
                    {
                        "number": 64,
                        "time": 24.028575433333316,
                        "value": 0
                    },
                    {
                        "number": 64,
                        "time": 24.160718312499984,
                        "value": 1
                    },
                    {
                        "number": 64,
                        "time": 25.47143281666665,
                        "value": 0
                    },
                    {
                        "number": 64,
                        "time": 25.828575733333313,
                        "value": 1
                    },
                    {
                        "number": 64,
                        "time": 27.453576004166635,
                        "value": 0
                    },
                    {
                        "number": 64,
                        "time": 27.6928617583333,
                        "value": 1
                    },
                    {
                        "number": 64,
                        "time": 29.19643343749997,
                        "value": 0
                    },
                    {
                        "number": 64,
                        "time": 29.33571917499997,
                        "value": 1
                    },
                    {
                        "number": 64,
                        "time": 30.91071943749997,
                        "value": 0
                    },
                    {
                        "number": 64,
                        "time": 31.05000517499997,
                        "value": 1
                    },
                    {
                        "number": 64,
                        "time": 34.30000571666664,
                        "value": 0
                    },
                    {
                        "number": 64,
                        "time": 34.58929147916664,
                        "value": 1
                    },
                    {
                        "number": 64,
                        "time": 36.035720291666635,
                        "value": 0.2440944881889764
                    },
                    {
                        "number": 64,
                        "time": 36.2000060333333,
                        "value": 1
                    },
                    {
                        "number": 64,
                        "time": 37.75000629166664,
                        "value": 0
                    },
                    {
                        "number": 64,
                        "time": 37.9678634708333,
                        "value": 1
                    },
                    {
                        "number": 64,
                        "time": 39.4678637208333,
                        "value": 0
                    },
                    {
                        "number": 64,
                        "time": 39.6821494708333,
                        "value": 1
                    },
                    {
                        "number": 64,
                        "time": 41.1607211458333,
                        "value": 0
                    },
                    {
                        "number": 64,
                        "time": 41.33929260416663,
                        "value": 1
                    },
                    {
                        "number": 64,
                        "time": 42.892864291666626,
                        "value": 0
                    },
                    {
                        "number": 64,
                        "time": 43.053578604166624,
                        "value": 1
                    },
                    {
                        "number": 64,
                        "time": 44.603578862499965,
                        "value": 0
                    },
                    {
                        "number": 64,
                        "time": 44.75715031666663,
                        "value": 1
                    },
                    {
                        "number": 64,
                        "time": 46.31072200416663,
                        "value": 0
                    },
                    {
                        "number": 64,
                        "time": 46.51786489583329,
                        "value": 1
                    },
                    {
                        "number": 64,
                        "time": 48.03215086249996,
                        "value": 0
                    },
                    {
                        "number": 64,
                        "time": 48.164293741666626,
                        "value": 1
                    },
                    {
                        "number": 64,
                        "time": 49.764294008333295,
                        "value": 0
                    },
                    {
                        "number": 64,
                        "time": 49.87857974166663,
                        "value": 1
                    },
                    {
                        "number": 64,
                        "time": 51.467865720833295,
                        "value": 0
                    },
                    {
                        "number": 64,
                        "time": 51.550008591666625,
                        "value": 1
                    },
                    {
                        "number": 64,
                        "time": 53.17143743333329,
                        "value": 0
                    },
                    {
                        "number": 64,
                        "time": 53.31786602916662,
                        "value": 1
                    },
                    {
                        "number": 64,
                        "time": 54.88215200416662,
                        "value": 0
                    },
                    {
                        "number": 64,
                        "time": 55.09643775416662,
                        "value": 1
                    },
                    {
                        "number": 64,
                        "time": 56.625009437499955,
                        "value": 0
                    },
                    {
                        "number": 64,
                        "time": 56.76072374583329,
                        "value": 1
                    },
                    {
                        "number": 64,
                        "time": 58.33929543749995,
                        "value": 0
                    },
                    {
                        "number": 64,
                        "time": 58.55000975833328,
                        "value": 1
                    },
                    {
                        "number": 64,
                        "time": 60.05001000833328,
                        "value": 0
                    },
                    {
                        "number": 64,
                        "time": 60.21429574999995,
                        "value": 1
                    },
                    {
                        "number": 64,
                        "time": 61.74286743333328,
                        "value": 0
                    },
                    {
                        "number": 64,
                        "time": 61.95358175416661,
                        "value": 1
                    },
                    {
                        "number": 64,
                        "time": 63.46786772083328,
                        "value": 0
                    },
                    {
                        "number": 64,
                        "time": 63.62858203333328,
                        "value": 1
                    },
                    {
                        "number": 64,
                        "time": 65.18215372083328,
                        "value": 0
                    },
                    {
                        "number": 64,
                        "time": 65.33215374583328,
                        "value": 1
                    },
                    {
                        "number": 64,
                        "time": 66.87143971666661,
                        "value": 0
                    },
                    {
                        "number": 64,
                        "time": 67.08572546666662,
                        "value": 1
                    },
                    {
                        "number": 64,
                        "time": 68.60358286249995,
                        "value": 0
                    },
                    {
                        "number": 64,
                        "time": 68.83572575833328,
                        "value": 1
                    },
                    {
                        "number": 64,
                        "time": 70.31786886249995,
                        "value": 0
                    },
                    {
                        "number": 64,
                        "time": 70.47501174583329,
                        "value": 1
                    },
                    {
                        "number": 64,
                        "time": 72.04286914999996,
                        "value": 0
                    },
                    {
                        "number": 64,
                        "time": 72.28929776249996,
                        "value": 1
                    },
                    {
                        "number": 64,
                        "time": 73.76786943749995,
                        "value": 0
                    },
                    {
                        "number": 64,
                        "time": 74.02858376666661,
                        "value": 1
                    },
                    {
                        "number": 64,
                        "time": 75.45715543333327,
                        "value": 0
                    },
                    {
                        "number": 64,
                        "time": 75.6035840291666,
                        "value": 1
                    },
                    {
                        "number": 64,
                        "time": 82.28572799999993,
                        "value": 0
                    }
                ],
                "91": [
                    {
                        "number": 91,
                        "time": 0,
                        "value": 1
                    }
                ]
            },
            "id": 3,
            "name": "Piano left",
            "instrumentNumber": 0,
            "instrument": "acoustic grand piano",
            "instrumentFamily": "piano",
            "channelNumber": 0,
            "isPercussion": false
        },
        {
            "startTime": 0,
            "duration": 0,
            "length": 0,
            "notes": [],
            "controlChanges": {},
            "id": 4,
            "name": "Chopin: Prelude No.9 in E Op. 28"
        },
        {
            "startTime": 0,
            "duration": 0,
            "length": 0,
            "notes": [],
            "controlChanges": {},
            "id": 5,
            "name": "Copyright  1997 by Bernd Krueger"
        },
        {
            "startTime": 0,
            "duration": 0,
            "length": 0,
            "notes": [],
            "controlChanges": {},
            "id": 6,
            "name": "http://www.piano-midi.de"
        },
        {
            "startTime": 0,
            "duration": 0,
            "length": 0,
            "notes": [],
            "controlChanges": {},
            "id": 7,
            "name": "Edition: 2013-05-15"
        }
    ]
}