{
    "header": {
        "PPQ": 480,
        "timeSignature": [
            6,
            4
        ],
        "bpm": 229.95025409503077,
        "name": "Grieg: Lyrische St端cke Op. 43 Nr. 6 Book III - An den Fr端hling"
    },
    "startTime": 0,
    "duration": 145.59670799999992,
    "tracks": [
        {
            "startTime": 0,
            "duration": 0,
            "length": 0,
            "notes": [],
            "controlChanges": {},
            "id": 0,
            "name": "Grieg: Lyrische St端cke Op. 43 Nr. 6 Book III - An den Fr端hling"
        },
        {
            "startTime": 0.260926,
            "duration": 145.59670799999944,
            "length": 871,
            "notes": [
                {
                    "name": "F#5",
                    "midi": 78,
                    "time": 0.260926,
                    "velocity": 0.11811023622047244,
                    "duration": 0.24787969999999993
                },
                {
                    "name": "C#6",
                    "midi": 85,
                    "time": 0.260926,
                    "velocity": 0.1732283464566929,
                    "duration": 0.24787969999999993
                },
                {
                    "name": "A#5",
                    "midi": 82,
                    "time": 0.260926,
                    "velocity": 0.11811023622047244,
                    "duration": 0.24787969999999993
                },
                {
                    "name": "F#5",
                    "midi": 78,
                    "time": 0.5218519999999999,
                    "velocity": 0.11811023622047244,
                    "duration": 0.24787970000000004
                },
                {
                    "name": "C#6",
                    "midi": 85,
                    "time": 0.5218519999999999,
                    "velocity": 0.1732283464566929,
                    "duration": 0.24787970000000004
                },
                {
                    "name": "A#5",
                    "midi": 82,
                    "time": 0.5218519999999999,
                    "velocity": 0.11811023622047244,
                    "duration": 0.24787970000000004
                },
                {
                    "name": "F#5",
                    "midi": 78,
                    "time": 0.7827779999999999,
                    "velocity": 0.12598425196850394,
                    "duration": 0.24787970000000004
                },
                {
                    "name": "C#6",
                    "midi": 85,
                    "time": 0.7827779999999999,
                    "velocity": 0.1889763779527559,
                    "duration": 0.24787970000000004
                },
                {
                    "name": "A#5",
                    "midi": 82,
                    "time": 0.7827779999999999,
                    "velocity": 0.12598425196850394,
                    "duration": 0.24787970000000004
                },
                {
                    "name": "F#5",
                    "midi": 78,
                    "time": 1.043704,
                    "velocity": 0.11811023622047244,
                    "duration": 0.24787969999999993
                },
                {
                    "name": "C#6",
                    "midi": 85,
                    "time": 1.043704,
                    "velocity": 0.1732283464566929,
                    "duration": 0.24787969999999993
                },
                {
                    "name": "A#5",
                    "midi": 82,
                    "time": 1.043704,
                    "velocity": 0.11811023622047244,
                    "duration": 0.24787969999999993
                },
                {
                    "name": "F#5",
                    "midi": 78,
                    "time": 1.30463,
                    "velocity": 0.11811023622047244,
                    "duration": 0.24787969999999993
                },
                {
                    "name": "C#6",
                    "midi": 85,
                    "time": 1.30463,
                    "velocity": 0.1732283464566929,
                    "duration": 0.24787969999999993
                },
                {
                    "name": "A#5",
                    "midi": 82,
                    "time": 1.30463,
                    "velocity": 0.11811023622047244,
                    "duration": 0.24787969999999993
                },
                {
                    "name": "F#5",
                    "midi": 78,
                    "time": 1.826482,
                    "velocity": 0.11811023622047244,
                    "duration": 0.24787969999999993
                },
                {
                    "name": "C#6",
                    "midi": 85,
                    "time": 1.826482,
                    "velocity": 0.1732283464566929,
                    "duration": 0.24787969999999993
                },
                {
                    "name": "A#5",
                    "midi": 82,
                    "time": 1.826482,
                    "velocity": 0.11811023622047244,
                    "duration": 0.24787969999999993
                },
                {
                    "name": "F#5",
                    "midi": 78,
                    "time": 2.087408,
                    "velocity": 0.11811023622047244,
                    "duration": 0.24787969999999993
                },
                {
                    "name": "C#6",
                    "midi": 85,
                    "time": 2.087408,
                    "velocity": 0.1732283464566929,
                    "duration": 0.24787969999999993
                },
                {
                    "name": "A#5",
                    "midi": 82,
                    "time": 2.087408,
                    "velocity": 0.11811023622047244,
                    "duration": 0.24787969999999993
                },
                {
                    "name": "F#5",
                    "midi": 78,
                    "time": 2.348334,
                    "velocity": 0.12598425196850394,
                    "duration": 0.24787969999999993
                },
                {
                    "name": "C#6",
                    "midi": 85,
                    "time": 2.348334,
                    "velocity": 0.1889763779527559,
                    "duration": 0.24787969999999993
                },
                {
                    "name": "A#5",
                    "midi": 82,
                    "time": 2.348334,
                    "velocity": 0.12598425196850394,
                    "duration": 0.24787969999999993
                },
                {
                    "name": "F#5",
                    "midi": 78,
                    "time": 2.60926,
                    "velocity": 0.11023622047244094,
                    "duration": 0.24787969999999993
                },
                {
                    "name": "C#6",
                    "midi": 85,
                    "time": 2.60926,
                    "velocity": 0.16535433070866143,
                    "duration": 0.24787969999999993
                },
                {
                    "name": "A#5",
                    "midi": 82,
                    "time": 2.60926,
                    "velocity": 0.11023622047244094,
                    "duration": 0.24787969999999993
                },
                {
                    "name": "F#5",
                    "midi": 78,
                    "time": 2.870186,
                    "velocity": 0.11023622047244094,
                    "duration": 0.24787969999999993
                },
                {
                    "name": "C#6",
                    "midi": 85,
                    "time": 2.870186,
                    "velocity": 0.16535433070866143,
                    "duration": 0.24787969999999993
                },
                {
                    "name": "A#5",
                    "midi": 82,
                    "time": 2.870186,
                    "velocity": 0.11023622047244094,
                    "duration": 0.24787969999999993
                },
                {
                    "name": "F#5",
                    "midi": 78,
                    "time": 3.392038,
                    "velocity": 0.11811023622047244,
                    "duration": 0.24787969999999993
                },
                {
                    "name": "C#6",
                    "midi": 85,
                    "time": 3.392038,
                    "velocity": 0.1732283464566929,
                    "duration": 0.24787969999999993
                },
                {
                    "name": "A#5",
                    "midi": 82,
                    "time": 3.392038,
                    "velocity": 0.11811023622047244,
                    "duration": 0.24787969999999993
                },
                {
                    "name": "F#5",
                    "midi": 78,
                    "time": 3.652964,
                    "velocity": 0.11811023622047244,
                    "duration": 0.24787969999999993
                },
                {
                    "name": "C#6",
                    "midi": 85,
                    "time": 3.652964,
                    "velocity": 0.1732283464566929,
                    "duration": 0.24787969999999993
                },
                {
                    "name": "A#5",
                    "midi": 82,
                    "time": 3.652964,
                    "velocity": 0.11811023622047244,
                    "duration": 0.24787969999999993
                },
                {
                    "name": "F#5",
                    "midi": 78,
                    "time": 3.91389,
                    "velocity": 0.12598425196850394,
                    "duration": 0.24787969999999993
                },
                {
                    "name": "C#6",
                    "midi": 85,
                    "time": 3.91389,
                    "velocity": 0.1889763779527559,
                    "duration": 0.24787969999999993
                },
                {
                    "name": "A#5",
                    "midi": 82,
                    "time": 3.91389,
                    "velocity": 0.12598425196850394,
                    "duration": 0.24787969999999993
                },
                {
                    "name": "F#5",
                    "midi": 78,
                    "time": 4.174816,
                    "velocity": 0.11023622047244094,
                    "duration": 0.24787970000000037
                },
                {
                    "name": "C#6",
                    "midi": 85,
                    "time": 4.174816,
                    "velocity": 0.16535433070866143,
                    "duration": 0.24787970000000037
                },
                {
                    "name": "A#5",
                    "midi": 82,
                    "time": 4.174816,
                    "velocity": 0.11023622047244094,
                    "duration": 0.24787970000000037
                },
                {
                    "name": "F#5",
                    "midi": 78,
                    "time": 4.435742,
                    "velocity": 0.11023622047244094,
                    "duration": 0.24787970000000037
                },
                {
                    "name": "D#6",
                    "midi": 87,
                    "time": 4.435742,
                    "velocity": 0.16535433070866143,
                    "duration": 0.24787970000000037
                },
                {
                    "name": "A#5",
                    "midi": 82,
                    "time": 4.435742,
                    "velocity": 0.11023622047244094,
                    "duration": 0.24787970000000037
                },
                {
                    "name": "F#5",
                    "midi": 78,
                    "time": 4.957594,
                    "velocity": 0.12598425196850394,
                    "duration": 0.24787970000000037
                },
                {
                    "name": "A#5",
                    "midi": 82,
                    "time": 4.957594,
                    "velocity": 0.12598425196850394,
                    "duration": 0.24787970000000037
                },
                {
                    "name": "D#6",
                    "midi": 87,
                    "time": 4.957594,
                    "velocity": 0.1889763779527559,
                    "duration": 0.24787970000000037
                },
                {
                    "name": "F#5",
                    "midi": 78,
                    "time": 5.218520000000001,
                    "velocity": 0.12598425196850394,
                    "duration": 0.24787970000000037
                },
                {
                    "name": "A#5",
                    "midi": 82,
                    "time": 5.218520000000001,
                    "velocity": 0.12598425196850394,
                    "duration": 0.24787970000000037
                },
                {
                    "name": "D#6",
                    "midi": 87,
                    "time": 5.218520000000001,
                    "velocity": 0.1889763779527559,
                    "duration": 0.24787970000000037
                },
                {
                    "name": "F#5",
                    "midi": 78,
                    "time": 5.740372000000001,
                    "velocity": 0.12598425196850394,
                    "duration": 0.24787970000000037
                },
                {
                    "name": "A#5",
                    "midi": 82,
                    "time": 5.740372000000001,
                    "velocity": 0.12598425196850394,
                    "duration": 0.24787970000000037
                },
                {
                    "name": "C#6",
                    "midi": 85,
                    "time": 5.740372000000001,
                    "velocity": 0.2047244094488189,
                    "duration": 0.24787970000000037
                },
                {
                    "name": "C#5",
                    "midi": 73,
                    "time": 6.001298000000001,
                    "velocity": 0.12598425196850394,
                    "duration": 0.24787970000000037
                },
                {
                    "name": "A#5",
                    "midi": 82,
                    "time": 6.001298000000001,
                    "velocity": 0.2047244094488189,
                    "duration": 0.24787970000000037
                },
                {
                    "name": "F#5",
                    "midi": 78,
                    "time": 6.001298000000001,
                    "velocity": 0.12598425196850394,
                    "duration": 0.24787970000000037
                },
                {
                    "name": "B4",
                    "midi": 71,
                    "time": 6.523150000000001,
                    "velocity": 0.14960629921259844,
                    "duration": 0.24787970000000037
                },
                {
                    "name": "D#5",
                    "midi": 75,
                    "time": 6.523150000000001,
                    "velocity": 0.14960629921259844,
                    "duration": 0.24787970000000037
                },
                {
                    "name": "F#5",
                    "midi": 78,
                    "time": 6.523150000000001,
                    "velocity": 0.2204724409448819,
                    "duration": 0.24787970000000037
                },
                {
                    "name": "B4",
                    "midi": 71,
                    "time": 6.7840760000000015,
                    "velocity": 0.14960629921259844,
                    "duration": 0.24787970000000037
                },
                {
                    "name": "D#5",
                    "midi": 75,
                    "time": 6.7840760000000015,
                    "velocity": 0.14960629921259844,
                    "duration": 0.24787970000000037
                },
                {
                    "name": "F#5",
                    "midi": 78,
                    "time": 6.7840760000000015,
                    "velocity": 0.2204724409448819,
                    "duration": 0.24787970000000037
                },
                {
                    "name": "B4",
                    "midi": 71,
                    "time": 7.3059280000000015,
                    "velocity": 0.14173228346456693,
                    "duration": 0.24787970000000037
                },
                {
                    "name": "D#5",
                    "midi": 75,
                    "time": 7.3059280000000015,
                    "velocity": 0.14173228346456693,
                    "duration": 0.24787970000000037
                },
                {
                    "name": "G#5",
                    "midi": 80,
                    "time": 7.3059280000000015,
                    "velocity": 0.2204724409448819,
                    "duration": 0.24787970000000037
                },
                {
                    "name": "B4",
                    "midi": 71,
                    "time": 7.566854000000002,
                    "velocity": 0.14173228346456693,
                    "duration": 0.24787970000000037
                },
                {
                    "name": "D#5",
                    "midi": 75,
                    "time": 7.566854000000002,
                    "velocity": 0.14173228346456693,
                    "duration": 0.24787970000000037
                },
                {
                    "name": "G#5",
                    "midi": 80,
                    "time": 7.566854000000002,
                    "velocity": 0.2125984251968504,
                    "duration": 0.24787970000000037
                },
                {
                    "name": "C#5",
                    "midi": 73,
                    "time": 8.088706000000002,
                    "velocity": 0.12598425196850394,
                    "duration": 0.24787970000000037
                },
                {
                    "name": "F#5",
                    "midi": 78,
                    "time": 8.088706000000002,
                    "velocity": 0.12598425196850394,
                    "duration": 0.24787970000000037
                },
                {
                    "name": "A#5",
                    "midi": 82,
                    "time": 8.088706000000002,
                    "velocity": 0.1889763779527559,
                    "duration": 0.24787970000000037
                },
                {
                    "name": "C#5",
                    "midi": 73,
                    "time": 8.349632000000001,
                    "velocity": 0.12598425196850394,
                    "duration": 0.24787970000000037
                },
                {
                    "name": "F#5",
                    "midi": 78,
                    "time": 8.349632000000001,
                    "velocity": 0.12598425196850394,
                    "duration": 0.24787970000000037
                },
                {
                    "name": "A#5",
                    "midi": 82,
                    "time": 8.349632000000001,
                    "velocity": 0.1889763779527559,
                    "duration": 0.24787970000000037
                },
                {
                    "name": "C#5",
                    "midi": 73,
                    "time": 8.610558000000001,
                    "velocity": 0.14173228346456693,
                    "duration": 0.24787970000000037
                },
                {
                    "name": "F#5",
                    "midi": 78,
                    "time": 8.610558000000001,
                    "velocity": 0.14173228346456693,
                    "duration": 0.24787970000000037
                },
                {
                    "name": "A#5",
                    "midi": 82,
                    "time": 8.610558000000001,
                    "velocity": 0.2125984251968504,
                    "duration": 0.24787970000000037
                },
                {
                    "name": "C#5",
                    "midi": 73,
                    "time": 8.871484,
                    "velocity": 0.12598425196850394,
                    "duration": 0.24787970000000037
                },
                {
                    "name": "F#5",
                    "midi": 78,
                    "time": 8.871484,
                    "velocity": 0.12598425196850394,
                    "duration": 0.24787970000000037
                },
                {
                    "name": "A#5",
                    "midi": 82,
                    "time": 8.871484,
                    "velocity": 0.1889763779527559,
                    "duration": 0.24787970000000037
                },
                {
                    "name": "C#5",
                    "midi": 73,
                    "time": 9.13241,
                    "velocity": 0.12598425196850394,
                    "duration": 0.24787970000000037
                },
                {
                    "name": "F#5",
                    "midi": 78,
                    "time": 9.13241,
                    "velocity": 0.12598425196850394,
                    "duration": 0.24787970000000037
                },
                {
                    "name": "A#5",
                    "midi": 82,
                    "time": 9.13241,
                    "velocity": 0.1889763779527559,
                    "duration": 0.24787970000000037
                },
                {
                    "name": "F#5",
                    "midi": 78,
                    "time": 9.654262000000001,
                    "velocity": 0.15748031496062992,
                    "duration": 0.24787970000000037
                },
                {
                    "name": "C#6",
                    "midi": 85,
                    "time": 9.654262000000001,
                    "velocity": 0.23622047244094488,
                    "duration": 0.24787970000000037
                },
                {
                    "name": "A#5",
                    "midi": 82,
                    "time": 9.654262000000001,
                    "velocity": 0.15748031496062992,
                    "duration": 0.24787970000000037
                },
                {
                    "name": "F#5",
                    "midi": 78,
                    "time": 9.915188,
                    "velocity": 0.15748031496062992,
                    "duration": 0.24787970000000037
                },
                {
                    "name": "A#5",
                    "midi": 82,
                    "time": 9.915188,
                    "velocity": 0.15748031496062992,
                    "duration": 0.24787970000000037
                },
                {
                    "name": "C#6",
                    "midi": 85,
                    "time": 9.915188,
                    "velocity": 0.23622047244094488,
                    "duration": 0.24787970000000037
                },
                {
                    "name": "F#5",
                    "midi": 78,
                    "time": 10.176114,
                    "velocity": 0.18110236220472442,
                    "duration": 0.24787970000000037
                },
                {
                    "name": "A#5",
                    "midi": 82,
                    "time": 10.176114,
                    "velocity": 0.18110236220472442,
                    "duration": 0.24787970000000037
                },
                {
                    "name": "F6",
                    "midi": 89,
                    "time": 10.176114,
                    "velocity": 0.2677165354330709,
                    "duration": 0.24787970000000037
                },
                {
                    "name": "D#6",
                    "midi": 87,
                    "time": 10.43704,
                    "velocity": 0.25196850393700787,
                    "duration": 0.24787970000000037
                },
                {
                    "name": "A#5",
                    "midi": 82,
                    "time": 10.43704,
                    "velocity": 0.16535433070866143,
                    "duration": 0.24787970000000037
                },
                {
                    "name": "F#5",
                    "midi": 78,
                    "time": 10.43704,
                    "velocity": 0.16535433070866143,
                    "duration": 0.24787970000000037
                },
                {
                    "name": "F#5",
                    "midi": 78,
                    "time": 10.697966,
                    "velocity": 0.16535433070866143,
                    "duration": 0.24787970000000037
                },
                {
                    "name": "A#5",
                    "midi": 82,
                    "time": 10.697966,
                    "velocity": 0.16535433070866143,
                    "duration": 0.24787970000000037
                },
                {
                    "name": "C#6",
                    "midi": 85,
                    "time": 10.697966,
                    "velocity": 0.25196850393700787,
                    "duration": 0.24787970000000037
                },
                {
                    "name": "F#5",
                    "midi": 78,
                    "time": 11.219818,
                    "velocity": 0.18110236220472442,
                    "duration": 0.24787970000000037
                },
                {
                    "name": "D#6",
                    "midi": 87,
                    "time": 11.219818,
                    "velocity": 0.2755905511811024,
                    "duration": 0.24787970000000037
                },
                {
                    "name": "A#5",
                    "midi": 82,
                    "time": 11.219818,
                    "velocity": 0.18110236220472442,
                    "duration": 0.24787970000000037
                },
                {
                    "name": "F#5",
                    "midi": 78,
                    "time": 11.480744,
                    "velocity": 0.16535433070866143,
                    "duration": 0.24787970000000037
                },
                {
                    "name": "A#5",
                    "midi": 82,
                    "time": 11.480744,
                    "velocity": 0.16535433070866143,
                    "duration": 0.24787970000000037
                },
                {
                    "name": "C#6",
                    "midi": 85,
                    "time": 11.480744,
                    "velocity": 0.25984251968503935,
                    "duration": 0.24787970000000037
                },
                {
                    "name": "C#5",
                    "midi": 73,
                    "time": 12.002596,
                    "velocity": 0.18110236220472442,
                    "duration": 0.24787970000000037
                },
                {
                    "name": "A#5",
                    "midi": 82,
                    "time": 12.002596,
                    "velocity": 0.2677165354330709,
                    "duration": 0.24787970000000037
                },
                {
                    "name": "F#5",
                    "midi": 78,
                    "time": 12.002596,
                    "velocity": 0.2283464566929134,
                    "duration": 0.24787970000000037
                },
                {
                    "name": "A#4",
                    "midi": 70,
                    "time": 12.263522,
                    "velocity": 0.16535433070866143,
                    "duration": 0.24787970000000037
                },
                {
                    "name": "C#5",
                    "midi": 73,
                    "time": 12.263522,
                    "velocity": 0.16535433070866143,
                    "duration": 0.24787970000000037
                },
                {
                    "name": "F#5",
                    "midi": 78,
                    "time": 12.263522,
                    "velocity": 0.25196850393700787,
                    "duration": 0.24787970000000037
                },
                {
                    "name": "B4",
                    "midi": 71,
                    "time": 12.785374000000001,
                    "velocity": 0.15748031496062992,
                    "duration": 0.24787970000000037
                },
                {
                    "name": "D#5",
                    "midi": 75,
                    "time": 12.785374000000001,
                    "velocity": 0.15748031496062992,
                    "duration": 0.24787970000000037
                },
                {
                    "name": "F#5",
                    "midi": 78,
                    "time": 12.785374000000001,
                    "velocity": 0.23622047244094488,
                    "duration": 0.24787970000000037
                },
                {
                    "name": "B4",
                    "midi": 71,
                    "time": 13.0463,
                    "velocity": 0.15748031496062992,
                    "duration": 0.24787970000000037
                },
                {
                    "name": "D#5",
                    "midi": 75,
                    "time": 13.0463,
                    "velocity": 0.15748031496062992,
                    "duration": 0.24787970000000037
                },
                {
                    "name": "F#5",
                    "midi": 78,
                    "time": 13.0463,
                    "velocity": 0.23622047244094488,
                    "duration": 0.24787970000000037
                },
                {
                    "name": "B4",
                    "midi": 71,
                    "time": 13.307226,
                    "velocity": 0.18110236220472442,
                    "duration": 0.24787970000000037
                },
                {
                    "name": "D#5",
                    "midi": 75,
                    "time": 13.307226,
                    "velocity": 0.18110236220472442,
                    "duration": 0.24787970000000037
                },
                {
                    "name": "A#5",
                    "midi": 82,
                    "time": 13.307226,
                    "velocity": 0.2755905511811024,
                    "duration": 0.24787970000000037
                },
                {
                    "name": "B4",
                    "midi": 71,
                    "time": 13.568152,
                    "velocity": 0.15748031496062992,
                    "duration": 0.24787970000000037
                },
                {
                    "name": "D#5",
                    "midi": 75,
                    "time": 13.568152,
                    "velocity": 0.15748031496062992,
                    "duration": 0.24787970000000037
                },
                {
                    "name": "G#5",
                    "midi": 80,
                    "time": 13.568152,
                    "velocity": 0.2440944881889764,
                    "duration": 0.24787970000000037
                },
                {
                    "name": "B4",
                    "midi": 71,
                    "time": 13.829077999999999,
                    "velocity": 0.15748031496062992,
                    "duration": 0.24787970000000037
                },
                {
                    "name": "D#5",
                    "midi": 75,
                    "time": 13.829077999999999,
                    "velocity": 0.15748031496062992,
                    "duration": 0.24787970000000037
                },
                {
                    "name": "F#5",
                    "midi": 78,
                    "time": 13.829077999999999,
                    "velocity": 0.2440944881889764,
                    "duration": 0.24787970000000037
                },
                {
                    "name": "C#5",
                    "midi": 73,
                    "time": 14.35093,
                    "velocity": 0.15748031496062992,
                    "duration": 0.24787970000000037
                },
                {
                    "name": "F#5",
                    "midi": 78,
                    "time": 14.35093,
                    "velocity": 0.15748031496062992,
                    "duration": 0.24787970000000037
                },
                {
                    "name": "A#5",
                    "midi": 82,
                    "time": 14.35093,
                    "velocity": 0.23622047244094488,
                    "duration": 0.24787970000000037
                },
                {
                    "name": "C#5",
                    "midi": 73,
                    "time": 14.611856,
                    "velocity": 0.15748031496062992,
                    "duration": 0.24787970000000037
                },
                {
                    "name": "F#5",
                    "midi": 78,
                    "time": 14.611856,
                    "velocity": 0.15748031496062992,
                    "duration": 0.24787970000000037
                },
                {
                    "name": "A#5",
                    "midi": 82,
                    "time": 14.611856,
                    "velocity": 0.23622047244094488,
                    "duration": 0.24787970000000037
                },
                {
                    "name": "C#5",
                    "midi": 73,
                    "time": 14.872781999999999,
                    "velocity": 0.16535433070866143,
                    "duration": 0.24787970000000037
                },
                {
                    "name": "F#5",
                    "midi": 78,
                    "time": 14.872781999999999,
                    "velocity": 0.16535433070866143,
                    "duration": 0.24787970000000037
                },
                {
                    "name": "A#5",
                    "midi": 82,
                    "time": 14.872781999999999,
                    "velocity": 0.25984251968503935,
                    "duration": 0.24787970000000037
                },
                {
                    "name": "C#5",
                    "midi": 73,
                    "time": 15.133707999999999,
                    "velocity": 0.15748031496062992,
                    "duration": 0.24787970000000037
                },
                {
                    "name": "F#5",
                    "midi": 78,
                    "time": 15.133707999999999,
                    "velocity": 0.15748031496062992,
                    "duration": 0.24787970000000037
                },
                {
                    "name": "A#5",
                    "midi": 82,
                    "time": 15.133707999999999,
                    "velocity": 0.23622047244094488,
                    "duration": 0.24787970000000037
                },
                {
                    "name": "C#5",
                    "midi": 73,
                    "time": 15.394633999999998,
                    "velocity": 0.15748031496062992,
                    "duration": 0.24787970000000037
                },
                {
                    "name": "F#5",
                    "midi": 78,
                    "time": 15.394633999999998,
                    "velocity": 0.15748031496062992,
                    "duration": 0.24787970000000037
                },
                {
                    "name": "A#5",
                    "midi": 82,
                    "time": 15.394633999999998,
                    "velocity": 0.23622047244094488,
                    "duration": 0.24787970000000037
                },
                {
                    "name": "D5",
                    "midi": 74,
                    "time": 15.916485999999999,
                    "velocity": 0.2125984251968504,
                    "duration": 0.2478796999999986
                },
                {
                    "name": "F#5",
                    "midi": 78,
                    "time": 15.916485999999999,
                    "velocity": 0.2125984251968504,
                    "duration": 0.2478796999999986
                },
                {
                    "name": "A#5",
                    "midi": 82,
                    "time": 15.916485999999999,
                    "velocity": 0.25196850393700787,
                    "duration": 0.2478796999999986
                },
                {
                    "name": "D5",
                    "midi": 74,
                    "time": 16.177411999999997,
                    "velocity": 0.2125984251968504,
                    "duration": 0.2478796999999986
                },
                {
                    "name": "F#5",
                    "midi": 78,
                    "time": 16.177411999999997,
                    "velocity": 0.2125984251968504,
                    "duration": 0.2478796999999986
                },
                {
                    "name": "A#5",
                    "midi": 82,
                    "time": 16.177411999999997,
                    "velocity": 0.25196850393700787,
                    "duration": 0.2478796999999986
                },
                {
                    "name": "D5",
                    "midi": 74,
                    "time": 16.699263999999996,
                    "velocity": 0.23622047244094488,
                    "duration": 0.2478796999999986
                },
                {
                    "name": "F#5",
                    "midi": 78,
                    "time": 16.699263999999996,
                    "velocity": 0.23622047244094488,
                    "duration": 0.2478796999999986
                },
                {
                    "name": "A#5",
                    "midi": 82,
                    "time": 16.699263999999996,
                    "velocity": 0.28346456692913385,
                    "duration": 0.2478796999999986
                },
                {
                    "name": "D5",
                    "midi": 74,
                    "time": 16.960189999999994,
                    "velocity": 0.25984251968503935,
                    "duration": 0.2478796999999986
                },
                {
                    "name": "F#5",
                    "midi": 78,
                    "time": 16.960189999999994,
                    "velocity": 0.25984251968503935,
                    "duration": 0.2478796999999986
                },
                {
                    "name": "A#5",
                    "midi": 82,
                    "time": 16.960189999999994,
                    "velocity": 0.30708661417322836,
                    "duration": 0.2478796999999986
                },
                {
                    "name": "D#5",
                    "midi": 75,
                    "time": 17.482041999999993,
                    "velocity": 0.25196850393700787,
                    "duration": 0.2478796999999986
                },
                {
                    "name": "F#5",
                    "midi": 78,
                    "time": 17.482041999999993,
                    "velocity": 0.25196850393700787,
                    "duration": 0.2478796999999986
                },
                {
                    "name": "A#5",
                    "midi": 82,
                    "time": 17.482041999999993,
                    "velocity": 0.2992125984251969,
                    "duration": 0.2478796999999986
                },
                {
                    "name": "D#5",
                    "midi": 75,
                    "time": 17.74296799999999,
                    "velocity": 0.25196850393700787,
                    "duration": 0.2478796999999986
                },
                {
                    "name": "F#5",
                    "midi": 78,
                    "time": 17.74296799999999,
                    "velocity": 0.25196850393700787,
                    "duration": 0.2478796999999986
                },
                {
                    "name": "A#5",
                    "midi": 82,
                    "time": 17.74296799999999,
                    "velocity": 0.2992125984251969,
                    "duration": 0.2478796999999986
                },
                {
                    "name": "F#4",
                    "midi": 66,
                    "time": 18.26481999999999,
                    "velocity": 0.2125984251968504,
                    "duration": 0.2478796999999986
                },
                {
                    "name": "A#4",
                    "midi": 70,
                    "time": 18.26481999999999,
                    "velocity": 0.2125984251968504,
                    "duration": 0.2478796999999986
                },
                {
                    "name": "D#5",
                    "midi": 75,
                    "time": 18.26481999999999,
                    "velocity": 0.25984251968503935,
                    "duration": 0.2478796999999986
                },
                {
                    "name": "F#4",
                    "midi": 66,
                    "time": 18.525745999999987,
                    "velocity": 0.2125984251968504,
                    "duration": 0.2478796999999986
                },
                {
                    "name": "A#4",
                    "midi": 70,
                    "time": 18.525745999999987,
                    "velocity": 0.2125984251968504,
                    "duration": 0.2478796999999986
                },
                {
                    "name": "D#5",
                    "midi": 75,
                    "time": 18.525745999999987,
                    "velocity": 0.25984251968503935,
                    "duration": 0.2478796999999986
                },
                {
                    "name": "D5",
                    "midi": 74,
                    "time": 19.047597999999986,
                    "velocity": 0.2125984251968504,
                    "duration": 0.2478796999999986
                },
                {
                    "name": "F#5",
                    "midi": 78,
                    "time": 19.047597999999986,
                    "velocity": 0.2125984251968504,
                    "duration": 0.2478796999999986
                },
                {
                    "name": "A#5",
                    "midi": 82,
                    "time": 19.047597999999986,
                    "velocity": 0.25196850393700787,
                    "duration": 0.2478796999999986
                },
                {
                    "name": "D5",
                    "midi": 74,
                    "time": 19.308523999999984,
                    "velocity": 0.2125984251968504,
                    "duration": 0.2478796999999986
                },
                {
                    "name": "F#5",
                    "midi": 78,
                    "time": 19.308523999999984,
                    "velocity": 0.2125984251968504,
                    "duration": 0.2478796999999986
                },
                {
                    "name": "A#5",
                    "midi": 82,
                    "time": 19.308523999999984,
                    "velocity": 0.25196850393700787,
                    "duration": 0.2478796999999986
                },
                {
                    "name": "D5",
                    "midi": 74,
                    "time": 19.830375999999983,
                    "velocity": 0.23622047244094488,
                    "duration": 0.2478796999999986
                },
                {
                    "name": "F#5",
                    "midi": 78,
                    "time": 19.830375999999983,
                    "velocity": 0.23622047244094488,
                    "duration": 0.2478796999999986
                },
                {
                    "name": "B5",
                    "midi": 83,
                    "time": 19.830375999999983,
                    "velocity": 0.28346456692913385,
                    "duration": 0.2478796999999986
                },
                {
                    "name": "D5",
                    "midi": 74,
                    "time": 20.09130199999998,
                    "velocity": 0.25984251968503935,
                    "duration": 0.2478796999999986
                },
                {
                    "name": "F#5",
                    "midi": 78,
                    "time": 20.09130199999998,
                    "velocity": 0.25984251968503935,
                    "duration": 0.2478796999999986
                },
                {
                    "name": "C#6",
                    "midi": 85,
                    "time": 20.09130199999998,
                    "velocity": 0.30708661417322836,
                    "duration": 0.2478796999999986
                },
                {
                    "name": "D#5",
                    "midi": 75,
                    "time": 20.61315399999998,
                    "velocity": 0.2755905511811024,
                    "duration": 0.2478796999999986
                },
                {
                    "name": "F#5",
                    "midi": 78,
                    "time": 20.61315399999998,
                    "velocity": 0.2755905511811024,
                    "duration": 0.2478796999999986
                },
                {
                    "name": "A#5",
                    "midi": 82,
                    "time": 20.61315399999998,
                    "velocity": 0.33070866141732286,
                    "duration": 0.2478796999999986
                },
                {
                    "name": "D#5",
                    "midi": 75,
                    "time": 20.874079999999978,
                    "velocity": 0.28346456692913385,
                    "duration": 0.2478796999999986
                },
                {
                    "name": "F#5",
                    "midi": 78,
                    "time": 20.874079999999978,
                    "velocity": 0.28346456692913385,
                    "duration": 0.2478796999999986
                },
                {
                    "name": "A#5",
                    "midi": 82,
                    "time": 20.874079999999978,
                    "velocity": 0.33858267716535434,
                    "duration": 0.2478796999999986
                },
                {
                    "name": "D#5",
                    "midi": 75,
                    "time": 21.135005999999976,
                    "velocity": 0.29133858267716534,
                    "duration": 0.2478796999999986
                },
                {
                    "name": "F#5",
                    "midi": 78,
                    "time": 21.135005999999976,
                    "velocity": 0.29133858267716534,
                    "duration": 0.2478796999999986
                },
                {
                    "name": "A#5",
                    "midi": 82,
                    "time": 21.135005999999976,
                    "velocity": 0.3543307086614173,
                    "duration": 0.2478796999999986
                },
                {
                    "name": "D#5",
                    "midi": 75,
                    "time": 21.395931999999974,
                    "velocity": 0.30708661417322836,
                    "duration": 0.2478796999999986
                },
                {
                    "name": "F#5",
                    "midi": 78,
                    "time": 21.395931999999974,
                    "velocity": 0.30708661417322836,
                    "duration": 0.2478796999999986
                },
                {
                    "name": "A#5",
                    "midi": 82,
                    "time": 21.395931999999974,
                    "velocity": 0.36220472440944884,
                    "duration": 0.2478796999999986
                },
                {
                    "name": "D#5",
                    "midi": 75,
                    "time": 21.65685799999997,
                    "velocity": 0.31496062992125984,
                    "duration": 0.2478796999999986
                },
                {
                    "name": "F#5",
                    "midi": 78,
                    "time": 21.65685799999997,
                    "velocity": 0.31496062992125984,
                    "duration": 0.2478796999999986
                },
                {
                    "name": "A#5",
                    "midi": 82,
                    "time": 21.65685799999997,
                    "velocity": 0.3779527559055118,
                    "duration": 0.2478796999999986
                },
                {
                    "name": "D5",
                    "midi": 74,
                    "time": 22.17870999999997,
                    "velocity": 0.25984251968503935,
                    "duration": 0.2478796999999986
                },
                {
                    "name": "F#5",
                    "midi": 78,
                    "time": 22.17870999999997,
                    "velocity": 0.25984251968503935,
                    "duration": 0.2478796999999986
                },
                {
                    "name": "A#5",
                    "midi": 82,
                    "time": 22.17870999999997,
                    "velocity": 0.31496062992125984,
                    "duration": 0.2478796999999986
                },
                {
                    "name": "D5",
                    "midi": 74,
                    "time": 22.439635999999968,
                    "velocity": 0.25984251968503935,
                    "duration": 0.2478796999999986
                },
                {
                    "name": "F#5",
                    "midi": 78,
                    "time": 22.439635999999968,
                    "velocity": 0.25984251968503935,
                    "duration": 0.2478796999999986
                },
                {
                    "name": "A#5",
                    "midi": 82,
                    "time": 22.439635999999968,
                    "velocity": 0.31496062992125984,
                    "duration": 0.2478796999999986
                },
                {
                    "name": "D5",
                    "midi": 74,
                    "time": 22.700561999999966,
                    "velocity": 0.25984251968503935,
                    "duration": 0.2478796999999986
                },
                {
                    "name": "F#5",
                    "midi": 78,
                    "time": 22.700561999999966,
                    "velocity": 0.25984251968503935,
                    "duration": 0.2478796999999986
                },
                {
                    "name": "A#5",
                    "midi": 82,
                    "time": 22.700561999999966,
                    "velocity": 0.31496062992125984,
                    "duration": 0.2478796999999986
                },
                {
                    "name": "D5",
                    "midi": 74,
                    "time": 22.961487999999964,
                    "velocity": 0.2677165354330709,
                    "duration": 0.2478796999999986
                },
                {
                    "name": "F#5",
                    "midi": 78,
                    "time": 22.961487999999964,
                    "velocity": 0.2677165354330709,
                    "duration": 0.2478796999999986
                },
                {
                    "name": "A#5",
                    "midi": 82,
                    "time": 22.961487999999964,
                    "velocity": 0.3228346456692913,
                    "duration": 0.2478796999999986
                },
                {
                    "name": "D5",
                    "midi": 74,
                    "time": 23.22241399999996,
                    "velocity": 0.2677165354330709,
                    "duration": 0.2478796999999986
                },
                {
                    "name": "F#5",
                    "midi": 78,
                    "time": 23.22241399999996,
                    "velocity": 0.2677165354330709,
                    "duration": 0.2478796999999986
                },
                {
                    "name": "A5",
                    "midi": 81,
                    "time": 23.22241399999996,
                    "velocity": 0.3228346456692913,
                    "duration": 0.2478796999999986
                },
                {
                    "name": "C#5",
                    "midi": 73,
                    "time": 23.74426599999996,
                    "velocity": 0.25984251968503935,
                    "duration": 0.2478796999999986
                },
                {
                    "name": "F5",
                    "midi": 77,
                    "time": 23.74426599999996,
                    "velocity": 0.25984251968503935,
                    "duration": 0.2478796999999986
                },
                {
                    "name": "A5",
                    "midi": 81,
                    "time": 23.74426599999996,
                    "velocity": 0.30708661417322836,
                    "duration": 0.2478796999999986
                },
                {
                    "name": "C#5",
                    "midi": 73,
                    "time": 24.00519199999996,
                    "velocity": 0.25196850393700787,
                    "duration": 0.2478796999999986
                },
                {
                    "name": "F5",
                    "midi": 77,
                    "time": 24.00519199999996,
                    "velocity": 0.25196850393700787,
                    "duration": 0.2478796999999986
                },
                {
                    "name": "A5",
                    "midi": 81,
                    "time": 24.00519199999996,
                    "velocity": 0.2992125984251969,
                    "duration": 0.2478796999999986
                },
                {
                    "name": "C#5",
                    "midi": 73,
                    "time": 24.527043999999957,
                    "velocity": 0.2440944881889764,
                    "duration": 0.2478796999999986
                },
                {
                    "name": "F5",
                    "midi": 77,
                    "time": 24.527043999999957,
                    "velocity": 0.2440944881889764,
                    "duration": 0.2478796999999986
                },
                {
                    "name": "G#5",
                    "midi": 80,
                    "time": 24.527043999999957,
                    "velocity": 0.29133858267716534,
                    "duration": 0.2478796999999986
                },
                {
                    "name": "C#5",
                    "midi": 73,
                    "time": 24.787969999999955,
                    "velocity": 0.2440944881889764,
                    "duration": 0.2478796999999986
                },
                {
                    "name": "F5",
                    "midi": 77,
                    "time": 24.787969999999955,
                    "velocity": 0.2440944881889764,
                    "duration": 0.2478796999999986
                },
                {
                    "name": "G#5",
                    "midi": 80,
                    "time": 24.787969999999955,
                    "velocity": 0.29133858267716534,
                    "duration": 0.2478796999999986
                },
                {
                    "name": "C5",
                    "midi": 72,
                    "time": 25.309821999999954,
                    "velocity": 0.25984251968503935,
                    "duration": 0.2478796999999986
                },
                {
                    "name": "E5",
                    "midi": 76,
                    "time": 25.309821999999954,
                    "velocity": 0.25984251968503935,
                    "duration": 0.2478796999999986
                },
                {
                    "name": "G#5",
                    "midi": 80,
                    "time": 25.309821999999954,
                    "velocity": 0.30708661417322836,
                    "duration": 0.2478796999999986
                },
                {
                    "name": "C5",
                    "midi": 72,
                    "time": 25.570747999999952,
                    "velocity": 0.25984251968503935,
                    "duration": 0.2478796999999986
                },
                {
                    "name": "E5",
                    "midi": 76,
                    "time": 25.570747999999952,
                    "velocity": 0.25984251968503935,
                    "duration": 0.2478796999999986
                },
                {
                    "name": "G#5",
                    "midi": 80,
                    "time": 25.570747999999952,
                    "velocity": 0.30708661417322836,
                    "duration": 0.2478796999999986
                },
                {
                    "name": "C5",
                    "midi": 72,
                    "time": 26.09259999999995,
                    "velocity": 0.25984251968503935,
                    "duration": 0.1293758083333323
                },
                {
                    "name": "E5",
                    "midi": 76,
                    "time": 26.09259999999995,
                    "velocity": 0.25984251968503935,
                    "duration": 0.2478796999999986
                },
                {
                    "name": "A#5",
                    "midi": 82,
                    "time": 26.09259999999995,
                    "velocity": 0.30708661417322836,
                    "duration": 0.2478796999999986
                },
                {
                    "name": "E5",
                    "midi": 76,
                    "time": 26.35352599999995,
                    "velocity": 0.2677165354330709,
                    "duration": 0.2478796999999986
                },
                {
                    "name": "C6",
                    "midi": 84,
                    "time": 26.35352599999995,
                    "velocity": 0.3228346456692913,
                    "duration": 0.2478796999999986
                },
                {
                    "name": "C#5",
                    "midi": 73,
                    "time": 26.875377999999948,
                    "velocity": 0.2677165354330709,
                    "duration": 0.2478796999999986
                },
                {
                    "name": "F5",
                    "midi": 77,
                    "time": 26.875377999999948,
                    "velocity": 0.2677165354330709,
                    "duration": 0.2478796999999986
                },
                {
                    "name": "G#5",
                    "midi": 80,
                    "time": 26.875377999999948,
                    "velocity": 0.3228346456692913,
                    "duration": 0.2478796999999986
                },
                {
                    "name": "C#5",
                    "midi": 73,
                    "time": 27.136303999999946,
                    "velocity": 0.2677165354330709,
                    "duration": 0.2478796999999986
                },
                {
                    "name": "F5",
                    "midi": 77,
                    "time": 27.136303999999946,
                    "velocity": 0.2677165354330709,
                    "duration": 0.2478796999999986
                },
                {
                    "name": "G#5",
                    "midi": 80,
                    "time": 27.136303999999946,
                    "velocity": 0.3228346456692913,
                    "duration": 0.2478796999999986
                },
                {
                    "name": "F6",
                    "midi": 89,
                    "time": 27.397229999999944,
                    "velocity": 0.41732283464566927,
                    "duration": 0.2478796999999986
                },
                {
                    "name": "F5",
                    "midi": 77,
                    "time": 27.65815599999994,
                    "velocity": 0.30708661417322836,
                    "duration": 0.2478796999999986
                },
                {
                    "name": "G#5",
                    "midi": 80,
                    "time": 27.65815599999994,
                    "velocity": 0.30708661417322836,
                    "duration": 0.2478796999999986
                },
                {
                    "name": "C#6",
                    "midi": 85,
                    "time": 27.65815599999994,
                    "velocity": 0.3700787401574803,
                    "duration": 0.2478796999999986
                },
                {
                    "name": "F5",
                    "midi": 77,
                    "time": 27.91908199999994,
                    "velocity": 0.30708661417322836,
                    "duration": 0.2478796999999986
                },
                {
                    "name": "G#5",
                    "midi": 80,
                    "time": 27.91908199999994,
                    "velocity": 0.30708661417322836,
                    "duration": 0.2478796999999986
                },
                {
                    "name": "C6",
                    "midi": 84,
                    "time": 27.91908199999994,
                    "velocity": 0.3700787401574803,
                    "duration": 0.2478796999999986
                },
                {
                    "name": "C#5",
                    "midi": 73,
                    "time": 28.440933999999938,
                    "velocity": 0.2992125984251969,
                    "duration": 0.2478796999999986
                },
                {
                    "name": "F5",
                    "midi": 77,
                    "time": 28.440933999999938,
                    "velocity": 0.2992125984251969,
                    "duration": 0.2478796999999986
                },
                {
                    "name": "B5",
                    "midi": 83,
                    "time": 28.440933999999938,
                    "velocity": 0.3543307086614173,
                    "duration": 0.2478796999999986
                },
                {
                    "name": "C#5",
                    "midi": 73,
                    "time": 28.701859999999936,
                    "velocity": 0.2992125984251969,
                    "duration": 0.2478796999999986
                },
                {
                    "name": "F5",
                    "midi": 77,
                    "time": 28.701859999999936,
                    "velocity": 0.2992125984251969,
                    "duration": 0.2478796999999986
                },
                {
                    "name": "B5",
                    "midi": 83,
                    "time": 28.701859999999936,
                    "velocity": 0.3543307086614173,
                    "duration": 0.2478796999999986
                },
                {
                    "name": "C#5",
                    "midi": 73,
                    "time": 28.962785999999934,
                    "velocity": 0.30708661417322836,
                    "duration": 0.2478796999999986
                },
                {
                    "name": "F5",
                    "midi": 77,
                    "time": 28.962785999999934,
                    "velocity": 0.30708661417322836,
                    "duration": 0.2478796999999986
                },
                {
                    "name": "B5",
                    "midi": 83,
                    "time": 28.962785999999934,
                    "velocity": 0.3700787401574803,
                    "duration": 0.2478796999999986
                },
                {
                    "name": "C#5",
                    "midi": 73,
                    "time": 29.22371199999993,
                    "velocity": 0.29133858267716534,
                    "duration": 0.2478796999999986
                },
                {
                    "name": "F5",
                    "midi": 77,
                    "time": 29.22371199999993,
                    "velocity": 0.29133858267716534,
                    "duration": 0.2478796999999986
                },
                {
                    "name": "A#5",
                    "midi": 82,
                    "time": 29.22371199999993,
                    "velocity": 0.3464566929133858,
                    "duration": 0.2478796999999986
                },
                {
                    "name": "C#5",
                    "midi": 73,
                    "time": 29.48463799999993,
                    "velocity": 0.29133858267716534,
                    "duration": 0.2478796999999986
                },
                {
                    "name": "F5",
                    "midi": 77,
                    "time": 29.48463799999993,
                    "velocity": 0.29133858267716534,
                    "duration": 0.2478796999999986
                },
                {
                    "name": "A5",
                    "midi": 81,
                    "time": 29.48463799999993,
                    "velocity": 0.3464566929133858,
                    "duration": 0.2478796999999986
                },
                {
                    "name": "C#5",
                    "midi": 73,
                    "time": 30.00648999999993,
                    "velocity": 0.29133858267716534,
                    "duration": 0.2478796999999986
                },
                {
                    "name": "F5",
                    "midi": 77,
                    "time": 30.00648999999993,
                    "velocity": 0.29133858267716534,
                    "duration": 0.2478796999999986
                },
                {
                    "name": "A5",
                    "midi": 81,
                    "time": 30.00648999999993,
                    "velocity": 0.3464566929133858,
                    "duration": 0.2478796999999986
                },
                {
                    "name": "C#5",
                    "midi": 73,
                    "time": 30.267415999999926,
                    "velocity": 0.29133858267716534,
                    "duration": 0.2478796999999986
                },
                {
                    "name": "F5",
                    "midi": 77,
                    "time": 30.267415999999926,
                    "velocity": 0.29133858267716534,
                    "duration": 0.2478796999999986
                },
                {
                    "name": "A5",
                    "midi": 81,
                    "time": 30.267415999999926,
                    "velocity": 0.3464566929133858,
                    "duration": 0.2478796999999986
                },
                {
                    "name": "C#5",
                    "midi": 73,
                    "time": 30.789267999999925,
                    "velocity": 0.29133858267716534,
                    "duration": 0.2478796999999986
                },
                {
                    "name": "F5",
                    "midi": 77,
                    "time": 30.789267999999925,
                    "velocity": 0.29133858267716534,
                    "duration": 0.2478796999999986
                },
                {
                    "name": "G#5",
                    "midi": 80,
                    "time": 30.789267999999925,
                    "velocity": 0.3464566929133858,
                    "duration": 0.2478796999999986
                },
                {
                    "name": "C#5",
                    "midi": 73,
                    "time": 31.050193999999923,
                    "velocity": 0.29133858267716534,
                    "duration": 0.2478796999999986
                },
                {
                    "name": "F5",
                    "midi": 77,
                    "time": 31.050193999999923,
                    "velocity": 0.29133858267716534,
                    "duration": 0.2478796999999986
                },
                {
                    "name": "A5",
                    "midi": 81,
                    "time": 31.050193999999923,
                    "velocity": 0.3464566929133858,
                    "duration": 0.2478796999999986
                },
                {
                    "name": "D#5",
                    "midi": 75,
                    "time": 31.572045999999922,
                    "velocity": 0.29133858267716534,
                    "duration": 0.2478796999999986
                },
                {
                    "name": "F#5",
                    "midi": 78,
                    "time": 31.572045999999922,
                    "velocity": 0.29133858267716534,
                    "duration": 0.2478796999999986
                },
                {
                    "name": "A#5",
                    "midi": 82,
                    "time": 31.572045999999922,
                    "velocity": 0.3464566929133858,
                    "duration": 0.2478796999999986
                },
                {
                    "name": "D#5",
                    "midi": 75,
                    "time": 31.83297199999992,
                    "velocity": 0.30708661417322836,
                    "duration": 0.2478796999999986
                },
                {
                    "name": "F#5",
                    "midi": 78,
                    "time": 31.83297199999992,
                    "velocity": 0.30708661417322836,
                    "duration": 0.2478796999999986
                },
                {
                    "name": "A#5",
                    "midi": 82,
                    "time": 31.83297199999992,
                    "velocity": 0.36220472440944884,
                    "duration": 0.2478796999999986
                },
                {
                    "name": "F#5",
                    "midi": 78,
                    "time": 32.09389799999992,
                    "velocity": 0.3464566929133858,
                    "duration": 0.26092599999999777
                },
                {
                    "name": "D#5",
                    "midi": 75,
                    "time": 32.09389799999992,
                    "velocity": 0.3464566929133858,
                    "duration": 0.26092599999999777
                },
                {
                    "name": "C#6",
                    "midi": 85,
                    "time": 32.09389799999992,
                    "velocity": 0.4094488188976378,
                    "duration": 0.2478796999999986
                },
                {
                    "name": "D#5",
                    "midi": 75,
                    "time": 32.354823999999915,
                    "velocity": 0.31496062992125984,
                    "duration": 0.2478796999999986
                },
                {
                    "name": "F#5",
                    "midi": 78,
                    "time": 32.354823999999915,
                    "velocity": 0.31496062992125984,
                    "duration": 0.2478796999999986
                },
                {
                    "name": "C6",
                    "midi": 84,
                    "time": 32.354823999999915,
                    "velocity": 0.3779527559055118,
                    "duration": 0.2478796999999986
                },
                {
                    "name": "D#5",
                    "midi": 75,
                    "time": 32.61574999999991,
                    "velocity": 0.31496062992125984,
                    "duration": 0.2478796999999986
                },
                {
                    "name": "F#5",
                    "midi": 78,
                    "time": 32.61574999999991,
                    "velocity": 0.31496062992125984,
                    "duration": 0.2478796999999986
                },
                {
                    "name": "A#5",
                    "midi": 82,
                    "time": 32.61574999999991,
                    "velocity": 0.3779527559055118,
                    "duration": 0.2478796999999986
                },
                {
                    "name": "F5",
                    "midi": 77,
                    "time": 33.13760199999991,
                    "velocity": 0.3228346456692913,
                    "duration": 0.2478796999999986
                },
                {
                    "name": "G#5",
                    "midi": 80,
                    "time": 33.13760199999991,
                    "velocity": 0.3228346456692913,
                    "duration": 0.2478796999999986
                },
                {
                    "name": "C#6",
                    "midi": 85,
                    "time": 33.13760199999991,
                    "velocity": 0.3779527559055118,
                    "duration": 0.2478796999999986
                },
                {
                    "name": "F5",
                    "midi": 77,
                    "time": 33.39852799999991,
                    "velocity": 0.28346456692913385,
                    "duration": 0.2478796999999986
                },
                {
                    "name": "G#5",
                    "midi": 80,
                    "time": 33.39852799999991,
                    "velocity": 0.28346456692913385,
                    "duration": 0.2478796999999986
                },
                {
                    "name": "C#6",
                    "midi": 85,
                    "time": 33.39852799999991,
                    "velocity": 0.3464566929133858,
                    "duration": 0.2478796999999986
                },
                {
                    "name": "F5",
                    "midi": 77,
                    "time": 33.659453999999904,
                    "velocity": 0.25984251968503935,
                    "duration": 0.2478796999999986
                },
                {
                    "name": "G#5",
                    "midi": 80,
                    "time": 33.659453999999904,
                    "velocity": 0.25984251968503935,
                    "duration": 0.2478796999999986
                },
                {
                    "name": "C#6",
                    "midi": 85,
                    "time": 33.659453999999904,
                    "velocity": 0.30708661417322836,
                    "duration": 0.2478796999999986
                },
                {
                    "name": "F5",
                    "midi": 77,
                    "time": 33.9203799999999,
                    "velocity": 0.2283464566929134,
                    "duration": 0.2478796999999986
                },
                {
                    "name": "G#5",
                    "midi": 80,
                    "time": 33.9203799999999,
                    "velocity": 0.2283464566929134,
                    "duration": 0.2478796999999986
                },
                {
                    "name": "C#6",
                    "midi": 85,
                    "time": 33.9203799999999,
                    "velocity": 0.2677165354330709,
                    "duration": 0.2478796999999986
                },
                {
                    "name": "F5",
                    "midi": 77,
                    "time": 34.1813059999999,
                    "velocity": 0.2047244094488189,
                    "duration": 0.2478796999999986
                },
                {
                    "name": "G#5",
                    "midi": 80,
                    "time": 34.1813059999999,
                    "velocity": 0.2047244094488189,
                    "duration": 0.2478796999999986
                },
                {
                    "name": "C#6",
                    "midi": 85,
                    "time": 34.1813059999999,
                    "velocity": 0.2440944881889764,
                    "duration": 0.2478796999999986
                },
                {
                    "name": "F#5",
                    "midi": 78,
                    "time": 34.703157999999895,
                    "velocity": 0.11811023622047244,
                    "duration": 0.2478796999999986
                },
                {
                    "name": "C#6",
                    "midi": 85,
                    "time": 34.703157999999895,
                    "velocity": 0.1732283464566929,
                    "duration": 0.2478796999999986
                },
                {
                    "name": "A#5",
                    "midi": 82,
                    "time": 34.703157999999895,
                    "velocity": 0.11811023622047244,
                    "duration": 0.2478796999999986
                },
                {
                    "name": "F#5",
                    "midi": 78,
                    "time": 34.96408399999989,
                    "velocity": 0.11811023622047244,
                    "duration": 0.2478796999999986
                },
                {
                    "name": "C#6",
                    "midi": 85,
                    "time": 34.96408399999989,
                    "velocity": 0.1732283464566929,
                    "duration": 0.2478796999999986
                },
                {
                    "name": "A#5",
                    "midi": 82,
                    "time": 34.96408399999989,
                    "velocity": 0.11811023622047244,
                    "duration": 0.2478796999999986
                },
                {
                    "name": "F#5",
                    "midi": 78,
                    "time": 35.22500999999989,
                    "velocity": 0.12598425196850394,
                    "duration": 0.2478796999999986
                },
                {
                    "name": "C#6",
                    "midi": 85,
                    "time": 35.22500999999989,
                    "velocity": 0.1889763779527559,
                    "duration": 0.2478796999999986
                },
                {
                    "name": "A#5",
                    "midi": 82,
                    "time": 35.22500999999989,
                    "velocity": 0.12598425196850394,
                    "duration": 0.2478796999999986
                },
                {
                    "name": "F#5",
                    "midi": 78,
                    "time": 35.48593599999989,
                    "velocity": 0.11023622047244094,
                    "duration": 0.2478796999999986
                },
                {
                    "name": "C#6",
                    "midi": 85,
                    "time": 35.48593599999989,
                    "velocity": 0.16535433070866143,
                    "duration": 0.2478796999999986
                },
                {
                    "name": "A#5",
                    "midi": 82,
                    "time": 35.48593599999989,
                    "velocity": 0.11023622047244094,
                    "duration": 0.2478796999999986
                },
                {
                    "name": "F#5",
                    "midi": 78,
                    "time": 35.74686199999989,
                    "velocity": 0.11023622047244094,
                    "duration": 0.2478796999999986
                },
                {
                    "name": "D#6",
                    "midi": 87,
                    "time": 35.74686199999989,
                    "velocity": 0.16535433070866143,
                    "duration": 0.2478796999999986
                },
                {
                    "name": "A#5",
                    "midi": 82,
                    "time": 35.74686199999989,
                    "velocity": 0.11023622047244094,
                    "duration": 0.2478796999999986
                },
                {
                    "name": "F#5",
                    "midi": 78,
                    "time": 36.26871399999988,
                    "velocity": 0.12598425196850394,
                    "duration": 0.2478796999999986
                },
                {
                    "name": "A#5",
                    "midi": 82,
                    "time": 36.26871399999988,
                    "velocity": 0.12598425196850394,
                    "duration": 0.2478796999999986
                },
                {
                    "name": "D#6",
                    "midi": 87,
                    "time": 36.26871399999988,
                    "velocity": 0.1889763779527559,
                    "duration": 0.2478796999999986
                },
                {
                    "name": "F#5",
                    "midi": 78,
                    "time": 36.52963999999988,
                    "velocity": 0.12598425196850394,
                    "duration": 0.2478796999999986
                },
                {
                    "name": "A#5",
                    "midi": 82,
                    "time": 36.52963999999988,
                    "velocity": 0.12598425196850394,
                    "duration": 0.2478796999999986
                },
                {
                    "name": "D#6",
                    "midi": 87,
                    "time": 36.52963999999988,
                    "velocity": 0.1889763779527559,
                    "duration": 0.2478796999999986
                },
                {
                    "name": "F#5",
                    "midi": 78,
                    "time": 37.051491999999875,
                    "velocity": 0.12598425196850394,
                    "duration": 0.2478796999999986
                },
                {
                    "name": "A#5",
                    "midi": 82,
                    "time": 37.051491999999875,
                    "velocity": 0.12598425196850394,
                    "duration": 0.2478796999999986
                },
                {
                    "name": "C#6",
                    "midi": 85,
                    "time": 37.051491999999875,
                    "velocity": 0.2047244094488189,
                    "duration": 0.2478796999999986
                },
                {
                    "name": "C#5",
                    "midi": 73,
                    "time": 37.31241799999987,
                    "velocity": 0.12598425196850394,
                    "duration": 0.2478796999999986
                },
                {
                    "name": "A#5",
                    "midi": 82,
                    "time": 37.31241799999987,
                    "velocity": 0.2047244094488189,
                    "duration": 0.2478796999999986
                },
                {
                    "name": "F#5",
                    "midi": 78,
                    "time": 37.31241799999987,
                    "velocity": 0.12598425196850394,
                    "duration": 0.2478796999999986
                },
                {
                    "name": "B4",
                    "midi": 71,
                    "time": 37.83426999999987,
                    "velocity": 0.14960629921259844,
                    "duration": 0.2478796999999986
                },
                {
                    "name": "D#5",
                    "midi": 75,
                    "time": 37.83426999999987,
                    "velocity": 0.14960629921259844,
                    "duration": 0.2478796999999986
                },
                {
                    "name": "F#5",
                    "midi": 78,
                    "time": 37.83426999999987,
                    "velocity": 0.2204724409448819,
                    "duration": 0.2478796999999986
                },
                {
                    "name": "B4",
                    "midi": 71,
                    "time": 38.095195999999866,
                    "velocity": 0.14960629921259844,
                    "duration": 0.2478796999999986
                },
                {
                    "name": "D#5",
                    "midi": 75,
                    "time": 38.095195999999866,
                    "velocity": 0.14960629921259844,
                    "duration": 0.2478796999999986
                },
                {
                    "name": "F#5",
                    "midi": 78,
                    "time": 38.095195999999866,
                    "velocity": 0.2204724409448819,
                    "duration": 0.2478796999999986
                },
                {
                    "name": "B4",
                    "midi": 71,
                    "time": 38.61704799999986,
                    "velocity": 0.14173228346456693,
                    "duration": 0.2478796999999986
                },
                {
                    "name": "D#5",
                    "midi": 75,
                    "time": 38.61704799999986,
                    "velocity": 0.14173228346456693,
                    "duration": 0.2478796999999986
                },
                {
                    "name": "G#5",
                    "midi": 80,
                    "time": 38.61704799999986,
                    "velocity": 0.2204724409448819,
                    "duration": 0.2478796999999986
                },
                {
                    "name": "B4",
                    "midi": 71,
                    "time": 38.87797399999986,
                    "velocity": 0.14173228346456693,
                    "duration": 0.2478796999999986
                },
                {
                    "name": "D#5",
                    "midi": 75,
                    "time": 38.87797399999986,
                    "velocity": 0.14173228346456693,
                    "duration": 0.2478796999999986
                },
                {
                    "name": "G#5",
                    "midi": 80,
                    "time": 38.87797399999986,
                    "velocity": 0.2125984251968504,
                    "duration": 0.2478796999999986
                },
                {
                    "name": "C#5",
                    "midi": 73,
                    "time": 39.399825999999855,
                    "velocity": 0.12598425196850394,
                    "duration": 0.2478796999999986
                },
                {
                    "name": "F#5",
                    "midi": 78,
                    "time": 39.399825999999855,
                    "velocity": 0.12598425196850394,
                    "duration": 0.2478796999999986
                },
                {
                    "name": "A#5",
                    "midi": 82,
                    "time": 39.399825999999855,
                    "velocity": 0.1889763779527559,
                    "duration": 0.2478796999999986
                },
                {
                    "name": "C#5",
                    "midi": 73,
                    "time": 39.66075199999985,
                    "velocity": 0.12598425196850394,
                    "duration": 0.2478796999999986
                },
                {
                    "name": "F#5",
                    "midi": 78,
                    "time": 39.66075199999985,
                    "velocity": 0.12598425196850394,
                    "duration": 0.2478796999999986
                },
                {
                    "name": "A#5",
                    "midi": 82,
                    "time": 39.66075199999985,
                    "velocity": 0.1889763779527559,
                    "duration": 0.2478796999999986
                },
                {
                    "name": "C#5",
                    "midi": 73,
                    "time": 39.92167799999985,
                    "velocity": 0.14173228346456693,
                    "duration": 0.2478796999999986
                },
                {
                    "name": "F#5",
                    "midi": 78,
                    "time": 39.92167799999985,
                    "velocity": 0.14173228346456693,
                    "duration": 0.2478796999999986
                },
                {
                    "name": "A#5",
                    "midi": 82,
                    "time": 39.92167799999985,
                    "velocity": 0.2125984251968504,
                    "duration": 0.2478796999999986
                },
                {
                    "name": "C#5",
                    "midi": 73,
                    "time": 40.18260399999985,
                    "velocity": 0.12598425196850394,
                    "duration": 0.2478796999999986
                },
                {
                    "name": "F#5",
                    "midi": 78,
                    "time": 40.18260399999985,
                    "velocity": 0.12598425196850394,
                    "duration": 0.2478796999999986
                },
                {
                    "name": "A#5",
                    "midi": 82,
                    "time": 40.18260399999985,
                    "velocity": 0.1889763779527559,
                    "duration": 0.2478796999999986
                },
                {
                    "name": "C#5",
                    "midi": 73,
                    "time": 40.443529999999846,
                    "velocity": 0.12598425196850394,
                    "duration": 0.2478796999999986
                },
                {
                    "name": "F#5",
                    "midi": 78,
                    "time": 40.443529999999846,
                    "velocity": 0.12598425196850394,
                    "duration": 0.2478796999999986
                },
                {
                    "name": "A#5",
                    "midi": 82,
                    "time": 40.443529999999846,
                    "velocity": 0.1889763779527559,
                    "duration": 0.2478796999999986
                },
                {
                    "name": "F#5",
                    "midi": 78,
                    "time": 40.96538199999984,
                    "velocity": 0.15748031496062992,
                    "duration": 0.2478796999999986
                },
                {
                    "name": "C#6",
                    "midi": 85,
                    "time": 40.96538199999984,
                    "velocity": 0.23622047244094488,
                    "duration": 0.2478796999999986
                },
                {
                    "name": "A#5",
                    "midi": 82,
                    "time": 40.96538199999984,
                    "velocity": 0.15748031496062992,
                    "duration": 0.2478796999999986
                },
                {
                    "name": "F#5",
                    "midi": 78,
                    "time": 41.22630799999984,
                    "velocity": 0.15748031496062992,
                    "duration": 0.2478796999999986
                },
                {
                    "name": "A#5",
                    "midi": 82,
                    "time": 41.22630799999984,
                    "velocity": 0.15748031496062992,
                    "duration": 0.2478796999999986
                },
                {
                    "name": "C#6",
                    "midi": 85,
                    "time": 41.22630799999984,
                    "velocity": 0.23622047244094488,
                    "duration": 0.2478796999999986
                },
                {
                    "name": "F#5",
                    "midi": 78,
                    "time": 41.48723399999984,
                    "velocity": 0.18110236220472442,
                    "duration": 0.2478796999999986
                },
                {
                    "name": "A#5",
                    "midi": 82,
                    "time": 41.48723399999984,
                    "velocity": 0.18110236220472442,
                    "duration": 0.2478796999999986
                },
                {
                    "name": "F6",
                    "midi": 89,
                    "time": 41.48723399999984,
                    "velocity": 0.2677165354330709,
                    "duration": 0.2478796999999986
                },
                {
                    "name": "D#6",
                    "midi": 87,
                    "time": 41.748159999999835,
                    "velocity": 0.25196850393700787,
                    "duration": 0.2478796999999986
                },
                {
                    "name": "A#5",
                    "midi": 82,
                    "time": 41.748159999999835,
                    "velocity": 0.16535433070866143,
                    "duration": 0.2478796999999986
                },
                {
                    "name": "F#5",
                    "midi": 78,
                    "time": 41.748159999999835,
                    "velocity": 0.16535433070866143,
                    "duration": 0.2478796999999986
                },
                {
                    "name": "F#5",
                    "midi": 78,
                    "time": 42.00908599999983,
                    "velocity": 0.16535433070866143,
                    "duration": 0.2478796999999986
                },
                {
                    "name": "A#5",
                    "midi": 82,
                    "time": 42.00908599999983,
                    "velocity": 0.16535433070866143,
                    "duration": 0.2478796999999986
                },
                {
                    "name": "C#6",
                    "midi": 85,
                    "time": 42.00908599999983,
                    "velocity": 0.25196850393700787,
                    "duration": 0.2478796999999986
                },
                {
                    "name": "F#5",
                    "midi": 78,
                    "time": 42.53093799999983,
                    "velocity": 0.18110236220472442,
                    "duration": 0.2478796999999986
                },
                {
                    "name": "D#6",
                    "midi": 87,
                    "time": 42.53093799999983,
                    "velocity": 0.2755905511811024,
                    "duration": 0.2478796999999986
                },
                {
                    "name": "A#5",
                    "midi": 82,
                    "time": 42.53093799999983,
                    "velocity": 0.18110236220472442,
                    "duration": 0.2478796999999986
                },
                {
                    "name": "F#5",
                    "midi": 78,
                    "time": 42.791863999999826,
                    "velocity": 0.16535433070866143,
                    "duration": 0.2478796999999986
                },
                {
                    "name": "A#5",
                    "midi": 82,
                    "time": 42.791863999999826,
                    "velocity": 0.16535433070866143,
                    "duration": 0.2478796999999986
                },
                {
                    "name": "C#6",
                    "midi": 85,
                    "time": 42.791863999999826,
                    "velocity": 0.25984251968503935,
                    "duration": 0.2478796999999986
                },
                {
                    "name": "C#5",
                    "midi": 73,
                    "time": 43.31371599999982,
                    "velocity": 0.18110236220472442,
                    "duration": 0.2478796999999986
                },
                {
                    "name": "A#5",
                    "midi": 82,
                    "time": 43.31371599999982,
                    "velocity": 0.2677165354330709,
                    "duration": 0.2478796999999986
                },
                {
                    "name": "F#5",
                    "midi": 78,
                    "time": 43.31371599999982,
                    "velocity": 0.18110236220472442,
                    "duration": 0.2478796999999986
                },
                {
                    "name": "A#4",
                    "midi": 70,
                    "time": 43.57464199999982,
                    "velocity": 0.16535433070866143,
                    "duration": 0.2478796999999986
                },
                {
                    "name": "C#5",
                    "midi": 73,
                    "time": 43.57464199999982,
                    "velocity": 0.16535433070866143,
                    "duration": 0.2478796999999986
                },
                {
                    "name": "F#5",
                    "midi": 78,
                    "time": 43.57464199999982,
                    "velocity": 0.25196850393700787,
                    "duration": 0.2478796999999986
                },
                {
                    "name": "B4",
                    "midi": 71,
                    "time": 44.096493999999815,
                    "velocity": 0.15748031496062992,
                    "duration": 0.2478796999999986
                },
                {
                    "name": "D#5",
                    "midi": 75,
                    "time": 44.096493999999815,
                    "velocity": 0.15748031496062992,
                    "duration": 0.2478796999999986
                },
                {
                    "name": "F#5",
                    "midi": 78,
                    "time": 44.096493999999815,
                    "velocity": 0.23622047244094488,
                    "duration": 0.2478796999999986
                },
                {
                    "name": "B4",
                    "midi": 71,
                    "time": 44.35741999999981,
                    "velocity": 0.15748031496062992,
                    "duration": 0.2478796999999986
                },
                {
                    "name": "D#5",
                    "midi": 75,
                    "time": 44.35741999999981,
                    "velocity": 0.15748031496062992,
                    "duration": 0.2478796999999986
                },
                {
                    "name": "F#5",
                    "midi": 78,
                    "time": 44.35741999999981,
                    "velocity": 0.23622047244094488,
                    "duration": 0.2478796999999986
                },
                {
                    "name": "B4",
                    "midi": 71,
                    "time": 44.61834599999981,
                    "velocity": 0.18110236220472442,
                    "duration": 0.2478796999999986
                },
                {
                    "name": "D#5",
                    "midi": 75,
                    "time": 44.61834599999981,
                    "velocity": 0.18110236220472442,
                    "duration": 0.2478796999999986
                },
                {
                    "name": "A#5",
                    "midi": 82,
                    "time": 44.61834599999981,
                    "velocity": 0.2755905511811024,
                    "duration": 0.2478796999999986
                },
                {
                    "name": "B4",
                    "midi": 71,
                    "time": 44.87927199999981,
                    "velocity": 0.15748031496062992,
                    "duration": 0.2478796999999986
                },
                {
                    "name": "D#5",
                    "midi": 75,
                    "time": 44.87927199999981,
                    "velocity": 0.15748031496062992,
                    "duration": 0.2478796999999986
                },
                {
                    "name": "G#5",
                    "midi": 80,
                    "time": 44.87927199999981,
                    "velocity": 0.2440944881889764,
                    "duration": 0.2478796999999986
                },
                {
                    "name": "B4",
                    "midi": 71,
                    "time": 45.140197999999806,
                    "velocity": 0.15748031496062992,
                    "duration": 0.2478796999999986
                },
                {
                    "name": "D#5",
                    "midi": 75,
                    "time": 45.140197999999806,
                    "velocity": 0.15748031496062992,
                    "duration": 0.2478796999999986
                },
                {
                    "name": "F#5",
                    "midi": 78,
                    "time": 45.140197999999806,
                    "velocity": 0.2440944881889764,
                    "duration": 0.2478796999999986
                },
                {
                    "name": "C#5",
                    "midi": 73,
                    "time": 45.6620499999998,
                    "velocity": 0.15748031496062992,
                    "duration": 0.2478796999999986
                },
                {
                    "name": "F#5",
                    "midi": 78,
                    "time": 45.6620499999998,
                    "velocity": 0.15748031496062992,
                    "duration": 0.2478796999999986
                },
                {
                    "name": "A#5",
                    "midi": 82,
                    "time": 45.6620499999998,
                    "velocity": 0.23622047244094488,
                    "duration": 0.2478796999999986
                },
                {
                    "name": "C#5",
                    "midi": 73,
                    "time": 45.9229759999998,
                    "velocity": 0.15748031496062992,
                    "duration": 0.2478796999999986
                },
                {
                    "name": "F#5",
                    "midi": 78,
                    "time": 45.9229759999998,
                    "velocity": 0.15748031496062992,
                    "duration": 0.2478796999999986
                },
                {
                    "name": "A#5",
                    "midi": 82,
                    "time": 45.9229759999998,
                    "velocity": 0.23622047244094488,
                    "duration": 0.2478796999999986
                },
                {
                    "name": "C#5",
                    "midi": 73,
                    "time": 46.1839019999998,
                    "velocity": 0.16535433070866143,
                    "duration": 0.2478796999999986
                },
                {
                    "name": "F#5",
                    "midi": 78,
                    "time": 46.1839019999998,
                    "velocity": 0.16535433070866143,
                    "duration": 0.2478796999999986
                },
                {
                    "name": "A#5",
                    "midi": 82,
                    "time": 46.1839019999998,
                    "velocity": 0.25984251968503935,
                    "duration": 0.2478796999999986
                },
                {
                    "name": "C#5",
                    "midi": 73,
                    "time": 46.444827999999795,
                    "velocity": 0.15748031496062992,
                    "duration": 0.2478796999999986
                },
                {
                    "name": "F#5",
                    "midi": 78,
                    "time": 46.444827999999795,
                    "velocity": 0.15748031496062992,
                    "duration": 0.2478796999999986
                },
                {
                    "name": "A#5",
                    "midi": 82,
                    "time": 46.444827999999795,
                    "velocity": 0.23622047244094488,
                    "duration": 0.2478796999999986
                },
                {
                    "name": "C#5",
                    "midi": 73,
                    "time": 46.70575399999979,
                    "velocity": 0.15748031496062992,
                    "duration": 0.2478796999999986
                },
                {
                    "name": "F#5",
                    "midi": 78,
                    "time": 46.70575399999979,
                    "velocity": 0.15748031496062992,
                    "duration": 0.2478796999999986
                },
                {
                    "name": "A#5",
                    "midi": 82,
                    "time": 46.70575399999979,
                    "velocity": 0.23622047244094488,
                    "duration": 0.2478796999999986
                },
                {
                    "name": "D5",
                    "midi": 74,
                    "time": 47.22760599999979,
                    "velocity": 0.2125984251968504,
                    "duration": 0.2478796999999986
                },
                {
                    "name": "F#5",
                    "midi": 78,
                    "time": 47.22760599999979,
                    "velocity": 0.2125984251968504,
                    "duration": 0.2478796999999986
                },
                {
                    "name": "A#5",
                    "midi": 82,
                    "time": 47.22760599999979,
                    "velocity": 0.25196850393700787,
                    "duration": 0.2478796999999986
                },
                {
                    "name": "D5",
                    "midi": 74,
                    "time": 47.488531999999786,
                    "velocity": 0.2125984251968504,
                    "duration": 0.2478796999999986
                },
                {
                    "name": "F#5",
                    "midi": 78,
                    "time": 47.488531999999786,
                    "velocity": 0.2125984251968504,
                    "duration": 0.2478796999999986
                },
                {
                    "name": "A#5",
                    "midi": 82,
                    "time": 47.488531999999786,
                    "velocity": 0.25196850393700787,
                    "duration": 0.2478796999999986
                },
                {
                    "name": "D5",
                    "midi": 74,
                    "time": 48.01038399999978,
                    "velocity": 0.23622047244094488,
                    "duration": 0.2478796999999986
                },
                {
                    "name": "F#5",
                    "midi": 78,
                    "time": 48.01038399999978,
                    "velocity": 0.23622047244094488,
                    "duration": 0.2478796999999986
                },
                {
                    "name": "A#5",
                    "midi": 82,
                    "time": 48.01038399999978,
                    "velocity": 0.28346456692913385,
                    "duration": 0.2478796999999986
                },
                {
                    "name": "D5",
                    "midi": 74,
                    "time": 48.27130999999978,
                    "velocity": 0.25984251968503935,
                    "duration": 0.2478796999999986
                },
                {
                    "name": "F#5",
                    "midi": 78,
                    "time": 48.27130999999978,
                    "velocity": 0.25984251968503935,
                    "duration": 0.2478796999999986
                },
                {
                    "name": "A#5",
                    "midi": 82,
                    "time": 48.27130999999978,
                    "velocity": 0.30708661417322836,
                    "duration": 0.2478796999999986
                },
                {
                    "name": "D#5",
                    "midi": 75,
                    "time": 48.793161999999775,
                    "velocity": 0.25196850393700787,
                    "duration": 0.2478796999999986
                },
                {
                    "name": "F#5",
                    "midi": 78,
                    "time": 48.793161999999775,
                    "velocity": 0.25196850393700787,
                    "duration": 0.2478796999999986
                },
                {
                    "name": "A#5",
                    "midi": 82,
                    "time": 48.793161999999775,
                    "velocity": 0.2992125984251969,
                    "duration": 0.2478796999999986
                },
                {
                    "name": "D#5",
                    "midi": 75,
                    "time": 49.05408799999977,
                    "velocity": 0.25196850393700787,
                    "duration": 0.2478796999999986
                },
                {
                    "name": "F#5",
                    "midi": 78,
                    "time": 49.05408799999977,
                    "velocity": 0.25196850393700787,
                    "duration": 0.2478796999999986
                },
                {
                    "name": "A#5",
                    "midi": 82,
                    "time": 49.05408799999977,
                    "velocity": 0.2992125984251969,
                    "duration": 0.2478796999999986
                },
                {
                    "name": "F#4",
                    "midi": 66,
                    "time": 49.57593999999977,
                    "velocity": 0.2125984251968504,
                    "duration": 0.2478796999999986
                },
                {
                    "name": "A#4",
                    "midi": 70,
                    "time": 49.57593999999977,
                    "velocity": 0.2125984251968504,
                    "duration": 0.2478796999999986
                },
                {
                    "name": "D#5",
                    "midi": 75,
                    "time": 49.57593999999977,
                    "velocity": 0.25984251968503935,
                    "duration": 0.2478796999999986
                },
                {
                    "name": "F#4",
                    "midi": 66,
                    "time": 49.836865999999766,
                    "velocity": 0.2125984251968504,
                    "duration": 0.2478796999999986
                },
                {
                    "name": "A#4",
                    "midi": 70,
                    "time": 49.836865999999766,
                    "velocity": 0.2125984251968504,
                    "duration": 0.2478796999999986
                },
                {
                    "name": "D#5",
                    "midi": 75,
                    "time": 49.836865999999766,
                    "velocity": 0.25984251968503935,
                    "duration": 0.2478796999999986
                },
                {
                    "name": "D5",
                    "midi": 74,
                    "time": 50.35871799999976,
                    "velocity": 0.2125984251968504,
                    "duration": 0.2478796999999986
                },
                {
                    "name": "F#5",
                    "midi": 78,
                    "time": 50.35871799999976,
                    "velocity": 0.2125984251968504,
                    "duration": 0.2478796999999986
                },
                {
                    "name": "A#5",
                    "midi": 82,
                    "time": 50.35871799999976,
                    "velocity": 0.25196850393700787,
                    "duration": 0.2478796999999986
                },
                {
                    "name": "D5",
                    "midi": 74,
                    "time": 50.61964399999976,
                    "velocity": 0.2125984251968504,
                    "duration": 0.2478796999999986
                },
                {
                    "name": "F#5",
                    "midi": 78,
                    "time": 50.61964399999976,
                    "velocity": 0.2125984251968504,
                    "duration": 0.2478796999999986
                },
                {
                    "name": "A#5",
                    "midi": 82,
                    "time": 50.61964399999976,
                    "velocity": 0.25196850393700787,
                    "duration": 0.2478796999999986
                },
                {
                    "name": "D5",
                    "midi": 74,
                    "time": 51.141495999999755,
                    "velocity": 0.23622047244094488,
                    "duration": 0.2478796999999986
                },
                {
                    "name": "F#5",
                    "midi": 78,
                    "time": 51.141495999999755,
                    "velocity": 0.23622047244094488,
                    "duration": 0.2478796999999986
                },
                {
                    "name": "B5",
                    "midi": 83,
                    "time": 51.141495999999755,
                    "velocity": 0.28346456692913385,
                    "duration": 0.2478796999999986
                },
                {
                    "name": "D5",
                    "midi": 74,
                    "time": 51.40242199999975,
                    "velocity": 0.25984251968503935,
                    "duration": 0.2478796999999986
                },
                {
                    "name": "F#5",
                    "midi": 78,
                    "time": 51.40242199999975,
                    "velocity": 0.25984251968503935,
                    "duration": 0.2478796999999986
                },
                {
                    "name": "C#6",
                    "midi": 85,
                    "time": 51.40242199999975,
                    "velocity": 0.30708661417322836,
                    "duration": 0.2478796999999986
                },
                {
                    "name": "D#5",
                    "midi": 75,
                    "time": 51.92427399999975,
                    "velocity": 0.2755905511811024,
                    "duration": 0.2478796999999986
                },
                {
                    "name": "F#5",
                    "midi": 78,
                    "time": 51.92427399999975,
                    "velocity": 0.2755905511811024,
                    "duration": 0.2478796999999986
                },
                {
                    "name": "A#5",
                    "midi": 82,
                    "time": 51.92427399999975,
                    "velocity": 0.33070866141732286,
                    "duration": 0.2478796999999986
                },
                {
                    "name": "D#5",
                    "midi": 75,
                    "time": 52.185199999999746,
                    "velocity": 0.28346456692913385,
                    "duration": 0.2478796999999986
                },
                {
                    "name": "F#5",
                    "midi": 78,
                    "time": 52.185199999999746,
                    "velocity": 0.28346456692913385,
                    "duration": 0.2478796999999986
                },
                {
                    "name": "A#5",
                    "midi": 82,
                    "time": 52.185199999999746,
                    "velocity": 0.33858267716535434,
                    "duration": 0.2478796999999986
                },
                {
                    "name": "D#5",
                    "midi": 75,
                    "time": 52.446125999999744,
                    "velocity": 0.29133858267716534,
                    "duration": 0.2478796999999986
                },
                {
                    "name": "F#5",
                    "midi": 78,
                    "time": 52.446125999999744,
                    "velocity": 0.29133858267716534,
                    "duration": 0.2478796999999986
                },
                {
                    "name": "A#5",
                    "midi": 82,
                    "time": 52.446125999999744,
                    "velocity": 0.3543307086614173,
                    "duration": 0.2478796999999986
                },
                {
                    "name": "D#5",
                    "midi": 75,
                    "time": 52.70705199999974,
                    "velocity": 0.30708661417322836,
                    "duration": 0.2478796999999986
                },
                {
                    "name": "F#5",
                    "midi": 78,
                    "time": 52.70705199999974,
                    "velocity": 0.30708661417322836,
                    "duration": 0.2478796999999986
                },
                {
                    "name": "A#5",
                    "midi": 82,
                    "time": 52.70705199999974,
                    "velocity": 0.36220472440944884,
                    "duration": 0.2478796999999986
                },
                {
                    "name": "D#5",
                    "midi": 75,
                    "time": 52.96797799999974,
                    "velocity": 0.31496062992125984,
                    "duration": 0.2478796999999986
                },
                {
                    "name": "F#5",
                    "midi": 78,
                    "time": 52.96797799999974,
                    "velocity": 0.31496062992125984,
                    "duration": 0.2478796999999986
                },
                {
                    "name": "A#5",
                    "midi": 82,
                    "time": 52.96797799999974,
                    "velocity": 0.3779527559055118,
                    "duration": 0.2478796999999986
                },
                {
                    "name": "D5",
                    "midi": 74,
                    "time": 53.489829999999735,
                    "velocity": 0.25984251968503935,
                    "duration": 0.2478796999999986
                },
                {
                    "name": "F#5",
                    "midi": 78,
                    "time": 53.489829999999735,
                    "velocity": 0.25984251968503935,
                    "duration": 0.2478796999999986
                },
                {
                    "name": "A#5",
                    "midi": 82,
                    "time": 53.489829999999735,
                    "velocity": 0.31496062992125984,
                    "duration": 0.2478796999999986
                },
                {
                    "name": "D5",
                    "midi": 74,
                    "time": 53.75075599999973,
                    "velocity": 0.25984251968503935,
                    "duration": 0.2478796999999986
                },
                {
                    "name": "F#5",
                    "midi": 78,
                    "time": 53.75075599999973,
                    "velocity": 0.25984251968503935,
                    "duration": 0.2478796999999986
                },
                {
                    "name": "A#5",
                    "midi": 82,
                    "time": 53.75075599999973,
                    "velocity": 0.31496062992125984,
                    "duration": 0.2478796999999986
                },
                {
                    "name": "D5",
                    "midi": 74,
                    "time": 54.01168199999973,
                    "velocity": 0.25984251968503935,
                    "duration": 0.2478796999999986
                },
                {
                    "name": "F#5",
                    "midi": 78,
                    "time": 54.01168199999973,
                    "velocity": 0.25984251968503935,
                    "duration": 0.2478796999999986
                },
                {
                    "name": "A#5",
                    "midi": 82,
                    "time": 54.01168199999973,
                    "velocity": 0.31496062992125984,
                    "duration": 0.2478796999999986
                },
                {
                    "name": "D5",
                    "midi": 74,
                    "time": 54.27260799999973,
                    "velocity": 0.2677165354330709,
                    "duration": 0.2478796999999986
                },
                {
                    "name": "F#5",
                    "midi": 78,
                    "time": 54.27260799999973,
                    "velocity": 0.2677165354330709,
                    "duration": 0.2478796999999986
                },
                {
                    "name": "A#5",
                    "midi": 82,
                    "time": 54.27260799999973,
                    "velocity": 0.3228346456692913,
                    "duration": 0.2478796999999986
                },
                {
                    "name": "D5",
                    "midi": 74,
                    "time": 54.533533999999726,
                    "velocity": 0.2677165354330709,
                    "duration": 0.2478796999999986
                },
                {
                    "name": "F#5",
                    "midi": 78,
                    "time": 54.533533999999726,
                    "velocity": 0.2677165354330709,
                    "duration": 0.2478796999999986
                },
                {
                    "name": "A5",
                    "midi": 81,
                    "time": 54.533533999999726,
                    "velocity": 0.3228346456692913,
                    "duration": 0.2478796999999986
                },
                {
                    "name": "C#5",
                    "midi": 73,
                    "time": 55.05538599999972,
                    "velocity": 0.25984251968503935,
                    "duration": 0.2478796999999986
                },
                {
                    "name": "F5",
                    "midi": 77,
                    "time": 55.05538599999972,
                    "velocity": 0.25984251968503935,
                    "duration": 0.2478796999999986
                },
                {
                    "name": "A5",
                    "midi": 81,
                    "time": 55.05538599999972,
                    "velocity": 0.30708661417322836,
                    "duration": 0.2478796999999986
                },
                {
                    "name": "C#5",
                    "midi": 73,
                    "time": 55.31631199999972,
                    "velocity": 0.25196850393700787,
                    "duration": 0.2478796999999986
                },
                {
                    "name": "F5",
                    "midi": 77,
                    "time": 55.31631199999972,
                    "velocity": 0.25196850393700787,
                    "duration": 0.2478796999999986
                },
                {
                    "name": "A5",
                    "midi": 81,
                    "time": 55.31631199999972,
                    "velocity": 0.2992125984251969,
                    "duration": 0.2478796999999986
                },
                {
                    "name": "C#5",
                    "midi": 73,
                    "time": 55.838163999999715,
                    "velocity": 0.2440944881889764,
                    "duration": 0.2478796999999986
                },
                {
                    "name": "F5",
                    "midi": 77,
                    "time": 55.838163999999715,
                    "velocity": 0.2440944881889764,
                    "duration": 0.2478796999999986
                },
                {
                    "name": "G#5",
                    "midi": 80,
                    "time": 55.838163999999715,
                    "velocity": 0.29133858267716534,
                    "duration": 0.2478796999999986
                },
                {
                    "name": "C#5",
                    "midi": 73,
                    "time": 56.09908999999971,
                    "velocity": 0.2440944881889764,
                    "duration": 0.2478796999999986
                },
                {
                    "name": "F5",
                    "midi": 77,
                    "time": 56.09908999999971,
                    "velocity": 0.2440944881889764,
                    "duration": 0.2478796999999986
                },
                {
                    "name": "G#5",
                    "midi": 80,
                    "time": 56.09908999999971,
                    "velocity": 0.29133858267716534,
                    "duration": 0.2478796999999986
                },
                {
                    "name": "C5",
                    "midi": 72,
                    "time": 56.62094199999971,
                    "velocity": 0.25984251968503935,
                    "duration": 0.2478796999999986
                },
                {
                    "name": "E5",
                    "midi": 76,
                    "time": 56.62094199999971,
                    "velocity": 0.25984251968503935,
                    "duration": 0.2478796999999986
                },
                {
                    "name": "G#5",
                    "midi": 80,
                    "time": 56.62094199999971,
                    "velocity": 0.30708661417322836,
                    "duration": 0.2478796999999986
                },
                {
                    "name": "C5",
                    "midi": 72,
                    "time": 56.881867999999706,
                    "velocity": 0.25984251968503935,
                    "duration": 0.2478796999999986
                },
                {
                    "name": "E5",
                    "midi": 76,
                    "time": 56.881867999999706,
                    "velocity": 0.25984251968503935,
                    "duration": 0.2478796999999986
                },
                {
                    "name": "G#5",
                    "midi": 80,
                    "time": 56.881867999999706,
                    "velocity": 0.30708661417322836,
                    "duration": 0.2478796999999986
                },
                {
                    "name": "C5",
                    "midi": 72,
                    "time": 57.4037199999997,
                    "velocity": 0.25984251968503935,
                    "duration": 0.12937580833333584
                },
                {
                    "name": "E5",
                    "midi": 76,
                    "time": 57.4037199999997,
                    "velocity": 0.25984251968503935,
                    "duration": 0.2478797000000057
                },
                {
                    "name": "A#5",
                    "midi": 82,
                    "time": 57.4037199999997,
                    "velocity": 0.30708661417322836,
                    "duration": 0.2478797000000057
                },
                {
                    "name": "E5",
                    "midi": 76,
                    "time": 57.664645999999706,
                    "velocity": 0.2677165354330709,
                    "duration": 0.2478796999999986
                },
                {
                    "name": "C6",
                    "midi": 84,
                    "time": 57.664645999999706,
                    "velocity": 0.3228346456692913,
                    "duration": 0.2478796999999986
                },
                {
                    "name": "C#5",
                    "midi": 73,
                    "time": 58.1864979999997,
                    "velocity": 0.2677165354330709,
                    "duration": 0.2478796999999986
                },
                {
                    "name": "F5",
                    "midi": 77,
                    "time": 58.1864979999997,
                    "velocity": 0.2677165354330709,
                    "duration": 0.2478796999999986
                },
                {
                    "name": "G#5",
                    "midi": 80,
                    "time": 58.1864979999997,
                    "velocity": 0.3228346456692913,
                    "duration": 0.2478796999999986
                },
                {
                    "name": "C#5",
                    "midi": 73,
                    "time": 58.4474239999997,
                    "velocity": 0.2677165354330709,
                    "duration": 0.2478796999999986
                },
                {
                    "name": "F5",
                    "midi": 77,
                    "time": 58.4474239999997,
                    "velocity": 0.2677165354330709,
                    "duration": 0.2478796999999986
                },
                {
                    "name": "G#5",
                    "midi": 80,
                    "time": 58.4474239999997,
                    "velocity": 0.3228346456692913,
                    "duration": 0.2478796999999986
                },
                {
                    "name": "F6",
                    "midi": 89,
                    "time": 58.7083499999997,
                    "velocity": 0.41732283464566927,
                    "duration": 0.2478796999999986
                },
                {
                    "name": "F5",
                    "midi": 77,
                    "time": 58.969275999999695,
                    "velocity": 0.30708661417322836,
                    "duration": 0.2478796999999986
                },
                {
                    "name": "G#5",
                    "midi": 80,
                    "time": 58.969275999999695,
                    "velocity": 0.30708661417322836,
                    "duration": 0.2478796999999986
                },
                {
                    "name": "C#6",
                    "midi": 85,
                    "time": 58.969275999999695,
                    "velocity": 0.3700787401574803,
                    "duration": 0.2478796999999986
                },
                {
                    "name": "F5",
                    "midi": 77,
                    "time": 59.23020199999969,
                    "velocity": 0.30708661417322836,
                    "duration": 0.2478796999999986
                },
                {
                    "name": "G#5",
                    "midi": 80,
                    "time": 59.23020199999969,
                    "velocity": 0.30708661417322836,
                    "duration": 0.2478796999999986
                },
                {
                    "name": "C6",
                    "midi": 84,
                    "time": 59.23020199999969,
                    "velocity": 0.3700787401574803,
                    "duration": 0.2478796999999986
                },
                {
                    "name": "C#5",
                    "midi": 73,
                    "time": 59.75205399999969,
                    "velocity": 0.2992125984251969,
                    "duration": 0.2478796999999986
                },
                {
                    "name": "F5",
                    "midi": 77,
                    "time": 59.75205399999969,
                    "velocity": 0.2992125984251969,
                    "duration": 0.2478796999999986
                },
                {
                    "name": "B5",
                    "midi": 83,
                    "time": 59.75205399999969,
                    "velocity": 0.3543307086614173,
                    "duration": 0.2478796999999986
                },
                {
                    "name": "C#5",
                    "midi": 73,
                    "time": 60.012979999999686,
                    "velocity": 0.2992125984251969,
                    "duration": 0.2478796999999986
                },
                {
                    "name": "F5",
                    "midi": 77,
                    "time": 60.012979999999686,
                    "velocity": 0.2992125984251969,
                    "duration": 0.2478796999999986
                },
                {
                    "name": "B5",
                    "midi": 83,
                    "time": 60.012979999999686,
                    "velocity": 0.3543307086614173,
                    "duration": 0.2478796999999986
                },
                {
                    "name": "C#5",
                    "midi": 73,
                    "time": 60.273905999999684,
                    "velocity": 0.30708661417322836,
                    "duration": 0.2478796999999986
                },
                {
                    "name": "F5",
                    "midi": 77,
                    "time": 60.273905999999684,
                    "velocity": 0.30708661417322836,
                    "duration": 0.2478796999999986
                },
                {
                    "name": "B5",
                    "midi": 83,
                    "time": 60.273905999999684,
                    "velocity": 0.3700787401574803,
                    "duration": 0.2478796999999986
                },
                {
                    "name": "C#5",
                    "midi": 73,
                    "time": 60.53483199999968,
                    "velocity": 0.29133858267716534,
                    "duration": 0.2478796999999986
                },
                {
                    "name": "F5",
                    "midi": 77,
                    "time": 60.53483199999968,
                    "velocity": 0.29133858267716534,
                    "duration": 0.2478796999999986
                },
                {
                    "name": "A#5",
                    "midi": 82,
                    "time": 60.53483199999968,
                    "velocity": 0.3464566929133858,
                    "duration": 0.2478796999999986
                },
                {
                    "name": "C#5",
                    "midi": 73,
                    "time": 60.79575799999968,
                    "velocity": 0.29133858267716534,
                    "duration": 0.2478796999999986
                },
                {
                    "name": "F5",
                    "midi": 77,
                    "time": 60.79575799999968,
                    "velocity": 0.29133858267716534,
                    "duration": 0.2478796999999986
                },
                {
                    "name": "A5",
                    "midi": 81,
                    "time": 60.79575799999968,
                    "velocity": 0.3464566929133858,
                    "duration": 0.2478796999999986
                },
                {
                    "name": "C#5",
                    "midi": 73,
                    "time": 61.317609999999675,
                    "velocity": 0.29133858267716534,
                    "duration": 0.2478796999999986
                },
                {
                    "name": "F5",
                    "midi": 77,
                    "time": 61.317609999999675,
                    "velocity": 0.29133858267716534,
                    "duration": 0.2478796999999986
                },
                {
                    "name": "A5",
                    "midi": 81,
                    "time": 61.317609999999675,
                    "velocity": 0.3464566929133858,
                    "duration": 0.2478796999999986
                },
                {
                    "name": "C#5",
                    "midi": 73,
                    "time": 61.57853599999967,
                    "velocity": 0.29133858267716534,
                    "duration": 0.2478796999999986
                },
                {
                    "name": "F5",
                    "midi": 77,
                    "time": 61.57853599999967,
                    "velocity": 0.29133858267716534,
                    "duration": 0.2478796999999986
                },
                {
                    "name": "A5",
                    "midi": 81,
                    "time": 61.57853599999967,
                    "velocity": 0.3464566929133858,
                    "duration": 0.2478796999999986
                },
                {
                    "name": "C#5",
                    "midi": 73,
                    "time": 62.10038799999967,
                    "velocity": 0.29133858267716534,
                    "duration": 0.2478796999999986
                },
                {
                    "name": "F5",
                    "midi": 77,
                    "time": 62.10038799999967,
                    "velocity": 0.29133858267716534,
                    "duration": 0.2478796999999986
                },
                {
                    "name": "G#5",
                    "midi": 80,
                    "time": 62.10038799999967,
                    "velocity": 0.3464566929133858,
                    "duration": 0.2478796999999986
                },
                {
                    "name": "C#5",
                    "midi": 73,
                    "time": 62.361313999999666,
                    "velocity": 0.29133858267716534,
                    "duration": 0.2478796999999986
                },
                {
                    "name": "F5",
                    "midi": 77,
                    "time": 62.361313999999666,
                    "velocity": 0.29133858267716534,
                    "duration": 0.2478796999999986
                },
                {
                    "name": "A5",
                    "midi": 81,
                    "time": 62.361313999999666,
                    "velocity": 0.3464566929133858,
                    "duration": 0.2478796999999986
                },
                {
                    "name": "D#5",
                    "midi": 75,
                    "time": 62.88316599999966,
                    "velocity": 0.29133858267716534,
                    "duration": 0.2478796999999986
                },
                {
                    "name": "F#5",
                    "midi": 78,
                    "time": 62.88316599999966,
                    "velocity": 0.29133858267716534,
                    "duration": 0.2478796999999986
                },
                {
                    "name": "A#5",
                    "midi": 82,
                    "time": 62.88316599999966,
                    "velocity": 0.3464566929133858,
                    "duration": 0.2478796999999986
                },
                {
                    "name": "D#5",
                    "midi": 75,
                    "time": 63.14409199999966,
                    "velocity": 0.30708661417322836,
                    "duration": 0.2478796999999986
                },
                {
                    "name": "F#5",
                    "midi": 78,
                    "time": 63.14409199999966,
                    "velocity": 0.30708661417322836,
                    "duration": 0.2478796999999986
                },
                {
                    "name": "A#5",
                    "midi": 82,
                    "time": 63.14409199999966,
                    "velocity": 0.36220472440944884,
                    "duration": 0.2478796999999986
                },
                {
                    "name": "F#5",
                    "midi": 78,
                    "time": 63.40501799999966,
                    "velocity": 0.3464566929133858,
                    "duration": 0.26092599999999777
                },
                {
                    "name": "D#5",
                    "midi": 75,
                    "time": 63.40501799999966,
                    "velocity": 0.3464566929133858,
                    "duration": 0.26092599999999777
                },
                {
                    "name": "C#6",
                    "midi": 85,
                    "time": 63.40501799999966,
                    "velocity": 0.4094488188976378,
                    "duration": 0.2478796999999986
                },
                {
                    "name": "D#5",
                    "midi": 75,
                    "time": 63.665943999999655,
                    "velocity": 0.31496062992125984,
                    "duration": 0.2478796999999986
                },
                {
                    "name": "F#5",
                    "midi": 78,
                    "time": 63.665943999999655,
                    "velocity": 0.31496062992125984,
                    "duration": 0.2478796999999986
                },
                {
                    "name": "C6",
                    "midi": 84,
                    "time": 63.665943999999655,
                    "velocity": 0.3779527559055118,
                    "duration": 0.2478796999999986
                },
                {
                    "name": "D#5",
                    "midi": 75,
                    "time": 63.92686999999965,
                    "velocity": 0.31496062992125984,
                    "duration": 0.2478796999999986
                },
                {
                    "name": "F#5",
                    "midi": 78,
                    "time": 63.92686999999965,
                    "velocity": 0.31496062992125984,
                    "duration": 0.2478796999999986
                },
                {
                    "name": "A#5",
                    "midi": 82,
                    "time": 63.92686999999965,
                    "velocity": 0.3779527559055118,
                    "duration": 0.2478796999999986
                },
                {
                    "name": "F5",
                    "midi": 77,
                    "time": 64.44872199999965,
                    "velocity": 0.31496062992125984,
                    "duration": 0.2478796999999986
                },
                {
                    "name": "G#5",
                    "midi": 80,
                    "time": 64.44872199999965,
                    "velocity": 0.31496062992125984,
                    "duration": 0.2478796999999986
                },
                {
                    "name": "C#6",
                    "midi": 85,
                    "time": 64.44872199999965,
                    "velocity": 0.3779527559055118,
                    "duration": 0.2478796999999986
                },
                {
                    "name": "F5",
                    "midi": 77,
                    "time": 64.70964799999965,
                    "velocity": 0.28346456692913385,
                    "duration": 0.2478796999999986
                },
                {
                    "name": "G#5",
                    "midi": 80,
                    "time": 64.70964799999965,
                    "velocity": 0.28346456692913385,
                    "duration": 0.2478796999999986
                },
                {
                    "name": "C#6",
                    "midi": 85,
                    "time": 64.70964799999965,
                    "velocity": 0.3464566929133858,
                    "duration": 0.2478796999999986
                },
                {
                    "name": "F5",
                    "midi": 77,
                    "time": 64.97057399999964,
                    "velocity": 0.25984251968503935,
                    "duration": 0.2478796999999986
                },
                {
                    "name": "G#5",
                    "midi": 80,
                    "time": 64.97057399999964,
                    "velocity": 0.25984251968503935,
                    "duration": 0.2478796999999986
                },
                {
                    "name": "C#6",
                    "midi": 85,
                    "time": 64.97057399999964,
                    "velocity": 0.31496062992125984,
                    "duration": 0.2478796999999986
                },
                {
                    "name": "F5",
                    "midi": 77,
                    "time": 65.23149999999964,
                    "velocity": 0.23622047244094488,
                    "duration": 0.2478796999999986
                },
                {
                    "name": "G#5",
                    "midi": 80,
                    "time": 65.23149999999964,
                    "velocity": 0.23622047244094488,
                    "duration": 0.2478796999999986
                },
                {
                    "name": "C#6",
                    "midi": 85,
                    "time": 65.23149999999964,
                    "velocity": 0.28346456692913385,
                    "duration": 0.2478796999999986
                },
                {
                    "name": "F5",
                    "midi": 77,
                    "time": 65.49242599999964,
                    "velocity": 0.2125984251968504,
                    "duration": 0.19569450000000188
                },
                {
                    "name": "G#5",
                    "midi": 80,
                    "time": 65.49242599999964,
                    "velocity": 0.2125984251968504,
                    "duration": 0.19569450000000188
                },
                {
                    "name": "C#6",
                    "midi": 85,
                    "time": 65.49242599999964,
                    "velocity": 0.25984251968503935,
                    "duration": 0.19569450000000188
                },
                {
                    "name": "C#4",
                    "midi": 61,
                    "time": 65.75335199999964,
                    "velocity": 0.31496062992125984,
                    "duration": 1.3046299999999889
                },
                {
                    "name": "F3",
                    "midi": 53,
                    "time": 66.01427799999963,
                    "velocity": 0.15748031496062992,
                    "duration": 0.26092599999999777
                },
                {
                    "name": "G#3",
                    "midi": 56,
                    "time": 66.01427799999963,
                    "velocity": 0.15748031496062992,
                    "duration": 0.26092599999999777
                },
                {
                    "name": "B3",
                    "midi": 59,
                    "time": 66.01427799999963,
                    "velocity": 0.1968503937007874,
                    "duration": 0.26092599999999777
                },
                {
                    "name": "F3",
                    "midi": 53,
                    "time": 66.27520399999963,
                    "velocity": 0.15748031496062992,
                    "duration": 0.26092599999999777
                },
                {
                    "name": "G#3",
                    "midi": 56,
                    "time": 66.27520399999963,
                    "velocity": 0.15748031496062992,
                    "duration": 0.26092599999999777
                },
                {
                    "name": "B3",
                    "midi": 59,
                    "time": 66.27520399999963,
                    "velocity": 0.1968503937007874,
                    "duration": 0.26092599999999777
                },
                {
                    "name": "F3",
                    "midi": 53,
                    "time": 66.53612999999963,
                    "velocity": 0.15748031496062992,
                    "duration": 0.26092599999999777
                },
                {
                    "name": "G#3",
                    "midi": 56,
                    "time": 66.53612999999963,
                    "velocity": 0.15748031496062992,
                    "duration": 0.26092599999999777
                },
                {
                    "name": "B3",
                    "midi": 59,
                    "time": 66.53612999999963,
                    "velocity": 0.1968503937007874,
                    "duration": 0.26092599999999777
                },
                {
                    "name": "F3",
                    "midi": 53,
                    "time": 66.79705599999963,
                    "velocity": 0.15748031496062992,
                    "duration": 0.26092599999999777
                },
                {
                    "name": "G#3",
                    "midi": 56,
                    "time": 66.79705599999963,
                    "velocity": 0.15748031496062992,
                    "duration": 0.26092599999999777
                },
                {
                    "name": "B3",
                    "midi": 59,
                    "time": 66.79705599999963,
                    "velocity": 0.1968503937007874,
                    "duration": 0.26092599999999777
                },
                {
                    "name": "D4",
                    "midi": 62,
                    "time": 67.05798199999963,
                    "velocity": 0.30708661417322836,
                    "duration": 0.26092599999999777
                },
                {
                    "name": "D4",
                    "midi": 62,
                    "time": 67.31890799999962,
                    "velocity": 0.33858267716535434,
                    "duration": 0.7827779999999933
                },
                {
                    "name": "F3",
                    "midi": 53,
                    "time": 67.57983399999962,
                    "velocity": 0.15748031496062992,
                    "duration": 0.26092599999999777
                },
                {
                    "name": "G#3",
                    "midi": 56,
                    "time": 67.57983399999962,
                    "velocity": 0.15748031496062992,
                    "duration": 0.26092599999999777
                },
                {
                    "name": "B3",
                    "midi": 59,
                    "time": 67.57983399999962,
                    "velocity": 0.1968503937007874,
                    "duration": 0.26092599999999777
                },
                {
                    "name": "F3",
                    "midi": 53,
                    "time": 67.84075999999962,
                    "velocity": 0.15748031496062992,
                    "duration": 0.26092599999999777
                },
                {
                    "name": "G#3",
                    "midi": 56,
                    "time": 67.84075999999962,
                    "velocity": 0.15748031496062992,
                    "duration": 0.26092599999999777
                },
                {
                    "name": "B3",
                    "midi": 59,
                    "time": 67.84075999999962,
                    "velocity": 0.1968503937007874,
                    "duration": 0.26092599999999777
                },
                {
                    "name": "C#4",
                    "midi": 61,
                    "time": 68.10168599999962,
                    "velocity": 0.29133858267716534,
                    "duration": 0.7827779999999933
                },
                {
                    "name": "F3",
                    "midi": 53,
                    "time": 68.36261199999961,
                    "velocity": 0.15748031496062992,
                    "duration": 0.26092599999999777
                },
                {
                    "name": "G#3",
                    "midi": 56,
                    "time": 68.36261199999961,
                    "velocity": 0.15748031496062992,
                    "duration": 0.26092599999999777
                },
                {
                    "name": "B3",
                    "midi": 59,
                    "time": 68.36261199999961,
                    "velocity": 0.1968503937007874,
                    "duration": 0.26092599999999777
                },
                {
                    "name": "F3",
                    "midi": 53,
                    "time": 68.62353799999961,
                    "velocity": 0.15748031496062992,
                    "duration": 0.26092599999999777
                },
                {
                    "name": "G#3",
                    "midi": 56,
                    "time": 68.62353799999961,
                    "velocity": 0.15748031496062992,
                    "duration": 0.26092599999999777
                },
                {
                    "name": "B3",
                    "midi": 59,
                    "time": 68.62353799999961,
                    "velocity": 0.1968503937007874,
                    "duration": 0.26092599999999777
                },
                {
                    "name": "D4",
                    "midi": 62,
                    "time": 68.88446399999961,
                    "velocity": 0.3228346456692913,
                    "duration": 0.7827779999999933
                },
                {
                    "name": "G#3",
                    "midi": 56,
                    "time": 69.14538999999961,
                    "velocity": 0.15748031496062992,
                    "duration": 0.26092599999999777
                },
                {
                    "name": "B3",
                    "midi": 59,
                    "time": 69.14538999999961,
                    "velocity": 0.1968503937007874,
                    "duration": 0.26092599999999777
                },
                {
                    "name": "G#3",
                    "midi": 56,
                    "time": 69.4063159999996,
                    "velocity": 0.15748031496062992,
                    "duration": 0.26092599999999777
                },
                {
                    "name": "B3",
                    "midi": 59,
                    "time": 69.4063159999996,
                    "velocity": 0.1968503937007874,
                    "duration": 0.26092599999999777
                },
                {
                    "name": "F#4",
                    "midi": 66,
                    "time": 69.6672419999996,
                    "velocity": 0.3543307086614173,
                    "duration": 0.26092599999999777
                },
                {
                    "name": "G#3",
                    "midi": 56,
                    "time": 69.9281679999996,
                    "velocity": 0.15748031496062992,
                    "duration": 0.26092599999999777
                },
                {
                    "name": "B3",
                    "midi": 59,
                    "time": 69.9281679999996,
                    "velocity": 0.1968503937007874,
                    "duration": 0.26092599999999777
                },
                {
                    "name": "D4",
                    "midi": 62,
                    "time": 69.9281679999996,
                    "velocity": 0.33070866141732286,
                    "duration": 0.26092599999999777
                },
                {
                    "name": "E4",
                    "midi": 64,
                    "time": 70.1890939999996,
                    "velocity": 0.3464566929133858,
                    "duration": 0.26092599999999777
                },
                {
                    "name": "C#4",
                    "midi": 61,
                    "time": 70.4500199999996,
                    "velocity": 0.31496062992125984,
                    "duration": 1.5655559999999866
                },
                {
                    "name": "F3",
                    "midi": 53,
                    "time": 70.7109459999996,
                    "velocity": 0.15748031496062992,
                    "duration": 0.26092599999999777
                },
                {
                    "name": "G#3",
                    "midi": 56,
                    "time": 70.7109459999996,
                    "velocity": 0.15748031496062992,
                    "duration": 0.26092599999999777
                },
                {
                    "name": "B3",
                    "midi": 59,
                    "time": 70.7109459999996,
                    "velocity": 0.1968503937007874,
                    "duration": 0.26092599999999777
                },
                {
                    "name": "F3",
                    "midi": 53,
                    "time": 70.97187199999959,
                    "velocity": 0.15748031496062992,
                    "duration": 0.26092599999999777
                },
                {
                    "name": "G#3",
                    "midi": 56,
                    "time": 70.97187199999959,
                    "velocity": 0.15748031496062992,
                    "duration": 0.26092599999999777
                },
                {
                    "name": "B3",
                    "midi": 59,
                    "time": 70.97187199999959,
                    "velocity": 0.1968503937007874,
                    "duration": 0.26092599999999777
                },
                {
                    "name": "F3",
                    "midi": 53,
                    "time": 71.23279799999959,
                    "velocity": 0.15748031496062992,
                    "duration": 0.26092599999999777
                },
                {
                    "name": "G#3",
                    "midi": 56,
                    "time": 71.23279799999959,
                    "velocity": 0.15748031496062992,
                    "duration": 0.26092599999999777
                },
                {
                    "name": "B3",
                    "midi": 59,
                    "time": 71.23279799999959,
                    "velocity": 0.1968503937007874,
                    "duration": 0.26092599999999777
                },
                {
                    "name": "F3",
                    "midi": 53,
                    "time": 71.49372399999959,
                    "velocity": 0.15748031496062992,
                    "duration": 0.26092599999999777
                },
                {
                    "name": "G#3",
                    "midi": 56,
                    "time": 71.49372399999959,
                    "velocity": 0.15748031496062992,
                    "duration": 0.26092599999999777
                },
                {
                    "name": "B3",
                    "midi": 59,
                    "time": 71.49372399999959,
                    "velocity": 0.1968503937007874,
                    "duration": 0.26092599999999777
                },
                {
                    "name": "F3",
                    "midi": 53,
                    "time": 71.75464999999959,
                    "velocity": 0.15748031496062992,
                    "duration": 0.19569450000000188
                },
                {
                    "name": "G#3",
                    "midi": 56,
                    "time": 71.75464999999959,
                    "velocity": 0.15748031496062992,
                    "duration": 0.19569450000000188
                },
                {
                    "name": "B3",
                    "midi": 59,
                    "time": 71.75464999999959,
                    "velocity": 0.1968503937007874,
                    "duration": 0.19569450000000188
                },
                {
                    "name": "F4",
                    "midi": 65,
                    "time": 72.01557599999958,
                    "velocity": 0.4330708661417323,
                    "duration": 1.3046299999999889
                },
                {
                    "name": "G#3",
                    "midi": 56,
                    "time": 72.27650199999958,
                    "velocity": 0.2440944881889764,
                    "duration": 0.26092599999999777
                },
                {
                    "name": "B3",
                    "midi": 59,
                    "time": 72.27650199999958,
                    "velocity": 0.2440944881889764,
                    "duration": 0.26092599999999777
                },
                {
                    "name": "D4",
                    "midi": 62,
                    "time": 72.27650199999958,
                    "velocity": 0.30708661417322836,
                    "duration": 0.26092599999999777
                },
                {
                    "name": "G#3",
                    "midi": 56,
                    "time": 72.53742799999958,
                    "velocity": 0.2440944881889764,
                    "duration": 0.26092599999999777
                },
                {
                    "name": "B3",
                    "midi": 59,
                    "time": 72.53742799999958,
                    "velocity": 0.2440944881889764,
                    "duration": 0.26092599999999777
                },
                {
                    "name": "D4",
                    "midi": 62,
                    "time": 72.53742799999958,
                    "velocity": 0.30708661417322836,
                    "duration": 0.26092599999999777
                },
                {
                    "name": "G#3",
                    "midi": 56,
                    "time": 72.79835399999958,
                    "velocity": 0.2440944881889764,
                    "duration": 0.26092599999999777
                },
                {
                    "name": "B3",
                    "midi": 59,
                    "time": 72.79835399999958,
                    "velocity": 0.2440944881889764,
                    "duration": 0.26092599999999777
                },
                {
                    "name": "D4",
                    "midi": 62,
                    "time": 72.79835399999958,
                    "velocity": 0.30708661417322836,
                    "duration": 0.26092599999999777
                },
                {
                    "name": "G#3",
                    "midi": 56,
                    "time": 73.05927999999957,
                    "velocity": 0.2440944881889764,
                    "duration": 0.26092599999999777
                },
                {
                    "name": "B3",
                    "midi": 59,
                    "time": 73.05927999999957,
                    "velocity": 0.2440944881889764,
                    "duration": 0.26092599999999777
                },
                {
                    "name": "D4",
                    "midi": 62,
                    "time": 73.05927999999957,
                    "velocity": 0.30708661417322836,
                    "duration": 0.26092599999999777
                },
                {
                    "name": "F#4",
                    "midi": 66,
                    "time": 73.32020599999957,
                    "velocity": 0.4330708661417323,
                    "duration": 0.26092599999999777
                },
                {
                    "name": "F#4",
                    "midi": 66,
                    "time": 73.58113199999957,
                    "velocity": 0.48031496062992124,
                    "duration": 0.7827779999999933
                },
                {
                    "name": "G#3",
                    "midi": 56,
                    "time": 73.84205799999957,
                    "velocity": 0.25196850393700787,
                    "duration": 0.26092599999999777
                },
                {
                    "name": "B3",
                    "midi": 59,
                    "time": 73.84205799999957,
                    "velocity": 0.25196850393700787,
                    "duration": 0.26092599999999777
                },
                {
                    "name": "D4",
                    "midi": 62,
                    "time": 73.84205799999957,
                    "velocity": 0.31496062992125984,
                    "duration": 0.26092599999999777
                },
                {
                    "name": "G#3",
                    "midi": 56,
                    "time": 74.10298399999957,
                    "velocity": 0.25196850393700787,
                    "duration": 0.26092599999999777
                },
                {
                    "name": "B3",
                    "midi": 59,
                    "time": 74.10298399999957,
                    "velocity": 0.25196850393700787,
                    "duration": 0.26092599999999777
                },
                {
                    "name": "D4",
                    "midi": 62,
                    "time": 74.10298399999957,
                    "velocity": 0.3228346456692913,
                    "duration": 0.26092599999999777
                },
                {
                    "name": "F4",
                    "midi": 65,
                    "time": 74.36390999999956,
                    "velocity": 0.4251968503937008,
                    "duration": 0.7827779999999933
                },
                {
                    "name": "G#3",
                    "midi": 56,
                    "time": 74.62483599999956,
                    "velocity": 0.25984251968503935,
                    "duration": 0.26092599999999777
                },
                {
                    "name": "B3",
                    "midi": 59,
                    "time": 74.62483599999956,
                    "velocity": 0.25984251968503935,
                    "duration": 0.26092599999999777
                },
                {
                    "name": "D4",
                    "midi": 62,
                    "time": 74.62483599999956,
                    "velocity": 0.3228346456692913,
                    "duration": 0.26092599999999777
                },
                {
                    "name": "G#3",
                    "midi": 56,
                    "time": 74.88576199999956,
                    "velocity": 0.25984251968503935,
                    "duration": 0.26092599999999777
                },
                {
                    "name": "B3",
                    "midi": 59,
                    "time": 74.88576199999956,
                    "velocity": 0.25984251968503935,
                    "duration": 0.26092599999999777
                },
                {
                    "name": "D4",
                    "midi": 62,
                    "time": 74.88576199999956,
                    "velocity": 0.3228346456692913,
                    "duration": 0.26092599999999777
                },
                {
                    "name": "F#4",
                    "midi": 66,
                    "time": 75.14668799999956,
                    "velocity": 0.47244094488188976,
                    "duration": 0.7827779999999933
                },
                {
                    "name": "B3",
                    "midi": 59,
                    "time": 75.40761399999955,
                    "velocity": 0.25984251968503935,
                    "duration": 0.26092599999999777
                },
                {
                    "name": "D4",
                    "midi": 62,
                    "time": 75.40761399999955,
                    "velocity": 0.33070866141732286,
                    "duration": 0.26092599999999777
                },
                {
                    "name": "B3",
                    "midi": 59,
                    "time": 75.66853999999955,
                    "velocity": 0.25984251968503935,
                    "duration": 0.26092599999999777
                },
                {
                    "name": "D4",
                    "midi": 62,
                    "time": 75.66853999999955,
                    "velocity": 0.33070866141732286,
                    "duration": 0.26092599999999777
                },
                {
                    "name": "A4",
                    "midi": 69,
                    "time": 75.92946599999955,
                    "velocity": 0.5275590551181102,
                    "duration": 0.26092599999999777
                },
                {
                    "name": "B3",
                    "midi": 59,
                    "time": 76.19039199999955,
                    "velocity": 0.2677165354330709,
                    "duration": 0.26092599999999777
                },
                {
                    "name": "D4",
                    "midi": 62,
                    "time": 76.19039199999955,
                    "velocity": 0.33858267716535434,
                    "duration": 0.26092599999999777
                },
                {
                    "name": "F#4",
                    "midi": 66,
                    "time": 76.19039199999955,
                    "velocity": 0.49606299212598426,
                    "duration": 0.26092599999999777
                },
                {
                    "name": "G#4",
                    "midi": 68,
                    "time": 76.45131799999955,
                    "velocity": 0.5196850393700787,
                    "duration": 0.26092599999999777
                },
                {
                    "name": "F4",
                    "midi": 65,
                    "time": 76.71224399999954,
                    "velocity": 0.5118110236220472,
                    "duration": 1.5655559999999866
                },
                {
                    "name": "B3",
                    "midi": 59,
                    "time": 76.97316999999954,
                    "velocity": 0.30708661417322836,
                    "duration": 0.26092599999999777
                },
                {
                    "name": "D4",
                    "midi": 62,
                    "time": 76.97316999999954,
                    "velocity": 0.3779527559055118,
                    "duration": 0.26092599999999777
                },
                {
                    "name": "B3",
                    "midi": 59,
                    "time": 77.23409599999954,
                    "velocity": 0.30708661417322836,
                    "duration": 0.26092599999999777
                },
                {
                    "name": "D4",
                    "midi": 62,
                    "time": 77.23409599999954,
                    "velocity": 0.3779527559055118,
                    "duration": 0.26092599999999777
                },
                {
                    "name": "B3",
                    "midi": 59,
                    "time": 77.49502199999954,
                    "velocity": 0.30708661417322836,
                    "duration": 0.26092599999999777
                },
                {
                    "name": "D4",
                    "midi": 62,
                    "time": 77.49502199999954,
                    "velocity": 0.3858267716535433,
                    "duration": 0.26092599999999777
                },
                {
                    "name": "B3",
                    "midi": 59,
                    "time": 77.75594799999953,
                    "velocity": 0.30708661417322836,
                    "duration": 0.26092599999999777
                },
                {
                    "name": "D4",
                    "midi": 62,
                    "time": 77.75594799999953,
                    "velocity": 0.3858267716535433,
                    "duration": 0.26092599999999777
                },
                {
                    "name": "B3",
                    "midi": 59,
                    "time": 78.01687399999953,
                    "velocity": 0.30708661417322836,
                    "duration": 0.26092599999999777
                },
                {
                    "name": "D4",
                    "midi": 62,
                    "time": 78.01687399999953,
                    "velocity": 0.3858267716535433,
                    "duration": 0.26092599999999777
                },
                {
                    "name": "A4",
                    "midi": 69,
                    "time": 78.27779999999953,
                    "velocity": 0.5511811023622047,
                    "duration": 0.26092599999999777
                },
                {
                    "name": "B3",
                    "midi": 59,
                    "time": 78.53872599999953,
                    "velocity": 0.30708661417322836,
                    "duration": 0.26092599999999777
                },
                {
                    "name": "D4",
                    "midi": 62,
                    "time": 78.53872599999953,
                    "velocity": 0.3937007874015748,
                    "duration": 0.26092599999999777
                },
                {
                    "name": "F#4",
                    "midi": 66,
                    "time": 78.53872599999953,
                    "velocity": 0.5196850393700787,
                    "duration": 0.26092599999999777
                },
                {
                    "name": "G#4",
                    "midi": 68,
                    "time": 78.79965199999953,
                    "velocity": 0.5433070866141733,
                    "duration": 0.26092599999999777
                },
                {
                    "name": "F4",
                    "midi": 65,
                    "time": 79.06057799999952,
                    "velocity": 0.49606299212598426,
                    "duration": 0.7827779999999933
                },
                {
                    "name": "B3",
                    "midi": 59,
                    "time": 79.32150399999952,
                    "velocity": 0.31496062992125984,
                    "duration": 0.26092599999999777
                },
                {
                    "name": "D4",
                    "midi": 62,
                    "time": 79.32150399999952,
                    "velocity": 0.3937007874015748,
                    "duration": 0.26092599999999777
                },
                {
                    "name": "B3",
                    "midi": 59,
                    "time": 79.58242999999952,
                    "velocity": 0.31496062992125984,
                    "duration": 0.26092599999999777
                },
                {
                    "name": "D4",
                    "midi": 62,
                    "time": 79.58242999999952,
                    "velocity": 0.4015748031496063,
                    "duration": 0.26092599999999777
                },
                {
                    "name": "A4",
                    "midi": 69,
                    "time": 79.84335599999952,
                    "velocity": 0.5590551181102362,
                    "duration": 0.26092599999999777
                },
                {
                    "name": "B3",
                    "midi": 59,
                    "time": 80.10428199999951,
                    "velocity": 0.30708661417322836,
                    "duration": 0.26092599999999777
                },
                {
                    "name": "D4",
                    "midi": 62,
                    "time": 80.10428199999951,
                    "velocity": 0.4015748031496063,
                    "duration": 0.26092599999999777
                },
                {
                    "name": "F#4",
                    "midi": 66,
                    "time": 80.10428199999951,
                    "velocity": 0.5275590551181102,
                    "duration": 0.26092599999999777
                },
                {
                    "name": "G#4",
                    "midi": 68,
                    "time": 80.36520799999951,
                    "velocity": 0.5590551181102362,
                    "duration": 0.26092599999999777
                },
                {
                    "name": "F4",
                    "midi": 65,
                    "time": 80.62613399999951,
                    "velocity": 0.5039370078740157,
                    "duration": 0.7827779999999933
                },
                {
                    "name": "B3",
                    "midi": 59,
                    "time": 80.88705999999951,
                    "velocity": 0.3228346456692913,
                    "duration": 0.26092599999999777
                },
                {
                    "name": "D4",
                    "midi": 62,
                    "time": 80.88705999999951,
                    "velocity": 0.4094488188976378,
                    "duration": 0.26092599999999777
                },
                {
                    "name": "B3",
                    "midi": 59,
                    "time": 81.1479859999995,
                    "velocity": 0.3228346456692913,
                    "duration": 0.26092599999999777
                },
                {
                    "name": "D4",
                    "midi": 62,
                    "time": 81.1479859999995,
                    "velocity": 0.4094488188976378,
                    "duration": 0.26092599999999777
                },
                {
                    "name": "C#5",
                    "midi": 73,
                    "time": 81.4089119999995,
                    "velocity": 0.6299212598425197,
                    "duration": 0.26092599999999777
                },
                {
                    "name": "D4",
                    "midi": 62,
                    "time": 81.6698379999995,
                    "velocity": 0.3464566929133858,
                    "duration": 0.26092599999999777
                },
                {
                    "name": "F4",
                    "midi": 65,
                    "time": 81.6698379999995,
                    "velocity": 0.44881889763779526,
                    "duration": 0.26092599999999777
                },
                {
                    "name": "A4",
                    "midi": 69,
                    "time": 81.6698379999995,
                    "velocity": 0.5905511811023622,
                    "duration": 0.26092599999999777
                },
                {
                    "name": "B4",
                    "midi": 71,
                    "time": 81.9307639999995,
                    "velocity": 0.5984251968503937,
                    "duration": 0.26092599999999777
                },
                {
                    "name": "G#4",
                    "midi": 68,
                    "time": 82.1916899999995,
                    "velocity": 0.5748031496062992,
                    "duration": 0.7827779999999933
                },
                {
                    "name": "D4",
                    "midi": 62,
                    "time": 82.4526159999995,
                    "velocity": 0.36220472440944884,
                    "duration": 0.26092599999999777
                },
                {
                    "name": "F4",
                    "midi": 65,
                    "time": 82.4526159999995,
                    "velocity": 0.4566929133858268,
                    "duration": 0.26092599999999777
                },
                {
                    "name": "D4",
                    "midi": 62,
                    "time": 82.71354199999949,
                    "velocity": 0.3700787401574803,
                    "duration": 0.26092599999999777
                },
                {
                    "name": "F4",
                    "midi": 65,
                    "time": 82.71354199999949,
                    "velocity": 0.4566929133858268,
                    "duration": 0.26092599999999777
                },
                {
                    "name": "C#5",
                    "midi": 73,
                    "time": 82.97446799999949,
                    "velocity": 0.6456692913385826,
                    "duration": 0.26092599999999777
                },
                {
                    "name": "D4",
                    "midi": 62,
                    "time": 83.23539399999949,
                    "velocity": 0.3464566929133858,
                    "duration": 0.26092599999999777
                },
                {
                    "name": "F4",
                    "midi": 65,
                    "time": 83.23539399999949,
                    "velocity": 0.4566929133858268,
                    "duration": 0.26092599999999777
                },
                {
                    "name": "A4",
                    "midi": 69,
                    "time": 83.23539399999949,
                    "velocity": 0.6062992125984252,
                    "duration": 0.26092599999999777
                },
                {
                    "name": "B4",
                    "midi": 71,
                    "time": 83.49631999999949,
                    "velocity": 0.6141732283464567,
                    "duration": 0.26092599999999777
                },
                {
                    "name": "G#4",
                    "midi": 68,
                    "time": 83.75724599999948,
                    "velocity": 0.5826771653543307,
                    "duration": 0.7827779999999933
                },
                {
                    "name": "D4",
                    "midi": 62,
                    "time": 84.01817199999948,
                    "velocity": 0.3700787401574803,
                    "duration": 0.26092599999999777
                },
                {
                    "name": "F4",
                    "midi": 65,
                    "time": 84.01817199999948,
                    "velocity": 0.4645669291338583,
                    "duration": 0.26092599999999777
                },
                {
                    "name": "D4",
                    "midi": 62,
                    "time": 84.27909799999948,
                    "velocity": 0.3700787401574803,
                    "duration": 0.26092599999999777
                },
                {
                    "name": "F4",
                    "midi": 65,
                    "time": 84.27909799999948,
                    "velocity": 0.4645669291338583,
                    "duration": 0.26092599999999777
                },
                {
                    "name": "E5",
                    "midi": 76,
                    "time": 84.54002399999948,
                    "velocity": 0.6299212598425197,
                    "duration": 0.26092599999999777
                },
                {
                    "name": "F4",
                    "midi": 65,
                    "time": 84.80094999999947,
                    "velocity": 0.3700787401574803,
                    "duration": 0.26092599999999777
                },
                {
                    "name": "G#4",
                    "midi": 68,
                    "time": 84.80094999999947,
                    "velocity": 0.3700787401574803,
                    "duration": 0.26092599999999777
                },
                {
                    "name": "C#5",
                    "midi": 73,
                    "time": 84.80094999999947,
                    "velocity": 0.47244094488188976,
                    "duration": 0.26092599999999777
                },
                {
                    "name": "D5",
                    "midi": 74,
                    "time": 85.06187599999947,
                    "velocity": 0.6377952755905512,
                    "duration": 0.26092599999999777
                },
                {
                    "name": "F4",
                    "midi": 65,
                    "time": 85.32280199999947,
                    "velocity": 0.4094488188976378,
                    "duration": 0.26092599999999777
                },
                {
                    "name": "G#4",
                    "midi": 68,
                    "time": 85.32280199999947,
                    "velocity": 0.4094488188976378,
                    "duration": 0.26092599999999777
                },
                {
                    "name": "B4",
                    "midi": 71,
                    "time": 85.32280199999947,
                    "velocity": 0.5196850393700787,
                    "duration": 0.26092599999999777
                },
                {
                    "name": "E5",
                    "midi": 76,
                    "time": 85.58372799999947,
                    "velocity": 0.6771653543307087,
                    "duration": 0.26092599999999777
                },
                {
                    "name": "F4",
                    "midi": 65,
                    "time": 85.84465399999947,
                    "velocity": 0.4251968503937008,
                    "duration": 0.26092599999999777
                },
                {
                    "name": "G#4",
                    "midi": 68,
                    "time": 85.84465399999947,
                    "velocity": 0.4251968503937008,
                    "duration": 0.26092599999999777
                },
                {
                    "name": "C#5",
                    "midi": 73,
                    "time": 85.84465399999947,
                    "velocity": 0.5433070866141733,
                    "duration": 0.26092599999999777
                },
                {
                    "name": "D5",
                    "midi": 74,
                    "time": 86.10557999999946,
                    "velocity": 0.7401574803149606,
                    "duration": 0.26092599999999777
                },
                {
                    "name": "F4",
                    "midi": 65,
                    "time": 86.36650599999946,
                    "velocity": 0.44881889763779526,
                    "duration": 0.26092599999999777
                },
                {
                    "name": "G#4",
                    "midi": 68,
                    "time": 86.36650599999946,
                    "velocity": 0.44881889763779526,
                    "duration": 0.26092599999999777
                },
                {
                    "name": "B4",
                    "midi": 71,
                    "time": 86.36650599999946,
                    "velocity": 0.5669291338582677,
                    "duration": 0.26092599999999777
                },
                {
                    "name": "E5",
                    "midi": 76,
                    "time": 86.62743199999946,
                    "velocity": 0.7716535433070866,
                    "duration": 0.26092599999999777
                },
                {
                    "name": "F4",
                    "midi": 65,
                    "time": 86.88835799999946,
                    "velocity": 0.48031496062992124,
                    "duration": 0.26092599999999777
                },
                {
                    "name": "G#4",
                    "midi": 68,
                    "time": 86.88835799999946,
                    "velocity": 0.48031496062992124,
                    "duration": 0.26092599999999777
                },
                {
                    "name": "C#5",
                    "midi": 73,
                    "time": 86.88835799999946,
                    "velocity": 0.6062992125984252,
                    "duration": 0.26092599999999777
                },
                {
                    "name": "D5",
                    "midi": 74,
                    "time": 87.14928399999945,
                    "velocity": 0.8110236220472441,
                    "duration": 0.26092599999999777
                },
                {
                    "name": "F4",
                    "midi": 65,
                    "time": 87.41020999999945,
                    "velocity": 0.49606299212598426,
                    "duration": 0.26092599999999777
                },
                {
                    "name": "G#4",
                    "midi": 68,
                    "time": 87.41020999999945,
                    "velocity": 0.49606299212598426,
                    "duration": 0.26092599999999777
                },
                {
                    "name": "B4",
                    "midi": 71,
                    "time": 87.41020999999945,
                    "velocity": 0.6299212598425197,
                    "duration": 0.26092599999999777
                },
                {
                    "name": "F4",
                    "midi": 65,
                    "time": 87.67113599999945,
                    "velocity": 0.6929133858267716,
                    "duration": 2.609260000000006
                },
                {
                    "name": "F5",
                    "midi": 77,
                    "time": 87.67113599999945,
                    "velocity": 0.7952755905511811,
                    "duration": 2.609260000000006
                },
                {
                    "name": "F4",
                    "midi": 65,
                    "time": 90.67178499999946,
                    "velocity": 0.6929133858267716,
                    "duration": 0.130463000000006
                },
                {
                    "name": "F5",
                    "midi": 77,
                    "time": 90.67178499999946,
                    "velocity": 0.7952755905511811,
                    "duration": 0.130463000000006
                },
                {
                    "name": "F#4",
                    "midi": 66,
                    "time": 90.81692508749947,
                    "velocity": 0.6929133858267716,
                    "duration": 2.609260000000006
                },
                {
                    "name": "F#5",
                    "midi": 78,
                    "time": 90.81692508749947,
                    "velocity": 0.7952755905511811,
                    "duration": 2.609260000000006
                },
                {
                    "name": "F#4",
                    "midi": 66,
                    "time": 93.80289699999948,
                    "velocity": 0.6929133858267716,
                    "duration": 0.130463000000006
                },
                {
                    "name": "F#5",
                    "midi": 78,
                    "time": 93.80289699999948,
                    "velocity": 0.7952755905511811,
                    "duration": 0.130463000000006
                },
                {
                    "name": "A4",
                    "midi": 69,
                    "time": 93.93335999999948,
                    "velocity": 0.6929133858267716,
                    "duration": 2.609260000000006
                },
                {
                    "name": "A5",
                    "midi": 81,
                    "time": 93.93335999999948,
                    "velocity": 0.7952755905511811,
                    "duration": 2.609260000000006
                },
                {
                    "name": "A4",
                    "midi": 69,
                    "time": 96.93400899999949,
                    "velocity": 0.6929133858267716,
                    "duration": 0.130463000000006
                },
                {
                    "name": "A5",
                    "midi": 81,
                    "time": 96.93400899999949,
                    "velocity": 0.7952755905511811,
                    "duration": 0.130463000000006
                },
                {
                    "name": "B4",
                    "midi": 71,
                    "time": 97.0644719999995,
                    "velocity": 0.7244094488188977,
                    "duration": 1.5655560000000008
                },
                {
                    "name": "B5",
                    "midi": 83,
                    "time": 97.0644719999995,
                    "velocity": 0.8267716535433071,
                    "duration": 1.5655560000000008
                },
                {
                    "name": "C5",
                    "midi": 72,
                    "time": 98.6300279999995,
                    "velocity": 0.7480314960629921,
                    "duration": 1.304630000000003
                },
                {
                    "name": "C6",
                    "midi": 84,
                    "time": 98.6300279999995,
                    "velocity": 0.8582677165354331,
                    "duration": 1.304630000000003
                },
                {
                    "name": "C#6",
                    "midi": 85,
                    "time": 99.9346579999995,
                    "velocity": 0.7716535433070866,
                    "duration": 0.19569450000000188
                },
                {
                    "name": "C#5",
                    "midi": 73,
                    "time": 99.9346579999995,
                    "velocity": 0.6299212598425197,
                    "duration": 0.19569450000000188
                },
                {
                    "name": "C#5",
                    "midi": 73,
                    "time": 100.1303524999995,
                    "velocity": 0.3937007874015748,
                    "duration": 1.304630000000003
                },
                {
                    "name": "C#6",
                    "midi": 85,
                    "time": 100.1955839999995,
                    "velocity": 0.44881889763779526,
                    "duration": 1.2393985000000072
                },
                {
                    "name": "D#5",
                    "midi": 75,
                    "time": 101.4349824999995,
                    "velocity": 0.3858267716535433,
                    "duration": 0.32615749999999366
                },
                {
                    "name": "D#6",
                    "midi": 87,
                    "time": 101.5002139999995,
                    "velocity": 0.4645669291338583,
                    "duration": 0.26092599999999777
                },
                {
                    "name": "D#6",
                    "midi": 87,
                    "time": 101.7611399999995,
                    "velocity": 0.5118110236220472,
                    "duration": 0.7827779999999933
                },
                {
                    "name": "D#5",
                    "midi": 75,
                    "time": 101.7611399999995,
                    "velocity": 0.4251968503937008,
                    "duration": 0.7827779999999933
                },
                {
                    "name": "C#6",
                    "midi": 85,
                    "time": 102.5439179999995,
                    "velocity": 0.44881889763779526,
                    "duration": 0.5218519999999955
                },
                {
                    "name": "C#5",
                    "midi": 73,
                    "time": 102.5439179999995,
                    "velocity": 0.3937007874015748,
                    "duration": 0.5218519999999955
                },
                {
                    "name": "A#5",
                    "midi": 82,
                    "time": 103.06576999999949,
                    "velocity": 0.4330708661417323,
                    "duration": 0.19569450000000188
                },
                {
                    "name": "A#4",
                    "midi": 70,
                    "time": 103.06576999999949,
                    "velocity": 0.36220472440944884,
                    "duration": 0.19569450000000188
                },
                {
                    "name": "F#4",
                    "midi": 66,
                    "time": 103.26146449999949,
                    "velocity": 0.4251968503937008,
                    "duration": 0.8480094999999892
                },
                {
                    "name": "F#5",
                    "midi": 78,
                    "time": 103.32669599999949,
                    "velocity": 0.48031496062992124,
                    "duration": 0.7827779999999933
                },
                {
                    "name": "G#5",
                    "midi": 80,
                    "time": 104.10947399999948,
                    "velocity": 0.44881889763779526,
                    "duration": 0.7175464999999974
                },
                {
                    "name": "G#4",
                    "midi": 68,
                    "time": 104.10947399999948,
                    "velocity": 0.3937007874015748,
                    "duration": 0.7175464999999974
                },
                {
                    "name": "A#4",
                    "midi": 70,
                    "time": 104.82702049999948,
                    "velocity": 0.4251968503937008,
                    "duration": 1.5655560000000008
                },
                {
                    "name": "A#5",
                    "midi": 82,
                    "time": 104.89225199999947,
                    "velocity": 0.4881889763779528,
                    "duration": 1.500324500000005
                },
                {
                    "name": "C#5",
                    "midi": 73,
                    "time": 106.39257649999948,
                    "velocity": 0.4330708661417323,
                    "duration": 0.8480094999999892
                },
                {
                    "name": "C#6",
                    "midi": 85,
                    "time": 106.45780799999947,
                    "velocity": 0.49606299212598426,
                    "duration": 0.7827779999999933
                },
                {
                    "name": "F6",
                    "midi": 89,
                    "time": 107.24058599999947,
                    "velocity": 0.5118110236220472,
                    "duration": 0.26092599999999777
                },
                {
                    "name": "F5",
                    "midi": 77,
                    "time": 107.24058599999947,
                    "velocity": 0.44881889763779526,
                    "duration": 0.26092599999999777
                },
                {
                    "name": "D#6",
                    "midi": 87,
                    "time": 107.50151199999947,
                    "velocity": 0.5039370078740157,
                    "duration": 0.26092599999999777
                },
                {
                    "name": "D#5",
                    "midi": 75,
                    "time": 107.50151199999947,
                    "velocity": 0.4409448818897638,
                    "duration": 0.26092599999999777
                },
                {
                    "name": "C#6",
                    "midi": 85,
                    "time": 107.76243799999946,
                    "velocity": 0.5039370078740157,
                    "duration": 0.19569450000000188
                },
                {
                    "name": "C#5",
                    "midi": 73,
                    "time": 107.76243799999946,
                    "velocity": 0.4409448818897638,
                    "duration": 0.19569450000000188
                },
                {
                    "name": "D#5",
                    "midi": 75,
                    "time": 107.95813249999946,
                    "velocity": 0.49606299212598426,
                    "duration": 0.5870834999999914
                },
                {
                    "name": "D#6",
                    "midi": 87,
                    "time": 108.02336399999946,
                    "velocity": 0.5669291338582677,
                    "duration": 0.5218519999999955
                },
                {
                    "name": "C#6",
                    "midi": 85,
                    "time": 108.54521599999946,
                    "velocity": 0.5039370078740157,
                    "duration": 0.26092599999999777
                },
                {
                    "name": "C#5",
                    "midi": 73,
                    "time": 108.54521599999946,
                    "velocity": 0.4566929133858268,
                    "duration": 0.26092599999999777
                },
                {
                    "name": "A#5",
                    "midi": 82,
                    "time": 108.80614199999945,
                    "velocity": 0.5275590551181102,
                    "duration": 0.5218519999999955
                },
                {
                    "name": "A#4",
                    "midi": 70,
                    "time": 108.80614199999945,
                    "velocity": 0.4645669291338583,
                    "duration": 0.5218519999999955
                },
                {
                    "name": "F#5",
                    "midi": 78,
                    "time": 109.32799399999945,
                    "velocity": 0.49606299212598426,
                    "duration": 0.19569450000000188
                },
                {
                    "name": "F#4",
                    "midi": 66,
                    "time": 109.32799399999945,
                    "velocity": 0.4330708661417323,
                    "duration": 0.19569450000000188
                },
                {
                    "name": "F#4",
                    "midi": 66,
                    "time": 109.52368849999945,
                    "velocity": 0.47244094488188976,
                    "duration": 0.8480094999999892
                },
                {
                    "name": "F#5",
                    "midi": 78,
                    "time": 109.58891999999945,
                    "velocity": 0.5354330708661418,
                    "duration": 0.7827779999999933
                },
                {
                    "name": "A#5",
                    "midi": 82,
                    "time": 110.37169799999944,
                    "velocity": 0.5354330708661418,
                    "duration": 0.26092599999999777
                },
                {
                    "name": "A#4",
                    "midi": 70,
                    "time": 110.37169799999944,
                    "velocity": 0.47244094488188976,
                    "duration": 0.26092599999999777
                },
                {
                    "name": "G#5",
                    "midi": 80,
                    "time": 110.63262399999944,
                    "velocity": 0.48031496062992124,
                    "duration": 0.26092599999999777
                },
                {
                    "name": "G#4",
                    "midi": 68,
                    "time": 110.63262399999944,
                    "velocity": 0.4251968503937008,
                    "duration": 0.26092599999999777
                },
                {
                    "name": "F#5",
                    "midi": 78,
                    "time": 110.89354999999944,
                    "velocity": 0.48031496062992124,
                    "duration": 0.19569450000000188
                },
                {
                    "name": "F#4",
                    "midi": 66,
                    "time": 110.89354999999944,
                    "velocity": 0.4251968503937008,
                    "duration": 0.19569450000000188
                },
                {
                    "name": "A#4",
                    "midi": 70,
                    "time": 111.08924449999944,
                    "velocity": 0.47244094488188976,
                    "duration": 1.5655560000000008
                },
                {
                    "name": "A#5",
                    "midi": 82,
                    "time": 111.15447599999943,
                    "velocity": 0.5354330708661418,
                    "duration": 1.500324500000005
                },
                {
                    "name": "A#4",
                    "midi": 70,
                    "time": 112.65480049999944,
                    "velocity": 0.47244094488188976,
                    "duration": 1.369861499999999
                },
                {
                    "name": "A#5",
                    "midi": 82,
                    "time": 112.72003199999943,
                    "velocity": 0.5354330708661418,
                    "duration": 1.304630000000003
                },
                {
                    "name": "A#5",
                    "midi": 82,
                    "time": 114.02466199999944,
                    "velocity": 0.5669291338582677,
                    "duration": 0.19569450000000188
                },
                {
                    "name": "A#4",
                    "midi": 70,
                    "time": 114.02466199999944,
                    "velocity": 0.49606299212598426,
                    "duration": 0.19569450000000188
                },
                {
                    "name": "A#4",
                    "midi": 70,
                    "time": 114.22035649999944,
                    "velocity": 0.5275590551181102,
                    "duration": 0.8480094999999892
                },
                {
                    "name": "A#5",
                    "midi": 82,
                    "time": 114.28558799999944,
                    "velocity": 0.6062992125984252,
                    "duration": 0.7827779999999933
                },
                {
                    "name": "D#5",
                    "midi": 75,
                    "time": 115.06836599999943,
                    "velocity": 0.5669291338582677,
                    "duration": 0.7175464999999974
                },
                {
                    "name": "D#4",
                    "midi": 63,
                    "time": 115.06836599999943,
                    "velocity": 0.47244094488188976,
                    "duration": 0.7175464999999974
                },
                {
                    "name": "A#4",
                    "midi": 70,
                    "time": 115.78591249999943,
                    "velocity": 0.5669291338582677,
                    "duration": 1.1089355000000012
                },
                {
                    "name": "A#5",
                    "midi": 82,
                    "time": 115.85114399999942,
                    "velocity": 0.6456692913385826,
                    "duration": 1.0437040000000053
                },
                {
                    "name": "B5",
                    "midi": 83,
                    "time": 116.89484799999943,
                    "velocity": 0.5984251968503937,
                    "duration": 0.26092599999999777
                },
                {
                    "name": "B4",
                    "midi": 71,
                    "time": 116.89484799999943,
                    "velocity": 0.5275590551181102,
                    "duration": 0.26092599999999777
                },
                {
                    "name": "C#6",
                    "midi": 85,
                    "time": 117.15577399999943,
                    "velocity": 0.5984251968503937,
                    "duration": 0.19569450000000188
                },
                {
                    "name": "C#5",
                    "midi": 73,
                    "time": 117.15577399999943,
                    "velocity": 0.5118110236220472,
                    "duration": 0.19569450000000188
                },
                {
                    "name": "A#4",
                    "midi": 70,
                    "time": 117.35146849999943,
                    "velocity": 0.5905511811023622,
                    "duration": 1.5655560000000008
                },
                {
                    "name": "A#5",
                    "midi": 82,
                    "time": 117.41669999999942,
                    "velocity": 0.6771653543307087,
                    "duration": 1.500324500000005
                },
                {
                    "name": "D#5",
                    "midi": 75,
                    "time": 118.91702449999943,
                    "velocity": 0.6771653543307087,
                    "duration": 0.8480094999999892
                },
                {
                    "name": "D#6",
                    "midi": 87,
                    "time": 118.98225599999942,
                    "velocity": 0.8031496062992126,
                    "duration": 1.3046299999999889
                },
                {
                    "name": "D6",
                    "midi": 86,
                    "time": 120.28688599999941,
                    "velocity": 0.6456692913385826,
                    "duration": 0.19569450000000188
                },
                {
                    "name": "D5",
                    "midi": 74,
                    "time": 120.28688599999941,
                    "velocity": 0.5511811023622047,
                    "duration": 0.19569450000000188
                },
                {
                    "name": "D5",
                    "midi": 74,
                    "time": 120.48258049999941,
                    "velocity": 0.6141732283464567,
                    "duration": 0.8480094999999892
                },
                {
                    "name": "D6",
                    "midi": 86,
                    "time": 120.54781199999941,
                    "velocity": 0.7480314960629921,
                    "duration": 0.7827779999999933
                },
                {
                    "name": "C#6",
                    "midi": 85,
                    "time": 121.3305899999994,
                    "velocity": 0.6456692913385826,
                    "duration": 0.7175464999999974
                },
                {
                    "name": "C#5",
                    "midi": 73,
                    "time": 121.3305899999994,
                    "velocity": 0.5511811023622047,
                    "duration": 0.7175464999999974
                },
                {
                    "name": "C#5",
                    "midi": 73,
                    "time": 122.0481364999994,
                    "velocity": 0.5984251968503937,
                    "duration": 0.7827779999999933
                },
                {
                    "name": "C#6",
                    "midi": 85,
                    "time": 122.1133679999994,
                    "velocity": 0.6929133858267716,
                    "duration": 0.7175464999999974
                },
                {
                    "name": "D#5",
                    "midi": 75,
                    "time": 122.8309144999994,
                    "velocity": 0.5826771653543307,
                    "duration": 0.5870834999999914
                },
                {
                    "name": "D#6",
                    "midi": 87,
                    "time": 122.89614599999939,
                    "velocity": 0.6692913385826772,
                    "duration": 0.5218519999999955
                },
                {
                    "name": "F6",
                    "midi": 89,
                    "time": 123.41799799999939,
                    "velocity": 0.6771653543307087,
                    "duration": 0.19569450000000188
                },
                {
                    "name": "F5",
                    "midi": 77,
                    "time": 123.41799799999939,
                    "velocity": 0.5748031496062992,
                    "duration": 0.19569450000000188
                },
                {
                    "name": "C#5",
                    "midi": 73,
                    "time": 123.61369249999939,
                    "velocity": 0.6535433070866141,
                    "duration": 0.8480094999999892
                },
                {
                    "name": "C#6",
                    "midi": 85,
                    "time": 123.67892399999938,
                    "velocity": 0.7401574803149606,
                    "duration": 0.7827779999999933
                },
                {
                    "name": "A#6",
                    "midi": 94,
                    "time": 124.46170199999938,
                    "velocity": 0.7637795275590551,
                    "duration": 0.26092599999999777
                },
                {
                    "name": "A#5",
                    "midi": 82,
                    "time": 124.46170199999938,
                    "velocity": 0.6456692913385826,
                    "duration": 0.26092599999999777
                },
                {
                    "name": "F#6",
                    "midi": 90,
                    "time": 124.72262799999937,
                    "velocity": 0.7007874015748031,
                    "duration": 0.26092599999999777
                },
                {
                    "name": "F#5",
                    "midi": 78,
                    "time": 124.72262799999937,
                    "velocity": 0.5905511811023622,
                    "duration": 0.26092599999999777
                },
                {
                    "name": "F6",
                    "midi": 89,
                    "time": 124.98355399999937,
                    "velocity": 0.6850393700787402,
                    "duration": 0.19569450000000188
                },
                {
                    "name": "F5",
                    "midi": 77,
                    "time": 124.98355399999937,
                    "velocity": 0.5748031496062992,
                    "duration": 0.19569450000000188
                },
                {
                    "name": "E5",
                    "midi": 76,
                    "time": 125.17924849999937,
                    "velocity": 0.7086614173228346,
                    "duration": 1.1089355000000012
                },
                {
                    "name": "E6",
                    "midi": 88,
                    "time": 125.24447999999937,
                    "velocity": 0.7716535433070866,
                    "duration": 1.0437040000000053
                },
                {
                    "name": "D#5",
                    "midi": 75,
                    "time": 126.28818399999938,
                    "velocity": 0.5669291338582677,
                    "duration": 0.26092599999999777
                },
                {
                    "name": "D#6",
                    "midi": 87,
                    "time": 126.28818399999938,
                    "velocity": 0.6692913385826772,
                    "duration": 0.26092599999999777
                },
                {
                    "name": "D5",
                    "midi": 74,
                    "time": 126.54910999999937,
                    "velocity": 0.5590551181102362,
                    "duration": 0.19025854166666534
                },
                {
                    "name": "D6",
                    "midi": 86,
                    "time": 126.54910999999937,
                    "velocity": 0.6614173228346457,
                    "duration": 0.26092599999999777
                },
                {
                    "name": "D5",
                    "midi": 74,
                    "time": 126.74480449999938,
                    "velocity": 0.6456692913385826,
                    "duration": 0.8480094999999892
                },
                {
                    "name": "D6",
                    "midi": 86,
                    "time": 126.81003599999937,
                    "velocity": 0.7637795275590551,
                    "duration": 0.7827779999999933
                },
                {
                    "name": "C#5",
                    "midi": 73,
                    "time": 127.59281399999936,
                    "velocity": 0.5748031496062992,
                    "duration": 0.5218520000000098
                },
                {
                    "name": "C#6",
                    "midi": 85,
                    "time": 127.59281399999936,
                    "velocity": 0.6771653543307087,
                    "duration": 0.5218520000000098
                },
                {
                    "name": "D6",
                    "midi": 86,
                    "time": 128.11466599999937,
                    "velocity": 0.6535433070866141,
                    "duration": 0.19569450000000188
                },
                {
                    "name": "D5",
                    "midi": 74,
                    "time": 128.11466599999937,
                    "velocity": 0.5511811023622047,
                    "duration": 0.19569450000000188
                },
                {
                    "name": "D#5",
                    "midi": 75,
                    "time": 128.31036049999938,
                    "velocity": 0.6614173228346457,
                    "duration": 0.8480095000000176
                },
                {
                    "name": "D#6",
                    "midi": 87,
                    "time": 128.3755919999994,
                    "velocity": 0.7795275590551181,
                    "duration": 0.7827780000000075
                },
                {
                    "name": "F#6",
                    "midi": 90,
                    "time": 129.1583699999994,
                    "velocity": 0.7716535433070866,
                    "duration": 0.260926000000012
                },
                {
                    "name": "F#5",
                    "midi": 78,
                    "time": 129.1583699999994,
                    "velocity": 0.6535433070866141,
                    "duration": 0.260926000000012
                },
                {
                    "name": "F6",
                    "midi": 89,
                    "time": 129.4192959999994,
                    "velocity": 0.6850393700787402,
                    "duration": 0.260926000000012
                },
                {
                    "name": "F5",
                    "midi": 77,
                    "time": 129.4192959999994,
                    "velocity": 0.5748031496062992,
                    "duration": 0.260926000000012
                },
                {
                    "name": "D#6",
                    "midi": 87,
                    "time": 129.68022199999942,
                    "velocity": 0.6535433070866141,
                    "duration": 0.19569450000000188
                },
                {
                    "name": "D#5",
                    "midi": 75,
                    "time": 129.68022199999942,
                    "velocity": 0.5511811023622047,
                    "duration": 0.19569450000000188
                },
                {
                    "name": "F#5",
                    "midi": 78,
                    "time": 129.87591649999942,
                    "velocity": 0.47244094488188976,
                    "duration": 1.565556000000015
                },
                {
                    "name": "F#6",
                    "midi": 90,
                    "time": 129.94114799999943,
                    "velocity": 0.5275590551181102,
                    "duration": 1.500324500000005
                },
                {
                    "name": "G5",
                    "midi": 79,
                    "time": 131.44147249999943,
                    "velocity": 0.4566929133858268,
                    "duration": 1.565556000000015
                },
                {
                    "name": "G6",
                    "midi": 91,
                    "time": 131.50670399999944,
                    "velocity": 0.5196850393700787,
                    "duration": 1.500324500000005
                },
                {
                    "name": "G#5",
                    "midi": 80,
                    "time": 133.00702849999945,
                    "velocity": 0.4251968503937008,
                    "duration": 1.565556000000015
                },
                {
                    "name": "G#6",
                    "midi": 92,
                    "time": 133.07225999999946,
                    "velocity": 0.47244094488188976,
                    "duration": 1.500324500000005
                },
                {
                    "name": "A5",
                    "midi": 81,
                    "time": 134.57258449999946,
                    "velocity": 0.3858267716535433,
                    "duration": 1.565556000000015
                },
                {
                    "name": "A6",
                    "midi": 93,
                    "time": 134.63781599999948,
                    "velocity": 0.4409448818897638,
                    "duration": 1.500324500000005
                },
                {
                    "name": "A#5",
                    "midi": 82,
                    "time": 136.13814049999948,
                    "velocity": 0.3543307086614173,
                    "duration": 2.4135655000000042
                },
                {
                    "name": "A#6",
                    "midi": 94,
                    "time": 136.2033719999995,
                    "velocity": 0.3700787401574803,
                    "duration": 2.348333999999994
                },
                {
                    "name": "D#4",
                    "midi": 63,
                    "time": 140.8348084999995,
                    "velocity": 0.25984251968503935,
                    "duration": 0.8480094999999608
                },
                {
                    "name": "F#4",
                    "midi": 66,
                    "time": 140.8674242499995,
                    "velocity": 0.28346456692913385,
                    "duration": 1.5981717499999775
                },
                {
                    "name": "A4",
                    "midi": 69,
                    "time": 140.90003999999948,
                    "velocity": 0.30708661417322836,
                    "duration": 1.5655559999999866
                },
                {
                    "name": "F#5",
                    "midi": 78,
                    "time": 140.93265574999947,
                    "velocity": 0.3464566929133858,
                    "duration": 1.5329402499999958
                },
                {
                    "name": "D4",
                    "midi": 62,
                    "time": 141.68281799999946,
                    "velocity": 0.25984251968503935,
                    "duration": 0.7827780000000075
                },
                {
                    "name": "F#4",
                    "midi": 66,
                    "time": 144.03115199999945,
                    "velocity": 0.28346456692913385,
                    "duration": 1.5655559999999866
                }
            ],
            "controlChanges": {},
            "id": 1,
            "name": "Piano right",
            "instrumentNumber": 0,
            "instrument": "acoustic grand piano",
            "instrumentFamily": "piano",
            "channelNumber": 0,
            "isPercussion": false
        },
        {
            "startTime": 3.131112,
            "duration": 145.59670799999992,
            "length": 532,
            "notes": [
                {
                    "name": "C#5",
                    "midi": 73,
                    "time": 3.131112,
                    "velocity": 0.2755905511811024,
                    "duration": 1.1741669999999997
                },
                {
                    "name": "D#5",
                    "midi": 75,
                    "time": 4.305279,
                    "velocity": 0.2677165354330709,
                    "duration": 0.3913890000000002
                },
                {
                    "name": "D#5",
                    "midi": 75,
                    "time": 4.696668,
                    "velocity": 0.2992125984251969,
                    "duration": 0.7827779999999995
                },
                {
                    "name": "C#5",
                    "midi": 73,
                    "time": 5.479445999999999,
                    "velocity": 0.2755905511811024,
                    "duration": 0.3913890000000002
                },
                {
                    "name": "A#4",
                    "midi": 70,
                    "time": 5.870835,
                    "velocity": 0.25984251968503935,
                    "duration": 0.3913890000000002
                },
                {
                    "name": "F#4",
                    "midi": 66,
                    "time": 6.262224,
                    "velocity": 0.29133858267716534,
                    "duration": 0.7827780000000004
                },
                {
                    "name": "G#4",
                    "midi": 68,
                    "time": 7.045002,
                    "velocity": 0.2755905511811024,
                    "duration": 0.7827780000000004
                },
                {
                    "name": "A#4",
                    "midi": 70,
                    "time": 7.827780000000001,
                    "velocity": 0.2992125984251969,
                    "duration": 1.5655560000000008
                },
                {
                    "name": "C#5",
                    "midi": 73,
                    "time": 9.393336000000001,
                    "velocity": 0.30708661417322836,
                    "duration": 0.7827780000000004
                },
                {
                    "name": "F5",
                    "midi": 77,
                    "time": 10.176114000000002,
                    "velocity": 0.3228346456692913,
                    "duration": 0.26092599999999955
                },
                {
                    "name": "D#5",
                    "midi": 75,
                    "time": 10.437040000000001,
                    "velocity": 0.30708661417322836,
                    "duration": 0.26092599999999955
                },
                {
                    "name": "C#5",
                    "midi": 73,
                    "time": 10.697966000000001,
                    "velocity": 0.30708661417322836,
                    "duration": 0.26092599999999955
                },
                {
                    "name": "D#5",
                    "midi": 75,
                    "time": 10.958892,
                    "velocity": 0.3464566929133858,
                    "duration": 0.3913890000000002
                },
                {
                    "name": "C#5",
                    "midi": 73,
                    "time": 11.350281,
                    "velocity": 0.33070866141732286,
                    "duration": 0.3913890000000002
                },
                {
                    "name": "A#4",
                    "midi": 70,
                    "time": 11.741670000000001,
                    "velocity": 0.3228346456692913,
                    "duration": 0.3913890000000002
                },
                {
                    "name": "F#4",
                    "midi": 66,
                    "time": 12.133059000000001,
                    "velocity": 0.30708661417322836,
                    "duration": 0.3913890000000002
                },
                {
                    "name": "F#4",
                    "midi": 66,
                    "time": 12.524448000000001,
                    "velocity": 0.33070866141732286,
                    "duration": 0.7827780000000004
                },
                {
                    "name": "A#4",
                    "midi": 70,
                    "time": 13.307226000000002,
                    "velocity": 0.33070866141732286,
                    "duration": 0.26092599999999955
                },
                {
                    "name": "G#4",
                    "midi": 68,
                    "time": 13.568152000000001,
                    "velocity": 0.29133858267716534,
                    "duration": 0.26092599999999955
                },
                {
                    "name": "F#4",
                    "midi": 66,
                    "time": 13.829078,
                    "velocity": 0.29133858267716534,
                    "duration": 0.26092599999999955
                },
                {
                    "name": "A#4",
                    "midi": 70,
                    "time": 14.090004,
                    "velocity": 0.33070866141732286,
                    "duration": 1.3046299999999995
                },
                {
                    "name": "A#4",
                    "midi": 70,
                    "time": 15.65556,
                    "velocity": 0.33070866141732286,
                    "duration": 1.1741669999999989
                },
                {
                    "name": "D4",
                    "midi": 62,
                    "time": 16.438337999999998,
                    "velocity": 0.33070866141732286,
                    "duration": 0.2609260000000013
                },
                {
                    "name": "F#3",
                    "midi": 54,
                    "time": 16.438337999999998,
                    "velocity": 0.2677165354330709,
                    "duration": 0.2609260000000013
                },
                {
                    "name": "A#4",
                    "midi": 70,
                    "time": 16.829727,
                    "velocity": 0.3858267716535433,
                    "duration": 0.3913890000000002
                },
                {
                    "name": "A#4",
                    "midi": 70,
                    "time": 17.221116,
                    "velocity": 0.4094488188976378,
                    "duration": 0.7827780000000004
                },
                {
                    "name": "D#4",
                    "midi": 63,
                    "time": 18.003894,
                    "velocity": 0.3779527559055118,
                    "duration": 0.7827780000000004
                },
                {
                    "name": "A#4",
                    "midi": 70,
                    "time": 18.786672,
                    "velocity": 0.33070866141732286,
                    "duration": 1.0437040000000017
                },
                {
                    "name": "F#3",
                    "midi": 54,
                    "time": 19.56945,
                    "velocity": 0.2677165354330709,
                    "duration": 0.2609260000000013
                },
                {
                    "name": "D4",
                    "midi": 62,
                    "time": 19.56945,
                    "velocity": 0.33070866141732286,
                    "duration": 0.2609260000000013
                },
                {
                    "name": "B4",
                    "midi": 71,
                    "time": 19.830376,
                    "velocity": 0.3858267716535433,
                    "duration": 0.2609260000000013
                },
                {
                    "name": "C#5",
                    "midi": 73,
                    "time": 20.091302000000002,
                    "velocity": 0.3858267716535433,
                    "duration": 0.2609260000000013
                },
                {
                    "name": "A#4",
                    "midi": 70,
                    "time": 20.352228000000004,
                    "velocity": 0.4094488188976378,
                    "duration": 1.5655560000000008
                },
                {
                    "name": "A#4",
                    "midi": 70,
                    "time": 21.917784000000005,
                    "velocity": 0.4251968503937008,
                    "duration": 1.1741670000000006
                },
                {
                    "name": "A4",
                    "midi": 69,
                    "time": 23.091951000000005,
                    "velocity": 0.3779527559055118,
                    "duration": 0.3913890000000002
                },
                {
                    "name": "A4",
                    "midi": 69,
                    "time": 23.483340000000005,
                    "velocity": 0.3543307086614173,
                    "duration": 0.7827780000000004
                },
                {
                    "name": "G#4",
                    "midi": 68,
                    "time": 24.266118000000006,
                    "velocity": 0.3464566929133858,
                    "duration": 0.7827780000000004
                },
                {
                    "name": "G#4",
                    "midi": 68,
                    "time": 25.048896000000006,
                    "velocity": 0.3779527559055118,
                    "duration": 0.7827780000000004
                },
                {
                    "name": "A#4",
                    "midi": 70,
                    "time": 25.831674000000007,
                    "velocity": 0.4015748031496063,
                    "duration": 0.3913890000000002
                },
                {
                    "name": "C5",
                    "midi": 72,
                    "time": 26.223063000000007,
                    "velocity": 0.3937007874015748,
                    "duration": 0.3913890000000002
                },
                {
                    "name": "G#4",
                    "midi": 68,
                    "time": 26.614452000000007,
                    "velocity": 0.44881889763779526,
                    "duration": 0.7827780000000004
                },
                {
                    "name": "F5",
                    "midi": 77,
                    "time": 27.397230000000008,
                    "velocity": 0.4566929133858268,
                    "duration": 0.2598388083333347
                },
                {
                    "name": "C#5",
                    "midi": 73,
                    "time": 27.65815600000001,
                    "velocity": 0.4409448818897638,
                    "duration": 0.2609260000000013
                },
                {
                    "name": "C5",
                    "midi": 72,
                    "time": 27.91908200000001,
                    "velocity": 0.4409448818897638,
                    "duration": 0.2609260000000013
                },
                {
                    "name": "B4",
                    "midi": 71,
                    "time": 28.18000800000001,
                    "velocity": 0.44881889763779526,
                    "duration": 1.0437040000000017
                },
                {
                    "name": "A#4",
                    "midi": 70,
                    "time": 29.223712000000013,
                    "velocity": 0.41732283464566927,
                    "duration": 0.2609260000000013
                },
                {
                    "name": "A4",
                    "midi": 69,
                    "time": 29.484638000000015,
                    "velocity": 0.41732283464566927,
                    "duration": 0.2609260000000013
                },
                {
                    "name": "A4",
                    "midi": 69,
                    "time": 29.745564000000016,
                    "velocity": 0.4330708661417323,
                    "duration": 0.7827780000000004
                },
                {
                    "name": "G#4",
                    "midi": 68,
                    "time": 30.528342000000016,
                    "velocity": 0.4409448818897638,
                    "duration": 0.5218519999999991
                },
                {
                    "name": "A4",
                    "midi": 69,
                    "time": 31.050194000000015,
                    "velocity": 0.4566929133858268,
                    "duration": 0.2609260000000013
                },
                {
                    "name": "A#4",
                    "midi": 70,
                    "time": 31.311120000000017,
                    "velocity": 0.44881889763779526,
                    "duration": 0.7827780000000004
                },
                {
                    "name": "C#5",
                    "midi": 73,
                    "time": 32.09389800000002,
                    "velocity": 0.47244094488188976,
                    "duration": 0.2598388083333347
                },
                {
                    "name": "C5",
                    "midi": 72,
                    "time": 32.35482400000002,
                    "velocity": 0.4251968503937008,
                    "duration": 0.26092599999999777
                },
                {
                    "name": "A#4",
                    "midi": 70,
                    "time": 32.61575000000002,
                    "velocity": 0.4251968503937008,
                    "duration": 0.26092599999999777
                },
                {
                    "name": "C#5",
                    "midi": 73,
                    "time": 32.87667600000002,
                    "velocity": 0.47244094488188976,
                    "duration": 1.5655560000000008
                },
                {
                    "name": "C#5",
                    "midi": 73,
                    "time": 34.44223200000002,
                    "velocity": 0.2755905511811024,
                    "duration": 1.174166999999997
                },
                {
                    "name": "D#5",
                    "midi": 75,
                    "time": 35.616399000000015,
                    "velocity": 0.2677165354330709,
                    "duration": 0.39138899999999666
                },
                {
                    "name": "D#5",
                    "midi": 75,
                    "time": 36.00778800000001,
                    "velocity": 0.2992125984251969,
                    "duration": 0.7827780000000004
                },
                {
                    "name": "C#5",
                    "midi": 73,
                    "time": 36.79056600000001,
                    "velocity": 0.2755905511811024,
                    "duration": 0.39138899999999666
                },
                {
                    "name": "A#4",
                    "midi": 70,
                    "time": 37.18195500000001,
                    "velocity": 0.25984251968503935,
                    "duration": 0.39138899999999666
                },
                {
                    "name": "F#4",
                    "midi": 66,
                    "time": 37.573344000000006,
                    "velocity": 0.29133858267716534,
                    "duration": 0.7827780000000004
                },
                {
                    "name": "G#4",
                    "midi": 68,
                    "time": 38.356122000000006,
                    "velocity": 0.2755905511811024,
                    "duration": 0.7827780000000004
                },
                {
                    "name": "A#4",
                    "midi": 70,
                    "time": 39.13890000000001,
                    "velocity": 0.2992125984251969,
                    "duration": 1.5655560000000008
                },
                {
                    "name": "C#5",
                    "midi": 73,
                    "time": 40.70445600000001,
                    "velocity": 0.30708661417322836,
                    "duration": 0.7827780000000004
                },
                {
                    "name": "F5",
                    "midi": 77,
                    "time": 41.48723400000001,
                    "velocity": 0.3228346456692913,
                    "duration": 0.26092599999999777
                },
                {
                    "name": "D#5",
                    "midi": 75,
                    "time": 41.748160000000006,
                    "velocity": 0.30708661417322836,
                    "duration": 0.26092599999999777
                },
                {
                    "name": "C#5",
                    "midi": 73,
                    "time": 42.009086,
                    "velocity": 0.30708661417322836,
                    "duration": 0.26092599999999777
                },
                {
                    "name": "D#5",
                    "midi": 75,
                    "time": 42.270012,
                    "velocity": 0.3464566929133858,
                    "duration": 0.39138899999999666
                },
                {
                    "name": "C#5",
                    "midi": 73,
                    "time": 42.661401,
                    "velocity": 0.33070866141732286,
                    "duration": 0.39138899999999666
                },
                {
                    "name": "A#4",
                    "midi": 70,
                    "time": 43.052789999999995,
                    "velocity": 0.3228346456692913,
                    "duration": 0.39138899999999666
                },
                {
                    "name": "F#4",
                    "midi": 66,
                    "time": 43.44417899999999,
                    "velocity": 0.30708661417322836,
                    "duration": 0.39138899999999666
                },
                {
                    "name": "F#4",
                    "midi": 66,
                    "time": 43.83556799999999,
                    "velocity": 0.33070866141732286,
                    "duration": 0.7827780000000004
                },
                {
                    "name": "A#4",
                    "midi": 70,
                    "time": 44.61834599999999,
                    "velocity": 0.33070866141732286,
                    "duration": 0.26092599999999777
                },
                {
                    "name": "G#4",
                    "midi": 68,
                    "time": 44.879271999999986,
                    "velocity": 0.29133858267716534,
                    "duration": 0.26092599999999777
                },
                {
                    "name": "F#4",
                    "midi": 66,
                    "time": 45.140197999999984,
                    "velocity": 0.29133858267716534,
                    "duration": 0.26092599999999777
                },
                {
                    "name": "A#4",
                    "midi": 70,
                    "time": 45.40112399999998,
                    "velocity": 0.33070866141732286,
                    "duration": 1.304630000000003
                },
                {
                    "name": "A#4",
                    "midi": 70,
                    "time": 46.96667999999998,
                    "velocity": 0.33070866141732286,
                    "duration": 1.174166999999997
                },
                {
                    "name": "F#3",
                    "midi": 54,
                    "time": 47.74945799999998,
                    "velocity": 0.23622047244094488,
                    "duration": 0.26092599999999777
                },
                {
                    "name": "D4",
                    "midi": 62,
                    "time": 47.74945799999998,
                    "velocity": 0.29133858267716534,
                    "duration": 0.26092599999999777
                },
                {
                    "name": "A#4",
                    "midi": 70,
                    "time": 48.14084699999998,
                    "velocity": 0.3858267716535433,
                    "duration": 0.39138899999999666
                },
                {
                    "name": "A#4",
                    "midi": 70,
                    "time": 48.532235999999976,
                    "velocity": 0.4094488188976378,
                    "duration": 0.7827780000000004
                },
                {
                    "name": "D#4",
                    "midi": 63,
                    "time": 49.31501399999998,
                    "velocity": 0.3779527559055118,
                    "duration": 0.7827780000000004
                },
                {
                    "name": "A#4",
                    "midi": 70,
                    "time": 50.09779199999998,
                    "velocity": 0.33070866141732286,
                    "duration": 1.0437039999999982
                },
                {
                    "name": "F#3",
                    "midi": 54,
                    "time": 50.88056999999998,
                    "velocity": 0.23622047244094488,
                    "duration": 0.26092599999999777
                },
                {
                    "name": "D4",
                    "midi": 62,
                    "time": 50.88056999999998,
                    "velocity": 0.29133858267716534,
                    "duration": 0.26092599999999777
                },
                {
                    "name": "B4",
                    "midi": 71,
                    "time": 51.141495999999975,
                    "velocity": 0.3858267716535433,
                    "duration": 0.26092599999999777
                },
                {
                    "name": "C#5",
                    "midi": 73,
                    "time": 51.40242199999997,
                    "velocity": 0.3858267716535433,
                    "duration": 0.26092599999999777
                },
                {
                    "name": "A#4",
                    "midi": 70,
                    "time": 51.66334799999997,
                    "velocity": 0.4094488188976378,
                    "duration": 1.5655560000000008
                },
                {
                    "name": "A#4",
                    "midi": 70,
                    "time": 53.22890399999997,
                    "velocity": 0.4251968503937008,
                    "duration": 1.174166999999997
                },
                {
                    "name": "A4",
                    "midi": 69,
                    "time": 54.40307099999997,
                    "velocity": 0.3779527559055118,
                    "duration": 0.39138899999999666
                },
                {
                    "name": "A4",
                    "midi": 69,
                    "time": 54.794459999999965,
                    "velocity": 0.3543307086614173,
                    "duration": 0.7827780000000004
                },
                {
                    "name": "G#4",
                    "midi": 68,
                    "time": 55.577237999999966,
                    "velocity": 0.3464566929133858,
                    "duration": 0.7827780000000004
                },
                {
                    "name": "G#4",
                    "midi": 68,
                    "time": 56.360015999999966,
                    "velocity": 0.3779527559055118,
                    "duration": 0.7827780000000004
                },
                {
                    "name": "A#4",
                    "midi": 70,
                    "time": 57.14279399999997,
                    "velocity": 0.4015748031496063,
                    "duration": 0.39138899999999666
                },
                {
                    "name": "C5",
                    "midi": 72,
                    "time": 57.53418299999996,
                    "velocity": 0.3937007874015748,
                    "duration": 0.39138899999999666
                },
                {
                    "name": "G#4",
                    "midi": 68,
                    "time": 57.92557199999996,
                    "velocity": 0.44881889763779526,
                    "duration": 0.7827780000000004
                },
                {
                    "name": "F5",
                    "midi": 77,
                    "time": 58.70834999999996,
                    "velocity": 0.4566929133858268,
                    "duration": 0.2598388083333347
                },
                {
                    "name": "C#5",
                    "midi": 73,
                    "time": 58.969275999999965,
                    "velocity": 0.4409448818897638,
                    "duration": 0.26092599999999777
                },
                {
                    "name": "C5",
                    "midi": 72,
                    "time": 59.23020199999996,
                    "velocity": 0.4409448818897638,
                    "duration": 0.26092599999999777
                },
                {
                    "name": "B4",
                    "midi": 71,
                    "time": 59.49112799999996,
                    "velocity": 0.44881889763779526,
                    "duration": 1.0437039999999982
                },
                {
                    "name": "A#4",
                    "midi": 70,
                    "time": 60.53483199999996,
                    "velocity": 0.41732283464566927,
                    "duration": 0.26092599999999777
                },
                {
                    "name": "A4",
                    "midi": 69,
                    "time": 60.79575799999996,
                    "velocity": 0.41732283464566927,
                    "duration": 0.26092599999999777
                },
                {
                    "name": "A4",
                    "midi": 69,
                    "time": 61.056683999999954,
                    "velocity": 0.4330708661417323,
                    "duration": 0.7827780000000004
                },
                {
                    "name": "G#4",
                    "midi": 68,
                    "time": 61.839461999999955,
                    "velocity": 0.4409448818897638,
                    "duration": 0.5218520000000026
                },
                {
                    "name": "A4",
                    "midi": 69,
                    "time": 62.36131399999996,
                    "velocity": 0.4566929133858268,
                    "duration": 0.26092599999999777
                },
                {
                    "name": "A#4",
                    "midi": 70,
                    "time": 62.622239999999955,
                    "velocity": 0.44881889763779526,
                    "duration": 0.7827780000000004
                },
                {
                    "name": "C#5",
                    "midi": 73,
                    "time": 63.405017999999956,
                    "velocity": 0.47244094488188976,
                    "duration": 0.2598388083333347
                },
                {
                    "name": "C5",
                    "midi": 72,
                    "time": 63.66594399999996,
                    "velocity": 0.4251968503937008,
                    "duration": 0.26092599999999777
                },
                {
                    "name": "A#4",
                    "midi": 70,
                    "time": 63.92686999999996,
                    "velocity": 0.4251968503937008,
                    "duration": 0.2609260000000049
                },
                {
                    "name": "C#5",
                    "midi": 73,
                    "time": 64.18779599999996,
                    "velocity": 0.47244094488188976,
                    "duration": 1.5655560000000008
                },
                {
                    "name": "C#2",
                    "midi": 37,
                    "time": 65.68812049999997,
                    "velocity": 0.2755905511811024,
                    "duration": 0.06523149999999589
                },
                {
                    "name": "C#3",
                    "midi": 49,
                    "time": 65.75335199999996,
                    "velocity": 0.29133858267716534,
                    "duration": 1.304630000000003
                },
                {
                    "name": "D3",
                    "midi": 50,
                    "time": 67.05798199999997,
                    "velocity": 0.29133858267716534,
                    "duration": 0.26092599999999777
                },
                {
                    "name": "D3",
                    "midi": 50,
                    "time": 67.31890799999996,
                    "velocity": 0.3464566929133858,
                    "duration": 0.7827779999999933
                },
                {
                    "name": "C#3",
                    "midi": 49,
                    "time": 68.10168599999996,
                    "velocity": 0.29133858267716534,
                    "duration": 0.7827779999999933
                },
                {
                    "name": "D3",
                    "midi": 50,
                    "time": 68.88446399999995,
                    "velocity": 0.29133858267716534,
                    "duration": 0.7827779999999933
                },
                {
                    "name": "F#3",
                    "midi": 54,
                    "time": 69.66724199999994,
                    "velocity": 0.33858267716535434,
                    "duration": 0.26092599999999777
                },
                {
                    "name": "D3",
                    "midi": 50,
                    "time": 69.92816799999994,
                    "velocity": 0.30708661417322836,
                    "duration": 0.26092599999999777
                },
                {
                    "name": "E3",
                    "midi": 52,
                    "time": 70.18909399999994,
                    "velocity": 0.3228346456692913,
                    "duration": 0.26092599999999777
                },
                {
                    "name": "C#3",
                    "midi": 49,
                    "time": 70.45001999999994,
                    "velocity": 0.30708661417322836,
                    "duration": 1.5655560000000008
                },
                {
                    "name": "F2",
                    "midi": 41,
                    "time": 71.95034449999994,
                    "velocity": 0.31496062992125984,
                    "duration": 0.06523149999999589
                },
                {
                    "name": "F3",
                    "midi": 53,
                    "time": 72.01557599999994,
                    "velocity": 0.4015748031496063,
                    "duration": 1.304630000000003
                },
                {
                    "name": "F#3",
                    "midi": 54,
                    "time": 73.32020599999994,
                    "velocity": 0.41732283464566927,
                    "duration": 0.26092599999999777
                },
                {
                    "name": "F#3",
                    "midi": 54,
                    "time": 73.58113199999994,
                    "velocity": 0.4881889763779528,
                    "duration": 0.7827779999999933
                },
                {
                    "name": "F3",
                    "midi": 53,
                    "time": 74.36390999999993,
                    "velocity": 0.4251968503937008,
                    "duration": 0.7827779999999933
                },
                {
                    "name": "F#3",
                    "midi": 54,
                    "time": 75.14668799999993,
                    "velocity": 0.4251968503937008,
                    "duration": 0.7827779999999933
                },
                {
                    "name": "A3",
                    "midi": 57,
                    "time": 75.92946599999992,
                    "velocity": 0.5039370078740157,
                    "duration": 0.26092599999999777
                },
                {
                    "name": "F#3",
                    "midi": 54,
                    "time": 76.19039199999992,
                    "velocity": 0.4566929133858268,
                    "duration": 0.26092599999999777
                },
                {
                    "name": "G#3",
                    "midi": 56,
                    "time": 76.45131799999992,
                    "velocity": 0.4881889763779528,
                    "duration": 0.26092599999999777
                },
                {
                    "name": "F3",
                    "midi": 53,
                    "time": 76.71224399999991,
                    "velocity": 0.4645669291338583,
                    "duration": 1.5655560000000008
                },
                {
                    "name": "A3",
                    "midi": 57,
                    "time": 78.27779999999991,
                    "velocity": 0.5275590551181102,
                    "duration": 0.26092599999999777
                },
                {
                    "name": "F#3",
                    "midi": 54,
                    "time": 78.53872599999991,
                    "velocity": 0.47244094488188976,
                    "duration": 0.26092599999999777
                },
                {
                    "name": "G#3",
                    "midi": 56,
                    "time": 78.79965199999991,
                    "velocity": 0.5118110236220472,
                    "duration": 0.26092599999999777
                },
                {
                    "name": "F3",
                    "midi": 53,
                    "time": 79.06057799999991,
                    "velocity": 0.48031496062992124,
                    "duration": 0.7827779999999933
                },
                {
                    "name": "A3",
                    "midi": 57,
                    "time": 79.8433559999999,
                    "velocity": 0.5354330708661418,
                    "duration": 0.26092599999999777
                },
                {
                    "name": "F#3",
                    "midi": 54,
                    "time": 80.1042819999999,
                    "velocity": 0.48031496062992124,
                    "duration": 0.26092599999999777
                },
                {
                    "name": "G#3",
                    "midi": 56,
                    "time": 80.3652079999999,
                    "velocity": 0.5196850393700787,
                    "duration": 0.26092599999999777
                },
                {
                    "name": "F3",
                    "midi": 53,
                    "time": 80.6261339999999,
                    "velocity": 0.4881889763779528,
                    "duration": 0.7827779999999933
                },
                {
                    "name": "C#4",
                    "midi": 61,
                    "time": 81.40891199999989,
                    "velocity": 0.5984251968503937,
                    "duration": 0.26092599999999777
                },
                {
                    "name": "A3",
                    "midi": 57,
                    "time": 81.66983799999988,
                    "velocity": 0.5433070866141733,
                    "duration": 0.26092599999999777
                },
                {
                    "name": "B3",
                    "midi": 59,
                    "time": 81.93076399999988,
                    "velocity": 0.5433070866141733,
                    "duration": 0.26092599999999777
                },
                {
                    "name": "G#3",
                    "midi": 56,
                    "time": 82.19168999999988,
                    "velocity": 0.5590551181102362,
                    "duration": 0.7827779999999933
                },
                {
                    "name": "C#4",
                    "midi": 61,
                    "time": 82.97446799999987,
                    "velocity": 0.6141732283464567,
                    "duration": 0.26092599999999777
                },
                {
                    "name": "A3",
                    "midi": 57,
                    "time": 83.23539399999987,
                    "velocity": 0.5511811023622047,
                    "duration": 0.26092599999999777
                },
                {
                    "name": "B3",
                    "midi": 59,
                    "time": 83.49631999999987,
                    "velocity": 0.5590551181102362,
                    "duration": 0.26092599999999777
                },
                {
                    "name": "G#3",
                    "midi": 56,
                    "time": 83.75724599999987,
                    "velocity": 0.5669291338582677,
                    "duration": 0.7827779999999933
                },
                {
                    "name": "E4",
                    "midi": 64,
                    "time": 84.54002399999986,
                    "velocity": 0.5433070866141733,
                    "duration": 0.26092599999999777
                },
                {
                    "name": "C#4",
                    "midi": 61,
                    "time": 84.80094999999986,
                    "velocity": 0.5039370078740157,
                    "duration": 0.26092599999999777
                },
                {
                    "name": "D4",
                    "midi": 62,
                    "time": 85.06187599999986,
                    "velocity": 0.5590551181102362,
                    "duration": 0.26092599999999777
                },
                {
                    "name": "B3",
                    "midi": 59,
                    "time": 85.32280199999985,
                    "velocity": 0.5275590551181102,
                    "duration": 0.26092599999999777
                },
                {
                    "name": "E4",
                    "midi": 64,
                    "time": 85.58372799999985,
                    "velocity": 0.5984251968503937,
                    "duration": 0.26092599999999777
                },
                {
                    "name": "C#4",
                    "midi": 61,
                    "time": 85.84465399999985,
                    "velocity": 0.5669291338582677,
                    "duration": 0.26092599999999777
                },
                {
                    "name": "D4",
                    "midi": 62,
                    "time": 86.10557999999985,
                    "velocity": 0.6377952755905512,
                    "duration": 0.26092599999999777
                },
                {
                    "name": "B3",
                    "midi": 59,
                    "time": 86.36650599999984,
                    "velocity": 0.5905511811023622,
                    "duration": 0.26092599999999777
                },
                {
                    "name": "E4",
                    "midi": 64,
                    "time": 86.62743199999984,
                    "velocity": 0.6692913385826772,
                    "duration": 0.26092599999999777
                },
                {
                    "name": "C#4",
                    "midi": 61,
                    "time": 86.88835799999984,
                    "velocity": 0.6299212598425197,
                    "duration": 0.26092599999999777
                },
                {
                    "name": "D4",
                    "midi": 62,
                    "time": 87.14928399999984,
                    "velocity": 0.7086614173228346,
                    "duration": 0.26092599999999777
                },
                {
                    "name": "B3",
                    "midi": 59,
                    "time": 87.41020999999984,
                    "velocity": 0.6692913385826772,
                    "duration": 0.26092599999999777
                },
                {
                    "name": "C#3",
                    "midi": 49,
                    "time": 87.93206199999983,
                    "velocity": 0.4330708661417323,
                    "duration": 0.26092599999999777
                },
                {
                    "name": "F3",
                    "midi": 53,
                    "time": 87.93206199999983,
                    "velocity": 0.4330708661417323,
                    "duration": 0.26092599999999777
                },
                {
                    "name": "C#4",
                    "midi": 61,
                    "time": 87.93206199999983,
                    "velocity": 0.5433070866141733,
                    "duration": 0.26092599999999777
                },
                {
                    "name": "G#3",
                    "midi": 56,
                    "time": 87.93206199999983,
                    "velocity": 0.4330708661417323,
                    "duration": 0.26092599999999777
                },
                {
                    "name": "C#3",
                    "midi": 49,
                    "time": 88.19298799999983,
                    "velocity": 0.4251968503937008,
                    "duration": 0.26092599999999777
                },
                {
                    "name": "F3",
                    "midi": 53,
                    "time": 88.19298799999983,
                    "velocity": 0.4251968503937008,
                    "duration": 0.26092599999999777
                },
                {
                    "name": "G#3",
                    "midi": 56,
                    "time": 88.19298799999983,
                    "velocity": 0.4251968503937008,
                    "duration": 0.26092599999999777
                },
                {
                    "name": "C#4",
                    "midi": 61,
                    "time": 88.19298799999983,
                    "velocity": 0.5275590551181102,
                    "duration": 0.26092599999999777
                },
                {
                    "name": "C#4",
                    "midi": 61,
                    "time": 88.45391399999983,
                    "velocity": 0.5196850393700787,
                    "duration": 0.26092599999999777
                },
                {
                    "name": "C#3",
                    "midi": 49,
                    "time": 88.45391399999983,
                    "velocity": 0.4094488188976378,
                    "duration": 0.26092599999999777
                },
                {
                    "name": "F3",
                    "midi": 53,
                    "time": 88.45391399999983,
                    "velocity": 0.4094488188976378,
                    "duration": 0.26092599999999777
                },
                {
                    "name": "G#3",
                    "midi": 56,
                    "time": 88.45391399999983,
                    "velocity": 0.4094488188976378,
                    "duration": 0.26092599999999777
                },
                {
                    "name": "C#4",
                    "midi": 61,
                    "time": 88.71483999999982,
                    "velocity": 0.5118110236220472,
                    "duration": 0.26092599999999777
                },
                {
                    "name": "C#3",
                    "midi": 49,
                    "time": 88.71483999999982,
                    "velocity": 0.4015748031496063,
                    "duration": 0.26092599999999777
                },
                {
                    "name": "F3",
                    "midi": 53,
                    "time": 88.71483999999982,
                    "velocity": 0.4015748031496063,
                    "duration": 0.26092599999999777
                },
                {
                    "name": "G#3",
                    "midi": 56,
                    "time": 88.71483999999982,
                    "velocity": 0.4015748031496063,
                    "duration": 0.26092599999999777
                },
                {
                    "name": "C#4",
                    "midi": 61,
                    "time": 88.97576599999982,
                    "velocity": 0.5039370078740157,
                    "duration": 0.26092599999999777
                },
                {
                    "name": "C#3",
                    "midi": 49,
                    "time": 88.97576599999982,
                    "velocity": 0.3937007874015748,
                    "duration": 0.26092599999999777
                },
                {
                    "name": "F3",
                    "midi": 53,
                    "time": 88.97576599999982,
                    "velocity": 0.3937007874015748,
                    "duration": 0.26092599999999777
                },
                {
                    "name": "G#3",
                    "midi": 56,
                    "time": 88.97576599999982,
                    "velocity": 0.3937007874015748,
                    "duration": 0.26092599999999777
                },
                {
                    "name": "C#4",
                    "midi": 61,
                    "time": 89.23669199999982,
                    "velocity": 0.49606299212598426,
                    "duration": 0.26092599999999777
                },
                {
                    "name": "C#3",
                    "midi": 49,
                    "time": 89.23669199999982,
                    "velocity": 0.3937007874015748,
                    "duration": 0.26092599999999777
                },
                {
                    "name": "F3",
                    "midi": 53,
                    "time": 89.23669199999982,
                    "velocity": 0.3937007874015748,
                    "duration": 0.26092599999999777
                },
                {
                    "name": "G#3",
                    "midi": 56,
                    "time": 89.23669199999982,
                    "velocity": 0.3937007874015748,
                    "duration": 0.26092599999999777
                },
                {
                    "name": "C#4",
                    "midi": 61,
                    "time": 89.49761799999982,
                    "velocity": 0.4881889763779528,
                    "duration": 0.26092599999999777
                },
                {
                    "name": "C#3",
                    "midi": 49,
                    "time": 89.49761799999982,
                    "velocity": 0.3858267716535433,
                    "duration": 0.26092599999999777
                },
                {
                    "name": "F3",
                    "midi": 53,
                    "time": 89.49761799999982,
                    "velocity": 0.3858267716535433,
                    "duration": 0.26092599999999777
                },
                {
                    "name": "G#3",
                    "midi": 56,
                    "time": 89.49761799999982,
                    "velocity": 0.3858267716535433,
                    "duration": 0.26092599999999777
                },
                {
                    "name": "C#4",
                    "midi": 61,
                    "time": 89.75854399999982,
                    "velocity": 0.47244094488188976,
                    "duration": 0.26092599999999777
                },
                {
                    "name": "C#3",
                    "midi": 49,
                    "time": 89.75854399999982,
                    "velocity": 0.3779527559055118,
                    "duration": 0.26092599999999777
                },
                {
                    "name": "F3",
                    "midi": 53,
                    "time": 89.75854399999982,
                    "velocity": 0.3779527559055118,
                    "duration": 0.26092599999999777
                },
                {
                    "name": "G#3",
                    "midi": 56,
                    "time": 89.75854399999982,
                    "velocity": 0.3779527559055118,
                    "duration": 0.26092599999999777
                },
                {
                    "name": "C#3",
                    "midi": 49,
                    "time": 90.01946999999981,
                    "velocity": 0.3700787401574803,
                    "duration": 0.26092599999999777
                },
                {
                    "name": "F3",
                    "midi": 53,
                    "time": 90.01946999999981,
                    "velocity": 0.3700787401574803,
                    "duration": 0.26092599999999777
                },
                {
                    "name": "G#3",
                    "midi": 56,
                    "time": 90.01946999999981,
                    "velocity": 0.3700787401574803,
                    "duration": 0.26092599999999777
                },
                {
                    "name": "C#4",
                    "midi": 61,
                    "time": 90.01946999999981,
                    "velocity": 0.4645669291338583,
                    "duration": 0.26092599999999777
                },
                {
                    "name": "C#3",
                    "midi": 49,
                    "time": 90.28039599999981,
                    "velocity": 0.36220472440944884,
                    "duration": 0.26092599999999777
                },
                {
                    "name": "F3",
                    "midi": 53,
                    "time": 90.28039599999981,
                    "velocity": 0.36220472440944884,
                    "duration": 0.26092599999999777
                },
                {
                    "name": "G#3",
                    "midi": 56,
                    "time": 90.28039599999981,
                    "velocity": 0.36220472440944884,
                    "duration": 0.26092599999999777
                },
                {
                    "name": "C#4",
                    "midi": 61,
                    "time": 90.28039599999981,
                    "velocity": 0.4566929133858268,
                    "duration": 0.26092599999999777
                },
                {
                    "name": "B2",
                    "midi": 47,
                    "time": 91.0631739999998,
                    "velocity": 0.4330708661417323,
                    "duration": 0.26092599999999777
                },
                {
                    "name": "D4",
                    "midi": 62,
                    "time": 91.0631739999998,
                    "velocity": 0.5433070866141733,
                    "duration": 0.26092599999999777
                },
                {
                    "name": "F#3",
                    "midi": 54,
                    "time": 91.0631739999998,
                    "velocity": 0.4330708661417323,
                    "duration": 0.26092599999999777
                },
                {
                    "name": "B3",
                    "midi": 59,
                    "time": 91.0631739999998,
                    "velocity": 0.4330708661417323,
                    "duration": 0.26092599999999777
                },
                {
                    "name": "B2",
                    "midi": 47,
                    "time": 91.3240999999998,
                    "velocity": 0.4251968503937008,
                    "duration": 0.26092599999999777
                },
                {
                    "name": "B3",
                    "midi": 59,
                    "time": 91.3240999999998,
                    "velocity": 0.4251968503937008,
                    "duration": 0.26092599999999777
                },
                {
                    "name": "F#3",
                    "midi": 54,
                    "time": 91.3240999999998,
                    "velocity": 0.4251968503937008,
                    "duration": 0.26092599999999777
                },
                {
                    "name": "D4",
                    "midi": 62,
                    "time": 91.3240999999998,
                    "velocity": 0.5275590551181102,
                    "duration": 0.26092599999999777
                },
                {
                    "name": "B2",
                    "midi": 47,
                    "time": 91.5850259999998,
                    "velocity": 0.4094488188976378,
                    "duration": 0.26092599999999777
                },
                {
                    "name": "B3",
                    "midi": 59,
                    "time": 91.5850259999998,
                    "velocity": 0.4094488188976378,
                    "duration": 0.26092599999999777
                },
                {
                    "name": "F#3",
                    "midi": 54,
                    "time": 91.5850259999998,
                    "velocity": 0.4094488188976378,
                    "duration": 0.26092599999999777
                },
                {
                    "name": "D4",
                    "midi": 62,
                    "time": 91.5850259999998,
                    "velocity": 0.5196850393700787,
                    "duration": 0.26092599999999777
                },
                {
                    "name": "B2",
                    "midi": 47,
                    "time": 91.8459519999998,
                    "velocity": 0.4015748031496063,
                    "duration": 0.26092599999999777
                },
                {
                    "name": "B3",
                    "midi": 59,
                    "time": 91.8459519999998,
                    "velocity": 0.4015748031496063,
                    "duration": 0.26092599999999777
                },
                {
                    "name": "F#3",
                    "midi": 54,
                    "time": 91.8459519999998,
                    "velocity": 0.4015748031496063,
                    "duration": 0.26092599999999777
                },
                {
                    "name": "D4",
                    "midi": 62,
                    "time": 91.8459519999998,
                    "velocity": 0.5118110236220472,
                    "duration": 0.26092599999999777
                },
                {
                    "name": "B2",
                    "midi": 47,
                    "time": 92.1068779999998,
                    "velocity": 0.3937007874015748,
                    "duration": 0.26092599999999777
                },
                {
                    "name": "B3",
                    "midi": 59,
                    "time": 92.1068779999998,
                    "velocity": 0.3937007874015748,
                    "duration": 0.26092599999999777
                },
                {
                    "name": "F#3",
                    "midi": 54,
                    "time": 92.1068779999998,
                    "velocity": 0.3937007874015748,
                    "duration": 0.26092599999999777
                },
                {
                    "name": "D4",
                    "midi": 62,
                    "time": 92.1068779999998,
                    "velocity": 0.5039370078740157,
                    "duration": 0.26092599999999777
                },
                {
                    "name": "B2",
                    "midi": 47,
                    "time": 92.3678039999998,
                    "velocity": 0.3937007874015748,
                    "duration": 0.26092599999999777
                },
                {
                    "name": "B3",
                    "midi": 59,
                    "time": 92.3678039999998,
                    "velocity": 0.3937007874015748,
                    "duration": 0.26092599999999777
                },
                {
                    "name": "F#3",
                    "midi": 54,
                    "time": 92.3678039999998,
                    "velocity": 0.3937007874015748,
                    "duration": 0.26092599999999777
                },
                {
                    "name": "D4",
                    "midi": 62,
                    "time": 92.3678039999998,
                    "velocity": 0.49606299212598426,
                    "duration": 0.26092599999999777
                },
                {
                    "name": "F#3",
                    "midi": 54,
                    "time": 92.62872999999979,
                    "velocity": 0.3858267716535433,
                    "duration": 0.26092599999999777
                },
                {
                    "name": "B2",
                    "midi": 47,
                    "time": 92.62872999999979,
                    "velocity": 0.3858267716535433,
                    "duration": 0.26092599999999777
                },
                {
                    "name": "B3",
                    "midi": 59,
                    "time": 92.62872999999979,
                    "velocity": 0.3858267716535433,
                    "duration": 0.26092599999999777
                },
                {
                    "name": "D4",
                    "midi": 62,
                    "time": 92.62872999999979,
                    "velocity": 0.4881889763779528,
                    "duration": 0.26092599999999777
                },
                {
                    "name": "B2",
                    "midi": 47,
                    "time": 92.88965599999979,
                    "velocity": 0.3779527559055118,
                    "duration": 0.26092599999999777
                },
                {
                    "name": "F#3",
                    "midi": 54,
                    "time": 92.88965599999979,
                    "velocity": 0.3779527559055118,
                    "duration": 0.26092599999999777
                },
                {
                    "name": "B3",
                    "midi": 59,
                    "time": 92.88965599999979,
                    "velocity": 0.3779527559055118,
                    "duration": 0.26092599999999777
                },
                {
                    "name": "D4",
                    "midi": 62,
                    "time": 92.88965599999979,
                    "velocity": 0.47244094488188976,
                    "duration": 0.26092599999999777
                },
                {
                    "name": "B2",
                    "midi": 47,
                    "time": 93.15058199999979,
                    "velocity": 0.3700787401574803,
                    "duration": 0.26092599999999777
                },
                {
                    "name": "F#3",
                    "midi": 54,
                    "time": 93.15058199999979,
                    "velocity": 0.3700787401574803,
                    "duration": 0.26092599999999777
                },
                {
                    "name": "D4",
                    "midi": 62,
                    "time": 93.15058199999979,
                    "velocity": 0.4645669291338583,
                    "duration": 0.26092599999999777
                },
                {
                    "name": "B3",
                    "midi": 59,
                    "time": 93.15058199999979,
                    "velocity": 0.3700787401574803,
                    "duration": 0.26092599999999777
                },
                {
                    "name": "F#3",
                    "midi": 54,
                    "time": 93.41150799999978,
                    "velocity": 0.36220472440944884,
                    "duration": 0.26092599999999777
                },
                {
                    "name": "B2",
                    "midi": 47,
                    "time": 93.41150799999978,
                    "velocity": 0.36220472440944884,
                    "duration": 0.26092599999999777
                },
                {
                    "name": "D4",
                    "midi": 62,
                    "time": 93.41150799999978,
                    "velocity": 0.4566929133858268,
                    "duration": 0.26092599999999777
                },
                {
                    "name": "B3",
                    "midi": 59,
                    "time": 93.41150799999978,
                    "velocity": 0.36220472440944884,
                    "duration": 0.26092599999999777
                },
                {
                    "name": "F#3",
                    "midi": 54,
                    "time": 94.19428599999978,
                    "velocity": 0.4330708661417323,
                    "duration": 0.26092599999999777
                },
                {
                    "name": "A2",
                    "midi": 45,
                    "time": 94.19428599999978,
                    "velocity": 0.4330708661417323,
                    "duration": 0.26092599999999777
                },
                {
                    "name": "A3",
                    "midi": 57,
                    "time": 94.19428599999978,
                    "velocity": 0.4330708661417323,
                    "duration": 0.26092599999999777
                },
                {
                    "name": "D4",
                    "midi": 62,
                    "time": 94.19428599999978,
                    "velocity": 0.5433070866141733,
                    "duration": 0.26092599999999777
                },
                {
                    "name": "F#3",
                    "midi": 54,
                    "time": 94.45521199999978,
                    "velocity": 0.4251968503937008,
                    "duration": 0.26092599999999777
                },
                {
                    "name": "A2",
                    "midi": 45,
                    "time": 94.45521199999978,
                    "velocity": 0.4251968503937008,
                    "duration": 0.26092599999999777
                },
                {
                    "name": "D4",
                    "midi": 62,
                    "time": 94.45521199999978,
                    "velocity": 0.5275590551181102,
                    "duration": 0.26092599999999777
                },
                {
                    "name": "A3",
                    "midi": 57,
                    "time": 94.45521199999978,
                    "velocity": 0.4251968503937008,
                    "duration": 0.26092599999999777
                },
                {
                    "name": "F#3",
                    "midi": 54,
                    "time": 94.71613799999977,
                    "velocity": 0.4094488188976378,
                    "duration": 0.26092599999999777
                },
                {
                    "name": "A2",
                    "midi": 45,
                    "time": 94.71613799999977,
                    "velocity": 0.4094488188976378,
                    "duration": 0.26092599999999777
                },
                {
                    "name": "D4",
                    "midi": 62,
                    "time": 94.71613799999977,
                    "velocity": 0.5196850393700787,
                    "duration": 0.26092599999999777
                },
                {
                    "name": "A3",
                    "midi": 57,
                    "time": 94.71613799999977,
                    "velocity": 0.4094488188976378,
                    "duration": 0.26092599999999777
                },
                {
                    "name": "F#3",
                    "midi": 54,
                    "time": 94.97706399999977,
                    "velocity": 0.4015748031496063,
                    "duration": 0.26092599999999777
                },
                {
                    "name": "A2",
                    "midi": 45,
                    "time": 94.97706399999977,
                    "velocity": 0.4015748031496063,
                    "duration": 0.26092599999999777
                },
                {
                    "name": "D4",
                    "midi": 62,
                    "time": 94.97706399999977,
                    "velocity": 0.5118110236220472,
                    "duration": 0.26092599999999777
                },
                {
                    "name": "A3",
                    "midi": 57,
                    "time": 94.97706399999977,
                    "velocity": 0.4015748031496063,
                    "duration": 0.26092599999999777
                },
                {
                    "name": "D4",
                    "midi": 62,
                    "time": 95.23798999999977,
                    "velocity": 0.5039370078740157,
                    "duration": 0.26092599999999777
                },
                {
                    "name": "A2",
                    "midi": 45,
                    "time": 95.23798999999977,
                    "velocity": 0.3937007874015748,
                    "duration": 0.26092599999999777
                },
                {
                    "name": "F#3",
                    "midi": 54,
                    "time": 95.23798999999977,
                    "velocity": 0.3937007874015748,
                    "duration": 0.26092599999999777
                },
                {
                    "name": "A3",
                    "midi": 57,
                    "time": 95.23798999999977,
                    "velocity": 0.3937007874015748,
                    "duration": 0.26092599999999777
                },
                {
                    "name": "F#3",
                    "midi": 54,
                    "time": 95.49891599999977,
                    "velocity": 0.3937007874015748,
                    "duration": 0.26092599999999777
                },
                {
                    "name": "A3",
                    "midi": 57,
                    "time": 95.49891599999977,
                    "velocity": 0.3937007874015748,
                    "duration": 0.26092599999999777
                },
                {
                    "name": "D4",
                    "midi": 62,
                    "time": 95.49891599999977,
                    "velocity": 0.49606299212598426,
                    "duration": 0.26092599999999777
                },
                {
                    "name": "A2",
                    "midi": 45,
                    "time": 95.49891599999977,
                    "velocity": 0.3937007874015748,
                    "duration": 0.26092599999999777
                },
                {
                    "name": "F#3",
                    "midi": 54,
                    "time": 95.75984199999976,
                    "velocity": 0.3858267716535433,
                    "duration": 0.26092599999999777
                },
                {
                    "name": "A3",
                    "midi": 57,
                    "time": 95.75984199999976,
                    "velocity": 0.3858267716535433,
                    "duration": 0.26092599999999777
                },
                {
                    "name": "D4",
                    "midi": 62,
                    "time": 95.75984199999976,
                    "velocity": 0.4881889763779528,
                    "duration": 0.26092599999999777
                },
                {
                    "name": "A2",
                    "midi": 45,
                    "time": 95.75984199999976,
                    "velocity": 0.3858267716535433,
                    "duration": 0.26092599999999777
                },
                {
                    "name": "D4",
                    "midi": 62,
                    "time": 96.02076799999976,
                    "velocity": 0.47244094488188976,
                    "duration": 0.26092599999999777
                },
                {
                    "name": "A2",
                    "midi": 45,
                    "time": 96.02076799999976,
                    "velocity": 0.3779527559055118,
                    "duration": 0.26092599999999777
                },
                {
                    "name": "F#3",
                    "midi": 54,
                    "time": 96.02076799999976,
                    "velocity": 0.3779527559055118,
                    "duration": 0.26092599999999777
                },
                {
                    "name": "A3",
                    "midi": 57,
                    "time": 96.02076799999976,
                    "velocity": 0.3779527559055118,
                    "duration": 0.26092599999999777
                },
                {
                    "name": "D4",
                    "midi": 62,
                    "time": 96.28169399999976,
                    "velocity": 0.4645669291338583,
                    "duration": 0.26092599999999777
                },
                {
                    "name": "A2",
                    "midi": 45,
                    "time": 96.28169399999976,
                    "velocity": 0.3700787401574803,
                    "duration": 0.26092599999999777
                },
                {
                    "name": "F#3",
                    "midi": 54,
                    "time": 96.28169399999976,
                    "velocity": 0.3700787401574803,
                    "duration": 0.26092599999999777
                },
                {
                    "name": "A3",
                    "midi": 57,
                    "time": 96.28169399999976,
                    "velocity": 0.3700787401574803,
                    "duration": 0.26092599999999777
                },
                {
                    "name": "D4",
                    "midi": 62,
                    "time": 96.54261999999976,
                    "velocity": 0.4566929133858268,
                    "duration": 0.26092599999999777
                },
                {
                    "name": "A2",
                    "midi": 45,
                    "time": 96.54261999999976,
                    "velocity": 0.36220472440944884,
                    "duration": 0.26092599999999777
                },
                {
                    "name": "F#3",
                    "midi": 54,
                    "time": 96.54261999999976,
                    "velocity": 0.36220472440944884,
                    "duration": 0.26092599999999777
                },
                {
                    "name": "A3",
                    "midi": 57,
                    "time": 96.54261999999976,
                    "velocity": 0.36220472440944884,
                    "duration": 0.26092599999999777
                },
                {
                    "name": "F#4",
                    "midi": 66,
                    "time": 97.32539799999975,
                    "velocity": 0.5905511811023622,
                    "duration": 0.26092599999999777
                },
                {
                    "name": "D4",
                    "midi": 62,
                    "time": 97.32539799999975,
                    "velocity": 0.4645669291338583,
                    "duration": 0.26092599999999777
                },
                {
                    "name": "G#2",
                    "midi": 44,
                    "time": 97.32539799999975,
                    "velocity": 0.4645669291338583,
                    "duration": 0.26092599999999777
                },
                {
                    "name": "F#3",
                    "midi": 54,
                    "time": 97.32539799999975,
                    "velocity": 0.4645669291338583,
                    "duration": 0.26092599999999777
                },
                {
                    "name": "B3",
                    "midi": 59,
                    "time": 97.32539799999975,
                    "velocity": 0.4645669291338583,
                    "duration": 0.26092599999999777
                },
                {
                    "name": "F#3",
                    "midi": 54,
                    "time": 97.58632399999975,
                    "velocity": 0.4645669291338583,
                    "duration": 0.26092599999999777
                },
                {
                    "name": "D4",
                    "midi": 62,
                    "time": 97.58632399999975,
                    "velocity": 0.4645669291338583,
                    "duration": 0.26092599999999777
                },
                {
                    "name": "G#2",
                    "midi": 44,
                    "time": 97.58632399999975,
                    "velocity": 0.4645669291338583,
                    "duration": 0.26092599999999777
                },
                {
                    "name": "F#4",
                    "midi": 66,
                    "time": 97.58632399999975,
                    "velocity": 0.5905511811023622,
                    "duration": 0.26092599999999777
                },
                {
                    "name": "B3",
                    "midi": 59,
                    "time": 97.58632399999975,
                    "velocity": 0.4645669291338583,
                    "duration": 0.26092599999999777
                },
                {
                    "name": "F#3",
                    "midi": 54,
                    "time": 97.84724999999975,
                    "velocity": 0.4645669291338583,
                    "duration": 0.26092599999999777
                },
                {
                    "name": "D4",
                    "midi": 62,
                    "time": 97.84724999999975,
                    "velocity": 0.4645669291338583,
                    "duration": 0.26092599999999777
                },
                {
                    "name": "G#2",
                    "midi": 44,
                    "time": 97.84724999999975,
                    "velocity": 0.4645669291338583,
                    "duration": 0.26092599999999777
                },
                {
                    "name": "B3",
                    "midi": 59,
                    "time": 97.84724999999975,
                    "velocity": 0.4645669291338583,
                    "duration": 0.26092599999999777
                },
                {
                    "name": "F#4",
                    "midi": 66,
                    "time": 97.84724999999975,
                    "velocity": 0.5905511811023622,
                    "duration": 0.26092599999999777
                },
                {
                    "name": "D4",
                    "midi": 62,
                    "time": 98.10817599999974,
                    "velocity": 0.4566929133858268,
                    "duration": 0.26092599999999777
                },
                {
                    "name": "G#2",
                    "midi": 44,
                    "time": 98.10817599999974,
                    "velocity": 0.4566929133858268,
                    "duration": 0.26092599999999777
                },
                {
                    "name": "F#3",
                    "midi": 54,
                    "time": 98.10817599999974,
                    "velocity": 0.4566929133858268,
                    "duration": 0.26092599999999777
                },
                {
                    "name": "B3",
                    "midi": 59,
                    "time": 98.10817599999974,
                    "velocity": 0.4566929133858268,
                    "duration": 0.26092599999999777
                },
                {
                    "name": "F#4",
                    "midi": 66,
                    "time": 98.10817599999974,
                    "velocity": 0.5905511811023622,
                    "duration": 0.26092599999999777
                },
                {
                    "name": "D4",
                    "midi": 62,
                    "time": 98.36910199999974,
                    "velocity": 0.4566929133858268,
                    "duration": 0.26092599999999777
                },
                {
                    "name": "F#4",
                    "midi": 66,
                    "time": 98.36910199999974,
                    "velocity": 0.5905511811023622,
                    "duration": 0.26092599999999777
                },
                {
                    "name": "G#2",
                    "midi": 44,
                    "time": 98.36910199999974,
                    "velocity": 0.4566929133858268,
                    "duration": 0.26092599999999777
                },
                {
                    "name": "F#3",
                    "midi": 54,
                    "time": 98.36910199999974,
                    "velocity": 0.4566929133858268,
                    "duration": 0.26092599999999777
                },
                {
                    "name": "B3",
                    "midi": 59,
                    "time": 98.36910199999974,
                    "velocity": 0.4566929133858268,
                    "duration": 0.26092599999999777
                },
                {
                    "name": "B3",
                    "midi": 59,
                    "time": 98.89095399999974,
                    "velocity": 0.5433070866141733,
                    "duration": 0.26092599999999777
                },
                {
                    "name": "C#4",
                    "midi": 61,
                    "time": 98.89095399999974,
                    "velocity": 0.5433070866141733,
                    "duration": 0.26092599999999777
                },
                {
                    "name": "G2",
                    "midi": 43,
                    "time": 98.89095399999974,
                    "velocity": 0.5433070866141733,
                    "duration": 0.26092599999999777
                },
                {
                    "name": "F3",
                    "midi": 53,
                    "time": 98.89095399999974,
                    "velocity": 0.5433070866141733,
                    "duration": 0.26092599999999777
                },
                {
                    "name": "F4",
                    "midi": 65,
                    "time": 98.89095399999974,
                    "velocity": 0.6771653543307087,
                    "duration": 0.26092599999999777
                },
                {
                    "name": "F3",
                    "midi": 53,
                    "time": 99.15187999999974,
                    "velocity": 0.5511811023622047,
                    "duration": 0.26092599999999777
                },
                {
                    "name": "C#4",
                    "midi": 61,
                    "time": 99.15187999999974,
                    "velocity": 0.5511811023622047,
                    "duration": 0.26092599999999777
                },
                {
                    "name": "G2",
                    "midi": 43,
                    "time": 99.15187999999974,
                    "velocity": 0.5511811023622047,
                    "duration": 0.26092599999999777
                },
                {
                    "name": "F4",
                    "midi": 65,
                    "time": 99.15187999999974,
                    "velocity": 0.6929133858267716,
                    "duration": 0.26092599999999777
                },
                {
                    "name": "B3",
                    "midi": 59,
                    "time": 99.15187999999974,
                    "velocity": 0.5511811023622047,
                    "duration": 0.26092599999999777
                },
                {
                    "name": "G2",
                    "midi": 43,
                    "time": 99.41280599999973,
                    "velocity": 0.5669291338582677,
                    "duration": 0.26092599999999777
                },
                {
                    "name": "C#4",
                    "midi": 61,
                    "time": 99.41280599999973,
                    "velocity": 0.5669291338582677,
                    "duration": 0.26092599999999777
                },
                {
                    "name": "B3",
                    "midi": 59,
                    "time": 99.41280599999973,
                    "velocity": 0.5669291338582677,
                    "duration": 0.26092599999999777
                },
                {
                    "name": "F3",
                    "midi": 53,
                    "time": 99.41280599999973,
                    "velocity": 0.5669291338582677,
                    "duration": 0.26092599999999777
                },
                {
                    "name": "F4",
                    "midi": 65,
                    "time": 99.41280599999973,
                    "velocity": 0.7086614173228346,
                    "duration": 0.26092599999999777
                },
                {
                    "name": "F4",
                    "midi": 65,
                    "time": 99.67373199999973,
                    "velocity": 0.7322834645669292,
                    "duration": 0.26092599999999777
                },
                {
                    "name": "C#4",
                    "midi": 61,
                    "time": 99.67373199999973,
                    "velocity": 0.5748031496062992,
                    "duration": 0.26092599999999777
                },
                {
                    "name": "G2",
                    "midi": 43,
                    "time": 99.67373199999973,
                    "velocity": 0.5748031496062992,
                    "duration": 0.26092599999999777
                },
                {
                    "name": "F3",
                    "midi": 53,
                    "time": 99.67373199999973,
                    "velocity": 0.5748031496062992,
                    "duration": 0.26092599999999777
                },
                {
                    "name": "B3",
                    "midi": 59,
                    "time": 99.67373199999973,
                    "velocity": 0.5748031496062992,
                    "duration": 0.26092599999999777
                },
                {
                    "name": "F#5",
                    "midi": 78,
                    "time": 100.45650999999972,
                    "velocity": 0.2125984251968504,
                    "duration": 0.2478796999999986
                },
                {
                    "name": "A#5",
                    "midi": 82,
                    "time": 100.45650999999972,
                    "velocity": 0.25196850393700787,
                    "duration": 0.2478796999999986
                },
                {
                    "name": "F#5",
                    "midi": 78,
                    "time": 100.71743599999972,
                    "velocity": 0.2283464566929134,
                    "duration": 0.2478796999999986
                },
                {
                    "name": "A#5",
                    "midi": 82,
                    "time": 100.71743599999972,
                    "velocity": 0.2755905511811024,
                    "duration": 0.2478796999999986
                },
                {
                    "name": "F#5",
                    "midi": 78,
                    "time": 100.97836199999972,
                    "velocity": 0.2125984251968504,
                    "duration": 0.2478796999999986
                },
                {
                    "name": "A#5",
                    "midi": 82,
                    "time": 100.97836199999972,
                    "velocity": 0.25196850393700787,
                    "duration": 0.2478796999999986
                },
                {
                    "name": "F#5",
                    "midi": 78,
                    "time": 101.23928799999972,
                    "velocity": 0.2125984251968504,
                    "duration": 0.2478796999999986
                },
                {
                    "name": "A#5",
                    "midi": 82,
                    "time": 101.23928799999972,
                    "velocity": 0.25196850393700787,
                    "duration": 0.2478796999999986
                },
                {
                    "name": "F#5",
                    "midi": 78,
                    "time": 102.02206599999971,
                    "velocity": 0.23622047244094488,
                    "duration": 0.2478796999999986
                },
                {
                    "name": "A#5",
                    "midi": 82,
                    "time": 102.02206599999971,
                    "velocity": 0.28346456692913385,
                    "duration": 0.2478796999999986
                },
                {
                    "name": "F#5",
                    "midi": 78,
                    "time": 102.28299199999971,
                    "velocity": 0.23622047244094488,
                    "duration": 0.2478796999999986
                },
                {
                    "name": "A#5",
                    "midi": 82,
                    "time": 102.28299199999971,
                    "velocity": 0.28346456692913385,
                    "duration": 0.2478796999999986
                },
                {
                    "name": "F#5",
                    "midi": 78,
                    "time": 102.8048439999997,
                    "velocity": 0.2283464566929134,
                    "duration": 0.2478796999999986
                },
                {
                    "name": "A#5",
                    "midi": 82,
                    "time": 102.8048439999997,
                    "velocity": 0.2755905511811024,
                    "duration": 0.2478796999999986
                },
                {
                    "name": "B4",
                    "midi": 71,
                    "time": 103.5876219999997,
                    "velocity": 0.2125984251968504,
                    "duration": 0.2478796999999986
                },
                {
                    "name": "D#5",
                    "midi": 75,
                    "time": 103.5876219999997,
                    "velocity": 0.25196850393700787,
                    "duration": 0.2478796999999986
                },
                {
                    "name": "B4",
                    "midi": 71,
                    "time": 103.8485479999997,
                    "velocity": 0.2283464566929134,
                    "duration": 0.2478796999999986
                },
                {
                    "name": "D#5",
                    "midi": 75,
                    "time": 103.8485479999997,
                    "velocity": 0.2755905511811024,
                    "duration": 0.2478796999999986
                },
                {
                    "name": "D#5",
                    "midi": 75,
                    "time": 104.37039999999969,
                    "velocity": 0.25196850393700787,
                    "duration": 0.2478796999999986
                },
                {
                    "name": "B4",
                    "midi": 71,
                    "time": 104.37039999999969,
                    "velocity": 0.2125984251968504,
                    "duration": 0.2478796999999986
                },
                {
                    "name": "D#5",
                    "midi": 75,
                    "time": 104.63132599999969,
                    "velocity": 0.25196850393700787,
                    "duration": 0.2478796999999986
                },
                {
                    "name": "B4",
                    "midi": 71,
                    "time": 104.63132599999969,
                    "velocity": 0.2125984251968504,
                    "duration": 0.2478796999999986
                },
                {
                    "name": "C#5",
                    "midi": 73,
                    "time": 105.15317799999968,
                    "velocity": 0.2125984251968504,
                    "duration": 0.2478796999999986
                },
                {
                    "name": "F#5",
                    "midi": 78,
                    "time": 105.15317799999968,
                    "velocity": 0.25196850393700787,
                    "duration": 0.2478796999999986
                },
                {
                    "name": "C#5",
                    "midi": 73,
                    "time": 105.41410399999968,
                    "velocity": 0.2283464566929134,
                    "duration": 0.2478796999999986
                },
                {
                    "name": "F#5",
                    "midi": 78,
                    "time": 105.41410399999968,
                    "velocity": 0.2755905511811024,
                    "duration": 0.2478796999999986
                },
                {
                    "name": "C#5",
                    "midi": 73,
                    "time": 105.67502999999968,
                    "velocity": 0.2125984251968504,
                    "duration": 0.2478796999999986
                },
                {
                    "name": "F#5",
                    "midi": 78,
                    "time": 105.67502999999968,
                    "velocity": 0.25196850393700787,
                    "duration": 0.2478796999999986
                },
                {
                    "name": "C#5",
                    "midi": 73,
                    "time": 105.93595599999968,
                    "velocity": 0.2125984251968504,
                    "duration": 0.2478796999999986
                },
                {
                    "name": "F#5",
                    "midi": 78,
                    "time": 105.93595599999968,
                    "velocity": 0.25196850393700787,
                    "duration": 0.2478796999999986
                },
                {
                    "name": "C#5",
                    "midi": 73,
                    "time": 106.19688199999968,
                    "velocity": 0.2125984251968504,
                    "duration": 0.19025854166666534
                },
                {
                    "name": "F#5",
                    "midi": 78,
                    "time": 106.19688199999968,
                    "velocity": 0.25196850393700787,
                    "duration": 0.2478796999999986
                },
                {
                    "name": "A#5",
                    "midi": 82,
                    "time": 106.71873399999967,
                    "velocity": 0.3228346456692913,
                    "duration": 0.2478796999999986
                },
                {
                    "name": "F#5",
                    "midi": 78,
                    "time": 106.71873399999967,
                    "velocity": 0.2677165354330709,
                    "duration": 0.2478796999999986
                },
                {
                    "name": "F#5",
                    "midi": 78,
                    "time": 106.97965999999967,
                    "velocity": 0.2677165354330709,
                    "duration": 0.2478796999999986
                },
                {
                    "name": "A#5",
                    "midi": 82,
                    "time": 106.97965999999967,
                    "velocity": 0.3228346456692913,
                    "duration": 0.2478796999999986
                },
                {
                    "name": "F#5",
                    "midi": 78,
                    "time": 108.28428999999967,
                    "velocity": 0.2755905511811024,
                    "duration": 0.5218519999999955
                },
                {
                    "name": "A#5",
                    "midi": 82,
                    "time": 108.28428999999967,
                    "velocity": 0.33070866141732286,
                    "duration": 0.5218519999999955
                },
                {
                    "name": "C#5",
                    "midi": 73,
                    "time": 109.06706799999967,
                    "velocity": 0.2755905511811024,
                    "duration": 0.5218519999999955
                },
                {
                    "name": "F#5",
                    "midi": 78,
                    "time": 109.06706799999967,
                    "velocity": 0.33070866141732286,
                    "duration": 0.5218519999999955
                },
                {
                    "name": "B4",
                    "midi": 71,
                    "time": 109.84984599999966,
                    "velocity": 0.2677165354330709,
                    "duration": 0.2478796999999986
                },
                {
                    "name": "D#5",
                    "midi": 75,
                    "time": 109.84984599999966,
                    "velocity": 0.3228346456692913,
                    "duration": 0.2478796999999986
                },
                {
                    "name": "D#5",
                    "midi": 75,
                    "time": 110.11077199999966,
                    "velocity": 0.3228346456692913,
                    "duration": 0.2478796999999986
                },
                {
                    "name": "B4",
                    "midi": 71,
                    "time": 110.11077199999966,
                    "velocity": 0.2677165354330709,
                    "duration": 0.2478796999999986
                },
                {
                    "name": "F#5",
                    "midi": 78,
                    "time": 111.41540199999966,
                    "velocity": 0.28346456692913385,
                    "duration": 0.2478796999999986
                },
                {
                    "name": "C#5",
                    "midi": 73,
                    "time": 111.41540199999966,
                    "velocity": 0.2440944881889764,
                    "duration": 0.2478796999999986
                },
                {
                    "name": "F#5",
                    "midi": 78,
                    "time": 111.67632799999966,
                    "velocity": 0.30708661417322836,
                    "duration": 0.2478796999999986
                },
                {
                    "name": "C#5",
                    "midi": 73,
                    "time": 111.67632799999966,
                    "velocity": 0.25984251968503935,
                    "duration": 0.2478796999999986
                },
                {
                    "name": "F#5",
                    "midi": 78,
                    "time": 111.93725399999965,
                    "velocity": 0.28346456692913385,
                    "duration": 0.2478796999999986
                },
                {
                    "name": "C#5",
                    "midi": 73,
                    "time": 111.93725399999965,
                    "velocity": 0.2440944881889764,
                    "duration": 0.2478796999999986
                },
                {
                    "name": "F#5",
                    "midi": 78,
                    "time": 112.19817999999965,
                    "velocity": 0.28346456692913385,
                    "duration": 0.2478796999999986
                },
                {
                    "name": "C#5",
                    "midi": 73,
                    "time": 112.19817999999965,
                    "velocity": 0.2440944881889764,
                    "duration": 0.2478796999999986
                },
                {
                    "name": "F#5",
                    "midi": 78,
                    "time": 112.45910599999965,
                    "velocity": 0.28346456692913385,
                    "duration": 0.2478796999999986
                },
                {
                    "name": "C#5",
                    "midi": 73,
                    "time": 112.45910599999965,
                    "velocity": 0.2440944881889764,
                    "duration": 0.2478796999999986
                },
                {
                    "name": "F5",
                    "midi": 77,
                    "time": 112.98095799999965,
                    "velocity": 0.28346456692913385,
                    "duration": 0.2478796999999986
                },
                {
                    "name": "D5",
                    "midi": 74,
                    "time": 112.98095799999965,
                    "velocity": 0.2440944881889764,
                    "duration": 0.2478796999999986
                },
                {
                    "name": "F5",
                    "midi": 77,
                    "time": 113.24188399999964,
                    "velocity": 0.30708661417322836,
                    "duration": 0.2478796999999986
                },
                {
                    "name": "D5",
                    "midi": 74,
                    "time": 113.24188399999964,
                    "velocity": 0.25984251968503935,
                    "duration": 0.2478796999999986
                },
                {
                    "name": "F5",
                    "midi": 77,
                    "time": 113.50280999999964,
                    "velocity": 0.28346456692913385,
                    "duration": 0.2478796999999986
                },
                {
                    "name": "D5",
                    "midi": 74,
                    "time": 113.50280999999964,
                    "velocity": 0.2440944881889764,
                    "duration": 0.2478796999999986
                },
                {
                    "name": "F5",
                    "midi": 77,
                    "time": 113.76373599999964,
                    "velocity": 0.28346456692913385,
                    "duration": 0.2478796999999986
                },
                {
                    "name": "D5",
                    "midi": 74,
                    "time": 113.76373599999964,
                    "velocity": 0.2440944881889764,
                    "duration": 0.2478796999999986
                },
                {
                    "name": "F#5",
                    "midi": 78,
                    "time": 114.54651399999963,
                    "velocity": 0.3228346456692913,
                    "duration": 0.2478796999999986
                },
                {
                    "name": "D#5",
                    "midi": 75,
                    "time": 114.54651399999963,
                    "velocity": 0.2677165354330709,
                    "duration": 0.2478796999999986
                },
                {
                    "name": "F#5",
                    "midi": 78,
                    "time": 114.80743999999963,
                    "velocity": 0.3228346456692913,
                    "duration": 0.2478796999999986
                },
                {
                    "name": "D#5",
                    "midi": 75,
                    "time": 114.80743999999963,
                    "velocity": 0.2677165354330709,
                    "duration": 0.2478796999999986
                },
                {
                    "name": "A#4",
                    "midi": 70,
                    "time": 115.32929199999963,
                    "velocity": 0.31496062992125984,
                    "duration": 0.2478796999999986
                },
                {
                    "name": "F#4",
                    "midi": 66,
                    "time": 115.32929199999963,
                    "velocity": 0.25984251968503935,
                    "duration": 0.2478796999999986
                },
                {
                    "name": "A#4",
                    "midi": 70,
                    "time": 115.59021799999962,
                    "velocity": 0.31496062992125984,
                    "duration": 0.2478796999999986
                },
                {
                    "name": "F#4",
                    "midi": 66,
                    "time": 115.59021799999962,
                    "velocity": 0.25984251968503935,
                    "duration": 0.2478796999999986
                },
                {
                    "name": "F5",
                    "midi": 77,
                    "time": 116.11206999999962,
                    "velocity": 0.33858267716535434,
                    "duration": 0.2478796999999986
                },
                {
                    "name": "D5",
                    "midi": 74,
                    "time": 116.11206999999962,
                    "velocity": 0.28346456692913385,
                    "duration": 0.2478796999999986
                },
                {
                    "name": "F5",
                    "midi": 77,
                    "time": 116.37299599999962,
                    "velocity": 0.33858267716535434,
                    "duration": 0.2478796999999986
                },
                {
                    "name": "D5",
                    "midi": 74,
                    "time": 116.37299599999962,
                    "velocity": 0.28346456692913385,
                    "duration": 0.2478796999999986
                },
                {
                    "name": "F5",
                    "midi": 77,
                    "time": 116.63392199999961,
                    "velocity": 0.30708661417322836,
                    "duration": 0.2478796999999986
                },
                {
                    "name": "D5",
                    "midi": 74,
                    "time": 116.63392199999961,
                    "velocity": 0.2125984251968504,
                    "duration": 0.2478796999999986
                },
                {
                    "name": "D4",
                    "midi": 62,
                    "time": 116.89484799999961,
                    "velocity": 0.2755905511811024,
                    "duration": 0.2478796999999986
                },
                {
                    "name": "F4",
                    "midi": 65,
                    "time": 116.89484799999961,
                    "velocity": 0.33070866141732286,
                    "duration": 0.2478796999999986
                },
                {
                    "name": "D4",
                    "midi": 62,
                    "time": 117.15577399999961,
                    "velocity": 0.2047244094488189,
                    "duration": 0.2478796999999986
                },
                {
                    "name": "F4",
                    "midi": 65,
                    "time": 117.15577399999961,
                    "velocity": 0.28346456692913385,
                    "duration": 0.2478796999999986
                },
                {
                    "name": "F#5",
                    "midi": 78,
                    "time": 117.6776259999996,
                    "velocity": 0.3543307086614173,
                    "duration": 0.2478796999999986
                },
                {
                    "name": "D#5",
                    "midi": 75,
                    "time": 117.6776259999996,
                    "velocity": 0.3543307086614173,
                    "duration": 0.2478796999999986
                },
                {
                    "name": "F#5",
                    "midi": 78,
                    "time": 117.9385519999996,
                    "velocity": 0.36220472440944884,
                    "duration": 0.2478796999999986
                },
                {
                    "name": "D#5",
                    "midi": 75,
                    "time": 117.9385519999996,
                    "velocity": 0.36220472440944884,
                    "duration": 0.2478796999999986
                },
                {
                    "name": "F#5",
                    "midi": 78,
                    "time": 118.1994779999996,
                    "velocity": 0.3937007874015748,
                    "duration": 0.2478796999999986
                },
                {
                    "name": "D#5",
                    "midi": 75,
                    "time": 118.1994779999996,
                    "velocity": 0.3937007874015748,
                    "duration": 0.2478796999999986
                },
                {
                    "name": "F#5",
                    "midi": 78,
                    "time": 118.4604039999996,
                    "velocity": 0.4094488188976378,
                    "duration": 0.2478796999999986
                },
                {
                    "name": "D#5",
                    "midi": 75,
                    "time": 118.4604039999996,
                    "velocity": 0.4094488188976378,
                    "duration": 0.2478796999999986
                },
                {
                    "name": "F#5",
                    "midi": 78,
                    "time": 118.7213299999996,
                    "velocity": 0.4330708661417323,
                    "duration": 0.2478796999999986
                },
                {
                    "name": "D#5",
                    "midi": 75,
                    "time": 118.7213299999996,
                    "velocity": 0.4330708661417323,
                    "duration": 0.19025854166666534
                },
                {
                    "name": "A#5",
                    "midi": 82,
                    "time": 119.24318199999959,
                    "velocity": 0.5039370078740157,
                    "duration": 0.2478796999999986
                },
                {
                    "name": "F#5",
                    "midi": 78,
                    "time": 119.24318199999959,
                    "velocity": 0.5039370078740157,
                    "duration": 0.2478796999999986
                },
                {
                    "name": "A#5",
                    "midi": 82,
                    "time": 119.50410799999959,
                    "velocity": 0.5196850393700787,
                    "duration": 0.2478796999999986
                },
                {
                    "name": "F#5",
                    "midi": 78,
                    "time": 119.50410799999959,
                    "velocity": 0.5196850393700787,
                    "duration": 0.2478796999999986
                },
                {
                    "name": "A#5",
                    "midi": 82,
                    "time": 119.76503399999959,
                    "velocity": 0.5196850393700787,
                    "duration": 0.2478796999999986
                },
                {
                    "name": "F#5",
                    "midi": 78,
                    "time": 119.76503399999959,
                    "velocity": 0.5196850393700787,
                    "duration": 0.2478796999999986
                },
                {
                    "name": "A#5",
                    "midi": 82,
                    "time": 120.02595999999959,
                    "velocity": 0.5196850393700787,
                    "duration": 0.2478796999999986
                },
                {
                    "name": "F#5",
                    "midi": 78,
                    "time": 120.02595999999959,
                    "velocity": 0.5196850393700787,
                    "duration": 0.2478796999999986
                },
                {
                    "name": "A#5",
                    "midi": 82,
                    "time": 120.80873799999958,
                    "velocity": 0.48031496062992124,
                    "duration": 0.2478796999999986
                },
                {
                    "name": "F#5",
                    "midi": 78,
                    "time": 120.80873799999958,
                    "velocity": 0.48031496062992124,
                    "duration": 0.2478796999999986
                },
                {
                    "name": "F#5",
                    "midi": 78,
                    "time": 121.06966399999958,
                    "velocity": 0.48031496062992124,
                    "duration": 0.2478796999999986
                },
                {
                    "name": "A#5",
                    "midi": 82,
                    "time": 121.06966399999958,
                    "velocity": 0.48031496062992124,
                    "duration": 0.2478796999999986
                },
                {
                    "name": "F#5",
                    "midi": 78,
                    "time": 121.59151599999957,
                    "velocity": 0.4881889763779528,
                    "duration": 0.2478796999999986
                },
                {
                    "name": "A#5",
                    "midi": 82,
                    "time": 121.59151599999957,
                    "velocity": 0.4881889763779528,
                    "duration": 0.2478796999999986
                },
                {
                    "name": "F#5",
                    "midi": 78,
                    "time": 121.85244199999957,
                    "velocity": 0.4881889763779528,
                    "duration": 0.2478796999999986
                },
                {
                    "name": "A#5",
                    "midi": 82,
                    "time": 121.85244199999957,
                    "velocity": 0.4881889763779528,
                    "duration": 0.2478796999999986
                },
                {
                    "name": "F5",
                    "midi": 77,
                    "time": 122.37429399999957,
                    "velocity": 0.3937007874015748,
                    "duration": 0.2478796999999986
                },
                {
                    "name": "A5",
                    "midi": 81,
                    "time": 122.37429399999957,
                    "velocity": 0.3937007874015748,
                    "duration": 0.2478796999999986
                },
                {
                    "name": "F5",
                    "midi": 77,
                    "time": 122.63521999999956,
                    "velocity": 0.3937007874015748,
                    "duration": 0.2478796999999986
                },
                {
                    "name": "A5",
                    "midi": 81,
                    "time": 122.63521999999956,
                    "velocity": 0.3937007874015748,
                    "duration": 0.2478796999999986
                },
                {
                    "name": "A5",
                    "midi": 81,
                    "time": 123.15707199999956,
                    "velocity": 0.4566929133858268,
                    "duration": 0.2478796999999986
                },
                {
                    "name": "F5",
                    "midi": 77,
                    "time": 123.15707199999956,
                    "velocity": 0.4566929133858268,
                    "duration": 0.2478796999999986
                },
                {
                    "name": "F#5",
                    "midi": 78,
                    "time": 123.93984999999955,
                    "velocity": 0.4330708661417323,
                    "duration": 0.2478796999999986
                },
                {
                    "name": "A#5",
                    "midi": 82,
                    "time": 123.93984999999955,
                    "velocity": 0.4330708661417323,
                    "duration": 0.2478796999999986
                },
                {
                    "name": "F#5",
                    "midi": 78,
                    "time": 124.20077599999955,
                    "velocity": 0.49606299212598426,
                    "duration": 0.2478796999999986
                },
                {
                    "name": "A#5",
                    "midi": 82,
                    "time": 124.20077599999955,
                    "velocity": 0.49606299212598426,
                    "duration": 0.2478796999999986
                },
                {
                    "name": "F#5",
                    "midi": 78,
                    "time": 125.50540599999955,
                    "velocity": 0.5196850393700787,
                    "duration": 0.26092599999999777
                },
                {
                    "name": "A#5",
                    "midi": 82,
                    "time": 125.50540599999955,
                    "velocity": 0.5196850393700787,
                    "duration": 0.26092599999999777
                },
                {
                    "name": "F#5",
                    "midi": 78,
                    "time": 125.76633199999955,
                    "velocity": 0.5196850393700787,
                    "duration": 0.26092599999999777
                },
                {
                    "name": "A#5",
                    "midi": 82,
                    "time": 125.76633199999955,
                    "velocity": 0.5196850393700787,
                    "duration": 0.26092599999999777
                },
                {
                    "name": "F#5",
                    "midi": 78,
                    "time": 126.02725799999955,
                    "velocity": 0.5039370078740157,
                    "duration": 0.26092599999999777
                },
                {
                    "name": "A#5",
                    "midi": 82,
                    "time": 126.02725799999955,
                    "velocity": 0.5039370078740157,
                    "duration": 0.26092599999999777
                },
                {
                    "name": "F#5",
                    "midi": 78,
                    "time": 126.28818399999955,
                    "velocity": 0.5039370078740157,
                    "duration": 0.26092599999999777
                },
                {
                    "name": "A#5",
                    "midi": 82,
                    "time": 126.28818399999955,
                    "velocity": 0.5039370078740157,
                    "duration": 0.26092599999999777
                },
                {
                    "name": "F#5",
                    "midi": 78,
                    "time": 126.54910999999954,
                    "velocity": 0.5039370078740157,
                    "duration": 0.26092599999999777
                },
                {
                    "name": "A#5",
                    "midi": 82,
                    "time": 126.54910999999954,
                    "velocity": 0.5039370078740157,
                    "duration": 0.26092599999999777
                },
                {
                    "name": "F#5",
                    "midi": 78,
                    "time": 127.07096199999954,
                    "velocity": 0.4566929133858268,
                    "duration": 0.2478796999999986
                },
                {
                    "name": "A#5",
                    "midi": 82,
                    "time": 127.07096199999954,
                    "velocity": 0.4566929133858268,
                    "duration": 0.2478796999999986
                },
                {
                    "name": "F#5",
                    "midi": 78,
                    "time": 127.33188799999954,
                    "velocity": 0.5196850393700787,
                    "duration": 0.2478796999999986
                },
                {
                    "name": "A#5",
                    "midi": 82,
                    "time": 127.33188799999954,
                    "velocity": 0.5196850393700787,
                    "duration": 0.2478796999999986
                },
                {
                    "name": "A#5",
                    "midi": 82,
                    "time": 127.85373999999953,
                    "velocity": 0.47244094488188976,
                    "duration": 0.2478796999999986
                },
                {
                    "name": "F#5",
                    "midi": 78,
                    "time": 127.85373999999953,
                    "velocity": 0.47244094488188976,
                    "duration": 0.2478796999999986
                },
                {
                    "name": "A#5",
                    "midi": 82,
                    "time": 128.11466599999954,
                    "velocity": 0.47244094488188976,
                    "duration": 0.260926000000012
                },
                {
                    "name": "F#5",
                    "midi": 78,
                    "time": 128.11466599999954,
                    "velocity": 0.47244094488188976,
                    "duration": 0.260926000000012
                },
                {
                    "name": "G#5",
                    "midi": 80,
                    "time": 128.63651799999957,
                    "velocity": 0.4566929133858268,
                    "duration": 0.2478796999999986
                },
                {
                    "name": "B5",
                    "midi": 83,
                    "time": 128.63651799999957,
                    "velocity": 0.4566929133858268,
                    "duration": 0.2478796999999986
                },
                {
                    "name": "G#5",
                    "midi": 80,
                    "time": 128.89744399999958,
                    "velocity": 0.48031496062992124,
                    "duration": 0.2478796999999986
                },
                {
                    "name": "B5",
                    "midi": 83,
                    "time": 128.89744399999958,
                    "velocity": 0.48031496062992124,
                    "duration": 0.2478796999999986
                },
                {
                    "name": "G#5",
                    "midi": 80,
                    "time": 129.1583699999996,
                    "velocity": 0.3858267716535433,
                    "duration": 0.260926000000012
                },
                {
                    "name": "B5",
                    "midi": 83,
                    "time": 129.1583699999996,
                    "velocity": 0.4881889763779528,
                    "duration": 0.260926000000012
                },
                {
                    "name": "G#5",
                    "midi": 80,
                    "time": 129.4192959999996,
                    "velocity": 0.5275590551181102,
                    "duration": 0.260926000000012
                },
                {
                    "name": "B5",
                    "midi": 83,
                    "time": 129.4192959999996,
                    "velocity": 0.5275590551181102,
                    "duration": 0.260926000000012
                },
                {
                    "name": "B5",
                    "midi": 83,
                    "time": 129.68022199999962,
                    "velocity": 0.4881889763779528,
                    "duration": 0.260926000000012
                },
                {
                    "name": "G#5",
                    "midi": 80,
                    "time": 129.68022199999962,
                    "velocity": 0.3858267716535433,
                    "duration": 0.260926000000012
                },
                {
                    "name": "D6",
                    "midi": 86,
                    "time": 130.20207399999964,
                    "velocity": 0.28346456692913385,
                    "duration": 0.2478796999999986
                },
                {
                    "name": "B5",
                    "midi": 83,
                    "time": 130.20207399999964,
                    "velocity": 0.23622047244094488,
                    "duration": 0.2478796999999986
                },
                {
                    "name": "D6",
                    "midi": 86,
                    "time": 130.46299999999965,
                    "velocity": 0.2992125984251969,
                    "duration": 0.2478796999999986
                },
                {
                    "name": "B5",
                    "midi": 83,
                    "time": 130.46299999999965,
                    "velocity": 0.25196850393700787,
                    "duration": 0.2478796999999986
                },
                {
                    "name": "D6",
                    "midi": 86,
                    "time": 130.72392599999966,
                    "velocity": 0.28346456692913385,
                    "duration": 0.2478796999999986
                },
                {
                    "name": "B5",
                    "midi": 83,
                    "time": 130.72392599999966,
                    "velocity": 0.2283464566929134,
                    "duration": 0.2478796999999986
                },
                {
                    "name": "D6",
                    "midi": 86,
                    "time": 130.98485199999968,
                    "velocity": 0.28346456692913385,
                    "duration": 0.2478796999999986
                },
                {
                    "name": "B5",
                    "midi": 83,
                    "time": 130.98485199999968,
                    "velocity": 0.2283464566929134,
                    "duration": 0.2478796999999986
                },
                {
                    "name": "D6",
                    "midi": 86,
                    "time": 131.2457779999997,
                    "velocity": 0.2755905511811024,
                    "duration": 0.2478796999999986
                },
                {
                    "name": "B5",
                    "midi": 83,
                    "time": 131.2457779999997,
                    "velocity": 0.2283464566929134,
                    "duration": 0.2478796999999986
                },
                {
                    "name": "D6",
                    "midi": 86,
                    "time": 131.76762999999968,
                    "velocity": 0.2755905511811024,
                    "duration": 0.2478796999999986
                },
                {
                    "name": "B5",
                    "midi": 83,
                    "time": 131.76762999999968,
                    "velocity": 0.2283464566929134,
                    "duration": 0.2478796999999986
                },
                {
                    "name": "D6",
                    "midi": 86,
                    "time": 132.0285559999997,
                    "velocity": 0.28346456692913385,
                    "duration": 0.2478796999999986
                },
                {
                    "name": "B5",
                    "midi": 83,
                    "time": 132.0285559999997,
                    "velocity": 0.2283464566929134,
                    "duration": 0.2478796999999986
                },
                {
                    "name": "D6",
                    "midi": 86,
                    "time": 132.2894819999997,
                    "velocity": 0.2677165354330709,
                    "duration": 0.2478796999999986
                },
                {
                    "name": "B5",
                    "midi": 83,
                    "time": 132.2894819999997,
                    "velocity": 0.2204724409448819,
                    "duration": 0.2478796999999986
                },
                {
                    "name": "D6",
                    "midi": 86,
                    "time": 132.55040799999972,
                    "velocity": 0.25196850393700787,
                    "duration": 0.2478796999999986
                },
                {
                    "name": "B5",
                    "midi": 83,
                    "time": 132.55040799999972,
                    "velocity": 0.2125984251968504,
                    "duration": 0.2478796999999986
                },
                {
                    "name": "D6",
                    "midi": 86,
                    "time": 132.81133399999973,
                    "velocity": 0.25196850393700787,
                    "duration": 0.2478796999999986
                },
                {
                    "name": "B5",
                    "midi": 83,
                    "time": 132.81133399999973,
                    "velocity": 0.2125984251968504,
                    "duration": 0.2478796999999986
                },
                {
                    "name": "E6",
                    "midi": 88,
                    "time": 133.33318599999973,
                    "velocity": 0.2440944881889764,
                    "duration": 0.2478796999999986
                },
                {
                    "name": "B5",
                    "midi": 83,
                    "time": 133.33318599999973,
                    "velocity": 0.2125984251968504,
                    "duration": 0.2478796999999986
                },
                {
                    "name": "B5",
                    "midi": 83,
                    "time": 133.59411199999974,
                    "velocity": 0.2125984251968504,
                    "duration": 0.2478796999999986
                },
                {
                    "name": "E6",
                    "midi": 88,
                    "time": 133.59411199999974,
                    "velocity": 0.25984251968503935,
                    "duration": 0.2478796999999986
                },
                {
                    "name": "B5",
                    "midi": 83,
                    "time": 133.85503799999975,
                    "velocity": 0.1968503937007874,
                    "duration": 0.2478796999999986
                },
                {
                    "name": "E6",
                    "midi": 88,
                    "time": 133.85503799999975,
                    "velocity": 0.23622047244094488,
                    "duration": 0.2478796999999986
                },
                {
                    "name": "B5",
                    "midi": 83,
                    "time": 134.11596399999976,
                    "velocity": 0.1968503937007874,
                    "duration": 0.2478796999999986
                },
                {
                    "name": "E6",
                    "midi": 88,
                    "time": 134.11596399999976,
                    "velocity": 0.2283464566929134,
                    "duration": 0.2478796999999986
                },
                {
                    "name": "B5",
                    "midi": 83,
                    "time": 134.37688999999978,
                    "velocity": 0.1968503937007874,
                    "duration": 0.2478796999999986
                },
                {
                    "name": "E6",
                    "midi": 88,
                    "time": 134.37688999999978,
                    "velocity": 0.2283464566929134,
                    "duration": 0.2478796999999986
                },
                {
                    "name": "D6",
                    "midi": 86,
                    "time": 134.89874199999977,
                    "velocity": 0.1889763779527559,
                    "duration": 0.2478796999999986
                },
                {
                    "name": "F#6",
                    "midi": 90,
                    "time": 134.89874199999977,
                    "velocity": 0.2283464566929134,
                    "duration": 0.2478796999999986
                },
                {
                    "name": "D6",
                    "midi": 86,
                    "time": 135.15966799999978,
                    "velocity": 0.2047244094488189,
                    "duration": 0.2478796999999986
                },
                {
                    "name": "F#6",
                    "midi": 90,
                    "time": 135.15966799999978,
                    "velocity": 0.2283464566929134,
                    "duration": 0.2478796999999986
                },
                {
                    "name": "D6",
                    "midi": 86,
                    "time": 135.4205939999998,
                    "velocity": 0.1889763779527559,
                    "duration": 0.2478796999999986
                },
                {
                    "name": "F#6",
                    "midi": 90,
                    "time": 135.4205939999998,
                    "velocity": 0.2125984251968504,
                    "duration": 0.2478796999999986
                },
                {
                    "name": "D6",
                    "midi": 86,
                    "time": 135.6815199999998,
                    "velocity": 0.1732283464566929,
                    "duration": 0.2478796999999986
                },
                {
                    "name": "F#6",
                    "midi": 90,
                    "time": 135.6815199999998,
                    "velocity": 0.2125984251968504,
                    "duration": 0.2478796999999986
                },
                {
                    "name": "D6",
                    "midi": 86,
                    "time": 135.94244599999982,
                    "velocity": 0.1732283464566929,
                    "duration": 0.2478796999999986
                },
                {
                    "name": "F#6",
                    "midi": 90,
                    "time": 135.94244599999982,
                    "velocity": 0.2125984251968504,
                    "duration": 0.2478796999999986
                },
                {
                    "name": "C#6",
                    "midi": 85,
                    "time": 136.46429799999981,
                    "velocity": 0.15748031496062992,
                    "duration": 0.2478796999999986
                },
                {
                    "name": "F#6",
                    "midi": 90,
                    "time": 136.46429799999981,
                    "velocity": 0.1968503937007874,
                    "duration": 0.2478796999999986
                },
                {
                    "name": "C#6",
                    "midi": 85,
                    "time": 136.72522399999983,
                    "velocity": 0.16535433070866143,
                    "duration": 0.2478796999999986
                },
                {
                    "name": "F#6",
                    "midi": 90,
                    "time": 136.72522399999983,
                    "velocity": 0.2125984251968504,
                    "duration": 0.2478796999999986
                },
                {
                    "name": "C#6",
                    "midi": 85,
                    "time": 136.98614999999984,
                    "velocity": 0.15748031496062992,
                    "duration": 0.2478796999999986
                },
                {
                    "name": "F#6",
                    "midi": 90,
                    "time": 136.98614999999984,
                    "velocity": 0.1968503937007874,
                    "duration": 0.2478796999999986
                },
                {
                    "name": "C#6",
                    "midi": 85,
                    "time": 137.24707599999985,
                    "velocity": 0.15748031496062992,
                    "duration": 0.2478796999999986
                },
                {
                    "name": "F#6",
                    "midi": 90,
                    "time": 137.24707599999985,
                    "velocity": 0.1968503937007874,
                    "duration": 0.2478796999999986
                },
                {
                    "name": "C#6",
                    "midi": 85,
                    "time": 137.50800199999986,
                    "velocity": 0.15748031496062992,
                    "duration": 0.2478796999999986
                },
                {
                    "name": "F#6",
                    "midi": 90,
                    "time": 137.50800199999986,
                    "velocity": 0.1968503937007874,
                    "duration": 0.2478796999999986
                },
                {
                    "name": "C#6",
                    "midi": 85,
                    "time": 137.76892799999987,
                    "velocity": 0.15748031496062992,
                    "duration": 0.2478796999999986
                },
                {
                    "name": "F#6",
                    "midi": 90,
                    "time": 137.76892799999987,
                    "velocity": 0.1968503937007874,
                    "duration": 0.2478796999999986
                },
                {
                    "name": "C#6",
                    "midi": 85,
                    "time": 138.0298539999999,
                    "velocity": 0.15748031496062992,
                    "duration": 0.2478796999999986
                },
                {
                    "name": "F#6",
                    "midi": 90,
                    "time": 138.0298539999999,
                    "velocity": 0.1968503937007874,
                    "duration": 0.2478796999999986
                },
                {
                    "name": "F#6",
                    "midi": 90,
                    "time": 138.2907799999999,
                    "velocity": 0.1968503937007874,
                    "duration": 0.2478796999999986
                },
                {
                    "name": "C#6",
                    "midi": 85,
                    "time": 138.2907799999999,
                    "velocity": 0.15748031496062992,
                    "duration": 0.2478796999999986
                },
                {
                    "name": "B1",
                    "midi": 35,
                    "time": 140.7369612499999,
                    "velocity": 0.2125984251968504,
                    "duration": 1.7286347499999692
                },
                {
                    "name": "B2",
                    "midi": 47,
                    "time": 140.76957699999988,
                    "velocity": 0.2283464566929134,
                    "duration": 1.6960189999999784
                },
                {
                    "name": "A3",
                    "midi": 57,
                    "time": 140.80219274999988,
                    "velocity": 0.23622047244094488,
                    "duration": 1.6634032499999876
                },
                {
                    "name": "F#1",
                    "midi": 30,
                    "time": 142.46559599999986,
                    "velocity": 0.23622047244094488,
                    "duration": 3.1311120000000585
                },
                {
                    "name": "F#2",
                    "midi": 42,
                    "time": 142.72652199999987,
                    "velocity": 0.1968503937007874,
                    "duration": 2.8701860000000465
                },
                {
                    "name": "C#3",
                    "midi": 49,
                    "time": 142.9874479999999,
                    "velocity": 0.1968503937007874,
                    "duration": 2.6092600000000346
                },
                {
                    "name": "F#3",
                    "midi": 54,
                    "time": 143.2483739999999,
                    "velocity": 0.1968503937007874,
                    "duration": 2.3483340000000226
                },
                {
                    "name": "A#3",
                    "midi": 58,
                    "time": 143.5092999999999,
                    "velocity": 0.1968503937007874,
                    "duration": 2.0874080000000106
                },
                {
                    "name": "C#4",
                    "midi": 61,
                    "time": 143.77022599999992,
                    "velocity": 0.1889763779527559,
                    "duration": 1.8264819999999986
                }
            ],
            "controlChanges": {},
            "id": 2,
            "name": "Piano left",
            "instrumentNumber": 0,
            "instrument": "acoustic grand piano",
            "instrumentFamily": "piano",
            "channelNumber": 0,
            "isPercussion": false
        },
        {
            "startTime": 100.32604700000005,
            "duration": 139.8563360000004,
            "length": 223,
            "notes": [
                {
                    "name": "F#2",
                    "midi": 42,
                    "time": 100.32604700000005,
                    "velocity": 0.2125984251968504,
                    "duration": 0.130463000000006
                },
                {
                    "name": "C#3",
                    "midi": 49,
                    "time": 100.45651000000005,
                    "velocity": 0.2283464566929134,
                    "duration": 0.130463000000006
                },
                {
                    "name": "F#3",
                    "midi": 54,
                    "time": 100.58697300000006,
                    "velocity": 0.2440944881889764,
                    "duration": 0.130463000000006
                },
                {
                    "name": "A#3",
                    "midi": 58,
                    "time": 100.71743600000006,
                    "velocity": 0.25196850393700787,
                    "duration": 0.130463000000006
                },
                {
                    "name": "C#4",
                    "midi": 61,
                    "time": 100.84789900000007,
                    "velocity": 0.2677165354330709,
                    "duration": 0.130463000000006
                },
                {
                    "name": "F#4",
                    "midi": 66,
                    "time": 100.97836200000008,
                    "velocity": 0.2755905511811024,
                    "duration": 0.130463000000006
                },
                {
                    "name": "C#4",
                    "midi": 61,
                    "time": 101.10882500000008,
                    "velocity": 0.2440944881889764,
                    "duration": 0.130463000000006
                },
                {
                    "name": "F#4",
                    "midi": 66,
                    "time": 101.23928800000009,
                    "velocity": 0.28346456692913385,
                    "duration": 0.130463000000006
                },
                {
                    "name": "A#4",
                    "midi": 70,
                    "time": 101.3697510000001,
                    "velocity": 0.2440944881889764,
                    "duration": 0.130463000000006
                },
                {
                    "name": "F#2",
                    "midi": 42,
                    "time": 101.89160300000009,
                    "velocity": 0.2125984251968504,
                    "duration": 0.130463000000006
                },
                {
                    "name": "C#3",
                    "midi": 49,
                    "time": 102.0220660000001,
                    "velocity": 0.2283464566929134,
                    "duration": 0.130463000000006
                },
                {
                    "name": "F#3",
                    "midi": 54,
                    "time": 102.1525290000001,
                    "velocity": 0.2440944881889764,
                    "duration": 0.130463000000006
                },
                {
                    "name": "A#3",
                    "midi": 58,
                    "time": 102.2829920000001,
                    "velocity": 0.25196850393700787,
                    "duration": 0.130463000000006
                },
                {
                    "name": "C#4",
                    "midi": 61,
                    "time": 102.41345500000011,
                    "velocity": 0.2677165354330709,
                    "duration": 0.130463000000006
                },
                {
                    "name": "F#4",
                    "midi": 66,
                    "time": 102.54391800000012,
                    "velocity": 0.2755905511811024,
                    "duration": 0.130463000000006
                },
                {
                    "name": "C#4",
                    "midi": 61,
                    "time": 102.67438100000012,
                    "velocity": 0.2440944881889764,
                    "duration": 0.130463000000006
                },
                {
                    "name": "F#4",
                    "midi": 66,
                    "time": 102.80484400000013,
                    "velocity": 0.28346456692913385,
                    "duration": 0.130463000000006
                },
                {
                    "name": "A#4",
                    "midi": 70,
                    "time": 102.93530700000014,
                    "velocity": 0.2440944881889764,
                    "duration": 0.130463000000006
                },
                {
                    "name": "F#2",
                    "midi": 42,
                    "time": 103.45715900000015,
                    "velocity": 0.2125984251968504,
                    "duration": 0.130463000000006
                },
                {
                    "name": "D#3",
                    "midi": 51,
                    "time": 103.58762200000015,
                    "velocity": 0.2283464566929134,
                    "duration": 0.130463000000006
                },
                {
                    "name": "F#3",
                    "midi": 54,
                    "time": 103.71808500000016,
                    "velocity": 0.2440944881889764,
                    "duration": 0.130463000000006
                },
                {
                    "name": "B3",
                    "midi": 59,
                    "time": 103.84854800000016,
                    "velocity": 0.25196850393700787,
                    "duration": 0.130463000000006
                },
                {
                    "name": "D#4",
                    "midi": 63,
                    "time": 103.97901100000017,
                    "velocity": 0.2677165354330709,
                    "duration": 0.130463000000006
                },
                {
                    "name": "F#2",
                    "midi": 42,
                    "time": 105.02271500000019,
                    "velocity": 0.2125984251968504,
                    "duration": 0.130463000000006
                },
                {
                    "name": "C#3",
                    "midi": 49,
                    "time": 105.1531780000002,
                    "velocity": 0.2283464566929134,
                    "duration": 0.130463000000006
                },
                {
                    "name": "F#3",
                    "midi": 54,
                    "time": 105.2836410000002,
                    "velocity": 0.2440944881889764,
                    "duration": 0.130463000000006
                },
                {
                    "name": "A#3",
                    "midi": 58,
                    "time": 105.41410400000021,
                    "velocity": 0.25196850393700787,
                    "duration": 0.130463000000006
                },
                {
                    "name": "C#4",
                    "midi": 61,
                    "time": 105.54456700000021,
                    "velocity": 0.2677165354330709,
                    "duration": 0.130463000000006
                },
                {
                    "name": "F#4",
                    "midi": 66,
                    "time": 105.67503000000022,
                    "velocity": 0.2755905511811024,
                    "duration": 0.130463000000006
                },
                {
                    "name": "C#4",
                    "midi": 61,
                    "time": 105.80549300000023,
                    "velocity": 0.2440944881889764,
                    "duration": 0.130463000000006
                },
                {
                    "name": "F#4",
                    "midi": 66,
                    "time": 105.93595600000023,
                    "velocity": 0.28346456692913385,
                    "duration": 0.130463000000006
                },
                {
                    "name": "A#4",
                    "midi": 70,
                    "time": 106.06641900000024,
                    "velocity": 0.2440944881889764,
                    "duration": 0.130463000000006
                },
                {
                    "name": "F#2",
                    "midi": 42,
                    "time": 106.58827100000025,
                    "velocity": 0.2440944881889764,
                    "duration": 0.130463000000006
                },
                {
                    "name": "C#3",
                    "midi": 49,
                    "time": 106.71873400000025,
                    "velocity": 0.25984251968503935,
                    "duration": 0.130463000000006
                },
                {
                    "name": "F#3",
                    "midi": 54,
                    "time": 106.84919700000026,
                    "velocity": 0.2755905511811024,
                    "duration": 0.130463000000006
                },
                {
                    "name": "A#3",
                    "midi": 58,
                    "time": 106.97966000000027,
                    "velocity": 0.28346456692913385,
                    "duration": 0.130463000000006
                },
                {
                    "name": "C#4",
                    "midi": 61,
                    "time": 107.11012300000027,
                    "velocity": 0.30708661417322836,
                    "duration": 0.130463000000006
                },
                {
                    "name": "F4",
                    "midi": 65,
                    "time": 107.24058600000028,
                    "velocity": 0.31496062992125984,
                    "duration": 0.26092599999998356
                },
                {
                    "name": "F#4",
                    "midi": 66,
                    "time": 107.24058600000028,
                    "velocity": 0.25984251968503935,
                    "duration": 0.26092599999998356
                },
                {
                    "name": "A#4",
                    "midi": 70,
                    "time": 107.24058600000028,
                    "velocity": 0.25984251968503935,
                    "duration": 0.26092599999998356
                },
                {
                    "name": "D#4",
                    "midi": 63,
                    "time": 107.50151200000026,
                    "velocity": 0.29133858267716534,
                    "duration": 0.26092599999999777
                },
                {
                    "name": "F#4",
                    "midi": 66,
                    "time": 107.50151200000026,
                    "velocity": 0.25196850393700787,
                    "duration": 0.26092599999999777
                },
                {
                    "name": "A#4",
                    "midi": 70,
                    "time": 107.50151200000026,
                    "velocity": 0.25196850393700787,
                    "duration": 0.26092599999999777
                },
                {
                    "name": "C#4",
                    "midi": 61,
                    "time": 107.76243800000026,
                    "velocity": 0.28346456692913385,
                    "duration": 0.260926000000012
                },
                {
                    "name": "F#4",
                    "midi": 66,
                    "time": 107.76243800000026,
                    "velocity": 0.23622047244094488,
                    "duration": 0.260926000000012
                },
                {
                    "name": "A#4",
                    "midi": 70,
                    "time": 107.76243800000026,
                    "velocity": 0.23622047244094488,
                    "duration": 0.260926000000012
                },
                {
                    "name": "F#2",
                    "midi": 42,
                    "time": 108.15382700000028,
                    "velocity": 0.2440944881889764,
                    "duration": 0.130463000000006
                },
                {
                    "name": "C#3",
                    "midi": 49,
                    "time": 108.28429000000028,
                    "velocity": 0.25984251968503935,
                    "duration": 0.130463000000006
                },
                {
                    "name": "F#3",
                    "midi": 54,
                    "time": 108.41475300000029,
                    "velocity": 0.2755905511811024,
                    "duration": 0.130463000000006
                },
                {
                    "name": "A#3",
                    "midi": 58,
                    "time": 108.5452160000003,
                    "velocity": 0.28346456692913385,
                    "duration": 0.130463000000006
                },
                {
                    "name": "C#4",
                    "midi": 61,
                    "time": 108.6756790000003,
                    "velocity": 0.30708661417322836,
                    "duration": 0.130463000000006
                },
                {
                    "name": "F#2",
                    "midi": 42,
                    "time": 109.71938300000032,
                    "velocity": 0.2125984251968504,
                    "duration": 0.130463000000006
                },
                {
                    "name": "D#3",
                    "midi": 51,
                    "time": 109.84984600000033,
                    "velocity": 0.2283464566929134,
                    "duration": 0.130463000000006
                },
                {
                    "name": "F#3",
                    "midi": 54,
                    "time": 109.98030900000033,
                    "velocity": 0.2440944881889764,
                    "duration": 0.130463000000006
                },
                {
                    "name": "B3",
                    "midi": 59,
                    "time": 110.11077200000034,
                    "velocity": 0.25196850393700787,
                    "duration": 0.130463000000006
                },
                {
                    "name": "D#4",
                    "midi": 63,
                    "time": 110.24123500000034,
                    "velocity": 0.2677165354330709,
                    "duration": 0.130463000000006
                },
                {
                    "name": "A#3",
                    "midi": 58,
                    "time": 110.37169800000035,
                    "velocity": 0.31496062992125984,
                    "duration": 0.26092599999999777
                },
                {
                    "name": "B3",
                    "midi": 59,
                    "time": 110.37169800000035,
                    "velocity": 0.25984251968503935,
                    "duration": 0.26092599999999777
                },
                {
                    "name": "D#4",
                    "midi": 63,
                    "time": 110.37169800000035,
                    "velocity": 0.25984251968503935,
                    "duration": 0.26092599999999777
                },
                {
                    "name": "G#3",
                    "midi": 56,
                    "time": 110.63262400000035,
                    "velocity": 0.29133858267716534,
                    "duration": 0.26092599999999777
                },
                {
                    "name": "B3",
                    "midi": 59,
                    "time": 110.63262400000035,
                    "velocity": 0.25196850393700787,
                    "duration": 0.26092599999999777
                },
                {
                    "name": "D#4",
                    "midi": 63,
                    "time": 110.63262400000035,
                    "velocity": 0.25196850393700787,
                    "duration": 0.26092599999999777
                },
                {
                    "name": "F#3",
                    "midi": 54,
                    "time": 110.89355000000035,
                    "velocity": 0.28346456692913385,
                    "duration": 0.26092599999999777
                },
                {
                    "name": "B3",
                    "midi": 59,
                    "time": 110.89355000000035,
                    "velocity": 0.23622047244094488,
                    "duration": 0.26092599999999777
                },
                {
                    "name": "D#4",
                    "midi": 63,
                    "time": 110.89355000000035,
                    "velocity": 0.23622047244094488,
                    "duration": 0.26092599999999777
                },
                {
                    "name": "F#2",
                    "midi": 42,
                    "time": 111.28493900000035,
                    "velocity": 0.2125984251968504,
                    "duration": 0.130463000000006
                },
                {
                    "name": "C#3",
                    "midi": 49,
                    "time": 111.41540200000036,
                    "velocity": 0.2283464566929134,
                    "duration": 0.130463000000006
                },
                {
                    "name": "F#3",
                    "midi": 54,
                    "time": 111.54586500000036,
                    "velocity": 0.2440944881889764,
                    "duration": 0.130463000000006
                },
                {
                    "name": "A#3",
                    "midi": 58,
                    "time": 111.67632800000037,
                    "velocity": 0.25196850393700787,
                    "duration": 0.130463000000006
                },
                {
                    "name": "C#4",
                    "midi": 61,
                    "time": 111.80679100000037,
                    "velocity": 0.2677165354330709,
                    "duration": 0.130463000000006
                },
                {
                    "name": "F#4",
                    "midi": 66,
                    "time": 111.93725400000038,
                    "velocity": 0.2755905511811024,
                    "duration": 0.130463000000006
                },
                {
                    "name": "C#4",
                    "midi": 61,
                    "time": 112.06771700000039,
                    "velocity": 0.2440944881889764,
                    "duration": 0.130463000000006
                },
                {
                    "name": "F#4",
                    "midi": 66,
                    "time": 112.19818000000039,
                    "velocity": 0.28346456692913385,
                    "duration": 0.130463000000006
                },
                {
                    "name": "A#4",
                    "midi": 70,
                    "time": 112.3286430000004,
                    "velocity": 0.2440944881889764,
                    "duration": 0.130463000000006
                },
                {
                    "name": "F#2",
                    "midi": 42,
                    "time": 112.8504950000004,
                    "velocity": 0.25984251968503935,
                    "duration": 0.130463000000006
                },
                {
                    "name": "D3",
                    "midi": 50,
                    "time": 112.9809580000004,
                    "velocity": 0.2677165354330709,
                    "duration": 0.130463000000006
                },
                {
                    "name": "F3",
                    "midi": 53,
                    "time": 113.1114210000004,
                    "velocity": 0.2755905511811024,
                    "duration": 0.130463000000006
                },
                {
                    "name": "A#3",
                    "midi": 58,
                    "time": 113.24188400000041,
                    "velocity": 0.28346456692913385,
                    "duration": 0.130463000000006
                },
                {
                    "name": "D4",
                    "midi": 62,
                    "time": 113.37234700000042,
                    "velocity": 0.29133858267716534,
                    "duration": 0.130463000000006
                },
                {
                    "name": "F#2",
                    "midi": 42,
                    "time": 114.41605100000042,
                    "velocity": 0.28346456692913385,
                    "duration": 0.130463000000006
                },
                {
                    "name": "D#3",
                    "midi": 51,
                    "time": 114.54651400000043,
                    "velocity": 0.2992125984251969,
                    "duration": 0.130463000000006
                },
                {
                    "name": "F#3",
                    "midi": 54,
                    "time": 114.67697700000043,
                    "velocity": 0.3228346456692913,
                    "duration": 0.130463000000006
                },
                {
                    "name": "A#3",
                    "midi": 58,
                    "time": 114.80744000000044,
                    "velocity": 0.33858267716535434,
                    "duration": 0.130463000000006
                },
                {
                    "name": "D#4",
                    "midi": 63,
                    "time": 114.93790300000045,
                    "velocity": 0.3543307086614173,
                    "duration": 0.130463000000006
                },
                {
                    "name": "F#2",
                    "midi": 42,
                    "time": 115.98160700000045,
                    "velocity": 0.29133858267716534,
                    "duration": 0.130463000000006
                },
                {
                    "name": "D3",
                    "midi": 50,
                    "time": 116.11207000000046,
                    "velocity": 0.30708661417322836,
                    "duration": 0.130463000000006
                },
                {
                    "name": "F3",
                    "midi": 53,
                    "time": 116.24253300000046,
                    "velocity": 0.3228346456692913,
                    "duration": 0.130463000000006
                },
                {
                    "name": "A#3",
                    "midi": 58,
                    "time": 116.37299600000047,
                    "velocity": 0.33858267716535434,
                    "duration": 0.130463000000006
                },
                {
                    "name": "D4",
                    "midi": 62,
                    "time": 116.50345900000048,
                    "velocity": 0.3464566929133858,
                    "duration": 0.130463000000006
                },
                {
                    "name": "B3",
                    "midi": 59,
                    "time": 116.89484800000048,
                    "velocity": 0.3937007874015748,
                    "duration": 0.26092599999999777
                },
                {
                    "name": "C#4",
                    "midi": 61,
                    "time": 117.15577400000048,
                    "velocity": 0.4251968503937008,
                    "duration": 0.26092599999999777
                },
                {
                    "name": "F#2",
                    "midi": 42,
                    "time": 117.54716300000048,
                    "velocity": 0.28346456692913385,
                    "duration": 0.130463000000006
                },
                {
                    "name": "D#3",
                    "midi": 51,
                    "time": 117.67762600000049,
                    "velocity": 0.29133858267716534,
                    "duration": 0.130463000000006
                },
                {
                    "name": "F#3",
                    "midi": 54,
                    "time": 117.80808900000049,
                    "velocity": 0.2992125984251969,
                    "duration": 0.130463000000006
                },
                {
                    "name": "A#3",
                    "midi": 58,
                    "time": 117.9385520000005,
                    "velocity": 0.30708661417322836,
                    "duration": 0.130463000000006
                },
                {
                    "name": "D#4",
                    "midi": 63,
                    "time": 118.0690150000005,
                    "velocity": 0.3228346456692913,
                    "duration": 0.130463000000006
                },
                {
                    "name": "F#4",
                    "midi": 66,
                    "time": 118.19947800000051,
                    "velocity": 0.33070866141732286,
                    "duration": 0.130463000000006
                },
                {
                    "name": "F#3",
                    "midi": 54,
                    "time": 118.32994100000052,
                    "velocity": 0.3464566929133858,
                    "duration": 0.130463000000006
                },
                {
                    "name": "A#3",
                    "midi": 58,
                    "time": 118.46040400000052,
                    "velocity": 0.3543307086614173,
                    "duration": 0.130463000000006
                },
                {
                    "name": "D#4",
                    "midi": 63,
                    "time": 118.59086700000053,
                    "velocity": 0.3543307086614173,
                    "duration": 0.130463000000006
                },
                {
                    "name": "F#4",
                    "midi": 66,
                    "time": 118.72133000000053,
                    "velocity": 0.3700787401574803,
                    "duration": 0.13046299999999178
                },
                {
                    "name": "A#4",
                    "midi": 70,
                    "time": 118.85179300000053,
                    "velocity": 0.3779527559055118,
                    "duration": 0.130463000000006
                },
                {
                    "name": "C3",
                    "midi": 48,
                    "time": 119.11271900000054,
                    "velocity": 0.4566929133858268,
                    "duration": 0.26092599999999777
                },
                {
                    "name": "F#3",
                    "midi": 54,
                    "time": 119.37364500000054,
                    "velocity": 0.3779527559055118,
                    "duration": 0.130463000000006
                },
                {
                    "name": "A#3",
                    "midi": 58,
                    "time": 119.50410800000054,
                    "velocity": 0.3937007874015748,
                    "duration": 0.130463000000006
                },
                {
                    "name": "D#4",
                    "midi": 63,
                    "time": 119.63457100000055,
                    "velocity": 0.4094488188976378,
                    "duration": 0.6523150000000015
                },
                {
                    "name": "F#4",
                    "midi": 66,
                    "time": 120.02596000000055,
                    "velocity": 0.4251968503937008,
                    "duration": 0.26092599999999777
                },
                {
                    "name": "A#4",
                    "midi": 70,
                    "time": 120.02596000000055,
                    "velocity": 0.4251968503937008,
                    "duration": 0.26092599999999777
                },
                {
                    "name": "D4",
                    "midi": 62,
                    "time": 120.28688600000055,
                    "velocity": 0.41732283464566927,
                    "duration": 0.26092599999999777
                },
                {
                    "name": "F#4",
                    "midi": 66,
                    "time": 120.28688600000055,
                    "velocity": 0.41732283464566927,
                    "duration": 0.26092599999999777
                },
                {
                    "name": "A#4",
                    "midi": 70,
                    "time": 120.28688600000055,
                    "velocity": 0.41732283464566927,
                    "duration": 0.26092599999999777
                },
                {
                    "name": "C#3",
                    "midi": 49,
                    "time": 120.67827500000055,
                    "velocity": 0.3700787401574803,
                    "duration": 0.130463000000006
                },
                {
                    "name": "A#3",
                    "midi": 58,
                    "time": 120.80873800000056,
                    "velocity": 0.3937007874015748,
                    "duration": 0.130463000000006
                },
                {
                    "name": "C#4",
                    "midi": 61,
                    "time": 120.93920100000057,
                    "velocity": 0.4094488188976378,
                    "duration": 0.130463000000006
                },
                {
                    "name": "F#4",
                    "midi": 66,
                    "time": 121.06966400000057,
                    "velocity": 0.4330708661417323,
                    "duration": 0.130463000000006
                },
                {
                    "name": "A#4",
                    "midi": 70,
                    "time": 121.20012700000058,
                    "velocity": 0.44881889763779526,
                    "duration": 0.130463000000006
                },
                {
                    "name": "C#3",
                    "midi": 49,
                    "time": 122.24383100000058,
                    "velocity": 0.3543307086614173,
                    "duration": 0.130463000000006
                },
                {
                    "name": "A3",
                    "midi": 57,
                    "time": 122.37429400000059,
                    "velocity": 0.3700787401574803,
                    "duration": 0.130463000000006
                },
                {
                    "name": "C#4",
                    "midi": 61,
                    "time": 122.5047570000006,
                    "velocity": 0.3858267716535433,
                    "duration": 0.130463000000006
                },
                {
                    "name": "F4",
                    "midi": 65,
                    "time": 122.6352200000006,
                    "velocity": 0.4094488188976378,
                    "duration": 0.130463000000006
                },
                {
                    "name": "A4",
                    "midi": 69,
                    "time": 122.7656830000006,
                    "velocity": 0.4251968503937008,
                    "duration": 0.130463000000006
                },
                {
                    "name": "D#4",
                    "midi": 63,
                    "time": 123.15707200000061,
                    "velocity": 0.3700787401574803,
                    "duration": 0.26092599999999777
                },
                {
                    "name": "F4",
                    "midi": 65,
                    "time": 123.15707200000061,
                    "velocity": 0.3700787401574803,
                    "duration": 0.26092599999999777
                },
                {
                    "name": "A4",
                    "midi": 69,
                    "time": 123.15707200000061,
                    "velocity": 0.4409448818897638,
                    "duration": 0.26092599999999777
                },
                {
                    "name": "F4",
                    "midi": 65,
                    "time": 123.41799800000061,
                    "velocity": 0.47244094488188976,
                    "duration": 0.26092599999999777
                },
                {
                    "name": "F#2",
                    "midi": 42,
                    "time": 123.8093870000006,
                    "velocity": 0.41732283464566927,
                    "duration": 0.130463000000006
                },
                {
                    "name": "C#3",
                    "midi": 49,
                    "time": 123.9398500000006,
                    "velocity": 0.4409448818897638,
                    "duration": 0.130463000000006
                },
                {
                    "name": "F#3",
                    "midi": 54,
                    "time": 124.07031300000061,
                    "velocity": 0.47244094488188976,
                    "duration": 0.130463000000006
                },
                {
                    "name": "A#3",
                    "midi": 58,
                    "time": 124.20077600000062,
                    "velocity": 0.5039370078740157,
                    "duration": 0.130463000000006
                },
                {
                    "name": "C#4",
                    "midi": 61,
                    "time": 124.33123900000062,
                    "velocity": 0.5275590551181102,
                    "duration": 0.130463000000006
                },
                {
                    "name": "A#4",
                    "midi": 70,
                    "time": 124.46170200000063,
                    "velocity": 0.5354330708661418,
                    "duration": 0.260926000000012
                },
                {
                    "name": "F#4",
                    "midi": 66,
                    "time": 124.72262800000064,
                    "velocity": 0.5196850393700787,
                    "duration": 0.26092599999999777
                },
                {
                    "name": "A#4",
                    "midi": 70,
                    "time": 124.72262800000064,
                    "velocity": 0.5196850393700787,
                    "duration": 0.26092599999999777
                },
                {
                    "name": "F4",
                    "midi": 65,
                    "time": 124.98355400000064,
                    "velocity": 0.5826771653543307,
                    "duration": 0.26092599999999777
                },
                {
                    "name": "F#4",
                    "midi": 66,
                    "time": 124.98355400000064,
                    "velocity": 0.4881889763779528,
                    "duration": 0.26092599999999777
                },
                {
                    "name": "A#4",
                    "midi": 70,
                    "time": 124.98355400000064,
                    "velocity": 0.4881889763779528,
                    "duration": 0.26092599999999777
                },
                {
                    "name": "C3",
                    "midi": 48,
                    "time": 125.37494300000064,
                    "velocity": 0.4251968503937008,
                    "duration": 0.26092599999999777
                },
                {
                    "name": "F#3",
                    "midi": 54,
                    "time": 125.63586900000064,
                    "velocity": 0.4409448818897638,
                    "duration": 0.130463000000006
                },
                {
                    "name": "A#3",
                    "midi": 58,
                    "time": 125.76633200000065,
                    "velocity": 0.47244094488188976,
                    "duration": 0.130463000000006
                },
                {
                    "name": "E4",
                    "midi": 64,
                    "time": 125.89679500000065,
                    "velocity": 0.5039370078740157,
                    "duration": 0.6523150000000015
                },
                {
                    "name": "D#4",
                    "midi": 63,
                    "time": 126.28818400000065,
                    "velocity": 0.4881889763779528,
                    "duration": 0.26092599999999777
                },
                {
                    "name": "F#4",
                    "midi": 66,
                    "time": 126.28818400000065,
                    "velocity": 0.4881889763779528,
                    "duration": 0.26092599999999777
                },
                {
                    "name": "A#4",
                    "midi": 70,
                    "time": 126.28818400000065,
                    "velocity": 0.4881889763779528,
                    "duration": 0.26092599999999777
                },
                {
                    "name": "D4",
                    "midi": 62,
                    "time": 126.54911000000065,
                    "velocity": 0.4645669291338583,
                    "duration": 0.26092599999999777
                },
                {
                    "name": "F#4",
                    "midi": 66,
                    "time": 126.54911000000065,
                    "velocity": 0.4645669291338583,
                    "duration": 0.26092599999999777
                },
                {
                    "name": "A#4",
                    "midi": 70,
                    "time": 126.54911000000065,
                    "velocity": 0.4645669291338583,
                    "duration": 0.26092599999999777
                },
                {
                    "name": "C#3",
                    "midi": 49,
                    "time": 126.94049900000066,
                    "velocity": 0.4566929133858268,
                    "duration": 0.130463000000006
                },
                {
                    "name": "A#3",
                    "midi": 58,
                    "time": 127.07096200000066,
                    "velocity": 0.48031496062992124,
                    "duration": 0.130463000000006
                },
                {
                    "name": "C#4",
                    "midi": 61,
                    "time": 127.20142500000067,
                    "velocity": 0.49606299212598426,
                    "duration": 0.130463000000006
                },
                {
                    "name": "F#4",
                    "midi": 66,
                    "time": 127.33188800000067,
                    "velocity": 0.5196850393700787,
                    "duration": 0.130463000000006
                },
                {
                    "name": "A#4",
                    "midi": 70,
                    "time": 127.46235100000068,
                    "velocity": 0.5433070866141733,
                    "duration": 0.130463000000006
                },
                {
                    "name": "C#4",
                    "midi": 61,
                    "time": 127.85374000000068,
                    "velocity": 0.5196850393700787,
                    "duration": 0.26092599999999777
                },
                {
                    "name": "F#4",
                    "midi": 66,
                    "time": 127.85374000000068,
                    "velocity": 0.5196850393700787,
                    "duration": 0.26092599999999777
                },
                {
                    "name": "A#4",
                    "midi": 70,
                    "time": 127.85374000000068,
                    "velocity": 0.5196850393700787,
                    "duration": 0.26092599999999777
                },
                {
                    "name": "D4",
                    "midi": 62,
                    "time": 128.11466600000068,
                    "velocity": 0.5196850393700787,
                    "duration": 0.260926000000012
                },
                {
                    "name": "F#4",
                    "midi": 66,
                    "time": 128.11466600000068,
                    "velocity": 0.5196850393700787,
                    "duration": 0.260926000000012
                },
                {
                    "name": "A#4",
                    "midi": 70,
                    "time": 128.11466600000068,
                    "velocity": 0.5196850393700787,
                    "duration": 0.260926000000012
                },
                {
                    "name": "C#3",
                    "midi": 49,
                    "time": 128.50605500000069,
                    "velocity": 0.49606299212598426,
                    "duration": 0.13046299999999178
                },
                {
                    "name": "G#3",
                    "midi": 56,
                    "time": 128.63651800000068,
                    "velocity": 0.5118110236220472,
                    "duration": 0.13046299999999178
                },
                {
                    "name": "B3",
                    "midi": 59,
                    "time": 128.76698100000067,
                    "velocity": 0.5196850393700787,
                    "duration": 0.13046299999999178
                },
                {
                    "name": "D#4",
                    "midi": 63,
                    "time": 128.89744400000066,
                    "velocity": 0.5354330708661418,
                    "duration": 0.13046299999999178
                },
                {
                    "name": "G#4",
                    "midi": 68,
                    "time": 129.02790700000065,
                    "velocity": 0.5511811023622047,
                    "duration": 0.13046299999999178
                },
                {
                    "name": "G#4",
                    "midi": 68,
                    "time": 129.15837000000064,
                    "velocity": 0.33858267716535434,
                    "duration": 0.26092599999998356
                },
                {
                    "name": "F#4",
                    "midi": 66,
                    "time": 129.15837000000064,
                    "velocity": 0.33858267716535434,
                    "duration": 0.26092599999998356
                },
                {
                    "name": "B4",
                    "midi": 71,
                    "time": 129.15837000000064,
                    "velocity": 0.5433070866141733,
                    "duration": 0.26092599999998356
                },
                {
                    "name": "G#4",
                    "midi": 68,
                    "time": 129.41929600000063,
                    "velocity": 0.3228346456692913,
                    "duration": 0.260926000000012
                },
                {
                    "name": "F4",
                    "midi": 65,
                    "time": 129.41929600000063,
                    "velocity": 0.3228346456692913,
                    "duration": 0.260926000000012
                },
                {
                    "name": "B4",
                    "midi": 71,
                    "time": 129.41929600000063,
                    "velocity": 0.5118110236220472,
                    "duration": 0.260926000000012
                },
                {
                    "name": "D#4",
                    "midi": 63,
                    "time": 129.68022200000064,
                    "velocity": 0.31496062992125984,
                    "duration": 0.260926000000012
                },
                {
                    "name": "G#4",
                    "midi": 68,
                    "time": 129.68022200000064,
                    "velocity": 0.31496062992125984,
                    "duration": 0.260926000000012
                },
                {
                    "name": "B4",
                    "midi": 71,
                    "time": 129.68022200000064,
                    "velocity": 0.5039370078740157,
                    "duration": 0.260926000000012
                },
                {
                    "name": "B2",
                    "midi": 47,
                    "time": 130.07161100000064,
                    "velocity": 0.23622047244094488,
                    "duration": 0.13046299999999178
                },
                {
                    "name": "F#3",
                    "midi": 54,
                    "time": 130.20207400000064,
                    "velocity": 0.25196850393700787,
                    "duration": 0.13046299999999178
                },
                {
                    "name": "B3",
                    "midi": 59,
                    "time": 130.33253700000063,
                    "velocity": 0.2677165354330709,
                    "duration": 0.13046299999999178
                },
                {
                    "name": "D4",
                    "midi": 62,
                    "time": 130.46300000000062,
                    "velocity": 0.2755905511811024,
                    "duration": 0.13046299999999178
                },
                {
                    "name": "F#4",
                    "midi": 66,
                    "time": 130.5934630000006,
                    "velocity": 0.28346456692913385,
                    "duration": 0.13046299999999178
                },
                {
                    "name": "B4",
                    "midi": 71,
                    "time": 130.7239260000006,
                    "velocity": 0.29133858267716534,
                    "duration": 0.13046299999999178
                },
                {
                    "name": "D5",
                    "midi": 74,
                    "time": 130.8543890000006,
                    "velocity": 0.25984251968503935,
                    "duration": 0.13046299999999178
                },
                {
                    "name": "G2",
                    "midi": 43,
                    "time": 131.63716700000057,
                    "velocity": 0.2283464566929134,
                    "duration": 0.13046299999999178
                },
                {
                    "name": "D3",
                    "midi": 50,
                    "time": 131.76763000000057,
                    "velocity": 0.2440944881889764,
                    "duration": 0.13046299999999178
                },
                {
                    "name": "G3",
                    "midi": 55,
                    "time": 131.89809300000056,
                    "velocity": 0.25196850393700787,
                    "duration": 0.13046299999999178
                },
                {
                    "name": "B3",
                    "midi": 59,
                    "time": 132.02855600000055,
                    "velocity": 0.25984251968503935,
                    "duration": 0.13046299999999178
                },
                {
                    "name": "D4",
                    "midi": 62,
                    "time": 132.15901900000054,
                    "velocity": 0.2677165354330709,
                    "duration": 0.13046299999999178
                },
                {
                    "name": "G4",
                    "midi": 67,
                    "time": 132.28948200000053,
                    "velocity": 0.2755905511811024,
                    "duration": 0.13046299999999178
                },
                {
                    "name": "B4",
                    "midi": 71,
                    "time": 132.41994500000052,
                    "velocity": 0.2440944881889764,
                    "duration": 0.13046299999999178
                },
                {
                    "name": "E2",
                    "midi": 40,
                    "time": 133.20272300000053,
                    "velocity": 0.2047244094488189,
                    "duration": 0.13046299999999178
                },
                {
                    "name": "B2",
                    "midi": 47,
                    "time": 133.33318600000052,
                    "velocity": 0.2204724409448819,
                    "duration": 0.13046299999999178
                },
                {
                    "name": "E3",
                    "midi": 52,
                    "time": 133.46364900000052,
                    "velocity": 0.23622047244094488,
                    "duration": 0.13046299999999178
                },
                {
                    "name": "G#3",
                    "midi": 56,
                    "time": 133.5941120000005,
                    "velocity": 0.2440944881889764,
                    "duration": 0.13046299999999178
                },
                {
                    "name": "B3",
                    "midi": 59,
                    "time": 133.7245750000005,
                    "velocity": 0.2440944881889764,
                    "duration": 0.13046299999999178
                },
                {
                    "name": "E4",
                    "midi": 64,
                    "time": 133.8550380000005,
                    "velocity": 0.25196850393700787,
                    "duration": 0.13046299999999178
                },
                {
                    "name": "G#4",
                    "midi": 68,
                    "time": 133.98550100000048,
                    "velocity": 0.2204724409448819,
                    "duration": 0.13046299999999178
                },
                {
                    "name": "D2",
                    "midi": 38,
                    "time": 134.7682790000005,
                    "velocity": 0.1889763779527559,
                    "duration": 0.13046299999999178
                },
                {
                    "name": "A2",
                    "midi": 45,
                    "time": 134.89874200000048,
                    "velocity": 0.1968503937007874,
                    "duration": 0.13046299999999178
                },
                {
                    "name": "D3",
                    "midi": 50,
                    "time": 135.02920500000047,
                    "velocity": 0.2125984251968504,
                    "duration": 0.13046299999999178
                },
                {
                    "name": "F#3",
                    "midi": 54,
                    "time": 135.15966800000047,
                    "velocity": 0.2125984251968504,
                    "duration": 0.13046299999999178
                },
                {
                    "name": "A3",
                    "midi": 57,
                    "time": 135.29013100000046,
                    "velocity": 0.2283464566929134,
                    "duration": 0.13046299999999178
                },
                {
                    "name": "D4",
                    "midi": 62,
                    "time": 135.42059400000045,
                    "velocity": 0.23622047244094488,
                    "duration": 0.13046299999999178
                },
                {
                    "name": "F#4",
                    "midi": 66,
                    "time": 135.55105700000044,
                    "velocity": 0.2125984251968504,
                    "duration": 0.13046299999999178
                },
                {
                    "name": "F#1",
                    "midi": 30,
                    "time": 136.33383500000045,
                    "velocity": 0.16535433070866143,
                    "duration": 0.13046299999999178
                },
                {
                    "name": "C#2",
                    "midi": 37,
                    "time": 136.46429800000044,
                    "velocity": 0.16535433070866143,
                    "duration": 0.13046299999999178
                },
                {
                    "name": "F#2",
                    "midi": 42,
                    "time": 136.59476100000043,
                    "velocity": 0.18110236220472442,
                    "duration": 0.13046299999999178
                },
                {
                    "name": "A#2",
                    "midi": 46,
                    "time": 136.72522400000042,
                    "velocity": 0.1889763779527559,
                    "duration": 0.13046299999999178
                },
                {
                    "name": "C#3",
                    "midi": 49,
                    "time": 136.85568700000042,
                    "velocity": 0.1968503937007874,
                    "duration": 0.13046299999999178
                },
                {
                    "name": "F#3",
                    "midi": 54,
                    "time": 136.9861500000004,
                    "velocity": 0.2125984251968504,
                    "duration": 0.13046299999999178
                },
                {
                    "name": "C#3",
                    "midi": 49,
                    "time": 137.1166130000004,
                    "velocity": 0.2125984251968504,
                    "duration": 0.13046299999999178
                },
                {
                    "name": "F#3",
                    "midi": 54,
                    "time": 137.2470760000004,
                    "velocity": 0.2125984251968504,
                    "duration": 0.13046299999999178
                },
                {
                    "name": "A#3",
                    "midi": 58,
                    "time": 137.37753900000038,
                    "velocity": 0.2125984251968504,
                    "duration": 0.13046299999999178
                },
                {
                    "name": "C#4",
                    "midi": 61,
                    "time": 137.50800200000037,
                    "velocity": 0.2204724409448819,
                    "duration": 0.13046299999999178
                },
                {
                    "name": "D#4",
                    "midi": 63,
                    "time": 137.63846500000037,
                    "velocity": 0.2204724409448819,
                    "duration": 0.13046299999999178
                },
                {
                    "name": "F#4",
                    "midi": 66,
                    "time": 137.76892800000036,
                    "velocity": 0.2283464566929134,
                    "duration": 0.13046299999999178
                },
                {
                    "name": "A#4",
                    "midi": 70,
                    "time": 137.89939100000035,
                    "velocity": 0.2283464566929134,
                    "duration": 0.13046299999999178
                },
                {
                    "name": "C#5",
                    "midi": 73,
                    "time": 138.02985400000034,
                    "velocity": 0.23622047244094488,
                    "duration": 0.13046299999999178
                },
                {
                    "name": "D#5",
                    "midi": 75,
                    "time": 138.16031700000033,
                    "velocity": 0.23622047244094488,
                    "duration": 0.13046299999999178
                },
                {
                    "name": "F#5",
                    "midi": 78,
                    "time": 138.29078000000032,
                    "velocity": 0.23622047244094488,
                    "duration": 0.13046299999999178
                },
                {
                    "name": "A#5",
                    "midi": 82,
                    "time": 138.42124300000032,
                    "velocity": 0.2440944881889764,
                    "duration": 0.13046299999999178
                },
                {
                    "name": "C#6",
                    "midi": 85,
                    "time": 138.5517060000003,
                    "velocity": 0.2440944881889764,
                    "duration": 0.13046299999999178
                },
                {
                    "name": "D#6",
                    "midi": 87,
                    "time": 138.6821690000003,
                    "velocity": 0.2677165354330709,
                    "duration": 0.11741670000000681
                },
                {
                    "name": "F#6",
                    "midi": 90,
                    "time": 138.81263200000032,
                    "velocity": 0.28346456692913385,
                    "duration": 0.11741670000000681
                },
                {
                    "name": "A#6",
                    "midi": 94,
                    "time": 138.94309500000034,
                    "velocity": 0.29133858267716534,
                    "duration": 0.11741670000000681
                },
                {
                    "name": "C#7",
                    "midi": 97,
                    "time": 139.07355800000036,
                    "velocity": 0.30708661417322836,
                    "duration": 0.11741670000000681
                },
                {
                    "name": "D#7",
                    "midi": 99,
                    "time": 139.20402100000038,
                    "velocity": 0.3228346456692913,
                    "duration": 0.11741670000000681
                },
                {
                    "name": "F#7",
                    "midi": 102,
                    "time": 139.3344840000004,
                    "velocity": 0.33070866141732286,
                    "duration": 0.5218519999999955
                }
            ],
            "controlChanges": {
                "64": [
                    {
                        "number": 64,
                        "time": 0.17395066666666664,
                        "value": 1
                    },
                    {
                        "number": 64,
                        "time": 1.5655559999999997,
                        "value": 0
                    },
                    {
                        "number": 64,
                        "time": 1.9569449999999997,
                        "value": 1
                    },
                    {
                        "number": 64,
                        "time": 3.131112,
                        "value": 0
                    },
                    {
                        "number": 64,
                        "time": 3.253964658333333,
                        "value": 1
                    },
                    {
                        "number": 64,
                        "time": 4.696668,
                        "value": 0
                    },
                    {
                        "number": 64,
                        "time": 4.789079291666667,
                        "value": 1
                    },
                    {
                        "number": 64,
                        "time": 5.502820620833334,
                        "value": 0
                    },
                    {
                        "number": 64,
                        "time": 5.648504304166667,
                        "value": 1
                    },
                    {
                        "number": 64,
                        "time": 6.262224,
                        "value": 0
                    },
                    {
                        "number": 64,
                        "time": 6.479662333333333,
                        "value": 1
                    },
                    {
                        "number": 64,
                        "time": 7.05152515,
                        "value": 0
                    },
                    {
                        "number": 64,
                        "time": 7.2336297541666665,
                        "value": 1
                    },
                    {
                        "number": 64,
                        "time": 7.830497979166666,
                        "value": 0
                    },
                    {
                        "number": 64,
                        "time": 8.045218333333333,
                        "value": 1
                    },
                    {
                        "number": 64,
                        "time": 9.393336,
                        "value": 0
                    },
                    {
                        "number": 64,
                        "time": 9.625451420833333,
                        "value": 1
                    },
                    {
                        "number": 64,
                        "time": 10.179375575,
                        "value": 0
                    },
                    {
                        "number": 64,
                        "time": 10.3212540875,
                        "value": 1
                    },
                    {
                        "number": 64,
                        "time": 10.961066383333334,
                        "value": 0
                    },
                    {
                        "number": 64,
                        "time": 11.089355000000001,
                        "value": 1
                    },
                    {
                        "number": 64,
                        "time": 11.74819315,
                        "value": 0
                    },
                    {
                        "number": 64,
                        "time": 11.849301975000001,
                        "value": 1
                    },
                    {
                        "number": 64,
                        "time": 12.524448000000001,
                        "value": 0
                    },
                    {
                        "number": 64,
                        "time": 12.669588087500001,
                        "value": 1
                    },
                    {
                        "number": 64,
                        "time": 13.312661958333335,
                        "value": 0
                    },
                    {
                        "number": 64,
                        "time": 14.191656420833334,
                        "value": 1
                    },
                    {
                        "number": 64,
                        "time": 15.655560000000001,
                        "value": 0
                    },
                    {
                        "number": 64,
                        "time": 15.801243683333334,
                        "value": 1
                    },
                    {
                        "number": 64,
                        "time": 17.221116000000002,
                        "value": 0
                    },
                    {
                        "number": 64,
                        "time": 17.40974375416667,
                        "value": 1
                    },
                    {
                        "number": 64,
                        "time": 18.786672000000003,
                        "value": 0
                    },
                    {
                        "number": 64,
                        "time": 18.932355683333338,
                        "value": 1
                    },
                    {
                        "number": 64,
                        "time": 20.352228000000004,
                        "value": 0
                    },
                    {
                        "number": 64,
                        "time": 20.58434342083334,
                        "value": 1
                    },
                    {
                        "number": 64,
                        "time": 21.917784000000005,
                        "value": 0
                    },
                    {
                        "number": 64,
                        "time": 22.00475933333334,
                        "value": 1
                    },
                    {
                        "number": 64,
                        "time": 23.05498648333334,
                        "value": 0
                    },
                    {
                        "number": 64,
                        "time": 23.533350816666673,
                        "value": 1
                    },
                    {
                        "number": 64,
                        "time": 24.272641150000005,
                        "value": 0
                    },
                    {
                        "number": 64,
                        "time": 24.465074075000004,
                        "value": 1
                    },
                    {
                        "number": 64,
                        "time": 25.063573087500004,
                        "value": 0
                    },
                    {
                        "number": 64,
                        "time": 25.204364408333337,
                        "value": 1
                    },
                    {
                        "number": 64,
                        "time": 25.838740745833338,
                        "value": 0
                    },
                    {
                        "number": 64,
                        "time": 26.70142733333334,
                        "value": 1
                    },
                    {
                        "number": 64,
                        "time": 27.403753150000004,
                        "value": 0
                    },
                    {
                        "number": 64,
                        "time": 27.57118066666667,
                        "value": 1
                    },
                    {
                        "number": 64,
                        "time": 28.180008000000004,
                        "value": 0
                    },
                    {
                        "number": 64,
                        "time": 28.32949685416667,
                        "value": 1
                    },
                    {
                        "number": 64,
                        "time": 29.22642997916667,
                        "value": 0
                    },
                    {
                        "number": 64,
                        "time": 29.745564000000005,
                        "value": 1
                    },
                    {
                        "number": 64,
                        "time": 30.540844704166673,
                        "value": 0
                    },
                    {
                        "number": 64,
                        "time": 31.39809533333334,
                        "value": 1
                    },
                    {
                        "number": 64,
                        "time": 32.10042115000001,
                        "value": 0
                    },
                    {
                        "number": 64,
                        "time": 33.05062666666667,
                        "value": 1
                    },
                    {
                        "number": 64,
                        "time": 34.442232000000004,
                        "value": 0
                    },
                    {
                        "number": 64,
                        "time": 34.572695,
                        "value": 1
                    },
                    {
                        "number": 64,
                        "time": 36.007788000000005,
                        "value": 0
                    },
                    {
                        "number": 64,
                        "time": 36.12303031666667,
                        "value": 1
                    },
                    {
                        "number": 64,
                        "time": 36.813940620833336,
                        "value": 0
                    },
                    {
                        "number": 64,
                        "time": 36.913418658333335,
                        "value": 1
                    },
                    {
                        "number": 64,
                        "time": 37.573344,
                        "value": 0
                    },
                    {
                        "number": 64,
                        "time": 37.79078233333333,
                        "value": 1
                    },
                    {
                        "number": 64,
                        "time": 38.36264515,
                        "value": 0
                    },
                    {
                        "number": 64,
                        "time": 38.544749754166666,
                        "value": 1
                    },
                    {
                        "number": 64,
                        "time": 39.14161797916667,
                        "value": 0
                    },
                    {
                        "number": 64,
                        "time": 39.35633833333333,
                        "value": 1
                    },
                    {
                        "number": 64,
                        "time": 40.704456,
                        "value": 0
                    },
                    {
                        "number": 64,
                        "time": 40.93657142083333,
                        "value": 1
                    },
                    {
                        "number": 64,
                        "time": 41.490495575,
                        "value": 0
                    },
                    {
                        "number": 64,
                        "time": 41.70467233333333,
                        "value": 1
                    },
                    {
                        "number": 64,
                        "time": 42.270011999999994,
                        "value": 0
                    },
                    {
                        "number": 64,
                        "time": 42.38525431666666,
                        "value": 1
                    },
                    {
                        "number": 64,
                        "time": 43.059313149999994,
                        "value": 0
                    },
                    {
                        "number": 64,
                        "time": 43.229458645833326,
                        "value": 1
                    },
                    {
                        "number": 64,
                        "time": 43.835567999999995,
                        "value": 0
                    },
                    {
                        "number": 64,
                        "time": 43.9807080875,
                        "value": 1
                    },
                    {
                        "number": 64,
                        "time": 44.62378195833333,
                        "value": 0
                    },
                    {
                        "number": 64,
                        "time": 44.879272,
                        "value": 1
                    },
                    {
                        "number": 64,
                        "time": 45.401124,
                        "value": 0
                    },
                    {
                        "number": 64,
                        "time": 45.633239420833334,
                        "value": 1
                    },
                    {
                        "number": 64,
                        "time": 46.966680000000004,
                        "value": 0
                    },
                    {
                        "number": 64,
                        "time": 47.112363683333335,
                        "value": 1
                    },
                    {
                        "number": 64,
                        "time": 48.532236000000005,
                        "value": 0
                    },
                    {
                        "number": 64,
                        "time": 48.72086375416667,
                        "value": 1
                    },
                    {
                        "number": 64,
                        "time": 50.097792000000005,
                        "value": 0
                    },
                    {
                        "number": 64,
                        "time": 50.24347568333334,
                        "value": 1
                    },
                    {
                        "number": 64,
                        "time": 51.663348000000006,
                        "value": 0
                    },
                    {
                        "number": 64,
                        "time": 51.89546342083334,
                        "value": 1
                    },
                    {
                        "number": 64,
                        "time": 53.22890400000001,
                        "value": 0
                    },
                    {
                        "number": 64,
                        "time": 53.31587933333334,
                        "value": 1
                    },
                    {
                        "number": 64,
                        "time": 54.36610648333334,
                        "value": 0
                    },
                    {
                        "number": 64,
                        "time": 54.84447081666667,
                        "value": 1
                    },
                    {
                        "number": 64,
                        "time": 55.58376115000001,
                        "value": 0
                    },
                    {
                        "number": 64,
                        "time": 55.77619407500001,
                        "value": 1
                    },
                    {
                        "number": 64,
                        "time": 56.374693087500006,
                        "value": 0
                    },
                    {
                        "number": 64,
                        "time": 56.515484408333336,
                        "value": 1
                    },
                    {
                        "number": 64,
                        "time": 57.14986074583334,
                        "value": 0
                    },
                    {
                        "number": 64,
                        "time": 58.01254733333334,
                        "value": 1
                    },
                    {
                        "number": 64,
                        "time": 58.71487315,
                        "value": 0
                    },
                    {
                        "number": 64,
                        "time": 59.57810333333334,
                        "value": 1
                    },
                    {
                        "number": 64,
                        "time": 60.53754997916667,
                        "value": 0
                    },
                    {
                        "number": 64,
                        "time": 61.13115662916667,
                        "value": 1
                    },
                    {
                        "number": 64,
                        "time": 61.85196470416667,
                        "value": 0
                    },
                    {
                        "number": 64,
                        "time": 62.70921533333333,
                        "value": 1
                    },
                    {
                        "number": 64,
                        "time": 63.41154115,
                        "value": 0
                    },
                    {
                        "number": 64,
                        "time": 64.21280140833333,
                        "value": 1
                    },
                    {
                        "number": 64,
                        "time": 65.622889,
                        "value": 0
                    },
                    {
                        "number": 64,
                        "time": 65.6767049875,
                        "value": 1
                    },
                    {
                        "number": 64,
                        "time": 67.06233076666668,
                        "value": 0
                    },
                    {
                        "number": 64,
                        "time": 67.33358508750001,
                        "value": 1
                    },
                    {
                        "number": 64,
                        "time": 68.10386038333334,
                        "value": 0
                    },
                    {
                        "number": 64,
                        "time": 68.34847850833334,
                        "value": 1
                    },
                    {
                        "number": 64,
                        "time": 68.87033050833334,
                        "value": 0
                    },
                    {
                        "number": 64,
                        "time": 69.09592277916667,
                        "value": 1
                    },
                    {
                        "number": 64,
                        "time": 69.67430874583334,
                        "value": 0
                    },
                    {
                        "number": 64,
                        "time": 70.56634950833335,
                        "value": 1
                    },
                    {
                        "number": 64,
                        "time": 71.86989231666668,
                        "value": 0
                    },
                    {
                        "number": 64,
                        "time": 72.01557600000001,
                        "value": 1
                    },
                    {
                        "number": 64,
                        "time": 73.32455476666668,
                        "value": 0
                    },
                    {
                        "number": 64,
                        "time": 73.59580908750002,
                        "value": 1
                    },
                    {
                        "number": 64,
                        "time": 74.36608438333334,
                        "value": 0
                    },
                    {
                        "number": 64,
                        "time": 74.61070250833335,
                        "value": 1
                    },
                    {
                        "number": 64,
                        "time": 75.13255450833334,
                        "value": 0
                    },
                    {
                        "number": 64,
                        "time": 75.35814677916667,
                        "value": 1
                    },
                    {
                        "number": 64,
                        "time": 75.93653274583335,
                        "value": 0
                    },
                    {
                        "number": 64,
                        "time": 76.82857350833335,
                        "value": 1
                    },
                    {
                        "number": 64,
                        "time": 78.28486674583336,
                        "value": 0
                    },
                    {
                        "number": 64,
                        "time": 79.17690750833336,
                        "value": 1
                    },
                    {
                        "number": 64,
                        "time": 79.85042274583336,
                        "value": 0
                    },
                    {
                        "number": 64,
                        "time": 80.74246350833336,
                        "value": 1
                    },
                    {
                        "number": 64,
                        "time": 81.41597874583336,
                        "value": 0
                    },
                    {
                        "number": 64,
                        "time": 82.30801950833336,
                        "value": 1
                    },
                    {
                        "number": 64,
                        "time": 82.98153474583336,
                        "value": 0
                    },
                    {
                        "number": 64,
                        "time": 83.87357550833336,
                        "value": 1
                    },
                    {
                        "number": 64,
                        "time": 84.55524468333336,
                        "value": 0
                    },
                    {
                        "number": 64,
                        "time": 84.6895128541667,
                        "value": 1
                    },
                    {
                        "number": 64,
                        "time": 84.81345270416669,
                        "value": 0
                    },
                    {
                        "number": 64,
                        "time": 85.13634862916669,
                        "value": 1
                    },
                    {
                        "number": 64,
                        "time": 85.35541775000003,
                        "value": 0
                    },
                    {
                        "number": 64,
                        "time": 85.62123611250003,
                        "value": 1
                    },
                    {
                        "number": 64,
                        "time": 85.86639783333337,
                        "value": 0
                    },
                    {
                        "number": 64,
                        "time": 86.1555908166667,
                        "value": 1
                    },
                    {
                        "number": 64,
                        "time": 86.38824983333338,
                        "value": 0
                    },
                    {
                        "number": 64,
                        "time": 86.71440733333337,
                        "value": 1
                    },
                    {
                        "number": 64,
                        "time": 86.92097375000003,
                        "value": 0
                    },
                    {
                        "number": 64,
                        "time": 87.34824007500004,
                        "value": 1
                    },
                    {
                        "number": 64,
                        "time": 87.67113600000003,
                        "value": 0
                    },
                    {
                        "number": 64,
                        "time": 87.91792850833336,
                        "value": 1
                    },
                    {
                        "number": 64,
                        "time": 90.56469662083336,
                        "value": 0
                    },
                    {
                        "number": 64,
                        "time": 90.90335682500003,
                        "value": 1
                    },
                    {
                        "number": 64,
                        "time": 93.69580862083336,
                        "value": 0
                    },
                    {
                        "number": 64,
                        "time": 94.03501242083337,
                        "value": 1
                    },
                    {
                        "number": 64,
                        "time": 96.74211967083338,
                        "value": 0
                    },
                    {
                        "number": 64,
                        "time": 97.16612442083337,
                        "value": 1
                    },
                    {
                        "number": 64,
                        "time": 98.63002800000004,
                        "value": 0
                    },
                    {
                        "number": 64,
                        "time": 98.87301533750004,
                        "value": 1
                    },
                    {
                        "number": 64,
                        "time": 100.06512100000003,
                        "value": 0
                    },
                    {
                        "number": 64,
                        "time": 100.19558400000004,
                        "value": 1
                    },
                    {
                        "number": 64,
                        "time": 101.48499331666676,
                        "value": 0
                    },
                    {
                        "number": 64,
                        "time": 101.79973530416676,
                        "value": 1
                    },
                    {
                        "number": 64,
                        "time": 103.2641824791668,
                        "value": 0
                    },
                    {
                        "number": 64,
                        "time": 103.32669600000014,
                        "value": 1
                    },
                    {
                        "number": 64,
                        "time": 104.18612101250018,
                        "value": 0
                    },
                    {
                        "number": 64,
                        "time": 104.29375298750018,
                        "value": 1
                    },
                    {
                        "number": 64,
                        "time": 104.90692908750019,
                        "value": 0
                    },
                    {
                        "number": 64,
                        "time": 105.02271500000019,
                        "value": 1
                    },
                    {
                        "number": 64,
                        "time": 106.38877132916691,
                        "value": 0
                    },
                    {
                        "number": 64,
                        "time": 106.46922351250025,
                        "value": 1
                    },
                    {
                        "number": 64,
                        "time": 107.24384757500027,
                        "value": 0
                    },
                    {
                        "number": 64,
                        "time": 107.31723301250027,
                        "value": 1
                    },
                    {
                        "number": 64,
                        "time": 107.9505221583336,
                        "value": 0
                    },
                    {
                        "number": 64,
                        "time": 108.04293345000028,
                        "value": 1
                    },
                    {
                        "number": 64,
                        "time": 109.54325795000031,
                        "value": 0
                    },
                    {
                        "number": 64,
                        "time": 109.58892000000031,
                        "value": 1
                    },
                    {
                        "number": 64,
                        "time": 110.37659036250035,
                        "value": 0
                    },
                    {
                        "number": 64,
                        "time": 110.43692950000035,
                        "value": 1
                    },
                    {
                        "number": 64,
                        "time": 111.07402381666701,
                        "value": 0
                    },
                    {
                        "number": 64,
                        "time": 111.15447600000034,
                        "value": 1
                    },
                    {
                        "number": 64,
                        "time": 112.66241084166707,
                        "value": 0
                    },
                    {
                        "number": 64,
                        "time": 112.72383717083373,
                        "value": 1
                    },
                    {
                        "number": 64,
                        "time": 114.21655132916709,
                        "value": 0
                    },
                    {
                        "number": 64,
                        "time": 114.31276779166708,
                        "value": 1
                    },
                    {
                        "number": 64,
                        "time": 115.78210732916712,
                        "value": 0
                    },
                    {
                        "number": 64,
                        "time": 115.86255951250045,
                        "value": 1
                    },
                    {
                        "number": 64,
                        "time": 116.89484800000048,
                        "value": 0
                    },
                    {
                        "number": 64,
                        "time": 116.95246915833381,
                        "value": 1
                    },
                    {
                        "number": 64,
                        "time": 117.36288401250047,
                        "value": 0
                    },
                    {
                        "number": 64,
                        "time": 117.47432115833381,
                        "value": 1
                    },
                    {
                        "number": 64,
                        "time": 118.8479878291672,
                        "value": 0
                    },
                    {
                        "number": 64,
                        "time": 118.90941415833386,
                        "value": 1
                    },
                    {
                        "number": 64,
                        "time": 120.29014757500055,
                        "value": 0
                    },
                    {
                        "number": 64,
                        "time": 120.33309164583387,
                        "value": 1
                    },
                    {
                        "number": 64,
                        "time": 120.48584207500055,
                        "value": 0
                    },
                    {
                        "number": 64,
                        "time": 120.54781200000055,
                        "value": 1
                    },
                    {
                        "number": 64,
                        "time": 122.01769513333392,
                        "value": 0
                    },
                    {
                        "number": 64,
                        "time": 122.11336800000058,
                        "value": 1
                    },
                    {
                        "number": 64,
                        "time": 123.6022769875006,
                        "value": 0
                    },
                    {
                        "number": 64,
                        "time": 123.73491437083393,
                        "value": 1
                    },
                    {
                        "number": 64,
                        "time": 124.46659436250063,
                        "value": 0
                    },
                    {
                        "number": 64,
                        "time": 124.52095394583397,
                        "value": 1
                    },
                    {
                        "number": 64,
                        "time": 125.14826353750064,
                        "value": 0
                    },
                    {
                        "number": 64,
                        "time": 125.24448000000064,
                        "value": 1
                    },
                    {
                        "number": 64,
                        "time": 126.74480450000065,
                        "value": 0
                    },
                    {
                        "number": 64,
                        "time": 126.81003600000065,
                        "value": 1
                    },
                    {
                        "number": 64,
                        "time": 128.31036050000068,
                        "value": 0
                    },
                    {
                        "number": 64,
                        "time": 128.3755920000007,
                        "value": 1
                    },
                    {
                        "number": 64,
                        "time": 129.16326236250063,
                        "value": 0
                    },
                    {
                        "number": 64,
                        "time": 129.2312118416673,
                        "value": 1
                    },
                    {
                        "number": 64,
                        "time": 129.8492803041673,
                        "value": 0
                    },
                    {
                        "number": 64,
                        "time": 130.07161100000064,
                        "value": 1
                    },
                    {
                        "number": 64,
                        "time": 131.52138108750057,
                        "value": 0
                    },
                    {
                        "number": 64,
                        "time": 131.63716700000057,
                        "value": 1
                    },
                    {
                        "number": 64,
                        "time": 133.08693708750053,
                        "value": 0
                    },
                    {
                        "number": 64,
                        "time": 133.20272300000053,
                        "value": 1
                    },
                    {
                        "number": 64,
                        "time": 134.6524930875005,
                        "value": 0
                    },
                    {
                        "number": 64,
                        "time": 134.7682790000005,
                        "value": 1
                    },
                    {
                        "number": 64,
                        "time": 136.21804908750045,
                        "value": 0
                    },
                    {
                        "number": 64,
                        "time": 136.33383500000045,
                        "value": 1
                    },
                    {
                        "number": 64,
                        "time": 139.68782129166706,
                        "value": 0
                    },
                    {
                        "number": 64,
                        "time": 140.74837676250038,
                        "value": 1
                    },
                    {
                        "number": 64,
                        "time": 142.46559600000037,
                        "value": 0
                    },
                    {
                        "number": 64,
                        "time": 142.77000966666705,
                        "value": 1
                    },
                    {
                        "number": 64,
                        "time": 146.32186484166704,
                        "value": 0
                    }
                ]
            },
            "id": 3,
            "name": "Pedale",
            "instrumentNumber": 0,
            "instrument": "acoustic grand piano",
            "instrumentFamily": "piano",
            "channelNumber": 0,
            "isPercussion": false
        },
        {
            "startTime": 0,
            "duration": 0,
            "length": 0,
            "notes": [],
            "controlChanges": {},
            "id": 4,
            "name": "Grieg: Lyric pieces Book III - To Spring"
        },
        {
            "startTime": 0,
            "duration": 0,
            "length": 0,
            "notes": [],
            "controlChanges": {},
            "id": 5,
            "name": "Copyright 息 2007 by Bernd Krueger"
        },
        {
            "startTime": 0,
            "duration": 0,
            "length": 0,
            "notes": [],
            "controlChanges": {},
            "id": 6,
            "name": "http://www.piano-midi.de/"
        },
        {
            "startTime": 0,
            "duration": 0,
            "length": 0,
            "notes": [],
            "controlChanges": {},
            "id": 7,
            "name": "Edition: 2012-09-14"
        },
        {
            "startTime": 0,
            "duration": 0,
            "length": 0,
            "notes": [],
            "controlChanges": {},
            "id": 8,
            "name": "Spur 8"
        },
        {
            "startTime": 0,
            "duration": 0,
            "length": 0,
            "notes": [],
            "controlChanges": {},
            "id": 9,
            "name": "Spur 9"
        },
        {
            "startTime": 0,
            "duration": 0,
            "length": 0,
            "notes": [],
            "controlChanges": {},
            "id": 10,
            "name": "Spur 10"
        },
        {
            "startTime": 0,
            "duration": 0,
            "length": 0,
            "notes": [],
            "controlChanges": {},
            "id": 11,
            "name": "Spur 11"
        },
        {
            "startTime": 0,
            "duration": 0,
            "length": 0,
            "notes": [],
            "controlChanges": {},
            "id": 12,
            "name": "Spur 12"
        },
        {
            "startTime": 0,
            "duration": 0,
            "length": 0,
            "notes": [],
            "controlChanges": {},
            "id": 13,
            "name": "Spur 13"
        },
        {
            "startTime": 0,
            "duration": 0,
            "length": 0,
            "notes": [],
            "controlChanges": {},
            "id": 14,
            "name": "Spur 14"
        },
        {
            "startTime": 0,
            "duration": 0,
            "length": 0,
            "notes": [],
            "controlChanges": {},
            "id": 15,
            "name": "Spur 15"
        },
        {
            "startTime": 0,
            "duration": 0,
            "length": 0,
            "notes": [],
            "controlChanges": {},
            "id": 16,
            "name": "Spur 16"
        }
    ]
}