{
    "header": {
        "PPQ": 480,
        "timeSignature": [
            6,
            8
        ],
        "bpm": 176.20006930536059,
        "name": "Vöglein Op 43, No. 4"
    },
    "startTime": 0,
    "duration": 65.46535450000003,
    "tracks": [
        {
            "startTime": 0,
            "duration": 0,
            "length": 0,
            "notes": [],
            "controlChanges": {},
            "id": 0,
            "name": "Vöglein Op 43, No. 4"
        },
        {
            "startTime": 0.851305,
            "duration": 65.46535449999995,
            "length": 463,
            "notes": [
                {
                    "name": "A5",
                    "midi": 81,
                    "time": 0.851305,
                    "velocity": 0.33858267716535434,
                    "duration": 0.04256525
                },
                {
                    "name": "A#5",
                    "midi": 82,
                    "time": 0.89387025,
                    "velocity": 0.2992125984251969,
                    "duration": 0.04256525
                },
                {
                    "name": "A5",
                    "midi": 81,
                    "time": 0.9364355,
                    "velocity": 0.33858267716535434,
                    "duration": 0.04256525
                },
                {
                    "name": "A#5",
                    "midi": 82,
                    "time": 0.97900075,
                    "velocity": 0.30708661417322836,
                    "duration": 0.04256525
                },
                {
                    "name": "A5",
                    "midi": 81,
                    "time": 1.021566,
                    "velocity": 0.3858267716535433,
                    "duration": 0.0851305
                },
                {
                    "name": "D6",
                    "midi": 86,
                    "time": 1.872871,
                    "velocity": 0.3464566929133858,
                    "duration": 0.04256525
                },
                {
                    "name": "E6",
                    "midi": 88,
                    "time": 1.91543625,
                    "velocity": 0.31496062992125984,
                    "duration": 0.04256525
                },
                {
                    "name": "D6",
                    "midi": 86,
                    "time": 1.9580015,
                    "velocity": 0.3464566929133858,
                    "duration": 0.04256525
                },
                {
                    "name": "E6",
                    "midi": 88,
                    "time": 2.00056675,
                    "velocity": 0.33070866141732286,
                    "duration": 0.04256525
                },
                {
                    "name": "D6",
                    "midi": 86,
                    "time": 2.043132,
                    "velocity": 0.3937007874015748,
                    "duration": 0.0851305
                },
                {
                    "name": "A5",
                    "midi": 81,
                    "time": 2.894437,
                    "velocity": 0.3858267716535433,
                    "duration": 0.04256525
                },
                {
                    "name": "A#5",
                    "midi": 82,
                    "time": 2.93700225,
                    "velocity": 0.3464566929133858,
                    "duration": 0.04256525
                },
                {
                    "name": "A5",
                    "midi": 81,
                    "time": 2.9795675,
                    "velocity": 0.3858267716535433,
                    "duration": 0.04256525
                },
                {
                    "name": "A#5",
                    "midi": 82,
                    "time": 3.02213275,
                    "velocity": 0.3464566929133858,
                    "duration": 0.04256525
                },
                {
                    "name": "A5",
                    "midi": 81,
                    "time": 3.064698,
                    "velocity": 0.4094488188976378,
                    "duration": 0.0851305
                },
                {
                    "name": "F5",
                    "midi": 77,
                    "time": 3.40522,
                    "velocity": 0.3779527559055118,
                    "duration": 0.04256525
                },
                {
                    "name": "G5",
                    "midi": 79,
                    "time": 3.44778525,
                    "velocity": 0.3543307086614173,
                    "duration": 0.04256525
                },
                {
                    "name": "F5",
                    "midi": 77,
                    "time": 3.4903505,
                    "velocity": 0.3779527559055118,
                    "duration": 0.04256525
                },
                {
                    "name": "G5",
                    "midi": 79,
                    "time": 3.53291575,
                    "velocity": 0.3543307086614173,
                    "duration": 0.04256525
                },
                {
                    "name": "F5",
                    "midi": 77,
                    "time": 3.575481,
                    "velocity": 0.4409448818897638,
                    "duration": 0.0851305
                },
                {
                    "name": "A5",
                    "midi": 81,
                    "time": 3.916003,
                    "velocity": 0.3858267716535433,
                    "duration": 0.04256525
                },
                {
                    "name": "A#5",
                    "midi": 82,
                    "time": 3.95856825,
                    "velocity": 0.3464566929133858,
                    "duration": 0.04256525
                },
                {
                    "name": "A5",
                    "midi": 81,
                    "time": 4.0011335,
                    "velocity": 0.3858267716535433,
                    "duration": 0.04256525
                },
                {
                    "name": "A#5",
                    "midi": 82,
                    "time": 4.04369875,
                    "velocity": 0.3464566929133858,
                    "duration": 0.04256525
                },
                {
                    "name": "A5",
                    "midi": 81,
                    "time": 4.086264,
                    "velocity": 0.4251968503937008,
                    "duration": 0.0851305
                },
                {
                    "name": "C6",
                    "midi": 84,
                    "time": 4.937569,
                    "velocity": 0.3779527559055118,
                    "duration": 0.04256525
                },
                {
                    "name": "D6",
                    "midi": 86,
                    "time": 4.98013425,
                    "velocity": 0.3543307086614173,
                    "duration": 0.04256525
                },
                {
                    "name": "C6",
                    "midi": 84,
                    "time": 5.0226995,
                    "velocity": 0.3779527559055118,
                    "duration": 0.04256525
                },
                {
                    "name": "D6",
                    "midi": 86,
                    "time": 5.06526475,
                    "velocity": 0.3543307086614173,
                    "duration": 0.04256525
                },
                {
                    "name": "C6",
                    "midi": 84,
                    "time": 5.10783,
                    "velocity": 0.5354330708661418,
                    "duration": 0.0851305
                },
                {
                    "name": "E6",
                    "midi": 88,
                    "time": 5.959135,
                    "velocity": 0.3779527559055118,
                    "duration": 0.04256525
                },
                {
                    "name": "F6",
                    "midi": 89,
                    "time": 6.00170025,
                    "velocity": 0.3464566929133858,
                    "duration": 0.04256525
                },
                {
                    "name": "E6",
                    "midi": 88,
                    "time": 6.0442655,
                    "velocity": 0.3779527559055118,
                    "duration": 0.04256525
                },
                {
                    "name": "F6",
                    "midi": 89,
                    "time": 6.08683075,
                    "velocity": 0.3543307086614173,
                    "duration": 0.04256525
                },
                {
                    "name": "E6",
                    "midi": 88,
                    "time": 6.129396,
                    "velocity": 0.5275590551181102,
                    "duration": 0.0851305
                },
                {
                    "name": "G#5",
                    "midi": 80,
                    "time": 6.8955705,
                    "velocity": 0.4251968503937008,
                    "duration": 0.0851305
                },
                {
                    "name": "E5",
                    "midi": 76,
                    "time": 6.980701,
                    "velocity": 0.4251968503937008,
                    "duration": 0.0851305
                },
                {
                    "name": "C5",
                    "midi": 72,
                    "time": 7.150962,
                    "velocity": 0.3858267716535433,
                    "duration": 0.170261
                },
                {
                    "name": "G#4",
                    "midi": 68,
                    "time": 7.150962,
                    "velocity": 0.3858267716535433,
                    "duration": 0.170261
                },
                {
                    "name": "G#5",
                    "midi": 80,
                    "time": 7.4063535,
                    "velocity": 0.4251968503937008,
                    "duration": 0.0851305
                },
                {
                    "name": "E5",
                    "midi": 76,
                    "time": 7.491484,
                    "velocity": 0.4251968503937008,
                    "duration": 0.0851305
                },
                {
                    "name": "G#4",
                    "midi": 68,
                    "time": 7.661745,
                    "velocity": 0.3937007874015748,
                    "duration": 0.170261
                },
                {
                    "name": "C5",
                    "midi": 72,
                    "time": 7.661745,
                    "velocity": 0.3937007874015748,
                    "duration": 0.170261
                },
                {
                    "name": "A5",
                    "midi": 81,
                    "time": 7.9171365,
                    "velocity": 0.4251968503937008,
                    "duration": 0.0851305
                },
                {
                    "name": "E5",
                    "midi": 76,
                    "time": 8.002267,
                    "velocity": 0.4251968503937008,
                    "duration": 0.0851305
                },
                {
                    "name": "A4",
                    "midi": 69,
                    "time": 8.172528,
                    "velocity": 0.4409448818897638,
                    "duration": 0.170261
                },
                {
                    "name": "C4",
                    "midi": 60,
                    "time": 8.51305,
                    "velocity": 0.4330708661417323,
                    "duration": 0.170261
                },
                {
                    "name": "A4",
                    "midi": 69,
                    "time": 8.51305,
                    "velocity": 0.4330708661417323,
                    "duration": 0.170261
                },
                {
                    "name": "A4",
                    "midi": 69,
                    "time": 8.683311,
                    "velocity": 0.4330708661417323,
                    "duration": 0.170261
                },
                {
                    "name": "C4",
                    "midi": 60,
                    "time": 8.683311,
                    "velocity": 0.4330708661417323,
                    "duration": 0.170261
                },
                {
                    "name": "A5",
                    "midi": 81,
                    "time": 9.023833,
                    "velocity": 0.33858267716535434,
                    "duration": 0.04256524999999911
                },
                {
                    "name": "A#5",
                    "midi": 82,
                    "time": 9.066398249999999,
                    "velocity": 0.2992125984251969,
                    "duration": 0.04256524999999911
                },
                {
                    "name": "A5",
                    "midi": 81,
                    "time": 9.108963499999998,
                    "velocity": 0.33858267716535434,
                    "duration": 0.04256524999999911
                },
                {
                    "name": "A#5",
                    "midi": 82,
                    "time": 9.151528749999997,
                    "velocity": 0.30708661417322836,
                    "duration": 0.04256524999999911
                },
                {
                    "name": "A5",
                    "midi": 81,
                    "time": 9.194093999999996,
                    "velocity": 0.3858267716535433,
                    "duration": 0.0851305
                },
                {
                    "name": "D6",
                    "midi": 86,
                    "time": 10.045398999999996,
                    "velocity": 0.3464566929133858,
                    "duration": 0.04256524999999911
                },
                {
                    "name": "E6",
                    "midi": 88,
                    "time": 10.087964249999995,
                    "velocity": 0.31496062992125984,
                    "duration": 0.04256524999999911
                },
                {
                    "name": "D6",
                    "midi": 86,
                    "time": 10.130529499999994,
                    "velocity": 0.3464566929133858,
                    "duration": 0.04256524999999911
                },
                {
                    "name": "E6",
                    "midi": 88,
                    "time": 10.173094749999994,
                    "velocity": 0.33070866141732286,
                    "duration": 0.04256524999999911
                },
                {
                    "name": "D6",
                    "midi": 86,
                    "time": 10.215659999999993,
                    "velocity": 0.3937007874015748,
                    "duration": 0.0851305
                },
                {
                    "name": "A5",
                    "midi": 81,
                    "time": 11.066964999999993,
                    "velocity": 0.3858267716535433,
                    "duration": 0.04256524999999911
                },
                {
                    "name": "A#5",
                    "midi": 82,
                    "time": 11.109530249999992,
                    "velocity": 0.3464566929133858,
                    "duration": 0.04256524999999911
                },
                {
                    "name": "A5",
                    "midi": 81,
                    "time": 11.15209549999999,
                    "velocity": 0.3858267716535433,
                    "duration": 0.04256524999999911
                },
                {
                    "name": "A#5",
                    "midi": 82,
                    "time": 11.19466074999999,
                    "velocity": 0.3464566929133858,
                    "duration": 0.04256524999999911
                },
                {
                    "name": "A5",
                    "midi": 81,
                    "time": 11.237225999999989,
                    "velocity": 0.4094488188976378,
                    "duration": 0.0851305
                },
                {
                    "name": "F5",
                    "midi": 77,
                    "time": 11.577747999999989,
                    "velocity": 0.3779527559055118,
                    "duration": 0.04256524999999911
                },
                {
                    "name": "G5",
                    "midi": 79,
                    "time": 11.620313249999988,
                    "velocity": 0.3543307086614173,
                    "duration": 0.04256524999999911
                },
                {
                    "name": "F5",
                    "midi": 77,
                    "time": 11.662878499999987,
                    "velocity": 0.3779527559055118,
                    "duration": 0.04256524999999911
                },
                {
                    "name": "G5",
                    "midi": 79,
                    "time": 11.705443749999986,
                    "velocity": 0.3543307086614173,
                    "duration": 0.04256524999999911
                },
                {
                    "name": "F5",
                    "midi": 77,
                    "time": 11.748008999999985,
                    "velocity": 0.4409448818897638,
                    "duration": 0.0851305
                },
                {
                    "name": "A5",
                    "midi": 81,
                    "time": 12.088530999999985,
                    "velocity": 0.3858267716535433,
                    "duration": 0.04256524999999911
                },
                {
                    "name": "A#5",
                    "midi": 82,
                    "time": 12.131096249999985,
                    "velocity": 0.3464566929133858,
                    "duration": 0.04256524999999911
                },
                {
                    "name": "A5",
                    "midi": 81,
                    "time": 12.173661499999984,
                    "velocity": 0.3858267716535433,
                    "duration": 0.04256524999999911
                },
                {
                    "name": "A#5",
                    "midi": 82,
                    "time": 12.216226749999983,
                    "velocity": 0.3464566929133858,
                    "duration": 0.04256524999999911
                },
                {
                    "name": "A5",
                    "midi": 81,
                    "time": 12.258791999999982,
                    "velocity": 0.4251968503937008,
                    "duration": 0.0851305
                },
                {
                    "name": "C6",
                    "midi": 84,
                    "time": 13.110096999999982,
                    "velocity": 0.3779527559055118,
                    "duration": 0.04256524999999911
                },
                {
                    "name": "D6",
                    "midi": 86,
                    "time": 13.152662249999981,
                    "velocity": 0.3543307086614173,
                    "duration": 0.04256524999999911
                },
                {
                    "name": "C6",
                    "midi": 84,
                    "time": 13.19522749999998,
                    "velocity": 0.3779527559055118,
                    "duration": 0.04256524999999911
                },
                {
                    "name": "D6",
                    "midi": 86,
                    "time": 13.23779274999998,
                    "velocity": 0.3543307086614173,
                    "duration": 0.04256524999999911
                },
                {
                    "name": "C6",
                    "midi": 84,
                    "time": 13.280357999999978,
                    "velocity": 0.5354330708661418,
                    "duration": 0.0851305
                },
                {
                    "name": "E6",
                    "midi": 88,
                    "time": 14.131662999999978,
                    "velocity": 0.3779527559055118,
                    "duration": 0.04256524999999911
                },
                {
                    "name": "F6",
                    "midi": 89,
                    "time": 14.174228249999977,
                    "velocity": 0.3464566929133858,
                    "duration": 0.04256524999999911
                },
                {
                    "name": "E6",
                    "midi": 88,
                    "time": 14.216793499999977,
                    "velocity": 0.3779527559055118,
                    "duration": 0.04256524999999911
                },
                {
                    "name": "F6",
                    "midi": 89,
                    "time": 14.259358749999976,
                    "velocity": 0.3543307086614173,
                    "duration": 0.04256524999999911
                },
                {
                    "name": "E6",
                    "midi": 88,
                    "time": 14.301923999999975,
                    "velocity": 0.5275590551181102,
                    "duration": 0.0851305
                },
                {
                    "name": "G#5",
                    "midi": 80,
                    "time": 15.068098499999975,
                    "velocity": 0.4251968503937008,
                    "duration": 0.0851305
                },
                {
                    "name": "E5",
                    "midi": 76,
                    "time": 15.153228999999975,
                    "velocity": 0.4251968503937008,
                    "duration": 0.0851305
                },
                {
                    "name": "G#4",
                    "midi": 68,
                    "time": 15.323489999999975,
                    "velocity": 0.3858267716535433,
                    "duration": 0.170261
                },
                {
                    "name": "C5",
                    "midi": 72,
                    "time": 15.323489999999975,
                    "velocity": 0.3858267716535433,
                    "duration": 0.170261
                },
                {
                    "name": "G#5",
                    "midi": 80,
                    "time": 15.578881499999975,
                    "velocity": 0.4251968503937008,
                    "duration": 0.0851305
                },
                {
                    "name": "E5",
                    "midi": 76,
                    "time": 15.664011999999975,
                    "velocity": 0.4251968503937008,
                    "duration": 0.0851305
                },
                {
                    "name": "G#4",
                    "midi": 68,
                    "time": 15.834272999999975,
                    "velocity": 0.3937007874015748,
                    "duration": 0.170261
                },
                {
                    "name": "C5",
                    "midi": 72,
                    "time": 15.834272999999975,
                    "velocity": 0.3937007874015748,
                    "duration": 0.170261
                },
                {
                    "name": "A5",
                    "midi": 81,
                    "time": 16.089664499999976,
                    "velocity": 0.4251968503937008,
                    "duration": 0.08513049999999822
                },
                {
                    "name": "E5",
                    "midi": 76,
                    "time": 16.174794999999975,
                    "velocity": 0.4251968503937008,
                    "duration": 0.08513049999999822
                },
                {
                    "name": "A4",
                    "midi": 69,
                    "time": 16.34505599999997,
                    "velocity": 0.4409448818897638,
                    "duration": 0.170261
                },
                {
                    "name": "C4",
                    "midi": 60,
                    "time": 16.68557799999997,
                    "velocity": 0.44881889763779526,
                    "duration": 0.170261
                },
                {
                    "name": "A4",
                    "midi": 69,
                    "time": 16.68557799999997,
                    "velocity": 0.44881889763779526,
                    "duration": 0.170261
                },
                {
                    "name": "C4",
                    "midi": 60,
                    "time": 16.85583899999997,
                    "velocity": 0.44881889763779526,
                    "duration": 0.170261
                },
                {
                    "name": "A4",
                    "midi": 69,
                    "time": 16.85583899999997,
                    "velocity": 0.44881889763779526,
                    "duration": 0.170261
                },
                {
                    "name": "E3",
                    "midi": 52,
                    "time": 17.622013499999973,
                    "velocity": 0.31496062992125984,
                    "duration": 0.08513049999999822
                },
                {
                    "name": "D4",
                    "midi": 62,
                    "time": 17.622013499999973,
                    "velocity": 0.31496062992125984,
                    "duration": 0.08513049999999822
                },
                {
                    "name": "E4",
                    "midi": 64,
                    "time": 17.70714399999997,
                    "velocity": 0.33858267716535434,
                    "duration": 0.08513049999999822
                },
                {
                    "name": "E4",
                    "midi": 64,
                    "time": 17.877404999999968,
                    "velocity": 0.3858267716535433,
                    "duration": 0.510783
                },
                {
                    "name": "D4",
                    "midi": 62,
                    "time": 17.877404999999968,
                    "velocity": 0.3858267716535433,
                    "duration": 0.510783
                },
                {
                    "name": "E3",
                    "midi": 52,
                    "time": 17.877404999999968,
                    "velocity": 0.3858267716535433,
                    "duration": 0.510783
                },
                {
                    "name": "D4",
                    "midi": 62,
                    "time": 18.643579499999966,
                    "velocity": 0.31496062992125984,
                    "duration": 0.08513049999999822
                },
                {
                    "name": "E3",
                    "midi": 52,
                    "time": 18.643579499999966,
                    "velocity": 0.31496062992125984,
                    "duration": 0.08513049999999822
                },
                {
                    "name": "E4",
                    "midi": 64,
                    "time": 18.728709999999964,
                    "velocity": 0.3543307086614173,
                    "duration": 0.08513049999999822
                },
                {
                    "name": "D4",
                    "midi": 62,
                    "time": 18.89897099999996,
                    "velocity": 0.3779527559055118,
                    "duration": 0.510783
                },
                {
                    "name": "E4",
                    "midi": 64,
                    "time": 18.89897099999996,
                    "velocity": 0.3779527559055118,
                    "duration": 0.510783
                },
                {
                    "name": "E3",
                    "midi": 52,
                    "time": 18.89897099999996,
                    "velocity": 0.3779527559055118,
                    "duration": 0.510783
                },
                {
                    "name": "E4",
                    "midi": 64,
                    "time": 19.75027599999996,
                    "velocity": 0.31496062992125984,
                    "duration": 0.08513050000000177
                },
                {
                    "name": "D4",
                    "midi": 62,
                    "time": 19.75027599999996,
                    "velocity": 0.31496062992125984,
                    "duration": 0.08513050000000177
                },
                {
                    "name": "E3",
                    "midi": 52,
                    "time": 19.75027599999996,
                    "velocity": 0.31496062992125984,
                    "duration": 0.08513050000000177
                },
                {
                    "name": "E4",
                    "midi": 64,
                    "time": 20.26105899999996,
                    "velocity": 0.31496062992125984,
                    "duration": 0.08513049999999822
                },
                {
                    "name": "D4",
                    "midi": 62,
                    "time": 20.26105899999996,
                    "velocity": 0.31496062992125984,
                    "duration": 0.08513049999999822
                },
                {
                    "name": "E3",
                    "midi": 52,
                    "time": 20.26105899999996,
                    "velocity": 0.31496062992125984,
                    "duration": 0.08513049999999822
                },
                {
                    "name": "C#4",
                    "midi": 61,
                    "time": 20.68671149999996,
                    "velocity": 0.3779527559055118,
                    "duration": 0.08513049999999822
                },
                {
                    "name": "E3",
                    "midi": 52,
                    "time": 20.68671149999996,
                    "velocity": 0.3779527559055118,
                    "duration": 0.08513049999999822
                },
                {
                    "name": "E4",
                    "midi": 64,
                    "time": 20.771841999999957,
                    "velocity": 0.3779527559055118,
                    "duration": 0.08513049999999822
                },
                {
                    "name": "E3",
                    "midi": 52,
                    "time": 20.942102999999953,
                    "velocity": 0.3779527559055118,
                    "duration": 0.510783
                },
                {
                    "name": "C#4",
                    "midi": 61,
                    "time": 20.942102999999953,
                    "velocity": 0.3779527559055118,
                    "duration": 0.510783
                },
                {
                    "name": "E4",
                    "midi": 64,
                    "time": 20.942102999999953,
                    "velocity": 0.3779527559055118,
                    "duration": 0.510783
                },
                {
                    "name": "A4",
                    "midi": 69,
                    "time": 21.793407999999953,
                    "velocity": 0.5984251968503937,
                    "duration": 0.04256524999999911
                },
                {
                    "name": "B4",
                    "midi": 71,
                    "time": 21.835973249999952,
                    "velocity": 0.5433070866141733,
                    "duration": 0.04256524999999911
                },
                {
                    "name": "A4",
                    "midi": 69,
                    "time": 21.87853849999995,
                    "velocity": 0.5433070866141733,
                    "duration": 0.04256524999999911
                },
                {
                    "name": "B4",
                    "midi": 71,
                    "time": 21.92110374999995,
                    "velocity": 0.5433070866141733,
                    "duration": 0.04256524999999911
                },
                {
                    "name": "G#4",
                    "midi": 68,
                    "time": 21.96366899999995,
                    "velocity": 0.5354330708661418,
                    "duration": 0.08513050000000177
                },
                {
                    "name": "G4",
                    "midi": 67,
                    "time": 22.304190999999953,
                    "velocity": 0.5748031496062992,
                    "duration": 0.04256524999999911
                },
                {
                    "name": "A4",
                    "midi": 69,
                    "time": 22.346756249999952,
                    "velocity": 0.5275590551181102,
                    "duration": 0.04256524999999911
                },
                {
                    "name": "G4",
                    "midi": 67,
                    "time": 22.38932149999995,
                    "velocity": 0.5275590551181102,
                    "duration": 0.04256524999999911
                },
                {
                    "name": "A4",
                    "midi": 69,
                    "time": 22.43188674999995,
                    "velocity": 0.5275590551181102,
                    "duration": 0.04256524999999911
                },
                {
                    "name": "F#4",
                    "midi": 66,
                    "time": 22.47445199999995,
                    "velocity": 0.5275590551181102,
                    "duration": 0.08513049999999822
                },
                {
                    "name": "F4",
                    "midi": 65,
                    "time": 22.81497399999995,
                    "velocity": 0.5511811023622047,
                    "duration": 0.04256524999999911
                },
                {
                    "name": "G4",
                    "midi": 67,
                    "time": 22.85753924999995,
                    "velocity": 0.4881889763779528,
                    "duration": 0.04256524999999911
                },
                {
                    "name": "F4",
                    "midi": 65,
                    "time": 22.900104499999948,
                    "velocity": 0.4881889763779528,
                    "duration": 0.04256524999999911
                },
                {
                    "name": "G4",
                    "midi": 67,
                    "time": 22.942669749999947,
                    "velocity": 0.4881889763779528,
                    "duration": 0.04256524999999911
                },
                {
                    "name": "E4",
                    "midi": 64,
                    "time": 22.985234999999946,
                    "velocity": 0.4881889763779528,
                    "duration": 0.08513049999999822
                },
                {
                    "name": "D4",
                    "midi": 62,
                    "time": 23.325756999999946,
                    "velocity": 0.5354330708661418,
                    "duration": 0.04256524999999911
                },
                {
                    "name": "E4",
                    "midi": 64,
                    "time": 23.368322249999945,
                    "velocity": 0.47244094488188976,
                    "duration": 0.04256524999999911
                },
                {
                    "name": "D4",
                    "midi": 62,
                    "time": 23.410887499999944,
                    "velocity": 0.47244094488188976,
                    "duration": 0.04256524999999911
                },
                {
                    "name": "E4",
                    "midi": 64,
                    "time": 23.453452749999943,
                    "velocity": 0.47244094488188976,
                    "duration": 0.04256524999999911
                },
                {
                    "name": "C#4",
                    "midi": 61,
                    "time": 23.496017999999943,
                    "velocity": 0.47244094488188976,
                    "duration": 0.08513049999999822
                },
                {
                    "name": "C4",
                    "midi": 60,
                    "time": 23.836539999999943,
                    "velocity": 0.5039370078740157,
                    "duration": 0.04256524999999911
                },
                {
                    "name": "E4",
                    "midi": 64,
                    "time": 23.87910524999994,
                    "velocity": 0.44881889763779526,
                    "duration": 0.04256524999999911
                },
                {
                    "name": "C4",
                    "midi": 60,
                    "time": 23.92167049999994,
                    "velocity": 0.4566929133858268,
                    "duration": 0.04256524999999911
                },
                {
                    "name": "E4",
                    "midi": 64,
                    "time": 23.96423574999994,
                    "velocity": 0.4566929133858268,
                    "duration": 0.04256524999999911
                },
                {
                    "name": "B3",
                    "midi": 59,
                    "time": 24.00680099999994,
                    "velocity": 0.4566929133858268,
                    "duration": 0.08513049999999822
                },
                {
                    "name": "A#3",
                    "midi": 58,
                    "time": 24.34732299999994,
                    "velocity": 0.4881889763779528,
                    "duration": 0.04256524999999911
                },
                {
                    "name": "E4",
                    "midi": 64,
                    "time": 24.389888249999938,
                    "velocity": 0.4330708661417323,
                    "duration": 0.04256524999999911
                },
                {
                    "name": "A#3",
                    "midi": 58,
                    "time": 24.432453499999937,
                    "velocity": 0.4251968503937008,
                    "duration": 0.04256524999999911
                },
                {
                    "name": "E4",
                    "midi": 64,
                    "time": 24.475018749999936,
                    "velocity": 0.4251968503937008,
                    "duration": 0.04256524999999911
                },
                {
                    "name": "A3",
                    "midi": 57,
                    "time": 24.517583999999935,
                    "velocity": 0.5354330708661418,
                    "duration": 0.08513049999999822
                },
                {
                    "name": "A#4",
                    "midi": 70,
                    "time": 25.368888999999932,
                    "velocity": 0.5826771653543307,
                    "duration": 0.04256524999999911
                },
                {
                    "name": "E5",
                    "midi": 76,
                    "time": 25.41145424999993,
                    "velocity": 0.5039370078740157,
                    "duration": 0.04256524999999911
                },
                {
                    "name": "A#4",
                    "midi": 70,
                    "time": 25.45401949999993,
                    "velocity": 0.5039370078740157,
                    "duration": 0.04256524999999911
                },
                {
                    "name": "E5",
                    "midi": 76,
                    "time": 25.49658474999993,
                    "velocity": 0.5039370078740157,
                    "duration": 0.04256524999999911
                },
                {
                    "name": "A4",
                    "midi": 69,
                    "time": 25.53914999999993,
                    "velocity": 0.5039370078740157,
                    "duration": 0.08513049999999822
                },
                {
                    "name": "A#5",
                    "midi": 82,
                    "time": 26.390454999999925,
                    "velocity": 0.6377952755905512,
                    "duration": 0.04256524999999911
                },
                {
                    "name": "E6",
                    "midi": 88,
                    "time": 26.433020249999924,
                    "velocity": 0.5826771653543307,
                    "duration": 0.04256524999999911
                },
                {
                    "name": "A#5",
                    "midi": 82,
                    "time": 26.475585499999923,
                    "velocity": 0.5826771653543307,
                    "duration": 0.04256524999999911
                },
                {
                    "name": "E6",
                    "midi": 88,
                    "time": 26.518150749999922,
                    "velocity": 0.5826771653543307,
                    "duration": 0.04256524999999911
                },
                {
                    "name": "A5",
                    "midi": 81,
                    "time": 26.56071599999992,
                    "velocity": 0.5826771653543307,
                    "duration": 0.08513049999999822
                },
                {
                    "name": "A#6",
                    "midi": 94,
                    "time": 27.412020999999918,
                    "velocity": 0.6771653543307087,
                    "duration": 0.04256524999999911
                },
                {
                    "name": "E7",
                    "midi": 100,
                    "time": 27.454586249999917,
                    "velocity": 0.6141732283464567,
                    "duration": 0.04256524999999911
                },
                {
                    "name": "A#6",
                    "midi": 94,
                    "time": 27.497151499999916,
                    "velocity": 0.6141732283464567,
                    "duration": 0.04256524999999911
                },
                {
                    "name": "E7",
                    "midi": 100,
                    "time": 27.539716749999915,
                    "velocity": 0.6141732283464567,
                    "duration": 0.04256524999999911
                },
                {
                    "name": "A6",
                    "midi": 93,
                    "time": 27.582281999999914,
                    "velocity": 0.6141732283464567,
                    "duration": 0.08513049999999822
                },
                {
                    "name": "A#5",
                    "midi": 82,
                    "time": 27.922803999999914,
                    "velocity": 0.6377952755905512,
                    "duration": 0.04256524999999911
                },
                {
                    "name": "E6",
                    "midi": 88,
                    "time": 27.965369249999913,
                    "velocity": 0.5354330708661418,
                    "duration": 0.04256524999999911
                },
                {
                    "name": "A#5",
                    "midi": 82,
                    "time": 28.007934499999912,
                    "velocity": 0.5354330708661418,
                    "duration": 0.04256524999999911
                },
                {
                    "name": "E6",
                    "midi": 88,
                    "time": 28.05049974999991,
                    "velocity": 0.5354330708661418,
                    "duration": 0.04256524999999911
                },
                {
                    "name": "A5",
                    "midi": 81,
                    "time": 28.09306499999991,
                    "velocity": 0.5354330708661418,
                    "duration": 0.08513049999999822
                },
                {
                    "name": "A#4",
                    "midi": 70,
                    "time": 28.43358699999991,
                    "velocity": 0.5433070866141733,
                    "duration": 0.04256524999999911
                },
                {
                    "name": "E5",
                    "midi": 76,
                    "time": 28.47615224999991,
                    "velocity": 0.4330708661417323,
                    "duration": 0.04256524999999911
                },
                {
                    "name": "A#4",
                    "midi": 70,
                    "time": 28.51871749999991,
                    "velocity": 0.4330708661417323,
                    "duration": 0.04256524999999911
                },
                {
                    "name": "E5",
                    "midi": 76,
                    "time": 28.561282749999908,
                    "velocity": 0.4330708661417323,
                    "duration": 0.04256524999999911
                },
                {
                    "name": "A4",
                    "midi": 69,
                    "time": 28.603847999999907,
                    "velocity": 0.4330708661417323,
                    "duration": 0.08513049999999822
                },
                {
                    "name": "A#3",
                    "midi": 58,
                    "time": 28.944369999999907,
                    "velocity": 0.4409448818897638,
                    "duration": 0.04256524999999911
                },
                {
                    "name": "E4",
                    "midi": 64,
                    "time": 28.986935249999906,
                    "velocity": 0.3464566929133858,
                    "duration": 0.04256524999999911
                },
                {
                    "name": "A#3",
                    "midi": 58,
                    "time": 29.029500499999905,
                    "velocity": 0.3464566929133858,
                    "duration": 0.04256524999999911
                },
                {
                    "name": "E4",
                    "midi": 64,
                    "time": 29.072065749999904,
                    "velocity": 0.36220472440944884,
                    "duration": 0.04256524999999911
                },
                {
                    "name": "A3",
                    "midi": 57,
                    "time": 29.114630999999903,
                    "velocity": 0.36220472440944884,
                    "duration": 0.08513049999999822
                },
                {
                    "name": "A5",
                    "midi": 81,
                    "time": 29.455152999999903,
                    "velocity": 0.3858267716535433,
                    "duration": 0.04256524999999911
                },
                {
                    "name": "A#5",
                    "midi": 82,
                    "time": 29.497718249999902,
                    "velocity": 0.33858267716535434,
                    "duration": 0.04256524999999911
                },
                {
                    "name": "A5",
                    "midi": 81,
                    "time": 29.5402834999999,
                    "velocity": 0.3858267716535433,
                    "duration": 0.04256524999999911
                },
                {
                    "name": "A#5",
                    "midi": 82,
                    "time": 29.5828487499999,
                    "velocity": 0.3464566929133858,
                    "duration": 0.04256524999999911
                },
                {
                    "name": "A5",
                    "midi": 81,
                    "time": 29.6254139999999,
                    "velocity": 0.44881889763779526,
                    "duration": 0.08513049999999822
                },
                {
                    "name": "A#5",
                    "midi": 82,
                    "time": 29.9659359999999,
                    "velocity": 0.47244094488188976,
                    "duration": 0.03405220000000142
                },
                {
                    "name": "A5",
                    "midi": 81,
                    "time": 29.9999881999999,
                    "velocity": 0.4566929133858268,
                    "duration": 0.03405220000000142
                },
                {
                    "name": "F5",
                    "midi": 77,
                    "time": 30.034040399999903,
                    "velocity": 0.4330708661417323,
                    "duration": 0.03405220000000142
                },
                {
                    "name": "D5",
                    "midi": 74,
                    "time": 30.068092599999904,
                    "velocity": 0.4094488188976378,
                    "duration": 0.03405220000000142
                },
                {
                    "name": "A4",
                    "midi": 69,
                    "time": 30.102144799999905,
                    "velocity": 0.3937007874015748,
                    "duration": 0.03405220000000142
                },
                {
                    "name": "D6",
                    "midi": 86,
                    "time": 30.476718999999907,
                    "velocity": 0.3937007874015748,
                    "duration": 0.04256524999999911
                },
                {
                    "name": "E6",
                    "midi": 88,
                    "time": 30.519284249999906,
                    "velocity": 0.36220472440944884,
                    "duration": 0.04256524999999911
                },
                {
                    "name": "D6",
                    "midi": 86,
                    "time": 30.561849499999905,
                    "velocity": 0.3937007874015748,
                    "duration": 0.04256524999999911
                },
                {
                    "name": "E6",
                    "midi": 88,
                    "time": 30.604414749999904,
                    "velocity": 0.3779527559055118,
                    "duration": 0.04256524999999911
                },
                {
                    "name": "D6",
                    "midi": 86,
                    "time": 30.646979999999903,
                    "velocity": 0.44881889763779526,
                    "duration": 0.08513050000000177
                },
                {
                    "name": "E6",
                    "midi": 88,
                    "time": 30.987501999999907,
                    "velocity": 0.4409448818897638,
                    "duration": 0.03405220000000142
                },
                {
                    "name": "D6",
                    "midi": 86,
                    "time": 31.02155419999991,
                    "velocity": 0.4330708661417323,
                    "duration": 0.03405220000000142
                },
                {
                    "name": "B5",
                    "midi": 83,
                    "time": 31.05560639999991,
                    "velocity": 0.4094488188976378,
                    "duration": 0.03405220000000142
                },
                {
                    "name": "G5",
                    "midi": 79,
                    "time": 31.08965859999991,
                    "velocity": 0.4015748031496063,
                    "duration": 0.03405220000000142
                },
                {
                    "name": "D5",
                    "midi": 74,
                    "time": 31.123710799999913,
                    "velocity": 0.3858267716535433,
                    "duration": 0.03405220000000142
                },
                {
                    "name": "A5",
                    "midi": 81,
                    "time": 31.498284999999914,
                    "velocity": 0.4409448818897638,
                    "duration": 0.04256524999999911
                },
                {
                    "name": "A#5",
                    "midi": 82,
                    "time": 31.540850249999913,
                    "velocity": 0.3937007874015748,
                    "duration": 0.04256524999999911
                },
                {
                    "name": "A5",
                    "midi": 81,
                    "time": 31.583415499999912,
                    "velocity": 0.4409448818897638,
                    "duration": 0.04256524999999911
                },
                {
                    "name": "A#5",
                    "midi": 82,
                    "time": 31.62598074999991,
                    "velocity": 0.3937007874015748,
                    "duration": 0.04256524999999911
                },
                {
                    "name": "A5",
                    "midi": 81,
                    "time": 31.66854599999991,
                    "velocity": 0.47244094488188976,
                    "duration": 0.08513050000000177
                },
                {
                    "name": "F5",
                    "midi": 77,
                    "time": 32.009067999999914,
                    "velocity": 0.4330708661417323,
                    "duration": 0.04256525000000266
                },
                {
                    "name": "G5",
                    "midi": 79,
                    "time": 32.05163324999992,
                    "velocity": 0.4015748031496063,
                    "duration": 0.04256525000000266
                },
                {
                    "name": "F5",
                    "midi": 77,
                    "time": 32.09419849999992,
                    "velocity": 0.4330708661417323,
                    "duration": 0.04256525000000266
                },
                {
                    "name": "G5",
                    "midi": 79,
                    "time": 32.13676374999992,
                    "velocity": 0.4015748031496063,
                    "duration": 0.04256525000000266
                },
                {
                    "name": "F5",
                    "midi": 77,
                    "time": 32.179328999999925,
                    "velocity": 0.5039370078740157,
                    "duration": 0.08513049999999822
                },
                {
                    "name": "A5",
                    "midi": 81,
                    "time": 32.519850999999925,
                    "velocity": 0.4409448818897638,
                    "duration": 0.04256525000000266
                },
                {
                    "name": "A#5",
                    "midi": 82,
                    "time": 32.56241624999993,
                    "velocity": 0.3937007874015748,
                    "duration": 0.04256525000000266
                },
                {
                    "name": "A5",
                    "midi": 81,
                    "time": 32.60498149999993,
                    "velocity": 0.4409448818897638,
                    "duration": 0.04256525000000266
                },
                {
                    "name": "A#5",
                    "midi": 82,
                    "time": 32.64754674999993,
                    "velocity": 0.3937007874015748,
                    "duration": 0.04256525000000266
                },
                {
                    "name": "A5",
                    "midi": 81,
                    "time": 32.690111999999935,
                    "velocity": 0.48031496062992124,
                    "duration": 0.08513049999999822
                },
                {
                    "name": "A#5",
                    "midi": 82,
                    "time": 33.030633999999935,
                    "velocity": 0.4409448818897638,
                    "duration": 0.03405219999999787
                },
                {
                    "name": "A5",
                    "midi": 81,
                    "time": 33.06468619999993,
                    "velocity": 0.4015748031496063,
                    "duration": 0.03405219999999787
                },
                {
                    "name": "F5",
                    "midi": 77,
                    "time": 33.09873839999993,
                    "velocity": 0.3858267716535433,
                    "duration": 0.03405219999999787
                },
                {
                    "name": "D5",
                    "midi": 74,
                    "time": 33.13279059999993,
                    "velocity": 0.3464566929133858,
                    "duration": 0.03405219999999787
                },
                {
                    "name": "A4",
                    "midi": 69,
                    "time": 33.16684279999993,
                    "velocity": 0.33070866141732286,
                    "duration": 0.03405219999999787
                },
                {
                    "name": "A5",
                    "midi": 81,
                    "time": 33.541416999999925,
                    "velocity": 0.4330708661417323,
                    "duration": 0.04256525000000266
                },
                {
                    "name": "A#5",
                    "midi": 82,
                    "time": 33.58398224999993,
                    "velocity": 0.4015748031496063,
                    "duration": 0.04256525000000266
                },
                {
                    "name": "A5",
                    "midi": 81,
                    "time": 33.62654749999993,
                    "velocity": 0.4330708661417323,
                    "duration": 0.04256525000000266
                },
                {
                    "name": "A#5",
                    "midi": 82,
                    "time": 33.66911274999993,
                    "velocity": 0.4015748031496063,
                    "duration": 0.04256525000000266
                },
                {
                    "name": "A5",
                    "midi": 81,
                    "time": 33.711677999999935,
                    "velocity": 0.5669291338582677,
                    "duration": 0.08513049999999822
                },
                {
                    "name": "A#5",
                    "midi": 82,
                    "time": 34.052199999999935,
                    "velocity": 0.5039370078740157,
                    "duration": 0.03405219999999787
                },
                {
                    "name": "A5",
                    "midi": 81,
                    "time": 34.08625219999993,
                    "velocity": 0.48031496062992124,
                    "duration": 0.03405219999999787
                },
                {
                    "name": "F5",
                    "midi": 77,
                    "time": 34.12030439999993,
                    "velocity": 0.44881889763779526,
                    "duration": 0.03405219999999787
                },
                {
                    "name": "C#5",
                    "midi": 73,
                    "time": 34.15435659999993,
                    "velocity": 0.4251968503937008,
                    "duration": 0.03405219999999787
                },
                {
                    "name": "A4",
                    "midi": 69,
                    "time": 34.18840879999993,
                    "velocity": 0.4015748031496063,
                    "duration": 0.03405219999999787
                },
                {
                    "name": "C6",
                    "midi": 84,
                    "time": 34.562982999999925,
                    "velocity": 0.4330708661417323,
                    "duration": 0.04256525000000266
                },
                {
                    "name": "D6",
                    "midi": 86,
                    "time": 34.60554824999993,
                    "velocity": 0.3937007874015748,
                    "duration": 0.04256525000000266
                },
                {
                    "name": "C6",
                    "midi": 84,
                    "time": 34.64811349999993,
                    "velocity": 0.4330708661417323,
                    "duration": 0.04256525000000266
                },
                {
                    "name": "D6",
                    "midi": 86,
                    "time": 34.69067874999993,
                    "velocity": 0.4015748031496063,
                    "duration": 0.04256525000000266
                },
                {
                    "name": "C6",
                    "midi": 84,
                    "time": 34.733243999999935,
                    "velocity": 0.6850393700787402,
                    "duration": 0.08513049999999822
                },
                {
                    "name": "D6",
                    "midi": 86,
                    "time": 35.073765999999935,
                    "velocity": 0.5511811023622047,
                    "duration": 0.02837683333333274
                },
                {
                    "name": "C6",
                    "midi": 84,
                    "time": 35.10214283333327,
                    "velocity": 0.5196850393700787,
                    "duration": 0.02837683333333274
                },
                {
                    "name": "A5",
                    "midi": 81,
                    "time": 35.1305196666666,
                    "velocity": 0.5039370078740157,
                    "duration": 0.02837683333333274
                },
                {
                    "name": "F5",
                    "midi": 77,
                    "time": 35.15889649999993,
                    "velocity": 0.4881889763779528,
                    "duration": 0.02837683333333274
                },
                {
                    "name": "C5",
                    "midi": 72,
                    "time": 35.187273333333266,
                    "velocity": 0.4566929133858268,
                    "duration": 0.02837683333333274
                },
                {
                    "name": "A4",
                    "midi": 69,
                    "time": 35.2156501666666,
                    "velocity": 0.4409448818897638,
                    "duration": 0.02837683333333274
                },
                {
                    "name": "C#6",
                    "midi": 85,
                    "time": 35.49941849999993,
                    "velocity": 0.48031496062992124,
                    "duration": 0.08513049999999822
                },
                {
                    "name": "A5",
                    "midi": 81,
                    "time": 35.58454899999993,
                    "velocity": 0.48031496062992124,
                    "duration": 0.08513049999999822
                },
                {
                    "name": "C#5",
                    "midi": 73,
                    "time": 35.75480999999993,
                    "velocity": 0.4566929133858268,
                    "duration": 0.17026100000000355
                },
                {
                    "name": "F5",
                    "midi": 77,
                    "time": 35.75480999999993,
                    "velocity": 0.4566929133858268,
                    "duration": 0.17026100000000355
                },
                {
                    "name": "C#6",
                    "midi": 85,
                    "time": 36.01020149999993,
                    "velocity": 0.4881889763779528,
                    "duration": 0.08513049999999822
                },
                {
                    "name": "A5",
                    "midi": 81,
                    "time": 36.09533199999993,
                    "velocity": 0.4881889763779528,
                    "duration": 0.08513049999999822
                },
                {
                    "name": "C#5",
                    "midi": 73,
                    "time": 36.265592999999924,
                    "velocity": 0.4566929133858268,
                    "duration": 0.17026099999999644
                },
                {
                    "name": "F5",
                    "midi": 77,
                    "time": 36.265592999999924,
                    "velocity": 0.4566929133858268,
                    "duration": 0.17026099999999644
                },
                {
                    "name": "D6",
                    "midi": 86,
                    "time": 36.52098449999992,
                    "velocity": 0.4881889763779528,
                    "duration": 0.08513049999999822
                },
                {
                    "name": "A5",
                    "midi": 81,
                    "time": 36.60611499999992,
                    "velocity": 0.4881889763779528,
                    "duration": 0.08513049999999822
                },
                {
                    "name": "D5",
                    "midi": 74,
                    "time": 36.776375999999914,
                    "velocity": 0.48031496062992124,
                    "duration": 0.17026099999999644
                },
                {
                    "name": "F4",
                    "midi": 65,
                    "time": 37.11689799999991,
                    "velocity": 0.4094488188976378,
                    "duration": 0.17026099999999644
                },
                {
                    "name": "D5",
                    "midi": 74,
                    "time": 37.11689799999991,
                    "velocity": 0.4094488188976378,
                    "duration": 0.17026099999999644
                },
                {
                    "name": "F4",
                    "midi": 65,
                    "time": 37.2871589999999,
                    "velocity": 0.4094488188976378,
                    "duration": 0.17026099999999644
                },
                {
                    "name": "D5",
                    "midi": 74,
                    "time": 37.2871589999999,
                    "velocity": 0.4094488188976378,
                    "duration": 0.17026099999999644
                },
                {
                    "name": "E3",
                    "midi": 52,
                    "time": 38.053333499999894,
                    "velocity": 0.31496062992125984,
                    "duration": 0.08513049999999822
                },
                {
                    "name": "D4",
                    "midi": 62,
                    "time": 38.053333499999894,
                    "velocity": 0.31496062992125984,
                    "duration": 0.08513049999999822
                },
                {
                    "name": "E4",
                    "midi": 64,
                    "time": 38.13846399999989,
                    "velocity": 0.33858267716535434,
                    "duration": 0.08513049999999822
                },
                {
                    "name": "E4",
                    "midi": 64,
                    "time": 38.30872499999989,
                    "velocity": 0.3858267716535433,
                    "duration": 0.5107829999999964
                },
                {
                    "name": "D4",
                    "midi": 62,
                    "time": 38.30872499999989,
                    "velocity": 0.3858267716535433,
                    "duration": 0.5107829999999964
                },
                {
                    "name": "E3",
                    "midi": 52,
                    "time": 38.30872499999989,
                    "velocity": 0.3858267716535433,
                    "duration": 0.5107829999999964
                },
                {
                    "name": "D4",
                    "midi": 62,
                    "time": 39.07489949999989,
                    "velocity": 0.31496062992125984,
                    "duration": 0.08513049999999822
                },
                {
                    "name": "E3",
                    "midi": 52,
                    "time": 39.07489949999989,
                    "velocity": 0.31496062992125984,
                    "duration": 0.08513049999999822
                },
                {
                    "name": "E4",
                    "midi": 64,
                    "time": 39.160029999999885,
                    "velocity": 0.3543307086614173,
                    "duration": 0.08513049999999822
                },
                {
                    "name": "D4",
                    "midi": 62,
                    "time": 39.33029099999988,
                    "velocity": 0.3779527559055118,
                    "duration": 0.5107829999999964
                },
                {
                    "name": "E4",
                    "midi": 64,
                    "time": 39.33029099999988,
                    "velocity": 0.3779527559055118,
                    "duration": 0.5107829999999964
                },
                {
                    "name": "E3",
                    "midi": 52,
                    "time": 39.33029099999988,
                    "velocity": 0.3779527559055118,
                    "duration": 0.5107829999999964
                },
                {
                    "name": "E4",
                    "midi": 64,
                    "time": 40.18159599999988,
                    "velocity": 0.31496062992125984,
                    "duration": 0.08513049999999822
                },
                {
                    "name": "D4",
                    "midi": 62,
                    "time": 40.18159599999988,
                    "velocity": 0.31496062992125984,
                    "duration": 0.08513049999999822
                },
                {
                    "name": "E3",
                    "midi": 52,
                    "time": 40.18159599999988,
                    "velocity": 0.31496062992125984,
                    "duration": 0.08513049999999822
                },
                {
                    "name": "E4",
                    "midi": 64,
                    "time": 40.692378999999875,
                    "velocity": 0.31496062992125984,
                    "duration": 0.08513049999999822
                },
                {
                    "name": "D4",
                    "midi": 62,
                    "time": 40.692378999999875,
                    "velocity": 0.31496062992125984,
                    "duration": 0.08513049999999822
                },
                {
                    "name": "E3",
                    "midi": 52,
                    "time": 40.692378999999875,
                    "velocity": 0.31496062992125984,
                    "duration": 0.08513049999999822
                },
                {
                    "name": "C#4",
                    "midi": 61,
                    "time": 41.11803149999987,
                    "velocity": 0.3779527559055118,
                    "duration": 0.08513049999999822
                },
                {
                    "name": "E3",
                    "midi": 52,
                    "time": 41.11803149999987,
                    "velocity": 0.3779527559055118,
                    "duration": 0.08513049999999822
                },
                {
                    "name": "E4",
                    "midi": 64,
                    "time": 41.20316199999987,
                    "velocity": 0.3779527559055118,
                    "duration": 0.08513049999999822
                },
                {
                    "name": "E3",
                    "midi": 52,
                    "time": 41.37342299999987,
                    "velocity": 0.3779527559055118,
                    "duration": 0.5107829999999964
                },
                {
                    "name": "C#4",
                    "midi": 61,
                    "time": 41.37342299999987,
                    "velocity": 0.3779527559055118,
                    "duration": 0.5107829999999964
                },
                {
                    "name": "E4",
                    "midi": 64,
                    "time": 41.37342299999987,
                    "velocity": 0.3779527559055118,
                    "duration": 0.5107829999999964
                },
                {
                    "name": "A4",
                    "midi": 69,
                    "time": 42.224727999999864,
                    "velocity": 0.5984251968503937,
                    "duration": 0.04256525000000266
                },
                {
                    "name": "B4",
                    "midi": 71,
                    "time": 42.26729324999987,
                    "velocity": 0.5433070866141733,
                    "duration": 0.04256525000000266
                },
                {
                    "name": "A4",
                    "midi": 69,
                    "time": 42.30985849999987,
                    "velocity": 0.5433070866141733,
                    "duration": 0.04256525000000266
                },
                {
                    "name": "B4",
                    "midi": 71,
                    "time": 42.35242374999987,
                    "velocity": 0.5433070866141733,
                    "duration": 0.04256525000000266
                },
                {
                    "name": "G#4",
                    "midi": 68,
                    "time": 42.394988999999875,
                    "velocity": 0.5354330708661418,
                    "duration": 0.08513049999999822
                },
                {
                    "name": "G4",
                    "midi": 67,
                    "time": 42.735510999999875,
                    "velocity": 0.5748031496062992,
                    "duration": 0.04256525000000266
                },
                {
                    "name": "A4",
                    "midi": 69,
                    "time": 42.77807624999988,
                    "velocity": 0.5275590551181102,
                    "duration": 0.04256525000000266
                },
                {
                    "name": "G4",
                    "midi": 67,
                    "time": 42.82064149999988,
                    "velocity": 0.5275590551181102,
                    "duration": 0.04256525000000266
                },
                {
                    "name": "A4",
                    "midi": 69,
                    "time": 42.86320674999988,
                    "velocity": 0.5275590551181102,
                    "duration": 0.04256525000000266
                },
                {
                    "name": "F#4",
                    "midi": 66,
                    "time": 42.905771999999885,
                    "velocity": 0.5275590551181102,
                    "duration": 0.08513049999999822
                },
                {
                    "name": "F4",
                    "midi": 65,
                    "time": 43.246293999999885,
                    "velocity": 0.5511811023622047,
                    "duration": 0.04256525000000266
                },
                {
                    "name": "G4",
                    "midi": 67,
                    "time": 43.28885924999989,
                    "velocity": 0.4881889763779528,
                    "duration": 0.04256525000000266
                },
                {
                    "name": "F4",
                    "midi": 65,
                    "time": 43.33142449999989,
                    "velocity": 0.4881889763779528,
                    "duration": 0.04256525000000266
                },
                {
                    "name": "G4",
                    "midi": 67,
                    "time": 43.37398974999989,
                    "velocity": 0.4881889763779528,
                    "duration": 0.04256525000000266
                },
                {
                    "name": "E4",
                    "midi": 64,
                    "time": 43.416554999999896,
                    "velocity": 0.4881889763779528,
                    "duration": 0.08513049999999822
                },
                {
                    "name": "D4",
                    "midi": 62,
                    "time": 43.757076999999896,
                    "velocity": 0.5354330708661418,
                    "duration": 0.04256525000000266
                },
                {
                    "name": "E4",
                    "midi": 64,
                    "time": 43.7996422499999,
                    "velocity": 0.47244094488188976,
                    "duration": 0.04256525000000266
                },
                {
                    "name": "D4",
                    "midi": 62,
                    "time": 43.8422074999999,
                    "velocity": 0.47244094488188976,
                    "duration": 0.04256525000000266
                },
                {
                    "name": "E4",
                    "midi": 64,
                    "time": 43.884772749999904,
                    "velocity": 0.47244094488188976,
                    "duration": 0.04256525000000266
                },
                {
                    "name": "C#4",
                    "midi": 61,
                    "time": 43.92733799999991,
                    "velocity": 0.47244094488188976,
                    "duration": 0.08513049999999822
                },
                {
                    "name": "C4",
                    "midi": 60,
                    "time": 44.26785999999991,
                    "velocity": 0.5039370078740157,
                    "duration": 0.04256525000000266
                },
                {
                    "name": "E4",
                    "midi": 64,
                    "time": 44.31042524999991,
                    "velocity": 0.44881889763779526,
                    "duration": 0.04256525000000266
                },
                {
                    "name": "C4",
                    "midi": 60,
                    "time": 44.35299049999991,
                    "velocity": 0.4566929133858268,
                    "duration": 0.04256525000000266
                },
                {
                    "name": "E4",
                    "midi": 64,
                    "time": 44.395555749999914,
                    "velocity": 0.4566929133858268,
                    "duration": 0.04256525000000266
                },
                {
                    "name": "B3",
                    "midi": 59,
                    "time": 44.43812099999992,
                    "velocity": 0.4566929133858268,
                    "duration": 0.08513049999999822
                },
                {
                    "name": "A#3",
                    "midi": 58,
                    "time": 44.77864299999992,
                    "velocity": 0.4881889763779528,
                    "duration": 0.04256525000000266
                },
                {
                    "name": "E4",
                    "midi": 64,
                    "time": 44.82120824999992,
                    "velocity": 0.4330708661417323,
                    "duration": 0.04256525000000266
                },
                {
                    "name": "A#3",
                    "midi": 58,
                    "time": 44.86377349999992,
                    "velocity": 0.4251968503937008,
                    "duration": 0.04256525000000266
                },
                {
                    "name": "E4",
                    "midi": 64,
                    "time": 44.906338749999925,
                    "velocity": 0.4251968503937008,
                    "duration": 0.04256525000000266
                },
                {
                    "name": "A3",
                    "midi": 57,
                    "time": 44.94890399999993,
                    "velocity": 0.5354330708661418,
                    "duration": 0.08513049999999822
                },
                {
                    "name": "A#4",
                    "midi": 70,
                    "time": 45.800208999999924,
                    "velocity": 0.5826771653543307,
                    "duration": 0.04256525000000266
                },
                {
                    "name": "E5",
                    "midi": 76,
                    "time": 45.84277424999993,
                    "velocity": 0.5039370078740157,
                    "duration": 0.04256525000000266
                },
                {
                    "name": "A#4",
                    "midi": 70,
                    "time": 45.88533949999993,
                    "velocity": 0.5039370078740157,
                    "duration": 0.04256525000000266
                },
                {
                    "name": "E5",
                    "midi": 76,
                    "time": 45.92790474999993,
                    "velocity": 0.5039370078740157,
                    "duration": 0.04256525000000266
                },
                {
                    "name": "A4",
                    "midi": 69,
                    "time": 45.970469999999935,
                    "velocity": 0.5039370078740157,
                    "duration": 0.08513049999999822
                },
                {
                    "name": "A#5",
                    "midi": 82,
                    "time": 46.82177499999993,
                    "velocity": 0.6377952755905512,
                    "duration": 0.04256525000000266
                },
                {
                    "name": "E6",
                    "midi": 88,
                    "time": 46.864340249999934,
                    "velocity": 0.5826771653543307,
                    "duration": 0.04256525000000266
                },
                {
                    "name": "A#5",
                    "midi": 82,
                    "time": 46.90690549999994,
                    "velocity": 0.5826771653543307,
                    "duration": 0.04256525000000266
                },
                {
                    "name": "E6",
                    "midi": 88,
                    "time": 46.94947074999994,
                    "velocity": 0.5826771653543307,
                    "duration": 0.04256525000000266
                },
                {
                    "name": "A5",
                    "midi": 81,
                    "time": 46.99203599999994,
                    "velocity": 0.5826771653543307,
                    "duration": 0.08513049999999822
                },
                {
                    "name": "A#6",
                    "midi": 94,
                    "time": 47.84334099999994,
                    "velocity": 0.6771653543307087,
                    "duration": 0.04256525000000266
                },
                {
                    "name": "E7",
                    "midi": 100,
                    "time": 47.88590624999994,
                    "velocity": 0.6141732283464567,
                    "duration": 0.04256525000000266
                },
                {
                    "name": "A#6",
                    "midi": 94,
                    "time": 47.928471499999944,
                    "velocity": 0.6141732283464567,
                    "duration": 0.04256525000000266
                },
                {
                    "name": "E7",
                    "midi": 100,
                    "time": 47.971036749999946,
                    "velocity": 0.6141732283464567,
                    "duration": 0.04256525000000266
                },
                {
                    "name": "A6",
                    "midi": 93,
                    "time": 48.01360199999995,
                    "velocity": 0.6141732283464567,
                    "duration": 0.08513049999999822
                },
                {
                    "name": "A#5",
                    "midi": 82,
                    "time": 48.35412399999995,
                    "velocity": 0.6377952755905512,
                    "duration": 0.04256525000000266
                },
                {
                    "name": "E6",
                    "midi": 88,
                    "time": 48.39668924999995,
                    "velocity": 0.5354330708661418,
                    "duration": 0.04256525000000266
                },
                {
                    "name": "A#5",
                    "midi": 82,
                    "time": 48.439254499999954,
                    "velocity": 0.5354330708661418,
                    "duration": 0.04256525000000266
                },
                {
                    "name": "E6",
                    "midi": 88,
                    "time": 48.48181974999996,
                    "velocity": 0.5354330708661418,
                    "duration": 0.04256525000000266
                },
                {
                    "name": "A5",
                    "midi": 81,
                    "time": 48.52438499999996,
                    "velocity": 0.5354330708661418,
                    "duration": 0.08513049999999822
                },
                {
                    "name": "A#4",
                    "midi": 70,
                    "time": 48.86490699999996,
                    "velocity": 0.5433070866141733,
                    "duration": 0.04256525000000266
                },
                {
                    "name": "E5",
                    "midi": 76,
                    "time": 48.90747224999996,
                    "velocity": 0.4330708661417323,
                    "duration": 0.04256525000000266
                },
                {
                    "name": "A#4",
                    "midi": 70,
                    "time": 48.950037499999965,
                    "velocity": 0.4330708661417323,
                    "duration": 0.04256525000000266
                },
                {
                    "name": "E5",
                    "midi": 76,
                    "time": 48.99260274999997,
                    "velocity": 0.4330708661417323,
                    "duration": 0.04256525000000266
                },
                {
                    "name": "A4",
                    "midi": 69,
                    "time": 49.03516799999997,
                    "velocity": 0.4330708661417323,
                    "duration": 0.08513049999999822
                },
                {
                    "name": "A#3",
                    "midi": 58,
                    "time": 49.37568999999997,
                    "velocity": 0.4409448818897638,
                    "duration": 0.04256525000000266
                },
                {
                    "name": "E4",
                    "midi": 64,
                    "time": 49.41825524999997,
                    "velocity": 0.3464566929133858,
                    "duration": 0.04256525000000266
                },
                {
                    "name": "A#3",
                    "midi": 58,
                    "time": 49.460820499999976,
                    "velocity": 0.3464566929133858,
                    "duration": 0.04256525000000266
                },
                {
                    "name": "E4",
                    "midi": 64,
                    "time": 49.50338574999998,
                    "velocity": 0.36220472440944884,
                    "duration": 0.04256525000000266
                },
                {
                    "name": "A3",
                    "midi": 57,
                    "time": 49.54595099999998,
                    "velocity": 0.36220472440944884,
                    "duration": 0.08513049999999822
                },
                {
                    "name": "A5",
                    "midi": 81,
                    "time": 49.88647299999998,
                    "velocity": 0.3858267716535433,
                    "duration": 0.04256525000000266
                },
                {
                    "name": "A#5",
                    "midi": 82,
                    "time": 49.929038249999984,
                    "velocity": 0.33858267716535434,
                    "duration": 0.04256525000000266
                },
                {
                    "name": "A5",
                    "midi": 81,
                    "time": 49.971603499999986,
                    "velocity": 0.3858267716535433,
                    "duration": 0.04256525000000266
                },
                {
                    "name": "A#5",
                    "midi": 82,
                    "time": 50.01416874999999,
                    "velocity": 0.3464566929133858,
                    "duration": 0.04256525000000266
                },
                {
                    "name": "A5",
                    "midi": 81,
                    "time": 50.05673399999999,
                    "velocity": 0.44881889763779526,
                    "duration": 0.08513049999999822
                },
                {
                    "name": "A#5",
                    "midi": 82,
                    "time": 50.39725599999999,
                    "velocity": 0.47244094488188976,
                    "duration": 0.03405219999999787
                },
                {
                    "name": "A5",
                    "midi": 81,
                    "time": 50.43130819999999,
                    "velocity": 0.4566929133858268,
                    "duration": 0.03405219999999787
                },
                {
                    "name": "F5",
                    "midi": 77,
                    "time": 50.46536039999999,
                    "velocity": 0.4330708661417323,
                    "duration": 0.03405219999999787
                },
                {
                    "name": "D5",
                    "midi": 74,
                    "time": 50.499412599999985,
                    "velocity": 0.4094488188976378,
                    "duration": 0.03405219999999787
                },
                {
                    "name": "A4",
                    "midi": 69,
                    "time": 50.53346479999998,
                    "velocity": 0.3937007874015748,
                    "duration": 0.03405219999999787
                },
                {
                    "name": "D6",
                    "midi": 86,
                    "time": 50.90803899999998,
                    "velocity": 0.3937007874015748,
                    "duration": 0.04256525000000266
                },
                {
                    "name": "E6",
                    "midi": 88,
                    "time": 50.950604249999984,
                    "velocity": 0.36220472440944884,
                    "duration": 0.04256525000000266
                },
                {
                    "name": "D6",
                    "midi": 86,
                    "time": 50.993169499999986,
                    "velocity": 0.3937007874015748,
                    "duration": 0.04256525000000266
                },
                {
                    "name": "E6",
                    "midi": 88,
                    "time": 51.03573474999999,
                    "velocity": 0.3779527559055118,
                    "duration": 0.04256525000000266
                },
                {
                    "name": "D6",
                    "midi": 86,
                    "time": 51.07829999999999,
                    "velocity": 0.44881889763779526,
                    "duration": 0.08513049999999822
                },
                {
                    "name": "E6",
                    "midi": 88,
                    "time": 51.41882199999999,
                    "velocity": 0.4409448818897638,
                    "duration": 0.03405219999999787
                },
                {
                    "name": "D6",
                    "midi": 86,
                    "time": 51.45287419999999,
                    "velocity": 0.4330708661417323,
                    "duration": 0.03405219999999787
                },
                {
                    "name": "B5",
                    "midi": 83,
                    "time": 51.48692639999999,
                    "velocity": 0.4094488188976378,
                    "duration": 0.03405219999999787
                },
                {
                    "name": "G5",
                    "midi": 79,
                    "time": 51.520978599999985,
                    "velocity": 0.4015748031496063,
                    "duration": 0.03405219999999787
                },
                {
                    "name": "D5",
                    "midi": 74,
                    "time": 51.55503079999998,
                    "velocity": 0.3858267716535433,
                    "duration": 0.03405219999999787
                },
                {
                    "name": "A5",
                    "midi": 81,
                    "time": 51.92960499999998,
                    "velocity": 0.4409448818897638,
                    "duration": 0.04256525000000266
                },
                {
                    "name": "A#5",
                    "midi": 82,
                    "time": 51.972170249999984,
                    "velocity": 0.3937007874015748,
                    "duration": 0.04256525000000266
                },
                {
                    "name": "A5",
                    "midi": 81,
                    "time": 52.014735499999986,
                    "velocity": 0.4409448818897638,
                    "duration": 0.04256525000000266
                },
                {
                    "name": "A#5",
                    "midi": 82,
                    "time": 52.05730074999999,
                    "velocity": 0.3937007874015748,
                    "duration": 0.04256525000000266
                },
                {
                    "name": "A5",
                    "midi": 81,
                    "time": 52.09986599999999,
                    "velocity": 0.47244094488188976,
                    "duration": 0.08513049999999822
                },
                {
                    "name": "F5",
                    "midi": 77,
                    "time": 52.44038799999999,
                    "velocity": 0.4330708661417323,
                    "duration": 0.04256525000000266
                },
                {
                    "name": "G5",
                    "midi": 79,
                    "time": 52.482953249999994,
                    "velocity": 0.4015748031496063,
                    "duration": 0.04256525000000266
                },
                {
                    "name": "F5",
                    "midi": 77,
                    "time": 52.5255185,
                    "velocity": 0.4330708661417323,
                    "duration": 0.04256525000000266
                },
                {
                    "name": "G5",
                    "midi": 79,
                    "time": 52.56808375,
                    "velocity": 0.4015748031496063,
                    "duration": 0.04256525000000266
                },
                {
                    "name": "F5",
                    "midi": 77,
                    "time": 52.610649,
                    "velocity": 0.5039370078740157,
                    "duration": 0.08513049999999822
                },
                {
                    "name": "A5",
                    "midi": 81,
                    "time": 52.951171,
                    "velocity": 0.4409448818897638,
                    "duration": 0.04256525000000266
                },
                {
                    "name": "A#5",
                    "midi": 82,
                    "time": 52.993736250000005,
                    "velocity": 0.3937007874015748,
                    "duration": 0.04256525000000266
                },
                {
                    "name": "A5",
                    "midi": 81,
                    "time": 53.03630150000001,
                    "velocity": 0.4409448818897638,
                    "duration": 0.04256525000000266
                },
                {
                    "name": "A#5",
                    "midi": 82,
                    "time": 53.07886675000001,
                    "velocity": 0.3937007874015748,
                    "duration": 0.04256525000000266
                },
                {
                    "name": "A5",
                    "midi": 81,
                    "time": 53.12143200000001,
                    "velocity": 0.48031496062992124,
                    "duration": 0.08513049999999822
                },
                {
                    "name": "A#5",
                    "midi": 82,
                    "time": 53.46195400000001,
                    "velocity": 0.4409448818897638,
                    "duration": 0.03405219999999787
                },
                {
                    "name": "A5",
                    "midi": 81,
                    "time": 53.49600620000001,
                    "velocity": 0.4015748031496063,
                    "duration": 0.03405219999999787
                },
                {
                    "name": "F5",
                    "midi": 77,
                    "time": 53.53005840000001,
                    "velocity": 0.3858267716535433,
                    "duration": 0.03405219999999787
                },
                {
                    "name": "D5",
                    "midi": 74,
                    "time": 53.56411060000001,
                    "velocity": 0.3464566929133858,
                    "duration": 0.03405219999999787
                },
                {
                    "name": "A4",
                    "midi": 69,
                    "time": 53.598162800000004,
                    "velocity": 0.33070866141732286,
                    "duration": 0.03405219999999787
                },
                {
                    "name": "A5",
                    "midi": 81,
                    "time": 53.972737,
                    "velocity": 0.4330708661417323,
                    "duration": 0.04256525000000266
                },
                {
                    "name": "A#5",
                    "midi": 82,
                    "time": 54.015302250000005,
                    "velocity": 0.4015748031496063,
                    "duration": 0.04256525000000266
                },
                {
                    "name": "A5",
                    "midi": 81,
                    "time": 54.05786750000001,
                    "velocity": 0.4330708661417323,
                    "duration": 0.04256525000000266
                },
                {
                    "name": "A#5",
                    "midi": 82,
                    "time": 54.10043275000001,
                    "velocity": 0.4015748031496063,
                    "duration": 0.04256525000000266
                },
                {
                    "name": "A5",
                    "midi": 81,
                    "time": 54.14299800000001,
                    "velocity": 0.5669291338582677,
                    "duration": 0.08513049999999822
                },
                {
                    "name": "A#5",
                    "midi": 82,
                    "time": 54.48352000000001,
                    "velocity": 0.5039370078740157,
                    "duration": 0.03405219999999787
                },
                {
                    "name": "A5",
                    "midi": 81,
                    "time": 54.51757220000001,
                    "velocity": 0.48031496062992124,
                    "duration": 0.03405219999999787
                },
                {
                    "name": "F5",
                    "midi": 77,
                    "time": 54.55162440000001,
                    "velocity": 0.44881889763779526,
                    "duration": 0.03405219999999787
                },
                {
                    "name": "C#5",
                    "midi": 73,
                    "time": 54.585676600000006,
                    "velocity": 0.4251968503937008,
                    "duration": 0.03405219999999787
                },
                {
                    "name": "A4",
                    "midi": 69,
                    "time": 54.619728800000004,
                    "velocity": 0.4015748031496063,
                    "duration": 0.03405219999999787
                },
                {
                    "name": "C6",
                    "midi": 84,
                    "time": 54.994303,
                    "velocity": 0.4330708661417323,
                    "duration": 0.04256525000000266
                },
                {
                    "name": "D6",
                    "midi": 86,
                    "time": 55.036868250000005,
                    "velocity": 0.3937007874015748,
                    "duration": 0.04256525000000266
                },
                {
                    "name": "C6",
                    "midi": 84,
                    "time": 55.07943350000001,
                    "velocity": 0.4330708661417323,
                    "duration": 0.04256525000000266
                },
                {
                    "name": "D6",
                    "midi": 86,
                    "time": 55.12199875000001,
                    "velocity": 0.4015748031496063,
                    "duration": 0.04256525000000266
                },
                {
                    "name": "C6",
                    "midi": 84,
                    "time": 55.16456400000001,
                    "velocity": 0.6850393700787402,
                    "duration": 0.08513049999999822
                },
                {
                    "name": "D6",
                    "midi": 86,
                    "time": 55.50508600000001,
                    "velocity": 0.5511811023622047,
                    "duration": 0.02837683333333274
                },
                {
                    "name": "C6",
                    "midi": 84,
                    "time": 55.533462833333346,
                    "velocity": 0.5196850393700787,
                    "duration": 0.02837683333333274
                },
                {
                    "name": "A5",
                    "midi": 81,
                    "time": 55.56183966666668,
                    "velocity": 0.5039370078740157,
                    "duration": 0.02837683333333274
                },
                {
                    "name": "F5",
                    "midi": 77,
                    "time": 55.59021650000001,
                    "velocity": 0.4881889763779528,
                    "duration": 0.02837683333333274
                },
                {
                    "name": "C5",
                    "midi": 72,
                    "time": 55.618593333333344,
                    "velocity": 0.4566929133858268,
                    "duration": 0.02837683333333274
                },
                {
                    "name": "A4",
                    "midi": 69,
                    "time": 55.64697016666668,
                    "velocity": 0.4409448818897638,
                    "duration": 0.02837683333333274
                },
                {
                    "name": "C#6",
                    "midi": 85,
                    "time": 55.93073850000001,
                    "velocity": 0.48031496062992124,
                    "duration": 0.08513049999999822
                },
                {
                    "name": "A5",
                    "midi": 81,
                    "time": 56.01586900000001,
                    "velocity": 0.48031496062992124,
                    "duration": 0.08513049999999822
                },
                {
                    "name": "C#5",
                    "midi": 73,
                    "time": 56.186130000000006,
                    "velocity": 0.4566929133858268,
                    "duration": 0.17026099999999644
                },
                {
                    "name": "F5",
                    "midi": 77,
                    "time": 56.186130000000006,
                    "velocity": 0.4566929133858268,
                    "duration": 0.17026099999999644
                },
                {
                    "name": "C#6",
                    "midi": 85,
                    "time": 56.4415215,
                    "velocity": 0.4881889763779528,
                    "duration": 0.08513049999999822
                },
                {
                    "name": "A5",
                    "midi": 81,
                    "time": 56.526652,
                    "velocity": 0.4881889763779528,
                    "duration": 0.08513049999999822
                },
                {
                    "name": "C#5",
                    "midi": 73,
                    "time": 56.696912999999995,
                    "velocity": 0.4566929133858268,
                    "duration": 0.17026099999999644
                },
                {
                    "name": "F5",
                    "midi": 77,
                    "time": 56.696912999999995,
                    "velocity": 0.4566929133858268,
                    "duration": 0.17026099999999644
                },
                {
                    "name": "D6",
                    "midi": 86,
                    "time": 56.95230449999999,
                    "velocity": 0.4881889763779528,
                    "duration": 0.08513049999999822
                },
                {
                    "name": "A5",
                    "midi": 81,
                    "time": 57.03743499999999,
                    "velocity": 0.4881889763779528,
                    "duration": 0.08513049999999822
                },
                {
                    "name": "D5",
                    "midi": 74,
                    "time": 57.207695999999984,
                    "velocity": 0.48031496062992124,
                    "duration": 0.17026099999999644
                },
                {
                    "name": "F4",
                    "midi": 65,
                    "time": 57.54821799999998,
                    "velocity": 0.4094488188976378,
                    "duration": 0.17026099999999644
                },
                {
                    "name": "D5",
                    "midi": 74,
                    "time": 57.54821799999998,
                    "velocity": 0.4094488188976378,
                    "duration": 0.17026099999999644
                },
                {
                    "name": "F4",
                    "midi": 65,
                    "time": 57.718478999999974,
                    "velocity": 0.4094488188976378,
                    "duration": 0.17026099999999644
                },
                {
                    "name": "D5",
                    "midi": 74,
                    "time": 57.718478999999974,
                    "velocity": 0.4094488188976378,
                    "duration": 0.17026099999999644
                },
                {
                    "name": "A2",
                    "midi": 45,
                    "time": 58.48465349999997,
                    "velocity": 0.2992125984251969,
                    "duration": 0.08513049999999822
                },
                {
                    "name": "G3",
                    "midi": 55,
                    "time": 58.48465349999997,
                    "velocity": 0.2992125984251969,
                    "duration": 0.08513049999999822
                },
                {
                    "name": "A3",
                    "midi": 57,
                    "time": 58.56978399999997,
                    "velocity": 0.33070866141732286,
                    "duration": 0.08513049999999822
                },
                {
                    "name": "A3",
                    "midi": 57,
                    "time": 58.74004499999997,
                    "velocity": 0.3543307086614173,
                    "duration": 0.5107830000000035
                },
                {
                    "name": "G3",
                    "midi": 55,
                    "time": 58.74004499999997,
                    "velocity": 0.3543307086614173,
                    "duration": 0.5107830000000035
                },
                {
                    "name": "A2",
                    "midi": 45,
                    "time": 58.74004499999997,
                    "velocity": 0.3543307086614173,
                    "duration": 0.5107830000000035
                },
                {
                    "name": "G3",
                    "midi": 55,
                    "time": 59.50621949999997,
                    "velocity": 0.29133858267716534,
                    "duration": 0.08513049999999822
                },
                {
                    "name": "A2",
                    "midi": 45,
                    "time": 59.50621949999997,
                    "velocity": 0.29133858267716534,
                    "duration": 0.08513049999999822
                },
                {
                    "name": "A3",
                    "midi": 57,
                    "time": 59.59134999999997,
                    "velocity": 0.30708661417322836,
                    "duration": 0.08513049999999822
                },
                {
                    "name": "A3",
                    "midi": 57,
                    "time": 59.76161099999997,
                    "velocity": 0.3464566929133858,
                    "duration": 0.5107829999999964
                },
                {
                    "name": "G3",
                    "midi": 55,
                    "time": 59.76161099999997,
                    "velocity": 0.3464566929133858,
                    "duration": 0.5107829999999964
                },
                {
                    "name": "A2",
                    "midi": 45,
                    "time": 59.76161099999997,
                    "velocity": 0.3464566929133858,
                    "duration": 0.5107829999999964
                },
                {
                    "name": "A3",
                    "midi": 57,
                    "time": 60.61291599999996,
                    "velocity": 0.31496062992125984,
                    "duration": 0.08513049999999822
                },
                {
                    "name": "G3",
                    "midi": 55,
                    "time": 60.61291599999996,
                    "velocity": 0.31496062992125984,
                    "duration": 0.08513049999999822
                },
                {
                    "name": "A2",
                    "midi": 45,
                    "time": 60.61291599999996,
                    "velocity": 0.31496062992125984,
                    "duration": 0.08513049999999822
                },
                {
                    "name": "A3",
                    "midi": 57,
                    "time": 61.12369899999996,
                    "velocity": 0.2992125984251969,
                    "duration": 0.08513049999999822
                },
                {
                    "name": "G3",
                    "midi": 55,
                    "time": 61.12369899999996,
                    "velocity": 0.2992125984251969,
                    "duration": 0.08513049999999822
                },
                {
                    "name": "A2",
                    "midi": 45,
                    "time": 61.12369899999996,
                    "velocity": 0.2992125984251969,
                    "duration": 0.08513049999999822
                },
                {
                    "name": "A3",
                    "midi": 57,
                    "time": 61.634481999999956,
                    "velocity": 0.25984251968503935,
                    "duration": 0.08513049999999822
                },
                {
                    "name": "G3",
                    "midi": 55,
                    "time": 61.634481999999956,
                    "velocity": 0.25984251968503935,
                    "duration": 0.08513049999999822
                },
                {
                    "name": "A2",
                    "midi": 45,
                    "time": 61.634481999999956,
                    "velocity": 0.25984251968503935,
                    "duration": 0.08513049999999822
                },
                {
                    "name": "G3",
                    "midi": 55,
                    "time": 62.14526499999995,
                    "velocity": 0.25984251968503935,
                    "duration": 0.08513049999999822
                },
                {
                    "name": "A2",
                    "midi": 45,
                    "time": 62.14526499999995,
                    "velocity": 0.25984251968503935,
                    "duration": 0.08513049999999822
                },
                {
                    "name": "A3",
                    "midi": 57,
                    "time": 62.14526499999995,
                    "velocity": 0.25984251968503935,
                    "duration": 0.08513049999999822
                },
                {
                    "name": "F#3",
                    "midi": 54,
                    "time": 62.57091749999995,
                    "velocity": 0.28346456692913385,
                    "duration": 0.08513049999999822
                },
                {
                    "name": "A3",
                    "midi": 57,
                    "time": 62.65604799999995,
                    "velocity": 0.28346456692913385,
                    "duration": 0.08513049999999822
                },
                {
                    "name": "D4",
                    "midi": 62,
                    "time": 62.826308999999945,
                    "velocity": 0.33858267716535434,
                    "duration": 0.08513049999999822
                },
                {
                    "name": "F#4",
                    "midi": 66,
                    "time": 63.08170049999994,
                    "velocity": 0.31496062992125984,
                    "duration": 0.08513049999999822
                },
                {
                    "name": "A4",
                    "midi": 69,
                    "time": 63.16683099999994,
                    "velocity": 0.31496062992125984,
                    "duration": 0.08513049999999822
                },
                {
                    "name": "D5",
                    "midi": 74,
                    "time": 63.337091999999934,
                    "velocity": 0.3464566929133858,
                    "duration": 0.08513049999999822
                },
                {
                    "name": "F#4",
                    "midi": 66,
                    "time": 63.59248349999993,
                    "velocity": 0.33070866141732286,
                    "duration": 0.08513049999999822
                },
                {
                    "name": "A4",
                    "midi": 69,
                    "time": 63.67761399999993,
                    "velocity": 0.33070866141732286,
                    "duration": 0.08513049999999822
                },
                {
                    "name": "D5",
                    "midi": 74,
                    "time": 63.847874999999924,
                    "velocity": 0.3543307086614173,
                    "duration": 0.08513049999999822
                },
                {
                    "name": "F#5",
                    "midi": 78,
                    "time": 64.10326649999992,
                    "velocity": 0.33070866141732286,
                    "duration": 0.08513050000000533
                },
                {
                    "name": "A5",
                    "midi": 81,
                    "time": 64.18839699999992,
                    "velocity": 0.33070866141732286,
                    "duration": 0.08513050000000533
                },
                {
                    "name": "D6",
                    "midi": 86,
                    "time": 64.35865799999993,
                    "velocity": 0.3464566929133858,
                    "duration": 0.08513050000000533
                },
                {
                    "name": "G3",
                    "midi": 55,
                    "time": 64.86944099999994,
                    "velocity": 0.30708661417322836,
                    "duration": 0.08513050000000533
                },
                {
                    "name": "E3",
                    "midi": 52,
                    "time": 64.86944099999994,
                    "velocity": 0.30708661417322836,
                    "duration": 0.08513050000000533
                },
                {
                    "name": "D4",
                    "midi": 62,
                    "time": 64.86944099999994,
                    "velocity": 0.30708661417322836,
                    "duration": 0.08513050000000533
                },
                {
                    "name": "A#3",
                    "midi": 58,
                    "time": 64.86944099999994,
                    "velocity": 0.30708661417322836,
                    "duration": 0.08513050000000533
                },
                {
                    "name": "D4",
                    "midi": 62,
                    "time": 65.38022399999994,
                    "velocity": 0.30708661417322836,
                    "duration": 0.08513050000000533
                },
                {
                    "name": "F#3",
                    "midi": 54,
                    "time": 65.38022399999994,
                    "velocity": 0.30708661417322836,
                    "duration": 0.08513050000000533
                },
                {
                    "name": "A3",
                    "midi": 57,
                    "time": 65.38022399999994,
                    "velocity": 0.30708661417322836,
                    "duration": 0.08513050000000533
                }
            ],
            "controlChanges": {
                "7": [
                    {
                        "number": 7,
                        "time": 0,
                        "value": 0.7874015748031497
                    }
                ],
                "10": [
                    {
                        "number": 10,
                        "time": 0,
                        "value": 0.5039370078740157
                    }
                ],
                "91": [
                    {
                        "number": 91,
                        "time": 0,
                        "value": 1
                    },
                    {
                        "number": 91,
                        "time": 0.8484673166666666,
                        "value": 1
                    },
                    {
                        "number": 91,
                        "time": 21.452885999999953,
                        "value": 1
                    },
                    {
                        "number": 91,
                        "time": 37.627680999999896,
                        "value": 1
                    },
                    {
                        "number": 91,
                        "time": 41.884205999999864,
                        "value": 1
                    }
                ]
            },
            "id": 1,
            "name": "Piano right",
            "instrumentNumber": 0,
            "instrument": "acoustic grand piano",
            "instrumentFamily": "piano",
            "channelNumber": 0,
            "isPercussion": false
        },
        {
            "startTime": 0.851305,
            "duration": 65.46535450000003,
            "length": 409,
            "notes": [
                {
                    "name": "D5",
                    "midi": 74,
                    "time": 0.851305,
                    "velocity": 0.33070866141732286,
                    "duration": 0.04256525
                },
                {
                    "name": "F5",
                    "midi": 77,
                    "time": 0.89387025,
                    "velocity": 0.2992125984251969,
                    "duration": 0.04256525
                },
                {
                    "name": "D5",
                    "midi": 74,
                    "time": 0.9364355,
                    "velocity": 0.33070866141732286,
                    "duration": 0.04256525
                },
                {
                    "name": "F5",
                    "midi": 77,
                    "time": 0.97900075,
                    "velocity": 0.2992125984251969,
                    "duration": 0.04256525
                },
                {
                    "name": "D5",
                    "midi": 74,
                    "time": 1.021566,
                    "velocity": 0.3937007874015748,
                    "duration": 0.0851305
                },
                {
                    "name": "A4",
                    "midi": 69,
                    "time": 1.362088,
                    "velocity": 0.23622047244094488,
                    "duration": 0.170261
                },
                {
                    "name": "D4",
                    "midi": 62,
                    "time": 1.362088,
                    "velocity": 0.23622047244094488,
                    "duration": 0.170261
                },
                {
                    "name": "A4",
                    "midi": 69,
                    "time": 1.532349,
                    "velocity": 0.23622047244094488,
                    "duration": 0.0851305
                },
                {
                    "name": "D4",
                    "midi": 62,
                    "time": 1.532349,
                    "velocity": 0.23622047244094488,
                    "duration": 0.0851305
                },
                {
                    "name": "G5",
                    "midi": 79,
                    "time": 1.872871,
                    "velocity": 0.3464566929133858,
                    "duration": 0.04256525
                },
                {
                    "name": "B5",
                    "midi": 83,
                    "time": 1.91543625,
                    "velocity": 0.31496062992125984,
                    "duration": 0.04256525
                },
                {
                    "name": "G5",
                    "midi": 79,
                    "time": 1.9580015,
                    "velocity": 0.3464566929133858,
                    "duration": 0.04256525
                },
                {
                    "name": "B5",
                    "midi": 83,
                    "time": 2.00056675,
                    "velocity": 0.31496062992125984,
                    "duration": 0.04256525
                },
                {
                    "name": "G5",
                    "midi": 79,
                    "time": 2.043132,
                    "velocity": 0.3937007874015748,
                    "duration": 0.0851305
                },
                {
                    "name": "D5",
                    "midi": 74,
                    "time": 2.383654,
                    "velocity": 0.23622047244094488,
                    "duration": 0.170261
                },
                {
                    "name": "G4",
                    "midi": 67,
                    "time": 2.383654,
                    "velocity": 0.23622047244094488,
                    "duration": 0.170261
                },
                {
                    "name": "D5",
                    "midi": 74,
                    "time": 2.553915,
                    "velocity": 0.23622047244094488,
                    "duration": 0.0851305
                },
                {
                    "name": "G4",
                    "midi": 67,
                    "time": 2.553915,
                    "velocity": 0.23622047244094488,
                    "duration": 0.0851305
                },
                {
                    "name": "D5",
                    "midi": 74,
                    "time": 2.894437,
                    "velocity": 0.3779527559055118,
                    "duration": 0.04256525
                },
                {
                    "name": "F5",
                    "midi": 77,
                    "time": 2.93700225,
                    "velocity": 0.33858267716535434,
                    "duration": 0.04256525
                },
                {
                    "name": "D5",
                    "midi": 74,
                    "time": 2.9795675,
                    "velocity": 0.3779527559055118,
                    "duration": 0.04256525
                },
                {
                    "name": "F5",
                    "midi": 77,
                    "time": 3.02213275,
                    "velocity": 0.3464566929133858,
                    "duration": 0.04256525
                },
                {
                    "name": "D5",
                    "midi": 74,
                    "time": 3.064698,
                    "velocity": 0.4015748031496063,
                    "duration": 0.0851305
                },
                {
                    "name": "A#4",
                    "midi": 70,
                    "time": 3.40522,
                    "velocity": 0.3779527559055118,
                    "duration": 0.04256525
                },
                {
                    "name": "D5",
                    "midi": 74,
                    "time": 3.44778525,
                    "velocity": 0.3543307086614173,
                    "duration": 0.04256525
                },
                {
                    "name": "A#4",
                    "midi": 70,
                    "time": 3.4903505,
                    "velocity": 0.3779527559055118,
                    "duration": 0.04256525
                },
                {
                    "name": "D5",
                    "midi": 74,
                    "time": 3.53291575,
                    "velocity": 0.3464566929133858,
                    "duration": 0.04256525
                },
                {
                    "name": "A#4",
                    "midi": 70,
                    "time": 3.575481,
                    "velocity": 0.4330708661417323,
                    "duration": 0.0851305
                },
                {
                    "name": "D5",
                    "midi": 74,
                    "time": 3.916003,
                    "velocity": 0.3858267716535433,
                    "duration": 0.04256525
                },
                {
                    "name": "F5",
                    "midi": 77,
                    "time": 3.95856825,
                    "velocity": 0.3464566929133858,
                    "duration": 0.04256525
                },
                {
                    "name": "D5",
                    "midi": 74,
                    "time": 4.0011335,
                    "velocity": 0.3858267716535433,
                    "duration": 0.04256525
                },
                {
                    "name": "F5",
                    "midi": 77,
                    "time": 4.04369875,
                    "velocity": 0.3543307086614173,
                    "duration": 0.04256525
                },
                {
                    "name": "D5",
                    "midi": 74,
                    "time": 4.086264,
                    "velocity": 0.4409448818897638,
                    "duration": 0.0851305
                },
                {
                    "name": "A4",
                    "midi": 69,
                    "time": 4.426786,
                    "velocity": 0.25196850393700787,
                    "duration": 0.170261
                },
                {
                    "name": "D4",
                    "midi": 62,
                    "time": 4.426786,
                    "velocity": 0.25196850393700787,
                    "duration": 0.170261
                },
                {
                    "name": "D4",
                    "midi": 62,
                    "time": 4.597047,
                    "velocity": 0.25196850393700787,
                    "duration": 0.0851305
                },
                {
                    "name": "A4",
                    "midi": 69,
                    "time": 4.597047,
                    "velocity": 0.25196850393700787,
                    "duration": 0.0851305
                },
                {
                    "name": "F5",
                    "midi": 77,
                    "time": 4.937569,
                    "velocity": 0.3779527559055118,
                    "duration": 0.04256525
                },
                {
                    "name": "A5",
                    "midi": 81,
                    "time": 4.98013425,
                    "velocity": 0.3464566929133858,
                    "duration": 0.04256525
                },
                {
                    "name": "F5",
                    "midi": 77,
                    "time": 5.0226995,
                    "velocity": 0.3779527559055118,
                    "duration": 0.04256525
                },
                {
                    "name": "A5",
                    "midi": 81,
                    "time": 5.06526475,
                    "velocity": 0.3543307086614173,
                    "duration": 0.04256525
                },
                {
                    "name": "F5",
                    "midi": 77,
                    "time": 5.10783,
                    "velocity": 0.5433070866141733,
                    "duration": 0.0851305
                },
                {
                    "name": "F4",
                    "midi": 65,
                    "time": 5.448352,
                    "velocity": 0.31496062992125984,
                    "duration": 0.170261
                },
                {
                    "name": "C5",
                    "midi": 72,
                    "time": 5.448352,
                    "velocity": 0.31496062992125984,
                    "duration": 0.170261
                },
                {
                    "name": "F4",
                    "midi": 65,
                    "time": 5.618613,
                    "velocity": 0.31496062992125984,
                    "duration": 0.0851305
                },
                {
                    "name": "C5",
                    "midi": 72,
                    "time": 5.618613,
                    "velocity": 0.31496062992125984,
                    "duration": 0.0851305
                },
                {
                    "name": "A5",
                    "midi": 81,
                    "time": 5.959135,
                    "velocity": 0.3858267716535433,
                    "duration": 0.04256525
                },
                {
                    "name": "C6",
                    "midi": 84,
                    "time": 6.00170025,
                    "velocity": 0.3464566929133858,
                    "duration": 0.04256525
                },
                {
                    "name": "A5",
                    "midi": 81,
                    "time": 6.0442655,
                    "velocity": 0.3858267716535433,
                    "duration": 0.04256525
                },
                {
                    "name": "C6",
                    "midi": 84,
                    "time": 6.08683075,
                    "velocity": 0.3543307086614173,
                    "duration": 0.04256525
                },
                {
                    "name": "A5",
                    "midi": 81,
                    "time": 6.129396,
                    "velocity": 0.5433070866141733,
                    "duration": 0.0851305
                },
                {
                    "name": "C5",
                    "midi": 72,
                    "time": 6.469918,
                    "velocity": 0.3543307086614173,
                    "duration": 0.170261
                },
                {
                    "name": "E4",
                    "midi": 64,
                    "time": 6.469918,
                    "velocity": 0.3543307086614173,
                    "duration": 0.170261
                },
                {
                    "name": "C5",
                    "midi": 72,
                    "time": 6.640179,
                    "velocity": 0.3543307086614173,
                    "duration": 0.0851305
                },
                {
                    "name": "E4",
                    "midi": 64,
                    "time": 6.640179,
                    "velocity": 0.3543307086614173,
                    "duration": 0.0851305
                },
                {
                    "name": "D4",
                    "midi": 62,
                    "time": 7.150962,
                    "velocity": 0.3464566929133858,
                    "duration": 0.170261
                },
                {
                    "name": "E3",
                    "midi": 52,
                    "time": 7.150962,
                    "velocity": 0.3464566929133858,
                    "duration": 0.170261
                },
                {
                    "name": "E3",
                    "midi": 52,
                    "time": 7.661745,
                    "velocity": 0.3464566929133858,
                    "duration": 0.170261
                },
                {
                    "name": "D4",
                    "midi": 62,
                    "time": 7.661745,
                    "velocity": 0.3464566929133858,
                    "duration": 0.170261
                },
                {
                    "name": "E3",
                    "midi": 52,
                    "time": 8.51305,
                    "velocity": 0.3937007874015748,
                    "duration": 0.170261
                },
                {
                    "name": "A2",
                    "midi": 45,
                    "time": 8.51305,
                    "velocity": 0.3937007874015748,
                    "duration": 0.170261
                },
                {
                    "name": "A2",
                    "midi": 45,
                    "time": 8.683311,
                    "velocity": 0.3937007874015748,
                    "duration": 0.170261
                },
                {
                    "name": "E3",
                    "midi": 52,
                    "time": 8.683311,
                    "velocity": 0.3937007874015748,
                    "duration": 0.170261
                },
                {
                    "name": "D5",
                    "midi": 74,
                    "time": 9.023833,
                    "velocity": 0.33070866141732286,
                    "duration": 0.04256524999999911
                },
                {
                    "name": "F5",
                    "midi": 77,
                    "time": 9.066398249999999,
                    "velocity": 0.2992125984251969,
                    "duration": 0.04256524999999911
                },
                {
                    "name": "D5",
                    "midi": 74,
                    "time": 9.108963499999998,
                    "velocity": 0.33070866141732286,
                    "duration": 0.04256524999999911
                },
                {
                    "name": "F5",
                    "midi": 77,
                    "time": 9.151528749999997,
                    "velocity": 0.2992125984251969,
                    "duration": 0.04256524999999911
                },
                {
                    "name": "D5",
                    "midi": 74,
                    "time": 9.194093999999996,
                    "velocity": 0.3937007874015748,
                    "duration": 0.0851305
                },
                {
                    "name": "D4",
                    "midi": 62,
                    "time": 9.534615999999996,
                    "velocity": 0.23622047244094488,
                    "duration": 0.170261
                },
                {
                    "name": "A4",
                    "midi": 69,
                    "time": 9.534615999999996,
                    "velocity": 0.23622047244094488,
                    "duration": 0.170261
                },
                {
                    "name": "D4",
                    "midi": 62,
                    "time": 9.704876999999996,
                    "velocity": 0.23622047244094488,
                    "duration": 0.0851305
                },
                {
                    "name": "A4",
                    "midi": 69,
                    "time": 9.704876999999996,
                    "velocity": 0.23622047244094488,
                    "duration": 0.0851305
                },
                {
                    "name": "G5",
                    "midi": 79,
                    "time": 10.045398999999996,
                    "velocity": 0.3464566929133858,
                    "duration": 0.04256524999999911
                },
                {
                    "name": "B5",
                    "midi": 83,
                    "time": 10.087964249999995,
                    "velocity": 0.31496062992125984,
                    "duration": 0.04256524999999911
                },
                {
                    "name": "G5",
                    "midi": 79,
                    "time": 10.130529499999994,
                    "velocity": 0.3464566929133858,
                    "duration": 0.04256524999999911
                },
                {
                    "name": "B5",
                    "midi": 83,
                    "time": 10.173094749999994,
                    "velocity": 0.31496062992125984,
                    "duration": 0.04256524999999911
                },
                {
                    "name": "G5",
                    "midi": 79,
                    "time": 10.215659999999993,
                    "velocity": 0.3937007874015748,
                    "duration": 0.0851305
                },
                {
                    "name": "G4",
                    "midi": 67,
                    "time": 10.556181999999993,
                    "velocity": 0.23622047244094488,
                    "duration": 0.170261
                },
                {
                    "name": "D5",
                    "midi": 74,
                    "time": 10.556181999999993,
                    "velocity": 0.23622047244094488,
                    "duration": 0.170261
                },
                {
                    "name": "G4",
                    "midi": 67,
                    "time": 10.726442999999993,
                    "velocity": 0.23622047244094488,
                    "duration": 0.0851305
                },
                {
                    "name": "D5",
                    "midi": 74,
                    "time": 10.726442999999993,
                    "velocity": 0.23622047244094488,
                    "duration": 0.0851305
                },
                {
                    "name": "D5",
                    "midi": 74,
                    "time": 11.066964999999993,
                    "velocity": 0.3779527559055118,
                    "duration": 0.04256524999999911
                },
                {
                    "name": "F5",
                    "midi": 77,
                    "time": 11.109530249999992,
                    "velocity": 0.33858267716535434,
                    "duration": 0.04256524999999911
                },
                {
                    "name": "D5",
                    "midi": 74,
                    "time": 11.15209549999999,
                    "velocity": 0.3779527559055118,
                    "duration": 0.04256524999999911
                },
                {
                    "name": "F5",
                    "midi": 77,
                    "time": 11.19466074999999,
                    "velocity": 0.3464566929133858,
                    "duration": 0.04256524999999911
                },
                {
                    "name": "D5",
                    "midi": 74,
                    "time": 11.237225999999989,
                    "velocity": 0.4015748031496063,
                    "duration": 0.0851305
                },
                {
                    "name": "A#4",
                    "midi": 70,
                    "time": 11.577747999999989,
                    "velocity": 0.3779527559055118,
                    "duration": 0.04256524999999911
                },
                {
                    "name": "D5",
                    "midi": 74,
                    "time": 11.620313249999988,
                    "velocity": 0.3543307086614173,
                    "duration": 0.04256524999999911
                },
                {
                    "name": "A#4",
                    "midi": 70,
                    "time": 11.662878499999987,
                    "velocity": 0.3779527559055118,
                    "duration": 0.04256524999999911
                },
                {
                    "name": "D5",
                    "midi": 74,
                    "time": 11.705443749999986,
                    "velocity": 0.3464566929133858,
                    "duration": 0.04256524999999911
                },
                {
                    "name": "A#4",
                    "midi": 70,
                    "time": 11.748008999999985,
                    "velocity": 0.4330708661417323,
                    "duration": 0.0851305
                },
                {
                    "name": "D5",
                    "midi": 74,
                    "time": 12.088530999999985,
                    "velocity": 0.3858267716535433,
                    "duration": 0.04256524999999911
                },
                {
                    "name": "F5",
                    "midi": 77,
                    "time": 12.131096249999985,
                    "velocity": 0.3464566929133858,
                    "duration": 0.04256524999999911
                },
                {
                    "name": "D5",
                    "midi": 74,
                    "time": 12.173661499999984,
                    "velocity": 0.3858267716535433,
                    "duration": 0.04256524999999911
                },
                {
                    "name": "F5",
                    "midi": 77,
                    "time": 12.216226749999983,
                    "velocity": 0.3543307086614173,
                    "duration": 0.04256524999999911
                },
                {
                    "name": "D5",
                    "midi": 74,
                    "time": 12.258791999999982,
                    "velocity": 0.4409448818897638,
                    "duration": 0.0851305
                },
                {
                    "name": "D4",
                    "midi": 62,
                    "time": 12.599313999999982,
                    "velocity": 0.25196850393700787,
                    "duration": 0.170261
                },
                {
                    "name": "A4",
                    "midi": 69,
                    "time": 12.599313999999982,
                    "velocity": 0.25196850393700787,
                    "duration": 0.170261
                },
                {
                    "name": "D4",
                    "midi": 62,
                    "time": 12.769574999999982,
                    "velocity": 0.25196850393700787,
                    "duration": 0.0851305
                },
                {
                    "name": "A4",
                    "midi": 69,
                    "time": 12.769574999999982,
                    "velocity": 0.25196850393700787,
                    "duration": 0.0851305
                },
                {
                    "name": "F5",
                    "midi": 77,
                    "time": 13.110096999999982,
                    "velocity": 0.3779527559055118,
                    "duration": 0.04256524999999911
                },
                {
                    "name": "A5",
                    "midi": 81,
                    "time": 13.152662249999981,
                    "velocity": 0.3464566929133858,
                    "duration": 0.04256524999999911
                },
                {
                    "name": "F5",
                    "midi": 77,
                    "time": 13.19522749999998,
                    "velocity": 0.3779527559055118,
                    "duration": 0.04256524999999911
                },
                {
                    "name": "A5",
                    "midi": 81,
                    "time": 13.23779274999998,
                    "velocity": 0.3543307086614173,
                    "duration": 0.04256524999999911
                },
                {
                    "name": "F5",
                    "midi": 77,
                    "time": 13.280357999999978,
                    "velocity": 0.5433070866141733,
                    "duration": 0.0851305
                },
                {
                    "name": "F4",
                    "midi": 65,
                    "time": 13.620879999999978,
                    "velocity": 0.31496062992125984,
                    "duration": 0.170261
                },
                {
                    "name": "C5",
                    "midi": 72,
                    "time": 13.620879999999978,
                    "velocity": 0.31496062992125984,
                    "duration": 0.170261
                },
                {
                    "name": "F4",
                    "midi": 65,
                    "time": 13.791140999999978,
                    "velocity": 0.31496062992125984,
                    "duration": 0.0851305
                },
                {
                    "name": "C5",
                    "midi": 72,
                    "time": 13.791140999999978,
                    "velocity": 0.31496062992125984,
                    "duration": 0.0851305
                },
                {
                    "name": "A5",
                    "midi": 81,
                    "time": 14.131662999999978,
                    "velocity": 0.3858267716535433,
                    "duration": 0.04256524999999911
                },
                {
                    "name": "C6",
                    "midi": 84,
                    "time": 14.174228249999977,
                    "velocity": 0.3464566929133858,
                    "duration": 0.04256524999999911
                },
                {
                    "name": "A5",
                    "midi": 81,
                    "time": 14.216793499999977,
                    "velocity": 0.3858267716535433,
                    "duration": 0.04256524999999911
                },
                {
                    "name": "C6",
                    "midi": 84,
                    "time": 14.259358749999976,
                    "velocity": 0.3543307086614173,
                    "duration": 0.04256524999999911
                },
                {
                    "name": "A5",
                    "midi": 81,
                    "time": 14.301923999999975,
                    "velocity": 0.5433070866141733,
                    "duration": 0.0851305
                },
                {
                    "name": "E4",
                    "midi": 64,
                    "time": 14.642445999999975,
                    "velocity": 0.3543307086614173,
                    "duration": 0.170261
                },
                {
                    "name": "C5",
                    "midi": 72,
                    "time": 14.642445999999975,
                    "velocity": 0.3543307086614173,
                    "duration": 0.170261
                },
                {
                    "name": "E4",
                    "midi": 64,
                    "time": 14.812706999999975,
                    "velocity": 0.3543307086614173,
                    "duration": 0.0851305
                },
                {
                    "name": "C5",
                    "midi": 72,
                    "time": 14.812706999999975,
                    "velocity": 0.3543307086614173,
                    "duration": 0.0851305
                },
                {
                    "name": "D4",
                    "midi": 62,
                    "time": 15.323489999999975,
                    "velocity": 0.3464566929133858,
                    "duration": 0.170261
                },
                {
                    "name": "E3",
                    "midi": 52,
                    "time": 15.323489999999975,
                    "velocity": 0.3464566929133858,
                    "duration": 0.170261
                },
                {
                    "name": "D4",
                    "midi": 62,
                    "time": 15.834272999999975,
                    "velocity": 0.3464566929133858,
                    "duration": 0.170261
                },
                {
                    "name": "E3",
                    "midi": 52,
                    "time": 15.834272999999975,
                    "velocity": 0.3464566929133858,
                    "duration": 0.170261
                },
                {
                    "name": "E3",
                    "midi": 52,
                    "time": 16.685577999999975,
                    "velocity": 0.4094488188976378,
                    "duration": 0.170261
                },
                {
                    "name": "A2",
                    "midi": 45,
                    "time": 16.685577999999975,
                    "velocity": 0.4094488188976378,
                    "duration": 0.170261
                },
                {
                    "name": "A2",
                    "midi": 45,
                    "time": 16.855838999999975,
                    "velocity": 0.4094488188976378,
                    "duration": 0.170261
                },
                {
                    "name": "E3",
                    "midi": 52,
                    "time": 16.855838999999975,
                    "velocity": 0.4094488188976378,
                    "duration": 0.170261
                },
                {
                    "name": "A#2",
                    "midi": 46,
                    "time": 17.196360999999975,
                    "velocity": 0.33858267716535434,
                    "duration": 0.04256524999999911
                },
                {
                    "name": "C3",
                    "midi": 48,
                    "time": 17.238926249999974,
                    "velocity": 0.33858267716535434,
                    "duration": 0.04256524999999911
                },
                {
                    "name": "A#2",
                    "midi": 46,
                    "time": 17.281491499999973,
                    "velocity": 0.33858267716535434,
                    "duration": 0.04256524999999911
                },
                {
                    "name": "C3",
                    "midi": 48,
                    "time": 17.324056749999972,
                    "velocity": 0.33858267716535434,
                    "duration": 0.04256524999999911
                },
                {
                    "name": "A#2",
                    "midi": 46,
                    "time": 17.36662199999997,
                    "velocity": 0.48031496062992124,
                    "duration": 0.851305
                },
                {
                    "name": "A#2",
                    "midi": 46,
                    "time": 18.21792699999997,
                    "velocity": 0.33858267716535434,
                    "duration": 0.04256524999999911
                },
                {
                    "name": "C3",
                    "midi": 48,
                    "time": 18.26049224999997,
                    "velocity": 0.33858267716535434,
                    "duration": 0.04256524999999911
                },
                {
                    "name": "A#2",
                    "midi": 46,
                    "time": 18.30305749999997,
                    "velocity": 0.33858267716535434,
                    "duration": 0.04256524999999911
                },
                {
                    "name": "C3",
                    "midi": 48,
                    "time": 18.34562274999997,
                    "velocity": 0.33858267716535434,
                    "duration": 0.04256524999999911
                },
                {
                    "name": "A#2",
                    "midi": 46,
                    "time": 18.388187999999968,
                    "velocity": 0.48031496062992124,
                    "duration": 0.851305
                },
                {
                    "name": "A#2",
                    "midi": 46,
                    "time": 19.239492999999968,
                    "velocity": 0.33070866141732286,
                    "duration": 0.04256524999999911
                },
                {
                    "name": "C3",
                    "midi": 48,
                    "time": 19.282058249999967,
                    "velocity": 0.33070866141732286,
                    "duration": 0.04256524999999911
                },
                {
                    "name": "A#2",
                    "midi": 46,
                    "time": 19.324623499999966,
                    "velocity": 0.33070866141732286,
                    "duration": 0.04256524999999911
                },
                {
                    "name": "C3",
                    "midi": 48,
                    "time": 19.367188749999965,
                    "velocity": 0.31496062992125984,
                    "duration": 0.04256524999999911
                },
                {
                    "name": "A#2",
                    "midi": 46,
                    "time": 19.409753999999964,
                    "velocity": 0.5039370078740157,
                    "duration": 0.170261
                },
                {
                    "name": "A#2",
                    "midi": 46,
                    "time": 19.665145499999966,
                    "velocity": 0.3543307086614173,
                    "duration": 0.08513049999999822
                },
                {
                    "name": "C3",
                    "midi": 48,
                    "time": 19.750275999999964,
                    "velocity": 0.3543307086614173,
                    "duration": 0.08513049999999822
                },
                {
                    "name": "A#2",
                    "midi": 46,
                    "time": 19.92053699999996,
                    "velocity": 0.49606299212598426,
                    "duration": 0.170261
                },
                {
                    "name": "A#2",
                    "midi": 46,
                    "time": 20.175928499999962,
                    "velocity": 0.33858267716535434,
                    "duration": 0.08513049999999822
                },
                {
                    "name": "C3",
                    "midi": 48,
                    "time": 20.26105899999996,
                    "velocity": 0.33858267716535434,
                    "duration": 0.08513049999999822
                },
                {
                    "name": "A2",
                    "midi": 45,
                    "time": 20.431319999999957,
                    "velocity": 0.47244094488188976,
                    "duration": 0.681044
                },
                {
                    "name": "F#2",
                    "midi": 42,
                    "time": 21.112363999999957,
                    "velocity": 0.3779527559055118,
                    "duration": 0.08513049999999822
                },
                {
                    "name": "G#2",
                    "midi": 44,
                    "time": 21.282624999999953,
                    "velocity": 0.3779527559055118,
                    "duration": 0.08513049999999822
                },
                {
                    "name": "E2",
                    "midi": 40,
                    "time": 21.45288599999995,
                    "velocity": 0.5039370078740157,
                    "duration": 0.170261
                },
                {
                    "name": "E4",
                    "midi": 64,
                    "time": 21.79340799999995,
                    "velocity": 0.5984251968503937,
                    "duration": 0.170261
                },
                {
                    "name": "C#4",
                    "midi": 61,
                    "time": 21.79340799999995,
                    "velocity": 0.5984251968503937,
                    "duration": 0.170261
                },
                {
                    "name": "D#4",
                    "midi": 63,
                    "time": 21.96366899999995,
                    "velocity": 0.5275590551181102,
                    "duration": 0.08513050000000177
                },
                {
                    "name": "C4",
                    "midi": 60,
                    "time": 21.96366899999995,
                    "velocity": 0.5275590551181102,
                    "duration": 0.08513050000000177
                },
                {
                    "name": "D4",
                    "midi": 62,
                    "time": 22.304190999999953,
                    "velocity": 0.5748031496062992,
                    "duration": 0.170261
                },
                {
                    "name": "B3",
                    "midi": 59,
                    "time": 22.304190999999953,
                    "velocity": 0.5748031496062992,
                    "duration": 0.170261
                },
                {
                    "name": "A#3",
                    "midi": 58,
                    "time": 22.474451999999953,
                    "velocity": 0.5275590551181102,
                    "duration": 0.08513050000000177
                },
                {
                    "name": "C#4",
                    "midi": 61,
                    "time": 22.474451999999953,
                    "velocity": 0.5275590551181102,
                    "duration": 0.08513050000000177
                },
                {
                    "name": "C4",
                    "midi": 60,
                    "time": 22.814973999999957,
                    "velocity": 0.5511811023622047,
                    "duration": 0.170261
                },
                {
                    "name": "A3",
                    "midi": 57,
                    "time": 22.814973999999957,
                    "velocity": 0.5511811023622047,
                    "duration": 0.170261
                },
                {
                    "name": "G#3",
                    "midi": 56,
                    "time": 22.985234999999957,
                    "velocity": 0.4881889763779528,
                    "duration": 0.08513050000000177
                },
                {
                    "name": "B3",
                    "midi": 59,
                    "time": 22.985234999999957,
                    "velocity": 0.4881889763779528,
                    "duration": 0.08513050000000177
                },
                {
                    "name": "F#3",
                    "midi": 54,
                    "time": 23.32575699999996,
                    "velocity": 0.5354330708661418,
                    "duration": 0.170261
                },
                {
                    "name": "A3",
                    "midi": 57,
                    "time": 23.32575699999996,
                    "velocity": 0.5354330708661418,
                    "duration": 0.25539150000000177
                },
                {
                    "name": "F3",
                    "midi": 53,
                    "time": 23.49601799999996,
                    "velocity": 0.48031496062992124,
                    "duration": 0.08513050000000177
                },
                {
                    "name": "E3",
                    "midi": 52,
                    "time": 23.836539999999964,
                    "velocity": 0.5039370078740157,
                    "duration": 0.170261
                },
                {
                    "name": "A3",
                    "midi": 57,
                    "time": 23.836539999999964,
                    "velocity": 0.5039370078740157,
                    "duration": 0.25539150000000177
                },
                {
                    "name": "D#3",
                    "midi": 51,
                    "time": 24.006800999999964,
                    "velocity": 0.4566929133858268,
                    "duration": 0.08513050000000177
                },
                {
                    "name": "D3",
                    "midi": 50,
                    "time": 24.347322999999967,
                    "velocity": 0.4881889763779528,
                    "duration": 0.25539150000000177
                },
                {
                    "name": "E3",
                    "midi": 52,
                    "time": 24.347322999999967,
                    "velocity": 0.4881889763779528,
                    "duration": 0.170261
                },
                {
                    "name": "C#3",
                    "midi": 49,
                    "time": 24.517583999999967,
                    "velocity": 0.4409448818897638,
                    "duration": 0.08513050000000177
                },
                {
                    "name": "E2",
                    "midi": 40,
                    "time": 24.77297549999997,
                    "velocity": 0.5275590551181102,
                    "duration": 0.08513050000000177
                },
                {
                    "name": "A2",
                    "midi": 45,
                    "time": 24.85810599999997,
                    "velocity": 0.5905511811023622,
                    "duration": 0.08513049999999822
                },
                {
                    "name": "A1",
                    "midi": 33,
                    "time": 25.028366999999967,
                    "velocity": 0.5039370078740157,
                    "duration": 0.08513049999999822
                },
                {
                    "name": "D4",
                    "midi": 62,
                    "time": 25.368888999999967,
                    "velocity": 0.5669291338582677,
                    "duration": 0.170261
                },
                {
                    "name": "E4",
                    "midi": 64,
                    "time": 25.368888999999967,
                    "velocity": 0.5669291338582677,
                    "duration": 0.25539150000000177
                },
                {
                    "name": "C#4",
                    "midi": 61,
                    "time": 25.539149999999967,
                    "velocity": 0.5039370078740157,
                    "duration": 0.08513050000000177
                },
                {
                    "name": "E3",
                    "midi": 52,
                    "time": 25.79454149999997,
                    "velocity": 0.48031496062992124,
                    "duration": 0.08513050000000177
                },
                {
                    "name": "A3",
                    "midi": 57,
                    "time": 25.87967199999997,
                    "velocity": 0.5669291338582677,
                    "duration": 0.08513049999999822
                },
                {
                    "name": "A2",
                    "midi": 45,
                    "time": 26.049932999999967,
                    "velocity": 0.4409448818897638,
                    "duration": 0.08513049999999822
                },
                {
                    "name": "D5",
                    "midi": 74,
                    "time": 26.390454999999967,
                    "velocity": 0.6377952755905512,
                    "duration": 0.170261
                },
                {
                    "name": "E5",
                    "midi": 76,
                    "time": 26.390454999999967,
                    "velocity": 0.6377952755905512,
                    "duration": 0.25539150000000177
                },
                {
                    "name": "C#5",
                    "midi": 73,
                    "time": 26.560715999999967,
                    "velocity": 0.5826771653543307,
                    "duration": 0.08513050000000177
                },
                {
                    "name": "E4",
                    "midi": 64,
                    "time": 26.81610749999997,
                    "velocity": 0.5433070866141733,
                    "duration": 0.08513050000000177
                },
                {
                    "name": "A4",
                    "midi": 69,
                    "time": 26.90123799999997,
                    "velocity": 0.5984251968503937,
                    "duration": 0.08513049999999822
                },
                {
                    "name": "A3",
                    "midi": 57,
                    "time": 27.071498999999967,
                    "velocity": 0.4330708661417323,
                    "duration": 0.08513049999999822
                },
                {
                    "name": "E6",
                    "midi": 88,
                    "time": 27.412020999999967,
                    "velocity": 0.6614173228346457,
                    "duration": 0.25539150000000177
                },
                {
                    "name": "D6",
                    "midi": 86,
                    "time": 27.412020999999967,
                    "velocity": 0.6614173228346457,
                    "duration": 0.170261
                },
                {
                    "name": "C#6",
                    "midi": 85,
                    "time": 27.582281999999967,
                    "velocity": 0.6299212598425197,
                    "duration": 0.08513050000000177
                },
                {
                    "name": "D5",
                    "midi": 74,
                    "time": 27.92280399999997,
                    "velocity": 0.6299212598425197,
                    "duration": 0.170261
                },
                {
                    "name": "E5",
                    "midi": 76,
                    "time": 27.92280399999997,
                    "velocity": 0.6299212598425197,
                    "duration": 0.25539150000000177
                },
                {
                    "name": "C#5",
                    "midi": 73,
                    "time": 28.09306499999997,
                    "velocity": 0.5354330708661418,
                    "duration": 0.08513050000000177
                },
                {
                    "name": "D4",
                    "midi": 62,
                    "time": 28.433586999999974,
                    "velocity": 0.5354330708661418,
                    "duration": 0.170261
                },
                {
                    "name": "E4",
                    "midi": 64,
                    "time": 28.433586999999974,
                    "velocity": 0.5354330708661418,
                    "duration": 0.25539150000000177
                },
                {
                    "name": "C#4",
                    "midi": 61,
                    "time": 28.603847999999974,
                    "velocity": 0.4409448818897638,
                    "duration": 0.08513050000000177
                },
                {
                    "name": "D3",
                    "midi": 50,
                    "time": 28.944369999999978,
                    "velocity": 0.4330708661417323,
                    "duration": 0.170261
                },
                {
                    "name": "E3",
                    "midi": 52,
                    "time": 28.944369999999978,
                    "velocity": 0.4330708661417323,
                    "duration": 0.25539150000000177
                },
                {
                    "name": "C#3",
                    "midi": 49,
                    "time": 29.114630999999978,
                    "velocity": 0.3464566929133858,
                    "duration": 0.08513050000000177
                },
                {
                    "name": "D5",
                    "midi": 74,
                    "time": 29.45515299999998,
                    "velocity": 0.3779527559055118,
                    "duration": 0.04256524999999911
                },
                {
                    "name": "F5",
                    "midi": 77,
                    "time": 29.49771824999998,
                    "velocity": 0.33858267716535434,
                    "duration": 0.04256524999999911
                },
                {
                    "name": "D5",
                    "midi": 74,
                    "time": 29.54028349999998,
                    "velocity": 0.3779527559055118,
                    "duration": 0.04256524999999911
                },
                {
                    "name": "F5",
                    "midi": 77,
                    "time": 29.58284874999998,
                    "velocity": 0.33858267716535434,
                    "duration": 0.04256524999999911
                },
                {
                    "name": "D5",
                    "midi": 74,
                    "time": 29.625413999999978,
                    "velocity": 0.4330708661417323,
                    "duration": 0.08513049999999822
                },
                {
                    "name": "D4",
                    "midi": 62,
                    "time": 30.136196999999974,
                    "velocity": 0.3937007874015748,
                    "duration": 0.08513050000000177
                },
                {
                    "name": "G5",
                    "midi": 79,
                    "time": 30.476718999999974,
                    "velocity": 0.3937007874015748,
                    "duration": 0.04256524999999911
                },
                {
                    "name": "B5",
                    "midi": 83,
                    "time": 30.519284249999973,
                    "velocity": 0.36220472440944884,
                    "duration": 0.04256524999999911
                },
                {
                    "name": "G5",
                    "midi": 79,
                    "time": 30.561849499999973,
                    "velocity": 0.3937007874015748,
                    "duration": 0.04256524999999911
                },
                {
                    "name": "B5",
                    "midi": 83,
                    "time": 30.60441474999997,
                    "velocity": 0.36220472440944884,
                    "duration": 0.04256524999999911
                },
                {
                    "name": "G5",
                    "midi": 79,
                    "time": 30.64697999999997,
                    "velocity": 0.44881889763779526,
                    "duration": 0.08513050000000177
                },
                {
                    "name": "G4",
                    "midi": 67,
                    "time": 31.157762999999974,
                    "velocity": 0.3543307086614173,
                    "duration": 0.08513050000000177
                },
                {
                    "name": "D5",
                    "midi": 74,
                    "time": 31.498284999999974,
                    "velocity": 0.4330708661417323,
                    "duration": 0.04256524999999911
                },
                {
                    "name": "F5",
                    "midi": 77,
                    "time": 31.540850249999973,
                    "velocity": 0.3858267716535433,
                    "duration": 0.04256524999999911
                },
                {
                    "name": "D5",
                    "midi": 74,
                    "time": 31.583415499999973,
                    "velocity": 0.4330708661417323,
                    "duration": 0.04256524999999911
                },
                {
                    "name": "F5",
                    "midi": 77,
                    "time": 31.62598074999997,
                    "velocity": 0.3937007874015748,
                    "duration": 0.04256524999999911
                },
                {
                    "name": "D5",
                    "midi": 74,
                    "time": 31.66854599999997,
                    "velocity": 0.4566929133858268,
                    "duration": 0.08513049999999822
                },
                {
                    "name": "A#4",
                    "midi": 70,
                    "time": 32.00906799999997,
                    "velocity": 0.4330708661417323,
                    "duration": 0.04256525000000266
                },
                {
                    "name": "D5",
                    "midi": 74,
                    "time": 32.05163324999997,
                    "velocity": 0.4015748031496063,
                    "duration": 0.04256525000000266
                },
                {
                    "name": "A#4",
                    "midi": 70,
                    "time": 32.094198499999976,
                    "velocity": 0.4330708661417323,
                    "duration": 0.04256525000000266
                },
                {
                    "name": "D5",
                    "midi": 74,
                    "time": 32.13676374999998,
                    "velocity": 0.3937007874015748,
                    "duration": 0.04256525000000266
                },
                {
                    "name": "A#4",
                    "midi": 70,
                    "time": 32.17932899999998,
                    "velocity": 0.4881889763779528,
                    "duration": 0.08513049999999822
                },
                {
                    "name": "D5",
                    "midi": 74,
                    "time": 32.51985099999998,
                    "velocity": 0.4409448818897638,
                    "duration": 0.04256525000000266
                },
                {
                    "name": "F5",
                    "midi": 77,
                    "time": 32.562416249999984,
                    "velocity": 0.3937007874015748,
                    "duration": 0.04256525000000266
                },
                {
                    "name": "D5",
                    "midi": 74,
                    "time": 32.60498149999999,
                    "velocity": 0.4409448818897638,
                    "duration": 0.04256525000000266
                },
                {
                    "name": "F5",
                    "midi": 77,
                    "time": 32.64754674999999,
                    "velocity": 0.4015748031496063,
                    "duration": 0.04256525000000266
                },
                {
                    "name": "D5",
                    "midi": 74,
                    "time": 32.69011199999999,
                    "velocity": 0.5039370078740157,
                    "duration": 0.08513049999999822
                },
                {
                    "name": "D4",
                    "midi": 62,
                    "time": 33.20089499999999,
                    "velocity": 0.3937007874015748,
                    "duration": 0.08513049999999822
                },
                {
                    "name": "C#5",
                    "midi": 73,
                    "time": 33.54141699999999,
                    "velocity": 0.4330708661417323,
                    "duration": 0.04256525000000266
                },
                {
                    "name": "F5",
                    "midi": 77,
                    "time": 33.58398224999999,
                    "velocity": 0.3937007874015748,
                    "duration": 0.04256525000000266
                },
                {
                    "name": "C#5",
                    "midi": 73,
                    "time": 33.626547499999994,
                    "velocity": 0.4330708661417323,
                    "duration": 0.04256525000000266
                },
                {
                    "name": "F5",
                    "midi": 77,
                    "time": 33.66911275,
                    "velocity": 0.4015748031496063,
                    "duration": 0.04256525000000266
                },
                {
                    "name": "C#5",
                    "midi": 73,
                    "time": 33.711678,
                    "velocity": 0.5748031496062992,
                    "duration": 0.08513049999999822
                },
                {
                    "name": "C#4",
                    "midi": 61,
                    "time": 34.222460999999996,
                    "velocity": 0.4094488188976378,
                    "duration": 0.08513050000000533
                },
                {
                    "name": "F5",
                    "midi": 77,
                    "time": 34.562983,
                    "velocity": 0.4409448818897638,
                    "duration": 0.04256525000000266
                },
                {
                    "name": "A5",
                    "midi": 81,
                    "time": 34.605548250000005,
                    "velocity": 0.3937007874015748,
                    "duration": 0.04256525000000266
                },
                {
                    "name": "F5",
                    "midi": 77,
                    "time": 34.64811350000001,
                    "velocity": 0.4409448818897638,
                    "duration": 0.04256525000000266
                },
                {
                    "name": "A5",
                    "midi": 81,
                    "time": 34.69067875000001,
                    "velocity": 0.4015748031496063,
                    "duration": 0.04256525000000266
                },
                {
                    "name": "A5",
                    "midi": 81,
                    "time": 34.73324400000001,
                    "velocity": 0.5826771653543307,
                    "duration": 0.08513049999999822
                },
                {
                    "name": "C4",
                    "midi": 60,
                    "time": 35.24402700000001,
                    "velocity": 0.4251968503937008,
                    "duration": 0.08513049999999822
                },
                {
                    "name": "G4",
                    "midi": 67,
                    "time": 35.754810000000006,
                    "velocity": 0.4251968503937008,
                    "duration": 0.08513049999999822
                },
                {
                    "name": "A3",
                    "midi": 57,
                    "time": 35.754810000000006,
                    "velocity": 0.4251968503937008,
                    "duration": 0.08513049999999822
                },
                {
                    "name": "G4",
                    "midi": 67,
                    "time": 36.265593,
                    "velocity": 0.4251968503937008,
                    "duration": 0.08513049999999822
                },
                {
                    "name": "A3",
                    "midi": 57,
                    "time": 36.265593,
                    "velocity": 0.4251968503937008,
                    "duration": 0.08513049999999822
                },
                {
                    "name": "A3",
                    "midi": 57,
                    "time": 37.116898,
                    "velocity": 0.3937007874015748,
                    "duration": 0.17026100000000355
                },
                {
                    "name": "D3",
                    "midi": 50,
                    "time": 37.116898,
                    "velocity": 0.3937007874015748,
                    "duration": 0.17026100000000355
                },
                {
                    "name": "D3",
                    "midi": 50,
                    "time": 37.287159,
                    "velocity": 0.3937007874015748,
                    "duration": 0.17026099999999644
                },
                {
                    "name": "A3",
                    "midi": 57,
                    "time": 37.287159,
                    "velocity": 0.3937007874015748,
                    "duration": 0.17026099999999644
                },
                {
                    "name": "A#2",
                    "midi": 46,
                    "time": 37.627680999999995,
                    "velocity": 0.33070866141732286,
                    "duration": 0.04256525000000266
                },
                {
                    "name": "C3",
                    "midi": 48,
                    "time": 37.67024625,
                    "velocity": 0.33070866141732286,
                    "duration": 0.04256525000000266
                },
                {
                    "name": "A#2",
                    "midi": 46,
                    "time": 37.7128115,
                    "velocity": 0.33070866141732286,
                    "duration": 0.04256525000000266
                },
                {
                    "name": "C3",
                    "midi": 48,
                    "time": 37.75537675,
                    "velocity": 0.33070866141732286,
                    "duration": 0.04256525000000266
                },
                {
                    "name": "A#2",
                    "midi": 46,
                    "time": 37.797942000000006,
                    "velocity": 0.48031496062992124,
                    "duration": 0.8513049999999964
                },
                {
                    "name": "A#2",
                    "midi": 46,
                    "time": 38.649247,
                    "velocity": 0.33858267716535434,
                    "duration": 0.04256525000000266
                },
                {
                    "name": "C3",
                    "midi": 48,
                    "time": 38.691812250000005,
                    "velocity": 0.33858267716535434,
                    "duration": 0.04256525000000266
                },
                {
                    "name": "A#2",
                    "midi": 46,
                    "time": 38.73437750000001,
                    "velocity": 0.33858267716535434,
                    "duration": 0.04256525000000266
                },
                {
                    "name": "C3",
                    "midi": 48,
                    "time": 38.77694275000001,
                    "velocity": 0.33858267716535434,
                    "duration": 0.04256525000000266
                },
                {
                    "name": "A#2",
                    "midi": 46,
                    "time": 38.81950800000001,
                    "velocity": 0.48031496062992124,
                    "duration": 0.8513049999999964
                },
                {
                    "name": "A#2",
                    "midi": 46,
                    "time": 39.67081300000001,
                    "velocity": 0.33070866141732286,
                    "duration": 0.04256525000000266
                },
                {
                    "name": "C3",
                    "midi": 48,
                    "time": 39.71337825000001,
                    "velocity": 0.33070866141732286,
                    "duration": 0.04256525000000266
                },
                {
                    "name": "A#2",
                    "midi": 46,
                    "time": 39.755943500000015,
                    "velocity": 0.33070866141732286,
                    "duration": 0.04256525000000266
                },
                {
                    "name": "C3",
                    "midi": 48,
                    "time": 39.79850875000002,
                    "velocity": 0.31496062992125984,
                    "duration": 0.04256525000000266
                },
                {
                    "name": "A#2",
                    "midi": 46,
                    "time": 39.84107400000002,
                    "velocity": 0.5039370078740157,
                    "duration": 0.17026099999999644
                },
                {
                    "name": "A#2",
                    "midi": 46,
                    "time": 40.096465500000015,
                    "velocity": 0.3543307086614173,
                    "duration": 0.08513049999999822
                },
                {
                    "name": "C3",
                    "midi": 48,
                    "time": 40.18159600000001,
                    "velocity": 0.3543307086614173,
                    "duration": 0.08513049999999822
                },
                {
                    "name": "A#2",
                    "midi": 46,
                    "time": 40.35185700000001,
                    "velocity": 0.49606299212598426,
                    "duration": 0.17026099999999644
                },
                {
                    "name": "A#2",
                    "midi": 46,
                    "time": 40.607248500000004,
                    "velocity": 0.33858267716535434,
                    "duration": 0.08513049999999822
                },
                {
                    "name": "C3",
                    "midi": 48,
                    "time": 40.692379,
                    "velocity": 0.33858267716535434,
                    "duration": 0.08513049999999822
                },
                {
                    "name": "A2",
                    "midi": 45,
                    "time": 40.86264,
                    "velocity": 0.47244094488188976,
                    "duration": 0.681044
                },
                {
                    "name": "F#2",
                    "midi": 42,
                    "time": 41.543684,
                    "velocity": 0.3779527559055118,
                    "duration": 0.08513049999999822
                },
                {
                    "name": "G#2",
                    "midi": 44,
                    "time": 41.713944999999995,
                    "velocity": 0.3779527559055118,
                    "duration": 0.08513049999999822
                },
                {
                    "name": "E2",
                    "midi": 40,
                    "time": 41.88420599999999,
                    "velocity": 0.5039370078740157,
                    "duration": 0.17026099999999644
                },
                {
                    "name": "C#4",
                    "midi": 61,
                    "time": 42.224727999999985,
                    "velocity": 0.5984251968503937,
                    "duration": 0.17026099999999644
                },
                {
                    "name": "E4",
                    "midi": 64,
                    "time": 42.224727999999985,
                    "velocity": 0.5984251968503937,
                    "duration": 0.17026099999999644
                },
                {
                    "name": "D#4",
                    "midi": 63,
                    "time": 42.39498899999998,
                    "velocity": 0.5275590551181102,
                    "duration": 0.08513049999999822
                },
                {
                    "name": "C4",
                    "midi": 60,
                    "time": 42.39498899999998,
                    "velocity": 0.5275590551181102,
                    "duration": 0.08513049999999822
                },
                {
                    "name": "D4",
                    "midi": 62,
                    "time": 42.73551099999998,
                    "velocity": 0.5748031496062992,
                    "duration": 0.17026100000000355
                },
                {
                    "name": "B3",
                    "midi": 59,
                    "time": 42.73551099999998,
                    "velocity": 0.5748031496062992,
                    "duration": 0.17026100000000355
                },
                {
                    "name": "A#3",
                    "midi": 58,
                    "time": 42.905771999999985,
                    "velocity": 0.5275590551181102,
                    "duration": 0.08513049999999822
                },
                {
                    "name": "C#4",
                    "midi": 61,
                    "time": 42.905771999999985,
                    "velocity": 0.5275590551181102,
                    "duration": 0.08513049999999822
                },
                {
                    "name": "C4",
                    "midi": 60,
                    "time": 43.246293999999985,
                    "velocity": 0.5511811023622047,
                    "duration": 0.17026100000000355
                },
                {
                    "name": "A3",
                    "midi": 57,
                    "time": 43.246293999999985,
                    "velocity": 0.5511811023622047,
                    "duration": 0.17026100000000355
                },
                {
                    "name": "B3",
                    "midi": 59,
                    "time": 43.41655499999999,
                    "velocity": 0.4881889763779528,
                    "duration": 0.08513049999999822
                },
                {
                    "name": "G#3",
                    "midi": 56,
                    "time": 43.41655499999999,
                    "velocity": 0.4881889763779528,
                    "duration": 0.08513049999999822
                },
                {
                    "name": "F#3",
                    "midi": 54,
                    "time": 43.75707699999999,
                    "velocity": 0.5354330708661418,
                    "duration": 0.17026100000000355
                },
                {
                    "name": "A3",
                    "midi": 57,
                    "time": 43.75707699999999,
                    "velocity": 0.5354330708661418,
                    "duration": 0.25539150000000177
                },
                {
                    "name": "F3",
                    "midi": 53,
                    "time": 43.92733799999999,
                    "velocity": 0.48031496062992124,
                    "duration": 0.08513049999999822
                },
                {
                    "name": "A3",
                    "midi": 57,
                    "time": 44.26785999999999,
                    "velocity": 0.5039370078740157,
                    "duration": 0.25539150000000177
                },
                {
                    "name": "E3",
                    "midi": 52,
                    "time": 44.26785999999999,
                    "velocity": 0.5039370078740157,
                    "duration": 0.17026100000000355
                },
                {
                    "name": "D#3",
                    "midi": 51,
                    "time": 44.438120999999995,
                    "velocity": 0.4566929133858268,
                    "duration": 0.08513049999999822
                },
                {
                    "name": "D3",
                    "midi": 50,
                    "time": 44.778642999999995,
                    "velocity": 0.4881889763779528,
                    "duration": 0.25539150000000177
                },
                {
                    "name": "E3",
                    "midi": 52,
                    "time": 44.778642999999995,
                    "velocity": 0.4881889763779528,
                    "duration": 0.17026100000000355
                },
                {
                    "name": "C#3",
                    "midi": 49,
                    "time": 44.948904,
                    "velocity": 0.4409448818897638,
                    "duration": 0.08513049999999822
                },
                {
                    "name": "E2",
                    "midi": 40,
                    "time": 45.2042955,
                    "velocity": 0.5275590551181102,
                    "duration": 0.08513049999999822
                },
                {
                    "name": "A2",
                    "midi": 45,
                    "time": 45.289426,
                    "velocity": 0.5905511811023622,
                    "duration": 0.08513049999999822
                },
                {
                    "name": "A1",
                    "midi": 33,
                    "time": 45.459686999999995,
                    "velocity": 0.5039370078740157,
                    "duration": 0.08513049999999822
                },
                {
                    "name": "E4",
                    "midi": 64,
                    "time": 45.800208999999995,
                    "velocity": 0.5669291338582677,
                    "duration": 0.25539149999999466
                },
                {
                    "name": "D4",
                    "midi": 62,
                    "time": 45.800208999999995,
                    "velocity": 0.5669291338582677,
                    "duration": 0.17026099999999644
                },
                {
                    "name": "C#4",
                    "midi": 61,
                    "time": 45.97046999999999,
                    "velocity": 0.5039370078740157,
                    "duration": 0.08513049999999822
                },
                {
                    "name": "E3",
                    "midi": 52,
                    "time": 46.22586149999999,
                    "velocity": 0.48031496062992124,
                    "duration": 0.08513049999999822
                },
                {
                    "name": "A3",
                    "midi": 57,
                    "time": 46.31099199999999,
                    "velocity": 0.5669291338582677,
                    "duration": 0.08513049999999822
                },
                {
                    "name": "A2",
                    "midi": 45,
                    "time": 46.48125299999999,
                    "velocity": 0.4409448818897638,
                    "duration": 0.08513049999999822
                },
                {
                    "name": "D5",
                    "midi": 74,
                    "time": 46.82177499999999,
                    "velocity": 0.6377952755905512,
                    "duration": 0.17026099999999644
                },
                {
                    "name": "E5",
                    "midi": 76,
                    "time": 46.82177499999999,
                    "velocity": 0.6377952755905512,
                    "duration": 0.25539149999999466
                },
                {
                    "name": "C#5",
                    "midi": 73,
                    "time": 46.992035999999985,
                    "velocity": 0.5826771653543307,
                    "duration": 0.08513049999999822
                },
                {
                    "name": "E4",
                    "midi": 64,
                    "time": 47.247427499999986,
                    "velocity": 0.5433070866141733,
                    "duration": 0.08513049999999822
                },
                {
                    "name": "A4",
                    "midi": 69,
                    "time": 47.332557999999985,
                    "velocity": 0.5984251968503937,
                    "duration": 0.08513049999999822
                },
                {
                    "name": "A3",
                    "midi": 57,
                    "time": 47.50281899999998,
                    "velocity": 0.4330708661417323,
                    "duration": 0.08513049999999822
                },
                {
                    "name": "E6",
                    "midi": 88,
                    "time": 47.84334099999998,
                    "velocity": 0.6771653543307087,
                    "duration": 0.25539149999999466
                },
                {
                    "name": "D6",
                    "midi": 86,
                    "time": 47.84334099999998,
                    "velocity": 0.6771653543307087,
                    "duration": 0.17026099999999644
                },
                {
                    "name": "C#6",
                    "midi": 85,
                    "time": 48.01360199999998,
                    "velocity": 0.6299212598425197,
                    "duration": 0.08513049999999822
                },
                {
                    "name": "D5",
                    "midi": 74,
                    "time": 48.35412399999998,
                    "velocity": 0.6299212598425197,
                    "duration": 0.17026100000000355
                },
                {
                    "name": "E5",
                    "midi": 76,
                    "time": 48.35412399999998,
                    "velocity": 0.6299212598425197,
                    "duration": 0.25539150000000177
                },
                {
                    "name": "C#5",
                    "midi": 73,
                    "time": 48.52438499999998,
                    "velocity": 0.5354330708661418,
                    "duration": 0.08513049999999822
                },
                {
                    "name": "E4",
                    "midi": 64,
                    "time": 48.86490699999998,
                    "velocity": 0.5354330708661418,
                    "duration": 0.25539150000000177
                },
                {
                    "name": "D4",
                    "midi": 62,
                    "time": 48.86490699999998,
                    "velocity": 0.5354330708661418,
                    "duration": 0.17026100000000355
                },
                {
                    "name": "C#4",
                    "midi": 61,
                    "time": 49.035167999999985,
                    "velocity": 0.4409448818897638,
                    "duration": 0.08513049999999822
                },
                {
                    "name": "E3",
                    "midi": 52,
                    "time": 49.375689999999985,
                    "velocity": 0.4330708661417323,
                    "duration": 0.25539150000000177
                },
                {
                    "name": "D3",
                    "midi": 50,
                    "time": 49.375689999999985,
                    "velocity": 0.4330708661417323,
                    "duration": 0.17026100000000355
                },
                {
                    "name": "C#3",
                    "midi": 49,
                    "time": 49.54595099999999,
                    "velocity": 0.3464566929133858,
                    "duration": 0.08513049999999822
                },
                {
                    "name": "D5",
                    "midi": 74,
                    "time": 49.88647299999999,
                    "velocity": 0.3779527559055118,
                    "duration": 0.04256525000000266
                },
                {
                    "name": "F5",
                    "midi": 77,
                    "time": 49.92903824999999,
                    "velocity": 0.33858267716535434,
                    "duration": 0.04256525000000266
                },
                {
                    "name": "D5",
                    "midi": 74,
                    "time": 49.97160349999999,
                    "velocity": 0.3779527559055118,
                    "duration": 0.04256525000000266
                },
                {
                    "name": "F5",
                    "midi": 77,
                    "time": 50.014168749999996,
                    "velocity": 0.33858267716535434,
                    "duration": 0.04256525000000266
                },
                {
                    "name": "D5",
                    "midi": 74,
                    "time": 50.056734,
                    "velocity": 0.4330708661417323,
                    "duration": 0.08513049999999822
                },
                {
                    "name": "D4",
                    "midi": 62,
                    "time": 50.567516999999995,
                    "velocity": 0.3937007874015748,
                    "duration": 0.08513049999999822
                },
                {
                    "name": "G5",
                    "midi": 79,
                    "time": 50.908038999999995,
                    "velocity": 0.3937007874015748,
                    "duration": 0.04256525000000266
                },
                {
                    "name": "B5",
                    "midi": 83,
                    "time": 50.95060425,
                    "velocity": 0.36220472440944884,
                    "duration": 0.04256525000000266
                },
                {
                    "name": "G5",
                    "midi": 79,
                    "time": 50.9931695,
                    "velocity": 0.3937007874015748,
                    "duration": 0.04256525000000266
                },
                {
                    "name": "B5",
                    "midi": 83,
                    "time": 51.03573475,
                    "velocity": 0.36220472440944884,
                    "duration": 0.04256525000000266
                },
                {
                    "name": "G5",
                    "midi": 79,
                    "time": 51.078300000000006,
                    "velocity": 0.44881889763779526,
                    "duration": 0.08513050000000533
                },
                {
                    "name": "G4",
                    "midi": 67,
                    "time": 51.58908300000001,
                    "velocity": 0.3543307086614173,
                    "duration": 0.08513049999999822
                },
                {
                    "name": "D5",
                    "midi": 74,
                    "time": 51.92960500000001,
                    "velocity": 0.4330708661417323,
                    "duration": 0.04256525000000266
                },
                {
                    "name": "F5",
                    "midi": 77,
                    "time": 51.97217025000001,
                    "velocity": 0.3858267716535433,
                    "duration": 0.04256525000000266
                },
                {
                    "name": "D5",
                    "midi": 74,
                    "time": 52.014735500000015,
                    "velocity": 0.4330708661417323,
                    "duration": 0.04256525000000266
                },
                {
                    "name": "F5",
                    "midi": 77,
                    "time": 52.05730075000002,
                    "velocity": 0.3937007874015748,
                    "duration": 0.04256525000000266
                },
                {
                    "name": "D5",
                    "midi": 74,
                    "time": 52.09986600000002,
                    "velocity": 0.4566929133858268,
                    "duration": 0.08513049999999822
                },
                {
                    "name": "A#4",
                    "midi": 70,
                    "time": 52.44038800000002,
                    "velocity": 0.4330708661417323,
                    "duration": 0.04256525000000266
                },
                {
                    "name": "D5",
                    "midi": 74,
                    "time": 52.48295325000002,
                    "velocity": 0.4015748031496063,
                    "duration": 0.04256525000000266
                },
                {
                    "name": "A#4",
                    "midi": 70,
                    "time": 52.525518500000025,
                    "velocity": 0.4330708661417323,
                    "duration": 0.04256525000000266
                },
                {
                    "name": "D5",
                    "midi": 74,
                    "time": 52.56808375000003,
                    "velocity": 0.3937007874015748,
                    "duration": 0.04256525000000266
                },
                {
                    "name": "A#4",
                    "midi": 70,
                    "time": 52.61064900000003,
                    "velocity": 0.4881889763779528,
                    "duration": 0.08513049999999822
                },
                {
                    "name": "D5",
                    "midi": 74,
                    "time": 52.95117100000003,
                    "velocity": 0.4409448818897638,
                    "duration": 0.04256525000000266
                },
                {
                    "name": "F5",
                    "midi": 77,
                    "time": 52.99373625000003,
                    "velocity": 0.3937007874015748,
                    "duration": 0.04256525000000266
                },
                {
                    "name": "D5",
                    "midi": 74,
                    "time": 53.036301500000036,
                    "velocity": 0.4409448818897638,
                    "duration": 0.04256525000000266
                },
                {
                    "name": "F5",
                    "midi": 77,
                    "time": 53.07886675000004,
                    "velocity": 0.4015748031496063,
                    "duration": 0.04256525000000266
                },
                {
                    "name": "D5",
                    "midi": 74,
                    "time": 53.12143200000004,
                    "velocity": 0.5039370078740157,
                    "duration": 0.08513049999999822
                },
                {
                    "name": "D4",
                    "midi": 62,
                    "time": 53.63221500000004,
                    "velocity": 0.3937007874015748,
                    "duration": 0.08513049999999822
                },
                {
                    "name": "C#5",
                    "midi": 73,
                    "time": 53.97273700000004,
                    "velocity": 0.4330708661417323,
                    "duration": 0.04256525000000266
                },
                {
                    "name": "F5",
                    "midi": 77,
                    "time": 54.01530225000004,
                    "velocity": 0.3937007874015748,
                    "duration": 0.04256525000000266
                },
                {
                    "name": "C#5",
                    "midi": 73,
                    "time": 54.05786750000004,
                    "velocity": 0.4330708661417323,
                    "duration": 0.04256525000000266
                },
                {
                    "name": "F5",
                    "midi": 77,
                    "time": 54.100432750000046,
                    "velocity": 0.4015748031496063,
                    "duration": 0.04256525000000266
                },
                {
                    "name": "C#5",
                    "midi": 73,
                    "time": 54.14299800000005,
                    "velocity": 0.5748031496062992,
                    "duration": 0.08513049999999822
                },
                {
                    "name": "C#4",
                    "midi": 61,
                    "time": 54.653781000000045,
                    "velocity": 0.4094488188976378,
                    "duration": 0.08513050000000533
                },
                {
                    "name": "F5",
                    "midi": 77,
                    "time": 54.99430300000005,
                    "velocity": 0.4409448818897638,
                    "duration": 0.04256525000000266
                },
                {
                    "name": "A5",
                    "midi": 81,
                    "time": 55.036868250000055,
                    "velocity": 0.3937007874015748,
                    "duration": 0.04256525000000266
                },
                {
                    "name": "F5",
                    "midi": 77,
                    "time": 55.07943350000006,
                    "velocity": 0.4409448818897638,
                    "duration": 0.04256525000000266
                },
                {
                    "name": "A5",
                    "midi": 81,
                    "time": 55.12199875000006,
                    "velocity": 0.4015748031496063,
                    "duration": 0.04256525000000266
                },
                {
                    "name": "A5",
                    "midi": 81,
                    "time": 55.16456400000006,
                    "velocity": 0.5826771653543307,
                    "duration": 0.08513049999999822
                },
                {
                    "name": "C4",
                    "midi": 60,
                    "time": 55.67534700000006,
                    "velocity": 0.4251968503937008,
                    "duration": 0.08513049999999822
                },
                {
                    "name": "A3",
                    "midi": 57,
                    "time": 56.186130000000055,
                    "velocity": 0.4251968503937008,
                    "duration": 0.08513049999999822
                },
                {
                    "name": "G4",
                    "midi": 67,
                    "time": 56.186130000000055,
                    "velocity": 0.4251968503937008,
                    "duration": 0.08513049999999822
                },
                {
                    "name": "A3",
                    "midi": 57,
                    "time": 56.69691300000005,
                    "velocity": 0.4251968503937008,
                    "duration": 0.08513049999999822
                },
                {
                    "name": "G4",
                    "midi": 67,
                    "time": 56.69691300000005,
                    "velocity": 0.4251968503937008,
                    "duration": 0.08513049999999822
                },
                {
                    "name": "A3",
                    "midi": 57,
                    "time": 57.54821800000005,
                    "velocity": 0.3937007874015748,
                    "duration": 0.17026099999999644
                },
                {
                    "name": "D3",
                    "midi": 50,
                    "time": 57.54821800000005,
                    "velocity": 0.3937007874015748,
                    "duration": 0.17026099999999644
                },
                {
                    "name": "D3",
                    "midi": 50,
                    "time": 57.718479000000045,
                    "velocity": 0.3937007874015748,
                    "duration": 0.17026099999999644
                },
                {
                    "name": "A3",
                    "midi": 57,
                    "time": 57.718479000000045,
                    "velocity": 0.3937007874015748,
                    "duration": 0.17026099999999644
                },
                {
                    "name": "D#2",
                    "midi": 39,
                    "time": 58.05900100000004,
                    "velocity": 0.3543307086614173,
                    "duration": 0.04256525000000266
                },
                {
                    "name": "F2",
                    "midi": 41,
                    "time": 58.10156625000004,
                    "velocity": 0.3543307086614173,
                    "duration": 0.04256525000000266
                },
                {
                    "name": "D#2",
                    "midi": 39,
                    "time": 58.14413150000004,
                    "velocity": 0.3543307086614173,
                    "duration": 0.04256525000000266
                },
                {
                    "name": "F2",
                    "midi": 41,
                    "time": 58.186696750000046,
                    "velocity": 0.3543307086614173,
                    "duration": 0.04256525000000266
                },
                {
                    "name": "D#2",
                    "midi": 39,
                    "time": 58.22926200000005,
                    "velocity": 0.5984251968503937,
                    "duration": 0.8513049999999964
                },
                {
                    "name": "D#2",
                    "midi": 39,
                    "time": 59.080567000000045,
                    "velocity": 0.3543307086614173,
                    "duration": 0.04256525000000266
                },
                {
                    "name": "F2",
                    "midi": 41,
                    "time": 59.12313225000005,
                    "velocity": 0.3543307086614173,
                    "duration": 0.04256525000000266
                },
                {
                    "name": "D#2",
                    "midi": 39,
                    "time": 59.16569750000005,
                    "velocity": 0.3543307086614173,
                    "duration": 0.04256525000000266
                },
                {
                    "name": "F2",
                    "midi": 41,
                    "time": 59.20826275000005,
                    "velocity": 0.3543307086614173,
                    "duration": 0.04256525000000266
                },
                {
                    "name": "D#2",
                    "midi": 39,
                    "time": 59.250828000000055,
                    "velocity": 0.5984251968503937,
                    "duration": 0.8513049999999964
                },
                {
                    "name": "D#2",
                    "midi": 39,
                    "time": 60.10213300000005,
                    "velocity": 0.33070866141732286,
                    "duration": 0.04256525000000266
                },
                {
                    "name": "F2",
                    "midi": 41,
                    "time": 60.144698250000054,
                    "velocity": 0.33070866141732286,
                    "duration": 0.04256525000000266
                },
                {
                    "name": "D#2",
                    "midi": 39,
                    "time": 60.18726350000006,
                    "velocity": 0.33070866141732286,
                    "duration": 0.04256525000000266
                },
                {
                    "name": "F2",
                    "midi": 41,
                    "time": 60.22982875000006,
                    "velocity": 0.33070866141732286,
                    "duration": 0.04256525000000266
                },
                {
                    "name": "D#2",
                    "midi": 39,
                    "time": 60.27239400000006,
                    "velocity": 0.5905511811023622,
                    "duration": 0.17026099999999644
                },
                {
                    "name": "D#2",
                    "midi": 39,
                    "time": 60.52778550000006,
                    "velocity": 0.44881889763779526,
                    "duration": 0.08513049999999822
                },
                {
                    "name": "F2",
                    "midi": 41,
                    "time": 60.612916000000055,
                    "velocity": 0.44881889763779526,
                    "duration": 0.08513049999999822
                },
                {
                    "name": "D#2",
                    "midi": 39,
                    "time": 60.78317700000005,
                    "velocity": 0.5826771653543307,
                    "duration": 0.17026099999999644
                },
                {
                    "name": "D#2",
                    "midi": 39,
                    "time": 61.038568500000046,
                    "velocity": 0.4251968503937008,
                    "duration": 0.08513049999999822
                },
                {
                    "name": "F2",
                    "midi": 41,
                    "time": 61.123699000000045,
                    "velocity": 0.4251968503937008,
                    "duration": 0.08513049999999822
                },
                {
                    "name": "D#2",
                    "midi": 39,
                    "time": 61.29396000000004,
                    "velocity": 0.5039370078740157,
                    "duration": 0.17026099999999644
                },
                {
                    "name": "D#2",
                    "midi": 39,
                    "time": 61.549351500000036,
                    "velocity": 0.3543307086614173,
                    "duration": 0.08513049999999822
                },
                {
                    "name": "F2",
                    "midi": 41,
                    "time": 61.634482000000034,
                    "velocity": 0.3543307086614173,
                    "duration": 0.08513049999999822
                },
                {
                    "name": "D#2",
                    "midi": 39,
                    "time": 61.80474300000003,
                    "velocity": 0.4330708661417323,
                    "duration": 0.17026099999999644
                },
                {
                    "name": "D#2",
                    "midi": 39,
                    "time": 62.060134500000025,
                    "velocity": 0.28346456692913385,
                    "duration": 0.08513049999999822
                },
                {
                    "name": "F2",
                    "midi": 41,
                    "time": 62.14526500000002,
                    "velocity": 0.28346456692913385,
                    "duration": 0.08513049999999822
                },
                {
                    "name": "D2",
                    "midi": 38,
                    "time": 62.31552600000002,
                    "velocity": 0.3858267716535433,
                    "duration": 0.17026099999999644
                },
                {
                    "name": "A2",
                    "midi": 45,
                    "time": 62.570917500000014,
                    "velocity": 0.29133858267716534,
                    "duration": 0.08513049999999822
                },
                {
                    "name": "D3",
                    "midi": 50,
                    "time": 62.65604800000001,
                    "velocity": 0.29133858267716534,
                    "duration": 0.08513049999999822
                },
                {
                    "name": "F#3",
                    "midi": 54,
                    "time": 62.82630900000001,
                    "velocity": 0.33858267716535434,
                    "duration": 0.08513049999999822
                },
                {
                    "name": "A3",
                    "midi": 57,
                    "time": 63.08170050000001,
                    "velocity": 0.30708661417322836,
                    "duration": 0.08513049999999822
                },
                {
                    "name": "D4",
                    "midi": 62,
                    "time": 63.16683100000001,
                    "velocity": 0.30708661417322836,
                    "duration": 0.08513049999999822
                },
                {
                    "name": "F#4",
                    "midi": 66,
                    "time": 63.337092000000005,
                    "velocity": 0.3464566929133858,
                    "duration": 0.08513049999999822
                },
                {
                    "name": "A3",
                    "midi": 57,
                    "time": 63.5924835,
                    "velocity": 0.33070866141732286,
                    "duration": 0.08513049999999822
                },
                {
                    "name": "D4",
                    "midi": 62,
                    "time": 63.677614,
                    "velocity": 0.33070866141732286,
                    "duration": 0.08513049999999822
                },
                {
                    "name": "F#4",
                    "midi": 66,
                    "time": 63.847874999999995,
                    "velocity": 0.3543307086614173,
                    "duration": 0.08513049999999822
                },
                {
                    "name": "A4",
                    "midi": 69,
                    "time": 64.10326649999999,
                    "velocity": 0.33070866141732286,
                    "duration": 0.08513050000000533
                },
                {
                    "name": "D5",
                    "midi": 74,
                    "time": 64.188397,
                    "velocity": 0.33070866141732286,
                    "duration": 0.08513050000000533
                },
                {
                    "name": "F#5",
                    "midi": 78,
                    "time": 64.358658,
                    "velocity": 0.33858267716535434,
                    "duration": 0.08513050000000533
                },
                {
                    "name": "A1",
                    "midi": 33,
                    "time": 64.86944100000001,
                    "velocity": 0.2992125984251969,
                    "duration": 0.08513050000000533
                },
                {
                    "name": "A2",
                    "midi": 45,
                    "time": 64.86944100000001,
                    "velocity": 0.2992125984251969,
                    "duration": 0.08513050000000533
                },
                {
                    "name": "D1",
                    "midi": 26,
                    "time": 65.38022400000003,
                    "velocity": 0.2992125984251969,
                    "duration": 0.08513050000000533
                },
                {
                    "name": "D2",
                    "midi": 38,
                    "time": 65.38022400000003,
                    "velocity": 0.2992125984251969,
                    "duration": 0.08513050000000533
                }
            ],
            "controlChanges": {
                "7": [
                    {
                        "number": 7,
                        "time": 0,
                        "value": 0.7874015748031497
                    }
                ],
                "10": [
                    {
                        "number": 10,
                        "time": 0,
                        "value": 0.5039370078740157
                    }
                ],
                "64": [
                    {
                        "number": 64,
                        "time": 0,
                        "value": 0
                    },
                    {
                        "number": 64,
                        "time": 0.851305,
                        "value": 0
                    },
                    {
                        "number": 64,
                        "time": 1.0456863083333332,
                        "value": 1
                    },
                    {
                        "number": 64,
                        "time": 1.5664012,
                        "value": 0
                    },
                    {
                        "number": 64,
                        "time": 2.0707994125,
                        "value": 1
                    },
                    {
                        "number": 64,
                        "time": 2.5908048833333335,
                        "value": 0
                    },
                    {
                        "number": 64,
                        "time": 4.118897358333333,
                        "value": 1
                    },
                    {
                        "number": 64,
                        "time": 4.6481253,
                        "value": 0
                    },
                    {
                        "number": 64,
                        "time": 5.132659729166667,
                        "value": 1
                    },
                    {
                        "number": 64,
                        "time": 5.658340566666666,
                        "value": 0
                    },
                    {
                        "number": 64,
                        "time": 6.1655764625,
                        "value": 1
                    },
                    {
                        "number": 64,
                        "time": 6.694094983333333,
                        "value": 0
                    },
                    {
                        "number": 64,
                        "time": 8.172528,
                        "value": 1
                    },
                    {
                        "number": 64,
                        "time": 8.853572,
                        "value": 0
                    },
                    {
                        "number": 64,
                        "time": 9.222470833333329,
                        "value": 1
                    },
                    {
                        "number": 64,
                        "time": 9.738929199999996,
                        "value": 0
                    },
                    {
                        "number": 64,
                        "time": 10.243327412499992,
                        "value": 1
                    },
                    {
                        "number": 64,
                        "time": 10.763332883333327,
                        "value": 0
                    },
                    {
                        "number": 64,
                        "time": 12.286459412499982,
                        "value": 1
                    },
                    {
                        "number": 64,
                        "time": 12.820653299999982,
                        "value": 0
                    },
                    {
                        "number": 64,
                        "time": 13.305187729166645,
                        "value": 1
                    },
                    {
                        "number": 64,
                        "time": 13.830868566666645,
                        "value": 0
                    },
                    {
                        "number": 64,
                        "time": 14.354421141666641,
                        "value": 1
                    },
                    {
                        "number": 64,
                        "time": 14.866622983333308,
                        "value": 0
                    },
                    {
                        "number": 64,
                        "time": 16.345055999999975,
                        "value": 1
                    },
                    {
                        "number": 64,
                        "time": 17.026099999999975,
                        "value": 0
                    },
                    {
                        "number": 64,
                        "time": 29.637474154166643,
                        "value": 1
                    },
                    {
                        "number": 64,
                        "time": 30.170249199999976,
                        "value": 0
                    },
                    {
                        "number": 64,
                        "time": 30.66329667916664,
                        "value": 1
                    },
                    {
                        "number": 64,
                        "time": 31.19465288333331,
                        "value": 0
                    },
                    {
                        "number": 64,
                        "time": 32.706428679166656,
                        "value": 1
                    },
                    {
                        "number": 64,
                        "time": 33.25197329999999,
                        "value": 0
                    },
                    {
                        "number": 64,
                        "time": 33.711678,
                        "value": 1
                    },
                    {
                        "number": 64,
                        "time": 34.262188566666666,
                        "value": 0
                    },
                    {
                        "number": 64,
                        "time": 34.73324400000001,
                        "value": 1
                    },
                    {
                        "number": 64,
                        "time": 35.29794298333334,
                        "value": 0
                    },
                    {
                        "number": 64,
                        "time": 35.754810000000006,
                        "value": 1
                    },
                    {
                        "number": 64,
                        "time": 36.4848040375,
                        "value": 0
                    },
                    {
                        "number": 64,
                        "time": 36.776376,
                        "value": 1
                    },
                    {
                        "number": 64,
                        "time": 37.45742,
                        "value": 0
                    },
                    {
                        "number": 64,
                        "time": 50.08085430833333,
                        "value": 1
                    },
                    {
                        "number": 64,
                        "time": 50.60156919999999,
                        "value": 0
                    },
                    {
                        "number": 64,
                        "time": 51.092488416666676,
                        "value": 1
                    },
                    {
                        "number": 64,
                        "time": 51.62597288333334,
                        "value": 0
                    },
                    {
                        "number": 64,
                        "time": 53.137748679166705,
                        "value": 1
                    },
                    {
                        "number": 64,
                        "time": 53.68329330000004,
                        "value": 0
                    },
                    {
                        "number": 64,
                        "time": 54.161442941666714,
                        "value": 1
                    },
                    {
                        "number": 64,
                        "time": 54.693508566666715,
                        "value": 0
                    },
                    {
                        "number": 64,
                        "time": 55.16456400000006,
                        "value": 1
                    },
                    {
                        "number": 64,
                        "time": 55.72926298333339,
                        "value": 0
                    },
                    {
                        "number": 64,
                        "time": 56.186130000000055,
                        "value": 1
                    },
                    {
                        "number": 64,
                        "time": 56.90761098750005,
                        "value": 0
                    },
                    {
                        "number": 64,
                        "time": 57.20769600000005,
                        "value": 1
                    },
                    {
                        "number": 64,
                        "time": 57.88874000000004,
                        "value": 0
                    },
                    {
                        "number": 64,
                        "time": 62.31552600000002,
                        "value": 1
                    },
                    {
                        "number": 64,
                        "time": 64.52608131666668,
                        "value": 0
                    },
                    {
                        "number": 64,
                        "time": 64.86944100000001,
                        "value": 1
                    },
                    {
                        "number": 64,
                        "time": 65.05956578333335,
                        "value": 0
                    },
                    {
                        "number": 64,
                        "time": 65.38022400000003,
                        "value": 1
                    },
                    {
                        "number": 64,
                        "time": 65.57034878333337,
                        "value": 0
                    }
                ],
                "91": [
                    {
                        "number": 91,
                        "time": 0.8484673166666666,
                        "value": 1
                    },
                    {
                        "number": 91,
                        "time": 21.45288599999995,
                        "value": 1
                    },
                    {
                        "number": 91,
                        "time": 37.627680999999995,
                        "value": 1
                    },
                    {
                        "number": 91,
                        "time": 41.88420599999999,
                        "value": 1
                    }
                ]
            },
            "id": 2,
            "name": "Piano left",
            "instrumentNumber": 0,
            "instrument": "acoustic grand piano",
            "instrumentFamily": "piano",
            "channelNumber": 0,
            "isPercussion": false
        },
        {
            "startTime": 0,
            "duration": 0,
            "length": 0,
            "notes": [],
            "controlChanges": {},
            "id": 3,
            "name": "Grieg: Vöglein, Op. 43 No. 4"
        },
        {
            "startTime": 0,
            "duration": 0,
            "length": 0,
            "notes": [],
            "controlChanges": {},
            "id": 4,
            "name": "Copyright © 1998 by Bernd Krueger"
        },
        {
            "startTime": 0,
            "duration": 0,
            "length": 0,
            "notes": [],
            "controlChanges": {},
            "id": 5,
            "name": "http://www.piano-midi.de"
        },
        {
            "startTime": 0,
            "duration": 0,
            "length": 0,
            "notes": [],
            "controlChanges": {},
            "id": 6,
            "name": "Edition: 2012-11-06"
        }
    ]
}