{
    "header": {
        "PPQ": 480,
        "timeSignature": [
            6,
            8
        ],
        "bpm": 100,
        "name": "Grieg: Lyrische Stücke Op. 43 Nr. 2 - Einsamer Wanderer"
    },
    "startTime": 0,
    "duration": 55.19999999999994,
    "tracks": [
        {
            "startTime": 0,
            "duration": 0,
            "length": 0,
            "notes": [],
            "controlChanges": {},
            "id": 0,
            "name": "Grieg: Lyrische Stücke Op. 43 Nr. 2 - Einsamer Wanderer"
        },
        {
            "startTime": 1.5,
            "duration": 55.19999999999991,
            "length": 264,
            "notes": [
                {
                    "name": "D4",
                    "midi": 62,
                    "time": 1.5,
                    "velocity": 0.47244094488188976,
                    "duration": 1.7999999999999998
                },
                {
                    "name": "B4",
                    "midi": 71,
                    "time": 1.5,
                    "velocity": 0.47244094488188976,
                    "duration": 0.30000000000000004
                },
                {
                    "name": "A4",
                    "midi": 69,
                    "time": 1.8,
                    "velocity": 0.5039370078740157,
                    "duration": 0.44999999999999996
                },
                {
                    "name": "G4",
                    "midi": 67,
                    "time": 2.25,
                    "velocity": 0.4015748031496063,
                    "duration": 0.1499999999999999
                },
                {
                    "name": "F#4",
                    "midi": 66,
                    "time": 2.4,
                    "velocity": 0.3858267716535433,
                    "duration": 0.2999999999999998
                },
                {
                    "name": "F#4",
                    "midi": 66,
                    "time": 2.6999999999999997,
                    "velocity": 0.41732283464566927,
                    "duration": 0.6000000000000001
                },
                {
                    "name": "D4",
                    "midi": 62,
                    "time": 3.3,
                    "velocity": 0.47244094488188976,
                    "duration": 1.7999999999999998
                },
                {
                    "name": "B4",
                    "midi": 71,
                    "time": 3.3,
                    "velocity": 0.47244094488188976,
                    "duration": 0.1499999999999999
                },
                {
                    "name": "A4",
                    "midi": 69,
                    "time": 3.4499999999999997,
                    "velocity": 0.4094488188976378,
                    "duration": 0.07500000000000018
                },
                {
                    "name": "B4",
                    "midi": 71,
                    "time": 3.525,
                    "velocity": 0.4094488188976378,
                    "duration": 0.07500000000000018
                },
                {
                    "name": "A4",
                    "midi": 69,
                    "time": 3.6,
                    "velocity": 0.4881889763779528,
                    "duration": 0.44999999999999973
                },
                {
                    "name": "G4",
                    "midi": 67,
                    "time": 4.05,
                    "velocity": 0.4015748031496063,
                    "duration": 0.15000000000000036
                },
                {
                    "name": "F#4",
                    "midi": 66,
                    "time": 4.2,
                    "velocity": 0.4330708661417323,
                    "duration": 0.2999999999999998
                },
                {
                    "name": "F#4",
                    "midi": 66,
                    "time": 4.5,
                    "velocity": 0.41732283464566927,
                    "duration": 0.5999999999999996
                },
                {
                    "name": "D4",
                    "midi": 62,
                    "time": 5.1,
                    "velocity": 0.3858267716535433,
                    "duration": 0.15000000000000036
                },
                {
                    "name": "E4",
                    "midi": 64,
                    "time": 5.25,
                    "velocity": 0.4094488188976378,
                    "duration": 0.15000000000000036
                },
                {
                    "name": "B3",
                    "midi": 59,
                    "time": 5.4,
                    "velocity": 0.4330708661417323,
                    "duration": 0.9000000000000004
                },
                {
                    "name": "F#4",
                    "midi": 66,
                    "time": 5.4,
                    "velocity": 0.4330708661417323,
                    "duration": 0.9000000000000004
                },
                {
                    "name": "A#3",
                    "midi": 58,
                    "time": 6.300000000000001,
                    "velocity": 0.41732283464566927,
                    "duration": 0.4500000000000002
                },
                {
                    "name": "F#4",
                    "midi": 66,
                    "time": 6.300000000000001,
                    "velocity": 0.41732283464566927,
                    "duration": 0.4500000000000002
                },
                {
                    "name": "C#4",
                    "midi": 61,
                    "time": 6.750000000000001,
                    "velocity": 0.4015748031496063,
                    "duration": 0.15000000000000036
                },
                {
                    "name": "A#4",
                    "midi": 70,
                    "time": 6.750000000000001,
                    "velocity": 0.4015748031496063,
                    "duration": 0.15000000000000036
                },
                {
                    "name": "E4",
                    "midi": 64,
                    "time": 6.900000000000001,
                    "velocity": 0.4251968503937008,
                    "duration": 0.15000000000000036
                },
                {
                    "name": "C#5",
                    "midi": 73,
                    "time": 6.900000000000001,
                    "velocity": 0.4251968503937008,
                    "duration": 0.15000000000000036
                },
                {
                    "name": "F#4",
                    "midi": 66,
                    "time": 7.050000000000002,
                    "velocity": 0.4409448818897638,
                    "duration": 0.15000000000000036
                },
                {
                    "name": "D5",
                    "midi": 74,
                    "time": 7.050000000000002,
                    "velocity": 0.4409448818897638,
                    "duration": 0.15000000000000036
                },
                {
                    "name": "E4",
                    "midi": 64,
                    "time": 7.200000000000002,
                    "velocity": 0.4094488188976378,
                    "duration": 0.2999999999999998
                },
                {
                    "name": "C#5",
                    "midi": 73,
                    "time": 7.200000000000002,
                    "velocity": 0.4094488188976378,
                    "duration": 0.2999999999999998
                },
                {
                    "name": "D4",
                    "midi": 62,
                    "time": 7.500000000000002,
                    "velocity": 0.3543307086614173,
                    "duration": 0.9000000000000004
                },
                {
                    "name": "B4",
                    "midi": 71,
                    "time": 7.500000000000002,
                    "velocity": 0.3543307086614173,
                    "duration": 0.9000000000000004
                },
                {
                    "name": "F#4",
                    "midi": 66,
                    "time": 8.700000000000003,
                    "velocity": 0.47244094488188976,
                    "duration": 1.8000000000000007
                },
                {
                    "name": "D5",
                    "midi": 74,
                    "time": 8.700000000000003,
                    "velocity": 0.47244094488188976,
                    "duration": 0.3000000000000007
                },
                {
                    "name": "C#5",
                    "midi": 73,
                    "time": 9.000000000000004,
                    "velocity": 0.5590551181102362,
                    "duration": 0.4499999999999993
                },
                {
                    "name": "B4",
                    "midi": 71,
                    "time": 9.450000000000003,
                    "velocity": 0.4330708661417323,
                    "duration": 0.15000000000000036
                },
                {
                    "name": "A4",
                    "midi": 69,
                    "time": 9.600000000000003,
                    "velocity": 0.44881889763779526,
                    "duration": 0.3000000000000007
                },
                {
                    "name": "A4",
                    "midi": 69,
                    "time": 9.900000000000004,
                    "velocity": 0.4645669291338583,
                    "duration": 0.5999999999999996
                },
                {
                    "name": "F#4",
                    "midi": 66,
                    "time": 10.500000000000004,
                    "velocity": 0.47244094488188976,
                    "duration": 1.799999999999999
                },
                {
                    "name": "D5",
                    "midi": 74,
                    "time": 10.500000000000004,
                    "velocity": 0.47244094488188976,
                    "duration": 0.15000000000000036
                },
                {
                    "name": "C#5",
                    "midi": 73,
                    "time": 10.650000000000004,
                    "velocity": 0.4645669291338583,
                    "duration": 0.07499999999999929
                },
                {
                    "name": "D5",
                    "midi": 74,
                    "time": 10.725000000000003,
                    "velocity": 0.4881889763779528,
                    "duration": 0.07499999999999929
                },
                {
                    "name": "C#5",
                    "midi": 73,
                    "time": 10.800000000000002,
                    "velocity": 0.5275590551181102,
                    "duration": 0.4499999999999993
                },
                {
                    "name": "B4",
                    "midi": 71,
                    "time": 11.250000000000002,
                    "velocity": 0.4409448818897638,
                    "duration": 0.15000000000000036
                },
                {
                    "name": "A4",
                    "midi": 69,
                    "time": 11.400000000000002,
                    "velocity": 0.48031496062992124,
                    "duration": 0.3000000000000007
                },
                {
                    "name": "A4",
                    "midi": 69,
                    "time": 11.700000000000003,
                    "velocity": 0.4566929133858268,
                    "duration": 0.5999999999999996
                },
                {
                    "name": "F#4",
                    "midi": 66,
                    "time": 12.300000000000002,
                    "velocity": 0.3858267716535433,
                    "duration": 0.15000000000000036
                },
                {
                    "name": "G4",
                    "midi": 67,
                    "time": 12.450000000000003,
                    "velocity": 0.4330708661417323,
                    "duration": 0.15000000000000036
                },
                {
                    "name": "D4",
                    "midi": 62,
                    "time": 12.600000000000003,
                    "velocity": 0.47244094488188976,
                    "duration": 0.9000000000000004
                },
                {
                    "name": "A4",
                    "midi": 69,
                    "time": 12.600000000000003,
                    "velocity": 0.47244094488188976,
                    "duration": 0.9000000000000004
                },
                {
                    "name": "C#4",
                    "midi": 61,
                    "time": 13.500000000000004,
                    "velocity": 0.4645669291338583,
                    "duration": 0.4499999999999993
                },
                {
                    "name": "A4",
                    "midi": 69,
                    "time": 13.500000000000004,
                    "velocity": 0.4645669291338583,
                    "duration": 0.4499999999999993
                },
                {
                    "name": "E4",
                    "midi": 64,
                    "time": 13.950000000000003,
                    "velocity": 0.4251968503937008,
                    "duration": 0.15000000000000036
                },
                {
                    "name": "C#5",
                    "midi": 73,
                    "time": 13.950000000000003,
                    "velocity": 0.4251968503937008,
                    "duration": 0.15000000000000036
                },
                {
                    "name": "G4",
                    "midi": 67,
                    "time": 14.100000000000003,
                    "velocity": 0.44881889763779526,
                    "duration": 0.15000000000000036
                },
                {
                    "name": "E5",
                    "midi": 76,
                    "time": 14.100000000000003,
                    "velocity": 0.44881889763779526,
                    "duration": 0.15000000000000036
                },
                {
                    "name": "A4",
                    "midi": 69,
                    "time": 14.250000000000004,
                    "velocity": 0.47244094488188976,
                    "duration": 0.15000000000000036
                },
                {
                    "name": "F#5",
                    "midi": 78,
                    "time": 14.250000000000004,
                    "velocity": 0.47244094488188976,
                    "duration": 0.15000000000000036
                },
                {
                    "name": "G4",
                    "midi": 67,
                    "time": 14.400000000000004,
                    "velocity": 0.4409448818897638,
                    "duration": 0.3000000000000007
                },
                {
                    "name": "E5",
                    "midi": 76,
                    "time": 14.400000000000004,
                    "velocity": 0.4409448818897638,
                    "duration": 0.3000000000000007
                },
                {
                    "name": "F#4",
                    "midi": 66,
                    "time": 14.700000000000005,
                    "velocity": 0.3779527559055118,
                    "duration": 0.9000000000000004
                },
                {
                    "name": "D5",
                    "midi": 74,
                    "time": 14.700000000000005,
                    "velocity": 0.3779527559055118,
                    "duration": 0.9000000000000004
                },
                {
                    "name": "F#5",
                    "midi": 78,
                    "time": 15.900000000000006,
                    "velocity": 0.49606299212598426,
                    "duration": 0.3000000000000007
                },
                {
                    "name": "G4",
                    "midi": 67,
                    "time": 16.200000000000006,
                    "velocity": 0.31496062992125984,
                    "duration": 0.8999999999999986
                },
                {
                    "name": "A#4",
                    "midi": 70,
                    "time": 16.200000000000006,
                    "velocity": 0.36220472440944884,
                    "duration": 0.8999999999999986
                },
                {
                    "name": "E5",
                    "midi": 76,
                    "time": 16.200000000000006,
                    "velocity": 0.5196850393700787,
                    "duration": 0.4499999999999993
                },
                {
                    "name": "D5",
                    "midi": 74,
                    "time": 16.650000000000006,
                    "velocity": 0.4566929133858268,
                    "duration": 0.14999999999999858
                },
                {
                    "name": "C#5",
                    "midi": 73,
                    "time": 16.800000000000004,
                    "velocity": 0.49606299212598426,
                    "duration": 0.3000000000000007
                },
                {
                    "name": "F4",
                    "midi": 65,
                    "time": 17.100000000000005,
                    "velocity": 0.31496062992125984,
                    "duration": 0.8999999999999986
                },
                {
                    "name": "G#4",
                    "midi": 68,
                    "time": 17.100000000000005,
                    "velocity": 0.3543307086614173,
                    "duration": 0.8999999999999986
                },
                {
                    "name": "D5",
                    "midi": 74,
                    "time": 17.100000000000005,
                    "velocity": 0.5275590551181102,
                    "duration": 0.4499999999999993
                },
                {
                    "name": "B4",
                    "midi": 71,
                    "time": 17.550000000000004,
                    "velocity": 0.4566929133858268,
                    "duration": 0.14999999999999858
                },
                {
                    "name": "D5",
                    "midi": 74,
                    "time": 17.700000000000003,
                    "velocity": 0.47244094488188976,
                    "duration": 0.3000000000000007
                },
                {
                    "name": "F#4",
                    "midi": 66,
                    "time": 18.000000000000004,
                    "velocity": 0.4409448818897638,
                    "duration": 1.5
                },
                {
                    "name": "A#4",
                    "midi": 70,
                    "time": 18.000000000000004,
                    "velocity": 0.4409448818897638,
                    "duration": 1.5
                },
                {
                    "name": "C#5",
                    "midi": 73,
                    "time": 18.000000000000004,
                    "velocity": 0.4566929133858268,
                    "duration": 1.5
                },
                {
                    "name": "F#5",
                    "midi": 78,
                    "time": 19.500000000000004,
                    "velocity": 0.49606299212598426,
                    "duration": 0.3000000000000007
                },
                {
                    "name": "G4",
                    "midi": 67,
                    "time": 19.800000000000004,
                    "velocity": 0.31496062992125984,
                    "duration": 0.899999999999995
                },
                {
                    "name": "A#4",
                    "midi": 70,
                    "time": 19.800000000000004,
                    "velocity": 0.3543307086614173,
                    "duration": 0.899999999999995
                },
                {
                    "name": "F5",
                    "midi": 77,
                    "time": 19.800000000000004,
                    "velocity": 0.5275590551181102,
                    "duration": 0.4499999999999993
                },
                {
                    "name": "E5",
                    "midi": 76,
                    "time": 20.250000000000004,
                    "velocity": 0.4566929133858268,
                    "duration": 0.14999999999999858
                },
                {
                    "name": "D5",
                    "midi": 74,
                    "time": 20.400000000000002,
                    "velocity": 0.49606299212598426,
                    "duration": 0.14999999999999858
                },
                {
                    "name": "C#5",
                    "midi": 73,
                    "time": 20.55,
                    "velocity": 0.49606299212598426,
                    "duration": 0.14999999999999858
                },
                {
                    "name": "F4",
                    "midi": 65,
                    "time": 20.7,
                    "velocity": 0.31496062992125984,
                    "duration": 0.899999999999995
                },
                {
                    "name": "G#4",
                    "midi": 68,
                    "time": 20.7,
                    "velocity": 0.31496062992125984,
                    "duration": 0.899999999999995
                },
                {
                    "name": "E5",
                    "midi": 76,
                    "time": 20.7,
                    "velocity": 0.5275590551181102,
                    "duration": 0.4499999999999993
                },
                {
                    "name": "D5",
                    "midi": 74,
                    "time": 21.15,
                    "velocity": 0.4566929133858268,
                    "duration": 0.14999999999999858
                },
                {
                    "name": "B4",
                    "midi": 71,
                    "time": 21.299999999999997,
                    "velocity": 0.47244094488188976,
                    "duration": 0.14999999999999858
                },
                {
                    "name": "D5",
                    "midi": 74,
                    "time": 21.449999999999996,
                    "velocity": 0.47244094488188976,
                    "duration": 0.14999999999999858
                },
                {
                    "name": "F#4",
                    "midi": 66,
                    "time": 21.599999999999994,
                    "velocity": 0.4409448818897638,
                    "duration": 1.5
                },
                {
                    "name": "A#4",
                    "midi": 70,
                    "time": 21.599999999999994,
                    "velocity": 0.4409448818897638,
                    "duration": 1.5
                },
                {
                    "name": "C#5",
                    "midi": 73,
                    "time": 21.599999999999994,
                    "velocity": 0.4409448818897638,
                    "duration": 1.5
                },
                {
                    "name": "F#4",
                    "midi": 66,
                    "time": 23.099999999999994,
                    "velocity": 0.3543307086614173,
                    "duration": 0.29999999999999716
                },
                {
                    "name": "B4",
                    "midi": 71,
                    "time": 23.099999999999994,
                    "velocity": 0.3543307086614173,
                    "duration": 0.29999999999999716
                },
                {
                    "name": "D#5",
                    "midi": 75,
                    "time": 23.099999999999994,
                    "velocity": 0.41732283464566927,
                    "duration": 0.14999999999999858
                },
                {
                    "name": "F5",
                    "midi": 77,
                    "time": 23.249999999999993,
                    "velocity": 0.41732283464566927,
                    "duration": 0.14999999999999858
                },
                {
                    "name": "F#4",
                    "midi": 66,
                    "time": 23.39999999999999,
                    "velocity": 0.3700787401574803,
                    "duration": 1.5
                },
                {
                    "name": "A#4",
                    "midi": 70,
                    "time": 23.39999999999999,
                    "velocity": 0.3700787401574803,
                    "duration": 1.5
                },
                {
                    "name": "C#5",
                    "midi": 73,
                    "time": 23.39999999999999,
                    "velocity": 0.4409448818897638,
                    "duration": 1.5
                },
                {
                    "name": "F#4",
                    "midi": 66,
                    "time": 24.89999999999999,
                    "velocity": 0.3543307086614173,
                    "duration": 0.29999999999999716
                },
                {
                    "name": "B4",
                    "midi": 71,
                    "time": 24.89999999999999,
                    "velocity": 0.3543307086614173,
                    "duration": 0.29999999999999716
                },
                {
                    "name": "D#5",
                    "midi": 75,
                    "time": 24.89999999999999,
                    "velocity": 0.41732283464566927,
                    "duration": 0.14999999999999858
                },
                {
                    "name": "F5",
                    "midi": 77,
                    "time": 25.04999999999999,
                    "velocity": 0.41732283464566927,
                    "duration": 0.14999999999999858
                },
                {
                    "name": "F#4",
                    "midi": 66,
                    "time": 25.19999999999999,
                    "velocity": 0.3700787401574803,
                    "duration": 0.6000000000000014
                },
                {
                    "name": "A#4",
                    "midi": 70,
                    "time": 25.19999999999999,
                    "velocity": 0.3700787401574803,
                    "duration": 0.6000000000000014
                },
                {
                    "name": "C#5",
                    "midi": 73,
                    "time": 25.19999999999999,
                    "velocity": 0.4409448818897638,
                    "duration": 0.3000000000000007
                },
                {
                    "name": "F#5",
                    "midi": 78,
                    "time": 25.49999999999999,
                    "velocity": 0.4409448818897638,
                    "duration": 0.3000000000000007
                },
                {
                    "name": "F#4",
                    "midi": 66,
                    "time": 25.79999999999999,
                    "velocity": 0.3543307086614173,
                    "duration": 0.29999999999999716
                },
                {
                    "name": "B4",
                    "midi": 71,
                    "time": 25.79999999999999,
                    "velocity": 0.3543307086614173,
                    "duration": 0.29999999999999716
                },
                {
                    "name": "D#5",
                    "midi": 75,
                    "time": 25.79999999999999,
                    "velocity": 0.41732283464566927,
                    "duration": 0.14999999999999858
                },
                {
                    "name": "F5",
                    "midi": 77,
                    "time": 25.94999999999999,
                    "velocity": 0.41732283464566927,
                    "duration": 0.14999999999999858
                },
                {
                    "name": "F#4",
                    "midi": 66,
                    "time": 26.099999999999987,
                    "velocity": 0.3700787401574803,
                    "duration": 0.6000000000000014
                },
                {
                    "name": "A#4",
                    "midi": 70,
                    "time": 26.099999999999987,
                    "velocity": 0.3700787401574803,
                    "duration": 0.6000000000000014
                },
                {
                    "name": "C#5",
                    "midi": 73,
                    "time": 26.099999999999987,
                    "velocity": 0.4409448818897638,
                    "duration": 0.3000000000000007
                },
                {
                    "name": "F#5",
                    "midi": 78,
                    "time": 26.399999999999988,
                    "velocity": 0.4409448818897638,
                    "duration": 0.3000000000000007
                },
                {
                    "name": "F#4",
                    "midi": 66,
                    "time": 26.69999999999999,
                    "velocity": 0.3543307086614173,
                    "duration": 0.29999999999999716
                },
                {
                    "name": "B4",
                    "midi": 71,
                    "time": 26.69999999999999,
                    "velocity": 0.3543307086614173,
                    "duration": 0.29999999999999716
                },
                {
                    "name": "D#5",
                    "midi": 75,
                    "time": 26.69999999999999,
                    "velocity": 0.41732283464566927,
                    "duration": 0.14999999999999858
                },
                {
                    "name": "F5",
                    "midi": 77,
                    "time": 26.849999999999987,
                    "velocity": 0.41732283464566927,
                    "duration": 0.14999999999999858
                },
                {
                    "name": "F#4",
                    "midi": 66,
                    "time": 26.999999999999986,
                    "velocity": 0.3858267716535433,
                    "duration": 0.6000000000000014
                },
                {
                    "name": "A#4",
                    "midi": 70,
                    "time": 26.999999999999986,
                    "velocity": 0.3858267716535433,
                    "duration": 0.6000000000000014
                },
                {
                    "name": "C#5",
                    "midi": 73,
                    "time": 26.999999999999986,
                    "velocity": 0.4566929133858268,
                    "duration": 0.3000000000000007
                },
                {
                    "name": "F#5",
                    "midi": 78,
                    "time": 27.299999999999986,
                    "velocity": 0.47244094488188976,
                    "duration": 0.3000000000000007
                },
                {
                    "name": "F#4",
                    "midi": 66,
                    "time": 27.599999999999987,
                    "velocity": 0.47244094488188976,
                    "duration": 0.6000000000000014
                },
                {
                    "name": "A#4",
                    "midi": 70,
                    "time": 27.599999999999987,
                    "velocity": 0.47244094488188976,
                    "duration": 0.6000000000000014
                },
                {
                    "name": "C#5",
                    "midi": 73,
                    "time": 27.599999999999987,
                    "velocity": 0.5590551181102362,
                    "duration": 0.3000000000000007
                },
                {
                    "name": "F#5",
                    "midi": 78,
                    "time": 27.899999999999988,
                    "velocity": 0.5748031496062992,
                    "duration": 0.3000000000000007
                },
                {
                    "name": "B4",
                    "midi": 71,
                    "time": 28.19999999999999,
                    "velocity": 0.5039370078740157,
                    "duration": 0.6000000000000014
                },
                {
                    "name": "D#5",
                    "midi": 75,
                    "time": 28.19999999999999,
                    "velocity": 0.5039370078740157,
                    "duration": 0.6000000000000014
                },
                {
                    "name": "F#5",
                    "midi": 78,
                    "time": 28.19999999999999,
                    "velocity": 0.6377952755905512,
                    "duration": 0.3000000000000007
                },
                {
                    "name": "B5",
                    "midi": 83,
                    "time": 28.49999999999999,
                    "velocity": 0.6456692913385826,
                    "duration": 0.3000000000000007
                },
                {
                    "name": "C5",
                    "midi": 72,
                    "time": 28.79999999999999,
                    "velocity": 0.4330708661417323,
                    "duration": 1.5
                },
                {
                    "name": "D#5",
                    "midi": 75,
                    "time": 28.79999999999999,
                    "velocity": 0.4330708661417323,
                    "duration": 1.5
                },
                {
                    "name": "A5",
                    "midi": 81,
                    "time": 28.79999999999999,
                    "velocity": 0.6771653543307087,
                    "duration": 0.4499999999999993
                },
                {
                    "name": "G5",
                    "midi": 79,
                    "time": 29.24999999999999,
                    "velocity": 0.5669291338582677,
                    "duration": 0.14999999999999858
                },
                {
                    "name": "F#5",
                    "midi": 78,
                    "time": 29.399999999999988,
                    "velocity": 0.6062992125984252,
                    "duration": 0.3000000000000007
                },
                {
                    "name": "F#5",
                    "midi": 78,
                    "time": 29.69999999999999,
                    "velocity": 0.6220472440944882,
                    "duration": 0.6000000000000014
                },
                {
                    "name": "B4",
                    "midi": 71,
                    "time": 30.29999999999999,
                    "velocity": 0.49606299212598426,
                    "duration": 1.2000000000000028
                },
                {
                    "name": "G4",
                    "midi": 67,
                    "time": 30.29999999999999,
                    "velocity": 0.49606299212598426,
                    "duration": 1.2000000000000028
                },
                {
                    "name": "G5",
                    "midi": 79,
                    "time": 30.29999999999999,
                    "velocity": 0.49606299212598426,
                    "duration": 0.3000000000000007
                },
                {
                    "name": "F#5",
                    "midi": 78,
                    "time": 30.59999999999999,
                    "velocity": 0.5511811023622047,
                    "duration": 0.4499999999999993
                },
                {
                    "name": "E5",
                    "midi": 76,
                    "time": 31.04999999999999,
                    "velocity": 0.3779527559055118,
                    "duration": 0.05000000000000071
                },
                {
                    "name": "F#5",
                    "midi": 78,
                    "time": 31.09999999999999,
                    "velocity": 0.3779527559055118,
                    "duration": 0.05000000000000071
                },
                {
                    "name": "E5",
                    "midi": 76,
                    "time": 31.14999999999999,
                    "velocity": 0.3779527559055118,
                    "duration": 0.05000000000000071
                },
                {
                    "name": "D5",
                    "midi": 74,
                    "time": 31.199999999999992,
                    "velocity": 0.4645669291338583,
                    "duration": 0.3000000000000007
                },
                {
                    "name": "G4",
                    "midi": 67,
                    "time": 31.499999999999993,
                    "velocity": 0.33070866141732286,
                    "duration": 0.6000000000000014
                },
                {
                    "name": "B4",
                    "midi": 71,
                    "time": 31.499999999999993,
                    "velocity": 0.33070866141732286,
                    "duration": 0.6000000000000014
                },
                {
                    "name": "D5",
                    "midi": 74,
                    "time": 31.499999999999993,
                    "velocity": 0.3937007874015748,
                    "duration": 0.6000000000000014
                },
                {
                    "name": "D4",
                    "midi": 62,
                    "time": 32.099999999999994,
                    "velocity": 0.3464566929133858,
                    "duration": 0.14999999999999858
                },
                {
                    "name": "E4",
                    "midi": 64,
                    "time": 32.24999999999999,
                    "velocity": 0.3700787401574803,
                    "duration": 0.14999999999999858
                },
                {
                    "name": "B3",
                    "midi": 59,
                    "time": 32.39999999999999,
                    "velocity": 0.4015748031496063,
                    "duration": 0.8999999999999986
                },
                {
                    "name": "F#4",
                    "midi": 66,
                    "time": 32.39999999999999,
                    "velocity": 0.4015748031496063,
                    "duration": 0.8999999999999986
                },
                {
                    "name": "A#3",
                    "midi": 58,
                    "time": 33.29999999999999,
                    "velocity": 0.41732283464566927,
                    "duration": 0.45000000000000284
                },
                {
                    "name": "F#4",
                    "midi": 66,
                    "time": 33.29999999999999,
                    "velocity": 0.41732283464566927,
                    "duration": 0.45000000000000284
                },
                {
                    "name": "C#4",
                    "midi": 61,
                    "time": 33.74999999999999,
                    "velocity": 0.3779527559055118,
                    "duration": 0.14999999999999858
                },
                {
                    "name": "A#4",
                    "midi": 70,
                    "time": 33.74999999999999,
                    "velocity": 0.3779527559055118,
                    "duration": 0.14999999999999858
                },
                {
                    "name": "E4",
                    "midi": 64,
                    "time": 33.89999999999999,
                    "velocity": 0.4015748031496063,
                    "duration": 0.14999999999999858
                },
                {
                    "name": "C#5",
                    "midi": 73,
                    "time": 33.89999999999999,
                    "velocity": 0.4015748031496063,
                    "duration": 0.14999999999999858
                },
                {
                    "name": "F#4",
                    "midi": 66,
                    "time": 34.04999999999999,
                    "velocity": 0.4251968503937008,
                    "duration": 0.14999999999999858
                },
                {
                    "name": "D5",
                    "midi": 74,
                    "time": 34.04999999999999,
                    "velocity": 0.4251968503937008,
                    "duration": 0.14999999999999858
                },
                {
                    "name": "E4",
                    "midi": 64,
                    "time": 34.19999999999999,
                    "velocity": 0.3937007874015748,
                    "duration": 0.29999999999999716
                },
                {
                    "name": "C#5",
                    "midi": 73,
                    "time": 34.19999999999999,
                    "velocity": 0.3937007874015748,
                    "duration": 0.29999999999999716
                },
                {
                    "name": "D4",
                    "midi": 62,
                    "time": 34.499999999999986,
                    "velocity": 0.33858267716535434,
                    "duration": 0.8999999999999986
                },
                {
                    "name": "B4",
                    "midi": 71,
                    "time": 34.499999999999986,
                    "velocity": 0.33858267716535434,
                    "duration": 0.8999999999999986
                },
                {
                    "name": "F#5",
                    "midi": 78,
                    "time": 35.69999999999998,
                    "velocity": 0.49606299212598426,
                    "duration": 0.29999999999999716
                },
                {
                    "name": "G4",
                    "midi": 67,
                    "time": 35.99999999999998,
                    "velocity": 0.31496062992125984,
                    "duration": 0.8999999999999986
                },
                {
                    "name": "A#4",
                    "midi": 70,
                    "time": 35.99999999999998,
                    "velocity": 0.36220472440944884,
                    "duration": 0.8999999999999986
                },
                {
                    "name": "E5",
                    "midi": 76,
                    "time": 35.99999999999998,
                    "velocity": 0.5196850393700787,
                    "duration": 0.45000000000000284
                },
                {
                    "name": "D5",
                    "midi": 74,
                    "time": 36.44999999999998,
                    "velocity": 0.4566929133858268,
                    "duration": 0.14999999999999858
                },
                {
                    "name": "C#5",
                    "midi": 73,
                    "time": 36.59999999999998,
                    "velocity": 0.49606299212598426,
                    "duration": 0.29999999999999716
                },
                {
                    "name": "F4",
                    "midi": 65,
                    "time": 36.89999999999998,
                    "velocity": 0.31496062992125984,
                    "duration": 0.8999999999999986
                },
                {
                    "name": "G#4",
                    "midi": 68,
                    "time": 36.89999999999998,
                    "velocity": 0.3543307086614173,
                    "duration": 0.8999999999999986
                },
                {
                    "name": "D5",
                    "midi": 74,
                    "time": 36.89999999999998,
                    "velocity": 0.5275590551181102,
                    "duration": 0.45000000000000284
                },
                {
                    "name": "B4",
                    "midi": 71,
                    "time": 37.34999999999998,
                    "velocity": 0.4566929133858268,
                    "duration": 0.14999999999999858
                },
                {
                    "name": "D5",
                    "midi": 74,
                    "time": 37.49999999999998,
                    "velocity": 0.47244094488188976,
                    "duration": 0.29999999999999716
                },
                {
                    "name": "F#4",
                    "midi": 66,
                    "time": 37.799999999999976,
                    "velocity": 0.4409448818897638,
                    "duration": 1.5
                },
                {
                    "name": "A#4",
                    "midi": 70,
                    "time": 37.799999999999976,
                    "velocity": 0.4409448818897638,
                    "duration": 1.5
                },
                {
                    "name": "C#5",
                    "midi": 73,
                    "time": 37.799999999999976,
                    "velocity": 0.4566929133858268,
                    "duration": 1.5
                },
                {
                    "name": "F#5",
                    "midi": 78,
                    "time": 39.299999999999976,
                    "velocity": 0.49606299212598426,
                    "duration": 0.29999999999999716
                },
                {
                    "name": "G4",
                    "midi": 67,
                    "time": 39.59999999999997,
                    "velocity": 0.31496062992125984,
                    "duration": 0.8999999999999986
                },
                {
                    "name": "A#4",
                    "midi": 70,
                    "time": 39.59999999999997,
                    "velocity": 0.3543307086614173,
                    "duration": 0.8999999999999986
                },
                {
                    "name": "F5",
                    "midi": 77,
                    "time": 39.59999999999997,
                    "velocity": 0.5275590551181102,
                    "duration": 0.45000000000000284
                },
                {
                    "name": "E5",
                    "midi": 76,
                    "time": 40.049999999999976,
                    "velocity": 0.4566929133858268,
                    "duration": 0.14999999999999858
                },
                {
                    "name": "D5",
                    "midi": 74,
                    "time": 40.199999999999974,
                    "velocity": 0.49606299212598426,
                    "duration": 0.14999999999999858
                },
                {
                    "name": "C#5",
                    "midi": 73,
                    "time": 40.34999999999997,
                    "velocity": 0.49606299212598426,
                    "duration": 0.14999999999999858
                },
                {
                    "name": "F4",
                    "midi": 65,
                    "time": 40.49999999999997,
                    "velocity": 0.31496062992125984,
                    "duration": 0.8999999999999986
                },
                {
                    "name": "G#4",
                    "midi": 68,
                    "time": 40.49999999999997,
                    "velocity": 0.31496062992125984,
                    "duration": 0.8999999999999986
                },
                {
                    "name": "E5",
                    "midi": 76,
                    "time": 40.49999999999997,
                    "velocity": 0.5275590551181102,
                    "duration": 0.45000000000000284
                },
                {
                    "name": "D5",
                    "midi": 74,
                    "time": 40.949999999999974,
                    "velocity": 0.4566929133858268,
                    "duration": 0.14999999999999858
                },
                {
                    "name": "B4",
                    "midi": 71,
                    "time": 41.09999999999997,
                    "velocity": 0.47244094488188976,
                    "duration": 0.14999999999999858
                },
                {
                    "name": "D5",
                    "midi": 74,
                    "time": 41.24999999999997,
                    "velocity": 0.47244094488188976,
                    "duration": 0.14999999999999858
                },
                {
                    "name": "F#4",
                    "midi": 66,
                    "time": 41.39999999999997,
                    "velocity": 0.4409448818897638,
                    "duration": 1.5
                },
                {
                    "name": "A#4",
                    "midi": 70,
                    "time": 41.39999999999997,
                    "velocity": 0.4409448818897638,
                    "duration": 1.5
                },
                {
                    "name": "C#5",
                    "midi": 73,
                    "time": 41.39999999999997,
                    "velocity": 0.4409448818897638,
                    "duration": 1.5
                },
                {
                    "name": "F#4",
                    "midi": 66,
                    "time": 42.89999999999997,
                    "velocity": 0.3543307086614173,
                    "duration": 0.29999999999999716
                },
                {
                    "name": "B4",
                    "midi": 71,
                    "time": 42.89999999999997,
                    "velocity": 0.3543307086614173,
                    "duration": 0.29999999999999716
                },
                {
                    "name": "D#5",
                    "midi": 75,
                    "time": 42.89999999999997,
                    "velocity": 0.41732283464566927,
                    "duration": 0.14999999999999858
                },
                {
                    "name": "F5",
                    "midi": 77,
                    "time": 43.04999999999997,
                    "velocity": 0.41732283464566927,
                    "duration": 0.14999999999999858
                },
                {
                    "name": "F#4",
                    "midi": 66,
                    "time": 43.19999999999997,
                    "velocity": 0.3700787401574803,
                    "duration": 1.5
                },
                {
                    "name": "A#4",
                    "midi": 70,
                    "time": 43.19999999999997,
                    "velocity": 0.3700787401574803,
                    "duration": 1.5
                },
                {
                    "name": "C#5",
                    "midi": 73,
                    "time": 43.19999999999997,
                    "velocity": 0.4409448818897638,
                    "duration": 1.5
                },
                {
                    "name": "F#4",
                    "midi": 66,
                    "time": 44.69999999999997,
                    "velocity": 0.3543307086614173,
                    "duration": 0.29999999999999716
                },
                {
                    "name": "B4",
                    "midi": 71,
                    "time": 44.69999999999997,
                    "velocity": 0.3543307086614173,
                    "duration": 0.29999999999999716
                },
                {
                    "name": "D#5",
                    "midi": 75,
                    "time": 44.69999999999997,
                    "velocity": 0.41732283464566927,
                    "duration": 0.14999999999999858
                },
                {
                    "name": "F5",
                    "midi": 77,
                    "time": 44.849999999999966,
                    "velocity": 0.41732283464566927,
                    "duration": 0.14999999999999858
                },
                {
                    "name": "F#4",
                    "midi": 66,
                    "time": 44.999999999999964,
                    "velocity": 0.3700787401574803,
                    "duration": 0.5999999999999943
                },
                {
                    "name": "A#4",
                    "midi": 70,
                    "time": 44.999999999999964,
                    "velocity": 0.3700787401574803,
                    "duration": 0.5999999999999943
                },
                {
                    "name": "C#5",
                    "midi": 73,
                    "time": 44.999999999999964,
                    "velocity": 0.4409448818897638,
                    "duration": 0.29999999999999716
                },
                {
                    "name": "F#5",
                    "midi": 78,
                    "time": 45.29999999999996,
                    "velocity": 0.4409448818897638,
                    "duration": 0.29999999999999716
                },
                {
                    "name": "F#4",
                    "midi": 66,
                    "time": 45.59999999999996,
                    "velocity": 0.3543307086614173,
                    "duration": 0.29999999999999716
                },
                {
                    "name": "B4",
                    "midi": 71,
                    "time": 45.59999999999996,
                    "velocity": 0.3543307086614173,
                    "duration": 0.29999999999999716
                },
                {
                    "name": "D#5",
                    "midi": 75,
                    "time": 45.59999999999996,
                    "velocity": 0.41732283464566927,
                    "duration": 0.14999999999999858
                },
                {
                    "name": "F5",
                    "midi": 77,
                    "time": 45.74999999999996,
                    "velocity": 0.41732283464566927,
                    "duration": 0.14999999999999858
                },
                {
                    "name": "F#4",
                    "midi": 66,
                    "time": 45.899999999999956,
                    "velocity": 0.3700787401574803,
                    "duration": 0.5999999999999943
                },
                {
                    "name": "A#4",
                    "midi": 70,
                    "time": 45.899999999999956,
                    "velocity": 0.3700787401574803,
                    "duration": 0.5999999999999943
                },
                {
                    "name": "C#5",
                    "midi": 73,
                    "time": 45.899999999999956,
                    "velocity": 0.4409448818897638,
                    "duration": 0.29999999999999716
                },
                {
                    "name": "F#5",
                    "midi": 78,
                    "time": 46.19999999999995,
                    "velocity": 0.4409448818897638,
                    "duration": 0.29999999999999716
                },
                {
                    "name": "F#4",
                    "midi": 66,
                    "time": 46.49999999999995,
                    "velocity": 0.3543307086614173,
                    "duration": 0.29999999999999716
                },
                {
                    "name": "B4",
                    "midi": 71,
                    "time": 46.49999999999995,
                    "velocity": 0.3543307086614173,
                    "duration": 0.29999999999999716
                },
                {
                    "name": "D#5",
                    "midi": 75,
                    "time": 46.49999999999995,
                    "velocity": 0.41732283464566927,
                    "duration": 0.14999999999999858
                },
                {
                    "name": "F5",
                    "midi": 77,
                    "time": 46.64999999999995,
                    "velocity": 0.41732283464566927,
                    "duration": 0.14999999999999858
                },
                {
                    "name": "F#4",
                    "midi": 66,
                    "time": 46.79999999999995,
                    "velocity": 0.3858267716535433,
                    "duration": 0.5999999999999943
                },
                {
                    "name": "A#4",
                    "midi": 70,
                    "time": 46.79999999999995,
                    "velocity": 0.3858267716535433,
                    "duration": 0.5999999999999943
                },
                {
                    "name": "C#5",
                    "midi": 73,
                    "time": 46.79999999999995,
                    "velocity": 0.4566929133858268,
                    "duration": 0.29999999999999716
                },
                {
                    "name": "F#5",
                    "midi": 78,
                    "time": 47.099999999999945,
                    "velocity": 0.47244094488188976,
                    "duration": 0.29999999999999716
                },
                {
                    "name": "F#4",
                    "midi": 66,
                    "time": 47.39999999999994,
                    "velocity": 0.47244094488188976,
                    "duration": 0.5999999999999943
                },
                {
                    "name": "A#4",
                    "midi": 70,
                    "time": 47.39999999999994,
                    "velocity": 0.47244094488188976,
                    "duration": 0.5999999999999943
                },
                {
                    "name": "C#5",
                    "midi": 73,
                    "time": 47.39999999999994,
                    "velocity": 0.5590551181102362,
                    "duration": 0.29999999999999716
                },
                {
                    "name": "F#5",
                    "midi": 78,
                    "time": 47.69999999999994,
                    "velocity": 0.5748031496062992,
                    "duration": 0.29999999999999716
                },
                {
                    "name": "B4",
                    "midi": 71,
                    "time": 47.999999999999936,
                    "velocity": 0.5039370078740157,
                    "duration": 0.5999999999999943
                },
                {
                    "name": "D#5",
                    "midi": 75,
                    "time": 47.999999999999936,
                    "velocity": 0.5039370078740157,
                    "duration": 0.5999999999999943
                },
                {
                    "name": "F#5",
                    "midi": 78,
                    "time": 47.999999999999936,
                    "velocity": 0.6299212598425197,
                    "duration": 0.29999999999999716
                },
                {
                    "name": "B5",
                    "midi": 83,
                    "time": 48.29999999999993,
                    "velocity": 0.6456692913385826,
                    "duration": 0.29999999999999716
                },
                {
                    "name": "C5",
                    "midi": 72,
                    "time": 48.59999999999993,
                    "velocity": 0.4330708661417323,
                    "duration": 1.5
                },
                {
                    "name": "D#5",
                    "midi": 75,
                    "time": 48.59999999999993,
                    "velocity": 0.4330708661417323,
                    "duration": 1.5
                },
                {
                    "name": "A5",
                    "midi": 81,
                    "time": 48.59999999999993,
                    "velocity": 0.6771653543307087,
                    "duration": 0.45000000000000284
                },
                {
                    "name": "G5",
                    "midi": 79,
                    "time": 49.04999999999993,
                    "velocity": 0.5669291338582677,
                    "duration": 0.14999999999999858
                },
                {
                    "name": "F#5",
                    "midi": 78,
                    "time": 49.19999999999993,
                    "velocity": 0.6062992125984252,
                    "duration": 0.29999999999999716
                },
                {
                    "name": "F#5",
                    "midi": 78,
                    "time": 49.49999999999993,
                    "velocity": 0.6220472440944882,
                    "duration": 0.6000000000000014
                },
                {
                    "name": "B4",
                    "midi": 71,
                    "time": 50.09999999999993,
                    "velocity": 0.49606299212598426,
                    "duration": 1.1999999999999886
                },
                {
                    "name": "G4",
                    "midi": 67,
                    "time": 50.09999999999993,
                    "velocity": 0.49606299212598426,
                    "duration": 1.1999999999999886
                },
                {
                    "name": "G5",
                    "midi": 79,
                    "time": 50.09999999999993,
                    "velocity": 0.49606299212598426,
                    "duration": 0.29999999999999716
                },
                {
                    "name": "F#5",
                    "midi": 78,
                    "time": 50.39999999999993,
                    "velocity": 0.5511811023622047,
                    "duration": 0.45000000000000284
                },
                {
                    "name": "E5",
                    "midi": 76,
                    "time": 50.84999999999993,
                    "velocity": 0.3228346456692913,
                    "duration": 0.04999999999999716
                },
                {
                    "name": "F#5",
                    "midi": 78,
                    "time": 50.89999999999993,
                    "velocity": 0.3228346456692913,
                    "duration": 0.04999999999999716
                },
                {
                    "name": "E5",
                    "midi": 76,
                    "time": 50.949999999999925,
                    "velocity": 0.31496062992125984,
                    "duration": 0.04999999999999716
                },
                {
                    "name": "D5",
                    "midi": 74,
                    "time": 50.99999999999992,
                    "velocity": 0.3779527559055118,
                    "duration": 0.29999999999999716
                },
                {
                    "name": "G4",
                    "midi": 67,
                    "time": 51.29999999999992,
                    "velocity": 0.2440944881889764,
                    "duration": 0.6000000000000014
                },
                {
                    "name": "B4",
                    "midi": 71,
                    "time": 51.29999999999992,
                    "velocity": 0.2440944881889764,
                    "duration": 0.6000000000000014
                },
                {
                    "name": "D5",
                    "midi": 74,
                    "time": 51.29999999999992,
                    "velocity": 0.29133858267716534,
                    "duration": 0.6000000000000014
                },
                {
                    "name": "D4",
                    "midi": 62,
                    "time": 51.89999999999992,
                    "velocity": 0.30708661417322836,
                    "duration": 0.14999999999999858
                },
                {
                    "name": "E4",
                    "midi": 64,
                    "time": 52.04999999999992,
                    "velocity": 0.33070866141732286,
                    "duration": 0.14999999999999858
                },
                {
                    "name": "B3",
                    "midi": 59,
                    "time": 52.19999999999992,
                    "velocity": 0.3543307086614173,
                    "duration": 0.8999999999999986
                },
                {
                    "name": "F#4",
                    "midi": 66,
                    "time": 52.19999999999992,
                    "velocity": 0.3543307086614173,
                    "duration": 0.8999999999999986
                },
                {
                    "name": "A#3",
                    "midi": 58,
                    "time": 53.099999999999916,
                    "velocity": 0.3700787401574803,
                    "duration": 0.45000000000000284
                },
                {
                    "name": "F#4",
                    "midi": 66,
                    "time": 53.099999999999916,
                    "velocity": 0.3700787401574803,
                    "duration": 0.45000000000000284
                },
                {
                    "name": "C#4",
                    "midi": 61,
                    "time": 53.54999999999992,
                    "velocity": 0.33858267716535434,
                    "duration": 0.14999999999999858
                },
                {
                    "name": "A#4",
                    "midi": 70,
                    "time": 53.54999999999992,
                    "velocity": 0.33858267716535434,
                    "duration": 0.14999999999999858
                },
                {
                    "name": "E4",
                    "midi": 64,
                    "time": 53.69999999999992,
                    "velocity": 0.3543307086614173,
                    "duration": 0.14999999999999858
                },
                {
                    "name": "C#5",
                    "midi": 73,
                    "time": 53.69999999999992,
                    "velocity": 0.3543307086614173,
                    "duration": 0.14999999999999858
                },
                {
                    "name": "F#4",
                    "midi": 66,
                    "time": 53.849999999999916,
                    "velocity": 0.3779527559055118,
                    "duration": 0.14999999999999858
                },
                {
                    "name": "D5",
                    "midi": 74,
                    "time": 53.849999999999916,
                    "velocity": 0.3779527559055118,
                    "duration": 0.14999999999999858
                },
                {
                    "name": "E4",
                    "midi": 64,
                    "time": 53.999999999999915,
                    "velocity": 0.3937007874015748,
                    "duration": 0.29999999999999716
                },
                {
                    "name": "C#5",
                    "midi": 73,
                    "time": 53.999999999999915,
                    "velocity": 0.3937007874015748,
                    "duration": 0.29999999999999716
                },
                {
                    "name": "D4",
                    "midi": 62,
                    "time": 54.29999999999991,
                    "velocity": 0.33858267716535434,
                    "duration": 0.8999999999999986
                },
                {
                    "name": "B4",
                    "midi": 71,
                    "time": 54.29999999999991,
                    "velocity": 0.33858267716535434,
                    "duration": 0.8999999999999986
                }
            ],
            "controlChanges": {},
            "id": 1,
            "name": "Piano right",
            "instrumentNumber": 0,
            "instrument": "acoustic grand piano",
            "instrumentFamily": "piano",
            "channelNumber": 0,
            "isPercussion": false
        },
        {
            "startTime": 1.5,
            "duration": 55.19999999999994,
            "length": 160,
            "notes": [
                {
                    "name": "B3",
                    "midi": 59,
                    "time": 1.5,
                    "velocity": 0.33070866141732286,
                    "duration": 1.7999999999999998
                },
                {
                    "name": "A3",
                    "midi": 57,
                    "time": 1.8,
                    "velocity": 0.3700787401574803,
                    "duration": 0.44999999999999996
                },
                {
                    "name": "G3",
                    "midi": 55,
                    "time": 2.25,
                    "velocity": 0.28346456692913385,
                    "duration": 0.1499999999999999
                },
                {
                    "name": "F#3",
                    "midi": 54,
                    "time": 2.4,
                    "velocity": 0.33858267716535434,
                    "duration": 0.2999999999999998
                },
                {
                    "name": "F#3",
                    "midi": 54,
                    "time": 2.6999999999999997,
                    "velocity": 0.33070866141732286,
                    "duration": 0.6000000000000001
                },
                {
                    "name": "B3",
                    "midi": 59,
                    "time": 3.3,
                    "velocity": 0.33070866141732286,
                    "duration": 1.7999999999999998
                },
                {
                    "name": "A3",
                    "midi": 57,
                    "time": 3.5999999999999996,
                    "velocity": 0.3700787401574803,
                    "duration": 0.4500000000000002
                },
                {
                    "name": "G3",
                    "midi": 55,
                    "time": 4.05,
                    "velocity": 0.28346456692913385,
                    "duration": 0.15000000000000036
                },
                {
                    "name": "F#3",
                    "midi": 54,
                    "time": 4.2,
                    "velocity": 0.33858267716535434,
                    "duration": 0.2999999999999998
                },
                {
                    "name": "F#3",
                    "midi": 54,
                    "time": 4.5,
                    "velocity": 0.33070866141732286,
                    "duration": 0.5999999999999996
                },
                {
                    "name": "B2",
                    "midi": 47,
                    "time": 5.1,
                    "velocity": 0.31496062992125984,
                    "duration": 0.15000000000000036
                },
                {
                    "name": "C#3",
                    "midi": 49,
                    "time": 5.25,
                    "velocity": 0.3464566929133858,
                    "duration": 0.15000000000000036
                },
                {
                    "name": "D3",
                    "midi": 50,
                    "time": 5.4,
                    "velocity": 0.3700787401574803,
                    "duration": 0.8999999999999995
                },
                {
                    "name": "F#2",
                    "midi": 42,
                    "time": 6,
                    "velocity": 0.48031496062992124,
                    "duration": 1.2000000000000002
                },
                {
                    "name": "E3",
                    "midi": 52,
                    "time": 6.3,
                    "velocity": 0.33858267716535434,
                    "duration": 0.4500000000000002
                },
                {
                    "name": "F#3",
                    "midi": 54,
                    "time": 6.75,
                    "velocity": 0.3228346456692913,
                    "duration": 0.15000000000000036
                },
                {
                    "name": "G3",
                    "midi": 55,
                    "time": 6.9,
                    "velocity": 0.33858267716535434,
                    "duration": 0.2999999999999998
                },
                {
                    "name": "B2",
                    "midi": 47,
                    "time": 7.2,
                    "velocity": 0.33070866141732286,
                    "duration": 0.5999999999999996
                },
                {
                    "name": "G3",
                    "midi": 55,
                    "time": 7.2,
                    "velocity": 0.33070866141732286,
                    "duration": 0.2999999999999998
                },
                {
                    "name": "F#3",
                    "midi": 54,
                    "time": 7.5,
                    "velocity": 0.30708661417322836,
                    "duration": 0.9000000000000004
                },
                {
                    "name": "F#2",
                    "midi": 42,
                    "time": 7.8,
                    "velocity": 0.28346456692913385,
                    "duration": 0.2999999999999998
                },
                {
                    "name": "B1",
                    "midi": 35,
                    "time": 8.1,
                    "velocity": 0.25984251968503935,
                    "duration": 0.3000000000000007
                },
                {
                    "name": "D4",
                    "midi": 62,
                    "time": 8.700000000000001,
                    "velocity": 0.33070866141732286,
                    "duration": 1.8000000000000007
                },
                {
                    "name": "C#4",
                    "midi": 61,
                    "time": 9.000000000000002,
                    "velocity": 0.41732283464566927,
                    "duration": 0.4499999999999993
                },
                {
                    "name": "B3",
                    "midi": 59,
                    "time": 9.450000000000001,
                    "velocity": 0.28346456692913385,
                    "duration": 0.15000000000000036
                },
                {
                    "name": "A3",
                    "midi": 57,
                    "time": 9.600000000000001,
                    "velocity": 0.33858267716535434,
                    "duration": 0.3000000000000007
                },
                {
                    "name": "A3",
                    "midi": 57,
                    "time": 9.900000000000002,
                    "velocity": 0.33070866141732286,
                    "duration": 0.5999999999999996
                },
                {
                    "name": "D4",
                    "midi": 62,
                    "time": 10.500000000000002,
                    "velocity": 0.33070866141732286,
                    "duration": 1.8000000000000007
                },
                {
                    "name": "C#4",
                    "midi": 61,
                    "time": 10.800000000000002,
                    "velocity": 0.3700787401574803,
                    "duration": 0.4499999999999993
                },
                {
                    "name": "B3",
                    "midi": 59,
                    "time": 11.250000000000002,
                    "velocity": 0.28346456692913385,
                    "duration": 0.15000000000000036
                },
                {
                    "name": "A3",
                    "midi": 57,
                    "time": 11.400000000000002,
                    "velocity": 0.33858267716535434,
                    "duration": 0.3000000000000007
                },
                {
                    "name": "A3",
                    "midi": 57,
                    "time": 11.700000000000003,
                    "velocity": 0.33070866141732286,
                    "duration": 0.5999999999999996
                },
                {
                    "name": "D3",
                    "midi": 50,
                    "time": 12.300000000000002,
                    "velocity": 0.31496062992125984,
                    "duration": 0.15000000000000036
                },
                {
                    "name": "E3",
                    "midi": 52,
                    "time": 12.450000000000003,
                    "velocity": 0.3464566929133858,
                    "duration": 0.15000000000000036
                },
                {
                    "name": "F#3",
                    "midi": 54,
                    "time": 12.600000000000003,
                    "velocity": 0.3700787401574803,
                    "duration": 0.9000000000000004
                },
                {
                    "name": "A2",
                    "midi": 45,
                    "time": 13.200000000000003,
                    "velocity": 0.48031496062992124,
                    "duration": 1.200000000000001
                },
                {
                    "name": "G3",
                    "midi": 55,
                    "time": 13.500000000000004,
                    "velocity": 0.4015748031496063,
                    "duration": 0.4499999999999993
                },
                {
                    "name": "A3",
                    "midi": 57,
                    "time": 13.950000000000003,
                    "velocity": 0.3228346456692913,
                    "duration": 0.15000000000000036
                },
                {
                    "name": "B3",
                    "midi": 59,
                    "time": 14.100000000000003,
                    "velocity": 0.33858267716535434,
                    "duration": 0.3000000000000007
                },
                {
                    "name": "D3",
                    "midi": 50,
                    "time": 14.400000000000004,
                    "velocity": 0.33070866141732286,
                    "duration": 0.6000000000000014
                },
                {
                    "name": "B3",
                    "midi": 59,
                    "time": 14.400000000000004,
                    "velocity": 0.33070866141732286,
                    "duration": 0.3000000000000007
                },
                {
                    "name": "A3",
                    "midi": 57,
                    "time": 14.700000000000005,
                    "velocity": 0.30708661417322836,
                    "duration": 0.9000000000000021
                },
                {
                    "name": "A2",
                    "midi": 45,
                    "time": 15.000000000000005,
                    "velocity": 0.2755905511811024,
                    "duration": 0.3000000000000007
                },
                {
                    "name": "D2",
                    "midi": 38,
                    "time": 15.300000000000006,
                    "velocity": 0.2440944881889764,
                    "duration": 0.3000000000000007
                },
                {
                    "name": "F#4",
                    "midi": 66,
                    "time": 15.900000000000007,
                    "velocity": 0.3858267716535433,
                    "duration": 0.29999999999999893
                },
                {
                    "name": "E4",
                    "midi": 64,
                    "time": 16.200000000000006,
                    "velocity": 0.3858267716535433,
                    "duration": 0.4499999999999993
                },
                {
                    "name": "D4",
                    "midi": 62,
                    "time": 16.650000000000006,
                    "velocity": 0.3543307086614173,
                    "duration": 0.14999999999999858
                },
                {
                    "name": "C#4",
                    "midi": 61,
                    "time": 16.800000000000004,
                    "velocity": 0.3858267716535433,
                    "duration": 0.3000000000000007
                },
                {
                    "name": "D4",
                    "midi": 62,
                    "time": 17.100000000000005,
                    "velocity": 0.44881889763779526,
                    "duration": 0.4499999999999993
                },
                {
                    "name": "B3",
                    "midi": 59,
                    "time": 17.550000000000004,
                    "velocity": 0.36220472440944884,
                    "duration": 0.14999999999999858
                },
                {
                    "name": "D4",
                    "midi": 62,
                    "time": 17.700000000000003,
                    "velocity": 0.3858267716535433,
                    "duration": 0.3000000000000007
                },
                {
                    "name": "C#4",
                    "midi": 61,
                    "time": 18.000000000000004,
                    "velocity": 0.3464566929133858,
                    "duration": 0.6000000000000014
                },
                {
                    "name": "C#3",
                    "midi": 49,
                    "time": 18.600000000000005,
                    "velocity": 0.33070866141732286,
                    "duration": 0.3000000000000007
                },
                {
                    "name": "F#2",
                    "midi": 42,
                    "time": 18.900000000000006,
                    "velocity": 0.33070866141732286,
                    "duration": 0.6000000000000014
                },
                {
                    "name": "F#4",
                    "midi": 66,
                    "time": 19.500000000000007,
                    "velocity": 0.3858267716535433,
                    "duration": 0.3000000000000007
                },
                {
                    "name": "F4",
                    "midi": 65,
                    "time": 19.800000000000008,
                    "velocity": 0.3858267716535433,
                    "duration": 0.4499999999999993
                },
                {
                    "name": "E4",
                    "midi": 64,
                    "time": 20.250000000000007,
                    "velocity": 0.3543307086614173,
                    "duration": 0.14999999999999858
                },
                {
                    "name": "D4",
                    "midi": 62,
                    "time": 20.400000000000006,
                    "velocity": 0.3858267716535433,
                    "duration": 0.14999999999999858
                },
                {
                    "name": "C#4",
                    "midi": 61,
                    "time": 20.550000000000004,
                    "velocity": 0.3858267716535433,
                    "duration": 0.14999999999999858
                },
                {
                    "name": "E4",
                    "midi": 64,
                    "time": 20.700000000000003,
                    "velocity": 0.44881889763779526,
                    "duration": 0.4499999999999993
                },
                {
                    "name": "D4",
                    "midi": 62,
                    "time": 21.150000000000002,
                    "velocity": 0.36220472440944884,
                    "duration": 0.14999999999999858
                },
                {
                    "name": "B3",
                    "midi": 59,
                    "time": 21.3,
                    "velocity": 0.3858267716535433,
                    "duration": 0.14999999999999858
                },
                {
                    "name": "D4",
                    "midi": 62,
                    "time": 21.45,
                    "velocity": 0.3858267716535433,
                    "duration": 0.14999999999999858
                },
                {
                    "name": "C#4",
                    "midi": 61,
                    "time": 21.599999999999998,
                    "velocity": 0.3464566929133858,
                    "duration": 0.6000000000000014
                },
                {
                    "name": "C#3",
                    "midi": 49,
                    "time": 22.2,
                    "velocity": 0.33070866141732286,
                    "duration": 0.3000000000000007
                },
                {
                    "name": "F#2",
                    "midi": 42,
                    "time": 22.5,
                    "velocity": 0.33070866141732286,
                    "duration": 0.6000000000000014
                },
                {
                    "name": "C#4",
                    "midi": 61,
                    "time": 23.1,
                    "velocity": 0.3464566929133858,
                    "duration": 0.9000000000000021
                },
                {
                    "name": "F#3",
                    "midi": 54,
                    "time": 23.400000000000002,
                    "velocity": 0.3464566929133858,
                    "duration": 0.6000000000000014
                },
                {
                    "name": "C#3",
                    "midi": 49,
                    "time": 24.000000000000004,
                    "velocity": 0.33070866141732286,
                    "duration": 0.3000000000000007
                },
                {
                    "name": "F#2",
                    "midi": 42,
                    "time": 24.300000000000004,
                    "velocity": 0.33070866141732286,
                    "duration": 0.6000000000000014
                },
                {
                    "name": "C#4",
                    "midi": 61,
                    "time": 24.900000000000006,
                    "velocity": 0.3464566929133858,
                    "duration": 0.9000000000000021
                },
                {
                    "name": "F#3",
                    "midi": 54,
                    "time": 25.200000000000006,
                    "velocity": 0.3464566929133858,
                    "duration": 0.6000000000000014
                },
                {
                    "name": "C#4",
                    "midi": 61,
                    "time": 25.800000000000008,
                    "velocity": 0.3464566929133858,
                    "duration": 0.9000000000000021
                },
                {
                    "name": "F#3",
                    "midi": 54,
                    "time": 26.10000000000001,
                    "velocity": 0.3464566929133858,
                    "duration": 0.6000000000000014
                },
                {
                    "name": "C#4",
                    "midi": 61,
                    "time": 26.70000000000001,
                    "velocity": 0.3464566929133858,
                    "duration": 0.9000000000000021
                },
                {
                    "name": "F#3",
                    "midi": 54,
                    "time": 27.00000000000001,
                    "velocity": 0.36220472440944884,
                    "duration": 0.6000000000000014
                },
                {
                    "name": "B2",
                    "midi": 47,
                    "time": 27.600000000000012,
                    "velocity": 0.4409448818897638,
                    "duration": 0.6000000000000014
                },
                {
                    "name": "F#3",
                    "midi": 54,
                    "time": 27.600000000000012,
                    "velocity": 0.4409448818897638,
                    "duration": 0.6000000000000014
                },
                {
                    "name": "E2",
                    "midi": 40,
                    "time": 28.200000000000014,
                    "velocity": 0.4645669291338583,
                    "duration": 0.6000000000000014
                },
                {
                    "name": "B2",
                    "midi": 47,
                    "time": 28.200000000000014,
                    "velocity": 0.4645669291338583,
                    "duration": 0.6000000000000014
                },
                {
                    "name": "A4",
                    "midi": 69,
                    "time": 28.800000000000015,
                    "velocity": 0.4881889763779528,
                    "duration": 0.4499999999999993
                },
                {
                    "name": "G4",
                    "midi": 67,
                    "time": 29.250000000000014,
                    "velocity": 0.4409448818897638,
                    "duration": 0.14999999999999858
                },
                {
                    "name": "F#4",
                    "midi": 66,
                    "time": 29.400000000000013,
                    "velocity": 0.5118110236220472,
                    "duration": 0.3000000000000007
                },
                {
                    "name": "F#4",
                    "midi": 66,
                    "time": 29.700000000000014,
                    "velocity": 0.5196850393700787,
                    "duration": 0.6000000000000014
                },
                {
                    "name": "G4",
                    "midi": 67,
                    "time": 30.300000000000015,
                    "velocity": 0.3464566929133858,
                    "duration": 0.3000000000000007
                },
                {
                    "name": "F#4",
                    "midi": 66,
                    "time": 30.600000000000016,
                    "velocity": 0.4015748031496063,
                    "duration": 0.4499999999999993
                },
                {
                    "name": "E4",
                    "midi": 64,
                    "time": 31.050000000000015,
                    "velocity": 0.25196850393700787,
                    "duration": 0.14999999999999858
                },
                {
                    "name": "D4",
                    "midi": 62,
                    "time": 31.200000000000014,
                    "velocity": 0.31496062992125984,
                    "duration": 0.3000000000000007
                },
                {
                    "name": "G3",
                    "midi": 55,
                    "time": 31.500000000000014,
                    "velocity": 0.2677165354330709,
                    "duration": 0.5999999999999943
                },
                {
                    "name": "D4",
                    "midi": 62,
                    "time": 31.500000000000014,
                    "velocity": 0.31496062992125984,
                    "duration": 0.5974999999999966
                },
                {
                    "name": "B2",
                    "midi": 47,
                    "time": 32.10000000000001,
                    "velocity": 0.30708661417322836,
                    "duration": 0.14999999999999858
                },
                {
                    "name": "C#3",
                    "midi": 49,
                    "time": 32.25000000000001,
                    "velocity": 0.33070866141732286,
                    "duration": 0.14999999999999858
                },
                {
                    "name": "D3",
                    "midi": 50,
                    "time": 32.400000000000006,
                    "velocity": 0.3543307086614173,
                    "duration": 0.8999999999999986
                },
                {
                    "name": "F#2",
                    "midi": 42,
                    "time": 33.00000000000001,
                    "velocity": 0.4251968503937008,
                    "duration": 1.1999999999999957
                },
                {
                    "name": "E3",
                    "midi": 52,
                    "time": 33.300000000000004,
                    "velocity": 0.3543307086614173,
                    "duration": 0.45000000000000284
                },
                {
                    "name": "F#3",
                    "midi": 54,
                    "time": 33.75000000000001,
                    "velocity": 0.28346456692913385,
                    "duration": 0.14999999999999858
                },
                {
                    "name": "G3",
                    "midi": 55,
                    "time": 33.900000000000006,
                    "velocity": 0.2992125984251969,
                    "duration": 0.29999999999999716
                },
                {
                    "name": "B2",
                    "midi": 47,
                    "time": 34.2,
                    "velocity": 0.29133858267716534,
                    "duration": 0.5999999999999943
                },
                {
                    "name": "G3",
                    "midi": 55,
                    "time": 34.2,
                    "velocity": 0.29133858267716534,
                    "duration": 0.29999999999999716
                },
                {
                    "name": "F#3",
                    "midi": 54,
                    "time": 34.5,
                    "velocity": 0.2755905511811024,
                    "duration": 0.8999999999999915
                },
                {
                    "name": "F#2",
                    "midi": 42,
                    "time": 34.8,
                    "velocity": 0.2440944881889764,
                    "duration": 0.29999999999999716
                },
                {
                    "name": "B1",
                    "midi": 35,
                    "time": 35.099999999999994,
                    "velocity": 0.2204724409448819,
                    "duration": 0.29999999999999716
                },
                {
                    "name": "F#4",
                    "midi": 66,
                    "time": 35.69999999999999,
                    "velocity": 0.3858267716535433,
                    "duration": 0.29999999999999716
                },
                {
                    "name": "E4",
                    "midi": 64,
                    "time": 35.999999999999986,
                    "velocity": 0.3858267716535433,
                    "duration": 0.45000000000000284
                },
                {
                    "name": "D4",
                    "midi": 62,
                    "time": 36.44999999999999,
                    "velocity": 0.3543307086614173,
                    "duration": 0.14999999999999858
                },
                {
                    "name": "C#4",
                    "midi": 61,
                    "time": 36.59999999999999,
                    "velocity": 0.3858267716535433,
                    "duration": 0.29999999999999716
                },
                {
                    "name": "D4",
                    "midi": 62,
                    "time": 36.899999999999984,
                    "velocity": 0.44881889763779526,
                    "duration": 0.45000000000000284
                },
                {
                    "name": "B3",
                    "midi": 59,
                    "time": 37.34999999999999,
                    "velocity": 0.36220472440944884,
                    "duration": 0.14999999999999858
                },
                {
                    "name": "D4",
                    "midi": 62,
                    "time": 37.499999999999986,
                    "velocity": 0.3858267716535433,
                    "duration": 0.29999999999999716
                },
                {
                    "name": "C#4",
                    "midi": 61,
                    "time": 37.79999999999998,
                    "velocity": 0.3464566929133858,
                    "duration": 0.6000000000000014
                },
                {
                    "name": "C#3",
                    "midi": 49,
                    "time": 38.399999999999984,
                    "velocity": 0.33070866141732286,
                    "duration": 0.29999999999999716
                },
                {
                    "name": "F#2",
                    "midi": 42,
                    "time": 38.69999999999998,
                    "velocity": 0.33070866141732286,
                    "duration": 0.6000000000000014
                },
                {
                    "name": "F#4",
                    "midi": 66,
                    "time": 39.29999999999998,
                    "velocity": 0.3858267716535433,
                    "duration": 0.29999999999999716
                },
                {
                    "name": "F4",
                    "midi": 65,
                    "time": 39.59999999999998,
                    "velocity": 0.3858267716535433,
                    "duration": 0.45000000000000284
                },
                {
                    "name": "E4",
                    "midi": 64,
                    "time": 40.04999999999998,
                    "velocity": 0.3543307086614173,
                    "duration": 0.14999999999999858
                },
                {
                    "name": "D4",
                    "midi": 62,
                    "time": 40.19999999999998,
                    "velocity": 0.3858267716535433,
                    "duration": 0.14999999999999858
                },
                {
                    "name": "C#4",
                    "midi": 61,
                    "time": 40.34999999999998,
                    "velocity": 0.3858267716535433,
                    "duration": 0.14999999999999858
                },
                {
                    "name": "E4",
                    "midi": 64,
                    "time": 40.49999999999998,
                    "velocity": 0.44881889763779526,
                    "duration": 0.45000000000000284
                },
                {
                    "name": "D4",
                    "midi": 62,
                    "time": 40.94999999999998,
                    "velocity": 0.36220472440944884,
                    "duration": 0.14999999999999858
                },
                {
                    "name": "B3",
                    "midi": 59,
                    "time": 41.09999999999998,
                    "velocity": 0.3858267716535433,
                    "duration": 0.14999999999999858
                },
                {
                    "name": "D4",
                    "midi": 62,
                    "time": 41.24999999999998,
                    "velocity": 0.3858267716535433,
                    "duration": 0.14999999999999858
                },
                {
                    "name": "C#4",
                    "midi": 61,
                    "time": 41.39999999999998,
                    "velocity": 0.3464566929133858,
                    "duration": 0.6000000000000014
                },
                {
                    "name": "C#3",
                    "midi": 49,
                    "time": 41.99999999999998,
                    "velocity": 0.33070866141732286,
                    "duration": 0.29999999999999716
                },
                {
                    "name": "F#2",
                    "midi": 42,
                    "time": 42.299999999999976,
                    "velocity": 0.33070866141732286,
                    "duration": 0.6000000000000014
                },
                {
                    "name": "C#4",
                    "midi": 61,
                    "time": 42.89999999999998,
                    "velocity": 0.3464566929133858,
                    "duration": 0.8999999999999986
                },
                {
                    "name": "F#3",
                    "midi": 54,
                    "time": 43.199999999999974,
                    "velocity": 0.3464566929133858,
                    "duration": 0.6000000000000014
                },
                {
                    "name": "C#3",
                    "midi": 49,
                    "time": 43.799999999999976,
                    "velocity": 0.33070866141732286,
                    "duration": 0.29999999999999716
                },
                {
                    "name": "F#2",
                    "midi": 42,
                    "time": 44.09999999999997,
                    "velocity": 0.33070866141732286,
                    "duration": 0.6000000000000014
                },
                {
                    "name": "C#4",
                    "midi": 61,
                    "time": 44.699999999999974,
                    "velocity": 0.3464566929133858,
                    "duration": 0.8999999999999986
                },
                {
                    "name": "F#3",
                    "midi": 54,
                    "time": 44.99999999999997,
                    "velocity": 0.3464566929133858,
                    "duration": 0.6000000000000014
                },
                {
                    "name": "C#4",
                    "midi": 61,
                    "time": 45.59999999999997,
                    "velocity": 0.3464566929133858,
                    "duration": 0.8999999999999986
                },
                {
                    "name": "F#3",
                    "midi": 54,
                    "time": 45.89999999999997,
                    "velocity": 0.3464566929133858,
                    "duration": 0.6000000000000014
                },
                {
                    "name": "C#4",
                    "midi": 61,
                    "time": 46.49999999999997,
                    "velocity": 0.3464566929133858,
                    "duration": 0.8999999999999986
                },
                {
                    "name": "F#3",
                    "midi": 54,
                    "time": 46.79999999999997,
                    "velocity": 0.36220472440944884,
                    "duration": 0.6000000000000014
                },
                {
                    "name": "B2",
                    "midi": 47,
                    "time": 47.39999999999997,
                    "velocity": 0.4409448818897638,
                    "duration": 0.6000000000000014
                },
                {
                    "name": "F#3",
                    "midi": 54,
                    "time": 47.39999999999997,
                    "velocity": 0.4409448818897638,
                    "duration": 0.6000000000000014
                },
                {
                    "name": "E2",
                    "midi": 40,
                    "time": 47.99999999999997,
                    "velocity": 0.4645669291338583,
                    "duration": 0.6000000000000014
                },
                {
                    "name": "B2",
                    "midi": 47,
                    "time": 47.99999999999997,
                    "velocity": 0.4645669291338583,
                    "duration": 0.6000000000000014
                },
                {
                    "name": "A4",
                    "midi": 69,
                    "time": 48.60874999999997,
                    "velocity": 0.4881889763779528,
                    "duration": 0.44999999999999574
                },
                {
                    "name": "G4",
                    "midi": 67,
                    "time": 49.04999999999997,
                    "velocity": 0.4409448818897638,
                    "duration": 0.14999999999999858
                },
                {
                    "name": "F#4",
                    "midi": 66,
                    "time": 49.19999999999997,
                    "velocity": 0.5118110236220472,
                    "duration": 0.29999999999999716
                },
                {
                    "name": "F#4",
                    "midi": 66,
                    "time": 49.499999999999964,
                    "velocity": 0.5196850393700787,
                    "duration": 0.6000000000000014
                },
                {
                    "name": "G4",
                    "midi": 67,
                    "time": 50.099999999999966,
                    "velocity": 0.3464566929133858,
                    "duration": 0.29999999999999716
                },
                {
                    "name": "F#4",
                    "midi": 66,
                    "time": 50.39999999999996,
                    "velocity": 0.4015748031496063,
                    "duration": 0.45000000000000284
                },
                {
                    "name": "E4",
                    "midi": 64,
                    "time": 50.849999999999966,
                    "velocity": 0.2125984251968504,
                    "duration": 0.14999999999999858
                },
                {
                    "name": "D4",
                    "midi": 62,
                    "time": 50.999999999999964,
                    "velocity": 0.25984251968503935,
                    "duration": 0.29999999999999716
                },
                {
                    "name": "G3",
                    "midi": 55,
                    "time": 51.29999999999996,
                    "velocity": 0.1968503937007874,
                    "duration": 0.5999999999999943
                },
                {
                    "name": "D4",
                    "midi": 62,
                    "time": 51.29999999999996,
                    "velocity": 0.2283464566929134,
                    "duration": 0.5974999999999966
                },
                {
                    "name": "B2",
                    "midi": 47,
                    "time": 51.899999999999956,
                    "velocity": 0.2755905511811024,
                    "duration": 0.14999999999999858
                },
                {
                    "name": "C#3",
                    "midi": 49,
                    "time": 52.049999999999955,
                    "velocity": 0.29133858267716534,
                    "duration": 0.14999999999999858
                },
                {
                    "name": "D3",
                    "midi": 50,
                    "time": 52.19999999999995,
                    "velocity": 0.31496062992125984,
                    "duration": 0.8999999999999986
                },
                {
                    "name": "F#2",
                    "midi": 42,
                    "time": 52.799999999999955,
                    "velocity": 0.3779527559055118,
                    "duration": 1.1999999999999957
                },
                {
                    "name": "E3",
                    "midi": 52,
                    "time": 53.09999999999995,
                    "velocity": 0.31496062992125984,
                    "duration": 0.45000000000000284
                },
                {
                    "name": "F#3",
                    "midi": 54,
                    "time": 53.549999999999955,
                    "velocity": 0.25196850393700787,
                    "duration": 0.14999999999999858
                },
                {
                    "name": "G3",
                    "midi": 55,
                    "time": 53.69999999999995,
                    "velocity": 0.2677165354330709,
                    "duration": 0.29999999999999716
                },
                {
                    "name": "B2",
                    "midi": 47,
                    "time": 53.99999999999995,
                    "velocity": 0.29133858267716534,
                    "duration": 0.5999999999999943
                },
                {
                    "name": "G3",
                    "midi": 55,
                    "time": 53.99999999999995,
                    "velocity": 0.29133858267716534,
                    "duration": 0.29999999999999716
                },
                {
                    "name": "F#3",
                    "midi": 54,
                    "time": 54.29999999999995,
                    "velocity": 0.2677165354330709,
                    "duration": 0.8999999999999915
                },
                {
                    "name": "F#2",
                    "midi": 42,
                    "time": 54.599999999999945,
                    "velocity": 0.23622047244094488,
                    "duration": 0.29999999999999716
                },
                {
                    "name": "B1",
                    "midi": 35,
                    "time": 54.89999999999994,
                    "velocity": 0.2125984251968504,
                    "duration": 0.29999999999999716
                }
            ],
            "controlChanges": {},
            "id": 2,
            "name": "Piano left",
            "instrumentNumber": 0,
            "instrument": "acoustic grand piano",
            "instrumentFamily": "piano",
            "channelNumber": 0,
            "isPercussion": false
        },
        {
            "startTime": 0,
            "duration": 0,
            "length": 0,
            "notes": [],
            "controlChanges": {
                "64": [
                    {
                        "number": 64,
                        "time": 5.15375,
                        "value": 1
                    },
                    {
                        "number": 64,
                        "time": 5.3999999999999995,
                        "value": 0
                    },
                    {
                        "number": 64,
                        "time": 5.55,
                        "value": 1
                    },
                    {
                        "number": 64,
                        "time": 6.32125,
                        "value": 0
                    },
                    {
                        "number": 64,
                        "time": 6.95,
                        "value": 1
                    },
                    {
                        "number": 64,
                        "time": 7.21125,
                        "value": 0
                    },
                    {
                        "number": 64,
                        "time": 7.2837499999999995,
                        "value": 1
                    },
                    {
                        "number": 64,
                        "time": 7.522499999999999,
                        "value": 0
                    },
                    {
                        "number": 64,
                        "time": 7.667499999999999,
                        "value": 1
                    },
                    {
                        "number": 64,
                        "time": 8.45,
                        "value": 0
                    },
                    {
                        "number": 64,
                        "time": 12.353749999999998,
                        "value": 1
                    },
                    {
                        "number": 64,
                        "time": 12.599999999999998,
                        "value": 0
                    },
                    {
                        "number": 64,
                        "time": 12.749999999999998,
                        "value": 1
                    },
                    {
                        "number": 64,
                        "time": 13.521249999999998,
                        "value": 0
                    },
                    {
                        "number": 64,
                        "time": 14.149999999999999,
                        "value": 1
                    },
                    {
                        "number": 64,
                        "time": 14.411249999999999,
                        "value": 0
                    },
                    {
                        "number": 64,
                        "time": 14.483749999999999,
                        "value": 1
                    },
                    {
                        "number": 64,
                        "time": 14.722499999999998,
                        "value": 0
                    },
                    {
                        "number": 64,
                        "time": 14.867499999999998,
                        "value": 1
                    },
                    {
                        "number": 64,
                        "time": 15.767499999999998,
                        "value": 0
                    },
                    {
                        "number": 64,
                        "time": 17.294999999999998,
                        "value": 1
                    },
                    {
                        "number": 64,
                        "time": 18.006249999999998,
                        "value": 0
                    },
                    {
                        "number": 64,
                        "time": 18.3175,
                        "value": 1
                    },
                    {
                        "number": 64,
                        "time": 19.5,
                        "value": 0
                    },
                    {
                        "number": 64,
                        "time": 20.8075,
                        "value": 1
                    },
                    {
                        "number": 64,
                        "time": 21.60625,
                        "value": 0
                    },
                    {
                        "number": 64,
                        "time": 21.7675,
                        "value": 1
                    },
                    {
                        "number": 64,
                        "time": 23.099999999999998,
                        "value": 0
                    },
                    {
                        "number": 64,
                        "time": 23.5675,
                        "value": 1
                    },
                    {
                        "number": 64,
                        "time": 24.9,
                        "value": 0
                    },
                    {
                        "number": 64,
                        "time": 25.3675,
                        "value": 1
                    },
                    {
                        "number": 64,
                        "time": 25.815,
                        "value": 0
                    },
                    {
                        "number": 64,
                        "time": 26.267500000000002,
                        "value": 1
                    },
                    {
                        "number": 64,
                        "time": 26.715000000000003,
                        "value": 0
                    },
                    {
                        "number": 64,
                        "time": 27.167500000000004,
                        "value": 1
                    },
                    {
                        "number": 64,
                        "time": 28.215000000000003,
                        "value": 0
                    },
                    {
                        "number": 64,
                        "time": 28.550000000000004,
                        "value": 1
                    },
                    {
                        "number": 64,
                        "time": 30.300000000000004,
                        "value": 0
                    },
                    {
                        "number": 64,
                        "time": 30.667500000000004,
                        "value": 1
                    },
                    {
                        "number": 64,
                        "time": 31.515000000000004,
                        "value": 0
                    },
                    {
                        "number": 64,
                        "time": 32.15375,
                        "value": 1
                    },
                    {
                        "number": 64,
                        "time": 32.400000000000006,
                        "value": 0
                    },
                    {
                        "number": 64,
                        "time": 32.550000000000004,
                        "value": 1
                    },
                    {
                        "number": 64,
                        "time": 33.321250000000006,
                        "value": 0
                    },
                    {
                        "number": 64,
                        "time": 33.95,
                        "value": 1
                    },
                    {
                        "number": 64,
                        "time": 34.21125,
                        "value": 0
                    },
                    {
                        "number": 64,
                        "time": 34.28375,
                        "value": 1
                    },
                    {
                        "number": 64,
                        "time": 34.5225,
                        "value": 0
                    },
                    {
                        "number": 64,
                        "time": 34.667500000000004,
                        "value": 1
                    },
                    {
                        "number": 64,
                        "time": 35.5675,
                        "value": 0
                    },
                    {
                        "number": 64,
                        "time": 37.050000000000004,
                        "value": 1
                    },
                    {
                        "number": 64,
                        "time": 37.800000000000004,
                        "value": 0
                    },
                    {
                        "number": 64,
                        "time": 38.1,
                        "value": 1
                    },
                    {
                        "number": 64,
                        "time": 39.300000000000004,
                        "value": 0
                    },
                    {
                        "number": 64,
                        "time": 40.6075,
                        "value": 1
                    },
                    {
                        "number": 64,
                        "time": 41.4,
                        "value": 0
                    },
                    {
                        "number": 64,
                        "time": 41.567499999999995,
                        "value": 1
                    },
                    {
                        "number": 64,
                        "time": 42.9,
                        "value": 0
                    },
                    {
                        "number": 64,
                        "time": 43.3675,
                        "value": 1
                    },
                    {
                        "number": 64,
                        "time": 44.7,
                        "value": 0
                    },
                    {
                        "number": 64,
                        "time": 45.167500000000004,
                        "value": 1
                    },
                    {
                        "number": 64,
                        "time": 45.615,
                        "value": 0
                    },
                    {
                        "number": 64,
                        "time": 46.0675,
                        "value": 1
                    },
                    {
                        "number": 64,
                        "time": 46.515,
                        "value": 0
                    },
                    {
                        "number": 64,
                        "time": 46.9675,
                        "value": 1
                    },
                    {
                        "number": 64,
                        "time": 48.015,
                        "value": 0
                    },
                    {
                        "number": 64,
                        "time": 48.35,
                        "value": 1
                    },
                    {
                        "number": 64,
                        "time": 50.1,
                        "value": 0
                    },
                    {
                        "number": 64,
                        "time": 50.4675,
                        "value": 1
                    },
                    {
                        "number": 64,
                        "time": 51.315,
                        "value": 0
                    },
                    {
                        "number": 64,
                        "time": 51.95375,
                        "value": 1
                    },
                    {
                        "number": 64,
                        "time": 52.2,
                        "value": 0
                    },
                    {
                        "number": 64,
                        "time": 52.35,
                        "value": 1
                    },
                    {
                        "number": 64,
                        "time": 53.12125,
                        "value": 0
                    },
                    {
                        "number": 64,
                        "time": 53.75,
                        "value": 1
                    },
                    {
                        "number": 64,
                        "time": 54.01125,
                        "value": 0
                    },
                    {
                        "number": 64,
                        "time": 54.083749999999995,
                        "value": 1
                    },
                    {
                        "number": 64,
                        "time": 54.3225,
                        "value": 0
                    },
                    {
                        "number": 64,
                        "time": 54.4675,
                        "value": 1
                    },
                    {
                        "number": 64,
                        "time": 55.3675,
                        "value": 0
                    }
                ]
            },
            "id": 3,
            "name": "Pedale",
            "instrumentNumber": 0,
            "instrument": "acoustic grand piano",
            "instrumentFamily": "piano",
            "channelNumber": 0,
            "isPercussion": false
        },
        {
            "startTime": 0,
            "duration": 0,
            "length": 0,
            "notes": [],
            "controlChanges": {},
            "id": 4,
            "name": "Grieg: Lyric pieces Op. 43 No. 2 - Solitary Traveller"
        },
        {
            "startTime": 0,
            "duration": 0,
            "length": 0,
            "notes": [],
            "controlChanges": {},
            "id": 5,
            "name": "Copyright © 2007 by Bernd Krueger"
        },
        {
            "startTime": 0,
            "duration": 0,
            "length": 0,
            "notes": [],
            "controlChanges": {},
            "id": 6,
            "name": "http://www.piano-midi.de/"
        },
        {
            "startTime": 0,
            "duration": 0,
            "length": 0,
            "notes": [],
            "controlChanges": {},
            "id": 7,
            "name": "Edition: 2012-11-05"
        },
        {
            "startTime": 0,
            "duration": 0,
            "length": 0,
            "notes": [],
            "controlChanges": {},
            "id": 8,
            "name": "Spur 8"
        },
        {
            "startTime": 0,
            "duration": 0,
            "length": 0,
            "notes": [],
            "controlChanges": {},
            "id": 9,
            "name": "Spur 9"
        },
        {
            "startTime": 0,
            "duration": 0,
            "length": 0,
            "notes": [],
            "controlChanges": {},
            "id": 10,
            "name": "Spur 10"
        },
        {
            "startTime": 0,
            "duration": 0,
            "length": 0,
            "notes": [],
            "controlChanges": {},
            "id": 11,
            "name": "Spur 11"
        },
        {
            "startTime": 0,
            "duration": 0,
            "length": 0,
            "notes": [],
            "controlChanges": {},
            "id": 12,
            "name": "Spur 12"
        },
        {
            "startTime": 0,
            "duration": 0,
            "length": 0,
            "notes": [],
            "controlChanges": {},
            "id": 13,
            "name": "Spur 13"
        },
        {
            "startTime": 0,
            "duration": 0,
            "length": 0,
            "notes": [],
            "controlChanges": {},
            "id": 14,
            "name": "Spur 14"
        },
        {
            "startTime": 0,
            "duration": 0,
            "length": 0,
            "notes": [],
            "controlChanges": {},
            "id": 15,
            "name": "Spur 15"
        },
        {
            "startTime": 0,
            "duration": 0,
            "length": 0,
            "notes": [],
            "controlChanges": {},
            "id": 16,
            "name": "Spur 16"
        }
    ]
}