{
    "header": {
        "PPQ": 480,
        "timeSignature": [
            3,
            4
        ],
        "bpm": 140.00014000014,
        "name": "Lyric Pieces Op. 12 No. 12 Valse"
    },
    "startTime": 0,
    "duration": 100.71418500000019,
    "tracks": [
        {
            "startTime": 0,
            "duration": 0,
            "length": 0,
            "notes": [],
            "controlChanges": {},
            "id": 0,
            "name": "Lyric Pieces Op. 12 No. 12 Valse"
        },
        {
            "startTime": 2.571426,
            "duration": 100.28561399999992,
            "length": 304,
            "notes": [
                {
                    "name": "E4",
                    "midi": 64,
                    "time": 2.571426,
                    "velocity": 0.3937007874015748,
                    "duration": 0.42857100000000026
                },
                {
                    "name": "F#4",
                    "midi": 66,
                    "time": 2.9999970000000005,
                    "velocity": 0.3858267716535433,
                    "duration": 0.10714274999999995
                },
                {
                    "name": "G#4",
                    "midi": 68,
                    "time": 3.2142825000000004,
                    "velocity": 0.3858267716535433,
                    "duration": 0.0535713750000002
                },
                {
                    "name": "A4",
                    "midi": 69,
                    "time": 3.4285680000000007,
                    "velocity": 0.41732283464566927,
                    "duration": 0.2142854999999999
                },
                {
                    "name": "A4",
                    "midi": 69,
                    "time": 3.8571390000000005,
                    "velocity": 0.4409448818897638,
                    "duration": 0.42857100000000026
                },
                {
                    "name": "B4",
                    "midi": 71,
                    "time": 4.285710000000001,
                    "velocity": 0.4566929133858268,
                    "duration": 0.1071427500000004
                },
                {
                    "name": "G#4",
                    "midi": 68,
                    "time": 4.499995500000002,
                    "velocity": 0.3937007874015748,
                    "duration": 0.053571374999999755
                },
                {
                    "name": "F#4",
                    "midi": 66,
                    "time": 4.7142810000000015,
                    "velocity": 0.3779527559055118,
                    "duration": 0.1071427500000004
                },
                {
                    "name": "A4",
                    "midi": 69,
                    "time": 5.089280625000002,
                    "velocity": 0.30708661417322836,
                    "duration": 0.053571374999999755
                },
                {
                    "name": "F#4",
                    "midi": 66,
                    "time": 5.142852000000001,
                    "velocity": 0.3937007874015748,
                    "duration": 0.1071427500000004
                },
                {
                    "name": "E4",
                    "midi": 64,
                    "time": 5.571423000000002,
                    "velocity": 0.3700787401574803,
                    "duration": 1.2857130000000003
                },
                {
                    "name": "E4",
                    "midi": 64,
                    "time": 7.928563500000003,
                    "velocity": 0.33858267716535434,
                    "duration": 0.10714274999999951
                },
                {
                    "name": "F#4",
                    "midi": 66,
                    "time": 8.142849000000002,
                    "velocity": 0.36220472440944884,
                    "duration": 0.05357137500000064
                },
                {
                    "name": "G#4",
                    "midi": 68,
                    "time": 8.357134500000003,
                    "velocity": 0.3858267716535433,
                    "duration": 0.05357137500000064
                },
                {
                    "name": "G#4",
                    "midi": 68,
                    "time": 8.571420000000003,
                    "velocity": 0.4251968503937008,
                    "duration": 0.2142855000000008
                },
                {
                    "name": "A4",
                    "midi": 69,
                    "time": 8.785705500000004,
                    "velocity": 0.4015748031496063,
                    "duration": 0.2142855000000008
                },
                {
                    "name": "A4",
                    "midi": 69,
                    "time": 9.214276500000006,
                    "velocity": 0.4015748031496063,
                    "duration": 0.05357137500000064
                },
                {
                    "name": "B4",
                    "midi": 71,
                    "time": 9.428562000000007,
                    "velocity": 0.4409448818897638,
                    "duration": 0.05357137500000064
                },
                {
                    "name": "G#4",
                    "midi": 68,
                    "time": 9.642847500000007,
                    "velocity": 0.3937007874015748,
                    "duration": 0.05357137500000064
                },
                {
                    "name": "G#4",
                    "midi": 68,
                    "time": 9.857133000000008,
                    "velocity": 0.3779527559055118,
                    "duration": 0.2142855000000008
                },
                {
                    "name": "F#4",
                    "midi": 66,
                    "time": 10.071418500000009,
                    "velocity": 0.3937007874015748,
                    "duration": 0.10714274999999951
                },
                {
                    "name": "A4",
                    "midi": 69,
                    "time": 10.232132625000009,
                    "velocity": 0.30708661417322836,
                    "duration": 0.05357137500000064
                },
                {
                    "name": "F#4",
                    "midi": 66,
                    "time": 10.28570400000001,
                    "velocity": 0.3937007874015748,
                    "duration": 0.10714274999999951
                },
                {
                    "name": "E4",
                    "midi": 64,
                    "time": 10.71427500000001,
                    "velocity": 0.3700787401574803,
                    "duration": 1.2857129999999994
                },
                {
                    "name": "G4",
                    "midi": 67,
                    "time": 12.857130000000009,
                    "velocity": 0.29133858267716534,
                    "duration": 0.21517835625000004
                },
                {
                    "name": "E5",
                    "midi": 76,
                    "time": 12.857130000000009,
                    "velocity": 0.3464566929133858,
                    "duration": 0.21517835625000004
                },
                {
                    "name": "E5",
                    "midi": 76,
                    "time": 13.285701000000008,
                    "velocity": 0.3779527559055118,
                    "duration": 0.21517835625000004
                },
                {
                    "name": "G#4",
                    "midi": 68,
                    "time": 13.285701000000008,
                    "velocity": 0.31496062992125984,
                    "duration": 0.21517835625000004
                },
                {
                    "name": "A4",
                    "midi": 69,
                    "time": 13.714272000000008,
                    "velocity": 0.3464566929133858,
                    "duration": 0.21517835625000004
                },
                {
                    "name": "E5",
                    "midi": 76,
                    "time": 13.714272000000008,
                    "velocity": 0.4094488188976378,
                    "duration": 0.21517835625000004
                },
                {
                    "name": "B4",
                    "midi": 71,
                    "time": 14.142843000000008,
                    "velocity": 0.3543307086614173,
                    "duration": 1.2857129999999977
                },
                {
                    "name": "E5",
                    "midi": 76,
                    "time": 14.142843000000008,
                    "velocity": 0.4251968503937008,
                    "duration": 0.14285699999999935
                },
                {
                    "name": "D5",
                    "midi": 74,
                    "time": 14.285700000000007,
                    "velocity": 0.3464566929133858,
                    "duration": 0.14285699999999935
                },
                {
                    "name": "C5",
                    "midi": 72,
                    "time": 14.428557000000007,
                    "velocity": 0.3464566929133858,
                    "duration": 0.14285699999999935
                },
                {
                    "name": "D5",
                    "midi": 74,
                    "time": 14.571414000000006,
                    "velocity": 0.3779527559055118,
                    "duration": 0.8571419999999996
                },
                {
                    "name": "C5",
                    "midi": 72,
                    "time": 15.428556000000006,
                    "velocity": 0.3464566929133858,
                    "duration": 0.21607121249999928
                },
                {
                    "name": "E4",
                    "midi": 64,
                    "time": 15.428556000000006,
                    "velocity": 0.29133858267716534,
                    "duration": 0.21607121249999928
                },
                {
                    "name": "C5",
                    "midi": 72,
                    "time": 15.857127000000006,
                    "velocity": 0.3779527559055118,
                    "duration": 0.21607121250000105
                },
                {
                    "name": "F4",
                    "midi": 65,
                    "time": 15.857127000000006,
                    "velocity": 0.31496062992125984,
                    "duration": 0.21607121250000105
                },
                {
                    "name": "F#4",
                    "midi": 66,
                    "time": 16.285698000000007,
                    "velocity": 0.3464566929133858,
                    "duration": 0.21607121250000105
                },
                {
                    "name": "C5",
                    "midi": 72,
                    "time": 16.285698000000007,
                    "velocity": 0.4094488188976378,
                    "duration": 0.21607121250000105
                },
                {
                    "name": "G4",
                    "midi": 67,
                    "time": 16.71426900000001,
                    "velocity": 0.3543307086614173,
                    "duration": 1.2857129999999977
                },
                {
                    "name": "C5",
                    "midi": 72,
                    "time": 16.71426900000001,
                    "velocity": 0.4251968503937008,
                    "duration": 0.14285699999999935
                },
                {
                    "name": "B4",
                    "midi": 71,
                    "time": 16.857126000000008,
                    "velocity": 0.3464566929133858,
                    "duration": 0.14285699999999935
                },
                {
                    "name": "A4",
                    "midi": 69,
                    "time": 16.999983000000007,
                    "velocity": 0.3464566929133858,
                    "duration": 0.14285699999999935
                },
                {
                    "name": "B4",
                    "midi": 71,
                    "time": 17.142840000000007,
                    "velocity": 0.3779527559055118,
                    "duration": 0.8571419999999996
                },
                {
                    "name": "F4",
                    "midi": 65,
                    "time": 17.999982000000006,
                    "velocity": 0.3543307086614173,
                    "duration": 1.2857129999999977
                },
                {
                    "name": "B4",
                    "midi": 71,
                    "time": 17.999982000000006,
                    "velocity": 0.4251968503937008,
                    "duration": 0.14285699999999935
                },
                {
                    "name": "A4",
                    "midi": 69,
                    "time": 18.142839000000006,
                    "velocity": 0.3464566929133858,
                    "duration": 0.14285699999999935
                },
                {
                    "name": "G4",
                    "midi": 67,
                    "time": 18.285696000000005,
                    "velocity": 0.3464566929133858,
                    "duration": 0.14285699999999935
                },
                {
                    "name": "A4",
                    "midi": 69,
                    "time": 18.428553000000004,
                    "velocity": 0.3779527559055118,
                    "duration": 0.8571419999999996
                },
                {
                    "name": "F4",
                    "midi": 65,
                    "time": 19.285695000000004,
                    "velocity": 0.4645669291338583,
                    "duration": 0.14285699999999935
                },
                {
                    "name": "G4",
                    "midi": 67,
                    "time": 19.285695000000004,
                    "velocity": 0.33858267716535434,
                    "duration": 1.2857130000000012
                },
                {
                    "name": "E4",
                    "midi": 64,
                    "time": 19.431230568750003,
                    "velocity": 0.3779527559055118,
                    "duration": 0.1428570000000029
                },
                {
                    "name": "D4",
                    "midi": 62,
                    "time": 19.569623287500004,
                    "velocity": 0.3779527559055118,
                    "duration": 0.1428570000000029
                },
                {
                    "name": "E4",
                    "midi": 64,
                    "time": 19.714266000000006,
                    "velocity": 0.4094488188976378,
                    "duration": 0.8571419999999996
                },
                {
                    "name": "C4",
                    "midi": 60,
                    "time": 20.571408000000005,
                    "velocity": 0.4015748031496063,
                    "duration": 0.4285710000000016
                },
                {
                    "name": "F4",
                    "midi": 65,
                    "time": 20.571408000000005,
                    "velocity": 0.48031496062992124,
                    "duration": 0.4285710000000016
                },
                {
                    "name": "G4",
                    "midi": 67,
                    "time": 20.999979000000007,
                    "velocity": 0.48031496062992124,
                    "duration": 0.10714275000000129
                },
                {
                    "name": "C4",
                    "midi": 60,
                    "time": 20.999979000000007,
                    "velocity": 0.4015748031496063,
                    "duration": 0.10714275000000129
                },
                {
                    "name": "A4",
                    "midi": 69,
                    "time": 21.21426450000001,
                    "velocity": 0.44881889763779526,
                    "duration": 0.10714275000000129
                },
                {
                    "name": "C4",
                    "midi": 60,
                    "time": 21.21426450000001,
                    "velocity": 0.3779527559055118,
                    "duration": 0.10714275000000129
                },
                {
                    "name": "F4",
                    "midi": 65,
                    "time": 21.428550000000012,
                    "velocity": 0.5196850393700787,
                    "duration": 0.16071412499999838
                },
                {
                    "name": "C4",
                    "midi": 60,
                    "time": 21.428550000000012,
                    "velocity": 0.4409448818897638,
                    "duration": 0.16071412499999838
                },
                {
                    "name": "D4",
                    "midi": 62,
                    "time": 21.85712100000001,
                    "velocity": 0.3779527559055118,
                    "duration": 0.16071412499999838
                },
                {
                    "name": "B3",
                    "midi": 59,
                    "time": 21.85712100000001,
                    "velocity": 0.31496062992125984,
                    "duration": 0.16071412499999838
                },
                {
                    "name": "E4",
                    "midi": 64,
                    "time": 22.285692000000008,
                    "velocity": 0.3228346456692913,
                    "duration": 0.8571419999999996
                },
                {
                    "name": "B3",
                    "midi": 59,
                    "time": 22.285692000000008,
                    "velocity": 0.2677165354330709,
                    "duration": 0.8571419999999996
                },
                {
                    "name": "E4",
                    "midi": 64,
                    "time": 25.714260000000007,
                    "velocity": 0.3937007874015748,
                    "duration": 0.4285710000000016
                },
                {
                    "name": "F#4",
                    "midi": 66,
                    "time": 26.142831000000008,
                    "velocity": 0.3779527559055118,
                    "duration": 0.10714275000000129
                },
                {
                    "name": "G#4",
                    "midi": 68,
                    "time": 26.35711650000001,
                    "velocity": 0.36220472440944884,
                    "duration": 0.05357137500000064
                },
                {
                    "name": "A4",
                    "midi": 69,
                    "time": 26.57140200000001,
                    "velocity": 0.41732283464566927,
                    "duration": 0.21428549999999902
                },
                {
                    "name": "A4",
                    "midi": 69,
                    "time": 26.999973000000008,
                    "velocity": 0.4251968503937008,
                    "duration": 0.4285710000000016
                },
                {
                    "name": "B4",
                    "midi": 71,
                    "time": 27.42854400000001,
                    "velocity": 0.4566929133858268,
                    "duration": 0.10714275000000129
                },
                {
                    "name": "G#4",
                    "midi": 68,
                    "time": 27.642829500000012,
                    "velocity": 0.41732283464566927,
                    "duration": 0.05357137500000064
                },
                {
                    "name": "F#4",
                    "midi": 66,
                    "time": 27.85711500000001,
                    "velocity": 0.3779527559055118,
                    "duration": 0.21428549999999902
                },
                {
                    "name": "A4",
                    "midi": 69,
                    "time": 28.23211462500001,
                    "velocity": 0.30708661417322836,
                    "duration": 0.05357137500000064
                },
                {
                    "name": "F#4",
                    "midi": 66,
                    "time": 28.28568600000001,
                    "velocity": 0.3937007874015748,
                    "duration": 0.10714275000000129
                },
                {
                    "name": "E4",
                    "midi": 64,
                    "time": 28.71425700000001,
                    "velocity": 0.3700787401574803,
                    "duration": 1.2857130000000012
                },
                {
                    "name": "E4",
                    "midi": 64,
                    "time": 31.07139750000001,
                    "velocity": 0.33858267716535434,
                    "duration": 0.05357137500000064
                },
                {
                    "name": "F#4",
                    "midi": 66,
                    "time": 31.28568300000001,
                    "velocity": 0.3779527559055118,
                    "duration": 0.05357137500000064
                },
                {
                    "name": "G#4",
                    "midi": 68,
                    "time": 31.49996850000001,
                    "velocity": 0.3464566929133858,
                    "duration": 0.05357137500000064
                },
                {
                    "name": "G#4",
                    "midi": 68,
                    "time": 31.714254000000007,
                    "velocity": 0.4251968503937008,
                    "duration": 0.21428549999999902
                },
                {
                    "name": "A4",
                    "midi": 69,
                    "time": 31.928539500000007,
                    "velocity": 0.3937007874015748,
                    "duration": 0.21428550000000257
                },
                {
                    "name": "A4",
                    "midi": 69,
                    "time": 32.35711050000001,
                    "velocity": 0.4094488188976378,
                    "duration": 0.05357137499999709
                },
                {
                    "name": "B4",
                    "midi": 71,
                    "time": 32.57139600000001,
                    "velocity": 0.4409448818897638,
                    "duration": 0.05357137499999709
                },
                {
                    "name": "G#4",
                    "midi": 68,
                    "time": 32.7856815,
                    "velocity": 0.3937007874015748,
                    "duration": 0.05357137499999709
                },
                {
                    "name": "G#4",
                    "midi": 68,
                    "time": 32.999967,
                    "velocity": 0.3779527559055118,
                    "duration": 0.21428550000000257
                },
                {
                    "name": "F#4",
                    "midi": 66,
                    "time": 33.2142525,
                    "velocity": 0.3937007874015748,
                    "duration": 0.10714275000000129
                },
                {
                    "name": "A4",
                    "midi": 69,
                    "time": 33.374966625,
                    "velocity": 0.30708661417322836,
                    "duration": 0.05357137499999709
                },
                {
                    "name": "F#4",
                    "midi": 66,
                    "time": 33.428537999999996,
                    "velocity": 0.3937007874015748,
                    "duration": 0.10714275000000129
                },
                {
                    "name": "E4",
                    "midi": 64,
                    "time": 33.857108999999994,
                    "velocity": 0.3700787401574803,
                    "duration": 1.2857130000000012
                },
                {
                    "name": "G4",
                    "midi": 67,
                    "time": 35.999964,
                    "velocity": 0.29133858267716534,
                    "duration": 0.2160712124999975
                },
                {
                    "name": "E5",
                    "midi": 76,
                    "time": 35.999964,
                    "velocity": 0.3464566929133858,
                    "duration": 0.2160712124999975
                },
                {
                    "name": "G#4",
                    "midi": 68,
                    "time": 36.428535,
                    "velocity": 0.31496062992125984,
                    "duration": 0.2160712124999975
                },
                {
                    "name": "E5",
                    "midi": 76,
                    "time": 36.428535,
                    "velocity": 0.3779527559055118,
                    "duration": 0.2160712124999975
                },
                {
                    "name": "A4",
                    "midi": 69,
                    "time": 36.857105999999995,
                    "velocity": 0.3464566929133858,
                    "duration": 0.2160712124999975
                },
                {
                    "name": "E5",
                    "midi": 76,
                    "time": 36.857105999999995,
                    "velocity": 0.4094488188976378,
                    "duration": 0.2160712124999975
                },
                {
                    "name": "E5",
                    "midi": 76,
                    "time": 37.28567699999999,
                    "velocity": 0.4251968503937008,
                    "duration": 0.14285699999999935
                },
                {
                    "name": "B4",
                    "midi": 71,
                    "time": 37.28567699999999,
                    "velocity": 0.3543307086614173,
                    "duration": 1.2857130000000012
                },
                {
                    "name": "D5",
                    "midi": 74,
                    "time": 37.42853399999999,
                    "velocity": 0.3464566929133858,
                    "duration": 0.14285699999999935
                },
                {
                    "name": "C5",
                    "midi": 72,
                    "time": 37.57139099999999,
                    "velocity": 0.3464566929133858,
                    "duration": 0.14285699999999935
                },
                {
                    "name": "D5",
                    "midi": 74,
                    "time": 37.71424799999999,
                    "velocity": 0.3779527559055118,
                    "duration": 0.8571420000000032
                },
                {
                    "name": "E4",
                    "midi": 64,
                    "time": 38.571389999999994,
                    "velocity": 0.29133858267716534,
                    "duration": 0.2160712124999975
                },
                {
                    "name": "C5",
                    "midi": 72,
                    "time": 38.571389999999994,
                    "velocity": 0.3464566929133858,
                    "duration": 0.2160712124999975
                },
                {
                    "name": "C5",
                    "midi": 72,
                    "time": 38.99996099999999,
                    "velocity": 0.3779527559055118,
                    "duration": 0.2160712124999975
                },
                {
                    "name": "F4",
                    "midi": 65,
                    "time": 38.99996099999999,
                    "velocity": 0.31496062992125984,
                    "duration": 0.2160712124999975
                },
                {
                    "name": "C5",
                    "midi": 72,
                    "time": 39.42853199999999,
                    "velocity": 0.4094488188976378,
                    "duration": 0.2160712124999975
                },
                {
                    "name": "F#4",
                    "midi": 66,
                    "time": 39.42853199999999,
                    "velocity": 0.3464566929133858,
                    "duration": 0.2160712124999975
                },
                {
                    "name": "C5",
                    "midi": 72,
                    "time": 39.85710299999999,
                    "velocity": 0.4251968503937008,
                    "duration": 0.14285699999999935
                },
                {
                    "name": "G4",
                    "midi": 67,
                    "time": 39.85710299999999,
                    "velocity": 0.3543307086614173,
                    "duration": 1.2857130000000012
                },
                {
                    "name": "B4",
                    "midi": 71,
                    "time": 39.99995999999999,
                    "velocity": 0.3464566929133858,
                    "duration": 0.14285699999999935
                },
                {
                    "name": "A4",
                    "midi": 69,
                    "time": 40.14281699999999,
                    "velocity": 0.3464566929133858,
                    "duration": 0.14285699999999935
                },
                {
                    "name": "B4",
                    "midi": 71,
                    "time": 40.285673999999986,
                    "velocity": 0.3779527559055118,
                    "duration": 0.8571420000000032
                },
                {
                    "name": "F4",
                    "midi": 65,
                    "time": 41.14281599999999,
                    "velocity": 0.3543307086614173,
                    "duration": 1.2857130000000012
                },
                {
                    "name": "B4",
                    "midi": 71,
                    "time": 41.14281599999999,
                    "velocity": 0.4251968503937008,
                    "duration": 0.14285699999999935
                },
                {
                    "name": "A4",
                    "midi": 69,
                    "time": 41.28567299999999,
                    "velocity": 0.3464566929133858,
                    "duration": 0.14285699999999935
                },
                {
                    "name": "G4",
                    "midi": 67,
                    "time": 41.42852999999999,
                    "velocity": 0.3464566929133858,
                    "duration": 0.14285699999999935
                },
                {
                    "name": "A4",
                    "midi": 69,
                    "time": 41.57138699999999,
                    "velocity": 0.3779527559055118,
                    "duration": 0.8571420000000032
                },
                {
                    "name": "F4",
                    "midi": 65,
                    "time": 42.42852899999999,
                    "velocity": 0.4645669291338583,
                    "duration": 0.14285699999999935
                },
                {
                    "name": "G4",
                    "midi": 67,
                    "time": 42.42852899999999,
                    "velocity": 0.3464566929133858,
                    "duration": 1.2857130000000012
                },
                {
                    "name": "E4",
                    "midi": 64,
                    "time": 42.57406456874999,
                    "velocity": 0.3779527559055118,
                    "duration": 0.14285699999999935
                },
                {
                    "name": "D4",
                    "midi": 62,
                    "time": 42.71245728749999,
                    "velocity": 0.3779527559055118,
                    "duration": 0.14285699999999935
                },
                {
                    "name": "E4",
                    "midi": 64,
                    "time": 42.85709999999999,
                    "velocity": 0.4094488188976378,
                    "duration": 0.8571420000000032
                },
                {
                    "name": "C4",
                    "midi": 60,
                    "time": 43.71424199999999,
                    "velocity": 0.4015748031496063,
                    "duration": 0.42857099999999804
                },
                {
                    "name": "F4",
                    "midi": 65,
                    "time": 43.71424199999999,
                    "velocity": 0.48031496062992124,
                    "duration": 0.42857099999999804
                },
                {
                    "name": "C4",
                    "midi": 60,
                    "time": 44.14281299999999,
                    "velocity": 0.4015748031496063,
                    "duration": 0.10714275000000129
                },
                {
                    "name": "G4",
                    "midi": 67,
                    "time": 44.14281299999999,
                    "velocity": 0.48031496062992124,
                    "duration": 0.10714275000000129
                },
                {
                    "name": "C4",
                    "midi": 60,
                    "time": 44.35709849999999,
                    "velocity": 0.3779527559055118,
                    "duration": 0.10714275000000129
                },
                {
                    "name": "A4",
                    "midi": 69,
                    "time": 44.35709849999999,
                    "velocity": 0.44881889763779526,
                    "duration": 0.10714275000000129
                },
                {
                    "name": "C4",
                    "midi": 60,
                    "time": 44.571383999999995,
                    "velocity": 0.4409448818897638,
                    "duration": 0.16071412499999838
                },
                {
                    "name": "F4",
                    "midi": 65,
                    "time": 44.571383999999995,
                    "velocity": 0.5196850393700787,
                    "duration": 0.16071412499999838
                },
                {
                    "name": "D4",
                    "midi": 62,
                    "time": 44.99995499999999,
                    "velocity": 0.3779527559055118,
                    "duration": 0.16071412499999838
                },
                {
                    "name": "B3",
                    "midi": 59,
                    "time": 44.99995499999999,
                    "velocity": 0.31496062992125984,
                    "duration": 0.16071412499999838
                },
                {
                    "name": "B3",
                    "midi": 59,
                    "time": 45.42852599999999,
                    "velocity": 0.2677165354330709,
                    "duration": 0.8571420000000032
                },
                {
                    "name": "E4",
                    "midi": 64,
                    "time": 45.42852599999999,
                    "velocity": 0.3228346456692913,
                    "duration": 0.8571420000000032
                },
                {
                    "name": "C#5",
                    "midi": 73,
                    "time": 46.71423899999999,
                    "velocity": 0.30708661417322836,
                    "duration": 0.42857099999999804
                },
                {
                    "name": "E5",
                    "midi": 76,
                    "time": 46.71423899999999,
                    "velocity": 0.3700787401574803,
                    "duration": 0.42857099999999804
                },
                {
                    "name": "C#5",
                    "midi": 73,
                    "time": 47.14280999999999,
                    "velocity": 0.30708661417322836,
                    "duration": 0.42857099999999804
                },
                {
                    "name": "E5",
                    "midi": 76,
                    "time": 47.14280999999999,
                    "velocity": 0.3700787401574803,
                    "duration": 0.42857099999999804
                },
                {
                    "name": "E5",
                    "midi": 76,
                    "time": 47.999951999999986,
                    "velocity": 0.3700787401574803,
                    "duration": 0.42857099999999804
                },
                {
                    "name": "G#4",
                    "midi": 68,
                    "time": 47.999951999999986,
                    "velocity": 0.30708661417322836,
                    "duration": 0.42857099999999804
                },
                {
                    "name": "D5",
                    "midi": 74,
                    "time": 47.999951999999986,
                    "velocity": 0.30708661417322836,
                    "duration": 0.42857099999999804
                },
                {
                    "name": "G#4",
                    "midi": 68,
                    "time": 48.428522999999984,
                    "velocity": 0.30708661417322836,
                    "duration": 0.42857099999999804
                },
                {
                    "name": "D5",
                    "midi": 74,
                    "time": 48.428522999999984,
                    "velocity": 0.30708661417322836,
                    "duration": 0.42857099999999804
                },
                {
                    "name": "E5",
                    "midi": 76,
                    "time": 48.428522999999984,
                    "velocity": 0.3700787401574803,
                    "duration": 0.42857099999999804
                },
                {
                    "name": "C#5",
                    "midi": 73,
                    "time": 49.28566499999998,
                    "velocity": 0.30708661417322836,
                    "duration": 0.42857099999999804
                },
                {
                    "name": "E5",
                    "midi": 76,
                    "time": 49.28566499999998,
                    "velocity": 0.3700787401574803,
                    "duration": 0.42857099999999804
                },
                {
                    "name": "C#5",
                    "midi": 73,
                    "time": 49.71423599999998,
                    "velocity": 0.30708661417322836,
                    "duration": 0.42857099999999804
                },
                {
                    "name": "E5",
                    "midi": 76,
                    "time": 49.71423599999998,
                    "velocity": 0.3700787401574803,
                    "duration": 0.42857099999999804
                },
                {
                    "name": "D5",
                    "midi": 74,
                    "time": 50.571377999999974,
                    "velocity": 0.2755905511811024,
                    "duration": 0.42857099999999804
                },
                {
                    "name": "G#4",
                    "midi": 68,
                    "time": 50.571377999999974,
                    "velocity": 0.2755905511811024,
                    "duration": 0.42857099999999804
                },
                {
                    "name": "E5",
                    "midi": 76,
                    "time": 50.571377999999974,
                    "velocity": 0.33070866141732286,
                    "duration": 0.42857099999999804
                },
                {
                    "name": "G#4",
                    "midi": 68,
                    "time": 50.99994899999997,
                    "velocity": 0.2755905511811024,
                    "duration": 0.42857099999999804
                },
                {
                    "name": "D5",
                    "midi": 74,
                    "time": 50.99994899999997,
                    "velocity": 0.2755905511811024,
                    "duration": 0.42857099999999804
                },
                {
                    "name": "E5",
                    "midi": 76,
                    "time": 50.99994899999997,
                    "velocity": 0.33070866141732286,
                    "duration": 0.42857099999999804
                },
                {
                    "name": "C#5",
                    "midi": 73,
                    "time": 51.85709099999997,
                    "velocity": 0.30708661417322836,
                    "duration": 0.42857099999999804
                },
                {
                    "name": "E5",
                    "midi": 76,
                    "time": 51.85709099999997,
                    "velocity": 0.3700787401574803,
                    "duration": 0.42857099999999804
                },
                {
                    "name": "E5",
                    "midi": 76,
                    "time": 52.28566199999997,
                    "velocity": 0.3700787401574803,
                    "duration": 0.42857099999999804
                },
                {
                    "name": "C#5",
                    "midi": 73,
                    "time": 52.28566199999997,
                    "velocity": 0.30708661417322836,
                    "duration": 0.42857099999999804
                },
                {
                    "name": "C#5",
                    "midi": 73,
                    "time": 53.14280399999996,
                    "velocity": 0.30708661417322836,
                    "duration": 0.42857099999999804
                },
                {
                    "name": "E5",
                    "midi": 76,
                    "time": 53.14280399999996,
                    "velocity": 0.3700787401574803,
                    "duration": 0.42857099999999804
                },
                {
                    "name": "C#5",
                    "midi": 73,
                    "time": 53.57137499999996,
                    "velocity": 0.30708661417322836,
                    "duration": 0.42857099999999804
                },
                {
                    "name": "E5",
                    "midi": 76,
                    "time": 53.57137499999996,
                    "velocity": 0.3700787401574803,
                    "duration": 0.42857099999999804
                },
                {
                    "name": "C#5",
                    "midi": 73,
                    "time": 54.42851699999996,
                    "velocity": 0.31496062992125984,
                    "duration": 0.42857099999999804
                },
                {
                    "name": "E5",
                    "midi": 76,
                    "time": 54.42851699999996,
                    "velocity": 0.3858267716535433,
                    "duration": 0.42857099999999804
                },
                {
                    "name": "C#5",
                    "midi": 73,
                    "time": 54.857087999999955,
                    "velocity": 0.31496062992125984,
                    "duration": 0.42857099999999804
                },
                {
                    "name": "E5",
                    "midi": 76,
                    "time": 54.857087999999955,
                    "velocity": 0.3858267716535433,
                    "duration": 0.42857099999999804
                },
                {
                    "name": "E5",
                    "midi": 76,
                    "time": 55.71422999999995,
                    "velocity": 0.33070866141732286,
                    "duration": 0.42857099999999804
                },
                {
                    "name": "C#5",
                    "midi": 73,
                    "time": 55.71422999999995,
                    "velocity": 0.2755905511811024,
                    "duration": 0.42857099999999804
                },
                {
                    "name": "C#5",
                    "midi": 73,
                    "time": 56.14280099999995,
                    "velocity": 0.2755905511811024,
                    "duration": 0.42857099999999804
                },
                {
                    "name": "E5",
                    "midi": 76,
                    "time": 56.14280099999995,
                    "velocity": 0.33070866141732286,
                    "duration": 0.42857099999999804
                },
                {
                    "name": "C#5",
                    "midi": 73,
                    "time": 56.999942999999945,
                    "velocity": 0.30708661417322836,
                    "duration": 0.42857099999999804
                },
                {
                    "name": "E5",
                    "midi": 76,
                    "time": 56.999942999999945,
                    "velocity": 0.3700787401574803,
                    "duration": 0.42857099999999804
                },
                {
                    "name": "C#5",
                    "midi": 73,
                    "time": 57.42851399999994,
                    "velocity": 0.30708661417322836,
                    "duration": 0.42857099999999804
                },
                {
                    "name": "E5",
                    "midi": 76,
                    "time": 57.42851399999994,
                    "velocity": 0.3700787401574803,
                    "duration": 0.42857099999999804
                },
                {
                    "name": "E5",
                    "midi": 76,
                    "time": 58.28565599999994,
                    "velocity": 0.3700787401574803,
                    "duration": 0.42857099999999804
                },
                {
                    "name": "G#4",
                    "midi": 68,
                    "time": 58.28565599999994,
                    "velocity": 0.30708661417322836,
                    "duration": 0.42857099999999804
                },
                {
                    "name": "D5",
                    "midi": 74,
                    "time": 58.28565599999994,
                    "velocity": 0.30708661417322836,
                    "duration": 0.42857099999999804
                },
                {
                    "name": "G#4",
                    "midi": 68,
                    "time": 58.71422699999994,
                    "velocity": 0.30708661417322836,
                    "duration": 0.42857099999999804
                },
                {
                    "name": "D5",
                    "midi": 74,
                    "time": 58.71422699999994,
                    "velocity": 0.30708661417322836,
                    "duration": 0.42857099999999804
                },
                {
                    "name": "E5",
                    "midi": 76,
                    "time": 58.71422699999994,
                    "velocity": 0.3700787401574803,
                    "duration": 0.42857099999999804
                },
                {
                    "name": "C#5",
                    "midi": 73,
                    "time": 59.57136899999993,
                    "velocity": 0.30708661417322836,
                    "duration": 0.42857099999999804
                },
                {
                    "name": "E5",
                    "midi": 76,
                    "time": 59.57136899999993,
                    "velocity": 0.3700787401574803,
                    "duration": 0.42857099999999804
                },
                {
                    "name": "C#5",
                    "midi": 73,
                    "time": 59.99993999999993,
                    "velocity": 0.30708661417322836,
                    "duration": 0.42857099999999804
                },
                {
                    "name": "E5",
                    "midi": 76,
                    "time": 59.99993999999993,
                    "velocity": 0.3700787401574803,
                    "duration": 0.42857099999999804
                },
                {
                    "name": "D5",
                    "midi": 74,
                    "time": 60.85708199999993,
                    "velocity": 0.2755905511811024,
                    "duration": 0.42857099999999804
                },
                {
                    "name": "G#4",
                    "midi": 68,
                    "time": 60.85708199999993,
                    "velocity": 0.2755905511811024,
                    "duration": 0.42857099999999804
                },
                {
                    "name": "E5",
                    "midi": 76,
                    "time": 60.85708199999993,
                    "velocity": 0.33070866141732286,
                    "duration": 0.42857099999999804
                },
                {
                    "name": "G#4",
                    "midi": 68,
                    "time": 61.285652999999925,
                    "velocity": 0.2755905511811024,
                    "duration": 0.42857099999999804
                },
                {
                    "name": "D5",
                    "midi": 74,
                    "time": 61.285652999999925,
                    "velocity": 0.2755905511811024,
                    "duration": 0.42857099999999804
                },
                {
                    "name": "E5",
                    "midi": 76,
                    "time": 61.285652999999925,
                    "velocity": 0.33070866141732286,
                    "duration": 0.42857099999999804
                },
                {
                    "name": "C#5",
                    "midi": 73,
                    "time": 62.14279499999992,
                    "velocity": 0.30708661417322836,
                    "duration": 0.42857099999999804
                },
                {
                    "name": "E5",
                    "midi": 76,
                    "time": 62.14279499999992,
                    "velocity": 0.3700787401574803,
                    "duration": 0.42857099999999804
                },
                {
                    "name": "E5",
                    "midi": 76,
                    "time": 62.57136599999992,
                    "velocity": 0.3700787401574803,
                    "duration": 0.42857099999999804
                },
                {
                    "name": "C#5",
                    "midi": 73,
                    "time": 62.57136599999992,
                    "velocity": 0.30708661417322836,
                    "duration": 0.42857099999999804
                },
                {
                    "name": "C#5",
                    "midi": 73,
                    "time": 63.428507999999916,
                    "velocity": 0.33070866141732286,
                    "duration": 0.42857099999999804
                },
                {
                    "name": "E5",
                    "midi": 76,
                    "time": 63.428507999999916,
                    "velocity": 0.4015748031496063,
                    "duration": 0.42857099999999804
                },
                {
                    "name": "C#5",
                    "midi": 73,
                    "time": 63.85707899999991,
                    "velocity": 0.33070866141732286,
                    "duration": 0.42857100000000514
                },
                {
                    "name": "E5",
                    "midi": 76,
                    "time": 63.85707899999991,
                    "velocity": 0.4015748031496063,
                    "duration": 0.42857100000000514
                },
                {
                    "name": "C#5",
                    "midi": 73,
                    "time": 64.71422099999992,
                    "velocity": 0.36220472440944884,
                    "duration": 0.42857100000000514
                },
                {
                    "name": "E5",
                    "midi": 76,
                    "time": 64.71422099999992,
                    "velocity": 0.4409448818897638,
                    "duration": 0.42857100000000514
                },
                {
                    "name": "C#5",
                    "midi": 73,
                    "time": 65.14279199999993,
                    "velocity": 0.36220472440944884,
                    "duration": 0.42857100000000514
                },
                {
                    "name": "E5",
                    "midi": 76,
                    "time": 65.14279199999993,
                    "velocity": 0.4409448818897638,
                    "duration": 0.42857100000000514
                },
                {
                    "name": "E5",
                    "midi": 76,
                    "time": 65.99993399999994,
                    "velocity": 0.48031496062992124,
                    "duration": 0.42857100000000514
                },
                {
                    "name": "C#5",
                    "midi": 73,
                    "time": 65.99993399999994,
                    "velocity": 0.3937007874015748,
                    "duration": 0.42857100000000514
                },
                {
                    "name": "C#5",
                    "midi": 73,
                    "time": 66.42850499999994,
                    "velocity": 0.3937007874015748,
                    "duration": 0.42857100000000514
                },
                {
                    "name": "E5",
                    "midi": 76,
                    "time": 66.42850499999994,
                    "velocity": 0.48031496062992124,
                    "duration": 0.42857100000000514
                },
                {
                    "name": "E4",
                    "midi": 64,
                    "time": 69.42850199999995,
                    "velocity": 0.3543307086614173,
                    "duration": 0.42857100000000514
                },
                {
                    "name": "F#4",
                    "midi": 66,
                    "time": 69.85707299999996,
                    "velocity": 0.33070866141732286,
                    "duration": 0.10714274999999418
                },
                {
                    "name": "G#4",
                    "midi": 68,
                    "time": 70.07135849999995,
                    "velocity": 0.30708661417322836,
                    "duration": 0.053571375000004195
                },
                {
                    "name": "A4",
                    "midi": 69,
                    "time": 70.28564399999995,
                    "velocity": 0.3700787401574803,
                    "duration": 0.21428550000000257
                },
                {
                    "name": "A4",
                    "midi": 69,
                    "time": 70.71421499999995,
                    "velocity": 0.3858267716535433,
                    "duration": 0.42857100000000514
                },
                {
                    "name": "B4",
                    "midi": 71,
                    "time": 71.14278599999996,
                    "velocity": 0.4094488188976378,
                    "duration": 0.10714274999999418
                },
                {
                    "name": "G#4",
                    "midi": 68,
                    "time": 71.35707149999995,
                    "velocity": 0.3543307086614173,
                    "duration": 0.053571375000004195
                },
                {
                    "name": "F#4",
                    "midi": 66,
                    "time": 71.57135699999995,
                    "velocity": 0.33858267716535434,
                    "duration": 0.21428550000000257
                },
                {
                    "name": "A4",
                    "midi": 69,
                    "time": 71.94635662499995,
                    "velocity": 0.2755905511811024,
                    "duration": 0.053571375000004195
                },
                {
                    "name": "F#4",
                    "midi": 66,
                    "time": 71.99992799999995,
                    "velocity": 0.3543307086614173,
                    "duration": 0.10714274999999418
                },
                {
                    "name": "E4",
                    "midi": 64,
                    "time": 72.42849899999995,
                    "velocity": 0.33070866141732286,
                    "duration": 1.2857130000000012
                },
                {
                    "name": "E4",
                    "midi": 64,
                    "time": 74.78563949999995,
                    "velocity": 0.2992125984251969,
                    "duration": 0.053571375000004195
                },
                {
                    "name": "F#4",
                    "midi": 66,
                    "time": 74.99992499999995,
                    "velocity": 0.33858267716535434,
                    "duration": 0.053571375000004195
                },
                {
                    "name": "G#4",
                    "midi": 68,
                    "time": 75.21421049999995,
                    "velocity": 0.30708661417322836,
                    "duration": 0.053571375000004195
                },
                {
                    "name": "G#4",
                    "midi": 68,
                    "time": 75.42849599999995,
                    "velocity": 0.3543307086614173,
                    "duration": 0.21428550000000257
                },
                {
                    "name": "A4",
                    "midi": 69,
                    "time": 75.64278149999996,
                    "velocity": 0.3543307086614173,
                    "duration": 0.21428550000000257
                },
                {
                    "name": "A4",
                    "midi": 69,
                    "time": 76.07135249999996,
                    "velocity": 0.36220472440944884,
                    "duration": 0.053571375000004195
                },
                {
                    "name": "B4",
                    "midi": 71,
                    "time": 76.28563799999996,
                    "velocity": 0.4015748031496063,
                    "duration": 0.053571375000004195
                },
                {
                    "name": "G#4",
                    "midi": 68,
                    "time": 76.49992349999997,
                    "velocity": 0.3543307086614173,
                    "duration": 0.053571375000004195
                },
                {
                    "name": "G#4",
                    "midi": 68,
                    "time": 76.71420899999997,
                    "velocity": 0.33858267716535434,
                    "duration": 0.21428550000000257
                },
                {
                    "name": "F#4",
                    "midi": 66,
                    "time": 76.92849449999997,
                    "velocity": 0.3543307086614173,
                    "duration": 0.10714274999999418
                },
                {
                    "name": "A4",
                    "midi": 69,
                    "time": 77.08920862499997,
                    "velocity": 0.2755905511811024,
                    "duration": 0.053571375000004195
                },
                {
                    "name": "F#4",
                    "midi": 66,
                    "time": 77.14277999999997,
                    "velocity": 0.3543307086614173,
                    "duration": 0.10714274999999418
                },
                {
                    "name": "E4",
                    "midi": 64,
                    "time": 77.57135099999996,
                    "velocity": 0.33070866141732286,
                    "duration": 1.2857130000000012
                },
                {
                    "name": "G4",
                    "midi": 67,
                    "time": 79.71420599999996,
                    "velocity": 0.29133858267716534,
                    "duration": 0.2160712124999975
                },
                {
                    "name": "E5",
                    "midi": 76,
                    "time": 79.71420599999996,
                    "velocity": 0.3464566929133858,
                    "duration": 0.2160712124999975
                },
                {
                    "name": "G#4",
                    "midi": 68,
                    "time": 80.14277699999995,
                    "velocity": 0.31496062992125984,
                    "duration": 0.2160712124999975
                },
                {
                    "name": "E5",
                    "midi": 76,
                    "time": 80.14277699999995,
                    "velocity": 0.3779527559055118,
                    "duration": 0.2160712124999975
                },
                {
                    "name": "E5",
                    "midi": 76,
                    "time": 80.57134799999994,
                    "velocity": 0.4094488188976378,
                    "duration": 0.2160712124999975
                },
                {
                    "name": "A4",
                    "midi": 69,
                    "time": 80.57134799999994,
                    "velocity": 0.3464566929133858,
                    "duration": 0.2160712124999975
                },
                {
                    "name": "B4",
                    "midi": 71,
                    "time": 80.99991899999993,
                    "velocity": 0.3543307086614173,
                    "duration": 1.2857130000000154
                },
                {
                    "name": "E5",
                    "midi": 76,
                    "time": 80.99991899999993,
                    "velocity": 0.4251968503937008,
                    "duration": 0.14285700000000645
                },
                {
                    "name": "D5",
                    "midi": 74,
                    "time": 81.14277599999994,
                    "velocity": 0.3464566929133858,
                    "duration": 0.14285700000000645
                },
                {
                    "name": "C5",
                    "midi": 72,
                    "time": 81.28563299999995,
                    "velocity": 0.3464566929133858,
                    "duration": 0.14285700000000645
                },
                {
                    "name": "D5",
                    "midi": 74,
                    "time": 81.42848999999995,
                    "velocity": 0.3779527559055118,
                    "duration": 0.8571419999999961
                },
                {
                    "name": "C5",
                    "midi": 72,
                    "time": 82.28563199999995,
                    "velocity": 0.3464566929133858,
                    "duration": 0.2160712124999975
                },
                {
                    "name": "E4",
                    "midi": 64,
                    "time": 82.28563199999995,
                    "velocity": 0.29133858267716534,
                    "duration": 0.2160712124999975
                },
                {
                    "name": "C5",
                    "midi": 72,
                    "time": 82.71420299999994,
                    "velocity": 0.3779527559055118,
                    "duration": 0.2160712124999975
                },
                {
                    "name": "F4",
                    "midi": 65,
                    "time": 82.71420299999994,
                    "velocity": 0.31496062992125984,
                    "duration": 0.2160712124999975
                },
                {
                    "name": "C5",
                    "midi": 72,
                    "time": 83.14277399999993,
                    "velocity": 0.4094488188976378,
                    "duration": 0.2160712124999975
                },
                {
                    "name": "F#4",
                    "midi": 66,
                    "time": 83.14277399999993,
                    "velocity": 0.3464566929133858,
                    "duration": 0.2160712124999975
                },
                {
                    "name": "G4",
                    "midi": 67,
                    "time": 83.57134499999992,
                    "velocity": 0.3543307086614173,
                    "duration": 1.2857130000000154
                },
                {
                    "name": "C5",
                    "midi": 72,
                    "time": 83.57134499999992,
                    "velocity": 0.4251968503937008,
                    "duration": 0.14285700000000645
                },
                {
                    "name": "B4",
                    "midi": 71,
                    "time": 83.71420199999993,
                    "velocity": 0.3464566929133858,
                    "duration": 0.14285700000000645
                },
                {
                    "name": "A4",
                    "midi": 69,
                    "time": 83.85705899999994,
                    "velocity": 0.3464566929133858,
                    "duration": 0.14285700000000645
                },
                {
                    "name": "B4",
                    "midi": 71,
                    "time": 83.99991599999994,
                    "velocity": 0.3779527559055118,
                    "duration": 0.8571419999999961
                },
                {
                    "name": "B4",
                    "midi": 71,
                    "time": 84.85705799999994,
                    "velocity": 0.4251968503937008,
                    "duration": 0.14285700000000645
                },
                {
                    "name": "F4",
                    "midi": 65,
                    "time": 84.85705799999994,
                    "velocity": 0.3543307086614173,
                    "duration": 1.2857130000000154
                },
                {
                    "name": "A4",
                    "midi": 69,
                    "time": 84.99991499999994,
                    "velocity": 0.3464566929133858,
                    "duration": 0.14285700000000645
                },
                {
                    "name": "G4",
                    "midi": 67,
                    "time": 85.14277199999995,
                    "velocity": 0.3464566929133858,
                    "duration": 0.14285700000000645
                },
                {
                    "name": "A4",
                    "midi": 69,
                    "time": 85.28562899999996,
                    "velocity": 0.3779527559055118,
                    "duration": 0.8571419999999961
                },
                {
                    "name": "G4",
                    "midi": 67,
                    "time": 86.14277099999995,
                    "velocity": 0.3858267716535433,
                    "duration": 1.285712999999987
                },
                {
                    "name": "F4",
                    "midi": 65,
                    "time": 86.14277099999995,
                    "velocity": 0.4645669291338583,
                    "duration": 0.14285700000000645
                },
                {
                    "name": "E4",
                    "midi": 64,
                    "time": 86.28830656874996,
                    "velocity": 0.3779527559055118,
                    "duration": 0.14285699999999224
                },
                {
                    "name": "D4",
                    "midi": 62,
                    "time": 86.42669928749996,
                    "velocity": 0.3779527559055118,
                    "duration": 0.14285699999999224
                },
                {
                    "name": "E4",
                    "midi": 64,
                    "time": 86.57134199999994,
                    "velocity": 0.4094488188976378,
                    "duration": 0.8571419999999961
                },
                {
                    "name": "C4",
                    "midi": 60,
                    "time": 87.42848399999994,
                    "velocity": 0.4015748031496063,
                    "duration": 0.42857100000000514
                },
                {
                    "name": "F4",
                    "midi": 65,
                    "time": 87.42848399999994,
                    "velocity": 0.48031496062992124,
                    "duration": 0.42857100000000514
                },
                {
                    "name": "C4",
                    "midi": 60,
                    "time": 87.85705499999995,
                    "velocity": 0.4015748031496063,
                    "duration": 0.10714274999999418
                },
                {
                    "name": "G4",
                    "midi": 67,
                    "time": 87.85705499999995,
                    "velocity": 0.48031496062992124,
                    "duration": 0.10714274999999418
                },
                {
                    "name": "C4",
                    "midi": 60,
                    "time": 88.07134049999993,
                    "velocity": 0.3779527559055118,
                    "duration": 0.10714274999999418
                },
                {
                    "name": "A4",
                    "midi": 69,
                    "time": 88.07134049999993,
                    "velocity": 0.44881889763779526,
                    "duration": 0.10714274999999418
                },
                {
                    "name": "C4",
                    "midi": 60,
                    "time": 88.28562599999992,
                    "velocity": 0.4409448818897638,
                    "duration": 0.16071412499999838
                },
                {
                    "name": "F4",
                    "midi": 65,
                    "time": 88.28562599999992,
                    "velocity": 0.5196850393700787,
                    "duration": 0.16071412499999838
                },
                {
                    "name": "B3",
                    "midi": 59,
                    "time": 88.71419699999993,
                    "velocity": 0.31496062992125984,
                    "duration": 0.16071412499999838
                },
                {
                    "name": "D4",
                    "midi": 62,
                    "time": 88.71419699999993,
                    "velocity": 0.3779527559055118,
                    "duration": 0.16071412499999838
                },
                {
                    "name": "E4",
                    "midi": 64,
                    "time": 89.14276799999993,
                    "velocity": 0.3228346456692913,
                    "duration": 0.8571419999999961
                },
                {
                    "name": "B3",
                    "midi": 59,
                    "time": 89.14276799999993,
                    "velocity": 0.2677165354330709,
                    "duration": 0.8571419999999961
                },
                {
                    "name": "A4",
                    "midi": 69,
                    "time": 89.99990999999993,
                    "velocity": 0.36220472440944884,
                    "duration": 0.8571419999999961
                },
                {
                    "name": "C#4",
                    "midi": 61,
                    "time": 89.99990999999993,
                    "velocity": 0.28346456692913385,
                    "duration": 1.2857130000000012
                },
                {
                    "name": "B4",
                    "midi": 71,
                    "time": 90.85705199999992,
                    "velocity": 0.3779527559055118,
                    "duration": 0.21428550000000257
                },
                {
                    "name": "G#4",
                    "midi": 68,
                    "time": 91.07133749999993,
                    "velocity": 0.3543307086614173,
                    "duration": 0.16071412499999838
                },
                {
                    "name": "A4",
                    "midi": 69,
                    "time": 91.23205162499993,
                    "velocity": 0.2755905511811024,
                    "duration": 0.053571375000004195
                },
                {
                    "name": "D4",
                    "midi": 62,
                    "time": 91.28562299999993,
                    "velocity": 0.28346456692913385,
                    "duration": 1.285712999999987
                },
                {
                    "name": "F#4",
                    "midi": 66,
                    "time": 91.28562299999993,
                    "velocity": 0.3543307086614173,
                    "duration": 0.21428550000000257
                },
                {
                    "name": "E4",
                    "midi": 64,
                    "time": 91.49990849999993,
                    "velocity": 0.3543307086614173,
                    "duration": 0.10714274999999418
                },
                {
                    "name": "E4",
                    "midi": 64,
                    "time": 91.71419399999992,
                    "velocity": 0.33070866141732286,
                    "duration": 0.8571419999999961
                },
                {
                    "name": "A4",
                    "midi": 69,
                    "time": 92.57133599999992,
                    "velocity": 0.36220472440944884,
                    "duration": 0.42857100000000514
                },
                {
                    "name": "C#4",
                    "midi": 61,
                    "time": 92.57133599999992,
                    "velocity": 0.28346456692913385,
                    "duration": 1.2857130000000154
                },
                {
                    "name": "B4",
                    "midi": 71,
                    "time": 92.99990699999992,
                    "velocity": 0.3779527559055118,
                    "duration": 0.21428550000000257
                },
                {
                    "name": "C#5",
                    "midi": 73,
                    "time": 93.21419249999992,
                    "velocity": 0.3779527559055118,
                    "duration": 0.21428550000000257
                },
                {
                    "name": "A4",
                    "midi": 69,
                    "time": 93.42847799999993,
                    "velocity": 0.3779527559055118,
                    "duration": 0.21428550000000257
                },
                {
                    "name": "F#4",
                    "midi": 66,
                    "time": 93.64276349999993,
                    "velocity": 0.3543307086614173,
                    "duration": 0.16071412499999838
                },
                {
                    "name": "G#4",
                    "midi": 68,
                    "time": 93.80347762499993,
                    "velocity": 0.2755905511811024,
                    "duration": 0.053571375000004195
                },
                {
                    "name": "D4",
                    "midi": 62,
                    "time": 93.85704899999993,
                    "velocity": 0.28346456692913385,
                    "duration": 1.232141624999997
                },
                {
                    "name": "F#4",
                    "midi": 66,
                    "time": 93.85704899999993,
                    "velocity": 0.3543307086614173,
                    "duration": 0.21428550000000257
                },
                {
                    "name": "E4",
                    "midi": 64,
                    "time": 94.07133449999994,
                    "velocity": 0.3543307086614173,
                    "duration": 0.10714274999999418
                },
                {
                    "name": "E4",
                    "midi": 64,
                    "time": 94.28561999999992,
                    "velocity": 0.33070866141732286,
                    "duration": 0.8035706250000061
                },
                {
                    "name": "A4",
                    "midi": 69,
                    "time": 95.08919062499993,
                    "velocity": 0.2755905511811024,
                    "duration": 0.053571375000004195
                },
                {
                    "name": "C#4",
                    "midi": 61,
                    "time": 95.14276199999993,
                    "velocity": 0.28346456692913385,
                    "duration": 1.7142839999999921
                },
                {
                    "name": "F#4",
                    "midi": 66,
                    "time": 95.14276199999993,
                    "velocity": 0.3543307086614173,
                    "duration": 0.10714274999999418
                },
                {
                    "name": "E4",
                    "midi": 64,
                    "time": 95.57133299999992,
                    "velocity": 0.33070866141732286,
                    "duration": 1.2857130000000012
                },
                {
                    "name": "A4",
                    "midi": 69,
                    "time": 97.66061662499993,
                    "velocity": 0.2440944881889764,
                    "duration": 0.053571375000004195
                },
                {
                    "name": "C4",
                    "midi": 60,
                    "time": 97.71418799999994,
                    "velocity": 0.25196850393700787,
                    "duration": 2.571425999999988
                },
                {
                    "name": "F4",
                    "midi": 65,
                    "time": 97.71418799999994,
                    "velocity": 0.31496062992125984,
                    "duration": 0.10714274999999418
                },
                {
                    "name": "E4",
                    "midi": 64,
                    "time": 98.14275899999993,
                    "velocity": 0.29133858267716534,
                    "duration": 2.1428549999999973
                }
            ],
            "controlChanges": {
                "7": [
                    {
                        "number": 7,
                        "time": 0,
                        "value": 0.7952755905511811
                    }
                ]
            },
            "id": 1,
            "name": "Piano right",
            "instrumentNumber": 0,
            "instrument": "acoustic grand piano",
            "instrumentFamily": "piano",
            "channelNumber": 0,
            "isPercussion": false
        },
        {
            "startTime": 0,
            "duration": 100.71418500000019,
            "length": 323,
            "notes": [
                {
                    "name": "A2",
                    "midi": 45,
                    "time": 0,
                    "velocity": 0.28346456692913385,
                    "duration": 0.42857100000000004
                },
                {
                    "name": "C4",
                    "midi": 60,
                    "time": 0.42857100000000004,
                    "velocity": 0.2204724409448819,
                    "duration": 0.42857100000000004
                },
                {
                    "name": "E3",
                    "midi": 52,
                    "time": 0.42857100000000004,
                    "velocity": 0.1889763779527559,
                    "duration": 0.42857100000000004
                },
                {
                    "name": "E3",
                    "midi": 52,
                    "time": 0.8571420000000001,
                    "velocity": 0.1889763779527559,
                    "duration": 0.42857100000000004
                },
                {
                    "name": "C4",
                    "midi": 60,
                    "time": 0.8571420000000001,
                    "velocity": 0.2283464566929134,
                    "duration": 0.42857100000000004
                },
                {
                    "name": "A2",
                    "midi": 45,
                    "time": 1.285713,
                    "velocity": 0.28346456692913385,
                    "duration": 0.42857100000000004
                },
                {
                    "name": "E3",
                    "midi": 52,
                    "time": 1.7142840000000001,
                    "velocity": 0.1889763779527559,
                    "duration": 0.4285709999999998
                },
                {
                    "name": "C4",
                    "midi": 60,
                    "time": 1.7142840000000001,
                    "velocity": 0.2204724409448819,
                    "duration": 0.4285709999999998
                },
                {
                    "name": "C4",
                    "midi": 60,
                    "time": 2.142855,
                    "velocity": 0.2283464566929134,
                    "duration": 0.4285709999999998
                },
                {
                    "name": "E3",
                    "midi": 52,
                    "time": 2.142855,
                    "velocity": 0.1889763779527559,
                    "duration": 0.4285709999999998
                },
                {
                    "name": "A2",
                    "midi": 45,
                    "time": 2.5714259999999998,
                    "velocity": 0.28346456692913385,
                    "duration": 0.4285709999999998
                },
                {
                    "name": "E3",
                    "midi": 52,
                    "time": 2.9999969999999996,
                    "velocity": 0.1889763779527559,
                    "duration": 0.4285709999999998
                },
                {
                    "name": "C4",
                    "midi": 60,
                    "time": 2.9999969999999996,
                    "velocity": 0.2283464566929134,
                    "duration": 0.4285709999999998
                },
                {
                    "name": "C4",
                    "midi": 60,
                    "time": 3.4285679999999994,
                    "velocity": 0.2283464566929134,
                    "duration": 0.4285709999999998
                },
                {
                    "name": "E3",
                    "midi": 52,
                    "time": 3.4285679999999994,
                    "velocity": 0.1889763779527559,
                    "duration": 0.4285709999999998
                },
                {
                    "name": "A2",
                    "midi": 45,
                    "time": 3.857138999999999,
                    "velocity": 0.28346456692913385,
                    "duration": 0.4285709999999998
                },
                {
                    "name": "D4",
                    "midi": 62,
                    "time": 4.285709999999999,
                    "velocity": 0.2204724409448819,
                    "duration": 0.4285709999999998
                },
                {
                    "name": "E3",
                    "midi": 52,
                    "time": 4.285709999999999,
                    "velocity": 0.1889763779527559,
                    "duration": 0.4285709999999998
                },
                {
                    "name": "D4",
                    "midi": 62,
                    "time": 4.714280999999999,
                    "velocity": 0.2283464566929134,
                    "duration": 0.4285709999999998
                },
                {
                    "name": "E3",
                    "midi": 52,
                    "time": 4.714280999999999,
                    "velocity": 0.1889763779527559,
                    "duration": 0.4285709999999998
                },
                {
                    "name": "A2",
                    "midi": 45,
                    "time": 5.142851999999999,
                    "velocity": 0.28346456692913385,
                    "duration": 0.4285709999999998
                },
                {
                    "name": "C4",
                    "midi": 60,
                    "time": 5.5714229999999985,
                    "velocity": 0.2047244094488189,
                    "duration": 0.4285709999999998
                },
                {
                    "name": "E3",
                    "midi": 52,
                    "time": 5.5714229999999985,
                    "velocity": 0.16535433070866143,
                    "duration": 0.4285709999999998
                },
                {
                    "name": "C4",
                    "midi": 60,
                    "time": 5.999993999999998,
                    "velocity": 0.2047244094488189,
                    "duration": 0.4285709999999998
                },
                {
                    "name": "E3",
                    "midi": 52,
                    "time": 5.999993999999998,
                    "velocity": 0.16535433070866143,
                    "duration": 0.4285709999999998
                },
                {
                    "name": "A2",
                    "midi": 45,
                    "time": 6.428564999999998,
                    "velocity": 0.28346456692913385,
                    "duration": 0.4285709999999998
                },
                {
                    "name": "E3",
                    "midi": 52,
                    "time": 6.857135999999998,
                    "velocity": 0.16535433070866143,
                    "duration": 0.4285709999999998
                },
                {
                    "name": "C4",
                    "midi": 60,
                    "time": 6.857135999999998,
                    "velocity": 0.1968503937007874,
                    "duration": 0.4285709999999998
                },
                {
                    "name": "C4",
                    "midi": 60,
                    "time": 7.285706999999998,
                    "velocity": 0.2047244094488189,
                    "duration": 0.4285709999999998
                },
                {
                    "name": "E3",
                    "midi": 52,
                    "time": 7.285706999999998,
                    "velocity": 0.16535433070866143,
                    "duration": 0.4285709999999998
                },
                {
                    "name": "A2",
                    "midi": 45,
                    "time": 7.7142779999999975,
                    "velocity": 0.28346456692913385,
                    "duration": 0.4285710000000007
                },
                {
                    "name": "C4",
                    "midi": 60,
                    "time": 8.142848999999998,
                    "velocity": 0.2283464566929134,
                    "duration": 0.4285709999999998
                },
                {
                    "name": "E3",
                    "midi": 52,
                    "time": 8.142848999999998,
                    "velocity": 0.1889763779527559,
                    "duration": 0.4285709999999998
                },
                {
                    "name": "E3",
                    "midi": 52,
                    "time": 8.571419999999998,
                    "velocity": 0.1889763779527559,
                    "duration": 0.4285709999999998
                },
                {
                    "name": "C4",
                    "midi": 60,
                    "time": 8.571419999999998,
                    "velocity": 0.2283464566929134,
                    "duration": 0.4285709999999998
                },
                {
                    "name": "A2",
                    "midi": 45,
                    "time": 8.999990999999998,
                    "velocity": 0.28346456692913385,
                    "duration": 0.4285709999999998
                },
                {
                    "name": "E3",
                    "midi": 52,
                    "time": 9.428561999999998,
                    "velocity": 0.1889763779527559,
                    "duration": 0.4285709999999998
                },
                {
                    "name": "D4",
                    "midi": 62,
                    "time": 9.428561999999998,
                    "velocity": 0.2204724409448819,
                    "duration": 0.4285709999999998
                },
                {
                    "name": "D4",
                    "midi": 62,
                    "time": 9.857132999999997,
                    "velocity": 0.2283464566929134,
                    "duration": 0.4285709999999998
                },
                {
                    "name": "E3",
                    "midi": 52,
                    "time": 9.857132999999997,
                    "velocity": 0.1889763779527559,
                    "duration": 0.4285709999999998
                },
                {
                    "name": "A2",
                    "midi": 45,
                    "time": 10.285703999999997,
                    "velocity": 0.28346456692913385,
                    "duration": 0.4285709999999998
                },
                {
                    "name": "C4",
                    "midi": 60,
                    "time": 10.714274999999997,
                    "velocity": 0.2047244094488189,
                    "duration": 0.4285709999999998
                },
                {
                    "name": "E3",
                    "midi": 52,
                    "time": 10.714274999999997,
                    "velocity": 0.16535433070866143,
                    "duration": 0.4285709999999998
                },
                {
                    "name": "C4",
                    "midi": 60,
                    "time": 11.142845999999997,
                    "velocity": 0.2047244094488189,
                    "duration": 0.4285709999999998
                },
                {
                    "name": "E3",
                    "midi": 52,
                    "time": 11.142845999999997,
                    "velocity": 0.16535433070866143,
                    "duration": 0.4285709999999998
                },
                {
                    "name": "A2",
                    "midi": 45,
                    "time": 11.571416999999997,
                    "velocity": 0.28346456692913385,
                    "duration": 0.4285709999999998
                },
                {
                    "name": "C4",
                    "midi": 60,
                    "time": 11.999987999999997,
                    "velocity": 0.1968503937007874,
                    "duration": 0.4285709999999998
                },
                {
                    "name": "E3",
                    "midi": 52,
                    "time": 11.999987999999997,
                    "velocity": 0.16535433070866143,
                    "duration": 0.4285709999999998
                },
                {
                    "name": "E3",
                    "midi": 52,
                    "time": 12.428558999999996,
                    "velocity": 0.16535433070866143,
                    "duration": 0.4285709999999998
                },
                {
                    "name": "C4",
                    "midi": 60,
                    "time": 12.428558999999996,
                    "velocity": 0.2047244094488189,
                    "duration": 0.4285709999999998
                },
                {
                    "name": "C4",
                    "midi": 60,
                    "time": 12.857129999999996,
                    "velocity": 0.2204724409448819,
                    "duration": 0.21517835625000004
                },
                {
                    "name": "E4",
                    "midi": 64,
                    "time": 12.857129999999996,
                    "velocity": 0.25984251968503935,
                    "duration": 0.21517835625000004
                },
                {
                    "name": "F4",
                    "midi": 65,
                    "time": 13.285700999999996,
                    "velocity": 0.28346456692913385,
                    "duration": 0.21517835625000004
                },
                {
                    "name": "C4",
                    "midi": 60,
                    "time": 13.285700999999996,
                    "velocity": 0.23622047244094488,
                    "duration": 0.21517835625000004
                },
                {
                    "name": "C4",
                    "midi": 60,
                    "time": 13.714271999999996,
                    "velocity": 0.25984251968503935,
                    "duration": 0.21517835625000004
                },
                {
                    "name": "F#4",
                    "midi": 66,
                    "time": 13.714271999999996,
                    "velocity": 0.30708661417322836,
                    "duration": 0.21517835625000004
                },
                {
                    "name": "D4",
                    "midi": 62,
                    "time": 14.142842999999996,
                    "velocity": 0.2992125984251969,
                    "duration": 1.2857129999999994
                },
                {
                    "name": "G4",
                    "midi": 67,
                    "time": 14.142842999999996,
                    "velocity": 0.3543307086614173,
                    "duration": 1.2857129999999994
                },
                {
                    "name": "G3",
                    "midi": 55,
                    "time": 14.142842999999996,
                    "velocity": 0.2992125984251969,
                    "duration": 1.2857129999999994
                },
                {
                    "name": "C4",
                    "midi": 60,
                    "time": 15.428555999999995,
                    "velocity": 0.25984251968503935,
                    "duration": 0.21607121249999928
                },
                {
                    "name": "A3",
                    "midi": 57,
                    "time": 15.428555999999995,
                    "velocity": 0.2204724409448819,
                    "duration": 0.21607121249999928
                },
                {
                    "name": "A3",
                    "midi": 57,
                    "time": 15.857126999999995,
                    "velocity": 0.23622047244094488,
                    "duration": 0.21607121250000105
                },
                {
                    "name": "D4",
                    "midi": 62,
                    "time": 15.857126999999995,
                    "velocity": 0.28346456692913385,
                    "duration": 0.21607121250000105
                },
                {
                    "name": "D#4",
                    "midi": 63,
                    "time": 16.285697999999996,
                    "velocity": 0.30708661417322836,
                    "duration": 0.21607121250000105
                },
                {
                    "name": "A3",
                    "midi": 57,
                    "time": 16.285697999999996,
                    "velocity": 0.25984251968503935,
                    "duration": 0.21607121250000105
                },
                {
                    "name": "B3",
                    "midi": 59,
                    "time": 16.714268999999998,
                    "velocity": 0.2992125984251969,
                    "duration": 1.2857130000000012
                },
                {
                    "name": "E4",
                    "midi": 64,
                    "time": 16.714268999999998,
                    "velocity": 0.3543307086614173,
                    "duration": 1.2857130000000012
                },
                {
                    "name": "E3",
                    "midi": 52,
                    "time": 16.714268999999998,
                    "velocity": 0.2992125984251969,
                    "duration": 1.2857130000000012
                },
                {
                    "name": "C4",
                    "midi": 60,
                    "time": 17.999982,
                    "velocity": 0.3543307086614173,
                    "duration": 1.2857130000000012
                },
                {
                    "name": "F3",
                    "midi": 53,
                    "time": 17.999982,
                    "velocity": 0.2992125984251969,
                    "duration": 1.2857130000000012
                },
                {
                    "name": "G3",
                    "midi": 55,
                    "time": 19.285695,
                    "velocity": 0.3228346456692913,
                    "duration": 1.2857130000000012
                },
                {
                    "name": "C4",
                    "midi": 60,
                    "time": 19.285695,
                    "velocity": 0.3858267716535433,
                    "duration": 1.2857130000000012
                },
                {
                    "name": "C3",
                    "midi": 48,
                    "time": 19.29194499375,
                    "velocity": 0.3228346456692913,
                    "duration": 1.2857130000000012
                },
                {
                    "name": "A3",
                    "midi": 57,
                    "time": 20.571408,
                    "velocity": 0.4094488188976378,
                    "duration": 0.4285710000000016
                },
                {
                    "name": "D3",
                    "midi": 50,
                    "time": 20.571408,
                    "velocity": 0.3464566929133858,
                    "duration": 0.4285710000000016
                },
                {
                    "name": "E3",
                    "midi": 52,
                    "time": 20.999979000000003,
                    "velocity": 0.33070866141732286,
                    "duration": 0.10714275000000129
                },
                {
                    "name": "A3",
                    "midi": 57,
                    "time": 20.999979000000003,
                    "velocity": 0.3937007874015748,
                    "duration": 0.10714275000000129
                },
                {
                    "name": "A3",
                    "midi": 57,
                    "time": 21.214264500000006,
                    "velocity": 0.3779527559055118,
                    "duration": 0.10714275000000129
                },
                {
                    "name": "F3",
                    "midi": 53,
                    "time": 21.214264500000006,
                    "velocity": 0.31496062992125984,
                    "duration": 0.10714275000000129
                },
                {
                    "name": "D3",
                    "midi": 50,
                    "time": 21.42855000000001,
                    "velocity": 0.3779527559055118,
                    "duration": 0.16071412499999838
                },
                {
                    "name": "A3",
                    "midi": 57,
                    "time": 21.42855000000001,
                    "velocity": 0.44881889763779526,
                    "duration": 0.16071412499999838
                },
                {
                    "name": "A3",
                    "midi": 57,
                    "time": 21.857121000000006,
                    "velocity": 0.33070866141732286,
                    "duration": 0.16071412499999838
                },
                {
                    "name": "F3",
                    "midi": 53,
                    "time": 21.857121000000006,
                    "velocity": 0.2755905511811024,
                    "duration": 0.16071412499999838
                },
                {
                    "name": "E3",
                    "midi": 52,
                    "time": 22.285692000000004,
                    "velocity": 0.2755905511811024,
                    "duration": 0.8571419999999996
                },
                {
                    "name": "G#3",
                    "midi": 56,
                    "time": 22.285692000000004,
                    "velocity": 0.33070866141732286,
                    "duration": 0.8571419999999996
                },
                {
                    "name": "A2",
                    "midi": 45,
                    "time": 23.142834000000004,
                    "velocity": 0.28346456692913385,
                    "duration": 0.4285710000000016
                },
                {
                    "name": "C4",
                    "midi": 60,
                    "time": 23.571405000000006,
                    "velocity": 0.2204724409448819,
                    "duration": 0.4285710000000016
                },
                {
                    "name": "E3",
                    "midi": 52,
                    "time": 23.571405000000006,
                    "velocity": 0.1889763779527559,
                    "duration": 0.4285710000000016
                },
                {
                    "name": "C4",
                    "midi": 60,
                    "time": 23.999976000000007,
                    "velocity": 0.2283464566929134,
                    "duration": 0.4285710000000016
                },
                {
                    "name": "E3",
                    "midi": 52,
                    "time": 23.999976000000007,
                    "velocity": 0.1889763779527559,
                    "duration": 0.4285710000000016
                },
                {
                    "name": "A2",
                    "midi": 45,
                    "time": 24.42854700000001,
                    "velocity": 0.28346456692913385,
                    "duration": 0.4285710000000016
                },
                {
                    "name": "E3",
                    "midi": 52,
                    "time": 24.85711800000001,
                    "velocity": 0.1889763779527559,
                    "duration": 0.4285710000000016
                },
                {
                    "name": "C4",
                    "midi": 60,
                    "time": 24.85711800000001,
                    "velocity": 0.2204724409448819,
                    "duration": 0.4285710000000016
                },
                {
                    "name": "E3",
                    "midi": 52,
                    "time": 25.285689000000012,
                    "velocity": 0.1889763779527559,
                    "duration": 0.4285710000000016
                },
                {
                    "name": "C4",
                    "midi": 60,
                    "time": 25.285689000000012,
                    "velocity": 0.2283464566929134,
                    "duration": 0.4285710000000016
                },
                {
                    "name": "A2",
                    "midi": 45,
                    "time": 25.714260000000014,
                    "velocity": 0.28346456692913385,
                    "duration": 0.4285710000000016
                },
                {
                    "name": "E3",
                    "midi": 52,
                    "time": 26.142831000000015,
                    "velocity": 0.1889763779527559,
                    "duration": 0.4285710000000016
                },
                {
                    "name": "C4",
                    "midi": 60,
                    "time": 26.142831000000015,
                    "velocity": 0.2283464566929134,
                    "duration": 0.4285710000000016
                },
                {
                    "name": "E3",
                    "midi": 52,
                    "time": 26.571402000000017,
                    "velocity": 0.1889763779527559,
                    "duration": 0.4285710000000016
                },
                {
                    "name": "C4",
                    "midi": 60,
                    "time": 26.571402000000017,
                    "velocity": 0.2283464566929134,
                    "duration": 0.4285710000000016
                },
                {
                    "name": "A2",
                    "midi": 45,
                    "time": 26.99997300000002,
                    "velocity": 0.28346456692913385,
                    "duration": 0.4285710000000016
                },
                {
                    "name": "E3",
                    "midi": 52,
                    "time": 27.42854400000002,
                    "velocity": 0.1889763779527559,
                    "duration": 0.4285710000000016
                },
                {
                    "name": "D4",
                    "midi": 62,
                    "time": 27.42854400000002,
                    "velocity": 0.2204724409448819,
                    "duration": 0.4285710000000016
                },
                {
                    "name": "E3",
                    "midi": 52,
                    "time": 27.85711500000002,
                    "velocity": 0.1889763779527559,
                    "duration": 0.4285710000000016
                },
                {
                    "name": "D4",
                    "midi": 62,
                    "time": 27.85711500000002,
                    "velocity": 0.2283464566929134,
                    "duration": 0.4285710000000016
                },
                {
                    "name": "A2",
                    "midi": 45,
                    "time": 28.285686000000023,
                    "velocity": 0.28346456692913385,
                    "duration": 0.4285710000000016
                },
                {
                    "name": "C4",
                    "midi": 60,
                    "time": 28.714257000000025,
                    "velocity": 0.2047244094488189,
                    "duration": 0.4285710000000016
                },
                {
                    "name": "E3",
                    "midi": 52,
                    "time": 28.714257000000025,
                    "velocity": 0.16535433070866143,
                    "duration": 0.4285710000000016
                },
                {
                    "name": "E3",
                    "midi": 52,
                    "time": 29.142828000000026,
                    "velocity": 0.16535433070866143,
                    "duration": 0.4285710000000016
                },
                {
                    "name": "C4",
                    "midi": 60,
                    "time": 29.142828000000026,
                    "velocity": 0.2047244094488189,
                    "duration": 0.4285710000000016
                },
                {
                    "name": "A2",
                    "midi": 45,
                    "time": 29.571399000000028,
                    "velocity": 0.28346456692913385,
                    "duration": 0.4285710000000016
                },
                {
                    "name": "C4",
                    "midi": 60,
                    "time": 29.99997000000003,
                    "velocity": 0.1968503937007874,
                    "duration": 0.4285710000000016
                },
                {
                    "name": "E3",
                    "midi": 52,
                    "time": 29.99997000000003,
                    "velocity": 0.16535433070866143,
                    "duration": 0.4285710000000016
                },
                {
                    "name": "C4",
                    "midi": 60,
                    "time": 30.42854100000003,
                    "velocity": 0.2047244094488189,
                    "duration": 0.4285710000000016
                },
                {
                    "name": "E3",
                    "midi": 52,
                    "time": 30.42854100000003,
                    "velocity": 0.16535433070866143,
                    "duration": 0.4285710000000016
                },
                {
                    "name": "A2",
                    "midi": 45,
                    "time": 30.857112000000033,
                    "velocity": 0.28346456692913385,
                    "duration": 0.4285710000000016
                },
                {
                    "name": "E3",
                    "midi": 52,
                    "time": 31.285683000000034,
                    "velocity": 0.1889763779527559,
                    "duration": 0.4285710000000016
                },
                {
                    "name": "C4",
                    "midi": 60,
                    "time": 31.285683000000034,
                    "velocity": 0.2283464566929134,
                    "duration": 0.4285710000000016
                },
                {
                    "name": "E3",
                    "midi": 52,
                    "time": 31.714254000000036,
                    "velocity": 0.1889763779527559,
                    "duration": 0.4285710000000016
                },
                {
                    "name": "C4",
                    "midi": 60,
                    "time": 31.714254000000036,
                    "velocity": 0.2283464566929134,
                    "duration": 0.4285710000000016
                },
                {
                    "name": "A2",
                    "midi": 45,
                    "time": 32.14282500000004,
                    "velocity": 0.28346456692913385,
                    "duration": 0.42857099999999804
                },
                {
                    "name": "E3",
                    "midi": 52,
                    "time": 32.571396000000036,
                    "velocity": 0.1889763779527559,
                    "duration": 0.42857099999999804
                },
                {
                    "name": "D4",
                    "midi": 62,
                    "time": 32.571396000000036,
                    "velocity": 0.2204724409448819,
                    "duration": 0.42857099999999804
                },
                {
                    "name": "E3",
                    "midi": 52,
                    "time": 32.999967000000034,
                    "velocity": 0.1889763779527559,
                    "duration": 0.42857099999999804
                },
                {
                    "name": "D4",
                    "midi": 62,
                    "time": 32.999967000000034,
                    "velocity": 0.2283464566929134,
                    "duration": 0.42857099999999804
                },
                {
                    "name": "A2",
                    "midi": 45,
                    "time": 33.42853800000003,
                    "velocity": 0.28346456692913385,
                    "duration": 0.42857099999999804
                },
                {
                    "name": "E3",
                    "midi": 52,
                    "time": 33.85710900000003,
                    "velocity": 0.16535433070866143,
                    "duration": 0.42857099999999804
                },
                {
                    "name": "C4",
                    "midi": 60,
                    "time": 33.85710900000003,
                    "velocity": 0.2047244094488189,
                    "duration": 0.42857099999999804
                },
                {
                    "name": "C4",
                    "midi": 60,
                    "time": 34.28568000000003,
                    "velocity": 0.2047244094488189,
                    "duration": 0.42857099999999804
                },
                {
                    "name": "E3",
                    "midi": 52,
                    "time": 34.28568000000003,
                    "velocity": 0.16535433070866143,
                    "duration": 0.42857099999999804
                },
                {
                    "name": "A2",
                    "midi": 45,
                    "time": 34.714251000000026,
                    "velocity": 0.28346456692913385,
                    "duration": 0.42857099999999804
                },
                {
                    "name": "C4",
                    "midi": 60,
                    "time": 35.142822000000024,
                    "velocity": 0.1968503937007874,
                    "duration": 0.42857099999999804
                },
                {
                    "name": "E3",
                    "midi": 52,
                    "time": 35.142822000000024,
                    "velocity": 0.16535433070866143,
                    "duration": 0.42857099999999804
                },
                {
                    "name": "C4",
                    "midi": 60,
                    "time": 35.57139300000002,
                    "velocity": 0.2047244094488189,
                    "duration": 0.42857099999999804
                },
                {
                    "name": "E3",
                    "midi": 52,
                    "time": 35.57139300000002,
                    "velocity": 0.16535433070866143,
                    "duration": 0.42857099999999804
                },
                {
                    "name": "C4",
                    "midi": 60,
                    "time": 35.99996400000002,
                    "velocity": 0.2204724409448819,
                    "duration": 0.2160712124999975
                },
                {
                    "name": "E4",
                    "midi": 64,
                    "time": 35.99996400000002,
                    "velocity": 0.25984251968503935,
                    "duration": 0.2160712124999975
                },
                {
                    "name": "F4",
                    "midi": 65,
                    "time": 36.42853500000002,
                    "velocity": 0.28346456692913385,
                    "duration": 0.2160712124999975
                },
                {
                    "name": "C4",
                    "midi": 60,
                    "time": 36.42853500000002,
                    "velocity": 0.23622047244094488,
                    "duration": 0.2160712124999975
                },
                {
                    "name": "F#4",
                    "midi": 66,
                    "time": 36.857106000000016,
                    "velocity": 0.30708661417322836,
                    "duration": 0.2160712124999975
                },
                {
                    "name": "C4",
                    "midi": 60,
                    "time": 36.857106000000016,
                    "velocity": 0.25984251968503935,
                    "duration": 0.2160712124999975
                },
                {
                    "name": "G3",
                    "midi": 55,
                    "time": 37.285677000000014,
                    "velocity": 0.2992125984251969,
                    "duration": 1.2857130000000012
                },
                {
                    "name": "G4",
                    "midi": 67,
                    "time": 37.285677000000014,
                    "velocity": 0.3543307086614173,
                    "duration": 1.2857130000000012
                },
                {
                    "name": "D4",
                    "midi": 62,
                    "time": 37.285677000000014,
                    "velocity": 0.2992125984251969,
                    "duration": 1.2857130000000012
                },
                {
                    "name": "C4",
                    "midi": 60,
                    "time": 38.571390000000015,
                    "velocity": 0.25984251968503935,
                    "duration": 0.2160712124999975
                },
                {
                    "name": "A3",
                    "midi": 57,
                    "time": 38.571390000000015,
                    "velocity": 0.2204724409448819,
                    "duration": 0.2160712124999975
                },
                {
                    "name": "D4",
                    "midi": 62,
                    "time": 38.99996100000001,
                    "velocity": 0.28346456692913385,
                    "duration": 0.2160712124999975
                },
                {
                    "name": "A3",
                    "midi": 57,
                    "time": 38.99996100000001,
                    "velocity": 0.23622047244094488,
                    "duration": 0.2160712124999975
                },
                {
                    "name": "D#4",
                    "midi": 63,
                    "time": 39.42853200000001,
                    "velocity": 0.30708661417322836,
                    "duration": 0.2160712124999975
                },
                {
                    "name": "A3",
                    "midi": 57,
                    "time": 39.42853200000001,
                    "velocity": 0.25984251968503935,
                    "duration": 0.2160712124999975
                },
                {
                    "name": "E3",
                    "midi": 52,
                    "time": 39.85710300000001,
                    "velocity": 0.2992125984251969,
                    "duration": 1.2857130000000012
                },
                {
                    "name": "E4",
                    "midi": 64,
                    "time": 39.85710300000001,
                    "velocity": 0.3543307086614173,
                    "duration": 1.2857130000000012
                },
                {
                    "name": "B3",
                    "midi": 59,
                    "time": 39.85710300000001,
                    "velocity": 0.2992125984251969,
                    "duration": 1.2857130000000012
                },
                {
                    "name": "F3",
                    "midi": 53,
                    "time": 41.14281600000001,
                    "velocity": 0.2992125984251969,
                    "duration": 1.2857130000000012
                },
                {
                    "name": "C4",
                    "midi": 60,
                    "time": 41.14281600000001,
                    "velocity": 0.3543307086614173,
                    "duration": 1.2857130000000012
                },
                {
                    "name": "C4",
                    "midi": 60,
                    "time": 42.42852900000001,
                    "velocity": 0.3858267716535433,
                    "duration": 1.285712999999994
                },
                {
                    "name": "G3",
                    "midi": 55,
                    "time": 42.42852900000001,
                    "velocity": 0.3228346456692913,
                    "duration": 1.285712999999994
                },
                {
                    "name": "C3",
                    "midi": 48,
                    "time": 42.43477899375001,
                    "velocity": 0.3228346456692913,
                    "duration": 1.285712999999994
                },
                {
                    "name": "D3",
                    "midi": 50,
                    "time": 43.714242000000006,
                    "velocity": 0.3464566929133858,
                    "duration": 0.42857099999999804
                },
                {
                    "name": "A3",
                    "midi": 57,
                    "time": 43.714242000000006,
                    "velocity": 0.4094488188976378,
                    "duration": 0.42857099999999804
                },
                {
                    "name": "A3",
                    "midi": 57,
                    "time": 44.142813000000004,
                    "velocity": 0.3937007874015748,
                    "duration": 0.10714275000000129
                },
                {
                    "name": "E3",
                    "midi": 52,
                    "time": 44.142813000000004,
                    "velocity": 0.33070866141732286,
                    "duration": 0.10714275000000129
                },
                {
                    "name": "F3",
                    "midi": 53,
                    "time": 44.357098500000006,
                    "velocity": 0.31496062992125984,
                    "duration": 0.10714275000000129
                },
                {
                    "name": "A3",
                    "midi": 57,
                    "time": 44.357098500000006,
                    "velocity": 0.3779527559055118,
                    "duration": 0.10714275000000129
                },
                {
                    "name": "D3",
                    "midi": 50,
                    "time": 44.57138400000001,
                    "velocity": 0.3779527559055118,
                    "duration": 0.16071412499999838
                },
                {
                    "name": "A3",
                    "midi": 57,
                    "time": 44.57138400000001,
                    "velocity": 0.44881889763779526,
                    "duration": 0.16071412499999838
                },
                {
                    "name": "F3",
                    "midi": 53,
                    "time": 44.99995500000001,
                    "velocity": 0.2755905511811024,
                    "duration": 0.16071412499999838
                },
                {
                    "name": "A3",
                    "midi": 57,
                    "time": 44.99995500000001,
                    "velocity": 0.33070866141732286,
                    "duration": 0.16071412499999838
                },
                {
                    "name": "E3",
                    "midi": 52,
                    "time": 45.428526000000005,
                    "velocity": 0.2755905511811024,
                    "duration": 0.8571420000000032
                },
                {
                    "name": "G#3",
                    "midi": 56,
                    "time": 45.428526000000005,
                    "velocity": 0.33070866141732286,
                    "duration": 0.8571420000000032
                },
                {
                    "name": "A4",
                    "midi": 69,
                    "time": 46.28566800000001,
                    "velocity": 0.4094488188976378,
                    "duration": 0.8571420000000032
                },
                {
                    "name": "B4",
                    "midi": 71,
                    "time": 47.14281000000001,
                    "velocity": 0.4251968503937008,
                    "duration": 0.21428550000000257
                },
                {
                    "name": "G#4",
                    "midi": 68,
                    "time": 47.357095500000014,
                    "velocity": 0.3937007874015748,
                    "duration": 0.16071412499999838
                },
                {
                    "name": "A4",
                    "midi": 69,
                    "time": 47.51780962500001,
                    "velocity": 0.30708661417322836,
                    "duration": 0.05357137499999709
                },
                {
                    "name": "F#4",
                    "midi": 66,
                    "time": 47.57138100000001,
                    "velocity": 0.3937007874015748,
                    "duration": 0.21428550000000257
                },
                {
                    "name": "E4",
                    "midi": 64,
                    "time": 47.78566650000001,
                    "velocity": 0.3937007874015748,
                    "duration": 0.10714275000000129
                },
                {
                    "name": "E4",
                    "midi": 64,
                    "time": 47.999952000000015,
                    "velocity": 0.3700787401574803,
                    "duration": 0.8571420000000032
                },
                {
                    "name": "A4",
                    "midi": 69,
                    "time": 48.85709400000002,
                    "velocity": 0.4094488188976378,
                    "duration": 0.42857099999999804
                },
                {
                    "name": "B4",
                    "midi": 71,
                    "time": 49.285665000000016,
                    "velocity": 0.4251968503937008,
                    "duration": 0.21428550000000257
                },
                {
                    "name": "C#5",
                    "midi": 73,
                    "time": 49.49995050000002,
                    "velocity": 0.4251968503937008,
                    "duration": 0.21428550000000257
                },
                {
                    "name": "A4",
                    "midi": 69,
                    "time": 49.71423600000002,
                    "velocity": 0.4251968503937008,
                    "duration": 0.21428550000000257
                },
                {
                    "name": "F#4",
                    "midi": 66,
                    "time": 49.92852150000002,
                    "velocity": 0.3937007874015748,
                    "duration": 0.16071412499999838
                },
                {
                    "name": "G#4",
                    "midi": 68,
                    "time": 50.08923562500002,
                    "velocity": 0.30708661417322836,
                    "duration": 0.05357137499999709
                },
                {
                    "name": "F#4",
                    "midi": 66,
                    "time": 50.14280700000002,
                    "velocity": 0.3937007874015748,
                    "duration": 0.21428550000000257
                },
                {
                    "name": "E4",
                    "midi": 64,
                    "time": 50.35709250000002,
                    "velocity": 0.3937007874015748,
                    "duration": 0.10714275000000129
                },
                {
                    "name": "E4",
                    "midi": 64,
                    "time": 50.571378000000024,
                    "velocity": 0.3700787401574803,
                    "duration": 0.8571420000000032
                },
                {
                    "name": "A4",
                    "midi": 69,
                    "time": 51.42852000000003,
                    "velocity": 0.4094488188976378,
                    "duration": 0.8571420000000032
                },
                {
                    "name": "E4",
                    "midi": 64,
                    "time": 52.28566200000003,
                    "velocity": 0.4251968503937008,
                    "duration": 0.21428550000000257
                },
                {
                    "name": "F#4",
                    "midi": 66,
                    "time": 52.49994750000003,
                    "velocity": 0.3937007874015748,
                    "duration": 0.21428550000000257
                },
                {
                    "name": "F#4",
                    "midi": 66,
                    "time": 52.714233000000036,
                    "velocity": 0.4251968503937008,
                    "duration": 0.21428550000000257
                },
                {
                    "name": "G#4",
                    "midi": 68,
                    "time": 52.92851850000004,
                    "velocity": 0.3937007874015748,
                    "duration": 0.21428550000000257
                },
                {
                    "name": "G#4",
                    "midi": 68,
                    "time": 53.14280400000004,
                    "velocity": 0.4094488188976378,
                    "duration": 0.8571420000000032
                },
                {
                    "name": "G#4",
                    "midi": 68,
                    "time": 53.999946000000044,
                    "velocity": 0.4251968503937008,
                    "duration": 0.21428550000000257
                },
                {
                    "name": "B4",
                    "midi": 71,
                    "time": 54.21423150000005,
                    "velocity": 0.44881889763779526,
                    "duration": 0.21428550000000257
                },
                {
                    "name": "B4",
                    "midi": 71,
                    "time": 54.42851700000005,
                    "velocity": 0.48031496062992124,
                    "duration": 0.21428550000000257
                },
                {
                    "name": "A4",
                    "midi": 69,
                    "time": 54.64280250000005,
                    "velocity": 0.4251968503937008,
                    "duration": 0.21428550000000257
                },
                {
                    "name": "E4",
                    "midi": 64,
                    "time": 54.857088000000054,
                    "velocity": 0.48031496062992124,
                    "duration": 0.21428550000000257
                },
                {
                    "name": "F#4",
                    "midi": 66,
                    "time": 55.07137350000006,
                    "velocity": 0.4409448818897638,
                    "duration": 0.21428550000000257
                },
                {
                    "name": "F#4",
                    "midi": 66,
                    "time": 55.28565900000006,
                    "velocity": 0.44881889763779526,
                    "duration": 0.21428550000000257
                },
                {
                    "name": "G#4",
                    "midi": 68,
                    "time": 55.49994450000006,
                    "velocity": 0.3543307086614173,
                    "duration": 0.21428550000000257
                },
                {
                    "name": "G#4",
                    "midi": 68,
                    "time": 55.714230000000065,
                    "velocity": 0.4015748031496063,
                    "duration": 0.8571420000000032
                },
                {
                    "name": "A4",
                    "midi": 69,
                    "time": 56.57137200000007,
                    "velocity": 0.4094488188976378,
                    "duration": 0.8571420000000032
                },
                {
                    "name": "B4",
                    "midi": 71,
                    "time": 57.42851400000007,
                    "velocity": 0.4251968503937008,
                    "duration": 0.21428550000000257
                },
                {
                    "name": "G#4",
                    "midi": 68,
                    "time": 57.64279950000007,
                    "velocity": 0.3937007874015748,
                    "duration": 0.16071412499999838
                },
                {
                    "name": "A4",
                    "midi": 69,
                    "time": 57.80351362500007,
                    "velocity": 0.30708661417322836,
                    "duration": 0.05357137499999709
                },
                {
                    "name": "F#4",
                    "midi": 66,
                    "time": 57.85708500000007,
                    "velocity": 0.3937007874015748,
                    "duration": 0.21428550000000257
                },
                {
                    "name": "E4",
                    "midi": 64,
                    "time": 58.07137050000007,
                    "velocity": 0.3937007874015748,
                    "duration": 0.10714275000000129
                },
                {
                    "name": "E4",
                    "midi": 64,
                    "time": 58.285656000000074,
                    "velocity": 0.3700787401574803,
                    "duration": 0.8571420000000032
                },
                {
                    "name": "A4",
                    "midi": 69,
                    "time": 59.14279800000008,
                    "velocity": 0.4094488188976378,
                    "duration": 0.42857099999999804
                },
                {
                    "name": "B4",
                    "midi": 71,
                    "time": 59.571369000000075,
                    "velocity": 0.4251968503937008,
                    "duration": 0.21428550000000257
                },
                {
                    "name": "C#5",
                    "midi": 73,
                    "time": 59.78565450000008,
                    "velocity": 0.4251968503937008,
                    "duration": 0.21428550000000257
                },
                {
                    "name": "A4",
                    "midi": 69,
                    "time": 59.99994000000008,
                    "velocity": 0.4251968503937008,
                    "duration": 0.21428550000000257
                },
                {
                    "name": "F#4",
                    "midi": 66,
                    "time": 60.21422550000008,
                    "velocity": 0.3937007874015748,
                    "duration": 0.16071412499999838
                },
                {
                    "name": "G#4",
                    "midi": 68,
                    "time": 60.37493962500008,
                    "velocity": 0.30708661417322836,
                    "duration": 0.05357137499999709
                },
                {
                    "name": "F#4",
                    "midi": 66,
                    "time": 60.42851100000008,
                    "velocity": 0.3937007874015748,
                    "duration": 0.21428550000000257
                },
                {
                    "name": "E4",
                    "midi": 64,
                    "time": 60.64279650000008,
                    "velocity": 0.3937007874015748,
                    "duration": 0.10714275000000129
                },
                {
                    "name": "E4",
                    "midi": 64,
                    "time": 60.857082000000084,
                    "velocity": 0.3700787401574803,
                    "duration": 0.8571420000000032
                },
                {
                    "name": "A4",
                    "midi": 69,
                    "time": 61.71422400000009,
                    "velocity": 0.4094488188976378,
                    "duration": 0.8571420000000032
                },
                {
                    "name": "E4",
                    "midi": 64,
                    "time": 62.57136600000009,
                    "velocity": 0.4251968503937008,
                    "duration": 0.21428550000000257
                },
                {
                    "name": "F#4",
                    "midi": 66,
                    "time": 62.78565150000009,
                    "velocity": 0.3937007874015748,
                    "duration": 0.21428550000000257
                },
                {
                    "name": "F#4",
                    "midi": 66,
                    "time": 62.999937000000095,
                    "velocity": 0.4645669291338583,
                    "duration": 0.21428550000000257
                },
                {
                    "name": "G4",
                    "midi": 67,
                    "time": 63.2142225000001,
                    "velocity": 0.3779527559055118,
                    "duration": 0.10714275000000129
                },
                {
                    "name": "G4",
                    "midi": 67,
                    "time": 63.4285080000001,
                    "velocity": 0.44881889763779526,
                    "duration": 0.8571420000000032
                },
                {
                    "name": "G4",
                    "midi": 67,
                    "time": 64.2856500000001,
                    "velocity": 0.5039370078740157,
                    "duration": 0.21428550000000257
                },
                {
                    "name": "G#4",
                    "midi": 68,
                    "time": 64.4999355000001,
                    "velocity": 0.41732283464566927,
                    "duration": 0.10714274999999418
                },
                {
                    "name": "G#4",
                    "midi": 68,
                    "time": 64.7142210000001,
                    "velocity": 0.4881889763779528,
                    "duration": 0.8571419999999961
                },
                {
                    "name": "G#4",
                    "midi": 68,
                    "time": 65.57136300000009,
                    "velocity": 0.5511811023622047,
                    "duration": 0.21428550000000257
                },
                {
                    "name": "A4",
                    "midi": 69,
                    "time": 65.7856485000001,
                    "velocity": 0.47244094488188976,
                    "duration": 0.10714274999999418
                },
                {
                    "name": "A4",
                    "midi": 69,
                    "time": 65.99993400000008,
                    "velocity": 0.5354330708661418,
                    "duration": 0.8571419999999961
                },
                {
                    "name": "A2",
                    "midi": 45,
                    "time": 66.85707600000008,
                    "velocity": 0.25196850393700787,
                    "duration": 0.42857100000000514
                },
                {
                    "name": "E3",
                    "midi": 52,
                    "time": 67.28564700000008,
                    "velocity": 0.16535433070866143,
                    "duration": 0.42857100000000514
                },
                {
                    "name": "C4",
                    "midi": 60,
                    "time": 67.28564700000008,
                    "velocity": 0.1968503937007874,
                    "duration": 0.42857100000000514
                },
                {
                    "name": "C4",
                    "midi": 60,
                    "time": 67.71421800000009,
                    "velocity": 0.2047244094488189,
                    "duration": 0.42857100000000514
                },
                {
                    "name": "E3",
                    "midi": 52,
                    "time": 67.71421800000009,
                    "velocity": 0.16535433070866143,
                    "duration": 0.42857100000000514
                },
                {
                    "name": "A2",
                    "midi": 45,
                    "time": 68.14278900000009,
                    "velocity": 0.25196850393700787,
                    "duration": 0.42857100000000514
                },
                {
                    "name": "E3",
                    "midi": 52,
                    "time": 68.5713600000001,
                    "velocity": 0.16535433070866143,
                    "duration": 0.42857100000000514
                },
                {
                    "name": "C4",
                    "midi": 60,
                    "time": 68.5713600000001,
                    "velocity": 0.1968503937007874,
                    "duration": 0.42857100000000514
                },
                {
                    "name": "C4",
                    "midi": 60,
                    "time": 68.9999310000001,
                    "velocity": 0.2047244094488189,
                    "duration": 0.42857100000000514
                },
                {
                    "name": "E3",
                    "midi": 52,
                    "time": 68.9999310000001,
                    "velocity": 0.16535433070866143,
                    "duration": 0.42857100000000514
                },
                {
                    "name": "A2",
                    "midi": 45,
                    "time": 69.42850200000011,
                    "velocity": 0.25196850393700787,
                    "duration": 0.42857100000000514
                },
                {
                    "name": "C4",
                    "midi": 60,
                    "time": 69.85707300000011,
                    "velocity": 0.2047244094488189,
                    "duration": 0.42857100000000514
                },
                {
                    "name": "E3",
                    "midi": 52,
                    "time": 69.85707300000011,
                    "velocity": 0.16535433070866143,
                    "duration": 0.42857100000000514
                },
                {
                    "name": "E3",
                    "midi": 52,
                    "time": 70.28564400000012,
                    "velocity": 0.16535433070866143,
                    "duration": 0.42857100000000514
                },
                {
                    "name": "C4",
                    "midi": 60,
                    "time": 70.28564400000012,
                    "velocity": 0.2047244094488189,
                    "duration": 0.42857100000000514
                },
                {
                    "name": "A2",
                    "midi": 45,
                    "time": 70.71421500000012,
                    "velocity": 0.25196850393700787,
                    "duration": 0.42857100000000514
                },
                {
                    "name": "E3",
                    "midi": 52,
                    "time": 71.14278600000013,
                    "velocity": 0.16535433070866143,
                    "duration": 0.42857100000000514
                },
                {
                    "name": "D4",
                    "midi": 62,
                    "time": 71.14278600000013,
                    "velocity": 0.1968503937007874,
                    "duration": 0.42857100000000514
                },
                {
                    "name": "D4",
                    "midi": 62,
                    "time": 71.57135700000013,
                    "velocity": 0.2047244094488189,
                    "duration": 0.42857100000000514
                },
                {
                    "name": "E3",
                    "midi": 52,
                    "time": 71.57135700000013,
                    "velocity": 0.16535433070866143,
                    "duration": 0.42857100000000514
                },
                {
                    "name": "A2",
                    "midi": 45,
                    "time": 71.99992800000014,
                    "velocity": 0.25196850393700787,
                    "duration": 0.42857100000000514
                },
                {
                    "name": "E3",
                    "midi": 52,
                    "time": 72.42849900000014,
                    "velocity": 0.14960629921259844,
                    "duration": 0.42857100000000514
                },
                {
                    "name": "C4",
                    "midi": 60,
                    "time": 72.42849900000014,
                    "velocity": 0.18110236220472442,
                    "duration": 0.42857100000000514
                },
                {
                    "name": "C4",
                    "midi": 60,
                    "time": 72.85707000000015,
                    "velocity": 0.18110236220472442,
                    "duration": 0.42857100000000514
                },
                {
                    "name": "E3",
                    "midi": 52,
                    "time": 72.85707000000015,
                    "velocity": 0.14960629921259844,
                    "duration": 0.42857100000000514
                },
                {
                    "name": "A2",
                    "midi": 45,
                    "time": 73.28564100000015,
                    "velocity": 0.25196850393700787,
                    "duration": 0.42857100000000514
                },
                {
                    "name": "E3",
                    "midi": 52,
                    "time": 73.71421200000016,
                    "velocity": 0.14960629921259844,
                    "duration": 0.42857100000000514
                },
                {
                    "name": "C4",
                    "midi": 60,
                    "time": 73.71421200000016,
                    "velocity": 0.1732283464566929,
                    "duration": 0.42857100000000514
                },
                {
                    "name": "C4",
                    "midi": 60,
                    "time": 74.14278300000016,
                    "velocity": 0.18110236220472442,
                    "duration": 0.42857100000000514
                },
                {
                    "name": "E3",
                    "midi": 52,
                    "time": 74.14278300000016,
                    "velocity": 0.14960629921259844,
                    "duration": 0.42857100000000514
                },
                {
                    "name": "A2",
                    "midi": 45,
                    "time": 74.57135400000017,
                    "velocity": 0.25196850393700787,
                    "duration": 0.42857100000000514
                },
                {
                    "name": "C4",
                    "midi": 60,
                    "time": 74.99992500000018,
                    "velocity": 0.2047244094488189,
                    "duration": 0.42857100000000514
                },
                {
                    "name": "E3",
                    "midi": 52,
                    "time": 74.99992500000018,
                    "velocity": 0.16535433070866143,
                    "duration": 0.42857100000000514
                },
                {
                    "name": "E3",
                    "midi": 52,
                    "time": 75.42849600000018,
                    "velocity": 0.16535433070866143,
                    "duration": 0.42857100000000514
                },
                {
                    "name": "C4",
                    "midi": 60,
                    "time": 75.42849600000018,
                    "velocity": 0.2047244094488189,
                    "duration": 0.42857100000000514
                },
                {
                    "name": "A2",
                    "midi": 45,
                    "time": 75.85706700000019,
                    "velocity": 0.25196850393700787,
                    "duration": 0.42857100000000514
                },
                {
                    "name": "D4",
                    "midi": 62,
                    "time": 76.28563800000019,
                    "velocity": 0.1968503937007874,
                    "duration": 0.42857100000000514
                },
                {
                    "name": "E3",
                    "midi": 52,
                    "time": 76.28563800000019,
                    "velocity": 0.16535433070866143,
                    "duration": 0.42857100000000514
                },
                {
                    "name": "D4",
                    "midi": 62,
                    "time": 76.7142090000002,
                    "velocity": 0.2047244094488189,
                    "duration": 0.42857100000000514
                },
                {
                    "name": "E3",
                    "midi": 52,
                    "time": 76.7142090000002,
                    "velocity": 0.16535433070866143,
                    "duration": 0.42857100000000514
                },
                {
                    "name": "A2",
                    "midi": 45,
                    "time": 77.1427800000002,
                    "velocity": 0.25196850393700787,
                    "duration": 0.42857100000000514
                },
                {
                    "name": "E3",
                    "midi": 52,
                    "time": 77.5713510000002,
                    "velocity": 0.14960629921259844,
                    "duration": 0.42857100000000514
                },
                {
                    "name": "C4",
                    "midi": 60,
                    "time": 77.5713510000002,
                    "velocity": 0.18110236220472442,
                    "duration": 0.42857100000000514
                },
                {
                    "name": "E3",
                    "midi": 52,
                    "time": 77.99992200000021,
                    "velocity": 0.14960629921259844,
                    "duration": 0.42857100000000514
                },
                {
                    "name": "C4",
                    "midi": 60,
                    "time": 77.99992200000021,
                    "velocity": 0.18110236220472442,
                    "duration": 0.42857100000000514
                },
                {
                    "name": "A2",
                    "midi": 45,
                    "time": 78.42849300000022,
                    "velocity": 0.25196850393700787,
                    "duration": 0.42857100000000514
                },
                {
                    "name": "E3",
                    "midi": 52,
                    "time": 78.85706400000022,
                    "velocity": 0.14960629921259844,
                    "duration": 0.42857100000000514
                },
                {
                    "name": "C4",
                    "midi": 60,
                    "time": 78.85706400000022,
                    "velocity": 0.1732283464566929,
                    "duration": 0.42857100000000514
                },
                {
                    "name": "C4",
                    "midi": 60,
                    "time": 79.28563500000023,
                    "velocity": 0.18110236220472442,
                    "duration": 0.42857100000000514
                },
                {
                    "name": "E3",
                    "midi": 52,
                    "time": 79.28563500000023,
                    "velocity": 0.14960629921259844,
                    "duration": 0.42857100000000514
                },
                {
                    "name": "E4",
                    "midi": 64,
                    "time": 79.71420600000023,
                    "velocity": 0.25984251968503935,
                    "duration": 0.2160712124999975
                },
                {
                    "name": "C4",
                    "midi": 60,
                    "time": 79.71420600000023,
                    "velocity": 0.2204724409448819,
                    "duration": 0.2160712124999975
                },
                {
                    "name": "F4",
                    "midi": 65,
                    "time": 80.14277700000022,
                    "velocity": 0.28346456692913385,
                    "duration": 0.2160712124999975
                },
                {
                    "name": "C4",
                    "midi": 60,
                    "time": 80.14277700000022,
                    "velocity": 0.23622047244094488,
                    "duration": 0.2160712124999975
                },
                {
                    "name": "C4",
                    "midi": 60,
                    "time": 80.57134800000021,
                    "velocity": 0.25984251968503935,
                    "duration": 0.2160712124999975
                },
                {
                    "name": "F#4",
                    "midi": 66,
                    "time": 80.57134800000021,
                    "velocity": 0.30708661417322836,
                    "duration": 0.2160712124999975
                },
                {
                    "name": "D4",
                    "midi": 62,
                    "time": 80.9999190000002,
                    "velocity": 0.2992125984251969,
                    "duration": 1.2857130000000012
                },
                {
                    "name": "G4",
                    "midi": 67,
                    "time": 80.9999190000002,
                    "velocity": 0.3543307086614173,
                    "duration": 1.2857130000000012
                },
                {
                    "name": "G3",
                    "midi": 55,
                    "time": 80.9999190000002,
                    "velocity": 0.2992125984251969,
                    "duration": 1.2857130000000012
                },
                {
                    "name": "A3",
                    "midi": 57,
                    "time": 82.2856320000002,
                    "velocity": 0.2204724409448819,
                    "duration": 0.2160712124999975
                },
                {
                    "name": "C4",
                    "midi": 60,
                    "time": 82.2856320000002,
                    "velocity": 0.25984251968503935,
                    "duration": 0.2160712124999975
                },
                {
                    "name": "A3",
                    "midi": 57,
                    "time": 82.7142030000002,
                    "velocity": 0.23622047244094488,
                    "duration": 0.2160712124999975
                },
                {
                    "name": "D4",
                    "midi": 62,
                    "time": 82.7142030000002,
                    "velocity": 0.28346456692913385,
                    "duration": 0.2160712124999975
                },
                {
                    "name": "D#4",
                    "midi": 63,
                    "time": 83.14277400000019,
                    "velocity": 0.30708661417322836,
                    "duration": 0.2160712124999975
                },
                {
                    "name": "A3",
                    "midi": 57,
                    "time": 83.14277400000019,
                    "velocity": 0.25984251968503935,
                    "duration": 0.2160712124999975
                },
                {
                    "name": "E3",
                    "midi": 52,
                    "time": 83.57134500000018,
                    "velocity": 0.2992125984251969,
                    "duration": 1.2857130000000012
                },
                {
                    "name": "E4",
                    "midi": 64,
                    "time": 83.57134500000018,
                    "velocity": 0.3543307086614173,
                    "duration": 1.2857130000000012
                },
                {
                    "name": "B3",
                    "midi": 59,
                    "time": 83.57134500000018,
                    "velocity": 0.2992125984251969,
                    "duration": 1.2857130000000012
                },
                {
                    "name": "F3",
                    "midi": 53,
                    "time": 84.85705800000018,
                    "velocity": 0.2992125984251969,
                    "duration": 1.2857130000000012
                },
                {
                    "name": "C4",
                    "midi": 60,
                    "time": 84.85705800000018,
                    "velocity": 0.3543307086614173,
                    "duration": 1.2857130000000012
                },
                {
                    "name": "G3",
                    "midi": 55,
                    "time": 86.14277100000018,
                    "velocity": 0.3228346456692913,
                    "duration": 1.2857130000000012
                },
                {
                    "name": "C4",
                    "midi": 60,
                    "time": 86.14277100000018,
                    "velocity": 0.3858267716535433,
                    "duration": 1.2857130000000012
                },
                {
                    "name": "C3",
                    "midi": 48,
                    "time": 86.14902099375018,
                    "velocity": 0.3228346456692913,
                    "duration": 1.2857130000000012
                },
                {
                    "name": "A3",
                    "midi": 57,
                    "time": 87.42848400000018,
                    "velocity": 0.4094488188976378,
                    "duration": 0.42857100000000514
                },
                {
                    "name": "D3",
                    "midi": 50,
                    "time": 87.42848400000018,
                    "velocity": 0.3464566929133858,
                    "duration": 0.42857100000000514
                },
                {
                    "name": "A3",
                    "midi": 57,
                    "time": 87.85705500000019,
                    "velocity": 0.3937007874015748,
                    "duration": 0.10714274999999418
                },
                {
                    "name": "E3",
                    "midi": 52,
                    "time": 87.85705500000019,
                    "velocity": 0.33070866141732286,
                    "duration": 0.10714274999999418
                },
                {
                    "name": "A3",
                    "midi": 57,
                    "time": 88.07134050000018,
                    "velocity": 0.3779527559055118,
                    "duration": 0.10714274999999418
                },
                {
                    "name": "F3",
                    "midi": 53,
                    "time": 88.07134050000018,
                    "velocity": 0.31496062992125984,
                    "duration": 0.10714274999999418
                },
                {
                    "name": "D3",
                    "midi": 50,
                    "time": 88.28562600000016,
                    "velocity": 0.3779527559055118,
                    "duration": 0.16071412499999838
                },
                {
                    "name": "A3",
                    "midi": 57,
                    "time": 88.28562600000016,
                    "velocity": 0.44881889763779526,
                    "duration": 0.16071412499999838
                },
                {
                    "name": "A3",
                    "midi": 57,
                    "time": 88.71419700000017,
                    "velocity": 0.33070866141732286,
                    "duration": 0.16071412499999838
                },
                {
                    "name": "F3",
                    "midi": 53,
                    "time": 88.71419700000017,
                    "velocity": 0.2755905511811024,
                    "duration": 0.16071412499999838
                },
                {
                    "name": "G#3",
                    "midi": 56,
                    "time": 89.14276800000017,
                    "velocity": 0.33070866141732286,
                    "duration": 0.8571419999999961
                },
                {
                    "name": "E3",
                    "midi": 52,
                    "time": 89.14276800000017,
                    "velocity": 0.2755905511811024,
                    "duration": 0.8571419999999961
                },
                {
                    "name": "E3",
                    "midi": 52,
                    "time": 89.99991000000017,
                    "velocity": 0.2440944881889764,
                    "duration": 2.5714260000000024
                },
                {
                    "name": "A2",
                    "midi": 45,
                    "time": 89.99991000000017,
                    "velocity": 0.2125984251968504,
                    "duration": 2.5714260000000024
                },
                {
                    "name": "E3",
                    "midi": 52,
                    "time": 92.57133600000017,
                    "velocity": 0.2440944881889764,
                    "duration": 2.5714260000000024
                },
                {
                    "name": "A2",
                    "midi": 45,
                    "time": 92.57133600000017,
                    "velocity": 0.2125984251968504,
                    "duration": 2.5714260000000024
                },
                {
                    "name": "E3",
                    "midi": 52,
                    "time": 95.14276200000018,
                    "velocity": 0.2440944881889764,
                    "duration": 1.7142840000000064
                },
                {
                    "name": "A2",
                    "midi": 45,
                    "time": 95.14276200000018,
                    "velocity": 0.2125984251968504,
                    "duration": 1.7142840000000064
                },
                {
                    "name": "E3",
                    "midi": 52,
                    "time": 97.71418800000018,
                    "velocity": 0.2125984251968504,
                    "duration": 2.5714260000000024
                },
                {
                    "name": "A2",
                    "midi": 45,
                    "time": 97.71418800000018,
                    "velocity": 0.1889763779527559,
                    "duration": 2.5714260000000024
                },
                {
                    "name": "A1",
                    "midi": 33,
                    "time": 100.28561400000018,
                    "velocity": 0.1889763779527559,
                    "duration": 0.42857100000000514
                }
            ],
            "controlChanges": {},
            "id": 2,
            "name": "Piano left",
            "instrumentNumber": 0,
            "instrument": "acoustic grand piano",
            "instrumentFamily": "piano",
            "channelNumber": 0,
            "isPercussion": false
        },
        {
            "startTime": 0,
            "duration": 0,
            "length": 0,
            "notes": [],
            "controlChanges": {
                "64": [
                    {
                        "number": 64,
                        "time": 0,
                        "value": 1
                    },
                    {
                        "number": 64,
                        "time": 2.571426,
                        "value": 0
                    },
                    {
                        "number": 64,
                        "time": 2.66339019375,
                        "value": 1
                    },
                    {
                        "number": 64,
                        "time": 3.1482111375,
                        "value": 0
                    },
                    {
                        "number": 64,
                        "time": 3.9142818000000004,
                        "value": 1
                    },
                    {
                        "number": 64,
                        "time": 4.403567025,
                        "value": 0
                    },
                    {
                        "number": 64,
                        "time": 5.653565775000001,
                        "value": 1
                    },
                    {
                        "number": 64,
                        "time": 7.714278,
                        "value": 0
                    },
                    {
                        "number": 64,
                        "time": 7.80624219375,
                        "value": 1
                    },
                    {
                        "number": 64,
                        "time": 8.24999175,
                        "value": 0
                    },
                    {
                        "number": 64,
                        "time": 9.057133799999999,
                        "value": 1
                    },
                    {
                        "number": 64,
                        "time": 9.53302618125,
                        "value": 0
                    },
                    {
                        "number": 64,
                        "time": 10.90802480625,
                        "value": 1
                    },
                    {
                        "number": 64,
                        "time": 12.809808618749999,
                        "value": 0
                    },
                    {
                        "number": 64,
                        "time": 14.256235743749999,
                        "value": 1
                    },
                    {
                        "number": 64,
                        "time": 14.583021131249998,
                        "value": 0
                    },
                    {
                        "number": 64,
                        "time": 14.773199512499998,
                        "value": 1
                    },
                    {
                        "number": 64,
                        "time": 15.434805993749999,
                        "value": 0
                    },
                    {
                        "number": 64,
                        "time": 16.80266176875,
                        "value": 1
                    },
                    {
                        "number": 64,
                        "time": 17.15444713125,
                        "value": 0
                    },
                    {
                        "number": 64,
                        "time": 17.3446255125,
                        "value": 1
                    },
                    {
                        "number": 64,
                        "time": 17.999982,
                        "value": 0
                    },
                    {
                        "number": 64,
                        "time": 18.0571248,
                        "value": 1
                    },
                    {
                        "number": 64,
                        "time": 18.44016013125,
                        "value": 0
                    },
                    {
                        "number": 64,
                        "time": 18.6303385125,
                        "value": 1
                    },
                    {
                        "number": 64,
                        "time": 19.285695,
                        "value": 0
                    },
                    {
                        "number": 64,
                        "time": 19.3428378,
                        "value": 1
                    },
                    {
                        "number": 64,
                        "time": 19.72587313125,
                        "value": 0
                    },
                    {
                        "number": 64,
                        "time": 19.9160515125,
                        "value": 1
                    },
                    {
                        "number": 64,
                        "time": 20.571408,
                        "value": 0
                    },
                    {
                        "number": 64,
                        "time": 22.4999775,
                        "value": 1
                    },
                    {
                        "number": 64,
                        "time": 23.142834,
                        "value": 0
                    },
                    {
                        "number": 64,
                        "time": 23.452655118750002,
                        "value": 1
                    },
                    {
                        "number": 64,
                        "time": 25.71872428125,
                        "value": 0
                    },
                    {
                        "number": 64,
                        "time": 25.80622419375,
                        "value": 1
                    },
                    {
                        "number": 64,
                        "time": 26.260688025,
                        "value": 0
                    },
                    {
                        "number": 64,
                        "time": 27.057115800000002,
                        "value": 1
                    },
                    {
                        "number": 64,
                        "time": 27.553543875000003,
                        "value": 0
                    },
                    {
                        "number": 64,
                        "time": 28.898185387500003,
                        "value": 1
                    },
                    {
                        "number": 64,
                        "time": 30.857112000000004,
                        "value": 0
                    },
                    {
                        "number": 64,
                        "time": 30.949076193750006,
                        "value": 1
                    },
                    {
                        "number": 64,
                        "time": 31.406218593750005,
                        "value": 0
                    },
                    {
                        "number": 64,
                        "time": 32.1999678,
                        "value": 1
                    },
                    {
                        "number": 64,
                        "time": 32.69907444375,
                        "value": 0
                    },
                    {
                        "number": 64,
                        "time": 33.939251775,
                        "value": 1
                    },
                    {
                        "number": 64,
                        "time": 35.952642618750005,
                        "value": 0
                    },
                    {
                        "number": 64,
                        "time": 37.386569756250005,
                        "value": 1
                    },
                    {
                        "number": 64,
                        "time": 37.72585513125001,
                        "value": 0
                    },
                    {
                        "number": 64,
                        "time": 37.91603351250001,
                        "value": 1
                    },
                    {
                        "number": 64,
                        "time": 38.57139000000001,
                        "value": 0
                    },
                    {
                        "number": 64,
                        "time": 39.97674573750001,
                        "value": 1
                    },
                    {
                        "number": 64,
                        "time": 40.29728113125001,
                        "value": 0
                    },
                    {
                        "number": 64,
                        "time": 40.48745951250001,
                        "value": 1
                    },
                    {
                        "number": 64,
                        "time": 41.14281600000001,
                        "value": 0
                    },
                    {
                        "number": 64,
                        "time": 41.19995880000001,
                        "value": 1
                    },
                    {
                        "number": 64,
                        "time": 41.58299413125001,
                        "value": 0
                    },
                    {
                        "number": 64,
                        "time": 41.77317251250001,
                        "value": 1
                    },
                    {
                        "number": 64,
                        "time": 42.42852900000001,
                        "value": 0
                    },
                    {
                        "number": 64,
                        "time": 42.48567180000001,
                        "value": 1
                    },
                    {
                        "number": 64,
                        "time": 42.86870713125001,
                        "value": 0
                    },
                    {
                        "number": 64,
                        "time": 43.05888551250001,
                        "value": 1
                    },
                    {
                        "number": 64,
                        "time": 43.71424200000001,
                        "value": 0
                    },
                    {
                        "number": 64,
                        "time": 46.357989356250016,
                        "value": 1
                    },
                    {
                        "number": 64,
                        "time": 47.15530998750002,
                        "value": 0
                    },
                    {
                        "number": 64,
                        "time": 47.218702781250016,
                        "value": 1
                    },
                    {
                        "number": 64,
                        "time": 47.57763099375001,
                        "value": 0
                    },
                    {
                        "number": 64,
                        "time": 48.082094775000016,
                        "value": 1
                    },
                    {
                        "number": 64,
                        "time": 48.85709400000002,
                        "value": 0
                    },
                    {
                        "number": 64,
                        "time": 49.07137950000002,
                        "value": 1
                    },
                    {
                        "number": 64,
                        "time": 49.72673598750002,
                        "value": 0
                    },
                    {
                        "number": 64,
                        "time": 49.79012878125002,
                        "value": 1
                    },
                    {
                        "number": 64,
                        "time": 50.149056993750015,
                        "value": 0
                    },
                    {
                        "number": 64,
                        "time": 50.65352077500002,
                        "value": 1
                    },
                    {
                        "number": 64,
                        "time": 51.42852000000002,
                        "value": 0
                    },
                    {
                        "number": 64,
                        "time": 51.59280555000002,
                        "value": 1
                    },
                    {
                        "number": 64,
                        "time": 52.29816198750002,
                        "value": 0
                    },
                    {
                        "number": 64,
                        "time": 52.437447562500026,
                        "value": 1
                    },
                    {
                        "number": 64,
                        "time": 52.732982981250025,
                        "value": 0
                    },
                    {
                        "number": 64,
                        "time": 52.815125756250026,
                        "value": 1
                    },
                    {
                        "number": 64,
                        "time": 53.15441113125003,
                        "value": 0
                    },
                    {
                        "number": 64,
                        "time": 53.30708955000003,
                        "value": 1
                    },
                    {
                        "number": 64,
                        "time": 54.01244598750003,
                        "value": 0
                    },
                    {
                        "number": 64,
                        "time": 55.30440898125003,
                        "value": 0
                    },
                    {
                        "number": 64,
                        "time": 55.424944575000026,
                        "value": 1
                    },
                    {
                        "number": 64,
                        "time": 55.725837131250024,
                        "value": 0
                    },
                    {
                        "number": 64,
                        "time": 55.928515500000024,
                        "value": 1
                    },
                    {
                        "number": 64,
                        "time": 56.593693406250026,
                        "value": 0
                    },
                    {
                        "number": 64,
                        "time": 56.691014737500026,
                        "value": 1
                    },
                    {
                        "number": 64,
                        "time": 57.44101398750003,
                        "value": 0
                    },
                    {
                        "number": 64,
                        "time": 57.504406781250026,
                        "value": 1
                    },
                    {
                        "number": 64,
                        "time": 57.86333499375002,
                        "value": 0
                    },
                    {
                        "number": 64,
                        "time": 58.367798775000026,
                        "value": 1
                    },
                    {
                        "number": 64,
                        "time": 59.14279800000003,
                        "value": 0
                    },
                    {
                        "number": 64,
                        "time": 59.35708350000003,
                        "value": 1
                    },
                    {
                        "number": 64,
                        "time": 60.01243998750003,
                        "value": 0
                    },
                    {
                        "number": 64,
                        "time": 60.07583278125003,
                        "value": 1
                    },
                    {
                        "number": 64,
                        "time": 60.434760993750025,
                        "value": 0
                    },
                    {
                        "number": 64,
                        "time": 60.93922477500003,
                        "value": 1
                    },
                    {
                        "number": 64,
                        "time": 61.71422400000003,
                        "value": 0
                    },
                    {
                        "number": 64,
                        "time": 61.87850955000003,
                        "value": 1
                    },
                    {
                        "number": 64,
                        "time": 62.58386598750003,
                        "value": 0
                    },
                    {
                        "number": 64,
                        "time": 62.69725873125003,
                        "value": 1
                    },
                    {
                        "number": 64,
                        "time": 63.01868698125003,
                        "value": 0
                    },
                    {
                        "number": 64,
                        "time": 63.53297218125003,
                        "value": 1
                    },
                    {
                        "number": 64,
                        "time": 64.30439998125003,
                        "value": 0
                    },
                    {
                        "number": 64,
                        "time": 64.81868518125003,
                        "value": 1
                    },
                    {
                        "number": 64,
                        "time": 65.59011298125003,
                        "value": 0
                    },
                    {
                        "number": 64,
                        "time": 66.10439818125003,
                        "value": 1
                    },
                    {
                        "number": 64,
                        "time": 66.74368325625004,
                        "value": 0
                    },
                    {
                        "number": 64,
                        "time": 67.28564700000004,
                        "value": 1
                    },
                    {
                        "number": 64,
                        "time": 69.42850200000004,
                        "value": 0
                    },
                    {
                        "number": 64,
                        "time": 69.52046619375004,
                        "value": 1
                    },
                    {
                        "number": 64,
                        "time": 69.96689431875004,
                        "value": 0
                    },
                    {
                        "number": 64,
                        "time": 70.77135780000003,
                        "value": 1
                    },
                    {
                        "number": 64,
                        "time": 71.25796445625004,
                        "value": 0
                    },
                    {
                        "number": 64,
                        "time": 72.51064177500004,
                        "value": 1
                    },
                    {
                        "number": 64,
                        "time": 74.57135400000004,
                        "value": 0
                    },
                    {
                        "number": 64,
                        "time": 74.66331819375004,
                        "value": 1
                    },
                    {
                        "number": 64,
                        "time": 75.10706775000004,
                        "value": 0
                    },
                    {
                        "number": 64,
                        "time": 75.91420980000004,
                        "value": 1
                    },
                    {
                        "number": 64,
                        "time": 76.38831646875003,
                        "value": 0
                    },
                    {
                        "number": 64,
                        "time": 77.65349377500003,
                        "value": 1
                    },
                    {
                        "number": 64,
                        "time": 79.66688461875003,
                        "value": 0
                    },
                    {
                        "number": 64,
                        "time": 81.05706180000003,
                        "value": 1
                    },
                    {
                        "number": 64,
                        "time": 81.44009713125003,
                        "value": 0
                    },
                    {
                        "number": 64,
                        "time": 81.63027551250003,
                        "value": 1
                    },
                    {
                        "number": 64,
                        "time": 82.28563200000004,
                        "value": 0
                    },
                    {
                        "number": 64,
                        "time": 83.67223775625004,
                        "value": 1
                    },
                    {
                        "number": 64,
                        "time": 84.01152313125004,
                        "value": 0
                    },
                    {
                        "number": 64,
                        "time": 84.20170151250005,
                        "value": 1
                    },
                    {
                        "number": 64,
                        "time": 84.85705800000005,
                        "value": 0
                    },
                    {
                        "number": 64,
                        "time": 84.94545076875005,
                        "value": 1
                    },
                    {
                        "number": 64,
                        "time": 85.29723613125005,
                        "value": 0
                    },
                    {
                        "number": 64,
                        "time": 85.48741451250005,
                        "value": 1
                    },
                    {
                        "number": 64,
                        "time": 86.14277100000005,
                        "value": 0
                    },
                    {
                        "number": 64,
                        "time": 86.23741376250005,
                        "value": 1
                    },
                    {
                        "number": 64,
                        "time": 86.58294913125006,
                        "value": 0
                    },
                    {
                        "number": 64,
                        "time": 86.77312751250007,
                        "value": 1
                    },
                    {
                        "number": 64,
                        "time": 87.42848400000007,
                        "value": 0
                    },
                    {
                        "number": 64,
                        "time": 89.35705350000006,
                        "value": 1
                    },
                    {
                        "number": 64,
                        "time": 90.04812423750006,
                        "value": 0
                    },
                    {
                        "number": 64,
                        "time": 90.10080275625006,
                        "value": 1
                    },
                    {
                        "number": 64,
                        "time": 90.86776627500006,
                        "value": 0
                    },
                    {
                        "number": 64,
                        "time": 90.93294478125007,
                        "value": 1
                    },
                    {
                        "number": 64,
                        "time": 91.29812298750007,
                        "value": 0
                    },
                    {
                        "number": 64,
                        "time": 91.39276575000007,
                        "value": 1
                    },
                    {
                        "number": 64,
                        "time": 92.58740741250007,
                        "value": 0
                    },
                    {
                        "number": 64,
                        "time": 92.73205012500007,
                        "value": 1
                    },
                    {
                        "number": 64,
                        "time": 93.45347797500007,
                        "value": 0
                    },
                    {
                        "number": 64,
                        "time": 93.52669218750007,
                        "value": 1
                    },
                    {
                        "number": 64,
                        "time": 93.85704900000007,
                        "value": 0
                    },
                    {
                        "number": 64,
                        "time": 93.93383463750007,
                        "value": 1
                    },
                    {
                        "number": 64,
                        "time": 95.29454756250007,
                        "value": 0
                    },
                    {
                        "number": 64,
                        "time": 95.66686861875007,
                        "value": 1
                    },
                    {
                        "number": 64,
                        "time": 96.83383173750008,
                        "value": 0
                    },
                    {
                        "number": 64,
                        "time": 97.86597356250007,
                        "value": 0
                    },
                    {
                        "number": 64,
                        "time": 98.23829461875007,
                        "value": 1
                    },
                    {
                        "number": 64,
                        "time": 101.19364880625008,
                        "value": 0
                    }
                ]
            },
            "id": 3,
            "name": "Pedale",
            "instrumentNumber": 0,
            "instrument": "acoustic grand piano",
            "instrumentFamily": "piano",
            "channelNumber": 0,
            "isPercussion": false
        },
        {
            "startTime": 0,
            "duration": 0,
            "length": 0,
            "notes": [],
            "controlChanges": {},
            "id": 4,
            "name": "Grieg: Lyric Pieces Op. 12 No. 2 Valse"
        },
        {
            "startTime": 0,
            "duration": 0,
            "length": 0,
            "notes": [],
            "controlChanges": {},
            "id": 5,
            "name": "Copyright  2007 by Bernd Krueger"
        },
        {
            "startTime": 0,
            "duration": 0,
            "length": 0,
            "notes": [],
            "controlChanges": {},
            "id": 6,
            "name": "http://www.piano-midi.de/"
        },
        {
            "startTime": 0,
            "duration": 0,
            "length": 0,
            "notes": [],
            "controlChanges": {},
            "id": 7,
            "name": "Edition: 2012-10-27"
        },
        {
            "startTime": 0,
            "duration": 0,
            "length": 0,
            "notes": [],
            "controlChanges": {},
            "id": 8,
            "name": "Spur 8"
        },
        {
            "startTime": 0,
            "duration": 0,
            "length": 0,
            "notes": [],
            "controlChanges": {},
            "id": 9,
            "name": "Spur 9"
        },
        {
            "startTime": 0,
            "duration": 0,
            "length": 0,
            "notes": [],
            "controlChanges": {},
            "id": 10,
            "name": "Spur 10"
        },
        {
            "startTime": 0,
            "duration": 0,
            "length": 0,
            "notes": [],
            "controlChanges": {},
            "id": 11,
            "name": "Spur 11"
        },
        {
            "startTime": 0,
            "duration": 0,
            "length": 0,
            "notes": [],
            "controlChanges": {},
            "id": 12,
            "name": "Spur 12"
        },
        {
            "startTime": 0,
            "duration": 0,
            "length": 0,
            "notes": [],
            "controlChanges": {},
            "id": 13,
            "name": "Spur 13"
        },
        {
            "startTime": 0,
            "duration": 0,
            "length": 0,
            "notes": [],
            "controlChanges": {},
            "id": 14,
            "name": "Spur 14"
        },
        {
            "startTime": 0,
            "duration": 0,
            "length": 0,
            "notes": [],
            "controlChanges": {},
            "id": 15,
            "name": "Spur 15"
        },
        {
            "startTime": 0,
            "duration": 0,
            "length": 0,
            "notes": [],
            "controlChanges": {},
            "id": 16,
            "name": "Spur 16"
        }
    ]
}