{
    "header": {
        "PPQ": 480,
        "timeSignature": [
            2,
            4
        ],
        "bpm": 73.41003050186767,
        "name": "Etude No. 5 aus Grandes Etudes de Paganini"
    },
    "startTime": 0,
    "duration": 212.0963565000003,
    "tracks": [
        {
            "startTime": 0,
            "duration": 0,
            "length": 0,
            "notes": [],
            "controlChanges": {},
            "id": 0,
            "name": "Etude No. 5 aus Grandes Etudes de Paganini"
        },
        {
            "startTime": 1.2259905,
            "duration": 212.09635649999925,
            "length": 1400,
            "notes": [
                {
                    "name": "G#5",
                    "midi": 80,
                    "time": 1.2259905,
                    "velocity": 0.30708661417322836,
                    "duration": 0.20092622083333334
                },
                {
                    "name": "B5",
                    "midi": 83,
                    "time": 1.2259905,
                    "velocity": 0.3464566929133858,
                    "duration": 0.20092622083333334
                },
                {
                    "name": "A5",
                    "midi": 81,
                    "time": 1.43032225,
                    "velocity": 0.3228346456692913,
                    "duration": 0.20092622083333334
                },
                {
                    "name": "F#5",
                    "midi": 78,
                    "time": 1.43032225,
                    "velocity": 0.28346456692913385,
                    "duration": 0.20092622083333334
                },
                {
                    "name": "E5",
                    "midi": 76,
                    "time": 1.6346539999999998,
                    "velocity": 0.33070866141732286,
                    "duration": 0.3746082083333335
                },
                {
                    "name": "G#5",
                    "midi": 80,
                    "time": 1.6346539999999998,
                    "velocity": 0.36220472440944884,
                    "duration": 0.3746082083333335
                },
                {
                    "name": "G#5",
                    "midi": 80,
                    "time": 2.0433175,
                    "velocity": 0.29133858267716534,
                    "duration": 0.20092622083333334
                },
                {
                    "name": "E5",
                    "midi": 76,
                    "time": 2.0433175,
                    "velocity": 0.2677165354330709,
                    "duration": 0.20092622083333334
                },
                {
                    "name": "B4",
                    "midi": 71,
                    "time": 2.2476492500000003,
                    "velocity": 0.25196850393700787,
                    "duration": 0.20092622083333334
                },
                {
                    "name": "F#5",
                    "midi": 78,
                    "time": 2.2476492500000003,
                    "velocity": 0.28346456692913385,
                    "duration": 0.20092622083333334
                },
                {
                    "name": "G#4",
                    "midi": 68,
                    "time": 2.4519810000000004,
                    "velocity": 0.2755905511811024,
                    "duration": 0.3746082083333335
                },
                {
                    "name": "E5",
                    "midi": 76,
                    "time": 2.4519810000000004,
                    "velocity": 0.31496062992125984,
                    "duration": 0.3746082083333335
                },
                {
                    "name": "B5",
                    "midi": 83,
                    "time": 2.8606445000000007,
                    "velocity": 0.33858267716535434,
                    "duration": 0.20092622083333334
                },
                {
                    "name": "G#5",
                    "midi": 80,
                    "time": 2.8606445000000007,
                    "velocity": 0.29133858267716534,
                    "duration": 0.20092622083333334
                },
                {
                    "name": "F#5",
                    "midi": 78,
                    "time": 3.064976250000001,
                    "velocity": 0.2755905511811024,
                    "duration": 0.20092622083333334
                },
                {
                    "name": "A5",
                    "midi": 81,
                    "time": 3.064976250000001,
                    "velocity": 0.31496062992125984,
                    "duration": 0.20092622083333334
                },
                {
                    "name": "E5",
                    "midi": 76,
                    "time": 3.269308000000001,
                    "velocity": 0.31496062992125984,
                    "duration": 0.3746082083333335
                },
                {
                    "name": "G#5",
                    "midi": 80,
                    "time": 3.269308000000001,
                    "velocity": 0.3543307086614173,
                    "duration": 0.3746082083333335
                },
                {
                    "name": "G#5",
                    "midi": 80,
                    "time": 3.6779715000000013,
                    "velocity": 0.29133858267716534,
                    "duration": 0.20092622083333334
                },
                {
                    "name": "E5",
                    "midi": 76,
                    "time": 3.6779715000000013,
                    "velocity": 0.2677165354330709,
                    "duration": 0.20092622083333334
                },
                {
                    "name": "B4",
                    "midi": 71,
                    "time": 3.8823032500000014,
                    "velocity": 0.25196850393700787,
                    "duration": 0.2009262208333329
                },
                {
                    "name": "F#5",
                    "midi": 78,
                    "time": 3.8823032500000014,
                    "velocity": 0.28346456692913385,
                    "duration": 0.2009262208333329
                },
                {
                    "name": "E5",
                    "midi": 76,
                    "time": 4.086635000000001,
                    "velocity": 0.33070866141732286,
                    "duration": 0.3746082083333331
                },
                {
                    "name": "G#4",
                    "midi": 68,
                    "time": 4.086635000000001,
                    "velocity": 0.28346456692913385,
                    "duration": 0.3746082083333331
                },
                {
                    "name": "E5",
                    "midi": 76,
                    "time": 4.4952985000000005,
                    "velocity": 0.33070866141732286,
                    "duration": 0.2009262208333329
                },
                {
                    "name": "G#4",
                    "midi": 68,
                    "time": 4.4952985000000005,
                    "velocity": 0.28346456692913385,
                    "duration": 0.2009262208333329
                },
                {
                    "name": "B4",
                    "midi": 71,
                    "time": 4.69963025,
                    "velocity": 0.2677165354330709,
                    "duration": 0.2009262208333329
                },
                {
                    "name": "F#5",
                    "midi": 78,
                    "time": 4.69963025,
                    "velocity": 0.29133858267716534,
                    "duration": 0.2009262208333329
                },
                {
                    "name": "G#5",
                    "midi": 80,
                    "time": 4.903962,
                    "velocity": 0.3543307086614173,
                    "duration": 0.3746082083333331
                },
                {
                    "name": "E5",
                    "midi": 76,
                    "time": 4.903962,
                    "velocity": 0.31496062992125984,
                    "duration": 0.3746082083333331
                },
                {
                    "name": "B4",
                    "midi": 71,
                    "time": 5.312625499999999,
                    "velocity": 0.30708661417322836,
                    "duration": 0.2009262208333329
                },
                {
                    "name": "F#5",
                    "midi": 78,
                    "time": 5.312625499999999,
                    "velocity": 0.3464566929133858,
                    "duration": 0.2009262208333329
                },
                {
                    "name": "E5",
                    "midi": 76,
                    "time": 5.516957249999999,
                    "velocity": 0.2755905511811024,
                    "duration": 0.2009262208333329
                },
                {
                    "name": "G#5",
                    "midi": 80,
                    "time": 5.516957249999999,
                    "velocity": 0.31496062992125984,
                    "duration": 0.2009262208333329
                },
                {
                    "name": "F#5",
                    "midi": 78,
                    "time": 5.721288999999999,
                    "velocity": 0.3700787401574803,
                    "duration": 0.3746082083333331
                },
                {
                    "name": "A5",
                    "midi": 81,
                    "time": 5.721288999999999,
                    "velocity": 0.3700787401574803,
                    "duration": 0.3746082083333331
                },
                {
                    "name": "B4",
                    "midi": 71,
                    "time": 6.129952499999998,
                    "velocity": 0.31496062992125984,
                    "duration": 0.2009262208333329
                },
                {
                    "name": "F#5",
                    "midi": 78,
                    "time": 6.129952499999998,
                    "velocity": 0.3543307086614173,
                    "duration": 0.2009262208333329
                },
                {
                    "name": "F#5",
                    "midi": 78,
                    "time": 6.334284249999998,
                    "velocity": 0.29133858267716534,
                    "duration": 0.2009262208333329
                },
                {
                    "name": "A5",
                    "midi": 81,
                    "time": 6.334284249999998,
                    "velocity": 0.33858267716535434,
                    "duration": 0.2009262208333329
                },
                {
                    "name": "B5",
                    "midi": 83,
                    "time": 6.5386159999999975,
                    "velocity": 0.3937007874015748,
                    "duration": 0.3746082083333331
                },
                {
                    "name": "G#5",
                    "midi": 80,
                    "time": 6.5386159999999975,
                    "velocity": 0.3464566929133858,
                    "duration": 0.3746082083333331
                },
                {
                    "name": "F#5",
                    "midi": 78,
                    "time": 6.947279499999997,
                    "velocity": 0.2755905511811024,
                    "duration": 0.2009262208333329
                },
                {
                    "name": "A5",
                    "midi": 81,
                    "time": 6.947279499999997,
                    "velocity": 0.30708661417322836,
                    "duration": 0.2009262208333329
                },
                {
                    "name": "G#5",
                    "midi": 80,
                    "time": 7.151611249999997,
                    "velocity": 0.28346456692913385,
                    "duration": 0.2009262208333329
                },
                {
                    "name": "E5",
                    "midi": 76,
                    "time": 7.151611249999997,
                    "velocity": 0.25984251968503935,
                    "duration": 0.2009262208333329
                },
                {
                    "name": "B4",
                    "midi": 71,
                    "time": 7.355942999999996,
                    "velocity": 0.30708661417322836,
                    "duration": 0.3746082083333331
                },
                {
                    "name": "F#5",
                    "midi": 78,
                    "time": 7.355942999999996,
                    "velocity": 0.3464566929133858,
                    "duration": 0.3746082083333331
                },
                {
                    "name": "B5",
                    "midi": 83,
                    "time": 7.764606499999996,
                    "velocity": 0.3464566929133858,
                    "duration": 0.2009262208333329
                },
                {
                    "name": "G#5",
                    "midi": 80,
                    "time": 7.764606499999996,
                    "velocity": 0.30708661417322836,
                    "duration": 0.2009262208333329
                },
                {
                    "name": "F#5",
                    "midi": 78,
                    "time": 7.9689382499999954,
                    "velocity": 0.28346456692913385,
                    "duration": 0.2009262208333329
                },
                {
                    "name": "A5",
                    "midi": 81,
                    "time": 7.9689382499999954,
                    "velocity": 0.3228346456692913,
                    "duration": 0.2009262208333329
                },
                {
                    "name": "G#5",
                    "midi": 80,
                    "time": 8.173269999999995,
                    "velocity": 0.3858267716535433,
                    "duration": 0.3746082083333331
                },
                {
                    "name": "E5",
                    "midi": 76,
                    "time": 8.173269999999995,
                    "velocity": 0.3464566929133858,
                    "duration": 0.3746082083333331
                },
                {
                    "name": "E5",
                    "midi": 76,
                    "time": 8.581933499999995,
                    "velocity": 0.2755905511811024,
                    "duration": 0.2009262208333329
                },
                {
                    "name": "G#5",
                    "midi": 80,
                    "time": 8.581933499999995,
                    "velocity": 0.31496062992125984,
                    "duration": 0.2009262208333329
                },
                {
                    "name": "F#5",
                    "midi": 78,
                    "time": 8.786265249999994,
                    "velocity": 0.28346456692913385,
                    "duration": 0.2009262208333329
                },
                {
                    "name": "B4",
                    "midi": 71,
                    "time": 8.786265249999994,
                    "velocity": 0.25984251968503935,
                    "duration": 0.2009262208333329
                },
                {
                    "name": "E5",
                    "midi": 76,
                    "time": 8.990596999999994,
                    "velocity": 0.3464566929133858,
                    "duration": 0.3746082083333331
                },
                {
                    "name": "G#4",
                    "midi": 68,
                    "time": 8.990596999999994,
                    "velocity": 0.30708661417322836,
                    "duration": 0.3746082083333331
                },
                {
                    "name": "G#5",
                    "midi": 80,
                    "time": 9.399260499999993,
                    "velocity": 0.33858267716535434,
                    "duration": 0.2009262208333329
                },
                {
                    "name": "B5",
                    "midi": 83,
                    "time": 9.399260499999993,
                    "velocity": 0.3700787401574803,
                    "duration": 0.2009262208333329
                },
                {
                    "name": "A5",
                    "midi": 81,
                    "time": 9.603592249999993,
                    "velocity": 0.3464566929133858,
                    "duration": 0.2009262208333329
                },
                {
                    "name": "F#5",
                    "midi": 78,
                    "time": 9.603592249999993,
                    "velocity": 0.30708661417322836,
                    "duration": 0.2009262208333329
                },
                {
                    "name": "E5",
                    "midi": 76,
                    "time": 9.807923999999993,
                    "velocity": 0.36220472440944884,
                    "duration": 0.3746082083333331
                },
                {
                    "name": "G#5",
                    "midi": 80,
                    "time": 9.807923999999993,
                    "velocity": 0.41732283464566927,
                    "duration": 0.3746082083333331
                },
                {
                    "name": "E5",
                    "midi": 76,
                    "time": 10.216587499999992,
                    "velocity": 0.2755905511811024,
                    "duration": 0.2009262208333329
                },
                {
                    "name": "G#5",
                    "midi": 80,
                    "time": 10.216587499999992,
                    "velocity": 0.30708661417322836,
                    "duration": 0.2009262208333329
                },
                {
                    "name": "B4",
                    "midi": 71,
                    "time": 10.420919249999992,
                    "velocity": 0.25196850393700787,
                    "duration": 0.2009262208333329
                },
                {
                    "name": "F#5",
                    "midi": 78,
                    "time": 10.420919249999992,
                    "velocity": 0.28346456692913385,
                    "duration": 0.2009262208333329
                },
                {
                    "name": "G#4",
                    "midi": 68,
                    "time": 10.625250999999992,
                    "velocity": 0.3464566929133858,
                    "duration": 0.3746082083333331
                },
                {
                    "name": "E5",
                    "midi": 76,
                    "time": 10.625250999999992,
                    "velocity": 0.3464566929133858,
                    "duration": 0.3746082083333331
                },
                {
                    "name": "G#4",
                    "midi": 68,
                    "time": 11.033914499999991,
                    "velocity": 0.31496062992125984,
                    "duration": 0.2009262208333329
                },
                {
                    "name": "E5",
                    "midi": 76,
                    "time": 11.033914499999991,
                    "velocity": 0.3543307086614173,
                    "duration": 0.2009262208333329
                },
                {
                    "name": "F#5",
                    "midi": 78,
                    "time": 11.23824624999999,
                    "velocity": 0.3228346456692913,
                    "duration": 0.2009262208333329
                },
                {
                    "name": "B4",
                    "midi": 71,
                    "time": 11.23824624999999,
                    "velocity": 0.28346456692913385,
                    "duration": 0.2009262208333329
                },
                {
                    "name": "E5",
                    "midi": 76,
                    "time": 11.44257799999999,
                    "velocity": 0.30708661417322836,
                    "duration": 0.3746082083333331
                },
                {
                    "name": "G#5",
                    "midi": 80,
                    "time": 11.44257799999999,
                    "velocity": 0.3464566929133858,
                    "duration": 0.3746082083333331
                },
                {
                    "name": "A5",
                    "midi": 81,
                    "time": 11.85124149999999,
                    "velocity": 0.30708661417322836,
                    "duration": 0.2009262208333329
                },
                {
                    "name": "F#5",
                    "midi": 78,
                    "time": 11.85124149999999,
                    "velocity": 0.2755905511811024,
                    "duration": 0.2009262208333329
                },
                {
                    "name": "G#5",
                    "midi": 80,
                    "time": 12.05557324999999,
                    "velocity": 0.2755905511811024,
                    "duration": 0.2009262208333329
                },
                {
                    "name": "E5",
                    "midi": 76,
                    "time": 12.05557324999999,
                    "velocity": 0.2440944881889764,
                    "duration": 0.2009262208333329
                },
                {
                    "name": "B4",
                    "midi": 71,
                    "time": 12.25990499999999,
                    "velocity": 0.25984251968503935,
                    "duration": 0.3746082083333331
                },
                {
                    "name": "F#5",
                    "midi": 78,
                    "time": 12.25990499999999,
                    "velocity": 0.28346456692913385,
                    "duration": 0.3746082083333331
                },
                {
                    "name": "G#5",
                    "midi": 80,
                    "time": 12.668568499999989,
                    "velocity": 0.28346456692913385,
                    "duration": 0.2009262208333329
                },
                {
                    "name": "E5",
                    "midi": 76,
                    "time": 12.668568499999989,
                    "velocity": 0.25196850393700787,
                    "duration": 0.2009262208333329
                },
                {
                    "name": "B4",
                    "midi": 71,
                    "time": 12.872900249999988,
                    "velocity": 0.2125984251968504,
                    "duration": 0.2009262208333329
                },
                {
                    "name": "F#5",
                    "midi": 78,
                    "time": 12.872900249999988,
                    "velocity": 0.25196850393700787,
                    "duration": 0.2009262208333329
                },
                {
                    "name": "G#4",
                    "midi": 68,
                    "time": 13.077231999999988,
                    "velocity": 0.23622047244094488,
                    "duration": 0.8173270000000006
                },
                {
                    "name": "E5",
                    "midi": 76,
                    "time": 13.077231999999988,
                    "velocity": 0.2677165354330709,
                    "duration": 0.8173270000000006
                },
                {
                    "name": "G#3",
                    "midi": 56,
                    "time": 14.303222499999988,
                    "velocity": 0.47244094488188976,
                    "duration": 0.09876034583333393
                },
                {
                    "name": "E4",
                    "midi": 64,
                    "time": 14.303222499999988,
                    "velocity": 0.5196850393700787,
                    "duration": 0.09876034583333393
                },
                {
                    "name": "E4",
                    "midi": 64,
                    "time": 14.50755424999999,
                    "velocity": 0.4409448818897638,
                    "duration": 0.09876034583333393
                },
                {
                    "name": "G#4",
                    "midi": 68,
                    "time": 14.50755424999999,
                    "velocity": 0.49606299212598426,
                    "duration": 0.09876034583333393
                },
                {
                    "name": "B3",
                    "midi": 59,
                    "time": 14.711885999999991,
                    "velocity": 0.5118110236220472,
                    "duration": 0.3746082083333331
                },
                {
                    "name": "F#4",
                    "midi": 66,
                    "time": 14.711885999999991,
                    "velocity": 0.5748031496062992,
                    "duration": 0.3746082083333331
                },
                {
                    "name": "E4",
                    "midi": 64,
                    "time": 15.12054949999999,
                    "velocity": 0.47244094488188976,
                    "duration": 0.09876034583333393
                },
                {
                    "name": "G#4",
                    "midi": 68,
                    "time": 15.12054949999999,
                    "velocity": 0.5196850393700787,
                    "duration": 0.09876034583333393
                },
                {
                    "name": "A4",
                    "midi": 69,
                    "time": 15.324881249999992,
                    "velocity": 0.49606299212598426,
                    "duration": 0.09876034583333393
                },
                {
                    "name": "F#4",
                    "midi": 66,
                    "time": 15.324881249999992,
                    "velocity": 0.4409448818897638,
                    "duration": 0.09876034583333393
                },
                {
                    "name": "G#4",
                    "midi": 68,
                    "time": 15.529212999999993,
                    "velocity": 0.49606299212598426,
                    "duration": 0.3746082083333331
                },
                {
                    "name": "B4",
                    "midi": 71,
                    "time": 15.529212999999993,
                    "velocity": 0.5669291338582677,
                    "duration": 0.3746082083333331
                },
                {
                    "name": "C#5",
                    "midi": 73,
                    "time": 15.937876499999993,
                    "velocity": 0.5118110236220472,
                    "duration": 0.09876034583333215
                },
                {
                    "name": "A4",
                    "midi": 69,
                    "time": 15.937876499999993,
                    "velocity": 0.4645669291338583,
                    "duration": 0.09876034583333215
                },
                {
                    "name": "B4",
                    "midi": 71,
                    "time": 16.142208249999992,
                    "velocity": 0.49606299212598426,
                    "duration": 0.09876034583333393
                },
                {
                    "name": "G#4",
                    "midi": 68,
                    "time": 16.142208249999992,
                    "velocity": 0.4330708661417323,
                    "duration": 0.09876034583333393
                },
                {
                    "name": "F#4",
                    "midi": 66,
                    "time": 16.346539999999994,
                    "velocity": 0.49606299212598426,
                    "duration": 0.37460820833333486
                },
                {
                    "name": "A4",
                    "midi": 69,
                    "time": 16.346539999999994,
                    "velocity": 0.5590551181102362,
                    "duration": 0.37460820833333486
                },
                {
                    "name": "G#4",
                    "midi": 68,
                    "time": 16.755203499999997,
                    "velocity": 0.5590551181102362,
                    "duration": 0.09876034583333393
                },
                {
                    "name": "E4",
                    "midi": 64,
                    "time": 16.755203499999997,
                    "velocity": 0.49606299212598426,
                    "duration": 0.09876034583333393
                },
                {
                    "name": "F#4",
                    "midi": 66,
                    "time": 16.95953525,
                    "velocity": 0.47244094488188976,
                    "duration": 0.09876034583333393
                },
                {
                    "name": "A4",
                    "midi": 69,
                    "time": 16.95953525,
                    "velocity": 0.5196850393700787,
                    "duration": 0.09876034583333393
                },
                {
                    "name": "B3",
                    "midi": 59,
                    "time": 17.163867,
                    "velocity": 0.5196850393700787,
                    "duration": 0.37460820833333486
                },
                {
                    "name": "F#4",
                    "midi": 66,
                    "time": 17.163867,
                    "velocity": 0.5826771653543307,
                    "duration": 0.37460820833333486
                },
                {
                    "name": "G#3",
                    "midi": 56,
                    "time": 17.572530500000003,
                    "velocity": 0.47244094488188976,
                    "duration": 0.09876034583333393
                },
                {
                    "name": "E4",
                    "midi": 64,
                    "time": 17.572530500000003,
                    "velocity": 0.5196850393700787,
                    "duration": 0.09876034583333393
                },
                {
                    "name": "E4",
                    "midi": 64,
                    "time": 17.776862250000004,
                    "velocity": 0.44881889763779526,
                    "duration": 0.09876034583333393
                },
                {
                    "name": "G#4",
                    "midi": 68,
                    "time": 17.776862250000004,
                    "velocity": 0.5039370078740157,
                    "duration": 0.09876034583333393
                },
                {
                    "name": "B3",
                    "midi": 59,
                    "time": 17.981194000000006,
                    "velocity": 0.5118110236220472,
                    "duration": 0.37460820833333486
                },
                {
                    "name": "F#4",
                    "midi": 66,
                    "time": 17.981194000000006,
                    "velocity": 0.5748031496062992,
                    "duration": 0.37460820833333486
                },
                {
                    "name": "G#4",
                    "midi": 68,
                    "time": 18.38985750000001,
                    "velocity": 0.5196850393700787,
                    "duration": 0.09876034583333393
                },
                {
                    "name": "E4",
                    "midi": 64,
                    "time": 18.38985750000001,
                    "velocity": 0.47244094488188976,
                    "duration": 0.09876034583333393
                },
                {
                    "name": "F#4",
                    "midi": 66,
                    "time": 18.59418925000001,
                    "velocity": 0.4409448818897638,
                    "duration": 0.09876034583333393
                },
                {
                    "name": "A4",
                    "midi": 69,
                    "time": 18.59418925000001,
                    "velocity": 0.49606299212598426,
                    "duration": 0.09876034583333393
                },
                {
                    "name": "B4",
                    "midi": 71,
                    "time": 18.79852100000001,
                    "velocity": 0.5669291338582677,
                    "duration": 0.37460820833333486
                },
                {
                    "name": "G#4",
                    "midi": 68,
                    "time": 18.79852100000001,
                    "velocity": 0.49606299212598426,
                    "duration": 0.37460820833333486
                },
                {
                    "name": "C#5",
                    "midi": 73,
                    "time": 19.207184500000015,
                    "velocity": 0.5118110236220472,
                    "duration": 0.09876034583333393
                },
                {
                    "name": "A4",
                    "midi": 69,
                    "time": 19.207184500000015,
                    "velocity": 0.4645669291338583,
                    "duration": 0.09876034583333393
                },
                {
                    "name": "G#4",
                    "midi": 68,
                    "time": 19.411516250000016,
                    "velocity": 0.4409448818897638,
                    "duration": 0.09876034583333393
                },
                {
                    "name": "B4",
                    "midi": 71,
                    "time": 19.411516250000016,
                    "velocity": 0.49606299212598426,
                    "duration": 0.09876034583333393
                },
                {
                    "name": "A4",
                    "midi": 69,
                    "time": 19.615848000000017,
                    "velocity": 0.5433070866141733,
                    "duration": 0.37460820833333486
                },
                {
                    "name": "F#4",
                    "midi": 66,
                    "time": 19.615848000000017,
                    "velocity": 0.4881889763779528,
                    "duration": 0.37460820833333486
                },
                {
                    "name": "E4",
                    "midi": 64,
                    "time": 20.02451150000002,
                    "velocity": 0.49606299212598426,
                    "duration": 0.09876034583333393
                },
                {
                    "name": "G#4",
                    "midi": 68,
                    "time": 20.02451150000002,
                    "velocity": 0.5590551181102362,
                    "duration": 0.09876034583333393
                },
                {
                    "name": "F#4",
                    "midi": 66,
                    "time": 20.228843250000022,
                    "velocity": 0.47244094488188976,
                    "duration": 0.09876034583333393
                },
                {
                    "name": "A4",
                    "midi": 69,
                    "time": 20.228843250000022,
                    "velocity": 0.5196850393700787,
                    "duration": 0.09876034583333393
                },
                {
                    "name": "B3",
                    "midi": 59,
                    "time": 20.433175000000023,
                    "velocity": 0.47244094488188976,
                    "duration": 0.30649762499999866
                },
                {
                    "name": "F#4",
                    "midi": 66,
                    "time": 20.433175000000023,
                    "velocity": 0.5196850393700787,
                    "duration": 0.30649762499999866
                },
                {
                    "name": "B5",
                    "midi": 83,
                    "time": 20.841838500000023,
                    "velocity": 0.3700787401574803,
                    "duration": 0.20092622083333467
                },
                {
                    "name": "G#5",
                    "midi": 80,
                    "time": 20.841838500000023,
                    "velocity": 0.33858267716535434,
                    "duration": 0.20092622083333467
                },
                {
                    "name": "F#5",
                    "midi": 78,
                    "time": 21.046170250000024,
                    "velocity": 0.3228346456692913,
                    "duration": 0.20092622083333467
                },
                {
                    "name": "A5",
                    "midi": 81,
                    "time": 21.046170250000024,
                    "velocity": 0.3543307086614173,
                    "duration": 0.20092622083333467
                },
                {
                    "name": "G#5",
                    "midi": 80,
                    "time": 21.250502000000026,
                    "velocity": 0.41732283464566927,
                    "duration": 0.37460820833333486
                },
                {
                    "name": "E5",
                    "midi": 76,
                    "time": 21.250502000000026,
                    "velocity": 0.36220472440944884,
                    "duration": 0.37460820833333486
                },
                {
                    "name": "E5",
                    "midi": 76,
                    "time": 21.65916550000003,
                    "velocity": 0.2755905511811024,
                    "duration": 0.20092622083333467
                },
                {
                    "name": "G#5",
                    "midi": 80,
                    "time": 21.65916550000003,
                    "velocity": 0.30708661417322836,
                    "duration": 0.20092622083333467
                },
                {
                    "name": "B4",
                    "midi": 71,
                    "time": 21.86349725000003,
                    "velocity": 0.25984251968503935,
                    "duration": 0.20092622083333467
                },
                {
                    "name": "F#5",
                    "midi": 78,
                    "time": 21.86349725000003,
                    "velocity": 0.28346456692913385,
                    "duration": 0.20092622083333467
                },
                {
                    "name": "G#4",
                    "midi": 68,
                    "time": 22.06782900000003,
                    "velocity": 0.30708661417322836,
                    "duration": 0.37460820833333486
                },
                {
                    "name": "E5",
                    "midi": 76,
                    "time": 22.06782900000003,
                    "velocity": 0.3464566929133858,
                    "duration": 0.37460820833333486
                },
                {
                    "name": "G#4",
                    "midi": 68,
                    "time": 22.476492500000035,
                    "velocity": 0.47244094488188976,
                    "duration": 0.09876034583333393
                },
                {
                    "name": "B4",
                    "midi": 71,
                    "time": 22.476492500000035,
                    "velocity": 0.5196850393700787,
                    "duration": 0.09876034583333393
                },
                {
                    "name": "F#4",
                    "midi": 66,
                    "time": 22.680824250000036,
                    "velocity": 0.4251968503937008,
                    "duration": 0.09876034583333393
                },
                {
                    "name": "A4",
                    "midi": 69,
                    "time": 22.680824250000036,
                    "velocity": 0.4881889763779528,
                    "duration": 0.09876034583333393
                },
                {
                    "name": "G#4",
                    "midi": 68,
                    "time": 22.885156000000038,
                    "velocity": 0.5669291338582677,
                    "duration": 0.37460820833333486
                },
                {
                    "name": "E4",
                    "midi": 64,
                    "time": 22.885156000000038,
                    "velocity": 0.5039370078740157,
                    "duration": 0.37460820833333486
                },
                {
                    "name": "E4",
                    "midi": 64,
                    "time": 23.29381950000004,
                    "velocity": 0.4645669291338583,
                    "duration": 0.09876034583333393
                },
                {
                    "name": "G#4",
                    "midi": 68,
                    "time": 23.29381950000004,
                    "velocity": 0.5118110236220472,
                    "duration": 0.09876034583333393
                },
                {
                    "name": "F#4",
                    "midi": 66,
                    "time": 23.498151250000042,
                    "velocity": 0.4881889763779528,
                    "duration": 0.09876034583333393
                },
                {
                    "name": "B3",
                    "midi": 59,
                    "time": 23.498151250000042,
                    "velocity": 0.4251968503937008,
                    "duration": 0.09876034583333393
                },
                {
                    "name": "E4",
                    "midi": 64,
                    "time": 23.702483000000043,
                    "velocity": 0.5669291338582677,
                    "duration": 0.30649762499999866
                },
                {
                    "name": "G#3",
                    "midi": 56,
                    "time": 23.702483000000043,
                    "velocity": 0.49606299212598426,
                    "duration": 0.30649762499999866
                },
                {
                    "name": "G#4",
                    "midi": 68,
                    "time": 24.111146500000043,
                    "velocity": 0.31496062992125984,
                    "duration": 0.20092622083333467
                },
                {
                    "name": "E5",
                    "midi": 76,
                    "time": 24.111146500000043,
                    "velocity": 0.3543307086614173,
                    "duration": 0.20092622083333467
                },
                {
                    "name": "F#5",
                    "midi": 78,
                    "time": 24.315478250000044,
                    "velocity": 0.3228346456692913,
                    "duration": 0.20092622083333467
                },
                {
                    "name": "B4",
                    "midi": 71,
                    "time": 24.315478250000044,
                    "velocity": 0.28346456692913385,
                    "duration": 0.20092622083333467
                },
                {
                    "name": "E5",
                    "midi": 76,
                    "time": 24.519810000000046,
                    "velocity": 0.30708661417322836,
                    "duration": 0.37460820833333486
                },
                {
                    "name": "G#5",
                    "midi": 80,
                    "time": 24.519810000000046,
                    "velocity": 0.3464566929133858,
                    "duration": 0.37460820833333486
                },
                {
                    "name": "F#5",
                    "midi": 78,
                    "time": 24.92847350000005,
                    "velocity": 0.2755905511811024,
                    "duration": 0.20092622083333467
                },
                {
                    "name": "A5",
                    "midi": 81,
                    "time": 24.92847350000005,
                    "velocity": 0.30708661417322836,
                    "duration": 0.20092622083333467
                },
                {
                    "name": "E5",
                    "midi": 76,
                    "time": 25.13280525000005,
                    "velocity": 0.2440944881889764,
                    "duration": 0.20092622083333467
                },
                {
                    "name": "G#5",
                    "midi": 80,
                    "time": 25.13280525000005,
                    "velocity": 0.2755905511811024,
                    "duration": 0.20092622083333467
                },
                {
                    "name": "B4",
                    "midi": 71,
                    "time": 25.33713700000005,
                    "velocity": 0.25984251968503935,
                    "duration": 0.37460820833333486
                },
                {
                    "name": "F#5",
                    "midi": 78,
                    "time": 25.33713700000005,
                    "velocity": 0.28346456692913385,
                    "duration": 0.37460820833333486
                },
                {
                    "name": "E5",
                    "midi": 76,
                    "time": 25.745800500000055,
                    "velocity": 0.25196850393700787,
                    "duration": 0.20092622083333467
                },
                {
                    "name": "G#5",
                    "midi": 80,
                    "time": 25.745800500000055,
                    "velocity": 0.28346456692913385,
                    "duration": 0.20092622083333467
                },
                {
                    "name": "F#5",
                    "midi": 78,
                    "time": 25.950132250000056,
                    "velocity": 0.25196850393700787,
                    "duration": 0.20092622083333467
                },
                {
                    "name": "B4",
                    "midi": 71,
                    "time": 25.950132250000056,
                    "velocity": 0.2125984251968504,
                    "duration": 0.20092622083333467
                },
                {
                    "name": "G#4",
                    "midi": 68,
                    "time": 26.154464000000058,
                    "velocity": 0.23622047244094488,
                    "duration": 0.8173269999999988
                },
                {
                    "name": "E5",
                    "midi": 76,
                    "time": 26.154464000000058,
                    "velocity": 0.2677165354330709,
                    "duration": 0.8173269999999988
                },
                {
                    "name": "G#6",
                    "midi": 92,
                    "time": 27.380454500000056,
                    "velocity": 0.29133858267716534,
                    "duration": 0.20092622083333467
                },
                {
                    "name": "B6",
                    "midi": 95,
                    "time": 27.380454500000056,
                    "velocity": 0.33858267716535434,
                    "duration": 0.20092622083333467
                },
                {
                    "name": "F#6",
                    "midi": 90,
                    "time": 27.584786250000057,
                    "velocity": 0.2755905511811024,
                    "duration": 0.20092622083333467
                },
                {
                    "name": "A6",
                    "midi": 93,
                    "time": 27.584786250000057,
                    "velocity": 0.30708661417322836,
                    "duration": 0.20092622083333467
                },
                {
                    "name": "G#6",
                    "midi": 92,
                    "time": 27.78911800000006,
                    "velocity": 0.36220472440944884,
                    "duration": 0.39163585416666535
                },
                {
                    "name": "E6",
                    "midi": 88,
                    "time": 27.78911800000006,
                    "velocity": 0.33070866141732286,
                    "duration": 0.39163585416666535
                },
                {
                    "name": "E6",
                    "midi": 88,
                    "time": 28.19778150000006,
                    "velocity": 0.2677165354330709,
                    "duration": 0.20092622083333467
                },
                {
                    "name": "G#6",
                    "midi": 92,
                    "time": 28.19778150000006,
                    "velocity": 0.29133858267716534,
                    "duration": 0.20092622083333467
                },
                {
                    "name": "F#6",
                    "midi": 90,
                    "time": 28.40211325000006,
                    "velocity": 0.2755905511811024,
                    "duration": 0.20092622083333467
                },
                {
                    "name": "B5",
                    "midi": 83,
                    "time": 28.40211325000006,
                    "velocity": 0.2440944881889764,
                    "duration": 0.20092622083333467
                },
                {
                    "name": "G#5",
                    "midi": 80,
                    "time": 28.60644500000006,
                    "velocity": 0.28346456692913385,
                    "duration": 0.39163585416666535
                },
                {
                    "name": "E6",
                    "midi": 88,
                    "time": 28.60644500000006,
                    "velocity": 0.3228346456692913,
                    "duration": 0.39163585416666535
                },
                {
                    "name": "B5",
                    "midi": 83,
                    "time": 29.01510850000006,
                    "velocity": 0.33070866141732286,
                    "duration": 0.20092622083333467
                },
                {
                    "name": "G#5",
                    "midi": 80,
                    "time": 29.01510850000006,
                    "velocity": 0.28346456692913385,
                    "duration": 0.20092622083333467
                },
                {
                    "name": "F#5",
                    "midi": 78,
                    "time": 29.219440250000062,
                    "velocity": 0.25984251968503935,
                    "duration": 0.20092622083333467
                },
                {
                    "name": "A5",
                    "midi": 81,
                    "time": 29.219440250000062,
                    "velocity": 0.28346456692913385,
                    "duration": 0.20092622083333467
                },
                {
                    "name": "E5",
                    "midi": 76,
                    "time": 29.423772000000064,
                    "velocity": 0.31496062992125984,
                    "duration": 0.39163585416666535
                },
                {
                    "name": "G#5",
                    "midi": 80,
                    "time": 29.423772000000064,
                    "velocity": 0.3543307086614173,
                    "duration": 0.39163585416666535
                },
                {
                    "name": "E5",
                    "midi": 76,
                    "time": 29.832435500000063,
                    "velocity": 0.2677165354330709,
                    "duration": 0.20092622083333467
                },
                {
                    "name": "G#5",
                    "midi": 80,
                    "time": 29.832435500000063,
                    "velocity": 0.29133858267716534,
                    "duration": 0.20092622083333467
                },
                {
                    "name": "F#5",
                    "midi": 78,
                    "time": 30.036767250000064,
                    "velocity": 0.2755905511811024,
                    "duration": 0.20092622083333467
                },
                {
                    "name": "B4",
                    "midi": 71,
                    "time": 30.036767250000064,
                    "velocity": 0.2440944881889764,
                    "duration": 0.20092622083333467
                },
                {
                    "name": "G#4",
                    "midi": 68,
                    "time": 30.241099000000066,
                    "velocity": 0.33070866141732286,
                    "duration": 0.39163585416666535
                },
                {
                    "name": "E5",
                    "midi": 76,
                    "time": 30.241099000000066,
                    "velocity": 0.33070866141732286,
                    "duration": 0.39163585416666535
                },
                {
                    "name": "E5",
                    "midi": 76,
                    "time": 30.649762500000065,
                    "velocity": 0.33070866141732286,
                    "duration": 0.20092622083333467
                },
                {
                    "name": "G#4",
                    "midi": 68,
                    "time": 30.649762500000065,
                    "velocity": 0.28346456692913385,
                    "duration": 0.20092622083333467
                },
                {
                    "name": "F#5",
                    "midi": 78,
                    "time": 30.854094250000067,
                    "velocity": 0.29133858267716534,
                    "duration": 0.20092622083333467
                },
                {
                    "name": "B4",
                    "midi": 71,
                    "time": 30.854094250000067,
                    "velocity": 0.2677165354330709,
                    "duration": 0.20092622083333467
                },
                {
                    "name": "E5",
                    "midi": 76,
                    "time": 31.05842600000007,
                    "velocity": 0.31496062992125984,
                    "duration": 0.39163585416666535
                },
                {
                    "name": "G#5",
                    "midi": 80,
                    "time": 31.05842600000007,
                    "velocity": 0.3543307086614173,
                    "duration": 0.39163585416666535
                },
                {
                    "name": "F#5",
                    "midi": 78,
                    "time": 31.467089500000068,
                    "velocity": 0.33858267716535434,
                    "duration": 0.20092622083333467
                },
                {
                    "name": "B4",
                    "midi": 71,
                    "time": 31.467089500000068,
                    "velocity": 0.29133858267716534,
                    "duration": 0.20092622083333467
                },
                {
                    "name": "E5",
                    "midi": 76,
                    "time": 31.67142125000007,
                    "velocity": 0.2677165354330709,
                    "duration": 0.20092622083333467
                },
                {
                    "name": "G#5",
                    "midi": 80,
                    "time": 31.67142125000007,
                    "velocity": 0.29133858267716534,
                    "duration": 0.20092622083333467
                },
                {
                    "name": "F#5",
                    "midi": 78,
                    "time": 31.87575300000007,
                    "velocity": 0.33858267716535434,
                    "duration": 0.3916358541666689
                },
                {
                    "name": "A5",
                    "midi": 81,
                    "time": 31.87575300000007,
                    "velocity": 0.3700787401574803,
                    "duration": 0.3916358541666689
                },
                {
                    "name": "B4",
                    "midi": 71,
                    "time": 32.28441650000007,
                    "velocity": 0.31496062992125984,
                    "duration": 0.20092622083333112
                },
                {
                    "name": "F#5",
                    "midi": 78,
                    "time": 32.28441650000007,
                    "velocity": 0.3543307086614173,
                    "duration": 0.20092622083333112
                },
                {
                    "name": "F#5",
                    "midi": 78,
                    "time": 32.488748250000064,
                    "velocity": 0.28346456692913385,
                    "duration": 0.20092622083333112
                },
                {
                    "name": "A5",
                    "midi": 81,
                    "time": 32.488748250000064,
                    "velocity": 0.33070866141732286,
                    "duration": 0.20092622083333112
                },
                {
                    "name": "G#5",
                    "midi": 80,
                    "time": 32.69308000000006,
                    "velocity": 0.3464566929133858,
                    "duration": 0.39163585416666535
                },
                {
                    "name": "B5",
                    "midi": 83,
                    "time": 32.69308000000006,
                    "velocity": 0.3937007874015748,
                    "duration": 0.39163585416666535
                },
                {
                    "name": "A5",
                    "midi": 81,
                    "time": 33.101743500000055,
                    "velocity": 0.30708661417322836,
                    "duration": 0.20092622083333112
                },
                {
                    "name": "F#5",
                    "midi": 78,
                    "time": 33.101743500000055,
                    "velocity": 0.2755905511811024,
                    "duration": 0.20092622083333112
                },
                {
                    "name": "E5",
                    "midi": 76,
                    "time": 33.30607525000005,
                    "velocity": 0.25196850393700787,
                    "duration": 0.20092622083333112
                },
                {
                    "name": "G#5",
                    "midi": 80,
                    "time": 33.30607525000005,
                    "velocity": 0.28346456692913385,
                    "duration": 0.20092622083333112
                },
                {
                    "name": "F#5",
                    "midi": 78,
                    "time": 33.51040700000004,
                    "velocity": 0.3464566929133858,
                    "duration": 0.39163585416666535
                },
                {
                    "name": "B4",
                    "midi": 71,
                    "time": 33.51040700000004,
                    "velocity": 0.30708661417322836,
                    "duration": 0.39163585416666535
                },
                {
                    "name": "G#6",
                    "midi": 92,
                    "time": 33.91907050000004,
                    "velocity": 0.29133858267716534,
                    "duration": 0.20092622083333112
                },
                {
                    "name": "B6",
                    "midi": 95,
                    "time": 33.91907050000004,
                    "velocity": 0.33858267716535434,
                    "duration": 0.20092622083333112
                },
                {
                    "name": "F#6",
                    "midi": 90,
                    "time": 34.123402250000034,
                    "velocity": 0.2755905511811024,
                    "duration": 0.20092622083333112
                },
                {
                    "name": "A6",
                    "midi": 93,
                    "time": 34.123402250000034,
                    "velocity": 0.30708661417322836,
                    "duration": 0.20092622083333112
                },
                {
                    "name": "E6",
                    "midi": 88,
                    "time": 34.32773400000003,
                    "velocity": 0.33070866141732286,
                    "duration": 0.39163585416666535
                },
                {
                    "name": "G#6",
                    "midi": 92,
                    "time": 34.32773400000003,
                    "velocity": 0.36220472440944884,
                    "duration": 0.39163585416666535
                },
                {
                    "name": "G#6",
                    "midi": 92,
                    "time": 34.736397500000024,
                    "velocity": 0.29133858267716534,
                    "duration": 0.20092622083333112
                },
                {
                    "name": "E6",
                    "midi": 88,
                    "time": 34.736397500000024,
                    "velocity": 0.2677165354330709,
                    "duration": 0.20092622083333112
                },
                {
                    "name": "B5",
                    "midi": 83,
                    "time": 34.94072925000002,
                    "velocity": 0.2440944881889764,
                    "duration": 0.20092622083333112
                },
                {
                    "name": "F#6",
                    "midi": 90,
                    "time": 34.94072925000002,
                    "velocity": 0.2755905511811024,
                    "duration": 0.20092622083333112
                },
                {
                    "name": "E6",
                    "midi": 88,
                    "time": 35.14506100000001,
                    "velocity": 0.3228346456692913,
                    "duration": 0.39163585416666535
                },
                {
                    "name": "G#5",
                    "midi": 80,
                    "time": 35.14506100000001,
                    "velocity": 0.28346456692913385,
                    "duration": 0.39163585416666535
                },
                {
                    "name": "G#5",
                    "midi": 80,
                    "time": 35.55372450000001,
                    "velocity": 0.28346456692913385,
                    "duration": 0.20092622083333112
                },
                {
                    "name": "B5",
                    "midi": 83,
                    "time": 35.55372450000001,
                    "velocity": 0.33070866141732286,
                    "duration": 0.20092622083333112
                },
                {
                    "name": "F#5",
                    "midi": 78,
                    "time": 35.75805625,
                    "velocity": 0.2677165354330709,
                    "duration": 0.20092622083333112
                },
                {
                    "name": "A5",
                    "midi": 81,
                    "time": 35.75805625,
                    "velocity": 0.29133858267716534,
                    "duration": 0.20092622083333112
                },
                {
                    "name": "G#5",
                    "midi": 80,
                    "time": 35.962388,
                    "velocity": 0.3543307086614173,
                    "duration": 0.39163585416666535
                },
                {
                    "name": "E5",
                    "midi": 76,
                    "time": 35.962388,
                    "velocity": 0.31496062992125984,
                    "duration": 0.39163585416666535
                },
                {
                    "name": "E5",
                    "midi": 76,
                    "time": 36.37105149999999,
                    "velocity": 0.2677165354330709,
                    "duration": 0.20092622083333112
                },
                {
                    "name": "G#5",
                    "midi": 80,
                    "time": 36.37105149999999,
                    "velocity": 0.29133858267716534,
                    "duration": 0.20092622083333112
                },
                {
                    "name": "B4",
                    "midi": 71,
                    "time": 36.57538324999999,
                    "velocity": 0.2440944881889764,
                    "duration": 0.20092622083333112
                },
                {
                    "name": "F#5",
                    "midi": 78,
                    "time": 36.57538324999999,
                    "velocity": 0.2755905511811024,
                    "duration": 0.20092622083333112
                },
                {
                    "name": "G#4",
                    "midi": 68,
                    "time": 36.77971499999998,
                    "velocity": 0.28346456692913385,
                    "duration": 0.39163585416666535
                },
                {
                    "name": "E5",
                    "midi": 76,
                    "time": 36.77971499999998,
                    "velocity": 0.33070866141732286,
                    "duration": 0.39163585416666535
                },
                {
                    "name": "G#4",
                    "midi": 68,
                    "time": 37.18837849999998,
                    "velocity": 0.28346456692913385,
                    "duration": 0.20092622083333112
                },
                {
                    "name": "E5",
                    "midi": 76,
                    "time": 37.18837849999998,
                    "velocity": 0.33070866141732286,
                    "duration": 0.20092622083333112
                },
                {
                    "name": "B4",
                    "midi": 71,
                    "time": 37.39271024999997,
                    "velocity": 0.2677165354330709,
                    "duration": 0.20092622083333112
                },
                {
                    "name": "F#5",
                    "midi": 78,
                    "time": 37.39271024999997,
                    "velocity": 0.29133858267716534,
                    "duration": 0.20092622083333112
                },
                {
                    "name": "G#5",
                    "midi": 80,
                    "time": 37.597041999999966,
                    "velocity": 0.3543307086614173,
                    "duration": 0.39163585416666535
                },
                {
                    "name": "E5",
                    "midi": 76,
                    "time": 37.597041999999966,
                    "velocity": 0.31496062992125984,
                    "duration": 0.39163585416666535
                },
                {
                    "name": "F#5",
                    "midi": 78,
                    "time": 38.00570549999996,
                    "velocity": 0.30708661417322836,
                    "duration": 0.20092622083333112
                },
                {
                    "name": "A5",
                    "midi": 81,
                    "time": 38.00570549999996,
                    "velocity": 0.3464566929133858,
                    "duration": 0.20092622083333112
                },
                {
                    "name": "G#5",
                    "midi": 80,
                    "time": 38.21003724999996,
                    "velocity": 0.30708661417322836,
                    "duration": 0.20092622083333112
                },
                {
                    "name": "E5",
                    "midi": 76,
                    "time": 38.21003724999996,
                    "velocity": 0.2755905511811024,
                    "duration": 0.20092622083333112
                },
                {
                    "name": "F#5",
                    "midi": 78,
                    "time": 38.41436899999995,
                    "velocity": 0.3228346456692913,
                    "duration": 0.39163585416666535
                },
                {
                    "name": "B4",
                    "midi": 71,
                    "time": 38.41436899999995,
                    "velocity": 0.28346456692913385,
                    "duration": 0.39163585416666535
                },
                {
                    "name": "E5",
                    "midi": 76,
                    "time": 38.82303249999995,
                    "velocity": 0.31496062992125984,
                    "duration": 0.20092622083333112
                },
                {
                    "name": "G#5",
                    "midi": 80,
                    "time": 38.82303249999995,
                    "velocity": 0.3543307086614173,
                    "duration": 0.20092622083333112
                },
                {
                    "name": "F#5",
                    "midi": 78,
                    "time": 39.02736424999994,
                    "velocity": 0.29133858267716534,
                    "duration": 0.20092622083333112
                },
                {
                    "name": "B4",
                    "midi": 71,
                    "time": 39.02736424999994,
                    "velocity": 0.2677165354330709,
                    "duration": 0.20092622083333112
                },
                {
                    "name": "G#4",
                    "midi": 68,
                    "time": 39.231695999999936,
                    "velocity": 0.2755905511811024,
                    "duration": 0.8173269999999988
                },
                {
                    "name": "E5",
                    "midi": 76,
                    "time": 39.231695999999936,
                    "velocity": 0.30708661417322836,
                    "duration": 0.8173269999999988
                },
                {
                    "name": "G#3",
                    "midi": 56,
                    "time": 40.45768649999994,
                    "velocity": 0.47244094488188976,
                    "duration": 0.09876034583333393
                },
                {
                    "name": "E4",
                    "midi": 64,
                    "time": 40.45768649999994,
                    "velocity": 0.5196850393700787,
                    "duration": 0.09876034583333393
                },
                {
                    "name": "E4",
                    "midi": 64,
                    "time": 40.66201824999994,
                    "velocity": 0.4330708661417323,
                    "duration": 0.09876034583333393
                },
                {
                    "name": "G#4",
                    "midi": 68,
                    "time": 40.66201824999994,
                    "velocity": 0.49606299212598426,
                    "duration": 0.09876034583333393
                },
                {
                    "name": "B3",
                    "midi": 59,
                    "time": 40.86634999999994,
                    "velocity": 0.5118110236220472,
                    "duration": 0.37460820833333486
                },
                {
                    "name": "F#4",
                    "midi": 66,
                    "time": 40.86634999999994,
                    "velocity": 0.5748031496062992,
                    "duration": 0.37460820833333486
                },
                {
                    "name": "E4",
                    "midi": 64,
                    "time": 41.27501349999994,
                    "velocity": 0.47244094488188976,
                    "duration": 0.09876034583333393
                },
                {
                    "name": "G#4",
                    "midi": 68,
                    "time": 41.27501349999994,
                    "velocity": 0.5196850393700787,
                    "duration": 0.09876034583333393
                },
                {
                    "name": "F#4",
                    "midi": 66,
                    "time": 41.479345249999945,
                    "velocity": 0.44881889763779526,
                    "duration": 0.09876034583333393
                },
                {
                    "name": "A4",
                    "midi": 69,
                    "time": 41.479345249999945,
                    "velocity": 0.5039370078740157,
                    "duration": 0.09876034583333393
                },
                {
                    "name": "B4",
                    "midi": 71,
                    "time": 41.683676999999946,
                    "velocity": 0.5669291338582677,
                    "duration": 0.37460820833333486
                },
                {
                    "name": "G#4",
                    "midi": 68,
                    "time": 41.683676999999946,
                    "velocity": 0.49606299212598426,
                    "duration": 0.37460820833333486
                },
                {
                    "name": "A4",
                    "midi": 69,
                    "time": 42.09234049999995,
                    "velocity": 0.4881889763779528,
                    "duration": 0.09876034583333393
                },
                {
                    "name": "C#5",
                    "midi": 73,
                    "time": 42.09234049999995,
                    "velocity": 0.5433070866141733,
                    "duration": 0.09876034583333393
                },
                {
                    "name": "B4",
                    "midi": 71,
                    "time": 42.29667224999995,
                    "velocity": 0.5039370078740157,
                    "duration": 0.09876034583333393
                },
                {
                    "name": "G#4",
                    "midi": 68,
                    "time": 42.29667224999995,
                    "velocity": 0.44881889763779526,
                    "duration": 0.09876034583333393
                },
                {
                    "name": "A4",
                    "midi": 69,
                    "time": 42.50100399999995,
                    "velocity": 0.5826771653543307,
                    "duration": 0.37460820833333486
                },
                {
                    "name": "F#4",
                    "midi": 66,
                    "time": 42.50100399999995,
                    "velocity": 0.5196850393700787,
                    "duration": 0.37460820833333486
                },
                {
                    "name": "E4",
                    "midi": 64,
                    "time": 42.909667499999955,
                    "velocity": 0.48031496062992124,
                    "duration": 0.09876034583333393
                },
                {
                    "name": "G#4",
                    "midi": 68,
                    "time": 42.909667499999955,
                    "velocity": 0.5275590551181102,
                    "duration": 0.09876034583333393
                },
                {
                    "name": "A4",
                    "midi": 69,
                    "time": 43.11399924999996,
                    "velocity": 0.5039370078740157,
                    "duration": 0.09876034583333393
                },
                {
                    "name": "F#4",
                    "midi": 66,
                    "time": 43.11399924999996,
                    "velocity": 0.44881889763779526,
                    "duration": 0.09876034583333393
                },
                {
                    "name": "B3",
                    "midi": 59,
                    "time": 43.31833099999996,
                    "velocity": 0.5196850393700787,
                    "duration": 0.37460820833333486
                },
                {
                    "name": "F#4",
                    "midi": 66,
                    "time": 43.31833099999996,
                    "velocity": 0.5826771653543307,
                    "duration": 0.37460820833333486
                },
                {
                    "name": "G#3",
                    "midi": 56,
                    "time": 43.72699449999996,
                    "velocity": 0.47244094488188976,
                    "duration": 0.09876034583333393
                },
                {
                    "name": "E4",
                    "midi": 64,
                    "time": 43.72699449999996,
                    "velocity": 0.5196850393700787,
                    "duration": 0.09876034583333393
                },
                {
                    "name": "E4",
                    "midi": 64,
                    "time": 43.93132624999996,
                    "velocity": 0.4409448818897638,
                    "duration": 0.09876034583333393
                },
                {
                    "name": "G#4",
                    "midi": 68,
                    "time": 43.93132624999996,
                    "velocity": 0.49606299212598426,
                    "duration": 0.09876034583333393
                },
                {
                    "name": "B3",
                    "midi": 59,
                    "time": 44.135657999999964,
                    "velocity": 0.5118110236220472,
                    "duration": 0.37460820833333486
                },
                {
                    "name": "F#4",
                    "midi": 66,
                    "time": 44.135657999999964,
                    "velocity": 0.5748031496062992,
                    "duration": 0.37460820833333486
                },
                {
                    "name": "E4",
                    "midi": 64,
                    "time": 44.54432149999997,
                    "velocity": 0.47244094488188976,
                    "duration": 0.09876034583333393
                },
                {
                    "name": "G#4",
                    "midi": 68,
                    "time": 44.54432149999997,
                    "velocity": 0.5196850393700787,
                    "duration": 0.09876034583333393
                },
                {
                    "name": "A4",
                    "midi": 69,
                    "time": 44.74865324999997,
                    "velocity": 0.49606299212598426,
                    "duration": 0.09876034583333393
                },
                {
                    "name": "F#4",
                    "midi": 66,
                    "time": 44.74865324999997,
                    "velocity": 0.4409448818897638,
                    "duration": 0.09876034583333393
                },
                {
                    "name": "G#4",
                    "midi": 68,
                    "time": 44.95298499999997,
                    "velocity": 0.49606299212598426,
                    "duration": 0.37460820833333486
                },
                {
                    "name": "B4",
                    "midi": 71,
                    "time": 44.95298499999997,
                    "velocity": 0.5669291338582677,
                    "duration": 0.37460820833333486
                },
                {
                    "name": "C#5",
                    "midi": 73,
                    "time": 45.36164849999997,
                    "velocity": 0.5669291338582677,
                    "duration": 0.09876034583333393
                },
                {
                    "name": "A4",
                    "midi": 69,
                    "time": 45.36164849999997,
                    "velocity": 0.49606299212598426,
                    "duration": 0.09876034583333393
                },
                {
                    "name": "B4",
                    "midi": 71,
                    "time": 45.565980249999974,
                    "velocity": 0.5433070866141733,
                    "duration": 0.09876034583333393
                },
                {
                    "name": "G#4",
                    "midi": 68,
                    "time": 45.565980249999974,
                    "velocity": 0.4881889763779528,
                    "duration": 0.09876034583333393
                },
                {
                    "name": "F#4",
                    "midi": 66,
                    "time": 45.770311999999976,
                    "velocity": 0.5196850393700787,
                    "duration": 0.37460820833333486
                },
                {
                    "name": "A4",
                    "midi": 69,
                    "time": 45.770311999999976,
                    "velocity": 0.5826771653543307,
                    "duration": 0.37460820833333486
                },
                {
                    "name": "G#4",
                    "midi": 68,
                    "time": 46.17897549999998,
                    "velocity": 0.5196850393700787,
                    "duration": 0.09876034583333393
                },
                {
                    "name": "E4",
                    "midi": 64,
                    "time": 46.17897549999998,
                    "velocity": 0.47244094488188976,
                    "duration": 0.09876034583333393
                },
                {
                    "name": "F#4",
                    "midi": 66,
                    "time": 46.38330724999998,
                    "velocity": 0.4409448818897638,
                    "duration": 0.09876034583333393
                },
                {
                    "name": "A4",
                    "midi": 69,
                    "time": 46.38330724999998,
                    "velocity": 0.49606299212598426,
                    "duration": 0.09876034583333393
                },
                {
                    "name": "B3",
                    "midi": 59,
                    "time": 46.58763899999998,
                    "velocity": 0.44881889763779526,
                    "duration": 0.30649762499999866
                },
                {
                    "name": "F#4",
                    "midi": 66,
                    "time": 46.58763899999998,
                    "velocity": 0.5039370078740157,
                    "duration": 0.30649762499999866
                },
                {
                    "name": "G#6",
                    "midi": 92,
                    "time": 46.99630249999998,
                    "velocity": 0.29133858267716534,
                    "duration": 0.20092622083333112
                },
                {
                    "name": "B6",
                    "midi": 95,
                    "time": 46.99630249999998,
                    "velocity": 0.33858267716535434,
                    "duration": 0.20092622083333112
                },
                {
                    "name": "A6",
                    "midi": 93,
                    "time": 47.20063424999997,
                    "velocity": 0.3228346456692913,
                    "duration": 0.20092622083333112
                },
                {
                    "name": "F#6",
                    "midi": 90,
                    "time": 47.20063424999997,
                    "velocity": 0.28346456692913385,
                    "duration": 0.20092622083333112
                },
                {
                    "name": "E6",
                    "midi": 88,
                    "time": 47.404965999999966,
                    "velocity": 0.33070866141732286,
                    "duration": 0.39163585416666535
                },
                {
                    "name": "G#6",
                    "midi": 92,
                    "time": 47.404965999999966,
                    "velocity": 0.36220472440944884,
                    "duration": 0.39163585416666535
                },
                {
                    "name": "G#6",
                    "midi": 92,
                    "time": 47.81362949999996,
                    "velocity": 0.29133858267716534,
                    "duration": 0.20092622083333112
                },
                {
                    "name": "E6",
                    "midi": 88,
                    "time": 47.81362949999996,
                    "velocity": 0.2677165354330709,
                    "duration": 0.20092622083333112
                },
                {
                    "name": "B5",
                    "midi": 83,
                    "time": 48.017961249999956,
                    "velocity": 0.2440944881889764,
                    "duration": 0.20092622083333112
                },
                {
                    "name": "F#6",
                    "midi": 90,
                    "time": 48.017961249999956,
                    "velocity": 0.2755905511811024,
                    "duration": 0.20092622083333112
                },
                {
                    "name": "G#5",
                    "midi": 80,
                    "time": 48.22229299999995,
                    "velocity": 0.28346456692913385,
                    "duration": 0.39163585416666535
                },
                {
                    "name": "E6",
                    "midi": 88,
                    "time": 48.22229299999995,
                    "velocity": 0.3228346456692913,
                    "duration": 0.39163585416666535
                },
                {
                    "name": "B5",
                    "midi": 83,
                    "time": 48.63095649999995,
                    "velocity": 0.33070866141732286,
                    "duration": 0.20092622083333112
                },
                {
                    "name": "G#5",
                    "midi": 80,
                    "time": 48.63095649999995,
                    "velocity": 0.28346456692913385,
                    "duration": 0.20092622083333112
                },
                {
                    "name": "F#5",
                    "midi": 78,
                    "time": 48.83528824999994,
                    "velocity": 0.2677165354330709,
                    "duration": 0.20092622083333112
                },
                {
                    "name": "A5",
                    "midi": 81,
                    "time": 48.83528824999994,
                    "velocity": 0.29133858267716534,
                    "duration": 0.20092622083333112
                },
                {
                    "name": "E5",
                    "midi": 76,
                    "time": 49.039619999999935,
                    "velocity": 0.31496062992125984,
                    "duration": 0.39163585416666535
                },
                {
                    "name": "G#5",
                    "midi": 80,
                    "time": 49.039619999999935,
                    "velocity": 0.3543307086614173,
                    "duration": 0.39163585416666535
                },
                {
                    "name": "G#5",
                    "midi": 80,
                    "time": 49.44828349999993,
                    "velocity": 0.29133858267716534,
                    "duration": 0.20092622083333112
                },
                {
                    "name": "E5",
                    "midi": 76,
                    "time": 49.44828349999993,
                    "velocity": 0.2677165354330709,
                    "duration": 0.20092622083333112
                },
                {
                    "name": "B4",
                    "midi": 71,
                    "time": 49.652615249999926,
                    "velocity": 0.25196850393700787,
                    "duration": 0.20092622083333112
                },
                {
                    "name": "F#5",
                    "midi": 78,
                    "time": 49.652615249999926,
                    "velocity": 0.28346456692913385,
                    "duration": 0.20092622083333112
                },
                {
                    "name": "E5",
                    "midi": 76,
                    "time": 49.85694699999992,
                    "velocity": 0.33070866141732286,
                    "duration": 0.39163585416666535
                },
                {
                    "name": "G#4",
                    "midi": 68,
                    "time": 49.85694699999992,
                    "velocity": 0.28346456692913385,
                    "duration": 0.39163585416666535
                },
                {
                    "name": "E4",
                    "midi": 64,
                    "time": 50.265610499999916,
                    "velocity": 0.33070866141732286,
                    "duration": 0.09876034583333393
                },
                {
                    "name": "G#3",
                    "midi": 56,
                    "time": 50.265610499999916,
                    "velocity": 0.28346456692913385,
                    "duration": 0.09876034583333393
                },
                {
                    "name": "B3",
                    "midi": 59,
                    "time": 50.46994224999992,
                    "velocity": 0.25984251968503935,
                    "duration": 0.09876034583333393
                },
                {
                    "name": "F#4",
                    "midi": 66,
                    "time": 50.46994224999992,
                    "velocity": 0.28346456692913385,
                    "duration": 0.09876034583333393
                },
                {
                    "name": "G#4",
                    "midi": 68,
                    "time": 50.67427399999992,
                    "velocity": 0.3543307086614173,
                    "duration": 0.39163585416666535
                },
                {
                    "name": "E4",
                    "midi": 64,
                    "time": 50.67427399999992,
                    "velocity": 0.31496062992125984,
                    "duration": 0.39163585416666535
                },
                {
                    "name": "F#4",
                    "midi": 66,
                    "time": 51.082937499999915,
                    "velocity": 0.28346456692913385,
                    "duration": 0.09876034583333393
                },
                {
                    "name": "A4",
                    "midi": 69,
                    "time": 51.082937499999915,
                    "velocity": 0.33070866141732286,
                    "duration": 0.09876034583333393
                },
                {
                    "name": "E4",
                    "midi": 64,
                    "time": 51.287269249999916,
                    "velocity": 0.25984251968503935,
                    "duration": 0.09876034583333393
                },
                {
                    "name": "G#4",
                    "midi": 68,
                    "time": 51.287269249999916,
                    "velocity": 0.28346456692913385,
                    "duration": 0.09876034583333393
                },
                {
                    "name": "B3",
                    "midi": 59,
                    "time": 51.49160099999992,
                    "velocity": 0.25984251968503935,
                    "duration": 0.39163585416666535
                },
                {
                    "name": "F#4",
                    "midi": 66,
                    "time": 51.49160099999992,
                    "velocity": 0.28346456692913385,
                    "duration": 0.39163585416666535
                },
                {
                    "name": "E4",
                    "midi": 64,
                    "time": 51.90026449999991,
                    "velocity": 0.28346456692913385,
                    "duration": 0.09876034583333393
                },
                {
                    "name": "G#4",
                    "midi": 68,
                    "time": 51.90026449999991,
                    "velocity": 0.3228346456692913,
                    "duration": 0.09876034583333393
                },
                {
                    "name": "B3",
                    "midi": 59,
                    "time": 52.104596249999915,
                    "velocity": 0.2440944881889764,
                    "duration": 0.09876034583333393
                },
                {
                    "name": "F#4",
                    "midi": 66,
                    "time": 52.104596249999915,
                    "velocity": 0.2755905511811024,
                    "duration": 0.09876034583333393
                },
                {
                    "name": "E4",
                    "midi": 64,
                    "time": 52.308927999999916,
                    "velocity": 0.28346456692913385,
                    "duration": 0.8173269999999988
                },
                {
                    "name": "G#3",
                    "midi": 56,
                    "time": 52.308927999999916,
                    "velocity": 0.25196850393700787,
                    "duration": 0.8173269999999988
                },
                {
                    "name": "B3",
                    "midi": 59,
                    "time": 53.53491849999992,
                    "velocity": 0.4645669291338583,
                    "duration": 0.20092622083333112
                },
                {
                    "name": "B4",
                    "midi": 71,
                    "time": 53.53491849999992,
                    "velocity": 0.5196850393700787,
                    "duration": 0.20092622083333112
                },
                {
                    "name": "B3",
                    "midi": 59,
                    "time": 53.943581999999914,
                    "velocity": 0.5196850393700787,
                    "duration": 0.40866350000000295
                },
                {
                    "name": "E4",
                    "midi": 64,
                    "time": 53.943581999999914,
                    "velocity": 0.5196850393700787,
                    "duration": 0.40866350000000295
                },
                {
                    "name": "G4",
                    "midi": 67,
                    "time": 53.943581999999914,
                    "velocity": 0.5196850393700787,
                    "duration": 0.40866350000000295
                },
                {
                    "name": "B4",
                    "midi": 71,
                    "time": 53.943581999999914,
                    "velocity": 0.5748031496062992,
                    "duration": 0.40866350000000295
                },
                {
                    "name": "A3",
                    "midi": 57,
                    "time": 54.35224549999992,
                    "velocity": 0.5196850393700787,
                    "duration": 0.15324881250000288
                },
                {
                    "name": "G3",
                    "midi": 55,
                    "time": 54.55657724999992,
                    "velocity": 0.49606299212598426,
                    "duration": 0.09876034583333393
                },
                {
                    "name": "A3",
                    "midi": 57,
                    "time": 54.76090899999992,
                    "velocity": 0.5196850393700787,
                    "duration": 0.40866350000000295
                },
                {
                    "name": "F#4",
                    "midi": 66,
                    "time": 54.76090899999992,
                    "velocity": 0.5196850393700787,
                    "duration": 0.40866350000000295
                },
                {
                    "name": "A4",
                    "midi": 69,
                    "time": 54.76090899999992,
                    "velocity": 0.5748031496062992,
                    "duration": 0.40866350000000295
                },
                {
                    "name": "G3",
                    "midi": 55,
                    "time": 55.16957249999992,
                    "velocity": 0.5196850393700787,
                    "duration": 0.15324881250000288
                },
                {
                    "name": "F#3",
                    "midi": 54,
                    "time": 55.373904249999924,
                    "velocity": 0.4881889763779528,
                    "duration": 0.09876034583333393
                },
                {
                    "name": "G3",
                    "midi": 55,
                    "time": 55.578235999999926,
                    "velocity": 0.5196850393700787,
                    "duration": 0.40866350000000295
                },
                {
                    "name": "E4",
                    "midi": 64,
                    "time": 55.578235999999926,
                    "velocity": 0.5196850393700787,
                    "duration": 0.40866350000000295
                },
                {
                    "name": "G4",
                    "midi": 67,
                    "time": 55.578235999999926,
                    "velocity": 0.5748031496062992,
                    "duration": 0.40866350000000295
                },
                {
                    "name": "F#3",
                    "midi": 54,
                    "time": 55.98689949999993,
                    "velocity": 0.5196850393700787,
                    "duration": 0.15324881250000288
                },
                {
                    "name": "E3",
                    "midi": 52,
                    "time": 56.19123124999993,
                    "velocity": 0.49606299212598426,
                    "duration": 0.09876034583333393
                },
                {
                    "name": "G3",
                    "midi": 55,
                    "time": 56.39556299999993,
                    "velocity": 0.5511811023622047,
                    "duration": 0.40866350000000295
                },
                {
                    "name": "E4",
                    "midi": 64,
                    "time": 56.39556299999993,
                    "velocity": 0.5511811023622047,
                    "duration": 0.40866350000000295
                },
                {
                    "name": "G4",
                    "midi": 67,
                    "time": 56.39556299999993,
                    "velocity": 0.6220472440944882,
                    "duration": 0.40866350000000295
                },
                {
                    "name": "F#3",
                    "midi": 54,
                    "time": 56.804226499999935,
                    "velocity": 0.5196850393700787,
                    "duration": 0.15324881250000288
                },
                {
                    "name": "E3",
                    "midi": 52,
                    "time": 57.008558249999936,
                    "velocity": 0.4881889763779528,
                    "duration": 0.09876034583333393
                },
                {
                    "name": "G3",
                    "midi": 55,
                    "time": 57.21288999999994,
                    "velocity": 0.5275590551181102,
                    "duration": 0.40866350000000295
                },
                {
                    "name": "B3",
                    "midi": 59,
                    "time": 57.21288999999994,
                    "velocity": 0.5275590551181102,
                    "duration": 0.40866350000000295
                },
                {
                    "name": "G4",
                    "midi": 67,
                    "time": 57.21288999999994,
                    "velocity": 0.5905511811023622,
                    "duration": 0.40866350000000295
                },
                {
                    "name": "E4",
                    "midi": 64,
                    "time": 57.21288999999994,
                    "velocity": 0.5275590551181102,
                    "duration": 0.40866350000000295
                },
                {
                    "name": "F#3",
                    "midi": 54,
                    "time": 57.62155349999994,
                    "velocity": 0.5196850393700787,
                    "duration": 0.15324881250000288
                },
                {
                    "name": "E3",
                    "midi": 52,
                    "time": 57.82588524999994,
                    "velocity": 0.4881889763779528,
                    "duration": 0.09876034583333393
                },
                {
                    "name": "E3",
                    "midi": 52,
                    "time": 58.03021699999994,
                    "velocity": 0.5118110236220472,
                    "duration": 0.40866350000000295
                },
                {
                    "name": "G3",
                    "midi": 55,
                    "time": 58.03021699999994,
                    "velocity": 0.5118110236220472,
                    "duration": 0.40866350000000295
                },
                {
                    "name": "C#4",
                    "midi": 61,
                    "time": 58.03021699999994,
                    "velocity": 0.5118110236220472,
                    "duration": 0.40866350000000295
                },
                {
                    "name": "E4",
                    "midi": 64,
                    "time": 58.03021699999994,
                    "velocity": 0.5669291338582677,
                    "duration": 0.40866350000000295
                },
                {
                    "name": "D#3",
                    "midi": 51,
                    "time": 58.43888049999995,
                    "velocity": 0.5196850393700787,
                    "duration": 0.15324881250000288
                },
                {
                    "name": "E3",
                    "midi": 52,
                    "time": 58.64321224999995,
                    "velocity": 0.4881889763779528,
                    "duration": 0.15324881250000288
                },
                {
                    "name": "G4",
                    "midi": 67,
                    "time": 58.84754399999995,
                    "velocity": 0.6220472440944882,
                    "duration": 0.8173269999999988
                },
                {
                    "name": "E4",
                    "midi": 64,
                    "time": 58.84754399999995,
                    "velocity": 0.5511811023622047,
                    "duration": 0.8173269999999988
                },
                {
                    "name": "B3",
                    "midi": 59,
                    "time": 58.84754399999995,
                    "velocity": 0.5511811023622047,
                    "duration": 0.8173269999999988
                },
                {
                    "name": "G3",
                    "midi": 55,
                    "time": 58.84754399999995,
                    "velocity": 0.5511811023622047,
                    "duration": 0.8173269999999988
                },
                {
                    "name": "F#3",
                    "midi": 54,
                    "time": 59.66487099999995,
                    "velocity": 0.5118110236220472,
                    "duration": 0.40866350000000295
                },
                {
                    "name": "D#4",
                    "midi": 63,
                    "time": 59.66487099999995,
                    "velocity": 0.5118110236220472,
                    "duration": 0.40866350000000295
                },
                {
                    "name": "F#4",
                    "midi": 66,
                    "time": 59.66487099999995,
                    "velocity": 0.5669291338582677,
                    "duration": 0.40866350000000295
                },
                {
                    "name": "D3",
                    "midi": 50,
                    "time": 60.07353449999995,
                    "velocity": 0.5669291338582677,
                    "duration": 0.20092622083333112
                },
                {
                    "name": "D4",
                    "midi": 62,
                    "time": 60.07353449999995,
                    "velocity": 0.5669291338582677,
                    "duration": 0.20092622083333112
                },
                {
                    "name": "G3",
                    "midi": 55,
                    "time": 60.48219799999995,
                    "velocity": 0.5984251968503937,
                    "duration": 0.40866350000000295
                },
                {
                    "name": "B3",
                    "midi": 59,
                    "time": 60.48219799999995,
                    "velocity": 0.5984251968503937,
                    "duration": 0.40866350000000295
                },
                {
                    "name": "D4",
                    "midi": 62,
                    "time": 60.48219799999995,
                    "velocity": 0.5984251968503937,
                    "duration": 0.40866350000000295
                },
                {
                    "name": "G4",
                    "midi": 67,
                    "time": 60.48219799999995,
                    "velocity": 0.6614173228346457,
                    "duration": 0.40866350000000295
                },
                {
                    "name": "F#3",
                    "midi": 54,
                    "time": 60.89086149999995,
                    "velocity": 0.5196850393700787,
                    "duration": 0.09876034583333393
                },
                {
                    "name": "G3",
                    "midi": 55,
                    "time": 61.09519324999995,
                    "velocity": 0.48031496062992124,
                    "duration": 0.09876034583333393
                },
                {
                    "name": "D4",
                    "midi": 62,
                    "time": 61.29952499999995,
                    "velocity": 0.5669291338582677,
                    "duration": 0.40866350000000295
                },
                {
                    "name": "A3",
                    "midi": 57,
                    "time": 61.29952499999995,
                    "velocity": 0.5669291338582677,
                    "duration": 0.40866350000000295
                },
                {
                    "name": "F#4",
                    "midi": 66,
                    "time": 61.29952499999995,
                    "velocity": 0.5669291338582677,
                    "duration": 0.40866350000000295
                },
                {
                    "name": "A4",
                    "midi": 69,
                    "time": 61.29952499999995,
                    "velocity": 0.6377952755905512,
                    "duration": 0.40866350000000295
                },
                {
                    "name": "G3",
                    "midi": 55,
                    "time": 61.708188499999956,
                    "velocity": 0.5196850393700787,
                    "duration": 0.09876034583333393
                },
                {
                    "name": "A3",
                    "midi": 57,
                    "time": 61.91252024999996,
                    "velocity": 0.48031496062992124,
                    "duration": 0.09876034583333393
                },
                {
                    "name": "G4",
                    "midi": 67,
                    "time": 62.11685199999996,
                    "velocity": 0.5196850393700787,
                    "duration": 0.40866350000000295
                },
                {
                    "name": "B3",
                    "midi": 59,
                    "time": 62.11685199999996,
                    "velocity": 0.5196850393700787,
                    "duration": 0.40866350000000295
                },
                {
                    "name": "D4",
                    "midi": 62,
                    "time": 62.11685199999996,
                    "velocity": 0.5196850393700787,
                    "duration": 0.40866350000000295
                },
                {
                    "name": "B4",
                    "midi": 71,
                    "time": 62.11685199999996,
                    "velocity": 0.5748031496062992,
                    "duration": 0.40866350000000295
                },
                {
                    "name": "A3",
                    "midi": 57,
                    "time": 62.52551549999996,
                    "velocity": 0.5196850393700787,
                    "duration": 0.09876034583333393
                },
                {
                    "name": "B3",
                    "midi": 59,
                    "time": 62.72984724999996,
                    "velocity": 0.4881889763779528,
                    "duration": 0.09876034583333393
                },
                {
                    "name": "G4",
                    "midi": 67,
                    "time": 62.934178999999965,
                    "velocity": 0.5905511811023622,
                    "duration": 0.40866350000000295
                },
                {
                    "name": "C4",
                    "midi": 60,
                    "time": 62.934178999999965,
                    "velocity": 0.5905511811023622,
                    "duration": 0.40866350000000295
                },
                {
                    "name": "E4",
                    "midi": 64,
                    "time": 62.934178999999965,
                    "velocity": 0.5905511811023622,
                    "duration": 0.40866350000000295
                },
                {
                    "name": "C5",
                    "midi": 72,
                    "time": 62.934178999999965,
                    "velocity": 0.6535433070866141,
                    "duration": 0.40866350000000295
                },
                {
                    "name": "D4",
                    "midi": 62,
                    "time": 63.34284249999997,
                    "velocity": 0.5196850393700787,
                    "duration": 0.09876034583333393
                },
                {
                    "name": "E4",
                    "midi": 64,
                    "time": 63.54717424999997,
                    "velocity": 0.4881889763779528,
                    "duration": 0.09876034583333393
                },
                {
                    "name": "G3",
                    "midi": 55,
                    "time": 63.75150599999997,
                    "velocity": 0.5433070866141733,
                    "duration": 0.40866349999999585
                },
                {
                    "name": "B3",
                    "midi": 59,
                    "time": 63.75150599999997,
                    "velocity": 0.5433070866141733,
                    "duration": 0.40866349999999585
                },
                {
                    "name": "B4",
                    "midi": 71,
                    "time": 63.75150599999997,
                    "velocity": 0.6062992125984252,
                    "duration": 0.40866349999999585
                },
                {
                    "name": "D4",
                    "midi": 62,
                    "time": 63.75150599999997,
                    "velocity": 0.5433070866141733,
                    "duration": 0.40866349999999585
                },
                {
                    "name": "A3",
                    "midi": 57,
                    "time": 64.16016949999997,
                    "velocity": 0.5196850393700787,
                    "duration": 0.09876034583332682
                },
                {
                    "name": "B3",
                    "midi": 59,
                    "time": 64.36450124999996,
                    "velocity": 0.4881889763779528,
                    "duration": 0.09876034583332682
                },
                {
                    "name": "A3",
                    "midi": 57,
                    "time": 64.56883299999996,
                    "velocity": 0.5275590551181102,
                    "duration": 0.40866350000000295
                },
                {
                    "name": "C4",
                    "midi": 60,
                    "time": 64.56883299999996,
                    "velocity": 0.5275590551181102,
                    "duration": 0.40866350000000295
                },
                {
                    "name": "F#4",
                    "midi": 66,
                    "time": 64.56883299999996,
                    "velocity": 0.5275590551181102,
                    "duration": 0.40866350000000295
                },
                {
                    "name": "A4",
                    "midi": 69,
                    "time": 64.56883299999996,
                    "velocity": 0.5984251968503937,
                    "duration": 0.40866350000000295
                },
                {
                    "name": "B3",
                    "midi": 59,
                    "time": 64.97749649999996,
                    "velocity": 0.5196850393700787,
                    "duration": 0.09876034583332682
                },
                {
                    "name": "F#3",
                    "midi": 54,
                    "time": 65.18182824999995,
                    "velocity": 0.48031496062992124,
                    "duration": 0.09876034583332682
                },
                {
                    "name": "G4",
                    "midi": 67,
                    "time": 65.38615999999995,
                    "velocity": 0.6456692913385826,
                    "duration": 0.8173270000000059
                },
                {
                    "name": "D4",
                    "midi": 62,
                    "time": 65.38615999999995,
                    "velocity": 0.5748031496062992,
                    "duration": 0.8173270000000059
                },
                {
                    "name": "B3",
                    "midi": 59,
                    "time": 65.38615999999995,
                    "velocity": 0.5748031496062992,
                    "duration": 0.8173270000000059
                },
                {
                    "name": "G3",
                    "midi": 55,
                    "time": 65.38615999999995,
                    "velocity": 0.5748031496062992,
                    "duration": 0.8173270000000059
                },
                {
                    "name": "B3",
                    "midi": 59,
                    "time": 66.61215049999996,
                    "velocity": 0.4881889763779528,
                    "duration": 0.20092622083333822
                },
                {
                    "name": "B4",
                    "midi": 71,
                    "time": 66.61215049999996,
                    "velocity": 0.5511811023622047,
                    "duration": 0.20092622083333822
                },
                {
                    "name": "A3",
                    "midi": 57,
                    "time": 67.02081399999996,
                    "velocity": 0.5275590551181102,
                    "duration": 0.40866350000000295
                },
                {
                    "name": "F#4",
                    "midi": 66,
                    "time": 67.02081399999996,
                    "velocity": 0.5275590551181102,
                    "duration": 0.40866350000000295
                },
                {
                    "name": "A4",
                    "midi": 69,
                    "time": 67.02081399999996,
                    "velocity": 0.5984251968503937,
                    "duration": 0.40866350000000295
                },
                {
                    "name": "G3",
                    "midi": 55,
                    "time": 67.42947749999996,
                    "velocity": 0.49606299212598426,
                    "duration": 0.09876034583332682
                },
                {
                    "name": "F#3",
                    "midi": 54,
                    "time": 67.63380924999996,
                    "velocity": 0.48031496062992124,
                    "duration": 0.09876034583332682
                },
                {
                    "name": "E4",
                    "midi": 64,
                    "time": 67.83814099999995,
                    "velocity": 0.49606299212598426,
                    "duration": 0.40866350000000295
                },
                {
                    "name": "G3",
                    "midi": 55,
                    "time": 67.83814099999995,
                    "velocity": 0.49606299212598426,
                    "duration": 0.40866350000000295
                },
                {
                    "name": "G4",
                    "midi": 67,
                    "time": 67.83814099999995,
                    "velocity": 0.5590551181102362,
                    "duration": 0.40866350000000295
                },
                {
                    "name": "F#3",
                    "midi": 54,
                    "time": 68.24680449999995,
                    "velocity": 0.5039370078740157,
                    "duration": 0.09876034583332682
                },
                {
                    "name": "E3",
                    "midi": 52,
                    "time": 68.45113624999995,
                    "velocity": 0.48031496062992124,
                    "duration": 0.09876034583332682
                },
                {
                    "name": "D#4",
                    "midi": 63,
                    "time": 68.65546799999994,
                    "velocity": 0.5669291338582677,
                    "duration": 0.40866350000000295
                },
                {
                    "name": "D#3",
                    "midi": 51,
                    "time": 68.65546799999994,
                    "velocity": 0.5039370078740157,
                    "duration": 0.40866350000000295
                },
                {
                    "name": "B3",
                    "midi": 59,
                    "time": 68.65546799999994,
                    "velocity": 0.5039370078740157,
                    "duration": 0.40866350000000295
                },
                {
                    "name": "B3",
                    "midi": 59,
                    "time": 69.88145849999995,
                    "velocity": 0.49606299212598426,
                    "duration": 0.20092622083333822
                },
                {
                    "name": "B4",
                    "midi": 71,
                    "time": 69.88145849999995,
                    "velocity": 0.5590551181102362,
                    "duration": 0.20092622083333822
                },
                {
                    "name": "A3",
                    "midi": 57,
                    "time": 70.29012199999995,
                    "velocity": 0.5196850393700787,
                    "duration": 0.40866350000000295
                },
                {
                    "name": "F#4",
                    "midi": 66,
                    "time": 70.29012199999995,
                    "velocity": 0.5196850393700787,
                    "duration": 0.40866350000000295
                },
                {
                    "name": "A4",
                    "midi": 69,
                    "time": 70.29012199999995,
                    "velocity": 0.5748031496062992,
                    "duration": 0.40866350000000295
                },
                {
                    "name": "G3",
                    "midi": 55,
                    "time": 70.69878549999996,
                    "velocity": 0.4881889763779528,
                    "duration": 0.09876034583332682
                },
                {
                    "name": "F#3",
                    "midi": 54,
                    "time": 70.90311724999995,
                    "velocity": 0.4645669291338583,
                    "duration": 0.09876034583332682
                },
                {
                    "name": "E4",
                    "midi": 64,
                    "time": 71.10744899999995,
                    "velocity": 0.49606299212598426,
                    "duration": 0.40866350000000295
                },
                {
                    "name": "G3",
                    "midi": 55,
                    "time": 71.10744899999995,
                    "velocity": 0.49606299212598426,
                    "duration": 0.40866350000000295
                },
                {
                    "name": "G4",
                    "midi": 67,
                    "time": 71.10744899999995,
                    "velocity": 0.5590551181102362,
                    "duration": 0.40866350000000295
                },
                {
                    "name": "F#3",
                    "midi": 54,
                    "time": 71.51611249999995,
                    "velocity": 0.49606299212598426,
                    "duration": 0.09876034583332682
                },
                {
                    "name": "E3",
                    "midi": 52,
                    "time": 71.72044424999994,
                    "velocity": 0.47244094488188976,
                    "duration": 0.09876034583332682
                },
                {
                    "name": "B4",
                    "midi": 71,
                    "time": 71.92477599999994,
                    "velocity": 0.5669291338582677,
                    "duration": 0.40866350000000295
                },
                {
                    "name": "B3",
                    "midi": 59,
                    "time": 71.92477599999994,
                    "velocity": 0.5039370078740157,
                    "duration": 0.40866350000000295
                },
                {
                    "name": "D#4",
                    "midi": 63,
                    "time": 71.92477599999994,
                    "velocity": 0.5039370078740157,
                    "duration": 0.40866350000000295
                },
                {
                    "name": "B3",
                    "midi": 59,
                    "time": 73.15076649999995,
                    "velocity": 0.4881889763779528,
                    "duration": 0.20092622083333822
                },
                {
                    "name": "B4",
                    "midi": 71,
                    "time": 73.15076649999995,
                    "velocity": 0.5511811023622047,
                    "duration": 0.20092622083333822
                },
                {
                    "name": "E4",
                    "midi": 64,
                    "time": 73.55942999999995,
                    "velocity": 0.5669291338582677,
                    "duration": 0.40866350000000295
                },
                {
                    "name": "B4",
                    "midi": 71,
                    "time": 73.55942999999995,
                    "velocity": 0.5669291338582677,
                    "duration": 0.40866350000000295
                },
                {
                    "name": "E5",
                    "midi": 76,
                    "time": 73.55942999999995,
                    "velocity": 0.6377952755905512,
                    "duration": 0.40866350000000295
                },
                {
                    "name": "D4",
                    "midi": 62,
                    "time": 73.96809349999995,
                    "velocity": 0.5039370078740157,
                    "duration": 0.09876034583332682
                },
                {
                    "name": "B3",
                    "midi": 59,
                    "time": 74.17242524999995,
                    "velocity": 0.4645669291338583,
                    "duration": 0.09876034583332682
                },
                {
                    "name": "E4",
                    "midi": 64,
                    "time": 74.37675699999994,
                    "velocity": 0.47244094488188976,
                    "duration": 0.40866350000000295
                },
                {
                    "name": "C4",
                    "midi": 60,
                    "time": 74.37675699999994,
                    "velocity": 0.47244094488188976,
                    "duration": 0.40866350000000295
                },
                {
                    "name": "C5",
                    "midi": 72,
                    "time": 74.37675699999994,
                    "velocity": 0.5196850393700787,
                    "duration": 0.40866350000000295
                },
                {
                    "name": "B3",
                    "midi": 59,
                    "time": 74.78542049999994,
                    "velocity": 0.4645669291338583,
                    "duration": 0.09876034583332682
                },
                {
                    "name": "A3",
                    "midi": 57,
                    "time": 74.98975224999994,
                    "velocity": 0.4330708661417323,
                    "duration": 0.09876034583332682
                },
                {
                    "name": "D4",
                    "midi": 62,
                    "time": 75.19408399999993,
                    "velocity": 0.5433070866141733,
                    "duration": 0.40866350000000295
                },
                {
                    "name": "A4",
                    "midi": 69,
                    "time": 75.19408399999993,
                    "velocity": 0.5433070866141733,
                    "duration": 0.40866350000000295
                },
                {
                    "name": "D5",
                    "midi": 74,
                    "time": 75.19408399999993,
                    "velocity": 0.6062992125984252,
                    "duration": 0.40866350000000295
                },
                {
                    "name": "C4",
                    "midi": 60,
                    "time": 75.60274749999994,
                    "velocity": 0.49606299212598426,
                    "duration": 0.09876034583332682
                },
                {
                    "name": "A3",
                    "midi": 57,
                    "time": 75.80707924999993,
                    "velocity": 0.44881889763779526,
                    "duration": 0.09876034583332682
                },
                {
                    "name": "D4",
                    "midi": 62,
                    "time": 76.01141099999992,
                    "velocity": 0.4251968503937008,
                    "duration": 0.40866350000000295
                },
                {
                    "name": "B3",
                    "midi": 59,
                    "time": 76.01141099999992,
                    "velocity": 0.4251968503937008,
                    "duration": 0.40866350000000295
                },
                {
                    "name": "B4",
                    "midi": 71,
                    "time": 76.01141099999992,
                    "velocity": 0.48031496062992124,
                    "duration": 0.40866350000000295
                },
                {
                    "name": "A3",
                    "midi": 57,
                    "time": 76.42007449999993,
                    "velocity": 0.4645669291338583,
                    "duration": 0.09876034583332682
                },
                {
                    "name": "G3",
                    "midi": 55,
                    "time": 76.62440624999992,
                    "velocity": 0.4409448818897638,
                    "duration": 0.09876034583332682
                },
                {
                    "name": "C4",
                    "midi": 60,
                    "time": 76.82873799999992,
                    "velocity": 0.5511811023622047,
                    "duration": 0.40866350000000295
                },
                {
                    "name": "G4",
                    "midi": 67,
                    "time": 76.82873799999992,
                    "velocity": 0.5511811023622047,
                    "duration": 0.40866350000000295
                },
                {
                    "name": "C5",
                    "midi": 72,
                    "time": 76.82873799999992,
                    "velocity": 0.6220472440944882,
                    "duration": 0.40866350000000295
                },
                {
                    "name": "B3",
                    "midi": 59,
                    "time": 77.23740149999992,
                    "velocity": 0.48031496062992124,
                    "duration": 0.09876034583332682
                },
                {
                    "name": "G3",
                    "midi": 55,
                    "time": 77.44173324999991,
                    "velocity": 0.4409448818897638,
                    "duration": 0.09876034583332682
                },
                {
                    "name": "C4",
                    "midi": 60,
                    "time": 77.64606499999991,
                    "velocity": 0.4330708661417323,
                    "duration": 0.40866350000000295
                },
                {
                    "name": "A3",
                    "midi": 57,
                    "time": 77.64606499999991,
                    "velocity": 0.4330708661417323,
                    "duration": 0.40866350000000295
                },
                {
                    "name": "A4",
                    "midi": 69,
                    "time": 77.64606499999991,
                    "velocity": 0.4881889763779528,
                    "duration": 0.40866350000000295
                },
                {
                    "name": "G3",
                    "midi": 55,
                    "time": 78.05472849999991,
                    "velocity": 0.47244094488188976,
                    "duration": 0.09876034583332682
                },
                {
                    "name": "F#3",
                    "midi": 54,
                    "time": 78.2590602499999,
                    "velocity": 0.4409448818897638,
                    "duration": 0.09876034583332682
                },
                {
                    "name": "B3",
                    "midi": 59,
                    "time": 78.4633919999999,
                    "velocity": 0.49606299212598426,
                    "duration": 0.40866350000000295
                },
                {
                    "name": "F#4",
                    "midi": 66,
                    "time": 78.4633919999999,
                    "velocity": 0.49606299212598426,
                    "duration": 0.40866350000000295
                },
                {
                    "name": "B4",
                    "midi": 71,
                    "time": 78.4633919999999,
                    "velocity": 0.5590551181102362,
                    "duration": 0.40866350000000295
                },
                {
                    "name": "A3",
                    "midi": 57,
                    "time": 78.8720554999999,
                    "velocity": 0.48031496062992124,
                    "duration": 0.09876034583332682
                },
                {
                    "name": "F#3",
                    "midi": 54,
                    "time": 79.0763872499999,
                    "velocity": 0.4409448818897638,
                    "duration": 0.09876034583332682
                },
                {
                    "name": "B3",
                    "midi": 59,
                    "time": 79.28071899999989,
                    "velocity": 0.4409448818897638,
                    "duration": 0.40866350000000295
                },
                {
                    "name": "G3",
                    "midi": 55,
                    "time": 79.28071899999989,
                    "velocity": 0.4409448818897638,
                    "duration": 0.40866350000000295
                },
                {
                    "name": "G4",
                    "midi": 67,
                    "time": 79.28071899999989,
                    "velocity": 0.49606299212598426,
                    "duration": 0.40866350000000295
                },
                {
                    "name": "F#3",
                    "midi": 54,
                    "time": 79.6893824999999,
                    "velocity": 0.47244094488188976,
                    "duration": 0.09876034583332682
                },
                {
                    "name": "E3",
                    "midi": 52,
                    "time": 79.89371424999989,
                    "velocity": 0.4409448818897638,
                    "duration": 0.15324881249999578
                },
                {
                    "name": "G4",
                    "midi": 67,
                    "time": 80.09804599999988,
                    "velocity": 0.4409448818897638,
                    "duration": 0.40866350000000295
                },
                {
                    "name": "G3",
                    "midi": 55,
                    "time": 80.09804599999988,
                    "velocity": 0.3937007874015748,
                    "duration": 0.40866350000000295
                },
                {
                    "name": "C4",
                    "midi": 60,
                    "time": 80.09804599999988,
                    "velocity": 0.3937007874015748,
                    "duration": 0.40866350000000295
                },
                {
                    "name": "E4",
                    "midi": 64,
                    "time": 80.09804599999988,
                    "velocity": 0.3937007874015748,
                    "duration": 0.40866350000000295
                },
                {
                    "name": "F#3",
                    "midi": 54,
                    "time": 80.50670949999989,
                    "velocity": 0.49606299212598426,
                    "duration": 0.09876034583332682
                },
                {
                    "name": "E3",
                    "midi": 52,
                    "time": 80.71104124999988,
                    "velocity": 0.5275590551181102,
                    "duration": 0.09876034583332682
                },
                {
                    "name": "G4",
                    "midi": 67,
                    "time": 80.91537299999987,
                    "velocity": 0.5590551181102362,
                    "duration": 0.40866350000000295
                },
                {
                    "name": "C#4",
                    "midi": 61,
                    "time": 80.91537299999987,
                    "velocity": 0.49606299212598426,
                    "duration": 0.40866350000000295
                },
                {
                    "name": "G3",
                    "midi": 55,
                    "time": 80.91537299999987,
                    "velocity": 0.49606299212598426,
                    "duration": 0.40866350000000295
                },
                {
                    "name": "E4",
                    "midi": 64,
                    "time": 80.91537299999987,
                    "velocity": 0.49606299212598426,
                    "duration": 0.40866350000000295
                },
                {
                    "name": "F#3",
                    "midi": 54,
                    "time": 81.32403649999988,
                    "velocity": 0.5275590551181102,
                    "duration": 0.09876034583332682
                },
                {
                    "name": "E3",
                    "midi": 52,
                    "time": 81.52836824999987,
                    "velocity": 0.49606299212598426,
                    "duration": 0.09876034583332682
                },
                {
                    "name": "D#3",
                    "midi": 51,
                    "time": 81.73269999999987,
                    "velocity": 0.5275590551181102,
                    "duration": 0.40866350000000295
                },
                {
                    "name": "B3",
                    "midi": 59,
                    "time": 81.73269999999987,
                    "velocity": 0.5275590551181102,
                    "duration": 0.40866350000000295
                },
                {
                    "name": "D#4",
                    "midi": 63,
                    "time": 81.73269999999987,
                    "velocity": 0.5905511811023622,
                    "duration": 0.40866350000000295
                },
                {
                    "name": "E3",
                    "midi": 52,
                    "time": 82.14136349999987,
                    "velocity": 0.44881889763779526,
                    "duration": 0.09876034583332682
                },
                {
                    "name": "F#3",
                    "midi": 54,
                    "time": 82.34569524999986,
                    "velocity": 0.4251968503937008,
                    "duration": 0.09876034583332682
                },
                {
                    "name": "G3",
                    "midi": 55,
                    "time": 82.55002699999986,
                    "velocity": 0.4330708661417323,
                    "duration": 0.40866350000000295
                },
                {
                    "name": "E3",
                    "midi": 52,
                    "time": 82.55002699999986,
                    "velocity": 0.4330708661417323,
                    "duration": 0.40866350000000295
                },
                {
                    "name": "E4",
                    "midi": 64,
                    "time": 82.55002699999986,
                    "velocity": 0.4881889763779528,
                    "duration": 0.40866350000000295
                },
                {
                    "name": "F#3",
                    "midi": 54,
                    "time": 82.95869049999986,
                    "velocity": 0.4330708661417323,
                    "duration": 0.09876034583332682
                },
                {
                    "name": "G3",
                    "midi": 55,
                    "time": 83.16302224999986,
                    "velocity": 0.4330708661417323,
                    "duration": 0.09876034583332682
                },
                {
                    "name": "C4",
                    "midi": 60,
                    "time": 83.36735399999985,
                    "velocity": 0.5275590551181102,
                    "duration": 0.40185244166666223
                },
                {
                    "name": "F3",
                    "midi": 53,
                    "time": 83.36735399999985,
                    "velocity": 0.47244094488188976,
                    "duration": 0.40866349999998874
                },
                {
                    "name": "F4",
                    "midi": 65,
                    "time": 83.77601749999984,
                    "velocity": 0.3700787401574803,
                    "duration": 0.09876034583332682
                },
                {
                    "name": "A4",
                    "midi": 69,
                    "time": 83.77601749999984,
                    "velocity": 0.4251968503937008,
                    "duration": 0.09876034583332682
                },
                {
                    "name": "C4",
                    "midi": 60,
                    "time": 83.98034924999983,
                    "velocity": 0.3543307086614173,
                    "duration": 0.09876034583332682
                },
                {
                    "name": "F4",
                    "midi": 65,
                    "time": 83.98034924999983,
                    "velocity": 0.4015748031496063,
                    "duration": 0.09876034583332682
                },
                {
                    "name": "G3",
                    "midi": 55,
                    "time": 84.18468099999983,
                    "velocity": 0.44881889763779526,
                    "duration": 0.30649762500000577
                },
                {
                    "name": "B3",
                    "midi": 59,
                    "time": 84.18468099999983,
                    "velocity": 0.44881889763779526,
                    "duration": 0.30649762500000577
                },
                {
                    "name": "E4",
                    "midi": 64,
                    "time": 84.18468099999983,
                    "velocity": 0.5118110236220472,
                    "duration": 0.30649762500000577
                },
                {
                    "name": "B3",
                    "midi": 59,
                    "time": 84.59334449999983,
                    "velocity": 0.4251968503937008,
                    "duration": 0.09876034583332682
                },
                {
                    "name": "F#4",
                    "midi": 66,
                    "time": 84.59334449999983,
                    "velocity": 0.47244094488188976,
                    "duration": 0.09876034583332682
                },
                {
                    "name": "B3",
                    "midi": 59,
                    "time": 84.79767624999982,
                    "velocity": 0.3937007874015748,
                    "duration": 0.10216587499999719
                },
                {
                    "name": "D#4",
                    "midi": 63,
                    "time": 84.79767624999982,
                    "velocity": 0.4409448818897638,
                    "duration": 0.10216587499999719
                },
                {
                    "name": "G3",
                    "midi": 55,
                    "time": 85.00200799999982,
                    "velocity": 0.4881889763779528,
                    "duration": 0.8173270000000059
                },
                {
                    "name": "B3",
                    "midi": 59,
                    "time": 85.00200799999982,
                    "velocity": 0.4881889763779528,
                    "duration": 0.8173270000000059
                },
                {
                    "name": "E4",
                    "midi": 64,
                    "time": 85.00200799999982,
                    "velocity": 0.5511811023622047,
                    "duration": 0.8173270000000059
                },
                {
                    "name": "G#6",
                    "midi": 92,
                    "time": 86.22799849999983,
                    "velocity": 0.29133858267716534,
                    "duration": 0.20092622083333822
                },
                {
                    "name": "B6",
                    "midi": 95,
                    "time": 86.22799849999983,
                    "velocity": 0.33858267716535434,
                    "duration": 0.20092622083333822
                },
                {
                    "name": "F#6",
                    "midi": 90,
                    "time": 86.43233024999984,
                    "velocity": 0.2755905511811024,
                    "duration": 0.20092622083333822
                },
                {
                    "name": "A6",
                    "midi": 93,
                    "time": 86.43233024999984,
                    "velocity": 0.30708661417322836,
                    "duration": 0.20092622083333822
                },
                {
                    "name": "E6",
                    "midi": 88,
                    "time": 86.63666199999984,
                    "velocity": 0.33070866141732286,
                    "duration": 0.39163585416666535
                },
                {
                    "name": "G#6",
                    "midi": 92,
                    "time": 86.63666199999984,
                    "velocity": 0.36220472440944884,
                    "duration": 0.39163585416666535
                },
                {
                    "name": "E6",
                    "midi": 88,
                    "time": 87.04532549999985,
                    "velocity": 0.2677165354330709,
                    "duration": 0.20092622083333822
                },
                {
                    "name": "G#6",
                    "midi": 92,
                    "time": 87.04532549999985,
                    "velocity": 0.29133858267716534,
                    "duration": 0.20092622083333822
                },
                {
                    "name": "B5",
                    "midi": 83,
                    "time": 87.24965724999986,
                    "velocity": 0.2440944881889764,
                    "duration": 0.20092622083333822
                },
                {
                    "name": "F#6",
                    "midi": 90,
                    "time": 87.24965724999986,
                    "velocity": 0.2755905511811024,
                    "duration": 0.20092622083333822
                },
                {
                    "name": "G#5",
                    "midi": 80,
                    "time": 87.45398899999986,
                    "velocity": 0.28346456692913385,
                    "duration": 0.39163585416666535
                },
                {
                    "name": "E6",
                    "midi": 88,
                    "time": 87.45398899999986,
                    "velocity": 0.3228346456692913,
                    "duration": 0.39163585416666535
                },
                {
                    "name": "B5",
                    "midi": 83,
                    "time": 87.86265249999987,
                    "velocity": 0.33070866141732286,
                    "duration": 0.20092622083333822
                },
                {
                    "name": "G#5",
                    "midi": 80,
                    "time": 87.86265249999987,
                    "velocity": 0.28346456692913385,
                    "duration": 0.20092622083333822
                },
                {
                    "name": "F#5",
                    "midi": 78,
                    "time": 88.06698424999988,
                    "velocity": 0.2677165354330709,
                    "duration": 0.20092622083333822
                },
                {
                    "name": "A5",
                    "midi": 81,
                    "time": 88.06698424999988,
                    "velocity": 0.29133858267716534,
                    "duration": 0.20092622083333822
                },
                {
                    "name": "E5",
                    "midi": 76,
                    "time": 88.27131599999989,
                    "velocity": 0.31496062992125984,
                    "duration": 0.39163585416666535
                },
                {
                    "name": "G#5",
                    "midi": 80,
                    "time": 88.27131599999989,
                    "velocity": 0.3543307086614173,
                    "duration": 0.39163585416666535
                },
                {
                    "name": "E5",
                    "midi": 76,
                    "time": 88.67997949999989,
                    "velocity": 0.2677165354330709,
                    "duration": 0.20092622083333822
                },
                {
                    "name": "G#5",
                    "midi": 80,
                    "time": 88.67997949999989,
                    "velocity": 0.29133858267716534,
                    "duration": 0.20092622083333822
                },
                {
                    "name": "B4",
                    "midi": 71,
                    "time": 88.8843112499999,
                    "velocity": 0.2440944881889764,
                    "duration": 0.20092622083333822
                },
                {
                    "name": "F#5",
                    "midi": 78,
                    "time": 88.8843112499999,
                    "velocity": 0.2755905511811024,
                    "duration": 0.20092622083333822
                },
                {
                    "name": "G#4",
                    "midi": 68,
                    "time": 89.0886429999999,
                    "velocity": 0.28346456692913385,
                    "duration": 0.39163585416666535
                },
                {
                    "name": "E5",
                    "midi": 76,
                    "time": 89.0886429999999,
                    "velocity": 0.33070866141732286,
                    "duration": 0.39163585416666535
                },
                {
                    "name": "G#4",
                    "midi": 68,
                    "time": 89.49730649999991,
                    "velocity": 0.28346456692913385,
                    "duration": 0.20092622083333822
                },
                {
                    "name": "E5",
                    "midi": 76,
                    "time": 89.49730649999991,
                    "velocity": 0.33070866141732286,
                    "duration": 0.20092622083333822
                },
                {
                    "name": "B4",
                    "midi": 71,
                    "time": 89.70163824999992,
                    "velocity": 0.2677165354330709,
                    "duration": 0.20092622083333822
                },
                {
                    "name": "F#5",
                    "midi": 78,
                    "time": 89.70163824999992,
                    "velocity": 0.29133858267716534,
                    "duration": 0.20092622083333822
                },
                {
                    "name": "E5",
                    "midi": 76,
                    "time": 89.90596999999993,
                    "velocity": 0.31496062992125984,
                    "duration": 0.39163585416666535
                },
                {
                    "name": "G#5",
                    "midi": 80,
                    "time": 89.90596999999993,
                    "velocity": 0.3543307086614173,
                    "duration": 0.39163585416666535
                },
                {
                    "name": "B4",
                    "midi": 71,
                    "time": 90.31463349999993,
                    "velocity": 0.29133858267716534,
                    "duration": 0.20092622083333822
                },
                {
                    "name": "F#5",
                    "midi": 78,
                    "time": 90.31463349999993,
                    "velocity": 0.33858267716535434,
                    "duration": 0.20092622083333822
                },
                {
                    "name": "E5",
                    "midi": 76,
                    "time": 90.51896524999994,
                    "velocity": 0.2755905511811024,
                    "duration": 0.20092622083333822
                },
                {
                    "name": "G#5",
                    "midi": 80,
                    "time": 90.51896524999994,
                    "velocity": 0.30708661417322836,
                    "duration": 0.20092622083333822
                },
                {
                    "name": "F#5",
                    "midi": 78,
                    "time": 90.72329699999995,
                    "velocity": 0.33858267716535434,
                    "duration": 0.39163585416666535
                },
                {
                    "name": "A5",
                    "midi": 81,
                    "time": 90.72329699999995,
                    "velocity": 0.3700787401574803,
                    "duration": 0.39163585416666535
                },
                {
                    "name": "B4",
                    "midi": 71,
                    "time": 91.13196049999995,
                    "velocity": 0.31496062992125984,
                    "duration": 0.20092622083333822
                },
                {
                    "name": "F#5",
                    "midi": 78,
                    "time": 91.13196049999995,
                    "velocity": 0.3543307086614173,
                    "duration": 0.20092622083333822
                },
                {
                    "name": "F#5",
                    "midi": 78,
                    "time": 91.33629224999996,
                    "velocity": 0.28346456692913385,
                    "duration": 0.20092622083333822
                },
                {
                    "name": "A5",
                    "midi": 81,
                    "time": 91.33629224999996,
                    "velocity": 0.33070866141732286,
                    "duration": 0.20092622083333822
                },
                {
                    "name": "G#5",
                    "midi": 80,
                    "time": 91.54062399999997,
                    "velocity": 0.3464566929133858,
                    "duration": 0.39163585416666535
                },
                {
                    "name": "B5",
                    "midi": 83,
                    "time": 91.54062399999997,
                    "velocity": 0.3937007874015748,
                    "duration": 0.39163585416666535
                },
                {
                    "name": "F#5",
                    "midi": 78,
                    "time": 91.94928749999997,
                    "velocity": 0.2755905511811024,
                    "duration": 0.20092622083333822
                },
                {
                    "name": "A5",
                    "midi": 81,
                    "time": 91.94928749999997,
                    "velocity": 0.30708661417322836,
                    "duration": 0.20092622083333822
                },
                {
                    "name": "E5",
                    "midi": 76,
                    "time": 92.15361924999998,
                    "velocity": 0.25984251968503935,
                    "duration": 0.20092622083333822
                },
                {
                    "name": "G#5",
                    "midi": 80,
                    "time": 92.15361924999998,
                    "velocity": 0.28346456692913385,
                    "duration": 0.20092622083333822
                },
                {
                    "name": "B4",
                    "midi": 71,
                    "time": 92.35795099999999,
                    "velocity": 0.30708661417322836,
                    "duration": 0.39163585416666535
                },
                {
                    "name": "F#5",
                    "midi": 78,
                    "time": 92.35795099999999,
                    "velocity": 0.3464566929133858,
                    "duration": 0.39163585416666535
                },
                {
                    "name": "G#6",
                    "midi": 92,
                    "time": 92.76661449999999,
                    "velocity": 0.29133858267716534,
                    "duration": 0.20092622083333822
                },
                {
                    "name": "B6",
                    "midi": 95,
                    "time": 92.76661449999999,
                    "velocity": 0.33858267716535434,
                    "duration": 0.20092622083333822
                },
                {
                    "name": "F#6",
                    "midi": 90,
                    "time": 92.97094625,
                    "velocity": 0.2755905511811024,
                    "duration": 0.20092622083333822
                },
                {
                    "name": "A6",
                    "midi": 93,
                    "time": 92.97094625,
                    "velocity": 0.30708661417322836,
                    "duration": 0.20092622083333822
                },
                {
                    "name": "E6",
                    "midi": 88,
                    "time": 93.175278,
                    "velocity": 0.33070866141732286,
                    "duration": 0.39163585416666535
                },
                {
                    "name": "G#6",
                    "midi": 92,
                    "time": 93.175278,
                    "velocity": 0.36220472440944884,
                    "duration": 0.39163585416666535
                },
                {
                    "name": "E6",
                    "midi": 88,
                    "time": 93.58394150000001,
                    "velocity": 0.2677165354330709,
                    "duration": 0.20092622083333822
                },
                {
                    "name": "G#6",
                    "midi": 92,
                    "time": 93.58394150000001,
                    "velocity": 0.29133858267716534,
                    "duration": 0.20092622083333822
                },
                {
                    "name": "B5",
                    "midi": 83,
                    "time": 93.78827325000002,
                    "velocity": 0.25196850393700787,
                    "duration": 0.20092622083333822
                },
                {
                    "name": "F#6",
                    "midi": 90,
                    "time": 93.78827325000002,
                    "velocity": 0.28346456692913385,
                    "duration": 0.20092622083333822
                },
                {
                    "name": "G#5",
                    "midi": 80,
                    "time": 93.99260500000003,
                    "velocity": 0.3228346456692913,
                    "duration": 0.39163585416666535
                },
                {
                    "name": "E6",
                    "midi": 88,
                    "time": 93.99260500000003,
                    "velocity": 0.3228346456692913,
                    "duration": 0.39163585416666535
                },
                {
                    "name": "B5",
                    "midi": 83,
                    "time": 94.40126850000003,
                    "velocity": 0.33070866141732286,
                    "duration": 0.20092622083333822
                },
                {
                    "name": "G#5",
                    "midi": 80,
                    "time": 94.40126850000003,
                    "velocity": 0.28346456692913385,
                    "duration": 0.20092622083333822
                },
                {
                    "name": "F#5",
                    "midi": 78,
                    "time": 94.60560025000004,
                    "velocity": 0.2755905511811024,
                    "duration": 0.20092622083333822
                },
                {
                    "name": "A5",
                    "midi": 81,
                    "time": 94.60560025000004,
                    "velocity": 0.30708661417322836,
                    "duration": 0.20092622083333822
                },
                {
                    "name": "E5",
                    "midi": 76,
                    "time": 94.80993200000005,
                    "velocity": 0.31496062992125984,
                    "duration": 0.39163585416666535
                },
                {
                    "name": "G#5",
                    "midi": 80,
                    "time": 94.80993200000005,
                    "velocity": 0.3543307086614173,
                    "duration": 0.39163585416666535
                },
                {
                    "name": "E5",
                    "midi": 76,
                    "time": 95.21859550000005,
                    "velocity": 0.2677165354330709,
                    "duration": 0.20092622083333822
                },
                {
                    "name": "G#5",
                    "midi": 80,
                    "time": 95.21859550000005,
                    "velocity": 0.29133858267716534,
                    "duration": 0.20092622083333822
                },
                {
                    "name": "B4",
                    "midi": 71,
                    "time": 95.42292725000006,
                    "velocity": 0.23622047244094488,
                    "duration": 0.20092622083333822
                },
                {
                    "name": "F#5",
                    "midi": 78,
                    "time": 95.42292725000006,
                    "velocity": 0.2677165354330709,
                    "duration": 0.20092622083333822
                },
                {
                    "name": "G#4",
                    "midi": 68,
                    "time": 95.62725900000007,
                    "velocity": 0.28346456692913385,
                    "duration": 0.39163585416666535
                },
                {
                    "name": "E5",
                    "midi": 76,
                    "time": 95.62725900000007,
                    "velocity": 0.33070866141732286,
                    "duration": 0.39163585416666535
                },
                {
                    "name": "G#4",
                    "midi": 68,
                    "time": 96.03592250000007,
                    "velocity": 0.28346456692913385,
                    "duration": 0.20092622083333822
                },
                {
                    "name": "E5",
                    "midi": 76,
                    "time": 96.03592250000007,
                    "velocity": 0.33070866141732286,
                    "duration": 0.20092622083333822
                },
                {
                    "name": "B4",
                    "midi": 71,
                    "time": 96.24025425000008,
                    "velocity": 0.2677165354330709,
                    "duration": 0.20092622083333822
                },
                {
                    "name": "F#5",
                    "midi": 78,
                    "time": 96.24025425000008,
                    "velocity": 0.29133858267716534,
                    "duration": 0.20092622083333822
                },
                {
                    "name": "E5",
                    "midi": 76,
                    "time": 96.44458600000009,
                    "velocity": 0.31496062992125984,
                    "duration": 0.39163585416666535
                },
                {
                    "name": "G#5",
                    "midi": 80,
                    "time": 96.44458600000009,
                    "velocity": 0.3543307086614173,
                    "duration": 0.39163585416666535
                },
                {
                    "name": "F#5",
                    "midi": 78,
                    "time": 96.85324950000009,
                    "velocity": 0.30708661417322836,
                    "duration": 0.20092622083333822
                },
                {
                    "name": "A5",
                    "midi": 81,
                    "time": 96.85324950000009,
                    "velocity": 0.3464566929133858,
                    "duration": 0.20092622083333822
                },
                {
                    "name": "E5",
                    "midi": 76,
                    "time": 97.0575812500001,
                    "velocity": 0.2755905511811024,
                    "duration": 0.20092622083333822
                },
                {
                    "name": "G#5",
                    "midi": 80,
                    "time": 97.0575812500001,
                    "velocity": 0.30708661417322836,
                    "duration": 0.20092622083333822
                },
                {
                    "name": "B4",
                    "midi": 71,
                    "time": 97.2619130000001,
                    "velocity": 0.28346456692913385,
                    "duration": 0.39163585416666535
                },
                {
                    "name": "F#5",
                    "midi": 78,
                    "time": 97.2619130000001,
                    "velocity": 0.3228346456692913,
                    "duration": 0.39163585416666535
                },
                {
                    "name": "E5",
                    "midi": 76,
                    "time": 97.67057650000011,
                    "velocity": 0.31496062992125984,
                    "duration": 0.20092622083333822
                },
                {
                    "name": "G#5",
                    "midi": 80,
                    "time": 97.67057650000011,
                    "velocity": 0.3543307086614173,
                    "duration": 0.20092622083333822
                },
                {
                    "name": "B4",
                    "midi": 71,
                    "time": 97.87490825000012,
                    "velocity": 0.2677165354330709,
                    "duration": 0.20092622083333822
                },
                {
                    "name": "F#5",
                    "midi": 78,
                    "time": 97.87490825000012,
                    "velocity": 0.29133858267716534,
                    "duration": 0.20092622083333822
                },
                {
                    "name": "G#4",
                    "midi": 68,
                    "time": 98.07924000000013,
                    "velocity": 0.2755905511811024,
                    "duration": 0.8173270000000059
                },
                {
                    "name": "E5",
                    "midi": 76,
                    "time": 98.07924000000013,
                    "velocity": 0.30708661417322836,
                    "duration": 0.8173270000000059
                },
                {
                    "name": "G#3",
                    "midi": 56,
                    "time": 99.30523050000014,
                    "velocity": 0.47244094488188976,
                    "duration": 0.09876034583332682
                },
                {
                    "name": "E4",
                    "midi": 64,
                    "time": 99.30523050000014,
                    "velocity": 0.5196850393700787,
                    "duration": 0.09876034583332682
                },
                {
                    "name": "E4",
                    "midi": 64,
                    "time": 99.50956225000013,
                    "velocity": 0.4330708661417323,
                    "duration": 0.09876034583332682
                },
                {
                    "name": "G#4",
                    "midi": 68,
                    "time": 99.50956225000013,
                    "velocity": 0.49606299212598426,
                    "duration": 0.09876034583332682
                },
                {
                    "name": "B3",
                    "midi": 59,
                    "time": 99.71389400000012,
                    "velocity": 0.5118110236220472,
                    "duration": 0.37460820833332775
                },
                {
                    "name": "F#4",
                    "midi": 66,
                    "time": 99.71389400000012,
                    "velocity": 0.5748031496062992,
                    "duration": 0.37460820833332775
                },
                {
                    "name": "E4",
                    "midi": 64,
                    "time": 100.12255750000011,
                    "velocity": 0.47244094488188976,
                    "duration": 0.09876034583332682
                },
                {
                    "name": "G#4",
                    "midi": 68,
                    "time": 100.12255750000011,
                    "velocity": 0.5196850393700787,
                    "duration": 0.09876034583332682
                },
                {
                    "name": "F#4",
                    "midi": 66,
                    "time": 100.32688925000011,
                    "velocity": 0.44881889763779526,
                    "duration": 0.09876034583332682
                },
                {
                    "name": "A4",
                    "midi": 69,
                    "time": 100.32688925000011,
                    "velocity": 0.5039370078740157,
                    "duration": 0.09876034583332682
                },
                {
                    "name": "G#4",
                    "midi": 68,
                    "time": 100.5312210000001,
                    "velocity": 0.49606299212598426,
                    "duration": 0.37460820833332775
                },
                {
                    "name": "B4",
                    "midi": 71,
                    "time": 100.5312210000001,
                    "velocity": 0.5669291338582677,
                    "duration": 0.37460820833332775
                },
                {
                    "name": "A4",
                    "midi": 69,
                    "time": 100.93988450000009,
                    "velocity": 0.4881889763779528,
                    "duration": 0.09876034583332682
                },
                {
                    "name": "C#5",
                    "midi": 73,
                    "time": 100.93988450000009,
                    "velocity": 0.5433070866141733,
                    "duration": 0.09876034583332682
                },
                {
                    "name": "G#4",
                    "midi": 68,
                    "time": 101.14421625000008,
                    "velocity": 0.44881889763779526,
                    "duration": 0.09876034583332682
                },
                {
                    "name": "B4",
                    "midi": 71,
                    "time": 101.14421625000008,
                    "velocity": 0.5039370078740157,
                    "duration": 0.09876034583332682
                },
                {
                    "name": "F#4",
                    "midi": 66,
                    "time": 101.34854800000008,
                    "velocity": 0.5196850393700787,
                    "duration": 0.37460820833332775
                },
                {
                    "name": "A4",
                    "midi": 69,
                    "time": 101.34854800000008,
                    "velocity": 0.5826771653543307,
                    "duration": 0.37460820833332775
                },
                {
                    "name": "E4",
                    "midi": 64,
                    "time": 101.75721150000007,
                    "velocity": 0.48031496062992124,
                    "duration": 0.09876034583332682
                },
                {
                    "name": "G#4",
                    "midi": 68,
                    "time": 101.75721150000007,
                    "velocity": 0.5275590551181102,
                    "duration": 0.09876034583332682
                },
                {
                    "name": "F#4",
                    "midi": 66,
                    "time": 101.96154325000006,
                    "velocity": 0.4409448818897638,
                    "duration": 0.09876034583332682
                },
                {
                    "name": "A4",
                    "midi": 69,
                    "time": 101.96154325000006,
                    "velocity": 0.49606299212598426,
                    "duration": 0.09876034583332682
                },
                {
                    "name": "B3",
                    "midi": 59,
                    "time": 102.16587500000006,
                    "velocity": 0.5196850393700787,
                    "duration": 0.37460820833332775
                },
                {
                    "name": "F#4",
                    "midi": 66,
                    "time": 102.16587500000006,
                    "velocity": 0.5826771653543307,
                    "duration": 0.37460820833332775
                },
                {
                    "name": "G#3",
                    "midi": 56,
                    "time": 102.57453850000005,
                    "velocity": 0.47244094488188976,
                    "duration": 0.09876034583332682
                },
                {
                    "name": "E4",
                    "midi": 64,
                    "time": 102.57453850000005,
                    "velocity": 0.5196850393700787,
                    "duration": 0.09876034583332682
                },
                {
                    "name": "E4",
                    "midi": 64,
                    "time": 102.77887025000004,
                    "velocity": 0.4409448818897638,
                    "duration": 0.09876034583332682
                },
                {
                    "name": "G#4",
                    "midi": 68,
                    "time": 102.77887025000004,
                    "velocity": 0.49606299212598426,
                    "duration": 0.09876034583332682
                },
                {
                    "name": "B3",
                    "midi": 59,
                    "time": 102.98320200000003,
                    "velocity": 0.5118110236220472,
                    "duration": 0.37460820833332775
                },
                {
                    "name": "F#4",
                    "midi": 66,
                    "time": 102.98320200000003,
                    "velocity": 0.5748031496062992,
                    "duration": 0.37460820833332775
                },
                {
                    "name": "E4",
                    "midi": 64,
                    "time": 103.39186550000002,
                    "velocity": 0.47244094488188976,
                    "duration": 0.09876034583332682
                },
                {
                    "name": "G#4",
                    "midi": 68,
                    "time": 103.39186550000002,
                    "velocity": 0.5196850393700787,
                    "duration": 0.09876034583332682
                },
                {
                    "name": "F#4",
                    "midi": 66,
                    "time": 103.59619725000002,
                    "velocity": 0.4409448818897638,
                    "duration": 0.09876034583332682
                },
                {
                    "name": "A4",
                    "midi": 69,
                    "time": 103.59619725000002,
                    "velocity": 0.49606299212598426,
                    "duration": 0.09876034583332682
                },
                {
                    "name": "G#4",
                    "midi": 68,
                    "time": 103.80052900000001,
                    "velocity": 0.49606299212598426,
                    "duration": 0.37460820833332775
                },
                {
                    "name": "B4",
                    "midi": 71,
                    "time": 103.80052900000001,
                    "velocity": 0.5669291338582677,
                    "duration": 0.37460820833332775
                },
                {
                    "name": "A4",
                    "midi": 69,
                    "time": 104.2091925,
                    "velocity": 0.49606299212598426,
                    "duration": 0.09876034583332682
                },
                {
                    "name": "C#5",
                    "midi": 73,
                    "time": 104.2091925,
                    "velocity": 0.5669291338582677,
                    "duration": 0.09876034583332682
                },
                {
                    "name": "G#4",
                    "midi": 68,
                    "time": 104.41352425,
                    "velocity": 0.4881889763779528,
                    "duration": 0.09876034583332682
                },
                {
                    "name": "B4",
                    "midi": 71,
                    "time": 104.41352425,
                    "velocity": 0.5433070866141733,
                    "duration": 0.09876034583332682
                },
                {
                    "name": "F#4",
                    "midi": 66,
                    "time": 104.61785599999999,
                    "velocity": 0.5196850393700787,
                    "duration": 0.37460820833332775
                },
                {
                    "name": "A4",
                    "midi": 69,
                    "time": 104.61785599999999,
                    "velocity": 0.5826771653543307,
                    "duration": 0.37460820833332775
                },
                {
                    "name": "E4",
                    "midi": 64,
                    "time": 105.02651949999998,
                    "velocity": 0.47244094488188976,
                    "duration": 0.09876034583332682
                },
                {
                    "name": "G#4",
                    "midi": 68,
                    "time": 105.02651949999998,
                    "velocity": 0.5196850393700787,
                    "duration": 0.09876034583332682
                },
                {
                    "name": "F#4",
                    "midi": 66,
                    "time": 105.23085124999997,
                    "velocity": 0.4330708661417323,
                    "duration": 0.09876034583332682
                },
                {
                    "name": "A4",
                    "midi": 69,
                    "time": 105.23085124999997,
                    "velocity": 0.49606299212598426,
                    "duration": 0.09876034583332682
                },
                {
                    "name": "B3",
                    "midi": 59,
                    "time": 105.43518299999997,
                    "velocity": 0.44881889763779526,
                    "duration": 0.30649762500000577
                },
                {
                    "name": "F#4",
                    "midi": 66,
                    "time": 105.43518299999997,
                    "velocity": 0.5039370078740157,
                    "duration": 0.30649762500000577
                },
                {
                    "name": "G#6",
                    "midi": 92,
                    "time": 105.84384649999997,
                    "velocity": 0.29133858267716534,
                    "duration": 0.20092622083333822
                },
                {
                    "name": "B6",
                    "midi": 95,
                    "time": 105.84384649999997,
                    "velocity": 0.33858267716535434,
                    "duration": 0.20092622083333822
                },
                {
                    "name": "F#6",
                    "midi": 90,
                    "time": 106.04817824999998,
                    "velocity": 0.2755905511811024,
                    "duration": 0.20092622083333822
                },
                {
                    "name": "A6",
                    "midi": 93,
                    "time": 106.04817824999998,
                    "velocity": 0.30708661417322836,
                    "duration": 0.20092622083333822
                },
                {
                    "name": "E6",
                    "midi": 88,
                    "time": 106.25250999999999,
                    "velocity": 0.33070866141732286,
                    "duration": 0.39163585416666535
                },
                {
                    "name": "G#6",
                    "midi": 92,
                    "time": 106.25250999999999,
                    "velocity": 0.36220472440944884,
                    "duration": 0.39163585416666535
                },
                {
                    "name": "E6",
                    "midi": 88,
                    "time": 106.66117349999999,
                    "velocity": 0.2677165354330709,
                    "duration": 0.20092622083333822
                },
                {
                    "name": "G#6",
                    "midi": 92,
                    "time": 106.66117349999999,
                    "velocity": 0.29133858267716534,
                    "duration": 0.20092622083333822
                },
                {
                    "name": "B5",
                    "midi": 83,
                    "time": 106.86550525,
                    "velocity": 0.2440944881889764,
                    "duration": 0.20092622083333822
                },
                {
                    "name": "F#6",
                    "midi": 90,
                    "time": 106.86550525,
                    "velocity": 0.2755905511811024,
                    "duration": 0.20092622083333822
                },
                {
                    "name": "G#5",
                    "midi": 80,
                    "time": 107.069837,
                    "velocity": 0.28346456692913385,
                    "duration": 0.39163585416666535
                },
                {
                    "name": "E6",
                    "midi": 88,
                    "time": 107.069837,
                    "velocity": 0.3228346456692913,
                    "duration": 0.39163585416666535
                },
                {
                    "name": "B5",
                    "midi": 83,
                    "time": 107.47850050000001,
                    "velocity": 0.33070866141732286,
                    "duration": 0.20092622083333822
                },
                {
                    "name": "G#5",
                    "midi": 80,
                    "time": 107.47850050000001,
                    "velocity": 0.28346456692913385,
                    "duration": 0.20092622083333822
                },
                {
                    "name": "F#5",
                    "midi": 78,
                    "time": 107.68283225000002,
                    "velocity": 0.2677165354330709,
                    "duration": 0.20092622083333822
                },
                {
                    "name": "A5",
                    "midi": 81,
                    "time": 107.68283225000002,
                    "velocity": 0.29133858267716534,
                    "duration": 0.20092622083333822
                },
                {
                    "name": "E5",
                    "midi": 76,
                    "time": 107.88716400000003,
                    "velocity": 0.31496062992125984,
                    "duration": 0.39163585416666535
                },
                {
                    "name": "G#5",
                    "midi": 80,
                    "time": 107.88716400000003,
                    "velocity": 0.3543307086614173,
                    "duration": 0.39163585416666535
                },
                {
                    "name": "E5",
                    "midi": 76,
                    "time": 108.29582750000003,
                    "velocity": 0.2677165354330709,
                    "duration": 0.20092622083333822
                },
                {
                    "name": "G#5",
                    "midi": 80,
                    "time": 108.29582750000003,
                    "velocity": 0.29133858267716534,
                    "duration": 0.20092622083333822
                },
                {
                    "name": "B4",
                    "midi": 71,
                    "time": 108.50015925000004,
                    "velocity": 0.28346456692913385,
                    "duration": 0.20092622083333822
                },
                {
                    "name": "F#5",
                    "midi": 78,
                    "time": 108.50015925000004,
                    "velocity": 0.28346456692913385,
                    "duration": 0.20092622083333822
                },
                {
                    "name": "G#4",
                    "midi": 68,
                    "time": 108.70449100000005,
                    "velocity": 0.28346456692913385,
                    "duration": 0.39163585416666535
                },
                {
                    "name": "E5",
                    "midi": 76,
                    "time": 108.70449100000005,
                    "velocity": 0.33070866141732286,
                    "duration": 0.39163585416666535
                },
                {
                    "name": "G#3",
                    "midi": 56,
                    "time": 109.11315450000005,
                    "velocity": 0.28346456692913385,
                    "duration": 0.09876034583332682
                },
                {
                    "name": "E4",
                    "midi": 64,
                    "time": 109.11315450000005,
                    "velocity": 0.33070866141732286,
                    "duration": 0.09876034583332682
                },
                {
                    "name": "B3",
                    "midi": 59,
                    "time": 109.31748625000004,
                    "velocity": 0.2677165354330709,
                    "duration": 0.09876034583332682
                },
                {
                    "name": "F#4",
                    "midi": 66,
                    "time": 109.31748625000004,
                    "velocity": 0.29133858267716534,
                    "duration": 0.09876034583332682
                },
                {
                    "name": "E4",
                    "midi": 64,
                    "time": 109.52181800000004,
                    "velocity": 0.31496062992125984,
                    "duration": 0.39163585416666535
                },
                {
                    "name": "G#4",
                    "midi": 68,
                    "time": 109.52181800000004,
                    "velocity": 0.3543307086614173,
                    "duration": 0.39163585416666535
                },
                {
                    "name": "F#4",
                    "midi": 66,
                    "time": 109.93048150000004,
                    "velocity": 0.28346456692913385,
                    "duration": 0.09876034583332682
                },
                {
                    "name": "A4",
                    "midi": 69,
                    "time": 109.93048150000004,
                    "velocity": 0.33070866141732286,
                    "duration": 0.09876034583332682
                },
                {
                    "name": "E4",
                    "midi": 64,
                    "time": 110.13481325000004,
                    "velocity": 0.25196850393700787,
                    "duration": 0.09876034583332682
                },
                {
                    "name": "G#4",
                    "midi": 68,
                    "time": 110.13481325000004,
                    "velocity": 0.28346456692913385,
                    "duration": 0.09876034583332682
                },
                {
                    "name": "B3",
                    "midi": 59,
                    "time": 110.33914500000003,
                    "velocity": 0.25984251968503935,
                    "duration": 0.39163585416666535
                },
                {
                    "name": "F#4",
                    "midi": 66,
                    "time": 110.33914500000003,
                    "velocity": 0.28346456692913385,
                    "duration": 0.39163585416666535
                },
                {
                    "name": "E4",
                    "midi": 64,
                    "time": 110.74780850000003,
                    "velocity": 0.28346456692913385,
                    "duration": 0.09876034583332682
                },
                {
                    "name": "G#4",
                    "midi": 68,
                    "time": 110.74780850000003,
                    "velocity": 0.3228346456692913,
                    "duration": 0.09876034583332682
                },
                {
                    "name": "B3",
                    "midi": 59,
                    "time": 110.95214025000003,
                    "velocity": 0.2440944881889764,
                    "duration": 0.09876034583332682
                },
                {
                    "name": "F#4",
                    "midi": 66,
                    "time": 110.95214025000003,
                    "velocity": 0.2755905511811024,
                    "duration": 0.09876034583332682
                },
                {
                    "name": "G#3",
                    "midi": 56,
                    "time": 111.15647200000002,
                    "velocity": 0.25196850393700787,
                    "duration": 0.8173270000000059
                },
                {
                    "name": "E4",
                    "midi": 64,
                    "time": 111.15647200000002,
                    "velocity": 0.28346456692913385,
                    "duration": 0.8173270000000059
                },
                {
                    "name": "E4",
                    "midi": 64,
                    "time": 112.38246250000003,
                    "velocity": 0.5590551181102362,
                    "duration": 0.20092622083333822
                },
                {
                    "name": "E5",
                    "midi": 76,
                    "time": 112.38246250000003,
                    "velocity": 0.6220472440944882,
                    "duration": 0.20092622083333822
                },
                {
                    "name": "A4",
                    "midi": 69,
                    "time": 112.79112600000003,
                    "velocity": 0.6220472440944882,
                    "duration": 1.2259904999999947
                },
                {
                    "name": "A5",
                    "midi": 81,
                    "time": 112.79112600000003,
                    "velocity": 0.6850393700787402,
                    "duration": 1.2259904999999947
                },
                {
                    "name": "E4",
                    "midi": 64,
                    "time": 114.01711650000003,
                    "velocity": 0.5669291338582677,
                    "duration": 0.20433174999999437
                },
                {
                    "name": "E5",
                    "midi": 76,
                    "time": 114.01711650000003,
                    "velocity": 0.6377952755905512,
                    "duration": 0.20433174999999437
                },
                {
                    "name": "C4",
                    "midi": 60,
                    "time": 114.42578000000002,
                    "velocity": 0.6220472440944882,
                    "duration": 0.40866350000000295
                },
                {
                    "name": "C5",
                    "midi": 72,
                    "time": 114.42578000000002,
                    "velocity": 0.6850393700787402,
                    "duration": 0.40866350000000295
                },
                {
                    "name": "A3",
                    "midi": 57,
                    "time": 114.83444350000002,
                    "velocity": 0.5826771653543307,
                    "duration": 0.40866350000000295
                },
                {
                    "name": "A4",
                    "midi": 69,
                    "time": 114.83444350000002,
                    "velocity": 0.6535433070866141,
                    "duration": 0.40866350000000295
                },
                {
                    "name": "A3",
                    "midi": 57,
                    "time": 115.65177050000003,
                    "velocity": 0.33858267716535434,
                    "duration": 0.06129952500000968
                },
                {
                    "name": "B3",
                    "midi": 59,
                    "time": 115.70966449583337,
                    "velocity": 0.33858267716535434,
                    "duration": 0.06129952500000968
                },
                {
                    "name": "C4",
                    "midi": 60,
                    "time": 115.7675584916667,
                    "velocity": 0.33858267716535434,
                    "duration": 0.06129952500000968
                },
                {
                    "name": "D4",
                    "midi": 62,
                    "time": 115.82545248750004,
                    "velocity": 0.33858267716535434,
                    "duration": 0.06129952500000968
                },
                {
                    "name": "E4",
                    "midi": 64,
                    "time": 115.88334648333338,
                    "velocity": 0.3543307086614173,
                    "duration": 0.06129952500000968
                },
                {
                    "name": "F4",
                    "midi": 65,
                    "time": 115.94124047916672,
                    "velocity": 0.3543307086614173,
                    "duration": 0.06129952500000968
                },
                {
                    "name": "G4",
                    "midi": 67,
                    "time": 115.99913447500006,
                    "velocity": 0.3543307086614173,
                    "duration": 0.06129952500000968
                },
                {
                    "name": "A4",
                    "midi": 69,
                    "time": 116.06043400000007,
                    "velocity": 0.3543307086614173,
                    "duration": 0.06129952500000968
                },
                {
                    "name": "B4",
                    "midi": 71,
                    "time": 116.11832799583341,
                    "velocity": 0.3543307086614173,
                    "duration": 0.06129952500000968
                },
                {
                    "name": "C5",
                    "midi": 72,
                    "time": 116.17622199166675,
                    "velocity": 0.3543307086614173,
                    "duration": 0.06129952500000968
                },
                {
                    "name": "D5",
                    "midi": 74,
                    "time": 116.23411598750009,
                    "velocity": 0.3543307086614173,
                    "duration": 0.06129952500000968
                },
                {
                    "name": "E5",
                    "midi": 76,
                    "time": 116.29200998333343,
                    "velocity": 0.3700787401574803,
                    "duration": 0.06129952500000968
                },
                {
                    "name": "F5",
                    "midi": 77,
                    "time": 116.34990397916677,
                    "velocity": 0.3779527559055118,
                    "duration": 0.06129952500000968
                },
                {
                    "name": "G5",
                    "midi": 79,
                    "time": 116.40779797500011,
                    "velocity": 0.3779527559055118,
                    "duration": 0.06129952500000968
                },
                {
                    "name": "A5",
                    "midi": 81,
                    "time": 116.46909750000012,
                    "velocity": 0.3700787401574803,
                    "duration": 0.06129952500000968
                },
                {
                    "name": "B5",
                    "midi": 83,
                    "time": 116.52699149583346,
                    "velocity": 0.3700787401574803,
                    "duration": 0.06129952500000968
                },
                {
                    "name": "C6",
                    "midi": 84,
                    "time": 116.5848854916668,
                    "velocity": 0.3700787401574803,
                    "duration": 0.06129952500000968
                },
                {
                    "name": "D6",
                    "midi": 86,
                    "time": 116.64277948750014,
                    "velocity": 0.3779527559055118,
                    "duration": 0.06129952500000968
                },
                {
                    "name": "E6",
                    "midi": 88,
                    "time": 116.70067348333347,
                    "velocity": 0.3779527559055118,
                    "duration": 0.06129952500000968
                },
                {
                    "name": "F6",
                    "midi": 89,
                    "time": 116.75856747916681,
                    "velocity": 0.3700787401574803,
                    "duration": 0.06129952500000968
                },
                {
                    "name": "G6",
                    "midi": 91,
                    "time": 116.81646147500015,
                    "velocity": 0.3779527559055118,
                    "duration": 0.06129952500000968
                },
                {
                    "name": "A6",
                    "midi": 93,
                    "time": 116.87776100000016,
                    "velocity": 0.4251968503937008,
                    "duration": 0.20092622083333822
                },
                {
                    "name": "C7",
                    "midi": 96,
                    "time": 117.28642450000017,
                    "velocity": 0.4251968503937008,
                    "duration": 0.09876034583332682
                },
                {
                    "name": "D6",
                    "midi": 86,
                    "time": 117.28642450000017,
                    "velocity": 0.2677165354330709,
                    "duration": 0.09876034583332682
                },
                {
                    "name": "F6",
                    "midi": 89,
                    "time": 117.28642450000017,
                    "velocity": 0.2677165354330709,
                    "duration": 0.09876034583332682
                },
                {
                    "name": "D6",
                    "midi": 86,
                    "time": 117.49075625000016,
                    "velocity": 0.2677165354330709,
                    "duration": 0.09876034583332682
                },
                {
                    "name": "F6",
                    "midi": 89,
                    "time": 117.49075625000016,
                    "velocity": 0.2677165354330709,
                    "duration": 0.09876034583332682
                },
                {
                    "name": "B6",
                    "midi": 95,
                    "time": 117.49075625000016,
                    "velocity": 0.36220472440944884,
                    "duration": 0.09876034583332682
                },
                {
                    "name": "A6",
                    "midi": 93,
                    "time": 117.69508800000015,
                    "velocity": 0.3700787401574803,
                    "duration": 0.0681105833333362
                },
                {
                    "name": "C6",
                    "midi": 84,
                    "time": 117.69508800000015,
                    "velocity": 0.30708661417322836,
                    "duration": 0.8173270000000059
                },
                {
                    "name": "B6",
                    "midi": 95,
                    "time": 117.76319858333349,
                    "velocity": 0.3464566929133858,
                    "duration": 0.0681105833333362
                },
                {
                    "name": "A6",
                    "midi": 93,
                    "time": 117.83130916666683,
                    "velocity": 0.3700787401574803,
                    "duration": 0.0681105833333362
                },
                {
                    "name": "B6",
                    "midi": 95,
                    "time": 117.89941975000016,
                    "velocity": 0.3464566929133858,
                    "duration": 0.0681105833333362
                },
                {
                    "name": "A6",
                    "midi": 93,
                    "time": 117.9675303333335,
                    "velocity": 0.3700787401574803,
                    "duration": 0.0681105833333362
                },
                {
                    "name": "B6",
                    "midi": 95,
                    "time": 118.03564091666684,
                    "velocity": 0.3700787401574803,
                    "duration": 0.0681105833333362
                },
                {
                    "name": "A6",
                    "midi": 93,
                    "time": 118.12077914583351,
                    "velocity": 0.3464566929133858,
                    "duration": 0.08513822916665958
                },
                {
                    "name": "G#6",
                    "midi": 92,
                    "time": 118.20591737500017,
                    "velocity": 0.3543307086614173,
                    "duration": 0.10216587499999719
                },
                {
                    "name": "B6",
                    "midi": 95,
                    "time": 118.30808325000017,
                    "velocity": 0.4015748031496063,
                    "duration": 0.10216587499999719
                },
                {
                    "name": "A6",
                    "midi": 93,
                    "time": 118.41024912500016,
                    "velocity": 0.3700787401574803,
                    "duration": 0.10216587499999719
                },
                {
                    "name": "G#6",
                    "midi": 92,
                    "time": 118.51241500000016,
                    "velocity": 0.33858267716535434,
                    "duration": 0.35758056250000436
                },
                {
                    "name": "B5",
                    "midi": 83,
                    "time": 118.51241500000016,
                    "velocity": 0.2755905511811024,
                    "duration": 0.35758056250000436
                },
                {
                    "name": "D4",
                    "midi": 62,
                    "time": 118.92107850000016,
                    "velocity": 0.5590551181102362,
                    "duration": 0.20092622083333822
                },
                {
                    "name": "D5",
                    "midi": 74,
                    "time": 118.92107850000016,
                    "velocity": 0.6220472440944882,
                    "duration": 0.20092622083333822
                },
                {
                    "name": "F4",
                    "midi": 65,
                    "time": 119.32974200000017,
                    "velocity": 0.6220472440944882,
                    "duration": 1.2259904999999947
                },
                {
                    "name": "F5",
                    "midi": 77,
                    "time": 119.32974200000017,
                    "velocity": 0.6850393700787402,
                    "duration": 1.2259904999999947
                },
                {
                    "name": "D4",
                    "midi": 62,
                    "time": 120.55573250000016,
                    "velocity": 0.5669291338582677,
                    "duration": 0.20433174999999437
                },
                {
                    "name": "D5",
                    "midi": 74,
                    "time": 120.55573250000016,
                    "velocity": 0.6377952755905512,
                    "duration": 0.20433174999999437
                },
                {
                    "name": "B3",
                    "midi": 59,
                    "time": 120.96439600000015,
                    "velocity": 0.6220472440944882,
                    "duration": 0.39163585416666535
                },
                {
                    "name": "B4",
                    "midi": 71,
                    "time": 120.96439600000015,
                    "velocity": 0.6850393700787402,
                    "duration": 0.39163585416666535
                },
                {
                    "name": "G#3",
                    "midi": 56,
                    "time": 121.37305950000015,
                    "velocity": 0.5826771653543307,
                    "duration": 0.40866350000000295
                },
                {
                    "name": "G#4",
                    "midi": 68,
                    "time": 121.37305950000015,
                    "velocity": 0.6535433070866141,
                    "duration": 0.40866350000000295
                },
                {
                    "name": "B3",
                    "midi": 59,
                    "time": 122.19038650000016,
                    "velocity": 0.33858267716535434,
                    "duration": 0.06129952500000968
                },
                {
                    "name": "C4",
                    "midi": 60,
                    "time": 122.2482804958335,
                    "velocity": 0.33858267716535434,
                    "duration": 0.06129952500000968
                },
                {
                    "name": "D4",
                    "midi": 62,
                    "time": 122.30617449166684,
                    "velocity": 0.33858267716535434,
                    "duration": 0.06129952500000968
                },
                {
                    "name": "E4",
                    "midi": 64,
                    "time": 122.36406848750018,
                    "velocity": 0.33858267716535434,
                    "duration": 0.06129952500000968
                },
                {
                    "name": "F4",
                    "midi": 65,
                    "time": 122.42196248333352,
                    "velocity": 0.3464566929133858,
                    "duration": 0.06129952500000968
                },
                {
                    "name": "G4",
                    "midi": 67,
                    "time": 122.47985647916686,
                    "velocity": 0.3543307086614173,
                    "duration": 0.06129952500000968
                },
                {
                    "name": "A4",
                    "midi": 69,
                    "time": 122.5377504750002,
                    "velocity": 0.3543307086614173,
                    "duration": 0.06129952500000968
                },
                {
                    "name": "B4",
                    "midi": 71,
                    "time": 122.5990500000002,
                    "velocity": 0.3543307086614173,
                    "duration": 0.06129952500000968
                },
                {
                    "name": "C5",
                    "midi": 72,
                    "time": 122.65694399583354,
                    "velocity": 0.3543307086614173,
                    "duration": 0.06129952500000968
                },
                {
                    "name": "D5",
                    "midi": 74,
                    "time": 122.71483799166688,
                    "velocity": 0.3543307086614173,
                    "duration": 0.06129952500000968
                },
                {
                    "name": "E5",
                    "midi": 76,
                    "time": 122.77273198750022,
                    "velocity": 0.3543307086614173,
                    "duration": 0.06129952500000968
                },
                {
                    "name": "F5",
                    "midi": 77,
                    "time": 122.83062598333356,
                    "velocity": 0.3700787401574803,
                    "duration": 0.06129952500000968
                },
                {
                    "name": "G5",
                    "midi": 79,
                    "time": 122.8885199791669,
                    "velocity": 0.3700787401574803,
                    "duration": 0.06129952500000968
                },
                {
                    "name": "A5",
                    "midi": 81,
                    "time": 122.94641397500024,
                    "velocity": 0.3779527559055118,
                    "duration": 0.06129952500000968
                },
                {
                    "name": "B5",
                    "midi": 83,
                    "time": 123.00771350000025,
                    "velocity": 0.3700787401574803,
                    "duration": 0.06129952500000968
                },
                {
                    "name": "C6",
                    "midi": 84,
                    "time": 123.06560749583359,
                    "velocity": 0.3700787401574803,
                    "duration": 0.06129952500000968
                },
                {
                    "name": "D6",
                    "midi": 86,
                    "time": 123.12350149166693,
                    "velocity": 0.3700787401574803,
                    "duration": 0.06129952500000968
                },
                {
                    "name": "E6",
                    "midi": 88,
                    "time": 123.18139548750027,
                    "velocity": 0.3700787401574803,
                    "duration": 0.06129952500000968
                },
                {
                    "name": "F6",
                    "midi": 89,
                    "time": 123.23928948333361,
                    "velocity": 0.3779527559055118,
                    "duration": 0.06129952500000968
                },
                {
                    "name": "G6",
                    "midi": 91,
                    "time": 123.29718347916695,
                    "velocity": 0.3700787401574803,
                    "duration": 0.06129952500000968
                },
                {
                    "name": "A6",
                    "midi": 93,
                    "time": 123.35507747500029,
                    "velocity": 0.3700787401574803,
                    "duration": 0.06129952500000968
                },
                {
                    "name": "B6",
                    "midi": 95,
                    "time": 123.4163770000003,
                    "velocity": 0.41732283464566927,
                    "duration": 0.20092622083333822
                },
                {
                    "name": "D7",
                    "midi": 98,
                    "time": 123.8250405000003,
                    "velocity": 0.3858267716535433,
                    "duration": 0.09876034583332682
                },
                {
                    "name": "F6",
                    "midi": 89,
                    "time": 123.8250405000003,
                    "velocity": 0.2677165354330709,
                    "duration": 0.09876034583332682
                },
                {
                    "name": "E6",
                    "midi": 88,
                    "time": 124.02937225000029,
                    "velocity": 0.2677165354330709,
                    "duration": 0.09876034583332682
                },
                {
                    "name": "C7",
                    "midi": 96,
                    "time": 124.02937225000029,
                    "velocity": 0.3543307086614173,
                    "duration": 0.09876034583332682
                },
                {
                    "name": "B6",
                    "midi": 95,
                    "time": 124.23370400000029,
                    "velocity": 0.3700787401574803,
                    "duration": 0.0681105833333362
                },
                {
                    "name": "D6",
                    "midi": 86,
                    "time": 124.23370400000029,
                    "velocity": 0.30708661417322836,
                    "duration": 0.8173270000000059
                },
                {
                    "name": "C7",
                    "midi": 96,
                    "time": 124.30181458333362,
                    "velocity": 0.3464566929133858,
                    "duration": 0.0681105833333362
                },
                {
                    "name": "B6",
                    "midi": 95,
                    "time": 124.36992516666696,
                    "velocity": 0.3700787401574803,
                    "duration": 0.0681105833333362
                },
                {
                    "name": "C7",
                    "midi": 96,
                    "time": 124.4380357500003,
                    "velocity": 0.3464566929133858,
                    "duration": 0.0681105833333362
                },
                {
                    "name": "B6",
                    "midi": 95,
                    "time": 124.50614633333363,
                    "velocity": 0.3700787401574803,
                    "duration": 0.0681105833333362
                },
                {
                    "name": "C7",
                    "midi": 96,
                    "time": 124.57425691666697,
                    "velocity": 0.3700787401574803,
                    "duration": 0.0681105833333362
                },
                {
                    "name": "B6",
                    "midi": 95,
                    "time": 124.65939514583364,
                    "velocity": 0.3464566929133858,
                    "duration": 0.08513822916665958
                },
                {
                    "name": "A6",
                    "midi": 93,
                    "time": 124.7445333750003,
                    "velocity": 0.3543307086614173,
                    "duration": 0.10216587499999719
                },
                {
                    "name": "C7",
                    "midi": 96,
                    "time": 124.8466992500003,
                    "velocity": 0.4015748031496063,
                    "duration": 0.10216587499999719
                },
                {
                    "name": "B6",
                    "midi": 95,
                    "time": 124.9488651250003,
                    "velocity": 0.3700787401574803,
                    "duration": 0.10216587499999719
                },
                {
                    "name": "A6",
                    "midi": 93,
                    "time": 125.0510310000003,
                    "velocity": 0.33858267716535434,
                    "duration": 0.34055291666666676
                },
                {
                    "name": "C6",
                    "midi": 84,
                    "time": 125.0510310000003,
                    "velocity": 0.2755905511811024,
                    "duration": 0.34055291666666676
                },
                {
                    "name": "E7",
                    "midi": 100,
                    "time": 125.4596945000003,
                    "velocity": 0.4409448818897638,
                    "duration": 0.09876034583332682
                },
                {
                    "name": "E6",
                    "midi": 88,
                    "time": 125.4596945000003,
                    "velocity": 0.4015748031496063,
                    "duration": 0.09876034583332682
                },
                {
                    "name": "A7",
                    "midi": 105,
                    "time": 125.86835800000028,
                    "velocity": 0.49606299212598426,
                    "duration": 0.09876034583332682
                },
                {
                    "name": "A6",
                    "midi": 93,
                    "time": 125.86835800000028,
                    "velocity": 0.4330708661417323,
                    "duration": 0.09876034583332682
                },
                {
                    "name": "E4",
                    "midi": 64,
                    "time": 126.27702150000027,
                    "velocity": 0.3543307086614173,
                    "duration": 0.09876034583332682
                },
                {
                    "name": "D4",
                    "midi": 62,
                    "time": 126.37918737500027,
                    "velocity": 0.33858267716535434,
                    "duration": 0.09876034583332682
                },
                {
                    "name": "C#4",
                    "midi": 61,
                    "time": 126.48135325000027,
                    "velocity": 0.3543307086614173,
                    "duration": 0.09876034583332682
                },
                {
                    "name": "B3",
                    "midi": 59,
                    "time": 126.58351912500027,
                    "velocity": 0.3464566929133858,
                    "duration": 0.09876034583332682
                },
                {
                    "name": "A3",
                    "midi": 57,
                    "time": 126.68568500000026,
                    "velocity": 0.3937007874015748,
                    "duration": 0.30649762500000577
                },
                {
                    "name": "A6",
                    "midi": 93,
                    "time": 127.09434850000027,
                    "velocity": 0.3464566929133858,
                    "duration": 0.09876034583332682
                },
                {
                    "name": "G6",
                    "midi": 91,
                    "time": 127.19651437500026,
                    "velocity": 0.3228346456692913,
                    "duration": 0.09876034583332682
                },
                {
                    "name": "F6",
                    "midi": 89,
                    "time": 127.29868025000026,
                    "velocity": 0.3464566929133858,
                    "duration": 0.09876034583332682
                },
                {
                    "name": "E6",
                    "midi": 88,
                    "time": 127.40084612500026,
                    "velocity": 0.31496062992125984,
                    "duration": 0.09876034583332682
                },
                {
                    "name": "F6",
                    "midi": 89,
                    "time": 127.50301200000025,
                    "velocity": 0.3700787401574803,
                    "duration": 0.30649762500000577
                },
                {
                    "name": "A4",
                    "midi": 69,
                    "time": 127.91167550000026,
                    "velocity": 0.3543307086614173,
                    "duration": 0.09876034583334103
                },
                {
                    "name": "G4",
                    "midi": 67,
                    "time": 128.01384137500025,
                    "velocity": 0.33070866141732286,
                    "duration": 0.09876034583334103
                },
                {
                    "name": "F4",
                    "midi": 65,
                    "time": 128.11600725000025,
                    "velocity": 0.3543307086614173,
                    "duration": 0.09876034583334103
                },
                {
                    "name": "E4",
                    "midi": 64,
                    "time": 128.21817312500025,
                    "velocity": 0.33858267716535434,
                    "duration": 0.09876034583334103
                },
                {
                    "name": "D4",
                    "midi": 62,
                    "time": 128.32033900000025,
                    "velocity": 0.3858267716535433,
                    "duration": 0.30649762499999156
                },
                {
                    "name": "F7",
                    "midi": 101,
                    "time": 128.72900250000023,
                    "velocity": 0.4409448818897638,
                    "duration": 0.09876034583334103
                },
                {
                    "name": "A6",
                    "midi": 93,
                    "time": 128.72900250000023,
                    "velocity": 0.4409448818897638,
                    "duration": 0.09876034583334103
                },
                {
                    "name": "D7",
                    "midi": 98,
                    "time": 129.13766600000025,
                    "velocity": 0.49606299212598426,
                    "duration": 0.09876034583334103
                },
                {
                    "name": "F6",
                    "midi": 89,
                    "time": 129.13766600000025,
                    "velocity": 0.49606299212598426,
                    "duration": 0.09876034583334103
                },
                {
                    "name": "D4",
                    "midi": 62,
                    "time": 129.54632950000027,
                    "velocity": 0.3543307086614173,
                    "duration": 0.09876034583334103
                },
                {
                    "name": "C4",
                    "midi": 60,
                    "time": 129.64849537500027,
                    "velocity": 0.33858267716535434,
                    "duration": 0.09876034583334103
                },
                {
                    "name": "B3",
                    "midi": 59,
                    "time": 129.75066125000026,
                    "velocity": 0.3543307086614173,
                    "duration": 0.09876034583334103
                },
                {
                    "name": "A3",
                    "midi": 57,
                    "time": 129.85282712500026,
                    "velocity": 0.3464566929133858,
                    "duration": 0.09876034583334103
                },
                {
                    "name": "G3",
                    "midi": 55,
                    "time": 129.95499300000026,
                    "velocity": 0.3858267716535433,
                    "duration": 0.30649762499999156
                },
                {
                    "name": "G6",
                    "midi": 91,
                    "time": 130.36365650000025,
                    "velocity": 0.33070866141732286,
                    "duration": 0.09876034583334103
                },
                {
                    "name": "F6",
                    "midi": 89,
                    "time": 130.46582237500024,
                    "velocity": 0.30708661417322836,
                    "duration": 0.09876034583334103
                },
                {
                    "name": "E6",
                    "midi": 88,
                    "time": 130.56798825000024,
                    "velocity": 0.33070866141732286,
                    "duration": 0.09876034583334103
                },
                {
                    "name": "D6",
                    "midi": 86,
                    "time": 130.67015412500024,
                    "velocity": 0.30708661417322836,
                    "duration": 0.09876034583334103
                },
                {
                    "name": "E6",
                    "midi": 88,
                    "time": 130.77232000000024,
                    "velocity": 0.3543307086614173,
                    "duration": 0.30649762499999156
                },
                {
                    "name": "G4",
                    "midi": 67,
                    "time": 131.18098350000022,
                    "velocity": 0.3543307086614173,
                    "duration": 0.09876034583334103
                },
                {
                    "name": "F4",
                    "midi": 65,
                    "time": 131.28314937500022,
                    "velocity": 0.33858267716535434,
                    "duration": 0.09876034583334103
                },
                {
                    "name": "E4",
                    "midi": 64,
                    "time": 131.38531525000022,
                    "velocity": 0.3543307086614173,
                    "duration": 0.09876034583334103
                },
                {
                    "name": "D4",
                    "midi": 62,
                    "time": 131.48748112500022,
                    "velocity": 0.33858267716535434,
                    "duration": 0.09876034583334103
                },
                {
                    "name": "C4",
                    "midi": 60,
                    "time": 131.5896470000002,
                    "velocity": 0.3858267716535433,
                    "duration": 0.30649762499999156
                },
                {
                    "name": "E7",
                    "midi": 100,
                    "time": 131.9983105000002,
                    "velocity": 0.47244094488188976,
                    "duration": 0.09876034583334103
                },
                {
                    "name": "G6",
                    "midi": 91,
                    "time": 131.9983105000002,
                    "velocity": 0.47244094488188976,
                    "duration": 0.09876034583334103
                },
                {
                    "name": "D7",
                    "midi": 98,
                    "time": 132.40697400000022,
                    "velocity": 0.5039370078740157,
                    "duration": 0.09876034583334103
                },
                {
                    "name": "F6",
                    "midi": 89,
                    "time": 132.40697400000022,
                    "velocity": 0.5039370078740157,
                    "duration": 0.09876034583334103
                },
                {
                    "name": "D5",
                    "midi": 74,
                    "time": 132.81563750000024,
                    "velocity": 0.36220472440944884,
                    "duration": 0.09876034583334103
                },
                {
                    "name": "C5",
                    "midi": 72,
                    "time": 132.91780337500023,
                    "velocity": 0.33858267716535434,
                    "duration": 0.09876034583334103
                },
                {
                    "name": "B4",
                    "midi": 71,
                    "time": 133.01996925000023,
                    "velocity": 0.36220472440944884,
                    "duration": 0.09876034583334103
                },
                {
                    "name": "A4",
                    "midi": 69,
                    "time": 133.12213512500023,
                    "velocity": 0.33858267716535434,
                    "duration": 0.09876034583334103
                },
                {
                    "name": "G#4",
                    "midi": 68,
                    "time": 133.22430100000022,
                    "velocity": 0.4094488188976378,
                    "duration": 0.30649762499999156
                },
                {
                    "name": "D7",
                    "midi": 98,
                    "time": 133.6329645000002,
                    "velocity": 0.47244094488188976,
                    "duration": 0.09876034583334103
                },
                {
                    "name": "F6",
                    "midi": 89,
                    "time": 133.6329645000002,
                    "velocity": 0.47244094488188976,
                    "duration": 0.09876034583334103
                },
                {
                    "name": "C7",
                    "midi": 96,
                    "time": 134.04162800000023,
                    "velocity": 0.5039370078740157,
                    "duration": 0.09876034583334103
                },
                {
                    "name": "E6",
                    "midi": 88,
                    "time": 134.04162800000023,
                    "velocity": 0.5039370078740157,
                    "duration": 0.09876034583334103
                },
                {
                    "name": "E5",
                    "midi": 76,
                    "time": 134.45029150000025,
                    "velocity": 0.36220472440944884,
                    "duration": 0.09876034583334103
                },
                {
                    "name": "D5",
                    "midi": 74,
                    "time": 134.55245737500024,
                    "velocity": 0.33858267716535434,
                    "duration": 0.09876034583334103
                },
                {
                    "name": "C5",
                    "midi": 72,
                    "time": 134.65462325000024,
                    "velocity": 0.36220472440944884,
                    "duration": 0.09876034583334103
                },
                {
                    "name": "B4",
                    "midi": 71,
                    "time": 134.75678912500024,
                    "velocity": 0.3464566929133858,
                    "duration": 0.09876034583334103
                },
                {
                    "name": "A4",
                    "midi": 69,
                    "time": 134.85895500000024,
                    "velocity": 0.4094488188976378,
                    "duration": 0.30649762499999156
                },
                {
                    "name": "C5",
                    "midi": 72,
                    "time": 135.26761850000022,
                    "velocity": 0.36220472440944884,
                    "duration": 0.09876034583334103
                },
                {
                    "name": "B4",
                    "midi": 71,
                    "time": 135.36978437500022,
                    "velocity": 0.3464566929133858,
                    "duration": 0.09876034583334103
                },
                {
                    "name": "A4",
                    "midi": 69,
                    "time": 135.47195025000022,
                    "velocity": 0.36220472440944884,
                    "duration": 0.09876034583334103
                },
                {
                    "name": "G4",
                    "midi": 67,
                    "time": 135.57411612500022,
                    "velocity": 0.3543307086614173,
                    "duration": 0.09876034583334103
                },
                {
                    "name": "F4",
                    "midi": 65,
                    "time": 135.6762820000002,
                    "velocity": 0.4094488188976378,
                    "duration": 0.30649762499999156
                },
                {
                    "name": "A4",
                    "midi": 69,
                    "time": 136.0849455000002,
                    "velocity": 0.36220472440944884,
                    "duration": 0.09876034583334103
                },
                {
                    "name": "G4",
                    "midi": 67,
                    "time": 136.1871113750002,
                    "velocity": 0.3543307086614173,
                    "duration": 0.09876034583334103
                },
                {
                    "name": "F4",
                    "midi": 65,
                    "time": 136.2892772500002,
                    "velocity": 0.36220472440944884,
                    "duration": 0.09876034583334103
                },
                {
                    "name": "E4",
                    "midi": 64,
                    "time": 136.3914431250002,
                    "velocity": 0.3464566929133858,
                    "duration": 0.09876034583334103
                },
                {
                    "name": "D#4",
                    "midi": 63,
                    "time": 136.4936090000002,
                    "velocity": 0.4094488188976378,
                    "duration": 0.30649762499999156
                },
                {
                    "name": "C7",
                    "midi": 96,
                    "time": 136.90227250000018,
                    "velocity": 0.3700787401574803,
                    "duration": 0.09876034583334103
                },
                {
                    "name": "A6",
                    "midi": 93,
                    "time": 137.00443837500018,
                    "velocity": 0.3543307086614173,
                    "duration": 0.09876034583334103
                },
                {
                    "name": "F6",
                    "midi": 89,
                    "time": 137.10660425000017,
                    "velocity": 0.3700787401574803,
                    "duration": 0.09876034583334103
                },
                {
                    "name": "D#6",
                    "midi": 87,
                    "time": 137.20877012500017,
                    "velocity": 0.3543307086614173,
                    "duration": 0.09876034583334103
                },
                {
                    "name": "E6",
                    "midi": 88,
                    "time": 137.31093600000017,
                    "velocity": 0.41732283464566927,
                    "duration": 0.30649762499999156
                },
                {
                    "name": "E5",
                    "midi": 76,
                    "time": 137.71959950000016,
                    "velocity": 0.33858267716535434,
                    "duration": 0.09876034583334103
                },
                {
                    "name": "B4",
                    "midi": 71,
                    "time": 137.82176537500015,
                    "velocity": 0.31496062992125984,
                    "duration": 0.09876034583334103
                },
                {
                    "name": "G#4",
                    "midi": 68,
                    "time": 137.92393125000015,
                    "velocity": 0.3464566929133858,
                    "duration": 0.09876034583334103
                },
                {
                    "name": "B4",
                    "midi": 71,
                    "time": 138.02609712500015,
                    "velocity": 0.33070866141732286,
                    "duration": 0.09876034583334103
                },
                {
                    "name": "E4",
                    "midi": 64,
                    "time": 138.12826300000015,
                    "velocity": 0.3700787401574803,
                    "duration": 0.30649762499999156
                },
                {
                    "name": "G4",
                    "midi": 67,
                    "time": 138.53692650000013,
                    "velocity": 0.5590551181102362,
                    "duration": 0.20092622083333822
                },
                {
                    "name": "G5",
                    "midi": 79,
                    "time": 138.53692650000013,
                    "velocity": 0.6220472440944882,
                    "duration": 0.20092622083333822
                },
                {
                    "name": "C5",
                    "midi": 72,
                    "time": 138.94559000000015,
                    "velocity": 0.6220472440944882,
                    "duration": 1.2259904999999947
                },
                {
                    "name": "C6",
                    "midi": 84,
                    "time": 138.94559000000015,
                    "velocity": 0.6850393700787402,
                    "duration": 1.2259904999999947
                },
                {
                    "name": "G4",
                    "midi": 67,
                    "time": 140.17158050000015,
                    "velocity": 0.5669291338582677,
                    "duration": 0.20433174999999437
                },
                {
                    "name": "G5",
                    "midi": 79,
                    "time": 140.17158050000015,
                    "velocity": 0.6377952755905512,
                    "duration": 0.20433174999999437
                },
                {
                    "name": "E4",
                    "midi": 64,
                    "time": 140.58024400000014,
                    "velocity": 0.6220472440944882,
                    "duration": 0.40866349999998874
                },
                {
                    "name": "E5",
                    "midi": 76,
                    "time": 140.58024400000014,
                    "velocity": 0.6850393700787402,
                    "duration": 0.40866349999998874
                },
                {
                    "name": "C4",
                    "midi": 60,
                    "time": 140.98890750000012,
                    "velocity": 0.5905511811023622,
                    "duration": 0.40866349999998874
                },
                {
                    "name": "C5",
                    "midi": 72,
                    "time": 140.98890750000012,
                    "velocity": 0.6614173228346457,
                    "duration": 0.40866349999998874
                },
                {
                    "name": "C4",
                    "midi": 60,
                    "time": 141.8062345000001,
                    "velocity": 0.33858267716535434,
                    "duration": 0.06129952499998126
                },
                {
                    "name": "D4",
                    "midi": 62,
                    "time": 141.86412849583343,
                    "velocity": 0.33858267716535434,
                    "duration": 0.06129952499998126
                },
                {
                    "name": "E4",
                    "midi": 64,
                    "time": 141.92202249166675,
                    "velocity": 0.33858267716535434,
                    "duration": 0.06129952499998126
                },
                {
                    "name": "F4",
                    "midi": 65,
                    "time": 141.97991648750008,
                    "velocity": 0.33858267716535434,
                    "duration": 0.06129952499998126
                },
                {
                    "name": "G4",
                    "midi": 67,
                    "time": 142.0378104833334,
                    "velocity": 0.3464566929133858,
                    "duration": 0.06129952499998126
                },
                {
                    "name": "A4",
                    "midi": 69,
                    "time": 142.09570447916673,
                    "velocity": 0.3543307086614173,
                    "duration": 0.06129952499998126
                },
                {
                    "name": "B4",
                    "midi": 71,
                    "time": 142.15359847500005,
                    "velocity": 0.3543307086614173,
                    "duration": 0.06129952499998126
                },
                {
                    "name": "C5",
                    "midi": 72,
                    "time": 142.21489800000003,
                    "velocity": 0.3543307086614173,
                    "duration": 0.06129952499998126
                },
                {
                    "name": "D5",
                    "midi": 74,
                    "time": 142.27279199583336,
                    "velocity": 0.3543307086614173,
                    "duration": 0.06129952499998126
                },
                {
                    "name": "E5",
                    "midi": 76,
                    "time": 142.33068599166668,
                    "velocity": 0.3543307086614173,
                    "duration": 0.06129952499998126
                },
                {
                    "name": "F5",
                    "midi": 77,
                    "time": 142.3885799875,
                    "velocity": 0.3543307086614173,
                    "duration": 0.06129952499998126
                },
                {
                    "name": "G5",
                    "midi": 79,
                    "time": 142.44647398333333,
                    "velocity": 0.3700787401574803,
                    "duration": 0.06129952499998126
                },
                {
                    "name": "A5",
                    "midi": 81,
                    "time": 142.50436797916666,
                    "velocity": 0.3700787401574803,
                    "duration": 0.06129952499998126
                },
                {
                    "name": "B5",
                    "midi": 83,
                    "time": 142.56226197499998,
                    "velocity": 0.3779527559055118,
                    "duration": 0.06129952499998126
                },
                {
                    "name": "C6",
                    "midi": 84,
                    "time": 142.62356149999997,
                    "velocity": 0.3700787401574803,
                    "duration": 0.06129952499998126
                },
                {
                    "name": "D6",
                    "midi": 86,
                    "time": 142.6814554958333,
                    "velocity": 0.3700787401574803,
                    "duration": 0.06129952499998126
                },
                {
                    "name": "E6",
                    "midi": 88,
                    "time": 142.73934949166662,
                    "velocity": 0.3700787401574803,
                    "duration": 0.06129952499998126
                },
                {
                    "name": "F6",
                    "midi": 89,
                    "time": 142.79724348749994,
                    "velocity": 0.3779527559055118,
                    "duration": 0.06129952499998126
                },
                {
                    "name": "G6",
                    "midi": 91,
                    "time": 142.85513748333327,
                    "velocity": 0.3779527559055118,
                    "duration": 0.06129952499998126
                },
                {
                    "name": "A6",
                    "midi": 93,
                    "time": 142.9130314791666,
                    "velocity": 0.3700787401574803,
                    "duration": 0.06129952499998126
                },
                {
                    "name": "B6",
                    "midi": 95,
                    "time": 142.97092547499992,
                    "velocity": 0.3779527559055118,
                    "duration": 0.06129952499998126
                },
                {
                    "name": "C7",
                    "midi": 96,
                    "time": 143.0322249999999,
                    "velocity": 0.41732283464566927,
                    "duration": 0.20092622083333822
                },
                {
                    "name": "E7",
                    "midi": 100,
                    "time": 143.44088849999991,
                    "velocity": 0.4251968503937008,
                    "duration": 0.09876034583334103
                },
                {
                    "name": "F6",
                    "midi": 89,
                    "time": 143.44088849999991,
                    "velocity": 0.2677165354330709,
                    "duration": 0.09876034583334103
                },
                {
                    "name": "A6",
                    "midi": 93,
                    "time": 143.44088849999991,
                    "velocity": 0.2677165354330709,
                    "duration": 0.09876034583334103
                },
                {
                    "name": "F6",
                    "midi": 89,
                    "time": 143.6452202499999,
                    "velocity": 0.2677165354330709,
                    "duration": 0.09876034583334103
                },
                {
                    "name": "A6",
                    "midi": 93,
                    "time": 143.6452202499999,
                    "velocity": 0.2677165354330709,
                    "duration": 0.09876034583334103
                },
                {
                    "name": "D7",
                    "midi": 98,
                    "time": 143.6452202499999,
                    "velocity": 0.3543307086614173,
                    "duration": 0.09876034583334103
                },
                {
                    "name": "C7",
                    "midi": 96,
                    "time": 143.8495519999999,
                    "velocity": 0.3700787401574803,
                    "duration": 0.06811058333332198
                },
                {
                    "name": "E6",
                    "midi": 88,
                    "time": 143.8495519999999,
                    "velocity": 0.30708661417322836,
                    "duration": 0.8173269999999206
                },
                {
                    "name": "D7",
                    "midi": 98,
                    "time": 143.91766258333323,
                    "velocity": 0.3464566929133858,
                    "duration": 0.06811058333332198
                },
                {
                    "name": "C7",
                    "midi": 96,
                    "time": 143.98577316666655,
                    "velocity": 0.3700787401574803,
                    "duration": 0.06811058333332198
                },
                {
                    "name": "D7",
                    "midi": 98,
                    "time": 144.05388374999987,
                    "velocity": 0.3464566929133858,
                    "duration": 0.06811058333332198
                },
                {
                    "name": "C7",
                    "midi": 96,
                    "time": 144.1219943333332,
                    "velocity": 0.3700787401574803,
                    "duration": 0.06811058333332198
                },
                {
                    "name": "D7",
                    "midi": 98,
                    "time": 144.1901049166665,
                    "velocity": 0.3700787401574803,
                    "duration": 0.06811058333332198
                },
                {
                    "name": "C7",
                    "midi": 96,
                    "time": 144.27524314583317,
                    "velocity": 0.3464566929133858,
                    "duration": 0.08513822916665958
                },
                {
                    "name": "B6",
                    "midi": 95,
                    "time": 144.36038137499983,
                    "velocity": 0.3543307086614173,
                    "duration": 0.09876034583334103
                },
                {
                    "name": "D7",
                    "midi": 98,
                    "time": 144.46254724999983,
                    "velocity": 0.4015748031496063,
                    "duration": 0.09876034583334103
                },
                {
                    "name": "C7",
                    "midi": 96,
                    "time": 144.56471312499983,
                    "velocity": 0.3700787401574803,
                    "duration": 0.09876034583334103
                },
                {
                    "name": "B6",
                    "midi": 95,
                    "time": 144.66687899999982,
                    "velocity": 0.33858267716535434,
                    "duration": 0.35758056250000436
                },
                {
                    "name": "D6",
                    "midi": 86,
                    "time": 144.66687899999982,
                    "velocity": 0.30708661417322836,
                    "duration": 0.35758056250000436
                },
                {
                    "name": "D4",
                    "midi": 62,
                    "time": 145.07554249999984,
                    "velocity": 0.49606299212598426,
                    "duration": 0.20092622083333822
                },
                {
                    "name": "D5",
                    "midi": 74,
                    "time": 145.07554249999984,
                    "velocity": 0.5590551181102362,
                    "duration": 0.20092622083333822
                },
                {
                    "name": "F4",
                    "midi": 65,
                    "time": 145.48420599999986,
                    "velocity": 0.5590551181102362,
                    "duration": 1.2259904999999947
                },
                {
                    "name": "F5",
                    "midi": 77,
                    "time": 145.48420599999986,
                    "velocity": 0.6220472440944882,
                    "duration": 1.2259904999999947
                },
                {
                    "name": "D4",
                    "midi": 62,
                    "time": 146.71019649999985,
                    "velocity": 0.5039370078740157,
                    "duration": 0.30649762499999156
                },
                {
                    "name": "D5",
                    "midi": 74,
                    "time": 146.71019649999985,
                    "velocity": 0.5669291338582677,
                    "duration": 0.30649762499999156
                },
                {
                    "name": "B3",
                    "midi": 59,
                    "time": 147.11885999999984,
                    "velocity": 0.5590551181102362,
                    "duration": 0.40866349999998874
                },
                {
                    "name": "B4",
                    "midi": 71,
                    "time": 147.11885999999984,
                    "velocity": 0.6220472440944882,
                    "duration": 0.40866349999998874
                },
                {
                    "name": "G3",
                    "midi": 55,
                    "time": 147.52752349999983,
                    "velocity": 0.5275590551181102,
                    "duration": 0.40866349999998874
                },
                {
                    "name": "G4",
                    "midi": 67,
                    "time": 147.52752349999983,
                    "velocity": 0.5275590551181102,
                    "duration": 0.40866349999998874
                },
                {
                    "name": "B3",
                    "midi": 59,
                    "time": 148.3448504999998,
                    "velocity": 0.33858267716535434,
                    "duration": 0.06129952499998126
                },
                {
                    "name": "C4",
                    "midi": 60,
                    "time": 148.40274449583313,
                    "velocity": 0.33858267716535434,
                    "duration": 0.06129952499998126
                },
                {
                    "name": "D4",
                    "midi": 62,
                    "time": 148.46063849166646,
                    "velocity": 0.33858267716535434,
                    "duration": 0.06129952499998126
                },
                {
                    "name": "E4",
                    "midi": 64,
                    "time": 148.51853248749978,
                    "velocity": 0.33858267716535434,
                    "duration": 0.06129952499998126
                },
                {
                    "name": "F4",
                    "midi": 65,
                    "time": 148.5764264833331,
                    "velocity": 0.3464566929133858,
                    "duration": 0.06129952499998126
                },
                {
                    "name": "G4",
                    "midi": 67,
                    "time": 148.63432047916643,
                    "velocity": 0.3543307086614173,
                    "duration": 0.06129952499998126
                },
                {
                    "name": "A4",
                    "midi": 69,
                    "time": 148.69221447499976,
                    "velocity": 0.3543307086614173,
                    "duration": 0.06129952499998126
                },
                {
                    "name": "B4",
                    "midi": 71,
                    "time": 148.75351399999974,
                    "velocity": 0.3543307086614173,
                    "duration": 0.06129952499998126
                },
                {
                    "name": "C5",
                    "midi": 72,
                    "time": 148.81140799583306,
                    "velocity": 0.3543307086614173,
                    "duration": 0.06129952499998126
                },
                {
                    "name": "D5",
                    "midi": 74,
                    "time": 148.8693019916664,
                    "velocity": 0.3543307086614173,
                    "duration": 0.06129952499998126
                },
                {
                    "name": "E5",
                    "midi": 76,
                    "time": 148.92719598749972,
                    "velocity": 0.3543307086614173,
                    "duration": 0.06129952499998126
                },
                {
                    "name": "F5",
                    "midi": 77,
                    "time": 148.98508998333304,
                    "velocity": 0.3700787401574803,
                    "duration": 0.06129952499998126
                },
                {
                    "name": "G5",
                    "midi": 79,
                    "time": 149.04298397916637,
                    "velocity": 0.3700787401574803,
                    "duration": 0.06129952499998126
                },
                {
                    "name": "A5",
                    "midi": 81,
                    "time": 149.1008779749997,
                    "velocity": 0.3779527559055118,
                    "duration": 0.06129952499998126
                },
                {
                    "name": "B5",
                    "midi": 83,
                    "time": 149.16217749999967,
                    "velocity": 0.3700787401574803,
                    "duration": 0.06129952499998126
                },
                {
                    "name": "C6",
                    "midi": 84,
                    "time": 149.220071495833,
                    "velocity": 0.3700787401574803,
                    "duration": 0.06129952499998126
                },
                {
                    "name": "D6",
                    "midi": 86,
                    "time": 149.27796549166632,
                    "velocity": 0.3700787401574803,
                    "duration": 0.06129952499998126
                },
                {
                    "name": "E6",
                    "midi": 88,
                    "time": 149.33585948749965,
                    "velocity": 0.3700787401574803,
                    "duration": 0.06129952499998126
                },
                {
                    "name": "F6",
                    "midi": 89,
                    "time": 149.39375348333297,
                    "velocity": 0.3779527559055118,
                    "duration": 0.06129952499998126
                },
                {
                    "name": "G6",
                    "midi": 91,
                    "time": 149.4516474791663,
                    "velocity": 0.3700787401574803,
                    "duration": 0.06129952499998126
                },
                {
                    "name": "A6",
                    "midi": 93,
                    "time": 149.50954147499962,
                    "velocity": 0.3700787401574803,
                    "duration": 0.06129952499998126
                },
                {
                    "name": "B6",
                    "midi": 95,
                    "time": 149.5708409999996,
                    "velocity": 0.41732283464566927,
                    "duration": 0.20092622083333822
                },
                {
                    "name": "F7",
                    "midi": 101,
                    "time": 149.97950449999962,
                    "velocity": 0.4015748031496063,
                    "duration": 0.09876034583334103
                },
                {
                    "name": "A6",
                    "midi": 93,
                    "time": 149.97950449999962,
                    "velocity": 0.2677165354330709,
                    "duration": 0.09876034583334103
                },
                {
                    "name": "G6",
                    "midi": 91,
                    "time": 150.18383624999962,
                    "velocity": 0.2677165354330709,
                    "duration": 0.09876034583334103
                },
                {
                    "name": "E7",
                    "midi": 100,
                    "time": 150.18383624999962,
                    "velocity": 0.3543307086614173,
                    "duration": 0.09876034583334103
                },
                {
                    "name": "D7",
                    "midi": 98,
                    "time": 150.3881679999996,
                    "velocity": 0.3700787401574803,
                    "duration": 0.06811058333332198
                },
                {
                    "name": "F6",
                    "midi": 89,
                    "time": 150.3881679999996,
                    "velocity": 0.30708661417322836,
                    "duration": 0.8173269999999206
                },
                {
                    "name": "E7",
                    "midi": 100,
                    "time": 150.45627858333293,
                    "velocity": 0.3464566929133858,
                    "duration": 0.06811058333332198
                },
                {
                    "name": "D7",
                    "midi": 98,
                    "time": 150.52438916666625,
                    "velocity": 0.3700787401574803,
                    "duration": 0.06811058333332198
                },
                {
                    "name": "E7",
                    "midi": 100,
                    "time": 150.59249974999958,
                    "velocity": 0.3464566929133858,
                    "duration": 0.06811058333332198
                },
                {
                    "name": "D7",
                    "midi": 98,
                    "time": 150.6606103333329,
                    "velocity": 0.3700787401574803,
                    "duration": 0.06811058333332198
                },
                {
                    "name": "E7",
                    "midi": 100,
                    "time": 150.72872091666622,
                    "velocity": 0.3700787401574803,
                    "duration": 0.06811058333332198
                },
                {
                    "name": "D7",
                    "midi": 98,
                    "time": 150.81385914583288,
                    "velocity": 0.3464566929133858,
                    "duration": 0.08513822916665958
                },
                {
                    "name": "C#7",
                    "midi": 97,
                    "time": 150.89899737499954,
                    "velocity": 0.3543307086614173,
                    "duration": 0.09876034583334103
                },
                {
                    "name": "E7",
                    "midi": 100,
                    "time": 151.00116324999954,
                    "velocity": 0.4015748031496063,
                    "duration": 0.09876034583334103
                },
                {
                    "name": "D7",
                    "midi": 98,
                    "time": 151.10332912499953,
                    "velocity": 0.3700787401574803,
                    "duration": 0.09876034583334103
                },
                {
                    "name": "C7",
                    "midi": 96,
                    "time": 151.20549499999953,
                    "velocity": 0.33858267716535434,
                    "duration": 0.34055291666666676
                },
                {
                    "name": "E6",
                    "midi": 88,
                    "time": 151.20549499999953,
                    "velocity": 0.2755905511811024,
                    "duration": 0.34055291666666676
                },
                {
                    "name": "G6",
                    "midi": 91,
                    "time": 151.61415849999952,
                    "velocity": 0.5118110236220472,
                    "duration": 0.09876034583334103
                },
                {
                    "name": "C7",
                    "midi": 96,
                    "time": 152.02282199999954,
                    "velocity": 0.5748031496062992,
                    "duration": 0.09876034583334103
                },
                {
                    "name": "G4",
                    "midi": 67,
                    "time": 152.43148549999955,
                    "velocity": 0.3543307086614173,
                    "duration": 0.09876034583334103
                },
                {
                    "name": "F4",
                    "midi": 65,
                    "time": 152.53365137499955,
                    "velocity": 0.33858267716535434,
                    "duration": 0.09876034583334103
                },
                {
                    "name": "E4",
                    "midi": 64,
                    "time": 152.63581724999955,
                    "velocity": 0.3543307086614173,
                    "duration": 0.09876034583334103
                },
                {
                    "name": "D4",
                    "midi": 62,
                    "time": 152.73798312499954,
                    "velocity": 0.33858267716535434,
                    "duration": 0.09876034583334103
                },
                {
                    "name": "C4",
                    "midi": 60,
                    "time": 152.84014899999954,
                    "velocity": 0.3937007874015748,
                    "duration": 0.30649762499999156
                },
                {
                    "name": "C6",
                    "midi": 84,
                    "time": 153.24881249999953,
                    "velocity": 0.33858267716535434,
                    "duration": 0.09876034583334103
                },
                {
                    "name": "E6",
                    "midi": 88,
                    "time": 153.35097837499953,
                    "velocity": 0.30708661417322836,
                    "duration": 0.09876034583334103
                },
                {
                    "name": "G6",
                    "midi": 91,
                    "time": 153.45314424999953,
                    "velocity": 0.33858267716535434,
                    "duration": 0.09876034583334103
                },
                {
                    "name": "E6",
                    "midi": 88,
                    "time": 153.55531012499952,
                    "velocity": 0.30708661417322836,
                    "duration": 0.09876034583334103
                },
                {
                    "name": "F6",
                    "midi": 89,
                    "time": 153.65747599999952,
                    "velocity": 0.3543307086614173,
                    "duration": 0.30649762499999156
                },
                {
                    "name": "C5",
                    "midi": 72,
                    "time": 154.0661394999995,
                    "velocity": 0.3543307086614173,
                    "duration": 0.09876034583334103
                },
                {
                    "name": "A#4",
                    "midi": 70,
                    "time": 154.1683053749995,
                    "velocity": 0.33070866141732286,
                    "duration": 0.09876034583334103
                },
                {
                    "name": "A4",
                    "midi": 69,
                    "time": 154.2704712499995,
                    "velocity": 0.3543307086614173,
                    "duration": 0.09876034583334103
                },
                {
                    "name": "G4",
                    "midi": 67,
                    "time": 154.3726371249995,
                    "velocity": 0.33858267716535434,
                    "duration": 0.09876034583334103
                },
                {
                    "name": "F4",
                    "midi": 65,
                    "time": 154.4748029999995,
                    "velocity": 0.3858267716535433,
                    "duration": 0.30649762499999156
                },
                {
                    "name": "F7",
                    "midi": 101,
                    "time": 154.88346649999949,
                    "velocity": 0.4409448818897638,
                    "duration": 0.09876034583334103
                },
                {
                    "name": "A6",
                    "midi": 93,
                    "time": 154.88346649999949,
                    "velocity": 0.4015748031496063,
                    "duration": 0.09876034583334103
                },
                {
                    "name": "D7",
                    "midi": 98,
                    "time": 155.2921299999995,
                    "velocity": 0.49606299212598426,
                    "duration": 0.09876034583334103
                },
                {
                    "name": "F#6",
                    "midi": 90,
                    "time": 155.2921299999995,
                    "velocity": 0.4330708661417323,
                    "duration": 0.09876034583334103
                },
                {
                    "name": "A4",
                    "midi": 69,
                    "time": 155.70079349999952,
                    "velocity": 0.3543307086614173,
                    "duration": 0.09876034583334103
                },
                {
                    "name": "G4",
                    "midi": 67,
                    "time": 155.80295937499952,
                    "velocity": 0.33070866141732286,
                    "duration": 0.09876034583334103
                },
                {
                    "name": "F#4",
                    "midi": 66,
                    "time": 155.90512524999951,
                    "velocity": 0.3543307086614173,
                    "duration": 0.09876034583334103
                },
                {
                    "name": "E4",
                    "midi": 64,
                    "time": 156.0072911249995,
                    "velocity": 0.33858267716535434,
                    "duration": 0.09876034583334103
                },
                {
                    "name": "D4",
                    "midi": 62,
                    "time": 156.1094569999995,
                    "velocity": 0.3858267716535433,
                    "duration": 0.30649762499999156
                },
                {
                    "name": "D6",
                    "midi": 86,
                    "time": 156.5181204999995,
                    "velocity": 0.3858267716535433,
                    "duration": 0.09876034583334103
                },
                {
                    "name": "F#6",
                    "midi": 90,
                    "time": 156.6202863749995,
                    "velocity": 0.4015748031496063,
                    "duration": 0.09876034583334103
                },
                {
                    "name": "A6",
                    "midi": 93,
                    "time": 156.7224522499995,
                    "velocity": 0.41732283464566927,
                    "duration": 0.09876034583334103
                },
                {
                    "name": "F#6",
                    "midi": 90,
                    "time": 156.8246181249995,
                    "velocity": 0.3937007874015748,
                    "duration": 0.09876034583334103
                },
                {
                    "name": "G6",
                    "midi": 91,
                    "time": 156.9267839999995,
                    "velocity": 0.4094488188976378,
                    "duration": 0.30649762499999156
                },
                {
                    "name": "D5",
                    "midi": 74,
                    "time": 157.33544749999947,
                    "velocity": 0.3700787401574803,
                    "duration": 0.09876034583334103
                },
                {
                    "name": "C5",
                    "midi": 72,
                    "time": 157.43761337499947,
                    "velocity": 0.3464566929133858,
                    "duration": 0.09876034583334103
                },
                {
                    "name": "B4",
                    "midi": 71,
                    "time": 157.53977924999947,
                    "velocity": 0.3700787401574803,
                    "duration": 0.09876034583334103
                },
                {
                    "name": "A4",
                    "midi": 69,
                    "time": 157.64194512499947,
                    "velocity": 0.3464566929133858,
                    "duration": 0.09876034583334103
                },
                {
                    "name": "G4",
                    "midi": 67,
                    "time": 157.74411099999946,
                    "velocity": 0.4094488188976378,
                    "duration": 0.30649762499999156
                },
                {
                    "name": "G7",
                    "midi": 103,
                    "time": 158.15277449999945,
                    "velocity": 0.5039370078740157,
                    "duration": 0.09876034583334103
                },
                {
                    "name": "B6",
                    "midi": 95,
                    "time": 158.15277449999945,
                    "velocity": 0.44881889763779526,
                    "duration": 0.09876034583334103
                },
                {
                    "name": "E7",
                    "midi": 100,
                    "time": 158.56143799999947,
                    "velocity": 0.5669291338582677,
                    "duration": 0.09876034583334103
                },
                {
                    "name": "G#6",
                    "midi": 92,
                    "time": 158.56143799999947,
                    "velocity": 0.49606299212598426,
                    "duration": 0.09876034583334103
                },
                {
                    "name": "B4",
                    "midi": 71,
                    "time": 158.9701014999995,
                    "velocity": 0.3937007874015748,
                    "duration": 0.09876034583334103
                },
                {
                    "name": "A4",
                    "midi": 69,
                    "time": 159.07226737499948,
                    "velocity": 0.3700787401574803,
                    "duration": 0.09876034583334103
                },
                {
                    "name": "G#4",
                    "midi": 68,
                    "time": 159.17443324999948,
                    "velocity": 0.3937007874015748,
                    "duration": 0.09876034583334103
                },
                {
                    "name": "F#4",
                    "midi": 66,
                    "time": 159.27659912499948,
                    "velocity": 0.36220472440944884,
                    "duration": 0.09876034583334103
                },
                {
                    "name": "E4",
                    "midi": 64,
                    "time": 159.37876499999948,
                    "velocity": 0.4251968503937008,
                    "duration": 0.30649762499999156
                },
                {
                    "name": "E6",
                    "midi": 88,
                    "time": 159.78742849999946,
                    "velocity": 0.4251968503937008,
                    "duration": 0.09876034583334103
                },
                {
                    "name": "G#6",
                    "midi": 92,
                    "time": 159.88959437499946,
                    "velocity": 0.4251968503937008,
                    "duration": 0.09876034583334103
                },
                {
                    "name": "B6",
                    "midi": 95,
                    "time": 159.99176024999946,
                    "velocity": 0.4409448818897638,
                    "duration": 0.09876034583334103
                },
                {
                    "name": "G#6",
                    "midi": 92,
                    "time": 160.09392612499946,
                    "velocity": 0.41732283464566927,
                    "duration": 0.09876034583334103
                },
                {
                    "name": "A6",
                    "midi": 93,
                    "time": 160.19609199999945,
                    "velocity": 0.4409448818897638,
                    "duration": 0.30649762499999156
                },
                {
                    "name": "E5",
                    "midi": 76,
                    "time": 160.60475549999944,
                    "velocity": 0.4094488188976378,
                    "duration": 0.09876034583334103
                },
                {
                    "name": "D5",
                    "midi": 74,
                    "time": 160.70692137499944,
                    "velocity": 0.3858267716535433,
                    "duration": 0.09876034583334103
                },
                {
                    "name": "C5",
                    "midi": 72,
                    "time": 160.80908724999944,
                    "velocity": 0.4015748031496063,
                    "duration": 0.09876034583334103
                },
                {
                    "name": "B4",
                    "midi": 71,
                    "time": 160.91125312499943,
                    "velocity": 0.3700787401574803,
                    "duration": 0.09876034583334103
                },
                {
                    "name": "A4",
                    "midi": 69,
                    "time": 161.01341899999943,
                    "velocity": 0.4251968503937008,
                    "duration": 0.30649762499999156
                },
                {
                    "name": "E5",
                    "midi": 76,
                    "time": 161.42208249999942,
                    "velocity": 0.4015748031496063,
                    "duration": 0.09876034583334103
                },
                {
                    "name": "C5",
                    "midi": 72,
                    "time": 161.52424837499942,
                    "velocity": 0.3700787401574803,
                    "duration": 0.09876034583334103
                },
                {
                    "name": "A4",
                    "midi": 69,
                    "time": 161.6264142499994,
                    "velocity": 0.4015748031496063,
                    "duration": 0.09876034583334103
                },
                {
                    "name": "G4",
                    "midi": 67,
                    "time": 161.7285801249994,
                    "velocity": 0.3700787401574803,
                    "duration": 0.09876034583334103
                },
                {
                    "name": "F4",
                    "midi": 65,
                    "time": 161.8307459999994,
                    "velocity": 0.4251968503937008,
                    "duration": 0.30649762499999156
                },
                {
                    "name": "F6",
                    "midi": 89,
                    "time": 162.2394094999994,
                    "velocity": 0.3937007874015748,
                    "duration": 0.09876034583334103
                },
                {
                    "name": "A6",
                    "midi": 93,
                    "time": 162.3415753749994,
                    "velocity": 0.3700787401574803,
                    "duration": 0.09876034583334103
                },
                {
                    "name": "C7",
                    "midi": 96,
                    "time": 162.4437412499994,
                    "velocity": 0.3937007874015748,
                    "duration": 0.09876034583334103
                },
                {
                    "name": "A6",
                    "midi": 93,
                    "time": 162.5459071249994,
                    "velocity": 0.36220472440944884,
                    "duration": 0.09876034583334103
                },
                {
                    "name": "F6",
                    "midi": 89,
                    "time": 162.64807299999939,
                    "velocity": 0.4251968503937008,
                    "duration": 0.30649762499999156
                },
                {
                    "name": "F5",
                    "midi": 77,
                    "time": 163.05673649999937,
                    "velocity": 0.3700787401574803,
                    "duration": 0.09876034583334103
                },
                {
                    "name": "C5",
                    "midi": 72,
                    "time": 163.15890237499937,
                    "velocity": 0.33858267716535434,
                    "duration": 0.09876034583334103
                },
                {
                    "name": "A4",
                    "midi": 69,
                    "time": 163.26106824999937,
                    "velocity": 0.3700787401574803,
                    "duration": 0.09876034583334103
                },
                {
                    "name": "F4",
                    "midi": 65,
                    "time": 163.36323412499937,
                    "velocity": 0.3543307086614173,
                    "duration": 0.09876034583334103
                },
                {
                    "name": "E4",
                    "midi": 64,
                    "time": 163.46539999999936,
                    "velocity": 0.4251968503937008,
                    "duration": 0.30649762499999156
                },
                {
                    "name": "E6",
                    "midi": 88,
                    "time": 163.87406349999935,
                    "velocity": 0.3543307086614173,
                    "duration": 0.09876034583334103
                },
                {
                    "name": "A6",
                    "midi": 93,
                    "time": 163.97622937499935,
                    "velocity": 0.3228346456692913,
                    "duration": 0.09876034583334103
                },
                {
                    "name": "C7",
                    "midi": 96,
                    "time": 164.07839524999935,
                    "velocity": 0.3543307086614173,
                    "duration": 0.09876034583334103
                },
                {
                    "name": "A6",
                    "midi": 93,
                    "time": 164.18056112499934,
                    "velocity": 0.33070866141732286,
                    "duration": 0.09876034583334103
                },
                {
                    "name": "E6",
                    "midi": 88,
                    "time": 164.28272699999934,
                    "velocity": 0.3858267716535433,
                    "duration": 0.30649762499999156
                },
                {
                    "name": "E5",
                    "midi": 76,
                    "time": 164.69139049999933,
                    "velocity": 0.3543307086614173,
                    "duration": 0.09876034583334103
                },
                {
                    "name": "C5",
                    "midi": 72,
                    "time": 164.79355637499933,
                    "velocity": 0.33070866141732286,
                    "duration": 0.09876034583334103
                },
                {
                    "name": "A4",
                    "midi": 69,
                    "time": 164.89572224999932,
                    "velocity": 0.3543307086614173,
                    "duration": 0.09876034583334103
                },
                {
                    "name": "E4",
                    "midi": 64,
                    "time": 164.99788812499932,
                    "velocity": 0.33070866141732286,
                    "duration": 0.09876034583334103
                },
                {
                    "name": "D#4",
                    "midi": 63,
                    "time": 165.10005399999932,
                    "velocity": 0.3700787401574803,
                    "duration": 0.30649762499999156
                },
                {
                    "name": "D#6",
                    "midi": 87,
                    "time": 165.5087174999993,
                    "velocity": 0.3464566929133858,
                    "duration": 0.09876034583334103
                },
                {
                    "name": "A6",
                    "midi": 93,
                    "time": 165.6108833749993,
                    "velocity": 0.3228346456692913,
                    "duration": 0.09876034583334103
                },
                {
                    "name": "C7",
                    "midi": 96,
                    "time": 165.7130492499993,
                    "velocity": 0.3464566929133858,
                    "duration": 0.09876034583334103
                },
                {
                    "name": "A6",
                    "midi": 93,
                    "time": 165.8152151249993,
                    "velocity": 0.31496062992125984,
                    "duration": 0.09876034583334103
                },
                {
                    "name": "D#6",
                    "midi": 87,
                    "time": 165.9173809999993,
                    "velocity": 0.3543307086614173,
                    "duration": 0.30649762499999156
                },
                {
                    "name": "D#5",
                    "midi": 75,
                    "time": 166.32604449999928,
                    "velocity": 0.3543307086614173,
                    "duration": 0.09876034583334103
                },
                {
                    "name": "C5",
                    "midi": 72,
                    "time": 166.42821037499928,
                    "velocity": 0.3228346456692913,
                    "duration": 0.09876034583334103
                },
                {
                    "name": "A4",
                    "midi": 69,
                    "time": 166.53037624999928,
                    "velocity": 0.3543307086614173,
                    "duration": 0.09876034583334103
                },
                {
                    "name": "F#4",
                    "midi": 66,
                    "time": 166.63254212499928,
                    "velocity": 0.33070866141732286,
                    "duration": 0.09876034583334103
                },
                {
                    "name": "E4",
                    "midi": 64,
                    "time": 166.73470799999927,
                    "velocity": 0.3937007874015748,
                    "duration": 0.30649762499999156
                },
                {
                    "name": "E6",
                    "midi": 88,
                    "time": 167.14337149999926,
                    "velocity": 0.3464566929133858,
                    "duration": 0.09876034583334103
                },
                {
                    "name": "G6",
                    "midi": 91,
                    "time": 167.24553737499926,
                    "velocity": 0.31496062992125984,
                    "duration": 0.09876034583334103
                },
                {
                    "name": "B6",
                    "midi": 95,
                    "time": 167.34770324999926,
                    "velocity": 0.3464566929133858,
                    "duration": 0.09876034583334103
                },
                {
                    "name": "G6",
                    "midi": 91,
                    "time": 167.44986912499925,
                    "velocity": 0.31496062992125984,
                    "duration": 0.09876034583334103
                },
                {
                    "name": "E6",
                    "midi": 88,
                    "time": 167.55203499999925,
                    "velocity": 0.36220472440944884,
                    "duration": 0.30649762499999156
                },
                {
                    "name": "B4",
                    "midi": 71,
                    "time": 167.96069849999924,
                    "velocity": 0.36220472440944884,
                    "duration": 0.09876034583334103
                },
                {
                    "name": "G4",
                    "midi": 67,
                    "time": 168.06286437499924,
                    "velocity": 0.33858267716535434,
                    "duration": 0.09876034583334103
                },
                {
                    "name": "E4",
                    "midi": 64,
                    "time": 168.16503024999923,
                    "velocity": 0.36220472440944884,
                    "duration": 0.09876034583334103
                },
                {
                    "name": "D4",
                    "midi": 62,
                    "time": 168.26719612499923,
                    "velocity": 0.33858267716535434,
                    "duration": 0.09876034583334103
                },
                {
                    "name": "C4",
                    "midi": 60,
                    "time": 168.36936199999923,
                    "velocity": 0.4015748031496063,
                    "duration": 0.30649762499999156
                },
                {
                    "name": "C6",
                    "midi": 84,
                    "time": 168.77802549999922,
                    "velocity": 0.33858267716535434,
                    "duration": 0.40866349999998874
                },
                {
                    "name": "E6",
                    "midi": 88,
                    "time": 168.77802549999922,
                    "velocity": 0.3858267716535433,
                    "duration": 0.09876034583334103
                },
                {
                    "name": "G6",
                    "midi": 91,
                    "time": 168.8801913749992,
                    "velocity": 0.3543307086614173,
                    "duration": 0.09876034583334103
                },
                {
                    "name": "C7",
                    "midi": 96,
                    "time": 168.9823572499992,
                    "velocity": 0.3858267716535433,
                    "duration": 0.09876034583334103
                },
                {
                    "name": "G6",
                    "midi": 91,
                    "time": 169.0845231249992,
                    "velocity": 0.3543307086614173,
                    "duration": 0.09876034583334103
                },
                {
                    "name": "C6",
                    "midi": 84,
                    "time": 169.1866889999992,
                    "velocity": 0.33858267716535434,
                    "duration": 0.20092622083333822
                },
                {
                    "name": "E6",
                    "midi": 88,
                    "time": 169.1866889999992,
                    "velocity": 0.4094488188976378,
                    "duration": 0.20092622083333822
                },
                {
                    "name": "C5",
                    "midi": 72,
                    "time": 169.59535249999922,
                    "velocity": 0.3858267716535433,
                    "duration": 0.09876034583334103
                },
                {
                    "name": "G4",
                    "midi": 67,
                    "time": 169.69751837499922,
                    "velocity": 0.3543307086614173,
                    "duration": 0.09876034583334103
                },
                {
                    "name": "E4",
                    "midi": 64,
                    "time": 169.79968424999922,
                    "velocity": 0.3858267716535433,
                    "duration": 0.09876034583334103
                },
                {
                    "name": "C4",
                    "midi": 60,
                    "time": 169.9018501249992,
                    "velocity": 0.3543307086614173,
                    "duration": 0.09876034583334103
                },
                {
                    "name": "B3",
                    "midi": 59,
                    "time": 170.0040159999992,
                    "velocity": 0.41732283464566927,
                    "duration": 0.30649762499999156
                },
                {
                    "name": "B5",
                    "midi": 83,
                    "time": 170.4126794999992,
                    "velocity": 0.33858267716535434,
                    "duration": 0.40866349999998874
                },
                {
                    "name": "E6",
                    "midi": 88,
                    "time": 170.4126794999992,
                    "velocity": 0.3858267716535433,
                    "duration": 0.09876034583334103
                },
                {
                    "name": "G6",
                    "midi": 91,
                    "time": 170.5148453749992,
                    "velocity": 0.3543307086614173,
                    "duration": 0.09876034583334103
                },
                {
                    "name": "B6",
                    "midi": 95,
                    "time": 170.6170112499992,
                    "velocity": 0.3858267716535433,
                    "duration": 0.09876034583334103
                },
                {
                    "name": "G6",
                    "midi": 91,
                    "time": 170.7191771249992,
                    "velocity": 0.3543307086614173,
                    "duration": 0.09876034583334103
                },
                {
                    "name": "B5",
                    "midi": 83,
                    "time": 170.8213429999992,
                    "velocity": 0.33858267716535434,
                    "duration": 0.20092622083333822
                },
                {
                    "name": "E6",
                    "midi": 88,
                    "time": 170.8213429999992,
                    "velocity": 0.4015748031496063,
                    "duration": 0.20092622083333822
                },
                {
                    "name": "B4",
                    "midi": 71,
                    "time": 171.2300064999992,
                    "velocity": 0.3937007874015748,
                    "duration": 0.09876034583334103
                },
                {
                    "name": "G4",
                    "midi": 67,
                    "time": 171.3321723749992,
                    "velocity": 0.3543307086614173,
                    "duration": 0.09876034583334103
                },
                {
                    "name": "E4",
                    "midi": 64,
                    "time": 171.4343382499992,
                    "velocity": 0.3937007874015748,
                    "duration": 0.09876034583334103
                },
                {
                    "name": "B3",
                    "midi": 59,
                    "time": 171.5365041249992,
                    "velocity": 0.36220472440944884,
                    "duration": 0.09876034583334103
                },
                {
                    "name": "A#3",
                    "midi": 58,
                    "time": 171.6386699999992,
                    "velocity": 0.4251968503937008,
                    "duration": 0.30649762499999156
                },
                {
                    "name": "A#5",
                    "midi": 82,
                    "time": 172.04733349999918,
                    "velocity": 0.41732283464566927,
                    "duration": 0.40866349999998874
                },
                {
                    "name": "E6",
                    "midi": 88,
                    "time": 172.04733349999918,
                    "velocity": 0.41732283464566927,
                    "duration": 0.09876034583334103
                },
                {
                    "name": "G6",
                    "midi": 91,
                    "time": 172.14949937499918,
                    "velocity": 0.3858267716535433,
                    "duration": 0.09876034583334103
                },
                {
                    "name": "A#6",
                    "midi": 94,
                    "time": 172.25166524999918,
                    "velocity": 0.41732283464566927,
                    "duration": 0.09876034583334103
                },
                {
                    "name": "G6",
                    "midi": 91,
                    "time": 172.35383112499918,
                    "velocity": 0.3858267716535433,
                    "duration": 0.09876034583334103
                },
                {
                    "name": "A#5",
                    "midi": 82,
                    "time": 172.45599699999917,
                    "velocity": 0.4409448818897638,
                    "duration": 0.20092622083333822
                },
                {
                    "name": "E6",
                    "midi": 88,
                    "time": 172.45599699999917,
                    "velocity": 0.4409448818897638,
                    "duration": 0.20092622083333822
                },
                {
                    "name": "A#4",
                    "midi": 70,
                    "time": 172.8646604999992,
                    "velocity": 0.4015748031496063,
                    "duration": 0.09876034583334103
                },
                {
                    "name": "G4",
                    "midi": 67,
                    "time": 172.9668263749992,
                    "velocity": 0.3700787401574803,
                    "duration": 0.09876034583334103
                },
                {
                    "name": "E4",
                    "midi": 64,
                    "time": 173.06899224999918,
                    "velocity": 0.4015748031496063,
                    "duration": 0.09876034583334103
                },
                {
                    "name": "C#4",
                    "midi": 61,
                    "time": 173.17115812499918,
                    "velocity": 0.3700787401574803,
                    "duration": 0.09876034583334103
                },
                {
                    "name": "B3",
                    "midi": 59,
                    "time": 173.27332399999918,
                    "velocity": 0.4251968503937008,
                    "duration": 0.30649762499999156
                },
                {
                    "name": "D#6",
                    "midi": 87,
                    "time": 173.68198749999917,
                    "velocity": 0.3937007874015748,
                    "duration": 0.09876034583334103
                },
                {
                    "name": "B6",
                    "midi": 95,
                    "time": 173.78415337499916,
                    "velocity": 0.36220472440944884,
                    "duration": 0.09876034583334103
                },
                {
                    "name": "F#6",
                    "midi": 90,
                    "time": 173.88631924999916,
                    "velocity": 0.3937007874015748,
                    "duration": 0.09876034583334103
                },
                {
                    "name": "D#6",
                    "midi": 87,
                    "time": 173.98848512499916,
                    "velocity": 0.3543307086614173,
                    "duration": 0.09876034583334103
                },
                {
                    "name": "B5",
                    "midi": 83,
                    "time": 174.09065099999916,
                    "velocity": 0.41732283464566927,
                    "duration": 0.0936520520833426
                },
                {
                    "name": "A5",
                    "midi": 81,
                    "time": 174.49931449999917,
                    "velocity": 0.3937007874015748,
                    "duration": 0.09876034583334103
                },
                {
                    "name": "B5",
                    "midi": 83,
                    "time": 174.60148037499917,
                    "velocity": 0.36220472440944884,
                    "duration": 0.09876034583334103
                },
                {
                    "name": "A5",
                    "midi": 81,
                    "time": 174.70364624999917,
                    "velocity": 0.3937007874015748,
                    "duration": 0.09876034583334103
                },
                {
                    "name": "F#5",
                    "midi": 78,
                    "time": 174.80581212499916,
                    "velocity": 0.3700787401574803,
                    "duration": 0.09876034583334103
                },
                {
                    "name": "E5",
                    "midi": 76,
                    "time": 174.90797799999916,
                    "velocity": 0.41732283464566927,
                    "duration": 0.0936520520833426
                },
                {
                    "name": "E5",
                    "midi": 76,
                    "time": 175.31664149999918,
                    "velocity": 0.41732283464566927,
                    "duration": 0.09876034583334103
                },
                {
                    "name": "G5",
                    "midi": 79,
                    "time": 175.41880737499918,
                    "velocity": 0.3700787401574803,
                    "duration": 0.09876034583334103
                },
                {
                    "name": "E5",
                    "midi": 76,
                    "time": 175.52097324999917,
                    "velocity": 0.3937007874015748,
                    "duration": 0.09876034583334103
                },
                {
                    "name": "D5",
                    "midi": 74,
                    "time": 175.62313912499917,
                    "velocity": 0.3700787401574803,
                    "duration": 0.09876034583334103
                },
                {
                    "name": "C5",
                    "midi": 72,
                    "time": 175.72530499999917,
                    "velocity": 0.4251968503937008,
                    "duration": 0.0936520520833426
                },
                {
                    "name": "C5",
                    "midi": 72,
                    "time": 176.13396849999918,
                    "velocity": 0.4251968503937008,
                    "duration": 0.09876034583334103
                },
                {
                    "name": "E5",
                    "midi": 76,
                    "time": 176.23613437499918,
                    "velocity": 0.3858267716535433,
                    "duration": 0.09876034583334103
                },
                {
                    "name": "C5",
                    "midi": 72,
                    "time": 176.33830024999918,
                    "velocity": 0.4094488188976378,
                    "duration": 0.09876034583334103
                },
                {
                    "name": "A#4",
                    "midi": 70,
                    "time": 176.44046612499918,
                    "velocity": 0.3937007874015748,
                    "duration": 0.09876034583334103
                },
                {
                    "name": "B4",
                    "midi": 71,
                    "time": 176.54263199999917,
                    "velocity": 0.4251968503937008,
                    "duration": 0.0936520520833426
                },
                {
                    "name": "D#5",
                    "midi": 75,
                    "time": 176.9512954999992,
                    "velocity": 0.4251968503937008,
                    "duration": 0.09876034583334103
                },
                {
                    "name": "B5",
                    "midi": 83,
                    "time": 177.0534613749992,
                    "velocity": 0.3937007874015748,
                    "duration": 0.09876034583334103
                },
                {
                    "name": "F#5",
                    "midi": 78,
                    "time": 177.15562724999918,
                    "velocity": 0.41732283464566927,
                    "duration": 0.09876034583334103
                },
                {
                    "name": "D#5",
                    "midi": 75,
                    "time": 177.25779312499918,
                    "velocity": 0.3937007874015748,
                    "duration": 0.09876034583334103
                },
                {
                    "name": "B4",
                    "midi": 71,
                    "time": 177.35995899999918,
                    "velocity": 0.4330708661417323,
                    "duration": 0.0936520520833426
                },
                {
                    "name": "A4",
                    "midi": 69,
                    "time": 177.7686224999992,
                    "velocity": 0.44881889763779526,
                    "duration": 0.09876034583334103
                },
                {
                    "name": "B4",
                    "midi": 71,
                    "time": 177.8707883749992,
                    "velocity": 0.4094488188976378,
                    "duration": 0.09876034583334103
                },
                {
                    "name": "A4",
                    "midi": 69,
                    "time": 177.9729542499992,
                    "velocity": 0.4330708661417323,
                    "duration": 0.09876034583334103
                },
                {
                    "name": "F#4",
                    "midi": 66,
                    "time": 178.0751201249992,
                    "velocity": 0.4251968503937008,
                    "duration": 0.09876034583334103
                },
                {
                    "name": "E4",
                    "midi": 64,
                    "time": 178.17728599999919,
                    "velocity": 0.49606299212598426,
                    "duration": 0.0936520520833426
                },
                {
                    "name": "E4",
                    "midi": 64,
                    "time": 178.5859494999992,
                    "velocity": 0.49606299212598426,
                    "duration": 0.09876034583334103
                },
                {
                    "name": "G4",
                    "midi": 67,
                    "time": 178.6881153749992,
                    "velocity": 0.4330708661417323,
                    "duration": 0.09876034583334103
                },
                {
                    "name": "E4",
                    "midi": 64,
                    "time": 178.7902812499992,
                    "velocity": 0.47244094488188976,
                    "duration": 0.09876034583334103
                },
                {
                    "name": "D4",
                    "midi": 62,
                    "time": 178.8924471249992,
                    "velocity": 0.4251968503937008,
                    "duration": 0.09876034583334103
                },
                {
                    "name": "C4",
                    "midi": 60,
                    "time": 178.9946129999992,
                    "velocity": 0.5039370078740157,
                    "duration": 0.0936520520833426
                },
                {
                    "name": "C4",
                    "midi": 60,
                    "time": 179.4032764999992,
                    "velocity": 0.49606299212598426,
                    "duration": 0.09876034583334103
                },
                {
                    "name": "E4",
                    "midi": 64,
                    "time": 179.5054423749992,
                    "velocity": 0.4330708661417323,
                    "duration": 0.09876034583334103
                },
                {
                    "name": "C4",
                    "midi": 60,
                    "time": 179.6076082499992,
                    "velocity": 0.47244094488188976,
                    "duration": 0.09876034583334103
                },
                {
                    "name": "A#3",
                    "midi": 58,
                    "time": 179.7097741249992,
                    "velocity": 0.4330708661417323,
                    "duration": 0.09876034583334103
                },
                {
                    "name": "B3",
                    "midi": 59,
                    "time": 179.8119399999992,
                    "velocity": 0.5118110236220472,
                    "duration": 0.5278570208333235
                },
                {
                    "name": "D#4",
                    "midi": 63,
                    "time": 180.32276937499918,
                    "velocity": 0.4330708661417323,
                    "duration": 0.11919352083333479
                },
                {
                    "name": "F#4",
                    "midi": 66,
                    "time": 180.42493524999918,
                    "velocity": 0.4409448818897638,
                    "duration": 0.11919352083333479
                },
                {
                    "name": "A#4",
                    "midi": 70,
                    "time": 180.52710112499918,
                    "velocity": 0.44881889763779526,
                    "duration": 0.10216587499999719
                },
                {
                    "name": "B4",
                    "midi": 71,
                    "time": 180.62926699999917,
                    "velocity": 0.4645669291338583,
                    "duration": 0.11919352083333479
                },
                {
                    "name": "D#5",
                    "midi": 75,
                    "time": 180.73143287499917,
                    "velocity": 0.47244094488188976,
                    "duration": 0.11919352083333479
                },
                {
                    "name": "F#5",
                    "midi": 78,
                    "time": 180.83359874999917,
                    "velocity": 0.48031496062992124,
                    "duration": 0.11919352083333479
                },
                {
                    "name": "A#5",
                    "midi": 82,
                    "time": 180.93576462499917,
                    "velocity": 0.4881889763779528,
                    "duration": 0.10216587499999719
                },
                {
                    "name": "B5",
                    "midi": 83,
                    "time": 181.03793049999916,
                    "velocity": 0.49606299212598426,
                    "duration": 0.11919352083333479
                },
                {
                    "name": "D#6",
                    "midi": 87,
                    "time": 181.14009637499916,
                    "velocity": 0.49606299212598426,
                    "duration": 0.11919352083333479
                },
                {
                    "name": "F#6",
                    "midi": 90,
                    "time": 181.24226224999916,
                    "velocity": 0.5118110236220472,
                    "duration": 0.11919352083333479
                },
                {
                    "name": "A#6",
                    "midi": 94,
                    "time": 181.34442812499915,
                    "velocity": 0.5275590551181102,
                    "duration": 0.10216587499999719
                },
                {
                    "name": "B6",
                    "midi": 95,
                    "time": 181.44659399999915,
                    "velocity": 0.5433070866141733,
                    "duration": 0.30649762499999156
                },
                {
                    "name": "G#6",
                    "midi": 92,
                    "time": 182.67258449999915,
                    "velocity": 0.29133858267716534,
                    "duration": 0.20092622083333822
                },
                {
                    "name": "B6",
                    "midi": 95,
                    "time": 182.67258449999915,
                    "velocity": 0.33858267716535434,
                    "duration": 0.20092622083333822
                },
                {
                    "name": "F#6",
                    "midi": 90,
                    "time": 182.87691624999914,
                    "velocity": 0.2677165354330709,
                    "duration": 0.20092622083333822
                },
                {
                    "name": "A6",
                    "midi": 93,
                    "time": 182.87691624999914,
                    "velocity": 0.29133858267716534,
                    "duration": 0.20092622083333822
                },
                {
                    "name": "E6",
                    "midi": 88,
                    "time": 183.08124799999914,
                    "velocity": 0.33070866141732286,
                    "duration": 0.37460820833334196
                },
                {
                    "name": "G#6",
                    "midi": 92,
                    "time": 183.08124799999914,
                    "velocity": 0.36220472440944884,
                    "duration": 0.37460820833334196
                },
                {
                    "name": "E6",
                    "midi": 88,
                    "time": 183.48991149999915,
                    "velocity": 0.2677165354330709,
                    "duration": 0.20092622083333822
                },
                {
                    "name": "G#6",
                    "midi": 92,
                    "time": 183.48991149999915,
                    "velocity": 0.29133858267716534,
                    "duration": 0.20092622083333822
                },
                {
                    "name": "B5",
                    "midi": 83,
                    "time": 183.69424324999915,
                    "velocity": 0.2440944881889764,
                    "duration": 0.20092622083333822
                },
                {
                    "name": "F#6",
                    "midi": 90,
                    "time": 183.69424324999915,
                    "velocity": 0.2755905511811024,
                    "duration": 0.20092622083333822
                },
                {
                    "name": "G#5",
                    "midi": 80,
                    "time": 183.89857499999914,
                    "velocity": 0.28346456692913385,
                    "duration": 0.37460820833334196
                },
                {
                    "name": "E6",
                    "midi": 88,
                    "time": 183.89857499999914,
                    "velocity": 0.3228346456692913,
                    "duration": 0.37460820833334196
                },
                {
                    "name": "B5",
                    "midi": 83,
                    "time": 184.30723849999916,
                    "velocity": 0.33070866141732286,
                    "duration": 0.20092622083333822
                },
                {
                    "name": "G#5",
                    "midi": 80,
                    "time": 184.30723849999916,
                    "velocity": 0.28346456692913385,
                    "duration": 0.20092622083333822
                },
                {
                    "name": "F#5",
                    "midi": 78,
                    "time": 184.51157024999915,
                    "velocity": 0.25984251968503935,
                    "duration": 0.20092622083333822
                },
                {
                    "name": "A5",
                    "midi": 81,
                    "time": 184.51157024999915,
                    "velocity": 0.28346456692913385,
                    "duration": 0.20092622083333822
                },
                {
                    "name": "E5",
                    "midi": 76,
                    "time": 184.71590199999915,
                    "velocity": 0.31496062992125984,
                    "duration": 0.37460820833334196
                },
                {
                    "name": "G#5",
                    "midi": 80,
                    "time": 184.71590199999915,
                    "velocity": 0.3543307086614173,
                    "duration": 0.37460820833334196
                },
                {
                    "name": "E5",
                    "midi": 76,
                    "time": 185.12456549999916,
                    "velocity": 0.2677165354330709,
                    "duration": 0.20092622083333822
                },
                {
                    "name": "G#5",
                    "midi": 80,
                    "time": 185.12456549999916,
                    "velocity": 0.29133858267716534,
                    "duration": 0.20092622083333822
                },
                {
                    "name": "B4",
                    "midi": 71,
                    "time": 185.32889724999916,
                    "velocity": 0.2440944881889764,
                    "duration": 0.20092622083333822
                },
                {
                    "name": "F#5",
                    "midi": 78,
                    "time": 185.32889724999916,
                    "velocity": 0.2755905511811024,
                    "duration": 0.20092622083333822
                },
                {
                    "name": "G#4",
                    "midi": 68,
                    "time": 185.53322899999915,
                    "velocity": 0.28346456692913385,
                    "duration": 0.37460820833334196
                },
                {
                    "name": "E5",
                    "midi": 76,
                    "time": 185.53322899999915,
                    "velocity": 0.33070866141732286,
                    "duration": 0.37460820833334196
                },
                {
                    "name": "G#4",
                    "midi": 68,
                    "time": 185.94189249999917,
                    "velocity": 0.28346456692913385,
                    "duration": 0.20092622083333822
                },
                {
                    "name": "E5",
                    "midi": 76,
                    "time": 185.94189249999917,
                    "velocity": 0.33070866141732286,
                    "duration": 0.20092622083333822
                },
                {
                    "name": "B4",
                    "midi": 71,
                    "time": 186.14622424999916,
                    "velocity": 0.25984251968503935,
                    "duration": 0.20092622083333822
                },
                {
                    "name": "F#5",
                    "midi": 78,
                    "time": 186.14622424999916,
                    "velocity": 0.28346456692913385,
                    "duration": 0.20092622083333822
                },
                {
                    "name": "E5",
                    "midi": 76,
                    "time": 186.35055599999916,
                    "velocity": 0.31496062992125984,
                    "duration": 0.37460820833334196
                },
                {
                    "name": "G#5",
                    "midi": 80,
                    "time": 186.35055599999916,
                    "velocity": 0.3543307086614173,
                    "duration": 0.37460820833334196
                },
                {
                    "name": "B4",
                    "midi": 71,
                    "time": 186.75921949999918,
                    "velocity": 0.29133858267716534,
                    "duration": 0.20092622083333822
                },
                {
                    "name": "F#5",
                    "midi": 78,
                    "time": 186.75921949999918,
                    "velocity": 0.33858267716535434,
                    "duration": 0.20092622083333822
                },
                {
                    "name": "E5",
                    "midi": 76,
                    "time": 186.96355124999917,
                    "velocity": 0.2755905511811024,
                    "duration": 0.20092622083333822
                },
                {
                    "name": "G#5",
                    "midi": 80,
                    "time": 186.96355124999917,
                    "velocity": 0.30708661417322836,
                    "duration": 0.20092622083333822
                },
                {
                    "name": "F#5",
                    "midi": 78,
                    "time": 187.16788299999916,
                    "velocity": 0.33858267716535434,
                    "duration": 0.37460820833334196
                },
                {
                    "name": "A5",
                    "midi": 81,
                    "time": 187.16788299999916,
                    "velocity": 0.3700787401574803,
                    "duration": 0.37460820833334196
                },
                {
                    "name": "B4",
                    "midi": 71,
                    "time": 187.57654649999918,
                    "velocity": 0.31496062992125984,
                    "duration": 0.20092622083333822
                },
                {
                    "name": "F#5",
                    "midi": 78,
                    "time": 187.57654649999918,
                    "velocity": 0.3543307086614173,
                    "duration": 0.20092622083333822
                },
                {
                    "name": "F#5",
                    "midi": 78,
                    "time": 187.78087824999918,
                    "velocity": 0.28346456692913385,
                    "duration": 0.20092622083333822
                },
                {
                    "name": "A5",
                    "midi": 81,
                    "time": 187.78087824999918,
                    "velocity": 0.3228346456692913,
                    "duration": 0.20092622083333822
                },
                {
                    "name": "G#5",
                    "midi": 80,
                    "time": 187.98520999999917,
                    "velocity": 0.3464566929133858,
                    "duration": 0.37460820833334196
                },
                {
                    "name": "B5",
                    "midi": 83,
                    "time": 187.98520999999917,
                    "velocity": 0.3937007874015748,
                    "duration": 0.37460820833334196
                },
                {
                    "name": "F#5",
                    "midi": 78,
                    "time": 188.3938734999992,
                    "velocity": 0.2755905511811024,
                    "duration": 0.20092622083333822
                },
                {
                    "name": "A5",
                    "midi": 81,
                    "time": 188.3938734999992,
                    "velocity": 0.30708661417322836,
                    "duration": 0.20092622083333822
                },
                {
                    "name": "E5",
                    "midi": 76,
                    "time": 188.59820524999918,
                    "velocity": 0.2440944881889764,
                    "duration": 0.20092622083333822
                },
                {
                    "name": "G#5",
                    "midi": 80,
                    "time": 188.59820524999918,
                    "velocity": 0.2755905511811024,
                    "duration": 0.20092622083333822
                },
                {
                    "name": "B4",
                    "midi": 71,
                    "time": 188.80253699999918,
                    "velocity": 0.30708661417322836,
                    "duration": 0.37460820833334196
                },
                {
                    "name": "F#5",
                    "midi": 78,
                    "time": 188.80253699999918,
                    "velocity": 0.3464566929133858,
                    "duration": 0.37460820833334196
                },
                {
                    "name": "G#6",
                    "midi": 92,
                    "time": 189.2112004999992,
                    "velocity": 0.29133858267716534,
                    "duration": 0.20092622083333822
                },
                {
                    "name": "B6",
                    "midi": 95,
                    "time": 189.2112004999992,
                    "velocity": 0.33858267716535434,
                    "duration": 0.20092622083333822
                },
                {
                    "name": "F#6",
                    "midi": 90,
                    "time": 189.4155322499992,
                    "velocity": 0.2755905511811024,
                    "duration": 0.20092622083333822
                },
                {
                    "name": "A6",
                    "midi": 93,
                    "time": 189.4155322499992,
                    "velocity": 0.30708661417322836,
                    "duration": 0.20092622083333822
                },
                {
                    "name": "E6",
                    "midi": 88,
                    "time": 189.61986399999918,
                    "velocity": 0.33070866141732286,
                    "duration": 0.37460820833334196
                },
                {
                    "name": "G#6",
                    "midi": 92,
                    "time": 189.61986399999918,
                    "velocity": 0.36220472440944884,
                    "duration": 0.37460820833334196
                },
                {
                    "name": "E6",
                    "midi": 88,
                    "time": 190.0285274999992,
                    "velocity": 0.2677165354330709,
                    "duration": 0.20092622083333822
                },
                {
                    "name": "G#6",
                    "midi": 92,
                    "time": 190.0285274999992,
                    "velocity": 0.29133858267716534,
                    "duration": 0.20092622083333822
                },
                {
                    "name": "B5",
                    "midi": 83,
                    "time": 190.2328592499992,
                    "velocity": 0.23622047244094488,
                    "duration": 0.20092622083333822
                },
                {
                    "name": "F#6",
                    "midi": 90,
                    "time": 190.2328592499992,
                    "velocity": 0.2677165354330709,
                    "duration": 0.20092622083333822
                },
                {
                    "name": "G#5",
                    "midi": 80,
                    "time": 190.4371909999992,
                    "velocity": 0.28346456692913385,
                    "duration": 0.37460820833334196
                },
                {
                    "name": "E6",
                    "midi": 88,
                    "time": 190.4371909999992,
                    "velocity": 0.3228346456692913,
                    "duration": 0.37460820833334196
                },
                {
                    "name": "B5",
                    "midi": 83,
                    "time": 190.8458544999992,
                    "velocity": 0.33070866141732286,
                    "duration": 0.20092622083333822
                },
                {
                    "name": "G#5",
                    "midi": 80,
                    "time": 190.8458544999992,
                    "velocity": 0.28346456692913385,
                    "duration": 0.20092622083333822
                },
                {
                    "name": "F#5",
                    "midi": 78,
                    "time": 191.0501862499992,
                    "velocity": 0.2677165354330709,
                    "duration": 0.20092622083333822
                },
                {
                    "name": "A5",
                    "midi": 81,
                    "time": 191.0501862499992,
                    "velocity": 0.29133858267716534,
                    "duration": 0.20092622083333822
                },
                {
                    "name": "E5",
                    "midi": 76,
                    "time": 191.2545179999992,
                    "velocity": 0.31496062992125984,
                    "duration": 0.37460820833334196
                },
                {
                    "name": "G#5",
                    "midi": 80,
                    "time": 191.2545179999992,
                    "velocity": 0.3543307086614173,
                    "duration": 0.37460820833334196
                },
                {
                    "name": "E5",
                    "midi": 76,
                    "time": 191.6631814999992,
                    "velocity": 0.2677165354330709,
                    "duration": 0.20092622083333822
                },
                {
                    "name": "G#5",
                    "midi": 80,
                    "time": 191.6631814999992,
                    "velocity": 0.29133858267716534,
                    "duration": 0.20092622083333822
                },
                {
                    "name": "B4",
                    "midi": 71,
                    "time": 191.8675132499992,
                    "velocity": 0.2677165354330709,
                    "duration": 0.20092622083333822
                },
                {
                    "name": "F#5",
                    "midi": 78,
                    "time": 191.8675132499992,
                    "velocity": 0.29133858267716534,
                    "duration": 0.20092622083333822
                },
                {
                    "name": "G#4",
                    "midi": 68,
                    "time": 192.0718449999992,
                    "velocity": 0.28346456692913385,
                    "duration": 0.37460820833334196
                },
                {
                    "name": "E5",
                    "midi": 76,
                    "time": 192.0718449999992,
                    "velocity": 0.33070866141732286,
                    "duration": 0.37460820833334196
                },
                {
                    "name": "G#4",
                    "midi": 68,
                    "time": 192.48050849999922,
                    "velocity": 0.28346456692913385,
                    "duration": 0.20092622083333822
                },
                {
                    "name": "E5",
                    "midi": 76,
                    "time": 192.48050849999922,
                    "velocity": 0.33070866141732286,
                    "duration": 0.20092622083333822
                },
                {
                    "name": "B4",
                    "midi": 71,
                    "time": 192.6848402499992,
                    "velocity": 0.2677165354330709,
                    "duration": 0.20092622083333822
                },
                {
                    "name": "F#5",
                    "midi": 78,
                    "time": 192.6848402499992,
                    "velocity": 0.29133858267716534,
                    "duration": 0.20092622083333822
                },
                {
                    "name": "E5",
                    "midi": 76,
                    "time": 192.8891719999992,
                    "velocity": 0.31496062992125984,
                    "duration": 0.37460820833334196
                },
                {
                    "name": "G#5",
                    "midi": 80,
                    "time": 192.8891719999992,
                    "velocity": 0.3543307086614173,
                    "duration": 0.37460820833334196
                },
                {
                    "name": "F#5",
                    "midi": 78,
                    "time": 193.29783549999922,
                    "velocity": 0.30708661417322836,
                    "duration": 0.20092622083333822
                },
                {
                    "name": "A5",
                    "midi": 81,
                    "time": 193.29783549999922,
                    "velocity": 0.3464566929133858,
                    "duration": 0.20092622083333822
                },
                {
                    "name": "E5",
                    "midi": 76,
                    "time": 193.50216724999922,
                    "velocity": 0.2755905511811024,
                    "duration": 0.20092622083333822
                },
                {
                    "name": "G#5",
                    "midi": 80,
                    "time": 193.50216724999922,
                    "velocity": 0.31496062992125984,
                    "duration": 0.20092622083333822
                },
                {
                    "name": "B4",
                    "midi": 71,
                    "time": 193.7064989999992,
                    "velocity": 0.28346456692913385,
                    "duration": 0.37460820833334196
                },
                {
                    "name": "F#5",
                    "midi": 78,
                    "time": 193.7064989999992,
                    "velocity": 0.3228346456692913,
                    "duration": 0.37460820833334196
                },
                {
                    "name": "E5",
                    "midi": 76,
                    "time": 194.11516249999923,
                    "velocity": 0.31496062992125984,
                    "duration": 0.20092622083333822
                },
                {
                    "name": "G#5",
                    "midi": 80,
                    "time": 194.11516249999923,
                    "velocity": 0.3543307086614173,
                    "duration": 0.20092622083333822
                },
                {
                    "name": "B4",
                    "midi": 71,
                    "time": 194.31949424999922,
                    "velocity": 0.25984251968503935,
                    "duration": 0.20092622083333822
                },
                {
                    "name": "F#5",
                    "midi": 78,
                    "time": 194.31949424999922,
                    "velocity": 0.28346456692913385,
                    "duration": 0.20092622083333822
                },
                {
                    "name": "G#4",
                    "midi": 68,
                    "time": 194.52382599999922,
                    "velocity": 0.2755905511811024,
                    "duration": 0.8173270000000059
                },
                {
                    "name": "E5",
                    "midi": 76,
                    "time": 194.52382599999922,
                    "velocity": 0.30708661417322836,
                    "duration": 0.8173270000000059
                },
                {
                    "name": "G#3",
                    "midi": 56,
                    "time": 195.7498164999992,
                    "velocity": 0.41732283464566927,
                    "duration": 0.09876034583334103
                },
                {
                    "name": "E4",
                    "midi": 64,
                    "time": 195.7498164999992,
                    "velocity": 0.47244094488188976,
                    "duration": 0.09876034583334103
                },
                {
                    "name": "E4",
                    "midi": 64,
                    "time": 195.9541482499992,
                    "velocity": 0.4015748031496063,
                    "duration": 0.09876034583334103
                },
                {
                    "name": "G#4",
                    "midi": 68,
                    "time": 195.9541482499992,
                    "velocity": 0.4409448818897638,
                    "duration": 0.09876034583334103
                },
                {
                    "name": "B3",
                    "midi": 59,
                    "time": 196.1584799999992,
                    "velocity": 0.4645669291338583,
                    "duration": 0.37460820833334196
                },
                {
                    "name": "F#4",
                    "midi": 66,
                    "time": 196.1584799999992,
                    "velocity": 0.5118110236220472,
                    "duration": 0.37460820833334196
                },
                {
                    "name": "E4",
                    "midi": 64,
                    "time": 196.56714349999922,
                    "velocity": 0.41732283464566927,
                    "duration": 0.09876034583334103
                },
                {
                    "name": "G#4",
                    "midi": 68,
                    "time": 196.56714349999922,
                    "velocity": 0.47244094488188976,
                    "duration": 0.09876034583334103
                },
                {
                    "name": "F#4",
                    "midi": 66,
                    "time": 196.7714752499992,
                    "velocity": 0.3937007874015748,
                    "duration": 0.09876034583334103
                },
                {
                    "name": "A4",
                    "midi": 69,
                    "time": 196.7714752499992,
                    "velocity": 0.4330708661417323,
                    "duration": 0.09876034583334103
                },
                {
                    "name": "G#4",
                    "midi": 68,
                    "time": 196.9758069999992,
                    "velocity": 0.4409448818897638,
                    "duration": 0.37460820833334196
                },
                {
                    "name": "B4",
                    "midi": 71,
                    "time": 196.9758069999992,
                    "velocity": 0.49606299212598426,
                    "duration": 0.37460820833334196
                },
                {
                    "name": "A4",
                    "midi": 69,
                    "time": 197.38447049999922,
                    "velocity": 0.4251968503937008,
                    "duration": 0.09876034583334103
                },
                {
                    "name": "C#5",
                    "midi": 73,
                    "time": 197.38447049999922,
                    "velocity": 0.4881889763779528,
                    "duration": 0.09876034583334103
                },
                {
                    "name": "G#4",
                    "midi": 68,
                    "time": 197.58880224999922,
                    "velocity": 0.4094488188976378,
                    "duration": 0.09876034583334103
                },
                {
                    "name": "B4",
                    "midi": 71,
                    "time": 197.58880224999922,
                    "velocity": 0.44881889763779526,
                    "duration": 0.09876034583334103
                },
                {
                    "name": "F#4",
                    "midi": 66,
                    "time": 197.7931339999992,
                    "velocity": 0.47244094488188976,
                    "duration": 0.37460820833334196
                },
                {
                    "name": "A4",
                    "midi": 69,
                    "time": 197.7931339999992,
                    "velocity": 0.5196850393700787,
                    "duration": 0.37460820833334196
                },
                {
                    "name": "E4",
                    "midi": 64,
                    "time": 198.20179749999923,
                    "velocity": 0.4251968503937008,
                    "duration": 0.09876034583334103
                },
                {
                    "name": "G#4",
                    "midi": 68,
                    "time": 198.20179749999923,
                    "velocity": 0.48031496062992124,
                    "duration": 0.09876034583334103
                },
                {
                    "name": "F#4",
                    "midi": 66,
                    "time": 198.40612924999922,
                    "velocity": 0.4251968503937008,
                    "duration": 0.09876034583334103
                },
                {
                    "name": "A4",
                    "midi": 69,
                    "time": 198.40612924999922,
                    "velocity": 0.48031496062992124,
                    "duration": 0.09876034583334103
                },
                {
                    "name": "B3",
                    "midi": 59,
                    "time": 198.61046099999922,
                    "velocity": 0.47244094488188976,
                    "duration": 0.37460820833334196
                },
                {
                    "name": "F#4",
                    "midi": 66,
                    "time": 198.61046099999922,
                    "velocity": 0.5196850393700787,
                    "duration": 0.37460820833334196
                },
                {
                    "name": "G#3",
                    "midi": 56,
                    "time": 199.01912449999924,
                    "velocity": 0.41732283464566927,
                    "duration": 0.09876034583334103
                },
                {
                    "name": "E4",
                    "midi": 64,
                    "time": 199.01912449999924,
                    "velocity": 0.47244094488188976,
                    "duration": 0.09876034583334103
                },
                {
                    "name": "E4",
                    "midi": 64,
                    "time": 199.22345624999923,
                    "velocity": 0.3937007874015748,
                    "duration": 0.09876034583334103
                },
                {
                    "name": "G#4",
                    "midi": 68,
                    "time": 199.22345624999923,
                    "velocity": 0.4330708661417323,
                    "duration": 0.09876034583334103
                },
                {
                    "name": "B3",
                    "midi": 59,
                    "time": 199.42778799999923,
                    "velocity": 0.4645669291338583,
                    "duration": 0.37460820833334196
                },
                {
                    "name": "F#4",
                    "midi": 66,
                    "time": 199.42778799999923,
                    "velocity": 0.5118110236220472,
                    "duration": 0.37460820833334196
                },
                {
                    "name": "E4",
                    "midi": 64,
                    "time": 199.83645149999924,
                    "velocity": 0.41732283464566927,
                    "duration": 0.09876034583334103
                },
                {
                    "name": "G#4",
                    "midi": 68,
                    "time": 199.83645149999924,
                    "velocity": 0.47244094488188976,
                    "duration": 0.09876034583334103
                },
                {
                    "name": "F#4",
                    "midi": 66,
                    "time": 200.04078324999924,
                    "velocity": 0.3858267716535433,
                    "duration": 0.09876034583334103
                },
                {
                    "name": "A4",
                    "midi": 69,
                    "time": 200.04078324999924,
                    "velocity": 0.4251968503937008,
                    "duration": 0.09876034583334103
                },
                {
                    "name": "G#4",
                    "midi": 68,
                    "time": 200.24511499999923,
                    "velocity": 0.4409448818897638,
                    "duration": 0.37460820833334196
                },
                {
                    "name": "B4",
                    "midi": 71,
                    "time": 200.24511499999923,
                    "velocity": 0.49606299212598426,
                    "duration": 0.37460820833334196
                },
                {
                    "name": "A4",
                    "midi": 69,
                    "time": 200.65377849999925,
                    "velocity": 0.4409448818897638,
                    "duration": 0.09876034583334103
                },
                {
                    "name": "C#5",
                    "midi": 73,
                    "time": 200.65377849999925,
                    "velocity": 0.49606299212598426,
                    "duration": 0.09876034583334103
                },
                {
                    "name": "G#4",
                    "midi": 68,
                    "time": 200.85811024999924,
                    "velocity": 0.41732283464566927,
                    "duration": 0.09876034583334103
                },
                {
                    "name": "B4",
                    "midi": 71,
                    "time": 200.85811024999924,
                    "velocity": 0.47244094488188976,
                    "duration": 0.09876034583334103
                },
                {
                    "name": "F#4",
                    "midi": 66,
                    "time": 201.06244199999924,
                    "velocity": 0.47244094488188976,
                    "duration": 0.37460820833334196
                },
                {
                    "name": "A4",
                    "midi": 69,
                    "time": 201.06244199999924,
                    "velocity": 0.5196850393700787,
                    "duration": 0.37460820833334196
                },
                {
                    "name": "E4",
                    "midi": 64,
                    "time": 201.47110549999925,
                    "velocity": 0.41732283464566927,
                    "duration": 0.09876034583334103
                },
                {
                    "name": "G#4",
                    "midi": 68,
                    "time": 201.47110549999925,
                    "velocity": 0.47244094488188976,
                    "duration": 0.09876034583334103
                },
                {
                    "name": "F#4",
                    "midi": 66,
                    "time": 201.67543724999925,
                    "velocity": 0.3937007874015748,
                    "duration": 0.09876034583334103
                },
                {
                    "name": "A4",
                    "midi": 69,
                    "time": 201.67543724999925,
                    "velocity": 0.4330708661417323,
                    "duration": 0.09876034583334103
                },
                {
                    "name": "B3",
                    "midi": 59,
                    "time": 201.87976899999924,
                    "velocity": 0.4094488188976378,
                    "duration": 0.30649762499999156
                },
                {
                    "name": "F#4",
                    "midi": 66,
                    "time": 201.87976899999924,
                    "velocity": 0.44881889763779526,
                    "duration": 0.30649762499999156
                },
                {
                    "name": "G#6",
                    "midi": 92,
                    "time": 202.28843249999923,
                    "velocity": 0.29133858267716534,
                    "duration": 0.20092622083333822
                },
                {
                    "name": "B6",
                    "midi": 95,
                    "time": 202.28843249999923,
                    "velocity": 0.33858267716535434,
                    "duration": 0.20092622083333822
                },
                {
                    "name": "F#6",
                    "midi": 90,
                    "time": 202.49276424999923,
                    "velocity": 0.2755905511811024,
                    "duration": 0.20092622083333822
                },
                {
                    "name": "A6",
                    "midi": 93,
                    "time": 202.49276424999923,
                    "velocity": 0.31496062992125984,
                    "duration": 0.20092622083333822
                },
                {
                    "name": "E6",
                    "midi": 88,
                    "time": 202.69709599999922,
                    "velocity": 0.33070866141732286,
                    "duration": 0.37460820833334196
                },
                {
                    "name": "G#6",
                    "midi": 92,
                    "time": 202.69709599999922,
                    "velocity": 0.36220472440944884,
                    "duration": 0.37460820833334196
                },
                {
                    "name": "E6",
                    "midi": 88,
                    "time": 203.10575949999924,
                    "velocity": 0.2677165354330709,
                    "duration": 0.20092622083333822
                },
                {
                    "name": "G#6",
                    "midi": 92,
                    "time": 203.10575949999924,
                    "velocity": 0.29133858267716534,
                    "duration": 0.20092622083333822
                },
                {
                    "name": "B5",
                    "midi": 83,
                    "time": 203.31009124999923,
                    "velocity": 0.2440944881889764,
                    "duration": 0.20092622083333822
                },
                {
                    "name": "F#6",
                    "midi": 90,
                    "time": 203.31009124999923,
                    "velocity": 0.2755905511811024,
                    "duration": 0.20092622083333822
                },
                {
                    "name": "G#5",
                    "midi": 80,
                    "time": 203.51442299999923,
                    "velocity": 0.28346456692913385,
                    "duration": 0.37460820833334196
                },
                {
                    "name": "E6",
                    "midi": 88,
                    "time": 203.51442299999923,
                    "velocity": 0.3228346456692913,
                    "duration": 0.37460820833334196
                },
                {
                    "name": "B5",
                    "midi": 83,
                    "time": 203.92308649999924,
                    "velocity": 0.33070866141732286,
                    "duration": 0.20092622083333822
                },
                {
                    "name": "G#5",
                    "midi": 80,
                    "time": 203.92308649999924,
                    "velocity": 0.28346456692913385,
                    "duration": 0.20092622083333822
                },
                {
                    "name": "F#5",
                    "midi": 78,
                    "time": 204.12741824999924,
                    "velocity": 0.2755905511811024,
                    "duration": 0.20092622083333822
                },
                {
                    "name": "A5",
                    "midi": 81,
                    "time": 204.12741824999924,
                    "velocity": 0.30708661417322836,
                    "duration": 0.20092622083333822
                },
                {
                    "name": "E5",
                    "midi": 76,
                    "time": 204.33174999999923,
                    "velocity": 0.31496062992125984,
                    "duration": 0.37460820833334196
                },
                {
                    "name": "G#5",
                    "midi": 80,
                    "time": 204.33174999999923,
                    "velocity": 0.3543307086614173,
                    "duration": 0.37460820833334196
                },
                {
                    "name": "E5",
                    "midi": 76,
                    "time": 204.74041349999925,
                    "velocity": 0.2677165354330709,
                    "duration": 0.20092622083333822
                },
                {
                    "name": "G#5",
                    "midi": 80,
                    "time": 204.74041349999925,
                    "velocity": 0.29133858267716534,
                    "duration": 0.20092622083333822
                },
                {
                    "name": "B4",
                    "midi": 71,
                    "time": 204.94474524999924,
                    "velocity": 0.2440944881889764,
                    "duration": 0.20092622083333822
                },
                {
                    "name": "F#5",
                    "midi": 78,
                    "time": 204.94474524999924,
                    "velocity": 0.2755905511811024,
                    "duration": 0.20092622083333822
                },
                {
                    "name": "G#4",
                    "midi": 68,
                    "time": 205.14907699999924,
                    "velocity": 0.28346456692913385,
                    "duration": 0.37460820833334196
                },
                {
                    "name": "E5",
                    "midi": 76,
                    "time": 205.14907699999924,
                    "velocity": 0.33070866141732286,
                    "duration": 0.37460820833334196
                },
                {
                    "name": "G#3",
                    "midi": 56,
                    "time": 205.55774049999926,
                    "velocity": 0.28346456692913385,
                    "duration": 0.20092622083333822
                },
                {
                    "name": "E4",
                    "midi": 64,
                    "time": 205.55774049999926,
                    "velocity": 0.33070866141732286,
                    "duration": 0.20092622083333822
                },
                {
                    "name": "B3",
                    "midi": 59,
                    "time": 205.76207224999925,
                    "velocity": 0.2755905511811024,
                    "duration": 0.20092622083333822
                },
                {
                    "name": "F#4",
                    "midi": 66,
                    "time": 205.76207224999925,
                    "velocity": 0.30708661417322836,
                    "duration": 0.20092622083333822
                },
                {
                    "name": "E4",
                    "midi": 64,
                    "time": 205.96640399999924,
                    "velocity": 0.31496062992125984,
                    "duration": 0.39163585416667956
                },
                {
                    "name": "G#4",
                    "midi": 68,
                    "time": 205.96640399999924,
                    "velocity": 0.3543307086614173,
                    "duration": 0.39163585416667956
                },
                {
                    "name": "F#4",
                    "midi": 66,
                    "time": 206.37506749999926,
                    "velocity": 0.30708661417322836,
                    "duration": 0.20092622083333822
                },
                {
                    "name": "A4",
                    "midi": 69,
                    "time": 206.37506749999926,
                    "velocity": 0.3464566929133858,
                    "duration": 0.20092622083333822
                },
                {
                    "name": "E4",
                    "midi": 64,
                    "time": 206.57939924999926,
                    "velocity": 0.2755905511811024,
                    "duration": 0.20092622083333822
                },
                {
                    "name": "G#4",
                    "midi": 68,
                    "time": 206.57939924999926,
                    "velocity": 0.31496062992125984,
                    "duration": 0.20092622083333822
                },
                {
                    "name": "B3",
                    "midi": 59,
                    "time": 206.78373099999925,
                    "velocity": 0.28346456692913385,
                    "duration": 0.39163585416667956
                },
                {
                    "name": "F#4",
                    "midi": 66,
                    "time": 206.78373099999925,
                    "velocity": 0.3228346456692913,
                    "duration": 0.39163585416667956
                },
                {
                    "name": "E4",
                    "midi": 64,
                    "time": 207.19239449999927,
                    "velocity": 0.31496062992125984,
                    "duration": 0.20092622083333822
                },
                {
                    "name": "G#4",
                    "midi": 68,
                    "time": 207.19239449999927,
                    "velocity": 0.3543307086614173,
                    "duration": 0.20092622083333822
                },
                {
                    "name": "B3",
                    "midi": 59,
                    "time": 207.39672624999926,
                    "velocity": 0.25984251968503935,
                    "duration": 0.20092622083333822
                },
                {
                    "name": "F#4",
                    "midi": 66,
                    "time": 207.39672624999926,
                    "velocity": 0.28346456692913385,
                    "duration": 0.20092622083333822
                },
                {
                    "name": "G#3",
                    "midi": 56,
                    "time": 207.60105799999926,
                    "velocity": 0.2755905511811024,
                    "duration": 0.8173270000000059
                },
                {
                    "name": "E4",
                    "midi": 64,
                    "time": 207.60105799999926,
                    "velocity": 0.30708661417322836,
                    "duration": 0.8173270000000059
                },
                {
                    "name": "B3",
                    "midi": 59,
                    "time": 208.41838499999926,
                    "velocity": 0.2677165354330709,
                    "duration": 0.39163585416667956
                },
                {
                    "name": "F#4",
                    "midi": 66,
                    "time": 208.41838499999926,
                    "velocity": 0.29133858267716534,
                    "duration": 0.39163585416667956
                },
                {
                    "name": "E4",
                    "midi": 64,
                    "time": 208.82704849999928,
                    "velocity": 0.28346456692913385,
                    "duration": 0.20092622083333822
                },
                {
                    "name": "G#4",
                    "midi": 68,
                    "time": 208.82704849999928,
                    "velocity": 0.33070866141732286,
                    "duration": 0.20092622083333822
                },
                {
                    "name": "B3",
                    "midi": 59,
                    "time": 209.03138024999927,
                    "velocity": 0.25196850393700787,
                    "duration": 0.20092622083333822
                },
                {
                    "name": "F#4",
                    "midi": 66,
                    "time": 209.03138024999927,
                    "velocity": 0.28346456692913385,
                    "duration": 0.20092622083333822
                },
                {
                    "name": "G#3",
                    "midi": 56,
                    "time": 209.23571199999927,
                    "velocity": 0.25984251968503935,
                    "duration": 0.8173270000000059
                },
                {
                    "name": "E4",
                    "midi": 64,
                    "time": 209.23571199999927,
                    "velocity": 0.28346456692913385,
                    "duration": 0.8173270000000059
                },
                {
                    "name": "B3",
                    "midi": 59,
                    "time": 210.05303899999927,
                    "velocity": 0.2283464566929134,
                    "duration": 0.39163585416667956
                },
                {
                    "name": "F#4",
                    "midi": 66,
                    "time": 210.05303899999927,
                    "velocity": 0.25984251968503935,
                    "duration": 0.39163585416667956
                },
                {
                    "name": "E4",
                    "midi": 64,
                    "time": 210.4617024999993,
                    "velocity": 0.23622047244094488,
                    "duration": 0.20092622083333822
                },
                {
                    "name": "G#4",
                    "midi": 68,
                    "time": 210.4617024999993,
                    "velocity": 0.2677165354330709,
                    "duration": 0.20092622083333822
                },
                {
                    "name": "B3",
                    "midi": 59,
                    "time": 210.66603424999929,
                    "velocity": 0.2047244094488189,
                    "duration": 0.20092622083333822
                },
                {
                    "name": "F#4",
                    "midi": 66,
                    "time": 210.66603424999929,
                    "velocity": 0.23622047244094488,
                    "duration": 0.20092622083333822
                },
                {
                    "name": "G#3",
                    "midi": 56,
                    "time": 210.87036599999928,
                    "velocity": 0.2125984251968504,
                    "duration": 0.40866349999998874
                },
                {
                    "name": "E4",
                    "midi": 64,
                    "time": 210.87036599999928,
                    "velocity": 0.2440944881889764,
                    "duration": 0.40866349999998874
                },
                {
                    "name": "E4",
                    "midi": 64,
                    "time": 211.48336124999926,
                    "velocity": 0.5590551181102362,
                    "duration": 0.20092622083333822
                },
                {
                    "name": "G#4",
                    "midi": 68,
                    "time": 211.48336124999926,
                    "velocity": 0.5590551181102362,
                    "duration": 0.20092622083333822
                },
                {
                    "name": "E5",
                    "midi": 76,
                    "time": 211.48336124999926,
                    "velocity": 0.6220472440944882,
                    "duration": 0.20092622083333822
                },
                {
                    "name": "E4",
                    "midi": 64,
                    "time": 211.68769299999926,
                    "velocity": 0.5826771653543307,
                    "duration": 0.40866349999998874
                },
                {
                    "name": "G#4",
                    "midi": 68,
                    "time": 211.68769299999926,
                    "velocity": 0.5826771653543307,
                    "duration": 0.40866349999998874
                },
                {
                    "name": "E5",
                    "midi": 76,
                    "time": 211.68769299999926,
                    "velocity": 0.6535433070866141,
                    "duration": 0.40866349999998874
                }
            ],
            "controlChanges": {
                "7": [
                    {
                        "number": 7,
                        "time": 0,
                        "value": 0.7874015748031497
                    }
                ],
                "10": [
                    {
                        "number": 10,
                        "time": 0,
                        "value": 0.5039370078740157
                    }
                ],
                "91": [
                    {
                        "number": 91,
                        "time": 0,
                        "value": 1
                    },
                    {
                        "number": 91,
                        "time": 1.2242877354166666,
                        "value": 1
                    },
                    {
                        "number": 91,
                        "time": 27.378751735416724,
                        "value": 1
                    }
                ]
            },
            "id": 1,
            "name": "Piano right",
            "instrumentNumber": 0,
            "instrument": "acoustic grand piano",
            "instrumentFamily": "piano",
            "channelNumber": 0,
            "isPercussion": false
        },
        {
            "startTime": 27.789118,
            "duration": 212.0963565000003,
            "length": 673,
            "notes": [
                {
                    "name": "E3",
                    "midi": 52,
                    "time": 27.789118,
                    "velocity": 0.29133858267716534,
                    "duration": 0.8173269999999988
                },
                {
                    "name": "B3",
                    "midi": 59,
                    "time": 27.789118,
                    "velocity": 0.29133858267716534,
                    "duration": 0.20092622083333467
                },
                {
                    "name": "E4",
                    "midi": 64,
                    "time": 27.99344975,
                    "velocity": 0.2755905511811024,
                    "duration": 0.20092622083333467
                },
                {
                    "name": "B4",
                    "midi": 71,
                    "time": 28.1977815,
                    "velocity": 0.25196850393700787,
                    "duration": 0.3916358541666618
                },
                {
                    "name": "B4",
                    "midi": 71,
                    "time": 28.606444999999997,
                    "velocity": 0.29133858267716534,
                    "duration": 0.8173270000000024
                },
                {
                    "name": "E4",
                    "midi": 64,
                    "time": 28.606444999999997,
                    "velocity": 0.29133858267716534,
                    "duration": 0.20092622083333467
                },
                {
                    "name": "B3",
                    "midi": 59,
                    "time": 28.81077675,
                    "velocity": 0.28346456692913385,
                    "duration": 0.20092622083333467
                },
                {
                    "name": "E3",
                    "midi": 52,
                    "time": 29.0151085,
                    "velocity": 0.2755905511811024,
                    "duration": 0.39163585416666535
                },
                {
                    "name": "E3",
                    "midi": 52,
                    "time": 29.423772,
                    "velocity": 0.25196850393700787,
                    "duration": 0.8173270000000059
                },
                {
                    "name": "B3",
                    "midi": 59,
                    "time": 29.423772,
                    "velocity": 0.28346456692913385,
                    "duration": 0.20092622083333467
                },
                {
                    "name": "E4",
                    "midi": 64,
                    "time": 29.62810375,
                    "velocity": 0.2755905511811024,
                    "duration": 0.20092622083333467
                },
                {
                    "name": "B4",
                    "midi": 71,
                    "time": 29.832435500000003,
                    "velocity": 0.2755905511811024,
                    "duration": 0.3916358541666689
                },
                {
                    "name": "E4",
                    "midi": 64,
                    "time": 30.241099000000006,
                    "velocity": 0.28346456692913385,
                    "duration": 0.20092622083333112
                },
                {
                    "name": "B4",
                    "midi": 71,
                    "time": 30.241099000000006,
                    "velocity": 0.28346456692913385,
                    "duration": 0.8173269999999988
                },
                {
                    "name": "B3",
                    "midi": 59,
                    "time": 30.445430750000003,
                    "velocity": 0.2755905511811024,
                    "duration": 0.20092622083333467
                },
                {
                    "name": "E3",
                    "midi": 52,
                    "time": 30.649762500000005,
                    "velocity": 0.2755905511811024,
                    "duration": 0.39163585416666535
                },
                {
                    "name": "B3",
                    "midi": 59,
                    "time": 31.058426000000004,
                    "velocity": 0.28346456692913385,
                    "duration": 0.3916358541666689
                },
                {
                    "name": "E3",
                    "midi": 52,
                    "time": 31.058426000000004,
                    "velocity": 0.28346456692913385,
                    "duration": 0.20092622083333467
                },
                {
                    "name": "E4",
                    "midi": 64,
                    "time": 31.262757750000006,
                    "velocity": 0.25984251968503935,
                    "duration": 0.20092622083333467
                },
                {
                    "name": "D#4",
                    "midi": 63,
                    "time": 31.875753000000007,
                    "velocity": 0.25196850393700787,
                    "duration": 0.3916358541666618
                },
                {
                    "name": "B4",
                    "midi": 71,
                    "time": 31.875753000000007,
                    "velocity": 0.28346456692913385,
                    "duration": 0.3916358541666618
                },
                {
                    "name": "B3",
                    "midi": 59,
                    "time": 32.080084750000005,
                    "velocity": 0.25984251968503935,
                    "duration": 0.20092622083333112
                },
                {
                    "name": "E3",
                    "midi": 52,
                    "time": 32.69308,
                    "velocity": 0.2440944881889764,
                    "duration": 0.39163585416666535
                },
                {
                    "name": "B3",
                    "midi": 59,
                    "time": 32.69308,
                    "velocity": 0.2755905511811024,
                    "duration": 0.39163585416666535
                },
                {
                    "name": "E4",
                    "midi": 64,
                    "time": 32.89741175,
                    "velocity": 0.25984251968503935,
                    "duration": 0.20092622083333112
                },
                {
                    "name": "F#4",
                    "midi": 66,
                    "time": 33.510407,
                    "velocity": 0.2755905511811024,
                    "duration": 0.39163585416666535
                },
                {
                    "name": "D#4",
                    "midi": 63,
                    "time": 33.510407,
                    "velocity": 0.2440944881889764,
                    "duration": 0.39163585416666535
                },
                {
                    "name": "B3",
                    "midi": 59,
                    "time": 33.71473875,
                    "velocity": 0.25196850393700787,
                    "duration": 0.20092622083333112
                },
                {
                    "name": "B3",
                    "midi": 59,
                    "time": 34.327734,
                    "velocity": 0.29133858267716534,
                    "duration": 0.20092622083333112
                },
                {
                    "name": "E3",
                    "midi": 52,
                    "time": 34.327734,
                    "velocity": 0.2677165354330709,
                    "duration": 0.8173269999999846
                },
                {
                    "name": "E4",
                    "midi": 64,
                    "time": 34.532065749999994,
                    "velocity": 0.2755905511811024,
                    "duration": 0.20092622083333112
                },
                {
                    "name": "B4",
                    "midi": 71,
                    "time": 34.73639749999999,
                    "velocity": 0.25196850393700787,
                    "duration": 0.39163585416666535
                },
                {
                    "name": "E4",
                    "midi": 64,
                    "time": 35.145060999999984,
                    "velocity": 0.29133858267716534,
                    "duration": 0.20092622083333822
                },
                {
                    "name": "B4",
                    "midi": 71,
                    "time": 35.145060999999984,
                    "velocity": 0.29133858267716534,
                    "duration": 0.8173269999999917
                },
                {
                    "name": "B3",
                    "midi": 59,
                    "time": 35.349392749999986,
                    "velocity": 0.2755905511811024,
                    "duration": 0.20092622083333112
                },
                {
                    "name": "E3",
                    "midi": 52,
                    "time": 35.55372449999998,
                    "velocity": 0.2755905511811024,
                    "duration": 0.39163585416666535
                },
                {
                    "name": "E3",
                    "midi": 52,
                    "time": 35.962387999999976,
                    "velocity": 0.25196850393700787,
                    "duration": 0.8173269999999917
                },
                {
                    "name": "B3",
                    "midi": 59,
                    "time": 35.962387999999976,
                    "velocity": 0.28346456692913385,
                    "duration": 0.20092622083333112
                },
                {
                    "name": "E4",
                    "midi": 64,
                    "time": 36.16671974999997,
                    "velocity": 0.2755905511811024,
                    "duration": 0.20092622083333112
                },
                {
                    "name": "B4",
                    "midi": 71,
                    "time": 36.371051499999965,
                    "velocity": 0.2755905511811024,
                    "duration": 0.39163585416667246
                },
                {
                    "name": "E4",
                    "midi": 64,
                    "time": 36.77971499999997,
                    "velocity": 0.28346456692913385,
                    "duration": 0.20092622083333112
                },
                {
                    "name": "B4",
                    "midi": 71,
                    "time": 36.77971499999997,
                    "velocity": 0.28346456692913385,
                    "duration": 0.8173269999999846
                },
                {
                    "name": "B3",
                    "midi": 59,
                    "time": 36.98404674999996,
                    "velocity": 0.2755905511811024,
                    "duration": 0.20092622083333112
                },
                {
                    "name": "E3",
                    "midi": 52,
                    "time": 37.188378499999956,
                    "velocity": 0.2755905511811024,
                    "duration": 0.39163585416666535
                },
                {
                    "name": "B3",
                    "midi": 59,
                    "time": 37.59704199999995,
                    "velocity": 0.28346456692913385,
                    "duration": 0.39163585416665825
                },
                {
                    "name": "E3",
                    "midi": 52,
                    "time": 37.59704199999995,
                    "velocity": 0.28346456692913385,
                    "duration": 0.20092622083333112
                },
                {
                    "name": "E4",
                    "midi": 64,
                    "time": 37.80137374999995,
                    "velocity": 0.25984251968503935,
                    "duration": 0.20092622083333112
                },
                {
                    "name": "A4",
                    "midi": 69,
                    "time": 38.414368999999944,
                    "velocity": 0.28346456692913385,
                    "duration": 0.39163585416666535
                },
                {
                    "name": "D#4",
                    "midi": 63,
                    "time": 38.414368999999944,
                    "velocity": 0.28346456692913385,
                    "duration": 0.39163585416666535
                },
                {
                    "name": "B3",
                    "midi": 59,
                    "time": 38.618700749999945,
                    "velocity": 0.25984251968503935,
                    "duration": 0.20092622083333112
                },
                {
                    "name": "E3",
                    "midi": 52,
                    "time": 39.23169599999994,
                    "velocity": 0.30708661417322836,
                    "duration": 0.20092622083333112
                },
                {
                    "name": "B3",
                    "midi": 59,
                    "time": 39.43602774999994,
                    "velocity": 0.25196850393700787,
                    "duration": 0.20092622083333112
                },
                {
                    "name": "G#4",
                    "midi": 68,
                    "time": 39.64035949999993,
                    "velocity": 0.2677165354330709,
                    "duration": 0.20092622083333112
                },
                {
                    "name": "E4",
                    "midi": 64,
                    "time": 39.844691249999926,
                    "velocity": 0.25196850393700787,
                    "duration": 0.20092622083333112
                },
                {
                    "name": "B4",
                    "midi": 71,
                    "time": 40.04902299999992,
                    "velocity": 0.30708661417322836,
                    "duration": 0.39163585416666535
                },
                {
                    "name": "E3",
                    "midi": 52,
                    "time": 47.40496599999992,
                    "velocity": 0.2677165354330709,
                    "duration": 0.8173269999999846
                },
                {
                    "name": "B3",
                    "midi": 59,
                    "time": 47.40496599999992,
                    "velocity": 0.29133858267716534,
                    "duration": 0.20092622083333112
                },
                {
                    "name": "E4",
                    "midi": 64,
                    "time": 47.60929774999991,
                    "velocity": 0.2677165354330709,
                    "duration": 0.20092622083333112
                },
                {
                    "name": "B4",
                    "midi": 71,
                    "time": 47.813629499999905,
                    "velocity": 0.25196850393700787,
                    "duration": 0.39163585416666535
                },
                {
                    "name": "B4",
                    "midi": 71,
                    "time": 48.2222929999999,
                    "velocity": 0.29133858267716534,
                    "duration": 0.8173269999999846
                },
                {
                    "name": "E4",
                    "midi": 64,
                    "time": 48.2222929999999,
                    "velocity": 0.29133858267716534,
                    "duration": 0.20092622083333112
                },
                {
                    "name": "B3",
                    "midi": 59,
                    "time": 48.426624749999895,
                    "velocity": 0.2677165354330709,
                    "duration": 0.20092622083333112
                },
                {
                    "name": "E3",
                    "midi": 52,
                    "time": 48.63095649999989,
                    "velocity": 0.2755905511811024,
                    "duration": 0.39163585416666535
                },
                {
                    "name": "E3",
                    "midi": 52,
                    "time": 49.039619999999886,
                    "velocity": 0.25196850393700787,
                    "duration": 0.8173269999999846
                },
                {
                    "name": "B3",
                    "midi": 59,
                    "time": 49.039619999999886,
                    "velocity": 0.28346456692913385,
                    "duration": 0.20092622083333112
                },
                {
                    "name": "E4",
                    "midi": 64,
                    "time": 49.24395174999988,
                    "velocity": 0.2755905511811024,
                    "duration": 0.20092622083333112
                },
                {
                    "name": "B4",
                    "midi": 71,
                    "time": 49.448283499999874,
                    "velocity": 0.2755905511811024,
                    "duration": 0.39163585416666535
                },
                {
                    "name": "B4",
                    "midi": 71,
                    "time": 49.85694699999987,
                    "velocity": 0.28346456692913385,
                    "duration": 0.8173269999999917
                },
                {
                    "name": "E4",
                    "midi": 64,
                    "time": 49.85694699999987,
                    "velocity": 0.28346456692913385,
                    "duration": 0.20092622083333822
                },
                {
                    "name": "B3",
                    "midi": 59,
                    "time": 50.06127874999987,
                    "velocity": 0.2755905511811024,
                    "duration": 0.20092622083333112
                },
                {
                    "name": "E3",
                    "midi": 52,
                    "time": 50.265610499999866,
                    "velocity": 0.2755905511811024,
                    "duration": 0.39163585416666535
                },
                {
                    "name": "E2",
                    "midi": 40,
                    "time": 53.943581999999864,
                    "velocity": 0.4645669291338583,
                    "duration": 0.30649762499999866
                },
                {
                    "name": "B2",
                    "midi": 47,
                    "time": 53.943581999999864,
                    "velocity": 0.5196850393700787,
                    "duration": 0.30649762499999866
                },
                {
                    "name": "D#2",
                    "midi": 39,
                    "time": 54.76090899999986,
                    "velocity": 0.4330708661417323,
                    "duration": 0.30649762499999866
                },
                {
                    "name": "B2",
                    "midi": 47,
                    "time": 54.76090899999986,
                    "velocity": 0.4881889763779528,
                    "duration": 0.30649762499999866
                },
                {
                    "name": "E2",
                    "midi": 40,
                    "time": 55.57823599999986,
                    "velocity": 0.4645669291338583,
                    "duration": 0.30649762499999866
                },
                {
                    "name": "B2",
                    "midi": 47,
                    "time": 55.57823599999986,
                    "velocity": 0.5196850393700787,
                    "duration": 0.30649762499999866
                },
                {
                    "name": "C2",
                    "midi": 36,
                    "time": 56.39556299999986,
                    "velocity": 0.4251968503937008,
                    "duration": 0.30649762499999866
                },
                {
                    "name": "C3",
                    "midi": 48,
                    "time": 56.39556299999986,
                    "velocity": 0.48031496062992124,
                    "duration": 0.30649762499999866
                },
                {
                    "name": "B1",
                    "midi": 35,
                    "time": 57.21288999999986,
                    "velocity": 0.44881889763779526,
                    "duration": 0.30649762499999866
                },
                {
                    "name": "B2",
                    "midi": 47,
                    "time": 57.21288999999986,
                    "velocity": 0.5039370078740157,
                    "duration": 0.30649762499999866
                },
                {
                    "name": "A#1",
                    "midi": 34,
                    "time": 58.03021699999986,
                    "velocity": 0.4251968503937008,
                    "duration": 0.30649762499999866
                },
                {
                    "name": "A#2",
                    "midi": 46,
                    "time": 58.03021699999986,
                    "velocity": 0.48031496062992124,
                    "duration": 0.30649762499999866
                },
                {
                    "name": "B1",
                    "midi": 35,
                    "time": 58.84754399999986,
                    "velocity": 0.48031496062992124,
                    "duration": 0.8173269999999988
                },
                {
                    "name": "B2",
                    "midi": 47,
                    "time": 58.84754399999986,
                    "velocity": 0.5433070866141733,
                    "duration": 0.8173269999999988
                },
                {
                    "name": "B1",
                    "midi": 35,
                    "time": 59.664870999999856,
                    "velocity": 0.44881889763779526,
                    "duration": 0.40866350000000295
                },
                {
                    "name": "B2",
                    "midi": 47,
                    "time": 59.664870999999856,
                    "velocity": 0.5118110236220472,
                    "duration": 0.40866350000000295
                },
                {
                    "name": "G1",
                    "midi": 31,
                    "time": 60.48219799999986,
                    "velocity": 0.5196850393700787,
                    "duration": 0.30649762499999866
                },
                {
                    "name": "G2",
                    "midi": 43,
                    "time": 60.48219799999986,
                    "velocity": 0.5748031496062992,
                    "duration": 0.30649762499999866
                },
                {
                    "name": "D2",
                    "midi": 38,
                    "time": 61.29952499999986,
                    "velocity": 0.4645669291338583,
                    "duration": 0.30649762499999866
                },
                {
                    "name": "D3",
                    "midi": 50,
                    "time": 61.29952499999986,
                    "velocity": 0.5196850393700787,
                    "duration": 0.30649762499999866
                },
                {
                    "name": "G2",
                    "midi": 43,
                    "time": 62.11685199999986,
                    "velocity": 0.4645669291338583,
                    "duration": 0.30649762499999866
                },
                {
                    "name": "G3",
                    "midi": 55,
                    "time": 62.11685199999986,
                    "velocity": 0.5196850393700787,
                    "duration": 0.30649762499999866
                },
                {
                    "name": "C2",
                    "midi": 36,
                    "time": 62.93417899999986,
                    "velocity": 0.4330708661417323,
                    "duration": 0.30649762499999866
                },
                {
                    "name": "C3",
                    "midi": 48,
                    "time": 62.93417899999986,
                    "velocity": 0.4881889763779528,
                    "duration": 0.30649762499999866
                },
                {
                    "name": "D2",
                    "midi": 38,
                    "time": 63.75150599999986,
                    "velocity": 0.44881889763779526,
                    "duration": 0.30649762499999866
                },
                {
                    "name": "D3",
                    "midi": 50,
                    "time": 63.75150599999986,
                    "velocity": 0.5039370078740157,
                    "duration": 0.30649762499999866
                },
                {
                    "name": "D2",
                    "midi": 38,
                    "time": 64.56883299999986,
                    "velocity": 0.4251968503937008,
                    "duration": 0.30649762500000577
                },
                {
                    "name": "D3",
                    "midi": 50,
                    "time": 64.56883299999986,
                    "velocity": 0.48031496062992124,
                    "duration": 0.30649762500000577
                },
                {
                    "name": "G1",
                    "midi": 31,
                    "time": 65.38615999999986,
                    "velocity": 0.5118110236220472,
                    "duration": 0.8173270000000059
                },
                {
                    "name": "G2",
                    "midi": 43,
                    "time": 65.38615999999986,
                    "velocity": 0.5669291338582677,
                    "duration": 0.8173270000000059
                },
                {
                    "name": "D#3",
                    "midi": 51,
                    "time": 67.02081399999987,
                    "velocity": 0.5196850393700787,
                    "duration": 0.30649762500000577
                },
                {
                    "name": "D#2",
                    "midi": 39,
                    "time": 67.02081399999987,
                    "velocity": 0.4645669291338583,
                    "duration": 0.30649762500000577
                },
                {
                    "name": "B2",
                    "midi": 47,
                    "time": 67.02081399999987,
                    "velocity": 0.4645669291338583,
                    "duration": 0.30649762500000577
                },
                {
                    "name": "B2",
                    "midi": 47,
                    "time": 67.83814099999988,
                    "velocity": 0.4251968503937008,
                    "duration": 0.30649762500000577
                },
                {
                    "name": "E2",
                    "midi": 40,
                    "time": 67.83814099999988,
                    "velocity": 0.4251968503937008,
                    "duration": 0.30649762500000577
                },
                {
                    "name": "E3",
                    "midi": 52,
                    "time": 67.83814099999988,
                    "velocity": 0.47244094488188976,
                    "duration": 0.30649762500000577
                },
                {
                    "name": "F#2",
                    "midi": 42,
                    "time": 68.65546799999989,
                    "velocity": 0.4251968503937008,
                    "duration": 0.30649762500000577
                },
                {
                    "name": "B1",
                    "midi": 35,
                    "time": 68.65546799999989,
                    "velocity": 0.4251968503937008,
                    "duration": 0.30649762500000577
                },
                {
                    "name": "B2",
                    "midi": 47,
                    "time": 68.65546799999989,
                    "velocity": 0.47244094488188976,
                    "duration": 0.30649762500000577
                },
                {
                    "name": "B2",
                    "midi": 47,
                    "time": 69.06413149999989,
                    "velocity": 0.48031496062992124,
                    "duration": 0.15324881249999578
                },
                {
                    "name": "B3",
                    "midi": 59,
                    "time": 69.06413149999989,
                    "velocity": 0.5433070866141733,
                    "duration": 0.15324881249999578
                },
                {
                    "name": "C3",
                    "midi": 48,
                    "time": 69.26846324999988,
                    "velocity": 0.44881889763779526,
                    "duration": 0.15324881249999578
                },
                {
                    "name": "C4",
                    "midi": 60,
                    "time": 69.26846324999988,
                    "velocity": 0.5118110236220472,
                    "duration": 0.15324881249999578
                },
                {
                    "name": "B2",
                    "midi": 47,
                    "time": 69.47279499999988,
                    "velocity": 0.5275590551181102,
                    "duration": 0.20092622083333822
                },
                {
                    "name": "B3",
                    "midi": 59,
                    "time": 69.47279499999988,
                    "velocity": 0.5984251968503937,
                    "duration": 0.20092622083333822
                },
                {
                    "name": "D#3",
                    "midi": 51,
                    "time": 70.29012199999988,
                    "velocity": 0.5275590551181102,
                    "duration": 0.30649762500000577
                },
                {
                    "name": "D#2",
                    "midi": 39,
                    "time": 70.29012199999988,
                    "velocity": 0.47244094488188976,
                    "duration": 0.30649762500000577
                },
                {
                    "name": "B2",
                    "midi": 47,
                    "time": 70.29012199999988,
                    "velocity": 0.47244094488188976,
                    "duration": 0.30649762500000577
                },
                {
                    "name": "B2",
                    "midi": 47,
                    "time": 71.10744899999989,
                    "velocity": 0.4251968503937008,
                    "duration": 0.30649762500000577
                },
                {
                    "name": "E2",
                    "midi": 40,
                    "time": 71.10744899999989,
                    "velocity": 0.4251968503937008,
                    "duration": 0.30649762500000577
                },
                {
                    "name": "E3",
                    "midi": 52,
                    "time": 71.10744899999989,
                    "velocity": 0.47244094488188976,
                    "duration": 0.30649762500000577
                },
                {
                    "name": "F#2",
                    "midi": 42,
                    "time": 71.9247759999999,
                    "velocity": 0.4251968503937008,
                    "duration": 0.30649762500000577
                },
                {
                    "name": "B1",
                    "midi": 35,
                    "time": 71.9247759999999,
                    "velocity": 0.4251968503937008,
                    "duration": 0.30649762500000577
                },
                {
                    "name": "B2",
                    "midi": 47,
                    "time": 71.9247759999999,
                    "velocity": 0.47244094488188976,
                    "duration": 0.30649762500000577
                },
                {
                    "name": "A#3",
                    "midi": 58,
                    "time": 72.3334394999999,
                    "velocity": 0.5196850393700787,
                    "duration": 0.15324881249999578
                },
                {
                    "name": "C4",
                    "midi": 60,
                    "time": 72.53777124999989,
                    "velocity": 0.5039370078740157,
                    "duration": 0.15324881249999578
                },
                {
                    "name": "B3",
                    "midi": 59,
                    "time": 72.74210299999989,
                    "velocity": 0.5669291338582677,
                    "duration": 0.20092622083333822
                },
                {
                    "name": "G#3",
                    "midi": 56,
                    "time": 73.55942999999989,
                    "velocity": 0.5590551181102362,
                    "duration": 0.30649762500000577
                },
                {
                    "name": "G#2",
                    "midi": 44,
                    "time": 73.55942999999989,
                    "velocity": 0.49606299212598426,
                    "duration": 0.30649762500000577
                },
                {
                    "name": "E3",
                    "midi": 52,
                    "time": 73.55942999999989,
                    "velocity": 0.49606299212598426,
                    "duration": 0.30649762500000577
                },
                {
                    "name": "E3",
                    "midi": 52,
                    "time": 74.3767569999999,
                    "velocity": 0.4251968503937008,
                    "duration": 0.30649762500000577
                },
                {
                    "name": "A2",
                    "midi": 45,
                    "time": 74.3767569999999,
                    "velocity": 0.4251968503937008,
                    "duration": 0.30649762500000577
                },
                {
                    "name": "A3",
                    "midi": 57,
                    "time": 74.3767569999999,
                    "velocity": 0.48031496062992124,
                    "duration": 0.30649762500000577
                },
                {
                    "name": "F#3",
                    "midi": 54,
                    "time": 75.1940839999999,
                    "velocity": 0.5118110236220472,
                    "duration": 0.30649762500000577
                },
                {
                    "name": "F#2",
                    "midi": 42,
                    "time": 75.1940839999999,
                    "velocity": 0.44881889763779526,
                    "duration": 0.30649762500000577
                },
                {
                    "name": "D3",
                    "midi": 50,
                    "time": 75.1940839999999,
                    "velocity": 0.44881889763779526,
                    "duration": 0.30649762500000577
                },
                {
                    "name": "D3",
                    "midi": 50,
                    "time": 76.01141099999991,
                    "velocity": 0.3858267716535433,
                    "duration": 0.30649762500000577
                },
                {
                    "name": "G2",
                    "midi": 43,
                    "time": 76.01141099999991,
                    "velocity": 0.3858267716535433,
                    "duration": 0.30649762500000577
                },
                {
                    "name": "G3",
                    "midi": 55,
                    "time": 76.01141099999991,
                    "velocity": 0.4330708661417323,
                    "duration": 0.30649762500000577
                },
                {
                    "name": "C3",
                    "midi": 48,
                    "time": 76.82873799999992,
                    "velocity": 0.44881889763779526,
                    "duration": 0.30649762500000577
                },
                {
                    "name": "E2",
                    "midi": 40,
                    "time": 76.82873799999992,
                    "velocity": 0.44881889763779526,
                    "duration": 0.30649762500000577
                },
                {
                    "name": "E3",
                    "midi": 52,
                    "time": 76.82873799999992,
                    "velocity": 0.5039370078740157,
                    "duration": 0.30649762500000577
                },
                {
                    "name": "C3",
                    "midi": 48,
                    "time": 77.64606499999992,
                    "velocity": 0.36220472440944884,
                    "duration": 0.30649762500000577
                },
                {
                    "name": "F#2",
                    "midi": 42,
                    "time": 77.64606499999992,
                    "velocity": 0.36220472440944884,
                    "duration": 0.30649762500000577
                },
                {
                    "name": "F#3",
                    "midi": 54,
                    "time": 77.64606499999992,
                    "velocity": 0.4094488188976378,
                    "duration": 0.30649762500000577
                },
                {
                    "name": "D#3",
                    "midi": 51,
                    "time": 78.46339199999993,
                    "velocity": 0.4566929133858268,
                    "duration": 0.30649762500000577
                },
                {
                    "name": "D#2",
                    "midi": 39,
                    "time": 78.46339199999993,
                    "velocity": 0.4094488188976378,
                    "duration": 0.30649762500000577
                },
                {
                    "name": "B2",
                    "midi": 47,
                    "time": 78.46339199999993,
                    "velocity": 0.4094488188976378,
                    "duration": 0.30649762500000577
                },
                {
                    "name": "B2",
                    "midi": 47,
                    "time": 79.28071899999993,
                    "velocity": 0.3700787401574803,
                    "duration": 0.30649762500000577
                },
                {
                    "name": "E2",
                    "midi": 40,
                    "time": 79.28071899999993,
                    "velocity": 0.3700787401574803,
                    "duration": 0.30649762500000577
                },
                {
                    "name": "E3",
                    "midi": 52,
                    "time": 79.28071899999993,
                    "velocity": 0.4251968503937008,
                    "duration": 0.30649762500000577
                },
                {
                    "name": "C2",
                    "midi": 36,
                    "time": 80.09804599999994,
                    "velocity": 0.36220472440944884,
                    "duration": 0.30649762500000577
                },
                {
                    "name": "C3",
                    "midi": 48,
                    "time": 80.09804599999994,
                    "velocity": 0.4094488188976378,
                    "duration": 0.30649762500000577
                },
                {
                    "name": "A#2",
                    "midi": 46,
                    "time": 80.91537299999995,
                    "velocity": 0.44881889763779526,
                    "duration": 0.30649762500000577
                },
                {
                    "name": "A#1",
                    "midi": 34,
                    "time": 80.91537299999995,
                    "velocity": 0.4015748031496063,
                    "duration": 0.30649762500000577
                },
                {
                    "name": "B1",
                    "midi": 35,
                    "time": 81.73269999999995,
                    "velocity": 0.4251968503937008,
                    "duration": 0.30649762500000577
                },
                {
                    "name": "B2",
                    "midi": 47,
                    "time": 81.73269999999995,
                    "velocity": 0.48031496062992124,
                    "duration": 0.30649762500000577
                },
                {
                    "name": "C3",
                    "midi": 48,
                    "time": 82.55002699999996,
                    "velocity": 0.3858267716535433,
                    "duration": 0.30649762500000577
                },
                {
                    "name": "C2",
                    "midi": 36,
                    "time": 82.55002699999996,
                    "velocity": 0.3464566929133858,
                    "duration": 0.30649762500000577
                },
                {
                    "name": "A1",
                    "midi": 33,
                    "time": 83.36735399999996,
                    "velocity": 0.3937007874015748,
                    "duration": 0.30649762500000577
                },
                {
                    "name": "A2",
                    "midi": 45,
                    "time": 83.36735399999996,
                    "velocity": 0.4409448818897638,
                    "duration": 0.30649762500000577
                },
                {
                    "name": "C4",
                    "midi": 60,
                    "time": 83.77601749999997,
                    "velocity": 0.3858267716535433,
                    "duration": 0.09876034583332682
                },
                {
                    "name": "A3",
                    "midi": 57,
                    "time": 83.98034924999996,
                    "velocity": 0.3858267716535433,
                    "duration": 0.09876034583332682
                },
                {
                    "name": "B1",
                    "midi": 35,
                    "time": 84.18468099999996,
                    "velocity": 0.4015748031496063,
                    "duration": 0.30649762500000577
                },
                {
                    "name": "B2",
                    "midi": 47,
                    "time": 84.18468099999996,
                    "velocity": 0.44881889763779526,
                    "duration": 0.30649762500000577
                },
                {
                    "name": "A3",
                    "midi": 57,
                    "time": 84.59334449999996,
                    "velocity": 0.4251968503937008,
                    "duration": 0.09876034583332682
                },
                {
                    "name": "F#3",
                    "midi": 54,
                    "time": 84.79767624999995,
                    "velocity": 0.4015748031496063,
                    "duration": 0.10216587499999719
                },
                {
                    "name": "E2",
                    "midi": 40,
                    "time": 85.00200799999995,
                    "velocity": 0.47244094488188976,
                    "duration": 0.8173270000000059
                },
                {
                    "name": "E3",
                    "midi": 52,
                    "time": 85.00200799999995,
                    "velocity": 0.5275590551181102,
                    "duration": 0.8173270000000059
                },
                {
                    "name": "E3",
                    "midi": 52,
                    "time": 86.63666199999994,
                    "velocity": 0.2677165354330709,
                    "duration": 0.8173270000000201
                },
                {
                    "name": "B3",
                    "midi": 59,
                    "time": 86.63666199999994,
                    "velocity": 0.29133858267716534,
                    "duration": 0.20092622083333822
                },
                {
                    "name": "E4",
                    "midi": 64,
                    "time": 86.84099374999995,
                    "velocity": 0.2755905511811024,
                    "duration": 0.20092622083333822
                },
                {
                    "name": "B4",
                    "midi": 71,
                    "time": 87.04532549999996,
                    "velocity": 0.25196850393700787,
                    "duration": 0.39163585416666535
                },
                {
                    "name": "E4",
                    "midi": 64,
                    "time": 87.45398899999996,
                    "velocity": 0.29133858267716534,
                    "duration": 0.20092622083333822
                },
                {
                    "name": "B4",
                    "midi": 71,
                    "time": 87.45398899999996,
                    "velocity": 0.29133858267716534,
                    "duration": 0.8173270000000059
                },
                {
                    "name": "B3",
                    "midi": 59,
                    "time": 87.65832074999997,
                    "velocity": 0.28346456692913385,
                    "duration": 0.20092622083333822
                },
                {
                    "name": "E3",
                    "midi": 52,
                    "time": 87.86265249999998,
                    "velocity": 0.2755905511811024,
                    "duration": 0.39163585416665114
                },
                {
                    "name": "E3",
                    "midi": 52,
                    "time": 88.27131599999997,
                    "velocity": 0.25196850393700787,
                    "duration": 0.8173270000000201
                },
                {
                    "name": "B3",
                    "midi": 59,
                    "time": 88.27131599999997,
                    "velocity": 0.28346456692913385,
                    "duration": 0.20092622083333822
                },
                {
                    "name": "E4",
                    "midi": 64,
                    "time": 88.47564774999998,
                    "velocity": 0.2755905511811024,
                    "duration": 0.20092622083333822
                },
                {
                    "name": "B4",
                    "midi": 71,
                    "time": 88.67997949999999,
                    "velocity": 0.2755905511811024,
                    "duration": 0.39163585416666535
                },
                {
                    "name": "E4",
                    "midi": 64,
                    "time": 89.08864299999999,
                    "velocity": 0.28346456692913385,
                    "duration": 0.200926220833324
                },
                {
                    "name": "B4",
                    "midi": 71,
                    "time": 89.08864299999999,
                    "velocity": 0.28346456692913385,
                    "duration": 0.8173270000000059
                },
                {
                    "name": "B3",
                    "midi": 59,
                    "time": 89.29297474999998,
                    "velocity": 0.2755905511811024,
                    "duration": 0.20092622083333822
                },
                {
                    "name": "E3",
                    "midi": 52,
                    "time": 89.4973065,
                    "velocity": 0.2755905511811024,
                    "duration": 0.39163585416666535
                },
                {
                    "name": "E3",
                    "midi": 52,
                    "time": 89.90597,
                    "velocity": 0.28346456692913385,
                    "duration": 0.20092622083333822
                },
                {
                    "name": "B3",
                    "midi": 59,
                    "time": 89.90597,
                    "velocity": 0.25196850393700787,
                    "duration": 0.39163585416667956
                },
                {
                    "name": "E4",
                    "midi": 64,
                    "time": 90.11030175,
                    "velocity": 0.25984251968503935,
                    "duration": 0.20092622083333822
                },
                {
                    "name": "B4",
                    "midi": 71,
                    "time": 90.723297,
                    "velocity": 0.28346456692913385,
                    "duration": 0.39163585416667956
                },
                {
                    "name": "D#4",
                    "midi": 63,
                    "time": 90.723297,
                    "velocity": 0.25196850393700787,
                    "duration": 0.39163585416667956
                },
                {
                    "name": "B3",
                    "midi": 59,
                    "time": 90.92762875000001,
                    "velocity": 0.28346456692913385,
                    "duration": 0.20092622083333822
                },
                {
                    "name": "E3",
                    "midi": 52,
                    "time": 91.54062400000002,
                    "velocity": 0.2440944881889764,
                    "duration": 0.39163585416666535
                },
                {
                    "name": "B3",
                    "midi": 59,
                    "time": 91.54062400000002,
                    "velocity": 0.2755905511811024,
                    "duration": 0.39163585416666535
                },
                {
                    "name": "E4",
                    "midi": 64,
                    "time": 91.74495575000002,
                    "velocity": 0.25984251968503935,
                    "duration": 0.20092622083333822
                },
                {
                    "name": "D#4",
                    "midi": 63,
                    "time": 92.35795100000001,
                    "velocity": 0.2440944881889764,
                    "duration": 0.39163585416667956
                },
                {
                    "name": "F#4",
                    "midi": 66,
                    "time": 92.35795100000001,
                    "velocity": 0.2755905511811024,
                    "duration": 0.39163585416667956
                },
                {
                    "name": "B3",
                    "midi": 59,
                    "time": 92.56228275000002,
                    "velocity": 0.25984251968503935,
                    "duration": 0.20092622083333822
                },
                {
                    "name": "E3",
                    "midi": 52,
                    "time": 93.17527800000003,
                    "velocity": 0.2677165354330709,
                    "duration": 0.8173270000000201
                },
                {
                    "name": "B3",
                    "midi": 59,
                    "time": 93.17527800000003,
                    "velocity": 0.29133858267716534,
                    "duration": 0.20092622083333822
                },
                {
                    "name": "E4",
                    "midi": 64,
                    "time": 93.37960975000004,
                    "velocity": 0.2755905511811024,
                    "duration": 0.20092622083333822
                },
                {
                    "name": "B4",
                    "midi": 71,
                    "time": 93.58394150000005,
                    "velocity": 0.25196850393700787,
                    "duration": 0.39163585416666535
                },
                {
                    "name": "E4",
                    "midi": 64,
                    "time": 93.99260500000005,
                    "velocity": 0.29133858267716534,
                    "duration": 0.20092622083333822
                },
                {
                    "name": "B4",
                    "midi": 71,
                    "time": 93.99260500000005,
                    "velocity": 0.29133858267716534,
                    "duration": 0.8173270000000201
                },
                {
                    "name": "B3",
                    "midi": 59,
                    "time": 94.19693675000006,
                    "velocity": 0.2755905511811024,
                    "duration": 0.20092622083333822
                },
                {
                    "name": "E3",
                    "midi": 52,
                    "time": 94.40126850000007,
                    "velocity": 0.2755905511811024,
                    "duration": 0.39163585416666535
                },
                {
                    "name": "E3",
                    "midi": 52,
                    "time": 94.80993200000007,
                    "velocity": 0.25196850393700787,
                    "duration": 0.8173270000000059
                },
                {
                    "name": "B3",
                    "midi": 59,
                    "time": 94.80993200000007,
                    "velocity": 0.28346456692913385,
                    "duration": 0.200926220833324
                },
                {
                    "name": "E4",
                    "midi": 64,
                    "time": 95.01426375000007,
                    "velocity": 0.2755905511811024,
                    "duration": 0.20092622083333822
                },
                {
                    "name": "B4",
                    "midi": 71,
                    "time": 95.21859550000008,
                    "velocity": 0.2755905511811024,
                    "duration": 0.39163585416666535
                },
                {
                    "name": "E4",
                    "midi": 64,
                    "time": 95.62725900000008,
                    "velocity": 0.28346456692913385,
                    "duration": 0.200926220833324
                },
                {
                    "name": "B4",
                    "midi": 71,
                    "time": 95.62725900000008,
                    "velocity": 0.28346456692913385,
                    "duration": 0.8173270000000059
                },
                {
                    "name": "B3",
                    "midi": 59,
                    "time": 95.83159075000007,
                    "velocity": 0.2755905511811024,
                    "duration": 0.20092622083333822
                },
                {
                    "name": "E3",
                    "midi": 52,
                    "time": 96.03592250000008,
                    "velocity": 0.2755905511811024,
                    "duration": 0.39163585416666535
                },
                {
                    "name": "E3",
                    "midi": 52,
                    "time": 96.44458600000009,
                    "velocity": 0.28346456692913385,
                    "duration": 0.20092622083333822
                },
                {
                    "name": "B3",
                    "midi": 59,
                    "time": 96.44458600000009,
                    "velocity": 0.25196850393700787,
                    "duration": 0.39163585416667956
                },
                {
                    "name": "E4",
                    "midi": 64,
                    "time": 96.6489177500001,
                    "velocity": 0.25984251968503935,
                    "duration": 0.20092622083333822
                },
                {
                    "name": "A4",
                    "midi": 69,
                    "time": 97.26191300000009,
                    "velocity": 0.28346456692913385,
                    "duration": 0.39163585416666535
                },
                {
                    "name": "D#4",
                    "midi": 63,
                    "time": 97.26191300000009,
                    "velocity": 0.25196850393700787,
                    "duration": 0.39163585416666535
                },
                {
                    "name": "B3",
                    "midi": 59,
                    "time": 97.46624475000009,
                    "velocity": 0.25984251968503935,
                    "duration": 0.20092622083333822
                },
                {
                    "name": "E3",
                    "midi": 52,
                    "time": 98.07924000000008,
                    "velocity": 0.30708661417322836,
                    "duration": 0.200926220833324
                },
                {
                    "name": "B3",
                    "midi": 59,
                    "time": 98.28357175000008,
                    "velocity": 0.25196850393700787,
                    "duration": 0.20092622083333822
                },
                {
                    "name": "G#4",
                    "midi": 68,
                    "time": 98.48790350000009,
                    "velocity": 0.2677165354330709,
                    "duration": 0.20092622083333822
                },
                {
                    "name": "E4",
                    "midi": 64,
                    "time": 98.6922352500001,
                    "velocity": 0.25196850393700787,
                    "duration": 0.20092622083333822
                },
                {
                    "name": "B4",
                    "midi": 71,
                    "time": 98.8965670000001,
                    "velocity": 0.30708661417322836,
                    "duration": 0.39163585416666535
                },
                {
                    "name": "E3",
                    "midi": 52,
                    "time": 106.25251000000011,
                    "velocity": 0.2677165354330709,
                    "duration": 0.8173270000000201
                },
                {
                    "name": "B3",
                    "midi": 59,
                    "time": 106.25251000000011,
                    "velocity": 0.29133858267716534,
                    "duration": 0.20092622083333822
                },
                {
                    "name": "E4",
                    "midi": 64,
                    "time": 106.45684175000012,
                    "velocity": 0.2677165354330709,
                    "duration": 0.20092622083333822
                },
                {
                    "name": "B4",
                    "midi": 71,
                    "time": 106.66117350000013,
                    "velocity": 0.25196850393700787,
                    "duration": 0.39163585416666535
                },
                {
                    "name": "E4",
                    "midi": 64,
                    "time": 107.06983700000013,
                    "velocity": 0.29133858267716534,
                    "duration": 0.20092622083333822
                },
                {
                    "name": "B4",
                    "midi": 71,
                    "time": 107.06983700000013,
                    "velocity": 0.29133858267716534,
                    "duration": 0.8173270000000201
                },
                {
                    "name": "B3",
                    "midi": 59,
                    "time": 107.27416875000014,
                    "velocity": 0.2677165354330709,
                    "duration": 0.20092622083333822
                },
                {
                    "name": "E3",
                    "midi": 52,
                    "time": 107.47850050000015,
                    "velocity": 0.2755905511811024,
                    "duration": 0.39163585416666535
                },
                {
                    "name": "E3",
                    "midi": 52,
                    "time": 107.88716400000015,
                    "velocity": 0.25196850393700787,
                    "duration": 0.8173270000000059
                },
                {
                    "name": "B3",
                    "midi": 59,
                    "time": 107.88716400000015,
                    "velocity": 0.28346456692913385,
                    "duration": 0.20092622083333822
                },
                {
                    "name": "E4",
                    "midi": 64,
                    "time": 108.09149575000016,
                    "velocity": 0.2755905511811024,
                    "duration": 0.20092622083333822
                },
                {
                    "name": "B4",
                    "midi": 71,
                    "time": 108.29582750000017,
                    "velocity": 0.2755905511811024,
                    "duration": 0.39163585416665114
                },
                {
                    "name": "E4",
                    "midi": 64,
                    "time": 108.70449100000016,
                    "velocity": 0.28346456692913385,
                    "duration": 0.200926220833324
                },
                {
                    "name": "B4",
                    "midi": 71,
                    "time": 108.70449100000016,
                    "velocity": 0.28346456692913385,
                    "duration": 0.8173270000000059
                },
                {
                    "name": "B3",
                    "midi": 59,
                    "time": 108.90882275000016,
                    "velocity": 0.2755905511811024,
                    "duration": 0.20092622083333822
                },
                {
                    "name": "E3",
                    "midi": 52,
                    "time": 109.11315450000016,
                    "velocity": 0.2755905511811024,
                    "duration": 0.39163585416666535
                },
                {
                    "name": "E2",
                    "midi": 40,
                    "time": 112.38246250000017,
                    "velocity": 0.5590551181102362,
                    "duration": 0.20092622083333822
                },
                {
                    "name": "E3",
                    "midi": 52,
                    "time": 112.38246250000017,
                    "velocity": 0.5590551181102362,
                    "duration": 0.20092622083333822
                },
                {
                    "name": "A2",
                    "midi": 45,
                    "time": 112.79112600000018,
                    "velocity": 0.6062992125984252,
                    "duration": 1.2259904999999947
                },
                {
                    "name": "A3",
                    "midi": 57,
                    "time": 112.79112600000018,
                    "velocity": 0.6062992125984252,
                    "duration": 1.2259904999999947
                },
                {
                    "name": "E2",
                    "midi": 40,
                    "time": 114.01711650000017,
                    "velocity": 0.5669291338582677,
                    "duration": 0.20433174999999437
                },
                {
                    "name": "E3",
                    "midi": 52,
                    "time": 114.01711650000017,
                    "velocity": 0.5669291338582677,
                    "duration": 0.20433174999999437
                },
                {
                    "name": "C2",
                    "midi": 36,
                    "time": 114.42578000000016,
                    "velocity": 0.6220472440944882,
                    "duration": 0.40866350000000295
                },
                {
                    "name": "C3",
                    "midi": 48,
                    "time": 114.42578000000016,
                    "velocity": 0.6220472440944882,
                    "duration": 0.40866350000000295
                },
                {
                    "name": "A1",
                    "midi": 33,
                    "time": 114.83444350000016,
                    "velocity": 0.5905511811023622,
                    "duration": 0.40866350000000295
                },
                {
                    "name": "A2",
                    "midi": 45,
                    "time": 114.83444350000016,
                    "velocity": 0.5905511811023622,
                    "duration": 0.40866350000000295
                },
                {
                    "name": "C3",
                    "midi": 48,
                    "time": 115.65177050000017,
                    "velocity": 0.28346456692913385,
                    "duration": 0.06129952500000968
                },
                {
                    "name": "D3",
                    "midi": 50,
                    "time": 115.70966449583351,
                    "velocity": 0.28346456692913385,
                    "duration": 0.06129952500000968
                },
                {
                    "name": "E3",
                    "midi": 52,
                    "time": 115.76755849166685,
                    "velocity": 0.28346456692913385,
                    "duration": 0.06129952500000968
                },
                {
                    "name": "F3",
                    "midi": 53,
                    "time": 115.82545248750019,
                    "velocity": 0.29133858267716534,
                    "duration": 0.06129952500000968
                },
                {
                    "name": "G3",
                    "midi": 55,
                    "time": 115.88334648333353,
                    "velocity": 0.2992125984251969,
                    "duration": 0.06129952500000968
                },
                {
                    "name": "A3",
                    "midi": 57,
                    "time": 115.94124047916686,
                    "velocity": 0.2992125984251969,
                    "duration": 0.06129952500000968
                },
                {
                    "name": "B3",
                    "midi": 59,
                    "time": 115.9991344750002,
                    "velocity": 0.31496062992125984,
                    "duration": 0.06129952500000968
                },
                {
                    "name": "C4",
                    "midi": 60,
                    "time": 116.06043400000021,
                    "velocity": 0.3228346456692913,
                    "duration": 0.06129952500000968
                },
                {
                    "name": "D4",
                    "midi": 62,
                    "time": 116.11832799583355,
                    "velocity": 0.3228346456692913,
                    "duration": 0.06129952500000968
                },
                {
                    "name": "E4",
                    "midi": 64,
                    "time": 116.17622199166689,
                    "velocity": 0.3228346456692913,
                    "duration": 0.06129952500000968
                },
                {
                    "name": "F4",
                    "midi": 65,
                    "time": 116.23411598750023,
                    "velocity": 0.3228346456692913,
                    "duration": 0.06129952500000968
                },
                {
                    "name": "G4",
                    "midi": 67,
                    "time": 116.29200998333357,
                    "velocity": 0.33070866141732286,
                    "duration": 0.06129952500000968
                },
                {
                    "name": "A4",
                    "midi": 69,
                    "time": 116.34990397916691,
                    "velocity": 0.33858267716535434,
                    "duration": 0.06129952500000968
                },
                {
                    "name": "B4",
                    "midi": 71,
                    "time": 116.40779797500025,
                    "velocity": 0.33858267716535434,
                    "duration": 0.06129952500000968
                },
                {
                    "name": "C5",
                    "midi": 72,
                    "time": 116.46909750000026,
                    "velocity": 0.33070866141732286,
                    "duration": 0.06129952500000968
                },
                {
                    "name": "D5",
                    "midi": 74,
                    "time": 116.5269914958336,
                    "velocity": 0.33858267716535434,
                    "duration": 0.06129952500000968
                },
                {
                    "name": "E5",
                    "midi": 76,
                    "time": 116.58488549166694,
                    "velocity": 0.33858267716535434,
                    "duration": 0.06129952500000968
                },
                {
                    "name": "F5",
                    "midi": 77,
                    "time": 116.64277948750028,
                    "velocity": 0.33858267716535434,
                    "duration": 0.06129952500000968
                },
                {
                    "name": "G5",
                    "midi": 79,
                    "time": 116.70067348333362,
                    "velocity": 0.3464566929133858,
                    "duration": 0.06129952500000968
                },
                {
                    "name": "A5",
                    "midi": 81,
                    "time": 116.75856747916696,
                    "velocity": 0.33070866141732286,
                    "duration": 0.06129952500000968
                },
                {
                    "name": "B5",
                    "midi": 83,
                    "time": 116.8164614750003,
                    "velocity": 0.33070866141732286,
                    "duration": 0.06129952500000968
                },
                {
                    "name": "C6",
                    "midi": 84,
                    "time": 116.8777610000003,
                    "velocity": 0.3779527559055118,
                    "duration": 0.200926220833324
                },
                {
                    "name": "B5",
                    "midi": 83,
                    "time": 117.2864245000003,
                    "velocity": 0.25196850393700787,
                    "duration": 0.09876034583332682
                },
                {
                    "name": "D5",
                    "midi": 74,
                    "time": 117.2864245000003,
                    "velocity": 0.2125984251968504,
                    "duration": 0.09876034583332682
                },
                {
                    "name": "F5",
                    "midi": 77,
                    "time": 117.2864245000003,
                    "velocity": 0.2125984251968504,
                    "duration": 0.09876034583332682
                },
                {
                    "name": "D5",
                    "midi": 74,
                    "time": 117.49075625000029,
                    "velocity": 0.2125984251968504,
                    "duration": 0.09876034583332682
                },
                {
                    "name": "F5",
                    "midi": 77,
                    "time": 117.49075625000029,
                    "velocity": 0.2125984251968504,
                    "duration": 0.09876034583332682
                },
                {
                    "name": "B5",
                    "midi": 83,
                    "time": 117.49075625000029,
                    "velocity": 0.25196850393700787,
                    "duration": 0.09876034583332682
                },
                {
                    "name": "E4",
                    "midi": 64,
                    "time": 117.59292212500029,
                    "velocity": 0.28346456692913385,
                    "duration": 0.09876034583332682
                },
                {
                    "name": "A5",
                    "midi": 81,
                    "time": 117.69508800000028,
                    "velocity": 0.28346456692913385,
                    "duration": 0.8173269999999917
                },
                {
                    "name": "C5",
                    "midi": 72,
                    "time": 117.69508800000028,
                    "velocity": 0.25196850393700787,
                    "duration": 0.8173269999999917
                },
                {
                    "name": "E5",
                    "midi": 76,
                    "time": 117.69508800000028,
                    "velocity": 0.25196850393700787,
                    "duration": 0.8173269999999917
                },
                {
                    "name": "B4",
                    "midi": 71,
                    "time": 118.51241500000027,
                    "velocity": 0.2047244094488189,
                    "duration": 0.35758056250000436
                },
                {
                    "name": "E5",
                    "midi": 76,
                    "time": 118.51241500000027,
                    "velocity": 0.2047244094488189,
                    "duration": 0.35758056250000436
                },
                {
                    "name": "G#5",
                    "midi": 80,
                    "time": 118.51241500000027,
                    "velocity": 0.23622047244094488,
                    "duration": 0.35758056250000436
                },
                {
                    "name": "D2",
                    "midi": 38,
                    "time": 118.92107850000028,
                    "velocity": 0.5590551181102362,
                    "duration": 0.20092622083333822
                },
                {
                    "name": "D3",
                    "midi": 50,
                    "time": 118.92107850000028,
                    "velocity": 0.5590551181102362,
                    "duration": 0.20092622083333822
                },
                {
                    "name": "F2",
                    "midi": 41,
                    "time": 119.32974200000028,
                    "velocity": 0.6062992125984252,
                    "duration": 1.2259904999999947
                },
                {
                    "name": "F3",
                    "midi": 53,
                    "time": 119.32974200000028,
                    "velocity": 0.6062992125984252,
                    "duration": 1.2259904999999947
                },
                {
                    "name": "D2",
                    "midi": 38,
                    "time": 120.55573250000027,
                    "velocity": 0.5669291338582677,
                    "duration": 0.20433174999999437
                },
                {
                    "name": "D3",
                    "midi": 50,
                    "time": 120.55573250000027,
                    "velocity": 0.5669291338582677,
                    "duration": 0.20433174999999437
                },
                {
                    "name": "B1",
                    "midi": 35,
                    "time": 120.96439600000026,
                    "velocity": 0.6220472440944882,
                    "duration": 0.39163585416666535
                },
                {
                    "name": "B2",
                    "midi": 47,
                    "time": 120.96439600000026,
                    "velocity": 0.6220472440944882,
                    "duration": 0.39163585416666535
                },
                {
                    "name": "G#1",
                    "midi": 32,
                    "time": 121.37305950000027,
                    "velocity": 0.5826771653543307,
                    "duration": 0.40866350000000295
                },
                {
                    "name": "G#2",
                    "midi": 44,
                    "time": 121.37305950000027,
                    "velocity": 0.5826771653543307,
                    "duration": 0.40866350000000295
                },
                {
                    "name": "D3",
                    "midi": 50,
                    "time": 122.19038650000027,
                    "velocity": 0.28346456692913385,
                    "duration": 0.06129952500000968
                },
                {
                    "name": "E3",
                    "midi": 52,
                    "time": 122.24828049583361,
                    "velocity": 0.28346456692913385,
                    "duration": 0.06129952500000968
                },
                {
                    "name": "F3",
                    "midi": 53,
                    "time": 122.30617449166695,
                    "velocity": 0.28346456692913385,
                    "duration": 0.06129952500000968
                },
                {
                    "name": "G3",
                    "midi": 55,
                    "time": 122.36406848750029,
                    "velocity": 0.29133858267716534,
                    "duration": 0.06129952500000968
                },
                {
                    "name": "A3",
                    "midi": 57,
                    "time": 122.42196248333363,
                    "velocity": 0.29133858267716534,
                    "duration": 0.06129952500000968
                },
                {
                    "name": "B3",
                    "midi": 59,
                    "time": 122.47985647916697,
                    "velocity": 0.2992125984251969,
                    "duration": 0.06129952500000968
                },
                {
                    "name": "C4",
                    "midi": 60,
                    "time": 122.53775047500031,
                    "velocity": 0.31496062992125984,
                    "duration": 0.06129952500000968
                },
                {
                    "name": "D4",
                    "midi": 62,
                    "time": 122.59905000000032,
                    "velocity": 0.31496062992125984,
                    "duration": 0.06129952500000968
                },
                {
                    "name": "E4",
                    "midi": 64,
                    "time": 122.65694399583366,
                    "velocity": 0.3228346456692913,
                    "duration": 0.06129952500000968
                },
                {
                    "name": "F4",
                    "midi": 65,
                    "time": 122.714837991667,
                    "velocity": 0.3228346456692913,
                    "duration": 0.06129952500000968
                },
                {
                    "name": "G4",
                    "midi": 67,
                    "time": 122.77273198750034,
                    "velocity": 0.3228346456692913,
                    "duration": 0.06129952500000968
                },
                {
                    "name": "A4",
                    "midi": 69,
                    "time": 122.83062598333368,
                    "velocity": 0.33070866141732286,
                    "duration": 0.06129952500000968
                },
                {
                    "name": "B4",
                    "midi": 71,
                    "time": 122.88851997916701,
                    "velocity": 0.33858267716535434,
                    "duration": 0.06129952500000968
                },
                {
                    "name": "C5",
                    "midi": 72,
                    "time": 122.94641397500035,
                    "velocity": 0.33858267716535434,
                    "duration": 0.06129952500000968
                },
                {
                    "name": "D5",
                    "midi": 74,
                    "time": 123.00771350000036,
                    "velocity": 0.33070866141732286,
                    "duration": 0.06129952500000968
                },
                {
                    "name": "E5",
                    "midi": 76,
                    "time": 123.0656074958337,
                    "velocity": 0.33070866141732286,
                    "duration": 0.06129952500000968
                },
                {
                    "name": "F5",
                    "midi": 77,
                    "time": 123.12350149166704,
                    "velocity": 0.33858267716535434,
                    "duration": 0.06129952500000968
                },
                {
                    "name": "G5",
                    "midi": 79,
                    "time": 123.18139548750038,
                    "velocity": 0.33858267716535434,
                    "duration": 0.06129952500000968
                },
                {
                    "name": "A5",
                    "midi": 81,
                    "time": 123.23928948333372,
                    "velocity": 0.33858267716535434,
                    "duration": 0.06129952500000968
                },
                {
                    "name": "B5",
                    "midi": 83,
                    "time": 123.29718347916706,
                    "velocity": 0.33070866141732286,
                    "duration": 0.06129952500000968
                },
                {
                    "name": "C6",
                    "midi": 84,
                    "time": 123.3550774750004,
                    "velocity": 0.33070866141732286,
                    "duration": 0.06129952500000968
                },
                {
                    "name": "D6",
                    "midi": 86,
                    "time": 123.41637700000041,
                    "velocity": 0.3779527559055118,
                    "duration": 0.20092622083333822
                },
                {
                    "name": "G#4",
                    "midi": 68,
                    "time": 123.82504050000041,
                    "velocity": 0.2125984251968504,
                    "duration": 0.09876034583332682
                },
                {
                    "name": "F5",
                    "midi": 77,
                    "time": 123.82504050000041,
                    "velocity": 0.25196850393700787,
                    "duration": 0.09876034583332682
                },
                {
                    "name": "E5",
                    "midi": 76,
                    "time": 124.0293722500004,
                    "velocity": 0.25196850393700787,
                    "duration": 0.09876034583332682
                },
                {
                    "name": "G#4",
                    "midi": 68,
                    "time": 124.0293722500004,
                    "velocity": 0.2125984251968504,
                    "duration": 0.09876034583332682
                },
                {
                    "name": "G#5",
                    "midi": 80,
                    "time": 124.2337040000004,
                    "velocity": 0.28346456692913385,
                    "duration": 0.8173270000000059
                },
                {
                    "name": "A4",
                    "midi": 69,
                    "time": 124.2337040000004,
                    "velocity": 0.25196850393700787,
                    "duration": 0.8173270000000059
                },
                {
                    "name": "F5",
                    "midi": 77,
                    "time": 124.2337040000004,
                    "velocity": 0.25196850393700787,
                    "duration": 0.8173270000000059
                },
                {
                    "name": "A4",
                    "midi": 69,
                    "time": 125.0510310000004,
                    "velocity": 0.23622047244094488,
                    "duration": 0.34055291666666676
                },
                {
                    "name": "E5",
                    "midi": 76,
                    "time": 125.0510310000004,
                    "velocity": 0.23622047244094488,
                    "duration": 0.34055291666666676
                },
                {
                    "name": "A5",
                    "midi": 81,
                    "time": 125.0510310000004,
                    "velocity": 0.2677165354330709,
                    "duration": 0.34055291666666676
                },
                {
                    "name": "G4",
                    "midi": 67,
                    "time": 126.53243618750041,
                    "velocity": 0.2125984251968504,
                    "duration": 0.45974643750000155
                },
                {
                    "name": "C#5",
                    "midi": 73,
                    "time": 126.58351912500041,
                    "velocity": 0.2125984251968504,
                    "duration": 0.40866350000000295
                },
                {
                    "name": "E5",
                    "midi": 76,
                    "time": 126.6346020625004,
                    "velocity": 0.2125984251968504,
                    "duration": 0.35758056250000436
                },
                {
                    "name": "A5",
                    "midi": 81,
                    "time": 126.6856850000004,
                    "velocity": 0.25984251968503935,
                    "duration": 0.30649762500000577
                },
                {
                    "name": "D5",
                    "midi": 74,
                    "time": 127.91167550000041,
                    "velocity": 0.2125984251968504,
                    "duration": 0.30649762500000577
                },
                {
                    "name": "A5",
                    "midi": 81,
                    "time": 127.91167550000041,
                    "velocity": 0.2440944881889764,
                    "duration": 0.30649762500000577
                },
                {
                    "name": "F5",
                    "midi": 77,
                    "time": 127.91167550000041,
                    "velocity": 0.2125984251968504,
                    "duration": 0.30649762500000577
                },
                {
                    "name": "D6",
                    "midi": 86,
                    "time": 128.32033900000042,
                    "velocity": 0.28346456692913385,
                    "duration": 0.30649762499999156
                },
                {
                    "name": "A5",
                    "midi": 81,
                    "time": 128.32033900000042,
                    "velocity": 0.25196850393700787,
                    "duration": 0.30649762499999156
                },
                {
                    "name": "F5",
                    "midi": 77,
                    "time": 128.32033900000042,
                    "velocity": 0.25196850393700787,
                    "duration": 0.30649762499999156
                },
                {
                    "name": "F4",
                    "midi": 65,
                    "time": 129.80174418750042,
                    "velocity": 0.2125984251968504,
                    "duration": 0.45974643750002997
                },
                {
                    "name": "B4",
                    "midi": 71,
                    "time": 129.85282712500043,
                    "velocity": 0.2125984251968504,
                    "duration": 0.40866350000001717
                },
                {
                    "name": "D5",
                    "midi": 74,
                    "time": 129.90391006250044,
                    "velocity": 0.2125984251968504,
                    "duration": 0.35758056250000436
                },
                {
                    "name": "G5",
                    "midi": 79,
                    "time": 129.95499300000046,
                    "velocity": 0.2677165354330709,
                    "duration": 0.30649762499999156
                },
                {
                    "name": "C5",
                    "midi": 72,
                    "time": 131.18098350000045,
                    "velocity": 0.2125984251968504,
                    "duration": 0.30649762499999156
                },
                {
                    "name": "G5",
                    "midi": 79,
                    "time": 131.18098350000045,
                    "velocity": 0.2440944881889764,
                    "duration": 0.30649762499999156
                },
                {
                    "name": "E5",
                    "midi": 76,
                    "time": 131.18098350000045,
                    "velocity": 0.2125984251968504,
                    "duration": 0.30649762499999156
                },
                {
                    "name": "C6",
                    "midi": 84,
                    "time": 131.58964700000044,
                    "velocity": 0.28346456692913385,
                    "duration": 0.30649762499999156
                },
                {
                    "name": "G5",
                    "midi": 79,
                    "time": 131.58964700000044,
                    "velocity": 0.25196850393700787,
                    "duration": 0.30649762499999156
                },
                {
                    "name": "E5",
                    "midi": 76,
                    "time": 131.58964700000044,
                    "velocity": 0.25196850393700787,
                    "duration": 0.30649762499999156
                },
                {
                    "name": "D6",
                    "midi": 86,
                    "time": 133.22430100000042,
                    "velocity": 0.28346456692913385,
                    "duration": 0.30649762499999156
                },
                {
                    "name": "B5",
                    "midi": 83,
                    "time": 133.22430100000042,
                    "velocity": 0.25984251968503935,
                    "duration": 0.30649762499999156
                },
                {
                    "name": "F5",
                    "midi": 77,
                    "time": 133.22430100000042,
                    "velocity": 0.25984251968503935,
                    "duration": 0.30649762499999156
                },
                {
                    "name": "C6",
                    "midi": 84,
                    "time": 134.8589550000004,
                    "velocity": 0.28346456692913385,
                    "duration": 0.30649762499999156
                },
                {
                    "name": "A5",
                    "midi": 81,
                    "time": 134.8589550000004,
                    "velocity": 0.25984251968503935,
                    "duration": 0.30649762499999156
                },
                {
                    "name": "E5",
                    "midi": 76,
                    "time": 134.8589550000004,
                    "velocity": 0.25984251968503935,
                    "duration": 0.30649762499999156
                },
                {
                    "name": "C6",
                    "midi": 84,
                    "time": 135.67628200000038,
                    "velocity": 0.28346456692913385,
                    "duration": 0.30649762499999156
                },
                {
                    "name": "A5",
                    "midi": 81,
                    "time": 135.67628200000038,
                    "velocity": 0.25984251968503935,
                    "duration": 0.30649762499999156
                },
                {
                    "name": "F5",
                    "midi": 77,
                    "time": 135.67628200000038,
                    "velocity": 0.25984251968503935,
                    "duration": 0.30649762499999156
                },
                {
                    "name": "F5",
                    "midi": 77,
                    "time": 136.49360900000036,
                    "velocity": 0.25984251968503935,
                    "duration": 0.30649762499999156
                },
                {
                    "name": "A5",
                    "midi": 81,
                    "time": 136.49360900000036,
                    "velocity": 0.28346456692913385,
                    "duration": 0.30649762499999156
                },
                {
                    "name": "C5",
                    "midi": 72,
                    "time": 136.49360900000036,
                    "velocity": 0.25984251968503935,
                    "duration": 0.30649762499999156
                },
                {
                    "name": "G#5",
                    "midi": 80,
                    "time": 137.31093600000034,
                    "velocity": 0.25196850393700787,
                    "duration": 0.30649762499999156
                },
                {
                    "name": "E4",
                    "midi": 64,
                    "time": 137.31093600000034,
                    "velocity": 0.2125984251968504,
                    "duration": 0.30649762499999156
                },
                {
                    "name": "B4",
                    "midi": 71,
                    "time": 137.31093600000034,
                    "velocity": 0.2125984251968504,
                    "duration": 0.30649762499999156
                },
                {
                    "name": "G2",
                    "midi": 43,
                    "time": 138.53692650000033,
                    "velocity": 0.5590551181102362,
                    "duration": 0.20092622083333822
                },
                {
                    "name": "G3",
                    "midi": 55,
                    "time": 138.53692650000033,
                    "velocity": 0.5590551181102362,
                    "duration": 0.20092622083333822
                },
                {
                    "name": "C3",
                    "midi": 48,
                    "time": 138.94559000000035,
                    "velocity": 0.6062992125984252,
                    "duration": 1.2259904999999947
                },
                {
                    "name": "C4",
                    "midi": 60,
                    "time": 138.94559000000035,
                    "velocity": 0.6062992125984252,
                    "duration": 1.2259904999999947
                },
                {
                    "name": "G2",
                    "midi": 43,
                    "time": 140.17158050000035,
                    "velocity": 0.5669291338582677,
                    "duration": 0.20433174999999437
                },
                {
                    "name": "G3",
                    "midi": 55,
                    "time": 140.17158050000035,
                    "velocity": 0.5669291338582677,
                    "duration": 0.20433174999999437
                },
                {
                    "name": "E2",
                    "midi": 40,
                    "time": 140.58024400000033,
                    "velocity": 0.6220472440944882,
                    "duration": 0.40866349999998874
                },
                {
                    "name": "E3",
                    "midi": 52,
                    "time": 140.58024400000033,
                    "velocity": 0.6220472440944882,
                    "duration": 0.40866349999998874
                },
                {
                    "name": "C2",
                    "midi": 36,
                    "time": 140.98890750000032,
                    "velocity": 0.5984251968503937,
                    "duration": 0.40866349999998874
                },
                {
                    "name": "C3",
                    "midi": 48,
                    "time": 140.98890750000032,
                    "velocity": 0.5984251968503937,
                    "duration": 0.40866349999998874
                },
                {
                    "name": "E3",
                    "midi": 52,
                    "time": 141.8062345000003,
                    "velocity": 0.28346456692913385,
                    "duration": 0.06129952499998126
                },
                {
                    "name": "F3",
                    "midi": 53,
                    "time": 141.86412849583363,
                    "velocity": 0.28346456692913385,
                    "duration": 0.06129952499998126
                },
                {
                    "name": "G3",
                    "midi": 55,
                    "time": 141.92202249166695,
                    "velocity": 0.28346456692913385,
                    "duration": 0.06129952499998126
                },
                {
                    "name": "A3",
                    "midi": 57,
                    "time": 141.97991648750028,
                    "velocity": 0.29133858267716534,
                    "duration": 0.06129952499998126
                },
                {
                    "name": "B3",
                    "midi": 59,
                    "time": 142.0378104833336,
                    "velocity": 0.29133858267716534,
                    "duration": 0.06129952499998126
                },
                {
                    "name": "C4",
                    "midi": 60,
                    "time": 142.09570447916693,
                    "velocity": 0.2992125984251969,
                    "duration": 0.06129952499998126
                },
                {
                    "name": "D4",
                    "midi": 62,
                    "time": 142.15359847500025,
                    "velocity": 0.31496062992125984,
                    "duration": 0.06129952499998126
                },
                {
                    "name": "E4",
                    "midi": 64,
                    "time": 142.21489800000023,
                    "velocity": 0.31496062992125984,
                    "duration": 0.06129952499998126
                },
                {
                    "name": "F4",
                    "midi": 65,
                    "time": 142.27279199583356,
                    "velocity": 0.3228346456692913,
                    "duration": 0.06129952499998126
                },
                {
                    "name": "G4",
                    "midi": 67,
                    "time": 142.33068599166688,
                    "velocity": 0.3228346456692913,
                    "duration": 0.06129952499998126
                },
                {
                    "name": "A4",
                    "midi": 69,
                    "time": 142.3885799875002,
                    "velocity": 0.3228346456692913,
                    "duration": 0.06129952499998126
                },
                {
                    "name": "B4",
                    "midi": 71,
                    "time": 142.44647398333353,
                    "velocity": 0.33070866141732286,
                    "duration": 0.06129952499998126
                },
                {
                    "name": "C5",
                    "midi": 72,
                    "time": 142.50436797916686,
                    "velocity": 0.33858267716535434,
                    "duration": 0.06129952499998126
                },
                {
                    "name": "D5",
                    "midi": 74,
                    "time": 142.56226197500018,
                    "velocity": 0.33858267716535434,
                    "duration": 0.06129952499998126
                },
                {
                    "name": "E5",
                    "midi": 76,
                    "time": 142.62356150000016,
                    "velocity": 0.33070866141732286,
                    "duration": 0.06129952499998126
                },
                {
                    "name": "F5",
                    "midi": 77,
                    "time": 142.6814554958335,
                    "velocity": 0.33070866141732286,
                    "duration": 0.06129952499998126
                },
                {
                    "name": "G5",
                    "midi": 79,
                    "time": 142.73934949166681,
                    "velocity": 0.33858267716535434,
                    "duration": 0.06129952499998126
                },
                {
                    "name": "A5",
                    "midi": 81,
                    "time": 142.79724348750014,
                    "velocity": 0.33858267716535434,
                    "duration": 0.06129952499998126
                },
                {
                    "name": "B5",
                    "midi": 83,
                    "time": 142.85513748333346,
                    "velocity": 0.33858267716535434,
                    "duration": 0.06129952499998126
                },
                {
                    "name": "C6",
                    "midi": 84,
                    "time": 142.9130314791668,
                    "velocity": 0.33070866141732286,
                    "duration": 0.06129952499998126
                },
                {
                    "name": "D6",
                    "midi": 86,
                    "time": 142.97092547500012,
                    "velocity": 0.33070866141732286,
                    "duration": 0.06129952499998126
                },
                {
                    "name": "E6",
                    "midi": 88,
                    "time": 143.0322250000001,
                    "velocity": 0.3779527559055118,
                    "duration": 0.20092622083333822
                },
                {
                    "name": "D6",
                    "midi": 86,
                    "time": 143.4408885000001,
                    "velocity": 0.25196850393700787,
                    "duration": 0.09876034583334103
                },
                {
                    "name": "F5",
                    "midi": 77,
                    "time": 143.4408885000001,
                    "velocity": 0.2125984251968504,
                    "duration": 0.09876034583334103
                },
                {
                    "name": "A5",
                    "midi": 81,
                    "time": 143.4408885000001,
                    "velocity": 0.2125984251968504,
                    "duration": 0.09876034583334103
                },
                {
                    "name": "F5",
                    "midi": 77,
                    "time": 143.6452202500001,
                    "velocity": 0.2125984251968504,
                    "duration": 0.09876034583334103
                },
                {
                    "name": "A5",
                    "midi": 81,
                    "time": 143.6452202500001,
                    "velocity": 0.2125984251968504,
                    "duration": 0.09876034583334103
                },
                {
                    "name": "D6",
                    "midi": 86,
                    "time": 143.6452202500001,
                    "velocity": 0.25196850393700787,
                    "duration": 0.09876034583334103
                },
                {
                    "name": "G4",
                    "midi": 67,
                    "time": 143.7473861250001,
                    "velocity": 0.28346456692913385,
                    "duration": 0.9194928750000031
                },
                {
                    "name": "C6",
                    "midi": 84,
                    "time": 143.8495520000001,
                    "velocity": 0.28346456692913385,
                    "duration": 0.8173270000000059
                },
                {
                    "name": "E5",
                    "midi": 76,
                    "time": 143.8495520000001,
                    "velocity": 0.28346456692913385,
                    "duration": 0.8173270000000059
                },
                {
                    "name": "G4",
                    "midi": 67,
                    "time": 144.6668790000001,
                    "velocity": 0.2677165354330709,
                    "duration": 0.35758056250000436
                },
                {
                    "name": "D5",
                    "midi": 74,
                    "time": 144.6668790000001,
                    "velocity": 0.2677165354330709,
                    "duration": 0.35758056250000436
                },
                {
                    "name": "B5",
                    "midi": 83,
                    "time": 144.6668790000001,
                    "velocity": 0.2677165354330709,
                    "duration": 0.35758056250000436
                },
                {
                    "name": "D2",
                    "midi": 38,
                    "time": 145.07554250000013,
                    "velocity": 0.49606299212598426,
                    "duration": 0.20092622083333822
                },
                {
                    "name": "D3",
                    "midi": 50,
                    "time": 145.07554250000013,
                    "velocity": 0.49606299212598426,
                    "duration": 0.20092622083333822
                },
                {
                    "name": "F2",
                    "midi": 41,
                    "time": 145.48420600000014,
                    "velocity": 0.5511811023622047,
                    "duration": 1.2259904999999947
                },
                {
                    "name": "F3",
                    "midi": 53,
                    "time": 145.48420600000014,
                    "velocity": 0.5511811023622047,
                    "duration": 1.2259904999999947
                },
                {
                    "name": "D2",
                    "midi": 38,
                    "time": 146.71019650000014,
                    "velocity": 0.5039370078740157,
                    "duration": 0.30649762499999156
                },
                {
                    "name": "D3",
                    "midi": 50,
                    "time": 146.71019650000014,
                    "velocity": 0.5039370078740157,
                    "duration": 0.30649762499999156
                },
                {
                    "name": "B1",
                    "midi": 35,
                    "time": 147.11886000000013,
                    "velocity": 0.5590551181102362,
                    "duration": 0.40866349999998874
                },
                {
                    "name": "B2",
                    "midi": 47,
                    "time": 147.11886000000013,
                    "velocity": 0.5590551181102362,
                    "duration": 0.40866349999998874
                },
                {
                    "name": "G1",
                    "midi": 31,
                    "time": 147.52752350000011,
                    "velocity": 0.5275590551181102,
                    "duration": 0.40866349999998874
                },
                {
                    "name": "G2",
                    "midi": 43,
                    "time": 147.52752350000011,
                    "velocity": 0.5275590551181102,
                    "duration": 0.40866349999998874
                },
                {
                    "name": "D3",
                    "midi": 50,
                    "time": 148.3448505000001,
                    "velocity": 0.28346456692913385,
                    "duration": 0.06129952499998126
                },
                {
                    "name": "E3",
                    "midi": 52,
                    "time": 148.40274449583342,
                    "velocity": 0.28346456692913385,
                    "duration": 0.06129952499998126
                },
                {
                    "name": "F3",
                    "midi": 53,
                    "time": 148.46063849166674,
                    "velocity": 0.28346456692913385,
                    "duration": 0.06129952499998126
                },
                {
                    "name": "G3",
                    "midi": 55,
                    "time": 148.51853248750007,
                    "velocity": 0.29133858267716534,
                    "duration": 0.06129952499998126
                },
                {
                    "name": "A3",
                    "midi": 57,
                    "time": 148.5764264833334,
                    "velocity": 0.29133858267716534,
                    "duration": 0.06129952499998126
                },
                {
                    "name": "B3",
                    "midi": 59,
                    "time": 148.63432047916672,
                    "velocity": 0.2992125984251969,
                    "duration": 0.06129952499998126
                },
                {
                    "name": "C4",
                    "midi": 60,
                    "time": 148.69221447500004,
                    "velocity": 0.31496062992125984,
                    "duration": 0.06129952499998126
                },
                {
                    "name": "D4",
                    "midi": 62,
                    "time": 148.75351400000002,
                    "velocity": 0.31496062992125984,
                    "duration": 0.06129952499998126
                },
                {
                    "name": "E4",
                    "midi": 64,
                    "time": 148.81140799583335,
                    "velocity": 0.3228346456692913,
                    "duration": 0.06129952499998126
                },
                {
                    "name": "F4",
                    "midi": 65,
                    "time": 148.86930199166667,
                    "velocity": 0.3228346456692913,
                    "duration": 0.06129952499998126
                },
                {
                    "name": "G4",
                    "midi": 67,
                    "time": 148.9271959875,
                    "velocity": 0.3228346456692913,
                    "duration": 0.06129952499998126
                },
                {
                    "name": "A4",
                    "midi": 69,
                    "time": 148.98508998333332,
                    "velocity": 0.33070866141732286,
                    "duration": 0.06129952499998126
                },
                {
                    "name": "B4",
                    "midi": 71,
                    "time": 149.04298397916665,
                    "velocity": 0.33858267716535434,
                    "duration": 0.06129952499998126
                },
                {
                    "name": "C5",
                    "midi": 72,
                    "time": 149.10087797499997,
                    "velocity": 0.33858267716535434,
                    "duration": 0.06129952499998126
                },
                {
                    "name": "D5",
                    "midi": 74,
                    "time": 149.16217749999996,
                    "velocity": 0.33070866141732286,
                    "duration": 0.06129952499998126
                },
                {
                    "name": "E5",
                    "midi": 76,
                    "time": 149.22007149583328,
                    "velocity": 0.33070866141732286,
                    "duration": 0.06129952499998126
                },
                {
                    "name": "F5",
                    "midi": 77,
                    "time": 149.2779654916666,
                    "velocity": 0.33858267716535434,
                    "duration": 0.06129952499998126
                },
                {
                    "name": "G5",
                    "midi": 79,
                    "time": 149.33585948749993,
                    "velocity": 0.33858267716535434,
                    "duration": 0.06129952499998126
                },
                {
                    "name": "A5",
                    "midi": 81,
                    "time": 149.39375348333326,
                    "velocity": 0.33858267716535434,
                    "duration": 0.06129952499998126
                },
                {
                    "name": "B5",
                    "midi": 83,
                    "time": 149.45164747916658,
                    "velocity": 0.33070866141732286,
                    "duration": 0.06129952499998126
                },
                {
                    "name": "C6",
                    "midi": 84,
                    "time": 149.5095414749999,
                    "velocity": 0.33070866141732286,
                    "duration": 0.06129952499998126
                },
                {
                    "name": "D6",
                    "midi": 86,
                    "time": 149.5708409999999,
                    "velocity": 0.3779527559055118,
                    "duration": 0.20092622083333822
                },
                {
                    "name": "B4",
                    "midi": 71,
                    "time": 149.9795044999999,
                    "velocity": 0.2125984251968504,
                    "duration": 0.09876034583334103
                },
                {
                    "name": "A5",
                    "midi": 81,
                    "time": 149.9795044999999,
                    "velocity": 0.25196850393700787,
                    "duration": 0.09876034583334103
                },
                {
                    "name": "G5",
                    "midi": 79,
                    "time": 150.1838362499999,
                    "velocity": 0.25196850393700787,
                    "duration": 0.09876034583334103
                },
                {
                    "name": "B4",
                    "midi": 71,
                    "time": 150.1838362499999,
                    "velocity": 0.2125984251968504,
                    "duration": 0.09876034583334103
                },
                {
                    "name": "F5",
                    "midi": 77,
                    "time": 150.3881679999999,
                    "velocity": 0.28346456692913385,
                    "duration": 0.8173269999999775
                },
                {
                    "name": "B4",
                    "midi": 71,
                    "time": 150.3881679999999,
                    "velocity": 0.25196850393700787,
                    "duration": 0.8173269999999775
                },
                {
                    "name": "G4",
                    "midi": 67,
                    "time": 150.3881679999999,
                    "velocity": 0.25196850393700787,
                    "duration": 0.8173269999999775
                },
                {
                    "name": "C5",
                    "midi": 72,
                    "time": 151.20549499999987,
                    "velocity": 0.23622047244094488,
                    "duration": 0.34055291666666676
                },
                {
                    "name": "E5",
                    "midi": 76,
                    "time": 151.20549499999987,
                    "velocity": 0.2677165354330709,
                    "duration": 0.34055291666666676
                },
                {
                    "name": "A#4",
                    "midi": 70,
                    "time": 152.68690018749987,
                    "velocity": 0.2125984251968504,
                    "duration": 0.45974643750002997
                },
                {
                    "name": "E5",
                    "midi": 76,
                    "time": 152.7379831249999,
                    "velocity": 0.2125984251968504,
                    "duration": 0.40866350000001717
                },
                {
                    "name": "G5",
                    "midi": 79,
                    "time": 152.7890660624999,
                    "velocity": 0.2125984251968504,
                    "duration": 0.35758056250000436
                },
                {
                    "name": "C6",
                    "midi": 84,
                    "time": 152.8401489999999,
                    "velocity": 0.25984251968503935,
                    "duration": 0.30649762499999156
                },
                {
                    "name": "A5",
                    "midi": 81,
                    "time": 154.0661394999999,
                    "velocity": 0.2440944881889764,
                    "duration": 0.30649762499999156
                },
                {
                    "name": "F5",
                    "midi": 77,
                    "time": 154.0661394999999,
                    "velocity": 0.2125984251968504,
                    "duration": 0.30649762499999156
                },
                {
                    "name": "C5",
                    "midi": 72,
                    "time": 154.4748029999999,
                    "velocity": 0.25196850393700787,
                    "duration": 0.30649762499999156
                },
                {
                    "name": "A5",
                    "midi": 81,
                    "time": 154.4748029999999,
                    "velocity": 0.28346456692913385,
                    "duration": 0.30649762499999156
                },
                {
                    "name": "F5",
                    "midi": 77,
                    "time": 154.4748029999999,
                    "velocity": 0.25196850393700787,
                    "duration": 0.30649762499999156
                },
                {
                    "name": "C5",
                    "midi": 72,
                    "time": 155.9562081874999,
                    "velocity": 0.2125984251968504,
                    "duration": 0.45974643750002997
                },
                {
                    "name": "F#5",
                    "midi": 78,
                    "time": 156.0072911249999,
                    "velocity": 0.2125984251968504,
                    "duration": 0.40866350000001717
                },
                {
                    "name": "A5",
                    "midi": 81,
                    "time": 156.05837406249992,
                    "velocity": 0.2125984251968504,
                    "duration": 0.35758056250000436
                },
                {
                    "name": "D6",
                    "midi": 86,
                    "time": 156.10945699999994,
                    "velocity": 0.2677165354330709,
                    "duration": 0.30649762499999156
                },
                {
                    "name": "G5",
                    "midi": 79,
                    "time": 157.33544749999993,
                    "velocity": 0.23622047244094488,
                    "duration": 0.30649762499999156
                },
                {
                    "name": "B5",
                    "midi": 83,
                    "time": 157.33544749999993,
                    "velocity": 0.2677165354330709,
                    "duration": 0.30649762499999156
                },
                {
                    "name": "B5",
                    "midi": 83,
                    "time": 157.74411099999992,
                    "velocity": 0.31496062992125984,
                    "duration": 0.30649762499999156
                },
                {
                    "name": "G5",
                    "midi": 79,
                    "time": 157.74411099999992,
                    "velocity": 0.2755905511811024,
                    "duration": 0.30649762499999156
                },
                {
                    "name": "D5",
                    "midi": 74,
                    "time": 157.74411099999992,
                    "velocity": 0.2755905511811024,
                    "duration": 0.30649762499999156
                },
                {
                    "name": "D5",
                    "midi": 74,
                    "time": 159.22551618749992,
                    "velocity": 0.25196850393700787,
                    "duration": 0.45974643750002997
                },
                {
                    "name": "G#5",
                    "midi": 80,
                    "time": 159.27659912499993,
                    "velocity": 0.25196850393700787,
                    "duration": 0.40866350000001717
                },
                {
                    "name": "B5",
                    "midi": 83,
                    "time": 159.32768206249995,
                    "velocity": 0.25196850393700787,
                    "duration": 0.35758056250000436
                },
                {
                    "name": "E6",
                    "midi": 88,
                    "time": 159.37876499999996,
                    "velocity": 0.28346456692913385,
                    "duration": 0.30649762499999156
                },
                {
                    "name": "C6",
                    "midi": 84,
                    "time": 160.60475549999995,
                    "velocity": 0.28346456692913385,
                    "duration": 0.30649762499999156
                },
                {
                    "name": "A5",
                    "midi": 81,
                    "time": 160.60475549999995,
                    "velocity": 0.25984251968503935,
                    "duration": 0.30649762499999156
                },
                {
                    "name": "C6",
                    "midi": 84,
                    "time": 161.01341899999994,
                    "velocity": 0.3228346456692913,
                    "duration": 0.30649762499999156
                },
                {
                    "name": "A5",
                    "midi": 81,
                    "time": 161.01341899999994,
                    "velocity": 0.28346456692913385,
                    "duration": 0.30649762499999156
                },
                {
                    "name": "E5",
                    "midi": 76,
                    "time": 161.01341899999994,
                    "velocity": 0.28346456692913385,
                    "duration": 0.30649762499999156
                },
                {
                    "name": "C5",
                    "midi": 72,
                    "time": 162.23940949999994,
                    "velocity": 0.18110236220472442,
                    "duration": 0.30649762499999156
                },
                {
                    "name": "F5",
                    "midi": 77,
                    "time": 162.23940949999994,
                    "velocity": 0.18110236220472442,
                    "duration": 0.30649762499999156
                },
                {
                    "name": "A5",
                    "midi": 81,
                    "time": 162.23940949999994,
                    "velocity": 0.2047244094488189,
                    "duration": 0.30649762499999156
                },
                {
                    "name": "C6",
                    "midi": 84,
                    "time": 162.64807299999993,
                    "velocity": 0.2125984251968504,
                    "duration": 0.30649762500002
                },
                {
                    "name": "A5",
                    "midi": 81,
                    "time": 162.64807299999993,
                    "velocity": 0.1968503937007874,
                    "duration": 0.30649762500002
                },
                {
                    "name": "F5",
                    "midi": 77,
                    "time": 162.64807299999993,
                    "velocity": 0.1968503937007874,
                    "duration": 0.30649762500002
                },
                {
                    "name": "C5",
                    "midi": 72,
                    "time": 163.87406349999995,
                    "velocity": 0.18110236220472442,
                    "duration": 0.30649762500002
                },
                {
                    "name": "E5",
                    "midi": 76,
                    "time": 163.87406349999995,
                    "velocity": 0.18110236220472442,
                    "duration": 0.30649762500002
                },
                {
                    "name": "A5",
                    "midi": 81,
                    "time": 163.87406349999995,
                    "velocity": 0.2047244094488189,
                    "duration": 0.30649762500002
                },
                {
                    "name": "C6",
                    "midi": 84,
                    "time": 164.28272699999997,
                    "velocity": 0.2125984251968504,
                    "duration": 0.30649762500002
                },
                {
                    "name": "A5",
                    "midi": 81,
                    "time": 164.28272699999997,
                    "velocity": 0.1968503937007874,
                    "duration": 0.30649762500002
                },
                {
                    "name": "E5",
                    "midi": 76,
                    "time": 164.28272699999997,
                    "velocity": 0.1968503937007874,
                    "duration": 0.30649762500002
                },
                {
                    "name": "C5",
                    "midi": 72,
                    "time": 165.5087175,
                    "velocity": 0.18110236220472442,
                    "duration": 0.30649762500002
                },
                {
                    "name": "F#5",
                    "midi": 78,
                    "time": 165.5087175,
                    "velocity": 0.18110236220472442,
                    "duration": 0.30649762500002
                },
                {
                    "name": "A5",
                    "midi": 81,
                    "time": 165.5087175,
                    "velocity": 0.2047244094488189,
                    "duration": 0.30649762500002
                },
                {
                    "name": "C6",
                    "midi": 84,
                    "time": 165.917381,
                    "velocity": 0.2125984251968504,
                    "duration": 0.30649762499999156
                },
                {
                    "name": "A5",
                    "midi": 81,
                    "time": 165.917381,
                    "velocity": 0.1968503937007874,
                    "duration": 0.30649762499999156
                },
                {
                    "name": "F#5",
                    "midi": 78,
                    "time": 165.917381,
                    "velocity": 0.1968503937007874,
                    "duration": 0.30649762499999156
                },
                {
                    "name": "B4",
                    "midi": 71,
                    "time": 167.14337149999997,
                    "velocity": 0.2047244094488189,
                    "duration": 0.30649762499999156
                },
                {
                    "name": "E5",
                    "midi": 76,
                    "time": 167.14337149999997,
                    "velocity": 0.2047244094488189,
                    "duration": 0.30649762499999156
                },
                {
                    "name": "G5",
                    "midi": 79,
                    "time": 167.14337149999997,
                    "velocity": 0.2283464566929134,
                    "duration": 0.30649762499999156
                },
                {
                    "name": "B5",
                    "midi": 83,
                    "time": 167.55203499999996,
                    "velocity": 0.25196850393700787,
                    "duration": 0.30649762499999156
                },
                {
                    "name": "G5",
                    "midi": 79,
                    "time": 167.55203499999996,
                    "velocity": 0.2125984251968504,
                    "duration": 0.30649762499999156
                },
                {
                    "name": "E5",
                    "midi": 76,
                    "time": 167.55203499999996,
                    "velocity": 0.2125984251968504,
                    "duration": 0.30649762499999156
                },
                {
                    "name": "G4",
                    "midi": 67,
                    "time": 168.77802549999993,
                    "velocity": 0.2283464566929134,
                    "duration": 0.30649762500002
                },
                {
                    "name": "E5",
                    "midi": 76,
                    "time": 168.77802549999993,
                    "velocity": 0.2283464566929134,
                    "duration": 0.30649762500002
                },
                {
                    "name": "G5",
                    "midi": 79,
                    "time": 168.77802549999993,
                    "velocity": 0.25984251968503935,
                    "duration": 0.30649762500002
                },
                {
                    "name": "C5",
                    "midi": 72,
                    "time": 169.18668899999994,
                    "velocity": 0.25196850393700787,
                    "duration": 0.2009262208333098
                },
                {
                    "name": "G5",
                    "midi": 79,
                    "time": 169.18668899999994,
                    "velocity": 0.28346456692913385,
                    "duration": 0.2009262208333098
                },
                {
                    "name": "E5",
                    "midi": 76,
                    "time": 169.18668899999994,
                    "velocity": 0.25196850393700787,
                    "duration": 0.2009262208333098
                },
                {
                    "name": "G4",
                    "midi": 67,
                    "time": 170.4126794999999,
                    "velocity": 0.23622047244094488,
                    "duration": 0.30649762500002
                },
                {
                    "name": "E5",
                    "midi": 76,
                    "time": 170.4126794999999,
                    "velocity": 0.23622047244094488,
                    "duration": 0.30649762500002
                },
                {
                    "name": "G5",
                    "midi": 79,
                    "time": 170.4126794999999,
                    "velocity": 0.2677165354330709,
                    "duration": 0.30649762500002
                },
                {
                    "name": "B4",
                    "midi": 71,
                    "time": 170.82134299999993,
                    "velocity": 0.25196850393700787,
                    "duration": 0.20092622083333822
                },
                {
                    "name": "G5",
                    "midi": 79,
                    "time": 170.82134299999993,
                    "velocity": 0.28346456692913385,
                    "duration": 0.20092622083333822
                },
                {
                    "name": "E5",
                    "midi": 76,
                    "time": 170.82134299999993,
                    "velocity": 0.25196850393700787,
                    "duration": 0.20092622083333822
                },
                {
                    "name": "G4",
                    "midi": 67,
                    "time": 172.04733349999992,
                    "velocity": 0.23622047244094488,
                    "duration": 0.30649762500002
                },
                {
                    "name": "E5",
                    "midi": 76,
                    "time": 172.04733349999992,
                    "velocity": 0.23622047244094488,
                    "duration": 0.30649762500002
                },
                {
                    "name": "G5",
                    "midi": 79,
                    "time": 172.04733349999992,
                    "velocity": 0.2677165354330709,
                    "duration": 0.30649762500002
                },
                {
                    "name": "C#5",
                    "midi": 73,
                    "time": 172.45599699999994,
                    "velocity": 0.25196850393700787,
                    "duration": 0.20092622083333822
                },
                {
                    "name": "G5",
                    "midi": 79,
                    "time": 172.45599699999994,
                    "velocity": 0.28346456692913385,
                    "duration": 0.20092622083333822
                },
                {
                    "name": "E5",
                    "midi": 76,
                    "time": 172.45599699999994,
                    "velocity": 0.25196850393700787,
                    "duration": 0.20092622083333822
                },
                {
                    "name": "C#5",
                    "midi": 73,
                    "time": 172.86466049999996,
                    "velocity": 0.2125984251968504,
                    "duration": 0.30649762499999156
                },
                {
                    "name": "E5",
                    "midi": 76,
                    "time": 172.86466049999996,
                    "velocity": 0.2125984251968504,
                    "duration": 0.30649762499999156
                },
                {
                    "name": "G5",
                    "midi": 79,
                    "time": 172.86466049999996,
                    "velocity": 0.25196850393700787,
                    "duration": 0.30649762499999156
                },
                {
                    "name": "D#5",
                    "midi": 75,
                    "time": 173.27332399999995,
                    "velocity": 0.23622047244094488,
                    "duration": 0.30649762500002
                },
                {
                    "name": "F#5",
                    "midi": 78,
                    "time": 173.27332399999995,
                    "velocity": 0.23622047244094488,
                    "duration": 0.30649762500002
                },
                {
                    "name": "B5",
                    "midi": 83,
                    "time": 173.27332399999995,
                    "velocity": 0.2677165354330709,
                    "duration": 0.30649762500002
                },
                {
                    "name": "D#5",
                    "midi": 75,
                    "time": 174.09065099999998,
                    "velocity": 0.4094488188976378,
                    "duration": 0.09876034583331261
                },
                {
                    "name": "B5",
                    "midi": 83,
                    "time": 174.19281687499995,
                    "velocity": 0.3543307086614173,
                    "duration": 0.09876034583334103
                },
                {
                    "name": "F#5",
                    "midi": 78,
                    "time": 174.29498274999995,
                    "velocity": 0.3937007874015748,
                    "duration": 0.09876034583334103
                },
                {
                    "name": "D#5",
                    "midi": 75,
                    "time": 174.39714862499994,
                    "velocity": 0.36220472440944884,
                    "duration": 0.09876034583334103
                },
                {
                    "name": "G4",
                    "midi": 67,
                    "time": 174.90797799999996,
                    "velocity": 0.4015748031496063,
                    "duration": 0.09876034583334103
                },
                {
                    "name": "E5",
                    "midi": 76,
                    "time": 175.01014387499995,
                    "velocity": 0.36220472440944884,
                    "duration": 0.09876034583334103
                },
                {
                    "name": "B4",
                    "midi": 71,
                    "time": 175.11230974999995,
                    "velocity": 0.3937007874015748,
                    "duration": 0.09876034583334103
                },
                {
                    "name": "G4",
                    "midi": 67,
                    "time": 175.21447562499995,
                    "velocity": 0.36220472440944884,
                    "duration": 0.09876034583334103
                },
                {
                    "name": "E4",
                    "midi": 64,
                    "time": 175.72530499999993,
                    "velocity": 0.41732283464566927,
                    "duration": 0.09876034583331261
                },
                {
                    "name": "C5",
                    "midi": 72,
                    "time": 175.8274708749999,
                    "velocity": 0.3700787401574803,
                    "duration": 0.09876034583334103
                },
                {
                    "name": "G4",
                    "midi": 67,
                    "time": 175.9296367499999,
                    "velocity": 0.4015748031496063,
                    "duration": 0.09876034583334103
                },
                {
                    "name": "E4",
                    "midi": 64,
                    "time": 176.0318026249999,
                    "velocity": 0.3858267716535433,
                    "duration": 0.09876034583334103
                },
                {
                    "name": "D#4",
                    "midi": 63,
                    "time": 176.5426319999999,
                    "velocity": 0.4251968503937008,
                    "duration": 0.09876034583331261
                },
                {
                    "name": "B4",
                    "midi": 71,
                    "time": 176.64479787499988,
                    "velocity": 0.3937007874015748,
                    "duration": 0.09876034583334103
                },
                {
                    "name": "F#4",
                    "midi": 66,
                    "time": 176.74696374999988,
                    "velocity": 0.4094488188976378,
                    "duration": 0.09876034583334103
                },
                {
                    "name": "D#4",
                    "midi": 63,
                    "time": 176.84912962499988,
                    "velocity": 0.3858267716535433,
                    "duration": 0.09876034583334103
                },
                {
                    "name": "D#4",
                    "midi": 63,
                    "time": 177.3599589999999,
                    "velocity": 0.4251968503937008,
                    "duration": 0.09876034583334103
                },
                {
                    "name": "B4",
                    "midi": 71,
                    "time": 177.4621248749999,
                    "velocity": 0.3937007874015748,
                    "duration": 0.09876034583334103
                },
                {
                    "name": "F#4",
                    "midi": 66,
                    "time": 177.56429074999988,
                    "velocity": 0.4251968503937008,
                    "duration": 0.09876034583334103
                },
                {
                    "name": "D#4",
                    "midi": 63,
                    "time": 177.66645662499988,
                    "velocity": 0.4015748031496063,
                    "duration": 0.09876034583334103
                },
                {
                    "name": "G3",
                    "midi": 55,
                    "time": 178.17728599999987,
                    "velocity": 0.49606299212598426,
                    "duration": 0.09876034583334103
                },
                {
                    "name": "E4",
                    "midi": 64,
                    "time": 178.27945187499986,
                    "velocity": 0.4330708661417323,
                    "duration": 0.09876034583334103
                },
                {
                    "name": "B3",
                    "midi": 59,
                    "time": 178.38161774999986,
                    "velocity": 0.4645669291338583,
                    "duration": 0.09876034583334103
                },
                {
                    "name": "G3",
                    "midi": 55,
                    "time": 178.48378362499986,
                    "velocity": 0.4251968503937008,
                    "duration": 0.09876034583334103
                },
                {
                    "name": "E3",
                    "midi": 52,
                    "time": 178.99461299999987,
                    "velocity": 0.49606299212598426,
                    "duration": 0.09876034583334103
                },
                {
                    "name": "C4",
                    "midi": 60,
                    "time": 179.09677887499987,
                    "velocity": 0.4330708661417323,
                    "duration": 0.09876034583334103
                },
                {
                    "name": "G3",
                    "midi": 55,
                    "time": 179.19894474999987,
                    "velocity": 0.4645669291338583,
                    "duration": 0.09876034583334103
                },
                {
                    "name": "E3",
                    "midi": 52,
                    "time": 179.30111062499986,
                    "velocity": 0.4409448818897638,
                    "duration": 0.09876034583334103
                },
                {
                    "name": "D#3",
                    "midi": 51,
                    "time": 179.81193999999988,
                    "velocity": 0.5196850393700787,
                    "duration": 0.11919352083333479
                },
                {
                    "name": "G3",
                    "midi": 55,
                    "time": 179.91410587499988,
                    "velocity": 0.48031496062992124,
                    "duration": 0.10216587499999719
                },
                {
                    "name": "F#3",
                    "midi": 54,
                    "time": 180.01627174999987,
                    "velocity": 0.48031496062992124,
                    "duration": 0.11919352083333479
                },
                {
                    "name": "D#3",
                    "midi": 51,
                    "time": 180.11843762499987,
                    "velocity": 0.4645669291338583,
                    "duration": 0.10216587499999719
                },
                {
                    "name": "B2",
                    "midi": 47,
                    "time": 180.22060349999987,
                    "velocity": 0.4094488188976378,
                    "duration": 0.11919352083333479
                },
                {
                    "name": "F#3",
                    "midi": 54,
                    "time": 180.32276937499987,
                    "velocity": 0.41732283464566927,
                    "duration": 0.11919352083333479
                },
                {
                    "name": "A#3",
                    "midi": 58,
                    "time": 180.42493524999986,
                    "velocity": 0.4251968503937008,
                    "duration": 0.10216587499999719
                },
                {
                    "name": "B3",
                    "midi": 59,
                    "time": 180.52710112499986,
                    "velocity": 0.4251968503937008,
                    "duration": 0.10216587499999719
                },
                {
                    "name": "D#4",
                    "midi": 63,
                    "time": 180.62926699999986,
                    "velocity": 0.4409448818897638,
                    "duration": 0.11919352083333479
                },
                {
                    "name": "F#4",
                    "midi": 66,
                    "time": 180.73143287499985,
                    "velocity": 0.44881889763779526,
                    "duration": 0.11919352083333479
                },
                {
                    "name": "A#4",
                    "midi": 70,
                    "time": 180.83359874999985,
                    "velocity": 0.4645669291338583,
                    "duration": 0.11919352083333479
                },
                {
                    "name": "B4",
                    "midi": 71,
                    "time": 180.93576462499985,
                    "velocity": 0.48031496062992124,
                    "duration": 0.10216587499999719
                },
                {
                    "name": "D#5",
                    "midi": 75,
                    "time": 181.03793049999985,
                    "velocity": 0.49606299212598426,
                    "duration": 0.11919352083333479
                },
                {
                    "name": "F#5",
                    "midi": 78,
                    "time": 181.14009637499984,
                    "velocity": 0.49606299212598426,
                    "duration": 0.11919352083333479
                },
                {
                    "name": "A#5",
                    "midi": 82,
                    "time": 181.24226224999984,
                    "velocity": 0.5118110236220472,
                    "duration": 0.11919352083333479
                },
                {
                    "name": "B5",
                    "midi": 83,
                    "time": 181.34442812499984,
                    "velocity": 0.5196850393700787,
                    "duration": 0.10216587499999719
                },
                {
                    "name": "D#6",
                    "midi": 87,
                    "time": 181.44659399999983,
                    "velocity": 0.5433070866141733,
                    "duration": 0.30649762499999156
                },
                {
                    "name": "B5",
                    "midi": 83,
                    "time": 183.08124799999982,
                    "velocity": 0.2677165354330709,
                    "duration": 0.15324881249998157
                },
                {
                    "name": "E5",
                    "midi": 76,
                    "time": 183.08124799999982,
                    "velocity": 0.2677165354330709,
                    "duration": 0.15324881249998157
                },
                {
                    "name": "E5",
                    "midi": 76,
                    "time": 183.2855797499998,
                    "velocity": 0.25984251968503935,
                    "duration": 0.15324881250001
                },
                {
                    "name": "B5",
                    "midi": 83,
                    "time": 183.2855797499998,
                    "velocity": 0.25984251968503935,
                    "duration": 0.15324881250001
                },
                {
                    "name": "B4",
                    "midi": 71,
                    "time": 183.89857499999982,
                    "velocity": 0.2677165354330709,
                    "duration": 0.15324881250001
                },
                {
                    "name": "E5",
                    "midi": 76,
                    "time": 183.89857499999982,
                    "velocity": 0.2677165354330709,
                    "duration": 0.15324881250001
                },
                {
                    "name": "B4",
                    "midi": 71,
                    "time": 184.10290674999985,
                    "velocity": 0.25984251968503935,
                    "duration": 0.15324881250001
                },
                {
                    "name": "E5",
                    "midi": 76,
                    "time": 184.10290674999985,
                    "velocity": 0.25984251968503935,
                    "duration": 0.15324881250001
                },
                {
                    "name": "E4",
                    "midi": 64,
                    "time": 184.71590199999986,
                    "velocity": 0.2677165354330709,
                    "duration": 0.15324881250001
                },
                {
                    "name": "B4",
                    "midi": 71,
                    "time": 184.71590199999986,
                    "velocity": 0.2677165354330709,
                    "duration": 0.15324881250001
                },
                {
                    "name": "E4",
                    "midi": 64,
                    "time": 184.92023374999988,
                    "velocity": 0.2440944881889764,
                    "duration": 0.15324881250001
                },
                {
                    "name": "B4",
                    "midi": 71,
                    "time": 184.92023374999988,
                    "velocity": 0.2440944881889764,
                    "duration": 0.15324881250001
                },
                {
                    "name": "E4",
                    "midi": 64,
                    "time": 185.53322899999986,
                    "velocity": 0.2677165354330709,
                    "duration": 0.15324881250001
                },
                {
                    "name": "B3",
                    "midi": 59,
                    "time": 185.53322899999986,
                    "velocity": 0.2677165354330709,
                    "duration": 0.15324881250001
                },
                {
                    "name": "B3",
                    "midi": 59,
                    "time": 185.7375607499999,
                    "velocity": 0.2440944881889764,
                    "duration": 0.15324881250001
                },
                {
                    "name": "E4",
                    "midi": 64,
                    "time": 185.7375607499999,
                    "velocity": 0.2440944881889764,
                    "duration": 0.15324881250001
                },
                {
                    "name": "E3",
                    "midi": 52,
                    "time": 186.3505559999999,
                    "velocity": 0.2677165354330709,
                    "duration": 0.15324881250001
                },
                {
                    "name": "B3",
                    "midi": 59,
                    "time": 186.3505559999999,
                    "velocity": 0.2677165354330709,
                    "duration": 0.15324881250001
                },
                {
                    "name": "E3",
                    "midi": 52,
                    "time": 186.55488774999992,
                    "velocity": 0.25196850393700787,
                    "duration": 0.15324881250001
                },
                {
                    "name": "B3",
                    "midi": 59,
                    "time": 186.55488774999992,
                    "velocity": 0.25196850393700787,
                    "duration": 0.15324881250001
                },
                {
                    "name": "B4",
                    "midi": 71,
                    "time": 187.16788299999993,
                    "velocity": 0.28346456692913385,
                    "duration": 0.15324881249998157
                },
                {
                    "name": "D#4",
                    "midi": 63,
                    "time": 187.16788299999993,
                    "velocity": 0.28346456692913385,
                    "duration": 0.15324881249998157
                },
                {
                    "name": "D#4",
                    "midi": 63,
                    "time": 187.37221474999993,
                    "velocity": 0.25984251968503935,
                    "duration": 0.15324881250001
                },
                {
                    "name": "B4",
                    "midi": 71,
                    "time": 187.37221474999993,
                    "velocity": 0.25984251968503935,
                    "duration": 0.15324881250001
                },
                {
                    "name": "E3",
                    "midi": 52,
                    "time": 187.98520999999997,
                    "velocity": 0.3464566929133858,
                    "duration": 0.15324881249998157
                },
                {
                    "name": "B3",
                    "midi": 59,
                    "time": 187.98520999999997,
                    "velocity": 0.3464566929133858,
                    "duration": 0.15324881249998157
                },
                {
                    "name": "E3",
                    "midi": 52,
                    "time": 188.18954174999996,
                    "velocity": 0.3228346456692913,
                    "duration": 0.15324881250001
                },
                {
                    "name": "B3",
                    "midi": 59,
                    "time": 188.18954174999996,
                    "velocity": 0.3228346456692913,
                    "duration": 0.15324881250001
                },
                {
                    "name": "B3",
                    "midi": 59,
                    "time": 188.80253699999997,
                    "velocity": 0.3937007874015748,
                    "duration": 0.15324881250001
                },
                {
                    "name": "B4",
                    "midi": 71,
                    "time": 188.80253699999997,
                    "velocity": 0.3937007874015748,
                    "duration": 0.15324881250001
                },
                {
                    "name": "B3",
                    "midi": 59,
                    "time": 189.00686875,
                    "velocity": 0.3543307086614173,
                    "duration": 0.15324881250001
                },
                {
                    "name": "B4",
                    "midi": 71,
                    "time": 189.00686875,
                    "velocity": 0.3543307086614173,
                    "duration": 0.15324881250001
                },
                {
                    "name": "B5",
                    "midi": 83,
                    "time": 189.619864,
                    "velocity": 0.2677165354330709,
                    "duration": 0.15324881250001
                },
                {
                    "name": "E5",
                    "midi": 76,
                    "time": 189.619864,
                    "velocity": 0.2677165354330709,
                    "duration": 0.15324881250001
                },
                {
                    "name": "E5",
                    "midi": 76,
                    "time": 189.82419575000003,
                    "velocity": 0.2440944881889764,
                    "duration": 0.15324881250001
                },
                {
                    "name": "B5",
                    "midi": 83,
                    "time": 189.82419575000003,
                    "velocity": 0.2440944881889764,
                    "duration": 0.15324881250001
                },
                {
                    "name": "B4",
                    "midi": 71,
                    "time": 190.43719100000004,
                    "velocity": 0.2677165354330709,
                    "duration": 0.15324881250001
                },
                {
                    "name": "E5",
                    "midi": 76,
                    "time": 190.43719100000004,
                    "velocity": 0.2677165354330709,
                    "duration": 0.15324881250001
                },
                {
                    "name": "B4",
                    "midi": 71,
                    "time": 190.64152275000006,
                    "velocity": 0.25196850393700787,
                    "duration": 0.15324881250001
                },
                {
                    "name": "E5",
                    "midi": 76,
                    "time": 190.64152275000006,
                    "velocity": 0.25196850393700787,
                    "duration": 0.15324881250001
                },
                {
                    "name": "E4",
                    "midi": 64,
                    "time": 191.25451800000008,
                    "velocity": 0.2677165354330709,
                    "duration": 0.15324881249998157
                },
                {
                    "name": "B4",
                    "midi": 71,
                    "time": 191.25451800000008,
                    "velocity": 0.2677165354330709,
                    "duration": 0.15324881249998157
                },
                {
                    "name": "E4",
                    "midi": 64,
                    "time": 191.45884975000007,
                    "velocity": 0.25196850393700787,
                    "duration": 0.15324881250001
                },
                {
                    "name": "B4",
                    "midi": 71,
                    "time": 191.45884975000007,
                    "velocity": 0.25196850393700787,
                    "duration": 0.15324881250001
                },
                {
                    "name": "B3",
                    "midi": 59,
                    "time": 192.07184500000008,
                    "velocity": 0.2677165354330709,
                    "duration": 0.15324881249998157
                },
                {
                    "name": "E4",
                    "midi": 64,
                    "time": 192.07184500000008,
                    "velocity": 0.2677165354330709,
                    "duration": 0.15324881249998157
                },
                {
                    "name": "B3",
                    "midi": 59,
                    "time": 192.27617675000008,
                    "velocity": 0.25196850393700787,
                    "duration": 0.15324881250001
                },
                {
                    "name": "E4",
                    "midi": 64,
                    "time": 192.27617675000008,
                    "velocity": 0.25196850393700787,
                    "duration": 0.15324881250001
                },
                {
                    "name": "E3",
                    "midi": 52,
                    "time": 192.88917200000006,
                    "velocity": 0.2755905511811024,
                    "duration": 0.15324881250001
                },
                {
                    "name": "B3",
                    "midi": 59,
                    "time": 192.88917200000006,
                    "velocity": 0.2755905511811024,
                    "duration": 0.15324881250001
                },
                {
                    "name": "E3",
                    "midi": 52,
                    "time": 193.09350375000008,
                    "velocity": 0.25196850393700787,
                    "duration": 0.15324881250001
                },
                {
                    "name": "B3",
                    "midi": 59,
                    "time": 193.09350375000008,
                    "velocity": 0.25196850393700787,
                    "duration": 0.15324881250001
                },
                {
                    "name": "D#4",
                    "midi": 63,
                    "time": 193.70649900000012,
                    "velocity": 0.2677165354330709,
                    "duration": 0.15324881249998157
                },
                {
                    "name": "B3",
                    "midi": 59,
                    "time": 193.70649900000012,
                    "velocity": 0.2677165354330709,
                    "duration": 0.15324881249998157
                },
                {
                    "name": "B3",
                    "midi": 59,
                    "time": 193.91083075000012,
                    "velocity": 0.25984251968503935,
                    "duration": 0.15324881250001
                },
                {
                    "name": "D#4",
                    "midi": 63,
                    "time": 193.91083075000012,
                    "velocity": 0.25984251968503935,
                    "duration": 0.15324881250001
                },
                {
                    "name": "B3",
                    "midi": 59,
                    "time": 194.52382600000013,
                    "velocity": 0.3543307086614173,
                    "duration": 0.15324881250001
                },
                {
                    "name": "E3",
                    "midi": 52,
                    "time": 194.52382600000013,
                    "velocity": 0.3543307086614173,
                    "duration": 0.15324881250001
                },
                {
                    "name": "B3",
                    "midi": 59,
                    "time": 194.72815775000015,
                    "velocity": 0.33858267716535434,
                    "duration": 0.15324881250001
                },
                {
                    "name": "E3",
                    "midi": 52,
                    "time": 194.72815775000015,
                    "velocity": 0.33858267716535434,
                    "duration": 0.15324881250001
                },
                {
                    "name": "E4",
                    "midi": 64,
                    "time": 194.93248950000017,
                    "velocity": 0.3700787401574803,
                    "duration": 0.15324881250001
                },
                {
                    "name": "E4",
                    "midi": 64,
                    "time": 195.1368212500002,
                    "velocity": 0.3543307086614173,
                    "duration": 0.15324881250001
                },
                {
                    "name": "B4",
                    "midi": 71,
                    "time": 195.34115300000022,
                    "velocity": 0.41732283464566927,
                    "duration": 0.40866349999998874
                },
                {
                    "name": "B5",
                    "midi": 83,
                    "time": 202.69709600000022,
                    "velocity": 0.2677165354330709,
                    "duration": 0.15324881249998157
                },
                {
                    "name": "E5",
                    "midi": 76,
                    "time": 202.69709600000022,
                    "velocity": 0.2677165354330709,
                    "duration": 0.15324881249998157
                },
                {
                    "name": "E5",
                    "midi": 76,
                    "time": 202.9014277500002,
                    "velocity": 0.25196850393700787,
                    "duration": 0.15324881250001
                },
                {
                    "name": "B5",
                    "midi": 83,
                    "time": 202.9014277500002,
                    "velocity": 0.25196850393700787,
                    "duration": 0.15324881250001
                },
                {
                    "name": "B4",
                    "midi": 71,
                    "time": 203.51442300000022,
                    "velocity": 0.2677165354330709,
                    "duration": 0.15324881250001
                },
                {
                    "name": "E5",
                    "midi": 76,
                    "time": 203.51442300000022,
                    "velocity": 0.2677165354330709,
                    "duration": 0.15324881250001
                },
                {
                    "name": "B4",
                    "midi": 71,
                    "time": 203.71875475000024,
                    "velocity": 0.2440944881889764,
                    "duration": 0.15324881250001
                },
                {
                    "name": "E5",
                    "midi": 76,
                    "time": 203.71875475000024,
                    "velocity": 0.2440944881889764,
                    "duration": 0.15324881250001
                },
                {
                    "name": "E4",
                    "midi": 64,
                    "time": 204.33175000000026,
                    "velocity": 0.2677165354330709,
                    "duration": 0.15324881249998157
                },
                {
                    "name": "B4",
                    "midi": 71,
                    "time": 204.33175000000026,
                    "velocity": 0.2677165354330709,
                    "duration": 0.15324881249998157
                },
                {
                    "name": "E4",
                    "midi": 64,
                    "time": 204.53608175000025,
                    "velocity": 0.2440944881889764,
                    "duration": 0.15324881250001
                },
                {
                    "name": "B4",
                    "midi": 71,
                    "time": 204.53608175000025,
                    "velocity": 0.2440944881889764,
                    "duration": 0.15324881250001
                },
                {
                    "name": "B3",
                    "midi": 59,
                    "time": 205.14907700000023,
                    "velocity": 0.2677165354330709,
                    "duration": 0.15324881250001
                },
                {
                    "name": "E4",
                    "midi": 64,
                    "time": 205.14907700000023,
                    "velocity": 0.2677165354330709,
                    "duration": 0.15324881250001
                },
                {
                    "name": "B3",
                    "midi": 59,
                    "time": 205.35340875000026,
                    "velocity": 0.25196850393700787,
                    "duration": 0.15324881250001
                },
                {
                    "name": "E4",
                    "midi": 64,
                    "time": 205.35340875000026,
                    "velocity": 0.25196850393700787,
                    "duration": 0.15324881250001
                },
                {
                    "name": "E3",
                    "midi": 52,
                    "time": 205.96640400000027,
                    "velocity": 0.2677165354330709,
                    "duration": 0.15324881249998157
                },
                {
                    "name": "B3",
                    "midi": 59,
                    "time": 205.96640400000027,
                    "velocity": 0.2677165354330709,
                    "duration": 0.15324881249998157
                },
                {
                    "name": "E3",
                    "midi": 52,
                    "time": 206.17073575000026,
                    "velocity": 0.25196850393700787,
                    "duration": 0.15324881250001
                },
                {
                    "name": "B3",
                    "midi": 59,
                    "time": 206.17073575000026,
                    "velocity": 0.25196850393700787,
                    "duration": 0.15324881250001
                },
                {
                    "name": "D#3",
                    "midi": 51,
                    "time": 206.78373100000027,
                    "velocity": 0.2677165354330709,
                    "duration": 0.15324881249998157
                },
                {
                    "name": "B2",
                    "midi": 47,
                    "time": 206.78373100000027,
                    "velocity": 0.2677165354330709,
                    "duration": 0.15324881249998157
                },
                {
                    "name": "B2",
                    "midi": 47,
                    "time": 206.98806275000027,
                    "velocity": 0.25196850393700787,
                    "duration": 0.15324881250001
                },
                {
                    "name": "D#3",
                    "midi": 51,
                    "time": 206.98806275000027,
                    "velocity": 0.25196850393700787,
                    "duration": 0.15324881250001
                },
                {
                    "name": "B2",
                    "midi": 47,
                    "time": 207.60105800000028,
                    "velocity": 0.28346456692913385,
                    "duration": 0.15324881249998157
                },
                {
                    "name": "E2",
                    "midi": 40,
                    "time": 207.60105800000028,
                    "velocity": 0.28346456692913385,
                    "duration": 0.15324881249998157
                },
                {
                    "name": "E2",
                    "midi": 40,
                    "time": 207.80538975000027,
                    "velocity": 0.2755905511811024,
                    "duration": 0.15324881250001
                },
                {
                    "name": "B2",
                    "midi": 47,
                    "time": 207.80538975000027,
                    "velocity": 0.2755905511811024,
                    "duration": 0.15324881250001
                },
                {
                    "name": "E2",
                    "midi": 40,
                    "time": 208.0097215000003,
                    "velocity": 0.28346456692913385,
                    "duration": 0.40866349999998874
                },
                {
                    "name": "B2",
                    "midi": 47,
                    "time": 208.0097215000003,
                    "velocity": 0.28346456692913385,
                    "duration": 0.40866349999998874
                },
                {
                    "name": "B2",
                    "midi": 47,
                    "time": 209.2357120000003,
                    "velocity": 0.2755905511811024,
                    "duration": 0.15324881249998157
                },
                {
                    "name": "E2",
                    "midi": 40,
                    "time": 209.2357120000003,
                    "velocity": 0.2755905511811024,
                    "duration": 0.15324881249998157
                },
                {
                    "name": "E2",
                    "midi": 40,
                    "time": 209.44004375000029,
                    "velocity": 0.25984251968503935,
                    "duration": 0.15324881250001
                },
                {
                    "name": "B2",
                    "midi": 47,
                    "time": 209.44004375000029,
                    "velocity": 0.25984251968503935,
                    "duration": 0.15324881250001
                },
                {
                    "name": "E2",
                    "midi": 40,
                    "time": 209.6443755000003,
                    "velocity": 0.2755905511811024,
                    "duration": 0.40866349999998874
                },
                {
                    "name": "B2",
                    "midi": 47,
                    "time": 209.6443755000003,
                    "velocity": 0.2755905511811024,
                    "duration": 0.40866349999998874
                },
                {
                    "name": "E2",
                    "midi": 40,
                    "time": 211.4833612500003,
                    "velocity": 0.5748031496062992,
                    "duration": 0.20092622083333822
                },
                {
                    "name": "B2",
                    "midi": 47,
                    "time": 211.4833612500003,
                    "velocity": 0.5748031496062992,
                    "duration": 0.20092622083333822
                },
                {
                    "name": "E3",
                    "midi": 52,
                    "time": 211.4833612500003,
                    "velocity": 0.5748031496062992,
                    "duration": 0.20092622083333822
                },
                {
                    "name": "E2",
                    "midi": 40,
                    "time": 211.6876930000003,
                    "velocity": 0.6062992125984252,
                    "duration": 0.40866349999998874
                },
                {
                    "name": "B2",
                    "midi": 47,
                    "time": 211.6876930000003,
                    "velocity": 0.6062992125984252,
                    "duration": 0.40866349999998874
                },
                {
                    "name": "E3",
                    "midi": 52,
                    "time": 211.6876930000003,
                    "velocity": 0.6062992125984252,
                    "duration": 0.40866349999998874
                }
            ],
            "controlChanges": {
                "7": [
                    {
                        "number": 7,
                        "time": 0,
                        "value": 0.7874015748031497
                    }
                ],
                "10": [
                    {
                        "number": 10,
                        "time": 0,
                        "value": 0.5039370078740157
                    }
                ],
                "64": [
                    {
                        "number": 64,
                        "time": 0,
                        "value": 0
                    },
                    {
                        "number": 64,
                        "time": 1.2242877354166666,
                        "value": 0
                    },
                    {
                        "number": 64,
                        "time": 27.404293204166667,
                        "value": 1
                    },
                    {
                        "number": 64,
                        "time": 27.80103735208333,
                        "value": 0
                    },
                    {
                        "number": 64,
                        "time": 27.910014285416665,
                        "value": 1
                    },
                    {
                        "number": 64,
                        "time": 28.209700852083333,
                        "value": 0
                    },
                    {
                        "number": 64,
                        "time": 28.306758433333332,
                        "value": 1
                    },
                    {
                        "number": 64,
                        "time": 28.41403260208333,
                        "value": 0
                    },
                    {
                        "number": 64,
                        "time": 28.691583229166664,
                        "value": 1
                    },
                    {
                        "number": 64,
                        "time": 29.033838910416666,
                        "value": 0
                    },
                    {
                        "number": 64,
                        "time": 29.12408543333333,
                        "value": 1
                    },
                    {
                        "number": 64,
                        "time": 29.4339885875,
                        "value": 0
                    },
                    {
                        "number": 64,
                        "time": 29.544668285416666,
                        "value": 1
                    },
                    {
                        "number": 64,
                        "time": 29.852868675000003,
                        "value": 0
                    },
                    {
                        "number": 64,
                        "time": 29.929493081250005,
                        "value": 1
                    },
                    {
                        "number": 64,
                        "time": 30.062308718750003,
                        "value": 0
                    },
                    {
                        "number": 64,
                        "time": 30.302398525000005,
                        "value": 1
                    },
                    {
                        "number": 64,
                        "time": 30.66849291041667,
                        "value": 0
                    },
                    {
                        "number": 64,
                        "time": 31.058426000000004,
                        "value": 1
                    },
                    {
                        "number": 64,
                        "time": 31.47900885208334,
                        "value": 0
                    },
                    {
                        "number": 64,
                        "time": 31.98472993333334,
                        "value": 1
                    },
                    {
                        "number": 64,
                        "time": 32.30825520416667,
                        "value": 0
                    },
                    {
                        "number": 64,
                        "time": 32.69308,
                        "value": 1
                    },
                    {
                        "number": 64,
                        "time": 33.11366285208334,
                        "value": 0
                    },
                    {
                        "number": 64,
                        "time": 33.210720433333336,
                        "value": 1
                    },
                    {
                        "number": 64,
                        "time": 33.52232635208333,
                        "value": 0
                    },
                    {
                        "number": 64,
                        "time": 33.96674790833333,
                        "value": 1
                    },
                    {
                        "number": 64,
                        "time": 34.34476164583333,
                        "value": 0
                    },
                    {
                        "number": 64,
                        "time": 34.44863028541666,
                        "value": 1
                    },
                    {
                        "number": 64,
                        "time": 34.76023620416665,
                        "value": 0
                    },
                    {
                        "number": 64,
                        "time": 34.84537443333332,
                        "value": 1
                    },
                    {
                        "number": 64,
                        "time": 35.16038588124999,
                        "value": 0
                    },
                    {
                        "number": 64,
                        "time": 35.20636052499999,
                        "value": 1
                    },
                    {
                        "number": 64,
                        "time": 35.57415767499998,
                        "value": 0
                    },
                    {
                        "number": 64,
                        "time": 35.66270143333331,
                        "value": 1
                    },
                    {
                        "number": 64,
                        "time": 35.967496293749974,
                        "value": 0
                    },
                    {
                        "number": 64,
                        "time": 36.09520363749997,
                        "value": 1
                    },
                    {
                        "number": 64,
                        "time": 36.38637638124997,
                        "value": 0
                    },
                    {
                        "number": 64,
                        "time": 36.491947785416635,
                        "value": 1
                    },
                    {
                        "number": 64,
                        "time": 36.59581642499997,
                        "value": 0
                    },
                    {
                        "number": 64,
                        "time": 36.876772581249966,
                        "value": 1
                    },
                    {
                        "number": 64,
                        "time": 37.20029785208329,
                        "value": 0
                    },
                    {
                        "number": 64,
                        "time": 37.59704199999995,
                        "value": 1
                    },
                    {
                        "number": 64,
                        "time": 38.03976079166661,
                        "value": 0
                    },
                    {
                        "number": 64,
                        "time": 38.13852113749994,
                        "value": 1
                    },
                    {
                        "number": 64,
                        "time": 38.40244964791661,
                        "value": 0
                    },
                    {
                        "number": 64,
                        "time": 38.49950722916661,
                        "value": 1
                    },
                    {
                        "number": 64,
                        "time": 38.84687120416661,
                        "value": 0
                    },
                    {
                        "number": 64,
                        "time": 39.32194252291661,
                        "value": 1
                    },
                    {
                        "number": 64,
                        "time": 40.457686499999916,
                        "value": 0
                    },
                    {
                        "number": 64,
                        "time": 47.07462967083325,
                        "value": 1
                    },
                    {
                        "number": 64,
                        "time": 47.40496599999992,
                        "value": 0
                    },
                    {
                        "number": 64,
                        "time": 47.502023581249915,
                        "value": 1
                    },
                    {
                        "number": 64,
                        "time": 47.82725161666657,
                        "value": 0
                    },
                    {
                        "number": 64,
                        "time": 47.89876772916657,
                        "value": 1
                    },
                    {
                        "number": 64,
                        "time": 48.043502718749906,
                        "value": 0
                    },
                    {
                        "number": 64,
                        "time": 48.295511877083236,
                        "value": 1
                    },
                    {
                        "number": 64,
                        "time": 48.64457861666656,
                        "value": 0
                    },
                    {
                        "number": 64,
                        "time": 48.72801408124989,
                        "value": 1
                    },
                    {
                        "number": 64,
                        "time": 49.05324211666655,
                        "value": 0
                    },
                    {
                        "number": 64,
                        "time": 49.10602781874989,
                        "value": 1
                    },
                    {
                        "number": 64,
                        "time": 49.460202852083206,
                        "value": 0
                    },
                    {
                        "number": 64,
                        "time": 49.91143546666654,
                        "value": 1
                    },
                    {
                        "number": 64,
                        "time": 50.2775298520832,
                        "value": 0
                    },
                    {
                        "number": 64,
                        "time": 86.31313672916662,
                        "value": 1
                    },
                    {
                        "number": 64,
                        "time": 86.65028411666661,
                        "value": 0
                    },
                    {
                        "number": 64,
                        "time": 86.76947763749995,
                        "value": 1
                    },
                    {
                        "number": 64,
                        "time": 87.06065038124996,
                        "value": 0
                    },
                    {
                        "number": 64,
                        "time": 87.13046372916662,
                        "value": 1
                    },
                    {
                        "number": 64,
                        "time": 87.45398899999996,
                        "value": 0
                    },
                    {
                        "number": 64,
                        "time": 87.5272078770833,
                        "value": 1
                    },
                    {
                        "number": 64,
                        "time": 87.87797738124998,
                        "value": 0
                    },
                    {
                        "number": 64,
                        "time": 87.9716294333333,
                        "value": 1
                    },
                    {
                        "number": 64,
                        "time": 88.27131599999997,
                        "value": 0
                    },
                    {
                        "number": 64,
                        "time": 88.3445348770833,
                        "value": 1
                    },
                    {
                        "number": 64,
                        "time": 88.69530438124998,
                        "value": 0
                    },
                    {
                        "number": 64,
                        "time": 88.77703708124999,
                        "value": 1
                    },
                    {
                        "number": 64,
                        "time": 88.87239189791666,
                        "value": 0
                    },
                    {
                        "number": 64,
                        "time": 89.20953928541665,
                        "value": 1
                    },
                    {
                        "number": 64,
                        "time": 89.51433414583333,
                        "value": 0
                    },
                    {
                        "number": 64,
                        "time": 89.60628343333333,
                        "value": 1
                    },
                    {
                        "number": 64,
                        "time": 89.722071425,
                        "value": 0
                    },
                    {
                        "number": 64,
                        "time": 89.90597,
                        "value": 1
                    },
                    {
                        "number": 64,
                        "time": 90.32655285208334,
                        "value": 0
                    },
                    {
                        "number": 64,
                        "time": 90.42361043333334,
                        "value": 1
                    },
                    {
                        "number": 64,
                        "time": 90.54620948333334,
                        "value": 0
                    },
                    {
                        "number": 64,
                        "time": 90.83227393333334,
                        "value": 1
                    },
                    {
                        "number": 64,
                        "time": 91.15409643958336,
                        "value": 0
                    },
                    {
                        "number": 64,
                        "time": 91.24093743333336,
                        "value": 1
                    },
                    {
                        "number": 64,
                        "time": 91.35672542500002,
                        "value": 0
                    },
                    {
                        "number": 64,
                        "time": 91.66152028541669,
                        "value": 1
                    },
                    {
                        "number": 64,
                        "time": 91.96120685208335,
                        "value": 0
                    },
                    {
                        "number": 64,
                        "time": 92.05826443333335,
                        "value": 1
                    },
                    {
                        "number": 64,
                        "time": 92.36987035208335,
                        "value": 0
                    },
                    {
                        "number": 64,
                        "time": 92.49076663750002,
                        "value": 1
                    },
                    {
                        "number": 64,
                        "time": 92.77853385208336,
                        "value": 0
                    },
                    {
                        "number": 64,
                        "time": 92.8875107854167,
                        "value": 1
                    },
                    {
                        "number": 64,
                        "time": 93.17527800000003,
                        "value": 0
                    },
                    {
                        "number": 64,
                        "time": 93.3319323416667,
                        "value": 1
                    },
                    {
                        "number": 64,
                        "time": 93.60948296875006,
                        "value": 0
                    },
                    {
                        "number": 64,
                        "time": 93.70483778541673,
                        "value": 1
                    },
                    {
                        "number": 64,
                        "time": 93.79848983750006,
                        "value": 0
                    },
                    {
                        "number": 64,
                        "time": 94.08966258125005,
                        "value": 1
                    },
                    {
                        "number": 64,
                        "time": 94.41829614583341,
                        "value": 0
                    },
                    {
                        "number": 64,
                        "time": 94.55792284166674,
                        "value": 1
                    },
                    {
                        "number": 64,
                        "time": 94.81844582291674,
                        "value": 0
                    },
                    {
                        "number": 64,
                        "time": 94.93082828541674,
                        "value": 1
                    },
                    {
                        "number": 64,
                        "time": 95.24073143958341,
                        "value": 0
                    },
                    {
                        "number": 64,
                        "time": 95.32757243333342,
                        "value": 1
                    },
                    {
                        "number": 64,
                        "time": 95.43484660208341,
                        "value": 0
                    },
                    {
                        "number": 64,
                        "time": 95.68855852500008,
                        "value": 1
                    },
                    {
                        "number": 64,
                        "time": 96.04954461666675,
                        "value": 0
                    },
                    {
                        "number": 64,
                        "time": 96.44458600000009,
                        "value": 1
                    },
                    {
                        "number": 64,
                        "time": 96.87708820416677,
                        "value": 0
                    },
                    {
                        "number": 64,
                        "time": 96.96222643333343,
                        "value": 1
                    },
                    {
                        "number": 64,
                        "time": 97.27553511666676,
                        "value": 0
                    },
                    {
                        "number": 64,
                        "time": 97.35897058125009,
                        "value": 1
                    },
                    {
                        "number": 64,
                        "time": 97.68760414583342,
                        "value": 0
                    },
                    {
                        "number": 64,
                        "time": 97.76763408125008,
                        "value": 1
                    },
                    {
                        "number": 64,
                        "time": 97.89704418958341,
                        "value": 0
                    },
                    {
                        "number": 64,
                        "time": 98.14564781875008,
                        "value": 1
                    },
                    {
                        "number": 64,
                        "time": 99.28139179583344,
                        "value": 0
                    },
                    {
                        "number": 64,
                        "time": 105.88641561458344,
                        "value": 1
                    },
                    {
                        "number": 64,
                        "time": 106.26613211666678,
                        "value": 0
                    },
                    {
                        "number": 64,
                        "time": 106.42108369375012,
                        "value": 1
                    },
                    {
                        "number": 64,
                        "time": 106.67309285208347,
                        "value": 0
                    },
                    {
                        "number": 64,
                        "time": 106.79398913750013,
                        "value": 1
                    },
                    {
                        "number": 64,
                        "time": 107.08175635208347,
                        "value": 0
                    },
                    {
                        "number": 64,
                        "time": 107.19073328541681,
                        "value": 1
                    },
                    {
                        "number": 64,
                        "time": 107.49893367500015,
                        "value": 0
                    },
                    {
                        "number": 64,
                        "time": 107.62323548958348,
                        "value": 1
                    },
                    {
                        "number": 64,
                        "time": 107.8990833520835,
                        "value": 0
                    },
                    {
                        "number": 64,
                        "time": 107.96038287708349,
                        "value": 1
                    },
                    {
                        "number": 64,
                        "time": 108.3281800270835,
                        "value": 0
                    },
                    {
                        "number": 64,
                        "time": 108.38096572916683,
                        "value": 1
                    },
                    {
                        "number": 64,
                        "time": 108.51207860208349,
                        "value": 0
                    },
                    {
                        "number": 64,
                        "time": 108.76579052500016,
                        "value": 1
                    },
                    {
                        "number": 64,
                        "time": 109.1301821458335,
                        "value": 0
                    },
                    {
                        "number": 64,
                        "time": 115.70625896666684,
                        "value": 1
                    },
                    {
                        "number": 64,
                        "time": 116.8930858812503,
                        "value": 0
                    },
                    {
                        "number": 64,
                        "time": 117.72914329166694,
                        "value": 1
                    },
                    {
                        "number": 64,
                        "time": 118.54306476250028,
                        "value": 0
                    },
                    {
                        "number": 64,
                        "time": 122.2176307333336,
                        "value": 1
                    },
                    {
                        "number": 64,
                        "time": 123.44191846875042,
                        "value": 0
                    },
                    {
                        "number": 64,
                        "time": 124.3154367000004,
                        "value": 1
                    },
                    {
                        "number": 64,
                        "time": 125.09530287916708,
                        "value": 0
                    },
                    {
                        "number": 64,
                        "time": 137.748546497917,
                        "value": 1
                    },
                    {
                        "number": 64,
                        "time": 138.141885116667,
                        "value": 0
                    },
                    {
                        "number": 64,
                        "time": 141.83347873333364,
                        "value": 1
                    },
                    {
                        "number": 64,
                        "time": 143.0475498812501,
                        "value": 0
                    },
                    {
                        "number": 64,
                        "time": 143.91936534791677,
                        "value": 1
                    },
                    {
                        "number": 64,
                        "time": 144.68901493958344,
                        "value": 0
                    },
                    {
                        "number": 64,
                        "time": 148.37720302708343,
                        "value": 1
                    },
                    {
                        "number": 64,
                        "time": 149.59127417499988,
                        "value": 0
                    },
                    {
                        "number": 64,
                        "time": 150.4613868770832,
                        "value": 1
                    },
                    {
                        "number": 64,
                        "time": 151.2327392333332,
                        "value": 0
                    },
                    {
                        "number": 64,
                        "time": 159.82659208541662,
                        "value": 1
                    },
                    {
                        "number": 64,
                        "time": 160.19609199999996,
                        "value": 0
                    },
                    {
                        "number": 64,
                        "time": 162.3245477291666,
                        "value": 1
                    },
                    {
                        "number": 64,
                        "time": 162.6719117041666,
                        "value": 0
                    },
                    {
                        "number": 64,
                        "time": 163.1299553770833,
                        "value": 1
                    },
                    {
                        "number": 64,
                        "time": 163.46539999999996,
                        "value": 0
                    },
                    {
                        "number": 64,
                        "time": 163.93536302499996,
                        "value": 1
                    },
                    {
                        "number": 64,
                        "time": 164.2946463520833,
                        "value": 0
                    },
                    {
                        "number": 64,
                        "time": 164.7390679083333,
                        "value": 1
                    },
                    {
                        "number": 64,
                        "time": 165.10856782291665,
                        "value": 0
                    },
                    {
                        "number": 64,
                        "time": 165.58704467083334,
                        "value": 1
                    },
                    {
                        "number": 64,
                        "time": 165.94292246875,
                        "value": 0
                    },
                    {
                        "number": 64,
                        "time": 166.39415508333332,
                        "value": 1
                    },
                    {
                        "number": 64,
                        "time": 166.73981629374998,
                        "value": 0
                    },
                    {
                        "number": 64,
                        "time": 167.2165903770833,
                        "value": 1
                    },
                    {
                        "number": 64,
                        "time": 167.58268476249995,
                        "value": 0
                    },
                    {
                        "number": 64,
                        "time": 168.0458367291666,
                        "value": 1
                    },
                    {
                        "number": 64,
                        "time": 168.37447029374994,
                        "value": 0
                    },
                    {
                        "number": 64,
                        "time": 168.84443331874994,
                        "value": 1
                    },
                    {
                        "number": 64,
                        "time": 169.21733876249994,
                        "value": 0
                    },
                    {
                        "number": 64,
                        "time": 169.69751837499993,
                        "value": 1
                    },
                    {
                        "number": 64,
                        "time": 170.03636852708325,
                        "value": 0
                    },
                    {
                        "number": 64,
                        "time": 170.47908731874992,
                        "value": 1
                    },
                    {
                        "number": 64,
                        "time": 170.8451817041666,
                        "value": 0
                    },
                    {
                        "number": 64,
                        "time": 171.3509027854166,
                        "value": 1
                    },
                    {
                        "number": 64,
                        "time": 171.63866999999993,
                        "value": 0
                    },
                    {
                        "number": 64,
                        "time": 172.0813887916666,
                        "value": 1
                    },
                    {
                        "number": 64,
                        "time": 172.46110529374994,
                        "value": 0
                    },
                    {
                        "number": 64,
                        "time": 172.92425726041662,
                        "value": 1
                    },
                    {
                        "number": 64,
                        "time": 173.2750267645833,
                        "value": 0
                    },
                    {
                        "number": 64,
                        "time": 173.72115108541664,
                        "value": 1
                    },
                    {
                        "number": 64,
                        "time": 174.11619246874997,
                        "value": 0
                    },
                    {
                        "number": 64,
                        "time": 174.1638698770833,
                        "value": 1
                    },
                    {
                        "number": 64,
                        "time": 174.51804491041662,
                        "value": 0
                    },
                    {
                        "number": 64,
                        "time": 174.59296655208328,
                        "value": 1
                    },
                    {
                        "number": 64,
                        "time": 174.94203329166663,
                        "value": 0
                    },
                    {
                        "number": 64,
                        "time": 174.96757476041662,
                        "value": 1
                    },
                    {
                        "number": 64,
                        "time": 175.32685808749994,
                        "value": 0
                    },
                    {
                        "number": 64,
                        "time": 175.78830728958326,
                        "value": 1
                    },
                    {
                        "number": 64,
                        "time": 176.15950996874992,
                        "value": 0
                    },
                    {
                        "number": 64,
                        "time": 176.61074258333323,
                        "value": 1
                    },
                    {
                        "number": 64,
                        "time": 177.77883908749988,
                        "value": 0
                    },
                    {
                        "number": 64,
                        "time": 178.21644958541654,
                        "value": 1
                    },
                    {
                        "number": 64,
                        "time": 178.60127438124988,
                        "value": 0
                    },
                    {
                        "number": 64,
                        "time": 179.02866829166655,
                        "value": 1
                    },
                    {
                        "number": 64,
                        "time": 179.41860138124989,
                        "value": 0
                    },
                    {
                        "number": 64,
                        "time": 179.89707822916654,
                        "value": 1
                    },
                    {
                        "number": 64,
                        "time": 181.4908658791665,
                        "value": 0
                    },
                    {
                        "number": 64,
                        "time": 182.72026190833316,
                        "value": 1
                    },
                    {
                        "number": 64,
                        "time": 183.09146458749981,
                        "value": 0
                    },
                    {
                        "number": 64,
                        "time": 183.2140636374998,
                        "value": 1
                    },
                    {
                        "number": 64,
                        "time": 183.4831004416665,
                        "value": 0
                    },
                    {
                        "number": 64,
                        "time": 183.61080778541648,
                        "value": 1
                    },
                    {
                        "number": 64,
                        "time": 183.88665564791648,
                        "value": 0
                    },
                    {
                        "number": 64,
                        "time": 184.00755193333316,
                        "value": 1
                    },
                    {
                        "number": 64,
                        "time": 184.3446993208332,
                        "value": 0
                    },
                    {
                        "number": 64,
                        "time": 184.4519734895832,
                        "value": 1
                    },
                    {
                        "number": 64,
                        "time": 184.7278213520832,
                        "value": 0
                    },
                    {
                        "number": 64,
                        "time": 184.8248789333332,
                        "value": 1
                    },
                    {
                        "number": 64,
                        "time": 185.13137655833322,
                        "value": 0
                    },
                    {
                        "number": 64,
                        "time": 185.2335424333332,
                        "value": 1
                    },
                    {
                        "number": 64,
                        "time": 185.3612497770832,
                        "value": 0
                    },
                    {
                        "number": 64,
                        "time": 185.6422059333332,
                        "value": 1
                    },
                    {
                        "number": 64,
                        "time": 185.96573120416656,
                        "value": 0
                    },
                    {
                        "number": 64,
                        "time": 186.05086943333322,
                        "value": 1
                    },
                    {
                        "number": 64,
                        "time": 186.17517124791655,
                        "value": 0
                    },
                    {
                        "number": 64,
                        "time": 186.45953293333324,
                        "value": 1
                    },
                    {
                        "number": 64,
                        "time": 186.78476096874994,
                        "value": 0
                    },
                    {
                        "number": 64,
                        "time": 186.8801157854166,
                        "value": 1
                    },
                    {
                        "number": 64,
                        "time": 186.99079548333327,
                        "value": 0
                    },
                    {
                        "number": 64,
                        "time": 187.2530212291666,
                        "value": 1
                    },
                    {
                        "number": 64,
                        "time": 187.59187138124994,
                        "value": 0
                    },
                    {
                        "number": 64,
                        "time": 187.67360408124995,
                        "value": 1
                    },
                    {
                        "number": 64,
                        "time": 187.80471695416662,
                        "value": 0
                    },
                    {
                        "number": 64,
                        "time": 188.07034822916663,
                        "value": 1
                    },
                    {
                        "number": 64,
                        "time": 188.42963155624997,
                        "value": 0
                    },
                    {
                        "number": 64,
                        "time": 188.51476978541663,
                        "value": 1
                    },
                    {
                        "number": 64,
                        "time": 188.8297812333333,
                        "value": 0
                    },
                    {
                        "number": 64,
                        "time": 188.92343328541665,
                        "value": 1
                    },
                    {
                        "number": 64,
                        "time": 189.2622834375,
                        "value": 0
                    },
                    {
                        "number": 64,
                        "time": 189.37977419375,
                        "value": 1
                    },
                    {
                        "number": 64,
                        "time": 189.6300805875,
                        "value": 0
                    },
                    {
                        "number": 64,
                        "time": 189.72884093333334,
                        "value": 1
                    },
                    {
                        "number": 64,
                        "time": 190.0523662041667,
                        "value": 0
                    },
                    {
                        "number": 64,
                        "time": 190.1494237854167,
                        "value": 1
                    },
                    {
                        "number": 64,
                        "time": 190.25840071875004,
                        "value": 0
                    },
                    {
                        "number": 64,
                        "time": 190.54616793333338,
                        "value": 1
                    },
                    {
                        "number": 64,
                        "time": 190.87139596875008,
                        "value": 0
                    },
                    {
                        "number": 64,
                        "time": 190.97867013750007,
                        "value": 1
                    },
                    {
                        "number": 64,
                        "time": 191.26814011666673,
                        "value": 0
                    },
                    {
                        "number": 64,
                        "time": 191.4350110458334,
                        "value": 1
                    },
                    {
                        "number": 64,
                        "time": 191.68702020416674,
                        "value": 0
                    },
                    {
                        "number": 64,
                        "time": 191.80791648958342,
                        "value": 1
                    },
                    {
                        "number": 64,
                        "time": 191.87262154375009,
                        "value": 0
                    },
                    {
                        "number": 64,
                        "time": 192.1195224083334,
                        "value": 1
                    },
                    {
                        "number": 64,
                        "time": 192.5026444395834,
                        "value": 0
                    },
                    {
                        "number": 64,
                        "time": 192.5894854333334,
                        "value": 1
                    },
                    {
                        "number": 64,
                        "time": 192.69505683750006,
                        "value": 0
                    },
                    {
                        "number": 64,
                        "time": 192.98622958125006,
                        "value": 1
                    },
                    {
                        "number": 64,
                        "time": 193.35572949583343,
                        "value": 0
                    },
                    {
                        "number": 64,
                        "time": 193.4664091937501,
                        "value": 1
                    },
                    {
                        "number": 64,
                        "time": 193.73885152708345,
                        "value": 0
                    },
                    {
                        "number": 64,
                        "time": 193.8393146375001,
                        "value": 1
                    },
                    {
                        "number": 64,
                        "time": 194.13219014583345,
                        "value": 0
                    },
                    {
                        "number": 64,
                        "time": 194.2360587854168,
                        "value": 1
                    },
                    {
                        "number": 64,
                        "time": 194.35184677708347,
                        "value": 0
                    },
                    {
                        "number": 64,
                        "time": 194.59023381875014,
                        "value": 1
                    },
                    {
                        "number": 64,
                        "time": 195.7685469104169,
                        "value": 0
                    },
                    {
                        "number": 64,
                        "time": 202.33610990833355,
                        "value": 1
                    },
                    {
                        "number": 64,
                        "time": 202.7022042937502,
                        "value": 0
                    },
                    {
                        "number": 64,
                        "time": 202.8299116375002,
                        "value": 1
                    },
                    {
                        "number": 64,
                        "time": 203.11767885208354,
                        "value": 0
                    },
                    {
                        "number": 64,
                        "time": 203.22665578541688,
                        "value": 1
                    },
                    {
                        "number": 64,
                        "time": 203.53485617500021,
                        "value": 0
                    },
                    {
                        "number": 64,
                        "time": 203.62339993333356,
                        "value": 1
                    },
                    {
                        "number": 64,
                        "time": 203.94692520416692,
                        "value": 0
                    },
                    {
                        "number": 64,
                        "time": 204.05590213750025,
                        "value": 1
                    },
                    {
                        "number": 64,
                        "time": 204.34196658750025,
                        "value": 0
                    },
                    {
                        "number": 64,
                        "time": 204.46456563750024,
                        "value": 1
                    },
                    {
                        "number": 64,
                        "time": 204.75233285208358,
                        "value": 0
                    },
                    {
                        "number": 64,
                        "time": 204.83747108125024,
                        "value": 1
                    },
                    {
                        "number": 64,
                        "time": 204.98731436458357,
                        "value": 0
                    },
                    {
                        "number": 64,
                        "time": 205.2699732854169,
                        "value": 1
                    },
                    {
                        "number": 64,
                        "time": 205.5900930270836,
                        "value": 0
                    },
                    {
                        "number": 64,
                        "time": 205.66671743333362,
                        "value": 1
                    },
                    {
                        "number": 64,
                        "time": 205.7893164833336,
                        "value": 0
                    },
                    {
                        "number": 64,
                        "time": 206.0396228770836,
                        "value": 1
                    },
                    {
                        "number": 64,
                        "time": 206.41252832083362,
                        "value": 0
                    },
                    {
                        "number": 64,
                        "time": 206.91654663750026,
                        "value": 1
                    },
                    {
                        "number": 64,
                        "time": 207.21623320416694,
                        "value": 0
                    },
                    {
                        "number": 64,
                        "time": 207.6742768770836,
                        "value": 1
                    },
                    {
                        "number": 64,
                        "time": 208.46095411458361,
                        "value": 0
                    },
                    {
                        "number": 64,
                        "time": 209.36852763750028,
                        "value": 1
                    },
                    {
                        "number": 64,
                        "time": 210.08198599791697,
                        "value": 0
                    },
                    {
                        "number": 64,
                        "time": 211.56849947916697,
                        "value": 1
                    },
                    {
                        "number": 64,
                        "time": 212.10827585208364,
                        "value": 0
                    }
                ],
                "91": [
                    {
                        "number": 91,
                        "time": 1.2242877354166666,
                        "value": 1
                    },
                    {
                        "number": 91,
                        "time": 27.378751735416667,
                        "value": 1
                    }
                ]
            },
            "id": 2,
            "name": "Piano left",
            "instrumentNumber": 0,
            "instrument": "acoustic grand piano",
            "instrumentFamily": "piano",
            "channelNumber": 0,
            "isPercussion": false
        },
        {
            "startTime": 0,
            "duration": 0,
            "length": 0,
            "notes": [],
            "controlChanges": {},
            "id": 3,
            "name": "Liszt: Etude No. 5  from Grandes Etudes de Paganini"
        },
        {
            "startTime": 0,
            "duration": 0,
            "length": 0,
            "notes": [],
            "controlChanges": {},
            "id": 4,
            "name": "Copyright  1998 by Bernd Krger"
        },
        {
            "startTime": 0,
            "duration": 0,
            "length": 0,
            "notes": [],
            "controlChanges": {},
            "id": 5,
            "name": "http://www.piano-midi.de"
        },
        {
            "startTime": 0,
            "duration": 0,
            "length": 0,
            "notes": [],
            "controlChanges": {},
            "id": 6,
            "name": "Edition: 2014-03-04"
        },
        {
            "startTime": 0,
            "duration": 0,
            "length": 0,
            "notes": [],
            "controlChanges": {},
            "id": 7,
            "name": "Spur 7"
        }
    ]
}