{
    "header": {
        "PPQ": 480,
        "timeSignature": [
            6,
            8
        ],
        "bpm": 80,
        "name": "La Campanella"
    },
    "startTime": 0,
    "duration": 332.6250000000003,
    "tracks": [
        {
            "startTime": 0,
            "duration": 0,
            "length": 0,
            "notes": [],
            "controlChanges": {},
            "id": 0,
            "name": "La Campanella"
        },
        {
            "startTime": 1.5,
            "duration": 332.6250000000003,
            "length": 2709,
            "notes": [
                {
                    "name": "D#6",
                    "midi": 87,
                    "time": 1.5,
                    "velocity": 0.2204724409448819,
                    "duration": 0.28125
                },
                {
                    "name": "D#7",
                    "midi": 99,
                    "time": 1.5,
                    "velocity": 0.2677165354330709,
                    "duration": 0.28125
                },
                {
                    "name": "D#6",
                    "midi": 87,
                    "time": 1.875,
                    "velocity": 0.2204724409448819,
                    "duration": 0.28125
                },
                {
                    "name": "D#7",
                    "midi": 99,
                    "time": 1.875,
                    "velocity": 0.2677165354330709,
                    "duration": 0.28125
                },
                {
                    "name": "D#7",
                    "midi": 99,
                    "time": 2.25,
                    "velocity": 0.2677165354330709,
                    "duration": 0.28125
                },
                {
                    "name": "D#6",
                    "midi": 87,
                    "time": 2.25,
                    "velocity": 0.2204724409448819,
                    "duration": 0.28125
                },
                {
                    "name": "D#6",
                    "midi": 87,
                    "time": 3.75,
                    "velocity": 0.2204724409448819,
                    "duration": 0.28125
                },
                {
                    "name": "D#7",
                    "midi": 99,
                    "time": 3.75,
                    "velocity": 0.2677165354330709,
                    "duration": 0.28125
                },
                {
                    "name": "D#7",
                    "midi": 99,
                    "time": 4.125,
                    "velocity": 0.2677165354330709,
                    "duration": 0.28125
                },
                {
                    "name": "D#6",
                    "midi": 87,
                    "time": 4.125,
                    "velocity": 0.2204724409448819,
                    "duration": 0.28125
                },
                {
                    "name": "D#6",
                    "midi": 87,
                    "time": 4.5,
                    "velocity": 0.2204724409448819,
                    "duration": 0.28125
                },
                {
                    "name": "D#7",
                    "midi": 99,
                    "time": 4.5,
                    "velocity": 0.2677165354330709,
                    "duration": 0.28125
                },
                {
                    "name": "D#7",
                    "midi": 99,
                    "time": 5.25,
                    "velocity": 0.25984251968503935,
                    "duration": 0.28125
                },
                {
                    "name": "D#6",
                    "midi": 87,
                    "time": 5.25,
                    "velocity": 0.2125984251968504,
                    "duration": 0.28125
                },
                {
                    "name": "D#7",
                    "midi": 99,
                    "time": 5.625,
                    "velocity": 0.25984251968503935,
                    "duration": 0.28125
                },
                {
                    "name": "D#6",
                    "midi": 87,
                    "time": 5.625,
                    "velocity": 0.2125984251968504,
                    "duration": 0.28125
                },
                {
                    "name": "D#7",
                    "midi": 99,
                    "time": 6.375,
                    "velocity": 0.2125984251968504,
                    "duration": 0.28125
                },
                {
                    "name": "D#6",
                    "midi": 87,
                    "time": 6.375,
                    "velocity": 0.1732283464566929,
                    "duration": 0.28125
                },
                {
                    "name": "D#7",
                    "midi": 99,
                    "time": 6.75,
                    "velocity": 0.1968503937007874,
                    "duration": 0.28125
                },
                {
                    "name": "D#6",
                    "midi": 87,
                    "time": 6.75,
                    "velocity": 0.16535433070866143,
                    "duration": 0.28125
                },
                {
                    "name": "D#5",
                    "midi": 75,
                    "time": 7.5,
                    "velocity": 0.33858267716535434,
                    "duration": 0.28125
                },
                {
                    "name": "D#6",
                    "midi": 87,
                    "time": 7.6875,
                    "velocity": 0.31496062992125984,
                    "duration": 0.09375
                },
                {
                    "name": "D#6",
                    "midi": 87,
                    "time": 7.875,
                    "velocity": 0.3937007874015748,
                    "duration": 0.28125
                },
                {
                    "name": "D#7",
                    "midi": 99,
                    "time": 8.0625,
                    "velocity": 0.31496062992125984,
                    "duration": 0.09375
                },
                {
                    "name": "D#6",
                    "midi": 87,
                    "time": 8.25,
                    "velocity": 0.36220472440944884,
                    "duration": 0.28125
                },
                {
                    "name": "D#7",
                    "midi": 99,
                    "time": 8.4375,
                    "velocity": 0.30708661417322836,
                    "duration": 0.09375
                },
                {
                    "name": "C#6",
                    "midi": 85,
                    "time": 8.625,
                    "velocity": 0.36220472440944884,
                    "duration": 0.28125
                },
                {
                    "name": "D#7",
                    "midi": 99,
                    "time": 8.8125,
                    "velocity": 0.30708661417322836,
                    "duration": 0.09375
                },
                {
                    "name": "B5",
                    "midi": 83,
                    "time": 9,
                    "velocity": 0.36220472440944884,
                    "duration": 0.28125
                },
                {
                    "name": "D#7",
                    "midi": 99,
                    "time": 9.1875,
                    "velocity": 0.31496062992125984,
                    "duration": 0.09375
                },
                {
                    "name": "B5",
                    "midi": 83,
                    "time": 9.375,
                    "velocity": 0.3543307086614173,
                    "duration": 0.28125
                },
                {
                    "name": "D#7",
                    "midi": 99,
                    "time": 9.5625,
                    "velocity": 0.31496062992125984,
                    "duration": 0.09375
                },
                {
                    "name": "A#5",
                    "midi": 82,
                    "time": 9.75,
                    "velocity": 0.33858267716535434,
                    "duration": 0.28125
                },
                {
                    "name": "D#7",
                    "midi": 99,
                    "time": 9.9375,
                    "velocity": 0.31496062992125984,
                    "duration": 0.09375
                },
                {
                    "name": "G#5",
                    "midi": 80,
                    "time": 10.125,
                    "velocity": 0.36220472440944884,
                    "duration": 0.28125
                },
                {
                    "name": "D#7",
                    "midi": 99,
                    "time": 10.3125,
                    "velocity": 0.31496062992125984,
                    "duration": 0.09375
                },
                {
                    "name": "G5",
                    "midi": 79,
                    "time": 10.5,
                    "velocity": 0.3543307086614173,
                    "duration": 0.28125
                },
                {
                    "name": "D#7",
                    "midi": 99,
                    "time": 10.6875,
                    "velocity": 0.29133858267716534,
                    "duration": 0.09375
                },
                {
                    "name": "G#5",
                    "midi": 80,
                    "time": 10.875,
                    "velocity": 0.3543307086614173,
                    "duration": 0.28125
                },
                {
                    "name": "D#7",
                    "midi": 99,
                    "time": 11.0625,
                    "velocity": 0.31496062992125984,
                    "duration": 0.09375
                },
                {
                    "name": "A#5",
                    "midi": 82,
                    "time": 11.25,
                    "velocity": 0.36220472440944884,
                    "duration": 0.28125
                },
                {
                    "name": "D#7",
                    "midi": 99,
                    "time": 11.4375,
                    "velocity": 0.31496062992125984,
                    "duration": 0.09375
                },
                {
                    "name": "D#5",
                    "midi": 75,
                    "time": 11.625,
                    "velocity": 0.33858267716535434,
                    "duration": 0.28125
                },
                {
                    "name": "D#7",
                    "midi": 99,
                    "time": 11.8125,
                    "velocity": 0.29133858267716534,
                    "duration": 0.09375
                },
                {
                    "name": "D#5",
                    "midi": 75,
                    "time": 12,
                    "velocity": 0.33858267716535434,
                    "duration": 0.28125
                },
                {
                    "name": "D#6",
                    "midi": 87,
                    "time": 12.1875,
                    "velocity": 0.29133858267716534,
                    "duration": 0.09375
                },
                {
                    "name": "E5",
                    "midi": 76,
                    "time": 12.375,
                    "velocity": 0.3937007874015748,
                    "duration": 0.28125
                },
                {
                    "name": "D#6",
                    "midi": 87,
                    "time": 12.5625,
                    "velocity": 0.33858267716535434,
                    "duration": 0.09375
                },
                {
                    "name": "D#5",
                    "midi": 75,
                    "time": 12.75,
                    "velocity": 0.36220472440944884,
                    "duration": 0.28125
                },
                {
                    "name": "D#6",
                    "midi": 87,
                    "time": 12.9375,
                    "velocity": 0.31496062992125984,
                    "duration": 0.09375
                },
                {
                    "name": "C#5",
                    "midi": 73,
                    "time": 13.125,
                    "velocity": 0.36220472440944884,
                    "duration": 0.28125
                },
                {
                    "name": "D#6",
                    "midi": 87,
                    "time": 13.3125,
                    "velocity": 0.30708661417322836,
                    "duration": 0.09375
                },
                {
                    "name": "B4",
                    "midi": 71,
                    "time": 13.5,
                    "velocity": 0.36220472440944884,
                    "duration": 0.28125
                },
                {
                    "name": "D#6",
                    "midi": 87,
                    "time": 13.6875,
                    "velocity": 0.31496062992125984,
                    "duration": 0.09375
                },
                {
                    "name": "B4",
                    "midi": 71,
                    "time": 13.875,
                    "velocity": 0.3543307086614173,
                    "duration": 0.28125
                },
                {
                    "name": "D#6",
                    "midi": 87,
                    "time": 14.0625,
                    "velocity": 0.31496062992125984,
                    "duration": 0.09375
                },
                {
                    "name": "A#4",
                    "midi": 70,
                    "time": 14.25,
                    "velocity": 0.33858267716535434,
                    "duration": 0.28125
                },
                {
                    "name": "D#6",
                    "midi": 87,
                    "time": 14.4375,
                    "velocity": 0.29133858267716534,
                    "duration": 0.09375
                },
                {
                    "name": "G#4",
                    "midi": 68,
                    "time": 14.625,
                    "velocity": 0.36220472440944884,
                    "duration": 0.28125
                },
                {
                    "name": "D#6",
                    "midi": 87,
                    "time": 14.8125,
                    "velocity": 0.31496062992125984,
                    "duration": 0.09375
                },
                {
                    "name": "G4",
                    "midi": 67,
                    "time": 15,
                    "velocity": 0.3543307086614173,
                    "duration": 0.28125
                },
                {
                    "name": "D#6",
                    "midi": 87,
                    "time": 15.1875,
                    "velocity": 0.29133858267716534,
                    "duration": 0.09375
                },
                {
                    "name": "G#4",
                    "midi": 68,
                    "time": 15.375,
                    "velocity": 0.3543307086614173,
                    "duration": 0.28125
                },
                {
                    "name": "D#6",
                    "midi": 87,
                    "time": 15.5625,
                    "velocity": 0.29133858267716534,
                    "duration": 0.09375
                },
                {
                    "name": "A#4",
                    "midi": 70,
                    "time": 15.75,
                    "velocity": 0.36220472440944884,
                    "duration": 0.28125
                },
                {
                    "name": "D#6",
                    "midi": 87,
                    "time": 15.9375,
                    "velocity": 0.31496062992125984,
                    "duration": 0.09375
                },
                {
                    "name": "D#4",
                    "midi": 63,
                    "time": 16.125,
                    "velocity": 0.33858267716535434,
                    "duration": 0.28125
                },
                {
                    "name": "D#5",
                    "midi": 75,
                    "time": 16.3125,
                    "velocity": 0.29133858267716534,
                    "duration": 0.09375
                },
                {
                    "name": "D#5",
                    "midi": 75,
                    "time": 16.5,
                    "velocity": 0.33858267716535434,
                    "duration": 0.28125
                },
                {
                    "name": "D#6",
                    "midi": 87,
                    "time": 16.6875,
                    "velocity": 0.29133858267716534,
                    "duration": 0.09375
                },
                {
                    "name": "D#6",
                    "midi": 87,
                    "time": 16.875,
                    "velocity": 0.3937007874015748,
                    "duration": 0.28125
                },
                {
                    "name": "D#7",
                    "midi": 99,
                    "time": 17.0625,
                    "velocity": 0.33858267716535434,
                    "duration": 0.09375
                },
                {
                    "name": "D#6",
                    "midi": 87,
                    "time": 17.25,
                    "velocity": 0.36220472440944884,
                    "duration": 0.28125
                },
                {
                    "name": "D#7",
                    "midi": 99,
                    "time": 17.4375,
                    "velocity": 0.3228346456692913,
                    "duration": 0.09375
                },
                {
                    "name": "C#6",
                    "midi": 85,
                    "time": 17.625,
                    "velocity": 0.36220472440944884,
                    "duration": 0.28125
                },
                {
                    "name": "D#7",
                    "midi": 99,
                    "time": 17.8125,
                    "velocity": 0.31496062992125984,
                    "duration": 0.09375
                },
                {
                    "name": "B5",
                    "midi": 83,
                    "time": 18,
                    "velocity": 0.36220472440944884,
                    "duration": 0.28125
                },
                {
                    "name": "D#7",
                    "midi": 99,
                    "time": 18.1875,
                    "velocity": 0.3228346456692913,
                    "duration": 0.09375
                },
                {
                    "name": "B5",
                    "midi": 83,
                    "time": 18.375,
                    "velocity": 0.3543307086614173,
                    "duration": 0.28125
                },
                {
                    "name": "D#7",
                    "midi": 99,
                    "time": 18.5625,
                    "velocity": 0.30708661417322836,
                    "duration": 0.09375
                },
                {
                    "name": "A#5",
                    "midi": 82,
                    "time": 18.75,
                    "velocity": 0.33858267716535434,
                    "duration": 0.28125
                },
                {
                    "name": "D#7",
                    "midi": 99,
                    "time": 18.9375,
                    "velocity": 0.30708661417322836,
                    "duration": 0.09375
                },
                {
                    "name": "G#5",
                    "midi": 80,
                    "time": 19.125,
                    "velocity": 0.36220472440944884,
                    "duration": 0.28125
                },
                {
                    "name": "D#7",
                    "midi": 99,
                    "time": 19.3125,
                    "velocity": 0.31496062992125984,
                    "duration": 0.09375
                },
                {
                    "name": "G5",
                    "midi": 79,
                    "time": 19.5,
                    "velocity": 0.3543307086614173,
                    "duration": 0.28125
                },
                {
                    "name": "D#7",
                    "midi": 99,
                    "time": 19.6875,
                    "velocity": 0.30708661417322836,
                    "duration": 0.09375
                },
                {
                    "name": "G#5",
                    "midi": 80,
                    "time": 19.875,
                    "velocity": 0.3543307086614173,
                    "duration": 0.28125
                },
                {
                    "name": "D#7",
                    "midi": 99,
                    "time": 20.0625,
                    "velocity": 0.31496062992125984,
                    "duration": 0.09375
                },
                {
                    "name": "A#5",
                    "midi": 82,
                    "time": 20.25,
                    "velocity": 0.36220472440944884,
                    "duration": 0.28125
                },
                {
                    "name": "D#7",
                    "midi": 99,
                    "time": 20.4375,
                    "velocity": 0.31496062992125984,
                    "duration": 0.09375
                },
                {
                    "name": "D#5",
                    "midi": 75,
                    "time": 20.625,
                    "velocity": 0.33858267716535434,
                    "duration": 0.28125
                },
                {
                    "name": "D#7",
                    "midi": 99,
                    "time": 20.8125,
                    "velocity": 0.30708661417322836,
                    "duration": 0.09375
                },
                {
                    "name": "D#5",
                    "midi": 75,
                    "time": 21,
                    "velocity": 0.33858267716535434,
                    "duration": 0.28125
                },
                {
                    "name": "D#6",
                    "midi": 87,
                    "time": 21.1875,
                    "velocity": 0.31496062992125984,
                    "duration": 0.09375
                },
                {
                    "name": "E5",
                    "midi": 76,
                    "time": 21.375,
                    "velocity": 0.3937007874015748,
                    "duration": 0.28125
                },
                {
                    "name": "D#6",
                    "midi": 87,
                    "time": 21.5625,
                    "velocity": 0.3543307086614173,
                    "duration": 0.09375
                },
                {
                    "name": "D#5",
                    "midi": 75,
                    "time": 21.75,
                    "velocity": 0.36220472440944884,
                    "duration": 0.28125
                },
                {
                    "name": "D#6",
                    "midi": 87,
                    "time": 21.9375,
                    "velocity": 0.33858267716535434,
                    "duration": 0.09375
                },
                {
                    "name": "C#5",
                    "midi": 73,
                    "time": 22.125,
                    "velocity": 0.36220472440944884,
                    "duration": 0.28125
                },
                {
                    "name": "D#5",
                    "midi": 75,
                    "time": 22.125,
                    "velocity": 0.30708661417322836,
                    "duration": 0.28125
                },
                {
                    "name": "D#6",
                    "midi": 87,
                    "time": 22.3125,
                    "velocity": 0.31496062992125984,
                    "duration": 0.09375
                },
                {
                    "name": "D#5",
                    "midi": 75,
                    "time": 22.5,
                    "velocity": 0.36220472440944884,
                    "duration": 0.140625
                },
                {
                    "name": "D#6",
                    "midi": 87,
                    "time": 22.6875,
                    "velocity": 0.30708661417322836,
                    "duration": 0.09375
                },
                {
                    "name": "G#5",
                    "midi": 80,
                    "time": 22.875,
                    "velocity": 0.30708661417322836,
                    "duration": 0.09375
                },
                {
                    "name": "B5",
                    "midi": 83,
                    "time": 23.0625,
                    "velocity": 0.30708661417322836,
                    "duration": 0.09375
                },
                {
                    "name": "D#6",
                    "midi": 87,
                    "time": 23.25,
                    "velocity": 0.36220472440944884,
                    "duration": 0.140625
                },
                {
                    "name": "D#7",
                    "midi": 99,
                    "time": 23.4375,
                    "velocity": 0.3228346456692913,
                    "duration": 0.09375
                },
                {
                    "name": "D#5",
                    "midi": 75,
                    "time": 23.625,
                    "velocity": 0.36220472440944884,
                    "duration": 0.140625
                },
                {
                    "name": "D#6",
                    "midi": 87,
                    "time": 23.8125,
                    "velocity": 0.30708661417322836,
                    "duration": 0.09375
                },
                {
                    "name": "G5",
                    "midi": 79,
                    "time": 24,
                    "velocity": 0.30708661417322836,
                    "duration": 0.09375
                },
                {
                    "name": "A#5",
                    "midi": 82,
                    "time": 24.1875,
                    "velocity": 0.30708661417322836,
                    "duration": 0.09375
                },
                {
                    "name": "D#6",
                    "midi": 87,
                    "time": 24.375,
                    "velocity": 0.36220472440944884,
                    "duration": 0.140625
                },
                {
                    "name": "D#7",
                    "midi": 99,
                    "time": 24.5625,
                    "velocity": 0.3543307086614173,
                    "duration": 0.09375
                },
                {
                    "name": "D#5",
                    "midi": 75,
                    "time": 25.5,
                    "velocity": 0.3228346456692913,
                    "duration": 0.28125
                },
                {
                    "name": "D#6",
                    "midi": 87,
                    "time": 25.6875,
                    "velocity": 0.29133858267716534,
                    "duration": 0.09375
                },
                {
                    "name": "D#7",
                    "midi": 99,
                    "time": 25.875,
                    "velocity": 0.3937007874015748,
                    "duration": 0.28125
                },
                {
                    "name": "D#6",
                    "midi": 87,
                    "time": 26.0625,
                    "velocity": 0.31496062992125984,
                    "duration": 0.09375
                },
                {
                    "name": "D#7",
                    "midi": 99,
                    "time": 26.25,
                    "velocity": 0.36220472440944884,
                    "duration": 0.28125
                },
                {
                    "name": "D#6",
                    "midi": 87,
                    "time": 26.4375,
                    "velocity": 0.30708661417322836,
                    "duration": 0.09375
                },
                {
                    "name": "D#7",
                    "midi": 99,
                    "time": 26.625,
                    "velocity": 0.36220472440944884,
                    "duration": 0.28125
                },
                {
                    "name": "C#6",
                    "midi": 85,
                    "time": 26.8125,
                    "velocity": 0.30708661417322836,
                    "duration": 0.078125
                },
                {
                    "name": "C#6",
                    "midi": 85,
                    "time": 26.90625,
                    "velocity": 0.30708661417322836,
                    "duration": 0.09375
                },
                {
                    "name": "B5",
                    "midi": 83,
                    "time": 27,
                    "velocity": 0.4251968503937008,
                    "duration": 0.28125
                },
                {
                    "name": "D#7",
                    "midi": 99,
                    "time": 27.1875,
                    "velocity": 0.33858267716535434,
                    "duration": 0.09375
                },
                {
                    "name": "B5",
                    "midi": 83,
                    "time": 27.375,
                    "velocity": 0.3543307086614173,
                    "duration": 0.28125
                },
                {
                    "name": "D#7",
                    "midi": 99,
                    "time": 27.5625,
                    "velocity": 0.31496062992125984,
                    "duration": 0.09375
                },
                {
                    "name": "A#5",
                    "midi": 82,
                    "time": 27.75,
                    "velocity": 0.33858267716535434,
                    "duration": 0.28125
                },
                {
                    "name": "D#7",
                    "midi": 99,
                    "time": 27.9375,
                    "velocity": 0.31496062992125984,
                    "duration": 0.09375
                },
                {
                    "name": "A#5",
                    "midi": 82,
                    "time": 28.03125,
                    "velocity": 0.3858267716535433,
                    "duration": 0.09375
                },
                {
                    "name": "G#5",
                    "midi": 80,
                    "time": 28.125,
                    "velocity": 0.3858267716535433,
                    "duration": 0.28125
                },
                {
                    "name": "D#7",
                    "midi": 99,
                    "time": 28.3125,
                    "velocity": 0.3228346456692913,
                    "duration": 0.09375
                },
                {
                    "name": "G5",
                    "midi": 79,
                    "time": 28.5,
                    "velocity": 0.3543307086614173,
                    "duration": 0.28125
                },
                {
                    "name": "D#7",
                    "midi": 99,
                    "time": 28.6875,
                    "velocity": 0.31496062992125984,
                    "duration": 0.09375
                },
                {
                    "name": "G#5",
                    "midi": 80,
                    "time": 28.875,
                    "velocity": 0.3543307086614173,
                    "duration": 0.28125
                },
                {
                    "name": "D#7",
                    "midi": 99,
                    "time": 29.0625,
                    "velocity": 0.31496062992125984,
                    "duration": 0.09375
                },
                {
                    "name": "G5",
                    "midi": 79,
                    "time": 29.15625,
                    "velocity": 0.3700787401574803,
                    "duration": 0.046875
                },
                {
                    "name": "G#5",
                    "midi": 80,
                    "time": 29.203125,
                    "velocity": 0.3858267716535433,
                    "duration": 0.046875
                },
                {
                    "name": "A#5",
                    "midi": 82,
                    "time": 29.25,
                    "velocity": 0.3937007874015748,
                    "duration": 0.28125
                },
                {
                    "name": "D#7",
                    "midi": 99,
                    "time": 29.4375,
                    "velocity": 0.30708661417322836,
                    "duration": 0.09375
                },
                {
                    "name": "D#5",
                    "midi": 75,
                    "time": 29.625,
                    "velocity": 0.33858267716535434,
                    "duration": 0.28125
                },
                {
                    "name": "D#7",
                    "midi": 99,
                    "time": 29.8125,
                    "velocity": 0.30708661417322836,
                    "duration": 0.09375
                },
                {
                    "name": "D#5",
                    "midi": 75,
                    "time": 30,
                    "velocity": 0.33858267716535434,
                    "duration": 0.28125
                },
                {
                    "name": "D#6",
                    "midi": 87,
                    "time": 30.1875,
                    "velocity": 0.31496062992125984,
                    "duration": 0.09375
                },
                {
                    "name": "F#5",
                    "midi": 78,
                    "time": 30.28125,
                    "velocity": 0.36220472440944884,
                    "duration": 0.09375
                },
                {
                    "name": "E5",
                    "midi": 76,
                    "time": 30.375,
                    "velocity": 0.3700787401574803,
                    "duration": 0.28125
                },
                {
                    "name": "D#6",
                    "midi": 87,
                    "time": 30.5625,
                    "velocity": 0.3228346456692913,
                    "duration": 0.09375
                },
                {
                    "name": "D#5",
                    "midi": 75,
                    "time": 30.75,
                    "velocity": 0.36220472440944884,
                    "duration": 0.28125
                },
                {
                    "name": "D#6",
                    "midi": 87,
                    "time": 30.9375,
                    "velocity": 0.31496062992125984,
                    "duration": 0.09375
                },
                {
                    "name": "C#5",
                    "midi": 73,
                    "time": 31.125,
                    "velocity": 0.36220472440944884,
                    "duration": 0.28125
                },
                {
                    "name": "D#6",
                    "midi": 87,
                    "time": 31.3125,
                    "velocity": 0.30708661417322836,
                    "duration": 0.09375
                },
                {
                    "name": "C#5",
                    "midi": 73,
                    "time": 31.40625,
                    "velocity": 0.3937007874015748,
                    "duration": 0.09375
                },
                {
                    "name": "B4",
                    "midi": 71,
                    "time": 31.5,
                    "velocity": 0.3937007874015748,
                    "duration": 0.28125
                },
                {
                    "name": "D#6",
                    "midi": 87,
                    "time": 31.6875,
                    "velocity": 0.31496062992125984,
                    "duration": 0.09375
                },
                {
                    "name": "B4",
                    "midi": 71,
                    "time": 31.875,
                    "velocity": 0.3543307086614173,
                    "duration": 0.28125
                },
                {
                    "name": "D#6",
                    "midi": 87,
                    "time": 32.0625,
                    "velocity": 0.31496062992125984,
                    "duration": 0.09375
                },
                {
                    "name": "A#4",
                    "midi": 70,
                    "time": 32.25,
                    "velocity": 0.33858267716535434,
                    "duration": 0.28125
                },
                {
                    "name": "D#6",
                    "midi": 87,
                    "time": 32.4375,
                    "velocity": 0.31496062992125984,
                    "duration": 0.09375
                },
                {
                    "name": "A#4",
                    "midi": 70,
                    "time": 32.53125,
                    "velocity": 0.3937007874015748,
                    "duration": 0.09375
                },
                {
                    "name": "G#4",
                    "midi": 68,
                    "time": 32.625,
                    "velocity": 0.3937007874015748,
                    "duration": 0.28125
                },
                {
                    "name": "D#6",
                    "midi": 87,
                    "time": 32.8125,
                    "velocity": 0.31496062992125984,
                    "duration": 0.09375
                },
                {
                    "name": "G4",
                    "midi": 67,
                    "time": 33,
                    "velocity": 0.3543307086614173,
                    "duration": 0.28125
                },
                {
                    "name": "D#6",
                    "midi": 87,
                    "time": 33.1875,
                    "velocity": 0.31496062992125984,
                    "duration": 0.09375
                },
                {
                    "name": "G#4",
                    "midi": 68,
                    "time": 33.375,
                    "velocity": 0.3543307086614173,
                    "duration": 0.28125
                },
                {
                    "name": "D#6",
                    "midi": 87,
                    "time": 33.5625,
                    "velocity": 0.31496062992125984,
                    "duration": 0.09375
                },
                {
                    "name": "A#4",
                    "midi": 70,
                    "time": 33.75,
                    "velocity": 0.36220472440944884,
                    "duration": 0.28125
                },
                {
                    "name": "D#6",
                    "midi": 87,
                    "time": 33.9375,
                    "velocity": 0.30708661417322836,
                    "duration": 0.09375
                },
                {
                    "name": "D#4",
                    "midi": 63,
                    "time": 34.125,
                    "velocity": 0.33858267716535434,
                    "duration": 0.28125
                },
                {
                    "name": "D#5",
                    "midi": 75,
                    "time": 34.3125,
                    "velocity": 0.30708661417322836,
                    "duration": 0.09375
                },
                {
                    "name": "D#5",
                    "midi": 75,
                    "time": 34.5,
                    "velocity": 0.33858267716535434,
                    "duration": 0.28125
                },
                {
                    "name": "D#6",
                    "midi": 87,
                    "time": 34.6875,
                    "velocity": 0.31496062992125984,
                    "duration": 0.09375
                },
                {
                    "name": "D#6",
                    "midi": 87,
                    "time": 34.875,
                    "velocity": 0.3937007874015748,
                    "duration": 0.28125
                },
                {
                    "name": "D#7",
                    "midi": 99,
                    "time": 35.0625,
                    "velocity": 0.3543307086614173,
                    "duration": 0.09375
                },
                {
                    "name": "D#6",
                    "midi": 87,
                    "time": 35.25,
                    "velocity": 0.36220472440944884,
                    "duration": 0.28125
                },
                {
                    "name": "D#7",
                    "midi": 99,
                    "time": 35.4375,
                    "velocity": 0.33858267716535434,
                    "duration": 0.09375
                },
                {
                    "name": "C#6",
                    "midi": 85,
                    "time": 35.625,
                    "velocity": 0.36220472440944884,
                    "duration": 0.28125
                },
                {
                    "name": "D#7",
                    "midi": 99,
                    "time": 35.8125,
                    "velocity": 0.30708661417322836,
                    "duration": 0.09375
                },
                {
                    "name": "C#6",
                    "midi": 85,
                    "time": 35.90625,
                    "velocity": 0.4251968503937008,
                    "duration": 0.09375
                },
                {
                    "name": "B5",
                    "midi": 83,
                    "time": 36,
                    "velocity": 0.4251968503937008,
                    "duration": 0.28125
                },
                {
                    "name": "D#7",
                    "midi": 99,
                    "time": 36.1875,
                    "velocity": 0.3543307086614173,
                    "duration": 0.09375
                },
                {
                    "name": "B5",
                    "midi": 83,
                    "time": 36.375,
                    "velocity": 0.3543307086614173,
                    "duration": 0.28125
                },
                {
                    "name": "D#7",
                    "midi": 99,
                    "time": 36.5625,
                    "velocity": 0.31496062992125984,
                    "duration": 0.09375
                },
                {
                    "name": "A#5",
                    "midi": 82,
                    "time": 36.75,
                    "velocity": 0.3543307086614173,
                    "duration": 0.28125
                },
                {
                    "name": "D#7",
                    "midi": 99,
                    "time": 36.9375,
                    "velocity": 0.31496062992125984,
                    "duration": 0.09375
                },
                {
                    "name": "A#5",
                    "midi": 82,
                    "time": 37.03125,
                    "velocity": 0.36220472440944884,
                    "duration": 0.09375
                },
                {
                    "name": "G#5",
                    "midi": 80,
                    "time": 37.125,
                    "velocity": 0.4015748031496063,
                    "duration": 0.28125
                },
                {
                    "name": "D#7",
                    "midi": 99,
                    "time": 37.3125,
                    "velocity": 0.31496062992125984,
                    "duration": 0.09375
                },
                {
                    "name": "G5",
                    "midi": 79,
                    "time": 37.5,
                    "velocity": 0.3543307086614173,
                    "duration": 0.28125
                },
                {
                    "name": "D#7",
                    "midi": 99,
                    "time": 37.6875,
                    "velocity": 0.31496062992125984,
                    "duration": 0.09375
                },
                {
                    "name": "G#5",
                    "midi": 80,
                    "time": 37.875,
                    "velocity": 0.3543307086614173,
                    "duration": 0.28125
                },
                {
                    "name": "D#7",
                    "midi": 99,
                    "time": 38.0625,
                    "velocity": 0.31496062992125984,
                    "duration": 0.09375
                },
                {
                    "name": "G5",
                    "midi": 79,
                    "time": 38.15625,
                    "velocity": 0.4094488188976378,
                    "duration": 0.046875
                },
                {
                    "name": "G#5",
                    "midi": 80,
                    "time": 38.203125,
                    "velocity": 0.4251968503937008,
                    "duration": 0.046875
                },
                {
                    "name": "A#5",
                    "midi": 82,
                    "time": 38.25,
                    "velocity": 0.4330708661417323,
                    "duration": 0.28125
                },
                {
                    "name": "D#7",
                    "midi": 99,
                    "time": 38.4375,
                    "velocity": 0.30708661417322836,
                    "duration": 0.09375
                },
                {
                    "name": "D#5",
                    "midi": 75,
                    "time": 38.625,
                    "velocity": 0.33858267716535434,
                    "duration": 0.28125
                },
                {
                    "name": "D#7",
                    "midi": 99,
                    "time": 38.8125,
                    "velocity": 0.30708661417322836,
                    "duration": 0.09375
                },
                {
                    "name": "D#5",
                    "midi": 75,
                    "time": 39,
                    "velocity": 0.33858267716535434,
                    "duration": 0.28125
                },
                {
                    "name": "D#6",
                    "midi": 87,
                    "time": 39.1875,
                    "velocity": 0.31496062992125984,
                    "duration": 0.09375
                },
                {
                    "name": "F#5",
                    "midi": 78,
                    "time": 39.28125,
                    "velocity": 0.36220472440944884,
                    "duration": 0.09375
                },
                {
                    "name": "E5",
                    "midi": 76,
                    "time": 39.375,
                    "velocity": 0.3937007874015748,
                    "duration": 0.28125
                },
                {
                    "name": "G#6",
                    "midi": 92,
                    "time": 39.5625,
                    "velocity": 0.3464566929133858,
                    "duration": 0.09375
                },
                {
                    "name": "D#5",
                    "midi": 75,
                    "time": 39.75,
                    "velocity": 0.36220472440944884,
                    "duration": 0.28125
                },
                {
                    "name": "G#6",
                    "midi": 92,
                    "time": 39.9375,
                    "velocity": 0.3464566929133858,
                    "duration": 0.09375
                },
                {
                    "name": "C#5",
                    "midi": 73,
                    "time": 40.125,
                    "velocity": 0.36220472440944884,
                    "duration": 0.28125
                },
                {
                    "name": "G#6",
                    "midi": 92,
                    "time": 40.3125,
                    "velocity": 0.3464566929133858,
                    "duration": 0.09375
                },
                {
                    "name": "D#5",
                    "midi": 75,
                    "time": 40.5,
                    "velocity": 0.36220472440944884,
                    "duration": 0.140625
                },
                {
                    "name": "D#6",
                    "midi": 87,
                    "time": 40.6875,
                    "velocity": 0.30708661417322836,
                    "duration": 0.09375
                },
                {
                    "name": "G#5",
                    "midi": 80,
                    "time": 40.875,
                    "velocity": 0.30708661417322836,
                    "duration": 0.09375
                },
                {
                    "name": "B5",
                    "midi": 83,
                    "time": 41.0625,
                    "velocity": 0.30708661417322836,
                    "duration": 0.09375
                },
                {
                    "name": "D#6",
                    "midi": 87,
                    "time": 41.25,
                    "velocity": 0.36220472440944884,
                    "duration": 0.140625
                },
                {
                    "name": "D#7",
                    "midi": 99,
                    "time": 41.4375,
                    "velocity": 0.3228346456692913,
                    "duration": 0.09375
                },
                {
                    "name": "D#5",
                    "midi": 75,
                    "time": 41.625,
                    "velocity": 0.36220472440944884,
                    "duration": 0.140625
                },
                {
                    "name": "D#6",
                    "midi": 87,
                    "time": 41.8125,
                    "velocity": 0.30708661417322836,
                    "duration": 0.09375
                },
                {
                    "name": "G5",
                    "midi": 79,
                    "time": 42,
                    "velocity": 0.30708661417322836,
                    "duration": 0.09375
                },
                {
                    "name": "A#5",
                    "midi": 82,
                    "time": 42.1875,
                    "velocity": 0.30708661417322836,
                    "duration": 0.09375
                },
                {
                    "name": "D#6",
                    "midi": 87,
                    "time": 42.375,
                    "velocity": 0.36220472440944884,
                    "duration": 0.140625
                },
                {
                    "name": "D#7",
                    "midi": 99,
                    "time": 42.5625,
                    "velocity": 0.3543307086614173,
                    "duration": 0.09375
                },
                {
                    "name": "D#4",
                    "midi": 63,
                    "time": 43.125,
                    "velocity": 0.31496062992125984,
                    "duration": 0.140625
                },
                {
                    "name": "G#4",
                    "midi": 68,
                    "time": 43.3125,
                    "velocity": 0.29133858267716534,
                    "duration": 0.140625
                },
                {
                    "name": "D#5",
                    "midi": 75,
                    "time": 43.5,
                    "velocity": 0.29133858267716534,
                    "duration": 0.140625
                },
                {
                    "name": "G#5",
                    "midi": 80,
                    "time": 43.6875,
                    "velocity": 0.28346456692913385,
                    "duration": 0.140625
                },
                {
                    "name": "G4",
                    "midi": 67,
                    "time": 45.9375,
                    "velocity": 0.28346456692913385,
                    "duration": 0.140625
                },
                {
                    "name": "A#4",
                    "midi": 70,
                    "time": 45.9375,
                    "velocity": 0.3228346456692913,
                    "duration": 0.140625
                },
                {
                    "name": "F#4",
                    "midi": 66,
                    "time": 46.3125,
                    "velocity": 0.30708661417322836,
                    "duration": 0.140625
                },
                {
                    "name": "A4",
                    "midi": 69,
                    "time": 46.3125,
                    "velocity": 0.3464566929133858,
                    "duration": 0.140625
                },
                {
                    "name": "F4",
                    "midi": 65,
                    "time": 46.6875,
                    "velocity": 0.3228346456692913,
                    "duration": 0.140625
                },
                {
                    "name": "G#4",
                    "midi": 68,
                    "time": 46.6875,
                    "velocity": 0.3543307086614173,
                    "duration": 0.140625
                },
                {
                    "name": "E4",
                    "midi": 64,
                    "time": 47.0625,
                    "velocity": 0.33858267716535434,
                    "duration": 0.140625
                },
                {
                    "name": "G4",
                    "midi": 67,
                    "time": 47.0625,
                    "velocity": 0.3700787401574803,
                    "duration": 0.140625
                },
                {
                    "name": "C#5",
                    "midi": 73,
                    "time": 47.25,
                    "velocity": 0.4251968503937008,
                    "duration": 0.09375
                },
                {
                    "name": "B4",
                    "midi": 71,
                    "time": 47.34375,
                    "velocity": 0.4251968503937008,
                    "duration": 0.09375
                },
                {
                    "name": "A#4",
                    "midi": 70,
                    "time": 47.4375,
                    "velocity": 0.4251968503937008,
                    "duration": 0.09375
                },
                {
                    "name": "B4",
                    "midi": 71,
                    "time": 47.53125,
                    "velocity": 0.4251968503937008,
                    "duration": 0.09375
                },
                {
                    "name": "F#4",
                    "midi": 66,
                    "time": 47.625,
                    "velocity": 0.48031496062992124,
                    "duration": 0.140625
                },
                {
                    "name": "F#6",
                    "midi": 90,
                    "time": 47.8125,
                    "velocity": 0.4251968503937008,
                    "duration": 0.140625
                },
                {
                    "name": "B4",
                    "midi": 71,
                    "time": 48,
                    "velocity": 0.4881889763779528,
                    "duration": 0.140625
                },
                {
                    "name": "F#6",
                    "midi": 90,
                    "time": 48.1875,
                    "velocity": 0.4251968503937008,
                    "duration": 0.140625
                },
                {
                    "name": "D#5",
                    "midi": 75,
                    "time": 48.375,
                    "velocity": 0.4409448818897638,
                    "duration": 0.09375
                },
                {
                    "name": "C#5",
                    "midi": 73,
                    "time": 48.46875,
                    "velocity": 0.4409448818897638,
                    "duration": 0.09375
                },
                {
                    "name": "C5",
                    "midi": 72,
                    "time": 48.5625,
                    "velocity": 0.4409448818897638,
                    "duration": 0.09375
                },
                {
                    "name": "C#5",
                    "midi": 73,
                    "time": 48.65625,
                    "velocity": 0.4409448818897638,
                    "duration": 0.09375
                },
                {
                    "name": "F#4",
                    "midi": 66,
                    "time": 48.75,
                    "velocity": 0.49606299212598426,
                    "duration": 0.140625
                },
                {
                    "name": "F#6",
                    "midi": 90,
                    "time": 48.9375,
                    "velocity": 0.48031496062992124,
                    "duration": 0.140625
                },
                {
                    "name": "C#5",
                    "midi": 73,
                    "time": 49.125,
                    "velocity": 0.49606299212598426,
                    "duration": 0.140625
                },
                {
                    "name": "F#6",
                    "midi": 90,
                    "time": 49.3125,
                    "velocity": 0.48031496062992124,
                    "duration": 0.140625
                },
                {
                    "name": "E5",
                    "midi": 76,
                    "time": 49.5,
                    "velocity": 0.4251968503937008,
                    "duration": 0.09375
                },
                {
                    "name": "D#5",
                    "midi": 75,
                    "time": 49.59375,
                    "velocity": 0.4251968503937008,
                    "duration": 0.09375
                },
                {
                    "name": "D5",
                    "midi": 74,
                    "time": 49.6875,
                    "velocity": 0.4251968503937008,
                    "duration": 0.09375
                },
                {
                    "name": "D#5",
                    "midi": 75,
                    "time": 49.78125,
                    "velocity": 0.4251968503937008,
                    "duration": 0.09375
                },
                {
                    "name": "B4",
                    "midi": 71,
                    "time": 49.875,
                    "velocity": 0.48031496062992124,
                    "duration": 0.140625
                },
                {
                    "name": "F#6",
                    "midi": 90,
                    "time": 50.0625,
                    "velocity": 0.4645669291338583,
                    "duration": 0.140625
                },
                {
                    "name": "B4",
                    "midi": 71,
                    "time": 50.4375,
                    "velocity": 0.28346456692913385,
                    "duration": 0.140625
                },
                {
                    "name": "D5",
                    "midi": 74,
                    "time": 50.4375,
                    "velocity": 0.3228346456692913,
                    "duration": 0.140625
                },
                {
                    "name": "A#4",
                    "midi": 70,
                    "time": 50.8125,
                    "velocity": 0.30708661417322836,
                    "duration": 0.140625
                },
                {
                    "name": "C#5",
                    "midi": 73,
                    "time": 50.8125,
                    "velocity": 0.3464566929133858,
                    "duration": 0.140625
                },
                {
                    "name": "A4",
                    "midi": 69,
                    "time": 51.1875,
                    "velocity": 0.3228346456692913,
                    "duration": 0.140625
                },
                {
                    "name": "C5",
                    "midi": 72,
                    "time": 51.1875,
                    "velocity": 0.3543307086614173,
                    "duration": 0.140625
                },
                {
                    "name": "G#4",
                    "midi": 68,
                    "time": 51.5625,
                    "velocity": 0.33858267716535434,
                    "duration": 0.140625
                },
                {
                    "name": "B4",
                    "midi": 71,
                    "time": 51.5625,
                    "velocity": 0.3700787401574803,
                    "duration": 0.140625
                },
                {
                    "name": "F5",
                    "midi": 77,
                    "time": 51.75,
                    "velocity": 0.4251968503937008,
                    "duration": 0.09375
                },
                {
                    "name": "D#5",
                    "midi": 75,
                    "time": 51.84375,
                    "velocity": 0.4251968503937008,
                    "duration": 0.09375
                },
                {
                    "name": "D5",
                    "midi": 74,
                    "time": 51.9375,
                    "velocity": 0.4251968503937008,
                    "duration": 0.09375
                },
                {
                    "name": "D#5",
                    "midi": 75,
                    "time": 52.03125,
                    "velocity": 0.4251968503937008,
                    "duration": 0.09375
                },
                {
                    "name": "A#4",
                    "midi": 70,
                    "time": 52.125,
                    "velocity": 0.48031496062992124,
                    "duration": 0.140625
                },
                {
                    "name": "A#6",
                    "midi": 94,
                    "time": 52.3125,
                    "velocity": 0.4645669291338583,
                    "duration": 0.140625
                },
                {
                    "name": "D#5",
                    "midi": 75,
                    "time": 52.5,
                    "velocity": 0.4881889763779528,
                    "duration": 0.140625
                },
                {
                    "name": "A#6",
                    "midi": 94,
                    "time": 52.6875,
                    "velocity": 0.4645669291338583,
                    "duration": 0.140625
                },
                {
                    "name": "F#5",
                    "midi": 78,
                    "time": 52.875,
                    "velocity": 0.4409448818897638,
                    "duration": 0.09375
                },
                {
                    "name": "F5",
                    "midi": 77,
                    "time": 52.96875,
                    "velocity": 0.4409448818897638,
                    "duration": 0.09375
                },
                {
                    "name": "E5",
                    "midi": 76,
                    "time": 53.0625,
                    "velocity": 0.4409448818897638,
                    "duration": 0.09375
                },
                {
                    "name": "F5",
                    "midi": 77,
                    "time": 53.15625,
                    "velocity": 0.4409448818897638,
                    "duration": 0.09375
                },
                {
                    "name": "A#4",
                    "midi": 70,
                    "time": 53.25,
                    "velocity": 0.49606299212598426,
                    "duration": 0.140625
                },
                {
                    "name": "A#6",
                    "midi": 94,
                    "time": 53.4375,
                    "velocity": 0.47244094488188976,
                    "duration": 0.140625
                },
                {
                    "name": "F5",
                    "midi": 77,
                    "time": 53.625,
                    "velocity": 0.4881889763779528,
                    "duration": 0.140625
                },
                {
                    "name": "A#6",
                    "midi": 94,
                    "time": 53.8125,
                    "velocity": 0.47244094488188976,
                    "duration": 0.140625
                },
                {
                    "name": "G#5",
                    "midi": 80,
                    "time": 54,
                    "velocity": 0.4251968503937008,
                    "duration": 0.09375
                },
                {
                    "name": "F#5",
                    "midi": 78,
                    "time": 54.09375,
                    "velocity": 0.4251968503937008,
                    "duration": 0.09375
                },
                {
                    "name": "F5",
                    "midi": 77,
                    "time": 54.1875,
                    "velocity": 0.4251968503937008,
                    "duration": 0.09375
                },
                {
                    "name": "F#5",
                    "midi": 78,
                    "time": 54.28125,
                    "velocity": 0.4251968503937008,
                    "duration": 0.09375
                },
                {
                    "name": "D#5",
                    "midi": 75,
                    "time": 54.375,
                    "velocity": 0.48031496062992124,
                    "duration": 0.140625
                },
                {
                    "name": "A#6",
                    "midi": 94,
                    "time": 54.5625,
                    "velocity": 0.4645669291338583,
                    "duration": 0.140625
                },
                {
                    "name": "D5",
                    "midi": 74,
                    "time": 54.9375,
                    "velocity": 0.28346456692913385,
                    "duration": 0.140625
                },
                {
                    "name": "F5",
                    "midi": 77,
                    "time": 54.9375,
                    "velocity": 0.3228346456692913,
                    "duration": 0.140625
                },
                {
                    "name": "C#5",
                    "midi": 73,
                    "time": 55.3125,
                    "velocity": 0.30708661417322836,
                    "duration": 0.140625
                },
                {
                    "name": "E5",
                    "midi": 76,
                    "time": 55.3125,
                    "velocity": 0.3464566929133858,
                    "duration": 0.140625
                },
                {
                    "name": "D#5",
                    "midi": 75,
                    "time": 55.6875,
                    "velocity": 0.3543307086614173,
                    "duration": 0.140625
                },
                {
                    "name": "C5",
                    "midi": 72,
                    "time": 55.6875,
                    "velocity": 0.3228346456692913,
                    "duration": 0.140625
                },
                {
                    "name": "D5",
                    "midi": 74,
                    "time": 56.0625,
                    "velocity": 0.3700787401574803,
                    "duration": 0.140625
                },
                {
                    "name": "B4",
                    "midi": 71,
                    "time": 56.0625,
                    "velocity": 0.33858267716535434,
                    "duration": 0.140625
                },
                {
                    "name": "G#5",
                    "midi": 80,
                    "time": 56.25,
                    "velocity": 0.4251968503937008,
                    "duration": 0.09375
                },
                {
                    "name": "F#5",
                    "midi": 78,
                    "time": 56.34375,
                    "velocity": 0.4251968503937008,
                    "duration": 0.09375
                },
                {
                    "name": "F5",
                    "midi": 77,
                    "time": 56.4375,
                    "velocity": 0.4251968503937008,
                    "duration": 0.09375
                },
                {
                    "name": "F#5",
                    "midi": 78,
                    "time": 56.53125,
                    "velocity": 0.4251968503937008,
                    "duration": 0.09375
                },
                {
                    "name": "C#5",
                    "midi": 73,
                    "time": 56.625,
                    "velocity": 0.48031496062992124,
                    "duration": 0.140625
                },
                {
                    "name": "C#7",
                    "midi": 97,
                    "time": 56.8125,
                    "velocity": 0.5039370078740157,
                    "duration": 0.140625
                },
                {
                    "name": "F#5",
                    "midi": 78,
                    "time": 57,
                    "velocity": 0.4881889763779528,
                    "duration": 0.140625
                },
                {
                    "name": "C#7",
                    "midi": 97,
                    "time": 57.1875,
                    "velocity": 0.5039370078740157,
                    "duration": 0.140625
                },
                {
                    "name": "A#5",
                    "midi": 82,
                    "time": 57.375,
                    "velocity": 0.4409448818897638,
                    "duration": 0.09375
                },
                {
                    "name": "G#5",
                    "midi": 80,
                    "time": 57.46875,
                    "velocity": 0.4409448818897638,
                    "duration": 0.09375
                },
                {
                    "name": "G5",
                    "midi": 79,
                    "time": 57.5625,
                    "velocity": 0.4409448818897638,
                    "duration": 0.09375
                },
                {
                    "name": "G#5",
                    "midi": 80,
                    "time": 57.65625,
                    "velocity": 0.4409448818897638,
                    "duration": 0.09375
                },
                {
                    "name": "C#5",
                    "midi": 73,
                    "time": 57.75,
                    "velocity": 0.49606299212598426,
                    "duration": 0.140625
                },
                {
                    "name": "C#7",
                    "midi": 97,
                    "time": 57.9375,
                    "velocity": 0.5039370078740157,
                    "duration": 0.140625
                },
                {
                    "name": "G#5",
                    "midi": 80,
                    "time": 58.125,
                    "velocity": 0.4881889763779528,
                    "duration": 0.140625
                },
                {
                    "name": "C#7",
                    "midi": 97,
                    "time": 58.3125,
                    "velocity": 0.5039370078740157,
                    "duration": 0.140625
                },
                {
                    "name": "A#5",
                    "midi": 82,
                    "time": 58.5,
                    "velocity": 0.3700787401574803,
                    "duration": 0.140625
                },
                {
                    "name": "B5",
                    "midi": 83,
                    "time": 58.6875,
                    "velocity": 0.3700787401574803,
                    "duration": 0.140625
                },
                {
                    "name": "C#6",
                    "midi": 85,
                    "time": 58.875,
                    "velocity": 0.3937007874015748,
                    "duration": 0.375
                },
                {
                    "name": "C#7",
                    "midi": 97,
                    "time": 59.0625,
                    "velocity": 0.4330708661417323,
                    "duration": 0.1875
                },
                {
                    "name": "A#6",
                    "midi": 94,
                    "time": 59.0625,
                    "velocity": 0.4330708661417323,
                    "duration": 0.1875
                },
                {
                    "name": "B5",
                    "midi": 83,
                    "time": 59.25,
                    "velocity": 0.3700787401574803,
                    "duration": 0.140625
                },
                {
                    "name": "A#5",
                    "midi": 82,
                    "time": 59.4375,
                    "velocity": 0.3700787401574803,
                    "duration": 0.140625
                },
                {
                    "name": "G#5",
                    "midi": 80,
                    "time": 59.625,
                    "velocity": 0.3700787401574803,
                    "duration": 0.140625
                },
                {
                    "name": "A#5",
                    "midi": 82,
                    "time": 59.8125,
                    "velocity": 0.3700787401574803,
                    "duration": 0.140625
                },
                {
                    "name": "B5",
                    "midi": 83,
                    "time": 60,
                    "velocity": 0.3937007874015748,
                    "duration": 0.375
                },
                {
                    "name": "B6",
                    "midi": 95,
                    "time": 60.1875,
                    "velocity": 0.4330708661417323,
                    "duration": 0.1875
                },
                {
                    "name": "D#6",
                    "midi": 87,
                    "time": 60.1875,
                    "velocity": 0.3937007874015748,
                    "duration": 0.1875
                },
                {
                    "name": "A#5",
                    "midi": 82,
                    "time": 60.375,
                    "velocity": 0.3700787401574803,
                    "duration": 0.140625
                },
                {
                    "name": "G#5",
                    "midi": 80,
                    "time": 60.5625,
                    "velocity": 0.3700787401574803,
                    "duration": 0.140625
                },
                {
                    "name": "F#5",
                    "midi": 78,
                    "time": 60.75,
                    "velocity": 0.3700787401574803,
                    "duration": 0.140625
                },
                {
                    "name": "G#5",
                    "midi": 80,
                    "time": 60.9375,
                    "velocity": 0.3700787401574803,
                    "duration": 0.140625
                },
                {
                    "name": "A#5",
                    "midi": 82,
                    "time": 61.125,
                    "velocity": 0.3937007874015748,
                    "duration": 0.375
                },
                {
                    "name": "C#6",
                    "midi": 85,
                    "time": 61.3125,
                    "velocity": 0.3700787401574803,
                    "duration": 0.1875
                },
                {
                    "name": "A#6",
                    "midi": 94,
                    "time": 61.3125,
                    "velocity": 0.4251968503937008,
                    "duration": 0.1875
                },
                {
                    "name": "G#5",
                    "midi": 80,
                    "time": 61.5,
                    "velocity": 0.3700787401574803,
                    "duration": 0.140625
                },
                {
                    "name": "F#5",
                    "midi": 78,
                    "time": 61.6875,
                    "velocity": 0.3700787401574803,
                    "duration": 0.140625
                },
                {
                    "name": "F5",
                    "midi": 77,
                    "time": 61.875,
                    "velocity": 0.3700787401574803,
                    "duration": 0.140625
                },
                {
                    "name": "F#5",
                    "midi": 78,
                    "time": 62.0625,
                    "velocity": 0.3700787401574803,
                    "duration": 0.140625
                },
                {
                    "name": "G#5",
                    "midi": 80,
                    "time": 62.25,
                    "velocity": 0.3937007874015748,
                    "duration": 0.375
                },
                {
                    "name": "G#6",
                    "midi": 92,
                    "time": 62.4375,
                    "velocity": 0.4015748031496063,
                    "duration": 0.1875
                },
                {
                    "name": "B5",
                    "midi": 83,
                    "time": 62.4375,
                    "velocity": 0.3543307086614173,
                    "duration": 0.1875
                },
                {
                    "name": "D#5",
                    "midi": 75,
                    "time": 62.625,
                    "velocity": 0.3700787401574803,
                    "duration": 0.140625
                },
                {
                    "name": "F5",
                    "midi": 77,
                    "time": 62.8125,
                    "velocity": 0.3700787401574803,
                    "duration": 0.140625
                },
                {
                    "name": "F#5",
                    "midi": 78,
                    "time": 63,
                    "velocity": 0.3937007874015748,
                    "duration": 0.28125
                },
                {
                    "name": "F#6",
                    "midi": 90,
                    "time": 63.1875,
                    "velocity": 0.3543307086614173,
                    "duration": 0.1875
                },
                {
                    "name": "A#5",
                    "midi": 82,
                    "time": 63.1875,
                    "velocity": 0.31496062992125984,
                    "duration": 0.1875
                },
                {
                    "name": "G#4",
                    "midi": 68,
                    "time": 64.125,
                    "velocity": 0.48031496062992124,
                    "duration": 0.140625
                },
                {
                    "name": "G#5",
                    "midi": 80,
                    "time": 64.3125,
                    "velocity": 0.48031496062992124,
                    "duration": 0.140625
                },
                {
                    "name": "G#6",
                    "midi": 92,
                    "time": 64.5,
                    "velocity": 0.5118110236220472,
                    "duration": 0.28125
                },
                {
                    "name": "G#5",
                    "midi": 80,
                    "time": 64.6875,
                    "velocity": 0.4409448818897638,
                    "duration": 0.1875
                },
                {
                    "name": "G#6",
                    "midi": 92,
                    "time": 64.875,
                    "velocity": 0.5118110236220472,
                    "duration": 0.28125
                },
                {
                    "name": "F#5",
                    "midi": 78,
                    "time": 65.0625,
                    "velocity": 0.4330708661417323,
                    "duration": 0.1875
                },
                {
                    "name": "G#6",
                    "midi": 92,
                    "time": 65.25,
                    "velocity": 0.5275590551181102,
                    "duration": 0.28125
                },
                {
                    "name": "E5",
                    "midi": 76,
                    "time": 65.4375,
                    "velocity": 0.4251968503937008,
                    "duration": 0.1875
                },
                {
                    "name": "F#7",
                    "midi": 102,
                    "time": 65.625,
                    "velocity": 0.5511811023622047,
                    "duration": 0.28125
                },
                {
                    "name": "G#5",
                    "midi": 80,
                    "time": 65.8125,
                    "velocity": 0.4330708661417323,
                    "duration": 0.1875
                },
                {
                    "name": "E7",
                    "midi": 100,
                    "time": 66,
                    "velocity": 0.5511811023622047,
                    "duration": 0.28125
                },
                {
                    "name": "G#5",
                    "midi": 80,
                    "time": 66.1875,
                    "velocity": 0.4330708661417323,
                    "duration": 0.1875
                },
                {
                    "name": "D#7",
                    "midi": 99,
                    "time": 66.375,
                    "velocity": 0.5511811023622047,
                    "duration": 0.28125
                },
                {
                    "name": "G#5",
                    "midi": 80,
                    "time": 66.5625,
                    "velocity": 0.4330708661417323,
                    "duration": 0.1875
                },
                {
                    "name": "C#7",
                    "midi": 97,
                    "time": 66.75,
                    "velocity": 0.5511811023622047,
                    "duration": 0.28125
                },
                {
                    "name": "G#5",
                    "midi": 80,
                    "time": 66.9375,
                    "velocity": 0.4330708661417323,
                    "duration": 0.1875
                },
                {
                    "name": "D#7",
                    "midi": 99,
                    "time": 67.125,
                    "velocity": 0.5511811023622047,
                    "duration": 0.28125
                },
                {
                    "name": "G#5",
                    "midi": 80,
                    "time": 67.3125,
                    "velocity": 0.4251968503937008,
                    "duration": 0.1875
                },
                {
                    "name": "E7",
                    "midi": 100,
                    "time": 67.5,
                    "velocity": 0.5748031496062992,
                    "duration": 0.28125
                },
                {
                    "name": "G#5",
                    "midi": 80,
                    "time": 67.6875,
                    "velocity": 0.4251968503937008,
                    "duration": 0.1875
                },
                {
                    "name": "C#7",
                    "midi": 97,
                    "time": 67.875,
                    "velocity": 0.5433070866141733,
                    "duration": 0.28125
                },
                {
                    "name": "G#5",
                    "midi": 80,
                    "time": 68.0625,
                    "velocity": 0.4330708661417323,
                    "duration": 0.1875
                },
                {
                    "name": "F#4",
                    "midi": 66,
                    "time": 68.625,
                    "velocity": 0.48031496062992124,
                    "duration": 0.140625
                },
                {
                    "name": "F#5",
                    "midi": 78,
                    "time": 68.8125,
                    "velocity": 0.48031496062992124,
                    "duration": 0.140625
                },
                {
                    "name": "F#6",
                    "midi": 90,
                    "time": 69,
                    "velocity": 0.5118110236220472,
                    "duration": 0.28125
                },
                {
                    "name": "F#5",
                    "midi": 78,
                    "time": 69.1875,
                    "velocity": 0.4409448818897638,
                    "duration": 0.1875
                },
                {
                    "name": "F#6",
                    "midi": 90,
                    "time": 69.375,
                    "velocity": 0.5118110236220472,
                    "duration": 0.28125
                },
                {
                    "name": "E5",
                    "midi": 76,
                    "time": 69.5625,
                    "velocity": 0.4330708661417323,
                    "duration": 0.1875
                },
                {
                    "name": "F#6",
                    "midi": 90,
                    "time": 69.75,
                    "velocity": 0.5275590551181102,
                    "duration": 0.28125
                },
                {
                    "name": "D#5",
                    "midi": 75,
                    "time": 69.9375,
                    "velocity": 0.4251968503937008,
                    "duration": 0.1875
                },
                {
                    "name": "E7",
                    "midi": 100,
                    "time": 70.125,
                    "velocity": 0.5511811023622047,
                    "duration": 0.28125
                },
                {
                    "name": "F#5",
                    "midi": 78,
                    "time": 70.3125,
                    "velocity": 0.4330708661417323,
                    "duration": 0.1875
                },
                {
                    "name": "D#7",
                    "midi": 99,
                    "time": 70.5,
                    "velocity": 0.5511811023622047,
                    "duration": 0.28125
                },
                {
                    "name": "F#5",
                    "midi": 78,
                    "time": 70.6875,
                    "velocity": 0.4330708661417323,
                    "duration": 0.1875
                },
                {
                    "name": "C#7",
                    "midi": 97,
                    "time": 70.875,
                    "velocity": 0.5511811023622047,
                    "duration": 0.28125
                },
                {
                    "name": "F#5",
                    "midi": 78,
                    "time": 71.0625,
                    "velocity": 0.4330708661417323,
                    "duration": 0.1875
                },
                {
                    "name": "B6",
                    "midi": 95,
                    "time": 71.25,
                    "velocity": 0.5511811023622047,
                    "duration": 0.28125
                },
                {
                    "name": "F#5",
                    "midi": 78,
                    "time": 71.4375,
                    "velocity": 0.4330708661417323,
                    "duration": 0.1875
                },
                {
                    "name": "C#7",
                    "midi": 97,
                    "time": 71.625,
                    "velocity": 0.5511811023622047,
                    "duration": 0.28125
                },
                {
                    "name": "F#5",
                    "midi": 78,
                    "time": 71.8125,
                    "velocity": 0.4251968503937008,
                    "duration": 0.1875
                },
                {
                    "name": "D#7",
                    "midi": 99,
                    "time": 72,
                    "velocity": 0.5748031496062992,
                    "duration": 0.28125
                },
                {
                    "name": "F#5",
                    "midi": 78,
                    "time": 72.1875,
                    "velocity": 0.4251968503937008,
                    "duration": 0.1875
                },
                {
                    "name": "B6",
                    "midi": 95,
                    "time": 72.375,
                    "velocity": 0.5433070866141733,
                    "duration": 0.28125
                },
                {
                    "name": "F#5",
                    "midi": 78,
                    "time": 72.5625,
                    "velocity": 0.4330708661417323,
                    "duration": 0.1875
                },
                {
                    "name": "D#4",
                    "midi": 63,
                    "time": 73.125,
                    "velocity": 0.5196850393700787,
                    "duration": 0.140625
                },
                {
                    "name": "D#5",
                    "midi": 75,
                    "time": 73.3125,
                    "velocity": 0.48031496062992124,
                    "duration": 0.140625
                },
                {
                    "name": "D#6",
                    "midi": 87,
                    "time": 73.5,
                    "velocity": 0.48031496062992124,
                    "duration": 0.140625
                },
                {
                    "name": "D#5",
                    "midi": 75,
                    "time": 73.6875,
                    "velocity": 0.4094488188976378,
                    "duration": 0.140625
                },
                {
                    "name": "D#6",
                    "midi": 87,
                    "time": 73.875,
                    "velocity": 0.47244094488188976,
                    "duration": 0.140625
                },
                {
                    "name": "D5",
                    "midi": 74,
                    "time": 74.0625,
                    "velocity": 0.4251968503937008,
                    "duration": 0.140625
                },
                {
                    "name": "D#6",
                    "midi": 87,
                    "time": 74.25,
                    "velocity": 0.48031496062992124,
                    "duration": 0.140625
                },
                {
                    "name": "C#5",
                    "midi": 73,
                    "time": 74.4375,
                    "velocity": 0.4330708661417323,
                    "duration": 0.140625
                },
                {
                    "name": "D#6",
                    "midi": 87,
                    "time": 74.625,
                    "velocity": 0.47244094488188976,
                    "duration": 0.140625
                },
                {
                    "name": "C#5",
                    "midi": 73,
                    "time": 74.8125,
                    "velocity": 0.44881889763779526,
                    "duration": 0.1875
                },
                {
                    "name": "D#6",
                    "midi": 87,
                    "time": 75,
                    "velocity": 0.48031496062992124,
                    "duration": 0.140625
                },
                {
                    "name": "B4",
                    "midi": 71,
                    "time": 75.1875,
                    "velocity": 0.5039370078740157,
                    "duration": 0.140625
                },
                {
                    "name": "E5",
                    "midi": 76,
                    "time": 75.375,
                    "velocity": 0.4251968503937008,
                    "duration": 0.140625
                },
                {
                    "name": "E6",
                    "midi": 88,
                    "time": 75.375,
                    "velocity": 0.5748031496062992,
                    "duration": 0.140625
                },
                {
                    "name": "A#5",
                    "midi": 82,
                    "time": 75.5625,
                    "velocity": 0.4251968503937008,
                    "duration": 0.140625
                },
                {
                    "name": "D#6",
                    "midi": 87,
                    "time": 75.5625,
                    "velocity": 0.5669291338582677,
                    "duration": 0.140625
                },
                {
                    "name": "C#5",
                    "midi": 73,
                    "time": 75.75,
                    "velocity": 0.4094488188976378,
                    "duration": 0.140625
                },
                {
                    "name": "C#6",
                    "midi": 85,
                    "time": 75.75,
                    "velocity": 0.5590551181102362,
                    "duration": 0.140625
                },
                {
                    "name": "E5",
                    "midi": 76,
                    "time": 75.9375,
                    "velocity": 0.4015748031496063,
                    "duration": 0.140625
                },
                {
                    "name": "B5",
                    "midi": 83,
                    "time": 75.9375,
                    "velocity": 0.5511811023622047,
                    "duration": 0.140625
                },
                {
                    "name": "B4",
                    "midi": 71,
                    "time": 76.125,
                    "velocity": 0.4015748031496063,
                    "duration": 0.140625
                },
                {
                    "name": "A#5",
                    "midi": 82,
                    "time": 76.125,
                    "velocity": 0.5511811023622047,
                    "duration": 0.140625
                },
                {
                    "name": "F5",
                    "midi": 77,
                    "time": 76.3125,
                    "velocity": 0.4015748031496063,
                    "duration": 0.140625
                },
                {
                    "name": "G#5",
                    "midi": 80,
                    "time": 76.3125,
                    "velocity": 0.5433070866141733,
                    "duration": 0.140625
                },
                {
                    "name": "A#4",
                    "midi": 70,
                    "time": 76.5,
                    "velocity": 0.4015748031496063,
                    "duration": 0.140625
                },
                {
                    "name": "G5",
                    "midi": 79,
                    "time": 76.5,
                    "velocity": 0.5433070866141733,
                    "duration": 0.140625
                },
                {
                    "name": "D#5",
                    "midi": 75,
                    "time": 76.6875,
                    "velocity": 0.3700787401574803,
                    "duration": 0.140625
                },
                {
                    "name": "A#5",
                    "midi": 82,
                    "time": 76.6875,
                    "velocity": 0.5118110236220472,
                    "duration": 0.140625
                },
                {
                    "name": "G5",
                    "midi": 79,
                    "time": 76.875,
                    "velocity": 0.3543307086614173,
                    "duration": 0.140625
                },
                {
                    "name": "B5",
                    "midi": 83,
                    "time": 76.875,
                    "velocity": 0.4881889763779528,
                    "duration": 0.140625
                },
                {
                    "name": "D#5",
                    "midi": 75,
                    "time": 77.0625,
                    "velocity": 0.33858267716535434,
                    "duration": 0.140625
                },
                {
                    "name": "A#5",
                    "midi": 82,
                    "time": 77.0625,
                    "velocity": 0.44881889763779526,
                    "duration": 0.140625
                },
                {
                    "name": "D#5",
                    "midi": 75,
                    "time": 77.625,
                    "velocity": 0.5196850393700787,
                    "duration": 0.140625
                },
                {
                    "name": "D#6",
                    "midi": 87,
                    "time": 77.8125,
                    "velocity": 0.48031496062992124,
                    "duration": 0.140625
                },
                {
                    "name": "D#7",
                    "midi": 99,
                    "time": 78,
                    "velocity": 0.47244094488188976,
                    "duration": 0.140625
                },
                {
                    "name": "D#6",
                    "midi": 87,
                    "time": 78.1875,
                    "velocity": 0.3937007874015748,
                    "duration": 0.140625
                },
                {
                    "name": "D#7",
                    "midi": 99,
                    "time": 78.375,
                    "velocity": 0.4409448818897638,
                    "duration": 0.140625
                },
                {
                    "name": "D6",
                    "midi": 86,
                    "time": 78.5625,
                    "velocity": 0.4094488188976378,
                    "duration": 0.140625
                },
                {
                    "name": "D#7",
                    "midi": 99,
                    "time": 78.75,
                    "velocity": 0.44881889763779526,
                    "duration": 0.140625
                },
                {
                    "name": "C#6",
                    "midi": 85,
                    "time": 78.9375,
                    "velocity": 0.4251968503937008,
                    "duration": 0.140625
                },
                {
                    "name": "D#7",
                    "midi": 99,
                    "time": 79.125,
                    "velocity": 0.48031496062992124,
                    "duration": 0.140625
                },
                {
                    "name": "C#6",
                    "midi": 85,
                    "time": 79.3125,
                    "velocity": 0.4330708661417323,
                    "duration": 0.1875
                },
                {
                    "name": "D#7",
                    "midi": 99,
                    "time": 79.5,
                    "velocity": 0.48031496062992124,
                    "duration": 0.140625
                },
                {
                    "name": "B5",
                    "midi": 83,
                    "time": 79.6875,
                    "velocity": 0.49606299212598426,
                    "duration": 0.140625
                },
                {
                    "name": "E6",
                    "midi": 88,
                    "time": 79.875,
                    "velocity": 0.3700787401574803,
                    "duration": 0.140625
                },
                {
                    "name": "E7",
                    "midi": 100,
                    "time": 79.875,
                    "velocity": 0.5196850393700787,
                    "duration": 0.140625
                },
                {
                    "name": "A6",
                    "midi": 93,
                    "time": 80.0625,
                    "velocity": 0.3700787401574803,
                    "duration": 0.140625
                },
                {
                    "name": "D#7",
                    "midi": 99,
                    "time": 80.0625,
                    "velocity": 0.5039370078740157,
                    "duration": 0.140625
                },
                {
                    "name": "C#6",
                    "midi": 85,
                    "time": 80.25,
                    "velocity": 0.36220472440944884,
                    "duration": 0.140625
                },
                {
                    "name": "C#7",
                    "midi": 97,
                    "time": 80.25,
                    "velocity": 0.49606299212598426,
                    "duration": 0.140625
                },
                {
                    "name": "E6",
                    "midi": 88,
                    "time": 80.4375,
                    "velocity": 0.3543307086614173,
                    "duration": 0.140625
                },
                {
                    "name": "B6",
                    "midi": 95,
                    "time": 80.4375,
                    "velocity": 0.4881889763779528,
                    "duration": 0.140625
                },
                {
                    "name": "B5",
                    "midi": 83,
                    "time": 80.625,
                    "velocity": 0.3543307086614173,
                    "duration": 0.140625
                },
                {
                    "name": "A6",
                    "midi": 93,
                    "time": 80.625,
                    "velocity": 0.4881889763779528,
                    "duration": 0.140625
                },
                {
                    "name": "F6",
                    "midi": 89,
                    "time": 80.8125,
                    "velocity": 0.3543307086614173,
                    "duration": 0.140625
                },
                {
                    "name": "G#6",
                    "midi": 92,
                    "time": 80.8125,
                    "velocity": 0.48031496062992124,
                    "duration": 0.140625
                },
                {
                    "name": "G6",
                    "midi": 91,
                    "time": 81,
                    "velocity": 0.49606299212598426,
                    "duration": 0.140625
                },
                {
                    "name": "A#5",
                    "midi": 82,
                    "time": 81,
                    "velocity": 0.3543307086614173,
                    "duration": 0.140625
                },
                {
                    "name": "D#6",
                    "midi": 87,
                    "time": 81.1875,
                    "velocity": 0.3543307086614173,
                    "duration": 0.140625
                },
                {
                    "name": "A#6",
                    "midi": 94,
                    "time": 81.1875,
                    "velocity": 0.44881889763779526,
                    "duration": 0.140625
                },
                {
                    "name": "D#7",
                    "midi": 99,
                    "time": 82.125,
                    "velocity": 0.47244094488188976,
                    "duration": 0.140625
                },
                {
                    "name": "D#6",
                    "midi": 87,
                    "time": 82.3125,
                    "velocity": 0.4330708661417323,
                    "duration": 0.140625
                },
                {
                    "name": "D#7",
                    "midi": 99,
                    "time": 83.25,
                    "velocity": 0.48031496062992124,
                    "duration": 0.140625
                },
                {
                    "name": "D#6",
                    "midi": 87,
                    "time": 83.4375,
                    "velocity": 0.4409448818897638,
                    "duration": 0.140625
                },
                {
                    "name": "D#7",
                    "midi": 99,
                    "time": 84.375,
                    "velocity": 0.5039370078740157,
                    "duration": 0.140625
                },
                {
                    "name": "D#6",
                    "midi": 87,
                    "time": 84.5625,
                    "velocity": 0.44881889763779526,
                    "duration": 0.140625
                },
                {
                    "name": "D#7",
                    "midi": 99,
                    "time": 85.125,
                    "velocity": 0.5275590551181102,
                    "duration": 0.140625
                },
                {
                    "name": "D#6",
                    "midi": 87,
                    "time": 85.3125,
                    "velocity": 0.4881889763779528,
                    "duration": 0.140625
                },
                {
                    "name": "D#7",
                    "midi": 99,
                    "time": 85.875,
                    "velocity": 0.5511811023622047,
                    "duration": 0.140625
                },
                {
                    "name": "D#6",
                    "midi": 87,
                    "time": 86.0625,
                    "velocity": 0.4881889763779528,
                    "duration": 0.140625
                },
                {
                    "name": "D#7",
                    "midi": 99,
                    "time": 86.625,
                    "velocity": 0.5590551181102362,
                    "duration": 0.140625
                },
                {
                    "name": "A5",
                    "midi": 81,
                    "time": 86.8125,
                    "velocity": 0.5590551181102362,
                    "duration": 0.140625
                },
                {
                    "name": "D#7",
                    "midi": 99,
                    "time": 87,
                    "velocity": 0.5669291338582677,
                    "duration": 0.140625
                },
                {
                    "name": "A#5",
                    "midi": 82,
                    "time": 87.1875,
                    "velocity": 0.5669291338582677,
                    "duration": 0.140625
                },
                {
                    "name": "D#7",
                    "midi": 99,
                    "time": 87.375,
                    "velocity": 0.5669291338582677,
                    "duration": 0.140625
                },
                {
                    "name": "B5",
                    "midi": 83,
                    "time": 87.5625,
                    "velocity": 0.5748031496062992,
                    "duration": 0.140625
                },
                {
                    "name": "D#7",
                    "midi": 99,
                    "time": 87.75,
                    "velocity": 0.5905511811023622,
                    "duration": 0.140625
                },
                {
                    "name": "C6",
                    "midi": 84,
                    "time": 87.9375,
                    "velocity": 0.5905511811023622,
                    "duration": 0.140625
                },
                {
                    "name": "D#7",
                    "midi": 99,
                    "time": 88.125,
                    "velocity": 0.5984251968503937,
                    "duration": 0.140625
                },
                {
                    "name": "C#6",
                    "midi": 85,
                    "time": 88.3125,
                    "velocity": 0.6062992125984252,
                    "duration": 0.140625
                },
                {
                    "name": "D#7",
                    "midi": 99,
                    "time": 88.5,
                    "velocity": 0.6220472440944882,
                    "duration": 0.140625
                },
                {
                    "name": "D6",
                    "midi": 86,
                    "time": 88.6875,
                    "velocity": 0.6220472440944882,
                    "duration": 0.140625
                },
                {
                    "name": "D#7",
                    "midi": 99,
                    "time": 88.875,
                    "velocity": 0.6299212598425197,
                    "duration": 0.140625
                },
                {
                    "name": "D#6",
                    "midi": 87,
                    "time": 89.0625,
                    "velocity": 0.6377952755905512,
                    "duration": 0.140625
                },
                {
                    "name": "D#7",
                    "midi": 99,
                    "time": 89.25,
                    "velocity": 0.6377952755905512,
                    "duration": 0.140625
                },
                {
                    "name": "D#6",
                    "midi": 87,
                    "time": 89.4375,
                    "velocity": 0.6377952755905512,
                    "duration": 0.140625
                },
                {
                    "name": "D#7",
                    "midi": 99,
                    "time": 89.625,
                    "velocity": 0.6456692913385826,
                    "duration": 0.140625
                },
                {
                    "name": "D#6",
                    "midi": 87,
                    "time": 89.8125,
                    "velocity": 0.6377952755905512,
                    "duration": 0.140625
                },
                {
                    "name": "D#7",
                    "midi": 99,
                    "time": 90,
                    "velocity": 0.6377952755905512,
                    "duration": 0.140625
                },
                {
                    "name": "D#6",
                    "midi": 87,
                    "time": 90.1875,
                    "velocity": 0.6220472440944882,
                    "duration": 0.140625
                },
                {
                    "name": "D#7",
                    "midi": 99,
                    "time": 90.375,
                    "velocity": 0.6377952755905512,
                    "duration": 0.140625
                },
                {
                    "name": "D#6",
                    "midi": 87,
                    "time": 90.5625,
                    "velocity": 0.5984251968503937,
                    "duration": 0.140625
                },
                {
                    "name": "D#7",
                    "midi": 99,
                    "time": 90.75,
                    "velocity": 0.5669291338582677,
                    "duration": 0.140625
                },
                {
                    "name": "D#6",
                    "midi": 87,
                    "time": 90.9375,
                    "velocity": 0.48031496062992124,
                    "duration": 0.140625
                },
                {
                    "name": "D#7",
                    "midi": 99,
                    "time": 91.125,
                    "velocity": 0.4881889763779528,
                    "duration": 0.140625
                },
                {
                    "name": "D#6",
                    "midi": 87,
                    "time": 91.3125,
                    "velocity": 0.48031496062992124,
                    "duration": 0.140625
                },
                {
                    "name": "D#5",
                    "midi": 75,
                    "time": 91.5,
                    "velocity": 0.4645669291338583,
                    "duration": 0.375
                },
                {
                    "name": "D#6",
                    "midi": 87,
                    "time": 91.6875,
                    "velocity": 0.48031496062992124,
                    "duration": 0.140625
                },
                {
                    "name": "D#7",
                    "midi": 99,
                    "time": 91.875,
                    "velocity": 0.48031496062992124,
                    "duration": 0.140625
                },
                {
                    "name": "D#6",
                    "midi": 87,
                    "time": 92.0625,
                    "velocity": 0.48031496062992124,
                    "duration": 0.140625
                },
                {
                    "name": "D#5",
                    "midi": 75,
                    "time": 92.25,
                    "velocity": 0.4645669291338583,
                    "duration": 0.375
                },
                {
                    "name": "D#6",
                    "midi": 87,
                    "time": 92.4375,
                    "velocity": 0.4330708661417323,
                    "duration": 0.140625
                },
                {
                    "name": "D#7",
                    "midi": 99,
                    "time": 92.625,
                    "velocity": 0.4330708661417323,
                    "duration": 0.140625
                },
                {
                    "name": "D#6",
                    "midi": 87,
                    "time": 92.8125,
                    "velocity": 0.4330708661417323,
                    "duration": 0.140625
                },
                {
                    "name": "D#5",
                    "midi": 75,
                    "time": 93,
                    "velocity": 0.48031496062992124,
                    "duration": 0.140625
                },
                {
                    "name": "D#6",
                    "midi": 87,
                    "time": 93.1875,
                    "velocity": 0.4330708661417323,
                    "duration": 0.140625
                },
                {
                    "name": "D#7",
                    "midi": 99,
                    "time": 93.375,
                    "velocity": 0.3700787401574803,
                    "duration": 0.140625
                },
                {
                    "name": "D#6",
                    "midi": 87,
                    "time": 93.5625,
                    "velocity": 0.3700787401574803,
                    "duration": 0.140625
                },
                {
                    "name": "D#5",
                    "midi": 75,
                    "time": 93.75,
                    "velocity": 0.4330708661417323,
                    "duration": 0.375
                },
                {
                    "name": "D#6",
                    "midi": 87,
                    "time": 93.9375,
                    "velocity": 0.3700787401574803,
                    "duration": 0.140625
                },
                {
                    "name": "D#7",
                    "midi": 99,
                    "time": 94.125,
                    "velocity": 0.3700787401574803,
                    "duration": 0.140625
                },
                {
                    "name": "D#6",
                    "midi": 87,
                    "time": 94.3125,
                    "velocity": 0.3700787401574803,
                    "duration": 0.140625
                },
                {
                    "name": "D#5",
                    "midi": 75,
                    "time": 94.5,
                    "velocity": 0.3700787401574803,
                    "duration": 0.140625
                },
                {
                    "name": "D#6",
                    "midi": 87,
                    "time": 94.6875,
                    "velocity": 0.3700787401574803,
                    "duration": 0.140625
                },
                {
                    "name": "D#7",
                    "midi": 99,
                    "time": 94.875,
                    "velocity": 0.3700787401574803,
                    "duration": 0.140625
                },
                {
                    "name": "D#6",
                    "midi": 87,
                    "time": 95.0625,
                    "velocity": 0.3858267716535433,
                    "duration": 0.140625
                },
                {
                    "name": "D#5",
                    "midi": 75,
                    "time": 95.25,
                    "velocity": 0.4015748031496063,
                    "duration": 0.140625
                },
                {
                    "name": "D#6",
                    "midi": 87,
                    "time": 95.4375,
                    "velocity": 0.4015748031496063,
                    "duration": 0.140625
                },
                {
                    "name": "D#7",
                    "midi": 99,
                    "time": 95.625,
                    "velocity": 0.4251968503937008,
                    "duration": 0.140625
                },
                {
                    "name": "D#6",
                    "midi": 87,
                    "time": 95.8125,
                    "velocity": 0.4251968503937008,
                    "duration": 0.140625
                },
                {
                    "name": "D#5",
                    "midi": 75,
                    "time": 96,
                    "velocity": 0.4251968503937008,
                    "duration": 0.140625
                },
                {
                    "name": "D#6",
                    "midi": 87,
                    "time": 96.1875,
                    "velocity": 0.4330708661417323,
                    "duration": 0.140625
                },
                {
                    "name": "D#7",
                    "midi": 99,
                    "time": 96.375,
                    "velocity": 0.44881889763779526,
                    "duration": 0.140625
                },
                {
                    "name": "D#6",
                    "midi": 87,
                    "time": 96.5625,
                    "velocity": 0.44881889763779526,
                    "duration": 0.140625
                },
                {
                    "name": "D#5",
                    "midi": 75,
                    "time": 96.75,
                    "velocity": 0.47244094488188976,
                    "duration": 0.140625
                },
                {
                    "name": "D#6",
                    "midi": 87,
                    "time": 96.9375,
                    "velocity": 0.47244094488188976,
                    "duration": 0.140625
                },
                {
                    "name": "D#7",
                    "midi": 99,
                    "time": 97.125,
                    "velocity": 0.47244094488188976,
                    "duration": 0.140625
                },
                {
                    "name": "D#6",
                    "midi": 87,
                    "time": 97.3125,
                    "velocity": 0.4645669291338583,
                    "duration": 0.140625
                },
                {
                    "name": "D#5",
                    "midi": 75,
                    "time": 97.5,
                    "velocity": 0.4645669291338583,
                    "duration": 0.140625
                },
                {
                    "name": "D#6",
                    "midi": 87,
                    "time": 97.6875,
                    "velocity": 0.44881889763779526,
                    "duration": 0.140625
                },
                {
                    "name": "D#7",
                    "midi": 99,
                    "time": 97.875,
                    "velocity": 0.44881889763779526,
                    "duration": 0.140625
                },
                {
                    "name": "D#6",
                    "midi": 87,
                    "time": 98.0625,
                    "velocity": 0.44881889763779526,
                    "duration": 0.140625
                },
                {
                    "name": "D#5",
                    "midi": 75,
                    "time": 98.25,
                    "velocity": 0.4409448818897638,
                    "duration": 0.140625
                },
                {
                    "name": "D#6",
                    "midi": 87,
                    "time": 98.4375,
                    "velocity": 0.4409448818897638,
                    "duration": 0.140625
                },
                {
                    "name": "D#7",
                    "midi": 99,
                    "time": 98.625,
                    "velocity": 0.4251968503937008,
                    "duration": 0.140625
                },
                {
                    "name": "D#6",
                    "midi": 87,
                    "time": 98.8125,
                    "velocity": 0.4251968503937008,
                    "duration": 0.140625
                },
                {
                    "name": "D#5",
                    "midi": 75,
                    "time": 99,
                    "velocity": 0.4251968503937008,
                    "duration": 0.140625
                },
                {
                    "name": "D#6",
                    "midi": 87,
                    "time": 99.1875,
                    "velocity": 0.4251968503937008,
                    "duration": 0.140625
                },
                {
                    "name": "D#7",
                    "midi": 99,
                    "time": 99.375,
                    "velocity": 0.4251968503937008,
                    "duration": 0.140625
                },
                {
                    "name": "D#6",
                    "midi": 87,
                    "time": 99.5625,
                    "velocity": 0.4094488188976378,
                    "duration": 0.140625
                },
                {
                    "name": "D#5",
                    "midi": 75,
                    "time": 99.75,
                    "velocity": 0.4094488188976378,
                    "duration": 0.140625
                },
                {
                    "name": "D#6",
                    "midi": 87,
                    "time": 99.9375,
                    "velocity": 0.4015748031496063,
                    "duration": 0.140625
                },
                {
                    "name": "D#7",
                    "midi": 99,
                    "time": 100.125,
                    "velocity": 0.3700787401574803,
                    "duration": 0.140625
                },
                {
                    "name": "D#6",
                    "midi": 87,
                    "time": 100.3125,
                    "velocity": 0.3700787401574803,
                    "duration": 0.140625
                },
                {
                    "name": "D#5",
                    "midi": 75,
                    "time": 100.5,
                    "velocity": 0.36220472440944884,
                    "duration": 0.140625
                },
                {
                    "name": "D#6",
                    "midi": 87,
                    "time": 100.6875,
                    "velocity": 0.3543307086614173,
                    "duration": 0.140625
                },
                {
                    "name": "D#7",
                    "midi": 99,
                    "time": 100.875,
                    "velocity": 0.3543307086614173,
                    "duration": 0.140625
                },
                {
                    "name": "D#6",
                    "midi": 87,
                    "time": 101.0625,
                    "velocity": 0.3464566929133858,
                    "duration": 0.140625
                },
                {
                    "name": "D#5",
                    "midi": 75,
                    "time": 101.25,
                    "velocity": 0.3700787401574803,
                    "duration": 0.140625
                },
                {
                    "name": "D#6",
                    "midi": 87,
                    "time": 101.4375,
                    "velocity": 0.3700787401574803,
                    "duration": 0.140625
                },
                {
                    "name": "D#7",
                    "midi": 99,
                    "time": 101.625,
                    "velocity": 0.3700787401574803,
                    "duration": 0.140625
                },
                {
                    "name": "D#6",
                    "midi": 87,
                    "time": 101.8125,
                    "velocity": 0.3700787401574803,
                    "duration": 0.140625
                },
                {
                    "name": "D#5",
                    "midi": 75,
                    "time": 102,
                    "velocity": 0.3700787401574803,
                    "duration": 0.140625
                },
                {
                    "name": "D#6",
                    "midi": 87,
                    "time": 102.1875,
                    "velocity": 0.3700787401574803,
                    "duration": 0.140625
                },
                {
                    "name": "D#7",
                    "midi": 99,
                    "time": 102.3921875,
                    "velocity": 0.3700787401574803,
                    "duration": 0.140625
                },
                {
                    "name": "D#6",
                    "midi": 87,
                    "time": 102.5796875,
                    "velocity": 0.3700787401574803,
                    "duration": 0.140625
                },
                {
                    "name": "D#5",
                    "midi": 75,
                    "time": 102.7671875,
                    "velocity": 0.4330708661417323,
                    "duration": 0.375
                },
                {
                    "name": "D#6",
                    "midi": 87,
                    "time": 102.9546875,
                    "velocity": 0.3700787401574803,
                    "duration": 0.140625
                },
                {
                    "name": "D#7",
                    "midi": 99,
                    "time": 103.1421875,
                    "velocity": 0.3700787401574803,
                    "duration": 0.140625
                },
                {
                    "name": "D#6",
                    "midi": 87,
                    "time": 103.3296875,
                    "velocity": 0.3700787401574803,
                    "duration": 0.140625
                },
                {
                    "name": "D#5",
                    "midi": 75,
                    "time": 103.5,
                    "velocity": 0.3700787401574803,
                    "duration": 0.140625
                },
                {
                    "name": "D#6",
                    "midi": 87,
                    "time": 103.6875,
                    "velocity": 0.3700787401574803,
                    "duration": 0.140625
                },
                {
                    "name": "D#7",
                    "midi": 99,
                    "time": 103.875,
                    "velocity": 0.3700787401574803,
                    "duration": 0.140625
                },
                {
                    "name": "D#6",
                    "midi": 87,
                    "time": 104.0625,
                    "velocity": 0.3858267716535433,
                    "duration": 0.140625
                },
                {
                    "name": "D#5",
                    "midi": 75,
                    "time": 104.25,
                    "velocity": 0.4015748031496063,
                    "duration": 0.140625
                },
                {
                    "name": "D#6",
                    "midi": 87,
                    "time": 104.4546875,
                    "velocity": 0.4015748031496063,
                    "duration": 0.140625
                },
                {
                    "name": "D#7",
                    "midi": 99,
                    "time": 104.625,
                    "velocity": 0.4251968503937008,
                    "duration": 0.140625
                },
                {
                    "name": "D#6",
                    "midi": 87,
                    "time": 104.8125,
                    "velocity": 0.4251968503937008,
                    "duration": 0.140625
                },
                {
                    "name": "D#5",
                    "midi": 75,
                    "time": 105,
                    "velocity": 0.4251968503937008,
                    "duration": 0.140625
                },
                {
                    "name": "D#6",
                    "midi": 87,
                    "time": 105.1875,
                    "velocity": 0.4330708661417323,
                    "duration": 0.140625
                },
                {
                    "name": "D#7",
                    "midi": 99,
                    "time": 105.375,
                    "velocity": 0.44881889763779526,
                    "duration": 0.140625
                },
                {
                    "name": "D#6",
                    "midi": 87,
                    "time": 105.5625,
                    "velocity": 0.44881889763779526,
                    "duration": 0.140625
                },
                {
                    "name": "D#5",
                    "midi": 75,
                    "time": 105.75,
                    "velocity": 0.47244094488188976,
                    "duration": 0.140625
                },
                {
                    "name": "D#6",
                    "midi": 87,
                    "time": 105.9375,
                    "velocity": 0.47244094488188976,
                    "duration": 0.140625
                },
                {
                    "name": "D#7",
                    "midi": 99,
                    "time": 106.125,
                    "velocity": 0.47244094488188976,
                    "duration": 0.140625
                },
                {
                    "name": "D#6",
                    "midi": 87,
                    "time": 106.3125,
                    "velocity": 0.4645669291338583,
                    "duration": 0.140625
                },
                {
                    "name": "D#5",
                    "midi": 75,
                    "time": 106.5,
                    "velocity": 0.4645669291338583,
                    "duration": 0.375
                },
                {
                    "name": "D#6",
                    "midi": 87,
                    "time": 106.6875,
                    "velocity": 0.44881889763779526,
                    "duration": 0.140625
                },
                {
                    "name": "E5",
                    "midi": 76,
                    "time": 106.875,
                    "velocity": 0.4251968503937008,
                    "duration": 0.375
                },
                {
                    "name": "D#6",
                    "midi": 87,
                    "time": 107.0625,
                    "velocity": 0.4251968503937008,
                    "duration": 0.1875
                },
                {
                    "name": "D#5",
                    "midi": 75,
                    "time": 107.25,
                    "velocity": 0.3937007874015748,
                    "duration": 0.375
                },
                {
                    "name": "D#6",
                    "midi": 87,
                    "time": 107.4375,
                    "velocity": 0.3937007874015748,
                    "duration": 0.1875
                },
                {
                    "name": "C#5",
                    "midi": 73,
                    "time": 107.625,
                    "velocity": 0.3937007874015748,
                    "duration": 0.375
                },
                {
                    "name": "D#6",
                    "midi": 87,
                    "time": 107.8125,
                    "velocity": 0.3937007874015748,
                    "duration": 0.1875
                },
                {
                    "name": "D#5",
                    "midi": 75,
                    "time": 108,
                    "velocity": 0.4645669291338583,
                    "duration": 0.375
                },
                {
                    "name": "D#6",
                    "midi": 87,
                    "time": 108.1875,
                    "velocity": 0.4251968503937008,
                    "duration": 0.1875
                },
                {
                    "name": "G#5",
                    "midi": 80,
                    "time": 108.375,
                    "velocity": 0.4251968503937008,
                    "duration": 0.140625
                },
                {
                    "name": "B5",
                    "midi": 83,
                    "time": 108.5625,
                    "velocity": 0.4251968503937008,
                    "duration": 0.140625
                },
                {
                    "name": "D#6",
                    "midi": 87,
                    "time": 108.75,
                    "velocity": 0.47244094488188976,
                    "duration": 0.375
                },
                {
                    "name": "D#7",
                    "midi": 99,
                    "time": 108.9375,
                    "velocity": 0.4251968503937008,
                    "duration": 0.1875
                },
                {
                    "name": "D#5",
                    "midi": 75,
                    "time": 109.125,
                    "velocity": 0.4645669291338583,
                    "duration": 0.375
                },
                {
                    "name": "D#6",
                    "midi": 87,
                    "time": 109.3125,
                    "velocity": 0.4251968503937008,
                    "duration": 0.1875
                },
                {
                    "name": "G5",
                    "midi": 79,
                    "time": 109.5,
                    "velocity": 0.4251968503937008,
                    "duration": 0.140625
                },
                {
                    "name": "A#5",
                    "midi": 82,
                    "time": 109.6875,
                    "velocity": 0.4251968503937008,
                    "duration": 0.140625
                },
                {
                    "name": "D#6",
                    "midi": 87,
                    "time": 109.875,
                    "velocity": 0.47244094488188976,
                    "duration": 0.375
                },
                {
                    "name": "D#7",
                    "midi": 99,
                    "time": 110.0625,
                    "velocity": 0.4251968503937008,
                    "duration": 0.1875
                },
                {
                    "name": "D#5",
                    "midi": 75,
                    "time": 111,
                    "velocity": 0.3858267716535433,
                    "duration": 0.0625
                },
                {
                    "name": "D#6",
                    "midi": 87,
                    "time": 111.125,
                    "velocity": 0.3858267716535433,
                    "duration": 0.0625
                },
                {
                    "name": "D#6",
                    "midi": 87,
                    "time": 111.25,
                    "velocity": 0.3858267716535433,
                    "duration": 0.0625
                },
                {
                    "name": "D#6",
                    "midi": 87,
                    "time": 111.375,
                    "velocity": 0.4094488188976378,
                    "duration": 0.0625
                },
                {
                    "name": "D#6",
                    "midi": 87,
                    "time": 111.5,
                    "velocity": 0.4094488188976378,
                    "duration": 0.0625
                },
                {
                    "name": "D#7",
                    "midi": 99,
                    "time": 111.625,
                    "velocity": 0.4094488188976378,
                    "duration": 0.0625
                },
                {
                    "name": "D#6",
                    "midi": 87,
                    "time": 111.75,
                    "velocity": 0.4094488188976378,
                    "duration": 0.0625
                },
                {
                    "name": "D#6",
                    "midi": 87,
                    "time": 111.875,
                    "velocity": 0.4094488188976378,
                    "duration": 0.0625
                },
                {
                    "name": "D#7",
                    "midi": 99,
                    "time": 112,
                    "velocity": 0.4094488188976378,
                    "duration": 0.0625
                },
                {
                    "name": "C#6",
                    "midi": 85,
                    "time": 112.125,
                    "velocity": 0.4094488188976378,
                    "duration": 0.0625
                },
                {
                    "name": "C#6",
                    "midi": 85,
                    "time": 112.25,
                    "velocity": 0.4094488188976378,
                    "duration": 0.0625
                },
                {
                    "name": "C#7",
                    "midi": 97,
                    "time": 112.375,
                    "velocity": 0.4094488188976378,
                    "duration": 0.0625
                },
                {
                    "name": "B5",
                    "midi": 83,
                    "time": 112.5,
                    "velocity": 0.4251968503937008,
                    "duration": 0.0625
                },
                {
                    "name": "B5",
                    "midi": 83,
                    "time": 112.625,
                    "velocity": 0.4251968503937008,
                    "duration": 0.0625
                },
                {
                    "name": "B6",
                    "midi": 95,
                    "time": 112.75,
                    "velocity": 0.4251968503937008,
                    "duration": 0.0625
                },
                {
                    "name": "B5",
                    "midi": 83,
                    "time": 112.875,
                    "velocity": 0.4251968503937008,
                    "duration": 0.0625
                },
                {
                    "name": "B5",
                    "midi": 83,
                    "time": 113,
                    "velocity": 0.4251968503937008,
                    "duration": 0.0625
                },
                {
                    "name": "B6",
                    "midi": 95,
                    "time": 113.125,
                    "velocity": 0.4251968503937008,
                    "duration": 0.0625
                },
                {
                    "name": "A#5",
                    "midi": 82,
                    "time": 113.25,
                    "velocity": 0.4094488188976378,
                    "duration": 0.0625
                },
                {
                    "name": "A#5",
                    "midi": 82,
                    "time": 113.375,
                    "velocity": 0.4094488188976378,
                    "duration": 0.0625
                },
                {
                    "name": "A#6",
                    "midi": 94,
                    "time": 113.5,
                    "velocity": 0.4094488188976378,
                    "duration": 0.0625
                },
                {
                    "name": "G#5",
                    "midi": 80,
                    "time": 113.625,
                    "velocity": 0.4251968503937008,
                    "duration": 0.0625
                },
                {
                    "name": "G#5",
                    "midi": 80,
                    "time": 113.75,
                    "velocity": 0.4251968503937008,
                    "duration": 0.0625
                },
                {
                    "name": "G#6",
                    "midi": 92,
                    "time": 113.875,
                    "velocity": 0.4251968503937008,
                    "duration": 0.0625
                },
                {
                    "name": "G5",
                    "midi": 79,
                    "time": 114,
                    "velocity": 0.4094488188976378,
                    "duration": 0.0625
                },
                {
                    "name": "G5",
                    "midi": 79,
                    "time": 114.125,
                    "velocity": 0.4094488188976378,
                    "duration": 0.0625
                },
                {
                    "name": "G6",
                    "midi": 91,
                    "time": 114.25,
                    "velocity": 0.4094488188976378,
                    "duration": 0.0625
                },
                {
                    "name": "G#5",
                    "midi": 80,
                    "time": 114.375,
                    "velocity": 0.4094488188976378,
                    "duration": 0.0625
                },
                {
                    "name": "G#5",
                    "midi": 80,
                    "time": 114.5,
                    "velocity": 0.4094488188976378,
                    "duration": 0.0625
                },
                {
                    "name": "G#6",
                    "midi": 92,
                    "time": 114.625,
                    "velocity": 0.4094488188976378,
                    "duration": 0.0625
                },
                {
                    "name": "A#5",
                    "midi": 82,
                    "time": 114.75,
                    "velocity": 0.4251968503937008,
                    "duration": 0.0625
                },
                {
                    "name": "A#5",
                    "midi": 82,
                    "time": 114.875,
                    "velocity": 0.4251968503937008,
                    "duration": 0.0625
                },
                {
                    "name": "A#6",
                    "midi": 94,
                    "time": 115,
                    "velocity": 0.4251968503937008,
                    "duration": 0.0625
                },
                {
                    "name": "D#5",
                    "midi": 75,
                    "time": 115.125,
                    "velocity": 0.3937007874015748,
                    "duration": 0.0625
                },
                {
                    "name": "D#5",
                    "midi": 75,
                    "time": 115.25,
                    "velocity": 0.3937007874015748,
                    "duration": 0.0625
                },
                {
                    "name": "D#6",
                    "midi": 87,
                    "time": 115.375,
                    "velocity": 0.3700787401574803,
                    "duration": 0.0625
                },
                {
                    "name": "D#5",
                    "midi": 75,
                    "time": 115.5,
                    "velocity": 0.3700787401574803,
                    "duration": 0.0625
                },
                {
                    "name": "D#5",
                    "midi": 75,
                    "time": 115.625,
                    "velocity": 0.3700787401574803,
                    "duration": 0.0625
                },
                {
                    "name": "D#6",
                    "midi": 87,
                    "time": 115.75,
                    "velocity": 0.3700787401574803,
                    "duration": 0.0625
                },
                {
                    "name": "E5",
                    "midi": 76,
                    "time": 115.875,
                    "velocity": 0.3937007874015748,
                    "duration": 0.0625
                },
                {
                    "name": "E5",
                    "midi": 76,
                    "time": 116,
                    "velocity": 0.3937007874015748,
                    "duration": 0.0625
                },
                {
                    "name": "E6",
                    "midi": 88,
                    "time": 116.125,
                    "velocity": 0.3937007874015748,
                    "duration": 0.0625
                },
                {
                    "name": "D#5",
                    "midi": 75,
                    "time": 116.25,
                    "velocity": 0.3700787401574803,
                    "duration": 0.0625
                },
                {
                    "name": "D#5",
                    "midi": 75,
                    "time": 116.375,
                    "velocity": 0.3700787401574803,
                    "duration": 0.0625
                },
                {
                    "name": "D#6",
                    "midi": 87,
                    "time": 116.5,
                    "velocity": 0.3700787401574803,
                    "duration": 0.0625
                },
                {
                    "name": "C#5",
                    "midi": 73,
                    "time": 116.625,
                    "velocity": 0.3700787401574803,
                    "duration": 0.0625
                },
                {
                    "name": "C#5",
                    "midi": 73,
                    "time": 116.75,
                    "velocity": 0.3700787401574803,
                    "duration": 0.0625
                },
                {
                    "name": "C#6",
                    "midi": 85,
                    "time": 116.875,
                    "velocity": 0.3700787401574803,
                    "duration": 0.0625
                },
                {
                    "name": "B4",
                    "midi": 71,
                    "time": 117,
                    "velocity": 0.3937007874015748,
                    "duration": 0.0625
                },
                {
                    "name": "B4",
                    "midi": 71,
                    "time": 117.125,
                    "velocity": 0.3937007874015748,
                    "duration": 0.0625
                },
                {
                    "name": "B5",
                    "midi": 83,
                    "time": 117.25,
                    "velocity": 0.3937007874015748,
                    "duration": 0.0625
                },
                {
                    "name": "B4",
                    "midi": 71,
                    "time": 117.375,
                    "velocity": 0.3700787401574803,
                    "duration": 0.0625
                },
                {
                    "name": "B4",
                    "midi": 71,
                    "time": 117.5,
                    "velocity": 0.3700787401574803,
                    "duration": 0.0625
                },
                {
                    "name": "B5",
                    "midi": 83,
                    "time": 117.625,
                    "velocity": 0.3700787401574803,
                    "duration": 0.0625
                },
                {
                    "name": "A#4",
                    "midi": 70,
                    "time": 117.75,
                    "velocity": 0.3700787401574803,
                    "duration": 0.0625
                },
                {
                    "name": "A#4",
                    "midi": 70,
                    "time": 117.875,
                    "velocity": 0.3700787401574803,
                    "duration": 0.0625
                },
                {
                    "name": "A#5",
                    "midi": 82,
                    "time": 118,
                    "velocity": 0.3700787401574803,
                    "duration": 0.0625
                },
                {
                    "name": "G#4",
                    "midi": 68,
                    "time": 118.125,
                    "velocity": 0.3858267716535433,
                    "duration": 0.0625
                },
                {
                    "name": "G#4",
                    "midi": 68,
                    "time": 118.25,
                    "velocity": 0.3858267716535433,
                    "duration": 0.0625
                },
                {
                    "name": "G#5",
                    "midi": 80,
                    "time": 118.375,
                    "velocity": 0.3858267716535433,
                    "duration": 0.0625
                },
                {
                    "name": "G4",
                    "midi": 67,
                    "time": 118.5,
                    "velocity": 0.3700787401574803,
                    "duration": 0.0625
                },
                {
                    "name": "G4",
                    "midi": 67,
                    "time": 118.625,
                    "velocity": 0.3700787401574803,
                    "duration": 0.0625
                },
                {
                    "name": "G5",
                    "midi": 79,
                    "time": 118.75,
                    "velocity": 0.3700787401574803,
                    "duration": 0.0625
                },
                {
                    "name": "G#4",
                    "midi": 68,
                    "time": 118.875,
                    "velocity": 0.3700787401574803,
                    "duration": 0.0625
                },
                {
                    "name": "G#4",
                    "midi": 68,
                    "time": 119,
                    "velocity": 0.3700787401574803,
                    "duration": 0.0625
                },
                {
                    "name": "G#5",
                    "midi": 80,
                    "time": 119.125,
                    "velocity": 0.3700787401574803,
                    "duration": 0.0625
                },
                {
                    "name": "A#4",
                    "midi": 70,
                    "time": 119.25,
                    "velocity": 0.3937007874015748,
                    "duration": 0.0625
                },
                {
                    "name": "A#4",
                    "midi": 70,
                    "time": 119.375,
                    "velocity": 0.3937007874015748,
                    "duration": 0.0625
                },
                {
                    "name": "A#5",
                    "midi": 82,
                    "time": 119.5,
                    "velocity": 0.3937007874015748,
                    "duration": 0.0625
                },
                {
                    "name": "D#4",
                    "midi": 63,
                    "time": 119.625,
                    "velocity": 0.3700787401574803,
                    "duration": 0.0625
                },
                {
                    "name": "D#4",
                    "midi": 63,
                    "time": 119.75,
                    "velocity": 0.3700787401574803,
                    "duration": 0.0625
                },
                {
                    "name": "D#5",
                    "midi": 75,
                    "time": 119.875,
                    "velocity": 0.33858267716535434,
                    "duration": 0.0625
                },
                {
                    "name": "D#5",
                    "midi": 75,
                    "time": 120,
                    "velocity": 0.3543307086614173,
                    "duration": 0.0625
                },
                {
                    "name": "D#5",
                    "midi": 75,
                    "time": 120.125,
                    "velocity": 0.3543307086614173,
                    "duration": 0.0625
                },
                {
                    "name": "D#5",
                    "midi": 75,
                    "time": 120.25,
                    "velocity": 0.3543307086614173,
                    "duration": 0.0625
                },
                {
                    "name": "D#6",
                    "midi": 87,
                    "time": 120.375,
                    "velocity": 0.4094488188976378,
                    "duration": 0.0625
                },
                {
                    "name": "D#6",
                    "midi": 87,
                    "time": 120.5,
                    "velocity": 0.4094488188976378,
                    "duration": 0.0625
                },
                {
                    "name": "D#7",
                    "midi": 99,
                    "time": 120.625,
                    "velocity": 0.4094488188976378,
                    "duration": 0.0625
                },
                {
                    "name": "D#6",
                    "midi": 87,
                    "time": 120.75,
                    "velocity": 0.4094488188976378,
                    "duration": 0.0625
                },
                {
                    "name": "D#6",
                    "midi": 87,
                    "time": 120.875,
                    "velocity": 0.4094488188976378,
                    "duration": 0.0625
                },
                {
                    "name": "D#7",
                    "midi": 99,
                    "time": 121,
                    "velocity": 0.4094488188976378,
                    "duration": 0.0625
                },
                {
                    "name": "C#6",
                    "midi": 85,
                    "time": 121.125,
                    "velocity": 0.4094488188976378,
                    "duration": 0.0625
                },
                {
                    "name": "C#6",
                    "midi": 85,
                    "time": 121.25,
                    "velocity": 0.4094488188976378,
                    "duration": 0.0625
                },
                {
                    "name": "C#7",
                    "midi": 97,
                    "time": 121.375,
                    "velocity": 0.4094488188976378,
                    "duration": 0.0625
                },
                {
                    "name": "B5",
                    "midi": 83,
                    "time": 121.5,
                    "velocity": 0.4251968503937008,
                    "duration": 0.0625
                },
                {
                    "name": "B5",
                    "midi": 83,
                    "time": 121.625,
                    "velocity": 0.4251968503937008,
                    "duration": 0.0625
                },
                {
                    "name": "B6",
                    "midi": 95,
                    "time": 121.75,
                    "velocity": 0.4251968503937008,
                    "duration": 0.0625
                },
                {
                    "name": "B5",
                    "midi": 83,
                    "time": 121.875,
                    "velocity": 0.4251968503937008,
                    "duration": 0.0625
                },
                {
                    "name": "B5",
                    "midi": 83,
                    "time": 122,
                    "velocity": 0.4251968503937008,
                    "duration": 0.0625
                },
                {
                    "name": "B6",
                    "midi": 95,
                    "time": 122.125,
                    "velocity": 0.4251968503937008,
                    "duration": 0.0625
                },
                {
                    "name": "A#5",
                    "midi": 82,
                    "time": 122.25,
                    "velocity": 0.4094488188976378,
                    "duration": 0.0625
                },
                {
                    "name": "A#5",
                    "midi": 82,
                    "time": 122.375,
                    "velocity": 0.4094488188976378,
                    "duration": 0.0625
                },
                {
                    "name": "A#6",
                    "midi": 94,
                    "time": 122.5,
                    "velocity": 0.4094488188976378,
                    "duration": 0.0625
                },
                {
                    "name": "G#5",
                    "midi": 80,
                    "time": 122.625,
                    "velocity": 0.4251968503937008,
                    "duration": 0.0625
                },
                {
                    "name": "G#5",
                    "midi": 80,
                    "time": 122.75,
                    "velocity": 0.4251968503937008,
                    "duration": 0.0625
                },
                {
                    "name": "G#6",
                    "midi": 92,
                    "time": 122.875,
                    "velocity": 0.4251968503937008,
                    "duration": 0.0625
                },
                {
                    "name": "G5",
                    "midi": 79,
                    "time": 123,
                    "velocity": 0.4094488188976378,
                    "duration": 0.0625
                },
                {
                    "name": "G5",
                    "midi": 79,
                    "time": 123.125,
                    "velocity": 0.4094488188976378,
                    "duration": 0.0625
                },
                {
                    "name": "G6",
                    "midi": 91,
                    "time": 123.25,
                    "velocity": 0.4094488188976378,
                    "duration": 0.0625
                },
                {
                    "name": "G#5",
                    "midi": 80,
                    "time": 123.375,
                    "velocity": 0.4094488188976378,
                    "duration": 0.0625
                },
                {
                    "name": "G#5",
                    "midi": 80,
                    "time": 123.5,
                    "velocity": 0.4094488188976378,
                    "duration": 0.0625
                },
                {
                    "name": "G#6",
                    "midi": 92,
                    "time": 123.625,
                    "velocity": 0.4094488188976378,
                    "duration": 0.0625
                },
                {
                    "name": "A#5",
                    "midi": 82,
                    "time": 123.75,
                    "velocity": 0.4251968503937008,
                    "duration": 0.0625
                },
                {
                    "name": "A#5",
                    "midi": 82,
                    "time": 123.875,
                    "velocity": 0.4251968503937008,
                    "duration": 0.0625
                },
                {
                    "name": "A#6",
                    "midi": 94,
                    "time": 124,
                    "velocity": 0.4251968503937008,
                    "duration": 0.0625
                },
                {
                    "name": "D#5",
                    "midi": 75,
                    "time": 124.125,
                    "velocity": 0.3937007874015748,
                    "duration": 0.0625
                },
                {
                    "name": "D#5",
                    "midi": 75,
                    "time": 124.25,
                    "velocity": 0.3937007874015748,
                    "duration": 0.0625
                },
                {
                    "name": "D#6",
                    "midi": 87,
                    "time": 124.375,
                    "velocity": 0.3700787401574803,
                    "duration": 0.0625
                },
                {
                    "name": "D#5",
                    "midi": 75,
                    "time": 124.5,
                    "velocity": 0.3858267716535433,
                    "duration": 0.0625
                },
                {
                    "name": "D#5",
                    "midi": 75,
                    "time": 124.625,
                    "velocity": 0.3858267716535433,
                    "duration": 0.0625
                },
                {
                    "name": "D#6",
                    "midi": 87,
                    "time": 124.75,
                    "velocity": 0.3858267716535433,
                    "duration": 0.0625
                },
                {
                    "name": "E5",
                    "midi": 76,
                    "time": 124.875,
                    "velocity": 0.4094488188976378,
                    "duration": 0.0625
                },
                {
                    "name": "E5",
                    "midi": 76,
                    "time": 125,
                    "velocity": 0.4094488188976378,
                    "duration": 0.0625
                },
                {
                    "name": "E6",
                    "midi": 88,
                    "time": 125.125,
                    "velocity": 0.4094488188976378,
                    "duration": 0.0625
                },
                {
                    "name": "D#5",
                    "midi": 75,
                    "time": 125.25,
                    "velocity": 0.3937007874015748,
                    "duration": 0.0625
                },
                {
                    "name": "D#5",
                    "midi": 75,
                    "time": 125.375,
                    "velocity": 0.3937007874015748,
                    "duration": 0.0625
                },
                {
                    "name": "D#6",
                    "midi": 87,
                    "time": 125.5,
                    "velocity": 0.3937007874015748,
                    "duration": 0.0625
                },
                {
                    "name": "C#5",
                    "midi": 73,
                    "time": 125.625,
                    "velocity": 0.3700787401574803,
                    "duration": 0.0625
                },
                {
                    "name": "C#5",
                    "midi": 73,
                    "time": 125.75,
                    "velocity": 0.3700787401574803,
                    "duration": 0.0625
                },
                {
                    "name": "C#6",
                    "midi": 85,
                    "time": 125.875,
                    "velocity": 0.3700787401574803,
                    "duration": 0.0625
                },
                {
                    "name": "D#5",
                    "midi": 75,
                    "time": 126,
                    "velocity": 0.36220472440944884,
                    "duration": 0.0625
                },
                {
                    "name": "D#5",
                    "midi": 75,
                    "time": 126.125,
                    "velocity": 0.36220472440944884,
                    "duration": 0.0625
                },
                {
                    "name": "D#6",
                    "midi": 87,
                    "time": 126.25,
                    "velocity": 0.3700787401574803,
                    "duration": 0.0625
                },
                {
                    "name": "E5",
                    "midi": 76,
                    "time": 126.375,
                    "velocity": 0.3700787401574803,
                    "duration": 0.0625
                },
                {
                    "name": "E5",
                    "midi": 76,
                    "time": 126.5,
                    "velocity": 0.3858267716535433,
                    "duration": 0.0625
                },
                {
                    "name": "D#6",
                    "midi": 87,
                    "time": 126.625,
                    "velocity": 0.3858267716535433,
                    "duration": 0.0625
                },
                {
                    "name": "F5",
                    "midi": 77,
                    "time": 126.75,
                    "velocity": 0.3937007874015748,
                    "duration": 0.0625
                },
                {
                    "name": "F5",
                    "midi": 77,
                    "time": 126.875,
                    "velocity": 0.3937007874015748,
                    "duration": 0.0625
                },
                {
                    "name": "D#6",
                    "midi": 87,
                    "time": 127,
                    "velocity": 0.4015748031496063,
                    "duration": 0.0625
                },
                {
                    "name": "F#5",
                    "midi": 78,
                    "time": 127.125,
                    "velocity": 0.4015748031496063,
                    "duration": 0.0625
                },
                {
                    "name": "F#5",
                    "midi": 78,
                    "time": 127.25,
                    "velocity": 0.4094488188976378,
                    "duration": 0.0625
                },
                {
                    "name": "D#6",
                    "midi": 87,
                    "time": 127.375,
                    "velocity": 0.4094488188976378,
                    "duration": 0.0625
                },
                {
                    "name": "G5",
                    "midi": 79,
                    "time": 127.5,
                    "velocity": 0.4251968503937008,
                    "duration": 0.0625
                },
                {
                    "name": "G5",
                    "midi": 79,
                    "time": 127.625,
                    "velocity": 0.4251968503937008,
                    "duration": 0.0625
                },
                {
                    "name": "D#6",
                    "midi": 87,
                    "time": 127.75,
                    "velocity": 0.4251968503937008,
                    "duration": 0.0625
                },
                {
                    "name": "G#5",
                    "midi": 80,
                    "time": 127.875,
                    "velocity": 0.4330708661417323,
                    "duration": 0.0625
                },
                {
                    "name": "G#5",
                    "midi": 80,
                    "time": 128,
                    "velocity": 0.4330708661417323,
                    "duration": 0.0625
                },
                {
                    "name": "D#6",
                    "midi": 87,
                    "time": 128.125,
                    "velocity": 0.4409448818897638,
                    "duration": 0.0625
                },
                {
                    "name": "A5",
                    "midi": 81,
                    "time": 128.25,
                    "velocity": 0.4409448818897638,
                    "duration": 0.0625
                },
                {
                    "name": "A5",
                    "midi": 81,
                    "time": 128.375,
                    "velocity": 0.4330708661417323,
                    "duration": 0.0625
                },
                {
                    "name": "D#6",
                    "midi": 87,
                    "time": 128.5,
                    "velocity": 0.4330708661417323,
                    "duration": 0.0625
                },
                {
                    "name": "A#5",
                    "midi": 82,
                    "time": 128.625,
                    "velocity": 0.4330708661417323,
                    "duration": 0.0625
                },
                {
                    "name": "A#5",
                    "midi": 82,
                    "time": 128.75,
                    "velocity": 0.4330708661417323,
                    "duration": 0.0625
                },
                {
                    "name": "D#6",
                    "midi": 87,
                    "time": 128.875,
                    "velocity": 0.4330708661417323,
                    "duration": 0.0625
                },
                {
                    "name": "B5",
                    "midi": 83,
                    "time": 129,
                    "velocity": 0.4330708661417323,
                    "duration": 0.0625
                },
                {
                    "name": "B5",
                    "midi": 83,
                    "time": 129.125,
                    "velocity": 0.4330708661417323,
                    "duration": 0.0625
                },
                {
                    "name": "D#6",
                    "midi": 87,
                    "time": 129.25,
                    "velocity": 0.4330708661417323,
                    "duration": 0.0625
                },
                {
                    "name": "C6",
                    "midi": 84,
                    "time": 129.375,
                    "velocity": 0.4251968503937008,
                    "duration": 0.0625
                },
                {
                    "name": "C6",
                    "midi": 84,
                    "time": 129.5,
                    "velocity": 0.4251968503937008,
                    "duration": 0.0625
                },
                {
                    "name": "D#6",
                    "midi": 87,
                    "time": 129.625,
                    "velocity": 0.4251968503937008,
                    "duration": 0.0625
                },
                {
                    "name": "C#6",
                    "midi": 85,
                    "time": 129.75,
                    "velocity": 0.4094488188976378,
                    "duration": 0.0625
                },
                {
                    "name": "C#6",
                    "midi": 85,
                    "time": 129.875,
                    "velocity": 0.4094488188976378,
                    "duration": 0.0625
                },
                {
                    "name": "D#6",
                    "midi": 87,
                    "time": 130,
                    "velocity": 0.4015748031496063,
                    "duration": 0.0625
                },
                {
                    "name": "D6",
                    "midi": 86,
                    "time": 130.125,
                    "velocity": 0.3937007874015748,
                    "duration": 0.0625
                },
                {
                    "name": "D6",
                    "midi": 86,
                    "time": 130.25,
                    "velocity": 0.3937007874015748,
                    "duration": 0.0625
                },
                {
                    "name": "D#6",
                    "midi": 87,
                    "time": 130.375,
                    "velocity": 0.3858267716535433,
                    "duration": 0.0625
                },
                {
                    "name": "D#6",
                    "midi": 87,
                    "time": 130.5,
                    "velocity": 0.3700787401574803,
                    "duration": 0.0625
                },
                {
                    "name": "D#6",
                    "midi": 87,
                    "time": 130.625,
                    "velocity": 0.3700787401574803,
                    "duration": 0.0625
                },
                {
                    "name": "D#7",
                    "midi": 99,
                    "time": 130.75,
                    "velocity": 0.36220472440944884,
                    "duration": 0.0625
                },
                {
                    "name": "E6",
                    "midi": 88,
                    "time": 130.875,
                    "velocity": 0.3543307086614173,
                    "duration": 0.0625
                },
                {
                    "name": "E6",
                    "midi": 88,
                    "time": 131,
                    "velocity": 0.3543307086614173,
                    "duration": 0.0625
                },
                {
                    "name": "D#7",
                    "midi": 99,
                    "time": 131.125,
                    "velocity": 0.3543307086614173,
                    "duration": 0.0625
                },
                {
                    "name": "F6",
                    "midi": 89,
                    "time": 131.25,
                    "velocity": 0.3464566929133858,
                    "duration": 0.0625
                },
                {
                    "name": "F6",
                    "midi": 89,
                    "time": 131.375,
                    "velocity": 0.3464566929133858,
                    "duration": 0.0625
                },
                {
                    "name": "D#7",
                    "midi": 99,
                    "time": 131.5,
                    "velocity": 0.33858267716535434,
                    "duration": 0.0625
                },
                {
                    "name": "F#6",
                    "midi": 90,
                    "time": 131.625,
                    "velocity": 0.3228346456692913,
                    "duration": 0.0625
                },
                {
                    "name": "F#6",
                    "midi": 90,
                    "time": 131.75,
                    "velocity": 0.3228346456692913,
                    "duration": 0.0625
                },
                {
                    "name": "D#7",
                    "midi": 99,
                    "time": 131.875,
                    "velocity": 0.31496062992125984,
                    "duration": 0.0625
                },
                {
                    "name": "G6",
                    "midi": 91,
                    "time": 132,
                    "velocity": 0.30708661417322836,
                    "duration": 0.0625
                },
                {
                    "name": "G6",
                    "midi": 91,
                    "time": 132.125,
                    "velocity": 0.30708661417322836,
                    "duration": 0.0625
                },
                {
                    "name": "D#7",
                    "midi": 99,
                    "time": 132.25,
                    "velocity": 0.29133858267716534,
                    "duration": 0.0625
                },
                {
                    "name": "G#6",
                    "midi": 92,
                    "time": 132.375,
                    "velocity": 0.28346456692913385,
                    "duration": 0.0625
                },
                {
                    "name": "G#6",
                    "midi": 92,
                    "time": 132.5,
                    "velocity": 0.28346456692913385,
                    "duration": 0.0625
                },
                {
                    "name": "D#7",
                    "midi": 99,
                    "time": 132.625,
                    "velocity": 0.28346456692913385,
                    "duration": 0.0625
                },
                {
                    "name": "B4",
                    "midi": 71,
                    "time": 133.5,
                    "velocity": 0.3228346456692913,
                    "duration": 0.375
                },
                {
                    "name": "A#4",
                    "midi": 70,
                    "time": 133.6875,
                    "velocity": 0.33858267716535434,
                    "duration": 0.1875
                },
                {
                    "name": "B4",
                    "midi": 71,
                    "time": 133.875,
                    "velocity": 0.29133858267716534,
                    "duration": 0.140625
                },
                {
                    "name": "A4",
                    "midi": 69,
                    "time": 133.875,
                    "velocity": 0.3464566929133858,
                    "duration": 0.140625
                },
                {
                    "name": "B4",
                    "midi": 71,
                    "time": 134.0625,
                    "velocity": 0.30708661417322836,
                    "duration": 0.140625
                },
                {
                    "name": "G#4",
                    "midi": 68,
                    "time": 134.0625,
                    "velocity": 0.3543307086614173,
                    "duration": 0.140625
                },
                {
                    "name": "B4",
                    "midi": 71,
                    "time": 134.25,
                    "velocity": 0.31496062992125984,
                    "duration": 0.140625
                },
                {
                    "name": "G4",
                    "midi": 67,
                    "time": 134.25,
                    "velocity": 0.3543307086614173,
                    "duration": 0.140625
                },
                {
                    "name": "B4",
                    "midi": 71,
                    "time": 134.4375,
                    "velocity": 0.3228346456692913,
                    "duration": 0.140625
                },
                {
                    "name": "F#4",
                    "midi": 66,
                    "time": 134.4375,
                    "velocity": 0.36220472440944884,
                    "duration": 0.140625
                },
                {
                    "name": "B4",
                    "midi": 71,
                    "time": 134.625,
                    "velocity": 0.33858267716535434,
                    "duration": 0.140625
                },
                {
                    "name": "F4",
                    "midi": 65,
                    "time": 134.625,
                    "velocity": 0.3700787401574803,
                    "duration": 0.140625
                },
                {
                    "name": "B4",
                    "midi": 71,
                    "time": 134.8125,
                    "velocity": 0.3464566929133858,
                    "duration": 0.140625
                },
                {
                    "name": "E4",
                    "midi": 64,
                    "time": 134.8125,
                    "velocity": 0.3858267716535433,
                    "duration": 0.140625
                },
                {
                    "name": "C#5",
                    "midi": 73,
                    "time": 135,
                    "velocity": 0.44881889763779526,
                    "duration": 0.09375
                },
                {
                    "name": "B4",
                    "midi": 71,
                    "time": 135.09375,
                    "velocity": 0.3937007874015748,
                    "duration": 0.09375
                },
                {
                    "name": "A#4",
                    "midi": 70,
                    "time": 135.1875,
                    "velocity": 0.3937007874015748,
                    "duration": 0.09375
                },
                {
                    "name": "B4",
                    "midi": 71,
                    "time": 135.28125,
                    "velocity": 0.3937007874015748,
                    "duration": 0.09375
                },
                {
                    "name": "F#4",
                    "midi": 66,
                    "time": 135.375,
                    "velocity": 0.4251968503937008,
                    "duration": 0.375
                },
                {
                    "name": "F#5",
                    "midi": 78,
                    "time": 135.46875,
                    "velocity": 0.3937007874015748,
                    "duration": 0.08437499999999432
                },
                {
                    "name": "F#5",
                    "midi": 78,
                    "time": 135.5625,
                    "velocity": 0.3937007874015748,
                    "duration": 0.08437499999999432
                },
                {
                    "name": "F#5",
                    "midi": 78,
                    "time": 135.65625,
                    "velocity": 0.3937007874015748,
                    "duration": 0.08437499999999432
                },
                {
                    "name": "B4",
                    "midi": 71,
                    "time": 135.75,
                    "velocity": 0.4251968503937008,
                    "duration": 0.375
                },
                {
                    "name": "B5",
                    "midi": 83,
                    "time": 135.84375,
                    "velocity": 0.3937007874015748,
                    "duration": 0.08437499999999432
                },
                {
                    "name": "B5",
                    "midi": 83,
                    "time": 135.9375,
                    "velocity": 0.3937007874015748,
                    "duration": 0.08437499999999432
                },
                {
                    "name": "B5",
                    "midi": 83,
                    "time": 136.03125,
                    "velocity": 0.3937007874015748,
                    "duration": 0.08437499999999432
                },
                {
                    "name": "C#5",
                    "midi": 73,
                    "time": 136.125,
                    "velocity": 0.4251968503937008,
                    "duration": 0.375
                },
                {
                    "name": "C#6",
                    "midi": 85,
                    "time": 136.21875,
                    "velocity": 0.4015748031496063,
                    "duration": 0.08437499999999432
                },
                {
                    "name": "C#6",
                    "midi": 85,
                    "time": 136.3125,
                    "velocity": 0.4015748031496063,
                    "duration": 0.08437499999999432
                },
                {
                    "name": "C#6",
                    "midi": 85,
                    "time": 136.40625,
                    "velocity": 0.4015748031496063,
                    "duration": 0.08437499999999432
                },
                {
                    "name": "F#5",
                    "midi": 78,
                    "time": 136.5,
                    "velocity": 0.4251968503937008,
                    "duration": 0.375
                },
                {
                    "name": "F#6",
                    "midi": 90,
                    "time": 136.59375,
                    "velocity": 0.4015748031496063,
                    "duration": 0.08437499999999432
                },
                {
                    "name": "F#6",
                    "midi": 90,
                    "time": 136.6875,
                    "velocity": 0.4015748031496063,
                    "duration": 0.08437499999999432
                },
                {
                    "name": "F#6",
                    "midi": 90,
                    "time": 136.78125,
                    "velocity": 0.4015748031496063,
                    "duration": 0.08437499999999432
                },
                {
                    "name": "C#6",
                    "midi": 85,
                    "time": 136.875,
                    "velocity": 0.4251968503937008,
                    "duration": 0.375
                },
                {
                    "name": "C#7",
                    "midi": 97,
                    "time": 137,
                    "velocity": 0.4094488188976378,
                    "duration": 0.11250000000001137
                },
                {
                    "name": "F#6",
                    "midi": 90,
                    "time": 137,
                    "velocity": 0.4094488188976378,
                    "duration": 0.11250000000001137
                },
                {
                    "name": "C#7",
                    "midi": 97,
                    "time": 137.125,
                    "velocity": 0.4251968503937008,
                    "duration": 0.11250000000001137
                },
                {
                    "name": "F#6",
                    "midi": 90,
                    "time": 137.125,
                    "velocity": 0.4251968503937008,
                    "duration": 0.11250000000001137
                },
                {
                    "name": "D#6",
                    "midi": 87,
                    "time": 137.25,
                    "velocity": 0.4409448818897638,
                    "duration": 0.375
                },
                {
                    "name": "D#7",
                    "midi": 99,
                    "time": 137.375,
                    "velocity": 0.4251968503937008,
                    "duration": 0.11250000000001137
                },
                {
                    "name": "F#6",
                    "midi": 90,
                    "time": 137.375,
                    "velocity": 0.4251968503937008,
                    "duration": 0.11250000000001137
                },
                {
                    "name": "D#7",
                    "midi": 99,
                    "time": 137.5,
                    "velocity": 0.4251968503937008,
                    "duration": 0.11250000000001137
                },
                {
                    "name": "F#6",
                    "midi": 90,
                    "time": 137.5,
                    "velocity": 0.4251968503937008,
                    "duration": 0.11250000000001137
                },
                {
                    "name": "B5",
                    "midi": 83,
                    "time": 137.625,
                    "velocity": 0.4251968503937008,
                    "duration": 0.1875
                },
                {
                    "name": "D#5",
                    "midi": 75,
                    "time": 138,
                    "velocity": 0.3228346456692913,
                    "duration": 0.375
                },
                {
                    "name": "D5",
                    "midi": 74,
                    "time": 138.1875,
                    "velocity": 0.33858267716535434,
                    "duration": 0.1875
                },
                {
                    "name": "D#5",
                    "midi": 75,
                    "time": 138.375,
                    "velocity": 0.29133858267716534,
                    "duration": 0.140625
                },
                {
                    "name": "C#5",
                    "midi": 73,
                    "time": 138.375,
                    "velocity": 0.3464566929133858,
                    "duration": 0.140625
                },
                {
                    "name": "D#5",
                    "midi": 75,
                    "time": 138.5625,
                    "velocity": 0.30708661417322836,
                    "duration": 0.140625
                },
                {
                    "name": "C5",
                    "midi": 72,
                    "time": 138.5625,
                    "velocity": 0.3543307086614173,
                    "duration": 0.140625
                },
                {
                    "name": "D#5",
                    "midi": 75,
                    "time": 138.75,
                    "velocity": 0.31496062992125984,
                    "duration": 0.140625
                },
                {
                    "name": "B4",
                    "midi": 71,
                    "time": 138.75,
                    "velocity": 0.3543307086614173,
                    "duration": 0.140625
                },
                {
                    "name": "D#5",
                    "midi": 75,
                    "time": 138.9375,
                    "velocity": 0.3228346456692913,
                    "duration": 0.140625
                },
                {
                    "name": "A#4",
                    "midi": 70,
                    "time": 138.9375,
                    "velocity": 0.36220472440944884,
                    "duration": 0.140625
                },
                {
                    "name": "D#5",
                    "midi": 75,
                    "time": 139.125,
                    "velocity": 0.33858267716535434,
                    "duration": 0.140625
                },
                {
                    "name": "A4",
                    "midi": 69,
                    "time": 139.125,
                    "velocity": 0.3700787401574803,
                    "duration": 0.140625
                },
                {
                    "name": "D#5",
                    "midi": 75,
                    "time": 139.3125,
                    "velocity": 0.3464566929133858,
                    "duration": 0.140625
                },
                {
                    "name": "G#4",
                    "midi": 68,
                    "time": 139.3125,
                    "velocity": 0.3858267716535433,
                    "duration": 0.140625
                },
                {
                    "name": "F5",
                    "midi": 77,
                    "time": 139.5,
                    "velocity": 0.4409448818897638,
                    "duration": 0.09375
                },
                {
                    "name": "D#5",
                    "midi": 75,
                    "time": 139.59375,
                    "velocity": 0.3937007874015748,
                    "duration": 0.09375
                },
                {
                    "name": "D5",
                    "midi": 74,
                    "time": 139.6875,
                    "velocity": 0.3937007874015748,
                    "duration": 0.09375
                },
                {
                    "name": "D#5",
                    "midi": 75,
                    "time": 139.78125,
                    "velocity": 0.3937007874015748,
                    "duration": 0.09375
                },
                {
                    "name": "A#4",
                    "midi": 70,
                    "time": 139.875,
                    "velocity": 0.4251968503937008,
                    "duration": 0.375
                },
                {
                    "name": "A#5",
                    "midi": 82,
                    "time": 139.96875,
                    "velocity": 0.3937007874015748,
                    "duration": 0.08437499999999432
                },
                {
                    "name": "A#5",
                    "midi": 82,
                    "time": 140.0625,
                    "velocity": 0.3937007874015748,
                    "duration": 0.08437499999999432
                },
                {
                    "name": "A#5",
                    "midi": 82,
                    "time": 140.15625,
                    "velocity": 0.3937007874015748,
                    "duration": 0.08437499999999432
                },
                {
                    "name": "D#5",
                    "midi": 75,
                    "time": 140.25,
                    "velocity": 0.4251968503937008,
                    "duration": 0.375
                },
                {
                    "name": "D#6",
                    "midi": 87,
                    "time": 140.34375,
                    "velocity": 0.3937007874015748,
                    "duration": 0.08437499999999432
                },
                {
                    "name": "D#6",
                    "midi": 87,
                    "time": 140.4375,
                    "velocity": 0.3937007874015748,
                    "duration": 0.08437499999999432
                },
                {
                    "name": "D#6",
                    "midi": 87,
                    "time": 140.53125,
                    "velocity": 0.3937007874015748,
                    "duration": 0.08437499999999432
                },
                {
                    "name": "F5",
                    "midi": 77,
                    "time": 140.625,
                    "velocity": 0.4251968503937008,
                    "duration": 0.375
                },
                {
                    "name": "F6",
                    "midi": 89,
                    "time": 140.71875,
                    "velocity": 0.4015748031496063,
                    "duration": 0.08437499999999432
                },
                {
                    "name": "F6",
                    "midi": 89,
                    "time": 140.8125,
                    "velocity": 0.4015748031496063,
                    "duration": 0.08437499999999432
                },
                {
                    "name": "F6",
                    "midi": 89,
                    "time": 140.90625,
                    "velocity": 0.4015748031496063,
                    "duration": 0.08437499999999432
                },
                {
                    "name": "A#5",
                    "midi": 82,
                    "time": 141,
                    "velocity": 0.4251968503937008,
                    "duration": 0.375
                },
                {
                    "name": "A#6",
                    "midi": 94,
                    "time": 141.09375,
                    "velocity": 0.4015748031496063,
                    "duration": 0.08437499999999432
                },
                {
                    "name": "A#6",
                    "midi": 94,
                    "time": 141.1875,
                    "velocity": 0.4015748031496063,
                    "duration": 0.08437499999999432
                },
                {
                    "name": "A#6",
                    "midi": 94,
                    "time": 141.28125,
                    "velocity": 0.4015748031496063,
                    "duration": 0.08437499999999432
                },
                {
                    "name": "F6",
                    "midi": 89,
                    "time": 141.375,
                    "velocity": 0.4251968503937008,
                    "duration": 0.375
                },
                {
                    "name": "F7",
                    "midi": 101,
                    "time": 141.5,
                    "velocity": 0.4094488188976378,
                    "duration": 0.11250000000001137
                },
                {
                    "name": "A#6",
                    "midi": 94,
                    "time": 141.5,
                    "velocity": 0.4094488188976378,
                    "duration": 0.11250000000001137
                },
                {
                    "name": "F7",
                    "midi": 101,
                    "time": 141.625,
                    "velocity": 0.4251968503937008,
                    "duration": 0.11250000000001137
                },
                {
                    "name": "A#6",
                    "midi": 94,
                    "time": 141.625,
                    "velocity": 0.4251968503937008,
                    "duration": 0.11250000000001137
                },
                {
                    "name": "F#6",
                    "midi": 90,
                    "time": 141.75,
                    "velocity": 0.4409448818897638,
                    "duration": 0.375
                },
                {
                    "name": "F#7",
                    "midi": 102,
                    "time": 141.875,
                    "velocity": 0.4251968503937008,
                    "duration": 0.11250000000001137
                },
                {
                    "name": "A#6",
                    "midi": 94,
                    "time": 141.875,
                    "velocity": 0.4251968503937008,
                    "duration": 0.11250000000001137
                },
                {
                    "name": "F#7",
                    "midi": 102,
                    "time": 142,
                    "velocity": 0.4251968503937008,
                    "duration": 0.11250000000001137
                },
                {
                    "name": "A#6",
                    "midi": 94,
                    "time": 142,
                    "velocity": 0.4251968503937008,
                    "duration": 0.11250000000001137
                },
                {
                    "name": "D#6",
                    "midi": 87,
                    "time": 142.125,
                    "velocity": 0.4251968503937008,
                    "duration": 0.1875
                },
                {
                    "name": "F#5",
                    "midi": 78,
                    "time": 142.5,
                    "velocity": 0.3228346456692913,
                    "duration": 0.375
                },
                {
                    "name": "F5",
                    "midi": 77,
                    "time": 142.6875,
                    "velocity": 0.33858267716535434,
                    "duration": 0.1875
                },
                {
                    "name": "F#5",
                    "midi": 78,
                    "time": 142.875,
                    "velocity": 0.29133858267716534,
                    "duration": 0.140625
                },
                {
                    "name": "E5",
                    "midi": 76,
                    "time": 142.875,
                    "velocity": 0.3464566929133858,
                    "duration": 0.140625
                },
                {
                    "name": "F#5",
                    "midi": 78,
                    "time": 143.0625,
                    "velocity": 0.30708661417322836,
                    "duration": 0.140625
                },
                {
                    "name": "D#5",
                    "midi": 75,
                    "time": 143.0625,
                    "velocity": 0.3543307086614173,
                    "duration": 0.140625
                },
                {
                    "name": "F#5",
                    "midi": 78,
                    "time": 143.25,
                    "velocity": 0.31496062992125984,
                    "duration": 0.140625
                },
                {
                    "name": "D5",
                    "midi": 74,
                    "time": 143.25,
                    "velocity": 0.3543307086614173,
                    "duration": 0.140625
                },
                {
                    "name": "F#5",
                    "midi": 78,
                    "time": 143.4375,
                    "velocity": 0.3228346456692913,
                    "duration": 0.140625
                },
                {
                    "name": "C#5",
                    "midi": 73,
                    "time": 143.4375,
                    "velocity": 0.36220472440944884,
                    "duration": 0.140625
                },
                {
                    "name": "F#5",
                    "midi": 78,
                    "time": 143.625,
                    "velocity": 0.33858267716535434,
                    "duration": 0.140625
                },
                {
                    "name": "C5",
                    "midi": 72,
                    "time": 143.625,
                    "velocity": 0.3700787401574803,
                    "duration": 0.140625
                },
                {
                    "name": "F#5",
                    "midi": 78,
                    "time": 143.8125,
                    "velocity": 0.3464566929133858,
                    "duration": 0.140625
                },
                {
                    "name": "B4",
                    "midi": 71,
                    "time": 143.8125,
                    "velocity": 0.3858267716535433,
                    "duration": 0.140625
                },
                {
                    "name": "G#5",
                    "midi": 80,
                    "time": 144,
                    "velocity": 0.4409448818897638,
                    "duration": 0.09375
                },
                {
                    "name": "F#5",
                    "midi": 78,
                    "time": 144.09375,
                    "velocity": 0.3937007874015748,
                    "duration": 0.09375
                },
                {
                    "name": "F5",
                    "midi": 77,
                    "time": 144.1875,
                    "velocity": 0.3937007874015748,
                    "duration": 0.09375
                },
                {
                    "name": "F#5",
                    "midi": 78,
                    "time": 144.28125,
                    "velocity": 0.3937007874015748,
                    "duration": 0.09375
                },
                {
                    "name": "C#5",
                    "midi": 73,
                    "time": 144.375,
                    "velocity": 0.4251968503937008,
                    "duration": 0.375
                },
                {
                    "name": "C#6",
                    "midi": 85,
                    "time": 144.46875,
                    "velocity": 0.3937007874015748,
                    "duration": 0.08437499999999432
                },
                {
                    "name": "C#6",
                    "midi": 85,
                    "time": 144.5625,
                    "velocity": 0.3937007874015748,
                    "duration": 0.08437499999999432
                },
                {
                    "name": "C#6",
                    "midi": 85,
                    "time": 144.65625,
                    "velocity": 0.3937007874015748,
                    "duration": 0.08437499999999432
                },
                {
                    "name": "F#5",
                    "midi": 78,
                    "time": 144.75,
                    "velocity": 0.4251968503937008,
                    "duration": 0.375
                },
                {
                    "name": "F#6",
                    "midi": 90,
                    "time": 144.84375,
                    "velocity": 0.3937007874015748,
                    "duration": 0.08437499999999432
                },
                {
                    "name": "F#6",
                    "midi": 90,
                    "time": 144.9375,
                    "velocity": 0.3937007874015748,
                    "duration": 0.08437499999999432
                },
                {
                    "name": "F#6",
                    "midi": 90,
                    "time": 145.03125,
                    "velocity": 0.3937007874015748,
                    "duration": 0.08437499999999432
                },
                {
                    "name": "G#5",
                    "midi": 80,
                    "time": 145.125,
                    "velocity": 0.4251968503937008,
                    "duration": 0.375
                },
                {
                    "name": "G#6",
                    "midi": 92,
                    "time": 145.21875,
                    "velocity": 0.4015748031496063,
                    "duration": 0.08437499999999432
                },
                {
                    "name": "G#6",
                    "midi": 92,
                    "time": 145.3125,
                    "velocity": 0.4015748031496063,
                    "duration": 0.08437499999999432
                },
                {
                    "name": "G#6",
                    "midi": 92,
                    "time": 145.40625,
                    "velocity": 0.4015748031496063,
                    "duration": 0.08437499999999432
                },
                {
                    "name": "C#6",
                    "midi": 85,
                    "time": 145.5,
                    "velocity": 0.4251968503937008,
                    "duration": 0.375
                },
                {
                    "name": "C#7",
                    "midi": 97,
                    "time": 145.625,
                    "velocity": 0.4251968503937008,
                    "duration": 0.11250000000001137
                },
                {
                    "name": "G#6",
                    "midi": 92,
                    "time": 145.625,
                    "velocity": 0.4251968503937008,
                    "duration": 0.11250000000001137
                },
                {
                    "name": "C#7",
                    "midi": 97,
                    "time": 145.75,
                    "velocity": 0.4251968503937008,
                    "duration": 0.11250000000001137
                },
                {
                    "name": "G#6",
                    "midi": 92,
                    "time": 145.75,
                    "velocity": 0.4251968503937008,
                    "duration": 0.11250000000001137
                },
                {
                    "name": "C#7",
                    "midi": 97,
                    "time": 145.875,
                    "velocity": 0.4251968503937008,
                    "duration": 0.11250000000001137
                },
                {
                    "name": "G#6",
                    "midi": 92,
                    "time": 145.875,
                    "velocity": 0.4251968503937008,
                    "duration": 0.11250000000001137
                },
                {
                    "name": "G#6",
                    "midi": 92,
                    "time": 146,
                    "velocity": 0.4094488188976378,
                    "duration": 0.11250000000001137
                },
                {
                    "name": "C#7",
                    "midi": 97,
                    "time": 146,
                    "velocity": 0.4094488188976378,
                    "duration": 0.11250000000001137
                },
                {
                    "name": "G#6",
                    "midi": 92,
                    "time": 146.125,
                    "velocity": 0.4251968503937008,
                    "duration": 0.11250000000001137
                },
                {
                    "name": "C#7",
                    "midi": 97,
                    "time": 146.125,
                    "velocity": 0.4251968503937008,
                    "duration": 0.11250000000001137
                },
                {
                    "name": "C#7",
                    "midi": 97,
                    "time": 146.25,
                    "velocity": 0.31496062992125984,
                    "duration": 0.09375
                },
                {
                    "name": "A#6",
                    "midi": 94,
                    "time": 146.25,
                    "velocity": 0.31496062992125984,
                    "duration": 0.1875
                },
                {
                    "name": "D#7",
                    "midi": 99,
                    "time": 146.34375,
                    "velocity": 0.31496062992125984,
                    "duration": 0.09375
                },
                {
                    "name": "C#7",
                    "midi": 97,
                    "time": 146.4375,
                    "velocity": 0.30708661417322836,
                    "duration": 0.09375
                },
                {
                    "name": "A6",
                    "midi": 93,
                    "time": 146.4375,
                    "velocity": 0.30708661417322836,
                    "duration": 0.1875
                },
                {
                    "name": "D#7",
                    "midi": 99,
                    "time": 146.53125,
                    "velocity": 0.29133858267716534,
                    "duration": 0.09375
                },
                {
                    "name": "C#7",
                    "midi": 97,
                    "time": 146.625,
                    "velocity": 0.29133858267716534,
                    "duration": 0.09375
                },
                {
                    "name": "G#6",
                    "midi": 92,
                    "time": 146.625,
                    "velocity": 0.29133858267716534,
                    "duration": 0.1875
                },
                {
                    "name": "D#7",
                    "midi": 99,
                    "time": 146.71875,
                    "velocity": 0.28346456692913385,
                    "duration": 0.09375
                },
                {
                    "name": "C#7",
                    "midi": 97,
                    "time": 146.8125,
                    "velocity": 0.28346456692913385,
                    "duration": 0.09375
                },
                {
                    "name": "G6",
                    "midi": 91,
                    "time": 146.8125,
                    "velocity": 0.28346456692913385,
                    "duration": 0.1875
                },
                {
                    "name": "D#7",
                    "midi": 99,
                    "time": 146.90625,
                    "velocity": 0.28346456692913385,
                    "duration": 0.09375
                },
                {
                    "name": "C#7",
                    "midi": 97,
                    "time": 147,
                    "velocity": 0.2755905511811024,
                    "duration": 0.09375
                },
                {
                    "name": "F#6",
                    "midi": 90,
                    "time": 147,
                    "velocity": 0.2755905511811024,
                    "duration": 0.375
                },
                {
                    "name": "D#7",
                    "midi": 99,
                    "time": 147.09375,
                    "velocity": 0.2755905511811024,
                    "duration": 0.09375
                },
                {
                    "name": "C#7",
                    "midi": 97,
                    "time": 147.1875,
                    "velocity": 0.2677165354330709,
                    "duration": 0.09375
                },
                {
                    "name": "D#7",
                    "midi": 99,
                    "time": 147.28125,
                    "velocity": 0.2677165354330709,
                    "duration": 0.09375
                },
                {
                    "name": "B6",
                    "midi": 95,
                    "time": 147.375,
                    "velocity": 0.29133858267716534,
                    "duration": 0.09375
                },
                {
                    "name": "G#6",
                    "midi": 92,
                    "time": 147.375,
                    "velocity": 0.29133858267716534,
                    "duration": 0.1875
                },
                {
                    "name": "C#7",
                    "midi": 97,
                    "time": 147.46875,
                    "velocity": 0.29133858267716534,
                    "duration": 0.09375
                },
                {
                    "name": "B6",
                    "midi": 95,
                    "time": 147.5625,
                    "velocity": 0.28346456692913385,
                    "duration": 0.09375
                },
                {
                    "name": "G6",
                    "midi": 91,
                    "time": 147.5625,
                    "velocity": 0.28346456692913385,
                    "duration": 0.1875
                },
                {
                    "name": "C#7",
                    "midi": 97,
                    "time": 147.65625,
                    "velocity": 0.28346456692913385,
                    "duration": 0.09375
                },
                {
                    "name": "B6",
                    "midi": 95,
                    "time": 147.75,
                    "velocity": 0.28346456692913385,
                    "duration": 0.09375
                },
                {
                    "name": "F#6",
                    "midi": 90,
                    "time": 147.75,
                    "velocity": 0.28346456692913385,
                    "duration": 0.1875
                },
                {
                    "name": "C#7",
                    "midi": 97,
                    "time": 147.84375,
                    "velocity": 0.28346456692913385,
                    "duration": 0.09375
                },
                {
                    "name": "B6",
                    "midi": 95,
                    "time": 147.9375,
                    "velocity": 0.2755905511811024,
                    "duration": 0.09375
                },
                {
                    "name": "F6",
                    "midi": 89,
                    "time": 147.9375,
                    "velocity": 0.2755905511811024,
                    "duration": 0.1875
                },
                {
                    "name": "C#7",
                    "midi": 97,
                    "time": 148.03125,
                    "velocity": 0.2755905511811024,
                    "duration": 0.09375
                },
                {
                    "name": "B6",
                    "midi": 95,
                    "time": 148.125,
                    "velocity": 0.2677165354330709,
                    "duration": 0.09375
                },
                {
                    "name": "D#6",
                    "midi": 87,
                    "time": 148.125,
                    "velocity": 0.2677165354330709,
                    "duration": 0.375
                },
                {
                    "name": "C#7",
                    "midi": 97,
                    "time": 148.21875,
                    "velocity": 0.2677165354330709,
                    "duration": 0.09375
                },
                {
                    "name": "B6",
                    "midi": 95,
                    "time": 148.3125,
                    "velocity": 0.25984251968503935,
                    "duration": 0.09375
                },
                {
                    "name": "C#7",
                    "midi": 97,
                    "time": 148.40625,
                    "velocity": 0.25984251968503935,
                    "duration": 0.09375
                },
                {
                    "name": "A#6",
                    "midi": 94,
                    "time": 148.5,
                    "velocity": 0.29133858267716534,
                    "duration": 0.09375
                },
                {
                    "name": "F#6",
                    "midi": 90,
                    "time": 148.5,
                    "velocity": 0.29133858267716534,
                    "duration": 0.1875
                },
                {
                    "name": "B6",
                    "midi": 95,
                    "time": 148.59375,
                    "velocity": 0.29133858267716534,
                    "duration": 0.09375
                },
                {
                    "name": "A#6",
                    "midi": 94,
                    "time": 148.6875,
                    "velocity": 0.28346456692913385,
                    "duration": 0.09375
                },
                {
                    "name": "F6",
                    "midi": 89,
                    "time": 148.6875,
                    "velocity": 0.28346456692913385,
                    "duration": 0.1875
                },
                {
                    "name": "B6",
                    "midi": 95,
                    "time": 148.78125,
                    "velocity": 0.28346456692913385,
                    "duration": 0.09375
                },
                {
                    "name": "A#6",
                    "midi": 94,
                    "time": 148.875,
                    "velocity": 0.28346456692913385,
                    "duration": 0.09375
                },
                {
                    "name": "D#6",
                    "midi": 87,
                    "time": 148.875,
                    "velocity": 0.28346456692913385,
                    "duration": 0.1875
                },
                {
                    "name": "B6",
                    "midi": 95,
                    "time": 148.96875,
                    "velocity": 0.28346456692913385,
                    "duration": 0.09375
                },
                {
                    "name": "A#6",
                    "midi": 94,
                    "time": 149.0625,
                    "velocity": 0.28346456692913385,
                    "duration": 0.09375
                },
                {
                    "name": "D6",
                    "midi": 86,
                    "time": 149.0625,
                    "velocity": 0.28346456692913385,
                    "duration": 0.1875
                },
                {
                    "name": "B6",
                    "midi": 95,
                    "time": 149.15625,
                    "velocity": 0.2755905511811024,
                    "duration": 0.09375
                },
                {
                    "name": "A#6",
                    "midi": 94,
                    "time": 149.25,
                    "velocity": 0.2755905511811024,
                    "duration": 0.09375
                },
                {
                    "name": "C#6",
                    "midi": 85,
                    "time": 149.25,
                    "velocity": 0.2755905511811024,
                    "duration": 0.375
                },
                {
                    "name": "B6",
                    "midi": 95,
                    "time": 149.34375,
                    "velocity": 0.2677165354330709,
                    "duration": 0.09375
                },
                {
                    "name": "A#6",
                    "midi": 94,
                    "time": 149.4375,
                    "velocity": 0.2677165354330709,
                    "duration": 0.09375
                },
                {
                    "name": "B6",
                    "midi": 95,
                    "time": 149.53125,
                    "velocity": 0.25196850393700787,
                    "duration": 0.09375
                },
                {
                    "name": "G#6",
                    "midi": 92,
                    "time": 149.625,
                    "velocity": 0.29133858267716534,
                    "duration": 0.09375
                },
                {
                    "name": "F6",
                    "midi": 89,
                    "time": 149.625,
                    "velocity": 0.29133858267716534,
                    "duration": 0.1875
                },
                {
                    "name": "A#6",
                    "midi": 94,
                    "time": 149.71875,
                    "velocity": 0.29133858267716534,
                    "duration": 0.09375
                },
                {
                    "name": "G#6",
                    "midi": 92,
                    "time": 149.8125,
                    "velocity": 0.28346456692913385,
                    "duration": 0.09375
                },
                {
                    "name": "D#6",
                    "midi": 87,
                    "time": 149.8125,
                    "velocity": 0.28346456692913385,
                    "duration": 0.1875
                },
                {
                    "name": "A#6",
                    "midi": 94,
                    "time": 149.90625,
                    "velocity": 0.28346456692913385,
                    "duration": 0.09375
                },
                {
                    "name": "G#6",
                    "midi": 92,
                    "time": 150,
                    "velocity": 0.2755905511811024,
                    "duration": 0.09375
                },
                {
                    "name": "D6",
                    "midi": 86,
                    "time": 150,
                    "velocity": 0.2755905511811024,
                    "duration": 0.1875
                },
                {
                    "name": "A#6",
                    "midi": 94,
                    "time": 150.09375,
                    "velocity": 0.2677165354330709,
                    "duration": 0.09375
                },
                {
                    "name": "G#6",
                    "midi": 92,
                    "time": 150.1875,
                    "velocity": 0.25984251968503935,
                    "duration": 0.09375
                },
                {
                    "name": "C#6",
                    "midi": 85,
                    "time": 150.1875,
                    "velocity": 0.25984251968503935,
                    "duration": 0.1875
                },
                {
                    "name": "A#6",
                    "midi": 94,
                    "time": 150.28125,
                    "velocity": 0.25196850393700787,
                    "duration": 0.09375
                },
                {
                    "name": "G#6",
                    "midi": 92,
                    "time": 150.375,
                    "velocity": 0.25196850393700787,
                    "duration": 0.09375
                },
                {
                    "name": "B5",
                    "midi": 83,
                    "time": 150.375,
                    "velocity": 0.25196850393700787,
                    "duration": 0.375
                },
                {
                    "name": "D#6",
                    "midi": 87,
                    "time": 150.46875,
                    "velocity": 0.28346456692913385,
                    "duration": 0.09375
                },
                {
                    "name": "E6",
                    "midi": 88,
                    "time": 150.5625,
                    "velocity": 0.30708661417322836,
                    "duration": 0.09375
                },
                {
                    "name": "F6",
                    "midi": 89,
                    "time": 150.65625,
                    "velocity": 0.3228346456692913,
                    "duration": 0.09375
                },
                {
                    "name": "F#6",
                    "midi": 90,
                    "time": 150.75,
                    "velocity": 0.33858267716535434,
                    "duration": 0.09375
                },
                {
                    "name": "G#6",
                    "midi": 92,
                    "time": 150.84375,
                    "velocity": 0.33858267716535434,
                    "duration": 0.09375
                },
                {
                    "name": "F#6",
                    "midi": 90,
                    "time": 150.9375,
                    "velocity": 0.33858267716535434,
                    "duration": 0.09375
                },
                {
                    "name": "G#6",
                    "midi": 92,
                    "time": 151.03125,
                    "velocity": 0.33858267716535434,
                    "duration": 0.09375
                },
                {
                    "name": "F#5",
                    "midi": 78,
                    "time": 151.125,
                    "velocity": 0.4645669291338583,
                    "duration": 0.375
                },
                {
                    "name": "F#6",
                    "midi": 90,
                    "time": 151.21875,
                    "velocity": 0.3543307086614173,
                    "duration": 0.09375
                },
                {
                    "name": "G#6",
                    "midi": 92,
                    "time": 151.3125,
                    "velocity": 0.3543307086614173,
                    "duration": 0.09375
                },
                {
                    "name": "F#6",
                    "midi": 90,
                    "time": 151.40625,
                    "velocity": 0.3543307086614173,
                    "duration": 0.09375
                },
                {
                    "name": "G5",
                    "midi": 79,
                    "time": 151.5,
                    "velocity": 0.47244094488188976,
                    "duration": 0.375
                },
                {
                    "name": "G6",
                    "midi": 91,
                    "time": 151.59375,
                    "velocity": 0.3700787401574803,
                    "duration": 0.09375
                },
                {
                    "name": "G#6",
                    "midi": 92,
                    "time": 151.6875,
                    "velocity": 0.3700787401574803,
                    "duration": 0.09375
                },
                {
                    "name": "G6",
                    "midi": 91,
                    "time": 151.78125,
                    "velocity": 0.3700787401574803,
                    "duration": 0.09375
                },
                {
                    "name": "G#5",
                    "midi": 80,
                    "time": 151.875,
                    "velocity": 0.49606299212598426,
                    "duration": 0.375
                },
                {
                    "name": "G#6",
                    "midi": 92,
                    "time": 151.96875,
                    "velocity": 0.4015748031496063,
                    "duration": 0.09375
                },
                {
                    "name": "A6",
                    "midi": 93,
                    "time": 152.0625,
                    "velocity": 0.4015748031496063,
                    "duration": 0.09375
                },
                {
                    "name": "G#6",
                    "midi": 92,
                    "time": 152.15625,
                    "velocity": 0.3937007874015748,
                    "duration": 0.09375
                },
                {
                    "name": "A6",
                    "midi": 93,
                    "time": 152.25,
                    "velocity": 0.3937007874015748,
                    "duration": 0.09375
                },
                {
                    "name": "G#6",
                    "midi": 92,
                    "time": 152.34375,
                    "velocity": 0.3858267716535433,
                    "duration": 0.09375
                },
                {
                    "name": "A6",
                    "midi": 93,
                    "time": 152.4375,
                    "velocity": 0.3858267716535433,
                    "duration": 0.09375
                },
                {
                    "name": "G#6",
                    "midi": 92,
                    "time": 152.53125,
                    "velocity": 0.3700787401574803,
                    "duration": 0.09375
                },
                {
                    "name": "A6",
                    "midi": 93,
                    "time": 152.625,
                    "velocity": 0.3700787401574803,
                    "duration": 0.07499999999998863
                },
                {
                    "name": "G#6",
                    "midi": 92,
                    "time": 152.7,
                    "velocity": 0.36220472440944884,
                    "duration": 0.07499999999998863
                },
                {
                    "name": "A6",
                    "midi": 93,
                    "time": 152.77499999999998,
                    "velocity": 0.36220472440944884,
                    "duration": 0.07499999999998863
                },
                {
                    "name": "G#6",
                    "midi": 92,
                    "time": 152.84999999999997,
                    "velocity": 0.3543307086614173,
                    "duration": 0.07499999999998863
                },
                {
                    "name": "A6",
                    "midi": 93,
                    "time": 152.92499999999995,
                    "velocity": 0.3543307086614173,
                    "duration": 0.07499999999998863
                },
                {
                    "name": "G#6",
                    "midi": 92,
                    "time": 152.99999999999994,
                    "velocity": 0.3543307086614173,
                    "duration": 0.09375
                },
                {
                    "name": "A6",
                    "midi": 93,
                    "time": 153.09374999999994,
                    "velocity": 0.3543307086614173,
                    "duration": 0.09375
                },
                {
                    "name": "G#6",
                    "midi": 92,
                    "time": 153.18749999999994,
                    "velocity": 0.3543307086614173,
                    "duration": 0.09375
                },
                {
                    "name": "A6",
                    "midi": 93,
                    "time": 153.28124999999994,
                    "velocity": 0.3543307086614173,
                    "duration": 0.09375
                },
                {
                    "name": "G#6",
                    "midi": 92,
                    "time": 153.37499999999994,
                    "velocity": 0.4015748031496063,
                    "duration": 0.09375
                },
                {
                    "name": "F#7",
                    "midi": 102,
                    "time": 153.37499999999994,
                    "velocity": 0.48031496062992124,
                    "duration": 0.28125
                },
                {
                    "name": "A6",
                    "midi": 93,
                    "time": 153.46874999999994,
                    "velocity": 0.4015748031496063,
                    "duration": 0.09375
                },
                {
                    "name": "G#6",
                    "midi": 92,
                    "time": 153.56249999999994,
                    "velocity": 0.4015748031496063,
                    "duration": 0.09375
                },
                {
                    "name": "A6",
                    "midi": 93,
                    "time": 153.65624999999994,
                    "velocity": 0.4015748031496063,
                    "duration": 0.09375
                },
                {
                    "name": "G#6",
                    "midi": 92,
                    "time": 153.74999999999994,
                    "velocity": 0.3700787401574803,
                    "duration": 0.09375
                },
                {
                    "name": "E7",
                    "midi": 100,
                    "time": 153.74999999999994,
                    "velocity": 0.47244094488188976,
                    "duration": 0.28125
                },
                {
                    "name": "A6",
                    "midi": 93,
                    "time": 153.84374999999994,
                    "velocity": 0.3700787401574803,
                    "duration": 0.09375
                },
                {
                    "name": "G#6",
                    "midi": 92,
                    "time": 153.93749999999994,
                    "velocity": 0.3700787401574803,
                    "duration": 0.09375
                },
                {
                    "name": "A6",
                    "midi": 93,
                    "time": 154.03124999999994,
                    "velocity": 0.3700787401574803,
                    "duration": 0.09375
                },
                {
                    "name": "G#6",
                    "midi": 92,
                    "time": 154.12499999999994,
                    "velocity": 0.4015748031496063,
                    "duration": 0.09375
                },
                {
                    "name": "D#7",
                    "midi": 99,
                    "time": 154.12499999999994,
                    "velocity": 0.48031496062992124,
                    "duration": 0.28125
                },
                {
                    "name": "A6",
                    "midi": 93,
                    "time": 154.21874999999994,
                    "velocity": 0.4015748031496063,
                    "duration": 0.09375
                },
                {
                    "name": "G#6",
                    "midi": 92,
                    "time": 154.31249999999994,
                    "velocity": 0.4015748031496063,
                    "duration": 0.09375
                },
                {
                    "name": "A6",
                    "midi": 93,
                    "time": 154.40624999999994,
                    "velocity": 0.4015748031496063,
                    "duration": 0.09375
                },
                {
                    "name": "G#6",
                    "midi": 92,
                    "time": 154.49999999999994,
                    "velocity": 0.3700787401574803,
                    "duration": 0.09375
                },
                {
                    "name": "C#7",
                    "midi": 97,
                    "time": 154.49999999999994,
                    "velocity": 0.44881889763779526,
                    "duration": 0.28125
                },
                {
                    "name": "A6",
                    "midi": 93,
                    "time": 154.59374999999994,
                    "velocity": 0.3700787401574803,
                    "duration": 0.09375
                },
                {
                    "name": "G#6",
                    "midi": 92,
                    "time": 154.68749999999994,
                    "velocity": 0.3700787401574803,
                    "duration": 0.09375
                },
                {
                    "name": "A6",
                    "midi": 93,
                    "time": 154.78124999999994,
                    "velocity": 0.36220472440944884,
                    "duration": 0.09375
                },
                {
                    "name": "G#6",
                    "midi": 92,
                    "time": 154.87499999999994,
                    "velocity": 0.36220472440944884,
                    "duration": 0.09375
                },
                {
                    "name": "D#7",
                    "midi": 99,
                    "time": 154.87499999999994,
                    "velocity": 0.4330708661417323,
                    "duration": 0.28125
                },
                {
                    "name": "A6",
                    "midi": 93,
                    "time": 154.96874999999994,
                    "velocity": 0.36220472440944884,
                    "duration": 0.09375
                },
                {
                    "name": "G#6",
                    "midi": 92,
                    "time": 155.06249999999994,
                    "velocity": 0.3543307086614173,
                    "duration": 0.09375
                },
                {
                    "name": "A6",
                    "midi": 93,
                    "time": 155.15624999999994,
                    "velocity": 0.3543307086614173,
                    "duration": 0.09375
                },
                {
                    "name": "G#6",
                    "midi": 92,
                    "time": 155.24999999999994,
                    "velocity": 0.36220472440944884,
                    "duration": 0.09375
                },
                {
                    "name": "E7",
                    "midi": 100,
                    "time": 155.24999999999994,
                    "velocity": 0.4409448818897638,
                    "duration": 0.28125
                },
                {
                    "name": "A6",
                    "midi": 93,
                    "time": 155.34374999999994,
                    "velocity": 0.36220472440944884,
                    "duration": 0.09375
                },
                {
                    "name": "G#6",
                    "midi": 92,
                    "time": 155.43749999999994,
                    "velocity": 0.3543307086614173,
                    "duration": 0.09375
                },
                {
                    "name": "A6",
                    "midi": 93,
                    "time": 155.53124999999994,
                    "velocity": 0.3543307086614173,
                    "duration": 0.09375
                },
                {
                    "name": "G#6",
                    "midi": 92,
                    "time": 155.62499999999994,
                    "velocity": 0.4015748031496063,
                    "duration": 0.1875
                },
                {
                    "name": "C#7",
                    "midi": 97,
                    "time": 155.62499999999994,
                    "velocity": 0.4015748031496063,
                    "duration": 0.1875
                },
                {
                    "name": "G5",
                    "midi": 79,
                    "time": 155.99999999999994,
                    "velocity": 0.47244094488188976,
                    "duration": 0.375
                },
                {
                    "name": "G6",
                    "midi": 91,
                    "time": 156.09374999999994,
                    "velocity": 0.3700787401574803,
                    "duration": 0.09375
                },
                {
                    "name": "A6",
                    "midi": 93,
                    "time": 156.18749999999994,
                    "velocity": 0.3700787401574803,
                    "duration": 0.09375
                },
                {
                    "name": "G6",
                    "midi": 91,
                    "time": 156.28124999999994,
                    "velocity": 0.3700787401574803,
                    "duration": 0.09375
                },
                {
                    "name": "F#5",
                    "midi": 78,
                    "time": 156.37499999999994,
                    "velocity": 0.49606299212598426,
                    "duration": 0.375
                },
                {
                    "name": "F#6",
                    "midi": 90,
                    "time": 156.46874999999994,
                    "velocity": 0.4015748031496063,
                    "duration": 0.09375
                },
                {
                    "name": "G#6",
                    "midi": 92,
                    "time": 156.56249999999994,
                    "velocity": 0.4015748031496063,
                    "duration": 0.09375
                },
                {
                    "name": "F#6",
                    "midi": 90,
                    "time": 156.65624999999994,
                    "velocity": 0.3937007874015748,
                    "duration": 0.09375
                },
                {
                    "name": "G#6",
                    "midi": 92,
                    "time": 156.74999999999994,
                    "velocity": 0.3937007874015748,
                    "duration": 0.09375
                },
                {
                    "name": "F#6",
                    "midi": 90,
                    "time": 156.84374999999994,
                    "velocity": 0.3858267716535433,
                    "duration": 0.09375
                },
                {
                    "name": "G#6",
                    "midi": 92,
                    "time": 156.93749999999994,
                    "velocity": 0.3858267716535433,
                    "duration": 0.09375
                },
                {
                    "name": "F#6",
                    "midi": 90,
                    "time": 157.03124999999994,
                    "velocity": 0.3700787401574803,
                    "duration": 0.09375
                },
                {
                    "name": "G#6",
                    "midi": 92,
                    "time": 157.12499999999994,
                    "velocity": 0.3700787401574803,
                    "duration": 0.07499999999998863
                },
                {
                    "name": "F#6",
                    "midi": 90,
                    "time": 157.19999999999993,
                    "velocity": 0.36220472440944884,
                    "duration": 0.07499999999998863
                },
                {
                    "name": "G#6",
                    "midi": 92,
                    "time": 157.27499999999992,
                    "velocity": 0.36220472440944884,
                    "duration": 0.07499999999998863
                },
                {
                    "name": "F#6",
                    "midi": 90,
                    "time": 157.3499999999999,
                    "velocity": 0.3543307086614173,
                    "duration": 0.07499999999998863
                },
                {
                    "name": "G#6",
                    "midi": 92,
                    "time": 157.4249999999999,
                    "velocity": 0.3543307086614173,
                    "duration": 0.07499999999998863
                },
                {
                    "name": "F#6",
                    "midi": 90,
                    "time": 157.4999999999999,
                    "velocity": 0.3543307086614173,
                    "duration": 0.09375
                },
                {
                    "name": "G#6",
                    "midi": 92,
                    "time": 157.5937499999999,
                    "velocity": 0.3543307086614173,
                    "duration": 0.09375
                },
                {
                    "name": "F#6",
                    "midi": 90,
                    "time": 157.6874999999999,
                    "velocity": 0.3543307086614173,
                    "duration": 0.09375
                },
                {
                    "name": "G#6",
                    "midi": 92,
                    "time": 157.7812499999999,
                    "velocity": 0.3543307086614173,
                    "duration": 0.09375
                },
                {
                    "name": "F#6",
                    "midi": 90,
                    "time": 157.8749999999999,
                    "velocity": 0.4015748031496063,
                    "duration": 0.09375
                },
                {
                    "name": "E7",
                    "midi": 100,
                    "time": 157.8749999999999,
                    "velocity": 0.48031496062992124,
                    "duration": 0.28125
                },
                {
                    "name": "G#6",
                    "midi": 92,
                    "time": 157.9687499999999,
                    "velocity": 0.4015748031496063,
                    "duration": 0.09375
                },
                {
                    "name": "F#6",
                    "midi": 90,
                    "time": 158.0624999999999,
                    "velocity": 0.4015748031496063,
                    "duration": 0.09375
                },
                {
                    "name": "G#6",
                    "midi": 92,
                    "time": 158.1562499999999,
                    "velocity": 0.4015748031496063,
                    "duration": 0.09375
                },
                {
                    "name": "F#6",
                    "midi": 90,
                    "time": 158.2499999999999,
                    "velocity": 0.3700787401574803,
                    "duration": 0.09375
                },
                {
                    "name": "D#7",
                    "midi": 99,
                    "time": 158.2499999999999,
                    "velocity": 0.47244094488188976,
                    "duration": 0.28125
                },
                {
                    "name": "G#6",
                    "midi": 92,
                    "time": 158.3437499999999,
                    "velocity": 0.3700787401574803,
                    "duration": 0.09375
                },
                {
                    "name": "F#6",
                    "midi": 90,
                    "time": 158.4374999999999,
                    "velocity": 0.3700787401574803,
                    "duration": 0.09375
                },
                {
                    "name": "G#6",
                    "midi": 92,
                    "time": 158.5312499999999,
                    "velocity": 0.3700787401574803,
                    "duration": 0.09375
                },
                {
                    "name": "F#6",
                    "midi": 90,
                    "time": 158.6249999999999,
                    "velocity": 0.4015748031496063,
                    "duration": 0.09375
                },
                {
                    "name": "C#7",
                    "midi": 97,
                    "time": 158.6249999999999,
                    "velocity": 0.48031496062992124,
                    "duration": 0.28125
                },
                {
                    "name": "G#6",
                    "midi": 92,
                    "time": 158.7187499999999,
                    "velocity": 0.4015748031496063,
                    "duration": 0.09375
                },
                {
                    "name": "F#6",
                    "midi": 90,
                    "time": 158.8124999999999,
                    "velocity": 0.4015748031496063,
                    "duration": 0.09375
                },
                {
                    "name": "G#6",
                    "midi": 92,
                    "time": 158.9062499999999,
                    "velocity": 0.4015748031496063,
                    "duration": 0.09375
                },
                {
                    "name": "F#6",
                    "midi": 90,
                    "time": 158.9999999999999,
                    "velocity": 0.3700787401574803,
                    "duration": 0.09375
                },
                {
                    "name": "B6",
                    "midi": 95,
                    "time": 158.9999999999999,
                    "velocity": 0.44881889763779526,
                    "duration": 0.28125
                },
                {
                    "name": "G#6",
                    "midi": 92,
                    "time": 159.0937499999999,
                    "velocity": 0.3700787401574803,
                    "duration": 0.09375
                },
                {
                    "name": "F#6",
                    "midi": 90,
                    "time": 159.1874999999999,
                    "velocity": 0.3700787401574803,
                    "duration": 0.09375
                },
                {
                    "name": "G#6",
                    "midi": 92,
                    "time": 159.2812499999999,
                    "velocity": 0.36220472440944884,
                    "duration": 0.09375
                },
                {
                    "name": "F#6",
                    "midi": 90,
                    "time": 159.3749999999999,
                    "velocity": 0.36220472440944884,
                    "duration": 0.09375
                },
                {
                    "name": "C#7",
                    "midi": 97,
                    "time": 159.3749999999999,
                    "velocity": 0.4330708661417323,
                    "duration": 0.28125
                },
                {
                    "name": "G#6",
                    "midi": 92,
                    "time": 159.4687499999999,
                    "velocity": 0.36220472440944884,
                    "duration": 0.09375
                },
                {
                    "name": "F#6",
                    "midi": 90,
                    "time": 159.5624999999999,
                    "velocity": 0.3543307086614173,
                    "duration": 0.09375
                },
                {
                    "name": "G#6",
                    "midi": 92,
                    "time": 159.6562499999999,
                    "velocity": 0.3543307086614173,
                    "duration": 0.09375
                },
                {
                    "name": "F#6",
                    "midi": 90,
                    "time": 159.7499999999999,
                    "velocity": 0.36220472440944884,
                    "duration": 0.09375
                },
                {
                    "name": "D#7",
                    "midi": 99,
                    "time": 159.7499999999999,
                    "velocity": 0.4409448818897638,
                    "duration": 0.28125
                },
                {
                    "name": "G#6",
                    "midi": 92,
                    "time": 159.8437499999999,
                    "velocity": 0.36220472440944884,
                    "duration": 0.09375
                },
                {
                    "name": "F#6",
                    "midi": 90,
                    "time": 159.9374999999999,
                    "velocity": 0.36220472440944884,
                    "duration": 0.09375
                },
                {
                    "name": "G#6",
                    "midi": 92,
                    "time": 160.0312499999999,
                    "velocity": 0.36220472440944884,
                    "duration": 0.09375
                },
                {
                    "name": "F#6",
                    "midi": 90,
                    "time": 160.1249999999999,
                    "velocity": 0.4015748031496063,
                    "duration": 0.1875
                },
                {
                    "name": "B6",
                    "midi": 95,
                    "time": 160.1249999999999,
                    "velocity": 0.4015748031496063,
                    "duration": 0.1875
                },
                {
                    "name": "D5",
                    "midi": 74,
                    "time": 160.4999999999999,
                    "velocity": 0.44881889763779526,
                    "duration": 0.375
                },
                {
                    "name": "D6",
                    "midi": 86,
                    "time": 160.5937499999999,
                    "velocity": 0.3700787401574803,
                    "duration": 0.09375
                },
                {
                    "name": "D#6",
                    "midi": 87,
                    "time": 160.6874999999999,
                    "velocity": 0.3700787401574803,
                    "duration": 0.09375
                },
                {
                    "name": "D6",
                    "midi": 86,
                    "time": 160.7812499999999,
                    "velocity": 0.3700787401574803,
                    "duration": 0.09375
                },
                {
                    "name": "D#5",
                    "midi": 75,
                    "time": 160.8749999999999,
                    "velocity": 0.44881889763779526,
                    "duration": 0.375
                },
                {
                    "name": "D#6",
                    "midi": 87,
                    "time": 160.9687499999999,
                    "velocity": 0.4015748031496063,
                    "duration": 0.09375
                },
                {
                    "name": "E6",
                    "midi": 88,
                    "time": 161.0624999999999,
                    "velocity": 0.3937007874015748,
                    "duration": 0.09375
                },
                {
                    "name": "D#6",
                    "midi": 87,
                    "time": 161.1562499999999,
                    "velocity": 0.3937007874015748,
                    "duration": 0.09375
                },
                {
                    "name": "E6",
                    "midi": 88,
                    "time": 161.2499999999999,
                    "velocity": 0.3858267716535433,
                    "duration": 0.09375
                },
                {
                    "name": "D#6",
                    "midi": 87,
                    "time": 161.3437499999999,
                    "velocity": 0.3858267716535433,
                    "duration": 0.09375
                },
                {
                    "name": "E6",
                    "midi": 88,
                    "time": 161.4374999999999,
                    "velocity": 0.3700787401574803,
                    "duration": 0.09375
                },
                {
                    "name": "D#6",
                    "midi": 87,
                    "time": 161.5312499999999,
                    "velocity": 0.3700787401574803,
                    "duration": 0.09375
                },
                {
                    "name": "E6",
                    "midi": 88,
                    "time": 161.6249999999999,
                    "velocity": 0.36220472440944884,
                    "duration": 0.09375
                },
                {
                    "name": "D#6",
                    "midi": 87,
                    "time": 161.7187499999999,
                    "velocity": 0.36220472440944884,
                    "duration": 0.09375
                },
                {
                    "name": "E6",
                    "midi": 88,
                    "time": 161.8124999999999,
                    "velocity": 0.3543307086614173,
                    "duration": 0.09375
                },
                {
                    "name": "D#6",
                    "midi": 87,
                    "time": 161.9062499999999,
                    "velocity": 0.3543307086614173,
                    "duration": 0.09375
                },
                {
                    "name": "E6",
                    "midi": 88,
                    "time": 161.9999999999999,
                    "velocity": 0.33858267716535434,
                    "duration": 0.0703125
                },
                {
                    "name": "D#6",
                    "midi": 87,
                    "time": 162.0703124999999,
                    "velocity": 0.3464566929133858,
                    "duration": 0.0703125
                },
                {
                    "name": "D6",
                    "midi": 86,
                    "time": 162.1406249999999,
                    "velocity": 0.3543307086614173,
                    "duration": 0.0703125
                },
                {
                    "name": "D#6",
                    "midi": 87,
                    "time": 162.2109374999999,
                    "velocity": 0.3543307086614173,
                    "duration": 0.0703125
                },
                {
                    "name": "E6",
                    "midi": 88,
                    "time": 162.2812499999999,
                    "velocity": 0.36220472440944884,
                    "duration": 0.0703125
                },
                {
                    "name": "F6",
                    "midi": 89,
                    "time": 162.3515624999999,
                    "velocity": 0.3700787401574803,
                    "duration": 0.0703125
                },
                {
                    "name": "F#6",
                    "midi": 90,
                    "time": 162.4218749999999,
                    "velocity": 0.3858267716535433,
                    "duration": 0.0703125
                },
                {
                    "name": "G6",
                    "midi": 91,
                    "time": 162.4921874999999,
                    "velocity": 0.3858267716535433,
                    "duration": 0.0703125
                },
                {
                    "name": "G#6",
                    "midi": 92,
                    "time": 162.5624999999999,
                    "velocity": 0.4015748031496063,
                    "duration": 0.0703125
                },
                {
                    "name": "A6",
                    "midi": 93,
                    "time": 162.6328124999999,
                    "velocity": 0.4094488188976378,
                    "duration": 0.0703125
                },
                {
                    "name": "A#6",
                    "midi": 94,
                    "time": 162.7031249999999,
                    "velocity": 0.4251968503937008,
                    "duration": 0.0703125
                },
                {
                    "name": "B6",
                    "midi": 95,
                    "time": 162.7734374999999,
                    "velocity": 0.4330708661417323,
                    "duration": 0.0703125
                },
                {
                    "name": "C7",
                    "midi": 96,
                    "time": 162.8437499999999,
                    "velocity": 0.4409448818897638,
                    "duration": 0.0703125
                },
                {
                    "name": "C#7",
                    "midi": 97,
                    "time": 162.9140624999999,
                    "velocity": 0.44881889763779526,
                    "duration": 0.0703125
                },
                {
                    "name": "D7",
                    "midi": 98,
                    "time": 162.9843749999999,
                    "velocity": 0.4645669291338583,
                    "duration": 0.0703125
                },
                {
                    "name": "D#7",
                    "midi": 99,
                    "time": 163.0546874999999,
                    "velocity": 0.47244094488188976,
                    "duration": 0.0703125
                },
                {
                    "name": "E7",
                    "midi": 100,
                    "time": 163.1249999999999,
                    "velocity": 0.48031496062992124,
                    "duration": 0.07499999999998863
                },
                {
                    "name": "F#7",
                    "midi": 102,
                    "time": 163.19999999999987,
                    "velocity": 0.47244094488188976,
                    "duration": 0.07499999999998863
                },
                {
                    "name": "E7",
                    "midi": 100,
                    "time": 163.27499999999986,
                    "velocity": 0.47244094488188976,
                    "duration": 0.07499999999998863
                },
                {
                    "name": "D#7",
                    "midi": 99,
                    "time": 163.34999999999985,
                    "velocity": 0.4645669291338583,
                    "duration": 0.07499999999998863
                },
                {
                    "name": "D7",
                    "midi": 98,
                    "time": 163.42499999999984,
                    "velocity": 0.44881889763779526,
                    "duration": 0.07499999999998863
                },
                {
                    "name": "C#7",
                    "midi": 97,
                    "time": 163.49999999999983,
                    "velocity": 0.4409448818897638,
                    "duration": 0.07499999999998863
                },
                {
                    "name": "C7",
                    "midi": 96,
                    "time": 163.57499999999982,
                    "velocity": 0.4330708661417323,
                    "duration": 0.07499999999998863
                },
                {
                    "name": "B6",
                    "midi": 95,
                    "time": 163.6499999999998,
                    "velocity": 0.4251968503937008,
                    "duration": 0.07499999999998863
                },
                {
                    "name": "A#6",
                    "midi": 94,
                    "time": 163.7249999999998,
                    "velocity": 0.4251968503937008,
                    "duration": 0.07499999999998863
                },
                {
                    "name": "A6",
                    "midi": 93,
                    "time": 163.79999999999978,
                    "velocity": 0.4094488188976378,
                    "duration": 0.07499999999998863
                },
                {
                    "name": "G#6",
                    "midi": 92,
                    "time": 163.87499999999977,
                    "velocity": 0.4015748031496063,
                    "duration": 0.07499999999998863
                },
                {
                    "name": "G6",
                    "midi": 91,
                    "time": 163.94999999999976,
                    "velocity": 0.3937007874015748,
                    "duration": 0.07499999999998863
                },
                {
                    "name": "F#6",
                    "midi": 90,
                    "time": 164.02499999999975,
                    "velocity": 0.3858267716535433,
                    "duration": 0.07499999999998863
                },
                {
                    "name": "F6",
                    "midi": 89,
                    "time": 164.09999999999974,
                    "velocity": 0.3700787401574803,
                    "duration": 0.07499999999998863
                },
                {
                    "name": "E6",
                    "midi": 88,
                    "time": 164.17499999999973,
                    "velocity": 0.36220472440944884,
                    "duration": 0.07499999999998863
                },
                {
                    "name": "D#6",
                    "midi": 87,
                    "time": 164.24999999999972,
                    "velocity": 0.36220472440944884,
                    "duration": 0.375
                },
                {
                    "name": "A#4",
                    "midi": 70,
                    "time": 164.62499999999972,
                    "velocity": 0.44881889763779526,
                    "duration": 0.375
                },
                {
                    "name": "A#5",
                    "midi": 82,
                    "time": 164.71874999999972,
                    "velocity": 0.3700787401574803,
                    "duration": 0.09375
                },
                {
                    "name": "B5",
                    "midi": 83,
                    "time": 164.81249999999972,
                    "velocity": 0.3700787401574803,
                    "duration": 0.09375
                },
                {
                    "name": "A#5",
                    "midi": 82,
                    "time": 164.90624999999972,
                    "velocity": 0.3700787401574803,
                    "duration": 0.09375
                },
                {
                    "name": "D5",
                    "midi": 74,
                    "time": 164.99999999999972,
                    "velocity": 0.44881889763779526,
                    "duration": 0.375
                },
                {
                    "name": "D6",
                    "midi": 86,
                    "time": 165.09374999999972,
                    "velocity": 0.3700787401574803,
                    "duration": 0.09375
                },
                {
                    "name": "D#6",
                    "midi": 87,
                    "time": 165.18749999999972,
                    "velocity": 0.3700787401574803,
                    "duration": 0.09375
                },
                {
                    "name": "D6",
                    "midi": 86,
                    "time": 165.28124999999972,
                    "velocity": 0.3700787401574803,
                    "duration": 0.09375
                },
                {
                    "name": "D#5",
                    "midi": 75,
                    "time": 165.37499999999972,
                    "velocity": 0.44881889763779526,
                    "duration": 0.375
                },
                {
                    "name": "D#6",
                    "midi": 87,
                    "time": 165.46874999999972,
                    "velocity": 0.4015748031496063,
                    "duration": 0.09375
                },
                {
                    "name": "E6",
                    "midi": 88,
                    "time": 165.56249999999972,
                    "velocity": 0.3937007874015748,
                    "duration": 0.09375
                },
                {
                    "name": "D#6",
                    "midi": 87,
                    "time": 165.65624999999972,
                    "velocity": 0.3937007874015748,
                    "duration": 0.09375
                },
                {
                    "name": "E6",
                    "midi": 88,
                    "time": 165.74999999999972,
                    "velocity": 0.3858267716535433,
                    "duration": 0.09375
                },
                {
                    "name": "D#6",
                    "midi": 87,
                    "time": 165.84374999999972,
                    "velocity": 0.3858267716535433,
                    "duration": 0.09375
                },
                {
                    "name": "E6",
                    "midi": 88,
                    "time": 165.93749999999972,
                    "velocity": 0.3700787401574803,
                    "duration": 0.09375
                },
                {
                    "name": "D#6",
                    "midi": 87,
                    "time": 166.03124999999972,
                    "velocity": 0.3700787401574803,
                    "duration": 0.09375
                },
                {
                    "name": "E6",
                    "midi": 88,
                    "time": 166.12499999999972,
                    "velocity": 0.36220472440944884,
                    "duration": 0.09375
                },
                {
                    "name": "D#6",
                    "midi": 87,
                    "time": 166.21874999999972,
                    "velocity": 0.36220472440944884,
                    "duration": 0.09375
                },
                {
                    "name": "E6",
                    "midi": 88,
                    "time": 166.31249999999972,
                    "velocity": 0.3543307086614173,
                    "duration": 0.09375
                },
                {
                    "name": "D#6",
                    "midi": 87,
                    "time": 166.40624999999972,
                    "velocity": 0.3543307086614173,
                    "duration": 0.09375
                },
                {
                    "name": "E6",
                    "midi": 88,
                    "time": 166.49999999999972,
                    "velocity": 0.33858267716535434,
                    "duration": 0.0703125
                },
                {
                    "name": "D#6",
                    "midi": 87,
                    "time": 166.57031249999972,
                    "velocity": 0.3464566929133858,
                    "duration": 0.0703125
                },
                {
                    "name": "D6",
                    "midi": 86,
                    "time": 166.64062499999972,
                    "velocity": 0.3543307086614173,
                    "duration": 0.0703125
                },
                {
                    "name": "D#6",
                    "midi": 87,
                    "time": 166.71093749999972,
                    "velocity": 0.3543307086614173,
                    "duration": 0.0703125
                },
                {
                    "name": "E6",
                    "midi": 88,
                    "time": 166.78124999999972,
                    "velocity": 0.36220472440944884,
                    "duration": 0.0703125
                },
                {
                    "name": "F6",
                    "midi": 89,
                    "time": 166.85156249999972,
                    "velocity": 0.3700787401574803,
                    "duration": 0.0703125
                },
                {
                    "name": "F#6",
                    "midi": 90,
                    "time": 166.92187499999972,
                    "velocity": 0.3858267716535433,
                    "duration": 0.0703125
                },
                {
                    "name": "G6",
                    "midi": 91,
                    "time": 166.99218749999972,
                    "velocity": 0.3858267716535433,
                    "duration": 0.0703125
                },
                {
                    "name": "G#6",
                    "midi": 92,
                    "time": 167.06249999999972,
                    "velocity": 0.4015748031496063,
                    "duration": 0.0703125
                },
                {
                    "name": "A6",
                    "midi": 93,
                    "time": 167.13281249999972,
                    "velocity": 0.4094488188976378,
                    "duration": 0.0703125
                },
                {
                    "name": "A#6",
                    "midi": 94,
                    "time": 167.20312499999972,
                    "velocity": 0.4251968503937008,
                    "duration": 0.0703125
                },
                {
                    "name": "B6",
                    "midi": 95,
                    "time": 167.27343749999972,
                    "velocity": 0.4330708661417323,
                    "duration": 0.0703125
                },
                {
                    "name": "C7",
                    "midi": 96,
                    "time": 167.34374999999972,
                    "velocity": 0.4409448818897638,
                    "duration": 0.0703125
                },
                {
                    "name": "C#7",
                    "midi": 97,
                    "time": 167.41406249999972,
                    "velocity": 0.44881889763779526,
                    "duration": 0.0703125
                },
                {
                    "name": "D7",
                    "midi": 98,
                    "time": 167.48437499999972,
                    "velocity": 0.4645669291338583,
                    "duration": 0.0703125
                },
                {
                    "name": "D#7",
                    "midi": 99,
                    "time": 167.55468749999972,
                    "velocity": 0.47244094488188976,
                    "duration": 0.0703125
                },
                {
                    "name": "E7",
                    "midi": 100,
                    "time": 167.62499999999972,
                    "velocity": 0.48031496062992124,
                    "duration": 0.07499999999998863
                },
                {
                    "name": "F#7",
                    "midi": 102,
                    "time": 167.6999999999997,
                    "velocity": 0.47244094488188976,
                    "duration": 0.07499999999998863
                },
                {
                    "name": "E7",
                    "midi": 100,
                    "time": 167.7749999999997,
                    "velocity": 0.47244094488188976,
                    "duration": 0.07499999999998863
                },
                {
                    "name": "D#7",
                    "midi": 99,
                    "time": 167.84999999999968,
                    "velocity": 0.4645669291338583,
                    "duration": 0.07499999999998863
                },
                {
                    "name": "D7",
                    "midi": 98,
                    "time": 167.92499999999967,
                    "velocity": 0.44881889763779526,
                    "duration": 0.07499999999998863
                },
                {
                    "name": "C#7",
                    "midi": 97,
                    "time": 167.99999999999966,
                    "velocity": 0.4409448818897638,
                    "duration": 0.07499999999998863
                },
                {
                    "name": "C7",
                    "midi": 96,
                    "time": 168.07499999999965,
                    "velocity": 0.4330708661417323,
                    "duration": 0.07499999999998863
                },
                {
                    "name": "B6",
                    "midi": 95,
                    "time": 168.14999999999964,
                    "velocity": 0.4251968503937008,
                    "duration": 0.07499999999998863
                },
                {
                    "name": "A#6",
                    "midi": 94,
                    "time": 168.22499999999962,
                    "velocity": 0.4251968503937008,
                    "duration": 0.07499999999998863
                },
                {
                    "name": "A6",
                    "midi": 93,
                    "time": 168.2999999999996,
                    "velocity": 0.4094488188976378,
                    "duration": 0.07499999999998863
                },
                {
                    "name": "G#6",
                    "midi": 92,
                    "time": 168.3749999999996,
                    "velocity": 0.4015748031496063,
                    "duration": 0.07499999999998863
                },
                {
                    "name": "G6",
                    "midi": 91,
                    "time": 168.4499999999996,
                    "velocity": 0.3937007874015748,
                    "duration": 0.07499999999998863
                },
                {
                    "name": "F#6",
                    "midi": 90,
                    "time": 168.52499999999958,
                    "velocity": 0.3858267716535433,
                    "duration": 0.07499999999998863
                },
                {
                    "name": "F6",
                    "midi": 89,
                    "time": 168.59999999999957,
                    "velocity": 0.3700787401574803,
                    "duration": 0.07499999999998863
                },
                {
                    "name": "E6",
                    "midi": 88,
                    "time": 168.67499999999956,
                    "velocity": 0.36220472440944884,
                    "duration": 0.07499999999998863
                },
                {
                    "name": "D#6",
                    "midi": 87,
                    "time": 168.74999999999955,
                    "velocity": 0.33858267716535434,
                    "duration": 0.0703125
                },
                {
                    "name": "E6",
                    "midi": 88,
                    "time": 168.82031249999955,
                    "velocity": 0.33858267716535434,
                    "duration": 0.0703125
                },
                {
                    "name": "D#6",
                    "midi": 87,
                    "time": 168.89062499999955,
                    "velocity": 0.3464566929133858,
                    "duration": 0.06562500000001137
                },
                {
                    "name": "D6",
                    "midi": 86,
                    "time": 168.95624999999956,
                    "velocity": 0.3543307086614173,
                    "duration": 0.06562500000001137
                },
                {
                    "name": "D#6",
                    "midi": 87,
                    "time": 169.02187499999957,
                    "velocity": 0.3543307086614173,
                    "duration": 0.06562500000001137
                },
                {
                    "name": "E6",
                    "midi": 88,
                    "time": 169.08749999999958,
                    "velocity": 0.36220472440944884,
                    "duration": 0.06562500000001137
                },
                {
                    "name": "F6",
                    "midi": 89,
                    "time": 169.1531249999996,
                    "velocity": 0.3700787401574803,
                    "duration": 0.06562500000001137
                },
                {
                    "name": "F#6",
                    "midi": 90,
                    "time": 169.2187499999996,
                    "velocity": 0.3858267716535433,
                    "duration": 0.06562500000001137
                },
                {
                    "name": "G6",
                    "midi": 91,
                    "time": 169.2843749999996,
                    "velocity": 0.3937007874015748,
                    "duration": 0.06562500000001137
                },
                {
                    "name": "G#6",
                    "midi": 92,
                    "time": 169.34999999999962,
                    "velocity": 0.4015748031496063,
                    "duration": 0.06562500000001137
                },
                {
                    "name": "A6",
                    "midi": 93,
                    "time": 169.41562499999964,
                    "velocity": 0.4094488188976378,
                    "duration": 0.06562500000001137
                },
                {
                    "name": "A#6",
                    "midi": 94,
                    "time": 169.48124999999965,
                    "velocity": 0.4251968503937008,
                    "duration": 0.06562500000001137
                },
                {
                    "name": "B6",
                    "midi": 95,
                    "time": 169.54687499999966,
                    "velocity": 0.4330708661417323,
                    "duration": 0.06562500000001137
                },
                {
                    "name": "C7",
                    "midi": 96,
                    "time": 169.61249999999967,
                    "velocity": 0.4409448818897638,
                    "duration": 0.06562500000001137
                },
                {
                    "name": "C#7",
                    "midi": 97,
                    "time": 169.67812499999968,
                    "velocity": 0.44881889763779526,
                    "duration": 0.06562500000001137
                },
                {
                    "name": "D7",
                    "midi": 98,
                    "time": 169.7437499999997,
                    "velocity": 0.4645669291338583,
                    "duration": 0.06562500000001137
                },
                {
                    "name": "D#7",
                    "midi": 99,
                    "time": 169.8093749999997,
                    "velocity": 0.47244094488188976,
                    "duration": 0.06562500000001137
                },
                {
                    "name": "E7",
                    "midi": 100,
                    "time": 169.8734374999997,
                    "velocity": 0.48031496062992124,
                    "duration": 0.07500000000001705
                },
                {
                    "name": "F#7",
                    "midi": 102,
                    "time": 169.94843749999973,
                    "velocity": 0.47244094488188976,
                    "duration": 0.07499999999998863
                },
                {
                    "name": "E7",
                    "midi": 100,
                    "time": 170.02343749999972,
                    "velocity": 0.47244094488188976,
                    "duration": 0.07499999999998863
                },
                {
                    "name": "D#7",
                    "midi": 99,
                    "time": 170.0984374999997,
                    "velocity": 0.4645669291338583,
                    "duration": 0.07499999999998863
                },
                {
                    "name": "D7",
                    "midi": 98,
                    "time": 170.1734374999997,
                    "velocity": 0.44881889763779526,
                    "duration": 0.07499999999998863
                },
                {
                    "name": "C#7",
                    "midi": 97,
                    "time": 170.24843749999968,
                    "velocity": 0.4409448818897638,
                    "duration": 0.07499999999998863
                },
                {
                    "name": "C7",
                    "midi": 96,
                    "time": 170.32343749999967,
                    "velocity": 0.4330708661417323,
                    "duration": 0.07499999999998863
                },
                {
                    "name": "B6",
                    "midi": 95,
                    "time": 170.39843749999966,
                    "velocity": 0.4251968503937008,
                    "duration": 0.07499999999998863
                },
                {
                    "name": "A#6",
                    "midi": 94,
                    "time": 170.47343749999965,
                    "velocity": 0.4251968503937008,
                    "duration": 0.07499999999998863
                },
                {
                    "name": "A6",
                    "midi": 93,
                    "time": 170.54843749999964,
                    "velocity": 0.4094488188976378,
                    "duration": 0.07499999999998863
                },
                {
                    "name": "G#6",
                    "midi": 92,
                    "time": 170.62343749999962,
                    "velocity": 0.4015748031496063,
                    "duration": 0.07499999999998863
                },
                {
                    "name": "G6",
                    "midi": 91,
                    "time": 170.6984374999996,
                    "velocity": 0.3937007874015748,
                    "duration": 0.07499999999998863
                },
                {
                    "name": "F#6",
                    "midi": 90,
                    "time": 170.7734374999996,
                    "velocity": 0.3858267716535433,
                    "duration": 0.07499999999998863
                },
                {
                    "name": "F6",
                    "midi": 89,
                    "time": 170.8484374999996,
                    "velocity": 0.3700787401574803,
                    "duration": 0.07499999999998863
                },
                {
                    "name": "E6",
                    "midi": 88,
                    "time": 170.92343749999958,
                    "velocity": 0.36220472440944884,
                    "duration": 0.07499999999998863
                },
                {
                    "name": "D#6",
                    "midi": 87,
                    "time": 170.99999999999957,
                    "velocity": 0.33858267716535434,
                    "duration": 0.0703125
                },
                {
                    "name": "E6",
                    "midi": 88,
                    "time": 171.07031249999957,
                    "velocity": 0.33858267716535434,
                    "duration": 0.0703125
                },
                {
                    "name": "D#6",
                    "midi": 87,
                    "time": 171.14062499999957,
                    "velocity": 0.3464566929133858,
                    "duration": 0.06562500000001137
                },
                {
                    "name": "D6",
                    "midi": 86,
                    "time": 171.20624999999959,
                    "velocity": 0.3543307086614173,
                    "duration": 0.06562500000001137
                },
                {
                    "name": "D#6",
                    "midi": 87,
                    "time": 171.2718749999996,
                    "velocity": 0.3543307086614173,
                    "duration": 0.06562500000001137
                },
                {
                    "name": "E6",
                    "midi": 88,
                    "time": 171.3374999999996,
                    "velocity": 0.36220472440944884,
                    "duration": 0.06562500000001137
                },
                {
                    "name": "F6",
                    "midi": 89,
                    "time": 171.40312499999962,
                    "velocity": 0.3700787401574803,
                    "duration": 0.06562500000001137
                },
                {
                    "name": "F#6",
                    "midi": 90,
                    "time": 171.46874999999963,
                    "velocity": 0.3858267716535433,
                    "duration": 0.06562500000001137
                },
                {
                    "name": "G6",
                    "midi": 91,
                    "time": 171.53437499999964,
                    "velocity": 0.3937007874015748,
                    "duration": 0.06562500000001137
                },
                {
                    "name": "G#6",
                    "midi": 92,
                    "time": 171.59999999999965,
                    "velocity": 0.4015748031496063,
                    "duration": 0.06562500000001137
                },
                {
                    "name": "A6",
                    "midi": 93,
                    "time": 171.66562499999966,
                    "velocity": 0.4094488188976378,
                    "duration": 0.06562500000001137
                },
                {
                    "name": "A#6",
                    "midi": 94,
                    "time": 171.73124999999968,
                    "velocity": 0.4251968503937008,
                    "duration": 0.06562500000001137
                },
                {
                    "name": "B6",
                    "midi": 95,
                    "time": 171.7968749999997,
                    "velocity": 0.4330708661417323,
                    "duration": 0.06562500000001137
                },
                {
                    "name": "C7",
                    "midi": 96,
                    "time": 171.8624999999997,
                    "velocity": 0.4409448818897638,
                    "duration": 0.06562500000001137
                },
                {
                    "name": "C#7",
                    "midi": 97,
                    "time": 171.9281249999997,
                    "velocity": 0.44881889763779526,
                    "duration": 0.06562500000001137
                },
                {
                    "name": "D7",
                    "midi": 98,
                    "time": 171.99374999999972,
                    "velocity": 0.4645669291338583,
                    "duration": 0.06562500000001137
                },
                {
                    "name": "D#7",
                    "midi": 99,
                    "time": 172.05937499999973,
                    "velocity": 0.47244094488188976,
                    "duration": 0.06562500000001137
                },
                {
                    "name": "E7",
                    "midi": 100,
                    "time": 172.12499999999974,
                    "velocity": 0.5275590551181102,
                    "duration": 0.09375
                },
                {
                    "name": "F#7",
                    "midi": 102,
                    "time": 172.21874999999974,
                    "velocity": 0.49606299212598426,
                    "duration": 0.09375
                },
                {
                    "name": "E7",
                    "midi": 100,
                    "time": 172.31249999999974,
                    "velocity": 0.49606299212598426,
                    "duration": 0.09375
                },
                {
                    "name": "D#7",
                    "midi": 99,
                    "time": 172.40624999999974,
                    "velocity": 0.49606299212598426,
                    "duration": 0.09375
                },
                {
                    "name": "D7",
                    "midi": 98,
                    "time": 172.49999999999974,
                    "velocity": 0.5275590551181102,
                    "duration": 0.09375
                },
                {
                    "name": "D#7",
                    "midi": 99,
                    "time": 172.59374999999974,
                    "velocity": 0.49606299212598426,
                    "duration": 0.09375
                },
                {
                    "name": "D7",
                    "midi": 98,
                    "time": 172.68749999999974,
                    "velocity": 0.49606299212598426,
                    "duration": 0.09375
                },
                {
                    "name": "C#7",
                    "midi": 97,
                    "time": 172.78124999999974,
                    "velocity": 0.49606299212598426,
                    "duration": 0.09375
                },
                {
                    "name": "C7",
                    "midi": 96,
                    "time": 172.87499999999974,
                    "velocity": 0.5275590551181102,
                    "duration": 0.09375
                },
                {
                    "name": "C#7",
                    "midi": 97,
                    "time": 172.96874999999974,
                    "velocity": 0.49606299212598426,
                    "duration": 0.09375
                },
                {
                    "name": "C7",
                    "midi": 96,
                    "time": 173.06249999999974,
                    "velocity": 0.49606299212598426,
                    "duration": 0.09375
                },
                {
                    "name": "B6",
                    "midi": 95,
                    "time": 173.15624999999974,
                    "velocity": 0.49606299212598426,
                    "duration": 0.09375
                },
                {
                    "name": "A#6",
                    "midi": 94,
                    "time": 173.24999999999974,
                    "velocity": 0.5275590551181102,
                    "duration": 0.09375
                },
                {
                    "name": "B6",
                    "midi": 95,
                    "time": 173.34999999999974,
                    "velocity": 0.49606299212598426,
                    "duration": 0.09375
                },
                {
                    "name": "A#6",
                    "midi": 94,
                    "time": 173.42968749999974,
                    "velocity": 0.49606299212598426,
                    "duration": 0.09375
                },
                {
                    "name": "A6",
                    "midi": 93,
                    "time": 173.53906249999974,
                    "velocity": 0.49606299212598426,
                    "duration": 0.09375
                },
                {
                    "name": "G#6",
                    "midi": 92,
                    "time": 173.62656249999975,
                    "velocity": 0.5275590551181102,
                    "duration": 0.09375
                },
                {
                    "name": "A6",
                    "midi": 93,
                    "time": 173.71093749999974,
                    "velocity": 0.49606299212598426,
                    "duration": 0.09375
                },
                {
                    "name": "G#6",
                    "midi": 92,
                    "time": 173.81249999999974,
                    "velocity": 0.49606299212598426,
                    "duration": 0.09375
                },
                {
                    "name": "G6",
                    "midi": 91,
                    "time": 173.90156249999976,
                    "velocity": 0.49606299212598426,
                    "duration": 0.09375
                },
                {
                    "name": "F#6",
                    "midi": 90,
                    "time": 174.00624999999977,
                    "velocity": 0.4881889763779528,
                    "duration": 0.09375
                },
                {
                    "name": "G6",
                    "midi": 91,
                    "time": 174.09531249999978,
                    "velocity": 0.48031496062992124,
                    "duration": 0.09375
                },
                {
                    "name": "F#6",
                    "midi": 90,
                    "time": 174.19062499999978,
                    "velocity": 0.48031496062992124,
                    "duration": 0.09375
                },
                {
                    "name": "F6",
                    "midi": 89,
                    "time": 174.27656249999978,
                    "velocity": 0.48031496062992124,
                    "duration": 0.09375
                },
                {
                    "name": "E6",
                    "midi": 88,
                    "time": 174.3812499999998,
                    "velocity": 0.48031496062992124,
                    "duration": 0.09375
                },
                {
                    "name": "F#6",
                    "midi": 90,
                    "time": 174.4624999999998,
                    "velocity": 0.4645669291338583,
                    "duration": 0.09375
                },
                {
                    "name": "E6",
                    "midi": 88,
                    "time": 174.5562499999998,
                    "velocity": 0.4645669291338583,
                    "duration": 0.09375
                },
                {
                    "name": "D#6",
                    "midi": 87,
                    "time": 174.66093749999982,
                    "velocity": 0.4645669291338583,
                    "duration": 0.09375
                },
                {
                    "name": "D6",
                    "midi": 86,
                    "time": 174.74687499999982,
                    "velocity": 0.47244094488188976,
                    "duration": 0.09375
                },
                {
                    "name": "D#6",
                    "midi": 87,
                    "time": 174.85156249999983,
                    "velocity": 0.4409448818897638,
                    "duration": 0.09375
                },
                {
                    "name": "D6",
                    "midi": 86,
                    "time": 174.93437499999982,
                    "velocity": 0.4409448818897638,
                    "duration": 0.09375
                },
                {
                    "name": "C#6",
                    "midi": 85,
                    "time": 175.02812499999982,
                    "velocity": 0.4409448818897638,
                    "duration": 0.09375
                },
                {
                    "name": "C6",
                    "midi": 84,
                    "time": 175.1187499999998,
                    "velocity": 0.4645669291338583,
                    "duration": 0.09375
                },
                {
                    "name": "C#6",
                    "midi": 85,
                    "time": 175.22343749999982,
                    "velocity": 0.4409448818897638,
                    "duration": 0.09375
                },
                {
                    "name": "C6",
                    "midi": 84,
                    "time": 175.31874999999982,
                    "velocity": 0.4409448818897638,
                    "duration": 0.09375
                },
                {
                    "name": "B5",
                    "midi": 83,
                    "time": 175.4093749999998,
                    "velocity": 0.4409448818897638,
                    "duration": 0.09375000000002842
                },
                {
                    "name": "A#5",
                    "midi": 82,
                    "time": 175.50156249999984,
                    "velocity": 0.44881889763779526,
                    "duration": 0.09375
                },
                {
                    "name": "B5",
                    "midi": 83,
                    "time": 175.59843749999985,
                    "velocity": 0.4251968503937008,
                    "duration": 0.09375
                },
                {
                    "name": "A#5",
                    "midi": 82,
                    "time": 175.68281249999984,
                    "velocity": 0.4251968503937008,
                    "duration": 0.09375
                },
                {
                    "name": "A5",
                    "midi": 81,
                    "time": 175.77499999999984,
                    "velocity": 0.4251968503937008,
                    "duration": 0.09375
                },
                {
                    "name": "G#5",
                    "midi": 80,
                    "time": 175.86718749999983,
                    "velocity": 0.4409448818897638,
                    "duration": 0.09375
                },
                {
                    "name": "A5",
                    "midi": 81,
                    "time": 175.96093749999983,
                    "velocity": 0.4251968503937008,
                    "duration": 0.09375
                },
                {
                    "name": "G#5",
                    "midi": 80,
                    "time": 176.06718749999982,
                    "velocity": 0.4251968503937008,
                    "duration": 0.09375
                },
                {
                    "name": "G5",
                    "midi": 79,
                    "time": 176.16249999999982,
                    "velocity": 0.4251968503937008,
                    "duration": 0.09375
                },
                {
                    "name": "F#5",
                    "midi": 78,
                    "time": 176.2453124999998,
                    "velocity": 0.4330708661417323,
                    "duration": 0.09375000000002842
                },
                {
                    "name": "G5",
                    "midi": 79,
                    "time": 176.33749999999984,
                    "velocity": 0.4094488188976378,
                    "duration": 0.09375
                },
                {
                    "name": "F#5",
                    "midi": 78,
                    "time": 176.43906249999984,
                    "velocity": 0.4094488188976378,
                    "duration": 0.09375
                },
                {
                    "name": "F5",
                    "midi": 77,
                    "time": 176.52343749999983,
                    "velocity": 0.4094488188976378,
                    "duration": 0.09375
                },
                {
                    "name": "E5",
                    "midi": 76,
                    "time": 176.61874999999984,
                    "velocity": 0.4330708661417323,
                    "duration": 0.09375
                },
                {
                    "name": "F#5",
                    "midi": 78,
                    "time": 176.71718749999982,
                    "velocity": 0.4094488188976378,
                    "duration": 0.09375
                },
                {
                    "name": "E5",
                    "midi": 76,
                    "time": 176.81718749999982,
                    "velocity": 0.4094488188976378,
                    "duration": 0.09375
                },
                {
                    "name": "D#5",
                    "midi": 75,
                    "time": 176.9093749999998,
                    "velocity": 0.4094488188976378,
                    "duration": 0.09375000000002842
                },
                {
                    "name": "D5",
                    "midi": 74,
                    "time": 176.99999999999983,
                    "velocity": 0.4251968503937008,
                    "duration": 0.09375
                },
                {
                    "name": "D#5",
                    "midi": 75,
                    "time": 177.08593749999983,
                    "velocity": 0.4015748031496063,
                    "duration": 0.09375
                },
                {
                    "name": "D5",
                    "midi": 74,
                    "time": 177.18593749999982,
                    "velocity": 0.4015748031496063,
                    "duration": 0.09375
                },
                {
                    "name": "C#5",
                    "midi": 73,
                    "time": 177.2765624999998,
                    "velocity": 0.4015748031496063,
                    "duration": 0.09375
                },
                {
                    "name": "C5",
                    "midi": 72,
                    "time": 177.3781249999998,
                    "velocity": 0.4251968503937008,
                    "duration": 0.09375
                },
                {
                    "name": "C#5",
                    "midi": 73,
                    "time": 177.46562499999982,
                    "velocity": 0.3937007874015748,
                    "duration": 0.09375
                },
                {
                    "name": "C5",
                    "midi": 72,
                    "time": 177.56093749999982,
                    "velocity": 0.3937007874015748,
                    "duration": 0.09375
                },
                {
                    "name": "B4",
                    "midi": 71,
                    "time": 177.6515624999998,
                    "velocity": 0.3937007874015748,
                    "duration": 0.09375
                },
                {
                    "name": "A#4",
                    "midi": 70,
                    "time": 177.7515624999998,
                    "velocity": 0.4094488188976378,
                    "duration": 0.09375
                },
                {
                    "name": "B4",
                    "midi": 71,
                    "time": 177.8437499999998,
                    "velocity": 0.3858267716535433,
                    "duration": 0.09375
                },
                {
                    "name": "A#4",
                    "midi": 70,
                    "time": 177.9390624999998,
                    "velocity": 0.3858267716535433,
                    "duration": 0.09375
                },
                {
                    "name": "A4",
                    "midi": 69,
                    "time": 178.0249999999998,
                    "velocity": 0.3858267716535433,
                    "duration": 0.09375
                },
                {
                    "name": "G#4",
                    "midi": 68,
                    "time": 178.1249999999998,
                    "velocity": 0.4015748031496063,
                    "duration": 0.09375
                },
                {
                    "name": "A4",
                    "midi": 69,
                    "time": 178.2265624999998,
                    "velocity": 0.3700787401574803,
                    "duration": 0.09375
                },
                {
                    "name": "G#4",
                    "midi": 68,
                    "time": 178.3156249999998,
                    "velocity": 0.3700787401574803,
                    "duration": 0.09375
                },
                {
                    "name": "G4",
                    "midi": 67,
                    "time": 178.4140624999998,
                    "velocity": 0.3700787401574803,
                    "duration": 0.09375
                },
                {
                    "name": "F#4",
                    "midi": 66,
                    "time": 178.4953124999998,
                    "velocity": 0.3937007874015748,
                    "duration": 0.09375
                },
                {
                    "name": "G4",
                    "midi": 67,
                    "time": 178.59062499999982,
                    "velocity": 0.36220472440944884,
                    "duration": 0.09375
                },
                {
                    "name": "F#4",
                    "midi": 66,
                    "time": 178.6812499999998,
                    "velocity": 0.36220472440944884,
                    "duration": 0.09375
                },
                {
                    "name": "F4",
                    "midi": 65,
                    "time": 178.7890624999998,
                    "velocity": 0.36220472440944884,
                    "duration": 0.09375
                },
                {
                    "name": "E4",
                    "midi": 64,
                    "time": 178.8749999999998,
                    "velocity": 0.36220472440944884,
                    "duration": 0.09375
                },
                {
                    "name": "D4",
                    "midi": 62,
                    "time": 178.9765624999998,
                    "velocity": 0.36220472440944884,
                    "duration": 0.09375
                },
                {
                    "name": "E4",
                    "midi": 64,
                    "time": 179.0562499999998,
                    "velocity": 0.36220472440944884,
                    "duration": 0.09375
                },
                {
                    "name": "D#4",
                    "midi": 63,
                    "time": 179.1578124999998,
                    "velocity": 0.36220472440944884,
                    "duration": 0.09375
                },
                {
                    "name": "F4",
                    "midi": 65,
                    "time": 179.2437499999998,
                    "velocity": 0.36220472440944884,
                    "duration": 0.09375
                },
                {
                    "name": "E4",
                    "midi": 64,
                    "time": 179.3421874999998,
                    "velocity": 0.36220472440944884,
                    "duration": 0.09375
                },
                {
                    "name": "F#4",
                    "midi": 66,
                    "time": 179.4453124999998,
                    "velocity": 0.36220472440944884,
                    "duration": 0.09375
                },
                {
                    "name": "F4",
                    "midi": 65,
                    "time": 179.5234374999998,
                    "velocity": 0.36220472440944884,
                    "duration": 0.09375
                },
                {
                    "name": "G4",
                    "midi": 67,
                    "time": 179.6312499999998,
                    "velocity": 0.36220472440944884,
                    "duration": 0.09375
                },
                {
                    "name": "F#4",
                    "midi": 66,
                    "time": 179.7156249999998,
                    "velocity": 0.36220472440944884,
                    "duration": 0.09375
                },
                {
                    "name": "G#4",
                    "midi": 68,
                    "time": 179.80781249999978,
                    "velocity": 0.36220472440944884,
                    "duration": 0.09375
                },
                {
                    "name": "G4",
                    "midi": 67,
                    "time": 179.9109374999998,
                    "velocity": 0.36220472440944884,
                    "duration": 0.09375
                },
                {
                    "name": "A4",
                    "midi": 69,
                    "time": 179.9984374999998,
                    "velocity": 0.36220472440944884,
                    "duration": 0.09375
                },
                {
                    "name": "G#4",
                    "midi": 68,
                    "time": 180.08906249999978,
                    "velocity": 0.36220472440944884,
                    "duration": 0.09375
                },
                {
                    "name": "A#4",
                    "midi": 70,
                    "time": 180.18906249999978,
                    "velocity": 0.36220472440944884,
                    "duration": 0.09375
                },
                {
                    "name": "A4",
                    "midi": 69,
                    "time": 180.28281249999978,
                    "velocity": 0.36220472440944884,
                    "duration": 0.09375
                },
                {
                    "name": "B4",
                    "midi": 71,
                    "time": 180.37343749999977,
                    "velocity": 0.36220472440944884,
                    "duration": 0.09375
                },
                {
                    "name": "A#4",
                    "midi": 70,
                    "time": 180.46874999999977,
                    "velocity": 0.36220472440944884,
                    "duration": 0.09375
                },
                {
                    "name": "C5",
                    "midi": 72,
                    "time": 180.56406249999978,
                    "velocity": 0.36220472440944884,
                    "duration": 0.09375
                },
                {
                    "name": "B4",
                    "midi": 71,
                    "time": 180.65781249999978,
                    "velocity": 0.36220472440944884,
                    "duration": 0.09375
                },
                {
                    "name": "C#5",
                    "midi": 73,
                    "time": 180.75624999999977,
                    "velocity": 0.36220472440944884,
                    "duration": 0.09375
                },
                {
                    "name": "C5",
                    "midi": 72,
                    "time": 180.84999999999977,
                    "velocity": 0.36220472440944884,
                    "duration": 0.09375
                },
                {
                    "name": "D5",
                    "midi": 74,
                    "time": 180.93906249999978,
                    "velocity": 0.36220472440944884,
                    "duration": 0.09375
                },
                {
                    "name": "C#5",
                    "midi": 73,
                    "time": 181.03437499999978,
                    "velocity": 0.36220472440944884,
                    "duration": 0.09375
                },
                {
                    "name": "D#5",
                    "midi": 75,
                    "time": 181.12656249999978,
                    "velocity": 0.36220472440944884,
                    "duration": 0.09375000000002842
                },
                {
                    "name": "D5",
                    "midi": 74,
                    "time": 181.2171874999998,
                    "velocity": 0.36220472440944884,
                    "duration": 0.09375000000002842
                },
                {
                    "name": "E5",
                    "midi": 76,
                    "time": 181.3078124999998,
                    "velocity": 0.36220472440944884,
                    "duration": 0.09375
                },
                {
                    "name": "D#5",
                    "midi": 75,
                    "time": 181.41093749999982,
                    "velocity": 0.36220472440944884,
                    "duration": 0.09375
                },
                {
                    "name": "F5",
                    "midi": 77,
                    "time": 181.5015624999998,
                    "velocity": 0.3543307086614173,
                    "duration": 0.09375
                },
                {
                    "name": "E5",
                    "midi": 76,
                    "time": 181.5999999999998,
                    "velocity": 0.3543307086614173,
                    "duration": 0.09375
                },
                {
                    "name": "F#5",
                    "midi": 78,
                    "time": 181.68281249999978,
                    "velocity": 0.3543307086614173,
                    "duration": 0.09375
                },
                {
                    "name": "F5",
                    "midi": 77,
                    "time": 181.77656249999978,
                    "velocity": 0.36220472440944884,
                    "duration": 0.09375
                },
                {
                    "name": "G5",
                    "midi": 79,
                    "time": 181.87656249999978,
                    "velocity": 0.3700787401574803,
                    "duration": 0.09375
                },
                {
                    "name": "F#5",
                    "midi": 78,
                    "time": 181.97187499999978,
                    "velocity": 0.3858267716535433,
                    "duration": 0.09375
                },
                {
                    "name": "G#5",
                    "midi": 80,
                    "time": 182.06406249999978,
                    "velocity": 0.3858267716535433,
                    "duration": 0.09375
                },
                {
                    "name": "G5",
                    "midi": 79,
                    "time": 182.1531249999998,
                    "velocity": 0.3937007874015748,
                    "duration": 0.09375
                },
                {
                    "name": "A5",
                    "midi": 81,
                    "time": 182.2499999999998,
                    "velocity": 0.4015748031496063,
                    "duration": 0.09375
                },
                {
                    "name": "G#5",
                    "midi": 80,
                    "time": 182.3359374999998,
                    "velocity": 0.4094488188976378,
                    "duration": 0.09375
                },
                {
                    "name": "A#5",
                    "midi": 82,
                    "time": 182.4421874999998,
                    "velocity": 0.4251968503937008,
                    "duration": 0.09375
                },
                {
                    "name": "A5",
                    "midi": 81,
                    "time": 182.53281249999978,
                    "velocity": 0.4251968503937008,
                    "duration": 0.09375
                },
                {
                    "name": "B5",
                    "midi": 83,
                    "time": 182.62656249999978,
                    "velocity": 0.4251968503937008,
                    "duration": 0.09375
                },
                {
                    "name": "A#5",
                    "midi": 82,
                    "time": 182.72187499999978,
                    "velocity": 0.4330708661417323,
                    "duration": 0.09375
                },
                {
                    "name": "C6",
                    "midi": 84,
                    "time": 182.8171874999998,
                    "velocity": 0.4409448818897638,
                    "duration": 0.09375
                },
                {
                    "name": "B5",
                    "midi": 83,
                    "time": 182.89999999999978,
                    "velocity": 0.44881889763779526,
                    "duration": 0.09375
                },
                {
                    "name": "C#6",
                    "midi": 85,
                    "time": 183.00156249999978,
                    "velocity": 0.44881889763779526,
                    "duration": 0.09375
                },
                {
                    "name": "C6",
                    "midi": 84,
                    "time": 183.09999999999977,
                    "velocity": 0.4645669291338583,
                    "duration": 0.09375
                },
                {
                    "name": "D6",
                    "midi": 86,
                    "time": 183.19531249999977,
                    "velocity": 0.47244094488188976,
                    "duration": 0.09375
                },
                {
                    "name": "C#6",
                    "midi": 85,
                    "time": 183.28281249999978,
                    "velocity": 0.48031496062992124,
                    "duration": 0.09375
                },
                {
                    "name": "D#6",
                    "midi": 87,
                    "time": 183.3796874999998,
                    "velocity": 0.4881889763779528,
                    "duration": 0.09375
                },
                {
                    "name": "D6",
                    "midi": 86,
                    "time": 183.4609374999998,
                    "velocity": 0.49606299212598426,
                    "duration": 0.09375
                },
                {
                    "name": "E6",
                    "midi": 88,
                    "time": 183.5656249999998,
                    "velocity": 0.49606299212598426,
                    "duration": 0.09375
                },
                {
                    "name": "D#6",
                    "midi": 87,
                    "time": 183.6640624999998,
                    "velocity": 0.5039370078740157,
                    "duration": 0.09375
                },
                {
                    "name": "F6",
                    "midi": 89,
                    "time": 183.7468749999998,
                    "velocity": 0.5118110236220472,
                    "duration": 0.09375
                },
                {
                    "name": "E6",
                    "midi": 88,
                    "time": 183.84531249999978,
                    "velocity": 0.5196850393700787,
                    "duration": 0.09375
                },
                {
                    "name": "F#6",
                    "midi": 90,
                    "time": 183.9343749999998,
                    "velocity": 0.5275590551181102,
                    "duration": 0.09375
                },
                {
                    "name": "F6",
                    "midi": 89,
                    "time": 184.02499999999978,
                    "velocity": 0.5275590551181102,
                    "duration": 0.09375
                },
                {
                    "name": "G6",
                    "midi": 91,
                    "time": 184.11874999999978,
                    "velocity": 0.5433070866141733,
                    "duration": 0.09375
                },
                {
                    "name": "F#6",
                    "midi": 90,
                    "time": 184.22499999999977,
                    "velocity": 0.5511811023622047,
                    "duration": 0.09375
                },
                {
                    "name": "G#6",
                    "midi": 92,
                    "time": 184.31874999999977,
                    "velocity": 0.5590551181102362,
                    "duration": 0.09375
                },
                {
                    "name": "G6",
                    "midi": 91,
                    "time": 184.41093749999976,
                    "velocity": 0.5669291338582677,
                    "duration": 0.09375000000002842
                },
                {
                    "name": "A6",
                    "midi": 93,
                    "time": 184.49374999999978,
                    "velocity": 0.5669291338582677,
                    "duration": 0.09375
                },
                {
                    "name": "G#6",
                    "midi": 92,
                    "time": 184.5906249999998,
                    "velocity": 0.5669291338582677,
                    "duration": 0.09375
                },
                {
                    "name": "A#6",
                    "midi": 94,
                    "time": 184.6796874999998,
                    "velocity": 0.5748031496062992,
                    "duration": 0.09375
                },
                {
                    "name": "A6",
                    "midi": 93,
                    "time": 184.7734374999998,
                    "velocity": 0.5905511811023622,
                    "duration": 0.09375
                },
                {
                    "name": "B6",
                    "midi": 95,
                    "time": 184.8781249999998,
                    "velocity": 0.5984251968503937,
                    "duration": 0.09375
                },
                {
                    "name": "A#6",
                    "midi": 94,
                    "time": 184.97499999999982,
                    "velocity": 0.6062992125984252,
                    "duration": 0.09375
                },
                {
                    "name": "C7",
                    "midi": 96,
                    "time": 185.06249999999983,
                    "velocity": 0.6062992125984252,
                    "duration": 0.09375
                },
                {
                    "name": "B6",
                    "midi": 95,
                    "time": 185.15468749999982,
                    "velocity": 0.6220472440944882,
                    "duration": 0.09375
                },
                {
                    "name": "C#7",
                    "midi": 97,
                    "time": 185.24843749999982,
                    "velocity": 0.6299212598425197,
                    "duration": 0.09375
                },
                {
                    "name": "C7",
                    "midi": 96,
                    "time": 185.34062499999982,
                    "velocity": 0.6377952755905512,
                    "duration": 0.09375
                },
                {
                    "name": "D7",
                    "midi": 98,
                    "time": 185.43749999999983,
                    "velocity": 0.6377952755905512,
                    "duration": 0.09375
                },
                {
                    "name": "C#7",
                    "midi": 97,
                    "time": 185.53124999999983,
                    "velocity": 0.6377952755905512,
                    "duration": 0.09375
                },
                {
                    "name": "D#7",
                    "midi": 99,
                    "time": 185.61874999999984,
                    "velocity": 0.6535433070866141,
                    "duration": 0.09375
                },
                {
                    "name": "D7",
                    "midi": 98,
                    "time": 185.71562499999985,
                    "velocity": 0.6062992125984252,
                    "duration": 0.09375
                },
                {
                    "name": "E7",
                    "midi": 100,
                    "time": 185.81718749999985,
                    "velocity": 0.6535433070866141,
                    "duration": 0.09375
                },
                {
                    "name": "D7",
                    "midi": 98,
                    "time": 185.90312499999985,
                    "velocity": 0.6062992125984252,
                    "duration": 0.09375
                },
                {
                    "name": "D#7",
                    "midi": 99,
                    "time": 186.00624999999985,
                    "velocity": 0.6535433070866141,
                    "duration": 0.09375
                },
                {
                    "name": "D7",
                    "midi": 98,
                    "time": 186.10156249999986,
                    "velocity": 0.6220472440944882,
                    "duration": 0.09375
                },
                {
                    "name": "E7",
                    "midi": 100,
                    "time": 186.19374999999985,
                    "velocity": 0.6535433070866141,
                    "duration": 0.09375000000002842
                },
                {
                    "name": "D7",
                    "midi": 98,
                    "time": 186.28437499999987,
                    "velocity": 0.6220472440944882,
                    "duration": 0.09375
                },
                {
                    "name": "D#7",
                    "midi": 99,
                    "time": 186.37187499999987,
                    "velocity": 0.6535433070866141,
                    "duration": 0.09375
                },
                {
                    "name": "D7",
                    "midi": 98,
                    "time": 186.4765624999999,
                    "velocity": 0.6220472440944882,
                    "duration": 0.09375
                },
                {
                    "name": "E7",
                    "midi": 100,
                    "time": 186.5562499999999,
                    "velocity": 0.6535433070866141,
                    "duration": 0.09375
                },
                {
                    "name": "D7",
                    "midi": 98,
                    "time": 186.6484374999999,
                    "velocity": 0.6220472440944882,
                    "duration": 0.09375
                },
                {
                    "name": "D#7",
                    "midi": 99,
                    "time": 186.75468749999987,
                    "velocity": 0.6377952755905512,
                    "duration": 0.09375
                },
                {
                    "name": "D7",
                    "midi": 98,
                    "time": 186.8437499999999,
                    "velocity": 0.5905511811023622,
                    "duration": 0.09375
                },
                {
                    "name": "E7",
                    "midi": 100,
                    "time": 186.9390624999999,
                    "velocity": 0.5984251968503937,
                    "duration": 0.09375
                },
                {
                    "name": "D7",
                    "midi": 98,
                    "time": 187.0390624999999,
                    "velocity": 0.5669291338582677,
                    "duration": 0.09375
                },
                {
                    "name": "D#7",
                    "midi": 99,
                    "time": 187.1171874999999,
                    "velocity": 0.5669291338582677,
                    "duration": 0.09375
                },
                {
                    "name": "D7",
                    "midi": 98,
                    "time": 187.22499999999988,
                    "velocity": 0.5748031496062992,
                    "duration": 0.09375
                },
                {
                    "name": "E7",
                    "midi": 100,
                    "time": 187.31562499999987,
                    "velocity": 0.5748031496062992,
                    "duration": 0.09375
                },
                {
                    "name": "D7",
                    "midi": 98,
                    "time": 187.40312499999987,
                    "velocity": 0.5748031496062992,
                    "duration": 0.09375
                },
                {
                    "name": "D#7",
                    "midi": 99,
                    "time": 187.49374999999986,
                    "velocity": 0.5590551181102362,
                    "duration": 0.09375
                },
                {
                    "name": "D7",
                    "midi": 98,
                    "time": 187.59374999999986,
                    "velocity": 0.5511811023622047,
                    "duration": 0.09375
                },
                {
                    "name": "E7",
                    "midi": 100,
                    "time": 187.68281249999987,
                    "velocity": 0.5275590551181102,
                    "duration": 0.09375
                },
                {
                    "name": "D7",
                    "midi": 98,
                    "time": 187.77812499999987,
                    "velocity": 0.5118110236220472,
                    "duration": 0.09375
                },
                {
                    "name": "D#7",
                    "midi": 99,
                    "time": 187.8828124999999,
                    "velocity": 0.48031496062992124,
                    "duration": 0.09375
                },
                {
                    "name": "E7",
                    "midi": 100,
                    "time": 187.9703124999999,
                    "velocity": 0.48031496062992124,
                    "duration": 0.09375
                },
                {
                    "name": "D#7",
                    "midi": 99,
                    "time": 188.0656249999999,
                    "velocity": 0.48031496062992124,
                    "duration": 0.09375
                },
                {
                    "name": "E7",
                    "midi": 100,
                    "time": 188.1499999999999,
                    "velocity": 0.48031496062992124,
                    "duration": 0.09375
                },
                {
                    "name": "D#7",
                    "midi": 99,
                    "time": 188.2499999999999,
                    "velocity": 0.48031496062992124,
                    "duration": 0.09375
                },
                {
                    "name": "E7",
                    "midi": 100,
                    "time": 188.34218749999988,
                    "velocity": 0.4881889763779528,
                    "duration": 0.09375
                },
                {
                    "name": "D#7",
                    "midi": 99,
                    "time": 188.4374999999999,
                    "velocity": 0.5118110236220472,
                    "duration": 0.09375
                },
                {
                    "name": "E7",
                    "midi": 100,
                    "time": 188.53593749999987,
                    "velocity": 0.5275590551181102,
                    "duration": 0.09375
                },
                {
                    "name": "D#7",
                    "midi": 99,
                    "time": 188.6249999999999,
                    "velocity": 0.5590551181102362,
                    "duration": 0.09375
                },
                {
                    "name": "E7",
                    "midi": 100,
                    "time": 188.71718749999988,
                    "velocity": 0.5669291338582677,
                    "duration": 0.09375
                },
                {
                    "name": "D#7",
                    "midi": 99,
                    "time": 188.81562499999987,
                    "velocity": 0.5905511811023622,
                    "duration": 0.09375
                },
                {
                    "name": "E7",
                    "midi": 100,
                    "time": 188.90624999999986,
                    "velocity": 0.6220472440944882,
                    "duration": 0.09375
                },
                {
                    "name": "D#7",
                    "midi": 99,
                    "time": 189.00156249999986,
                    "velocity": 0.6377952755905512,
                    "duration": 0.09375
                },
                {
                    "name": "E7",
                    "midi": 100,
                    "time": 189.09218749999985,
                    "velocity": 0.6456692913385826,
                    "duration": 0.09375
                },
                {
                    "name": "D#7",
                    "midi": 99,
                    "time": 189.17968749999986,
                    "velocity": 0.6614173228346457,
                    "duration": 0.09375
                },
                {
                    "name": "E7",
                    "midi": 100,
                    "time": 189.28437499999987,
                    "velocity": 0.7007874015748031,
                    "duration": 0.09375
                },
                {
                    "name": "D#7",
                    "midi": 99,
                    "time": 189.36874999999986,
                    "velocity": 0.7086614173228346,
                    "duration": 0.09375
                },
                {
                    "name": "E7",
                    "midi": 100,
                    "time": 189.47031249999986,
                    "velocity": 0.7086614173228346,
                    "duration": 0.09375
                },
                {
                    "name": "D#7",
                    "midi": 99,
                    "time": 189.56874999999985,
                    "velocity": 0.7322834645669292,
                    "duration": 0.09375
                },
                {
                    "name": "E7",
                    "midi": 100,
                    "time": 189.65624999999986,
                    "velocity": 0.7244094488188977,
                    "duration": 0.09375
                },
                {
                    "name": "D#7",
                    "midi": 99,
                    "time": 189.75468749999985,
                    "velocity": 0.7559055118110236,
                    "duration": 0.09375
                },
                {
                    "name": "E7",
                    "midi": 100,
                    "time": 189.84374999999986,
                    "velocity": 0.7322834645669292,
                    "duration": 0.09375
                },
                {
                    "name": "D#7",
                    "midi": 99,
                    "time": 189.93593749999985,
                    "velocity": 0.7795275590551181,
                    "duration": 0.09375
                },
                {
                    "name": "E7",
                    "midi": 100,
                    "time": 190.03593749999985,
                    "velocity": 0.7401574803149606,
                    "duration": 0.09375
                },
                {
                    "name": "D#7",
                    "midi": 99,
                    "time": 190.12656249999984,
                    "velocity": 0.7795275590551181,
                    "duration": 0.09375
                },
                {
                    "name": "E7",
                    "midi": 100,
                    "time": 190.21562499999985,
                    "velocity": 0.7244094488188977,
                    "duration": 0.09375
                },
                {
                    "name": "D#7",
                    "midi": 99,
                    "time": 190.32031249999986,
                    "velocity": 0.7795275590551181,
                    "duration": 0.09375
                },
                {
                    "name": "E7",
                    "midi": 100,
                    "time": 190.40781249999986,
                    "velocity": 0.7244094488188977,
                    "duration": 0.09375
                },
                {
                    "name": "D#7",
                    "midi": 99,
                    "time": 190.49374999999986,
                    "velocity": 0.7795275590551181,
                    "duration": 0.09375
                },
                {
                    "name": "E7",
                    "midi": 100,
                    "time": 190.59218749999985,
                    "velocity": 0.7795275590551181,
                    "duration": 0.09375
                },
                {
                    "name": "D#7",
                    "midi": 99,
                    "time": 190.68124999999986,
                    "velocity": 0.7795275590551181,
                    "duration": 0.09375
                },
                {
                    "name": "E7",
                    "midi": 100,
                    "time": 190.78593749999987,
                    "velocity": 0.7401574803149606,
                    "duration": 0.09375
                },
                {
                    "name": "D#7",
                    "midi": 99,
                    "time": 190.8828124999999,
                    "velocity": 0.7795275590551181,
                    "duration": 0.09375
                },
                {
                    "name": "E7",
                    "midi": 100,
                    "time": 190.9703124999999,
                    "velocity": 0.7322834645669292,
                    "duration": 0.09375
                },
                {
                    "name": "D#7",
                    "midi": 99,
                    "time": 191.0546874999999,
                    "velocity": 0.7795275590551181,
                    "duration": 0.09375
                },
                {
                    "name": "E7",
                    "midi": 100,
                    "time": 191.15312499999987,
                    "velocity": 0.7322834645669292,
                    "duration": 0.09375
                },
                {
                    "name": "D#7",
                    "midi": 99,
                    "time": 191.2421874999999,
                    "velocity": 0.7795275590551181,
                    "duration": 0.09375
                },
                {
                    "name": "E7",
                    "midi": 100,
                    "time": 191.3468749999999,
                    "velocity": 0.7244094488188977,
                    "duration": 0.09375
                },
                {
                    "name": "D#7",
                    "midi": 99,
                    "time": 191.4312499999999,
                    "velocity": 0.7480314960629921,
                    "duration": 0.09375
                },
                {
                    "name": "E7",
                    "midi": 100,
                    "time": 191.53749999999988,
                    "velocity": 0.7244094488188977,
                    "duration": 0.09375
                },
                {
                    "name": "D#7",
                    "midi": 99,
                    "time": 191.63124999999988,
                    "velocity": 0.7086614173228346,
                    "duration": 0.09375
                },
                {
                    "name": "E7",
                    "midi": 100,
                    "time": 191.7203124999999,
                    "velocity": 0.6771653543307087,
                    "duration": 0.09375
                },
                {
                    "name": "D#7",
                    "midi": 99,
                    "time": 191.8156249999999,
                    "velocity": 0.6456692913385826,
                    "duration": 0.09375
                },
                {
                    "name": "E7",
                    "midi": 100,
                    "time": 191.9124999999999,
                    "velocity": 0.6220472440944882,
                    "duration": 0.09375
                },
                {
                    "name": "D#7",
                    "midi": 99,
                    "time": 191.99218749999991,
                    "velocity": 0.5905511811023622,
                    "duration": 0.09375
                },
                {
                    "name": "E7",
                    "midi": 100,
                    "time": 192.08749999999992,
                    "velocity": 0.5669291338582677,
                    "duration": 0.09375
                },
                {
                    "name": "D#7",
                    "midi": 99,
                    "time": 192.19062499999993,
                    "velocity": 0.5433070866141733,
                    "duration": 0.09375
                },
                {
                    "name": "E7",
                    "midi": 100,
                    "time": 192.28281249999992,
                    "velocity": 0.5118110236220472,
                    "duration": 0.09375
                },
                {
                    "name": "D#7",
                    "midi": 99,
                    "time": 192.37031249999993,
                    "velocity": 0.4645669291338583,
                    "duration": 0.09375
                },
                {
                    "name": "E7",
                    "midi": 100,
                    "time": 192.46093749999991,
                    "velocity": 0.4251968503937008,
                    "duration": 0.09375
                },
                {
                    "name": "D#7",
                    "midi": 99,
                    "time": 192.55624999999992,
                    "velocity": 0.44881889763779526,
                    "duration": 0.09375
                },
                {
                    "name": "E7",
                    "midi": 100,
                    "time": 192.65781249999992,
                    "velocity": 0.4409448818897638,
                    "duration": 0.09375
                },
                {
                    "name": "D#7",
                    "midi": 99,
                    "time": 192.74687499999993,
                    "velocity": 0.4409448818897638,
                    "duration": 0.09375
                },
                {
                    "name": "E7",
                    "midi": 100,
                    "time": 192.84062499999993,
                    "velocity": 0.41732283464566927,
                    "duration": 0.09375
                },
                {
                    "name": "D#7",
                    "midi": 99,
                    "time": 192.93593749999994,
                    "velocity": 0.4330708661417323,
                    "duration": 0.09375
                },
                {
                    "name": "E7",
                    "midi": 100,
                    "time": 193.03437499999993,
                    "velocity": 0.4094488188976378,
                    "duration": 0.09375
                },
                {
                    "name": "D#7",
                    "midi": 99,
                    "time": 193.12968749999993,
                    "velocity": 0.3700787401574803,
                    "duration": 0.09375
                },
                {
                    "name": "E7",
                    "midi": 100,
                    "time": 193.22343749999993,
                    "velocity": 0.3464566929133858,
                    "duration": 0.09375
                },
                {
                    "name": "D#7",
                    "midi": 99,
                    "time": 193.31249999999994,
                    "velocity": 0.36220472440944884,
                    "duration": 0.09375
                },
                {
                    "name": "E7",
                    "midi": 100,
                    "time": 193.40781249999995,
                    "velocity": 0.3464566929133858,
                    "duration": 0.09375
                },
                {
                    "name": "D#7",
                    "midi": 99,
                    "time": 193.50468749999996,
                    "velocity": 0.36220472440944884,
                    "duration": 0.09375
                },
                {
                    "name": "E7",
                    "midi": 100,
                    "time": 193.59999999999997,
                    "velocity": 0.3543307086614173,
                    "duration": 0.09375
                },
                {
                    "name": "D#7",
                    "midi": 99,
                    "time": 193.68124999999998,
                    "velocity": 0.36220472440944884,
                    "duration": 0.09375
                },
                {
                    "name": "E7",
                    "midi": 100,
                    "time": 193.78281249999998,
                    "velocity": 0.33858267716535434,
                    "duration": 0.09375
                },
                {
                    "name": "D#7",
                    "midi": 99,
                    "time": 193.87031249999998,
                    "velocity": 0.36220472440944884,
                    "duration": 0.09375
                },
                {
                    "name": "D#6",
                    "midi": 87,
                    "time": 193.87499999999997,
                    "velocity": 0.44881889763779526,
                    "duration": 0.375
                },
                {
                    "name": "E7",
                    "midi": 100,
                    "time": 193.96249999999998,
                    "velocity": 0.3464566929133858,
                    "duration": 0.09375
                },
                {
                    "name": "D#7",
                    "midi": 99,
                    "time": 194.06874999999997,
                    "velocity": 0.36220472440944884,
                    "duration": 0.09375
                },
                {
                    "name": "E7",
                    "midi": 100,
                    "time": 194.14843749999997,
                    "velocity": 0.3543307086614173,
                    "duration": 0.09375
                },
                {
                    "name": "D#6",
                    "midi": 87,
                    "time": 194.24843749999997,
                    "velocity": 0.36220472440944884,
                    "duration": 0.18750000000002842
                },
                {
                    "name": "D#7",
                    "midi": 99,
                    "time": 194.25156249999998,
                    "velocity": 0.36220472440944884,
                    "duration": 0.09375
                },
                {
                    "name": "E7",
                    "midi": 100,
                    "time": 194.340625,
                    "velocity": 0.36220472440944884,
                    "duration": 0.09375
                },
                {
                    "name": "D#7",
                    "midi": 99,
                    "time": 194.4390625,
                    "velocity": 0.36220472440944884,
                    "duration": 0.09375
                },
                {
                    "name": "E7",
                    "midi": 100,
                    "time": 194.5265625,
                    "velocity": 0.3464566929133858,
                    "duration": 0.09375
                },
                {
                    "name": "D#7",
                    "midi": 99,
                    "time": 194.61875,
                    "velocity": 0.36220472440944884,
                    "duration": 0.09375
                },
                {
                    "name": "D#6",
                    "midi": 87,
                    "time": 194.62187500000002,
                    "velocity": 0.2283464566929134,
                    "duration": 0.1875
                },
                {
                    "name": "E7",
                    "midi": 100,
                    "time": 194.72343750000002,
                    "velocity": 0.3464566929133858,
                    "duration": 0.09375
                },
                {
                    "name": "D#7",
                    "midi": 99,
                    "time": 194.80625,
                    "velocity": 0.36220472440944884,
                    "duration": 0.09375
                },
                {
                    "name": "E7",
                    "midi": 100,
                    "time": 194.90312500000002,
                    "velocity": 0.3464566929133858,
                    "duration": 0.09375
                },
                {
                    "name": "D#6",
                    "midi": 87,
                    "time": 195.00468750000002,
                    "velocity": 0.2283464566929134,
                    "duration": 0.1875
                },
                {
                    "name": "D#7",
                    "midi": 99,
                    "time": 195.00625000000002,
                    "velocity": 0.36220472440944884,
                    "duration": 0.09375
                },
                {
                    "name": "E7",
                    "midi": 100,
                    "time": 195.09843750000002,
                    "velocity": 0.3464566929133858,
                    "duration": 0.09375
                },
                {
                    "name": "D#7",
                    "midi": 99,
                    "time": 195.19218750000002,
                    "velocity": 0.36220472440944884,
                    "duration": 0.09375
                },
                {
                    "name": "E7",
                    "midi": 100,
                    "time": 195.2828125,
                    "velocity": 0.36220472440944884,
                    "duration": 0.09375
                },
                {
                    "name": "D#6",
                    "midi": 87,
                    "time": 195.37187500000002,
                    "velocity": 0.2283464566929134,
                    "duration": 0.18749999999997158
                },
                {
                    "name": "D#7",
                    "midi": 99,
                    "time": 195.38125,
                    "velocity": 0.36220472440944884,
                    "duration": 0.09375
                },
                {
                    "name": "E7",
                    "midi": 100,
                    "time": 195.46406249999998,
                    "velocity": 0.3464566929133858,
                    "duration": 0.09375
                },
                {
                    "name": "D#7",
                    "midi": 99,
                    "time": 195.56875,
                    "velocity": 0.36220472440944884,
                    "duration": 0.09375
                },
                {
                    "name": "E7",
                    "midi": 100,
                    "time": 195.65156249999998,
                    "velocity": 0.3543307086614173,
                    "duration": 0.09375
                },
                {
                    "name": "D#6",
                    "midi": 87,
                    "time": 195.74531249999998,
                    "velocity": 0.2283464566929134,
                    "duration": 0.1875
                },
                {
                    "name": "D#7",
                    "midi": 99,
                    "time": 195.74999999999997,
                    "velocity": 0.36220472440944884,
                    "duration": 0.09375
                },
                {
                    "name": "E7",
                    "midi": 100,
                    "time": 195.85156249999997,
                    "velocity": 0.3464566929133858,
                    "duration": 0.09375
                },
                {
                    "name": "D#7",
                    "midi": 99,
                    "time": 195.92968749999997,
                    "velocity": 0.36220472440944884,
                    "duration": 0.09375
                },
                {
                    "name": "E7",
                    "midi": 100,
                    "time": 196.02343749999997,
                    "velocity": 0.3543307086614173,
                    "duration": 0.09375
                },
                {
                    "name": "D#7",
                    "midi": 99,
                    "time": 196.12343749999997,
                    "velocity": 0.36220472440944884,
                    "duration": 0.09375
                },
                {
                    "name": "D#6",
                    "midi": 87,
                    "time": 196.12499999999997,
                    "velocity": 0.2283464566929134,
                    "duration": 0.1875
                },
                {
                    "name": "E7",
                    "midi": 100,
                    "time": 196.21249999999998,
                    "velocity": 0.3464566929133858,
                    "duration": 0.09375
                },
                {
                    "name": "D#7",
                    "midi": 99,
                    "time": 196.30781249999998,
                    "velocity": 0.36220472440944884,
                    "duration": 0.09375
                },
                {
                    "name": "E7",
                    "midi": 100,
                    "time": 196.4125,
                    "velocity": 0.3464566929133858,
                    "duration": 0.09375000000002842
                },
                {
                    "name": "D#7",
                    "midi": 99,
                    "time": 196.49375,
                    "velocity": 0.36220472440944884,
                    "duration": 0.09375000000002842
                },
                {
                    "name": "D#6",
                    "midi": 87,
                    "time": 196.4953125,
                    "velocity": 0.2283464566929134,
                    "duration": 0.18750000000002842
                },
                {
                    "name": "E7",
                    "midi": 100,
                    "time": 196.58750000000003,
                    "velocity": 0.3464566929133858,
                    "duration": 0.09375
                },
                {
                    "name": "D#7",
                    "midi": 99,
                    "time": 196.69531250000003,
                    "velocity": 0.3700787401574803,
                    "duration": 0.09375
                },
                {
                    "name": "E7",
                    "midi": 100,
                    "time": 196.77343750000003,
                    "velocity": 0.3464566929133858,
                    "duration": 0.09375
                },
                {
                    "name": "D#7",
                    "midi": 99,
                    "time": 196.86718750000003,
                    "velocity": 0.3700787401574803,
                    "duration": 0.09375
                },
                {
                    "name": "D#6",
                    "midi": 87,
                    "time": 196.86718750000003,
                    "velocity": 0.23622047244094488,
                    "duration": 0.1875
                },
                {
                    "name": "E7",
                    "midi": 100,
                    "time": 196.96562500000002,
                    "velocity": 0.33858267716535434,
                    "duration": 0.09375
                },
                {
                    "name": "D#7",
                    "midi": 99,
                    "time": 197.07031250000003,
                    "velocity": 0.3700787401574803,
                    "duration": 0.09375
                },
                {
                    "name": "E7",
                    "midi": 100,
                    "time": 197.15468750000002,
                    "velocity": 0.3464566929133858,
                    "duration": 0.09375
                },
                {
                    "name": "D#6",
                    "midi": 87,
                    "time": 197.24843750000002,
                    "velocity": 0.23622047244094488,
                    "duration": 0.1875
                },
                {
                    "name": "D#7",
                    "midi": 99,
                    "time": 197.25781250000003,
                    "velocity": 0.3700787401574803,
                    "duration": 0.09375
                },
                {
                    "name": "E7",
                    "midi": 100,
                    "time": 197.35000000000002,
                    "velocity": 0.3543307086614173,
                    "duration": 0.09375
                },
                {
                    "name": "D#7",
                    "midi": 99,
                    "time": 197.43750000000003,
                    "velocity": 0.3700787401574803,
                    "duration": 0.09375
                },
                {
                    "name": "E7",
                    "midi": 100,
                    "time": 197.53750000000002,
                    "velocity": 0.33858267716535434,
                    "duration": 0.09375
                },
                {
                    "name": "D#7",
                    "midi": 99,
                    "time": 197.62343750000002,
                    "velocity": 0.3700787401574803,
                    "duration": 0.09375
                },
                {
                    "name": "D#6",
                    "midi": 87,
                    "time": 197.628125,
                    "velocity": 0.2283464566929134,
                    "duration": 0.18750000000002842
                },
                {
                    "name": "E7",
                    "midi": 100,
                    "time": 197.7140625,
                    "velocity": 0.3543307086614173,
                    "duration": 0.09375000000002842
                },
                {
                    "name": "D#7",
                    "midi": 99,
                    "time": 197.80468750000003,
                    "velocity": 0.3700787401574803,
                    "duration": 0.09375
                },
                {
                    "name": "E7",
                    "midi": 100,
                    "time": 197.90625000000003,
                    "velocity": 0.3543307086614173,
                    "duration": 0.09375
                },
                {
                    "name": "D#7",
                    "midi": 99,
                    "time": 197.99843750000002,
                    "velocity": 0.3700787401574803,
                    "duration": 0.09375000000002842
                },
                {
                    "name": "D#6",
                    "midi": 87,
                    "time": 198.00781250000003,
                    "velocity": 0.2283464566929134,
                    "duration": 0.1875
                },
                {
                    "name": "E7",
                    "midi": 100,
                    "time": 198.08906250000004,
                    "velocity": 0.3700787401574803,
                    "duration": 0.09375
                },
                {
                    "name": "D#7",
                    "midi": 99,
                    "time": 198.18906250000003,
                    "velocity": 0.3700787401574803,
                    "duration": 0.09375
                },
                {
                    "name": "E7",
                    "midi": 100,
                    "time": 198.27656250000004,
                    "velocity": 0.3543307086614173,
                    "duration": 0.09375
                },
                {
                    "name": "D#6",
                    "midi": 87,
                    "time": 198.37812500000004,
                    "velocity": 0.2283464566929134,
                    "duration": 0.18749999999997158
                },
                {
                    "name": "D#7",
                    "midi": 99,
                    "time": 198.38281250000003,
                    "velocity": 0.36220472440944884,
                    "duration": 0.09375
                },
                {
                    "name": "E7",
                    "midi": 100,
                    "time": 198.46718750000002,
                    "velocity": 0.3464566929133858,
                    "duration": 0.09375
                },
                {
                    "name": "D#7",
                    "midi": 99,
                    "time": 198.56875000000002,
                    "velocity": 0.36220472440944884,
                    "duration": 0.09375
                },
                {
                    "name": "E7",
                    "midi": 100,
                    "time": 198.64843750000003,
                    "velocity": 0.3464566929133858,
                    "duration": 0.09375
                },
                {
                    "name": "D#7",
                    "midi": 99,
                    "time": 198.75156250000003,
                    "velocity": 0.36220472440944884,
                    "duration": 0.09375
                },
                {
                    "name": "D#6",
                    "midi": 87,
                    "time": 198.75781250000003,
                    "velocity": 0.2283464566929134,
                    "duration": 0.18750000000002842
                },
                {
                    "name": "E7",
                    "midi": 100,
                    "time": 198.84843750000005,
                    "velocity": 0.33858267716535434,
                    "duration": 0.09375
                },
                {
                    "name": "D#7",
                    "midi": 99,
                    "time": 198.93906250000003,
                    "velocity": 0.36220472440944884,
                    "duration": 0.09375000000002842
                },
                {
                    "name": "E7",
                    "midi": 100,
                    "time": 199.02500000000006,
                    "velocity": 0.3543307086614173,
                    "duration": 0.09375
                },
                {
                    "name": "D#6",
                    "midi": 87,
                    "time": 199.12031250000007,
                    "velocity": 0.2283464566929134,
                    "duration": 0.18750000000002842
                },
                {
                    "name": "D#7",
                    "midi": 99,
                    "time": 199.12343750000008,
                    "velocity": 0.36220472440944884,
                    "duration": 0.09375
                },
                {
                    "name": "E7",
                    "midi": 100,
                    "time": 199.21093750000009,
                    "velocity": 0.3464566929133858,
                    "duration": 0.09375
                },
                {
                    "name": "D#7",
                    "midi": 99,
                    "time": 199.3109375000001,
                    "velocity": 0.36220472440944884,
                    "duration": 0.09375
                },
                {
                    "name": "E7",
                    "midi": 100,
                    "time": 199.3984375000001,
                    "velocity": 0.33858267716535434,
                    "duration": 0.09375
                },
                {
                    "name": "D#6",
                    "midi": 87,
                    "time": 199.50312500000013,
                    "velocity": 0.2283464566929134,
                    "duration": 0.18750000000002842
                },
                {
                    "name": "D#7",
                    "midi": 99,
                    "time": 199.50625000000014,
                    "velocity": 0.3543307086614173,
                    "duration": 0.09375
                },
                {
                    "name": "E7",
                    "midi": 100,
                    "time": 199.58593750000014,
                    "velocity": 0.33858267716535434,
                    "duration": 0.09375
                },
                {
                    "name": "D#7",
                    "midi": 99,
                    "time": 199.69218750000016,
                    "velocity": 0.3543307086614173,
                    "duration": 0.09375
                },
                {
                    "name": "E7",
                    "midi": 100,
                    "time": 199.78437500000015,
                    "velocity": 0.33858267716535434,
                    "duration": 0.09375
                },
                {
                    "name": "D#6",
                    "midi": 87,
                    "time": 199.87812500000015,
                    "velocity": 0.2125984251968504,
                    "duration": 0.18750000000002842
                },
                {
                    "name": "D#7",
                    "midi": 99,
                    "time": 199.87968750000016,
                    "velocity": 0.3543307086614173,
                    "duration": 0.09375
                },
                {
                    "name": "E7",
                    "midi": 100,
                    "time": 199.96875000000017,
                    "velocity": 0.33070866141732286,
                    "duration": 0.09375
                },
                {
                    "name": "D#7",
                    "midi": 99,
                    "time": 200.06562500000018,
                    "velocity": 0.3543307086614173,
                    "duration": 0.09375
                },
                {
                    "name": "E7",
                    "midi": 100,
                    "time": 200.15000000000018,
                    "velocity": 0.3228346456692913,
                    "duration": 0.09375
                },
                {
                    "name": "D#6",
                    "midi": 87,
                    "time": 200.25312500000018,
                    "velocity": 0.2125984251968504,
                    "duration": 0.18750000000002842
                },
                {
                    "name": "D#7",
                    "midi": 99,
                    "time": 200.2546875000002,
                    "velocity": 0.3464566929133858,
                    "duration": 0.09375
                },
                {
                    "name": "E7",
                    "midi": 100,
                    "time": 200.3484375000002,
                    "velocity": 0.31496062992125984,
                    "duration": 0.09375000000002842
                },
                {
                    "name": "D#7",
                    "midi": 99,
                    "time": 200.4296875000002,
                    "velocity": 0.3464566929133858,
                    "duration": 0.09375000000002842
                },
                {
                    "name": "E7",
                    "midi": 100,
                    "time": 200.53750000000022,
                    "velocity": 0.3228346456692913,
                    "duration": 0.09375
                },
                {
                    "name": "D#6",
                    "midi": 87,
                    "time": 200.6281250000002,
                    "velocity": 0.2125984251968504,
                    "duration": 0.18750000000002842
                },
                {
                    "name": "D#7",
                    "midi": 99,
                    "time": 200.6281250000002,
                    "velocity": 0.3464566929133858,
                    "duration": 0.09375000000002842
                },
                {
                    "name": "E7",
                    "midi": 100,
                    "time": 200.71093750000023,
                    "velocity": 0.31496062992125984,
                    "duration": 0.09375
                },
                {
                    "name": "D#7",
                    "midi": 99,
                    "time": 200.81406250000023,
                    "velocity": 0.33858267716535434,
                    "duration": 0.09375
                },
                {
                    "name": "E7",
                    "midi": 100,
                    "time": 200.91406250000023,
                    "velocity": 0.30708661417322836,
                    "duration": 0.09375
                },
                {
                    "name": "D#6",
                    "midi": 87,
                    "time": 200.99218750000023,
                    "velocity": 0.2125984251968504,
                    "duration": 0.18750000000002842
                },
                {
                    "name": "D#7",
                    "midi": 99,
                    "time": 200.99687500000022,
                    "velocity": 0.33858267716535434,
                    "duration": 0.09375000000002842
                },
                {
                    "name": "E7",
                    "midi": 100,
                    "time": 201.08750000000023,
                    "velocity": 0.30708661417322836,
                    "duration": 0.09375000000002842
                },
                {
                    "name": "D#7",
                    "midi": 99,
                    "time": 201.19531250000026,
                    "velocity": 0.3228346456692913,
                    "duration": 0.09375
                },
                {
                    "name": "E7",
                    "midi": 100,
                    "time": 201.28281250000026,
                    "velocity": 0.28346456692913385,
                    "duration": 0.09374999999997158
                },
                {
                    "name": "D#6",
                    "midi": 87,
                    "time": 201.37187500000024,
                    "velocity": 0.1968503937007874,
                    "duration": 0.18749999999997158
                },
                {
                    "name": "D#7",
                    "midi": 99,
                    "time": 201.38281250000023,
                    "velocity": 0.3464566929133858,
                    "duration": 0.09375
                },
                {
                    "name": "E7",
                    "midi": 100,
                    "time": 201.46718750000022,
                    "velocity": 0.31496062992125984,
                    "duration": 0.09375
                },
                {
                    "name": "D#7",
                    "midi": 99,
                    "time": 201.5656250000002,
                    "velocity": 0.3543307086614173,
                    "duration": 0.09375
                },
                {
                    "name": "E7",
                    "midi": 100,
                    "time": 201.6515625000002,
                    "velocity": 0.31496062992125984,
                    "duration": 0.09375
                },
                {
                    "name": "D#6",
                    "midi": 87,
                    "time": 201.7437500000002,
                    "velocity": 0.1968503937007874,
                    "duration": 0.1875
                },
                {
                    "name": "D#7",
                    "midi": 99,
                    "time": 201.7453125000002,
                    "velocity": 0.3543307086614173,
                    "duration": 0.09375
                },
                {
                    "name": "E7",
                    "midi": 100,
                    "time": 201.8437500000002,
                    "velocity": 0.33070866141732286,
                    "duration": 0.09375
                },
                {
                    "name": "D#7",
                    "midi": 99,
                    "time": 201.9437500000002,
                    "velocity": 0.3543307086614173,
                    "duration": 0.09375
                },
                {
                    "name": "E7",
                    "midi": 100,
                    "time": 202.0250000000002,
                    "velocity": 0.3228346456692913,
                    "duration": 0.09375
                },
                {
                    "name": "D#7",
                    "midi": 99,
                    "time": 202.1234375000002,
                    "velocity": 0.36220472440944884,
                    "duration": 0.09375
                },
                {
                    "name": "D#6",
                    "midi": 87,
                    "time": 202.1312500000002,
                    "velocity": 0.1968503937007874,
                    "duration": 0.1875
                },
                {
                    "name": "E7",
                    "midi": 100,
                    "time": 202.2109375000002,
                    "velocity": 0.33858267716535434,
                    "duration": 0.09375
                },
                {
                    "name": "D#7",
                    "midi": 99,
                    "time": 202.3171875000002,
                    "velocity": 0.36220472440944884,
                    "duration": 0.09375000000002842
                },
                {
                    "name": "E7",
                    "midi": 100,
                    "time": 202.4000000000002,
                    "velocity": 0.3464566929133858,
                    "duration": 0.09375
                },
                {
                    "name": "D#7",
                    "midi": 99,
                    "time": 202.50468750000022,
                    "velocity": 0.36220472440944884,
                    "duration": 0.09375
                },
                {
                    "name": "D#6",
                    "midi": 87,
                    "time": 202.50781250000023,
                    "velocity": 0.2283464566929134,
                    "duration": 0.1875
                },
                {
                    "name": "E7",
                    "midi": 100,
                    "time": 202.60000000000022,
                    "velocity": 0.33858267716535434,
                    "duration": 0.09375
                },
                {
                    "name": "D#7",
                    "midi": 99,
                    "time": 202.6828125000002,
                    "velocity": 0.36220472440944884,
                    "duration": 0.09375000000002842
                },
                {
                    "name": "E7",
                    "midi": 100,
                    "time": 202.78125000000023,
                    "velocity": 0.33858267716535434,
                    "duration": 0.09375
                },
                {
                    "name": "D#6",
                    "midi": 87,
                    "time": 202.86718750000023,
                    "velocity": 0.2283464566929134,
                    "duration": 0.1875
                },
                {
                    "name": "D#7",
                    "midi": 99,
                    "time": 202.87968750000022,
                    "velocity": 0.36220472440944884,
                    "duration": 0.09375
                },
                {
                    "name": "E7",
                    "midi": 100,
                    "time": 202.9625000000002,
                    "velocity": 0.33858267716535434,
                    "duration": 0.09375000000002842
                },
                {
                    "name": "D#7",
                    "midi": 99,
                    "time": 203.06093750000022,
                    "velocity": 0.36220472440944884,
                    "duration": 0.09375
                },
                {
                    "name": "E7",
                    "midi": 100,
                    "time": 203.15312500000022,
                    "velocity": 0.33858267716535434,
                    "duration": 0.09375
                },
                {
                    "name": "D#7",
                    "midi": 99,
                    "time": 203.24218750000023,
                    "velocity": 0.36220472440944884,
                    "duration": 0.09375
                },
                {
                    "name": "D#6",
                    "midi": 87,
                    "time": 203.25781250000023,
                    "velocity": 0.2283464566929134,
                    "duration": 0.1875
                },
                {
                    "name": "E7",
                    "midi": 100,
                    "time": 203.33906250000024,
                    "velocity": 0.33858267716535434,
                    "duration": 0.09375
                },
                {
                    "name": "D#7",
                    "midi": 99,
                    "time": 203.43281250000024,
                    "velocity": 0.36220472440944884,
                    "duration": 0.09375
                },
                {
                    "name": "E7",
                    "midi": 100,
                    "time": 203.52656250000024,
                    "velocity": 0.33858267716535434,
                    "duration": 0.09375
                },
                {
                    "name": "D#7",
                    "midi": 99,
                    "time": 203.62500000000023,
                    "velocity": 0.3464566929133858,
                    "duration": 0.09375
                },
                {
                    "name": "E7",
                    "midi": 100,
                    "time": 203.71875000000023,
                    "velocity": 0.3858267716535433,
                    "duration": 0.09375
                },
                {
                    "name": "D#7",
                    "midi": 99,
                    "time": 203.81250000000023,
                    "velocity": 0.3858267716535433,
                    "duration": 0.09375
                },
                {
                    "name": "D#6",
                    "midi": 87,
                    "time": 203.90625000000023,
                    "velocity": 0.3858267716535433,
                    "duration": 0.08437499999999432
                },
                {
                    "name": "D#6",
                    "midi": 87,
                    "time": 204.00000000000023,
                    "velocity": 0.31496062992125984,
                    "duration": 0.09375
                },
                {
                    "name": "E6",
                    "midi": 88,
                    "time": 204.09375000000023,
                    "velocity": 0.31496062992125984,
                    "duration": 0.09375
                },
                {
                    "name": "D#6",
                    "midi": 87,
                    "time": 204.18750000000023,
                    "velocity": 0.31496062992125984,
                    "duration": 0.09375
                },
                {
                    "name": "D#5",
                    "midi": 75,
                    "time": 204.28125000000023,
                    "velocity": 0.31496062992125984,
                    "duration": 0.09375
                },
                {
                    "name": "D#6",
                    "midi": 87,
                    "time": 204.37500000000023,
                    "velocity": 0.31496062992125984,
                    "duration": 0.125
                },
                {
                    "name": "E6",
                    "midi": 88,
                    "time": 204.50000000000023,
                    "velocity": 0.31496062992125984,
                    "duration": 0.125
                },
                {
                    "name": "D#6",
                    "midi": 87,
                    "time": 204.62500000000023,
                    "velocity": 0.31496062992125984,
                    "duration": 0.125
                },
                {
                    "name": "D#7",
                    "midi": 99,
                    "time": 204.75000000000023,
                    "velocity": 0.3700787401574803,
                    "duration": 0.09375
                },
                {
                    "name": "E7",
                    "midi": 100,
                    "time": 204.84375000000023,
                    "velocity": 0.3700787401574803,
                    "duration": 0.09375
                },
                {
                    "name": "D#7",
                    "midi": 99,
                    "time": 204.93750000000023,
                    "velocity": 0.3700787401574803,
                    "duration": 0.09375
                },
                {
                    "name": "D#6",
                    "midi": 87,
                    "time": 205.03125000000023,
                    "velocity": 0.3700787401574803,
                    "duration": 0.08437499999999432
                },
                {
                    "name": "D#6",
                    "midi": 87,
                    "time": 205.12500000000023,
                    "velocity": 0.3228346456692913,
                    "duration": 0.09375
                },
                {
                    "name": "E6",
                    "midi": 88,
                    "time": 205.21875000000023,
                    "velocity": 0.31496062992125984,
                    "duration": 0.09375
                },
                {
                    "name": "D#6",
                    "midi": 87,
                    "time": 205.31250000000023,
                    "velocity": 0.31496062992125984,
                    "duration": 0.09375
                },
                {
                    "name": "D#5",
                    "midi": 75,
                    "time": 205.40625000000023,
                    "velocity": 0.31496062992125984,
                    "duration": 0.09375
                },
                {
                    "name": "D#6",
                    "midi": 87,
                    "time": 205.50000000000023,
                    "velocity": 0.31496062992125984,
                    "duration": 0.125
                },
                {
                    "name": "E6",
                    "midi": 88,
                    "time": 205.62500000000023,
                    "velocity": 0.31496062992125984,
                    "duration": 0.125
                },
                {
                    "name": "D#6",
                    "midi": 87,
                    "time": 205.75000000000023,
                    "velocity": 0.31496062992125984,
                    "duration": 0.125
                },
                {
                    "name": "D#7",
                    "midi": 99,
                    "time": 205.87500000000023,
                    "velocity": 0.3858267716535433,
                    "duration": 0.09375
                },
                {
                    "name": "E7",
                    "midi": 100,
                    "time": 205.96875000000023,
                    "velocity": 0.3858267716535433,
                    "duration": 0.09375
                },
                {
                    "name": "D#7",
                    "midi": 99,
                    "time": 206.06250000000023,
                    "velocity": 0.3858267716535433,
                    "duration": 0.09375
                },
                {
                    "name": "D#6",
                    "midi": 87,
                    "time": 206.15625000000023,
                    "velocity": 0.3858267716535433,
                    "duration": 0.08437499999999432
                },
                {
                    "name": "D#6",
                    "midi": 87,
                    "time": 206.25000000000023,
                    "velocity": 0.31496062992125984,
                    "duration": 0.09375
                },
                {
                    "name": "E6",
                    "midi": 88,
                    "time": 206.34375000000023,
                    "velocity": 0.31496062992125984,
                    "duration": 0.09375
                },
                {
                    "name": "D#6",
                    "midi": 87,
                    "time": 206.43750000000023,
                    "velocity": 0.31496062992125984,
                    "duration": 0.09375
                },
                {
                    "name": "D#5",
                    "midi": 75,
                    "time": 206.53125000000023,
                    "velocity": 0.31496062992125984,
                    "duration": 0.09375
                },
                {
                    "name": "D#6",
                    "midi": 87,
                    "time": 206.62500000000023,
                    "velocity": 0.31496062992125984,
                    "duration": 0.125
                },
                {
                    "name": "E6",
                    "midi": 88,
                    "time": 206.75000000000023,
                    "velocity": 0.31496062992125984,
                    "duration": 0.125
                },
                {
                    "name": "D#6",
                    "midi": 87,
                    "time": 206.87500000000023,
                    "velocity": 0.31496062992125984,
                    "duration": 0.125
                },
                {
                    "name": "D#7",
                    "midi": 99,
                    "time": 207.00000000000023,
                    "velocity": 0.3700787401574803,
                    "duration": 0.09375
                },
                {
                    "name": "E7",
                    "midi": 100,
                    "time": 207.09375000000023,
                    "velocity": 0.3700787401574803,
                    "duration": 0.09375
                },
                {
                    "name": "D#7",
                    "midi": 99,
                    "time": 207.18750000000023,
                    "velocity": 0.3700787401574803,
                    "duration": 0.09375
                },
                {
                    "name": "D#6",
                    "midi": 87,
                    "time": 207.28125000000023,
                    "velocity": 0.3700787401574803,
                    "duration": 0.08437499999999432
                },
                {
                    "name": "D#6",
                    "midi": 87,
                    "time": 207.37500000000023,
                    "velocity": 0.3228346456692913,
                    "duration": 0.09375
                },
                {
                    "name": "E6",
                    "midi": 88,
                    "time": 207.46875000000023,
                    "velocity": 0.3228346456692913,
                    "duration": 0.09375
                },
                {
                    "name": "D#6",
                    "midi": 87,
                    "time": 207.56250000000023,
                    "velocity": 0.3228346456692913,
                    "duration": 0.09375
                },
                {
                    "name": "D#5",
                    "midi": 75,
                    "time": 207.65625000000023,
                    "velocity": 0.3228346456692913,
                    "duration": 0.09375
                },
                {
                    "name": "D#6",
                    "midi": 87,
                    "time": 207.75000000000023,
                    "velocity": 0.3228346456692913,
                    "duration": 0.125
                },
                {
                    "name": "E6",
                    "midi": 88,
                    "time": 207.87500000000023,
                    "velocity": 0.3228346456692913,
                    "duration": 0.125
                },
                {
                    "name": "D#6",
                    "midi": 87,
                    "time": 208.00000000000023,
                    "velocity": 0.3228346456692913,
                    "duration": 0.125
                },
                {
                    "name": "D#7",
                    "midi": 99,
                    "time": 208.12500000000023,
                    "velocity": 0.3543307086614173,
                    "duration": 0.09375
                },
                {
                    "name": "E7",
                    "midi": 100,
                    "time": 208.21875000000023,
                    "velocity": 0.3543307086614173,
                    "duration": 0.09375
                },
                {
                    "name": "D#7",
                    "midi": 99,
                    "time": 208.31250000000023,
                    "velocity": 0.3543307086614173,
                    "duration": 0.09375
                },
                {
                    "name": "D#6",
                    "midi": 87,
                    "time": 208.40625000000023,
                    "velocity": 0.3543307086614173,
                    "duration": 0.09375
                },
                {
                    "name": "G#5",
                    "midi": 80,
                    "time": 208.50000000000023,
                    "velocity": 0.3543307086614173,
                    "duration": 0.1875
                },
                {
                    "name": "B4",
                    "midi": 71,
                    "time": 208.50000000000023,
                    "velocity": 0.3543307086614173,
                    "duration": 0.1875
                },
                {
                    "name": "D#5",
                    "midi": 75,
                    "time": 208.68750000000023,
                    "velocity": 0.3228346456692913,
                    "duration": 0.1875
                },
                {
                    "name": "B5",
                    "midi": 83,
                    "time": 208.68750000000023,
                    "velocity": 0.3228346456692913,
                    "duration": 0.1875
                },
                {
                    "name": "D#6",
                    "midi": 87,
                    "time": 208.87500000000023,
                    "velocity": 0.36220472440944884,
                    "duration": 0.28125
                },
                {
                    "name": "G#5",
                    "midi": 80,
                    "time": 208.87500000000023,
                    "velocity": 0.36220472440944884,
                    "duration": 0.28125
                },
                {
                    "name": "D#7",
                    "midi": 99,
                    "time": 209.25000000000023,
                    "velocity": 0.3543307086614173,
                    "duration": 0.09375
                },
                {
                    "name": "E7",
                    "midi": 100,
                    "time": 209.34375000000023,
                    "velocity": 0.3464566929133858,
                    "duration": 0.09375
                },
                {
                    "name": "D#7",
                    "midi": 99,
                    "time": 209.43750000000023,
                    "velocity": 0.3464566929133858,
                    "duration": 0.09375
                },
                {
                    "name": "D#6",
                    "midi": 87,
                    "time": 209.53125000000023,
                    "velocity": 0.3464566929133858,
                    "duration": 0.09375
                },
                {
                    "name": "G5",
                    "midi": 79,
                    "time": 209.62500000000023,
                    "velocity": 0.31496062992125984,
                    "duration": 0.1875
                },
                {
                    "name": "A#4",
                    "midi": 70,
                    "time": 209.62500000000023,
                    "velocity": 0.31496062992125984,
                    "duration": 0.1875
                },
                {
                    "name": "C#5",
                    "midi": 73,
                    "time": 209.81250000000023,
                    "velocity": 0.28346456692913385,
                    "duration": 0.1875
                },
                {
                    "name": "A#5",
                    "midi": 82,
                    "time": 209.81250000000023,
                    "velocity": 0.28346456692913385,
                    "duration": 0.1875
                },
                {
                    "name": "D#6",
                    "midi": 87,
                    "time": 210.00000000000023,
                    "velocity": 0.31496062992125984,
                    "duration": 0.28125
                },
                {
                    "name": "G5",
                    "midi": 79,
                    "time": 210.00000000000023,
                    "velocity": 0.31496062992125984,
                    "duration": 0.28125
                },
                {
                    "name": "D#5",
                    "midi": 75,
                    "time": 211.12500000000023,
                    "velocity": 0.4251968503937008,
                    "duration": 0.375
                },
                {
                    "name": "D#6",
                    "midi": 87,
                    "time": 211.21875000000023,
                    "velocity": 0.33858267716535434,
                    "duration": 0.09375
                },
                {
                    "name": "E6",
                    "midi": 88,
                    "time": 211.31250000000023,
                    "velocity": 0.33858267716535434,
                    "duration": 0.09375
                },
                {
                    "name": "D#6",
                    "midi": 87,
                    "time": 211.40625000000023,
                    "velocity": 0.33858267716535434,
                    "duration": 0.09375
                },
                {
                    "name": "D#6",
                    "midi": 87,
                    "time": 211.50000000000023,
                    "velocity": 0.47244094488188976,
                    "duration": 0.1875
                },
                {
                    "name": "D#7",
                    "midi": 99,
                    "time": 211.59375000000023,
                    "velocity": 0.36220472440944884,
                    "duration": 0.09375
                },
                {
                    "name": "E7",
                    "midi": 100,
                    "time": 211.68750000000023,
                    "velocity": 0.36220472440944884,
                    "duration": 0.09375
                },
                {
                    "name": "D#7",
                    "midi": 99,
                    "time": 211.78125000000023,
                    "velocity": 0.36220472440944884,
                    "duration": 0.09375
                },
                {
                    "name": "D#6",
                    "midi": 87,
                    "time": 211.87500000000023,
                    "velocity": 0.47244094488188976,
                    "duration": 0.1875
                },
                {
                    "name": "D#7",
                    "midi": 99,
                    "time": 211.96875000000023,
                    "velocity": 0.3464566929133858,
                    "duration": 0.09375
                },
                {
                    "name": "E7",
                    "midi": 100,
                    "time": 212.06250000000023,
                    "velocity": 0.3464566929133858,
                    "duration": 0.09375
                },
                {
                    "name": "D#7",
                    "midi": 99,
                    "time": 212.15625000000023,
                    "velocity": 0.3464566929133858,
                    "duration": 0.09375
                },
                {
                    "name": "C#6",
                    "midi": 85,
                    "time": 212.25000000000023,
                    "velocity": 0.4330708661417323,
                    "duration": 0.1875
                },
                {
                    "name": "C#7",
                    "midi": 97,
                    "time": 212.34375000000023,
                    "velocity": 0.3464566929133858,
                    "duration": 0.09375
                },
                {
                    "name": "D#7",
                    "midi": 99,
                    "time": 212.43750000000023,
                    "velocity": 0.3464566929133858,
                    "duration": 0.09375
                },
                {
                    "name": "C#7",
                    "midi": 97,
                    "time": 212.53125000000023,
                    "velocity": 0.3543307086614173,
                    "duration": 0.09375
                },
                {
                    "name": "B5",
                    "midi": 83,
                    "time": 212.62500000000023,
                    "velocity": 0.4645669291338583,
                    "duration": 0.1875
                },
                {
                    "name": "B6",
                    "midi": 95,
                    "time": 212.71875000000023,
                    "velocity": 0.3543307086614173,
                    "duration": 0.09375
                },
                {
                    "name": "C#7",
                    "midi": 97,
                    "time": 212.81250000000023,
                    "velocity": 0.3543307086614173,
                    "duration": 0.09375
                },
                {
                    "name": "B6",
                    "midi": 95,
                    "time": 212.90625000000023,
                    "velocity": 0.36220472440944884,
                    "duration": 0.09375
                },
                {
                    "name": "B5",
                    "midi": 83,
                    "time": 213.00000000000023,
                    "velocity": 0.4251968503937008,
                    "duration": 0.1875
                },
                {
                    "name": "B6",
                    "midi": 95,
                    "time": 213.09375000000023,
                    "velocity": 0.31496062992125984,
                    "duration": 0.09375
                },
                {
                    "name": "C#7",
                    "midi": 97,
                    "time": 213.18750000000023,
                    "velocity": 0.3228346456692913,
                    "duration": 0.09375
                },
                {
                    "name": "B6",
                    "midi": 95,
                    "time": 213.28125000000023,
                    "velocity": 0.3228346456692913,
                    "duration": 0.09375
                },
                {
                    "name": "A#5",
                    "midi": 82,
                    "time": 213.37500000000023,
                    "velocity": 0.4330708661417323,
                    "duration": 0.1875
                },
                {
                    "name": "A#6",
                    "midi": 94,
                    "time": 213.46875000000023,
                    "velocity": 0.31496062992125984,
                    "duration": 0.09375
                },
                {
                    "name": "B6",
                    "midi": 95,
                    "time": 213.56250000000023,
                    "velocity": 0.31496062992125984,
                    "duration": 0.09375
                },
                {
                    "name": "A#6",
                    "midi": 94,
                    "time": 213.65625000000023,
                    "velocity": 0.3228346456692913,
                    "duration": 0.09375
                },
                {
                    "name": "G#5",
                    "midi": 80,
                    "time": 213.75000000000023,
                    "velocity": 0.4645669291338583,
                    "duration": 0.1875
                },
                {
                    "name": "G#6",
                    "midi": 92,
                    "time": 213.84375000000023,
                    "velocity": 0.3228346456692913,
                    "duration": 0.09375
                },
                {
                    "name": "A#6",
                    "midi": 94,
                    "time": 213.93750000000023,
                    "velocity": 0.3228346456692913,
                    "duration": 0.09375
                },
                {
                    "name": "G#6",
                    "midi": 92,
                    "time": 214.03125000000023,
                    "velocity": 0.3228346456692913,
                    "duration": 0.09375
                },
                {
                    "name": "G5",
                    "midi": 79,
                    "time": 214.12500000000023,
                    "velocity": 0.4645669291338583,
                    "duration": 0.1875
                },
                {
                    "name": "G6",
                    "midi": 91,
                    "time": 214.21875000000023,
                    "velocity": 0.3228346456692913,
                    "duration": 0.09375
                },
                {
                    "name": "G#6",
                    "midi": 92,
                    "time": 214.31250000000023,
                    "velocity": 0.3228346456692913,
                    "duration": 0.09375
                },
                {
                    "name": "G6",
                    "midi": 91,
                    "time": 214.40625000000023,
                    "velocity": 0.3228346456692913,
                    "duration": 0.09375
                },
                {
                    "name": "G#5",
                    "midi": 80,
                    "time": 214.50000000000023,
                    "velocity": 0.49606299212598426,
                    "duration": 0.1875
                },
                {
                    "name": "G#6",
                    "midi": 92,
                    "time": 214.59375000000023,
                    "velocity": 0.33858267716535434,
                    "duration": 0.09375
                },
                {
                    "name": "A#6",
                    "midi": 94,
                    "time": 214.68750000000023,
                    "velocity": 0.33858267716535434,
                    "duration": 0.09375
                },
                {
                    "name": "G#6",
                    "midi": 92,
                    "time": 214.78125000000023,
                    "velocity": 0.3464566929133858,
                    "duration": 0.09375
                },
                {
                    "name": "A#5",
                    "midi": 82,
                    "time": 214.87500000000023,
                    "velocity": 0.5275590551181102,
                    "duration": 0.375
                },
                {
                    "name": "A#6",
                    "midi": 94,
                    "time": 214.96875000000023,
                    "velocity": 0.4015748031496063,
                    "duration": 0.09375
                },
                {
                    "name": "B6",
                    "midi": 95,
                    "time": 215.06250000000023,
                    "velocity": 0.4015748031496063,
                    "duration": 0.09375
                },
                {
                    "name": "A#6",
                    "midi": 94,
                    "time": 215.15625000000023,
                    "velocity": 0.4015748031496063,
                    "duration": 0.09375
                },
                {
                    "name": "D#5",
                    "midi": 75,
                    "time": 215.25000000000023,
                    "velocity": 0.4645669291338583,
                    "duration": 0.28125
                },
                {
                    "name": "D#6",
                    "midi": 87,
                    "time": 215.34375000000023,
                    "velocity": 0.3464566929133858,
                    "duration": 0.09375
                },
                {
                    "name": "E6",
                    "midi": 88,
                    "time": 215.43750000000023,
                    "velocity": 0.3464566929133858,
                    "duration": 0.09375
                },
                {
                    "name": "D#6",
                    "midi": 87,
                    "time": 215.53125000000023,
                    "velocity": 0.3464566929133858,
                    "duration": 0.09375
                },
                {
                    "name": "D#5",
                    "midi": 75,
                    "time": 215.62500000000023,
                    "velocity": 0.4645669291338583,
                    "duration": 0.375
                },
                {
                    "name": "D#6",
                    "midi": 87,
                    "time": 215.71875000000023,
                    "velocity": 0.3464566929133858,
                    "duration": 0.09375
                },
                {
                    "name": "E6",
                    "midi": 88,
                    "time": 215.81250000000023,
                    "velocity": 0.3464566929133858,
                    "duration": 0.09375
                },
                {
                    "name": "D#6",
                    "midi": 87,
                    "time": 215.90625000000023,
                    "velocity": 0.3543307086614173,
                    "duration": 0.09375
                },
                {
                    "name": "E5",
                    "midi": 76,
                    "time": 216.00000000000023,
                    "velocity": 0.4881889763779528,
                    "duration": 0.28125
                },
                {
                    "name": "E6",
                    "midi": 88,
                    "time": 216.09375000000023,
                    "velocity": 0.3543307086614173,
                    "duration": 0.09375
                },
                {
                    "name": "F#6",
                    "midi": 90,
                    "time": 216.18750000000023,
                    "velocity": 0.3543307086614173,
                    "duration": 0.09375
                },
                {
                    "name": "E6",
                    "midi": 88,
                    "time": 216.28125000000023,
                    "velocity": 0.3543307086614173,
                    "duration": 0.09375
                },
                {
                    "name": "D#5",
                    "midi": 75,
                    "time": 216.37500000000023,
                    "velocity": 0.4409448818897638,
                    "duration": 0.28125
                },
                {
                    "name": "D#6",
                    "midi": 87,
                    "time": 216.46875000000023,
                    "velocity": 0.33858267716535434,
                    "duration": 0.09375
                },
                {
                    "name": "E6",
                    "midi": 88,
                    "time": 216.56250000000023,
                    "velocity": 0.33858267716535434,
                    "duration": 0.09375
                },
                {
                    "name": "D#6",
                    "midi": 87,
                    "time": 216.65625000000023,
                    "velocity": 0.33858267716535434,
                    "duration": 0.09375
                },
                {
                    "name": "C#5",
                    "midi": 73,
                    "time": 216.75000000000023,
                    "velocity": 0.4409448818897638,
                    "duration": 0.28125
                },
                {
                    "name": "C#6",
                    "midi": 85,
                    "time": 216.84375000000023,
                    "velocity": 0.33858267716535434,
                    "duration": 0.09375
                },
                {
                    "name": "D#6",
                    "midi": 87,
                    "time": 216.93750000000023,
                    "velocity": 0.33858267716535434,
                    "duration": 0.09375
                },
                {
                    "name": "C#6",
                    "midi": 85,
                    "time": 217.03125000000023,
                    "velocity": 0.33858267716535434,
                    "duration": 0.09375
                },
                {
                    "name": "B4",
                    "midi": 71,
                    "time": 217.12500000000023,
                    "velocity": 0.47244094488188976,
                    "duration": 0.328125
                },
                {
                    "name": "B5",
                    "midi": 83,
                    "time": 217.21875000000023,
                    "velocity": 0.33858267716535434,
                    "duration": 0.09375
                },
                {
                    "name": "C#6",
                    "midi": 85,
                    "time": 217.31250000000023,
                    "velocity": 0.33858267716535434,
                    "duration": 0.09375
                },
                {
                    "name": "B5",
                    "midi": 83,
                    "time": 217.40625000000023,
                    "velocity": 0.33858267716535434,
                    "duration": 0.09375
                },
                {
                    "name": "B4",
                    "midi": 71,
                    "time": 217.50000000000023,
                    "velocity": 0.4251968503937008,
                    "duration": 0.28125
                },
                {
                    "name": "B5",
                    "midi": 83,
                    "time": 217.59375000000023,
                    "velocity": 0.30708661417322836,
                    "duration": 0.09375
                },
                {
                    "name": "C#6",
                    "midi": 85,
                    "time": 217.68750000000023,
                    "velocity": 0.30708661417322836,
                    "duration": 0.09375
                },
                {
                    "name": "B5",
                    "midi": 83,
                    "time": 217.78125000000023,
                    "velocity": 0.30708661417322836,
                    "duration": 0.09375
                },
                {
                    "name": "A#4",
                    "midi": 70,
                    "time": 217.87500000000023,
                    "velocity": 0.4251968503937008,
                    "duration": 0.28125
                },
                {
                    "name": "A#5",
                    "midi": 82,
                    "time": 217.96875000000023,
                    "velocity": 0.3228346456692913,
                    "duration": 0.09375
                },
                {
                    "name": "B5",
                    "midi": 83,
                    "time": 218.06250000000023,
                    "velocity": 0.3228346456692913,
                    "duration": 0.09375
                },
                {
                    "name": "A#5",
                    "midi": 82,
                    "time": 218.15625000000023,
                    "velocity": 0.33858267716535434,
                    "duration": 0.09375
                },
                {
                    "name": "G#4",
                    "midi": 68,
                    "time": 218.25000000000023,
                    "velocity": 0.47244094488188976,
                    "duration": 0.28125
                },
                {
                    "name": "G#5",
                    "midi": 80,
                    "time": 218.34375000000023,
                    "velocity": 0.3543307086614173,
                    "duration": 0.09375
                },
                {
                    "name": "A#5",
                    "midi": 82,
                    "time": 218.43750000000023,
                    "velocity": 0.36220472440944884,
                    "duration": 0.09375
                },
                {
                    "name": "G#5",
                    "midi": 80,
                    "time": 218.53125000000023,
                    "velocity": 0.36220472440944884,
                    "duration": 0.09375
                },
                {
                    "name": "G4",
                    "midi": 67,
                    "time": 218.62500000000023,
                    "velocity": 0.4251968503937008,
                    "duration": 0.28125
                },
                {
                    "name": "G5",
                    "midi": 79,
                    "time": 218.71875000000023,
                    "velocity": 0.33858267716535434,
                    "duration": 0.09375
                },
                {
                    "name": "G#5",
                    "midi": 80,
                    "time": 218.81250000000023,
                    "velocity": 0.33858267716535434,
                    "duration": 0.09375
                },
                {
                    "name": "G5",
                    "midi": 79,
                    "time": 218.90625000000023,
                    "velocity": 0.33858267716535434,
                    "duration": 0.09375
                },
                {
                    "name": "G#4",
                    "midi": 68,
                    "time": 219.00000000000023,
                    "velocity": 0.4094488188976378,
                    "duration": 0.28125
                },
                {
                    "name": "G#5",
                    "midi": 80,
                    "time": 219.09375000000023,
                    "velocity": 0.3228346456692913,
                    "duration": 0.09375
                },
                {
                    "name": "A#5",
                    "midi": 82,
                    "time": 219.18750000000023,
                    "velocity": 0.3228346456692913,
                    "duration": 0.09375
                },
                {
                    "name": "G#5",
                    "midi": 80,
                    "time": 219.28125000000023,
                    "velocity": 0.3228346456692913,
                    "duration": 0.09375
                },
                {
                    "name": "A#4",
                    "midi": 70,
                    "time": 219.37500000000023,
                    "velocity": 0.4251968503937008,
                    "duration": 0.375
                },
                {
                    "name": "A#5",
                    "midi": 82,
                    "time": 219.46875000000023,
                    "velocity": 0.33858267716535434,
                    "duration": 0.09375
                },
                {
                    "name": "B5",
                    "midi": 83,
                    "time": 219.56250000000023,
                    "velocity": 0.33858267716535434,
                    "duration": 0.09375
                },
                {
                    "name": "A#5",
                    "midi": 82,
                    "time": 219.65625000000023,
                    "velocity": 0.33858267716535434,
                    "duration": 0.09375
                },
                {
                    "name": "D#4",
                    "midi": 63,
                    "time": 219.75000000000023,
                    "velocity": 0.3858267716535433,
                    "duration": 0.1875
                },
                {
                    "name": "D#5",
                    "midi": 75,
                    "time": 219.84375000000023,
                    "velocity": 0.29133858267716534,
                    "duration": 0.09375
                },
                {
                    "name": "E5",
                    "midi": 76,
                    "time": 219.93750000000023,
                    "velocity": 0.29133858267716534,
                    "duration": 0.09375
                },
                {
                    "name": "D#5",
                    "midi": 75,
                    "time": 220.03125000000023,
                    "velocity": 0.29133858267716534,
                    "duration": 0.09375
                },
                {
                    "name": "D#5",
                    "midi": 75,
                    "time": 220.12500000000023,
                    "velocity": 0.4645669291338583,
                    "duration": 0.375
                },
                {
                    "name": "D#6",
                    "midi": 87,
                    "time": 220.21875000000023,
                    "velocity": 0.33858267716535434,
                    "duration": 0.09375
                },
                {
                    "name": "E6",
                    "midi": 88,
                    "time": 220.31250000000023,
                    "velocity": 0.33858267716535434,
                    "duration": 0.09375
                },
                {
                    "name": "D#6",
                    "midi": 87,
                    "time": 220.40625000000023,
                    "velocity": 0.33858267716535434,
                    "duration": 0.09375
                },
                {
                    "name": "D#6",
                    "midi": 87,
                    "time": 220.50000000000023,
                    "velocity": 0.5039370078740157,
                    "duration": 0.28125
                },
                {
                    "name": "D#7",
                    "midi": 99,
                    "time": 220.59375000000023,
                    "velocity": 0.4094488188976378,
                    "duration": 0.09375
                },
                {
                    "name": "E7",
                    "midi": 100,
                    "time": 220.68750000000023,
                    "velocity": 0.4094488188976378,
                    "duration": 0.09375
                },
                {
                    "name": "D#7",
                    "midi": 99,
                    "time": 220.78125000000023,
                    "velocity": 0.4094488188976378,
                    "duration": 0.09375
                },
                {
                    "name": "D#6",
                    "midi": 87,
                    "time": 220.87500000000023,
                    "velocity": 0.49606299212598426,
                    "duration": 0.28125
                },
                {
                    "name": "D#7",
                    "midi": 99,
                    "time": 220.96875000000023,
                    "velocity": 0.3858267716535433,
                    "duration": 0.09375
                },
                {
                    "name": "E7",
                    "midi": 100,
                    "time": 221.06250000000023,
                    "velocity": 0.3858267716535433,
                    "duration": 0.09375
                },
                {
                    "name": "D#7",
                    "midi": 99,
                    "time": 221.15625000000023,
                    "velocity": 0.3858267716535433,
                    "duration": 0.09375
                },
                {
                    "name": "C#6",
                    "midi": 85,
                    "time": 221.25000000000023,
                    "velocity": 0.49606299212598426,
                    "duration": 0.28125
                },
                {
                    "name": "C#7",
                    "midi": 97,
                    "time": 221.34375000000023,
                    "velocity": 0.3858267716535433,
                    "duration": 0.09375
                },
                {
                    "name": "D#7",
                    "midi": 99,
                    "time": 221.43750000000023,
                    "velocity": 0.3858267716535433,
                    "duration": 0.09375
                },
                {
                    "name": "C#7",
                    "midi": 97,
                    "time": 221.53125000000023,
                    "velocity": 0.3858267716535433,
                    "duration": 0.09375
                },
                {
                    "name": "C6",
                    "midi": 84,
                    "time": 221.62500000000023,
                    "velocity": 0.4881889763779528,
                    "duration": 0.28125
                },
                {
                    "name": "C7",
                    "midi": 96,
                    "time": 221.71875000000023,
                    "velocity": 0.3937007874015748,
                    "duration": 0.09375
                },
                {
                    "name": "C#7",
                    "midi": 97,
                    "time": 221.81250000000023,
                    "velocity": 0.3937007874015748,
                    "duration": 0.09375
                },
                {
                    "name": "C7",
                    "midi": 96,
                    "time": 221.90625000000023,
                    "velocity": 0.3937007874015748,
                    "duration": 0.09375
                },
                {
                    "name": "C6",
                    "midi": 84,
                    "time": 222.00000000000023,
                    "velocity": 0.47244094488188976,
                    "duration": 0.28125
                },
                {
                    "name": "C7",
                    "midi": 96,
                    "time": 222.09375000000023,
                    "velocity": 0.3700787401574803,
                    "duration": 0.09375
                },
                {
                    "name": "C#7",
                    "midi": 97,
                    "time": 222.18750000000023,
                    "velocity": 0.3700787401574803,
                    "duration": 0.09375
                },
                {
                    "name": "C7",
                    "midi": 96,
                    "time": 222.28125000000023,
                    "velocity": 0.3700787401574803,
                    "duration": 0.09375
                },
                {
                    "name": "A5",
                    "midi": 81,
                    "time": 222.37500000000023,
                    "velocity": 0.4645669291338583,
                    "duration": 0.28125
                },
                {
                    "name": "A6",
                    "midi": 93,
                    "time": 222.46875000000023,
                    "velocity": 0.36220472440944884,
                    "duration": 0.09375
                },
                {
                    "name": "B6",
                    "midi": 95,
                    "time": 222.56250000000023,
                    "velocity": 0.36220472440944884,
                    "duration": 0.09375
                },
                {
                    "name": "A6",
                    "midi": 93,
                    "time": 222.65625000000023,
                    "velocity": 0.36220472440944884,
                    "duration": 0.09375
                },
                {
                    "name": "G#5",
                    "midi": 80,
                    "time": 222.75000000000023,
                    "velocity": 0.4881889763779528,
                    "duration": 0.28125
                },
                {
                    "name": "G#6",
                    "midi": 92,
                    "time": 222.84375000000023,
                    "velocity": 0.36220472440944884,
                    "duration": 0.09375
                },
                {
                    "name": "A6",
                    "midi": 93,
                    "time": 222.93750000000023,
                    "velocity": 0.36220472440944884,
                    "duration": 0.09375
                },
                {
                    "name": "G#6",
                    "midi": 92,
                    "time": 223.03125000000023,
                    "velocity": 0.36220472440944884,
                    "duration": 0.09375
                },
                {
                    "name": "G#5",
                    "midi": 80,
                    "time": 223.12500000000023,
                    "velocity": 0.4645669291338583,
                    "duration": 0.28125
                },
                {
                    "name": "G#6",
                    "midi": 92,
                    "time": 223.21875000000023,
                    "velocity": 0.3543307086614173,
                    "duration": 0.09375
                },
                {
                    "name": "A6",
                    "midi": 93,
                    "time": 223.31250000000023,
                    "velocity": 0.3543307086614173,
                    "duration": 0.09375
                },
                {
                    "name": "G#6",
                    "midi": 92,
                    "time": 223.40625000000023,
                    "velocity": 0.3543307086614173,
                    "duration": 0.09375
                },
                {
                    "name": "F#5",
                    "midi": 78,
                    "time": 223.50000000000023,
                    "velocity": 0.44881889763779526,
                    "duration": 0.28125
                },
                {
                    "name": "F#6",
                    "midi": 90,
                    "time": 223.59375000000023,
                    "velocity": 0.3228346456692913,
                    "duration": 0.09375
                },
                {
                    "name": "G#6",
                    "midi": 92,
                    "time": 223.68750000000023,
                    "velocity": 0.3228346456692913,
                    "duration": 0.09375
                },
                {
                    "name": "F#6",
                    "midi": 90,
                    "time": 223.78125000000023,
                    "velocity": 0.3228346456692913,
                    "duration": 0.09375
                },
                {
                    "name": "E5",
                    "midi": 76,
                    "time": 223.87500000000023,
                    "velocity": 0.4330708661417323,
                    "duration": 0.375
                },
                {
                    "name": "E6",
                    "midi": 88,
                    "time": 223.96875000000023,
                    "velocity": 0.3464566929133858,
                    "duration": 0.09375
                },
                {
                    "name": "F#6",
                    "midi": 90,
                    "time": 224.06250000000023,
                    "velocity": 0.3464566929133858,
                    "duration": 0.09375
                },
                {
                    "name": "E6",
                    "midi": 88,
                    "time": 224.15625000000023,
                    "velocity": 0.3464566929133858,
                    "duration": 0.09375
                },
                {
                    "name": "C#5",
                    "midi": 73,
                    "time": 224.25000000000023,
                    "velocity": 0.4015748031496063,
                    "duration": 0.375
                },
                {
                    "name": "C#6",
                    "midi": 85,
                    "time": 224.34375000000023,
                    "velocity": 0.31496062992125984,
                    "duration": 0.09375
                },
                {
                    "name": "D#6",
                    "midi": 87,
                    "time": 224.43750000000023,
                    "velocity": 0.31496062992125984,
                    "duration": 0.09375
                },
                {
                    "name": "C#6",
                    "midi": 85,
                    "time": 224.53125000000023,
                    "velocity": 0.31496062992125984,
                    "duration": 0.09375
                },
                {
                    "name": "D#5",
                    "midi": 75,
                    "time": 224.62500000000023,
                    "velocity": 0.4251968503937008,
                    "duration": 0.375
                },
                {
                    "name": "D#6",
                    "midi": 87,
                    "time": 224.71875000000023,
                    "velocity": 0.3228346456692913,
                    "duration": 0.09375
                },
                {
                    "name": "E6",
                    "midi": 88,
                    "time": 224.81250000000023,
                    "velocity": 0.3228346456692913,
                    "duration": 0.09375
                },
                {
                    "name": "D#6",
                    "midi": 87,
                    "time": 224.90625000000023,
                    "velocity": 0.3228346456692913,
                    "duration": 0.09375
                },
                {
                    "name": "E5",
                    "midi": 76,
                    "time": 225.00000000000023,
                    "velocity": 0.4330708661417323,
                    "duration": 0.375
                },
                {
                    "name": "E6",
                    "midi": 88,
                    "time": 225.09375000000023,
                    "velocity": 0.3543307086614173,
                    "duration": 0.09375
                },
                {
                    "name": "F#6",
                    "midi": 90,
                    "time": 225.18750000000023,
                    "velocity": 0.3543307086614173,
                    "duration": 0.09375
                },
                {
                    "name": "E6",
                    "midi": 88,
                    "time": 225.28125000000023,
                    "velocity": 0.3543307086614173,
                    "duration": 0.09375
                },
                {
                    "name": "D#5",
                    "midi": 75,
                    "time": 225.37500000000023,
                    "velocity": 0.4094488188976378,
                    "duration": 0.375
                },
                {
                    "name": "D#6",
                    "midi": 87,
                    "time": 225.46875000000023,
                    "velocity": 0.31496062992125984,
                    "duration": 0.09375
                },
                {
                    "name": "E6",
                    "midi": 88,
                    "time": 225.56250000000023,
                    "velocity": 0.31496062992125984,
                    "duration": 0.09375
                },
                {
                    "name": "D#6",
                    "midi": 87,
                    "time": 225.65625000000023,
                    "velocity": 0.31496062992125984,
                    "duration": 0.09375
                },
                {
                    "name": "C#5",
                    "midi": 73,
                    "time": 225.75000000000023,
                    "velocity": 0.3858267716535433,
                    "duration": 0.375
                },
                {
                    "name": "C#6",
                    "midi": 85,
                    "time": 225.84375000000023,
                    "velocity": 0.29133858267716534,
                    "duration": 0.09375
                },
                {
                    "name": "D#6",
                    "midi": 87,
                    "time": 225.93750000000023,
                    "velocity": 0.29133858267716534,
                    "duration": 0.09375
                },
                {
                    "name": "C#6",
                    "midi": 85,
                    "time": 226.03125000000023,
                    "velocity": 0.29133858267716534,
                    "duration": 0.09375
                },
                {
                    "name": "D#5",
                    "midi": 75,
                    "time": 226.11875000000023,
                    "velocity": 0.33858267716535434,
                    "duration": 0.09375
                },
                {
                    "name": "D#6",
                    "midi": 87,
                    "time": 226.22031250000023,
                    "velocity": 0.33858267716535434,
                    "duration": 0.09375
                },
                {
                    "name": "E5",
                    "midi": 76,
                    "time": 226.31875000000022,
                    "velocity": 0.3464566929133858,
                    "duration": 0.09375
                },
                {
                    "name": "F5",
                    "midi": 77,
                    "time": 226.41406250000023,
                    "velocity": 0.3464566929133858,
                    "duration": 0.09375
                },
                {
                    "name": "F#5",
                    "midi": 78,
                    "time": 226.49531250000024,
                    "velocity": 0.3543307086614173,
                    "duration": 0.09375
                },
                {
                    "name": "G5",
                    "midi": 79,
                    "time": 226.59843750000024,
                    "velocity": 0.3543307086614173,
                    "duration": 0.09375
                },
                {
                    "name": "G#5",
                    "midi": 80,
                    "time": 226.69062500000024,
                    "velocity": 0.3543307086614173,
                    "duration": 0.09375
                },
                {
                    "name": "A5",
                    "midi": 81,
                    "time": 226.78437500000024,
                    "velocity": 0.3543307086614173,
                    "duration": 0.09375
                },
                {
                    "name": "A#5",
                    "midi": 82,
                    "time": 226.88281250000023,
                    "velocity": 0.36220472440944884,
                    "duration": 0.09375
                },
                {
                    "name": "B5",
                    "midi": 83,
                    "time": 226.96875000000023,
                    "velocity": 0.3700787401574803,
                    "duration": 0.09375
                },
                {
                    "name": "C6",
                    "midi": 84,
                    "time": 227.07031250000023,
                    "velocity": 0.3700787401574803,
                    "duration": 0.09375
                },
                {
                    "name": "C#6",
                    "midi": 85,
                    "time": 227.15937500000024,
                    "velocity": 0.3858267716535433,
                    "duration": 0.09375
                },
                {
                    "name": "D6",
                    "midi": 86,
                    "time": 227.24375000000023,
                    "velocity": 0.3858267716535433,
                    "duration": 0.09375
                },
                {
                    "name": "D#6",
                    "midi": 87,
                    "time": 227.34531250000023,
                    "velocity": 0.3937007874015748,
                    "duration": 0.09375
                },
                {
                    "name": "E6",
                    "midi": 88,
                    "time": 227.43906250000023,
                    "velocity": 0.3937007874015748,
                    "duration": 0.09375
                },
                {
                    "name": "F6",
                    "midi": 89,
                    "time": 227.52968750000022,
                    "velocity": 0.4015748031496063,
                    "duration": 0.09375
                },
                {
                    "name": "F#6",
                    "midi": 90,
                    "time": 227.63281250000023,
                    "velocity": 0.4094488188976378,
                    "duration": 0.09375
                },
                {
                    "name": "G6",
                    "midi": 91,
                    "time": 227.71875000000023,
                    "velocity": 0.4094488188976378,
                    "duration": 0.09375
                },
                {
                    "name": "G#6",
                    "midi": 92,
                    "time": 227.81406250000023,
                    "velocity": 0.4251968503937008,
                    "duration": 0.09375
                },
                {
                    "name": "A6",
                    "midi": 93,
                    "time": 227.90625000000023,
                    "velocity": 0.4251968503937008,
                    "duration": 0.09375
                },
                {
                    "name": "A#6",
                    "midi": 94,
                    "time": 227.99531250000024,
                    "velocity": 0.4251968503937008,
                    "duration": 0.09375
                },
                {
                    "name": "B6",
                    "midi": 95,
                    "time": 228.09218750000025,
                    "velocity": 0.4251968503937008,
                    "duration": 0.09375
                },
                {
                    "name": "C7",
                    "midi": 96,
                    "time": 228.18437500000024,
                    "velocity": 0.4330708661417323,
                    "duration": 0.09375
                },
                {
                    "name": "C#7",
                    "midi": 97,
                    "time": 228.27343750000026,
                    "velocity": 0.4409448818897638,
                    "duration": 0.09375
                },
                {
                    "name": "D7",
                    "midi": 98,
                    "time": 228.37968750000024,
                    "velocity": 0.44881889763779526,
                    "duration": 0.109375
                },
                {
                    "name": "D#7",
                    "midi": 99,
                    "time": 228.47968750000024,
                    "velocity": 0.4645669291338583,
                    "duration": 0.10937500000002842
                },
                {
                    "name": "F#7",
                    "midi": 102,
                    "time": 228.58593750000026,
                    "velocity": 0.49606299212598426,
                    "duration": 0.1015625
                },
                {
                    "name": "E7",
                    "midi": 100,
                    "time": 228.69375000000025,
                    "velocity": 0.4881889763779528,
                    "duration": 0.1015625
                },
                {
                    "name": "C#7",
                    "midi": 97,
                    "time": 228.79843750000026,
                    "velocity": 0.48031496062992124,
                    "duration": 0.1015625
                },
                {
                    "name": "A#6",
                    "midi": 94,
                    "time": 228.89062500000026,
                    "velocity": 0.47244094488188976,
                    "duration": 0.1015625
                },
                {
                    "name": "G6",
                    "midi": 91,
                    "time": 228.99531250000027,
                    "velocity": 0.44881889763779526,
                    "duration": 0.1015625
                },
                {
                    "name": "D6",
                    "midi": 86,
                    "time": 229.09531250000026,
                    "velocity": 0.4409448818897638,
                    "duration": 0.1015625
                },
                {
                    "name": "D#6",
                    "midi": 87,
                    "time": 229.20625000000027,
                    "velocity": 0.4330708661417323,
                    "duration": 0.1015625
                },
                {
                    "name": "F#6",
                    "midi": 90,
                    "time": 229.30312500000028,
                    "velocity": 0.48031496062992124,
                    "duration": 0.1015625
                },
                {
                    "name": "E6",
                    "midi": 88,
                    "time": 229.4078125000003,
                    "velocity": 0.47244094488188976,
                    "duration": 0.1015625
                },
                {
                    "name": "C#6",
                    "midi": 85,
                    "time": 229.5109375000003,
                    "velocity": 0.4645669291338583,
                    "duration": 0.1015625
                },
                {
                    "name": "A#5",
                    "midi": 82,
                    "time": 229.6078125000003,
                    "velocity": 0.44881889763779526,
                    "duration": 0.1015625
                },
                {
                    "name": "G5",
                    "midi": 79,
                    "time": 229.7140625000003,
                    "velocity": 0.47244094488188976,
                    "duration": 0.1015625
                },
                {
                    "name": "E5",
                    "midi": 76,
                    "time": 229.8109375000003,
                    "velocity": 0.4330708661417323,
                    "duration": 0.1015625
                },
                {
                    "name": "C#5",
                    "midi": 73,
                    "time": 229.9203125000003,
                    "velocity": 0.4251968503937008,
                    "duration": 0.1015625
                },
                {
                    "name": "A#4",
                    "midi": 70,
                    "time": 230.01718750000032,
                    "velocity": 0.4015748031496063,
                    "duration": 0.10156249999997158
                },
                {
                    "name": "G4",
                    "midi": 67,
                    "time": 230.1125000000003,
                    "velocity": 0.3858267716535433,
                    "duration": 0.1015625
                },
                {
                    "name": "E4",
                    "midi": 64,
                    "time": 230.22656250000028,
                    "velocity": 0.3700787401574803,
                    "duration": 0.1015625
                },
                {
                    "name": "C#4",
                    "midi": 61,
                    "time": 230.32656250000028,
                    "velocity": 0.3543307086614173,
                    "duration": 0.1015625
                },
                {
                    "name": "A#3",
                    "midi": 58,
                    "time": 230.42031250000028,
                    "velocity": 0.3464566929133858,
                    "duration": 0.1015625
                },
                {
                    "name": "G3",
                    "midi": 55,
                    "time": 230.53125000000028,
                    "velocity": 0.3228346456692913,
                    "duration": 0.1015625
                },
                {
                    "name": "B3",
                    "midi": 59,
                    "time": 231.00000000000028,
                    "velocity": 0.3228346456692913,
                    "duration": 0.125
                },
                {
                    "name": "D#4",
                    "midi": 63,
                    "time": 231.12500000000028,
                    "velocity": 0.3228346456692913,
                    "duration": 0.125
                },
                {
                    "name": "G#4",
                    "midi": 68,
                    "time": 231.25000000000028,
                    "velocity": 0.3228346456692913,
                    "duration": 0.125
                },
                {
                    "name": "B4",
                    "midi": 71,
                    "time": 231.75000000000028,
                    "velocity": 0.3228346456692913,
                    "duration": 0.125
                },
                {
                    "name": "D#5",
                    "midi": 75,
                    "time": 231.87500000000028,
                    "velocity": 0.3228346456692913,
                    "duration": 0.125
                },
                {
                    "name": "B5",
                    "midi": 83,
                    "time": 232.00000000000028,
                    "velocity": 0.3543307086614173,
                    "duration": 0.125
                },
                {
                    "name": "G#5",
                    "midi": 80,
                    "time": 232.12500000000028,
                    "velocity": 0.31496062992125984,
                    "duration": 0.375
                },
                {
                    "name": "B5",
                    "midi": 83,
                    "time": 232.68750000000028,
                    "velocity": 0.29133858267716534,
                    "duration": 0.140625
                },
                {
                    "name": "B4",
                    "midi": 71,
                    "time": 232.68750000000028,
                    "velocity": 0.29133858267716534,
                    "duration": 0.140625
                },
                {
                    "name": "B5",
                    "midi": 83,
                    "time": 232.87500000000028,
                    "velocity": 0.3228346456692913,
                    "duration": 0.140625
                },
                {
                    "name": "B4",
                    "midi": 71,
                    "time": 232.87500000000028,
                    "velocity": 0.3228346456692913,
                    "duration": 0.140625
                },
                {
                    "name": "B5",
                    "midi": 83,
                    "time": 233.06250000000028,
                    "velocity": 0.3543307086614173,
                    "duration": 0.140625
                },
                {
                    "name": "B4",
                    "midi": 71,
                    "time": 233.06250000000028,
                    "velocity": 0.3543307086614173,
                    "duration": 0.140625
                },
                {
                    "name": "B4",
                    "midi": 71,
                    "time": 233.25000000000028,
                    "velocity": 0.3700787401574803,
                    "duration": 0.140625
                },
                {
                    "name": "B5",
                    "midi": 83,
                    "time": 233.25000000000028,
                    "velocity": 0.3700787401574803,
                    "duration": 0.140625
                },
                {
                    "name": "B5",
                    "midi": 83,
                    "time": 233.43750000000028,
                    "velocity": 0.4015748031496063,
                    "duration": 0.140625
                },
                {
                    "name": "B4",
                    "midi": 71,
                    "time": 233.43750000000028,
                    "velocity": 0.4015748031496063,
                    "duration": 0.140625
                },
                {
                    "name": "B5",
                    "midi": 83,
                    "time": 233.62500000000028,
                    "velocity": 0.5196850393700787,
                    "duration": 0.140625
                },
                {
                    "name": "F#4",
                    "midi": 66,
                    "time": 233.81250000000028,
                    "velocity": 0.3858267716535433,
                    "duration": 0.140625
                },
                {
                    "name": "B4",
                    "midi": 71,
                    "time": 234.00000000000028,
                    "velocity": 0.3937007874015748,
                    "duration": 0.140625
                },
                {
                    "name": "F#5",
                    "midi": 78,
                    "time": 234.00000000000028,
                    "velocity": 0.47244094488188976,
                    "duration": 0.140625
                },
                {
                    "name": "F#4",
                    "midi": 66,
                    "time": 234.18750000000028,
                    "velocity": 0.3858267716535433,
                    "duration": 0.140625
                },
                {
                    "name": "B5",
                    "midi": 83,
                    "time": 234.37500000000028,
                    "velocity": 0.5039370078740157,
                    "duration": 0.140625
                },
                {
                    "name": "F#4",
                    "midi": 66,
                    "time": 234.56250000000028,
                    "velocity": 0.3858267716535433,
                    "duration": 0.140625
                },
                {
                    "name": "C#6",
                    "midi": 85,
                    "time": 234.75000000000028,
                    "velocity": 0.5590551181102362,
                    "duration": 0.140625
                },
                {
                    "name": "F#4",
                    "midi": 66,
                    "time": 234.93750000000028,
                    "velocity": 0.3858267716535433,
                    "duration": 0.140625
                },
                {
                    "name": "C#5",
                    "midi": 73,
                    "time": 235.12500000000028,
                    "velocity": 0.4251968503937008,
                    "duration": 0.140625
                },
                {
                    "name": "F#5",
                    "midi": 78,
                    "time": 235.12500000000028,
                    "velocity": 0.5039370078740157,
                    "duration": 0.140625
                },
                {
                    "name": "F#4",
                    "midi": 66,
                    "time": 235.31250000000028,
                    "velocity": 0.3858267716535433,
                    "duration": 0.140625
                },
                {
                    "name": "C#6",
                    "midi": 85,
                    "time": 235.50000000000028,
                    "velocity": 0.5511811023622047,
                    "duration": 0.140625
                },
                {
                    "name": "F#4",
                    "midi": 66,
                    "time": 235.68750000000028,
                    "velocity": 0.3937007874015748,
                    "duration": 0.140625
                },
                {
                    "name": "D#6",
                    "midi": 87,
                    "time": 235.87500000000028,
                    "velocity": 0.5748031496062992,
                    "duration": 0.1875
                },
                {
                    "name": "F#4",
                    "midi": 66,
                    "time": 236.06250000000028,
                    "velocity": 0.47244094488188976,
                    "duration": 0.140625
                },
                {
                    "name": "D#5",
                    "midi": 75,
                    "time": 236.25000000000028,
                    "velocity": 0.47244094488188976,
                    "duration": 0.140625
                },
                {
                    "name": "B5",
                    "midi": 83,
                    "time": 236.43750000000028,
                    "velocity": 0.4645669291338583,
                    "duration": 0.140625
                },
                {
                    "name": "D#6",
                    "midi": 87,
                    "time": 236.62500000000028,
                    "velocity": 0.44881889763779526,
                    "duration": 0.140625
                },
                {
                    "name": "B6",
                    "midi": 95,
                    "time": 236.81250000000028,
                    "velocity": 0.4881889763779528,
                    "duration": 0.140625
                },
                {
                    "name": "D#6",
                    "midi": 87,
                    "time": 237.18750000000028,
                    "velocity": 0.29133858267716534,
                    "duration": 0.140625
                },
                {
                    "name": "D#5",
                    "midi": 75,
                    "time": 237.18750000000028,
                    "velocity": 0.29133858267716534,
                    "duration": 0.140625
                },
                {
                    "name": "D#6",
                    "midi": 87,
                    "time": 237.37500000000028,
                    "velocity": 0.3228346456692913,
                    "duration": 0.140625
                },
                {
                    "name": "D#5",
                    "midi": 75,
                    "time": 237.37500000000028,
                    "velocity": 0.3228346456692913,
                    "duration": 0.140625
                },
                {
                    "name": "D#6",
                    "midi": 87,
                    "time": 237.56250000000028,
                    "velocity": 0.3543307086614173,
                    "duration": 0.140625
                },
                {
                    "name": "D#5",
                    "midi": 75,
                    "time": 237.56250000000028,
                    "velocity": 0.3543307086614173,
                    "duration": 0.140625
                },
                {
                    "name": "D#6",
                    "midi": 87,
                    "time": 237.75000000000028,
                    "velocity": 0.3700787401574803,
                    "duration": 0.140625
                },
                {
                    "name": "D#5",
                    "midi": 75,
                    "time": 237.75000000000028,
                    "velocity": 0.3700787401574803,
                    "duration": 0.140625
                },
                {
                    "name": "D#6",
                    "midi": 87,
                    "time": 237.93750000000028,
                    "velocity": 0.4015748031496063,
                    "duration": 0.140625
                },
                {
                    "name": "D#5",
                    "midi": 75,
                    "time": 237.93750000000028,
                    "velocity": 0.4015748031496063,
                    "duration": 0.140625
                },
                {
                    "name": "D#6",
                    "midi": 87,
                    "time": 238.12500000000028,
                    "velocity": 0.5511811023622047,
                    "duration": 0.140625
                },
                {
                    "name": "A#4",
                    "midi": 70,
                    "time": 238.31250000000028,
                    "velocity": 0.3858267716535433,
                    "duration": 0.140625
                },
                {
                    "name": "D#5",
                    "midi": 75,
                    "time": 238.50000000000028,
                    "velocity": 0.3937007874015748,
                    "duration": 0.140625
                },
                {
                    "name": "A#5",
                    "midi": 82,
                    "time": 238.50000000000028,
                    "velocity": 0.47244094488188976,
                    "duration": 0.140625
                },
                {
                    "name": "A#4",
                    "midi": 70,
                    "time": 238.68750000000028,
                    "velocity": 0.3858267716535433,
                    "duration": 0.140625
                },
                {
                    "name": "D#6",
                    "midi": 87,
                    "time": 238.87500000000028,
                    "velocity": 0.5511811023622047,
                    "duration": 0.140625
                },
                {
                    "name": "A#4",
                    "midi": 70,
                    "time": 239.06250000000028,
                    "velocity": 0.3858267716535433,
                    "duration": 0.140625
                },
                {
                    "name": "F6",
                    "midi": 89,
                    "time": 239.25000000000028,
                    "velocity": 0.5984251968503937,
                    "duration": 0.140625
                },
                {
                    "name": "A#4",
                    "midi": 70,
                    "time": 239.43750000000028,
                    "velocity": 0.3858267716535433,
                    "duration": 0.140625
                },
                {
                    "name": "F5",
                    "midi": 77,
                    "time": 239.62500000000028,
                    "velocity": 0.4251968503937008,
                    "duration": 0.140625
                },
                {
                    "name": "A#5",
                    "midi": 82,
                    "time": 239.62500000000028,
                    "velocity": 0.5039370078740157,
                    "duration": 0.140625
                },
                {
                    "name": "A#4",
                    "midi": 70,
                    "time": 239.81250000000028,
                    "velocity": 0.3858267716535433,
                    "duration": 0.140625
                },
                {
                    "name": "F6",
                    "midi": 89,
                    "time": 240.00000000000028,
                    "velocity": 0.5669291338582677,
                    "duration": 0.140625
                },
                {
                    "name": "A#4",
                    "midi": 70,
                    "time": 240.18750000000028,
                    "velocity": 0.3937007874015748,
                    "duration": 0.140625
                },
                {
                    "name": "F#6",
                    "midi": 90,
                    "time": 240.37500000000028,
                    "velocity": 0.6220472440944882,
                    "duration": 0.1875
                },
                {
                    "name": "A#4",
                    "midi": 70,
                    "time": 240.56250000000028,
                    "velocity": 0.47244094488188976,
                    "duration": 0.140625
                },
                {
                    "name": "F#5",
                    "midi": 78,
                    "time": 240.75000000000028,
                    "velocity": 0.47244094488188976,
                    "duration": 0.140625
                },
                {
                    "name": "D#6",
                    "midi": 87,
                    "time": 240.93750000000028,
                    "velocity": 0.4645669291338583,
                    "duration": 0.140625
                },
                {
                    "name": "F#6",
                    "midi": 90,
                    "time": 241.12500000000028,
                    "velocity": 0.4645669291338583,
                    "duration": 0.140625
                },
                {
                    "name": "D#7",
                    "midi": 99,
                    "time": 241.31250000000028,
                    "velocity": 0.4881889763779528,
                    "duration": 0.140625
                },
                {
                    "name": "F#6",
                    "midi": 90,
                    "time": 241.68750000000028,
                    "velocity": 0.29133858267716534,
                    "duration": 0.140625
                },
                {
                    "name": "F#5",
                    "midi": 78,
                    "time": 241.68750000000028,
                    "velocity": 0.29133858267716534,
                    "duration": 0.140625
                },
                {
                    "name": "F#6",
                    "midi": 90,
                    "time": 241.87500000000028,
                    "velocity": 0.3228346456692913,
                    "duration": 0.140625
                },
                {
                    "name": "F#5",
                    "midi": 78,
                    "time": 241.87500000000028,
                    "velocity": 0.3228346456692913,
                    "duration": 0.140625
                },
                {
                    "name": "F#6",
                    "midi": 90,
                    "time": 242.06250000000028,
                    "velocity": 0.3543307086614173,
                    "duration": 0.140625
                },
                {
                    "name": "F#5",
                    "midi": 78,
                    "time": 242.06250000000028,
                    "velocity": 0.3543307086614173,
                    "duration": 0.140625
                },
                {
                    "name": "F#6",
                    "midi": 90,
                    "time": 242.25000000000028,
                    "velocity": 0.3700787401574803,
                    "duration": 0.140625
                },
                {
                    "name": "F#5",
                    "midi": 78,
                    "time": 242.25000000000028,
                    "velocity": 0.3700787401574803,
                    "duration": 0.140625
                },
                {
                    "name": "F#6",
                    "midi": 90,
                    "time": 242.43750000000028,
                    "velocity": 0.4015748031496063,
                    "duration": 0.140625
                },
                {
                    "name": "F#5",
                    "midi": 78,
                    "time": 242.43750000000028,
                    "velocity": 0.4015748031496063,
                    "duration": 0.140625
                },
                {
                    "name": "F#6",
                    "midi": 90,
                    "time": 242.62500000000028,
                    "velocity": 0.5511811023622047,
                    "duration": 0.140625
                },
                {
                    "name": "C#5",
                    "midi": 73,
                    "time": 242.81250000000028,
                    "velocity": 0.3858267716535433,
                    "duration": 0.140625
                },
                {
                    "name": "F#5",
                    "midi": 78,
                    "time": 243.00000000000028,
                    "velocity": 0.3937007874015748,
                    "duration": 0.140625
                },
                {
                    "name": "C#6",
                    "midi": 85,
                    "time": 243.00000000000028,
                    "velocity": 0.47244094488188976,
                    "duration": 0.140625
                },
                {
                    "name": "C#5",
                    "midi": 73,
                    "time": 243.18750000000028,
                    "velocity": 0.3858267716535433,
                    "duration": 0.140625
                },
                {
                    "name": "F#6",
                    "midi": 90,
                    "time": 243.37500000000028,
                    "velocity": 0.5511811023622047,
                    "duration": 0.140625
                },
                {
                    "name": "C#5",
                    "midi": 73,
                    "time": 243.56250000000028,
                    "velocity": 0.3858267716535433,
                    "duration": 0.140625
                },
                {
                    "name": "G#6",
                    "midi": 92,
                    "time": 243.75000000000028,
                    "velocity": 0.5984251968503937,
                    "duration": 0.140625
                },
                {
                    "name": "C#5",
                    "midi": 73,
                    "time": 243.93750000000028,
                    "velocity": 0.3858267716535433,
                    "duration": 0.140625
                },
                {
                    "name": "G#5",
                    "midi": 80,
                    "time": 244.12500000000028,
                    "velocity": 0.4251968503937008,
                    "duration": 0.140625
                },
                {
                    "name": "C#6",
                    "midi": 85,
                    "time": 244.12500000000028,
                    "velocity": 0.5039370078740157,
                    "duration": 0.140625
                },
                {
                    "name": "C#5",
                    "midi": 73,
                    "time": 244.31250000000028,
                    "velocity": 0.3858267716535433,
                    "duration": 0.140625
                },
                {
                    "name": "G#6",
                    "midi": 92,
                    "time": 244.50000000000028,
                    "velocity": 0.5669291338582677,
                    "duration": 0.140625
                },
                {
                    "name": "C#5",
                    "midi": 73,
                    "time": 244.68750000000028,
                    "velocity": 0.3937007874015748,
                    "duration": 0.140625
                },
                {
                    "name": "A#6",
                    "midi": 94,
                    "time": 244.87500000000028,
                    "velocity": 0.3464566929133858,
                    "duration": 0.140625
                },
                {
                    "name": "F#6",
                    "midi": 90,
                    "time": 244.87500000000028,
                    "velocity": 0.3464566929133858,
                    "duration": 0.140625
                },
                {
                    "name": "C#6",
                    "midi": 85,
                    "time": 244.87500000000028,
                    "velocity": 0.3464566929133858,
                    "duration": 0.140625
                },
                {
                    "name": "B6",
                    "midi": 95,
                    "time": 245.06250000000028,
                    "velocity": 0.3700787401574803,
                    "duration": 0.140625
                },
                {
                    "name": "G#6",
                    "midi": 92,
                    "time": 245.06250000000028,
                    "velocity": 0.3700787401574803,
                    "duration": 0.140625
                },
                {
                    "name": "C#6",
                    "midi": 85,
                    "time": 245.06250000000028,
                    "velocity": 0.3700787401574803,
                    "duration": 0.140625
                },
                {
                    "name": "C#7",
                    "midi": 97,
                    "time": 245.25000000000028,
                    "velocity": 0.4094488188976378,
                    "duration": 0.140625
                },
                {
                    "name": "A#6",
                    "midi": 94,
                    "time": 245.25000000000028,
                    "velocity": 0.4094488188976378,
                    "duration": 0.140625
                },
                {
                    "name": "C#6",
                    "midi": 85,
                    "time": 245.25000000000028,
                    "velocity": 0.4094488188976378,
                    "duration": 0.140625
                },
                {
                    "name": "C#7",
                    "midi": 97,
                    "time": 245.43750000000028,
                    "velocity": 0.4094488188976378,
                    "duration": 0.140625
                },
                {
                    "name": "A#6",
                    "midi": 94,
                    "time": 245.43750000000028,
                    "velocity": 0.4094488188976378,
                    "duration": 0.140625
                },
                {
                    "name": "C#6",
                    "midi": 85,
                    "time": 245.43750000000028,
                    "velocity": 0.4094488188976378,
                    "duration": 0.140625
                },
                {
                    "name": "B6",
                    "midi": 95,
                    "time": 245.62500000000028,
                    "velocity": 0.3937007874015748,
                    "duration": 0.140625
                },
                {
                    "name": "G#6",
                    "midi": 92,
                    "time": 245.62500000000028,
                    "velocity": 0.3937007874015748,
                    "duration": 0.140625
                },
                {
                    "name": "C#6",
                    "midi": 85,
                    "time": 245.62500000000028,
                    "velocity": 0.3937007874015748,
                    "duration": 0.140625
                },
                {
                    "name": "A#6",
                    "midi": 94,
                    "time": 245.81250000000028,
                    "velocity": 0.3700787401574803,
                    "duration": 0.140625
                },
                {
                    "name": "F#6",
                    "midi": 90,
                    "time": 245.81250000000028,
                    "velocity": 0.3700787401574803,
                    "duration": 0.140625
                },
                {
                    "name": "C#6",
                    "midi": 85,
                    "time": 245.81250000000028,
                    "velocity": 0.3700787401574803,
                    "duration": 0.140625
                },
                {
                    "name": "G#6",
                    "midi": 92,
                    "time": 246.00000000000028,
                    "velocity": 0.36220472440944884,
                    "duration": 0.140625
                },
                {
                    "name": "D#6",
                    "midi": 87,
                    "time": 246.00000000000028,
                    "velocity": 0.36220472440944884,
                    "duration": 0.140625
                },
                {
                    "name": "B5",
                    "midi": 83,
                    "time": 246.00000000000028,
                    "velocity": 0.36220472440944884,
                    "duration": 0.140625
                },
                {
                    "name": "A#6",
                    "midi": 94,
                    "time": 246.18750000000028,
                    "velocity": 0.3937007874015748,
                    "duration": 0.140625
                },
                {
                    "name": "D#6",
                    "midi": 87,
                    "time": 246.18750000000028,
                    "velocity": 0.3937007874015748,
                    "duration": 0.140625
                },
                {
                    "name": "C#6",
                    "midi": 85,
                    "time": 246.18750000000028,
                    "velocity": 0.3937007874015748,
                    "duration": 0.140625
                },
                {
                    "name": "D#6",
                    "midi": 87,
                    "time": 246.37500000000028,
                    "velocity": 0.4251968503937008,
                    "duration": 0.140625
                },
                {
                    "name": "B6",
                    "midi": 95,
                    "time": 246.37500000000028,
                    "velocity": 0.4251968503937008,
                    "duration": 0.140625
                },
                {
                    "name": "B6",
                    "midi": 95,
                    "time": 246.56250000000028,
                    "velocity": 0.4251968503937008,
                    "duration": 0.140625
                },
                {
                    "name": "D#6",
                    "midi": 87,
                    "time": 246.56250000000028,
                    "velocity": 0.4251968503937008,
                    "duration": 0.140625
                },
                {
                    "name": "A#6",
                    "midi": 94,
                    "time": 246.75000000000028,
                    "velocity": 0.3700787401574803,
                    "duration": 0.140625
                },
                {
                    "name": "D#6",
                    "midi": 87,
                    "time": 246.75000000000028,
                    "velocity": 0.3700787401574803,
                    "duration": 0.140625
                },
                {
                    "name": "C#6",
                    "midi": 85,
                    "time": 246.75000000000028,
                    "velocity": 0.3700787401574803,
                    "duration": 0.140625
                },
                {
                    "name": "G#6",
                    "midi": 92,
                    "time": 246.93750000000028,
                    "velocity": 0.3543307086614173,
                    "duration": 0.140625
                },
                {
                    "name": "D#6",
                    "midi": 87,
                    "time": 246.93750000000028,
                    "velocity": 0.3543307086614173,
                    "duration": 0.140625
                },
                {
                    "name": "B5",
                    "midi": 83,
                    "time": 246.93750000000028,
                    "velocity": 0.3543307086614173,
                    "duration": 0.140625
                },
                {
                    "name": "F#6",
                    "midi": 90,
                    "time": 247.12500000000028,
                    "velocity": 0.3543307086614173,
                    "duration": 0.140625
                },
                {
                    "name": "C#6",
                    "midi": 85,
                    "time": 247.12500000000028,
                    "velocity": 0.3543307086614173,
                    "duration": 0.140625
                },
                {
                    "name": "A#5",
                    "midi": 82,
                    "time": 247.12500000000028,
                    "velocity": 0.3543307086614173,
                    "duration": 0.140625
                },
                {
                    "name": "B5",
                    "midi": 83,
                    "time": 247.31250000000028,
                    "velocity": 0.3700787401574803,
                    "duration": 0.140625
                },
                {
                    "name": "C#6",
                    "midi": 85,
                    "time": 247.31250000000028,
                    "velocity": 0.3700787401574803,
                    "duration": 0.140625
                },
                {
                    "name": "G#6",
                    "midi": 92,
                    "time": 247.31250000000028,
                    "velocity": 0.3700787401574803,
                    "duration": 0.140625
                },
                {
                    "name": "A#6",
                    "midi": 94,
                    "time": 247.50000000000028,
                    "velocity": 0.4094488188976378,
                    "duration": 0.140625
                },
                {
                    "name": "C#6",
                    "midi": 85,
                    "time": 247.50000000000028,
                    "velocity": 0.4094488188976378,
                    "duration": 0.140625
                },
                {
                    "name": "C#6",
                    "midi": 85,
                    "time": 247.68750000000028,
                    "velocity": 0.4094488188976378,
                    "duration": 0.140625
                },
                {
                    "name": "A#6",
                    "midi": 94,
                    "time": 247.68750000000028,
                    "velocity": 0.4094488188976378,
                    "duration": 0.140625
                },
                {
                    "name": "C#6",
                    "midi": 85,
                    "time": 247.87500000000028,
                    "velocity": 0.3858267716535433,
                    "duration": 0.140625
                },
                {
                    "name": "B5",
                    "midi": 83,
                    "time": 247.87500000000028,
                    "velocity": 0.3858267716535433,
                    "duration": 0.140625
                },
                {
                    "name": "G#6",
                    "midi": 92,
                    "time": 247.87500000000028,
                    "velocity": 0.3858267716535433,
                    "duration": 0.140625
                },
                {
                    "name": "F#6",
                    "midi": 90,
                    "time": 248.06250000000028,
                    "velocity": 0.36220472440944884,
                    "duration": 0.140625
                },
                {
                    "name": "C#6",
                    "midi": 85,
                    "time": 248.06250000000028,
                    "velocity": 0.36220472440944884,
                    "duration": 0.140625
                },
                {
                    "name": "A#5",
                    "midi": 82,
                    "time": 248.06250000000028,
                    "velocity": 0.36220472440944884,
                    "duration": 0.140625
                },
                {
                    "name": "G#5",
                    "midi": 80,
                    "time": 248.25000000000028,
                    "velocity": 0.3543307086614173,
                    "duration": 0.140625
                },
                {
                    "name": "C#6",
                    "midi": 85,
                    "time": 248.25000000000028,
                    "velocity": 0.3543307086614173,
                    "duration": 0.140625
                },
                {
                    "name": "F6",
                    "midi": 89,
                    "time": 248.25000000000028,
                    "velocity": 0.3543307086614173,
                    "duration": 0.140625
                },
                {
                    "name": "F#6",
                    "midi": 90,
                    "time": 248.43750000000028,
                    "velocity": 0.36220472440944884,
                    "duration": 0.140625
                },
                {
                    "name": "C#6",
                    "midi": 85,
                    "time": 248.43750000000028,
                    "velocity": 0.36220472440944884,
                    "duration": 0.140625
                },
                {
                    "name": "A#5",
                    "midi": 82,
                    "time": 248.43750000000028,
                    "velocity": 0.36220472440944884,
                    "duration": 0.140625
                },
                {
                    "name": "B5",
                    "midi": 83,
                    "time": 248.62500000000028,
                    "velocity": 0.3937007874015748,
                    "duration": 0.140625
                },
                {
                    "name": "C#6",
                    "midi": 85,
                    "time": 248.62500000000028,
                    "velocity": 0.3937007874015748,
                    "duration": 0.140625
                },
                {
                    "name": "G#6",
                    "midi": 92,
                    "time": 248.62500000000028,
                    "velocity": 0.3937007874015748,
                    "duration": 0.140625
                },
                {
                    "name": "B5",
                    "midi": 83,
                    "time": 248.81250000000028,
                    "velocity": 0.3937007874015748,
                    "duration": 0.140625
                },
                {
                    "name": "C#6",
                    "midi": 85,
                    "time": 248.81250000000028,
                    "velocity": 0.3937007874015748,
                    "duration": 0.140625
                },
                {
                    "name": "G#6",
                    "midi": 92,
                    "time": 248.81250000000028,
                    "velocity": 0.3937007874015748,
                    "duration": 0.140625
                },
                {
                    "name": "F#5",
                    "midi": 78,
                    "time": 249.00000000000028,
                    "velocity": 0.3700787401574803,
                    "duration": 0.140625
                },
                {
                    "name": "D#6",
                    "midi": 87,
                    "time": 249.00000000000028,
                    "velocity": 0.3700787401574803,
                    "duration": 0.140625
                },
                {
                    "name": "C#6",
                    "midi": 85,
                    "time": 249.00000000000028,
                    "velocity": 0.3700787401574803,
                    "duration": 0.140625
                },
                {
                    "name": "F6",
                    "midi": 89,
                    "time": 249.18750000000028,
                    "velocity": 0.3543307086614173,
                    "duration": 0.140625
                },
                {
                    "name": "C#6",
                    "midi": 85,
                    "time": 249.18750000000028,
                    "velocity": 0.3543307086614173,
                    "duration": 0.140625
                },
                {
                    "name": "G#5",
                    "midi": 80,
                    "time": 249.18750000000028,
                    "velocity": 0.3543307086614173,
                    "duration": 0.140625
                },
                {
                    "name": "F#6",
                    "midi": 90,
                    "time": 249.37500000000028,
                    "velocity": 0.3937007874015748,
                    "duration": 0.375
                },
                {
                    "name": "C#6",
                    "midi": 85,
                    "time": 249.37500000000028,
                    "velocity": 0.3937007874015748,
                    "duration": 0.375
                },
                {
                    "name": "F#5",
                    "midi": 78,
                    "time": 249.37500000000028,
                    "velocity": 0.3937007874015748,
                    "duration": 0.375
                },
                {
                    "name": "G#3",
                    "midi": 56,
                    "time": 250.87500000000028,
                    "velocity": 0.5039370078740157,
                    "duration": 0.140625
                },
                {
                    "name": "G#4",
                    "midi": 68,
                    "time": 250.87500000000028,
                    "velocity": 0.5039370078740157,
                    "duration": 0.140625
                },
                {
                    "name": "G#3",
                    "midi": 56,
                    "time": 251.06250000000028,
                    "velocity": 0.5039370078740157,
                    "duration": 0.140625
                },
                {
                    "name": "G#4",
                    "midi": 68,
                    "time": 251.06250000000028,
                    "velocity": 0.5039370078740157,
                    "duration": 0.140625
                },
                {
                    "name": "G#5",
                    "midi": 80,
                    "time": 251.62500000000028,
                    "velocity": 0.5590551181102362,
                    "duration": 0.375
                },
                {
                    "name": "G#6",
                    "midi": 92,
                    "time": 251.62500000000028,
                    "velocity": 0.5590551181102362,
                    "duration": 0.375
                },
                {
                    "name": "F#6",
                    "midi": 90,
                    "time": 252.00000000000028,
                    "velocity": 0.3543307086614173,
                    "duration": 0.140625
                },
                {
                    "name": "F#7",
                    "midi": 102,
                    "time": 252.00000000000028,
                    "velocity": 0.3543307086614173,
                    "duration": 0.140625
                },
                {
                    "name": "F#7",
                    "midi": 102,
                    "time": 252.18750000000028,
                    "velocity": 0.3543307086614173,
                    "duration": 0.140625
                },
                {
                    "name": "F#6",
                    "midi": 90,
                    "time": 252.18750000000028,
                    "velocity": 0.3543307086614173,
                    "duration": 0.140625
                },
                {
                    "name": "E6",
                    "midi": 88,
                    "time": 252.37500000000028,
                    "velocity": 0.3543307086614173,
                    "duration": 0.140625
                },
                {
                    "name": "E7",
                    "midi": 100,
                    "time": 252.37500000000028,
                    "velocity": 0.3543307086614173,
                    "duration": 0.140625
                },
                {
                    "name": "E7",
                    "midi": 100,
                    "time": 252.56250000000028,
                    "velocity": 0.3543307086614173,
                    "duration": 0.140625
                },
                {
                    "name": "E6",
                    "midi": 88,
                    "time": 252.56250000000028,
                    "velocity": 0.3543307086614173,
                    "duration": 0.140625
                },
                {
                    "name": "D#7",
                    "midi": 99,
                    "time": 252.75000000000028,
                    "velocity": 0.3543307086614173,
                    "duration": 0.140625
                },
                {
                    "name": "D#6",
                    "midi": 87,
                    "time": 252.75000000000028,
                    "velocity": 0.3543307086614173,
                    "duration": 0.140625
                },
                {
                    "name": "D#6",
                    "midi": 87,
                    "time": 252.93750000000028,
                    "velocity": 0.3543307086614173,
                    "duration": 0.140625
                },
                {
                    "name": "D#7",
                    "midi": 99,
                    "time": 252.93750000000028,
                    "velocity": 0.3543307086614173,
                    "duration": 0.140625
                },
                {
                    "name": "C#6",
                    "midi": 85,
                    "time": 253.12500000000028,
                    "velocity": 0.3543307086614173,
                    "duration": 0.140625
                },
                {
                    "name": "C#7",
                    "midi": 97,
                    "time": 253.12500000000028,
                    "velocity": 0.3543307086614173,
                    "duration": 0.140625
                },
                {
                    "name": "C#7",
                    "midi": 97,
                    "time": 253.31250000000028,
                    "velocity": 0.3543307086614173,
                    "duration": 0.140625
                },
                {
                    "name": "C#6",
                    "midi": 85,
                    "time": 253.31250000000028,
                    "velocity": 0.3543307086614173,
                    "duration": 0.140625
                },
                {
                    "name": "D#7",
                    "midi": 99,
                    "time": 253.50000000000028,
                    "velocity": 0.3543307086614173,
                    "duration": 0.140625
                },
                {
                    "name": "D#6",
                    "midi": 87,
                    "time": 253.50000000000028,
                    "velocity": 0.3543307086614173,
                    "duration": 0.140625
                },
                {
                    "name": "D#7",
                    "midi": 99,
                    "time": 253.68750000000028,
                    "velocity": 0.3543307086614173,
                    "duration": 0.140625
                },
                {
                    "name": "D#6",
                    "midi": 87,
                    "time": 253.68750000000028,
                    "velocity": 0.3543307086614173,
                    "duration": 0.140625
                },
                {
                    "name": "E7",
                    "midi": 100,
                    "time": 253.87500000000028,
                    "velocity": 0.3700787401574803,
                    "duration": 0.375
                },
                {
                    "name": "E6",
                    "midi": 88,
                    "time": 253.87500000000028,
                    "velocity": 0.3700787401574803,
                    "duration": 0.375
                },
                {
                    "name": "F#3",
                    "midi": 54,
                    "time": 255.37500000000028,
                    "velocity": 0.5039370078740157,
                    "duration": 0.140625
                },
                {
                    "name": "F#4",
                    "midi": 66,
                    "time": 255.37500000000028,
                    "velocity": 0.5039370078740157,
                    "duration": 0.140625
                },
                {
                    "name": "F#3",
                    "midi": 54,
                    "time": 255.56250000000028,
                    "velocity": 0.5039370078740157,
                    "duration": 0.140625
                },
                {
                    "name": "F#4",
                    "midi": 66,
                    "time": 255.56250000000028,
                    "velocity": 0.5039370078740157,
                    "duration": 0.140625
                },
                {
                    "name": "F#5",
                    "midi": 78,
                    "time": 256.1250000000003,
                    "velocity": 0.5590551181102362,
                    "duration": 0.375
                },
                {
                    "name": "F#6",
                    "midi": 90,
                    "time": 256.1250000000003,
                    "velocity": 0.5590551181102362,
                    "duration": 0.375
                },
                {
                    "name": "E6",
                    "midi": 88,
                    "time": 256.5000000000003,
                    "velocity": 0.3543307086614173,
                    "duration": 0.140625
                },
                {
                    "name": "E7",
                    "midi": 100,
                    "time": 256.5000000000003,
                    "velocity": 0.3543307086614173,
                    "duration": 0.140625
                },
                {
                    "name": "E7",
                    "midi": 100,
                    "time": 256.6875000000003,
                    "velocity": 0.3543307086614173,
                    "duration": 0.140625
                },
                {
                    "name": "E6",
                    "midi": 88,
                    "time": 256.6875000000003,
                    "velocity": 0.3543307086614173,
                    "duration": 0.140625
                },
                {
                    "name": "D#6",
                    "midi": 87,
                    "time": 256.8750000000003,
                    "velocity": 0.3543307086614173,
                    "duration": 0.140625
                },
                {
                    "name": "D#7",
                    "midi": 99,
                    "time": 256.8750000000003,
                    "velocity": 0.3543307086614173,
                    "duration": 0.140625
                },
                {
                    "name": "D#7",
                    "midi": 99,
                    "time": 257.0625000000003,
                    "velocity": 0.3543307086614173,
                    "duration": 0.140625
                },
                {
                    "name": "D#6",
                    "midi": 87,
                    "time": 257.0625000000003,
                    "velocity": 0.3543307086614173,
                    "duration": 0.140625
                },
                {
                    "name": "C#7",
                    "midi": 97,
                    "time": 257.2500000000003,
                    "velocity": 0.3543307086614173,
                    "duration": 0.140625
                },
                {
                    "name": "C#6",
                    "midi": 85,
                    "time": 257.2500000000003,
                    "velocity": 0.3543307086614173,
                    "duration": 0.140625
                },
                {
                    "name": "C#6",
                    "midi": 85,
                    "time": 257.4375000000003,
                    "velocity": 0.3543307086614173,
                    "duration": 0.140625
                },
                {
                    "name": "C#7",
                    "midi": 97,
                    "time": 257.4375000000003,
                    "velocity": 0.3543307086614173,
                    "duration": 0.140625
                },
                {
                    "name": "B5",
                    "midi": 83,
                    "time": 257.6250000000003,
                    "velocity": 0.3543307086614173,
                    "duration": 0.140625
                },
                {
                    "name": "B6",
                    "midi": 95,
                    "time": 257.6250000000003,
                    "velocity": 0.3543307086614173,
                    "duration": 0.140625
                },
                {
                    "name": "B6",
                    "midi": 95,
                    "time": 257.8125000000003,
                    "velocity": 0.3543307086614173,
                    "duration": 0.140625
                },
                {
                    "name": "B5",
                    "midi": 83,
                    "time": 257.8125000000003,
                    "velocity": 0.3543307086614173,
                    "duration": 0.140625
                },
                {
                    "name": "C#7",
                    "midi": 97,
                    "time": 258.0000000000003,
                    "velocity": 0.3543307086614173,
                    "duration": 0.140625
                },
                {
                    "name": "C#6",
                    "midi": 85,
                    "time": 258.0000000000003,
                    "velocity": 0.3543307086614173,
                    "duration": 0.140625
                },
                {
                    "name": "C#7",
                    "midi": 97,
                    "time": 258.1875000000003,
                    "velocity": 0.3543307086614173,
                    "duration": 0.140625
                },
                {
                    "name": "C#6",
                    "midi": 85,
                    "time": 258.1875000000003,
                    "velocity": 0.3543307086614173,
                    "duration": 0.140625
                },
                {
                    "name": "D#7",
                    "midi": 99,
                    "time": 258.3750000000003,
                    "velocity": 0.3700787401574803,
                    "duration": 0.375
                },
                {
                    "name": "D#6",
                    "midi": 87,
                    "time": 258.3750000000003,
                    "velocity": 0.3700787401574803,
                    "duration": 0.375
                },
                {
                    "name": "D#3",
                    "midi": 51,
                    "time": 259.8750000000003,
                    "velocity": 0.5039370078740157,
                    "duration": 0.140625
                },
                {
                    "name": "D#4",
                    "midi": 63,
                    "time": 259.8750000000003,
                    "velocity": 0.5039370078740157,
                    "duration": 0.140625
                },
                {
                    "name": "D#3",
                    "midi": 51,
                    "time": 260.0625000000003,
                    "velocity": 0.5039370078740157,
                    "duration": 0.140625
                },
                {
                    "name": "D#4",
                    "midi": 63,
                    "time": 260.0625000000003,
                    "velocity": 0.5039370078740157,
                    "duration": 0.140625
                },
                {
                    "name": "D#5",
                    "midi": 75,
                    "time": 260.6250000000003,
                    "velocity": 0.5590551181102362,
                    "duration": 0.375
                },
                {
                    "name": "D#6",
                    "midi": 87,
                    "time": 260.6250000000003,
                    "velocity": 0.5590551181102362,
                    "duration": 0.375
                },
                {
                    "name": "D#6",
                    "midi": 87,
                    "time": 261.0000000000003,
                    "velocity": 0.4645669291338583,
                    "duration": 0.140625
                },
                {
                    "name": "D#5",
                    "midi": 75,
                    "time": 261.0000000000003,
                    "velocity": 0.4645669291338583,
                    "duration": 0.140625
                },
                {
                    "name": "D#6",
                    "midi": 87,
                    "time": 261.1875000000003,
                    "velocity": 0.47244094488188976,
                    "duration": 0.140625
                },
                {
                    "name": "D#5",
                    "midi": 75,
                    "time": 261.1875000000003,
                    "velocity": 0.47244094488188976,
                    "duration": 0.140625
                },
                {
                    "name": "D#6",
                    "midi": 87,
                    "time": 261.3750000000003,
                    "velocity": 0.4881889763779528,
                    "duration": 0.140625
                },
                {
                    "name": "D#5",
                    "midi": 75,
                    "time": 261.3750000000003,
                    "velocity": 0.4881889763779528,
                    "duration": 0.140625
                },
                {
                    "name": "D#6",
                    "midi": 87,
                    "time": 261.5625000000003,
                    "velocity": 0.5039370078740157,
                    "duration": 0.140625
                },
                {
                    "name": "D#5",
                    "midi": 75,
                    "time": 261.5625000000003,
                    "velocity": 0.5039370078740157,
                    "duration": 0.140625
                },
                {
                    "name": "E5",
                    "midi": 76,
                    "time": 261.7500000000003,
                    "velocity": 0.5039370078740157,
                    "duration": 0.1875
                },
                {
                    "name": "E6",
                    "midi": 88,
                    "time": 261.7500000000003,
                    "velocity": 0.5039370078740157,
                    "duration": 0.1875
                },
                {
                    "name": "D#5",
                    "midi": 75,
                    "time": 261.9375000000003,
                    "velocity": 0.5039370078740157,
                    "duration": 0.1875
                },
                {
                    "name": "D#6",
                    "midi": 87,
                    "time": 261.9375000000003,
                    "velocity": 0.5039370078740157,
                    "duration": 0.1875
                },
                {
                    "name": "C#5",
                    "midi": 73,
                    "time": 262.1250000000003,
                    "velocity": 0.49606299212598426,
                    "duration": 0.1875
                },
                {
                    "name": "C#6",
                    "midi": 85,
                    "time": 262.1250000000003,
                    "velocity": 0.49606299212598426,
                    "duration": 0.1875
                },
                {
                    "name": "B4",
                    "midi": 71,
                    "time": 262.3125000000003,
                    "velocity": 0.4881889763779528,
                    "duration": 0.1875
                },
                {
                    "name": "B5",
                    "midi": 83,
                    "time": 262.3125000000003,
                    "velocity": 0.4881889763779528,
                    "duration": 0.1875
                },
                {
                    "name": "A#4",
                    "midi": 70,
                    "time": 262.5000000000003,
                    "velocity": 0.48031496062992124,
                    "duration": 0.1875
                },
                {
                    "name": "A#5",
                    "midi": 82,
                    "time": 262.5000000000003,
                    "velocity": 0.48031496062992124,
                    "duration": 0.1875
                },
                {
                    "name": "G#4",
                    "midi": 68,
                    "time": 262.6875000000003,
                    "velocity": 0.48031496062992124,
                    "duration": 0.1875
                },
                {
                    "name": "G#5",
                    "midi": 80,
                    "time": 262.6875000000003,
                    "velocity": 0.48031496062992124,
                    "duration": 0.1875
                },
                {
                    "name": "G4",
                    "midi": 67,
                    "time": 262.8750000000003,
                    "velocity": 0.47244094488188976,
                    "duration": 0.375
                },
                {
                    "name": "G5",
                    "midi": 79,
                    "time": 262.8750000000003,
                    "velocity": 0.47244094488188976,
                    "duration": 0.375
                },
                {
                    "name": "D#3",
                    "midi": 51,
                    "time": 264.3750000000003,
                    "velocity": 0.5433070866141733,
                    "duration": 0.140625
                },
                {
                    "name": "D#4",
                    "midi": 63,
                    "time": 264.3750000000003,
                    "velocity": 0.5433070866141733,
                    "duration": 0.140625
                },
                {
                    "name": "D#3",
                    "midi": 51,
                    "time": 264.5625000000003,
                    "velocity": 0.5433070866141733,
                    "duration": 0.140625
                },
                {
                    "name": "D#4",
                    "midi": 63,
                    "time": 264.5625000000003,
                    "velocity": 0.5433070866141733,
                    "duration": 0.140625
                },
                {
                    "name": "D#5",
                    "midi": 75,
                    "time": 265.1250000000003,
                    "velocity": 0.5984251968503937,
                    "duration": 0.375
                },
                {
                    "name": "D#6",
                    "midi": 87,
                    "time": 265.1250000000003,
                    "velocity": 0.5984251968503937,
                    "duration": 0.375
                },
                {
                    "name": "D#7",
                    "midi": 99,
                    "time": 265.5000000000003,
                    "velocity": 0.5433070866141733,
                    "duration": 0.140625
                },
                {
                    "name": "D#6",
                    "midi": 87,
                    "time": 265.5000000000003,
                    "velocity": 0.5433070866141733,
                    "duration": 0.140625
                },
                {
                    "name": "D#7",
                    "midi": 99,
                    "time": 265.6875000000003,
                    "velocity": 0.5590551181102362,
                    "duration": 0.140625
                },
                {
                    "name": "D#6",
                    "midi": 87,
                    "time": 265.6875000000003,
                    "velocity": 0.5590551181102362,
                    "duration": 0.140625
                },
                {
                    "name": "D#7",
                    "midi": 99,
                    "time": 265.8750000000003,
                    "velocity": 0.5669291338582677,
                    "duration": 0.140625
                },
                {
                    "name": "D#6",
                    "midi": 87,
                    "time": 265.8750000000003,
                    "velocity": 0.5669291338582677,
                    "duration": 0.140625
                },
                {
                    "name": "D#6",
                    "midi": 87,
                    "time": 266.0625000000003,
                    "velocity": 0.5748031496062992,
                    "duration": 0.140625
                },
                {
                    "name": "D#7",
                    "midi": 99,
                    "time": 266.0625000000003,
                    "velocity": 0.5748031496062992,
                    "duration": 0.140625
                },
                {
                    "name": "E6",
                    "midi": 88,
                    "time": 266.2500000000003,
                    "velocity": 0.5748031496062992,
                    "duration": 0.140625
                },
                {
                    "name": "E7",
                    "midi": 100,
                    "time": 266.2500000000003,
                    "velocity": 0.5748031496062992,
                    "duration": 0.140625
                },
                {
                    "name": "D#6",
                    "midi": 87,
                    "time": 266.4375000000003,
                    "velocity": 0.5748031496062992,
                    "duration": 0.140625
                },
                {
                    "name": "D#7",
                    "midi": 99,
                    "time": 266.4375000000003,
                    "velocity": 0.5748031496062992,
                    "duration": 0.140625
                },
                {
                    "name": "C#6",
                    "midi": 85,
                    "time": 266.6250000000003,
                    "velocity": 0.5748031496062992,
                    "duration": 0.140625
                },
                {
                    "name": "C#7",
                    "midi": 97,
                    "time": 266.6250000000003,
                    "velocity": 0.5748031496062992,
                    "duration": 0.140625
                },
                {
                    "name": "B6",
                    "midi": 95,
                    "time": 266.8125000000003,
                    "velocity": 0.5669291338582677,
                    "duration": 0.140625
                },
                {
                    "name": "B5",
                    "midi": 83,
                    "time": 266.8125000000003,
                    "velocity": 0.5669291338582677,
                    "duration": 0.140625
                },
                {
                    "name": "A#5",
                    "midi": 82,
                    "time": 267.0000000000003,
                    "velocity": 0.5669291338582677,
                    "duration": 0.140625
                },
                {
                    "name": "A#6",
                    "midi": 94,
                    "time": 267.0000000000003,
                    "velocity": 0.5669291338582677,
                    "duration": 0.140625
                },
                {
                    "name": "G#6",
                    "midi": 92,
                    "time": 267.1875000000003,
                    "velocity": 0.5669291338582677,
                    "duration": 0.140625
                },
                {
                    "name": "G#5",
                    "midi": 80,
                    "time": 267.1875000000003,
                    "velocity": 0.5669291338582677,
                    "duration": 0.140625
                },
                {
                    "name": "G6",
                    "midi": 91,
                    "time": 267.3750000000003,
                    "velocity": 0.5669291338582677,
                    "duration": 0.140625
                },
                {
                    "name": "G5",
                    "midi": 79,
                    "time": 267.3750000000003,
                    "velocity": 0.5669291338582677,
                    "duration": 0.140625
                },
                {
                    "name": "F#5",
                    "midi": 78,
                    "time": 267.5625000000003,
                    "velocity": 0.5669291338582677,
                    "duration": 0.140625
                },
                {
                    "name": "F#6",
                    "midi": 90,
                    "time": 267.5625000000003,
                    "velocity": 0.5669291338582677,
                    "duration": 0.140625
                },
                {
                    "name": "F6",
                    "midi": 89,
                    "time": 267.7500000000003,
                    "velocity": 0.5669291338582677,
                    "duration": 0.140625
                },
                {
                    "name": "F5",
                    "midi": 77,
                    "time": 267.7500000000003,
                    "velocity": 0.5669291338582677,
                    "duration": 0.140625
                },
                {
                    "name": "E5",
                    "midi": 76,
                    "time": 267.9375000000003,
                    "velocity": 0.5590551181102362,
                    "duration": 0.140625
                },
                {
                    "name": "E6",
                    "midi": 88,
                    "time": 267.9375000000003,
                    "velocity": 0.5590551181102362,
                    "duration": 0.140625
                },
                {
                    "name": "D6",
                    "midi": 86,
                    "time": 268.1250000000003,
                    "velocity": 0.5590551181102362,
                    "duration": 0.140625
                },
                {
                    "name": "D5",
                    "midi": 74,
                    "time": 268.1250000000003,
                    "velocity": 0.5590551181102362,
                    "duration": 0.140625
                },
                {
                    "name": "D#5",
                    "midi": 75,
                    "time": 268.3125000000003,
                    "velocity": 0.5669291338582677,
                    "duration": 0.140625
                },
                {
                    "name": "D#6",
                    "midi": 87,
                    "time": 268.3125000000003,
                    "velocity": 0.5669291338582677,
                    "duration": 0.140625
                },
                {
                    "name": "E6",
                    "midi": 88,
                    "time": 268.5000000000003,
                    "velocity": 0.5905511811023622,
                    "duration": 0.140625
                },
                {
                    "name": "E5",
                    "midi": 76,
                    "time": 268.5000000000003,
                    "velocity": 0.5905511811023622,
                    "duration": 0.140625
                },
                {
                    "name": "D#5",
                    "midi": 75,
                    "time": 268.6875000000003,
                    "velocity": 0.5905511811023622,
                    "duration": 0.140625
                },
                {
                    "name": "D#6",
                    "midi": 87,
                    "time": 268.6875000000003,
                    "velocity": 0.5905511811023622,
                    "duration": 0.140625
                },
                {
                    "name": "C#6",
                    "midi": 85,
                    "time": 268.8750000000003,
                    "velocity": 0.5748031496062992,
                    "duration": 0.140625
                },
                {
                    "name": "C#5",
                    "midi": 73,
                    "time": 268.8750000000003,
                    "velocity": 0.5748031496062992,
                    "duration": 0.140625
                },
                {
                    "name": "B4",
                    "midi": 71,
                    "time": 269.0625000000003,
                    "velocity": 0.5669291338582677,
                    "duration": 0.140625
                },
                {
                    "name": "B5",
                    "midi": 83,
                    "time": 269.0625000000003,
                    "velocity": 0.5669291338582677,
                    "duration": 0.140625
                },
                {
                    "name": "A#5",
                    "midi": 82,
                    "time": 269.2500000000003,
                    "velocity": 0.5669291338582677,
                    "duration": 0.140625
                },
                {
                    "name": "A#4",
                    "midi": 70,
                    "time": 269.2500000000003,
                    "velocity": 0.5669291338582677,
                    "duration": 0.140625
                },
                {
                    "name": "G#4",
                    "midi": 68,
                    "time": 269.4375000000003,
                    "velocity": 0.5669291338582677,
                    "duration": 0.140625
                },
                {
                    "name": "G#5",
                    "midi": 80,
                    "time": 269.4375000000003,
                    "velocity": 0.5669291338582677,
                    "duration": 0.140625
                },
                {
                    "name": "G4",
                    "midi": 67,
                    "time": 269.6250000000003,
                    "velocity": 0.5669291338582677,
                    "duration": 0.140625
                },
                {
                    "name": "G5",
                    "midi": 79,
                    "time": 269.6250000000003,
                    "velocity": 0.5669291338582677,
                    "duration": 0.140625
                },
                {
                    "name": "F#5",
                    "midi": 78,
                    "time": 269.8125000000003,
                    "velocity": 0.5590551181102362,
                    "duration": 0.140625
                },
                {
                    "name": "F#4",
                    "midi": 66,
                    "time": 269.8125000000003,
                    "velocity": 0.5590551181102362,
                    "duration": 0.140625
                },
                {
                    "name": "F4",
                    "midi": 65,
                    "time": 270.0000000000003,
                    "velocity": 0.5511811023622047,
                    "duration": 0.140625
                },
                {
                    "name": "F5",
                    "midi": 77,
                    "time": 270.0000000000003,
                    "velocity": 0.5511811023622047,
                    "duration": 0.140625
                },
                {
                    "name": "E5",
                    "midi": 76,
                    "time": 270.1875000000003,
                    "velocity": 0.5511811023622047,
                    "duration": 0.140625
                },
                {
                    "name": "E4",
                    "midi": 64,
                    "time": 270.1875000000003,
                    "velocity": 0.5511811023622047,
                    "duration": 0.140625
                },
                {
                    "name": "D4",
                    "midi": 62,
                    "time": 270.3750000000003,
                    "velocity": 0.5669291338582677,
                    "duration": 0.140625
                },
                {
                    "name": "D5",
                    "midi": 74,
                    "time": 270.3750000000003,
                    "velocity": 0.5669291338582677,
                    "duration": 0.140625
                },
                {
                    "name": "D#4",
                    "midi": 63,
                    "time": 270.5625000000003,
                    "velocity": 0.5748031496062992,
                    "duration": 0.140625
                },
                {
                    "name": "D#5",
                    "midi": 75,
                    "time": 270.5625000000003,
                    "velocity": 0.5748031496062992,
                    "duration": 0.140625
                },
                {
                    "name": "E4",
                    "midi": 64,
                    "time": 270.7500000000003,
                    "velocity": 0.5748031496062992,
                    "duration": 0.140625
                },
                {
                    "name": "E5",
                    "midi": 76,
                    "time": 270.7500000000003,
                    "velocity": 0.5748031496062992,
                    "duration": 0.140625
                },
                {
                    "name": "D#4",
                    "midi": 63,
                    "time": 270.9375000000003,
                    "velocity": 0.5748031496062992,
                    "duration": 0.140625
                },
                {
                    "name": "D#5",
                    "midi": 75,
                    "time": 270.9375000000003,
                    "velocity": 0.5748031496062992,
                    "duration": 0.140625
                },
                {
                    "name": "C#5",
                    "midi": 73,
                    "time": 271.1250000000003,
                    "velocity": 0.5748031496062992,
                    "duration": 0.140625
                },
                {
                    "name": "C#4",
                    "midi": 61,
                    "time": 271.1250000000003,
                    "velocity": 0.5748031496062992,
                    "duration": 0.140625
                },
                {
                    "name": "B3",
                    "midi": 59,
                    "time": 271.3125000000003,
                    "velocity": 0.5669291338582677,
                    "duration": 0.140625
                },
                {
                    "name": "B4",
                    "midi": 71,
                    "time": 271.3125000000003,
                    "velocity": 0.5669291338582677,
                    "duration": 0.140625
                },
                {
                    "name": "A#4",
                    "midi": 70,
                    "time": 271.5000000000003,
                    "velocity": 0.5669291338582677,
                    "duration": 0.140625
                },
                {
                    "name": "A#3",
                    "midi": 58,
                    "time": 271.5000000000003,
                    "velocity": 0.5669291338582677,
                    "duration": 0.140625
                },
                {
                    "name": "G#3",
                    "midi": 56,
                    "time": 271.6875000000003,
                    "velocity": 0.5669291338582677,
                    "duration": 0.140625
                },
                {
                    "name": "G#4",
                    "midi": 68,
                    "time": 271.6875000000003,
                    "velocity": 0.5669291338582677,
                    "duration": 0.140625
                },
                {
                    "name": "G4",
                    "midi": 67,
                    "time": 271.8750000000003,
                    "velocity": 0.5669291338582677,
                    "duration": 0.140625
                },
                {
                    "name": "G3",
                    "midi": 55,
                    "time": 271.8750000000003,
                    "velocity": 0.5669291338582677,
                    "duration": 0.140625
                },
                {
                    "name": "F#3",
                    "midi": 54,
                    "time": 272.0625000000003,
                    "velocity": 0.5669291338582677,
                    "duration": 0.140625
                },
                {
                    "name": "F#4",
                    "midi": 66,
                    "time": 272.0625000000003,
                    "velocity": 0.5669291338582677,
                    "duration": 0.140625
                },
                {
                    "name": "F4",
                    "midi": 65,
                    "time": 272.2500000000003,
                    "velocity": 0.5669291338582677,
                    "duration": 0.140625
                },
                {
                    "name": "F3",
                    "midi": 53,
                    "time": 272.2500000000003,
                    "velocity": 0.5669291338582677,
                    "duration": 0.140625
                },
                {
                    "name": "E3",
                    "midi": 52,
                    "time": 272.4375000000003,
                    "velocity": 0.5669291338582677,
                    "duration": 0.140625
                },
                {
                    "name": "E4",
                    "midi": 64,
                    "time": 272.4375000000003,
                    "velocity": 0.5669291338582677,
                    "duration": 0.140625
                },
                {
                    "name": "D3",
                    "midi": 50,
                    "time": 272.6250000000003,
                    "velocity": 0.5669291338582677,
                    "duration": 0.140625
                },
                {
                    "name": "D4",
                    "midi": 62,
                    "time": 272.6250000000003,
                    "velocity": 0.5669291338582677,
                    "duration": 0.140625
                },
                {
                    "name": "D#3",
                    "midi": 51,
                    "time": 272.8125000000003,
                    "velocity": 0.5669291338582677,
                    "duration": 0.140625
                },
                {
                    "name": "D#4",
                    "midi": 63,
                    "time": 272.8125000000003,
                    "velocity": 0.5669291338582677,
                    "duration": 0.140625
                },
                {
                    "name": "E3",
                    "midi": 52,
                    "time": 273.0000000000003,
                    "velocity": 0.5748031496062992,
                    "duration": 0.140625
                },
                {
                    "name": "E4",
                    "midi": 64,
                    "time": 273.0000000000003,
                    "velocity": 0.5748031496062992,
                    "duration": 0.140625
                },
                {
                    "name": "D#4",
                    "midi": 63,
                    "time": 273.1875000000003,
                    "velocity": 0.5905511811023622,
                    "duration": 0.140625
                },
                {
                    "name": "E3",
                    "midi": 52,
                    "time": 273.1875000000003,
                    "velocity": 0.5905511811023622,
                    "duration": 0.140625
                },
                {
                    "name": "C#4",
                    "midi": 61,
                    "time": 273.3750000000003,
                    "velocity": 0.5984251968503937,
                    "duration": 0.140625
                },
                {
                    "name": "E3",
                    "midi": 52,
                    "time": 273.3750000000003,
                    "velocity": 0.5984251968503937,
                    "duration": 0.140625
                },
                {
                    "name": "B3",
                    "midi": 59,
                    "time": 273.5625000000003,
                    "velocity": 0.6062992125984252,
                    "duration": 0.140625
                },
                {
                    "name": "E3",
                    "midi": 52,
                    "time": 273.5625000000003,
                    "velocity": 0.6062992125984252,
                    "duration": 0.140625
                },
                {
                    "name": "F3",
                    "midi": 53,
                    "time": 273.7500000000003,
                    "velocity": 0.6299212598425197,
                    "duration": 0.140625
                },
                {
                    "name": "A#3",
                    "midi": 58,
                    "time": 273.7500000000003,
                    "velocity": 0.6299212598425197,
                    "duration": 0.140625
                },
                {
                    "name": "F3",
                    "midi": 53,
                    "time": 273.9375000000003,
                    "velocity": 0.6377952755905512,
                    "duration": 0.140625
                },
                {
                    "name": "G#3",
                    "midi": 56,
                    "time": 273.9375000000003,
                    "velocity": 0.6377952755905512,
                    "duration": 0.140625
                },
                {
                    "name": "G3",
                    "midi": 55,
                    "time": 274.1250000000003,
                    "velocity": 0.6377952755905512,
                    "duration": 0.375
                },
                {
                    "name": "D4",
                    "midi": 62,
                    "time": 274.5000000000003,
                    "velocity": 0.6377952755905512,
                    "duration": 0.1875
                },
                {
                    "name": "D3",
                    "midi": 50,
                    "time": 274.5000000000003,
                    "velocity": 0.6377952755905512,
                    "duration": 0.16874999999998863
                },
                {
                    "name": "D#4",
                    "midi": 63,
                    "time": 274.8750000000003,
                    "velocity": 0.6377952755905512,
                    "duration": 0.1875
                },
                {
                    "name": "D#3",
                    "midi": 51,
                    "time": 274.8750000000003,
                    "velocity": 0.6377952755905512,
                    "duration": 0.16874999999998863
                },
                {
                    "name": "A3",
                    "midi": 57,
                    "time": 275.2500000000003,
                    "velocity": 0.6377952755905512,
                    "duration": 0.16874999999998863
                },
                {
                    "name": "A4",
                    "midi": 69,
                    "time": 275.2500000000003,
                    "velocity": 0.6377952755905512,
                    "duration": 0.1875
                },
                {
                    "name": "A#3",
                    "midi": 58,
                    "time": 275.6250000000003,
                    "velocity": 0.6377952755905512,
                    "duration": 0.16874999999998863
                },
                {
                    "name": "A#4",
                    "midi": 70,
                    "time": 275.6250000000003,
                    "velocity": 0.6377952755905512,
                    "duration": 0.1875
                },
                {
                    "name": "D4",
                    "midi": 62,
                    "time": 276.0000000000003,
                    "velocity": 0.6377952755905512,
                    "duration": 0.16874999999998863
                },
                {
                    "name": "D5",
                    "midi": 74,
                    "time": 276.0000000000003,
                    "velocity": 0.6377952755905512,
                    "duration": 0.1875
                },
                {
                    "name": "D#4",
                    "midi": 63,
                    "time": 276.3750000000003,
                    "velocity": 0.6377952755905512,
                    "duration": 0.16874999999998863
                },
                {
                    "name": "D#5",
                    "midi": 75,
                    "time": 276.3750000000003,
                    "velocity": 0.6377952755905512,
                    "duration": 0.1875
                },
                {
                    "name": "A4",
                    "midi": 69,
                    "time": 276.7500000000003,
                    "velocity": 0.6377952755905512,
                    "duration": 0.16874999999998863
                },
                {
                    "name": "A5",
                    "midi": 81,
                    "time": 276.7500000000003,
                    "velocity": 0.6377952755905512,
                    "duration": 0.1875
                },
                {
                    "name": "A#5",
                    "midi": 82,
                    "time": 277.1250000000003,
                    "velocity": 0.6377952755905512,
                    "duration": 0.1875
                },
                {
                    "name": "A#4",
                    "midi": 70,
                    "time": 277.1250000000003,
                    "velocity": 0.6377952755905512,
                    "duration": 0.16874999999998863
                },
                {
                    "name": "D6",
                    "midi": 86,
                    "time": 277.5000000000003,
                    "velocity": 0.6456692913385826,
                    "duration": 0.1875
                },
                {
                    "name": "D5",
                    "midi": 74,
                    "time": 277.5000000000003,
                    "velocity": 0.6456692913385826,
                    "duration": 0.16874999999998863
                },
                {
                    "name": "D#6",
                    "midi": 87,
                    "time": 277.8750000000003,
                    "velocity": 0.6535433070866141,
                    "duration": 0.1875
                },
                {
                    "name": "D#5",
                    "midi": 75,
                    "time": 277.8750000000003,
                    "velocity": 0.6535433070866141,
                    "duration": 0.16874999999998863
                },
                {
                    "name": "A6",
                    "midi": 93,
                    "time": 278.2500000000003,
                    "velocity": 0.6614173228346457,
                    "duration": 0.1875
                },
                {
                    "name": "A5",
                    "midi": 81,
                    "time": 278.2500000000003,
                    "velocity": 0.6614173228346457,
                    "duration": 0.16874999999998863
                },
                {
                    "name": "A#6",
                    "midi": 94,
                    "time": 278.6250000000003,
                    "velocity": 0.6614173228346457,
                    "duration": 0.1875
                },
                {
                    "name": "A#5",
                    "midi": 82,
                    "time": 278.6250000000003,
                    "velocity": 0.6614173228346457,
                    "duration": 0.16874999999998863
                },
                {
                    "name": "D6",
                    "midi": 86,
                    "time": 279.0000000000003,
                    "velocity": 0.7244094488188977,
                    "duration": 0.16874999999998863
                },
                {
                    "name": "D7",
                    "midi": 98,
                    "time": 279.0000000000003,
                    "velocity": 0.7244094488188977,
                    "duration": 0.1875
                },
                {
                    "name": "D#7",
                    "midi": 99,
                    "time": 279.3750000000003,
                    "velocity": 0.7007874015748031,
                    "duration": 0.1875
                },
                {
                    "name": "D#6",
                    "midi": 87,
                    "time": 279.3750000000003,
                    "velocity": 0.7007874015748031,
                    "duration": 0.16874999999998863
                },
                {
                    "name": "D7",
                    "midi": 98,
                    "time": 279.7500000000003,
                    "velocity": 0.7322834645669292,
                    "duration": 0.1875
                },
                {
                    "name": "D6",
                    "midi": 86,
                    "time": 279.7500000000003,
                    "velocity": 0.7322834645669292,
                    "duration": 0.16874999999998863
                },
                {
                    "name": "D#7",
                    "midi": 99,
                    "time": 280.1250000000003,
                    "velocity": 0.6771653543307087,
                    "duration": 0.1875
                },
                {
                    "name": "D#6",
                    "midi": 87,
                    "time": 280.1250000000003,
                    "velocity": 0.6771653543307087,
                    "duration": 0.16874999999998863
                },
                {
                    "name": "D7",
                    "midi": 98,
                    "time": 280.5000000000003,
                    "velocity": 0.6850393700787402,
                    "duration": 0.1875
                },
                {
                    "name": "D6",
                    "midi": 86,
                    "time": 280.5000000000003,
                    "velocity": 0.6850393700787402,
                    "duration": 0.16874999999998863
                },
                {
                    "name": "D#7",
                    "midi": 99,
                    "time": 280.8750000000003,
                    "velocity": 0.6614173228346457,
                    "duration": 0.1875
                },
                {
                    "name": "D#6",
                    "midi": 87,
                    "time": 280.8750000000003,
                    "velocity": 0.6614173228346457,
                    "duration": 0.1875
                },
                {
                    "name": "D#7",
                    "midi": 99,
                    "time": 281.2500000000003,
                    "velocity": 0.6614173228346457,
                    "duration": 0.1875
                },
                {
                    "name": "D#6",
                    "midi": 87,
                    "time": 281.2500000000003,
                    "velocity": 0.6614173228346457,
                    "duration": 0.1875
                },
                {
                    "name": "D#7",
                    "midi": 99,
                    "time": 281.6250000000003,
                    "velocity": 0.6771653543307087,
                    "duration": 0.1875
                },
                {
                    "name": "D#6",
                    "midi": 87,
                    "time": 281.6250000000003,
                    "velocity": 0.6771653543307087,
                    "duration": 0.1875
                },
                {
                    "name": "D#7",
                    "midi": 99,
                    "time": 282.0000000000003,
                    "velocity": 0.6850393700787402,
                    "duration": 0.1875
                },
                {
                    "name": "D#6",
                    "midi": 87,
                    "time": 282.0000000000003,
                    "velocity": 0.6850393700787402,
                    "duration": 0.1875
                },
                {
                    "name": "D#7",
                    "midi": 99,
                    "time": 282.3750000000003,
                    "velocity": 0.7007874015748031,
                    "duration": 0.1875
                },
                {
                    "name": "D#6",
                    "midi": 87,
                    "time": 282.3750000000003,
                    "velocity": 0.7007874015748031,
                    "duration": 0.1875
                },
                {
                    "name": "D#7",
                    "midi": 99,
                    "time": 282.7500000000003,
                    "velocity": 0.7007874015748031,
                    "duration": 0.1875
                },
                {
                    "name": "D#6",
                    "midi": 87,
                    "time": 282.7500000000003,
                    "velocity": 0.7007874015748031,
                    "duration": 0.1875
                },
                {
                    "name": "D#7",
                    "midi": 99,
                    "time": 283.1250000000003,
                    "velocity": 0.7086614173228346,
                    "duration": 0.1875
                },
                {
                    "name": "D#6",
                    "midi": 87,
                    "time": 283.1250000000003,
                    "velocity": 0.7086614173228346,
                    "duration": 0.1875
                },
                {
                    "name": "D#7",
                    "midi": 99,
                    "time": 283.5000000000003,
                    "velocity": 0.7086614173228346,
                    "duration": 0.1875
                },
                {
                    "name": "D#6",
                    "midi": 87,
                    "time": 283.5000000000003,
                    "velocity": 0.7086614173228346,
                    "duration": 0.1875
                },
                {
                    "name": "D#7",
                    "midi": 99,
                    "time": 283.8750000000003,
                    "velocity": 0.7165354330708661,
                    "duration": 0.1875
                },
                {
                    "name": "D#6",
                    "midi": 87,
                    "time": 283.8750000000003,
                    "velocity": 0.7165354330708661,
                    "duration": 0.1875
                },
                {
                    "name": "D#7",
                    "midi": 99,
                    "time": 284.2500000000003,
                    "velocity": 0.7244094488188977,
                    "duration": 0.1875
                },
                {
                    "name": "D#6",
                    "midi": 87,
                    "time": 284.2500000000003,
                    "velocity": 0.7244094488188977,
                    "duration": 0.1875
                },
                {
                    "name": "D#7",
                    "midi": 99,
                    "time": 284.6250000000003,
                    "velocity": 0.7244094488188977,
                    "duration": 0.1875
                },
                {
                    "name": "D#6",
                    "midi": 87,
                    "time": 284.6250000000003,
                    "velocity": 0.7244094488188977,
                    "duration": 0.1875
                },
                {
                    "name": "D#7",
                    "midi": 99,
                    "time": 285.0000000000003,
                    "velocity": 0.7322834645669292,
                    "duration": 0.1875
                },
                {
                    "name": "D#6",
                    "midi": 87,
                    "time": 285.0000000000003,
                    "velocity": 0.7322834645669292,
                    "duration": 0.1875
                },
                {
                    "name": "D#6",
                    "midi": 87,
                    "time": 285.3750000000003,
                    "velocity": 0.6377952755905512,
                    "duration": 0.140625
                },
                {
                    "name": "D#7",
                    "midi": 99,
                    "time": 285.3750000000003,
                    "velocity": 0.6377952755905512,
                    "duration": 0.140625
                },
                {
                    "name": "D#6",
                    "midi": 87,
                    "time": 285.5625000000003,
                    "velocity": 0.6062992125984252,
                    "duration": 0.140625
                },
                {
                    "name": "D#7",
                    "midi": 99,
                    "time": 285.5625000000003,
                    "velocity": 0.6062992125984252,
                    "duration": 0.140625
                },
                {
                    "name": "D#6",
                    "midi": 87,
                    "time": 285.7500000000003,
                    "velocity": 0.6377952755905512,
                    "duration": 0.140625
                },
                {
                    "name": "D#7",
                    "midi": 99,
                    "time": 285.7500000000003,
                    "velocity": 0.6377952755905512,
                    "duration": 0.140625
                },
                {
                    "name": "D#6",
                    "midi": 87,
                    "time": 285.9375000000003,
                    "velocity": 0.5984251968503937,
                    "duration": 0.140625
                },
                {
                    "name": "D#7",
                    "midi": 99,
                    "time": 285.9375000000003,
                    "velocity": 0.5984251968503937,
                    "duration": 0.140625
                },
                {
                    "name": "D#6",
                    "midi": 87,
                    "time": 286.1250000000003,
                    "velocity": 0.6220472440944882,
                    "duration": 0.140625
                },
                {
                    "name": "D#7",
                    "midi": 99,
                    "time": 286.1250000000003,
                    "velocity": 0.6220472440944882,
                    "duration": 0.140625
                },
                {
                    "name": "D#6",
                    "midi": 87,
                    "time": 286.3125000000003,
                    "velocity": 0.5984251968503937,
                    "duration": 0.140625
                },
                {
                    "name": "D#7",
                    "midi": 99,
                    "time": 286.3125000000003,
                    "velocity": 0.5984251968503937,
                    "duration": 0.140625
                },
                {
                    "name": "D#6",
                    "midi": 87,
                    "time": 286.5000000000003,
                    "velocity": 0.6062992125984252,
                    "duration": 0.140625
                },
                {
                    "name": "D#7",
                    "midi": 99,
                    "time": 286.5000000000003,
                    "velocity": 0.6062992125984252,
                    "duration": 0.140625
                },
                {
                    "name": "D#6",
                    "midi": 87,
                    "time": 286.6875000000003,
                    "velocity": 0.5984251968503937,
                    "duration": 0.140625
                },
                {
                    "name": "D#7",
                    "midi": 99,
                    "time": 286.6875000000003,
                    "velocity": 0.5984251968503937,
                    "duration": 0.140625
                },
                {
                    "name": "D#6",
                    "midi": 87,
                    "time": 286.8750000000003,
                    "velocity": 0.5905511811023622,
                    "duration": 0.140625
                },
                {
                    "name": "D#7",
                    "midi": 99,
                    "time": 286.8750000000003,
                    "velocity": 0.5905511811023622,
                    "duration": 0.140625
                },
                {
                    "name": "D#6",
                    "midi": 87,
                    "time": 287.0625000000003,
                    "velocity": 0.5748031496062992,
                    "duration": 0.140625
                },
                {
                    "name": "D#7",
                    "midi": 99,
                    "time": 287.0625000000003,
                    "velocity": 0.5748031496062992,
                    "duration": 0.140625
                },
                {
                    "name": "D#6",
                    "midi": 87,
                    "time": 287.2500000000003,
                    "velocity": 0.5748031496062992,
                    "duration": 0.140625
                },
                {
                    "name": "D#7",
                    "midi": 99,
                    "time": 287.2500000000003,
                    "velocity": 0.5748031496062992,
                    "duration": 0.140625
                },
                {
                    "name": "D#6",
                    "midi": 87,
                    "time": 287.4375000000003,
                    "velocity": 0.5669291338582677,
                    "duration": 0.140625
                },
                {
                    "name": "D#7",
                    "midi": 99,
                    "time": 287.4375000000003,
                    "velocity": 0.5669291338582677,
                    "duration": 0.140625
                },
                {
                    "name": "D#6",
                    "midi": 87,
                    "time": 287.6250000000003,
                    "velocity": 0.5669291338582677,
                    "duration": 0.140625
                },
                {
                    "name": "D#7",
                    "midi": 99,
                    "time": 287.6250000000003,
                    "velocity": 0.5669291338582677,
                    "duration": 0.140625
                },
                {
                    "name": "D#6",
                    "midi": 87,
                    "time": 287.8125000000003,
                    "velocity": 0.5511811023622047,
                    "duration": 0.140625
                },
                {
                    "name": "D#7",
                    "midi": 99,
                    "time": 287.8125000000003,
                    "velocity": 0.5511811023622047,
                    "duration": 0.140625
                },
                {
                    "name": "D#6",
                    "midi": 87,
                    "time": 288.0000000000003,
                    "velocity": 0.5590551181102362,
                    "duration": 0.140625
                },
                {
                    "name": "D#7",
                    "midi": 99,
                    "time": 288.0000000000003,
                    "velocity": 0.5590551181102362,
                    "duration": 0.140625
                },
                {
                    "name": "D#6",
                    "midi": 87,
                    "time": 288.1875000000003,
                    "velocity": 0.5433070866141733,
                    "duration": 0.140625
                },
                {
                    "name": "D#7",
                    "midi": 99,
                    "time": 288.1875000000003,
                    "velocity": 0.5433070866141733,
                    "duration": 0.140625
                },
                {
                    "name": "D#6",
                    "midi": 87,
                    "time": 288.3750000000003,
                    "velocity": 0.5984251968503937,
                    "duration": 0.140625
                },
                {
                    "name": "D#7",
                    "midi": 99,
                    "time": 288.3750000000003,
                    "velocity": 0.5984251968503937,
                    "duration": 0.140625
                },
                {
                    "name": "D#6",
                    "midi": 87,
                    "time": 288.5625000000003,
                    "velocity": 0.5511811023622047,
                    "duration": 0.140625
                },
                {
                    "name": "D#7",
                    "midi": 99,
                    "time": 288.5625000000003,
                    "velocity": 0.5511811023622047,
                    "duration": 0.140625
                },
                {
                    "name": "D#6",
                    "midi": 87,
                    "time": 288.7500000000003,
                    "velocity": 0.5511811023622047,
                    "duration": 0.140625
                },
                {
                    "name": "D#7",
                    "midi": 99,
                    "time": 288.7500000000003,
                    "velocity": 0.5511811023622047,
                    "duration": 0.140625
                },
                {
                    "name": "D#6",
                    "midi": 87,
                    "time": 288.9375000000003,
                    "velocity": 0.5511811023622047,
                    "duration": 0.140625
                },
                {
                    "name": "D#7",
                    "midi": 99,
                    "time": 288.9375000000003,
                    "velocity": 0.5511811023622047,
                    "duration": 0.140625
                },
                {
                    "name": "D#6",
                    "midi": 87,
                    "time": 289.1250000000003,
                    "velocity": 0.5196850393700787,
                    "duration": 0.140625
                },
                {
                    "name": "D#7",
                    "midi": 99,
                    "time": 289.1250000000003,
                    "velocity": 0.5196850393700787,
                    "duration": 0.140625
                },
                {
                    "name": "D#6",
                    "midi": 87,
                    "time": 289.3125000000003,
                    "velocity": 0.5196850393700787,
                    "duration": 0.140625
                },
                {
                    "name": "D#7",
                    "midi": 99,
                    "time": 289.3125000000003,
                    "velocity": 0.5196850393700787,
                    "duration": 0.140625
                },
                {
                    "name": "C#6",
                    "midi": 85,
                    "time": 289.5000000000003,
                    "velocity": 0.49606299212598426,
                    "duration": 0.140625
                },
                {
                    "name": "C#7",
                    "midi": 97,
                    "time": 289.5000000000003,
                    "velocity": 0.49606299212598426,
                    "duration": 0.140625
                },
                {
                    "name": "C#6",
                    "midi": 85,
                    "time": 289.6875000000003,
                    "velocity": 0.4881889763779528,
                    "duration": 0.140625
                },
                {
                    "name": "C#7",
                    "midi": 97,
                    "time": 289.6875000000003,
                    "velocity": 0.4881889763779528,
                    "duration": 0.140625
                },
                {
                    "name": "B6",
                    "midi": 95,
                    "time": 289.8750000000003,
                    "velocity": 0.5196850393700787,
                    "duration": 0.140625
                },
                {
                    "name": "B5",
                    "midi": 83,
                    "time": 289.8750000000003,
                    "velocity": 0.5196850393700787,
                    "duration": 0.140625
                },
                {
                    "name": "B6",
                    "midi": 95,
                    "time": 290.0625000000003,
                    "velocity": 0.5196850393700787,
                    "duration": 0.140625
                },
                {
                    "name": "B5",
                    "midi": 83,
                    "time": 290.0625000000003,
                    "velocity": 0.5196850393700787,
                    "duration": 0.140625
                },
                {
                    "name": "B6",
                    "midi": 95,
                    "time": 290.2500000000003,
                    "velocity": 0.5196850393700787,
                    "duration": 0.140625
                },
                {
                    "name": "B5",
                    "midi": 83,
                    "time": 290.2500000000003,
                    "velocity": 0.5196850393700787,
                    "duration": 0.140625
                },
                {
                    "name": "B6",
                    "midi": 95,
                    "time": 290.4375000000003,
                    "velocity": 0.5196850393700787,
                    "duration": 0.140625
                },
                {
                    "name": "B5",
                    "midi": 83,
                    "time": 290.4375000000003,
                    "velocity": 0.5196850393700787,
                    "duration": 0.140625
                },
                {
                    "name": "A#6",
                    "midi": 94,
                    "time": 290.6250000000003,
                    "velocity": 0.4881889763779528,
                    "duration": 0.140625
                },
                {
                    "name": "A#5",
                    "midi": 82,
                    "time": 290.6250000000003,
                    "velocity": 0.4881889763779528,
                    "duration": 0.140625
                },
                {
                    "name": "A#6",
                    "midi": 94,
                    "time": 290.8125000000003,
                    "velocity": 0.4881889763779528,
                    "duration": 0.140625
                },
                {
                    "name": "A#5",
                    "midi": 82,
                    "time": 290.8125000000003,
                    "velocity": 0.4881889763779528,
                    "duration": 0.140625
                },
                {
                    "name": "G#6",
                    "midi": 92,
                    "time": 291.0000000000003,
                    "velocity": 0.49606299212598426,
                    "duration": 0.140625
                },
                {
                    "name": "G#5",
                    "midi": 80,
                    "time": 291.0000000000003,
                    "velocity": 0.49606299212598426,
                    "duration": 0.140625
                },
                {
                    "name": "G#6",
                    "midi": 92,
                    "time": 291.1875000000003,
                    "velocity": 0.49606299212598426,
                    "duration": 0.140625
                },
                {
                    "name": "G#5",
                    "midi": 80,
                    "time": 291.1875000000003,
                    "velocity": 0.49606299212598426,
                    "duration": 0.140625
                },
                {
                    "name": "G6",
                    "midi": 91,
                    "time": 291.3750000000003,
                    "velocity": 0.4881889763779528,
                    "duration": 0.140625
                },
                {
                    "name": "G5",
                    "midi": 79,
                    "time": 291.3750000000003,
                    "velocity": 0.4881889763779528,
                    "duration": 0.140625
                },
                {
                    "name": "G6",
                    "midi": 91,
                    "time": 291.5625000000003,
                    "velocity": 0.4881889763779528,
                    "duration": 0.140625
                },
                {
                    "name": "G5",
                    "midi": 79,
                    "time": 291.5625000000003,
                    "velocity": 0.4881889763779528,
                    "duration": 0.140625
                },
                {
                    "name": "G#6",
                    "midi": 92,
                    "time": 291.7500000000003,
                    "velocity": 0.4881889763779528,
                    "duration": 0.140625
                },
                {
                    "name": "G#5",
                    "midi": 80,
                    "time": 291.7500000000003,
                    "velocity": 0.4881889763779528,
                    "duration": 0.140625
                },
                {
                    "name": "G#6",
                    "midi": 92,
                    "time": 291.9375000000003,
                    "velocity": 0.4881889763779528,
                    "duration": 0.140625
                },
                {
                    "name": "G#5",
                    "midi": 80,
                    "time": 291.9375000000003,
                    "velocity": 0.4881889763779528,
                    "duration": 0.140625
                },
                {
                    "name": "A#6",
                    "midi": 94,
                    "time": 292.1250000000003,
                    "velocity": 0.5196850393700787,
                    "duration": 0.140625
                },
                {
                    "name": "A#5",
                    "midi": 82,
                    "time": 292.1250000000003,
                    "velocity": 0.5196850393700787,
                    "duration": 0.140625
                },
                {
                    "name": "A#6",
                    "midi": 94,
                    "time": 292.3125000000003,
                    "velocity": 0.5196850393700787,
                    "duration": 0.140625
                },
                {
                    "name": "A#5",
                    "midi": 82,
                    "time": 292.3125000000003,
                    "velocity": 0.5196850393700787,
                    "duration": 0.140625
                },
                {
                    "name": "D#6",
                    "midi": 87,
                    "time": 292.5000000000003,
                    "velocity": 0.4881889763779528,
                    "duration": 0.140625
                },
                {
                    "name": "D#5",
                    "midi": 75,
                    "time": 292.5000000000003,
                    "velocity": 0.4881889763779528,
                    "duration": 0.140625
                },
                {
                    "name": "D#6",
                    "midi": 87,
                    "time": 292.6875000000003,
                    "velocity": 0.4881889763779528,
                    "duration": 0.140625
                },
                {
                    "name": "D#5",
                    "midi": 75,
                    "time": 292.6875000000003,
                    "velocity": 0.4881889763779528,
                    "duration": 0.140625
                },
                {
                    "name": "D#6",
                    "midi": 87,
                    "time": 292.8750000000003,
                    "velocity": 0.4881889763779528,
                    "duration": 0.140625
                },
                {
                    "name": "D#5",
                    "midi": 75,
                    "time": 292.8750000000003,
                    "velocity": 0.4881889763779528,
                    "duration": 0.140625
                },
                {
                    "name": "D#6",
                    "midi": 87,
                    "time": 293.0625000000003,
                    "velocity": 0.4881889763779528,
                    "duration": 0.140625
                },
                {
                    "name": "D#5",
                    "midi": 75,
                    "time": 293.0625000000003,
                    "velocity": 0.4881889763779528,
                    "duration": 0.140625
                },
                {
                    "name": "E6",
                    "midi": 88,
                    "time": 293.2500000000003,
                    "velocity": 0.5039370078740157,
                    "duration": 0.140625
                },
                {
                    "name": "E5",
                    "midi": 76,
                    "time": 293.2500000000003,
                    "velocity": 0.5039370078740157,
                    "duration": 0.140625
                },
                {
                    "name": "E6",
                    "midi": 88,
                    "time": 293.4375000000003,
                    "velocity": 0.5039370078740157,
                    "duration": 0.140625
                },
                {
                    "name": "E5",
                    "midi": 76,
                    "time": 293.4375000000003,
                    "velocity": 0.5039370078740157,
                    "duration": 0.140625
                },
                {
                    "name": "D#6",
                    "midi": 87,
                    "time": 293.6250000000003,
                    "velocity": 0.5039370078740157,
                    "duration": 0.140625
                },
                {
                    "name": "D#5",
                    "midi": 75,
                    "time": 293.6250000000003,
                    "velocity": 0.5039370078740157,
                    "duration": 0.140625
                },
                {
                    "name": "D#6",
                    "midi": 87,
                    "time": 293.8125000000003,
                    "velocity": 0.4881889763779528,
                    "duration": 0.140625
                },
                {
                    "name": "D#5",
                    "midi": 75,
                    "time": 293.8125000000003,
                    "velocity": 0.4881889763779528,
                    "duration": 0.140625
                },
                {
                    "name": "C#6",
                    "midi": 85,
                    "time": 294.0000000000003,
                    "velocity": 0.4881889763779528,
                    "duration": 0.140625
                },
                {
                    "name": "C#5",
                    "midi": 73,
                    "time": 294.0000000000003,
                    "velocity": 0.4881889763779528,
                    "duration": 0.140625
                },
                {
                    "name": "C#6",
                    "midi": 85,
                    "time": 294.1875000000003,
                    "velocity": 0.4881889763779528,
                    "duration": 0.140625
                },
                {
                    "name": "C#5",
                    "midi": 73,
                    "time": 294.1875000000003,
                    "velocity": 0.4881889763779528,
                    "duration": 0.140625
                },
                {
                    "name": "B5",
                    "midi": 83,
                    "time": 294.3750000000003,
                    "velocity": 0.49606299212598426,
                    "duration": 0.140625
                },
                {
                    "name": "B4",
                    "midi": 71,
                    "time": 294.3750000000003,
                    "velocity": 0.49606299212598426,
                    "duration": 0.140625
                },
                {
                    "name": "B5",
                    "midi": 83,
                    "time": 294.5625000000003,
                    "velocity": 0.49606299212598426,
                    "duration": 0.140625
                },
                {
                    "name": "B4",
                    "midi": 71,
                    "time": 294.5625000000003,
                    "velocity": 0.49606299212598426,
                    "duration": 0.140625
                },
                {
                    "name": "B5",
                    "midi": 83,
                    "time": 294.7500000000003,
                    "velocity": 0.49606299212598426,
                    "duration": 0.140625
                },
                {
                    "name": "B4",
                    "midi": 71,
                    "time": 294.7500000000003,
                    "velocity": 0.49606299212598426,
                    "duration": 0.140625
                },
                {
                    "name": "B5",
                    "midi": 83,
                    "time": 294.9375000000003,
                    "velocity": 0.4881889763779528,
                    "duration": 0.140625
                },
                {
                    "name": "B4",
                    "midi": 71,
                    "time": 294.9375000000003,
                    "velocity": 0.4881889763779528,
                    "duration": 0.140625
                },
                {
                    "name": "A#5",
                    "midi": 82,
                    "time": 295.1250000000003,
                    "velocity": 0.49606299212598426,
                    "duration": 0.140625
                },
                {
                    "name": "A#4",
                    "midi": 70,
                    "time": 295.1250000000003,
                    "velocity": 0.49606299212598426,
                    "duration": 0.140625
                },
                {
                    "name": "A#5",
                    "midi": 82,
                    "time": 295.3125000000003,
                    "velocity": 0.49606299212598426,
                    "duration": 0.140625
                },
                {
                    "name": "A#4",
                    "midi": 70,
                    "time": 295.3125000000003,
                    "velocity": 0.49606299212598426,
                    "duration": 0.140625
                },
                {
                    "name": "G#5",
                    "midi": 80,
                    "time": 295.5000000000003,
                    "velocity": 0.5118110236220472,
                    "duration": 0.140625
                },
                {
                    "name": "G#4",
                    "midi": 68,
                    "time": 295.5000000000003,
                    "velocity": 0.5118110236220472,
                    "duration": 0.140625
                },
                {
                    "name": "G#5",
                    "midi": 80,
                    "time": 295.6875000000003,
                    "velocity": 0.5118110236220472,
                    "duration": 0.140625
                },
                {
                    "name": "G#4",
                    "midi": 68,
                    "time": 295.6875000000003,
                    "velocity": 0.5118110236220472,
                    "duration": 0.140625
                },
                {
                    "name": "G5",
                    "midi": 79,
                    "time": 295.8750000000003,
                    "velocity": 0.4881889763779528,
                    "duration": 0.140625
                },
                {
                    "name": "G4",
                    "midi": 67,
                    "time": 295.8750000000003,
                    "velocity": 0.4881889763779528,
                    "duration": 0.140625
                },
                {
                    "name": "G5",
                    "midi": 79,
                    "time": 296.0625000000003,
                    "velocity": 0.4881889763779528,
                    "duration": 0.140625
                },
                {
                    "name": "G4",
                    "midi": 67,
                    "time": 296.0625000000003,
                    "velocity": 0.4881889763779528,
                    "duration": 0.140625
                },
                {
                    "name": "G#5",
                    "midi": 80,
                    "time": 296.2500000000003,
                    "velocity": 0.49606299212598426,
                    "duration": 0.140625
                },
                {
                    "name": "G#4",
                    "midi": 68,
                    "time": 296.2500000000003,
                    "velocity": 0.49606299212598426,
                    "duration": 0.140625
                },
                {
                    "name": "G#5",
                    "midi": 80,
                    "time": 296.4375000000003,
                    "velocity": 0.49606299212598426,
                    "duration": 0.140625
                },
                {
                    "name": "G#4",
                    "midi": 68,
                    "time": 296.4375000000003,
                    "velocity": 0.49606299212598426,
                    "duration": 0.140625
                },
                {
                    "name": "A#5",
                    "midi": 82,
                    "time": 296.6250000000003,
                    "velocity": 0.5118110236220472,
                    "duration": 0.140625
                },
                {
                    "name": "A#4",
                    "midi": 70,
                    "time": 296.6250000000003,
                    "velocity": 0.5118110236220472,
                    "duration": 0.140625
                },
                {
                    "name": "A#5",
                    "midi": 82,
                    "time": 296.8125000000003,
                    "velocity": 0.5039370078740157,
                    "duration": 0.140625
                },
                {
                    "name": "A#4",
                    "midi": 70,
                    "time": 296.8125000000003,
                    "velocity": 0.5039370078740157,
                    "duration": 0.140625
                },
                {
                    "name": "D#4",
                    "midi": 63,
                    "time": 297.0000000000003,
                    "velocity": 0.4645669291338583,
                    "duration": 0.140625
                },
                {
                    "name": "D#5",
                    "midi": 75,
                    "time": 297.0000000000003,
                    "velocity": 0.4645669291338583,
                    "duration": 0.140625
                },
                {
                    "name": "D#5",
                    "midi": 75,
                    "time": 297.1875000000003,
                    "velocity": 0.4645669291338583,
                    "duration": 0.140625
                },
                {
                    "name": "D#4",
                    "midi": 63,
                    "time": 297.1875000000003,
                    "velocity": 0.4645669291338583,
                    "duration": 0.140625
                },
                {
                    "name": "D#6",
                    "midi": 87,
                    "time": 297.3750000000003,
                    "velocity": 0.49606299212598426,
                    "duration": 0.140625
                },
                {
                    "name": "D#5",
                    "midi": 75,
                    "time": 297.3750000000003,
                    "velocity": 0.49606299212598426,
                    "duration": 0.140625
                },
                {
                    "name": "D#6",
                    "midi": 87,
                    "time": 297.5625000000003,
                    "velocity": 0.49606299212598426,
                    "duration": 0.140625
                },
                {
                    "name": "D#5",
                    "midi": 75,
                    "time": 297.5625000000003,
                    "velocity": 0.49606299212598426,
                    "duration": 0.140625
                },
                {
                    "name": "D#7",
                    "midi": 99,
                    "time": 297.7500000000003,
                    "velocity": 0.6062992125984252,
                    "duration": 0.140625
                },
                {
                    "name": "D#6",
                    "midi": 87,
                    "time": 297.7500000000003,
                    "velocity": 0.6062992125984252,
                    "duration": 0.140625
                },
                {
                    "name": "D#6",
                    "midi": 87,
                    "time": 297.9375000000003,
                    "velocity": 0.6062992125984252,
                    "duration": 0.140625
                },
                {
                    "name": "D#7",
                    "midi": 99,
                    "time": 297.9375000000003,
                    "velocity": 0.6062992125984252,
                    "duration": 0.140625
                },
                {
                    "name": "D#7",
                    "midi": 99,
                    "time": 298.1250000000003,
                    "velocity": 0.6062992125984252,
                    "duration": 0.140625
                },
                {
                    "name": "D#6",
                    "midi": 87,
                    "time": 298.1250000000003,
                    "velocity": 0.6062992125984252,
                    "duration": 0.140625
                },
                {
                    "name": "D#7",
                    "midi": 99,
                    "time": 298.3125000000003,
                    "velocity": 0.6062992125984252,
                    "duration": 0.140625
                },
                {
                    "name": "D#6",
                    "midi": 87,
                    "time": 298.3125000000003,
                    "velocity": 0.6062992125984252,
                    "duration": 0.140625
                },
                {
                    "name": "C#7",
                    "midi": 97,
                    "time": 298.5000000000003,
                    "velocity": 0.5905511811023622,
                    "duration": 0.140625
                },
                {
                    "name": "C#6",
                    "midi": 85,
                    "time": 298.5000000000003,
                    "velocity": 0.5905511811023622,
                    "duration": 0.140625
                },
                {
                    "name": "C#6",
                    "midi": 85,
                    "time": 298.6875000000003,
                    "velocity": 0.5905511811023622,
                    "duration": 0.140625
                },
                {
                    "name": "C#7",
                    "midi": 97,
                    "time": 298.6875000000003,
                    "velocity": 0.5905511811023622,
                    "duration": 0.140625
                },
                {
                    "name": "C7",
                    "midi": 96,
                    "time": 298.8750000000003,
                    "velocity": 0.5905511811023622,
                    "duration": 0.140625
                },
                {
                    "name": "C6",
                    "midi": 84,
                    "time": 298.8750000000003,
                    "velocity": 0.5905511811023622,
                    "duration": 0.140625
                },
                {
                    "name": "C6",
                    "midi": 84,
                    "time": 299.0625000000003,
                    "velocity": 0.5905511811023622,
                    "duration": 0.140625
                },
                {
                    "name": "C7",
                    "midi": 96,
                    "time": 299.0625000000003,
                    "velocity": 0.5905511811023622,
                    "duration": 0.140625
                },
                {
                    "name": "C6",
                    "midi": 84,
                    "time": 299.2500000000003,
                    "velocity": 0.5669291338582677,
                    "duration": 0.140625
                },
                {
                    "name": "C7",
                    "midi": 96,
                    "time": 299.2500000000003,
                    "velocity": 0.5669291338582677,
                    "duration": 0.140625
                },
                {
                    "name": "C6",
                    "midi": 84,
                    "time": 299.4375000000003,
                    "velocity": 0.5669291338582677,
                    "duration": 0.140625
                },
                {
                    "name": "C7",
                    "midi": 96,
                    "time": 299.4375000000003,
                    "velocity": 0.5669291338582677,
                    "duration": 0.140625
                },
                {
                    "name": "A6",
                    "midi": 93,
                    "time": 299.6250000000003,
                    "velocity": 0.5590551181102362,
                    "duration": 0.140625
                },
                {
                    "name": "A5",
                    "midi": 81,
                    "time": 299.6250000000003,
                    "velocity": 0.5590551181102362,
                    "duration": 0.140625
                },
                {
                    "name": "A5",
                    "midi": 81,
                    "time": 299.8125000000003,
                    "velocity": 0.5590551181102362,
                    "duration": 0.140625
                },
                {
                    "name": "A6",
                    "midi": 93,
                    "time": 299.8125000000003,
                    "velocity": 0.5590551181102362,
                    "duration": 0.140625
                },
                {
                    "name": "G#6",
                    "midi": 92,
                    "time": 300.0000000000003,
                    "velocity": 0.5748031496062992,
                    "duration": 0.140625
                },
                {
                    "name": "G#5",
                    "midi": 80,
                    "time": 300.0000000000003,
                    "velocity": 0.5748031496062992,
                    "duration": 0.140625
                },
                {
                    "name": "G#5",
                    "midi": 80,
                    "time": 300.1875000000003,
                    "velocity": 0.5748031496062992,
                    "duration": 0.140625
                },
                {
                    "name": "G#6",
                    "midi": 92,
                    "time": 300.1875000000003,
                    "velocity": 0.5748031496062992,
                    "duration": 0.140625
                },
                {
                    "name": "G#6",
                    "midi": 92,
                    "time": 300.3750000000003,
                    "velocity": 0.5748031496062992,
                    "duration": 0.140625
                },
                {
                    "name": "G#5",
                    "midi": 80,
                    "time": 300.3750000000003,
                    "velocity": 0.5748031496062992,
                    "duration": 0.140625
                },
                {
                    "name": "G#5",
                    "midi": 80,
                    "time": 300.5625000000003,
                    "velocity": 0.5748031496062992,
                    "duration": 0.140625
                },
                {
                    "name": "G#6",
                    "midi": 92,
                    "time": 300.5625000000003,
                    "velocity": 0.5748031496062992,
                    "duration": 0.140625
                },
                {
                    "name": "F#6",
                    "midi": 90,
                    "time": 300.7500000000003,
                    "velocity": 0.5984251968503937,
                    "duration": 0.140625
                },
                {
                    "name": "F#5",
                    "midi": 78,
                    "time": 300.7500000000003,
                    "velocity": 0.5984251968503937,
                    "duration": 0.140625
                },
                {
                    "name": "F#5",
                    "midi": 78,
                    "time": 300.9375000000003,
                    "velocity": 0.5984251968503937,
                    "duration": 0.140625
                },
                {
                    "name": "F#6",
                    "midi": 90,
                    "time": 300.9375000000003,
                    "velocity": 0.5984251968503937,
                    "duration": 0.140625
                },
                {
                    "name": "E6",
                    "midi": 88,
                    "time": 301.1250000000003,
                    "velocity": 0.6377952755905512,
                    "duration": 0.375
                },
                {
                    "name": "E5",
                    "midi": 76,
                    "time": 301.1250000000003,
                    "velocity": 0.6377952755905512,
                    "duration": 0.375
                },
                {
                    "name": "E4",
                    "midi": 64,
                    "time": 301.5000000000003,
                    "velocity": 0.3858267716535433,
                    "duration": 0.140625
                },
                {
                    "name": "A4",
                    "midi": 69,
                    "time": 301.5000000000003,
                    "velocity": 0.3858267716535433,
                    "duration": 0.140625
                },
                {
                    "name": "C#5",
                    "midi": 73,
                    "time": 301.5000000000003,
                    "velocity": 0.4251968503937008,
                    "duration": 0.140625
                },
                {
                    "name": "E4",
                    "midi": 64,
                    "time": 301.6875000000003,
                    "velocity": 0.3858267716535433,
                    "duration": 0.140625
                },
                {
                    "name": "A4",
                    "midi": 69,
                    "time": 301.6875000000003,
                    "velocity": 0.3858267716535433,
                    "duration": 0.140625
                },
                {
                    "name": "C#5",
                    "midi": 73,
                    "time": 301.6875000000003,
                    "velocity": 0.4251968503937008,
                    "duration": 0.140625
                },
                {
                    "name": "E4",
                    "midi": 64,
                    "time": 301.8750000000003,
                    "velocity": 0.4015748031496063,
                    "duration": 0.140625
                },
                {
                    "name": "A4",
                    "midi": 69,
                    "time": 301.8750000000003,
                    "velocity": 0.4015748031496063,
                    "duration": 0.140625
                },
                {
                    "name": "D#5",
                    "midi": 75,
                    "time": 301.8750000000003,
                    "velocity": 0.4409448818897638,
                    "duration": 0.140625
                },
                {
                    "name": "E4",
                    "midi": 64,
                    "time": 302.0625000000003,
                    "velocity": 0.4015748031496063,
                    "duration": 0.140625
                },
                {
                    "name": "A4",
                    "midi": 69,
                    "time": 302.0625000000003,
                    "velocity": 0.4015748031496063,
                    "duration": 0.140625
                },
                {
                    "name": "D#5",
                    "midi": 75,
                    "time": 302.0625000000003,
                    "velocity": 0.4409448818897638,
                    "duration": 0.140625
                },
                {
                    "name": "E4",
                    "midi": 64,
                    "time": 302.2500000000003,
                    "velocity": 0.4251968503937008,
                    "duration": 0.140625
                },
                {
                    "name": "A4",
                    "midi": 69,
                    "time": 302.2500000000003,
                    "velocity": 0.4251968503937008,
                    "duration": 0.140625
                },
                {
                    "name": "E5",
                    "midi": 76,
                    "time": 302.2500000000003,
                    "velocity": 0.4881889763779528,
                    "duration": 0.140625
                },
                {
                    "name": "E4",
                    "midi": 64,
                    "time": 302.4375000000003,
                    "velocity": 0.4251968503937008,
                    "duration": 0.140625
                },
                {
                    "name": "A4",
                    "midi": 69,
                    "time": 302.4375000000003,
                    "velocity": 0.4251968503937008,
                    "duration": 0.140625
                },
                {
                    "name": "E5",
                    "midi": 76,
                    "time": 302.4375000000003,
                    "velocity": 0.4881889763779528,
                    "duration": 0.140625
                },
                {
                    "name": "E4",
                    "midi": 64,
                    "time": 302.6250000000003,
                    "velocity": 0.41732283464566927,
                    "duration": 0.140625
                },
                {
                    "name": "A4",
                    "midi": 69,
                    "time": 302.6250000000003,
                    "velocity": 0.41732283464566927,
                    "duration": 0.140625
                },
                {
                    "name": "D#5",
                    "midi": 75,
                    "time": 302.6250000000003,
                    "velocity": 0.47244094488188976,
                    "duration": 0.140625
                },
                {
                    "name": "E4",
                    "midi": 64,
                    "time": 302.8125000000003,
                    "velocity": 0.41732283464566927,
                    "duration": 0.140625
                },
                {
                    "name": "A4",
                    "midi": 69,
                    "time": 302.8125000000003,
                    "velocity": 0.41732283464566927,
                    "duration": 0.140625
                },
                {
                    "name": "D#5",
                    "midi": 75,
                    "time": 302.8125000000003,
                    "velocity": 0.47244094488188976,
                    "duration": 0.140625
                },
                {
                    "name": "E4",
                    "midi": 64,
                    "time": 303.0000000000003,
                    "velocity": 0.3937007874015748,
                    "duration": 0.140625
                },
                {
                    "name": "A4",
                    "midi": 69,
                    "time": 303.0000000000003,
                    "velocity": 0.3937007874015748,
                    "duration": 0.140625
                },
                {
                    "name": "C#5",
                    "midi": 73,
                    "time": 303.0000000000003,
                    "velocity": 0.4330708661417323,
                    "duration": 0.140625
                },
                {
                    "name": "E4",
                    "midi": 64,
                    "time": 303.1875000000003,
                    "velocity": 0.3937007874015748,
                    "duration": 0.140625
                },
                {
                    "name": "A4",
                    "midi": 69,
                    "time": 303.1875000000003,
                    "velocity": 0.3937007874015748,
                    "duration": 0.140625
                },
                {
                    "name": "C#5",
                    "midi": 73,
                    "time": 303.1875000000003,
                    "velocity": 0.4330708661417323,
                    "duration": 0.140625
                },
                {
                    "name": "D#4",
                    "midi": 63,
                    "time": 303.3750000000003,
                    "velocity": 0.3543307086614173,
                    "duration": 0.1875
                },
                {
                    "name": "G#4",
                    "midi": 68,
                    "time": 303.3750000000003,
                    "velocity": 0.3543307086614173,
                    "duration": 0.1875
                },
                {
                    "name": "B4",
                    "midi": 71,
                    "time": 303.3750000000003,
                    "velocity": 0.3543307086614173,
                    "duration": 0.1875
                },
                {
                    "name": "D#5",
                    "midi": 75,
                    "time": 303.3750000000003,
                    "velocity": 0.4094488188976378,
                    "duration": 0.1875
                },
                {
                    "name": "E4",
                    "midi": 64,
                    "time": 303.5625000000003,
                    "velocity": 0.4251968503937008,
                    "duration": 0.1875
                },
                {
                    "name": "E5",
                    "midi": 76,
                    "time": 303.5625000000003,
                    "velocity": 0.4251968503937008,
                    "duration": 0.1875
                },
                {
                    "name": "F4",
                    "midi": 65,
                    "time": 303.7500000000003,
                    "velocity": 0.4251968503937008,
                    "duration": 0.1875
                },
                {
                    "name": "F5",
                    "midi": 77,
                    "time": 303.7500000000003,
                    "velocity": 0.4251968503937008,
                    "duration": 0.1875
                },
                {
                    "name": "F#4",
                    "midi": 66,
                    "time": 303.9375000000003,
                    "velocity": 0.4330708661417323,
                    "duration": 0.1875
                },
                {
                    "name": "F#5",
                    "midi": 78,
                    "time": 303.9375000000003,
                    "velocity": 0.4330708661417323,
                    "duration": 0.1875
                },
                {
                    "name": "G4",
                    "midi": 67,
                    "time": 304.1250000000003,
                    "velocity": 0.44881889763779526,
                    "duration": 0.1875
                },
                {
                    "name": "G5",
                    "midi": 79,
                    "time": 304.1250000000003,
                    "velocity": 0.44881889763779526,
                    "duration": 0.1875
                },
                {
                    "name": "G#4",
                    "midi": 68,
                    "time": 304.3125000000003,
                    "velocity": 0.4645669291338583,
                    "duration": 0.1875
                },
                {
                    "name": "G#5",
                    "midi": 80,
                    "time": 304.3125000000003,
                    "velocity": 0.4645669291338583,
                    "duration": 0.1875
                },
                {
                    "name": "A4",
                    "midi": 69,
                    "time": 304.5000000000003,
                    "velocity": 0.47244094488188976,
                    "duration": 0.1875
                },
                {
                    "name": "A5",
                    "midi": 81,
                    "time": 304.5000000000003,
                    "velocity": 0.47244094488188976,
                    "duration": 0.1875
                },
                {
                    "name": "A#4",
                    "midi": 70,
                    "time": 304.6875000000003,
                    "velocity": 0.4881889763779528,
                    "duration": 0.1875
                },
                {
                    "name": "A#5",
                    "midi": 82,
                    "time": 304.6875000000003,
                    "velocity": 0.4881889763779528,
                    "duration": 0.1875
                },
                {
                    "name": "B4",
                    "midi": 71,
                    "time": 304.8750000000003,
                    "velocity": 0.49606299212598426,
                    "duration": 0.1875
                },
                {
                    "name": "B5",
                    "midi": 83,
                    "time": 304.8750000000003,
                    "velocity": 0.49606299212598426,
                    "duration": 0.1875
                },
                {
                    "name": "C5",
                    "midi": 72,
                    "time": 305.0625000000003,
                    "velocity": 0.5039370078740157,
                    "duration": 0.1875
                },
                {
                    "name": "C6",
                    "midi": 84,
                    "time": 305.0625000000003,
                    "velocity": 0.5039370078740157,
                    "duration": 0.1875
                },
                {
                    "name": "C#5",
                    "midi": 73,
                    "time": 305.2500000000003,
                    "velocity": 0.5196850393700787,
                    "duration": 0.1875
                },
                {
                    "name": "C#6",
                    "midi": 85,
                    "time": 305.2500000000003,
                    "velocity": 0.5196850393700787,
                    "duration": 0.1875
                },
                {
                    "name": "D5",
                    "midi": 74,
                    "time": 305.4375000000003,
                    "velocity": 0.5275590551181102,
                    "duration": 0.1875
                },
                {
                    "name": "D6",
                    "midi": 86,
                    "time": 305.4375000000003,
                    "velocity": 0.5275590551181102,
                    "duration": 0.1875
                },
                {
                    "name": "D#5",
                    "midi": 75,
                    "time": 305.6250000000003,
                    "velocity": 0.4881889763779528,
                    "duration": 0.1875
                },
                {
                    "name": "G5",
                    "midi": 79,
                    "time": 305.6250000000003,
                    "velocity": 0.4881889763779528,
                    "duration": 0.1875
                },
                {
                    "name": "A#5",
                    "midi": 82,
                    "time": 305.6250000000003,
                    "velocity": 0.4881889763779528,
                    "duration": 0.1875
                },
                {
                    "name": "D#6",
                    "midi": 87,
                    "time": 305.6250000000003,
                    "velocity": 0.4881889763779528,
                    "duration": 0.1875
                },
                {
                    "name": "E5",
                    "midi": 76,
                    "time": 305.8125000000003,
                    "velocity": 0.5590551181102362,
                    "duration": 0.1875
                },
                {
                    "name": "E6",
                    "midi": 88,
                    "time": 305.8125000000003,
                    "velocity": 0.5590551181102362,
                    "duration": 0.1875
                },
                {
                    "name": "F5",
                    "midi": 77,
                    "time": 306.0000000000003,
                    "velocity": 0.5669291338582677,
                    "duration": 0.1875
                },
                {
                    "name": "F6",
                    "midi": 89,
                    "time": 306.0000000000003,
                    "velocity": 0.5669291338582677,
                    "duration": 0.1875
                },
                {
                    "name": "F#5",
                    "midi": 78,
                    "time": 306.1875000000003,
                    "velocity": 0.5669291338582677,
                    "duration": 0.1875
                },
                {
                    "name": "F#6",
                    "midi": 90,
                    "time": 306.1875000000003,
                    "velocity": 0.5669291338582677,
                    "duration": 0.1875
                },
                {
                    "name": "G5",
                    "midi": 79,
                    "time": 306.3750000000003,
                    "velocity": 0.5905511811023622,
                    "duration": 0.1875
                },
                {
                    "name": "G6",
                    "midi": 91,
                    "time": 306.3750000000003,
                    "velocity": 0.5905511811023622,
                    "duration": 0.1875
                },
                {
                    "name": "G#5",
                    "midi": 80,
                    "time": 306.5625000000003,
                    "velocity": 0.5984251968503937,
                    "duration": 0.1875
                },
                {
                    "name": "G#6",
                    "midi": 92,
                    "time": 306.5625000000003,
                    "velocity": 0.5984251968503937,
                    "duration": 0.1875
                },
                {
                    "name": "A5",
                    "midi": 81,
                    "time": 306.7500000000003,
                    "velocity": 0.6062992125984252,
                    "duration": 0.1875
                },
                {
                    "name": "A6",
                    "midi": 93,
                    "time": 306.7500000000003,
                    "velocity": 0.6062992125984252,
                    "duration": 0.1875
                },
                {
                    "name": "A#5",
                    "midi": 82,
                    "time": 306.9375000000003,
                    "velocity": 0.6220472440944882,
                    "duration": 0.1875
                },
                {
                    "name": "A#6",
                    "midi": 94,
                    "time": 306.9375000000003,
                    "velocity": 0.6220472440944882,
                    "duration": 0.1875
                },
                {
                    "name": "B5",
                    "midi": 83,
                    "time": 307.1250000000003,
                    "velocity": 0.6377952755905512,
                    "duration": 0.1875
                },
                {
                    "name": "B6",
                    "midi": 95,
                    "time": 307.1250000000003,
                    "velocity": 0.6377952755905512,
                    "duration": 0.1875
                },
                {
                    "name": "C#6",
                    "midi": 85,
                    "time": 307.3125000000003,
                    "velocity": 0.6535433070866141,
                    "duration": 0.1875
                },
                {
                    "name": "C#7",
                    "midi": 97,
                    "time": 307.3125000000003,
                    "velocity": 0.6535433070866141,
                    "duration": 0.1875
                },
                {
                    "name": "D6",
                    "midi": 86,
                    "time": 307.5000000000003,
                    "velocity": 0.6771653543307087,
                    "duration": 0.1875
                },
                {
                    "name": "D7",
                    "midi": 98,
                    "time": 307.5000000000003,
                    "velocity": 0.6771653543307087,
                    "duration": 0.1875
                },
                {
                    "name": "D#6",
                    "midi": 87,
                    "time": 307.6875000000003,
                    "velocity": 0.7086614173228346,
                    "duration": 0.171875
                },
                {
                    "name": "D#7",
                    "midi": 99,
                    "time": 307.6875000000003,
                    "velocity": 0.7086614173228346,
                    "duration": 0.171875
                },
                {
                    "name": "B3",
                    "midi": 59,
                    "time": 307.8750000000003,
                    "velocity": 0.7007874015748031,
                    "duration": 0.375
                },
                {
                    "name": "D#4",
                    "midi": 63,
                    "time": 307.8750000000003,
                    "velocity": 0.7007874015748031,
                    "duration": 0.375
                },
                {
                    "name": "G#4",
                    "midi": 68,
                    "time": 307.8750000000003,
                    "velocity": 0.7795275590551181,
                    "duration": 0.375
                },
                {
                    "name": "B5",
                    "midi": 83,
                    "time": 308.6250000000003,
                    "velocity": 0.7007874015748031,
                    "duration": 0.28125
                },
                {
                    "name": "D#5",
                    "midi": 75,
                    "time": 308.6250000000003,
                    "velocity": 0.5826771653543307,
                    "duration": 0.28125
                },
                {
                    "name": "B4",
                    "midi": 71,
                    "time": 308.6250000000003,
                    "velocity": 0.5826771653543307,
                    "duration": 0.28125
                },
                {
                    "name": "A#5",
                    "midi": 82,
                    "time": 309.0000000000003,
                    "velocity": 0.6299212598425197,
                    "duration": 0.1875
                },
                {
                    "name": "D#5",
                    "midi": 75,
                    "time": 309.0000000000003,
                    "velocity": 0.5354330708661418,
                    "duration": 0.1875
                },
                {
                    "name": "A#4",
                    "midi": 70,
                    "time": 309.0000000000003,
                    "velocity": 0.5354330708661418,
                    "duration": 0.1875
                },
                {
                    "name": "B4",
                    "midi": 71,
                    "time": 309.1875000000003,
                    "velocity": 0.5354330708661418,
                    "duration": 0.1875
                },
                {
                    "name": "B5",
                    "midi": 83,
                    "time": 309.1875000000003,
                    "velocity": 0.6299212598425197,
                    "duration": 0.1875
                },
                {
                    "name": "C#6",
                    "midi": 85,
                    "time": 309.3750000000003,
                    "velocity": 0.7086614173228346,
                    "duration": 0.28125
                },
                {
                    "name": "C#5",
                    "midi": 73,
                    "time": 309.3750000000003,
                    "velocity": 0.5905511811023622,
                    "duration": 0.28125
                },
                {
                    "name": "D#5",
                    "midi": 75,
                    "time": 309.7500000000003,
                    "velocity": 0.5354330708661418,
                    "duration": 0.1875
                },
                {
                    "name": "B5",
                    "midi": 83,
                    "time": 309.7500000000003,
                    "velocity": 0.6299212598425197,
                    "duration": 0.1875
                },
                {
                    "name": "B4",
                    "midi": 71,
                    "time": 309.7500000000003,
                    "velocity": 0.5354330708661418,
                    "duration": 0.1875
                },
                {
                    "name": "A#5",
                    "midi": 82,
                    "time": 309.9375000000003,
                    "velocity": 0.6299212598425197,
                    "duration": 0.1875
                },
                {
                    "name": "A#4",
                    "midi": 70,
                    "time": 309.9375000000003,
                    "velocity": 0.5354330708661418,
                    "duration": 0.1875
                },
                {
                    "name": "B5",
                    "midi": 83,
                    "time": 310.1250000000003,
                    "velocity": 0.6377952755905512,
                    "duration": 0.1875
                },
                {
                    "name": "D#5",
                    "midi": 75,
                    "time": 310.1250000000003,
                    "velocity": 0.5354330708661418,
                    "duration": 0.1875
                },
                {
                    "name": "B4",
                    "midi": 71,
                    "time": 310.1250000000003,
                    "velocity": 0.5354330708661418,
                    "duration": 0.1875
                },
                {
                    "name": "C#6",
                    "midi": 85,
                    "time": 310.3125000000003,
                    "velocity": 0.6614173228346457,
                    "duration": 0.1875
                },
                {
                    "name": "C#5",
                    "midi": 73,
                    "time": 310.3125000000003,
                    "velocity": 0.5590551181102362,
                    "duration": 0.1875
                },
                {
                    "name": "D#5",
                    "midi": 75,
                    "time": 310.5000000000003,
                    "velocity": 0.6062992125984252,
                    "duration": 0.28125
                },
                {
                    "name": "D#6",
                    "midi": 87,
                    "time": 310.5000000000003,
                    "velocity": 0.7165354330708661,
                    "duration": 0.28125
                },
                {
                    "name": "C#6",
                    "midi": 85,
                    "time": 310.8750000000003,
                    "velocity": 0.6535433070866141,
                    "duration": 0.1875
                },
                {
                    "name": "C#5",
                    "midi": 73,
                    "time": 310.8750000000003,
                    "velocity": 0.5511811023622047,
                    "duration": 0.1875
                },
                {
                    "name": "B4",
                    "midi": 71,
                    "time": 311.0625000000003,
                    "velocity": 0.5433070866141733,
                    "duration": 0.1875
                },
                {
                    "name": "B5",
                    "midi": 83,
                    "time": 311.0625000000003,
                    "velocity": 0.6456692913385826,
                    "duration": 0.1875
                },
                {
                    "name": "A#5",
                    "midi": 82,
                    "time": 311.2500000000003,
                    "velocity": 0.6377952755905512,
                    "duration": 0.1875
                },
                {
                    "name": "D#5",
                    "midi": 75,
                    "time": 311.2500000000003,
                    "velocity": 0.5354330708661418,
                    "duration": 0.1875
                },
                {
                    "name": "A#4",
                    "midi": 70,
                    "time": 311.2500000000003,
                    "velocity": 0.5354330708661418,
                    "duration": 0.1875
                },
                {
                    "name": "B5",
                    "midi": 83,
                    "time": 311.4375000000003,
                    "velocity": 0.6377952755905512,
                    "duration": 0.1875
                },
                {
                    "name": "B4",
                    "midi": 71,
                    "time": 311.4375000000003,
                    "velocity": 0.5354330708661418,
                    "duration": 0.1875
                },
                {
                    "name": "C#5",
                    "midi": 73,
                    "time": 311.6250000000003,
                    "velocity": 0.5826771653543307,
                    "duration": 0.28125
                },
                {
                    "name": "C#6",
                    "midi": 85,
                    "time": 311.6250000000003,
                    "velocity": 0.7007874015748031,
                    "duration": 0.28125
                },
                {
                    "name": "D#5",
                    "midi": 75,
                    "time": 312.0000000000003,
                    "velocity": 0.5354330708661418,
                    "duration": 0.1875
                },
                {
                    "name": "B5",
                    "midi": 83,
                    "time": 312.0000000000003,
                    "velocity": 0.6377952755905512,
                    "duration": 0.1875
                },
                {
                    "name": "B4",
                    "midi": 71,
                    "time": 312.0000000000003,
                    "velocity": 0.5354330708661418,
                    "duration": 0.1875
                },
                {
                    "name": "A#4",
                    "midi": 70,
                    "time": 312.1875000000003,
                    "velocity": 0.5354330708661418,
                    "duration": 0.1875
                },
                {
                    "name": "A#5",
                    "midi": 82,
                    "time": 312.1875000000003,
                    "velocity": 0.6377952755905512,
                    "duration": 0.1875
                },
                {
                    "name": "B4",
                    "midi": 71,
                    "time": 312.3750000000003,
                    "velocity": 0.4881889763779528,
                    "duration": 0.1875
                },
                {
                    "name": "D#5",
                    "midi": 75,
                    "time": 312.3750000000003,
                    "velocity": 0.4881889763779528,
                    "duration": 0.1875
                },
                {
                    "name": "B5",
                    "midi": 83,
                    "time": 312.3750000000003,
                    "velocity": 0.7007874015748031,
                    "duration": 0.1875
                },
                {
                    "name": "A#5",
                    "midi": 82,
                    "time": 312.5625000000003,
                    "velocity": 0.6535433070866141,
                    "duration": 0.1875
                },
                {
                    "name": "A#4",
                    "midi": 70,
                    "time": 312.5625000000003,
                    "velocity": 0.4645669291338583,
                    "duration": 0.1875
                },
                {
                    "name": "G#5",
                    "midi": 80,
                    "time": 312.7500000000003,
                    "velocity": 0.6535433070866141,
                    "duration": 0.375
                },
                {
                    "name": "G#4",
                    "midi": 68,
                    "time": 312.7500000000003,
                    "velocity": 0.4645669291338583,
                    "duration": 0.375
                },
                {
                    "name": "B6",
                    "midi": 95,
                    "time": 313.1250000000003,
                    "velocity": 0.7007874015748031,
                    "duration": 0.28125
                },
                {
                    "name": "D#6",
                    "midi": 87,
                    "time": 313.1250000000003,
                    "velocity": 0.4881889763779528,
                    "duration": 0.28125
                },
                {
                    "name": "B5",
                    "midi": 83,
                    "time": 313.1250000000003,
                    "velocity": 0.4881889763779528,
                    "duration": 0.28125
                },
                {
                    "name": "A#6",
                    "midi": 94,
                    "time": 313.5000000000003,
                    "velocity": 0.6377952755905512,
                    "duration": 0.1875
                },
                {
                    "name": "D#6",
                    "midi": 87,
                    "time": 313.5000000000003,
                    "velocity": 0.44881889763779526,
                    "duration": 0.1875
                },
                {
                    "name": "A#5",
                    "midi": 82,
                    "time": 313.5000000000003,
                    "velocity": 0.44881889763779526,
                    "duration": 0.1875
                },
                {
                    "name": "B5",
                    "midi": 83,
                    "time": 313.6875000000003,
                    "velocity": 0.44881889763779526,
                    "duration": 0.1875
                },
                {
                    "name": "B6",
                    "midi": 95,
                    "time": 313.6875000000003,
                    "velocity": 0.6377952755905512,
                    "duration": 0.1875
                },
                {
                    "name": "C#7",
                    "midi": 97,
                    "time": 313.8750000000003,
                    "velocity": 0.7165354330708661,
                    "duration": 0.28125
                },
                {
                    "name": "C#6",
                    "midi": 85,
                    "time": 313.8750000000003,
                    "velocity": 0.5039370078740157,
                    "duration": 0.28125
                },
                {
                    "name": "D#6",
                    "midi": 87,
                    "time": 314.2500000000003,
                    "velocity": 0.4409448818897638,
                    "duration": 0.1875
                },
                {
                    "name": "B6",
                    "midi": 95,
                    "time": 314.2500000000003,
                    "velocity": 0.6220472440944882,
                    "duration": 0.1875
                },
                {
                    "name": "B5",
                    "midi": 83,
                    "time": 314.2500000000003,
                    "velocity": 0.4409448818897638,
                    "duration": 0.1875
                },
                {
                    "name": "A#6",
                    "midi": 94,
                    "time": 314.4375000000003,
                    "velocity": 0.6220472440944882,
                    "duration": 0.1875
                },
                {
                    "name": "A#5",
                    "midi": 82,
                    "time": 314.4375000000003,
                    "velocity": 0.4409448818897638,
                    "duration": 0.1875
                },
                {
                    "name": "B6",
                    "midi": 95,
                    "time": 314.6250000000003,
                    "velocity": 0.6377952755905512,
                    "duration": 0.1875
                },
                {
                    "name": "D#6",
                    "midi": 87,
                    "time": 314.6250000000003,
                    "velocity": 0.5354330708661418,
                    "duration": 0.1875
                },
                {
                    "name": "B5",
                    "midi": 83,
                    "time": 314.6250000000003,
                    "velocity": 0.5354330708661418,
                    "duration": 0.1875
                },
                {
                    "name": "C#7",
                    "midi": 97,
                    "time": 314.8125000000003,
                    "velocity": 0.6614173228346457,
                    "duration": 0.1875
                },
                {
                    "name": "C#6",
                    "midi": 85,
                    "time": 314.8125000000003,
                    "velocity": 0.5590551181102362,
                    "duration": 0.1875
                },
                {
                    "name": "D#6",
                    "midi": 87,
                    "time": 315.0000000000003,
                    "velocity": 0.6062992125984252,
                    "duration": 0.28125
                },
                {
                    "name": "D#7",
                    "midi": 99,
                    "time": 315.0000000000003,
                    "velocity": 0.7165354330708661,
                    "duration": 0.28125
                },
                {
                    "name": "C#7",
                    "midi": 97,
                    "time": 315.3750000000003,
                    "velocity": 0.6299212598425197,
                    "duration": 0.1875
                },
                {
                    "name": "C#6",
                    "midi": 85,
                    "time": 315.3750000000003,
                    "velocity": 0.5354330708661418,
                    "duration": 0.1875
                },
                {
                    "name": "B5",
                    "midi": 83,
                    "time": 315.5625000000003,
                    "velocity": 0.5354330708661418,
                    "duration": 0.1875
                },
                {
                    "name": "B6",
                    "midi": 95,
                    "time": 315.5625000000003,
                    "velocity": 0.6299212598425197,
                    "duration": 0.1875
                },
                {
                    "name": "A#6",
                    "midi": 94,
                    "time": 315.7500000000003,
                    "velocity": 0.6299212598425197,
                    "duration": 0.1875
                },
                {
                    "name": "D#6",
                    "midi": 87,
                    "time": 315.7500000000003,
                    "velocity": 0.5354330708661418,
                    "duration": 0.1875
                },
                {
                    "name": "A#5",
                    "midi": 82,
                    "time": 315.7500000000003,
                    "velocity": 0.5354330708661418,
                    "duration": 0.1875
                },
                {
                    "name": "B6",
                    "midi": 95,
                    "time": 315.9375000000003,
                    "velocity": 0.6299212598425197,
                    "duration": 0.1875
                },
                {
                    "name": "B5",
                    "midi": 83,
                    "time": 315.9375000000003,
                    "velocity": 0.5354330708661418,
                    "duration": 0.1875
                },
                {
                    "name": "C#6",
                    "midi": 85,
                    "time": 316.1250000000003,
                    "velocity": 0.6062992125984252,
                    "duration": 0.28125
                },
                {
                    "name": "C#7",
                    "midi": 97,
                    "time": 316.1250000000003,
                    "velocity": 0.7165354330708661,
                    "duration": 0.28125
                },
                {
                    "name": "D#6",
                    "midi": 87,
                    "time": 316.5000000000003,
                    "velocity": 0.5433070866141733,
                    "duration": 0.1875
                },
                {
                    "name": "B6",
                    "midi": 95,
                    "time": 316.5000000000003,
                    "velocity": 0.6456692913385826,
                    "duration": 0.1875
                },
                {
                    "name": "B5",
                    "midi": 83,
                    "time": 316.5000000000003,
                    "velocity": 0.5433070866141733,
                    "duration": 0.1875
                },
                {
                    "name": "A#5",
                    "midi": 82,
                    "time": 316.6875000000003,
                    "velocity": 0.5511811023622047,
                    "duration": 0.1875
                },
                {
                    "name": "A#6",
                    "midi": 94,
                    "time": 316.6875000000003,
                    "velocity": 0.6535433070866141,
                    "duration": 0.1875
                },
                {
                    "name": "B5",
                    "midi": 83,
                    "time": 316.8750000000003,
                    "velocity": 0.6062992125984252,
                    "duration": 0.1875
                },
                {
                    "name": "D#6",
                    "midi": 87,
                    "time": 316.8750000000003,
                    "velocity": 0.7165354330708661,
                    "duration": 0.1875
                },
                {
                    "name": "B6",
                    "midi": 95,
                    "time": 316.8750000000003,
                    "velocity": 0.7165354330708661,
                    "duration": 0.1875
                },
                {
                    "name": "A#6",
                    "midi": 94,
                    "time": 317.0625000000003,
                    "velocity": 0.6535433070866141,
                    "duration": 0.1875
                },
                {
                    "name": "A#5",
                    "midi": 82,
                    "time": 317.0625000000003,
                    "velocity": 0.5511811023622047,
                    "duration": 0.1875
                },
                {
                    "name": "G#6",
                    "midi": 92,
                    "time": 317.2500000000003,
                    "velocity": 0.6535433070866141,
                    "duration": 0.375
                },
                {
                    "name": "G#5",
                    "midi": 80,
                    "time": 317.2500000000003,
                    "velocity": 0.5511811023622047,
                    "duration": 0.375
                },
                {
                    "name": "D#4",
                    "midi": 63,
                    "time": 317.6250000000003,
                    "velocity": 0.5354330708661418,
                    "duration": 0.375
                },
                {
                    "name": "B4",
                    "midi": 71,
                    "time": 317.6250000000003,
                    "velocity": 0.5354330708661418,
                    "duration": 0.375
                },
                {
                    "name": "D#5",
                    "midi": 75,
                    "time": 317.6250000000003,
                    "velocity": 0.6377952755905512,
                    "duration": 0.375
                },
                {
                    "name": "D#4",
                    "midi": 63,
                    "time": 318.0000000000003,
                    "velocity": 0.47244094488188976,
                    "duration": 0.1875
                },
                {
                    "name": "A#4",
                    "midi": 70,
                    "time": 318.0000000000003,
                    "velocity": 0.47244094488188976,
                    "duration": 0.1875
                },
                {
                    "name": "D#5",
                    "midi": 75,
                    "time": 318.0000000000003,
                    "velocity": 0.5590551181102362,
                    "duration": 0.1875
                },
                {
                    "name": "D#4",
                    "midi": 63,
                    "time": 318.1875000000003,
                    "velocity": 0.47244094488188976,
                    "duration": 0.1875
                },
                {
                    "name": "B4",
                    "midi": 71,
                    "time": 318.1875000000003,
                    "velocity": 0.47244094488188976,
                    "duration": 0.1875
                },
                {
                    "name": "D#5",
                    "midi": 75,
                    "time": 318.1875000000003,
                    "velocity": 0.5590551181102362,
                    "duration": 0.1875
                },
                {
                    "name": "D#4",
                    "midi": 63,
                    "time": 318.3750000000003,
                    "velocity": 0.5196850393700787,
                    "duration": 0.375
                },
                {
                    "name": "C#5",
                    "midi": 73,
                    "time": 318.3750000000003,
                    "velocity": 0.6141732283464567,
                    "duration": 0.375
                },
                {
                    "name": "D#5",
                    "midi": 75,
                    "time": 318.3750000000003,
                    "velocity": 0.6141732283464567,
                    "duration": 0.375
                },
                {
                    "name": "D#4",
                    "midi": 63,
                    "time": 318.7500000000003,
                    "velocity": 0.48031496062992124,
                    "duration": 0.1875
                },
                {
                    "name": "B4",
                    "midi": 71,
                    "time": 318.7500000000003,
                    "velocity": 0.48031496062992124,
                    "duration": 0.1875
                },
                {
                    "name": "D#5",
                    "midi": 75,
                    "time": 318.7500000000003,
                    "velocity": 0.5748031496062992,
                    "duration": 0.1875
                },
                {
                    "name": "D#4",
                    "midi": 63,
                    "time": 318.9375000000003,
                    "velocity": 0.48031496062992124,
                    "duration": 0.1875
                },
                {
                    "name": "A#4",
                    "midi": 70,
                    "time": 318.9375000000003,
                    "velocity": 0.48031496062992124,
                    "duration": 0.1875
                },
                {
                    "name": "D#5",
                    "midi": 75,
                    "time": 318.9375000000003,
                    "velocity": 0.5748031496062992,
                    "duration": 0.1875
                },
                {
                    "name": "D#4",
                    "midi": 63,
                    "time": 319.1250000000003,
                    "velocity": 0.5275590551181102,
                    "duration": 0.1875
                },
                {
                    "name": "B4",
                    "midi": 71,
                    "time": 319.1250000000003,
                    "velocity": 0.6220472440944882,
                    "duration": 0.1875
                },
                {
                    "name": "D#5",
                    "midi": 75,
                    "time": 319.1250000000003,
                    "velocity": 0.6220472440944882,
                    "duration": 0.1875
                },
                {
                    "name": "D#4",
                    "midi": 63,
                    "time": 319.3125000000003,
                    "velocity": 0.48031496062992124,
                    "duration": 0.1875
                },
                {
                    "name": "A#4",
                    "midi": 70,
                    "time": 319.3125000000003,
                    "velocity": 0.48031496062992124,
                    "duration": 0.1875
                },
                {
                    "name": "D#5",
                    "midi": 75,
                    "time": 319.3125000000003,
                    "velocity": 0.5748031496062992,
                    "duration": 0.1875
                },
                {
                    "name": "D#4",
                    "midi": 63,
                    "time": 319.5000000000003,
                    "velocity": 0.48031496062992124,
                    "duration": 0.33749999999997726
                },
                {
                    "name": "G#4",
                    "midi": 68,
                    "time": 319.5000000000003,
                    "velocity": 0.48031496062992124,
                    "duration": 0.33749999999997726
                },
                {
                    "name": "D#5",
                    "midi": 75,
                    "time": 319.5000000000003,
                    "velocity": 0.5748031496062992,
                    "duration": 0.33749999999997726
                },
                {
                    "name": "D#6",
                    "midi": 87,
                    "time": 319.8750000000003,
                    "velocity": 0.8503937007874016,
                    "duration": 0.28125
                },
                {
                    "name": "G#5",
                    "midi": 80,
                    "time": 319.8750000000003,
                    "velocity": 0.7244094488188977,
                    "duration": 0.28125
                },
                {
                    "name": "D#5",
                    "midi": 75,
                    "time": 319.8750000000003,
                    "velocity": 0.7244094488188977,
                    "duration": 0.28125
                },
                {
                    "name": "D#4",
                    "midi": 63,
                    "time": 320.2500000000003,
                    "velocity": 0.47244094488188976,
                    "duration": 0.1875
                },
                {
                    "name": "A#4",
                    "midi": 70,
                    "time": 320.2500000000003,
                    "velocity": 0.47244094488188976,
                    "duration": 0.1875
                },
                {
                    "name": "D#5",
                    "midi": 75,
                    "time": 320.2500000000003,
                    "velocity": 0.5590551181102362,
                    "duration": 0.1875
                },
                {
                    "name": "D#4",
                    "midi": 63,
                    "time": 320.4375000000003,
                    "velocity": 0.47244094488188976,
                    "duration": 0.1875
                },
                {
                    "name": "B4",
                    "midi": 71,
                    "time": 320.4375000000003,
                    "velocity": 0.5590551181102362,
                    "duration": 0.1875
                },
                {
                    "name": "D#5",
                    "midi": 75,
                    "time": 320.4375000000003,
                    "velocity": 0.5590551181102362,
                    "duration": 0.1875
                },
                {
                    "name": "D#4",
                    "midi": 63,
                    "time": 320.6250000000003,
                    "velocity": 0.5196850393700787,
                    "duration": 0.375
                },
                {
                    "name": "C#5",
                    "midi": 73,
                    "time": 320.6250000000003,
                    "velocity": 0.5196850393700787,
                    "duration": 0.375
                },
                {
                    "name": "D#5",
                    "midi": 75,
                    "time": 320.6250000000003,
                    "velocity": 0.6141732283464567,
                    "duration": 0.375
                },
                {
                    "name": "D#4",
                    "midi": 63,
                    "time": 321.0000000000003,
                    "velocity": 0.48031496062992124,
                    "duration": 0.1875
                },
                {
                    "name": "B4",
                    "midi": 71,
                    "time": 321.0000000000003,
                    "velocity": 0.48031496062992124,
                    "duration": 0.1875
                },
                {
                    "name": "D#5",
                    "midi": 75,
                    "time": 321.0000000000003,
                    "velocity": 0.5748031496062992,
                    "duration": 0.1875
                },
                {
                    "name": "D#4",
                    "midi": 63,
                    "time": 321.1875000000003,
                    "velocity": 0.48031496062992124,
                    "duration": 0.1875
                },
                {
                    "name": "A#4",
                    "midi": 70,
                    "time": 321.1875000000003,
                    "velocity": 0.48031496062992124,
                    "duration": 0.1875
                },
                {
                    "name": "D#5",
                    "midi": 75,
                    "time": 321.1875000000003,
                    "velocity": 0.5748031496062992,
                    "duration": 0.1875
                },
                {
                    "name": "D#4",
                    "midi": 63,
                    "time": 321.3750000000003,
                    "velocity": 0.5275590551181102,
                    "duration": 0.1875
                },
                {
                    "name": "B4",
                    "midi": 71,
                    "time": 321.3750000000003,
                    "velocity": 0.5275590551181102,
                    "duration": 0.1875
                },
                {
                    "name": "D#5",
                    "midi": 75,
                    "time": 321.3750000000003,
                    "velocity": 0.6220472440944882,
                    "duration": 0.1875
                },
                {
                    "name": "D#4",
                    "midi": 63,
                    "time": 321.5625000000003,
                    "velocity": 0.48031496062992124,
                    "duration": 0.1875
                },
                {
                    "name": "A#4",
                    "midi": 70,
                    "time": 321.5625000000003,
                    "velocity": 0.48031496062992124,
                    "duration": 0.1875
                },
                {
                    "name": "D#5",
                    "midi": 75,
                    "time": 321.5625000000003,
                    "velocity": 0.5748031496062992,
                    "duration": 0.1875
                },
                {
                    "name": "D#4",
                    "midi": 63,
                    "time": 321.7500000000003,
                    "velocity": 0.48031496062992124,
                    "duration": 0.33749999999997726
                },
                {
                    "name": "G#4",
                    "midi": 68,
                    "time": 321.7500000000003,
                    "velocity": 0.48031496062992124,
                    "duration": 0.33749999999997726
                },
                {
                    "name": "D#5",
                    "midi": 75,
                    "time": 321.7500000000003,
                    "velocity": 0.5748031496062992,
                    "duration": 0.33749999999997726
                },
                {
                    "name": "D#6",
                    "midi": 87,
                    "time": 322.1250000000003,
                    "velocity": 0.8503937007874016,
                    "duration": 0.28125
                },
                {
                    "name": "G#5",
                    "midi": 80,
                    "time": 322.1250000000003,
                    "velocity": 0.7244094488188977,
                    "duration": 0.28125
                },
                {
                    "name": "D#5",
                    "midi": 75,
                    "time": 322.1250000000003,
                    "velocity": 0.7244094488188977,
                    "duration": 0.28125
                },
                {
                    "name": "D#4",
                    "midi": 63,
                    "time": 322.5000000000003,
                    "velocity": 0.5275590551181102,
                    "duration": 0.1875
                },
                {
                    "name": "B4",
                    "midi": 71,
                    "time": 322.5000000000003,
                    "velocity": 0.5275590551181102,
                    "duration": 0.1875
                },
                {
                    "name": "D#5",
                    "midi": 75,
                    "time": 322.5000000000003,
                    "velocity": 0.6220472440944882,
                    "duration": 0.1875
                },
                {
                    "name": "D#4",
                    "midi": 63,
                    "time": 322.6875000000003,
                    "velocity": 0.48031496062992124,
                    "duration": 0.1875
                },
                {
                    "name": "A#4",
                    "midi": 70,
                    "time": 322.6875000000003,
                    "velocity": 0.48031496062992124,
                    "duration": 0.1875
                },
                {
                    "name": "D#5",
                    "midi": 75,
                    "time": 322.6875000000003,
                    "velocity": 0.5748031496062992,
                    "duration": 0.1875
                },
                {
                    "name": "D#4",
                    "midi": 63,
                    "time": 322.8750000000003,
                    "velocity": 0.48031496062992124,
                    "duration": 0.33749999999997726
                },
                {
                    "name": "G#4",
                    "midi": 68,
                    "time": 322.8750000000003,
                    "velocity": 0.48031496062992124,
                    "duration": 0.33749999999997726
                },
                {
                    "name": "D#5",
                    "midi": 75,
                    "time": 322.8750000000003,
                    "velocity": 0.5748031496062992,
                    "duration": 0.33749999999997726
                },
                {
                    "name": "D#6",
                    "midi": 87,
                    "time": 323.2500000000003,
                    "velocity": 0.7480314960629921,
                    "duration": 0.28125
                },
                {
                    "name": "G#5",
                    "midi": 80,
                    "time": 323.2500000000003,
                    "velocity": 0.7480314960629921,
                    "duration": 0.28125
                },
                {
                    "name": "G#6",
                    "midi": 92,
                    "time": 323.2500000000003,
                    "velocity": 0.889763779527559,
                    "duration": 0.28125
                },
                {
                    "name": "D#4",
                    "midi": 63,
                    "time": 323.6250000000003,
                    "velocity": 0.5275590551181102,
                    "duration": 0.1875
                },
                {
                    "name": "B4",
                    "midi": 71,
                    "time": 323.6250000000003,
                    "velocity": 0.6220472440944882,
                    "duration": 0.1875
                },
                {
                    "name": "D#5",
                    "midi": 75,
                    "time": 323.6250000000003,
                    "velocity": 0.6220472440944882,
                    "duration": 0.1875
                },
                {
                    "name": "D#4",
                    "midi": 63,
                    "time": 323.8125000000003,
                    "velocity": 0.48031496062992124,
                    "duration": 0.1875
                },
                {
                    "name": "A#4",
                    "midi": 70,
                    "time": 323.8125000000003,
                    "velocity": 0.48031496062992124,
                    "duration": 0.1875
                },
                {
                    "name": "D#5",
                    "midi": 75,
                    "time": 323.8125000000003,
                    "velocity": 0.5748031496062992,
                    "duration": 0.1875
                },
                {
                    "name": "D#4",
                    "midi": 63,
                    "time": 324.0000000000003,
                    "velocity": 0.48031496062992124,
                    "duration": 0.33749999999997726
                },
                {
                    "name": "G#4",
                    "midi": 68,
                    "time": 324.0000000000003,
                    "velocity": 0.48031496062992124,
                    "duration": 0.33749999999997726
                },
                {
                    "name": "D#5",
                    "midi": 75,
                    "time": 324.0000000000003,
                    "velocity": 0.5748031496062992,
                    "duration": 0.33749999999997726
                },
                {
                    "name": "D#6",
                    "midi": 87,
                    "time": 324.3750000000003,
                    "velocity": 0.7637795275590551,
                    "duration": 0.28125
                },
                {
                    "name": "B5",
                    "midi": 83,
                    "time": 324.3750000000003,
                    "velocity": 0.7637795275590551,
                    "duration": 0.28125
                },
                {
                    "name": "B6",
                    "midi": 95,
                    "time": 324.3750000000003,
                    "velocity": 0.905511811023622,
                    "duration": 0.28125
                },
                {
                    "name": "D#4",
                    "midi": 63,
                    "time": 324.7500000000003,
                    "velocity": 0.5275590551181102,
                    "duration": 0.1875
                },
                {
                    "name": "B4",
                    "midi": 71,
                    "time": 324.7500000000003,
                    "velocity": 0.5275590551181102,
                    "duration": 0.1875
                },
                {
                    "name": "D#5",
                    "midi": 75,
                    "time": 324.7500000000003,
                    "velocity": 0.6220472440944882,
                    "duration": 0.1875
                },
                {
                    "name": "D#4",
                    "midi": 63,
                    "time": 324.9375000000003,
                    "velocity": 0.48031496062992124,
                    "duration": 0.1875
                },
                {
                    "name": "A#4",
                    "midi": 70,
                    "time": 324.9375000000003,
                    "velocity": 0.48031496062992124,
                    "duration": 0.1875
                },
                {
                    "name": "D#5",
                    "midi": 75,
                    "time": 324.9375000000003,
                    "velocity": 0.5748031496062992,
                    "duration": 0.1875
                },
                {
                    "name": "D#4",
                    "midi": 63,
                    "time": 325.1250000000003,
                    "velocity": 0.48031496062992124,
                    "duration": 0.33749999999997726
                },
                {
                    "name": "G#4",
                    "midi": 68,
                    "time": 325.1250000000003,
                    "velocity": 0.48031496062992124,
                    "duration": 0.33749999999997726
                },
                {
                    "name": "D#5",
                    "midi": 75,
                    "time": 325.1250000000003,
                    "velocity": 0.5748031496062992,
                    "duration": 0.33749999999997726
                },
                {
                    "name": "D#7",
                    "midi": 99,
                    "time": 325.5000000000003,
                    "velocity": 0.9212598425196851,
                    "duration": 0.75
                },
                {
                    "name": "G#6",
                    "midi": 92,
                    "time": 325.5000000000003,
                    "velocity": 0.7795275590551181,
                    "duration": 0.75
                },
                {
                    "name": "D#6",
                    "midi": 87,
                    "time": 325.5000000000003,
                    "velocity": 0.7795275590551181,
                    "duration": 0.75
                },
                {
                    "name": "D#6",
                    "midi": 87,
                    "time": 326.2500000000003,
                    "velocity": 0.6614173228346457,
                    "duration": 0.33749999999997726
                },
                {
                    "name": "G#6",
                    "midi": 92,
                    "time": 326.2500000000003,
                    "velocity": 0.6614173228346457,
                    "duration": 0.33749999999997726
                },
                {
                    "name": "D#7",
                    "midi": 99,
                    "time": 326.2500000000003,
                    "velocity": 0.7874015748031497,
                    "duration": 0.33749999999997726
                },
                {
                    "name": "D#6",
                    "midi": 87,
                    "time": 326.6250000000003,
                    "velocity": 0.6771653543307087,
                    "duration": 0.33749999999997726
                },
                {
                    "name": "G#6",
                    "midi": 92,
                    "time": 326.6250000000003,
                    "velocity": 0.6771653543307087,
                    "duration": 0.33749999999997726
                },
                {
                    "name": "D#7",
                    "midi": 99,
                    "time": 326.6250000000003,
                    "velocity": 0.8031496062992126,
                    "duration": 0.33749999999997726
                },
                {
                    "name": "D#6",
                    "midi": 87,
                    "time": 327.0000000000003,
                    "velocity": 0.6614173228346457,
                    "duration": 0.33749999999997726
                },
                {
                    "name": "G#6",
                    "midi": 92,
                    "time": 327.0000000000003,
                    "velocity": 0.6614173228346457,
                    "duration": 0.33749999999997726
                },
                {
                    "name": "D#7",
                    "midi": 99,
                    "time": 327.0000000000003,
                    "velocity": 0.7874015748031497,
                    "duration": 0.33749999999997726
                },
                {
                    "name": "D#6",
                    "midi": 87,
                    "time": 327.3750000000003,
                    "velocity": 0.6771653543307087,
                    "duration": 0.33749999999997726
                },
                {
                    "name": "G#6",
                    "midi": 92,
                    "time": 327.3750000000003,
                    "velocity": 0.6771653543307087,
                    "duration": 0.33749999999997726
                },
                {
                    "name": "D#7",
                    "midi": 99,
                    "time": 327.3750000000003,
                    "velocity": 0.8031496062992126,
                    "duration": 0.33749999999997726
                },
                {
                    "name": "D#6",
                    "midi": 87,
                    "time": 327.7500000000003,
                    "velocity": 0.7322834645669292,
                    "duration": 0.33749999999997726
                },
                {
                    "name": "G#6",
                    "midi": 92,
                    "time": 327.7500000000003,
                    "velocity": 0.7322834645669292,
                    "duration": 0.33749999999997726
                },
                {
                    "name": "D#7",
                    "midi": 99,
                    "time": 327.7500000000003,
                    "velocity": 0.8661417322834646,
                    "duration": 0.33749999999997726
                },
                {
                    "name": "D#6",
                    "midi": 87,
                    "time": 328.1250000000003,
                    "velocity": 0.7637795275590551,
                    "duration": 0.375
                },
                {
                    "name": "G#6",
                    "midi": 92,
                    "time": 328.1250000000003,
                    "velocity": 0.7637795275590551,
                    "duration": 0.375
                },
                {
                    "name": "D#7",
                    "midi": 99,
                    "time": 328.1250000000003,
                    "velocity": 0.905511811023622,
                    "duration": 0.375
                },
                {
                    "name": "B3",
                    "midi": 59,
                    "time": 329.2500000000003,
                    "velocity": 0.6771653543307087,
                    "duration": 0.375
                },
                {
                    "name": "D#4",
                    "midi": 63,
                    "time": 329.2500000000003,
                    "velocity": 0.6771653543307087,
                    "duration": 0.375
                },
                {
                    "name": "G#4",
                    "midi": 68,
                    "time": 329.2500000000003,
                    "velocity": 0.8031496062992126,
                    "duration": 0.375
                },
                {
                    "name": "G#6",
                    "midi": 92,
                    "time": 330.3750000000003,
                    "velocity": 0.8188976377952756,
                    "duration": 2.25
                },
                {
                    "name": "D#6",
                    "midi": 87,
                    "time": 330.3750000000003,
                    "velocity": 0.7795275590551181,
                    "duration": 2.25
                },
                {
                    "name": "B5",
                    "midi": 83,
                    "time": 330.3750000000003,
                    "velocity": 0.6535433070866141,
                    "duration": 2.25
                },
                {
                    "name": "G#5",
                    "midi": 80,
                    "time": 330.3750000000003,
                    "velocity": 0.6535433070866141,
                    "duration": 2.25
                }
            ],
            "controlChanges": {
                "7": [
                    {
                        "number": 7,
                        "time": 0,
                        "value": 0.7874015748031497
                    }
                ],
                "10": [
                    {
                        "number": 10,
                        "time": 0,
                        "value": 0.5039370078740157
                    }
                ],
                "91": [
                    {
                        "number": 91,
                        "time": 0,
                        "value": 1
                    },
                    {
                        "number": 91,
                        "time": 0.3734375,
                        "value": 1
                    },
                    {
                        "number": 91,
                        "time": 232.68750000000028,
                        "value": 1
                    }
                ]
            },
            "id": 1,
            "name": "Piano right",
            "instrumentNumber": 0,
            "instrument": "acoustic grand piano",
            "instrumentFamily": "piano",
            "channelNumber": 0,
            "isPercussion": false
        },
        {
            "startTime": 0.37500000000000006,
            "duration": 332.6249999999998,
            "length": 1435,
            "notes": [
                {
                    "name": "D#4",
                    "midi": 63,
                    "time": 0.37500000000000006,
                    "velocity": 0.1889763779527559,
                    "duration": 0.28124999999999994
                },
                {
                    "name": "D#5",
                    "midi": 75,
                    "time": 0.37500000000000006,
                    "velocity": 0.2204724409448819,
                    "duration": 0.28124999999999994
                },
                {
                    "name": "D#4",
                    "midi": 63,
                    "time": 0.75,
                    "velocity": 0.1889763779527559,
                    "duration": 0.28125
                },
                {
                    "name": "D#5",
                    "midi": 75,
                    "time": 0.75,
                    "velocity": 0.2204724409448819,
                    "duration": 0.28125
                },
                {
                    "name": "D#5",
                    "midi": 75,
                    "time": 1.125,
                    "velocity": 0.2204724409448819,
                    "duration": 0.28125
                },
                {
                    "name": "D#4",
                    "midi": 63,
                    "time": 1.125,
                    "velocity": 0.1889763779527559,
                    "duration": 0.28125
                },
                {
                    "name": "D#4",
                    "midi": 63,
                    "time": 2.625,
                    "velocity": 0.1889763779527559,
                    "duration": 0.28125
                },
                {
                    "name": "D#5",
                    "midi": 75,
                    "time": 2.625,
                    "velocity": 0.2283464566929134,
                    "duration": 0.28125
                },
                {
                    "name": "D#4",
                    "midi": 63,
                    "time": 3,
                    "velocity": 0.1889763779527559,
                    "duration": 0.28125
                },
                {
                    "name": "D#5",
                    "midi": 75,
                    "time": 3,
                    "velocity": 0.2283464566929134,
                    "duration": 0.28125
                },
                {
                    "name": "D#5",
                    "midi": 75,
                    "time": 3.375,
                    "velocity": 0.2283464566929134,
                    "duration": 0.28125
                },
                {
                    "name": "D#4",
                    "midi": 63,
                    "time": 3.375,
                    "velocity": 0.1889763779527559,
                    "duration": 0.28125
                },
                {
                    "name": "D#5",
                    "midi": 75,
                    "time": 4.875,
                    "velocity": 0.2125984251968504,
                    "duration": 0.28125
                },
                {
                    "name": "D#4",
                    "midi": 63,
                    "time": 4.875,
                    "velocity": 0.1732283464566929,
                    "duration": 0.28125
                },
                {
                    "name": "D#5",
                    "midi": 75,
                    "time": 6,
                    "velocity": 0.1968503937007874,
                    "duration": 0.28125
                },
                {
                    "name": "D#4",
                    "midi": 63,
                    "time": 6,
                    "velocity": 0.16535433070866143,
                    "duration": 0.28125
                },
                {
                    "name": "G#3",
                    "midi": 56,
                    "time": 8.8125,
                    "velocity": 0.29133858267716534,
                    "duration": 0.46875
                },
                {
                    "name": "D#4",
                    "midi": 63,
                    "time": 8.90625,
                    "velocity": 0.30708661417322836,
                    "duration": 0.375
                },
                {
                    "name": "B4",
                    "midi": 71,
                    "time": 9,
                    "velocity": 0.31496062992125984,
                    "duration": 0.28125
                },
                {
                    "name": "B3",
                    "midi": 59,
                    "time": 9.9375,
                    "velocity": 0.2755905511811024,
                    "duration": 0.46875
                },
                {
                    "name": "G#4",
                    "midi": 68,
                    "time": 10.03125,
                    "velocity": 0.28346456692913385,
                    "duration": 0.375
                },
                {
                    "name": "D#5",
                    "midi": 75,
                    "time": 10.125,
                    "velocity": 0.29133858267716534,
                    "duration": 0.28125
                },
                {
                    "name": "D#4",
                    "midi": 63,
                    "time": 11.0625,
                    "velocity": 0.28346456692913385,
                    "duration": 0.46875
                },
                {
                    "name": "A#4",
                    "midi": 70,
                    "time": 11.15625,
                    "velocity": 0.30708661417322836,
                    "duration": 0.375
                },
                {
                    "name": "G5",
                    "midi": 79,
                    "time": 11.25,
                    "velocity": 0.3228346456692913,
                    "duration": 0.28125
                },
                {
                    "name": "G4",
                    "midi": 67,
                    "time": 12.28125,
                    "velocity": 0.28346456692913385,
                    "duration": 0.375
                },
                {
                    "name": "A#4",
                    "midi": 70,
                    "time": 12.375,
                    "velocity": 0.30708661417322836,
                    "duration": 0.28125
                },
                {
                    "name": "G#4",
                    "midi": 68,
                    "time": 13.5,
                    "velocity": 0.33858267716535434,
                    "duration": 0.28125
                },
                {
                    "name": "B3",
                    "midi": 59,
                    "time": 14.4375,
                    "velocity": 0.28346456692913385,
                    "duration": 0.46875
                },
                {
                    "name": "D4",
                    "midi": 62,
                    "time": 14.53125,
                    "velocity": 0.28346456692913385,
                    "duration": 0.375
                },
                {
                    "name": "F4",
                    "midi": 65,
                    "time": 14.625,
                    "velocity": 0.30708661417322836,
                    "duration": 0.28125
                },
                {
                    "name": "D#4",
                    "midi": 63,
                    "time": 15.65625,
                    "velocity": 0.25984251968503935,
                    "duration": 0.375
                },
                {
                    "name": "G4",
                    "midi": 67,
                    "time": 15.75,
                    "velocity": 0.2755905511811024,
                    "duration": 0.28125
                },
                {
                    "name": "G#3",
                    "midi": 56,
                    "time": 17.8125,
                    "velocity": 0.28346456692913385,
                    "duration": 0.46875
                },
                {
                    "name": "D#4",
                    "midi": 63,
                    "time": 17.90625,
                    "velocity": 0.29133858267716534,
                    "duration": 0.375
                },
                {
                    "name": "B4",
                    "midi": 71,
                    "time": 18,
                    "velocity": 0.31496062992125984,
                    "duration": 0.28125
                },
                {
                    "name": "B3",
                    "midi": 59,
                    "time": 18.9375,
                    "velocity": 0.28346456692913385,
                    "duration": 0.46875
                },
                {
                    "name": "G#4",
                    "midi": 68,
                    "time": 19.03125,
                    "velocity": 0.29133858267716534,
                    "duration": 0.375
                },
                {
                    "name": "D#5",
                    "midi": 75,
                    "time": 19.125,
                    "velocity": 0.3228346456692913,
                    "duration": 0.28125
                },
                {
                    "name": "D#4",
                    "midi": 63,
                    "time": 20.0625,
                    "velocity": 0.28346456692913385,
                    "duration": 0.46875
                },
                {
                    "name": "A#4",
                    "midi": 70,
                    "time": 20.15625,
                    "velocity": 0.30708661417322836,
                    "duration": 0.375
                },
                {
                    "name": "G5",
                    "midi": 79,
                    "time": 20.25,
                    "velocity": 0.3228346456692913,
                    "duration": 0.28125
                },
                {
                    "name": "G4",
                    "midi": 67,
                    "time": 21.28125,
                    "velocity": 0.29133858267716534,
                    "duration": 0.375
                },
                {
                    "name": "A#4",
                    "midi": 70,
                    "time": 21.375,
                    "velocity": 0.30708661417322836,
                    "duration": 0.28125
                },
                {
                    "name": "G#4",
                    "midi": 68,
                    "time": 22.5,
                    "velocity": 0.2755905511811024,
                    "duration": 0.28125
                },
                {
                    "name": "B4",
                    "midi": 71,
                    "time": 22.5,
                    "velocity": 0.30708661417322836,
                    "duration": 0.28125
                },
                {
                    "name": "D#4",
                    "midi": 63,
                    "time": 23.625,
                    "velocity": 0.23622047244094488,
                    "duration": 0.28125
                },
                {
                    "name": "C#5",
                    "midi": 73,
                    "time": 23.625,
                    "velocity": 0.2677165354330709,
                    "duration": 0.28125
                },
                {
                    "name": "G4",
                    "midi": 67,
                    "time": 23.625,
                    "velocity": 0.23622047244094488,
                    "duration": 0.28125
                },
                {
                    "name": "G#3",
                    "midi": 56,
                    "time": 24.75,
                    "velocity": 0.31496062992125984,
                    "duration": 0.140625
                },
                {
                    "name": "D#4",
                    "midi": 63,
                    "time": 24.9375,
                    "velocity": 0.2755905511811024,
                    "duration": 0.140625
                },
                {
                    "name": "B4",
                    "midi": 71,
                    "time": 25.125,
                    "velocity": 0.2755905511811024,
                    "duration": 0.140625
                },
                {
                    "name": "G#5",
                    "midi": 80,
                    "time": 25.3125,
                    "velocity": 0.2755905511811024,
                    "duration": 0.140625
                },
                {
                    "name": "G#2",
                    "midi": 44,
                    "time": 27,
                    "velocity": 0.30708661417322836,
                    "duration": 0.28125
                },
                {
                    "name": "B3",
                    "midi": 59,
                    "time": 27.375,
                    "velocity": 0.29133858267716534,
                    "duration": 0.28125
                },
                {
                    "name": "D#3",
                    "midi": 51,
                    "time": 27.375,
                    "velocity": 0.2677165354330709,
                    "duration": 0.28125
                },
                {
                    "name": "B2",
                    "midi": 47,
                    "time": 28.125,
                    "velocity": 0.30708661417322836,
                    "duration": 0.28125
                },
                {
                    "name": "G#3",
                    "midi": 56,
                    "time": 28.5,
                    "velocity": 0.2677165354330709,
                    "duration": 0.28125
                },
                {
                    "name": "D#4",
                    "midi": 63,
                    "time": 28.5,
                    "velocity": 0.29133858267716534,
                    "duration": 0.28125
                },
                {
                    "name": "D#3",
                    "midi": 51,
                    "time": 29.25,
                    "velocity": 0.30708661417322836,
                    "duration": 0.28125
                },
                {
                    "name": "A#3",
                    "midi": 58,
                    "time": 29.625,
                    "velocity": 0.2677165354330709,
                    "duration": 0.28125
                },
                {
                    "name": "G4",
                    "midi": 67,
                    "time": 29.625,
                    "velocity": 0.29133858267716534,
                    "duration": 0.28125
                },
                {
                    "name": "G4",
                    "midi": 67,
                    "time": 30.375,
                    "velocity": 0.25984251968503935,
                    "duration": 0.28125
                },
                {
                    "name": "A#4",
                    "midi": 70,
                    "time": 30.375,
                    "velocity": 0.28346456692913385,
                    "duration": 0.28125
                },
                {
                    "name": "A#4",
                    "midi": 70,
                    "time": 30.75,
                    "velocity": 0.28346456692913385,
                    "duration": 0.28125
                },
                {
                    "name": "G4",
                    "midi": 67,
                    "time": 30.75,
                    "velocity": 0.25984251968503935,
                    "duration": 0.28125
                },
                {
                    "name": "G#4",
                    "midi": 68,
                    "time": 31.5,
                    "velocity": 0.31496062992125984,
                    "duration": 0.28125
                },
                {
                    "name": "G#4",
                    "midi": 68,
                    "time": 31.875,
                    "velocity": 0.31496062992125984,
                    "duration": 0.28125
                },
                {
                    "name": "B3",
                    "midi": 59,
                    "time": 32.625,
                    "velocity": 0.25196850393700787,
                    "duration": 0.28125
                },
                {
                    "name": "F4",
                    "midi": 65,
                    "time": 32.625,
                    "velocity": 0.28346456692913385,
                    "duration": 0.28125
                },
                {
                    "name": "D4",
                    "midi": 62,
                    "time": 32.625,
                    "velocity": 0.25196850393700787,
                    "duration": 0.28125
                },
                {
                    "name": "B3",
                    "midi": 59,
                    "time": 33,
                    "velocity": 0.25196850393700787,
                    "duration": 0.28125
                },
                {
                    "name": "F4",
                    "midi": 65,
                    "time": 33,
                    "velocity": 0.28346456692913385,
                    "duration": 0.28125
                },
                {
                    "name": "D4",
                    "midi": 62,
                    "time": 33,
                    "velocity": 0.25196850393700787,
                    "duration": 0.28125
                },
                {
                    "name": "G4",
                    "midi": 67,
                    "time": 33.75,
                    "velocity": 0.2755905511811024,
                    "duration": 0.28125
                },
                {
                    "name": "D#3",
                    "midi": 51,
                    "time": 33.75,
                    "velocity": 0.2440944881889764,
                    "duration": 0.28125
                },
                {
                    "name": "G#2",
                    "midi": 44,
                    "time": 36,
                    "velocity": 0.30708661417322836,
                    "duration": 0.28125
                },
                {
                    "name": "B3",
                    "midi": 59,
                    "time": 36.375,
                    "velocity": 0.28346456692913385,
                    "duration": 0.28125
                },
                {
                    "name": "D#3",
                    "midi": 51,
                    "time": 36.375,
                    "velocity": 0.25984251968503935,
                    "duration": 0.28125
                },
                {
                    "name": "B2",
                    "midi": 47,
                    "time": 37.125,
                    "velocity": 0.30708661417322836,
                    "duration": 0.28125
                },
                {
                    "name": "G#3",
                    "midi": 56,
                    "time": 37.5,
                    "velocity": 0.25984251968503935,
                    "duration": 0.28125
                },
                {
                    "name": "D#4",
                    "midi": 63,
                    "time": 37.5,
                    "velocity": 0.28346456692913385,
                    "duration": 0.28125
                },
                {
                    "name": "D#3",
                    "midi": 51,
                    "time": 38.25,
                    "velocity": 0.30708661417322836,
                    "duration": 0.28125
                },
                {
                    "name": "A#3",
                    "midi": 58,
                    "time": 38.625,
                    "velocity": 0.25984251968503935,
                    "duration": 0.28125
                },
                {
                    "name": "G4",
                    "midi": 67,
                    "time": 38.625,
                    "velocity": 0.28346456692913385,
                    "duration": 0.28125
                },
                {
                    "name": "G#4",
                    "midi": 68,
                    "time": 39.375,
                    "velocity": 0.2440944881889764,
                    "duration": 0.28125
                },
                {
                    "name": "A#4",
                    "midi": 70,
                    "time": 39.375,
                    "velocity": 0.2755905511811024,
                    "duration": 0.28125
                },
                {
                    "name": "C#4",
                    "midi": 61,
                    "time": 39.375,
                    "velocity": 0.2440944881889764,
                    "duration": 0.28125
                },
                {
                    "name": "G#4",
                    "midi": 68,
                    "time": 39.75,
                    "velocity": 0.2440944881889764,
                    "duration": 0.28125
                },
                {
                    "name": "A#4",
                    "midi": 70,
                    "time": 39.75,
                    "velocity": 0.2755905511811024,
                    "duration": 0.28125
                },
                {
                    "name": "D#4",
                    "midi": 63,
                    "time": 39.75,
                    "velocity": 0.2440944881889764,
                    "duration": 0.28125
                },
                {
                    "name": "A#4",
                    "midi": 70,
                    "time": 40.125,
                    "velocity": 0.2755905511811024,
                    "duration": 0.28125
                },
                {
                    "name": "E4",
                    "midi": 64,
                    "time": 40.125,
                    "velocity": 0.2440944881889764,
                    "duration": 0.28125
                },
                {
                    "name": "G#4",
                    "midi": 68,
                    "time": 40.125,
                    "velocity": 0.2440944881889764,
                    "duration": 0.28125
                },
                {
                    "name": "D#4",
                    "midi": 63,
                    "time": 40.5,
                    "velocity": 0.2755905511811024,
                    "duration": 0.2812500000000071
                },
                {
                    "name": "B4",
                    "midi": 71,
                    "time": 40.5,
                    "velocity": 0.30708661417322836,
                    "duration": 0.2812500000000071
                },
                {
                    "name": "G#4",
                    "midi": 68,
                    "time": 40.5,
                    "velocity": 0.2755905511811024,
                    "duration": 0.2812500000000071
                },
                {
                    "name": "C#4",
                    "midi": 61,
                    "time": 41.62500000000001,
                    "velocity": 0.23622047244094488,
                    "duration": 0.28125
                },
                {
                    "name": "G4",
                    "midi": 67,
                    "time": 41.62500000000001,
                    "velocity": 0.2677165354330709,
                    "duration": 0.28125
                },
                {
                    "name": "D#3",
                    "midi": 51,
                    "time": 41.62500000000001,
                    "velocity": 0.23622047244094488,
                    "duration": 0.28125
                },
                {
                    "name": "G#2",
                    "midi": 44,
                    "time": 42.75000000000001,
                    "velocity": 0.3543307086614173,
                    "duration": 0.140625
                },
                {
                    "name": "B3",
                    "midi": 59,
                    "time": 42.93750000000001,
                    "velocity": 0.31496062992125984,
                    "duration": 0.140625
                },
                {
                    "name": "B5",
                    "midi": 83,
                    "time": 43.87500000000001,
                    "velocity": 0.2755905511811024,
                    "duration": 0.140625
                },
                {
                    "name": "D#6",
                    "midi": 87,
                    "time": 44.06250000000001,
                    "velocity": 0.2755905511811024,
                    "duration": 0.140625
                },
                {
                    "name": "G#6",
                    "midi": 92,
                    "time": 44.25000000000001,
                    "velocity": 0.2677165354330709,
                    "duration": 0.140625
                },
                {
                    "name": "B4",
                    "midi": 71,
                    "time": 45.75000000000001,
                    "velocity": 0.3543307086614173,
                    "duration": 0.28125
                },
                {
                    "name": "B4",
                    "midi": 71,
                    "time": 46.12500000000001,
                    "velocity": 0.3700787401574803,
                    "duration": 0.28125
                },
                {
                    "name": "B4",
                    "midi": 71,
                    "time": 46.50000000000001,
                    "velocity": 0.3937007874015748,
                    "duration": 0.28125
                },
                {
                    "name": "B4",
                    "midi": 71,
                    "time": 46.87500000000001,
                    "velocity": 0.4251968503937008,
                    "duration": 0.28125
                },
                {
                    "name": "D#4",
                    "midi": 63,
                    "time": 47.62500000000001,
                    "velocity": 0.2755905511811024,
                    "duration": 0.28125
                },
                {
                    "name": "B3",
                    "midi": 59,
                    "time": 47.62500000000001,
                    "velocity": 0.2440944881889764,
                    "duration": 0.28125
                },
                {
                    "name": "F#4",
                    "midi": 66,
                    "time": 48.00000000000001,
                    "velocity": 0.2755905511811024,
                    "duration": 0.28125
                },
                {
                    "name": "D#4",
                    "midi": 63,
                    "time": 48.00000000000001,
                    "velocity": 0.2440944881889764,
                    "duration": 0.28125
                },
                {
                    "name": "F#3",
                    "midi": 54,
                    "time": 48.00000000000001,
                    "velocity": 0.2440944881889764,
                    "duration": 0.28125
                },
                {
                    "name": "E4",
                    "midi": 64,
                    "time": 48.75000000000001,
                    "velocity": 0.28346456692913385,
                    "duration": 0.28125
                },
                {
                    "name": "A#3",
                    "midi": 58,
                    "time": 48.75000000000001,
                    "velocity": 0.25196850393700787,
                    "duration": 0.28125
                },
                {
                    "name": "F#4",
                    "midi": 66,
                    "time": 49.12500000000001,
                    "velocity": 0.28346456692913385,
                    "duration": 0.28125
                },
                {
                    "name": "E4",
                    "midi": 64,
                    "time": 49.12500000000001,
                    "velocity": 0.25196850393700787,
                    "duration": 0.28125
                },
                {
                    "name": "F#3",
                    "midi": 54,
                    "time": 49.12500000000001,
                    "velocity": 0.25196850393700787,
                    "duration": 0.28125
                },
                {
                    "name": "D#4",
                    "midi": 63,
                    "time": 49.87500000000001,
                    "velocity": 0.2755905511811024,
                    "duration": 0.375
                },
                {
                    "name": "B3",
                    "midi": 59,
                    "time": 49.87500000000001,
                    "velocity": 0.2755905511811024,
                    "duration": 0.375
                },
                {
                    "name": "D#5",
                    "midi": 75,
                    "time": 50.25000000000001,
                    "velocity": 0.3543307086614173,
                    "duration": 0.28125
                },
                {
                    "name": "D#5",
                    "midi": 75,
                    "time": 50.62500000000001,
                    "velocity": 0.3700787401574803,
                    "duration": 0.28125
                },
                {
                    "name": "D#5",
                    "midi": 75,
                    "time": 51.00000000000001,
                    "velocity": 0.3937007874015748,
                    "duration": 0.28125
                },
                {
                    "name": "D#5",
                    "midi": 75,
                    "time": 51.37500000000001,
                    "velocity": 0.4251968503937008,
                    "duration": 0.28125
                },
                {
                    "name": "D#4",
                    "midi": 63,
                    "time": 52.12500000000001,
                    "velocity": 0.2440944881889764,
                    "duration": 0.28125
                },
                {
                    "name": "F#4",
                    "midi": 66,
                    "time": 52.12500000000001,
                    "velocity": 0.2755905511811024,
                    "duration": 0.28125
                },
                {
                    "name": "A#4",
                    "midi": 70,
                    "time": 52.50000000000001,
                    "velocity": 0.2755905511811024,
                    "duration": 0.28125
                },
                {
                    "name": "F#4",
                    "midi": 66,
                    "time": 52.50000000000001,
                    "velocity": 0.2440944881889764,
                    "duration": 0.28125
                },
                {
                    "name": "A#3",
                    "midi": 58,
                    "time": 52.50000000000001,
                    "velocity": 0.2440944881889764,
                    "duration": 0.28125
                },
                {
                    "name": "G#4",
                    "midi": 68,
                    "time": 53.25000000000001,
                    "velocity": 0.28346456692913385,
                    "duration": 0.28125
                },
                {
                    "name": "D4",
                    "midi": 62,
                    "time": 53.25000000000001,
                    "velocity": 0.25196850393700787,
                    "duration": 0.28125
                },
                {
                    "name": "A#4",
                    "midi": 70,
                    "time": 53.62500000000001,
                    "velocity": 0.28346456692913385,
                    "duration": 0.28125
                },
                {
                    "name": "G#4",
                    "midi": 68,
                    "time": 53.62500000000001,
                    "velocity": 0.25196850393700787,
                    "duration": 0.28125
                },
                {
                    "name": "A#3",
                    "midi": 58,
                    "time": 53.62500000000001,
                    "velocity": 0.25196850393700787,
                    "duration": 0.28125
                },
                {
                    "name": "D#4",
                    "midi": 63,
                    "time": 54.37500000000001,
                    "velocity": 0.2440944881889764,
                    "duration": 0.375
                },
                {
                    "name": "F#4",
                    "midi": 66,
                    "time": 54.37500000000001,
                    "velocity": 0.2755905511811024,
                    "duration": 0.375
                },
                {
                    "name": "F#5",
                    "midi": 78,
                    "time": 54.75000000000001,
                    "velocity": 0.3543307086614173,
                    "duration": 0.28125
                },
                {
                    "name": "F#5",
                    "midi": 78,
                    "time": 55.12500000000001,
                    "velocity": 0.3700787401574803,
                    "duration": 0.28125
                },
                {
                    "name": "F#5",
                    "midi": 78,
                    "time": 55.50000000000001,
                    "velocity": 0.3937007874015748,
                    "duration": 0.28125
                },
                {
                    "name": "F#5",
                    "midi": 78,
                    "time": 55.87500000000001,
                    "velocity": 0.4251968503937008,
                    "duration": 0.28125
                },
                {
                    "name": "A#4",
                    "midi": 70,
                    "time": 56.62500000000001,
                    "velocity": 0.2755905511811024,
                    "duration": 0.28125
                },
                {
                    "name": "F#4",
                    "midi": 66,
                    "time": 56.62500000000001,
                    "velocity": 0.2440944881889764,
                    "duration": 0.28125
                },
                {
                    "name": "A#4",
                    "midi": 70,
                    "time": 57.00000000000001,
                    "velocity": 0.2440944881889764,
                    "duration": 0.28125
                },
                {
                    "name": "C#5",
                    "midi": 73,
                    "time": 57.00000000000001,
                    "velocity": 0.2755905511811024,
                    "duration": 0.28125
                },
                {
                    "name": "C#4",
                    "midi": 61,
                    "time": 57.00000000000001,
                    "velocity": 0.2755905511811024,
                    "duration": 0.28125
                },
                {
                    "name": "B4",
                    "midi": 71,
                    "time": 57.75000000000001,
                    "velocity": 0.28346456692913385,
                    "duration": 0.28125
                },
                {
                    "name": "F4",
                    "midi": 65,
                    "time": 57.75000000000001,
                    "velocity": 0.25196850393700787,
                    "duration": 0.28125
                },
                {
                    "name": "C#5",
                    "midi": 73,
                    "time": 58.12500000000001,
                    "velocity": 0.28346456692913385,
                    "duration": 0.28125
                },
                {
                    "name": "B4",
                    "midi": 71,
                    "time": 58.12500000000001,
                    "velocity": 0.25196850393700787,
                    "duration": 0.28125
                },
                {
                    "name": "C#4",
                    "midi": 61,
                    "time": 58.12500000000001,
                    "velocity": 0.25196850393700787,
                    "duration": 0.28125
                },
                {
                    "name": "F#5",
                    "midi": 78,
                    "time": 58.50000000000001,
                    "velocity": 0.36220472440944884,
                    "duration": 0.140625
                },
                {
                    "name": "G#5",
                    "midi": 80,
                    "time": 58.68750000000001,
                    "velocity": 0.36220472440944884,
                    "duration": 0.140625
                },
                {
                    "name": "F#4",
                    "midi": 66,
                    "time": 58.78125000000001,
                    "velocity": 0.3700787401574803,
                    "duration": 0.46875
                },
                {
                    "name": "A#5",
                    "midi": 82,
                    "time": 58.87500000000001,
                    "velocity": 0.3700787401574803,
                    "duration": 0.375
                },
                {
                    "name": "G#5",
                    "midi": 80,
                    "time": 59.25000000000001,
                    "velocity": 0.36220472440944884,
                    "duration": 0.140625
                },
                {
                    "name": "F#5",
                    "midi": 78,
                    "time": 59.43750000000001,
                    "velocity": 0.36220472440944884,
                    "duration": 0.140625
                },
                {
                    "name": "B4",
                    "midi": 71,
                    "time": 59.62500000000001,
                    "velocity": 0.36220472440944884,
                    "duration": 0.140625
                },
                {
                    "name": "C#5",
                    "midi": 73,
                    "time": 59.81250000000001,
                    "velocity": 0.36220472440944884,
                    "duration": 0.140625
                },
                {
                    "name": "B3",
                    "midi": 59,
                    "time": 59.90625000000001,
                    "velocity": 0.3858267716535433,
                    "duration": 0.46875
                },
                {
                    "name": "D#5",
                    "midi": 75,
                    "time": 60.00000000000001,
                    "velocity": 0.3858267716535433,
                    "duration": 0.375
                },
                {
                    "name": "C#5",
                    "midi": 73,
                    "time": 60.37500000000001,
                    "velocity": 0.36220472440944884,
                    "duration": 0.140625
                },
                {
                    "name": "B4",
                    "midi": 71,
                    "time": 60.56250000000001,
                    "velocity": 0.36220472440944884,
                    "duration": 0.140625
                },
                {
                    "name": "A#4",
                    "midi": 70,
                    "time": 60.75000000000001,
                    "velocity": 0.36220472440944884,
                    "duration": 0.140625
                },
                {
                    "name": "B4",
                    "midi": 71,
                    "time": 60.93750000000001,
                    "velocity": 0.36220472440944884,
                    "duration": 0.140625
                },
                {
                    "name": "C#4",
                    "midi": 61,
                    "time": 61.03125000000001,
                    "velocity": 0.3858267716535433,
                    "duration": 0.46875
                },
                {
                    "name": "C#5",
                    "midi": 73,
                    "time": 61.12500000000001,
                    "velocity": 0.3858267716535433,
                    "duration": 0.375
                },
                {
                    "name": "B4",
                    "midi": 71,
                    "time": 61.50000000000001,
                    "velocity": 0.36220472440944884,
                    "duration": 0.140625
                },
                {
                    "name": "A#4",
                    "midi": 70,
                    "time": 61.68750000000001,
                    "velocity": 0.36220472440944884,
                    "duration": 0.140625
                },
                {
                    "name": "G#4",
                    "midi": 68,
                    "time": 61.87500000000001,
                    "velocity": 0.36220472440944884,
                    "duration": 0.140625
                },
                {
                    "name": "A#4",
                    "midi": 70,
                    "time": 62.06250000000001,
                    "velocity": 0.36220472440944884,
                    "duration": 0.140625
                },
                {
                    "name": "C#4",
                    "midi": 61,
                    "time": 62.15625000000001,
                    "velocity": 0.3700787401574803,
                    "duration": 0.46875
                },
                {
                    "name": "B4",
                    "midi": 71,
                    "time": 62.25000000000001,
                    "velocity": 0.3700787401574803,
                    "duration": 0.375
                },
                {
                    "name": "F#4",
                    "midi": 66,
                    "time": 62.62500000000001,
                    "velocity": 0.3700787401574803,
                    "duration": 0.140625
                },
                {
                    "name": "G#4",
                    "midi": 68,
                    "time": 62.81250000000001,
                    "velocity": 0.3700787401574803,
                    "duration": 0.140625
                },
                {
                    "name": "F#3",
                    "midi": 54,
                    "time": 63.00000000000001,
                    "velocity": 0.3464566929133858,
                    "duration": 0.28125
                },
                {
                    "name": "A#4",
                    "midi": 70,
                    "time": 63.00000000000001,
                    "velocity": 0.3858267716535433,
                    "duration": 0.28125
                },
                {
                    "name": "F#4",
                    "midi": 66,
                    "time": 63.37500000000001,
                    "velocity": 0.4015748031496063,
                    "duration": 0.140625
                },
                {
                    "name": "F#5",
                    "midi": 78,
                    "time": 63.56250000000001,
                    "velocity": 0.4015748031496063,
                    "duration": 0.140625
                },
                {
                    "name": "G4",
                    "midi": 67,
                    "time": 63.75000000000001,
                    "velocity": 0.44881889763779526,
                    "duration": 0.140625
                },
                {
                    "name": "G5",
                    "midi": 79,
                    "time": 63.93750000000001,
                    "velocity": 0.44881889763779526,
                    "duration": 0.1406249999999929
                },
                {
                    "name": "E4",
                    "midi": 64,
                    "time": 64.5,
                    "velocity": 0.33858267716535434,
                    "duration": 0.28125
                },
                {
                    "name": "G#4",
                    "midi": 68,
                    "time": 64.5,
                    "velocity": 0.3700787401574803,
                    "duration": 0.28125
                },
                {
                    "name": "D#4",
                    "midi": 63,
                    "time": 64.875,
                    "velocity": 0.33858267716535434,
                    "duration": 0.28125
                },
                {
                    "name": "G#4",
                    "midi": 68,
                    "time": 64.875,
                    "velocity": 0.3700787401574803,
                    "duration": 0.28125
                },
                {
                    "name": "C#4",
                    "midi": 61,
                    "time": 65.25,
                    "velocity": 0.3543307086614173,
                    "duration": 0.28125
                },
                {
                    "name": "G#4",
                    "midi": 68,
                    "time": 65.25,
                    "velocity": 0.4094488188976378,
                    "duration": 0.28125
                },
                {
                    "name": "D#5",
                    "midi": 75,
                    "time": 65.625,
                    "velocity": 0.3700787401574803,
                    "duration": 0.28125
                },
                {
                    "name": "C#5",
                    "midi": 73,
                    "time": 66,
                    "velocity": 0.3700787401574803,
                    "duration": 0.28125
                },
                {
                    "name": "G#3",
                    "midi": 56,
                    "time": 66.375,
                    "velocity": 0.3543307086614173,
                    "duration": 0.375
                },
                {
                    "name": "C5",
                    "midi": 72,
                    "time": 66.375,
                    "velocity": 0.4015748031496063,
                    "duration": 0.28125
                },
                {
                    "name": "A#4",
                    "midi": 70,
                    "time": 66.75,
                    "velocity": 0.3700787401574803,
                    "duration": 0.28125
                },
                {
                    "name": "C5",
                    "midi": 72,
                    "time": 67.125,
                    "velocity": 0.3700787401574803,
                    "duration": 0.28125
                },
                {
                    "name": "C#4",
                    "midi": 61,
                    "time": 67.5,
                    "velocity": 0.3543307086614173,
                    "duration": 0.375
                },
                {
                    "name": "C#5",
                    "midi": 73,
                    "time": 67.5,
                    "velocity": 0.4015748031496063,
                    "duration": 0.28125
                },
                {
                    "name": "E5",
                    "midi": 76,
                    "time": 67.875,
                    "velocity": 0.3700787401574803,
                    "duration": 0.28125
                },
                {
                    "name": "G4",
                    "midi": 67,
                    "time": 68.25,
                    "velocity": 0.44881889763779526,
                    "duration": 0.140625
                },
                {
                    "name": "G5",
                    "midi": 79,
                    "time": 68.4375,
                    "velocity": 0.44881889763779526,
                    "duration": 0.140625
                },
                {
                    "name": "D#4",
                    "midi": 63,
                    "time": 69,
                    "velocity": 0.33858267716535434,
                    "duration": 0.28125
                },
                {
                    "name": "F#4",
                    "midi": 66,
                    "time": 69,
                    "velocity": 0.3700787401574803,
                    "duration": 0.28125
                },
                {
                    "name": "C#4",
                    "midi": 61,
                    "time": 69.375,
                    "velocity": 0.33858267716535434,
                    "duration": 0.28125
                },
                {
                    "name": "F#4",
                    "midi": 66,
                    "time": 69.375,
                    "velocity": 0.3700787401574803,
                    "duration": 0.28125
                },
                {
                    "name": "B3",
                    "midi": 59,
                    "time": 69.75,
                    "velocity": 0.3543307086614173,
                    "duration": 0.28125
                },
                {
                    "name": "F#4",
                    "midi": 66,
                    "time": 69.75,
                    "velocity": 0.4094488188976378,
                    "duration": 0.28125
                },
                {
                    "name": "C#5",
                    "midi": 73,
                    "time": 70.125,
                    "velocity": 0.3700787401574803,
                    "duration": 0.28125
                },
                {
                    "name": "B4",
                    "midi": 71,
                    "time": 70.5,
                    "velocity": 0.3700787401574803,
                    "duration": 0.28125
                },
                {
                    "name": "F#3",
                    "midi": 54,
                    "time": 70.875,
                    "velocity": 0.3543307086614173,
                    "duration": 0.375
                },
                {
                    "name": "A#4",
                    "midi": 70,
                    "time": 70.875,
                    "velocity": 0.4015748031496063,
                    "duration": 0.28125
                },
                {
                    "name": "G#4",
                    "midi": 68,
                    "time": 71.25,
                    "velocity": 0.3700787401574803,
                    "duration": 0.28125
                },
                {
                    "name": "A#4",
                    "midi": 70,
                    "time": 71.625,
                    "velocity": 0.3700787401574803,
                    "duration": 0.28125
                },
                {
                    "name": "B3",
                    "midi": 59,
                    "time": 72,
                    "velocity": 0.3543307086614173,
                    "duration": 0.375
                },
                {
                    "name": "B4",
                    "midi": 71,
                    "time": 72,
                    "velocity": 0.4015748031496063,
                    "duration": 0.28125
                },
                {
                    "name": "D#5",
                    "midi": 75,
                    "time": 72.375,
                    "velocity": 0.3700787401574803,
                    "duration": 0.28125
                },
                {
                    "name": "D4",
                    "midi": 62,
                    "time": 72.75,
                    "velocity": 0.44881889763779526,
                    "duration": 0.140625
                },
                {
                    "name": "D5",
                    "midi": 74,
                    "time": 72.9375,
                    "velocity": 0.4094488188976378,
                    "duration": 0.140625
                },
                {
                    "name": "D#4",
                    "midi": 63,
                    "time": 73.5,
                    "velocity": 0.4094488188976378,
                    "duration": 0.28125
                },
                {
                    "name": "G3",
                    "midi": 55,
                    "time": 73.5,
                    "velocity": 0.3543307086614173,
                    "duration": 0.28125
                },
                {
                    "name": "G#3",
                    "midi": 56,
                    "time": 73.875,
                    "velocity": 0.3543307086614173,
                    "duration": 0.28125
                },
                {
                    "name": "F4",
                    "midi": 65,
                    "time": 73.875,
                    "velocity": 0.4094488188976378,
                    "duration": 0.28125
                },
                {
                    "name": "A#3",
                    "midi": 58,
                    "time": 74.25,
                    "velocity": 0.4094488188976378,
                    "duration": 0.28125
                },
                {
                    "name": "G4",
                    "midi": 67,
                    "time": 74.25,
                    "velocity": 0.44881889763779526,
                    "duration": 0.28125
                },
                {
                    "name": "A#3",
                    "midi": 58,
                    "time": 74.625,
                    "velocity": 0.41732283464566927,
                    "duration": 0.28125
                },
                {
                    "name": "G4",
                    "midi": 67,
                    "time": 74.625,
                    "velocity": 0.4645669291338583,
                    "duration": 0.28125
                },
                {
                    "name": "B3",
                    "midi": 59,
                    "time": 75,
                    "velocity": 0.41732283464566927,
                    "duration": 0.28125
                },
                {
                    "name": "G#4",
                    "midi": 68,
                    "time": 75,
                    "velocity": 0.4645669291338583,
                    "duration": 0.28125
                },
                {
                    "name": "C#4",
                    "midi": 61,
                    "time": 75.375,
                    "velocity": 0.4094488188976378,
                    "duration": 0.28125
                },
                {
                    "name": "A#4",
                    "midi": 70,
                    "time": 75.375,
                    "velocity": 0.44881889763779526,
                    "duration": 0.28125
                },
                {
                    "name": "D4",
                    "midi": 62,
                    "time": 76.125,
                    "velocity": 0.3543307086614173,
                    "duration": 0.28125
                },
                {
                    "name": "F4",
                    "midi": 65,
                    "time": 76.125,
                    "velocity": 0.4094488188976378,
                    "duration": 0.28125
                },
                {
                    "name": "D#4",
                    "midi": 63,
                    "time": 76.5,
                    "velocity": 0.3937007874015748,
                    "duration": 0.28125
                },
                {
                    "name": "G4",
                    "midi": 67,
                    "time": 76.5,
                    "velocity": 0.4330708661417323,
                    "duration": 0.28125
                },
                {
                    "name": "D5",
                    "midi": 74,
                    "time": 77.25,
                    "velocity": 0.44881889763779526,
                    "duration": 0.140625
                },
                {
                    "name": "D6",
                    "midi": 86,
                    "time": 77.4375,
                    "velocity": 0.4094488188976378,
                    "duration": 0.140625
                },
                {
                    "name": "D#5",
                    "midi": 75,
                    "time": 77.99999999999999,
                    "velocity": 0.3543307086614173,
                    "duration": 0.28125
                },
                {
                    "name": "G4",
                    "midi": 67,
                    "time": 77.99999999999999,
                    "velocity": 0.3228346456692913,
                    "duration": 0.28125
                },
                {
                    "name": "G#4",
                    "midi": 68,
                    "time": 78.37499999999999,
                    "velocity": 0.3228346456692913,
                    "duration": 0.28125
                },
                {
                    "name": "F5",
                    "midi": 77,
                    "time": 78.37499999999999,
                    "velocity": 0.3543307086614173,
                    "duration": 0.28125
                },
                {
                    "name": "A#4",
                    "midi": 70,
                    "time": 78.74999999999999,
                    "velocity": 0.3543307086614173,
                    "duration": 0.28125
                },
                {
                    "name": "G5",
                    "midi": 79,
                    "time": 78.74999999999999,
                    "velocity": 0.4015748031496063,
                    "duration": 0.28125
                },
                {
                    "name": "A#4",
                    "midi": 70,
                    "time": 79.12499999999999,
                    "velocity": 0.3543307086614173,
                    "duration": 0.28125
                },
                {
                    "name": "G5",
                    "midi": 79,
                    "time": 79.12499999999999,
                    "velocity": 0.4094488188976378,
                    "duration": 0.28125
                },
                {
                    "name": "B4",
                    "midi": 71,
                    "time": 79.49999999999999,
                    "velocity": 0.3543307086614173,
                    "duration": 0.28125
                },
                {
                    "name": "G#5",
                    "midi": 80,
                    "time": 79.49999999999999,
                    "velocity": 0.4094488188976378,
                    "duration": 0.28125
                },
                {
                    "name": "C#5",
                    "midi": 73,
                    "time": 79.87499999999999,
                    "velocity": 0.3543307086614173,
                    "duration": 0.28125
                },
                {
                    "name": "A5",
                    "midi": 81,
                    "time": 79.87499999999999,
                    "velocity": 0.4015748031496063,
                    "duration": 0.28125
                },
                {
                    "name": "D5",
                    "midi": 74,
                    "time": 80.62499999999999,
                    "velocity": 0.33070866141732286,
                    "duration": 0.28125
                },
                {
                    "name": "F5",
                    "midi": 77,
                    "time": 80.62499999999999,
                    "velocity": 0.36220472440944884,
                    "duration": 0.28125
                },
                {
                    "name": "D#5",
                    "midi": 75,
                    "time": 80.99999999999999,
                    "velocity": 0.33070866141732286,
                    "duration": 0.28125
                },
                {
                    "name": "G5",
                    "midi": 79,
                    "time": 80.99999999999999,
                    "velocity": 0.36220472440944884,
                    "duration": 0.28125
                },
                {
                    "name": "D5",
                    "midi": 74,
                    "time": 81.37499999999999,
                    "velocity": 0.44881889763779526,
                    "duration": 0.140625
                },
                {
                    "name": "D6",
                    "midi": 86,
                    "time": 81.56249999999999,
                    "velocity": 0.4094488188976378,
                    "duration": 0.140625
                },
                {
                    "name": "D#5",
                    "midi": 75,
                    "time": 81.74999999999999,
                    "velocity": 0.4094488188976378,
                    "duration": 0.140625
                },
                {
                    "name": "D#6",
                    "midi": 87,
                    "time": 81.93749999999999,
                    "velocity": 0.4094488188976378,
                    "duration": 0.140625
                },
                {
                    "name": "D#5",
                    "midi": 75,
                    "time": 82.49999999999999,
                    "velocity": 0.4409448818897638,
                    "duration": 0.140625
                },
                {
                    "name": "D#6",
                    "midi": 87,
                    "time": 82.68749999999999,
                    "velocity": 0.4015748031496063,
                    "duration": 0.140625
                },
                {
                    "name": "E5",
                    "midi": 76,
                    "time": 82.87499999999999,
                    "velocity": 0.44881889763779526,
                    "duration": 0.140625
                },
                {
                    "name": "E6",
                    "midi": 88,
                    "time": 83.06249999999999,
                    "velocity": 0.4251968503937008,
                    "duration": 0.140625
                },
                {
                    "name": "E5",
                    "midi": 76,
                    "time": 83.62499999999999,
                    "velocity": 0.4645669291338583,
                    "duration": 0.140625
                },
                {
                    "name": "E6",
                    "midi": 88,
                    "time": 83.81249999999999,
                    "velocity": 0.4251968503937008,
                    "duration": 0.140625
                },
                {
                    "name": "F5",
                    "midi": 77,
                    "time": 83.99999999999999,
                    "velocity": 0.4881889763779528,
                    "duration": 0.140625
                },
                {
                    "name": "F6",
                    "midi": 89,
                    "time": 84.18749999999999,
                    "velocity": 0.44881889763779526,
                    "duration": 0.140625
                },
                {
                    "name": "F#5",
                    "midi": 78,
                    "time": 84.74999999999999,
                    "velocity": 0.48031496062992124,
                    "duration": 0.140625
                },
                {
                    "name": "F#6",
                    "midi": 90,
                    "time": 84.93749999999999,
                    "velocity": 0.4409448818897638,
                    "duration": 0.140625
                },
                {
                    "name": "G5",
                    "midi": 79,
                    "time": 85.49999999999999,
                    "velocity": 0.5039370078740157,
                    "duration": 0.140625
                },
                {
                    "name": "G6",
                    "midi": 91,
                    "time": 85.68749999999999,
                    "velocity": 0.47244094488188976,
                    "duration": 0.140625
                },
                {
                    "name": "G#5",
                    "midi": 80,
                    "time": 86.24999999999999,
                    "velocity": 0.5511811023622047,
                    "duration": 0.140625
                },
                {
                    "name": "G#6",
                    "midi": 92,
                    "time": 86.43749999999999,
                    "velocity": 0.5118110236220472,
                    "duration": 0.140625
                },
                {
                    "name": "D#4",
                    "midi": 63,
                    "time": 92.99999999999999,
                    "velocity": 0.3858267716535433,
                    "duration": 0.2812500000000142
                },
                {
                    "name": "D#5",
                    "midi": 75,
                    "time": 93.375,
                    "velocity": 0.4251968503937008,
                    "duration": 0.28125
                },
                {
                    "name": "C#5",
                    "midi": 73,
                    "time": 94.125,
                    "velocity": 0.4015748031496063,
                    "duration": 0.28125
                },
                {
                    "name": "G#3",
                    "midi": 56,
                    "time": 94.5,
                    "velocity": 0.33070866141732286,
                    "duration": 0.375
                },
                {
                    "name": "B4",
                    "midi": 71,
                    "time": 94.5,
                    "velocity": 0.4251968503937008,
                    "duration": 0.28125
                },
                {
                    "name": "B4",
                    "midi": 71,
                    "time": 94.875,
                    "velocity": 0.3937007874015748,
                    "duration": 0.28125
                },
                {
                    "name": "A#4",
                    "midi": 70,
                    "time": 95.25,
                    "velocity": 0.4015748031496063,
                    "duration": 0.28125
                },
                {
                    "name": "B3",
                    "midi": 59,
                    "time": 95.625,
                    "velocity": 0.29133858267716534,
                    "duration": 0.375
                },
                {
                    "name": "G#4",
                    "midi": 68,
                    "time": 95.625,
                    "velocity": 0.4251968503937008,
                    "duration": 0.28125
                },
                {
                    "name": "G4",
                    "midi": 67,
                    "time": 96,
                    "velocity": 0.4251968503937008,
                    "duration": 0.28125
                },
                {
                    "name": "G#4",
                    "midi": 68,
                    "time": 96.375,
                    "velocity": 0.44881889763779526,
                    "duration": 0.28125
                },
                {
                    "name": "G4",
                    "midi": 67,
                    "time": 96.65625,
                    "velocity": 0.3543307086614173,
                    "duration": 0.46875
                },
                {
                    "name": "A#4",
                    "midi": 70,
                    "time": 96.75,
                    "velocity": 0.4881889763779528,
                    "duration": 0.375
                },
                {
                    "name": "D#4",
                    "midi": 63,
                    "time": 97.125,
                    "velocity": 0.4251968503937008,
                    "duration": 0.28125
                },
                {
                    "name": "D#4",
                    "midi": 63,
                    "time": 97.5,
                    "velocity": 0.4251968503937008,
                    "duration": 0.28125
                },
                {
                    "name": "G3",
                    "midi": 55,
                    "time": 97.875,
                    "velocity": 0.3464566929133858,
                    "duration": 0.375
                },
                {
                    "name": "E4",
                    "midi": 64,
                    "time": 97.875,
                    "velocity": 0.4409448818897638,
                    "duration": 0.28125
                },
                {
                    "name": "D#4",
                    "midi": 63,
                    "time": 98.25,
                    "velocity": 0.4094488188976378,
                    "duration": 0.28125
                },
                {
                    "name": "C#4",
                    "midi": 61,
                    "time": 98.625,
                    "velocity": 0.4094488188976378,
                    "duration": 0.28125
                },
                {
                    "name": "G#3",
                    "midi": 56,
                    "time": 99,
                    "velocity": 0.3464566929133858,
                    "duration": 0.375
                },
                {
                    "name": "B3",
                    "midi": 59,
                    "time": 99,
                    "velocity": 0.4251968503937008,
                    "duration": 0.24687500000000284
                },
                {
                    "name": "B3",
                    "midi": 59,
                    "time": 99.375,
                    "velocity": 0.3937007874015748,
                    "duration": 0.28125
                },
                {
                    "name": "A#3",
                    "midi": 58,
                    "time": 99.75,
                    "velocity": 0.3858267716535433,
                    "duration": 0.28125
                },
                {
                    "name": "E3",
                    "midi": 52,
                    "time": 100.03125,
                    "velocity": 0.3543307086614173,
                    "duration": 0.46875
                },
                {
                    "name": "G#3",
                    "midi": 56,
                    "time": 100.125,
                    "velocity": 0.4251968503937008,
                    "duration": 0.28125
                },
                {
                    "name": "G3",
                    "midi": 55,
                    "time": 100.5,
                    "velocity": 0.3937007874015748,
                    "duration": 0.28125
                },
                {
                    "name": "G#3",
                    "midi": 56,
                    "time": 100.875,
                    "velocity": 0.3700787401574803,
                    "duration": 0.28125
                },
                {
                    "name": "G3",
                    "midi": 55,
                    "time": 101.25,
                    "velocity": 0.31496062992125984,
                    "duration": 0.375
                },
                {
                    "name": "A#3",
                    "midi": 58,
                    "time": 101.25,
                    "velocity": 0.3937007874015748,
                    "duration": 0.375
                },
                {
                    "name": "D#3",
                    "midi": 51,
                    "time": 101.625,
                    "velocity": 0.3543307086614173,
                    "duration": 0.1875
                },
                {
                    "name": "D#4",
                    "midi": 63,
                    "time": 102.28125,
                    "velocity": 0.44881889763779526,
                    "duration": 0.09375
                },
                {
                    "name": "D#5",
                    "midi": 75,
                    "time": 102.3921875,
                    "velocity": 0.4409448818897638,
                    "duration": 0.28125
                },
                {
                    "name": "C#5",
                    "midi": 73,
                    "time": 103.1421875,
                    "velocity": 0.4015748031496063,
                    "duration": 0.28125
                },
                {
                    "name": "G#3",
                    "midi": 56,
                    "time": 103.5,
                    "velocity": 0.33070866141732286,
                    "duration": 0.375
                },
                {
                    "name": "B4",
                    "midi": 71,
                    "time": 103.5,
                    "velocity": 0.4251968503937008,
                    "duration": 0.28125
                },
                {
                    "name": "B4",
                    "midi": 71,
                    "time": 103.875,
                    "velocity": 0.3937007874015748,
                    "duration": 0.28125
                },
                {
                    "name": "A#4",
                    "midi": 70,
                    "time": 104.25,
                    "velocity": 0.4015748031496063,
                    "duration": 0.28125
                },
                {
                    "name": "B3",
                    "midi": 59,
                    "time": 104.625,
                    "velocity": 0.29133858267716534,
                    "duration": 0.375
                },
                {
                    "name": "G#4",
                    "midi": 68,
                    "time": 104.625,
                    "velocity": 0.4251968503937008,
                    "duration": 0.28125
                },
                {
                    "name": "G4",
                    "midi": 67,
                    "time": 105,
                    "velocity": 0.4251968503937008,
                    "duration": 0.28125
                },
                {
                    "name": "G#4",
                    "midi": 68,
                    "time": 105.375,
                    "velocity": 0.44881889763779526,
                    "duration": 0.28125
                },
                {
                    "name": "A#4",
                    "midi": 70,
                    "time": 105.75,
                    "velocity": 0.4881889763779528,
                    "duration": 0.375
                },
                {
                    "name": "G4",
                    "midi": 67,
                    "time": 105.75,
                    "velocity": 0.31496062992125984,
                    "duration": 0.375
                },
                {
                    "name": "D#4",
                    "midi": 63,
                    "time": 106.125,
                    "velocity": 0.4251968503937008,
                    "duration": 0.28125
                },
                {
                    "name": "C#4",
                    "midi": 61,
                    "time": 106.875,
                    "velocity": 0.3543307086614173,
                    "duration": 0.375
                },
                {
                    "name": "A#4",
                    "midi": 70,
                    "time": 106.875,
                    "velocity": 0.3543307086614173,
                    "duration": 0.375
                },
                {
                    "name": "G#4",
                    "midi": 68,
                    "time": 106.875,
                    "velocity": 0.31496062992125984,
                    "duration": 0.375
                },
                {
                    "name": "D#4",
                    "midi": 63,
                    "time": 107.25,
                    "velocity": 0.3464566929133858,
                    "duration": 0.375
                },
                {
                    "name": "A#4",
                    "midi": 70,
                    "time": 107.25,
                    "velocity": 0.33858267716535434,
                    "duration": 0.375
                },
                {
                    "name": "G#4",
                    "midi": 68,
                    "time": 107.25,
                    "velocity": 0.29133858267716534,
                    "duration": 0.375
                },
                {
                    "name": "E4",
                    "midi": 64,
                    "time": 107.625,
                    "velocity": 0.3464566929133858,
                    "duration": 0.375
                },
                {
                    "name": "A#4",
                    "midi": 70,
                    "time": 107.625,
                    "velocity": 0.33858267716535434,
                    "duration": 0.375
                },
                {
                    "name": "G#4",
                    "midi": 68,
                    "time": 107.625,
                    "velocity": 0.29133858267716534,
                    "duration": 0.375
                },
                {
                    "name": "D#4",
                    "midi": 63,
                    "time": 108,
                    "velocity": 0.3464566929133858,
                    "duration": 0.375
                },
                {
                    "name": "G#4",
                    "midi": 68,
                    "time": 108,
                    "velocity": 0.3464566929133858,
                    "duration": 0.375
                },
                {
                    "name": "B4",
                    "midi": 71,
                    "time": 108,
                    "velocity": 0.3937007874015748,
                    "duration": 0.375
                },
                {
                    "name": "D#4",
                    "midi": 63,
                    "time": 109.125,
                    "velocity": 0.33070866141732286,
                    "duration": 0.375
                },
                {
                    "name": "G4",
                    "midi": 67,
                    "time": 109.125,
                    "velocity": 0.33070866141732286,
                    "duration": 0.375
                },
                {
                    "name": "C#5",
                    "midi": 73,
                    "time": 109.125,
                    "velocity": 0.36220472440944884,
                    "duration": 0.375
                },
                {
                    "name": "G#3",
                    "midi": 56,
                    "time": 110.25,
                    "velocity": 0.4094488188976378,
                    "duration": 0.140625
                },
                {
                    "name": "D#4",
                    "midi": 63,
                    "time": 110.4375,
                    "velocity": 0.3700787401574803,
                    "duration": 0.140625
                },
                {
                    "name": "B4",
                    "midi": 71,
                    "time": 110.625,
                    "velocity": 0.3700787401574803,
                    "duration": 0.140625
                },
                {
                    "name": "G#5",
                    "midi": 80,
                    "time": 110.8125,
                    "velocity": 0.3700787401574803,
                    "duration": 0.140625
                },
                {
                    "name": "G#2",
                    "midi": 44,
                    "time": 112.5,
                    "velocity": 0.4251968503937008,
                    "duration": 0.375
                },
                {
                    "name": "B3",
                    "midi": 59,
                    "time": 112.875,
                    "velocity": 0.3937007874015748,
                    "duration": 0.1875
                },
                {
                    "name": "D#3",
                    "midi": 51,
                    "time": 112.875,
                    "velocity": 0.3464566929133858,
                    "duration": 0.1875
                },
                {
                    "name": "D#3",
                    "midi": 51,
                    "time": 113.25,
                    "velocity": 0.3464566929133858,
                    "duration": 0.1875
                },
                {
                    "name": "B3",
                    "midi": 59,
                    "time": 113.25,
                    "velocity": 0.3937007874015748,
                    "duration": 0.1875
                },
                {
                    "name": "B2",
                    "midi": 47,
                    "time": 113.625,
                    "velocity": 0.4251968503937008,
                    "duration": 0.375
                },
                {
                    "name": "D#4",
                    "midi": 63,
                    "time": 114,
                    "velocity": 0.3937007874015748,
                    "duration": 0.1875
                },
                {
                    "name": "G#3",
                    "midi": 56,
                    "time": 114,
                    "velocity": 0.3464566929133858,
                    "duration": 0.1875
                },
                {
                    "name": "G#3",
                    "midi": 56,
                    "time": 114.375,
                    "velocity": 0.3464566929133858,
                    "duration": 0.1875
                },
                {
                    "name": "D#4",
                    "midi": 63,
                    "time": 114.375,
                    "velocity": 0.3937007874015748,
                    "duration": 0.1875
                },
                {
                    "name": "D#3",
                    "midi": 51,
                    "time": 114.75,
                    "velocity": 0.4251968503937008,
                    "duration": 0.375
                },
                {
                    "name": "G4",
                    "midi": 67,
                    "time": 115.125,
                    "velocity": 0.3700787401574803,
                    "duration": 0.1875
                },
                {
                    "name": "A#3",
                    "midi": 58,
                    "time": 115.125,
                    "velocity": 0.33858267716535434,
                    "duration": 0.1875
                },
                {
                    "name": "G4",
                    "midi": 67,
                    "time": 115.5,
                    "velocity": 0.3700787401574803,
                    "duration": 0.1875
                },
                {
                    "name": "A#3",
                    "midi": 58,
                    "time": 115.5,
                    "velocity": 0.33858267716535434,
                    "duration": 0.1875
                },
                {
                    "name": "G3",
                    "midi": 55,
                    "time": 115.875,
                    "velocity": 0.3937007874015748,
                    "duration": 0.375
                },
                {
                    "name": "A#4",
                    "midi": 70,
                    "time": 116.25,
                    "velocity": 0.3543307086614173,
                    "duration": 0.1875
                },
                {
                    "name": "D#4",
                    "midi": 63,
                    "time": 116.25,
                    "velocity": 0.31496062992125984,
                    "duration": 0.1875
                },
                {
                    "name": "D#4",
                    "midi": 63,
                    "time": 116.625,
                    "velocity": 0.31496062992125984,
                    "duration": 0.1875
                },
                {
                    "name": "A#4",
                    "midi": 70,
                    "time": 116.625,
                    "velocity": 0.3543307086614173,
                    "duration": 0.1875
                },
                {
                    "name": "G#3",
                    "midi": 56,
                    "time": 117,
                    "velocity": 0.3700787401574803,
                    "duration": 0.375
                },
                {
                    "name": "G#4",
                    "midi": 68,
                    "time": 117.375,
                    "velocity": 0.3464566929133858,
                    "duration": 0.1875
                },
                {
                    "name": "D#4",
                    "midi": 63,
                    "time": 117.375,
                    "velocity": 0.30708661417322836,
                    "duration": 0.1875
                },
                {
                    "name": "D#4",
                    "midi": 63,
                    "time": 117.75,
                    "velocity": 0.30708661417322836,
                    "duration": 0.1875
                },
                {
                    "name": "G#4",
                    "midi": 68,
                    "time": 117.75,
                    "velocity": 0.3464566929133858,
                    "duration": 0.1875
                },
                {
                    "name": "B3",
                    "midi": 59,
                    "time": 118.125,
                    "velocity": 0.3858267716535433,
                    "duration": 0.375
                },
                {
                    "name": "D4",
                    "midi": 62,
                    "time": 118.5,
                    "velocity": 0.28346456692913385,
                    "duration": 0.1875
                },
                {
                    "name": "F4",
                    "midi": 65,
                    "time": 118.5,
                    "velocity": 0.3228346456692913,
                    "duration": 0.1875
                },
                {
                    "name": "D4",
                    "midi": 62,
                    "time": 118.875,
                    "velocity": 0.28346456692913385,
                    "duration": 0.1875
                },
                {
                    "name": "F4",
                    "midi": 65,
                    "time": 118.875,
                    "velocity": 0.3228346456692913,
                    "duration": 0.1875
                },
                {
                    "name": "D#3",
                    "midi": 51,
                    "time": 119.25,
                    "velocity": 0.36220472440944884,
                    "duration": 0.375
                },
                {
                    "name": "G4",
                    "midi": 67,
                    "time": 119.625,
                    "velocity": 0.29133858267716534,
                    "duration": 0.375
                },
                {
                    "name": "A#3",
                    "midi": 58,
                    "time": 119.625,
                    "velocity": 0.2677165354330709,
                    "duration": 0.375
                },
                {
                    "name": "G#2",
                    "midi": 44,
                    "time": 121.5,
                    "velocity": 0.4251968503937008,
                    "duration": 0.375
                },
                {
                    "name": "B3",
                    "midi": 59,
                    "time": 121.875,
                    "velocity": 0.3937007874015748,
                    "duration": 0.1875
                },
                {
                    "name": "D#3",
                    "midi": 51,
                    "time": 121.875,
                    "velocity": 0.3464566929133858,
                    "duration": 0.1875
                },
                {
                    "name": "D#3",
                    "midi": 51,
                    "time": 122.25,
                    "velocity": 0.3464566929133858,
                    "duration": 0.1875
                },
                {
                    "name": "B3",
                    "midi": 59,
                    "time": 122.25,
                    "velocity": 0.3937007874015748,
                    "duration": 0.1875
                },
                {
                    "name": "B2",
                    "midi": 47,
                    "time": 122.625,
                    "velocity": 0.4251968503937008,
                    "duration": 0.375
                },
                {
                    "name": "D#4",
                    "midi": 63,
                    "time": 123,
                    "velocity": 0.3937007874015748,
                    "duration": 0.1875
                },
                {
                    "name": "G#3",
                    "midi": 56,
                    "time": 123,
                    "velocity": 0.3464566929133858,
                    "duration": 0.1875
                },
                {
                    "name": "G#3",
                    "midi": 56,
                    "time": 123.375,
                    "velocity": 0.3464566929133858,
                    "duration": 0.1875
                },
                {
                    "name": "D#4",
                    "midi": 63,
                    "time": 123.375,
                    "velocity": 0.3937007874015748,
                    "duration": 0.1875
                },
                {
                    "name": "D#3",
                    "midi": 51,
                    "time": 123.75,
                    "velocity": 0.4251968503937008,
                    "duration": 0.375
                },
                {
                    "name": "G4",
                    "midi": 67,
                    "time": 124.125,
                    "velocity": 0.30708661417322836,
                    "duration": 0.28125
                },
                {
                    "name": "A#3",
                    "midi": 58,
                    "time": 124.125,
                    "velocity": 0.2755905511811024,
                    "duration": 0.28125
                },
                {
                    "name": "G4",
                    "midi": 67,
                    "time": 124.5,
                    "velocity": 0.28346456692913385,
                    "duration": 0.28125
                },
                {
                    "name": "A#4",
                    "midi": 70,
                    "time": 124.5,
                    "velocity": 0.3228346456692913,
                    "duration": 0.28125
                },
                {
                    "name": "G#4",
                    "midi": 68,
                    "time": 124.875,
                    "velocity": 0.29133858267716534,
                    "duration": 0.28125
                },
                {
                    "name": "B4",
                    "midi": 71,
                    "time": 124.875,
                    "velocity": 0.33858267716535434,
                    "duration": 0.28125
                },
                {
                    "name": "F#4",
                    "midi": 66,
                    "time": 125.25,
                    "velocity": 0.2755905511811024,
                    "duration": 0.28125
                },
                {
                    "name": "A#4",
                    "midi": 70,
                    "time": 125.25,
                    "velocity": 0.31496062992125984,
                    "duration": 0.28125
                },
                {
                    "name": "E4",
                    "midi": 64,
                    "time": 125.625,
                    "velocity": 0.2755905511811024,
                    "duration": 0.28125
                },
                {
                    "name": "G#4",
                    "midi": 68,
                    "time": 125.625,
                    "velocity": 0.30708661417322836,
                    "duration": 0.28125
                },
                {
                    "name": "G#4",
                    "midi": 68,
                    "time": 126,
                    "velocity": 0.3228346456692913,
                    "duration": 0.375
                },
                {
                    "name": "D#4",
                    "midi": 63,
                    "time": 126,
                    "velocity": 0.3228346456692913,
                    "duration": 0.375
                },
                {
                    "name": "B4",
                    "midi": 71,
                    "time": 126,
                    "velocity": 0.3543307086614173,
                    "duration": 0.375
                },
                {
                    "name": "G4",
                    "midi": 67,
                    "time": 128.25,
                    "velocity": 0.3937007874015748,
                    "duration": 0.375
                },
                {
                    "name": "C#4",
                    "midi": 61,
                    "time": 128.25,
                    "velocity": 0.3464566929133858,
                    "duration": 0.375
                },
                {
                    "name": "D#3",
                    "midi": 51,
                    "time": 128.25,
                    "velocity": 0.3464566929133858,
                    "duration": 0.375
                },
                {
                    "name": "G#4",
                    "midi": 68,
                    "time": 130.50000000000003,
                    "velocity": 0.29133858267716534,
                    "duration": 0.375
                },
                {
                    "name": "B3",
                    "midi": 59,
                    "time": 130.50000000000003,
                    "velocity": 0.2677165354330709,
                    "duration": 0.375
                },
                {
                    "name": "D#3",
                    "midi": 51,
                    "time": 130.50000000000003,
                    "velocity": 0.2677165354330709,
                    "duration": 0.375
                },
                {
                    "name": "G#2",
                    "midi": 44,
                    "time": 130.50000000000003,
                    "velocity": 0.2677165354330709,
                    "duration": 0.375
                },
                {
                    "name": "G#4",
                    "midi": 68,
                    "time": 133.50000000000003,
                    "velocity": 0.3228346456692913,
                    "duration": 0.1875
                },
                {
                    "name": "G4",
                    "midi": 67,
                    "time": 133.68750000000003,
                    "velocity": 0.33858267716535434,
                    "duration": 0.1875
                },
                {
                    "name": "F#4",
                    "midi": 66,
                    "time": 133.87500000000003,
                    "velocity": 0.3464566929133858,
                    "duration": 0.140625
                },
                {
                    "name": "F4",
                    "midi": 65,
                    "time": 134.06250000000003,
                    "velocity": 0.3543307086614173,
                    "duration": 0.140625
                },
                {
                    "name": "E4",
                    "midi": 64,
                    "time": 134.25000000000003,
                    "velocity": 0.3543307086614173,
                    "duration": 0.140625
                },
                {
                    "name": "D#4",
                    "midi": 63,
                    "time": 134.43750000000003,
                    "velocity": 0.36220472440944884,
                    "duration": 0.140625
                },
                {
                    "name": "D4",
                    "midi": 62,
                    "time": 134.62500000000003,
                    "velocity": 0.3700787401574803,
                    "duration": 0.140625
                },
                {
                    "name": "C#4",
                    "midi": 61,
                    "time": 134.81250000000003,
                    "velocity": 0.3858267716535433,
                    "duration": 0.140625
                },
                {
                    "name": "D#4",
                    "midi": 63,
                    "time": 135.37500000000003,
                    "velocity": 0.3858267716535433,
                    "duration": 0.28125
                },
                {
                    "name": "B3",
                    "midi": 59,
                    "time": 135.37500000000003,
                    "velocity": 0.3464566929133858,
                    "duration": 0.28125
                },
                {
                    "name": "F#4",
                    "midi": 66,
                    "time": 135.75000000000003,
                    "velocity": 0.3858267716535433,
                    "duration": 0.28125
                },
                {
                    "name": "D#4",
                    "midi": 63,
                    "time": 135.75000000000003,
                    "velocity": 0.3464566929133858,
                    "duration": 0.28125
                },
                {
                    "name": "F#3",
                    "midi": 54,
                    "time": 135.75000000000003,
                    "velocity": 0.3464566929133858,
                    "duration": 0.28125
                },
                {
                    "name": "E4",
                    "midi": 64,
                    "time": 136.50000000000003,
                    "velocity": 0.36220472440944884,
                    "duration": 0.28125
                },
                {
                    "name": "A#3",
                    "midi": 58,
                    "time": 136.50000000000003,
                    "velocity": 0.33070866141732286,
                    "duration": 0.28125
                },
                {
                    "name": "F#4",
                    "midi": 66,
                    "time": 136.87500000000003,
                    "velocity": 0.36220472440944884,
                    "duration": 0.28125
                },
                {
                    "name": "F#3",
                    "midi": 54,
                    "time": 136.87500000000003,
                    "velocity": 0.33070866141732286,
                    "duration": 0.28125
                },
                {
                    "name": "A#3",
                    "midi": 58,
                    "time": 136.87500000000003,
                    "velocity": 0.33070866141732286,
                    "duration": 0.28125
                },
                {
                    "name": "B2",
                    "midi": 47,
                    "time": 137.25000000000003,
                    "velocity": 0.3937007874015748,
                    "duration": 0.28125
                },
                {
                    "name": "D#4",
                    "midi": 63,
                    "time": 137.62500000000003,
                    "velocity": 0.3543307086614173,
                    "duration": 0.1875
                },
                {
                    "name": "F#3",
                    "midi": 54,
                    "time": 137.62500000000003,
                    "velocity": 0.3228346456692913,
                    "duration": 0.1875
                },
                {
                    "name": "B4",
                    "midi": 71,
                    "time": 138.00000000000003,
                    "velocity": 0.3228346456692913,
                    "duration": 0.375
                },
                {
                    "name": "A#4",
                    "midi": 70,
                    "time": 138.37500000000003,
                    "velocity": 0.3464566929133858,
                    "duration": 0.140625
                },
                {
                    "name": "A4",
                    "midi": 69,
                    "time": 138.56250000000003,
                    "velocity": 0.3543307086614173,
                    "duration": 0.140625
                },
                {
                    "name": "G#4",
                    "midi": 68,
                    "time": 138.75000000000003,
                    "velocity": 0.3543307086614173,
                    "duration": 0.140625
                },
                {
                    "name": "G4",
                    "midi": 67,
                    "time": 138.93750000000003,
                    "velocity": 0.36220472440944884,
                    "duration": 0.140625
                },
                {
                    "name": "F#4",
                    "midi": 66,
                    "time": 139.12500000000003,
                    "velocity": 0.3700787401574803,
                    "duration": 0.140625
                },
                {
                    "name": "F4",
                    "midi": 65,
                    "time": 139.31250000000003,
                    "velocity": 0.3858267716535433,
                    "duration": 0.140625
                },
                {
                    "name": "F#4",
                    "midi": 66,
                    "time": 139.87500000000003,
                    "velocity": 0.3858267716535433,
                    "duration": 0.28125
                },
                {
                    "name": "D#4",
                    "midi": 63,
                    "time": 139.87500000000003,
                    "velocity": 0.3464566929133858,
                    "duration": 0.28125
                },
                {
                    "name": "A#4",
                    "midi": 70,
                    "time": 140.25000000000003,
                    "velocity": 0.3858267716535433,
                    "duration": 0.28125
                },
                {
                    "name": "F#4",
                    "midi": 66,
                    "time": 140.25000000000003,
                    "velocity": 0.3464566929133858,
                    "duration": 0.28125
                },
                {
                    "name": "A#3",
                    "midi": 58,
                    "time": 140.25000000000003,
                    "velocity": 0.3464566929133858,
                    "duration": 0.28125
                },
                {
                    "name": "G#4",
                    "midi": 68,
                    "time": 141.00000000000003,
                    "velocity": 0.36220472440944884,
                    "duration": 0.28125
                },
                {
                    "name": "D4",
                    "midi": 62,
                    "time": 141.00000000000003,
                    "velocity": 0.33070866141732286,
                    "duration": 0.28125
                },
                {
                    "name": "A#4",
                    "midi": 70,
                    "time": 141.37500000000003,
                    "velocity": 0.36220472440944884,
                    "duration": 0.28125
                },
                {
                    "name": "A#3",
                    "midi": 58,
                    "time": 141.37500000000003,
                    "velocity": 0.33070866141732286,
                    "duration": 0.28125
                },
                {
                    "name": "D4",
                    "midi": 62,
                    "time": 141.37500000000003,
                    "velocity": 0.33070866141732286,
                    "duration": 0.28125
                },
                {
                    "name": "D#3",
                    "midi": 51,
                    "time": 141.75000000000003,
                    "velocity": 0.3937007874015748,
                    "duration": 0.28125
                },
                {
                    "name": "F#4",
                    "midi": 66,
                    "time": 142.12500000000003,
                    "velocity": 0.3543307086614173,
                    "duration": 0.1875
                },
                {
                    "name": "A#3",
                    "midi": 58,
                    "time": 142.12500000000003,
                    "velocity": 0.3228346456692913,
                    "duration": 0.1875
                },
                {
                    "name": "D#5",
                    "midi": 75,
                    "time": 142.50000000000003,
                    "velocity": 0.3228346456692913,
                    "duration": 0.1875
                },
                {
                    "name": "D5",
                    "midi": 74,
                    "time": 142.68750000000003,
                    "velocity": 0.3228346456692913,
                    "duration": 0.1875
                },
                {
                    "name": "C#5",
                    "midi": 73,
                    "time": 142.87500000000003,
                    "velocity": 0.3464566929133858,
                    "duration": 0.140625
                },
                {
                    "name": "C5",
                    "midi": 72,
                    "time": 143.06250000000003,
                    "velocity": 0.3543307086614173,
                    "duration": 0.140625
                },
                {
                    "name": "B4",
                    "midi": 71,
                    "time": 143.25000000000003,
                    "velocity": 0.3543307086614173,
                    "duration": 0.140625
                },
                {
                    "name": "A#4",
                    "midi": 70,
                    "time": 143.43750000000003,
                    "velocity": 0.36220472440944884,
                    "duration": 0.140625
                },
                {
                    "name": "A4",
                    "midi": 69,
                    "time": 143.62500000000003,
                    "velocity": 0.3700787401574803,
                    "duration": 0.140625
                },
                {
                    "name": "G#4",
                    "midi": 68,
                    "time": 143.81250000000003,
                    "velocity": 0.3858267716535433,
                    "duration": 0.140625
                },
                {
                    "name": "A#4",
                    "midi": 70,
                    "time": 144.37500000000003,
                    "velocity": 0.3858267716535433,
                    "duration": 0.28125
                },
                {
                    "name": "F#4",
                    "midi": 66,
                    "time": 144.37500000000003,
                    "velocity": 0.3464566929133858,
                    "duration": 0.28125
                },
                {
                    "name": "C#5",
                    "midi": 73,
                    "time": 144.75000000000003,
                    "velocity": 0.3858267716535433,
                    "duration": 0.28125
                },
                {
                    "name": "A#4",
                    "midi": 70,
                    "time": 144.75000000000003,
                    "velocity": 0.3464566929133858,
                    "duration": 0.28125
                },
                {
                    "name": "C#4",
                    "midi": 61,
                    "time": 144.75000000000003,
                    "velocity": 0.3464566929133858,
                    "duration": 0.28125
                },
                {
                    "name": "B4",
                    "midi": 71,
                    "time": 145.50000000000003,
                    "velocity": 0.36220472440944884,
                    "duration": 0.28125
                },
                {
                    "name": "F4",
                    "midi": 65,
                    "time": 145.50000000000003,
                    "velocity": 0.33070866141732286,
                    "duration": 0.28125
                },
                {
                    "name": "C#5",
                    "midi": 73,
                    "time": 145.87500000000003,
                    "velocity": 0.36220472440944884,
                    "duration": 0.28125
                },
                {
                    "name": "C#4",
                    "midi": 61,
                    "time": 145.87500000000003,
                    "velocity": 0.33070866141732286,
                    "duration": 0.28125
                },
                {
                    "name": "F4",
                    "midi": 65,
                    "time": 145.87500000000003,
                    "velocity": 0.33070866141732286,
                    "duration": 0.28125
                },
                {
                    "name": "F#4",
                    "midi": 66,
                    "time": 146.25000000000003,
                    "velocity": 0.4330708661417323,
                    "duration": 0.375
                },
                {
                    "name": "F#5",
                    "midi": 78,
                    "time": 146.62500000000003,
                    "velocity": 0.3464566929133858,
                    "duration": 0.140625
                },
                {
                    "name": "A#5",
                    "midi": 82,
                    "time": 146.62500000000003,
                    "velocity": 0.3858267716535433,
                    "duration": 0.140625
                },
                {
                    "name": "G#5",
                    "midi": 80,
                    "time": 146.81250000000003,
                    "velocity": 0.3464566929133858,
                    "duration": 0.140625
                },
                {
                    "name": "B5",
                    "midi": 83,
                    "time": 146.81250000000003,
                    "velocity": 0.3858267716535433,
                    "duration": 0.140625
                },
                {
                    "name": "A#5",
                    "midi": 82,
                    "time": 147.00000000000003,
                    "velocity": 0.3543307086614173,
                    "duration": 0.28125
                },
                {
                    "name": "C#6",
                    "midi": 85,
                    "time": 147.00000000000003,
                    "velocity": 0.4094488188976378,
                    "duration": 0.28125
                },
                {
                    "name": "B3",
                    "midi": 59,
                    "time": 147.37500000000003,
                    "velocity": 0.4330708661417323,
                    "duration": 0.375
                },
                {
                    "name": "G#5",
                    "midi": 80,
                    "time": 147.75000000000003,
                    "velocity": 0.3858267716535433,
                    "duration": 0.140625
                },
                {
                    "name": "B4",
                    "midi": 71,
                    "time": 147.75000000000003,
                    "velocity": 0.3464566929133858,
                    "duration": 0.140625
                },
                {
                    "name": "A#5",
                    "midi": 82,
                    "time": 147.93750000000003,
                    "velocity": 0.3858267716535433,
                    "duration": 0.140625
                },
                {
                    "name": "C#5",
                    "midi": 73,
                    "time": 147.93750000000003,
                    "velocity": 0.3464566929133858,
                    "duration": 0.140625
                },
                {
                    "name": "D#5",
                    "midi": 75,
                    "time": 148.12500000000003,
                    "velocity": 0.3543307086614173,
                    "duration": 0.28125
                },
                {
                    "name": "B5",
                    "midi": 83,
                    "time": 148.12500000000003,
                    "velocity": 0.4015748031496063,
                    "duration": 0.28125
                },
                {
                    "name": "C#4",
                    "midi": 61,
                    "time": 148.50000000000003,
                    "velocity": 0.4330708661417323,
                    "duration": 0.375
                },
                {
                    "name": "A#4",
                    "midi": 70,
                    "time": 148.87500000000003,
                    "velocity": 0.3464566929133858,
                    "duration": 0.140625
                },
                {
                    "name": "F#5",
                    "midi": 78,
                    "time": 148.87500000000003,
                    "velocity": 0.3858267716535433,
                    "duration": 0.140625
                },
                {
                    "name": "B4",
                    "midi": 71,
                    "time": 149.06250000000003,
                    "velocity": 0.3464566929133858,
                    "duration": 0.140625
                },
                {
                    "name": "G#5",
                    "midi": 80,
                    "time": 149.06250000000003,
                    "velocity": 0.3858267716535433,
                    "duration": 0.140625
                },
                {
                    "name": "C#5",
                    "midi": 73,
                    "time": 149.25000000000003,
                    "velocity": 0.3543307086614173,
                    "duration": 0.28125
                },
                {
                    "name": "A#5",
                    "midi": 82,
                    "time": 149.25000000000003,
                    "velocity": 0.4094488188976378,
                    "duration": 0.28125
                },
                {
                    "name": "C#4",
                    "midi": 61,
                    "time": 149.62500000000003,
                    "velocity": 0.4330708661417323,
                    "duration": 0.375
                },
                {
                    "name": "F5",
                    "midi": 77,
                    "time": 150.00000000000003,
                    "velocity": 0.3858267716535433,
                    "duration": 0.140625
                },
                {
                    "name": "G#4",
                    "midi": 68,
                    "time": 150.00000000000003,
                    "velocity": 0.3464566929133858,
                    "duration": 0.140625
                },
                {
                    "name": "A#4",
                    "midi": 70,
                    "time": 150.18750000000003,
                    "velocity": 0.3464566929133858,
                    "duration": 0.140625
                },
                {
                    "name": "F#5",
                    "midi": 78,
                    "time": 150.18750000000003,
                    "velocity": 0.3858267716535433,
                    "duration": 0.140625
                },
                {
                    "name": "B4",
                    "midi": 71,
                    "time": 150.37500000000003,
                    "velocity": 0.3543307086614173,
                    "duration": 0.28125
                },
                {
                    "name": "G#5",
                    "midi": 80,
                    "time": 150.37500000000003,
                    "velocity": 0.4015748031496063,
                    "duration": 0.28125
                },
                {
                    "name": "A#5",
                    "midi": 82,
                    "time": 150.75000000000003,
                    "velocity": 0.4645669291338583,
                    "duration": 0.375
                },
                {
                    "name": "C#5",
                    "midi": 73,
                    "time": 150.75000000000003,
                    "velocity": 0.41732283464566927,
                    "duration": 0.375
                },
                {
                    "name": "F#4",
                    "midi": 66,
                    "time": 150.75000000000003,
                    "velocity": 0.41732283464566927,
                    "duration": 0.375
                },
                {
                    "name": "E4",
                    "midi": 64,
                    "time": 152.21875000000003,
                    "velocity": 0.3228346456692913,
                    "duration": 0.375
                },
                {
                    "name": "G#5",
                    "midi": 80,
                    "time": 152.25000000000003,
                    "velocity": 0.44881889763779526,
                    "duration": 0.34375
                },
                {
                    "name": "D#4",
                    "midi": 63,
                    "time": 152.59375000000003,
                    "velocity": 0.3543307086614173,
                    "duration": 0.40625
                },
                {
                    "name": "F#5",
                    "midi": 78,
                    "time": 152.62500000000003,
                    "velocity": 0.4409448818897638,
                    "duration": 0.375
                },
                {
                    "name": "C#4",
                    "midi": 61,
                    "time": 153.00000000000003,
                    "velocity": 0.3464566929133858,
                    "duration": 0.375
                },
                {
                    "name": "E5",
                    "midi": 76,
                    "time": 153.00000000000003,
                    "velocity": 0.4251968503937008,
                    "duration": 0.375
                },
                {
                    "name": "D#6",
                    "midi": 87,
                    "time": 153.37500000000003,
                    "velocity": 0.4330708661417323,
                    "duration": 0.28125
                },
                {
                    "name": "C#6",
                    "midi": 85,
                    "time": 153.75000000000003,
                    "velocity": 0.4330708661417323,
                    "duration": 0.28125
                },
                {
                    "name": "G#4",
                    "midi": 68,
                    "time": 154.12500000000003,
                    "velocity": 0.29133858267716534,
                    "duration": 0.375
                },
                {
                    "name": "C6",
                    "midi": 84,
                    "time": 154.12500000000003,
                    "velocity": 0.4645669291338583,
                    "duration": 0.28125
                },
                {
                    "name": "A#5",
                    "midi": 82,
                    "time": 154.50000000000003,
                    "velocity": 0.4330708661417323,
                    "duration": 0.28125
                },
                {
                    "name": "C6",
                    "midi": 84,
                    "time": 154.87500000000003,
                    "velocity": 0.4251968503937008,
                    "duration": 0.28125
                },
                {
                    "name": "C#5",
                    "midi": 73,
                    "time": 155.25000000000003,
                    "velocity": 0.30708661417322836,
                    "duration": 0.375
                },
                {
                    "name": "C#6",
                    "midi": 85,
                    "time": 155.25000000000003,
                    "velocity": 0.4015748031496063,
                    "duration": 0.28125
                },
                {
                    "name": "E6",
                    "midi": 88,
                    "time": 155.62500000000003,
                    "velocity": 0.3700787401574803,
                    "duration": 0.1875
                },
                {
                    "name": "D#4",
                    "midi": 63,
                    "time": 156.75000000000003,
                    "velocity": 0.3228346456692913,
                    "duration": 0.375
                },
                {
                    "name": "F#5",
                    "midi": 78,
                    "time": 156.75000000000003,
                    "velocity": 0.44881889763779526,
                    "duration": 0.375
                },
                {
                    "name": "C#4",
                    "midi": 61,
                    "time": 157.12500000000003,
                    "velocity": 0.3228346456692913,
                    "duration": 0.375
                },
                {
                    "name": "E5",
                    "midi": 76,
                    "time": 157.12500000000003,
                    "velocity": 0.4409448818897638,
                    "duration": 0.375
                },
                {
                    "name": "B3",
                    "midi": 59,
                    "time": 157.50000000000003,
                    "velocity": 0.3464566929133858,
                    "duration": 0.375
                },
                {
                    "name": "D#5",
                    "midi": 75,
                    "time": 157.50000000000003,
                    "velocity": 0.4251968503937008,
                    "duration": 0.375
                },
                {
                    "name": "C#6",
                    "midi": 85,
                    "time": 157.87500000000003,
                    "velocity": 0.4330708661417323,
                    "duration": 0.28125
                },
                {
                    "name": "B5",
                    "midi": 83,
                    "time": 158.25000000000003,
                    "velocity": 0.4330708661417323,
                    "duration": 0.28125
                },
                {
                    "name": "F#4",
                    "midi": 66,
                    "time": 158.62500000000003,
                    "velocity": 0.29133858267716534,
                    "duration": 0.375
                },
                {
                    "name": "A#5",
                    "midi": 82,
                    "time": 158.62500000000003,
                    "velocity": 0.4645669291338583,
                    "duration": 0.28125
                },
                {
                    "name": "G#5",
                    "midi": 80,
                    "time": 159.00000000000003,
                    "velocity": 0.4330708661417323,
                    "duration": 0.28125
                },
                {
                    "name": "A#5",
                    "midi": 82,
                    "time": 159.37500000000003,
                    "velocity": 0.4251968503937008,
                    "duration": 0.28125
                },
                {
                    "name": "B4",
                    "midi": 71,
                    "time": 159.75000000000003,
                    "velocity": 0.30708661417322836,
                    "duration": 0.375
                },
                {
                    "name": "B5",
                    "midi": 83,
                    "time": 159.75000000000003,
                    "velocity": 0.4015748031496063,
                    "duration": 0.28125
                },
                {
                    "name": "D#6",
                    "midi": 87,
                    "time": 160.12500000000003,
                    "velocity": 0.3700787401574803,
                    "duration": 0.1875
                },
                {
                    "name": "D#4",
                    "midi": 63,
                    "time": 161.25000000000003,
                    "velocity": 0.31496062992125984,
                    "duration": 0.375
                },
                {
                    "name": "G4",
                    "midi": 67,
                    "time": 161.25000000000003,
                    "velocity": 0.31496062992125984,
                    "duration": 0.375
                },
                {
                    "name": "D#5",
                    "midi": 75,
                    "time": 161.25000000000003,
                    "velocity": 0.3543307086614173,
                    "duration": 0.375
                },
                {
                    "name": "F4",
                    "midi": 65,
                    "time": 161.62500000000003,
                    "velocity": 0.29133858267716534,
                    "duration": 0.375
                },
                {
                    "name": "G#4",
                    "midi": 68,
                    "time": 161.62500000000003,
                    "velocity": 0.29133858267716534,
                    "duration": 0.375
                },
                {
                    "name": "D5",
                    "midi": 74,
                    "time": 161.62500000000003,
                    "velocity": 0.33858267716535434,
                    "duration": 0.375
                },
                {
                    "name": "G4",
                    "midi": 67,
                    "time": 162.00000000000003,
                    "velocity": 0.2755905511811024,
                    "duration": 0.375
                },
                {
                    "name": "A#4",
                    "midi": 70,
                    "time": 162.00000000000003,
                    "velocity": 0.2755905511811024,
                    "duration": 0.375
                },
                {
                    "name": "C#5",
                    "midi": 73,
                    "time": 162.00000000000003,
                    "velocity": 0.30708661417322836,
                    "duration": 0.375
                },
                {
                    "name": "G#4",
                    "midi": 68,
                    "time": 163.12500000000003,
                    "velocity": 0.33858267716535434,
                    "duration": 0.375
                },
                {
                    "name": "B4",
                    "midi": 71,
                    "time": 163.12500000000003,
                    "velocity": 0.33858267716535434,
                    "duration": 0.375
                },
                {
                    "name": "E5",
                    "midi": 76,
                    "time": 163.12500000000003,
                    "velocity": 0.3700787401574803,
                    "duration": 0.375
                },
                {
                    "name": "D#4",
                    "midi": 63,
                    "time": 164.15625000000003,
                    "velocity": 0.30708661417322836,
                    "duration": 0.46875
                },
                {
                    "name": "G5",
                    "midi": 79,
                    "time": 164.25000000000003,
                    "velocity": 0.3858267716535433,
                    "duration": 0.375
                },
                {
                    "name": "D#4",
                    "midi": 63,
                    "time": 165.75000000000003,
                    "velocity": 0.31496062992125984,
                    "duration": 0.375
                },
                {
                    "name": "G4",
                    "midi": 67,
                    "time": 165.75000000000003,
                    "velocity": 0.31496062992125984,
                    "duration": 0.375
                },
                {
                    "name": "D#5",
                    "midi": 75,
                    "time": 165.75000000000003,
                    "velocity": 0.3543307086614173,
                    "duration": 0.375
                },
                {
                    "name": "F4",
                    "midi": 65,
                    "time": 166.12500000000003,
                    "velocity": 0.29133858267716534,
                    "duration": 0.375
                },
                {
                    "name": "G#4",
                    "midi": 68,
                    "time": 166.12500000000003,
                    "velocity": 0.29133858267716534,
                    "duration": 0.375
                },
                {
                    "name": "D5",
                    "midi": 74,
                    "time": 166.12500000000003,
                    "velocity": 0.33858267716535434,
                    "duration": 0.375
                },
                {
                    "name": "G4",
                    "midi": 67,
                    "time": 166.50000000000003,
                    "velocity": 0.2755905511811024,
                    "duration": 0.375
                },
                {
                    "name": "A#4",
                    "midi": 70,
                    "time": 166.50000000000003,
                    "velocity": 0.2755905511811024,
                    "duration": 0.375
                },
                {
                    "name": "C#5",
                    "midi": 73,
                    "time": 166.50000000000003,
                    "velocity": 0.30708661417322836,
                    "duration": 0.375
                },
                {
                    "name": "G#4",
                    "midi": 68,
                    "time": 167.62500000000003,
                    "velocity": 0.33858267716535434,
                    "duration": 0.375
                },
                {
                    "name": "B4",
                    "midi": 71,
                    "time": 167.62500000000003,
                    "velocity": 0.33858267716535434,
                    "duration": 0.375
                },
                {
                    "name": "E5",
                    "midi": 76,
                    "time": 167.62500000000003,
                    "velocity": 0.3700787401574803,
                    "duration": 0.375
                },
                {
                    "name": "G5",
                    "midi": 79,
                    "time": 168.75000000000003,
                    "velocity": 0.30708661417322836,
                    "duration": 0.375
                },
                {
                    "name": "D#4",
                    "midi": 63,
                    "time": 168.75000000000003,
                    "velocity": 0.2755905511811024,
                    "duration": 0.375
                },
                {
                    "name": "A#4",
                    "midi": 70,
                    "time": 168.75000000000003,
                    "velocity": 0.2755905511811024,
                    "duration": 0.375
                },
                {
                    "name": "G#3",
                    "midi": 56,
                    "time": 169.87500000000003,
                    "velocity": 0.33858267716535434,
                    "duration": 0.375
                },
                {
                    "name": "B4",
                    "midi": 71,
                    "time": 169.87500000000003,
                    "velocity": 0.3700787401574803,
                    "duration": 0.375
                },
                {
                    "name": "D#3",
                    "midi": 51,
                    "time": 171.00000000000003,
                    "velocity": 0.30708661417322836,
                    "duration": 0.375
                },
                {
                    "name": "G4",
                    "midi": 67,
                    "time": 171.00000000000003,
                    "velocity": 0.30708661417322836,
                    "duration": 0.375
                },
                {
                    "name": "G#2",
                    "midi": 44,
                    "time": 172.12500000000003,
                    "velocity": 0.49606299212598426,
                    "duration": 0.375
                },
                {
                    "name": "B3",
                    "midi": 59,
                    "time": 172.12500000000003,
                    "velocity": 0.49606299212598426,
                    "duration": 0.375
                },
                {
                    "name": "G2",
                    "midi": 43,
                    "time": 178.68750000000003,
                    "velocity": 0.3228346456692913,
                    "duration": 0.5625
                },
                {
                    "name": "A#3",
                    "midi": 58,
                    "time": 178.78125000000003,
                    "velocity": 0.3228346456692913,
                    "duration": 0.46875
                },
                {
                    "name": "C#4",
                    "midi": 61,
                    "time": 178.87500000000003,
                    "velocity": 0.4015748031496063,
                    "duration": 0.375
                },
                {
                    "name": "D#5",
                    "midi": 75,
                    "time": 193.12500000000003,
                    "velocity": 0.3779527559055118,
                    "duration": 0.28125
                },
                {
                    "name": "D#6",
                    "midi": 87,
                    "time": 193.50000000000003,
                    "velocity": 0.4015748031496063,
                    "duration": 0.375
                },
                {
                    "name": "C#6",
                    "midi": 85,
                    "time": 194.25000000000003,
                    "velocity": 0.3779527559055118,
                    "duration": 0.28125
                },
                {
                    "name": "G#4",
                    "midi": 68,
                    "time": 194.62500000000003,
                    "velocity": 0.23622047244094488,
                    "duration": 0.375
                },
                {
                    "name": "B5",
                    "midi": 83,
                    "time": 194.62500000000003,
                    "velocity": 0.3937007874015748,
                    "duration": 0.28125
                },
                {
                    "name": "B5",
                    "midi": 83,
                    "time": 195.00000000000003,
                    "velocity": 0.2755905511811024,
                    "duration": 0.28125
                },
                {
                    "name": "A#5",
                    "midi": 82,
                    "time": 195.37500000000003,
                    "velocity": 0.33858267716535434,
                    "duration": 0.28125
                },
                {
                    "name": "G#5",
                    "midi": 80,
                    "time": 195.75000000000003,
                    "velocity": 0.31496062992125984,
                    "duration": 0.28125
                },
                {
                    "name": "B4",
                    "midi": 71,
                    "time": 195.75000000000003,
                    "velocity": 0.31496062992125984,
                    "duration": 0.375
                },
                {
                    "name": "G5",
                    "midi": 79,
                    "time": 196.12500000000003,
                    "velocity": 0.2047244094488189,
                    "duration": 0.28125
                },
                {
                    "name": "G#5",
                    "midi": 80,
                    "time": 196.50000000000003,
                    "velocity": 0.3228346456692913,
                    "duration": 0.28125
                },
                {
                    "name": "G5",
                    "midi": 79,
                    "time": 196.87500000000003,
                    "velocity": 0.31496062992125984,
                    "duration": 0.375
                },
                {
                    "name": "A#5",
                    "midi": 82,
                    "time": 196.87500000000003,
                    "velocity": 0.3937007874015748,
                    "duration": 0.375
                },
                {
                    "name": "D#5",
                    "midi": 75,
                    "time": 197.25000000000003,
                    "velocity": 0.2204724409448819,
                    "duration": 0.28125
                },
                {
                    "name": "D#5",
                    "midi": 75,
                    "time": 197.62500000000003,
                    "velocity": 0.29133858267716534,
                    "duration": 0.28125
                },
                {
                    "name": "E5",
                    "midi": 76,
                    "time": 198.00000000000003,
                    "velocity": 0.33070866141732286,
                    "duration": 0.28125
                },
                {
                    "name": "A#4",
                    "midi": 70,
                    "time": 198.00000000000003,
                    "velocity": 0.33070866141732286,
                    "duration": 0.375
                },
                {
                    "name": "G4",
                    "midi": 67,
                    "time": 198.00000000000003,
                    "velocity": 0.33070866141732286,
                    "duration": 0.375
                },
                {
                    "name": "D#5",
                    "midi": 75,
                    "time": 198.37500000000003,
                    "velocity": 0.2755905511811024,
                    "duration": 0.28125
                },
                {
                    "name": "C#5",
                    "midi": 73,
                    "time": 198.75000000000003,
                    "velocity": 0.2283464566929134,
                    "duration": 0.28125
                },
                {
                    "name": "G#4",
                    "midi": 68,
                    "time": 199.12500000000003,
                    "velocity": 0.2283464566929134,
                    "duration": 0.28125
                },
                {
                    "name": "B4",
                    "midi": 71,
                    "time": 199.12500000000003,
                    "velocity": 0.3464566929133858,
                    "duration": 0.28125
                },
                {
                    "name": "B4",
                    "midi": 71,
                    "time": 199.50000000000003,
                    "velocity": 0.2755905511811024,
                    "duration": 0.28125
                },
                {
                    "name": "G#4",
                    "midi": 68,
                    "time": 199.50000000000003,
                    "velocity": 0.2755905511811024,
                    "duration": 0.28125
                },
                {
                    "name": "F#4",
                    "midi": 66,
                    "time": 199.87500000000003,
                    "velocity": 0.2125984251968504,
                    "duration": 0.28125
                },
                {
                    "name": "A#4",
                    "midi": 70,
                    "time": 199.87500000000003,
                    "velocity": 0.3228346456692913,
                    "duration": 0.28125
                },
                {
                    "name": "G#4",
                    "midi": 68,
                    "time": 200.25000000000003,
                    "velocity": 0.29133858267716534,
                    "duration": 0.28125
                },
                {
                    "name": "E4",
                    "midi": 64,
                    "time": 200.25000000000003,
                    "velocity": 0.29133858267716534,
                    "duration": 0.28125
                },
                {
                    "name": "G4",
                    "midi": 67,
                    "time": 200.62500000000003,
                    "velocity": 0.2204724409448819,
                    "duration": 0.28125
                },
                {
                    "name": "G#4",
                    "midi": 68,
                    "time": 201.00000000000003,
                    "velocity": 0.2283464566929134,
                    "duration": 0.28125
                },
                {
                    "name": "G4",
                    "midi": 67,
                    "time": 201.37500000000003,
                    "velocity": 0.2047244094488189,
                    "duration": 0.375
                },
                {
                    "name": "A#4",
                    "midi": 70,
                    "time": 201.37500000000003,
                    "velocity": 0.2992125984251969,
                    "duration": 0.375
                },
                {
                    "name": "D#4",
                    "midi": 63,
                    "time": 201.75000000000003,
                    "velocity": 0.28346456692913385,
                    "duration": 0.375
                },
                {
                    "name": "D#4",
                    "midi": 63,
                    "time": 202.40625000000003,
                    "velocity": 0.31496062992125984,
                    "duration": 0.09375
                },
                {
                    "name": "D#5",
                    "midi": 75,
                    "time": 202.50000000000003,
                    "velocity": 0.3937007874015748,
                    "duration": 0.28125
                },
                {
                    "name": "D#5",
                    "midi": 75,
                    "time": 202.87500000000003,
                    "velocity": 0.36220472440944884,
                    "duration": 0.28125
                },
                {
                    "name": "C#5",
                    "midi": 73,
                    "time": 203.25000000000003,
                    "velocity": 0.3543307086614173,
                    "duration": 0.28125
                },
                {
                    "name": "G#3",
                    "midi": 56,
                    "time": 203.62500000000003,
                    "velocity": 0.33070866141732286,
                    "duration": 0.375
                },
                {
                    "name": "B4",
                    "midi": 71,
                    "time": 203.62500000000003,
                    "velocity": 0.4251968503937008,
                    "duration": 0.28125
                },
                {
                    "name": "B4",
                    "midi": 71,
                    "time": 204.00000000000003,
                    "velocity": 0.3937007874015748,
                    "duration": 0.28125
                },
                {
                    "name": "A#4",
                    "midi": 70,
                    "time": 204.37500000000003,
                    "velocity": 0.4015748031496063,
                    "duration": 0.28125
                },
                {
                    "name": "B3",
                    "midi": 59,
                    "time": 204.75000000000003,
                    "velocity": 0.29133858267716534,
                    "duration": 0.375
                },
                {
                    "name": "G#4",
                    "midi": 68,
                    "time": 204.75000000000003,
                    "velocity": 0.4251968503937008,
                    "duration": 0.28125
                },
                {
                    "name": "G4",
                    "midi": 67,
                    "time": 205.12500000000003,
                    "velocity": 0.3937007874015748,
                    "duration": 0.28125
                },
                {
                    "name": "G#4",
                    "midi": 68,
                    "time": 205.50000000000003,
                    "velocity": 0.4015748031496063,
                    "duration": 0.28125
                },
                {
                    "name": "G4",
                    "midi": 67,
                    "time": 205.87500000000003,
                    "velocity": 0.3464566929133858,
                    "duration": 0.375
                },
                {
                    "name": "A#4",
                    "midi": 70,
                    "time": 205.87500000000003,
                    "velocity": 0.4645669291338583,
                    "duration": 0.375
                },
                {
                    "name": "D#4",
                    "midi": 63,
                    "time": 206.25000000000003,
                    "velocity": 0.4251968503937008,
                    "duration": 0.28125
                },
                {
                    "name": "D#4",
                    "midi": 63,
                    "time": 206.62500000000003,
                    "velocity": 0.4251968503937008,
                    "duration": 0.28125
                },
                {
                    "name": "G#4",
                    "midi": 68,
                    "time": 207.00000000000003,
                    "velocity": 0.3543307086614173,
                    "duration": 0.28125
                },
                {
                    "name": "B3",
                    "midi": 59,
                    "time": 207.00000000000003,
                    "velocity": 0.3543307086614173,
                    "duration": 0.28125
                },
                {
                    "name": "F#4",
                    "midi": 66,
                    "time": 207.37500000000003,
                    "velocity": 0.33858267716535434,
                    "duration": 0.28125
                },
                {
                    "name": "C4",
                    "midi": 60,
                    "time": 207.37500000000003,
                    "velocity": 0.3464566929133858,
                    "duration": 0.28125
                },
                {
                    "name": "E4",
                    "midi": 64,
                    "time": 207.75000000000003,
                    "velocity": 0.3858267716535433,
                    "duration": 0.28125
                },
                {
                    "name": "C#4",
                    "midi": 61,
                    "time": 207.75000000000003,
                    "velocity": 0.29133858267716534,
                    "duration": 0.28125
                },
                {
                    "name": "D#4",
                    "midi": 63,
                    "time": 208.12500000000003,
                    "velocity": 0.4645669291338583,
                    "duration": 0.375
                },
                {
                    "name": "D#4",
                    "midi": 63,
                    "time": 209.25000000000003,
                    "velocity": 0.4094488188976378,
                    "duration": 0.375
                },
                {
                    "name": "G#3",
                    "midi": 56,
                    "time": 210.37500000000003,
                    "velocity": 0.4094488188976378,
                    "duration": 0.375
                },
                {
                    "name": "D#4",
                    "midi": 63,
                    "time": 210.56250000000003,
                    "velocity": 0.31496062992125984,
                    "duration": 0.09375
                },
                {
                    "name": "B4",
                    "midi": 71,
                    "time": 210.65625000000003,
                    "velocity": 0.31496062992125984,
                    "duration": 0.09375
                },
                {
                    "name": "G#5",
                    "midi": 80,
                    "time": 210.75000000000003,
                    "velocity": 0.36220472440944884,
                    "duration": 0.1875
                },
                {
                    "name": "G#1",
                    "midi": 32,
                    "time": 212.62500000000003,
                    "velocity": 0.3464566929133858,
                    "duration": 0.375
                },
                {
                    "name": "G#2",
                    "midi": 44,
                    "time": 212.62500000000003,
                    "velocity": 0.3937007874015748,
                    "duration": 0.375
                },
                {
                    "name": "D#3",
                    "midi": 51,
                    "time": 213.00000000000003,
                    "velocity": 0.30708661417322836,
                    "duration": 0.1875
                },
                {
                    "name": "D#4",
                    "midi": 63,
                    "time": 213.00000000000003,
                    "velocity": 0.3464566929133858,
                    "duration": 0.1875
                },
                {
                    "name": "B3",
                    "midi": 59,
                    "time": 213.00000000000003,
                    "velocity": 0.30708661417322836,
                    "duration": 0.1875
                },
                {
                    "name": "D#4",
                    "midi": 63,
                    "time": 213.37500000000003,
                    "velocity": 0.3464566929133858,
                    "duration": 0.1875
                },
                {
                    "name": "B3",
                    "midi": 59,
                    "time": 213.37500000000003,
                    "velocity": 0.30708661417322836,
                    "duration": 0.1875
                },
                {
                    "name": "G#3",
                    "midi": 56,
                    "time": 213.37500000000003,
                    "velocity": 0.30708661417322836,
                    "duration": 0.1875
                },
                {
                    "name": "B1",
                    "midi": 35,
                    "time": 213.75000000000003,
                    "velocity": 0.33858267716535434,
                    "duration": 0.375
                },
                {
                    "name": "B2",
                    "midi": 47,
                    "time": 213.75000000000003,
                    "velocity": 0.3700787401574803,
                    "duration": 0.375
                },
                {
                    "name": "D#4",
                    "midi": 63,
                    "time": 214.12500000000003,
                    "velocity": 0.3464566929133858,
                    "duration": 0.1875
                },
                {
                    "name": "B3",
                    "midi": 59,
                    "time": 214.12500000000003,
                    "velocity": 0.30708661417322836,
                    "duration": 0.1875
                },
                {
                    "name": "D#3",
                    "midi": 51,
                    "time": 214.12500000000003,
                    "velocity": 0.30708661417322836,
                    "duration": 0.1875
                },
                {
                    "name": "D#4",
                    "midi": 63,
                    "time": 214.50000000000003,
                    "velocity": 0.3464566929133858,
                    "duration": 0.1875
                },
                {
                    "name": "B3",
                    "midi": 59,
                    "time": 214.50000000000003,
                    "velocity": 0.30708661417322836,
                    "duration": 0.1875
                },
                {
                    "name": "G#3",
                    "midi": 56,
                    "time": 214.50000000000003,
                    "velocity": 0.30708661417322836,
                    "duration": 0.1875
                },
                {
                    "name": "D#2",
                    "midi": 39,
                    "time": 214.87500000000003,
                    "velocity": 0.3464566929133858,
                    "duration": 0.375
                },
                {
                    "name": "D#3",
                    "midi": 51,
                    "time": 214.87500000000003,
                    "velocity": 0.3858267716535433,
                    "duration": 0.375
                },
                {
                    "name": "G4",
                    "midi": 67,
                    "time": 215.25000000000003,
                    "velocity": 0.3464566929133858,
                    "duration": 0.28125
                },
                {
                    "name": "D#4",
                    "midi": 63,
                    "time": 215.25000000000003,
                    "velocity": 0.30708661417322836,
                    "duration": 0.28125
                },
                {
                    "name": "G3",
                    "midi": 55,
                    "time": 215.25000000000003,
                    "velocity": 0.30708661417322836,
                    "duration": 0.28125
                },
                {
                    "name": "G4",
                    "midi": 67,
                    "time": 215.62500000000003,
                    "velocity": 0.3464566929133858,
                    "duration": 0.28125
                },
                {
                    "name": "D#4",
                    "midi": 63,
                    "time": 215.62500000000003,
                    "velocity": 0.30708661417322836,
                    "duration": 0.28125
                },
                {
                    "name": "A#3",
                    "midi": 58,
                    "time": 215.62500000000003,
                    "velocity": 0.30708661417322836,
                    "duration": 0.28125
                },
                {
                    "name": "G2",
                    "midi": 43,
                    "time": 216.00000000000003,
                    "velocity": 0.4015748031496063,
                    "duration": 0.375
                },
                {
                    "name": "C#4",
                    "midi": 61,
                    "time": 216.37500000000003,
                    "velocity": 0.29133858267716534,
                    "duration": 0.28125
                },
                {
                    "name": "D#4",
                    "midi": 63,
                    "time": 216.37500000000003,
                    "velocity": 0.29133858267716534,
                    "duration": 0.28125
                },
                {
                    "name": "A#4",
                    "midi": 70,
                    "time": 216.37500000000003,
                    "velocity": 0.33858267716535434,
                    "duration": 0.28125
                },
                {
                    "name": "A#3",
                    "midi": 58,
                    "time": 216.75000000000003,
                    "velocity": 0.29133858267716534,
                    "duration": 0.28125
                },
                {
                    "name": "D#4",
                    "midi": 63,
                    "time": 216.75000000000003,
                    "velocity": 0.29133858267716534,
                    "duration": 0.28125
                },
                {
                    "name": "A#4",
                    "midi": 70,
                    "time": 216.75000000000003,
                    "velocity": 0.33858267716535434,
                    "duration": 0.28125
                },
                {
                    "name": "G#2",
                    "midi": 44,
                    "time": 217.12500000000003,
                    "velocity": 0.3700787401574803,
                    "duration": 0.375
                },
                {
                    "name": "G#4",
                    "midi": 68,
                    "time": 217.50000000000003,
                    "velocity": 0.31496062992125984,
                    "duration": 0.28125
                },
                {
                    "name": "D#4",
                    "midi": 63,
                    "time": 217.50000000000003,
                    "velocity": 0.2755905511811024,
                    "duration": 0.28125
                },
                {
                    "name": "D#4",
                    "midi": 63,
                    "time": 217.87500000000003,
                    "velocity": 0.31496062992125984,
                    "duration": 0.2812499999999716
                },
                {
                    "name": "B3",
                    "midi": 59,
                    "time": 217.87500000000003,
                    "velocity": 0.2755905511811024,
                    "duration": 0.2812499999999716
                },
                {
                    "name": "E2",
                    "midi": 40,
                    "time": 218.25,
                    "velocity": 0.36220472440944884,
                    "duration": 0.375
                },
                {
                    "name": "D4",
                    "midi": 62,
                    "time": 218.625,
                    "velocity": 0.29133858267716534,
                    "duration": 0.28125
                },
                {
                    "name": "B3",
                    "midi": 59,
                    "time": 218.625,
                    "velocity": 0.2677165354330709,
                    "duration": 0.28125
                },
                {
                    "name": "D4",
                    "midi": 62,
                    "time": 219,
                    "velocity": 0.29133858267716534,
                    "duration": 0.28125
                },
                {
                    "name": "A#3",
                    "midi": 58,
                    "time": 219,
                    "velocity": 0.2677165354330709,
                    "duration": 0.28125
                },
                {
                    "name": "D#2",
                    "midi": 39,
                    "time": 219.375,
                    "velocity": 0.33858267716535434,
                    "duration": 0.375
                },
                {
                    "name": "G3",
                    "midi": 55,
                    "time": 219.75,
                    "velocity": 0.2677165354330709,
                    "duration": 0.375
                },
                {
                    "name": "A#3",
                    "midi": 58,
                    "time": 219.75,
                    "velocity": 0.29133858267716534,
                    "duration": 0.375
                },
                {
                    "name": "A#4",
                    "midi": 70,
                    "time": 220.125,
                    "velocity": 0.28346456692913385,
                    "duration": 0.375
                },
                {
                    "name": "G4",
                    "midi": 67,
                    "time": 220.125,
                    "velocity": 0.25984251968503935,
                    "duration": 0.375
                },
                {
                    "name": "A#5",
                    "midi": 82,
                    "time": 220.5,
                    "velocity": 0.33858267716535434,
                    "duration": 0.375
                },
                {
                    "name": "G5",
                    "midi": 79,
                    "time": 220.5,
                    "velocity": 0.29133858267716534,
                    "duration": 0.375
                },
                {
                    "name": "G#2",
                    "midi": 44,
                    "time": 221.625,
                    "velocity": 0.33858267716535434,
                    "duration": 0.375
                },
                {
                    "name": "F#4",
                    "midi": 66,
                    "time": 222,
                    "velocity": 0.31496062992125984,
                    "duration": 0.28125
                },
                {
                    "name": "D#4",
                    "midi": 63,
                    "time": 222,
                    "velocity": 0.2755905511811024,
                    "duration": 0.28125
                },
                {
                    "name": "A3",
                    "midi": 57,
                    "time": 222,
                    "velocity": 0.2755905511811024,
                    "duration": 0.28125
                },
                {
                    "name": "C4",
                    "midi": 60,
                    "time": 222.375,
                    "velocity": 0.2755905511811024,
                    "duration": 0.28125
                },
                {
                    "name": "D#4",
                    "midi": 63,
                    "time": 222.375,
                    "velocity": 0.2755905511811024,
                    "duration": 0.28125
                },
                {
                    "name": "F#4",
                    "midi": 66,
                    "time": 222.375,
                    "velocity": 0.31496062992125984,
                    "duration": 0.28125
                },
                {
                    "name": "C3",
                    "midi": 48,
                    "time": 222.75,
                    "velocity": 0.33858267716535434,
                    "duration": 0.375
                },
                {
                    "name": "F#4",
                    "midi": 66,
                    "time": 223.125,
                    "velocity": 0.31496062992125984,
                    "duration": 0.28125
                },
                {
                    "name": "D#4",
                    "midi": 63,
                    "time": 223.125,
                    "velocity": 0.2755905511811024,
                    "duration": 0.28125
                },
                {
                    "name": "A3",
                    "midi": 57,
                    "time": 223.125,
                    "velocity": 0.2755905511811024,
                    "duration": 0.28125
                },
                {
                    "name": "C4",
                    "midi": 60,
                    "time": 223.5,
                    "velocity": 0.2755905511811024,
                    "duration": 0.28125
                },
                {
                    "name": "D#4",
                    "midi": 63,
                    "time": 223.5,
                    "velocity": 0.2755905511811024,
                    "duration": 0.28125
                },
                {
                    "name": "F#4",
                    "midi": 66,
                    "time": 223.5,
                    "velocity": 0.31496062992125984,
                    "duration": 0.28125
                },
                {
                    "name": "E3",
                    "midi": 52,
                    "time": 223.875,
                    "velocity": 0.33858267716535434,
                    "duration": 0.375
                },
                {
                    "name": "E4",
                    "midi": 64,
                    "time": 224.25,
                    "velocity": 0.25196850393700787,
                    "duration": 0.375
                },
                {
                    "name": "A4",
                    "midi": 69,
                    "time": 224.25,
                    "velocity": 0.28346456692913385,
                    "duration": 0.375
                },
                {
                    "name": "C4",
                    "midi": 60,
                    "time": 224.625,
                    "velocity": 0.2755905511811024,
                    "duration": 0.375
                },
                {
                    "name": "A4",
                    "midi": 69,
                    "time": 224.625,
                    "velocity": 0.31496062992125984,
                    "duration": 0.375
                },
                {
                    "name": "C#4",
                    "midi": 61,
                    "time": 225,
                    "velocity": 0.30708661417322836,
                    "duration": 0.375
                },
                {
                    "name": "A4",
                    "midi": 69,
                    "time": 225,
                    "velocity": 0.3464566929133858,
                    "duration": 0.375
                },
                {
                    "name": "F#4",
                    "midi": 66,
                    "time": 225.375,
                    "velocity": 0.2677165354330709,
                    "duration": 0.375
                },
                {
                    "name": "A4",
                    "midi": 69,
                    "time": 225.375,
                    "velocity": 0.29133858267716534,
                    "duration": 0.375
                },
                {
                    "name": "E4",
                    "midi": 64,
                    "time": 225.75,
                    "velocity": 0.25196850393700787,
                    "duration": 0.375
                },
                {
                    "name": "A4",
                    "midi": 69,
                    "time": 225.75,
                    "velocity": 0.28346456692913385,
                    "duration": 0.375
                },
                {
                    "name": "B4",
                    "midi": 71,
                    "time": 226.125,
                    "velocity": 0.3464566929133858,
                    "duration": 0.375
                },
                {
                    "name": "G#4",
                    "midi": 68,
                    "time": 226.125,
                    "velocity": 0.30708661417322836,
                    "duration": 0.375
                },
                {
                    "name": "D#4",
                    "midi": 63,
                    "time": 226.125,
                    "velocity": 0.30708661417322836,
                    "duration": 0.375
                },
                {
                    "name": "G4",
                    "midi": 67,
                    "time": 228.375,
                    "velocity": 0.36220472440944884,
                    "duration": 0.375
                },
                {
                    "name": "C#4",
                    "midi": 61,
                    "time": 228.375,
                    "velocity": 0.33070866141732286,
                    "duration": 0.375
                },
                {
                    "name": "D#3",
                    "midi": 51,
                    "time": 228.375,
                    "velocity": 0.33070866141732286,
                    "duration": 0.375
                },
                {
                    "name": "G#2",
                    "midi": 44,
                    "time": 230.625,
                    "velocity": 0.3228346456692913,
                    "duration": 0.125
                },
                {
                    "name": "D#3",
                    "midi": 51,
                    "time": 230.75,
                    "velocity": 0.3228346456692913,
                    "duration": 0.125
                },
                {
                    "name": "G#3",
                    "midi": 56,
                    "time": 230.875,
                    "velocity": 0.3228346456692913,
                    "duration": 0.125
                },
                {
                    "name": "B4",
                    "midi": 71,
                    "time": 231.375,
                    "velocity": 0.3228346456692913,
                    "duration": 0.125
                },
                {
                    "name": "D#5",
                    "midi": 75,
                    "time": 231.5,
                    "velocity": 0.3228346456692913,
                    "duration": 0.125
                },
                {
                    "name": "G#5",
                    "midi": 80,
                    "time": 231.625,
                    "velocity": 0.3228346456692913,
                    "duration": 0.125
                },
                {
                    "name": "G#4",
                    "midi": 68,
                    "time": 232.6875,
                    "velocity": 0.25984251968503935,
                    "duration": 0.140625
                },
                {
                    "name": "G4",
                    "midi": 67,
                    "time": 232.875,
                    "velocity": 0.28346456692913385,
                    "duration": 0.140625
                },
                {
                    "name": "A#4",
                    "midi": 70,
                    "time": 232.875,
                    "velocity": 0.28346456692913385,
                    "duration": 0.140625
                },
                {
                    "name": "F#4",
                    "midi": 66,
                    "time": 233.0625,
                    "velocity": 0.29133858267716534,
                    "duration": 0.140625
                },
                {
                    "name": "A4",
                    "midi": 69,
                    "time": 233.0625,
                    "velocity": 0.29133858267716534,
                    "duration": 0.140625
                },
                {
                    "name": "F4",
                    "midi": 65,
                    "time": 233.25,
                    "velocity": 0.3228346456692913,
                    "duration": 0.140625
                },
                {
                    "name": "G#4",
                    "midi": 68,
                    "time": 233.25,
                    "velocity": 0.3228346456692913,
                    "duration": 0.140625
                },
                {
                    "name": "E4",
                    "midi": 64,
                    "time": 233.4375,
                    "velocity": 0.3543307086614173,
                    "duration": 0.140625
                },
                {
                    "name": "G4",
                    "midi": 67,
                    "time": 233.4375,
                    "velocity": 0.3543307086614173,
                    "duration": 0.140625
                },
                {
                    "name": "B2",
                    "midi": 47,
                    "time": 233.625,
                    "velocity": 0.3700787401574803,
                    "duration": 0.140625
                },
                {
                    "name": "D#4",
                    "midi": 63,
                    "time": 233.8125,
                    "velocity": 0.2677165354330709,
                    "duration": 0.140625
                },
                {
                    "name": "F#3",
                    "midi": 54,
                    "time": 234,
                    "velocity": 0.25196850393700787,
                    "duration": 0.140625
                },
                {
                    "name": "B3",
                    "midi": 59,
                    "time": 234,
                    "velocity": 0.3464566929133858,
                    "duration": 0.140625
                },
                {
                    "name": "D#4",
                    "midi": 63,
                    "time": 234.1875,
                    "velocity": 0.2677165354330709,
                    "duration": 0.140625
                },
                {
                    "name": "B2",
                    "midi": 47,
                    "time": 234.375,
                    "velocity": 0.3464566929133858,
                    "duration": 0.140625
                },
                {
                    "name": "D#4",
                    "midi": 63,
                    "time": 234.5625,
                    "velocity": 0.2677165354330709,
                    "duration": 0.140625
                },
                {
                    "name": "F#2",
                    "midi": 42,
                    "time": 234.75,
                    "velocity": 0.3543307086614173,
                    "duration": 0.140625
                },
                {
                    "name": "E4",
                    "midi": 64,
                    "time": 234.9375,
                    "velocity": 0.25984251968503935,
                    "duration": 0.140625
                },
                {
                    "name": "F#3",
                    "midi": 54,
                    "time": 235.125,
                    "velocity": 0.2677165354330709,
                    "duration": 0.140625
                },
                {
                    "name": "A#3",
                    "midi": 58,
                    "time": 235.125,
                    "velocity": 0.3543307086614173,
                    "duration": 0.140625
                },
                {
                    "name": "E4",
                    "midi": 64,
                    "time": 235.3125,
                    "velocity": 0.28346456692913385,
                    "duration": 0.140625
                },
                {
                    "name": "F#2",
                    "midi": 42,
                    "time": 235.5,
                    "velocity": 0.36220472440944884,
                    "duration": 0.140625
                },
                {
                    "name": "E4",
                    "midi": 64,
                    "time": 235.6875,
                    "velocity": 0.28346456692913385,
                    "duration": 0.140625
                },
                {
                    "name": "B2",
                    "midi": 47,
                    "time": 235.875,
                    "velocity": 0.3700787401574803,
                    "duration": 0.1875
                },
                {
                    "name": "D#4",
                    "midi": 63,
                    "time": 236.0625,
                    "velocity": 0.30708661417322836,
                    "duration": 0.140625
                },
                {
                    "name": "F#3",
                    "midi": 54,
                    "time": 236.25,
                    "velocity": 0.30708661417322836,
                    "duration": 0.140625
                },
                {
                    "name": "B2",
                    "midi": 47,
                    "time": 236.4375,
                    "velocity": 0.29133858267716534,
                    "duration": 0.140625
                },
                {
                    "name": "F#2",
                    "midi": 42,
                    "time": 236.625,
                    "velocity": 0.28346456692913385,
                    "duration": 0.140625
                },
                {
                    "name": "B1",
                    "midi": 35,
                    "time": 236.8125,
                    "velocity": 0.28346456692913385,
                    "duration": 0.140625
                },
                {
                    "name": "B4",
                    "midi": 71,
                    "time": 237.1875,
                    "velocity": 0.25984251968503935,
                    "duration": 0.140625
                },
                {
                    "name": "B4",
                    "midi": 71,
                    "time": 237.375,
                    "velocity": 0.28346456692913385,
                    "duration": 0.140625
                },
                {
                    "name": "D5",
                    "midi": 74,
                    "time": 237.375,
                    "velocity": 0.28346456692913385,
                    "duration": 0.140625
                },
                {
                    "name": "A#4",
                    "midi": 70,
                    "time": 237.5625,
                    "velocity": 0.29133858267716534,
                    "duration": 0.140625
                },
                {
                    "name": "C#5",
                    "midi": 73,
                    "time": 237.5625,
                    "velocity": 0.29133858267716534,
                    "duration": 0.140625
                },
                {
                    "name": "A4",
                    "midi": 69,
                    "time": 237.75,
                    "velocity": 0.3228346456692913,
                    "duration": 0.140625
                },
                {
                    "name": "C5",
                    "midi": 72,
                    "time": 237.75,
                    "velocity": 0.3228346456692913,
                    "duration": 0.140625
                },
                {
                    "name": "G#4",
                    "midi": 68,
                    "time": 237.9375,
                    "velocity": 0.3543307086614173,
                    "duration": 0.140625
                },
                {
                    "name": "B4",
                    "midi": 71,
                    "time": 237.9375,
                    "velocity": 0.3543307086614173,
                    "duration": 0.140625
                },
                {
                    "name": "D#3",
                    "midi": 51,
                    "time": 238.125,
                    "velocity": 0.3700787401574803,
                    "duration": 0.140625
                },
                {
                    "name": "F#4",
                    "midi": 66,
                    "time": 238.3125,
                    "velocity": 0.2677165354330709,
                    "duration": 0.140625
                },
                {
                    "name": "A#3",
                    "midi": 58,
                    "time": 238.5,
                    "velocity": 0.25196850393700787,
                    "duration": 0.140625
                },
                {
                    "name": "D#4",
                    "midi": 63,
                    "time": 238.5,
                    "velocity": 0.3464566929133858,
                    "duration": 0.140625
                },
                {
                    "name": "F#4",
                    "midi": 66,
                    "time": 238.6875,
                    "velocity": 0.2677165354330709,
                    "duration": 0.140625
                },
                {
                    "name": "D#3",
                    "midi": 51,
                    "time": 238.875,
                    "velocity": 0.3464566929133858,
                    "duration": 0.140625
                },
                {
                    "name": "F#4",
                    "midi": 66,
                    "time": 239.0625,
                    "velocity": 0.2677165354330709,
                    "duration": 0.140625
                },
                {
                    "name": "A#2",
                    "midi": 46,
                    "time": 239.25,
                    "velocity": 0.3543307086614173,
                    "duration": 0.140625
                },
                {
                    "name": "G#4",
                    "midi": 68,
                    "time": 239.4375,
                    "velocity": 0.25984251968503935,
                    "duration": 0.140625
                },
                {
                    "name": "A#3",
                    "midi": 58,
                    "time": 239.625,
                    "velocity": 0.2677165354330709,
                    "duration": 0.140625
                },
                {
                    "name": "D4",
                    "midi": 62,
                    "time": 239.625,
                    "velocity": 0.3543307086614173,
                    "duration": 0.140625
                },
                {
                    "name": "G#4",
                    "midi": 68,
                    "time": 239.8125,
                    "velocity": 0.28346456692913385,
                    "duration": 0.140625
                },
                {
                    "name": "A#2",
                    "midi": 46,
                    "time": 240,
                    "velocity": 0.36220472440944884,
                    "duration": 0.140625
                },
                {
                    "name": "G#4",
                    "midi": 68,
                    "time": 240.1875,
                    "velocity": 0.28346456692913385,
                    "duration": 0.140625
                },
                {
                    "name": "D#3",
                    "midi": 51,
                    "time": 240.375,
                    "velocity": 0.3700787401574803,
                    "duration": 0.1875
                },
                {
                    "name": "F#4",
                    "midi": 66,
                    "time": 240.5625,
                    "velocity": 0.30708661417322836,
                    "duration": 0.140625
                },
                {
                    "name": "A#3",
                    "midi": 58,
                    "time": 240.75,
                    "velocity": 0.30708661417322836,
                    "duration": 0.140625
                },
                {
                    "name": "D#3",
                    "midi": 51,
                    "time": 240.9375,
                    "velocity": 0.29133858267716534,
                    "duration": 0.140625
                },
                {
                    "name": "A#2",
                    "midi": 46,
                    "time": 241.125,
                    "velocity": 0.29133858267716534,
                    "duration": 0.140625
                },
                {
                    "name": "D#2",
                    "midi": 39,
                    "time": 241.3125,
                    "velocity": 0.28346456692913385,
                    "duration": 0.140625
                },
                {
                    "name": "D#5",
                    "midi": 75,
                    "time": 241.6875,
                    "velocity": 0.25984251968503935,
                    "duration": 0.140625
                },
                {
                    "name": "D5",
                    "midi": 74,
                    "time": 241.875,
                    "velocity": 0.28346456692913385,
                    "duration": 0.140625
                },
                {
                    "name": "F5",
                    "midi": 77,
                    "time": 241.875,
                    "velocity": 0.28346456692913385,
                    "duration": 0.140625
                },
                {
                    "name": "C#5",
                    "midi": 73,
                    "time": 242.0625,
                    "velocity": 0.29133858267716534,
                    "duration": 0.140625
                },
                {
                    "name": "E5",
                    "midi": 76,
                    "time": 242.0625,
                    "velocity": 0.29133858267716534,
                    "duration": 0.140625
                },
                {
                    "name": "C5",
                    "midi": 72,
                    "time": 242.25,
                    "velocity": 0.3228346456692913,
                    "duration": 0.140625
                },
                {
                    "name": "D#5",
                    "midi": 75,
                    "time": 242.25,
                    "velocity": 0.3228346456692913,
                    "duration": 0.140625
                },
                {
                    "name": "B4",
                    "midi": 71,
                    "time": 242.4375,
                    "velocity": 0.3543307086614173,
                    "duration": 0.140625
                },
                {
                    "name": "D5",
                    "midi": 74,
                    "time": 242.4375,
                    "velocity": 0.3543307086614173,
                    "duration": 0.140625
                },
                {
                    "name": "F#3",
                    "midi": 54,
                    "time": 242.625,
                    "velocity": 0.3700787401574803,
                    "duration": 0.140625
                },
                {
                    "name": "A#4",
                    "midi": 70,
                    "time": 242.8125,
                    "velocity": 0.2677165354330709,
                    "duration": 0.140625
                },
                {
                    "name": "C#4",
                    "midi": 61,
                    "time": 243,
                    "velocity": 0.25196850393700787,
                    "duration": 0.140625
                },
                {
                    "name": "F#4",
                    "midi": 66,
                    "time": 243,
                    "velocity": 0.3464566929133858,
                    "duration": 0.140625
                },
                {
                    "name": "A#4",
                    "midi": 70,
                    "time": 243.1875,
                    "velocity": 0.2677165354330709,
                    "duration": 0.140625
                },
                {
                    "name": "F#3",
                    "midi": 54,
                    "time": 243.375,
                    "velocity": 0.3464566929133858,
                    "duration": 0.140625
                },
                {
                    "name": "A#4",
                    "midi": 70,
                    "time": 243.5625,
                    "velocity": 0.2677165354330709,
                    "duration": 0.140625
                },
                {
                    "name": "C#3",
                    "midi": 49,
                    "time": 243.75,
                    "velocity": 0.3543307086614173,
                    "duration": 0.140625
                },
                {
                    "name": "B4",
                    "midi": 71,
                    "time": 243.9375,
                    "velocity": 0.25984251968503935,
                    "duration": 0.140625
                },
                {
                    "name": "C#4",
                    "midi": 61,
                    "time": 244.125,
                    "velocity": 0.2677165354330709,
                    "duration": 0.140625
                },
                {
                    "name": "F4",
                    "midi": 65,
                    "time": 244.125,
                    "velocity": 0.3543307086614173,
                    "duration": 0.140625
                },
                {
                    "name": "B4",
                    "midi": 71,
                    "time": 244.3125,
                    "velocity": 0.28346456692913385,
                    "duration": 0.140625
                },
                {
                    "name": "C#3",
                    "midi": 49,
                    "time": 244.5,
                    "velocity": 0.36220472440944884,
                    "duration": 0.140625
                },
                {
                    "name": "B4",
                    "midi": 71,
                    "time": 244.6875,
                    "velocity": 0.28346456692913385,
                    "duration": 0.140625
                },
                {
                    "name": "F#3",
                    "midi": 54,
                    "time": 244.875,
                    "velocity": 0.36220472440944884,
                    "duration": 0.375
                },
                {
                    "name": "C#4",
                    "midi": 61,
                    "time": 245.25,
                    "velocity": 0.3543307086614173,
                    "duration": 0.140625
                },
                {
                    "name": "A#4",
                    "midi": 70,
                    "time": 245.4375,
                    "velocity": 0.3543307086614173,
                    "duration": 0.140625
                },
                {
                    "name": "F#5",
                    "midi": 78,
                    "time": 245.625,
                    "velocity": 0.33858267716535434,
                    "duration": 0.140625
                },
                {
                    "name": "A#5",
                    "midi": 82,
                    "time": 245.8125,
                    "velocity": 0.3228346456692913,
                    "duration": 0.140625
                },
                {
                    "name": "B2",
                    "midi": 47,
                    "time": 246,
                    "velocity": 0.31496062992125984,
                    "duration": 0.375
                },
                {
                    "name": "B3",
                    "midi": 59,
                    "time": 246.375,
                    "velocity": 0.33858267716535434,
                    "duration": 0.140625
                },
                {
                    "name": "G#4",
                    "midi": 68,
                    "time": 246.5625,
                    "velocity": 0.3228346456692913,
                    "duration": 0.140625
                },
                {
                    "name": "D#5",
                    "midi": 75,
                    "time": 246.75,
                    "velocity": 0.3228346456692913,
                    "duration": 0.140625
                },
                {
                    "name": "G#5",
                    "midi": 80,
                    "time": 246.9375,
                    "velocity": 0.31496062992125984,
                    "duration": 0.140625
                },
                {
                    "name": "C#3",
                    "midi": 49,
                    "time": 247.125,
                    "velocity": 0.3543307086614173,
                    "duration": 0.375
                },
                {
                    "name": "A#3",
                    "midi": 58,
                    "time": 247.5,
                    "velocity": 0.33858267716535434,
                    "duration": 0.140625
                },
                {
                    "name": "F#4",
                    "midi": 66,
                    "time": 247.6875,
                    "velocity": 0.3228346456692913,
                    "duration": 0.140625
                },
                {
                    "name": "C#5",
                    "midi": 73,
                    "time": 247.875,
                    "velocity": 0.31496062992125984,
                    "duration": 0.140625
                },
                {
                    "name": "F#5",
                    "midi": 78,
                    "time": 248.0625,
                    "velocity": 0.29133858267716534,
                    "duration": 0.140625
                },
                {
                    "name": "C#4",
                    "midi": 61,
                    "time": 248.25,
                    "velocity": 0.3700787401574803,
                    "duration": 0.375
                },
                {
                    "name": "F5",
                    "midi": 77,
                    "time": 248.625,
                    "velocity": 0.33858267716535434,
                    "duration": 0.140625
                },
                {
                    "name": "G#4",
                    "midi": 68,
                    "time": 248.8125,
                    "velocity": 0.3228346456692913,
                    "duration": 0.140625
                },
                {
                    "name": "C#4",
                    "midi": 61,
                    "time": 249,
                    "velocity": 0.31496062992125984,
                    "duration": 0.140625
                },
                {
                    "name": "B4",
                    "midi": 71,
                    "time": 249.1875,
                    "velocity": 0.30708661417322836,
                    "duration": 0.140625
                },
                {
                    "name": "F#4",
                    "midi": 66,
                    "time": 249.375,
                    "velocity": 0.36220472440944884,
                    "duration": 0.375
                },
                {
                    "name": "A#4",
                    "midi": 70,
                    "time": 249.375,
                    "velocity": 0.36220472440944884,
                    "duration": 0.375
                },
                {
                    "name": "F#2",
                    "midi": 42,
                    "time": 249.75,
                    "velocity": 0.48031496062992124,
                    "duration": 0.140625
                },
                {
                    "name": "F#3",
                    "midi": 54,
                    "time": 249.75,
                    "velocity": 0.48031496062992124,
                    "duration": 0.140625
                },
                {
                    "name": "F#2",
                    "midi": 42,
                    "time": 249.9375,
                    "velocity": 0.5039370078740157,
                    "duration": 0.140625
                },
                {
                    "name": "F#3",
                    "midi": 54,
                    "time": 249.9375,
                    "velocity": 0.5039370078740157,
                    "duration": 0.140625
                },
                {
                    "name": "G2",
                    "midi": 43,
                    "time": 250.125,
                    "velocity": 0.5196850393700787,
                    "duration": 0.140625
                },
                {
                    "name": "G3",
                    "midi": 55,
                    "time": 250.125,
                    "velocity": 0.5196850393700787,
                    "duration": 0.140625
                },
                {
                    "name": "G2",
                    "midi": 43,
                    "time": 250.3125,
                    "velocity": 0.5511811023622047,
                    "duration": 0.140625
                },
                {
                    "name": "G3",
                    "midi": 55,
                    "time": 250.3125,
                    "velocity": 0.5511811023622047,
                    "duration": 0.140625
                },
                {
                    "name": "G#2",
                    "midi": 44,
                    "time": 250.5,
                    "velocity": 0.5590551181102362,
                    "duration": 0.140625
                },
                {
                    "name": "G#3",
                    "midi": 56,
                    "time": 250.5,
                    "velocity": 0.5590551181102362,
                    "duration": 0.140625
                },
                {
                    "name": "G#2",
                    "midi": 44,
                    "time": 250.6875,
                    "velocity": 0.5590551181102362,
                    "duration": 0.140625
                },
                {
                    "name": "G#3",
                    "midi": 56,
                    "time": 250.6875,
                    "velocity": 0.5590551181102362,
                    "duration": 0.140625
                },
                {
                    "name": "G#4",
                    "midi": 68,
                    "time": 251.25,
                    "velocity": 0.5039370078740157,
                    "duration": 0.140625
                },
                {
                    "name": "G#5",
                    "midi": 80,
                    "time": 251.25,
                    "velocity": 0.5039370078740157,
                    "duration": 0.140625
                },
                {
                    "name": "G#4",
                    "midi": 68,
                    "time": 251.4375,
                    "velocity": 0.5039370078740157,
                    "duration": 0.140625
                },
                {
                    "name": "G#5",
                    "midi": 80,
                    "time": 251.4375,
                    "velocity": 0.5039370078740157,
                    "duration": 0.140625
                },
                {
                    "name": "D#5",
                    "midi": 75,
                    "time": 252,
                    "velocity": 0.4251968503937008,
                    "duration": 0.375
                },
                {
                    "name": "G#5",
                    "midi": 80,
                    "time": 252,
                    "velocity": 0.4251968503937008,
                    "duration": 0.140625
                },
                {
                    "name": "G#5",
                    "midi": 80,
                    "time": 252.1875,
                    "velocity": 0.33858267716535434,
                    "duration": 0.140625
                },
                {
                    "name": "C#5",
                    "midi": 73,
                    "time": 252.375,
                    "velocity": 0.33858267716535434,
                    "duration": 0.375
                },
                {
                    "name": "G#5",
                    "midi": 80,
                    "time": 252.375,
                    "velocity": 0.33858267716535434,
                    "duration": 0.140625
                },
                {
                    "name": "G#5",
                    "midi": 80,
                    "time": 252.5625,
                    "velocity": 0.33858267716535434,
                    "duration": 0.140625
                },
                {
                    "name": "C5",
                    "midi": 72,
                    "time": 252.75,
                    "velocity": 0.33858267716535434,
                    "duration": 0.375
                },
                {
                    "name": "G#5",
                    "midi": 80,
                    "time": 252.75,
                    "velocity": 0.33858267716535434,
                    "duration": 0.140625
                },
                {
                    "name": "G#5",
                    "midi": 80,
                    "time": 252.9375,
                    "velocity": 0.33858267716535434,
                    "duration": 0.140625
                },
                {
                    "name": "A#4",
                    "midi": 70,
                    "time": 253.125,
                    "velocity": 0.33858267716535434,
                    "duration": 0.375
                },
                {
                    "name": "G#5",
                    "midi": 80,
                    "time": 253.125,
                    "velocity": 0.33858267716535434,
                    "duration": 0.140625
                },
                {
                    "name": "G#5",
                    "midi": 80,
                    "time": 253.3125,
                    "velocity": 0.33858267716535434,
                    "duration": 0.140625
                },
                {
                    "name": "C5",
                    "midi": 72,
                    "time": 253.5,
                    "velocity": 0.33858267716535434,
                    "duration": 0.375
                },
                {
                    "name": "G#5",
                    "midi": 80,
                    "time": 253.5,
                    "velocity": 0.33858267716535434,
                    "duration": 0.140625
                },
                {
                    "name": "G#5",
                    "midi": 80,
                    "time": 253.6875,
                    "velocity": 0.33858267716535434,
                    "duration": 0.140625
                },
                {
                    "name": "C#5",
                    "midi": 73,
                    "time": 253.875,
                    "velocity": 0.36220472440944884,
                    "duration": 0.375
                },
                {
                    "name": "G#5",
                    "midi": 80,
                    "time": 253.875,
                    "velocity": 0.36220472440944884,
                    "duration": 0.375
                },
                {
                    "name": "G#2",
                    "midi": 44,
                    "time": 254.25,
                    "velocity": 0.48031496062992124,
                    "duration": 0.140625
                },
                {
                    "name": "G#3",
                    "midi": 56,
                    "time": 254.25,
                    "velocity": 0.48031496062992124,
                    "duration": 0.140625
                },
                {
                    "name": "G#2",
                    "midi": 44,
                    "time": 254.4375,
                    "velocity": 0.5039370078740157,
                    "duration": 0.140625
                },
                {
                    "name": "G#3",
                    "midi": 56,
                    "time": 254.4375,
                    "velocity": 0.5039370078740157,
                    "duration": 0.140625
                },
                {
                    "name": "G2",
                    "midi": 43,
                    "time": 254.625,
                    "velocity": 0.5196850393700787,
                    "duration": 0.140625
                },
                {
                    "name": "G3",
                    "midi": 55,
                    "time": 254.625,
                    "velocity": 0.5196850393700787,
                    "duration": 0.140625
                },
                {
                    "name": "G2",
                    "midi": 43,
                    "time": 254.8125,
                    "velocity": 0.5511811023622047,
                    "duration": 0.140625
                },
                {
                    "name": "G3",
                    "midi": 55,
                    "time": 254.8125,
                    "velocity": 0.5511811023622047,
                    "duration": 0.140625
                },
                {
                    "name": "F#2",
                    "midi": 42,
                    "time": 255,
                    "velocity": 0.5590551181102362,
                    "duration": 0.140625
                },
                {
                    "name": "F#3",
                    "midi": 54,
                    "time": 255,
                    "velocity": 0.5590551181102362,
                    "duration": 0.140625
                },
                {
                    "name": "F#2",
                    "midi": 42,
                    "time": 255.1875,
                    "velocity": 0.5590551181102362,
                    "duration": 0.140625
                },
                {
                    "name": "F#3",
                    "midi": 54,
                    "time": 255.1875,
                    "velocity": 0.5590551181102362,
                    "duration": 0.140625
                },
                {
                    "name": "F#4",
                    "midi": 66,
                    "time": 255.75,
                    "velocity": 0.5039370078740157,
                    "duration": 0.140625
                },
                {
                    "name": "F#5",
                    "midi": 78,
                    "time": 255.75,
                    "velocity": 0.5039370078740157,
                    "duration": 0.140625
                },
                {
                    "name": "F#4",
                    "midi": 66,
                    "time": 255.9375,
                    "velocity": 0.5039370078740157,
                    "duration": 0.140625
                },
                {
                    "name": "F#5",
                    "midi": 78,
                    "time": 255.9375,
                    "velocity": 0.5039370078740157,
                    "duration": 0.140625
                },
                {
                    "name": "C#5",
                    "midi": 73,
                    "time": 256.5,
                    "velocity": 0.4251968503937008,
                    "duration": 0.375
                },
                {
                    "name": "F#5",
                    "midi": 78,
                    "time": 256.5,
                    "velocity": 0.4251968503937008,
                    "duration": 0.140625
                },
                {
                    "name": "F#5",
                    "midi": 78,
                    "time": 256.6875,
                    "velocity": 0.33858267716535434,
                    "duration": 0.140625
                },
                {
                    "name": "B4",
                    "midi": 71,
                    "time": 256.875,
                    "velocity": 0.33858267716535434,
                    "duration": 0.375
                },
                {
                    "name": "F#5",
                    "midi": 78,
                    "time": 256.875,
                    "velocity": 0.33858267716535434,
                    "duration": 0.140625
                },
                {
                    "name": "F#5",
                    "midi": 78,
                    "time": 257.0625,
                    "velocity": 0.33858267716535434,
                    "duration": 0.140625
                },
                {
                    "name": "A#4",
                    "midi": 70,
                    "time": 257.25,
                    "velocity": 0.33858267716535434,
                    "duration": 0.375
                },
                {
                    "name": "F#5",
                    "midi": 78,
                    "time": 257.25,
                    "velocity": 0.33858267716535434,
                    "duration": 0.140625
                },
                {
                    "name": "F#5",
                    "midi": 78,
                    "time": 257.4375,
                    "velocity": 0.33858267716535434,
                    "duration": 0.140625
                },
                {
                    "name": "G#4",
                    "midi": 68,
                    "time": 257.625,
                    "velocity": 0.33858267716535434,
                    "duration": 0.375
                },
                {
                    "name": "F#5",
                    "midi": 78,
                    "time": 257.625,
                    "velocity": 0.33858267716535434,
                    "duration": 0.140625
                },
                {
                    "name": "F#5",
                    "midi": 78,
                    "time": 257.8125,
                    "velocity": 0.33858267716535434,
                    "duration": 0.140625
                },
                {
                    "name": "A#4",
                    "midi": 70,
                    "time": 258,
                    "velocity": 0.33858267716535434,
                    "duration": 0.375
                },
                {
                    "name": "F#5",
                    "midi": 78,
                    "time": 258,
                    "velocity": 0.33858267716535434,
                    "duration": 0.140625
                },
                {
                    "name": "F#5",
                    "midi": 78,
                    "time": 258.1875,
                    "velocity": 0.33858267716535434,
                    "duration": 0.140625
                },
                {
                    "name": "B4",
                    "midi": 71,
                    "time": 258.375,
                    "velocity": 0.36220472440944884,
                    "duration": 0.375
                },
                {
                    "name": "F#5",
                    "midi": 78,
                    "time": 258.375,
                    "velocity": 0.36220472440944884,
                    "duration": 0.375
                },
                {
                    "name": "F2",
                    "midi": 41,
                    "time": 258.75,
                    "velocity": 0.49606299212598426,
                    "duration": 0.140625
                },
                {
                    "name": "F3",
                    "midi": 53,
                    "time": 258.75,
                    "velocity": 0.49606299212598426,
                    "duration": 0.140625
                },
                {
                    "name": "F2",
                    "midi": 41,
                    "time": 258.9375,
                    "velocity": 0.5118110236220472,
                    "duration": 0.140625
                },
                {
                    "name": "F3",
                    "midi": 53,
                    "time": 258.9375,
                    "velocity": 0.5118110236220472,
                    "duration": 0.140625
                },
                {
                    "name": "E2",
                    "midi": 40,
                    "time": 259.125,
                    "velocity": 0.5275590551181102,
                    "duration": 0.140625
                },
                {
                    "name": "E3",
                    "midi": 52,
                    "time": 259.125,
                    "velocity": 0.5275590551181102,
                    "duration": 0.140625
                },
                {
                    "name": "E2",
                    "midi": 40,
                    "time": 259.3125,
                    "velocity": 0.5511811023622047,
                    "duration": 0.140625
                },
                {
                    "name": "E3",
                    "midi": 52,
                    "time": 259.3125,
                    "velocity": 0.5511811023622047,
                    "duration": 0.140625
                },
                {
                    "name": "D#2",
                    "midi": 39,
                    "time": 259.5,
                    "velocity": 0.5590551181102362,
                    "duration": 0.140625
                },
                {
                    "name": "D#3",
                    "midi": 51,
                    "time": 259.5,
                    "velocity": 0.5590551181102362,
                    "duration": 0.140625
                },
                {
                    "name": "D#2",
                    "midi": 39,
                    "time": 259.6875,
                    "velocity": 0.5590551181102362,
                    "duration": 0.140625
                },
                {
                    "name": "D#3",
                    "midi": 51,
                    "time": 259.6875,
                    "velocity": 0.5590551181102362,
                    "duration": 0.140625
                },
                {
                    "name": "D#4",
                    "midi": 63,
                    "time": 260.25,
                    "velocity": 0.5039370078740157,
                    "duration": 0.140625
                },
                {
                    "name": "D#5",
                    "midi": 75,
                    "time": 260.25,
                    "velocity": 0.5039370078740157,
                    "duration": 0.140625
                },
                {
                    "name": "D#4",
                    "midi": 63,
                    "time": 260.4375,
                    "velocity": 0.5039370078740157,
                    "duration": 0.140625
                },
                {
                    "name": "D#5",
                    "midi": 75,
                    "time": 260.4375,
                    "velocity": 0.5039370078740157,
                    "duration": 0.140625
                },
                {
                    "name": "D#4",
                    "midi": 63,
                    "time": 261,
                    "velocity": 0.3858267716535433,
                    "duration": 0.1875
                },
                {
                    "name": "G4",
                    "midi": 67,
                    "time": 261,
                    "velocity": 0.3858267716535433,
                    "duration": 0.1875
                },
                {
                    "name": "D#4",
                    "midi": 63,
                    "time": 261.1875,
                    "velocity": 0.3937007874015748,
                    "duration": 0.1875
                },
                {
                    "name": "G4",
                    "midi": 67,
                    "time": 261.1875,
                    "velocity": 0.3937007874015748,
                    "duration": 0.1875
                },
                {
                    "name": "F4",
                    "midi": 65,
                    "time": 261.375,
                    "velocity": 0.4094488188976378,
                    "duration": 0.1875
                },
                {
                    "name": "G#4",
                    "midi": 68,
                    "time": 261.375,
                    "velocity": 0.4094488188976378,
                    "duration": 0.1875
                },
                {
                    "name": "F4",
                    "midi": 65,
                    "time": 261.5625,
                    "velocity": 0.4251968503937008,
                    "duration": 0.1875
                },
                {
                    "name": "G#4",
                    "midi": 68,
                    "time": 261.5625,
                    "velocity": 0.4251968503937008,
                    "duration": 0.1875
                },
                {
                    "name": "F#4",
                    "midi": 66,
                    "time": 261.75,
                    "velocity": 0.4330708661417323,
                    "duration": 0.1875
                },
                {
                    "name": "A4",
                    "midi": 69,
                    "time": 261.75,
                    "velocity": 0.4330708661417323,
                    "duration": 0.1875
                },
                {
                    "name": "F#4",
                    "midi": 66,
                    "time": 261.9375,
                    "velocity": 0.4330708661417323,
                    "duration": 0.1875
                },
                {
                    "name": "A4",
                    "midi": 69,
                    "time": 261.9375,
                    "velocity": 0.4330708661417323,
                    "duration": 0.1875
                },
                {
                    "name": "E4",
                    "midi": 64,
                    "time": 262.125,
                    "velocity": 0.4251968503937008,
                    "duration": 0.1875
                },
                {
                    "name": "G4",
                    "midi": 67,
                    "time": 262.125,
                    "velocity": 0.4251968503937008,
                    "duration": 0.1875
                },
                {
                    "name": "E4",
                    "midi": 64,
                    "time": 262.3125,
                    "velocity": 0.4251968503937008,
                    "duration": 0.1875
                },
                {
                    "name": "G4",
                    "midi": 67,
                    "time": 262.3125,
                    "velocity": 0.4251968503937008,
                    "duration": 0.1875
                },
                {
                    "name": "D4",
                    "midi": 62,
                    "time": 262.5,
                    "velocity": 0.4094488188976378,
                    "duration": 0.1875
                },
                {
                    "name": "F4",
                    "midi": 65,
                    "time": 262.5,
                    "velocity": 0.4094488188976378,
                    "duration": 0.1875
                },
                {
                    "name": "D4",
                    "midi": 62,
                    "time": 262.6875,
                    "velocity": 0.4094488188976378,
                    "duration": 0.1875
                },
                {
                    "name": "F4",
                    "midi": 65,
                    "time": 262.6875,
                    "velocity": 0.4094488188976378,
                    "duration": 0.1875
                },
                {
                    "name": "D#4",
                    "midi": 63,
                    "time": 262.875,
                    "velocity": 0.4015748031496063,
                    "duration": 0.375
                },
                {
                    "name": "A#1",
                    "midi": 34,
                    "time": 263.25,
                    "velocity": 0.5511811023622047,
                    "duration": 0.140625
                },
                {
                    "name": "A#2",
                    "midi": 46,
                    "time": 263.25,
                    "velocity": 0.5511811023622047,
                    "duration": 0.140625
                },
                {
                    "name": "A#1",
                    "midi": 34,
                    "time": 263.4375,
                    "velocity": 0.5511811023622047,
                    "duration": 0.140625
                },
                {
                    "name": "A#2",
                    "midi": 46,
                    "time": 263.4375,
                    "velocity": 0.5511811023622047,
                    "duration": 0.140625
                },
                {
                    "name": "D2",
                    "midi": 38,
                    "time": 263.625,
                    "velocity": 0.5590551181102362,
                    "duration": 0.140625
                },
                {
                    "name": "D3",
                    "midi": 50,
                    "time": 263.625,
                    "velocity": 0.5590551181102362,
                    "duration": 0.140625
                },
                {
                    "name": "D2",
                    "midi": 38,
                    "time": 263.8125,
                    "velocity": 0.5748031496062992,
                    "duration": 0.140625
                },
                {
                    "name": "D3",
                    "midi": 50,
                    "time": 263.8125,
                    "velocity": 0.5748031496062992,
                    "duration": 0.140625
                },
                {
                    "name": "D#2",
                    "midi": 39,
                    "time": 264,
                    "velocity": 0.6062992125984252,
                    "duration": 0.140625
                },
                {
                    "name": "D#3",
                    "midi": 51,
                    "time": 264,
                    "velocity": 0.6062992125984252,
                    "duration": 0.140625
                },
                {
                    "name": "D#2",
                    "midi": 39,
                    "time": 264.1875,
                    "velocity": 0.6062992125984252,
                    "duration": 0.140625
                },
                {
                    "name": "D#3",
                    "midi": 51,
                    "time": 264.1875,
                    "velocity": 0.6062992125984252,
                    "duration": 0.140625
                },
                {
                    "name": "D#4",
                    "midi": 63,
                    "time": 264.75,
                    "velocity": 0.5590551181102362,
                    "duration": 0.140625
                },
                {
                    "name": "D#5",
                    "midi": 75,
                    "time": 264.75,
                    "velocity": 0.5590551181102362,
                    "duration": 0.140625
                },
                {
                    "name": "D#4",
                    "midi": 63,
                    "time": 264.9375,
                    "velocity": 0.5590551181102362,
                    "duration": 0.140625
                },
                {
                    "name": "D#5",
                    "midi": 75,
                    "time": 264.9375,
                    "velocity": 0.5590551181102362,
                    "duration": 0.140625
                },
                {
                    "name": "G4",
                    "midi": 67,
                    "time": 265.5,
                    "velocity": 0.44881889763779526,
                    "duration": 0.140625
                },
                {
                    "name": "D#5",
                    "midi": 75,
                    "time": 265.5,
                    "velocity": 0.44881889763779526,
                    "duration": 0.140625
                },
                {
                    "name": "G4",
                    "midi": 67,
                    "time": 265.6875,
                    "velocity": 0.4645669291338583,
                    "duration": 0.140625
                },
                {
                    "name": "D#5",
                    "midi": 75,
                    "time": 265.6875,
                    "velocity": 0.4645669291338583,
                    "duration": 0.140625
                },
                {
                    "name": "G#4",
                    "midi": 68,
                    "time": 265.875,
                    "velocity": 0.48031496062992124,
                    "duration": 0.140625
                },
                {
                    "name": "F5",
                    "midi": 77,
                    "time": 265.875,
                    "velocity": 0.48031496062992124,
                    "duration": 0.140625
                },
                {
                    "name": "G#4",
                    "midi": 68,
                    "time": 266.0625,
                    "velocity": 0.4881889763779528,
                    "duration": 0.140625
                },
                {
                    "name": "F5",
                    "midi": 77,
                    "time": 266.0625,
                    "velocity": 0.4881889763779528,
                    "duration": 0.140625
                },
                {
                    "name": "A4",
                    "midi": 69,
                    "time": 266.25,
                    "velocity": 0.49606299212598426,
                    "duration": 0.140625
                },
                {
                    "name": "F#5",
                    "midi": 78,
                    "time": 266.25,
                    "velocity": 0.49606299212598426,
                    "duration": 0.140625
                },
                {
                    "name": "A4",
                    "midi": 69,
                    "time": 266.4375,
                    "velocity": 0.5039370078740157,
                    "duration": 0.140625
                },
                {
                    "name": "F#5",
                    "midi": 78,
                    "time": 266.4375,
                    "velocity": 0.5039370078740157,
                    "duration": 0.140625
                },
                {
                    "name": "A#4",
                    "midi": 70,
                    "time": 266.625,
                    "velocity": 0.5039370078740157,
                    "duration": 0.140625
                },
                {
                    "name": "G5",
                    "midi": 79,
                    "time": 266.625,
                    "velocity": 0.5039370078740157,
                    "duration": 0.140625
                },
                {
                    "name": "A#4",
                    "midi": 70,
                    "time": 266.8125,
                    "velocity": 0.49606299212598426,
                    "duration": 0.140625
                },
                {
                    "name": "G5",
                    "midi": 79,
                    "time": 266.8125,
                    "velocity": 0.49606299212598426,
                    "duration": 0.140625
                },
                {
                    "name": "D5",
                    "midi": 74,
                    "time": 267,
                    "velocity": 0.49606299212598426,
                    "duration": 0.140625
                },
                {
                    "name": "F5",
                    "midi": 77,
                    "time": 267,
                    "velocity": 0.49606299212598426,
                    "duration": 0.140625
                },
                {
                    "name": "D5",
                    "midi": 74,
                    "time": 267.1875,
                    "velocity": 0.4881889763779528,
                    "duration": 0.140625
                },
                {
                    "name": "F5",
                    "midi": 77,
                    "time": 267.1875,
                    "velocity": 0.4881889763779528,
                    "duration": 0.140625
                },
                {
                    "name": "A#4",
                    "midi": 70,
                    "time": 267.375,
                    "velocity": 0.4881889763779528,
                    "duration": 0.140625
                },
                {
                    "name": "D#5",
                    "midi": 75,
                    "time": 267.375,
                    "velocity": 0.4881889763779528,
                    "duration": 0.140625
                },
                {
                    "name": "A#4",
                    "midi": 70,
                    "time": 267.5625,
                    "velocity": 0.4881889763779528,
                    "duration": 0.140625
                },
                {
                    "name": "D#5",
                    "midi": 75,
                    "time": 267.5625,
                    "velocity": 0.4881889763779528,
                    "duration": 0.140625
                },
                {
                    "name": "G#4",
                    "midi": 68,
                    "time": 267.75,
                    "velocity": 0.48031496062992124,
                    "duration": 0.140625
                },
                {
                    "name": "B4",
                    "midi": 71,
                    "time": 267.75,
                    "velocity": 0.48031496062992124,
                    "duration": 0.140625
                },
                {
                    "name": "G#4",
                    "midi": 68,
                    "time": 267.9375,
                    "velocity": 0.48031496062992124,
                    "duration": 0.140625
                },
                {
                    "name": "B4",
                    "midi": 71,
                    "time": 267.9375,
                    "velocity": 0.48031496062992124,
                    "duration": 0.140625
                },
                {
                    "name": "F#4",
                    "midi": 66,
                    "time": 268.125,
                    "velocity": 0.48031496062992124,
                    "duration": 0.140625
                },
                {
                    "name": "A4",
                    "midi": 69,
                    "time": 268.125,
                    "velocity": 0.48031496062992124,
                    "duration": 0.140625
                },
                {
                    "name": "F#4",
                    "midi": 66,
                    "time": 268.3125,
                    "velocity": 0.4881889763779528,
                    "duration": 0.140625
                },
                {
                    "name": "A4",
                    "midi": 69,
                    "time": 268.3125,
                    "velocity": 0.4881889763779528,
                    "duration": 0.140625
                },
                {
                    "name": "G4",
                    "midi": 67,
                    "time": 268.5,
                    "velocity": 0.4881889763779528,
                    "duration": 0.140625
                },
                {
                    "name": "A#4",
                    "midi": 70,
                    "time": 268.5,
                    "velocity": 0.4881889763779528,
                    "duration": 0.140625
                },
                {
                    "name": "G4",
                    "midi": 67,
                    "time": 268.6875,
                    "velocity": 0.4881889763779528,
                    "duration": 0.140625
                },
                {
                    "name": "A#4",
                    "midi": 70,
                    "time": 268.6875,
                    "velocity": 0.4881889763779528,
                    "duration": 0.140625
                },
                {
                    "name": "E4",
                    "midi": 64,
                    "time": 268.875,
                    "velocity": 0.4881889763779528,
                    "duration": 0.140625
                },
                {
                    "name": "G4",
                    "midi": 67,
                    "time": 268.875,
                    "velocity": 0.4881889763779528,
                    "duration": 0.140625
                },
                {
                    "name": "E4",
                    "midi": 64,
                    "time": 269.0625,
                    "velocity": 0.48031496062992124,
                    "duration": 0.140625
                },
                {
                    "name": "G4",
                    "midi": 67,
                    "time": 269.0625,
                    "velocity": 0.48031496062992124,
                    "duration": 0.140625
                },
                {
                    "name": "D4",
                    "midi": 62,
                    "time": 269.25,
                    "velocity": 0.48031496062992124,
                    "duration": 0.140625
                },
                {
                    "name": "F4",
                    "midi": 65,
                    "time": 269.25,
                    "velocity": 0.48031496062992124,
                    "duration": 0.140625
                },
                {
                    "name": "D4",
                    "midi": 62,
                    "time": 269.4375,
                    "velocity": 0.47244094488188976,
                    "duration": 0.140625
                },
                {
                    "name": "F4",
                    "midi": 65,
                    "time": 269.4375,
                    "velocity": 0.47244094488188976,
                    "duration": 0.140625
                },
                {
                    "name": "A#3",
                    "midi": 58,
                    "time": 269.625,
                    "velocity": 0.47244094488188976,
                    "duration": 0.140625
                },
                {
                    "name": "D#4",
                    "midi": 63,
                    "time": 269.625,
                    "velocity": 0.47244094488188976,
                    "duration": 0.140625
                },
                {
                    "name": "A#3",
                    "midi": 58,
                    "time": 269.8125,
                    "velocity": 0.4645669291338583,
                    "duration": 0.140625
                },
                {
                    "name": "D#4",
                    "midi": 63,
                    "time": 269.8125,
                    "velocity": 0.4645669291338583,
                    "duration": 0.140625
                },
                {
                    "name": "G#3",
                    "midi": 56,
                    "time": 270,
                    "velocity": 0.4645669291338583,
                    "duration": 0.140625
                },
                {
                    "name": "B3",
                    "midi": 59,
                    "time": 270,
                    "velocity": 0.4645669291338583,
                    "duration": 0.140625
                },
                {
                    "name": "G#3",
                    "midi": 56,
                    "time": 270.1875,
                    "velocity": 0.4645669291338583,
                    "duration": 0.140625
                },
                {
                    "name": "B3",
                    "midi": 59,
                    "time": 270.1875,
                    "velocity": 0.4645669291338583,
                    "duration": 0.140625
                },
                {
                    "name": "F#3",
                    "midi": 54,
                    "time": 270.375,
                    "velocity": 0.44881889763779526,
                    "duration": 0.140625
                },
                {
                    "name": "A3",
                    "midi": 57,
                    "time": 270.375,
                    "velocity": 0.44881889763779526,
                    "duration": 0.140625
                },
                {
                    "name": "F#3",
                    "midi": 54,
                    "time": 270.5625,
                    "velocity": 0.49606299212598426,
                    "duration": 0.140625
                },
                {
                    "name": "A3",
                    "midi": 57,
                    "time": 270.5625,
                    "velocity": 0.49606299212598426,
                    "duration": 0.140625
                },
                {
                    "name": "G3",
                    "midi": 55,
                    "time": 270.75,
                    "velocity": 0.5196850393700787,
                    "duration": 0.140625
                },
                {
                    "name": "A#3",
                    "midi": 58,
                    "time": 270.75,
                    "velocity": 0.5196850393700787,
                    "duration": 0.140625
                },
                {
                    "name": "G3",
                    "midi": 55,
                    "time": 270.9375,
                    "velocity": 0.5196850393700787,
                    "duration": 0.140625
                },
                {
                    "name": "A#3",
                    "midi": 58,
                    "time": 270.9375,
                    "velocity": 0.5196850393700787,
                    "duration": 0.140625
                },
                {
                    "name": "E3",
                    "midi": 52,
                    "time": 271.125,
                    "velocity": 0.5118110236220472,
                    "duration": 0.140625
                },
                {
                    "name": "G3",
                    "midi": 55,
                    "time": 271.125,
                    "velocity": 0.5118110236220472,
                    "duration": 0.140625
                },
                {
                    "name": "E3",
                    "midi": 52,
                    "time": 271.3125,
                    "velocity": 0.5039370078740157,
                    "duration": 0.140625
                },
                {
                    "name": "G3",
                    "midi": 55,
                    "time": 271.3125,
                    "velocity": 0.5039370078740157,
                    "duration": 0.140625
                },
                {
                    "name": "D3",
                    "midi": 50,
                    "time": 271.5,
                    "velocity": 0.5039370078740157,
                    "duration": 0.140625
                },
                {
                    "name": "F3",
                    "midi": 53,
                    "time": 271.5,
                    "velocity": 0.5039370078740157,
                    "duration": 0.140625
                },
                {
                    "name": "D3",
                    "midi": 50,
                    "time": 271.6875,
                    "velocity": 0.49606299212598426,
                    "duration": 0.140625
                },
                {
                    "name": "F3",
                    "midi": 53,
                    "time": 271.6875,
                    "velocity": 0.49606299212598426,
                    "duration": 0.140625
                },
                {
                    "name": "A#2",
                    "midi": 46,
                    "time": 271.875,
                    "velocity": 0.49606299212598426,
                    "duration": 0.140625
                },
                {
                    "name": "D#3",
                    "midi": 51,
                    "time": 271.875,
                    "velocity": 0.49606299212598426,
                    "duration": 0.140625
                },
                {
                    "name": "A#2",
                    "midi": 46,
                    "time": 272.0625,
                    "velocity": 0.4881889763779528,
                    "duration": 0.140625
                },
                {
                    "name": "D#3",
                    "midi": 51,
                    "time": 272.0625,
                    "velocity": 0.4881889763779528,
                    "duration": 0.140625
                },
                {
                    "name": "G#2",
                    "midi": 44,
                    "time": 272.25,
                    "velocity": 0.48031496062992124,
                    "duration": 0.140625
                },
                {
                    "name": "B2",
                    "midi": 47,
                    "time": 272.25,
                    "velocity": 0.48031496062992124,
                    "duration": 0.140625
                },
                {
                    "name": "G#2",
                    "midi": 44,
                    "time": 272.4375,
                    "velocity": 0.48031496062992124,
                    "duration": 0.140625
                },
                {
                    "name": "B2",
                    "midi": 47,
                    "time": 272.4375,
                    "velocity": 0.48031496062992124,
                    "duration": 0.140625
                },
                {
                    "name": "F#2",
                    "midi": 42,
                    "time": 272.625,
                    "velocity": 0.44881889763779526,
                    "duration": 0.140625
                },
                {
                    "name": "A2",
                    "midi": 45,
                    "time": 272.625,
                    "velocity": 0.44881889763779526,
                    "duration": 0.140625
                },
                {
                    "name": "F#2",
                    "midi": 42,
                    "time": 272.8125,
                    "velocity": 0.4645669291338583,
                    "duration": 0.140625
                },
                {
                    "name": "A2",
                    "midi": 45,
                    "time": 272.8125,
                    "velocity": 0.4645669291338583,
                    "duration": 0.140625
                },
                {
                    "name": "G2",
                    "midi": 43,
                    "time": 273,
                    "velocity": 0.48031496062992124,
                    "duration": 0.140625
                },
                {
                    "name": "A#2",
                    "midi": 46,
                    "time": 273,
                    "velocity": 0.48031496062992124,
                    "duration": 0.140625
                },
                {
                    "name": "G2",
                    "midi": 43,
                    "time": 273.1875,
                    "velocity": 0.4881889763779528,
                    "duration": 0.140625
                },
                {
                    "name": "A#2",
                    "midi": 46,
                    "time": 273.1875,
                    "velocity": 0.4881889763779528,
                    "duration": 0.140625
                },
                {
                    "name": "G2",
                    "midi": 43,
                    "time": 273.375,
                    "velocity": 0.5039370078740157,
                    "duration": 0.140625
                },
                {
                    "name": "A#2",
                    "midi": 46,
                    "time": 273.375,
                    "velocity": 0.5039370078740157,
                    "duration": 0.140625
                },
                {
                    "name": "G2",
                    "midi": 43,
                    "time": 273.5625,
                    "velocity": 0.5118110236220472,
                    "duration": 0.140625
                },
                {
                    "name": "A#2",
                    "midi": 46,
                    "time": 273.5625,
                    "velocity": 0.5118110236220472,
                    "duration": 0.140625
                },
                {
                    "name": "D2",
                    "midi": 38,
                    "time": 273.75,
                    "velocity": 0.5275590551181102,
                    "duration": 0.140625
                },
                {
                    "name": "B2",
                    "midi": 47,
                    "time": 273.75,
                    "velocity": 0.5275590551181102,
                    "duration": 0.140625
                },
                {
                    "name": "D2",
                    "midi": 38,
                    "time": 273.9375,
                    "velocity": 0.5433070866141733,
                    "duration": 0.140625
                },
                {
                    "name": "B2",
                    "midi": 47,
                    "time": 273.9375,
                    "velocity": 0.5433070866141733,
                    "duration": 0.140625
                },
                {
                    "name": "D#2",
                    "midi": 39,
                    "time": 274.125,
                    "velocity": 0.5590551181102362,
                    "duration": 0.375
                },
                {
                    "name": "A#2",
                    "midi": 46,
                    "time": 274.125,
                    "velocity": 0.5590551181102362,
                    "duration": 0.375
                },
                {
                    "name": "D3",
                    "midi": 50,
                    "time": 274.6875,
                    "velocity": 0.6377952755905512,
                    "duration": 0.1875
                },
                {
                    "name": "D#3",
                    "midi": 51,
                    "time": 275.0625,
                    "velocity": 0.6377952755905512,
                    "duration": 0.1875
                },
                {
                    "name": "A3",
                    "midi": 57,
                    "time": 275.4375,
                    "velocity": 0.6377952755905512,
                    "duration": 0.1875
                },
                {
                    "name": "A#3",
                    "midi": 58,
                    "time": 275.81249999999994,
                    "velocity": 0.6377952755905512,
                    "duration": 0.1875
                },
                {
                    "name": "D3",
                    "midi": 50,
                    "time": 276.18749999999994,
                    "velocity": 0.44881889763779526,
                    "duration": 0.1875
                },
                {
                    "name": "D4",
                    "midi": 62,
                    "time": 276.18749999999994,
                    "velocity": 0.5433070866141733,
                    "duration": 0.1875
                },
                {
                    "name": "D#3",
                    "midi": 51,
                    "time": 276.56249999999994,
                    "velocity": 0.4409448818897638,
                    "duration": 0.1875
                },
                {
                    "name": "D#4",
                    "midi": 63,
                    "time": 276.56249999999994,
                    "velocity": 0.5275590551181102,
                    "duration": 0.1875
                },
                {
                    "name": "A3",
                    "midi": 57,
                    "time": 276.93749999999994,
                    "velocity": 0.5433070866141733,
                    "duration": 0.1875
                },
                {
                    "name": "A4",
                    "midi": 69,
                    "time": 276.93749999999994,
                    "velocity": 0.5433070866141733,
                    "duration": 0.1875
                },
                {
                    "name": "A#3",
                    "midi": 58,
                    "time": 277.31249999999994,
                    "velocity": 0.5511811023622047,
                    "duration": 0.1875
                },
                {
                    "name": "A#4",
                    "midi": 70,
                    "time": 277.31249999999994,
                    "velocity": 0.5511811023622047,
                    "duration": 0.1875
                },
                {
                    "name": "D4",
                    "midi": 62,
                    "time": 277.68749999999994,
                    "velocity": 0.5590551181102362,
                    "duration": 0.1875
                },
                {
                    "name": "D5",
                    "midi": 74,
                    "time": 277.68749999999994,
                    "velocity": 0.5590551181102362,
                    "duration": 0.1875
                },
                {
                    "name": "D#4",
                    "midi": 63,
                    "time": 278.06249999999994,
                    "velocity": 0.5669291338582677,
                    "duration": 0.1875
                },
                {
                    "name": "D#5",
                    "midi": 75,
                    "time": 278.06249999999994,
                    "velocity": 0.5669291338582677,
                    "duration": 0.1875
                },
                {
                    "name": "A4",
                    "midi": 69,
                    "time": 278.43749999999994,
                    "velocity": 0.5669291338582677,
                    "duration": 0.1875
                },
                {
                    "name": "A5",
                    "midi": 81,
                    "time": 278.43749999999994,
                    "velocity": 0.5669291338582677,
                    "duration": 0.1875
                },
                {
                    "name": "A#4",
                    "midi": 70,
                    "time": 278.81249999999994,
                    "velocity": 0.5669291338582677,
                    "duration": 0.1875
                },
                {
                    "name": "A#5",
                    "midi": 82,
                    "time": 278.81249999999994,
                    "velocity": 0.5669291338582677,
                    "duration": 0.1875
                },
                {
                    "name": "D5",
                    "midi": 74,
                    "time": 279.1875,
                    "velocity": 0.5984251968503937,
                    "duration": 0.1875
                },
                {
                    "name": "D6",
                    "midi": 86,
                    "time": 279.1875,
                    "velocity": 0.5984251968503937,
                    "duration": 0.1875
                },
                {
                    "name": "D#5",
                    "midi": 75,
                    "time": 279.5625,
                    "velocity": 0.5669291338582677,
                    "duration": 0.1875
                },
                {
                    "name": "D#6",
                    "midi": 87,
                    "time": 279.5625,
                    "velocity": 0.5669291338582677,
                    "duration": 0.1875
                },
                {
                    "name": "D5",
                    "midi": 74,
                    "time": 279.9375,
                    "velocity": 0.5984251968503937,
                    "duration": 0.1875
                },
                {
                    "name": "D6",
                    "midi": 86,
                    "time": 279.9375,
                    "velocity": 0.5984251968503937,
                    "duration": 0.1875
                },
                {
                    "name": "D#5",
                    "midi": 75,
                    "time": 280.3125,
                    "velocity": 0.5669291338582677,
                    "duration": 0.1875
                },
                {
                    "name": "D#6",
                    "midi": 87,
                    "time": 280.3125,
                    "velocity": 0.5669291338582677,
                    "duration": 0.1875
                },
                {
                    "name": "D5",
                    "midi": 74,
                    "time": 280.6875,
                    "velocity": 0.5669291338582677,
                    "duration": 0.1875
                },
                {
                    "name": "D6",
                    "midi": 86,
                    "time": 280.6875,
                    "velocity": 0.5669291338582677,
                    "duration": 0.1875
                },
                {
                    "name": "C#5",
                    "midi": 73,
                    "time": 281.06249999999994,
                    "velocity": 0.5669291338582677,
                    "duration": 0.1875
                },
                {
                    "name": "C#6",
                    "midi": 85,
                    "time": 281.06249999999994,
                    "velocity": 0.5669291338582677,
                    "duration": 0.1875
                },
                {
                    "name": "A#4",
                    "midi": 70,
                    "time": 281.43749999999994,
                    "velocity": 0.5669291338582677,
                    "duration": 0.1875
                },
                {
                    "name": "A#5",
                    "midi": 82,
                    "time": 281.43749999999994,
                    "velocity": 0.5669291338582677,
                    "duration": 0.1875
                },
                {
                    "name": "G4",
                    "midi": 67,
                    "time": 281.81249999999994,
                    "velocity": 0.5748031496062992,
                    "duration": 0.1875
                },
                {
                    "name": "G5",
                    "midi": 79,
                    "time": 281.81249999999994,
                    "velocity": 0.5748031496062992,
                    "duration": 0.1875
                },
                {
                    "name": "D#4",
                    "midi": 63,
                    "time": 282.18749999999994,
                    "velocity": 0.5748031496062992,
                    "duration": 0.1875
                },
                {
                    "name": "D#5",
                    "midi": 75,
                    "time": 282.18749999999994,
                    "velocity": 0.5748031496062992,
                    "duration": 0.1875
                },
                {
                    "name": "C#4",
                    "midi": 61,
                    "time": 282.56249999999994,
                    "velocity": 0.5905511811023622,
                    "duration": 0.1875
                },
                {
                    "name": "C#5",
                    "midi": 73,
                    "time": 282.56249999999994,
                    "velocity": 0.5905511811023622,
                    "duration": 0.1875
                },
                {
                    "name": "A#3",
                    "midi": 58,
                    "time": 282.93749999999994,
                    "velocity": 0.5984251968503937,
                    "duration": 0.1875
                },
                {
                    "name": "A#4",
                    "midi": 70,
                    "time": 282.93749999999994,
                    "velocity": 0.5984251968503937,
                    "duration": 0.1875
                },
                {
                    "name": "G4",
                    "midi": 67,
                    "time": 283.31249999999994,
                    "velocity": 0.6062992125984252,
                    "duration": 0.1875
                },
                {
                    "name": "G3",
                    "midi": 55,
                    "time": 283.31249999999994,
                    "velocity": 0.6062992125984252,
                    "duration": 0.1875
                },
                {
                    "name": "D#4",
                    "midi": 63,
                    "time": 283.68749999999994,
                    "velocity": 0.6220472440944882,
                    "duration": 0.1875
                },
                {
                    "name": "D#3",
                    "midi": 51,
                    "time": 283.68749999999994,
                    "velocity": 0.6220472440944882,
                    "duration": 0.1875
                },
                {
                    "name": "C#4",
                    "midi": 61,
                    "time": 284.06249999999994,
                    "velocity": 0.6220472440944882,
                    "duration": 0.1875
                },
                {
                    "name": "C#3",
                    "midi": 49,
                    "time": 284.06249999999994,
                    "velocity": 0.6220472440944882,
                    "duration": 0.1875
                },
                {
                    "name": "A#3",
                    "midi": 58,
                    "time": 284.43749999999994,
                    "velocity": 0.6299212598425197,
                    "duration": 0.1875
                },
                {
                    "name": "A#2",
                    "midi": 46,
                    "time": 284.43749999999994,
                    "velocity": 0.6299212598425197,
                    "duration": 0.1875
                },
                {
                    "name": "G3",
                    "midi": 55,
                    "time": 284.81249999999994,
                    "velocity": 0.6377952755905512,
                    "duration": 0.1875
                },
                {
                    "name": "G2",
                    "midi": 43,
                    "time": 284.81249999999994,
                    "velocity": 0.6377952755905512,
                    "duration": 0.1875
                },
                {
                    "name": "D#2",
                    "midi": 39,
                    "time": 285.18749999999994,
                    "velocity": 0.6377952755905512,
                    "duration": 0.1875
                },
                {
                    "name": "D#3",
                    "midi": 51,
                    "time": 285.18749999999994,
                    "velocity": 0.6377952755905512,
                    "duration": 0.1875
                },
                {
                    "name": "D#4",
                    "midi": 63,
                    "time": 288.37499999999994,
                    "velocity": 0.5669291338582677,
                    "duration": 0.1875
                },
                {
                    "name": "D#5",
                    "midi": 75,
                    "time": 288.74999999999994,
                    "velocity": 0.6299212598425197,
                    "duration": 0.1875
                },
                {
                    "name": "G#1",
                    "midi": 32,
                    "time": 289.87499999999994,
                    "velocity": 0.44881889763779526,
                    "duration": 0.375
                },
                {
                    "name": "G#2",
                    "midi": 44,
                    "time": 289.87499999999994,
                    "velocity": 0.5039370078740157,
                    "duration": 0.375
                },
                {
                    "name": "D#3",
                    "midi": 51,
                    "time": 290.24999999999994,
                    "velocity": 0.41732283464566927,
                    "duration": 0.140625
                },
                {
                    "name": "D#4",
                    "midi": 63,
                    "time": 290.24999999999994,
                    "velocity": 0.4645669291338583,
                    "duration": 0.140625
                },
                {
                    "name": "B3",
                    "midi": 59,
                    "time": 290.24999999999994,
                    "velocity": 0.41732283464566927,
                    "duration": 0.140625
                },
                {
                    "name": "D#3",
                    "midi": 51,
                    "time": 290.43749999999994,
                    "velocity": 0.41732283464566927,
                    "duration": 0.140625
                },
                {
                    "name": "B3",
                    "midi": 59,
                    "time": 290.43749999999994,
                    "velocity": 0.41732283464566927,
                    "duration": 0.140625
                },
                {
                    "name": "D#4",
                    "midi": 63,
                    "time": 290.43749999999994,
                    "velocity": 0.4645669291338583,
                    "duration": 0.140625
                },
                {
                    "name": "G#3",
                    "midi": 56,
                    "time": 290.62499999999994,
                    "velocity": 0.41732283464566927,
                    "duration": 0.375
                },
                {
                    "name": "B3",
                    "midi": 59,
                    "time": 290.62499999999994,
                    "velocity": 0.41732283464566927,
                    "duration": 0.375
                },
                {
                    "name": "D#4",
                    "midi": 63,
                    "time": 290.62499999999994,
                    "velocity": 0.4645669291338583,
                    "duration": 0.375
                },
                {
                    "name": "B1",
                    "midi": 35,
                    "time": 290.99999999999994,
                    "velocity": 0.5039370078740157,
                    "duration": 0.375
                },
                {
                    "name": "B2",
                    "midi": 47,
                    "time": 290.99999999999994,
                    "velocity": 0.5039370078740157,
                    "duration": 0.375
                },
                {
                    "name": "D#3",
                    "midi": 51,
                    "time": 291.37499999999994,
                    "velocity": 0.41732283464566927,
                    "duration": 0.140625
                },
                {
                    "name": "B3",
                    "midi": 59,
                    "time": 291.37499999999994,
                    "velocity": 0.41732283464566927,
                    "duration": 0.140625
                },
                {
                    "name": "D#4",
                    "midi": 63,
                    "time": 291.37499999999994,
                    "velocity": 0.4645669291338583,
                    "duration": 0.140625
                },
                {
                    "name": "D#4",
                    "midi": 63,
                    "time": 291.56249999999994,
                    "velocity": 0.4645669291338583,
                    "duration": 0.140625
                },
                {
                    "name": "B3",
                    "midi": 59,
                    "time": 291.56249999999994,
                    "velocity": 0.41732283464566927,
                    "duration": 0.140625
                },
                {
                    "name": "D#3",
                    "midi": 51,
                    "time": 291.56249999999994,
                    "velocity": 0.41732283464566927,
                    "duration": 0.140625
                },
                {
                    "name": "G#3",
                    "midi": 56,
                    "time": 291.74999999999994,
                    "velocity": 0.41732283464566927,
                    "duration": 0.37499999999994316
                },
                {
                    "name": "B3",
                    "midi": 59,
                    "time": 291.74999999999994,
                    "velocity": 0.41732283464566927,
                    "duration": 0.37499999999994316
                },
                {
                    "name": "D#4",
                    "midi": 63,
                    "time": 291.74999999999994,
                    "velocity": 0.4645669291338583,
                    "duration": 0.37499999999994316
                },
                {
                    "name": "D#2",
                    "midi": 39,
                    "time": 292.1249999999999,
                    "velocity": 0.4330708661417323,
                    "duration": 0.375
                },
                {
                    "name": "D#3",
                    "midi": 51,
                    "time": 292.1249999999999,
                    "velocity": 0.49606299212598426,
                    "duration": 0.375
                },
                {
                    "name": "G3",
                    "midi": 55,
                    "time": 292.4999999999999,
                    "velocity": 0.41732283464566927,
                    "duration": 0.140625
                },
                {
                    "name": "D#4",
                    "midi": 63,
                    "time": 292.4999999999999,
                    "velocity": 0.41732283464566927,
                    "duration": 0.140625
                },
                {
                    "name": "G4",
                    "midi": 67,
                    "time": 292.4999999999999,
                    "velocity": 0.4645669291338583,
                    "duration": 0.140625
                },
                {
                    "name": "G3",
                    "midi": 55,
                    "time": 292.6874999999999,
                    "velocity": 0.41732283464566927,
                    "duration": 0.140625
                },
                {
                    "name": "D#4",
                    "midi": 63,
                    "time": 292.6874999999999,
                    "velocity": 0.41732283464566927,
                    "duration": 0.140625
                },
                {
                    "name": "G4",
                    "midi": 67,
                    "time": 292.6874999999999,
                    "velocity": 0.4645669291338583,
                    "duration": 0.140625
                },
                {
                    "name": "A#3",
                    "midi": 58,
                    "time": 292.8749999999999,
                    "velocity": 0.41732283464566927,
                    "duration": 0.375
                },
                {
                    "name": "D#4",
                    "midi": 63,
                    "time": 292.8749999999999,
                    "velocity": 0.41732283464566927,
                    "duration": 0.375
                },
                {
                    "name": "G4",
                    "midi": 67,
                    "time": 292.8749999999999,
                    "velocity": 0.4645669291338583,
                    "duration": 0.375
                },
                {
                    "name": "G2",
                    "midi": 43,
                    "time": 293.2499999999999,
                    "velocity": 0.47244094488188976,
                    "duration": 0.375
                },
                {
                    "name": "G3",
                    "midi": 55,
                    "time": 293.2499999999999,
                    "velocity": 0.47244094488188976,
                    "duration": 0.375
                },
                {
                    "name": "C#4",
                    "midi": 61,
                    "time": 293.6249999999999,
                    "velocity": 0.3700787401574803,
                    "duration": 0.140625
                },
                {
                    "name": "D#4",
                    "midi": 63,
                    "time": 293.6249999999999,
                    "velocity": 0.3700787401574803,
                    "duration": 0.140625
                },
                {
                    "name": "A#4",
                    "midi": 70,
                    "time": 293.6249999999999,
                    "velocity": 0.4251968503937008,
                    "duration": 0.140625
                },
                {
                    "name": "C#4",
                    "midi": 61,
                    "time": 293.8124999999999,
                    "velocity": 0.3700787401574803,
                    "duration": 0.140625
                },
                {
                    "name": "D#4",
                    "midi": 63,
                    "time": 293.8124999999999,
                    "velocity": 0.3700787401574803,
                    "duration": 0.140625
                },
                {
                    "name": "A#4",
                    "midi": 70,
                    "time": 293.8124999999999,
                    "velocity": 0.4251968503937008,
                    "duration": 0.140625
                },
                {
                    "name": "C#4",
                    "midi": 61,
                    "time": 293.9999999999999,
                    "velocity": 0.3700787401574803,
                    "duration": 0.375
                },
                {
                    "name": "D#4",
                    "midi": 63,
                    "time": 293.9999999999999,
                    "velocity": 0.3700787401574803,
                    "duration": 0.375
                },
                {
                    "name": "A#4",
                    "midi": 70,
                    "time": 293.9999999999999,
                    "velocity": 0.4251968503937008,
                    "duration": 0.375
                },
                {
                    "name": "G#3",
                    "midi": 56,
                    "time": 294.3749999999999,
                    "velocity": 0.4881889763779528,
                    "duration": 0.375
                },
                {
                    "name": "G#2",
                    "midi": 44,
                    "time": 294.3749999999999,
                    "velocity": 0.4251968503937008,
                    "duration": 0.375
                },
                {
                    "name": "B3",
                    "midi": 59,
                    "time": 294.7499999999999,
                    "velocity": 0.3858267716535433,
                    "duration": 0.140625
                },
                {
                    "name": "D#4",
                    "midi": 63,
                    "time": 294.7499999999999,
                    "velocity": 0.3858267716535433,
                    "duration": 0.140625
                },
                {
                    "name": "G#4",
                    "midi": 68,
                    "time": 294.7499999999999,
                    "velocity": 0.4251968503937008,
                    "duration": 0.140625
                },
                {
                    "name": "B3",
                    "midi": 59,
                    "time": 294.9374999999999,
                    "velocity": 0.3858267716535433,
                    "duration": 0.140625
                },
                {
                    "name": "D#4",
                    "midi": 63,
                    "time": 294.9374999999999,
                    "velocity": 0.3858267716535433,
                    "duration": 0.140625
                },
                {
                    "name": "G#4",
                    "midi": 68,
                    "time": 294.9374999999999,
                    "velocity": 0.4251968503937008,
                    "duration": 0.140625
                },
                {
                    "name": "B3",
                    "midi": 59,
                    "time": 295.1249999999999,
                    "velocity": 0.3858267716535433,
                    "duration": 0.37499999999994316
                },
                {
                    "name": "D#4",
                    "midi": 63,
                    "time": 295.1249999999999,
                    "velocity": 0.4251968503937008,
                    "duration": 0.37499999999994316
                },
                {
                    "name": "E2",
                    "midi": 40,
                    "time": 295.49999999999983,
                    "velocity": 0.4645669291338583,
                    "duration": 0.375
                },
                {
                    "name": "D4",
                    "midi": 62,
                    "time": 295.87499999999983,
                    "velocity": 0.4409448818897638,
                    "duration": 0.140625
                },
                {
                    "name": "A#3",
                    "midi": 58,
                    "time": 295.87499999999983,
                    "velocity": 0.4015748031496063,
                    "duration": 0.140625
                },
                {
                    "name": "D4",
                    "midi": 62,
                    "time": 296.06249999999983,
                    "velocity": 0.4409448818897638,
                    "duration": 0.140625
                },
                {
                    "name": "A#3",
                    "midi": 58,
                    "time": 296.06249999999983,
                    "velocity": 0.4015748031496063,
                    "duration": 0.140625
                },
                {
                    "name": "A#3",
                    "midi": 58,
                    "time": 296.24999999999983,
                    "velocity": 0.4015748031496063,
                    "duration": 0.37500000000005684
                },
                {
                    "name": "D4",
                    "midi": 62,
                    "time": 296.24999999999983,
                    "velocity": 0.4409448818897638,
                    "duration": 0.37500000000005684
                },
                {
                    "name": "D#2",
                    "midi": 39,
                    "time": 296.6249999999999,
                    "velocity": 0.47244094488188976,
                    "duration": 0.375
                },
                {
                    "name": "G3",
                    "midi": 55,
                    "time": 296.9999999999999,
                    "velocity": 0.3937007874015748,
                    "duration": 0.140625
                },
                {
                    "name": "A#3",
                    "midi": 58,
                    "time": 296.9999999999999,
                    "velocity": 0.4330708661417323,
                    "duration": 0.140625
                },
                {
                    "name": "G3",
                    "midi": 55,
                    "time": 297.1874999999999,
                    "velocity": 0.3937007874015748,
                    "duration": 0.140625
                },
                {
                    "name": "A#3",
                    "midi": 58,
                    "time": 297.1874999999999,
                    "velocity": 0.4330708661417323,
                    "duration": 0.140625
                },
                {
                    "name": "D#4",
                    "midi": 63,
                    "time": 297.3749999999999,
                    "velocity": 0.44881889763779526,
                    "duration": 0.375
                },
                {
                    "name": "A#3",
                    "midi": 58,
                    "time": 297.3749999999999,
                    "velocity": 0.4094488188976378,
                    "duration": 0.375
                },
                {
                    "name": "G3",
                    "midi": 55,
                    "time": 297.3749999999999,
                    "velocity": 0.4094488188976378,
                    "duration": 0.375
                },
                {
                    "name": "G4",
                    "midi": 67,
                    "time": 297.7499999999999,
                    "velocity": 0.4094488188976378,
                    "duration": 0.375
                },
                {
                    "name": "A#4",
                    "midi": 70,
                    "time": 297.7499999999999,
                    "velocity": 0.4094488188976378,
                    "duration": 0.375
                },
                {
                    "name": "D#5",
                    "midi": 75,
                    "time": 297.7499999999999,
                    "velocity": 0.44881889763779526,
                    "duration": 0.375
                },
                {
                    "name": "G#1",
                    "midi": 32,
                    "time": 298.8749999999999,
                    "velocity": 0.5433070866141733,
                    "duration": 0.375
                },
                {
                    "name": "G#2",
                    "midi": 44,
                    "time": 298.8749999999999,
                    "velocity": 0.5984251968503937,
                    "duration": 0.375
                },
                {
                    "name": "D#4",
                    "midi": 63,
                    "time": 299.2499999999999,
                    "velocity": 0.4330708661417323,
                    "duration": 0.140625
                },
                {
                    "name": "A3",
                    "midi": 57,
                    "time": 299.2499999999999,
                    "velocity": 0.3937007874015748,
                    "duration": 0.140625
                },
                {
                    "name": "F#3",
                    "midi": 54,
                    "time": 299.2499999999999,
                    "velocity": 0.3937007874015748,
                    "duration": 0.140625
                },
                {
                    "name": "F#3",
                    "midi": 54,
                    "time": 299.4374999999999,
                    "velocity": 0.3937007874015748,
                    "duration": 0.140625
                },
                {
                    "name": "A3",
                    "midi": 57,
                    "time": 299.4374999999999,
                    "velocity": 0.3937007874015748,
                    "duration": 0.140625
                },
                {
                    "name": "D#4",
                    "midi": 63,
                    "time": 299.4374999999999,
                    "velocity": 0.4330708661417323,
                    "duration": 0.140625
                },
                {
                    "name": "F#3",
                    "midi": 54,
                    "time": 299.6249999999999,
                    "velocity": 0.3937007874015748,
                    "duration": 0.375
                },
                {
                    "name": "A3",
                    "midi": 57,
                    "time": 299.6249999999999,
                    "velocity": 0.3937007874015748,
                    "duration": 0.375
                },
                {
                    "name": "D#4",
                    "midi": 63,
                    "time": 299.6249999999999,
                    "velocity": 0.4330708661417323,
                    "duration": 0.375
                },
                {
                    "name": "C2",
                    "midi": 36,
                    "time": 299.9999999999999,
                    "velocity": 0.5590551181102362,
                    "duration": 0.375
                },
                {
                    "name": "C3",
                    "midi": 48,
                    "time": 299.9999999999999,
                    "velocity": 0.6299212598425197,
                    "duration": 0.375
                },
                {
                    "name": "A3",
                    "midi": 57,
                    "time": 300.3749999999999,
                    "velocity": 0.41732283464566927,
                    "duration": 0.140625
                },
                {
                    "name": "D#4",
                    "midi": 63,
                    "time": 300.3749999999999,
                    "velocity": 0.41732283464566927,
                    "duration": 0.140625
                },
                {
                    "name": "A4",
                    "midi": 69,
                    "time": 300.3749999999999,
                    "velocity": 0.47244094488188976,
                    "duration": 0.140625
                },
                {
                    "name": "A3",
                    "midi": 57,
                    "time": 300.5624999999999,
                    "velocity": 0.41732283464566927,
                    "duration": 0.140625
                },
                {
                    "name": "D#4",
                    "midi": 63,
                    "time": 300.5624999999999,
                    "velocity": 0.41732283464566927,
                    "duration": 0.140625
                },
                {
                    "name": "A4",
                    "midi": 69,
                    "time": 300.5624999999999,
                    "velocity": 0.47244094488188976,
                    "duration": 0.140625
                },
                {
                    "name": "A3",
                    "midi": 57,
                    "time": 300.7499999999999,
                    "velocity": 0.41732283464566927,
                    "duration": 0.375
                },
                {
                    "name": "D#4",
                    "midi": 63,
                    "time": 300.7499999999999,
                    "velocity": 0.41732283464566927,
                    "duration": 0.375
                },
                {
                    "name": "A4",
                    "midi": 69,
                    "time": 300.7499999999999,
                    "velocity": 0.47244094488188976,
                    "duration": 0.375
                },
                {
                    "name": "C#2",
                    "midi": 37,
                    "time": 301.1249999999999,
                    "velocity": 0.6456692913385826,
                    "duration": 0.375
                },
                {
                    "name": "C#3",
                    "midi": 49,
                    "time": 301.1249999999999,
                    "velocity": 0.6456692913385826,
                    "duration": 0.375
                },
                {
                    "name": "E3",
                    "midi": 52,
                    "time": 301.4999999999999,
                    "velocity": 0.3464566929133858,
                    "duration": 0.140625
                },
                {
                    "name": "A3",
                    "midi": 57,
                    "time": 301.4999999999999,
                    "velocity": 0.3464566929133858,
                    "duration": 0.140625
                },
                {
                    "name": "C#4",
                    "midi": 61,
                    "time": 301.4999999999999,
                    "velocity": 0.3937007874015748,
                    "duration": 0.140625
                },
                {
                    "name": "E3",
                    "midi": 52,
                    "time": 301.6874999999999,
                    "velocity": 0.3464566929133858,
                    "duration": 0.140625
                },
                {
                    "name": "A3",
                    "midi": 57,
                    "time": 301.6874999999999,
                    "velocity": 0.3464566929133858,
                    "duration": 0.140625
                },
                {
                    "name": "C#4",
                    "midi": 61,
                    "time": 301.6874999999999,
                    "velocity": 0.3937007874015748,
                    "duration": 0.140625
                },
                {
                    "name": "D#3",
                    "midi": 51,
                    "time": 301.8749999999999,
                    "velocity": 0.3700787401574803,
                    "duration": 0.140625
                },
                {
                    "name": "A3",
                    "midi": 57,
                    "time": 301.8749999999999,
                    "velocity": 0.3700787401574803,
                    "duration": 0.140625
                },
                {
                    "name": "C#4",
                    "midi": 61,
                    "time": 301.8749999999999,
                    "velocity": 0.4251968503937008,
                    "duration": 0.140625
                },
                {
                    "name": "D#3",
                    "midi": 51,
                    "time": 302.0624999999999,
                    "velocity": 0.3700787401574803,
                    "duration": 0.140625
                },
                {
                    "name": "A3",
                    "midi": 57,
                    "time": 302.0624999999999,
                    "velocity": 0.3700787401574803,
                    "duration": 0.140625
                },
                {
                    "name": "C#4",
                    "midi": 61,
                    "time": 302.0624999999999,
                    "velocity": 0.4251968503937008,
                    "duration": 0.140625
                },
                {
                    "name": "C#3",
                    "midi": 49,
                    "time": 302.2499999999999,
                    "velocity": 0.3937007874015748,
                    "duration": 0.140625
                },
                {
                    "name": "A3",
                    "midi": 57,
                    "time": 302.2499999999999,
                    "velocity": 0.3937007874015748,
                    "duration": 0.140625
                },
                {
                    "name": "C#4",
                    "midi": 61,
                    "time": 302.2499999999999,
                    "velocity": 0.4330708661417323,
                    "duration": 0.140625
                },
                {
                    "name": "C#3",
                    "midi": 49,
                    "time": 302.4374999999999,
                    "velocity": 0.3937007874015748,
                    "duration": 0.140625
                },
                {
                    "name": "A3",
                    "midi": 57,
                    "time": 302.4374999999999,
                    "velocity": 0.3937007874015748,
                    "duration": 0.140625
                },
                {
                    "name": "C#4",
                    "midi": 61,
                    "time": 302.4374999999999,
                    "velocity": 0.4330708661417323,
                    "duration": 0.140625
                },
                {
                    "name": "D#3",
                    "midi": 51,
                    "time": 302.6249999999999,
                    "velocity": 0.3700787401574803,
                    "duration": 0.140625
                },
                {
                    "name": "A3",
                    "midi": 57,
                    "time": 302.6249999999999,
                    "velocity": 0.3700787401574803,
                    "duration": 0.140625
                },
                {
                    "name": "C#4",
                    "midi": 61,
                    "time": 302.6249999999999,
                    "velocity": 0.4251968503937008,
                    "duration": 0.140625
                },
                {
                    "name": "D#3",
                    "midi": 51,
                    "time": 302.8124999999999,
                    "velocity": 0.3700787401574803,
                    "duration": 0.140625
                },
                {
                    "name": "A3",
                    "midi": 57,
                    "time": 302.8124999999999,
                    "velocity": 0.3700787401574803,
                    "duration": 0.140625
                },
                {
                    "name": "C#4",
                    "midi": 61,
                    "time": 302.8124999999999,
                    "velocity": 0.4251968503937008,
                    "duration": 0.140625
                },
                {
                    "name": "E3",
                    "midi": 52,
                    "time": 302.9999999999999,
                    "velocity": 0.3543307086614173,
                    "duration": 0.140625
                },
                {
                    "name": "A3",
                    "midi": 57,
                    "time": 302.9999999999999,
                    "velocity": 0.3543307086614173,
                    "duration": 0.140625
                },
                {
                    "name": "C#4",
                    "midi": 61,
                    "time": 302.9999999999999,
                    "velocity": 0.4015748031496063,
                    "duration": 0.140625
                },
                {
                    "name": "E3",
                    "midi": 52,
                    "time": 303.1874999999999,
                    "velocity": 0.3543307086614173,
                    "duration": 0.140625
                },
                {
                    "name": "A3",
                    "midi": 57,
                    "time": 303.1874999999999,
                    "velocity": 0.3543307086614173,
                    "duration": 0.140625
                },
                {
                    "name": "C#4",
                    "midi": 61,
                    "time": 303.1874999999999,
                    "velocity": 0.4015748031496063,
                    "duration": 0.140625
                },
                {
                    "name": "D#3",
                    "midi": 51,
                    "time": 303.3749999999999,
                    "velocity": 0.3228346456692913,
                    "duration": 0.1875
                },
                {
                    "name": "G#3",
                    "midi": 56,
                    "time": 303.3749999999999,
                    "velocity": 0.3228346456692913,
                    "duration": 0.1875
                },
                {
                    "name": "B3",
                    "midi": 59,
                    "time": 303.3749999999999,
                    "velocity": 0.3543307086614173,
                    "duration": 0.1875
                },
                {
                    "name": "D3",
                    "midi": 50,
                    "time": 303.5624999999999,
                    "velocity": 0.36220472440944884,
                    "duration": 0.1875
                },
                {
                    "name": "D4",
                    "midi": 62,
                    "time": 303.5624999999999,
                    "velocity": 0.36220472440944884,
                    "duration": 0.1875
                },
                {
                    "name": "C#3",
                    "midi": 49,
                    "time": 303.7499999999999,
                    "velocity": 0.3700787401574803,
                    "duration": 0.1875
                },
                {
                    "name": "C#4",
                    "midi": 61,
                    "time": 303.7499999999999,
                    "velocity": 0.3700787401574803,
                    "duration": 0.1875
                },
                {
                    "name": "C3",
                    "midi": 48,
                    "time": 303.9374999999999,
                    "velocity": 0.3858267716535433,
                    "duration": 0.1875
                },
                {
                    "name": "C4",
                    "midi": 60,
                    "time": 303.9374999999999,
                    "velocity": 0.3858267716535433,
                    "duration": 0.1875
                },
                {
                    "name": "B2",
                    "midi": 47,
                    "time": 304.1249999999999,
                    "velocity": 0.3937007874015748,
                    "duration": 0.1875
                },
                {
                    "name": "B3",
                    "midi": 59,
                    "time": 304.1249999999999,
                    "velocity": 0.3937007874015748,
                    "duration": 0.1875
                },
                {
                    "name": "A#2",
                    "midi": 46,
                    "time": 304.3124999999999,
                    "velocity": 0.4015748031496063,
                    "duration": 0.1875
                },
                {
                    "name": "A#3",
                    "midi": 58,
                    "time": 304.3124999999999,
                    "velocity": 0.4015748031496063,
                    "duration": 0.1875
                },
                {
                    "name": "A2",
                    "midi": 45,
                    "time": 304.4999999999999,
                    "velocity": 0.4251968503937008,
                    "duration": 0.1875
                },
                {
                    "name": "A3",
                    "midi": 57,
                    "time": 304.4999999999999,
                    "velocity": 0.4251968503937008,
                    "duration": 0.1875
                },
                {
                    "name": "G#2",
                    "midi": 44,
                    "time": 304.6874999999999,
                    "velocity": 0.4251968503937008,
                    "duration": 0.1875
                },
                {
                    "name": "G#3",
                    "midi": 56,
                    "time": 304.6874999999999,
                    "velocity": 0.4251968503937008,
                    "duration": 0.1875
                },
                {
                    "name": "G2",
                    "midi": 43,
                    "time": 304.8749999999999,
                    "velocity": 0.4330708661417323,
                    "duration": 0.1875
                },
                {
                    "name": "G3",
                    "midi": 55,
                    "time": 304.8749999999999,
                    "velocity": 0.4330708661417323,
                    "duration": 0.1875
                },
                {
                    "name": "F#2",
                    "midi": 42,
                    "time": 305.0624999999999,
                    "velocity": 0.4409448818897638,
                    "duration": 0.1875
                },
                {
                    "name": "F#3",
                    "midi": 54,
                    "time": 305.0624999999999,
                    "velocity": 0.4409448818897638,
                    "duration": 0.1875
                },
                {
                    "name": "F2",
                    "midi": 41,
                    "time": 305.2499999999999,
                    "velocity": 0.44881889763779526,
                    "duration": 0.1875
                },
                {
                    "name": "F3",
                    "midi": 53,
                    "time": 305.2499999999999,
                    "velocity": 0.44881889763779526,
                    "duration": 0.1875
                },
                {
                    "name": "E2",
                    "midi": 40,
                    "time": 305.4374999999999,
                    "velocity": 0.4645669291338583,
                    "duration": 0.1875
                },
                {
                    "name": "E3",
                    "midi": 52,
                    "time": 305.4374999999999,
                    "velocity": 0.4645669291338583,
                    "duration": 0.1875
                },
                {
                    "name": "D#3",
                    "midi": 51,
                    "time": 305.6249999999999,
                    "velocity": 0.4409448818897638,
                    "duration": 0.1875
                },
                {
                    "name": "D#2",
                    "midi": 39,
                    "time": 305.6249999999999,
                    "velocity": 0.4409448818897638,
                    "duration": 0.1875
                },
                {
                    "name": "G2",
                    "midi": 43,
                    "time": 305.6249999999999,
                    "velocity": 0.4409448818897638,
                    "duration": 0.1875
                },
                {
                    "name": "A#2",
                    "midi": 46,
                    "time": 305.6249999999999,
                    "velocity": 0.4409448818897638,
                    "duration": 0.1875
                },
                {
                    "name": "D2",
                    "midi": 38,
                    "time": 305.8124999999999,
                    "velocity": 0.4881889763779528,
                    "duration": 0.1875
                },
                {
                    "name": "D3",
                    "midi": 50,
                    "time": 305.8124999999999,
                    "velocity": 0.4881889763779528,
                    "duration": 0.1875
                },
                {
                    "name": "C#2",
                    "midi": 37,
                    "time": 305.9999999999999,
                    "velocity": 0.49606299212598426,
                    "duration": 0.1875
                },
                {
                    "name": "C#3",
                    "midi": 49,
                    "time": 305.9999999999999,
                    "velocity": 0.49606299212598426,
                    "duration": 0.1875
                },
                {
                    "name": "C2",
                    "midi": 36,
                    "time": 306.1874999999999,
                    "velocity": 0.5039370078740157,
                    "duration": 0.1875
                },
                {
                    "name": "C3",
                    "midi": 48,
                    "time": 306.1874999999999,
                    "velocity": 0.5039370078740157,
                    "duration": 0.1875
                },
                {
                    "name": "B1",
                    "midi": 35,
                    "time": 306.3749999999999,
                    "velocity": 0.5118110236220472,
                    "duration": 0.1875
                },
                {
                    "name": "B2",
                    "midi": 47,
                    "time": 306.3749999999999,
                    "velocity": 0.5118110236220472,
                    "duration": 0.1875
                },
                {
                    "name": "A#1",
                    "midi": 34,
                    "time": 306.5624999999999,
                    "velocity": 0.5196850393700787,
                    "duration": 0.1875
                },
                {
                    "name": "A#2",
                    "midi": 46,
                    "time": 306.5624999999999,
                    "velocity": 0.5196850393700787,
                    "duration": 0.1875
                },
                {
                    "name": "A1",
                    "midi": 33,
                    "time": 306.7499999999999,
                    "velocity": 0.5433070866141733,
                    "duration": 0.1875
                },
                {
                    "name": "A2",
                    "midi": 45,
                    "time": 306.7499999999999,
                    "velocity": 0.5433070866141733,
                    "duration": 0.1875
                },
                {
                    "name": "G#1",
                    "midi": 32,
                    "time": 306.9374999999999,
                    "velocity": 0.5511811023622047,
                    "duration": 0.1875
                },
                {
                    "name": "G#2",
                    "midi": 44,
                    "time": 306.9374999999999,
                    "velocity": 0.5511811023622047,
                    "duration": 0.1875
                },
                {
                    "name": "G1",
                    "midi": 31,
                    "time": 307.1249999999999,
                    "velocity": 0.5275590551181102,
                    "duration": 0.1875
                },
                {
                    "name": "G2",
                    "midi": 43,
                    "time": 307.1249999999999,
                    "velocity": 0.5275590551181102,
                    "duration": 0.1875
                },
                {
                    "name": "F#1",
                    "midi": 30,
                    "time": 307.3124999999999,
                    "velocity": 0.5275590551181102,
                    "duration": 0.1875
                },
                {
                    "name": "F#2",
                    "midi": 42,
                    "time": 307.3124999999999,
                    "velocity": 0.5275590551181102,
                    "duration": 0.1875
                },
                {
                    "name": "E1",
                    "midi": 28,
                    "time": 307.4999999999999,
                    "velocity": 0.5433070866141733,
                    "duration": 0.1875
                },
                {
                    "name": "E2",
                    "midi": 40,
                    "time": 307.4999999999999,
                    "velocity": 0.5433070866141733,
                    "duration": 0.1875
                },
                {
                    "name": "D#1",
                    "midi": 27,
                    "time": 307.6874999999999,
                    "velocity": 0.5590551181102362,
                    "duration": 0.171875
                },
                {
                    "name": "D#2",
                    "midi": 39,
                    "time": 307.6874999999999,
                    "velocity": 0.5590551181102362,
                    "duration": 0.171875
                },
                {
                    "name": "G#1",
                    "midi": 32,
                    "time": 307.8749999999999,
                    "velocity": 0.48031496062992124,
                    "duration": 0.37499999999994316
                },
                {
                    "name": "G#2",
                    "midi": 44,
                    "time": 307.8749999999999,
                    "velocity": 0.6377952755905512,
                    "duration": 0.37499999999994316
                },
                {
                    "name": "D#2",
                    "midi": 39,
                    "time": 308.24999999999983,
                    "velocity": 0.5275590551181102,
                    "duration": 0.1875
                },
                {
                    "name": "D#3",
                    "midi": 51,
                    "time": 308.24999999999983,
                    "velocity": 0.6220472440944882,
                    "duration": 0.1875
                },
                {
                    "name": "G#2",
                    "midi": 44,
                    "time": 308.43749999999983,
                    "velocity": 0.5275590551181102,
                    "duration": 0.1875
                },
                {
                    "name": "G#3",
                    "midi": 56,
                    "time": 308.43749999999983,
                    "velocity": 0.6220472440944882,
                    "duration": 0.1875
                },
                {
                    "name": "D#4",
                    "midi": 63,
                    "time": 308.62499999999983,
                    "velocity": 0.5905511811023622,
                    "duration": 0.28125
                },
                {
                    "name": "D#3",
                    "midi": 51,
                    "time": 308.62499999999983,
                    "velocity": 0.49606299212598426,
                    "duration": 0.28125
                },
                {
                    "name": "G#1",
                    "midi": 32,
                    "time": 308.99999999999983,
                    "velocity": 0.5826771653543307,
                    "duration": 0.375
                },
                {
                    "name": "G#2",
                    "midi": 44,
                    "time": 308.99999999999983,
                    "velocity": 0.7007874015748031,
                    "duration": 0.375
                },
                {
                    "name": "D#2",
                    "midi": 39,
                    "time": 309.37499999999983,
                    "velocity": 0.5354330708661418,
                    "duration": 0.18750000000005684
                },
                {
                    "name": "D#3",
                    "midi": 51,
                    "time": 309.37499999999983,
                    "velocity": 0.6299212598425197,
                    "duration": 0.18750000000005684
                },
                {
                    "name": "G#2",
                    "midi": 44,
                    "time": 309.5624999999999,
                    "velocity": 0.5354330708661418,
                    "duration": 0.1875
                },
                {
                    "name": "G#3",
                    "midi": 56,
                    "time": 309.5624999999999,
                    "velocity": 0.6299212598425197,
                    "duration": 0.1875
                },
                {
                    "name": "D#4",
                    "midi": 63,
                    "time": 309.7499999999999,
                    "velocity": 0.6062992125984252,
                    "duration": 0.28125
                },
                {
                    "name": "D#3",
                    "midi": 51,
                    "time": 309.7499999999999,
                    "velocity": 0.5039370078740157,
                    "duration": 0.28125
                },
                {
                    "name": "G#1",
                    "midi": 32,
                    "time": 310.1249999999999,
                    "velocity": 0.5826771653543307,
                    "duration": 0.375
                },
                {
                    "name": "G#2",
                    "midi": 44,
                    "time": 310.1249999999999,
                    "velocity": 0.7007874015748031,
                    "duration": 0.375
                },
                {
                    "name": "D#2",
                    "midi": 39,
                    "time": 310.4999999999999,
                    "velocity": 0.5275590551181102,
                    "duration": 0.1875
                },
                {
                    "name": "D#3",
                    "midi": 51,
                    "time": 310.4999999999999,
                    "velocity": 0.6220472440944882,
                    "duration": 0.1875
                },
                {
                    "name": "G#2",
                    "midi": 44,
                    "time": 310.6874999999999,
                    "velocity": 0.5275590551181102,
                    "duration": 0.1875
                },
                {
                    "name": "G#3",
                    "midi": 56,
                    "time": 310.6874999999999,
                    "velocity": 0.6220472440944882,
                    "duration": 0.1875
                },
                {
                    "name": "D#4",
                    "midi": 63,
                    "time": 310.8749999999999,
                    "velocity": 0.5748031496062992,
                    "duration": 0.28125
                },
                {
                    "name": "D#3",
                    "midi": 51,
                    "time": 310.8749999999999,
                    "velocity": 0.48031496062992124,
                    "duration": 0.28125
                },
                {
                    "name": "G#1",
                    "midi": 32,
                    "time": 311.2499999999999,
                    "velocity": 0.5826771653543307,
                    "duration": 0.375
                },
                {
                    "name": "G#2",
                    "midi": 44,
                    "time": 311.2499999999999,
                    "velocity": 0.7007874015748031,
                    "duration": 0.375
                },
                {
                    "name": "D#2",
                    "midi": 39,
                    "time": 311.6249999999999,
                    "velocity": 0.5354330708661418,
                    "duration": 0.1875
                },
                {
                    "name": "D#3",
                    "midi": 51,
                    "time": 311.6249999999999,
                    "velocity": 0.6299212598425197,
                    "duration": 0.1875
                },
                {
                    "name": "G#2",
                    "midi": 44,
                    "time": 311.8124999999999,
                    "velocity": 0.5354330708661418,
                    "duration": 0.1875
                },
                {
                    "name": "G#3",
                    "midi": 56,
                    "time": 311.8124999999999,
                    "velocity": 0.6299212598425197,
                    "duration": 0.1875
                },
                {
                    "name": "D#4",
                    "midi": 63,
                    "time": 311.9999999999999,
                    "velocity": 0.6141732283464567,
                    "duration": 0.28125
                },
                {
                    "name": "D#3",
                    "midi": 51,
                    "time": 311.9999999999999,
                    "velocity": 0.5196850393700787,
                    "duration": 0.28125
                },
                {
                    "name": "G#1",
                    "midi": 32,
                    "time": 312.3749999999999,
                    "velocity": 0.4881889763779528,
                    "duration": 0.375
                },
                {
                    "name": "G#2",
                    "midi": 44,
                    "time": 312.3749999999999,
                    "velocity": 0.7007874015748031,
                    "duration": 0.375
                },
                {
                    "name": "D#2",
                    "midi": 39,
                    "time": 312.7499999999999,
                    "velocity": 0.4409448818897638,
                    "duration": 0.18749999999994316
                },
                {
                    "name": "D#3",
                    "midi": 51,
                    "time": 312.7499999999999,
                    "velocity": 0.6220472440944882,
                    "duration": 0.18749999999994316
                },
                {
                    "name": "G#2",
                    "midi": 44,
                    "time": 312.93749999999983,
                    "velocity": 0.4409448818897638,
                    "duration": 0.1875
                },
                {
                    "name": "G#3",
                    "midi": 56,
                    "time": 312.93749999999983,
                    "velocity": 0.6220472440944882,
                    "duration": 0.1875
                },
                {
                    "name": "D#4",
                    "midi": 63,
                    "time": 313.12499999999983,
                    "velocity": 0.6062992125984252,
                    "duration": 0.28125
                },
                {
                    "name": "D#3",
                    "midi": 51,
                    "time": 313.12499999999983,
                    "velocity": 0.4330708661417323,
                    "duration": 0.28125
                },
                {
                    "name": "G#1",
                    "midi": 32,
                    "time": 313.49999999999983,
                    "velocity": 0.4881889763779528,
                    "duration": 0.375
                },
                {
                    "name": "G#2",
                    "midi": 44,
                    "time": 313.49999999999983,
                    "velocity": 0.7007874015748031,
                    "duration": 0.375
                },
                {
                    "name": "D#2",
                    "midi": 39,
                    "time": 313.87499999999983,
                    "velocity": 0.44881889763779526,
                    "duration": 0.1875
                },
                {
                    "name": "D#3",
                    "midi": 51,
                    "time": 313.87499999999983,
                    "velocity": 0.6299212598425197,
                    "duration": 0.1875
                },
                {
                    "name": "G#2",
                    "midi": 44,
                    "time": 314.06249999999983,
                    "velocity": 0.44881889763779526,
                    "duration": 0.1875
                },
                {
                    "name": "G#3",
                    "midi": 56,
                    "time": 314.06249999999983,
                    "velocity": 0.6299212598425197,
                    "duration": 0.1875
                },
                {
                    "name": "D#4",
                    "midi": 63,
                    "time": 314.24999999999983,
                    "velocity": 0.6062992125984252,
                    "duration": 0.28125
                },
                {
                    "name": "D#3",
                    "midi": 51,
                    "time": 314.24999999999983,
                    "velocity": 0.4330708661417323,
                    "duration": 0.28125
                },
                {
                    "name": "G#1",
                    "midi": 32,
                    "time": 314.62499999999983,
                    "velocity": 0.5826771653543307,
                    "duration": 0.375
                },
                {
                    "name": "G#2",
                    "midi": 44,
                    "time": 314.62499999999983,
                    "velocity": 0.7007874015748031,
                    "duration": 0.375
                },
                {
                    "name": "D#2",
                    "midi": 39,
                    "time": 314.99999999999983,
                    "velocity": 0.5275590551181102,
                    "duration": 0.1875
                },
                {
                    "name": "D#3",
                    "midi": 51,
                    "time": 314.99999999999983,
                    "velocity": 0.6220472440944882,
                    "duration": 0.1875
                },
                {
                    "name": "G#2",
                    "midi": 44,
                    "time": 315.18749999999983,
                    "velocity": 0.5275590551181102,
                    "duration": 0.1875
                },
                {
                    "name": "G#3",
                    "midi": 56,
                    "time": 315.18749999999983,
                    "velocity": 0.6220472440944882,
                    "duration": 0.1875
                },
                {
                    "name": "D#4",
                    "midi": 63,
                    "time": 315.37499999999983,
                    "velocity": 0.6141732283464567,
                    "duration": 0.28125
                },
                {
                    "name": "D#3",
                    "midi": 51,
                    "time": 315.37499999999983,
                    "velocity": 0.5196850393700787,
                    "duration": 0.28125
                },
                {
                    "name": "G#1",
                    "midi": 32,
                    "time": 315.74999999999983,
                    "velocity": 0.5826771653543307,
                    "duration": 0.375
                },
                {
                    "name": "G#2",
                    "midi": 44,
                    "time": 315.74999999999983,
                    "velocity": 0.7007874015748031,
                    "duration": 0.375
                },
                {
                    "name": "D#2",
                    "midi": 39,
                    "time": 316.12499999999983,
                    "velocity": 0.5354330708661418,
                    "duration": 0.18749999999994316
                },
                {
                    "name": "D#3",
                    "midi": 51,
                    "time": 316.12499999999983,
                    "velocity": 0.6377952755905512,
                    "duration": 0.18749999999994316
                },
                {
                    "name": "G#2",
                    "midi": 44,
                    "time": 316.3124999999998,
                    "velocity": 0.5354330708661418,
                    "duration": 0.1875
                },
                {
                    "name": "G#3",
                    "midi": 56,
                    "time": 316.3124999999998,
                    "velocity": 0.6377952755905512,
                    "duration": 0.1875
                },
                {
                    "name": "D#4",
                    "midi": 63,
                    "time": 316.4999999999998,
                    "velocity": 0.6141732283464567,
                    "duration": 0.28125
                },
                {
                    "name": "D#3",
                    "midi": 51,
                    "time": 316.4999999999998,
                    "velocity": 0.5196850393700787,
                    "duration": 0.28125
                },
                {
                    "name": "G#1",
                    "midi": 32,
                    "time": 316.8749999999998,
                    "velocity": 0.5826771653543307,
                    "duration": 0.375
                },
                {
                    "name": "G#2",
                    "midi": 44,
                    "time": 316.8749999999998,
                    "velocity": 0.7007874015748031,
                    "duration": 0.375
                },
                {
                    "name": "D#2",
                    "midi": 39,
                    "time": 317.2499999999998,
                    "velocity": 0.5354330708661418,
                    "duration": 0.1875
                },
                {
                    "name": "D#3",
                    "midi": 51,
                    "time": 317.2499999999998,
                    "velocity": 0.6377952755905512,
                    "duration": 0.1875
                },
                {
                    "name": "G#2",
                    "midi": 44,
                    "time": 317.4374999999998,
                    "velocity": 0.5354330708661418,
                    "duration": 0.1875
                },
                {
                    "name": "G#3",
                    "midi": 56,
                    "time": 317.4374999999998,
                    "velocity": 0.6377952755905512,
                    "duration": 0.1875
                },
                {
                    "name": "B2",
                    "midi": 47,
                    "time": 317.6249999999998,
                    "velocity": 0.5826771653543307,
                    "duration": 0.375
                },
                {
                    "name": "B3",
                    "midi": 59,
                    "time": 317.6249999999998,
                    "velocity": 0.6929133858267716,
                    "duration": 0.375
                },
                {
                    "name": "D#3",
                    "midi": 51,
                    "time": 317.6249999999998,
                    "velocity": 0.5826771653543307,
                    "duration": 0.375
                },
                {
                    "name": "A#2",
                    "midi": 46,
                    "time": 317.9999999999998,
                    "velocity": 0.5433070866141733,
                    "duration": 0.1875
                },
                {
                    "name": "D#3",
                    "midi": 51,
                    "time": 317.9999999999998,
                    "velocity": 0.5433070866141733,
                    "duration": 0.1875
                },
                {
                    "name": "A#3",
                    "midi": 58,
                    "time": 317.9999999999998,
                    "velocity": 0.6456692913385826,
                    "duration": 0.1875
                },
                {
                    "name": "B2",
                    "midi": 47,
                    "time": 318.1874999999998,
                    "velocity": 0.5433070866141733,
                    "duration": 0.1875
                },
                {
                    "name": "D#3",
                    "midi": 51,
                    "time": 318.1874999999998,
                    "velocity": 0.5433070866141733,
                    "duration": 0.1875
                },
                {
                    "name": "B3",
                    "midi": 59,
                    "time": 318.1874999999998,
                    "velocity": 0.6456692913385826,
                    "duration": 0.1875
                },
                {
                    "name": "C#3",
                    "midi": 49,
                    "time": 318.3749999999998,
                    "velocity": 0.5826771653543307,
                    "duration": 0.375
                },
                {
                    "name": "D#3",
                    "midi": 51,
                    "time": 318.3749999999998,
                    "velocity": 0.5826771653543307,
                    "duration": 0.375
                },
                {
                    "name": "C#4",
                    "midi": 61,
                    "time": 318.3749999999998,
                    "velocity": 0.6929133858267716,
                    "duration": 0.375
                },
                {
                    "name": "D#3",
                    "midi": 51,
                    "time": 318.7499999999998,
                    "velocity": 0.5354330708661418,
                    "duration": 0.1875
                },
                {
                    "name": "B2",
                    "midi": 47,
                    "time": 318.7499999999998,
                    "velocity": 0.5354330708661418,
                    "duration": 0.1875
                },
                {
                    "name": "B3",
                    "midi": 59,
                    "time": 318.7499999999998,
                    "velocity": 0.6377952755905512,
                    "duration": 0.1875
                },
                {
                    "name": "A#2",
                    "midi": 46,
                    "time": 318.9374999999998,
                    "velocity": 0.5354330708661418,
                    "duration": 0.1875
                },
                {
                    "name": "A#3",
                    "midi": 58,
                    "time": 318.9374999999998,
                    "velocity": 0.6377952755905512,
                    "duration": 0.1875
                },
                {
                    "name": "D#3",
                    "midi": 51,
                    "time": 318.9374999999998,
                    "velocity": 0.5354330708661418,
                    "duration": 0.1875
                },
                {
                    "name": "B2",
                    "midi": 47,
                    "time": 319.1249999999998,
                    "velocity": 0.5826771653543307,
                    "duration": 0.1875
                },
                {
                    "name": "D#3",
                    "midi": 51,
                    "time": 319.1249999999998,
                    "velocity": 0.5826771653543307,
                    "duration": 0.1875
                },
                {
                    "name": "B3",
                    "midi": 59,
                    "time": 319.1249999999998,
                    "velocity": 0.6929133858267716,
                    "duration": 0.1875
                },
                {
                    "name": "A#2",
                    "midi": 46,
                    "time": 319.3124999999998,
                    "velocity": 0.5511811023622047,
                    "duration": 0.1875
                },
                {
                    "name": "D#3",
                    "midi": 51,
                    "time": 319.3124999999998,
                    "velocity": 0.5511811023622047,
                    "duration": 0.1875
                },
                {
                    "name": "A#3",
                    "midi": 58,
                    "time": 319.3124999999998,
                    "velocity": 0.6535433070866141,
                    "duration": 0.1875
                },
                {
                    "name": "G#2",
                    "midi": 44,
                    "time": 319.4999999999998,
                    "velocity": 0.5511811023622047,
                    "duration": 0.33749999999997726
                },
                {
                    "name": "D#3",
                    "midi": 51,
                    "time": 319.4999999999998,
                    "velocity": 0.5511811023622047,
                    "duration": 0.33749999999997726
                },
                {
                    "name": "G#3",
                    "midi": 56,
                    "time": 319.4999999999998,
                    "velocity": 0.6535433070866141,
                    "duration": 0.33749999999997726
                },
                {
                    "name": "G#1",
                    "midi": 32,
                    "time": 319.8749999999998,
                    "velocity": 0.6929133858267716,
                    "duration": 0.28125
                },
                {
                    "name": "D#2",
                    "midi": 39,
                    "time": 319.8749999999998,
                    "velocity": 0.6929133858267716,
                    "duration": 0.28125
                },
                {
                    "name": "G#2",
                    "midi": 44,
                    "time": 319.8749999999998,
                    "velocity": 0.8188976377952756,
                    "duration": 0.28125
                },
                {
                    "name": "A#2",
                    "midi": 46,
                    "time": 320.2499999999998,
                    "velocity": 0.5433070866141733,
                    "duration": 0.1875
                },
                {
                    "name": "D#3",
                    "midi": 51,
                    "time": 320.2499999999998,
                    "velocity": 0.5433070866141733,
                    "duration": 0.1875
                },
                {
                    "name": "A#3",
                    "midi": 58,
                    "time": 320.2499999999998,
                    "velocity": 0.6456692913385826,
                    "duration": 0.1875
                },
                {
                    "name": "B2",
                    "midi": 47,
                    "time": 320.4374999999998,
                    "velocity": 0.5433070866141733,
                    "duration": 0.1875
                },
                {
                    "name": "D#3",
                    "midi": 51,
                    "time": 320.4374999999998,
                    "velocity": 0.5433070866141733,
                    "duration": 0.1875
                },
                {
                    "name": "B3",
                    "midi": 59,
                    "time": 320.4374999999998,
                    "velocity": 0.6456692913385826,
                    "duration": 0.1875
                },
                {
                    "name": "C#3",
                    "midi": 49,
                    "time": 320.6249999999998,
                    "velocity": 0.5826771653543307,
                    "duration": 0.375
                },
                {
                    "name": "D#3",
                    "midi": 51,
                    "time": 320.6249999999998,
                    "velocity": 0.5826771653543307,
                    "duration": 0.375
                },
                {
                    "name": "C#4",
                    "midi": 61,
                    "time": 320.6249999999998,
                    "velocity": 0.6929133858267716,
                    "duration": 0.375
                },
                {
                    "name": "D#3",
                    "midi": 51,
                    "time": 320.9999999999998,
                    "velocity": 0.5354330708661418,
                    "duration": 0.1875
                },
                {
                    "name": "B2",
                    "midi": 47,
                    "time": 320.9999999999998,
                    "velocity": 0.5354330708661418,
                    "duration": 0.1875
                },
                {
                    "name": "B3",
                    "midi": 59,
                    "time": 320.9999999999998,
                    "velocity": 0.6377952755905512,
                    "duration": 0.1875
                },
                {
                    "name": "A#2",
                    "midi": 46,
                    "time": 321.1874999999998,
                    "velocity": 0.5354330708661418,
                    "duration": 0.1875
                },
                {
                    "name": "A#3",
                    "midi": 58,
                    "time": 321.1874999999998,
                    "velocity": 0.6377952755905512,
                    "duration": 0.1875
                },
                {
                    "name": "D#3",
                    "midi": 51,
                    "time": 321.1874999999998,
                    "velocity": 0.5354330708661418,
                    "duration": 0.1875
                },
                {
                    "name": "B2",
                    "midi": 47,
                    "time": 321.3749999999998,
                    "velocity": 0.5826771653543307,
                    "duration": 0.1875
                },
                {
                    "name": "D#3",
                    "midi": 51,
                    "time": 321.3749999999998,
                    "velocity": 0.5826771653543307,
                    "duration": 0.1875
                },
                {
                    "name": "B3",
                    "midi": 59,
                    "time": 321.3749999999998,
                    "velocity": 0.6929133858267716,
                    "duration": 0.1875
                },
                {
                    "name": "A#2",
                    "midi": 46,
                    "time": 321.5624999999998,
                    "velocity": 0.5511811023622047,
                    "duration": 0.1875
                },
                {
                    "name": "D#3",
                    "midi": 51,
                    "time": 321.5624999999998,
                    "velocity": 0.5511811023622047,
                    "duration": 0.1875
                },
                {
                    "name": "A#3",
                    "midi": 58,
                    "time": 321.5624999999998,
                    "velocity": 0.6535433070866141,
                    "duration": 0.1875
                },
                {
                    "name": "G#2",
                    "midi": 44,
                    "time": 321.7499999999998,
                    "velocity": 0.5511811023622047,
                    "duration": 0.33749999999997726
                },
                {
                    "name": "D#3",
                    "midi": 51,
                    "time": 321.7499999999998,
                    "velocity": 0.5511811023622047,
                    "duration": 0.33749999999997726
                },
                {
                    "name": "G#3",
                    "midi": 56,
                    "time": 321.7499999999998,
                    "velocity": 0.6535433070866141,
                    "duration": 0.33749999999997726
                },
                {
                    "name": "G#1",
                    "midi": 32,
                    "time": 322.1249999999998,
                    "velocity": 0.6929133858267716,
                    "duration": 0.28125
                },
                {
                    "name": "D#2",
                    "midi": 39,
                    "time": 322.1249999999998,
                    "velocity": 0.6929133858267716,
                    "duration": 0.28125
                },
                {
                    "name": "G#2",
                    "midi": 44,
                    "time": 322.1249999999998,
                    "velocity": 0.8188976377952756,
                    "duration": 0.28125
                },
                {
                    "name": "B2",
                    "midi": 47,
                    "time": 322.4999999999998,
                    "velocity": 0.5826771653543307,
                    "duration": 0.18749999999994316
                },
                {
                    "name": "D#3",
                    "midi": 51,
                    "time": 322.4999999999998,
                    "velocity": 0.5826771653543307,
                    "duration": 0.18749999999994316
                },
                {
                    "name": "B3",
                    "midi": 59,
                    "time": 322.4999999999998,
                    "velocity": 0.6929133858267716,
                    "duration": 0.18749999999994316
                },
                {
                    "name": "A#2",
                    "midi": 46,
                    "time": 322.6874999999997,
                    "velocity": 0.5511811023622047,
                    "duration": 0.1875
                },
                {
                    "name": "D#3",
                    "midi": 51,
                    "time": 322.6874999999997,
                    "velocity": 0.5511811023622047,
                    "duration": 0.1875
                },
                {
                    "name": "A#3",
                    "midi": 58,
                    "time": 322.6874999999997,
                    "velocity": 0.6535433070866141,
                    "duration": 0.1875
                },
                {
                    "name": "G#2",
                    "midi": 44,
                    "time": 322.8749999999997,
                    "velocity": 0.5511811023622047,
                    "duration": 0.33749999999997726
                },
                {
                    "name": "D#3",
                    "midi": 51,
                    "time": 322.8749999999997,
                    "velocity": 0.5511811023622047,
                    "duration": 0.33749999999997726
                },
                {
                    "name": "G#3",
                    "midi": 56,
                    "time": 322.8749999999997,
                    "velocity": 0.5511811023622047,
                    "duration": 0.33749999999997726
                },
                {
                    "name": "G#1",
                    "midi": 32,
                    "time": 323.2499999999997,
                    "velocity": 0.6929133858267716,
                    "duration": 0.28125
                },
                {
                    "name": "D#2",
                    "midi": 39,
                    "time": 323.2499999999997,
                    "velocity": 0.6929133858267716,
                    "duration": 0.28125
                },
                {
                    "name": "G#2",
                    "midi": 44,
                    "time": 323.2499999999997,
                    "velocity": 0.8188976377952756,
                    "duration": 0.28125
                },
                {
                    "name": "B2",
                    "midi": 47,
                    "time": 323.6249999999997,
                    "velocity": 0.5826771653543307,
                    "duration": 0.1875
                },
                {
                    "name": "D#3",
                    "midi": 51,
                    "time": 323.6249999999997,
                    "velocity": 0.5826771653543307,
                    "duration": 0.1875
                },
                {
                    "name": "B3",
                    "midi": 59,
                    "time": 323.6249999999997,
                    "velocity": 0.6929133858267716,
                    "duration": 0.1875
                },
                {
                    "name": "A#2",
                    "midi": 46,
                    "time": 323.8124999999997,
                    "velocity": 0.5511811023622047,
                    "duration": 0.1875
                },
                {
                    "name": "D#3",
                    "midi": 51,
                    "time": 323.8124999999997,
                    "velocity": 0.5511811023622047,
                    "duration": 0.1875
                },
                {
                    "name": "A#3",
                    "midi": 58,
                    "time": 323.8124999999997,
                    "velocity": 0.6535433070866141,
                    "duration": 0.1875
                },
                {
                    "name": "G#2",
                    "midi": 44,
                    "time": 323.9999999999997,
                    "velocity": 0.5511811023622047,
                    "duration": 0.33749999999997726
                },
                {
                    "name": "D#3",
                    "midi": 51,
                    "time": 323.9999999999997,
                    "velocity": 0.5511811023622047,
                    "duration": 0.33749999999997726
                },
                {
                    "name": "G#3",
                    "midi": 56,
                    "time": 323.9999999999997,
                    "velocity": 0.6535433070866141,
                    "duration": 0.33749999999997726
                },
                {
                    "name": "G#1",
                    "midi": 32,
                    "time": 324.3749999999997,
                    "velocity": 0.7086614173228346,
                    "duration": 0.28125
                },
                {
                    "name": "D#2",
                    "midi": 39,
                    "time": 324.3749999999997,
                    "velocity": 0.7086614173228346,
                    "duration": 0.28125
                },
                {
                    "name": "G#2",
                    "midi": 44,
                    "time": 324.3749999999997,
                    "velocity": 0.8346456692913385,
                    "duration": 0.28125
                },
                {
                    "name": "B2",
                    "midi": 47,
                    "time": 324.7499999999997,
                    "velocity": 0.5826771653543307,
                    "duration": 0.1875
                },
                {
                    "name": "D#3",
                    "midi": 51,
                    "time": 324.7499999999997,
                    "velocity": 0.5826771653543307,
                    "duration": 0.1875
                },
                {
                    "name": "B3",
                    "midi": 59,
                    "time": 324.7499999999997,
                    "velocity": 0.6929133858267716,
                    "duration": 0.1875
                },
                {
                    "name": "A#2",
                    "midi": 46,
                    "time": 324.9374999999997,
                    "velocity": 0.5511811023622047,
                    "duration": 0.1875
                },
                {
                    "name": "D#3",
                    "midi": 51,
                    "time": 324.9374999999997,
                    "velocity": 0.5511811023622047,
                    "duration": 0.1875
                },
                {
                    "name": "A#3",
                    "midi": 58,
                    "time": 324.9374999999997,
                    "velocity": 0.6535433070866141,
                    "duration": 0.1875
                },
                {
                    "name": "G#2",
                    "midi": 44,
                    "time": 325.1249999999997,
                    "velocity": 0.5511811023622047,
                    "duration": 0.3375000000000341
                },
                {
                    "name": "D#3",
                    "midi": 51,
                    "time": 325.1249999999997,
                    "velocity": 0.5511811023622047,
                    "duration": 0.3375000000000341
                },
                {
                    "name": "G#3",
                    "midi": 56,
                    "time": 325.1249999999997,
                    "velocity": 0.6535433070866141,
                    "duration": 0.3375000000000341
                },
                {
                    "name": "G#1",
                    "midi": 32,
                    "time": 325.4999999999998,
                    "velocity": 0.7086614173228346,
                    "duration": 0.75
                },
                {
                    "name": "D#2",
                    "midi": 39,
                    "time": 325.4999999999998,
                    "velocity": 0.7086614173228346,
                    "duration": 0.75
                },
                {
                    "name": "G#2",
                    "midi": 44,
                    "time": 325.4999999999998,
                    "velocity": 0.8346456692913385,
                    "duration": 0.75
                },
                {
                    "name": "G#2",
                    "midi": 44,
                    "time": 326.2499999999998,
                    "velocity": 0.48031496062992124,
                    "duration": 0.33749999999997726
                },
                {
                    "name": "D#3",
                    "midi": 51,
                    "time": 326.2499999999998,
                    "velocity": 0.48031496062992124,
                    "duration": 0.33749999999997726
                },
                {
                    "name": "G#3",
                    "midi": 56,
                    "time": 326.2499999999998,
                    "velocity": 0.5748031496062992,
                    "duration": 0.33749999999997726
                },
                {
                    "name": "G#4",
                    "midi": 68,
                    "time": 326.6249999999998,
                    "velocity": 0.6062992125984252,
                    "duration": 0.33749999999997726
                },
                {
                    "name": "D#4",
                    "midi": 63,
                    "time": 326.6249999999998,
                    "velocity": 0.5039370078740157,
                    "duration": 0.33749999999997726
                },
                {
                    "name": "G#3",
                    "midi": 56,
                    "time": 326.6249999999998,
                    "velocity": 0.5039370078740157,
                    "duration": 0.33749999999997726
                },
                {
                    "name": "G#5",
                    "midi": 80,
                    "time": 326.9999999999998,
                    "velocity": 0.6299212598425197,
                    "duration": 0.33749999999997726
                },
                {
                    "name": "D#5",
                    "midi": 75,
                    "time": 326.9999999999998,
                    "velocity": 0.6299212598425197,
                    "duration": 0.33749999999997726
                },
                {
                    "name": "G#4",
                    "midi": 68,
                    "time": 326.9999999999998,
                    "velocity": 0.5354330708661418,
                    "duration": 0.33749999999997726
                },
                {
                    "name": "G#4",
                    "midi": 68,
                    "time": 327.3749999999998,
                    "velocity": 0.6535433070866141,
                    "duration": 0.33749999999997726
                },
                {
                    "name": "D#4",
                    "midi": 63,
                    "time": 327.3749999999998,
                    "velocity": 0.5511811023622047,
                    "duration": 0.33749999999997726
                },
                {
                    "name": "G#3",
                    "midi": 56,
                    "time": 327.3749999999998,
                    "velocity": 0.5511811023622047,
                    "duration": 0.33749999999997726
                },
                {
                    "name": "G#2",
                    "midi": 44,
                    "time": 327.7499999999998,
                    "velocity": 0.5433070866141733,
                    "duration": 0.33749999999997726
                },
                {
                    "name": "D#3",
                    "midi": 51,
                    "time": 327.7499999999998,
                    "velocity": 0.5433070866141733,
                    "duration": 0.33749999999997726
                },
                {
                    "name": "G#3",
                    "midi": 56,
                    "time": 327.7499999999998,
                    "velocity": 0.6456692913385826,
                    "duration": 0.33749999999997726
                },
                {
                    "name": "G#1",
                    "midi": 32,
                    "time": 328.1249999999998,
                    "velocity": 0.5748031496062992,
                    "duration": 0.375
                },
                {
                    "name": "D#2",
                    "midi": 39,
                    "time": 328.1249999999998,
                    "velocity": 0.5748031496062992,
                    "duration": 0.375
                },
                {
                    "name": "G#2",
                    "midi": 44,
                    "time": 328.1249999999998,
                    "velocity": 0.6771653543307087,
                    "duration": 0.375
                },
                {
                    "name": "G#2",
                    "midi": 44,
                    "time": 329.2499999999998,
                    "velocity": 0.6299212598425197,
                    "duration": 0.375
                },
                {
                    "name": "D#3",
                    "midi": 51,
                    "time": 329.2499999999998,
                    "velocity": 0.6299212598425197,
                    "duration": 0.375
                },
                {
                    "name": "G#3",
                    "midi": 56,
                    "time": 329.2499999999998,
                    "velocity": 0.7401574803149606,
                    "duration": 0.375
                },
                {
                    "name": "B3",
                    "midi": 59,
                    "time": 330.3749999999998,
                    "velocity": 0.6535433070866141,
                    "duration": 2.25
                },
                {
                    "name": "D#4",
                    "midi": 63,
                    "time": 330.3749999999998,
                    "velocity": 0.6535433070866141,
                    "duration": 2.25
                },
                {
                    "name": "G#4",
                    "midi": 68,
                    "time": 330.3749999999998,
                    "velocity": 0.6535433070866141,
                    "duration": 2.25
                },
                {
                    "name": "B4",
                    "midi": 71,
                    "time": 330.3749999999998,
                    "velocity": 0.7795275590551181,
                    "duration": 2.25
                }
            ],
            "controlChanges": {
                "7": [
                    {
                        "number": 7,
                        "time": 0,
                        "value": 0.7874015748031497
                    }
                ],
                "10": [
                    {
                        "number": 10,
                        "time": 0,
                        "value": 0.5039370078740157
                    }
                ],
                "64": [
                    {
                        "number": 64,
                        "time": 0.16718750000000002,
                        "value": 1
                    },
                    {
                        "number": 64,
                        "time": 7.1203125,
                        "value": 0
                    },
                    {
                        "number": 64,
                        "time": 8.8078125,
                        "value": 1
                    },
                    {
                        "number": 64,
                        "time": 9.1,
                        "value": 0
                    },
                    {
                        "number": 64,
                        "time": 9.9546875,
                        "value": 1
                    },
                    {
                        "number": 64,
                        "time": 10.290625,
                        "value": 0
                    },
                    {
                        "number": 64,
                        "time": 11.0734375,
                        "value": 1
                    },
                    {
                        "number": 64,
                        "time": 11.4546875,
                        "value": 0
                    },
                    {
                        "number": 64,
                        "time": 12.3046875,
                        "value": 1
                    },
                    {
                        "number": 64,
                        "time": 12.6296875,
                        "value": 0
                    },
                    {
                        "number": 64,
                        "time": 14.4640625,
                        "value": 1
                    },
                    {
                        "number": 64,
                        "time": 14.75,
                        "value": 0
                    },
                    {
                        "number": 64,
                        "time": 15.6921875,
                        "value": 1
                    },
                    {
                        "number": 64,
                        "time": 15.89375,
                        "value": 0
                    },
                    {
                        "number": 64,
                        "time": 17.86875,
                        "value": 1
                    },
                    {
                        "number": 64,
                        "time": 18.2703125,
                        "value": 0
                    },
                    {
                        "number": 64,
                        "time": 18.959375,
                        "value": 1
                    },
                    {
                        "number": 64,
                        "time": 19.4125,
                        "value": 0
                    },
                    {
                        "number": 64,
                        "time": 20.090625,
                        "value": 1
                    },
                    {
                        "number": 64,
                        "time": 20.521875,
                        "value": 0
                    },
                    {
                        "number": 64,
                        "time": 21.2671875,
                        "value": 1
                    },
                    {
                        "number": 64,
                        "time": 21.6421875,
                        "value": 0
                    },
                    {
                        "number": 64,
                        "time": 22.5625,
                        "value": 1
                    },
                    {
                        "number": 64,
                        "time": 22.7328125,
                        "value": 0
                    },
                    {
                        "number": 64,
                        "time": 23.25,
                        "value": 1
                    },
                    {
                        "number": 64,
                        "time": 23.4375,
                        "value": 0
                    },
                    {
                        "number": 64,
                        "time": 24.45625,
                        "value": 1
                    },
                    {
                        "number": 64,
                        "time": 24.65625,
                        "value": 0
                    },
                    {
                        "number": 64,
                        "time": 24.821875,
                        "value": 1
                    },
                    {
                        "number": 64,
                        "time": 25.5125,
                        "value": 0
                    },
                    {
                        "number": 64,
                        "time": 27.0609375,
                        "value": 1
                    },
                    {
                        "number": 64,
                        "time": 27.6734375,
                        "value": 0
                    },
                    {
                        "number": 64,
                        "time": 28.203125,
                        "value": 1
                    },
                    {
                        "number": 64,
                        "time": 28.759375,
                        "value": 0
                    },
                    {
                        "number": 64,
                        "time": 29.3109375,
                        "value": 1
                    },
                    {
                        "number": 64,
                        "time": 29.9,
                        "value": 0
                    },
                    {
                        "number": 64,
                        "time": 30.4421875,
                        "value": 1
                    },
                    {
                        "number": 64,
                        "time": 31.0921875,
                        "value": 0
                    },
                    {
                        "number": 64,
                        "time": 31.5609375,
                        "value": 1
                    },
                    {
                        "number": 64,
                        "time": 32.15625,
                        "value": 0
                    },
                    {
                        "number": 64,
                        "time": 32.7078125,
                        "value": 1
                    },
                    {
                        "number": 64,
                        "time": 33.253125,
                        "value": 0
                    },
                    {
                        "number": 64,
                        "time": 36.0671875,
                        "value": 1
                    },
                    {
                        "number": 64,
                        "time": 36.7390625,
                        "value": 0
                    },
                    {
                        "number": 64,
                        "time": 37.196875,
                        "value": 1
                    },
                    {
                        "number": 64,
                        "time": 37.8140625,
                        "value": 0
                    },
                    {
                        "number": 64,
                        "time": 38.3171875,
                        "value": 1
                    },
                    {
                        "number": 64,
                        "time": 38.99375,
                        "value": 0
                    },
                    {
                        "number": 64,
                        "time": 40.5453125,
                        "value": 1
                    },
                    {
                        "number": 64,
                        "time": 40.682812500000004,
                        "value": 0
                    },
                    {
                        "number": 64,
                        "time": 41.268750000000004,
                        "value": 1
                    },
                    {
                        "number": 64,
                        "time": 41.456250000000004,
                        "value": 0
                    },
                    {
                        "number": 64,
                        "time": 41.682812500000004,
                        "value": 1
                    },
                    {
                        "number": 64,
                        "time": 41.839062500000004,
                        "value": 0
                    },
                    {
                        "number": 64,
                        "time": 42.46093750000001,
                        "value": 1
                    },
                    {
                        "number": 64,
                        "time": 42.65625000000001,
                        "value": 0
                    },
                    {
                        "number": 64,
                        "time": 42.95937500000001,
                        "value": 1
                    },
                    {
                        "number": 64,
                        "time": 44.32812500000001,
                        "value": 0
                    },
                    {
                        "number": 64,
                        "time": 58.97500000000001,
                        "value": 1
                    },
                    {
                        "number": 64,
                        "time": 59.27187500000001,
                        "value": 0
                    },
                    {
                        "number": 64,
                        "time": 60.09375000000001,
                        "value": 1
                    },
                    {
                        "number": 64,
                        "time": 60.385937500000004,
                        "value": 0
                    },
                    {
                        "number": 64,
                        "time": 61.235937500000006,
                        "value": 1
                    },
                    {
                        "number": 64,
                        "time": 61.532812500000006,
                        "value": 0
                    },
                    {
                        "number": 64,
                        "time": 62.339062500000004,
                        "value": 1
                    },
                    {
                        "number": 64,
                        "time": 62.66406250000001,
                        "value": 0
                    },
                    {
                        "number": 64,
                        "time": 63.41875000000001,
                        "value": 1
                    },
                    {
                        "number": 64,
                        "time": 63.77812500000001,
                        "value": 0
                    },
                    {
                        "number": 64,
                        "time": 63.82812500000001,
                        "value": 1
                    },
                    {
                        "number": 64,
                        "time": 64.140625,
                        "value": 0
                    },
                    {
                        "number": 64,
                        "time": 64.2078125,
                        "value": 1
                    },
                    {
                        "number": 64,
                        "time": 64.5296875,
                        "value": 0
                    },
                    {
                        "number": 64,
                        "time": 68.321875,
                        "value": 1
                    },
                    {
                        "number": 64,
                        "time": 68.653125,
                        "value": 0
                    },
                    {
                        "number": 64,
                        "time": 68.7140625,
                        "value": 1
                    },
                    {
                        "number": 64,
                        "time": 69.0265625,
                        "value": 0
                    },
                    {
                        "number": 64,
                        "time": 73.225,
                        "value": 1
                    },
                    {
                        "number": 64,
                        "time": 73.5296875,
                        "value": 0
                    },
                    {
                        "number": 64,
                        "time": 77.29375,
                        "value": 1
                    },
                    {
                        "number": 64,
                        "time": 77.6546875,
                        "value": 0
                    },
                    {
                        "number": 64,
                        "time": 77.70781249999999,
                        "value": 1
                    },
                    {
                        "number": 64,
                        "time": 78.01718749999999,
                        "value": 0
                    },
                    {
                        "number": 64,
                        "time": 81.40312499999999,
                        "value": 1
                    },
                    {
                        "number": 64,
                        "time": 81.76093749999998,
                        "value": 0
                    },
                    {
                        "number": 64,
                        "time": 81.83281249999999,
                        "value": 1
                    },
                    {
                        "number": 64,
                        "time": 82.13749999999999,
                        "value": 0
                    },
                    {
                        "number": 64,
                        "time": 82.52812499999999,
                        "value": 1
                    },
                    {
                        "number": 64,
                        "time": 82.89531249999999,
                        "value": 0
                    },
                    {
                        "number": 64,
                        "time": 82.94218749999999,
                        "value": 1
                    },
                    {
                        "number": 64,
                        "time": 83.25937499999999,
                        "value": 0
                    },
                    {
                        "number": 64,
                        "time": 83.71406249999998,
                        "value": 1
                    },
                    {
                        "number": 64,
                        "time": 84.01406249999998,
                        "value": 0
                    },
                    {
                        "number": 64,
                        "time": 84.12499999999999,
                        "value": 1
                    },
                    {
                        "number": 64,
                        "time": 84.41093749999999,
                        "value": 0
                    },
                    {
                        "number": 64,
                        "time": 84.77656249999998,
                        "value": 1
                    },
                    {
                        "number": 64,
                        "time": 85.13593749999998,
                        "value": 0
                    },
                    {
                        "number": 64,
                        "time": 85.57187499999999,
                        "value": 1
                    },
                    {
                        "number": 64,
                        "time": 85.90781249999999,
                        "value": 0
                    },
                    {
                        "number": 64,
                        "time": 86.32187499999999,
                        "value": 1
                    },
                    {
                        "number": 64,
                        "time": 86.64843749999999,
                        "value": 0
                    },
                    {
                        "number": 64,
                        "time": 91.66562499999999,
                        "value": 1
                    },
                    {
                        "number": 64,
                        "time": 93.02812499999999,
                        "value": 0
                    },
                    {
                        "number": 64,
                        "time": 93.115625,
                        "value": 1
                    },
                    {
                        "number": 64,
                        "time": 94.55625,
                        "value": 0
                    },
                    {
                        "number": 64,
                        "time": 94.6328125,
                        "value": 1
                    },
                    {
                        "number": 64,
                        "time": 94.875,
                        "value": 0
                    },
                    {
                        "number": 64,
                        "time": 96.8328125,
                        "value": 1
                    },
                    {
                        "number": 64,
                        "time": 97.146875,
                        "value": 0
                    },
                    {
                        "number": 64,
                        "time": 99.0671875,
                        "value": 1
                    },
                    {
                        "number": 64,
                        "time": 99.390625,
                        "value": 0
                    },
                    {
                        "number": 64,
                        "time": 100.9578125,
                        "value": 1
                    },
                    {
                        "number": 64,
                        "time": 101.25,
                        "value": 0
                    },
                    {
                        "number": 64,
                        "time": 101.371875,
                        "value": 1
                    },
                    {
                        "number": 64,
                        "time": 101.6421875,
                        "value": 0
                    },
                    {
                        "number": 64,
                        "time": 103.6546875,
                        "value": 1
                    },
                    {
                        "number": 64,
                        "time": 103.9,
                        "value": 0
                    },
                    {
                        "number": 64,
                        "time": 105.84375,
                        "value": 1
                    },
                    {
                        "number": 64,
                        "time": 106.153125,
                        "value": 0
                    },
                    {
                        "number": 64,
                        "time": 110.3328125,
                        "value": 1
                    },
                    {
                        "number": 64,
                        "time": 111.4078125,
                        "value": 0
                    },
                    {
                        "number": 64,
                        "time": 112.5625,
                        "value": 1
                    },
                    {
                        "number": 64,
                        "time": 112.90625,
                        "value": 0
                    },
                    {
                        "number": 64,
                        "time": 113.6796875,
                        "value": 1
                    },
                    {
                        "number": 64,
                        "time": 114.01875,
                        "value": 0
                    },
                    {
                        "number": 64,
                        "time": 114.8609375,
                        "value": 1
                    },
                    {
                        "number": 64,
                        "time": 115.146875,
                        "value": 0
                    },
                    {
                        "number": 64,
                        "time": 115.9796875,
                        "value": 1
                    },
                    {
                        "number": 64,
                        "time": 116.271875,
                        "value": 0
                    },
                    {
                        "number": 64,
                        "time": 117.08125,
                        "value": 1
                    },
                    {
                        "number": 64,
                        "time": 117.3921875,
                        "value": 0
                    },
                    {
                        "number": 64,
                        "time": 118.2015625,
                        "value": 1
                    },
                    {
                        "number": 64,
                        "time": 118.5171875,
                        "value": 0
                    },
                    {
                        "number": 64,
                        "time": 119.34375,
                        "value": 1
                    },
                    {
                        "number": 64,
                        "time": 120.0328125,
                        "value": 0
                    },
                    {
                        "number": 64,
                        "time": 121.5546875,
                        "value": 1
                    },
                    {
                        "number": 64,
                        "time": 121.9015625,
                        "value": 0
                    },
                    {
                        "number": 64,
                        "time": 122.7375,
                        "value": 1
                    },
                    {
                        "number": 64,
                        "time": 123.0234375,
                        "value": 0
                    },
                    {
                        "number": 64,
                        "time": 123.8765625,
                        "value": 1
                    },
                    {
                        "number": 64,
                        "time": 124.6703125,
                        "value": 0
                    },
                    {
                        "number": 64,
                        "time": 126.05,
                        "value": 1
                    },
                    {
                        "number": 64,
                        "time": 126.3359375,
                        "value": 0
                    },
                    {
                        "number": 64,
                        "time": 126.4109375,
                        "value": 1
                    },
                    {
                        "number": 64,
                        "time": 126.7453125,
                        "value": 0
                    },
                    {
                        "number": 64,
                        "time": 126.8078125,
                        "value": 1
                    },
                    {
                        "number": 64,
                        "time": 127.1078125,
                        "value": 0
                    },
                    {
                        "number": 64,
                        "time": 127.1796875,
                        "value": 1
                    },
                    {
                        "number": 64,
                        "time": 127.509375,
                        "value": 0
                    },
                    {
                        "number": 64,
                        "time": 127.571875,
                        "value": 1
                    },
                    {
                        "number": 64,
                        "time": 127.89375000000001,
                        "value": 0
                    },
                    {
                        "number": 64,
                        "time": 127.95156250000001,
                        "value": 1
                    },
                    {
                        "number": 64,
                        "time": 128.2546875,
                        "value": 0
                    },
                    {
                        "number": 64,
                        "time": 128.3265625,
                        "value": 1
                    },
                    {
                        "number": 64,
                        "time": 128.634375,
                        "value": 0
                    },
                    {
                        "number": 64,
                        "time": 128.69218750000002,
                        "value": 1
                    },
                    {
                        "number": 64,
                        "time": 129.02343750000003,
                        "value": 0
                    },
                    {
                        "number": 64,
                        "time": 129.08906250000004,
                        "value": 1
                    },
                    {
                        "number": 64,
                        "time": 129.40000000000003,
                        "value": 0
                    },
                    {
                        "number": 64,
                        "time": 129.47343750000005,
                        "value": 1
                    },
                    {
                        "number": 64,
                        "time": 129.76718750000003,
                        "value": 0
                    },
                    {
                        "number": 64,
                        "time": 129.82187500000003,
                        "value": 1
                    },
                    {
                        "number": 64,
                        "time": 130.15000000000003,
                        "value": 0
                    },
                    {
                        "number": 64,
                        "time": 130.20156250000002,
                        "value": 1
                    },
                    {
                        "number": 64,
                        "time": 130.51406250000002,
                        "value": 0
                    },
                    {
                        "number": 64,
                        "time": 130.56718750000002,
                        "value": 1
                    },
                    {
                        "number": 64,
                        "time": 130.89375000000004,
                        "value": 0
                    },
                    {
                        "number": 64,
                        "time": 130.94687500000003,
                        "value": 1
                    },
                    {
                        "number": 64,
                        "time": 131.27656250000004,
                        "value": 0
                    },
                    {
                        "number": 64,
                        "time": 131.33906250000004,
                        "value": 1
                    },
                    {
                        "number": 64,
                        "time": 131.64375000000004,
                        "value": 0
                    },
                    {
                        "number": 64,
                        "time": 131.70625000000004,
                        "value": 1
                    },
                    {
                        "number": 64,
                        "time": 132.01875000000004,
                        "value": 0
                    },
                    {
                        "number": 64,
                        "time": 132.07656250000005,
                        "value": 1
                    },
                    {
                        "number": 64,
                        "time": 132.40156250000004,
                        "value": 0
                    },
                    {
                        "number": 64,
                        "time": 132.46093750000003,
                        "value": 1
                    },
                    {
                        "number": 64,
                        "time": 132.75000000000003,
                        "value": 0
                    },
                    {
                        "number": 64,
                        "time": 183.39843750000003,
                        "value": 1
                    },
                    {
                        "number": 64,
                        "time": 185.67500000000004,
                        "value": 0
                    },
                    {
                        "number": 64,
                        "time": 185.77343750000003,
                        "value": 1
                    },
                    {
                        "number": 64,
                        "time": 187.87500000000003,
                        "value": 0
                    },
                    {
                        "number": 64,
                        "time": 187.99687500000002,
                        "value": 1
                    },
                    {
                        "number": 64,
                        "time": 193.52812500000002,
                        "value": 0
                    },
                    {
                        "number": 64,
                        "time": 196.94687500000003,
                        "value": 1
                    },
                    {
                        "number": 64,
                        "time": 197.65156250000004,
                        "value": 0
                    },
                    {
                        "number": 64,
                        "time": 199.19687500000003,
                        "value": 1
                    },
                    {
                        "number": 64,
                        "time": 199.89687500000002,
                        "value": 0
                    },
                    {
                        "number": 64,
                        "time": 201.43593750000002,
                        "value": 1
                    },
                    {
                        "number": 64,
                        "time": 202.14687500000002,
                        "value": 0
                    },
                    {
                        "number": 64,
                        "time": 210.46406250000004,
                        "value": 1
                    },
                    {
                        "number": 64,
                        "time": 210.88750000000002,
                        "value": 0
                    },
                    {
                        "number": 64,
                        "time": 212.67968750000003,
                        "value": 1
                    },
                    {
                        "number": 64,
                        "time": 213.38906250000002,
                        "value": 0
                    },
                    {
                        "number": 64,
                        "time": 213.45156250000002,
                        "value": 1
                    },
                    {
                        "number": 64,
                        "time": 213.76406250000002,
                        "value": 0
                    },
                    {
                        "number": 64,
                        "time": 213.82187500000003,
                        "value": 1
                    },
                    {
                        "number": 64,
                        "time": 214.52656250000004,
                        "value": 0
                    },
                    {
                        "number": 64,
                        "time": 214.57187500000003,
                        "value": 1
                    },
                    {
                        "number": 64,
                        "time": 214.87500000000003,
                        "value": 0
                    },
                    {
                        "number": 64,
                        "time": 214.96875000000003,
                        "value": 1
                    },
                    {
                        "number": 64,
                        "time": 215.63281250000003,
                        "value": 0
                    },
                    {
                        "number": 64,
                        "time": 216.10000000000002,
                        "value": 1
                    },
                    {
                        "number": 64,
                        "time": 216.37500000000003,
                        "value": 0
                    },
                    {
                        "number": 64,
                        "time": 217.19687500000003,
                        "value": 1
                    },
                    {
                        "number": 64,
                        "time": 217.88750000000002,
                        "value": 0
                    },
                    {
                        "number": 64,
                        "time": 217.95625,
                        "value": 1
                    },
                    {
                        "number": 64,
                        "time": 218.2640625,
                        "value": 0
                    },
                    {
                        "number": 64,
                        "time": 218.3359375,
                        "value": 1
                    },
                    {
                        "number": 64,
                        "time": 219.0140625,
                        "value": 0
                    },
                    {
                        "number": 64,
                        "time": 219.0765625,
                        "value": 1
                    },
                    {
                        "number": 64,
                        "time": 219.375,
                        "value": 0
                    },
                    {
                        "number": 64,
                        "time": 219.490625,
                        "value": 1
                    },
                    {
                        "number": 64,
                        "time": 220.884375,
                        "value": 0
                    },
                    {
                        "number": 64,
                        "time": 221.6796875,
                        "value": 1
                    },
                    {
                        "number": 64,
                        "time": 222.384375,
                        "value": 0
                    },
                    {
                        "number": 64,
                        "time": 222.8484375,
                        "value": 1
                    },
                    {
                        "number": 64,
                        "time": 223.89375,
                        "value": 0
                    },
                    {
                        "number": 64,
                        "time": 223.9796875,
                        "value": 1
                    },
                    {
                        "number": 64,
                        "time": 224.6421875,
                        "value": 0
                    },
                    {
                        "number": 64,
                        "time": 225.121875,
                        "value": 1
                    },
                    {
                        "number": 64,
                        "time": 226.1390625,
                        "value": 0
                    },
                    {
                        "number": 64,
                        "time": 230.6765625,
                        "value": 1
                    },
                    {
                        "number": 64,
                        "time": 232.3125,
                        "value": 0
                    },
                    {
                        "number": 64,
                        "time": 244.9640625,
                        "value": 1
                    },
                    {
                        "number": 64,
                        "time": 245.98125,
                        "value": 0
                    },
                    {
                        "number": 64,
                        "time": 246.0984375,
                        "value": 1
                    },
                    {
                        "number": 64,
                        "time": 247.1515625,
                        "value": 0
                    },
                    {
                        "number": 64,
                        "time": 247.2421875,
                        "value": 1
                    },
                    {
                        "number": 64,
                        "time": 248.28125,
                        "value": 0
                    },
                    {
                        "number": 64,
                        "time": 248.384375,
                        "value": 1
                    },
                    {
                        "number": 64,
                        "time": 249.01875,
                        "value": 0
                    },
                    {
                        "number": 64,
                        "time": 249.134375,
                        "value": 1
                    },
                    {
                        "number": 64,
                        "time": 249.375,
                        "value": 0
                    },
                    {
                        "number": 64,
                        "time": 249.5,
                        "value": 1
                    },
                    {
                        "number": 64,
                        "time": 249.7140625,
                        "value": 0
                    },
                    {
                        "number": 64,
                        "time": 250.6515625,
                        "value": 1
                    },
                    {
                        "number": 64,
                        "time": 252,
                        "value": 0
                    },
                    {
                        "number": 64,
                        "time": 255.0984375,
                        "value": 1
                    },
                    {
                        "number": 64,
                        "time": 256.5265625,
                        "value": 0
                    },
                    {
                        "number": 64,
                        "time": 259.58125,
                        "value": 1
                    },
                    {
                        "number": 64,
                        "time": 261,
                        "value": 0
                    },
                    {
                        "number": 64,
                        "time": 264.0890625,
                        "value": 1
                    },
                    {
                        "number": 64,
                        "time": 265.51875,
                        "value": 0
                    },
                    {
                        "number": 64,
                        "time": 274.5890625,
                        "value": 1
                    },
                    {
                        "number": 64,
                        "time": 274.8984375,
                        "value": 0
                    },
                    {
                        "number": 64,
                        "time": 274.9828125,
                        "value": 1
                    },
                    {
                        "number": 64,
                        "time": 275.26875,
                        "value": 0
                    },
                    {
                        "number": 64,
                        "time": 275.3578125,
                        "value": 1
                    },
                    {
                        "number": 64,
                        "time": 275.6609375,
                        "value": 0
                    },
                    {
                        "number": 64,
                        "time": 275.73281249999997,
                        "value": 1
                    },
                    {
                        "number": 64,
                        "time": 276.02812499999993,
                        "value": 0
                    },
                    {
                        "number": 64,
                        "time": 276.11718749999994,
                        "value": 1
                    },
                    {
                        "number": 64,
                        "time": 276.37499999999994,
                        "value": 0
                    },
                    {
                        "number": 64,
                        "time": 276.46406249999995,
                        "value": 1
                    },
                    {
                        "number": 64,
                        "time": 276.77656249999995,
                        "value": 0
                    },
                    {
                        "number": 64,
                        "time": 276.85781249999997,
                        "value": 1
                    },
                    {
                        "number": 64,
                        "time": 277.14687499999997,
                        "value": 0
                    },
                    {
                        "number": 64,
                        "time": 277.24218749999994,
                        "value": 1
                    },
                    {
                        "number": 64,
                        "time": 277.52656249999995,
                        "value": 0
                    },
                    {
                        "number": 64,
                        "time": 277.58906249999995,
                        "value": 1
                    },
                    {
                        "number": 64,
                        "time": 277.90624999999994,
                        "value": 0
                    },
                    {
                        "number": 64,
                        "time": 278.0093749999999,
                        "value": 1
                    },
                    {
                        "number": 64,
                        "time": 278.27343749999994,
                        "value": 0
                    },
                    {
                        "number": 64,
                        "time": 278.3843749999999,
                        "value": 1
                    },
                    {
                        "number": 64,
                        "time": 278.62812499999995,
                        "value": 0
                    },
                    {
                        "number": 64,
                        "time": 278.73281249999997,
                        "value": 1
                    },
                    {
                        "number": 64,
                        "time": 279.01406249999997,
                        "value": 0
                    },
                    {
                        "number": 64,
                        "time": 279.0984375,
                        "value": 1
                    },
                    {
                        "number": 64,
                        "time": 279.4015625,
                        "value": 0
                    },
                    {
                        "number": 64,
                        "time": 279.4828125,
                        "value": 1
                    },
                    {
                        "number": 64,
                        "time": 279.778125,
                        "value": 0
                    },
                    {
                        "number": 64,
                        "time": 279.884375,
                        "value": 1
                    },
                    {
                        "number": 64,
                        "time": 280.1484375,
                        "value": 0
                    },
                    {
                        "number": 64,
                        "time": 280.2234375,
                        "value": 1
                    },
                    {
                        "number": 64,
                        "time": 280.525,
                        "value": 0
                    },
                    {
                        "number": 64,
                        "time": 280.6171875,
                        "value": 1
                    },
                    {
                        "number": 64,
                        "time": 280.884375,
                        "value": 0
                    },
                    {
                        "number": 64,
                        "time": 280.95624999999995,
                        "value": 1
                    },
                    {
                        "number": 64,
                        "time": 288.39687499999997,
                        "value": 0
                    },
                    {
                        "number": 64,
                        "time": 288.5953124999999,
                        "value": 1
                    },
                    {
                        "number": 64,
                        "time": 289.52187499999997,
                        "value": 0
                    },
                    {
                        "number": 64,
                        "time": 289.92031249999997,
                        "value": 1
                    },
                    {
                        "number": 64,
                        "time": 290.65156249999995,
                        "value": 0
                    },
                    {
                        "number": 64,
                        "time": 290.72343749999993,
                        "value": 1
                    },
                    {
                        "number": 64,
                        "time": 290.99218749999994,
                        "value": 0
                    },
                    {
                        "number": 64,
                        "time": 291.10781249999997,
                        "value": 1
                    },
                    {
                        "number": 64,
                        "time": 291.38593749999995,
                        "value": 0
                    },
                    {
                        "number": 64,
                        "time": 291.49218749999994,
                        "value": 1
                    },
                    {
                        "number": 64,
                        "time": 291.78593749999993,
                        "value": 0
                    },
                    {
                        "number": 64,
                        "time": 291.8578124999999,
                        "value": 1
                    },
                    {
                        "number": 64,
                        "time": 292.1249999999999,
                        "value": 0
                    },
                    {
                        "number": 64,
                        "time": 292.2328124999999,
                        "value": 1
                    },
                    {
                        "number": 64,
                        "time": 292.8859374999999,
                        "value": 0
                    },
                    {
                        "number": 64,
                        "time": 292.9921874999999,
                        "value": 1
                    },
                    {
                        "number": 64,
                        "time": 293.2734374999999,
                        "value": 0
                    },
                    {
                        "number": 64,
                        "time": 293.3578124999999,
                        "value": 1
                    },
                    {
                        "number": 64,
                        "time": 293.6515624999999,
                        "value": 0
                    },
                    {
                        "number": 64,
                        "time": 293.7328124999999,
                        "value": 1
                    },
                    {
                        "number": 64,
                        "time": 294.0124999999999,
                        "value": 0
                    },
                    {
                        "number": 64,
                        "time": 294.0812499999999,
                        "value": 1
                    },
                    {
                        "number": 64,
                        "time": 294.3749999999999,
                        "value": 0
                    },
                    {
                        "number": 64,
                        "time": 294.4999999999999,
                        "value": 1
                    },
                    {
                        "number": 64,
                        "time": 295.1374999999999,
                        "value": 0
                    },
                    {
                        "number": 64,
                        "time": 295.23281249999985,
                        "value": 1
                    },
                    {
                        "number": 64,
                        "time": 295.51874999999984,
                        "value": 0
                    },
                    {
                        "number": 64,
                        "time": 295.61718749999983,
                        "value": 1
                    },
                    {
                        "number": 64,
                        "time": 295.89374999999984,
                        "value": 0
                    },
                    {
                        "number": 64,
                        "time": 295.99999999999983,
                        "value": 1
                    },
                    {
                        "number": 64,
                        "time": 296.26406249999985,
                        "value": 0
                    },
                    {
                        "number": 64,
                        "time": 296.3484374999999,
                        "value": 1
                    },
                    {
                        "number": 64,
                        "time": 296.6374999999999,
                        "value": 0
                    },
                    {
                        "number": 64,
                        "time": 296.7140624999999,
                        "value": 1
                    },
                    {
                        "number": 64,
                        "time": 297.0187499999999,
                        "value": 0
                    },
                    {
                        "number": 64,
                        "time": 297.0984374999999,
                        "value": 1
                    },
                    {
                        "number": 64,
                        "time": 297.3906249999999,
                        "value": 0
                    },
                    {
                        "number": 64,
                        "time": 297.4999999999999,
                        "value": 1
                    },
                    {
                        "number": 64,
                        "time": 297.7734374999999,
                        "value": 0
                    },
                    {
                        "number": 64,
                        "time": 299.0187499999999,
                        "value": 1
                    },
                    {
                        "number": 64,
                        "time": 299.6515624999999,
                        "value": 0
                    },
                    {
                        "number": 64,
                        "time": 299.7859374999999,
                        "value": 1
                    },
                    {
                        "number": 64,
                        "time": 300.0187499999999,
                        "value": 0
                    },
                    {
                        "number": 64,
                        "time": 300.1249999999999,
                        "value": 1
                    },
                    {
                        "number": 64,
                        "time": 300.3874999999999,
                        "value": 0
                    },
                    {
                        "number": 64,
                        "time": 300.4734374999999,
                        "value": 1
                    },
                    {
                        "number": 64,
                        "time": 300.7624999999999,
                        "value": 0
                    },
                    {
                        "number": 64,
                        "time": 300.8484374999999,
                        "value": 1
                    },
                    {
                        "number": 64,
                        "time": 301.1249999999999,
                        "value": 0
                    },
                    {
                        "number": 64,
                        "time": 301.2328124999999,
                        "value": 1
                    },
                    {
                        "number": 64,
                        "time": 301.5124999999999,
                        "value": 0
                    },
                    {
                        "number": 64,
                        "time": 305.7421874999999,
                        "value": 1
                    },
                    {
                        "number": 64,
                        "time": 307.8749999999999,
                        "value": 0
                    },
                    {
                        "number": 64,
                        "time": 307.94687499999986,
                        "value": 1
                    },
                    {
                        "number": 64,
                        "time": 308.24531249999984,
                        "value": 0
                    },
                    {
                        "number": 64,
                        "time": 308.33906249999984,
                        "value": 1
                    },
                    {
                        "number": 64,
                        "time": 308.81249999999983,
                        "value": 0
                    },
                    {
                        "number": 64,
                        "time": 309.0828124999998,
                        "value": 1
                    },
                    {
                        "number": 64,
                        "time": 309.38124999999985,
                        "value": 0
                    },
                    {
                        "number": 64,
                        "time": 309.4578124999999,
                        "value": 1
                    },
                    {
                        "number": 64,
                        "time": 309.7999999999999,
                        "value": 0
                    },
                    {
                        "number": 64,
                        "time": 310.19687499999986,
                        "value": 1
                    },
                    {
                        "number": 64,
                        "time": 310.5281249999999,
                        "value": 0
                    },
                    {
                        "number": 64,
                        "time": 310.6218749999999,
                        "value": 1
                    },
                    {
                        "number": 64,
                        "time": 310.9062499999999,
                        "value": 0
                    },
                    {
                        "number": 64,
                        "time": 311.3437499999999,
                        "value": 1
                    },
                    {
                        "number": 64,
                        "time": 311.64218749999986,
                        "value": 0
                    },
                    {
                        "number": 64,
                        "time": 311.73593749999986,
                        "value": 1
                    },
                    {
                        "number": 64,
                        "time": 312.0281249999999,
                        "value": 0
                    },
                    {
                        "number": 64,
                        "time": 312.4531249999999,
                        "value": 1
                    },
                    {
                        "number": 64,
                        "time": 312.76718749999986,
                        "value": 0
                    },
                    {
                        "number": 64,
                        "time": 312.83906249999984,
                        "value": 1
                    },
                    {
                        "number": 64,
                        "time": 313.26874999999984,
                        "value": 0
                    },
                    {
                        "number": 64,
                        "time": 313.5671874999998,
                        "value": 1
                    },
                    {
                        "number": 64,
                        "time": 313.89687499999985,
                        "value": 0
                    },
                    {
                        "number": 64,
                        "time": 313.96406249999984,
                        "value": 1
                    },
                    {
                        "number": 64,
                        "time": 314.27187499999985,
                        "value": 0
                    },
                    {
                        "number": 64,
                        "time": 314.68593749999985,
                        "value": 1
                    },
                    {
                        "number": 64,
                        "time": 315.0171874999998,
                        "value": 0
                    },
                    {
                        "number": 64,
                        "time": 315.0718749999998,
                        "value": 1
                    },
                    {
                        "number": 64,
                        "time": 315.40468749999985,
                        "value": 0
                    },
                    {
                        "number": 64,
                        "time": 315.84374999999983,
                        "value": 1
                    },
                    {
                        "number": 64,
                        "time": 316.1578124999998,
                        "value": 0
                    },
                    {
                        "number": 64,
                        "time": 316.2406249999998,
                        "value": 1
                    },
                    {
                        "number": 64,
                        "time": 316.52812499999976,
                        "value": 0
                    },
                    {
                        "number": 64,
                        "time": 317.0187499999998,
                        "value": 1
                    },
                    {
                        "number": 64,
                        "time": 317.2718749999998,
                        "value": 0
                    },
                    {
                        "number": 64,
                        "time": 317.3937499999998,
                        "value": 1
                    },
                    {
                        "number": 64,
                        "time": 317.98906249999976,
                        "value": 0
                    },
                    {
                        "number": 64,
                        "time": 318.48593749999975,
                        "value": 1
                    },
                    {
                        "number": 64,
                        "time": 318.76249999999976,
                        "value": 0
                    },
                    {
                        "number": 64,
                        "time": 318.8828124999998,
                        "value": 1
                    },
                    {
                        "number": 64,
                        "time": 319.1249999999998,
                        "value": 0
                    },
                    {
                        "number": 64,
                        "time": 319.2578124999998,
                        "value": 1
                    },
                    {
                        "number": 64,
                        "time": 319.52499999999975,
                        "value": 0
                    },
                    {
                        "number": 64,
                        "time": 319.6984374999997,
                        "value": 1
                    },
                    {
                        "number": 64,
                        "time": 320.22812499999975,
                        "value": 0
                    },
                    {
                        "number": 64,
                        "time": 320.7249999999998,
                        "value": 1
                    },
                    {
                        "number": 64,
                        "time": 321.0140624999998,
                        "value": 0
                    },
                    {
                        "number": 64,
                        "time": 321.1437499999998,
                        "value": 1
                    },
                    {
                        "number": 64,
                        "time": 321.3749999999998,
                        "value": 0
                    },
                    {
                        "number": 64,
                        "time": 321.49687499999976,
                        "value": 1
                    },
                    {
                        "number": 64,
                        "time": 321.7765624999998,
                        "value": 0
                    },
                    {
                        "number": 64,
                        "time": 321.87187499999976,
                        "value": 1
                    },
                    {
                        "number": 64,
                        "time": 322.53281249999975,
                        "value": 0
                    },
                    {
                        "number": 64,
                        "time": 322.65468749999974,
                        "value": 1
                    },
                    {
                        "number": 64,
                        "time": 322.8999999999997,
                        "value": 0
                    },
                    {
                        "number": 64,
                        "time": 323.0078124999997,
                        "value": 1
                    },
                    {
                        "number": 64,
                        "time": 323.6249999999997,
                        "value": 0
                    },
                    {
                        "number": 64,
                        "time": 323.7140624999997,
                        "value": 1
                    },
                    {
                        "number": 64,
                        "time": 324.0156249999997,
                        "value": 0
                    },
                    {
                        "number": 64,
                        "time": 324.1218749999997,
                        "value": 1
                    },
                    {
                        "number": 64,
                        "time": 324.7765624999997,
                        "value": 0
                    },
                    {
                        "number": 64,
                        "time": 324.9484374999997,
                        "value": 1
                    },
                    {
                        "number": 64,
                        "time": 325.1515624999997,
                        "value": 0
                    },
                    {
                        "number": 64,
                        "time": 325.2687499999997,
                        "value": 1
                    },
                    {
                        "number": 64,
                        "time": 333.0421874999998,
                        "value": 0
                    }
                ],
                "91": [
                    {
                        "number": 91,
                        "time": 0.37343750000000003,
                        "value": 1
                    },
                    {
                        "number": 91,
                        "time": 232.6875,
                        "value": 1
                    }
                ]
            },
            "id": 2,
            "name": "Piano left",
            "instrumentNumber": 0,
            "instrument": "acoustic grand piano",
            "instrumentFamily": "piano",
            "channelNumber": 0,
            "isPercussion": false
        },
        {
            "startTime": 0,
            "duration": 0,
            "length": 0,
            "notes": [],
            "controlChanges": {},
            "id": 3,
            "name": "Liszt: Etude No. 3 \"La Campanella\" from Grandes Etudes de Paganini"
        },
        {
            "startTime": 0,
            "duration": 0,
            "length": 0,
            "notes": [],
            "controlChanges": {},
            "id": 4,
            "name": "Copyright  1998 by Bernd Krger"
        },
        {
            "startTime": 0,
            "duration": 0,
            "length": 0,
            "notes": [],
            "controlChanges": {},
            "id": 5,
            "name": "http://www.piano-midi.de"
        },
        {
            "startTime": 0,
            "duration": 0,
            "length": 0,
            "notes": [],
            "controlChanges": {},
            "id": 6,
            "name": "Edition: 2014-03-03"
        }
    ]
}