{
    "header": {
        "PPQ": 480,
        "timeSignature": [
            2,
            4
        ],
        "bpm": 86.30994765301675,
        "name": "Promenade - Ballett der Küchlein  in ihren Eierschalen"
    },
    "startTime": 0,
    "duration": 176.57292599999977,
    "tracks": [
        {
            "startTime": 0,
            "duration": 0,
            "length": 0,
            "notes": [],
            "controlChanges": {},
            "id": 0,
            "name": "Promenade - Ballett der Küchlein  in ihren Eierschalen"
        },
        {
            "startTime": 1.390338,
            "duration": 176.57292599999937,
            "length": 841,
            "notes": [
                {
                    "name": "F5",
                    "midi": 77,
                    "time": 1.390338,
                    "velocity": 0.3543307086614173,
                    "duration": 0.6951690000000001
                },
                {
                    "name": "A5",
                    "midi": 81,
                    "time": 1.390338,
                    "velocity": 0.3543307086614173,
                    "duration": 0.6951690000000001
                },
                {
                    "name": "D6",
                    "midi": 86,
                    "time": 1.390338,
                    "velocity": 0.4251968503937008,
                    "duration": 0.6951690000000001
                },
                {
                    "name": "A5",
                    "midi": 81,
                    "time": 2.085507,
                    "velocity": 0.3543307086614173,
                    "duration": 0.6951689999999999
                },
                {
                    "name": "C6",
                    "midi": 84,
                    "time": 2.085507,
                    "velocity": 0.3543307086614173,
                    "duration": 0.6951689999999999
                },
                {
                    "name": "E6",
                    "midi": 88,
                    "time": 2.085507,
                    "velocity": 0.4251968503937008,
                    "duration": 0.34758449999999996
                },
                {
                    "name": "A6",
                    "midi": 93,
                    "time": 2.4330915,
                    "velocity": 0.3779527559055118,
                    "duration": 0.34758449999999996
                },
                {
                    "name": "A5",
                    "midi": 81,
                    "time": 2.780676,
                    "velocity": 0.3543307086614173,
                    "duration": 0.6951689999999999
                },
                {
                    "name": "D6",
                    "midi": 86,
                    "time": 2.780676,
                    "velocity": 0.3543307086614173,
                    "duration": 0.6951689999999999
                },
                {
                    "name": "F6",
                    "midi": 89,
                    "time": 2.780676,
                    "velocity": 0.4251968503937008,
                    "duration": 0.6951689999999999
                },
                {
                    "name": "A5",
                    "midi": 81,
                    "time": 3.475845,
                    "velocity": 0.3464566929133858,
                    "duration": 0.6951690000000004
                },
                {
                    "name": "C6",
                    "midi": 84,
                    "time": 3.475845,
                    "velocity": 0.3464566929133858,
                    "duration": 0.6951690000000004
                },
                {
                    "name": "E6",
                    "midi": 88,
                    "time": 3.475845,
                    "velocity": 0.4094488188976378,
                    "duration": 0.34758449999999996
                },
                {
                    "name": "A6",
                    "midi": 93,
                    "time": 3.8234295,
                    "velocity": 0.36220472440944884,
                    "duration": 0.3475845000000004
                },
                {
                    "name": "A#5",
                    "midi": 82,
                    "time": 4.171014,
                    "velocity": 0.33070866141732286,
                    "duration": 0.6951689999999999
                },
                {
                    "name": "D6",
                    "midi": 86,
                    "time": 4.171014,
                    "velocity": 0.33070866141732286,
                    "duration": 0.6951689999999999
                },
                {
                    "name": "F6",
                    "midi": 89,
                    "time": 4.171014,
                    "velocity": 0.3937007874015748,
                    "duration": 0.6951689999999999
                },
                {
                    "name": "G5",
                    "midi": 79,
                    "time": 4.866183,
                    "velocity": 0.3700787401574803,
                    "duration": 0.6951689999999999
                },
                {
                    "name": "A#5",
                    "midi": 82,
                    "time": 4.866183,
                    "velocity": 0.3700787401574803,
                    "duration": 0.6951689999999999
                },
                {
                    "name": "D6",
                    "midi": 86,
                    "time": 4.866183,
                    "velocity": 0.4409448818897638,
                    "duration": 0.6951689999999999
                },
                {
                    "name": "E7",
                    "midi": 100,
                    "time": 5.561352,
                    "velocity": 0.41732283464566927,
                    "duration": 0.6951689999999999
                },
                {
                    "name": "G6",
                    "midi": 91,
                    "time": 5.561352,
                    "velocity": 0.41732283464566927,
                    "duration": 0.6951689999999999
                },
                {
                    "name": "E6",
                    "midi": 88,
                    "time": 5.561352,
                    "velocity": 0.3543307086614173,
                    "duration": 0.6951689999999999
                },
                {
                    "name": "A#6",
                    "midi": 94,
                    "time": 6.256521,
                    "velocity": 0.3858267716535433,
                    "duration": 0.6951689999999999
                },
                {
                    "name": "G6",
                    "midi": 91,
                    "time": 6.256521,
                    "velocity": 0.3228346456692913,
                    "duration": 0.6951689999999999
                },
                {
                    "name": "E6",
                    "midi": 88,
                    "time": 6.256521,
                    "velocity": 0.3228346456692913,
                    "duration": 0.6951689999999999
                },
                {
                    "name": "A6",
                    "midi": 93,
                    "time": 6.95169,
                    "velocity": 0.3464566929133858,
                    "duration": 0.6951689999999999
                },
                {
                    "name": "G6",
                    "midi": 91,
                    "time": 6.95169,
                    "velocity": 0.29133858267716534,
                    "duration": 0.6951689999999999
                },
                {
                    "name": "E6",
                    "midi": 88,
                    "time": 6.95169,
                    "velocity": 0.29133858267716534,
                    "duration": 0.6951689999999999
                },
                {
                    "name": "G4",
                    "midi": 67,
                    "time": 9.037197,
                    "velocity": 0.3543307086614173,
                    "duration": 0.6951689999999999
                },
                {
                    "name": "A#4",
                    "midi": 70,
                    "time": 9.037197,
                    "velocity": 0.4251968503937008,
                    "duration": 0.6951689999999999
                },
                {
                    "name": "E4",
                    "midi": 64,
                    "time": 9.732366,
                    "velocity": 0.3543307086614173,
                    "duration": 0.6951689999999999
                },
                {
                    "name": "A4",
                    "midi": 69,
                    "time": 9.732366,
                    "velocity": 0.4251968503937008,
                    "duration": 0.6951689999999999
                },
                {
                    "name": "F4",
                    "midi": 65,
                    "time": 10.427535,
                    "velocity": 0.3543307086614173,
                    "duration": 0.6951689999999999
                },
                {
                    "name": "A4",
                    "midi": 69,
                    "time": 10.427535,
                    "velocity": 0.3543307086614173,
                    "duration": 0.6951689999999999
                },
                {
                    "name": "D5",
                    "midi": 74,
                    "time": 10.427535,
                    "velocity": 0.4251968503937008,
                    "duration": 0.6951689999999999
                },
                {
                    "name": "A4",
                    "midi": 69,
                    "time": 11.122704,
                    "velocity": 0.3858267716535433,
                    "duration": 0.6951689999999999
                },
                {
                    "name": "C#5",
                    "midi": 73,
                    "time": 11.122704,
                    "velocity": 0.3858267716535433,
                    "duration": 0.6951689999999999
                },
                {
                    "name": "E5",
                    "midi": 76,
                    "time": 11.122704,
                    "velocity": 0.4566929133858268,
                    "duration": 0.34758449999999996
                },
                {
                    "name": "A5",
                    "midi": 81,
                    "time": 11.4702885,
                    "velocity": 0.41732283464566927,
                    "duration": 0.34758449999999996
                },
                {
                    "name": "A4",
                    "midi": 69,
                    "time": 11.817873,
                    "velocity": 0.3779527559055118,
                    "duration": 0.6951689999999999
                },
                {
                    "name": "D5",
                    "midi": 74,
                    "time": 11.817873,
                    "velocity": 0.3779527559055118,
                    "duration": 0.6951689999999999
                },
                {
                    "name": "F5",
                    "midi": 77,
                    "time": 11.817873,
                    "velocity": 0.44881889763779526,
                    "duration": 0.6951689999999999
                },
                {
                    "name": "A4",
                    "midi": 69,
                    "time": 12.513042,
                    "velocity": 0.3937007874015748,
                    "duration": 0.6951689999999999
                },
                {
                    "name": "C5",
                    "midi": 72,
                    "time": 12.513042,
                    "velocity": 0.4645669291338583,
                    "duration": 0.6951689999999999
                },
                {
                    "name": "E5",
                    "midi": 76,
                    "time": 12.513042,
                    "velocity": 0.4645669291338583,
                    "duration": 0.34758449999999996
                },
                {
                    "name": "A5",
                    "midi": 81,
                    "time": 12.8606265,
                    "velocity": 0.4330708661417323,
                    "duration": 0.34758449999999996
                },
                {
                    "name": "F4",
                    "midi": 65,
                    "time": 13.208211,
                    "velocity": 0.4015748031496063,
                    "duration": 0.6517209375000004
                },
                {
                    "name": "D5",
                    "midi": 74,
                    "time": 13.208211,
                    "velocity": 0.4015748031496063,
                    "duration": 0.6517209375000004
                },
                {
                    "name": "F5",
                    "midi": 77,
                    "time": 13.208211,
                    "velocity": 0.47244094488188976,
                    "duration": 0.6517209375000004
                },
                {
                    "name": "D4",
                    "midi": 62,
                    "time": 13.90338,
                    "velocity": 0.41732283464566927,
                    "duration": 0.6951689999999999
                },
                {
                    "name": "A#4",
                    "midi": 70,
                    "time": 13.90338,
                    "velocity": 0.41732283464566927,
                    "duration": 0.6951689999999999
                },
                {
                    "name": "D5",
                    "midi": 74,
                    "time": 13.90338,
                    "velocity": 0.49606299212598426,
                    "duration": 0.6951689999999999
                },
                {
                    "name": "E4",
                    "midi": 64,
                    "time": 14.598549,
                    "velocity": 0.3937007874015748,
                    "duration": 0.6951689999999999
                },
                {
                    "name": "G4",
                    "midi": 67,
                    "time": 14.598549,
                    "velocity": 0.3937007874015748,
                    "duration": 0.6951689999999999
                },
                {
                    "name": "E5",
                    "midi": 76,
                    "time": 14.598549,
                    "velocity": 0.4645669291338583,
                    "duration": 0.6951689999999999
                },
                {
                    "name": "F4",
                    "midi": 65,
                    "time": 15.293718,
                    "velocity": 0.4251968503937008,
                    "duration": 0.6951689999999999
                },
                {
                    "name": "A#4",
                    "midi": 70,
                    "time": 15.293718,
                    "velocity": 0.4251968503937008,
                    "duration": 0.6951689999999999
                },
                {
                    "name": "A#3",
                    "midi": 58,
                    "time": 15.293718,
                    "velocity": 0.3543307086614173,
                    "duration": 0.6951689999999999
                },
                {
                    "name": "A3",
                    "midi": 57,
                    "time": 15.988887,
                    "velocity": 0.3464566929133858,
                    "duration": 0.6517209375000004
                },
                {
                    "name": "A4",
                    "midi": 69,
                    "time": 15.988887,
                    "velocity": 0.4094488188976378,
                    "duration": 0.6517209375000004
                },
                {
                    "name": "E4",
                    "midi": 64,
                    "time": 15.988887,
                    "velocity": 0.3464566929133858,
                    "duration": 0.6517209375000004
                },
                {
                    "name": "C#4",
                    "midi": 61,
                    "time": 18.074394,
                    "velocity": 0.5196850393700787,
                    "duration": 1.3903379999999999
                },
                {
                    "name": "C#3",
                    "midi": 49,
                    "time": 18.074394,
                    "velocity": 0.4409448818897638,
                    "duration": 1.3903379999999999
                },
                {
                    "name": "G4",
                    "midi": 67,
                    "time": 19.464732,
                    "velocity": 0.5669291338582677,
                    "duration": 0.6951689999999999
                },
                {
                    "name": "G3",
                    "midi": 55,
                    "time": 19.464732,
                    "velocity": 0.48031496062992124,
                    "duration": 0.6951689999999999
                },
                {
                    "name": "E4",
                    "midi": 64,
                    "time": 20.159901,
                    "velocity": 0.5275590551181102,
                    "duration": 0.6951689999999999
                },
                {
                    "name": "E3",
                    "midi": 52,
                    "time": 20.159901,
                    "velocity": 0.4409448818897638,
                    "duration": 0.6951689999999999
                },
                {
                    "name": "A4",
                    "midi": 69,
                    "time": 20.85507,
                    "velocity": 0.5748031496062992,
                    "duration": 1.0427534999999999
                },
                {
                    "name": "A3",
                    "midi": 57,
                    "time": 20.85507,
                    "velocity": 0.4881889763779528,
                    "duration": 1.0427534999999999
                },
                {
                    "name": "A5",
                    "midi": 81,
                    "time": 22.245408,
                    "velocity": 0.5905511811023622,
                    "duration": 0.6951689999999999
                },
                {
                    "name": "A4",
                    "midi": 69,
                    "time": 22.245408,
                    "velocity": 0.49606299212598426,
                    "duration": 0.6951689999999999
                },
                {
                    "name": "A#4",
                    "midi": 70,
                    "time": 22.940577,
                    "velocity": 0.5196850393700787,
                    "duration": 0.6951689999999999
                },
                {
                    "name": "A#5",
                    "midi": 82,
                    "time": 22.940577,
                    "velocity": 0.6141732283464567,
                    "duration": 0.6951689999999999
                },
                {
                    "name": "A5",
                    "midi": 81,
                    "time": 23.635746,
                    "velocity": 0.5826771653543307,
                    "duration": 0.6951689999999999
                },
                {
                    "name": "A4",
                    "midi": 69,
                    "time": 23.635746,
                    "velocity": 0.4881889763779528,
                    "duration": 0.6951689999999999
                },
                {
                    "name": "G4",
                    "midi": 67,
                    "time": 24.330915,
                    "velocity": 0.49606299212598426,
                    "duration": 0.34758449999999996
                },
                {
                    "name": "G5",
                    "midi": 79,
                    "time": 24.330915,
                    "velocity": 0.5905511811023622,
                    "duration": 0.34758449999999996
                },
                {
                    "name": "F4",
                    "midi": 65,
                    "time": 24.6784995,
                    "velocity": 0.48031496062992124,
                    "duration": 0.34758449999999996
                },
                {
                    "name": "F5",
                    "midi": 77,
                    "time": 24.6784995,
                    "velocity": 0.5669291338582677,
                    "duration": 0.34758449999999996
                },
                {
                    "name": "A4",
                    "midi": 69,
                    "time": 25.026084,
                    "velocity": 0.48031496062992124,
                    "duration": 0.6951689999999999
                },
                {
                    "name": "A5",
                    "midi": 81,
                    "time": 25.026084,
                    "velocity": 0.5669291338582677,
                    "duration": 0.6951689999999999
                },
                {
                    "name": "A#4",
                    "midi": 70,
                    "time": 25.721253,
                    "velocity": 0.5196850393700787,
                    "duration": 0.6951689999999999
                },
                {
                    "name": "A#5",
                    "midi": 82,
                    "time": 25.721253,
                    "velocity": 0.6141732283464567,
                    "duration": 0.6951689999999999
                },
                {
                    "name": "E4",
                    "midi": 64,
                    "time": 26.416422,
                    "velocity": 0.48031496062992124,
                    "duration": 0.6951689999999999
                },
                {
                    "name": "E5",
                    "midi": 76,
                    "time": 26.416422,
                    "velocity": 0.5669291338582677,
                    "duration": 0.6951689999999999
                },
                {
                    "name": "A4",
                    "midi": 69,
                    "time": 27.111591,
                    "velocity": 0.48031496062992124,
                    "duration": 0.34758449999999996
                },
                {
                    "name": "A5",
                    "midi": 81,
                    "time": 27.111591,
                    "velocity": 0.5669291338582677,
                    "duration": 0.34758449999999996
                },
                {
                    "name": "A#4",
                    "midi": 70,
                    "time": 27.4591755,
                    "velocity": 0.4409448818897638,
                    "duration": 0.34758449999999996
                },
                {
                    "name": "A#5",
                    "midi": 82,
                    "time": 27.4591755,
                    "velocity": 0.5275590551181102,
                    "duration": 0.34758449999999996
                },
                {
                    "name": "E4",
                    "midi": 64,
                    "time": 27.80676,
                    "velocity": 0.4566929133858268,
                    "duration": 0.6951689999999999
                },
                {
                    "name": "E5",
                    "midi": 76,
                    "time": 27.80676,
                    "velocity": 0.5433070866141733,
                    "duration": 0.6951689999999999
                },
                {
                    "name": "A#4",
                    "midi": 70,
                    "time": 28.501929,
                    "velocity": 0.5669291338582677,
                    "duration": 0.34758449999999996
                },
                {
                    "name": "A#5",
                    "midi": 82,
                    "time": 28.501929,
                    "velocity": 0.5669291338582677,
                    "duration": 0.34758449999999996
                },
                {
                    "name": "C5",
                    "midi": 72,
                    "time": 28.8495135,
                    "velocity": 0.5196850393700787,
                    "duration": 0.34758449999999996
                },
                {
                    "name": "C6",
                    "midi": 84,
                    "time": 28.8495135,
                    "velocity": 0.5196850393700787,
                    "duration": 0.34758449999999996
                },
                {
                    "name": "A4",
                    "midi": 69,
                    "time": 29.197098,
                    "velocity": 0.5354330708661418,
                    "duration": 0.6517209374999986
                },
                {
                    "name": "A5",
                    "midi": 81,
                    "time": 29.197098,
                    "velocity": 0.5354330708661418,
                    "duration": 0.6517209374999986
                },
                {
                    "name": "A5",
                    "midi": 81,
                    "time": 29.892267,
                    "velocity": 0.6377952755905512,
                    "duration": 0.6951689999999999
                },
                {
                    "name": "A6",
                    "midi": 93,
                    "time": 29.892267,
                    "velocity": 0.6377952755905512,
                    "duration": 0.6951689999999999
                },
                {
                    "name": "F5",
                    "midi": 77,
                    "time": 30.587436,
                    "velocity": 0.6614173228346457,
                    "duration": 0.6951689999999999
                },
                {
                    "name": "F6",
                    "midi": 89,
                    "time": 30.587436,
                    "velocity": 0.6614173228346457,
                    "duration": 0.6951689999999999
                },
                {
                    "name": "E5",
                    "midi": 76,
                    "time": 31.282605,
                    "velocity": 0.5984251968503937,
                    "duration": 0.34758449999999996
                },
                {
                    "name": "E6",
                    "midi": 88,
                    "time": 31.282605,
                    "velocity": 0.5984251968503937,
                    "duration": 0.34758449999999996
                },
                {
                    "name": "D6",
                    "midi": 86,
                    "time": 31.6301895,
                    "velocity": 0.5590551181102362,
                    "duration": 0.34758449999999996
                },
                {
                    "name": "D5",
                    "midi": 74,
                    "time": 31.6301895,
                    "velocity": 0.5590551181102362,
                    "duration": 0.34758449999999996
                },
                {
                    "name": "A4",
                    "midi": 69,
                    "time": 31.977774,
                    "velocity": 0.49606299212598426,
                    "duration": 0.6951690000000035
                },
                {
                    "name": "A5",
                    "midi": 81,
                    "time": 31.977774,
                    "velocity": 0.49606299212598426,
                    "duration": 0.6951690000000035
                },
                {
                    "name": "A3",
                    "midi": 57,
                    "time": 33.368112,
                    "velocity": 0.3937007874015748,
                    "duration": 0.6951689999999999
                },
                {
                    "name": "A4",
                    "midi": 69,
                    "time": 34.063281,
                    "velocity": 0.3937007874015748,
                    "duration": 0.6082728749999973
                },
                {
                    "name": "D6",
                    "midi": 86,
                    "time": 34.671553875,
                    "velocity": 0.3700787401574803,
                    "duration": 0.08689612500000266
                },
                {
                    "name": "C6",
                    "midi": 84,
                    "time": 34.75845,
                    "velocity": 0.5354330708661418,
                    "duration": 0.08689612500000266
                },
                {
                    "name": "A5",
                    "midi": 81,
                    "time": 34.75845,
                    "velocity": 0.44881889763779526,
                    "duration": 0.08689612500000266
                },
                {
                    "name": "F5",
                    "midi": 77,
                    "time": 34.75845,
                    "velocity": 0.44881889763779526,
                    "duration": 0.08689612500000266
                },
                {
                    "name": "C#5",
                    "midi": 73,
                    "time": 35.10603450000001,
                    "velocity": 0.3937007874015748,
                    "duration": 0.08689612500000266
                },
                {
                    "name": "G#5",
                    "midi": 80,
                    "time": 35.10603450000001,
                    "velocity": 0.4645669291338583,
                    "duration": 0.08689612500000266
                },
                {
                    "name": "F5",
                    "midi": 77,
                    "time": 35.10603450000001,
                    "velocity": 0.3937007874015748,
                    "duration": 0.08689612500000266
                },
                {
                    "name": "A4",
                    "midi": 69,
                    "time": 36.14878800000001,
                    "velocity": 0.3543307086614173,
                    "duration": 0.6951689999999999
                },
                {
                    "name": "A5",
                    "midi": 81,
                    "time": 37.53912600000001,
                    "velocity": 0.28346456692913385,
                    "duration": 0.3475845000000035
                },
                {
                    "name": "D6",
                    "midi": 86,
                    "time": 38.147398875000015,
                    "velocity": 0.3543307086614173,
                    "duration": 0.08689612500000266
                },
                {
                    "name": "C6",
                    "midi": 84,
                    "time": 38.23429500000002,
                    "velocity": 0.3543307086614173,
                    "duration": 0.1737922499999982
                },
                {
                    "name": "A5",
                    "midi": 81,
                    "time": 38.23429500000002,
                    "velocity": 0.2992125984251969,
                    "duration": 0.1737922499999982
                },
                {
                    "name": "F5",
                    "midi": 77,
                    "time": 38.23429500000002,
                    "velocity": 0.2992125984251969,
                    "duration": 0.1737922499999982
                },
                {
                    "name": "C6",
                    "midi": 84,
                    "time": 38.842567875000015,
                    "velocity": 0.25984251968503935,
                    "duration": 0.08689612500000266
                },
                {
                    "name": "B5",
                    "midi": 83,
                    "time": 38.92946400000002,
                    "velocity": 0.31496062992125984,
                    "duration": 0.1737922499999982
                },
                {
                    "name": "G#5",
                    "midi": 80,
                    "time": 38.92946400000002,
                    "velocity": 0.2677165354330709,
                    "duration": 0.1737922499999982
                },
                {
                    "name": "F5",
                    "midi": 77,
                    "time": 38.92946400000002,
                    "velocity": 0.2677165354330709,
                    "duration": 0.1737922499999982
                },
                {
                    "name": "D6",
                    "midi": 86,
                    "time": 39.537736875000014,
                    "velocity": 0.31496062992125984,
                    "duration": 0.08689612500000266
                },
                {
                    "name": "C6",
                    "midi": 84,
                    "time": 39.62463300000002,
                    "velocity": 0.3543307086614173,
                    "duration": 0.1737922499999982
                },
                {
                    "name": "A5",
                    "midi": 81,
                    "time": 39.62463300000002,
                    "velocity": 0.2992125984251969,
                    "duration": 0.1737922499999982
                },
                {
                    "name": "F5",
                    "midi": 77,
                    "time": 39.62463300000002,
                    "velocity": 0.2992125984251969,
                    "duration": 0.1737922499999982
                },
                {
                    "name": "G#5",
                    "midi": 80,
                    "time": 40.31980200000002,
                    "velocity": 0.3543307086614173,
                    "duration": 0.1737922499999982
                },
                {
                    "name": "F5",
                    "midi": 77,
                    "time": 40.31980200000002,
                    "velocity": 0.2992125984251969,
                    "duration": 0.1737922499999982
                },
                {
                    "name": "C#5",
                    "midi": 73,
                    "time": 40.31980200000002,
                    "velocity": 0.2992125984251969,
                    "duration": 0.1737922499999982
                },
                {
                    "name": "D6",
                    "midi": 86,
                    "time": 40.58049037500002,
                    "velocity": 0.2440944881889764,
                    "duration": 0.08689612500000266
                },
                {
                    "name": "C6",
                    "midi": 84,
                    "time": 40.66738650000002,
                    "velocity": 0.29133858267716534,
                    "duration": 0.1737922499999982
                },
                {
                    "name": "A5",
                    "midi": 81,
                    "time": 40.66738650000002,
                    "velocity": 0.2440944881889764,
                    "duration": 0.1737922499999982
                },
                {
                    "name": "F5",
                    "midi": 77,
                    "time": 40.66738650000002,
                    "velocity": 0.2440944881889764,
                    "duration": 0.1737922499999982
                },
                {
                    "name": "D6",
                    "midi": 86,
                    "time": 40.92807487500002,
                    "velocity": 0.3543307086614173,
                    "duration": 0.08689612500000266
                },
                {
                    "name": "C6",
                    "midi": 84,
                    "time": 41.014971000000024,
                    "velocity": 0.3543307086614173,
                    "duration": 0.1737922499999982
                },
                {
                    "name": "A5",
                    "midi": 81,
                    "time": 41.014971000000024,
                    "velocity": 0.2992125984251969,
                    "duration": 0.1737922499999982
                },
                {
                    "name": "F5",
                    "midi": 77,
                    "time": 41.014971000000024,
                    "velocity": 0.2992125984251969,
                    "duration": 0.1737922499999982
                },
                {
                    "name": "C6",
                    "midi": 84,
                    "time": 41.62324387500002,
                    "velocity": 0.25984251968503935,
                    "duration": 0.08689612500000266
                },
                {
                    "name": "B5",
                    "midi": 83,
                    "time": 41.710140000000024,
                    "velocity": 0.31496062992125984,
                    "duration": 0.1737922499999982
                },
                {
                    "name": "G#5",
                    "midi": 80,
                    "time": 41.710140000000024,
                    "velocity": 0.2677165354330709,
                    "duration": 0.1737922499999982
                },
                {
                    "name": "F5",
                    "midi": 77,
                    "time": 41.710140000000024,
                    "velocity": 0.2677165354330709,
                    "duration": 0.1737922499999982
                },
                {
                    "name": "D6",
                    "midi": 86,
                    "time": 42.31841287500002,
                    "velocity": 0.31496062992125984,
                    "duration": 0.08689612500000266
                },
                {
                    "name": "C6",
                    "midi": 84,
                    "time": 42.405309000000024,
                    "velocity": 0.3543307086614173,
                    "duration": 0.1737922499999982
                },
                {
                    "name": "A5",
                    "midi": 81,
                    "time": 42.405309000000024,
                    "velocity": 0.2992125984251969,
                    "duration": 0.1737922499999982
                },
                {
                    "name": "F5",
                    "midi": 77,
                    "time": 42.405309000000024,
                    "velocity": 0.2992125984251969,
                    "duration": 0.1737922499999982
                },
                {
                    "name": "G#5",
                    "midi": 80,
                    "time": 43.100478000000024,
                    "velocity": 0.3543307086614173,
                    "duration": 0.1737922499999982
                },
                {
                    "name": "F5",
                    "midi": 77,
                    "time": 43.100478000000024,
                    "velocity": 0.2992125984251969,
                    "duration": 0.1737922499999982
                },
                {
                    "name": "C#5",
                    "midi": 73,
                    "time": 43.100478000000024,
                    "velocity": 0.2992125984251969,
                    "duration": 0.1737922499999982
                },
                {
                    "name": "F#4",
                    "midi": 66,
                    "time": 44.056335375000025,
                    "velocity": 0.25196850393700787,
                    "duration": 0.08689612500000266
                },
                {
                    "name": "G4",
                    "midi": 67,
                    "time": 44.14323150000003,
                    "velocity": 0.25196850393700787,
                    "duration": 0.1737922499999982
                },
                {
                    "name": "E4",
                    "midi": 64,
                    "time": 44.14323150000003,
                    "velocity": 0.2125984251968504,
                    "duration": 0.1737922499999982
                },
                {
                    "name": "A4",
                    "midi": 69,
                    "time": 44.751504375000025,
                    "velocity": 0.25196850393700787,
                    "duration": 0.08689612500000266
                },
                {
                    "name": "A#4",
                    "midi": 70,
                    "time": 44.83840050000003,
                    "velocity": 0.25984251968503935,
                    "duration": 0.1737922499999982
                },
                {
                    "name": "G4",
                    "midi": 67,
                    "time": 44.83840050000003,
                    "velocity": 0.2204724409448819,
                    "duration": 0.1737922499999982
                },
                {
                    "name": "B4",
                    "midi": 71,
                    "time": 45.446673375000024,
                    "velocity": 0.25196850393700787,
                    "duration": 0.08689612500000266
                },
                {
                    "name": "G#4",
                    "midi": 68,
                    "time": 45.53356950000003,
                    "velocity": 0.2283464566929134,
                    "duration": 0.1737922499999982
                },
                {
                    "name": "C5",
                    "midi": 72,
                    "time": 45.53356950000003,
                    "velocity": 0.2755905511811024,
                    "duration": 0.1737922499999982
                },
                {
                    "name": "D5",
                    "midi": 74,
                    "time": 46.141842375000024,
                    "velocity": 0.25196850393700787,
                    "duration": 0.08689612500000266
                },
                {
                    "name": "D#5",
                    "midi": 75,
                    "time": 46.22873850000003,
                    "velocity": 0.29133858267716534,
                    "duration": 0.1737922499999982
                },
                {
                    "name": "C5",
                    "midi": 72,
                    "time": 46.22873850000003,
                    "velocity": 0.2440944881889764,
                    "duration": 0.1737922499999982
                },
                {
                    "name": "F5",
                    "midi": 77,
                    "time": 46.837011375000024,
                    "velocity": 0.25196850393700787,
                    "duration": 0.08689612500000266
                },
                {
                    "name": "F#5",
                    "midi": 78,
                    "time": 46.92390750000003,
                    "velocity": 0.30708661417322836,
                    "duration": 0.1737922499999982
                },
                {
                    "name": "D#5",
                    "midi": 75,
                    "time": 46.92390750000003,
                    "velocity": 0.25984251968503935,
                    "duration": 0.1737922499999982
                },
                {
                    "name": "A5",
                    "midi": 81,
                    "time": 47.532180375000024,
                    "velocity": 0.25196850393700787,
                    "duration": 0.08689612500000266
                },
                {
                    "name": "A#5",
                    "midi": 82,
                    "time": 47.61907650000003,
                    "velocity": 0.31496062992125984,
                    "duration": 0.1737922499999982
                },
                {
                    "name": "F#5",
                    "midi": 78,
                    "time": 47.61907650000003,
                    "velocity": 0.2677165354330709,
                    "duration": 0.1737922499999982
                },
                {
                    "name": "D6",
                    "midi": 86,
                    "time": 48.227349375000024,
                    "velocity": 0.25196850393700787,
                    "duration": 0.08689612500000266
                },
                {
                    "name": "D#6",
                    "midi": 87,
                    "time": 48.31424550000003,
                    "velocity": 0.30708661417322836,
                    "duration": 0.1737922499999982
                },
                {
                    "name": "A#5",
                    "midi": 82,
                    "time": 48.31424550000003,
                    "velocity": 0.25984251968503935,
                    "duration": 0.1737922499999982
                },
                {
                    "name": "G5",
                    "midi": 79,
                    "time": 48.31424550000003,
                    "velocity": 0.25984251968503935,
                    "duration": 0.1737922499999982
                },
                {
                    "name": "A6",
                    "midi": 93,
                    "time": 48.922518375000024,
                    "velocity": 0.25196850393700787,
                    "duration": 0.08689612500000266
                },
                {
                    "name": "G6",
                    "midi": 91,
                    "time": 49.00941450000003,
                    "velocity": 0.30708661417322836,
                    "duration": 0.1737922499999982
                },
                {
                    "name": "E6",
                    "midi": 88,
                    "time": 49.00941450000003,
                    "velocity": 0.25984251968503935,
                    "duration": 0.1737922499999982
                },
                {
                    "name": "C6",
                    "midi": 84,
                    "time": 49.00941450000003,
                    "velocity": 0.25984251968503935,
                    "duration": 0.1737922499999982
                },
                {
                    "name": "D6",
                    "midi": 86,
                    "time": 49.27010287500003,
                    "velocity": 0.3543307086614173,
                    "duration": 0.08689612500000266
                },
                {
                    "name": "C6",
                    "midi": 84,
                    "time": 49.35699900000003,
                    "velocity": 0.3543307086614173,
                    "duration": 0.1737922499999982
                },
                {
                    "name": "A5",
                    "midi": 81,
                    "time": 49.35699900000003,
                    "velocity": 0.2992125984251969,
                    "duration": 0.1737922499999982
                },
                {
                    "name": "F5",
                    "midi": 77,
                    "time": 49.35699900000003,
                    "velocity": 0.2992125984251969,
                    "duration": 0.1737922499999982
                },
                {
                    "name": "C6",
                    "midi": 84,
                    "time": 49.96527187500003,
                    "velocity": 0.25984251968503935,
                    "duration": 0.08689612500000266
                },
                {
                    "name": "B5",
                    "midi": 83,
                    "time": 50.05216800000003,
                    "velocity": 0.31496062992125984,
                    "duration": 0.1737922499999982
                },
                {
                    "name": "G#5",
                    "midi": 80,
                    "time": 50.05216800000003,
                    "velocity": 0.2677165354330709,
                    "duration": 0.1737922499999982
                },
                {
                    "name": "F5",
                    "midi": 77,
                    "time": 50.05216800000003,
                    "velocity": 0.2677165354330709,
                    "duration": 0.1737922499999982
                },
                {
                    "name": "D6",
                    "midi": 86,
                    "time": 50.66044087500003,
                    "velocity": 0.31496062992125984,
                    "duration": 0.08689612500000266
                },
                {
                    "name": "C6",
                    "midi": 84,
                    "time": 50.74733700000003,
                    "velocity": 0.3543307086614173,
                    "duration": 0.1737922499999982
                },
                {
                    "name": "A5",
                    "midi": 81,
                    "time": 50.74733700000003,
                    "velocity": 0.2992125984251969,
                    "duration": 0.1737922499999982
                },
                {
                    "name": "F5",
                    "midi": 77,
                    "time": 50.74733700000003,
                    "velocity": 0.2992125984251969,
                    "duration": 0.1737922499999982
                },
                {
                    "name": "C6",
                    "midi": 84,
                    "time": 51.35560987500003,
                    "velocity": 0.25984251968503935,
                    "duration": 0.08689612500000266
                },
                {
                    "name": "G#5",
                    "midi": 80,
                    "time": 51.44250600000003,
                    "velocity": 0.2992125984251969,
                    "duration": 0.1737922499999982
                },
                {
                    "name": "F5",
                    "midi": 77,
                    "time": 51.44250600000003,
                    "velocity": 0.2992125984251969,
                    "duration": 0.1737922499999982
                },
                {
                    "name": "B5",
                    "midi": 83,
                    "time": 51.44250600000003,
                    "velocity": 0.3543307086614173,
                    "duration": 0.1737922499999982
                },
                {
                    "name": "D6",
                    "midi": 86,
                    "time": 51.70319437500003,
                    "velocity": 0.2440944881889764,
                    "duration": 0.08689612500000266
                },
                {
                    "name": "C6",
                    "midi": 84,
                    "time": 51.790090500000034,
                    "velocity": 0.29133858267716534,
                    "duration": 0.1737922499999982
                },
                {
                    "name": "A5",
                    "midi": 81,
                    "time": 51.790090500000034,
                    "velocity": 0.2440944881889764,
                    "duration": 0.1737922499999982
                },
                {
                    "name": "F5",
                    "midi": 77,
                    "time": 51.790090500000034,
                    "velocity": 0.2440944881889764,
                    "duration": 0.1737922499999982
                },
                {
                    "name": "D6",
                    "midi": 86,
                    "time": 52.050778875000034,
                    "velocity": 0.3543307086614173,
                    "duration": 0.08689612500000266
                },
                {
                    "name": "C6",
                    "midi": 84,
                    "time": 52.13767500000004,
                    "velocity": 0.3543307086614173,
                    "duration": 0.1737922499999982
                },
                {
                    "name": "A5",
                    "midi": 81,
                    "time": 52.13767500000004,
                    "velocity": 0.2992125984251969,
                    "duration": 0.1737922499999982
                },
                {
                    "name": "F5",
                    "midi": 77,
                    "time": 52.13767500000004,
                    "velocity": 0.2992125984251969,
                    "duration": 0.1737922499999982
                },
                {
                    "name": "C6",
                    "midi": 84,
                    "time": 52.745947875000034,
                    "velocity": 0.25984251968503935,
                    "duration": 0.08689612500000266
                },
                {
                    "name": "B5",
                    "midi": 83,
                    "time": 52.83284400000004,
                    "velocity": 0.31496062992125984,
                    "duration": 0.1737922499999982
                },
                {
                    "name": "G#5",
                    "midi": 80,
                    "time": 52.83284400000004,
                    "velocity": 0.2677165354330709,
                    "duration": 0.1737922499999982
                },
                {
                    "name": "F5",
                    "midi": 77,
                    "time": 52.83284400000004,
                    "velocity": 0.2677165354330709,
                    "duration": 0.1737922499999982
                },
                {
                    "name": "D6",
                    "midi": 86,
                    "time": 53.441116875000034,
                    "velocity": 0.31496062992125984,
                    "duration": 0.08689612500000266
                },
                {
                    "name": "C6",
                    "midi": 84,
                    "time": 53.52801300000004,
                    "velocity": 0.3543307086614173,
                    "duration": 0.1737922499999982
                },
                {
                    "name": "A5",
                    "midi": 81,
                    "time": 53.52801300000004,
                    "velocity": 0.2992125984251969,
                    "duration": 0.1737922499999982
                },
                {
                    "name": "F5",
                    "midi": 77,
                    "time": 53.52801300000004,
                    "velocity": 0.2992125984251969,
                    "duration": 0.1737922499999982
                },
                {
                    "name": "G#5",
                    "midi": 80,
                    "time": 54.22318200000004,
                    "velocity": 0.3543307086614173,
                    "duration": 0.1737922499999982
                },
                {
                    "name": "F5",
                    "midi": 77,
                    "time": 54.22318200000004,
                    "velocity": 0.2992125984251969,
                    "duration": 0.1737922499999982
                },
                {
                    "name": "C#5",
                    "midi": 73,
                    "time": 54.22318200000004,
                    "velocity": 0.2992125984251969,
                    "duration": 0.1737922499999982
                },
                {
                    "name": "A#4",
                    "midi": 70,
                    "time": 55.17903937500004,
                    "velocity": 0.25196850393700787,
                    "duration": 0.08689612500000266
                },
                {
                    "name": "B4",
                    "midi": 71,
                    "time": 55.26593550000004,
                    "velocity": 0.25196850393700787,
                    "duration": 0.1737922499999982
                },
                {
                    "name": "G#4",
                    "midi": 68,
                    "time": 55.26593550000004,
                    "velocity": 0.2125984251968504,
                    "duration": 0.1737922499999982
                },
                {
                    "name": "C5",
                    "midi": 72,
                    "time": 55.87420837500004,
                    "velocity": 0.25196850393700787,
                    "duration": 0.08689612500000266
                },
                {
                    "name": "C#5",
                    "midi": 73,
                    "time": 55.96110450000004,
                    "velocity": 0.25984251968503935,
                    "duration": 0.1737922499999982
                },
                {
                    "name": "A4",
                    "midi": 69,
                    "time": 55.96110450000004,
                    "velocity": 0.2204724409448819,
                    "duration": 0.1737922499999982
                },
                {
                    "name": "D#5",
                    "midi": 75,
                    "time": 56.56937737500004,
                    "velocity": 0.25196850393700787,
                    "duration": 0.08689612500000266
                },
                {
                    "name": "C#5",
                    "midi": 73,
                    "time": 56.65627350000004,
                    "velocity": 0.2283464566929134,
                    "duration": 0.1737922499999982
                },
                {
                    "name": "E5",
                    "midi": 76,
                    "time": 56.65627350000004,
                    "velocity": 0.2755905511811024,
                    "duration": 0.1737922499999982
                },
                {
                    "name": "F5",
                    "midi": 77,
                    "time": 57.26454637500004,
                    "velocity": 0.25196850393700787,
                    "duration": 0.08689612500000266
                },
                {
                    "name": "F#5",
                    "midi": 78,
                    "time": 57.35144250000004,
                    "velocity": 0.29133858267716534,
                    "duration": 0.1737922499999982
                },
                {
                    "name": "D5",
                    "midi": 74,
                    "time": 57.35144250000004,
                    "velocity": 0.2440944881889764,
                    "duration": 0.1737922499999982
                },
                {
                    "name": "C5",
                    "midi": 72,
                    "time": 57.95971537500004,
                    "velocity": 0.25196850393700787,
                    "duration": 0.08689612500000266
                },
                {
                    "name": "C#5",
                    "midi": 73,
                    "time": 58.04661150000004,
                    "velocity": 0.25196850393700787,
                    "duration": 0.1737922499999982
                },
                {
                    "name": "A#4",
                    "midi": 70,
                    "time": 58.04661150000004,
                    "velocity": 0.2125984251968504,
                    "duration": 0.1737922499999982
                },
                {
                    "name": "D5",
                    "midi": 74,
                    "time": 58.65488437500004,
                    "velocity": 0.25196850393700787,
                    "duration": 0.08689612500000266
                },
                {
                    "name": "D#5",
                    "midi": 75,
                    "time": 58.74178050000004,
                    "velocity": 0.25984251968503935,
                    "duration": 0.1737922499999982
                },
                {
                    "name": "B4",
                    "midi": 71,
                    "time": 58.74178050000004,
                    "velocity": 0.2440944881889764,
                    "duration": 0.1737922499999982
                },
                {
                    "name": "E5",
                    "midi": 76,
                    "time": 59.35005337500004,
                    "velocity": 0.25196850393700787,
                    "duration": 0.08689612500000266
                },
                {
                    "name": "C#5",
                    "midi": 73,
                    "time": 59.43694950000004,
                    "velocity": 0.2283464566929134,
                    "duration": 0.1737922499999982
                },
                {
                    "name": "F5",
                    "midi": 77,
                    "time": 59.43694950000004,
                    "velocity": 0.2755905511811024,
                    "duration": 0.1737922499999982
                },
                {
                    "name": "G5",
                    "midi": 79,
                    "time": 60.04522237500004,
                    "velocity": 0.25196850393700787,
                    "duration": 0.08689612500000266
                },
                {
                    "name": "G#5",
                    "midi": 80,
                    "time": 60.13211850000004,
                    "velocity": 0.29133858267716534,
                    "duration": 0.1737922499999982
                },
                {
                    "name": "E5",
                    "midi": 76,
                    "time": 60.13211850000004,
                    "velocity": 0.2440944881889764,
                    "duration": 0.1737922499999982
                },
                {
                    "name": "A6",
                    "midi": 93,
                    "time": 60.39280687500004,
                    "velocity": 0.4330708661417323,
                    "duration": 0.08689612500000266
                },
                {
                    "name": "A#6",
                    "midi": 94,
                    "time": 60.47970300000004,
                    "velocity": 0.49606299212598426,
                    "duration": 0.1737922499999982
                },
                {
                    "name": "F#6",
                    "midi": 90,
                    "time": 60.47970300000004,
                    "velocity": 0.41732283464566927,
                    "duration": 0.1737922499999982
                },
                {
                    "name": "G#6",
                    "midi": 92,
                    "time": 61.08797587500004,
                    "velocity": 0.4015748031496063,
                    "duration": 0.08689612500000266
                },
                {
                    "name": "A6",
                    "midi": 93,
                    "time": 61.17487200000004,
                    "velocity": 0.4409448818897638,
                    "duration": 0.1737922499999982
                },
                {
                    "name": "F6",
                    "midi": 89,
                    "time": 61.17487200000004,
                    "velocity": 0.3700787401574803,
                    "duration": 0.1737922499999982
                },
                {
                    "name": "A#5",
                    "midi": 82,
                    "time": 61.78314487500004,
                    "velocity": 0.3937007874015748,
                    "duration": 0.08689612500000266
                },
                {
                    "name": "B5",
                    "midi": 83,
                    "time": 61.87004100000004,
                    "velocity": 0.4330708661417323,
                    "duration": 0.1737922499999982
                },
                {
                    "name": "A5",
                    "midi": 81,
                    "time": 61.87004100000004,
                    "velocity": 0.36220472440944884,
                    "duration": 0.1737922499999982
                },
                {
                    "name": "A#5",
                    "midi": 82,
                    "time": 62.47831387500004,
                    "velocity": 0.3700787401574803,
                    "duration": 0.08689612500000266
                },
                {
                    "name": "C6",
                    "midi": 84,
                    "time": 62.56521000000004,
                    "velocity": 0.4094488188976378,
                    "duration": 0.1737922499999982
                },
                {
                    "name": "G5",
                    "midi": 79,
                    "time": 62.56521000000004,
                    "velocity": 0.3464566929133858,
                    "duration": 0.1737922499999982
                },
                {
                    "name": "E6",
                    "midi": 88,
                    "time": 63.17348287500004,
                    "velocity": 0.41732283464566927,
                    "duration": 0.08689612500000266
                },
                {
                    "name": "F6",
                    "midi": 89,
                    "time": 63.26037900000004,
                    "velocity": 0.44881889763779526,
                    "duration": 0.1737922499999982
                },
                {
                    "name": "C#6",
                    "midi": 85,
                    "time": 63.26037900000004,
                    "velocity": 0.3779527559055118,
                    "duration": 0.1737922499999982
                },
                {
                    "name": "C#6",
                    "midi": 85,
                    "time": 63.86865187500004,
                    "velocity": 0.4015748031496063,
                    "duration": 0.08689612500000266
                },
                {
                    "name": "A#5",
                    "midi": 82,
                    "time": 63.95554800000004,
                    "velocity": 0.3543307086614173,
                    "duration": 0.1737922499999982
                },
                {
                    "name": "D6",
                    "midi": 86,
                    "time": 63.95554800000004,
                    "velocity": 0.4251968503937008,
                    "duration": 0.1737922499999982
                },
                {
                    "name": "E5",
                    "midi": 76,
                    "time": 64.56382087500005,
                    "velocity": 0.4330708661417323,
                    "duration": 0.08689612499999555
                },
                {
                    "name": "C#5",
                    "midi": 73,
                    "time": 64.65071700000004,
                    "velocity": 0.4015748031496063,
                    "duration": 0.1737922500000053
                },
                {
                    "name": "F5",
                    "midi": 77,
                    "time": 64.65071700000004,
                    "velocity": 0.47244094488188976,
                    "duration": 0.1737922500000053
                },
                {
                    "name": "F#5",
                    "midi": 78,
                    "time": 65.25898987500005,
                    "velocity": 0.41732283464566927,
                    "duration": 0.08689612499999555
                },
                {
                    "name": "G5",
                    "midi": 79,
                    "time": 65.34588600000005,
                    "velocity": 0.44881889763779526,
                    "duration": 0.1737922500000053
                },
                {
                    "name": "E5",
                    "midi": 76,
                    "time": 65.34588600000005,
                    "velocity": 0.3779527559055118,
                    "duration": 0.1737922500000053
                },
                {
                    "name": "C#6",
                    "midi": 85,
                    "time": 66.04105500000006,
                    "velocity": 0.6220472440944882,
                    "duration": 1.7379224999999963
                },
                {
                    "name": "C6",
                    "midi": 84,
                    "time": 68.03966587500005,
                    "velocity": 0.4645669291338583,
                    "duration": 0.08689612499999555
                },
                {
                    "name": "C5",
                    "midi": 72,
                    "time": 68.12656200000005,
                    "velocity": 0.5905511811023622,
                    "duration": 0.1737922500000053
                },
                {
                    "name": "D6",
                    "midi": 86,
                    "time": 68.73483487500006,
                    "velocity": 0.3543307086614173,
                    "duration": 0.08689612499999555
                },
                {
                    "name": "C6",
                    "midi": 84,
                    "time": 68.82173100000006,
                    "velocity": 0.3543307086614173,
                    "duration": 0.1737922500000053
                },
                {
                    "name": "A5",
                    "midi": 81,
                    "time": 68.82173100000006,
                    "velocity": 0.2992125984251969,
                    "duration": 0.1737922500000053
                },
                {
                    "name": "F5",
                    "midi": 77,
                    "time": 68.82173100000006,
                    "velocity": 0.2992125984251969,
                    "duration": 0.1737922500000053
                },
                {
                    "name": "C6",
                    "midi": 84,
                    "time": 69.43000387500007,
                    "velocity": 0.25984251968503935,
                    "duration": 0.08689612499999555
                },
                {
                    "name": "B5",
                    "midi": 83,
                    "time": 69.51690000000006,
                    "velocity": 0.31496062992125984,
                    "duration": 0.1737922500000053
                },
                {
                    "name": "G#5",
                    "midi": 80,
                    "time": 69.51690000000006,
                    "velocity": 0.2677165354330709,
                    "duration": 0.1737922500000053
                },
                {
                    "name": "F5",
                    "midi": 77,
                    "time": 69.51690000000006,
                    "velocity": 0.2677165354330709,
                    "duration": 0.1737922500000053
                },
                {
                    "name": "D6",
                    "midi": 86,
                    "time": 70.12517287500008,
                    "velocity": 0.31496062992125984,
                    "duration": 0.08689612499999555
                },
                {
                    "name": "C6",
                    "midi": 84,
                    "time": 70.21206900000007,
                    "velocity": 0.3543307086614173,
                    "duration": 0.1737922500000053
                },
                {
                    "name": "A5",
                    "midi": 81,
                    "time": 70.21206900000007,
                    "velocity": 0.2992125984251969,
                    "duration": 0.1737922500000053
                },
                {
                    "name": "F5",
                    "midi": 77,
                    "time": 70.21206900000007,
                    "velocity": 0.2992125984251969,
                    "duration": 0.1737922500000053
                },
                {
                    "name": "G#5",
                    "midi": 80,
                    "time": 70.90723800000008,
                    "velocity": 0.3543307086614173,
                    "duration": 0.1737922500000053
                },
                {
                    "name": "F5",
                    "midi": 77,
                    "time": 70.90723800000008,
                    "velocity": 0.2992125984251969,
                    "duration": 0.1737922500000053
                },
                {
                    "name": "C#5",
                    "midi": 73,
                    "time": 70.90723800000008,
                    "velocity": 0.2992125984251969,
                    "duration": 0.1737922500000053
                },
                {
                    "name": "D6",
                    "midi": 86,
                    "time": 71.16792637500008,
                    "velocity": 0.2440944881889764,
                    "duration": 0.08689612499999555
                },
                {
                    "name": "C6",
                    "midi": 84,
                    "time": 71.25482250000007,
                    "velocity": 0.29133858267716534,
                    "duration": 0.1737922500000053
                },
                {
                    "name": "A5",
                    "midi": 81,
                    "time": 71.25482250000007,
                    "velocity": 0.2440944881889764,
                    "duration": 0.1737922500000053
                },
                {
                    "name": "F5",
                    "midi": 77,
                    "time": 71.25482250000007,
                    "velocity": 0.2440944881889764,
                    "duration": 0.1737922500000053
                },
                {
                    "name": "D6",
                    "midi": 86,
                    "time": 71.51551087500007,
                    "velocity": 0.3543307086614173,
                    "duration": 0.08689612499999555
                },
                {
                    "name": "C6",
                    "midi": 84,
                    "time": 71.60240700000007,
                    "velocity": 0.3543307086614173,
                    "duration": 0.1737922500000053
                },
                {
                    "name": "A5",
                    "midi": 81,
                    "time": 71.60240700000007,
                    "velocity": 0.2992125984251969,
                    "duration": 0.1737922500000053
                },
                {
                    "name": "F5",
                    "midi": 77,
                    "time": 71.60240700000007,
                    "velocity": 0.2992125984251969,
                    "duration": 0.1737922500000053
                },
                {
                    "name": "C6",
                    "midi": 84,
                    "time": 72.21067987500008,
                    "velocity": 0.25984251968503935,
                    "duration": 0.08689612499999555
                },
                {
                    "name": "B5",
                    "midi": 83,
                    "time": 72.29757600000008,
                    "velocity": 0.31496062992125984,
                    "duration": 0.1737922500000053
                },
                {
                    "name": "G#5",
                    "midi": 80,
                    "time": 72.29757600000008,
                    "velocity": 0.2677165354330709,
                    "duration": 0.1737922500000053
                },
                {
                    "name": "F5",
                    "midi": 77,
                    "time": 72.29757600000008,
                    "velocity": 0.2677165354330709,
                    "duration": 0.1737922500000053
                },
                {
                    "name": "D6",
                    "midi": 86,
                    "time": 72.90584887500009,
                    "velocity": 0.31496062992125984,
                    "duration": 0.08689612499999555
                },
                {
                    "name": "C6",
                    "midi": 84,
                    "time": 72.99274500000008,
                    "velocity": 0.3543307086614173,
                    "duration": 0.1737922500000053
                },
                {
                    "name": "A5",
                    "midi": 81,
                    "time": 72.99274500000008,
                    "velocity": 0.2992125984251969,
                    "duration": 0.1737922500000053
                },
                {
                    "name": "F5",
                    "midi": 77,
                    "time": 72.99274500000008,
                    "velocity": 0.2992125984251969,
                    "duration": 0.1737922500000053
                },
                {
                    "name": "G#5",
                    "midi": 80,
                    "time": 73.68791400000009,
                    "velocity": 0.3543307086614173,
                    "duration": 0.1737922500000053
                },
                {
                    "name": "F5",
                    "midi": 77,
                    "time": 73.68791400000009,
                    "velocity": 0.2992125984251969,
                    "duration": 0.1737922500000053
                },
                {
                    "name": "C#5",
                    "midi": 73,
                    "time": 73.68791400000009,
                    "velocity": 0.2992125984251969,
                    "duration": 0.1737922500000053
                },
                {
                    "name": "F#4",
                    "midi": 66,
                    "time": 74.6437713750001,
                    "velocity": 0.25196850393700787,
                    "duration": 0.08689612499999555
                },
                {
                    "name": "G4",
                    "midi": 67,
                    "time": 74.7306675000001,
                    "velocity": 0.25196850393700787,
                    "duration": 0.1737922500000053
                },
                {
                    "name": "E4",
                    "midi": 64,
                    "time": 74.7306675000001,
                    "velocity": 0.2125984251968504,
                    "duration": 0.1737922500000053
                },
                {
                    "name": "A4",
                    "midi": 69,
                    "time": 75.3389403750001,
                    "velocity": 0.25196850393700787,
                    "duration": 0.08689612499999555
                },
                {
                    "name": "A#4",
                    "midi": 70,
                    "time": 75.4258365000001,
                    "velocity": 0.25984251968503935,
                    "duration": 0.1737922500000053
                },
                {
                    "name": "G4",
                    "midi": 67,
                    "time": 75.4258365000001,
                    "velocity": 0.2204724409448819,
                    "duration": 0.1737922500000053
                },
                {
                    "name": "B4",
                    "midi": 71,
                    "time": 76.03410937500011,
                    "velocity": 0.25196850393700787,
                    "duration": 0.08689612499999555
                },
                {
                    "name": "G#4",
                    "midi": 68,
                    "time": 76.12100550000011,
                    "velocity": 0.2283464566929134,
                    "duration": 0.1737922500000053
                },
                {
                    "name": "C5",
                    "midi": 72,
                    "time": 76.12100550000011,
                    "velocity": 0.2755905511811024,
                    "duration": 0.1737922500000053
                },
                {
                    "name": "D5",
                    "midi": 74,
                    "time": 76.72927837500012,
                    "velocity": 0.25196850393700787,
                    "duration": 0.08689612499999555
                },
                {
                    "name": "D#5",
                    "midi": 75,
                    "time": 76.81617450000012,
                    "velocity": 0.29133858267716534,
                    "duration": 0.1737922500000053
                },
                {
                    "name": "C5",
                    "midi": 72,
                    "time": 76.81617450000012,
                    "velocity": 0.25196850393700787,
                    "duration": 0.1737922500000053
                },
                {
                    "name": "F5",
                    "midi": 77,
                    "time": 77.42444737500013,
                    "velocity": 0.25196850393700787,
                    "duration": 0.08689612499999555
                },
                {
                    "name": "F#5",
                    "midi": 78,
                    "time": 77.51134350000012,
                    "velocity": 0.30708661417322836,
                    "duration": 0.1737922500000053
                },
                {
                    "name": "D#5",
                    "midi": 75,
                    "time": 77.51134350000012,
                    "velocity": 0.25984251968503935,
                    "duration": 0.1737922500000053
                },
                {
                    "name": "A5",
                    "midi": 81,
                    "time": 78.11961637500013,
                    "velocity": 0.25196850393700787,
                    "duration": 0.08689612499999555
                },
                {
                    "name": "A#5",
                    "midi": 82,
                    "time": 78.20651250000013,
                    "velocity": 0.31496062992125984,
                    "duration": 0.1737922500000053
                },
                {
                    "name": "F#5",
                    "midi": 78,
                    "time": 78.20651250000013,
                    "velocity": 0.2677165354330709,
                    "duration": 0.1737922500000053
                },
                {
                    "name": "D6",
                    "midi": 86,
                    "time": 78.81478537500014,
                    "velocity": 0.25196850393700787,
                    "duration": 0.08689612499999555
                },
                {
                    "name": "D#6",
                    "midi": 87,
                    "time": 78.90168150000014,
                    "velocity": 0.30708661417322836,
                    "duration": 0.1737922500000053
                },
                {
                    "name": "A#5",
                    "midi": 82,
                    "time": 78.90168150000014,
                    "velocity": 0.25984251968503935,
                    "duration": 0.1737922500000053
                },
                {
                    "name": "G5",
                    "midi": 79,
                    "time": 78.90168150000014,
                    "velocity": 0.25984251968503935,
                    "duration": 0.1737922500000053
                },
                {
                    "name": "A6",
                    "midi": 93,
                    "time": 79.50995437500015,
                    "velocity": 0.25196850393700787,
                    "duration": 0.08689612499999555
                },
                {
                    "name": "G6",
                    "midi": 91,
                    "time": 79.59685050000014,
                    "velocity": 0.30708661417322836,
                    "duration": 0.1737922500000053
                },
                {
                    "name": "E6",
                    "midi": 88,
                    "time": 79.59685050000014,
                    "velocity": 0.25984251968503935,
                    "duration": 0.1737922500000053
                },
                {
                    "name": "C6",
                    "midi": 84,
                    "time": 79.59685050000014,
                    "velocity": 0.25984251968503935,
                    "duration": 0.1737922500000053
                },
                {
                    "name": "D6",
                    "midi": 86,
                    "time": 79.85753887500015,
                    "velocity": 0.3543307086614173,
                    "duration": 0.08689612499999555
                },
                {
                    "name": "C6",
                    "midi": 84,
                    "time": 79.94443500000014,
                    "velocity": 0.3543307086614173,
                    "duration": 0.1737922500000053
                },
                {
                    "name": "A5",
                    "midi": 81,
                    "time": 79.94443500000014,
                    "velocity": 0.2992125984251969,
                    "duration": 0.1737922500000053
                },
                {
                    "name": "F5",
                    "midi": 77,
                    "time": 79.94443500000014,
                    "velocity": 0.2992125984251969,
                    "duration": 0.1737922500000053
                },
                {
                    "name": "C6",
                    "midi": 84,
                    "time": 80.55270787500015,
                    "velocity": 0.25984251968503935,
                    "duration": 0.08689612499999555
                },
                {
                    "name": "B5",
                    "midi": 83,
                    "time": 80.63960400000015,
                    "velocity": 0.31496062992125984,
                    "duration": 0.1737922500000053
                },
                {
                    "name": "G#5",
                    "midi": 80,
                    "time": 80.63960400000015,
                    "velocity": 0.2677165354330709,
                    "duration": 0.1737922500000053
                },
                {
                    "name": "F5",
                    "midi": 77,
                    "time": 80.63960400000015,
                    "velocity": 0.2677165354330709,
                    "duration": 0.1737922500000053
                },
                {
                    "name": "D6",
                    "midi": 86,
                    "time": 81.24787687500016,
                    "velocity": 0.31496062992125984,
                    "duration": 0.08689612499999555
                },
                {
                    "name": "C6",
                    "midi": 84,
                    "time": 81.33477300000015,
                    "velocity": 0.3543307086614173,
                    "duration": 0.1737922500000053
                },
                {
                    "name": "A5",
                    "midi": 81,
                    "time": 81.33477300000015,
                    "velocity": 0.2992125984251969,
                    "duration": 0.1737922500000053
                },
                {
                    "name": "F5",
                    "midi": 77,
                    "time": 81.33477300000015,
                    "velocity": 0.2992125984251969,
                    "duration": 0.1737922500000053
                },
                {
                    "name": "C6",
                    "midi": 84,
                    "time": 81.94304587500017,
                    "velocity": 0.25984251968503935,
                    "duration": 0.08689612499999555
                },
                {
                    "name": "G#5",
                    "midi": 80,
                    "time": 82.02994200000016,
                    "velocity": 0.2992125984251969,
                    "duration": 0.1737922500000053
                },
                {
                    "name": "F5",
                    "midi": 77,
                    "time": 82.02994200000016,
                    "velocity": 0.2992125984251969,
                    "duration": 0.1737922500000053
                },
                {
                    "name": "B5",
                    "midi": 83,
                    "time": 82.02994200000016,
                    "velocity": 0.3543307086614173,
                    "duration": 0.1737922500000053
                },
                {
                    "name": "D6",
                    "midi": 86,
                    "time": 82.29063037500016,
                    "velocity": 0.2440944881889764,
                    "duration": 0.08689612499999555
                },
                {
                    "name": "C6",
                    "midi": 84,
                    "time": 82.37752650000016,
                    "velocity": 0.29133858267716534,
                    "duration": 0.1737922500000053
                },
                {
                    "name": "A5",
                    "midi": 81,
                    "time": 82.37752650000016,
                    "velocity": 0.2440944881889764,
                    "duration": 0.1737922500000053
                },
                {
                    "name": "F5",
                    "midi": 77,
                    "time": 82.37752650000016,
                    "velocity": 0.2440944881889764,
                    "duration": 0.1737922500000053
                },
                {
                    "name": "D6",
                    "midi": 86,
                    "time": 82.63821487500016,
                    "velocity": 0.3543307086614173,
                    "duration": 0.08689612499999555
                },
                {
                    "name": "C6",
                    "midi": 84,
                    "time": 82.72511100000015,
                    "velocity": 0.3543307086614173,
                    "duration": 0.1737922500000053
                },
                {
                    "name": "A5",
                    "midi": 81,
                    "time": 82.72511100000015,
                    "velocity": 0.2992125984251969,
                    "duration": 0.1737922500000053
                },
                {
                    "name": "F5",
                    "midi": 77,
                    "time": 82.72511100000015,
                    "velocity": 0.2992125984251969,
                    "duration": 0.1737922500000053
                },
                {
                    "name": "C6",
                    "midi": 84,
                    "time": 83.33338387500017,
                    "velocity": 0.25984251968503935,
                    "duration": 0.08689612499999555
                },
                {
                    "name": "B5",
                    "midi": 83,
                    "time": 83.42028000000016,
                    "velocity": 0.31496062992125984,
                    "duration": 0.1737922500000053
                },
                {
                    "name": "G#5",
                    "midi": 80,
                    "time": 83.42028000000016,
                    "velocity": 0.2677165354330709,
                    "duration": 0.1737922500000053
                },
                {
                    "name": "F5",
                    "midi": 77,
                    "time": 83.42028000000016,
                    "velocity": 0.2677165354330709,
                    "duration": 0.1737922500000053
                },
                {
                    "name": "D6",
                    "midi": 86,
                    "time": 84.02855287500017,
                    "velocity": 0.31496062992125984,
                    "duration": 0.08689612499999555
                },
                {
                    "name": "C6",
                    "midi": 84,
                    "time": 84.11544900000017,
                    "velocity": 0.3543307086614173,
                    "duration": 0.1737922500000053
                },
                {
                    "name": "A5",
                    "midi": 81,
                    "time": 84.11544900000017,
                    "velocity": 0.2992125984251969,
                    "duration": 0.1737922500000053
                },
                {
                    "name": "F5",
                    "midi": 77,
                    "time": 84.11544900000017,
                    "velocity": 0.2992125984251969,
                    "duration": 0.1737922500000053
                },
                {
                    "name": "G#5",
                    "midi": 80,
                    "time": 84.81061800000018,
                    "velocity": 0.3543307086614173,
                    "duration": 0.1737922500000053
                },
                {
                    "name": "F5",
                    "midi": 77,
                    "time": 84.81061800000018,
                    "velocity": 0.2992125984251969,
                    "duration": 0.1737922500000053
                },
                {
                    "name": "C#5",
                    "midi": 73,
                    "time": 84.81061800000018,
                    "velocity": 0.2992125984251969,
                    "duration": 0.1737922500000053
                },
                {
                    "name": "A#4",
                    "midi": 70,
                    "time": 85.76647537500018,
                    "velocity": 0.25196850393700787,
                    "duration": 0.08689612499999555
                },
                {
                    "name": "B4",
                    "midi": 71,
                    "time": 85.85337150000018,
                    "velocity": 0.25196850393700787,
                    "duration": 0.1737922500000053
                },
                {
                    "name": "G#4",
                    "midi": 68,
                    "time": 85.85337150000018,
                    "velocity": 0.2125984251968504,
                    "duration": 0.1737922500000053
                },
                {
                    "name": "C5",
                    "midi": 72,
                    "time": 86.46164437500019,
                    "velocity": 0.25196850393700787,
                    "duration": 0.08689612499999555
                },
                {
                    "name": "C#5",
                    "midi": 73,
                    "time": 86.54854050000019,
                    "velocity": 0.25984251968503935,
                    "duration": 0.1737922500000053
                },
                {
                    "name": "A4",
                    "midi": 69,
                    "time": 86.54854050000019,
                    "velocity": 0.2204724409448819,
                    "duration": 0.1737922500000053
                },
                {
                    "name": "D#5",
                    "midi": 75,
                    "time": 87.1568133750002,
                    "velocity": 0.25196850393700787,
                    "duration": 0.08689612499999555
                },
                {
                    "name": "C#5",
                    "midi": 73,
                    "time": 87.2437095000002,
                    "velocity": 0.2283464566929134,
                    "duration": 0.1737922500000053
                },
                {
                    "name": "E5",
                    "midi": 76,
                    "time": 87.2437095000002,
                    "velocity": 0.2755905511811024,
                    "duration": 0.1737922500000053
                },
                {
                    "name": "F5",
                    "midi": 77,
                    "time": 87.8519823750002,
                    "velocity": 0.25196850393700787,
                    "duration": 0.08689612499999555
                },
                {
                    "name": "F#5",
                    "midi": 78,
                    "time": 87.9388785000002,
                    "velocity": 0.29133858267716534,
                    "duration": 0.1737922500000053
                },
                {
                    "name": "D5",
                    "midi": 74,
                    "time": 87.9388785000002,
                    "velocity": 0.2440944881889764,
                    "duration": 0.1737922500000053
                },
                {
                    "name": "C5",
                    "midi": 72,
                    "time": 88.54715137500021,
                    "velocity": 0.25196850393700787,
                    "duration": 0.08689612499999555
                },
                {
                    "name": "C#5",
                    "midi": 73,
                    "time": 88.63404750000021,
                    "velocity": 0.25196850393700787,
                    "duration": 0.1737922500000053
                },
                {
                    "name": "A#4",
                    "midi": 70,
                    "time": 88.63404750000021,
                    "velocity": 0.2125984251968504,
                    "duration": 0.1737922500000053
                },
                {
                    "name": "D5",
                    "midi": 74,
                    "time": 89.24232037500022,
                    "velocity": 0.25196850393700787,
                    "duration": 0.08689612499999555
                },
                {
                    "name": "D#5",
                    "midi": 75,
                    "time": 89.32921650000021,
                    "velocity": 0.25984251968503935,
                    "duration": 0.1737922500000053
                },
                {
                    "name": "B4",
                    "midi": 71,
                    "time": 89.32921650000021,
                    "velocity": 0.2204724409448819,
                    "duration": 0.1737922500000053
                },
                {
                    "name": "E5",
                    "midi": 76,
                    "time": 89.93748937500023,
                    "velocity": 0.25196850393700787,
                    "duration": 0.08689612499999555
                },
                {
                    "name": "C#5",
                    "midi": 73,
                    "time": 90.02438550000022,
                    "velocity": 0.2283464566929134,
                    "duration": 0.1737922500000053
                },
                {
                    "name": "F5",
                    "midi": 77,
                    "time": 90.02438550000022,
                    "velocity": 0.2755905511811024,
                    "duration": 0.1737922500000053
                },
                {
                    "name": "G5",
                    "midi": 79,
                    "time": 90.63265837500023,
                    "velocity": 0.25196850393700787,
                    "duration": 0.08689612499999555
                },
                {
                    "name": "G#5",
                    "midi": 80,
                    "time": 90.71955450000023,
                    "velocity": 0.29133858267716534,
                    "duration": 0.1737922500000053
                },
                {
                    "name": "E5",
                    "midi": 76,
                    "time": 90.71955450000023,
                    "velocity": 0.2440944881889764,
                    "duration": 0.1737922500000053
                },
                {
                    "name": "A6",
                    "midi": 93,
                    "time": 90.98024287500023,
                    "velocity": 0.4330708661417323,
                    "duration": 0.08689612499999555
                },
                {
                    "name": "A#6",
                    "midi": 94,
                    "time": 91.06713900000022,
                    "velocity": 0.5118110236220472,
                    "duration": 0.1737922500000053
                },
                {
                    "name": "F#6",
                    "midi": 90,
                    "time": 91.06713900000022,
                    "velocity": 0.4330708661417323,
                    "duration": 0.1737922500000053
                },
                {
                    "name": "G#6",
                    "midi": 92,
                    "time": 91.67541187500024,
                    "velocity": 0.4015748031496063,
                    "duration": 0.08689612499999555
                },
                {
                    "name": "A6",
                    "midi": 93,
                    "time": 91.76230800000023,
                    "velocity": 0.4645669291338583,
                    "duration": 0.1737922500000053
                },
                {
                    "name": "F6",
                    "midi": 89,
                    "time": 91.76230800000023,
                    "velocity": 0.3937007874015748,
                    "duration": 0.1737922500000053
                },
                {
                    "name": "A#5",
                    "midi": 82,
                    "time": 92.37058087500024,
                    "velocity": 0.3937007874015748,
                    "duration": 0.08689612499999555
                },
                {
                    "name": "B5",
                    "midi": 83,
                    "time": 92.45747700000024,
                    "velocity": 0.44881889763779526,
                    "duration": 0.1737922500000053
                },
                {
                    "name": "A5",
                    "midi": 81,
                    "time": 92.45747700000024,
                    "velocity": 0.3779527559055118,
                    "duration": 0.1737922500000053
                },
                {
                    "name": "A#5",
                    "midi": 82,
                    "time": 93.06574987500025,
                    "velocity": 0.3700787401574803,
                    "duration": 0.08689612499999555
                },
                {
                    "name": "C6",
                    "midi": 84,
                    "time": 93.15264600000025,
                    "velocity": 0.4330708661417323,
                    "duration": 0.1737922500000053
                },
                {
                    "name": "G5",
                    "midi": 79,
                    "time": 93.15264600000025,
                    "velocity": 0.36220472440944884,
                    "duration": 0.1737922500000053
                },
                {
                    "name": "E6",
                    "midi": 88,
                    "time": 93.76091887500026,
                    "velocity": 0.41732283464566927,
                    "duration": 0.08689612499999555
                },
                {
                    "name": "F6",
                    "midi": 89,
                    "time": 93.84781500000025,
                    "velocity": 0.4645669291338583,
                    "duration": 0.1737922500000053
                },
                {
                    "name": "C#6",
                    "midi": 85,
                    "time": 93.84781500000025,
                    "velocity": 0.3937007874015748,
                    "duration": 0.1737922500000053
                },
                {
                    "name": "C#6",
                    "midi": 85,
                    "time": 94.45608787500026,
                    "velocity": 0.4015748031496063,
                    "duration": 0.08689612499999555
                },
                {
                    "name": "A#5",
                    "midi": 82,
                    "time": 94.54298400000026,
                    "velocity": 0.3700787401574803,
                    "duration": 0.1737922500000053
                },
                {
                    "name": "D6",
                    "midi": 86,
                    "time": 94.54298400000026,
                    "velocity": 0.4409448818897638,
                    "duration": 0.1737922500000053
                },
                {
                    "name": "E5",
                    "midi": 76,
                    "time": 95.15125687500027,
                    "velocity": 0.4330708661417323,
                    "duration": 0.08689612499999555
                },
                {
                    "name": "C#5",
                    "midi": 73,
                    "time": 95.23815300000027,
                    "velocity": 0.4015748031496063,
                    "duration": 0.1737922500000053
                },
                {
                    "name": "F5",
                    "midi": 77,
                    "time": 95.23815300000027,
                    "velocity": 0.47244094488188976,
                    "duration": 0.1737922500000053
                },
                {
                    "name": "F#5",
                    "midi": 78,
                    "time": 95.84642587500028,
                    "velocity": 0.41732283464566927,
                    "duration": 0.08689612499999555
                },
                {
                    "name": "G5",
                    "midi": 79,
                    "time": 95.93332200000027,
                    "velocity": 0.44881889763779526,
                    "duration": 0.1737922500000053
                },
                {
                    "name": "E5",
                    "midi": 76,
                    "time": 95.93332200000027,
                    "velocity": 0.3779527559055118,
                    "duration": 0.1737922500000053
                },
                {
                    "name": "C#6",
                    "midi": 85,
                    "time": 96.62849100000028,
                    "velocity": 0.6220472440944882,
                    "duration": 1.7379224999999963
                },
                {
                    "name": "C6",
                    "midi": 84,
                    "time": 98.62710187500028,
                    "velocity": 0.4645669291338583,
                    "duration": 0.08689612499999555
                },
                {
                    "name": "C5",
                    "midi": 72,
                    "time": 98.71399800000027,
                    "velocity": 0.5905511811023622,
                    "duration": 0.1737922500000053
                },
                {
                    "name": "G6",
                    "midi": 91,
                    "time": 99.29330550000027,
                    "velocity": 0.2992125984251969,
                    "duration": 0.11586149999999407
                },
                {
                    "name": "D6",
                    "midi": 86,
                    "time": 99.40916700000027,
                    "velocity": 0.3228346456692913,
                    "duration": 1.3903379999999288
                },
                {
                    "name": "F6",
                    "midi": 89,
                    "time": 99.40916700000027,
                    "velocity": 0.3228346456692913,
                    "duration": 0.11586149999999407
                },
                {
                    "name": "G6",
                    "midi": 91,
                    "time": 99.52502850000026,
                    "velocity": 0.25984251968503935,
                    "duration": 0.11586149999999407
                },
                {
                    "name": "F6",
                    "midi": 89,
                    "time": 99.64089000000025,
                    "velocity": 0.3228346456692913,
                    "duration": 0.11586149999999407
                },
                {
                    "name": "G6",
                    "midi": 91,
                    "time": 99.75675150000025,
                    "velocity": 0.25984251968503935,
                    "duration": 0.11586149999999407
                },
                {
                    "name": "F6",
                    "midi": 89,
                    "time": 99.87261300000024,
                    "velocity": 0.3228346456692913,
                    "duration": 0.11586149999999407
                },
                {
                    "name": "G6",
                    "midi": 91,
                    "time": 99.98847450000024,
                    "velocity": 0.25984251968503935,
                    "duration": 0.11586149999999407
                },
                {
                    "name": "F6",
                    "midi": 89,
                    "time": 100.10433600000023,
                    "velocity": 0.3228346456692913,
                    "duration": 0.11586149999999407
                },
                {
                    "name": "G6",
                    "midi": 91,
                    "time": 100.22019750000022,
                    "velocity": 0.25984251968503935,
                    "duration": 0.11586149999999407
                },
                {
                    "name": "F6",
                    "midi": 89,
                    "time": 100.33605900000022,
                    "velocity": 0.3228346456692913,
                    "duration": 0.11586149999999407
                },
                {
                    "name": "G6",
                    "midi": 91,
                    "time": 100.45192050000021,
                    "velocity": 0.25984251968503935,
                    "duration": 0.11586149999999407
                },
                {
                    "name": "F6",
                    "midi": 89,
                    "time": 100.56778200000021,
                    "velocity": 0.3228346456692913,
                    "duration": 0.11586149999999407
                },
                {
                    "name": "E6",
                    "midi": 88,
                    "time": 100.6836435000002,
                    "velocity": 0.2755905511811024,
                    "duration": 0.08689612499999555
                },
                {
                    "name": "B5",
                    "midi": 83,
                    "time": 100.7995050000002,
                    "velocity": 0.29133858267716534,
                    "duration": 1.3903379999999288
                },
                {
                    "name": "D6",
                    "midi": 86,
                    "time": 100.7995050000002,
                    "velocity": 0.29133858267716534,
                    "duration": 0.11586149999999407
                },
                {
                    "name": "E6",
                    "midi": 88,
                    "time": 100.91536650000019,
                    "velocity": 0.23622047244094488,
                    "duration": 0.11586149999999407
                },
                {
                    "name": "D6",
                    "midi": 86,
                    "time": 101.03122800000018,
                    "velocity": 0.29133858267716534,
                    "duration": 0.11586149999999407
                },
                {
                    "name": "E6",
                    "midi": 88,
                    "time": 101.14708950000018,
                    "velocity": 0.2440944881889764,
                    "duration": 0.11586149999999407
                },
                {
                    "name": "D6",
                    "midi": 86,
                    "time": 101.26295100000017,
                    "velocity": 0.29133858267716534,
                    "duration": 0.11586149999999407
                },
                {
                    "name": "E6",
                    "midi": 88,
                    "time": 101.37881250000017,
                    "velocity": 0.28346456692913385,
                    "duration": 0.11586149999999407
                },
                {
                    "name": "D6",
                    "midi": 86,
                    "time": 101.49467400000016,
                    "velocity": 0.29133858267716534,
                    "duration": 0.11586149999999407
                },
                {
                    "name": "E6",
                    "midi": 88,
                    "time": 101.61053550000015,
                    "velocity": 0.25196850393700787,
                    "duration": 0.11586149999999407
                },
                {
                    "name": "D6",
                    "midi": 86,
                    "time": 101.72639700000015,
                    "velocity": 0.29133858267716534,
                    "duration": 0.11586149999999407
                },
                {
                    "name": "E6",
                    "midi": 88,
                    "time": 101.84225850000014,
                    "velocity": 0.2440944881889764,
                    "duration": 0.11586149999999407
                },
                {
                    "name": "D6",
                    "midi": 86,
                    "time": 101.95812000000014,
                    "velocity": 0.29133858267716534,
                    "duration": 0.11586149999999407
                },
                {
                    "name": "D6",
                    "midi": 86,
                    "time": 102.07398150000013,
                    "velocity": 0.2992125984251969,
                    "duration": 0.11586149999999407
                },
                {
                    "name": "A5",
                    "midi": 81,
                    "time": 102.18984300000012,
                    "velocity": 0.3228346456692913,
                    "duration": 0.6951689999999644
                },
                {
                    "name": "C6",
                    "midi": 84,
                    "time": 102.18984300000012,
                    "velocity": 0.3228346456692913,
                    "duration": 0.11586149999999407
                },
                {
                    "name": "D6",
                    "midi": 86,
                    "time": 102.30570450000012,
                    "velocity": 0.25196850393700787,
                    "duration": 0.11586149999999407
                },
                {
                    "name": "C6",
                    "midi": 84,
                    "time": 102.42156600000011,
                    "velocity": 0.29133858267716534,
                    "duration": 0.11586149999999407
                },
                {
                    "name": "D6",
                    "midi": 86,
                    "time": 102.5374275000001,
                    "velocity": 0.2440944881889764,
                    "duration": 0.11586149999999407
                },
                {
                    "name": "C6",
                    "midi": 84,
                    "time": 102.6532890000001,
                    "velocity": 0.29133858267716534,
                    "duration": 0.11586149999999407
                },
                {
                    "name": "E6",
                    "midi": 88,
                    "time": 102.7691505000001,
                    "velocity": 0.2992125984251969,
                    "duration": 0.11586149999999407
                },
                {
                    "name": "B5",
                    "midi": 83,
                    "time": 102.88501200000009,
                    "velocity": 0.29133858267716534,
                    "duration": 0.6951689999999644
                },
                {
                    "name": "D6",
                    "midi": 86,
                    "time": 102.88501200000009,
                    "velocity": 0.29133858267716534,
                    "duration": 0.11586149999999407
                },
                {
                    "name": "E6",
                    "midi": 88,
                    "time": 103.00087350000008,
                    "velocity": 0.25196850393700787,
                    "duration": 0.11586149999999407
                },
                {
                    "name": "D6",
                    "midi": 86,
                    "time": 103.11673500000008,
                    "velocity": 0.29133858267716534,
                    "duration": 0.11586149999999407
                },
                {
                    "name": "E6",
                    "midi": 88,
                    "time": 103.23259650000007,
                    "velocity": 0.25984251968503935,
                    "duration": 0.11586149999999407
                },
                {
                    "name": "D6",
                    "midi": 86,
                    "time": 103.34845800000006,
                    "velocity": 0.28346456692913385,
                    "duration": 0.11586149999999407
                },
                {
                    "name": "D6",
                    "midi": 86,
                    "time": 103.46431950000006,
                    "velocity": 0.2992125984251969,
                    "duration": 0.11586149999999407
                },
                {
                    "name": "A5",
                    "midi": 81,
                    "time": 103.58018100000005,
                    "velocity": 0.30708661417322836,
                    "duration": 0.6951689999999644
                },
                {
                    "name": "C6",
                    "midi": 84,
                    "time": 103.58018100000005,
                    "velocity": 0.30708661417322836,
                    "duration": 0.11586149999999407
                },
                {
                    "name": "D6",
                    "midi": 86,
                    "time": 103.69604250000005,
                    "velocity": 0.2677165354330709,
                    "duration": 0.11586149999999407
                },
                {
                    "name": "C6",
                    "midi": 84,
                    "time": 103.81190400000004,
                    "velocity": 0.30708661417322836,
                    "duration": 0.11586149999999407
                },
                {
                    "name": "D6",
                    "midi": 86,
                    "time": 103.92776550000004,
                    "velocity": 0.25984251968503935,
                    "duration": 0.11586149999999407
                },
                {
                    "name": "C6",
                    "midi": 84,
                    "time": 104.04362700000003,
                    "velocity": 0.30708661417322836,
                    "duration": 0.11586149999999407
                },
                {
                    "name": "C#6",
                    "midi": 85,
                    "time": 104.15948850000002,
                    "velocity": 0.2992125984251969,
                    "duration": 0.11586149999999407
                },
                {
                    "name": "F5",
                    "midi": 77,
                    "time": 104.27535000000002,
                    "velocity": 0.28346456692913385,
                    "duration": 0.6951689999999644
                },
                {
                    "name": "B5",
                    "midi": 83,
                    "time": 104.27535000000002,
                    "velocity": 0.28346456692913385,
                    "duration": 0.11586149999999407
                },
                {
                    "name": "C#6",
                    "midi": 85,
                    "time": 104.39121150000001,
                    "velocity": 0.2440944881889764,
                    "duration": 0.11586149999999407
                },
                {
                    "name": "B5",
                    "midi": 83,
                    "time": 104.507073,
                    "velocity": 0.28346456692913385,
                    "duration": 0.11586149999999407
                },
                {
                    "name": "C#6",
                    "midi": 85,
                    "time": 104.6229345,
                    "velocity": 0.2440944881889764,
                    "duration": 0.11586149999999407
                },
                {
                    "name": "B5",
                    "midi": 83,
                    "time": 104.738796,
                    "velocity": 0.29133858267716534,
                    "duration": 0.11586149999999407
                },
                {
                    "name": "D6",
                    "midi": 86,
                    "time": 104.85465749999999,
                    "velocity": 0.28346456692913385,
                    "duration": 0.11586149999999407
                },
                {
                    "name": "A5",
                    "midi": 81,
                    "time": 104.97051899999998,
                    "velocity": 0.29133858267716534,
                    "duration": 1.3903379999999288
                },
                {
                    "name": "C6",
                    "midi": 84,
                    "time": 104.97051899999998,
                    "velocity": 0.29133858267716534,
                    "duration": 0.11586149999999407
                },
                {
                    "name": "D6",
                    "midi": 86,
                    "time": 105.08638049999998,
                    "velocity": 0.23622047244094488,
                    "duration": 0.11586149999999407
                },
                {
                    "name": "C6",
                    "midi": 84,
                    "time": 105.20224199999997,
                    "velocity": 0.29133858267716534,
                    "duration": 0.11586149999999407
                },
                {
                    "name": "D6",
                    "midi": 86,
                    "time": 105.31810349999996,
                    "velocity": 0.2440944881889764,
                    "duration": 0.11586149999999407
                },
                {
                    "name": "C6",
                    "midi": 84,
                    "time": 105.43396499999996,
                    "velocity": 0.28346456692913385,
                    "duration": 0.11586149999999407
                },
                {
                    "name": "D6",
                    "midi": 86,
                    "time": 105.54982649999995,
                    "velocity": 0.2440944881889764,
                    "duration": 0.11586149999999407
                },
                {
                    "name": "C6",
                    "midi": 84,
                    "time": 105.66568799999995,
                    "velocity": 0.28346456692913385,
                    "duration": 0.11586149999999407
                },
                {
                    "name": "D6",
                    "midi": 86,
                    "time": 105.78154949999994,
                    "velocity": 0.2440944881889764,
                    "duration": 0.11586149999999407
                },
                {
                    "name": "C6",
                    "midi": 84,
                    "time": 105.89741099999993,
                    "velocity": 0.28346456692913385,
                    "duration": 0.11586149999999407
                },
                {
                    "name": "D6",
                    "midi": 86,
                    "time": 106.01327249999993,
                    "velocity": 0.23622047244094488,
                    "duration": 0.11586149999999407
                },
                {
                    "name": "C6",
                    "midi": 84,
                    "time": 106.12913399999992,
                    "velocity": 0.2755905511811024,
                    "duration": 0.11586149999999407
                },
                {
                    "name": "C#6",
                    "midi": 85,
                    "time": 106.24499549999992,
                    "velocity": 0.2755905511811024,
                    "duration": 0.11586149999999407
                },
                {
                    "name": "F5",
                    "midi": 77,
                    "time": 106.36085699999991,
                    "velocity": 0.2755905511811024,
                    "duration": 1.3903379999999288
                },
                {
                    "name": "B5",
                    "midi": 83,
                    "time": 106.36085699999991,
                    "velocity": 0.2755905511811024,
                    "duration": 0.11586149999999407
                },
                {
                    "name": "C#6",
                    "midi": 85,
                    "time": 106.4767184999999,
                    "velocity": 0.2204724409448819,
                    "duration": 0.11586149999999407
                },
                {
                    "name": "B5",
                    "midi": 83,
                    "time": 106.5925799999999,
                    "velocity": 0.2755905511811024,
                    "duration": 0.11586149999999407
                },
                {
                    "name": "C#6",
                    "midi": 85,
                    "time": 106.70844149999989,
                    "velocity": 0.2283464566929134,
                    "duration": 0.11586149999999407
                },
                {
                    "name": "B5",
                    "midi": 83,
                    "time": 106.82430299999989,
                    "velocity": 0.2755905511811024,
                    "duration": 0.11586149999999407
                },
                {
                    "name": "C#6",
                    "midi": 85,
                    "time": 106.94016449999988,
                    "velocity": 0.23622047244094488,
                    "duration": 0.11586149999999407
                },
                {
                    "name": "B5",
                    "midi": 83,
                    "time": 107.05602599999987,
                    "velocity": 0.2755905511811024,
                    "duration": 0.11586149999999407
                },
                {
                    "name": "C#6",
                    "midi": 85,
                    "time": 107.17188749999987,
                    "velocity": 0.23622047244094488,
                    "duration": 0.11586149999999407
                },
                {
                    "name": "B5",
                    "midi": 83,
                    "time": 107.28774899999986,
                    "velocity": 0.2677165354330709,
                    "duration": 0.11586149999999407
                },
                {
                    "name": "C#6",
                    "midi": 85,
                    "time": 107.40361049999986,
                    "velocity": 0.2283464566929134,
                    "duration": 0.11586149999999407
                },
                {
                    "name": "B5",
                    "midi": 83,
                    "time": 107.51947199999985,
                    "velocity": 0.2677165354330709,
                    "duration": 0.11586149999999407
                },
                {
                    "name": "B5",
                    "midi": 83,
                    "time": 107.63533349999985,
                    "velocity": 0.25984251968503935,
                    "duration": 0.11586149999999407
                },
                {
                    "name": "D5",
                    "midi": 74,
                    "time": 107.75119499999984,
                    "velocity": 0.2677165354330709,
                    "duration": 1.3903379999999288
                },
                {
                    "name": "A5",
                    "midi": 81,
                    "time": 107.75119499999984,
                    "velocity": 0.2677165354330709,
                    "duration": 0.11586149999999407
                },
                {
                    "name": "B5",
                    "midi": 83,
                    "time": 107.86705649999983,
                    "velocity": 0.2125984251968504,
                    "duration": 0.11586149999999407
                },
                {
                    "name": "A5",
                    "midi": 81,
                    "time": 107.98291799999983,
                    "velocity": 0.25196850393700787,
                    "duration": 0.11586149999999407
                },
                {
                    "name": "B5",
                    "midi": 83,
                    "time": 108.09877949999982,
                    "velocity": 0.2204724409448819,
                    "duration": 0.11586149999999407
                },
                {
                    "name": "A5",
                    "midi": 81,
                    "time": 108.21464099999982,
                    "velocity": 0.25196850393700787,
                    "duration": 0.11586149999999407
                },
                {
                    "name": "B5",
                    "midi": 83,
                    "time": 108.33050249999981,
                    "velocity": 0.2283464566929134,
                    "duration": 0.11586149999999407
                },
                {
                    "name": "A5",
                    "midi": 81,
                    "time": 108.4463639999998,
                    "velocity": 0.2440944881889764,
                    "duration": 0.11586149999999407
                },
                {
                    "name": "B5",
                    "midi": 83,
                    "time": 108.5622254999998,
                    "velocity": 0.2283464566929134,
                    "duration": 0.11586149999999407
                },
                {
                    "name": "A5",
                    "midi": 81,
                    "time": 108.67808699999979,
                    "velocity": 0.23622047244094488,
                    "duration": 0.11586149999999407
                },
                {
                    "name": "B5",
                    "midi": 83,
                    "time": 108.79394849999979,
                    "velocity": 0.2125984251968504,
                    "duration": 0.11586149999999407
                },
                {
                    "name": "A5",
                    "midi": 81,
                    "time": 108.90980999999978,
                    "velocity": 0.23622047244094488,
                    "duration": 0.11586149999999407
                },
                {
                    "name": "G5",
                    "midi": 79,
                    "time": 109.02567149999977,
                    "velocity": 0.23622047244094488,
                    "duration": 0.11586149999999407
                },
                {
                    "name": "C#5",
                    "midi": 73,
                    "time": 109.14153299999977,
                    "velocity": 0.2204724409448819,
                    "duration": 1.3903379999999288
                },
                {
                    "name": "F5",
                    "midi": 77,
                    "time": 109.14153299999977,
                    "velocity": 0.2204724409448819,
                    "duration": 0.11586149999999407
                },
                {
                    "name": "G5",
                    "midi": 79,
                    "time": 109.25739449999976,
                    "velocity": 0.1889763779527559,
                    "duration": 0.11586149999999407
                },
                {
                    "name": "F5",
                    "midi": 77,
                    "time": 109.37325599999976,
                    "velocity": 0.2204724409448819,
                    "duration": 0.11586149999999407
                },
                {
                    "name": "G5",
                    "midi": 79,
                    "time": 109.48911749999975,
                    "velocity": 0.18110236220472442,
                    "duration": 0.11586149999999407
                },
                {
                    "name": "F5",
                    "midi": 77,
                    "time": 109.60497899999974,
                    "velocity": 0.2125984251968504,
                    "duration": 0.11586149999999407
                },
                {
                    "name": "G5",
                    "midi": 79,
                    "time": 109.72084049999974,
                    "velocity": 0.2047244094488189,
                    "duration": 0.11586149999999407
                },
                {
                    "name": "F5",
                    "midi": 77,
                    "time": 109.83670199999973,
                    "velocity": 0.2204724409448819,
                    "duration": 0.11586149999999407
                },
                {
                    "name": "G5",
                    "midi": 79,
                    "time": 109.95256349999973,
                    "velocity": 0.18110236220472442,
                    "duration": 0.11586149999999407
                },
                {
                    "name": "F5",
                    "midi": 77,
                    "time": 110.06842499999972,
                    "velocity": 0.2204724409448819,
                    "duration": 0.11586149999999407
                },
                {
                    "name": "G5",
                    "midi": 79,
                    "time": 110.18428649999971,
                    "velocity": 0.1889763779527559,
                    "duration": 0.11586149999999407
                },
                {
                    "name": "F5",
                    "midi": 77,
                    "time": 110.30014799999971,
                    "velocity": 0.2047244094488189,
                    "duration": 0.11586149999999407
                },
                {
                    "name": "G6",
                    "midi": 91,
                    "time": 110.4160094999997,
                    "velocity": 0.25984251968503935,
                    "duration": 0.11586149999999407
                },
                {
                    "name": "D6",
                    "midi": 86,
                    "time": 110.5318709999997,
                    "velocity": 0.28346456692913385,
                    "duration": 1.3903379999999288
                },
                {
                    "name": "F6",
                    "midi": 89,
                    "time": 110.5318709999997,
                    "velocity": 0.28346456692913385,
                    "duration": 0.11586149999999407
                },
                {
                    "name": "G6",
                    "midi": 91,
                    "time": 110.64773249999969,
                    "velocity": 0.2283464566929134,
                    "duration": 0.11586149999999407
                },
                {
                    "name": "F6",
                    "midi": 89,
                    "time": 110.76359399999969,
                    "velocity": 0.28346456692913385,
                    "duration": 0.11586149999999407
                },
                {
                    "name": "G6",
                    "midi": 91,
                    "time": 110.87945549999968,
                    "velocity": 0.2283464566929134,
                    "duration": 0.11586149999999407
                },
                {
                    "name": "F6",
                    "midi": 89,
                    "time": 110.99531699999967,
                    "velocity": 0.28346456692913385,
                    "duration": 0.11586149999999407
                },
                {
                    "name": "G6",
                    "midi": 91,
                    "time": 111.11117849999967,
                    "velocity": 0.2283464566929134,
                    "duration": 0.11586149999999407
                },
                {
                    "name": "F6",
                    "midi": 89,
                    "time": 111.22703999999966,
                    "velocity": 0.28346456692913385,
                    "duration": 0.11586149999999407
                },
                {
                    "name": "G6",
                    "midi": 91,
                    "time": 111.34290149999966,
                    "velocity": 0.2283464566929134,
                    "duration": 0.11586149999999407
                },
                {
                    "name": "F6",
                    "midi": 89,
                    "time": 111.45876299999965,
                    "velocity": 0.28346456692913385,
                    "duration": 0.11586149999999407
                },
                {
                    "name": "G6",
                    "midi": 91,
                    "time": 111.57462449999964,
                    "velocity": 0.2283464566929134,
                    "duration": 0.11586149999999407
                },
                {
                    "name": "F6",
                    "midi": 89,
                    "time": 111.69048599999964,
                    "velocity": 0.28346456692913385,
                    "duration": 0.11586149999999407
                },
                {
                    "name": "E6",
                    "midi": 88,
                    "time": 111.80634749999963,
                    "velocity": 0.2440944881889764,
                    "duration": 0.08689612499999555
                },
                {
                    "name": "B5",
                    "midi": 83,
                    "time": 111.92220899999963,
                    "velocity": 0.29133858267716534,
                    "duration": 1.3903379999999288
                },
                {
                    "name": "D6",
                    "midi": 86,
                    "time": 111.92220899999963,
                    "velocity": 0.29133858267716534,
                    "duration": 0.11586149999999407
                },
                {
                    "name": "E6",
                    "midi": 88,
                    "time": 112.03807049999962,
                    "velocity": 0.23622047244094488,
                    "duration": 0.11586149999999407
                },
                {
                    "name": "D6",
                    "midi": 86,
                    "time": 112.15393199999961,
                    "velocity": 0.29133858267716534,
                    "duration": 0.11586149999999407
                },
                {
                    "name": "E6",
                    "midi": 88,
                    "time": 112.26979349999961,
                    "velocity": 0.2440944881889764,
                    "duration": 0.11586149999999407
                },
                {
                    "name": "D6",
                    "midi": 86,
                    "time": 112.3856549999996,
                    "velocity": 0.29133858267716534,
                    "duration": 0.11586149999999407
                },
                {
                    "name": "E6",
                    "midi": 88,
                    "time": 112.5015164999996,
                    "velocity": 0.28346456692913385,
                    "duration": 0.11586149999999407
                },
                {
                    "name": "D6",
                    "midi": 86,
                    "time": 112.61737799999959,
                    "velocity": 0.29133858267716534,
                    "duration": 0.11586149999999407
                },
                {
                    "name": "E6",
                    "midi": 88,
                    "time": 112.73323949999958,
                    "velocity": 0.25196850393700787,
                    "duration": 0.11586149999999407
                },
                {
                    "name": "D6",
                    "midi": 86,
                    "time": 112.84910099999958,
                    "velocity": 0.29133858267716534,
                    "duration": 0.11586149999999407
                },
                {
                    "name": "E6",
                    "midi": 88,
                    "time": 112.96496249999957,
                    "velocity": 0.2440944881889764,
                    "duration": 0.11586149999999407
                },
                {
                    "name": "D6",
                    "midi": 86,
                    "time": 113.08082399999957,
                    "velocity": 0.29133858267716534,
                    "duration": 0.11586149999999407
                },
                {
                    "name": "D6",
                    "midi": 86,
                    "time": 113.19668549999956,
                    "velocity": 0.2992125984251969,
                    "duration": 0.11586149999999407
                },
                {
                    "name": "A5",
                    "midi": 81,
                    "time": 113.31254699999955,
                    "velocity": 0.3228346456692913,
                    "duration": 0.6951689999999644
                },
                {
                    "name": "C6",
                    "midi": 84,
                    "time": 113.31254699999955,
                    "velocity": 0.3228346456692913,
                    "duration": 0.11586149999999407
                },
                {
                    "name": "D6",
                    "midi": 86,
                    "time": 113.42840849999955,
                    "velocity": 0.25196850393700787,
                    "duration": 0.11586149999999407
                },
                {
                    "name": "C6",
                    "midi": 84,
                    "time": 113.54426999999954,
                    "velocity": 0.29133858267716534,
                    "duration": 0.11586149999999407
                },
                {
                    "name": "D6",
                    "midi": 86,
                    "time": 113.66013149999954,
                    "velocity": 0.2440944881889764,
                    "duration": 0.11586149999999407
                },
                {
                    "name": "C6",
                    "midi": 84,
                    "time": 113.77599299999953,
                    "velocity": 0.29133858267716534,
                    "duration": 0.11586149999999407
                },
                {
                    "name": "E6",
                    "midi": 88,
                    "time": 113.89185449999952,
                    "velocity": 0.2992125984251969,
                    "duration": 0.11586149999999407
                },
                {
                    "name": "B5",
                    "midi": 83,
                    "time": 114.00771599999952,
                    "velocity": 0.29133858267716534,
                    "duration": 0.6951689999999644
                },
                {
                    "name": "D6",
                    "midi": 86,
                    "time": 114.00771599999952,
                    "velocity": 0.29133858267716534,
                    "duration": 0.11586149999999407
                },
                {
                    "name": "E6",
                    "midi": 88,
                    "time": 114.12357749999951,
                    "velocity": 0.25196850393700787,
                    "duration": 0.11586149999999407
                },
                {
                    "name": "D6",
                    "midi": 86,
                    "time": 114.2394389999995,
                    "velocity": 0.29133858267716534,
                    "duration": 0.11586149999999407
                },
                {
                    "name": "E6",
                    "midi": 88,
                    "time": 114.3553004999995,
                    "velocity": 0.25984251968503935,
                    "duration": 0.11586149999999407
                },
                {
                    "name": "D6",
                    "midi": 86,
                    "time": 114.4711619999995,
                    "velocity": 0.28346456692913385,
                    "duration": 0.11586149999999407
                },
                {
                    "name": "D6",
                    "midi": 86,
                    "time": 114.58702349999949,
                    "velocity": 0.2992125984251969,
                    "duration": 0.11586149999999407
                },
                {
                    "name": "A5",
                    "midi": 81,
                    "time": 114.70288499999948,
                    "velocity": 0.30708661417322836,
                    "duration": 0.6951689999999644
                },
                {
                    "name": "C6",
                    "midi": 84,
                    "time": 114.70288499999948,
                    "velocity": 0.30708661417322836,
                    "duration": 0.11586149999999407
                },
                {
                    "name": "D6",
                    "midi": 86,
                    "time": 114.81874649999948,
                    "velocity": 0.2677165354330709,
                    "duration": 0.11586149999999407
                },
                {
                    "name": "C6",
                    "midi": 84,
                    "time": 114.93460799999947,
                    "velocity": 0.30708661417322836,
                    "duration": 0.11586149999999407
                },
                {
                    "name": "D6",
                    "midi": 86,
                    "time": 115.05046949999947,
                    "velocity": 0.25984251968503935,
                    "duration": 0.11586149999999407
                },
                {
                    "name": "C6",
                    "midi": 84,
                    "time": 115.16633099999946,
                    "velocity": 0.30708661417322836,
                    "duration": 0.11586149999999407
                },
                {
                    "name": "C#6",
                    "midi": 85,
                    "time": 115.28219249999945,
                    "velocity": 0.2992125984251969,
                    "duration": 0.11586149999999407
                },
                {
                    "name": "F5",
                    "midi": 77,
                    "time": 115.39805399999945,
                    "velocity": 0.28346456692913385,
                    "duration": 0.6951689999999644
                },
                {
                    "name": "B5",
                    "midi": 83,
                    "time": 115.39805399999945,
                    "velocity": 0.28346456692913385,
                    "duration": 0.11586149999999407
                },
                {
                    "name": "C#6",
                    "midi": 85,
                    "time": 115.51391549999944,
                    "velocity": 0.2440944881889764,
                    "duration": 0.11586149999999407
                },
                {
                    "name": "B5",
                    "midi": 83,
                    "time": 115.62977699999944,
                    "velocity": 0.28346456692913385,
                    "duration": 0.11586149999999407
                },
                {
                    "name": "C#6",
                    "midi": 85,
                    "time": 115.74563849999943,
                    "velocity": 0.2440944881889764,
                    "duration": 0.11586149999999407
                },
                {
                    "name": "B5",
                    "midi": 83,
                    "time": 115.86149999999942,
                    "velocity": 0.29133858267716534,
                    "duration": 0.11586149999999407
                },
                {
                    "name": "D6",
                    "midi": 86,
                    "time": 115.97736149999942,
                    "velocity": 0.28346456692913385,
                    "duration": 0.11586149999999407
                },
                {
                    "name": "A5",
                    "midi": 81,
                    "time": 116.09322299999941,
                    "velocity": 0.29133858267716534,
                    "duration": 1.3903379999999288
                },
                {
                    "name": "C6",
                    "midi": 84,
                    "time": 116.09322299999941,
                    "velocity": 0.29133858267716534,
                    "duration": 0.11586149999999407
                },
                {
                    "name": "D6",
                    "midi": 86,
                    "time": 116.2090844999994,
                    "velocity": 0.23622047244094488,
                    "duration": 0.11586149999999407
                },
                {
                    "name": "C6",
                    "midi": 84,
                    "time": 116.3249459999994,
                    "velocity": 0.29133858267716534,
                    "duration": 0.11586149999999407
                },
                {
                    "name": "D6",
                    "midi": 86,
                    "time": 116.4408074999994,
                    "velocity": 0.2440944881889764,
                    "duration": 0.11586149999999407
                },
                {
                    "name": "C6",
                    "midi": 84,
                    "time": 116.55666899999939,
                    "velocity": 0.28346456692913385,
                    "duration": 0.11586149999999407
                },
                {
                    "name": "D6",
                    "midi": 86,
                    "time": 116.67253049999938,
                    "velocity": 0.2440944881889764,
                    "duration": 0.11586149999999407
                },
                {
                    "name": "C6",
                    "midi": 84,
                    "time": 116.78839199999938,
                    "velocity": 0.28346456692913385,
                    "duration": 0.11586149999999407
                },
                {
                    "name": "D6",
                    "midi": 86,
                    "time": 116.90425349999937,
                    "velocity": 0.2440944881889764,
                    "duration": 0.11586149999999407
                },
                {
                    "name": "C6",
                    "midi": 84,
                    "time": 117.02011499999936,
                    "velocity": 0.28346456692913385,
                    "duration": 0.11586149999999407
                },
                {
                    "name": "D6",
                    "midi": 86,
                    "time": 117.13597649999936,
                    "velocity": 0.23622047244094488,
                    "duration": 0.11586149999999407
                },
                {
                    "name": "C6",
                    "midi": 84,
                    "time": 117.25183799999935,
                    "velocity": 0.2755905511811024,
                    "duration": 0.11586149999999407
                },
                {
                    "name": "C#6",
                    "midi": 85,
                    "time": 117.36769949999935,
                    "velocity": 0.2755905511811024,
                    "duration": 0.11586149999999407
                },
                {
                    "name": "F5",
                    "midi": 77,
                    "time": 117.48356099999934,
                    "velocity": 0.2755905511811024,
                    "duration": 1.3903379999999288
                },
                {
                    "name": "B5",
                    "midi": 83,
                    "time": 117.48356099999934,
                    "velocity": 0.2755905511811024,
                    "duration": 0.11586149999999407
                },
                {
                    "name": "C#6",
                    "midi": 85,
                    "time": 117.59942249999933,
                    "velocity": 0.2204724409448819,
                    "duration": 0.11586149999999407
                },
                {
                    "name": "B5",
                    "midi": 83,
                    "time": 117.71528399999933,
                    "velocity": 0.2755905511811024,
                    "duration": 0.11586149999999407
                },
                {
                    "name": "C#6",
                    "midi": 85,
                    "time": 117.83114549999932,
                    "velocity": 0.2283464566929134,
                    "duration": 0.11586149999999407
                },
                {
                    "name": "B5",
                    "midi": 83,
                    "time": 117.94700699999932,
                    "velocity": 0.2755905511811024,
                    "duration": 0.11586149999999407
                },
                {
                    "name": "C#6",
                    "midi": 85,
                    "time": 118.06286849999931,
                    "velocity": 0.23622047244094488,
                    "duration": 0.11586149999999407
                },
                {
                    "name": "B5",
                    "midi": 83,
                    "time": 118.1787299999993,
                    "velocity": 0.2755905511811024,
                    "duration": 0.11586149999999407
                },
                {
                    "name": "C#6",
                    "midi": 85,
                    "time": 118.2945914999993,
                    "velocity": 0.23622047244094488,
                    "duration": 0.11586149999999407
                },
                {
                    "name": "B5",
                    "midi": 83,
                    "time": 118.4104529999993,
                    "velocity": 0.2677165354330709,
                    "duration": 0.11586149999999407
                },
                {
                    "name": "C#6",
                    "midi": 85,
                    "time": 118.52631449999929,
                    "velocity": 0.2283464566929134,
                    "duration": 0.11586149999999407
                },
                {
                    "name": "B5",
                    "midi": 83,
                    "time": 118.64217599999928,
                    "velocity": 0.2677165354330709,
                    "duration": 0.11586149999999407
                },
                {
                    "name": "B5",
                    "midi": 83,
                    "time": 118.75803749999928,
                    "velocity": 0.25984251968503935,
                    "duration": 0.11586149999999407
                },
                {
                    "name": "D5",
                    "midi": 74,
                    "time": 118.87389899999927,
                    "velocity": 0.2677165354330709,
                    "duration": 1.3903379999999288
                },
                {
                    "name": "A5",
                    "midi": 81,
                    "time": 118.87389899999927,
                    "velocity": 0.2677165354330709,
                    "duration": 0.11586149999999407
                },
                {
                    "name": "B5",
                    "midi": 83,
                    "time": 118.98976049999926,
                    "velocity": 0.2125984251968504,
                    "duration": 0.11586149999999407
                },
                {
                    "name": "A5",
                    "midi": 81,
                    "time": 119.10562199999926,
                    "velocity": 0.25196850393700787,
                    "duration": 0.11586149999999407
                },
                {
                    "name": "B5",
                    "midi": 83,
                    "time": 119.22148349999925,
                    "velocity": 0.2204724409448819,
                    "duration": 0.11586149999999407
                },
                {
                    "name": "A5",
                    "midi": 81,
                    "time": 119.33734499999925,
                    "velocity": 0.25196850393700787,
                    "duration": 0.11586149999999407
                },
                {
                    "name": "B5",
                    "midi": 83,
                    "time": 119.45320649999924,
                    "velocity": 0.2283464566929134,
                    "duration": 0.11586149999999407
                },
                {
                    "name": "A5",
                    "midi": 81,
                    "time": 119.56906799999923,
                    "velocity": 0.2440944881889764,
                    "duration": 0.11586149999999407
                },
                {
                    "name": "B5",
                    "midi": 83,
                    "time": 119.68492949999923,
                    "velocity": 0.2283464566929134,
                    "duration": 0.11586149999999407
                },
                {
                    "name": "A5",
                    "midi": 81,
                    "time": 119.80079099999922,
                    "velocity": 0.23622047244094488,
                    "duration": 0.11586149999999407
                },
                {
                    "name": "B5",
                    "midi": 83,
                    "time": 119.91665249999922,
                    "velocity": 0.2125984251968504,
                    "duration": 0.11586149999999407
                },
                {
                    "name": "A5",
                    "midi": 81,
                    "time": 120.03251399999921,
                    "velocity": 0.23622047244094488,
                    "duration": 0.11586149999999407
                },
                {
                    "name": "G5",
                    "midi": 79,
                    "time": 120.1483754999992,
                    "velocity": 0.23622047244094488,
                    "duration": 0.11586149999999407
                },
                {
                    "name": "C#5",
                    "midi": 73,
                    "time": 120.2642369999992,
                    "velocity": 0.2204724409448819,
                    "duration": 1.3903379999999288
                },
                {
                    "name": "F5",
                    "midi": 77,
                    "time": 120.2642369999992,
                    "velocity": 0.2204724409448819,
                    "duration": 0.11586149999999407
                },
                {
                    "name": "G5",
                    "midi": 79,
                    "time": 120.38009849999919,
                    "velocity": 0.1889763779527559,
                    "duration": 0.11586149999999407
                },
                {
                    "name": "F5",
                    "midi": 77,
                    "time": 120.49595999999919,
                    "velocity": 0.2204724409448819,
                    "duration": 0.11586149999999407
                },
                {
                    "name": "G5",
                    "midi": 79,
                    "time": 120.61182149999918,
                    "velocity": 0.18110236220472442,
                    "duration": 0.11586149999999407
                },
                {
                    "name": "F5",
                    "midi": 77,
                    "time": 120.72768299999917,
                    "velocity": 0.2125984251968504,
                    "duration": 0.11586149999999407
                },
                {
                    "name": "G5",
                    "midi": 79,
                    "time": 120.84354449999917,
                    "velocity": 0.2047244094488189,
                    "duration": 0.11586149999999407
                },
                {
                    "name": "F5",
                    "midi": 77,
                    "time": 120.95940599999916,
                    "velocity": 0.2204724409448819,
                    "duration": 0.11586149999999407
                },
                {
                    "name": "G5",
                    "midi": 79,
                    "time": 121.07526749999916,
                    "velocity": 0.18110236220472442,
                    "duration": 0.11586149999999407
                },
                {
                    "name": "F5",
                    "midi": 77,
                    "time": 121.19112899999915,
                    "velocity": 0.2204724409448819,
                    "duration": 0.11586149999999407
                },
                {
                    "name": "G5",
                    "midi": 79,
                    "time": 121.30699049999915,
                    "velocity": 0.1889763779527559,
                    "duration": 0.11586149999999407
                },
                {
                    "name": "F5",
                    "midi": 77,
                    "time": 121.42285199999914,
                    "velocity": 0.2047244094488189,
                    "duration": 0.11586149999999407
                },
                {
                    "name": "F6",
                    "midi": 89,
                    "time": 121.53871349999913,
                    "velocity": 0.33070866141732286,
                    "duration": 0.11586149999999407
                },
                {
                    "name": "C#6",
                    "midi": 85,
                    "time": 121.65457499999913,
                    "velocity": 0.4330708661417323,
                    "duration": 0.3475844999999964
                },
                {
                    "name": "C6",
                    "midi": 84,
                    "time": 122.00215949999912,
                    "velocity": 0.3937007874015748,
                    "duration": 0.3475844999999964
                },
                {
                    "name": "C6",
                    "midi": 84,
                    "time": 122.69732849999912,
                    "velocity": 0.3937007874015748,
                    "duration": 0.26068837500000086
                },
                {
                    "name": "C6",
                    "midi": 84,
                    "time": 122.95801687499912,
                    "velocity": 0.3779527559055118,
                    "duration": 0.08689612499999555
                },
                {
                    "name": "B5",
                    "midi": 83,
                    "time": 123.04491299999911,
                    "velocity": 0.4251968503937008,
                    "duration": 0.3475844999999964
                },
                {
                    "name": "G#5",
                    "midi": 80,
                    "time": 123.39249749999911,
                    "velocity": 0.3700787401574803,
                    "duration": 0.3475844999999964
                },
                {
                    "name": "G#5",
                    "midi": 80,
                    "time": 124.0876664999991,
                    "velocity": 0.3937007874015748,
                    "duration": 0.26068837500000086
                },
                {
                    "name": "F6",
                    "midi": 89,
                    "time": 124.3483548749991,
                    "velocity": 0.3937007874015748,
                    "duration": 0.08689612499999555
                },
                {
                    "name": "A5",
                    "midi": 81,
                    "time": 124.4352509999991,
                    "velocity": 0.4409448818897638,
                    "duration": 0.3475844999999964
                },
                {
                    "name": "C6",
                    "midi": 84,
                    "time": 124.7828354999991,
                    "velocity": 0.3937007874015748,
                    "duration": 0.3475844999999964
                },
                {
                    "name": "C6",
                    "midi": 84,
                    "time": 125.47800449999909,
                    "velocity": 0.3937007874015748,
                    "duration": 0.26068837500000086
                },
                {
                    "name": "C6",
                    "midi": 84,
                    "time": 125.73869287499909,
                    "velocity": 0.3937007874015748,
                    "duration": 0.08689612499999555
                },
                {
                    "name": "F6",
                    "midi": 89,
                    "time": 125.82558899999908,
                    "velocity": 0.4409448818897638,
                    "duration": 0.3475844999999964
                },
                {
                    "name": "G#5",
                    "midi": 80,
                    "time": 126.17317349999908,
                    "velocity": 0.3937007874015748,
                    "duration": 0.3475844999999964
                },
                {
                    "name": "C#6",
                    "midi": 85,
                    "time": 126.86834249999907,
                    "velocity": 0.3700787401574803,
                    "duration": 0.26068837500000086
                },
                {
                    "name": "F6",
                    "midi": 89,
                    "time": 127.12903087499907,
                    "velocity": 0.3937007874015748,
                    "duration": 0.08689612499999555
                },
                {
                    "name": "A5",
                    "midi": 81,
                    "time": 127.21592699999907,
                    "velocity": 0.41732283464566927,
                    "duration": 0.3475844999999964
                },
                {
                    "name": "A#5",
                    "midi": 82,
                    "time": 127.56351149999907,
                    "velocity": 0.3858267716535433,
                    "duration": 0.3475844999999964
                },
                {
                    "name": "A#5",
                    "midi": 82,
                    "time": 128.25868049999906,
                    "velocity": 0.3937007874015748,
                    "duration": 0.26068837500000086
                },
                {
                    "name": "F6",
                    "midi": 89,
                    "time": 128.51936887499906,
                    "velocity": 0.3937007874015748,
                    "duration": 0.08689612500000976
                },
                {
                    "name": "A5",
                    "midi": 81,
                    "time": 128.60626499999907,
                    "velocity": 0.4251968503937008,
                    "duration": 0.3475845000000106
                },
                {
                    "name": "A#5",
                    "midi": 82,
                    "time": 128.95384949999908,
                    "velocity": 0.3937007874015748,
                    "duration": 0.3475845000000106
                },
                {
                    "name": "C6",
                    "midi": 84,
                    "time": 129.6490184999991,
                    "velocity": 0.3937007874015748,
                    "duration": 0.26068837500000086
                },
                {
                    "name": "F6",
                    "midi": 89,
                    "time": 129.9097068749991,
                    "velocity": 0.3937007874015748,
                    "duration": 0.08689612500000976
                },
                {
                    "name": "A5",
                    "midi": 81,
                    "time": 129.9966029999991,
                    "velocity": 0.4251968503937008,
                    "duration": 0.3475845000000106
                },
                {
                    "name": "A#5",
                    "midi": 82,
                    "time": 130.34418749999912,
                    "velocity": 0.3937007874015748,
                    "duration": 0.3475845000000106
                },
                {
                    "name": "A#5",
                    "midi": 82,
                    "time": 131.03935649999914,
                    "velocity": 0.3937007874015748,
                    "duration": 0.26068837500000086
                },
                {
                    "name": "F6",
                    "midi": 89,
                    "time": 131.30004487499914,
                    "velocity": 0.3937007874015748,
                    "duration": 0.08689612500000976
                },
                {
                    "name": "A5",
                    "midi": 81,
                    "time": 131.38694099999915,
                    "velocity": 0.4251968503937008,
                    "duration": 0.3475845000000106
                },
                {
                    "name": "C6",
                    "midi": 84,
                    "time": 131.73452549999917,
                    "velocity": 0.3937007874015748,
                    "duration": 0.3475845000000106
                },
                {
                    "name": "C6",
                    "midi": 84,
                    "time": 132.4296944999992,
                    "velocity": 0.3937007874015748,
                    "duration": 0.3475844999999822
                },
                {
                    "name": "F6",
                    "midi": 89,
                    "time": 132.66141749999917,
                    "velocity": 0.33070866141732286,
                    "duration": 0.11586149999999407
                },
                {
                    "name": "C#6",
                    "midi": 85,
                    "time": 132.77727899999917,
                    "velocity": 0.4330708661417323,
                    "duration": 0.3475845000000106
                },
                {
                    "name": "C6",
                    "midi": 84,
                    "time": 133.12486349999918,
                    "velocity": 0.3937007874015748,
                    "duration": 0.3475845000000106
                },
                {
                    "name": "C6",
                    "midi": 84,
                    "time": 133.8200324999992,
                    "velocity": 0.3937007874015748,
                    "duration": 0.26068837500000086
                },
                {
                    "name": "C6",
                    "midi": 84,
                    "time": 134.0807208749992,
                    "velocity": 0.3779527559055118,
                    "duration": 0.08689612500000976
                },
                {
                    "name": "B5",
                    "midi": 83,
                    "time": 134.1676169999992,
                    "velocity": 0.4251968503937008,
                    "duration": 0.3475845000000106
                },
                {
                    "name": "G#5",
                    "midi": 80,
                    "time": 134.51520149999922,
                    "velocity": 0.3700787401574803,
                    "duration": 0.3475845000000106
                },
                {
                    "name": "G#5",
                    "midi": 80,
                    "time": 135.21037049999924,
                    "velocity": 0.3937007874015748,
                    "duration": 0.26068837500000086
                },
                {
                    "name": "F6",
                    "midi": 89,
                    "time": 135.47105887499924,
                    "velocity": 0.3937007874015748,
                    "duration": 0.08689612500000976
                },
                {
                    "name": "A5",
                    "midi": 81,
                    "time": 135.55795499999925,
                    "velocity": 0.4409448818897638,
                    "duration": 0.3475845000000106
                },
                {
                    "name": "C6",
                    "midi": 84,
                    "time": 135.90553949999926,
                    "velocity": 0.3937007874015748,
                    "duration": 0.3475845000000106
                },
                {
                    "name": "C6",
                    "midi": 84,
                    "time": 136.60070849999929,
                    "velocity": 0.3937007874015748,
                    "duration": 0.26068837500000086
                },
                {
                    "name": "C6",
                    "midi": 84,
                    "time": 136.8613968749993,
                    "velocity": 0.3937007874015748,
                    "duration": 0.08689612500000976
                },
                {
                    "name": "F6",
                    "midi": 89,
                    "time": 136.9482929999993,
                    "velocity": 0.4409448818897638,
                    "duration": 0.3475845000000106
                },
                {
                    "name": "G#5",
                    "midi": 80,
                    "time": 137.2958774999993,
                    "velocity": 0.3937007874015748,
                    "duration": 0.3475845000000106
                },
                {
                    "name": "C#6",
                    "midi": 85,
                    "time": 137.99104649999933,
                    "velocity": 0.3700787401574803,
                    "duration": 0.26068837500000086
                },
                {
                    "name": "F6",
                    "midi": 89,
                    "time": 138.25173487499933,
                    "velocity": 0.3937007874015748,
                    "duration": 0.08689612500000976
                },
                {
                    "name": "A5",
                    "midi": 81,
                    "time": 138.33863099999934,
                    "velocity": 0.41732283464566927,
                    "duration": 0.3475845000000106
                },
                {
                    "name": "A#5",
                    "midi": 82,
                    "time": 138.68621549999935,
                    "velocity": 0.3858267716535433,
                    "duration": 0.3475845000000106
                },
                {
                    "name": "A#5",
                    "midi": 82,
                    "time": 139.38138449999937,
                    "velocity": 0.3937007874015748,
                    "duration": 0.26068837500000086
                },
                {
                    "name": "F6",
                    "midi": 89,
                    "time": 139.64207287499937,
                    "velocity": 0.3937007874015748,
                    "duration": 0.08689612500000976
                },
                {
                    "name": "A5",
                    "midi": 81,
                    "time": 139.72896899999938,
                    "velocity": 0.4251968503937008,
                    "duration": 0.3475845000000106
                },
                {
                    "name": "A#5",
                    "midi": 82,
                    "time": 140.0765534999994,
                    "velocity": 0.3937007874015748,
                    "duration": 0.3475845000000106
                },
                {
                    "name": "C6",
                    "midi": 84,
                    "time": 140.7717224999994,
                    "velocity": 0.3937007874015748,
                    "duration": 0.26068837500000086
                },
                {
                    "name": "F6",
                    "midi": 89,
                    "time": 141.0324108749994,
                    "velocity": 0.3937007874015748,
                    "duration": 0.08689612500000976
                },
                {
                    "name": "A5",
                    "midi": 81,
                    "time": 141.11930699999942,
                    "velocity": 0.4251968503937008,
                    "duration": 0.3475845000000106
                },
                {
                    "name": "A#5",
                    "midi": 82,
                    "time": 141.46689149999943,
                    "velocity": 0.3937007874015748,
                    "duration": 0.3475845000000106
                },
                {
                    "name": "A#5",
                    "midi": 82,
                    "time": 142.16206049999946,
                    "velocity": 0.3937007874015748,
                    "duration": 0.26068837500000086
                },
                {
                    "name": "F6",
                    "midi": 89,
                    "time": 142.42274887499946,
                    "velocity": 0.3937007874015748,
                    "duration": 0.08689612500000976
                },
                {
                    "name": "A5",
                    "midi": 81,
                    "time": 142.50964499999947,
                    "velocity": 0.4251968503937008,
                    "duration": 0.3475845000000106
                },
                {
                    "name": "C6",
                    "midi": 84,
                    "time": 142.85722949999948,
                    "velocity": 0.3937007874015748,
                    "duration": 0.3475845000000106
                },
                {
                    "name": "C6",
                    "midi": 84,
                    "time": 143.5523984999995,
                    "velocity": 0.3937007874015748,
                    "duration": 0.26068837500000086
                },
                {
                    "name": "D6",
                    "midi": 86,
                    "time": 143.8130868749995,
                    "velocity": 0.3543307086614173,
                    "duration": 0.08689612500000976
                },
                {
                    "name": "C6",
                    "midi": 84,
                    "time": 143.8999829999995,
                    "velocity": 0.3543307086614173,
                    "duration": 0.1737922499999911
                },
                {
                    "name": "A5",
                    "midi": 81,
                    "time": 143.8999829999995,
                    "velocity": 0.2992125984251969,
                    "duration": 0.1737922499999911
                },
                {
                    "name": "F5",
                    "midi": 77,
                    "time": 143.8999829999995,
                    "velocity": 0.2992125984251969,
                    "duration": 0.1737922499999911
                },
                {
                    "name": "C6",
                    "midi": 84,
                    "time": 144.5082558749995,
                    "velocity": 0.25984251968503935,
                    "duration": 0.08689612500000976
                },
                {
                    "name": "B5",
                    "midi": 83,
                    "time": 144.5951519999995,
                    "velocity": 0.31496062992125984,
                    "duration": 0.1737922499999911
                },
                {
                    "name": "G#5",
                    "midi": 80,
                    "time": 144.5951519999995,
                    "velocity": 0.2677165354330709,
                    "duration": 0.1737922499999911
                },
                {
                    "name": "F5",
                    "midi": 77,
                    "time": 144.5951519999995,
                    "velocity": 0.2677165354330709,
                    "duration": 0.1737922499999911
                },
                {
                    "name": "D6",
                    "midi": 86,
                    "time": 145.20342487499948,
                    "velocity": 0.31496062992125984,
                    "duration": 0.08689612500000976
                },
                {
                    "name": "C6",
                    "midi": 84,
                    "time": 145.2903209999995,
                    "velocity": 0.3543307086614173,
                    "duration": 0.1737922499999911
                },
                {
                    "name": "A5",
                    "midi": 81,
                    "time": 145.2903209999995,
                    "velocity": 0.2992125984251969,
                    "duration": 0.1737922499999911
                },
                {
                    "name": "F5",
                    "midi": 77,
                    "time": 145.2903209999995,
                    "velocity": 0.2992125984251969,
                    "duration": 0.1737922499999911
                },
                {
                    "name": "G#5",
                    "midi": 80,
                    "time": 145.9854899999995,
                    "velocity": 0.3543307086614173,
                    "duration": 0.1737922499999911
                },
                {
                    "name": "F5",
                    "midi": 77,
                    "time": 145.9854899999995,
                    "velocity": 0.2992125984251969,
                    "duration": 0.1737922499999911
                },
                {
                    "name": "C#5",
                    "midi": 73,
                    "time": 145.9854899999995,
                    "velocity": 0.2992125984251969,
                    "duration": 0.1737922499999911
                },
                {
                    "name": "D6",
                    "midi": 86,
                    "time": 146.2461783749995,
                    "velocity": 0.2440944881889764,
                    "duration": 0.08689612500000976
                },
                {
                    "name": "C6",
                    "midi": 84,
                    "time": 146.3330744999995,
                    "velocity": 0.29133858267716534,
                    "duration": 0.1737922499999911
                },
                {
                    "name": "A5",
                    "midi": 81,
                    "time": 146.3330744999995,
                    "velocity": 0.2440944881889764,
                    "duration": 0.1737922499999911
                },
                {
                    "name": "F5",
                    "midi": 77,
                    "time": 146.3330744999995,
                    "velocity": 0.2440944881889764,
                    "duration": 0.1737922499999911
                },
                {
                    "name": "D6",
                    "midi": 86,
                    "time": 146.5937628749995,
                    "velocity": 0.3543307086614173,
                    "duration": 0.08689612500000976
                },
                {
                    "name": "C6",
                    "midi": 84,
                    "time": 146.6806589999995,
                    "velocity": 0.3543307086614173,
                    "duration": 0.1737922499999911
                },
                {
                    "name": "A5",
                    "midi": 81,
                    "time": 146.6806589999995,
                    "velocity": 0.2992125984251969,
                    "duration": 0.1737922499999911
                },
                {
                    "name": "F5",
                    "midi": 77,
                    "time": 146.6806589999995,
                    "velocity": 0.2992125984251969,
                    "duration": 0.1737922499999911
                },
                {
                    "name": "C6",
                    "midi": 84,
                    "time": 147.2889318749995,
                    "velocity": 0.25984251968503935,
                    "duration": 0.08689612500000976
                },
                {
                    "name": "B5",
                    "midi": 83,
                    "time": 147.3758279999995,
                    "velocity": 0.31496062992125984,
                    "duration": 0.1737922499999911
                },
                {
                    "name": "G#5",
                    "midi": 80,
                    "time": 147.3758279999995,
                    "velocity": 0.2677165354330709,
                    "duration": 0.1737922499999911
                },
                {
                    "name": "F5",
                    "midi": 77,
                    "time": 147.3758279999995,
                    "velocity": 0.2677165354330709,
                    "duration": 0.1737922499999911
                },
                {
                    "name": "D6",
                    "midi": 86,
                    "time": 147.98410087499948,
                    "velocity": 0.31496062992125984,
                    "duration": 0.08689612500000976
                },
                {
                    "name": "C6",
                    "midi": 84,
                    "time": 148.0709969999995,
                    "velocity": 0.3543307086614173,
                    "duration": 0.1737922499999911
                },
                {
                    "name": "A5",
                    "midi": 81,
                    "time": 148.0709969999995,
                    "velocity": 0.2992125984251969,
                    "duration": 0.1737922499999911
                },
                {
                    "name": "F5",
                    "midi": 77,
                    "time": 148.0709969999995,
                    "velocity": 0.2992125984251969,
                    "duration": 0.1737922499999911
                },
                {
                    "name": "G#5",
                    "midi": 80,
                    "time": 148.7661659999995,
                    "velocity": 0.3543307086614173,
                    "duration": 0.1737922499999911
                },
                {
                    "name": "F5",
                    "midi": 77,
                    "time": 148.7661659999995,
                    "velocity": 0.2992125984251969,
                    "duration": 0.1737922499999911
                },
                {
                    "name": "C#5",
                    "midi": 73,
                    "time": 148.7661659999995,
                    "velocity": 0.2992125984251969,
                    "duration": 0.1737922499999911
                },
                {
                    "name": "F#4",
                    "midi": 66,
                    "time": 149.72202337499948,
                    "velocity": 0.25196850393700787,
                    "duration": 0.08689612500000976
                },
                {
                    "name": "G4",
                    "midi": 67,
                    "time": 149.8089194999995,
                    "velocity": 0.25196850393700787,
                    "duration": 0.1737922499999911
                },
                {
                    "name": "E4",
                    "midi": 64,
                    "time": 149.8089194999995,
                    "velocity": 0.2125984251968504,
                    "duration": 0.1737922499999911
                },
                {
                    "name": "A4",
                    "midi": 69,
                    "time": 150.41719237499947,
                    "velocity": 0.25196850393700787,
                    "duration": 0.08689612500000976
                },
                {
                    "name": "A#4",
                    "midi": 70,
                    "time": 150.50408849999948,
                    "velocity": 0.25984251968503935,
                    "duration": 0.1737922499999911
                },
                {
                    "name": "G4",
                    "midi": 67,
                    "time": 150.50408849999948,
                    "velocity": 0.2204724409448819,
                    "duration": 0.1737922499999911
                },
                {
                    "name": "B4",
                    "midi": 71,
                    "time": 151.11236137499947,
                    "velocity": 0.25196850393700787,
                    "duration": 0.08689612500000976
                },
                {
                    "name": "G#4",
                    "midi": 68,
                    "time": 151.19925749999948,
                    "velocity": 0.2283464566929134,
                    "duration": 0.1737922499999911
                },
                {
                    "name": "C5",
                    "midi": 72,
                    "time": 151.19925749999948,
                    "velocity": 0.2755905511811024,
                    "duration": 0.1737922499999911
                },
                {
                    "name": "D5",
                    "midi": 74,
                    "time": 151.80753037499946,
                    "velocity": 0.25196850393700787,
                    "duration": 0.08689612500000976
                },
                {
                    "name": "D#5",
                    "midi": 75,
                    "time": 151.89442649999947,
                    "velocity": 0.29133858267716534,
                    "duration": 0.1737922499999911
                },
                {
                    "name": "C5",
                    "midi": 72,
                    "time": 151.89442649999947,
                    "velocity": 0.2440944881889764,
                    "duration": 0.1737922499999911
                },
                {
                    "name": "F5",
                    "midi": 77,
                    "time": 152.50269937499945,
                    "velocity": 0.25196850393700787,
                    "duration": 0.08689612500000976
                },
                {
                    "name": "F#5",
                    "midi": 78,
                    "time": 152.58959549999946,
                    "velocity": 0.30708661417322836,
                    "duration": 0.1737922499999911
                },
                {
                    "name": "D#5",
                    "midi": 75,
                    "time": 152.58959549999946,
                    "velocity": 0.25984251968503935,
                    "duration": 0.1737922499999911
                },
                {
                    "name": "A5",
                    "midi": 81,
                    "time": 153.19786837499944,
                    "velocity": 0.25196850393700787,
                    "duration": 0.08689612500000976
                },
                {
                    "name": "A#5",
                    "midi": 82,
                    "time": 153.28476449999945,
                    "velocity": 0.31496062992125984,
                    "duration": 0.1737922499999911
                },
                {
                    "name": "F#5",
                    "midi": 78,
                    "time": 153.28476449999945,
                    "velocity": 0.2677165354330709,
                    "duration": 0.1737922499999911
                },
                {
                    "name": "D6",
                    "midi": 86,
                    "time": 153.89303737499944,
                    "velocity": 0.25196850393700787,
                    "duration": 0.08689612500000976
                },
                {
                    "name": "D#6",
                    "midi": 87,
                    "time": 153.97993349999945,
                    "velocity": 0.30708661417322836,
                    "duration": 0.1737922499999911
                },
                {
                    "name": "A#5",
                    "midi": 82,
                    "time": 153.97993349999945,
                    "velocity": 0.25984251968503935,
                    "duration": 0.1737922499999911
                },
                {
                    "name": "G5",
                    "midi": 79,
                    "time": 153.97993349999945,
                    "velocity": 0.25984251968503935,
                    "duration": 0.1737922499999911
                },
                {
                    "name": "A6",
                    "midi": 93,
                    "time": 154.58820637499943,
                    "velocity": 0.25196850393700787,
                    "duration": 0.08689612500000976
                },
                {
                    "name": "G6",
                    "midi": 91,
                    "time": 154.67510249999944,
                    "velocity": 0.30708661417322836,
                    "duration": 0.1737922499999911
                },
                {
                    "name": "E6",
                    "midi": 88,
                    "time": 154.67510249999944,
                    "velocity": 0.25984251968503935,
                    "duration": 0.1737922499999911
                },
                {
                    "name": "C6",
                    "midi": 84,
                    "time": 154.67510249999944,
                    "velocity": 0.25984251968503935,
                    "duration": 0.1737922499999911
                },
                {
                    "name": "D6",
                    "midi": 86,
                    "time": 154.93579087499944,
                    "velocity": 0.3543307086614173,
                    "duration": 0.08689612500000976
                },
                {
                    "name": "C6",
                    "midi": 84,
                    "time": 155.02268699999945,
                    "velocity": 0.3543307086614173,
                    "duration": 0.1737922499999911
                },
                {
                    "name": "A5",
                    "midi": 81,
                    "time": 155.02268699999945,
                    "velocity": 0.2992125984251969,
                    "duration": 0.1737922499999911
                },
                {
                    "name": "F5",
                    "midi": 77,
                    "time": 155.02268699999945,
                    "velocity": 0.2992125984251969,
                    "duration": 0.1737922499999911
                },
                {
                    "name": "C6",
                    "midi": 84,
                    "time": 155.63095987499943,
                    "velocity": 0.25984251968503935,
                    "duration": 0.08689612500000976
                },
                {
                    "name": "B5",
                    "midi": 83,
                    "time": 155.71785599999944,
                    "velocity": 0.31496062992125984,
                    "duration": 0.1737922499999911
                },
                {
                    "name": "G#5",
                    "midi": 80,
                    "time": 155.71785599999944,
                    "velocity": 0.2677165354330709,
                    "duration": 0.1737922499999911
                },
                {
                    "name": "F5",
                    "midi": 77,
                    "time": 155.71785599999944,
                    "velocity": 0.2677165354330709,
                    "duration": 0.1737922499999911
                },
                {
                    "name": "D6",
                    "midi": 86,
                    "time": 156.32612887499943,
                    "velocity": 0.31496062992125984,
                    "duration": 0.08689612500000976
                },
                {
                    "name": "C6",
                    "midi": 84,
                    "time": 156.41302499999944,
                    "velocity": 0.3543307086614173,
                    "duration": 0.1737922499999911
                },
                {
                    "name": "A5",
                    "midi": 81,
                    "time": 156.41302499999944,
                    "velocity": 0.2992125984251969,
                    "duration": 0.1737922499999911
                },
                {
                    "name": "F5",
                    "midi": 77,
                    "time": 156.41302499999944,
                    "velocity": 0.2992125984251969,
                    "duration": 0.1737922499999911
                },
                {
                    "name": "C6",
                    "midi": 84,
                    "time": 157.02129787499942,
                    "velocity": 0.25984251968503935,
                    "duration": 0.08689612500000976
                },
                {
                    "name": "G#5",
                    "midi": 80,
                    "time": 157.10819399999943,
                    "velocity": 0.2992125984251969,
                    "duration": 0.1737922499999911
                },
                {
                    "name": "F5",
                    "midi": 77,
                    "time": 157.10819399999943,
                    "velocity": 0.2992125984251969,
                    "duration": 0.1737922499999911
                },
                {
                    "name": "B5",
                    "midi": 83,
                    "time": 157.10819399999943,
                    "velocity": 0.3543307086614173,
                    "duration": 0.1737922499999911
                },
                {
                    "name": "D6",
                    "midi": 86,
                    "time": 157.36888237499943,
                    "velocity": 0.2440944881889764,
                    "duration": 0.08689612500000976
                },
                {
                    "name": "C6",
                    "midi": 84,
                    "time": 157.45577849999944,
                    "velocity": 0.29133858267716534,
                    "duration": 0.1737922499999911
                },
                {
                    "name": "A5",
                    "midi": 81,
                    "time": 157.45577849999944,
                    "velocity": 0.2440944881889764,
                    "duration": 0.1737922499999911
                },
                {
                    "name": "F5",
                    "midi": 77,
                    "time": 157.45577849999944,
                    "velocity": 0.2440944881889764,
                    "duration": 0.1737922499999911
                },
                {
                    "name": "D6",
                    "midi": 86,
                    "time": 157.71646687499944,
                    "velocity": 0.3543307086614173,
                    "duration": 0.08689612500000976
                },
                {
                    "name": "C6",
                    "midi": 84,
                    "time": 157.80336299999945,
                    "velocity": 0.3543307086614173,
                    "duration": 0.1737922499999911
                },
                {
                    "name": "A5",
                    "midi": 81,
                    "time": 157.80336299999945,
                    "velocity": 0.2992125984251969,
                    "duration": 0.1737922499999911
                },
                {
                    "name": "F5",
                    "midi": 77,
                    "time": 157.80336299999945,
                    "velocity": 0.2992125984251969,
                    "duration": 0.1737922499999911
                },
                {
                    "name": "C6",
                    "midi": 84,
                    "time": 158.41163587499943,
                    "velocity": 0.25984251968503935,
                    "duration": 0.08689612500000976
                },
                {
                    "name": "B5",
                    "midi": 83,
                    "time": 158.49853199999944,
                    "velocity": 0.31496062992125984,
                    "duration": 0.1737922499999911
                },
                {
                    "name": "G#5",
                    "midi": 80,
                    "time": 158.49853199999944,
                    "velocity": 0.2677165354330709,
                    "duration": 0.1737922499999911
                },
                {
                    "name": "F5",
                    "midi": 77,
                    "time": 158.49853199999944,
                    "velocity": 0.2677165354330709,
                    "duration": 0.1737922499999911
                },
                {
                    "name": "D6",
                    "midi": 86,
                    "time": 159.10680487499943,
                    "velocity": 0.31496062992125984,
                    "duration": 0.08689612500000976
                },
                {
                    "name": "C6",
                    "midi": 84,
                    "time": 159.19370099999944,
                    "velocity": 0.3543307086614173,
                    "duration": 0.1737922499999911
                },
                {
                    "name": "A5",
                    "midi": 81,
                    "time": 159.19370099999944,
                    "velocity": 0.2992125984251969,
                    "duration": 0.1737922499999911
                },
                {
                    "name": "F5",
                    "midi": 77,
                    "time": 159.19370099999944,
                    "velocity": 0.2992125984251969,
                    "duration": 0.1737922499999911
                },
                {
                    "name": "G#5",
                    "midi": 80,
                    "time": 159.88886999999943,
                    "velocity": 0.3543307086614173,
                    "duration": 0.1737922499999911
                },
                {
                    "name": "F5",
                    "midi": 77,
                    "time": 159.88886999999943,
                    "velocity": 0.2992125984251969,
                    "duration": 0.1737922499999911
                },
                {
                    "name": "C#5",
                    "midi": 73,
                    "time": 159.88886999999943,
                    "velocity": 0.2992125984251969,
                    "duration": 0.1737922499999911
                },
                {
                    "name": "A#4",
                    "midi": 70,
                    "time": 160.84472737499942,
                    "velocity": 0.25196850393700787,
                    "duration": 0.08689612500000976
                },
                {
                    "name": "B4",
                    "midi": 71,
                    "time": 160.93162349999943,
                    "velocity": 0.25196850393700787,
                    "duration": 0.1737922499999911
                },
                {
                    "name": "G#4",
                    "midi": 68,
                    "time": 160.93162349999943,
                    "velocity": 0.2125984251968504,
                    "duration": 0.1737922499999911
                },
                {
                    "name": "C5",
                    "midi": 72,
                    "time": 161.53989637499942,
                    "velocity": 0.25196850393700787,
                    "duration": 0.08689612500000976
                },
                {
                    "name": "C#5",
                    "midi": 73,
                    "time": 161.62679249999942,
                    "velocity": 0.25984251968503935,
                    "duration": 0.1737922499999911
                },
                {
                    "name": "A4",
                    "midi": 69,
                    "time": 161.62679249999942,
                    "velocity": 0.2204724409448819,
                    "duration": 0.1737922499999911
                },
                {
                    "name": "D#5",
                    "midi": 75,
                    "time": 162.2350653749994,
                    "velocity": 0.25196850393700787,
                    "duration": 0.08689612500000976
                },
                {
                    "name": "C#5",
                    "midi": 73,
                    "time": 162.32196149999942,
                    "velocity": 0.2283464566929134,
                    "duration": 0.1737922499999911
                },
                {
                    "name": "E5",
                    "midi": 76,
                    "time": 162.32196149999942,
                    "velocity": 0.2755905511811024,
                    "duration": 0.1737922499999911
                },
                {
                    "name": "F5",
                    "midi": 77,
                    "time": 162.9302343749994,
                    "velocity": 0.25196850393700787,
                    "duration": 0.08689612500000976
                },
                {
                    "name": "F#5",
                    "midi": 78,
                    "time": 163.0171304999994,
                    "velocity": 0.29133858267716534,
                    "duration": 0.1737922499999911
                },
                {
                    "name": "D5",
                    "midi": 74,
                    "time": 163.0171304999994,
                    "velocity": 0.2440944881889764,
                    "duration": 0.1737922499999911
                },
                {
                    "name": "C5",
                    "midi": 72,
                    "time": 163.6254033749994,
                    "velocity": 0.25196850393700787,
                    "duration": 0.08689612500000976
                },
                {
                    "name": "C#5",
                    "midi": 73,
                    "time": 163.7122994999994,
                    "velocity": 0.25196850393700787,
                    "duration": 0.1737922499999911
                },
                {
                    "name": "A#4",
                    "midi": 70,
                    "time": 163.7122994999994,
                    "velocity": 0.2125984251968504,
                    "duration": 0.1737922499999911
                },
                {
                    "name": "D5",
                    "midi": 74,
                    "time": 164.3205723749994,
                    "velocity": 0.25196850393700787,
                    "duration": 0.08689612500000976
                },
                {
                    "name": "D#5",
                    "midi": 75,
                    "time": 164.4074684999994,
                    "velocity": 0.25984251968503935,
                    "duration": 0.1737922499999911
                },
                {
                    "name": "B4",
                    "midi": 71,
                    "time": 164.4074684999994,
                    "velocity": 0.2204724409448819,
                    "duration": 0.1737922499999911
                },
                {
                    "name": "E5",
                    "midi": 76,
                    "time": 165.01574137499938,
                    "velocity": 0.25196850393700787,
                    "duration": 0.08689612500000976
                },
                {
                    "name": "C#5",
                    "midi": 73,
                    "time": 165.1026374999994,
                    "velocity": 0.2283464566929134,
                    "duration": 0.1737922499999911
                },
                {
                    "name": "F5",
                    "midi": 77,
                    "time": 165.1026374999994,
                    "velocity": 0.2755905511811024,
                    "duration": 0.1737922499999911
                },
                {
                    "name": "G5",
                    "midi": 79,
                    "time": 165.71091037499937,
                    "velocity": 0.25196850393700787,
                    "duration": 0.08689612500000976
                },
                {
                    "name": "G#5",
                    "midi": 80,
                    "time": 165.79780649999938,
                    "velocity": 0.29133858267716534,
                    "duration": 0.1737922499999911
                },
                {
                    "name": "E5",
                    "midi": 76,
                    "time": 165.79780649999938,
                    "velocity": 0.2440944881889764,
                    "duration": 0.1737922499999911
                },
                {
                    "name": "A6",
                    "midi": 93,
                    "time": 166.05849487499938,
                    "velocity": 0.4330708661417323,
                    "duration": 0.08689612500000976
                },
                {
                    "name": "A#6",
                    "midi": 94,
                    "time": 166.1453909999994,
                    "velocity": 0.49606299212598426,
                    "duration": 0.1737922499999911
                },
                {
                    "name": "F#6",
                    "midi": 90,
                    "time": 166.1453909999994,
                    "velocity": 0.41732283464566927,
                    "duration": 0.1737922499999911
                },
                {
                    "name": "G#6",
                    "midi": 92,
                    "time": 166.75366387499938,
                    "velocity": 0.4015748031496063,
                    "duration": 0.08689612500000976
                },
                {
                    "name": "A6",
                    "midi": 93,
                    "time": 166.84055999999939,
                    "velocity": 0.4409448818897638,
                    "duration": 0.1737922499999911
                },
                {
                    "name": "F6",
                    "midi": 89,
                    "time": 166.84055999999939,
                    "velocity": 0.3700787401574803,
                    "duration": 0.1737922499999911
                },
                {
                    "name": "A#5",
                    "midi": 82,
                    "time": 167.44883287499937,
                    "velocity": 0.3937007874015748,
                    "duration": 0.08689612500000976
                },
                {
                    "name": "B5",
                    "midi": 83,
                    "time": 167.53572899999938,
                    "velocity": 0.4330708661417323,
                    "duration": 0.1737922499999911
                },
                {
                    "name": "A5",
                    "midi": 81,
                    "time": 167.53572899999938,
                    "velocity": 0.36220472440944884,
                    "duration": 0.1737922499999911
                },
                {
                    "name": "A#5",
                    "midi": 82,
                    "time": 168.14400187499936,
                    "velocity": 0.3700787401574803,
                    "duration": 0.08689612500000976
                },
                {
                    "name": "C6",
                    "midi": 84,
                    "time": 168.23089799999937,
                    "velocity": 0.4094488188976378,
                    "duration": 0.1737922499999911
                },
                {
                    "name": "G5",
                    "midi": 79,
                    "time": 168.23089799999937,
                    "velocity": 0.3464566929133858,
                    "duration": 0.1737922499999911
                },
                {
                    "name": "E6",
                    "midi": 88,
                    "time": 168.83917087499935,
                    "velocity": 0.41732283464566927,
                    "duration": 0.08689612500000976
                },
                {
                    "name": "F6",
                    "midi": 89,
                    "time": 168.92606699999936,
                    "velocity": 0.44881889763779526,
                    "duration": 0.1737922499999911
                },
                {
                    "name": "C#6",
                    "midi": 85,
                    "time": 168.92606699999936,
                    "velocity": 0.3779527559055118,
                    "duration": 0.1737922499999911
                },
                {
                    "name": "C#6",
                    "midi": 85,
                    "time": 169.53433987499935,
                    "velocity": 0.4015748031496063,
                    "duration": 0.08689612500000976
                },
                {
                    "name": "A#5",
                    "midi": 82,
                    "time": 169.62123599999936,
                    "velocity": 0.3543307086614173,
                    "duration": 0.1737922499999911
                },
                {
                    "name": "D6",
                    "midi": 86,
                    "time": 169.62123599999936,
                    "velocity": 0.4251968503937008,
                    "duration": 0.1737922499999911
                },
                {
                    "name": "E5",
                    "midi": 76,
                    "time": 170.22950887499934,
                    "velocity": 0.4330708661417323,
                    "duration": 0.08689612500000976
                },
                {
                    "name": "C#5",
                    "midi": 73,
                    "time": 170.31640499999935,
                    "velocity": 0.4015748031496063,
                    "duration": 0.1737922499999911
                },
                {
                    "name": "F5",
                    "midi": 77,
                    "time": 170.31640499999935,
                    "velocity": 0.47244094488188976,
                    "duration": 0.1737922499999911
                },
                {
                    "name": "F#5",
                    "midi": 78,
                    "time": 170.92467787499933,
                    "velocity": 0.41732283464566927,
                    "duration": 0.08689612500000976
                },
                {
                    "name": "G5",
                    "midi": 79,
                    "time": 171.01157399999934,
                    "velocity": 0.44881889763779526,
                    "duration": 0.1737922499999911
                },
                {
                    "name": "E5",
                    "midi": 76,
                    "time": 171.01157399999934,
                    "velocity": 0.3779527559055118,
                    "duration": 0.1737922499999911
                },
                {
                    "name": "C6",
                    "midi": 84,
                    "time": 171.61984687499933,
                    "velocity": 0.5511811023622047,
                    "duration": 0.08689612500000976
                },
                {
                    "name": "C#6",
                    "midi": 85,
                    "time": 171.70674299999934,
                    "velocity": 0.6220472440944882,
                    "duration": 2.433091499999989
                },
                {
                    "name": "C6",
                    "midi": 84,
                    "time": 174.40052287499933,
                    "velocity": 0.41732283464566927,
                    "duration": 0.08689612500000976
                },
                {
                    "name": "C#6",
                    "midi": 85,
                    "time": 174.48741899999933,
                    "velocity": 0.4645669291338583,
                    "duration": 0.3475845000000106
                },
                {
                    "name": "C6",
                    "midi": 84,
                    "time": 175.09569187499935,
                    "velocity": 0.3779527559055118,
                    "duration": 0.08689612500000976
                },
                {
                    "name": "G#5",
                    "midi": 80,
                    "time": 175.18258799999936,
                    "velocity": 0.4251968503937008,
                    "duration": 0.3475845000000106
                },
                {
                    "name": "A5",
                    "midi": 81,
                    "time": 175.53017249999937,
                    "velocity": 0.36220472440944884,
                    "duration": 0.26068837500000086
                },
                {
                    "name": "G#6",
                    "midi": 92,
                    "time": 175.79086087499937,
                    "velocity": 0.25984251968503935,
                    "duration": 0.08689612500000976
                },
                {
                    "name": "A6",
                    "midi": 93,
                    "time": 175.87775699999938,
                    "velocity": 0.31496062992125984,
                    "duration": 0.6951689999999928
                },
                {
                    "name": "F6",
                    "midi": 89,
                    "time": 175.87775699999938,
                    "velocity": 0.31496062992125984,
                    "duration": 0.6951689999999928
                },
                {
                    "name": "C6",
                    "midi": 84,
                    "time": 175.87775699999938,
                    "velocity": 0.2677165354330709,
                    "duration": 0.6951689999999928
                }
            ],
            "controlChanges": {
                "7": [
                    {
                        "number": 7,
                        "time": 0,
                        "value": 0.7874015748031497
                    }
                ],
                "10": [
                    {
                        "number": 10,
                        "time": 0,
                        "value": 0.5039370078740157
                    }
                ],
                "91": [
                    {
                        "number": 91,
                        "time": 0,
                        "value": 1
                    },
                    {
                        "number": 91,
                        "time": 0.6966172687500001,
                        "value": 1
                    }
                ]
            },
            "id": 1,
            "name": "Piano right",
            "instrumentNumber": 0,
            "instrument": "acoustic grand piano",
            "instrumentFamily": "piano",
            "channelNumber": 0,
            "isPercussion": false
        },
        {
            "startTime": 1.390338,
            "duration": 176.57292599999977,
            "length": 512,
            "notes": [
                {
                    "name": "D5",
                    "midi": 74,
                    "time": 1.390338,
                    "velocity": 0.33858267716535434,
                    "duration": 0.6951690000000001
                },
                {
                    "name": "C5",
                    "midi": 72,
                    "time": 2.085507,
                    "velocity": 0.33858267716535434,
                    "duration": 0.6951689999999999
                },
                {
                    "name": "E5",
                    "midi": 76,
                    "time": 2.085507,
                    "velocity": 0.33858267716535434,
                    "duration": 0.6951689999999999
                },
                {
                    "name": "D5",
                    "midi": 74,
                    "time": 2.780676,
                    "velocity": 0.3543307086614173,
                    "duration": 0.6951689999999999
                },
                {
                    "name": "F5",
                    "midi": 77,
                    "time": 2.780676,
                    "velocity": 0.3543307086614173,
                    "duration": 0.6951689999999999
                },
                {
                    "name": "C5",
                    "midi": 72,
                    "time": 3.475845,
                    "velocity": 0.3228346456692913,
                    "duration": 0.6951690000000004
                },
                {
                    "name": "E5",
                    "midi": 76,
                    "time": 3.475845,
                    "velocity": 0.3228346456692913,
                    "duration": 0.6951690000000004
                },
                {
                    "name": "A#4",
                    "midi": 70,
                    "time": 4.171014,
                    "velocity": 0.31496062992125984,
                    "duration": 0.6951689999999999
                },
                {
                    "name": "D5",
                    "midi": 74,
                    "time": 4.171014,
                    "velocity": 0.31496062992125984,
                    "duration": 0.6951689999999999
                },
                {
                    "name": "G4",
                    "midi": 67,
                    "time": 4.866183,
                    "velocity": 0.30708661417322836,
                    "duration": 0.6951689999999999
                },
                {
                    "name": "A#4",
                    "midi": 70,
                    "time": 4.866183,
                    "velocity": 0.30708661417322836,
                    "duration": 0.6951689999999999
                },
                {
                    "name": "E4",
                    "midi": 64,
                    "time": 5.561352,
                    "velocity": 0.2677165354330709,
                    "duration": 0.6951689999999999
                },
                {
                    "name": "A#4",
                    "midi": 70,
                    "time": 5.561352,
                    "velocity": 0.2677165354330709,
                    "duration": 0.6951689999999999
                },
                {
                    "name": "D5",
                    "midi": 74,
                    "time": 5.561352,
                    "velocity": 0.2677165354330709,
                    "duration": 0.6951689999999999
                },
                {
                    "name": "G4",
                    "midi": 67,
                    "time": 6.256521,
                    "velocity": 0.2204724409448819,
                    "duration": 0.6951689999999999
                },
                {
                    "name": "A#4",
                    "midi": 70,
                    "time": 6.256521,
                    "velocity": 0.2204724409448819,
                    "duration": 0.6951689999999999
                },
                {
                    "name": "D5",
                    "midi": 74,
                    "time": 6.256521,
                    "velocity": 0.2204724409448819,
                    "duration": 0.6951689999999999
                },
                {
                    "name": "A4",
                    "midi": 69,
                    "time": 6.95169,
                    "velocity": 0.1968503937007874,
                    "duration": 0.6951689999999999
                },
                {
                    "name": "C#5",
                    "midi": 73,
                    "time": 6.95169,
                    "velocity": 0.1968503937007874,
                    "duration": 0.6951689999999999
                },
                {
                    "name": "G3",
                    "midi": 55,
                    "time": 9.037197,
                    "velocity": 0.28346456692913385,
                    "duration": 0.6951689999999999
                },
                {
                    "name": "D4",
                    "midi": 62,
                    "time": 9.037197,
                    "velocity": 0.33858267716535434,
                    "duration": 0.6951689999999999
                },
                {
                    "name": "A3",
                    "midi": 57,
                    "time": 9.732366,
                    "velocity": 0.28346456692913385,
                    "duration": 0.6951689999999999
                },
                {
                    "name": "C#4",
                    "midi": 61,
                    "time": 9.732366,
                    "velocity": 0.33858267716535434,
                    "duration": 0.6951689999999999
                },
                {
                    "name": "F3",
                    "midi": 53,
                    "time": 10.427535,
                    "velocity": 0.28346456692913385,
                    "duration": 0.6951689999999999
                },
                {
                    "name": "D4",
                    "midi": 62,
                    "time": 10.427535,
                    "velocity": 0.33858267716535434,
                    "duration": 0.6951689999999999
                },
                {
                    "name": "C#4",
                    "midi": 61,
                    "time": 11.122704,
                    "velocity": 0.33858267716535434,
                    "duration": 0.6951689999999999
                },
                {
                    "name": "E3",
                    "midi": 52,
                    "time": 11.122704,
                    "velocity": 0.28346456692913385,
                    "duration": 0.6951689999999999
                },
                {
                    "name": "D4",
                    "midi": 62,
                    "time": 11.817873,
                    "velocity": 0.3543307086614173,
                    "duration": 0.6951689999999999
                },
                {
                    "name": "D3",
                    "midi": 50,
                    "time": 11.817873,
                    "velocity": 0.2992125984251969,
                    "duration": 0.6951689999999999
                },
                {
                    "name": "C4",
                    "midi": 60,
                    "time": 12.513042,
                    "velocity": 0.3228346456692913,
                    "duration": 0.6951689999999999
                },
                {
                    "name": "C3",
                    "midi": 48,
                    "time": 12.513042,
                    "velocity": 0.2677165354330709,
                    "duration": 0.6951689999999999
                },
                {
                    "name": "A#3",
                    "midi": 58,
                    "time": 13.208211,
                    "velocity": 0.31496062992125984,
                    "duration": 0.6517209375000004
                },
                {
                    "name": "A#2",
                    "midi": 46,
                    "time": 13.208211,
                    "velocity": 0.2677165354330709,
                    "duration": 0.6517209375000004
                },
                {
                    "name": "G3",
                    "midi": 55,
                    "time": 13.90338,
                    "velocity": 0.3700787401574803,
                    "duration": 0.6951689999999999
                },
                {
                    "name": "G2",
                    "midi": 43,
                    "time": 13.90338,
                    "velocity": 0.30708661417322836,
                    "duration": 0.6951689999999999
                },
                {
                    "name": "C3",
                    "midi": 48,
                    "time": 14.598549,
                    "velocity": 0.33858267716535434,
                    "duration": 0.6951689999999999
                },
                {
                    "name": "C2",
                    "midi": 36,
                    "time": 14.598549,
                    "velocity": 0.28346456692913385,
                    "duration": 0.6951689999999999
                },
                {
                    "name": "D2",
                    "midi": 38,
                    "time": 15.293718,
                    "velocity": 0.25196850393700787,
                    "duration": 0.6951689999999999
                },
                {
                    "name": "D3",
                    "midi": 50,
                    "time": 15.293718,
                    "velocity": 0.2992125984251969,
                    "duration": 0.6951689999999999
                },
                {
                    "name": "C#2",
                    "midi": 37,
                    "time": 15.988887,
                    "velocity": 0.2283464566929134,
                    "duration": 0.6517209375000004
                },
                {
                    "name": "C#3",
                    "midi": 49,
                    "time": 15.988887,
                    "velocity": 0.2755905511811024,
                    "duration": 0.6517209375000004
                },
                {
                    "name": "A1",
                    "midi": 33,
                    "time": 16.684056,
                    "velocity": 0.4409448818897638,
                    "duration": 0.6951689999999999
                },
                {
                    "name": "A2",
                    "midi": 45,
                    "time": 16.684056,
                    "velocity": 0.5196850393700787,
                    "duration": 0.6951689999999999
                },
                {
                    "name": "A#1",
                    "midi": 34,
                    "time": 17.379225,
                    "velocity": 0.47244094488188976,
                    "duration": 0.6951689999999999
                },
                {
                    "name": "A#2",
                    "midi": 46,
                    "time": 17.379225,
                    "velocity": 0.5590551181102362,
                    "duration": 0.6951689999999999
                },
                {
                    "name": "E1",
                    "midi": 28,
                    "time": 18.074394,
                    "velocity": 0.4409448818897638,
                    "duration": 0.6951689999999999
                },
                {
                    "name": "E2",
                    "midi": 40,
                    "time": 18.074394,
                    "velocity": 0.5196850393700787,
                    "duration": 0.6951689999999999
                },
                {
                    "name": "A1",
                    "midi": 33,
                    "time": 18.769563,
                    "velocity": 0.4409448818897638,
                    "duration": 0.34758449999999996
                },
                {
                    "name": "A2",
                    "midi": 45,
                    "time": 18.769563,
                    "velocity": 0.5196850393700787,
                    "duration": 0.34758449999999996
                },
                {
                    "name": "A#1",
                    "midi": 34,
                    "time": 19.1171475,
                    "velocity": 0.4015748031496063,
                    "duration": 0.34758449999999996
                },
                {
                    "name": "A#2",
                    "midi": 46,
                    "time": 19.1171475,
                    "velocity": 0.48031496062992124,
                    "duration": 0.34758449999999996
                },
                {
                    "name": "E1",
                    "midi": 28,
                    "time": 19.464732,
                    "velocity": 0.41732283464566927,
                    "duration": 0.6951689999999999
                },
                {
                    "name": "E2",
                    "midi": 40,
                    "time": 19.464732,
                    "velocity": 0.49606299212598426,
                    "duration": 0.6951689999999999
                },
                {
                    "name": "A#1",
                    "midi": 34,
                    "time": 20.159901,
                    "velocity": 0.4409448818897638,
                    "duration": 0.34758449999999996
                },
                {
                    "name": "A#2",
                    "midi": 46,
                    "time": 20.159901,
                    "velocity": 0.5196850393700787,
                    "duration": 0.34758449999999996
                },
                {
                    "name": "C2",
                    "midi": 36,
                    "time": 20.5074855,
                    "velocity": 0.4015748031496063,
                    "duration": 0.34758449999999996
                },
                {
                    "name": "C3",
                    "midi": 48,
                    "time": 20.5074855,
                    "velocity": 0.47244094488188976,
                    "duration": 0.34758449999999996
                },
                {
                    "name": "A1",
                    "midi": 33,
                    "time": 20.85507,
                    "velocity": 0.4094488188976378,
                    "duration": 0.6951689999999999
                },
                {
                    "name": "A2",
                    "midi": 45,
                    "time": 20.85507,
                    "velocity": 0.4881889763779528,
                    "duration": 0.6951689999999999
                },
                {
                    "name": "A2",
                    "midi": 45,
                    "time": 21.550239,
                    "velocity": 0.4881889763779528,
                    "duration": 0.6517209374999986
                },
                {
                    "name": "A3",
                    "midi": 57,
                    "time": 21.550239,
                    "velocity": 0.5826771653543307,
                    "duration": 0.6517209374999986
                },
                {
                    "name": "F2",
                    "midi": 41,
                    "time": 22.245408,
                    "velocity": 0.5118110236220472,
                    "duration": 0.6951689999999999
                },
                {
                    "name": "F3",
                    "midi": 53,
                    "time": 22.245408,
                    "velocity": 0.6062992125984252,
                    "duration": 0.6951689999999999
                },
                {
                    "name": "E2",
                    "midi": 40,
                    "time": 22.940577,
                    "velocity": 0.5118110236220472,
                    "duration": 0.34758449999999996
                },
                {
                    "name": "E3",
                    "midi": 52,
                    "time": 22.940577,
                    "velocity": 0.6062992125984252,
                    "duration": 0.34758449999999996
                },
                {
                    "name": "D3",
                    "midi": 50,
                    "time": 23.2881615,
                    "velocity": 0.5354330708661418,
                    "duration": 0.34758449999999996
                },
                {
                    "name": "D2",
                    "midi": 38,
                    "time": 23.2881615,
                    "velocity": 0.44881889763779526,
                    "duration": 0.34758449999999996
                },
                {
                    "name": "A1",
                    "midi": 33,
                    "time": 23.635746,
                    "velocity": 0.48031496062992124,
                    "duration": 0.6951689999999999
                },
                {
                    "name": "A2",
                    "midi": 45,
                    "time": 23.635746,
                    "velocity": 0.5669291338582677,
                    "duration": 0.6951689999999999
                },
                {
                    "name": "A#1",
                    "midi": 34,
                    "time": 24.330915,
                    "velocity": 0.4409448818897638,
                    "duration": 0.6951689999999999
                },
                {
                    "name": "A#2",
                    "midi": 46,
                    "time": 24.330915,
                    "velocity": 0.5196850393700787,
                    "duration": 0.6951689999999999
                },
                {
                    "name": "F1",
                    "midi": 29,
                    "time": 25.026084,
                    "velocity": 0.4409448818897638,
                    "duration": 0.6951689999999999
                },
                {
                    "name": "F2",
                    "midi": 41,
                    "time": 25.026084,
                    "velocity": 0.5196850393700787,
                    "duration": 0.6951689999999999
                },
                {
                    "name": "G1",
                    "midi": 31,
                    "time": 25.721253,
                    "velocity": 0.4015748031496063,
                    "duration": 2.0855069999999998
                },
                {
                    "name": "G2",
                    "midi": 43,
                    "time": 25.721253,
                    "velocity": 0.48031496062992124,
                    "duration": 2.0855069999999998
                },
                {
                    "name": "A#1",
                    "midi": 34,
                    "time": 27.80676,
                    "velocity": 0.4015748031496063,
                    "duration": 0.6951689999999999
                },
                {
                    "name": "A#2",
                    "midi": 46,
                    "time": 27.80676,
                    "velocity": 0.47244094488188976,
                    "duration": 0.6951689999999999
                },
                {
                    "name": "E2",
                    "midi": 40,
                    "time": 28.501929,
                    "velocity": 0.5039370078740157,
                    "duration": 1.3468899374999985
                },
                {
                    "name": "E3",
                    "midi": 52,
                    "time": 28.501929,
                    "velocity": 0.5039370078740157,
                    "duration": 1.3468899374999985
                },
                {
                    "name": "A1",
                    "midi": 33,
                    "time": 29.892267,
                    "velocity": 0.5196850393700787,
                    "duration": 0.6951689999999999
                },
                {
                    "name": "A2",
                    "midi": 45,
                    "time": 29.892267,
                    "velocity": 0.5196850393700787,
                    "duration": 0.6951689999999999
                },
                {
                    "name": "A#1",
                    "midi": 34,
                    "time": 30.587436,
                    "velocity": 0.5039370078740157,
                    "duration": 0.6951689999999999
                },
                {
                    "name": "A#2",
                    "midi": 46,
                    "time": 30.587436,
                    "velocity": 0.5039370078740157,
                    "duration": 0.6951689999999999
                },
                {
                    "name": "G1",
                    "midi": 31,
                    "time": 31.282605,
                    "velocity": 0.44881889763779526,
                    "duration": 0.6951689999999999
                },
                {
                    "name": "G2",
                    "midi": 43,
                    "time": 31.282605,
                    "velocity": 0.44881889763779526,
                    "duration": 0.6951689999999999
                },
                {
                    "name": "A1",
                    "midi": 33,
                    "time": 31.977774,
                    "velocity": 0.4251968503937008,
                    "duration": 0.6951690000000035
                },
                {
                    "name": "A2",
                    "midi": 45,
                    "time": 31.977774,
                    "velocity": 0.4251968503937008,
                    "duration": 0.6951690000000035
                },
                {
                    "name": "A2",
                    "midi": 45,
                    "time": 33.368112,
                    "velocity": 0.3543307086614173,
                    "duration": 0.6951689999999999
                },
                {
                    "name": "A3",
                    "midi": 57,
                    "time": 34.063281,
                    "velocity": 0.3543307086614173,
                    "duration": 0.6951689999999999
                },
                {
                    "name": "F4",
                    "midi": 65,
                    "time": 34.93224225,
                    "velocity": 0.31496062992125984,
                    "duration": 0.08689612500000266
                },
                {
                    "name": "A4",
                    "midi": 69,
                    "time": 34.93224225,
                    "velocity": 0.31496062992125984,
                    "duration": 0.08689612500000266
                },
                {
                    "name": "C5",
                    "midi": 72,
                    "time": 34.93224225,
                    "velocity": 0.3779527559055118,
                    "duration": 0.08689612500000266
                },
                {
                    "name": "B4",
                    "midi": 71,
                    "time": 35.279826750000005,
                    "velocity": 0.33070866141732286,
                    "duration": 0.08689612500000266
                },
                {
                    "name": "G#4",
                    "midi": 68,
                    "time": 35.279826750000005,
                    "velocity": 0.2755905511811024,
                    "duration": 0.08689612500000266
                },
                {
                    "name": "F4",
                    "midi": 65,
                    "time": 35.279826750000005,
                    "velocity": 0.2755905511811024,
                    "duration": 0.08689612500000266
                },
                {
                    "name": "A3",
                    "midi": 57,
                    "time": 36.14878800000001,
                    "velocity": 0.30708661417322836,
                    "duration": 0.6951689999999999
                },
                {
                    "name": "A4",
                    "midi": 69,
                    "time": 37.53912600000001,
                    "velocity": 0.2677165354330709,
                    "duration": 0.3475845000000035
                },
                {
                    "name": "F4",
                    "midi": 65,
                    "time": 38.581879500000014,
                    "velocity": 0.2204724409448819,
                    "duration": 0.1737922499999982
                },
                {
                    "name": "A4",
                    "midi": 69,
                    "time": 38.581879500000014,
                    "velocity": 0.2204724409448819,
                    "duration": 0.1737922499999982
                },
                {
                    "name": "C5",
                    "midi": 72,
                    "time": 38.581879500000014,
                    "velocity": 0.2677165354330709,
                    "duration": 0.1737922499999982
                },
                {
                    "name": "C#5",
                    "midi": 73,
                    "time": 39.277048500000014,
                    "velocity": 0.2440944881889764,
                    "duration": 0.1737922499999982
                },
                {
                    "name": "G#4",
                    "midi": 68,
                    "time": 39.277048500000014,
                    "velocity": 0.2047244094488189,
                    "duration": 0.1737922499999982
                },
                {
                    "name": "F4",
                    "midi": 65,
                    "time": 39.277048500000014,
                    "velocity": 0.2047244094488189,
                    "duration": 0.1737922499999982
                },
                {
                    "name": "F4",
                    "midi": 65,
                    "time": 39.97221750000001,
                    "velocity": 0.2204724409448819,
                    "duration": 0.1737922499999982
                },
                {
                    "name": "A4",
                    "midi": 69,
                    "time": 39.97221750000001,
                    "velocity": 0.2204724409448819,
                    "duration": 0.1737922499999982
                },
                {
                    "name": "C5",
                    "midi": 72,
                    "time": 39.97221750000001,
                    "velocity": 0.25984251968503935,
                    "duration": 0.1737922499999982
                },
                {
                    "name": "B4",
                    "midi": 71,
                    "time": 40.31980200000001,
                    "velocity": 0.28346456692913385,
                    "duration": 0.1737922499999982
                },
                {
                    "name": "G#4",
                    "midi": 68,
                    "time": 40.31980200000001,
                    "velocity": 0.23622047244094488,
                    "duration": 0.1737922499999982
                },
                {
                    "name": "F4",
                    "midi": 65,
                    "time": 41.362555500000006,
                    "velocity": 0.2204724409448819,
                    "duration": 0.1737922499999982
                },
                {
                    "name": "A4",
                    "midi": 69,
                    "time": 41.362555500000006,
                    "velocity": 0.2204724409448819,
                    "duration": 0.1737922499999982
                },
                {
                    "name": "C5",
                    "midi": 72,
                    "time": 41.362555500000006,
                    "velocity": 0.2677165354330709,
                    "duration": 0.1737922499999982
                },
                {
                    "name": "C#5",
                    "midi": 73,
                    "time": 42.057724500000006,
                    "velocity": 0.2440944881889764,
                    "duration": 0.1737922499999982
                },
                {
                    "name": "G#4",
                    "midi": 68,
                    "time": 42.057724500000006,
                    "velocity": 0.2047244094488189,
                    "duration": 0.1737922499999982
                },
                {
                    "name": "F4",
                    "midi": 65,
                    "time": 42.057724500000006,
                    "velocity": 0.2047244094488189,
                    "duration": 0.1737922499999982
                },
                {
                    "name": "F4",
                    "midi": 65,
                    "time": 42.752893500000006,
                    "velocity": 0.2204724409448819,
                    "duration": 0.1737922499999982
                },
                {
                    "name": "A4",
                    "midi": 69,
                    "time": 42.752893500000006,
                    "velocity": 0.2204724409448819,
                    "duration": 0.1737922499999982
                },
                {
                    "name": "C5",
                    "midi": 72,
                    "time": 42.752893500000006,
                    "velocity": 0.25984251968503935,
                    "duration": 0.1737922499999982
                },
                {
                    "name": "G#4",
                    "midi": 68,
                    "time": 43.448062500000006,
                    "velocity": 0.23622047244094488,
                    "duration": 0.1737922499999982
                },
                {
                    "name": "B4",
                    "midi": 71,
                    "time": 43.448062500000006,
                    "velocity": 0.28346456692913385,
                    "duration": 0.1737922499999982
                },
                {
                    "name": "B3",
                    "midi": 59,
                    "time": 43.795647,
                    "velocity": 0.2677165354330709,
                    "duration": 0.1737922499999982
                },
                {
                    "name": "C4",
                    "midi": 60,
                    "time": 44.1432315,
                    "velocity": 0.25984251968503935,
                    "duration": 0.1737922499999982
                },
                {
                    "name": "D4",
                    "midi": 62,
                    "time": 44.490815999999995,
                    "velocity": 0.2677165354330709,
                    "duration": 0.1737922499999982
                },
                {
                    "name": "D#4",
                    "midi": 63,
                    "time": 44.83840049999999,
                    "velocity": 0.2755905511811024,
                    "duration": 0.1737922499999982
                },
                {
                    "name": "E4",
                    "midi": 64,
                    "time": 45.18598499999999,
                    "velocity": 0.28346456692913385,
                    "duration": 0.1737922499999982
                },
                {
                    "name": "F4",
                    "midi": 65,
                    "time": 45.533569499999984,
                    "velocity": 0.2992125984251969,
                    "duration": 0.1737922499999982
                },
                {
                    "name": "G4",
                    "midi": 67,
                    "time": 45.88115399999998,
                    "velocity": 0.30708661417322836,
                    "duration": 0.1737922499999982
                },
                {
                    "name": "G#4",
                    "midi": 68,
                    "time": 46.22873849999998,
                    "velocity": 0.31496062992125984,
                    "duration": 0.1737922499999982
                },
                {
                    "name": "A#4",
                    "midi": 70,
                    "time": 46.576322999999974,
                    "velocity": 0.3228346456692913,
                    "duration": 0.1737922499999982
                },
                {
                    "name": "B4",
                    "midi": 71,
                    "time": 46.92390749999997,
                    "velocity": 0.33858267716535434,
                    "duration": 0.1737922499999982
                },
                {
                    "name": "C5",
                    "midi": 72,
                    "time": 47.27149199999997,
                    "velocity": 0.3464566929133858,
                    "duration": 0.1737922499999982
                },
                {
                    "name": "C#5",
                    "midi": 73,
                    "time": 47.61907649999996,
                    "velocity": 0.3543307086614173,
                    "duration": 0.1737922499999982
                },
                {
                    "name": "D5",
                    "midi": 74,
                    "time": 47.96666099999996,
                    "velocity": 0.36220472440944884,
                    "duration": 0.1737922499999982
                },
                {
                    "name": "D#5",
                    "midi": 75,
                    "time": 48.314245499999956,
                    "velocity": 0.3700787401574803,
                    "duration": 0.1737922499999982
                },
                {
                    "name": "E5",
                    "midi": 76,
                    "time": 48.66182999999995,
                    "velocity": 0.36220472440944884,
                    "duration": 0.1737922499999982
                },
                {
                    "name": "C5",
                    "midi": 72,
                    "time": 49.00941449999995,
                    "velocity": 0.3543307086614173,
                    "duration": 0.1737922499999982
                },
                {
                    "name": "F4",
                    "midi": 65,
                    "time": 49.70458349999995,
                    "velocity": 0.2204724409448819,
                    "duration": 0.1737922499999982
                },
                {
                    "name": "A4",
                    "midi": 69,
                    "time": 49.70458349999995,
                    "velocity": 0.2204724409448819,
                    "duration": 0.1737922499999982
                },
                {
                    "name": "C5",
                    "midi": 72,
                    "time": 49.70458349999995,
                    "velocity": 0.2677165354330709,
                    "duration": 0.1737922499999982
                },
                {
                    "name": "C#5",
                    "midi": 73,
                    "time": 50.39975249999995,
                    "velocity": 0.2440944881889764,
                    "duration": 0.1737922499999982
                },
                {
                    "name": "G#4",
                    "midi": 68,
                    "time": 50.39975249999995,
                    "velocity": 0.2047244094488189,
                    "duration": 0.1737922499999982
                },
                {
                    "name": "F4",
                    "midi": 65,
                    "time": 50.39975249999995,
                    "velocity": 0.2047244094488189,
                    "duration": 0.1737922499999982
                },
                {
                    "name": "F4",
                    "midi": 65,
                    "time": 51.09492149999995,
                    "velocity": 0.2204724409448819,
                    "duration": 0.1737922499999982
                },
                {
                    "name": "A4",
                    "midi": 69,
                    "time": 51.09492149999995,
                    "velocity": 0.2204724409448819,
                    "duration": 0.1737922499999982
                },
                {
                    "name": "C5",
                    "midi": 72,
                    "time": 51.09492149999995,
                    "velocity": 0.25984251968503935,
                    "duration": 0.1737922499999982
                },
                {
                    "name": "C#5",
                    "midi": 73,
                    "time": 51.442505999999945,
                    "velocity": 0.28346456692913385,
                    "duration": 0.1737922499999982
                },
                {
                    "name": "G#4",
                    "midi": 68,
                    "time": 51.442505999999945,
                    "velocity": 0.23622047244094488,
                    "duration": 0.1737922499999982
                },
                {
                    "name": "F4",
                    "midi": 65,
                    "time": 52.48525949999994,
                    "velocity": 0.2204724409448819,
                    "duration": 0.1737922499999982
                },
                {
                    "name": "A4",
                    "midi": 69,
                    "time": 52.48525949999994,
                    "velocity": 0.2204724409448819,
                    "duration": 0.1737922499999982
                },
                {
                    "name": "C5",
                    "midi": 72,
                    "time": 52.48525949999994,
                    "velocity": 0.2677165354330709,
                    "duration": 0.1737922499999982
                },
                {
                    "name": "C#5",
                    "midi": 73,
                    "time": 53.18042849999994,
                    "velocity": 0.2440944881889764,
                    "duration": 0.1737922499999982
                },
                {
                    "name": "G#4",
                    "midi": 68,
                    "time": 53.18042849999994,
                    "velocity": 0.2047244094488189,
                    "duration": 0.1737922499999982
                },
                {
                    "name": "F4",
                    "midi": 65,
                    "time": 53.18042849999994,
                    "velocity": 0.2047244094488189,
                    "duration": 0.1737922499999982
                },
                {
                    "name": "F4",
                    "midi": 65,
                    "time": 53.87559749999994,
                    "velocity": 0.2204724409448819,
                    "duration": 0.1737922499999982
                },
                {
                    "name": "A4",
                    "midi": 69,
                    "time": 53.87559749999994,
                    "velocity": 0.2204724409448819,
                    "duration": 0.1737922499999982
                },
                {
                    "name": "C5",
                    "midi": 72,
                    "time": 53.87559749999994,
                    "velocity": 0.25984251968503935,
                    "duration": 0.1737922499999982
                },
                {
                    "name": "G#4",
                    "midi": 68,
                    "time": 54.57076649999994,
                    "velocity": 0.23622047244094488,
                    "duration": 0.1737922499999982
                },
                {
                    "name": "B4",
                    "midi": 71,
                    "time": 54.57076649999994,
                    "velocity": 0.28346456692913385,
                    "duration": 0.1737922499999982
                },
                {
                    "name": "C#4",
                    "midi": 61,
                    "time": 54.91835099999994,
                    "velocity": 0.2677165354330709,
                    "duration": 0.1737922499999982
                },
                {
                    "name": "D#4",
                    "midi": 63,
                    "time": 55.265935499999934,
                    "velocity": 0.25984251968503935,
                    "duration": 0.1737922499999982
                },
                {
                    "name": "E4",
                    "midi": 64,
                    "time": 55.61351999999993,
                    "velocity": 0.2677165354330709,
                    "duration": 0.1737922499999982
                },
                {
                    "name": "F4",
                    "midi": 65,
                    "time": 55.96110449999993,
                    "velocity": 0.2755905511811024,
                    "duration": 0.1737922499999982
                },
                {
                    "name": "F#4",
                    "midi": 66,
                    "time": 56.30868899999992,
                    "velocity": 0.28346456692913385,
                    "duration": 0.1737922499999982
                },
                {
                    "name": "G#4",
                    "midi": 68,
                    "time": 56.65627349999992,
                    "velocity": 0.2992125984251969,
                    "duration": 0.1737922499999982
                },
                {
                    "name": "A4",
                    "midi": 69,
                    "time": 57.003857999999916,
                    "velocity": 0.30708661417322836,
                    "duration": 0.1737922499999982
                },
                {
                    "name": "A#4",
                    "midi": 70,
                    "time": 57.35144249999991,
                    "velocity": 0.31496062992125984,
                    "duration": 0.1737922499999982
                },
                {
                    "name": "D#4",
                    "midi": 63,
                    "time": 57.69902699999991,
                    "velocity": 0.2677165354330709,
                    "duration": 0.1737922499999982
                },
                {
                    "name": "F4",
                    "midi": 65,
                    "time": 58.046611499999905,
                    "velocity": 0.25984251968503935,
                    "duration": 0.1737922499999982
                },
                {
                    "name": "F#4",
                    "midi": 66,
                    "time": 58.3941959999999,
                    "velocity": 0.2677165354330709,
                    "duration": 0.1737922499999982
                },
                {
                    "name": "G4",
                    "midi": 67,
                    "time": 58.7417804999999,
                    "velocity": 0.2755905511811024,
                    "duration": 0.1737922499999982
                },
                {
                    "name": "G#4",
                    "midi": 68,
                    "time": 59.089364999999894,
                    "velocity": 0.28346456692913385,
                    "duration": 0.1737922499999982
                },
                {
                    "name": "A#4",
                    "midi": 70,
                    "time": 59.43694949999989,
                    "velocity": 0.2992125984251969,
                    "duration": 0.1737922499999982
                },
                {
                    "name": "B4",
                    "midi": 71,
                    "time": 59.78453399999989,
                    "velocity": 0.30708661417322836,
                    "duration": 0.1737922499999982
                },
                {
                    "name": "C5",
                    "midi": 72,
                    "time": 60.13211849999988,
                    "velocity": 0.31496062992125984,
                    "duration": 0.1737922499999982
                },
                {
                    "name": "C4",
                    "midi": 60,
                    "time": 60.47970299999988,
                    "velocity": 0.4015748031496063,
                    "duration": 0.1737922499999982
                },
                {
                    "name": "E4",
                    "midi": 64,
                    "time": 60.827287499999876,
                    "velocity": 0.3700787401574803,
                    "duration": 0.1737922499999982
                },
                {
                    "name": "C#4",
                    "midi": 61,
                    "time": 61.17487199999987,
                    "velocity": 0.4094488188976378,
                    "duration": 0.1737922499999982
                },
                {
                    "name": "F4",
                    "midi": 65,
                    "time": 61.52245649999987,
                    "velocity": 0.3700787401574803,
                    "duration": 0.1737922499999982
                },
                {
                    "name": "D#4",
                    "midi": 63,
                    "time": 61.870040999999866,
                    "velocity": 0.41732283464566927,
                    "duration": 0.1737922499999982
                },
                {
                    "name": "F#4",
                    "midi": 66,
                    "time": 62.21762549999986,
                    "velocity": 0.3937007874015748,
                    "duration": 0.1737922499999982
                },
                {
                    "name": "E4",
                    "midi": 64,
                    "time": 62.56520999999986,
                    "velocity": 0.4251968503937008,
                    "duration": 0.1737922499999982
                },
                {
                    "name": "G4",
                    "midi": 67,
                    "time": 62.912794499999855,
                    "velocity": 0.4094488188976378,
                    "duration": 0.1737922499999982
                },
                {
                    "name": "F4",
                    "midi": 65,
                    "time": 63.26037899999985,
                    "velocity": 0.4409448818897638,
                    "duration": 0.1737922499999982
                },
                {
                    "name": "A4",
                    "midi": 69,
                    "time": 63.60796349999985,
                    "velocity": 0.4015748031496063,
                    "duration": 0.1737922499999982
                },
                {
                    "name": "F#4",
                    "midi": 66,
                    "time": 63.955547999999844,
                    "velocity": 0.44881889763779526,
                    "duration": 0.1737922499999982
                },
                {
                    "name": "A#4",
                    "midi": 70,
                    "time": 64.30313249999985,
                    "velocity": 0.41732283464566927,
                    "duration": 0.1737922500000053
                },
                {
                    "name": "G#4",
                    "midi": 68,
                    "time": 64.65071699999986,
                    "velocity": 0.4566929133858268,
                    "duration": 0.1737922500000053
                },
                {
                    "name": "B4",
                    "midi": 71,
                    "time": 64.99830149999987,
                    "velocity": 0.4409448818897638,
                    "duration": 0.1737922500000053
                },
                {
                    "name": "A#4",
                    "midi": 70,
                    "time": 65.34588599999988,
                    "velocity": 0.4645669291338583,
                    "duration": 0.3475844999999964
                },
                {
                    "name": "C5",
                    "midi": 72,
                    "time": 65.69347049999988,
                    "velocity": 0.4330708661417323,
                    "duration": 0.3475844999999964
                },
                {
                    "name": "F4",
                    "midi": 65,
                    "time": 69.16931549999987,
                    "velocity": 0.2204724409448819,
                    "duration": 0.1737922500000053
                },
                {
                    "name": "A4",
                    "midi": 69,
                    "time": 69.16931549999987,
                    "velocity": 0.2204724409448819,
                    "duration": 0.1737922500000053
                },
                {
                    "name": "C5",
                    "midi": 72,
                    "time": 69.16931549999987,
                    "velocity": 0.2677165354330709,
                    "duration": 0.1737922500000053
                },
                {
                    "name": "C#5",
                    "midi": 73,
                    "time": 69.86448449999988,
                    "velocity": 0.2440944881889764,
                    "duration": 0.1737922500000053
                },
                {
                    "name": "G#4",
                    "midi": 68,
                    "time": 69.86448449999988,
                    "velocity": 0.2047244094488189,
                    "duration": 0.1737922500000053
                },
                {
                    "name": "F4",
                    "midi": 65,
                    "time": 69.86448449999988,
                    "velocity": 0.2047244094488189,
                    "duration": 0.1737922500000053
                },
                {
                    "name": "F4",
                    "midi": 65,
                    "time": 70.55965349999988,
                    "velocity": 0.2204724409448819,
                    "duration": 0.1737922500000053
                },
                {
                    "name": "A4",
                    "midi": 69,
                    "time": 70.55965349999988,
                    "velocity": 0.2204724409448819,
                    "duration": 0.1737922500000053
                },
                {
                    "name": "C5",
                    "midi": 72,
                    "time": 70.55965349999988,
                    "velocity": 0.25984251968503935,
                    "duration": 0.1737922500000053
                },
                {
                    "name": "B4",
                    "midi": 71,
                    "time": 70.9072379999999,
                    "velocity": 0.28346456692913385,
                    "duration": 0.1737922500000053
                },
                {
                    "name": "G#4",
                    "midi": 68,
                    "time": 70.9072379999999,
                    "velocity": 0.23622047244094488,
                    "duration": 0.1737922500000053
                },
                {
                    "name": "F4",
                    "midi": 65,
                    "time": 71.9499914999999,
                    "velocity": 0.2204724409448819,
                    "duration": 0.1737922500000053
                },
                {
                    "name": "A4",
                    "midi": 69,
                    "time": 71.9499914999999,
                    "velocity": 0.2204724409448819,
                    "duration": 0.1737922500000053
                },
                {
                    "name": "C5",
                    "midi": 72,
                    "time": 71.9499914999999,
                    "velocity": 0.2677165354330709,
                    "duration": 0.1737922500000053
                },
                {
                    "name": "C#5",
                    "midi": 73,
                    "time": 72.6451604999999,
                    "velocity": 0.2440944881889764,
                    "duration": 0.1737922500000053
                },
                {
                    "name": "G#4",
                    "midi": 68,
                    "time": 72.6451604999999,
                    "velocity": 0.2047244094488189,
                    "duration": 0.1737922500000053
                },
                {
                    "name": "F4",
                    "midi": 65,
                    "time": 72.6451604999999,
                    "velocity": 0.2047244094488189,
                    "duration": 0.1737922500000053
                },
                {
                    "name": "F4",
                    "midi": 65,
                    "time": 73.34032949999991,
                    "velocity": 0.2204724409448819,
                    "duration": 0.1737922500000053
                },
                {
                    "name": "A4",
                    "midi": 69,
                    "time": 73.34032949999991,
                    "velocity": 0.2204724409448819,
                    "duration": 0.1737922500000053
                },
                {
                    "name": "C5",
                    "midi": 72,
                    "time": 73.34032949999991,
                    "velocity": 0.25984251968503935,
                    "duration": 0.1737922500000053
                },
                {
                    "name": "G#4",
                    "midi": 68,
                    "time": 74.03549849999992,
                    "velocity": 0.23622047244094488,
                    "duration": 0.1737922500000053
                },
                {
                    "name": "B4",
                    "midi": 71,
                    "time": 74.03549849999992,
                    "velocity": 0.28346456692913385,
                    "duration": 0.1737922500000053
                },
                {
                    "name": "B3",
                    "midi": 59,
                    "time": 74.38308299999993,
                    "velocity": 0.2677165354330709,
                    "duration": 0.1737922500000053
                },
                {
                    "name": "C4",
                    "midi": 60,
                    "time": 74.73066749999994,
                    "velocity": 0.25984251968503935,
                    "duration": 0.1737922500000053
                },
                {
                    "name": "D4",
                    "midi": 62,
                    "time": 75.07825199999995,
                    "velocity": 0.2677165354330709,
                    "duration": 0.1737922500000053
                },
                {
                    "name": "D#4",
                    "midi": 63,
                    "time": 75.42583649999996,
                    "velocity": 0.2755905511811024,
                    "duration": 0.1737922500000053
                },
                {
                    "name": "E4",
                    "midi": 64,
                    "time": 75.77342099999997,
                    "velocity": 0.2755905511811024,
                    "duration": 0.1737922500000053
                },
                {
                    "name": "F4",
                    "midi": 65,
                    "time": 76.12100549999998,
                    "velocity": 0.29133858267716534,
                    "duration": 0.1737922500000053
                },
                {
                    "name": "G4",
                    "midi": 67,
                    "time": 76.46858999999999,
                    "velocity": 0.30708661417322836,
                    "duration": 0.1737922500000053
                },
                {
                    "name": "G#4",
                    "midi": 68,
                    "time": 76.8161745,
                    "velocity": 0.33070866141732286,
                    "duration": 0.1737922500000053
                },
                {
                    "name": "A#4",
                    "midi": 70,
                    "time": 77.16375900000001,
                    "velocity": 0.3464566929133858,
                    "duration": 0.1737922500000053
                },
                {
                    "name": "B4",
                    "midi": 71,
                    "time": 77.51134350000002,
                    "velocity": 0.33858267716535434,
                    "duration": 0.1737922500000053
                },
                {
                    "name": "C5",
                    "midi": 72,
                    "time": 77.85892800000003,
                    "velocity": 0.3543307086614173,
                    "duration": 0.1737922500000053
                },
                {
                    "name": "C#5",
                    "midi": 73,
                    "time": 78.20651250000004,
                    "velocity": 0.36220472440944884,
                    "duration": 0.1737922500000053
                },
                {
                    "name": "D5",
                    "midi": 74,
                    "time": 78.55409700000006,
                    "velocity": 0.3779527559055118,
                    "duration": 0.1737922500000053
                },
                {
                    "name": "D#5",
                    "midi": 75,
                    "time": 78.90168150000007,
                    "velocity": 0.3937007874015748,
                    "duration": 0.1737922500000053
                },
                {
                    "name": "E5",
                    "midi": 76,
                    "time": 79.24926600000008,
                    "velocity": 0.3937007874015748,
                    "duration": 0.1737922500000053
                },
                {
                    "name": "C5",
                    "midi": 72,
                    "time": 79.59685050000009,
                    "velocity": 0.3543307086614173,
                    "duration": 0.1737922500000053
                },
                {
                    "name": "F4",
                    "midi": 65,
                    "time": 80.2920195000001,
                    "velocity": 0.2204724409448819,
                    "duration": 0.1737922500000053
                },
                {
                    "name": "A4",
                    "midi": 69,
                    "time": 80.2920195000001,
                    "velocity": 0.2204724409448819,
                    "duration": 0.1737922500000053
                },
                {
                    "name": "C5",
                    "midi": 72,
                    "time": 80.2920195000001,
                    "velocity": 0.2677165354330709,
                    "duration": 0.1737922500000053
                },
                {
                    "name": "C#5",
                    "midi": 73,
                    "time": 80.9871885000001,
                    "velocity": 0.2440944881889764,
                    "duration": 0.1737922500000053
                },
                {
                    "name": "G#4",
                    "midi": 68,
                    "time": 80.9871885000001,
                    "velocity": 0.2047244094488189,
                    "duration": 0.1737922500000053
                },
                {
                    "name": "F4",
                    "midi": 65,
                    "time": 80.9871885000001,
                    "velocity": 0.2047244094488189,
                    "duration": 0.1737922500000053
                },
                {
                    "name": "F4",
                    "midi": 65,
                    "time": 81.68235750000011,
                    "velocity": 0.2204724409448819,
                    "duration": 0.1737922500000053
                },
                {
                    "name": "A4",
                    "midi": 69,
                    "time": 81.68235750000011,
                    "velocity": 0.2204724409448819,
                    "duration": 0.1737922500000053
                },
                {
                    "name": "C5",
                    "midi": 72,
                    "time": 81.68235750000011,
                    "velocity": 0.25984251968503935,
                    "duration": 0.1737922500000053
                },
                {
                    "name": "C#5",
                    "midi": 73,
                    "time": 82.02994200000012,
                    "velocity": 0.28346456692913385,
                    "duration": 0.1737922500000053
                },
                {
                    "name": "G#4",
                    "midi": 68,
                    "time": 82.02994200000012,
                    "velocity": 0.23622047244094488,
                    "duration": 0.1737922500000053
                },
                {
                    "name": "F4",
                    "midi": 65,
                    "time": 83.07269550000012,
                    "velocity": 0.2204724409448819,
                    "duration": 0.1737922500000053
                },
                {
                    "name": "A4",
                    "midi": 69,
                    "time": 83.07269550000012,
                    "velocity": 0.2204724409448819,
                    "duration": 0.1737922500000053
                },
                {
                    "name": "C5",
                    "midi": 72,
                    "time": 83.07269550000012,
                    "velocity": 0.2677165354330709,
                    "duration": 0.1737922500000053
                },
                {
                    "name": "C#5",
                    "midi": 73,
                    "time": 83.76786450000013,
                    "velocity": 0.2440944881889764,
                    "duration": 0.1737922500000053
                },
                {
                    "name": "G#4",
                    "midi": 68,
                    "time": 83.76786450000013,
                    "velocity": 0.2047244094488189,
                    "duration": 0.1737922500000053
                },
                {
                    "name": "F4",
                    "midi": 65,
                    "time": 83.76786450000013,
                    "velocity": 0.2047244094488189,
                    "duration": 0.1737922500000053
                },
                {
                    "name": "F4",
                    "midi": 65,
                    "time": 84.46303350000014,
                    "velocity": 0.2204724409448819,
                    "duration": 0.1737922500000053
                },
                {
                    "name": "A4",
                    "midi": 69,
                    "time": 84.46303350000014,
                    "velocity": 0.2204724409448819,
                    "duration": 0.1737922500000053
                },
                {
                    "name": "C5",
                    "midi": 72,
                    "time": 84.46303350000014,
                    "velocity": 0.25984251968503935,
                    "duration": 0.1737922500000053
                },
                {
                    "name": "G#4",
                    "midi": 68,
                    "time": 85.15820250000014,
                    "velocity": 0.23622047244094488,
                    "duration": 0.1737922500000053
                },
                {
                    "name": "B4",
                    "midi": 71,
                    "time": 85.15820250000014,
                    "velocity": 0.28346456692913385,
                    "duration": 0.1737922500000053
                },
                {
                    "name": "C#4",
                    "midi": 61,
                    "time": 85.50578700000015,
                    "velocity": 0.2677165354330709,
                    "duration": 0.1737922500000053
                },
                {
                    "name": "D#4",
                    "midi": 63,
                    "time": 85.85337150000016,
                    "velocity": 0.25984251968503935,
                    "duration": 0.1737922500000053
                },
                {
                    "name": "E4",
                    "midi": 64,
                    "time": 86.20095600000018,
                    "velocity": 0.2677165354330709,
                    "duration": 0.1737922500000053
                },
                {
                    "name": "F4",
                    "midi": 65,
                    "time": 86.54854050000019,
                    "velocity": 0.2755905511811024,
                    "duration": 0.1737922500000053
                },
                {
                    "name": "F#4",
                    "midi": 66,
                    "time": 86.8961250000002,
                    "velocity": 0.28346456692913385,
                    "duration": 0.1737922500000053
                },
                {
                    "name": "G#4",
                    "midi": 68,
                    "time": 87.24370950000021,
                    "velocity": 0.2992125984251969,
                    "duration": 0.1737922500000053
                },
                {
                    "name": "A4",
                    "midi": 69,
                    "time": 87.59129400000022,
                    "velocity": 0.30708661417322836,
                    "duration": 0.1737922500000053
                },
                {
                    "name": "A#4",
                    "midi": 70,
                    "time": 87.93887850000023,
                    "velocity": 0.31496062992125984,
                    "duration": 0.1737922500000053
                },
                {
                    "name": "D#4",
                    "midi": 63,
                    "time": 88.28646300000024,
                    "velocity": 0.2677165354330709,
                    "duration": 0.1737922500000053
                },
                {
                    "name": "F4",
                    "midi": 65,
                    "time": 88.63404750000025,
                    "velocity": 0.25984251968503935,
                    "duration": 0.1737922500000053
                },
                {
                    "name": "F#4",
                    "midi": 66,
                    "time": 88.98163200000026,
                    "velocity": 0.2677165354330709,
                    "duration": 0.1737922500000053
                },
                {
                    "name": "G4",
                    "midi": 67,
                    "time": 89.32921650000027,
                    "velocity": 0.2755905511811024,
                    "duration": 0.1737922500000053
                },
                {
                    "name": "G#4",
                    "midi": 68,
                    "time": 89.67680100000028,
                    "velocity": 0.28346456692913385,
                    "duration": 0.1737922500000053
                },
                {
                    "name": "A#4",
                    "midi": 70,
                    "time": 90.02438550000029,
                    "velocity": 0.2992125984251969,
                    "duration": 0.1737922500000053
                },
                {
                    "name": "B4",
                    "midi": 71,
                    "time": 90.3719700000003,
                    "velocity": 0.30708661417322836,
                    "duration": 0.1737922500000053
                },
                {
                    "name": "C5",
                    "midi": 72,
                    "time": 90.71955450000031,
                    "velocity": 0.31496062992125984,
                    "duration": 0.1737922500000053
                },
                {
                    "name": "C4",
                    "midi": 60,
                    "time": 91.06713900000032,
                    "velocity": 0.4015748031496063,
                    "duration": 0.1737922500000053
                },
                {
                    "name": "E4",
                    "midi": 64,
                    "time": 91.41472350000033,
                    "velocity": 0.3700787401574803,
                    "duration": 0.1737922500000053
                },
                {
                    "name": "C#4",
                    "midi": 61,
                    "time": 91.76230800000035,
                    "velocity": 0.4094488188976378,
                    "duration": 0.1737922500000053
                },
                {
                    "name": "F4",
                    "midi": 65,
                    "time": 92.10989250000036,
                    "velocity": 0.3700787401574803,
                    "duration": 0.1737922500000053
                },
                {
                    "name": "D#4",
                    "midi": 63,
                    "time": 92.45747700000037,
                    "velocity": 0.41732283464566927,
                    "duration": 0.1737922500000053
                },
                {
                    "name": "F#4",
                    "midi": 66,
                    "time": 92.80506150000038,
                    "velocity": 0.3937007874015748,
                    "duration": 0.1737922500000053
                },
                {
                    "name": "E4",
                    "midi": 64,
                    "time": 93.15264600000039,
                    "velocity": 0.4251968503937008,
                    "duration": 0.1737922500000053
                },
                {
                    "name": "G4",
                    "midi": 67,
                    "time": 93.5002305000004,
                    "velocity": 0.4094488188976378,
                    "duration": 0.1737922500000053
                },
                {
                    "name": "F4",
                    "midi": 65,
                    "time": 93.84781500000041,
                    "velocity": 0.4409448818897638,
                    "duration": 0.1737922500000053
                },
                {
                    "name": "A4",
                    "midi": 69,
                    "time": 94.19539950000042,
                    "velocity": 0.4015748031496063,
                    "duration": 0.1737922500000053
                },
                {
                    "name": "F#4",
                    "midi": 66,
                    "time": 94.54298400000043,
                    "velocity": 0.44881889763779526,
                    "duration": 0.1737922500000053
                },
                {
                    "name": "A#4",
                    "midi": 70,
                    "time": 94.89056850000044,
                    "velocity": 0.41732283464566927,
                    "duration": 0.1737922500000053
                },
                {
                    "name": "G#4",
                    "midi": 68,
                    "time": 95.23815300000045,
                    "velocity": 0.4566929133858268,
                    "duration": 0.1737922500000053
                },
                {
                    "name": "B4",
                    "midi": 71,
                    "time": 95.58573750000046,
                    "velocity": 0.4409448818897638,
                    "duration": 0.1737922500000053
                },
                {
                    "name": "A#4",
                    "midi": 70,
                    "time": 95.93332200000047,
                    "velocity": 0.4645669291338583,
                    "duration": 0.3475844999999964
                },
                {
                    "name": "C5",
                    "midi": 72,
                    "time": 96.28090650000047,
                    "velocity": 0.4330708661417323,
                    "duration": 0.3475844999999964
                },
                {
                    "name": "F3",
                    "midi": 53,
                    "time": 99.40916700000047,
                    "velocity": 0.3543307086614173,
                    "duration": 2.7806759999999713
                },
                {
                    "name": "F4",
                    "midi": 65,
                    "time": 99.75675150000046,
                    "velocity": 0.28346456692913385,
                    "duration": 0.3475844999999964
                },
                {
                    "name": "A3",
                    "midi": 57,
                    "time": 100.10433600000046,
                    "velocity": 0.33858267716535434,
                    "duration": 0.6951689999999928
                },
                {
                    "name": "F4",
                    "midi": 65,
                    "time": 100.45192050000045,
                    "velocity": 0.28346456692913385,
                    "duration": 0.3475844999999964
                },
                {
                    "name": "G#3",
                    "midi": 56,
                    "time": 100.79950500000045,
                    "velocity": 0.3543307086614173,
                    "duration": 0.6951689999999928
                },
                {
                    "name": "F4",
                    "midi": 65,
                    "time": 101.14708950000045,
                    "velocity": 0.28346456692913385,
                    "duration": 0.3475844999999964
                },
                {
                    "name": "B3",
                    "midi": 59,
                    "time": 101.49467400000044,
                    "velocity": 0.33858267716535434,
                    "duration": 0.6951689999999928
                },
                {
                    "name": "F4",
                    "midi": 65,
                    "time": 101.84225850000044,
                    "velocity": 0.28346456692913385,
                    "duration": 0.3475844999999964
                },
                {
                    "name": "F3",
                    "midi": 53,
                    "time": 102.18984300000044,
                    "velocity": 0.3543307086614173,
                    "duration": 2.7806759999999713
                },
                {
                    "name": "F4",
                    "midi": 65,
                    "time": 102.53742750000043,
                    "velocity": 0.28346456692913385,
                    "duration": 0.3475844999999964
                },
                {
                    "name": "B3",
                    "midi": 59,
                    "time": 102.88501200000043,
                    "velocity": 0.33858267716535434,
                    "duration": 0.6951689999999928
                },
                {
                    "name": "F4",
                    "midi": 65,
                    "time": 103.23259650000043,
                    "velocity": 0.2755905511811024,
                    "duration": 0.3475844999999964
                },
                {
                    "name": "A3",
                    "midi": 57,
                    "time": 103.58018100000042,
                    "velocity": 0.33070866141732286,
                    "duration": 0.6951689999999928
                },
                {
                    "name": "F4",
                    "midi": 65,
                    "time": 103.92776550000042,
                    "velocity": 0.25984251968503935,
                    "duration": 0.3475844999999964
                },
                {
                    "name": "G#3",
                    "midi": 56,
                    "time": 104.27535000000042,
                    "velocity": 0.3228346456692913,
                    "duration": 0.6951689999999928
                },
                {
                    "name": "F4",
                    "midi": 65,
                    "time": 104.62293450000041,
                    "velocity": 0.28346456692913385,
                    "duration": 0.3475844999999964
                },
                {
                    "name": "F3",
                    "midi": 53,
                    "time": 104.97051900000041,
                    "velocity": 0.3543307086614173,
                    "duration": 2.7806759999999713
                },
                {
                    "name": "F4",
                    "midi": 65,
                    "time": 105.3181035000004,
                    "velocity": 0.28346456692913385,
                    "duration": 0.3475844999999964
                },
                {
                    "name": "A3",
                    "midi": 57,
                    "time": 105.6656880000004,
                    "velocity": 0.33070866141732286,
                    "duration": 0.6951689999999928
                },
                {
                    "name": "F4",
                    "midi": 65,
                    "time": 106.0132725000004,
                    "velocity": 0.2755905511811024,
                    "duration": 0.3475844999999964
                },
                {
                    "name": "G#3",
                    "midi": 56,
                    "time": 106.3608570000004,
                    "velocity": 0.30708661417322836,
                    "duration": 0.6951689999999928
                },
                {
                    "name": "F4",
                    "midi": 65,
                    "time": 106.70844150000039,
                    "velocity": 0.25196850393700787,
                    "duration": 0.3475844999999964
                },
                {
                    "name": "B3",
                    "midi": 59,
                    "time": 107.05602600000039,
                    "velocity": 0.30708661417322836,
                    "duration": 0.6951689999999928
                },
                {
                    "name": "F4",
                    "midi": 65,
                    "time": 107.40361050000038,
                    "velocity": 0.25984251968503935,
                    "duration": 0.3475844999999964
                },
                {
                    "name": "F3",
                    "midi": 53,
                    "time": 107.75119500000038,
                    "velocity": 0.2992125984251969,
                    "duration": 1.3903379999999856
                },
                {
                    "name": "F4",
                    "midi": 65,
                    "time": 108.09877950000038,
                    "velocity": 0.23622047244094488,
                    "duration": 0.3475844999999964
                },
                {
                    "name": "B3",
                    "midi": 59,
                    "time": 108.44636400000037,
                    "velocity": 0.28346456692913385,
                    "duration": 0.6951689999999928
                },
                {
                    "name": "F4",
                    "midi": 65,
                    "time": 108.79394850000037,
                    "velocity": 0.2283464566929134,
                    "duration": 0.3475844999999964
                },
                {
                    "name": "A3",
                    "midi": 57,
                    "time": 109.14153300000036,
                    "velocity": 0.2677165354330709,
                    "duration": 0.6951689999999928
                },
                {
                    "name": "F3",
                    "midi": 53,
                    "time": 109.14153300000036,
                    "velocity": 0.2677165354330709,
                    "duration": 1.3903379999999856
                },
                {
                    "name": "F4",
                    "midi": 65,
                    "time": 109.48911750000036,
                    "velocity": 0.1968503937007874,
                    "duration": 0.3475844999999964
                },
                {
                    "name": "G#3",
                    "midi": 56,
                    "time": 109.83670200000036,
                    "velocity": 0.25196850393700787,
                    "duration": 0.6951689999999928
                },
                {
                    "name": "F4",
                    "midi": 65,
                    "time": 110.18428650000035,
                    "velocity": 0.1968503937007874,
                    "duration": 0.3475844999999964
                },
                {
                    "name": "F3",
                    "midi": 53,
                    "time": 110.53187100000035,
                    "velocity": 0.3543307086614173,
                    "duration": 2.7806759999999713
                },
                {
                    "name": "F4",
                    "midi": 65,
                    "time": 110.87945550000035,
                    "velocity": 0.3228346456692913,
                    "duration": 0.3475844999999964
                },
                {
                    "name": "A3",
                    "midi": 57,
                    "time": 111.22704000000034,
                    "velocity": 0.33858267716535434,
                    "duration": 0.6951689999999928
                },
                {
                    "name": "F4",
                    "midi": 65,
                    "time": 111.57462450000034,
                    "velocity": 0.2992125984251969,
                    "duration": 0.3475844999999964
                },
                {
                    "name": "G#3",
                    "midi": 56,
                    "time": 111.92220900000034,
                    "velocity": 0.3543307086614173,
                    "duration": 0.6951689999999928
                },
                {
                    "name": "F4",
                    "midi": 65,
                    "time": 112.26979350000033,
                    "velocity": 0.28346456692913385,
                    "duration": 0.3475844999999964
                },
                {
                    "name": "B3",
                    "midi": 59,
                    "time": 112.61737800000033,
                    "velocity": 0.33858267716535434,
                    "duration": 0.6951689999999928
                },
                {
                    "name": "F4",
                    "midi": 65,
                    "time": 112.96496250000033,
                    "velocity": 0.29133858267716534,
                    "duration": 0.3475844999999964
                },
                {
                    "name": "F3",
                    "midi": 53,
                    "time": 113.31254700000032,
                    "velocity": 0.3543307086614173,
                    "duration": 2.7806759999999713
                },
                {
                    "name": "F4",
                    "midi": 65,
                    "time": 113.66013150000032,
                    "velocity": 0.28346456692913385,
                    "duration": 0.3475844999999964
                },
                {
                    "name": "B3",
                    "midi": 59,
                    "time": 114.00771600000031,
                    "velocity": 0.33858267716535434,
                    "duration": 0.6951689999999928
                },
                {
                    "name": "F4",
                    "midi": 65,
                    "time": 114.35530050000031,
                    "velocity": 0.2755905511811024,
                    "duration": 0.3475844999999964
                },
                {
                    "name": "A3",
                    "midi": 57,
                    "time": 114.70288500000031,
                    "velocity": 0.33070866141732286,
                    "duration": 0.6951689999999928
                },
                {
                    "name": "F4",
                    "midi": 65,
                    "time": 115.0504695000003,
                    "velocity": 0.25984251968503935,
                    "duration": 0.3475844999999964
                },
                {
                    "name": "G#3",
                    "midi": 56,
                    "time": 115.3980540000003,
                    "velocity": 0.3228346456692913,
                    "duration": 0.6951689999999928
                },
                {
                    "name": "F4",
                    "midi": 65,
                    "time": 115.7456385000003,
                    "velocity": 0.28346456692913385,
                    "duration": 0.3475844999999964
                },
                {
                    "name": "F3",
                    "midi": 53,
                    "time": 116.0932230000003,
                    "velocity": 0.3543307086614173,
                    "duration": 2.7806759999999713
                },
                {
                    "name": "F4",
                    "midi": 65,
                    "time": 116.44080750000029,
                    "velocity": 0.28346456692913385,
                    "duration": 0.3475844999999964
                },
                {
                    "name": "A3",
                    "midi": 57,
                    "time": 116.78839200000029,
                    "velocity": 0.33070866141732286,
                    "duration": 0.6951689999999928
                },
                {
                    "name": "F4",
                    "midi": 65,
                    "time": 117.13597650000028,
                    "velocity": 0.2755905511811024,
                    "duration": 0.3475844999999964
                },
                {
                    "name": "G#3",
                    "midi": 56,
                    "time": 117.48356100000028,
                    "velocity": 0.30708661417322836,
                    "duration": 0.6951689999999928
                },
                {
                    "name": "F4",
                    "midi": 65,
                    "time": 117.83114550000028,
                    "velocity": 0.25196850393700787,
                    "duration": 0.3475844999999964
                },
                {
                    "name": "B3",
                    "midi": 59,
                    "time": 118.17873000000027,
                    "velocity": 0.30708661417322836,
                    "duration": 0.6951689999999928
                },
                {
                    "name": "F4",
                    "midi": 65,
                    "time": 118.52631450000027,
                    "velocity": 0.25984251968503935,
                    "duration": 0.3475844999999964
                },
                {
                    "name": "F3",
                    "midi": 53,
                    "time": 118.87389900000026,
                    "velocity": 0.2992125984251969,
                    "duration": 1.3903379999999856
                },
                {
                    "name": "F4",
                    "midi": 65,
                    "time": 119.22148350000026,
                    "velocity": 0.23622047244094488,
                    "duration": 0.3475844999999964
                },
                {
                    "name": "B3",
                    "midi": 59,
                    "time": 119.56906800000026,
                    "velocity": 0.28346456692913385,
                    "duration": 0.6951689999999928
                },
                {
                    "name": "F4",
                    "midi": 65,
                    "time": 119.91665250000025,
                    "velocity": 0.2283464566929134,
                    "duration": 0.3475844999999964
                },
                {
                    "name": "A3",
                    "midi": 57,
                    "time": 120.26423700000025,
                    "velocity": 0.2677165354330709,
                    "duration": 0.6951689999999928
                },
                {
                    "name": "F3",
                    "midi": 53,
                    "time": 120.26423700000025,
                    "velocity": 0.2677165354330709,
                    "duration": 1.3903379999999856
                },
                {
                    "name": "F4",
                    "midi": 65,
                    "time": 120.61182150000025,
                    "velocity": 0.1968503937007874,
                    "duration": 0.3475844999999964
                },
                {
                    "name": "G#3",
                    "midi": 56,
                    "time": 120.95940600000024,
                    "velocity": 0.25196850393700787,
                    "duration": 0.6951689999999928
                },
                {
                    "name": "F4",
                    "midi": 65,
                    "time": 121.30699050000024,
                    "velocity": 0.1968503937007874,
                    "duration": 0.3475844999999964
                },
                {
                    "name": "F3",
                    "midi": 53,
                    "time": 121.65457500000024,
                    "velocity": 0.2992125984251969,
                    "duration": 0.6951689999999928
                },
                {
                    "name": "F4",
                    "midi": 65,
                    "time": 122.00215950000023,
                    "velocity": 0.23622047244094488,
                    "duration": 0.6951689999999928
                },
                {
                    "name": "G#3",
                    "midi": 56,
                    "time": 122.34974400000023,
                    "velocity": 0.2992125984251969,
                    "duration": 0.6951689999999928
                },
                {
                    "name": "F4",
                    "midi": 65,
                    "time": 122.69732850000022,
                    "velocity": 0.23622047244094488,
                    "duration": 0.6951689999999928
                },
                {
                    "name": "C#4",
                    "midi": 61,
                    "time": 123.04491300000022,
                    "velocity": 0.2992125984251969,
                    "duration": 0.6951689999999928
                },
                {
                    "name": "F4",
                    "midi": 65,
                    "time": 123.39249750000022,
                    "velocity": 0.2283464566929134,
                    "duration": 0.6951689999999928
                },
                {
                    "name": "B3",
                    "midi": 59,
                    "time": 123.74008200000021,
                    "velocity": 0.2992125984251969,
                    "duration": 0.6951689999999928
                },
                {
                    "name": "F4",
                    "midi": 65,
                    "time": 124.08766650000021,
                    "velocity": 0.23622047244094488,
                    "duration": 0.6951689999999928
                },
                {
                    "name": "F3",
                    "midi": 53,
                    "time": 124.4352510000002,
                    "velocity": 0.2992125984251969,
                    "duration": 0.6951689999999928
                },
                {
                    "name": "F4",
                    "midi": 65,
                    "time": 124.7828355000002,
                    "velocity": 0.23622047244094488,
                    "duration": 0.6951689999999928
                },
                {
                    "name": "D#4",
                    "midi": 63,
                    "time": 125.1304200000002,
                    "velocity": 0.28346456692913385,
                    "duration": 0.6951689999999928
                },
                {
                    "name": "F4",
                    "midi": 65,
                    "time": 125.4780045000002,
                    "velocity": 0.23622047244094488,
                    "duration": 0.6951689999999928
                },
                {
                    "name": "C#4",
                    "midi": 61,
                    "time": 125.82558900000019,
                    "velocity": 0.28346456692913385,
                    "duration": 0.6951689999999928
                },
                {
                    "name": "F4",
                    "midi": 65,
                    "time": 126.17317350000019,
                    "velocity": 0.2440944881889764,
                    "duration": 0.6951689999999928
                },
                {
                    "name": "B3",
                    "midi": 59,
                    "time": 126.52075800000019,
                    "velocity": 0.28346456692913385,
                    "duration": 0.6951689999999928
                },
                {
                    "name": "F4",
                    "midi": 65,
                    "time": 126.86834250000018,
                    "velocity": 0.2440944881889764,
                    "duration": 0.3475844999999964
                },
                {
                    "name": "F3",
                    "midi": 53,
                    "time": 127.21592700000018,
                    "velocity": 0.28346456692913385,
                    "duration": 0.6951689999999928
                },
                {
                    "name": "F4",
                    "midi": 65,
                    "time": 127.56351150000017,
                    "velocity": 0.2440944881889764,
                    "duration": 0.6951689999999928
                },
                {
                    "name": "A#3",
                    "midi": 58,
                    "time": 127.91109600000017,
                    "velocity": 0.28346456692913385,
                    "duration": 0.695169000000007
                },
                {
                    "name": "F4",
                    "midi": 65,
                    "time": 128.25868050000017,
                    "velocity": 0.23622047244094488,
                    "duration": 0.6951690000000212
                },
                {
                    "name": "C#4",
                    "midi": 61,
                    "time": 128.60626500000018,
                    "velocity": 0.28346456692913385,
                    "duration": 0.6951690000000212
                },
                {
                    "name": "F4",
                    "midi": 65,
                    "time": 128.9538495000002,
                    "velocity": 0.23622047244094488,
                    "duration": 0.6951690000000212
                },
                {
                    "name": "C4",
                    "midi": 60,
                    "time": 129.3014340000002,
                    "velocity": 0.29133858267716534,
                    "duration": 0.6951690000000212
                },
                {
                    "name": "F4",
                    "midi": 65,
                    "time": 129.6490185000002,
                    "velocity": 0.2440944881889764,
                    "duration": 0.3475845000000106
                },
                {
                    "name": "F3",
                    "midi": 53,
                    "time": 129.99660300000022,
                    "velocity": 0.28346456692913385,
                    "duration": 0.6951690000000212
                },
                {
                    "name": "F4",
                    "midi": 65,
                    "time": 130.34418750000023,
                    "velocity": 0.2283464566929134,
                    "duration": 0.6951690000000212
                },
                {
                    "name": "C#4",
                    "midi": 61,
                    "time": 130.69177200000024,
                    "velocity": 0.29133858267716534,
                    "duration": 0.6951690000000212
                },
                {
                    "name": "F4",
                    "midi": 65,
                    "time": 131.03935650000025,
                    "velocity": 0.2440944881889764,
                    "duration": 0.6951690000000212
                },
                {
                    "name": "C4",
                    "midi": 60,
                    "time": 131.38694100000026,
                    "velocity": 0.2992125984251969,
                    "duration": 0.6951690000000212
                },
                {
                    "name": "F4",
                    "midi": 65,
                    "time": 131.73452550000027,
                    "velocity": 0.2440944881889764,
                    "duration": 0.6951690000000212
                },
                {
                    "name": "A3",
                    "midi": 57,
                    "time": 132.08211000000028,
                    "velocity": 0.29133858267716534,
                    "duration": 0.6951690000000212
                },
                {
                    "name": "F4",
                    "midi": 65,
                    "time": 132.4296945000003,
                    "velocity": 0.2440944881889764,
                    "duration": 0.3475845000000106
                },
                {
                    "name": "F3",
                    "midi": 53,
                    "time": 132.7772790000003,
                    "velocity": 0.2992125984251969,
                    "duration": 0.6951690000000212
                },
                {
                    "name": "F4",
                    "midi": 65,
                    "time": 133.12486350000032,
                    "velocity": 0.36220472440944884,
                    "duration": 0.6951690000000212
                },
                {
                    "name": "G#3",
                    "midi": 56,
                    "time": 133.47244800000033,
                    "velocity": 0.2992125984251969,
                    "duration": 0.6951690000000212
                },
                {
                    "name": "F4",
                    "midi": 65,
                    "time": 133.82003250000034,
                    "velocity": 0.36220472440944884,
                    "duration": 0.6951690000000212
                },
                {
                    "name": "C#4",
                    "midi": 61,
                    "time": 134.16761700000035,
                    "velocity": 0.2992125984251969,
                    "duration": 0.6951690000000212
                },
                {
                    "name": "F4",
                    "midi": 65,
                    "time": 134.51520150000036,
                    "velocity": 0.3543307086614173,
                    "duration": 0.6951690000000212
                },
                {
                    "name": "B3",
                    "midi": 59,
                    "time": 134.86278600000037,
                    "velocity": 0.2992125984251969,
                    "duration": 0.6951690000000212
                },
                {
                    "name": "F4",
                    "midi": 65,
                    "time": 135.21037050000038,
                    "velocity": 0.3464566929133858,
                    "duration": 0.6951690000000212
                },
                {
                    "name": "F3",
                    "midi": 53,
                    "time": 135.5579550000004,
                    "velocity": 0.2992125984251969,
                    "duration": 0.6951690000000212
                },
                {
                    "name": "F4",
                    "midi": 65,
                    "time": 135.9055395000004,
                    "velocity": 0.28346456692913385,
                    "duration": 0.6951690000000212
                },
                {
                    "name": "D#4",
                    "midi": 63,
                    "time": 136.2531240000004,
                    "velocity": 0.28346456692913385,
                    "duration": 0.6951690000000212
                },
                {
                    "name": "F4",
                    "midi": 65,
                    "time": 136.60070850000042,
                    "velocity": 0.3228346456692913,
                    "duration": 0.6951690000000212
                },
                {
                    "name": "C#4",
                    "midi": 61,
                    "time": 136.94829300000043,
                    "velocity": 0.28346456692913385,
                    "duration": 0.6951690000000212
                },
                {
                    "name": "F4",
                    "midi": 65,
                    "time": 137.29587750000044,
                    "velocity": 0.2440944881889764,
                    "duration": 0.6951690000000212
                },
                {
                    "name": "B3",
                    "midi": 59,
                    "time": 137.64346200000045,
                    "velocity": 0.28346456692913385,
                    "duration": 0.6951690000000212
                },
                {
                    "name": "F4",
                    "midi": 65,
                    "time": 137.99104650000046,
                    "velocity": 0.2440944881889764,
                    "duration": 0.3475845000000106
                },
                {
                    "name": "F3",
                    "midi": 53,
                    "time": 138.33863100000048,
                    "velocity": 0.28346456692913385,
                    "duration": 0.6951690000000212
                },
                {
                    "name": "F4",
                    "midi": 65,
                    "time": 138.6862155000005,
                    "velocity": 0.2440944881889764,
                    "duration": 0.6951690000000212
                },
                {
                    "name": "A#3",
                    "midi": 58,
                    "time": 139.0338000000005,
                    "velocity": 0.28346456692913385,
                    "duration": 0.6951690000000212
                },
                {
                    "name": "F4",
                    "midi": 65,
                    "time": 139.3813845000005,
                    "velocity": 0.23622047244094488,
                    "duration": 0.6951690000000212
                },
                {
                    "name": "C#4",
                    "midi": 61,
                    "time": 139.72896900000052,
                    "velocity": 0.28346456692913385,
                    "duration": 0.6951690000000212
                },
                {
                    "name": "F4",
                    "midi": 65,
                    "time": 140.07655350000053,
                    "velocity": 0.23622047244094488,
                    "duration": 0.6951690000000212
                },
                {
                    "name": "C4",
                    "midi": 60,
                    "time": 140.42413800000054,
                    "velocity": 0.29133858267716534,
                    "duration": 0.6951690000000212
                },
                {
                    "name": "F4",
                    "midi": 65,
                    "time": 140.77172250000055,
                    "velocity": 0.2440944881889764,
                    "duration": 0.3475845000000106
                },
                {
                    "name": "F3",
                    "midi": 53,
                    "time": 141.11930700000056,
                    "velocity": 0.28346456692913385,
                    "duration": 0.6951690000000212
                },
                {
                    "name": "F4",
                    "midi": 65,
                    "time": 141.46689150000057,
                    "velocity": 0.2283464566929134,
                    "duration": 0.6951690000000212
                },
                {
                    "name": "C#4",
                    "midi": 61,
                    "time": 141.81447600000058,
                    "velocity": 0.29133858267716534,
                    "duration": 0.6951690000000212
                },
                {
                    "name": "F4",
                    "midi": 65,
                    "time": 142.1620605000006,
                    "velocity": 0.2440944881889764,
                    "duration": 0.6951690000000212
                },
                {
                    "name": "C4",
                    "midi": 60,
                    "time": 142.5096450000006,
                    "velocity": 0.2992125984251969,
                    "duration": 0.6951690000000212
                },
                {
                    "name": "F4",
                    "midi": 65,
                    "time": 142.8572295000006,
                    "velocity": 0.2440944881889764,
                    "duration": 0.6951690000000212
                },
                {
                    "name": "A3",
                    "midi": 57,
                    "time": 143.20481400000062,
                    "velocity": 0.29133858267716534,
                    "duration": 0.6951690000000212
                },
                {
                    "name": "F4",
                    "midi": 65,
                    "time": 143.55239850000063,
                    "velocity": 0.2440944881889764,
                    "duration": 0.3475845000000106
                },
                {
                    "name": "F4",
                    "midi": 65,
                    "time": 144.24756750000066,
                    "velocity": 0.2204724409448819,
                    "duration": 0.1737922499999911
                },
                {
                    "name": "A4",
                    "midi": 69,
                    "time": 144.24756750000066,
                    "velocity": 0.2204724409448819,
                    "duration": 0.1737922499999911
                },
                {
                    "name": "C5",
                    "midi": 72,
                    "time": 144.24756750000066,
                    "velocity": 0.2677165354330709,
                    "duration": 0.1737922499999911
                },
                {
                    "name": "C#5",
                    "midi": 73,
                    "time": 144.94273650000065,
                    "velocity": 0.2440944881889764,
                    "duration": 0.1737922499999911
                },
                {
                    "name": "G#4",
                    "midi": 68,
                    "time": 144.94273650000065,
                    "velocity": 0.2047244094488189,
                    "duration": 0.1737922499999911
                },
                {
                    "name": "F4",
                    "midi": 65,
                    "time": 144.94273650000065,
                    "velocity": 0.2047244094488189,
                    "duration": 0.1737922499999911
                },
                {
                    "name": "F4",
                    "midi": 65,
                    "time": 145.63790550000064,
                    "velocity": 0.2204724409448819,
                    "duration": 0.1737922499999911
                },
                {
                    "name": "A4",
                    "midi": 69,
                    "time": 145.63790550000064,
                    "velocity": 0.2204724409448819,
                    "duration": 0.1737922499999911
                },
                {
                    "name": "C5",
                    "midi": 72,
                    "time": 145.63790550000064,
                    "velocity": 0.25984251968503935,
                    "duration": 0.1737922499999911
                },
                {
                    "name": "B4",
                    "midi": 71,
                    "time": 145.98549000000062,
                    "velocity": 0.28346456692913385,
                    "duration": 0.1737922499999911
                },
                {
                    "name": "G#4",
                    "midi": 68,
                    "time": 145.98549000000062,
                    "velocity": 0.23622047244094488,
                    "duration": 0.1737922499999911
                },
                {
                    "name": "F4",
                    "midi": 65,
                    "time": 147.02824350000063,
                    "velocity": 0.2204724409448819,
                    "duration": 0.1737922499999911
                },
                {
                    "name": "A4",
                    "midi": 69,
                    "time": 147.02824350000063,
                    "velocity": 0.2204724409448819,
                    "duration": 0.1737922499999911
                },
                {
                    "name": "C5",
                    "midi": 72,
                    "time": 147.02824350000063,
                    "velocity": 0.2677165354330709,
                    "duration": 0.1737922499999911
                },
                {
                    "name": "C#5",
                    "midi": 73,
                    "time": 147.72341250000062,
                    "velocity": 0.2440944881889764,
                    "duration": 0.1737922499999911
                },
                {
                    "name": "G#4",
                    "midi": 68,
                    "time": 147.72341250000062,
                    "velocity": 0.2047244094488189,
                    "duration": 0.1737922499999911
                },
                {
                    "name": "F4",
                    "midi": 65,
                    "time": 147.72341250000062,
                    "velocity": 0.2047244094488189,
                    "duration": 0.1737922499999911
                },
                {
                    "name": "F4",
                    "midi": 65,
                    "time": 148.4185815000006,
                    "velocity": 0.2204724409448819,
                    "duration": 0.1737922499999911
                },
                {
                    "name": "A4",
                    "midi": 69,
                    "time": 148.4185815000006,
                    "velocity": 0.2204724409448819,
                    "duration": 0.1737922499999911
                },
                {
                    "name": "C5",
                    "midi": 72,
                    "time": 148.4185815000006,
                    "velocity": 0.25984251968503935,
                    "duration": 0.1737922499999911
                },
                {
                    "name": "G#4",
                    "midi": 68,
                    "time": 149.1137505000006,
                    "velocity": 0.23622047244094488,
                    "duration": 0.1737922499999911
                },
                {
                    "name": "B4",
                    "midi": 71,
                    "time": 149.1137505000006,
                    "velocity": 0.28346456692913385,
                    "duration": 0.1737922499999911
                },
                {
                    "name": "B3",
                    "midi": 59,
                    "time": 149.4613350000006,
                    "velocity": 0.2677165354330709,
                    "duration": 0.1737922499999911
                },
                {
                    "name": "C4",
                    "midi": 60,
                    "time": 149.80891950000057,
                    "velocity": 0.25984251968503935,
                    "duration": 0.1737922499999911
                },
                {
                    "name": "D4",
                    "midi": 62,
                    "time": 150.15650400000055,
                    "velocity": 0.2677165354330709,
                    "duration": 0.1737922499999911
                },
                {
                    "name": "D#4",
                    "midi": 63,
                    "time": 150.50408850000053,
                    "velocity": 0.2755905511811024,
                    "duration": 0.1737922499999911
                },
                {
                    "name": "E4",
                    "midi": 64,
                    "time": 150.85167300000052,
                    "velocity": 0.28346456692913385,
                    "duration": 0.1737922499999911
                },
                {
                    "name": "F4",
                    "midi": 65,
                    "time": 151.1992575000005,
                    "velocity": 0.2992125984251969,
                    "duration": 0.1737922499999911
                },
                {
                    "name": "G4",
                    "midi": 67,
                    "time": 151.54684200000048,
                    "velocity": 0.30708661417322836,
                    "duration": 0.1737922499999911
                },
                {
                    "name": "G#4",
                    "midi": 68,
                    "time": 151.89442650000046,
                    "velocity": 0.31496062992125984,
                    "duration": 0.1737922499999911
                },
                {
                    "name": "A#4",
                    "midi": 70,
                    "time": 152.24201100000045,
                    "velocity": 0.3228346456692913,
                    "duration": 0.1737922499999911
                },
                {
                    "name": "B4",
                    "midi": 71,
                    "time": 152.58959550000043,
                    "velocity": 0.33858267716535434,
                    "duration": 0.1737922499999911
                },
                {
                    "name": "C5",
                    "midi": 72,
                    "time": 152.9371800000004,
                    "velocity": 0.3464566929133858,
                    "duration": 0.1737922499999911
                },
                {
                    "name": "C#5",
                    "midi": 73,
                    "time": 153.2847645000004,
                    "velocity": 0.36220472440944884,
                    "duration": 0.1737922499999911
                },
                {
                    "name": "D5",
                    "midi": 74,
                    "time": 153.63234900000037,
                    "velocity": 0.3779527559055118,
                    "duration": 0.1737922499999911
                },
                {
                    "name": "D#5",
                    "midi": 75,
                    "time": 153.97993350000036,
                    "velocity": 0.3937007874015748,
                    "duration": 0.1737922499999911
                },
                {
                    "name": "E5",
                    "midi": 76,
                    "time": 154.32751800000034,
                    "velocity": 0.3937007874015748,
                    "duration": 0.1737922499999911
                },
                {
                    "name": "C5",
                    "midi": 72,
                    "time": 154.67510250000032,
                    "velocity": 0.3543307086614173,
                    "duration": 0.1737922499999911
                },
                {
                    "name": "F4",
                    "midi": 65,
                    "time": 155.3702715000003,
                    "velocity": 0.2204724409448819,
                    "duration": 0.1737922499999911
                },
                {
                    "name": "A4",
                    "midi": 69,
                    "time": 155.3702715000003,
                    "velocity": 0.2204724409448819,
                    "duration": 0.1737922499999911
                },
                {
                    "name": "C5",
                    "midi": 72,
                    "time": 155.3702715000003,
                    "velocity": 0.2677165354330709,
                    "duration": 0.1737922499999911
                },
                {
                    "name": "C#5",
                    "midi": 73,
                    "time": 156.0654405000003,
                    "velocity": 0.2440944881889764,
                    "duration": 0.1737922499999911
                },
                {
                    "name": "G#4",
                    "midi": 68,
                    "time": 156.0654405000003,
                    "velocity": 0.2047244094488189,
                    "duration": 0.1737922499999911
                },
                {
                    "name": "F4",
                    "midi": 65,
                    "time": 156.0654405000003,
                    "velocity": 0.2047244094488189,
                    "duration": 0.1737922499999911
                },
                {
                    "name": "F4",
                    "midi": 65,
                    "time": 156.7606095000003,
                    "velocity": 0.2204724409448819,
                    "duration": 0.1737922499999911
                },
                {
                    "name": "A4",
                    "midi": 69,
                    "time": 156.7606095000003,
                    "velocity": 0.2204724409448819,
                    "duration": 0.1737922499999911
                },
                {
                    "name": "C5",
                    "midi": 72,
                    "time": 156.7606095000003,
                    "velocity": 0.25984251968503935,
                    "duration": 0.1737922499999911
                },
                {
                    "name": "C#5",
                    "midi": 73,
                    "time": 157.10819400000028,
                    "velocity": 0.28346456692913385,
                    "duration": 0.1737922499999911
                },
                {
                    "name": "G#4",
                    "midi": 68,
                    "time": 157.10819400000028,
                    "velocity": 0.23622047244094488,
                    "duration": 0.1737922499999911
                },
                {
                    "name": "F4",
                    "midi": 65,
                    "time": 158.15094750000029,
                    "velocity": 0.2204724409448819,
                    "duration": 0.1737922499999911
                },
                {
                    "name": "A4",
                    "midi": 69,
                    "time": 158.15094750000029,
                    "velocity": 0.2204724409448819,
                    "duration": 0.1737922499999911
                },
                {
                    "name": "C5",
                    "midi": 72,
                    "time": 158.15094750000029,
                    "velocity": 0.2677165354330709,
                    "duration": 0.1737922499999911
                },
                {
                    "name": "C#5",
                    "midi": 73,
                    "time": 158.84611650000028,
                    "velocity": 0.2440944881889764,
                    "duration": 0.1737922499999911
                },
                {
                    "name": "G#4",
                    "midi": 68,
                    "time": 158.84611650000028,
                    "velocity": 0.2047244094488189,
                    "duration": 0.1737922499999911
                },
                {
                    "name": "F4",
                    "midi": 65,
                    "time": 158.84611650000028,
                    "velocity": 0.2047244094488189,
                    "duration": 0.1737922499999911
                },
                {
                    "name": "F4",
                    "midi": 65,
                    "time": 159.54128550000027,
                    "velocity": 0.2204724409448819,
                    "duration": 0.1737922499999911
                },
                {
                    "name": "A4",
                    "midi": 69,
                    "time": 159.54128550000027,
                    "velocity": 0.2204724409448819,
                    "duration": 0.1737922499999911
                },
                {
                    "name": "C5",
                    "midi": 72,
                    "time": 159.54128550000027,
                    "velocity": 0.25984251968503935,
                    "duration": 0.1737922499999911
                },
                {
                    "name": "G#4",
                    "midi": 68,
                    "time": 160.23645450000026,
                    "velocity": 0.23622047244094488,
                    "duration": 0.1737922499999911
                },
                {
                    "name": "B4",
                    "midi": 71,
                    "time": 160.23645450000026,
                    "velocity": 0.28346456692913385,
                    "duration": 0.1737922499999911
                },
                {
                    "name": "C#4",
                    "midi": 61,
                    "time": 160.58403900000025,
                    "velocity": 0.2677165354330709,
                    "duration": 0.1737922499999911
                },
                {
                    "name": "D#4",
                    "midi": 63,
                    "time": 160.93162350000023,
                    "velocity": 0.25984251968503935,
                    "duration": 0.1737922499999911
                },
                {
                    "name": "E4",
                    "midi": 64,
                    "time": 161.2792080000002,
                    "velocity": 0.2677165354330709,
                    "duration": 0.1737922499999911
                },
                {
                    "name": "F4",
                    "midi": 65,
                    "time": 161.6267925000002,
                    "velocity": 0.2755905511811024,
                    "duration": 0.1737922499999911
                },
                {
                    "name": "F#4",
                    "midi": 66,
                    "time": 161.97437700000017,
                    "velocity": 0.28346456692913385,
                    "duration": 0.1737922499999911
                },
                {
                    "name": "G#4",
                    "midi": 68,
                    "time": 162.32196150000016,
                    "velocity": 0.2992125984251969,
                    "duration": 0.1737922499999911
                },
                {
                    "name": "A4",
                    "midi": 69,
                    "time": 162.66954600000014,
                    "velocity": 0.30708661417322836,
                    "duration": 0.1737922499999911
                },
                {
                    "name": "A#4",
                    "midi": 70,
                    "time": 163.01713050000012,
                    "velocity": 0.31496062992125984,
                    "duration": 0.1737922499999911
                },
                {
                    "name": "D#4",
                    "midi": 63,
                    "time": 163.3647150000001,
                    "velocity": 0.2677165354330709,
                    "duration": 0.1737922499999911
                },
                {
                    "name": "F4",
                    "midi": 65,
                    "time": 163.71229950000009,
                    "velocity": 0.25984251968503935,
                    "duration": 0.1737922499999911
                },
                {
                    "name": "F#4",
                    "midi": 66,
                    "time": 164.05988400000007,
                    "velocity": 0.2677165354330709,
                    "duration": 0.1737922499999911
                },
                {
                    "name": "G4",
                    "midi": 67,
                    "time": 164.40746850000005,
                    "velocity": 0.2755905511811024,
                    "duration": 0.1737922499999911
                },
                {
                    "name": "G#4",
                    "midi": 68,
                    "time": 164.75505300000003,
                    "velocity": 0.28346456692913385,
                    "duration": 0.1737922499999911
                },
                {
                    "name": "A#4",
                    "midi": 70,
                    "time": 165.10263750000001,
                    "velocity": 0.2992125984251969,
                    "duration": 0.1737922499999911
                },
                {
                    "name": "B4",
                    "midi": 71,
                    "time": 165.450222,
                    "velocity": 0.30708661417322836,
                    "duration": 0.1737922499999911
                },
                {
                    "name": "C5",
                    "midi": 72,
                    "time": 165.79780649999998,
                    "velocity": 0.31496062992125984,
                    "duration": 0.1737922499999911
                },
                {
                    "name": "C4",
                    "midi": 60,
                    "time": 166.14539099999996,
                    "velocity": 0.4330708661417323,
                    "duration": 0.1737922499999911
                },
                {
                    "name": "E4",
                    "midi": 64,
                    "time": 166.49297549999994,
                    "velocity": 0.3700787401574803,
                    "duration": 0.1737922499999911
                },
                {
                    "name": "C#4",
                    "midi": 61,
                    "time": 166.84055999999993,
                    "velocity": 0.4330708661417323,
                    "duration": 0.1737922499999911
                },
                {
                    "name": "F4",
                    "midi": 65,
                    "time": 167.1881444999999,
                    "velocity": 0.3700787401574803,
                    "duration": 0.1737922499999911
                },
                {
                    "name": "D#4",
                    "midi": 63,
                    "time": 167.5357289999999,
                    "velocity": 0.4330708661417323,
                    "duration": 0.1737922499999911
                },
                {
                    "name": "F#4",
                    "midi": 66,
                    "time": 167.88331349999987,
                    "velocity": 0.3937007874015748,
                    "duration": 0.1737922499999911
                },
                {
                    "name": "E4",
                    "midi": 64,
                    "time": 168.23089799999985,
                    "velocity": 0.4251968503937008,
                    "duration": 0.1737922499999911
                },
                {
                    "name": "G4",
                    "midi": 67,
                    "time": 168.57848249999984,
                    "velocity": 0.4094488188976378,
                    "duration": 0.1737922499999911
                },
                {
                    "name": "F4",
                    "midi": 65,
                    "time": 168.92606699999982,
                    "velocity": 0.4409448818897638,
                    "duration": 0.1737922499999911
                },
                {
                    "name": "A4",
                    "midi": 69,
                    "time": 169.2736514999998,
                    "velocity": 0.4015748031496063,
                    "duration": 0.1737922499999911
                },
                {
                    "name": "F#4",
                    "midi": 66,
                    "time": 169.62123599999978,
                    "velocity": 0.44881889763779526,
                    "duration": 0.1737922499999911
                },
                {
                    "name": "A#4",
                    "midi": 70,
                    "time": 169.96882049999977,
                    "velocity": 0.41732283464566927,
                    "duration": 0.1737922499999911
                },
                {
                    "name": "G#4",
                    "midi": 68,
                    "time": 170.31640499999975,
                    "velocity": 0.4566929133858268,
                    "duration": 0.1737922499999911
                },
                {
                    "name": "B4",
                    "midi": 71,
                    "time": 170.66398949999973,
                    "velocity": 0.4409448818897638,
                    "duration": 0.1737922499999911
                },
                {
                    "name": "A#4",
                    "midi": 70,
                    "time": 171.0115739999997,
                    "velocity": 0.4645669291338583,
                    "duration": 0.3475845000000106
                },
                {
                    "name": "C5",
                    "midi": 72,
                    "time": 171.35915849999972,
                    "velocity": 0.4330708661417323,
                    "duration": 0.26068837500000086
                },
                {
                    "name": "C5",
                    "midi": 72,
                    "time": 171.61984687499972,
                    "velocity": 0.4881889763779528,
                    "duration": 0.08689612500000976
                },
                {
                    "name": "C#5",
                    "midi": 73,
                    "time": 171.70674299999973,
                    "velocity": 0.5590551181102362,
                    "duration": 2.433091499999989
                },
                {
                    "name": "C5",
                    "midi": 72,
                    "time": 174.40052287499972,
                    "velocity": 0.36220472440944884,
                    "duration": 0.08689612500000976
                },
                {
                    "name": "C#5",
                    "midi": 73,
                    "time": 174.48741899999973,
                    "velocity": 0.4094488188976378,
                    "duration": 0.3475845000000106
                },
                {
                    "name": "C5",
                    "midi": 72,
                    "time": 175.09569187499974,
                    "velocity": 0.29133858267716534,
                    "duration": 0.08689612500000976
                },
                {
                    "name": "G#4",
                    "midi": 68,
                    "time": 175.18258799999975,
                    "velocity": 0.36220472440944884,
                    "duration": 0.3475845000000106
                },
                {
                    "name": "A4",
                    "midi": 69,
                    "time": 175.53017249999976,
                    "velocity": 0.36220472440944884,
                    "duration": 0.26068837500000086
                },
                {
                    "name": "A5",
                    "midi": 81,
                    "time": 175.87775699999978,
                    "velocity": 0.30708661417322836,
                    "duration": 0.6951689999999928
                },
                {
                    "name": "F5",
                    "midi": 77,
                    "time": 175.87775699999978,
                    "velocity": 0.25984251968503935,
                    "duration": 0.6951689999999928
                }
            ],
            "controlChanges": {
                "7": [
                    {
                        "number": 7,
                        "time": 0,
                        "value": 0.7874015748031497
                    }
                ],
                "10": [
                    {
                        "number": 10,
                        "time": 0,
                        "value": 0.5039370078740157
                    }
                ],
                "91": [
                    {
                        "number": 91,
                        "time": 0.6966172687500001,
                        "value": 1
                    }
                ]
            },
            "id": 2,
            "name": "Piano left",
            "instrumentNumber": 0,
            "instrument": "acoustic grand piano",
            "instrumentFamily": "piano",
            "channelNumber": 0,
            "isPercussion": false
        },
        {
            "startTime": 0,
            "duration": 0,
            "length": 0,
            "notes": [],
            "controlChanges": {
                "64": [
                    {
                        "number": 64,
                        "time": 0,
                        "value": 0
                    },
                    {
                        "number": 64,
                        "time": 1.430889525,
                        "value": 1
                    },
                    {
                        "number": 64,
                        "time": 2.09854141875,
                        "value": 0
                    },
                    {
                        "number": 64,
                        "time": 2.311436925,
                        "value": 1
                    },
                    {
                        "number": 64,
                        "time": 2.8009517625000004,
                        "value": 0
                    },
                    {
                        "number": 64,
                        "time": 3.0877089750000004,
                        "value": 1
                    },
                    {
                        "number": 64,
                        "time": 3.481638075,
                        "value": 0
                    },
                    {
                        "number": 64,
                        "time": 3.6800508937500003,
                        "value": 1
                    },
                    {
                        "number": 64,
                        "time": 4.185496687500001,
                        "value": 0
                    },
                    {
                        "number": 64,
                        "time": 4.4172196875,
                        "value": 1
                    },
                    {
                        "number": 64,
                        "time": 4.883562225,
                        "value": 0
                    },
                    {
                        "number": 64,
                        "time": 5.1934917375000005,
                        "value": 1
                    },
                    {
                        "number": 64,
                        "time": 5.58017949375,
                        "value": 0
                    },
                    {
                        "number": 64,
                        "time": 5.848109212500001,
                        "value": 1
                    },
                    {
                        "number": 64,
                        "time": 6.273900225000001,
                        "value": 0
                    },
                    {
                        "number": 64,
                        "time": 6.583829737500001,
                        "value": 1
                    },
                    {
                        "number": 64,
                        "time": 6.970517493750001,
                        "value": 0
                    },
                    {
                        "number": 64,
                        "time": 7.258722975000001,
                        "value": 1
                    },
                    {
                        "number": 64,
                        "time": 7.646859000000001,
                        "value": 0
                    },
                    {
                        "number": 64,
                        "time": 10.591189368750001,
                        "value": 1
                    },
                    {
                        "number": 64,
                        "time": 11.134290150000002,
                        "value": 0
                    },
                    {
                        "number": 64,
                        "time": 11.326909893750003,
                        "value": 1
                    },
                    {
                        "number": 64,
                        "time": 11.836700493750003,
                        "value": 0
                    },
                    {
                        "number": 64,
                        "time": 12.145181737500003,
                        "value": 1
                    },
                    {
                        "number": 64,
                        "time": 12.523179881250003,
                        "value": 0
                    },
                    {
                        "number": 64,
                        "time": 12.759247687500004,
                        "value": 1
                    },
                    {
                        "number": 64,
                        "time": 13.219797150000003,
                        "value": 0
                    },
                    {
                        "number": 64,
                        "time": 13.454416687500004,
                        "value": 1
                    },
                    {
                        "number": 64,
                        "time": 13.760001393750004,
                        "value": 0
                    },
                    {
                        "number": 64,
                        "time": 14.230688737500005,
                        "value": 1
                    },
                    {
                        "number": 64,
                        "time": 14.617376493750005,
                        "value": 0
                    },
                    {
                        "number": 64,
                        "time": 14.925857737500005,
                        "value": 1
                    },
                    {
                        "number": 64,
                        "time": 15.311097225000005,
                        "value": 0
                    },
                    {
                        "number": 64,
                        "time": 15.580475212500005,
                        "value": 1
                    },
                    {
                        "number": 64,
                        "time": 16.003369687500005,
                        "value": 0
                    },
                    {
                        "number": 64,
                        "time": 16.214816925000004,
                        "value": 1
                    },
                    {
                        "number": 64,
                        "time": 16.500125868750004,
                        "value": 0
                    },
                    {
                        "number": 64,
                        "time": 16.950537450000006,
                        "value": 1
                    },
                    {
                        "number": 64,
                        "time": 17.399500762500004,
                        "value": 0
                    },
                    {
                        "number": 64,
                        "time": 17.645706450000006,
                        "value": 1
                    },
                    {
                        "number": 64,
                        "time": 18.094669762500004,
                        "value": 0
                    },
                    {
                        "number": 64,
                        "time": 18.401702737500003,
                        "value": 1
                    },
                    {
                        "number": 64,
                        "time": 18.729011475000004,
                        "value": 0
                    },
                    {
                        "number": 64,
                        "time": 18.872390081250003,
                        "value": 1
                    },
                    {
                        "number": 64,
                        "time": 19.485007762500004,
                        "value": 0
                    },
                    {
                        "number": 64,
                        "time": 19.832592262500004,
                        "value": 1
                    },
                    {
                        "number": 64,
                        "time": 20.164245806250005,
                        "value": 0
                    },
                    {
                        "number": 64,
                        "time": 20.375693043750005,
                        "value": 1
                    },
                    {
                        "number": 64,
                        "time": 20.873897493750004,
                        "value": 0
                    },
                    {
                        "number": 64,
                        "time": 21.120103181250006,
                        "value": 1
                    },
                    {
                        "number": 64,
                        "time": 22.064374406250007,
                        "value": 0
                    },
                    {
                        "number": 64,
                        "time": 22.643681906250006,
                        "value": 1
                    },
                    {
                        "number": 64,
                        "time": 22.949266612500004,
                        "value": 0
                    },
                    {
                        "number": 64,
                        "time": 23.105679637500003,
                        "value": 1
                    },
                    {
                        "number": 64,
                        "time": 23.656021762500004,
                        "value": 0
                    },
                    {
                        "number": 64,
                        "time": 23.934089362500004,
                        "value": 1
                    },
                    {
                        "number": 64,
                        "time": 24.352639031250003,
                        "value": 0
                    },
                    {
                        "number": 64,
                        "time": 24.562638000000003,
                        "value": 1
                    },
                    {
                        "number": 64,
                        "time": 25.042014956250004,
                        "value": 0
                    },
                    {
                        "number": 64,
                        "time": 25.393944262500003,
                        "value": 1
                    },
                    {
                        "number": 64,
                        "time": 25.738632225000003,
                        "value": 0
                    },
                    {
                        "number": 64,
                        "time": 26.171664581250003,
                        "value": 1
                    },
                    {
                        "number": 64,
                        "time": 27.126073687500003,
                        "value": 0
                    },
                    {
                        "number": 64,
                        "time": 27.378072450000005,
                        "value": 1
                    },
                    {
                        "number": 64,
                        "time": 27.825587493750003,
                        "value": 0
                    },
                    {
                        "number": 64,
                        "time": 28.113792975000003,
                        "value": 1
                    },
                    {
                        "number": 64,
                        "time": 28.506273806250004,
                        "value": 0
                    },
                    {
                        "number": 64,
                        "time": 28.717721043750004,
                        "value": 1
                    },
                    {
                        "number": 64,
                        "time": 29.218822031250003,
                        "value": 0
                    },
                    {
                        "number": 64,
                        "time": 29.479510406250004,
                        "value": 1
                    },
                    {
                        "number": 64,
                        "time": 29.693854181250003,
                        "value": 0
                    },
                    {
                        "number": 64,
                        "time": 30.206541318750002,
                        "value": 1
                    },
                    {
                        "number": 64,
                        "time": 30.606263493750003,
                        "value": 0
                    },
                    {
                        "number": 64,
                        "time": 30.852469181250004,
                        "value": 1
                    },
                    {
                        "number": 64,
                        "time": 31.302880762500003,
                        "value": 0
                    },
                    {
                        "number": 64,
                        "time": 31.547638181250004,
                        "value": 1
                    },
                    {
                        "number": 64,
                        "time": 31.995153225000003,
                        "value": 0
                    },
                    {
                        "number": 64,
                        "time": 32.2761173625,
                        "value": 1
                    },
                    {
                        "number": 64,
                        "time": 32.672943000000004,
                        "value": 0
                    },
                    {
                        "number": 64,
                        "time": 33.368112,
                        "value": 1
                    },
                    {
                        "number": 64,
                        "time": 34.641140231250006,
                        "value": 0
                    },
                    {
                        "number": 64,
                        "time": 36.148788,
                        "value": 1
                    },
                    {
                        "number": 64,
                        "time": 36.70057839375,
                        "value": 0
                    },
                    {
                        "number": 64,
                        "time": 37.539126,
                        "value": 1
                    },
                    {
                        "number": 64,
                        "time": 37.989537581250005,
                        "value": 0
                    },
                    {
                        "number": 64,
                        "time": 99.35847759375001,
                        "value": 1
                    },
                    {
                        "number": 64,
                        "time": 100.80964288125001,
                        "value": 0
                    },
                    {
                        "number": 64,
                        "time": 100.85598748125001,
                        "value": 1
                    },
                    {
                        "number": 64,
                        "time": 102.21591183750002,
                        "value": 0
                    },
                    {
                        "number": 64,
                        "time": 102.26225643750001,
                        "value": 1
                    },
                    {
                        "number": 64,
                        "time": 102.89804641875001,
                        "value": 0
                    },
                    {
                        "number": 64,
                        "time": 102.9574254375,
                        "value": 1
                    },
                    {
                        "number": 64,
                        "time": 103.59176715000001,
                        "value": 0
                    },
                    {
                        "number": 64,
                        "time": 103.63811175000001,
                        "value": 1
                    },
                    {
                        "number": 64,
                        "time": 104.29128095625,
                        "value": 0
                    },
                    {
                        "number": 64,
                        "time": 104.36224612500001,
                        "value": 1
                    },
                    {
                        "number": 64,
                        "time": 104.98355341875,
                        "value": 0
                    },
                    {
                        "number": 64,
                        "time": 105.06610473750001,
                        "value": 1
                    },
                    {
                        "number": 64,
                        "time": 106.37968449375,
                        "value": 0
                    },
                    {
                        "number": 64,
                        "time": 106.43182216875,
                        "value": 1
                    },
                    {
                        "number": 64,
                        "time": 107.76422941875,
                        "value": 0
                    },
                    {
                        "number": 64,
                        "time": 107.80478094375,
                        "value": 1
                    },
                    {
                        "number": 64,
                        "time": 109.16615356875,
                        "value": 0
                    },
                    {
                        "number": 64,
                        "time": 109.20380855625001,
                        "value": 1
                    },
                    {
                        "number": 64,
                        "time": 109.84828815000002,
                        "value": 0
                    },
                    {
                        "number": 64,
                        "time": 109.90911543750002,
                        "value": 1
                    },
                    {
                        "number": 64,
                        "time": 110.55214676250002,
                        "value": 0
                    },
                    {
                        "number": 64,
                        "time": 110.59849136250001,
                        "value": 1
                    },
                    {
                        "number": 64,
                        "time": 111.93234688125001,
                        "value": 0
                    },
                    {
                        "number": 64,
                        "time": 111.97869148125001,
                        "value": 1
                    },
                    {
                        "number": 64,
                        "time": 113.33861583750002,
                        "value": 0
                    },
                    {
                        "number": 64,
                        "time": 113.38496043750001,
                        "value": 1
                    },
                    {
                        "number": 64,
                        "time": 114.02075041875001,
                        "value": 0
                    },
                    {
                        "number": 64,
                        "time": 114.0801294375,
                        "value": 1
                    },
                    {
                        "number": 64,
                        "time": 114.71447115000001,
                        "value": 0
                    },
                    {
                        "number": 64,
                        "time": 114.76081575,
                        "value": 1
                    },
                    {
                        "number": 64,
                        "time": 115.41398495625,
                        "value": 0
                    },
                    {
                        "number": 64,
                        "time": 115.48495012500001,
                        "value": 1
                    },
                    {
                        "number": 64,
                        "time": 116.10625741875,
                        "value": 0
                    },
                    {
                        "number": 64,
                        "time": 116.18880873750001,
                        "value": 1
                    },
                    {
                        "number": 64,
                        "time": 117.50238849375,
                        "value": 0
                    },
                    {
                        "number": 64,
                        "time": 117.55452616875,
                        "value": 1
                    },
                    {
                        "number": 64,
                        "time": 118.88693341875,
                        "value": 0
                    },
                    {
                        "number": 64,
                        "time": 118.92748494375,
                        "value": 1
                    },
                    {
                        "number": 64,
                        "time": 120.28885756875,
                        "value": 0
                    },
                    {
                        "number": 64,
                        "time": 120.32651255625001,
                        "value": 1
                    },
                    {
                        "number": 64,
                        "time": 120.97099215000001,
                        "value": 0
                    },
                    {
                        "number": 64,
                        "time": 121.03181943750002,
                        "value": 1
                    },
                    {
                        "number": 64,
                        "time": 121.67485076250001,
                        "value": 0
                    }
                ]
            },
            "id": 3,
            "name": "Pedal"
        },
        {
            "startTime": 0,
            "duration": 0,
            "length": 0,
            "notes": [],
            "controlChanges": {},
            "id": 4,
            "name": "Modest Mussorgski: Bilder einer Ausstellung (5)"
        },
        {
            "startTime": 0,
            "duration": 0,
            "length": 0,
            "notes": [],
            "controlChanges": {},
            "id": 5,
            "name": "Copyright © 2000 by Bernd Krüger"
        },
        {
            "startTime": 0,
            "duration": 0,
            "length": 0,
            "notes": [],
            "controlChanges": {},
            "id": 6,
            "name": "http://www.piano-midi.de"
        },
        {
            "startTime": 0,
            "duration": 0,
            "length": 0,
            "notes": [],
            "controlChanges": {},
            "id": 7,
            "name": "Edition: 2013-11-22"
        },
        {
            "startTime": 0,
            "duration": 0,
            "length": 0,
            "notes": [],
            "controlChanges": {},
            "id": 8,
            "name": "Spur 8"
        }
    ]
}