{
  "header": {
    "PPQ": 120,
    "timeSignature": [
      4,
      4
    ],
    "bpm": 115.00002875000719,
    "name": "untitled"
  },
  "startTime": 0,
  "duration": 162.7825680000002,
  "tracks": [
    {
      "startTime": 0,
      "duration": 0,
      "length": 0,
      "notes": [],
      "controlChanges": {},
      "id": 0,
      "name": "untitled"
    },
    {
      "startTime": 8.347824,
      "duration": 162.7825680000002,
      "length": 246,
      "notes": [
        {
          "name": "A4",
          "midi": 69,
          "time": 8.347824,
          "velocity": 0.7874015748031497,
          "duration": 1.0434780000000003
        },
        {
          "name": "D5",
          "midi": 74,
          "time": 9.391302,
          "velocity": 0.7874015748031497,
          "duration": 1.0434780000000003
        },
        {
          "name": "C5",
          "midi": 72,
          "time": 10.43478,
          "velocity": 0.7874015748031497,
          "duration": 1.0434780000000003
        },
        {
          "name": "A4",
          "midi": 69,
          "time": 11.478258,
          "velocity": 0.7874015748031497,
          "duration": 1.0434780000000003
        },
        {
          "name": "G#4",
          "midi": 68,
          "time": 12.521736,
          "velocity": 0.7874015748031497,
          "duration": 1.0434780000000003
        },
        {
          "name": "A4",
          "midi": 69,
          "time": 13.565214000000001,
          "velocity": 0.7874015748031497,
          "duration": 0.5217390000000002
        },
        {
          "name": "B4",
          "midi": 71,
          "time": 14.086953000000001,
          "velocity": 0.7874015748031497,
          "duration": 0.5217390000000002
        },
        {
          "name": "C5",
          "midi": 72,
          "time": 14.608692000000001,
          "velocity": 0.7874015748031497,
          "duration": 1.3043475000000004
        },
        {
          "name": "D5",
          "midi": 74,
          "time": 15.913039500000002,
          "velocity": 0.7874015748031497,
          "duration": 0.2608695000000001
        },
        {
          "name": "C5",
          "midi": 72,
          "time": 16.173909000000002,
          "velocity": 0.7874015748031497,
          "duration": 0.2608694999999983
        },
        {
          "name": "A#4",
          "midi": 70,
          "time": 16.4347785,
          "velocity": 0.7874015748031497,
          "duration": 0.2608694999999983
        },
        {
          "name": "A4",
          "midi": 69,
          "time": 16.695648,
          "velocity": 0.7874015748031497,
          "duration": 0.2608694999999983
        },
        {
          "name": "D4",
          "midi": 62,
          "time": 16.956517499999997,
          "velocity": 0.7874015748031497,
          "duration": 0.2608694999999983
        },
        {
          "name": "D5",
          "midi": 74,
          "time": 17.217386999999995,
          "velocity": 0.7874015748031497,
          "duration": 1.0434780000000003
        },
        {
          "name": "C#5",
          "midi": 73,
          "time": 18.260864999999995,
          "velocity": 0.7874015748031497,
          "duration": 0.5217390000000002
        },
        {
          "name": "D5",
          "midi": 74,
          "time": 18.782603999999996,
          "velocity": 0.7874015748031497,
          "duration": 0.2608694999999983
        },
        {
          "name": "A4",
          "midi": 69,
          "time": 19.043473499999994,
          "velocity": 0.7874015748031497,
          "duration": 0.2608694999999983
        },
        {
          "name": "C5",
          "midi": 72,
          "time": 19.304342999999992,
          "velocity": 0.7874015748031497,
          "duration": 0.7826084999999985
        },
        {
          "name": "A4",
          "midi": 69,
          "time": 20.08695149999999,
          "velocity": 0.7874015748031497,
          "duration": 0.2608694999999983
        },
        {
          "name": "A#4",
          "midi": 70,
          "time": 20.34782099999999,
          "velocity": 0.7874015748031497,
          "duration": 0.7826084999999985
        },
        {
          "name": "E4",
          "midi": 64,
          "time": 21.130429499999988,
          "velocity": 0.7874015748031497,
          "duration": 0.2608694999999983
        },
        {
          "name": "A4",
          "midi": 69,
          "time": 21.391298999999986,
          "velocity": 0.7874015748031497,
          "duration": 1.5652170000000005
        },
        {
          "name": "A4",
          "midi": 69,
          "time": 22.956515999999986,
          "velocity": 0.7874015748031497,
          "duration": 0.2608694999999983
        },
        {
          "name": "C5",
          "midi": 72,
          "time": 23.217385499999985,
          "velocity": 0.7874015748031497,
          "duration": 0.5217390000000002
        },
        {
          "name": "B4",
          "midi": 71,
          "time": 23.739124499999985,
          "velocity": 0.7874015748031497,
          "duration": 0.2608694999999983
        },
        {
          "name": "C5",
          "midi": 72,
          "time": 23.999993999999983,
          "velocity": 0.7874015748031497,
          "duration": 1.3043474999999987
        },
        {
          "name": "D4",
          "midi": 62,
          "time": 25.304341499999982,
          "velocity": 0.7874015748031497,
          "duration": 0.2608694999999983
        },
        {
          "name": "C5",
          "midi": 72,
          "time": 25.56521099999998,
          "velocity": 0.7874015748031497,
          "duration": 0.7826084999999985
        },
        {
          "name": "A4",
          "midi": 69,
          "time": 26.34781949999998,
          "velocity": 0.7874015748031497,
          "duration": 0.2608694999999983
        },
        {
          "name": "B4",
          "midi": 71,
          "time": 26.608688999999977,
          "velocity": 0.7874015748031497,
          "duration": 1.0434780000000003
        },
        {
          "name": "A4",
          "midi": 69,
          "time": 27.652166999999977,
          "velocity": 0.7874015748031497,
          "duration": 0.2608694999999983
        },
        {
          "name": "G#4",
          "midi": 68,
          "time": 27.913036499999976,
          "velocity": 0.7874015748031497,
          "duration": 0.2608694999999983
        },
        {
          "name": "A4",
          "midi": 69,
          "time": 28.173905999999974,
          "velocity": 0.7874015748031497,
          "duration": 1.0434780000000003
        },
        {
          "name": "B4",
          "midi": 71,
          "time": 29.217383999999974,
          "velocity": 0.7874015748031497,
          "duration": 1.0434780000000003
        },
        {
          "name": "C5",
          "midi": 72,
          "time": 30.260861999999975,
          "velocity": 0.7874015748031497,
          "duration": 0.5217390000000002
        },
        {
          "name": "D5",
          "midi": 74,
          "time": 30.782600999999975,
          "velocity": 0.7874015748031497,
          "duration": 0.5217390000000002
        },
        {
          "name": "G4",
          "midi": 67,
          "time": 31.304339999999975,
          "velocity": 0.7874015748031497,
          "duration": 0.2608694999999983
        },
        {
          "name": "A#4",
          "midi": 70,
          "time": 31.565209499999973,
          "velocity": 0.7874015748031497,
          "duration": 0.2608694999999983
        },
        {
          "name": "A4",
          "midi": 69,
          "time": 31.82607899999997,
          "velocity": 0.7874015748031497,
          "duration": 0.782608500000002
        },
        {
          "name": "A#4",
          "midi": 70,
          "time": 32.608687499999974,
          "velocity": 0.7874015748031497,
          "duration": 0.2608694999999983
        },
        {
          "name": "A4",
          "midi": 69,
          "time": 32.86955699999997,
          "velocity": 0.7874015748031497,
          "duration": 0.2608694999999983
        },
        {
          "name": "G4",
          "midi": 67,
          "time": 33.13042649999997,
          "velocity": 0.7874015748031497,
          "duration": 0.5217389999999966
        },
        {
          "name": "E4",
          "midi": 64,
          "time": 33.65216549999997,
          "velocity": 0.7874015748031497,
          "duration": 0.2608694999999983
        },
        {
          "name": "F4",
          "midi": 65,
          "time": 33.913034999999965,
          "velocity": 0.7874015748031497,
          "duration": 0.2608694999999983
        },
        {
          "name": "D4",
          "midi": 62,
          "time": 34.17390449999996,
          "velocity": 0.7874015748031497,
          "duration": 0.2608694999999983
        },
        {
          "name": "A#4",
          "midi": 70,
          "time": 34.43477399999996,
          "velocity": 0.7874015748031497,
          "duration": 1.3043474999999987
        },
        {
          "name": "G4",
          "midi": 67,
          "time": 35.73912149999996,
          "velocity": 0.7874015748031497,
          "duration": 0.2608694999999983
        },
        {
          "name": "A4",
          "midi": 69,
          "time": 35.99999099999996,
          "velocity": 0.7874015748031497,
          "duration": 0.5217389999999966
        },
        {
          "name": "D5",
          "midi": 74,
          "time": 36.521729999999955,
          "velocity": 0.7874015748031497,
          "duration": 1.3043474999999987
        },
        {
          "name": "B4",
          "midi": 71,
          "time": 37.826077499999954,
          "velocity": 0.7874015748031497,
          "duration": 0.2608694999999983
        },
        {
          "name": "C5",
          "midi": 72,
          "time": 38.08694699999995,
          "velocity": 0.7874015748031497,
          "duration": 0.5217389999999966
        },
        {
          "name": "F5",
          "midi": 77,
          "time": 38.60868599999995,
          "velocity": 0.7874015748031497,
          "duration": 1.3043474999999987
        },
        {
          "name": "D5",
          "midi": 74,
          "time": 39.91303349999995,
          "velocity": 0.7874015748031497,
          "duration": 0.2608694999999983
        },
        {
          "name": "E5",
          "midi": 76,
          "time": 40.173902999999946,
          "velocity": 0.7874015748031497,
          "duration": 0.5217389999999966
        },
        {
          "name": "A4",
          "midi": 69,
          "time": 40.69564199999994,
          "velocity": 0.7874015748031497,
          "duration": 0.5217389999999966
        },
        {
          "name": "D5",
          "midi": 74,
          "time": 41.21738099999994,
          "velocity": 0.7874015748031497,
          "duration": 0.782608500000002
        },
        {
          "name": "B4",
          "midi": 71,
          "time": 41.99998949999994,
          "velocity": 0.7874015748031497,
          "duration": 0.2608694999999983
        },
        {
          "name": "C5",
          "midi": 72,
          "time": 42.26085899999994,
          "velocity": 0.7874015748031497,
          "duration": 0.5217389999999966
        },
        {
          "name": "F4",
          "midi": 65,
          "time": 42.782597999999936,
          "velocity": 0.7874015748031497,
          "duration": 0.5217389999999966
        },
        {
          "name": "A#4",
          "midi": 70,
          "time": 43.30433699999993,
          "velocity": 0.7874015748031497,
          "duration": 0.5217389999999966
        },
        {
          "name": "A4",
          "midi": 69,
          "time": 43.82607599999993,
          "velocity": 0.7874015748031497,
          "duration": 1.0434780000000003
        },
        {
          "name": "D4",
          "midi": 62,
          "time": 44.86955399999993,
          "velocity": 0.7874015748031497,
          "duration": 0.5217389999999966
        },
        {
          "name": "G4",
          "midi": 67,
          "time": 45.391292999999926,
          "velocity": 0.7874015748031497,
          "duration": 0.782608500000002
        },
        {
          "name": "E4",
          "midi": 64,
          "time": 46.17390149999993,
          "velocity": 0.7874015748031497,
          "duration": 0.2608694999999983
        },
        {
          "name": "F4",
          "midi": 65,
          "time": 46.43477099999993,
          "velocity": 0.7874015748031497,
          "duration": 0.2608694999999983
        },
        {
          "name": "D5",
          "midi": 74,
          "time": 46.695640499999925,
          "velocity": 0.7874015748031497,
          "duration": 0.2608694999999983
        },
        {
          "name": "E4",
          "midi": 64,
          "time": 46.95650999999992,
          "velocity": 0.7874015748031497,
          "duration": 1.3043474999999987
        },
        {
          "name": "D4",
          "midi": 62,
          "time": 48.26085749999992,
          "velocity": 0.7874015748031497,
          "duration": 0.2608694999999983
        },
        {
          "name": "A4",
          "midi": 69,
          "time": 48.52172699999992,
          "velocity": 0.7874015748031497,
          "duration": 1.0434780000000003
        },
        {
          "name": "G4",
          "midi": 67,
          "time": 49.56520499999992,
          "velocity": 0.7874015748031497,
          "duration": 0.5217389999999966
        },
        {
          "name": "A4",
          "midi": 69,
          "time": 50.08694399999992,
          "velocity": 0.7874015748031497,
          "duration": 1.0434780000000003
        },
        {
          "name": "A4",
          "midi": 69,
          "time": 58.43476799999992,
          "velocity": 0.7874015748031497,
          "duration": 1.0434780000000003
        },
        {
          "name": "E5",
          "midi": 76,
          "time": 59.47824599999992,
          "velocity": 0.7874015748031497,
          "duration": 1.0434780000000003
        },
        {
          "name": "C5",
          "midi": 72,
          "time": 60.52172399999992,
          "velocity": 0.7874015748031497,
          "duration": 1.0434780000000003
        },
        {
          "name": "A4",
          "midi": 69,
          "time": 61.56520199999992,
          "velocity": 0.7874015748031497,
          "duration": 1.0434780000000003
        },
        {
          "name": "G#4",
          "midi": 68,
          "time": 62.60867999999992,
          "velocity": 0.7874015748031497,
          "duration": 1.0434780000000003
        },
        {
          "name": "A4",
          "midi": 69,
          "time": 63.65215799999992,
          "velocity": 0.7874015748031497,
          "duration": 0.5217390000000037
        },
        {
          "name": "B4",
          "midi": 71,
          "time": 64.17389699999993,
          "velocity": 0.7874015748031497,
          "duration": 0.5217389999999966
        },
        {
          "name": "C5",
          "midi": 72,
          "time": 64.69563599999992,
          "velocity": 0.7874015748031497,
          "duration": 1.3043475000000058
        },
        {
          "name": "D5",
          "midi": 74,
          "time": 65.99998349999993,
          "velocity": 0.7874015748031497,
          "duration": 0.2608694999999983
        },
        {
          "name": "C5",
          "midi": 72,
          "time": 66.26085299999993,
          "velocity": 0.7874015748031497,
          "duration": 0.2608694999999983
        },
        {
          "name": "A#4",
          "midi": 70,
          "time": 66.52172249999992,
          "velocity": 0.7874015748031497,
          "duration": 0.2608694999999983
        },
        {
          "name": "A4",
          "midi": 69,
          "time": 66.78259199999992,
          "velocity": 0.7874015748031497,
          "duration": 0.5217389999999966
        },
        {
          "name": "A4",
          "midi": 69,
          "time": 68.34780899999991,
          "velocity": 0.7874015748031497,
          "duration": 0.7826084999999949
        },
        {
          "name": "C5",
          "midi": 72,
          "time": 69.13041749999991,
          "velocity": 0.7874015748031497,
          "duration": 0.2608694999999983
        },
        {
          "name": "A#4",
          "midi": 70,
          "time": 69.3912869999999,
          "velocity": 0.7874015748031497,
          "duration": 0.2608694999999983
        },
        {
          "name": "A4",
          "midi": 69,
          "time": 69.6521564999999,
          "velocity": 0.7874015748031497,
          "duration": 0.2608694999999983
        },
        {
          "name": "A#4",
          "midi": 70,
          "time": 69.9130259999999,
          "velocity": 0.7874015748031497,
          "duration": 0.2608694999999983
        },
        {
          "name": "A4",
          "midi": 69,
          "time": 70.1738954999999,
          "velocity": 0.7874015748031497,
          "duration": 0.2608694999999983
        },
        {
          "name": "G4",
          "midi": 67,
          "time": 70.4347649999999,
          "velocity": 0.7874015748031497,
          "duration": 0.2608694999999983
        },
        {
          "name": "F#4",
          "midi": 66,
          "time": 70.6956344999999,
          "velocity": 0.7874015748031497,
          "duration": 0.2608694999999983
        },
        {
          "name": "G4",
          "midi": 67,
          "time": 70.9565039999999,
          "velocity": 0.7874015748031497,
          "duration": 0.7826084999999949
        },
        {
          "name": "A#4",
          "midi": 70,
          "time": 71.73911249999989,
          "velocity": 0.7874015748031497,
          "duration": 0.2608694999999983
        },
        {
          "name": "E4",
          "midi": 64,
          "time": 71.99998199999989,
          "velocity": 0.7874015748031497,
          "duration": 0.7826084999999949
        },
        {
          "name": "F#4",
          "midi": 66,
          "time": 72.78259049999988,
          "velocity": 0.7874015748031497,
          "duration": 0.2608694999999983
        },
        {
          "name": "G4",
          "midi": 67,
          "time": 73.04345999999988,
          "velocity": 0.7874015748031497,
          "duration": 0.7826084999999949
        },
        {
          "name": "E4",
          "midi": 64,
          "time": 73.82606849999988,
          "velocity": 0.7874015748031497,
          "duration": 0.2608694999999983
        },
        {
          "name": "C#4",
          "midi": 61,
          "time": 74.08693799999988,
          "velocity": 0.7874015748031497,
          "duration": 0.7826084999999949
        },
        {
          "name": "A4",
          "midi": 69,
          "time": 74.86954649999987,
          "velocity": 0.7874015748031497,
          "duration": 0.2608694999999983
        },
        {
          "name": "D4",
          "midi": 62,
          "time": 75.13041599999987,
          "velocity": 0.7874015748031497,
          "duration": 0.7826084999999949
        },
        {
          "name": "F4",
          "midi": 65,
          "time": 75.91302449999986,
          "velocity": 0.7874015748031497,
          "duration": 0.2608694999999983
        },
        {
          "name": "E4",
          "midi": 64,
          "time": 76.17389399999986,
          "velocity": 0.7874015748031497,
          "duration": 0.7826084999999949
        },
        {
          "name": "C5",
          "midi": 72,
          "time": 76.95650249999986,
          "velocity": 0.7874015748031497,
          "duration": 0.2608694999999983
        },
        {
          "name": "F4",
          "midi": 65,
          "time": 77.21737199999986,
          "velocity": 0.7874015748031497,
          "duration": 0.7826084999999949
        },
        {
          "name": "A4",
          "midi": 69,
          "time": 77.99998049999985,
          "velocity": 0.7874015748031497,
          "duration": 0.2608694999999983
        },
        {
          "name": "G4",
          "midi": 67,
          "time": 78.26084999999985,
          "velocity": 0.7874015748031497,
          "duration": 0.7826084999999949
        },
        {
          "name": "E5",
          "midi": 76,
          "time": 79.04345849999984,
          "velocity": 0.7874015748031497,
          "duration": 0.2608694999999983
        },
        {
          "name": "A4",
          "midi": 69,
          "time": 79.30432799999984,
          "velocity": 0.7874015748031497,
          "duration": 0.7826084999999949
        },
        {
          "name": "C5",
          "midi": 72,
          "time": 80.08693649999984,
          "velocity": 0.7874015748031497,
          "duration": 0.2608694999999983
        },
        {
          "name": "B4",
          "midi": 71,
          "time": 80.34780599999984,
          "velocity": 0.7874015748031497,
          "duration": 0.7826084999999949
        },
        {
          "name": "G5",
          "midi": 79,
          "time": 81.13041449999983,
          "velocity": 0.7874015748031497,
          "duration": 0.2608694999999983
        },
        {
          "name": "C#5",
          "midi": 73,
          "time": 81.39128399999983,
          "velocity": 0.7874015748031497,
          "duration": 1.0434779999999932
        },
        {
          "name": "D5",
          "midi": 74,
          "time": 82.43476199999982,
          "velocity": 0.7874015748031497,
          "duration": 0.5217389999999966
        },
        {
          "name": "E5",
          "midi": 76,
          "time": 82.95650099999982,
          "velocity": 0.7874015748031497,
          "duration": 0.7826084999999949
        },
        {
          "name": "C#5",
          "midi": 73,
          "time": 83.73910949999981,
          "velocity": 0.7874015748031497,
          "duration": 0.2608694999999983
        },
        {
          "name": "D5",
          "midi": 74,
          "time": 83.99997899999981,
          "velocity": 0.7874015748031497,
          "duration": 1.3043475000000058
        },
        {
          "name": "E5",
          "midi": 76,
          "time": 85.30432649999982,
          "velocity": 0.7874015748031497,
          "duration": 0.2608694999999983
        },
        {
          "name": "F5",
          "midi": 77,
          "time": 85.56519599999982,
          "velocity": 0.7874015748031497,
          "duration": 0.2608694999999983
        },
        {
          "name": "E5",
          "midi": 76,
          "time": 85.82606549999981,
          "velocity": 0.7874015748031497,
          "duration": 0.2608694999999983
        },
        {
          "name": "G5",
          "midi": 79,
          "time": 86.08693499999981,
          "velocity": 0.7874015748031497,
          "duration": 0.7826084999999949
        },
        {
          "name": "F5",
          "midi": 77,
          "time": 86.8695434999998,
          "velocity": 0.7874015748031497,
          "duration": 0.2608694999999983
        },
        {
          "name": "E5",
          "midi": 76,
          "time": 87.1304129999998,
          "velocity": 0.7874015748031497,
          "duration": 0.2608694999999983
        },
        {
          "name": "D5",
          "midi": 74,
          "time": 87.3912824999998,
          "velocity": 0.7874015748031497,
          "duration": 0.2608694999999983
        },
        {
          "name": "C#5",
          "midi": 73,
          "time": 87.6521519999998,
          "velocity": 0.7874015748031497,
          "duration": 0.2608694999999983
        },
        {
          "name": "A4",
          "midi": 69,
          "time": 87.9130214999998,
          "velocity": 0.7874015748031497,
          "duration": 0.2608694999999983
        },
        {
          "name": "D5",
          "midi": 74,
          "time": 88.1738909999998,
          "velocity": 0.7874015748031497,
          "duration": 0.7826084999999949
        },
        {
          "name": "B4",
          "midi": 71,
          "time": 88.9564994999998,
          "velocity": 0.7874015748031497,
          "duration": 0.2608694999999983
        },
        {
          "name": "C5",
          "midi": 72,
          "time": 89.21736899999979,
          "velocity": 0.7874015748031497,
          "duration": 0.5217389999999966
        },
        {
          "name": "C5",
          "midi": 72,
          "time": 89.73910799999979,
          "velocity": 0.7874015748031497,
          "duration": 0.5217389999999966
        },
        {
          "name": "A#4",
          "midi": 70,
          "time": 90.26084699999979,
          "velocity": 0.7874015748031497,
          "duration": 0.5217389999999966
        },
        {
          "name": "A4",
          "midi": 69,
          "time": 90.78258599999978,
          "velocity": 0.7874015748031497,
          "duration": 0.5217389999999966
        },
        {
          "name": "E5",
          "midi": 76,
          "time": 100.17388799999978,
          "velocity": 0.7874015748031497,
          "duration": 1.0434779999999932
        },
        {
          "name": "A5",
          "midi": 81,
          "time": 101.21736599999977,
          "velocity": 0.7874015748031497,
          "duration": 1.0434779999999932
        },
        {
          "name": "F5",
          "midi": 77,
          "time": 102.26084399999976,
          "velocity": 0.7874015748031497,
          "duration": 1.0434779999999932
        },
        {
          "name": "D5",
          "midi": 74,
          "time": 103.30432199999976,
          "velocity": 0.7874015748031497,
          "duration": 1.0434779999999932
        },
        {
          "name": "C#5",
          "midi": 73,
          "time": 104.34779999999975,
          "velocity": 0.7874015748031497,
          "duration": 1.0434779999999932
        },
        {
          "name": "D5",
          "midi": 74,
          "time": 105.39127799999974,
          "velocity": 0.7874015748031497,
          "duration": 0.5217389999999966
        },
        {
          "name": "E5",
          "midi": 76,
          "time": 105.91301699999974,
          "velocity": 0.7874015748031497,
          "duration": 0.5217389999999966
        },
        {
          "name": "F5",
          "midi": 77,
          "time": 106.43475599999974,
          "velocity": 0.7874015748031497,
          "duration": 1.3043475000000058
        },
        {
          "name": "G5",
          "midi": 79,
          "time": 107.73910349999974,
          "velocity": 0.7874015748031497,
          "duration": 0.2608694999999983
        },
        {
          "name": "F5",
          "midi": 77,
          "time": 107.99997299999974,
          "velocity": 0.7874015748031497,
          "duration": 0.2608694999999983
        },
        {
          "name": "E5",
          "midi": 76,
          "time": 108.26084249999974,
          "velocity": 0.7874015748031497,
          "duration": 0.2608694999999983
        },
        {
          "name": "D5",
          "midi": 74,
          "time": 108.52171199999974,
          "velocity": 0.7874015748031497,
          "duration": 0.7826084999999949
        },
        {
          "name": "E5",
          "midi": 76,
          "time": 109.30432049999973,
          "velocity": 0.7874015748031497,
          "duration": 0.2608694999999983
        },
        {
          "name": "C#5",
          "midi": 73,
          "time": 109.56518999999973,
          "velocity": 0.7874015748031497,
          "duration": 0.5217389999999966
        },
        {
          "name": "D5",
          "midi": 74,
          "time": 110.08692899999973,
          "velocity": 0.7874015748031497,
          "duration": 0.2608694999999983
        },
        {
          "name": "F5",
          "midi": 77,
          "time": 110.34779849999973,
          "velocity": 0.7874015748031497,
          "duration": 0.2608694999999983
        },
        {
          "name": "A#4",
          "midi": 70,
          "time": 110.60866799999972,
          "velocity": 0.7874015748031497,
          "duration": 1.3043475000000058
        },
        {
          "name": "A#4",
          "midi": 70,
          "time": 111.91301549999973,
          "velocity": 0.7874015748031497,
          "duration": 0.2608694999999983
        },
        {
          "name": "A4",
          "midi": 69,
          "time": 112.17388499999973,
          "velocity": 0.7874015748031497,
          "duration": 0.2608694999999983
        },
        {
          "name": "G4",
          "midi": 67,
          "time": 112.43475449999973,
          "velocity": 0.7874015748031497,
          "duration": 0.2608694999999983
        },
        {
          "name": "F4",
          "midi": 65,
          "time": 112.69562399999973,
          "velocity": 0.7874015748031497,
          "duration": 1.0434779999999932
        },
        {
          "name": "A#4",
          "midi": 70,
          "time": 113.73910199999972,
          "velocity": 0.7874015748031497,
          "duration": 1.0434779999999932
        },
        {
          "name": "A4",
          "midi": 69,
          "time": 114.78257999999971,
          "velocity": 0.7874015748031497,
          "duration": 1.565217000000004
        },
        {
          "name": "E5",
          "midi": 76,
          "time": 116.34779699999972,
          "velocity": 0.7874015748031497,
          "duration": 0.7826084999999949
        },
        {
          "name": "C#5",
          "midi": 73,
          "time": 117.13040549999971,
          "velocity": 0.7874015748031497,
          "duration": 0.2608694999999983
        },
        {
          "name": "D5",
          "midi": 74,
          "time": 117.39127499999971,
          "velocity": 0.7874015748031497,
          "duration": 0.2608694999999983
        },
        {
          "name": "E5",
          "midi": 76,
          "time": 117.65214449999971,
          "velocity": 0.7874015748031497,
          "duration": 0.2608694999999983
        },
        {
          "name": "F5",
          "midi": 77,
          "time": 117.9130139999997,
          "velocity": 0.7874015748031497,
          "duration": 0.2608694999999983
        },
        {
          "name": "D5",
          "midi": 74,
          "time": 118.1738834999997,
          "velocity": 0.7874015748031497,
          "duration": 0.2608694999999983
        },
        {
          "name": "G5",
          "midi": 79,
          "time": 118.4347529999997,
          "velocity": 0.7874015748031497,
          "duration": 0.7826084999999949
        },
        {
          "name": "E5",
          "midi": 76,
          "time": 119.2173614999997,
          "velocity": 0.7874015748031497,
          "duration": 0.2608694999999983
        },
        {
          "name": "A5",
          "midi": 81,
          "time": 119.4782309999997,
          "velocity": 0.7874015748031497,
          "duration": 0.2608694999999983
        },
        {
          "name": "G5",
          "midi": 79,
          "time": 119.7391004999997,
          "velocity": 0.7874015748031497,
          "duration": 0.2608694999999983
        },
        {
          "name": "F5",
          "midi": 77,
          "time": 119.99996999999969,
          "velocity": 0.7874015748031497,
          "duration": 0.2608694999999983
        },
        {
          "name": "E5",
          "midi": 76,
          "time": 120.26083949999969,
          "velocity": 0.7874015748031497,
          "duration": 0.2608694999999983
        },
        {
          "name": "D5",
          "midi": 74,
          "time": 120.52170899999969,
          "velocity": 0.7874015748031497,
          "duration": 0.2608694999999983
        },
        {
          "name": "C#5",
          "midi": 73,
          "time": 120.78257849999969,
          "velocity": 0.7874015748031497,
          "duration": 0.2608694999999983
        },
        {
          "name": "D5",
          "midi": 74,
          "time": 121.04344799999969,
          "velocity": 0.7874015748031497,
          "duration": 0.2608694999999983
        },
        {
          "name": "C5",
          "midi": 72,
          "time": 121.30431749999968,
          "velocity": 0.7874015748031497,
          "duration": 0.2608694999999983
        },
        {
          "name": "A#4",
          "midi": 70,
          "time": 121.56518699999968,
          "velocity": 0.7874015748031497,
          "duration": 0.2608694999999983
        },
        {
          "name": "A4",
          "midi": 69,
          "time": 121.82605649999968,
          "velocity": 0.7874015748031497,
          "duration": 0.2608694999999983
        },
        {
          "name": "G4",
          "midi": 67,
          "time": 122.08692599999968,
          "velocity": 0.7874015748031497,
          "duration": 1.3043475000000058
        },
        {
          "name": "E4",
          "midi": 64,
          "time": 123.39127349999968,
          "velocity": 0.7874015748031497,
          "duration": 0.2608694999999983
        },
        {
          "name": "F4",
          "midi": 65,
          "time": 123.65214299999968,
          "velocity": 0.7874015748031497,
          "duration": 0.2608694999999983
        },
        {
          "name": "D4",
          "midi": 62,
          "time": 123.91301249999968,
          "velocity": 0.7874015748031497,
          "duration": 0.2608694999999983
        },
        {
          "name": "A4",
          "midi": 69,
          "time": 124.17388199999968,
          "velocity": 0.7874015748031497,
          "duration": 1.3043475000000058
        },
        {
          "name": "F#4",
          "midi": 66,
          "time": 125.47822949999969,
          "velocity": 0.7874015748031497,
          "duration": 0.2608694999999983
        },
        {
          "name": "G4",
          "midi": 67,
          "time": 125.73909899999968,
          "velocity": 0.7874015748031497,
          "duration": 0.2608694999999983
        },
        {
          "name": "A#4",
          "midi": 70,
          "time": 125.99996849999968,
          "velocity": 0.7874015748031497,
          "duration": 0.2608694999999983
        },
        {
          "name": "C5",
          "midi": 72,
          "time": 126.26083799999968,
          "velocity": 0.7874015748031497,
          "duration": 1.3043475000000058
        },
        {
          "name": "A4",
          "midi": 69,
          "time": 127.56518549999969,
          "velocity": 0.7874015748031497,
          "duration": 0.2608694999999983
        },
        {
          "name": "A#4",
          "midi": 70,
          "time": 127.82605499999968,
          "velocity": 0.7874015748031497,
          "duration": 0.2608695000000125
        },
        {
          "name": "D5",
          "midi": 74,
          "time": 128.0869244999997,
          "velocity": 0.7874015748031497,
          "duration": 0.2608695000000125
        },
        {
          "name": "D#5",
          "midi": 75,
          "time": 128.3477939999997,
          "velocity": 0.7874015748031497,
          "duration": 0.5217389999999966
        },
        {
          "name": "D5",
          "midi": 74,
          "time": 128.8695329999997,
          "velocity": 0.7874015748031497,
          "duration": 0.5217389999999966
        },
        {
          "name": "C#5",
          "midi": 73,
          "time": 129.3912719999997,
          "velocity": 0.7874015748031497,
          "duration": 0.5217389999999966
        },
        {
          "name": "A5",
          "midi": 81,
          "time": 129.9130109999997,
          "velocity": 0.7874015748031497,
          "duration": 0.7826085000000091
        },
        {
          "name": "D5",
          "midi": 74,
          "time": 130.6956194999997,
          "velocity": 0.7874015748031497,
          "duration": 0.2608695000000125
        },
        {
          "name": "G5",
          "midi": 79,
          "time": 130.95648899999972,
          "velocity": 0.7874015748031497,
          "duration": 0.7826085000000091
        },
        {
          "name": "C#5",
          "midi": 73,
          "time": 131.73909749999973,
          "velocity": 0.7874015748031497,
          "duration": 0.2608695000000125
        },
        {
          "name": "F5",
          "midi": 77,
          "time": 131.99996699999974,
          "velocity": 0.7874015748031497,
          "duration": 0.7826085000000091
        },
        {
          "name": "D5",
          "midi": 74,
          "time": 132.78257549999975,
          "velocity": 0.7874015748031497,
          "duration": 0.2608695000000125
        },
        {
          "name": "E5",
          "midi": 76,
          "time": 133.04344499999976,
          "velocity": 0.7874015748031497,
          "duration": 0.7826085000000091
        },
        {
          "name": "C#5",
          "midi": 73,
          "time": 133.82605349999977,
          "velocity": 0.7874015748031497,
          "duration": 0.2608695000000125
        },
        {
          "name": "D5",
          "midi": 74,
          "time": 134.08692299999979,
          "velocity": 0.7874015748031497,
          "duration": 0.7826085000000091
        },
        {
          "name": "B4",
          "midi": 71,
          "time": 134.8695314999998,
          "velocity": 0.7874015748031497,
          "duration": 0.2608695000000125
        },
        {
          "name": "C5",
          "midi": 72,
          "time": 135.1304009999998,
          "velocity": 0.7874015748031497,
          "duration": 1.0434779999999932
        },
        {
          "name": "A#4",
          "midi": 70,
          "time": 136.1738789999998,
          "velocity": 0.7874015748031497,
          "duration": 0.5217389999999966
        },
        {
          "name": "A4",
          "midi": 69,
          "time": 136.6956179999998,
          "velocity": 0.7874015748031497,
          "duration": 0.7826085000000091
        },
        {
          "name": "A4",
          "midi": 69,
          "time": 137.4782264999998,
          "velocity": 0.7874015748031497,
          "duration": 0.2608695000000125
        },
        {
          "name": "D5",
          "midi": 74,
          "time": 137.73909599999982,
          "velocity": 0.7874015748031497,
          "duration": 0.2608695000000125
        },
        {
          "name": "F5",
          "midi": 77,
          "time": 137.99996549999983,
          "velocity": 0.7874015748031497,
          "duration": 0.2608695000000125
        },
        {
          "name": "E5",
          "midi": 76,
          "time": 138.26083499999984,
          "velocity": 0.7874015748031497,
          "duration": 0.2608695000000125
        },
        {
          "name": "G5",
          "midi": 79,
          "time": 138.52170449999986,
          "velocity": 0.7874015748031497,
          "duration": 0.2608695000000125
        },
        {
          "name": "F5",
          "midi": 77,
          "time": 138.78257399999987,
          "velocity": 0.7874015748031497,
          "duration": 0.2608695000000125
        },
        {
          "name": "E5",
          "midi": 76,
          "time": 139.04344349999988,
          "velocity": 0.7874015748031497,
          "duration": 0.2608695000000125
        },
        {
          "name": "D5",
          "midi": 74,
          "time": 139.3043129999999,
          "velocity": 0.7874015748031497,
          "duration": 0.7826085000000091
        },
        {
          "name": "F5",
          "midi": 77,
          "time": 140.0869214999999,
          "velocity": 0.7874015748031497,
          "duration": 0.5217389999999966
        },
        {
          "name": "E5",
          "midi": 76,
          "time": 140.6086604999999,
          "velocity": 0.7874015748031497,
          "duration": 0.2608695000000125
        },
        {
          "name": "F5",
          "midi": 77,
          "time": 140.8695299999999,
          "velocity": 0.7874015748031497,
          "duration": 0.2608695000000125
        },
        {
          "name": "D5",
          "midi": 74,
          "time": 141.13039949999992,
          "velocity": 0.7874015748031497,
          "duration": 0.2608695000000125
        },
        {
          "name": "E5",
          "midi": 76,
          "time": 141.39126899999994,
          "velocity": 0.7874015748031497,
          "duration": 0.7826085000000091
        },
        {
          "name": "D5",
          "midi": 74,
          "time": 142.17387749999995,
          "velocity": 0.7874015748031497,
          "duration": 0.2608695000000125
        },
        {
          "name": "C5",
          "midi": 72,
          "time": 142.43474699999996,
          "velocity": 0.7874015748031497,
          "duration": 0.2608695000000125
        },
        {
          "name": "B4",
          "midi": 71,
          "time": 142.69561649999997,
          "velocity": 0.7874015748031497,
          "duration": 0.2608695000000125
        },
        {
          "name": "C5",
          "midi": 72,
          "time": 142.95648599999998,
          "velocity": 0.7874015748031497,
          "duration": 0.7826085000000091
        },
        {
          "name": "A5",
          "midi": 81,
          "time": 143.7390945,
          "velocity": 0.7874015748031497,
          "duration": 0.2608695000000125
        },
        {
          "name": "G5",
          "midi": 79,
          "time": 143.999964,
          "velocity": 0.7874015748031497,
          "duration": 0.2608695000000125
        },
        {
          "name": "F#5",
          "midi": 78,
          "time": 144.26083350000002,
          "velocity": 0.7874015748031497,
          "duration": 0.2608695000000125
        },
        {
          "name": "G5",
          "midi": 79,
          "time": 144.52170300000003,
          "velocity": 0.7874015748031497,
          "duration": 0.2608695000000125
        },
        {
          "name": "A#5",
          "midi": 82,
          "time": 144.78257250000004,
          "velocity": 0.7874015748031497,
          "duration": 0.2608695000000125
        },
        {
          "name": "C#5",
          "midi": 73,
          "time": 145.04344200000006,
          "velocity": 0.7874015748031497,
          "duration": 0.5217389999999966
        },
        {
          "name": "D5",
          "midi": 74,
          "time": 147.13039800000004,
          "velocity": 0.7874015748031497,
          "duration": 0.5217389999999966
        },
        {
          "name": "D5",
          "midi": 74,
          "time": 149.21735400000003,
          "velocity": 0.7874015748031497,
          "duration": 2.347825499999999
        },
        {
          "name": "B4",
          "midi": 71,
          "time": 151.56517950000003,
          "velocity": 0.7874015748031497,
          "duration": 0.2608695000000125
        },
        {
          "name": "C#5",
          "midi": 73,
          "time": 151.82604900000004,
          "velocity": 0.7874015748031497,
          "duration": 0.5217389999999966
        },
        {
          "name": "D5",
          "midi": 74,
          "time": 152.34778800000004,
          "velocity": 0.7874015748031497,
          "duration": 0.7826085000000091
        },
        {
          "name": "C5",
          "midi": 72,
          "time": 153.13039650000005,
          "velocity": 0.7874015748031497,
          "duration": 0.2608695000000125
        },
        {
          "name": "A#4",
          "midi": 70,
          "time": 153.39126600000006,
          "velocity": 0.7874015748031497,
          "duration": 0.7826085000000091
        },
        {
          "name": "A4",
          "midi": 69,
          "time": 154.17387450000007,
          "velocity": 0.7874015748031497,
          "duration": 0.2608695000000125
        },
        {
          "name": "D4",
          "midi": 62,
          "time": 154.43474400000008,
          "velocity": 0.7874015748031497,
          "duration": 1.0434779999999932
        },
        {
          "name": "G4",
          "midi": 67,
          "time": 155.7390915000001,
          "velocity": 0.7874015748031497,
          "duration": 0.2608695000000125
        },
        {
          "name": "A4",
          "midi": 69,
          "time": 155.9999610000001,
          "velocity": 0.7874015748031497,
          "duration": 0.2608695000000125
        },
        {
          "name": "C5",
          "midi": 72,
          "time": 156.2608305000001,
          "velocity": 0.7874015748031497,
          "duration": 0.5217389999999966
        },
        {
          "name": "A#4",
          "midi": 70,
          "time": 156.7825695000001,
          "velocity": 0.7874015748031497,
          "duration": 0.2608695000000125
        },
        {
          "name": "C5",
          "midi": 72,
          "time": 157.04343900000012,
          "velocity": 0.7874015748031497,
          "duration": 0.2608695000000125
        },
        {
          "name": "D#5",
          "midi": 75,
          "time": 157.30430850000013,
          "velocity": 0.7874015748031497,
          "duration": 0.5217389999999966
        },
        {
          "name": "D5",
          "midi": 74,
          "time": 157.82604750000013,
          "velocity": 0.7874015748031497,
          "duration": 0.2608695000000125
        },
        {
          "name": "F#5",
          "midi": 78,
          "time": 158.08691700000014,
          "velocity": 0.7874015748031497,
          "duration": 0.2608695000000125
        },
        {
          "name": "A5",
          "midi": 81,
          "time": 158.34778650000015,
          "velocity": 0.7874015748031497,
          "duration": 0.5217389999999966
        },
        {
          "name": "G5",
          "midi": 79,
          "time": 158.86952550000015,
          "velocity": 0.7874015748031497,
          "duration": 0.13043475000000626
        },
        {
          "name": "A5",
          "midi": 81,
          "time": 158.99996025000016,
          "velocity": 0.7874015748031497,
          "duration": 0.13043475000000626
        },
        {
          "name": "A#5",
          "midi": 82,
          "time": 159.13039500000016,
          "velocity": 0.7874015748031497,
          "duration": 0.2608695000000125
        },
        {
          "name": "C#5",
          "midi": 73,
          "time": 159.39126450000018,
          "velocity": 0.7874015748031497,
          "duration": 0.2608695000000125
        },
        {
          "name": "D5",
          "midi": 74,
          "time": 159.6521340000002,
          "velocity": 0.7874015748031497,
          "duration": 3.130434000000008
        }
      ],
      "controlChanges": {
        "7": [
          {
            "number": 7,
            "time": 0,
            "value": 0.7874015748031497
          }
        ],
        "10": [
          {
            "number": 10,
            "time": 0,
            "value": 0.7401574803149606
          }
        ]
      },
      "id": 1,
      "name": "String Quartet",
      "instrumentNumber": 40,
      "instrument": "violin",
      "instrumentFamily": "strings",
      "channelNumber": 0,
      "isPercussion": false
    },
    {
      "startTime": 0,
      "duration": 162.78256800000008,
      "length": 253,
      "notes": [
        {
          "name": "D4",
          "midi": 62,
          "time": 0,
          "velocity": 0.7874015748031497,
          "duration": 1.043478
        },
        {
          "name": "A4",
          "midi": 69,
          "time": 1.043478,
          "velocity": 0.7874015748031497,
          "duration": 1.043478
        },
        {
          "name": "F4",
          "midi": 65,
          "time": 2.086956,
          "velocity": 0.7874015748031497,
          "duration": 1.043478
        },
        {
          "name": "D4",
          "midi": 62,
          "time": 3.1304339999999997,
          "velocity": 0.7874015748031497,
          "duration": 1.043478
        },
        {
          "name": "C#4",
          "midi": 61,
          "time": 4.173912,
          "velocity": 0.7874015748031497,
          "duration": 1.0434780000000003
        },
        {
          "name": "D4",
          "midi": 62,
          "time": 5.21739,
          "velocity": 0.7874015748031497,
          "duration": 0.5217390000000002
        },
        {
          "name": "E4",
          "midi": 64,
          "time": 5.739129,
          "velocity": 0.7874015748031497,
          "duration": 0.5217390000000002
        },
        {
          "name": "F4",
          "midi": 65,
          "time": 6.260868,
          "velocity": 0.7874015748031497,
          "duration": 1.3043475000000004
        },
        {
          "name": "G4",
          "midi": 67,
          "time": 7.565215500000001,
          "velocity": 0.7874015748031497,
          "duration": 0.2608695000000001
        },
        {
          "name": "F4",
          "midi": 65,
          "time": 7.826085000000001,
          "velocity": 0.7874015748031497,
          "duration": 0.2608695000000001
        },
        {
          "name": "E4",
          "midi": 64,
          "time": 8.086954500000001,
          "velocity": 0.7874015748031497,
          "duration": 0.2608695000000001
        },
        {
          "name": "D4",
          "midi": 62,
          "time": 8.347824000000001,
          "velocity": 0.7874015748031497,
          "duration": 0.5217390000000002
        },
        {
          "name": "E4",
          "midi": 64,
          "time": 8.869563000000001,
          "velocity": 0.7874015748031497,
          "duration": 0.5217390000000002
        },
        {
          "name": "F4",
          "midi": 65,
          "time": 9.391302000000001,
          "velocity": 0.7874015748031497,
          "duration": 0.5217390000000002
        },
        {
          "name": "G4",
          "midi": 67,
          "time": 9.913041000000002,
          "velocity": 0.7874015748031497,
          "duration": 0.5217390000000002
        },
        {
          "name": "A4",
          "midi": 69,
          "time": 10.434780000000002,
          "velocity": 0.7874015748031497,
          "duration": 0.5217390000000002
        },
        {
          "name": "A3",
          "midi": 57,
          "time": 10.956519000000002,
          "velocity": 0.7874015748031497,
          "duration": 0.2608695000000001
        },
        {
          "name": "B3",
          "midi": 59,
          "time": 11.217388500000002,
          "velocity": 0.7874015748031497,
          "duration": 0.2608695000000001
        },
        {
          "name": "C4",
          "midi": 60,
          "time": 11.478258000000002,
          "velocity": 0.7874015748031497,
          "duration": 0.2608695000000001
        },
        {
          "name": "A3",
          "midi": 57,
          "time": 11.739127500000002,
          "velocity": 0.7874015748031497,
          "duration": 0.2608695000000001
        },
        {
          "name": "F4",
          "midi": 65,
          "time": 11.999997000000002,
          "velocity": 0.7874015748031497,
          "duration": 0.7826085000000003
        },
        {
          "name": "B3",
          "midi": 59,
          "time": 12.782605500000003,
          "velocity": 0.7874015748031497,
          "duration": 0.2608695000000001
        },
        {
          "name": "E4",
          "midi": 64,
          "time": 13.043475000000003,
          "velocity": 0.7874015748031497,
          "duration": 0.7826085000000003
        },
        {
          "name": "F4",
          "midi": 65,
          "time": 13.826083500000003,
          "velocity": 0.7874015748031497,
          "duration": 0.2608695000000001
        },
        {
          "name": "E4",
          "midi": 64,
          "time": 14.086953000000003,
          "velocity": 0.7874015748031497,
          "duration": 0.2608695000000001
        },
        {
          "name": "D4",
          "midi": 62,
          "time": 14.347822500000003,
          "velocity": 0.7874015748031497,
          "duration": 0.2608695000000001
        },
        {
          "name": "E4",
          "midi": 64,
          "time": 14.608692000000003,
          "velocity": 0.7874015748031497,
          "duration": 0.5217390000000002
        },
        {
          "name": "F#4",
          "midi": 66,
          "time": 15.130431000000003,
          "velocity": 0.7874015748031497,
          "duration": 0.5217390000000002
        },
        {
          "name": "G4",
          "midi": 67,
          "time": 15.652170000000003,
          "velocity": 0.7874015748031497,
          "duration": 1.5652169999999987
        },
        {
          "name": "F4",
          "midi": 65,
          "time": 17.217387000000002,
          "velocity": 0.7874015748031497,
          "duration": 0.5217390000000002
        },
        {
          "name": "E4",
          "midi": 64,
          "time": 17.739126000000002,
          "velocity": 0.7874015748031497,
          "duration": 1.0434780000000003
        },
        {
          "name": "D4",
          "midi": 62,
          "time": 18.782604000000003,
          "velocity": 0.7874015748031497,
          "duration": 0.7826084999999985
        },
        {
          "name": "E4",
          "midi": 64,
          "time": 19.5652125,
          "velocity": 0.7874015748031497,
          "duration": 0.2608694999999983
        },
        {
          "name": "F4",
          "midi": 65,
          "time": 19.826082,
          "velocity": 0.7874015748031497,
          "duration": 0.7826084999999985
        },
        {
          "name": "D4",
          "midi": 62,
          "time": 20.608690499999998,
          "velocity": 0.7874015748031497,
          "duration": 0.2608694999999983
        },
        {
          "name": "G4",
          "midi": 67,
          "time": 20.869559999999996,
          "velocity": 0.7874015748031497,
          "duration": 0.7826084999999985
        },
        {
          "name": "G4",
          "midi": 67,
          "time": 21.652168499999995,
          "velocity": 0.7874015748031497,
          "duration": 0.2608694999999983
        },
        {
          "name": "F4",
          "midi": 65,
          "time": 21.913037999999993,
          "velocity": 0.7874015748031497,
          "duration": 0.2608694999999983
        },
        {
          "name": "E4",
          "midi": 64,
          "time": 22.17390749999999,
          "velocity": 0.7874015748031497,
          "duration": 0.2608694999999983
        },
        {
          "name": "D4",
          "midi": 62,
          "time": 22.43477699999999,
          "velocity": 0.7874015748031497,
          "duration": 0.2608694999999983
        },
        {
          "name": "C#4",
          "midi": 61,
          "time": 22.695646499999988,
          "velocity": 0.7874015748031497,
          "duration": 0.2608694999999983
        },
        {
          "name": "D4",
          "midi": 62,
          "time": 22.956515999999986,
          "velocity": 0.7874015748031497,
          "duration": 0.5217390000000002
        },
        {
          "name": "G4",
          "midi": 67,
          "time": 23.478254999999987,
          "velocity": 0.7874015748031497,
          "duration": 1.0434780000000003
        },
        {
          "name": "C4",
          "midi": 60,
          "time": 24.521732999999987,
          "velocity": 0.7874015748031497,
          "duration": 0.5217390000000002
        },
        {
          "name": "F4",
          "midi": 65,
          "time": 25.043471999999987,
          "velocity": 0.7874015748031497,
          "duration": 0.7826084999999985
        },
        {
          "name": "E4",
          "midi": 64,
          "time": 25.826080499999986,
          "velocity": 0.7874015748031497,
          "duration": 0.2608694999999983
        },
        {
          "name": "F4",
          "midi": 65,
          "time": 26.086949999999984,
          "velocity": 0.7874015748031497,
          "duration": 0.7826084999999985
        },
        {
          "name": "G#3",
          "midi": 56,
          "time": 26.869558499999982,
          "velocity": 0.7874015748031497,
          "duration": 0.2608694999999983
        },
        {
          "name": "E4",
          "midi": 64,
          "time": 27.13042799999998,
          "velocity": 0.7874015748031497,
          "duration": 1.5652170000000005
        },
        {
          "name": "D4",
          "midi": 62,
          "time": 28.69564499999998,
          "velocity": 0.7874015748031497,
          "duration": 0.2608694999999983
        },
        {
          "name": "C4",
          "midi": 60,
          "time": 28.95651449999998,
          "velocity": 0.7874015748031497,
          "duration": 0.2608694999999983
        },
        {
          "name": "D4",
          "midi": 62,
          "time": 29.217383999999978,
          "velocity": 0.7874015748031497,
          "duration": 0.2608694999999983
        },
        {
          "name": "F4",
          "midi": 65,
          "time": 29.478253499999976,
          "velocity": 0.7874015748031497,
          "duration": 0.2608694999999983
        },
        {
          "name": "E4",
          "midi": 64,
          "time": 29.739122999999974,
          "velocity": 0.7874015748031497,
          "duration": 0.2608694999999983
        },
        {
          "name": "D4",
          "midi": 62,
          "time": 29.999992499999973,
          "velocity": 0.7874015748031497,
          "duration": 0.2608694999999983
        },
        {
          "name": "C4",
          "midi": 60,
          "time": 30.26086199999997,
          "velocity": 0.7874015748031497,
          "duration": 0.5217390000000002
        },
        {
          "name": "D4",
          "midi": 62,
          "time": 45.91303199999997,
          "velocity": 0.7874015748031497,
          "duration": 1.0434780000000003
        },
        {
          "name": "A4",
          "midi": 69,
          "time": 46.95650999999997,
          "velocity": 0.7874015748031497,
          "duration": 1.0434780000000003
        },
        {
          "name": "F4",
          "midi": 65,
          "time": 47.99998799999997,
          "velocity": 0.7874015748031497,
          "duration": 1.0434780000000003
        },
        {
          "name": "D4",
          "midi": 62,
          "time": 49.043465999999974,
          "velocity": 0.7874015748031497,
          "duration": 1.0434780000000003
        },
        {
          "name": "C#4",
          "midi": 61,
          "time": 50.086943999999974,
          "velocity": 0.7874015748031497,
          "duration": 1.0434780000000003
        },
        {
          "name": "D4",
          "midi": 62,
          "time": 51.130421999999975,
          "velocity": 0.7874015748031497,
          "duration": 0.5217389999999966
        },
        {
          "name": "E4",
          "midi": 64,
          "time": 51.65216099999997,
          "velocity": 0.7874015748031497,
          "duration": 0.5217389999999966
        },
        {
          "name": "F4",
          "midi": 65,
          "time": 52.17389999999997,
          "velocity": 0.7874015748031497,
          "duration": 1.3043474999999987
        },
        {
          "name": "G4",
          "midi": 67,
          "time": 53.478247499999966,
          "velocity": 0.7874015748031497,
          "duration": 0.2608694999999983
        },
        {
          "name": "F4",
          "midi": 65,
          "time": 53.739116999999965,
          "velocity": 0.7874015748031497,
          "duration": 0.2608694999999983
        },
        {
          "name": "E4",
          "midi": 64,
          "time": 53.99998649999996,
          "velocity": 0.7874015748031497,
          "duration": 0.2608694999999983
        },
        {
          "name": "D4",
          "midi": 62,
          "time": 54.26085599999996,
          "velocity": 0.7874015748031497,
          "duration": 0.5217389999999966
        },
        {
          "name": "G4",
          "midi": 67,
          "time": 54.78259499999996,
          "velocity": 0.7874015748031497,
          "duration": 0.782608500000002
        },
        {
          "name": "E4",
          "midi": 64,
          "time": 55.56520349999996,
          "velocity": 0.7874015748031497,
          "duration": 0.2608694999999983
        },
        {
          "name": "F4",
          "midi": 65,
          "time": 55.82607299999996,
          "velocity": 0.7874015748031497,
          "duration": 0.5217389999999966
        },
        {
          "name": "E4",
          "midi": 64,
          "time": 56.347811999999955,
          "velocity": 0.7874015748031497,
          "duration": 0.5217389999999966
        },
        {
          "name": "A4",
          "midi": 69,
          "time": 56.86955099999995,
          "velocity": 0.7874015748031497,
          "duration": 0.782608500000002
        },
        {
          "name": "F#4",
          "midi": 66,
          "time": 57.652159499999954,
          "velocity": 0.7874015748031497,
          "duration": 0.2608694999999983
        },
        {
          "name": "G4",
          "midi": 67,
          "time": 57.91302899999995,
          "velocity": 0.7874015748031497,
          "duration": 0.5217389999999966
        },
        {
          "name": "F#4",
          "midi": 66,
          "time": 58.43476799999995,
          "velocity": 0.7874015748031497,
          "duration": 0.782608500000002
        },
        {
          "name": "D5",
          "midi": 74,
          "time": 59.21737649999995,
          "velocity": 0.7874015748031497,
          "duration": 0.2608694999999983
        },
        {
          "name": "G#4",
          "midi": 68,
          "time": 59.47824599999995,
          "velocity": 0.7874015748031497,
          "duration": 1.0434780000000003
        },
        {
          "name": "A4",
          "midi": 69,
          "time": 60.52172399999995,
          "velocity": 0.7874015748031497,
          "duration": 0.5217389999999966
        },
        {
          "name": "A3",
          "midi": 57,
          "time": 61.304332499999944,
          "velocity": 0.7874015748031497,
          "duration": 0.2608694999999983
        },
        {
          "name": "C4",
          "midi": 60,
          "time": 61.56520199999994,
          "velocity": 0.7874015748031497,
          "duration": 0.5217389999999966
        },
        {
          "name": "A3",
          "midi": 57,
          "time": 62.08694099999994,
          "velocity": 0.7874015748031497,
          "duration": 0.5217389999999966
        },
        {
          "name": "D4",
          "midi": 62,
          "time": 62.608679999999936,
          "velocity": 0.7874015748031497,
          "duration": 0.5217389999999966
        },
        {
          "name": "F4",
          "midi": 65,
          "time": 63.13041899999993,
          "velocity": 0.7874015748031497,
          "duration": 0.5217389999999966
        },
        {
          "name": "E4",
          "midi": 64,
          "time": 63.65215799999993,
          "velocity": 0.7874015748031497,
          "duration": 0.5217389999999966
        },
        {
          "name": "D4",
          "midi": 62,
          "time": 64.17389699999993,
          "velocity": 0.7874015748031497,
          "duration": 0.5217389999999966
        },
        {
          "name": "C4",
          "midi": 60,
          "time": 64.69563599999992,
          "velocity": 0.7874015748031497,
          "duration": 0.5217389999999966
        },
        {
          "name": "A4",
          "midi": 69,
          "time": 65.21737499999992,
          "velocity": 0.7874015748031497,
          "duration": 1.0434779999999932
        },
        {
          "name": "D4",
          "midi": 62,
          "time": 66.26085299999991,
          "velocity": 0.7874015748031497,
          "duration": 0.5217389999999966
        },
        {
          "name": "E4",
          "midi": 64,
          "time": 66.78259199999991,
          "velocity": 0.7874015748031497,
          "duration": 0.5217389999999966
        },
        {
          "name": "A4",
          "midi": 69,
          "time": 67.3043309999999,
          "velocity": 0.7874015748031497,
          "duration": 0.7826084999999949
        },
        {
          "name": "G4",
          "midi": 67,
          "time": 68.0869394999999,
          "velocity": 0.7874015748031497,
          "duration": 0.2608694999999983
        },
        {
          "name": "F4",
          "midi": 65,
          "time": 68.3478089999999,
          "velocity": 0.7874015748031497,
          "duration": 0.2608694999999983
        },
        {
          "name": "E4",
          "midi": 64,
          "time": 68.6086784999999,
          "velocity": 0.7874015748031497,
          "duration": 0.2608694999999983
        },
        {
          "name": "D4",
          "midi": 62,
          "time": 68.8695479999999,
          "velocity": 0.7874015748031497,
          "duration": 2.347825499999999
        },
        {
          "name": "D4",
          "midi": 62,
          "time": 71.2173734999999,
          "velocity": 0.7874015748031497,
          "duration": 0.2608694999999983
        },
        {
          "name": "G4",
          "midi": 67,
          "time": 71.47824299999989,
          "velocity": 0.7874015748031497,
          "duration": 0.7826084999999949
        },
        {
          "name": "G4",
          "midi": 67,
          "time": 72.26085149999989,
          "velocity": 0.7874015748031497,
          "duration": 0.2608694999999983
        },
        {
          "name": "C4",
          "midi": 60,
          "time": 72.52172099999989,
          "velocity": 0.7874015748031497,
          "duration": 0.7826084999999949
        },
        {
          "name": "A3",
          "midi": 57,
          "time": 73.30432949999988,
          "velocity": 0.7874015748031497,
          "duration": 0.2608694999999983
        },
        {
          "name": "A#3",
          "midi": 58,
          "time": 73.56519899999988,
          "velocity": 0.7874015748031497,
          "duration": 0.5217389999999966
        },
        {
          "name": "A3",
          "midi": 57,
          "time": 74.08693799999988,
          "velocity": 0.7874015748031497,
          "duration": 1.3043475000000058
        },
        {
          "name": "F3",
          "midi": 53,
          "time": 75.39128549999988,
          "velocity": 0.7874015748031497,
          "duration": 0.2608694999999983
        },
        {
          "name": "G3",
          "midi": 55,
          "time": 75.65215499999988,
          "velocity": 0.7874015748031497,
          "duration": 0.5217389999999966
        },
        {
          "name": "C4",
          "midi": 60,
          "time": 76.17389399999988,
          "velocity": 0.7874015748031497,
          "duration": 1.3043475000000058
        },
        {
          "name": "A3",
          "midi": 57,
          "time": 77.47824149999988,
          "velocity": 0.7874015748031497,
          "duration": 0.2608694999999983
        },
        {
          "name": "B3",
          "midi": 59,
          "time": 77.73911099999988,
          "velocity": 0.7874015748031497,
          "duration": 0.5217389999999966
        },
        {
          "name": "E4",
          "midi": 64,
          "time": 78.26084999999988,
          "velocity": 0.7874015748031497,
          "duration": 1.3043475000000058
        },
        {
          "name": "C#4",
          "midi": 61,
          "time": 79.56519749999988,
          "velocity": 0.7874015748031497,
          "duration": 0.2608694999999983
        },
        {
          "name": "D4",
          "midi": 62,
          "time": 79.82606699999988,
          "velocity": 0.7874015748031497,
          "duration": 0.5217389999999966
        },
        {
          "name": "G4",
          "midi": 67,
          "time": 80.34780599999988,
          "velocity": 0.7874015748031497,
          "duration": 1.3043475000000058
        },
        {
          "name": "A4",
          "midi": 69,
          "time": 81.65215349999988,
          "velocity": 0.7874015748031497,
          "duration": 0.2608694999999983
        },
        {
          "name": "A#4",
          "midi": 70,
          "time": 81.91302299999988,
          "velocity": 0.7874015748031497,
          "duration": 0.5217389999999966
        },
        {
          "name": "A4",
          "midi": 69,
          "time": 82.43476199999988,
          "velocity": 0.7874015748031497,
          "duration": 2.347825499999999
        },
        {
          "name": "F4",
          "midi": 65,
          "time": 84.78258749999988,
          "velocity": 0.7874015748031497,
          "duration": 0.2608694999999983
        },
        {
          "name": "G4",
          "midi": 67,
          "time": 85.04345699999988,
          "velocity": 0.7874015748031497,
          "duration": 0.5217389999999966
        },
        {
          "name": "A4",
          "midi": 69,
          "time": 85.56519599999987,
          "velocity": 0.7874015748031497,
          "duration": 0.7826084999999949
        },
        {
          "name": "A#4",
          "midi": 70,
          "time": 86.34780449999987,
          "velocity": 0.7874015748031497,
          "duration": 0.2608694999999983
        },
        {
          "name": "A4",
          "midi": 69,
          "time": 86.60867399999987,
          "velocity": 0.7874015748031497,
          "duration": 0.5217389999999966
        },
        {
          "name": "G4",
          "midi": 67,
          "time": 87.13041299999986,
          "velocity": 0.7874015748031497,
          "duration": 1.0434779999999932
        },
        {
          "name": "F4",
          "midi": 65,
          "time": 88.17389099999986,
          "velocity": 0.7874015748031497,
          "duration": 0.2608694999999983
        },
        {
          "name": "D4",
          "midi": 62,
          "time": 88.43476049999985,
          "velocity": 0.7874015748031497,
          "duration": 0.2608694999999983
        },
        {
          "name": "A4",
          "midi": 69,
          "time": 88.69562999999985,
          "velocity": 0.7874015748031497,
          "duration": 0.7826084999999949
        },
        {
          "name": "G4",
          "midi": 67,
          "time": 89.47823849999985,
          "velocity": 0.7874015748031497,
          "duration": 0.2608694999999983
        },
        {
          "name": "F#4",
          "midi": 66,
          "time": 89.73910799999985,
          "velocity": 0.7874015748031497,
          "duration": 0.2608694999999983
        },
        {
          "name": "D4",
          "midi": 62,
          "time": 89.99997749999984,
          "velocity": 0.7874015748031497,
          "duration": 0.2608694999999983
        },
        {
          "name": "G4",
          "midi": 67,
          "time": 90.26084699999984,
          "velocity": 0.7874015748031497,
          "duration": 0.7826084999999949
        },
        {
          "name": "E4",
          "midi": 64,
          "time": 91.04345549999984,
          "velocity": 0.7874015748031497,
          "duration": 0.2608694999999983
        },
        {
          "name": "F4",
          "midi": 65,
          "time": 91.30432499999984,
          "velocity": 0.7874015748031497,
          "duration": 0.7826084999999949
        },
        {
          "name": "D4",
          "midi": 62,
          "time": 92.08693349999983,
          "velocity": 0.7874015748031497,
          "duration": 0.2608694999999983
        },
        {
          "name": "G4",
          "midi": 67,
          "time": 92.34780299999983,
          "velocity": 0.7874015748031497,
          "duration": 0.7826084999999949
        },
        {
          "name": "E4",
          "midi": 64,
          "time": 93.13041149999982,
          "velocity": 0.7874015748031497,
          "duration": 0.2608694999999983
        },
        {
          "name": "A4",
          "midi": 69,
          "time": 93.39128099999982,
          "velocity": 0.7874015748031497,
          "duration": 0.7826084999999949
        },
        {
          "name": "F4",
          "midi": 65,
          "time": 94.17388949999982,
          "velocity": 0.7874015748031497,
          "duration": 0.2608694999999983
        },
        {
          "name": "A#4",
          "midi": 70,
          "time": 94.43475899999981,
          "velocity": 0.7874015748031497,
          "duration": 0.7826084999999949
        },
        {
          "name": "G4",
          "midi": 67,
          "time": 95.21736749999981,
          "velocity": 0.7874015748031497,
          "duration": 0.2608694999999983
        },
        {
          "name": "A4",
          "midi": 69,
          "time": 95.47823699999981,
          "velocity": 0.7874015748031497,
          "duration": 0.7826084999999949
        },
        {
          "name": "F4",
          "midi": 65,
          "time": 96.2608454999998,
          "velocity": 0.7874015748031497,
          "duration": 0.2608694999999983
        },
        {
          "name": "G4",
          "midi": 67,
          "time": 96.5217149999998,
          "velocity": 0.7874015748031497,
          "duration": 1.0434779999999932
        },
        {
          "name": "F4",
          "midi": 65,
          "time": 97.5651929999998,
          "velocity": 0.7874015748031497,
          "duration": 0.2608694999999983
        },
        {
          "name": "D4",
          "midi": 62,
          "time": 97.8260624999998,
          "velocity": 0.7874015748031497,
          "duration": 0.2608694999999983
        },
        {
          "name": "A4",
          "midi": 69,
          "time": 98.08693199999979,
          "velocity": 0.7874015748031497,
          "duration": 1.0434779999999932
        },
        {
          "name": "D5",
          "midi": 74,
          "time": 99.13040999999978,
          "velocity": 0.7874015748031497,
          "duration": 1.3043475000000058
        },
        {
          "name": "C#5",
          "midi": 73,
          "time": 100.43475749999979,
          "velocity": 0.7874015748031497,
          "duration": 0.2608694999999983
        },
        {
          "name": "B4",
          "midi": 71,
          "time": 100.69562699999979,
          "velocity": 0.7874015748031497,
          "duration": 0.2608694999999983
        },
        {
          "name": "C#5",
          "midi": 73,
          "time": 100.95649649999979,
          "velocity": 0.7874015748031497,
          "duration": 0.2608694999999983
        },
        {
          "name": "D5",
          "midi": 74,
          "time": 101.21736599999979,
          "velocity": 0.7874015748031497,
          "duration": 0.2608694999999983
        },
        {
          "name": "A4",
          "midi": 69,
          "time": 101.47823549999978,
          "velocity": 0.7874015748031497,
          "duration": 0.2608694999999983
        },
        {
          "name": "E5",
          "midi": 76,
          "time": 101.73910499999978,
          "velocity": 0.7874015748031497,
          "duration": 0.7826084999999949
        },
        {
          "name": "A4",
          "midi": 69,
          "time": 102.52171349999978,
          "velocity": 0.7874015748031497,
          "duration": 0.2608694999999983
        },
        {
          "name": "D5",
          "midi": 74,
          "time": 102.78258299999978,
          "velocity": 0.7874015748031497,
          "duration": 0.5217389999999966
        },
        {
          "name": "F4",
          "midi": 65,
          "time": 103.56519149999977,
          "velocity": 0.7874015748031497,
          "duration": 0.2608694999999983
        },
        {
          "name": "A#4",
          "midi": 70,
          "time": 103.82606099999977,
          "velocity": 0.7874015748031497,
          "duration": 0.7826084999999949
        },
        {
          "name": "E4",
          "midi": 64,
          "time": 104.60866949999976,
          "velocity": 0.7874015748031497,
          "duration": 0.2608694999999983
        },
        {
          "name": "A4",
          "midi": 69,
          "time": 104.86953899999976,
          "velocity": 0.7874015748031497,
          "duration": 0.7826084999999949
        },
        {
          "name": "G4",
          "midi": 67,
          "time": 105.65214749999976,
          "velocity": 0.7874015748031497,
          "duration": 0.2608694999999983
        },
        {
          "name": "F4",
          "midi": 65,
          "time": 105.91301699999975,
          "velocity": 0.7874015748031497,
          "duration": 0.2608694999999983
        },
        {
          "name": "E4",
          "midi": 64,
          "time": 106.17388649999975,
          "velocity": 0.7874015748031497,
          "duration": 0.2608694999999983
        },
        {
          "name": "D4",
          "midi": 62,
          "time": 106.43475599999975,
          "velocity": 0.7874015748031497,
          "duration": 0.2608694999999983
        },
        {
          "name": "A4",
          "midi": 69,
          "time": 106.69562549999975,
          "velocity": 0.7874015748031497,
          "duration": 0.2608694999999983
        },
        {
          "name": "D5",
          "midi": 74,
          "time": 106.95649499999975,
          "velocity": 0.7874015748031497,
          "duration": 0.2608694999999983
        },
        {
          "name": "B4",
          "midi": 71,
          "time": 107.21736449999975,
          "velocity": 0.7874015748031497,
          "duration": 0.2608694999999983
        },
        {
          "name": "G4",
          "midi": 67,
          "time": 107.47823399999974,
          "velocity": 0.7874015748031497,
          "duration": 0.2608694999999983
        },
        {
          "name": "E4",
          "midi": 64,
          "time": 107.73910349999974,
          "velocity": 0.7874015748031497,
          "duration": 0.2608694999999983
        },
        {
          "name": "C5",
          "midi": 72,
          "time": 107.99997299999974,
          "velocity": 0.7874015748031497,
          "duration": 1.0434779999999932
        },
        {
          "name": "A#4",
          "midi": 70,
          "time": 109.04345099999973,
          "velocity": 0.7874015748031497,
          "duration": 0.5217389999999966
        },
        {
          "name": "A4",
          "midi": 69,
          "time": 109.56518999999973,
          "velocity": 0.7874015748031497,
          "duration": 1.0434779999999932
        },
        {
          "name": "G4",
          "midi": 67,
          "time": 110.60866799999972,
          "velocity": 0.7874015748031497,
          "duration": 0.7826084999999949
        },
        {
          "name": "F4",
          "midi": 65,
          "time": 111.39127649999972,
          "velocity": 0.7874015748031497,
          "duration": 0.2608694999999983
        },
        {
          "name": "E4",
          "midi": 64,
          "time": 111.65214599999972,
          "velocity": 0.7874015748031497,
          "duration": 1.565217000000004
        },
        {
          "name": "D4",
          "midi": 62,
          "time": 113.21736299999972,
          "velocity": 0.7874015748031497,
          "duration": 0.2608694999999983
        },
        {
          "name": "C#4",
          "midi": 61,
          "time": 113.47823249999972,
          "velocity": 0.7874015748031497,
          "duration": 0.2608694999999983
        },
        {
          "name": "D4",
          "midi": 62,
          "time": 113.73910199999972,
          "velocity": 0.7874015748031497,
          "duration": 0.5217389999999966
        },
        {
          "name": "G4",
          "midi": 67,
          "time": 114.26084099999971,
          "velocity": 0.7874015748031497,
          "duration": 1.3043475000000058
        },
        {
          "name": "F4",
          "midi": 65,
          "time": 115.56518849999972,
          "velocity": 0.7874015748031497,
          "duration": 0.2608694999999983
        },
        {
          "name": "E4",
          "midi": 64,
          "time": 115.82605799999972,
          "velocity": 0.7874015748031497,
          "duration": 0.7826084999999949
        },
        {
          "name": "E4",
          "midi": 64,
          "time": 116.60866649999971,
          "velocity": 0.7874015748031497,
          "duration": 0.2608694999999983
        },
        {
          "name": "A4",
          "midi": 69,
          "time": 116.86953599999971,
          "velocity": 0.7874015748031497,
          "duration": 1.565217000000004
        },
        {
          "name": "G4",
          "midi": 67,
          "time": 118.43475299999972,
          "velocity": 0.7874015748031497,
          "duration": 0.2608694999999983
        },
        {
          "name": "A#4",
          "midi": 70,
          "time": 118.69562249999971,
          "velocity": 0.7874015748031497,
          "duration": 0.2608694999999983
        },
        {
          "name": "A4",
          "midi": 69,
          "time": 118.95649199999971,
          "velocity": 0.7874015748031497,
          "duration": 1.3043475000000058
        },
        {
          "name": "G4",
          "midi": 67,
          "time": 120.26083949999972,
          "velocity": 0.7874015748031497,
          "duration": 0.2608694999999983
        },
        {
          "name": "F4",
          "midi": 65,
          "time": 120.52170899999972,
          "velocity": 0.7874015748031497,
          "duration": 0.2608694999999983
        },
        {
          "name": "E4",
          "midi": 64,
          "time": 120.78257849999972,
          "velocity": 0.7874015748031497,
          "duration": 0.2608694999999983
        },
        {
          "name": "D4",
          "midi": 62,
          "time": 121.04344799999971,
          "velocity": 0.7874015748031497,
          "duration": 1.565217000000004
        },
        {
          "name": "E4",
          "midi": 64,
          "time": 122.60866499999972,
          "velocity": 0.7874015748031497,
          "duration": 0.5217389999999966
        },
        {
          "name": "A3",
          "midi": 57,
          "time": 123.13040399999971,
          "velocity": 0.7874015748031497,
          "duration": 0.5217389999999966
        },
        {
          "name": "D#4",
          "midi": 63,
          "time": 124.6956209999997,
          "velocity": 0.7874015748031497,
          "duration": 0.5217389999999966
        },
        {
          "name": "D4",
          "midi": 62,
          "time": 125.2173599999997,
          "velocity": 0.7874015748031497,
          "duration": 1.0434779999999932
        },
        {
          "name": "F#4",
          "midi": 66,
          "time": 126.78257699999969,
          "velocity": 0.7874015748031497,
          "duration": 0.5217389999999966
        },
        {
          "name": "G4",
          "midi": 67,
          "time": 127.30431599999969,
          "velocity": 0.7874015748031497,
          "duration": 0.2608694999999983
        },
        {
          "name": "F#4",
          "midi": 66,
          "time": 127.56518549999969,
          "velocity": 0.7874015748031497,
          "duration": 0.2608694999999983
        },
        {
          "name": "G4",
          "midi": 67,
          "time": 127.82605499999968,
          "velocity": 0.7874015748031497,
          "duration": 0.5217389999999966
        },
        {
          "name": "A#4",
          "midi": 70,
          "time": 128.86953299999968,
          "velocity": 0.7874015748031497,
          "duration": 0.7826085000000091
        },
        {
          "name": "A4",
          "midi": 69,
          "time": 129.6521414999997,
          "velocity": 0.7874015748031497,
          "duration": 0.2608695000000125
        },
        {
          "name": "F5",
          "midi": 77,
          "time": 129.9130109999997,
          "velocity": 0.7874015748031497,
          "duration": 0.2608695000000125
        },
        {
          "name": "D5",
          "midi": 74,
          "time": 130.1738804999997,
          "velocity": 0.7874015748031497,
          "duration": 0.2608695000000125
        },
        {
          "name": "B4",
          "midi": 71,
          "time": 130.43474999999972,
          "velocity": 0.7874015748031497,
          "duration": 0.5217389999999966
        },
        {
          "name": "E5",
          "midi": 76,
          "time": 130.95648899999972,
          "velocity": 0.7874015748031497,
          "duration": 0.2608695000000125
        },
        {
          "name": "C#5",
          "midi": 73,
          "time": 131.21735849999973,
          "velocity": 0.7874015748031497,
          "duration": 0.2608695000000125
        },
        {
          "name": "A4",
          "midi": 69,
          "time": 131.47822799999975,
          "velocity": 0.7874015748031497,
          "duration": 0.5217389999999966
        },
        {
          "name": "D5",
          "midi": 74,
          "time": 131.99996699999974,
          "velocity": 0.7874015748031497,
          "duration": 0.2608695000000125
        },
        {
          "name": "A4",
          "midi": 69,
          "time": 132.26083649999975,
          "velocity": 0.7874015748031497,
          "duration": 0.2608695000000125
        },
        {
          "name": "A#4",
          "midi": 70,
          "time": 132.52170599999977,
          "velocity": 0.7874015748031497,
          "duration": 0.7826085000000091
        },
        {
          "name": "G4",
          "midi": 67,
          "time": 133.30431449999978,
          "velocity": 0.7874015748031497,
          "duration": 0.2608695000000125
        },
        {
          "name": "A4",
          "midi": 69,
          "time": 133.5651839999998,
          "velocity": 0.7874015748031497,
          "duration": 0.7826085000000091
        },
        {
          "name": "F4",
          "midi": 65,
          "time": 134.3477924999998,
          "velocity": 0.7874015748031497,
          "duration": 0.2608695000000125
        },
        {
          "name": "E4",
          "midi": 64,
          "time": 134.6086619999998,
          "velocity": 0.7874015748031497,
          "duration": 0.7826085000000091
        },
        {
          "name": "G4",
          "midi": 67,
          "time": 135.39127049999982,
          "velocity": 0.7874015748031497,
          "duration": 0.2608695000000125
        },
        {
          "name": "F#4",
          "midi": 66,
          "time": 135.65213999999983,
          "velocity": 0.7874015748031497,
          "duration": 0.2608695000000125
        },
        {
          "name": "D4",
          "midi": 62,
          "time": 135.91300949999984,
          "velocity": 0.7874015748031497,
          "duration": 0.2608695000000125
        },
        {
          "name": "G4",
          "midi": 67,
          "time": 136.17387899999986,
          "velocity": 0.7874015748031497,
          "duration": 0.7826085000000091
        },
        {
          "name": "E4",
          "midi": 64,
          "time": 136.95648749999987,
          "velocity": 0.7874015748031497,
          "duration": 0.2608695000000125
        },
        {
          "name": "F4",
          "midi": 65,
          "time": 137.21735699999988,
          "velocity": 0.7874015748031497,
          "duration": 0.7826085000000091
        },
        {
          "name": "D5",
          "midi": 74,
          "time": 137.9999654999999,
          "velocity": 0.7874015748031497,
          "duration": 0.2608695000000125
        },
        {
          "name": "C5",
          "midi": 72,
          "time": 138.2608349999999,
          "velocity": 0.7874015748031497,
          "duration": 1.3043475000000058
        },
        {
          "name": "C5",
          "midi": 72,
          "time": 139.5651824999999,
          "velocity": 0.7874015748031497,
          "duration": 0.2608695000000125
        },
        {
          "name": "A#4",
          "midi": 70,
          "time": 139.82605199999992,
          "velocity": 0.7874015748031497,
          "duration": 0.2608695000000125
        },
        {
          "name": "A4",
          "midi": 69,
          "time": 140.08692149999993,
          "velocity": 0.7874015748031497,
          "duration": 0.2608695000000125
        },
        {
          "name": "G#4",
          "midi": 68,
          "time": 140.34779099999994,
          "velocity": 0.7874015748031497,
          "duration": 0.5217389999999966
        },
        {
          "name": "A4",
          "midi": 69,
          "time": 140.86952999999994,
          "velocity": 0.7874015748031497,
          "duration": 0.7826085000000091
        },
        {
          "name": "E4",
          "midi": 64,
          "time": 141.65213849999995,
          "velocity": 0.7874015748031497,
          "duration": 0.2608695000000125
        },
        {
          "name": "A4",
          "midi": 69,
          "time": 141.91300799999996,
          "velocity": 0.7874015748031497,
          "duration": 0.5217389999999966
        },
        {
          "name": "G4",
          "midi": 67,
          "time": 142.43474699999996,
          "velocity": 0.7874015748031497,
          "duration": 1.3043475000000058
        },
        {
          "name": "C5",
          "midi": 72,
          "time": 143.73909449999996,
          "velocity": 0.7874015748031497,
          "duration": 0.2608695000000125
        },
        {
          "name": "A4",
          "midi": 69,
          "time": 143.99996399999998,
          "velocity": 0.7874015748031497,
          "duration": 0.5217389999999966
        },
        {
          "name": "G4",
          "midi": 67,
          "time": 144.52170299999997,
          "velocity": 0.7874015748031497,
          "duration": 1.0434779999999932
        },
        {
          "name": "A4",
          "midi": 69,
          "time": 147.13039799999996,
          "velocity": 0.7874015748031497,
          "duration": 0.5217389999999966
        },
        {
          "name": "B4",
          "midi": 71,
          "time": 149.21735399999994,
          "velocity": 0.7874015748031497,
          "duration": 1.0434779999999932
        },
        {
          "name": "A4",
          "midi": 69,
          "time": 150.26083199999994,
          "velocity": 0.7874015748031497,
          "duration": 1.8260865000000024
        },
        {
          "name": "G4",
          "midi": 67,
          "time": 152.08691849999994,
          "velocity": 0.7874015748031497,
          "duration": 0.2608695000000125
        },
        {
          "name": "F#4",
          "midi": 66,
          "time": 152.34778799999995,
          "velocity": 0.7874015748031497,
          "duration": 0.2608695000000125
        },
        {
          "name": "G4",
          "midi": 67,
          "time": 152.60865749999996,
          "velocity": 0.7874015748031497,
          "duration": 0.2608695000000125
        },
        {
          "name": "A4",
          "midi": 69,
          "time": 152.86952699999998,
          "velocity": 0.7874015748031497,
          "duration": 0.7826085000000091
        },
        {
          "name": "G4",
          "midi": 67,
          "time": 153.65213549999999,
          "velocity": 0.7874015748031497,
          "duration": 0.2608695000000125
        },
        {
          "name": "C5",
          "midi": 72,
          "time": 153.913005,
          "velocity": 0.7874015748031497,
          "duration": 0.7826085000000091
        },
        {
          "name": "F#4",
          "midi": 66,
          "time": 154.6956135,
          "velocity": 0.7874015748031497,
          "duration": 0.2608695000000125
        },
        {
          "name": "G4",
          "midi": 67,
          "time": 154.95648300000002,
          "velocity": 0.7874015748031497,
          "duration": 0.2608695000000125
        },
        {
          "name": "A#4",
          "midi": 70,
          "time": 155.21735250000003,
          "velocity": 0.7874015748031497,
          "duration": 0.2608695000000125
        },
        {
          "name": "D#4",
          "midi": 63,
          "time": 155.47822200000004,
          "velocity": 0.7874015748031497,
          "duration": 1.0434779999999932
        },
        {
          "name": "D4",
          "midi": 62,
          "time": 156.52170000000004,
          "velocity": 0.7874015748031497,
          "duration": 0.5217389999999966
        },
        {
          "name": "A3",
          "midi": 57,
          "time": 157.04343900000003,
          "velocity": 0.7874015748031497,
          "duration": 0.5217389999999966
        },
        {
          "name": "A#3",
          "midi": 58,
          "time": 157.56517800000003,
          "velocity": 0.7874015748031497,
          "duration": 0.5217389999999966
        },
        {
          "name": "C4",
          "midi": 60,
          "time": 158.08691700000003,
          "velocity": 0.7874015748031497,
          "duration": 0.5217389999999966
        },
        {
          "name": "D4",
          "midi": 62,
          "time": 158.60865600000002,
          "velocity": 0.7874015748031497,
          "duration": 0.5217389999999966
        },
        {
          "name": "G3",
          "midi": 55,
          "time": 159.13039500000002,
          "velocity": 0.7874015748031497,
          "duration": 0.7826085000000091
        },
        {
          "name": "A#4",
          "midi": 70,
          "time": 159.91300350000003,
          "velocity": 0.7874015748031497,
          "duration": 0.2608695000000125
        },
        {
          "name": "A4",
          "midi": 69,
          "time": 160.17387300000004,
          "velocity": 0.7874015748031497,
          "duration": 0.2608695000000125
        },
        {
          "name": "G4",
          "midi": 67,
          "time": 160.43474250000006,
          "velocity": 0.7874015748031497,
          "duration": 0.5217389999999966
        },
        {
          "name": "F#4",
          "midi": 66,
          "time": 160.95648150000005,
          "velocity": 0.7874015748031497,
          "duration": 0.2608695000000125
        },
        {
          "name": "E4",
          "midi": 64,
          "time": 161.21735100000006,
          "velocity": 0.7874015748031497,
          "duration": 0.2608695000000125
        },
        {
          "name": "G4",
          "midi": 67,
          "time": 161.47822050000008,
          "velocity": 0.7874015748031497,
          "duration": 0.2608695000000125
        },
        {
          "name": "F#4",
          "midi": 66,
          "time": 161.7390900000001,
          "velocity": 0.7874015748031497,
          "duration": 1.0434779999999932
        }
      ],
      "controlChanges": {
        "7": [
          {
            "number": 7,
            "time": 0,
            "value": 0.7874015748031497
          }
        ],
        "10": [
          {
            "number": 10,
            "time": 0,
            "value": 0.5826771653543307
          }
        ]
      },
      "id": 2,
      "name": "--------------------------------------",
      "instrumentNumber": 40,
      "instrument": "violin",
      "instrumentFamily": "strings",
      "channelNumber": 1,
      "isPercussion": false
    },
    {
      "startTime": 25.043471999999998,
      "duration": 162.7825679999997,
      "length": 215,
      "notes": [
        {
          "name": "A3",
          "midi": 57,
          "time": 25.043471999999998,
          "velocity": 0.7874015748031497,
          "duration": 1.0434780000000003
        },
        {
          "name": "D4",
          "midi": 62,
          "time": 26.086949999999998,
          "velocity": 0.7874015748031497,
          "duration": 1.0434780000000003
        },
        {
          "name": "C4",
          "midi": 60,
          "time": 27.130428,
          "velocity": 0.7874015748031497,
          "duration": 1.0434780000000003
        },
        {
          "name": "A3",
          "midi": 57,
          "time": 28.173906,
          "velocity": 0.7874015748031497,
          "duration": 1.0434780000000003
        },
        {
          "name": "G#3",
          "midi": 56,
          "time": 29.217384,
          "velocity": 0.7874015748031497,
          "duration": 1.0434780000000003
        },
        {
          "name": "A3",
          "midi": 57,
          "time": 30.260862,
          "velocity": 0.7874015748031497,
          "duration": 0.5217390000000002
        },
        {
          "name": "B3",
          "midi": 59,
          "time": 30.782601,
          "velocity": 0.7874015748031497,
          "duration": 0.5217390000000002
        },
        {
          "name": "C4",
          "midi": 60,
          "time": 31.30434,
          "velocity": 0.7874015748031497,
          "duration": 1.3043475000000022
        },
        {
          "name": "D4",
          "midi": 62,
          "time": 32.6086875,
          "velocity": 0.7874015748031497,
          "duration": 0.2608694999999983
        },
        {
          "name": "C4",
          "midi": 60,
          "time": 32.869557,
          "velocity": 0.7874015748031497,
          "duration": 0.2608694999999983
        },
        {
          "name": "A#3",
          "midi": 58,
          "time": 33.1304265,
          "velocity": 0.7874015748031497,
          "duration": 0.2608694999999983
        },
        {
          "name": "A3",
          "midi": 57,
          "time": 33.391296,
          "velocity": 0.7874015748031497,
          "duration": 1.3043474999999987
        },
        {
          "name": "F3",
          "midi": 53,
          "time": 34.695643499999996,
          "velocity": 0.7874015748031497,
          "duration": 0.2608694999999983
        },
        {
          "name": "G3",
          "midi": 55,
          "time": 34.956512999999994,
          "velocity": 0.7874015748031497,
          "duration": 0.5217389999999966
        },
        {
          "name": "C4",
          "midi": 60,
          "time": 35.47825199999999,
          "velocity": 0.7874015748031497,
          "duration": 1.3043474999999987
        },
        {
          "name": "A3",
          "midi": 57,
          "time": 36.78259949999999,
          "velocity": 0.7874015748031497,
          "duration": 0.2608694999999983
        },
        {
          "name": "B3",
          "midi": 59,
          "time": 37.04346899999999,
          "velocity": 0.7874015748031497,
          "duration": 0.5217389999999966
        },
        {
          "name": "E4",
          "midi": 64,
          "time": 37.565207999999984,
          "velocity": 0.7874015748031497,
          "duration": 1.3043474999999987
        },
        {
          "name": "C#4",
          "midi": 61,
          "time": 38.86955549999998,
          "velocity": 0.7874015748031497,
          "duration": 0.2608694999999983
        },
        {
          "name": "D4",
          "midi": 62,
          "time": 39.13042499999998,
          "velocity": 0.7874015748031497,
          "duration": 0.5217389999999966
        },
        {
          "name": "G4",
          "midi": 67,
          "time": 39.65216399999998,
          "velocity": 0.7874015748031497,
          "duration": 1.3043474999999987
        },
        {
          "name": "E4",
          "midi": 64,
          "time": 40.956511499999976,
          "velocity": 0.7874015748031497,
          "duration": 0.2608694999999983
        },
        {
          "name": "F4",
          "midi": 65,
          "time": 41.217380999999975,
          "velocity": 0.7874015748031497,
          "duration": 0.5217389999999966
        },
        {
          "name": "E4",
          "midi": 64,
          "time": 41.73911999999997,
          "velocity": 0.7874015748031497,
          "duration": 0.782608500000002
        },
        {
          "name": "A4",
          "midi": 69,
          "time": 42.52172849999997,
          "velocity": 0.7874015748031497,
          "duration": 0.2608694999999983
        },
        {
          "name": "D4",
          "midi": 62,
          "time": 42.78259799999997,
          "velocity": 0.7874015748031497,
          "duration": 0.782608500000002
        },
        {
          "name": "E4",
          "midi": 64,
          "time": 43.565206499999974,
          "velocity": 0.7874015748031497,
          "duration": 0.2608694999999983
        },
        {
          "name": "C#4",
          "midi": 61,
          "time": 43.82607599999997,
          "velocity": 0.7874015748031497,
          "duration": 0.5217389999999966
        },
        {
          "name": "D4",
          "midi": 62,
          "time": 44.34781499999997,
          "velocity": 0.7874015748031497,
          "duration": 0.2608694999999983
        },
        {
          "name": "A3",
          "midi": 57,
          "time": 44.60868449999997,
          "velocity": 0.7874015748031497,
          "duration": 0.2608694999999983
        },
        {
          "name": "B3",
          "midi": 59,
          "time": 44.869553999999965,
          "velocity": 0.7874015748031497,
          "duration": 0.782608500000002
        },
        {
          "name": "C#4",
          "midi": 61,
          "time": 45.65216249999997,
          "velocity": 0.7874015748031497,
          "duration": 0.2608694999999983
        },
        {
          "name": "D4",
          "midi": 62,
          "time": 45.913031999999966,
          "velocity": 0.7874015748031497,
          "duration": 0.5217389999999966
        },
        {
          "name": "A3",
          "midi": 57,
          "time": 46.43477099999996,
          "velocity": 0.7874015748031497,
          "duration": 2.6086949999999973
        },
        {
          "name": "A#3",
          "midi": 58,
          "time": 49.04346599999996,
          "velocity": 0.7874015748031497,
          "duration": 1.0434780000000003
        },
        {
          "name": "E3",
          "midi": 52,
          "time": 50.34781349999996,
          "velocity": 0.7874015748031497,
          "duration": 0.2608694999999983
        },
        {
          "name": "A3",
          "midi": 57,
          "time": 50.60868299999996,
          "velocity": 0.7874015748031497,
          "duration": 0.782608500000002
        },
        {
          "name": "A#3",
          "midi": 58,
          "time": 51.39129149999996,
          "velocity": 0.7874015748031497,
          "duration": 0.2608694999999983
        },
        {
          "name": "A3",
          "midi": 57,
          "time": 51.65216099999996,
          "velocity": 0.7874015748031497,
          "duration": 0.2608694999999983
        },
        {
          "name": "G3",
          "midi": 55,
          "time": 51.913030499999955,
          "velocity": 0.7874015748031497,
          "duration": 0.2608694999999983
        },
        {
          "name": "A3",
          "midi": 57,
          "time": 52.17389999999995,
          "velocity": 0.7874015748031497,
          "duration": 0.5217389999999966
        },
        {
          "name": "B3",
          "midi": 59,
          "time": 52.69563899999995,
          "velocity": 0.7874015748031497,
          "duration": 0.5217389999999966
        },
        {
          "name": "C4",
          "midi": 60,
          "time": 53.21737799999995,
          "velocity": 0.7874015748031497,
          "duration": 1.3043474999999987
        },
        {
          "name": "A3",
          "midi": 57,
          "time": 54.521725499999945,
          "velocity": 0.7874015748031497,
          "duration": 0.2608694999999983
        },
        {
          "name": "A#3",
          "midi": 58,
          "time": 54.782594999999944,
          "velocity": 0.7874015748031497,
          "duration": 0.5217389999999966
        },
        {
          "name": "A3",
          "midi": 57,
          "time": 55.30433399999994,
          "velocity": 0.7874015748031497,
          "duration": 0.5217389999999966
        },
        {
          "name": "D4",
          "midi": 62,
          "time": 55.82607299999994,
          "velocity": 0.7874015748031497,
          "duration": 0.782608500000002
        },
        {
          "name": "B3",
          "midi": 59,
          "time": 56.60868149999994,
          "velocity": 0.7874015748031497,
          "duration": 0.2608694999999983
        },
        {
          "name": "C4",
          "midi": 60,
          "time": 56.86955099999994,
          "velocity": 0.7874015748031497,
          "duration": 0.5217389999999966
        },
        {
          "name": "B3",
          "midi": 59,
          "time": 57.391289999999934,
          "velocity": 0.7874015748031497,
          "duration": 0.5217389999999966
        },
        {
          "name": "E4",
          "midi": 64,
          "time": 57.91302899999993,
          "velocity": 0.7874015748031497,
          "duration": 0.782608500000002
        },
        {
          "name": "A3",
          "midi": 57,
          "time": 58.69563749999993,
          "velocity": 0.7874015748031497,
          "duration": 0.2608694999999983
        },
        {
          "name": "D4",
          "midi": 62,
          "time": 58.95650699999993,
          "velocity": 0.7874015748031497,
          "duration": 0.782608500000002
        },
        {
          "name": "D4",
          "midi": 62,
          "time": 59.73911549999993,
          "velocity": 0.7874015748031497,
          "duration": 0.2608694999999983
        },
        {
          "name": "C4",
          "midi": 60,
          "time": 59.99998499999993,
          "velocity": 0.7874015748031497,
          "duration": 0.2608694999999983
        },
        {
          "name": "B3",
          "midi": 59,
          "time": 60.26085449999993,
          "velocity": 0.7874015748031497,
          "duration": 0.2608694999999983
        },
        {
          "name": "C4",
          "midi": 60,
          "time": 60.52172399999993,
          "velocity": 0.7874015748031497,
          "duration": 0.2608694999999983
        },
        {
          "name": "D4",
          "midi": 62,
          "time": 60.782593499999926,
          "velocity": 0.7874015748031497,
          "duration": 0.2608694999999983
        },
        {
          "name": "E4",
          "midi": 64,
          "time": 61.043462999999925,
          "velocity": 0.7874015748031497,
          "duration": 0.782608500000002
        },
        {
          "name": "E4",
          "midi": 64,
          "time": 61.82607149999993,
          "velocity": 0.7874015748031497,
          "duration": 0.2608694999999983
        },
        {
          "name": "D4",
          "midi": 62,
          "time": 62.086940999999925,
          "velocity": 0.7874015748031497,
          "duration": 0.2608694999999983
        },
        {
          "name": "C4",
          "midi": 60,
          "time": 62.34781049999992,
          "velocity": 0.7874015748031497,
          "duration": 0.2608694999999983
        },
        {
          "name": "B3",
          "midi": 59,
          "time": 62.60867999999992,
          "velocity": 0.7874015748031497,
          "duration": 1.0434780000000003
        },
        {
          "name": "C4",
          "midi": 60,
          "time": 63.65215799999992,
          "velocity": 0.7874015748031497,
          "duration": 0.5217390000000037
        },
        {
          "name": "G#3",
          "midi": 56,
          "time": 64.17389699999993,
          "velocity": 0.7874015748031497,
          "duration": 0.5217389999999966
        },
        {
          "name": "A3",
          "midi": 57,
          "time": 64.69563599999992,
          "velocity": 0.7874015748031497,
          "duration": 0.2608694999999983
        },
        {
          "name": "G3",
          "midi": 55,
          "time": 64.95650549999992,
          "velocity": 0.7874015748031497,
          "duration": 0.2608694999999983
        },
        {
          "name": "F#3",
          "midi": 54,
          "time": 65.21737499999992,
          "velocity": 0.7874015748031497,
          "duration": 0.2608694999999983
        },
        {
          "name": "E3",
          "midi": 52,
          "time": 65.47824449999992,
          "velocity": 0.7874015748031497,
          "duration": 0.2608694999999983
        },
        {
          "name": "F#3",
          "midi": 54,
          "time": 65.73911399999992,
          "velocity": 0.7874015748031497,
          "duration": 0.5217389999999966
        },
        {
          "name": "G3",
          "midi": 55,
          "time": 66.26085299999991,
          "velocity": 0.7874015748031497,
          "duration": 0.7826084999999949
        },
        {
          "name": "G3",
          "midi": 55,
          "time": 67.0434614999999,
          "velocity": 0.7874015748031497,
          "duration": 0.2608694999999983
        },
        {
          "name": "F3",
          "midi": 53,
          "time": 67.3043309999999,
          "velocity": 0.7874015748031497,
          "duration": 0.2608694999999983
        },
        {
          "name": "E3",
          "midi": 52,
          "time": 67.5652004999999,
          "velocity": 0.7874015748031497,
          "duration": 0.2608694999999983
        },
        {
          "name": "F3",
          "midi": 53,
          "time": 67.8260699999999,
          "velocity": 0.7874015748031497,
          "duration": 0.2608694999999983
        },
        {
          "name": "E3",
          "midi": 52,
          "time": 68.0869394999999,
          "velocity": 0.7874015748031497,
          "duration": 0.2608694999999983
        },
        {
          "name": "D3",
          "midi": 50,
          "time": 68.3478089999999,
          "velocity": 0.7874015748031497,
          "duration": 0.2608694999999983
        },
        {
          "name": "C#3",
          "midi": 49,
          "time": 68.6086784999999,
          "velocity": 0.7874015748031497,
          "duration": 0.2608694999999983
        },
        {
          "name": "D3",
          "midi": 50,
          "time": 68.8695479999999,
          "velocity": 0.7874015748031497,
          "duration": 0.5217389999999966
        },
        {
          "name": "E3",
          "midi": 52,
          "time": 81.39128399999989,
          "velocity": 0.7874015748031497,
          "duration": 1.0434779999999932
        },
        {
          "name": "A3",
          "midi": 57,
          "time": 82.43476199999988,
          "velocity": 0.7874015748031497,
          "duration": 1.0434779999999932
        },
        {
          "name": "F3",
          "midi": 53,
          "time": 83.47823999999987,
          "velocity": 0.7874015748031497,
          "duration": 1.0434779999999932
        },
        {
          "name": "D3",
          "midi": 50,
          "time": 84.52171799999986,
          "velocity": 0.7874015748031497,
          "duration": 1.0434779999999932
        },
        {
          "name": "C#3",
          "midi": 49,
          "time": 85.56519599999986,
          "velocity": 0.7874015748031497,
          "duration": 1.0434779999999932
        },
        {
          "name": "D3",
          "midi": 50,
          "time": 86.60867399999985,
          "velocity": 0.7874015748031497,
          "duration": 0.5217389999999966
        },
        {
          "name": "E3",
          "midi": 52,
          "time": 87.13041299999985,
          "velocity": 0.7874015748031497,
          "duration": 0.5217389999999966
        },
        {
          "name": "F3",
          "midi": 53,
          "time": 87.65215199999984,
          "velocity": 0.7874015748031497,
          "duration": 1.3043475000000058
        },
        {
          "name": "G3",
          "midi": 55,
          "time": 88.95649949999985,
          "velocity": 0.7874015748031497,
          "duration": 0.2608694999999983
        },
        {
          "name": "F3",
          "midi": 53,
          "time": 89.21736899999985,
          "velocity": 0.7874015748031497,
          "duration": 0.2608694999999983
        },
        {
          "name": "E3",
          "midi": 52,
          "time": 89.47823849999985,
          "velocity": 0.7874015748031497,
          "duration": 0.2608694999999983
        },
        {
          "name": "D3",
          "midi": 50,
          "time": 89.73910799999985,
          "velocity": 0.7874015748031497,
          "duration": 1.565217000000004
        },
        {
          "name": "A3",
          "midi": 57,
          "time": 91.30432499999985,
          "velocity": 0.7874015748031497,
          "duration": 0.2608694999999983
        },
        {
          "name": "F3",
          "midi": 53,
          "time": 91.56519449999985,
          "velocity": 0.7874015748031497,
          "duration": 0.2608694999999983
        },
        {
          "name": "A#3",
          "midi": 58,
          "time": 91.82606399999985,
          "velocity": 0.7874015748031497,
          "duration": 0.7826084999999949
        },
        {
          "name": "G3",
          "midi": 55,
          "time": 92.60867249999984,
          "velocity": 0.7874015748031497,
          "duration": 0.2608694999999983
        },
        {
          "name": "C4",
          "midi": 60,
          "time": 92.86954199999984,
          "velocity": 0.7874015748031497,
          "duration": 0.7826084999999949
        },
        {
          "name": "A3",
          "midi": 57,
          "time": 93.65215049999983,
          "velocity": 0.7874015748031497,
          "duration": 0.2608694999999983
        },
        {
          "name": "D4",
          "midi": 62,
          "time": 93.91301999999983,
          "velocity": 0.7874015748031497,
          "duration": 0.5217389999999966
        },
        {
          "name": "G3",
          "midi": 55,
          "time": 94.43475899999983,
          "velocity": 0.7874015748031497,
          "duration": 0.5217389999999966
        },
        {
          "name": "C4",
          "midi": 60,
          "time": 94.95649799999983,
          "velocity": 0.7874015748031497,
          "duration": 0.5217389999999966
        },
        {
          "name": "F3",
          "midi": 53,
          "time": 95.47823699999982,
          "velocity": 0.7874015748031497,
          "duration": 0.5217389999999966
        },
        {
          "name": "A#3",
          "midi": 58,
          "time": 95.99997599999982,
          "velocity": 0.7874015748031497,
          "duration": 0.5217389999999966
        },
        {
          "name": "E3",
          "midi": 52,
          "time": 96.52171499999982,
          "velocity": 0.7874015748031497,
          "duration": 0.5217389999999966
        },
        {
          "name": "A3",
          "midi": 57,
          "time": 97.04345399999981,
          "velocity": 0.7874015748031497,
          "duration": 1.0434779999999932
        },
        {
          "name": "E3",
          "midi": 52,
          "time": 98.0869319999998,
          "velocity": 0.7874015748031497,
          "duration": 0.5217389999999966
        },
        {
          "name": "A3",
          "midi": 57,
          "time": 98.6086709999998,
          "velocity": 0.7874015748031497,
          "duration": 0.7826084999999949
        },
        {
          "name": "G#3",
          "midi": 56,
          "time": 99.3912794999998,
          "velocity": 0.7874015748031497,
          "duration": 0.2608694999999983
        },
        {
          "name": "F#3",
          "midi": 54,
          "time": 99.6521489999998,
          "velocity": 0.7874015748031497,
          "duration": 0.2608694999999983
        },
        {
          "name": "G#3",
          "midi": 56,
          "time": 99.9130184999998,
          "velocity": 0.7874015748031497,
          "duration": 0.2608694999999983
        },
        {
          "name": "A3",
          "midi": 57,
          "time": 100.17388799999979,
          "velocity": 0.7874015748031497,
          "duration": 0.7826084999999949
        },
        {
          "name": "G3",
          "midi": 55,
          "time": 100.95649649999979,
          "velocity": 0.7874015748031497,
          "duration": 0.2608694999999983
        },
        {
          "name": "F3",
          "midi": 53,
          "time": 101.21736599999979,
          "velocity": 0.7874015748031497,
          "duration": 0.2608694999999983
        },
        {
          "name": "E3",
          "midi": 52,
          "time": 101.47823549999978,
          "velocity": 0.7874015748031497,
          "duration": 0.2608694999999983
        },
        {
          "name": "D3",
          "midi": 50,
          "time": 101.73910499999978,
          "velocity": 0.7874015748031497,
          "duration": 0.2608694999999983
        },
        {
          "name": "C#3",
          "midi": 49,
          "time": 101.99997449999978,
          "velocity": 0.7874015748031497,
          "duration": 0.2608694999999983
        },
        {
          "name": "D3",
          "midi": 50,
          "time": 102.26084399999978,
          "velocity": 0.7874015748031497,
          "duration": 0.5217389999999966
        },
        {
          "name": "F3",
          "midi": 53,
          "time": 102.78258299999978,
          "velocity": 0.7874015748031497,
          "duration": 0.2608694999999983
        },
        {
          "name": "D3",
          "midi": 50,
          "time": 103.04345249999977,
          "velocity": 0.7874015748031497,
          "duration": 0.2608694999999983
        },
        {
          "name": "A#3",
          "midi": 58,
          "time": 103.30432199999977,
          "velocity": 0.7874015748031497,
          "duration": 0.5217389999999966
        },
        {
          "name": "G3",
          "midi": 55,
          "time": 103.82606099999977,
          "velocity": 0.7874015748031497,
          "duration": 0.2608694999999983
        },
        {
          "name": "E3",
          "midi": 52,
          "time": 104.08693049999977,
          "velocity": 0.7874015748031497,
          "duration": 0.2608694999999983
        },
        {
          "name": "A3",
          "midi": 57,
          "time": 104.34779999999976,
          "velocity": 0.7874015748031497,
          "duration": 0.7826084999999949
        },
        {
          "name": "F4",
          "midi": 65,
          "time": 105.13040849999976,
          "velocity": 0.7874015748031497,
          "duration": 0.2608694999999983
        },
        {
          "name": "B3",
          "midi": 59,
          "time": 105.39127799999976,
          "velocity": 0.7874015748031497,
          "duration": 0.5217389999999966
        },
        {
          "name": "C#4",
          "midi": 61,
          "time": 105.91301699999975,
          "velocity": 0.7874015748031497,
          "duration": 0.5217389999999966
        },
        {
          "name": "D4",
          "midi": 62,
          "time": 106.43475599999975,
          "velocity": 0.7874015748031497,
          "duration": 0.5217389999999966
        },
        {
          "name": "B3",
          "midi": 59,
          "time": 106.95649499999975,
          "velocity": 0.7874015748031497,
          "duration": 0.2608694999999983
        },
        {
          "name": "G3",
          "midi": 55,
          "time": 107.21736449999975,
          "velocity": 0.7874015748031497,
          "duration": 0.2608694999999983
        },
        {
          "name": "C4",
          "midi": 60,
          "time": 107.47823399999974,
          "velocity": 0.7874015748031497,
          "duration": 0.5217389999999966
        },
        {
          "name": "A3",
          "midi": 57,
          "time": 107.99997299999974,
          "velocity": 0.7874015748031497,
          "duration": 0.2608694999999983
        },
        {
          "name": "F3",
          "midi": 53,
          "time": 108.26084249999974,
          "velocity": 0.7874015748031497,
          "duration": 0.2608694999999983
        },
        {
          "name": "A#3",
          "midi": 58,
          "time": 108.52171199999974,
          "velocity": 0.7874015748031497,
          "duration": 0.2608694999999983
        },
        {
          "name": "D4",
          "midi": 62,
          "time": 108.78258149999974,
          "velocity": 0.7874015748031497,
          "duration": 0.2608694999999983
        },
        {
          "name": "G4",
          "midi": 67,
          "time": 109.04345099999973,
          "velocity": 0.7874015748031497,
          "duration": 0.7826084999999949
        },
        {
          "name": "E4",
          "midi": 64,
          "time": 109.82605949999973,
          "velocity": 0.7874015748031497,
          "duration": 0.2608694999999983
        },
        {
          "name": "F4",
          "midi": 65,
          "time": 110.08692899999973,
          "velocity": 0.7874015748031497,
          "duration": 0.7826084999999949
        },
        {
          "name": "F4",
          "midi": 65,
          "time": 110.86953749999972,
          "velocity": 0.7874015748031497,
          "duration": 0.2608694999999983
        },
        {
          "name": "E4",
          "midi": 64,
          "time": 111.13040699999972,
          "velocity": 0.7874015748031497,
          "duration": 0.2608694999999983
        },
        {
          "name": "D4",
          "midi": 62,
          "time": 111.39127649999972,
          "velocity": 0.7874015748031497,
          "duration": 0.2608694999999983
        },
        {
          "name": "C#4",
          "midi": 61,
          "time": 111.65214599999972,
          "velocity": 0.7874015748031497,
          "duration": 1.0434779999999932
        },
        {
          "name": "D4",
          "midi": 62,
          "time": 112.69562399999971,
          "velocity": 0.7874015748031497,
          "duration": 0.2608694999999983
        },
        {
          "name": "C4",
          "midi": 60,
          "time": 112.95649349999971,
          "velocity": 0.7874015748031497,
          "duration": 0.2608694999999983
        },
        {
          "name": "A#3",
          "midi": 58,
          "time": 113.21736299999971,
          "velocity": 0.7874015748031497,
          "duration": 0.2608694999999983
        },
        {
          "name": "A3",
          "midi": 57,
          "time": 113.4782324999997,
          "velocity": 0.7874015748031497,
          "duration": 0.2608694999999983
        },
        {
          "name": "G3",
          "midi": 55,
          "time": 113.7391019999997,
          "velocity": 0.7874015748031497,
          "duration": 0.2608694999999983
        },
        {
          "name": "A3",
          "midi": 57,
          "time": 113.9999714999997,
          "velocity": 0.7874015748031497,
          "duration": 0.2608694999999983
        },
        {
          "name": "A#3",
          "midi": 58,
          "time": 114.2608409999997,
          "velocity": 0.7874015748031497,
          "duration": 0.2608694999999983
        },
        {
          "name": "C4",
          "midi": 60,
          "time": 114.5217104999997,
          "velocity": 0.7874015748031497,
          "duration": 0.2608694999999983
        },
        {
          "name": "D4",
          "midi": 62,
          "time": 114.7825799999997,
          "velocity": 0.7874015748031497,
          "duration": 0.2608694999999983
        },
        {
          "name": "A3",
          "midi": 57,
          "time": 115.0434494999997,
          "velocity": 0.7874015748031497,
          "duration": 0.2608694999999983
        },
        {
          "name": "D4",
          "midi": 62,
          "time": 115.3043189999997,
          "velocity": 0.7874015748031497,
          "duration": 0.7826084999999949
        },
        {
          "name": "B3",
          "midi": 59,
          "time": 116.08692749999969,
          "velocity": 0.7874015748031497,
          "duration": 0.2608694999999983
        },
        {
          "name": "C#4",
          "midi": 61,
          "time": 116.34779699999969,
          "velocity": 0.7874015748031497,
          "duration": 0.7826084999999949
        },
        {
          "name": "E4",
          "midi": 64,
          "time": 117.13040549999968,
          "velocity": 0.7874015748031497,
          "duration": 0.2608694999999983
        },
        {
          "name": "A3",
          "midi": 57,
          "time": 117.39127499999968,
          "velocity": 0.7874015748031497,
          "duration": 0.2608694999999983
        },
        {
          "name": "C#4",
          "midi": 61,
          "time": 117.65214449999968,
          "velocity": 0.7874015748031497,
          "duration": 0.2608694999999983
        },
        {
          "name": "D4",
          "midi": 62,
          "time": 117.91301399999968,
          "velocity": 0.7874015748031497,
          "duration": 0.5217389999999966
        },
        {
          "name": "A#3",
          "midi": 58,
          "time": 118.43475299999967,
          "velocity": 0.7874015748031497,
          "duration": 0.2608694999999983
        },
        {
          "name": "G3",
          "midi": 55,
          "time": 118.69562249999967,
          "velocity": 0.7874015748031497,
          "duration": 0.2608694999999983
        },
        {
          "name": "E3",
          "midi": 52,
          "time": 118.95649199999967,
          "velocity": 0.7874015748031497,
          "duration": 1.0434779999999932
        },
        {
          "name": "F3",
          "midi": 53,
          "time": 119.99996999999966,
          "velocity": 0.7874015748031497,
          "duration": 0.5217389999999966
        },
        {
          "name": "G3",
          "midi": 55,
          "time": 120.52170899999966,
          "velocity": 0.7874015748031497,
          "duration": 0.5217389999999966
        },
        {
          "name": "A3",
          "midi": 57,
          "time": 121.04344799999966,
          "velocity": 0.7874015748031497,
          "duration": 1.0434779999999932
        },
        {
          "name": "B3",
          "midi": 59,
          "time": 122.08692599999965,
          "velocity": 0.7874015748031497,
          "duration": 0.5217389999999966
        },
        {
          "name": "C#4",
          "midi": 61,
          "time": 122.60866499999965,
          "velocity": 0.7874015748031497,
          "duration": 0.5217389999999966
        },
        {
          "name": "D4",
          "midi": 62,
          "time": 123.13040399999964,
          "velocity": 0.7874015748031497,
          "duration": 0.5217389999999966
        },
        {
          "name": "F#3",
          "midi": 54,
          "time": 124.69562099999963,
          "velocity": 0.7874015748031497,
          "duration": 0.5217389999999966
        },
        {
          "name": "G3",
          "midi": 55,
          "time": 125.21735999999963,
          "velocity": 0.7874015748031497,
          "duration": 0.2608694999999983
        },
        {
          "name": "A3",
          "midi": 57,
          "time": 125.47822949999963,
          "velocity": 0.7874015748031497,
          "duration": 0.2608694999999983
        },
        {
          "name": "A#3",
          "midi": 58,
          "time": 125.73909899999963,
          "velocity": 0.7874015748031497,
          "duration": 0.5217389999999966
        },
        {
          "name": "C4",
          "midi": 60,
          "time": 126.78257699999962,
          "velocity": 0.7874015748031497,
          "duration": 0.5217389999999966
        },
        {
          "name": "D4",
          "midi": 62,
          "time": 127.30431599999962,
          "velocity": 0.7874015748031497,
          "duration": 1.0434780000000075
        },
        {
          "name": "G3",
          "midi": 55,
          "time": 128.60866349999964,
          "velocity": 0.7874015748031497,
          "duration": 0.5217389999999966
        },
        {
          "name": "F3",
          "midi": 53,
          "time": 129.13040249999963,
          "velocity": 0.7874015748031497,
          "duration": 0.2608695000000125
        },
        {
          "name": "E3",
          "midi": 52,
          "time": 129.39127199999965,
          "velocity": 0.7874015748031497,
          "duration": 1.0434779999999932
        },
        {
          "name": "F3",
          "midi": 53,
          "time": 131.99996699999963,
          "velocity": 0.7874015748031497,
          "duration": 0.2608695000000125
        },
        {
          "name": "D3",
          "midi": 50,
          "time": 132.26083649999964,
          "velocity": 0.7874015748031497,
          "duration": 0.2608695000000125
        },
        {
          "name": "G3",
          "midi": 55,
          "time": 132.52170599999965,
          "velocity": 0.7874015748031497,
          "duration": 0.7826085000000091
        },
        {
          "name": "C#3",
          "midi": 49,
          "time": 133.30431449999966,
          "velocity": 0.7874015748031497,
          "duration": 0.2608695000000125
        },
        {
          "name": "F3",
          "midi": 53,
          "time": 133.56518399999968,
          "velocity": 0.7874015748031497,
          "duration": 0.7826085000000091
        },
        {
          "name": "D3",
          "midi": 50,
          "time": 134.34779249999968,
          "velocity": 0.7874015748031497,
          "duration": 0.2608695000000125
        },
        {
          "name": "A3",
          "midi": 57,
          "time": 134.6086619999997,
          "velocity": 0.7874015748031497,
          "duration": 1.0434779999999932
        },
        {
          "name": "D3",
          "midi": 50,
          "time": 135.6521399999997,
          "velocity": 0.7874015748031497,
          "duration": 0.5217389999999966
        },
        {
          "name": "D4",
          "midi": 62,
          "time": 136.1738789999997,
          "velocity": 0.7874015748031497,
          "duration": 1.0434779999999932
        },
        {
          "name": "A3",
          "midi": 57,
          "time": 137.21735699999968,
          "velocity": 0.7874015748031497,
          "duration": 0.2608695000000125
        },
        {
          "name": "F3",
          "midi": 53,
          "time": 137.4782264999997,
          "velocity": 0.7874015748031497,
          "duration": 0.2608695000000125
        },
        {
          "name": "A#3",
          "midi": 58,
          "time": 137.7390959999997,
          "velocity": 0.7874015748031497,
          "duration": 1.3043475000000058
        },
        {
          "name": "G#3",
          "midi": 56,
          "time": 139.0434434999997,
          "velocity": 0.7874015748031497,
          "duration": 0.2608695000000125
        },
        {
          "name": "A3",
          "midi": 57,
          "time": 139.30431299999972,
          "velocity": 0.7874015748031497,
          "duration": 0.5217389999999966
        },
        {
          "name": "D4",
          "midi": 62,
          "time": 139.82605199999972,
          "velocity": 0.7874015748031497,
          "duration": 1.3043475000000058
        },
        {
          "name": "B3",
          "midi": 59,
          "time": 141.13039949999973,
          "velocity": 0.7874015748031497,
          "duration": 0.2608695000000125
        },
        {
          "name": "C4",
          "midi": 60,
          "time": 141.39126899999974,
          "velocity": 0.7874015748031497,
          "duration": 0.5217389999999966
        },
        {
          "name": "F4",
          "midi": 65,
          "time": 141.91300799999973,
          "velocity": 0.7874015748031497,
          "duration": 1.3043475000000058
        },
        {
          "name": "D4",
          "midi": 62,
          "time": 143.21735549999974,
          "velocity": 0.7874015748031497,
          "duration": 0.2608695000000125
        },
        {
          "name": "D#4",
          "midi": 63,
          "time": 143.47822499999975,
          "velocity": 0.7874015748031497,
          "duration": 0.5217389999999966
        },
        {
          "name": "D4",
          "midi": 62,
          "time": 143.99996399999975,
          "velocity": 0.7874015748031497,
          "duration": 1.0434779999999932
        },
        {
          "name": "E4",
          "midi": 64,
          "time": 145.04344199999974,
          "velocity": 0.7874015748031497,
          "duration": 0.5217389999999966
        },
        {
          "name": "F4",
          "midi": 65,
          "time": 147.13039799999973,
          "velocity": 0.7874015748031497,
          "duration": 0.5217389999999966
        },
        {
          "name": "F4",
          "midi": 65,
          "time": 149.21735399999972,
          "velocity": 0.7874015748031497,
          "duration": 1.5652169999999899
        },
        {
          "name": "E4",
          "midi": 64,
          "time": 150.7825709999997,
          "velocity": 0.7874015748031497,
          "duration": 0.2608695000000125
        },
        {
          "name": "D4",
          "midi": 62,
          "time": 151.04344049999972,
          "velocity": 0.7874015748031497,
          "duration": 0.2608695000000125
        },
        {
          "name": "E4",
          "midi": 64,
          "time": 151.30430999999973,
          "velocity": 0.7874015748031497,
          "duration": 0.5217389999999966
        },
        {
          "name": "A3",
          "midi": 57,
          "time": 152.34778799999972,
          "velocity": 0.7874015748031497,
          "duration": 1.0434779999999932
        },
        {
          "name": "D4",
          "midi": 62,
          "time": 153.39126599999972,
          "velocity": 0.7874015748031497,
          "duration": 1.0434779999999932
        },
        {
          "name": "A#3",
          "midi": 58,
          "time": 154.4347439999997,
          "velocity": 0.7874015748031497,
          "duration": 1.0434779999999932
        },
        {
          "name": "G3",
          "midi": 55,
          "time": 155.4782219999997,
          "velocity": 0.7874015748031497,
          "duration": 1.0434779999999932
        },
        {
          "name": "F#3",
          "midi": 54,
          "time": 156.5216999999997,
          "velocity": 0.7874015748031497,
          "duration": 1.0434779999999932
        },
        {
          "name": "G3",
          "midi": 55,
          "time": 157.5651779999997,
          "velocity": 0.7874015748031497,
          "duration": 0.5217389999999966
        },
        {
          "name": "A3",
          "midi": 57,
          "time": 158.0869169999997,
          "velocity": 0.7874015748031497,
          "duration": 0.5217389999999966
        },
        {
          "name": "A#3",
          "midi": 58,
          "time": 158.60865599999968,
          "velocity": 0.7874015748031497,
          "duration": 1.3043475000000058
        },
        {
          "name": "D4",
          "midi": 62,
          "time": 159.9130034999997,
          "velocity": 0.7874015748031497,
          "duration": 0.2608695000000125
        },
        {
          "name": "C4",
          "midi": 60,
          "time": 160.1738729999997,
          "velocity": 0.7874015748031497,
          "duration": 0.2608695000000125
        },
        {
          "name": "A#3",
          "midi": 58,
          "time": 160.43474249999971,
          "velocity": 0.7874015748031497,
          "duration": 0.2608695000000125
        },
        {
          "name": "A3",
          "midi": 57,
          "time": 160.69561199999973,
          "velocity": 0.7874015748031497,
          "duration": 0.5217389999999966
        },
        {
          "name": "A3",
          "midi": 57,
          "time": 161.21735099999972,
          "velocity": 0.7874015748031497,
          "duration": 1.5652169999999899
        }
      ],
      "controlChanges": {
        "7": [
          {
            "number": 7,
            "time": 0,
            "value": 0.7874015748031497
          }
        ],
        "10": [
          {
            "number": 10,
            "time": 0,
            "value": 0.4251968503937008
          }
        ]
      },
      "id": 3,
      "name": "Johann Sebastian Bach  (1685-1750)",
      "instrumentNumber": 41,
      "instrument": "viola",
      "instrumentFamily": "strings",
      "channelNumber": 2,
      "isPercussion": false
    },
    {
      "startTime": 16.695648,
      "duration": 162.78256799999974,
      "length": 186,
      "notes": [
        {
          "name": "D3",
          "midi": 50,
          "time": 16.695648,
          "velocity": 0.7874015748031497,
          "duration": 1.0434780000000003
        },
        {
          "name": "A3",
          "midi": 57,
          "time": 17.739126,
          "velocity": 0.7874015748031497,
          "duration": 1.0434780000000003
        },
        {
          "name": "F3",
          "midi": 53,
          "time": 18.782604,
          "velocity": 0.7874015748031497,
          "duration": 1.0434780000000003
        },
        {
          "name": "D3",
          "midi": 50,
          "time": 19.826082,
          "velocity": 0.7874015748031497,
          "duration": 1.0434780000000003
        },
        {
          "name": "C#3",
          "midi": 49,
          "time": 20.86956,
          "velocity": 0.7874015748031497,
          "duration": 1.0434780000000003
        },
        {
          "name": "D3",
          "midi": 50,
          "time": 21.913038,
          "velocity": 0.7874015748031497,
          "duration": 0.5217390000000002
        },
        {
          "name": "E3",
          "midi": 52,
          "time": 22.434777,
          "velocity": 0.7874015748031497,
          "duration": 0.5217390000000002
        },
        {
          "name": "F3",
          "midi": 53,
          "time": 22.956516,
          "velocity": 0.7874015748031497,
          "duration": 1.3043474999999987
        },
        {
          "name": "G3",
          "midi": 55,
          "time": 24.2608635,
          "velocity": 0.7874015748031497,
          "duration": 0.2608694999999983
        },
        {
          "name": "F3",
          "midi": 53,
          "time": 24.521732999999998,
          "velocity": 0.7874015748031497,
          "duration": 0.2608694999999983
        },
        {
          "name": "E3",
          "midi": 52,
          "time": 24.782602499999996,
          "velocity": 0.7874015748031497,
          "duration": 0.2608694999999983
        },
        {
          "name": "D3",
          "midi": 50,
          "time": 25.043471999999994,
          "velocity": 0.7874015748031497,
          "duration": 1.0434780000000003
        },
        {
          "name": "A2",
          "midi": 45,
          "time": 27.652166999999995,
          "velocity": 0.7874015748031497,
          "duration": 0.2608694999999983
        },
        {
          "name": "B2",
          "midi": 47,
          "time": 27.913036499999993,
          "velocity": 0.7874015748031497,
          "duration": 0.2608694999999983
        },
        {
          "name": "C3",
          "midi": 48,
          "time": 28.17390599999999,
          "velocity": 0.7874015748031497,
          "duration": 0.2608694999999983
        },
        {
          "name": "A2",
          "midi": 45,
          "time": 28.43477549999999,
          "velocity": 0.7874015748031497,
          "duration": 0.2608694999999983
        },
        {
          "name": "F3",
          "midi": 53,
          "time": 28.69564499999999,
          "velocity": 0.7874015748031497,
          "duration": 0.7826084999999985
        },
        {
          "name": "B2",
          "midi": 47,
          "time": 29.478253499999987,
          "velocity": 0.7874015748031497,
          "duration": 0.2608694999999983
        },
        {
          "name": "E3",
          "midi": 52,
          "time": 29.739122999999985,
          "velocity": 0.7874015748031497,
          "duration": 0.7826084999999985
        },
        {
          "name": "F3",
          "midi": 53,
          "time": 30.521731499999984,
          "velocity": 0.7874015748031497,
          "duration": 0.2608694999999983
        },
        {
          "name": "E3",
          "midi": 52,
          "time": 30.782600999999982,
          "velocity": 0.7874015748031497,
          "duration": 0.2608694999999983
        },
        {
          "name": "D3",
          "midi": 50,
          "time": 31.04347049999998,
          "velocity": 0.7874015748031497,
          "duration": 0.2608694999999983
        },
        {
          "name": "E3",
          "midi": 52,
          "time": 31.30433999999998,
          "velocity": 0.7874015748031497,
          "duration": 0.2608694999999983
        },
        {
          "name": "G3",
          "midi": 55,
          "time": 31.565209499999977,
          "velocity": 0.7874015748031497,
          "duration": 0.2608694999999983
        },
        {
          "name": "F#3",
          "midi": 54,
          "time": 31.826078999999975,
          "velocity": 0.7874015748031497,
          "duration": 0.26086950000000186
        },
        {
          "name": "A3",
          "midi": 57,
          "time": 32.08694849999998,
          "velocity": 0.7874015748031497,
          "duration": 0.2608694999999983
        },
        {
          "name": "G3",
          "midi": 55,
          "time": 32.347817999999975,
          "velocity": 0.7874015748031497,
          "duration": 1.0434780000000003
        },
        {
          "name": "D3",
          "midi": 50,
          "time": 33.391295999999976,
          "velocity": 0.7874015748031497,
          "duration": 1.565216999999997
        },
        {
          "name": "E3",
          "midi": 52,
          "time": 34.95651299999997,
          "velocity": 0.7874015748031497,
          "duration": 0.2608694999999983
        },
        {
          "name": "D3",
          "midi": 50,
          "time": 35.21738249999997,
          "velocity": 0.7874015748031497,
          "duration": 0.2608694999999983
        },
        {
          "name": "E3",
          "midi": 52,
          "time": 35.47825199999997,
          "velocity": 0.7874015748031497,
          "duration": 0.5217389999999966
        },
        {
          "name": "F3",
          "midi": 53,
          "time": 35.999990999999966,
          "velocity": 0.7874015748031497,
          "duration": 0.2608694999999983
        },
        {
          "name": "E3",
          "midi": 52,
          "time": 36.260860499999964,
          "velocity": 0.7874015748031497,
          "duration": 0.2608694999999983
        },
        {
          "name": "F#3",
          "midi": 54,
          "time": 36.52172999999996,
          "velocity": 0.7874015748031497,
          "duration": 0.5217389999999966
        },
        {
          "name": "G3",
          "midi": 55,
          "time": 37.04346899999996,
          "velocity": 0.7874015748031497,
          "duration": 0.2608694999999983
        },
        {
          "name": "F#3",
          "midi": 54,
          "time": 37.30433849999996,
          "velocity": 0.7874015748031497,
          "duration": 0.2608694999999983
        },
        {
          "name": "G#3",
          "midi": 56,
          "time": 37.565207999999956,
          "velocity": 0.7874015748031497,
          "duration": 0.5217389999999966
        },
        {
          "name": "A3",
          "midi": 57,
          "time": 38.08694699999995,
          "velocity": 0.7874015748031497,
          "duration": 0.2608694999999983
        },
        {
          "name": "G#3",
          "midi": 56,
          "time": 38.34781649999995,
          "velocity": 0.7874015748031497,
          "duration": 0.2608694999999983
        },
        {
          "name": "A3",
          "midi": 57,
          "time": 38.60868599999995,
          "velocity": 0.7874015748031497,
          "duration": 0.5217389999999966
        },
        {
          "name": "A#3",
          "midi": 58,
          "time": 39.130424999999946,
          "velocity": 0.7874015748031497,
          "duration": 0.2608694999999983
        },
        {
          "name": "A3",
          "midi": 57,
          "time": 39.391294499999944,
          "velocity": 0.7874015748031497,
          "duration": 0.2608694999999983
        },
        {
          "name": "B3",
          "midi": 59,
          "time": 39.65216399999994,
          "velocity": 0.7874015748031497,
          "duration": 0.5217389999999966
        },
        {
          "name": "C4",
          "midi": 60,
          "time": 40.17390299999994,
          "velocity": 0.7874015748031497,
          "duration": 0.2608694999999983
        },
        {
          "name": "B3",
          "midi": 59,
          "time": 40.43477249999994,
          "velocity": 0.7874015748031497,
          "duration": 0.2608694999999983
        },
        {
          "name": "C#4",
          "midi": 61,
          "time": 40.695641999999935,
          "velocity": 0.7874015748031497,
          "duration": 0.5217389999999966
        },
        {
          "name": "D4",
          "midi": 62,
          "time": 41.21738099999993,
          "velocity": 0.7874015748031497,
          "duration": 0.2608694999999983
        },
        {
          "name": "G#3",
          "midi": 56,
          "time": 41.47825049999993,
          "velocity": 0.7874015748031497,
          "duration": 0.2608694999999983
        },
        {
          "name": "A3",
          "midi": 57,
          "time": 41.73911999999993,
          "velocity": 0.7874015748031497,
          "duration": 1.3043474999999987
        },
        {
          "name": "F3",
          "midi": 53,
          "time": 43.04346749999993,
          "velocity": 0.7874015748031497,
          "duration": 0.2608694999999983
        },
        {
          "name": "G3",
          "midi": 55,
          "time": 43.304336999999926,
          "velocity": 0.7874015748031497,
          "duration": 0.782608500000002
        },
        {
          "name": "E3",
          "midi": 52,
          "time": 44.08694549999993,
          "velocity": 0.7874015748031497,
          "duration": 0.2608694999999983
        },
        {
          "name": "F3",
          "midi": 53,
          "time": 44.347814999999926,
          "velocity": 0.7874015748031497,
          "duration": 0.782608500000002
        },
        {
          "name": "D3",
          "midi": 50,
          "time": 45.13042349999993,
          "velocity": 0.7874015748031497,
          "duration": 0.2608694999999983
        },
        {
          "name": "E3",
          "midi": 52,
          "time": 45.391292999999926,
          "velocity": 0.7874015748031497,
          "duration": 0.5217389999999966
        },
        {
          "name": "D3",
          "midi": 50,
          "time": 45.91303199999992,
          "velocity": 0.7874015748031497,
          "duration": 1.3043474999999987
        },
        {
          "name": "B2",
          "midi": 47,
          "time": 47.21737949999992,
          "velocity": 0.7874015748031497,
          "duration": 0.2608694999999983
        },
        {
          "name": "C#3",
          "midi": 49,
          "time": 47.47824899999992,
          "velocity": 0.7874015748031497,
          "duration": 0.5217389999999966
        },
        {
          "name": "D3",
          "midi": 50,
          "time": 47.99998799999992,
          "velocity": 0.7874015748031497,
          "duration": 0.782608500000002
        },
        {
          "name": "C3",
          "midi": 48,
          "time": 48.78259649999992,
          "velocity": 0.7874015748031497,
          "duration": 0.2608694999999983
        },
        {
          "name": "A#2",
          "midi": 46,
          "time": 49.04346599999992,
          "velocity": 0.7874015748031497,
          "duration": 1.0434780000000003
        },
        {
          "name": "A2",
          "midi": 45,
          "time": 50.08694399999992,
          "velocity": 0.7874015748031497,
          "duration": 0.782608500000002
        },
        {
          "name": "G2",
          "midi": 43,
          "time": 50.86955249999992,
          "velocity": 0.7874015748031497,
          "duration": 0.2608694999999983
        },
        {
          "name": "F2",
          "midi": 41,
          "time": 51.13042199999992,
          "velocity": 0.7874015748031497,
          "duration": 0.2608694999999983
        },
        {
          "name": "G2",
          "midi": 43,
          "time": 51.391291499999916,
          "velocity": 0.7874015748031497,
          "duration": 0.2608694999999983
        },
        {
          "name": "F2",
          "midi": 41,
          "time": 51.652160999999914,
          "velocity": 0.7874015748031497,
          "duration": 0.2608694999999983
        },
        {
          "name": "E2",
          "midi": 40,
          "time": 51.91303049999991,
          "velocity": 0.7874015748031497,
          "duration": 0.2608694999999983
        },
        {
          "name": "D2",
          "midi": 38,
          "time": 52.17389999999991,
          "velocity": 0.7874015748031497,
          "duration": 0.2608694999999983
        },
        {
          "name": "F2",
          "midi": 41,
          "time": 52.43476949999991,
          "velocity": 0.7874015748031497,
          "duration": 0.2608694999999983
        },
        {
          "name": "E2",
          "midi": 40,
          "time": 52.69563899999991,
          "velocity": 0.7874015748031497,
          "duration": 0.2608694999999983
        },
        {
          "name": "D2",
          "midi": 38,
          "time": 52.956508499999906,
          "velocity": 0.7874015748031497,
          "duration": 0.2608694999999983
        },
        {
          "name": "A2",
          "midi": 45,
          "time": 53.217377999999904,
          "velocity": 0.7874015748031497,
          "duration": 0.782608500000002
        },
        {
          "name": "F2",
          "midi": 41,
          "time": 53.999986499999906,
          "velocity": 0.7874015748031497,
          "duration": 0.2608694999999983
        },
        {
          "name": "A#2",
          "midi": 46,
          "time": 54.260855999999904,
          "velocity": 0.7874015748031497,
          "duration": 0.782608500000002
        },
        {
          "name": "G2",
          "midi": 43,
          "time": 55.04346449999991,
          "velocity": 0.7874015748031497,
          "duration": 0.2608694999999983
        },
        {
          "name": "D3",
          "midi": 50,
          "time": 55.304333999999905,
          "velocity": 0.7874015748031497,
          "duration": 0.782608500000002
        },
        {
          "name": "F3",
          "midi": 53,
          "time": 56.08694249999991,
          "velocity": 0.7874015748031497,
          "duration": 0.2608694999999983
        },
        {
          "name": "A3",
          "midi": 57,
          "time": 56.347811999999905,
          "velocity": 0.7874015748031497,
          "duration": 0.782608500000002
        },
        {
          "name": "A2",
          "midi": 45,
          "time": 57.13042049999991,
          "velocity": 0.7874015748031497,
          "duration": 0.2608694999999983
        },
        {
          "name": "E2",
          "midi": 40,
          "time": 57.391289999999906,
          "velocity": 0.7874015748031497,
          "duration": 1.0434780000000003
        },
        {
          "name": "E3",
          "midi": 52,
          "time": 59.478245999999906,
          "velocity": 0.7874015748031497,
          "duration": 1.0434780000000003
        },
        {
          "name": "A3",
          "midi": 57,
          "time": 60.52172399999991,
          "velocity": 0.7874015748031497,
          "duration": 1.0434780000000003
        },
        {
          "name": "F3",
          "midi": 53,
          "time": 61.56520199999991,
          "velocity": 0.7874015748031497,
          "duration": 1.3043474999999987
        },
        {
          "name": "F3",
          "midi": 53,
          "time": 62.869549499999906,
          "velocity": 0.7874015748031497,
          "duration": 0.2608694999999983
        },
        {
          "name": "E3",
          "midi": 52,
          "time": 63.130418999999904,
          "velocity": 0.7874015748031497,
          "duration": 0.2608694999999983
        },
        {
          "name": "D3",
          "midi": 50,
          "time": 63.3912884999999,
          "velocity": 0.7874015748031497,
          "duration": 0.2608694999999983
        },
        {
          "name": "C3",
          "midi": 48,
          "time": 63.6521579999999,
          "velocity": 0.7874015748031497,
          "duration": 0.2608694999999983
        },
        {
          "name": "D3",
          "midi": 50,
          "time": 63.9130274999999,
          "velocity": 0.7874015748031497,
          "duration": 0.2608694999999983
        },
        {
          "name": "C3",
          "midi": 48,
          "time": 64.1738969999999,
          "velocity": 0.7874015748031497,
          "duration": 0.2608694999999983
        },
        {
          "name": "B2",
          "midi": 47,
          "time": 64.4347664999999,
          "velocity": 0.7874015748031497,
          "duration": 0.2608694999999983
        },
        {
          "name": "A2",
          "midi": 45,
          "time": 64.6956359999999,
          "velocity": 0.7874015748031497,
          "duration": 1.0434779999999932
        },
        {
          "name": "D3",
          "midi": 50,
          "time": 65.73911399999989,
          "velocity": 0.7874015748031497,
          "duration": 1.0434779999999932
        },
        {
          "name": "C#3",
          "midi": 49,
          "time": 66.78259199999988,
          "velocity": 0.7874015748031497,
          "duration": 1.0434779999999932
        },
        {
          "name": "A2",
          "midi": 45,
          "time": 67.82606999999987,
          "velocity": 0.7874015748031497,
          "duration": 1.0434779999999932
        },
        {
          "name": "F#2",
          "midi": 42,
          "time": 68.86954799999987,
          "velocity": 0.7874015748031497,
          "duration": 1.0434779999999932
        },
        {
          "name": "G2",
          "midi": 43,
          "time": 69.91302599999986,
          "velocity": 0.7874015748031497,
          "duration": 0.5217389999999966
        },
        {
          "name": "A2",
          "midi": 45,
          "time": 70.43476499999986,
          "velocity": 0.7874015748031497,
          "duration": 0.5217389999999966
        },
        {
          "name": "A#2",
          "midi": 46,
          "time": 70.95650399999985,
          "velocity": 0.7874015748031497,
          "duration": 1.3043475000000058
        },
        {
          "name": "C3",
          "midi": 48,
          "time": 72.26085149999986,
          "velocity": 0.7874015748031497,
          "duration": 0.2608694999999983
        },
        {
          "name": "A#2",
          "midi": 46,
          "time": 72.52172099999986,
          "velocity": 0.7874015748031497,
          "duration": 0.2608694999999983
        },
        {
          "name": "A2",
          "midi": 45,
          "time": 72.78259049999986,
          "velocity": 0.7874015748031497,
          "duration": 0.2608694999999983
        },
        {
          "name": "G2",
          "midi": 43,
          "time": 73.04345999999985,
          "velocity": 0.7874015748031497,
          "duration": 1.3043475000000058
        },
        {
          "name": "E2",
          "midi": 40,
          "time": 74.34780749999986,
          "velocity": 0.7874015748031497,
          "duration": 0.2608694999999983
        },
        {
          "name": "F2",
          "midi": 41,
          "time": 74.60867699999986,
          "velocity": 0.7874015748031497,
          "duration": 0.5217389999999966
        },
        {
          "name": "A#2",
          "midi": 46,
          "time": 75.13041599999985,
          "velocity": 0.7874015748031497,
          "duration": 1.3043475000000058
        },
        {
          "name": "G2",
          "midi": 43,
          "time": 76.43476349999986,
          "velocity": 0.7874015748031497,
          "duration": 0.2608694999999983
        },
        {
          "name": "A2",
          "midi": 45,
          "time": 76.69563299999986,
          "velocity": 0.7874015748031497,
          "duration": 0.5217389999999966
        },
        {
          "name": "D3",
          "midi": 50,
          "time": 77.21737199999986,
          "velocity": 0.7874015748031497,
          "duration": 1.3043475000000058
        },
        {
          "name": "B2",
          "midi": 47,
          "time": 78.52171949999986,
          "velocity": 0.7874015748031497,
          "duration": 0.2608694999999983
        },
        {
          "name": "C3",
          "midi": 48,
          "time": 78.78258899999986,
          "velocity": 0.7874015748031497,
          "duration": 0.5217389999999966
        },
        {
          "name": "F3",
          "midi": 53,
          "time": 79.30432799999986,
          "velocity": 0.7874015748031497,
          "duration": 1.3043475000000058
        },
        {
          "name": "D3",
          "midi": 50,
          "time": 80.60867549999986,
          "velocity": 0.7874015748031497,
          "duration": 0.2608694999999983
        },
        {
          "name": "E3",
          "midi": 52,
          "time": 80.86954499999986,
          "velocity": 0.7874015748031497,
          "duration": 0.5217389999999966
        },
        {
          "name": "A2",
          "midi": 45,
          "time": 81.39128399999986,
          "velocity": 0.7874015748031497,
          "duration": 0.7826084999999949
        },
        {
          "name": "G3",
          "midi": 55,
          "time": 82.17389249999985,
          "velocity": 0.7874015748031497,
          "duration": 0.2608694999999983
        },
        {
          "name": "F3",
          "midi": 53,
          "time": 82.43476199999985,
          "velocity": 0.7874015748031497,
          "duration": 0.2608694999999983
        },
        {
          "name": "E3",
          "midi": 52,
          "time": 82.69563149999985,
          "velocity": 0.7874015748031497,
          "duration": 0.2608694999999983
        },
        {
          "name": "D3",
          "midi": 50,
          "time": 82.95650099999985,
          "velocity": 0.7874015748031497,
          "duration": 0.2608694999999983
        },
        {
          "name": "C#3",
          "midi": 49,
          "time": 83.21737049999984,
          "velocity": 0.7874015748031497,
          "duration": 0.2608694999999983
        },
        {
          "name": "D3",
          "midi": 50,
          "time": 83.47823999999984,
          "velocity": 0.7874015748031497,
          "duration": 0.7826084999999949
        },
        {
          "name": "F2",
          "midi": 41,
          "time": 84.26084849999984,
          "velocity": 0.7874015748031497,
          "duration": 0.2608694999999983
        },
        {
          "name": "A#2",
          "midi": 46,
          "time": 84.52171799999984,
          "velocity": 0.7874015748031497,
          "duration": 1.0434779999999932
        },
        {
          "name": "A2",
          "midi": 45,
          "time": 85.56519599999983,
          "velocity": 0.7874015748031497,
          "duration": 2.8695644999999956
        },
        {
          "name": "A#2",
          "midi": 46,
          "time": 88.43476049999983,
          "velocity": 0.7874015748031497,
          "duration": 0.2608694999999983
        },
        {
          "name": "A2",
          "midi": 45,
          "time": 88.69562999999982,
          "velocity": 0.7874015748031497,
          "duration": 0.2608694999999983
        },
        {
          "name": "G2",
          "midi": 43,
          "time": 88.95649949999982,
          "velocity": 0.7874015748031497,
          "duration": 0.2608694999999983
        },
        {
          "name": "A2",
          "midi": 45,
          "time": 89.21736899999982,
          "velocity": 0.7874015748031497,
          "duration": 0.5217389999999966
        },
        {
          "name": "A#2",
          "midi": 46,
          "time": 89.73910799999982,
          "velocity": 0.7874015748031497,
          "duration": 0.7826084999999949
        },
        {
          "name": "G2",
          "midi": 43,
          "time": 90.52171649999981,
          "velocity": 0.7874015748031497,
          "duration": 0.2608694999999983
        },
        {
          "name": "D3",
          "midi": 50,
          "time": 90.78258599999981,
          "velocity": 0.7874015748031497,
          "duration": 1.565217000000004
        },
        {
          "name": "E3",
          "midi": 52,
          "time": 92.34780299999981,
          "velocity": 0.7874015748031497,
          "duration": 1.0434779999999932
        },
        {
          "name": "F3",
          "midi": 53,
          "time": 93.39128099999981,
          "velocity": 0.7874015748031497,
          "duration": 1.3043475000000058
        },
        {
          "name": "D3",
          "midi": 50,
          "time": 94.69562849999981,
          "velocity": 0.7874015748031497,
          "duration": 0.2608694999999983
        },
        {
          "name": "E3",
          "midi": 52,
          "time": 94.95649799999981,
          "velocity": 0.7874015748031497,
          "duration": 0.7826084999999949
        },
        {
          "name": "C#3",
          "midi": 49,
          "time": 95.7391064999998,
          "velocity": 0.7874015748031497,
          "duration": 0.2608694999999983
        },
        {
          "name": "D3",
          "midi": 50,
          "time": 95.9999759999998,
          "velocity": 0.7874015748031497,
          "duration": 0.7826084999999949
        },
        {
          "name": "B2",
          "midi": 47,
          "time": 96.7825844999998,
          "velocity": 0.7874015748031497,
          "duration": 0.2608694999999983
        },
        {
          "name": "C#3",
          "midi": 49,
          "time": 97.0434539999998,
          "velocity": 0.7874015748031497,
          "duration": 0.2608694999999983
        },
        {
          "name": "A2",
          "midi": 45,
          "time": 97.3043234999998,
          "velocity": 0.7874015748031497,
          "duration": 0.2608694999999983
        },
        {
          "name": "D3",
          "midi": 50,
          "time": 97.5651929999998,
          "velocity": 0.7874015748031497,
          "duration": 0.7826084999999949
        },
        {
          "name": "C3",
          "midi": 48,
          "time": 98.34780149999979,
          "velocity": 0.7874015748031497,
          "duration": 0.2608694999999983
        },
        {
          "name": "B2",
          "midi": 47,
          "time": 98.60867099999979,
          "velocity": 0.7874015748031497,
          "duration": 0.2608694999999983
        },
        {
          "name": "A2",
          "midi": 45,
          "time": 98.86954049999979,
          "velocity": 0.7874015748031497,
          "duration": 0.2608694999999983
        },
        {
          "name": "B2",
          "midi": 47,
          "time": 99.13040999999978,
          "velocity": 0.7874015748031497,
          "duration": 1.0434779999999932
        },
        {
          "name": "A2",
          "midi": 45,
          "time": 100.17388799999978,
          "velocity": 0.7874015748031497,
          "duration": 0.5217389999999966
        },
        {
          "name": "D3",
          "midi": 50,
          "time": 114.78257999999977,
          "velocity": 0.7874015748031497,
          "duration": 1.0434779999999932
        },
        {
          "name": "A3",
          "midi": 57,
          "time": 115.82605799999976,
          "velocity": 0.7874015748031497,
          "duration": 1.0434779999999932
        },
        {
          "name": "F3",
          "midi": 53,
          "time": 116.86953599999975,
          "velocity": 0.7874015748031497,
          "duration": 1.0434779999999932
        },
        {
          "name": "D3",
          "midi": 50,
          "time": 117.91301399999975,
          "velocity": 0.7874015748031497,
          "duration": 1.0434779999999932
        },
        {
          "name": "C#3",
          "midi": 49,
          "time": 118.95649199999974,
          "velocity": 0.7874015748031497,
          "duration": 1.0434779999999932
        },
        {
          "name": "D3",
          "midi": 50,
          "time": 119.99996999999973,
          "velocity": 0.7874015748031497,
          "duration": 0.5217389999999966
        },
        {
          "name": "E3",
          "midi": 52,
          "time": 120.52170899999973,
          "velocity": 0.7874015748031497,
          "duration": 0.5217389999999966
        },
        {
          "name": "F3",
          "midi": 53,
          "time": 121.04344799999973,
          "velocity": 0.7874015748031497,
          "duration": 1.3043475000000058
        },
        {
          "name": "G3",
          "midi": 55,
          "time": 122.34779549999973,
          "velocity": 0.7874015748031497,
          "duration": 0.2608694999999983
        },
        {
          "name": "F3",
          "midi": 53,
          "time": 122.60866499999973,
          "velocity": 0.7874015748031497,
          "duration": 0.2608694999999983
        },
        {
          "name": "E3",
          "midi": 52,
          "time": 122.86953449999973,
          "velocity": 0.7874015748031497,
          "duration": 0.2608694999999983
        },
        {
          "name": "D3",
          "midi": 50,
          "time": 123.13040399999973,
          "velocity": 0.7874015748031497,
          "duration": 1.3043475000000058
        },
        {
          "name": "D#3",
          "midi": 51,
          "time": 124.43475149999973,
          "velocity": 0.7874015748031497,
          "duration": 0.2608694999999983
        },
        {
          "name": "D3",
          "midi": 50,
          "time": 124.69562099999973,
          "velocity": 0.7874015748031497,
          "duration": 0.2608694999999983
        },
        {
          "name": "C3",
          "midi": 48,
          "time": 124.95649049999973,
          "velocity": 0.7874015748031497,
          "duration": 0.2608694999999983
        },
        {
          "name": "A#2",
          "midi": 46,
          "time": 125.21735999999973,
          "velocity": 0.7874015748031497,
          "duration": 1.3043475000000058
        },
        {
          "name": "C3",
          "midi": 48,
          "time": 126.52170749999974,
          "velocity": 0.7874015748031497,
          "duration": 0.2608694999999983
        },
        {
          "name": "A#2",
          "midi": 46,
          "time": 126.78257699999973,
          "velocity": 0.7874015748031497,
          "duration": 0.2608694999999983
        },
        {
          "name": "A2",
          "midi": 45,
          "time": 127.04344649999973,
          "velocity": 0.7874015748031497,
          "duration": 0.2608694999999983
        },
        {
          "name": "G2",
          "midi": 43,
          "time": 127.30431599999973,
          "velocity": 0.7874015748031497,
          "duration": 1.565217000000004
        },
        {
          "name": "G2",
          "midi": 43,
          "time": 128.86953299999973,
          "velocity": 0.7874015748031497,
          "duration": 6.260867999999988
        },
        {
          "name": "A2",
          "midi": 45,
          "time": 135.13040099999972,
          "velocity": 0.7874015748031497,
          "duration": 0.5217389999999966
        },
        {
          "name": "A#2",
          "midi": 46,
          "time": 135.65213999999972,
          "velocity": 0.7874015748031497,
          "duration": 0.7826085000000091
        },
        {
          "name": "G2",
          "midi": 43,
          "time": 136.43474849999973,
          "velocity": 0.7874015748031497,
          "duration": 0.2608695000000125
        },
        {
          "name": "D3",
          "midi": 50,
          "time": 136.69561799999974,
          "velocity": 0.7874015748031497,
          "duration": 1.3043475000000058
        },
        {
          "name": "A#2",
          "midi": 46,
          "time": 137.99996549999975,
          "velocity": 0.7874015748031497,
          "duration": 0.2608695000000125
        },
        {
          "name": "C3",
          "midi": 48,
          "time": 138.26083499999976,
          "velocity": 0.7874015748031497,
          "duration": 0.5217389999999966
        },
        {
          "name": "F3",
          "midi": 53,
          "time": 138.78257399999976,
          "velocity": 0.7874015748031497,
          "duration": 1.3043475000000058
        },
        {
          "name": "D3",
          "midi": 50,
          "time": 140.08692149999976,
          "velocity": 0.7874015748031497,
          "duration": 0.2608695000000125
        },
        {
          "name": "E3",
          "midi": 52,
          "time": 140.34779099999977,
          "velocity": 0.7874015748031497,
          "duration": 0.5217389999999966
        },
        {
          "name": "A3",
          "midi": 57,
          "time": 140.86952999999977,
          "velocity": 0.7874015748031497,
          "duration": 1.3043475000000058
        },
        {
          "name": "F3",
          "midi": 53,
          "time": 142.17387749999978,
          "velocity": 0.7874015748031497,
          "duration": 0.2608695000000125
        },
        {
          "name": "G3",
          "midi": 55,
          "time": 142.4347469999998,
          "velocity": 0.7874015748031497,
          "duration": 0.5217389999999966
        },
        {
          "name": "C4",
          "midi": 60,
          "time": 142.95648599999979,
          "velocity": 0.7874015748031497,
          "duration": 1.3043475000000058
        },
        {
          "name": "A3",
          "midi": 57,
          "time": 144.2608334999998,
          "velocity": 0.7874015748031497,
          "duration": 0.2608695000000125
        },
        {
          "name": "A#3",
          "midi": 58,
          "time": 144.5217029999998,
          "velocity": 0.7874015748031497,
          "duration": 1.0434779999999932
        },
        {
          "name": "A3",
          "midi": 57,
          "time": 147.1303979999998,
          "velocity": 0.7874015748031497,
          "duration": 0.5217389999999966
        },
        {
          "name": "G#3",
          "midi": 56,
          "time": 149.21735399999977,
          "velocity": 0.7874015748031497,
          "duration": 1.0434779999999932
        },
        {
          "name": "A3",
          "midi": 57,
          "time": 150.26083199999977,
          "velocity": 0.7874015748031497,
          "duration": 1.5652169999999899
        },
        {
          "name": "A2",
          "midi": 45,
          "time": 151.82604899999976,
          "velocity": 0.7874015748031497,
          "duration": 0.5217389999999966
        },
        {
          "name": "D3",
          "midi": 50,
          "time": 152.34778799999975,
          "velocity": 0.7874015748031497,
          "duration": 10.43477999999999
        }
      ],
      "controlChanges": {
        "7": [
          {
            "number": 7,
            "time": 0,
            "value": 0.7874015748031497
          }
        ],
        "10": [
          {
            "number": 10,
            "time": 0,
            "value": 0.2677165354330709
          }
        ]
      },
      "id": 4,
      "name": "The Art of Fugue - BWV 1080",
      "instrumentNumber": 42,
      "instrument": "cello",
      "instrumentFamily": "strings",
      "channelNumber": 3,
      "isPercussion": false
    },
    {
      "startTime": 0,
      "duration": 0,
      "length": 0,
      "notes": [],
      "controlChanges": {},
      "id": 5,
      "name": "--------------------------------------"
    },
    {
      "startTime": 0,
      "duration": 0,
      "length": 0,
      "notes": [],
      "controlChanges": {},
      "id": 6,
      "name": "Contrapunctus I"
    },
    {
      "startTime": 0,
      "duration": 0,
      "length": 0,
      "notes": [],
      "controlChanges": {},
      "id": 7,
      "name": "--------------------------------------"
    },
    {
      "startTime": 0,
      "duration": 0,
      "length": 0,
      "notes": [],
      "controlChanges": {},
      "id": 8,
      "name": "Original sequence by an unknown author"
    },
    {
      "startTime": 0,
      "duration": 0,
      "length": 0,
      "notes": [],
      "controlChanges": {},
      "id": 9,
      "name": "Modified with Cakewalk Pro Audio by"
    },
    {
      "startTime": 0,
      "duration": 0,
      "length": 0,
      "notes": [],
      "controlChanges": {},
      "id": 10,
      "name": "David J. Grossman - dave@unpronounceable.com"
    },
    {
      "startTime": 0,
      "duration": 0,
      "length": 0,
      "notes": [],
      "controlChanges": {},
      "id": 11,
      "name": "This and other Bach MIDI files can be found at:"
    },
    {
      "startTime": 0,
      "duration": 0,
      "length": 0,
      "notes": [],
      "controlChanges": {},
      "id": 12,
      "name": "Dave's J.S. Bach Page"
    },
    {
      "startTime": 0,
      "duration": 0,
      "length": 0,
      "notes": [],
      "controlChanges": {},
      "id": 13,
      "name": "http://www.unpronounceable.com/bach"
    },
    {
      "startTime": 0,
      "duration": 0,
      "length": 0,
      "notes": [],
      "controlChanges": {},
      "id": 14,
      "name": "--------------------------------------"
    },
    {
      "startTime": 0,
      "duration": 0,
      "length": 0,
      "notes": [],
      "controlChanges": {},
      "id": 15,
      "name": "Original Filename: 1080-c01.mid"
    },
    {
      "startTime": 0,
      "duration": 0,
      "length": 0,
      "notes": [],
      "controlChanges": {},
      "id": 16,
      "name": "Last Modified: March 20, 1997"
    }
  ]
}
