{
    "header": {
        "PPQ": 240,
        "timeSignature": [
            4,
            4
        ],
        "bpm": 109.99990833340972,
        "name": "untitled"
    },
    "startTime": 0,
    "duration": 54.54550000000017,
    "tracks": [
        {
            "startTime": 0,
            "duration": 0,
            "length": 0,
            "notes": [],
            "controlChanges": {},
            "id": 0,
            "name": "untitled"
        },
        {
            "startTime": 0.13636375,
            "duration": 54.54550000000016,
            "length": 301,
            "notes": [
                {
                    "name": "E4",
                    "midi": 64,
                    "time": 0.13636375,
                    "velocity": 0.7874015748031497,
                    "duration": 0.13636375
                },
                {
                    "name": "A4",
                    "midi": 69,
                    "time": 0.2727275,
                    "velocity": 0.7874015748031497,
                    "duration": 0.13636375
                },
                {
                    "name": "C5",
                    "midi": 72,
                    "time": 0.40909125,
                    "velocity": 0.7874015748031497,
                    "duration": 0.13636375
                },
                {
                    "name": "B4",
                    "midi": 71,
                    "time": 0.545455,
                    "velocity": 0.7874015748031497,
                    "duration": 0.13636375
                },
                {
                    "name": "E4",
                    "midi": 64,
                    "time": 0.68181875,
                    "velocity": 0.7874015748031497,
                    "duration": 0.13636375
                },
                {
                    "name": "B4",
                    "midi": 71,
                    "time": 0.8181825,
                    "velocity": 0.7874015748031497,
                    "duration": 0.13636375
                },
                {
                    "name": "D5",
                    "midi": 74,
                    "time": 0.95454625,
                    "velocity": 0.7874015748031497,
                    "duration": 0.13636375
                },
                {
                    "name": "C5",
                    "midi": 72,
                    "time": 1.09091,
                    "velocity": 0.7874015748031497,
                    "duration": 0.2727275
                },
                {
                    "name": "E5",
                    "midi": 76,
                    "time": 1.3636375,
                    "velocity": 0.7874015748031497,
                    "duration": 0.2727275
                },
                {
                    "name": "G#4",
                    "midi": 68,
                    "time": 1.636365,
                    "velocity": 0.7874015748031497,
                    "duration": 0.2727275
                },
                {
                    "name": "E5",
                    "midi": 76,
                    "time": 1.9090925,
                    "velocity": 0.7874015748031497,
                    "duration": 0.2727275
                },
                {
                    "name": "A4",
                    "midi": 69,
                    "time": 2.18182,
                    "velocity": 0.7874015748031497,
                    "duration": 0.13636375000000012
                },
                {
                    "name": "E4",
                    "midi": 64,
                    "time": 2.31818375,
                    "velocity": 0.7874015748031497,
                    "duration": 0.13636375000000012
                },
                {
                    "name": "A4",
                    "midi": 69,
                    "time": 2.4545475000000003,
                    "velocity": 0.7874015748031497,
                    "duration": 0.13636375000000012
                },
                {
                    "name": "C5",
                    "midi": 72,
                    "time": 2.5909112500000004,
                    "velocity": 0.7874015748031497,
                    "duration": 0.13636375000000012
                },
                {
                    "name": "B4",
                    "midi": 71,
                    "time": 2.7272750000000006,
                    "velocity": 0.7874015748031497,
                    "duration": 0.13636375000000012
                },
                {
                    "name": "E4",
                    "midi": 64,
                    "time": 2.8636387500000007,
                    "velocity": 0.7874015748031497,
                    "duration": 0.13636375000000012
                },
                {
                    "name": "B4",
                    "midi": 71,
                    "time": 3.000002500000001,
                    "velocity": 0.7874015748031497,
                    "duration": 0.13636375000000012
                },
                {
                    "name": "D5",
                    "midi": 74,
                    "time": 3.136366250000001,
                    "velocity": 0.7874015748031497,
                    "duration": 0.13636375000000012
                },
                {
                    "name": "C5",
                    "midi": 72,
                    "time": 3.272730000000001,
                    "velocity": 0.7874015748031497,
                    "duration": 0.27272750000000023
                },
                {
                    "name": "A4",
                    "midi": 69,
                    "time": 3.5454575000000013,
                    "velocity": 0.7874015748031497,
                    "duration": 0.27272750000000023
                },
                {
                    "name": "E5",
                    "midi": 76,
                    "time": 4.500003750000001,
                    "velocity": 0.7874015748031497,
                    "duration": 0.13636375000000012
                },
                {
                    "name": "C5",
                    "midi": 72,
                    "time": 4.636367500000001,
                    "velocity": 0.7874015748031497,
                    "duration": 0.13636375000000012
                },
                {
                    "name": "E5",
                    "midi": 76,
                    "time": 4.772731250000001,
                    "velocity": 0.7874015748031497,
                    "duration": 0.13636375000000012
                },
                {
                    "name": "A4",
                    "midi": 69,
                    "time": 4.9090950000000015,
                    "velocity": 0.7874015748031497,
                    "duration": 0.13636375000000012
                },
                {
                    "name": "C5",
                    "midi": 72,
                    "time": 5.045458750000002,
                    "velocity": 0.7874015748031497,
                    "duration": 0.13636375000000012
                },
                {
                    "name": "E4",
                    "midi": 64,
                    "time": 5.181822500000002,
                    "velocity": 0.7874015748031497,
                    "duration": 0.13636375000000012
                },
                {
                    "name": "G4",
                    "midi": 67,
                    "time": 5.318186250000002,
                    "velocity": 0.7874015748031497,
                    "duration": 0.13636375000000012
                },
                {
                    "name": "F4",
                    "midi": 65,
                    "time": 5.454550000000002,
                    "velocity": 0.7874015748031497,
                    "duration": 0.27272750000000023
                },
                {
                    "name": "A4",
                    "midi": 69,
                    "time": 5.727277500000002,
                    "velocity": 0.7874015748031497,
                    "duration": 0.27272750000000023
                },
                {
                    "name": "D5",
                    "midi": 74,
                    "time": 6.0000050000000025,
                    "velocity": 0.7874015748031497,
                    "duration": 0.27272750000000023
                },
                {
                    "name": "F5",
                    "midi": 77,
                    "time": 6.272732500000003,
                    "velocity": 0.7874015748031497,
                    "duration": 0.40909125000000035
                },
                {
                    "name": "D5",
                    "midi": 74,
                    "time": 6.681823750000003,
                    "velocity": 0.7874015748031497,
                    "duration": 0.13636375000000012
                },
                {
                    "name": "B4",
                    "midi": 71,
                    "time": 6.818187500000003,
                    "velocity": 0.7874015748031497,
                    "duration": 0.13636375000000012
                },
                {
                    "name": "D5",
                    "midi": 74,
                    "time": 6.954551250000003,
                    "velocity": 0.7874015748031497,
                    "duration": 0.13636375000000012
                },
                {
                    "name": "G4",
                    "midi": 67,
                    "time": 7.090915000000003,
                    "velocity": 0.7874015748031497,
                    "duration": 0.13636375000000012
                },
                {
                    "name": "B4",
                    "midi": 71,
                    "time": 7.2272787500000035,
                    "velocity": 0.7874015748031497,
                    "duration": 0.13636375000000012
                },
                {
                    "name": "D4",
                    "midi": 62,
                    "time": 7.363642500000004,
                    "velocity": 0.7874015748031497,
                    "duration": 0.13636375000000012
                },
                {
                    "name": "F4",
                    "midi": 65,
                    "time": 7.500006250000004,
                    "velocity": 0.7874015748031497,
                    "duration": 0.13636375000000012
                },
                {
                    "name": "E4",
                    "midi": 64,
                    "time": 7.636370000000004,
                    "velocity": 0.7874015748031497,
                    "duration": 0.27272750000000023
                },
                {
                    "name": "G4",
                    "midi": 67,
                    "time": 7.909097500000004,
                    "velocity": 0.7874015748031497,
                    "duration": 0.27272749999999935
                },
                {
                    "name": "C5",
                    "midi": 72,
                    "time": 8.181825000000003,
                    "velocity": 0.7874015748031497,
                    "duration": 0.27272750000000023
                },
                {
                    "name": "E5",
                    "midi": 76,
                    "time": 8.454552500000004,
                    "velocity": 0.7874015748031497,
                    "duration": 0.40909124999999946
                },
                {
                    "name": "C5",
                    "midi": 72,
                    "time": 8.863643750000003,
                    "velocity": 0.7874015748031497,
                    "duration": 0.13636374999999923
                },
                {
                    "name": "A4",
                    "midi": 69,
                    "time": 9.000007500000002,
                    "velocity": 0.7874015748031497,
                    "duration": 0.13636374999999923
                },
                {
                    "name": "C5",
                    "midi": 72,
                    "time": 9.136371250000002,
                    "velocity": 0.7874015748031497,
                    "duration": 0.13636374999999923
                },
                {
                    "name": "F4",
                    "midi": 65,
                    "time": 9.272735,
                    "velocity": 0.7874015748031497,
                    "duration": 0.27272750000000023
                },
                {
                    "name": "D5",
                    "midi": 74,
                    "time": 9.545462500000001,
                    "velocity": 0.7874015748031497,
                    "duration": 0.40909124999999946
                },
                {
                    "name": "B4",
                    "midi": 71,
                    "time": 9.95455375,
                    "velocity": 0.7874015748031497,
                    "duration": 0.13636374999999923
                },
                {
                    "name": "G4",
                    "midi": 67,
                    "time": 10.0909175,
                    "velocity": 0.7874015748031497,
                    "duration": 0.13636374999999923
                },
                {
                    "name": "B4",
                    "midi": 71,
                    "time": 10.227281249999999,
                    "velocity": 0.7874015748031497,
                    "duration": 0.13636374999999923
                },
                {
                    "name": "E4",
                    "midi": 64,
                    "time": 10.363644999999998,
                    "velocity": 0.7874015748031497,
                    "duration": 0.27272750000000023
                },
                {
                    "name": "C5",
                    "midi": 72,
                    "time": 10.636372499999998,
                    "velocity": 0.7874015748031497,
                    "duration": 0.40909124999999946
                },
                {
                    "name": "A4",
                    "midi": 69,
                    "time": 11.045463749999998,
                    "velocity": 0.7874015748031497,
                    "duration": 0.13636374999999923
                },
                {
                    "name": "F4",
                    "midi": 65,
                    "time": 11.181827499999997,
                    "velocity": 0.7874015748031497,
                    "duration": 0.13636374999999923
                },
                {
                    "name": "A4",
                    "midi": 69,
                    "time": 11.318191249999996,
                    "velocity": 0.7874015748031497,
                    "duration": 0.13636374999999923
                },
                {
                    "name": "D4",
                    "midi": 62,
                    "time": 11.454554999999996,
                    "velocity": 0.7874015748031497,
                    "duration": 0.27272750000000023
                },
                {
                    "name": "B4",
                    "midi": 71,
                    "time": 11.727282499999996,
                    "velocity": 0.7874015748031497,
                    "duration": 0.27272750000000023
                },
                {
                    "name": "C5",
                    "midi": 72,
                    "time": 12.000009999999996,
                    "velocity": 0.7874015748031497,
                    "duration": 0.27272750000000023
                },
                {
                    "name": "G4",
                    "midi": 67,
                    "time": 13.227283749999996,
                    "velocity": 0.7874015748031497,
                    "duration": 0.13636374999999923
                },
                {
                    "name": "C5",
                    "midi": 72,
                    "time": 13.363647499999995,
                    "velocity": 0.7874015748031497,
                    "duration": 0.13636374999999923
                },
                {
                    "name": "E5",
                    "midi": 76,
                    "time": 13.500011249999995,
                    "velocity": 0.7874015748031497,
                    "duration": 0.13636374999999923
                },
                {
                    "name": "D5",
                    "midi": 74,
                    "time": 13.636374999999994,
                    "velocity": 0.7874015748031497,
                    "duration": 0.13636374999999923
                },
                {
                    "name": "G4",
                    "midi": 67,
                    "time": 13.772738749999993,
                    "velocity": 0.7874015748031497,
                    "duration": 0.13636374999999923
                },
                {
                    "name": "D5",
                    "midi": 74,
                    "time": 13.909102499999992,
                    "velocity": 0.7874015748031497,
                    "duration": 0.13636374999999923
                },
                {
                    "name": "F5",
                    "midi": 77,
                    "time": 14.045466249999992,
                    "velocity": 0.7874015748031497,
                    "duration": 0.13636374999999923
                },
                {
                    "name": "E5",
                    "midi": 76,
                    "time": 14.18182999999999,
                    "velocity": 0.7874015748031497,
                    "duration": 0.27272750000000023
                },
                {
                    "name": "G5",
                    "midi": 79,
                    "time": 14.454557499999991,
                    "velocity": 0.7874015748031497,
                    "duration": 0.27272750000000023
                },
                {
                    "name": "B4",
                    "midi": 71,
                    "time": 14.727284999999991,
                    "velocity": 0.7874015748031497,
                    "duration": 0.27272750000000023
                },
                {
                    "name": "G5",
                    "midi": 79,
                    "time": 15.000012499999992,
                    "velocity": 0.7874015748031497,
                    "duration": 0.27272750000000023
                },
                {
                    "name": "C5",
                    "midi": 72,
                    "time": 15.272739999999992,
                    "velocity": 0.7874015748031497,
                    "duration": 0.13636374999999923
                },
                {
                    "name": "G4",
                    "midi": 67,
                    "time": 15.409103749999991,
                    "velocity": 0.7874015748031497,
                    "duration": 0.13636374999999923
                },
                {
                    "name": "C5",
                    "midi": 72,
                    "time": 15.54546749999999,
                    "velocity": 0.7874015748031497,
                    "duration": 0.13636374999999923
                },
                {
                    "name": "E5",
                    "midi": 76,
                    "time": 15.68183124999999,
                    "velocity": 0.7874015748031497,
                    "duration": 0.13636374999999923
                },
                {
                    "name": "D5",
                    "midi": 74,
                    "time": 15.818194999999989,
                    "velocity": 0.7874015748031497,
                    "duration": 0.13636374999999923
                },
                {
                    "name": "G4",
                    "midi": 67,
                    "time": 15.954558749999988,
                    "velocity": 0.7874015748031497,
                    "duration": 0.13636374999999923
                },
                {
                    "name": "D5",
                    "midi": 74,
                    "time": 16.090922499999987,
                    "velocity": 0.7874015748031497,
                    "duration": 0.136363750000001
                },
                {
                    "name": "F5",
                    "midi": 77,
                    "time": 16.227286249999988,
                    "velocity": 0.7874015748031497,
                    "duration": 0.136363750000001
                },
                {
                    "name": "E5",
                    "midi": 76,
                    "time": 16.36364999999999,
                    "velocity": 0.7874015748031497,
                    "duration": 0.27272749999999846
                },
                {
                    "name": "C5",
                    "midi": 72,
                    "time": 16.636377499999988,
                    "velocity": 0.7874015748031497,
                    "duration": 0.27272749999999846
                },
                {
                    "name": "G5",
                    "midi": 79,
                    "time": 16.909104999999986,
                    "velocity": 0.7874015748031497,
                    "duration": 0.27272749999999846
                },
                {
                    "name": "E5",
                    "midi": 76,
                    "time": 17.181832499999985,
                    "velocity": 0.7874015748031497,
                    "duration": 0.27272749999999846
                },
                {
                    "name": "C6",
                    "midi": 84,
                    "time": 17.454559999999983,
                    "velocity": 0.7874015748031497,
                    "duration": 0.136363750000001
                },
                {
                    "name": "A5",
                    "midi": 81,
                    "time": 17.590923749999984,
                    "velocity": 0.7874015748031497,
                    "duration": 0.136363750000001
                },
                {
                    "name": "E5",
                    "midi": 76,
                    "time": 17.727287499999985,
                    "velocity": 0.7874015748031497,
                    "duration": 0.136363750000001
                },
                {
                    "name": "A5",
                    "midi": 81,
                    "time": 17.863651249999986,
                    "velocity": 0.7874015748031497,
                    "duration": 0.136363750000001
                },
                {
                    "name": "C5",
                    "midi": 72,
                    "time": 18.000014999999987,
                    "velocity": 0.7874015748031497,
                    "duration": 0.136363750000001
                },
                {
                    "name": "E5",
                    "midi": 76,
                    "time": 18.136378749999988,
                    "velocity": 0.7874015748031497,
                    "duration": 0.136363750000001
                },
                {
                    "name": "A4",
                    "midi": 69,
                    "time": 18.27274249999999,
                    "velocity": 0.7874015748031497,
                    "duration": 0.136363750000001
                },
                {
                    "name": "C5",
                    "midi": 72,
                    "time": 18.40910624999999,
                    "velocity": 0.7874015748031497,
                    "duration": 0.136363750000001
                },
                {
                    "name": "D5",
                    "midi": 74,
                    "time": 18.54546999999999,
                    "velocity": 0.7874015748031497,
                    "duration": 0.27272749999999846
                },
                {
                    "name": "F#5",
                    "midi": 78,
                    "time": 18.81819749999999,
                    "velocity": 0.7874015748031497,
                    "duration": 0.27272749999999846
                },
                {
                    "name": "A5",
                    "midi": 81,
                    "time": 19.090924999999988,
                    "velocity": 0.7874015748031497,
                    "duration": 0.27272749999999846
                },
                {
                    "name": "C6",
                    "midi": 84,
                    "time": 19.363652499999986,
                    "velocity": 0.7874015748031497,
                    "duration": 0.27272749999999846
                },
                {
                    "name": "B5",
                    "midi": 83,
                    "time": 19.636379999999985,
                    "velocity": 0.7874015748031497,
                    "duration": 0.136363750000001
                },
                {
                    "name": "G5",
                    "midi": 79,
                    "time": 19.772743749999986,
                    "velocity": 0.7874015748031497,
                    "duration": 0.136363750000001
                },
                {
                    "name": "D5",
                    "midi": 74,
                    "time": 19.909107499999987,
                    "velocity": 0.7874015748031497,
                    "duration": 0.136363750000001
                },
                {
                    "name": "G5",
                    "midi": 79,
                    "time": 20.045471249999988,
                    "velocity": 0.7874015748031497,
                    "duration": 0.136363750000001
                },
                {
                    "name": "B4",
                    "midi": 71,
                    "time": 20.18183499999999,
                    "velocity": 0.7874015748031497,
                    "duration": 0.136363750000001
                },
                {
                    "name": "D5",
                    "midi": 74,
                    "time": 20.31819874999999,
                    "velocity": 0.7874015748031497,
                    "duration": 0.136363750000001
                },
                {
                    "name": "G4",
                    "midi": 67,
                    "time": 20.45456249999999,
                    "velocity": 0.7874015748031497,
                    "duration": 0.136363750000001
                },
                {
                    "name": "B4",
                    "midi": 71,
                    "time": 20.590926249999992,
                    "velocity": 0.7874015748031497,
                    "duration": 0.136363750000001
                },
                {
                    "name": "C5",
                    "midi": 72,
                    "time": 20.727289999999993,
                    "velocity": 0.7874015748031497,
                    "duration": 0.27272749999999846
                },
                {
                    "name": "E5",
                    "midi": 76,
                    "time": 21.00001749999999,
                    "velocity": 0.7874015748031497,
                    "duration": 0.27272749999999846
                },
                {
                    "name": "G5",
                    "midi": 79,
                    "time": 21.27274499999999,
                    "velocity": 0.7874015748031497,
                    "duration": 0.27272749999999846
                },
                {
                    "name": "B5",
                    "midi": 83,
                    "time": 21.54547249999999,
                    "velocity": 0.7874015748031497,
                    "duration": 0.27272749999999846
                },
                {
                    "name": "A5",
                    "midi": 81,
                    "time": 21.818199999999987,
                    "velocity": 0.7874015748031497,
                    "duration": 0.136363750000001
                },
                {
                    "name": "F#5",
                    "midi": 78,
                    "time": 21.954563749999988,
                    "velocity": 0.7874015748031497,
                    "duration": 0.136363750000001
                },
                {
                    "name": "D#5",
                    "midi": 75,
                    "time": 22.09092749999999,
                    "velocity": 0.7874015748031497,
                    "duration": 0.136363750000001
                },
                {
                    "name": "F#5",
                    "midi": 78,
                    "time": 22.22729124999999,
                    "velocity": 0.7874015748031497,
                    "duration": 0.136363750000001
                },
                {
                    "name": "B4",
                    "midi": 71,
                    "time": 22.36365499999999,
                    "velocity": 0.7874015748031497,
                    "duration": 0.136363750000001
                },
                {
                    "name": "D#5",
                    "midi": 75,
                    "time": 22.50001874999999,
                    "velocity": 0.7874015748031497,
                    "duration": 0.136363750000001
                },
                {
                    "name": "F#4",
                    "midi": 66,
                    "time": 22.636382499999993,
                    "velocity": 0.7874015748031497,
                    "duration": 0.136363750000001
                },
                {
                    "name": "A4",
                    "midi": 69,
                    "time": 22.772746249999994,
                    "velocity": 0.7874015748031497,
                    "duration": 0.136363750000001
                },
                {
                    "name": "G4",
                    "midi": 67,
                    "time": 22.909109999999995,
                    "velocity": 0.7874015748031497,
                    "duration": 0.27272749999999846
                },
                {
                    "name": "G5",
                    "midi": 79,
                    "time": 23.181837499999993,
                    "velocity": 0.7874015748031497,
                    "duration": 0.40909124999999946
                },
                {
                    "name": "E5",
                    "midi": 76,
                    "time": 23.590928749999993,
                    "velocity": 0.7874015748031497,
                    "duration": 0.136363750000001
                },
                {
                    "name": "C5",
                    "midi": 72,
                    "time": 23.727292499999994,
                    "velocity": 0.7874015748031497,
                    "duration": 0.136363750000001
                },
                {
                    "name": "E5",
                    "midi": 76,
                    "time": 23.863656249999995,
                    "velocity": 0.7874015748031497,
                    "duration": 0.136363750000001
                },
                {
                    "name": "A4",
                    "midi": 69,
                    "time": 24.000019999999996,
                    "velocity": 0.7874015748031497,
                    "duration": 0.27272749999999846
                },
                {
                    "name": "F#5",
                    "midi": 78,
                    "time": 24.272747499999994,
                    "velocity": 0.7874015748031497,
                    "duration": 0.40909124999999946
                },
                {
                    "name": "D5",
                    "midi": 74,
                    "time": 24.681838749999994,
                    "velocity": 0.7874015748031497,
                    "duration": 0.136363750000001
                },
                {
                    "name": "B4",
                    "midi": 71,
                    "time": 24.818202499999995,
                    "velocity": 0.7874015748031497,
                    "duration": 0.136363750000001
                },
                {
                    "name": "D5",
                    "midi": 74,
                    "time": 24.954566249999996,
                    "velocity": 0.7874015748031497,
                    "duration": 0.136363750000001
                },
                {
                    "name": "G4",
                    "midi": 67,
                    "time": 25.090929999999997,
                    "velocity": 0.7874015748031497,
                    "duration": 0.27272749999999846
                },
                {
                    "name": "E5",
                    "midi": 76,
                    "time": 25.363657499999995,
                    "velocity": 0.7874015748031497,
                    "duration": 0.40909124999999946
                },
                {
                    "name": "C5",
                    "midi": 72,
                    "time": 25.772748749999995,
                    "velocity": 0.7874015748031497,
                    "duration": 0.136363750000001
                },
                {
                    "name": "A4",
                    "midi": 69,
                    "time": 25.909112499999996,
                    "velocity": 0.7874015748031497,
                    "duration": 0.136363750000001
                },
                {
                    "name": "C5",
                    "midi": 72,
                    "time": 26.045476249999997,
                    "velocity": 0.7874015748031497,
                    "duration": 0.136363750000001
                },
                {
                    "name": "F#4",
                    "midi": 66,
                    "time": 26.181839999999998,
                    "velocity": 0.7874015748031497,
                    "duration": 0.136363750000001
                },
                {
                    "name": "G5",
                    "midi": 79,
                    "time": 26.31820375,
                    "velocity": 0.7874015748031497,
                    "duration": 0.136363750000001
                },
                {
                    "name": "F#5",
                    "midi": 78,
                    "time": 26.4545675,
                    "velocity": 0.7874015748031497,
                    "duration": 0.136363750000001
                },
                {
                    "name": "E5",
                    "midi": 76,
                    "time": 26.59093125,
                    "velocity": 0.7874015748031497,
                    "duration": 0.136363750000001
                },
                {
                    "name": "D#5",
                    "midi": 75,
                    "time": 26.727295,
                    "velocity": 0.7874015748031497,
                    "duration": 0.136363750000001
                },
                {
                    "name": "F#5",
                    "midi": 78,
                    "time": 26.863658750000003,
                    "velocity": 0.7874015748031497,
                    "duration": 0.136363750000001
                },
                {
                    "name": "B4",
                    "midi": 71,
                    "time": 27.000022500000004,
                    "velocity": 0.7874015748031497,
                    "duration": 0.136363750000001
                },
                {
                    "name": "D#5",
                    "midi": 75,
                    "time": 27.136386250000005,
                    "velocity": 0.7874015748031497,
                    "duration": 0.136363750000001
                },
                {
                    "name": "E5",
                    "midi": 76,
                    "time": 27.272750000000006,
                    "velocity": 0.7874015748031497,
                    "duration": 0.27272749999999846
                },
                {
                    "name": "G5",
                    "midi": 79,
                    "time": 28.500023750000004,
                    "velocity": 0.7874015748031497,
                    "duration": 0.136363750000001
                },
                {
                    "name": "A#5",
                    "midi": 82,
                    "time": 28.636387500000005,
                    "velocity": 0.7874015748031497,
                    "duration": 0.136363750000001
                },
                {
                    "name": "G5",
                    "midi": 79,
                    "time": 28.772751250000006,
                    "velocity": 0.7874015748031497,
                    "duration": 0.136363750000001
                },
                {
                    "name": "E5",
                    "midi": 76,
                    "time": 28.909115000000007,
                    "velocity": 0.7874015748031497,
                    "duration": 0.136363750000001
                },
                {
                    "name": "G5",
                    "midi": 79,
                    "time": 29.045478750000008,
                    "velocity": 0.7874015748031497,
                    "duration": 0.136363750000001
                },
                {
                    "name": "C#5",
                    "midi": 73,
                    "time": 29.18184250000001,
                    "velocity": 0.7874015748031497,
                    "duration": 0.136363750000001
                },
                {
                    "name": "E5",
                    "midi": 76,
                    "time": 29.31820625000001,
                    "velocity": 0.7874015748031497,
                    "duration": 0.136363750000001
                },
                {
                    "name": "G5",
                    "midi": 79,
                    "time": 29.45457000000001,
                    "velocity": 0.7874015748031497,
                    "duration": 0.136363750000001
                },
                {
                    "name": "E5",
                    "midi": 76,
                    "time": 29.590933750000012,
                    "velocity": 0.7874015748031497,
                    "duration": 0.136363750000001
                },
                {
                    "name": "C#5",
                    "midi": 73,
                    "time": 29.727297500000013,
                    "velocity": 0.7874015748031497,
                    "duration": 0.136363750000001
                },
                {
                    "name": "E5",
                    "midi": 76,
                    "time": 29.863661250000014,
                    "velocity": 0.7874015748031497,
                    "duration": 0.136363750000001
                },
                {
                    "name": "A4",
                    "midi": 69,
                    "time": 30.000025000000015,
                    "velocity": 0.7874015748031497,
                    "duration": 0.136363750000001
                },
                {
                    "name": "F5",
                    "midi": 77,
                    "time": 30.681843750000017,
                    "velocity": 0.7874015748031497,
                    "duration": 0.136363750000001
                },
                {
                    "name": "G#5",
                    "midi": 80,
                    "time": 30.818207500000018,
                    "velocity": 0.7874015748031497,
                    "duration": 0.136363750000001
                },
                {
                    "name": "F5",
                    "midi": 77,
                    "time": 30.95457125000002,
                    "velocity": 0.7874015748031497,
                    "duration": 0.136363750000001
                },
                {
                    "name": "D5",
                    "midi": 74,
                    "time": 31.09093500000002,
                    "velocity": 0.7874015748031497,
                    "duration": 0.136363750000001
                },
                {
                    "name": "F5",
                    "midi": 77,
                    "time": 31.22729875000002,
                    "velocity": 0.7874015748031497,
                    "duration": 0.136363750000001
                },
                {
                    "name": "B4",
                    "midi": 71,
                    "time": 31.36366250000002,
                    "velocity": 0.7874015748031497,
                    "duration": 0.136363750000001
                },
                {
                    "name": "D5",
                    "midi": 74,
                    "time": 31.500026250000023,
                    "velocity": 0.7874015748031497,
                    "duration": 0.136363750000001
                },
                {
                    "name": "F5",
                    "midi": 77,
                    "time": 31.636390000000024,
                    "velocity": 0.7874015748031497,
                    "duration": 0.136363750000001
                },
                {
                    "name": "D5",
                    "midi": 74,
                    "time": 31.772753750000025,
                    "velocity": 0.7874015748031497,
                    "duration": 0.136363750000001
                },
                {
                    "name": "B4",
                    "midi": 71,
                    "time": 31.909117500000026,
                    "velocity": 0.7874015748031497,
                    "duration": 0.13636374999999745
                },
                {
                    "name": "D5",
                    "midi": 74,
                    "time": 32.04548125000002,
                    "velocity": 0.7874015748031497,
                    "duration": 0.136363750000001
                },
                {
                    "name": "G4",
                    "midi": 67,
                    "time": 32.181845000000024,
                    "velocity": 0.7874015748031497,
                    "duration": 0.136363750000001
                },
                {
                    "name": "E5",
                    "midi": 76,
                    "time": 32.86366375000002,
                    "velocity": 0.7874015748031497,
                    "duration": 0.136363750000001
                },
                {
                    "name": "G5",
                    "midi": 79,
                    "time": 33.00002750000002,
                    "velocity": 0.7874015748031497,
                    "duration": 0.136363750000001
                },
                {
                    "name": "E5",
                    "midi": 76,
                    "time": 33.136391250000024,
                    "velocity": 0.7874015748031497,
                    "duration": 0.136363750000001
                },
                {
                    "name": "C5",
                    "midi": 72,
                    "time": 33.272755000000025,
                    "velocity": 0.7874015748031497,
                    "duration": 0.136363750000001
                },
                {
                    "name": "E5",
                    "midi": 76,
                    "time": 33.409118750000026,
                    "velocity": 0.7874015748031497,
                    "duration": 0.136363750000001
                },
                {
                    "name": "A4",
                    "midi": 69,
                    "time": 33.54548250000003,
                    "velocity": 0.7874015748031497,
                    "duration": 0.136363750000001
                },
                {
                    "name": "C5",
                    "midi": 72,
                    "time": 33.68184625000003,
                    "velocity": 0.7874015748031497,
                    "duration": 0.136363750000001
                },
                {
                    "name": "D#5",
                    "midi": 75,
                    "time": 33.81821000000003,
                    "velocity": 0.7874015748031497,
                    "duration": 0.136363750000001
                },
                {
                    "name": "C5",
                    "midi": 72,
                    "time": 33.95457375000003,
                    "velocity": 0.7874015748031497,
                    "duration": 0.136363750000001
                },
                {
                    "name": "A4",
                    "midi": 69,
                    "time": 34.09093750000003,
                    "velocity": 0.7874015748031497,
                    "duration": 0.136363750000001
                },
                {
                    "name": "C5",
                    "midi": 72,
                    "time": 34.22730125000003,
                    "velocity": 0.7874015748031497,
                    "duration": 0.136363750000001
                },
                {
                    "name": "F#4",
                    "midi": 66,
                    "time": 34.36366500000003,
                    "velocity": 0.7874015748031497,
                    "duration": 0.136363750000001
                },
                {
                    "name": "D5",
                    "midi": 74,
                    "time": 35.04548375000003,
                    "velocity": 0.7874015748031497,
                    "duration": 0.136363750000001
                },
                {
                    "name": "F5",
                    "midi": 77,
                    "time": 35.18184750000003,
                    "velocity": 0.7874015748031497,
                    "duration": 0.136363750000001
                },
                {
                    "name": "D5",
                    "midi": 74,
                    "time": 35.31821125000003,
                    "velocity": 0.7874015748031497,
                    "duration": 0.136363750000001
                },
                {
                    "name": "B4",
                    "midi": 71,
                    "time": 35.454575000000034,
                    "velocity": 0.7874015748031497,
                    "duration": 0.136363750000001
                },
                {
                    "name": "D5",
                    "midi": 74,
                    "time": 35.590938750000035,
                    "velocity": 0.7874015748031497,
                    "duration": 0.136363750000001
                },
                {
                    "name": "G#4",
                    "midi": 68,
                    "time": 35.727302500000036,
                    "velocity": 0.7874015748031497,
                    "duration": 0.136363750000001
                },
                {
                    "name": "B4",
                    "midi": 71,
                    "time": 35.86366625000004,
                    "velocity": 0.7874015748031497,
                    "duration": 0.136363750000001
                },
                {
                    "name": "D5",
                    "midi": 74,
                    "time": 36.00003000000004,
                    "velocity": 0.7874015748031497,
                    "duration": 0.136363750000001
                },
                {
                    "name": "B4",
                    "midi": 71,
                    "time": 36.13639375000004,
                    "velocity": 0.7874015748031497,
                    "duration": 0.136363750000001
                },
                {
                    "name": "G#4",
                    "midi": 68,
                    "time": 36.27275750000004,
                    "velocity": 0.7874015748031497,
                    "duration": 0.136363750000001
                },
                {
                    "name": "B4",
                    "midi": 71,
                    "time": 36.40912125000004,
                    "velocity": 0.7874015748031497,
                    "duration": 0.136363750000001
                },
                {
                    "name": "E4",
                    "midi": 64,
                    "time": 36.54548500000004,
                    "velocity": 0.7874015748031497,
                    "duration": 0.136363750000001
                },
                {
                    "name": "E4",
                    "midi": 64,
                    "time": 37.22730375000004,
                    "velocity": 0.7874015748031497,
                    "duration": 0.136363750000001
                },
                {
                    "name": "A4",
                    "midi": 69,
                    "time": 37.36366750000004,
                    "velocity": 0.7874015748031497,
                    "duration": 0.136363750000001
                },
                {
                    "name": "C5",
                    "midi": 72,
                    "time": 37.50003125000004,
                    "velocity": 0.7874015748031497,
                    "duration": 0.136363750000001
                },
                {
                    "name": "B4",
                    "midi": 71,
                    "time": 37.63639500000004,
                    "velocity": 0.7874015748031497,
                    "duration": 0.136363750000001
                },
                {
                    "name": "E4",
                    "midi": 64,
                    "time": 37.772758750000044,
                    "velocity": 0.7874015748031497,
                    "duration": 0.136363750000001
                },
                {
                    "name": "B4",
                    "midi": 71,
                    "time": 37.909122500000045,
                    "velocity": 0.7874015748031497,
                    "duration": 0.136363750000001
                },
                {
                    "name": "D5",
                    "midi": 74,
                    "time": 38.045486250000046,
                    "velocity": 0.7874015748031497,
                    "duration": 0.136363750000001
                },
                {
                    "name": "C5",
                    "midi": 72,
                    "time": 38.18185000000005,
                    "velocity": 0.7874015748031497,
                    "duration": 0.272727500000002
                },
                {
                    "name": "A4",
                    "midi": 69,
                    "time": 38.45457750000005,
                    "velocity": 0.7874015748031497,
                    "duration": 0.272727500000002
                },
                {
                    "name": "G#4",
                    "midi": 68,
                    "time": 38.72730500000005,
                    "velocity": 0.7874015748031497,
                    "duration": 0.272727500000002
                },
                {
                    "name": "E4",
                    "midi": 64,
                    "time": 39.00003250000005,
                    "velocity": 0.7874015748031497,
                    "duration": 0.272727500000002
                },
                {
                    "name": "A4",
                    "midi": 69,
                    "time": 39.272760000000055,
                    "velocity": 0.7874015748031497,
                    "duration": 0.136363750000001
                },
                {
                    "name": "C5",
                    "midi": 72,
                    "time": 39.409123750000056,
                    "velocity": 0.7874015748031497,
                    "duration": 0.136363750000001
                },
                {
                    "name": "E5",
                    "midi": 76,
                    "time": 39.54548750000006,
                    "velocity": 0.7874015748031497,
                    "duration": 0.136363750000001
                },
                {
                    "name": "C5",
                    "midi": 72,
                    "time": 39.68185125000006,
                    "velocity": 0.7874015748031497,
                    "duration": 0.136363750000001
                },
                {
                    "name": "A4",
                    "midi": 69,
                    "time": 39.81821500000006,
                    "velocity": 0.7874015748031497,
                    "duration": 0.136363750000001
                },
                {
                    "name": "C5",
                    "midi": 72,
                    "time": 39.95457875000006,
                    "velocity": 0.7874015748031497,
                    "duration": 0.136363750000001
                },
                {
                    "name": "F#4",
                    "midi": 66,
                    "time": 40.09094250000006,
                    "velocity": 0.7874015748031497,
                    "duration": 0.136363750000001
                },
                {
                    "name": "A4",
                    "midi": 69,
                    "time": 40.22730625000006,
                    "velocity": 0.7874015748031497,
                    "duration": 0.136363750000001
                },
                {
                    "name": "C5",
                    "midi": 72,
                    "time": 40.36367000000006,
                    "velocity": 0.7874015748031497,
                    "duration": 0.136363750000001
                },
                {
                    "name": "A4",
                    "midi": 69,
                    "time": 40.500033750000064,
                    "velocity": 0.7874015748031497,
                    "duration": 0.136363750000001
                },
                {
                    "name": "F#4",
                    "midi": 66,
                    "time": 40.636397500000065,
                    "velocity": 0.7874015748031497,
                    "duration": 0.136363750000001
                },
                {
                    "name": "A4",
                    "midi": 69,
                    "time": 40.772761250000066,
                    "velocity": 0.7874015748031497,
                    "duration": 0.136363750000001
                },
                {
                    "name": "D#4",
                    "midi": 63,
                    "time": 40.90912500000007,
                    "velocity": 0.7874015748031497,
                    "duration": 0.136363750000001
                },
                {
                    "name": "C5",
                    "midi": 72,
                    "time": 41.04548875000007,
                    "velocity": 0.7874015748031497,
                    "duration": 0.136363750000001
                },
                {
                    "name": "B4",
                    "midi": 71,
                    "time": 41.18185250000007,
                    "velocity": 0.7874015748031497,
                    "duration": 0.136363750000001
                },
                {
                    "name": "A4",
                    "midi": 69,
                    "time": 41.31821625000007,
                    "velocity": 0.7874015748031497,
                    "duration": 0.136363750000001
                },
                {
                    "name": "G#4",
                    "midi": 68,
                    "time": 41.45458000000007,
                    "velocity": 0.7874015748031497,
                    "duration": 0.136363750000001
                },
                {
                    "name": "B4",
                    "midi": 71,
                    "time": 41.59094375000007,
                    "velocity": 0.7874015748031497,
                    "duration": 0.136363750000001
                },
                {
                    "name": "D5",
                    "midi": 74,
                    "time": 41.72730750000007,
                    "velocity": 0.7874015748031497,
                    "duration": 0.136363750000001
                },
                {
                    "name": "B4",
                    "midi": 71,
                    "time": 41.863671250000074,
                    "velocity": 0.7874015748031497,
                    "duration": 0.136363750000001
                },
                {
                    "name": "G#4",
                    "midi": 68,
                    "time": 42.000035000000075,
                    "velocity": 0.7874015748031497,
                    "duration": 0.136363750000001
                },
                {
                    "name": "B4",
                    "midi": 71,
                    "time": 42.136398750000076,
                    "velocity": 0.7874015748031497,
                    "duration": 0.136363750000001
                },
                {
                    "name": "D4",
                    "midi": 62,
                    "time": 42.27276250000008,
                    "velocity": 0.7874015748031497,
                    "duration": 0.136363750000001
                },
                {
                    "name": "F4",
                    "midi": 65,
                    "time": 42.40912625000008,
                    "velocity": 0.7874015748031497,
                    "duration": 0.136363750000001
                },
                {
                    "name": "G#4",
                    "midi": 68,
                    "time": 42.54549000000008,
                    "velocity": 0.7874015748031497,
                    "duration": 0.136363750000001
                },
                {
                    "name": "F4",
                    "midi": 65,
                    "time": 42.68185375000008,
                    "velocity": 0.7874015748031497,
                    "duration": 0.136363750000001
                },
                {
                    "name": "D4",
                    "midi": 62,
                    "time": 42.81821750000008,
                    "velocity": 0.7874015748031497,
                    "duration": 0.136363750000001
                },
                {
                    "name": "F4",
                    "midi": 65,
                    "time": 42.95458125000008,
                    "velocity": 0.7874015748031497,
                    "duration": 0.136363750000001
                },
                {
                    "name": "B3",
                    "midi": 59,
                    "time": 43.09094500000008,
                    "velocity": 0.7874015748031497,
                    "duration": 0.136363750000001
                },
                {
                    "name": "F4",
                    "midi": 65,
                    "time": 43.227308750000084,
                    "velocity": 0.7874015748031497,
                    "duration": 0.136363750000001
                },
                {
                    "name": "E4",
                    "midi": 64,
                    "time": 43.363672500000085,
                    "velocity": 0.7874015748031497,
                    "duration": 0.136363750000001
                },
                {
                    "name": "D4",
                    "midi": 62,
                    "time": 43.500036250000086,
                    "velocity": 0.7874015748031497,
                    "duration": 0.136363750000001
                },
                {
                    "name": "C4",
                    "midi": 60,
                    "time": 43.63640000000009,
                    "velocity": 0.7874015748031497,
                    "duration": 0.136363750000001
                },
                {
                    "name": "E4",
                    "midi": 64,
                    "time": 43.77276375000009,
                    "velocity": 0.7874015748031497,
                    "duration": 0.136363750000001
                },
                {
                    "name": "A4",
                    "midi": 69,
                    "time": 43.90912750000009,
                    "velocity": 0.7874015748031497,
                    "duration": 0.136363750000001
                },
                {
                    "name": "E4",
                    "midi": 64,
                    "time": 44.04549125000009,
                    "velocity": 0.7874015748031497,
                    "duration": 0.136363750000001
                },
                {
                    "name": "C4",
                    "midi": 60,
                    "time": 44.18185500000009,
                    "velocity": 0.7874015748031497,
                    "duration": 0.136363750000001
                },
                {
                    "name": "E4",
                    "midi": 64,
                    "time": 44.31821875000009,
                    "velocity": 0.7874015748031497,
                    "duration": 0.136363750000001
                },
                {
                    "name": "A3",
                    "midi": 57,
                    "time": 44.45458250000009,
                    "velocity": 0.7874015748031497,
                    "duration": 0.136363750000001
                },
                {
                    "name": "C4",
                    "midi": 60,
                    "time": 44.590946250000094,
                    "velocity": 0.7874015748031497,
                    "duration": 0.136363750000001
                },
                {
                    "name": "D#4",
                    "midi": 63,
                    "time": 44.727310000000095,
                    "velocity": 0.7874015748031497,
                    "duration": 0.136363750000001
                },
                {
                    "name": "C4",
                    "midi": 60,
                    "time": 44.863673750000096,
                    "velocity": 0.7874015748031497,
                    "duration": 0.136363750000001
                },
                {
                    "name": "A3",
                    "midi": 57,
                    "time": 45.0000375000001,
                    "velocity": 0.7874015748031497,
                    "duration": 0.136363750000001
                },
                {
                    "name": "C4",
                    "midi": 60,
                    "time": 45.1364012500001,
                    "velocity": 0.7874015748031497,
                    "duration": 0.136363750000001
                },
                {
                    "name": "F#3",
                    "midi": 54,
                    "time": 45.2727650000001,
                    "velocity": 0.7874015748031497,
                    "duration": 0.136363750000001
                },
                {
                    "name": "C4",
                    "midi": 60,
                    "time": 45.4091287500001,
                    "velocity": 0.7874015748031497,
                    "duration": 0.136363750000001
                },
                {
                    "name": "B3",
                    "midi": 59,
                    "time": 45.5454925000001,
                    "velocity": 0.7874015748031497,
                    "duration": 0.136363750000001
                },
                {
                    "name": "A3",
                    "midi": 57,
                    "time": 45.6818562500001,
                    "velocity": 0.7874015748031497,
                    "duration": 0.136363750000001
                },
                {
                    "name": "G#3",
                    "midi": 56,
                    "time": 45.8182200000001,
                    "velocity": 0.7874015748031497,
                    "duration": 0.272727500000002
                },
                {
                    "name": "B4",
                    "midi": 71,
                    "time": 46.090947500000105,
                    "velocity": 0.7874015748031497,
                    "duration": 0.272727500000002
                },
                {
                    "name": "G#4",
                    "midi": 68,
                    "time": 46.36367500000011,
                    "velocity": 0.7874015748031497,
                    "duration": 0.272727500000002
                },
                {
                    "name": "E4",
                    "midi": 64,
                    "time": 46.63640250000011,
                    "velocity": 0.7874015748031497,
                    "duration": 0.272727500000002
                },
                {
                    "name": "E4",
                    "midi": 64,
                    "time": 47.04549375000011,
                    "velocity": 0.7874015748031497,
                    "duration": 0.136363750000001
                },
                {
                    "name": "A4",
                    "midi": 69,
                    "time": 47.18185750000011,
                    "velocity": 0.7874015748031497,
                    "duration": 0.136363750000001
                },
                {
                    "name": "C5",
                    "midi": 72,
                    "time": 47.318221250000114,
                    "velocity": 0.7874015748031497,
                    "duration": 0.136363750000001
                },
                {
                    "name": "B4",
                    "midi": 71,
                    "time": 47.454585000000115,
                    "velocity": 0.7874015748031497,
                    "duration": 0.136363750000001
                },
                {
                    "name": "E4",
                    "midi": 64,
                    "time": 47.590948750000116,
                    "velocity": 0.7874015748031497,
                    "duration": 0.136363750000001
                },
                {
                    "name": "B4",
                    "midi": 71,
                    "time": 47.72731250000012,
                    "velocity": 0.7874015748031497,
                    "duration": 0.136363750000001
                },
                {
                    "name": "D5",
                    "midi": 74,
                    "time": 47.86367625000012,
                    "velocity": 0.7874015748031497,
                    "duration": 0.136363750000001
                },
                {
                    "name": "C5",
                    "midi": 72,
                    "time": 48.00004000000012,
                    "velocity": 0.7874015748031497,
                    "duration": 0.136363750000001
                },
                {
                    "name": "A4",
                    "midi": 69,
                    "time": 48.13640375000012,
                    "velocity": 0.7874015748031497,
                    "duration": 0.136363750000001
                },
                {
                    "name": "C5",
                    "midi": 72,
                    "time": 48.27276750000012,
                    "velocity": 0.7874015748031497,
                    "duration": 0.136363750000001
                },
                {
                    "name": "E5",
                    "midi": 76,
                    "time": 48.40913125000012,
                    "velocity": 0.7874015748031497,
                    "duration": 0.136363750000001
                },
                {
                    "name": "D5",
                    "midi": 74,
                    "time": 48.54549500000012,
                    "velocity": 0.7874015748031497,
                    "duration": 0.136363750000001
                },
                {
                    "name": "B4",
                    "midi": 71,
                    "time": 48.681858750000124,
                    "velocity": 0.7874015748031497,
                    "duration": 0.136363750000001
                },
                {
                    "name": "D5",
                    "midi": 74,
                    "time": 48.818222500000125,
                    "velocity": 0.7874015748031497,
                    "duration": 0.136363750000001
                },
                {
                    "name": "F5",
                    "midi": 77,
                    "time": 48.954586250000126,
                    "velocity": 0.7874015748031497,
                    "duration": 0.136363750000001
                },
                {
                    "name": "E5",
                    "midi": 76,
                    "time": 49.09095000000013,
                    "velocity": 0.7874015748031497,
                    "duration": 0.136363750000001
                },
                {
                    "name": "C5",
                    "midi": 72,
                    "time": 49.22731375000013,
                    "velocity": 0.7874015748031497,
                    "duration": 0.136363750000001
                },
                {
                    "name": "E5",
                    "midi": 76,
                    "time": 49.36367750000013,
                    "velocity": 0.7874015748031497,
                    "duration": 0.136363750000001
                },
                {
                    "name": "G5",
                    "midi": 79,
                    "time": 49.50004125000013,
                    "velocity": 0.7874015748031497,
                    "duration": 0.136363750000001
                },
                {
                    "name": "F5",
                    "midi": 77,
                    "time": 49.63640500000013,
                    "velocity": 0.7874015748031497,
                    "duration": 0.136363750000001
                },
                {
                    "name": "E5",
                    "midi": 76,
                    "time": 49.77276875000013,
                    "velocity": 0.7874015748031497,
                    "duration": 0.136363750000001
                },
                {
                    "name": "D5",
                    "midi": 74,
                    "time": 49.90913250000013,
                    "velocity": 0.7874015748031497,
                    "duration": 0.136363750000001
                },
                {
                    "name": "C5",
                    "midi": 72,
                    "time": 50.045496250000134,
                    "velocity": 0.7874015748031497,
                    "duration": 0.136363750000001
                },
                {
                    "name": "B4",
                    "midi": 71,
                    "time": 50.181860000000135,
                    "velocity": 0.7874015748031497,
                    "duration": 0.136363750000001
                },
                {
                    "name": "C5",
                    "midi": 72,
                    "time": 50.318223750000136,
                    "velocity": 0.7874015748031497,
                    "duration": 0.136363750000001
                },
                {
                    "name": "D5",
                    "midi": 74,
                    "time": 50.45458750000014,
                    "velocity": 0.7874015748031497,
                    "duration": 0.136363750000001
                },
                {
                    "name": "E5",
                    "midi": 76,
                    "time": 50.59095125000014,
                    "velocity": 0.7874015748031497,
                    "duration": 0.136363750000001
                },
                {
                    "name": "F5",
                    "midi": 77,
                    "time": 50.72731500000014,
                    "velocity": 0.7874015748031497,
                    "duration": 0.136363750000001
                },
                {
                    "name": "D5",
                    "midi": 74,
                    "time": 50.86367875000014,
                    "velocity": 0.7874015748031497,
                    "duration": 0.136363750000001
                },
                {
                    "name": "G#5",
                    "midi": 80,
                    "time": 51.00004250000014,
                    "velocity": 0.7874015748031497,
                    "duration": 0.136363750000001
                },
                {
                    "name": "D5",
                    "midi": 74,
                    "time": 51.13640625000014,
                    "velocity": 0.7874015748031497,
                    "duration": 0.136363750000001
                },
                {
                    "name": "B5",
                    "midi": 83,
                    "time": 51.27277000000014,
                    "velocity": 0.7874015748031497,
                    "duration": 0.136363750000001
                },
                {
                    "name": "D5",
                    "midi": 74,
                    "time": 51.409133750000144,
                    "velocity": 0.7874015748031497,
                    "duration": 0.136363750000001
                },
                {
                    "name": "C5",
                    "midi": 72,
                    "time": 51.545497500000145,
                    "velocity": 0.7874015748031497,
                    "duration": 0.136363750000001
                },
                {
                    "name": "A5",
                    "midi": 81,
                    "time": 51.681861250000146,
                    "velocity": 0.7874015748031497,
                    "duration": 0.136363750000001
                },
                {
                    "name": "F5",
                    "midi": 77,
                    "time": 51.81822500000015,
                    "velocity": 0.7874015748031497,
                    "duration": 0.136363750000001
                },
                {
                    "name": "D5",
                    "midi": 74,
                    "time": 51.95458875000015,
                    "velocity": 0.7874015748031497,
                    "duration": 0.136363750000001
                },
                {
                    "name": "B4",
                    "midi": 71,
                    "time": 52.09095250000015,
                    "velocity": 0.7874015748031497,
                    "duration": 0.136363750000001
                },
                {
                    "name": "D5",
                    "midi": 74,
                    "time": 52.22731625000015,
                    "velocity": 0.7874015748031497,
                    "duration": 0.136363750000001
                },
                {
                    "name": "G#4",
                    "midi": 68,
                    "time": 52.36368000000015,
                    "velocity": 0.7874015748031497,
                    "duration": 0.136363750000001
                },
                {
                    "name": "B4",
                    "midi": 71,
                    "time": 52.50004375000015,
                    "velocity": 0.7874015748031497,
                    "duration": 0.136363750000001
                },
                {
                    "name": "C5",
                    "midi": 72,
                    "time": 52.63640750000015,
                    "velocity": 0.7874015748031497,
                    "duration": 0.136363750000001
                },
                {
                    "name": "A4",
                    "midi": 69,
                    "time": 52.772771250000154,
                    "velocity": 0.7874015748031497,
                    "duration": 0.136363750000001
                },
                {
                    "name": "E4",
                    "midi": 64,
                    "time": 52.909135000000155,
                    "velocity": 0.7874015748031497,
                    "duration": 0.136363750000001
                },
                {
                    "name": "A4",
                    "midi": 69,
                    "time": 53.04549875000016,
                    "velocity": 0.7874015748031497,
                    "duration": 0.136363750000001
                },
                {
                    "name": "B4",
                    "midi": 71,
                    "time": 53.18186250000016,
                    "velocity": 0.7874015748031497,
                    "duration": 0.136363750000001
                },
                {
                    "name": "G#4",
                    "midi": 68,
                    "time": 53.31822625000016,
                    "velocity": 0.7874015748031497,
                    "duration": 0.136363750000001
                },
                {
                    "name": "A4",
                    "midi": 69,
                    "time": 53.45459000000016,
                    "velocity": 0.7874015748031497,
                    "duration": 0.136363750000001
                },
                {
                    "name": "E4",
                    "midi": 64,
                    "time": 53.59095375000016,
                    "velocity": 0.7874015748031497,
                    "duration": 0.136363750000001
                },
                {
                    "name": "C4",
                    "midi": 60,
                    "time": 53.72731750000016,
                    "velocity": 0.7874015748031497,
                    "duration": 0.136363750000001
                },
                {
                    "name": "E4",
                    "midi": 64,
                    "time": 53.86368125000016,
                    "velocity": 0.7874015748031497,
                    "duration": 0.136363750000001
                },
                {
                    "name": "A3",
                    "midi": 57,
                    "time": 54.00004500000016,
                    "velocity": 0.7874015748031497,
                    "duration": 0.5454549999999969
                }
            ],
            "controlChanges": {
                "7": [
                    {
                        "number": 7,
                        "time": 0,
                        "value": 0.7874015748031497
                    }
                ],
                "10": [
                    {
                        "number": 10,
                        "time": 0,
                        "value": 0.7559055118110236
                    }
                ]
            },
            "id": 1,
            "name": "Solo Keyboard",
            "instrumentNumber": 6,
            "instrument": "harpsichord",
            "instrumentFamily": "piano",
            "channelNumber": 0,
            "isPercussion": false
        },
        {
            "startTime": 0,
            "duration": 54.54550000000017,
            "length": 263,
            "notes": [
                {
                    "name": "A2",
                    "midi": 45,
                    "time": 0,
                    "velocity": 0.7874015748031497,
                    "duration": 0.2727275
                },
                {
                    "name": "A3",
                    "midi": 57,
                    "time": 0.2727275,
                    "velocity": 0.7874015748031497,
                    "duration": 0.545455
                },
                {
                    "name": "G#3",
                    "midi": 56,
                    "time": 0.8181825,
                    "velocity": 0.7874015748031497,
                    "duration": 0.2727275
                },
                {
                    "name": "A3",
                    "midi": 57,
                    "time": 1.09091,
                    "velocity": 0.7874015748031497,
                    "duration": 0.13636375000000012
                },
                {
                    "name": "E3",
                    "midi": 52,
                    "time": 1.2272737500000002,
                    "velocity": 0.7874015748031497,
                    "duration": 0.13636375000000012
                },
                {
                    "name": "A3",
                    "midi": 57,
                    "time": 1.3636375000000003,
                    "velocity": 0.7874015748031497,
                    "duration": 0.13636375000000012
                },
                {
                    "name": "C4",
                    "midi": 60,
                    "time": 1.5000012500000004,
                    "velocity": 0.7874015748031497,
                    "duration": 0.13636375000000012
                },
                {
                    "name": "B3",
                    "midi": 59,
                    "time": 1.6363650000000005,
                    "velocity": 0.7874015748031497,
                    "duration": 0.13636375000000012
                },
                {
                    "name": "E3",
                    "midi": 52,
                    "time": 1.7727287500000006,
                    "velocity": 0.7874015748031497,
                    "duration": 0.13636375000000012
                },
                {
                    "name": "B3",
                    "midi": 59,
                    "time": 1.9090925000000007,
                    "velocity": 0.7874015748031497,
                    "duration": 0.13636375000000012
                },
                {
                    "name": "D4",
                    "midi": 62,
                    "time": 2.045456250000001,
                    "velocity": 0.7874015748031497,
                    "duration": 0.13636375000000012
                },
                {
                    "name": "C4",
                    "midi": 60,
                    "time": 2.181820000000001,
                    "velocity": 0.7874015748031497,
                    "duration": 0.27272750000000023
                },
                {
                    "name": "A3",
                    "midi": 57,
                    "time": 2.454547500000001,
                    "velocity": 0.7874015748031497,
                    "duration": 0.27272750000000023
                },
                {
                    "name": "G#3",
                    "midi": 56,
                    "time": 2.7272750000000014,
                    "velocity": 0.7874015748031497,
                    "duration": 0.27272750000000023
                },
                {
                    "name": "E3",
                    "midi": 52,
                    "time": 3.0000025000000017,
                    "velocity": 0.7874015748031497,
                    "duration": 0.27272750000000023
                },
                {
                    "name": "A3",
                    "midi": 57,
                    "time": 3.272730000000002,
                    "velocity": 0.7874015748031497,
                    "duration": 0.13636375000000012
                },
                {
                    "name": "E3",
                    "midi": 52,
                    "time": 3.409093750000002,
                    "velocity": 0.7874015748031497,
                    "duration": 0.13636375000000012
                },
                {
                    "name": "A3",
                    "midi": 57,
                    "time": 3.545457500000002,
                    "velocity": 0.7874015748031497,
                    "duration": 0.13636375000000012
                },
                {
                    "name": "C4",
                    "midi": 60,
                    "time": 3.6818212500000023,
                    "velocity": 0.7874015748031497,
                    "duration": 0.13636375000000012
                },
                {
                    "name": "B3",
                    "midi": 59,
                    "time": 3.8181850000000024,
                    "velocity": 0.7874015748031497,
                    "duration": 0.13636375000000012
                },
                {
                    "name": "E3",
                    "midi": 52,
                    "time": 3.9545487500000025,
                    "velocity": 0.7874015748031497,
                    "duration": 0.13636375000000012
                },
                {
                    "name": "B3",
                    "midi": 59,
                    "time": 4.090912500000003,
                    "velocity": 0.7874015748031497,
                    "duration": 0.13636375000000012
                },
                {
                    "name": "D4",
                    "midi": 62,
                    "time": 4.227276250000003,
                    "velocity": 0.7874015748031497,
                    "duration": 0.13636375000000012
                },
                {
                    "name": "C4",
                    "midi": 60,
                    "time": 4.363640000000003,
                    "velocity": 0.7874015748031497,
                    "duration": 0.27272750000000023
                },
                {
                    "name": "A3",
                    "midi": 57,
                    "time": 4.636367500000003,
                    "velocity": 0.7874015748031497,
                    "duration": 0.27272750000000023
                },
                {
                    "name": "C4",
                    "midi": 60,
                    "time": 4.909095000000003,
                    "velocity": 0.7874015748031497,
                    "duration": 0.27272750000000023
                },
                {
                    "name": "A3",
                    "midi": 57,
                    "time": 5.1818225000000036,
                    "velocity": 0.7874015748031497,
                    "duration": 0.27272750000000023
                },
                {
                    "name": "D4",
                    "midi": 62,
                    "time": 5.454550000000004,
                    "velocity": 0.7874015748031497,
                    "duration": 0.13636375000000012
                },
                {
                    "name": "A3",
                    "midi": 57,
                    "time": 5.590913750000004,
                    "velocity": 0.7874015748031497,
                    "duration": 0.13636375000000012
                },
                {
                    "name": "F3",
                    "midi": 53,
                    "time": 5.727277500000004,
                    "velocity": 0.7874015748031497,
                    "duration": 0.13636375000000012
                },
                {
                    "name": "A3",
                    "midi": 57,
                    "time": 5.863641250000004,
                    "velocity": 0.7874015748031497,
                    "duration": 0.13636375000000012
                },
                {
                    "name": "D3",
                    "midi": 50,
                    "time": 6.000005000000004,
                    "velocity": 0.7874015748031497,
                    "duration": 0.13636375000000012
                },
                {
                    "name": "F3",
                    "midi": 53,
                    "time": 6.136368750000004,
                    "velocity": 0.7874015748031497,
                    "duration": 0.13636375000000012
                },
                {
                    "name": "A2",
                    "midi": 45,
                    "time": 6.2727325000000045,
                    "velocity": 0.7874015748031497,
                    "duration": 0.13636375000000012
                },
                {
                    "name": "C3",
                    "midi": 48,
                    "time": 6.409096250000005,
                    "velocity": 0.7874015748031497,
                    "duration": 0.13636375000000012
                },
                {
                    "name": "B2",
                    "midi": 47,
                    "time": 6.545460000000005,
                    "velocity": 0.7874015748031497,
                    "duration": 0.27272750000000023
                },
                {
                    "name": "D3",
                    "midi": 50,
                    "time": 6.818187500000005,
                    "velocity": 0.7874015748031497,
                    "duration": 0.27272750000000023
                },
                {
                    "name": "G3",
                    "midi": 55,
                    "time": 7.090915000000005,
                    "velocity": 0.7874015748031497,
                    "duration": 0.27272750000000023
                },
                {
                    "name": "B3",
                    "midi": 59,
                    "time": 7.363642500000005,
                    "velocity": 0.7874015748031497,
                    "duration": 0.40909125000000035
                },
                {
                    "name": "G3",
                    "midi": 55,
                    "time": 7.772733750000006,
                    "velocity": 0.7874015748031497,
                    "duration": 0.13636375000000012
                },
                {
                    "name": "E3",
                    "midi": 52,
                    "time": 7.909097500000006,
                    "velocity": 0.7874015748031497,
                    "duration": 0.13636375000000012
                },
                {
                    "name": "G3",
                    "midi": 55,
                    "time": 8.045461250000006,
                    "velocity": 0.7874015748031497,
                    "duration": 0.13636374999999923
                },
                {
                    "name": "C3",
                    "midi": 48,
                    "time": 8.181825000000005,
                    "velocity": 0.7874015748031497,
                    "duration": 0.13636374999999923
                },
                {
                    "name": "E3",
                    "midi": 52,
                    "time": 8.318188750000004,
                    "velocity": 0.7874015748031497,
                    "duration": 0.13636374999999923
                },
                {
                    "name": "G2",
                    "midi": 43,
                    "time": 8.454552500000004,
                    "velocity": 0.7874015748031497,
                    "duration": 0.13636374999999923
                },
                {
                    "name": "B2",
                    "midi": 47,
                    "time": 8.590916250000003,
                    "velocity": 0.7874015748031497,
                    "duration": 0.13636374999999923
                },
                {
                    "name": "A2",
                    "midi": 45,
                    "time": 8.727280000000002,
                    "velocity": 0.7874015748031497,
                    "duration": 0.27272750000000023
                },
                {
                    "name": "C3",
                    "midi": 48,
                    "time": 9.000007500000002,
                    "velocity": 0.7874015748031497,
                    "duration": 0.27272750000000023
                },
                {
                    "name": "D3",
                    "midi": 50,
                    "time": 9.272735000000003,
                    "velocity": 0.7874015748031497,
                    "duration": 0.13636374999999923
                },
                {
                    "name": "F3",
                    "midi": 53,
                    "time": 9.409098750000002,
                    "velocity": 0.7874015748031497,
                    "duration": 0.13636374999999923
                },
                {
                    "name": "B2",
                    "midi": 47,
                    "time": 9.545462500000001,
                    "velocity": 0.7874015748031497,
                    "duration": 0.13636374999999923
                },
                {
                    "name": "D3",
                    "midi": 50,
                    "time": 9.68182625,
                    "velocity": 0.7874015748031497,
                    "duration": 0.13636374999999923
                },
                {
                    "name": "G2",
                    "midi": 43,
                    "time": 9.81819,
                    "velocity": 0.7874015748031497,
                    "duration": 0.27272750000000023
                },
                {
                    "name": "B2",
                    "midi": 47,
                    "time": 10.0909175,
                    "velocity": 0.7874015748031497,
                    "duration": 0.27272750000000023
                },
                {
                    "name": "C3",
                    "midi": 48,
                    "time": 10.363645,
                    "velocity": 0.7874015748031497,
                    "duration": 0.13636374999999923
                },
                {
                    "name": "E3",
                    "midi": 52,
                    "time": 10.50000875,
                    "velocity": 0.7874015748031497,
                    "duration": 0.13636374999999923
                },
                {
                    "name": "A2",
                    "midi": 45,
                    "time": 10.636372499999998,
                    "velocity": 0.7874015748031497,
                    "duration": 0.13636374999999923
                },
                {
                    "name": "C3",
                    "midi": 48,
                    "time": 10.772736249999998,
                    "velocity": 0.7874015748031497,
                    "duration": 0.13636374999999923
                },
                {
                    "name": "F2",
                    "midi": 41,
                    "time": 10.909099999999997,
                    "velocity": 0.7874015748031497,
                    "duration": 0.27272750000000023
                },
                {
                    "name": "D2",
                    "midi": 38,
                    "time": 11.181827499999997,
                    "velocity": 0.7874015748031497,
                    "duration": 0.27272750000000023
                },
                {
                    "name": "G2",
                    "midi": 43,
                    "time": 11.454554999999997,
                    "velocity": 0.7874015748031497,
                    "duration": 0.11363645833333358
                },
                {
                    "name": "G3",
                    "midi": 55,
                    "time": 11.590918749999998,
                    "velocity": 0.7874015748031497,
                    "duration": 0.13636374999999923
                },
                {
                    "name": "F3",
                    "midi": 53,
                    "time": 11.727282499999998,
                    "velocity": 0.7874015748031497,
                    "duration": 0.13636374999999923
                },
                {
                    "name": "G3",
                    "midi": 55,
                    "time": 11.863646249999997,
                    "velocity": 0.7874015748031497,
                    "duration": 0.13636374999999923
                },
                {
                    "name": "C3",
                    "midi": 48,
                    "time": 12.000009999999996,
                    "velocity": 0.7874015748031497,
                    "duration": 0.11363645833333358
                },
                {
                    "name": "G3",
                    "midi": 55,
                    "time": 12.136373749999997,
                    "velocity": 0.7874015748031497,
                    "duration": 0.13636374999999923
                },
                {
                    "name": "C4",
                    "midi": 60,
                    "time": 12.272737499999996,
                    "velocity": 0.7874015748031497,
                    "duration": 0.13636374999999923
                },
                {
                    "name": "E4",
                    "midi": 64,
                    "time": 12.409101249999996,
                    "velocity": 0.7874015748031497,
                    "duration": 0.13636374999999923
                },
                {
                    "name": "D4",
                    "midi": 62,
                    "time": 12.545464999999995,
                    "velocity": 0.7874015748031497,
                    "duration": 0.13636374999999923
                },
                {
                    "name": "G3",
                    "midi": 55,
                    "time": 12.681828749999994,
                    "velocity": 0.7874015748031497,
                    "duration": 0.13636374999999923
                },
                {
                    "name": "D4",
                    "midi": 62,
                    "time": 12.818192499999993,
                    "velocity": 0.7874015748031497,
                    "duration": 0.13636374999999923
                },
                {
                    "name": "F4",
                    "midi": 65,
                    "time": 12.954556249999992,
                    "velocity": 0.7874015748031497,
                    "duration": 0.13636374999999923
                },
                {
                    "name": "E4",
                    "midi": 64,
                    "time": 13.090919999999992,
                    "velocity": 0.7874015748031497,
                    "duration": 0.27272750000000023
                },
                {
                    "name": "C4",
                    "midi": 60,
                    "time": 13.363647499999992,
                    "velocity": 0.7874015748031497,
                    "duration": 0.27272750000000023
                },
                {
                    "name": "B3",
                    "midi": 59,
                    "time": 13.636374999999992,
                    "velocity": 0.7874015748031497,
                    "duration": 0.27272750000000023
                },
                {
                    "name": "G3",
                    "midi": 55,
                    "time": 13.909102499999992,
                    "velocity": 0.7874015748031497,
                    "duration": 0.27272750000000023
                },
                {
                    "name": "C4",
                    "midi": 60,
                    "time": 14.181829999999993,
                    "velocity": 0.7874015748031497,
                    "duration": 0.13636374999999923
                },
                {
                    "name": "G3",
                    "midi": 55,
                    "time": 14.318193749999992,
                    "velocity": 0.7874015748031497,
                    "duration": 0.13636374999999923
                },
                {
                    "name": "C4",
                    "midi": 60,
                    "time": 14.454557499999991,
                    "velocity": 0.7874015748031497,
                    "duration": 0.13636374999999923
                },
                {
                    "name": "E4",
                    "midi": 64,
                    "time": 14.59092124999999,
                    "velocity": 0.7874015748031497,
                    "duration": 0.13636374999999923
                },
                {
                    "name": "D4",
                    "midi": 62,
                    "time": 14.72728499999999,
                    "velocity": 0.7874015748031497,
                    "duration": 0.13636374999999923
                },
                {
                    "name": "G3",
                    "midi": 55,
                    "time": 14.863648749999989,
                    "velocity": 0.7874015748031497,
                    "duration": 0.13636374999999923
                },
                {
                    "name": "D4",
                    "midi": 62,
                    "time": 15.000012499999988,
                    "velocity": 0.7874015748031497,
                    "duration": 0.13636374999999923
                },
                {
                    "name": "F4",
                    "midi": 65,
                    "time": 15.136376249999987,
                    "velocity": 0.7874015748031497,
                    "duration": 0.13636374999999923
                },
                {
                    "name": "E4",
                    "midi": 64,
                    "time": 15.272739999999986,
                    "velocity": 0.7874015748031497,
                    "duration": 0.27272750000000023
                },
                {
                    "name": "C4",
                    "midi": 60,
                    "time": 15.545467499999987,
                    "velocity": 0.7874015748031497,
                    "duration": 0.27272750000000023
                },
                {
                    "name": "G4",
                    "midi": 67,
                    "time": 16.500013749999987,
                    "velocity": 0.7874015748031497,
                    "duration": 0.136363750000001
                },
                {
                    "name": "E4",
                    "midi": 64,
                    "time": 16.636377499999988,
                    "velocity": 0.7874015748031497,
                    "duration": 0.136363750000001
                },
                {
                    "name": "G4",
                    "midi": 67,
                    "time": 16.77274124999999,
                    "velocity": 0.7874015748031497,
                    "duration": 0.136363750000001
                },
                {
                    "name": "C4",
                    "midi": 60,
                    "time": 16.90910499999999,
                    "velocity": 0.7874015748031497,
                    "duration": 0.136363750000001
                },
                {
                    "name": "E4",
                    "midi": 64,
                    "time": 17.04546874999999,
                    "velocity": 0.7874015748031497,
                    "duration": 0.136363750000001
                },
                {
                    "name": "G3",
                    "midi": 55,
                    "time": 17.18183249999999,
                    "velocity": 0.7874015748031497,
                    "duration": 0.136363750000001
                },
                {
                    "name": "B3",
                    "midi": 59,
                    "time": 17.318196249999993,
                    "velocity": 0.7874015748031497,
                    "duration": 0.136363750000001
                },
                {
                    "name": "A3",
                    "midi": 57,
                    "time": 17.454559999999994,
                    "velocity": 0.7874015748031497,
                    "duration": 0.27272749999999846
                },
                {
                    "name": "C4",
                    "midi": 60,
                    "time": 17.727287499999992,
                    "velocity": 0.7874015748031497,
                    "duration": 0.27272749999999846
                },
                {
                    "name": "E4",
                    "midi": 64,
                    "time": 18.00001499999999,
                    "velocity": 0.7874015748031497,
                    "duration": 0.27272749999999846
                },
                {
                    "name": "G4",
                    "midi": 67,
                    "time": 18.27274249999999,
                    "velocity": 0.7874015748031497,
                    "duration": 0.27272749999999846
                },
                {
                    "name": "F#4",
                    "midi": 66,
                    "time": 18.545469999999987,
                    "velocity": 0.7874015748031497,
                    "duration": 0.136363750000001
                },
                {
                    "name": "A4",
                    "midi": 69,
                    "time": 18.68183374999999,
                    "velocity": 0.7874015748031497,
                    "duration": 0.136363750000001
                },
                {
                    "name": "D4",
                    "midi": 62,
                    "time": 18.81819749999999,
                    "velocity": 0.7874015748031497,
                    "duration": 0.136363750000001
                },
                {
                    "name": "F#4",
                    "midi": 66,
                    "time": 18.95456124999999,
                    "velocity": 0.7874015748031497,
                    "duration": 0.136363750000001
                },
                {
                    "name": "A3",
                    "midi": 57,
                    "time": 19.09092499999999,
                    "velocity": 0.7874015748031497,
                    "duration": 0.136363750000001
                },
                {
                    "name": "D4",
                    "midi": 62,
                    "time": 19.227288749999992,
                    "velocity": 0.7874015748031497,
                    "duration": 0.136363750000001
                },
                {
                    "name": "F#3",
                    "midi": 54,
                    "time": 19.363652499999993,
                    "velocity": 0.7874015748031497,
                    "duration": 0.136363750000001
                },
                {
                    "name": "A3",
                    "midi": 57,
                    "time": 19.500016249999994,
                    "velocity": 0.7874015748031497,
                    "duration": 0.136363750000001
                },
                {
                    "name": "G3",
                    "midi": 55,
                    "time": 19.636379999999996,
                    "velocity": 0.7874015748031497,
                    "duration": 0.27272749999999846
                },
                {
                    "name": "B3",
                    "midi": 59,
                    "time": 19.909107499999994,
                    "velocity": 0.7874015748031497,
                    "duration": 0.27272749999999846
                },
                {
                    "name": "D4",
                    "midi": 62,
                    "time": 20.181834999999992,
                    "velocity": 0.7874015748031497,
                    "duration": 0.27272749999999846
                },
                {
                    "name": "F#4",
                    "midi": 66,
                    "time": 20.45456249999999,
                    "velocity": 0.7874015748031497,
                    "duration": 0.27272749999999846
                },
                {
                    "name": "E4",
                    "midi": 64,
                    "time": 20.72728999999999,
                    "velocity": 0.7874015748031497,
                    "duration": 0.136363750000001
                },
                {
                    "name": "G4",
                    "midi": 67,
                    "time": 20.86365374999999,
                    "velocity": 0.7874015748031497,
                    "duration": 0.136363750000001
                },
                {
                    "name": "C4",
                    "midi": 60,
                    "time": 21.00001749999999,
                    "velocity": 0.7874015748031497,
                    "duration": 0.136363750000001
                },
                {
                    "name": "E4",
                    "midi": 64,
                    "time": 21.136381249999992,
                    "velocity": 0.7874015748031497,
                    "duration": 0.136363750000001
                },
                {
                    "name": "G3",
                    "midi": 55,
                    "time": 21.272744999999993,
                    "velocity": 0.7874015748031497,
                    "duration": 0.136363750000001
                },
                {
                    "name": "C4",
                    "midi": 60,
                    "time": 21.409108749999994,
                    "velocity": 0.7874015748031497,
                    "duration": 0.136363750000001
                },
                {
                    "name": "E3",
                    "midi": 52,
                    "time": 21.545472499999995,
                    "velocity": 0.7874015748031497,
                    "duration": 0.136363750000001
                },
                {
                    "name": "G3",
                    "midi": 55,
                    "time": 21.681836249999996,
                    "velocity": 0.7874015748031497,
                    "duration": 0.136363750000001
                },
                {
                    "name": "F#3",
                    "midi": 54,
                    "time": 21.818199999999997,
                    "velocity": 0.7874015748031497,
                    "duration": 0.27272749999999846
                },
                {
                    "name": "A3",
                    "midi": 57,
                    "time": 22.090927499999996,
                    "velocity": 0.7874015748031497,
                    "duration": 0.27272749999999846
                },
                {
                    "name": "B3",
                    "midi": 59,
                    "time": 22.363654999999994,
                    "velocity": 0.7874015748031497,
                    "duration": 0.27272749999999846
                },
                {
                    "name": "D#4",
                    "midi": 63,
                    "time": 22.636382499999993,
                    "velocity": 0.7874015748031497,
                    "duration": 0.27272749999999846
                },
                {
                    "name": "E4",
                    "midi": 64,
                    "time": 23.045473749999992,
                    "velocity": 0.7874015748031497,
                    "duration": 0.136363750000001
                },
                {
                    "name": "C4",
                    "midi": 60,
                    "time": 23.181837499999993,
                    "velocity": 0.7874015748031497,
                    "duration": 0.136363750000001
                },
                {
                    "name": "E4",
                    "midi": 64,
                    "time": 23.318201249999994,
                    "velocity": 0.7874015748031497,
                    "duration": 0.136363750000001
                },
                {
                    "name": "A3",
                    "midi": 57,
                    "time": 23.454564999999995,
                    "velocity": 0.7874015748031497,
                    "duration": 0.136363750000001
                },
                {
                    "name": "C4",
                    "midi": 60,
                    "time": 23.590928749999996,
                    "velocity": 0.7874015748031497,
                    "duration": 0.136363750000001
                },
                {
                    "name": "E4",
                    "midi": 64,
                    "time": 23.727292499999997,
                    "velocity": 0.7874015748031497,
                    "duration": 0.136363750000001
                },
                {
                    "name": "G4",
                    "midi": 67,
                    "time": 23.86365625,
                    "velocity": 0.7874015748031497,
                    "duration": 0.136363750000001
                },
                {
                    "name": "F#4",
                    "midi": 66,
                    "time": 24.00002,
                    "velocity": 0.7874015748031497,
                    "duration": 0.136363750000001
                },
                {
                    "name": "D4",
                    "midi": 62,
                    "time": 24.13638375,
                    "velocity": 0.7874015748031497,
                    "duration": 0.136363750000001
                },
                {
                    "name": "B3",
                    "midi": 59,
                    "time": 24.2727475,
                    "velocity": 0.7874015748031497,
                    "duration": 0.136363750000001
                },
                {
                    "name": "D4",
                    "midi": 62,
                    "time": 24.409111250000002,
                    "velocity": 0.7874015748031497,
                    "duration": 0.136363750000001
                },
                {
                    "name": "G3",
                    "midi": 55,
                    "time": 24.545475000000003,
                    "velocity": 0.7874015748031497,
                    "duration": 0.136363750000001
                },
                {
                    "name": "B3",
                    "midi": 59,
                    "time": 24.681838750000004,
                    "velocity": 0.7874015748031497,
                    "duration": 0.136363750000001
                },
                {
                    "name": "D4",
                    "midi": 62,
                    "time": 24.818202500000005,
                    "velocity": 0.7874015748031497,
                    "duration": 0.136363750000001
                },
                {
                    "name": "F#4",
                    "midi": 66,
                    "time": 24.954566250000006,
                    "velocity": 0.7874015748031497,
                    "duration": 0.136363750000001
                },
                {
                    "name": "E4",
                    "midi": 64,
                    "time": 25.090930000000007,
                    "velocity": 0.7874015748031497,
                    "duration": 0.136363750000001
                },
                {
                    "name": "C4",
                    "midi": 60,
                    "time": 25.22729375000001,
                    "velocity": 0.7874015748031497,
                    "duration": 0.136363750000001
                },
                {
                    "name": "A3",
                    "midi": 57,
                    "time": 25.36365750000001,
                    "velocity": 0.7874015748031497,
                    "duration": 0.136363750000001
                },
                {
                    "name": "C4",
                    "midi": 60,
                    "time": 25.50002125000001,
                    "velocity": 0.7874015748031497,
                    "duration": 0.136363750000001
                },
                {
                    "name": "F#3",
                    "midi": 54,
                    "time": 25.63638500000001,
                    "velocity": 0.7874015748031497,
                    "duration": 0.136363750000001
                },
                {
                    "name": "A3",
                    "midi": 57,
                    "time": 25.772748750000012,
                    "velocity": 0.7874015748031497,
                    "duration": 0.136363750000001
                },
                {
                    "name": "C4",
                    "midi": 60,
                    "time": 25.909112500000013,
                    "velocity": 0.7874015748031497,
                    "duration": 0.40909124999999946
                },
                {
                    "name": "B3",
                    "midi": 59,
                    "time": 26.318203750000013,
                    "velocity": 0.7874015748031497,
                    "duration": 0.136363750000001
                },
                {
                    "name": "C4",
                    "midi": 60,
                    "time": 26.454567500000014,
                    "velocity": 0.7874015748031497,
                    "duration": 0.136363750000001
                },
                {
                    "name": "A3",
                    "midi": 57,
                    "time": 26.590931250000015,
                    "velocity": 0.7874015748031497,
                    "duration": 0.136363750000001
                },
                {
                    "name": "B3",
                    "midi": 59,
                    "time": 26.727295000000016,
                    "velocity": 0.7874015748031497,
                    "duration": 0.27272749999999846
                },
                {
                    "name": "B2",
                    "midi": 47,
                    "time": 27.000022500000014,
                    "velocity": 0.7874015748031497,
                    "duration": 0.27272749999999846
                },
                {
                    "name": "E3",
                    "midi": 52,
                    "time": 27.272750000000013,
                    "velocity": 0.7874015748031497,
                    "duration": 0.136363750000001
                },
                {
                    "name": "E4",
                    "midi": 64,
                    "time": 27.409113750000014,
                    "velocity": 0.7874015748031497,
                    "duration": 0.136363750000001
                },
                {
                    "name": "B3",
                    "midi": 59,
                    "time": 27.545477500000015,
                    "velocity": 0.7874015748031497,
                    "duration": 0.136363750000001
                },
                {
                    "name": "G3",
                    "midi": 55,
                    "time": 27.681841250000016,
                    "velocity": 0.7874015748031497,
                    "duration": 0.136363750000001
                },
                {
                    "name": "E3",
                    "midi": 52,
                    "time": 27.818205000000017,
                    "velocity": 0.7874015748031497,
                    "duration": 0.136363750000001
                },
                {
                    "name": "B2",
                    "midi": 47,
                    "time": 27.954568750000018,
                    "velocity": 0.7874015748031497,
                    "duration": 0.136363750000001
                },
                {
                    "name": "G2",
                    "midi": 43,
                    "time": 28.09093250000002,
                    "velocity": 0.7874015748031497,
                    "duration": 0.136363750000001
                },
                {
                    "name": "B2",
                    "midi": 47,
                    "time": 28.22729625000002,
                    "velocity": 0.7874015748031497,
                    "duration": 0.136363750000001
                },
                {
                    "name": "E2",
                    "midi": 40,
                    "time": 28.36366000000002,
                    "velocity": 0.7874015748031497,
                    "duration": 0.27272749999999846
                },
                {
                    "name": "E3",
                    "midi": 52,
                    "time": 28.63638750000002,
                    "velocity": 0.7874015748031497,
                    "duration": 0.27272749999999846
                },
                {
                    "name": "G3",
                    "midi": 55,
                    "time": 28.909115000000018,
                    "velocity": 0.7874015748031497,
                    "duration": 0.27272749999999846
                },
                {
                    "name": "A#3",
                    "midi": 58,
                    "time": 29.181842500000016,
                    "velocity": 0.7874015748031497,
                    "duration": 0.27272749999999846
                },
                {
                    "name": "C#3",
                    "midi": 49,
                    "time": 29.454570000000015,
                    "velocity": 0.7874015748031497,
                    "duration": 0.27272749999999846
                },
                {
                    "name": "G4",
                    "midi": 67,
                    "time": 30.136388750000012,
                    "velocity": 0.7874015748031497,
                    "duration": 0.136363750000001
                },
                {
                    "name": "F4",
                    "midi": 65,
                    "time": 30.272752500000013,
                    "velocity": 0.7874015748031497,
                    "duration": 0.136363750000001
                },
                {
                    "name": "E4",
                    "midi": 64,
                    "time": 30.409116250000015,
                    "velocity": 0.7874015748031497,
                    "duration": 0.136363750000001
                },
                {
                    "name": "D4",
                    "midi": 62,
                    "time": 30.545480000000016,
                    "velocity": 0.7874015748031497,
                    "duration": 0.27272749999999846
                },
                {
                    "name": "D3",
                    "midi": 50,
                    "time": 30.818207500000014,
                    "velocity": 0.7874015748031497,
                    "duration": 0.27272749999999846
                },
                {
                    "name": "F3",
                    "midi": 53,
                    "time": 31.090935000000012,
                    "velocity": 0.7874015748031497,
                    "duration": 0.27272749999999846
                },
                {
                    "name": "G#3",
                    "midi": 56,
                    "time": 31.36366250000001,
                    "velocity": 0.7874015748031497,
                    "duration": 0.27272749999999846
                },
                {
                    "name": "B2",
                    "midi": 47,
                    "time": 31.63639000000001,
                    "velocity": 0.7874015748031497,
                    "duration": 0.27272749999999846
                },
                {
                    "name": "F4",
                    "midi": 65,
                    "time": 32.31820875000001,
                    "velocity": 0.7874015748031497,
                    "duration": 0.136363750000001
                },
                {
                    "name": "E4",
                    "midi": 64,
                    "time": 32.45457250000001,
                    "velocity": 0.7874015748031497,
                    "duration": 0.136363750000001
                },
                {
                    "name": "D4",
                    "midi": 62,
                    "time": 32.59093625000001,
                    "velocity": 0.7874015748031497,
                    "duration": 0.136363750000001
                },
                {
                    "name": "C4",
                    "midi": 60,
                    "time": 32.727300000000014,
                    "velocity": 0.7874015748031497,
                    "duration": 0.272727500000002
                },
                {
                    "name": "C3",
                    "midi": 48,
                    "time": 33.000027500000016,
                    "velocity": 0.7874015748031497,
                    "duration": 0.272727500000002
                },
                {
                    "name": "E3",
                    "midi": 52,
                    "time": 33.27275500000002,
                    "velocity": 0.7874015748031497,
                    "duration": 0.272727500000002
                },
                {
                    "name": "F#3",
                    "midi": 54,
                    "time": 33.54548250000002,
                    "velocity": 0.7874015748031497,
                    "duration": 0.272727500000002
                },
                {
                    "name": "A2",
                    "midi": 45,
                    "time": 33.81821000000002,
                    "velocity": 0.7874015748031497,
                    "duration": 0.272727500000002
                },
                {
                    "name": "E4",
                    "midi": 64,
                    "time": 34.50002875000003,
                    "velocity": 0.7874015748031497,
                    "duration": 0.136363750000001
                },
                {
                    "name": "D#4",
                    "midi": 63,
                    "time": 34.63639250000003,
                    "velocity": 0.7874015748031497,
                    "duration": 0.136363750000001
                },
                {
                    "name": "C#4",
                    "midi": 61,
                    "time": 34.77275625000003,
                    "velocity": 0.7874015748031497,
                    "duration": 0.136363750000001
                },
                {
                    "name": "B3",
                    "midi": 59,
                    "time": 34.90912000000003,
                    "velocity": 0.7874015748031497,
                    "duration": 0.272727500000002
                },
                {
                    "name": "B2",
                    "midi": 47,
                    "time": 35.18184750000003,
                    "velocity": 0.7874015748031497,
                    "duration": 0.272727500000002
                },
                {
                    "name": "D3",
                    "midi": 50,
                    "time": 35.454575000000034,
                    "velocity": 0.7874015748031497,
                    "duration": 0.272727500000002
                },
                {
                    "name": "F3",
                    "midi": 53,
                    "time": 35.727302500000036,
                    "velocity": 0.7874015748031497,
                    "duration": 0.272727500000002
                },
                {
                    "name": "G#2",
                    "midi": 44,
                    "time": 36.00003000000004,
                    "velocity": 0.7874015748031497,
                    "duration": 0.272727500000002
                },
                {
                    "name": "D4",
                    "midi": 62,
                    "time": 36.68184875000004,
                    "velocity": 0.7874015748031497,
                    "duration": 0.136363750000001
                },
                {
                    "name": "C4",
                    "midi": 60,
                    "time": 36.818212500000044,
                    "velocity": 0.7874015748031497,
                    "duration": 0.136363750000001
                },
                {
                    "name": "B3",
                    "midi": 59,
                    "time": 36.954576250000045,
                    "velocity": 0.7874015748031497,
                    "duration": 0.136363750000001
                },
                {
                    "name": "C4",
                    "midi": 60,
                    "time": 37.090940000000046,
                    "velocity": 0.7874015748031497,
                    "duration": 0.272727500000002
                },
                {
                    "name": "A3",
                    "midi": 57,
                    "time": 37.36366750000005,
                    "velocity": 0.7874015748031497,
                    "duration": 0.272727500000002
                },
                {
                    "name": "G#3",
                    "midi": 56,
                    "time": 37.63639500000005,
                    "velocity": 0.7874015748031497,
                    "duration": 0.272727500000002
                },
                {
                    "name": "E3",
                    "midi": 52,
                    "time": 37.90912250000005,
                    "velocity": 0.7874015748031497,
                    "duration": 0.272727500000002
                },
                {
                    "name": "A3",
                    "midi": 57,
                    "time": 38.181850000000054,
                    "velocity": 0.7874015748031497,
                    "duration": 0.136363750000001
                },
                {
                    "name": "E3",
                    "midi": 52,
                    "time": 38.318213750000055,
                    "velocity": 0.7874015748031497,
                    "duration": 0.136363750000001
                },
                {
                    "name": "A3",
                    "midi": 57,
                    "time": 38.454577500000056,
                    "velocity": 0.7874015748031497,
                    "duration": 0.136363750000001
                },
                {
                    "name": "C4",
                    "midi": 60,
                    "time": 38.59094125000006,
                    "velocity": 0.7874015748031497,
                    "duration": 0.136363750000001
                },
                {
                    "name": "B3",
                    "midi": 59,
                    "time": 38.72730500000006,
                    "velocity": 0.7874015748031497,
                    "duration": 0.136363750000001
                },
                {
                    "name": "E3",
                    "midi": 52,
                    "time": 38.86366875000006,
                    "velocity": 0.7874015748031497,
                    "duration": 0.136363750000001
                },
                {
                    "name": "B3",
                    "midi": 59,
                    "time": 39.00003250000006,
                    "velocity": 0.7874015748031497,
                    "duration": 0.136363750000001
                },
                {
                    "name": "D4",
                    "midi": 62,
                    "time": 39.13639625000006,
                    "velocity": 0.7874015748031497,
                    "duration": 0.136363750000001
                },
                {
                    "name": "C4",
                    "midi": 60,
                    "time": 39.27276000000006,
                    "velocity": 0.7874015748031497,
                    "duration": 0.136363750000001
                },
                {
                    "name": "E4",
                    "midi": 64,
                    "time": 39.40912375000006,
                    "velocity": 0.7874015748031497,
                    "duration": 0.136363750000001
                },
                {
                    "name": "A4",
                    "midi": 69,
                    "time": 39.545487500000064,
                    "velocity": 0.7874015748031497,
                    "duration": 0.136363750000001
                },
                {
                    "name": "E4",
                    "midi": 64,
                    "time": 39.681851250000065,
                    "velocity": 0.7874015748031497,
                    "duration": 0.136363750000001
                },
                {
                    "name": "C4",
                    "midi": 60,
                    "time": 39.818215000000066,
                    "velocity": 0.7874015748031497,
                    "duration": 0.136363750000001
                },
                {
                    "name": "E4",
                    "midi": 64,
                    "time": 39.95457875000007,
                    "velocity": 0.7874015748031497,
                    "duration": 0.136363750000001
                },
                {
                    "name": "A3",
                    "midi": 57,
                    "time": 40.09094250000007,
                    "velocity": 0.7874015748031497,
                    "duration": 0.136363750000001
                },
                {
                    "name": "C4",
                    "midi": 60,
                    "time": 40.22730625000007,
                    "velocity": 0.7874015748031497,
                    "duration": 0.136363750000001
                },
                {
                    "name": "F#3",
                    "midi": 54,
                    "time": 40.36367000000007,
                    "velocity": 0.7874015748031497,
                    "duration": 0.136363750000001
                },
                {
                    "name": "A3",
                    "midi": 57,
                    "time": 40.50003375000007,
                    "velocity": 0.7874015748031497,
                    "duration": 0.136363750000001
                },
                {
                    "name": "C4",
                    "midi": 60,
                    "time": 40.63639750000007,
                    "velocity": 0.7874015748031497,
                    "duration": 0.136363750000001
                },
                {
                    "name": "A3",
                    "midi": 57,
                    "time": 40.77276125000007,
                    "velocity": 0.7874015748031497,
                    "duration": 0.136363750000001
                },
                {
                    "name": "F#3",
                    "midi": 54,
                    "time": 40.909125000000074,
                    "velocity": 0.7874015748031497,
                    "duration": 0.136363750000001
                },
                {
                    "name": "A3",
                    "midi": 57,
                    "time": 41.045488750000075,
                    "velocity": 0.7874015748031497,
                    "duration": 0.136363750000001
                },
                {
                    "name": "D#3",
                    "midi": 51,
                    "time": 41.181852500000076,
                    "velocity": 0.7874015748031497,
                    "duration": 0.136363750000001
                },
                {
                    "name": "F#3",
                    "midi": 54,
                    "time": 41.31821625000008,
                    "velocity": 0.7874015748031497,
                    "duration": 0.136363750000001
                },
                {
                    "name": "E3",
                    "midi": 52,
                    "time": 41.45458000000008,
                    "velocity": 0.7874015748031497,
                    "duration": 0.272727500000002
                },
                {
                    "name": "G#3",
                    "midi": 56,
                    "time": 41.72730750000008,
                    "velocity": 0.7874015748031497,
                    "duration": 0.272727500000002
                },
                {
                    "name": "B3",
                    "midi": 59,
                    "time": 42.00003500000008,
                    "velocity": 0.7874015748031497,
                    "duration": 0.272727500000002
                },
                {
                    "name": "G#3",
                    "midi": 56,
                    "time": 42.272762500000084,
                    "velocity": 0.7874015748031497,
                    "duration": 0.272727500000002
                },
                {
                    "name": "E3",
                    "midi": 52,
                    "time": 42.545490000000086,
                    "velocity": 0.7874015748031497,
                    "duration": 0.272727500000002
                },
                {
                    "name": "B2",
                    "midi": 47,
                    "time": 42.81821750000009,
                    "velocity": 0.7874015748031497,
                    "duration": 0.272727500000002
                },
                {
                    "name": "G#2",
                    "midi": 44,
                    "time": 43.09094500000009,
                    "velocity": 0.7874015748031497,
                    "duration": 0.272727500000002
                },
                {
                    "name": "E2",
                    "midi": 40,
                    "time": 43.36367250000009,
                    "velocity": 0.7874015748031497,
                    "duration": 0.272727500000002
                },
                {
                    "name": "A2",
                    "midi": 45,
                    "time": 43.636400000000094,
                    "velocity": 0.7874015748031497,
                    "duration": 0.272727500000002
                },
                {
                    "name": "C3",
                    "midi": 48,
                    "time": 43.909127500000096,
                    "velocity": 0.7874015748031497,
                    "duration": 0.272727500000002
                },
                {
                    "name": "E3",
                    "midi": 52,
                    "time": 44.1818550000001,
                    "velocity": 0.7874015748031497,
                    "duration": 0.272727500000002
                },
                {
                    "name": "C3",
                    "midi": 48,
                    "time": 44.4545825000001,
                    "velocity": 0.7874015748031497,
                    "duration": 0.272727500000002
                },
                {
                    "name": "A2",
                    "midi": 45,
                    "time": 44.7273100000001,
                    "velocity": 0.7874015748031497,
                    "duration": 0.272727500000002
                },
                {
                    "name": "C3",
                    "midi": 48,
                    "time": 45.000037500000104,
                    "velocity": 0.7874015748031497,
                    "duration": 0.272727500000002
                },
                {
                    "name": "D#2",
                    "midi": 39,
                    "time": 45.272765000000106,
                    "velocity": 0.7874015748031497,
                    "duration": 0.272727500000002
                },
                {
                    "name": "B3",
                    "midi": 59,
                    "time": 45.95458375000011,
                    "velocity": 0.7874015748031497,
                    "duration": 0.136363750000001
                },
                {
                    "name": "G#3",
                    "midi": 56,
                    "time": 46.09094750000011,
                    "velocity": 0.7874015748031497,
                    "duration": 0.136363750000001
                },
                {
                    "name": "E3",
                    "midi": 52,
                    "time": 46.22731125000011,
                    "velocity": 0.7874015748031497,
                    "duration": 0.136363750000001
                },
                {
                    "name": "D3",
                    "midi": 50,
                    "time": 46.363675000000114,
                    "velocity": 0.7874015748031497,
                    "duration": 0.136363750000001
                },
                {
                    "name": "B3",
                    "midi": 59,
                    "time": 46.500038750000115,
                    "velocity": 0.7874015748031497,
                    "duration": 0.136363750000001
                },
                {
                    "name": "G#3",
                    "midi": 56,
                    "time": 46.636402500000116,
                    "velocity": 0.7874015748031497,
                    "duration": 0.136363750000001
                },
                {
                    "name": "D3",
                    "midi": 50,
                    "time": 46.77276625000012,
                    "velocity": 0.7874015748031497,
                    "duration": 0.136363750000001
                },
                {
                    "name": "C3",
                    "midi": 48,
                    "time": 46.90913000000012,
                    "velocity": 0.7874015748031497,
                    "duration": 0.272727500000002
                },
                {
                    "name": "E3",
                    "midi": 52,
                    "time": 47.18185750000012,
                    "velocity": 0.7874015748031497,
                    "duration": 0.272727500000002
                },
                {
                    "name": "G#2",
                    "midi": 44,
                    "time": 47.45458500000012,
                    "velocity": 0.7874015748031497,
                    "duration": 0.272727500000002
                },
                {
                    "name": "E3",
                    "midi": 52,
                    "time": 47.727312500000124,
                    "velocity": 0.7874015748031497,
                    "duration": 0.272727500000002
                },
                {
                    "name": "A2",
                    "midi": 45,
                    "time": 48.000040000000126,
                    "velocity": 0.7874015748031497,
                    "duration": 0.272727500000002
                },
                {
                    "name": "F#3",
                    "midi": 54,
                    "time": 48.27276750000013,
                    "velocity": 0.7874015748031497,
                    "duration": 0.272727500000002
                },
                {
                    "name": "B2",
                    "midi": 47,
                    "time": 48.54549500000013,
                    "velocity": 0.7874015748031497,
                    "duration": 0.272727500000002
                },
                {
                    "name": "G#3",
                    "midi": 56,
                    "time": 48.81822250000013,
                    "velocity": 0.7874015748031497,
                    "duration": 0.272727500000002
                },
                {
                    "name": "C3",
                    "midi": 48,
                    "time": 49.090950000000134,
                    "velocity": 0.7874015748031497,
                    "duration": 0.272727500000002
                },
                {
                    "name": "A3",
                    "midi": 57,
                    "time": 49.363677500000136,
                    "velocity": 0.7874015748031497,
                    "duration": 0.272727500000002
                },
                {
                    "name": "D3",
                    "midi": 50,
                    "time": 49.63640500000014,
                    "velocity": 0.7874015748031497,
                    "duration": 0.272727500000002
                },
                {
                    "name": "A#3",
                    "midi": 58,
                    "time": 49.90913250000014,
                    "velocity": 0.7874015748031497,
                    "duration": 0.272727500000002
                },
                {
                    "name": "G#3",
                    "midi": 56,
                    "time": 50.18186000000014,
                    "velocity": 0.7874015748031497,
                    "duration": 0.272727500000002
                },
                {
                    "name": "F3",
                    "midi": 53,
                    "time": 50.454587500000144,
                    "velocity": 0.7874015748031497,
                    "duration": 0.272727500000002
                },
                {
                    "name": "D3",
                    "midi": 50,
                    "time": 50.72731500000015,
                    "velocity": 0.7874015748031497,
                    "duration": 0.272727500000002
                },
                {
                    "name": "B2",
                    "midi": 47,
                    "time": 51.00004250000015,
                    "velocity": 0.7874015748031497,
                    "duration": 0.272727500000002
                },
                {
                    "name": "G#2",
                    "midi": 44,
                    "time": 51.27277000000015,
                    "velocity": 0.7874015748031497,
                    "duration": 0.272727500000002
                },
                {
                    "name": "A2",
                    "midi": 45,
                    "time": 51.54549750000015,
                    "velocity": 0.7874015748031497,
                    "duration": 0.272727500000002
                },
                {
                    "name": "D2",
                    "midi": 38,
                    "time": 51.818225000000155,
                    "velocity": 0.7874015748031497,
                    "duration": 0.272727500000002
                },
                {
                    "name": "E2",
                    "midi": 40,
                    "time": 52.09095250000016,
                    "velocity": 0.7874015748031497,
                    "duration": 0.272727500000002
                },
                {
                    "name": "F2",
                    "midi": 41,
                    "time": 52.36368000000016,
                    "velocity": 0.7874015748031497,
                    "duration": 0.272727500000002
                },
                {
                    "name": "D#2",
                    "midi": 39,
                    "time": 52.63640750000016,
                    "velocity": 0.7874015748031497,
                    "duration": 0.272727500000002
                },
                {
                    "name": "E2",
                    "midi": 40,
                    "time": 52.90913500000016,
                    "velocity": 0.7874015748031497,
                    "duration": 0.272727500000002
                },
                {
                    "name": "E3",
                    "midi": 52,
                    "time": 53.181862500000165,
                    "velocity": 0.7874015748031497,
                    "duration": 0.272727500000002
                },
                {
                    "name": "A2",
                    "midi": 45,
                    "time": 53.45459000000017,
                    "velocity": 0.7874015748031497,
                    "duration": 1.090910000000001
                }
            ],
            "controlChanges": {
                "7": [
                    {
                        "number": 7,
                        "time": 0,
                        "value": 0.7874015748031497
                    }
                ],
                "10": [
                    {
                        "number": 10,
                        "time": 0,
                        "value": 0.25196850393700787
                    }
                ]
            },
            "id": 2,
            "name": "--------------------------------------",
            "instrumentNumber": 6,
            "instrument": "harpsichord",
            "instrumentFamily": "piano",
            "channelNumber": 1,
            "isPercussion": false
        },
        {
            "startTime": 0,
            "duration": 0,
            "length": 0,
            "notes": [],
            "controlChanges": {},
            "id": 3,
            "name": "Johann Sebastian Bach  (1685-1750)"
        },
        {
            "startTime": 0,
            "duration": 0,
            "length": 0,
            "notes": [],
            "controlChanges": {},
            "id": 4,
            "name": "Inventions and Sinfonias ( 2 and 3-Part Inventions )"
        },
        {
            "startTime": 0,
            "duration": 0,
            "length": 0,
            "notes": [],
            "controlChanges": {},
            "id": 5,
            "name": "--------------------------------------"
        },
        {
            "startTime": 0,
            "duration": 0,
            "length": 0,
            "notes": [],
            "controlChanges": {},
            "id": 6,
            "name": "Invention No. 13 in A minor - BWV 784"
        },
        {
            "startTime": 0,
            "duration": 0,
            "length": 0,
            "notes": [],
            "controlChanges": {},
            "id": 7,
            "name": "--------------------------------------"
        },
        {
            "startTime": 0,
            "duration": 0,
            "length": 0,
            "notes": [],
            "controlChanges": {},
            "id": 8,
            "name": "Original sequence by an unknown author"
        },
        {
            "startTime": 0,
            "duration": 0,
            "length": 0,
            "notes": [],
            "controlChanges": {},
            "id": 9,
            "name": "Modified with Cakewalk Pro Audio by"
        },
        {
            "startTime": 0,
            "duration": 0,
            "length": 0,
            "notes": [],
            "controlChanges": {},
            "id": 10,
            "name": "David J. Grossman - dave@unpronounceable.com"
        },
        {
            "startTime": 0,
            "duration": 0,
            "length": 0,
            "notes": [],
            "controlChanges": {},
            "id": 11,
            "name": "This and other Bach MIDI files can be found at:"
        },
        {
            "startTime": 0,
            "duration": 0,
            "length": 0,
            "notes": [],
            "controlChanges": {},
            "id": 12,
            "name": "Dave's J.S. Bach Page"
        },
        {
            "startTime": 0,
            "duration": 0,
            "length": 0,
            "notes": [],
            "controlChanges": {},
            "id": 13,
            "name": "http://www.unpronounceable.com/bach"
        },
        {
            "startTime": 0,
            "duration": 0,
            "length": 0,
            "notes": [],
            "controlChanges": {},
            "id": 14,
            "name": "--------------------------------------"
        },
        {
            "startTime": 0,
            "duration": 0,
            "length": 0,
            "notes": [],
            "controlChanges": {},
            "id": 15,
            "name": "Original Filename: bwv784.mid"
        },
        {
            "startTime": 0,
            "duration": 0,
            "length": 0,
            "notes": [],
            "controlChanges": {},
            "id": 16,
            "name": "Last Modified: March 18, 1997"
        }
    ]
}