{
    "header": {
        "PPQ": 480,
        "timeSignature": [
            4,
            4
        ],
        "bpm": 80,
        "name": "untitled"
    },
    "startTime": 0,
    "duration": 66,
    "tracks": [
        {
            "startTime": 0,
            "duration": 0,
            "length": 0,
            "notes": [],
            "controlChanges": {},
            "id": 0,
            "name": "untitled"
        },
        {
            "startTime": 0.1875,
            "duration": 66,
            "length": 301,
            "notes": [
                {
                    "name": "C4",
                    "midi": 60,
                    "time": 0.1875,
                    "velocity": 0.7874015748031497,
                    "duration": 0.1875
                },
                {
                    "name": "D4",
                    "midi": 62,
                    "time": 0.375,
                    "velocity": 0.7874015748031497,
                    "duration": 0.1875
                },
                {
                    "name": "E4",
                    "midi": 64,
                    "time": 0.5625,
                    "velocity": 0.7874015748031497,
                    "duration": 0.1875
                },
                {
                    "name": "F4",
                    "midi": 65,
                    "time": 0.75,
                    "velocity": 0.7874015748031497,
                    "duration": 0.125
                },
                {
                    "name": "E4",
                    "midi": 64,
                    "time": 0.875,
                    "velocity": 0.7874015748031497,
                    "duration": 0.125
                },
                {
                    "name": "D4",
                    "midi": 62,
                    "time": 1,
                    "velocity": 0.7874015748031497,
                    "duration": 0.125
                },
                {
                    "name": "E4",
                    "midi": 64,
                    "time": 1.125,
                    "velocity": 0.7874015748031497,
                    "duration": 0.125
                },
                {
                    "name": "D4",
                    "midi": 62,
                    "time": 1.25,
                    "velocity": 0.7874015748031497,
                    "duration": 0.125
                },
                {
                    "name": "C4",
                    "midi": 60,
                    "time": 1.375,
                    "velocity": 0.7874015748031497,
                    "duration": 0.125
                },
                {
                    "name": "G4",
                    "midi": 67,
                    "time": 1.5,
                    "velocity": 0.7874015748031497,
                    "duration": 0.375
                },
                {
                    "name": "C5",
                    "midi": 72,
                    "time": 1.875,
                    "velocity": 0.7874015748031497,
                    "duration": 0.375
                },
                {
                    "name": "C5",
                    "midi": 72,
                    "time": 2.25,
                    "velocity": 0.7874015748031497,
                    "duration": 0.0625
                },
                {
                    "name": "B4",
                    "midi": 71,
                    "time": 2.3125,
                    "velocity": 0.7874015748031497,
                    "duration": 0.0625
                },
                {
                    "name": "C5",
                    "midi": 72,
                    "time": 2.375,
                    "velocity": 0.7874015748031497,
                    "duration": 0.0625
                },
                {
                    "name": "B4",
                    "midi": 71,
                    "time": 2.4375,
                    "velocity": 0.7874015748031497,
                    "duration": 0.1875
                },
                {
                    "name": "C5",
                    "midi": 72,
                    "time": 2.625,
                    "velocity": 0.7874015748031497,
                    "duration": 0.375
                },
                {
                    "name": "D5",
                    "midi": 74,
                    "time": 3,
                    "velocity": 0.7874015748031497,
                    "duration": 0.1875
                },
                {
                    "name": "G4",
                    "midi": 67,
                    "time": 3.1875,
                    "velocity": 0.7874015748031497,
                    "duration": 0.1875
                },
                {
                    "name": "A4",
                    "midi": 69,
                    "time": 3.375,
                    "velocity": 0.7874015748031497,
                    "duration": 0.1875
                },
                {
                    "name": "B4",
                    "midi": 71,
                    "time": 3.5625,
                    "velocity": 0.7874015748031497,
                    "duration": 0.1875
                },
                {
                    "name": "C5",
                    "midi": 72,
                    "time": 3.75,
                    "velocity": 0.7874015748031497,
                    "duration": 0.125
                },
                {
                    "name": "B4",
                    "midi": 71,
                    "time": 3.875,
                    "velocity": 0.7874015748031497,
                    "duration": 0.125
                },
                {
                    "name": "A4",
                    "midi": 69,
                    "time": 4,
                    "velocity": 0.7874015748031497,
                    "duration": 0.125
                },
                {
                    "name": "B4",
                    "midi": 71,
                    "time": 4.125,
                    "velocity": 0.7874015748031497,
                    "duration": 0.125
                },
                {
                    "name": "A4",
                    "midi": 69,
                    "time": 4.25,
                    "velocity": 0.7874015748031497,
                    "duration": 0.125
                },
                {
                    "name": "G4",
                    "midi": 67,
                    "time": 4.375,
                    "velocity": 0.7874015748031497,
                    "duration": 0.125
                },
                {
                    "name": "D5",
                    "midi": 74,
                    "time": 4.5,
                    "velocity": 0.7874015748031497,
                    "duration": 0.375
                },
                {
                    "name": "G5",
                    "midi": 79,
                    "time": 4.875,
                    "velocity": 0.7874015748031497,
                    "duration": 0.375
                },
                {
                    "name": "G5",
                    "midi": 79,
                    "time": 5.25,
                    "velocity": 0.7874015748031497,
                    "duration": 0.0625
                },
                {
                    "name": "F5",
                    "midi": 77,
                    "time": 5.3125,
                    "velocity": 0.7874015748031497,
                    "duration": 0.0625
                },
                {
                    "name": "G5",
                    "midi": 79,
                    "time": 5.375,
                    "velocity": 0.7874015748031497,
                    "duration": 0.0625
                },
                {
                    "name": "F5",
                    "midi": 77,
                    "time": 5.4375,
                    "velocity": 0.7874015748031497,
                    "duration": 0.1875
                },
                {
                    "name": "G5",
                    "midi": 79,
                    "time": 5.625,
                    "velocity": 0.7874015748031497,
                    "duration": 0.375
                },
                {
                    "name": "E5",
                    "midi": 76,
                    "time": 6,
                    "velocity": 0.7874015748031497,
                    "duration": 0.1875
                },
                {
                    "name": "A5",
                    "midi": 81,
                    "time": 6.1875,
                    "velocity": 0.7874015748031497,
                    "duration": 0.1875
                },
                {
                    "name": "G5",
                    "midi": 79,
                    "time": 6.375,
                    "velocity": 0.7874015748031497,
                    "duration": 0.1875
                },
                {
                    "name": "F5",
                    "midi": 77,
                    "time": 6.5625,
                    "velocity": 0.7874015748031497,
                    "duration": 0.1875
                },
                {
                    "name": "E5",
                    "midi": 76,
                    "time": 6.75,
                    "velocity": 0.7874015748031497,
                    "duration": 0.125
                },
                {
                    "name": "F5",
                    "midi": 77,
                    "time": 6.875,
                    "velocity": 0.7874015748031497,
                    "duration": 0.125
                },
                {
                    "name": "G5",
                    "midi": 79,
                    "time": 7,
                    "velocity": 0.7874015748031497,
                    "duration": 0.125
                },
                {
                    "name": "F5",
                    "midi": 77,
                    "time": 7.125,
                    "velocity": 0.7874015748031497,
                    "duration": 0.125
                },
                {
                    "name": "G5",
                    "midi": 79,
                    "time": 7.25,
                    "velocity": 0.7874015748031497,
                    "duration": 0.125
                },
                {
                    "name": "A5",
                    "midi": 81,
                    "time": 7.375,
                    "velocity": 0.7874015748031497,
                    "duration": 0.125
                },
                {
                    "name": "G5",
                    "midi": 79,
                    "time": 7.5,
                    "velocity": 0.7874015748031497,
                    "duration": 0.1875
                },
                {
                    "name": "F5",
                    "midi": 77,
                    "time": 7.6875,
                    "velocity": 0.7874015748031497,
                    "duration": 0.1875
                },
                {
                    "name": "E5",
                    "midi": 76,
                    "time": 7.875,
                    "velocity": 0.7874015748031497,
                    "duration": 0.1875
                },
                {
                    "name": "D5",
                    "midi": 74,
                    "time": 8.0625,
                    "velocity": 0.7874015748031497,
                    "duration": 0.1875
                },
                {
                    "name": "C5",
                    "midi": 72,
                    "time": 8.25,
                    "velocity": 0.7874015748031497,
                    "duration": 0.125
                },
                {
                    "name": "D5",
                    "midi": 74,
                    "time": 8.375,
                    "velocity": 0.7874015748031497,
                    "duration": 0.125
                },
                {
                    "name": "E5",
                    "midi": 76,
                    "time": 8.5,
                    "velocity": 0.7874015748031497,
                    "duration": 0.125
                },
                {
                    "name": "D5",
                    "midi": 74,
                    "time": 8.625,
                    "velocity": 0.7874015748031497,
                    "duration": 0.125
                },
                {
                    "name": "E5",
                    "midi": 76,
                    "time": 8.75,
                    "velocity": 0.7874015748031497,
                    "duration": 0.125
                },
                {
                    "name": "F5",
                    "midi": 77,
                    "time": 8.875,
                    "velocity": 0.7874015748031497,
                    "duration": 0.125
                },
                {
                    "name": "E5",
                    "midi": 76,
                    "time": 9,
                    "velocity": 0.7874015748031497,
                    "duration": 0.1875
                },
                {
                    "name": "D5",
                    "midi": 74,
                    "time": 9.1875,
                    "velocity": 0.7874015748031497,
                    "duration": 0.1875
                },
                {
                    "name": "C5",
                    "midi": 72,
                    "time": 9.375,
                    "velocity": 0.7874015748031497,
                    "duration": 0.1875
                },
                {
                    "name": "B4",
                    "midi": 71,
                    "time": 9.5625,
                    "velocity": 0.7874015748031497,
                    "duration": 0.1875
                },
                {
                    "name": "A4",
                    "midi": 69,
                    "time": 9.75,
                    "velocity": 0.7874015748031497,
                    "duration": 0.125
                },
                {
                    "name": "B4",
                    "midi": 71,
                    "time": 9.875,
                    "velocity": 0.7874015748031497,
                    "duration": 0.125
                },
                {
                    "name": "C5",
                    "midi": 72,
                    "time": 10,
                    "velocity": 0.7874015748031497,
                    "duration": 0.125
                },
                {
                    "name": "B4",
                    "midi": 71,
                    "time": 10.125,
                    "velocity": 0.7874015748031497,
                    "duration": 0.125
                },
                {
                    "name": "C5",
                    "midi": 72,
                    "time": 10.25,
                    "velocity": 0.7874015748031497,
                    "duration": 0.125
                },
                {
                    "name": "D5",
                    "midi": 74,
                    "time": 10.375,
                    "velocity": 0.7874015748031497,
                    "duration": 0.125
                },
                {
                    "name": "C5",
                    "midi": 72,
                    "time": 10.5,
                    "velocity": 0.7874015748031497,
                    "duration": 0.1875
                },
                {
                    "name": "B4",
                    "midi": 71,
                    "time": 10.6875,
                    "velocity": 0.7874015748031497,
                    "duration": 0.1875
                },
                {
                    "name": "A4",
                    "midi": 69,
                    "time": 10.875,
                    "velocity": 0.7874015748031497,
                    "duration": 0.1875
                },
                {
                    "name": "G4",
                    "midi": 67,
                    "time": 11.0625,
                    "velocity": 0.7874015748031497,
                    "duration": 0.1875
                },
                {
                    "name": "F#4",
                    "midi": 66,
                    "time": 11.25,
                    "velocity": 0.7874015748031497,
                    "duration": 0.125
                },
                {
                    "name": "G4",
                    "midi": 67,
                    "time": 11.375,
                    "velocity": 0.7874015748031497,
                    "duration": 0.125
                },
                {
                    "name": "A4",
                    "midi": 69,
                    "time": 11.5,
                    "velocity": 0.7874015748031497,
                    "duration": 0.125
                },
                {
                    "name": "G4",
                    "midi": 67,
                    "time": 11.625,
                    "velocity": 0.7874015748031497,
                    "duration": 0.125
                },
                {
                    "name": "A4",
                    "midi": 69,
                    "time": 11.75,
                    "velocity": 0.7874015748031497,
                    "duration": 0.125
                },
                {
                    "name": "B4",
                    "midi": 71,
                    "time": 11.875,
                    "velocity": 0.7874015748031497,
                    "duration": 0.125
                },
                {
                    "name": "A4",
                    "midi": 69,
                    "time": 12,
                    "velocity": 0.7874015748031497,
                    "duration": 0.375
                },
                {
                    "name": "D4",
                    "midi": 62,
                    "time": 12.375,
                    "velocity": 0.7874015748031497,
                    "duration": 0.375
                },
                {
                    "name": "C5",
                    "midi": 72,
                    "time": 12.75,
                    "velocity": 0.7874015748031497,
                    "duration": 0.09375
                },
                {
                    "name": "B4",
                    "midi": 71,
                    "time": 12.84375,
                    "velocity": 0.7874015748031497,
                    "duration": 0.09375
                },
                {
                    "name": "C5",
                    "midi": 72,
                    "time": 12.9375,
                    "velocity": 0.7874015748031497,
                    "duration": 0.375
                },
                {
                    "name": "D5",
                    "midi": 74,
                    "time": 13.3125,
                    "velocity": 0.7874015748031497,
                    "duration": 0.1875
                },
                {
                    "name": "B4",
                    "midi": 71,
                    "time": 13.5,
                    "velocity": 0.7874015748031497,
                    "duration": 0.1875
                },
                {
                    "name": "A4",
                    "midi": 69,
                    "time": 13.6875,
                    "velocity": 0.7874015748031497,
                    "duration": 0.1875
                },
                {
                    "name": "G4",
                    "midi": 67,
                    "time": 13.875,
                    "velocity": 0.7874015748031497,
                    "duration": 0.1875
                },
                {
                    "name": "F#4",
                    "midi": 66,
                    "time": 14.0625,
                    "velocity": 0.7874015748031497,
                    "duration": 0.1875
                },
                {
                    "name": "E4",
                    "midi": 64,
                    "time": 14.25,
                    "velocity": 0.7874015748031497,
                    "duration": 0.125
                },
                {
                    "name": "F#4",
                    "midi": 66,
                    "time": 14.375,
                    "velocity": 0.7874015748031497,
                    "duration": 0.125
                },
                {
                    "name": "G4",
                    "midi": 67,
                    "time": 14.5,
                    "velocity": 0.7874015748031497,
                    "duration": 0.125
                },
                {
                    "name": "F#4",
                    "midi": 66,
                    "time": 14.625,
                    "velocity": 0.7874015748031497,
                    "duration": 0.125
                },
                {
                    "name": "G4",
                    "midi": 67,
                    "time": 14.75,
                    "velocity": 0.7874015748031497,
                    "duration": 0.125
                },
                {
                    "name": "A4",
                    "midi": 69,
                    "time": 14.875,
                    "velocity": 0.7874015748031497,
                    "duration": 0.125
                },
                {
                    "name": "G4",
                    "midi": 67,
                    "time": 15,
                    "velocity": 0.7874015748031497,
                    "duration": 0.125
                },
                {
                    "name": "A4",
                    "midi": 69,
                    "time": 15.125,
                    "velocity": 0.7874015748031497,
                    "duration": 0.125
                },
                {
                    "name": "B4",
                    "midi": 71,
                    "time": 15.25,
                    "velocity": 0.7874015748031497,
                    "duration": 0.125
                },
                {
                    "name": "A4",
                    "midi": 69,
                    "time": 15.375,
                    "velocity": 0.7874015748031497,
                    "duration": 0.125
                },
                {
                    "name": "B4",
                    "midi": 71,
                    "time": 15.5,
                    "velocity": 0.7874015748031497,
                    "duration": 0.125
                },
                {
                    "name": "C5",
                    "midi": 72,
                    "time": 15.625,
                    "velocity": 0.7874015748031497,
                    "duration": 0.125
                },
                {
                    "name": "B4",
                    "midi": 71,
                    "time": 15.75,
                    "velocity": 0.7874015748031497,
                    "duration": 0.125
                },
                {
                    "name": "C5",
                    "midi": 72,
                    "time": 15.875,
                    "velocity": 0.7874015748031497,
                    "duration": 0.125
                },
                {
                    "name": "D5",
                    "midi": 74,
                    "time": 16,
                    "velocity": 0.7874015748031497,
                    "duration": 0.125
                },
                {
                    "name": "C5",
                    "midi": 72,
                    "time": 16.125,
                    "velocity": 0.7874015748031497,
                    "duration": 0.125
                },
                {
                    "name": "D5",
                    "midi": 74,
                    "time": 16.25,
                    "velocity": 0.7874015748031497,
                    "duration": 0.125
                },
                {
                    "name": "E5",
                    "midi": 76,
                    "time": 16.375,
                    "velocity": 0.7874015748031497,
                    "duration": 0.125
                },
                {
                    "name": "D5",
                    "midi": 74,
                    "time": 16.5,
                    "velocity": 0.7874015748031497,
                    "duration": 0.1875
                },
                {
                    "name": "B4",
                    "midi": 71,
                    "time": 16.6875,
                    "velocity": 0.7874015748031497,
                    "duration": 0.09375
                },
                {
                    "name": "C5",
                    "midi": 72,
                    "time": 16.78125,
                    "velocity": 0.7874015748031497,
                    "duration": 0.09375
                },
                {
                    "name": "D5",
                    "midi": 74,
                    "time": 16.875,
                    "velocity": 0.7874015748031497,
                    "duration": 0.1875
                },
                {
                    "name": "G5",
                    "midi": 79,
                    "time": 17.0625,
                    "velocity": 0.7874015748031497,
                    "duration": 0.1875
                },
                {
                    "name": "C5",
                    "midi": 72,
                    "time": 17.25,
                    "velocity": 0.7874015748031497,
                    "duration": 0.0625
                },
                {
                    "name": "B4",
                    "midi": 71,
                    "time": 17.3125,
                    "velocity": 0.7874015748031497,
                    "duration": 0.0625
                },
                {
                    "name": "C5",
                    "midi": 72,
                    "time": 17.375,
                    "velocity": 0.7874015748031497,
                    "duration": 0.0625
                },
                {
                    "name": "B4",
                    "midi": 71,
                    "time": 17.4375,
                    "velocity": 0.7874015748031497,
                    "duration": 0.1875
                },
                {
                    "name": "A4",
                    "midi": 69,
                    "time": 17.625,
                    "velocity": 0.7874015748031497,
                    "duration": 0.1875
                },
                {
                    "name": "G4",
                    "midi": 67,
                    "time": 17.8125,
                    "velocity": 0.7874015748031497,
                    "duration": 0.1875
                },
                {
                    "name": "G4",
                    "midi": 67,
                    "time": 18,
                    "velocity": 0.7874015748031497,
                    "duration": 0.375
                },
                {
                    "name": "G4",
                    "midi": 67,
                    "time": 19.6875,
                    "velocity": 0.7874015748031497,
                    "duration": 0.1875
                },
                {
                    "name": "A4",
                    "midi": 69,
                    "time": 19.875,
                    "velocity": 0.7874015748031497,
                    "duration": 0.1875
                },
                {
                    "name": "B4",
                    "midi": 71,
                    "time": 20.0625,
                    "velocity": 0.7874015748031497,
                    "duration": 0.1875
                },
                {
                    "name": "C5",
                    "midi": 72,
                    "time": 20.25,
                    "velocity": 0.7874015748031497,
                    "duration": 0.125
                },
                {
                    "name": "B4",
                    "midi": 71,
                    "time": 20.375,
                    "velocity": 0.7874015748031497,
                    "duration": 0.125
                },
                {
                    "name": "A4",
                    "midi": 69,
                    "time": 20.5,
                    "velocity": 0.7874015748031497,
                    "duration": 0.125
                },
                {
                    "name": "B4",
                    "midi": 71,
                    "time": 20.625,
                    "velocity": 0.7874015748031497,
                    "duration": 0.125
                },
                {
                    "name": "A4",
                    "midi": 69,
                    "time": 20.75,
                    "velocity": 0.7874015748031497,
                    "duration": 0.125
                },
                {
                    "name": "G4",
                    "midi": 67,
                    "time": 20.875,
                    "velocity": 0.7874015748031497,
                    "duration": 0.125
                },
                {
                    "name": "G4",
                    "midi": 67,
                    "time": 21,
                    "velocity": 0.7874015748031497,
                    "duration": 0.0625
                },
                {
                    "name": "F#4",
                    "midi": 66,
                    "time": 21.0625,
                    "velocity": 0.7874015748031497,
                    "duration": 0.0625
                },
                {
                    "name": "G4",
                    "midi": 67,
                    "time": 21.125,
                    "velocity": 0.7874015748031497,
                    "duration": 0.0625
                },
                {
                    "name": "F#4",
                    "midi": 66,
                    "time": 21.1875,
                    "velocity": 0.7874015748031497,
                    "duration": 0.1875
                },
                {
                    "name": "A4",
                    "midi": 69,
                    "time": 22.6875,
                    "velocity": 0.7874015748031497,
                    "duration": 0.1875
                },
                {
                    "name": "B4",
                    "midi": 71,
                    "time": 22.875,
                    "velocity": 0.7874015748031497,
                    "duration": 0.1875
                },
                {
                    "name": "C5",
                    "midi": 72,
                    "time": 23.0625,
                    "velocity": 0.7874015748031497,
                    "duration": 0.1875
                },
                {
                    "name": "D5",
                    "midi": 74,
                    "time": 23.25,
                    "velocity": 0.7874015748031497,
                    "duration": 0.125
                },
                {
                    "name": "C5",
                    "midi": 72,
                    "time": 23.375,
                    "velocity": 0.7874015748031497,
                    "duration": 0.125
                },
                {
                    "name": "B4",
                    "midi": 71,
                    "time": 23.5,
                    "velocity": 0.7874015748031497,
                    "duration": 0.125
                },
                {
                    "name": "C5",
                    "midi": 72,
                    "time": 23.625,
                    "velocity": 0.7874015748031497,
                    "duration": 0.125
                },
                {
                    "name": "B4",
                    "midi": 71,
                    "time": 23.75,
                    "velocity": 0.7874015748031497,
                    "duration": 0.125
                },
                {
                    "name": "A4",
                    "midi": 69,
                    "time": 23.875,
                    "velocity": 0.7874015748031497,
                    "duration": 0.125
                },
                {
                    "name": "B4",
                    "midi": 71,
                    "time": 24,
                    "velocity": 0.7874015748031497,
                    "duration": 0.375
                },
                {
                    "name": "D5",
                    "midi": 74,
                    "time": 25.6875,
                    "velocity": 0.7874015748031497,
                    "duration": 0.1875
                },
                {
                    "name": "C5",
                    "midi": 72,
                    "time": 25.875,
                    "velocity": 0.7874015748031497,
                    "duration": 0.1875
                },
                {
                    "name": "B4",
                    "midi": 71,
                    "time": 26.0625,
                    "velocity": 0.7874015748031497,
                    "duration": 0.1875
                },
                {
                    "name": "A4",
                    "midi": 69,
                    "time": 26.25,
                    "velocity": 0.7874015748031497,
                    "duration": 0.125
                },
                {
                    "name": "B4",
                    "midi": 71,
                    "time": 26.375,
                    "velocity": 0.7874015748031497,
                    "duration": 0.125
                },
                {
                    "name": "C5",
                    "midi": 72,
                    "time": 26.5,
                    "velocity": 0.7874015748031497,
                    "duration": 0.125
                },
                {
                    "name": "B4",
                    "midi": 71,
                    "time": 26.625,
                    "velocity": 0.7874015748031497,
                    "duration": 0.125
                },
                {
                    "name": "C5",
                    "midi": 72,
                    "time": 26.75,
                    "velocity": 0.7874015748031497,
                    "duration": 0.125
                },
                {
                    "name": "D5",
                    "midi": 74,
                    "time": 26.875,
                    "velocity": 0.7874015748031497,
                    "duration": 0.125
                },
                {
                    "name": "C5",
                    "midi": 72,
                    "time": 27,
                    "velocity": 0.7874015748031497,
                    "duration": 0.375
                },
                {
                    "name": "E5",
                    "midi": 76,
                    "time": 28.6875,
                    "velocity": 0.7874015748031497,
                    "duration": 0.1875
                },
                {
                    "name": "D5",
                    "midi": 74,
                    "time": 28.875,
                    "velocity": 0.7874015748031497,
                    "duration": 0.1875
                },
                {
                    "name": "C5",
                    "midi": 72,
                    "time": 29.0625,
                    "velocity": 0.7874015748031497,
                    "duration": 0.1875
                },
                {
                    "name": "B4",
                    "midi": 71,
                    "time": 29.25,
                    "velocity": 0.7874015748031497,
                    "duration": 0.125
                },
                {
                    "name": "C5",
                    "midi": 72,
                    "time": 29.375,
                    "velocity": 0.7874015748031497,
                    "duration": 0.125
                },
                {
                    "name": "D5",
                    "midi": 74,
                    "time": 29.5,
                    "velocity": 0.7874015748031497,
                    "duration": 0.125
                },
                {
                    "name": "C#5",
                    "midi": 73,
                    "time": 29.625,
                    "velocity": 0.7874015748031497,
                    "duration": 0.125
                },
                {
                    "name": "D5",
                    "midi": 74,
                    "time": 29.75,
                    "velocity": 0.7874015748031497,
                    "duration": 0.125
                },
                {
                    "name": "E5",
                    "midi": 76,
                    "time": 29.875,
                    "velocity": 0.7874015748031497,
                    "duration": 0.125
                },
                {
                    "name": "D5",
                    "midi": 74,
                    "time": 30,
                    "velocity": 0.7874015748031497,
                    "duration": 0.375
                },
                {
                    "name": "C#5",
                    "midi": 73,
                    "time": 30.375,
                    "velocity": 0.7874015748031497,
                    "duration": 0.375
                },
                {
                    "name": "D5",
                    "midi": 74,
                    "time": 30.75,
                    "velocity": 0.7874015748031497,
                    "duration": 0.375
                },
                {
                    "name": "E5",
                    "midi": 76,
                    "time": 31.125,
                    "velocity": 0.7874015748031497,
                    "duration": 0.375
                },
                {
                    "name": "F5",
                    "midi": 77,
                    "time": 31.5,
                    "velocity": 0.7874015748031497,
                    "duration": 0.375
                },
                {
                    "name": "A4",
                    "midi": 69,
                    "time": 31.875,
                    "velocity": 0.7874015748031497,
                    "duration": 0.375
                },
                {
                    "name": "B4",
                    "midi": 71,
                    "time": 32.25,
                    "velocity": 0.7874015748031497,
                    "duration": 0.375
                },
                {
                    "name": "C#5",
                    "midi": 73,
                    "time": 32.625,
                    "velocity": 0.7874015748031497,
                    "duration": 0.375
                },
                {
                    "name": "D5",
                    "midi": 74,
                    "time": 33,
                    "velocity": 0.7874015748031497,
                    "duration": 0.375
                },
                {
                    "name": "F#4",
                    "midi": 66,
                    "time": 33.375,
                    "velocity": 0.7874015748031497,
                    "duration": 0.375
                },
                {
                    "name": "G#4",
                    "midi": 68,
                    "time": 33.75,
                    "velocity": 0.7874015748031497,
                    "duration": 0.375
                },
                {
                    "name": "A4",
                    "midi": 69,
                    "time": 34.125,
                    "velocity": 0.7874015748031497,
                    "duration": 0.375
                },
                {
                    "name": "B4",
                    "midi": 71,
                    "time": 34.5,
                    "velocity": 0.7874015748031497,
                    "duration": 0.375
                },
                {
                    "name": "C5",
                    "midi": 72,
                    "time": 34.875,
                    "velocity": 0.7874015748031497,
                    "duration": 0.375
                },
                {
                    "name": "D5",
                    "midi": 74,
                    "time": 35.25,
                    "velocity": 0.7874015748031497,
                    "duration": 0.9375
                },
                {
                    "name": "E4",
                    "midi": 64,
                    "time": 36.1875,
                    "velocity": 0.7874015748031497,
                    "duration": 0.1875
                },
                {
                    "name": "F#4",
                    "midi": 66,
                    "time": 36.375,
                    "velocity": 0.7874015748031497,
                    "duration": 0.1875
                },
                {
                    "name": "G#4",
                    "midi": 68,
                    "time": 36.5625,
                    "velocity": 0.7874015748031497,
                    "duration": 0.1875
                },
                {
                    "name": "A4",
                    "midi": 69,
                    "time": 36.75,
                    "velocity": 0.7874015748031497,
                    "duration": 0.125
                },
                {
                    "name": "G#4",
                    "midi": 68,
                    "time": 36.875,
                    "velocity": 0.7874015748031497,
                    "duration": 0.125
                },
                {
                    "name": "F#4",
                    "midi": 66,
                    "time": 37,
                    "velocity": 0.7874015748031497,
                    "duration": 0.125
                },
                {
                    "name": "G#4",
                    "midi": 68,
                    "time": 37.125,
                    "velocity": 0.7874015748031497,
                    "duration": 0.125
                },
                {
                    "name": "F#4",
                    "midi": 66,
                    "time": 37.25,
                    "velocity": 0.7874015748031497,
                    "duration": 0.125
                },
                {
                    "name": "E4",
                    "midi": 64,
                    "time": 37.375,
                    "velocity": 0.7874015748031497,
                    "duration": 0.125
                },
                {
                    "name": "E5",
                    "midi": 76,
                    "time": 37.5,
                    "velocity": 0.7874015748031497,
                    "duration": 0.1875
                },
                {
                    "name": "D5",
                    "midi": 74,
                    "time": 37.6875,
                    "velocity": 0.7874015748031497,
                    "duration": 0.1875
                },
                {
                    "name": "C5",
                    "midi": 72,
                    "time": 37.875,
                    "velocity": 0.7874015748031497,
                    "duration": 0.1875
                },
                {
                    "name": "E5",
                    "midi": 76,
                    "time": 38.0625,
                    "velocity": 0.7874015748031497,
                    "duration": 0.1875
                },
                {
                    "name": "D5",
                    "midi": 74,
                    "time": 38.25,
                    "velocity": 0.7874015748031497,
                    "duration": 0.1875
                },
                {
                    "name": "C5",
                    "midi": 72,
                    "time": 38.4375,
                    "velocity": 0.7874015748031497,
                    "duration": 0.1875
                },
                {
                    "name": "B4",
                    "midi": 71,
                    "time": 38.625,
                    "velocity": 0.7874015748031497,
                    "duration": 0.125
                },
                {
                    "name": "C5",
                    "midi": 72,
                    "time": 38.75,
                    "velocity": 0.7874015748031497,
                    "duration": 0.125
                },
                {
                    "name": "D5",
                    "midi": 74,
                    "time": 38.875,
                    "velocity": 0.7874015748031497,
                    "duration": 0.125
                },
                {
                    "name": "C5",
                    "midi": 72,
                    "time": 39,
                    "velocity": 0.7874015748031497,
                    "duration": 0.1875
                },
                {
                    "name": "A5",
                    "midi": 81,
                    "time": 39.1875,
                    "velocity": 0.7874015748031497,
                    "duration": 0.1875
                },
                {
                    "name": "G#5",
                    "midi": 80,
                    "time": 39.375,
                    "velocity": 0.7874015748031497,
                    "duration": 0.125
                },
                {
                    "name": "A5",
                    "midi": 81,
                    "time": 39.5,
                    "velocity": 0.7874015748031497,
                    "duration": 0.125
                },
                {
                    "name": "B5",
                    "midi": 83,
                    "time": 39.625,
                    "velocity": 0.7874015748031497,
                    "duration": 0.125
                },
                {
                    "name": "A5",
                    "midi": 81,
                    "time": 39.75,
                    "velocity": 0.7874015748031497,
                    "duration": 0.1875
                },
                {
                    "name": "E5",
                    "midi": 76,
                    "time": 39.9375,
                    "velocity": 0.7874015748031497,
                    "duration": 0.1875
                },
                {
                    "name": "F5",
                    "midi": 77,
                    "time": 40.125,
                    "velocity": 0.7874015748031497,
                    "duration": 0.125
                },
                {
                    "name": "E5",
                    "midi": 76,
                    "time": 40.25,
                    "velocity": 0.7874015748031497,
                    "duration": 0.125
                },
                {
                    "name": "D5",
                    "midi": 74,
                    "time": 40.375,
                    "velocity": 0.7874015748031497,
                    "duration": 0.125
                },
                {
                    "name": "G#4",
                    "midi": 68,
                    "time": 40.5,
                    "velocity": 0.7874015748031497,
                    "duration": 0.1875
                },
                {
                    "name": "F5",
                    "midi": 77,
                    "time": 40.6875,
                    "velocity": 0.7874015748031497,
                    "duration": 0.1875
                },
                {
                    "name": "E5",
                    "midi": 76,
                    "time": 40.875,
                    "velocity": 0.7874015748031497,
                    "duration": 0.1875
                },
                {
                    "name": "D5",
                    "midi": 74,
                    "time": 41.0625,
                    "velocity": 0.7874015748031497,
                    "duration": 0.1875
                },
                {
                    "name": "C5",
                    "midi": 72,
                    "time": 41.25,
                    "velocity": 0.7874015748031497,
                    "duration": 0.375
                },
                {
                    "name": "B4",
                    "midi": 71,
                    "time": 41.625,
                    "velocity": 0.7874015748031497,
                    "duration": 0.1875
                },
                {
                    "name": "A4",
                    "midi": 69,
                    "time": 41.8125,
                    "velocity": 0.7874015748031497,
                    "duration": 0.1875
                },
                {
                    "name": "A4",
                    "midi": 69,
                    "time": 42,
                    "velocity": 0.7874015748031497,
                    "duration": 0.1875
                },
                {
                    "name": "A5",
                    "midi": 81,
                    "time": 42.1875,
                    "velocity": 0.7874015748031497,
                    "duration": 0.1875
                },
                {
                    "name": "G5",
                    "midi": 79,
                    "time": 42.375,
                    "velocity": 0.7874015748031497,
                    "duration": 0.1875
                },
                {
                    "name": "F5",
                    "midi": 77,
                    "time": 42.5625,
                    "velocity": 0.7874015748031497,
                    "duration": 0.1875
                },
                {
                    "name": "E5",
                    "midi": 76,
                    "time": 42.75,
                    "velocity": 0.7874015748031497,
                    "duration": 0.125
                },
                {
                    "name": "F5",
                    "midi": 77,
                    "time": 42.875,
                    "velocity": 0.7874015748031497,
                    "duration": 0.125
                },
                {
                    "name": "G5",
                    "midi": 79,
                    "time": 43,
                    "velocity": 0.7874015748031497,
                    "duration": 0.125
                },
                {
                    "name": "F5",
                    "midi": 77,
                    "time": 43.125,
                    "velocity": 0.7874015748031497,
                    "duration": 0.125
                },
                {
                    "name": "G5",
                    "midi": 79,
                    "time": 43.25,
                    "velocity": 0.7874015748031497,
                    "duration": 0.125
                },
                {
                    "name": "A5",
                    "midi": 81,
                    "time": 43.375,
                    "velocity": 0.7874015748031497,
                    "duration": 0.125
                },
                {
                    "name": "G5",
                    "midi": 79,
                    "time": 43.5,
                    "velocity": 0.7874015748031497,
                    "duration": 1.65625
                },
                {
                    "name": "E5",
                    "midi": 76,
                    "time": 45.1875,
                    "velocity": 0.7874015748031497,
                    "duration": 0.1875
                },
                {
                    "name": "F5",
                    "midi": 77,
                    "time": 45.375,
                    "velocity": 0.7874015748031497,
                    "duration": 0.1875
                },
                {
                    "name": "G5",
                    "midi": 79,
                    "time": 45.5625,
                    "velocity": 0.7874015748031497,
                    "duration": 0.1875
                },
                {
                    "name": "A5",
                    "midi": 81,
                    "time": 45.75,
                    "velocity": 0.7874015748031497,
                    "duration": 0.125
                },
                {
                    "name": "G5",
                    "midi": 79,
                    "time": 45.875,
                    "velocity": 0.7874015748031497,
                    "duration": 0.125
                },
                {
                    "name": "F5",
                    "midi": 77,
                    "time": 46,
                    "velocity": 0.7874015748031497,
                    "duration": 0.125
                },
                {
                    "name": "G5",
                    "midi": 79,
                    "time": 46.125,
                    "velocity": 0.7874015748031497,
                    "duration": 0.125
                },
                {
                    "name": "F5",
                    "midi": 77,
                    "time": 46.25,
                    "velocity": 0.7874015748031497,
                    "duration": 0.125
                },
                {
                    "name": "E5",
                    "midi": 76,
                    "time": 46.375,
                    "velocity": 0.7874015748031497,
                    "duration": 0.125
                },
                {
                    "name": "F5",
                    "midi": 77,
                    "time": 46.5,
                    "velocity": 0.7874015748031497,
                    "duration": 1.6875
                },
                {
                    "name": "G5",
                    "midi": 79,
                    "time": 48.1875,
                    "velocity": 0.7874015748031497,
                    "duration": 0.1875
                },
                {
                    "name": "F5",
                    "midi": 77,
                    "time": 48.375,
                    "velocity": 0.7874015748031497,
                    "duration": 0.1875
                },
                {
                    "name": "E5",
                    "midi": 76,
                    "time": 48.5625,
                    "velocity": 0.7874015748031497,
                    "duration": 0.1875
                },
                {
                    "name": "D5",
                    "midi": 74,
                    "time": 48.75,
                    "velocity": 0.7874015748031497,
                    "duration": 0.125
                },
                {
                    "name": "E5",
                    "midi": 76,
                    "time": 48.875,
                    "velocity": 0.7874015748031497,
                    "duration": 0.125
                },
                {
                    "name": "F5",
                    "midi": 77,
                    "time": 49,
                    "velocity": 0.7874015748031497,
                    "duration": 0.125
                },
                {
                    "name": "E5",
                    "midi": 76,
                    "time": 49.125,
                    "velocity": 0.7874015748031497,
                    "duration": 0.125
                },
                {
                    "name": "F5",
                    "midi": 77,
                    "time": 49.25,
                    "velocity": 0.7874015748031497,
                    "duration": 0.125
                },
                {
                    "name": "G5",
                    "midi": 79,
                    "time": 49.375,
                    "velocity": 0.7874015748031497,
                    "duration": 0.125
                },
                {
                    "name": "F5",
                    "midi": 77,
                    "time": 49.5,
                    "velocity": 0.7874015748031497,
                    "duration": 1.65625
                },
                {
                    "name": "D5",
                    "midi": 74,
                    "time": 51.1875,
                    "velocity": 0.7874015748031497,
                    "duration": 0.1875
                },
                {
                    "name": "E5",
                    "midi": 76,
                    "time": 51.375,
                    "velocity": 0.7874015748031497,
                    "duration": 0.1875
                },
                {
                    "name": "F5",
                    "midi": 77,
                    "time": 51.5625,
                    "velocity": 0.7874015748031497,
                    "duration": 0.1875
                },
                {
                    "name": "G5",
                    "midi": 79,
                    "time": 51.75,
                    "velocity": 0.7874015748031497,
                    "duration": 0.125
                },
                {
                    "name": "F5",
                    "midi": 77,
                    "time": 51.875,
                    "velocity": 0.7874015748031497,
                    "duration": 0.125
                },
                {
                    "name": "E5",
                    "midi": 76,
                    "time": 52,
                    "velocity": 0.7874015748031497,
                    "duration": 0.125
                },
                {
                    "name": "F5",
                    "midi": 77,
                    "time": 52.125,
                    "velocity": 0.7874015748031497,
                    "duration": 0.125
                },
                {
                    "name": "E5",
                    "midi": 76,
                    "time": 52.25,
                    "velocity": 0.7874015748031497,
                    "duration": 0.125
                },
                {
                    "name": "D5",
                    "midi": 74,
                    "time": 52.375,
                    "velocity": 0.7874015748031497,
                    "duration": 0.125
                },
                {
                    "name": "E5",
                    "midi": 76,
                    "time": 52.5,
                    "velocity": 0.7874015748031497,
                    "duration": 1.65625
                },
                {
                    "name": "C5",
                    "midi": 72,
                    "time": 54.1875,
                    "velocity": 0.7874015748031497,
                    "duration": 0.1875
                },
                {
                    "name": "D5",
                    "midi": 74,
                    "time": 54.375,
                    "velocity": 0.7874015748031497,
                    "duration": 0.1875
                },
                {
                    "name": "E5",
                    "midi": 76,
                    "time": 54.5625,
                    "velocity": 0.7874015748031497,
                    "duration": 0.1875
                },
                {
                    "name": "F5",
                    "midi": 77,
                    "time": 54.75,
                    "velocity": 0.7874015748031497,
                    "duration": 0.125
                },
                {
                    "name": "E5",
                    "midi": 76,
                    "time": 54.875,
                    "velocity": 0.7874015748031497,
                    "duration": 0.125
                },
                {
                    "name": "D5",
                    "midi": 74,
                    "time": 55,
                    "velocity": 0.7874015748031497,
                    "duration": 0.125
                },
                {
                    "name": "E5",
                    "midi": 76,
                    "time": 55.125,
                    "velocity": 0.7874015748031497,
                    "duration": 0.125
                },
                {
                    "name": "D5",
                    "midi": 74,
                    "time": 55.25,
                    "velocity": 0.7874015748031497,
                    "duration": 0.125
                },
                {
                    "name": "C5",
                    "midi": 72,
                    "time": 55.375,
                    "velocity": 0.7874015748031497,
                    "duration": 0.125
                },
                {
                    "name": "D5",
                    "midi": 74,
                    "time": 55.5,
                    "velocity": 0.7874015748031497,
                    "duration": 0.1875
                },
                {
                    "name": "E5",
                    "midi": 76,
                    "time": 55.6875,
                    "velocity": 0.7874015748031497,
                    "duration": 0.1875
                },
                {
                    "name": "F5",
                    "midi": 77,
                    "time": 55.875,
                    "velocity": 0.7874015748031497,
                    "duration": 0.1875
                },
                {
                    "name": "G5",
                    "midi": 79,
                    "time": 56.0625,
                    "velocity": 0.7874015748031497,
                    "duration": 0.1875
                },
                {
                    "name": "A5",
                    "midi": 81,
                    "time": 56.25,
                    "velocity": 0.7874015748031497,
                    "duration": 0.125
                },
                {
                    "name": "G5",
                    "midi": 79,
                    "time": 56.375,
                    "velocity": 0.7874015748031497,
                    "duration": 0.125
                },
                {
                    "name": "F5",
                    "midi": 77,
                    "time": 56.5,
                    "velocity": 0.7874015748031497,
                    "duration": 0.125
                },
                {
                    "name": "G5",
                    "midi": 79,
                    "time": 56.625,
                    "velocity": 0.7874015748031497,
                    "duration": 0.125
                },
                {
                    "name": "F5",
                    "midi": 77,
                    "time": 56.75,
                    "velocity": 0.7874015748031497,
                    "duration": 0.125
                },
                {
                    "name": "E5",
                    "midi": 76,
                    "time": 56.875,
                    "velocity": 0.7874015748031497,
                    "duration": 0.125
                },
                {
                    "name": "F5",
                    "midi": 77,
                    "time": 57,
                    "velocity": 0.7874015748031497,
                    "duration": 0.1875
                },
                {
                    "name": "G5",
                    "midi": 79,
                    "time": 57.1875,
                    "velocity": 0.7874015748031497,
                    "duration": 0.1875
                },
                {
                    "name": "A5",
                    "midi": 81,
                    "time": 57.375,
                    "velocity": 0.7874015748031497,
                    "duration": 0.1875
                },
                {
                    "name": "B5",
                    "midi": 83,
                    "time": 57.5625,
                    "velocity": 0.7874015748031497,
                    "duration": 0.1875
                },
                {
                    "name": "C6",
                    "midi": 84,
                    "time": 57.75,
                    "velocity": 0.7874015748031497,
                    "duration": 0.125
                },
                {
                    "name": "B5",
                    "midi": 83,
                    "time": 57.875,
                    "velocity": 0.7874015748031497,
                    "duration": 0.125
                },
                {
                    "name": "A5",
                    "midi": 81,
                    "time": 58,
                    "velocity": 0.7874015748031497,
                    "duration": 0.125
                },
                {
                    "name": "B5",
                    "midi": 83,
                    "time": 58.125,
                    "velocity": 0.7874015748031497,
                    "duration": 0.125
                },
                {
                    "name": "A5",
                    "midi": 81,
                    "time": 58.25,
                    "velocity": 0.7874015748031497,
                    "duration": 0.125
                },
                {
                    "name": "G5",
                    "midi": 79,
                    "time": 58.375,
                    "velocity": 0.7874015748031497,
                    "duration": 0.125
                },
                {
                    "name": "C6",
                    "midi": 84,
                    "time": 58.5,
                    "velocity": 0.7874015748031497,
                    "duration": 0.375
                },
                {
                    "name": "G5",
                    "midi": 79,
                    "time": 58.875,
                    "velocity": 0.7874015748031497,
                    "duration": 0.375
                },
                {
                    "name": "E5",
                    "midi": 76,
                    "time": 59.25,
                    "velocity": 0.7874015748031497,
                    "duration": 0.375
                },
                {
                    "name": "D5",
                    "midi": 74,
                    "time": 59.625,
                    "velocity": 0.7874015748031497,
                    "duration": 0.1875
                },
                {
                    "name": "C5",
                    "midi": 72,
                    "time": 59.8125,
                    "velocity": 0.7874015748031497,
                    "duration": 0.1875
                },
                {
                    "name": "C5",
                    "midi": 72,
                    "time": 60,
                    "velocity": 0.7874015748031497,
                    "duration": 0.1875
                },
                {
                    "name": "A#4",
                    "midi": 70,
                    "time": 60.1875,
                    "velocity": 0.7874015748031497,
                    "duration": 0.1875
                },
                {
                    "name": "A4",
                    "midi": 69,
                    "time": 60.375,
                    "velocity": 0.7874015748031497,
                    "duration": 0.1875
                },
                {
                    "name": "G4",
                    "midi": 67,
                    "time": 60.5625,
                    "velocity": 0.7874015748031497,
                    "duration": 0.1875
                },
                {
                    "name": "F4",
                    "midi": 65,
                    "time": 60.75,
                    "velocity": 0.7874015748031497,
                    "duration": 0.125
                },
                {
                    "name": "G4",
                    "midi": 67,
                    "time": 60.875,
                    "velocity": 0.7874015748031497,
                    "duration": 0.125
                },
                {
                    "name": "A4",
                    "midi": 69,
                    "time": 61,
                    "velocity": 0.7874015748031497,
                    "duration": 0.125
                },
                {
                    "name": "G4",
                    "midi": 67,
                    "time": 61.125,
                    "velocity": 0.7874015748031497,
                    "duration": 0.125
                },
                {
                    "name": "A4",
                    "midi": 69,
                    "time": 61.25,
                    "velocity": 0.7874015748031497,
                    "duration": 0.125
                },
                {
                    "name": "A#4",
                    "midi": 70,
                    "time": 61.375,
                    "velocity": 0.7874015748031497,
                    "duration": 0.125
                },
                {
                    "name": "A4",
                    "midi": 69,
                    "time": 61.5,
                    "velocity": 0.7874015748031497,
                    "duration": 0.1875
                },
                {
                    "name": "B4",
                    "midi": 71,
                    "time": 61.6875,
                    "velocity": 0.7874015748031497,
                    "duration": 0.1875
                },
                {
                    "name": "C5",
                    "midi": 72,
                    "time": 61.875,
                    "velocity": 0.7874015748031497,
                    "duration": 0.1875
                },
                {
                    "name": "E4",
                    "midi": 64,
                    "time": 62.0625,
                    "velocity": 0.7874015748031497,
                    "duration": 0.1875
                },
                {
                    "name": "D4",
                    "midi": 62,
                    "time": 62.25,
                    "velocity": 0.7874015748031497,
                    "duration": 0.1875
                },
                {
                    "name": "C5",
                    "midi": 72,
                    "time": 62.4375,
                    "velocity": 0.7874015748031497,
                    "duration": 0.1875
                },
                {
                    "name": "F4",
                    "midi": 65,
                    "time": 62.625,
                    "velocity": 0.7874015748031497,
                    "duration": 0.1875
                },
                {
                    "name": "B4",
                    "midi": 71,
                    "time": 62.8125,
                    "velocity": 0.7874015748031497,
                    "duration": 0.1875
                },
                {
                    "name": "E4",
                    "midi": 64,
                    "time": 63.046875,
                    "velocity": 0.7874015748031497,
                    "duration": 2.953125
                },
                {
                    "name": "G4",
                    "midi": 67,
                    "time": 63.0703125,
                    "velocity": 0.7874015748031497,
                    "duration": 2.9296875
                },
                {
                    "name": "C5",
                    "midi": 72,
                    "time": 63.09375,
                    "velocity": 0.7874015748031497,
                    "duration": 2.90625
                }
            ],
            "controlChanges": {
                "7": [
                    {
                        "number": 7,
                        "time": 0,
                        "value": 0.7874015748031497
                    }
                ],
                "10": [
                    {
                        "number": 10,
                        "time": 0,
                        "value": 0.7559055118110236
                    }
                ]
            },
            "id": 1,
            "name": "Solo Keyboard",
            "instrumentNumber": 6,
            "instrument": "harpsichord",
            "instrumentFamily": "piano",
            "channelNumber": 0,
            "isPercussion": false
        },
        {
            "startTime": 1.6875,
            "duration": 66,
            "length": 258,
            "notes": [
                {
                    "name": "C3",
                    "midi": 48,
                    "time": 1.6875,
                    "velocity": 0.7874015748031497,
                    "duration": 0.1875
                },
                {
                    "name": "D3",
                    "midi": 50,
                    "time": 1.875,
                    "velocity": 0.7874015748031497,
                    "duration": 0.1875
                },
                {
                    "name": "E3",
                    "midi": 52,
                    "time": 2.0625,
                    "velocity": 0.7874015748031497,
                    "duration": 0.1875
                },
                {
                    "name": "F3",
                    "midi": 53,
                    "time": 2.25,
                    "velocity": 0.7874015748031497,
                    "duration": 0.125
                },
                {
                    "name": "E3",
                    "midi": 52,
                    "time": 2.375,
                    "velocity": 0.7874015748031497,
                    "duration": 0.125
                },
                {
                    "name": "D3",
                    "midi": 50,
                    "time": 2.5,
                    "velocity": 0.7874015748031497,
                    "duration": 0.125
                },
                {
                    "name": "E3",
                    "midi": 52,
                    "time": 2.625,
                    "velocity": 0.7874015748031497,
                    "duration": 0.125
                },
                {
                    "name": "D3",
                    "midi": 50,
                    "time": 2.75,
                    "velocity": 0.7874015748031497,
                    "duration": 0.125
                },
                {
                    "name": "C3",
                    "midi": 48,
                    "time": 2.875,
                    "velocity": 0.7874015748031497,
                    "duration": 0.125
                },
                {
                    "name": "G3",
                    "midi": 55,
                    "time": 3,
                    "velocity": 0.7874015748031497,
                    "duration": 0.375
                },
                {
                    "name": "G2",
                    "midi": 43,
                    "time": 3.375,
                    "velocity": 0.7874015748031497,
                    "duration": 0.375
                },
                {
                    "name": "G3",
                    "midi": 55,
                    "time": 4.6875,
                    "velocity": 0.7874015748031497,
                    "duration": 0.1875
                },
                {
                    "name": "A3",
                    "midi": 57,
                    "time": 4.875,
                    "velocity": 0.7874015748031497,
                    "duration": 0.1875
                },
                {
                    "name": "B3",
                    "midi": 59,
                    "time": 5.0625,
                    "velocity": 0.7874015748031497,
                    "duration": 0.1875
                },
                {
                    "name": "C4",
                    "midi": 60,
                    "time": 5.25,
                    "velocity": 0.7874015748031497,
                    "duration": 0.125
                },
                {
                    "name": "B3",
                    "midi": 59,
                    "time": 5.375,
                    "velocity": 0.7874015748031497,
                    "duration": 0.125
                },
                {
                    "name": "A3",
                    "midi": 57,
                    "time": 5.5,
                    "velocity": 0.7874015748031497,
                    "duration": 0.125
                },
                {
                    "name": "B3",
                    "midi": 59,
                    "time": 5.625,
                    "velocity": 0.7874015748031497,
                    "duration": 0.125
                },
                {
                    "name": "A3",
                    "midi": 57,
                    "time": 5.75,
                    "velocity": 0.7874015748031497,
                    "duration": 0.125
                },
                {
                    "name": "G3",
                    "midi": 55,
                    "time": 5.875,
                    "velocity": 0.7874015748031497,
                    "duration": 0.125
                },
                {
                    "name": "C4",
                    "midi": 60,
                    "time": 6,
                    "velocity": 0.7874015748031497,
                    "duration": 0.375
                },
                {
                    "name": "B3",
                    "midi": 59,
                    "time": 6.375,
                    "velocity": 0.7874015748031497,
                    "duration": 0.375
                },
                {
                    "name": "C4",
                    "midi": 60,
                    "time": 6.75,
                    "velocity": 0.7874015748031497,
                    "duration": 0.375
                },
                {
                    "name": "D4",
                    "midi": 62,
                    "time": 7.125,
                    "velocity": 0.7874015748031497,
                    "duration": 0.375
                },
                {
                    "name": "E4",
                    "midi": 64,
                    "time": 7.5,
                    "velocity": 0.7874015748031497,
                    "duration": 0.375
                },
                {
                    "name": "G3",
                    "midi": 55,
                    "time": 7.875,
                    "velocity": 0.7874015748031497,
                    "duration": 0.375
                },
                {
                    "name": "A3",
                    "midi": 57,
                    "time": 8.25,
                    "velocity": 0.7874015748031497,
                    "duration": 0.375
                },
                {
                    "name": "B3",
                    "midi": 59,
                    "time": 8.625,
                    "velocity": 0.7874015748031497,
                    "duration": 0.375
                },
                {
                    "name": "C4",
                    "midi": 60,
                    "time": 9,
                    "velocity": 0.7874015748031497,
                    "duration": 0.375
                },
                {
                    "name": "E3",
                    "midi": 52,
                    "time": 9.375,
                    "velocity": 0.7874015748031497,
                    "duration": 0.375
                },
                {
                    "name": "F#3",
                    "midi": 54,
                    "time": 9.75,
                    "velocity": 0.7874015748031497,
                    "duration": 0.375
                },
                {
                    "name": "G3",
                    "midi": 55,
                    "time": 10.125,
                    "velocity": 0.7874015748031497,
                    "duration": 0.375
                },
                {
                    "name": "A3",
                    "midi": 57,
                    "time": 10.5,
                    "velocity": 0.7874015748031497,
                    "duration": 0.375
                },
                {
                    "name": "B3",
                    "midi": 59,
                    "time": 10.875,
                    "velocity": 0.7874015748031497,
                    "duration": 0.375
                },
                {
                    "name": "C4",
                    "midi": 60,
                    "time": 11.25,
                    "velocity": 0.7874015748031497,
                    "duration": 0.90625
                },
                {
                    "name": "D3",
                    "midi": 50,
                    "time": 12.1875,
                    "velocity": 0.7874015748031497,
                    "duration": 0.1875
                },
                {
                    "name": "E3",
                    "midi": 52,
                    "time": 12.375,
                    "velocity": 0.7874015748031497,
                    "duration": 0.1875
                },
                {
                    "name": "F#3",
                    "midi": 54,
                    "time": 12.5625,
                    "velocity": 0.7874015748031497,
                    "duration": 0.1875
                },
                {
                    "name": "G3",
                    "midi": 55,
                    "time": 12.75,
                    "velocity": 0.7874015748031497,
                    "duration": 0.125
                },
                {
                    "name": "F#3",
                    "midi": 54,
                    "time": 12.875,
                    "velocity": 0.7874015748031497,
                    "duration": 0.125
                },
                {
                    "name": "E3",
                    "midi": 52,
                    "time": 13,
                    "velocity": 0.7874015748031497,
                    "duration": 0.125
                },
                {
                    "name": "F#3",
                    "midi": 54,
                    "time": 13.125,
                    "velocity": 0.7874015748031497,
                    "duration": 0.125
                },
                {
                    "name": "E3",
                    "midi": 52,
                    "time": 13.25,
                    "velocity": 0.7874015748031497,
                    "duration": 0.125
                },
                {
                    "name": "D3",
                    "midi": 50,
                    "time": 13.375,
                    "velocity": 0.7874015748031497,
                    "duration": 0.125
                },
                {
                    "name": "G3",
                    "midi": 55,
                    "time": 13.5,
                    "velocity": 0.7874015748031497,
                    "duration": 0.375
                },
                {
                    "name": "B2",
                    "midi": 47,
                    "time": 13.875,
                    "velocity": 0.7874015748031497,
                    "duration": 0.375
                },
                {
                    "name": "C3",
                    "midi": 48,
                    "time": 14.25,
                    "velocity": 0.7874015748031497,
                    "duration": 0.375
                },
                {
                    "name": "D3",
                    "midi": 50,
                    "time": 14.625,
                    "velocity": 0.7874015748031497,
                    "duration": 0.375
                },
                {
                    "name": "E3",
                    "midi": 52,
                    "time": 15,
                    "velocity": 0.7874015748031497,
                    "duration": 0.375
                },
                {
                    "name": "F#3",
                    "midi": 54,
                    "time": 15.375,
                    "velocity": 0.7874015748031497,
                    "duration": 0.375
                },
                {
                    "name": "G3",
                    "midi": 55,
                    "time": 15.75,
                    "velocity": 0.7874015748031497,
                    "duration": 0.375
                },
                {
                    "name": "E3",
                    "midi": 52,
                    "time": 16.125,
                    "velocity": 0.7874015748031497,
                    "duration": 0.375
                },
                {
                    "name": "B2",
                    "midi": 47,
                    "time": 16.5,
                    "velocity": 0.7874015748031497,
                    "duration": 0.5625
                },
                {
                    "name": "C3",
                    "midi": 48,
                    "time": 17.0625,
                    "velocity": 0.7874015748031497,
                    "duration": 0.1875
                },
                {
                    "name": "D3",
                    "midi": 50,
                    "time": 17.25,
                    "velocity": 0.7874015748031497,
                    "duration": 0.375
                },
                {
                    "name": "D2",
                    "midi": 38,
                    "time": 17.625,
                    "velocity": 0.7874015748031497,
                    "duration": 0.375
                },
                {
                    "name": "G2",
                    "midi": 43,
                    "time": 18.1875,
                    "velocity": 0.7874015748031497,
                    "duration": 0.1875
                },
                {
                    "name": "A2",
                    "midi": 45,
                    "time": 18.375,
                    "velocity": 0.7874015748031497,
                    "duration": 0.1875
                },
                {
                    "name": "B2",
                    "midi": 47,
                    "time": 18.5625,
                    "velocity": 0.7874015748031497,
                    "duration": 0.1875
                },
                {
                    "name": "C3",
                    "midi": 48,
                    "time": 18.75,
                    "velocity": 0.7874015748031497,
                    "duration": 0.125
                },
                {
                    "name": "B2",
                    "midi": 47,
                    "time": 18.875,
                    "velocity": 0.7874015748031497,
                    "duration": 0.125
                },
                {
                    "name": "A2",
                    "midi": 45,
                    "time": 19,
                    "velocity": 0.7874015748031497,
                    "duration": 0.125
                },
                {
                    "name": "B2",
                    "midi": 47,
                    "time": 19.125,
                    "velocity": 0.7874015748031497,
                    "duration": 0.125
                },
                {
                    "name": "A2",
                    "midi": 45,
                    "time": 19.25,
                    "velocity": 0.7874015748031497,
                    "duration": 0.125
                },
                {
                    "name": "G2",
                    "midi": 43,
                    "time": 19.375,
                    "velocity": 0.7874015748031497,
                    "duration": 0.125
                },
                {
                    "name": "D3",
                    "midi": 50,
                    "time": 19.5,
                    "velocity": 0.7874015748031497,
                    "duration": 0.375
                },
                {
                    "name": "G3",
                    "midi": 55,
                    "time": 19.875,
                    "velocity": 0.7874015748031497,
                    "duration": 0.375
                },
                {
                    "name": "F#3",
                    "midi": 54,
                    "time": 20.25,
                    "velocity": 0.7874015748031497,
                    "duration": 0.375
                },
                {
                    "name": "G3",
                    "midi": 55,
                    "time": 20.625,
                    "velocity": 0.7874015748031497,
                    "duration": 0.375
                },
                {
                    "name": "A3",
                    "midi": 57,
                    "time": 21,
                    "velocity": 0.7874015748031497,
                    "duration": 0.1875
                },
                {
                    "name": "D3",
                    "midi": 50,
                    "time": 21.1875,
                    "velocity": 0.7874015748031497,
                    "duration": 0.1875
                },
                {
                    "name": "E3",
                    "midi": 52,
                    "time": 21.375,
                    "velocity": 0.7874015748031497,
                    "duration": 0.1875
                },
                {
                    "name": "F#3",
                    "midi": 54,
                    "time": 21.5625,
                    "velocity": 0.7874015748031497,
                    "duration": 0.1875
                },
                {
                    "name": "G3",
                    "midi": 55,
                    "time": 21.75,
                    "velocity": 0.7874015748031497,
                    "duration": 0.125
                },
                {
                    "name": "F#3",
                    "midi": 54,
                    "time": 21.875,
                    "velocity": 0.7874015748031497,
                    "duration": 0.125
                },
                {
                    "name": "E3",
                    "midi": 52,
                    "time": 22,
                    "velocity": 0.7874015748031497,
                    "duration": 0.125
                },
                {
                    "name": "F#3",
                    "midi": 54,
                    "time": 22.125,
                    "velocity": 0.7874015748031497,
                    "duration": 0.125
                },
                {
                    "name": "E3",
                    "midi": 52,
                    "time": 22.25,
                    "velocity": 0.7874015748031497,
                    "duration": 0.125
                },
                {
                    "name": "D3",
                    "midi": 50,
                    "time": 22.375,
                    "velocity": 0.7874015748031497,
                    "duration": 0.125
                },
                {
                    "name": "A3",
                    "midi": 57,
                    "time": 22.5,
                    "velocity": 0.7874015748031497,
                    "duration": 0.375
                },
                {
                    "name": "D4",
                    "midi": 62,
                    "time": 22.875,
                    "velocity": 0.7874015748031497,
                    "duration": 0.375
                },
                {
                    "name": "C4",
                    "midi": 60,
                    "time": 23.25,
                    "velocity": 0.7874015748031497,
                    "duration": 0.375
                },
                {
                    "name": "D4",
                    "midi": 62,
                    "time": 23.625,
                    "velocity": 0.7874015748031497,
                    "duration": 0.375
                },
                {
                    "name": "G3",
                    "midi": 55,
                    "time": 24,
                    "velocity": 0.7874015748031497,
                    "duration": 0.1875
                },
                {
                    "name": "G4",
                    "midi": 67,
                    "time": 24.1875,
                    "velocity": 0.7874015748031497,
                    "duration": 0.1875
                },
                {
                    "name": "F4",
                    "midi": 65,
                    "time": 24.375,
                    "velocity": 0.7874015748031497,
                    "duration": 0.1875
                },
                {
                    "name": "E4",
                    "midi": 64,
                    "time": 24.5625,
                    "velocity": 0.7874015748031497,
                    "duration": 0.1875
                },
                {
                    "name": "D4",
                    "midi": 62,
                    "time": 24.75,
                    "velocity": 0.7874015748031497,
                    "duration": 0.125
                },
                {
                    "name": "E4",
                    "midi": 64,
                    "time": 24.875,
                    "velocity": 0.7874015748031497,
                    "duration": 0.125
                },
                {
                    "name": "F4",
                    "midi": 65,
                    "time": 25,
                    "velocity": 0.7874015748031497,
                    "duration": 0.125
                },
                {
                    "name": "E4",
                    "midi": 64,
                    "time": 25.125,
                    "velocity": 0.7874015748031497,
                    "duration": 0.125
                },
                {
                    "name": "F4",
                    "midi": 65,
                    "time": 25.25,
                    "velocity": 0.7874015748031497,
                    "duration": 0.125
                },
                {
                    "name": "G4",
                    "midi": 67,
                    "time": 25.375,
                    "velocity": 0.7874015748031497,
                    "duration": 0.125
                },
                {
                    "name": "F4",
                    "midi": 65,
                    "time": 25.5,
                    "velocity": 0.7874015748031497,
                    "duration": 0.375
                },
                {
                    "name": "E4",
                    "midi": 64,
                    "time": 25.875,
                    "velocity": 0.7874015748031497,
                    "duration": 0.375
                },
                {
                    "name": "F4",
                    "midi": 65,
                    "time": 26.25,
                    "velocity": 0.7874015748031497,
                    "duration": 0.375
                },
                {
                    "name": "D4",
                    "midi": 62,
                    "time": 26.625,
                    "velocity": 0.7874015748031497,
                    "duration": 0.375
                },
                {
                    "name": "E4",
                    "midi": 64,
                    "time": 27,
                    "velocity": 0.7874015748031497,
                    "duration": 0.1875
                },
                {
                    "name": "A4",
                    "midi": 69,
                    "time": 27.1875,
                    "velocity": 0.7874015748031497,
                    "duration": 0.1875
                },
                {
                    "name": "G4",
                    "midi": 67,
                    "time": 27.375,
                    "velocity": 0.7874015748031497,
                    "duration": 0.1875
                },
                {
                    "name": "F4",
                    "midi": 65,
                    "time": 27.5625,
                    "velocity": 0.7874015748031497,
                    "duration": 0.1875
                },
                {
                    "name": "E4",
                    "midi": 64,
                    "time": 27.75,
                    "velocity": 0.7874015748031497,
                    "duration": 0.125
                },
                {
                    "name": "F4",
                    "midi": 65,
                    "time": 27.875,
                    "velocity": 0.7874015748031497,
                    "duration": 0.125
                },
                {
                    "name": "G4",
                    "midi": 67,
                    "time": 28,
                    "velocity": 0.7874015748031497,
                    "duration": 0.125
                },
                {
                    "name": "F4",
                    "midi": 65,
                    "time": 28.125,
                    "velocity": 0.7874015748031497,
                    "duration": 0.125
                },
                {
                    "name": "G4",
                    "midi": 67,
                    "time": 28.25,
                    "velocity": 0.7874015748031497,
                    "duration": 0.125
                },
                {
                    "name": "A4",
                    "midi": 69,
                    "time": 28.375,
                    "velocity": 0.7874015748031497,
                    "duration": 0.125
                },
                {
                    "name": "G4",
                    "midi": 67,
                    "time": 28.5,
                    "velocity": 0.7874015748031497,
                    "duration": 0.375
                },
                {
                    "name": "F4",
                    "midi": 65,
                    "time": 28.875,
                    "velocity": 0.7874015748031497,
                    "duration": 0.375
                },
                {
                    "name": "G4",
                    "midi": 67,
                    "time": 29.25,
                    "velocity": 0.7874015748031497,
                    "duration": 0.375
                },
                {
                    "name": "E4",
                    "midi": 64,
                    "time": 29.625,
                    "velocity": 0.7874015748031497,
                    "duration": 0.375
                },
                {
                    "name": "F4",
                    "midi": 65,
                    "time": 30,
                    "velocity": 0.7874015748031497,
                    "duration": 0.1875
                },
                {
                    "name": "A#4",
                    "midi": 70,
                    "time": 30.1875,
                    "velocity": 0.7874015748031497,
                    "duration": 0.1875
                },
                {
                    "name": "A4",
                    "midi": 69,
                    "time": 30.375,
                    "velocity": 0.7874015748031497,
                    "duration": 0.1875
                },
                {
                    "name": "G4",
                    "midi": 67,
                    "time": 30.5625,
                    "velocity": 0.7874015748031497,
                    "duration": 0.1875
                },
                {
                    "name": "F4",
                    "midi": 65,
                    "time": 30.75,
                    "velocity": 0.7874015748031497,
                    "duration": 0.125
                },
                {
                    "name": "G4",
                    "midi": 67,
                    "time": 30.875,
                    "velocity": 0.7874015748031497,
                    "duration": 0.125
                },
                {
                    "name": "A4",
                    "midi": 69,
                    "time": 31,
                    "velocity": 0.7874015748031497,
                    "duration": 0.125
                },
                {
                    "name": "G4",
                    "midi": 67,
                    "time": 31.125,
                    "velocity": 0.7874015748031497,
                    "duration": 0.125
                },
                {
                    "name": "A4",
                    "midi": 69,
                    "time": 31.25,
                    "velocity": 0.7874015748031497,
                    "duration": 0.125
                },
                {
                    "name": "A#4",
                    "midi": 70,
                    "time": 31.375,
                    "velocity": 0.7874015748031497,
                    "duration": 0.125
                },
                {
                    "name": "A4",
                    "midi": 69,
                    "time": 31.5,
                    "velocity": 0.7874015748031497,
                    "duration": 0.1875
                },
                {
                    "name": "G4",
                    "midi": 67,
                    "time": 31.6875,
                    "velocity": 0.7874015748031497,
                    "duration": 0.1875
                },
                {
                    "name": "F4",
                    "midi": 65,
                    "time": 31.875,
                    "velocity": 0.7874015748031497,
                    "duration": 0.1875
                },
                {
                    "name": "E4",
                    "midi": 64,
                    "time": 32.0625,
                    "velocity": 0.7874015748031497,
                    "duration": 0.1875
                },
                {
                    "name": "D4",
                    "midi": 62,
                    "time": 32.25,
                    "velocity": 0.7874015748031497,
                    "duration": 0.125
                },
                {
                    "name": "E4",
                    "midi": 64,
                    "time": 32.375,
                    "velocity": 0.7874015748031497,
                    "duration": 0.125
                },
                {
                    "name": "F4",
                    "midi": 65,
                    "time": 32.5,
                    "velocity": 0.7874015748031497,
                    "duration": 0.125
                },
                {
                    "name": "E4",
                    "midi": 64,
                    "time": 32.625,
                    "velocity": 0.7874015748031497,
                    "duration": 0.125
                },
                {
                    "name": "F4",
                    "midi": 65,
                    "time": 32.75,
                    "velocity": 0.7874015748031497,
                    "duration": 0.125
                },
                {
                    "name": "G4",
                    "midi": 67,
                    "time": 32.875,
                    "velocity": 0.7874015748031497,
                    "duration": 0.125
                },
                {
                    "name": "F4",
                    "midi": 65,
                    "time": 33,
                    "velocity": 0.7874015748031497,
                    "duration": 0.1875
                },
                {
                    "name": "E4",
                    "midi": 64,
                    "time": 33.1875,
                    "velocity": 0.7874015748031497,
                    "duration": 0.1875
                },
                {
                    "name": "D4",
                    "midi": 62,
                    "time": 33.375,
                    "velocity": 0.7874015748031497,
                    "duration": 0.1875
                },
                {
                    "name": "C4",
                    "midi": 60,
                    "time": 33.5625,
                    "velocity": 0.7874015748031497,
                    "duration": 0.1875
                },
                {
                    "name": "B3",
                    "midi": 59,
                    "time": 33.75,
                    "velocity": 0.7874015748031497,
                    "duration": 0.125
                },
                {
                    "name": "C4",
                    "midi": 60,
                    "time": 33.875,
                    "velocity": 0.7874015748031497,
                    "duration": 0.125
                },
                {
                    "name": "D4",
                    "midi": 62,
                    "time": 34,
                    "velocity": 0.7874015748031497,
                    "duration": 0.125
                },
                {
                    "name": "C4",
                    "midi": 60,
                    "time": 34.125,
                    "velocity": 0.7874015748031497,
                    "duration": 0.125
                },
                {
                    "name": "D4",
                    "midi": 62,
                    "time": 34.25,
                    "velocity": 0.7874015748031497,
                    "duration": 0.125
                },
                {
                    "name": "E4",
                    "midi": 64,
                    "time": 34.375,
                    "velocity": 0.7874015748031497,
                    "duration": 0.125
                },
                {
                    "name": "D4",
                    "midi": 62,
                    "time": 34.5,
                    "velocity": 0.7874015748031497,
                    "duration": 0.1875
                },
                {
                    "name": "C4",
                    "midi": 60,
                    "time": 34.6875,
                    "velocity": 0.7874015748031497,
                    "duration": 0.1875
                },
                {
                    "name": "B3",
                    "midi": 59,
                    "time": 34.875,
                    "velocity": 0.7874015748031497,
                    "duration": 0.1875
                },
                {
                    "name": "A3",
                    "midi": 57,
                    "time": 35.0625,
                    "velocity": 0.7874015748031497,
                    "duration": 0.1875
                },
                {
                    "name": "G#3",
                    "midi": 56,
                    "time": 35.25,
                    "velocity": 0.7874015748031497,
                    "duration": 0.125
                },
                {
                    "name": "A3",
                    "midi": 57,
                    "time": 35.375,
                    "velocity": 0.7874015748031497,
                    "duration": 0.125
                },
                {
                    "name": "B3",
                    "midi": 59,
                    "time": 35.5,
                    "velocity": 0.7874015748031497,
                    "duration": 0.125
                },
                {
                    "name": "A3",
                    "midi": 57,
                    "time": 35.625,
                    "velocity": 0.7874015748031497,
                    "duration": 0.125
                },
                {
                    "name": "B3",
                    "midi": 59,
                    "time": 35.75,
                    "velocity": 0.7874015748031497,
                    "duration": 0.125
                },
                {
                    "name": "C4",
                    "midi": 60,
                    "time": 35.875,
                    "velocity": 0.7874015748031497,
                    "duration": 0.125
                },
                {
                    "name": "B3",
                    "midi": 59,
                    "time": 36,
                    "velocity": 0.7874015748031497,
                    "duration": 0.375
                },
                {
                    "name": "E3",
                    "midi": 52,
                    "time": 36.375,
                    "velocity": 0.7874015748031497,
                    "duration": 0.375
                },
                {
                    "name": "D4",
                    "midi": 62,
                    "time": 36.75,
                    "velocity": 0.7874015748031497,
                    "duration": 0.09375
                },
                {
                    "name": "C4",
                    "midi": 60,
                    "time": 36.84375,
                    "velocity": 0.7874015748031497,
                    "duration": 0.09375
                },
                {
                    "name": "D4",
                    "midi": 62,
                    "time": 36.9375,
                    "velocity": 0.7874015748031497,
                    "duration": 0.375
                },
                {
                    "name": "E4",
                    "midi": 64,
                    "time": 37.3125,
                    "velocity": 0.7874015748031497,
                    "duration": 0.1875
                },
                {
                    "name": "C4",
                    "midi": 60,
                    "time": 37.5,
                    "velocity": 0.7874015748031497,
                    "duration": 0.1875
                },
                {
                    "name": "B3",
                    "midi": 59,
                    "time": 37.6875,
                    "velocity": 0.7874015748031497,
                    "duration": 0.1875
                },
                {
                    "name": "A3",
                    "midi": 57,
                    "time": 37.875,
                    "velocity": 0.7874015748031497,
                    "duration": 0.1875
                },
                {
                    "name": "G3",
                    "midi": 55,
                    "time": 38.0625,
                    "velocity": 0.7874015748031497,
                    "duration": 0.1875
                },
                {
                    "name": "F#3",
                    "midi": 54,
                    "time": 38.25,
                    "velocity": 0.7874015748031497,
                    "duration": 0.125
                },
                {
                    "name": "G#3",
                    "midi": 56,
                    "time": 38.375,
                    "velocity": 0.7874015748031497,
                    "duration": 0.125
                },
                {
                    "name": "A3",
                    "midi": 57,
                    "time": 38.5,
                    "velocity": 0.7874015748031497,
                    "duration": 0.125
                },
                {
                    "name": "G#3",
                    "midi": 56,
                    "time": 38.625,
                    "velocity": 0.7874015748031497,
                    "duration": 0.125
                },
                {
                    "name": "A3",
                    "midi": 57,
                    "time": 38.75,
                    "velocity": 0.7874015748031497,
                    "duration": 0.125
                },
                {
                    "name": "B3",
                    "midi": 59,
                    "time": 38.875,
                    "velocity": 0.7874015748031497,
                    "duration": 0.125
                },
                {
                    "name": "A3",
                    "midi": 57,
                    "time": 39,
                    "velocity": 0.7874015748031497,
                    "duration": 0.125
                },
                {
                    "name": "B3",
                    "midi": 59,
                    "time": 39.125,
                    "velocity": 0.7874015748031497,
                    "duration": 0.125
                },
                {
                    "name": "C4",
                    "midi": 60,
                    "time": 39.25,
                    "velocity": 0.7874015748031497,
                    "duration": 0.125
                },
                {
                    "name": "B3",
                    "midi": 59,
                    "time": 39.375,
                    "velocity": 0.7874015748031497,
                    "duration": 0.125
                },
                {
                    "name": "C4",
                    "midi": 60,
                    "time": 39.5,
                    "velocity": 0.7874015748031497,
                    "duration": 0.125
                },
                {
                    "name": "D4",
                    "midi": 62,
                    "time": 39.625,
                    "velocity": 0.7874015748031497,
                    "duration": 0.125
                },
                {
                    "name": "C4",
                    "midi": 60,
                    "time": 39.75,
                    "velocity": 0.7874015748031497,
                    "duration": 0.125
                },
                {
                    "name": "D4",
                    "midi": 62,
                    "time": 39.875,
                    "velocity": 0.7874015748031497,
                    "duration": 0.125
                },
                {
                    "name": "E4",
                    "midi": 64,
                    "time": 40,
                    "velocity": 0.7874015748031497,
                    "duration": 0.125
                },
                {
                    "name": "D4",
                    "midi": 62,
                    "time": 40.125,
                    "velocity": 0.7874015748031497,
                    "duration": 0.125
                },
                {
                    "name": "E4",
                    "midi": 64,
                    "time": 40.25,
                    "velocity": 0.7874015748031497,
                    "duration": 0.125
                },
                {
                    "name": "F4",
                    "midi": 65,
                    "time": 40.375,
                    "velocity": 0.7874015748031497,
                    "duration": 0.125
                },
                {
                    "name": "E4",
                    "midi": 64,
                    "time": 40.5,
                    "velocity": 0.7874015748031497,
                    "duration": 0.375
                },
                {
                    "name": "A3",
                    "midi": 57,
                    "time": 40.875,
                    "velocity": 0.7874015748031497,
                    "duration": 0.375
                },
                {
                    "name": "E4",
                    "midi": 64,
                    "time": 41.25,
                    "velocity": 0.7874015748031497,
                    "duration": 0.375
                },
                {
                    "name": "E3",
                    "midi": 52,
                    "time": 41.625,
                    "velocity": 0.7874015748031497,
                    "duration": 0.375
                },
                {
                    "name": "A3",
                    "midi": 57,
                    "time": 42,
                    "velocity": 0.7874015748031497,
                    "duration": 0.375
                },
                {
                    "name": "A2",
                    "midi": 45,
                    "time": 42.375,
                    "velocity": 0.7874015748031497,
                    "duration": 0.375
                },
                {
                    "name": "E4",
                    "midi": 64,
                    "time": 43.6875,
                    "velocity": 0.7874015748031497,
                    "duration": 0.1875
                },
                {
                    "name": "D4",
                    "midi": 62,
                    "time": 43.875,
                    "velocity": 0.7874015748031497,
                    "duration": 0.1875
                },
                {
                    "name": "C4",
                    "midi": 60,
                    "time": 44.0625,
                    "velocity": 0.7874015748031497,
                    "duration": 0.1875
                },
                {
                    "name": "B3",
                    "midi": 59,
                    "time": 44.25,
                    "velocity": 0.7874015748031497,
                    "duration": 0.125
                },
                {
                    "name": "C#4",
                    "midi": 61,
                    "time": 44.375,
                    "velocity": 0.7874015748031497,
                    "duration": 0.125
                },
                {
                    "name": "D4",
                    "midi": 62,
                    "time": 44.5,
                    "velocity": 0.7874015748031497,
                    "duration": 0.125
                },
                {
                    "name": "C#4",
                    "midi": 61,
                    "time": 44.625,
                    "velocity": 0.7874015748031497,
                    "duration": 0.125
                },
                {
                    "name": "D4",
                    "midi": 62,
                    "time": 44.75,
                    "velocity": 0.7874015748031497,
                    "duration": 0.125
                },
                {
                    "name": "E4",
                    "midi": 64,
                    "time": 44.875,
                    "velocity": 0.7874015748031497,
                    "duration": 0.125
                },
                {
                    "name": "D4",
                    "midi": 62,
                    "time": 45,
                    "velocity": 0.7874015748031497,
                    "duration": 1.65625
                },
                {
                    "name": "A3",
                    "midi": 57,
                    "time": 46.6875,
                    "velocity": 0.7874015748031497,
                    "duration": 0.1875
                },
                {
                    "name": "B3",
                    "midi": 59,
                    "time": 46.875,
                    "velocity": 0.7874015748031497,
                    "duration": 0.1875
                },
                {
                    "name": "C4",
                    "midi": 60,
                    "time": 47.0625,
                    "velocity": 0.7874015748031497,
                    "duration": 0.1875
                },
                {
                    "name": "D4",
                    "midi": 62,
                    "time": 47.25,
                    "velocity": 0.7874015748031497,
                    "duration": 0.125
                },
                {
                    "name": "C4",
                    "midi": 60,
                    "time": 47.375,
                    "velocity": 0.7874015748031497,
                    "duration": 0.125
                },
                {
                    "name": "B3",
                    "midi": 59,
                    "time": 47.5,
                    "velocity": 0.7874015748031497,
                    "duration": 0.125
                },
                {
                    "name": "C4",
                    "midi": 60,
                    "time": 47.625,
                    "velocity": 0.7874015748031497,
                    "duration": 0.125
                },
                {
                    "name": "B3",
                    "midi": 59,
                    "time": 47.75,
                    "velocity": 0.7874015748031497,
                    "duration": 0.125
                },
                {
                    "name": "A3",
                    "midi": 57,
                    "time": 47.875,
                    "velocity": 0.7874015748031497,
                    "duration": 0.125
                },
                {
                    "name": "B3",
                    "midi": 59,
                    "time": 48,
                    "velocity": 0.7874015748031497,
                    "duration": 1.65625
                },
                {
                    "name": "D4",
                    "midi": 62,
                    "time": 49.6875,
                    "velocity": 0.7874015748031497,
                    "duration": 0.1875
                },
                {
                    "name": "C4",
                    "midi": 60,
                    "time": 49.875,
                    "velocity": 0.7874015748031497,
                    "duration": 0.1875
                },
                {
                    "name": "B3",
                    "midi": 59,
                    "time": 50.0625,
                    "velocity": 0.7874015748031497,
                    "duration": 0.1875
                },
                {
                    "name": "A3",
                    "midi": 57,
                    "time": 50.25,
                    "velocity": 0.7874015748031497,
                    "duration": 0.125
                },
                {
                    "name": "B3",
                    "midi": 59,
                    "time": 50.375,
                    "velocity": 0.7874015748031497,
                    "duration": 0.125
                },
                {
                    "name": "C4",
                    "midi": 60,
                    "time": 50.5,
                    "velocity": 0.7874015748031497,
                    "duration": 0.125
                },
                {
                    "name": "B3",
                    "midi": 59,
                    "time": 50.625,
                    "velocity": 0.7874015748031497,
                    "duration": 0.125
                },
                {
                    "name": "C4",
                    "midi": 60,
                    "time": 50.75,
                    "velocity": 0.7874015748031497,
                    "duration": 0.125
                },
                {
                    "name": "D4",
                    "midi": 62,
                    "time": 50.875,
                    "velocity": 0.7874015748031497,
                    "duration": 0.125
                },
                {
                    "name": "C4",
                    "midi": 60,
                    "time": 51,
                    "velocity": 0.7874015748031497,
                    "duration": 1.65625
                },
                {
                    "name": "G3",
                    "midi": 55,
                    "time": 52.6875,
                    "velocity": 0.7874015748031497,
                    "duration": 0.1875
                },
                {
                    "name": "A3",
                    "midi": 57,
                    "time": 52.875,
                    "velocity": 0.7874015748031497,
                    "duration": 0.1875
                },
                {
                    "name": "A#3",
                    "midi": 58,
                    "time": 53.0625,
                    "velocity": 0.7874015748031497,
                    "duration": 0.1875
                },
                {
                    "name": "C4",
                    "midi": 60,
                    "time": 53.25,
                    "velocity": 0.7874015748031497,
                    "duration": 0.125
                },
                {
                    "name": "A#3",
                    "midi": 58,
                    "time": 53.375,
                    "velocity": 0.7874015748031497,
                    "duration": 0.125
                },
                {
                    "name": "A3",
                    "midi": 57,
                    "time": 53.5,
                    "velocity": 0.7874015748031497,
                    "duration": 0.125
                },
                {
                    "name": "A#3",
                    "midi": 58,
                    "time": 53.625,
                    "velocity": 0.7874015748031497,
                    "duration": 0.125
                },
                {
                    "name": "A3",
                    "midi": 57,
                    "time": 53.75,
                    "velocity": 0.7874015748031497,
                    "duration": 0.125
                },
                {
                    "name": "G3",
                    "midi": 55,
                    "time": 53.875,
                    "velocity": 0.7874015748031497,
                    "duration": 0.125
                },
                {
                    "name": "A3",
                    "midi": 57,
                    "time": 54,
                    "velocity": 0.7874015748031497,
                    "duration": 0.375
                },
                {
                    "name": "A#3",
                    "midi": 58,
                    "time": 54.375,
                    "velocity": 0.7874015748031497,
                    "duration": 0.375
                },
                {
                    "name": "A3",
                    "midi": 57,
                    "time": 54.75,
                    "velocity": 0.7874015748031497,
                    "duration": 0.375
                },
                {
                    "name": "G3",
                    "midi": 55,
                    "time": 55.125,
                    "velocity": 0.7874015748031497,
                    "duration": 0.375
                },
                {
                    "name": "F3",
                    "midi": 53,
                    "time": 55.5,
                    "velocity": 0.7874015748031497,
                    "duration": 0.375
                },
                {
                    "name": "D4",
                    "midi": 62,
                    "time": 55.875,
                    "velocity": 0.7874015748031497,
                    "duration": 0.375
                },
                {
                    "name": "C4",
                    "midi": 60,
                    "time": 56.25,
                    "velocity": 0.7874015748031497,
                    "duration": 0.375
                },
                {
                    "name": "A#3",
                    "midi": 58,
                    "time": 56.625,
                    "velocity": 0.7874015748031497,
                    "duration": 0.375
                },
                {
                    "name": "A3",
                    "midi": 57,
                    "time": 57,
                    "velocity": 0.7874015748031497,
                    "duration": 0.375
                },
                {
                    "name": "F4",
                    "midi": 65,
                    "time": 57.375,
                    "velocity": 0.7874015748031497,
                    "duration": 0.375
                },
                {
                    "name": "E4",
                    "midi": 64,
                    "time": 57.75,
                    "velocity": 0.7874015748031497,
                    "duration": 0.375
                },
                {
                    "name": "D4",
                    "midi": 62,
                    "time": 58.125,
                    "velocity": 0.7874015748031497,
                    "duration": 0.375
                },
                {
                    "name": "E4",
                    "midi": 64,
                    "time": 58.5,
                    "velocity": 0.7874015748031497,
                    "duration": 0.1875
                },
                {
                    "name": "D3",
                    "midi": 50,
                    "time": 58.6875,
                    "velocity": 0.7874015748031497,
                    "duration": 0.1875
                },
                {
                    "name": "E3",
                    "midi": 52,
                    "time": 58.875,
                    "velocity": 0.7874015748031497,
                    "duration": 0.1875
                },
                {
                    "name": "F3",
                    "midi": 53,
                    "time": 59.0625,
                    "velocity": 0.7874015748031497,
                    "duration": 0.1875
                },
                {
                    "name": "G3",
                    "midi": 55,
                    "time": 59.25,
                    "velocity": 0.7874015748031497,
                    "duration": 0.125
                },
                {
                    "name": "F3",
                    "midi": 53,
                    "time": 59.375,
                    "velocity": 0.7874015748031497,
                    "duration": 0.125
                },
                {
                    "name": "E3",
                    "midi": 52,
                    "time": 59.5,
                    "velocity": 0.7874015748031497,
                    "duration": 0.125
                },
                {
                    "name": "F3",
                    "midi": 53,
                    "time": 59.625,
                    "velocity": 0.7874015748031497,
                    "duration": 0.125
                },
                {
                    "name": "E3",
                    "midi": 52,
                    "time": 59.75,
                    "velocity": 0.7874015748031497,
                    "duration": 0.125
                },
                {
                    "name": "D3",
                    "midi": 50,
                    "time": 59.875,
                    "velocity": 0.7874015748031497,
                    "duration": 0.125
                },
                {
                    "name": "E3",
                    "midi": 52,
                    "time": 60,
                    "velocity": 0.7874015748031497,
                    "duration": 0.375
                },
                {
                    "name": "C3",
                    "midi": 48,
                    "time": 60.375,
                    "velocity": 0.7874015748031497,
                    "duration": 0.375
                },
                {
                    "name": "D3",
                    "midi": 50,
                    "time": 60.75,
                    "velocity": 0.7874015748031497,
                    "duration": 0.375
                },
                {
                    "name": "E3",
                    "midi": 52,
                    "time": 61.125,
                    "velocity": 0.7874015748031497,
                    "duration": 0.375
                },
                {
                    "name": "F3",
                    "midi": 53,
                    "time": 61.5,
                    "velocity": 0.7874015748031497,
                    "duration": 0.1875
                },
                {
                    "name": "D3",
                    "midi": 50,
                    "time": 61.6875,
                    "velocity": 0.7874015748031497,
                    "duration": 0.1875
                },
                {
                    "name": "E3",
                    "midi": 52,
                    "time": 61.875,
                    "velocity": 0.7874015748031497,
                    "duration": 0.1875
                },
                {
                    "name": "F3",
                    "midi": 53,
                    "time": 62.0625,
                    "velocity": 0.7874015748031497,
                    "duration": 0.1875
                },
                {
                    "name": "G3",
                    "midi": 55,
                    "time": 62.25,
                    "velocity": 0.7874015748031497,
                    "duration": 0.375
                },
                {
                    "name": "G2",
                    "midi": 43,
                    "time": 62.625,
                    "velocity": 0.7874015748031497,
                    "duration": 0.375
                },
                {
                    "name": "C2",
                    "midi": 36,
                    "time": 63,
                    "velocity": 0.7874015748031497,
                    "duration": 3
                },
                {
                    "name": "C3",
                    "midi": 48,
                    "time": 63.0234375,
                    "velocity": 0.7874015748031497,
                    "duration": 2.9765625
                }
            ],
            "controlChanges": {
                "7": [
                    {
                        "number": 7,
                        "time": 0,
                        "value": 0.7874015748031497
                    }
                ],
                "10": [
                    {
                        "number": 10,
                        "time": 0,
                        "value": 0.25196850393700787
                    }
                ]
            },
            "id": 2,
            "name": "--------------------------------------",
            "instrumentNumber": 6,
            "instrument": "harpsichord",
            "instrumentFamily": "piano",
            "channelNumber": 1,
            "isPercussion": false
        },
        {
            "startTime": 0,
            "duration": 0,
            "length": 0,
            "notes": [],
            "controlChanges": {},
            "id": 3,
            "name": "Johann Sebastian Bach  (1685-1750)"
        },
        {
            "startTime": 0,
            "duration": 0,
            "length": 0,
            "notes": [],
            "controlChanges": {},
            "id": 4,
            "name": "Inventions and Sinfonias ( 2 and 3-Part Inventions )"
        },
        {
            "startTime": 0,
            "duration": 0,
            "length": 0,
            "notes": [],
            "controlChanges": {},
            "id": 5,
            "name": "--------------------------------------"
        },
        {
            "startTime": 0,
            "duration": 0,
            "length": 0,
            "notes": [],
            "controlChanges": {},
            "id": 6,
            "name": "Invention No. 1 in C Major (alt) - BWV 772a"
        },
        {
            "startTime": 0,
            "duration": 0,
            "length": 0,
            "notes": [],
            "controlChanges": {},
            "id": 7,
            "name": "--------------------------------------"
        },
        {
            "startTime": 0,
            "duration": 0,
            "length": 0,
            "notes": [],
            "controlChanges": {},
            "id": 8,
            "name": "Original sequence by an unknown author"
        },
        {
            "startTime": 0,
            "duration": 0,
            "length": 0,
            "notes": [],
            "controlChanges": {},
            "id": 9,
            "name": "Modified with Cakewalk Pro Audio by"
        },
        {
            "startTime": 0,
            "duration": 0,
            "length": 0,
            "notes": [],
            "controlChanges": {},
            "id": 10,
            "name": "David J. Grossman - dave@unpronounceable.com"
        },
        {
            "startTime": 0,
            "duration": 0,
            "length": 0,
            "notes": [],
            "controlChanges": {},
            "id": 11,
            "name": "This and other Bach MIDI files can be found at:"
        },
        {
            "startTime": 0,
            "duration": 0,
            "length": 0,
            "notes": [],
            "controlChanges": {},
            "id": 12,
            "name": "Dave's J.S. Bach Page"
        },
        {
            "startTime": 0,
            "duration": 0,
            "length": 0,
            "notes": [],
            "controlChanges": {},
            "id": 13,
            "name": "http://www.unpronounceable.com/bach"
        },
        {
            "startTime": 0,
            "duration": 0,
            "length": 0,
            "notes": [],
            "controlChanges": {},
            "id": 14,
            "name": "--------------------------------------"
        },
        {
            "startTime": 0,
            "duration": 0,
            "length": 0,
            "notes": [],
            "controlChanges": {},
            "id": 15,
            "name": "Original Filename: bwv772a.mid"
        },
        {
            "startTime": 0,
            "duration": 0,
            "length": 0,
            "notes": [],
            "controlChanges": {},
            "id": 16,
            "name": "Last Modified: March 18, 1997"
        }
    ]
}