{
    "header": {
        "PPQ": 384,
        "timeSignature": [
            2,
            2
        ],
        "bpm": 200,
        "name": "\"Duetto IV,\" BWV 805, by J.S. Bach"
    },
    "startTime": 0,
    "duration": 129.59374999999767,
    "tracks": [
        {
            "startTime": 0,
            "duration": 0,
            "length": 0,
            "notes": [],
            "controlChanges": {},
            "id": 0
        },
        {
            "startTime": 10.2,
            "duration": 129.59374999999767,
            "length": 587,
            "notes": [
                {
                    "name": "E5",
                    "midi": 76,
                    "time": 10.2,
                    "velocity": 0.7874015748031497,
                    "duration": 0.59375
                },
                {
                    "name": "F5",
                    "midi": 77,
                    "time": 10.799999999999999,
                    "velocity": 0.7874015748031497,
                    "duration": 0.59375
                },
                {
                    "name": "A4",
                    "midi": 69,
                    "time": 11.399999999999999,
                    "velocity": 0.7874015748031497,
                    "duration": 0.59375
                },
                {
                    "name": "C5",
                    "midi": 72,
                    "time": 11.999999999999998,
                    "velocity": 0.7874015748031497,
                    "duration": 0.1437500000000007
                },
                {
                    "name": "B4",
                    "midi": 71,
                    "time": 12.149999999999999,
                    "velocity": 0.7874015748031497,
                    "duration": 0.1437500000000007
                },
                {
                    "name": "A4",
                    "midi": 69,
                    "time": 12.299999999999999,
                    "velocity": 0.8503937007874016,
                    "duration": 0.59375
                },
                {
                    "name": "B4",
                    "midi": 71,
                    "time": 12.899999999999999,
                    "velocity": 0.7874015748031497,
                    "duration": 0.1437500000000007
                },
                {
                    "name": "C5",
                    "midi": 72,
                    "time": 13.049999999999999,
                    "velocity": 0.7874015748031497,
                    "duration": 0.1437500000000007
                },
                {
                    "name": "D5",
                    "midi": 74,
                    "time": 13.2,
                    "velocity": 0.7874015748031497,
                    "duration": 0.1437500000000007
                },
                {
                    "name": "E5",
                    "midi": 76,
                    "time": 13.35,
                    "velocity": 0.7874015748031497,
                    "duration": 0.1437500000000007
                },
                {
                    "name": "F5",
                    "midi": 77,
                    "time": 13.5,
                    "velocity": 0.8740157480314961,
                    "duration": 0.59375
                },
                {
                    "name": "E5",
                    "midi": 76,
                    "time": 14.1,
                    "velocity": 0.7874015748031497,
                    "duration": 0.1437500000000007
                },
                {
                    "name": "D#5",
                    "midi": 75,
                    "time": 14.25,
                    "velocity": 0.7874015748031497,
                    "duration": 0.1437500000000007
                },
                {
                    "name": "E5",
                    "midi": 76,
                    "time": 14.4,
                    "velocity": 0.7874015748031497,
                    "duration": 0.1437500000000007
                },
                {
                    "name": "B4",
                    "midi": 71,
                    "time": 14.55,
                    "velocity": 0.7874015748031497,
                    "duration": 0.1437500000000007
                },
                {
                    "name": "E5",
                    "midi": 76,
                    "time": 14.700000000000001,
                    "velocity": 0.7874015748031497,
                    "duration": 0.1437500000000007
                },
                {
                    "name": "F#5",
                    "midi": 78,
                    "time": 14.850000000000001,
                    "velocity": 0.7874015748031497,
                    "duration": 0.1437500000000007
                },
                {
                    "name": "E5",
                    "midi": 76,
                    "time": 15.000000000000002,
                    "velocity": 0.7874015748031497,
                    "duration": 0.1437500000000007
                },
                {
                    "name": "B4",
                    "midi": 71,
                    "time": 15.150000000000002,
                    "velocity": 0.7874015748031497,
                    "duration": 0.1437500000000007
                },
                {
                    "name": "E5",
                    "midi": 76,
                    "time": 15.300000000000002,
                    "velocity": 0.7874015748031497,
                    "duration": 0.1437500000000007
                },
                {
                    "name": "G5",
                    "midi": 79,
                    "time": 15.450000000000003,
                    "velocity": 0.7874015748031497,
                    "duration": 0.1437500000000007
                },
                {
                    "name": "F#5",
                    "midi": 78,
                    "time": 15.600000000000003,
                    "velocity": 0.7874015748031497,
                    "duration": 0.1437500000000007
                },
                {
                    "name": "B4",
                    "midi": 71,
                    "time": 15.750000000000004,
                    "velocity": 0.7874015748031497,
                    "duration": 0.1437500000000007
                },
                {
                    "name": "F#5",
                    "midi": 78,
                    "time": 15.900000000000004,
                    "velocity": 0.7874015748031497,
                    "duration": 0.14374999999999893
                },
                {
                    "name": "G5",
                    "midi": 79,
                    "time": 16.050000000000004,
                    "velocity": 0.7874015748031497,
                    "duration": 0.1437500000000007
                },
                {
                    "name": "F#5",
                    "midi": 78,
                    "time": 16.200000000000006,
                    "velocity": 0.7874015748031497,
                    "duration": 0.1437500000000007
                },
                {
                    "name": "B4",
                    "midi": 71,
                    "time": 16.35000000000001,
                    "velocity": 0.7874015748031497,
                    "duration": 0.1437500000000007
                },
                {
                    "name": "F#5",
                    "midi": 78,
                    "time": 16.50000000000001,
                    "velocity": 0.7874015748031497,
                    "duration": 0.1437500000000007
                },
                {
                    "name": "A5",
                    "midi": 81,
                    "time": 16.650000000000013,
                    "velocity": 0.7874015748031497,
                    "duration": 0.1437500000000007
                },
                {
                    "name": "G5",
                    "midi": 79,
                    "time": 16.800000000000015,
                    "velocity": 0.7874015748031497,
                    "duration": 0.1437500000000007
                },
                {
                    "name": "B4",
                    "midi": 71,
                    "time": 16.950000000000017,
                    "velocity": 0.7874015748031497,
                    "duration": 0.1437500000000007
                },
                {
                    "name": "G5",
                    "midi": 79,
                    "time": 17.10000000000002,
                    "velocity": 0.7874015748031497,
                    "duration": 0.1437500000000007
                },
                {
                    "name": "A5",
                    "midi": 81,
                    "time": 17.25000000000002,
                    "velocity": 0.7874015748031497,
                    "duration": 0.1437500000000007
                },
                {
                    "name": "G5",
                    "midi": 79,
                    "time": 17.400000000000023,
                    "velocity": 0.7874015748031497,
                    "duration": 0.1437500000000007
                },
                {
                    "name": "B4",
                    "midi": 71,
                    "time": 17.550000000000026,
                    "velocity": 0.7874015748031497,
                    "duration": 0.1437500000000007
                },
                {
                    "name": "G5",
                    "midi": 79,
                    "time": 17.700000000000028,
                    "velocity": 0.7874015748031497,
                    "duration": 0.1437500000000007
                },
                {
                    "name": "B5",
                    "midi": 83,
                    "time": 17.85000000000003,
                    "velocity": 0.7874015748031497,
                    "duration": 0.1437500000000007
                },
                {
                    "name": "F#5",
                    "midi": 78,
                    "time": 18.000000000000032,
                    "velocity": 0.7874015748031497,
                    "duration": 0.1437500000000007
                },
                {
                    "name": "B4",
                    "midi": 71,
                    "time": 18.150000000000034,
                    "velocity": 0.7874015748031497,
                    "duration": 0.1437500000000007
                },
                {
                    "name": "F#5",
                    "midi": 78,
                    "time": 18.300000000000036,
                    "velocity": 0.7874015748031497,
                    "duration": 0.1437500000000007
                },
                {
                    "name": "G5",
                    "midi": 79,
                    "time": 18.45000000000004,
                    "velocity": 0.7874015748031497,
                    "duration": 0.1437500000000007
                },
                {
                    "name": "F#5",
                    "midi": 78,
                    "time": 18.60000000000004,
                    "velocity": 0.7874015748031497,
                    "duration": 0.1437500000000007
                },
                {
                    "name": "B4",
                    "midi": 71,
                    "time": 18.750000000000043,
                    "velocity": 0.7874015748031497,
                    "duration": 0.1437500000000007
                },
                {
                    "name": "F#5",
                    "midi": 78,
                    "time": 18.900000000000045,
                    "velocity": 0.7874015748031497,
                    "duration": 0.1437500000000007
                },
                {
                    "name": "A5",
                    "midi": 81,
                    "time": 19.050000000000047,
                    "velocity": 0.7874015748031497,
                    "duration": 0.1437500000000007
                },
                {
                    "name": "G5",
                    "midi": 79,
                    "time": 19.20000000000005,
                    "velocity": 0.7874015748031497,
                    "duration": 0.1437500000000007
                },
                {
                    "name": "F#5",
                    "midi": 78,
                    "time": 19.35000000000005,
                    "velocity": 0.7795275590551181,
                    "duration": 0.1437500000000007
                },
                {
                    "name": "E5",
                    "midi": 76,
                    "time": 19.500000000000053,
                    "velocity": 0.7716535433070866,
                    "duration": 0.4437500000000014
                },
                {
                    "name": "D5",
                    "midi": 74,
                    "time": 20.100000000000055,
                    "velocity": 0.6929133858267716,
                    "duration": 0.1437500000000007
                },
                {
                    "name": "C#5",
                    "midi": 73,
                    "time": 20.400000000000055,
                    "velocity": 0.6692913385826772,
                    "duration": 0.1437500000000007
                },
                {
                    "name": "A#5",
                    "midi": 82,
                    "time": 20.700000000000056,
                    "velocity": 0.6692913385826772,
                    "duration": 0.2937499999999993
                },
                {
                    "name": "A5",
                    "midi": 81,
                    "time": 21.000000000000057,
                    "velocity": 0.6692913385826772,
                    "duration": 0.06875000000000142
                },
                {
                    "name": "A#5",
                    "midi": 82,
                    "time": 21.07500000000006,
                    "velocity": 0.6692913385826772,
                    "duration": 0.06875000000000142
                },
                {
                    "name": "A5",
                    "midi": 81,
                    "time": 21.150000000000063,
                    "velocity": 0.6692913385826772,
                    "duration": 0.1437500000000007
                },
                {
                    "name": "G5",
                    "midi": 79,
                    "time": 21.300000000000065,
                    "velocity": 0.6692913385826772,
                    "duration": 0.1437500000000007
                },
                {
                    "name": "A#4",
                    "midi": 70,
                    "time": 21.600000000000065,
                    "velocity": 0.6692913385826772,
                    "duration": 0.1437500000000007
                },
                {
                    "name": "G5",
                    "midi": 79,
                    "time": 21.900000000000066,
                    "velocity": 0.6692913385826772,
                    "duration": 0.2937499999999993
                },
                {
                    "name": "F5",
                    "midi": 77,
                    "time": 22.200000000000067,
                    "velocity": 0.6692913385826772,
                    "duration": 0.06875000000000142
                },
                {
                    "name": "G5",
                    "midi": 79,
                    "time": 22.27500000000007,
                    "velocity": 0.6692913385826772,
                    "duration": 0.06875000000000142
                },
                {
                    "name": "F5",
                    "midi": 77,
                    "time": 22.350000000000072,
                    "velocity": 0.6692913385826772,
                    "duration": 0.1437500000000007
                },
                {
                    "name": "E5",
                    "midi": 76,
                    "time": 22.500000000000075,
                    "velocity": 0.6692913385826772,
                    "duration": 0.1437500000000007
                },
                {
                    "name": "G4",
                    "midi": 67,
                    "time": 22.800000000000075,
                    "velocity": 0.6692913385826772,
                    "duration": 0.1437500000000007
                },
                {
                    "name": "E5",
                    "midi": 76,
                    "time": 23.100000000000076,
                    "velocity": 0.6692913385826772,
                    "duration": 0.2937499999999993
                },
                {
                    "name": "D5",
                    "midi": 74,
                    "time": 23.400000000000077,
                    "velocity": 0.6692913385826772,
                    "duration": 0.06875000000000142
                },
                {
                    "name": "E5",
                    "midi": 76,
                    "time": 23.47500000000008,
                    "velocity": 0.6692913385826772,
                    "duration": 0.06875000000000142
                },
                {
                    "name": "D5",
                    "midi": 74,
                    "time": 23.550000000000082,
                    "velocity": 0.6692913385826772,
                    "duration": 0.1437500000000007
                },
                {
                    "name": "C#5",
                    "midi": 73,
                    "time": 23.700000000000085,
                    "velocity": 0.6692913385826772,
                    "duration": 0.1437500000000007
                },
                {
                    "name": "D5",
                    "midi": 74,
                    "time": 24.000000000000085,
                    "velocity": 0.6692913385826772,
                    "duration": 0.1437500000000007
                },
                {
                    "name": "G4",
                    "midi": 67,
                    "time": 24.150000000000087,
                    "velocity": 0.6692913385826772,
                    "duration": 0.1437500000000007
                },
                {
                    "name": "F4",
                    "midi": 65,
                    "time": 24.30000000000009,
                    "velocity": 0.6692913385826772,
                    "duration": 0.1437500000000007
                },
                {
                    "name": "E4",
                    "midi": 64,
                    "time": 24.45000000000009,
                    "velocity": 0.6692913385826772,
                    "duration": 0.1437500000000007
                },
                {
                    "name": "D4",
                    "midi": 62,
                    "time": 24.600000000000094,
                    "velocity": 0.6692913385826772,
                    "duration": 0.1437500000000007
                },
                {
                    "name": "C5",
                    "midi": 72,
                    "time": 24.900000000000095,
                    "velocity": 0.6692913385826772,
                    "duration": 0.1437500000000007
                },
                {
                    "name": "B4",
                    "midi": 71,
                    "time": 25.200000000000095,
                    "velocity": 0.6692913385826772,
                    "duration": 0.1437500000000007
                },
                {
                    "name": "G#5",
                    "midi": 80,
                    "time": 25.500000000000096,
                    "velocity": 0.6692913385826772,
                    "duration": 0.2937499999999993
                },
                {
                    "name": "G5",
                    "midi": 79,
                    "time": 25.800000000000097,
                    "velocity": 0.6692913385826772,
                    "duration": 0.06875000000000142
                },
                {
                    "name": "G#5",
                    "midi": 80,
                    "time": 25.8750000000001,
                    "velocity": 0.6692913385826772,
                    "duration": 0.06875000000000142
                },
                {
                    "name": "G5",
                    "midi": 79,
                    "time": 25.950000000000102,
                    "velocity": 0.6692913385826772,
                    "duration": 0.1437500000000007
                },
                {
                    "name": "F5",
                    "midi": 77,
                    "time": 26.100000000000104,
                    "velocity": 0.6692913385826772,
                    "duration": 0.1437500000000007
                },
                {
                    "name": "G#4",
                    "midi": 68,
                    "time": 26.400000000000105,
                    "velocity": 0.6692913385826772,
                    "duration": 0.1437500000000007
                },
                {
                    "name": "F5",
                    "midi": 77,
                    "time": 26.700000000000106,
                    "velocity": 0.6692913385826772,
                    "duration": 0.2937499999999993
                },
                {
                    "name": "E5",
                    "midi": 76,
                    "time": 27.000000000000107,
                    "velocity": 0.6692913385826772,
                    "duration": 0.06875000000000142
                },
                {
                    "name": "F5",
                    "midi": 77,
                    "time": 27.07500000000011,
                    "velocity": 0.6692913385826772,
                    "duration": 0.06875000000000142
                },
                {
                    "name": "E5",
                    "midi": 76,
                    "time": 27.150000000000112,
                    "velocity": 0.6692913385826772,
                    "duration": 0.1437500000000007
                },
                {
                    "name": "D5",
                    "midi": 74,
                    "time": 27.300000000000114,
                    "velocity": 0.6692913385826772,
                    "duration": 0.1437500000000007
                },
                {
                    "name": "F4",
                    "midi": 65,
                    "time": 27.600000000000115,
                    "velocity": 0.6692913385826772,
                    "duration": 0.1437500000000007
                },
                {
                    "name": "D5",
                    "midi": 74,
                    "time": 27.900000000000116,
                    "velocity": 0.6692913385826772,
                    "duration": 0.2937499999999993
                },
                {
                    "name": "C5",
                    "midi": 72,
                    "time": 28.200000000000117,
                    "velocity": 0.6692913385826772,
                    "duration": 0.06875000000000142
                },
                {
                    "name": "D5",
                    "midi": 74,
                    "time": 28.27500000000012,
                    "velocity": 0.6692913385826772,
                    "duration": 0.06875000000000142
                },
                {
                    "name": "C5",
                    "midi": 72,
                    "time": 28.350000000000122,
                    "velocity": 0.6692913385826772,
                    "duration": 0.1437500000000007
                },
                {
                    "name": "B4",
                    "midi": 71,
                    "time": 28.500000000000124,
                    "velocity": 0.6692913385826772,
                    "duration": 0.1437500000000007
                },
                {
                    "name": "C5",
                    "midi": 72,
                    "time": 28.800000000000125,
                    "velocity": 0.6692913385826772,
                    "duration": 0.1437500000000007
                },
                {
                    "name": "F4",
                    "midi": 65,
                    "time": 28.950000000000127,
                    "velocity": 0.6692913385826772,
                    "duration": 0.1437500000000007
                },
                {
                    "name": "E4",
                    "midi": 64,
                    "time": 29.10000000000013,
                    "velocity": 0.6692913385826772,
                    "duration": 0.1437500000000007
                },
                {
                    "name": "D4",
                    "midi": 62,
                    "time": 29.25000000000013,
                    "velocity": 0.6692913385826772,
                    "duration": 0.1437500000000007
                },
                {
                    "name": "C4",
                    "midi": 60,
                    "time": 29.400000000000134,
                    "velocity": 0.6692913385826772,
                    "duration": 0.1437500000000007
                },
                {
                    "name": "A#4",
                    "midi": 70,
                    "time": 29.700000000000134,
                    "velocity": 0.6692913385826772,
                    "duration": 0.21875
                },
                {
                    "name": "A4",
                    "midi": 69,
                    "time": 30.000000000000135,
                    "velocity": 0.7874015748031497,
                    "duration": 0.1437500000000007
                },
                {
                    "name": "G5",
                    "midi": 79,
                    "time": 30.150000000000137,
                    "velocity": 0.7874015748031497,
                    "duration": 0.1437500000000007
                },
                {
                    "name": "F5",
                    "midi": 77,
                    "time": 30.30000000000014,
                    "velocity": 0.7874015748031497,
                    "duration": 0.1437500000000007
                },
                {
                    "name": "E5",
                    "midi": 76,
                    "time": 30.45000000000014,
                    "velocity": 0.7874015748031497,
                    "duration": 0.1437500000000007
                },
                {
                    "name": "F5",
                    "midi": 77,
                    "time": 30.600000000000144,
                    "velocity": 0.7874015748031497,
                    "duration": 0.1437500000000007
                },
                {
                    "name": "D5",
                    "midi": 74,
                    "time": 30.750000000000146,
                    "velocity": 0.7874015748031497,
                    "duration": 0.1437500000000007
                },
                {
                    "name": "A4",
                    "midi": 69,
                    "time": 30.900000000000148,
                    "velocity": 0.7874015748031497,
                    "duration": 0.4437500000000014
                },
                {
                    "name": "G4",
                    "midi": 67,
                    "time": 31.35000000000015,
                    "velocity": 0.7874015748031497,
                    "duration": 0.1437500000000007
                },
                {
                    "name": "A4",
                    "midi": 69,
                    "time": 31.500000000000153,
                    "velocity": 0.7874015748031497,
                    "duration": 0.1437500000000007
                },
                {
                    "name": "B4",
                    "midi": 71,
                    "time": 31.650000000000155,
                    "velocity": 0.7874015748031497,
                    "duration": 0.1437500000000007
                },
                {
                    "name": "G4",
                    "midi": 67,
                    "time": 31.800000000000157,
                    "velocity": 0.7874015748031497,
                    "duration": 0.1437500000000007
                },
                {
                    "name": "C5",
                    "midi": 72,
                    "time": 31.95000000000016,
                    "velocity": 0.7874015748031497,
                    "duration": 0.14374999999999716
                },
                {
                    "name": "E5",
                    "midi": 76,
                    "time": 32.10000000000016,
                    "velocity": 0.7874015748031497,
                    "duration": 0.14374999999999716
                },
                {
                    "name": "F4",
                    "midi": 65,
                    "time": 32.400000000000155,
                    "velocity": 0.7874015748031497,
                    "duration": 0.14374999999999716
                },
                {
                    "name": "E5",
                    "midi": 76,
                    "time": 32.55000000000015,
                    "velocity": 0.7874015748031497,
                    "duration": 0.14374999999999716
                },
                {
                    "name": "D5",
                    "midi": 74,
                    "time": 32.70000000000015,
                    "velocity": 0.7874015748031497,
                    "duration": 0.14374999999999716
                },
                {
                    "name": "C5",
                    "midi": 72,
                    "time": 32.85000000000015,
                    "velocity": 0.7874015748031497,
                    "duration": 0.14374999999999716
                },
                {
                    "name": "D5",
                    "midi": 74,
                    "time": 33.00000000000015,
                    "velocity": 0.7874015748031497,
                    "duration": 0.14374999999999716
                },
                {
                    "name": "B4",
                    "midi": 71,
                    "time": 33.15000000000015,
                    "velocity": 0.7874015748031497,
                    "duration": 0.14374999999999716
                },
                {
                    "name": "F4",
                    "midi": 65,
                    "time": 33.300000000000146,
                    "velocity": 0.7874015748031497,
                    "duration": 0.4437500000000014
                },
                {
                    "name": "E4",
                    "midi": 64,
                    "time": 33.75000000000015,
                    "velocity": 0.7874015748031497,
                    "duration": 0.14374999999999716
                },
                {
                    "name": "F4",
                    "midi": 65,
                    "time": 33.90000000000015,
                    "velocity": 0.7874015748031497,
                    "duration": 0.14374999999999716
                },
                {
                    "name": "G4",
                    "midi": 67,
                    "time": 34.050000000000146,
                    "velocity": 0.7874015748031497,
                    "duration": 0.14374999999999716
                },
                {
                    "name": "E4",
                    "midi": 64,
                    "time": 34.200000000000145,
                    "velocity": 0.7874015748031497,
                    "duration": 0.14374999999999716
                },
                {
                    "name": "G4",
                    "midi": 67,
                    "time": 34.35000000000014,
                    "velocity": 0.7874015748031497,
                    "duration": 0.14374999999999716
                },
                {
                    "name": "C5",
                    "midi": 72,
                    "time": 34.50000000000014,
                    "velocity": 0.7874015748031497,
                    "duration": 0.14374999999999716
                },
                {
                    "name": "D4",
                    "midi": 62,
                    "time": 34.80000000000014,
                    "velocity": 0.7874015748031497,
                    "duration": 0.14374999999999716
                },
                {
                    "name": "C5",
                    "midi": 72,
                    "time": 34.95000000000014,
                    "velocity": 0.7795275590551181,
                    "duration": 0.14374999999999716
                },
                {
                    "name": "B4",
                    "midi": 71,
                    "time": 35.100000000000136,
                    "velocity": 0.7716535433070866,
                    "duration": 0.14374999999999716
                },
                {
                    "name": "A4",
                    "midi": 69,
                    "time": 35.250000000000135,
                    "velocity": 0.7637795275590551,
                    "duration": 0.14374999999999716
                },
                {
                    "name": "B4",
                    "midi": 71,
                    "time": 35.400000000000134,
                    "velocity": 0.7480314960629921,
                    "duration": 0.14374999999999716
                },
                {
                    "name": "G#4",
                    "midi": 68,
                    "time": 35.55000000000013,
                    "velocity": 0.7401574803149606,
                    "duration": 0.14374999999999716
                },
                {
                    "name": "D4",
                    "midi": 62,
                    "time": 35.70000000000013,
                    "velocity": 0.7322834645669292,
                    "duration": 0.4437500000000014
                },
                {
                    "name": "C4",
                    "midi": 60,
                    "time": 36.150000000000134,
                    "velocity": 0.7007874015748031,
                    "duration": 0.14374999999999716
                },
                {
                    "name": "D4",
                    "midi": 62,
                    "time": 36.30000000000013,
                    "velocity": 0.6929133858267716,
                    "duration": 0.14374999999999716
                },
                {
                    "name": "E4",
                    "midi": 64,
                    "time": 36.45000000000013,
                    "velocity": 0.6850393700787402,
                    "duration": 0.14374999999999716
                },
                {
                    "name": "C4",
                    "midi": 60,
                    "time": 36.60000000000013,
                    "velocity": 0.6692913385826772,
                    "duration": 0.14374999999999716
                },
                {
                    "name": "F4",
                    "midi": 65,
                    "time": 36.75000000000013,
                    "velocity": 0.6614173228346457,
                    "duration": 0.14374999999999716
                },
                {
                    "name": "E4",
                    "midi": 64,
                    "time": 36.90000000000013,
                    "velocity": 0.6535433070866141,
                    "duration": 0.14374999999999716
                },
                {
                    "name": "D4",
                    "midi": 62,
                    "time": 37.050000000000125,
                    "velocity": 0.6456692913385826,
                    "duration": 0.14374999999999716
                },
                {
                    "name": "E4",
                    "midi": 64,
                    "time": 37.200000000000124,
                    "velocity": 0.6535433070866141,
                    "duration": 0.29375000000000284
                },
                {
                    "name": "A3",
                    "midi": 57,
                    "time": 37.50000000000013,
                    "velocity": 0.6535433070866141,
                    "duration": 0.59375
                },
                {
                    "name": "G#3",
                    "midi": 56,
                    "time": 38.10000000000013,
                    "velocity": 0.6535433070866141,
                    "duration": 0.29375000000000284
                },
                {
                    "name": "A3",
                    "midi": 57,
                    "time": 38.400000000000134,
                    "velocity": 0.6535433070866141,
                    "duration": 0.29375000000000284
                },
                {
                    "name": "A4",
                    "midi": 69,
                    "time": 39.000000000000135,
                    "velocity": 0.6535433070866141,
                    "duration": 0.59375
                },
                {
                    "name": "C5",
                    "midi": 72,
                    "time": 39.600000000000136,
                    "velocity": 0.6535433070866141,
                    "duration": 0.59375
                },
                {
                    "name": "E4",
                    "midi": 64,
                    "time": 40.20000000000014,
                    "velocity": 0.6535433070866141,
                    "duration": 0.59375
                },
                {
                    "name": "F4",
                    "midi": 65,
                    "time": 40.80000000000014,
                    "velocity": 0.6535433070866141,
                    "duration": 0.14374999999999716
                },
                {
                    "name": "E4",
                    "midi": 64,
                    "time": 40.95000000000014,
                    "velocity": 0.6535433070866141,
                    "duration": 0.14374999999999716
                },
                {
                    "name": "D4",
                    "midi": 62,
                    "time": 41.100000000000136,
                    "velocity": 0.6535433070866141,
                    "duration": 0.59375
                },
                {
                    "name": "E4",
                    "midi": 64,
                    "time": 41.70000000000014,
                    "velocity": 0.6535433070866141,
                    "duration": 0.14374999999999716
                },
                {
                    "name": "F#4",
                    "midi": 66,
                    "time": 41.850000000000136,
                    "velocity": 0.6535433070866141,
                    "duration": 0.14374999999999716
                },
                {
                    "name": "G4",
                    "midi": 67,
                    "time": 42.000000000000135,
                    "velocity": 0.6535433070866141,
                    "duration": 0.14374999999999716
                },
                {
                    "name": "A4",
                    "midi": 69,
                    "time": 42.150000000000134,
                    "velocity": 0.6535433070866141,
                    "duration": 0.14374999999999716
                },
                {
                    "name": "A#4",
                    "midi": 70,
                    "time": 42.30000000000013,
                    "velocity": 0.6535433070866141,
                    "duration": 0.53125
                },
                {
                    "name": "A4",
                    "midi": 69,
                    "time": 42.900000000000134,
                    "velocity": 0.7244094488188977,
                    "duration": 0.14374999999999716
                },
                {
                    "name": "G#4",
                    "midi": 68,
                    "time": 43.05000000000013,
                    "velocity": 0.7716535433070866,
                    "duration": 0.14374999999999716
                },
                {
                    "name": "A4",
                    "midi": 69,
                    "time": 43.20000000000013,
                    "velocity": 0.7874015748031497,
                    "duration": 0.14374999999999716
                },
                {
                    "name": "E4",
                    "midi": 64,
                    "time": 43.35000000000013,
                    "velocity": 0.7874015748031497,
                    "duration": 0.14374999999999716
                },
                {
                    "name": "A4",
                    "midi": 69,
                    "time": 43.50000000000013,
                    "velocity": 0.7874015748031497,
                    "duration": 0.14374999999999716
                },
                {
                    "name": "B4",
                    "midi": 71,
                    "time": 43.65000000000013,
                    "velocity": 0.7874015748031497,
                    "duration": 0.14374999999999716
                },
                {
                    "name": "A4",
                    "midi": 69,
                    "time": 43.800000000000125,
                    "velocity": 0.7874015748031497,
                    "duration": 0.14374999999999716
                },
                {
                    "name": "E4",
                    "midi": 64,
                    "time": 43.950000000000124,
                    "velocity": 0.7874015748031497,
                    "duration": 0.14374999999999716
                },
                {
                    "name": "A4",
                    "midi": 69,
                    "time": 44.10000000000012,
                    "velocity": 0.7874015748031497,
                    "duration": 0.14374999999999716
                },
                {
                    "name": "C5",
                    "midi": 72,
                    "time": 44.25000000000012,
                    "velocity": 0.7874015748031497,
                    "duration": 0.14374999999999716
                },
                {
                    "name": "B4",
                    "midi": 71,
                    "time": 44.40000000000012,
                    "velocity": 0.7874015748031497,
                    "duration": 0.14374999999999716
                },
                {
                    "name": "E4",
                    "midi": 64,
                    "time": 44.55000000000012,
                    "velocity": 0.7874015748031497,
                    "duration": 0.14374999999999716
                },
                {
                    "name": "B4",
                    "midi": 71,
                    "time": 44.70000000000012,
                    "velocity": 0.7874015748031497,
                    "duration": 0.14374999999999716
                },
                {
                    "name": "C5",
                    "midi": 72,
                    "time": 44.850000000000115,
                    "velocity": 0.7874015748031497,
                    "duration": 0.14374999999999716
                },
                {
                    "name": "B4",
                    "midi": 71,
                    "time": 45.000000000000114,
                    "velocity": 0.7874015748031497,
                    "duration": 0.14374999999999716
                },
                {
                    "name": "E4",
                    "midi": 64,
                    "time": 45.15000000000011,
                    "velocity": 0.7874015748031497,
                    "duration": 0.14374999999999716
                },
                {
                    "name": "B4",
                    "midi": 71,
                    "time": 45.30000000000011,
                    "velocity": 0.7874015748031497,
                    "duration": 0.14374999999999716
                },
                {
                    "name": "D5",
                    "midi": 74,
                    "time": 45.45000000000011,
                    "velocity": 0.7874015748031497,
                    "duration": 0.14374999999999716
                },
                {
                    "name": "C5",
                    "midi": 72,
                    "time": 45.60000000000011,
                    "velocity": 0.7874015748031497,
                    "duration": 0.14374999999999716
                },
                {
                    "name": "E4",
                    "midi": 64,
                    "time": 45.75000000000011,
                    "velocity": 0.7874015748031497,
                    "duration": 0.14374999999999716
                },
                {
                    "name": "C5",
                    "midi": 72,
                    "time": 45.900000000000105,
                    "velocity": 0.7874015748031497,
                    "duration": 0.14374999999999716
                },
                {
                    "name": "D5",
                    "midi": 74,
                    "time": 46.050000000000104,
                    "velocity": 0.7874015748031497,
                    "duration": 0.14374999999999716
                },
                {
                    "name": "C5",
                    "midi": 72,
                    "time": 46.2000000000001,
                    "velocity": 0.7874015748031497,
                    "duration": 0.14374999999999716
                },
                {
                    "name": "E4",
                    "midi": 64,
                    "time": 46.3500000000001,
                    "velocity": 0.7874015748031497,
                    "duration": 0.14374999999999716
                },
                {
                    "name": "C5",
                    "midi": 72,
                    "time": 46.5000000000001,
                    "velocity": 0.7874015748031497,
                    "duration": 0.14374999999999716
                },
                {
                    "name": "E5",
                    "midi": 76,
                    "time": 46.6500000000001,
                    "velocity": 0.7874015748031497,
                    "duration": 0.14374999999999716
                },
                {
                    "name": "B4",
                    "midi": 71,
                    "time": 46.8000000000001,
                    "velocity": 0.7874015748031497,
                    "duration": 0.14374999999999716
                },
                {
                    "name": "E4",
                    "midi": 64,
                    "time": 46.950000000000095,
                    "velocity": 0.7874015748031497,
                    "duration": 0.14374999999999716
                },
                {
                    "name": "B4",
                    "midi": 71,
                    "time": 47.100000000000094,
                    "velocity": 0.7874015748031497,
                    "duration": 0.14374999999999716
                },
                {
                    "name": "C5",
                    "midi": 72,
                    "time": 47.25000000000009,
                    "velocity": 0.7874015748031497,
                    "duration": 0.14374999999999716
                },
                {
                    "name": "B4",
                    "midi": 71,
                    "time": 47.40000000000009,
                    "velocity": 0.7874015748031497,
                    "duration": 0.14374999999999716
                },
                {
                    "name": "E4",
                    "midi": 64,
                    "time": 47.55000000000009,
                    "velocity": 0.7874015748031497,
                    "duration": 0.14374999999999716
                },
                {
                    "name": "B4",
                    "midi": 71,
                    "time": 47.70000000000009,
                    "velocity": 0.7874015748031497,
                    "duration": 0.14374999999999716
                },
                {
                    "name": "D5",
                    "midi": 74,
                    "time": 47.85000000000009,
                    "velocity": 0.7874015748031497,
                    "duration": 0.14374999999999716
                },
                {
                    "name": "C5",
                    "midi": 72,
                    "time": 48.000000000000085,
                    "velocity": 0.7874015748031497,
                    "duration": 0.14374999999999716
                },
                {
                    "name": "B4",
                    "midi": 71,
                    "time": 48.150000000000084,
                    "velocity": 0.7874015748031497,
                    "duration": 0.14374999999999716
                },
                {
                    "name": "A4",
                    "midi": 69,
                    "time": 48.30000000000008,
                    "velocity": 0.7874015748031497,
                    "duration": 0.4437500000000014
                },
                {
                    "name": "G#4",
                    "midi": 68,
                    "time": 48.900000000000084,
                    "velocity": 0.7874015748031497,
                    "duration": 0.29375000000000284
                },
                {
                    "name": "A4",
                    "midi": 69,
                    "time": 49.20000000000009,
                    "velocity": 0.7874015748031497,
                    "duration": 0.14374999999999716
                },
                {
                    "name": "C5",
                    "midi": 72,
                    "time": 49.35000000000009,
                    "velocity": 0.7874015748031497,
                    "duration": 0.14374999999999716
                },
                {
                    "name": "B4",
                    "midi": 71,
                    "time": 49.500000000000085,
                    "velocity": 0.7874015748031497,
                    "duration": 0.14374999999999716
                },
                {
                    "name": "D5",
                    "midi": 74,
                    "time": 49.650000000000084,
                    "velocity": 0.7874015748031497,
                    "duration": 0.14374999999999716
                },
                {
                    "name": "C5",
                    "midi": 72,
                    "time": 49.80000000000008,
                    "velocity": 0.7874015748031497,
                    "duration": 0.14374999999999716
                },
                {
                    "name": "B4",
                    "midi": 71,
                    "time": 49.95000000000008,
                    "velocity": 0.7874015748031497,
                    "duration": 0.14374999999999716
                },
                {
                    "name": "C5",
                    "midi": 72,
                    "time": 50.10000000000008,
                    "velocity": 0.7874015748031497,
                    "duration": 0.14374999999999716
                },
                {
                    "name": "A4",
                    "midi": 69,
                    "time": 50.25000000000008,
                    "velocity": 0.7874015748031497,
                    "duration": 0.14374999999999716
                },
                {
                    "name": "E4",
                    "midi": 64,
                    "time": 50.40000000000008,
                    "velocity": 0.7874015748031497,
                    "duration": 0.29375000000000284
                },
                {
                    "name": "F#4",
                    "midi": 66,
                    "time": 50.70000000000008,
                    "velocity": 0.7874015748031497,
                    "duration": 0.29375000000000284
                },
                {
                    "name": "G4",
                    "midi": 67,
                    "time": 51.000000000000085,
                    "velocity": 0.7874015748031497,
                    "duration": 0.29375000000000284
                },
                {
                    "name": "F#4",
                    "midi": 66,
                    "time": 51.30000000000009,
                    "velocity": 0.7874015748031497,
                    "duration": 0.14374999999999716
                },
                {
                    "name": "E4",
                    "midi": 64,
                    "time": 51.45000000000009,
                    "velocity": 0.7874015748031497,
                    "duration": 0.14374999999999716
                },
                {
                    "name": "F#4",
                    "midi": 66,
                    "time": 51.60000000000009,
                    "velocity": 0.7874015748031497,
                    "duration": 0.29375000000000284
                },
                {
                    "name": "G#4",
                    "midi": 68,
                    "time": 51.90000000000009,
                    "velocity": 0.7874015748031497,
                    "duration": 0.29375000000000284
                },
                {
                    "name": "A4",
                    "midi": 69,
                    "time": 52.200000000000095,
                    "velocity": 0.7874015748031497,
                    "duration": 0.8937499999999972
                },
                {
                    "name": "G4",
                    "midi": 67,
                    "time": 53.100000000000094,
                    "velocity": 0.6771653543307087,
                    "duration": 0.14374999999999716
                },
                {
                    "name": "F#4",
                    "midi": 66,
                    "time": 53.25000000000009,
                    "velocity": 0.6850393700787402,
                    "duration": 0.14374999999999716
                },
                {
                    "name": "G4",
                    "midi": 67,
                    "time": 53.40000000000009,
                    "velocity": 0.6850393700787402,
                    "duration": 0.29375000000000284
                },
                {
                    "name": "E4",
                    "midi": 64,
                    "time": 53.700000000000095,
                    "velocity": 0.7007874015748031,
                    "duration": 0.59375
                },
                {
                    "name": "D#4",
                    "midi": 63,
                    "time": 54.3000000000001,
                    "velocity": 0.7165354330708661,
                    "duration": 0.14374999999999716
                },
                {
                    "name": "C#4",
                    "midi": 61,
                    "time": 54.450000000000095,
                    "velocity": 0.7244094488188977,
                    "duration": 0.14374999999999716
                },
                {
                    "name": "E4",
                    "midi": 64,
                    "time": 54.600000000000094,
                    "velocity": 0.7322834645669292,
                    "duration": 0.06875000000000142
                },
                {
                    "name": "D#4",
                    "midi": 63,
                    "time": 54.6750000000001,
                    "velocity": 0.7322834645669292,
                    "duration": 0.06875000000000142
                },
                {
                    "name": "E4",
                    "midi": 64,
                    "time": 54.7500000000001,
                    "velocity": 0.7322834645669292,
                    "duration": 0.06875000000000142
                },
                {
                    "name": "D#4",
                    "midi": 63,
                    "time": 54.8250000000001,
                    "velocity": 0.7401574803149606,
                    "duration": 0.06875000000000142
                },
                {
                    "name": "E4",
                    "midi": 64,
                    "time": 54.900000000000105,
                    "velocity": 0.7401574803149606,
                    "duration": 0.06875000000000142
                },
                {
                    "name": "D#4",
                    "midi": 63,
                    "time": 54.97500000000011,
                    "velocity": 0.7401574803149606,
                    "duration": 0.06875000000000142
                },
                {
                    "name": "C#4",
                    "midi": 61,
                    "time": 55.05000000000011,
                    "velocity": 0.7480314960629921,
                    "duration": 0.06875000000000142
                },
                {
                    "name": "D#4",
                    "midi": 63,
                    "time": 55.125000000000114,
                    "velocity": 0.7480314960629921,
                    "duration": 0.06875000000000142
                },
                {
                    "name": "E4",
                    "midi": 64,
                    "time": 55.20000000000012,
                    "velocity": 0.7559055118110236,
                    "duration": 0.14374999999999716
                },
                {
                    "name": "B4",
                    "midi": 71,
                    "time": 55.500000000000114,
                    "velocity": 0.7637795275590551,
                    "duration": 0.29375000000000284
                },
                {
                    "name": "E5",
                    "midi": 76,
                    "time": 55.80000000000012,
                    "velocity": 0.7716535433070866,
                    "duration": 1.1687500000000028
                },
                {
                    "name": "E5",
                    "midi": 76,
                    "time": 57.00000000000012,
                    "velocity": 0.8188976377952756,
                    "duration": 0.06875000000000142
                },
                {
                    "name": "D#5",
                    "midi": 75,
                    "time": 57.075000000000124,
                    "velocity": 0.8188976377952756,
                    "duration": 0.06875000000000142
                },
                {
                    "name": "E5",
                    "midi": 76,
                    "time": 57.15000000000013,
                    "velocity": 0.8188976377952756,
                    "duration": 0.06875000000000142
                },
                {
                    "name": "D#5",
                    "midi": 75,
                    "time": 57.22500000000013,
                    "velocity": 0.8267716535433071,
                    "duration": 0.06875000000000142
                },
                {
                    "name": "E5",
                    "midi": 76,
                    "time": 57.30000000000013,
                    "velocity": 0.8267716535433071,
                    "duration": 0.06875000000000142
                },
                {
                    "name": "D#5",
                    "midi": 75,
                    "time": 57.375000000000135,
                    "velocity": 0.8267716535433071,
                    "duration": 0.06875000000000142
                },
                {
                    "name": "C#5",
                    "midi": 73,
                    "time": 57.45000000000014,
                    "velocity": 0.8346456692913385,
                    "duration": 0.06875000000000142
                },
                {
                    "name": "D#5",
                    "midi": 75,
                    "time": 57.52500000000014,
                    "velocity": 0.8346456692913385,
                    "duration": 0.06875000000000142
                },
                {
                    "name": "E5",
                    "midi": 76,
                    "time": 57.60000000000014,
                    "velocity": 0.7874015748031497,
                    "duration": 0.29375000000000284
                },
                {
                    "name": "D5",
                    "midi": 74,
                    "time": 58.050000000000146,
                    "velocity": 0.7874015748031497,
                    "duration": 0.06875000000000142
                },
                {
                    "name": "E5",
                    "midi": 76,
                    "time": 58.12500000000015,
                    "velocity": 0.7874015748031497,
                    "duration": 0.06875000000000142
                },
                {
                    "name": "F5",
                    "midi": 77,
                    "time": 58.20000000000015,
                    "velocity": 0.7874015748031497,
                    "duration": 0.14374999999999716
                },
                {
                    "name": "E5",
                    "midi": 76,
                    "time": 58.35000000000015,
                    "velocity": 0.7874015748031497,
                    "duration": 0.14374999999999716
                },
                {
                    "name": "D5",
                    "midi": 74,
                    "time": 58.50000000000015,
                    "velocity": 0.7874015748031497,
                    "duration": 0.14374999999999716
                },
                {
                    "name": "C5",
                    "midi": 72,
                    "time": 58.65000000000015,
                    "velocity": 0.7874015748031497,
                    "duration": 0.14374999999999716
                },
                {
                    "name": "B4",
                    "midi": 71,
                    "time": 58.800000000000146,
                    "velocity": 0.7874015748031497,
                    "duration": 0.14374999999999716
                },
                {
                    "name": "C5",
                    "midi": 72,
                    "time": 58.950000000000145,
                    "velocity": 0.7874015748031497,
                    "duration": 0.14374999999999716
                },
                {
                    "name": "D5",
                    "midi": 74,
                    "time": 59.10000000000014,
                    "velocity": 0.7874015748031497,
                    "duration": 0.4437500000000014
                },
                {
                    "name": "C5",
                    "midi": 72,
                    "time": 59.550000000000146,
                    "velocity": 0.7874015748031497,
                    "duration": 0.14374999999999716
                },
                {
                    "name": "B4",
                    "midi": 71,
                    "time": 59.700000000000145,
                    "velocity": 0.7874015748031497,
                    "duration": 0.14374999999999716
                },
                {
                    "name": "A4",
                    "midi": 69,
                    "time": 59.85000000000014,
                    "velocity": 0.7874015748031497,
                    "duration": 0.14374999999999716
                },
                {
                    "name": "G#4",
                    "midi": 68,
                    "time": 60.00000000000014,
                    "velocity": 0.7874015748031497,
                    "duration": 0.14374999999999716
                },
                {
                    "name": "A4",
                    "midi": 69,
                    "time": 60.15000000000014,
                    "velocity": 0.7874015748031497,
                    "duration": 0.14374999999999716
                },
                {
                    "name": "B4",
                    "midi": 71,
                    "time": 60.30000000000014,
                    "velocity": 0.7874015748031497,
                    "duration": 0.4437500000000014
                },
                {
                    "name": "A4",
                    "midi": 69,
                    "time": 60.75000000000014,
                    "velocity": 0.7874015748031497,
                    "duration": 0.14374999999999716
                },
                {
                    "name": "G#4",
                    "midi": 68,
                    "time": 60.90000000000014,
                    "velocity": 0.7874015748031497,
                    "duration": 0.14374999999999716
                },
                {
                    "name": "F#4",
                    "midi": 66,
                    "time": 61.05000000000014,
                    "velocity": 0.7874015748031497,
                    "duration": 0.14374999999999716
                },
                {
                    "name": "G#4",
                    "midi": 68,
                    "time": 61.20000000000014,
                    "velocity": 0.7874015748031497,
                    "duration": 0.14374999999999716
                },
                {
                    "name": "E4",
                    "midi": 64,
                    "time": 61.350000000000136,
                    "velocity": 0.7874015748031497,
                    "duration": 0.14374999999999716
                },
                {
                    "name": "G#4",
                    "midi": 68,
                    "time": 61.500000000000135,
                    "velocity": 0.7874015748031497,
                    "duration": 0.14374999999999716
                },
                {
                    "name": "A4",
                    "midi": 69,
                    "time": 61.650000000000134,
                    "velocity": 0.7874015748031497,
                    "duration": 0.14374999999999716
                },
                {
                    "name": "B4",
                    "midi": 71,
                    "time": 61.80000000000013,
                    "velocity": 0.7874015748031497,
                    "duration": 0.14374999999999716
                },
                {
                    "name": "C5",
                    "midi": 72,
                    "time": 61.95000000000013,
                    "velocity": 0.7874015748031497,
                    "duration": 0.14374999999999716
                },
                {
                    "name": "D5",
                    "midi": 74,
                    "time": 62.10000000000013,
                    "velocity": 0.7874015748031497,
                    "duration": 0.14374999999999716
                },
                {
                    "name": "B4",
                    "midi": 71,
                    "time": 62.25000000000013,
                    "velocity": 0.7874015748031497,
                    "duration": 0.14374999999999716
                },
                {
                    "name": "C5",
                    "midi": 72,
                    "time": 62.40000000000013,
                    "velocity": 0.7874015748031497,
                    "duration": 0.14374999999999716
                },
                {
                    "name": "B4",
                    "midi": 71,
                    "time": 62.550000000000125,
                    "velocity": 0.7874015748031497,
                    "duration": 0.14374999999999716
                },
                {
                    "name": "A4",
                    "midi": 69,
                    "time": 62.700000000000124,
                    "velocity": 0.7874015748031497,
                    "duration": 0.14374999999999716
                },
                {
                    "name": "B4",
                    "midi": 71,
                    "time": 62.85000000000012,
                    "velocity": 0.7874015748031497,
                    "duration": 0.14374999999999716
                },
                {
                    "name": "C5",
                    "midi": 72,
                    "time": 63.00000000000012,
                    "velocity": 0.7874015748031497,
                    "duration": 0.14374999999999716
                },
                {
                    "name": "D5",
                    "midi": 74,
                    "time": 63.15000000000012,
                    "velocity": 0.7874015748031497,
                    "duration": 0.14374999999999716
                },
                {
                    "name": "D#5",
                    "midi": 75,
                    "time": 63.30000000000012,
                    "velocity": 0.7874015748031497,
                    "duration": 0.14374999999999716
                },
                {
                    "name": "C5",
                    "midi": 72,
                    "time": 63.45000000000012,
                    "velocity": 0.7874015748031497,
                    "duration": 0.14374999999999716
                },
                {
                    "name": "A4",
                    "midi": 69,
                    "time": 63.600000000000115,
                    "velocity": 0.7874015748031497,
                    "duration": 0.14374999999999716
                },
                {
                    "name": "B4",
                    "midi": 71,
                    "time": 63.750000000000114,
                    "velocity": 0.7874015748031497,
                    "duration": 0.14374999999999716
                },
                {
                    "name": "C5",
                    "midi": 72,
                    "time": 63.90000000000011,
                    "velocity": 0.7874015748031497,
                    "duration": 0.4437500000000014
                },
                {
                    "name": "B4",
                    "midi": 71,
                    "time": 64.35000000000011,
                    "velocity": 0.7874015748031497,
                    "duration": 0.14374999999999716
                },
                {
                    "name": "A4",
                    "midi": 69,
                    "time": 64.5000000000001,
                    "velocity": 0.7874015748031497,
                    "duration": 0.14374999999999716
                },
                {
                    "name": "G4",
                    "midi": 67,
                    "time": 64.65000000000009,
                    "velocity": 0.7874015748031497,
                    "duration": 0.14374999999999716
                },
                {
                    "name": "F#4",
                    "midi": 66,
                    "time": 64.80000000000008,
                    "velocity": 0.7874015748031497,
                    "duration": 0.14374999999999716
                },
                {
                    "name": "G4",
                    "midi": 67,
                    "time": 64.95000000000007,
                    "velocity": 0.7874015748031497,
                    "duration": 0.14374999999999716
                },
                {
                    "name": "A4",
                    "midi": 69,
                    "time": 65.10000000000007,
                    "velocity": 0.7874015748031497,
                    "duration": 0.4437499999999943
                },
                {
                    "name": "G4",
                    "midi": 67,
                    "time": 65.55000000000005,
                    "velocity": 0.7874015748031497,
                    "duration": 0.14374999999999716
                },
                {
                    "name": "F#4",
                    "midi": 66,
                    "time": 65.70000000000005,
                    "velocity": 0.7874015748031497,
                    "duration": 0.14374999999999716
                },
                {
                    "name": "E4",
                    "midi": 64,
                    "time": 65.85000000000004,
                    "velocity": 0.7874015748031497,
                    "duration": 0.14374999999999716
                },
                {
                    "name": "F#4",
                    "midi": 66,
                    "time": 66.00000000000003,
                    "velocity": 0.7874015748031497,
                    "duration": 0.14374999999999716
                },
                {
                    "name": "D4",
                    "midi": 62,
                    "time": 66.15000000000002,
                    "velocity": 0.7874015748031497,
                    "duration": 0.14374999999999716
                },
                {
                    "name": "F#4",
                    "midi": 66,
                    "time": 66.30000000000001,
                    "velocity": 0.7874015748031497,
                    "duration": 0.14374999999999716
                },
                {
                    "name": "G4",
                    "midi": 67,
                    "time": 66.45,
                    "velocity": 0.7874015748031497,
                    "duration": 0.14374999999999716
                },
                {
                    "name": "A4",
                    "midi": 69,
                    "time": 66.6,
                    "velocity": 0.7874015748031497,
                    "duration": 0.14374999999999716
                },
                {
                    "name": "B4",
                    "midi": 71,
                    "time": 66.74999999999999,
                    "velocity": 0.7874015748031497,
                    "duration": 0.14374999999999716
                },
                {
                    "name": "C5",
                    "midi": 72,
                    "time": 66.89999999999998,
                    "velocity": 0.7874015748031497,
                    "duration": 0.14374999999999716
                },
                {
                    "name": "A4",
                    "midi": 69,
                    "time": 67.04999999999997,
                    "velocity": 0.7874015748031497,
                    "duration": 0.14374999999999716
                },
                {
                    "name": "B4",
                    "midi": 71,
                    "time": 67.19999999999996,
                    "velocity": 0.7874015748031497,
                    "duration": 0.14374999999999716
                },
                {
                    "name": "A4",
                    "midi": 69,
                    "time": 67.34999999999995,
                    "velocity": 0.7874015748031497,
                    "duration": 0.14374999999999716
                },
                {
                    "name": "G4",
                    "midi": 67,
                    "time": 67.49999999999994,
                    "velocity": 0.7874015748031497,
                    "duration": 0.14374999999999716
                },
                {
                    "name": "A4",
                    "midi": 69,
                    "time": 67.64999999999993,
                    "velocity": 0.7874015748031497,
                    "duration": 0.14374999999999716
                },
                {
                    "name": "B4",
                    "midi": 71,
                    "time": 67.79999999999993,
                    "velocity": 0.7874015748031497,
                    "duration": 0.14374999999999716
                },
                {
                    "name": "C5",
                    "midi": 72,
                    "time": 67.94999999999992,
                    "velocity": 0.7874015748031497,
                    "duration": 0.14374999999999716
                },
                {
                    "name": "D5",
                    "midi": 74,
                    "time": 68.09999999999991,
                    "velocity": 0.7874015748031497,
                    "duration": 0.14374999999999716
                },
                {
                    "name": "B4",
                    "midi": 71,
                    "time": 68.2499999999999,
                    "velocity": 0.7874015748031497,
                    "duration": 0.14374999999999716
                },
                {
                    "name": "C5",
                    "midi": 72,
                    "time": 68.39999999999989,
                    "velocity": 0.7874015748031497,
                    "duration": 0.14374999999999716
                },
                {
                    "name": "E5",
                    "midi": 76,
                    "time": 68.69999999999989,
                    "velocity": 0.7874015748031497,
                    "duration": 0.14374999999999716
                },
                {
                    "name": "A4",
                    "midi": 69,
                    "time": 68.99999999999989,
                    "velocity": 0.7795275590551181,
                    "duration": 0.14374999999999716
                },
                {
                    "name": "C5",
                    "midi": 72,
                    "time": 69.29999999999988,
                    "velocity": 0.7716535433070866,
                    "duration": 0.14374999999999716
                },
                {
                    "name": "F#4",
                    "midi": 66,
                    "time": 69.59999999999988,
                    "velocity": 0.7637795275590551,
                    "duration": 0.29375000000000284
                },
                {
                    "name": "G4",
                    "midi": 67,
                    "time": 69.89999999999988,
                    "velocity": 0.7559055118110236,
                    "duration": 0.14374999999999716
                },
                {
                    "name": "A4",
                    "midi": 69,
                    "time": 70.04999999999987,
                    "velocity": 0.7559055118110236,
                    "duration": 0.14374999999999716
                },
                {
                    "name": "B4",
                    "midi": 71,
                    "time": 70.19999999999986,
                    "velocity": 0.7480314960629921,
                    "duration": 0.29375000000000284
                },
                {
                    "name": "G4",
                    "midi": 67,
                    "time": 70.49999999999986,
                    "velocity": 0.7480314960629921,
                    "duration": 0.29375000000000284
                },
                {
                    "name": "A4",
                    "midi": 69,
                    "time": 70.79999999999986,
                    "velocity": 0.7401574803149606,
                    "duration": 0.14374999999999716
                },
                {
                    "name": "C5",
                    "midi": 72,
                    "time": 71.09999999999985,
                    "velocity": 0.7322834645669292,
                    "duration": 0.14374999999999716
                },
                {
                    "name": "F#4",
                    "midi": 66,
                    "time": 71.39999999999985,
                    "velocity": 0.7244094488188977,
                    "duration": 0.14374999999999716
                },
                {
                    "name": "A4",
                    "midi": 69,
                    "time": 71.69999999999985,
                    "velocity": 0.7165354330708661,
                    "duration": 0.14374999999999716
                },
                {
                    "name": "D4",
                    "midi": 62,
                    "time": 71.99999999999984,
                    "velocity": 0.7086614173228346,
                    "duration": 0.29375000000000284
                },
                {
                    "name": "E4",
                    "midi": 64,
                    "time": 72.29999999999984,
                    "velocity": 0.7086614173228346,
                    "duration": 0.14374999999999716
                },
                {
                    "name": "F#4",
                    "midi": 66,
                    "time": 72.44999999999983,
                    "velocity": 0.7007874015748031,
                    "duration": 0.14374999999999716
                },
                {
                    "name": "G4",
                    "midi": 67,
                    "time": 72.59999999999982,
                    "velocity": 0.7007874015748031,
                    "duration": 0.29375000000000284
                },
                {
                    "name": "E4",
                    "midi": 64,
                    "time": 72.89999999999982,
                    "velocity": 0.6929133858267716,
                    "duration": 0.29375000000000284
                },
                {
                    "name": "F#4",
                    "midi": 66,
                    "time": 73.19999999999982,
                    "velocity": 0.6850393700787402,
                    "duration": 0.14374999999999716
                },
                {
                    "name": "A4",
                    "midi": 69,
                    "time": 73.49999999999982,
                    "velocity": 0.6771653543307087,
                    "duration": 0.14374999999999716
                },
                {
                    "name": "D#4",
                    "midi": 63,
                    "time": 73.79999999999981,
                    "velocity": 0.6692913385826772,
                    "duration": 0.14374999999999716
                },
                {
                    "name": "F#4",
                    "midi": 66,
                    "time": 74.09999999999981,
                    "velocity": 0.6692913385826772,
                    "duration": 0.14374999999999716
                },
                {
                    "name": "B3",
                    "midi": 59,
                    "time": 74.3999999999998,
                    "velocity": 0.6614173228346457,
                    "duration": 0.29375000000000284
                },
                {
                    "name": "C#4",
                    "midi": 61,
                    "time": 74.6999999999998,
                    "velocity": 0.6535433070866141,
                    "duration": 0.14374999999999716
                },
                {
                    "name": "D#4",
                    "midi": 63,
                    "time": 74.8499999999998,
                    "velocity": 0.6535433070866141,
                    "duration": 0.14374999999999716
                },
                {
                    "name": "E4",
                    "midi": 64,
                    "time": 74.99999999999979,
                    "velocity": 0.6456692913385826,
                    "duration": 0.8937499999999972
                },
                {
                    "name": "D4",
                    "midi": 62,
                    "time": 75.89999999999978,
                    "velocity": 0.5984251968503937,
                    "duration": 0.14374999999999716
                },
                {
                    "name": "C#4",
                    "midi": 61,
                    "time": 76.04999999999977,
                    "velocity": 0.5984251968503937,
                    "duration": 0.14374999999999716
                },
                {
                    "name": "D4",
                    "midi": 62,
                    "time": 76.19999999999976,
                    "velocity": 0.6062992125984252,
                    "duration": 0.8937499999999972
                },
                {
                    "name": "E4",
                    "midi": 64,
                    "time": 77.09999999999975,
                    "velocity": 0.6299212598425197,
                    "duration": 0.14374999999999716
                },
                {
                    "name": "F#4",
                    "midi": 66,
                    "time": 77.24999999999974,
                    "velocity": 0.6299212598425197,
                    "duration": 0.14374999999999716
                },
                {
                    "name": "G4",
                    "midi": 67,
                    "time": 77.39999999999974,
                    "velocity": 0.6377952755905512,
                    "duration": 0.8937499999999972
                },
                {
                    "name": "F4",
                    "midi": 65,
                    "time": 78.29999999999973,
                    "velocity": 0.6614173228346457,
                    "duration": 0.14374999999999716
                },
                {
                    "name": "E4",
                    "midi": 64,
                    "time": 78.44999999999972,
                    "velocity": 0.6614173228346457,
                    "duration": 0.14374999999999716
                },
                {
                    "name": "F4",
                    "midi": 65,
                    "time": 78.59999999999971,
                    "velocity": 0.6692913385826772,
                    "duration": 0.8937499999999972
                },
                {
                    "name": "G4",
                    "midi": 67,
                    "time": 79.4999999999997,
                    "velocity": 0.6929133858267716,
                    "duration": 0.14374999999999716
                },
                {
                    "name": "A4",
                    "midi": 69,
                    "time": 79.6499999999997,
                    "velocity": 0.7007874015748031,
                    "duration": 0.14374999999999716
                },
                {
                    "name": "A#4",
                    "midi": 70,
                    "time": 79.79999999999968,
                    "velocity": 0.7007874015748031,
                    "duration": 0.8937499999999972
                },
                {
                    "name": "A4",
                    "midi": 69,
                    "time": 80.69999999999968,
                    "velocity": 0.7244094488188977,
                    "duration": 0.14374999999999716
                },
                {
                    "name": "G#4",
                    "midi": 68,
                    "time": 80.84999999999967,
                    "velocity": 0.7322834645669292,
                    "duration": 0.14374999999999716
                },
                {
                    "name": "A4",
                    "midi": 69,
                    "time": 80.99999999999966,
                    "velocity": 0.7322834645669292,
                    "duration": 1.0374999999999943
                },
                {
                    "name": "A4",
                    "midi": 69,
                    "time": 82.19999999999965,
                    "velocity": 0.7637795275590551,
                    "duration": 0.06874999999999432
                },
                {
                    "name": "G#4",
                    "midi": 68,
                    "time": 82.27499999999964,
                    "velocity": 0.7716535433070866,
                    "duration": 0.06874999999999432
                },
                {
                    "name": "A4",
                    "midi": 69,
                    "time": 82.34999999999962,
                    "velocity": 0.7716535433070866,
                    "duration": 0.06874999999999432
                },
                {
                    "name": "G#4",
                    "midi": 68,
                    "time": 82.42499999999961,
                    "velocity": 0.7716535433070866,
                    "duration": 0.06874999999999432
                },
                {
                    "name": "A4",
                    "midi": 69,
                    "time": 82.4999999999996,
                    "velocity": 0.7716535433070866,
                    "duration": 0.06874999999999432
                },
                {
                    "name": "G#4",
                    "midi": 68,
                    "time": 82.57499999999959,
                    "velocity": 0.7795275590551181,
                    "duration": 0.06874999999999432
                },
                {
                    "name": "F#4",
                    "midi": 66,
                    "time": 82.64999999999958,
                    "velocity": 0.7795275590551181,
                    "duration": 0.06874999999999432
                },
                {
                    "name": "G#4",
                    "midi": 68,
                    "time": 82.72499999999957,
                    "velocity": 0.7795275590551181,
                    "duration": 0.06874999999999432
                },
                {
                    "name": "A4",
                    "midi": 69,
                    "time": 82.79999999999956,
                    "velocity": 0.7874015748031497,
                    "duration": 0.4437499999999943
                },
                {
                    "name": "E5",
                    "midi": 76,
                    "time": 83.39999999999955,
                    "velocity": 0.7874015748031497,
                    "duration": 0.59375
                },
                {
                    "name": "F5",
                    "midi": 77,
                    "time": 83.99999999999955,
                    "velocity": 0.7874015748031497,
                    "duration": 0.59375
                },
                {
                    "name": "A4",
                    "midi": 69,
                    "time": 84.59999999999954,
                    "velocity": 0.7874015748031497,
                    "duration": 0.59375
                },
                {
                    "name": "C5",
                    "midi": 72,
                    "time": 85.19999999999953,
                    "velocity": 0.7874015748031497,
                    "duration": 0.14374999999999716
                },
                {
                    "name": "B4",
                    "midi": 71,
                    "time": 85.34999999999953,
                    "velocity": 0.7874015748031497,
                    "duration": 0.14374999999999716
                },
                {
                    "name": "A4",
                    "midi": 69,
                    "time": 85.49999999999952,
                    "velocity": 0.7874015748031497,
                    "duration": 0.59375
                },
                {
                    "name": "B4",
                    "midi": 71,
                    "time": 86.09999999999951,
                    "velocity": 0.7874015748031497,
                    "duration": 0.14374999999999716
                },
                {
                    "name": "C5",
                    "midi": 72,
                    "time": 86.2499999999995,
                    "velocity": 0.7874015748031497,
                    "duration": 0.14374999999999716
                },
                {
                    "name": "D5",
                    "midi": 74,
                    "time": 86.3999999999995,
                    "velocity": 0.7874015748031497,
                    "duration": 0.14374999999999716
                },
                {
                    "name": "E5",
                    "midi": 76,
                    "time": 86.54999999999949,
                    "velocity": 0.7874015748031497,
                    "duration": 0.14374999999999716
                },
                {
                    "name": "F5",
                    "midi": 77,
                    "time": 86.69999999999948,
                    "velocity": 0.7874015748031497,
                    "duration": 0.59375
                },
                {
                    "name": "E5",
                    "midi": 76,
                    "time": 87.29999999999947,
                    "velocity": 0.7874015748031497,
                    "duration": 0.14374999999999716
                },
                {
                    "name": "D#5",
                    "midi": 75,
                    "time": 87.44999999999946,
                    "velocity": 0.7874015748031497,
                    "duration": 0.14374999999999716
                },
                {
                    "name": "E5",
                    "midi": 76,
                    "time": 87.59999999999945,
                    "velocity": 0.7874015748031497,
                    "duration": 0.14374999999999716
                },
                {
                    "name": "B4",
                    "midi": 71,
                    "time": 87.74999999999945,
                    "velocity": 0.7874015748031497,
                    "duration": 0.14374999999999716
                },
                {
                    "name": "E5",
                    "midi": 76,
                    "time": 87.89999999999944,
                    "velocity": 0.7874015748031497,
                    "duration": 0.14374999999999716
                },
                {
                    "name": "F#5",
                    "midi": 78,
                    "time": 88.04999999999943,
                    "velocity": 0.7874015748031497,
                    "duration": 0.14374999999999716
                },
                {
                    "name": "E5",
                    "midi": 76,
                    "time": 88.19999999999942,
                    "velocity": 0.7874015748031497,
                    "duration": 0.14374999999999716
                },
                {
                    "name": "B4",
                    "midi": 71,
                    "time": 88.34999999999941,
                    "velocity": 0.7874015748031497,
                    "duration": 0.14374999999999716
                },
                {
                    "name": "E5",
                    "midi": 76,
                    "time": 88.4999999999994,
                    "velocity": 0.7874015748031497,
                    "duration": 0.14374999999999716
                },
                {
                    "name": "G5",
                    "midi": 79,
                    "time": 88.6499999999994,
                    "velocity": 0.7874015748031497,
                    "duration": 0.14374999999999716
                },
                {
                    "name": "F#5",
                    "midi": 78,
                    "time": 88.79999999999939,
                    "velocity": 0.7874015748031497,
                    "duration": 0.14374999999999716
                },
                {
                    "name": "B4",
                    "midi": 71,
                    "time": 88.94999999999938,
                    "velocity": 0.7874015748031497,
                    "duration": 0.14374999999999716
                },
                {
                    "name": "F#5",
                    "midi": 78,
                    "time": 89.09999999999937,
                    "velocity": 0.7874015748031497,
                    "duration": 0.14374999999999716
                },
                {
                    "name": "G5",
                    "midi": 79,
                    "time": 89.24999999999936,
                    "velocity": 0.7874015748031497,
                    "duration": 0.14374999999999716
                },
                {
                    "name": "F#5",
                    "midi": 78,
                    "time": 89.39999999999935,
                    "velocity": 0.7874015748031497,
                    "duration": 0.14374999999999716
                },
                {
                    "name": "B4",
                    "midi": 71,
                    "time": 89.54999999999934,
                    "velocity": 0.7874015748031497,
                    "duration": 0.14374999999999716
                },
                {
                    "name": "F#5",
                    "midi": 78,
                    "time": 89.69999999999933,
                    "velocity": 0.7874015748031497,
                    "duration": 0.14374999999999716
                },
                {
                    "name": "A5",
                    "midi": 81,
                    "time": 89.84999999999933,
                    "velocity": 0.7874015748031497,
                    "duration": 0.14374999999999716
                },
                {
                    "name": "G5",
                    "midi": 79,
                    "time": 89.99999999999932,
                    "velocity": 0.7874015748031497,
                    "duration": 0.14374999999999716
                },
                {
                    "name": "B4",
                    "midi": 71,
                    "time": 90.14999999999931,
                    "velocity": 0.7874015748031497,
                    "duration": 0.14374999999999716
                },
                {
                    "name": "G5",
                    "midi": 79,
                    "time": 90.2999999999993,
                    "velocity": 0.7874015748031497,
                    "duration": 0.14374999999999716
                },
                {
                    "name": "A5",
                    "midi": 81,
                    "time": 90.44999999999929,
                    "velocity": 0.7874015748031497,
                    "duration": 0.14374999999999716
                },
                {
                    "name": "G5",
                    "midi": 79,
                    "time": 90.59999999999928,
                    "velocity": 0.7874015748031497,
                    "duration": 0.14374999999999716
                },
                {
                    "name": "B4",
                    "midi": 71,
                    "time": 90.74999999999928,
                    "velocity": 0.7874015748031497,
                    "duration": 0.14374999999999716
                },
                {
                    "name": "G5",
                    "midi": 79,
                    "time": 90.89999999999927,
                    "velocity": 0.7874015748031497,
                    "duration": 0.14374999999999716
                },
                {
                    "name": "B5",
                    "midi": 83,
                    "time": 91.04999999999926,
                    "velocity": 0.7874015748031497,
                    "duration": 0.14374999999999716
                },
                {
                    "name": "F#5",
                    "midi": 78,
                    "time": 91.19999999999925,
                    "velocity": 0.7874015748031497,
                    "duration": 0.14374999999999716
                },
                {
                    "name": "B4",
                    "midi": 71,
                    "time": 91.34999999999924,
                    "velocity": 0.7874015748031497,
                    "duration": 0.14374999999999716
                },
                {
                    "name": "F#5",
                    "midi": 78,
                    "time": 91.49999999999923,
                    "velocity": 0.7874015748031497,
                    "duration": 0.14374999999999716
                },
                {
                    "name": "G5",
                    "midi": 79,
                    "time": 91.64999999999922,
                    "velocity": 0.7874015748031497,
                    "duration": 0.14374999999999716
                },
                {
                    "name": "F#5",
                    "midi": 78,
                    "time": 91.79999999999922,
                    "velocity": 0.7874015748031497,
                    "duration": 0.14374999999999716
                },
                {
                    "name": "B4",
                    "midi": 71,
                    "time": 91.9499999999992,
                    "velocity": 0.7874015748031497,
                    "duration": 0.14374999999999716
                },
                {
                    "name": "F#5",
                    "midi": 78,
                    "time": 92.0999999999992,
                    "velocity": 0.7874015748031497,
                    "duration": 0.14374999999999716
                },
                {
                    "name": "A5",
                    "midi": 81,
                    "time": 92.24999999999919,
                    "velocity": 0.7874015748031497,
                    "duration": 0.14374999999999716
                },
                {
                    "name": "G5",
                    "midi": 79,
                    "time": 92.39999999999918,
                    "velocity": 0.7874015748031497,
                    "duration": 0.14374999999999716
                },
                {
                    "name": "B4",
                    "midi": 71,
                    "time": 92.54999999999917,
                    "velocity": 0.6535433070866141,
                    "duration": 0.14374999999999716
                },
                {
                    "name": "E5",
                    "midi": 76,
                    "time": 92.69999999999916,
                    "velocity": 0.6535433070866141,
                    "duration": 0.14374999999999716
                },
                {
                    "name": "F#5",
                    "midi": 78,
                    "time": 92.84999999999916,
                    "velocity": 0.6535433070866141,
                    "duration": 0.14374999999999716
                },
                {
                    "name": "G5",
                    "midi": 79,
                    "time": 92.99999999999915,
                    "velocity": 0.6535433070866141,
                    "duration": 0.14374999999999716
                },
                {
                    "name": "A5",
                    "midi": 81,
                    "time": 93.14999999999914,
                    "velocity": 0.6535433070866141,
                    "duration": 0.14374999999999716
                },
                {
                    "name": "A#5",
                    "midi": 82,
                    "time": 93.29999999999913,
                    "velocity": 0.6535433070866141,
                    "duration": 0.14374999999999716
                },
                {
                    "name": "G5",
                    "midi": 79,
                    "time": 93.44999999999912,
                    "velocity": 0.6535433070866141,
                    "duration": 0.14374999999999716
                },
                {
                    "name": "E5",
                    "midi": 76,
                    "time": 93.59999999999911,
                    "velocity": 0.6535433070866141,
                    "duration": 0.14374999999999716
                },
                {
                    "name": "F5",
                    "midi": 77,
                    "time": 93.7499999999991,
                    "velocity": 0.6535433070866141,
                    "duration": 0.14374999999999716
                },
                {
                    "name": "G5",
                    "midi": 79,
                    "time": 93.8999999999991,
                    "velocity": 0.6535433070866141,
                    "duration": 0.4437499999999943
                },
                {
                    "name": "F5",
                    "midi": 77,
                    "time": 94.34999999999908,
                    "velocity": 0.6535433070866141,
                    "duration": 0.14374999999999716
                },
                {
                    "name": "E5",
                    "midi": 76,
                    "time": 94.49999999999908,
                    "velocity": 0.6535433070866141,
                    "duration": 0.14374999999999716
                },
                {
                    "name": "D5",
                    "midi": 74,
                    "time": 94.64999999999907,
                    "velocity": 0.6535433070866141,
                    "duration": 0.14374999999999716
                },
                {
                    "name": "C#5",
                    "midi": 73,
                    "time": 94.79999999999906,
                    "velocity": 0.6535433070866141,
                    "duration": 0.14374999999999716
                },
                {
                    "name": "D5",
                    "midi": 74,
                    "time": 94.94999999999905,
                    "velocity": 0.6535433070866141,
                    "duration": 0.14374999999999716
                },
                {
                    "name": "E5",
                    "midi": 76,
                    "time": 95.09999999999904,
                    "velocity": 0.6535433070866141,
                    "duration": 0.4437499999999943
                },
                {
                    "name": "D5",
                    "midi": 74,
                    "time": 95.54999999999903,
                    "velocity": 0.6535433070866141,
                    "duration": 0.14374999999999716
                },
                {
                    "name": "C#5",
                    "midi": 73,
                    "time": 95.69999999999902,
                    "velocity": 0.6535433070866141,
                    "duration": 0.14374999999999716
                },
                {
                    "name": "B4",
                    "midi": 71,
                    "time": 95.84999999999901,
                    "velocity": 0.6535433070866141,
                    "duration": 0.14374999999999716
                },
                {
                    "name": "C#5",
                    "midi": 73,
                    "time": 95.999999999999,
                    "velocity": 0.6535433070866141,
                    "duration": 0.14374999999999716
                },
                {
                    "name": "A4",
                    "midi": 69,
                    "time": 96.149999999999,
                    "velocity": 0.6535433070866141,
                    "duration": 0.14374999999999716
                },
                {
                    "name": "C#5",
                    "midi": 73,
                    "time": 96.29999999999899,
                    "velocity": 0.6535433070866141,
                    "duration": 0.14374999999999716
                },
                {
                    "name": "D5",
                    "midi": 74,
                    "time": 96.44999999999898,
                    "velocity": 0.6535433070866141,
                    "duration": 0.14374999999999716
                },
                {
                    "name": "E5",
                    "midi": 76,
                    "time": 96.59999999999897,
                    "velocity": 0.6535433070866141,
                    "duration": 0.14374999999999716
                },
                {
                    "name": "F5",
                    "midi": 77,
                    "time": 96.74999999999896,
                    "velocity": 0.6535433070866141,
                    "duration": 0.14374999999999716
                },
                {
                    "name": "G5",
                    "midi": 79,
                    "time": 96.89999999999895,
                    "velocity": 0.6535433070866141,
                    "duration": 0.14374999999999716
                },
                {
                    "name": "E5",
                    "midi": 76,
                    "time": 97.04999999999895,
                    "velocity": 0.6535433070866141,
                    "duration": 0.14374999999999716
                },
                {
                    "name": "F5",
                    "midi": 77,
                    "time": 97.19999999999894,
                    "velocity": 0.6535433070866141,
                    "duration": 0.14374999999999716
                },
                {
                    "name": "E5",
                    "midi": 76,
                    "time": 97.34999999999893,
                    "velocity": 0.6535433070866141,
                    "duration": 0.14374999999999716
                },
                {
                    "name": "D5",
                    "midi": 74,
                    "time": 97.49999999999892,
                    "velocity": 0.6535433070866141,
                    "duration": 0.14374999999999716
                },
                {
                    "name": "C#5",
                    "midi": 73,
                    "time": 97.64999999999891,
                    "velocity": 0.6535433070866141,
                    "duration": 0.14374999999999716
                },
                {
                    "name": "D5",
                    "midi": 74,
                    "time": 97.7999999999989,
                    "velocity": 0.6535433070866141,
                    "duration": 0.14374999999999716
                },
                {
                    "name": "C5",
                    "midi": 72,
                    "time": 98.0999999999989,
                    "velocity": 0.6535433070866141,
                    "duration": 0.14374999999999716
                },
                {
                    "name": "B4",
                    "midi": 71,
                    "time": 98.3999999999989,
                    "velocity": 0.6535433070866141,
                    "duration": 0.14374999999999716
                },
                {
                    "name": "G#5",
                    "midi": 80,
                    "time": 98.6999999999989,
                    "velocity": 0.6535433070866141,
                    "duration": 0.29375000000000284
                },
                {
                    "name": "G5",
                    "midi": 79,
                    "time": 98.99999999999889,
                    "velocity": 0.6535433070866141,
                    "duration": 0.06874999999999432
                },
                {
                    "name": "G#5",
                    "midi": 80,
                    "time": 99.07499999999888,
                    "velocity": 0.6535433070866141,
                    "duration": 0.06874999999999432
                },
                {
                    "name": "G5",
                    "midi": 79,
                    "time": 99.14999999999887,
                    "velocity": 0.6535433070866141,
                    "duration": 0.14374999999999716
                },
                {
                    "name": "F5",
                    "midi": 77,
                    "time": 99.29999999999886,
                    "velocity": 0.6535433070866141,
                    "duration": 0.14374999999999716
                },
                {
                    "name": "G#4",
                    "midi": 68,
                    "time": 99.59999999999886,
                    "velocity": 0.6535433070866141,
                    "duration": 0.14374999999999716
                },
                {
                    "name": "F5",
                    "midi": 77,
                    "time": 99.89999999999885,
                    "velocity": 0.6535433070866141,
                    "duration": 0.29375000000000284
                },
                {
                    "name": "E5",
                    "midi": 76,
                    "time": 100.19999999999885,
                    "velocity": 0.6535433070866141,
                    "duration": 0.06874999999999432
                },
                {
                    "name": "F5",
                    "midi": 77,
                    "time": 100.27499999999884,
                    "velocity": 0.6535433070866141,
                    "duration": 0.06874999999999432
                },
                {
                    "name": "E5",
                    "midi": 76,
                    "time": 100.34999999999883,
                    "velocity": 0.6535433070866141,
                    "duration": 0.14374999999999716
                },
                {
                    "name": "D5",
                    "midi": 74,
                    "time": 100.49999999999882,
                    "velocity": 0.6535433070866141,
                    "duration": 0.14374999999999716
                },
                {
                    "name": "F4",
                    "midi": 65,
                    "time": 100.79999999999882,
                    "velocity": 0.6535433070866141,
                    "duration": 0.14374999999999716
                },
                {
                    "name": "D5",
                    "midi": 74,
                    "time": 101.09999999999881,
                    "velocity": 0.6535433070866141,
                    "duration": 0.29375000000000284
                },
                {
                    "name": "C5",
                    "midi": 72,
                    "time": 101.39999999999881,
                    "velocity": 0.6535433070866141,
                    "duration": 0.06874999999999432
                },
                {
                    "name": "D5",
                    "midi": 74,
                    "time": 101.4749999999988,
                    "velocity": 0.6535433070866141,
                    "duration": 0.06874999999999432
                },
                {
                    "name": "C5",
                    "midi": 72,
                    "time": 101.54999999999879,
                    "velocity": 0.6535433070866141,
                    "duration": 0.14374999999999716
                },
                {
                    "name": "B4",
                    "midi": 71,
                    "time": 101.69999999999878,
                    "velocity": 0.6535433070866141,
                    "duration": 0.14374999999999716
                },
                {
                    "name": "C5",
                    "midi": 72,
                    "time": 101.99999999999878,
                    "velocity": 0.7874015748031497,
                    "duration": 0.14374999999999716
                },
                {
                    "name": "G4",
                    "midi": 67,
                    "time": 102.14999999999877,
                    "velocity": 0.7874015748031497,
                    "duration": 0.14374999999999716
                },
                {
                    "name": "C5",
                    "midi": 72,
                    "time": 102.29999999999876,
                    "velocity": 0.7874015748031497,
                    "duration": 0.14374999999999716
                },
                {
                    "name": "D5",
                    "midi": 74,
                    "time": 102.44999999999875,
                    "velocity": 0.7874015748031497,
                    "duration": 0.14374999999999716
                },
                {
                    "name": "E5",
                    "midi": 76,
                    "time": 102.59999999999874,
                    "velocity": 0.7874015748031497,
                    "duration": 0.14374999999999716
                },
                {
                    "name": "F#4",
                    "midi": 66,
                    "time": 102.74999999999874,
                    "velocity": 0.7874015748031497,
                    "duration": 0.14374999999999716
                },
                {
                    "name": "A4",
                    "midi": 69,
                    "time": 102.89999999999873,
                    "velocity": 0.7874015748031497,
                    "duration": 0.14374999999999716
                },
                {
                    "name": "C5",
                    "midi": 72,
                    "time": 103.04999999999872,
                    "velocity": 0.7874015748031497,
                    "duration": 0.14374999999999716
                },
                {
                    "name": "B4",
                    "midi": 71,
                    "time": 103.19999999999871,
                    "velocity": 0.7874015748031497,
                    "duration": 0.14374999999999716
                },
                {
                    "name": "D#4",
                    "midi": 63,
                    "time": 103.3499999999987,
                    "velocity": 0.7874015748031497,
                    "duration": 0.14374999999999716
                },
                {
                    "name": "B4",
                    "midi": 71,
                    "time": 103.49999999999869,
                    "velocity": 0.7874015748031497,
                    "duration": 0.14374999999999716
                },
                {
                    "name": "C5",
                    "midi": 72,
                    "time": 103.64999999999868,
                    "velocity": 0.7874015748031497,
                    "duration": 0.14374999999999716
                },
                {
                    "name": "B4",
                    "midi": 71,
                    "time": 103.79999999999868,
                    "velocity": 0.7874015748031497,
                    "duration": 0.14374999999999716
                },
                {
                    "name": "E4",
                    "midi": 64,
                    "time": 103.94999999999867,
                    "velocity": 0.7874015748031497,
                    "duration": 0.14374999999999716
                },
                {
                    "name": "B4",
                    "midi": 71,
                    "time": 104.09999999999866,
                    "velocity": 0.7874015748031497,
                    "duration": 0.14374999999999716
                },
                {
                    "name": "D5",
                    "midi": 74,
                    "time": 104.24999999999865,
                    "velocity": 0.7874015748031497,
                    "duration": 0.14374999999999716
                },
                {
                    "name": "C#5",
                    "midi": 73,
                    "time": 104.39999999999864,
                    "velocity": 0.7874015748031497,
                    "duration": 0.14374999999999716
                },
                {
                    "name": "A4",
                    "midi": 69,
                    "time": 104.54999999999863,
                    "velocity": 0.7874015748031497,
                    "duration": 0.14374999999999716
                },
                {
                    "name": "C#5",
                    "midi": 73,
                    "time": 104.69999999999862,
                    "velocity": 0.7874015748031497,
                    "duration": 0.14374999999999716
                },
                {
                    "name": "D#5",
                    "midi": 75,
                    "time": 104.84999999999862,
                    "velocity": 0.7874015748031497,
                    "duration": 0.14374999999999716
                },
                {
                    "name": "E5",
                    "midi": 76,
                    "time": 104.99999999999861,
                    "velocity": 0.7874015748031497,
                    "duration": 0.14374999999999716
                },
                {
                    "name": "G4",
                    "midi": 67,
                    "time": 105.1499999999986,
                    "velocity": 0.7874015748031497,
                    "duration": 0.14374999999999716
                },
                {
                    "name": "C5",
                    "midi": 72,
                    "time": 105.29999999999859,
                    "velocity": 0.7874015748031497,
                    "duration": 0.14374999999999716
                },
                {
                    "name": "E5",
                    "midi": 76,
                    "time": 105.44999999999858,
                    "velocity": 0.7874015748031497,
                    "duration": 0.14374999999999716
                },
                {
                    "name": "D5",
                    "midi": 74,
                    "time": 105.59999999999857,
                    "velocity": 0.7874015748031497,
                    "duration": 0.14374999999999716
                },
                {
                    "name": "F#4",
                    "midi": 66,
                    "time": 105.74999999999856,
                    "velocity": 0.7874015748031497,
                    "duration": 0.14374999999999716
                },
                {
                    "name": "D5",
                    "midi": 74,
                    "time": 105.89999999999856,
                    "velocity": 0.7874015748031497,
                    "duration": 0.14374999999999716
                },
                {
                    "name": "D#5",
                    "midi": 75,
                    "time": 106.04999999999855,
                    "velocity": 0.7874015748031497,
                    "duration": 0.14374999999999716
                },
                {
                    "name": "D5",
                    "midi": 74,
                    "time": 106.19999999999854,
                    "velocity": 0.7874015748031497,
                    "duration": 0.14374999999999716
                },
                {
                    "name": "G4",
                    "midi": 67,
                    "time": 106.34999999999853,
                    "velocity": 0.7874015748031497,
                    "duration": 0.14374999999999716
                },
                {
                    "name": "D5",
                    "midi": 74,
                    "time": 106.49999999999852,
                    "velocity": 0.7874015748031497,
                    "duration": 0.14374999999999716
                },
                {
                    "name": "F5",
                    "midi": 77,
                    "time": 106.64999999999851,
                    "velocity": 0.7874015748031497,
                    "duration": 0.14374999999999716
                },
                {
                    "name": "E5",
                    "midi": 76,
                    "time": 106.7999999999985,
                    "velocity": 0.7874015748031497,
                    "duration": 0.14374999999999716
                },
                {
                    "name": "C5",
                    "midi": 72,
                    "time": 106.9499999999985,
                    "velocity": 0.7874015748031497,
                    "duration": 0.14374999999999716
                },
                {
                    "name": "E5",
                    "midi": 76,
                    "time": 107.09999999999849,
                    "velocity": 0.7874015748031497,
                    "duration": 0.14374999999999716
                },
                {
                    "name": "F#5",
                    "midi": 78,
                    "time": 107.24999999999848,
                    "velocity": 0.7874015748031497,
                    "duration": 0.14374999999999716
                },
                {
                    "name": "G5",
                    "midi": 79,
                    "time": 107.39999999999847,
                    "velocity": 0.7874015748031497,
                    "duration": 0.14374999999999716
                },
                {
                    "name": "A#4",
                    "midi": 70,
                    "time": 107.54999999999846,
                    "velocity": 0.7874015748031497,
                    "duration": 0.14374999999999716
                },
                {
                    "name": "D#5",
                    "midi": 75,
                    "time": 107.69999999999845,
                    "velocity": 0.7874015748031497,
                    "duration": 0.14374999999999716
                },
                {
                    "name": "G5",
                    "midi": 79,
                    "time": 107.84999999999845,
                    "velocity": 0.7874015748031497,
                    "duration": 0.14374999999999716
                },
                {
                    "name": "F5",
                    "midi": 77,
                    "time": 107.99999999999844,
                    "velocity": 0.7874015748031497,
                    "duration": 0.14374999999999716
                },
                {
                    "name": "A4",
                    "midi": 69,
                    "time": 108.14999999999843,
                    "velocity": 0.7874015748031497,
                    "duration": 0.14374999999999716
                },
                {
                    "name": "F5",
                    "midi": 77,
                    "time": 108.29999999999842,
                    "velocity": 0.7874015748031497,
                    "duration": 0.14374999999999716
                },
                {
                    "name": "G5",
                    "midi": 79,
                    "time": 108.44999999999841,
                    "velocity": 0.7874015748031497,
                    "duration": 0.14374999999999716
                },
                {
                    "name": "F5",
                    "midi": 77,
                    "time": 108.5999999999984,
                    "velocity": 0.7874015748031497,
                    "duration": 0.14374999999999716
                },
                {
                    "name": "A#4",
                    "midi": 70,
                    "time": 108.7499999999984,
                    "velocity": 0.7874015748031497,
                    "duration": 0.14374999999999716
                },
                {
                    "name": "D5",
                    "midi": 74,
                    "time": 108.89999999999839,
                    "velocity": 0.7874015748031497,
                    "duration": 0.14374999999999716
                },
                {
                    "name": "F5",
                    "midi": 77,
                    "time": 109.04999999999838,
                    "velocity": 0.7874015748031497,
                    "duration": 0.14374999999999716
                },
                {
                    "name": "E5",
                    "midi": 76,
                    "time": 109.19999999999837,
                    "velocity": 0.7874015748031497,
                    "duration": 0.14374999999999716
                },
                {
                    "name": "G#4",
                    "midi": 68,
                    "time": 109.34999999999836,
                    "velocity": 0.7874015748031497,
                    "duration": 0.14374999999999716
                },
                {
                    "name": "E5",
                    "midi": 76,
                    "time": 109.49999999999835,
                    "velocity": 0.7874015748031497,
                    "duration": 0.14374999999999716
                },
                {
                    "name": "F5",
                    "midi": 77,
                    "time": 109.64999999999834,
                    "velocity": 0.7874015748031497,
                    "duration": 0.14374999999999716
                },
                {
                    "name": "E5",
                    "midi": 76,
                    "time": 109.79999999999833,
                    "velocity": 0.7874015748031497,
                    "duration": 0.14374999999999716
                },
                {
                    "name": "A4",
                    "midi": 69,
                    "time": 109.94999999999833,
                    "velocity": 0.7874015748031497,
                    "duration": 0.14374999999999716
                },
                {
                    "name": "E5",
                    "midi": 76,
                    "time": 110.09999999999832,
                    "velocity": 0.7874015748031497,
                    "duration": 0.14374999999999716
                },
                {
                    "name": "G5",
                    "midi": 79,
                    "time": 110.24999999999831,
                    "velocity": 0.7874015748031497,
                    "duration": 0.14374999999999716
                },
                {
                    "name": "F5",
                    "midi": 77,
                    "time": 110.3999999999983,
                    "velocity": 0.7480314960629921,
                    "duration": 0.14374999999999716
                },
                {
                    "name": "G5",
                    "midi": 79,
                    "time": 110.54999999999829,
                    "velocity": 0.7559055118110236,
                    "duration": 0.14374999999999716
                },
                {
                    "name": "F5",
                    "midi": 77,
                    "time": 110.69999999999828,
                    "velocity": 0.7637795275590551,
                    "duration": 0.14374999999999716
                },
                {
                    "name": "E5",
                    "midi": 76,
                    "time": 110.84999999999827,
                    "velocity": 0.7716535433070866,
                    "duration": 0.14374999999999716
                },
                {
                    "name": "D5",
                    "midi": 74,
                    "time": 110.99999999999827,
                    "velocity": 0.7795275590551181,
                    "duration": 0.14374999999999716
                },
                {
                    "name": "C5",
                    "midi": 72,
                    "time": 111.14999999999826,
                    "velocity": 0.7874015748031497,
                    "duration": 0.14374999999999716
                },
                {
                    "name": "B4",
                    "midi": 71,
                    "time": 111.29999999999825,
                    "velocity": 0.7952755905511811,
                    "duration": 0.14374999999999716
                },
                {
                    "name": "A4",
                    "midi": 69,
                    "time": 111.44999999999824,
                    "velocity": 0.8031496062992126,
                    "duration": 0.14374999999999716
                },
                {
                    "name": "G#4",
                    "midi": 68,
                    "time": 111.59999999999823,
                    "velocity": 0.8110236220472441,
                    "duration": 0.14374999999999716
                },
                {
                    "name": "E4",
                    "midi": 64,
                    "time": 111.74999999999822,
                    "velocity": 0.8188976377952756,
                    "duration": 0.14374999999999716
                },
                {
                    "name": "F#4",
                    "midi": 66,
                    "time": 111.89999999999822,
                    "velocity": 0.8267716535433071,
                    "duration": 0.14374999999999716
                },
                {
                    "name": "G#4",
                    "midi": 68,
                    "time": 112.0499999999982,
                    "velocity": 0.8346456692913385,
                    "duration": 0.14374999999999716
                },
                {
                    "name": "A4",
                    "midi": 69,
                    "time": 112.1999999999982,
                    "velocity": 0.84251968503937,
                    "duration": 0.14374999999999716
                },
                {
                    "name": "G#4",
                    "midi": 68,
                    "time": 112.34999999999819,
                    "velocity": 0.8503937007874016,
                    "duration": 0.14374999999999716
                },
                {
                    "name": "A4",
                    "midi": 69,
                    "time": 112.49999999999818,
                    "velocity": 0.8582677165354331,
                    "duration": 0.14374999999999716
                },
                {
                    "name": "B4",
                    "midi": 71,
                    "time": 112.64999999999817,
                    "velocity": 0.8661417322834646,
                    "duration": 0.14374999999999716
                },
                {
                    "name": "C5",
                    "midi": 72,
                    "time": 112.79999999999816,
                    "velocity": 0.7874015748031497,
                    "duration": 0.4437499999999943
                },
                {
                    "name": "E4",
                    "midi": 64,
                    "time": 113.39999999999816,
                    "velocity": 0.7874015748031497,
                    "duration": 0.59375
                },
                {
                    "name": "F4",
                    "midi": 65,
                    "time": 113.99999999999815,
                    "velocity": 0.7874015748031497,
                    "duration": 0.14374999999999716
                },
                {
                    "name": "E4",
                    "midi": 64,
                    "time": 114.14999999999814,
                    "velocity": 0.7874015748031497,
                    "duration": 0.14374999999999716
                },
                {
                    "name": "D4",
                    "midi": 62,
                    "time": 114.29999999999814,
                    "velocity": 0.7874015748031497,
                    "duration": 0.14374999999999716
                },
                {
                    "name": "C#4",
                    "midi": 61,
                    "time": 114.44999999999813,
                    "velocity": 0.7874015748031497,
                    "duration": 0.14374999999999716
                },
                {
                    "name": "D4",
                    "midi": 62,
                    "time": 114.59999999999812,
                    "velocity": 0.7874015748031497,
                    "duration": 0.14374999999999716
                },
                {
                    "name": "E4",
                    "midi": 64,
                    "time": 114.74999999999811,
                    "velocity": 0.7874015748031497,
                    "duration": 0.14374999999999716
                },
                {
                    "name": "F#4",
                    "midi": 66,
                    "time": 114.8999999999981,
                    "velocity": 0.7874015748031497,
                    "duration": 0.14374999999999716
                },
                {
                    "name": "G#4",
                    "midi": 68,
                    "time": 115.0499999999981,
                    "velocity": 0.7874015748031497,
                    "duration": 0.14374999999999716
                },
                {
                    "name": "A4",
                    "midi": 69,
                    "time": 115.19999999999808,
                    "velocity": 0.7874015748031497,
                    "duration": 0.14374999999999716
                },
                {
                    "name": "E4",
                    "midi": 64,
                    "time": 115.34999999999808,
                    "velocity": 0.7874015748031497,
                    "duration": 0.14374999999999716
                },
                {
                    "name": "A4",
                    "midi": 69,
                    "time": 115.49999999999807,
                    "velocity": 0.7874015748031497,
                    "duration": 0.59375
                },
                {
                    "name": "G#4",
                    "midi": 68,
                    "time": 116.09999999999806,
                    "velocity": 0.7874015748031497,
                    "duration": 0.29375000000000284
                },
                {
                    "name": "A4",
                    "midi": 69,
                    "time": 116.39999999999806,
                    "velocity": 0.7874015748031497,
                    "duration": 0.29375000000000284
                },
                {
                    "name": "B4",
                    "midi": 71,
                    "time": 116.69999999999806,
                    "velocity": 0.7874015748031497,
                    "duration": 0.29375000000000284
                },
                {
                    "name": "C5",
                    "midi": 72,
                    "time": 116.99999999999805,
                    "velocity": 0.7874015748031497,
                    "duration": 0.29375000000000284
                },
                {
                    "name": "B4",
                    "midi": 71,
                    "time": 117.29999999999805,
                    "velocity": 0.7874015748031497,
                    "duration": 0.14374999999999716
                },
                {
                    "name": "A4",
                    "midi": 69,
                    "time": 117.44999999999804,
                    "velocity": 0.7874015748031497,
                    "duration": 0.14374999999999716
                },
                {
                    "name": "B4",
                    "midi": 71,
                    "time": 117.59999999999803,
                    "velocity": 0.7874015748031497,
                    "duration": 0.29375000000000284
                },
                {
                    "name": "C#5",
                    "midi": 73,
                    "time": 117.89999999999803,
                    "velocity": 0.7874015748031497,
                    "duration": 0.29375000000000284
                },
                {
                    "name": "D5",
                    "midi": 74,
                    "time": 118.19999999999803,
                    "velocity": 0.7874015748031497,
                    "duration": 0.8187499999999943
                },
                {
                    "name": "C5",
                    "midi": 72,
                    "time": 119.09999999999802,
                    "velocity": 0.7559055118110236,
                    "duration": 0.14374999999999716
                },
                {
                    "name": "B4",
                    "midi": 71,
                    "time": 119.24999999999801,
                    "velocity": 0.7559055118110236,
                    "duration": 0.14374999999999716
                },
                {
                    "name": "C5",
                    "midi": 72,
                    "time": 119.399999999998,
                    "velocity": 0.7637795275590551,
                    "duration": 0.14374999999999716
                },
                {
                    "name": "A4",
                    "midi": 69,
                    "time": 119.699999999998,
                    "velocity": 0.7716535433070866,
                    "duration": 0.59375
                },
                {
                    "name": "G#4",
                    "midi": 68,
                    "time": 120.299999999998,
                    "velocity": 0.7874015748031497,
                    "duration": 0.14374999999999716
                },
                {
                    "name": "F#4",
                    "midi": 66,
                    "time": 120.44999999999798,
                    "velocity": 0.7874015748031497,
                    "duration": 0.14374999999999716
                },
                {
                    "name": "A4",
                    "midi": 69,
                    "time": 120.59999999999798,
                    "velocity": 0.7952755905511811,
                    "duration": 0.06874999999999432
                },
                {
                    "name": "G#4",
                    "midi": 68,
                    "time": 120.67499999999797,
                    "velocity": 0.7952755905511811,
                    "duration": 0.06874999999999432
                },
                {
                    "name": "A4",
                    "midi": 69,
                    "time": 120.74999999999795,
                    "velocity": 0.7952755905511811,
                    "duration": 0.06874999999999432
                },
                {
                    "name": "G#4",
                    "midi": 68,
                    "time": 120.82499999999794,
                    "velocity": 0.7952755905511811,
                    "duration": 0.06874999999999432
                },
                {
                    "name": "A4",
                    "midi": 69,
                    "time": 120.89999999999793,
                    "velocity": 0.8031496062992126,
                    "duration": 0.06874999999999432
                },
                {
                    "name": "G#4",
                    "midi": 68,
                    "time": 120.97499999999792,
                    "velocity": 0.8031496062992126,
                    "duration": 0.06874999999999432
                },
                {
                    "name": "F#4",
                    "midi": 66,
                    "time": 121.04999999999791,
                    "velocity": 0.8031496062992126,
                    "duration": 0.06874999999999432
                },
                {
                    "name": "G#4",
                    "midi": 68,
                    "time": 121.1249999999979,
                    "velocity": 0.8031496062992126,
                    "duration": 0.06874999999999432
                },
                {
                    "name": "A4",
                    "midi": 69,
                    "time": 121.19999999999789,
                    "velocity": 0.8110236220472441,
                    "duration": 0.14374999999999716
                },
                {
                    "name": "E5",
                    "midi": 76,
                    "time": 121.49999999999788,
                    "velocity": 0.8188976377952756,
                    "duration": 0.14374999999999716
                },
                {
                    "name": "A5",
                    "midi": 81,
                    "time": 121.79999999999788,
                    "velocity": 0.8267716535433071,
                    "duration": 1.0562500000000057
                },
                {
                    "name": "A5",
                    "midi": 81,
                    "time": 122.99999999999788,
                    "velocity": 0.8582677165354331,
                    "duration": 0.06874999999999432
                },
                {
                    "name": "G#5",
                    "midi": 80,
                    "time": 123.07499999999787,
                    "velocity": 0.8582677165354331,
                    "duration": 0.06874999999999432
                },
                {
                    "name": "A5",
                    "midi": 81,
                    "time": 123.14999999999786,
                    "velocity": 0.8582677165354331,
                    "duration": 0.06874999999999432
                },
                {
                    "name": "G#5",
                    "midi": 80,
                    "time": 123.22499999999785,
                    "velocity": 0.8582677165354331,
                    "duration": 0.06874999999999432
                },
                {
                    "name": "A5",
                    "midi": 81,
                    "time": 123.29999999999784,
                    "velocity": 0.8661417322834646,
                    "duration": 0.06874999999999432
                },
                {
                    "name": "G#5",
                    "midi": 80,
                    "time": 123.37499999999783,
                    "velocity": 0.8661417322834646,
                    "duration": 0.06874999999999432
                },
                {
                    "name": "F#5",
                    "midi": 78,
                    "time": 123.44999999999781,
                    "velocity": 0.8661417322834646,
                    "duration": 0.06874999999999432
                },
                {
                    "name": "G#5",
                    "midi": 80,
                    "time": 123.5249999999978,
                    "velocity": 0.8661417322834646,
                    "duration": 0.06874999999999432
                },
                {
                    "name": "A5",
                    "midi": 81,
                    "time": 123.59999999999779,
                    "velocity": 0.905511811023622,
                    "duration": 0.14374999999999716
                },
                {
                    "name": "G5",
                    "midi": 79,
                    "time": 123.74999999999778,
                    "velocity": 0.7874015748031497,
                    "duration": 0.14374999999999716
                },
                {
                    "name": "F5",
                    "midi": 77,
                    "time": 123.89999999999777,
                    "velocity": 0.7874015748031497,
                    "duration": 0.4437499999999943
                },
                {
                    "name": "E5",
                    "midi": 76,
                    "time": 124.34999999999776,
                    "velocity": 0.7874015748031497,
                    "duration": 0.14374999999999716
                },
                {
                    "name": "D5",
                    "midi": 74,
                    "time": 124.49999999999775,
                    "velocity": 0.7874015748031497,
                    "duration": 0.14374999999999716
                },
                {
                    "name": "C#5",
                    "midi": 73,
                    "time": 124.64999999999775,
                    "velocity": 0.7874015748031497,
                    "duration": 0.14374999999999716
                },
                {
                    "name": "D5",
                    "midi": 74,
                    "time": 124.79999999999774,
                    "velocity": 0.7874015748031497,
                    "duration": 0.14374999999999716
                },
                {
                    "name": "C5",
                    "midi": 72,
                    "time": 124.94999999999773,
                    "velocity": 0.7874015748031497,
                    "duration": 0.14374999999999716
                },
                {
                    "name": "A#4",
                    "midi": 70,
                    "time": 125.09999999999772,
                    "velocity": 0.7874015748031497,
                    "duration": 0.4437499999999943
                },
                {
                    "name": "A4",
                    "midi": 69,
                    "time": 125.54999999999771,
                    "velocity": 0.7874015748031497,
                    "duration": 0.14374999999999716
                },
                {
                    "name": "G#4",
                    "midi": 68,
                    "time": 125.6999999999977,
                    "velocity": 0.7874015748031497,
                    "duration": 0.14374999999999716
                },
                {
                    "name": "F#4",
                    "midi": 66,
                    "time": 125.84999999999769,
                    "velocity": 0.7874015748031497,
                    "duration": 0.14374999999999716
                },
                {
                    "name": "G#4",
                    "midi": 68,
                    "time": 125.99999999999768,
                    "velocity": 0.7874015748031497,
                    "duration": 0.29375000000000284
                },
                {
                    "name": "E4",
                    "midi": 64,
                    "time": 126.29999999999768,
                    "velocity": 0.7874015748031497,
                    "duration": 0.14374999999999716
                },
                {
                    "name": "E5",
                    "midi": 76,
                    "time": 126.59999999999768,
                    "velocity": 0.7874015748031497,
                    "duration": 0.29375000000000284
                },
                {
                    "name": "F5",
                    "midi": 77,
                    "time": 126.89999999999768,
                    "velocity": 0.7874015748031497,
                    "duration": 0.29375000000000284
                },
                {
                    "name": "D5",
                    "midi": 74,
                    "time": 127.19999999999767,
                    "velocity": 0.7874015748031497,
                    "duration": 0.14374999999999716
                },
                {
                    "name": "C5",
                    "midi": 72,
                    "time": 127.34999999999766,
                    "velocity": 0.7874015748031497,
                    "duration": 0.29375000000000284
                },
                {
                    "name": "C5",
                    "midi": 72,
                    "time": 127.82499999999767,
                    "velocity": 0.7637795275590551,
                    "duration": 0.08750000000000568
                },
                {
                    "name": "B4",
                    "midi": 71,
                    "time": 127.89999999999768,
                    "velocity": 0.7165354330708661,
                    "duration": 0.06875000000000853
                },
                {
                    "name": "C5",
                    "midi": 72,
                    "time": 127.96874999999768,
                    "velocity": 0.7165354330708661,
                    "duration": 0.056249999999991473
                },
                {
                    "name": "B4",
                    "midi": 71,
                    "time": 128.01874999999768,
                    "velocity": 0.7401574803149606,
                    "duration": 0.06874999999999432
                },
                {
                    "name": "C5",
                    "midi": 72,
                    "time": 128.08749999999768,
                    "velocity": 0.7007874015748031,
                    "duration": 0.05000000000001137
                },
                {
                    "name": "B4",
                    "midi": 71,
                    "time": 128.1374999999977,
                    "velocity": 0.7559055118110236,
                    "duration": 0.056250000000005684
                },
                {
                    "name": "A4",
                    "midi": 69,
                    "time": 128.1937499999977,
                    "velocity": 0.7165354330708661,
                    "duration": 0.04374999999998863
                },
                {
                    "name": "B4",
                    "midi": 71,
                    "time": 128.24999999999767,
                    "velocity": 0.8110236220472441,
                    "duration": 0.21875
                },
                {
                    "name": "A4",
                    "midi": 69,
                    "time": 128.39999999999768,
                    "velocity": 0.7874015748031497,
                    "duration": 1.1937499999999943
                }
            ],
            "controlChanges": {
                "7": [
                    {
                        "number": 7,
                        "time": 0,
                        "value": 0.7795275590551181
                    }
                ],
                "10": [
                    {
                        "number": 10,
                        "time": 0,
                        "value": 0.3858267716535433
                    }
                ],
                "93": [
                    {
                        "number": 93,
                        "time": 0,
                        "value": 0
                    }
                ],
                "121": [
                    {
                        "number": 121,
                        "time": 0,
                        "value": 0
                    },
                    {
                        "number": 121,
                        "time": 129.59374999999767,
                        "value": 0
                    }
                ]
            },
            "id": 1,
            "name": "RH",
            "instrumentNumber": 0,
            "instrument": "acoustic grand piano",
            "instrumentFamily": "piano",
            "channelNumber": 0,
            "isPercussion": false
        },
        {
            "startTime": 0.6,
            "duration": 129.59374999999764,
            "length": 617,
            "notes": [
                {
                    "name": "A3",
                    "midi": 57,
                    "time": 0.6,
                    "velocity": 0.7874015748031497,
                    "duration": 0.5937500000000001
                },
                {
                    "name": "C4",
                    "midi": 60,
                    "time": 1.2000000000000002,
                    "velocity": 0.7874015748031497,
                    "duration": 0.59375
                },
                {
                    "name": "E3",
                    "midi": 52,
                    "time": 1.8000000000000003,
                    "velocity": 0.7874015748031497,
                    "duration": 0.59375
                },
                {
                    "name": "F3",
                    "midi": 53,
                    "time": 2.4000000000000004,
                    "velocity": 0.7874015748031497,
                    "duration": 0.14374999999999982
                },
                {
                    "name": "E3",
                    "midi": 52,
                    "time": 2.5500000000000003,
                    "velocity": 0.7874015748031497,
                    "duration": 0.14374999999999982
                },
                {
                    "name": "D3",
                    "midi": 50,
                    "time": 2.7,
                    "velocity": 0.889763779527559,
                    "duration": 0.59375
                },
                {
                    "name": "E3",
                    "midi": 52,
                    "time": 3.3000000000000003,
                    "velocity": 0.7874015748031497,
                    "duration": 0.14374999999999982
                },
                {
                    "name": "F#3",
                    "midi": 54,
                    "time": 3.45,
                    "velocity": 0.7874015748031497,
                    "duration": 0.14374999999999982
                },
                {
                    "name": "G3",
                    "midi": 55,
                    "time": 3.6,
                    "velocity": 0.7874015748031497,
                    "duration": 0.14374999999999982
                },
                {
                    "name": "A3",
                    "midi": 57,
                    "time": 3.75,
                    "velocity": 0.7874015748031497,
                    "duration": 0.14374999999999982
                },
                {
                    "name": "A#3",
                    "midi": 58,
                    "time": 3.9,
                    "velocity": 0.8740157480314961,
                    "duration": 0.5312500000000004
                },
                {
                    "name": "A3",
                    "midi": 57,
                    "time": 4.5,
                    "velocity": 0.7086614173228346,
                    "duration": 0.14374999999999982
                },
                {
                    "name": "G#3",
                    "midi": 56,
                    "time": 4.6499999999999995,
                    "velocity": 0.7086614173228346,
                    "duration": 0.14374999999999982
                },
                {
                    "name": "A3",
                    "midi": 57,
                    "time": 4.799999999999999,
                    "velocity": 0.6771653543307087,
                    "duration": 0.14374999999999982
                },
                {
                    "name": "E3",
                    "midi": 52,
                    "time": 4.949999999999998,
                    "velocity": 0.6771653543307087,
                    "duration": 0.14374999999999982
                },
                {
                    "name": "A3",
                    "midi": 57,
                    "time": 5.099999999999998,
                    "velocity": 0.6850393700787402,
                    "duration": 0.14374999999999982
                },
                {
                    "name": "B3",
                    "midi": 59,
                    "time": 5.249999999999997,
                    "velocity": 0.6850393700787402,
                    "duration": 0.14374999999999982
                },
                {
                    "name": "A3",
                    "midi": 57,
                    "time": 5.399999999999997,
                    "velocity": 0.6929133858267716,
                    "duration": 0.14374999999999982
                },
                {
                    "name": "E3",
                    "midi": 52,
                    "time": 5.549999999999996,
                    "velocity": 0.7007874015748031,
                    "duration": 0.14374999999999982
                },
                {
                    "name": "A3",
                    "midi": 57,
                    "time": 5.699999999999996,
                    "velocity": 0.7007874015748031,
                    "duration": 0.14374999999999982
                },
                {
                    "name": "C4",
                    "midi": 60,
                    "time": 5.849999999999995,
                    "velocity": 0.7086614173228346,
                    "duration": 0.14374999999999982
                },
                {
                    "name": "B3",
                    "midi": 59,
                    "time": 5.999999999999995,
                    "velocity": 0.7086614173228346,
                    "duration": 0.14374999999999982
                },
                {
                    "name": "E3",
                    "midi": 52,
                    "time": 6.149999999999994,
                    "velocity": 0.7165354330708661,
                    "duration": 0.14374999999999982
                },
                {
                    "name": "B3",
                    "midi": 59,
                    "time": 6.299999999999994,
                    "velocity": 0.7244094488188977,
                    "duration": 0.14374999999999982
                },
                {
                    "name": "C4",
                    "midi": 60,
                    "time": 6.449999999999993,
                    "velocity": 0.7244094488188977,
                    "duration": 0.14374999999999982
                },
                {
                    "name": "B3",
                    "midi": 59,
                    "time": 6.5999999999999925,
                    "velocity": 0.7322834645669292,
                    "duration": 0.14374999999999982
                },
                {
                    "name": "E3",
                    "midi": 52,
                    "time": 6.749999999999992,
                    "velocity": 0.7322834645669292,
                    "duration": 0.14374999999999982
                },
                {
                    "name": "B3",
                    "midi": 59,
                    "time": 6.8999999999999915,
                    "velocity": 0.7401574803149606,
                    "duration": 0.14374999999999982
                },
                {
                    "name": "D4",
                    "midi": 62,
                    "time": 7.049999999999991,
                    "velocity": 0.7480314960629921,
                    "duration": 0.14374999999999982
                },
                {
                    "name": "C4",
                    "midi": 60,
                    "time": 7.19999999999999,
                    "velocity": 0.7480314960629921,
                    "duration": 0.14374999999999982
                },
                {
                    "name": "E3",
                    "midi": 52,
                    "time": 7.34999999999999,
                    "velocity": 0.7559055118110236,
                    "duration": 0.14374999999999982
                },
                {
                    "name": "C4",
                    "midi": 60,
                    "time": 7.499999999999989,
                    "velocity": 0.7559055118110236,
                    "duration": 0.14374999999999982
                },
                {
                    "name": "D4",
                    "midi": 62,
                    "time": 7.649999999999989,
                    "velocity": 0.7637795275590551,
                    "duration": 0.14374999999999982
                },
                {
                    "name": "C4",
                    "midi": 60,
                    "time": 7.799999999999988,
                    "velocity": 0.7637795275590551,
                    "duration": 0.14374999999999982
                },
                {
                    "name": "E3",
                    "midi": 52,
                    "time": 7.949999999999988,
                    "velocity": 0.7716535433070866,
                    "duration": 0.14374999999999982
                },
                {
                    "name": "C4",
                    "midi": 60,
                    "time": 8.099999999999987,
                    "velocity": 0.7795275590551181,
                    "duration": 0.1437500000000007
                },
                {
                    "name": "E4",
                    "midi": 64,
                    "time": 8.249999999999988,
                    "velocity": 0.7795275590551181,
                    "duration": 0.1437500000000007
                },
                {
                    "name": "B3",
                    "midi": 59,
                    "time": 8.399999999999988,
                    "velocity": 0.7874015748031497,
                    "duration": 0.1437500000000007
                },
                {
                    "name": "E3",
                    "midi": 52,
                    "time": 8.549999999999988,
                    "velocity": 0.7874015748031497,
                    "duration": 0.1437500000000007
                },
                {
                    "name": "B3",
                    "midi": 59,
                    "time": 8.699999999999989,
                    "velocity": 0.7952755905511811,
                    "duration": 0.1437500000000007
                },
                {
                    "name": "C4",
                    "midi": 60,
                    "time": 8.849999999999989,
                    "velocity": 0.8031496062992126,
                    "duration": 0.1437500000000007
                },
                {
                    "name": "B3",
                    "midi": 59,
                    "time": 8.99999999999999,
                    "velocity": 0.8031496062992126,
                    "duration": 0.1437500000000007
                },
                {
                    "name": "E3",
                    "midi": 52,
                    "time": 9.14999999999999,
                    "velocity": 0.8110236220472441,
                    "duration": 0.1437500000000007
                },
                {
                    "name": "B3",
                    "midi": 59,
                    "time": 9.29999999999999,
                    "velocity": 0.8110236220472441,
                    "duration": 0.1437500000000007
                },
                {
                    "name": "D4",
                    "midi": 62,
                    "time": 9.44999999999999,
                    "velocity": 0.8188976377952756,
                    "duration": 0.1437500000000007
                },
                {
                    "name": "C4",
                    "midi": 60,
                    "time": 9.59999999999999,
                    "velocity": 0.7874015748031497,
                    "duration": 0.1437500000000007
                },
                {
                    "name": "B3",
                    "midi": 59,
                    "time": 9.749999999999991,
                    "velocity": 0.7874015748031497,
                    "duration": 0.1437500000000007
                },
                {
                    "name": "A3",
                    "midi": 57,
                    "time": 9.899999999999991,
                    "velocity": 0.7874015748031497,
                    "duration": 0.44374999999999964
                },
                {
                    "name": "G#3",
                    "midi": 56,
                    "time": 10.499999999999991,
                    "velocity": 0.7874015748031497,
                    "duration": 0.2937499999999993
                },
                {
                    "name": "A3",
                    "midi": 57,
                    "time": 10.79999999999999,
                    "velocity": 0.7874015748031497,
                    "duration": 0.1437500000000007
                },
                {
                    "name": "C4",
                    "midi": 60,
                    "time": 10.94999999999999,
                    "velocity": 0.7874015748031497,
                    "duration": 0.1437500000000007
                },
                {
                    "name": "B3",
                    "midi": 59,
                    "time": 11.09999999999999,
                    "velocity": 0.7874015748031497,
                    "duration": 0.1437500000000007
                },
                {
                    "name": "D4",
                    "midi": 62,
                    "time": 11.249999999999991,
                    "velocity": 0.7874015748031497,
                    "duration": 0.1437500000000007
                },
                {
                    "name": "C4",
                    "midi": 60,
                    "time": 11.399999999999991,
                    "velocity": 0.7874015748031497,
                    "duration": 0.1437500000000007
                },
                {
                    "name": "B3",
                    "midi": 59,
                    "time": 11.549999999999992,
                    "velocity": 0.7874015748031497,
                    "duration": 0.1437500000000007
                },
                {
                    "name": "C4",
                    "midi": 60,
                    "time": 11.699999999999992,
                    "velocity": 0.7874015748031497,
                    "duration": 0.1437500000000007
                },
                {
                    "name": "A3",
                    "midi": 57,
                    "time": 11.849999999999993,
                    "velocity": 0.7874015748031497,
                    "duration": 0.1437500000000007
                },
                {
                    "name": "E3",
                    "midi": 52,
                    "time": 11.999999999999993,
                    "velocity": 0.7874015748031497,
                    "duration": 0.2937499999999993
                },
                {
                    "name": "F#3",
                    "midi": 54,
                    "time": 12.299999999999992,
                    "velocity": 0.7874015748031497,
                    "duration": 0.2937499999999993
                },
                {
                    "name": "G3",
                    "midi": 55,
                    "time": 12.59999999999999,
                    "velocity": 0.7874015748031497,
                    "duration": 0.2937499999999993
                },
                {
                    "name": "F#3",
                    "midi": 54,
                    "time": 12.89999999999999,
                    "velocity": 0.7874015748031497,
                    "duration": 0.1437500000000007
                },
                {
                    "name": "E3",
                    "midi": 52,
                    "time": 13.04999999999999,
                    "velocity": 0.7874015748031497,
                    "duration": 0.1437500000000007
                },
                {
                    "name": "F#3",
                    "midi": 54,
                    "time": 13.19999999999999,
                    "velocity": 0.7874015748031497,
                    "duration": 0.2937499999999993
                },
                {
                    "name": "G#3",
                    "midi": 56,
                    "time": 13.49999999999999,
                    "velocity": 0.7874015748031497,
                    "duration": 0.2937499999999993
                },
                {
                    "name": "A3",
                    "midi": 57,
                    "time": 13.799999999999988,
                    "velocity": 0.7874015748031497,
                    "duration": 0.8937500000000007
                },
                {
                    "name": "G3",
                    "midi": 55,
                    "time": 14.699999999999989,
                    "velocity": 0.7874015748031497,
                    "duration": 0.1437500000000007
                },
                {
                    "name": "F#3",
                    "midi": 54,
                    "time": 14.849999999999989,
                    "velocity": 0.7874015748031497,
                    "duration": 0.1437500000000007
                },
                {
                    "name": "G3",
                    "midi": 55,
                    "time": 14.99999999999999,
                    "velocity": 0.7874015748031497,
                    "duration": 0.2937499999999993
                },
                {
                    "name": "E3",
                    "midi": 52,
                    "time": 15.299999999999988,
                    "velocity": 0.7874015748031497,
                    "duration": 0.59375
                },
                {
                    "name": "D#3",
                    "midi": 51,
                    "time": 15.899999999999988,
                    "velocity": 0.7874015748031497,
                    "duration": 0.1437500000000007
                },
                {
                    "name": "C#3",
                    "midi": 49,
                    "time": 16.04999999999999,
                    "velocity": 0.7874015748031497,
                    "duration": 0.1437500000000007
                },
                {
                    "name": "E3",
                    "midi": 52,
                    "time": 16.199999999999992,
                    "velocity": 0.7874015748031497,
                    "duration": 0.06875000000000142
                },
                {
                    "name": "D#3",
                    "midi": 51,
                    "time": 16.274999999999995,
                    "velocity": 0.7874015748031497,
                    "duration": 0.06875000000000142
                },
                {
                    "name": "E3",
                    "midi": 52,
                    "time": 16.349999999999998,
                    "velocity": 0.7874015748031497,
                    "duration": 0.06875000000000142
                },
                {
                    "name": "D#3",
                    "midi": 51,
                    "time": 16.425,
                    "velocity": 0.7874015748031497,
                    "duration": 0.06875000000000142
                },
                {
                    "name": "E3",
                    "midi": 52,
                    "time": 16.500000000000004,
                    "velocity": 0.7874015748031497,
                    "duration": 0.06875000000000142
                },
                {
                    "name": "D#3",
                    "midi": 51,
                    "time": 16.575000000000006,
                    "velocity": 0.7874015748031497,
                    "duration": 0.06875000000000142
                },
                {
                    "name": "C#3",
                    "midi": 49,
                    "time": 16.65000000000001,
                    "velocity": 0.7874015748031497,
                    "duration": 0.06875000000000142
                },
                {
                    "name": "D#3",
                    "midi": 51,
                    "time": 16.725000000000012,
                    "velocity": 0.7874015748031497,
                    "duration": 0.06875000000000142
                },
                {
                    "name": "E3",
                    "midi": 52,
                    "time": 16.800000000000015,
                    "velocity": 0.7874015748031497,
                    "duration": 0.1437500000000007
                },
                {
                    "name": "B3",
                    "midi": 59,
                    "time": 17.100000000000016,
                    "velocity": 0.7874015748031497,
                    "duration": 0.2937499999999993
                },
                {
                    "name": "E4",
                    "midi": 64,
                    "time": 17.400000000000016,
                    "velocity": 0.7874015748031497,
                    "duration": 1.1687499999999993
                },
                {
                    "name": "E4",
                    "midi": 64,
                    "time": 18.600000000000016,
                    "velocity": 0.7874015748031497,
                    "duration": 0.06875000000000142
                },
                {
                    "name": "D#4",
                    "midi": 63,
                    "time": 18.67500000000002,
                    "velocity": 0.7874015748031497,
                    "duration": 0.06875000000000142
                },
                {
                    "name": "E4",
                    "midi": 64,
                    "time": 18.75000000000002,
                    "velocity": 0.7874015748031497,
                    "duration": 0.06875000000000142
                },
                {
                    "name": "D#4",
                    "midi": 63,
                    "time": 18.825000000000024,
                    "velocity": 0.7874015748031497,
                    "duration": 0.06875000000000142
                },
                {
                    "name": "E4",
                    "midi": 64,
                    "time": 18.900000000000027,
                    "velocity": 0.7874015748031497,
                    "duration": 0.06875000000000142
                },
                {
                    "name": "D#4",
                    "midi": 63,
                    "time": 18.97500000000003,
                    "velocity": 0.7874015748031497,
                    "duration": 0.06875000000000142
                },
                {
                    "name": "C#4",
                    "midi": 61,
                    "time": 19.050000000000033,
                    "velocity": 0.7874015748031497,
                    "duration": 0.06875000000000142
                },
                {
                    "name": "D#4",
                    "midi": 63,
                    "time": 19.125000000000036,
                    "velocity": 0.7874015748031497,
                    "duration": 0.06875000000000142
                },
                {
                    "name": "E4",
                    "midi": 64,
                    "time": 19.20000000000004,
                    "velocity": 0.7874015748031497,
                    "duration": 0.2937499999999993
                },
                {
                    "name": "E3",
                    "midi": 52,
                    "time": 19.50000000000004,
                    "velocity": 0.7559055118110236,
                    "duration": 0.1437500000000007
                },
                {
                    "name": "F#3",
                    "midi": 54,
                    "time": 19.65000000000004,
                    "velocity": 0.7322834645669292,
                    "duration": 0.1437500000000007
                },
                {
                    "name": "G3",
                    "midi": 55,
                    "time": 19.800000000000043,
                    "velocity": 0.7086614173228346,
                    "duration": 0.1437500000000007
                },
                {
                    "name": "A3",
                    "midi": 57,
                    "time": 19.950000000000045,
                    "velocity": 0.6929133858267716,
                    "duration": 0.1437500000000007
                },
                {
                    "name": "A#3",
                    "midi": 58,
                    "time": 20.100000000000048,
                    "velocity": 0.6850393700787402,
                    "duration": 0.1437500000000007
                },
                {
                    "name": "G3",
                    "midi": 55,
                    "time": 20.25000000000005,
                    "velocity": 0.6692913385826772,
                    "duration": 0.1437500000000007
                },
                {
                    "name": "E3",
                    "midi": 52,
                    "time": 20.400000000000052,
                    "velocity": 0.6535433070866141,
                    "duration": 0.1437500000000007
                },
                {
                    "name": "F3",
                    "midi": 53,
                    "time": 20.550000000000054,
                    "velocity": 0.6535433070866141,
                    "duration": 0.1437500000000007
                },
                {
                    "name": "G3",
                    "midi": 55,
                    "time": 20.700000000000056,
                    "velocity": 0.6535433070866141,
                    "duration": 0.4437500000000014
                },
                {
                    "name": "F3",
                    "midi": 53,
                    "time": 21.15000000000006,
                    "velocity": 0.6535433070866141,
                    "duration": 0.1437500000000007
                },
                {
                    "name": "E3",
                    "midi": 52,
                    "time": 21.30000000000006,
                    "velocity": 0.6535433070866141,
                    "duration": 0.1437500000000007
                },
                {
                    "name": "D3",
                    "midi": 50,
                    "time": 21.450000000000063,
                    "velocity": 0.6535433070866141,
                    "duration": 0.1437500000000007
                },
                {
                    "name": "C#3",
                    "midi": 49,
                    "time": 21.600000000000065,
                    "velocity": 0.6535433070866141,
                    "duration": 0.1437500000000007
                },
                {
                    "name": "D3",
                    "midi": 50,
                    "time": 21.750000000000068,
                    "velocity": 0.6535433070866141,
                    "duration": 0.1437500000000007
                },
                {
                    "name": "E3",
                    "midi": 52,
                    "time": 21.90000000000007,
                    "velocity": 0.6535433070866141,
                    "duration": 0.4437500000000014
                },
                {
                    "name": "D3",
                    "midi": 50,
                    "time": 22.350000000000072,
                    "velocity": 0.6535433070866141,
                    "duration": 0.1437500000000007
                },
                {
                    "name": "C#3",
                    "midi": 49,
                    "time": 22.500000000000075,
                    "velocity": 0.6535433070866141,
                    "duration": 0.1437500000000007
                },
                {
                    "name": "B2",
                    "midi": 47,
                    "time": 22.650000000000077,
                    "velocity": 0.6535433070866141,
                    "duration": 0.1437500000000007
                },
                {
                    "name": "C#3",
                    "midi": 49,
                    "time": 22.80000000000008,
                    "velocity": 0.6535433070866141,
                    "duration": 0.1437500000000007
                },
                {
                    "name": "A2",
                    "midi": 45,
                    "time": 22.95000000000008,
                    "velocity": 0.6535433070866141,
                    "duration": 0.1437500000000007
                },
                {
                    "name": "C#3",
                    "midi": 49,
                    "time": 23.100000000000083,
                    "velocity": 0.6535433070866141,
                    "duration": 0.1437500000000007
                },
                {
                    "name": "D3",
                    "midi": 50,
                    "time": 23.250000000000085,
                    "velocity": 0.6535433070866141,
                    "duration": 0.1437500000000007
                },
                {
                    "name": "E3",
                    "midi": 52,
                    "time": 23.400000000000087,
                    "velocity": 0.6535433070866141,
                    "duration": 0.1437500000000007
                },
                {
                    "name": "F3",
                    "midi": 53,
                    "time": 23.55000000000009,
                    "velocity": 0.6535433070866141,
                    "duration": 0.1437500000000007
                },
                {
                    "name": "G3",
                    "midi": 55,
                    "time": 23.70000000000009,
                    "velocity": 0.6535433070866141,
                    "duration": 0.1437500000000007
                },
                {
                    "name": "E3",
                    "midi": 52,
                    "time": 23.850000000000094,
                    "velocity": 0.6535433070866141,
                    "duration": 0.1437500000000007
                },
                {
                    "name": "F3",
                    "midi": 53,
                    "time": 24.000000000000096,
                    "velocity": 0.6535433070866141,
                    "duration": 0.1437500000000007
                },
                {
                    "name": "E3",
                    "midi": 52,
                    "time": 24.150000000000098,
                    "velocity": 0.6535433070866141,
                    "duration": 0.1437500000000007
                },
                {
                    "name": "D3",
                    "midi": 50,
                    "time": 24.3000000000001,
                    "velocity": 0.6535433070866141,
                    "duration": 0.1437500000000007
                },
                {
                    "name": "E3",
                    "midi": 52,
                    "time": 24.450000000000102,
                    "velocity": 0.6535433070866141,
                    "duration": 0.1437500000000007
                },
                {
                    "name": "F3",
                    "midi": 53,
                    "time": 24.600000000000104,
                    "velocity": 0.6535433070866141,
                    "duration": 0.1437500000000007
                },
                {
                    "name": "G3",
                    "midi": 55,
                    "time": 24.750000000000107,
                    "velocity": 0.6535433070866141,
                    "duration": 0.1437500000000007
                },
                {
                    "name": "G#3",
                    "midi": 56,
                    "time": 24.90000000000011,
                    "velocity": 0.6535433070866141,
                    "duration": 0.1437500000000007
                },
                {
                    "name": "F3",
                    "midi": 53,
                    "time": 25.05000000000011,
                    "velocity": 0.6535433070866141,
                    "duration": 0.1437500000000007
                },
                {
                    "name": "D3",
                    "midi": 50,
                    "time": 25.200000000000113,
                    "velocity": 0.6535433070866141,
                    "duration": 0.1437500000000007
                },
                {
                    "name": "E3",
                    "midi": 52,
                    "time": 25.350000000000115,
                    "velocity": 0.6535433070866141,
                    "duration": 0.1437500000000007
                },
                {
                    "name": "F3",
                    "midi": 53,
                    "time": 25.500000000000117,
                    "velocity": 0.6535433070866141,
                    "duration": 0.4437500000000014
                },
                {
                    "name": "E3",
                    "midi": 52,
                    "time": 25.95000000000012,
                    "velocity": 0.6535433070866141,
                    "duration": 0.1437500000000007
                },
                {
                    "name": "D3",
                    "midi": 50,
                    "time": 26.100000000000122,
                    "velocity": 0.6535433070866141,
                    "duration": 0.1437500000000007
                },
                {
                    "name": "C3",
                    "midi": 48,
                    "time": 26.250000000000124,
                    "velocity": 0.6535433070866141,
                    "duration": 0.1437500000000007
                },
                {
                    "name": "B2",
                    "midi": 47,
                    "time": 26.400000000000126,
                    "velocity": 0.6535433070866141,
                    "duration": 0.1437500000000007
                },
                {
                    "name": "C3",
                    "midi": 48,
                    "time": 26.55000000000013,
                    "velocity": 0.6535433070866141,
                    "duration": 0.1437500000000007
                },
                {
                    "name": "D3",
                    "midi": 50,
                    "time": 26.70000000000013,
                    "velocity": 0.6535433070866141,
                    "duration": 0.4437500000000014
                },
                {
                    "name": "C3",
                    "midi": 48,
                    "time": 27.150000000000134,
                    "velocity": 0.6535433070866141,
                    "duration": 0.1437500000000007
                },
                {
                    "name": "B2",
                    "midi": 47,
                    "time": 27.300000000000136,
                    "velocity": 0.6535433070866141,
                    "duration": 0.1437500000000007
                },
                {
                    "name": "A2",
                    "midi": 45,
                    "time": 27.450000000000138,
                    "velocity": 0.6535433070866141,
                    "duration": 0.1437500000000007
                },
                {
                    "name": "B2",
                    "midi": 47,
                    "time": 27.60000000000014,
                    "velocity": 0.6535433070866141,
                    "duration": 0.1437500000000007
                },
                {
                    "name": "G2",
                    "midi": 43,
                    "time": 27.750000000000142,
                    "velocity": 0.6535433070866141,
                    "duration": 0.1437500000000007
                },
                {
                    "name": "B2",
                    "midi": 47,
                    "time": 27.900000000000144,
                    "velocity": 0.6535433070866141,
                    "duration": 0.1437500000000007
                },
                {
                    "name": "C3",
                    "midi": 48,
                    "time": 28.050000000000146,
                    "velocity": 0.6535433070866141,
                    "duration": 0.1437500000000007
                },
                {
                    "name": "D3",
                    "midi": 50,
                    "time": 28.20000000000015,
                    "velocity": 0.6535433070866141,
                    "duration": 0.1437500000000007
                },
                {
                    "name": "E3",
                    "midi": 52,
                    "time": 28.35000000000015,
                    "velocity": 0.6535433070866141,
                    "duration": 0.1437500000000007
                },
                {
                    "name": "F3",
                    "midi": 53,
                    "time": 28.500000000000153,
                    "velocity": 0.6535433070866141,
                    "duration": 0.1437500000000007
                },
                {
                    "name": "D3",
                    "midi": 50,
                    "time": 28.650000000000155,
                    "velocity": 0.6535433070866141,
                    "duration": 0.1437500000000007
                },
                {
                    "name": "E3",
                    "midi": 52,
                    "time": 28.800000000000157,
                    "velocity": 0.6535433070866141,
                    "duration": 0.1437500000000007
                },
                {
                    "name": "D3",
                    "midi": 50,
                    "time": 28.95000000000016,
                    "velocity": 0.6535433070866141,
                    "duration": 0.1437500000000007
                },
                {
                    "name": "C3",
                    "midi": 48,
                    "time": 29.10000000000016,
                    "velocity": 0.6535433070866141,
                    "duration": 0.1437500000000007
                },
                {
                    "name": "D3",
                    "midi": 50,
                    "time": 29.250000000000163,
                    "velocity": 0.6535433070866141,
                    "duration": 0.1437500000000007
                },
                {
                    "name": "E3",
                    "midi": 52,
                    "time": 29.400000000000166,
                    "velocity": 0.6535433070866141,
                    "duration": 0.1437500000000007
                },
                {
                    "name": "F3",
                    "midi": 53,
                    "time": 29.550000000000168,
                    "velocity": 0.6535433070866141,
                    "duration": 0.1437500000000007
                },
                {
                    "name": "G3",
                    "midi": 55,
                    "time": 29.70000000000017,
                    "velocity": 0.6535433070866141,
                    "duration": 0.1437500000000007
                },
                {
                    "name": "E3",
                    "midi": 52,
                    "time": 29.850000000000172,
                    "velocity": 0.6535433070866141,
                    "duration": 0.1437500000000007
                },
                {
                    "name": "F3",
                    "midi": 53,
                    "time": 30.000000000000174,
                    "velocity": 0.7874015748031497,
                    "duration": 0.21875
                },
                {
                    "name": "A3",
                    "midi": 57,
                    "time": 30.300000000000175,
                    "velocity": 0.7874015748031497,
                    "duration": 0.21875
                },
                {
                    "name": "D3",
                    "midi": 50,
                    "time": 30.600000000000176,
                    "velocity": 0.7874015748031497,
                    "duration": 0.21875
                },
                {
                    "name": "F3",
                    "midi": 53,
                    "time": 30.900000000000176,
                    "velocity": 0.7874015748031497,
                    "duration": 0.21875
                },
                {
                    "name": "B2",
                    "midi": 47,
                    "time": 31.200000000000177,
                    "velocity": 0.7874015748031497,
                    "duration": 0.2937499999999993
                },
                {
                    "name": "C3",
                    "midi": 48,
                    "time": 31.500000000000178,
                    "velocity": 0.7874015748031497,
                    "duration": 0.1437500000000007
                },
                {
                    "name": "D3",
                    "midi": 50,
                    "time": 31.65000000000018,
                    "velocity": 0.7874015748031497,
                    "duration": 0.1437500000000007
                },
                {
                    "name": "E3",
                    "midi": 52,
                    "time": 31.800000000000182,
                    "velocity": 0.7874015748031497,
                    "duration": 0.1437500000000007
                },
                {
                    "name": "C3",
                    "midi": 48,
                    "time": 32.10000000000018,
                    "velocity": 0.7874015748031497,
                    "duration": 0.29375000000000284
                },
                {
                    "name": "D3",
                    "midi": 50,
                    "time": 32.40000000000018,
                    "velocity": 0.7874015748031497,
                    "duration": 0.21875
                },
                {
                    "name": "F3",
                    "midi": 53,
                    "time": 32.70000000000018,
                    "velocity": 0.7874015748031497,
                    "duration": 0.21875
                },
                {
                    "name": "B2",
                    "midi": 47,
                    "time": 33.00000000000018,
                    "velocity": 0.7874015748031497,
                    "duration": 0.21875
                },
                {
                    "name": "D3",
                    "midi": 50,
                    "time": 33.300000000000175,
                    "velocity": 0.7874015748031497,
                    "duration": 0.21875
                },
                {
                    "name": "G2",
                    "midi": 43,
                    "time": 33.60000000000017,
                    "velocity": 0.7874015748031497,
                    "duration": 0.29375000000000284
                },
                {
                    "name": "A2",
                    "midi": 45,
                    "time": 33.900000000000176,
                    "velocity": 0.7874015748031497,
                    "duration": 0.14374999999999716
                },
                {
                    "name": "B2",
                    "midi": 47,
                    "time": 34.050000000000175,
                    "velocity": 0.7874015748031497,
                    "duration": 0.14374999999999716
                },
                {
                    "name": "C3",
                    "midi": 48,
                    "time": 34.20000000000017,
                    "velocity": 0.7874015748031497,
                    "duration": 0.14374999999999716
                },
                {
                    "name": "A2",
                    "midi": 45,
                    "time": 34.50000000000017,
                    "velocity": 0.7874015748031497,
                    "duration": 0.29375000000000284
                },
                {
                    "name": "B2",
                    "midi": 47,
                    "time": 34.800000000000175,
                    "velocity": 0.7874015748031497,
                    "duration": 0.21875
                },
                {
                    "name": "D3",
                    "midi": 50,
                    "time": 35.10000000000017,
                    "velocity": 0.7716535433070866,
                    "duration": 0.21875
                },
                {
                    "name": "G#2",
                    "midi": 44,
                    "time": 35.40000000000017,
                    "velocity": 0.7480314960629921,
                    "duration": 0.21875
                },
                {
                    "name": "B2",
                    "midi": 47,
                    "time": 35.700000000000166,
                    "velocity": 0.7322834645669292,
                    "duration": 0.21875
                },
                {
                    "name": "E2",
                    "midi": 40,
                    "time": 36.00000000000016,
                    "velocity": 0.7086614173228346,
                    "duration": 0.29375000000000284
                },
                {
                    "name": "F#2",
                    "midi": 42,
                    "time": 36.30000000000017,
                    "velocity": 0.6929133858267716,
                    "duration": 0.14374999999999716
                },
                {
                    "name": "G#2",
                    "midi": 44,
                    "time": 36.450000000000166,
                    "velocity": 0.6850393700787402,
                    "duration": 0.14374999999999716
                },
                {
                    "name": "A2",
                    "midi": 45,
                    "time": 36.600000000000165,
                    "velocity": 0.6692913385826772,
                    "duration": 0.14374999999999716
                },
                {
                    "name": "B2",
                    "midi": 47,
                    "time": 36.90000000000016,
                    "velocity": 0.6535433070866141,
                    "duration": 0.14374999999999716
                },
                {
                    "name": "C3",
                    "midi": 48,
                    "time": 37.20000000000016,
                    "velocity": 0.6535433070866141,
                    "duration": 0.59375
                },
                {
                    "name": "E2",
                    "midi": 40,
                    "time": 37.80000000000016,
                    "velocity": 0.6535433070866141,
                    "duration": 0.59375
                },
                {
                    "name": "F2",
                    "midi": 41,
                    "time": 38.40000000000016,
                    "velocity": 0.6535433070866141,
                    "duration": 0.14374999999999716
                },
                {
                    "name": "E2",
                    "midi": 40,
                    "time": 38.55000000000016,
                    "velocity": 0.6535433070866141,
                    "duration": 0.14374999999999716
                },
                {
                    "name": "D2",
                    "midi": 38,
                    "time": 38.70000000000016,
                    "velocity": 0.6535433070866141,
                    "duration": 0.4437500000000014
                },
                {
                    "name": "E2",
                    "midi": 40,
                    "time": 39.15000000000016,
                    "velocity": 0.6535433070866141,
                    "duration": 0.14374999999999716
                },
                {
                    "name": "F#2",
                    "midi": 42,
                    "time": 39.30000000000016,
                    "velocity": 0.6535433070866141,
                    "duration": 0.14374999999999716
                },
                {
                    "name": "G#2",
                    "midi": 44,
                    "time": 39.45000000000016,
                    "velocity": 0.6535433070866141,
                    "duration": 0.14374999999999716
                },
                {
                    "name": "A2",
                    "midi": 45,
                    "time": 39.60000000000016,
                    "velocity": 0.6535433070866141,
                    "duration": 0.14374999999999716
                },
                {
                    "name": "E2",
                    "midi": 40,
                    "time": 39.750000000000156,
                    "velocity": 0.6535433070866141,
                    "duration": 0.14374999999999716
                },
                {
                    "name": "A2",
                    "midi": 45,
                    "time": 39.900000000000155,
                    "velocity": 0.6535433070866141,
                    "duration": 0.59375
                },
                {
                    "name": "G#2",
                    "midi": 44,
                    "time": 40.500000000000156,
                    "velocity": 0.6535433070866141,
                    "duration": 0.29375000000000284
                },
                {
                    "name": "A2",
                    "midi": 45,
                    "time": 40.80000000000016,
                    "velocity": 0.6535433070866141,
                    "duration": 0.29375000000000284
                },
                {
                    "name": "B2",
                    "midi": 47,
                    "time": 41.100000000000165,
                    "velocity": 0.6535433070866141,
                    "duration": 0.29375000000000284
                },
                {
                    "name": "C3",
                    "midi": 48,
                    "time": 41.40000000000017,
                    "velocity": 0.6535433070866141,
                    "duration": 0.29375000000000284
                },
                {
                    "name": "B2",
                    "midi": 47,
                    "time": 41.70000000000017,
                    "velocity": 0.6535433070866141,
                    "duration": 0.14374999999999716
                },
                {
                    "name": "A2",
                    "midi": 45,
                    "time": 41.85000000000017,
                    "velocity": 0.6535433070866141,
                    "duration": 0.14374999999999716
                },
                {
                    "name": "B2",
                    "midi": 47,
                    "time": 42.00000000000017,
                    "velocity": 0.6535433070866141,
                    "duration": 0.29375000000000284
                },
                {
                    "name": "C#3",
                    "midi": 49,
                    "time": 42.300000000000175,
                    "velocity": 0.6535433070866141,
                    "duration": 0.29375000000000284
                },
                {
                    "name": "D3",
                    "midi": 50,
                    "time": 42.60000000000018,
                    "velocity": 0.6535433070866141,
                    "duration": 0.8937499999999972
                },
                {
                    "name": "C3",
                    "midi": 48,
                    "time": 43.50000000000018,
                    "velocity": 0.7874015748031497,
                    "duration": 0.14374999999999716
                },
                {
                    "name": "B2",
                    "midi": 47,
                    "time": 43.650000000000176,
                    "velocity": 0.7874015748031497,
                    "duration": 0.14374999999999716
                },
                {
                    "name": "C3",
                    "midi": 48,
                    "time": 43.800000000000175,
                    "velocity": 0.7874015748031497,
                    "duration": 0.14374999999999716
                },
                {
                    "name": "A2",
                    "midi": 45,
                    "time": 44.10000000000017,
                    "velocity": 0.7874015748031497,
                    "duration": 0.59375
                },
                {
                    "name": "G#2",
                    "midi": 44,
                    "time": 44.70000000000017,
                    "velocity": 0.7874015748031497,
                    "duration": 0.14374999999999716
                },
                {
                    "name": "F#2",
                    "midi": 42,
                    "time": 44.85000000000017,
                    "velocity": 0.7874015748031497,
                    "duration": 0.14374999999999716
                },
                {
                    "name": "A2",
                    "midi": 45,
                    "time": 45.00000000000017,
                    "velocity": 0.7874015748031497,
                    "duration": 0.06875000000000142
                },
                {
                    "name": "G#2",
                    "midi": 44,
                    "time": 45.07500000000017,
                    "velocity": 0.7874015748031497,
                    "duration": 0.06875000000000142
                },
                {
                    "name": "A2",
                    "midi": 45,
                    "time": 45.150000000000176,
                    "velocity": 0.7874015748031497,
                    "duration": 0.06875000000000142
                },
                {
                    "name": "G#2",
                    "midi": 44,
                    "time": 45.22500000000018,
                    "velocity": 0.7874015748031497,
                    "duration": 0.06875000000000142
                },
                {
                    "name": "A2",
                    "midi": 45,
                    "time": 45.30000000000018,
                    "velocity": 0.7874015748031497,
                    "duration": 0.06875000000000142
                },
                {
                    "name": "G#2",
                    "midi": 44,
                    "time": 45.375000000000185,
                    "velocity": 0.7874015748031497,
                    "duration": 0.06875000000000142
                },
                {
                    "name": "F#2",
                    "midi": 42,
                    "time": 45.45000000000019,
                    "velocity": 0.7874015748031497,
                    "duration": 0.06875000000000142
                },
                {
                    "name": "G#2",
                    "midi": 44,
                    "time": 45.52500000000019,
                    "velocity": 0.7874015748031497,
                    "duration": 0.06875000000000142
                },
                {
                    "name": "A2",
                    "midi": 45,
                    "time": 45.60000000000019,
                    "velocity": 0.7874015748031497,
                    "duration": 0.14374999999999716
                },
                {
                    "name": "E3",
                    "midi": 52,
                    "time": 45.90000000000019,
                    "velocity": 0.7874015748031497,
                    "duration": 0.29375000000000284
                },
                {
                    "name": "A3",
                    "midi": 57,
                    "time": 46.200000000000195,
                    "velocity": 0.7874015748031497,
                    "duration": 0.8937499999999972
                },
                {
                    "name": "A3",
                    "midi": 57,
                    "time": 47.40000000000019,
                    "velocity": 0.7874015748031497,
                    "duration": 0.06875000000000142
                },
                {
                    "name": "G#3",
                    "midi": 56,
                    "time": 47.47500000000019,
                    "velocity": 0.7874015748031497,
                    "duration": 0.06875000000000142
                },
                {
                    "name": "A3",
                    "midi": 57,
                    "time": 47.550000000000196,
                    "velocity": 0.7874015748031497,
                    "duration": 0.06875000000000142
                },
                {
                    "name": "G#3",
                    "midi": 56,
                    "time": 47.6250000000002,
                    "velocity": 0.7874015748031497,
                    "duration": 0.06875000000000142
                },
                {
                    "name": "A3",
                    "midi": 57,
                    "time": 47.7000000000002,
                    "velocity": 0.7874015748031497,
                    "duration": 0.06875000000000142
                },
                {
                    "name": "G#3",
                    "midi": 56,
                    "time": 47.775000000000205,
                    "velocity": 0.7874015748031497,
                    "duration": 0.06875000000000142
                },
                {
                    "name": "F#3",
                    "midi": 54,
                    "time": 47.85000000000021,
                    "velocity": 0.7874015748031497,
                    "duration": 0.06875000000000142
                },
                {
                    "name": "G#3",
                    "midi": 56,
                    "time": 47.92500000000021,
                    "velocity": 0.7874015748031497,
                    "duration": 0.06875000000000142
                },
                {
                    "name": "A3",
                    "midi": 57,
                    "time": 48.00000000000021,
                    "velocity": 0.7874015748031497,
                    "duration": 0.29375000000000284
                },
                {
                    "name": "E3",
                    "midi": 52,
                    "time": 48.600000000000215,
                    "velocity": 0.7874015748031497,
                    "duration": 0.59375
                },
                {
                    "name": "F3",
                    "midi": 53,
                    "time": 49.200000000000216,
                    "velocity": 0.7874015748031497,
                    "duration": 0.59375
                },
                {
                    "name": "A2",
                    "midi": 45,
                    "time": 49.80000000000022,
                    "velocity": 0.7874015748031497,
                    "duration": 0.59375
                },
                {
                    "name": "C3",
                    "midi": 48,
                    "time": 50.40000000000022,
                    "velocity": 0.7874015748031497,
                    "duration": 0.14374999999999716
                },
                {
                    "name": "B2",
                    "midi": 47,
                    "time": 50.55000000000022,
                    "velocity": 0.7874015748031497,
                    "duration": 0.14374999999999716
                },
                {
                    "name": "A2",
                    "midi": 45,
                    "time": 50.700000000000216,
                    "velocity": 0.7874015748031497,
                    "duration": 0.59375
                },
                {
                    "name": "B2",
                    "midi": 47,
                    "time": 51.30000000000022,
                    "velocity": 0.7874015748031497,
                    "duration": 0.14374999999999716
                },
                {
                    "name": "C3",
                    "midi": 48,
                    "time": 51.450000000000216,
                    "velocity": 0.7874015748031497,
                    "duration": 0.14374999999999716
                },
                {
                    "name": "D3",
                    "midi": 50,
                    "time": 51.600000000000215,
                    "velocity": 0.7874015748031497,
                    "duration": 0.14374999999999716
                },
                {
                    "name": "E3",
                    "midi": 52,
                    "time": 51.75000000000021,
                    "velocity": 0.7874015748031497,
                    "duration": 0.14374999999999716
                },
                {
                    "name": "F3",
                    "midi": 53,
                    "time": 51.90000000000021,
                    "velocity": 0.7874015748031497,
                    "duration": 0.59375
                },
                {
                    "name": "E3",
                    "midi": 52,
                    "time": 52.50000000000021,
                    "velocity": 0.7874015748031497,
                    "duration": 0.14374999999999716
                },
                {
                    "name": "D#3",
                    "midi": 51,
                    "time": 52.65000000000021,
                    "velocity": 0.7874015748031497,
                    "duration": 0.14374999999999716
                },
                {
                    "name": "E3",
                    "midi": 52,
                    "time": 52.80000000000021,
                    "velocity": 0.6692913385826772,
                    "duration": 0.14374999999999716
                },
                {
                    "name": "B2",
                    "midi": 47,
                    "time": 52.95000000000021,
                    "velocity": 0.6692913385826772,
                    "duration": 0.14374999999999716
                },
                {
                    "name": "E3",
                    "midi": 52,
                    "time": 53.10000000000021,
                    "velocity": 0.6771653543307087,
                    "duration": 0.14374999999999716
                },
                {
                    "name": "F#3",
                    "midi": 54,
                    "time": 53.250000000000206,
                    "velocity": 0.6850393700787402,
                    "duration": 0.14374999999999716
                },
                {
                    "name": "E3",
                    "midi": 52,
                    "time": 53.400000000000205,
                    "velocity": 0.6850393700787402,
                    "duration": 0.14374999999999716
                },
                {
                    "name": "B2",
                    "midi": 47,
                    "time": 53.5500000000002,
                    "velocity": 0.6929133858267716,
                    "duration": 0.14374999999999716
                },
                {
                    "name": "E3",
                    "midi": 52,
                    "time": 53.7000000000002,
                    "velocity": 0.7007874015748031,
                    "duration": 0.14374999999999716
                },
                {
                    "name": "G3",
                    "midi": 55,
                    "time": 53.8500000000002,
                    "velocity": 0.7007874015748031,
                    "duration": 0.14374999999999716
                },
                {
                    "name": "F#3",
                    "midi": 54,
                    "time": 54.0000000000002,
                    "velocity": 0.7086614173228346,
                    "duration": 0.14374999999999716
                },
                {
                    "name": "B2",
                    "midi": 47,
                    "time": 54.1500000000002,
                    "velocity": 0.7165354330708661,
                    "duration": 0.14374999999999716
                },
                {
                    "name": "F#3",
                    "midi": 54,
                    "time": 54.300000000000196,
                    "velocity": 0.7165354330708661,
                    "duration": 0.14374999999999716
                },
                {
                    "name": "G3",
                    "midi": 55,
                    "time": 54.450000000000195,
                    "velocity": 0.7244094488188977,
                    "duration": 0.14374999999999716
                },
                {
                    "name": "F#3",
                    "midi": 54,
                    "time": 54.60000000000019,
                    "velocity": 0.7322834645669292,
                    "duration": 0.14374999999999716
                },
                {
                    "name": "B2",
                    "midi": 47,
                    "time": 54.75000000000019,
                    "velocity": 0.7322834645669292,
                    "duration": 0.14374999999999716
                },
                {
                    "name": "F#3",
                    "midi": 54,
                    "time": 54.90000000000019,
                    "velocity": 0.7401574803149606,
                    "duration": 0.14374999999999716
                },
                {
                    "name": "A3",
                    "midi": 57,
                    "time": 55.05000000000019,
                    "velocity": 0.7480314960629921,
                    "duration": 0.14374999999999716
                },
                {
                    "name": "G3",
                    "midi": 55,
                    "time": 55.20000000000019,
                    "velocity": 0.7559055118110236,
                    "duration": 0.14374999999999716
                },
                {
                    "name": "B2",
                    "midi": 47,
                    "time": 55.350000000000186,
                    "velocity": 0.7559055118110236,
                    "duration": 0.14374999999999716
                },
                {
                    "name": "G3",
                    "midi": 55,
                    "time": 55.500000000000185,
                    "velocity": 0.7637795275590551,
                    "duration": 0.14374999999999716
                },
                {
                    "name": "A3",
                    "midi": 57,
                    "time": 55.65000000000018,
                    "velocity": 0.7716535433070866,
                    "duration": 0.14374999999999716
                },
                {
                    "name": "G3",
                    "midi": 55,
                    "time": 55.80000000000018,
                    "velocity": 0.7716535433070866,
                    "duration": 0.14374999999999716
                },
                {
                    "name": "B2",
                    "midi": 47,
                    "time": 55.95000000000018,
                    "velocity": 0.7795275590551181,
                    "duration": 0.14374999999999716
                },
                {
                    "name": "G3",
                    "midi": 55,
                    "time": 56.10000000000018,
                    "velocity": 0.7874015748031497,
                    "duration": 0.14374999999999716
                },
                {
                    "name": "B3",
                    "midi": 59,
                    "time": 56.25000000000018,
                    "velocity": 0.7874015748031497,
                    "duration": 0.14374999999999716
                },
                {
                    "name": "F#3",
                    "midi": 54,
                    "time": 56.400000000000176,
                    "velocity": 0.7952755905511811,
                    "duration": 0.14374999999999716
                },
                {
                    "name": "B2",
                    "midi": 47,
                    "time": 56.550000000000175,
                    "velocity": 0.8031496062992126,
                    "duration": 0.14374999999999716
                },
                {
                    "name": "F#3",
                    "midi": 54,
                    "time": 56.70000000000017,
                    "velocity": 0.8031496062992126,
                    "duration": 0.14374999999999716
                },
                {
                    "name": "G3",
                    "midi": 55,
                    "time": 56.85000000000017,
                    "velocity": 0.8110236220472441,
                    "duration": 0.14374999999999716
                },
                {
                    "name": "F#3",
                    "midi": 54,
                    "time": 57.00000000000017,
                    "velocity": 0.8188976377952756,
                    "duration": 0.14374999999999716
                },
                {
                    "name": "B2",
                    "midi": 47,
                    "time": 57.15000000000017,
                    "velocity": 0.8188976377952756,
                    "duration": 0.14374999999999716
                },
                {
                    "name": "F#3",
                    "midi": 54,
                    "time": 57.30000000000017,
                    "velocity": 0.8267716535433071,
                    "duration": 0.14374999999999716
                },
                {
                    "name": "A3",
                    "midi": 57,
                    "time": 57.450000000000166,
                    "velocity": 0.8346456692913385,
                    "duration": 0.14374999999999716
                },
                {
                    "name": "G3",
                    "midi": 55,
                    "time": 57.600000000000165,
                    "velocity": 0.7874015748031497,
                    "duration": 0.14374999999999716
                },
                {
                    "name": "F#3",
                    "midi": 54,
                    "time": 57.75000000000016,
                    "velocity": 0.7874015748031497,
                    "duration": 0.14374999999999716
                },
                {
                    "name": "E3",
                    "midi": 52,
                    "time": 57.90000000000016,
                    "velocity": 0.7874015748031497,
                    "duration": 0.4437500000000014
                },
                {
                    "name": "F#3",
                    "midi": 54,
                    "time": 58.50000000000016,
                    "velocity": 0.7874015748031497,
                    "duration": 0.14374999999999716
                },
                {
                    "name": "G#3",
                    "midi": 56,
                    "time": 58.80000000000016,
                    "velocity": 0.7874015748031497,
                    "duration": 0.14374999999999716
                },
                {
                    "name": "F4",
                    "midi": 65,
                    "time": 59.10000000000016,
                    "velocity": 0.7874015748031497,
                    "duration": 0.29375000000000284
                },
                {
                    "name": "E4",
                    "midi": 64,
                    "time": 59.40000000000016,
                    "velocity": 0.7874015748031497,
                    "duration": 0.06875000000000142
                },
                {
                    "name": "F4",
                    "midi": 65,
                    "time": 59.475000000000165,
                    "velocity": 0.7874015748031497,
                    "duration": 0.06875000000000142
                },
                {
                    "name": "E4",
                    "midi": 64,
                    "time": 59.55000000000017,
                    "velocity": 0.7874015748031497,
                    "duration": 0.14374999999999716
                },
                {
                    "name": "D4",
                    "midi": 62,
                    "time": 59.700000000000166,
                    "velocity": 0.7874015748031497,
                    "duration": 0.14374999999999716
                },
                {
                    "name": "F3",
                    "midi": 53,
                    "time": 60.00000000000016,
                    "velocity": 0.7874015748031497,
                    "duration": 0.14374999999999716
                },
                {
                    "name": "D4",
                    "midi": 62,
                    "time": 60.30000000000016,
                    "velocity": 0.7874015748031497,
                    "duration": 0.29375000000000284
                },
                {
                    "name": "C4",
                    "midi": 60,
                    "time": 60.600000000000165,
                    "velocity": 0.7874015748031497,
                    "duration": 0.06875000000000142
                },
                {
                    "name": "D4",
                    "midi": 62,
                    "time": 60.67500000000017,
                    "velocity": 0.7874015748031497,
                    "duration": 0.06875000000000142
                },
                {
                    "name": "C4",
                    "midi": 60,
                    "time": 60.75000000000017,
                    "velocity": 0.7874015748031497,
                    "duration": 0.14374999999999716
                },
                {
                    "name": "B3",
                    "midi": 59,
                    "time": 60.90000000000017,
                    "velocity": 0.7874015748031497,
                    "duration": 0.14374999999999716
                },
                {
                    "name": "D3",
                    "midi": 50,
                    "time": 61.200000000000166,
                    "velocity": 0.7874015748031497,
                    "duration": 0.14374999999999716
                },
                {
                    "name": "B3",
                    "midi": 59,
                    "time": 61.50000000000016,
                    "velocity": 0.7874015748031497,
                    "duration": 0.29375000000000284
                },
                {
                    "name": "A3",
                    "midi": 57,
                    "time": 61.80000000000017,
                    "velocity": 0.7874015748031497,
                    "duration": 0.06875000000000142
                },
                {
                    "name": "B3",
                    "midi": 59,
                    "time": 61.87500000000017,
                    "velocity": 0.7874015748031497,
                    "duration": 0.06875000000000142
                },
                {
                    "name": "A3",
                    "midi": 57,
                    "time": 61.95000000000017,
                    "velocity": 0.7874015748031497,
                    "duration": 0.14374999999999716
                },
                {
                    "name": "G#3",
                    "midi": 56,
                    "time": 62.10000000000017,
                    "velocity": 0.7874015748031497,
                    "duration": 0.14374999999999716
                },
                {
                    "name": "A3",
                    "midi": 57,
                    "time": 62.40000000000017,
                    "velocity": 0.7874015748031497,
                    "duration": 0.14374999999999716
                },
                {
                    "name": "D3",
                    "midi": 50,
                    "time": 62.55000000000017,
                    "velocity": 0.7874015748031497,
                    "duration": 0.14374999999999716
                },
                {
                    "name": "C3",
                    "midi": 48,
                    "time": 62.700000000000166,
                    "velocity": 0.7874015748031497,
                    "duration": 0.14374999999999716
                },
                {
                    "name": "B2",
                    "midi": 47,
                    "time": 62.850000000000165,
                    "velocity": 0.7874015748031497,
                    "duration": 0.14374999999999716
                },
                {
                    "name": "A2",
                    "midi": 45,
                    "time": 63.00000000000016,
                    "velocity": 0.7874015748031497,
                    "duration": 0.14374999999999716
                },
                {
                    "name": "G3",
                    "midi": 55,
                    "time": 63.30000000000016,
                    "velocity": 0.7874015748031497,
                    "duration": 0.14374999999999716
                },
                {
                    "name": "F#3",
                    "midi": 54,
                    "time": 63.60000000000016,
                    "velocity": 0.7874015748031497,
                    "duration": 0.14374999999999716
                },
                {
                    "name": "D#4",
                    "midi": 63,
                    "time": 63.900000000000155,
                    "velocity": 0.7874015748031497,
                    "duration": 0.29374999999999574
                },
                {
                    "name": "D4",
                    "midi": 62,
                    "time": 64.20000000000014,
                    "velocity": 0.7874015748031497,
                    "duration": 0.06874999999999432
                },
                {
                    "name": "D#4",
                    "midi": 63,
                    "time": 64.27500000000013,
                    "velocity": 0.7874015748031497,
                    "duration": 0.06874999999999432
                },
                {
                    "name": "D4",
                    "midi": 62,
                    "time": 64.35000000000012,
                    "velocity": 0.7874015748031497,
                    "duration": 0.14374999999999716
                },
                {
                    "name": "C4",
                    "midi": 60,
                    "time": 64.50000000000011,
                    "velocity": 0.7874015748031497,
                    "duration": 0.14374999999999716
                },
                {
                    "name": "D#3",
                    "midi": 51,
                    "time": 64.80000000000011,
                    "velocity": 0.7874015748031497,
                    "duration": 0.14374999999999716
                },
                {
                    "name": "C4",
                    "midi": 60,
                    "time": 65.10000000000011,
                    "velocity": 0.7874015748031497,
                    "duration": 0.29375000000000284
                },
                {
                    "name": "B3",
                    "midi": 59,
                    "time": 65.4000000000001,
                    "velocity": 0.7874015748031497,
                    "duration": 0.06874999999999432
                },
                {
                    "name": "C4",
                    "midi": 60,
                    "time": 65.4750000000001,
                    "velocity": 0.7874015748031497,
                    "duration": 0.06874999999999432
                },
                {
                    "name": "B3",
                    "midi": 59,
                    "time": 65.55000000000008,
                    "velocity": 0.7874015748031497,
                    "duration": 0.14374999999999716
                },
                {
                    "name": "A3",
                    "midi": 57,
                    "time": 65.70000000000007,
                    "velocity": 0.7874015748031497,
                    "duration": 0.14374999999999716
                },
                {
                    "name": "C3",
                    "midi": 48,
                    "time": 66.00000000000007,
                    "velocity": 0.7874015748031497,
                    "duration": 0.14374999999999716
                },
                {
                    "name": "A3",
                    "midi": 57,
                    "time": 66.30000000000007,
                    "velocity": 0.7874015748031497,
                    "duration": 0.29375000000000284
                },
                {
                    "name": "G3",
                    "midi": 55,
                    "time": 66.60000000000007,
                    "velocity": 0.7874015748031497,
                    "duration": 0.06874999999999432
                },
                {
                    "name": "A3",
                    "midi": 57,
                    "time": 66.67500000000005,
                    "velocity": 0.7874015748031497,
                    "duration": 0.06874999999999432
                },
                {
                    "name": "G3",
                    "midi": 55,
                    "time": 66.75000000000004,
                    "velocity": 0.7874015748031497,
                    "duration": 0.14374999999999716
                },
                {
                    "name": "F#3",
                    "midi": 54,
                    "time": 66.90000000000003,
                    "velocity": 0.7874015748031497,
                    "duration": 0.14374999999999716
                },
                {
                    "name": "G3",
                    "midi": 55,
                    "time": 67.20000000000003,
                    "velocity": 0.7874015748031497,
                    "duration": 0.14374999999999716
                },
                {
                    "name": "C3",
                    "midi": 48,
                    "time": 67.35000000000002,
                    "velocity": 0.7874015748031497,
                    "duration": 0.14374999999999716
                },
                {
                    "name": "B2",
                    "midi": 47,
                    "time": 67.50000000000001,
                    "velocity": 0.7874015748031497,
                    "duration": 0.14374999999999716
                },
                {
                    "name": "A2",
                    "midi": 45,
                    "time": 67.65,
                    "velocity": 0.7874015748031497,
                    "duration": 0.14374999999999716
                },
                {
                    "name": "G2",
                    "midi": 43,
                    "time": 67.8,
                    "velocity": 0.7874015748031497,
                    "duration": 0.14374999999999716
                },
                {
                    "name": "F3",
                    "midi": 53,
                    "time": 68.1,
                    "velocity": 0.7874015748031497,
                    "duration": 0.21875
                },
                {
                    "name": "E3",
                    "midi": 52,
                    "time": 68.39999999999999,
                    "velocity": 0.7874015748031497,
                    "duration": 0.14374999999999716
                },
                {
                    "name": "D4",
                    "midi": 62,
                    "time": 68.54999999999998,
                    "velocity": 0.7874015748031497,
                    "duration": 0.14374999999999716
                },
                {
                    "name": "C4",
                    "midi": 60,
                    "time": 68.69999999999997,
                    "velocity": 0.7874015748031497,
                    "duration": 0.14374999999999716
                },
                {
                    "name": "B3",
                    "midi": 59,
                    "time": 68.84999999999997,
                    "velocity": 0.7795275590551181,
                    "duration": 0.14374999999999716
                },
                {
                    "name": "C4",
                    "midi": 60,
                    "time": 68.99999999999996,
                    "velocity": 0.7795275590551181,
                    "duration": 0.14374999999999716
                },
                {
                    "name": "A3",
                    "midi": 57,
                    "time": 69.14999999999995,
                    "velocity": 0.7716535433070866,
                    "duration": 0.14374999999999716
                },
                {
                    "name": "E3",
                    "midi": 52,
                    "time": 69.29999999999994,
                    "velocity": 0.7716535433070866,
                    "duration": 0.4437499999999943
                },
                {
                    "name": "D3",
                    "midi": 50,
                    "time": 69.74999999999993,
                    "velocity": 0.7637795275590551,
                    "duration": 0.14374999999999716
                },
                {
                    "name": "E3",
                    "midi": 52,
                    "time": 69.89999999999992,
                    "velocity": 0.7559055118110236,
                    "duration": 0.14374999999999716
                },
                {
                    "name": "F#3",
                    "midi": 54,
                    "time": 70.04999999999991,
                    "velocity": 0.7559055118110236,
                    "duration": 0.14374999999999716
                },
                {
                    "name": "D3",
                    "midi": 50,
                    "time": 70.1999999999999,
                    "velocity": 0.7480314960629921,
                    "duration": 0.14374999999999716
                },
                {
                    "name": "G3",
                    "midi": 55,
                    "time": 70.3499999999999,
                    "velocity": 0.7480314960629921,
                    "duration": 0.14374999999999716
                },
                {
                    "name": "B3",
                    "midi": 59,
                    "time": 70.49999999999989,
                    "velocity": 0.7480314960629921,
                    "duration": 0.29375000000000284
                },
                {
                    "name": "C3",
                    "midi": 48,
                    "time": 70.79999999999988,
                    "velocity": 0.7401574803149606,
                    "duration": 0.14374999999999716
                },
                {
                    "name": "B3",
                    "midi": 59,
                    "time": 70.94999999999987,
                    "velocity": 0.7322834645669292,
                    "duration": 0.14374999999999716
                },
                {
                    "name": "A3",
                    "midi": 57,
                    "time": 71.09999999999987,
                    "velocity": 0.7322834645669292,
                    "duration": 0.14374999999999716
                },
                {
                    "name": "G3",
                    "midi": 55,
                    "time": 71.24999999999986,
                    "velocity": 0.7322834645669292,
                    "duration": 0.14374999999999716
                },
                {
                    "name": "A3",
                    "midi": 57,
                    "time": 71.39999999999985,
                    "velocity": 0.7244094488188977,
                    "duration": 0.14374999999999716
                },
                {
                    "name": "F#3",
                    "midi": 54,
                    "time": 71.54999999999984,
                    "velocity": 0.7244094488188977,
                    "duration": 0.14374999999999716
                },
                {
                    "name": "C3",
                    "midi": 48,
                    "time": 71.69999999999983,
                    "velocity": 0.7165354330708661,
                    "duration": 0.4437499999999943
                },
                {
                    "name": "B2",
                    "midi": 47,
                    "time": 72.14999999999982,
                    "velocity": 0.7086614173228346,
                    "duration": 0.14374999999999716
                },
                {
                    "name": "C3",
                    "midi": 48,
                    "time": 72.29999999999981,
                    "velocity": 0.7086614173228346,
                    "duration": 0.14374999999999716
                },
                {
                    "name": "D3",
                    "midi": 50,
                    "time": 72.4499999999998,
                    "velocity": 0.7007874015748031,
                    "duration": 0.14374999999999716
                },
                {
                    "name": "B2",
                    "midi": 47,
                    "time": 72.5999999999998,
                    "velocity": 0.7007874015748031,
                    "duration": 0.14374999999999716
                },
                {
                    "name": "D3",
                    "midi": 50,
                    "time": 72.74999999999979,
                    "velocity": 0.6929133858267716,
                    "duration": 0.14374999999999716
                },
                {
                    "name": "G3",
                    "midi": 55,
                    "time": 72.89999999999978,
                    "velocity": 0.6929133858267716,
                    "duration": 0.29375000000000284
                },
                {
                    "name": "A2",
                    "midi": 45,
                    "time": 73.19999999999978,
                    "velocity": 0.6850393700787402,
                    "duration": 0.14374999999999716
                },
                {
                    "name": "G3",
                    "midi": 55,
                    "time": 73.34999999999977,
                    "velocity": 0.6850393700787402,
                    "duration": 0.14374999999999716
                },
                {
                    "name": "F#3",
                    "midi": 54,
                    "time": 73.49999999999976,
                    "velocity": 0.6771653543307087,
                    "duration": 0.14374999999999716
                },
                {
                    "name": "E3",
                    "midi": 52,
                    "time": 73.64999999999975,
                    "velocity": 0.6771653543307087,
                    "duration": 0.14374999999999716
                },
                {
                    "name": "F#3",
                    "midi": 54,
                    "time": 73.79999999999974,
                    "velocity": 0.6692913385826772,
                    "duration": 0.14374999999999716
                },
                {
                    "name": "D#3",
                    "midi": 51,
                    "time": 73.94999999999973,
                    "velocity": 0.6692913385826772,
                    "duration": 0.14374999999999716
                },
                {
                    "name": "A2",
                    "midi": 45,
                    "time": 74.09999999999972,
                    "velocity": 0.6692913385826772,
                    "duration": 0.4437499999999943
                },
                {
                    "name": "G2",
                    "midi": 43,
                    "time": 74.54999999999971,
                    "velocity": 0.6535433070866141,
                    "duration": 0.14374999999999716
                },
                {
                    "name": "A2",
                    "midi": 45,
                    "time": 74.6999999999997,
                    "velocity": 0.6535433070866141,
                    "duration": 0.14374999999999716
                },
                {
                    "name": "B2",
                    "midi": 47,
                    "time": 74.8499999999997,
                    "velocity": 0.6535433070866141,
                    "duration": 0.14374999999999716
                },
                {
                    "name": "G2",
                    "midi": 43,
                    "time": 74.99999999999969,
                    "velocity": 0.6456692913385826,
                    "duration": 0.14374999999999716
                },
                {
                    "name": "B2",
                    "midi": 47,
                    "time": 75.14999999999968,
                    "velocity": 0.6456692913385826,
                    "duration": 0.14374999999999716
                },
                {
                    "name": "E3",
                    "midi": 52,
                    "time": 75.29999999999967,
                    "velocity": 0.6377952755905512,
                    "duration": 0.14374999999999716
                },
                {
                    "name": "G3",
                    "midi": 55,
                    "time": 75.44999999999966,
                    "velocity": 0.6377952755905512,
                    "duration": 0.14374999999999716
                },
                {
                    "name": "F#3",
                    "midi": 54,
                    "time": 75.59999999999965,
                    "velocity": 0.5905511811023622,
                    "duration": 0.14374999999999716
                },
                {
                    "name": "A#2",
                    "midi": 46,
                    "time": 75.74999999999964,
                    "velocity": 0.5905511811023622,
                    "duration": 0.14374999999999716
                },
                {
                    "name": "F#3",
                    "midi": 54,
                    "time": 75.89999999999964,
                    "velocity": 0.5984251968503937,
                    "duration": 0.14374999999999716
                },
                {
                    "name": "G3",
                    "midi": 55,
                    "time": 76.04999999999963,
                    "velocity": 0.5984251968503937,
                    "duration": 0.14374999999999716
                },
                {
                    "name": "F#3",
                    "midi": 54,
                    "time": 76.19999999999962,
                    "velocity": 0.6062992125984252,
                    "duration": 0.14374999999999716
                },
                {
                    "name": "B2",
                    "midi": 47,
                    "time": 76.34999999999961,
                    "velocity": 0.6062992125984252,
                    "duration": 0.14374999999999716
                },
                {
                    "name": "F#3",
                    "midi": 54,
                    "time": 76.4999999999996,
                    "velocity": 0.6141732283464567,
                    "duration": 0.14374999999999716
                },
                {
                    "name": "A3",
                    "midi": 57,
                    "time": 76.6499999999996,
                    "velocity": 0.6141732283464567,
                    "duration": 0.14374999999999716
                },
                {
                    "name": "G#3",
                    "midi": 56,
                    "time": 76.79999999999959,
                    "velocity": 0.6220472440944882,
                    "duration": 0.14374999999999716
                },
                {
                    "name": "E3",
                    "midi": 52,
                    "time": 76.94999999999958,
                    "velocity": 0.6220472440944882,
                    "duration": 0.14374999999999716
                },
                {
                    "name": "G#3",
                    "midi": 56,
                    "time": 77.09999999999957,
                    "velocity": 0.6299212598425197,
                    "duration": 0.14374999999999716
                },
                {
                    "name": "A#3",
                    "midi": 58,
                    "time": 77.24999999999956,
                    "velocity": 0.6299212598425197,
                    "duration": 0.14374999999999716
                },
                {
                    "name": "B3",
                    "midi": 59,
                    "time": 77.39999999999955,
                    "velocity": 0.6377952755905512,
                    "duration": 0.14374999999999716
                },
                {
                    "name": "D3",
                    "midi": 50,
                    "time": 77.54999999999954,
                    "velocity": 0.6377952755905512,
                    "duration": 0.14374999999999716
                },
                {
                    "name": "G3",
                    "midi": 55,
                    "time": 77.69999999999953,
                    "velocity": 0.6456692913385826,
                    "duration": 0.14374999999999716
                },
                {
                    "name": "B3",
                    "midi": 59,
                    "time": 77.84999999999953,
                    "velocity": 0.6456692913385826,
                    "duration": 0.14374999999999716
                },
                {
                    "name": "A3",
                    "midi": 57,
                    "time": 77.99999999999952,
                    "velocity": 0.6535433070866141,
                    "duration": 0.14374999999999716
                },
                {
                    "name": "C#3",
                    "midi": 49,
                    "time": 78.14999999999951,
                    "velocity": 0.6535433070866141,
                    "duration": 0.14374999999999716
                },
                {
                    "name": "A3",
                    "midi": 57,
                    "time": 78.2999999999995,
                    "velocity": 0.6614173228346457,
                    "duration": 0.14374999999999716
                },
                {
                    "name": "A#3",
                    "midi": 58,
                    "time": 78.44999999999949,
                    "velocity": 0.6614173228346457,
                    "duration": 0.14374999999999716
                },
                {
                    "name": "A3",
                    "midi": 57,
                    "time": 78.59999999999948,
                    "velocity": 0.6692913385826772,
                    "duration": 0.14374999999999716
                },
                {
                    "name": "D3",
                    "midi": 50,
                    "time": 78.74999999999947,
                    "velocity": 0.6692913385826772,
                    "duration": 0.14374999999999716
                },
                {
                    "name": "A3",
                    "midi": 57,
                    "time": 78.89999999999947,
                    "velocity": 0.6771653543307087,
                    "duration": 0.14374999999999716
                },
                {
                    "name": "C4",
                    "midi": 60,
                    "time": 79.04999999999946,
                    "velocity": 0.6771653543307087,
                    "duration": 0.14374999999999716
                },
                {
                    "name": "B3",
                    "midi": 59,
                    "time": 79.19999999999945,
                    "velocity": 0.6850393700787402,
                    "duration": 0.14374999999999716
                },
                {
                    "name": "G3",
                    "midi": 55,
                    "time": 79.34999999999944,
                    "velocity": 0.6929133858267716,
                    "duration": 0.14374999999999716
                },
                {
                    "name": "B3",
                    "midi": 59,
                    "time": 79.49999999999943,
                    "velocity": 0.6929133858267716,
                    "duration": 0.14374999999999716
                },
                {
                    "name": "C#4",
                    "midi": 61,
                    "time": 79.64999999999942,
                    "velocity": 0.7007874015748031,
                    "duration": 0.14374999999999716
                },
                {
                    "name": "D4",
                    "midi": 62,
                    "time": 79.79999999999941,
                    "velocity": 0.7007874015748031,
                    "duration": 0.14374999999999716
                },
                {
                    "name": "F3",
                    "midi": 53,
                    "time": 79.9499999999994,
                    "velocity": 0.7086614173228346,
                    "duration": 0.14374999999999716
                },
                {
                    "name": "A#3",
                    "midi": 58,
                    "time": 80.0999999999994,
                    "velocity": 0.7086614173228346,
                    "duration": 0.14374999999999716
                },
                {
                    "name": "D4",
                    "midi": 62,
                    "time": 80.24999999999939,
                    "velocity": 0.7165354330708661,
                    "duration": 0.14374999999999716
                },
                {
                    "name": "C4",
                    "midi": 60,
                    "time": 80.39999999999938,
                    "velocity": 0.7165354330708661,
                    "duration": 0.14374999999999716
                },
                {
                    "name": "E3",
                    "midi": 52,
                    "time": 80.54999999999937,
                    "velocity": 0.7244094488188977,
                    "duration": 0.14374999999999716
                },
                {
                    "name": "C4",
                    "midi": 60,
                    "time": 80.69999999999936,
                    "velocity": 0.7244094488188977,
                    "duration": 0.14374999999999716
                },
                {
                    "name": "D4",
                    "midi": 62,
                    "time": 80.84999999999935,
                    "velocity": 0.7322834645669292,
                    "duration": 0.14374999999999716
                },
                {
                    "name": "C4",
                    "midi": 60,
                    "time": 80.99999999999935,
                    "velocity": 0.7322834645669292,
                    "duration": 0.14374999999999716
                },
                {
                    "name": "F3",
                    "midi": 53,
                    "time": 81.14999999999934,
                    "velocity": 0.7401574803149606,
                    "duration": 0.14374999999999716
                },
                {
                    "name": "A3",
                    "midi": 57,
                    "time": 81.29999999999933,
                    "velocity": 0.7401574803149606,
                    "duration": 0.14374999999999716
                },
                {
                    "name": "C4",
                    "midi": 60,
                    "time": 81.44999999999932,
                    "velocity": 0.7480314960629921,
                    "duration": 0.14374999999999716
                },
                {
                    "name": "B3",
                    "midi": 59,
                    "time": 81.59999999999931,
                    "velocity": 0.7480314960629921,
                    "duration": 0.14374999999999716
                },
                {
                    "name": "D3",
                    "midi": 50,
                    "time": 81.7499999999993,
                    "velocity": 0.7559055118110236,
                    "duration": 0.14374999999999716
                },
                {
                    "name": "B3",
                    "midi": 59,
                    "time": 81.8999999999993,
                    "velocity": 0.7559055118110236,
                    "duration": 0.14374999999999716
                },
                {
                    "name": "C4",
                    "midi": 60,
                    "time": 82.04999999999929,
                    "velocity": 0.7637795275590551,
                    "duration": 0.14374999999999716
                },
                {
                    "name": "B3",
                    "midi": 59,
                    "time": 82.19999999999928,
                    "velocity": 0.7637795275590551,
                    "duration": 0.14374999999999716
                },
                {
                    "name": "E3",
                    "midi": 52,
                    "time": 82.34999999999927,
                    "velocity": 0.7716535433070866,
                    "duration": 0.14374999999999716
                },
                {
                    "name": "B3",
                    "midi": 59,
                    "time": 82.49999999999926,
                    "velocity": 0.7716535433070866,
                    "duration": 0.14374999999999716
                },
                {
                    "name": "D4",
                    "midi": 62,
                    "time": 82.64999999999925,
                    "velocity": 0.7795275590551181,
                    "duration": 0.14374999999999716
                },
                {
                    "name": "C4",
                    "midi": 60,
                    "time": 82.79999999999924,
                    "velocity": 0.7874015748031497,
                    "duration": 0.14374999999999716
                },
                {
                    "name": "A3",
                    "midi": 57,
                    "time": 82.94999999999924,
                    "velocity": 0.7874015748031497,
                    "duration": 0.14374999999999716
                },
                {
                    "name": "C4",
                    "midi": 60,
                    "time": 83.09999999999923,
                    "velocity": 0.7874015748031497,
                    "duration": 0.14374999999999716
                },
                {
                    "name": "E4",
                    "midi": 64,
                    "time": 83.24999999999922,
                    "velocity": 0.7874015748031497,
                    "duration": 0.14374999999999716
                },
                {
                    "name": "C4",
                    "midi": 60,
                    "time": 83.39999999999921,
                    "velocity": 0.7874015748031497,
                    "duration": 0.14374999999999716
                },
                {
                    "name": "A3",
                    "midi": 57,
                    "time": 83.5499999999992,
                    "velocity": 0.7874015748031497,
                    "duration": 0.14374999999999716
                },
                {
                    "name": "B3",
                    "midi": 59,
                    "time": 83.69999999999919,
                    "velocity": 0.7874015748031497,
                    "duration": 0.14374999999999716
                },
                {
                    "name": "G#3",
                    "midi": 56,
                    "time": 83.84999999999918,
                    "velocity": 0.7874015748031497,
                    "duration": 0.14374999999999716
                },
                {
                    "name": "A3",
                    "midi": 57,
                    "time": 83.99999999999918,
                    "velocity": 0.7874015748031497,
                    "duration": 0.14374999999999716
                },
                {
                    "name": "C4",
                    "midi": 60,
                    "time": 84.14999999999917,
                    "velocity": 0.7874015748031497,
                    "duration": 0.14374999999999716
                },
                {
                    "name": "B3",
                    "midi": 59,
                    "time": 84.29999999999916,
                    "velocity": 0.7874015748031497,
                    "duration": 0.14374999999999716
                },
                {
                    "name": "D4",
                    "midi": 62,
                    "time": 84.44999999999915,
                    "velocity": 0.7874015748031497,
                    "duration": 0.14374999999999716
                },
                {
                    "name": "C4",
                    "midi": 60,
                    "time": 84.59999999999914,
                    "velocity": 0.7874015748031497,
                    "duration": 0.14374999999999716
                },
                {
                    "name": "B3",
                    "midi": 59,
                    "time": 84.74999999999913,
                    "velocity": 0.7874015748031497,
                    "duration": 0.14374999999999716
                },
                {
                    "name": "C4",
                    "midi": 60,
                    "time": 84.89999999999912,
                    "velocity": 0.7874015748031497,
                    "duration": 0.14374999999999716
                },
                {
                    "name": "A3",
                    "midi": 57,
                    "time": 85.04999999999912,
                    "velocity": 0.7874015748031497,
                    "duration": 0.14374999999999716
                },
                {
                    "name": "E3",
                    "midi": 52,
                    "time": 85.19999999999911,
                    "velocity": 0.7874015748031497,
                    "duration": 0.29375000000000284
                },
                {
                    "name": "F#3",
                    "midi": 54,
                    "time": 85.4999999999991,
                    "velocity": 0.7874015748031497,
                    "duration": 0.29375000000000284
                },
                {
                    "name": "G3",
                    "midi": 55,
                    "time": 85.7999999999991,
                    "velocity": 0.7874015748031497,
                    "duration": 0.29375000000000284
                },
                {
                    "name": "F#3",
                    "midi": 54,
                    "time": 86.0999999999991,
                    "velocity": 0.7874015748031497,
                    "duration": 0.14374999999999716
                },
                {
                    "name": "E3",
                    "midi": 52,
                    "time": 86.24999999999909,
                    "velocity": 0.7874015748031497,
                    "duration": 0.14374999999999716
                },
                {
                    "name": "F#3",
                    "midi": 54,
                    "time": 86.39999999999908,
                    "velocity": 0.7874015748031497,
                    "duration": 0.29375000000000284
                },
                {
                    "name": "G#3",
                    "midi": 56,
                    "time": 86.69999999999908,
                    "velocity": 0.7874015748031497,
                    "duration": 0.29375000000000284
                },
                {
                    "name": "A3",
                    "midi": 57,
                    "time": 86.99999999999908,
                    "velocity": 0.7874015748031497,
                    "duration": 0.8937499999999972
                },
                {
                    "name": "G3",
                    "midi": 55,
                    "time": 87.89999999999907,
                    "velocity": 0.7874015748031497,
                    "duration": 0.14374999999999716
                },
                {
                    "name": "F#3",
                    "midi": 54,
                    "time": 88.04999999999906,
                    "velocity": 0.7874015748031497,
                    "duration": 0.14374999999999716
                },
                {
                    "name": "G3",
                    "midi": 55,
                    "time": 88.19999999999905,
                    "velocity": 0.7874015748031497,
                    "duration": 0.29375000000000284
                },
                {
                    "name": "E3",
                    "midi": 52,
                    "time": 88.49999999999905,
                    "velocity": 0.7874015748031497,
                    "duration": 0.59375
                },
                {
                    "name": "D#3",
                    "midi": 51,
                    "time": 89.09999999999904,
                    "velocity": 0.7874015748031497,
                    "duration": 0.14374999999999716
                },
                {
                    "name": "C#3",
                    "midi": 49,
                    "time": 89.24999999999903,
                    "velocity": 0.7874015748031497,
                    "duration": 0.14374999999999716
                },
                {
                    "name": "E3",
                    "midi": 52,
                    "time": 89.39999999999903,
                    "velocity": 0.7874015748031497,
                    "duration": 0.06874999999999432
                },
                {
                    "name": "D#3",
                    "midi": 51,
                    "time": 89.47499999999901,
                    "velocity": 0.7874015748031497,
                    "duration": 0.06874999999999432
                },
                {
                    "name": "E3",
                    "midi": 52,
                    "time": 89.549999999999,
                    "velocity": 0.7874015748031497,
                    "duration": 0.06874999999999432
                },
                {
                    "name": "D#3",
                    "midi": 51,
                    "time": 89.62499999999899,
                    "velocity": 0.7874015748031497,
                    "duration": 0.06874999999999432
                },
                {
                    "name": "E3",
                    "midi": 52,
                    "time": 89.69999999999898,
                    "velocity": 0.7874015748031497,
                    "duration": 0.06874999999999432
                },
                {
                    "name": "D#3",
                    "midi": 51,
                    "time": 89.77499999999897,
                    "velocity": 0.7874015748031497,
                    "duration": 0.06874999999999432
                },
                {
                    "name": "C#3",
                    "midi": 49,
                    "time": 89.84999999999896,
                    "velocity": 0.7874015748031497,
                    "duration": 0.06874999999999432
                },
                {
                    "name": "D#3",
                    "midi": 51,
                    "time": 89.92499999999895,
                    "velocity": 0.7874015748031497,
                    "duration": 0.06874999999999432
                },
                {
                    "name": "E3",
                    "midi": 52,
                    "time": 89.99999999999893,
                    "velocity": 0.7874015748031497,
                    "duration": 0.14374999999999716
                },
                {
                    "name": "B3",
                    "midi": 59,
                    "time": 90.29999999999893,
                    "velocity": 0.7874015748031497,
                    "duration": 0.29375000000000284
                },
                {
                    "name": "E4",
                    "midi": 64,
                    "time": 90.59999999999893,
                    "velocity": 0.7874015748031497,
                    "duration": 1.1687500000000028
                },
                {
                    "name": "E4",
                    "midi": 64,
                    "time": 91.79999999999893,
                    "velocity": 0.7874015748031497,
                    "duration": 0.06874999999999432
                },
                {
                    "name": "D#4",
                    "midi": 63,
                    "time": 91.87499999999892,
                    "velocity": 0.7874015748031497,
                    "duration": 0.06874999999999432
                },
                {
                    "name": "E4",
                    "midi": 64,
                    "time": 91.94999999999891,
                    "velocity": 0.7874015748031497,
                    "duration": 0.06874999999999432
                },
                {
                    "name": "D#4",
                    "midi": 63,
                    "time": 92.0249999999989,
                    "velocity": 0.7874015748031497,
                    "duration": 0.06874999999999432
                },
                {
                    "name": "E4",
                    "midi": 64,
                    "time": 92.09999999999889,
                    "velocity": 0.7874015748031497,
                    "duration": 0.06874999999999432
                },
                {
                    "name": "D#4",
                    "midi": 63,
                    "time": 92.17499999999887,
                    "velocity": 0.7874015748031497,
                    "duration": 0.06874999999999432
                },
                {
                    "name": "C#4",
                    "midi": 61,
                    "time": 92.24999999999886,
                    "velocity": 0.7874015748031497,
                    "duration": 0.06874999999999432
                },
                {
                    "name": "D#4",
                    "midi": 63,
                    "time": 92.32499999999885,
                    "velocity": 0.7874015748031497,
                    "duration": 0.06874999999999432
                },
                {
                    "name": "E4",
                    "midi": 64,
                    "time": 92.39999999999884,
                    "velocity": 0.7874015748031497,
                    "duration": 0.59375
                },
                {
                    "name": "D4",
                    "midi": 62,
                    "time": 93.29999999999885,
                    "velocity": 0.6535433070866141,
                    "duration": 0.14374999999999716
                },
                {
                    "name": "C#4",
                    "midi": 61,
                    "time": 93.59999999999884,
                    "velocity": 0.6535433070866141,
                    "duration": 0.14374999999999716
                },
                {
                    "name": "A#4",
                    "midi": 70,
                    "time": 93.89999999999884,
                    "velocity": 0.6535433070866141,
                    "duration": 0.29375000000000284
                },
                {
                    "name": "A4",
                    "midi": 69,
                    "time": 94.19999999999884,
                    "velocity": 0.6535433070866141,
                    "duration": 0.06874999999999432
                },
                {
                    "name": "A#4",
                    "midi": 70,
                    "time": 94.27499999999883,
                    "velocity": 0.6535433070866141,
                    "duration": 0.06874999999999432
                },
                {
                    "name": "A4",
                    "midi": 69,
                    "time": 94.34999999999881,
                    "velocity": 0.6535433070866141,
                    "duration": 0.14374999999999716
                },
                {
                    "name": "G4",
                    "midi": 67,
                    "time": 94.4999999999988,
                    "velocity": 0.6535433070866141,
                    "duration": 0.14374999999999716
                },
                {
                    "name": "A#3",
                    "midi": 58,
                    "time": 94.7999999999988,
                    "velocity": 0.6535433070866141,
                    "duration": 0.14374999999999716
                },
                {
                    "name": "G4",
                    "midi": 67,
                    "time": 95.0999999999988,
                    "velocity": 0.6535433070866141,
                    "duration": 0.29375000000000284
                },
                {
                    "name": "F4",
                    "midi": 65,
                    "time": 95.3999999999988,
                    "velocity": 0.6535433070866141,
                    "duration": 0.06874999999999432
                },
                {
                    "name": "G4",
                    "midi": 67,
                    "time": 95.47499999999879,
                    "velocity": 0.6535433070866141,
                    "duration": 0.06874999999999432
                },
                {
                    "name": "F4",
                    "midi": 65,
                    "time": 95.54999999999878,
                    "velocity": 0.6535433070866141,
                    "duration": 0.14374999999999716
                },
                {
                    "name": "E4",
                    "midi": 64,
                    "time": 95.69999999999877,
                    "velocity": 0.6535433070866141,
                    "duration": 0.14374999999999716
                },
                {
                    "name": "G3",
                    "midi": 55,
                    "time": 95.99999999999876,
                    "velocity": 0.6535433070866141,
                    "duration": 0.14374999999999716
                },
                {
                    "name": "E4",
                    "midi": 64,
                    "time": 96.29999999999876,
                    "velocity": 0.6535433070866141,
                    "duration": 0.29375000000000284
                },
                {
                    "name": "D4",
                    "midi": 62,
                    "time": 96.59999999999876,
                    "velocity": 0.6535433070866141,
                    "duration": 0.06874999999999432
                },
                {
                    "name": "E4",
                    "midi": 64,
                    "time": 96.67499999999875,
                    "velocity": 0.6535433070866141,
                    "duration": 0.06874999999999432
                },
                {
                    "name": "D4",
                    "midi": 62,
                    "time": 96.74999999999874,
                    "velocity": 0.6535433070866141,
                    "duration": 0.14374999999999716
                },
                {
                    "name": "C#4",
                    "midi": 61,
                    "time": 96.89999999999873,
                    "velocity": 0.6535433070866141,
                    "duration": 0.14374999999999716
                },
                {
                    "name": "D4",
                    "midi": 62,
                    "time": 97.19999999999872,
                    "velocity": 0.6535433070866141,
                    "duration": 0.14374999999999716
                },
                {
                    "name": "A3",
                    "midi": 57,
                    "time": 97.34999999999872,
                    "velocity": 0.6535433070866141,
                    "duration": 0.14374999999999716
                },
                {
                    "name": "D4",
                    "midi": 62,
                    "time": 97.4999999999987,
                    "velocity": 0.6535433070866141,
                    "duration": 0.14374999999999716
                },
                {
                    "name": "E4",
                    "midi": 64,
                    "time": 97.6499999999987,
                    "velocity": 0.6535433070866141,
                    "duration": 0.14374999999999716
                },
                {
                    "name": "F4",
                    "midi": 65,
                    "time": 97.79999999999869,
                    "velocity": 0.6535433070866141,
                    "duration": 0.14374999999999716
                },
                {
                    "name": "G4",
                    "midi": 67,
                    "time": 97.94999999999868,
                    "velocity": 0.6535433070866141,
                    "duration": 0.14374999999999716
                },
                {
                    "name": "G#4",
                    "midi": 68,
                    "time": 98.09999999999867,
                    "velocity": 0.6535433070866141,
                    "duration": 0.14374999999999716
                },
                {
                    "name": "F4",
                    "midi": 65,
                    "time": 98.24999999999866,
                    "velocity": 0.6535433070866141,
                    "duration": 0.14374999999999716
                },
                {
                    "name": "D4",
                    "midi": 62,
                    "time": 98.39999999999866,
                    "velocity": 0.6535433070866141,
                    "duration": 0.14374999999999716
                },
                {
                    "name": "E4",
                    "midi": 64,
                    "time": 98.54999999999865,
                    "velocity": 0.6535433070866141,
                    "duration": 0.14374999999999716
                },
                {
                    "name": "F4",
                    "midi": 65,
                    "time": 98.69999999999864,
                    "velocity": 0.6535433070866141,
                    "duration": 0.4437499999999943
                },
                {
                    "name": "E4",
                    "midi": 64,
                    "time": 99.14999999999863,
                    "velocity": 0.6535433070866141,
                    "duration": 0.14374999999999716
                },
                {
                    "name": "D4",
                    "midi": 62,
                    "time": 99.29999999999862,
                    "velocity": 0.6535433070866141,
                    "duration": 0.14374999999999716
                },
                {
                    "name": "C4",
                    "midi": 60,
                    "time": 99.44999999999861,
                    "velocity": 0.6535433070866141,
                    "duration": 0.14374999999999716
                },
                {
                    "name": "B3",
                    "midi": 59,
                    "time": 99.5999999999986,
                    "velocity": 0.6535433070866141,
                    "duration": 0.14374999999999716
                },
                {
                    "name": "C4",
                    "midi": 60,
                    "time": 99.7499999999986,
                    "velocity": 0.6535433070866141,
                    "duration": 0.14374999999999716
                },
                {
                    "name": "D4",
                    "midi": 62,
                    "time": 99.89999999999858,
                    "velocity": 0.6535433070866141,
                    "duration": 0.4437499999999943
                },
                {
                    "name": "C4",
                    "midi": 60,
                    "time": 100.34999999999857,
                    "velocity": 0.6535433070866141,
                    "duration": 0.14374999999999716
                },
                {
                    "name": "B3",
                    "midi": 59,
                    "time": 100.49999999999856,
                    "velocity": 0.6535433070866141,
                    "duration": 0.14374999999999716
                },
                {
                    "name": "A3",
                    "midi": 57,
                    "time": 100.64999999999856,
                    "velocity": 0.6535433070866141,
                    "duration": 0.14374999999999716
                },
                {
                    "name": "B3",
                    "midi": 59,
                    "time": 100.79999999999855,
                    "velocity": 0.6535433070866141,
                    "duration": 0.14374999999999716
                },
                {
                    "name": "G3",
                    "midi": 55,
                    "time": 100.94999999999854,
                    "velocity": 0.6535433070866141,
                    "duration": 0.14374999999999716
                },
                {
                    "name": "B3",
                    "midi": 59,
                    "time": 101.09999999999853,
                    "velocity": 0.6535433070866141,
                    "duration": 0.14374999999999716
                },
                {
                    "name": "C4",
                    "midi": 60,
                    "time": 101.24999999999852,
                    "velocity": 0.6535433070866141,
                    "duration": 0.14374999999999716
                },
                {
                    "name": "D4",
                    "midi": 62,
                    "time": 101.39999999999851,
                    "velocity": 0.6535433070866141,
                    "duration": 0.14374999999999716
                },
                {
                    "name": "E4",
                    "midi": 64,
                    "time": 101.5499999999985,
                    "velocity": 0.6535433070866141,
                    "duration": 0.14374999999999716
                },
                {
                    "name": "F4",
                    "midi": 65,
                    "time": 101.6999999999985,
                    "velocity": 0.6535433070866141,
                    "duration": 0.14374999999999716
                },
                {
                    "name": "D4",
                    "midi": 62,
                    "time": 101.84999999999849,
                    "velocity": 0.6535433070866141,
                    "duration": 0.14374999999999716
                },
                {
                    "name": "E4",
                    "midi": 64,
                    "time": 101.99999999999848,
                    "velocity": 0.7874015748031497,
                    "duration": 0.14374999999999716
                },
                {
                    "name": "E3",
                    "midi": 52,
                    "time": 102.29999999999848,
                    "velocity": 0.7874015748031497,
                    "duration": 0.29375000000000284
                },
                {
                    "name": "A3",
                    "midi": 57,
                    "time": 102.59999999999847,
                    "velocity": 0.7874015748031497,
                    "duration": 0.8937499999999972
                },
                {
                    "name": "G3",
                    "midi": 55,
                    "time": 103.49999999999847,
                    "velocity": 0.7874015748031497,
                    "duration": 0.14374999999999716
                },
                {
                    "name": "F#3",
                    "midi": 54,
                    "time": 103.64999999999846,
                    "velocity": 0.7874015748031497,
                    "duration": 0.14374999999999716
                },
                {
                    "name": "G3",
                    "midi": 55,
                    "time": 103.79999999999845,
                    "velocity": 0.7874015748031497,
                    "duration": 0.8937499999999972
                },
                {
                    "name": "A3",
                    "midi": 57,
                    "time": 104.69999999999844,
                    "velocity": 0.7874015748031497,
                    "duration": 0.14374999999999716
                },
                {
                    "name": "B3",
                    "midi": 59,
                    "time": 104.84999999999843,
                    "velocity": 0.7874015748031497,
                    "duration": 0.14374999999999716
                },
                {
                    "name": "C4",
                    "midi": 60,
                    "time": 104.99999999999842,
                    "velocity": 0.7874015748031497,
                    "duration": 0.8937499999999972
                },
                {
                    "name": "A#3",
                    "midi": 58,
                    "time": 105.89999999999841,
                    "velocity": 0.7874015748031497,
                    "duration": 0.14374999999999716
                },
                {
                    "name": "A3",
                    "midi": 57,
                    "time": 106.0499999999984,
                    "velocity": 0.7874015748031497,
                    "duration": 0.14374999999999716
                },
                {
                    "name": "A#3",
                    "midi": 58,
                    "time": 106.1999999999984,
                    "velocity": 0.7874015748031497,
                    "duration": 0.8937499999999972
                },
                {
                    "name": "C4",
                    "midi": 60,
                    "time": 107.09999999999839,
                    "velocity": 0.7874015748031497,
                    "duration": 0.14374999999999716
                },
                {
                    "name": "D4",
                    "midi": 62,
                    "time": 107.24999999999838,
                    "velocity": 0.7874015748031497,
                    "duration": 0.14374999999999716
                },
                {
                    "name": "D#4",
                    "midi": 63,
                    "time": 107.39999999999837,
                    "velocity": 0.7874015748031497,
                    "duration": 0.8937499999999972
                },
                {
                    "name": "D4",
                    "midi": 62,
                    "time": 108.29999999999836,
                    "velocity": 0.7874015748031497,
                    "duration": 0.14374999999999716
                },
                {
                    "name": "C#4",
                    "midi": 61,
                    "time": 108.44999999999835,
                    "velocity": 0.7874015748031497,
                    "duration": 0.14374999999999716
                },
                {
                    "name": "D4",
                    "midi": 62,
                    "time": 108.59999999999835,
                    "velocity": 0.7874015748031497,
                    "duration": 1
                },
                {
                    "name": "D4",
                    "midi": 62,
                    "time": 109.79999999999835,
                    "velocity": 0.7874015748031497,
                    "duration": 0.06874999999999432
                },
                {
                    "name": "C#4",
                    "midi": 61,
                    "time": 109.87499999999834,
                    "velocity": 0.7874015748031497,
                    "duration": 0.06874999999999432
                },
                {
                    "name": "D4",
                    "midi": 62,
                    "time": 109.94999999999833,
                    "velocity": 0.7874015748031497,
                    "duration": 0.06874999999999432
                },
                {
                    "name": "C#4",
                    "midi": 61,
                    "time": 110.02499999999831,
                    "velocity": 0.7874015748031497,
                    "duration": 0.06874999999999432
                },
                {
                    "name": "D4",
                    "midi": 62,
                    "time": 110.0999999999983,
                    "velocity": 0.7874015748031497,
                    "duration": 0.06874999999999432
                },
                {
                    "name": "C#4",
                    "midi": 61,
                    "time": 110.17499999999829,
                    "velocity": 0.7874015748031497,
                    "duration": 0.06874999999999432
                },
                {
                    "name": "B3",
                    "midi": 59,
                    "time": 110.24999999999828,
                    "velocity": 0.7874015748031497,
                    "duration": 0.06874999999999432
                },
                {
                    "name": "C#4",
                    "midi": 61,
                    "time": 110.32499999999827,
                    "velocity": 0.7874015748031497,
                    "duration": 0.06874999999999432
                },
                {
                    "name": "D4",
                    "midi": 62,
                    "time": 110.39999999999826,
                    "velocity": 0.7480314960629921,
                    "duration": 0.14374999999999716
                },
                {
                    "name": "E4",
                    "midi": 64,
                    "time": 110.69999999999825,
                    "velocity": 0.7637795275590551,
                    "duration": 0.29375000000000284
                },
                {
                    "name": "F4",
                    "midi": 65,
                    "time": 110.99999999999825,
                    "velocity": 0.7795275590551181,
                    "duration": 0.29375000000000284
                },
                {
                    "name": "D4",
                    "midi": 62,
                    "time": 111.29999999999825,
                    "velocity": 0.7952755905511811,
                    "duration": 0.29375000000000284
                },
                {
                    "name": "E4",
                    "midi": 64,
                    "time": 111.59999999999825,
                    "velocity": 0.8110236220472441,
                    "duration": 0.29375000000000284
                },
                {
                    "name": "D4",
                    "midi": 62,
                    "time": 111.89999999999824,
                    "velocity": 0.8267716535433071,
                    "duration": 0.29375000000000284
                },
                {
                    "name": "C4",
                    "midi": 60,
                    "time": 112.19999999999824,
                    "velocity": 0.84251968503937,
                    "duration": 0.29375000000000284
                },
                {
                    "name": "B3",
                    "midi": 59,
                    "time": 112.49999999999824,
                    "velocity": 0.8582677165354331,
                    "duration": 0.29375000000000284
                },
                {
                    "name": "A3",
                    "midi": 57,
                    "time": 112.79999999999824,
                    "velocity": 0.7874015748031497,
                    "duration": 0.14374999999999716
                },
                {
                    "name": "E3",
                    "midi": 52,
                    "time": 112.94999999999823,
                    "velocity": 0.7874015748031497,
                    "duration": 0.14374999999999716
                },
                {
                    "name": "A3",
                    "midi": 57,
                    "time": 113.09999999999822,
                    "velocity": 0.7874015748031497,
                    "duration": 0.59375
                },
                {
                    "name": "G#3",
                    "midi": 56,
                    "time": 113.69999999999821,
                    "velocity": 0.7874015748031497,
                    "duration": 0.06874999999999432
                },
                {
                    "name": "A3",
                    "midi": 57,
                    "time": 113.7749999999982,
                    "velocity": 0.7874015748031497,
                    "duration": 0.06874999999999432
                },
                {
                    "name": "G#3",
                    "midi": 56,
                    "time": 113.84999999999819,
                    "velocity": 0.7874015748031497,
                    "duration": 0.14374999999999716
                },
                {
                    "name": "A3",
                    "midi": 57,
                    "time": 113.99999999999818,
                    "velocity": 0.7874015748031497,
                    "duration": 0.59375
                },
                {
                    "name": "B3",
                    "midi": 59,
                    "time": 114.59999999999818,
                    "velocity": 0.7874015748031497,
                    "duration": 0.59375
                },
                {
                    "name": "C4",
                    "midi": 60,
                    "time": 115.19999999999817,
                    "velocity": 0.7874015748031497,
                    "duration": 0.59375
                },
                {
                    "name": "E3",
                    "midi": 52,
                    "time": 115.79999999999816,
                    "velocity": 0.7874015748031497,
                    "duration": 0.59375
                },
                {
                    "name": "F3",
                    "midi": 53,
                    "time": 116.39999999999816,
                    "velocity": 0.7874015748031497,
                    "duration": 0.14374999999999716
                },
                {
                    "name": "E3",
                    "midi": 52,
                    "time": 116.54999999999815,
                    "velocity": 0.7874015748031497,
                    "duration": 0.14374999999999716
                },
                {
                    "name": "D3",
                    "midi": 50,
                    "time": 116.69999999999814,
                    "velocity": 0.7874015748031497,
                    "duration": 0.59375
                },
                {
                    "name": "E3",
                    "midi": 52,
                    "time": 117.29999999999814,
                    "velocity": 0.7874015748031497,
                    "duration": 0.14374999999999716
                },
                {
                    "name": "F#3",
                    "midi": 54,
                    "time": 117.44999999999813,
                    "velocity": 0.7874015748031497,
                    "duration": 0.14374999999999716
                },
                {
                    "name": "G3",
                    "midi": 55,
                    "time": 117.59999999999812,
                    "velocity": 0.7874015748031497,
                    "duration": 0.14374999999999716
                },
                {
                    "name": "A3",
                    "midi": 57,
                    "time": 117.74999999999811,
                    "velocity": 0.7874015748031497,
                    "duration": 0.14374999999999716
                },
                {
                    "name": "A#3",
                    "midi": 58,
                    "time": 117.8999999999981,
                    "velocity": 0.7874015748031497,
                    "duration": 0.59375
                },
                {
                    "name": "A3",
                    "midi": 57,
                    "time": 118.4999999999981,
                    "velocity": 0.7874015748031497,
                    "duration": 0.14374999999999716
                },
                {
                    "name": "G#3",
                    "midi": 56,
                    "time": 118.64999999999809,
                    "velocity": 0.7874015748031497,
                    "duration": 0.14374999999999716
                },
                {
                    "name": "A3",
                    "midi": 57,
                    "time": 118.79999999999808,
                    "velocity": 0.7480314960629921,
                    "duration": 0.14374999999999716
                },
                {
                    "name": "E3",
                    "midi": 52,
                    "time": 118.94999999999807,
                    "velocity": 0.7480314960629921,
                    "duration": 0.14374999999999716
                },
                {
                    "name": "A3",
                    "midi": 57,
                    "time": 119.09999999999806,
                    "velocity": 0.7559055118110236,
                    "duration": 0.14374999999999716
                },
                {
                    "name": "B3",
                    "midi": 59,
                    "time": 119.24999999999805,
                    "velocity": 0.7559055118110236,
                    "duration": 0.14374999999999716
                },
                {
                    "name": "A3",
                    "midi": 57,
                    "time": 119.39999999999804,
                    "velocity": 0.7637795275590551,
                    "duration": 0.14374999999999716
                },
                {
                    "name": "E3",
                    "midi": 52,
                    "time": 119.54999999999804,
                    "velocity": 0.7637795275590551,
                    "duration": 0.14374999999999716
                },
                {
                    "name": "A3",
                    "midi": 57,
                    "time": 119.69999999999803,
                    "velocity": 0.7716535433070866,
                    "duration": 0.14374999999999716
                },
                {
                    "name": "C4",
                    "midi": 60,
                    "time": 119.84999999999802,
                    "velocity": 0.7716535433070866,
                    "duration": 0.14374999999999716
                },
                {
                    "name": "B3",
                    "midi": 59,
                    "time": 119.99999999999801,
                    "velocity": 0.7795275590551181,
                    "duration": 0.14374999999999716
                },
                {
                    "name": "E3",
                    "midi": 52,
                    "time": 120.149999999998,
                    "velocity": 0.7795275590551181,
                    "duration": 0.14374999999999716
                },
                {
                    "name": "B3",
                    "midi": 59,
                    "time": 120.299999999998,
                    "velocity": 0.7874015748031497,
                    "duration": 0.14374999999999716
                },
                {
                    "name": "C4",
                    "midi": 60,
                    "time": 120.44999999999798,
                    "velocity": 0.7874015748031497,
                    "duration": 0.14374999999999716
                },
                {
                    "name": "B3",
                    "midi": 59,
                    "time": 120.59999999999798,
                    "velocity": 0.7952755905511811,
                    "duration": 0.14374999999999716
                },
                {
                    "name": "E3",
                    "midi": 52,
                    "time": 120.74999999999797,
                    "velocity": 0.7952755905511811,
                    "duration": 0.14374999999999716
                },
                {
                    "name": "B3",
                    "midi": 59,
                    "time": 120.89999999999796,
                    "velocity": 0.8031496062992126,
                    "duration": 0.14374999999999716
                },
                {
                    "name": "D4",
                    "midi": 62,
                    "time": 121.04999999999795,
                    "velocity": 0.8031496062992126,
                    "duration": 0.14374999999999716
                },
                {
                    "name": "C4",
                    "midi": 60,
                    "time": 121.19999999999794,
                    "velocity": 0.8110236220472441,
                    "duration": 0.14374999999999716
                },
                {
                    "name": "E3",
                    "midi": 52,
                    "time": 121.34999999999793,
                    "velocity": 0.8110236220472441,
                    "duration": 0.14374999999999716
                },
                {
                    "name": "C4",
                    "midi": 60,
                    "time": 121.49999999999793,
                    "velocity": 0.8188976377952756,
                    "duration": 0.14374999999999716
                },
                {
                    "name": "D4",
                    "midi": 62,
                    "time": 121.64999999999792,
                    "velocity": 0.8188976377952756,
                    "duration": 0.14374999999999716
                },
                {
                    "name": "C4",
                    "midi": 60,
                    "time": 121.79999999999791,
                    "velocity": 0.8267716535433071,
                    "duration": 0.14374999999999716
                },
                {
                    "name": "E3",
                    "midi": 52,
                    "time": 121.9499999999979,
                    "velocity": 0.8267716535433071,
                    "duration": 0.14374999999999716
                },
                {
                    "name": "C4",
                    "midi": 60,
                    "time": 122.09999999999789,
                    "velocity": 0.8346456692913385,
                    "duration": 0.14374999999999716
                },
                {
                    "name": "E4",
                    "midi": 64,
                    "time": 122.24999999999788,
                    "velocity": 0.8346456692913385,
                    "duration": 0.14374999999999716
                },
                {
                    "name": "B3",
                    "midi": 59,
                    "time": 122.39999999999787,
                    "velocity": 0.84251968503937,
                    "duration": 0.14374999999999716
                },
                {
                    "name": "E3",
                    "midi": 52,
                    "time": 122.54999999999787,
                    "velocity": 0.84251968503937,
                    "duration": 0.14374999999999716
                },
                {
                    "name": "B3",
                    "midi": 59,
                    "time": 122.69999999999786,
                    "velocity": 0.8503937007874016,
                    "duration": 0.14374999999999716
                },
                {
                    "name": "C4",
                    "midi": 60,
                    "time": 122.84999999999785,
                    "velocity": 0.8503937007874016,
                    "duration": 0.14374999999999716
                },
                {
                    "name": "B3",
                    "midi": 59,
                    "time": 122.99999999999784,
                    "velocity": 0.8582677165354331,
                    "duration": 0.14374999999999716
                },
                {
                    "name": "E3",
                    "midi": 52,
                    "time": 123.14999999999783,
                    "velocity": 0.8582677165354331,
                    "duration": 0.14374999999999716
                },
                {
                    "name": "B3",
                    "midi": 59,
                    "time": 123.29999999999782,
                    "velocity": 0.8661417322834646,
                    "duration": 0.14374999999999716
                },
                {
                    "name": "D4",
                    "midi": 62,
                    "time": 123.44999999999781,
                    "velocity": 0.8661417322834646,
                    "duration": 0.14374999999999716
                },
                {
                    "name": "C4",
                    "midi": 60,
                    "time": 123.5999999999978,
                    "velocity": 0.7874015748031497,
                    "duration": 0.14374999999999716
                },
                {
                    "name": "A3",
                    "midi": 57,
                    "time": 123.7499999999978,
                    "velocity": 0.7874015748031497,
                    "duration": 0.14374999999999716
                },
                {
                    "name": "B3",
                    "midi": 59,
                    "time": 123.89999999999779,
                    "velocity": 0.7874015748031497,
                    "duration": 0.14374999999999716
                },
                {
                    "name": "C#4",
                    "midi": 61,
                    "time": 124.04999999999778,
                    "velocity": 0.7874015748031497,
                    "duration": 0.14374999999999716
                },
                {
                    "name": "D4",
                    "midi": 62,
                    "time": 124.19999999999777,
                    "velocity": 0.7874015748031497,
                    "duration": 0.14374999999999716
                },
                {
                    "name": "E4",
                    "midi": 64,
                    "time": 124.34999999999776,
                    "velocity": 0.7874015748031497,
                    "duration": 0.14374999999999716
                },
                {
                    "name": "F4",
                    "midi": 65,
                    "time": 124.49999999999775,
                    "velocity": 0.7874015748031497,
                    "duration": 0.14374999999999716
                },
                {
                    "name": "G4",
                    "midi": 67,
                    "time": 124.64999999999775,
                    "velocity": 0.7874015748031497,
                    "duration": 0.14374999999999716
                },
                {
                    "name": "F4",
                    "midi": 65,
                    "time": 124.79999999999774,
                    "velocity": 0.7874015748031497,
                    "duration": 0.14374999999999716
                },
                {
                    "name": "E4",
                    "midi": 64,
                    "time": 124.94999999999773,
                    "velocity": 0.7874015748031497,
                    "duration": 0.14374999999999716
                },
                {
                    "name": "D4",
                    "midi": 62,
                    "time": 125.09999999999772,
                    "velocity": 0.7874015748031497,
                    "duration": 0.14374999999999716
                },
                {
                    "name": "C#4",
                    "midi": 61,
                    "time": 125.24999999999771,
                    "velocity": 0.7874015748031497,
                    "duration": 0.14374999999999716
                },
                {
                    "name": "D4",
                    "midi": 62,
                    "time": 125.3999999999977,
                    "velocity": 0.7874015748031497,
                    "duration": 0.14374999999999716
                },
                {
                    "name": "D3",
                    "midi": 50,
                    "time": 125.6999999999977,
                    "velocity": 0.7874015748031497,
                    "duration": 0.59375
                },
                {
                    "name": "C3",
                    "midi": 48,
                    "time": 126.2999999999977,
                    "velocity": 0.7874015748031497,
                    "duration": 0.14374999999999716
                },
                {
                    "name": "B2",
                    "midi": 47,
                    "time": 126.44999999999769,
                    "velocity": 0.7874015748031497,
                    "duration": 0.14374999999999716
                },
                {
                    "name": "C3",
                    "midi": 48,
                    "time": 126.59999999999768,
                    "velocity": 0.7874015748031497,
                    "duration": 0.29375000000000284
                },
                {
                    "name": "D3",
                    "midi": 50,
                    "time": 126.89999999999768,
                    "velocity": 0.7874015748031497,
                    "duration": 0.29375000000000284
                },
                {
                    "name": "E3",
                    "midi": 52,
                    "time": 127.19999999999767,
                    "velocity": 0.7874015748031497,
                    "duration": 0.29375000000000284
                },
                {
                    "name": "D3",
                    "midi": 50,
                    "time": 127.49999999999767,
                    "velocity": 0.7874015748031497,
                    "duration": 0.29375000000000284
                },
                {
                    "name": "E3",
                    "midi": 52,
                    "time": 127.79999999999767,
                    "velocity": 0.7874015748031497,
                    "duration": 0.29375000000000284
                },
                {
                    "name": "E2",
                    "midi": 40,
                    "time": 128.09999999999766,
                    "velocity": 0.7874015748031497,
                    "duration": 0.29374999999998863
                },
                {
                    "name": "A2",
                    "midi": 45,
                    "time": 128.39999999999765,
                    "velocity": 0.7874015748031497,
                    "duration": 1.1937499999999943
                }
            ],
            "controlChanges": {
                "7": [
                    {
                        "number": 7,
                        "time": 0,
                        "value": 0.7874015748031497
                    }
                ],
                "10": [
                    {
                        "number": 10,
                        "time": 0,
                        "value": 0.6614173228346457
                    }
                ]
            },
            "id": 2,
            "name": "LH",
            "instrumentNumber": 0,
            "instrument": "acoustic grand piano",
            "instrumentFamily": "piano",
            "channelNumber": 1,
            "isPercussion": false
        },
        {
            "startTime": 0,
            "duration": 0,
            "length": 0,
            "notes": [],
            "controlChanges": {
                "7": [
                    {
                        "number": 7,
                        "time": 0,
                        "value": 0.7874015748031497
                    }
                ]
            },
            "id": 3,
            "name": "\"Duetto IV,\" BWV 805, by J.S. Bach"
        },
        {
            "startTime": 0,
            "duration": 0,
            "length": 0,
            "notes": [],
            "controlChanges": {
                "7": [
                    {
                        "number": 7,
                        "time": 0,
                        "value": 0.7874015748031497
                    }
                ]
            },
            "id": 4,
            "name": "Sequenced by T.L. Hubeart Jr."
        },
        {
            "startTime": 0,
            "duration": 0,
            "length": 0,
            "notes": [],
            "controlChanges": {
                "7": [
                    {
                        "number": 7,
                        "time": 0,
                        "value": 0.7874015748031497
                    }
                ]
            },
            "id": 5,
            "name": "(C) 1996 by T.L. Hubeart Jr."
        },
        {
            "startTime": 0,
            "duration": 0,
            "length": 0,
            "notes": [],
            "controlChanges": {
                "7": [
                    {
                        "number": 7,
                        "time": 0,
                        "value": 0.7874015748031497
                    }
                ]
            },
            "id": 6,
            "name": "http://members.aol.com/basfawlty"
        }
    ]
}