{
    "header": {
        "PPQ": 384,
        "timeSignature": [
            2,
            4
        ],
        "bpm": 110.00011000011,
        "name": "J.S. Bach: Italian Concerto, BWV 971 (first mvmt.)"
    },
    "startTime": 0,
    "duration": 210.26683518749996,
    "tracks": [
        {
            "startTime": 0,
            "duration": 0,
            "length": 0,
            "notes": [],
            "controlChanges": {},
            "id": 0
        },
        {
            "startTime": 0,
            "duration": 0,
            "length": 0,
            "notes": [],
            "controlChanges": {},
            "id": 1,
            "name": "J.S. Bach: Italian Concerto, BWV 971 (first mvmt.)"
        },
        {
            "startTime": 0,
            "duration": 0,
            "length": 0,
            "notes": [],
            "controlChanges": {},
            "id": 2,
            "name": "Sequence copyright 1996 by T. L. Hubeart Jr."
        },
        {
            "startTime": 0.272727,
            "duration": 210.26683518749996,
            "length": 1268,
            "notes": [
                {
                    "name": "F5",
                    "midi": 77,
                    "time": 0.272727,
                    "velocity": 1,
                    "duration": 0.18181799999999998
                },
                {
                    "name": "A4",
                    "midi": 69,
                    "time": 0.545454,
                    "velocity": 1,
                    "duration": 0.18181799999999992
                },
                {
                    "name": "F4",
                    "midi": 65,
                    "time": 0.545454,
                    "velocity": 1,
                    "duration": 0.18181799999999992
                },
                {
                    "name": "A#4",
                    "midi": 70,
                    "time": 0.8181809999999999,
                    "velocity": 1,
                    "duration": 0.18181799999999992
                },
                {
                    "name": "G4",
                    "midi": 67,
                    "time": 0.8181809999999999,
                    "velocity": 1,
                    "duration": 0.18181799999999992
                },
                {
                    "name": "C5",
                    "midi": 72,
                    "time": 1.0909079999999998,
                    "velocity": 1,
                    "duration": 0.5397721875000001
                },
                {
                    "name": "A4",
                    "midi": 69,
                    "time": 1.0909079999999998,
                    "velocity": 1,
                    "duration": 0.5397721875000001
                },
                {
                    "name": "D5",
                    "midi": 74,
                    "time": 1.6363619999999999,
                    "velocity": 1,
                    "duration": 0.36363599999999985
                },
                {
                    "name": "A#4",
                    "midi": 70,
                    "time": 1.6363619999999999,
                    "velocity": 1,
                    "duration": 0.36363599999999985
                },
                {
                    "name": "A4",
                    "midi": 69,
                    "time": 2.1818159999999995,
                    "velocity": 1,
                    "duration": 0.3636359999999996
                },
                {
                    "name": "F4",
                    "midi": 65,
                    "time": 2.1818159999999995,
                    "velocity": 1,
                    "duration": 0.7272719999999993
                },
                {
                    "name": "C5",
                    "midi": 72,
                    "time": 2.1818159999999995,
                    "velocity": 1,
                    "duration": 0.1818179999999998
                },
                {
                    "name": "F5",
                    "midi": 77,
                    "time": 2.4545429999999993,
                    "velocity": 1,
                    "duration": 0.3636359999999996
                },
                {
                    "name": "A#4",
                    "midi": 70,
                    "time": 2.727269999999999,
                    "velocity": 1,
                    "duration": 0.3636359999999996
                },
                {
                    "name": "D#5",
                    "midi": 75,
                    "time": 2.9999969999999987,
                    "velocity": 1,
                    "duration": 0.0909089999999999
                },
                {
                    "name": "D5",
                    "midi": 74,
                    "time": 3.1363604999999986,
                    "velocity": 1,
                    "duration": 0.0909089999999999
                },
                {
                    "name": "D5",
                    "midi": 74,
                    "time": 3.2727239999999984,
                    "velocity": 1,
                    "duration": 0.26704518749999995
                },
                {
                    "name": "A#4",
                    "midi": 70,
                    "time": 3.2727239999999984,
                    "velocity": 1,
                    "duration": 0.26704518749999995
                },
                {
                    "name": "F4",
                    "midi": 65,
                    "time": 3.2727239999999984,
                    "velocity": 1,
                    "duration": 0.5397721875000001
                },
                {
                    "name": "C5",
                    "midi": 72,
                    "time": 3.5454509999999986,
                    "velocity": 1,
                    "duration": 0.1818179999999998
                },
                {
                    "name": "A4",
                    "midi": 69,
                    "time": 3.5454509999999986,
                    "velocity": 1,
                    "duration": 0.1818179999999998
                },
                {
                    "name": "C6",
                    "midi": 84,
                    "time": 4.636358999999999,
                    "velocity": 1,
                    "duration": 0.1818179999999998
                },
                {
                    "name": "E5",
                    "midi": 76,
                    "time": 4.9090859999999985,
                    "velocity": 1,
                    "duration": 0.1818179999999998
                },
                {
                    "name": "C5",
                    "midi": 72,
                    "time": 4.9090859999999985,
                    "velocity": 1,
                    "duration": 0.1818179999999998
                },
                {
                    "name": "F5",
                    "midi": 77,
                    "time": 5.181812999999998,
                    "velocity": 1,
                    "duration": 0.1818179999999998
                },
                {
                    "name": "D5",
                    "midi": 74,
                    "time": 5.181812999999998,
                    "velocity": 1,
                    "duration": 0.1818179999999998
                },
                {
                    "name": "G5",
                    "midi": 79,
                    "time": 5.454539999999998,
                    "velocity": 1,
                    "duration": 0.3636359999999996
                },
                {
                    "name": "E5",
                    "midi": 76,
                    "time": 5.454539999999998,
                    "velocity": 1,
                    "duration": 0.3636359999999996
                },
                {
                    "name": "C5",
                    "midi": 72,
                    "time": 5.727266999999998,
                    "velocity": 1,
                    "duration": 0.1818179999999998
                },
                {
                    "name": "A5",
                    "midi": 81,
                    "time": 5.999993999999997,
                    "velocity": 1,
                    "duration": 0.3636359999999996
                },
                {
                    "name": "F5",
                    "midi": 77,
                    "time": 5.999993999999997,
                    "velocity": 1,
                    "duration": 0.3636359999999996
                },
                {
                    "name": "A4",
                    "midi": 69,
                    "time": 5.999993999999997,
                    "velocity": 1,
                    "duration": 0.1818179999999998
                },
                {
                    "name": "F4",
                    "midi": 65,
                    "time": 6.272720999999997,
                    "velocity": 1,
                    "duration": 0.1818179999999998
                },
                {
                    "name": "C5",
                    "midi": 72,
                    "time": 6.545447999999997,
                    "velocity": 1,
                    "duration": 1.085226187499999
                },
                {
                    "name": "E5",
                    "midi": 76,
                    "time": 6.545447999999997,
                    "velocity": 1,
                    "duration": 0.5397721874999997
                },
                {
                    "name": "G5",
                    "midi": 79,
                    "time": 6.545447999999997,
                    "velocity": 1,
                    "duration": 0.26704518749999995
                },
                {
                    "name": "C6",
                    "midi": 84,
                    "time": 6.8181749999999965,
                    "velocity": 1,
                    "duration": 0.5397721874999997
                },
                {
                    "name": "F5",
                    "midi": 77,
                    "time": 7.090901999999996,
                    "velocity": 1,
                    "duration": 0.5397721874999997
                },
                {
                    "name": "A#5",
                    "midi": 82,
                    "time": 7.363628999999996,
                    "velocity": 1,
                    "duration": 0.1306816875000001
                },
                {
                    "name": "A5",
                    "midi": 81,
                    "time": 7.499992499999996,
                    "velocity": 1,
                    "duration": 0.1306816875000001
                },
                {
                    "name": "C5",
                    "midi": 72,
                    "time": 7.636355999999996,
                    "velocity": 1,
                    "duration": 0.5397721874999988
                },
                {
                    "name": "A5",
                    "midi": 81,
                    "time": 7.636355999999996,
                    "velocity": 1,
                    "duration": 0.26704518749999995
                },
                {
                    "name": "F5",
                    "midi": 77,
                    "time": 7.636355999999996,
                    "velocity": 1,
                    "duration": 0.26704518749999995
                },
                {
                    "name": "G5",
                    "midi": 79,
                    "time": 7.909082999999995,
                    "velocity": 1,
                    "duration": 0.1818179999999998
                },
                {
                    "name": "E5",
                    "midi": 76,
                    "time": 7.909082999999995,
                    "velocity": 1,
                    "duration": 0.1818179999999998
                },
                {
                    "name": "C5",
                    "midi": 72,
                    "time": 8.318173499999995,
                    "velocity": 1,
                    "duration": 0.0909089999999999
                },
                {
                    "name": "A#4",
                    "midi": 70,
                    "time": 8.454536999999995,
                    "velocity": 1,
                    "duration": 0.0909089999999999
                },
                {
                    "name": "A4",
                    "midi": 69,
                    "time": 8.590900499999995,
                    "velocity": 1,
                    "duration": 0.0909089999999999
                },
                {
                    "name": "A#4",
                    "midi": 70,
                    "time": 8.727263999999995,
                    "velocity": 1,
                    "duration": 0.1818179999999998
                },
                {
                    "name": "G5",
                    "midi": 79,
                    "time": 8.999990999999994,
                    "velocity": 1,
                    "duration": 0.3636359999999996
                },
                {
                    "name": "A#4",
                    "midi": 70,
                    "time": 9.409081499999994,
                    "velocity": 1,
                    "duration": 0.0909089999999999
                },
                {
                    "name": "A4",
                    "midi": 69,
                    "time": 9.545444999999994,
                    "velocity": 1,
                    "duration": 0.0909089999999999
                },
                {
                    "name": "G4",
                    "midi": 67,
                    "time": 9.681808499999994,
                    "velocity": 1,
                    "duration": 0.0909089999999999
                },
                {
                    "name": "A4",
                    "midi": 69,
                    "time": 9.818171999999993,
                    "velocity": 1,
                    "duration": 0.1306816874999992
                },
                {
                    "name": "G4",
                    "midi": 67,
                    "time": 9.954535499999993,
                    "velocity": 1,
                    "duration": 0.1306816874999992
                },
                {
                    "name": "F4",
                    "midi": 65,
                    "time": 10.090898999999993,
                    "velocity": 1,
                    "duration": 0.0909089999999999
                },
                {
                    "name": "G4",
                    "midi": 67,
                    "time": 10.227262499999993,
                    "velocity": 1,
                    "duration": 0.0909089999999999
                },
                {
                    "name": "A4",
                    "midi": 69,
                    "time": 10.363625999999993,
                    "velocity": 1,
                    "duration": 0.0909089999999999
                },
                {
                    "name": "A#4",
                    "midi": 70,
                    "time": 10.499989499999993,
                    "velocity": 1,
                    "duration": 0.0909089999999999
                },
                {
                    "name": "C5",
                    "midi": 72,
                    "time": 10.636352999999993,
                    "velocity": 1,
                    "duration": 0.0909089999999999
                },
                {
                    "name": "D5",
                    "midi": 74,
                    "time": 10.772716499999992,
                    "velocity": 1,
                    "duration": 0.0909089999999999
                },
                {
                    "name": "D#5",
                    "midi": 75,
                    "time": 10.909079999999992,
                    "velocity": 1,
                    "duration": 0.1818179999999998
                },
                {
                    "name": "C6",
                    "midi": 84,
                    "time": 11.181806999999992,
                    "velocity": 1,
                    "duration": 0.3636359999999996
                },
                {
                    "name": "D#5",
                    "midi": 75,
                    "time": 11.590897499999992,
                    "velocity": 1,
                    "duration": 0.0909089999999999
                },
                {
                    "name": "D5",
                    "midi": 74,
                    "time": 11.727260999999991,
                    "velocity": 1,
                    "duration": 0.0909089999999999
                },
                {
                    "name": "C5",
                    "midi": 72,
                    "time": 11.863624499999991,
                    "velocity": 1,
                    "duration": 0.0909089999999999
                },
                {
                    "name": "D5",
                    "midi": 74,
                    "time": 11.999987999999991,
                    "velocity": 1,
                    "duration": 0.1306816874999992
                },
                {
                    "name": "C5",
                    "midi": 72,
                    "time": 12.136351499999991,
                    "velocity": 1,
                    "duration": 0.1306816874999992
                },
                {
                    "name": "A#4",
                    "midi": 70,
                    "time": 12.272714999999991,
                    "velocity": 1,
                    "duration": 0.0909089999999999
                },
                {
                    "name": "C5",
                    "midi": 72,
                    "time": 12.40907849999999,
                    "velocity": 1,
                    "duration": 0.0909089999999999
                },
                {
                    "name": "D5",
                    "midi": 74,
                    "time": 12.54544199999999,
                    "velocity": 1,
                    "duration": 0.0909089999999999
                },
                {
                    "name": "E5",
                    "midi": 76,
                    "time": 12.68180549999999,
                    "velocity": 1,
                    "duration": 0.0909089999999999
                },
                {
                    "name": "F5",
                    "midi": 77,
                    "time": 12.81816899999999,
                    "velocity": 1,
                    "duration": 0.0909089999999999
                },
                {
                    "name": "A#4",
                    "midi": 70,
                    "time": 12.81816899999999,
                    "velocity": 1,
                    "duration": 0.1818179999999998
                },
                {
                    "name": "G5",
                    "midi": 79,
                    "time": 12.95453249999999,
                    "velocity": 1,
                    "duration": 0.0909089999999999
                },
                {
                    "name": "G#5",
                    "midi": 80,
                    "time": 13.09089599999999,
                    "velocity": 1,
                    "duration": 0.0909089999999999
                },
                {
                    "name": "B4",
                    "midi": 71,
                    "time": 13.09089599999999,
                    "velocity": 1,
                    "duration": 0.5397721875000023
                },
                {
                    "name": "F4",
                    "midi": 65,
                    "time": 13.09089599999999,
                    "velocity": 1,
                    "duration": 0.5397721875000023
                },
                {
                    "name": "D4",
                    "midi": 62,
                    "time": 13.09089599999999,
                    "velocity": 1,
                    "duration": 0.5397721875000023
                },
                {
                    "name": "G5",
                    "midi": 79,
                    "time": 13.22725949999999,
                    "velocity": 1,
                    "duration": 0.06249993750000016
                },
                {
                    "name": "F5",
                    "midi": 77,
                    "time": 13.29544124999999,
                    "velocity": 1,
                    "duration": 0.06249993750000016
                },
                {
                    "name": "G5",
                    "midi": 79,
                    "time": 13.363622999999992,
                    "velocity": 1,
                    "duration": 0.3636360000000014
                },
                {
                    "name": "G4",
                    "midi": 67,
                    "time": 13.636349999999993,
                    "velocity": 1,
                    "duration": 0.5397721875000023
                },
                {
                    "name": "D4",
                    "midi": 62,
                    "time": 13.636349999999993,
                    "velocity": 1,
                    "duration": 0.5397721875000023
                },
                {
                    "name": "B3",
                    "midi": 59,
                    "time": 13.636349999999993,
                    "velocity": 1,
                    "duration": 0.5397721875000023
                },
                {
                    "name": "F5",
                    "midi": 77,
                    "time": 13.772713499999993,
                    "velocity": 1,
                    "duration": 0.06249993750000016
                },
                {
                    "name": "E5",
                    "midi": 76,
                    "time": 13.840895249999994,
                    "velocity": 1,
                    "duration": 0.06249993750000016
                },
                {
                    "name": "F5",
                    "midi": 77,
                    "time": 13.909076999999995,
                    "velocity": 1,
                    "duration": 0.3636360000000014
                },
                {
                    "name": "E5",
                    "midi": 76,
                    "time": 14.318167499999996,
                    "velocity": 1,
                    "duration": 0.06818175000000082
                },
                {
                    "name": "D5",
                    "midi": 74,
                    "time": 14.386349249999997,
                    "velocity": 1,
                    "duration": 0.06818175000000082
                },
                {
                    "name": "E5",
                    "midi": 76,
                    "time": 14.454530999999998,
                    "velocity": 1,
                    "duration": 0.4034086875000007
                },
                {
                    "name": "G5",
                    "midi": 79,
                    "time": 14.863621499999999,
                    "velocity": 1,
                    "duration": 0.1306816874999992
                },
                {
                    "name": "E5",
                    "midi": 76,
                    "time": 14.999984999999999,
                    "velocity": 1,
                    "duration": 0.1306816874999992
                },
                {
                    "name": "C5",
                    "midi": 72,
                    "time": 15.136348499999999,
                    "velocity": 1,
                    "duration": 0.1306816874999992
                },
                {
                    "name": "A#4",
                    "midi": 70,
                    "time": 15.272711999999999,
                    "velocity": 1,
                    "duration": 0.0909089999999999
                },
                {
                    "name": "G5",
                    "midi": 79,
                    "time": 15.409075499999998,
                    "velocity": 1,
                    "duration": 0.1306816874999992
                },
                {
                    "name": "E5",
                    "midi": 76,
                    "time": 15.545438999999998,
                    "velocity": 1,
                    "duration": 0.1306816874999992
                },
                {
                    "name": "C5",
                    "midi": 72,
                    "time": 15.681802499999998,
                    "velocity": 1,
                    "duration": 0.1306816874999992
                },
                {
                    "name": "A#4",
                    "midi": 70,
                    "time": 15.818165999999998,
                    "velocity": 1,
                    "duration": 0.0909089999999999
                },
                {
                    "name": "G5",
                    "midi": 79,
                    "time": 15.954529499999998,
                    "velocity": 1,
                    "duration": 0.1306816874999992
                },
                {
                    "name": "E5",
                    "midi": 76,
                    "time": 16.090892999999998,
                    "velocity": 1,
                    "duration": 0.13068168750000098
                },
                {
                    "name": "G4",
                    "midi": 67,
                    "time": 16.090892999999998,
                    "velocity": 1,
                    "duration": 0.18181800000000337
                },
                {
                    "name": "C5",
                    "midi": 72,
                    "time": 16.2272565,
                    "velocity": 1,
                    "duration": 0.13068168750000098
                },
                {
                    "name": "A#4",
                    "midi": 70,
                    "time": 16.36362,
                    "velocity": 1,
                    "duration": 0.0909089999999999
                },
                {
                    "name": "E4",
                    "midi": 64,
                    "time": 16.36362,
                    "velocity": 1,
                    "duration": 0.18181800000000337
                },
                {
                    "name": "G5",
                    "midi": 79,
                    "time": 16.499983500000003,
                    "velocity": 1,
                    "duration": 0.13068168750000098
                },
                {
                    "name": "E5",
                    "midi": 76,
                    "time": 16.636347000000004,
                    "velocity": 1,
                    "duration": 0.13068168750000098
                },
                {
                    "name": "C4",
                    "midi": 60,
                    "time": 16.636347000000004,
                    "velocity": 1,
                    "duration": 0.18181800000000337
                },
                {
                    "name": "C5",
                    "midi": 72,
                    "time": 16.772710500000006,
                    "velocity": 1,
                    "duration": 0.13068168750000098
                },
                {
                    "name": "A#4",
                    "midi": 70,
                    "time": 16.909074000000007,
                    "velocity": 1,
                    "duration": 0.0909089999999999
                },
                {
                    "name": "G5",
                    "midi": 79,
                    "time": 17.04543750000001,
                    "velocity": 1,
                    "duration": 0.13068168750000098
                },
                {
                    "name": "E5",
                    "midi": 76,
                    "time": 17.18180100000001,
                    "velocity": 1,
                    "duration": 0.13068168750000098
                },
                {
                    "name": "C5",
                    "midi": 72,
                    "time": 17.318164500000012,
                    "velocity": 1,
                    "duration": 0.13068168750000098
                },
                {
                    "name": "A4",
                    "midi": 69,
                    "time": 17.454528000000014,
                    "velocity": 1,
                    "duration": 0.0909089999999999
                },
                {
                    "name": "A5",
                    "midi": 81,
                    "time": 17.590891500000016,
                    "velocity": 1,
                    "duration": 0.13068168750000098
                },
                {
                    "name": "F5",
                    "midi": 77,
                    "time": 17.727255000000017,
                    "velocity": 1,
                    "duration": 0.13068168750000098
                },
                {
                    "name": "C#5",
                    "midi": 73,
                    "time": 17.86361850000002,
                    "velocity": 1,
                    "duration": 0.13068168750000098
                },
                {
                    "name": "C5",
                    "midi": 72,
                    "time": 17.99998200000002,
                    "velocity": 1,
                    "duration": 0.0909089999999999
                },
                {
                    "name": "A5",
                    "midi": 81,
                    "time": 18.136345500000022,
                    "velocity": 1,
                    "duration": 0.13068168750000098
                },
                {
                    "name": "F5",
                    "midi": 77,
                    "time": 18.272709000000024,
                    "velocity": 1,
                    "duration": 0.13068168750000098
                },
                {
                    "name": "A4",
                    "midi": 69,
                    "time": 18.272709000000024,
                    "velocity": 1,
                    "duration": 0.2670451875000026
                },
                {
                    "name": "C#5",
                    "midi": 73,
                    "time": 18.409072500000025,
                    "velocity": 1,
                    "duration": 0.13068168750000098
                },
                {
                    "name": "C5",
                    "midi": 72,
                    "time": 18.545436000000027,
                    "velocity": 1,
                    "duration": 0.0909089999999999
                },
                {
                    "name": "A5",
                    "midi": 81,
                    "time": 18.68179950000003,
                    "velocity": 1,
                    "duration": 0.13068168750000098
                },
                {
                    "name": "F5",
                    "midi": 77,
                    "time": 18.81816300000003,
                    "velocity": 1,
                    "duration": 0.13068168750000098
                },
                {
                    "name": "C#5",
                    "midi": 73,
                    "time": 18.954526500000032,
                    "velocity": 1,
                    "duration": 0.13068168750000098
                },
                {
                    "name": "C5",
                    "midi": 72,
                    "time": 19.090890000000034,
                    "velocity": 1,
                    "duration": 0.0909089999999999
                },
                {
                    "name": "A5",
                    "midi": 81,
                    "time": 19.227253500000035,
                    "velocity": 1,
                    "duration": 0.13068168750000098
                },
                {
                    "name": "F5",
                    "midi": 77,
                    "time": 19.363617000000037,
                    "velocity": 1,
                    "duration": 0.13068168750000098
                },
                {
                    "name": "D#5",
                    "midi": 75,
                    "time": 19.49998050000004,
                    "velocity": 1,
                    "duration": 0.13068168750000098
                },
                {
                    "name": "D5",
                    "midi": 74,
                    "time": 19.63634400000004,
                    "velocity": 1,
                    "duration": 0.0909089999999999
                },
                {
                    "name": "B5",
                    "midi": 83,
                    "time": 19.772707500000042,
                    "velocity": 1,
                    "duration": 0.13068168750000098
                },
                {
                    "name": "G#5",
                    "midi": 80,
                    "time": 19.909071000000043,
                    "velocity": 1,
                    "duration": 0.13068168750000098
                },
                {
                    "name": "F5",
                    "midi": 77,
                    "time": 20.045434500000045,
                    "velocity": 1,
                    "duration": 0.13068168750000098
                },
                {
                    "name": "D5",
                    "midi": 74,
                    "time": 20.181798000000047,
                    "velocity": 1,
                    "duration": 0.0909089999999999
                },
                {
                    "name": "B5",
                    "midi": 83,
                    "time": 20.31816150000005,
                    "velocity": 1,
                    "duration": 0.13068168750000098
                },
                {
                    "name": "G#5",
                    "midi": 80,
                    "time": 20.45452500000005,
                    "velocity": 1,
                    "duration": 0.13068168750000098
                },
                {
                    "name": "F5",
                    "midi": 77,
                    "time": 20.59088850000005,
                    "velocity": 1,
                    "duration": 0.13068168750000098
                },
                {
                    "name": "D5",
                    "midi": 74,
                    "time": 20.727252000000053,
                    "velocity": 1,
                    "duration": 0.0909089999999999
                },
                {
                    "name": "B5",
                    "midi": 83,
                    "time": 20.863615500000055,
                    "velocity": 1,
                    "duration": 0.13068168750000098
                },
                {
                    "name": "G#5",
                    "midi": 80,
                    "time": 20.999979000000057,
                    "velocity": 1,
                    "duration": 0.13068168750000098
                },
                {
                    "name": "F5",
                    "midi": 77,
                    "time": 21.136342500000058,
                    "velocity": 1,
                    "duration": 0.13068168750000098
                },
                {
                    "name": "D5",
                    "midi": 74,
                    "time": 21.27270600000006,
                    "velocity": 1,
                    "duration": 0.0909089999999999
                },
                {
                    "name": "B5",
                    "midi": 83,
                    "time": 21.40906950000006,
                    "velocity": 1,
                    "duration": 0.13068168750000098
                },
                {
                    "name": "G#5",
                    "midi": 80,
                    "time": 21.545433000000063,
                    "velocity": 1,
                    "duration": 0.13068168750000098
                },
                {
                    "name": "F5",
                    "midi": 77,
                    "time": 21.681796500000065,
                    "velocity": 1,
                    "duration": 0.13068168750000098
                },
                {
                    "name": "E5",
                    "midi": 76,
                    "time": 21.818160000000066,
                    "velocity": 1,
                    "duration": 0.13068168750000098
                },
                {
                    "name": "C6",
                    "midi": 84,
                    "time": 21.954523500000068,
                    "velocity": 1,
                    "duration": 0.13068168750000098
                },
                {
                    "name": "G5",
                    "midi": 79,
                    "time": 22.09088700000007,
                    "velocity": 1,
                    "duration": 0.13068168750000098
                },
                {
                    "name": "E5",
                    "midi": 76,
                    "time": 22.22725050000007,
                    "velocity": 1,
                    "duration": 0.13068168750000098
                },
                {
                    "name": "C5",
                    "midi": 72,
                    "time": 22.363614000000073,
                    "velocity": 1,
                    "duration": 0.0909089999999999
                },
                {
                    "name": "E5",
                    "midi": 76,
                    "time": 22.499977500000075,
                    "velocity": 1,
                    "duration": 0.0909089999999999
                },
                {
                    "name": "D5",
                    "midi": 74,
                    "time": 22.636341000000076,
                    "velocity": 1,
                    "duration": 0.0909089999999999
                },
                {
                    "name": "F5",
                    "midi": 77,
                    "time": 22.772704500000078,
                    "velocity": 1,
                    "duration": 0.0909089999999999
                },
                {
                    "name": "E5",
                    "midi": 76,
                    "time": 22.90906800000008,
                    "velocity": 1,
                    "duration": 0.13068168750000098
                },
                {
                    "name": "G5",
                    "midi": 79,
                    "time": 23.04543150000008,
                    "velocity": 1,
                    "duration": 0.13068168750000098
                },
                {
                    "name": "E5",
                    "midi": 76,
                    "time": 23.181795000000083,
                    "velocity": 1,
                    "duration": 0.13068168750000098
                },
                {
                    "name": "C5",
                    "midi": 72,
                    "time": 23.318158500000084,
                    "velocity": 1,
                    "duration": 0.13068168750000098
                },
                {
                    "name": "G4",
                    "midi": 67,
                    "time": 23.454522000000086,
                    "velocity": 1,
                    "duration": 0.0909089999999999
                },
                {
                    "name": "A#4",
                    "midi": 70,
                    "time": 23.590885500000088,
                    "velocity": 1,
                    "duration": 0.0909089999999999
                },
                {
                    "name": "A4",
                    "midi": 69,
                    "time": 23.72724900000009,
                    "velocity": 1,
                    "duration": 0.0909089999999999
                },
                {
                    "name": "C5",
                    "midi": 72,
                    "time": 23.86361250000009,
                    "velocity": 1,
                    "duration": 0.0909089999999999
                },
                {
                    "name": "A#4",
                    "midi": 70,
                    "time": 23.999976000000093,
                    "velocity": 1,
                    "duration": 0.13068168750000098
                },
                {
                    "name": "D5",
                    "midi": 74,
                    "time": 24.136339500000094,
                    "velocity": 1,
                    "duration": 0.13068168750000098
                },
                {
                    "name": "A#4",
                    "midi": 70,
                    "time": 24.272703000000096,
                    "velocity": 1,
                    "duration": 0.13068168750000098
                },
                {
                    "name": "G4",
                    "midi": 67,
                    "time": 24.409066500000097,
                    "velocity": 1,
                    "duration": 0.13068168750000098
                },
                {
                    "name": "E4",
                    "midi": 64,
                    "time": 24.5454300000001,
                    "velocity": 1,
                    "duration": 0.0909089999999999
                },
                {
                    "name": "G4",
                    "midi": 67,
                    "time": 24.6817935000001,
                    "velocity": 1,
                    "duration": 0.0909089999999999
                },
                {
                    "name": "F4",
                    "midi": 65,
                    "time": 24.818157000000102,
                    "velocity": 1,
                    "duration": 0.0909089999999999
                },
                {
                    "name": "A4",
                    "midi": 69,
                    "time": 24.954520500000104,
                    "velocity": 1,
                    "duration": 0.0909089999999999
                },
                {
                    "name": "G4",
                    "midi": 67,
                    "time": 25.090884000000106,
                    "velocity": 1,
                    "duration": 0.13068168750000098
                },
                {
                    "name": "A#4",
                    "midi": 70,
                    "time": 25.227247500000107,
                    "velocity": 1,
                    "duration": 0.13068168750000098
                },
                {
                    "name": "G4",
                    "midi": 67,
                    "time": 25.36361100000011,
                    "velocity": 1,
                    "duration": 0.13068168750000098
                },
                {
                    "name": "E4",
                    "midi": 64,
                    "time": 25.49997450000011,
                    "velocity": 1,
                    "duration": 0.13068168750000098
                },
                {
                    "name": "C4",
                    "midi": 60,
                    "time": 25.636338000000112,
                    "velocity": 1,
                    "duration": 0.0909089999999999
                },
                {
                    "name": "A#4",
                    "midi": 70,
                    "time": 25.772701500000114,
                    "velocity": 1,
                    "duration": 0.13068168750000098
                },
                {
                    "name": "A4",
                    "midi": 69,
                    "time": 25.909065000000115,
                    "velocity": 1,
                    "duration": 0.13068168750000098
                },
                {
                    "name": "G4",
                    "midi": 67,
                    "time": 26.045428500000117,
                    "velocity": 1,
                    "duration": 0.13068168750000098
                },
                {
                    "name": "A4",
                    "midi": 69,
                    "time": 26.18179200000012,
                    "velocity": 1,
                    "duration": 0.13068168750000098
                },
                {
                    "name": "F4",
                    "midi": 65,
                    "time": 26.31815550000012,
                    "velocity": 1,
                    "duration": 0.13068168750000098
                },
                {
                    "name": "G4",
                    "midi": 67,
                    "time": 26.454519000000122,
                    "velocity": 1,
                    "duration": 0.13068168750000098
                },
                {
                    "name": "A4",
                    "midi": 69,
                    "time": 26.590882500000124,
                    "velocity": 1,
                    "duration": 0.13068168750000098
                },
                {
                    "name": "A#4",
                    "midi": 70,
                    "time": 26.727246000000125,
                    "velocity": 1,
                    "duration": 0.13068168750000098
                },
                {
                    "name": "C5",
                    "midi": 72,
                    "time": 26.863609500000127,
                    "velocity": 1,
                    "duration": 0.13068168750000098
                },
                {
                    "name": "D5",
                    "midi": 74,
                    "time": 26.99997300000013,
                    "velocity": 1,
                    "duration": 0.13068168750000098
                },
                {
                    "name": "E5",
                    "midi": 76,
                    "time": 27.13633650000013,
                    "velocity": 1,
                    "duration": 0.13068168750000098
                },
                {
                    "name": "F5",
                    "midi": 77,
                    "time": 27.272700000000132,
                    "velocity": 1,
                    "duration": 0.13068168750000098
                },
                {
                    "name": "E5",
                    "midi": 76,
                    "time": 27.409063500000133,
                    "velocity": 1,
                    "duration": 0.13068168750000098
                },
                {
                    "name": "D5",
                    "midi": 74,
                    "time": 27.545427000000135,
                    "velocity": 1,
                    "duration": 0.13068168750000098
                },
                {
                    "name": "C5",
                    "midi": 72,
                    "time": 27.681790500000137,
                    "velocity": 1,
                    "duration": 0.13068168750000098
                },
                {
                    "name": "C6",
                    "midi": 84,
                    "time": 27.81815400000014,
                    "velocity": 1,
                    "duration": 0.1818179999999998
                },
                {
                    "name": "F5",
                    "midi": 77,
                    "time": 28.090881000000138,
                    "velocity": 1,
                    "duration": 0.1818179999999998
                },
                {
                    "name": "C5",
                    "midi": 72,
                    "time": 28.090881000000138,
                    "velocity": 1,
                    "duration": 0.1818179999999998
                },
                {
                    "name": "A4",
                    "midi": 69,
                    "time": 28.090881000000138,
                    "velocity": 1,
                    "duration": 0.1818179999999998
                },
                {
                    "name": "F5",
                    "midi": 77,
                    "time": 28.363608000000138,
                    "velocity": 1,
                    "duration": 0.5397721874999988
                },
                {
                    "name": "C5",
                    "midi": 72,
                    "time": 28.363608000000138,
                    "velocity": 1,
                    "duration": 0.5397721874999988
                },
                {
                    "name": "A4",
                    "midi": 69,
                    "time": 28.363608000000138,
                    "velocity": 1,
                    "duration": 0.5397721874999988
                },
                {
                    "name": "G4",
                    "midi": 67,
                    "time": 28.909062000000137,
                    "velocity": 1,
                    "duration": 0.3636359999999996
                },
                {
                    "name": "E5",
                    "midi": 76,
                    "time": 28.909062000000137,
                    "velocity": 1,
                    "duration": 0.6363629999999993
                },
                {
                    "name": "C5",
                    "midi": 72,
                    "time": 28.909062000000137,
                    "velocity": 1,
                    "duration": 0.7272720000000028
                },
                {
                    "name": "F4",
                    "midi": 65,
                    "time": 29.454516000000137,
                    "velocity": 1,
                    "duration": 0.3636360000000032
                },
                {
                    "name": "F5",
                    "midi": 77,
                    "time": 29.59087950000014,
                    "velocity": 1,
                    "duration": 0.2727270000000033
                },
                {
                    "name": "B4",
                    "midi": 71,
                    "time": 29.72724300000014,
                    "velocity": 1,
                    "duration": 0.3636360000000032
                },
                {
                    "name": "D5",
                    "midi": 74,
                    "time": 30.136333500000145,
                    "velocity": 1,
                    "duration": 0.0909089999999999
                },
                {
                    "name": "C5",
                    "midi": 72,
                    "time": 30.272697000000147,
                    "velocity": 1,
                    "duration": 0.0909089999999999
                },
                {
                    "name": "A#4",
                    "midi": 70,
                    "time": 30.409060500000148,
                    "velocity": 1,
                    "duration": 0.0909089999999999
                },
                {
                    "name": "A4",
                    "midi": 69,
                    "time": 30.54542400000015,
                    "velocity": 1,
                    "duration": 0.40340868750000425
                },
                {
                    "name": "C5",
                    "midi": 72,
                    "time": 30.68178750000015,
                    "velocity": 1,
                    "duration": 0.13068168750000098
                },
                {
                    "name": "F5",
                    "midi": 77,
                    "time": 30.818151000000153,
                    "velocity": 1,
                    "duration": 0.5397721875000023
                },
                {
                    "name": "A4",
                    "midi": 69,
                    "time": 30.954514500000155,
                    "velocity": 1,
                    "duration": 0.13068168750000098
                },
                {
                    "name": "G4",
                    "midi": 67,
                    "time": 31.090878000000156,
                    "velocity": 1,
                    "duration": 0.5397721874999988
                },
                {
                    "name": "E5",
                    "midi": 76,
                    "time": 31.363605000000156,
                    "velocity": 1,
                    "duration": 0.26704518749999906
                },
                {
                    "name": "C5",
                    "midi": 72,
                    "time": 31.363605000000156,
                    "velocity": 1,
                    "duration": 0.26704518749999906
                },
                {
                    "name": "A#4",
                    "midi": 70,
                    "time": 31.363605000000156,
                    "velocity": 1,
                    "duration": 0.26704518749999906
                },
                {
                    "name": "F5",
                    "midi": 77,
                    "time": 31.636332000000156,
                    "velocity": 1,
                    "duration": 0.3636359999999996
                },
                {
                    "name": "C5",
                    "midi": 72,
                    "time": 31.636332000000156,
                    "velocity": 1,
                    "duration": 0.3636359999999996
                },
                {
                    "name": "A4",
                    "midi": 69,
                    "time": 31.636332000000156,
                    "velocity": 1,
                    "duration": 0.3636359999999996
                },
                {
                    "name": "F4",
                    "midi": 65,
                    "time": 31.636332000000156,
                    "velocity": 1,
                    "duration": 0.3636359999999996
                },
                {
                    "name": "C5",
                    "midi": 72,
                    "time": 32.454513000000155,
                    "velocity": 1,
                    "duration": 0.2670451875000026
                },
                {
                    "name": "D5",
                    "midi": 74,
                    "time": 32.72724000000016,
                    "velocity": 1,
                    "duration": 0.09090900000000346
                },
                {
                    "name": "C5",
                    "midi": 72,
                    "time": 32.86360350000016,
                    "velocity": 1,
                    "duration": 0.09090900000000346
                },
                {
                    "name": "D5",
                    "midi": 74,
                    "time": 32.99996700000016,
                    "velocity": 1,
                    "duration": 0.40340868749999714
                },
                {
                    "name": "F5",
                    "midi": 77,
                    "time": 33.40905750000016,
                    "velocity": 1,
                    "duration": 0.13068168750000098
                },
                {
                    "name": "D#5",
                    "midi": 75,
                    "time": 33.54542100000016,
                    "velocity": 1,
                    "duration": 0.13068168750000098
                },
                {
                    "name": "D5",
                    "midi": 74,
                    "time": 33.68178450000016,
                    "velocity": 1,
                    "duration": 0.13068168750000098
                },
                {
                    "name": "C5",
                    "midi": 72,
                    "time": 33.818148000000164,
                    "velocity": 1,
                    "duration": 0.09090900000000346
                },
                {
                    "name": "E5",
                    "midi": 76,
                    "time": 33.954511500000166,
                    "velocity": 1,
                    "duration": 0.09090900000000346
                },
                {
                    "name": "F5",
                    "midi": 77,
                    "time": 34.09087500000017,
                    "velocity": 1,
                    "duration": 0.40340868749999714
                },
                {
                    "name": "E5",
                    "midi": 76,
                    "time": 34.499965500000165,
                    "velocity": 1,
                    "duration": 0.13068168750000098
                },
                {
                    "name": "D5",
                    "midi": 74,
                    "time": 34.63632900000017,
                    "velocity": 1,
                    "duration": 0.13068168750000098
                },
                {
                    "name": "C5",
                    "midi": 72,
                    "time": 34.77269250000017,
                    "velocity": 1,
                    "duration": 0.13068168750000098
                },
                {
                    "name": "A#4",
                    "midi": 70,
                    "time": 34.90905600000017,
                    "velocity": 1,
                    "duration": 0.13068168750000098
                },
                {
                    "name": "A4",
                    "midi": 69,
                    "time": 35.04541950000017,
                    "velocity": 1,
                    "duration": 0.13068168750000098
                },
                {
                    "name": "A#4",
                    "midi": 70,
                    "time": 35.18178300000017,
                    "velocity": 1,
                    "duration": 0.13068168750000098
                },
                {
                    "name": "D5",
                    "midi": 74,
                    "time": 35.318146500000175,
                    "velocity": 1,
                    "duration": 0.13068168750000098
                },
                {
                    "name": "G5",
                    "midi": 79,
                    "time": 35.45451000000018,
                    "velocity": 1,
                    "duration": 0.1818179999999998
                },
                {
                    "name": "A#4",
                    "midi": 70,
                    "time": 35.72723700000018,
                    "velocity": 1,
                    "duration": 0.1818179999999998
                },
                {
                    "name": "A#4",
                    "midi": 70,
                    "time": 35.99996400000018,
                    "velocity": 1,
                    "duration": 0.06818175000000082
                },
                {
                    "name": "C5",
                    "midi": 72,
                    "time": 36.068145750000184,
                    "velocity": 1,
                    "duration": 0.06818175000000082
                },
                {
                    "name": "A#4",
                    "midi": 70,
                    "time": 36.136327500000185,
                    "velocity": 1,
                    "duration": 0.06818175000000082
                },
                {
                    "name": "C5",
                    "midi": 72,
                    "time": 36.204509250000186,
                    "velocity": 1,
                    "duration": 0.06818175000000082
                },
                {
                    "name": "A4",
                    "midi": 69,
                    "time": 36.27269100000019,
                    "velocity": 1,
                    "duration": 0.1818179999999998
                },
                {
                    "name": "A4",
                    "midi": 69,
                    "time": 36.818145000000186,
                    "velocity": 1,
                    "duration": 0.1818179999999998
                },
                {
                    "name": "G4",
                    "midi": 67,
                    "time": 37.09087200000019,
                    "velocity": 1,
                    "duration": 0.13068168750000098
                },
                {
                    "name": "A#4",
                    "midi": 70,
                    "time": 37.22723550000019,
                    "velocity": 1,
                    "duration": 0.09090900000000346
                },
                {
                    "name": "A#4",
                    "midi": 70,
                    "time": 37.36359900000019,
                    "velocity": 1,
                    "duration": 0.13068168750000098
                },
                {
                    "name": "A4",
                    "midi": 69,
                    "time": 37.499962500000194,
                    "velocity": 1,
                    "duration": 0.09090900000000346
                },
                {
                    "name": "A4",
                    "midi": 69,
                    "time": 37.636326000000196,
                    "velocity": 1,
                    "duration": 0.13068168750000098
                },
                {
                    "name": "F5",
                    "midi": 77,
                    "time": 37.7726895000002,
                    "velocity": 1,
                    "duration": 0.09090900000000346
                },
                {
                    "name": "F5",
                    "midi": 77,
                    "time": 37.9090530000002,
                    "velocity": 1,
                    "duration": 0.13068168750000098
                },
                {
                    "name": "E5",
                    "midi": 76,
                    "time": 38.0454165000002,
                    "velocity": 1,
                    "duration": 0.09090900000000346
                },
                {
                    "name": "E5",
                    "midi": 76,
                    "time": 38.1817800000002,
                    "velocity": 1,
                    "duration": 0.13068168750000098
                },
                {
                    "name": "D5",
                    "midi": 74,
                    "time": 38.318143500000204,
                    "velocity": 1,
                    "duration": 0.09090900000000346
                },
                {
                    "name": "D5",
                    "midi": 74,
                    "time": 38.454507000000206,
                    "velocity": 1,
                    "duration": 0.13068168750000098
                },
                {
                    "name": "C5",
                    "midi": 72,
                    "time": 38.59087050000021,
                    "velocity": 1,
                    "duration": 0.09090900000000346
                },
                {
                    "name": "C5",
                    "midi": 72,
                    "time": 38.72723400000021,
                    "velocity": 1,
                    "duration": 0.13068168750000098
                },
                {
                    "name": "A#4",
                    "midi": 70,
                    "time": 38.86359750000021,
                    "velocity": 1,
                    "duration": 0.09090900000000346
                },
                {
                    "name": "A#4",
                    "midi": 70,
                    "time": 38.99996100000021,
                    "velocity": 1,
                    "duration": 0.13068168750000098
                },
                {
                    "name": "A4",
                    "midi": 69,
                    "time": 39.136324500000214,
                    "velocity": 1,
                    "duration": 0.09090900000000346
                },
                {
                    "name": "G4",
                    "midi": 67,
                    "time": 39.272688000000215,
                    "velocity": 1,
                    "duration": 0.09090900000000346
                },
                {
                    "name": "A#4",
                    "midi": 70,
                    "time": 39.40905150000022,
                    "velocity": 1,
                    "duration": 0.09090900000000346
                },
                {
                    "name": "C5",
                    "midi": 72,
                    "time": 39.54541500000022,
                    "velocity": 1,
                    "duration": 0.09090900000000346
                },
                {
                    "name": "A#4",
                    "midi": 70,
                    "time": 39.60791493750022,
                    "velocity": 1,
                    "duration": 0.09090900000000346
                },
                {
                    "name": "A4",
                    "midi": 69,
                    "time": 39.68177850000022,
                    "velocity": 1,
                    "duration": 0.09090900000000346
                },
                {
                    "name": "A4",
                    "midi": 69,
                    "time": 39.81814200000022,
                    "velocity": 1,
                    "duration": 0.13068168750000098
                },
                {
                    "name": "F5",
                    "midi": 77,
                    "time": 39.954505500000224,
                    "velocity": 1,
                    "duration": 0.09090900000000346
                },
                {
                    "name": "G5",
                    "midi": 79,
                    "time": 40.090869000000225,
                    "velocity": 1,
                    "duration": 0.09090900000000346
                },
                {
                    "name": "F5",
                    "midi": 77,
                    "time": 40.153368937500225,
                    "velocity": 1,
                    "duration": 0.09090900000000346
                },
                {
                    "name": "E5",
                    "midi": 76,
                    "time": 40.22723250000023,
                    "velocity": 1,
                    "duration": 0.09090900000000346
                },
                {
                    "name": "F5",
                    "midi": 77,
                    "time": 40.36359600000023,
                    "velocity": 1,
                    "duration": 0.09090900000000346
                },
                {
                    "name": "E5",
                    "midi": 76,
                    "time": 40.43177775000023,
                    "velocity": 1,
                    "duration": 0.09090900000000346
                },
                {
                    "name": "D5",
                    "midi": 74,
                    "time": 40.49995950000023,
                    "velocity": 1,
                    "duration": 0.09090900000000346
                },
                {
                    "name": "E5",
                    "midi": 76,
                    "time": 40.63632300000023,
                    "velocity": 1,
                    "duration": 0.09090900000000346
                },
                {
                    "name": "D5",
                    "midi": 74,
                    "time": 40.69882293750023,
                    "velocity": 1,
                    "duration": 0.09090900000000346
                },
                {
                    "name": "C5",
                    "midi": 72,
                    "time": 40.77268650000023,
                    "velocity": 1,
                    "duration": 0.09090900000000346
                },
                {
                    "name": "D5",
                    "midi": 74,
                    "time": 40.909050000000235,
                    "velocity": 1,
                    "duration": 0.09090900000000346
                },
                {
                    "name": "C5",
                    "midi": 72,
                    "time": 40.977231750000236,
                    "velocity": 1,
                    "duration": 0.09090900000000346
                },
                {
                    "name": "A#4",
                    "midi": 70,
                    "time": 41.04541350000024,
                    "velocity": 1,
                    "duration": 0.09090900000000346
                },
                {
                    "name": "C5",
                    "midi": 72,
                    "time": 41.18177700000024,
                    "velocity": 1,
                    "duration": 0.09090900000000346
                },
                {
                    "name": "A#4",
                    "midi": 70,
                    "time": 41.24427693750024,
                    "velocity": 1,
                    "duration": 0.09090900000000346
                },
                {
                    "name": "A4",
                    "midi": 69,
                    "time": 41.31814050000024,
                    "velocity": 1,
                    "duration": 0.09090900000000346
                },
                {
                    "name": "A#4",
                    "midi": 70,
                    "time": 41.45450400000024,
                    "velocity": 1,
                    "duration": 0.09090900000000346
                },
                {
                    "name": "A4",
                    "midi": 69,
                    "time": 41.52268575000024,
                    "velocity": 1,
                    "duration": 0.09090900000000346
                },
                {
                    "name": "G4",
                    "midi": 67,
                    "time": 41.59086750000024,
                    "velocity": 1,
                    "duration": 0.09090900000000346
                },
                {
                    "name": "A4",
                    "midi": 69,
                    "time": 41.727231000000245,
                    "velocity": 1,
                    "duration": 0.3636359999999996
                },
                {
                    "name": "C5",
                    "midi": 72,
                    "time": 42.13632150000024,
                    "velocity": 1,
                    "duration": 0.09090900000000346
                },
                {
                    "name": "A#4",
                    "midi": 70,
                    "time": 42.272685000000244,
                    "velocity": 1,
                    "duration": 0.09090900000000346
                },
                {
                    "name": "A4",
                    "midi": 69,
                    "time": 42.409048500000246,
                    "velocity": 1,
                    "duration": 0.09090900000000346
                },
                {
                    "name": "G4",
                    "midi": 67,
                    "time": 42.54541200000025,
                    "velocity": 1,
                    "duration": 0.13068168750000098
                },
                {
                    "name": "B4",
                    "midi": 71,
                    "time": 42.68177550000025,
                    "velocity": 1,
                    "duration": 0.13068168750000098
                },
                {
                    "name": "C5",
                    "midi": 72,
                    "time": 42.81813900000025,
                    "velocity": 1,
                    "duration": 0.40340868749999714
                },
                {
                    "name": "B4",
                    "midi": 71,
                    "time": 43.22722950000025,
                    "velocity": 1,
                    "duration": 0.13068168750000098
                },
                {
                    "name": "A4",
                    "midi": 69,
                    "time": 43.36359300000025,
                    "velocity": 1,
                    "duration": 0.13068168750000098
                },
                {
                    "name": "G4",
                    "midi": 67,
                    "time": 43.49995650000025,
                    "velocity": 1,
                    "duration": 0.13068168750000098
                },
                {
                    "name": "F4",
                    "midi": 65,
                    "time": 43.636320000000254,
                    "velocity": 1,
                    "duration": 0.13068168750000098
                },
                {
                    "name": "E4",
                    "midi": 64,
                    "time": 43.772683500000255,
                    "velocity": 1,
                    "duration": 0.13068168750000098
                },
                {
                    "name": "F4",
                    "midi": 65,
                    "time": 43.90904700000026,
                    "velocity": 1,
                    "duration": 0.13068168750000098
                },
                {
                    "name": "A4",
                    "midi": 69,
                    "time": 44.04541050000026,
                    "velocity": 1,
                    "duration": 0.13068168750000098
                },
                {
                    "name": "D5",
                    "midi": 74,
                    "time": 44.18177400000026,
                    "velocity": 1,
                    "duration": 0.1818179999999998
                },
                {
                    "name": "F4",
                    "midi": 65,
                    "time": 44.45450100000026,
                    "velocity": 1,
                    "duration": 0.1818179999999998
                },
                {
                    "name": "F4",
                    "midi": 65,
                    "time": 44.68745531250026,
                    "velocity": 1,
                    "duration": 0.05113631249999884
                },
                {
                    "name": "G4",
                    "midi": 67,
                    "time": 44.72722800000026,
                    "velocity": 1,
                    "duration": 0.09090900000000346
                },
                {
                    "name": "F4",
                    "midi": 65,
                    "time": 44.79540975000026,
                    "velocity": 1,
                    "duration": 0.09090900000000346
                },
                {
                    "name": "E4",
                    "midi": 64,
                    "time": 44.86359150000026,
                    "velocity": 1,
                    "duration": 0.09090900000000346
                },
                {
                    "name": "F4",
                    "midi": 65,
                    "time": 44.93177325000026,
                    "velocity": 1,
                    "duration": 0.09090900000000346
                },
                {
                    "name": "E4",
                    "midi": 64,
                    "time": 44.99995500000026,
                    "velocity": 1,
                    "duration": 0.1818179999999998
                },
                {
                    "name": "C5",
                    "midi": 72,
                    "time": 56.999943000000265,
                    "velocity": 1,
                    "duration": 0.2670451875000026
                },
                {
                    "name": "E4",
                    "midi": 64,
                    "time": 57.27267000000027,
                    "velocity": 1,
                    "duration": 0.2670451875000026
                },
                {
                    "name": "C4",
                    "midi": 60,
                    "time": 57.27267000000027,
                    "velocity": 1,
                    "duration": 0.2670451875000026
                },
                {
                    "name": "F4",
                    "midi": 65,
                    "time": 57.54539700000027,
                    "velocity": 1,
                    "duration": 0.2670451875000026
                },
                {
                    "name": "D4",
                    "midi": 62,
                    "time": 57.54539700000027,
                    "velocity": 1,
                    "duration": 0.2670451875000026
                },
                {
                    "name": "G4",
                    "midi": 67,
                    "time": 57.818124000000275,
                    "velocity": 1,
                    "duration": 0.5397721874999988
                },
                {
                    "name": "E4",
                    "midi": 64,
                    "time": 57.818124000000275,
                    "velocity": 1,
                    "duration": 0.5397721874999988
                },
                {
                    "name": "A4",
                    "midi": 69,
                    "time": 58.363578000000274,
                    "velocity": 1,
                    "duration": 0.5397721874999988
                },
                {
                    "name": "F4",
                    "midi": 65,
                    "time": 58.363578000000274,
                    "velocity": 1,
                    "duration": 0.5397721874999988
                },
                {
                    "name": "G4",
                    "midi": 67,
                    "time": 58.90903200000027,
                    "velocity": 1,
                    "duration": 0.13068168750000098
                },
                {
                    "name": "E4",
                    "midi": 64,
                    "time": 58.90903200000027,
                    "velocity": 1,
                    "duration": 1.0852261875000053
                },
                {
                    "name": "A4",
                    "midi": 69,
                    "time": 59.045395500000275,
                    "velocity": 1,
                    "duration": 0.13068168750000098
                },
                {
                    "name": "A#4",
                    "midi": 70,
                    "time": 59.18175900000028,
                    "velocity": 1,
                    "duration": 0.5397721874999988
                },
                {
                    "name": "A4",
                    "midi": 69,
                    "time": 59.727213000000276,
                    "velocity": 1,
                    "duration": 0.13068168750000098
                },
                {
                    "name": "G4",
                    "midi": 67,
                    "time": 59.86357650000028,
                    "velocity": 1,
                    "duration": 0.13068168750000098
                },
                {
                    "name": "A4",
                    "midi": 69,
                    "time": 59.99994000000028,
                    "velocity": 1,
                    "duration": 0.5397721875000059
                },
                {
                    "name": "F4",
                    "midi": 65,
                    "time": 60.13630350000028,
                    "velocity": 1,
                    "duration": 0.13068168750000098
                },
                {
                    "name": "E4",
                    "midi": 64,
                    "time": 60.27266700000028,
                    "velocity": 1,
                    "duration": 0.13068168750000098
                },
                {
                    "name": "D4",
                    "midi": 62,
                    "time": 60.409030500000284,
                    "velocity": 1,
                    "duration": 0.13068168750000098
                },
                {
                    "name": "F5",
                    "midi": 77,
                    "time": 61.36357500000029,
                    "velocity": 1,
                    "duration": 0.2670451875000026
                },
                {
                    "name": "A4",
                    "midi": 69,
                    "time": 61.63630200000029,
                    "velocity": 1,
                    "duration": 0.2670451875000026
                },
                {
                    "name": "F4",
                    "midi": 65,
                    "time": 61.63630200000029,
                    "velocity": 1,
                    "duration": 0.2670451875000026
                },
                {
                    "name": "A#4",
                    "midi": 70,
                    "time": 61.909029000000295,
                    "velocity": 1,
                    "duration": 0.2670451875000026
                },
                {
                    "name": "G4",
                    "midi": 67,
                    "time": 61.909029000000295,
                    "velocity": 1,
                    "duration": 0.2670451875000026
                },
                {
                    "name": "C5",
                    "midi": 72,
                    "time": 62.1817560000003,
                    "velocity": 1,
                    "duration": 0.5397721874999988
                },
                {
                    "name": "A4",
                    "midi": 69,
                    "time": 62.1817560000003,
                    "velocity": 1,
                    "duration": 0.5397721874999988
                },
                {
                    "name": "D5",
                    "midi": 74,
                    "time": 62.7272100000003,
                    "velocity": 1,
                    "duration": 0.5397721874999988
                },
                {
                    "name": "A#4",
                    "midi": 70,
                    "time": 62.7272100000003,
                    "velocity": 1,
                    "duration": 0.5397721874999988
                },
                {
                    "name": "C5",
                    "midi": 72,
                    "time": 63.2726640000003,
                    "velocity": 1,
                    "duration": 0.13068168750000098
                },
                {
                    "name": "A4",
                    "midi": 69,
                    "time": 63.2726640000003,
                    "velocity": 1,
                    "duration": 1.0852261875000053
                },
                {
                    "name": "D5",
                    "midi": 74,
                    "time": 63.4090275000003,
                    "velocity": 1,
                    "duration": 0.13068168750000098
                },
                {
                    "name": "D#5",
                    "midi": 75,
                    "time": 63.5453910000003,
                    "velocity": 1,
                    "duration": 0.5397721874999988
                },
                {
                    "name": "D5",
                    "midi": 74,
                    "time": 64.0908450000003,
                    "velocity": 1,
                    "duration": 0.13068168750000098
                },
                {
                    "name": "C5",
                    "midi": 72,
                    "time": 64.2272085000003,
                    "velocity": 1,
                    "duration": 0.13068168750000098
                },
                {
                    "name": "D5",
                    "midi": 74,
                    "time": 64.3635720000003,
                    "velocity": 1,
                    "duration": 0.5397721875000059
                },
                {
                    "name": "A#4",
                    "midi": 70,
                    "time": 64.4999355000003,
                    "velocity": 1,
                    "duration": 0.13068168750000098
                },
                {
                    "name": "A4",
                    "midi": 69,
                    "time": 64.6362990000003,
                    "velocity": 1,
                    "duration": 0.13068168750000098
                },
                {
                    "name": "G4",
                    "midi": 67,
                    "time": 64.77266250000031,
                    "velocity": 1,
                    "duration": 0.13068168750000098
                },
                {
                    "name": "D5",
                    "midi": 74,
                    "time": 65.5908435000003,
                    "velocity": 1,
                    "duration": 0.13068168750000098
                },
                {
                    "name": "C#5",
                    "midi": 73,
                    "time": 65.7272070000003,
                    "velocity": 1,
                    "duration": 0.13068168750000098
                },
                {
                    "name": "G4",
                    "midi": 67,
                    "time": 65.7272070000003,
                    "velocity": 1,
                    "duration": 0.40340868750000425
                },
                {
                    "name": "D5",
                    "midi": 74,
                    "time": 65.86357050000031,
                    "velocity": 1,
                    "duration": 0.13068168750000098
                },
                {
                    "name": "A#5",
                    "midi": 82,
                    "time": 65.99993400000031,
                    "velocity": 1,
                    "duration": 0.18181800000000692
                },
                {
                    "name": "D5",
                    "midi": 74,
                    "time": 66.27266100000031,
                    "velocity": 1,
                    "duration": 0.3636359999999996
                },
                {
                    "name": "C#5",
                    "midi": 73,
                    "time": 66.68175150000032,
                    "velocity": 1,
                    "duration": 0.13068168750000098
                },
                {
                    "name": "B4",
                    "midi": 71,
                    "time": 66.81811500000032,
                    "velocity": 1,
                    "duration": 0.13068168750000098
                },
                {
                    "name": "C#5",
                    "midi": 73,
                    "time": 66.95447850000032,
                    "velocity": 1,
                    "duration": 0.13068168750000098
                },
                {
                    "name": "A5",
                    "midi": 81,
                    "time": 67.09084200000032,
                    "velocity": 1,
                    "duration": 0.18181800000000692
                },
                {
                    "name": "C5",
                    "midi": 72,
                    "time": 67.36356900000033,
                    "velocity": 1,
                    "duration": 0.3636359999999996
                },
                {
                    "name": "B4",
                    "midi": 71,
                    "time": 67.77265950000033,
                    "velocity": 1,
                    "duration": 0.13068168750000098
                },
                {
                    "name": "A4",
                    "midi": 69,
                    "time": 67.90902300000033,
                    "velocity": 1,
                    "duration": 0.13068168750000098
                },
                {
                    "name": "B4",
                    "midi": 71,
                    "time": 68.04538650000033,
                    "velocity": 1,
                    "duration": 0.13068168750000098
                },
                {
                    "name": "G5",
                    "midi": 79,
                    "time": 68.18175000000033,
                    "velocity": 1,
                    "duration": 0.18181800000000692
                },
                {
                    "name": "A#4",
                    "midi": 70,
                    "time": 68.45447700000034,
                    "velocity": 1,
                    "duration": 0.18181800000000692
                },
                {
                    "name": "A#4",
                    "midi": 70,
                    "time": 68.68743131250035,
                    "velocity": 1,
                    "duration": 0.05113631250000594
                },
                {
                    "name": "C5",
                    "midi": 72,
                    "time": 68.72720400000036,
                    "velocity": 1,
                    "duration": 0.0852271875000099
                },
                {
                    "name": "A#4",
                    "midi": 70,
                    "time": 68.79538575000036,
                    "velocity": 1,
                    "duration": 0.0852271875000099
                },
                {
                    "name": "C5",
                    "midi": 72,
                    "time": 68.86356750000037,
                    "velocity": 1,
                    "duration": 0.0852271875000099
                },
                {
                    "name": "A#4",
                    "midi": 70,
                    "time": 68.93174925000038,
                    "velocity": 1,
                    "duration": 0.0852271875000099
                },
                {
                    "name": "A4",
                    "midi": 69,
                    "time": 68.99993100000039,
                    "velocity": 1,
                    "duration": 0.2670451875000026
                },
                {
                    "name": "D5",
                    "midi": 74,
                    "time": 69.95447550000038,
                    "velocity": 1,
                    "duration": 0.13068168750000098
                },
                {
                    "name": "A#4",
                    "midi": 70,
                    "time": 70.09083900000039,
                    "velocity": 1,
                    "duration": 0.13068168750000098
                },
                {
                    "name": "G4",
                    "midi": 67,
                    "time": 70.22720250000039,
                    "velocity": 1,
                    "duration": 0.13068168750000098
                },
                {
                    "name": "A4",
                    "midi": 69,
                    "time": 70.36356600000039,
                    "velocity": 1,
                    "duration": 0.13068168750000098
                },
                {
                    "name": "D5",
                    "midi": 74,
                    "time": 70.49992950000039,
                    "velocity": 1,
                    "duration": 0.13068168750000098
                },
                {
                    "name": "G4",
                    "midi": 67,
                    "time": 70.63629300000039,
                    "velocity": 1,
                    "duration": 0.13068168750000098
                },
                {
                    "name": "E4",
                    "midi": 64,
                    "time": 70.7726565000004,
                    "velocity": 1,
                    "duration": 0.13068168750000098
                },
                {
                    "name": "F4",
                    "midi": 65,
                    "time": 70.9090200000004,
                    "velocity": 1,
                    "duration": 0.13068168750000098
                },
                {
                    "name": "D5",
                    "midi": 74,
                    "time": 71.0453835000004,
                    "velocity": 1,
                    "duration": 0.13068168750000098
                },
                {
                    "name": "G4",
                    "midi": 67,
                    "time": 71.1817470000004,
                    "velocity": 1,
                    "duration": 0.13068168750000098
                },
                {
                    "name": "E4",
                    "midi": 64,
                    "time": 71.3181105000004,
                    "velocity": 1,
                    "duration": 0.13068168750000098
                },
                {
                    "name": "F4",
                    "midi": 65,
                    "time": 71.4544740000004,
                    "velocity": 1,
                    "duration": 0.13068168750000098
                },
                {
                    "name": "D5",
                    "midi": 74,
                    "time": 71.5908375000004,
                    "velocity": 1,
                    "duration": 0.13068168750000098
                },
                {
                    "name": "E4",
                    "midi": 64,
                    "time": 71.7272010000004,
                    "velocity": 1,
                    "duration": 0.13068168750000098
                },
                {
                    "name": "C#4",
                    "midi": 61,
                    "time": 71.86356450000041,
                    "velocity": 1,
                    "duration": 0.13068168750000098
                },
                {
                    "name": "D4",
                    "midi": 62,
                    "time": 71.99992800000041,
                    "velocity": 1,
                    "duration": 0.13068168750000098
                },
                {
                    "name": "A5",
                    "midi": 81,
                    "time": 74.45447100000041,
                    "velocity": 1,
                    "duration": 0.2670451875000026
                },
                {
                    "name": "F5",
                    "midi": 77,
                    "time": 74.45447100000041,
                    "velocity": 1,
                    "duration": 0.2670451875000026
                },
                {
                    "name": "A#5",
                    "midi": 82,
                    "time": 74.72719800000041,
                    "velocity": 1,
                    "duration": 0.2670451875000026
                },
                {
                    "name": "G5",
                    "midi": 79,
                    "time": 74.72719800000041,
                    "velocity": 1,
                    "duration": 0.2670451875000026
                },
                {
                    "name": "A5",
                    "midi": 81,
                    "time": 74.99992500000042,
                    "velocity": 1,
                    "duration": 0.2670451875000026
                },
                {
                    "name": "F5",
                    "midi": 77,
                    "time": 74.99992500000042,
                    "velocity": 1,
                    "duration": 0.2670451875000026
                },
                {
                    "name": "E4",
                    "midi": 64,
                    "time": 75.27265200000042,
                    "velocity": 1,
                    "duration": 0.18181800000000692
                },
                {
                    "name": "G5",
                    "midi": 79,
                    "time": 75.54537900000042,
                    "velocity": 1,
                    "duration": 0.2670451875000026
                },
                {
                    "name": "E5",
                    "midi": 76,
                    "time": 75.54537900000042,
                    "velocity": 1,
                    "duration": 0.2670451875000026
                },
                {
                    "name": "A5",
                    "midi": 81,
                    "time": 75.81810600000043,
                    "velocity": 1,
                    "duration": 0.2670451875000026
                },
                {
                    "name": "F5",
                    "midi": 77,
                    "time": 75.81810600000043,
                    "velocity": 1,
                    "duration": 0.2670451875000026
                },
                {
                    "name": "G5",
                    "midi": 79,
                    "time": 76.09083300000043,
                    "velocity": 1,
                    "duration": 0.2670451875000026
                },
                {
                    "name": "E5",
                    "midi": 76,
                    "time": 76.09083300000043,
                    "velocity": 1,
                    "duration": 0.2670451875000026
                },
                {
                    "name": "F4",
                    "midi": 65,
                    "time": 76.36356000000043,
                    "velocity": 1,
                    "duration": 0.18181800000000692
                },
                {
                    "name": "F5",
                    "midi": 77,
                    "time": 76.63628700000044,
                    "velocity": 1,
                    "duration": 0.2670451875000026
                },
                {
                    "name": "D5",
                    "midi": 74,
                    "time": 76.63628700000044,
                    "velocity": 1,
                    "duration": 0.2670451875000026
                },
                {
                    "name": "G5",
                    "midi": 79,
                    "time": 76.90901400000044,
                    "velocity": 1,
                    "duration": 0.2670451875000026
                },
                {
                    "name": "E5",
                    "midi": 76,
                    "time": 76.90901400000044,
                    "velocity": 1,
                    "duration": 0.2670451875000026
                },
                {
                    "name": "F5",
                    "midi": 77,
                    "time": 77.18174100000044,
                    "velocity": 1,
                    "duration": 0.2670451875000026
                },
                {
                    "name": "D5",
                    "midi": 74,
                    "time": 77.18174100000044,
                    "velocity": 1,
                    "duration": 0.2670451875000026
                },
                {
                    "name": "G4",
                    "midi": 67,
                    "time": 77.45446800000045,
                    "velocity": 1,
                    "duration": 0.18181800000000692
                },
                {
                    "name": "F5",
                    "midi": 77,
                    "time": 77.72719500000045,
                    "velocity": 1,
                    "duration": 0.2670451875000026
                },
                {
                    "name": "D5",
                    "midi": 74,
                    "time": 77.72719500000045,
                    "velocity": 1,
                    "duration": 0.2670451875000026
                },
                {
                    "name": "G5",
                    "midi": 79,
                    "time": 77.99992200000045,
                    "velocity": 1,
                    "duration": 0.2670451875000026
                },
                {
                    "name": "E5",
                    "midi": 76,
                    "time": 77.99992200000045,
                    "velocity": 1,
                    "duration": 0.2670451875000026
                },
                {
                    "name": "D5",
                    "midi": 74,
                    "time": 78.27264900000046,
                    "velocity": 1,
                    "duration": 0.2670451875000026
                },
                {
                    "name": "F5",
                    "midi": 77,
                    "time": 78.27264900000046,
                    "velocity": 1,
                    "duration": 0.40340868750000425
                },
                {
                    "name": "G#4",
                    "midi": 68,
                    "time": 78.54537600000046,
                    "velocity": 1,
                    "duration": 0.3636359999999854
                },
                {
                    "name": "D4",
                    "midi": 62,
                    "time": 78.54537600000046,
                    "velocity": 1,
                    "duration": 0.3636359999999854
                },
                {
                    "name": "B3",
                    "midi": 59,
                    "time": 78.54537600000046,
                    "velocity": 1,
                    "duration": 0.3636359999999854
                },
                {
                    "name": "E5",
                    "midi": 76,
                    "time": 78.68173950000046,
                    "velocity": 1,
                    "duration": 0.13068168749998677
                },
                {
                    "name": "D5",
                    "midi": 74,
                    "time": 78.74992125000045,
                    "velocity": 1,
                    "duration": 0.13068168749998677
                },
                {
                    "name": "E5",
                    "midi": 76,
                    "time": 78.81810300000045,
                    "velocity": 1,
                    "duration": 0.40340868750000425
                },
                {
                    "name": "E4",
                    "midi": 64,
                    "time": 79.09083000000045,
                    "velocity": 1,
                    "duration": 0.3636359999999854
                },
                {
                    "name": "D5",
                    "midi": 74,
                    "time": 79.22719350000045,
                    "velocity": 1,
                    "duration": 0.13068168749998677
                },
                {
                    "name": "C#5",
                    "midi": 73,
                    "time": 79.29537525000045,
                    "velocity": 1,
                    "duration": 0.13068168749998677
                },
                {
                    "name": "D5",
                    "midi": 74,
                    "time": 79.36355700000044,
                    "velocity": 1,
                    "duration": 0.3636359999999996
                },
                {
                    "name": "C#5",
                    "midi": 73,
                    "time": 79.77264750000045,
                    "velocity": 1,
                    "duration": 0.09090899999999635
                },
                {
                    "name": "B4",
                    "midi": 71,
                    "time": 79.84082925000044,
                    "velocity": 1,
                    "duration": 0.09090900000001056
                },
                {
                    "name": "C#5",
                    "midi": 73,
                    "time": 79.90901100000045,
                    "velocity": 1,
                    "duration": 0.3636359999999996
                },
                {
                    "name": "E5",
                    "midi": 76,
                    "time": 80.31810150000045,
                    "velocity": 1,
                    "duration": 0.09090899999999635
                },
                {
                    "name": "C#5",
                    "midi": 73,
                    "time": 80.45446500000045,
                    "velocity": 1,
                    "duration": 0.09090899999999635
                },
                {
                    "name": "A4",
                    "midi": 69,
                    "time": 80.59082850000046,
                    "velocity": 1,
                    "duration": 0.09090899999999635
                },
                {
                    "name": "G4",
                    "midi": 67,
                    "time": 80.72719200000046,
                    "velocity": 1,
                    "duration": 0.09090899999999635
                },
                {
                    "name": "E5",
                    "midi": 76,
                    "time": 80.86355550000046,
                    "velocity": 1,
                    "duration": 0.13068168750000098
                },
                {
                    "name": "C#5",
                    "midi": 73,
                    "time": 80.99991900000046,
                    "velocity": 1,
                    "duration": 0.13068168750000098
                },
                {
                    "name": "A4",
                    "midi": 69,
                    "time": 81.13628250000046,
                    "velocity": 1,
                    "duration": 0.09090899999999635
                },
                {
                    "name": "G4",
                    "midi": 67,
                    "time": 81.27264600000046,
                    "velocity": 1,
                    "duration": 0.09090899999999635
                },
                {
                    "name": "E5",
                    "midi": 76,
                    "time": 81.40900950000047,
                    "velocity": 1,
                    "duration": 0.13068168750000098
                },
                {
                    "name": "C#5",
                    "midi": 73,
                    "time": 81.54537300000047,
                    "velocity": 1,
                    "duration": 0.13068168750000098
                },
                {
                    "name": "A4",
                    "midi": 69,
                    "time": 81.68173650000047,
                    "velocity": 1,
                    "duration": 0.09090899999999635
                },
                {
                    "name": "G4",
                    "midi": 67,
                    "time": 81.81810000000047,
                    "velocity": 1,
                    "duration": 0.09090899999999635
                },
                {
                    "name": "E5",
                    "midi": 76,
                    "time": 81.95446350000047,
                    "velocity": 1,
                    "duration": 0.13068168750000098
                },
                {
                    "name": "C#5",
                    "midi": 73,
                    "time": 82.09082700000047,
                    "velocity": 1,
                    "duration": 0.13068168750000098
                },
                {
                    "name": "A4",
                    "midi": 69,
                    "time": 82.22719050000048,
                    "velocity": 1,
                    "duration": 0.09090899999999635
                },
                {
                    "name": "G4",
                    "midi": 67,
                    "time": 82.36355400000048,
                    "velocity": 1,
                    "duration": 0.09090899999999635
                },
                {
                    "name": "E5",
                    "midi": 76,
                    "time": 82.49991750000048,
                    "velocity": 1,
                    "duration": 0.13068168750000098
                },
                {
                    "name": "C#5",
                    "midi": 73,
                    "time": 82.63628100000048,
                    "velocity": 1,
                    "duration": 0.13068168750000098
                },
                {
                    "name": "A4",
                    "midi": 69,
                    "time": 82.77264450000048,
                    "velocity": 1,
                    "duration": 0.09090899999999635
                },
                {
                    "name": "F4",
                    "midi": 65,
                    "time": 82.90900800000048,
                    "velocity": 1,
                    "duration": 0.09090899999999635
                },
                {
                    "name": "F5",
                    "midi": 77,
                    "time": 83.04537150000048,
                    "velocity": 1,
                    "duration": 0.13068168750000098
                },
                {
                    "name": "D5",
                    "midi": 74,
                    "time": 83.18173500000049,
                    "velocity": 1,
                    "duration": 0.13068168750000098
                },
                {
                    "name": "A#4",
                    "midi": 70,
                    "time": 83.31809850000049,
                    "velocity": 1,
                    "duration": 0.09090899999999635
                },
                {
                    "name": "A4",
                    "midi": 69,
                    "time": 83.45446200000049,
                    "velocity": 1,
                    "duration": 0.09090899999999635
                },
                {
                    "name": "F5",
                    "midi": 77,
                    "time": 83.59082550000049,
                    "velocity": 1,
                    "duration": 0.13068168750000098
                },
                {
                    "name": "D5",
                    "midi": 74,
                    "time": 83.7271890000005,
                    "velocity": 1,
                    "duration": 0.13068168750000098
                },
                {
                    "name": "A#4",
                    "midi": 70,
                    "time": 83.8635525000005,
                    "velocity": 1,
                    "duration": 0.09090899999999635
                },
                {
                    "name": "A4",
                    "midi": 69,
                    "time": 83.9999160000005,
                    "velocity": 1,
                    "duration": 0.09090899999999635
                },
                {
                    "name": "F5",
                    "midi": 77,
                    "time": 84.1362795000005,
                    "velocity": 1,
                    "duration": 0.13068168750000098
                },
                {
                    "name": "D5",
                    "midi": 74,
                    "time": 84.2726430000005,
                    "velocity": 1,
                    "duration": 0.13068168750000098
                },
                {
                    "name": "A#4",
                    "midi": 70,
                    "time": 84.4090065000005,
                    "velocity": 1,
                    "duration": 0.09090899999999635
                },
                {
                    "name": "A4",
                    "midi": 69,
                    "time": 84.5453700000005,
                    "velocity": 1,
                    "duration": 0.09090899999999635
                },
                {
                    "name": "F5",
                    "midi": 77,
                    "time": 84.6817335000005,
                    "velocity": 1,
                    "duration": 0.13068168750000098
                },
                {
                    "name": "D5",
                    "midi": 74,
                    "time": 84.8180970000005,
                    "velocity": 1,
                    "duration": 0.13068168750000098
                },
                {
                    "name": "C5",
                    "midi": 72,
                    "time": 84.95446050000051,
                    "velocity": 1,
                    "duration": 0.09090899999999635
                },
                {
                    "name": "B4",
                    "midi": 71,
                    "time": 85.09082400000051,
                    "velocity": 1,
                    "duration": 0.09090899999999635
                },
                {
                    "name": "G#5",
                    "midi": 80,
                    "time": 85.22718750000051,
                    "velocity": 1,
                    "duration": 0.13068168750000098
                },
                {
                    "name": "F5",
                    "midi": 77,
                    "time": 85.36355100000051,
                    "velocity": 1,
                    "duration": 0.13068168750000098
                },
                {
                    "name": "D5",
                    "midi": 74,
                    "time": 85.49991450000051,
                    "velocity": 1,
                    "duration": 0.09090899999999635
                },
                {
                    "name": "B4",
                    "midi": 71,
                    "time": 85.63627800000052,
                    "velocity": 1,
                    "duration": 0.09090899999999635
                },
                {
                    "name": "G#5",
                    "midi": 80,
                    "time": 85.77264150000052,
                    "velocity": 1,
                    "duration": 0.13068168750000098
                },
                {
                    "name": "F5",
                    "midi": 77,
                    "time": 85.90900500000052,
                    "velocity": 1,
                    "duration": 0.13068168750000098
                },
                {
                    "name": "D5",
                    "midi": 74,
                    "time": 86.04536850000052,
                    "velocity": 1,
                    "duration": 0.09090899999999635
                },
                {
                    "name": "B4",
                    "midi": 71,
                    "time": 86.18173200000052,
                    "velocity": 1,
                    "duration": 0.09090899999999635
                },
                {
                    "name": "G#5",
                    "midi": 80,
                    "time": 86.31809550000052,
                    "velocity": 1,
                    "duration": 0.13068168750000098
                },
                {
                    "name": "F5",
                    "midi": 77,
                    "time": 86.45445900000053,
                    "velocity": 1,
                    "duration": 0.13068168750000098
                },
                {
                    "name": "D5",
                    "midi": 74,
                    "time": 86.59082250000053,
                    "velocity": 1,
                    "duration": 0.09090899999999635
                },
                {
                    "name": "B4",
                    "midi": 71,
                    "time": 86.72718600000053,
                    "velocity": 1,
                    "duration": 0.09090899999999635
                },
                {
                    "name": "G#5",
                    "midi": 80,
                    "time": 86.86354950000053,
                    "velocity": 1,
                    "duration": 0.13068168750000098
                },
                {
                    "name": "F5",
                    "midi": 77,
                    "time": 86.99991300000053,
                    "velocity": 1,
                    "duration": 0.13068168750000098
                },
                {
                    "name": "D5",
                    "midi": 74,
                    "time": 87.13627650000053,
                    "velocity": 1,
                    "duration": 0.09090899999999635
                },
                {
                    "name": "C#5",
                    "midi": 73,
                    "time": 87.27264000000054,
                    "velocity": 1,
                    "duration": 0.13068168750000098
                },
                {
                    "name": "A5",
                    "midi": 81,
                    "time": 87.40900350000054,
                    "velocity": 1,
                    "duration": 0.13068168750000098
                },
                {
                    "name": "E5",
                    "midi": 76,
                    "time": 87.54536700000054,
                    "velocity": 1,
                    "duration": 0.13068168750000098
                },
                {
                    "name": "C#5",
                    "midi": 73,
                    "time": 87.68173050000054,
                    "velocity": 1,
                    "duration": 0.13068168750000098
                },
                {
                    "name": "A4",
                    "midi": 69,
                    "time": 87.81809400000054,
                    "velocity": 1,
                    "duration": 0.09090899999999635
                },
                {
                    "name": "C#5",
                    "midi": 73,
                    "time": 87.95445750000054,
                    "velocity": 1,
                    "duration": 0.09090899999999635
                },
                {
                    "name": "B4",
                    "midi": 71,
                    "time": 88.09082100000055,
                    "velocity": 1,
                    "duration": 0.09090899999999635
                },
                {
                    "name": "D5",
                    "midi": 74,
                    "time": 88.22718450000055,
                    "velocity": 1,
                    "duration": 0.09090899999999635
                },
                {
                    "name": "C#5",
                    "midi": 73,
                    "time": 88.36354800000055,
                    "velocity": 1,
                    "duration": 0.13068168750000098
                },
                {
                    "name": "E5",
                    "midi": 76,
                    "time": 88.49991150000055,
                    "velocity": 1,
                    "duration": 0.13068168750000098
                },
                {
                    "name": "C#5",
                    "midi": 73,
                    "time": 88.63627500000055,
                    "velocity": 1,
                    "duration": 0.13068168750000098
                },
                {
                    "name": "A4",
                    "midi": 69,
                    "time": 88.77263850000055,
                    "velocity": 1,
                    "duration": 0.13068168750000098
                },
                {
                    "name": "E4",
                    "midi": 64,
                    "time": 88.90900200000056,
                    "velocity": 1,
                    "duration": 0.09090899999999635
                },
                {
                    "name": "G4",
                    "midi": 67,
                    "time": 89.04536550000056,
                    "velocity": 1,
                    "duration": 0.09090899999999635
                },
                {
                    "name": "F4",
                    "midi": 65,
                    "time": 89.18172900000056,
                    "velocity": 1,
                    "duration": 0.09090899999999635
                },
                {
                    "name": "A4",
                    "midi": 69,
                    "time": 89.31809250000056,
                    "velocity": 1,
                    "duration": 0.09090899999999635
                },
                {
                    "name": "G4",
                    "midi": 67,
                    "time": 89.45445600000056,
                    "velocity": 1,
                    "duration": 0.13068168750000098
                },
                {
                    "name": "A#4",
                    "midi": 70,
                    "time": 89.59081950000056,
                    "velocity": 1,
                    "duration": 0.13068168750000098
                },
                {
                    "name": "G4",
                    "midi": 67,
                    "time": 89.72718300000057,
                    "velocity": 1,
                    "duration": 0.13068168750000098
                },
                {
                    "name": "E4",
                    "midi": 64,
                    "time": 89.86354650000057,
                    "velocity": 1,
                    "duration": 0.13068168750000098
                },
                {
                    "name": "C#4",
                    "midi": 61,
                    "time": 89.99991000000057,
                    "velocity": 1,
                    "duration": 0.09090899999999635
                },
                {
                    "name": "E4",
                    "midi": 64,
                    "time": 90.13627350000057,
                    "velocity": 1,
                    "duration": 0.09090899999999635
                },
                {
                    "name": "D4",
                    "midi": 62,
                    "time": 90.27263700000057,
                    "velocity": 1,
                    "duration": 0.09090899999999635
                },
                {
                    "name": "F4",
                    "midi": 65,
                    "time": 90.40900050000057,
                    "velocity": 1,
                    "duration": 0.09090899999999635
                },
                {
                    "name": "E4",
                    "midi": 64,
                    "time": 90.54536400000057,
                    "velocity": 1,
                    "duration": 0.13068168750000098
                },
                {
                    "name": "G4",
                    "midi": 67,
                    "time": 90.68172750000058,
                    "velocity": 1,
                    "duration": 0.13068168750000098
                },
                {
                    "name": "E4",
                    "midi": 64,
                    "time": 90.81809100000058,
                    "velocity": 1,
                    "duration": 0.13068168750000098
                },
                {
                    "name": "C#4",
                    "midi": 61,
                    "time": 90.95445450000058,
                    "velocity": 1,
                    "duration": 0.13068168750000098
                },
                {
                    "name": "A3",
                    "midi": 57,
                    "time": 91.09081800000058,
                    "velocity": 1,
                    "duration": 0.13068168750000098
                },
                {
                    "name": "G4",
                    "midi": 67,
                    "time": 91.22718150000058,
                    "velocity": 1,
                    "duration": 0.13068168750000098
                },
                {
                    "name": "F4",
                    "midi": 65,
                    "time": 91.36354500000058,
                    "velocity": 1,
                    "duration": 0.13068168750000098
                },
                {
                    "name": "E4",
                    "midi": 64,
                    "time": 91.49990850000059,
                    "velocity": 1,
                    "duration": 0.13068168750000098
                },
                {
                    "name": "F4",
                    "midi": 65,
                    "time": 91.63627200000059,
                    "velocity": 1,
                    "duration": 0.13068168750000098
                },
                {
                    "name": "D4",
                    "midi": 62,
                    "time": 91.77263550000059,
                    "velocity": 1,
                    "duration": 0.13068168750000098
                },
                {
                    "name": "E4",
                    "midi": 64,
                    "time": 91.90899900000059,
                    "velocity": 1,
                    "duration": 0.13068168750000098
                },
                {
                    "name": "F4",
                    "midi": 65,
                    "time": 92.04536250000059,
                    "velocity": 1,
                    "duration": 0.13068168750000098
                },
                {
                    "name": "G4",
                    "midi": 67,
                    "time": 92.1817260000006,
                    "velocity": 1,
                    "duration": 0.13068168750000098
                },
                {
                    "name": "A4",
                    "midi": 69,
                    "time": 92.3180895000006,
                    "velocity": 1,
                    "duration": 0.13068168750000098
                },
                {
                    "name": "B4",
                    "midi": 71,
                    "time": 92.4544530000006,
                    "velocity": 1,
                    "duration": 0.13068168750000098
                },
                {
                    "name": "C#5",
                    "midi": 73,
                    "time": 92.5908165000006,
                    "velocity": 1,
                    "duration": 0.13068168750000098
                },
                {
                    "name": "D5",
                    "midi": 74,
                    "time": 92.7271800000006,
                    "velocity": 1,
                    "duration": 0.13068168750000098
                },
                {
                    "name": "C#5",
                    "midi": 73,
                    "time": 92.8635435000006,
                    "velocity": 1,
                    "duration": 0.13068168750000098
                },
                {
                    "name": "B4",
                    "midi": 71,
                    "time": 92.9999070000006,
                    "velocity": 1,
                    "duration": 0.13068168750000098
                },
                {
                    "name": "A4",
                    "midi": 69,
                    "time": 93.1362705000006,
                    "velocity": 1,
                    "duration": 0.13068168750000098
                },
                {
                    "name": "A5",
                    "midi": 81,
                    "time": 93.27263400000061,
                    "velocity": 1,
                    "duration": 0.18181800000000692
                },
                {
                    "name": "D5",
                    "midi": 74,
                    "time": 93.54536100000061,
                    "velocity": 1,
                    "duration": 0.18181800000000692
                },
                {
                    "name": "A4",
                    "midi": 69,
                    "time": 93.54536100000061,
                    "velocity": 1,
                    "duration": 0.18181800000000692
                },
                {
                    "name": "F5",
                    "midi": 77,
                    "time": 93.81808800000061,
                    "velocity": 1,
                    "duration": 0.5397721875000059
                },
                {
                    "name": "D5",
                    "midi": 74,
                    "time": 93.81808800000061,
                    "velocity": 1,
                    "duration": 0.5397721875000059
                },
                {
                    "name": "A4",
                    "midi": 69,
                    "time": 93.81808800000061,
                    "velocity": 1,
                    "duration": 0.5397721875000059
                },
                {
                    "name": "G4",
                    "midi": 67,
                    "time": 94.36354200000062,
                    "velocity": 1,
                    "duration": 0.5397721875000059
                },
                {
                    "name": "E5",
                    "midi": 76,
                    "time": 94.36354200000062,
                    "velocity": 1,
                    "duration": 0.6363630000000029
                },
                {
                    "name": "C#5",
                    "midi": 73,
                    "time": 94.36354200000062,
                    "velocity": 1,
                    "duration": 0.6363630000000029
                },
                {
                    "name": "F4",
                    "midi": 65,
                    "time": 94.90899600000063,
                    "velocity": 1,
                    "duration": 0.5397721875000059
                },
                {
                    "name": "D5",
                    "midi": 74,
                    "time": 95.04535950000063,
                    "velocity": 1,
                    "duration": 0.13068168750000098
                },
                {
                    "name": "G#4",
                    "midi": 68,
                    "time": 95.18172300000063,
                    "velocity": 1,
                    "duration": 0.40340868750000425
                },
                {
                    "name": "A#4",
                    "midi": 70,
                    "time": 95.59081350000064,
                    "velocity": 1,
                    "duration": 0.13068168750000098
                },
                {
                    "name": "A4",
                    "midi": 69,
                    "time": 95.72717700000064,
                    "velocity": 1,
                    "duration": 0.13068168750000098
                },
                {
                    "name": "G4",
                    "midi": 67,
                    "time": 95.86354050000064,
                    "velocity": 1,
                    "duration": 0.13068168750000098
                },
                {
                    "name": "F4",
                    "midi": 65,
                    "time": 95.99990400000064,
                    "velocity": 1,
                    "duration": 0.40340868750000425
                },
                {
                    "name": "A4",
                    "midi": 69,
                    "time": 96.13626750000064,
                    "velocity": 1,
                    "duration": 0.13068168750000098
                },
                {
                    "name": "D5",
                    "midi": 74,
                    "time": 96.27263100000064,
                    "velocity": 1,
                    "duration": 0.5397721875000059
                },
                {
                    "name": "F4",
                    "midi": 65,
                    "time": 96.40899450000065,
                    "velocity": 1,
                    "duration": 0.13068168750000098
                },
                {
                    "name": "E4",
                    "midi": 64,
                    "time": 96.54535800000065,
                    "velocity": 1,
                    "duration": 0.5397721875000059
                },
                {
                    "name": "C#5",
                    "midi": 73,
                    "time": 96.81808500000065,
                    "velocity": 1,
                    "duration": 0.2670451875000026
                },
                {
                    "name": "A4",
                    "midi": 69,
                    "time": 96.81808500000065,
                    "velocity": 1,
                    "duration": 0.2670451875000026
                },
                {
                    "name": "G4",
                    "midi": 67,
                    "time": 96.81808500000065,
                    "velocity": 1,
                    "duration": 0.2670451875000026
                },
                {
                    "name": "D5",
                    "midi": 74,
                    "time": 97.09081200000065,
                    "velocity": 1,
                    "duration": 0.3636359999999996
                },
                {
                    "name": "A4",
                    "midi": 69,
                    "time": 97.09081200000065,
                    "velocity": 1,
                    "duration": 0.3636359999999996
                },
                {
                    "name": "F4",
                    "midi": 65,
                    "time": 97.09081200000065,
                    "velocity": 1,
                    "duration": 0.3636359999999996
                },
                {
                    "name": "D4",
                    "midi": 62,
                    "time": 97.09081200000065,
                    "velocity": 1,
                    "duration": 0.3636359999999996
                },
                {
                    "name": "A4",
                    "midi": 69,
                    "time": 97.90899300000065,
                    "velocity": 1,
                    "duration": 0.18181800000000692
                },
                {
                    "name": "A4",
                    "midi": 69,
                    "time": 98.14194731250066,
                    "velocity": 1,
                    "duration": 0.05113631250000594
                },
                {
                    "name": "A#4",
                    "midi": 70,
                    "time": 98.18172000000067,
                    "velocity": 1,
                    "duration": 0.0852271875000099
                },
                {
                    "name": "A4",
                    "midi": 69,
                    "time": 98.24990175000067,
                    "velocity": 1,
                    "duration": 0.0852271875000099
                },
                {
                    "name": "A#4",
                    "midi": 70,
                    "time": 98.31808350000068,
                    "velocity": 1,
                    "duration": 0.0852271875000099
                },
                {
                    "name": "G#4",
                    "midi": 68,
                    "time": 98.38626525000069,
                    "velocity": 1,
                    "duration": 0.0852271875000099
                },
                {
                    "name": "A4",
                    "midi": 69,
                    "time": 98.4544470000007,
                    "velocity": 1,
                    "duration": 0.2670451875000026
                },
                {
                    "name": "A4",
                    "midi": 69,
                    "time": 98.6874013125007,
                    "velocity": 1,
                    "duration": 0.05113631250000594
                },
                {
                    "name": "A#4",
                    "midi": 70,
                    "time": 98.7271740000007,
                    "velocity": 1,
                    "duration": 0.0852271875000099
                },
                {
                    "name": "A4",
                    "midi": 69,
                    "time": 98.79535575000071,
                    "velocity": 1,
                    "duration": 0.0852271875000099
                },
                {
                    "name": "A#4",
                    "midi": 70,
                    "time": 98.86353750000072,
                    "velocity": 1,
                    "duration": 0.0852271875000099
                },
                {
                    "name": "G#4",
                    "midi": 68,
                    "time": 98.93171925000073,
                    "velocity": 1,
                    "duration": 0.0852271875000099
                },
                {
                    "name": "A4",
                    "midi": 69,
                    "time": 98.99990100000073,
                    "velocity": 1,
                    "duration": 0.40340868750000425
                },
                {
                    "name": "B4",
                    "midi": 71,
                    "time": 99.40899150000074,
                    "velocity": 1,
                    "duration": 0.13068168750000098
                },
                {
                    "name": "C#5",
                    "midi": 73,
                    "time": 99.54535500000074,
                    "velocity": 1,
                    "duration": 0.13068168750000098
                },
                {
                    "name": "D5",
                    "midi": 74,
                    "time": 99.68171850000074,
                    "velocity": 1,
                    "duration": 0.13068168750000098
                },
                {
                    "name": "E5",
                    "midi": 76,
                    "time": 99.81808200000074,
                    "velocity": 1,
                    "duration": 0.18181800000000692
                },
                {
                    "name": "A4",
                    "midi": 69,
                    "time": 100.09080900000075,
                    "velocity": 1,
                    "duration": 0.18181800000000692
                },
                {
                    "name": "A4",
                    "midi": 69,
                    "time": 100.32376331250076,
                    "velocity": 1,
                    "duration": 0.05113631250000594
                },
                {
                    "name": "A#4",
                    "midi": 70,
                    "time": 100.36353600000076,
                    "velocity": 1,
                    "duration": 0.0852271875000099
                },
                {
                    "name": "A4",
                    "midi": 69,
                    "time": 100.43171775000077,
                    "velocity": 1,
                    "duration": 0.0852271875000099
                },
                {
                    "name": "A#4",
                    "midi": 70,
                    "time": 100.49989950000078,
                    "velocity": 1,
                    "duration": 0.0852271875000099
                },
                {
                    "name": "G#4",
                    "midi": 68,
                    "time": 100.56808125000079,
                    "velocity": 1,
                    "duration": 0.0852271875000099
                },
                {
                    "name": "A4",
                    "midi": 69,
                    "time": 100.6362630000008,
                    "velocity": 1,
                    "duration": 0.18181800000000692
                },
                {
                    "name": "A4",
                    "midi": 69,
                    "time": 100.86921731250081,
                    "velocity": 1,
                    "duration": 0.05113631250000594
                },
                {
                    "name": "A#4",
                    "midi": 70,
                    "time": 100.90899000000081,
                    "velocity": 1,
                    "duration": 0.0852271875000099
                },
                {
                    "name": "A4",
                    "midi": 69,
                    "time": 100.97717175000082,
                    "velocity": 1,
                    "duration": 0.0852271875000099
                },
                {
                    "name": "A#4",
                    "midi": 70,
                    "time": 101.04535350000083,
                    "velocity": 1,
                    "duration": 0.0852271875000099
                },
                {
                    "name": "G#4",
                    "midi": 68,
                    "time": 101.11353525000084,
                    "velocity": 1,
                    "duration": 0.0852271875000099
                },
                {
                    "name": "A4",
                    "midi": 69,
                    "time": 101.18171700000084,
                    "velocity": 1,
                    "duration": 0.40340868750000425
                },
                {
                    "name": "C#5",
                    "midi": 73,
                    "time": 101.59080750000085,
                    "velocity": 1,
                    "duration": 0.13068168750000098
                },
                {
                    "name": "D5",
                    "midi": 74,
                    "time": 101.72717100000085,
                    "velocity": 1,
                    "duration": 0.13068168750000098
                },
                {
                    "name": "E5",
                    "midi": 76,
                    "time": 101.86353450000085,
                    "velocity": 1,
                    "duration": 0.13068168750000098
                },
                {
                    "name": "F5",
                    "midi": 77,
                    "time": 101.99989800000085,
                    "velocity": 1,
                    "duration": 0.18181800000000692
                },
                {
                    "name": "A4",
                    "midi": 69,
                    "time": 102.27262500000086,
                    "velocity": 1,
                    "duration": 0.18181800000000692
                },
                {
                    "name": "A4",
                    "midi": 69,
                    "time": 102.50557931250087,
                    "velocity": 1,
                    "duration": 0.05113631250000594
                },
                {
                    "name": "A#4",
                    "midi": 70,
                    "time": 102.54535200000088,
                    "velocity": 1,
                    "duration": 0.0852271875000099
                },
                {
                    "name": "A4",
                    "midi": 69,
                    "time": 102.61353375000088,
                    "velocity": 1,
                    "duration": 0.0852271875000099
                },
                {
                    "name": "A#4",
                    "midi": 70,
                    "time": 102.68171550000089,
                    "velocity": 1,
                    "duration": 0.0852271875000099
                },
                {
                    "name": "G#4",
                    "midi": 68,
                    "time": 102.7498972500009,
                    "velocity": 1,
                    "duration": 0.0852271875000099
                },
                {
                    "name": "A4",
                    "midi": 69,
                    "time": 102.8180790000009,
                    "velocity": 1,
                    "duration": 0.18181800000000692
                },
                {
                    "name": "A4",
                    "midi": 69,
                    "time": 103.05103331250092,
                    "velocity": 1,
                    "duration": 0.05113631250000594
                },
                {
                    "name": "A#4",
                    "midi": 70,
                    "time": 103.09080600000092,
                    "velocity": 1,
                    "duration": 0.0852271875000099
                },
                {
                    "name": "A4",
                    "midi": 69,
                    "time": 103.15898775000093,
                    "velocity": 1,
                    "duration": 0.0852271875000099
                },
                {
                    "name": "A#4",
                    "midi": 70,
                    "time": 103.22716950000094,
                    "velocity": 1,
                    "duration": 0.0852271875000099
                },
                {
                    "name": "G#4",
                    "midi": 68,
                    "time": 103.29535125000095,
                    "velocity": 1,
                    "duration": 0.0852271875000099
                },
                {
                    "name": "A4",
                    "midi": 69,
                    "time": 103.36353300000096,
                    "velocity": 1,
                    "duration": 0.40340868750000425
                },
                {
                    "name": "C#5",
                    "midi": 73,
                    "time": 103.77262350000096,
                    "velocity": 1,
                    "duration": 0.13068168750000098
                },
                {
                    "name": "E5",
                    "midi": 76,
                    "time": 103.90898700000096,
                    "velocity": 1,
                    "duration": 0.13068168750000098
                },
                {
                    "name": "F5",
                    "midi": 77,
                    "time": 104.04535050000096,
                    "velocity": 1,
                    "duration": 0.13068168750000098
                },
                {
                    "name": "G5",
                    "midi": 79,
                    "time": 104.18171400000097,
                    "velocity": 1,
                    "duration": 0.2670451875000026
                },
                {
                    "name": "A4",
                    "midi": 69,
                    "time": 104.45444100000097,
                    "velocity": 1,
                    "duration": 0.40340868750000425
                },
                {
                    "name": "G5",
                    "midi": 79,
                    "time": 104.86353150000097,
                    "velocity": 1,
                    "duration": 0.13068168750000098
                },
                {
                    "name": "F5",
                    "midi": 77,
                    "time": 104.99989500000098,
                    "velocity": 1,
                    "duration": 0.13068168750000098
                },
                {
                    "name": "E5",
                    "midi": 76,
                    "time": 105.13625850000098,
                    "velocity": 1,
                    "duration": 0.13068168749998677
                },
                {
                    "name": "D5",
                    "midi": 74,
                    "time": 105.20444025000097,
                    "velocity": 1,
                    "duration": 0.10795443749999833
                },
                {
                    "name": "A#5",
                    "midi": 82,
                    "time": 105.27262200000096,
                    "velocity": 1,
                    "duration": 0.18181800000000692
                },
                {
                    "name": "G4",
                    "midi": 67,
                    "time": 105.54534900000097,
                    "velocity": 1,
                    "duration": 0.40340868750000425
                },
                {
                    "name": "F5",
                    "midi": 77,
                    "time": 105.95443950000097,
                    "velocity": 1,
                    "duration": 0.13068168750000098
                },
                {
                    "name": "E5",
                    "midi": 76,
                    "time": 106.09080300000097,
                    "velocity": 1,
                    "duration": 0.13068168750000098
                },
                {
                    "name": "D5",
                    "midi": 74,
                    "time": 106.22716650000098,
                    "velocity": 1,
                    "duration": 0.13068168749998677
                },
                {
                    "name": "C5",
                    "midi": 72,
                    "time": 106.29534825000097,
                    "velocity": 1,
                    "duration": 0.113636249999999
                },
                {
                    "name": "A5",
                    "midi": 81,
                    "time": 106.36353000000096,
                    "velocity": 1,
                    "duration": 0.18181800000000692
                },
                {
                    "name": "F4",
                    "midi": 65,
                    "time": 106.63625700000097,
                    "velocity": 1,
                    "duration": 0.40340868750000425
                },
                {
                    "name": "D#5",
                    "midi": 75,
                    "time": 107.04534750000097,
                    "velocity": 1,
                    "duration": 0.13068168750000098
                },
                {
                    "name": "D5",
                    "midi": 74,
                    "time": 107.18171100000097,
                    "velocity": 1,
                    "duration": 0.13068168750000098
                },
                {
                    "name": "C5",
                    "midi": 72,
                    "time": 107.31807450000098,
                    "velocity": 1,
                    "duration": 0.13068168749998677
                },
                {
                    "name": "A#4",
                    "midi": 70,
                    "time": 107.38625625000097,
                    "velocity": 1,
                    "duration": 0.113636249999999
                },
                {
                    "name": "G5",
                    "midi": 79,
                    "time": 107.45443800000096,
                    "velocity": 1,
                    "duration": 0.09090900000001056
                },
                {
                    "name": "D5",
                    "midi": 74,
                    "time": 107.59080150000098,
                    "velocity": 1,
                    "duration": 0.13068168750000098
                },
                {
                    "name": "C5",
                    "midi": 72,
                    "time": 107.72716500000098,
                    "velocity": 1,
                    "duration": 0.13068168750000098
                },
                {
                    "name": "A#4",
                    "midi": 70,
                    "time": 107.86352850000098,
                    "velocity": 1,
                    "duration": 0.13068168749998677
                },
                {
                    "name": "A4",
                    "midi": 69,
                    "time": 107.93171025000098,
                    "velocity": 1,
                    "duration": 0.113636249999999
                },
                {
                    "name": "F5",
                    "midi": 77,
                    "time": 107.99989200000097,
                    "velocity": 1,
                    "duration": 0.13068168750000098
                },
                {
                    "name": "C5",
                    "midi": 72,
                    "time": 108.13625550000097,
                    "velocity": 1,
                    "duration": 0.13068168750000098
                },
                {
                    "name": "A#4",
                    "midi": 70,
                    "time": 108.27261900000097,
                    "velocity": 1,
                    "duration": 0.13068168750000098
                },
                {
                    "name": "A4",
                    "midi": 69,
                    "time": 108.40898250000097,
                    "velocity": 1,
                    "duration": 0.13068168749998677
                },
                {
                    "name": "G4",
                    "midi": 67,
                    "time": 108.47716425000097,
                    "velocity": 1,
                    "duration": 0.113636249999999
                },
                {
                    "name": "D#5",
                    "midi": 75,
                    "time": 108.54534600000096,
                    "velocity": 1,
                    "duration": 0.13068168750000098
                },
                {
                    "name": "A#4",
                    "midi": 70,
                    "time": 108.68170950000096,
                    "velocity": 1,
                    "duration": 0.13068168750000098
                },
                {
                    "name": "A4",
                    "midi": 69,
                    "time": 108.81807300000096,
                    "velocity": 1,
                    "duration": 0.13068168750000098
                },
                {
                    "name": "G4",
                    "midi": 67,
                    "time": 108.95443650000097,
                    "velocity": 1,
                    "duration": 0.13068168749998677
                },
                {
                    "name": "F4",
                    "midi": 65,
                    "time": 109.02261825000096,
                    "velocity": 1,
                    "duration": 0.113636249999999
                },
                {
                    "name": "D5",
                    "midi": 74,
                    "time": 109.09080000000095,
                    "velocity": 1,
                    "duration": 0.13068168750000098
                },
                {
                    "name": "A4",
                    "midi": 69,
                    "time": 109.22716350000096,
                    "velocity": 1,
                    "duration": 0.13068168750000098
                },
                {
                    "name": "A#4",
                    "midi": 70,
                    "time": 109.36352700000096,
                    "velocity": 1,
                    "duration": 0.13068168750000098
                },
                {
                    "name": "D5",
                    "midi": 74,
                    "time": 109.49989050000096,
                    "velocity": 1,
                    "duration": 0.13068168750000098
                },
                {
                    "name": "D#4",
                    "midi": 63,
                    "time": 109.63625400000096,
                    "velocity": 1,
                    "duration": 0.13068168750000098
                },
                {
                    "name": "D5",
                    "midi": 74,
                    "time": 109.77261750000096,
                    "velocity": 1,
                    "duration": 0.13068168750000098
                },
                {
                    "name": "C5",
                    "midi": 72,
                    "time": 109.90898100000096,
                    "velocity": 1,
                    "duration": 0.13068168750000098
                },
                {
                    "name": "A#4",
                    "midi": 70,
                    "time": 110.04534450000097,
                    "velocity": 1,
                    "duration": 0.13068168750000098
                },
                {
                    "name": "A4",
                    "midi": 69,
                    "time": 110.18170800000097,
                    "velocity": 1,
                    "duration": 0.13068168750000098
                },
                {
                    "name": "G4",
                    "midi": 67,
                    "time": 110.31807150000097,
                    "velocity": 1,
                    "duration": 0.13068168750000098
                },
                {
                    "name": "A4",
                    "midi": 69,
                    "time": 110.45443500000097,
                    "velocity": 1,
                    "duration": 0.13068168750000098
                },
                {
                    "name": "C5",
                    "midi": 72,
                    "time": 110.59079850000097,
                    "velocity": 1,
                    "duration": 0.13068168750000098
                },
                {
                    "name": "F4",
                    "midi": 65,
                    "time": 110.72716200000097,
                    "velocity": 1,
                    "duration": 0.13068168750000098
                },
                {
                    "name": "D#5",
                    "midi": 75,
                    "time": 110.86352550000097,
                    "velocity": 1,
                    "duration": 0.13068168750000098
                },
                {
                    "name": "D5",
                    "midi": 74,
                    "time": 110.99988900000098,
                    "velocity": 1,
                    "duration": 0.13068168750000098
                },
                {
                    "name": "C5",
                    "midi": 72,
                    "time": 111.13625250000098,
                    "velocity": 1,
                    "duration": 0.13068168750000098
                },
                {
                    "name": "D5",
                    "midi": 74,
                    "time": 111.27261600000098,
                    "velocity": 1,
                    "duration": 0.18181800000000692
                },
                {
                    "name": "A#5",
                    "midi": 82,
                    "time": 111.54534300000098,
                    "velocity": 1,
                    "duration": 0.18181800000000692
                },
                {
                    "name": "D5",
                    "midi": 74,
                    "time": 111.81807000000099,
                    "velocity": 1,
                    "duration": 0.18181800000000692
                },
                {
                    "name": "A#4",
                    "midi": 70,
                    "time": 111.81807000000099,
                    "velocity": 1,
                    "duration": 0.18181800000000692
                },
                {
                    "name": "D#5",
                    "midi": 75,
                    "time": 112.09079700000099,
                    "velocity": 1,
                    "duration": 0.18181800000000692
                },
                {
                    "name": "C5",
                    "midi": 72,
                    "time": 112.09079700000099,
                    "velocity": 1,
                    "duration": 0.18181800000000692
                },
                {
                    "name": "F5",
                    "midi": 77,
                    "time": 112.363524000001,
                    "velocity": 1,
                    "duration": 0.5397721875000059
                },
                {
                    "name": "D5",
                    "midi": 74,
                    "time": 112.363524000001,
                    "velocity": 1,
                    "duration": 0.5397721875000059
                },
                {
                    "name": "A#4",
                    "midi": 70,
                    "time": 112.636251000001,
                    "velocity": 1,
                    "duration": 0.2670451875000026
                },
                {
                    "name": "G5",
                    "midi": 79,
                    "time": 112.908978000001,
                    "velocity": 1,
                    "duration": 0.5397721875000059
                },
                {
                    "name": "D#5",
                    "midi": 75,
                    "time": 112.908978000001,
                    "velocity": 1,
                    "duration": 0.5397721875000059
                },
                {
                    "name": "G4",
                    "midi": 67,
                    "time": 112.908978000001,
                    "velocity": 1,
                    "duration": 0.2670451875000026
                },
                {
                    "name": "D#4",
                    "midi": 63,
                    "time": 113.181705000001,
                    "velocity": 1,
                    "duration": 0.2670451875000026
                },
                {
                    "name": "F5",
                    "midi": 77,
                    "time": 113.454432000001,
                    "velocity": 1,
                    "duration": 0.2670451875000026
                },
                {
                    "name": "D5",
                    "midi": 74,
                    "time": 113.454432000001,
                    "velocity": 1,
                    "duration": 0.5397721875000059
                },
                {
                    "name": "A#4",
                    "midi": 70,
                    "time": 113.454432000001,
                    "velocity": 1,
                    "duration": 1.630680187500019
                },
                {
                    "name": "A#5",
                    "midi": 82,
                    "time": 113.72715900000101,
                    "velocity": 1,
                    "duration": 0.5397721875000059
                },
                {
                    "name": "D#5",
                    "midi": 75,
                    "time": 113.99988600000101,
                    "velocity": 1,
                    "duration": 0.5397721875000059
                },
                {
                    "name": "G#5",
                    "midi": 80,
                    "time": 114.27261300000102,
                    "velocity": 1,
                    "duration": 0.13068168750000098
                },
                {
                    "name": "G5",
                    "midi": 79,
                    "time": 114.40897650000102,
                    "velocity": 1,
                    "duration": 0.13068168750000098
                },
                {
                    "name": "G5",
                    "midi": 79,
                    "time": 114.54534000000102,
                    "velocity": 1,
                    "duration": 0.2670451875000026
                },
                {
                    "name": "D#5",
                    "midi": 75,
                    "time": 114.54534000000102,
                    "velocity": 1,
                    "duration": 0.2670451875000026
                },
                {
                    "name": "F5",
                    "midi": 77,
                    "time": 114.81806700000102,
                    "velocity": 1,
                    "duration": 0.2670451875000026
                },
                {
                    "name": "D5",
                    "midi": 74,
                    "time": 114.81806700000102,
                    "velocity": 1,
                    "duration": 0.2670451875000026
                },
                {
                    "name": "G4",
                    "midi": 67,
                    "time": 115.09079400000103,
                    "velocity": 1,
                    "duration": 1.0852261875000124
                },
                {
                    "name": "F5",
                    "midi": 77,
                    "time": 115.36352100000103,
                    "velocity": 1,
                    "duration": 0.18181800000000692
                },
                {
                    "name": "D5",
                    "midi": 74,
                    "time": 115.36352100000103,
                    "velocity": 1,
                    "duration": 0.18181800000000692
                },
                {
                    "name": "F5",
                    "midi": 77,
                    "time": 115.63624800000103,
                    "velocity": 1,
                    "duration": 0.2670451875000026
                },
                {
                    "name": "D5",
                    "midi": 74,
                    "time": 115.63624800000103,
                    "velocity": 1,
                    "duration": 0.2670451875000026
                },
                {
                    "name": "D#5",
                    "midi": 75,
                    "time": 115.90897500000104,
                    "velocity": 1,
                    "duration": 0.2670451875000026
                },
                {
                    "name": "C5",
                    "midi": 72,
                    "time": 115.90897500000104,
                    "velocity": 1,
                    "duration": 0.2670451875000026
                },
                {
                    "name": "F4",
                    "midi": 65,
                    "time": 116.18170200000104,
                    "velocity": 1,
                    "duration": 1.0852261875000124
                },
                {
                    "name": "D#5",
                    "midi": 75,
                    "time": 116.45442900000104,
                    "velocity": 1,
                    "duration": 0.18181800000000692
                },
                {
                    "name": "C5",
                    "midi": 72,
                    "time": 116.45442900000104,
                    "velocity": 1,
                    "duration": 0.18181800000000692
                },
                {
                    "name": "D#5",
                    "midi": 75,
                    "time": 116.72715600000105,
                    "velocity": 1,
                    "duration": 0.2670451875000026
                },
                {
                    "name": "C5",
                    "midi": 72,
                    "time": 116.72715600000105,
                    "velocity": 1,
                    "duration": 0.2670451875000026
                },
                {
                    "name": "D5",
                    "midi": 74,
                    "time": 116.99988300000105,
                    "velocity": 1,
                    "duration": 0.2670451875000026
                },
                {
                    "name": "A#4",
                    "midi": 70,
                    "time": 116.99988300000105,
                    "velocity": 1,
                    "duration": 0.2670451875000026
                },
                {
                    "name": "D#4",
                    "midi": 63,
                    "time": 117.27261000000105,
                    "velocity": 1,
                    "duration": 1.0852261875000124
                },
                {
                    "name": "D5",
                    "midi": 74,
                    "time": 117.54533700000106,
                    "velocity": 1,
                    "duration": 0.18181800000000692
                },
                {
                    "name": "A#4",
                    "midi": 70,
                    "time": 117.54533700000106,
                    "velocity": 1,
                    "duration": 0.18181800000000692
                },
                {
                    "name": "D5",
                    "midi": 74,
                    "time": 117.81806400000106,
                    "velocity": 1,
                    "duration": 0.2670451875000026
                },
                {
                    "name": "A#4",
                    "midi": 70,
                    "time": 117.81806400000106,
                    "velocity": 1,
                    "duration": 0.2670451875000026
                },
                {
                    "name": "C5",
                    "midi": 72,
                    "time": 118.09079100000106,
                    "velocity": 1,
                    "duration": 0.2670451875000026
                },
                {
                    "name": "A4",
                    "midi": 69,
                    "time": 118.09079100000106,
                    "velocity": 1,
                    "duration": 0.2670451875000026
                },
                {
                    "name": "D4",
                    "midi": 62,
                    "time": 118.36351800000106,
                    "velocity": 1,
                    "duration": 1.0852261875000124
                },
                {
                    "name": "C5",
                    "midi": 72,
                    "time": 118.63624500000107,
                    "velocity": 1,
                    "duration": 0.18181800000000692
                },
                {
                    "name": "A4",
                    "midi": 69,
                    "time": 118.63624500000107,
                    "velocity": 1,
                    "duration": 0.18181800000000692
                },
                {
                    "name": "C5",
                    "midi": 72,
                    "time": 118.90897200000107,
                    "velocity": 1,
                    "duration": 0.2670451875000026
                },
                {
                    "name": "A4",
                    "midi": 69,
                    "time": 118.90897200000107,
                    "velocity": 1,
                    "duration": 0.2670451875000026
                },
                {
                    "name": "A#4",
                    "midi": 70,
                    "time": 119.18169900000107,
                    "velocity": 1,
                    "duration": 0.2670451875000026
                },
                {
                    "name": "G4",
                    "midi": 67,
                    "time": 119.18169900000107,
                    "velocity": 1,
                    "duration": 0.2670451875000026
                },
                {
                    "name": "A#5",
                    "midi": 82,
                    "time": 119.45442600000108,
                    "velocity": 1,
                    "duration": 0.8124991875000092
                },
                {
                    "name": "D5",
                    "midi": 74,
                    "time": 119.59078950000108,
                    "velocity": 1,
                    "duration": 0.13068168750000098
                },
                {
                    "name": "G5",
                    "midi": 79,
                    "time": 119.72715300000108,
                    "velocity": 1,
                    "duration": 0.13068168750000098
                },
                {
                    "name": "F5",
                    "midi": 77,
                    "time": 119.86351650000108,
                    "velocity": 1,
                    "duration": 0.13068168750000098
                },
                {
                    "name": "D#5",
                    "midi": 75,
                    "time": 119.99988000000108,
                    "velocity": 1,
                    "duration": 0.5397721875000059
                },
                {
                    "name": "A5",
                    "midi": 81,
                    "time": 120.27260700000109,
                    "velocity": 1,
                    "duration": 0.13068168750000098
                },
                {
                    "name": "G5",
                    "midi": 79,
                    "time": 120.40897050000109,
                    "velocity": 1,
                    "duration": 0.13068168750000098
                },
                {
                    "name": "A5",
                    "midi": 81,
                    "time": 120.54533400000109,
                    "velocity": 1,
                    "duration": 0.13068168750000098
                },
                {
                    "name": "F#5",
                    "midi": 78,
                    "time": 120.68169750000109,
                    "velocity": 1,
                    "duration": 0.13068168750000098
                },
                {
                    "name": "G5",
                    "midi": 79,
                    "time": 120.8180610000011,
                    "velocity": 1,
                    "duration": 0.13068168750000098
                },
                {
                    "name": "A5",
                    "midi": 81,
                    "time": 120.9544245000011,
                    "velocity": 1,
                    "duration": 0.13068168750000098
                },
                {
                    "name": "C5",
                    "midi": 72,
                    "time": 121.0510153125011,
                    "velocity": 1,
                    "duration": 0.06249993750000726
                },
                {
                    "name": "D5",
                    "midi": 74,
                    "time": 121.0907880000011,
                    "velocity": 1,
                    "duration": 0.06249993750000726
                },
                {
                    "name": "D#5",
                    "midi": 75,
                    "time": 121.1532879375011,
                    "velocity": 1,
                    "duration": 0.06249993749999305
                },
                {
                    "name": "D5",
                    "midi": 74,
                    "time": 121.2157878750011,
                    "velocity": 1,
                    "duration": 0.06249993749999305
                },
                {
                    "name": "D#5",
                    "midi": 75,
                    "time": 121.27828781250109,
                    "velocity": 1,
                    "duration": 0.06249993749999305
                },
                {
                    "name": "D5",
                    "midi": 74,
                    "time": 121.34078775000108,
                    "velocity": 1,
                    "duration": 0.06249993749999305
                },
                {
                    "name": "D#5",
                    "midi": 75,
                    "time": 121.40328768750108,
                    "velocity": 1,
                    "duration": 0.06249993749999305
                },
                {
                    "name": "D5",
                    "midi": 74,
                    "time": 121.46578762500107,
                    "velocity": 1,
                    "duration": 0.06249993749999305
                },
                {
                    "name": "D#5",
                    "midi": 75,
                    "time": 121.52828756250106,
                    "velocity": 1,
                    "duration": 0.06249993749999305
                },
                {
                    "name": "D5",
                    "midi": 74,
                    "time": 121.59078750000106,
                    "velocity": 1,
                    "duration": 0.06249993749999305
                },
                {
                    "name": "D#5",
                    "midi": 75,
                    "time": 121.65328743750105,
                    "velocity": 1,
                    "duration": 0.06249993749999305
                },
                {
                    "name": "D5",
                    "midi": 74,
                    "time": 121.71578737500104,
                    "velocity": 1,
                    "duration": 0.06249993749999305
                },
                {
                    "name": "D#5",
                    "midi": 75,
                    "time": 121.77828731250104,
                    "velocity": 1,
                    "duration": 0.06249993749999305
                },
                {
                    "name": "D5",
                    "midi": 74,
                    "time": 121.84078725000103,
                    "velocity": 1,
                    "duration": 0.06249993749999305
                },
                {
                    "name": "D#5",
                    "midi": 75,
                    "time": 121.90328718750102,
                    "velocity": 1,
                    "duration": 0.06249993749999305
                },
                {
                    "name": "D5",
                    "midi": 74,
                    "time": 121.96578712500101,
                    "velocity": 1,
                    "duration": 0.06249993749999305
                },
                {
                    "name": "D#5",
                    "midi": 75,
                    "time": 122.02828706250101,
                    "velocity": 1,
                    "duration": 0.06249993749999305
                },
                {
                    "name": "D5",
                    "midi": 74,
                    "time": 122.090787000001,
                    "velocity": 1,
                    "duration": 0.06249993749999305
                },
                {
                    "name": "D#5",
                    "midi": 75,
                    "time": 122.153286937501,
                    "velocity": 1,
                    "duration": 0.06249993750000726
                },
                {
                    "name": "D5",
                    "midi": 74,
                    "time": 122.210105062501,
                    "velocity": 1,
                    "duration": 0.06249993750000726
                },
                {
                    "name": "D#5",
                    "midi": 75,
                    "time": 122.27260500000101,
                    "velocity": 1,
                    "duration": 0.06249993749999305
                },
                {
                    "name": "D5",
                    "midi": 74,
                    "time": 122.335104937501,
                    "velocity": 1,
                    "duration": 0.06249993749999305
                },
                {
                    "name": "D#5",
                    "midi": 75,
                    "time": 122.397604875001,
                    "velocity": 1,
                    "duration": 0.06249993749999305
                },
                {
                    "name": "D5",
                    "midi": 74,
                    "time": 122.46010481250099,
                    "velocity": 1,
                    "duration": 0.06249993749999305
                },
                {
                    "name": "D#5",
                    "midi": 75,
                    "time": 122.52260475000098,
                    "velocity": 1,
                    "duration": 0.06249993749999305
                },
                {
                    "name": "D5",
                    "midi": 74,
                    "time": 122.58510468750097,
                    "velocity": 1,
                    "duration": 0.06249993749999305
                },
                {
                    "name": "D#5",
                    "midi": 75,
                    "time": 122.64760462500097,
                    "velocity": 1,
                    "duration": 0.06249993749999305
                },
                {
                    "name": "D5",
                    "midi": 74,
                    "time": 122.71010456250096,
                    "velocity": 1,
                    "duration": 0.06249993750000726
                },
                {
                    "name": "D#5",
                    "midi": 75,
                    "time": 122.76692268750097,
                    "velocity": 1,
                    "duration": 0.06249993750000726
                },
                {
                    "name": "D5",
                    "midi": 74,
                    "time": 122.82942262500097,
                    "velocity": 1,
                    "duration": 0.06249993749999305
                },
                {
                    "name": "D#5",
                    "midi": 75,
                    "time": 122.89192256250097,
                    "velocity": 1,
                    "duration": 0.06249993749999305
                },
                {
                    "name": "D5",
                    "midi": 74,
                    "time": 122.95442250000096,
                    "velocity": 1,
                    "duration": 0.06249993749999305
                },
                {
                    "name": "D#5",
                    "midi": 75,
                    "time": 123.01692243750095,
                    "velocity": 1,
                    "duration": 0.06249993749999305
                },
                {
                    "name": "D5",
                    "midi": 74,
                    "time": 123.07942237500095,
                    "velocity": 1,
                    "duration": 0.06249993749999305
                },
                {
                    "name": "D#5",
                    "midi": 75,
                    "time": 123.14192231250094,
                    "velocity": 1,
                    "duration": 0.06249993749999305
                },
                {
                    "name": "D5",
                    "midi": 74,
                    "time": 123.20442225000093,
                    "velocity": 1,
                    "duration": 0.06249993749999305
                },
                {
                    "name": "D#5",
                    "midi": 75,
                    "time": 123.26692218750092,
                    "velocity": 1,
                    "duration": 0.06249993750000726
                },
                {
                    "name": "D5",
                    "midi": 74,
                    "time": 123.32374031250093,
                    "velocity": 1,
                    "duration": 0.06249993750000726
                },
                {
                    "name": "D#5",
                    "midi": 75,
                    "time": 123.38624025000094,
                    "velocity": 1,
                    "duration": 0.06249993749999305
                },
                {
                    "name": "D5",
                    "midi": 74,
                    "time": 123.44874018750093,
                    "velocity": 1,
                    "duration": 0.06249993749999305
                },
                {
                    "name": "D#5",
                    "midi": 75,
                    "time": 123.51124012500092,
                    "velocity": 1,
                    "duration": 0.06249993749999305
                },
                {
                    "name": "D5",
                    "midi": 74,
                    "time": 123.57374006250092,
                    "velocity": 1,
                    "duration": 0.06249993749999305
                },
                {
                    "name": "D#5",
                    "midi": 75,
                    "time": 123.63624000000091,
                    "velocity": 1,
                    "duration": 0.06249993749999305
                },
                {
                    "name": "D5",
                    "midi": 74,
                    "time": 123.6987399375009,
                    "velocity": 1,
                    "duration": 0.06249993749999305
                },
                {
                    "name": "D#5",
                    "midi": 75,
                    "time": 123.7612398750009,
                    "velocity": 1,
                    "duration": 0.06249993749999305
                },
                {
                    "name": "D5",
                    "midi": 74,
                    "time": 123.82373981250089,
                    "velocity": 1,
                    "duration": 0.06249993749999305
                },
                {
                    "name": "D#5",
                    "midi": 75,
                    "time": 123.88623975000088,
                    "velocity": 1,
                    "duration": 0.06249993749999305
                },
                {
                    "name": "D5",
                    "midi": 74,
                    "time": 123.94873968750088,
                    "velocity": 1,
                    "duration": 0.06249993749999305
                },
                {
                    "name": "D#5",
                    "midi": 75,
                    "time": 124.01123962500087,
                    "velocity": 1,
                    "duration": 0.06249993749999305
                },
                {
                    "name": "D5",
                    "midi": 74,
                    "time": 124.07373956250086,
                    "velocity": 1,
                    "duration": 0.0852271874999957
                },
                {
                    "name": "D#5",
                    "midi": 75,
                    "time": 124.15896675000086,
                    "velocity": 1,
                    "duration": 0.0852271874999957
                },
                {
                    "name": "D5",
                    "midi": 74,
                    "time": 124.22146668750085,
                    "velocity": 1,
                    "duration": 0.0852271875000099
                },
                {
                    "name": "D#5",
                    "midi": 75,
                    "time": 124.28396662500086,
                    "velocity": 1,
                    "duration": 0.0852271875000099
                },
                {
                    "name": "D5",
                    "midi": 74,
                    "time": 124.36351200000087,
                    "velocity": 1,
                    "duration": 0.18181800000000692
                },
                {
                    "name": "G4",
                    "midi": 67,
                    "time": 124.63623900000087,
                    "velocity": 1,
                    "duration": 0.18181800000000692
                },
                {
                    "name": "A#4",
                    "midi": 70,
                    "time": 124.90896600000087,
                    "velocity": 1,
                    "duration": 0.18181800000000692
                },
                {
                    "name": "D5",
                    "midi": 74,
                    "time": 125.18169300000088,
                    "velocity": 1,
                    "duration": 0.18181800000000692
                },
                {
                    "name": "B4",
                    "midi": 71,
                    "time": 125.38055643750089,
                    "velocity": 1,
                    "duration": 0.07386356249999437
                },
                {
                    "name": "C5",
                    "midi": 72,
                    "time": 125.45442000000088,
                    "velocity": 1,
                    "duration": 0.06249993749999305
                },
                {
                    "name": "D5",
                    "midi": 74,
                    "time": 125.51691993750087,
                    "velocity": 1,
                    "duration": 0.06249993749999305
                },
                {
                    "name": "C5",
                    "midi": 72,
                    "time": 125.57941987500087,
                    "velocity": 1,
                    "duration": 0.06249993749999305
                },
                {
                    "name": "D5",
                    "midi": 74,
                    "time": 125.64191981250086,
                    "velocity": 1,
                    "duration": 0.06249993749999305
                },
                {
                    "name": "C5",
                    "midi": 72,
                    "time": 125.70441975000085,
                    "velocity": 1,
                    "duration": 0.06249993749999305
                },
                {
                    "name": "D5",
                    "midi": 74,
                    "time": 125.76691968750085,
                    "velocity": 1,
                    "duration": 0.06249993749999305
                },
                {
                    "name": "C5",
                    "midi": 72,
                    "time": 125.82941962500084,
                    "velocity": 1,
                    "duration": 0.06249993749999305
                },
                {
                    "name": "D5",
                    "midi": 74,
                    "time": 125.89191956250083,
                    "velocity": 1,
                    "duration": 0.06249993749999305
                },
                {
                    "name": "C5",
                    "midi": 72,
                    "time": 125.95441950000082,
                    "velocity": 1,
                    "duration": 0.06249993749999305
                },
                {
                    "name": "D5",
                    "midi": 74,
                    "time": 126.01691943750082,
                    "velocity": 1,
                    "duration": 0.06249993749999305
                },
                {
                    "name": "C5",
                    "midi": 72,
                    "time": 126.07941937500081,
                    "velocity": 1,
                    "duration": 0.06249993749999305
                },
                {
                    "name": "D5",
                    "midi": 74,
                    "time": 126.1419193125008,
                    "velocity": 1,
                    "duration": 0.06249993749999305
                },
                {
                    "name": "C5",
                    "midi": 72,
                    "time": 126.2044192500008,
                    "velocity": 1,
                    "duration": 0.06249993749999305
                },
                {
                    "name": "D5",
                    "midi": 74,
                    "time": 126.26691918750079,
                    "velocity": 1,
                    "duration": 0.06249993749999305
                },
                {
                    "name": "C5",
                    "midi": 72,
                    "time": 126.32941912500078,
                    "velocity": 1,
                    "duration": 0.06249993749999305
                },
                {
                    "name": "D5",
                    "midi": 74,
                    "time": 126.39191906250078,
                    "velocity": 1,
                    "duration": 0.06249993749999305
                },
                {
                    "name": "C5",
                    "midi": 72,
                    "time": 126.45441900000077,
                    "velocity": 1,
                    "duration": 0.06249993749999305
                },
                {
                    "name": "D5",
                    "midi": 74,
                    "time": 126.51691893750076,
                    "velocity": 1,
                    "duration": 0.06249993750000726
                },
                {
                    "name": "C5",
                    "midi": 72,
                    "time": 126.57373706250077,
                    "velocity": 1,
                    "duration": 0.06249993750000726
                },
                {
                    "name": "D5",
                    "midi": 74,
                    "time": 126.63623700000078,
                    "velocity": 1,
                    "duration": 0.06249993749999305
                },
                {
                    "name": "C5",
                    "midi": 72,
                    "time": 126.69873693750077,
                    "velocity": 1,
                    "duration": 0.06249993749999305
                },
                {
                    "name": "D5",
                    "midi": 74,
                    "time": 126.76123687500076,
                    "velocity": 1,
                    "duration": 0.06249993749999305
                },
                {
                    "name": "C5",
                    "midi": 72,
                    "time": 126.82373681250075,
                    "velocity": 1,
                    "duration": 0.06249993749999305
                },
                {
                    "name": "D5",
                    "midi": 74,
                    "time": 126.88623675000075,
                    "velocity": 1,
                    "duration": 0.06249993749999305
                },
                {
                    "name": "C5",
                    "midi": 72,
                    "time": 126.94873668750074,
                    "velocity": 1,
                    "duration": 0.06249993749999305
                },
                {
                    "name": "D5",
                    "midi": 74,
                    "time": 127.01123662500073,
                    "velocity": 1,
                    "duration": 0.06249993749999305
                },
                {
                    "name": "C5",
                    "midi": 72,
                    "time": 127.07373656250073,
                    "velocity": 1,
                    "duration": 0.06249993750000726
                },
                {
                    "name": "D5",
                    "midi": 74,
                    "time": 127.13055468750073,
                    "velocity": 1,
                    "duration": 0.06249993750000726
                },
                {
                    "name": "C5",
                    "midi": 72,
                    "time": 127.19305462500074,
                    "velocity": 1,
                    "duration": 0.06249993749999305
                },
                {
                    "name": "D5",
                    "midi": 74,
                    "time": 127.25555456250073,
                    "velocity": 1,
                    "duration": 0.06249993749999305
                },
                {
                    "name": "C5",
                    "midi": 72,
                    "time": 127.31805450000073,
                    "velocity": 1,
                    "duration": 0.06249993749999305
                },
                {
                    "name": "D5",
                    "midi": 74,
                    "time": 127.38055443750072,
                    "velocity": 1,
                    "duration": 0.06249993749999305
                },
                {
                    "name": "C5",
                    "midi": 72,
                    "time": 127.44305437500071,
                    "velocity": 1,
                    "duration": 0.06249993749999305
                },
                {
                    "name": "D5",
                    "midi": 74,
                    "time": 127.5055543125007,
                    "velocity": 1,
                    "duration": 0.06249993749999305
                },
                {
                    "name": "C5",
                    "midi": 72,
                    "time": 127.5680542500007,
                    "velocity": 1,
                    "duration": 0.06249993749999305
                },
                {
                    "name": "D5",
                    "midi": 74,
                    "time": 127.63055418750069,
                    "velocity": 1,
                    "duration": 0.06249993750000726
                },
                {
                    "name": "C5",
                    "midi": 72,
                    "time": 127.6873723125007,
                    "velocity": 1,
                    "duration": 0.06249993750000726
                },
                {
                    "name": "D5",
                    "midi": 74,
                    "time": 127.7498722500007,
                    "velocity": 1,
                    "duration": 0.06249993749999305
                },
                {
                    "name": "C5",
                    "midi": 72,
                    "time": 127.8123721875007,
                    "velocity": 1,
                    "duration": 0.06249993749999305
                },
                {
                    "name": "D5",
                    "midi": 74,
                    "time": 127.87487212500069,
                    "velocity": 1,
                    "duration": 0.06249993749999305
                },
                {
                    "name": "C5",
                    "midi": 72,
                    "time": 127.93737206250069,
                    "velocity": 1,
                    "duration": 0.06249993749999305
                },
                {
                    "name": "D5",
                    "midi": 74,
                    "time": 127.99987200000068,
                    "velocity": 1,
                    "duration": 0.06249993749999305
                },
                {
                    "name": "C5",
                    "midi": 72,
                    "time": 128.06237193750067,
                    "velocity": 1,
                    "duration": 0.06249993750000726
                },
                {
                    "name": "D5",
                    "midi": 74,
                    "time": 128.12487187500068,
                    "velocity": 1,
                    "duration": 0.06249993750000726
                },
                {
                    "name": "C5",
                    "midi": 72,
                    "time": 128.1873718125007,
                    "velocity": 1,
                    "duration": 0.06249993750000726
                },
                {
                    "name": "D5",
                    "midi": 74,
                    "time": 128.2498717500007,
                    "velocity": 1,
                    "duration": 0.06249993750000726
                },
                {
                    "name": "C5",
                    "midi": 72,
                    "time": 128.3123716875007,
                    "velocity": 1,
                    "duration": 0.06249993750000726
                },
                {
                    "name": "D5",
                    "midi": 74,
                    "time": 128.3748716250007,
                    "velocity": 1,
                    "duration": 0.06249993750000726
                },
                {
                    "name": "C5",
                    "midi": 72,
                    "time": 128.43737156250072,
                    "velocity": 1,
                    "duration": 0.0852271875000099
                },
                {
                    "name": "D5",
                    "midi": 74,
                    "time": 128.52259875000072,
                    "velocity": 1,
                    "duration": 0.0852271875000099
                },
                {
                    "name": "C5",
                    "midi": 72,
                    "time": 128.58509868750073,
                    "velocity": 1,
                    "duration": 0.0852271875000099
                },
                {
                    "name": "D5",
                    "midi": 74,
                    "time": 128.64759862500074,
                    "velocity": 1,
                    "duration": 0.0852271875000099
                },
                {
                    "name": "C5",
                    "midi": 72,
                    "time": 128.72714400000075,
                    "velocity": 1,
                    "duration": 0.2670451875000026
                },
                {
                    "name": "F4",
                    "midi": 65,
                    "time": 128.99987100000075,
                    "velocity": 1,
                    "duration": 0.2670451875000026
                },
                {
                    "name": "A4",
                    "midi": 69,
                    "time": 129.27259800000076,
                    "velocity": 1,
                    "duration": 0.2670451875000026
                },
                {
                    "name": "C5",
                    "midi": 72,
                    "time": 129.54532500000076,
                    "velocity": 1,
                    "duration": 0.2670451875000026
                },
                {
                    "name": "F5",
                    "midi": 77,
                    "time": 129.81805200000076,
                    "velocity": 1,
                    "duration": 0.2670451875000026
                },
                {
                    "name": "A4",
                    "midi": 69,
                    "time": 130.09077900000077,
                    "velocity": 1,
                    "duration": 0.2670451875000026
                },
                {
                    "name": "A#4",
                    "midi": 70,
                    "time": 130.36350600000077,
                    "velocity": 1,
                    "duration": 1.0852261874999556
                },
                {
                    "name": "D4",
                    "midi": 62,
                    "time": 130.63623300000077,
                    "velocity": 1,
                    "duration": 0.2670451875000026
                },
                {
                    "name": "E4",
                    "midi": 64,
                    "time": 130.90896000000077,
                    "velocity": 1,
                    "duration": 0.13068168749998677
                },
                {
                    "name": "G4",
                    "midi": 67,
                    "time": 131.04532350000076,
                    "velocity": 1,
                    "duration": 0.13068168749998677
                },
                {
                    "name": "E4",
                    "midi": 64,
                    "time": 131.18168700000075,
                    "velocity": 1,
                    "duration": 0.13068168749998677
                },
                {
                    "name": "C4",
                    "midi": 60,
                    "time": 131.31805050000074,
                    "velocity": 1,
                    "duration": 0.13068168749998677
                },
                {
                    "name": "A4",
                    "midi": 69,
                    "time": 131.45441400000072,
                    "velocity": 1,
                    "duration": 1.221589687499943
                },
                {
                    "name": "C4",
                    "midi": 60,
                    "time": 131.72714100000073,
                    "velocity": 1,
                    "duration": 0.2670451875000026
                },
                {
                    "name": "D4",
                    "midi": 62,
                    "time": 131.99986800000073,
                    "velocity": 1,
                    "duration": 0.13068168749998677
                },
                {
                    "name": "F4",
                    "midi": 65,
                    "time": 132.13623150000072,
                    "velocity": 1,
                    "duration": 0.13068168749998677
                },
                {
                    "name": "D4",
                    "midi": 62,
                    "time": 132.2725950000007,
                    "velocity": 1,
                    "duration": 0.13068168749998677
                },
                {
                    "name": "C4",
                    "midi": 60,
                    "time": 132.4089585000007,
                    "velocity": 1,
                    "duration": 0.13068168749998677
                },
                {
                    "name": "A#3",
                    "midi": 58,
                    "time": 132.54532200000068,
                    "velocity": 1,
                    "duration": 1.2215896874998862
                },
                {
                    "name": "A4",
                    "midi": 69,
                    "time": 132.68168550000067,
                    "velocity": 1,
                    "duration": 0.13068168749998677
                },
                {
                    "name": "G4",
                    "midi": 67,
                    "time": 132.81804900000066,
                    "velocity": 1,
                    "duration": 0.13068168749998677
                },
                {
                    "name": "F4",
                    "midi": 65,
                    "time": 132.95441250000064,
                    "velocity": 1,
                    "duration": 0.13068168749998677
                },
                {
                    "name": "E4",
                    "midi": 64,
                    "time": 133.09077600000063,
                    "velocity": 1,
                    "duration": 0.13068168749998677
                },
                {
                    "name": "G4",
                    "midi": 67,
                    "time": 133.22713950000062,
                    "velocity": 1,
                    "duration": 0.13068168749998677
                },
                {
                    "name": "E4",
                    "midi": 64,
                    "time": 133.3635030000006,
                    "velocity": 1,
                    "duration": 0.13068168749998677
                },
                {
                    "name": "D4",
                    "midi": 62,
                    "time": 133.4998665000006,
                    "velocity": 1,
                    "duration": 0.13068168749998677
                },
                {
                    "name": "C4",
                    "midi": 60,
                    "time": 133.63623000000058,
                    "velocity": 1,
                    "duration": 0.539772187499949
                },
                {
                    "name": "A#3",
                    "midi": 58,
                    "time": 133.77259350000057,
                    "velocity": 1,
                    "duration": 0.13068168749998677
                },
                {
                    "name": "A3",
                    "midi": 57,
                    "time": 133.90895700000056,
                    "velocity": 1,
                    "duration": 0.13068168749998677
                },
                {
                    "name": "G3",
                    "midi": 55,
                    "time": 134.04532050000054,
                    "velocity": 1,
                    "duration": 0.13068168749998677
                },
                {
                    "name": "A3",
                    "midi": 57,
                    "time": 134.18168400000053,
                    "velocity": 1,
                    "duration": 0.13068168749998677
                },
                {
                    "name": "C4",
                    "midi": 60,
                    "time": 134.31804750000052,
                    "velocity": 1,
                    "duration": 0.13068168749998677
                },
                {
                    "name": "F4",
                    "midi": 65,
                    "time": 134.4544110000005,
                    "velocity": 1,
                    "duration": 0.13068168749998677
                },
                {
                    "name": "E4",
                    "midi": 64,
                    "time": 134.5907745000005,
                    "velocity": 1,
                    "duration": 0.13068168749998677
                },
                {
                    "name": "D4",
                    "midi": 62,
                    "time": 134.72713800000048,
                    "velocity": 1,
                    "duration": 0.13068168749998677
                },
                {
                    "name": "C4",
                    "midi": 60,
                    "time": 134.86350150000047,
                    "velocity": 1,
                    "duration": 0.13068168749998677
                },
                {
                    "name": "A#3",
                    "midi": 58,
                    "time": 134.99986500000045,
                    "velocity": 1,
                    "duration": 0.13068168749998677
                },
                {
                    "name": "A3",
                    "midi": 57,
                    "time": 135.13622850000044,
                    "velocity": 1,
                    "duration": 0.13068168749998677
                },
                {
                    "name": "A#3",
                    "midi": 58,
                    "time": 135.27259200000043,
                    "velocity": 1,
                    "duration": 0.13068168749998677
                },
                {
                    "name": "E4",
                    "midi": 64,
                    "time": 135.40895550000042,
                    "velocity": 1,
                    "duration": 0.13068168749998677
                },
                {
                    "name": "G4",
                    "midi": 67,
                    "time": 135.5453190000004,
                    "velocity": 1,
                    "duration": 0.13068168749998677
                },
                {
                    "name": "F4",
                    "midi": 65,
                    "time": 135.6816825000004,
                    "velocity": 1,
                    "duration": 0.13068168749998677
                },
                {
                    "name": "E4",
                    "midi": 64,
                    "time": 135.81804600000038,
                    "velocity": 1,
                    "duration": 0.13068168749998677
                },
                {
                    "name": "D4",
                    "midi": 62,
                    "time": 135.95440950000037,
                    "velocity": 1,
                    "duration": 0.13068168749998677
                },
                {
                    "name": "C4",
                    "midi": 60,
                    "time": 136.09077300000035,
                    "velocity": 1,
                    "duration": 0.13068168749998677
                },
                {
                    "name": "A#3",
                    "midi": 58,
                    "time": 136.22713650000034,
                    "velocity": 1,
                    "duration": 0.13068168749998677
                },
                {
                    "name": "C4",
                    "midi": 60,
                    "time": 136.36350000000033,
                    "velocity": 1,
                    "duration": 0.13068168749998677
                },
                {
                    "name": "F4",
                    "midi": 65,
                    "time": 136.49986350000032,
                    "velocity": 1,
                    "duration": 0.13068168749998677
                },
                {
                    "name": "A4",
                    "midi": 69,
                    "time": 136.6362270000003,
                    "velocity": 1,
                    "duration": 0.13068168749998677
                },
                {
                    "name": "G4",
                    "midi": 67,
                    "time": 136.7725905000003,
                    "velocity": 1,
                    "duration": 0.13068168749998677
                },
                {
                    "name": "F4",
                    "midi": 65,
                    "time": 136.90895400000028,
                    "velocity": 1,
                    "duration": 0.13068168749998677
                },
                {
                    "name": "E4",
                    "midi": 64,
                    "time": 137.04531750000027,
                    "velocity": 1,
                    "duration": 0.13068168749998677
                },
                {
                    "name": "D4",
                    "midi": 62,
                    "time": 137.18168100000025,
                    "velocity": 1,
                    "duration": 0.13068168749998677
                },
                {
                    "name": "C4",
                    "midi": 60,
                    "time": 137.31804450000024,
                    "velocity": 1,
                    "duration": 0.13068168749998677
                },
                {
                    "name": "D4",
                    "midi": 62,
                    "time": 137.45440800000023,
                    "velocity": 1,
                    "duration": 0.13068168749998677
                },
                {
                    "name": "F4",
                    "midi": 65,
                    "time": 137.59077150000022,
                    "velocity": 1,
                    "duration": 0.13068168749998677
                },
                {
                    "name": "A#4",
                    "midi": 70,
                    "time": 137.7271350000002,
                    "velocity": 1,
                    "duration": 0.13068168749998677
                },
                {
                    "name": "A4",
                    "midi": 69,
                    "time": 137.8634985000002,
                    "velocity": 1,
                    "duration": 0.13068168749998677
                },
                {
                    "name": "G4",
                    "midi": 67,
                    "time": 137.99986200000018,
                    "velocity": 1,
                    "duration": 0.13068168749998677
                },
                {
                    "name": "F4",
                    "midi": 65,
                    "time": 138.13622550000017,
                    "velocity": 1,
                    "duration": 0.13068168749998677
                },
                {
                    "name": "E4",
                    "midi": 64,
                    "time": 138.27258900000015,
                    "velocity": 1,
                    "duration": 0.13068168749998677
                },
                {
                    "name": "D4",
                    "midi": 62,
                    "time": 138.40895250000014,
                    "velocity": 1,
                    "duration": 0.13068168749998677
                },
                {
                    "name": "E4",
                    "midi": 64,
                    "time": 138.54531600000013,
                    "velocity": 1,
                    "duration": 0.13068168749998677
                },
                {
                    "name": "C4",
                    "midi": 60,
                    "time": 138.68167950000012,
                    "velocity": 1,
                    "duration": 0.13068168749998677
                },
                {
                    "name": "E4",
                    "midi": 64,
                    "time": 138.8180430000001,
                    "velocity": 1,
                    "duration": 0.13068168749998677
                },
                {
                    "name": "G4",
                    "midi": 67,
                    "time": 138.9544065000001,
                    "velocity": 1,
                    "duration": 0.13068168749998677
                },
                {
                    "name": "A#4",
                    "midi": 70,
                    "time": 139.09077000000008,
                    "velocity": 1,
                    "duration": 0.13068168749998677
                },
                {
                    "name": "C5",
                    "midi": 72,
                    "time": 139.22713350000006,
                    "velocity": 1,
                    "duration": 0.13068168749998677
                },
                {
                    "name": "E5",
                    "midi": 76,
                    "time": 139.36349700000005,
                    "velocity": 1,
                    "duration": 0.13068168749998677
                },
                {
                    "name": "G5",
                    "midi": 79,
                    "time": 139.49986050000004,
                    "velocity": 1,
                    "duration": 0.13068168749998677
                },
                {
                    "name": "A5",
                    "midi": 81,
                    "time": 139.63622400000003,
                    "velocity": 1,
                    "duration": 0.1818179999999927
                },
                {
                    "name": "F5",
                    "midi": 77,
                    "time": 150.81803100000002,
                    "velocity": 1,
                    "duration": 0.2670451875000026
                },
                {
                    "name": "A4",
                    "midi": 69,
                    "time": 151.09075800000002,
                    "velocity": 1,
                    "duration": 0.2670451875000026
                },
                {
                    "name": "F4",
                    "midi": 65,
                    "time": 151.09075800000002,
                    "velocity": 1,
                    "duration": 0.2670451875000026
                },
                {
                    "name": "A#4",
                    "midi": 70,
                    "time": 151.36348500000003,
                    "velocity": 1,
                    "duration": 0.2670451875000026
                },
                {
                    "name": "G4",
                    "midi": 67,
                    "time": 151.36348500000003,
                    "velocity": 1,
                    "duration": 0.2670451875000026
                },
                {
                    "name": "C5",
                    "midi": 72,
                    "time": 151.63621200000003,
                    "velocity": 1,
                    "duration": 0.5397721875000059
                },
                {
                    "name": "A4",
                    "midi": 69,
                    "time": 151.63621200000003,
                    "velocity": 1,
                    "duration": 0.5397721875000059
                },
                {
                    "name": "A#4",
                    "midi": 70,
                    "time": 152.18166600000004,
                    "velocity": 1,
                    "duration": 0.8124991875000092
                },
                {
                    "name": "D5",
                    "midi": 74,
                    "time": 152.18166600000004,
                    "velocity": 1,
                    "duration": 0.8124991875000092
                },
                {
                    "name": "C5",
                    "midi": 72,
                    "time": 152.99984700000005,
                    "velocity": 1,
                    "duration": 0.13068168749998677
                },
                {
                    "name": "A4",
                    "midi": 69,
                    "time": 152.99984700000005,
                    "velocity": 1,
                    "duration": 0.8124991874999523
                },
                {
                    "name": "D5",
                    "midi": 74,
                    "time": 153.13621050000003,
                    "velocity": 1,
                    "duration": 0.13068168749998677
                },
                {
                    "name": "D#5",
                    "midi": 75,
                    "time": 153.27257400000002,
                    "velocity": 1,
                    "duration": 0.2670451875000026
                },
                {
                    "name": "D5",
                    "midi": 74,
                    "time": 153.54530100000002,
                    "velocity": 1,
                    "duration": 0.13068168749998677
                },
                {
                    "name": "C5",
                    "midi": 72,
                    "time": 153.6816645,
                    "velocity": 1,
                    "duration": 0.13068168749998677
                },
                {
                    "name": "D5",
                    "midi": 74,
                    "time": 153.818028,
                    "velocity": 1,
                    "duration": 0.5397721875000059
                },
                {
                    "name": "A#4",
                    "midi": 70,
                    "time": 153.818028,
                    "velocity": 1,
                    "duration": 0.5397721875000059
                },
                {
                    "name": "D4",
                    "midi": 62,
                    "time": 154.4998455,
                    "velocity": 1,
                    "duration": 0.13068168749998677
                },
                {
                    "name": "F4",
                    "midi": 65,
                    "time": 154.63620899999998,
                    "velocity": 1,
                    "duration": 0.13068168749998677
                },
                {
                    "name": "A4",
                    "midi": 69,
                    "time": 154.77257249999997,
                    "velocity": 1,
                    "duration": 0.13068168749998677
                },
                {
                    "name": "G4",
                    "midi": 67,
                    "time": 154.90893599999995,
                    "velocity": 1,
                    "duration": 0.09090900000001056
                },
                {
                    "name": "G4",
                    "midi": 67,
                    "time": 155.04529949999997,
                    "velocity": 1,
                    "duration": 0.13068168749998677
                },
                {
                    "name": "F4",
                    "midi": 65,
                    "time": 155.18166299999996,
                    "velocity": 1,
                    "duration": 0.13068168749998677
                },
                {
                    "name": "G5",
                    "midi": 79,
                    "time": 155.18166299999996,
                    "velocity": 1,
                    "duration": 0.2670451874999742
                },
                {
                    "name": "E4",
                    "midi": 64,
                    "time": 155.31802649999995,
                    "velocity": 1,
                    "duration": 0.13068168749998677
                },
                {
                    "name": "B4",
                    "midi": 71,
                    "time": 155.45438999999993,
                    "velocity": 1,
                    "duration": 0.2670451875000026
                },
                {
                    "name": "G4",
                    "midi": 67,
                    "time": 155.45438999999993,
                    "velocity": 1,
                    "duration": 0.2670451875000026
                },
                {
                    "name": "C5",
                    "midi": 72,
                    "time": 155.72711699999994,
                    "velocity": 1,
                    "duration": 0.2670451875000026
                },
                {
                    "name": "A4",
                    "midi": 69,
                    "time": 155.72711699999994,
                    "velocity": 1,
                    "duration": 0.2670451875000026
                },
                {
                    "name": "D5",
                    "midi": 74,
                    "time": 155.99984399999994,
                    "velocity": 1,
                    "duration": 0.5397721875000059
                },
                {
                    "name": "B4",
                    "midi": 71,
                    "time": 155.99984399999994,
                    "velocity": 1,
                    "duration": 0.5397721875000059
                },
                {
                    "name": "E5",
                    "midi": 76,
                    "time": 156.54529799999995,
                    "velocity": 1,
                    "duration": 0.8124991875000092
                },
                {
                    "name": "C5",
                    "midi": 72,
                    "time": 156.54529799999995,
                    "velocity": 1,
                    "duration": 0.8124991875000092
                },
                {
                    "name": "D5",
                    "midi": 74,
                    "time": 157.36347899999996,
                    "velocity": 1,
                    "duration": 0.13068168749998677
                },
                {
                    "name": "B4",
                    "midi": 71,
                    "time": 157.36347899999996,
                    "velocity": 1,
                    "duration": 0.8124991874999523
                },
                {
                    "name": "E5",
                    "midi": 76,
                    "time": 157.49984249999994,
                    "velocity": 1,
                    "duration": 0.13068168749998677
                },
                {
                    "name": "F5",
                    "midi": 77,
                    "time": 157.63620599999993,
                    "velocity": 1,
                    "duration": 0.2670451875000026
                },
                {
                    "name": "E5",
                    "midi": 76,
                    "time": 157.90893299999993,
                    "velocity": 1,
                    "duration": 0.13068168749998677
                },
                {
                    "name": "D5",
                    "midi": 74,
                    "time": 158.04529649999992,
                    "velocity": 1,
                    "duration": 0.13068168749998677
                },
                {
                    "name": "E5",
                    "midi": 76,
                    "time": 158.1816599999999,
                    "velocity": 1,
                    "duration": 0.5397721875000059
                },
                {
                    "name": "C5",
                    "midi": 72,
                    "time": 158.1816599999999,
                    "velocity": 1,
                    "duration": 0.5397721875000059
                },
                {
                    "name": "C5",
                    "midi": 72,
                    "time": 158.99984099999992,
                    "velocity": 1,
                    "duration": 0.1818179999999927
                },
                {
                    "name": "C5",
                    "midi": 72,
                    "time": 159.27256799999992,
                    "velocity": 1,
                    "duration": 0.0852271875000099
                },
                {
                    "name": "D5",
                    "midi": 74,
                    "time": 159.34074974999993,
                    "velocity": 1,
                    "duration": 0.0852271875000099
                },
                {
                    "name": "C5",
                    "midi": 72,
                    "time": 159.40893149999994,
                    "velocity": 1,
                    "duration": 0.0852271875000099
                },
                {
                    "name": "B4",
                    "midi": 71,
                    "time": 159.47711324999995,
                    "velocity": 1,
                    "duration": 0.0852271875000099
                },
                {
                    "name": "C5",
                    "midi": 72,
                    "time": 159.54529499999995,
                    "velocity": 1,
                    "duration": 0.1818179999999927
                },
                {
                    "name": "C5",
                    "midi": 72,
                    "time": 159.81802199999996,
                    "velocity": 1,
                    "duration": 0.0852271875000099
                },
                {
                    "name": "D5",
                    "midi": 74,
                    "time": 159.88620374999996,
                    "velocity": 1,
                    "duration": 0.0852271875000099
                },
                {
                    "name": "C5",
                    "midi": 72,
                    "time": 159.95438549999997,
                    "velocity": 1,
                    "duration": 0.0852271875000099
                },
                {
                    "name": "B4",
                    "midi": 71,
                    "time": 160.02256724999998,
                    "velocity": 1,
                    "duration": 0.0852271875000099
                },
                {
                    "name": "C5",
                    "midi": 72,
                    "time": 160.090749,
                    "velocity": 1,
                    "duration": 0.36363600000001384
                },
                {
                    "name": "D5",
                    "midi": 74,
                    "time": 160.4998395,
                    "velocity": 1,
                    "duration": 0.13068168749998677
                },
                {
                    "name": "E5",
                    "midi": 76,
                    "time": 160.636203,
                    "velocity": 1,
                    "duration": 0.13068168749998677
                },
                {
                    "name": "F5",
                    "midi": 77,
                    "time": 160.77256649999998,
                    "velocity": 1,
                    "duration": 0.13068168749998677
                },
                {
                    "name": "G5",
                    "midi": 79,
                    "time": 160.90892999999997,
                    "velocity": 1,
                    "duration": 0.1818179999999927
                },
                {
                    "name": "C5",
                    "midi": 72,
                    "time": 161.18165699999997,
                    "velocity": 1,
                    "duration": 0.1818179999999927
                },
                {
                    "name": "C5",
                    "midi": 72,
                    "time": 161.45438399999998,
                    "velocity": 1,
                    "duration": 0.0852271875000099
                },
                {
                    "name": "D5",
                    "midi": 74,
                    "time": 161.52256574999998,
                    "velocity": 1,
                    "duration": 0.0852271875000099
                },
                {
                    "name": "C5",
                    "midi": 72,
                    "time": 161.5907475,
                    "velocity": 1,
                    "duration": 0.0852271875000099
                },
                {
                    "name": "B4",
                    "midi": 71,
                    "time": 161.65892925,
                    "velocity": 1,
                    "duration": 0.0852271875000099
                },
                {
                    "name": "C5",
                    "midi": 72,
                    "time": 161.727111,
                    "velocity": 1,
                    "duration": 0.1818179999999927
                },
                {
                    "name": "C5",
                    "midi": 72,
                    "time": 161.999838,
                    "velocity": 1,
                    "duration": 0.0852271875000099
                },
                {
                    "name": "D5",
                    "midi": 74,
                    "time": 162.06801975000002,
                    "velocity": 1,
                    "duration": 0.0852271875000099
                },
                {
                    "name": "C5",
                    "midi": 72,
                    "time": 162.13620150000003,
                    "velocity": 1,
                    "duration": 0.0852271875000099
                },
                {
                    "name": "B4",
                    "midi": 71,
                    "time": 162.20438325000003,
                    "velocity": 1,
                    "duration": 0.0852271875000099
                },
                {
                    "name": "C5",
                    "midi": 72,
                    "time": 162.27256500000004,
                    "velocity": 1,
                    "duration": 0.36363600000001384
                },
                {
                    "name": "E5",
                    "midi": 76,
                    "time": 162.68165550000006,
                    "velocity": 1,
                    "duration": 0.13068168749998677
                },
                {
                    "name": "F5",
                    "midi": 77,
                    "time": 162.81801900000005,
                    "velocity": 1,
                    "duration": 0.13068168749998677
                },
                {
                    "name": "G5",
                    "midi": 79,
                    "time": 162.95438250000004,
                    "velocity": 1,
                    "duration": 0.13068168749998677
                },
                {
                    "name": "A5",
                    "midi": 81,
                    "time": 163.09074600000002,
                    "velocity": 1,
                    "duration": 0.1818179999999927
                },
                {
                    "name": "C5",
                    "midi": 72,
                    "time": 163.36347300000003,
                    "velocity": 1,
                    "duration": 0.1818179999999927
                },
                {
                    "name": "C5",
                    "midi": 72,
                    "time": 163.63620000000003,
                    "velocity": 1,
                    "duration": 0.0852271875000099
                },
                {
                    "name": "D5",
                    "midi": 74,
                    "time": 163.70438175000004,
                    "velocity": 1,
                    "duration": 0.0852271875000099
                },
                {
                    "name": "C5",
                    "midi": 72,
                    "time": 163.77256350000005,
                    "velocity": 1,
                    "duration": 0.0852271875000099
                },
                {
                    "name": "B4",
                    "midi": 71,
                    "time": 163.84074525000005,
                    "velocity": 1,
                    "duration": 0.0852271875000099
                },
                {
                    "name": "C5",
                    "midi": 72,
                    "time": 163.90892700000006,
                    "velocity": 1,
                    "duration": 0.1818179999999927
                },
                {
                    "name": "C5",
                    "midi": 72,
                    "time": 164.18165400000007,
                    "velocity": 1,
                    "duration": 0.0852271875000099
                },
                {
                    "name": "D5",
                    "midi": 74,
                    "time": 164.24983575000007,
                    "velocity": 1,
                    "duration": 0.0852271875000099
                },
                {
                    "name": "C5",
                    "midi": 72,
                    "time": 164.31801750000008,
                    "velocity": 1,
                    "duration": 0.0852271875000099
                },
                {
                    "name": "B4",
                    "midi": 71,
                    "time": 164.3861992500001,
                    "velocity": 1,
                    "duration": 0.0852271875000099
                },
                {
                    "name": "C5",
                    "midi": 72,
                    "time": 164.4543810000001,
                    "velocity": 1,
                    "duration": 0.36363600000001384
                },
                {
                    "name": "E5",
                    "midi": 76,
                    "time": 164.86347150000012,
                    "velocity": 1,
                    "duration": 0.13068168749998677
                },
                {
                    "name": "G5",
                    "midi": 79,
                    "time": 164.9998350000001,
                    "velocity": 1,
                    "duration": 0.13068168749998677
                },
                {
                    "name": "A5",
                    "midi": 81,
                    "time": 165.1361985000001,
                    "velocity": 1,
                    "duration": 0.13068168749998677
                },
                {
                    "name": "A#5",
                    "midi": 82,
                    "time": 165.27256200000008,
                    "velocity": 1,
                    "duration": 0.2670451875000026
                },
                {
                    "name": "C5",
                    "midi": 72,
                    "time": 165.54528900000008,
                    "velocity": 1,
                    "duration": 0.40340868749999004
                },
                {
                    "name": "A#5",
                    "midi": 82,
                    "time": 165.95437950000007,
                    "velocity": 1,
                    "duration": 0.13068168749998677
                },
                {
                    "name": "A5",
                    "midi": 81,
                    "time": 166.09074300000006,
                    "velocity": 1,
                    "duration": 0.13068168749998677
                },
                {
                    "name": "G5",
                    "midi": 79,
                    "time": 166.22710650000005,
                    "velocity": 1,
                    "duration": 0.1306816875000152
                },
                {
                    "name": "F5",
                    "midi": 77,
                    "time": 166.29528825000006,
                    "velocity": 1,
                    "duration": 0.1306816875000152
                },
                {
                    "name": "C6",
                    "midi": 84,
                    "time": 166.36347000000006,
                    "velocity": 1,
                    "duration": 0.18181800000002113
                },
                {
                    "name": "D#5",
                    "midi": 75,
                    "time": 166.6361970000001,
                    "velocity": 1,
                    "duration": 0.40340868749999004
                },
                {
                    "name": "D5",
                    "midi": 74,
                    "time": 167.0452875000001,
                    "velocity": 1,
                    "duration": 0.1306816875000152
                },
                {
                    "name": "C5",
                    "midi": 72,
                    "time": 167.1134692500001,
                    "velocity": 1,
                    "duration": 0.1306816875000152
                },
                {
                    "name": "D5",
                    "midi": 74,
                    "time": 167.1816510000001,
                    "velocity": 1,
                    "duration": 0.1306816875000152
                },
                {
                    "name": "C5",
                    "midi": 72,
                    "time": 167.31801450000012,
                    "velocity": 1,
                    "duration": 0.1306816875000152
                },
                {
                    "name": "A#4",
                    "midi": 70,
                    "time": 167.38619625000013,
                    "velocity": 1,
                    "duration": 0.1306816875000152
                },
                {
                    "name": "G5",
                    "midi": 79,
                    "time": 167.45437800000013,
                    "velocity": 1,
                    "duration": 0.18181800000002113
                },
                {
                    "name": "A#4",
                    "midi": 70,
                    "time": 167.72710500000017,
                    "velocity": 1,
                    "duration": 0.40340868749999004
                },
                {
                    "name": "A4",
                    "midi": 69,
                    "time": 168.13619550000016,
                    "velocity": 1,
                    "duration": 0.1306816875000152
                },
                {
                    "name": "G4",
                    "midi": 67,
                    "time": 168.20437725000016,
                    "velocity": 1,
                    "duration": 0.1306816875000152
                },
                {
                    "name": "A4",
                    "midi": 69,
                    "time": 168.27255900000017,
                    "velocity": 1,
                    "duration": 0.1306816875000152
                },
                {
                    "name": "G4",
                    "midi": 67,
                    "time": 168.4089225000002,
                    "velocity": 1,
                    "duration": 0.1306816875000152
                },
                {
                    "name": "F4",
                    "midi": 65,
                    "time": 168.4771042500002,
                    "velocity": 1,
                    "duration": 0.1306816875000152
                },
                {
                    "name": "D5",
                    "midi": 74,
                    "time": 168.5452860000002,
                    "velocity": 1,
                    "duration": 0.18181800000002113
                },
                {
                    "name": "F4",
                    "midi": 65,
                    "time": 168.81801300000024,
                    "velocity": 1,
                    "duration": 0.1818179999999927
                },
                {
                    "name": "F4",
                    "midi": 65,
                    "time": 169.05096731250023,
                    "velocity": 1,
                    "duration": 0.05113631250000594
                },
                {
                    "name": "G4",
                    "midi": 67,
                    "time": 169.09074000000024,
                    "velocity": 1,
                    "duration": 0.09090900000001056
                },
                {
                    "name": "F4",
                    "midi": 65,
                    "time": 169.15892175000025,
                    "velocity": 1,
                    "duration": 0.09090900000001056
                },
                {
                    "name": "E4",
                    "midi": 64,
                    "time": 169.22710350000025,
                    "velocity": 1,
                    "duration": 0.09090900000001056
                },
                {
                    "name": "F4",
                    "midi": 65,
                    "time": 169.29528525000026,
                    "velocity": 1,
                    "duration": 0.09090900000001056
                },
                {
                    "name": "E4",
                    "midi": 64,
                    "time": 169.36346700000027,
                    "velocity": 1,
                    "duration": 0.1818179999999927
                },
                {
                    "name": "A#5",
                    "midi": 82,
                    "time": 169.90892100000028,
                    "velocity": 1,
                    "duration": 0.1818179999999927
                },
                {
                    "name": "A5",
                    "midi": 81,
                    "time": 170.18164800000028,
                    "velocity": 1,
                    "duration": 0.13068168749998677
                },
                {
                    "name": "A#5",
                    "midi": 82,
                    "time": 170.31801150000027,
                    "velocity": 1,
                    "duration": 0.13068168749998677
                },
                {
                    "name": "C6",
                    "midi": 84,
                    "time": 170.45437500000025,
                    "velocity": 1,
                    "duration": 0.13068168749998677
                },
                {
                    "name": "F5",
                    "midi": 77,
                    "time": 170.59073850000024,
                    "velocity": 1,
                    "duration": 0.13068168749998677
                },
                {
                    "name": "A5",
                    "midi": 81,
                    "time": 170.72710200000023,
                    "velocity": 1,
                    "duration": 0.13068168749998677
                },
                {
                    "name": "G5",
                    "midi": 79,
                    "time": 170.86346550000022,
                    "velocity": 1,
                    "duration": 0.13068168749998677
                },
                {
                    "name": "F5",
                    "midi": 77,
                    "time": 170.9998290000002,
                    "velocity": 1,
                    "duration": 0.13068168749998677
                },
                {
                    "name": "E5",
                    "midi": 76,
                    "time": 171.1361925000002,
                    "velocity": 1,
                    "duration": 0.13068168749998677
                },
                {
                    "name": "F5",
                    "midi": 77,
                    "time": 171.27255600000018,
                    "velocity": 1,
                    "duration": 0.13068168749998677
                },
                {
                    "name": "C5",
                    "midi": 72,
                    "time": 171.40891950000017,
                    "velocity": 1,
                    "duration": 0.13068168749998677
                },
                {
                    "name": "D5",
                    "midi": 74,
                    "time": 171.54528300000015,
                    "velocity": 1,
                    "duration": 0.13068168749998677
                },
                {
                    "name": "F5",
                    "midi": 77,
                    "time": 171.68164650000014,
                    "velocity": 1,
                    "duration": 0.13068168749998677
                },
                {
                    "name": "A#4",
                    "midi": 70,
                    "time": 171.81801000000013,
                    "velocity": 1,
                    "duration": 0.13068168749998677
                },
                {
                    "name": "A4",
                    "midi": 69,
                    "time": 171.95437350000012,
                    "velocity": 1,
                    "duration": 0.13068168749998677
                },
                {
                    "name": "A#4",
                    "midi": 70,
                    "time": 172.0907370000001,
                    "velocity": 1,
                    "duration": 0.13068168749998677
                },
                {
                    "name": "D5",
                    "midi": 74,
                    "time": 172.2271005000001,
                    "velocity": 1,
                    "duration": 0.13068168749998677
                },
                {
                    "name": "F5",
                    "midi": 77,
                    "time": 172.36346400000008,
                    "velocity": 1,
                    "duration": 0.13068168749998677
                },
                {
                    "name": "A#4",
                    "midi": 70,
                    "time": 172.49982750000007,
                    "velocity": 1,
                    "duration": 0.13068168749998677
                },
                {
                    "name": "C5",
                    "midi": 72,
                    "time": 172.63619100000005,
                    "velocity": 1,
                    "duration": 0.13068168749998677
                },
                {
                    "name": "F5",
                    "midi": 77,
                    "time": 172.77255450000004,
                    "velocity": 1,
                    "duration": 0.13068168749998677
                },
                {
                    "name": "A4",
                    "midi": 69,
                    "time": 172.90891800000003,
                    "velocity": 1,
                    "duration": 0.13068168749998677
                },
                {
                    "name": "G4",
                    "midi": 67,
                    "time": 173.04528150000002,
                    "velocity": 1,
                    "duration": 0.13068168749998677
                },
                {
                    "name": "A4",
                    "midi": 69,
                    "time": 173.181645,
                    "velocity": 1,
                    "duration": 0.13068168749998677
                },
                {
                    "name": "C5",
                    "midi": 72,
                    "time": 173.3180085,
                    "velocity": 1,
                    "duration": 0.13068168749998677
                },
                {
                    "name": "F5",
                    "midi": 77,
                    "time": 173.45437199999998,
                    "velocity": 1,
                    "duration": 0.13068168749998677
                },
                {
                    "name": "A4",
                    "midi": 69,
                    "time": 173.59073549999997,
                    "velocity": 1,
                    "duration": 0.13068168749998677
                },
                {
                    "name": "B4",
                    "midi": 71,
                    "time": 173.72709899999995,
                    "velocity": 1,
                    "duration": 0.13068168749998677
                },
                {
                    "name": "F5",
                    "midi": 77,
                    "time": 173.86346249999994,
                    "velocity": 1,
                    "duration": 0.13068168749998677
                },
                {
                    "name": "G4",
                    "midi": 67,
                    "time": 173.99982599999993,
                    "velocity": 1,
                    "duration": 0.13068168749998677
                },
                {
                    "name": "F4",
                    "midi": 65,
                    "time": 174.13618949999992,
                    "velocity": 1,
                    "duration": 0.13068168749998677
                },
                {
                    "name": "G4",
                    "midi": 67,
                    "time": 174.2725529999999,
                    "velocity": 1,
                    "duration": 0.13068168749998677
                },
                {
                    "name": "F5",
                    "midi": 77,
                    "time": 174.4089164999999,
                    "velocity": 1,
                    "duration": 0.13068168749998677
                },
                {
                    "name": "E5",
                    "midi": 76,
                    "time": 174.54527999999988,
                    "velocity": 1,
                    "duration": 0.13068168749998677
                },
                {
                    "name": "F5",
                    "midi": 77,
                    "time": 174.68164349999986,
                    "velocity": 1,
                    "duration": 0.13068168749998677
                },
                {
                    "name": "G5",
                    "midi": 79,
                    "time": 174.81800699999985,
                    "velocity": 1,
                    "duration": 0.13068168749998677
                },
                {
                    "name": "F5",
                    "midi": 77,
                    "time": 174.95437049999984,
                    "velocity": 1,
                    "duration": 0.13068168749998677
                },
                {
                    "name": "E5",
                    "midi": 76,
                    "time": 175.09073399999983,
                    "velocity": 1,
                    "duration": 0.13068168749998677
                },
                {
                    "name": "D5",
                    "midi": 74,
                    "time": 175.22709749999981,
                    "velocity": 1,
                    "duration": 0.13068168749998677
                },
                {
                    "name": "C5",
                    "midi": 72,
                    "time": 175.3634609999998,
                    "velocity": 1,
                    "duration": 0.13068168749998677
                },
                {
                    "name": "A#4",
                    "midi": 70,
                    "time": 175.4998244999998,
                    "velocity": 1,
                    "duration": 0.13068168749998677
                },
                {
                    "name": "A4",
                    "midi": 69,
                    "time": 175.63618799999978,
                    "velocity": 1,
                    "duration": 0.13068168749998677
                },
                {
                    "name": "A#4",
                    "midi": 70,
                    "time": 175.77255149999976,
                    "velocity": 1,
                    "duration": 0.13068168749998677
                },
                {
                    "name": "C5",
                    "midi": 72,
                    "time": 175.90891499999975,
                    "velocity": 1,
                    "duration": 0.13068168749998677
                },
                {
                    "name": "F4",
                    "midi": 65,
                    "time": 176.04527849999974,
                    "velocity": 1,
                    "duration": 0.13068168749998677
                },
                {
                    "name": "A4",
                    "midi": 69,
                    "time": 176.18164199999973,
                    "velocity": 1,
                    "duration": 0.13068168749998677
                },
                {
                    "name": "G4",
                    "midi": 67,
                    "time": 176.3180054999997,
                    "velocity": 1,
                    "duration": 0.13068168749998677
                },
                {
                    "name": "F4",
                    "midi": 65,
                    "time": 176.4543689999997,
                    "velocity": 1,
                    "duration": 0.13068168749998677
                },
                {
                    "name": "E4",
                    "midi": 64,
                    "time": 176.5907324999997,
                    "velocity": 1,
                    "duration": 0.13068168749998677
                },
                {
                    "name": "F4",
                    "midi": 65,
                    "time": 176.72709599999968,
                    "velocity": 1,
                    "duration": 0.1818179999999927
                },
                {
                    "name": "F5",
                    "midi": 77,
                    "time": 176.99982299999968,
                    "velocity": 1,
                    "duration": 0.1818179999999927
                },
                {
                    "name": "A4",
                    "midi": 69,
                    "time": 177.27254999999968,
                    "velocity": 1,
                    "duration": 0.1818179999999927
                },
                {
                    "name": "F4",
                    "midi": 65,
                    "time": 177.27254999999968,
                    "velocity": 1,
                    "duration": 0.1818179999999927
                },
                {
                    "name": "A#4",
                    "midi": 70,
                    "time": 177.5452769999997,
                    "velocity": 1,
                    "duration": 0.1818179999999927
                },
                {
                    "name": "G4",
                    "midi": 67,
                    "time": 177.5452769999997,
                    "velocity": 1,
                    "duration": 0.1818179999999927
                },
                {
                    "name": "C5",
                    "midi": 72,
                    "time": 177.8180039999997,
                    "velocity": 1,
                    "duration": 0.5397721875000059
                },
                {
                    "name": "A4",
                    "midi": 69,
                    "time": 177.8180039999997,
                    "velocity": 1,
                    "duration": 0.5397721875000059
                },
                {
                    "name": "D5",
                    "midi": 74,
                    "time": 178.3634579999997,
                    "velocity": 1,
                    "duration": 0.36363600000001384
                },
                {
                    "name": "A#4",
                    "midi": 70,
                    "time": 178.3634579999997,
                    "velocity": 1,
                    "duration": 0.36363600000001384
                },
                {
                    "name": "A4",
                    "midi": 69,
                    "time": 178.9089119999997,
                    "velocity": 1,
                    "duration": 0.36363600000001384
                },
                {
                    "name": "F4",
                    "midi": 65,
                    "time": 178.9089119999997,
                    "velocity": 1,
                    "duration": 0.7272720000000277
                },
                {
                    "name": "C5",
                    "midi": 72,
                    "time": 178.9089119999997,
                    "velocity": 1,
                    "duration": 0.1818179999999927
                },
                {
                    "name": "F5",
                    "midi": 77,
                    "time": 179.1816389999997,
                    "velocity": 1,
                    "duration": 0.36363600000001384
                },
                {
                    "name": "A#4",
                    "midi": 70,
                    "time": 179.4543659999997,
                    "velocity": 1,
                    "duration": 0.36363600000004226
                },
                {
                    "name": "D#5",
                    "midi": 75,
                    "time": 179.72709299999974,
                    "velocity": 1,
                    "duration": 0.09090900000001056
                },
                {
                    "name": "D5",
                    "midi": 74,
                    "time": 179.86345649999976,
                    "velocity": 1,
                    "duration": 0.09090900000001056
                },
                {
                    "name": "D5",
                    "midi": 74,
                    "time": 179.99981999999977,
                    "velocity": 1,
                    "duration": 0.2670451875000026
                },
                {
                    "name": "A#4",
                    "midi": 70,
                    "time": 179.99981999999977,
                    "velocity": 1,
                    "duration": 0.2670451875000026
                },
                {
                    "name": "F4",
                    "midi": 65,
                    "time": 179.99981999999977,
                    "velocity": 1,
                    "duration": 0.5397721875000059
                },
                {
                    "name": "C5",
                    "midi": 72,
                    "time": 180.27254699999978,
                    "velocity": 1,
                    "duration": 0.1818179999999927
                },
                {
                    "name": "A4",
                    "midi": 69,
                    "time": 180.27254699999978,
                    "velocity": 1,
                    "duration": 0.1818179999999927
                },
                {
                    "name": "C6",
                    "midi": 84,
                    "time": 181.3634549999998,
                    "velocity": 1,
                    "duration": 0.1818179999999927
                },
                {
                    "name": "E5",
                    "midi": 76,
                    "time": 181.6361819999998,
                    "velocity": 1,
                    "duration": 0.1818179999999927
                },
                {
                    "name": "C5",
                    "midi": 72,
                    "time": 181.6361819999998,
                    "velocity": 1,
                    "duration": 0.1818179999999927
                },
                {
                    "name": "F5",
                    "midi": 77,
                    "time": 181.9089089999998,
                    "velocity": 1,
                    "duration": 0.1818179999999927
                },
                {
                    "name": "D5",
                    "midi": 74,
                    "time": 181.9089089999998,
                    "velocity": 1,
                    "duration": 0.1818179999999927
                },
                {
                    "name": "G5",
                    "midi": 79,
                    "time": 182.1816359999998,
                    "velocity": 1,
                    "duration": 0.36363600000001384
                },
                {
                    "name": "E5",
                    "midi": 76,
                    "time": 182.1816359999998,
                    "velocity": 1,
                    "duration": 0.36363600000001384
                },
                {
                    "name": "C5",
                    "midi": 72,
                    "time": 182.4543629999998,
                    "velocity": 1,
                    "duration": 0.18181800000002113
                },
                {
                    "name": "A5",
                    "midi": 81,
                    "time": 182.72708999999983,
                    "velocity": 1,
                    "duration": 0.36363600000001384
                },
                {
                    "name": "F5",
                    "midi": 77,
                    "time": 182.72708999999983,
                    "velocity": 1,
                    "duration": 0.36363600000001384
                },
                {
                    "name": "A4",
                    "midi": 69,
                    "time": 182.72708999999983,
                    "velocity": 1,
                    "duration": 0.1818179999999927
                },
                {
                    "name": "F4",
                    "midi": 65,
                    "time": 182.99981699999984,
                    "velocity": 1,
                    "duration": 0.18181800000002113
                },
                {
                    "name": "C5",
                    "midi": 72,
                    "time": 183.27254399999987,
                    "velocity": 1,
                    "duration": 1.085226187499984
                },
                {
                    "name": "E5",
                    "midi": 76,
                    "time": 183.27254399999987,
                    "velocity": 1,
                    "duration": 0.5397721875000059
                },
                {
                    "name": "G5",
                    "midi": 79,
                    "time": 183.27254399999987,
                    "velocity": 1,
                    "duration": 0.2670451875000026
                },
                {
                    "name": "C6",
                    "midi": 84,
                    "time": 183.54527099999987,
                    "velocity": 1,
                    "duration": 0.5397721875000059
                },
                {
                    "name": "F5",
                    "midi": 77,
                    "time": 183.81799799999987,
                    "velocity": 1,
                    "duration": 0.5397721874999775
                },
                {
                    "name": "A#5",
                    "midi": 82,
                    "time": 184.09072499999988,
                    "velocity": 1,
                    "duration": 0.13068168749998677
                },
                {
                    "name": "A5",
                    "midi": 81,
                    "time": 184.22708849999987,
                    "velocity": 1,
                    "duration": 0.13068168749998677
                },
                {
                    "name": "C5",
                    "midi": 72,
                    "time": 184.36345199999985,
                    "velocity": 1,
                    "duration": 0.5397721875000059
                },
                {
                    "name": "A5",
                    "midi": 81,
                    "time": 184.36345199999985,
                    "velocity": 1,
                    "duration": 0.2670451875000026
                },
                {
                    "name": "F5",
                    "midi": 77,
                    "time": 184.36345199999985,
                    "velocity": 1,
                    "duration": 0.2670451875000026
                },
                {
                    "name": "G5",
                    "midi": 79,
                    "time": 184.63617899999986,
                    "velocity": 1,
                    "duration": 0.1818179999999927
                },
                {
                    "name": "E5",
                    "midi": 76,
                    "time": 184.63617899999986,
                    "velocity": 1,
                    "duration": 0.1818179999999927
                },
                {
                    "name": "C5",
                    "midi": 72,
                    "time": 185.04526949999985,
                    "velocity": 1,
                    "duration": 0.09090900000001056
                },
                {
                    "name": "A#4",
                    "midi": 70,
                    "time": 185.18163299999986,
                    "velocity": 1,
                    "duration": 0.09090900000001056
                },
                {
                    "name": "A4",
                    "midi": 69,
                    "time": 185.31799649999988,
                    "velocity": 1,
                    "duration": 0.09090900000001056
                },
                {
                    "name": "A#4",
                    "midi": 70,
                    "time": 185.4543599999999,
                    "velocity": 1,
                    "duration": 0.1818179999999927
                },
                {
                    "name": "G5",
                    "midi": 79,
                    "time": 185.7270869999999,
                    "velocity": 1,
                    "duration": 0.36363600000001384
                },
                {
                    "name": "A#4",
                    "midi": 70,
                    "time": 186.13617749999992,
                    "velocity": 1,
                    "duration": 0.09090900000001056
                },
                {
                    "name": "A4",
                    "midi": 69,
                    "time": 186.27254099999993,
                    "velocity": 1,
                    "duration": 0.09090900000001056
                },
                {
                    "name": "G4",
                    "midi": 67,
                    "time": 186.40890449999995,
                    "velocity": 1,
                    "duration": 0.09090900000001056
                },
                {
                    "name": "A4",
                    "midi": 69,
                    "time": 186.54526799999996,
                    "velocity": 1,
                    "duration": 0.13068168749998677
                },
                {
                    "name": "G4",
                    "midi": 67,
                    "time": 186.68163149999995,
                    "velocity": 1,
                    "duration": 0.13068168749998677
                },
                {
                    "name": "F4",
                    "midi": 65,
                    "time": 186.81799499999994,
                    "velocity": 1,
                    "duration": 0.09090900000001056
                },
                {
                    "name": "G4",
                    "midi": 67,
                    "time": 186.95435849999996,
                    "velocity": 1,
                    "duration": 0.09090900000001056
                },
                {
                    "name": "A4",
                    "midi": 69,
                    "time": 187.09072199999997,
                    "velocity": 1,
                    "duration": 0.09090900000001056
                },
                {
                    "name": "A#4",
                    "midi": 70,
                    "time": 187.2270855,
                    "velocity": 1,
                    "duration": 0.09090900000001056
                },
                {
                    "name": "C5",
                    "midi": 72,
                    "time": 187.363449,
                    "velocity": 1,
                    "duration": 0.09090900000001056
                },
                {
                    "name": "D5",
                    "midi": 74,
                    "time": 187.49981250000002,
                    "velocity": 1,
                    "duration": 0.09090900000001056
                },
                {
                    "name": "D#5",
                    "midi": 75,
                    "time": 187.63617600000003,
                    "velocity": 1,
                    "duration": 0.1818179999999927
                },
                {
                    "name": "C6",
                    "midi": 84,
                    "time": 187.90890300000004,
                    "velocity": 1,
                    "duration": 0.36363600000001384
                },
                {
                    "name": "D#5",
                    "midi": 75,
                    "time": 188.31799350000006,
                    "velocity": 1,
                    "duration": 0.09090900000001056
                },
                {
                    "name": "D5",
                    "midi": 74,
                    "time": 188.45435700000007,
                    "velocity": 1,
                    "duration": 0.09090900000001056
                },
                {
                    "name": "C5",
                    "midi": 72,
                    "time": 188.5907205000001,
                    "velocity": 1,
                    "duration": 0.09090900000001056
                },
                {
                    "name": "D5",
                    "midi": 74,
                    "time": 188.7270840000001,
                    "velocity": 1,
                    "duration": 0.13068168749998677
                },
                {
                    "name": "C5",
                    "midi": 72,
                    "time": 188.8634475000001,
                    "velocity": 1,
                    "duration": 0.13068168749998677
                },
                {
                    "name": "A#4",
                    "midi": 70,
                    "time": 188.99981100000008,
                    "velocity": 1,
                    "duration": 0.09090900000001056
                },
                {
                    "name": "C5",
                    "midi": 72,
                    "time": 189.1361745000001,
                    "velocity": 1,
                    "duration": 0.09090900000001056
                },
                {
                    "name": "D5",
                    "midi": 74,
                    "time": 189.2725380000001,
                    "velocity": 1,
                    "duration": 0.09090900000001056
                },
                {
                    "name": "E5",
                    "midi": 76,
                    "time": 189.40890150000013,
                    "velocity": 1,
                    "duration": 0.09090900000001056
                },
                {
                    "name": "F5",
                    "midi": 77,
                    "time": 189.54526500000014,
                    "velocity": 1,
                    "duration": 0.09090900000001056
                },
                {
                    "name": "A#4",
                    "midi": 70,
                    "time": 189.54526500000014,
                    "velocity": 1,
                    "duration": 0.18181800000002113
                },
                {
                    "name": "G5",
                    "midi": 79,
                    "time": 189.68162850000016,
                    "velocity": 1,
                    "duration": 0.09090900000001056
                },
                {
                    "name": "G#5",
                    "midi": 80,
                    "time": 189.81799200000017,
                    "velocity": 1,
                    "duration": 0.09090900000001056
                },
                {
                    "name": "B4",
                    "midi": 71,
                    "time": 189.81799200000017,
                    "velocity": 1,
                    "duration": 0.5397721875000343
                },
                {
                    "name": "F4",
                    "midi": 65,
                    "time": 189.81799200000017,
                    "velocity": 1,
                    "duration": 0.5397721875000343
                },
                {
                    "name": "D4",
                    "midi": 62,
                    "time": 189.81799200000017,
                    "velocity": 1,
                    "duration": 0.5397721875000343
                },
                {
                    "name": "G5",
                    "midi": 79,
                    "time": 189.9543555000002,
                    "velocity": 1,
                    "duration": 0.06249993750000726
                },
                {
                    "name": "F5",
                    "midi": 77,
                    "time": 190.0225372500002,
                    "velocity": 1,
                    "duration": 0.06249993750000726
                },
                {
                    "name": "G5",
                    "midi": 79,
                    "time": 190.0907190000002,
                    "velocity": 1,
                    "duration": 0.36363600000001384
                },
                {
                    "name": "G4",
                    "midi": 67,
                    "time": 190.3634460000002,
                    "velocity": 1,
                    "duration": 0.5397721875000343
                },
                {
                    "name": "D4",
                    "midi": 62,
                    "time": 190.3634460000002,
                    "velocity": 1,
                    "duration": 0.5397721875000343
                },
                {
                    "name": "B3",
                    "midi": 59,
                    "time": 190.3634460000002,
                    "velocity": 1,
                    "duration": 0.5397721875000343
                },
                {
                    "name": "F5",
                    "midi": 77,
                    "time": 190.49980950000023,
                    "velocity": 1,
                    "duration": 0.06249993750000726
                },
                {
                    "name": "E5",
                    "midi": 76,
                    "time": 190.56799125000023,
                    "velocity": 1,
                    "duration": 0.06249993750000726
                },
                {
                    "name": "F5",
                    "midi": 77,
                    "time": 190.63617300000024,
                    "velocity": 1,
                    "duration": 0.36363600000001384
                },
                {
                    "name": "E5",
                    "midi": 76,
                    "time": 191.04526350000026,
                    "velocity": 1,
                    "duration": 0.06818175000000792
                },
                {
                    "name": "D5",
                    "midi": 74,
                    "time": 191.11344525000027,
                    "velocity": 1,
                    "duration": 0.06818175000000792
                },
                {
                    "name": "E5",
                    "midi": 76,
                    "time": 191.18162700000028,
                    "velocity": 1,
                    "duration": 0.40340868749999004
                },
                {
                    "name": "G5",
                    "midi": 79,
                    "time": 191.59071750000027,
                    "velocity": 1,
                    "duration": 0.13068168749998677
                },
                {
                    "name": "E5",
                    "midi": 76,
                    "time": 191.72708100000025,
                    "velocity": 1,
                    "duration": 0.13068168749998677
                },
                {
                    "name": "C5",
                    "midi": 72,
                    "time": 191.86344450000024,
                    "velocity": 1,
                    "duration": 0.13068168749998677
                },
                {
                    "name": "A#4",
                    "midi": 70,
                    "time": 191.99980800000023,
                    "velocity": 1,
                    "duration": 0.09090900000001056
                },
                {
                    "name": "G5",
                    "midi": 79,
                    "time": 192.13617150000024,
                    "velocity": 1,
                    "duration": 0.13068168749998677
                },
                {
                    "name": "E5",
                    "midi": 76,
                    "time": 192.27253500000023,
                    "velocity": 1,
                    "duration": 0.13068168749998677
                },
                {
                    "name": "C5",
                    "midi": 72,
                    "time": 192.40889850000022,
                    "velocity": 1,
                    "duration": 0.13068168749998677
                },
                {
                    "name": "A#4",
                    "midi": 70,
                    "time": 192.5452620000002,
                    "velocity": 1,
                    "duration": 0.09090900000001056
                },
                {
                    "name": "G5",
                    "midi": 79,
                    "time": 192.68162550000022,
                    "velocity": 1,
                    "duration": 0.13068168749998677
                },
                {
                    "name": "E5",
                    "midi": 76,
                    "time": 192.8179890000002,
                    "velocity": 1,
                    "duration": 0.13068168749998677
                },
                {
                    "name": "G4",
                    "midi": 67,
                    "time": 192.8179890000002,
                    "velocity": 1,
                    "duration": 0.1818179999999927
                },
                {
                    "name": "C5",
                    "midi": 72,
                    "time": 192.9543525000002,
                    "velocity": 1,
                    "duration": 0.1306816875000152
                },
                {
                    "name": "A#4",
                    "midi": 70,
                    "time": 193.0907160000002,
                    "velocity": 1,
                    "duration": 0.09090900000001056
                },
                {
                    "name": "E4",
                    "midi": 64,
                    "time": 193.0907160000002,
                    "velocity": 1,
                    "duration": 0.18181800000002113
                },
                {
                    "name": "G5",
                    "midi": 79,
                    "time": 193.22707950000023,
                    "velocity": 1,
                    "duration": 0.1306816875000152
                },
                {
                    "name": "E5",
                    "midi": 76,
                    "time": 193.36344300000025,
                    "velocity": 1,
                    "duration": 0.13068168749998677
                },
                {
                    "name": "C4",
                    "midi": 60,
                    "time": 193.36344300000025,
                    "velocity": 1,
                    "duration": 0.1818179999999927
                },
                {
                    "name": "C5",
                    "midi": 72,
                    "time": 193.49980650000023,
                    "velocity": 1,
                    "duration": 0.1306816875000152
                },
                {
                    "name": "A#4",
                    "midi": 70,
                    "time": 193.63617000000025,
                    "velocity": 1,
                    "duration": 0.09090900000001056
                },
                {
                    "name": "G5",
                    "midi": 79,
                    "time": 193.77253350000026,
                    "velocity": 1,
                    "duration": 0.13068168749998677
                },
                {
                    "name": "E5",
                    "midi": 76,
                    "time": 193.90889700000025,
                    "velocity": 1,
                    "duration": 0.13068168749998677
                },
                {
                    "name": "C5",
                    "midi": 72,
                    "time": 194.04526050000024,
                    "velocity": 1,
                    "duration": 0.13068168749998677
                },
                {
                    "name": "A4",
                    "midi": 69,
                    "time": 194.18162400000023,
                    "velocity": 1,
                    "duration": 0.09090900000001056
                },
                {
                    "name": "A5",
                    "midi": 81,
                    "time": 194.31798750000024,
                    "velocity": 1,
                    "duration": 0.13068168749998677
                },
                {
                    "name": "F5",
                    "midi": 77,
                    "time": 194.45435100000023,
                    "velocity": 1,
                    "duration": 0.13068168749998677
                },
                {
                    "name": "C#5",
                    "midi": 73,
                    "time": 194.59071450000022,
                    "velocity": 1,
                    "duration": 0.13068168749998677
                },
                {
                    "name": "C5",
                    "midi": 72,
                    "time": 194.7270780000002,
                    "velocity": 1,
                    "duration": 0.09090900000001056
                },
                {
                    "name": "A5",
                    "midi": 81,
                    "time": 194.86344150000022,
                    "velocity": 1,
                    "duration": 0.13068168749998677
                },
                {
                    "name": "F5",
                    "midi": 77,
                    "time": 194.9998050000002,
                    "velocity": 1,
                    "duration": 0.13068168749998677
                },
                {
                    "name": "A4",
                    "midi": 69,
                    "time": 194.9998050000002,
                    "velocity": 1,
                    "duration": 0.2670451874999742
                },
                {
                    "name": "C#5",
                    "midi": 73,
                    "time": 195.1361685000002,
                    "velocity": 1,
                    "duration": 0.13068168749998677
                },
                {
                    "name": "C5",
                    "midi": 72,
                    "time": 195.27253200000018,
                    "velocity": 1,
                    "duration": 0.09090900000001056
                },
                {
                    "name": "A5",
                    "midi": 81,
                    "time": 195.4088955000002,
                    "velocity": 1,
                    "duration": 0.13068168749998677
                },
                {
                    "name": "F5",
                    "midi": 77,
                    "time": 195.5452590000002,
                    "velocity": 1,
                    "duration": 0.13068168749998677
                },
                {
                    "name": "C#5",
                    "midi": 73,
                    "time": 195.68162250000017,
                    "velocity": 1,
                    "duration": 0.13068168749998677
                },
                {
                    "name": "C5",
                    "midi": 72,
                    "time": 195.81798600000016,
                    "velocity": 1,
                    "duration": 0.09090900000001056
                },
                {
                    "name": "A5",
                    "midi": 81,
                    "time": 195.95434950000018,
                    "velocity": 1,
                    "duration": 0.13068168749998677
                },
                {
                    "name": "F5",
                    "midi": 77,
                    "time": 196.09071300000016,
                    "velocity": 1,
                    "duration": 0.13068168749998677
                },
                {
                    "name": "D#5",
                    "midi": 75,
                    "time": 196.22707650000015,
                    "velocity": 1,
                    "duration": 0.13068168749998677
                },
                {
                    "name": "D5",
                    "midi": 74,
                    "time": 196.36344000000014,
                    "velocity": 1,
                    "duration": 0.09090900000001056
                },
                {
                    "name": "B5",
                    "midi": 83,
                    "time": 196.49980350000016,
                    "velocity": 1,
                    "duration": 0.13068168749998677
                },
                {
                    "name": "G#5",
                    "midi": 80,
                    "time": 196.63616700000014,
                    "velocity": 1,
                    "duration": 0.13068168749998677
                },
                {
                    "name": "F5",
                    "midi": 77,
                    "time": 196.77253050000013,
                    "velocity": 1,
                    "duration": 0.13068168749998677
                },
                {
                    "name": "D5",
                    "midi": 74,
                    "time": 196.90889400000012,
                    "velocity": 1,
                    "duration": 0.09090900000001056
                },
                {
                    "name": "B5",
                    "midi": 83,
                    "time": 197.04525750000013,
                    "velocity": 1,
                    "duration": 0.13068168749998677
                },
                {
                    "name": "G#5",
                    "midi": 80,
                    "time": 197.18162100000012,
                    "velocity": 1,
                    "duration": 0.13068168749998677
                },
                {
                    "name": "F5",
                    "midi": 77,
                    "time": 197.3179845000001,
                    "velocity": 1,
                    "duration": 0.13068168749998677
                },
                {
                    "name": "D5",
                    "midi": 74,
                    "time": 197.4543480000001,
                    "velocity": 1,
                    "duration": 0.09090900000001056
                },
                {
                    "name": "B5",
                    "midi": 83,
                    "time": 197.5907115000001,
                    "velocity": 1,
                    "duration": 0.13068168749998677
                },
                {
                    "name": "G#5",
                    "midi": 80,
                    "time": 197.7270750000001,
                    "velocity": 1,
                    "duration": 0.13068168749998677
                },
                {
                    "name": "F5",
                    "midi": 77,
                    "time": 197.8634385000001,
                    "velocity": 1,
                    "duration": 0.13068168749998677
                },
                {
                    "name": "D5",
                    "midi": 74,
                    "time": 197.99980200000007,
                    "velocity": 1,
                    "duration": 0.09090900000001056
                },
                {
                    "name": "B5",
                    "midi": 83,
                    "time": 198.1361655000001,
                    "velocity": 1,
                    "duration": 0.13068168749998677
                },
                {
                    "name": "G#5",
                    "midi": 80,
                    "time": 198.27252900000008,
                    "velocity": 1,
                    "duration": 0.13068168749998677
                },
                {
                    "name": "F5",
                    "midi": 77,
                    "time": 198.40889250000006,
                    "velocity": 1,
                    "duration": 0.13068168749998677
                },
                {
                    "name": "E5",
                    "midi": 76,
                    "time": 198.54525600000005,
                    "velocity": 1,
                    "duration": 0.13068168749998677
                },
                {
                    "name": "C6",
                    "midi": 84,
                    "time": 198.68161950000004,
                    "velocity": 1,
                    "duration": 0.13068168749998677
                },
                {
                    "name": "G5",
                    "midi": 79,
                    "time": 198.81798300000003,
                    "velocity": 1,
                    "duration": 0.13068168749998677
                },
                {
                    "name": "E5",
                    "midi": 76,
                    "time": 198.9543465,
                    "velocity": 1,
                    "duration": 0.13068168749998677
                },
                {
                    "name": "C5",
                    "midi": 72,
                    "time": 199.09071,
                    "velocity": 1,
                    "duration": 0.09090900000001056
                },
                {
                    "name": "E5",
                    "midi": 76,
                    "time": 199.22707350000002,
                    "velocity": 1,
                    "duration": 0.09090900000001056
                },
                {
                    "name": "D5",
                    "midi": 74,
                    "time": 199.36343700000003,
                    "velocity": 1,
                    "duration": 0.09090900000001056
                },
                {
                    "name": "F5",
                    "midi": 77,
                    "time": 199.49980050000005,
                    "velocity": 1,
                    "duration": 0.09090900000001056
                },
                {
                    "name": "E5",
                    "midi": 76,
                    "time": 199.63616400000006,
                    "velocity": 1,
                    "duration": 0.13068168749998677
                },
                {
                    "name": "G5",
                    "midi": 79,
                    "time": 199.77252750000005,
                    "velocity": 1,
                    "duration": 0.13068168749998677
                },
                {
                    "name": "E5",
                    "midi": 76,
                    "time": 199.90889100000004,
                    "velocity": 1,
                    "duration": 0.13068168749998677
                },
                {
                    "name": "C5",
                    "midi": 72,
                    "time": 200.04525450000003,
                    "velocity": 1,
                    "duration": 0.13068168749998677
                },
                {
                    "name": "G4",
                    "midi": 67,
                    "time": 200.18161800000001,
                    "velocity": 1,
                    "duration": 0.09090900000001056
                },
                {
                    "name": "A#4",
                    "midi": 70,
                    "time": 200.31798150000003,
                    "velocity": 1,
                    "duration": 0.09090900000001056
                },
                {
                    "name": "A4",
                    "midi": 69,
                    "time": 200.45434500000005,
                    "velocity": 1,
                    "duration": 0.09090900000001056
                },
                {
                    "name": "C5",
                    "midi": 72,
                    "time": 200.59070850000006,
                    "velocity": 1,
                    "duration": 0.09090900000001056
                },
                {
                    "name": "A#4",
                    "midi": 70,
                    "time": 200.72707200000008,
                    "velocity": 1,
                    "duration": 0.13068168749998677
                },
                {
                    "name": "D5",
                    "midi": 74,
                    "time": 200.86343550000007,
                    "velocity": 1,
                    "duration": 0.13068168749998677
                },
                {
                    "name": "A#4",
                    "midi": 70,
                    "time": 200.99979900000005,
                    "velocity": 1,
                    "duration": 0.13068168749998677
                },
                {
                    "name": "G4",
                    "midi": 67,
                    "time": 201.13616250000004,
                    "velocity": 1,
                    "duration": 0.13068168749998677
                },
                {
                    "name": "E4",
                    "midi": 64,
                    "time": 201.27252600000003,
                    "velocity": 1,
                    "duration": 0.09090900000001056
                },
                {
                    "name": "G4",
                    "midi": 67,
                    "time": 201.40888950000004,
                    "velocity": 1,
                    "duration": 0.09090900000001056
                },
                {
                    "name": "F4",
                    "midi": 65,
                    "time": 201.54525300000006,
                    "velocity": 1,
                    "duration": 0.09090900000001056
                },
                {
                    "name": "A4",
                    "midi": 69,
                    "time": 201.68161650000008,
                    "velocity": 1,
                    "duration": 0.09090900000001056
                },
                {
                    "name": "G4",
                    "midi": 67,
                    "time": 201.8179800000001,
                    "velocity": 1,
                    "duration": 0.13068168749998677
                },
                {
                    "name": "A#4",
                    "midi": 70,
                    "time": 201.95434350000008,
                    "velocity": 1,
                    "duration": 0.13068168749998677
                },
                {
                    "name": "G4",
                    "midi": 67,
                    "time": 202.09070700000007,
                    "velocity": 1,
                    "duration": 0.13068168749998677
                },
                {
                    "name": "E4",
                    "midi": 64,
                    "time": 202.22707050000005,
                    "velocity": 1,
                    "duration": 0.13068168749998677
                },
                {
                    "name": "C4",
                    "midi": 60,
                    "time": 202.36343400000004,
                    "velocity": 1,
                    "duration": 0.09090900000001056
                },
                {
                    "name": "A#4",
                    "midi": 70,
                    "time": 202.49979750000006,
                    "velocity": 1,
                    "duration": 0.13068168749998677
                },
                {
                    "name": "A4",
                    "midi": 69,
                    "time": 202.63616100000004,
                    "velocity": 1,
                    "duration": 0.13068168749998677
                },
                {
                    "name": "G4",
                    "midi": 67,
                    "time": 202.77252450000003,
                    "velocity": 1,
                    "duration": 0.13068168749998677
                },
                {
                    "name": "A4",
                    "midi": 69,
                    "time": 202.90888800000002,
                    "velocity": 1,
                    "duration": 0.13068168749998677
                },
                {
                    "name": "F4",
                    "midi": 65,
                    "time": 203.0452515,
                    "velocity": 1,
                    "duration": 0.13068168749998677
                },
                {
                    "name": "G4",
                    "midi": 67,
                    "time": 203.181615,
                    "velocity": 1,
                    "duration": 0.13068168749998677
                },
                {
                    "name": "A4",
                    "midi": 69,
                    "time": 203.31797849999998,
                    "velocity": 1,
                    "duration": 0.13068168749998677
                },
                {
                    "name": "A#4",
                    "midi": 70,
                    "time": 203.45434199999997,
                    "velocity": 1,
                    "duration": 0.13068168749998677
                },
                {
                    "name": "C5",
                    "midi": 72,
                    "time": 203.59070549999996,
                    "velocity": 1,
                    "duration": 0.13068168749998677
                },
                {
                    "name": "D5",
                    "midi": 74,
                    "time": 203.72706899999994,
                    "velocity": 1,
                    "duration": 0.13068168749998677
                },
                {
                    "name": "E5",
                    "midi": 76,
                    "time": 203.86343249999993,
                    "velocity": 1,
                    "duration": 0.13068168749998677
                },
                {
                    "name": "F5",
                    "midi": 77,
                    "time": 203.99979599999992,
                    "velocity": 1,
                    "duration": 0.13068168749998677
                },
                {
                    "name": "E5",
                    "midi": 76,
                    "time": 204.1361594999999,
                    "velocity": 1,
                    "duration": 0.13068168749998677
                },
                {
                    "name": "D5",
                    "midi": 74,
                    "time": 204.2725229999999,
                    "velocity": 1,
                    "duration": 0.13068168749998677
                },
                {
                    "name": "C5",
                    "midi": 72,
                    "time": 204.40888649999988,
                    "velocity": 1,
                    "duration": 0.13068168749998677
                },
                {
                    "name": "C6",
                    "midi": 84,
                    "time": 204.54524999999987,
                    "velocity": 1,
                    "duration": 0.1818179999999927
                },
                {
                    "name": "F5",
                    "midi": 77,
                    "time": 204.81797699999987,
                    "velocity": 1,
                    "duration": 0.1818179999999927
                },
                {
                    "name": "C5",
                    "midi": 72,
                    "time": 204.81797699999987,
                    "velocity": 1,
                    "duration": 0.1818179999999927
                },
                {
                    "name": "A4",
                    "midi": 69,
                    "time": 204.81797699999987,
                    "velocity": 1,
                    "duration": 0.1818179999999927
                },
                {
                    "name": "F5",
                    "midi": 77,
                    "time": 205.09070399999987,
                    "velocity": 1,
                    "duration": 0.5397721875000059
                },
                {
                    "name": "C5",
                    "midi": 72,
                    "time": 205.09070399999987,
                    "velocity": 1,
                    "duration": 0.5397721875000059
                },
                {
                    "name": "A4",
                    "midi": 69,
                    "time": 205.09070399999987,
                    "velocity": 1,
                    "duration": 0.5397721875000059
                },
                {
                    "name": "G4",
                    "midi": 67,
                    "time": 205.63615799999988,
                    "velocity": 1,
                    "duration": 0.36363600000001384
                },
                {
                    "name": "E5",
                    "midi": 76,
                    "time": 205.63615799999988,
                    "velocity": 1,
                    "duration": 0.6363630000000171
                },
                {
                    "name": "C5",
                    "midi": 72,
                    "time": 205.63615799999988,
                    "velocity": 1,
                    "duration": 0.7272720000000277
                },
                {
                    "name": "F4",
                    "midi": 65,
                    "time": 206.1816119999999,
                    "velocity": 1,
                    "duration": 0.36363600000004226
                },
                {
                    "name": "F5",
                    "midi": 77,
                    "time": 206.3179754999999,
                    "velocity": 1,
                    "duration": 0.2727270000000317
                },
                {
                    "name": "B4",
                    "midi": 71,
                    "time": 206.45433899999992,
                    "velocity": 1,
                    "duration": 0.36363600000001384
                },
                {
                    "name": "D5",
                    "midi": 74,
                    "time": 206.86342949999994,
                    "velocity": 1,
                    "duration": 0.09090900000001056
                },
                {
                    "name": "C5",
                    "midi": 72,
                    "time": 206.99979299999995,
                    "velocity": 1,
                    "duration": 0.09090900000001056
                },
                {
                    "name": "A#4",
                    "midi": 70,
                    "time": 207.13615649999997,
                    "velocity": 1,
                    "duration": 0.09090900000001056
                },
                {
                    "name": "A4",
                    "midi": 69,
                    "time": 207.27252,
                    "velocity": 1,
                    "duration": 0.4034086874999616
                },
                {
                    "name": "C5",
                    "midi": 72,
                    "time": 207.40888349999997,
                    "velocity": 1,
                    "duration": 0.13068168749998677
                },
                {
                    "name": "F5",
                    "midi": 77,
                    "time": 207.54524699999996,
                    "velocity": 1,
                    "duration": 0.5397721874999775
                },
                {
                    "name": "A4",
                    "midi": 69,
                    "time": 207.68161049999995,
                    "velocity": 1,
                    "duration": 0.13068168749998677
                },
                {
                    "name": "G4",
                    "midi": 67,
                    "time": 207.81797399999994,
                    "velocity": 1,
                    "duration": 0.5397721875000059
                },
                {
                    "name": "E5",
                    "midi": 76,
                    "time": 208.09070099999994,
                    "velocity": 1,
                    "duration": 0.2670451875000026
                },
                {
                    "name": "C5",
                    "midi": 72,
                    "time": 208.09070099999994,
                    "velocity": 1,
                    "duration": 0.2670451875000026
                },
                {
                    "name": "A#4",
                    "midi": 70,
                    "time": 208.09070099999994,
                    "velocity": 1,
                    "duration": 0.2670451875000026
                },
                {
                    "name": "F4",
                    "midi": 65,
                    "time": 208.36342799999994,
                    "velocity": 1,
                    "duration": 1.9034071875000222
                },
                {
                    "name": "A4",
                    "midi": 69,
                    "time": 208.41456431249995,
                    "velocity": 1,
                    "duration": 1.8522708750000163
                },
                {
                    "name": "F5",
                    "midi": 77,
                    "time": 208.44865518749995,
                    "velocity": 1,
                    "duration": 1.8181800000000123
                },
                {
                    "name": "C5",
                    "midi": 72,
                    "time": 208.48274606249996,
                    "velocity": 1,
                    "duration": 1.7840891250000084
                }
            ],
            "controlChanges": {
                "7": [
                    {
                        "number": 7,
                        "time": 0,
                        "value": 0.7874015748031497
                    }
                ]
            },
            "id": 3,
            "name": "Manual 1 RH",
            "instrumentNumber": 6,
            "instrument": "harpsichord",
            "instrumentFamily": "piano",
            "channelNumber": 0,
            "isPercussion": false
        },
        {
            "startTime": 0,
            "duration": 210.2668351874998,
            "length": 619,
            "notes": [
                {
                    "name": "F3",
                    "midi": 53,
                    "time": 0,
                    "velocity": 1,
                    "duration": 0.5397721875
                },
                {
                    "name": "C3",
                    "midi": 48,
                    "time": 0,
                    "velocity": 1,
                    "duration": 0.5397721875
                },
                {
                    "name": "A2",
                    "midi": 45,
                    "time": 0,
                    "velocity": 1,
                    "duration": 0.5397721875
                },
                {
                    "name": "F2",
                    "midi": 41,
                    "time": 0,
                    "velocity": 1,
                    "duration": 0.5397721875
                },
                {
                    "name": "F4",
                    "midi": 65,
                    "time": 1.363635,
                    "velocity": 1,
                    "duration": 0.18181800000000004
                },
                {
                    "name": "D4",
                    "midi": 62,
                    "time": 1.6363619999999999,
                    "velocity": 1,
                    "duration": 0.18181800000000004
                },
                {
                    "name": "A#3",
                    "midi": 58,
                    "time": 1.9090889999999998,
                    "velocity": 1,
                    "duration": 0.1818179999999998
                },
                {
                    "name": "F3",
                    "midi": 53,
                    "time": 2.4545429999999997,
                    "velocity": 1,
                    "duration": 0.1818179999999998
                },
                {
                    "name": "D3",
                    "midi": 50,
                    "time": 2.7272699999999994,
                    "velocity": 1,
                    "duration": 0.1818179999999998
                },
                {
                    "name": "A#2",
                    "midi": 46,
                    "time": 2.999996999999999,
                    "velocity": 1,
                    "duration": 0.1818179999999998
                },
                {
                    "name": "F3",
                    "midi": 53,
                    "time": 3.272723999999999,
                    "velocity": 1,
                    "duration": 0.5397721875000001
                },
                {
                    "name": "F2",
                    "midi": 41,
                    "time": 3.545450999999999,
                    "velocity": 1,
                    "duration": 0.1818179999999998
                },
                {
                    "name": "C4",
                    "midi": 60,
                    "time": 4.363631999999999,
                    "velocity": 1,
                    "duration": 0.5397721874999997
                },
                {
                    "name": "G3",
                    "midi": 55,
                    "time": 4.363631999999999,
                    "velocity": 1,
                    "duration": 0.5397721874999997
                },
                {
                    "name": "E3",
                    "midi": 52,
                    "time": 4.363631999999999,
                    "velocity": 1,
                    "duration": 0.5397721874999997
                },
                {
                    "name": "C3",
                    "midi": 48,
                    "time": 4.363631999999999,
                    "velocity": 1,
                    "duration": 0.5397721874999997
                },
                {
                    "name": "C4",
                    "midi": 60,
                    "time": 6.818174999999998,
                    "velocity": 1,
                    "duration": 0.26704518749999995
                },
                {
                    "name": "A3",
                    "midi": 57,
                    "time": 7.090901999999998,
                    "velocity": 1,
                    "duration": 0.26704518749999995
                },
                {
                    "name": "F3",
                    "midi": 53,
                    "time": 7.363628999999998,
                    "velocity": 1,
                    "duration": 0.26704518749999995
                },
                {
                    "name": "C4",
                    "midi": 60,
                    "time": 7.6363559999999975,
                    "velocity": 1,
                    "duration": 0.5397721874999988
                },
                {
                    "name": "C3",
                    "midi": 48,
                    "time": 7.909082999999997,
                    "velocity": 1,
                    "duration": 0.1818179999999998
                },
                {
                    "name": "C4",
                    "midi": 60,
                    "time": 8.727263999999996,
                    "velocity": 1,
                    "duration": 0.5397721875000006
                },
                {
                    "name": "E3",
                    "midi": 52,
                    "time": 8.727263999999996,
                    "velocity": 1,
                    "duration": 0.5397721875000006
                },
                {
                    "name": "C3",
                    "midi": 48,
                    "time": 8.727263999999996,
                    "velocity": 1,
                    "duration": 0.5397721875000006
                },
                {
                    "name": "G3",
                    "midi": 55,
                    "time": 9.272717999999998,
                    "velocity": 1,
                    "duration": 0.3636359999999996
                },
                {
                    "name": "E3",
                    "midi": 52,
                    "time": 9.272717999999998,
                    "velocity": 1,
                    "duration": 0.3636359999999996
                },
                {
                    "name": "C3",
                    "midi": 48,
                    "time": 9.272717999999998,
                    "velocity": 1,
                    "duration": 0.3636359999999996
                },
                {
                    "name": "C4",
                    "midi": 60,
                    "time": 9.272717999999998,
                    "velocity": 1,
                    "duration": 0.7272719999999993
                },
                {
                    "name": "F3",
                    "midi": 53,
                    "time": 9.818171999999997,
                    "velocity": 1,
                    "duration": 0.3636359999999996
                },
                {
                    "name": "A3",
                    "midi": 57,
                    "time": 10.090898999999997,
                    "velocity": 1,
                    "duration": 0.1818179999999998
                },
                {
                    "name": "C4",
                    "midi": 60,
                    "time": 10.363625999999996,
                    "velocity": 1,
                    "duration": 0.1818179999999998
                },
                {
                    "name": "F4",
                    "midi": 65,
                    "time": 10.636352999999996,
                    "velocity": 1,
                    "duration": 0.1818179999999998
                },
                {
                    "name": "A3",
                    "midi": 57,
                    "time": 10.909079999999996,
                    "velocity": 1,
                    "duration": 0.5397721875000006
                },
                {
                    "name": "C4",
                    "midi": 60,
                    "time": 10.909079999999996,
                    "velocity": 1,
                    "duration": 0.5397721875000006
                },
                {
                    "name": "F4",
                    "midi": 65,
                    "time": 10.909079999999996,
                    "velocity": 1,
                    "duration": 0.5397721875000006
                },
                {
                    "name": "F3",
                    "midi": 53,
                    "time": 11.454533999999997,
                    "velocity": 1,
                    "duration": 0.5397721875000006
                },
                {
                    "name": "A3",
                    "midi": 57,
                    "time": 11.454533999999997,
                    "velocity": 1,
                    "duration": 0.5397721875000006
                },
                {
                    "name": "C4",
                    "midi": 60,
                    "time": 11.454533999999997,
                    "velocity": 1,
                    "duration": 0.5397721875000006
                },
                {
                    "name": "F4",
                    "midi": 65,
                    "time": 11.454533999999997,
                    "velocity": 1,
                    "duration": 0.812499187500002
                },
                {
                    "name": "A#3",
                    "midi": 58,
                    "time": 11.999987999999998,
                    "velocity": 1,
                    "duration": 0.5397721875000006
                },
                {
                    "name": "D4",
                    "midi": 62,
                    "time": 12.272715,
                    "velocity": 1,
                    "duration": 0.1818179999999998
                },
                {
                    "name": "F4",
                    "midi": 65,
                    "time": 12.545442,
                    "velocity": 1,
                    "duration": 0.1818179999999998
                },
                {
                    "name": "D4",
                    "midi": 62,
                    "time": 14.181804,
                    "velocity": 1,
                    "duration": 0.5397721875000006
                },
                {
                    "name": "B3",
                    "midi": 59,
                    "time": 14.181804,
                    "velocity": 1,
                    "duration": 0.5397721875000006
                },
                {
                    "name": "G3",
                    "midi": 55,
                    "time": 14.181804,
                    "velocity": 1,
                    "duration": 0.5397721875000006
                },
                {
                    "name": "E4",
                    "midi": 64,
                    "time": 14.727258,
                    "velocity": 1,
                    "duration": 0.3636359999999996
                },
                {
                    "name": "G3",
                    "midi": 55,
                    "time": 14.727258,
                    "velocity": 1,
                    "duration": 0.3636359999999996
                },
                {
                    "name": "C3",
                    "midi": 48,
                    "time": 14.727258,
                    "velocity": 1,
                    "duration": 0.3636359999999996
                },
                {
                    "name": "C4",
                    "midi": 60,
                    "time": 15.545439,
                    "velocity": 1,
                    "duration": 0.1306816874999992
                },
                {
                    "name": "D4",
                    "midi": 62,
                    "time": 15.6818025,
                    "velocity": 1,
                    "duration": 0.1306816874999992
                },
                {
                    "name": "E4",
                    "midi": 64,
                    "time": 15.818166,
                    "velocity": 1,
                    "duration": 0.1818179999999998
                },
                {
                    "name": "C3",
                    "midi": 48,
                    "time": 16.909074,
                    "velocity": 1,
                    "duration": 0.5397721874999988
                },
                {
                    "name": "C4",
                    "midi": 60,
                    "time": 17.590891499999998,
                    "velocity": 1,
                    "duration": 0.0909089999999999
                },
                {
                    "name": "D4",
                    "midi": 62,
                    "time": 17.727255,
                    "velocity": 1,
                    "duration": 0.0909089999999999
                },
                {
                    "name": "E4",
                    "midi": 64,
                    "time": 17.8636185,
                    "velocity": 1,
                    "duration": 0.0909089999999999
                },
                {
                    "name": "F4",
                    "midi": 65,
                    "time": 17.999982000000003,
                    "velocity": 1,
                    "duration": 0.26704518749999906
                },
                {
                    "name": "F4",
                    "midi": 65,
                    "time": 18.545436000000002,
                    "velocity": 1,
                    "duration": 0.26704518749999906
                },
                {
                    "name": "C4",
                    "midi": 60,
                    "time": 18.818163000000002,
                    "velocity": 1,
                    "duration": 0.26704518749999906
                },
                {
                    "name": "C3",
                    "midi": 48,
                    "time": 19.09089,
                    "velocity": 1,
                    "duration": 0.5397721874999988
                },
                {
                    "name": "D4",
                    "midi": 62,
                    "time": 19.909071,
                    "velocity": 1,
                    "duration": 0.0909089999999999
                },
                {
                    "name": "E4",
                    "midi": 64,
                    "time": 20.045434500000002,
                    "velocity": 1,
                    "duration": 0.0909089999999999
                },
                {
                    "name": "F4",
                    "midi": 65,
                    "time": 20.181798000000004,
                    "velocity": 1,
                    "duration": 0.1818179999999998
                },
                {
                    "name": "D4",
                    "midi": 62,
                    "time": 20.454525000000004,
                    "velocity": 1,
                    "duration": 0.13068168750000098
                },
                {
                    "name": "E4",
                    "midi": 64,
                    "time": 20.590888500000005,
                    "velocity": 1,
                    "duration": 0.13068168750000098
                },
                {
                    "name": "F4",
                    "midi": 65,
                    "time": 20.727252000000007,
                    "velocity": 1,
                    "duration": 0.26704518749999906
                },
                {
                    "name": "D4",
                    "midi": 62,
                    "time": 20.999979000000007,
                    "velocity": 1,
                    "duration": 0.26704518749999906
                },
                {
                    "name": "G3",
                    "midi": 55,
                    "time": 21.272706000000007,
                    "velocity": 1,
                    "duration": 0.26704518749999906
                },
                {
                    "name": "B3",
                    "midi": 59,
                    "time": 21.545433000000006,
                    "velocity": 1,
                    "duration": 0.26704518749999906
                },
                {
                    "name": "C4",
                    "midi": 60,
                    "time": 21.818160000000006,
                    "velocity": 1,
                    "duration": 0.1818179999999998
                },
                {
                    "name": "C3",
                    "midi": 48,
                    "time": 22.090887000000006,
                    "velocity": 1,
                    "duration": 0.13068168750000098
                },
                {
                    "name": "D3",
                    "midi": 50,
                    "time": 22.227250500000007,
                    "velocity": 1,
                    "duration": 0.13068168750000098
                },
                {
                    "name": "E3",
                    "midi": 52,
                    "time": 22.36361400000001,
                    "velocity": 1,
                    "duration": 0.26704518749999906
                },
                {
                    "name": "G3",
                    "midi": 55,
                    "time": 22.63634100000001,
                    "velocity": 1,
                    "duration": 0.26704518749999906
                },
                {
                    "name": "C4",
                    "midi": 60,
                    "time": 22.90906800000001,
                    "velocity": 1,
                    "duration": 0.1818179999999998
                },
                {
                    "name": "C3",
                    "midi": 48,
                    "time": 23.181795000000008,
                    "velocity": 1,
                    "duration": 0.13068168750000098
                },
                {
                    "name": "D3",
                    "midi": 50,
                    "time": 23.31815850000001,
                    "velocity": 1,
                    "duration": 0.13068168750000098
                },
                {
                    "name": "E3",
                    "midi": 52,
                    "time": 23.45452200000001,
                    "velocity": 1,
                    "duration": 0.26704518749999906
                },
                {
                    "name": "F3",
                    "midi": 53,
                    "time": 23.72724900000001,
                    "velocity": 1,
                    "duration": 0.26704518749999906
                },
                {
                    "name": "G3",
                    "midi": 55,
                    "time": 23.99997600000001,
                    "velocity": 1,
                    "duration": 0.1818179999999998
                },
                {
                    "name": "C3",
                    "midi": 48,
                    "time": 24.27270300000001,
                    "velocity": 1,
                    "duration": 0.13068168750000098
                },
                {
                    "name": "E3",
                    "midi": 52,
                    "time": 24.409066500000012,
                    "velocity": 1,
                    "duration": 0.13068168750000098
                },
                {
                    "name": "G3",
                    "midi": 55,
                    "time": 24.545430000000014,
                    "velocity": 1,
                    "duration": 0.26704518749999906
                },
                {
                    "name": "A3",
                    "midi": 57,
                    "time": 24.818157000000014,
                    "velocity": 1,
                    "duration": 0.26704518749999906
                },
                {
                    "name": "A#3",
                    "midi": 58,
                    "time": 25.090884000000013,
                    "velocity": 1,
                    "duration": 0.1818179999999998
                },
                {
                    "name": "C3",
                    "midi": 48,
                    "time": 25.363611000000013,
                    "velocity": 1,
                    "duration": 0.13068168750000098
                },
                {
                    "name": "D3",
                    "midi": 50,
                    "time": 25.499974500000015,
                    "velocity": 1,
                    "duration": 0.13068168750000098
                },
                {
                    "name": "E3",
                    "midi": 52,
                    "time": 25.636338000000016,
                    "velocity": 1,
                    "duration": 0.26704518749999906
                },
                {
                    "name": "C3",
                    "midi": 48,
                    "time": 25.909065000000016,
                    "velocity": 1,
                    "duration": 0.26704518749999906
                },
                {
                    "name": "F3",
                    "midi": 53,
                    "time": 26.181792000000016,
                    "velocity": 1,
                    "duration": 0.13068168750000098
                },
                {
                    "name": "A3",
                    "midi": 57,
                    "time": 26.318155500000017,
                    "velocity": 1,
                    "duration": 0.13068168750000098
                },
                {
                    "name": "G3",
                    "midi": 55,
                    "time": 26.45451900000002,
                    "velocity": 1,
                    "duration": 0.13068168750000098
                },
                {
                    "name": "F3",
                    "midi": 53,
                    "time": 26.59088250000002,
                    "velocity": 1,
                    "duration": 0.13068168750000098
                },
                {
                    "name": "E3",
                    "midi": 52,
                    "time": 26.727246000000022,
                    "velocity": 1,
                    "duration": 0.13068168750000098
                },
                {
                    "name": "D3",
                    "midi": 50,
                    "time": 26.863609500000024,
                    "velocity": 1,
                    "duration": 0.13068168750000098
                },
                {
                    "name": "C3",
                    "midi": 48,
                    "time": 26.999973000000026,
                    "velocity": 1,
                    "duration": 0.13068168750000098
                },
                {
                    "name": "A#2",
                    "midi": 46,
                    "time": 27.136336500000027,
                    "velocity": 1,
                    "duration": 0.13068168750000098
                },
                {
                    "name": "A2",
                    "midi": 45,
                    "time": 27.27270000000003,
                    "velocity": 1,
                    "duration": 0.13068168750000098
                },
                {
                    "name": "C3",
                    "midi": 48,
                    "time": 27.40906350000003,
                    "velocity": 1,
                    "duration": 0.13068168750000098
                },
                {
                    "name": "D3",
                    "midi": 50,
                    "time": 27.545427000000032,
                    "velocity": 1,
                    "duration": 0.13068168750000098
                },
                {
                    "name": "E3",
                    "midi": 52,
                    "time": 27.681790500000034,
                    "velocity": 1,
                    "duration": 0.13068168750000098
                },
                {
                    "name": "F3",
                    "midi": 53,
                    "time": 27.818154000000035,
                    "velocity": 1,
                    "duration": 0.13068168750000098
                },
                {
                    "name": "G3",
                    "midi": 55,
                    "time": 27.954517500000037,
                    "velocity": 1,
                    "duration": 0.13068168750000098
                },
                {
                    "name": "A3",
                    "midi": 57,
                    "time": 28.09088100000004,
                    "velocity": 1,
                    "duration": 0.13068168750000098
                },
                {
                    "name": "A#3",
                    "midi": 58,
                    "time": 28.22724450000004,
                    "velocity": 1,
                    "duration": 0.13068168750000098
                },
                {
                    "name": "C4",
                    "midi": 60,
                    "time": 28.363608000000042,
                    "velocity": 1,
                    "duration": 0.5397721874999988
                },
                {
                    "name": "C3",
                    "midi": 48,
                    "time": 28.90906200000004,
                    "velocity": 1,
                    "duration": 0.3636359999999996
                },
                {
                    "name": "D3",
                    "midi": 50,
                    "time": 29.45451600000004,
                    "velocity": 1,
                    "duration": 0.5397721874999988
                },
                {
                    "name": "E3",
                    "midi": 52,
                    "time": 30.27269700000004,
                    "velocity": 1,
                    "duration": 0.1818179999999998
                },
                {
                    "name": "F3",
                    "midi": 53,
                    "time": 30.54542400000004,
                    "velocity": 1,
                    "duration": 0.26704518749999906
                },
                {
                    "name": "A2",
                    "midi": 45,
                    "time": 30.81815100000004,
                    "velocity": 1,
                    "duration": 0.26704518749999906
                },
                {
                    "name": "A#2",
                    "midi": 46,
                    "time": 31.09087800000004,
                    "velocity": 1,
                    "duration": 0.26704518749999906
                },
                {
                    "name": "C3",
                    "midi": 48,
                    "time": 31.36360500000004,
                    "velocity": 1,
                    "duration": 0.26704518749999906
                },
                {
                    "name": "F2",
                    "midi": 41,
                    "time": 31.63633200000004,
                    "velocity": 1,
                    "duration": 0.1818179999999998
                },
                {
                    "name": "C4",
                    "midi": 60,
                    "time": 55.77267150000004,
                    "velocity": 1,
                    "duration": 0.13068168750000098
                },
                {
                    "name": "B3",
                    "midi": 59,
                    "time": 55.90903500000004,
                    "velocity": 1,
                    "duration": 0.13068168750000098
                },
                {
                    "name": "A3",
                    "midi": 57,
                    "time": 56.04539850000004,
                    "velocity": 1,
                    "duration": 0.13068168750000098
                },
                {
                    "name": "G3",
                    "midi": 55,
                    "time": 56.18176200000004,
                    "velocity": 1,
                    "duration": 0.13068168750000098
                },
                {
                    "name": "F3",
                    "midi": 53,
                    "time": 56.31812550000004,
                    "velocity": 1,
                    "duration": 0.13068168750000098
                },
                {
                    "name": "E3",
                    "midi": 52,
                    "time": 56.454489000000045,
                    "velocity": 1,
                    "duration": 0.13068168750000098
                },
                {
                    "name": "D3",
                    "midi": 50,
                    "time": 56.59085250000005,
                    "velocity": 1,
                    "duration": 0.13068168750000098
                },
                {
                    "name": "C3",
                    "midi": 48,
                    "time": 56.72721600000005,
                    "velocity": 1,
                    "duration": 0.09090900000000346
                },
                {
                    "name": "C3",
                    "midi": 48,
                    "time": 56.86357950000005,
                    "velocity": 1,
                    "duration": 0.13068168750000098
                },
                {
                    "name": "B2",
                    "midi": 47,
                    "time": 56.99994300000005,
                    "velocity": 1,
                    "duration": 0.13068168750000098
                },
                {
                    "name": "A2",
                    "midi": 45,
                    "time": 57.13630650000005,
                    "velocity": 1,
                    "duration": 0.13068168750000098
                },
                {
                    "name": "G2",
                    "midi": 43,
                    "time": 57.272670000000055,
                    "velocity": 1,
                    "duration": 0.13068168750000098
                },
                {
                    "name": "F2",
                    "midi": 41,
                    "time": 57.40903350000006,
                    "velocity": 1,
                    "duration": 0.13068168750000098
                },
                {
                    "name": "E2",
                    "midi": 40,
                    "time": 57.54539700000006,
                    "velocity": 1,
                    "duration": 0.13068168750000098
                },
                {
                    "name": "D2",
                    "midi": 38,
                    "time": 57.68176050000006,
                    "velocity": 1,
                    "duration": 0.13068168750000098
                },
                {
                    "name": "C2",
                    "midi": 36,
                    "time": 57.81812400000006,
                    "velocity": 1,
                    "duration": 0.2670451875000026
                },
                {
                    "name": "C4",
                    "midi": 60,
                    "time": 58.090851000000065,
                    "velocity": 1,
                    "duration": 0.2670451875000026
                },
                {
                    "name": "A3",
                    "midi": 57,
                    "time": 58.36357800000007,
                    "velocity": 1,
                    "duration": 0.2670451875000026
                },
                {
                    "name": "F3",
                    "midi": 53,
                    "time": 58.63630500000007,
                    "velocity": 1,
                    "duration": 0.2670451875000026
                },
                {
                    "name": "C3",
                    "midi": 48,
                    "time": 58.909032000000074,
                    "velocity": 1,
                    "duration": 1.3579531875000157
                },
                {
                    "name": "G2",
                    "midi": 43,
                    "time": 59.18175900000008,
                    "velocity": 1,
                    "duration": 0.2670451875000026
                },
                {
                    "name": "E2",
                    "midi": 40,
                    "time": 59.45448600000008,
                    "velocity": 1,
                    "duration": 0.2670451875000026
                },
                {
                    "name": "C2",
                    "midi": 36,
                    "time": 59.727213000000084,
                    "velocity": 1,
                    "duration": 0.2670451875000026
                },
                {
                    "name": "F2",
                    "midi": 41,
                    "time": 59.99994000000009,
                    "velocity": 1,
                    "duration": 0.2670451875000026
                },
                {
                    "name": "C4",
                    "midi": 60,
                    "time": 60.54539400000009,
                    "velocity": 1,
                    "duration": 0.13068168750000098
                },
                {
                    "name": "A#3",
                    "midi": 58,
                    "time": 60.68175750000009,
                    "velocity": 1,
                    "duration": 0.13068168750000098
                },
                {
                    "name": "A3",
                    "midi": 57,
                    "time": 60.81812100000009,
                    "velocity": 1,
                    "duration": 0.13068168750000098
                },
                {
                    "name": "G3",
                    "midi": 55,
                    "time": 60.95448450000009,
                    "velocity": 1,
                    "duration": 0.13068168750000098
                },
                {
                    "name": "F3",
                    "midi": 53,
                    "time": 61.09084800000009,
                    "velocity": 1,
                    "duration": 0.09090900000000346
                },
                {
                    "name": "F3",
                    "midi": 53,
                    "time": 61.227211500000095,
                    "velocity": 1,
                    "duration": 0.13068168750000098
                },
                {
                    "name": "E3",
                    "midi": 52,
                    "time": 61.3635750000001,
                    "velocity": 1,
                    "duration": 0.13068168750000098
                },
                {
                    "name": "D3",
                    "midi": 50,
                    "time": 61.4999385000001,
                    "velocity": 1,
                    "duration": 0.13068168750000098
                },
                {
                    "name": "C3",
                    "midi": 48,
                    "time": 61.6363020000001,
                    "velocity": 1,
                    "duration": 0.13068168750000098
                },
                {
                    "name": "A#2",
                    "midi": 46,
                    "time": 61.7726655000001,
                    "velocity": 1,
                    "duration": 0.13068168750000098
                },
                {
                    "name": "A2",
                    "midi": 45,
                    "time": 61.9090290000001,
                    "velocity": 1,
                    "duration": 0.13068168750000098
                },
                {
                    "name": "G2",
                    "midi": 43,
                    "time": 62.045392500000105,
                    "velocity": 1,
                    "duration": 0.13068168750000098
                },
                {
                    "name": "F2",
                    "midi": 41,
                    "time": 62.18175600000011,
                    "velocity": 1,
                    "duration": 0.2670451875000026
                },
                {
                    "name": "F4",
                    "midi": 65,
                    "time": 62.45448300000011,
                    "velocity": 1,
                    "duration": 0.2670451875000026
                },
                {
                    "name": "D4",
                    "midi": 62,
                    "time": 62.72721000000011,
                    "velocity": 1,
                    "duration": 0.2670451875000026
                },
                {
                    "name": "A#3",
                    "midi": 58,
                    "time": 62.999937000000116,
                    "velocity": 1,
                    "duration": 0.2670451875000026
                },
                {
                    "name": "F3",
                    "midi": 53,
                    "time": 63.27266400000012,
                    "velocity": 1,
                    "duration": 1.27272600000002
                },
                {
                    "name": "C3",
                    "midi": 48,
                    "time": 63.54539100000012,
                    "velocity": 1,
                    "duration": 0.2670451875000026
                },
                {
                    "name": "A2",
                    "midi": 45,
                    "time": 63.818118000000126,
                    "velocity": 1,
                    "duration": 0.2670451875000026
                },
                {
                    "name": "F2",
                    "midi": 41,
                    "time": 64.09084500000013,
                    "velocity": 1,
                    "duration": 0.2670451875000026
                },
                {
                    "name": "A#2",
                    "midi": 46,
                    "time": 64.36357200000013,
                    "velocity": 1,
                    "duration": 0.2670451875000026
                },
                {
                    "name": "F4",
                    "midi": 65,
                    "time": 64.90902600000014,
                    "velocity": 1,
                    "duration": 0.13068168750000098
                },
                {
                    "name": "D#4",
                    "midi": 63,
                    "time": 65.04538950000014,
                    "velocity": 1,
                    "duration": 0.13068168750000098
                },
                {
                    "name": "D4",
                    "midi": 62,
                    "time": 65.18175300000014,
                    "velocity": 1,
                    "duration": 0.13068168750000098
                },
                {
                    "name": "C4",
                    "midi": 60,
                    "time": 65.31811650000014,
                    "velocity": 1,
                    "duration": 0.13068168750000098
                },
                {
                    "name": "A#3",
                    "midi": 58,
                    "time": 65.45448000000015,
                    "velocity": 1,
                    "duration": 0.18181800000000692
                },
                {
                    "name": "A#3",
                    "midi": 58,
                    "time": 66.13629750000015,
                    "velocity": 1,
                    "duration": 0.13068168750000098
                },
                {
                    "name": "A3",
                    "midi": 57,
                    "time": 66.27266100000016,
                    "velocity": 1,
                    "duration": 0.13068168750000098
                },
                {
                    "name": "G3",
                    "midi": 55,
                    "time": 66.40902450000016,
                    "velocity": 1,
                    "duration": 0.13068168750000098
                },
                {
                    "name": "A3",
                    "midi": 57,
                    "time": 66.54538800000016,
                    "velocity": 1,
                    "duration": 0.18181800000000692
                },
                {
                    "name": "F4",
                    "midi": 65,
                    "time": 66.81811500000016,
                    "velocity": 1,
                    "duration": 0.40340868750000425
                },
                {
                    "name": "A3",
                    "midi": 57,
                    "time": 67.22720550000017,
                    "velocity": 1,
                    "duration": 0.09090899999999635
                },
                {
                    "name": "G3",
                    "midi": 55,
                    "time": 67.36356900000017,
                    "velocity": 1,
                    "duration": 0.09090899999999635
                },
                {
                    "name": "F3",
                    "midi": 53,
                    "time": 67.49993250000017,
                    "velocity": 1,
                    "duration": 0.09090899999999635
                },
                {
                    "name": "G3",
                    "midi": 55,
                    "time": 67.63629600000017,
                    "velocity": 1,
                    "duration": 0.18181800000000692
                },
                {
                    "name": "E4",
                    "midi": 64,
                    "time": 67.90902300000018,
                    "velocity": 1,
                    "duration": 0.40340868750000425
                },
                {
                    "name": "D4",
                    "midi": 62,
                    "time": 68.31811350000018,
                    "velocity": 1,
                    "duration": 0.13068168750000098
                },
                {
                    "name": "C#4",
                    "midi": 61,
                    "time": 68.45447700000018,
                    "velocity": 1,
                    "duration": 0.13068168750000098
                },
                {
                    "name": "D4",
                    "midi": 62,
                    "time": 68.59084050000018,
                    "velocity": 1,
                    "duration": 0.13068168750000098
                },
                {
                    "name": "G3",
                    "midi": 55,
                    "time": 68.72720400000019,
                    "velocity": 1,
                    "duration": 0.09090899999999635
                },
                {
                    "name": "D4",
                    "midi": 62,
                    "time": 68.86356750000019,
                    "velocity": 1,
                    "duration": 0.13068168750000098
                },
                {
                    "name": "C#4",
                    "midi": 61,
                    "time": 68.99993100000019,
                    "velocity": 1,
                    "duration": 0.13068168750000098
                },
                {
                    "name": "E4",
                    "midi": 64,
                    "time": 69.13629450000019,
                    "velocity": 1,
                    "duration": 0.13068168750000098
                },
                {
                    "name": "A3",
                    "midi": 57,
                    "time": 69.27265800000019,
                    "velocity": 1,
                    "duration": 0.09090899999999635
                },
                {
                    "name": "G3",
                    "midi": 55,
                    "time": 69.4090215000002,
                    "velocity": 1,
                    "duration": 0.09090899999999635
                },
                {
                    "name": "F3",
                    "midi": 53,
                    "time": 69.5453850000002,
                    "velocity": 1,
                    "duration": 0.09090899999999635
                },
                {
                    "name": "E3",
                    "midi": 52,
                    "time": 69.6817485000002,
                    "velocity": 1,
                    "duration": 0.09090899999999635
                },
                {
                    "name": "F3",
                    "midi": 53,
                    "time": 69.8181120000002,
                    "velocity": 1,
                    "duration": 0.2670451875000026
                },
                {
                    "name": "G3",
                    "midi": 55,
                    "time": 70.0908390000002,
                    "velocity": 1,
                    "duration": 0.2670451875000026
                },
                {
                    "name": "F3",
                    "midi": 53,
                    "time": 70.3635660000002,
                    "velocity": 1,
                    "duration": 0.2670451875000026
                },
                {
                    "name": "E3",
                    "midi": 52,
                    "time": 70.63629300000021,
                    "velocity": 1,
                    "duration": 0.2670451875000026
                },
                {
                    "name": "D3",
                    "midi": 50,
                    "time": 70.90902000000021,
                    "velocity": 1,
                    "duration": 0.2670451875000026
                },
                {
                    "name": "A#3",
                    "midi": 58,
                    "time": 71.18174700000021,
                    "velocity": 1,
                    "duration": 0.2670451875000026
                },
                {
                    "name": "A3",
                    "midi": 57,
                    "time": 71.45447400000022,
                    "velocity": 1,
                    "duration": 0.2670451875000026
                },
                {
                    "name": "G3",
                    "midi": 55,
                    "time": 71.72720100000022,
                    "velocity": 1,
                    "duration": 0.2670451875000026
                },
                {
                    "name": "F3",
                    "midi": 53,
                    "time": 71.99992800000022,
                    "velocity": 1,
                    "duration": 0.2670451875000026
                },
                {
                    "name": "C#4",
                    "midi": 61,
                    "time": 74.31810750000022,
                    "velocity": 1,
                    "duration": 0.13068168750000098
                },
                {
                    "name": "D4",
                    "midi": 62,
                    "time": 74.45447100000023,
                    "velocity": 1,
                    "duration": 0.13068168750000098
                },
                {
                    "name": "E4",
                    "midi": 64,
                    "time": 74.59083450000023,
                    "velocity": 1,
                    "duration": 0.13068168750000098
                },
                {
                    "name": "D4",
                    "midi": 62,
                    "time": 74.72719800000023,
                    "velocity": 1,
                    "duration": 0.13068168750000098
                },
                {
                    "name": "C#4",
                    "midi": 61,
                    "time": 74.86356150000023,
                    "velocity": 1,
                    "duration": 0.13068168750000098
                },
                {
                    "name": "D4",
                    "midi": 62,
                    "time": 74.99992500000023,
                    "velocity": 1,
                    "duration": 0.09090899999999635
                },
                {
                    "name": "F3",
                    "midi": 53,
                    "time": 75.13628850000023,
                    "velocity": 1,
                    "duration": 0.09090899999999635
                },
                {
                    "name": "G3",
                    "midi": 55,
                    "time": 75.27265200000024,
                    "velocity": 1,
                    "duration": 0.09090899999999635
                },
                {
                    "name": "C#4",
                    "midi": 61,
                    "time": 75.40901550000024,
                    "velocity": 1,
                    "duration": 0.13068168750000098
                },
                {
                    "name": "D4",
                    "midi": 62,
                    "time": 75.54537900000024,
                    "velocity": 1,
                    "duration": 0.13068168750000098
                },
                {
                    "name": "E4",
                    "midi": 64,
                    "time": 75.68174250000024,
                    "velocity": 1,
                    "duration": 0.13068168750000098
                },
                {
                    "name": "D4",
                    "midi": 62,
                    "time": 75.81810600000024,
                    "velocity": 1,
                    "duration": 0.13068168750000098
                },
                {
                    "name": "C#4",
                    "midi": 61,
                    "time": 75.95446950000024,
                    "velocity": 1,
                    "duration": 0.13068168750000098
                },
                {
                    "name": "D4",
                    "midi": 62,
                    "time": 76.09083300000025,
                    "velocity": 1,
                    "duration": 0.09090899999999635
                },
                {
                    "name": "G3",
                    "midi": 55,
                    "time": 76.22719650000025,
                    "velocity": 1,
                    "duration": 0.09090899999999635
                },
                {
                    "name": "A3",
                    "midi": 57,
                    "time": 76.36356000000025,
                    "velocity": 1,
                    "duration": 0.09090899999999635
                },
                {
                    "name": "C#4",
                    "midi": 61,
                    "time": 76.49992350000025,
                    "velocity": 1,
                    "duration": 0.13068168750000098
                },
                {
                    "name": "D4",
                    "midi": 62,
                    "time": 76.63628700000025,
                    "velocity": 1,
                    "duration": 0.13068168750000098
                },
                {
                    "name": "E4",
                    "midi": 64,
                    "time": 76.77265050000025,
                    "velocity": 1,
                    "duration": 0.13068168750000098
                },
                {
                    "name": "D4",
                    "midi": 62,
                    "time": 76.90901400000025,
                    "velocity": 1,
                    "duration": 0.13068168750000098
                },
                {
                    "name": "C#4",
                    "midi": 61,
                    "time": 77.04537750000026,
                    "velocity": 1,
                    "duration": 0.13068168750000098
                },
                {
                    "name": "D4",
                    "midi": 62,
                    "time": 77.18174100000026,
                    "velocity": 1,
                    "duration": 0.09090899999999635
                },
                {
                    "name": "A3",
                    "midi": 57,
                    "time": 77.31810450000026,
                    "velocity": 1,
                    "duration": 0.09090899999999635
                },
                {
                    "name": "A#3",
                    "midi": 58,
                    "time": 77.45446800000026,
                    "velocity": 1,
                    "duration": 0.09090899999999635
                },
                {
                    "name": "C#4",
                    "midi": 61,
                    "time": 77.59083150000026,
                    "velocity": 1,
                    "duration": 0.13068168750000098
                },
                {
                    "name": "D4",
                    "midi": 62,
                    "time": 77.72719500000026,
                    "velocity": 1,
                    "duration": 0.13068168750000098
                },
                {
                    "name": "E4",
                    "midi": 64,
                    "time": 77.86355850000027,
                    "velocity": 1,
                    "duration": 0.13068168750000098
                },
                {
                    "name": "D4",
                    "midi": 62,
                    "time": 77.99992200000027,
                    "velocity": 1,
                    "duration": 0.13068168750000098
                },
                {
                    "name": "C#4",
                    "midi": 61,
                    "time": 78.13628550000027,
                    "velocity": 1,
                    "duration": 0.13068168750000098
                },
                {
                    "name": "D4",
                    "midi": 62,
                    "time": 78.27264900000027,
                    "velocity": 1,
                    "duration": 0.09090899999999635
                },
                {
                    "name": "F4",
                    "midi": 65,
                    "time": 78.40901250000027,
                    "velocity": 1,
                    "duration": 0.09090899999999635
                },
                {
                    "name": "B3",
                    "midi": 59,
                    "time": 79.09083000000027,
                    "velocity": 1,
                    "duration": 0.3636359999999996
                },
                {
                    "name": "G#3",
                    "midi": 56,
                    "time": 79.09083000000027,
                    "velocity": 1,
                    "duration": 0.3636359999999996
                },
                {
                    "name": "B3",
                    "midi": 59,
                    "time": 79.63628400000027,
                    "velocity": 1,
                    "duration": 0.3636359999999996
                },
                {
                    "name": "G#3",
                    "midi": 56,
                    "time": 79.63628400000027,
                    "velocity": 1,
                    "duration": 0.3636359999999996
                },
                {
                    "name": "E3",
                    "midi": 52,
                    "time": 79.63628400000027,
                    "velocity": 1,
                    "duration": 0.3636359999999996
                },
                {
                    "name": "A3",
                    "midi": 57,
                    "time": 80.18173800000028,
                    "velocity": 1,
                    "duration": 0.3636359999999996
                },
                {
                    "name": "E3",
                    "midi": 52,
                    "time": 80.18173800000028,
                    "velocity": 1,
                    "duration": 0.3636359999999996
                },
                {
                    "name": "A2",
                    "midi": 45,
                    "time": 80.18173800000028,
                    "velocity": 1,
                    "duration": 0.3636359999999996
                },
                {
                    "name": "A3",
                    "midi": 57,
                    "time": 80.99991900000028,
                    "velocity": 1,
                    "duration": 0.13068168750000098
                },
                {
                    "name": "B3",
                    "midi": 59,
                    "time": 81.13628250000028,
                    "velocity": 1,
                    "duration": 0.13068168750000098
                },
                {
                    "name": "C#4",
                    "midi": 61,
                    "time": 81.27264600000028,
                    "velocity": 1,
                    "duration": 0.2670451875000026
                },
                {
                    "name": "E4",
                    "midi": 64,
                    "time": 81.54537300000028,
                    "velocity": 1,
                    "duration": 0.2670451875000026
                },
                {
                    "name": "C#4",
                    "midi": 61,
                    "time": 81.81810000000029,
                    "velocity": 1,
                    "duration": 0.2670451875000026
                },
                {
                    "name": "A3",
                    "midi": 57,
                    "time": 82.09082700000029,
                    "velocity": 1,
                    "duration": 0.2670451875000026
                },
                {
                    "name": "A2",
                    "midi": 45,
                    "time": 82.36355400000029,
                    "velocity": 1,
                    "duration": 0.5397721875000059
                },
                {
                    "name": "A3",
                    "midi": 57,
                    "time": 83.0453715000003,
                    "velocity": 1,
                    "duration": 0.13068168750000098
                },
                {
                    "name": "B3",
                    "midi": 59,
                    "time": 83.1817350000003,
                    "velocity": 1,
                    "duration": 0.13068168750000098
                },
                {
                    "name": "C#4",
                    "midi": 61,
                    "time": 83.3180985000003,
                    "velocity": 1,
                    "duration": 0.13068168750000098
                },
                {
                    "name": "D4",
                    "midi": 62,
                    "time": 83.4544620000003,
                    "velocity": 1,
                    "duration": 0.2670451875000026
                },
                {
                    "name": "F4",
                    "midi": 65,
                    "time": 83.72718900000031,
                    "velocity": 1,
                    "duration": 0.2670451875000026
                },
                {
                    "name": "D4",
                    "midi": 62,
                    "time": 83.99991600000031,
                    "velocity": 1,
                    "duration": 0.2670451875000026
                },
                {
                    "name": "A3",
                    "midi": 57,
                    "time": 84.27264300000031,
                    "velocity": 1,
                    "duration": 0.2670451875000026
                },
                {
                    "name": "A2",
                    "midi": 45,
                    "time": 84.54537000000032,
                    "velocity": 1,
                    "duration": 0.5397721875000059
                },
                {
                    "name": "B3",
                    "midi": 59,
                    "time": 85.36355100000033,
                    "velocity": 1,
                    "duration": 0.13068168750000098
                },
                {
                    "name": "C#4",
                    "midi": 61,
                    "time": 85.49991450000033,
                    "velocity": 1,
                    "duration": 0.13068168750000098
                },
                {
                    "name": "D4",
                    "midi": 62,
                    "time": 85.63627800000033,
                    "velocity": 1,
                    "duration": 0.2670451875000026
                },
                {
                    "name": "B3",
                    "midi": 59,
                    "time": 85.90900500000033,
                    "velocity": 1,
                    "duration": 0.13068168750000098
                },
                {
                    "name": "C#4",
                    "midi": 61,
                    "time": 86.04536850000034,
                    "velocity": 1,
                    "duration": 0.13068168750000098
                },
                {
                    "name": "D4",
                    "midi": 62,
                    "time": 86.18173200000034,
                    "velocity": 1,
                    "duration": 0.2670451875000026
                },
                {
                    "name": "B3",
                    "midi": 59,
                    "time": 86.45445900000034,
                    "velocity": 1,
                    "duration": 0.2670451875000026
                },
                {
                    "name": "E3",
                    "midi": 52,
                    "time": 86.72718600000034,
                    "velocity": 1,
                    "duration": 0.2670451875000026
                },
                {
                    "name": "G#3",
                    "midi": 56,
                    "time": 86.99991300000035,
                    "velocity": 1,
                    "duration": 0.2670451875000026
                },
                {
                    "name": "A3",
                    "midi": 57,
                    "time": 87.27264000000035,
                    "velocity": 1,
                    "duration": 0.18181800000000692
                },
                {
                    "name": "A2",
                    "midi": 45,
                    "time": 87.54536700000035,
                    "velocity": 1,
                    "duration": 0.13068168750000098
                },
                {
                    "name": "B2",
                    "midi": 47,
                    "time": 87.68173050000036,
                    "velocity": 1,
                    "duration": 0.13068168750000098
                },
                {
                    "name": "C#3",
                    "midi": 49,
                    "time": 87.81809400000036,
                    "velocity": 1,
                    "duration": 0.2670451875000026
                },
                {
                    "name": "E3",
                    "midi": 52,
                    "time": 88.09082100000036,
                    "velocity": 1,
                    "duration": 0.2670451875000026
                },
                {
                    "name": "A3",
                    "midi": 57,
                    "time": 88.36354800000036,
                    "velocity": 1,
                    "duration": 0.18181800000000692
                },
                {
                    "name": "A2",
                    "midi": 45,
                    "time": 88.63627500000037,
                    "velocity": 1,
                    "duration": 0.13068168750000098
                },
                {
                    "name": "B2",
                    "midi": 47,
                    "time": 88.77263850000037,
                    "velocity": 1,
                    "duration": 0.13068168750000098
                },
                {
                    "name": "C#3",
                    "midi": 49,
                    "time": 88.90900200000037,
                    "velocity": 1,
                    "duration": 0.2670451875000026
                },
                {
                    "name": "D3",
                    "midi": 50,
                    "time": 89.18172900000037,
                    "velocity": 1,
                    "duration": 0.2670451875000026
                },
                {
                    "name": "E3",
                    "midi": 52,
                    "time": 89.45445600000038,
                    "velocity": 1,
                    "duration": 0.18181800000000692
                },
                {
                    "name": "A2",
                    "midi": 45,
                    "time": 89.72718300000038,
                    "velocity": 1,
                    "duration": 0.13068168750000098
                },
                {
                    "name": "C#3",
                    "midi": 49,
                    "time": 89.86354650000038,
                    "velocity": 1,
                    "duration": 0.13068168750000098
                },
                {
                    "name": "E3",
                    "midi": 52,
                    "time": 89.99991000000038,
                    "velocity": 1,
                    "duration": 0.2670451875000026
                },
                {
                    "name": "F3",
                    "midi": 53,
                    "time": 90.27263700000039,
                    "velocity": 1,
                    "duration": 0.2670451875000026
                },
                {
                    "name": "G3",
                    "midi": 55,
                    "time": 90.54536400000039,
                    "velocity": 1,
                    "duration": 0.2670451875000026
                },
                {
                    "name": "A2",
                    "midi": 45,
                    "time": 90.8180910000004,
                    "velocity": 1,
                    "duration": 0.13068168750000098
                },
                {
                    "name": "B2",
                    "midi": 47,
                    "time": 90.9544545000004,
                    "velocity": 1,
                    "duration": 0.13068168750000098
                },
                {
                    "name": "C#3",
                    "midi": 49,
                    "time": 91.0908180000004,
                    "velocity": 1,
                    "duration": 0.2670451875000026
                },
                {
                    "name": "A2",
                    "midi": 45,
                    "time": 91.3635450000004,
                    "velocity": 1,
                    "duration": 0.2670451875000026
                },
                {
                    "name": "D3",
                    "midi": 50,
                    "time": 91.6362720000004,
                    "velocity": 1,
                    "duration": 0.13068168750000098
                },
                {
                    "name": "F3",
                    "midi": 53,
                    "time": 91.7726355000004,
                    "velocity": 1,
                    "duration": 0.13068168750000098
                },
                {
                    "name": "E3",
                    "midi": 52,
                    "time": 91.9089990000004,
                    "velocity": 1,
                    "duration": 0.13068168750000098
                },
                {
                    "name": "D3",
                    "midi": 50,
                    "time": 92.04536250000041,
                    "velocity": 1,
                    "duration": 0.13068168750000098
                },
                {
                    "name": "C#3",
                    "midi": 49,
                    "time": 92.18172600000041,
                    "velocity": 1,
                    "duration": 0.13068168750000098
                },
                {
                    "name": "B2",
                    "midi": 47,
                    "time": 92.31808950000041,
                    "velocity": 1,
                    "duration": 0.13068168750000098
                },
                {
                    "name": "A2",
                    "midi": 45,
                    "time": 92.45445300000041,
                    "velocity": 1,
                    "duration": 0.13068168750000098
                },
                {
                    "name": "G2",
                    "midi": 43,
                    "time": 92.59081650000041,
                    "velocity": 1,
                    "duration": 0.13068168750000098
                },
                {
                    "name": "F2",
                    "midi": 41,
                    "time": 92.72718000000042,
                    "velocity": 1,
                    "duration": 0.13068168750000098
                },
                {
                    "name": "A2",
                    "midi": 45,
                    "time": 92.86354350000042,
                    "velocity": 1,
                    "duration": 0.13068168750000098
                },
                {
                    "name": "B2",
                    "midi": 47,
                    "time": 92.99990700000042,
                    "velocity": 1,
                    "duration": 0.13068168750000098
                },
                {
                    "name": "C#3",
                    "midi": 49,
                    "time": 93.13627050000042,
                    "velocity": 1,
                    "duration": 0.13068168750000098
                },
                {
                    "name": "D3",
                    "midi": 50,
                    "time": 93.27263400000042,
                    "velocity": 1,
                    "duration": 0.13068168750000098
                },
                {
                    "name": "E3",
                    "midi": 52,
                    "time": 93.40899750000042,
                    "velocity": 1,
                    "duration": 0.13068168750000098
                },
                {
                    "name": "F3",
                    "midi": 53,
                    "time": 93.54536100000043,
                    "velocity": 1,
                    "duration": 0.13068168750000098
                },
                {
                    "name": "G3",
                    "midi": 55,
                    "time": 93.68172450000043,
                    "velocity": 1,
                    "duration": 0.13068168750000098
                },
                {
                    "name": "A3",
                    "midi": 57,
                    "time": 93.81808800000043,
                    "velocity": 1,
                    "duration": 0.5397721875000059
                },
                {
                    "name": "A2",
                    "midi": 45,
                    "time": 94.36354200000044,
                    "velocity": 1,
                    "duration": 0.5397721875000059
                },
                {
                    "name": "A#2",
                    "midi": 46,
                    "time": 94.90899600000044,
                    "velocity": 1,
                    "duration": 0.5397721875000059
                },
                {
                    "name": "C#3",
                    "midi": 49,
                    "time": 95.72717700000045,
                    "velocity": 1,
                    "duration": 0.2670451875000026
                },
                {
                    "name": "D3",
                    "midi": 50,
                    "time": 95.99990400000046,
                    "velocity": 1,
                    "duration": 0.2670451875000026
                },
                {
                    "name": "F2",
                    "midi": 41,
                    "time": 96.27263100000046,
                    "velocity": 1,
                    "duration": 0.2670451875000026
                },
                {
                    "name": "G2",
                    "midi": 43,
                    "time": 96.54535800000046,
                    "velocity": 1,
                    "duration": 0.2670451875000026
                },
                {
                    "name": "A2",
                    "midi": 45,
                    "time": 96.81808500000047,
                    "velocity": 1,
                    "duration": 0.2670451875000026
                },
                {
                    "name": "D2",
                    "midi": 38,
                    "time": 97.09081200000047,
                    "velocity": 1,
                    "duration": 0.18181800000000692
                },
                {
                    "name": "A#3",
                    "midi": 58,
                    "time": 113.72715900000048,
                    "velocity": 1,
                    "duration": 0.2670451875000026
                },
                {
                    "name": "G3",
                    "midi": 55,
                    "time": 113.99988600000049,
                    "velocity": 1,
                    "duration": 0.2670451875000026
                },
                {
                    "name": "D#3",
                    "midi": 51,
                    "time": 114.27261300000049,
                    "velocity": 1,
                    "duration": 0.2670451875000026
                },
                {
                    "name": "A#3",
                    "midi": 58,
                    "time": 114.5453400000005,
                    "velocity": 1,
                    "duration": 0.13068168750000098
                },
                {
                    "name": "C4",
                    "midi": 60,
                    "time": 114.6817035000005,
                    "velocity": 1,
                    "duration": 0.13068168750000098
                },
                {
                    "name": "D4",
                    "midi": 62,
                    "time": 114.8180670000005,
                    "velocity": 1,
                    "duration": 0.13068168750000098
                },
                {
                    "name": "C4",
                    "midi": 60,
                    "time": 114.9544305000005,
                    "velocity": 1,
                    "duration": 0.13068168750000098
                },
                {
                    "name": "A#3",
                    "midi": 58,
                    "time": 115.0907940000005,
                    "velocity": 1,
                    "duration": 0.13068168750000098
                },
                {
                    "name": "A3",
                    "midi": 57,
                    "time": 115.2271575000005,
                    "velocity": 1,
                    "duration": 0.13068168750000098
                },
                {
                    "name": "A#3",
                    "midi": 58,
                    "time": 115.3635210000005,
                    "velocity": 1,
                    "duration": 0.13068168750000098
                },
                {
                    "name": "G3",
                    "midi": 55,
                    "time": 115.4998845000005,
                    "velocity": 1,
                    "duration": 0.13068168750000098
                },
                {
                    "name": "C3",
                    "midi": 48,
                    "time": 115.6362480000005,
                    "velocity": 1,
                    "duration": 0.13068168750000098
                },
                {
                    "name": "G3",
                    "midi": 55,
                    "time": 115.77261150000051,
                    "velocity": 1,
                    "duration": 0.13068168750000098
                },
                {
                    "name": "C4",
                    "midi": 60,
                    "time": 115.90897500000051,
                    "velocity": 1,
                    "duration": 0.13068168750000098
                },
                {
                    "name": "A#3",
                    "midi": 58,
                    "time": 116.04533850000051,
                    "velocity": 1,
                    "duration": 0.13068168750000098
                },
                {
                    "name": "A3",
                    "midi": 57,
                    "time": 116.18170200000051,
                    "velocity": 1,
                    "duration": 0.13068168750000098
                },
                {
                    "name": "G3",
                    "midi": 55,
                    "time": 116.31806550000051,
                    "velocity": 1,
                    "duration": 0.13068168750000098
                },
                {
                    "name": "A3",
                    "midi": 57,
                    "time": 116.45442900000052,
                    "velocity": 1,
                    "duration": 0.13068168750000098
                },
                {
                    "name": "F3",
                    "midi": 53,
                    "time": 116.59079250000052,
                    "velocity": 1,
                    "duration": 0.13068168750000098
                },
                {
                    "name": "A#2",
                    "midi": 46,
                    "time": 116.72715600000052,
                    "velocity": 1,
                    "duration": 0.13068168750000098
                },
                {
                    "name": "F3",
                    "midi": 53,
                    "time": 116.86351950000052,
                    "velocity": 1,
                    "duration": 0.13068168750000098
                },
                {
                    "name": "A#3",
                    "midi": 58,
                    "time": 116.99988300000052,
                    "velocity": 1,
                    "duration": 0.13068168750000098
                },
                {
                    "name": "A3",
                    "midi": 57,
                    "time": 117.13624650000052,
                    "velocity": 1,
                    "duration": 0.13068168750000098
                },
                {
                    "name": "G3",
                    "midi": 55,
                    "time": 117.27261000000053,
                    "velocity": 1,
                    "duration": 0.13068168750000098
                },
                {
                    "name": "F3",
                    "midi": 53,
                    "time": 117.40897350000053,
                    "velocity": 1,
                    "duration": 0.13068168750000098
                },
                {
                    "name": "G3",
                    "midi": 55,
                    "time": 117.54533700000053,
                    "velocity": 1,
                    "duration": 0.13068168750000098
                },
                {
                    "name": "D#3",
                    "midi": 51,
                    "time": 117.68170050000053,
                    "velocity": 1,
                    "duration": 0.13068168750000098
                },
                {
                    "name": "A2",
                    "midi": 45,
                    "time": 117.81806400000053,
                    "velocity": 1,
                    "duration": 0.13068168750000098
                },
                {
                    "name": "D#3",
                    "midi": 51,
                    "time": 117.95442750000053,
                    "velocity": 1,
                    "duration": 0.13068168750000098
                },
                {
                    "name": "A3",
                    "midi": 57,
                    "time": 118.09079100000054,
                    "velocity": 1,
                    "duration": 0.13068168750000098
                },
                {
                    "name": "G3",
                    "midi": 55,
                    "time": 118.22715450000054,
                    "velocity": 1,
                    "duration": 0.13068168750000098
                },
                {
                    "name": "F#3",
                    "midi": 54,
                    "time": 118.36351800000054,
                    "velocity": 1,
                    "duration": 0.13068168750000098
                },
                {
                    "name": "E3",
                    "midi": 52,
                    "time": 118.49988150000054,
                    "velocity": 1,
                    "duration": 0.13068168750000098
                },
                {
                    "name": "F#3",
                    "midi": 54,
                    "time": 118.63624500000054,
                    "velocity": 1,
                    "duration": 0.13068168750000098
                },
                {
                    "name": "D3",
                    "midi": 50,
                    "time": 118.77260850000054,
                    "velocity": 1,
                    "duration": 0.13068168750000098
                },
                {
                    "name": "G2",
                    "midi": 43,
                    "time": 118.90897200000055,
                    "velocity": 1,
                    "duration": 0.13068168750000098
                },
                {
                    "name": "D3",
                    "midi": 50,
                    "time": 119.04533550000055,
                    "velocity": 1,
                    "duration": 0.13068168750000098
                },
                {
                    "name": "G3",
                    "midi": 55,
                    "time": 119.18169900000055,
                    "velocity": 1,
                    "duration": 0.13068168750000098
                },
                {
                    "name": "A3",
                    "midi": 57,
                    "time": 119.31806250000055,
                    "velocity": 1,
                    "duration": 0.13068168750000098
                },
                {
                    "name": "G3",
                    "midi": 55,
                    "time": 119.45442600000055,
                    "velocity": 1,
                    "duration": 0.13068168750000098
                },
                {
                    "name": "F3",
                    "midi": 53,
                    "time": 119.59078950000055,
                    "velocity": 1,
                    "duration": 0.13068168750000098
                },
                {
                    "name": "D#3",
                    "midi": 51,
                    "time": 119.72715300000056,
                    "velocity": 1,
                    "duration": 0.13068168750000098
                },
                {
                    "name": "D3",
                    "midi": 50,
                    "time": 119.86351650000056,
                    "velocity": 1,
                    "duration": 0.13068168750000098
                },
                {
                    "name": "C3",
                    "midi": 48,
                    "time": 119.99988000000056,
                    "velocity": 1,
                    "duration": 0.13068168750000098
                },
                {
                    "name": "G3",
                    "midi": 55,
                    "time": 120.13624350000056,
                    "velocity": 1,
                    "duration": 0.13068168750000098
                },
                {
                    "name": "C4",
                    "midi": 60,
                    "time": 120.27260700000056,
                    "velocity": 1,
                    "duration": 0.13068168750000098
                },
                {
                    "name": "D4",
                    "midi": 62,
                    "time": 120.40897050000056,
                    "velocity": 1,
                    "duration": 0.13068168750000098
                },
                {
                    "name": "C4",
                    "midi": 60,
                    "time": 120.54533400000057,
                    "velocity": 1,
                    "duration": 0.13068168750000098
                },
                {
                    "name": "A#3",
                    "midi": 58,
                    "time": 120.68169750000057,
                    "velocity": 1,
                    "duration": 0.13068168750000098
                },
                {
                    "name": "A3",
                    "midi": 57,
                    "time": 120.81806100000057,
                    "velocity": 1,
                    "duration": 0.13068168750000098
                },
                {
                    "name": "G3",
                    "midi": 55,
                    "time": 120.95442450000057,
                    "velocity": 1,
                    "duration": 0.13068168750000098
                },
                {
                    "name": "F#3",
                    "midi": 54,
                    "time": 121.09078800000057,
                    "velocity": 1,
                    "duration": 0.13068168750000098
                },
                {
                    "name": "D4",
                    "midi": 62,
                    "time": 121.22715150000057,
                    "velocity": 1,
                    "duration": 0.13068168750000098
                },
                {
                    "name": "C4",
                    "midi": 60,
                    "time": 121.36351500000058,
                    "velocity": 1,
                    "duration": 0.13068168750000098
                },
                {
                    "name": "D4",
                    "midi": 62,
                    "time": 121.49987850000058,
                    "velocity": 1,
                    "duration": 0.13068168750000098
                },
                {
                    "name": "D3",
                    "midi": 50,
                    "time": 121.63624200000058,
                    "velocity": 1,
                    "duration": 0.13068168750000098
                },
                {
                    "name": "F#3",
                    "midi": 54,
                    "time": 121.77260550000058,
                    "velocity": 1,
                    "duration": 0.13068168750000098
                },
                {
                    "name": "E3",
                    "midi": 52,
                    "time": 121.90896900000058,
                    "velocity": 1,
                    "duration": 0.13068168750000098
                },
                {
                    "name": "G3",
                    "midi": 55,
                    "time": 122.04533250000058,
                    "velocity": 1,
                    "duration": 0.13068168750000098
                },
                {
                    "name": "F#3",
                    "midi": 54,
                    "time": 122.18169600000058,
                    "velocity": 1,
                    "duration": 0.13068168750000098
                },
                {
                    "name": "A3",
                    "midi": 57,
                    "time": 122.31805950000059,
                    "velocity": 1,
                    "duration": 0.13068168750000098
                },
                {
                    "name": "D3",
                    "midi": 50,
                    "time": 122.45442300000059,
                    "velocity": 1,
                    "duration": 0.13068168750000098
                },
                {
                    "name": "F#3",
                    "midi": 54,
                    "time": 122.59078650000059,
                    "velocity": 1,
                    "duration": 0.13068168750000098
                },
                {
                    "name": "G3",
                    "midi": 55,
                    "time": 122.72715000000059,
                    "velocity": 1,
                    "duration": 0.13068168750000098
                },
                {
                    "name": "A#3",
                    "midi": 58,
                    "time": 122.8635135000006,
                    "velocity": 1,
                    "duration": 0.13068168750000098
                },
                {
                    "name": "D3",
                    "midi": 50,
                    "time": 122.9998770000006,
                    "velocity": 1,
                    "duration": 0.13068168750000098
                },
                {
                    "name": "G3",
                    "midi": 55,
                    "time": 123.1362405000006,
                    "velocity": 1,
                    "duration": 0.13068168750000098
                },
                {
                    "name": "A3",
                    "midi": 57,
                    "time": 123.2726040000006,
                    "velocity": 1,
                    "duration": 0.13068168750000098
                },
                {
                    "name": "C4",
                    "midi": 60,
                    "time": 123.4089675000006,
                    "velocity": 1,
                    "duration": 0.13068168750000098
                },
                {
                    "name": "A3",
                    "midi": 57,
                    "time": 123.5453310000006,
                    "velocity": 1,
                    "duration": 0.13068168750000098
                },
                {
                    "name": "F#3",
                    "midi": 54,
                    "time": 123.6816945000006,
                    "velocity": 1,
                    "duration": 0.13068168750000098
                },
                {
                    "name": "D3",
                    "midi": 50,
                    "time": 123.8180580000006,
                    "velocity": 1,
                    "duration": 0.13068168750000098
                },
                {
                    "name": "C4",
                    "midi": 60,
                    "time": 123.9544215000006,
                    "velocity": 1,
                    "duration": 0.13068168750000098
                },
                {
                    "name": "A#3",
                    "midi": 58,
                    "time": 124.09078500000061,
                    "velocity": 1,
                    "duration": 0.13068168750000098
                },
                {
                    "name": "A3",
                    "midi": 57,
                    "time": 124.22714850000061,
                    "velocity": 1,
                    "duration": 0.13068168750000098
                },
                {
                    "name": "A#3",
                    "midi": 58,
                    "time": 124.36351200000061,
                    "velocity": 1,
                    "duration": 0.13068168750000098
                },
                {
                    "name": "D4",
                    "midi": 62,
                    "time": 124.49987550000061,
                    "velocity": 1,
                    "duration": 0.13068168750000098
                },
                {
                    "name": "A#3",
                    "midi": 58,
                    "time": 124.63623900000061,
                    "velocity": 1,
                    "duration": 0.13068168750000098
                },
                {
                    "name": "G3",
                    "midi": 55,
                    "time": 124.77260250000062,
                    "velocity": 1,
                    "duration": 0.13068168750000098
                },
                {
                    "name": "D3",
                    "midi": 50,
                    "time": 124.90896600000062,
                    "velocity": 1,
                    "duration": 0.13068168750000098
                },
                {
                    "name": "F3",
                    "midi": 53,
                    "time": 125.04532950000062,
                    "velocity": 1,
                    "duration": 0.13068168750000098
                },
                {
                    "name": "E3",
                    "midi": 52,
                    "time": 125.18169300000062,
                    "velocity": 1,
                    "duration": 0.13068168750000098
                },
                {
                    "name": "D3",
                    "midi": 50,
                    "time": 125.31805650000062,
                    "velocity": 1,
                    "duration": 0.13068168750000098
                },
                {
                    "name": "E3",
                    "midi": 52,
                    "time": 125.45442000000062,
                    "velocity": 1,
                    "duration": 0.13068168750000098
                },
                {
                    "name": "C4",
                    "midi": 60,
                    "time": 125.59078350000063,
                    "velocity": 1,
                    "duration": 0.13068168750000098
                },
                {
                    "name": "B3",
                    "midi": 59,
                    "time": 125.72714700000063,
                    "velocity": 1,
                    "duration": 0.13068168750000098
                },
                {
                    "name": "C4",
                    "midi": 60,
                    "time": 125.86351050000063,
                    "velocity": 1,
                    "duration": 0.13068168750000098
                },
                {
                    "name": "C3",
                    "midi": 48,
                    "time": 125.99987400000063,
                    "velocity": 1,
                    "duration": 0.13068168750000098
                },
                {
                    "name": "E3",
                    "midi": 52,
                    "time": 126.13623750000063,
                    "velocity": 1,
                    "duration": 0.13068168750000098
                },
                {
                    "name": "D3",
                    "midi": 50,
                    "time": 126.27260100000063,
                    "velocity": 1,
                    "duration": 0.13068168750000098
                },
                {
                    "name": "F3",
                    "midi": 53,
                    "time": 126.40896450000064,
                    "velocity": 1,
                    "duration": 0.13068168750000098
                },
                {
                    "name": "E3",
                    "midi": 52,
                    "time": 126.54532800000064,
                    "velocity": 1,
                    "duration": 0.13068168750000098
                },
                {
                    "name": "G3",
                    "midi": 55,
                    "time": 126.68169150000064,
                    "velocity": 1,
                    "duration": 0.13068168750000098
                },
                {
                    "name": "C3",
                    "midi": 48,
                    "time": 126.81805500000064,
                    "velocity": 1,
                    "duration": 0.13068168750000098
                },
                {
                    "name": "E3",
                    "midi": 52,
                    "time": 126.95441850000064,
                    "velocity": 1,
                    "duration": 0.13068168750000098
                },
                {
                    "name": "F3",
                    "midi": 53,
                    "time": 127.09078200000064,
                    "velocity": 1,
                    "duration": 0.13068168750000098
                },
                {
                    "name": "A3",
                    "midi": 57,
                    "time": 127.22714550000065,
                    "velocity": 1,
                    "duration": 0.13068168750000098
                },
                {
                    "name": "C3",
                    "midi": 48,
                    "time": 127.36350900000065,
                    "velocity": 1,
                    "duration": 0.13068168750000098
                },
                {
                    "name": "F3",
                    "midi": 53,
                    "time": 127.49987250000065,
                    "velocity": 1,
                    "duration": 0.13068168750000098
                },
                {
                    "name": "G3",
                    "midi": 55,
                    "time": 127.63623600000065,
                    "velocity": 1,
                    "duration": 0.13068168750000098
                },
                {
                    "name": "A#3",
                    "midi": 58,
                    "time": 127.77259950000065,
                    "velocity": 1,
                    "duration": 0.13068168750000098
                },
                {
                    "name": "G3",
                    "midi": 55,
                    "time": 127.90896300000065,
                    "velocity": 1,
                    "duration": 0.13068168749998677
                },
                {
                    "name": "E3",
                    "midi": 52,
                    "time": 128.04532650000064,
                    "velocity": 1,
                    "duration": 0.13068168749998677
                },
                {
                    "name": "C3",
                    "midi": 48,
                    "time": 128.18169000000063,
                    "velocity": 1,
                    "duration": 0.13068168749998677
                },
                {
                    "name": "A#3",
                    "midi": 58,
                    "time": 128.31805350000062,
                    "velocity": 1,
                    "duration": 0.13068168749998677
                },
                {
                    "name": "A3",
                    "midi": 57,
                    "time": 128.4544170000006,
                    "velocity": 1,
                    "duration": 0.13068168749998677
                },
                {
                    "name": "G3",
                    "midi": 55,
                    "time": 128.5907805000006,
                    "velocity": 1,
                    "duration": 0.13068168749998677
                },
                {
                    "name": "A3",
                    "midi": 57,
                    "time": 128.72714400000058,
                    "velocity": 1,
                    "duration": 0.13068168749998677
                },
                {
                    "name": "C4",
                    "midi": 60,
                    "time": 128.86350750000057,
                    "velocity": 1,
                    "duration": 0.13068168749998677
                },
                {
                    "name": "A3",
                    "midi": 57,
                    "time": 128.99987100000055,
                    "velocity": 1,
                    "duration": 0.13068168749998677
                },
                {
                    "name": "F3",
                    "midi": 53,
                    "time": 129.13623450000054,
                    "velocity": 1,
                    "duration": 0.13068168749998677
                },
                {
                    "name": "C3",
                    "midi": 48,
                    "time": 129.27259800000053,
                    "velocity": 1,
                    "duration": 0.13068168749998677
                },
                {
                    "name": "D#3",
                    "midi": 51,
                    "time": 129.40896150000052,
                    "velocity": 1,
                    "duration": 0.13068168749998677
                },
                {
                    "name": "D3",
                    "midi": 50,
                    "time": 129.5453250000005,
                    "velocity": 1,
                    "duration": 0.13068168749998677
                },
                {
                    "name": "C3",
                    "midi": 48,
                    "time": 129.6816885000005,
                    "velocity": 1,
                    "duration": 0.13068168749998677
                },
                {
                    "name": "D3",
                    "midi": 50,
                    "time": 129.81805200000048,
                    "velocity": 1,
                    "duration": 0.13068168749998677
                },
                {
                    "name": "F3",
                    "midi": 53,
                    "time": 129.95441550000047,
                    "velocity": 1,
                    "duration": 0.13068168749998677
                },
                {
                    "name": "D3",
                    "midi": 50,
                    "time": 130.09077900000045,
                    "velocity": 1,
                    "duration": 0.13068168749998677
                },
                {
                    "name": "A#2",
                    "midi": 46,
                    "time": 130.22714250000044,
                    "velocity": 1,
                    "duration": 0.13068168749998677
                },
                {
                    "name": "G2",
                    "midi": 43,
                    "time": 130.36350600000043,
                    "velocity": 1,
                    "duration": 0.13068168749998677
                },
                {
                    "name": "A#2",
                    "midi": 46,
                    "time": 130.49986950000041,
                    "velocity": 1,
                    "duration": 0.13068168749998677
                },
                {
                    "name": "A2",
                    "midi": 45,
                    "time": 130.6362330000004,
                    "velocity": 1,
                    "duration": 0.13068168749998677
                },
                {
                    "name": "G2",
                    "midi": 43,
                    "time": 130.7725965000004,
                    "velocity": 1,
                    "duration": 0.13068168749998677
                },
                {
                    "name": "C3",
                    "midi": 48,
                    "time": 130.90896000000038,
                    "velocity": 1,
                    "duration": 0.13068168749998677
                },
                {
                    "name": "E3",
                    "midi": 52,
                    "time": 131.04532350000036,
                    "velocity": 1,
                    "duration": 0.13068168749998677
                },
                {
                    "name": "C3",
                    "midi": 48,
                    "time": 131.18168700000035,
                    "velocity": 1,
                    "duration": 0.13068168749998677
                },
                {
                    "name": "A2",
                    "midi": 45,
                    "time": 131.31805050000034,
                    "velocity": 1,
                    "duration": 0.13068168749998677
                },
                {
                    "name": "F2",
                    "midi": 41,
                    "time": 131.45441400000033,
                    "velocity": 1,
                    "duration": 0.13068168749998677
                },
                {
                    "name": "A2",
                    "midi": 45,
                    "time": 131.5907775000003,
                    "velocity": 1,
                    "duration": 0.13068168749998677
                },
                {
                    "name": "G2",
                    "midi": 43,
                    "time": 131.7271410000003,
                    "velocity": 1,
                    "duration": 0.13068168749998677
                },
                {
                    "name": "F2",
                    "midi": 41,
                    "time": 131.8635045000003,
                    "velocity": 1,
                    "duration": 0.13068168749998677
                },
                {
                    "name": "A#2",
                    "midi": 46,
                    "time": 131.99986800000028,
                    "velocity": 1,
                    "duration": 0.2670451875000026
                },
                {
                    "name": "C3",
                    "midi": 48,
                    "time": 132.27259500000028,
                    "velocity": 1,
                    "duration": 0.2670451875000026
                },
                {
                    "name": "D3",
                    "midi": 50,
                    "time": 132.54532200000028,
                    "velocity": 1,
                    "duration": 0.2670451875000026
                },
                {
                    "name": "A#2",
                    "midi": 46,
                    "time": 132.8180490000003,
                    "velocity": 1,
                    "duration": 0.2670451875000026
                },
                {
                    "name": "C3",
                    "midi": 48,
                    "time": 133.0907760000003,
                    "velocity": 1,
                    "duration": 0.2670451875000026
                },
                {
                    "name": "D3",
                    "midi": 50,
                    "time": 133.3635030000003,
                    "velocity": 1,
                    "duration": 0.2670451875000026
                },
                {
                    "name": "E3",
                    "midi": 52,
                    "time": 133.6362300000003,
                    "velocity": 1,
                    "duration": 0.2670451875000026
                },
                {
                    "name": "C3",
                    "midi": 48,
                    "time": 133.9089570000003,
                    "velocity": 1,
                    "duration": 0.2670451875000026
                },
                {
                    "name": "C2",
                    "midi": 36,
                    "time": 134.1816840000003,
                    "velocity": 1,
                    "duration": 0.2670451875000026
                },
                {
                    "name": "A2",
                    "midi": 45,
                    "time": 134.4544110000003,
                    "velocity": 1,
                    "duration": 0.2670451875000026
                },
                {
                    "name": "A#2",
                    "midi": 46,
                    "time": 134.7271380000003,
                    "velocity": 1,
                    "duration": 0.2670451875000026
                },
                {
                    "name": "D3",
                    "midi": 50,
                    "time": 134.9998650000003,
                    "velocity": 1,
                    "duration": 0.2670451875000026
                },
                {
                    "name": "C2",
                    "midi": 36,
                    "time": 135.27259200000032,
                    "velocity": 1,
                    "duration": 0.2670451875000026
                },
                {
                    "name": "A#2",
                    "midi": 46,
                    "time": 135.54531900000032,
                    "velocity": 1,
                    "duration": 0.2670451875000026
                },
                {
                    "name": "C3",
                    "midi": 48,
                    "time": 135.81804600000032,
                    "velocity": 1,
                    "duration": 0.2670451875000026
                },
                {
                    "name": "E3",
                    "midi": 52,
                    "time": 136.09077300000033,
                    "velocity": 1,
                    "duration": 0.2670451875000026
                },
                {
                    "name": "C2",
                    "midi": 36,
                    "time": 136.36350000000033,
                    "velocity": 1,
                    "duration": 0.2670451875000026
                },
                {
                    "name": "C3",
                    "midi": 48,
                    "time": 136.63622700000033,
                    "velocity": 1,
                    "duration": 0.2670451875000026
                },
                {
                    "name": "D3",
                    "midi": 50,
                    "time": 136.90895400000034,
                    "velocity": 1,
                    "duration": 0.2670451875000026
                },
                {
                    "name": "F3",
                    "midi": 53,
                    "time": 137.18168100000034,
                    "velocity": 1,
                    "duration": 0.2670451875000026
                },
                {
                    "name": "C2",
                    "midi": 36,
                    "time": 137.45440800000034,
                    "velocity": 1,
                    "duration": 0.2670451875000026
                },
                {
                    "name": "D3",
                    "midi": 50,
                    "time": 137.72713500000035,
                    "velocity": 1,
                    "duration": 0.2670451875000026
                },
                {
                    "name": "E3",
                    "midi": 52,
                    "time": 137.99986200000035,
                    "velocity": 1,
                    "duration": 0.2670451875000026
                },
                {
                    "name": "G3",
                    "midi": 55,
                    "time": 138.27258900000035,
                    "velocity": 1,
                    "duration": 0.2670451875000026
                },
                {
                    "name": "C2",
                    "midi": 36,
                    "time": 138.54531600000035,
                    "velocity": 1,
                    "duration": 0.5397721875000059
                },
                {
                    "name": "F4",
                    "midi": 65,
                    "time": 150.68166750000037,
                    "velocity": 1,
                    "duration": 0.13068168749998677
                },
                {
                    "name": "E4",
                    "midi": 64,
                    "time": 150.81803100000036,
                    "velocity": 1,
                    "duration": 0.13068168749998677
                },
                {
                    "name": "D4",
                    "midi": 62,
                    "time": 150.95439450000035,
                    "velocity": 1,
                    "duration": 0.13068168749998677
                },
                {
                    "name": "C4",
                    "midi": 60,
                    "time": 151.09075800000033,
                    "velocity": 1,
                    "duration": 0.13068168749998677
                },
                {
                    "name": "A#3",
                    "midi": 58,
                    "time": 151.22712150000032,
                    "velocity": 1,
                    "duration": 0.13068168749998677
                },
                {
                    "name": "A3",
                    "midi": 57,
                    "time": 151.3634850000003,
                    "velocity": 1,
                    "duration": 0.13068168749998677
                },
                {
                    "name": "G3",
                    "midi": 55,
                    "time": 151.4998485000003,
                    "velocity": 1,
                    "duration": 0.13068168749998677
                },
                {
                    "name": "F3",
                    "midi": 53,
                    "time": 151.63621200000028,
                    "velocity": 1,
                    "duration": 0.09090900000001056
                },
                {
                    "name": "F3",
                    "midi": 53,
                    "time": 151.7725755000003,
                    "velocity": 1,
                    "duration": 0.13068168749998677
                },
                {
                    "name": "D#3",
                    "midi": 51,
                    "time": 151.9089390000003,
                    "velocity": 1,
                    "duration": 0.13068168749998677
                },
                {
                    "name": "D3",
                    "midi": 50,
                    "time": 152.04530250000028,
                    "velocity": 1,
                    "duration": 0.13068168749998677
                },
                {
                    "name": "C3",
                    "midi": 48,
                    "time": 152.18166600000026,
                    "velocity": 1,
                    "duration": 0.13068168749998677
                },
                {
                    "name": "A#2",
                    "midi": 46,
                    "time": 152.31802950000025,
                    "velocity": 1,
                    "duration": 0.13068168749998677
                },
                {
                    "name": "A2",
                    "midi": 45,
                    "time": 152.45439300000024,
                    "velocity": 1,
                    "duration": 0.13068168749998677
                },
                {
                    "name": "G2",
                    "midi": 43,
                    "time": 152.59075650000023,
                    "velocity": 1,
                    "duration": 0.13068168749998677
                },
                {
                    "name": "F2",
                    "midi": 41,
                    "time": 152.7271200000002,
                    "velocity": 1,
                    "duration": 0.13068168749998677
                },
                {
                    "name": "F3",
                    "midi": 53,
                    "time": 152.8634835000002,
                    "velocity": 1,
                    "duration": 0.13068168749998677
                },
                {
                    "name": "C3",
                    "midi": 48,
                    "time": 152.9998470000002,
                    "velocity": 1,
                    "duration": 0.13068168749998677
                },
                {
                    "name": "A2",
                    "midi": 45,
                    "time": 153.13621050000017,
                    "velocity": 1,
                    "duration": 0.13068168749998677
                },
                {
                    "name": "F2",
                    "midi": 41,
                    "time": 153.27257400000016,
                    "velocity": 1,
                    "duration": 0.13068168749998677
                },
                {
                    "name": "F3",
                    "midi": 53,
                    "time": 153.40893750000015,
                    "velocity": 1,
                    "duration": 0.13068168749998677
                },
                {
                    "name": "D#3",
                    "midi": 51,
                    "time": 153.54530100000014,
                    "velocity": 1,
                    "duration": 0.13068168749998677
                },
                {
                    "name": "F3",
                    "midi": 53,
                    "time": 153.68166450000012,
                    "velocity": 1,
                    "duration": 0.13068168749998677
                },
                {
                    "name": "A#2",
                    "midi": 46,
                    "time": 153.8180280000001,
                    "velocity": 1,
                    "duration": 0.13068168749998677
                },
                {
                    "name": "D3",
                    "midi": 50,
                    "time": 153.9543915000001,
                    "velocity": 1,
                    "duration": 0.13068168749998677
                },
                {
                    "name": "F3",
                    "midi": 53,
                    "time": 154.0907550000001,
                    "velocity": 1,
                    "duration": 0.13068168749998677
                },
                {
                    "name": "A3",
                    "midi": 57,
                    "time": 154.22711850000007,
                    "velocity": 1,
                    "duration": 0.13068168749998677
                },
                {
                    "name": "A#3",
                    "midi": 58,
                    "time": 154.36348200000006,
                    "velocity": 1,
                    "duration": 0.13068168749998677
                },
                {
                    "name": "D4",
                    "midi": 62,
                    "time": 155.45439000000005,
                    "velocity": 1,
                    "duration": 0.13068168749998677
                },
                {
                    "name": "C4",
                    "midi": 60,
                    "time": 155.59075350000003,
                    "velocity": 1,
                    "duration": 0.13068168749998677
                },
                {
                    "name": "B3",
                    "midi": 59,
                    "time": 155.72711700000002,
                    "velocity": 1,
                    "duration": 0.13068168749998677
                },
                {
                    "name": "A3",
                    "midi": 57,
                    "time": 155.8634805,
                    "velocity": 1,
                    "duration": 0.13068168749998677
                },
                {
                    "name": "G3",
                    "midi": 55,
                    "time": 155.999844,
                    "velocity": 1,
                    "duration": 0.09090900000001056
                },
                {
                    "name": "G3",
                    "midi": 55,
                    "time": 156.1362075,
                    "velocity": 1,
                    "duration": 0.13068168749998677
                },
                {
                    "name": "F3",
                    "midi": 53,
                    "time": 156.272571,
                    "velocity": 1,
                    "duration": 0.13068168749998677
                },
                {
                    "name": "E3",
                    "midi": 52,
                    "time": 156.4089345,
                    "velocity": 1,
                    "duration": 0.13068168749998677
                },
                {
                    "name": "D3",
                    "midi": 50,
                    "time": 156.54529799999997,
                    "velocity": 1,
                    "duration": 0.13068168749998677
                },
                {
                    "name": "C3",
                    "midi": 48,
                    "time": 156.68166149999996,
                    "velocity": 1,
                    "duration": 0.13068168749998677
                },
                {
                    "name": "B2",
                    "midi": 47,
                    "time": 156.81802499999995,
                    "velocity": 1,
                    "duration": 0.13068168749998677
                },
                {
                    "name": "A2",
                    "midi": 45,
                    "time": 156.95438849999994,
                    "velocity": 1,
                    "duration": 0.13068168749998677
                },
                {
                    "name": "G2",
                    "midi": 43,
                    "time": 157.09075199999992,
                    "velocity": 1,
                    "duration": 0.13068168749998677
                },
                {
                    "name": "G3",
                    "midi": 55,
                    "time": 157.2271154999999,
                    "velocity": 1,
                    "duration": 0.13068168749998677
                },
                {
                    "name": "D3",
                    "midi": 50,
                    "time": 157.3634789999999,
                    "velocity": 1,
                    "duration": 0.13068168749998677
                },
                {
                    "name": "B2",
                    "midi": 47,
                    "time": 157.4998424999999,
                    "velocity": 1,
                    "duration": 0.13068168749998677
                },
                {
                    "name": "G2",
                    "midi": 43,
                    "time": 157.63620599999987,
                    "velocity": 1,
                    "duration": 0.13068168749998677
                },
                {
                    "name": "G3",
                    "midi": 55,
                    "time": 157.77256949999986,
                    "velocity": 1,
                    "duration": 0.13068168749998677
                },
                {
                    "name": "F3",
                    "midi": 53,
                    "time": 157.90893299999985,
                    "velocity": 1,
                    "duration": 0.13068168749998677
                },
                {
                    "name": "G3",
                    "midi": 55,
                    "time": 158.04529649999984,
                    "velocity": 1,
                    "duration": 0.13068168749998677
                },
                {
                    "name": "C3",
                    "midi": 48,
                    "time": 158.18165999999982,
                    "velocity": 1,
                    "duration": 0.13068168749998677
                },
                {
                    "name": "F3",
                    "midi": 53,
                    "time": 176.72709599999982,
                    "velocity": 1,
                    "duration": 0.5397721875000059
                },
                {
                    "name": "C3",
                    "midi": 48,
                    "time": 176.72709599999982,
                    "velocity": 1,
                    "duration": 0.5397721875000059
                },
                {
                    "name": "A2",
                    "midi": 45,
                    "time": 176.72709599999982,
                    "velocity": 1,
                    "duration": 0.5397721875000059
                },
                {
                    "name": "F2",
                    "midi": 41,
                    "time": 176.72709599999982,
                    "velocity": 1,
                    "duration": 0.5397721875000059
                },
                {
                    "name": "F4",
                    "midi": 65,
                    "time": 178.09073099999983,
                    "velocity": 1,
                    "duration": 0.1818179999999927
                },
                {
                    "name": "D4",
                    "midi": 62,
                    "time": 178.36345799999984,
                    "velocity": 1,
                    "duration": 0.1818179999999927
                },
                {
                    "name": "A#3",
                    "midi": 58,
                    "time": 178.63618499999984,
                    "velocity": 1,
                    "duration": 0.1818179999999927
                },
                {
                    "name": "F3",
                    "midi": 53,
                    "time": 179.18163899999985,
                    "velocity": 1,
                    "duration": 0.1818179999999927
                },
                {
                    "name": "D3",
                    "midi": 50,
                    "time": 179.45436599999985,
                    "velocity": 1,
                    "duration": 0.1818179999999927
                },
                {
                    "name": "A#2",
                    "midi": 46,
                    "time": 179.72709299999985,
                    "velocity": 1,
                    "duration": 0.1818179999999927
                },
                {
                    "name": "F3",
                    "midi": 53,
                    "time": 179.99981999999986,
                    "velocity": 1,
                    "duration": 0.5397721875000059
                },
                {
                    "name": "F2",
                    "midi": 41,
                    "time": 180.27254699999986,
                    "velocity": 1,
                    "duration": 0.1818179999999927
                },
                {
                    "name": "C4",
                    "midi": 60,
                    "time": 181.09072799999987,
                    "velocity": 1,
                    "duration": 0.5397721875000059
                },
                {
                    "name": "G3",
                    "midi": 55,
                    "time": 181.09072799999987,
                    "velocity": 1,
                    "duration": 0.5397721875000059
                },
                {
                    "name": "E3",
                    "midi": 52,
                    "time": 181.09072799999987,
                    "velocity": 1,
                    "duration": 0.5397721875000059
                },
                {
                    "name": "C3",
                    "midi": 48,
                    "time": 181.09072799999987,
                    "velocity": 1,
                    "duration": 0.5397721875000059
                },
                {
                    "name": "C4",
                    "midi": 60,
                    "time": 183.54527099999987,
                    "velocity": 1,
                    "duration": 0.2670451875000026
                },
                {
                    "name": "A3",
                    "midi": 57,
                    "time": 183.81799799999987,
                    "velocity": 1,
                    "duration": 0.2670451875000026
                },
                {
                    "name": "F3",
                    "midi": 53,
                    "time": 184.09072499999988,
                    "velocity": 1,
                    "duration": 0.2670451875000026
                },
                {
                    "name": "C4",
                    "midi": 60,
                    "time": 184.36345199999988,
                    "velocity": 1,
                    "duration": 0.5397721875000059
                },
                {
                    "name": "C3",
                    "midi": 48,
                    "time": 184.63617899999988,
                    "velocity": 1,
                    "duration": 0.1818179999999927
                },
                {
                    "name": "C4",
                    "midi": 60,
                    "time": 185.4543599999999,
                    "velocity": 1,
                    "duration": 0.5397721875000059
                },
                {
                    "name": "E3",
                    "midi": 52,
                    "time": 185.4543599999999,
                    "velocity": 1,
                    "duration": 0.5397721875000059
                },
                {
                    "name": "C3",
                    "midi": 48,
                    "time": 185.4543599999999,
                    "velocity": 1,
                    "duration": 0.5397721875000059
                },
                {
                    "name": "G3",
                    "midi": 55,
                    "time": 185.9998139999999,
                    "velocity": 1,
                    "duration": 0.36363600000001384
                },
                {
                    "name": "E3",
                    "midi": 52,
                    "time": 185.9998139999999,
                    "velocity": 1,
                    "duration": 0.36363600000001384
                },
                {
                    "name": "C3",
                    "midi": 48,
                    "time": 185.9998139999999,
                    "velocity": 1,
                    "duration": 0.36363600000001384
                },
                {
                    "name": "C4",
                    "midi": 60,
                    "time": 185.9998139999999,
                    "velocity": 1,
                    "duration": 0.7272719999999993
                },
                {
                    "name": "F3",
                    "midi": 53,
                    "time": 186.5452679999999,
                    "velocity": 1,
                    "duration": 0.36363600000001384
                },
                {
                    "name": "A3",
                    "midi": 57,
                    "time": 186.8179949999999,
                    "velocity": 1,
                    "duration": 0.18181800000002113
                },
                {
                    "name": "C4",
                    "midi": 60,
                    "time": 187.09072199999994,
                    "velocity": 1,
                    "duration": 0.1818179999999927
                },
                {
                    "name": "F4",
                    "midi": 65,
                    "time": 187.36344899999995,
                    "velocity": 1,
                    "duration": 0.1818179999999927
                },
                {
                    "name": "A3",
                    "midi": 57,
                    "time": 187.63617599999995,
                    "velocity": 1,
                    "duration": 0.5397721875000059
                },
                {
                    "name": "C4",
                    "midi": 60,
                    "time": 187.63617599999995,
                    "velocity": 1,
                    "duration": 0.5397721875000059
                },
                {
                    "name": "F4",
                    "midi": 65,
                    "time": 187.63617599999995,
                    "velocity": 1,
                    "duration": 0.5397721875000059
                },
                {
                    "name": "F3",
                    "midi": 53,
                    "time": 188.18162999999996,
                    "velocity": 1,
                    "duration": 0.5397721875000059
                },
                {
                    "name": "A3",
                    "midi": 57,
                    "time": 188.18162999999996,
                    "velocity": 1,
                    "duration": 0.5397721875000059
                },
                {
                    "name": "C4",
                    "midi": 60,
                    "time": 188.18162999999996,
                    "velocity": 1,
                    "duration": 0.5397721875000059
                },
                {
                    "name": "F4",
                    "midi": 65,
                    "time": 188.18162999999996,
                    "velocity": 1,
                    "duration": 0.8124991875000092
                },
                {
                    "name": "A#3",
                    "midi": 58,
                    "time": 188.72708399999996,
                    "velocity": 1,
                    "duration": 0.5397721875000059
                },
                {
                    "name": "D4",
                    "midi": 62,
                    "time": 188.99981099999997,
                    "velocity": 1,
                    "duration": 0.1818179999999927
                },
                {
                    "name": "F4",
                    "midi": 65,
                    "time": 189.27253799999997,
                    "velocity": 1,
                    "duration": 0.1818179999999927
                },
                {
                    "name": "D4",
                    "midi": 62,
                    "time": 190.90889999999996,
                    "velocity": 1,
                    "duration": 0.5397721875000059
                },
                {
                    "name": "B3",
                    "midi": 59,
                    "time": 190.90889999999996,
                    "velocity": 1,
                    "duration": 0.5397721875000059
                },
                {
                    "name": "G3",
                    "midi": 55,
                    "time": 190.90889999999996,
                    "velocity": 1,
                    "duration": 0.5397721875000059
                },
                {
                    "name": "E4",
                    "midi": 64,
                    "time": 191.45435399999997,
                    "velocity": 1,
                    "duration": 0.36363600000001384
                },
                {
                    "name": "G3",
                    "midi": 55,
                    "time": 191.45435399999997,
                    "velocity": 1,
                    "duration": 0.36363600000001384
                },
                {
                    "name": "C3",
                    "midi": 48,
                    "time": 191.45435399999997,
                    "velocity": 1,
                    "duration": 0.36363600000001384
                },
                {
                    "name": "C4",
                    "midi": 60,
                    "time": 192.27253499999998,
                    "velocity": 1,
                    "duration": 0.13068168749998677
                },
                {
                    "name": "D4",
                    "midi": 62,
                    "time": 192.40889849999996,
                    "velocity": 1,
                    "duration": 0.13068168749998677
                },
                {
                    "name": "E4",
                    "midi": 64,
                    "time": 192.54526199999995,
                    "velocity": 1,
                    "duration": 0.1818179999999927
                },
                {
                    "name": "C3",
                    "midi": 48,
                    "time": 193.63616999999994,
                    "velocity": 1,
                    "duration": 0.5397721875000059
                },
                {
                    "name": "C4",
                    "midi": 60,
                    "time": 194.31798749999993,
                    "velocity": 1,
                    "duration": 0.09090900000001056
                },
                {
                    "name": "D4",
                    "midi": 62,
                    "time": 194.45435099999995,
                    "velocity": 1,
                    "duration": 0.09090900000001056
                },
                {
                    "name": "E4",
                    "midi": 64,
                    "time": 194.59071449999996,
                    "velocity": 1,
                    "duration": 0.09090900000001056
                },
                {
                    "name": "F4",
                    "midi": 65,
                    "time": 194.72707799999998,
                    "velocity": 1,
                    "duration": 0.2670451875000026
                },
                {
                    "name": "F4",
                    "midi": 65,
                    "time": 195.27253199999998,
                    "velocity": 1,
                    "duration": 0.2670451875000026
                },
                {
                    "name": "C4",
                    "midi": 60,
                    "time": 195.545259,
                    "velocity": 1,
                    "duration": 0.2670451875000026
                },
                {
                    "name": "C3",
                    "midi": 48,
                    "time": 195.817986,
                    "velocity": 1,
                    "duration": 0.5397721875000059
                },
                {
                    "name": "D4",
                    "midi": 62,
                    "time": 196.636167,
                    "velocity": 1,
                    "duration": 0.09090900000001056
                },
                {
                    "name": "E4",
                    "midi": 64,
                    "time": 196.77253050000002,
                    "velocity": 1,
                    "duration": 0.09090900000001056
                },
                {
                    "name": "F4",
                    "midi": 65,
                    "time": 196.90889400000003,
                    "velocity": 1,
                    "duration": 0.1818179999999927
                },
                {
                    "name": "D4",
                    "midi": 62,
                    "time": 197.18162100000004,
                    "velocity": 1,
                    "duration": 0.13068168749998677
                },
                {
                    "name": "E4",
                    "midi": 64,
                    "time": 197.31798450000002,
                    "velocity": 1,
                    "duration": 0.13068168749998677
                },
                {
                    "name": "F4",
                    "midi": 65,
                    "time": 197.454348,
                    "velocity": 1,
                    "duration": 0.2670451875000026
                },
                {
                    "name": "D4",
                    "midi": 62,
                    "time": 197.727075,
                    "velocity": 1,
                    "duration": 0.2670451875000026
                },
                {
                    "name": "G3",
                    "midi": 55,
                    "time": 197.99980200000002,
                    "velocity": 1,
                    "duration": 0.2670451875000026
                },
                {
                    "name": "B3",
                    "midi": 59,
                    "time": 198.27252900000002,
                    "velocity": 1,
                    "duration": 0.2670451875000026
                },
                {
                    "name": "C4",
                    "midi": 60,
                    "time": 198.54525600000002,
                    "velocity": 1,
                    "duration": 0.1818179999999927
                },
                {
                    "name": "C3",
                    "midi": 48,
                    "time": 198.81798300000003,
                    "velocity": 1,
                    "duration": 0.13068168749998677
                },
                {
                    "name": "D3",
                    "midi": 50,
                    "time": 198.9543465,
                    "velocity": 1,
                    "duration": 0.13068168749998677
                },
                {
                    "name": "E3",
                    "midi": 52,
                    "time": 199.09071,
                    "velocity": 1,
                    "duration": 0.2670451875000026
                },
                {
                    "name": "G3",
                    "midi": 55,
                    "time": 199.363437,
                    "velocity": 1,
                    "duration": 0.2670451875000026
                },
                {
                    "name": "C4",
                    "midi": 60,
                    "time": 199.636164,
                    "velocity": 1,
                    "duration": 0.1818179999999927
                },
                {
                    "name": "C3",
                    "midi": 48,
                    "time": 199.908891,
                    "velocity": 1,
                    "duration": 0.13068168749998677
                },
                {
                    "name": "D3",
                    "midi": 50,
                    "time": 200.0452545,
                    "velocity": 1,
                    "duration": 0.13068168749998677
                },
                {
                    "name": "E3",
                    "midi": 52,
                    "time": 200.181618,
                    "velocity": 1,
                    "duration": 0.2670451875000026
                },
                {
                    "name": "F3",
                    "midi": 53,
                    "time": 200.454345,
                    "velocity": 1,
                    "duration": 0.2670451875000026
                },
                {
                    "name": "G3",
                    "midi": 55,
                    "time": 200.727072,
                    "velocity": 1,
                    "duration": 0.1818179999999927
                },
                {
                    "name": "C3",
                    "midi": 48,
                    "time": 200.999799,
                    "velocity": 1,
                    "duration": 0.13068168749998677
                },
                {
                    "name": "E3",
                    "midi": 52,
                    "time": 201.13616249999998,
                    "velocity": 1,
                    "duration": 0.13068168749998677
                },
                {
                    "name": "G3",
                    "midi": 55,
                    "time": 201.27252599999997,
                    "velocity": 1,
                    "duration": 0.2670451875000026
                },
                {
                    "name": "A3",
                    "midi": 57,
                    "time": 201.54525299999997,
                    "velocity": 1,
                    "duration": 0.2670451875000026
                },
                {
                    "name": "A#3",
                    "midi": 58,
                    "time": 201.81797999999998,
                    "velocity": 1,
                    "duration": 0.1818179999999927
                },
                {
                    "name": "C3",
                    "midi": 48,
                    "time": 202.09070699999998,
                    "velocity": 1,
                    "duration": 0.13068168749998677
                },
                {
                    "name": "D3",
                    "midi": 50,
                    "time": 202.22707049999997,
                    "velocity": 1,
                    "duration": 0.13068168749998677
                },
                {
                    "name": "E3",
                    "midi": 52,
                    "time": 202.36343399999996,
                    "velocity": 1,
                    "duration": 0.2670451875000026
                },
                {
                    "name": "C3",
                    "midi": 48,
                    "time": 202.63616099999996,
                    "velocity": 1,
                    "duration": 0.2670451875000026
                },
                {
                    "name": "F3",
                    "midi": 53,
                    "time": 202.90888799999996,
                    "velocity": 1,
                    "duration": 0.13068168749998677
                },
                {
                    "name": "A3",
                    "midi": 57,
                    "time": 203.04525149999995,
                    "velocity": 1,
                    "duration": 0.13068168749998677
                },
                {
                    "name": "G3",
                    "midi": 55,
                    "time": 203.18161499999994,
                    "velocity": 1,
                    "duration": 0.13068168749998677
                },
                {
                    "name": "F3",
                    "midi": 53,
                    "time": 203.31797849999992,
                    "velocity": 1,
                    "duration": 0.13068168749998677
                },
                {
                    "name": "E3",
                    "midi": 52,
                    "time": 203.4543419999999,
                    "velocity": 1,
                    "duration": 0.13068168749998677
                },
                {
                    "name": "D3",
                    "midi": 50,
                    "time": 203.5907054999999,
                    "velocity": 1,
                    "duration": 0.13068168749998677
                },
                {
                    "name": "C3",
                    "midi": 48,
                    "time": 203.7270689999999,
                    "velocity": 1,
                    "duration": 0.13068168749998677
                },
                {
                    "name": "A#2",
                    "midi": 46,
                    "time": 203.86343249999987,
                    "velocity": 1,
                    "duration": 0.13068168749998677
                },
                {
                    "name": "A2",
                    "midi": 45,
                    "time": 203.99979599999986,
                    "velocity": 1,
                    "duration": 0.13068168749998677
                },
                {
                    "name": "C3",
                    "midi": 48,
                    "time": 204.13615949999985,
                    "velocity": 1,
                    "duration": 0.13068168749998677
                },
                {
                    "name": "D3",
                    "midi": 50,
                    "time": 204.27252299999984,
                    "velocity": 1,
                    "duration": 0.13068168749998677
                },
                {
                    "name": "E3",
                    "midi": 52,
                    "time": 204.40888649999982,
                    "velocity": 1,
                    "duration": 0.13068168749998677
                },
                {
                    "name": "F3",
                    "midi": 53,
                    "time": 204.5452499999998,
                    "velocity": 1,
                    "duration": 0.13068168749998677
                },
                {
                    "name": "G3",
                    "midi": 55,
                    "time": 204.6816134999998,
                    "velocity": 1,
                    "duration": 0.13068168749998677
                },
                {
                    "name": "A3",
                    "midi": 57,
                    "time": 204.8179769999998,
                    "velocity": 1,
                    "duration": 0.13068168749998677
                },
                {
                    "name": "A#3",
                    "midi": 58,
                    "time": 204.95434049999977,
                    "velocity": 1,
                    "duration": 0.13068168749998677
                },
                {
                    "name": "C4",
                    "midi": 60,
                    "time": 205.09070399999976,
                    "velocity": 1,
                    "duration": 0.5397721875000059
                },
                {
                    "name": "C3",
                    "midi": 48,
                    "time": 205.63615799999977,
                    "velocity": 1,
                    "duration": 0.36363600000001384
                },
                {
                    "name": "D3",
                    "midi": 50,
                    "time": 206.18161199999977,
                    "velocity": 1,
                    "duration": 0.5397721875000059
                },
                {
                    "name": "E3",
                    "midi": 52,
                    "time": 206.99979299999978,
                    "velocity": 1,
                    "duration": 0.1818179999999927
                },
                {
                    "name": "F3",
                    "midi": 53,
                    "time": 207.2725199999998,
                    "velocity": 1,
                    "duration": 0.2670451875000026
                },
                {
                    "name": "A2",
                    "midi": 45,
                    "time": 207.5452469999998,
                    "velocity": 1,
                    "duration": 0.2670451875000026
                },
                {
                    "name": "A#2",
                    "midi": 46,
                    "time": 207.8179739999998,
                    "velocity": 1,
                    "duration": 0.2670451875000026
                },
                {
                    "name": "C3",
                    "midi": 48,
                    "time": 208.0907009999998,
                    "velocity": 1,
                    "duration": 0.2670451875000026
                },
                {
                    "name": "F2",
                    "midi": 41,
                    "time": 208.3634279999998,
                    "velocity": 1,
                    "duration": 1.9034071874999938
                }
            ],
            "controlChanges": {
                "7": [
                    {
                        "number": 7,
                        "time": 0,
                        "value": 0.7874015748031497
                    }
                ]
            },
            "id": 4,
            "name": "Manual 1 LH",
            "instrumentNumber": 6,
            "instrument": "harpsichord",
            "instrumentFamily": "piano",
            "channelNumber": 0,
            "isPercussion": false
        },
        {
            "startTime": 31.909059,
            "duration": 165.4032436875,
            "length": 361,
            "notes": [
                {
                    "name": "A4",
                    "midi": 69,
                    "time": 31.909059,
                    "velocity": 0.7322834645669292,
                    "duration": 0.1818179999999998
                },
                {
                    "name": "F4",
                    "midi": 65,
                    "time": 31.909059,
                    "velocity": 0.7322834645669292,
                    "duration": 0.1818179999999998
                },
                {
                    "name": "A4",
                    "midi": 69,
                    "time": 32.181786,
                    "velocity": 0.7322834645669292,
                    "duration": 0.1818179999999998
                },
                {
                    "name": "F4",
                    "midi": 65,
                    "time": 32.181786,
                    "velocity": 0.7322834645669292,
                    "duration": 0.1818179999999998
                },
                {
                    "name": "A4",
                    "midi": 69,
                    "time": 32.454513000000006,
                    "velocity": 0.7322834645669292,
                    "duration": 0.1818179999999998
                },
                {
                    "name": "F4",
                    "midi": 65,
                    "time": 32.454513000000006,
                    "velocity": 0.7322834645669292,
                    "duration": 0.1818179999999998
                },
                {
                    "name": "A#4",
                    "midi": 70,
                    "time": 32.72724000000001,
                    "velocity": 0.7322834645669292,
                    "duration": 0.1818179999999998
                },
                {
                    "name": "F4",
                    "midi": 65,
                    "time": 32.72724000000001,
                    "velocity": 0.7322834645669292,
                    "duration": 0.1818179999999998
                },
                {
                    "name": "A#4",
                    "midi": 70,
                    "time": 32.99996700000001,
                    "velocity": 0.7322834645669292,
                    "duration": 0.1818179999999998
                },
                {
                    "name": "F4",
                    "midi": 65,
                    "time": 32.99996700000001,
                    "velocity": 0.7322834645669292,
                    "duration": 0.1818179999999998
                },
                {
                    "name": "A#4",
                    "midi": 70,
                    "time": 33.272694000000016,
                    "velocity": 0.7322834645669292,
                    "duration": 0.1818179999999998
                },
                {
                    "name": "F4",
                    "midi": 65,
                    "time": 33.272694000000016,
                    "velocity": 0.7322834645669292,
                    "duration": 0.1818179999999998
                },
                {
                    "name": "A#4",
                    "midi": 70,
                    "time": 33.54542100000002,
                    "velocity": 0.7322834645669292,
                    "duration": 0.1818179999999998
                },
                {
                    "name": "F4",
                    "midi": 65,
                    "time": 33.54542100000002,
                    "velocity": 0.7322834645669292,
                    "duration": 0.1818179999999998
                },
                {
                    "name": "A#4",
                    "midi": 70,
                    "time": 33.81814800000002,
                    "velocity": 0.7322834645669292,
                    "duration": 0.1818179999999998
                },
                {
                    "name": "F4",
                    "midi": 65,
                    "time": 33.81814800000002,
                    "velocity": 0.7322834645669292,
                    "duration": 0.1818179999999998
                },
                {
                    "name": "A#4",
                    "midi": 70,
                    "time": 34.090875000000025,
                    "velocity": 0.7322834645669292,
                    "duration": 0.1818179999999998
                },
                {
                    "name": "F4",
                    "midi": 65,
                    "time": 34.090875000000025,
                    "velocity": 0.7322834645669292,
                    "duration": 0.1818179999999998
                },
                {
                    "name": "F4",
                    "midi": 65,
                    "time": 34.36360200000003,
                    "velocity": 0.7322834645669292,
                    "duration": 0.1818179999999998
                },
                {
                    "name": "A4",
                    "midi": 69,
                    "time": 34.36360200000003,
                    "velocity": 0.7322834645669292,
                    "duration": 0.1818179999999998
                },
                {
                    "name": "F4",
                    "midi": 65,
                    "time": 34.63632900000003,
                    "velocity": 0.7322834645669292,
                    "duration": 0.1818179999999998
                },
                {
                    "name": "A4",
                    "midi": 69,
                    "time": 34.63632900000003,
                    "velocity": 0.7322834645669292,
                    "duration": 0.1818179999999998
                },
                {
                    "name": "G4",
                    "midi": 67,
                    "time": 34.909056000000035,
                    "velocity": 0.7322834645669292,
                    "duration": 0.1818179999999998
                },
                {
                    "name": "F4",
                    "midi": 65,
                    "time": 34.909056000000035,
                    "velocity": 0.7322834645669292,
                    "duration": 0.1818179999999998
                },
                {
                    "name": "G4",
                    "midi": 67,
                    "time": 35.18178300000004,
                    "velocity": 0.7322834645669292,
                    "duration": 0.1818179999999998
                },
                {
                    "name": "F4",
                    "midi": 65,
                    "time": 35.18178300000004,
                    "velocity": 0.7322834645669292,
                    "duration": 0.1818179999999998
                },
                {
                    "name": "G4",
                    "midi": 67,
                    "time": 35.45451000000004,
                    "velocity": 0.7322834645669292,
                    "duration": 0.1818179999999998
                },
                {
                    "name": "E4",
                    "midi": 64,
                    "time": 35.45451000000004,
                    "velocity": 0.7322834645669292,
                    "duration": 0.1818179999999998
                },
                {
                    "name": "G4",
                    "midi": 67,
                    "time": 35.727237000000045,
                    "velocity": 0.7322834645669292,
                    "duration": 0.1818179999999998
                },
                {
                    "name": "E4",
                    "midi": 64,
                    "time": 35.727237000000045,
                    "velocity": 0.7322834645669292,
                    "duration": 0.1818179999999998
                },
                {
                    "name": "G4",
                    "midi": 67,
                    "time": 35.99996400000005,
                    "velocity": 0.7322834645669292,
                    "duration": 0.1818179999999998
                },
                {
                    "name": "F4",
                    "midi": 65,
                    "time": 35.99996400000005,
                    "velocity": 0.7322834645669292,
                    "duration": 0.1818179999999998
                },
                {
                    "name": "F4",
                    "midi": 65,
                    "time": 36.27269100000005,
                    "velocity": 0.7322834645669292,
                    "duration": 0.1818179999999998
                },
                {
                    "name": "F4",
                    "midi": 65,
                    "time": 36.81814500000005,
                    "velocity": 0.7322834645669292,
                    "duration": 0.1818179999999998
                },
                {
                    "name": "F4",
                    "midi": 65,
                    "time": 37.090872000000054,
                    "velocity": 0.7322834645669292,
                    "duration": 0.1818179999999998
                },
                {
                    "name": "C4",
                    "midi": 60,
                    "time": 37.090872000000054,
                    "velocity": 0.7322834645669292,
                    "duration": 0.1818179999999998
                },
                {
                    "name": "E4",
                    "midi": 64,
                    "time": 37.36359900000006,
                    "velocity": 0.7322834645669292,
                    "duration": 0.1818179999999998
                },
                {
                    "name": "C4",
                    "midi": 60,
                    "time": 37.36359900000006,
                    "velocity": 0.7322834645669292,
                    "duration": 0.1818179999999998
                },
                {
                    "name": "F4",
                    "midi": 65,
                    "time": 37.63632600000006,
                    "velocity": 0.7322834645669292,
                    "duration": 0.1818179999999998
                },
                {
                    "name": "C4",
                    "midi": 60,
                    "time": 37.63632600000006,
                    "velocity": 0.7322834645669292,
                    "duration": 0.1818179999999998
                },
                {
                    "name": "A4",
                    "midi": 69,
                    "time": 37.909053000000064,
                    "velocity": 0.7322834645669292,
                    "duration": 0.1818179999999998
                },
                {
                    "name": "C4",
                    "midi": 60,
                    "time": 37.909053000000064,
                    "velocity": 0.7322834645669292,
                    "duration": 0.1818179999999998
                },
                {
                    "name": "G4",
                    "midi": 67,
                    "time": 38.18178000000007,
                    "velocity": 0.7322834645669292,
                    "duration": 0.1818179999999998
                },
                {
                    "name": "C4",
                    "midi": 60,
                    "time": 38.18178000000007,
                    "velocity": 0.7322834645669292,
                    "duration": 0.1818179999999998
                },
                {
                    "name": "F4",
                    "midi": 65,
                    "time": 38.45450700000007,
                    "velocity": 0.7322834645669292,
                    "duration": 0.1818179999999998
                },
                {
                    "name": "C4",
                    "midi": 60,
                    "time": 38.45450700000007,
                    "velocity": 0.7322834645669292,
                    "duration": 0.1818179999999998
                },
                {
                    "name": "E4",
                    "midi": 64,
                    "time": 38.727234000000074,
                    "velocity": 0.7322834645669292,
                    "duration": 0.1818179999999998
                },
                {
                    "name": "C4",
                    "midi": 60,
                    "time": 38.727234000000074,
                    "velocity": 0.7322834645669292,
                    "duration": 0.1818179999999998
                },
                {
                    "name": "F4",
                    "midi": 65,
                    "time": 38.99996100000008,
                    "velocity": 0.7322834645669292,
                    "duration": 0.1818179999999998
                },
                {
                    "name": "C4",
                    "midi": 60,
                    "time": 38.99996100000008,
                    "velocity": 0.7322834645669292,
                    "duration": 0.1818179999999998
                },
                {
                    "name": "F4",
                    "midi": 65,
                    "time": 39.27268800000008,
                    "velocity": 0.7322834645669292,
                    "duration": 0.1818179999999998
                },
                {
                    "name": "C4",
                    "midi": 60,
                    "time": 39.27268800000008,
                    "velocity": 0.7322834645669292,
                    "duration": 0.1818179999999998
                },
                {
                    "name": "E4",
                    "midi": 64,
                    "time": 39.545415000000084,
                    "velocity": 0.7322834645669292,
                    "duration": 0.1818179999999998
                },
                {
                    "name": "C4",
                    "midi": 60,
                    "time": 39.545415000000084,
                    "velocity": 0.7322834645669292,
                    "duration": 0.1818179999999998
                },
                {
                    "name": "F4",
                    "midi": 65,
                    "time": 39.81814200000009,
                    "velocity": 0.7322834645669292,
                    "duration": 0.1818179999999998
                },
                {
                    "name": "C4",
                    "midi": 60,
                    "time": 39.81814200000009,
                    "velocity": 0.7322834645669292,
                    "duration": 0.1818179999999998
                },
                {
                    "name": "A4",
                    "midi": 69,
                    "time": 40.09086900000009,
                    "velocity": 0.7322834645669292,
                    "duration": 0.1818179999999998
                },
                {
                    "name": "C4",
                    "midi": 60,
                    "time": 40.09086900000009,
                    "velocity": 0.7322834645669292,
                    "duration": 0.1818179999999998
                },
                {
                    "name": "G4",
                    "midi": 67,
                    "time": 40.36359600000009,
                    "velocity": 0.7322834645669292,
                    "duration": 0.1818179999999998
                },
                {
                    "name": "C4",
                    "midi": 60,
                    "time": 40.36359600000009,
                    "velocity": 0.7322834645669292,
                    "duration": 0.1818179999999998
                },
                {
                    "name": "F4",
                    "midi": 65,
                    "time": 40.6363230000001,
                    "velocity": 0.7322834645669292,
                    "duration": 0.1818179999999998
                },
                {
                    "name": "C4",
                    "midi": 60,
                    "time": 40.6363230000001,
                    "velocity": 0.7322834645669292,
                    "duration": 0.1818179999999998
                },
                {
                    "name": "E4",
                    "midi": 64,
                    "time": 40.9090500000001,
                    "velocity": 0.7322834645669292,
                    "duration": 0.1818179999999998
                },
                {
                    "name": "C4",
                    "midi": 60,
                    "time": 40.9090500000001,
                    "velocity": 0.7322834645669292,
                    "duration": 0.1818179999999998
                },
                {
                    "name": "C4",
                    "midi": 60,
                    "time": 41.1817770000001,
                    "velocity": 0.7322834645669292,
                    "duration": 0.1818179999999998
                },
                {
                    "name": "G4",
                    "midi": 67,
                    "time": 41.1817770000001,
                    "velocity": 0.7322834645669292,
                    "duration": 0.1818179999999998
                },
                {
                    "name": "F4",
                    "midi": 65,
                    "time": 41.45450400000011,
                    "velocity": 0.7322834645669292,
                    "duration": 0.1818179999999998
                },
                {
                    "name": "C4",
                    "midi": 60,
                    "time": 41.45450400000011,
                    "velocity": 0.7322834645669292,
                    "duration": 0.1818179999999998
                },
                {
                    "name": "F4",
                    "midi": 65,
                    "time": 41.72723100000011,
                    "velocity": 0.7322834645669292,
                    "duration": 0.1818179999999998
                },
                {
                    "name": "C4",
                    "midi": 60,
                    "time": 41.72723100000011,
                    "velocity": 0.7322834645669292,
                    "duration": 0.1818179999999998
                },
                {
                    "name": "F4",
                    "midi": 65,
                    "time": 41.99995800000011,
                    "velocity": 0.7322834645669292,
                    "duration": 0.1818179999999998
                },
                {
                    "name": "C4",
                    "midi": 60,
                    "time": 41.99995800000011,
                    "velocity": 0.7322834645669292,
                    "duration": 0.1818179999999998
                },
                {
                    "name": "F4",
                    "midi": 65,
                    "time": 42.272685000000116,
                    "velocity": 0.7322834645669292,
                    "duration": 0.1818179999999998
                },
                {
                    "name": "C4",
                    "midi": 60,
                    "time": 42.272685000000116,
                    "velocity": 0.7322834645669292,
                    "duration": 0.1818179999999998
                },
                {
                    "name": "F4",
                    "midi": 65,
                    "time": 42.54541200000012,
                    "velocity": 0.7322834645669292,
                    "duration": 0.1818179999999998
                },
                {
                    "name": "C4",
                    "midi": 60,
                    "time": 42.54541200000012,
                    "velocity": 0.7322834645669292,
                    "duration": 0.1818179999999998
                },
                {
                    "name": "F4",
                    "midi": 65,
                    "time": 42.81813900000012,
                    "velocity": 0.7322834645669292,
                    "duration": 0.1818179999999998
                },
                {
                    "name": "C4",
                    "midi": 60,
                    "time": 42.81813900000012,
                    "velocity": 0.7322834645669292,
                    "duration": 0.1818179999999998
                },
                {
                    "name": "E4",
                    "midi": 64,
                    "time": 43.090866000000126,
                    "velocity": 0.7322834645669292,
                    "duration": 0.1818179999999998
                },
                {
                    "name": "C4",
                    "midi": 60,
                    "time": 43.090866000000126,
                    "velocity": 0.7322834645669292,
                    "duration": 0.1818179999999998
                },
                {
                    "name": "E4",
                    "midi": 64,
                    "time": 43.36359300000013,
                    "velocity": 0.7322834645669292,
                    "duration": 0.1818179999999998
                },
                {
                    "name": "C4",
                    "midi": 60,
                    "time": 43.36359300000013,
                    "velocity": 0.7322834645669292,
                    "duration": 0.1818179999999998
                },
                {
                    "name": "D4",
                    "midi": 62,
                    "time": 43.63632000000013,
                    "velocity": 0.7322834645669292,
                    "duration": 0.1818179999999998
                },
                {
                    "name": "C4",
                    "midi": 60,
                    "time": 43.63632000000013,
                    "velocity": 0.7322834645669292,
                    "duration": 0.1818179999999998
                },
                {
                    "name": "D4",
                    "midi": 62,
                    "time": 43.909047000000136,
                    "velocity": 0.7322834645669292,
                    "duration": 0.1818179999999998
                },
                {
                    "name": "C4",
                    "midi": 60,
                    "time": 43.909047000000136,
                    "velocity": 0.7322834645669292,
                    "duration": 0.1818179999999998
                },
                {
                    "name": "D4",
                    "midi": 62,
                    "time": 44.18177400000014,
                    "velocity": 0.7322834645669292,
                    "duration": 0.1818179999999998
                },
                {
                    "name": "B3",
                    "midi": 59,
                    "time": 44.18177400000014,
                    "velocity": 0.7322834645669292,
                    "duration": 0.1818179999999998
                },
                {
                    "name": "D4",
                    "midi": 62,
                    "time": 44.45450100000014,
                    "velocity": 0.7322834645669292,
                    "duration": 0.1818179999999998
                },
                {
                    "name": "B3",
                    "midi": 59,
                    "time": 44.45450100000014,
                    "velocity": 0.7322834645669292,
                    "duration": 0.1818179999999998
                },
                {
                    "name": "C5",
                    "midi": 72,
                    "time": 45.40904550000014,
                    "velocity": 0.7322834645669292,
                    "duration": 0.09090900000000346
                },
                {
                    "name": "D5",
                    "midi": 74,
                    "time": 45.54540900000014,
                    "velocity": 0.7322834645669292,
                    "duration": 0.09090900000000346
                },
                {
                    "name": "E5",
                    "midi": 76,
                    "time": 45.68177250000014,
                    "velocity": 0.7322834645669292,
                    "duration": 0.09090900000000346
                },
                {
                    "name": "A4",
                    "midi": 69,
                    "time": 45.818136000000145,
                    "velocity": 0.7322834645669292,
                    "duration": 0.13068168750000098
                },
                {
                    "name": "E4",
                    "midi": 64,
                    "time": 45.954499500000146,
                    "velocity": 0.7322834645669292,
                    "duration": 0.13068168750000098
                },
                {
                    "name": "F4",
                    "midi": 65,
                    "time": 46.09086300000015,
                    "velocity": 0.7322834645669292,
                    "duration": 0.13068168750000098
                },
                {
                    "name": "A4",
                    "midi": 69,
                    "time": 46.22722650000015,
                    "velocity": 0.7322834645669292,
                    "duration": 0.13068168750000098
                },
                {
                    "name": "D5",
                    "midi": 74,
                    "time": 46.36359000000015,
                    "velocity": 0.7322834645669292,
                    "duration": 0.09090900000000346
                },
                {
                    "name": "D5",
                    "midi": 74,
                    "time": 46.49995350000015,
                    "velocity": 0.7322834645669292,
                    "duration": 0.09090900000000346
                },
                {
                    "name": "E5",
                    "midi": 76,
                    "time": 46.636317000000155,
                    "velocity": 0.7322834645669292,
                    "duration": 0.09090900000000346
                },
                {
                    "name": "F5",
                    "midi": 77,
                    "time": 46.772680500000156,
                    "velocity": 0.7322834645669292,
                    "duration": 0.09090900000000346
                },
                {
                    "name": "B4",
                    "midi": 71,
                    "time": 46.90904400000016,
                    "velocity": 0.7322834645669292,
                    "duration": 0.13068168750000098
                },
                {
                    "name": "F#4",
                    "midi": 66,
                    "time": 47.04540750000016,
                    "velocity": 0.7322834645669292,
                    "duration": 0.13068168750000098
                },
                {
                    "name": "G4",
                    "midi": 67,
                    "time": 47.18177100000016,
                    "velocity": 0.7322834645669292,
                    "duration": 0.13068168750000098
                },
                {
                    "name": "B4",
                    "midi": 71,
                    "time": 47.31813450000016,
                    "velocity": 0.7322834645669292,
                    "duration": 0.13068168750000098
                },
                {
                    "name": "E5",
                    "midi": 76,
                    "time": 47.454498000000164,
                    "velocity": 0.7322834645669292,
                    "duration": 0.09090900000000346
                },
                {
                    "name": "G4",
                    "midi": 67,
                    "time": 47.454498000000164,
                    "velocity": 0.7322834645669292,
                    "duration": 0.1818179999999998
                },
                {
                    "name": "E5",
                    "midi": 76,
                    "time": 47.590861500000166,
                    "velocity": 0.7322834645669292,
                    "duration": 0.09090899999999635
                },
                {
                    "name": "F5",
                    "midi": 77,
                    "time": 47.72722500000016,
                    "velocity": 0.7322834645669292,
                    "duration": 0.09090900000000346
                },
                {
                    "name": "G5",
                    "midi": 79,
                    "time": 47.86358850000016,
                    "velocity": 0.7322834645669292,
                    "duration": 0.09090900000000346
                },
                {
                    "name": "C5",
                    "midi": 72,
                    "time": 47.999952000000164,
                    "velocity": 0.7322834645669292,
                    "duration": 0.13068168750000098
                },
                {
                    "name": "G#4",
                    "midi": 68,
                    "time": 48.136315500000165,
                    "velocity": 0.7322834645669292,
                    "duration": 0.13068168750000098
                },
                {
                    "name": "A4",
                    "midi": 69,
                    "time": 48.27267900000017,
                    "velocity": 0.7322834645669292,
                    "duration": 0.13068168750000098
                },
                {
                    "name": "C5",
                    "midi": 72,
                    "time": 48.40904250000017,
                    "velocity": 0.7322834645669292,
                    "duration": 0.13068168750000098
                },
                {
                    "name": "F#5",
                    "midi": 78,
                    "time": 48.54540600000017,
                    "velocity": 0.7322834645669292,
                    "duration": 0.09090900000000346
                },
                {
                    "name": "A4",
                    "midi": 69,
                    "time": 48.54540600000017,
                    "velocity": 0.7322834645669292,
                    "duration": 0.1818179999999998
                },
                {
                    "name": "F#5",
                    "midi": 78,
                    "time": 48.68176950000017,
                    "velocity": 0.7322834645669292,
                    "duration": 0.13068168750000098
                },
                {
                    "name": "G5",
                    "midi": 79,
                    "time": 48.818133000000174,
                    "velocity": 0.7322834645669292,
                    "duration": 0.13068168750000098
                },
                {
                    "name": "A5",
                    "midi": 81,
                    "time": 48.954496500000175,
                    "velocity": 0.7322834645669292,
                    "duration": 0.09090900000000346
                },
                {
                    "name": "A5",
                    "midi": 81,
                    "time": 49.05108731250018,
                    "velocity": 0.7322834645669292,
                    "duration": 0.04545449999999818
                },
                {
                    "name": "G5",
                    "midi": 79,
                    "time": 49.09086000000018,
                    "velocity": 0.7322834645669292,
                    "duration": 0.07954537500000214
                },
                {
                    "name": "A5",
                    "midi": 81,
                    "time": 49.136314500000175,
                    "velocity": 0.7322834645669292,
                    "duration": 0.07954537500000214
                },
                {
                    "name": "G5",
                    "midi": 79,
                    "time": 49.16472356250018,
                    "velocity": 0.7322834645669292,
                    "duration": 0.07954537500000214
                },
                {
                    "name": "F#5",
                    "midi": 78,
                    "time": 49.22722350000018,
                    "velocity": 0.7322834645669292,
                    "duration": 0.09090900000000346
                },
                {
                    "name": "G5",
                    "midi": 79,
                    "time": 49.36358700000018,
                    "velocity": 0.7322834645669292,
                    "duration": 0.3636359999999996
                },
                {
                    "name": "G4",
                    "midi": 67,
                    "time": 49.77267750000018,
                    "velocity": 0.7322834645669292,
                    "duration": 0.13068168750000098
                },
                {
                    "name": "B4",
                    "midi": 71,
                    "time": 49.90904100000018,
                    "velocity": 0.7322834645669292,
                    "duration": 0.13068168750000098
                },
                {
                    "name": "D5",
                    "midi": 74,
                    "time": 50.04540450000018,
                    "velocity": 0.7322834645669292,
                    "duration": 0.13068168749999387
                },
                {
                    "name": "G5",
                    "midi": 79,
                    "time": 50.14199531250018,
                    "velocity": 0.7322834645669292,
                    "duration": 0.05113631249999884
                },
                {
                    "name": "F5",
                    "midi": 77,
                    "time": 50.181768000000176,
                    "velocity": 0.7322834645669292,
                    "duration": 0.07954537500000214
                },
                {
                    "name": "G5",
                    "midi": 79,
                    "time": 50.227222500000174,
                    "velocity": 0.7322834645669292,
                    "duration": 0.07954537500000214
                },
                {
                    "name": "F5",
                    "midi": 77,
                    "time": 50.25563156250018,
                    "velocity": 0.7322834645669292,
                    "duration": 0.07954537500000214
                },
                {
                    "name": "E5",
                    "midi": 76,
                    "time": 50.31813150000018,
                    "velocity": 0.7322834645669292,
                    "duration": 0.13068168750000098
                },
                {
                    "name": "F5",
                    "midi": 77,
                    "time": 50.45449500000018,
                    "velocity": 0.7322834645669292,
                    "duration": 0.40340868749999714
                },
                {
                    "name": "G4",
                    "midi": 67,
                    "time": 50.86358550000018,
                    "velocity": 0.7322834645669292,
                    "duration": 0.13068168750000098
                },
                {
                    "name": "B4",
                    "midi": 71,
                    "time": 50.99994900000018,
                    "velocity": 0.7322834645669292,
                    "duration": 0.13068168750000098
                },
                {
                    "name": "D5",
                    "midi": 74,
                    "time": 51.13631250000018,
                    "velocity": 0.7322834645669292,
                    "duration": 0.13068168749999387
                },
                {
                    "name": "F5",
                    "midi": 77,
                    "time": 51.23290331250018,
                    "velocity": 0.7322834645669292,
                    "duration": 0.05113631249999884
                },
                {
                    "name": "E5",
                    "midi": 76,
                    "time": 51.272676000000175,
                    "velocity": 0.7322834645669292,
                    "duration": 0.07954537500000214
                },
                {
                    "name": "G4",
                    "midi": 67,
                    "time": 51.272676000000175,
                    "velocity": 0.7322834645669292,
                    "duration": 0.13068168750000098
                },
                {
                    "name": "F5",
                    "midi": 77,
                    "time": 51.31813050000017,
                    "velocity": 0.7322834645669292,
                    "duration": 0.07954537500000214
                },
                {
                    "name": "E5",
                    "midi": 76,
                    "time": 51.346539562500176,
                    "velocity": 0.7322834645669292,
                    "duration": 0.07954537500000214
                },
                {
                    "name": "D5",
                    "midi": 74,
                    "time": 51.409039500000176,
                    "velocity": 0.7322834645669292,
                    "duration": 0.13068168750000098
                },
                {
                    "name": "F4",
                    "midi": 65,
                    "time": 51.409039500000176,
                    "velocity": 0.7322834645669292,
                    "duration": 0.13068168750000098
                },
                {
                    "name": "E5",
                    "midi": 76,
                    "time": 51.54540300000018,
                    "velocity": 0.7322834645669292,
                    "duration": 0.40340868750000425
                },
                {
                    "name": "E4",
                    "midi": 64,
                    "time": 51.54540300000018,
                    "velocity": 0.7322834645669292,
                    "duration": 0.13068168750000098
                },
                {
                    "name": "D4",
                    "midi": 62,
                    "time": 51.68176650000018,
                    "velocity": 0.7322834645669292,
                    "duration": 0.13068168750000098
                },
                {
                    "name": "G4",
                    "midi": 67,
                    "time": 51.95449350000018,
                    "velocity": 0.7322834645669292,
                    "duration": 0.13068168750000098
                },
                {
                    "name": "C5",
                    "midi": 72,
                    "time": 52.090857000000184,
                    "velocity": 0.7322834645669292,
                    "duration": 0.13068168750000098
                },
                {
                    "name": "D5",
                    "midi": 74,
                    "time": 52.227220500000186,
                    "velocity": 0.7322834645669292,
                    "duration": 0.13068168750000098
                },
                {
                    "name": "D#5",
                    "midi": 75,
                    "time": 52.36358400000019,
                    "velocity": 0.7322834645669292,
                    "duration": 0.09090900000000346
                },
                {
                    "name": "C5",
                    "midi": 72,
                    "time": 52.49994750000019,
                    "velocity": 0.7322834645669292,
                    "duration": 0.13068168750000098
                },
                {
                    "name": "B4",
                    "midi": 71,
                    "time": 52.63631100000019,
                    "velocity": 0.7322834645669292,
                    "duration": 0.13068168750000098
                },
                {
                    "name": "C5",
                    "midi": 72,
                    "time": 52.77267450000019,
                    "velocity": 0.7322834645669292,
                    "duration": 0.13068168750000098
                },
                {
                    "name": "F#5",
                    "midi": 78,
                    "time": 52.909038000000194,
                    "velocity": 0.7322834645669292,
                    "duration": 0.13068168750000098
                },
                {
                    "name": "C5",
                    "midi": 72,
                    "time": 53.045401500000196,
                    "velocity": 0.7322834645669292,
                    "duration": 0.13068168750000098
                },
                {
                    "name": "A5",
                    "midi": 81,
                    "time": 53.1817650000002,
                    "velocity": 0.7322834645669292,
                    "duration": 0.13068168750000098
                },
                {
                    "name": "C5",
                    "midi": 72,
                    "time": 53.3181285000002,
                    "velocity": 0.7322834645669292,
                    "duration": 0.09090900000000346
                },
                {
                    "name": "B4",
                    "midi": 71,
                    "time": 53.4544920000002,
                    "velocity": 0.7322834645669292,
                    "duration": 0.09090900000000346
                },
                {
                    "name": "F4",
                    "midi": 65,
                    "time": 53.5908555000002,
                    "velocity": 0.7322834645669292,
                    "duration": 0.13068168750000098
                },
                {
                    "name": "E4",
                    "midi": 64,
                    "time": 53.727219000000204,
                    "velocity": 0.7322834645669292,
                    "duration": 0.13068168750000098
                },
                {
                    "name": "F4",
                    "midi": 65,
                    "time": 53.863582500000206,
                    "velocity": 0.7322834645669292,
                    "duration": 0.13068168750000098
                },
                {
                    "name": "B4",
                    "midi": 71,
                    "time": 53.99994600000021,
                    "velocity": 0.7322834645669292,
                    "duration": 0.13068168750000098
                },
                {
                    "name": "F4",
                    "midi": 65,
                    "time": 54.13630950000021,
                    "velocity": 0.7322834645669292,
                    "duration": 0.13068168750000098
                },
                {
                    "name": "D5",
                    "midi": 74,
                    "time": 54.27267300000021,
                    "velocity": 0.7322834645669292,
                    "duration": 0.13068168750000098
                },
                {
                    "name": "F4",
                    "midi": 65,
                    "time": 54.40903650000021,
                    "velocity": 0.7322834645669292,
                    "duration": 0.13068168750000098
                },
                {
                    "name": "E4",
                    "midi": 64,
                    "time": 54.545400000000214,
                    "velocity": 0.7322834645669292,
                    "duration": 0.13068168750000098
                },
                {
                    "name": "G4",
                    "midi": 67,
                    "time": 54.681763500000216,
                    "velocity": 0.7322834645669292,
                    "duration": 0.13068168750000098
                },
                {
                    "name": "C5",
                    "midi": 72,
                    "time": 54.81812700000022,
                    "velocity": 0.7322834645669292,
                    "duration": 0.13068168750000098
                },
                {
                    "name": "G5",
                    "midi": 79,
                    "time": 54.95449050000022,
                    "velocity": 0.7322834645669292,
                    "duration": 0.13068168750000098
                },
                {
                    "name": "F5",
                    "midi": 77,
                    "time": 55.09085400000022,
                    "velocity": 0.7322834645669292,
                    "duration": 0.13068168750000098
                },
                {
                    "name": "E5",
                    "midi": 76,
                    "time": 55.22721750000022,
                    "velocity": 0.7322834645669292,
                    "duration": 0.13068168750000098
                },
                {
                    "name": "D5",
                    "midi": 74,
                    "time": 55.363581000000224,
                    "velocity": 0.7322834645669292,
                    "duration": 0.13068168750000098
                },
                {
                    "name": "C5",
                    "midi": 72,
                    "time": 55.499944500000225,
                    "velocity": 0.7322834645669292,
                    "duration": 0.13068168750000098
                },
                {
                    "name": "C5",
                    "midi": 72,
                    "time": 55.63630800000023,
                    "velocity": 0.7322834645669292,
                    "duration": 0.5397721874999988
                },
                {
                    "name": "D5",
                    "midi": 74,
                    "time": 72.13629150000023,
                    "velocity": 0.7322834645669292,
                    "duration": 0.13068168750000098
                },
                {
                    "name": "A#4",
                    "midi": 70,
                    "time": 72.27265500000023,
                    "velocity": 0.7322834645669292,
                    "duration": 0.13068168749998677
                },
                {
                    "name": "A4",
                    "midi": 69,
                    "time": 72.33515493750022,
                    "velocity": 0.7322834645669292,
                    "duration": 0.13068168750000098
                },
                {
                    "name": "G4",
                    "midi": 67,
                    "time": 72.40901850000022,
                    "velocity": 0.7322834645669292,
                    "duration": 0.13068168750000098
                },
                {
                    "name": "A4",
                    "midi": 69,
                    "time": 72.54538200000022,
                    "velocity": 0.7322834645669292,
                    "duration": 0.13068168750000098
                },
                {
                    "name": "D5",
                    "midi": 74,
                    "time": 72.68174550000022,
                    "velocity": 0.7322834645669292,
                    "duration": 0.13068168750000098
                },
                {
                    "name": "G4",
                    "midi": 67,
                    "time": 72.81810900000022,
                    "velocity": 0.7322834645669292,
                    "duration": 0.13068168749998677
                },
                {
                    "name": "F4",
                    "midi": 65,
                    "time": 72.88060893750021,
                    "velocity": 0.7322834645669292,
                    "duration": 0.13068168750000098
                },
                {
                    "name": "E4",
                    "midi": 64,
                    "time": 72.95447250000021,
                    "velocity": 0.7322834645669292,
                    "duration": 0.13068168750000098
                },
                {
                    "name": "F4",
                    "midi": 65,
                    "time": 73.09083600000021,
                    "velocity": 0.7322834645669292,
                    "duration": 0.13068168750000098
                },
                {
                    "name": "D5",
                    "midi": 74,
                    "time": 73.22719950000021,
                    "velocity": 0.7322834645669292,
                    "duration": 0.13068168750000098
                },
                {
                    "name": "G4",
                    "midi": 67,
                    "time": 73.36356300000021,
                    "velocity": 0.7322834645669292,
                    "duration": 0.13068168749998677
                },
                {
                    "name": "F4",
                    "midi": 65,
                    "time": 73.4260629375002,
                    "velocity": 0.7322834645669292,
                    "duration": 0.13068168750000098
                },
                {
                    "name": "E4",
                    "midi": 64,
                    "time": 73.4999265000002,
                    "velocity": 0.7322834645669292,
                    "duration": 0.13068168750000098
                },
                {
                    "name": "F4",
                    "midi": 65,
                    "time": 73.6362900000002,
                    "velocity": 0.7322834645669292,
                    "duration": 0.13068168750000098
                },
                {
                    "name": "D5",
                    "midi": 74,
                    "time": 73.7726535000002,
                    "velocity": 0.7322834645669292,
                    "duration": 0.13068168750000098
                },
                {
                    "name": "E4",
                    "midi": 64,
                    "time": 73.9090170000002,
                    "velocity": 0.7322834645669292,
                    "duration": 0.13068168749998677
                },
                {
                    "name": "D4",
                    "midi": 62,
                    "time": 73.9715169375002,
                    "velocity": 0.7322834645669292,
                    "duration": 0.13068168750000098
                },
                {
                    "name": "C#4",
                    "midi": 61,
                    "time": 74.04538050000019,
                    "velocity": 0.7322834645669292,
                    "duration": 0.13068168750000098
                },
                {
                    "name": "D4",
                    "midi": 62,
                    "time": 74.1817440000002,
                    "velocity": 0.7322834645669292,
                    "duration": 0.13068168750000098
                },
                {
                    "name": "F4",
                    "midi": 65,
                    "time": 101.4544440000002,
                    "velocity": 0.7322834645669292,
                    "duration": 0.13068168750000098
                },
                {
                    "name": "G4",
                    "midi": 67,
                    "time": 101.5908075000002,
                    "velocity": 0.7322834645669292,
                    "duration": 0.13068168750000098
                },
                {
                    "name": "F4",
                    "midi": 65,
                    "time": 101.7271710000002,
                    "velocity": 0.7322834645669292,
                    "duration": 0.13068168750000098
                },
                {
                    "name": "E4",
                    "midi": 64,
                    "time": 101.8635345000002,
                    "velocity": 0.7322834645669292,
                    "duration": 0.13068168750000098
                },
                {
                    "name": "D4",
                    "midi": 62,
                    "time": 101.9998980000002,
                    "velocity": 0.7322834645669292,
                    "duration": 0.13068168750000098
                },
                {
                    "name": "E4",
                    "midi": 64,
                    "time": 102.1362615000002,
                    "velocity": 0.7322834645669292,
                    "duration": 0.13068168750000098
                },
                {
                    "name": "F4",
                    "midi": 65,
                    "time": 102.2726250000002,
                    "velocity": 0.7322834645669292,
                    "duration": 0.13068168750000098
                },
                {
                    "name": "D4",
                    "midi": 62,
                    "time": 102.4089885000002,
                    "velocity": 0.7322834645669292,
                    "duration": 0.13068168750000098
                },
                {
                    "name": "G4",
                    "midi": 67,
                    "time": 102.54535200000021,
                    "velocity": 0.7322834645669292,
                    "duration": 0.18181800000000692
                },
                {
                    "name": "E4",
                    "midi": 64,
                    "time": 102.54535200000021,
                    "velocity": 0.7322834645669292,
                    "duration": 0.18181800000000692
                },
                {
                    "name": "F4",
                    "midi": 65,
                    "time": 103.09080600000021,
                    "velocity": 0.7322834645669292,
                    "duration": 0.18181800000000692
                },
                {
                    "name": "D4",
                    "midi": 62,
                    "time": 103.09080600000021,
                    "velocity": 0.7322834645669292,
                    "duration": 0.18181800000000692
                },
                {
                    "name": "D4",
                    "midi": 62,
                    "time": 104.86353150000022,
                    "velocity": 0.7322834645669292,
                    "duration": 0.13068168750000098
                },
                {
                    "name": "E4",
                    "midi": 64,
                    "time": 104.99989500000022,
                    "velocity": 0.7322834645669292,
                    "duration": 0.13068168750000098
                },
                {
                    "name": "F4",
                    "midi": 65,
                    "time": 105.13625850000022,
                    "velocity": 0.7322834645669292,
                    "duration": 0.13068168750000098
                },
                {
                    "name": "F4",
                    "midi": 65,
                    "time": 105.40898550000023,
                    "velocity": 0.7322834645669292,
                    "duration": 0.13068168750000098
                },
                {
                    "name": "E4",
                    "midi": 64,
                    "time": 105.54534900000023,
                    "velocity": 0.7322834645669292,
                    "duration": 0.13068168750000098
                },
                {
                    "name": "D4",
                    "midi": 62,
                    "time": 105.68171250000023,
                    "velocity": 0.7322834645669292,
                    "duration": 0.13068168750000098
                },
                {
                    "name": "D5",
                    "midi": 74,
                    "time": 139.90895100000023,
                    "velocity": 0.7322834645669292,
                    "duration": 0.1818179999999927
                },
                {
                    "name": "A4",
                    "midi": 69,
                    "time": 139.90895100000023,
                    "velocity": 0.7322834645669292,
                    "duration": 0.1818179999999927
                },
                {
                    "name": "F4",
                    "midi": 65,
                    "time": 139.90895100000023,
                    "velocity": 0.7322834645669292,
                    "duration": 0.1818179999999927
                },
                {
                    "name": "A4",
                    "midi": 69,
                    "time": 140.18167800000023,
                    "velocity": 0.7322834645669292,
                    "duration": 0.1818179999999927
                },
                {
                    "name": "F4",
                    "midi": 65,
                    "time": 140.18167800000023,
                    "velocity": 0.7322834645669292,
                    "duration": 0.1818179999999927
                },
                {
                    "name": "E5",
                    "midi": 76,
                    "time": 140.18167800000023,
                    "velocity": 0.7322834645669292,
                    "duration": 0.13068168749998677
                },
                {
                    "name": "D5",
                    "midi": 74,
                    "time": 140.31804150000022,
                    "velocity": 0.7322834645669292,
                    "duration": 0.1306816875000152
                },
                {
                    "name": "A4",
                    "midi": 69,
                    "time": 140.45440500000024,
                    "velocity": 0.7322834645669292,
                    "duration": 0.1818179999999927
                },
                {
                    "name": "F4",
                    "midi": 65,
                    "time": 140.45440500000024,
                    "velocity": 0.7322834645669292,
                    "duration": 0.1818179999999927
                },
                {
                    "name": "C#5",
                    "midi": 73,
                    "time": 140.45440500000024,
                    "velocity": 0.7322834645669292,
                    "duration": 0.13068168749998677
                },
                {
                    "name": "D5",
                    "midi": 74,
                    "time": 140.59076850000022,
                    "velocity": 0.7322834645669292,
                    "duration": 0.2670451875000026
                },
                {
                    "name": "G4",
                    "midi": 67,
                    "time": 140.72713200000024,
                    "velocity": 0.7322834645669292,
                    "duration": 0.1818179999999927
                },
                {
                    "name": "E4",
                    "midi": 64,
                    "time": 140.72713200000024,
                    "velocity": 0.7322834645669292,
                    "duration": 0.1818179999999927
                },
                {
                    "name": "G5",
                    "midi": 79,
                    "time": 140.86349550000023,
                    "velocity": 0.7322834645669292,
                    "duration": 0.1306816875000152
                },
                {
                    "name": "D5",
                    "midi": 74,
                    "time": 140.99985900000024,
                    "velocity": 0.7322834645669292,
                    "duration": 0.13068168749998677
                },
                {
                    "name": "G4",
                    "midi": 67,
                    "time": 140.99985900000024,
                    "velocity": 0.7322834645669292,
                    "duration": 0.1818179999999927
                },
                {
                    "name": "E4",
                    "midi": 64,
                    "time": 140.99985900000024,
                    "velocity": 0.7322834645669292,
                    "duration": 0.1818179999999927
                },
                {
                    "name": "B4",
                    "midi": 71,
                    "time": 141.13622250000023,
                    "velocity": 0.7322834645669292,
                    "duration": 0.1306816875000152
                },
                {
                    "name": "C5",
                    "midi": 72,
                    "time": 141.27258600000025,
                    "velocity": 0.7322834645669292,
                    "duration": 0.13068168749998677
                },
                {
                    "name": "G4",
                    "midi": 67,
                    "time": 141.27258600000025,
                    "velocity": 0.7322834645669292,
                    "duration": 0.1818179999999927
                },
                {
                    "name": "E4",
                    "midi": 64,
                    "time": 141.27258600000025,
                    "velocity": 0.7322834645669292,
                    "duration": 0.1818179999999927
                },
                {
                    "name": "B4",
                    "midi": 71,
                    "time": 141.40894950000023,
                    "velocity": 0.7322834645669292,
                    "duration": 0.1306816875000152
                },
                {
                    "name": "C5",
                    "midi": 72,
                    "time": 141.54531300000025,
                    "velocity": 0.7322834645669292,
                    "duration": 0.13068168749998677
                },
                {
                    "name": "G4",
                    "midi": 67,
                    "time": 141.54531300000025,
                    "velocity": 0.7322834645669292,
                    "duration": 0.1818179999999927
                },
                {
                    "name": "E4",
                    "midi": 64,
                    "time": 141.54531300000025,
                    "velocity": 0.7322834645669292,
                    "duration": 0.1818179999999927
                },
                {
                    "name": "E5",
                    "midi": 76,
                    "time": 141.68167650000024,
                    "velocity": 0.7322834645669292,
                    "duration": 0.1306816875000152
                },
                {
                    "name": "F5",
                    "midi": 77,
                    "time": 141.81804000000025,
                    "velocity": 0.7322834645669292,
                    "duration": 0.1818179999999927
                },
                {
                    "name": "A#4",
                    "midi": 70,
                    "time": 142.09076700000026,
                    "velocity": 0.7322834645669292,
                    "duration": 0.1818179999999927
                },
                {
                    "name": "C5",
                    "midi": 72,
                    "time": 142.36349400000026,
                    "velocity": 0.7322834645669292,
                    "duration": 0.13068168749998677
                },
                {
                    "name": "A#4",
                    "midi": 70,
                    "time": 142.49985750000025,
                    "velocity": 0.7322834645669292,
                    "duration": 0.13068168749998677
                },
                {
                    "name": "A4",
                    "midi": 69,
                    "time": 142.63622100000023,
                    "velocity": 0.7322834645669292,
                    "duration": 0.13068168749998677
                },
                {
                    "name": "A#4",
                    "midi": 70,
                    "time": 142.77258450000022,
                    "velocity": 0.7322834645669292,
                    "duration": 0.227272499999998
                },
                {
                    "name": "D#5",
                    "midi": 75,
                    "time": 143.04531150000022,
                    "velocity": 0.7322834645669292,
                    "duration": 0.13068168749998677
                },
                {
                    "name": "A#4",
                    "midi": 70,
                    "time": 143.1816750000002,
                    "velocity": 0.7322834645669292,
                    "duration": 0.13068168749998677
                },
                {
                    "name": "G4",
                    "midi": 67,
                    "time": 143.3180385000002,
                    "velocity": 0.7322834645669292,
                    "duration": 0.13068168749998677
                },
                {
                    "name": "A4",
                    "midi": 69,
                    "time": 143.4544020000002,
                    "velocity": 0.7322834645669292,
                    "duration": 0.13068168749998677
                },
                {
                    "name": "G4",
                    "midi": 67,
                    "time": 143.59076550000017,
                    "velocity": 0.7322834645669292,
                    "duration": 0.13068168749998677
                },
                {
                    "name": "A4",
                    "midi": 69,
                    "time": 143.72712900000016,
                    "velocity": 0.7322834645669292,
                    "duration": 0.13068168749998677
                },
                {
                    "name": "C5",
                    "midi": 72,
                    "time": 143.86349250000015,
                    "velocity": 0.7322834645669292,
                    "duration": 0.13068168749998677
                },
                {
                    "name": "D5",
                    "midi": 74,
                    "time": 143.99985600000014,
                    "velocity": 0.7322834645669292,
                    "duration": 0.1818179999999927
                },
                {
                    "name": "G4",
                    "midi": 67,
                    "time": 144.27258300000014,
                    "velocity": 0.7322834645669292,
                    "duration": 0.1818179999999927
                },
                {
                    "name": "A4",
                    "midi": 69,
                    "time": 144.54531000000014,
                    "velocity": 0.7322834645669292,
                    "duration": 0.13068168749998677
                },
                {
                    "name": "G4",
                    "midi": 67,
                    "time": 144.68167350000013,
                    "velocity": 0.7322834645669292,
                    "duration": 0.13068168749998677
                },
                {
                    "name": "F#4",
                    "midi": 66,
                    "time": 144.81803700000012,
                    "velocity": 0.7322834645669292,
                    "duration": 0.13068168749998677
                },
                {
                    "name": "G4",
                    "midi": 67,
                    "time": 144.9544005000001,
                    "velocity": 0.7322834645669292,
                    "duration": 0.227272499999998
                },
                {
                    "name": "C5",
                    "midi": 72,
                    "time": 145.2271275000001,
                    "velocity": 0.7322834645669292,
                    "duration": 0.13068168749998677
                },
                {
                    "name": "G4",
                    "midi": 67,
                    "time": 145.3634910000001,
                    "velocity": 0.7322834645669292,
                    "duration": 0.13068168749998677
                },
                {
                    "name": "E4",
                    "midi": 64,
                    "time": 145.49985450000008,
                    "velocity": 0.7322834645669292,
                    "duration": 0.13068168749998677
                },
                {
                    "name": "F4",
                    "midi": 65,
                    "time": 145.63621800000007,
                    "velocity": 0.7322834645669292,
                    "duration": 0.13068168749998677
                },
                {
                    "name": "E4",
                    "midi": 64,
                    "time": 145.77258150000006,
                    "velocity": 0.7322834645669292,
                    "duration": 0.13068168749998677
                },
                {
                    "name": "F4",
                    "midi": 65,
                    "time": 145.90894500000005,
                    "velocity": 0.7322834645669292,
                    "duration": 0.13068168749998677
                },
                {
                    "name": "A4",
                    "midi": 69,
                    "time": 146.04530850000003,
                    "velocity": 0.7322834645669292,
                    "duration": 0.07954537500000924
                },
                {
                    "name": "A4",
                    "midi": 69,
                    "time": 146.14189931250004,
                    "velocity": 0.7322834645669292,
                    "duration": 0.05113631250000594
                },
                {
                    "name": "A#4",
                    "midi": 70,
                    "time": 146.18167200000005,
                    "velocity": 0.7322834645669292,
                    "duration": 0.06249993750000726
                },
                {
                    "name": "C5",
                    "midi": 72,
                    "time": 146.24417193750006,
                    "velocity": 0.7322834645669292,
                    "duration": 0.06249993750000726
                },
                {
                    "name": "A#4",
                    "midi": 70,
                    "time": 146.30667187500006,
                    "velocity": 0.7322834645669292,
                    "duration": 0.06249993750000726
                },
                {
                    "name": "C5",
                    "midi": 72,
                    "time": 146.36917181250007,
                    "velocity": 0.7322834645669292,
                    "duration": 0.06249993750000726
                },
                {
                    "name": "A#4",
                    "midi": 70,
                    "time": 146.43167175000008,
                    "velocity": 0.7322834645669292,
                    "duration": 0.06249993750000726
                },
                {
                    "name": "C5",
                    "midi": 72,
                    "time": 146.49417168750008,
                    "velocity": 0.7322834645669292,
                    "duration": 0.06249993750000726
                },
                {
                    "name": "A#4",
                    "midi": 70,
                    "time": 146.5566716250001,
                    "velocity": 0.7322834645669292,
                    "duration": 0.06249993750000726
                },
                {
                    "name": "C5",
                    "midi": 72,
                    "time": 146.6191715625001,
                    "velocity": 0.7322834645669292,
                    "duration": 0.06249993750000726
                },
                {
                    "name": "A#4",
                    "midi": 70,
                    "time": 146.6816715000001,
                    "velocity": 0.7322834645669292,
                    "duration": 0.06249993750000726
                },
                {
                    "name": "C5",
                    "midi": 72,
                    "time": 146.7441714375001,
                    "velocity": 0.7322834645669292,
                    "duration": 0.06249993750000726
                },
                {
                    "name": "A#4",
                    "midi": 70,
                    "time": 146.80667137500012,
                    "velocity": 0.7322834645669292,
                    "duration": 0.06249993750000726
                },
                {
                    "name": "C5",
                    "midi": 72,
                    "time": 146.86917131250013,
                    "velocity": 0.7322834645669292,
                    "duration": 0.06249993750000726
                },
                {
                    "name": "A#4",
                    "midi": 70,
                    "time": 146.93167125000014,
                    "velocity": 0.7322834645669292,
                    "duration": 0.06249993750000726
                },
                {
                    "name": "C5",
                    "midi": 72,
                    "time": 146.99417118750014,
                    "velocity": 0.7322834645669292,
                    "duration": 0.06249993750000726
                },
                {
                    "name": "A#4",
                    "midi": 70,
                    "time": 147.05667112500015,
                    "velocity": 0.7322834645669292,
                    "duration": 0.06249993750000726
                },
                {
                    "name": "C5",
                    "midi": 72,
                    "time": 147.11917106250016,
                    "velocity": 0.7322834645669292,
                    "duration": 0.06249993750000726
                },
                {
                    "name": "A#4",
                    "midi": 70,
                    "time": 147.18167100000016,
                    "velocity": 0.7322834645669292,
                    "duration": 0.06249993750000726
                },
                {
                    "name": "C5",
                    "midi": 72,
                    "time": 147.24417093750017,
                    "velocity": 0.7322834645669292,
                    "duration": 0.06249993750000726
                },
                {
                    "name": "A#4",
                    "midi": 70,
                    "time": 147.27258000000018,
                    "velocity": 0.7322834645669292,
                    "duration": 0.1306816875000152
                },
                {
                    "name": "G5",
                    "midi": 79,
                    "time": 147.4089435000002,
                    "velocity": 0.7322834645669292,
                    "duration": 0.13068168749998677
                },
                {
                    "name": "E5",
                    "midi": 76,
                    "time": 147.54530700000018,
                    "velocity": 0.7322834645669292,
                    "duration": 0.13068168749998677
                },
                {
                    "name": "C5",
                    "midi": 72,
                    "time": 147.68167050000017,
                    "velocity": 0.7322834645669292,
                    "duration": 0.13068168749998677
                },
                {
                    "name": "A#4",
                    "midi": 70,
                    "time": 147.81803400000015,
                    "velocity": 0.7322834645669292,
                    "duration": 0.13068168749998677
                },
                {
                    "name": "G5",
                    "midi": 79,
                    "time": 147.95439750000014,
                    "velocity": 0.7322834645669292,
                    "duration": 0.13068168749998677
                },
                {
                    "name": "E5",
                    "midi": 76,
                    "time": 148.09076100000013,
                    "velocity": 0.7322834645669292,
                    "duration": 0.13068168749998677
                },
                {
                    "name": "C5",
                    "midi": 72,
                    "time": 148.22712450000012,
                    "velocity": 0.7322834645669292,
                    "duration": 0.0852271875000099
                },
                {
                    "name": "A4",
                    "midi": 69,
                    "time": 148.32371531250013,
                    "velocity": 0.7322834645669292,
                    "duration": 0.03977268750000462
                },
                {
                    "name": "A#4",
                    "midi": 70,
                    "time": 148.36348800000013,
                    "velocity": 0.7322834645669292,
                    "duration": 0.06249993750000726
                },
                {
                    "name": "C5",
                    "midi": 72,
                    "time": 148.42598793750014,
                    "velocity": 0.7322834645669292,
                    "duration": 0.06249993750000726
                },
                {
                    "name": "A#4",
                    "midi": 70,
                    "time": 148.48848787500015,
                    "velocity": 0.7322834645669292,
                    "duration": 0.06249993750000726
                },
                {
                    "name": "C5",
                    "midi": 72,
                    "time": 148.55098781250015,
                    "velocity": 0.7322834645669292,
                    "duration": 0.06249993750000726
                },
                {
                    "name": "A#4",
                    "midi": 70,
                    "time": 148.61348775000016,
                    "velocity": 0.7322834645669292,
                    "duration": 0.06249993750000726
                },
                {
                    "name": "C5",
                    "midi": 72,
                    "time": 148.67598768750017,
                    "velocity": 0.7322834645669292,
                    "duration": 0.06249993750000726
                },
                {
                    "name": "A#4",
                    "midi": 70,
                    "time": 148.73848762500018,
                    "velocity": 0.7322834645669292,
                    "duration": 0.06249993750000726
                },
                {
                    "name": "C5",
                    "midi": 72,
                    "time": 148.80098756250018,
                    "velocity": 0.7322834645669292,
                    "duration": 0.06249993750000726
                },
                {
                    "name": "A#4",
                    "midi": 70,
                    "time": 148.8634875000002,
                    "velocity": 0.7322834645669292,
                    "duration": 0.06249993750000726
                },
                {
                    "name": "C5",
                    "midi": 72,
                    "time": 148.9259874375002,
                    "velocity": 0.7322834645669292,
                    "duration": 0.06249993750000726
                },
                {
                    "name": "A#4",
                    "midi": 70,
                    "time": 148.9884873750002,
                    "velocity": 0.7322834645669292,
                    "duration": 0.06249993750000726
                },
                {
                    "name": "C5",
                    "midi": 72,
                    "time": 149.0509873125002,
                    "velocity": 0.7322834645669292,
                    "duration": 0.06249993750000726
                },
                {
                    "name": "A#4",
                    "midi": 70,
                    "time": 149.11348725000022,
                    "velocity": 0.7322834645669292,
                    "duration": 0.06249993750000726
                },
                {
                    "name": "C5",
                    "midi": 72,
                    "time": 149.17598718750023,
                    "velocity": 0.7322834645669292,
                    "duration": 0.06249993750000726
                },
                {
                    "name": "A#4",
                    "midi": 70,
                    "time": 149.23848712500023,
                    "velocity": 0.7322834645669292,
                    "duration": 0.06249993750000726
                },
                {
                    "name": "C5",
                    "midi": 72,
                    "time": 149.30098706250024,
                    "velocity": 0.7322834645669292,
                    "duration": 0.06249993750000726
                },
                {
                    "name": "A#4",
                    "midi": 70,
                    "time": 149.36348700000025,
                    "velocity": 0.7322834645669292,
                    "duration": 0.06249993750000726
                },
                {
                    "name": "C5",
                    "midi": 72,
                    "time": 149.42598693750026,
                    "velocity": 0.7322834645669292,
                    "duration": 0.06249993750000726
                },
                {
                    "name": "A#4",
                    "midi": 70,
                    "time": 149.45439600000026,
                    "velocity": 0.7322834645669292,
                    "duration": 0.1306816875000152
                },
                {
                    "name": "G5",
                    "midi": 79,
                    "time": 149.59075950000027,
                    "velocity": 0.7322834645669292,
                    "duration": 0.13068168749998677
                },
                {
                    "name": "E5",
                    "midi": 76,
                    "time": 149.72712300000026,
                    "velocity": 0.7322834645669292,
                    "duration": 0.13068168749998677
                },
                {
                    "name": "C5",
                    "midi": 72,
                    "time": 149.86348650000025,
                    "velocity": 0.7322834645669292,
                    "duration": 0.13068168749998677
                },
                {
                    "name": "A#4",
                    "midi": 70,
                    "time": 149.99985000000024,
                    "velocity": 0.7322834645669292,
                    "duration": 0.13068168749998677
                },
                {
                    "name": "G5",
                    "midi": 79,
                    "time": 150.13621350000022,
                    "velocity": 0.7322834645669292,
                    "duration": 0.13068168749998677
                },
                {
                    "name": "E5",
                    "midi": 76,
                    "time": 150.2725770000002,
                    "velocity": 0.7322834645669292,
                    "duration": 0.13068168749998677
                },
                {
                    "name": "C5",
                    "midi": 72,
                    "time": 150.4089405000002,
                    "velocity": 0.7322834645669292,
                    "duration": 0.13068168749998677
                },
                {
                    "name": "A4",
                    "midi": 69,
                    "time": 150.5453040000002,
                    "velocity": 0.7322834645669292,
                    "duration": 0.1818179999999927
                },
                {
                    "name": "G4",
                    "midi": 67,
                    "time": 159.27256800000018,
                    "velocity": 0.7322834645669292,
                    "duration": 0.1818179999999927
                },
                {
                    "name": "E4",
                    "midi": 64,
                    "time": 159.27256800000018,
                    "velocity": 0.7322834645669292,
                    "duration": 0.1818179999999927
                },
                {
                    "name": "C4",
                    "midi": 60,
                    "time": 159.54529500000018,
                    "velocity": 0.7322834645669292,
                    "duration": 0.1818179999999927
                },
                {
                    "name": "A4",
                    "midi": 69,
                    "time": 159.81802200000018,
                    "velocity": 0.7322834645669292,
                    "duration": 0.1818179999999927
                },
                {
                    "name": "F4",
                    "midi": 65,
                    "time": 159.81802200000018,
                    "velocity": 0.7322834645669292,
                    "duration": 0.1818179999999927
                },
                {
                    "name": "C4",
                    "midi": 60,
                    "time": 160.0907490000002,
                    "velocity": 0.7322834645669292,
                    "duration": 0.1818179999999927
                },
                {
                    "name": "G4",
                    "midi": 67,
                    "time": 160.3634760000002,
                    "velocity": 0.7322834645669292,
                    "duration": 0.1818179999999927
                },
                {
                    "name": "E4",
                    "midi": 64,
                    "time": 160.3634760000002,
                    "velocity": 0.7322834645669292,
                    "duration": 0.1818179999999927
                },
                {
                    "name": "C4",
                    "midi": 60,
                    "time": 160.6362030000002,
                    "velocity": 0.7322834645669292,
                    "duration": 0.13068168749998677
                },
                {
                    "name": "D4",
                    "midi": 62,
                    "time": 160.77256650000018,
                    "velocity": 0.7322834645669292,
                    "duration": 0.13068168749998677
                },
                {
                    "name": "E4",
                    "midi": 64,
                    "time": 160.90893000000017,
                    "velocity": 0.7322834645669292,
                    "duration": 0.13068168749998677
                },
                {
                    "name": "F4",
                    "midi": 65,
                    "time": 161.04529350000016,
                    "velocity": 0.7322834645669292,
                    "duration": 0.13068168749998677
                },
                {
                    "name": "G4",
                    "midi": 67,
                    "time": 161.18165700000014,
                    "velocity": 0.7322834645669292,
                    "duration": 0.13068168749998677
                },
                {
                    "name": "E4",
                    "midi": 64,
                    "time": 161.31802050000013,
                    "velocity": 0.7322834645669292,
                    "duration": 0.13068168749998677
                },
                {
                    "name": "A4",
                    "midi": 69,
                    "time": 161.45438400000012,
                    "velocity": 0.7322834645669292,
                    "duration": 0.1818179999999927
                },
                {
                    "name": "F4",
                    "midi": 65,
                    "time": 161.45438400000012,
                    "velocity": 0.7322834645669292,
                    "duration": 0.1818179999999927
                },
                {
                    "name": "C4",
                    "midi": 60,
                    "time": 161.72711100000012,
                    "velocity": 0.7322834645669292,
                    "duration": 0.1818179999999927
                },
                {
                    "name": "G4",
                    "midi": 67,
                    "time": 161.99983800000012,
                    "velocity": 0.7322834645669292,
                    "duration": 0.1818179999999927
                },
                {
                    "name": "E4",
                    "midi": 64,
                    "time": 161.99983800000012,
                    "velocity": 0.7322834645669292,
                    "duration": 0.1818179999999927
                },
                {
                    "name": "C4",
                    "midi": 60,
                    "time": 162.27256500000013,
                    "velocity": 0.7322834645669292,
                    "duration": 0.1818179999999927
                },
                {
                    "name": "F4",
                    "midi": 65,
                    "time": 162.54529200000013,
                    "velocity": 0.7322834645669292,
                    "duration": 0.1818179999999927
                },
                {
                    "name": "A4",
                    "midi": 69,
                    "time": 162.54529200000013,
                    "velocity": 0.7322834645669292,
                    "duration": 0.13068168749998677
                },
                {
                    "name": "A#4",
                    "midi": 70,
                    "time": 162.68165550000012,
                    "velocity": 0.7322834645669292,
                    "duration": 0.1306816875000152
                },
                {
                    "name": "A4",
                    "midi": 69,
                    "time": 162.81801900000013,
                    "velocity": 0.7322834645669292,
                    "duration": 0.13068168749998677
                },
                {
                    "name": "G4",
                    "midi": 67,
                    "time": 162.95438250000012,
                    "velocity": 0.7322834645669292,
                    "duration": 0.13068168749998677
                },
                {
                    "name": "F4",
                    "midi": 65,
                    "time": 163.0907460000001,
                    "velocity": 0.7322834645669292,
                    "duration": 0.13068168749998677
                },
                {
                    "name": "G4",
                    "midi": 67,
                    "time": 163.2271095000001,
                    "velocity": 0.7322834645669292,
                    "duration": 0.13068168749998677
                },
                {
                    "name": "A4",
                    "midi": 69,
                    "time": 163.36347300000008,
                    "velocity": 0.7322834645669292,
                    "duration": 0.13068168749998677
                },
                {
                    "name": "F4",
                    "midi": 65,
                    "time": 163.49983650000007,
                    "velocity": 0.7322834645669292,
                    "duration": 0.13068168749998677
                },
                {
                    "name": "G4",
                    "midi": 67,
                    "time": 163.63620000000006,
                    "velocity": 0.7322834645669292,
                    "duration": 0.1818179999999927
                },
                {
                    "name": "A#4",
                    "midi": 70,
                    "time": 163.63620000000006,
                    "velocity": 0.7322834645669292,
                    "duration": 0.1818179999999927
                },
                {
                    "name": "C4",
                    "midi": 60,
                    "time": 163.90892700000006,
                    "velocity": 0.7322834645669292,
                    "duration": 0.1818179999999927
                },
                {
                    "name": "A4",
                    "midi": 69,
                    "time": 164.18165400000007,
                    "velocity": 0.7322834645669292,
                    "duration": 0.1818179999999927
                },
                {
                    "name": "F4",
                    "midi": 65,
                    "time": 164.18165400000007,
                    "velocity": 0.7322834645669292,
                    "duration": 0.1818179999999927
                },
                {
                    "name": "C4",
                    "midi": 60,
                    "time": 164.45438100000007,
                    "velocity": 0.7322834645669292,
                    "duration": 0.1818179999999927
                },
                {
                    "name": "E4",
                    "midi": 64,
                    "time": 164.72710800000007,
                    "velocity": 0.7322834645669292,
                    "duration": 0.2670451874999742
                },
                {
                    "name": "G4",
                    "midi": 67,
                    "time": 164.72710800000007,
                    "velocity": 0.7322834645669292,
                    "duration": 0.13068168749998677
                },
                {
                    "name": "F4",
                    "midi": 65,
                    "time": 164.86347150000006,
                    "velocity": 0.7322834645669292,
                    "duration": 0.13068168749998677
                },
                {
                    "name": "E4",
                    "midi": 64,
                    "time": 164.99983500000005,
                    "velocity": 0.7322834645669292,
                    "duration": 0.13068168749998677
                },
                {
                    "name": "D4",
                    "midi": 62,
                    "time": 165.13619850000003,
                    "velocity": 0.7322834645669292,
                    "duration": 0.13068168749998677
                },
                {
                    "name": "C4",
                    "midi": 60,
                    "time": 165.27256200000002,
                    "velocity": 0.7322834645669292,
                    "duration": 0.13068168749998677
                }
            ],
            "controlChanges": {
                "7": [
                    {
                        "number": 7,
                        "time": 0,
                        "value": 0.7874015748031497
                    }
                ]
            },
            "id": 5,
            "name": "Manual 2 RH",
            "instrumentNumber": 6,
            "instrument": "harpsichord",
            "instrumentFamily": "piano",
            "channelNumber": 1,
            "isPercussion": false
        },
        {
            "startTime": 36.272691,
            "duration": 176.72141418749993,
            "length": 253,
            "notes": [
                {
                    "name": "F3",
                    "midi": 53,
                    "time": 36.272691,
                    "velocity": 0.6850393700787402,
                    "duration": 0.13068168750000098
                },
                {
                    "name": "G3",
                    "midi": 55,
                    "time": 36.4090545,
                    "velocity": 0.6850393700787402,
                    "duration": 0.13068168750000098
                },
                {
                    "name": "A3",
                    "midi": 57,
                    "time": 36.545418000000005,
                    "velocity": 0.6850393700787402,
                    "duration": 0.1818179999999998
                },
                {
                    "name": "F3",
                    "midi": 53,
                    "time": 36.81814500000001,
                    "velocity": 0.6850393700787402,
                    "duration": 0.1818179999999998
                },
                {
                    "name": "D4",
                    "midi": 62,
                    "time": 44.72722800000001,
                    "velocity": 0.6850393700787402,
                    "duration": 0.1818179999999998
                },
                {
                    "name": "C4",
                    "midi": 60,
                    "time": 44.72722800000001,
                    "velocity": 0.6850393700787402,
                    "duration": 0.1818179999999998
                },
                {
                    "name": "C4",
                    "midi": 60,
                    "time": 44.999955000000014,
                    "velocity": 0.6850393700787402,
                    "duration": 0.1818179999999998
                },
                {
                    "name": "C3",
                    "midi": 48,
                    "time": 44.999955000000014,
                    "velocity": 0.6850393700787402,
                    "duration": 0.13068168750000098
                },
                {
                    "name": "D3",
                    "midi": 50,
                    "time": 45.136318500000016,
                    "velocity": 0.6850393700787402,
                    "duration": 0.13068168750000098
                },
                {
                    "name": "E3",
                    "midi": 52,
                    "time": 45.27268200000002,
                    "velocity": 0.6850393700787402,
                    "duration": 0.1818179999999998
                },
                {
                    "name": "C3",
                    "midi": 48,
                    "time": 45.54540900000002,
                    "velocity": 0.6850393700787402,
                    "duration": 0.1818179999999998
                },
                {
                    "name": "F3",
                    "midi": 53,
                    "time": 45.818136000000024,
                    "velocity": 0.6850393700787402,
                    "duration": 0.5397721875000059
                },
                {
                    "name": "G3",
                    "midi": 55,
                    "time": 45.954499500000026,
                    "velocity": 0.6850393700787402,
                    "duration": 0.13068168750000098
                },
                {
                    "name": "A3",
                    "midi": 57,
                    "time": 46.09086300000003,
                    "velocity": 0.6850393700787402,
                    "duration": 0.13068168750000098
                },
                {
                    "name": "C4",
                    "midi": 60,
                    "time": 46.22722650000003,
                    "velocity": 0.6850393700787402,
                    "duration": 0.13068168750000098
                },
                {
                    "name": "F4",
                    "midi": 65,
                    "time": 46.36359000000003,
                    "velocity": 0.6850393700787402,
                    "duration": 0.1818179999999998
                },
                {
                    "name": "D3",
                    "midi": 50,
                    "time": 46.636317000000034,
                    "velocity": 0.6850393700787402,
                    "duration": 0.1818179999999998
                },
                {
                    "name": "G3",
                    "midi": 55,
                    "time": 46.90904400000004,
                    "velocity": 0.6850393700787402,
                    "duration": 0.5397721875000059
                },
                {
                    "name": "A3",
                    "midi": 57,
                    "time": 47.04540750000004,
                    "velocity": 0.6850393700787402,
                    "duration": 0.13068168750000098
                },
                {
                    "name": "B3",
                    "midi": 59,
                    "time": 47.18177100000004,
                    "velocity": 0.6850393700787402,
                    "duration": 0.13068168750000098
                },
                {
                    "name": "D4",
                    "midi": 62,
                    "time": 47.31813450000004,
                    "velocity": 0.6850393700787402,
                    "duration": 0.13068168750000098
                },
                {
                    "name": "E3",
                    "midi": 52,
                    "time": 47.72722500000004,
                    "velocity": 0.6850393700787402,
                    "duration": 0.1818179999999998
                },
                {
                    "name": "A3",
                    "midi": 57,
                    "time": 47.99995200000004,
                    "velocity": 0.6850393700787402,
                    "duration": 0.5397721875000059
                },
                {
                    "name": "B3",
                    "midi": 59,
                    "time": 48.136315500000045,
                    "velocity": 0.6850393700787402,
                    "duration": 0.13068168750000098
                },
                {
                    "name": "C4",
                    "midi": 60,
                    "time": 48.272679000000046,
                    "velocity": 0.6850393700787402,
                    "duration": 0.13068168750000098
                },
                {
                    "name": "E4",
                    "midi": 64,
                    "time": 48.40904250000005,
                    "velocity": 0.6850393700787402,
                    "duration": 0.13068168750000098
                },
                {
                    "name": "A3",
                    "midi": 57,
                    "time": 48.818133000000046,
                    "velocity": 0.6850393700787402,
                    "duration": 0.2670451875000026
                },
                {
                    "name": "C4",
                    "midi": 60,
                    "time": 48.818133000000046,
                    "velocity": 0.6850393700787402,
                    "duration": 0.2670451875000026
                },
                {
                    "name": "D4",
                    "midi": 62,
                    "time": 49.09086000000005,
                    "velocity": 0.6850393700787402,
                    "duration": 0.2670451875000026
                },
                {
                    "name": "B3",
                    "midi": 59,
                    "time": 49.09086000000005,
                    "velocity": 0.6850393700787402,
                    "duration": 0.2670451875000026
                },
                {
                    "name": "B3",
                    "midi": 59,
                    "time": 49.36358700000005,
                    "velocity": 0.6850393700787402,
                    "duration": 0.2670451875000026
                },
                {
                    "name": "G3",
                    "midi": 55,
                    "time": 49.36358700000005,
                    "velocity": 0.6850393700787402,
                    "duration": 0.2670451875000026
                },
                {
                    "name": "D4",
                    "midi": 62,
                    "time": 49.636314000000056,
                    "velocity": 0.6850393700787402,
                    "duration": 0.2670451875000026
                },
                {
                    "name": "B3",
                    "midi": 59,
                    "time": 49.636314000000056,
                    "velocity": 0.6850393700787402,
                    "duration": 0.2670451875000026
                },
                {
                    "name": "F4",
                    "midi": 65,
                    "time": 49.90904100000006,
                    "velocity": 0.6850393700787402,
                    "duration": 0.2670451875000026
                },
                {
                    "name": "D4",
                    "midi": 62,
                    "time": 49.90904100000006,
                    "velocity": 0.6850393700787402,
                    "duration": 0.2670451875000026
                },
                {
                    "name": "D4",
                    "midi": 62,
                    "time": 50.18176800000006,
                    "velocity": 0.6850393700787402,
                    "duration": 0.2670451875000026
                },
                {
                    "name": "B3",
                    "midi": 59,
                    "time": 50.18176800000006,
                    "velocity": 0.6850393700787402,
                    "duration": 0.2670451875000026
                },
                {
                    "name": "B3",
                    "midi": 59,
                    "time": 50.454495000000065,
                    "velocity": 0.6850393700787402,
                    "duration": 0.2670451875000026
                },
                {
                    "name": "G3",
                    "midi": 55,
                    "time": 50.454495000000065,
                    "velocity": 0.6850393700787402,
                    "duration": 0.2670451875000026
                },
                {
                    "name": "D4",
                    "midi": 62,
                    "time": 50.72722200000007,
                    "velocity": 0.6850393700787402,
                    "duration": 0.2670451875000026
                },
                {
                    "name": "B3",
                    "midi": 59,
                    "time": 50.72722200000007,
                    "velocity": 0.6850393700787402,
                    "duration": 0.2670451875000026
                },
                {
                    "name": "F4",
                    "midi": 65,
                    "time": 50.99994900000007,
                    "velocity": 0.6850393700787402,
                    "duration": 0.2670451875000026
                },
                {
                    "name": "D4",
                    "midi": 62,
                    "time": 50.99994900000007,
                    "velocity": 0.6850393700787402,
                    "duration": 0.2670451875000026
                },
                {
                    "name": "C4",
                    "midi": 60,
                    "time": 51.272676000000075,
                    "velocity": 0.6850393700787402,
                    "duration": 0.6761356875000004
                },
                {
                    "name": "C4",
                    "midi": 60,
                    "time": 51.818130000000075,
                    "velocity": 0.6850393700787402,
                    "duration": 0.2670451875000026
                },
                {
                    "name": "B3",
                    "midi": 59,
                    "time": 51.954493500000076,
                    "velocity": 0.6850393700787402,
                    "duration": 0.13068168750000098
                },
                {
                    "name": "A3",
                    "midi": 57,
                    "time": 52.09085700000008,
                    "velocity": 0.6850393700787402,
                    "duration": 0.13068168750000098
                },
                {
                    "name": "G3",
                    "midi": 55,
                    "time": 52.22722050000008,
                    "velocity": 0.6850393700787402,
                    "duration": 0.13068168750000098
                },
                {
                    "name": "F#3",
                    "midi": 54,
                    "time": 52.36358400000008,
                    "velocity": 0.6850393700787402,
                    "duration": 0.13068168750000098
                },
                {
                    "name": "E3",
                    "midi": 52,
                    "time": 52.49994750000008,
                    "velocity": 0.6850393700787402,
                    "duration": 0.13068168750000098
                },
                {
                    "name": "D3",
                    "midi": 50,
                    "time": 52.636311000000084,
                    "velocity": 0.6850393700787402,
                    "duration": 0.13068168750000098
                },
                {
                    "name": "C3",
                    "midi": 48,
                    "time": 52.772674500000086,
                    "velocity": 0.6850393700787402,
                    "duration": 0.13068168750000098
                },
                {
                    "name": "B2",
                    "midi": 47,
                    "time": 52.90903800000009,
                    "velocity": 0.6850393700787402,
                    "duration": 0.13068168750000098
                },
                {
                    "name": "A2",
                    "midi": 45,
                    "time": 53.04540150000009,
                    "velocity": 0.6850393700787402,
                    "duration": 0.13068168750000098
                },
                {
                    "name": "G2",
                    "midi": 43,
                    "time": 53.18176500000009,
                    "velocity": 0.6850393700787402,
                    "duration": 0.13068168750000098
                },
                {
                    "name": "F#2",
                    "midi": 42,
                    "time": 53.31812850000009,
                    "velocity": 0.6850393700787402,
                    "duration": 0.13068168750000098
                },
                {
                    "name": "G2",
                    "midi": 43,
                    "time": 53.454492000000094,
                    "velocity": 0.6850393700787402,
                    "duration": 0.5397721875000059
                },
                {
                    "name": "D3",
                    "midi": 50,
                    "time": 53.7272190000001,
                    "velocity": 0.6850393700787402,
                    "duration": 0.2670451875000026
                },
                {
                    "name": "G3",
                    "midi": 55,
                    "time": 53.9999460000001,
                    "velocity": 0.6850393700787402,
                    "duration": 0.8124991875000092
                },
                {
                    "name": "B2",
                    "midi": 47,
                    "time": 54.272673000000104,
                    "velocity": 0.6850393700787402,
                    "duration": 0.2670451875000026
                },
                {
                    "name": "C3",
                    "midi": 48,
                    "time": 54.54540000000011,
                    "velocity": 0.6850393700787402,
                    "duration": 0.2670451875000026
                },
                {
                    "name": "E2",
                    "midi": 40,
                    "time": 54.81812700000011,
                    "velocity": 0.6850393700787402,
                    "duration": 0.2670451875000026
                },
                {
                    "name": "C3",
                    "midi": 48,
                    "time": 54.81812700000011,
                    "velocity": 0.6850393700787402,
                    "duration": 0.5397721875000059
                },
                {
                    "name": "F2",
                    "midi": 41,
                    "time": 55.090854000000114,
                    "velocity": 0.6850393700787402,
                    "duration": 0.2670451875000026
                },
                {
                    "name": "G2",
                    "midi": 43,
                    "time": 55.36358100000012,
                    "velocity": 0.6850393700787402,
                    "duration": 0.2670451875000026
                },
                {
                    "name": "B2",
                    "midi": 47,
                    "time": 55.36358100000012,
                    "velocity": 0.6850393700787402,
                    "duration": 0.2670451875000026
                },
                {
                    "name": "C3",
                    "midi": 48,
                    "time": 55.63630800000012,
                    "velocity": 0.6850393700787402,
                    "duration": 0.09090900000000346
                },
                {
                    "name": "G3",
                    "midi": 55,
                    "time": 72.27265500000013,
                    "velocity": 0.6850393700787402,
                    "duration": 0.2670451875000026
                },
                {
                    "name": "F3",
                    "midi": 53,
                    "time": 72.54538200000013,
                    "velocity": 0.6850393700787402,
                    "duration": 0.2670451875000026
                },
                {
                    "name": "E3",
                    "midi": 52,
                    "time": 72.81810900000013,
                    "velocity": 0.6850393700787402,
                    "duration": 0.2670451875000026
                },
                {
                    "name": "D3",
                    "midi": 50,
                    "time": 73.09083600000014,
                    "velocity": 0.6850393700787402,
                    "duration": 0.2670451875000026
                },
                {
                    "name": "A#3",
                    "midi": 58,
                    "time": 73.36356300000014,
                    "velocity": 0.6850393700787402,
                    "duration": 0.2670451875000026
                },
                {
                    "name": "A3",
                    "midi": 57,
                    "time": 73.63629000000014,
                    "velocity": 0.6850393700787402,
                    "duration": 0.2670451875000026
                },
                {
                    "name": "G3",
                    "midi": 55,
                    "time": 73.90901700000015,
                    "velocity": 0.6850393700787402,
                    "duration": 0.2670451875000026
                },
                {
                    "name": "F3",
                    "midi": 53,
                    "time": 74.18174400000015,
                    "velocity": 0.6850393700787402,
                    "duration": 0.09090899999999635
                },
                {
                    "name": "D3",
                    "midi": 50,
                    "time": 97.36353900000015,
                    "velocity": 0.6850393700787402,
                    "duration": 0.13068168750000098
                },
                {
                    "name": "E3",
                    "midi": 52,
                    "time": 97.49990250000015,
                    "velocity": 0.6850393700787402,
                    "duration": 0.13068168750000098
                },
                {
                    "name": "F3",
                    "midi": 53,
                    "time": 97.63626600000015,
                    "velocity": 0.6850393700787402,
                    "duration": 0.13068168750000098
                },
                {
                    "name": "G3",
                    "midi": 55,
                    "time": 97.77262950000015,
                    "velocity": 0.6850393700787402,
                    "duration": 0.13068168750000098
                },
                {
                    "name": "A3",
                    "midi": 57,
                    "time": 97.90899300000015,
                    "velocity": 0.6850393700787402,
                    "duration": 0.13068168750000098
                },
                {
                    "name": "B3",
                    "midi": 59,
                    "time": 98.04535650000015,
                    "velocity": 0.6850393700787402,
                    "duration": 0.13068168750000098
                },
                {
                    "name": "C#4",
                    "midi": 61,
                    "time": 98.18172000000015,
                    "velocity": 0.6850393700787402,
                    "duration": 0.18181800000000692
                },
                {
                    "name": "E4",
                    "midi": 64,
                    "time": 98.18172000000015,
                    "velocity": 0.6850393700787402,
                    "duration": 0.18181800000000692
                },
                {
                    "name": "A3",
                    "midi": 57,
                    "time": 98.45444700000016,
                    "velocity": 0.6850393700787402,
                    "duration": 0.18181800000000692
                },
                {
                    "name": "F4",
                    "midi": 65,
                    "time": 98.72717400000016,
                    "velocity": 0.6850393700787402,
                    "duration": 0.18181800000000692
                },
                {
                    "name": "D4",
                    "midi": 62,
                    "time": 98.72717400000016,
                    "velocity": 0.6850393700787402,
                    "duration": 0.18181800000000692
                },
                {
                    "name": "A3",
                    "midi": 57,
                    "time": 98.99990100000016,
                    "velocity": 0.6850393700787402,
                    "duration": 0.18181800000000692
                },
                {
                    "name": "E4",
                    "midi": 64,
                    "time": 99.27262800000017,
                    "velocity": 0.6850393700787402,
                    "duration": 0.18181800000000692
                },
                {
                    "name": "C#4",
                    "midi": 61,
                    "time": 99.27262800000017,
                    "velocity": 0.6850393700787402,
                    "duration": 0.18181800000000692
                },
                {
                    "name": "A3",
                    "midi": 57,
                    "time": 99.54535500000017,
                    "velocity": 0.6850393700787402,
                    "duration": 0.13068168750000098
                },
                {
                    "name": "B3",
                    "midi": 59,
                    "time": 99.68171850000017,
                    "velocity": 0.6850393700787402,
                    "duration": 0.13068168750000098
                },
                {
                    "name": "C#4",
                    "midi": 61,
                    "time": 99.81808200000017,
                    "velocity": 0.6850393700787402,
                    "duration": 0.13068168750000098
                },
                {
                    "name": "D4",
                    "midi": 62,
                    "time": 99.95444550000018,
                    "velocity": 0.6850393700787402,
                    "duration": 0.13068168750000098
                },
                {
                    "name": "E4",
                    "midi": 64,
                    "time": 100.09080900000018,
                    "velocity": 0.6850393700787402,
                    "duration": 0.13068168750000098
                },
                {
                    "name": "C#4",
                    "midi": 61,
                    "time": 100.22717250000018,
                    "velocity": 0.6850393700787402,
                    "duration": 0.13068168750000098
                },
                {
                    "name": "F4",
                    "midi": 65,
                    "time": 100.36353600000018,
                    "velocity": 0.6850393700787402,
                    "duration": 0.18181800000000692
                },
                {
                    "name": "D4",
                    "midi": 62,
                    "time": 100.36353600000018,
                    "velocity": 0.6850393700787402,
                    "duration": 0.18181800000000692
                },
                {
                    "name": "A3",
                    "midi": 57,
                    "time": 100.63626300000018,
                    "velocity": 0.6850393700787402,
                    "duration": 0.18181800000000692
                },
                {
                    "name": "E4",
                    "midi": 64,
                    "time": 100.90899000000019,
                    "velocity": 0.6850393700787402,
                    "duration": 0.18181800000000692
                },
                {
                    "name": "C#4",
                    "midi": 61,
                    "time": 100.90899000000019,
                    "velocity": 0.6850393700787402,
                    "duration": 0.18181800000000692
                },
                {
                    "name": "A3",
                    "midi": 57,
                    "time": 101.18171700000019,
                    "velocity": 0.6850393700787402,
                    "duration": 0.18181800000000692
                },
                {
                    "name": "D4",
                    "midi": 62,
                    "time": 101.4544440000002,
                    "velocity": 0.6850393700787402,
                    "duration": 0.2670451875000026
                },
                {
                    "name": "A3",
                    "midi": 57,
                    "time": 102.8180790000002,
                    "velocity": 0.6850393700787402,
                    "duration": 0.18181800000000692
                },
                {
                    "name": "A3",
                    "midi": 57,
                    "time": 103.3635330000002,
                    "velocity": 0.6850393700787402,
                    "duration": 0.18181800000000692
                },
                {
                    "name": "C#4",
                    "midi": 61,
                    "time": 103.6362600000002,
                    "velocity": 0.6850393700787402,
                    "duration": 0.13068168750000098
                },
                {
                    "name": "E4",
                    "midi": 64,
                    "time": 103.6362600000002,
                    "velocity": 0.6850393700787402,
                    "duration": 0.13068168750000098
                },
                {
                    "name": "D4",
                    "midi": 62,
                    "time": 103.77262350000021,
                    "velocity": 0.6850393700787402,
                    "duration": 0.13068168750000098
                },
                {
                    "name": "C#4",
                    "midi": 61,
                    "time": 103.90898700000021,
                    "velocity": 0.6850393700787402,
                    "duration": 0.13068168750000098
                },
                {
                    "name": "B3",
                    "midi": 59,
                    "time": 104.04535050000021,
                    "velocity": 0.6850393700787402,
                    "duration": 0.13068168750000098
                },
                {
                    "name": "A3",
                    "midi": 57,
                    "time": 104.18171400000021,
                    "velocity": 0.6850393700787402,
                    "duration": 0.13068168750000098
                },
                {
                    "name": "G3",
                    "midi": 55,
                    "time": 104.31807750000021,
                    "velocity": 0.6850393700787402,
                    "duration": 0.13068168750000098
                },
                {
                    "name": "F3",
                    "midi": 53,
                    "time": 104.45444100000022,
                    "velocity": 0.6850393700787402,
                    "duration": 0.13068168750000098
                },
                {
                    "name": "E3",
                    "midi": 52,
                    "time": 104.59080450000022,
                    "velocity": 0.6850393700787402,
                    "duration": 0.13068168750000098
                },
                {
                    "name": "D3",
                    "midi": 50,
                    "time": 104.72716800000022,
                    "velocity": 0.6850393700787402,
                    "duration": 0.13068168750000098
                },
                {
                    "name": "G3",
                    "midi": 55,
                    "time": 105.27262200000023,
                    "velocity": 0.6850393700787402,
                    "duration": 0.13068168750000098
                },
                {
                    "name": "C3",
                    "midi": 48,
                    "time": 105.81807600000023,
                    "velocity": 0.6850393700787402,
                    "duration": 0.13068168750000098
                },
                {
                    "name": "C4",
                    "midi": 60,
                    "time": 105.95443950000023,
                    "velocity": 0.6850393700787402,
                    "duration": 0.13068168750000098
                },
                {
                    "name": "D4",
                    "midi": 62,
                    "time": 106.09080300000024,
                    "velocity": 0.6850393700787402,
                    "duration": 0.13068168750000098
                },
                {
                    "name": "E4",
                    "midi": 64,
                    "time": 106.22716650000024,
                    "velocity": 0.6850393700787402,
                    "duration": 0.13068168750000098
                },
                {
                    "name": "F3",
                    "midi": 53,
                    "time": 106.36353000000024,
                    "velocity": 0.6850393700787402,
                    "duration": 0.13068168750000098
                },
                {
                    "name": "D#4",
                    "midi": 63,
                    "time": 106.49989350000024,
                    "velocity": 0.6850393700787402,
                    "duration": 0.13068168750000098
                },
                {
                    "name": "D4",
                    "midi": 62,
                    "time": 106.63625700000024,
                    "velocity": 0.6850393700787402,
                    "duration": 0.13068168750000098
                },
                {
                    "name": "C4",
                    "midi": 60,
                    "time": 106.77262050000024,
                    "velocity": 0.6850393700787402,
                    "duration": 0.13068168750000098
                },
                {
                    "name": "A#2",
                    "midi": 46,
                    "time": 106.90898400000025,
                    "velocity": 0.6850393700787402,
                    "duration": 0.13068168750000098
                },
                {
                    "name": "A#3",
                    "midi": 58,
                    "time": 107.04534750000025,
                    "velocity": 0.6850393700787402,
                    "duration": 0.13068168750000098
                },
                {
                    "name": "C4",
                    "midi": 60,
                    "time": 107.18171100000025,
                    "velocity": 0.6850393700787402,
                    "duration": 0.13068168750000098
                },
                {
                    "name": "D4",
                    "midi": 62,
                    "time": 107.31807450000025,
                    "velocity": 0.6850393700787402,
                    "duration": 0.13068168750000098
                },
                {
                    "name": "D#3",
                    "midi": 51,
                    "time": 107.45443800000025,
                    "velocity": 0.6850393700787402,
                    "duration": 0.2670451875000026
                },
                {
                    "name": "A3",
                    "midi": 57,
                    "time": 107.72716500000026,
                    "velocity": 0.6850393700787402,
                    "duration": 0.2670451875000026
                },
                {
                    "name": "D3",
                    "midi": 50,
                    "time": 107.99989200000026,
                    "velocity": 0.6850393700787402,
                    "duration": 0.2670451875000026
                },
                {
                    "name": "G3",
                    "midi": 55,
                    "time": 108.27261900000026,
                    "velocity": 0.6850393700787402,
                    "duration": 0.2670451875000026
                },
                {
                    "name": "C3",
                    "midi": 48,
                    "time": 108.54534600000027,
                    "velocity": 0.6850393700787402,
                    "duration": 0.2670451875000026
                },
                {
                    "name": "F3",
                    "midi": 53,
                    "time": 108.81807300000027,
                    "velocity": 0.6850393700787402,
                    "duration": 0.2670451875000026
                },
                {
                    "name": "A#2",
                    "midi": 46,
                    "time": 109.09080000000027,
                    "velocity": 0.6850393700787402,
                    "duration": 0.2670451875000026
                },
                {
                    "name": "D3",
                    "midi": 50,
                    "time": 109.36352700000027,
                    "velocity": 0.6850393700787402,
                    "duration": 0.2670451875000026
                },
                {
                    "name": "G3",
                    "midi": 55,
                    "time": 109.63625400000028,
                    "velocity": 0.6850393700787402,
                    "duration": 0.2670451875000026
                },
                {
                    "name": "D#3",
                    "midi": 51,
                    "time": 109.90898100000028,
                    "velocity": 0.6850393700787402,
                    "duration": 0.2670451875000026
                },
                {
                    "name": "F3",
                    "midi": 53,
                    "time": 110.18170800000028,
                    "velocity": 0.6850393700787402,
                    "duration": 0.2670451875000026
                },
                {
                    "name": "C3",
                    "midi": 48,
                    "time": 110.45443500000029,
                    "velocity": 0.6850393700787402,
                    "duration": 0.2670451875000026
                },
                {
                    "name": "A2",
                    "midi": 45,
                    "time": 110.72716200000029,
                    "velocity": 0.6850393700787402,
                    "duration": 0.2670451875000026
                },
                {
                    "name": "F2",
                    "midi": 41,
                    "time": 110.9998890000003,
                    "velocity": 0.6850393700787402,
                    "duration": 0.2670451875000026
                },
                {
                    "name": "A#2",
                    "midi": 46,
                    "time": 111.2726160000003,
                    "velocity": 0.6850393700787402,
                    "duration": 0.2670451875000026
                },
                {
                    "name": "A#1",
                    "midi": 34,
                    "time": 111.5453430000003,
                    "velocity": 0.6850393700787402,
                    "duration": 0.2670451875000026
                },
                {
                    "name": "F4",
                    "midi": 65,
                    "time": 142.0907670000003,
                    "velocity": 0.6850393700787402,
                    "duration": 0.1818179999999927
                },
                {
                    "name": "D4",
                    "midi": 62,
                    "time": 142.0907670000003,
                    "velocity": 0.6850393700787402,
                    "duration": 0.1818179999999927
                },
                {
                    "name": "F4",
                    "midi": 65,
                    "time": 142.36349400000032,
                    "velocity": 0.6850393700787402,
                    "duration": 0.1818179999999927
                },
                {
                    "name": "D4",
                    "midi": 62,
                    "time": 142.36349400000032,
                    "velocity": 0.6850393700787402,
                    "duration": 0.1818179999999927
                },
                {
                    "name": "F4",
                    "midi": 65,
                    "time": 142.63622100000032,
                    "velocity": 0.6850393700787402,
                    "duration": 0.1818179999999927
                },
                {
                    "name": "D4",
                    "midi": 62,
                    "time": 142.63622100000032,
                    "velocity": 0.6850393700787402,
                    "duration": 0.1818179999999927
                },
                {
                    "name": "D#4",
                    "midi": 63,
                    "time": 142.90894800000032,
                    "velocity": 0.6850393700787402,
                    "duration": 0.1818179999999927
                },
                {
                    "name": "C4",
                    "midi": 60,
                    "time": 142.90894800000032,
                    "velocity": 0.6850393700787402,
                    "duration": 0.1818179999999927
                },
                {
                    "name": "D#4",
                    "midi": 63,
                    "time": 143.18167500000033,
                    "velocity": 0.6850393700787402,
                    "duration": 0.1818179999999927
                },
                {
                    "name": "C4",
                    "midi": 60,
                    "time": 143.18167500000033,
                    "velocity": 0.6850393700787402,
                    "duration": 0.1818179999999927
                },
                {
                    "name": "D#4",
                    "midi": 63,
                    "time": 143.45440200000033,
                    "velocity": 0.6850393700787402,
                    "duration": 0.1818179999999927
                },
                {
                    "name": "C4",
                    "midi": 60,
                    "time": 143.45440200000033,
                    "velocity": 0.6850393700787402,
                    "duration": 0.1818179999999927
                },
                {
                    "name": "D#4",
                    "midi": 63,
                    "time": 143.72712900000033,
                    "velocity": 0.6850393700787402,
                    "duration": 0.1818179999999927
                },
                {
                    "name": "C4",
                    "midi": 60,
                    "time": 143.72712900000033,
                    "velocity": 0.6850393700787402,
                    "duration": 0.1818179999999927
                },
                {
                    "name": "D4",
                    "midi": 62,
                    "time": 144.27258300000034,
                    "velocity": 0.6850393700787402,
                    "duration": 0.1818179999999927
                },
                {
                    "name": "A#3",
                    "midi": 58,
                    "time": 144.27258300000034,
                    "velocity": 0.6850393700787402,
                    "duration": 0.1818179999999927
                },
                {
                    "name": "D4",
                    "midi": 62,
                    "time": 144.54531000000034,
                    "velocity": 0.6850393700787402,
                    "duration": 0.1818179999999927
                },
                {
                    "name": "A#3",
                    "midi": 58,
                    "time": 144.54531000000034,
                    "velocity": 0.6850393700787402,
                    "duration": 0.1818179999999927
                },
                {
                    "name": "D4",
                    "midi": 62,
                    "time": 144.81803700000034,
                    "velocity": 0.6850393700787402,
                    "duration": 0.1818179999999927
                },
                {
                    "name": "A#3",
                    "midi": 58,
                    "time": 144.81803700000034,
                    "velocity": 0.6850393700787402,
                    "duration": 0.1818179999999927
                },
                {
                    "name": "C4",
                    "midi": 60,
                    "time": 145.09076400000035,
                    "velocity": 0.6850393700787402,
                    "duration": 0.1818179999999927
                },
                {
                    "name": "A3",
                    "midi": 57,
                    "time": 145.09076400000035,
                    "velocity": 0.6850393700787402,
                    "duration": 0.1818179999999927
                },
                {
                    "name": "C4",
                    "midi": 60,
                    "time": 145.36349100000035,
                    "velocity": 0.6850393700787402,
                    "duration": 0.1818179999999927
                },
                {
                    "name": "A3",
                    "midi": 57,
                    "time": 145.36349100000035,
                    "velocity": 0.6850393700787402,
                    "duration": 0.1818179999999927
                },
                {
                    "name": "C4",
                    "midi": 60,
                    "time": 145.63621800000035,
                    "velocity": 0.6850393700787402,
                    "duration": 0.1818179999999927
                },
                {
                    "name": "A3",
                    "midi": 57,
                    "time": 145.63621800000035,
                    "velocity": 0.6850393700787402,
                    "duration": 0.1818179999999927
                },
                {
                    "name": "C4",
                    "midi": 60,
                    "time": 145.90894500000036,
                    "velocity": 0.6850393700787402,
                    "duration": 0.1818179999999927
                },
                {
                    "name": "A3",
                    "midi": 57,
                    "time": 145.90894500000036,
                    "velocity": 0.6850393700787402,
                    "duration": 0.1818179999999927
                },
                {
                    "name": "D4",
                    "midi": 62,
                    "time": 146.31803550000035,
                    "velocity": 0.6850393700787402,
                    "duration": 0.13068168749998677
                },
                {
                    "name": "E4",
                    "midi": 64,
                    "time": 146.45439900000034,
                    "velocity": 0.6850393700787402,
                    "duration": 0.13068168749998677
                },
                {
                    "name": "F4",
                    "midi": 65,
                    "time": 146.59076250000032,
                    "velocity": 0.6850393700787402,
                    "duration": 0.13068168749998677
                },
                {
                    "name": "G3",
                    "midi": 55,
                    "time": 146.7271260000003,
                    "velocity": 0.6850393700787402,
                    "duration": 0.13068168749998677
                },
                {
                    "name": "E4",
                    "midi": 64,
                    "time": 146.8634895000003,
                    "velocity": 0.6850393700787402,
                    "duration": 0.13068168749998677
                },
                {
                    "name": "F3",
                    "midi": 53,
                    "time": 146.9998530000003,
                    "velocity": 0.6850393700787402,
                    "duration": 0.13068168749998677
                },
                {
                    "name": "D4",
                    "midi": 62,
                    "time": 147.13621650000027,
                    "velocity": 0.6850393700787402,
                    "duration": 0.13068168749998677
                },
                {
                    "name": "E3",
                    "midi": 52,
                    "time": 147.27258000000026,
                    "velocity": 0.6850393700787402,
                    "duration": 0.13068168749998677
                },
                {
                    "name": "G3",
                    "midi": 55,
                    "time": 147.40894350000025,
                    "velocity": 0.6850393700787402,
                    "duration": 0.13068168749998677
                },
                {
                    "name": "C4",
                    "midi": 60,
                    "time": 147.54530700000024,
                    "velocity": 0.6850393700787402,
                    "duration": 0.2670451875000026
                },
                {
                    "name": "G3",
                    "midi": 55,
                    "time": 148.49985150000023,
                    "velocity": 0.6850393700787402,
                    "duration": 0.13068168749998677
                },
                {
                    "name": "F3",
                    "midi": 53,
                    "time": 148.63621500000022,
                    "velocity": 0.6850393700787402,
                    "duration": 0.13068168749998677
                },
                {
                    "name": "E3",
                    "midi": 52,
                    "time": 148.7725785000002,
                    "velocity": 0.6850393700787402,
                    "duration": 0.13068168749998677
                },
                {
                    "name": "C4",
                    "midi": 60,
                    "time": 148.9089420000002,
                    "velocity": 0.6850393700787402,
                    "duration": 0.13068168749998677
                },
                {
                    "name": "E3",
                    "midi": 52,
                    "time": 149.04530550000018,
                    "velocity": 0.6850393700787402,
                    "duration": 0.13068168749998677
                },
                {
                    "name": "D4",
                    "midi": 62,
                    "time": 149.18166900000017,
                    "velocity": 0.6850393700787402,
                    "duration": 0.13068168749998677
                },
                {
                    "name": "D3",
                    "midi": 50,
                    "time": 149.31803250000016,
                    "velocity": 0.6850393700787402,
                    "duration": 0.13068168749998677
                },
                {
                    "name": "E4",
                    "midi": 64,
                    "time": 149.45439600000014,
                    "velocity": 0.6850393700787402,
                    "duration": 0.2670451875000026
                },
                {
                    "name": "C3",
                    "midi": 48,
                    "time": 149.72712300000015,
                    "velocity": 0.6850393700787402,
                    "duration": 0.2670451875000026
                },
                {
                    "name": "G3",
                    "midi": 55,
                    "time": 158.31802350000015,
                    "velocity": 0.6850393700787402,
                    "duration": 0.13068168749998677
                },
                {
                    "name": "A3",
                    "midi": 57,
                    "time": 158.45438700000014,
                    "velocity": 0.6850393700787402,
                    "duration": 0.13068168749998677
                },
                {
                    "name": "B3",
                    "midi": 59,
                    "time": 158.59075050000013,
                    "velocity": 0.6850393700787402,
                    "duration": 0.13068168749998677
                },
                {
                    "name": "C4",
                    "midi": 60,
                    "time": 158.7271140000001,
                    "velocity": 0.6850393700787402,
                    "duration": 0.13068168749998677
                },
                {
                    "name": "G3",
                    "midi": 55,
                    "time": 158.8634775000001,
                    "velocity": 0.6850393700787402,
                    "duration": 0.13068168749998677
                },
                {
                    "name": "C4",
                    "midi": 60,
                    "time": 158.9998410000001,
                    "velocity": 0.6850393700787402,
                    "duration": 0.13068168749998677
                },
                {
                    "name": "D4",
                    "midi": 62,
                    "time": 159.13620450000008,
                    "velocity": 0.6850393700787402,
                    "duration": 0.13068168749998677
                },
                {
                    "name": "A#3",
                    "midi": 58,
                    "time": 165.40892550000007,
                    "velocity": 0.6850393700787402,
                    "duration": 0.13068168749998677
                },
                {
                    "name": "A3",
                    "midi": 57,
                    "time": 165.54528900000005,
                    "velocity": 0.6850393700787402,
                    "duration": 0.13068168749998677
                },
                {
                    "name": "G3",
                    "midi": 55,
                    "time": 165.68165250000004,
                    "velocity": 0.6850393700787402,
                    "duration": 0.13068168749998677
                },
                {
                    "name": "F3",
                    "midi": 53,
                    "time": 165.81801600000003,
                    "velocity": 0.6850393700787402,
                    "duration": 0.13068168749998677
                },
                {
                    "name": "G3",
                    "midi": 55,
                    "time": 165.95437950000002,
                    "velocity": 0.6850393700787402,
                    "duration": 0.13068168749998677
                },
                {
                    "name": "F3",
                    "midi": 53,
                    "time": 166.090743,
                    "velocity": 0.6850393700787402,
                    "duration": 0.13068168749998677
                },
                {
                    "name": "D#3",
                    "midi": 51,
                    "time": 166.2271065,
                    "velocity": 0.6850393700787402,
                    "duration": 0.13068168749998677
                },
                {
                    "name": "D3",
                    "midi": 50,
                    "time": 166.36346999999998,
                    "velocity": 0.6850393700787402,
                    "duration": 0.13068168749998677
                },
                {
                    "name": "C3",
                    "midi": 48,
                    "time": 166.49983349999997,
                    "velocity": 0.6850393700787402,
                    "duration": 0.13068168749998677
                },
                {
                    "name": "A#2",
                    "midi": 46,
                    "time": 166.63619699999995,
                    "velocity": 0.6850393700787402,
                    "duration": 0.13068168749998677
                },
                {
                    "name": "A2",
                    "midi": 45,
                    "time": 166.77256049999994,
                    "velocity": 0.6850393700787402,
                    "duration": 0.13068168749998677
                },
                {
                    "name": "A#2",
                    "midi": 46,
                    "time": 166.90892399999993,
                    "velocity": 0.6850393700787402,
                    "duration": 0.09090900000001056
                },
                {
                    "name": "F3",
                    "midi": 53,
                    "time": 167.04528749999994,
                    "velocity": 0.6850393700787402,
                    "duration": 0.09090900000001056
                },
                {
                    "name": "A#3",
                    "midi": 58,
                    "time": 167.18165099999996,
                    "velocity": 0.6850393700787402,
                    "duration": 0.36363600000001384
                },
                {
                    "name": "G3",
                    "midi": 55,
                    "time": 167.59074149999998,
                    "velocity": 0.6850393700787402,
                    "duration": 0.09090900000001056
                },
                {
                    "name": "F3",
                    "midi": 53,
                    "time": 167.727105,
                    "velocity": 0.6850393700787402,
                    "duration": 0.09090900000001056
                },
                {
                    "name": "E3",
                    "midi": 52,
                    "time": 167.8634685,
                    "velocity": 0.6850393700787402,
                    "duration": 0.09090900000001056
                },
                {
                    "name": "F3",
                    "midi": 53,
                    "time": 167.99983200000003,
                    "velocity": 0.6850393700787402,
                    "duration": 0.13068168749998677
                },
                {
                    "name": "A3",
                    "midi": 57,
                    "time": 168.1361955,
                    "velocity": 0.6850393700787402,
                    "duration": 0.13068168749998677
                },
                {
                    "name": "C4",
                    "midi": 60,
                    "time": 168.272559,
                    "velocity": 0.6850393700787402,
                    "duration": 0.40340868749999004
                },
                {
                    "name": "B3",
                    "midi": 59,
                    "time": 168.6816495,
                    "velocity": 0.6850393700787402,
                    "duration": 0.13068168749998677
                },
                {
                    "name": "A3",
                    "midi": 57,
                    "time": 168.81801299999998,
                    "velocity": 0.6850393700787402,
                    "duration": 0.13068168749998677
                },
                {
                    "name": "B3",
                    "midi": 59,
                    "time": 168.95437649999997,
                    "velocity": 0.6850393700787402,
                    "duration": 0.13068168749998677
                },
                {
                    "name": "C4",
                    "midi": 60,
                    "time": 169.09073999999995,
                    "velocity": 0.6850393700787402,
                    "duration": 0.13068168749998677
                },
                {
                    "name": "G3",
                    "midi": 55,
                    "time": 169.22710349999994,
                    "velocity": 0.6850393700787402,
                    "duration": 0.13068168749998677
                },
                {
                    "name": "C4",
                    "midi": 60,
                    "time": 169.36346699999993,
                    "velocity": 0.6850393700787402,
                    "duration": 0.13068168749998677
                },
                {
                    "name": "D4",
                    "midi": 62,
                    "time": 169.49983049999992,
                    "velocity": 0.6850393700787402,
                    "duration": 0.13068168749998677
                },
                {
                    "name": "E4",
                    "midi": 64,
                    "time": 169.6361939999999,
                    "velocity": 0.6850393700787402,
                    "duration": 0.13068168749998677
                },
                {
                    "name": "C4",
                    "midi": 60,
                    "time": 169.7725574999999,
                    "velocity": 0.6850393700787402,
                    "duration": 0.13068168749998677
                },
                {
                    "name": "D4",
                    "midi": 62,
                    "time": 169.90892099999988,
                    "velocity": 0.6850393700787402,
                    "duration": 0.13068168749998677
                },
                {
                    "name": "E4",
                    "midi": 64,
                    "time": 170.04528449999987,
                    "velocity": 0.6850393700787402,
                    "duration": 0.13068168749998677
                },
                {
                    "name": "F4",
                    "midi": 65,
                    "time": 170.18164799999985,
                    "velocity": 0.6850393700787402,
                    "duration": 0.2670451875000026
                },
                {
                    "name": "A3",
                    "midi": 57,
                    "time": 170.45437499999986,
                    "velocity": 0.6850393700787402,
                    "duration": 0.2670451875000026
                },
                {
                    "name": "A#3",
                    "midi": 58,
                    "time": 170.72710199999986,
                    "velocity": 0.6850393700787402,
                    "duration": 0.2670451875000026
                },
                {
                    "name": "C4",
                    "midi": 60,
                    "time": 170.99982899999986,
                    "velocity": 0.6850393700787402,
                    "duration": 0.2670451875000026
                },
                {
                    "name": "D4",
                    "midi": 62,
                    "time": 171.27255599999987,
                    "velocity": 0.6850393700787402,
                    "duration": 0.2670451875000026
                },
                {
                    "name": "A#3",
                    "midi": 58,
                    "time": 171.54528299999987,
                    "velocity": 0.6850393700787402,
                    "duration": 0.2670451875000026
                },
                {
                    "name": "F3",
                    "midi": 53,
                    "time": 171.81800999999987,
                    "velocity": 0.6850393700787402,
                    "duration": 0.2670451875000026
                },
                {
                    "name": "D4",
                    "midi": 62,
                    "time": 172.09073699999988,
                    "velocity": 0.6850393700787402,
                    "duration": 0.2670451875000026
                },
                {
                    "name": "C4",
                    "midi": 60,
                    "time": 172.36346399999988,
                    "velocity": 0.6850393700787402,
                    "duration": 0.2670451875000026
                },
                {
                    "name": "A3",
                    "midi": 57,
                    "time": 172.63619099999988,
                    "velocity": 0.6850393700787402,
                    "duration": 0.2670451875000026
                },
                {
                    "name": "F3",
                    "midi": 53,
                    "time": 172.9089179999999,
                    "velocity": 0.6850393700787402,
                    "duration": 0.2670451875000026
                },
                {
                    "name": "C4",
                    "midi": 60,
                    "time": 173.1816449999999,
                    "velocity": 0.6850393700787402,
                    "duration": 0.2670451875000026
                },
                {
                    "name": "B3",
                    "midi": 59,
                    "time": 173.4543719999999,
                    "velocity": 0.6850393700787402,
                    "duration": 0.2670451875000026
                },
                {
                    "name": "D4",
                    "midi": 62,
                    "time": 173.7270989999999,
                    "velocity": 0.6850393700787402,
                    "duration": 0.2670451875000026
                },
                {
                    "name": "B3",
                    "midi": 59,
                    "time": 173.9998259999999,
                    "velocity": 0.6850393700787402,
                    "duration": 0.2670451875000026
                },
                {
                    "name": "G3",
                    "midi": 55,
                    "time": 174.2725529999999,
                    "velocity": 0.6850393700787402,
                    "duration": 0.2670451875000026
                },
                {
                    "name": "C4",
                    "midi": 60,
                    "time": 174.5452799999999,
                    "velocity": 0.6850393700787402,
                    "duration": 0.2670451875000026
                },
                {
                    "name": "C3",
                    "midi": 48,
                    "time": 174.8180069999999,
                    "velocity": 0.6850393700787402,
                    "duration": 0.2670451875000026
                },
                {
                    "name": "D3",
                    "midi": 50,
                    "time": 175.0907339999999,
                    "velocity": 0.6850393700787402,
                    "duration": 0.2670451875000026
                },
                {
                    "name": "E3",
                    "midi": 52,
                    "time": 175.36346099999992,
                    "velocity": 0.6850393700787402,
                    "duration": 0.2670451875000026
                },
                {
                    "name": "F3",
                    "midi": 53,
                    "time": 175.63618799999992,
                    "velocity": 0.6850393700787402,
                    "duration": 0.2670451875000026
                },
                {
                    "name": "A2",
                    "midi": 45,
                    "time": 175.90891499999992,
                    "velocity": 0.6850393700787402,
                    "duration": 0.2670451875000026
                },
                {
                    "name": "A#2",
                    "midi": 46,
                    "time": 176.18164199999993,
                    "velocity": 0.6850393700787402,
                    "duration": 0.2670451875000026
                },
                {
                    "name": "C3",
                    "midi": 48,
                    "time": 176.45436899999993,
                    "velocity": 0.6850393700787402,
                    "duration": 0.2670451875000026
                }
            ],
            "controlChanges": {
                "7": [
                    {
                        "number": 7,
                        "time": 0,
                        "value": 0.7874015748031497
                    }
                ]
            },
            "id": 6,
            "name": "Manual 2 LH",
            "instrumentNumber": 6,
            "instrument": "harpsichord",
            "instrumentFamily": "piano",
            "channelNumber": 1,
            "isPercussion": false
        },
        {
            "startTime": 0,
            "duration": 0,
            "length": 0,
            "notes": [],
            "controlChanges": {
                "7": [
                    {
                        "number": 7,
                        "time": 0,
                        "value": 0.7874015748031497
                    }
                ]
            },
            "id": 7,
            "name": "J.S. Bach: Italian Concerto, BWV 971",
            "instrumentNumber": 6,
            "instrument": "harpsichord",
            "instrumentFamily": "piano",
            "channelNumber": 1,
            "isPercussion": false
        },
        {
            "startTime": 0,
            "duration": 0,
            "length": 0,
            "notes": [],
            "controlChanges": {
                "7": [
                    {
                        "number": 7,
                        "time": 0,
                        "value": 0.7874015748031497
                    }
                ]
            },
            "id": 8,
            "name": "First Movement: Allegro",
            "instrumentNumber": 6,
            "instrument": "harpsichord",
            "instrumentFamily": "piano",
            "channelNumber": 1,
            "isPercussion": false
        },
        {
            "startTime": 0,
            "duration": 0,
            "length": 0,
            "notes": [],
            "controlChanges": {
                "7": [
                    {
                        "number": 7,
                        "time": 0,
                        "value": 0.7874015748031497
                    }
                ]
            },
            "id": 9,
            "name": "Sequenced & copyright by T.L. Hubeart Jr.",
            "instrumentNumber": 6,
            "instrument": "harpsichord",
            "instrumentFamily": "piano",
            "channelNumber": 1,
            "isPercussion": false
        }
    ]
}