{
    "header": {
        "PPQ": 480,
        "timeSignature": [
            3,
            4
        ],
        "bpm": 250,
        "name": "untitled"
    },
    "startTime": 0,
    "duration": 60.96000000000048,
    "tracks": [
        {
            "startTime": 0,
            "duration": 0,
            "length": 0,
            "notes": [],
            "controlChanges": {},
            "id": 0,
            "name": "untitled"
        },
        {
            "startTime": 0.6,
            "duration": 60.96000000000048,
            "length": 812,
            "notes": [
                {
                    "name": "G3",
                    "midi": 55,
                    "time": 0.6,
                    "velocity": 0.7874015748031497,
                    "duration": 0.12
                },
                {
                    "name": "G3",
                    "midi": 55,
                    "time": 0.72,
                    "velocity": 0.7874015748031497,
                    "duration": 0.12
                },
                {
                    "name": "D3",
                    "midi": 50,
                    "time": 0.84,
                    "velocity": 0.7874015748031497,
                    "duration": 0.12
                },
                {
                    "name": "G2",
                    "midi": 43,
                    "time": 0.96,
                    "velocity": 0.7874015748031497,
                    "duration": 0.1200000000000001
                },
                {
                    "name": "B3",
                    "midi": 59,
                    "time": 1.08,
                    "velocity": 0.7874015748031497,
                    "duration": 0.06000000000000005
                },
                {
                    "name": "C4",
                    "midi": 60,
                    "time": 1.1400000000000001,
                    "velocity": 0.7874015748031497,
                    "duration": 0.06000000000000005
                },
                {
                    "name": "D4",
                    "midi": 62,
                    "time": 1.2000000000000002,
                    "velocity": 0.7874015748031497,
                    "duration": 0.06000000000000005
                },
                {
                    "name": "C4",
                    "midi": 60,
                    "time": 1.2600000000000002,
                    "velocity": 0.7874015748031497,
                    "duration": 0.06000000000000005
                },
                {
                    "name": "B3",
                    "midi": 59,
                    "time": 1.3200000000000003,
                    "velocity": 0.7874015748031497,
                    "duration": 0.06000000000000005
                },
                {
                    "name": "A3",
                    "midi": 57,
                    "time": 1.3800000000000003,
                    "velocity": 0.7874015748031497,
                    "duration": 0.06000000000000005
                },
                {
                    "name": "B3",
                    "midi": 59,
                    "time": 1.4400000000000004,
                    "velocity": 0.7874015748031497,
                    "duration": 0.1200000000000001
                },
                {
                    "name": "D3",
                    "midi": 50,
                    "time": 1.5600000000000005,
                    "velocity": 0.7874015748031497,
                    "duration": 0.1200000000000001
                },
                {
                    "name": "G2",
                    "midi": 43,
                    "time": 1.6800000000000006,
                    "velocity": 0.7874015748031497,
                    "duration": 0.1200000000000001
                },
                {
                    "name": "G3",
                    "midi": 55,
                    "time": 1.8000000000000007,
                    "velocity": 0.7874015748031497,
                    "duration": 0.06000000000000005
                },
                {
                    "name": "A3",
                    "midi": 57,
                    "time": 1.8600000000000008,
                    "velocity": 0.7874015748031497,
                    "duration": 0.06000000000000005
                },
                {
                    "name": "B3",
                    "midi": 59,
                    "time": 1.9200000000000008,
                    "velocity": 0.7874015748031497,
                    "duration": 0.1200000000000001
                },
                {
                    "name": "G3",
                    "midi": 55,
                    "time": 2.040000000000001,
                    "velocity": 0.7874015748031497,
                    "duration": 0.1200000000000001
                },
                {
                    "name": "E3",
                    "midi": 52,
                    "time": 2.160000000000001,
                    "velocity": 0.7874015748031497,
                    "duration": 0.1200000000000001
                },
                {
                    "name": "C3",
                    "midi": 48,
                    "time": 2.280000000000001,
                    "velocity": 0.7874015748031497,
                    "duration": 0.1200000000000001
                },
                {
                    "name": "C2",
                    "midi": 36,
                    "time": 2.4000000000000012,
                    "velocity": 0.7874015748031497,
                    "duration": 0.1200000000000001
                },
                {
                    "name": "A3",
                    "midi": 57,
                    "time": 2.5200000000000014,
                    "velocity": 0.7874015748031497,
                    "duration": 0.06000000000000005
                },
                {
                    "name": "B3",
                    "midi": 59,
                    "time": 2.5800000000000014,
                    "velocity": 0.7874015748031497,
                    "duration": 0.06000000000000005
                },
                {
                    "name": "C4",
                    "midi": 60,
                    "time": 2.6400000000000015,
                    "velocity": 0.7874015748031497,
                    "duration": 0.06000000000000005
                },
                {
                    "name": "B3",
                    "midi": 59,
                    "time": 2.7000000000000015,
                    "velocity": 0.7874015748031497,
                    "duration": 0.06000000000000005
                },
                {
                    "name": "A3",
                    "midi": 57,
                    "time": 2.7600000000000016,
                    "velocity": 0.7874015748031497,
                    "duration": 0.06000000000000005
                },
                {
                    "name": "G3",
                    "midi": 55,
                    "time": 2.8200000000000016,
                    "velocity": 0.7874015748031497,
                    "duration": 0.06000000000000005
                },
                {
                    "name": "F#3",
                    "midi": 54,
                    "time": 2.8800000000000017,
                    "velocity": 0.7874015748031497,
                    "duration": 0.1200000000000001
                },
                {
                    "name": "D3",
                    "midi": 50,
                    "time": 3.0000000000000018,
                    "velocity": 0.7874015748031497,
                    "duration": 0.1200000000000001
                },
                {
                    "name": "D2",
                    "midi": 38,
                    "time": 3.120000000000002,
                    "velocity": 0.7874015748031497,
                    "duration": 0.1200000000000001
                },
                {
                    "name": "D3",
                    "midi": 50,
                    "time": 3.240000000000002,
                    "velocity": 0.7874015748031497,
                    "duration": 0.06000000000000005
                },
                {
                    "name": "E3",
                    "midi": 52,
                    "time": 3.300000000000002,
                    "velocity": 0.7874015748031497,
                    "duration": 0.06000000000000005
                },
                {
                    "name": "F#3",
                    "midi": 54,
                    "time": 3.360000000000002,
                    "velocity": 0.7874015748031497,
                    "duration": 0.06000000000000005
                },
                {
                    "name": "G3",
                    "midi": 55,
                    "time": 3.420000000000002,
                    "velocity": 0.7874015748031497,
                    "duration": 0.06000000000000005
                },
                {
                    "name": "A3",
                    "midi": 57,
                    "time": 3.480000000000002,
                    "velocity": 0.7874015748031497,
                    "duration": 0.06000000000000005
                },
                {
                    "name": "B3",
                    "midi": 59,
                    "time": 3.5400000000000023,
                    "velocity": 0.7874015748031497,
                    "duration": 0.06000000000000005
                },
                {
                    "name": "C4",
                    "midi": 60,
                    "time": 3.6000000000000023,
                    "velocity": 0.7874015748031497,
                    "duration": 0.06000000000000005
                },
                {
                    "name": "B3",
                    "midi": 59,
                    "time": 3.6600000000000024,
                    "velocity": 0.7874015748031497,
                    "duration": 0.06000000000000005
                },
                {
                    "name": "C4",
                    "midi": 60,
                    "time": 3.7200000000000024,
                    "velocity": 0.7874015748031497,
                    "duration": 0.06000000000000005
                },
                {
                    "name": "A3",
                    "midi": 57,
                    "time": 3.7800000000000025,
                    "velocity": 0.7874015748031497,
                    "duration": 0.06000000000000005
                },
                {
                    "name": "C4",
                    "midi": 60,
                    "time": 3.8400000000000025,
                    "velocity": 0.7874015748031497,
                    "duration": 0.06000000000000005
                },
                {
                    "name": "B3",
                    "midi": 59,
                    "time": 3.9000000000000026,
                    "velocity": 0.7874015748031497,
                    "duration": 0.06000000000000005
                },
                {
                    "name": "C4",
                    "midi": 60,
                    "time": 3.9600000000000026,
                    "velocity": 0.7874015748031497,
                    "duration": 0.05999999999999961
                },
                {
                    "name": "A3",
                    "midi": 57,
                    "time": 4.020000000000002,
                    "velocity": 0.7874015748031497,
                    "duration": 0.05999999999999961
                },
                {
                    "name": "D3",
                    "midi": 50,
                    "time": 4.080000000000002,
                    "velocity": 0.7874015748031497,
                    "duration": 0.05999999999999961
                },
                {
                    "name": "C4",
                    "midi": 60,
                    "time": 4.1400000000000015,
                    "velocity": 0.7874015748031497,
                    "duration": 0.05999999999999961
                },
                {
                    "name": "B3",
                    "midi": 59,
                    "time": 4.200000000000001,
                    "velocity": 0.7874015748031497,
                    "duration": 0.05999999999999961
                },
                {
                    "name": "A3",
                    "midi": 57,
                    "time": 4.260000000000001,
                    "velocity": 0.7874015748031497,
                    "duration": 0.05999999999999961
                },
                {
                    "name": "B3",
                    "midi": 59,
                    "time": 4.32,
                    "velocity": 0.7874015748031497,
                    "duration": 0.05999999999999961
                },
                {
                    "name": "A3",
                    "midi": 57,
                    "time": 4.38,
                    "velocity": 0.7874015748031497,
                    "duration": 0.05999999999999961
                },
                {
                    "name": "B3",
                    "midi": 59,
                    "time": 4.4399999999999995,
                    "velocity": 0.7874015748031497,
                    "duration": 0.05999999999999961
                },
                {
                    "name": "G3",
                    "midi": 55,
                    "time": 4.499999999999999,
                    "velocity": 0.7874015748031497,
                    "duration": 0.05999999999999961
                },
                {
                    "name": "B3",
                    "midi": 59,
                    "time": 4.559999999999999,
                    "velocity": 0.7874015748031497,
                    "duration": 0.05999999999999961
                },
                {
                    "name": "A3",
                    "midi": 57,
                    "time": 4.619999999999998,
                    "velocity": 0.7874015748031497,
                    "duration": 0.05999999999999961
                },
                {
                    "name": "B3",
                    "midi": 59,
                    "time": 4.679999999999998,
                    "velocity": 0.7874015748031497,
                    "duration": 0.05999999999999961
                },
                {
                    "name": "G3",
                    "midi": 55,
                    "time": 4.7399999999999975,
                    "velocity": 0.7874015748031497,
                    "duration": 0.05999999999999961
                },
                {
                    "name": "C3",
                    "midi": 48,
                    "time": 4.799999999999997,
                    "velocity": 0.7874015748031497,
                    "duration": 0.05999999999999961
                },
                {
                    "name": "B3",
                    "midi": 59,
                    "time": 4.859999999999997,
                    "velocity": 0.7874015748031497,
                    "duration": 0.05999999999999961
                },
                {
                    "name": "A3",
                    "midi": 57,
                    "time": 4.919999999999996,
                    "velocity": 0.7874015748031497,
                    "duration": 0.05999999999999961
                },
                {
                    "name": "G3",
                    "midi": 55,
                    "time": 4.979999999999996,
                    "velocity": 0.7874015748031497,
                    "duration": 0.05999999999999961
                },
                {
                    "name": "F#3",
                    "midi": 54,
                    "time": 5.039999999999996,
                    "velocity": 0.7874015748031497,
                    "duration": 0.05999999999999961
                },
                {
                    "name": "A3",
                    "midi": 57,
                    "time": 5.099999999999995,
                    "velocity": 0.7874015748031497,
                    "duration": 0.05999999999999961
                },
                {
                    "name": "D4",
                    "midi": 62,
                    "time": 5.159999999999995,
                    "velocity": 0.7874015748031497,
                    "duration": 0.05999999999999961
                },
                {
                    "name": "D3",
                    "midi": 50,
                    "time": 5.219999999999994,
                    "velocity": 0.7874015748031497,
                    "duration": 0.05999999999999961
                },
                {
                    "name": "G3",
                    "midi": 55,
                    "time": 5.279999999999994,
                    "velocity": 0.7874015748031497,
                    "duration": 0.1200000000000001
                },
                {
                    "name": "B2",
                    "midi": 47,
                    "time": 5.399999999999994,
                    "velocity": 0.7874015748031497,
                    "duration": 0.1200000000000001
                },
                {
                    "name": "D2",
                    "midi": 38,
                    "time": 5.519999999999994,
                    "velocity": 0.7874015748031497,
                    "duration": 0.1200000000000001
                },
                {
                    "name": "F#3",
                    "midi": 54,
                    "time": 5.639999999999994,
                    "velocity": 0.7874015748031497,
                    "duration": 0.1200000000000001
                },
                {
                    "name": "G3",
                    "midi": 55,
                    "time": 5.7599999999999945,
                    "velocity": 0.7874015748031497,
                    "duration": 0.3600000000000003
                },
                {
                    "name": "B3",
                    "midi": 59,
                    "time": 6.119999999999995,
                    "velocity": 0.7874015748031497,
                    "duration": 0.05999999999999961
                },
                {
                    "name": "A3",
                    "midi": 57,
                    "time": 6.179999999999994,
                    "velocity": 0.7874015748031497,
                    "duration": 0.05999999999999961
                },
                {
                    "name": "G3",
                    "midi": 55,
                    "time": 6.239999999999994,
                    "velocity": 0.7874015748031497,
                    "duration": 0.05999999999999961
                },
                {
                    "name": "F#3",
                    "midi": 54,
                    "time": 6.299999999999994,
                    "velocity": 0.7874015748031497,
                    "duration": 0.05999999999999961
                },
                {
                    "name": "E3",
                    "midi": 52,
                    "time": 6.359999999999993,
                    "velocity": 0.7874015748031497,
                    "duration": 0.05999999999999961
                },
                {
                    "name": "D3",
                    "midi": 50,
                    "time": 6.419999999999993,
                    "velocity": 0.7874015748031497,
                    "duration": 0.05999999999999961
                },
                {
                    "name": "E4",
                    "midi": 64,
                    "time": 6.479999999999992,
                    "velocity": 0.7874015748031497,
                    "duration": 0.1200000000000001
                },
                {
                    "name": "C#4",
                    "midi": 61,
                    "time": 6.5999999999999925,
                    "velocity": 0.7874015748031497,
                    "duration": 0.1200000000000001
                },
                {
                    "name": "A3",
                    "midi": 57,
                    "time": 6.719999999999993,
                    "velocity": 0.7874015748031497,
                    "duration": 0.1200000000000001
                },
                {
                    "name": "B3",
                    "midi": 59,
                    "time": 6.839999999999993,
                    "velocity": 0.7874015748031497,
                    "duration": 0.05999999999999961
                },
                {
                    "name": "C#4",
                    "midi": 61,
                    "time": 6.899999999999992,
                    "velocity": 0.7874015748031497,
                    "duration": 0.05999999999999961
                },
                {
                    "name": "D4",
                    "midi": 62,
                    "time": 6.959999999999992,
                    "velocity": 0.7874015748031497,
                    "duration": 0.05999999999999961
                },
                {
                    "name": "F#3",
                    "midi": 54,
                    "time": 7.019999999999992,
                    "velocity": 0.7874015748031497,
                    "duration": 0.05999999999999961
                },
                {
                    "name": "E3",
                    "midi": 52,
                    "time": 7.079999999999991,
                    "velocity": 0.7874015748031497,
                    "duration": 0.05999999999999961
                },
                {
                    "name": "D3",
                    "midi": 50,
                    "time": 7.139999999999991,
                    "velocity": 0.7874015748031497,
                    "duration": 0.05999999999999961
                },
                {
                    "name": "A2",
                    "midi": 45,
                    "time": 7.19999999999999,
                    "velocity": 0.7874015748031497,
                    "duration": 0.1200000000000001
                },
                {
                    "name": "D4",
                    "midi": 62,
                    "time": 7.3199999999999905,
                    "velocity": 0.7874015748031497,
                    "duration": 0.1200000000000001
                },
                {
                    "name": "C#4",
                    "midi": 61,
                    "time": 7.439999999999991,
                    "velocity": 0.7874015748031497,
                    "duration": 0.120000000000001
                },
                {
                    "name": "B3",
                    "midi": 59,
                    "time": 7.559999999999992,
                    "velocity": 0.7874015748031497,
                    "duration": 0.05999999999999961
                },
                {
                    "name": "A3",
                    "midi": 57,
                    "time": 7.619999999999991,
                    "velocity": 0.7874015748031497,
                    "duration": 0.05999999999999961
                },
                {
                    "name": "D4",
                    "midi": 62,
                    "time": 7.679999999999991,
                    "velocity": 0.7874015748031497,
                    "duration": 0.05999999999999961
                },
                {
                    "name": "A3",
                    "midi": 57,
                    "time": 7.73999999999999,
                    "velocity": 0.7874015748031497,
                    "duration": 0.05999999999999961
                },
                {
                    "name": "B3",
                    "midi": 59,
                    "time": 7.79999999999999,
                    "velocity": 0.7874015748031497,
                    "duration": 0.05999999999999961
                },
                {
                    "name": "F#3",
                    "midi": 54,
                    "time": 7.85999999999999,
                    "velocity": 0.7874015748031497,
                    "duration": 0.05999999999999961
                },
                {
                    "name": "G3",
                    "midi": 55,
                    "time": 7.919999999999989,
                    "velocity": 0.7874015748031497,
                    "duration": 0.05999999999999961
                },
                {
                    "name": "F#3",
                    "midi": 54,
                    "time": 7.979999999999989,
                    "velocity": 0.7874015748031497,
                    "duration": 0.05999999999999961
                },
                {
                    "name": "G3",
                    "midi": 55,
                    "time": 8.039999999999988,
                    "velocity": 0.7874015748031497,
                    "duration": 0.0600000000000005
                },
                {
                    "name": "E3",
                    "midi": 52,
                    "time": 8.099999999999989,
                    "velocity": 0.7874015748031497,
                    "duration": 0.0600000000000005
                },
                {
                    "name": "G3",
                    "midi": 55,
                    "time": 8.15999999999999,
                    "velocity": 0.7874015748031497,
                    "duration": 0.0600000000000005
                },
                {
                    "name": "F#3",
                    "midi": 54,
                    "time": 8.21999999999999,
                    "velocity": 0.7874015748031497,
                    "duration": 0.0600000000000005
                },
                {
                    "name": "G3",
                    "midi": 55,
                    "time": 8.27999999999999,
                    "velocity": 0.7874015748031497,
                    "duration": 0.0600000000000005
                },
                {
                    "name": "E3",
                    "midi": 52,
                    "time": 8.339999999999991,
                    "velocity": 0.7874015748031497,
                    "duration": 0.0600000000000005
                },
                {
                    "name": "A2",
                    "midi": 45,
                    "time": 8.399999999999991,
                    "velocity": 0.7874015748031497,
                    "duration": 0.0600000000000005
                },
                {
                    "name": "G3",
                    "midi": 55,
                    "time": 8.459999999999992,
                    "velocity": 0.7874015748031497,
                    "duration": 0.0600000000000005
                },
                {
                    "name": "F#3",
                    "midi": 54,
                    "time": 8.519999999999992,
                    "velocity": 0.7874015748031497,
                    "duration": 0.0600000000000005
                },
                {
                    "name": "E3",
                    "midi": 52,
                    "time": 8.579999999999993,
                    "velocity": 0.7874015748031497,
                    "duration": 0.0600000000000005
                },
                {
                    "name": "F#3",
                    "midi": 54,
                    "time": 8.639999999999993,
                    "velocity": 0.7874015748031497,
                    "duration": 0.0600000000000005
                },
                {
                    "name": "E3",
                    "midi": 52,
                    "time": 8.699999999999994,
                    "velocity": 0.7874015748031497,
                    "duration": 0.0600000000000005
                },
                {
                    "name": "F#3",
                    "midi": 54,
                    "time": 8.759999999999994,
                    "velocity": 0.7874015748031497,
                    "duration": 0.0600000000000005
                },
                {
                    "name": "D3",
                    "midi": 50,
                    "time": 8.819999999999995,
                    "velocity": 0.7874015748031497,
                    "duration": 0.0600000000000005
                },
                {
                    "name": "F#3",
                    "midi": 54,
                    "time": 8.879999999999995,
                    "velocity": 0.7874015748031497,
                    "duration": 0.0600000000000005
                },
                {
                    "name": "E3",
                    "midi": 52,
                    "time": 8.939999999999996,
                    "velocity": 0.7874015748031497,
                    "duration": 0.0600000000000005
                },
                {
                    "name": "F#3",
                    "midi": 54,
                    "time": 8.999999999999996,
                    "velocity": 0.7874015748031497,
                    "duration": 0.0600000000000005
                },
                {
                    "name": "D3",
                    "midi": 50,
                    "time": 9.059999999999997,
                    "velocity": 0.7874015748031497,
                    "duration": 0.0600000000000005
                },
                {
                    "name": "G2",
                    "midi": 43,
                    "time": 9.119999999999997,
                    "velocity": 0.7874015748031497,
                    "duration": 0.0600000000000005
                },
                {
                    "name": "F#3",
                    "midi": 54,
                    "time": 9.179999999999998,
                    "velocity": 0.7874015748031497,
                    "duration": 0.0600000000000005
                },
                {
                    "name": "E3",
                    "midi": 52,
                    "time": 9.239999999999998,
                    "velocity": 0.7874015748031497,
                    "duration": 0.0600000000000005
                },
                {
                    "name": "D3",
                    "midi": 50,
                    "time": 9.299999999999999,
                    "velocity": 0.7874015748031497,
                    "duration": 0.0600000000000005
                },
                {
                    "name": "D4",
                    "midi": 62,
                    "time": 9.36,
                    "velocity": 0.7874015748031497,
                    "duration": 0.0600000000000005
                },
                {
                    "name": "C#4",
                    "midi": 61,
                    "time": 9.42,
                    "velocity": 0.7874015748031497,
                    "duration": 0.0600000000000005
                },
                {
                    "name": "B3",
                    "midi": 59,
                    "time": 9.48,
                    "velocity": 0.7874015748031497,
                    "duration": 0.0600000000000005
                },
                {
                    "name": "A3",
                    "midi": 57,
                    "time": 9.540000000000001,
                    "velocity": 0.7874015748031497,
                    "duration": 0.0600000000000005
                },
                {
                    "name": "D4",
                    "midi": 62,
                    "time": 9.600000000000001,
                    "velocity": 0.7874015748031497,
                    "duration": 0.11999999999999922
                },
                {
                    "name": "C#4",
                    "midi": 61,
                    "time": 9.72,
                    "velocity": 0.7874015748031497,
                    "duration": 0.0600000000000005
                },
                {
                    "name": "B3",
                    "midi": 59,
                    "time": 9.780000000000001,
                    "velocity": 0.7874015748031497,
                    "duration": 0.0600000000000005
                },
                {
                    "name": "A3",
                    "midi": 57,
                    "time": 9.840000000000002,
                    "velocity": 0.7874015748031497,
                    "duration": 0.0600000000000005
                },
                {
                    "name": "G3",
                    "midi": 55,
                    "time": 9.900000000000002,
                    "velocity": 0.7874015748031497,
                    "duration": 0.0600000000000005
                },
                {
                    "name": "F#3",
                    "midi": 54,
                    "time": 9.960000000000003,
                    "velocity": 0.7874015748031497,
                    "duration": 0.0600000000000005
                },
                {
                    "name": "E3",
                    "midi": 52,
                    "time": 10.020000000000003,
                    "velocity": 0.7874015748031497,
                    "duration": 0.0600000000000005
                },
                {
                    "name": "D3",
                    "midi": 50,
                    "time": 10.080000000000004,
                    "velocity": 0.7874015748031497,
                    "duration": 0.0600000000000005
                },
                {
                    "name": "E3",
                    "midi": 52,
                    "time": 10.140000000000004,
                    "velocity": 0.7874015748031497,
                    "duration": 0.0600000000000005
                },
                {
                    "name": "D3",
                    "midi": 50,
                    "time": 10.200000000000005,
                    "velocity": 0.7874015748031497,
                    "duration": 0.0600000000000005
                },
                {
                    "name": "F#3",
                    "midi": 54,
                    "time": 10.260000000000005,
                    "velocity": 0.7874015748031497,
                    "duration": 0.0600000000000005
                },
                {
                    "name": "D3",
                    "midi": 50,
                    "time": 10.320000000000006,
                    "velocity": 0.7874015748031497,
                    "duration": 0.0600000000000005
                },
                {
                    "name": "E3",
                    "midi": 52,
                    "time": 10.380000000000006,
                    "velocity": 0.7874015748031497,
                    "duration": 0.0600000000000005
                },
                {
                    "name": "D3",
                    "midi": 50,
                    "time": 10.440000000000007,
                    "velocity": 0.7874015748031497,
                    "duration": 0.0600000000000005
                },
                {
                    "name": "G3",
                    "midi": 55,
                    "time": 10.500000000000007,
                    "velocity": 0.7874015748031497,
                    "duration": 0.0600000000000005
                },
                {
                    "name": "D3",
                    "midi": 50,
                    "time": 10.560000000000008,
                    "velocity": 0.7874015748031497,
                    "duration": 0.0600000000000005
                },
                {
                    "name": "E3",
                    "midi": 52,
                    "time": 10.620000000000008,
                    "velocity": 0.7874015748031497,
                    "duration": 0.0600000000000005
                },
                {
                    "name": "D3",
                    "midi": 50,
                    "time": 10.680000000000009,
                    "velocity": 0.7874015748031497,
                    "duration": 0.0600000000000005
                },
                {
                    "name": "A3",
                    "midi": 57,
                    "time": 10.740000000000009,
                    "velocity": 0.7874015748031497,
                    "duration": 0.0600000000000005
                },
                {
                    "name": "D3",
                    "midi": 50,
                    "time": 10.80000000000001,
                    "velocity": 0.7874015748031497,
                    "duration": 0.0600000000000005
                },
                {
                    "name": "E3",
                    "midi": 52,
                    "time": 10.86000000000001,
                    "velocity": 0.7874015748031497,
                    "duration": 0.0600000000000005
                },
                {
                    "name": "D3",
                    "midi": 50,
                    "time": 10.92000000000001,
                    "velocity": 0.7874015748031497,
                    "duration": 0.0600000000000005
                },
                {
                    "name": "B3",
                    "midi": 59,
                    "time": 10.980000000000011,
                    "velocity": 0.7874015748031497,
                    "duration": 0.0600000000000005
                },
                {
                    "name": "D3",
                    "midi": 50,
                    "time": 11.040000000000012,
                    "velocity": 0.7874015748031497,
                    "duration": 0.0600000000000005
                },
                {
                    "name": "E3",
                    "midi": 52,
                    "time": 11.100000000000012,
                    "velocity": 0.7874015748031497,
                    "duration": 0.0600000000000005
                },
                {
                    "name": "D3",
                    "midi": 50,
                    "time": 11.160000000000013,
                    "velocity": 0.7874015748031497,
                    "duration": 0.0600000000000005
                },
                {
                    "name": "C#4",
                    "midi": 61,
                    "time": 11.220000000000013,
                    "velocity": 0.7874015748031497,
                    "duration": 0.0600000000000005
                },
                {
                    "name": "D3",
                    "midi": 50,
                    "time": 11.280000000000014,
                    "velocity": 0.7874015748031497,
                    "duration": 0.0600000000000005
                },
                {
                    "name": "E3",
                    "midi": 52,
                    "time": 11.340000000000014,
                    "velocity": 0.7874015748031497,
                    "duration": 0.0600000000000005
                },
                {
                    "name": "D3",
                    "midi": 50,
                    "time": 11.400000000000015,
                    "velocity": 0.7874015748031497,
                    "duration": 0.0600000000000005
                },
                {
                    "name": "D4",
                    "midi": 62,
                    "time": 11.460000000000015,
                    "velocity": 0.7874015748031497,
                    "duration": 0.0600000000000005
                },
                {
                    "name": "G3",
                    "midi": 55,
                    "time": 11.520000000000016,
                    "velocity": 0.7874015748031497,
                    "duration": 0.0600000000000005
                },
                {
                    "name": "F#3",
                    "midi": 54,
                    "time": 11.580000000000016,
                    "velocity": 0.7874015748031497,
                    "duration": 0.0600000000000005
                },
                {
                    "name": "E3",
                    "midi": 52,
                    "time": 11.640000000000017,
                    "velocity": 0.7874015748031497,
                    "duration": 0.0600000000000005
                },
                {
                    "name": "D3",
                    "midi": 50,
                    "time": 11.700000000000017,
                    "velocity": 0.7874015748031497,
                    "duration": 0.0600000000000005
                },
                {
                    "name": "C#3",
                    "midi": 49,
                    "time": 11.760000000000018,
                    "velocity": 0.7874015748031497,
                    "duration": 0.0600000000000005
                },
                {
                    "name": "B2",
                    "midi": 47,
                    "time": 11.820000000000018,
                    "velocity": 0.7874015748031497,
                    "duration": 0.0600000000000005
                },
                {
                    "name": "A2",
                    "midi": 45,
                    "time": 11.880000000000019,
                    "velocity": 0.7874015748031497,
                    "duration": 0.0600000000000005
                },
                {
                    "name": "G3",
                    "midi": 55,
                    "time": 11.940000000000019,
                    "velocity": 0.7874015748031497,
                    "duration": 0.0600000000000005
                },
                {
                    "name": "F#3",
                    "midi": 54,
                    "time": 12.00000000000002,
                    "velocity": 0.7874015748031497,
                    "duration": 0.17999999999999794
                },
                {
                    "name": "E3",
                    "midi": 52,
                    "time": 12.180000000000017,
                    "velocity": 0.7874015748031497,
                    "duration": 0.0600000000000005
                },
                {
                    "name": "A3",
                    "midi": 57,
                    "time": 12.240000000000018,
                    "velocity": 0.7874015748031497,
                    "duration": 0.0600000000000005
                },
                {
                    "name": "G3",
                    "midi": 55,
                    "time": 12.300000000000018,
                    "velocity": 0.7874015748031497,
                    "duration": 0.0600000000000005
                },
                {
                    "name": "B3",
                    "midi": 59,
                    "time": 12.360000000000019,
                    "velocity": 0.7874015748031497,
                    "duration": 0.0600000000000005
                },
                {
                    "name": "A3",
                    "midi": 57,
                    "time": 12.42000000000002,
                    "velocity": 0.7874015748031497,
                    "duration": 0.0600000000000005
                },
                {
                    "name": "G3",
                    "midi": 55,
                    "time": 12.48000000000002,
                    "velocity": 0.7874015748031497,
                    "duration": 0.0600000000000005
                },
                {
                    "name": "F#3",
                    "midi": 54,
                    "time": 12.54000000000002,
                    "velocity": 0.7874015748031497,
                    "duration": 0.0600000000000005
                },
                {
                    "name": "E3",
                    "midi": 52,
                    "time": 12.600000000000021,
                    "velocity": 0.7874015748031497,
                    "duration": 0.0600000000000005
                },
                {
                    "name": "D3",
                    "midi": 50,
                    "time": 12.660000000000021,
                    "velocity": 0.7874015748031497,
                    "duration": 0.0600000000000005
                },
                {
                    "name": "A2",
                    "midi": 45,
                    "time": 12.720000000000022,
                    "velocity": 0.7874015748031497,
                    "duration": 0.11999999999999922
                },
                {
                    "name": "C#3",
                    "midi": 49,
                    "time": 12.840000000000021,
                    "velocity": 0.7874015748031497,
                    "duration": 0.11999999999999922
                },
                {
                    "name": "D2",
                    "midi": 38,
                    "time": 12.96000000000002,
                    "velocity": 0.7874015748031497,
                    "duration": 0.4800000000000004
                },
                {
                    "name": "G3",
                    "midi": 55,
                    "time": 13.56000000000002,
                    "velocity": 0.7874015748031497,
                    "duration": 0.11999999999999922
                },
                {
                    "name": "G3",
                    "midi": 55,
                    "time": 13.68000000000002,
                    "velocity": 0.7874015748031497,
                    "duration": 0.11999999999999922
                },
                {
                    "name": "D3",
                    "midi": 50,
                    "time": 13.800000000000018,
                    "velocity": 0.7874015748031497,
                    "duration": 0.11999999999999922
                },
                {
                    "name": "G2",
                    "midi": 43,
                    "time": 13.920000000000018,
                    "velocity": 0.7874015748031497,
                    "duration": 0.11999999999999922
                },
                {
                    "name": "B3",
                    "midi": 59,
                    "time": 14.040000000000017,
                    "velocity": 0.7874015748031497,
                    "duration": 0.0600000000000005
                },
                {
                    "name": "C4",
                    "midi": 60,
                    "time": 14.100000000000017,
                    "velocity": 0.7874015748031497,
                    "duration": 0.0600000000000005
                },
                {
                    "name": "D4",
                    "midi": 62,
                    "time": 14.160000000000018,
                    "velocity": 0.7874015748031497,
                    "duration": 0.0600000000000005
                },
                {
                    "name": "C4",
                    "midi": 60,
                    "time": 14.220000000000018,
                    "velocity": 0.7874015748031497,
                    "duration": 0.0600000000000005
                },
                {
                    "name": "B3",
                    "midi": 59,
                    "time": 14.280000000000019,
                    "velocity": 0.7874015748031497,
                    "duration": 0.0600000000000005
                },
                {
                    "name": "A3",
                    "midi": 57,
                    "time": 14.34000000000002,
                    "velocity": 0.7874015748031497,
                    "duration": 0.0600000000000005
                },
                {
                    "name": "B3",
                    "midi": 59,
                    "time": 14.40000000000002,
                    "velocity": 0.7874015748031497,
                    "duration": 0.11999999999999922
                },
                {
                    "name": "D3",
                    "midi": 50,
                    "time": 14.52000000000002,
                    "velocity": 0.7874015748031497,
                    "duration": 0.11999999999999922
                },
                {
                    "name": "G2",
                    "midi": 43,
                    "time": 14.640000000000018,
                    "velocity": 0.7874015748031497,
                    "duration": 0.11999999999999922
                },
                {
                    "name": "G3",
                    "midi": 55,
                    "time": 14.760000000000018,
                    "velocity": 0.7874015748031497,
                    "duration": 0.0600000000000005
                },
                {
                    "name": "A3",
                    "midi": 57,
                    "time": 14.820000000000018,
                    "velocity": 0.7874015748031497,
                    "duration": 0.0600000000000005
                },
                {
                    "name": "B3",
                    "midi": 59,
                    "time": 14.880000000000019,
                    "velocity": 0.7874015748031497,
                    "duration": 0.11999999999999922
                },
                {
                    "name": "G3",
                    "midi": 55,
                    "time": 15.000000000000018,
                    "velocity": 0.7874015748031497,
                    "duration": 0.11999999999999922
                },
                {
                    "name": "E3",
                    "midi": 52,
                    "time": 15.120000000000017,
                    "velocity": 0.7874015748031497,
                    "duration": 0.11999999999999922
                },
                {
                    "name": "C3",
                    "midi": 48,
                    "time": 15.240000000000016,
                    "velocity": 0.7874015748031497,
                    "duration": 0.11999999999999922
                },
                {
                    "name": "C2",
                    "midi": 36,
                    "time": 15.360000000000015,
                    "velocity": 0.7874015748031497,
                    "duration": 0.11999999999999922
                },
                {
                    "name": "A3",
                    "midi": 57,
                    "time": 15.480000000000015,
                    "velocity": 0.7874015748031497,
                    "duration": 0.0600000000000005
                },
                {
                    "name": "B3",
                    "midi": 59,
                    "time": 15.540000000000015,
                    "velocity": 0.7874015748031497,
                    "duration": 0.0600000000000005
                },
                {
                    "name": "C4",
                    "midi": 60,
                    "time": 15.600000000000016,
                    "velocity": 0.7874015748031497,
                    "duration": 0.0600000000000005
                },
                {
                    "name": "B3",
                    "midi": 59,
                    "time": 15.660000000000016,
                    "velocity": 0.7874015748031497,
                    "duration": 0.0600000000000005
                },
                {
                    "name": "A3",
                    "midi": 57,
                    "time": 15.720000000000017,
                    "velocity": 0.7874015748031497,
                    "duration": 0.0600000000000005
                },
                {
                    "name": "G3",
                    "midi": 55,
                    "time": 15.780000000000017,
                    "velocity": 0.7874015748031497,
                    "duration": 0.0600000000000005
                },
                {
                    "name": "F#3",
                    "midi": 54,
                    "time": 15.840000000000018,
                    "velocity": 0.7874015748031497,
                    "duration": 0.11999999999999922
                },
                {
                    "name": "D3",
                    "midi": 50,
                    "time": 15.960000000000017,
                    "velocity": 0.7874015748031497,
                    "duration": 0.11999999999999922
                },
                {
                    "name": "D2",
                    "midi": 38,
                    "time": 16.080000000000016,
                    "velocity": 0.7874015748031497,
                    "duration": 0.120000000000001
                },
                {
                    "name": "D3",
                    "midi": 50,
                    "time": 16.200000000000017,
                    "velocity": 0.7874015748031497,
                    "duration": 0.05999999999999872
                },
                {
                    "name": "E3",
                    "midi": 52,
                    "time": 16.260000000000016,
                    "velocity": 0.7874015748031497,
                    "duration": 0.05999999999999872
                },
                {
                    "name": "F#3",
                    "midi": 54,
                    "time": 16.320000000000014,
                    "velocity": 0.7874015748031497,
                    "duration": 0.05999999999999872
                },
                {
                    "name": "G3",
                    "midi": 55,
                    "time": 16.380000000000013,
                    "velocity": 0.7874015748031497,
                    "duration": 0.05999999999999872
                },
                {
                    "name": "A3",
                    "midi": 57,
                    "time": 16.440000000000012,
                    "velocity": 0.7874015748031497,
                    "duration": 0.05999999999999872
                },
                {
                    "name": "B3",
                    "midi": 59,
                    "time": 16.50000000000001,
                    "velocity": 0.7874015748031497,
                    "duration": 0.05999999999999872
                },
                {
                    "name": "C4",
                    "midi": 60,
                    "time": 16.56000000000001,
                    "velocity": 0.7874015748031497,
                    "duration": 0.05999999999999872
                },
                {
                    "name": "B3",
                    "midi": 59,
                    "time": 16.620000000000008,
                    "velocity": 0.7874015748031497,
                    "duration": 0.05999999999999872
                },
                {
                    "name": "C4",
                    "midi": 60,
                    "time": 16.680000000000007,
                    "velocity": 0.7874015748031497,
                    "duration": 0.05999999999999872
                },
                {
                    "name": "A3",
                    "midi": 57,
                    "time": 16.740000000000006,
                    "velocity": 0.7874015748031497,
                    "duration": 0.05999999999999872
                },
                {
                    "name": "C4",
                    "midi": 60,
                    "time": 16.800000000000004,
                    "velocity": 0.7874015748031497,
                    "duration": 0.05999999999999872
                },
                {
                    "name": "B3",
                    "midi": 59,
                    "time": 16.860000000000003,
                    "velocity": 0.7874015748031497,
                    "duration": 0.05999999999999872
                },
                {
                    "name": "C4",
                    "midi": 60,
                    "time": 16.92,
                    "velocity": 0.7874015748031497,
                    "duration": 0.05999999999999872
                },
                {
                    "name": "A3",
                    "midi": 57,
                    "time": 16.98,
                    "velocity": 0.7874015748031497,
                    "duration": 0.05999999999999872
                },
                {
                    "name": "D3",
                    "midi": 50,
                    "time": 17.04,
                    "velocity": 0.7874015748031497,
                    "duration": 0.05999999999999872
                },
                {
                    "name": "C4",
                    "midi": 60,
                    "time": 17.099999999999998,
                    "velocity": 0.7874015748031497,
                    "duration": 0.05999999999999872
                },
                {
                    "name": "B3",
                    "midi": 59,
                    "time": 17.159999999999997,
                    "velocity": 0.7874015748031497,
                    "duration": 0.05999999999999872
                },
                {
                    "name": "A3",
                    "midi": 57,
                    "time": 17.219999999999995,
                    "velocity": 0.7874015748031497,
                    "duration": 0.05999999999999872
                },
                {
                    "name": "B3",
                    "midi": 59,
                    "time": 17.279999999999994,
                    "velocity": 0.7874015748031497,
                    "duration": 0.05999999999999872
                },
                {
                    "name": "A3",
                    "midi": 57,
                    "time": 17.339999999999993,
                    "velocity": 0.7874015748031497,
                    "duration": 0.05999999999999872
                },
                {
                    "name": "B3",
                    "midi": 59,
                    "time": 17.39999999999999,
                    "velocity": 0.7874015748031497,
                    "duration": 0.05999999999999872
                },
                {
                    "name": "G3",
                    "midi": 55,
                    "time": 17.45999999999999,
                    "velocity": 0.7874015748031497,
                    "duration": 0.05999999999999872
                },
                {
                    "name": "B3",
                    "midi": 59,
                    "time": 17.51999999999999,
                    "velocity": 0.7874015748031497,
                    "duration": 0.05999999999999872
                },
                {
                    "name": "A3",
                    "midi": 57,
                    "time": 17.579999999999988,
                    "velocity": 0.7874015748031497,
                    "duration": 0.05999999999999872
                },
                {
                    "name": "B3",
                    "midi": 59,
                    "time": 17.639999999999986,
                    "velocity": 0.7874015748031497,
                    "duration": 0.05999999999999872
                },
                {
                    "name": "G3",
                    "midi": 55,
                    "time": 17.699999999999985,
                    "velocity": 0.7874015748031497,
                    "duration": 0.05999999999999872
                },
                {
                    "name": "C3",
                    "midi": 48,
                    "time": 17.759999999999984,
                    "velocity": 0.7874015748031497,
                    "duration": 0.05999999999999872
                },
                {
                    "name": "B3",
                    "midi": 59,
                    "time": 17.819999999999983,
                    "velocity": 0.7874015748031497,
                    "duration": 0.05999999999999872
                },
                {
                    "name": "A3",
                    "midi": 57,
                    "time": 17.87999999999998,
                    "velocity": 0.7874015748031497,
                    "duration": 0.05999999999999872
                },
                {
                    "name": "G3",
                    "midi": 55,
                    "time": 17.93999999999998,
                    "velocity": 0.7874015748031497,
                    "duration": 0.05999999999999872
                },
                {
                    "name": "F#3",
                    "midi": 54,
                    "time": 17.99999999999998,
                    "velocity": 0.7874015748031497,
                    "duration": 0.05999999999999872
                },
                {
                    "name": "A3",
                    "midi": 57,
                    "time": 18.059999999999977,
                    "velocity": 0.7874015748031497,
                    "duration": 0.05999999999999872
                },
                {
                    "name": "D4",
                    "midi": 62,
                    "time": 18.119999999999976,
                    "velocity": 0.7874015748031497,
                    "duration": 0.05999999999999872
                },
                {
                    "name": "D3",
                    "midi": 50,
                    "time": 18.179999999999975,
                    "velocity": 0.7874015748031497,
                    "duration": 0.05999999999999872
                },
                {
                    "name": "G3",
                    "midi": 55,
                    "time": 18.239999999999974,
                    "velocity": 0.7874015748031497,
                    "duration": 0.120000000000001
                },
                {
                    "name": "B2",
                    "midi": 47,
                    "time": 18.359999999999975,
                    "velocity": 0.7874015748031497,
                    "duration": 0.120000000000001
                },
                {
                    "name": "D2",
                    "midi": 38,
                    "time": 18.479999999999976,
                    "velocity": 0.7874015748031497,
                    "duration": 0.120000000000001
                },
                {
                    "name": "F#3",
                    "midi": 54,
                    "time": 18.599999999999977,
                    "velocity": 0.7874015748031497,
                    "duration": 0.120000000000001
                },
                {
                    "name": "G3",
                    "midi": 55,
                    "time": 18.719999999999978,
                    "velocity": 0.7874015748031497,
                    "duration": 0.35999999999999943
                },
                {
                    "name": "B3",
                    "midi": 59,
                    "time": 19.079999999999977,
                    "velocity": 0.7874015748031497,
                    "duration": 0.05999999999999872
                },
                {
                    "name": "A3",
                    "midi": 57,
                    "time": 19.139999999999976,
                    "velocity": 0.7874015748031497,
                    "duration": 0.05999999999999872
                },
                {
                    "name": "G3",
                    "midi": 55,
                    "time": 19.199999999999974,
                    "velocity": 0.7874015748031497,
                    "duration": 0.05999999999999872
                },
                {
                    "name": "F#3",
                    "midi": 54,
                    "time": 19.259999999999973,
                    "velocity": 0.7874015748031497,
                    "duration": 0.05999999999999872
                },
                {
                    "name": "E3",
                    "midi": 52,
                    "time": 19.319999999999972,
                    "velocity": 0.7874015748031497,
                    "duration": 0.05999999999999872
                },
                {
                    "name": "D3",
                    "midi": 50,
                    "time": 19.37999999999997,
                    "velocity": 0.7874015748031497,
                    "duration": 0.05999999999999872
                },
                {
                    "name": "E4",
                    "midi": 64,
                    "time": 19.43999999999997,
                    "velocity": 0.7874015748031497,
                    "duration": 0.120000000000001
                },
                {
                    "name": "C#4",
                    "midi": 61,
                    "time": 19.55999999999997,
                    "velocity": 0.7874015748031497,
                    "duration": 0.120000000000001
                },
                {
                    "name": "A3",
                    "midi": 57,
                    "time": 19.67999999999997,
                    "velocity": 0.7874015748031497,
                    "duration": 0.120000000000001
                },
                {
                    "name": "B3",
                    "midi": 59,
                    "time": 19.799999999999972,
                    "velocity": 0.7874015748031497,
                    "duration": 0.05999999999999872
                },
                {
                    "name": "C#4",
                    "midi": 61,
                    "time": 19.85999999999997,
                    "velocity": 0.7874015748031497,
                    "duration": 0.05999999999999872
                },
                {
                    "name": "D4",
                    "midi": 62,
                    "time": 19.91999999999997,
                    "velocity": 0.7874015748031497,
                    "duration": 0.05999999999999872
                },
                {
                    "name": "F#3",
                    "midi": 54,
                    "time": 19.97999999999997,
                    "velocity": 0.7874015748031497,
                    "duration": 0.05999999999999872
                },
                {
                    "name": "E3",
                    "midi": 52,
                    "time": 20.039999999999967,
                    "velocity": 0.7874015748031497,
                    "duration": 0.05999999999999872
                },
                {
                    "name": "D3",
                    "midi": 50,
                    "time": 20.099999999999966,
                    "velocity": 0.7874015748031497,
                    "duration": 0.05999999999999872
                },
                {
                    "name": "A2",
                    "midi": 45,
                    "time": 20.159999999999965,
                    "velocity": 0.7874015748031497,
                    "duration": 0.120000000000001
                },
                {
                    "name": "D4",
                    "midi": 62,
                    "time": 20.279999999999966,
                    "velocity": 0.7874015748031497,
                    "duration": 0.120000000000001
                },
                {
                    "name": "C#4",
                    "midi": 61,
                    "time": 20.399999999999967,
                    "velocity": 0.7874015748031497,
                    "duration": 0.12000000000000455
                },
                {
                    "name": "B3",
                    "midi": 59,
                    "time": 20.51999999999997,
                    "velocity": 0.7874015748031497,
                    "duration": 0.05999999999999872
                },
                {
                    "name": "A3",
                    "midi": 57,
                    "time": 20.57999999999997,
                    "velocity": 0.7874015748031497,
                    "duration": 0.05999999999999872
                },
                {
                    "name": "D4",
                    "midi": 62,
                    "time": 20.63999999999997,
                    "velocity": 0.7874015748031497,
                    "duration": 0.05999999999999872
                },
                {
                    "name": "A3",
                    "midi": 57,
                    "time": 20.699999999999967,
                    "velocity": 0.7874015748031497,
                    "duration": 0.05999999999999872
                },
                {
                    "name": "B3",
                    "midi": 59,
                    "time": 20.759999999999966,
                    "velocity": 0.7874015748031497,
                    "duration": 0.05999999999999872
                },
                {
                    "name": "F#3",
                    "midi": 54,
                    "time": 20.819999999999965,
                    "velocity": 0.7874015748031497,
                    "duration": 0.05999999999999872
                },
                {
                    "name": "G3",
                    "midi": 55,
                    "time": 20.879999999999963,
                    "velocity": 0.7874015748031497,
                    "duration": 0.05999999999999872
                },
                {
                    "name": "F#3",
                    "midi": 54,
                    "time": 20.939999999999962,
                    "velocity": 0.7874015748031497,
                    "duration": 0.05999999999999872
                },
                {
                    "name": "G3",
                    "midi": 55,
                    "time": 20.99999999999996,
                    "velocity": 0.7874015748031497,
                    "duration": 0.05999999999999872
                },
                {
                    "name": "E3",
                    "midi": 52,
                    "time": 21.05999999999996,
                    "velocity": 0.7874015748031497,
                    "duration": 0.05999999999999872
                },
                {
                    "name": "G3",
                    "midi": 55,
                    "time": 21.11999999999996,
                    "velocity": 0.7874015748031497,
                    "duration": 0.05999999999999872
                },
                {
                    "name": "F#3",
                    "midi": 54,
                    "time": 21.179999999999957,
                    "velocity": 0.7874015748031497,
                    "duration": 0.05999999999999872
                },
                {
                    "name": "G3",
                    "midi": 55,
                    "time": 21.239999999999956,
                    "velocity": 0.7874015748031497,
                    "duration": 0.05999999999999872
                },
                {
                    "name": "E3",
                    "midi": 52,
                    "time": 21.299999999999955,
                    "velocity": 0.7874015748031497,
                    "duration": 0.05999999999999872
                },
                {
                    "name": "A2",
                    "midi": 45,
                    "time": 21.359999999999953,
                    "velocity": 0.7874015748031497,
                    "duration": 0.05999999999999872
                },
                {
                    "name": "G3",
                    "midi": 55,
                    "time": 21.419999999999952,
                    "velocity": 0.7874015748031497,
                    "duration": 0.05999999999999872
                },
                {
                    "name": "F#3",
                    "midi": 54,
                    "time": 21.47999999999995,
                    "velocity": 0.7874015748031497,
                    "duration": 0.05999999999999872
                },
                {
                    "name": "E3",
                    "midi": 52,
                    "time": 21.53999999999995,
                    "velocity": 0.7874015748031497,
                    "duration": 0.05999999999999872
                },
                {
                    "name": "F#3",
                    "midi": 54,
                    "time": 21.599999999999948,
                    "velocity": 0.7874015748031497,
                    "duration": 0.05999999999999872
                },
                {
                    "name": "E3",
                    "midi": 52,
                    "time": 21.659999999999947,
                    "velocity": 0.7874015748031497,
                    "duration": 0.05999999999999872
                },
                {
                    "name": "F#3",
                    "midi": 54,
                    "time": 21.719999999999946,
                    "velocity": 0.7874015748031497,
                    "duration": 0.05999999999999872
                },
                {
                    "name": "D3",
                    "midi": 50,
                    "time": 21.779999999999944,
                    "velocity": 0.7874015748031497,
                    "duration": 0.05999999999999872
                },
                {
                    "name": "F#3",
                    "midi": 54,
                    "time": 21.839999999999943,
                    "velocity": 0.7874015748031497,
                    "duration": 0.05999999999999872
                },
                {
                    "name": "E3",
                    "midi": 52,
                    "time": 21.89999999999994,
                    "velocity": 0.7874015748031497,
                    "duration": 0.05999999999999872
                },
                {
                    "name": "F#3",
                    "midi": 54,
                    "time": 21.95999999999994,
                    "velocity": 0.7874015748031497,
                    "duration": 0.05999999999999872
                },
                {
                    "name": "D3",
                    "midi": 50,
                    "time": 22.01999999999994,
                    "velocity": 0.7874015748031497,
                    "duration": 0.05999999999999872
                },
                {
                    "name": "G2",
                    "midi": 43,
                    "time": 22.079999999999938,
                    "velocity": 0.7874015748031497,
                    "duration": 0.05999999999999872
                },
                {
                    "name": "F#3",
                    "midi": 54,
                    "time": 22.139999999999937,
                    "velocity": 0.7874015748031497,
                    "duration": 0.05999999999999872
                },
                {
                    "name": "E3",
                    "midi": 52,
                    "time": 22.199999999999935,
                    "velocity": 0.7874015748031497,
                    "duration": 0.05999999999999872
                },
                {
                    "name": "D3",
                    "midi": 50,
                    "time": 22.259999999999934,
                    "velocity": 0.7874015748031497,
                    "duration": 0.05999999999999872
                },
                {
                    "name": "D4",
                    "midi": 62,
                    "time": 22.319999999999933,
                    "velocity": 0.7874015748031497,
                    "duration": 0.05999999999999872
                },
                {
                    "name": "C#4",
                    "midi": 61,
                    "time": 22.37999999999993,
                    "velocity": 0.7874015748031497,
                    "duration": 0.05999999999999872
                },
                {
                    "name": "B3",
                    "midi": 59,
                    "time": 22.43999999999993,
                    "velocity": 0.7874015748031497,
                    "duration": 0.05999999999999872
                },
                {
                    "name": "A3",
                    "midi": 57,
                    "time": 22.49999999999993,
                    "velocity": 0.7874015748031497,
                    "duration": 0.05999999999999872
                },
                {
                    "name": "D4",
                    "midi": 62,
                    "time": 22.559999999999928,
                    "velocity": 0.7874015748031497,
                    "duration": 0.120000000000001
                },
                {
                    "name": "C#4",
                    "midi": 61,
                    "time": 22.67999999999993,
                    "velocity": 0.7874015748031497,
                    "duration": 0.05999999999999872
                },
                {
                    "name": "B3",
                    "midi": 59,
                    "time": 22.739999999999927,
                    "velocity": 0.7874015748031497,
                    "duration": 0.05999999999999872
                },
                {
                    "name": "A3",
                    "midi": 57,
                    "time": 22.799999999999926,
                    "velocity": 0.7874015748031497,
                    "duration": 0.05999999999999872
                },
                {
                    "name": "G3",
                    "midi": 55,
                    "time": 22.859999999999925,
                    "velocity": 0.7874015748031497,
                    "duration": 0.05999999999999872
                },
                {
                    "name": "F#3",
                    "midi": 54,
                    "time": 22.919999999999924,
                    "velocity": 0.7874015748031497,
                    "duration": 0.05999999999999872
                },
                {
                    "name": "E3",
                    "midi": 52,
                    "time": 22.979999999999922,
                    "velocity": 0.7874015748031497,
                    "duration": 0.05999999999999872
                },
                {
                    "name": "D3",
                    "midi": 50,
                    "time": 23.03999999999992,
                    "velocity": 0.7874015748031497,
                    "duration": 0.05999999999999872
                },
                {
                    "name": "E3",
                    "midi": 52,
                    "time": 23.09999999999992,
                    "velocity": 0.7874015748031497,
                    "duration": 0.05999999999999872
                },
                {
                    "name": "D3",
                    "midi": 50,
                    "time": 23.15999999999992,
                    "velocity": 0.7874015748031497,
                    "duration": 0.05999999999999872
                },
                {
                    "name": "F#3",
                    "midi": 54,
                    "time": 23.219999999999917,
                    "velocity": 0.7874015748031497,
                    "duration": 0.05999999999999872
                },
                {
                    "name": "D3",
                    "midi": 50,
                    "time": 23.279999999999916,
                    "velocity": 0.7874015748031497,
                    "duration": 0.05999999999999872
                },
                {
                    "name": "E3",
                    "midi": 52,
                    "time": 23.339999999999915,
                    "velocity": 0.7874015748031497,
                    "duration": 0.05999999999999872
                },
                {
                    "name": "D3",
                    "midi": 50,
                    "time": 23.399999999999913,
                    "velocity": 0.7874015748031497,
                    "duration": 0.05999999999999872
                },
                {
                    "name": "G3",
                    "midi": 55,
                    "time": 23.459999999999912,
                    "velocity": 0.7874015748031497,
                    "duration": 0.05999999999999872
                },
                {
                    "name": "D3",
                    "midi": 50,
                    "time": 23.51999999999991,
                    "velocity": 0.7874015748031497,
                    "duration": 0.05999999999999872
                },
                {
                    "name": "E3",
                    "midi": 52,
                    "time": 23.57999999999991,
                    "velocity": 0.7874015748031497,
                    "duration": 0.05999999999999872
                },
                {
                    "name": "D3",
                    "midi": 50,
                    "time": 23.639999999999908,
                    "velocity": 0.7874015748031497,
                    "duration": 0.05999999999999872
                },
                {
                    "name": "A3",
                    "midi": 57,
                    "time": 23.699999999999907,
                    "velocity": 0.7874015748031497,
                    "duration": 0.05999999999999872
                },
                {
                    "name": "D3",
                    "midi": 50,
                    "time": 23.759999999999906,
                    "velocity": 0.7874015748031497,
                    "duration": 0.05999999999999872
                },
                {
                    "name": "E3",
                    "midi": 52,
                    "time": 23.819999999999904,
                    "velocity": 0.7874015748031497,
                    "duration": 0.05999999999999872
                },
                {
                    "name": "D3",
                    "midi": 50,
                    "time": 23.879999999999903,
                    "velocity": 0.7874015748031497,
                    "duration": 0.05999999999999872
                },
                {
                    "name": "B3",
                    "midi": 59,
                    "time": 23.939999999999902,
                    "velocity": 0.7874015748031497,
                    "duration": 0.05999999999999872
                },
                {
                    "name": "D3",
                    "midi": 50,
                    "time": 23.9999999999999,
                    "velocity": 0.7874015748031497,
                    "duration": 0.05999999999999872
                },
                {
                    "name": "E3",
                    "midi": 52,
                    "time": 24.0599999999999,
                    "velocity": 0.7874015748031497,
                    "duration": 0.05999999999999872
                },
                {
                    "name": "D3",
                    "midi": 50,
                    "time": 24.119999999999898,
                    "velocity": 0.7874015748031497,
                    "duration": 0.05999999999999872
                },
                {
                    "name": "C#4",
                    "midi": 61,
                    "time": 24.179999999999897,
                    "velocity": 0.7874015748031497,
                    "duration": 0.05999999999999872
                },
                {
                    "name": "D3",
                    "midi": 50,
                    "time": 24.239999999999895,
                    "velocity": 0.7874015748031497,
                    "duration": 0.05999999999999872
                },
                {
                    "name": "E3",
                    "midi": 52,
                    "time": 24.299999999999894,
                    "velocity": 0.7874015748031497,
                    "duration": 0.05999999999999872
                },
                {
                    "name": "D3",
                    "midi": 50,
                    "time": 24.359999999999893,
                    "velocity": 0.7874015748031497,
                    "duration": 0.05999999999999872
                },
                {
                    "name": "D4",
                    "midi": 62,
                    "time": 24.41999999999989,
                    "velocity": 0.7874015748031497,
                    "duration": 0.05999999999999872
                },
                {
                    "name": "G3",
                    "midi": 55,
                    "time": 24.47999999999989,
                    "velocity": 0.7874015748031497,
                    "duration": 0.05999999999999872
                },
                {
                    "name": "F#3",
                    "midi": 54,
                    "time": 24.53999999999989,
                    "velocity": 0.7874015748031497,
                    "duration": 0.05999999999999872
                },
                {
                    "name": "E3",
                    "midi": 52,
                    "time": 24.599999999999888,
                    "velocity": 0.7874015748031497,
                    "duration": 0.05999999999999872
                },
                {
                    "name": "D3",
                    "midi": 50,
                    "time": 24.659999999999886,
                    "velocity": 0.7874015748031497,
                    "duration": 0.05999999999999872
                },
                {
                    "name": "C#3",
                    "midi": 49,
                    "time": 24.719999999999885,
                    "velocity": 0.7874015748031497,
                    "duration": 0.05999999999999872
                },
                {
                    "name": "B2",
                    "midi": 47,
                    "time": 24.779999999999884,
                    "velocity": 0.7874015748031497,
                    "duration": 0.05999999999999872
                },
                {
                    "name": "A2",
                    "midi": 45,
                    "time": 24.839999999999883,
                    "velocity": 0.7874015748031497,
                    "duration": 0.05999999999999872
                },
                {
                    "name": "G3",
                    "midi": 55,
                    "time": 24.89999999999988,
                    "velocity": 0.7874015748031497,
                    "duration": 0.05999999999999872
                },
                {
                    "name": "F#3",
                    "midi": 54,
                    "time": 24.95999999999988,
                    "velocity": 0.7874015748031497,
                    "duration": 0.18000000000000327
                },
                {
                    "name": "E3",
                    "midi": 52,
                    "time": 25.139999999999883,
                    "velocity": 0.7874015748031497,
                    "duration": 0.05999999999999872
                },
                {
                    "name": "A3",
                    "midi": 57,
                    "time": 25.199999999999882,
                    "velocity": 0.7874015748031497,
                    "duration": 0.05999999999999872
                },
                {
                    "name": "G3",
                    "midi": 55,
                    "time": 25.25999999999988,
                    "velocity": 0.7874015748031497,
                    "duration": 0.05999999999999872
                },
                {
                    "name": "B3",
                    "midi": 59,
                    "time": 25.31999999999988,
                    "velocity": 0.7874015748031497,
                    "duration": 0.05999999999999872
                },
                {
                    "name": "A3",
                    "midi": 57,
                    "time": 25.379999999999878,
                    "velocity": 0.7874015748031497,
                    "duration": 0.05999999999999872
                },
                {
                    "name": "G3",
                    "midi": 55,
                    "time": 25.439999999999877,
                    "velocity": 0.7874015748031497,
                    "duration": 0.05999999999999872
                },
                {
                    "name": "F#3",
                    "midi": 54,
                    "time": 25.499999999999876,
                    "velocity": 0.7874015748031497,
                    "duration": 0.05999999999999872
                },
                {
                    "name": "E3",
                    "midi": 52,
                    "time": 25.559999999999874,
                    "velocity": 0.7874015748031497,
                    "duration": 0.05999999999999872
                },
                {
                    "name": "D3",
                    "midi": 50,
                    "time": 25.619999999999873,
                    "velocity": 0.7874015748031497,
                    "duration": 0.05999999999999872
                },
                {
                    "name": "A2",
                    "midi": 45,
                    "time": 25.679999999999872,
                    "velocity": 0.7874015748031497,
                    "duration": 0.120000000000001
                },
                {
                    "name": "C#3",
                    "midi": 49,
                    "time": 25.799999999999873,
                    "velocity": 0.7874015748031497,
                    "duration": 0.120000000000001
                },
                {
                    "name": "D2",
                    "midi": 38,
                    "time": 25.919999999999874,
                    "velocity": 0.7874015748031497,
                    "duration": 0.4800000000000004
                },
                {
                    "name": "A3",
                    "midi": 57,
                    "time": 26.519999999999875,
                    "velocity": 0.7874015748031497,
                    "duration": 0.120000000000001
                },
                {
                    "name": "A3",
                    "midi": 57,
                    "time": 26.639999999999876,
                    "velocity": 0.7874015748031497,
                    "duration": 0.120000000000001
                },
                {
                    "name": "F#3",
                    "midi": 54,
                    "time": 26.759999999999877,
                    "velocity": 0.7874015748031497,
                    "duration": 0.120000000000001
                },
                {
                    "name": "D3",
                    "midi": 50,
                    "time": 26.879999999999878,
                    "velocity": 0.7874015748031497,
                    "duration": 0.120000000000001
                },
                {
                    "name": "E3",
                    "midi": 52,
                    "time": 26.99999999999988,
                    "velocity": 0.7874015748031497,
                    "duration": 0.05999999999999872
                },
                {
                    "name": "F#3",
                    "midi": 54,
                    "time": 27.059999999999878,
                    "velocity": 0.7874015748031497,
                    "duration": 0.05999999999999872
                },
                {
                    "name": "G3",
                    "midi": 55,
                    "time": 27.119999999999877,
                    "velocity": 0.7874015748031497,
                    "duration": 0.05999999999999872
                },
                {
                    "name": "F#3",
                    "midi": 54,
                    "time": 27.179999999999875,
                    "velocity": 0.7874015748031497,
                    "duration": 0.05999999999999872
                },
                {
                    "name": "E3",
                    "midi": 52,
                    "time": 27.239999999999874,
                    "velocity": 0.7874015748031497,
                    "duration": 0.05999999999999872
                },
                {
                    "name": "D3",
                    "midi": 50,
                    "time": 27.299999999999873,
                    "velocity": 0.7874015748031497,
                    "duration": 0.05999999999999872
                },
                {
                    "name": "D4",
                    "midi": 62,
                    "time": 27.35999999999987,
                    "velocity": 0.7874015748031497,
                    "duration": 0.120000000000001
                },
                {
                    "name": "F#3",
                    "midi": 54,
                    "time": 27.479999999999873,
                    "velocity": 0.7874015748031497,
                    "duration": 0.120000000000001
                },
                {
                    "name": "C3",
                    "midi": 48,
                    "time": 27.599999999999874,
                    "velocity": 0.7874015748031497,
                    "duration": 0.120000000000001
                },
                {
                    "name": "B2",
                    "midi": 47,
                    "time": 27.719999999999875,
                    "velocity": 0.7874015748031497,
                    "duration": 0.05999999999999872
                },
                {
                    "name": "C3",
                    "midi": 48,
                    "time": 27.779999999999873,
                    "velocity": 0.7874015748031497,
                    "duration": 0.05999999999999872
                },
                {
                    "name": "D3",
                    "midi": 50,
                    "time": 27.839999999999872,
                    "velocity": 0.7874015748031497,
                    "duration": 0.05999999999999872
                },
                {
                    "name": "C3",
                    "midi": 48,
                    "time": 27.89999999999987,
                    "velocity": 0.7874015748031497,
                    "duration": 0.05999999999999872
                },
                {
                    "name": "B2",
                    "midi": 47,
                    "time": 27.95999999999987,
                    "velocity": 0.7874015748031497,
                    "duration": 0.05999999999999872
                },
                {
                    "name": "A2",
                    "midi": 45,
                    "time": 28.019999999999868,
                    "velocity": 0.7874015748031497,
                    "duration": 0.05999999999999872
                },
                {
                    "name": "B2",
                    "midi": 47,
                    "time": 28.079999999999867,
                    "velocity": 0.7874015748031497,
                    "duration": 0.05999999999999872
                },
                {
                    "name": "G3",
                    "midi": 55,
                    "time": 28.139999999999866,
                    "velocity": 0.7874015748031497,
                    "duration": 0.05999999999999872
                },
                {
                    "name": "A3",
                    "midi": 57,
                    "time": 28.199999999999864,
                    "velocity": 0.7874015748031497,
                    "duration": 0.05999999999999872
                },
                {
                    "name": "B3",
                    "midi": 59,
                    "time": 28.259999999999863,
                    "velocity": 0.7874015748031497,
                    "duration": 0.05999999999999872
                },
                {
                    "name": "C4",
                    "midi": 60,
                    "time": 28.31999999999986,
                    "velocity": 0.7874015748031497,
                    "duration": 0.05999999999999872
                },
                {
                    "name": "B3",
                    "midi": 59,
                    "time": 28.37999999999986,
                    "velocity": 0.7874015748031497,
                    "duration": 0.05999999999999872
                },
                {
                    "name": "A3",
                    "midi": 57,
                    "time": 28.43999999999986,
                    "velocity": 0.7874015748031497,
                    "duration": 0.05999999999999872
                },
                {
                    "name": "G3",
                    "midi": 55,
                    "time": 28.499999999999858,
                    "velocity": 0.7874015748031497,
                    "duration": 0.05999999999999872
                },
                {
                    "name": "F#3",
                    "midi": 54,
                    "time": 28.559999999999857,
                    "velocity": 0.7874015748031497,
                    "duration": 0.120000000000001
                },
                {
                    "name": "D4",
                    "midi": 62,
                    "time": 28.679999999999858,
                    "velocity": 0.7874015748031497,
                    "duration": 0.120000000000001
                },
                {
                    "name": "B3",
                    "midi": 59,
                    "time": 28.79999999999986,
                    "velocity": 0.7874015748031497,
                    "duration": 0.120000000000001
                },
                {
                    "name": "G3",
                    "midi": 55,
                    "time": 28.91999999999986,
                    "velocity": 0.7874015748031497,
                    "duration": 0.120000000000001
                },
                {
                    "name": "G2",
                    "midi": 43,
                    "time": 29.03999999999986,
                    "velocity": 0.7874015748031497,
                    "duration": 0.120000000000001
                },
                {
                    "name": "B3",
                    "midi": 59,
                    "time": 29.15999999999986,
                    "velocity": 0.7874015748031497,
                    "duration": 0.05999999999999872
                },
                {
                    "name": "A3",
                    "midi": 57,
                    "time": 29.21999999999986,
                    "velocity": 0.7874015748031497,
                    "duration": 0.05999999999999872
                },
                {
                    "name": "C4",
                    "midi": 60,
                    "time": 29.27999999999986,
                    "velocity": 0.7874015748031497,
                    "duration": 0.05999999999999872
                },
                {
                    "name": "B3",
                    "midi": 59,
                    "time": 29.339999999999858,
                    "velocity": 0.7874015748031497,
                    "duration": 0.05999999999999872
                },
                {
                    "name": "A3",
                    "midi": 57,
                    "time": 29.399999999999856,
                    "velocity": 0.7874015748031497,
                    "duration": 0.05999999999999872
                },
                {
                    "name": "G3",
                    "midi": 55,
                    "time": 29.459999999999855,
                    "velocity": 0.7874015748031497,
                    "duration": 0.05999999999999872
                },
                {
                    "name": "A3",
                    "midi": 57,
                    "time": 29.519999999999854,
                    "velocity": 0.7874015748031497,
                    "duration": 0.120000000000001
                },
                {
                    "name": "F#3",
                    "midi": 54,
                    "time": 29.639999999999855,
                    "velocity": 0.7874015748031497,
                    "duration": 0.120000000000001
                },
                {
                    "name": "D#3",
                    "midi": 51,
                    "time": 29.759999999999856,
                    "velocity": 0.7874015748031497,
                    "duration": 0.05999999999999872
                },
                {
                    "name": "A3",
                    "midi": 57,
                    "time": 29.819999999999855,
                    "velocity": 0.7874015748031497,
                    "duration": 0.05999999999999872
                },
                {
                    "name": "B3",
                    "midi": 59,
                    "time": 29.879999999999853,
                    "velocity": 0.7874015748031497,
                    "duration": 0.05999999999999872
                },
                {
                    "name": "C4",
                    "midi": 60,
                    "time": 29.939999999999852,
                    "velocity": 0.7874015748031497,
                    "duration": 0.05999999999999872
                },
                {
                    "name": "B3",
                    "midi": 59,
                    "time": 29.99999999999985,
                    "velocity": 0.7874015748031497,
                    "duration": 0.05999999999999872
                },
                {
                    "name": "A3",
                    "midi": 57,
                    "time": 30.05999999999985,
                    "velocity": 0.7874015748031497,
                    "duration": 0.05999999999999872
                },
                {
                    "name": "G3",
                    "midi": 55,
                    "time": 30.11999999999985,
                    "velocity": 0.7874015748031497,
                    "duration": 0.05999999999999872
                },
                {
                    "name": "F#3",
                    "midi": 54,
                    "time": 30.179999999999847,
                    "velocity": 0.7874015748031497,
                    "duration": 0.05999999999999872
                },
                {
                    "name": "G3",
                    "midi": 55,
                    "time": 30.239999999999846,
                    "velocity": 0.7874015748031497,
                    "duration": 0.120000000000001
                },
                {
                    "name": "E3",
                    "midi": 52,
                    "time": 30.359999999999847,
                    "velocity": 0.7874015748031497,
                    "duration": 0.120000000000001
                },
                {
                    "name": "E2",
                    "midi": 40,
                    "time": 30.479999999999848,
                    "velocity": 0.7874015748031497,
                    "duration": 0.120000000000001
                },
                {
                    "name": "G3",
                    "midi": 55,
                    "time": 30.59999999999985,
                    "velocity": 0.7874015748031497,
                    "duration": 0.05999999999999872
                },
                {
                    "name": "F#3",
                    "midi": 54,
                    "time": 30.659999999999847,
                    "velocity": 0.7874015748031497,
                    "duration": 0.05999999999999872
                },
                {
                    "name": "A3",
                    "midi": 57,
                    "time": 30.719999999999846,
                    "velocity": 0.7874015748031497,
                    "duration": 0.05999999999999872
                },
                {
                    "name": "G3",
                    "midi": 55,
                    "time": 30.779999999999845,
                    "velocity": 0.7874015748031497,
                    "duration": 0.05999999999999872
                },
                {
                    "name": "F#3",
                    "midi": 54,
                    "time": 30.839999999999844,
                    "velocity": 0.7874015748031497,
                    "duration": 0.05999999999999872
                },
                {
                    "name": "E3",
                    "midi": 52,
                    "time": 30.899999999999842,
                    "velocity": 0.7874015748031497,
                    "duration": 0.05999999999999872
                },
                {
                    "name": "F3",
                    "midi": 53,
                    "time": 30.95999999999984,
                    "velocity": 0.7874015748031497,
                    "duration": 0.05999999999999872
                },
                {
                    "name": "E3",
                    "midi": 52,
                    "time": 31.01999999999984,
                    "velocity": 0.7874015748031497,
                    "duration": 0.05999999999999872
                },
                {
                    "name": "F3",
                    "midi": 53,
                    "time": 31.07999999999984,
                    "velocity": 0.7874015748031497,
                    "duration": 0.05999999999999872
                },
                {
                    "name": "A3",
                    "midi": 57,
                    "time": 31.139999999999837,
                    "velocity": 0.7874015748031497,
                    "duration": 0.05999999999999872
                },
                {
                    "name": "F3",
                    "midi": 53,
                    "time": 31.199999999999836,
                    "velocity": 0.7874015748031497,
                    "duration": 0.05999999999999872
                },
                {
                    "name": "E3",
                    "midi": 52,
                    "time": 31.259999999999835,
                    "velocity": 0.7874015748031497,
                    "duration": 0.05999999999999872
                },
                {
                    "name": "F3",
                    "midi": 53,
                    "time": 31.319999999999833,
                    "velocity": 0.7874015748031497,
                    "duration": 0.05999999999999872
                },
                {
                    "name": "A3",
                    "midi": 57,
                    "time": 31.379999999999832,
                    "velocity": 0.7874015748031497,
                    "duration": 0.05999999999999872
                },
                {
                    "name": "C4",
                    "midi": 60,
                    "time": 31.43999999999983,
                    "velocity": 0.7874015748031497,
                    "duration": 0.05999999999999872
                },
                {
                    "name": "B3",
                    "midi": 59,
                    "time": 31.49999999999983,
                    "velocity": 0.7874015748031497,
                    "duration": 0.05999999999999872
                },
                {
                    "name": "C4",
                    "midi": 60,
                    "time": 31.559999999999828,
                    "velocity": 0.7874015748031497,
                    "duration": 0.05999999999999872
                },
                {
                    "name": "A3",
                    "midi": 57,
                    "time": 31.619999999999827,
                    "velocity": 0.7874015748031497,
                    "duration": 0.05999999999999872
                },
                {
                    "name": "D#4",
                    "midi": 63,
                    "time": 31.679999999999826,
                    "velocity": 0.7874015748031497,
                    "duration": 0.30000000000000426
                },
                {
                    "name": "C4",
                    "midi": 60,
                    "time": 31.97999999999983,
                    "velocity": 0.7874015748031497,
                    "duration": 0.05999999999999872
                },
                {
                    "name": "B3",
                    "midi": 59,
                    "time": 32.03999999999983,
                    "velocity": 0.7874015748031497,
                    "duration": 0.060000000000002274
                },
                {
                    "name": "A3",
                    "midi": 57,
                    "time": 32.09999999999983,
                    "velocity": 0.7874015748031497,
                    "duration": 0.060000000000002274
                },
                {
                    "name": "G3",
                    "midi": 55,
                    "time": 32.15999999999983,
                    "velocity": 0.7874015748031497,
                    "duration": 0.060000000000002274
                },
                {
                    "name": "F#3",
                    "midi": 54,
                    "time": 32.219999999999835,
                    "velocity": 0.7874015748031497,
                    "duration": 0.060000000000002274
                },
                {
                    "name": "A3",
                    "midi": 57,
                    "time": 32.27999999999984,
                    "velocity": 0.7874015748031497,
                    "duration": 0.060000000000002274
                },
                {
                    "name": "D#3",
                    "midi": 51,
                    "time": 32.33999999999984,
                    "velocity": 0.7874015748031497,
                    "duration": 0.060000000000002274
                },
                {
                    "name": "G2",
                    "midi": 43,
                    "time": 32.39999999999984,
                    "velocity": 0.7874015748031497,
                    "duration": 0.11999999999999744
                },
                {
                    "name": "B3",
                    "midi": 59,
                    "time": 32.51999999999984,
                    "velocity": 0.7874015748031497,
                    "duration": 0.11999999999999744
                },
                {
                    "name": "A3",
                    "midi": 57,
                    "time": 32.63999999999984,
                    "velocity": 0.7874015748031497,
                    "duration": 0.060000000000002274
                },
                {
                    "name": "G3",
                    "midi": 55,
                    "time": 32.69999999999984,
                    "velocity": 0.7874015748031497,
                    "duration": 0.060000000000002274
                },
                {
                    "name": "F#3",
                    "midi": 54,
                    "time": 32.75999999999984,
                    "velocity": 0.7874015748031497,
                    "duration": 0.060000000000002274
                },
                {
                    "name": "E3",
                    "midi": 52,
                    "time": 32.819999999999844,
                    "velocity": 0.7874015748031497,
                    "duration": 0.060000000000002274
                },
                {
                    "name": "B2",
                    "midi": 47,
                    "time": 32.879999999999846,
                    "velocity": 0.7874015748031497,
                    "duration": 0.11999999999999744
                },
                {
                    "name": "D#3",
                    "midi": 51,
                    "time": 32.999999999999844,
                    "velocity": 0.7874015748031497,
                    "duration": 0.11999999999999744
                },
                {
                    "name": "E2",
                    "midi": 40,
                    "time": 33.11999999999984,
                    "velocity": 0.7874015748031497,
                    "duration": 0.35999999999999943
                },
                {
                    "name": "E3",
                    "midi": 52,
                    "time": 33.47999999999984,
                    "velocity": 0.7874015748031497,
                    "duration": 0.060000000000002274
                },
                {
                    "name": "F#3",
                    "midi": 54,
                    "time": 33.53999999999984,
                    "velocity": 0.7874015748031497,
                    "duration": 0.060000000000002274
                },
                {
                    "name": "G3",
                    "midi": 55,
                    "time": 33.599999999999845,
                    "velocity": 0.7874015748031497,
                    "duration": 0.060000000000002274
                },
                {
                    "name": "A3",
                    "midi": 57,
                    "time": 33.65999999999985,
                    "velocity": 0.7874015748031497,
                    "duration": 0.060000000000002274
                },
                {
                    "name": "B3",
                    "midi": 59,
                    "time": 33.71999999999985,
                    "velocity": 0.7874015748031497,
                    "duration": 0.060000000000002274
                },
                {
                    "name": "C4",
                    "midi": 60,
                    "time": 33.77999999999985,
                    "velocity": 0.7874015748031497,
                    "duration": 0.060000000000002274
                },
                {
                    "name": "D4",
                    "midi": 62,
                    "time": 33.839999999999854,
                    "velocity": 0.7874015748031497,
                    "duration": 0.11999999999999744
                },
                {
                    "name": "F3",
                    "midi": 53,
                    "time": 33.95999999999985,
                    "velocity": 0.7874015748031497,
                    "duration": 0.11999999999999744
                },
                {
                    "name": "B2",
                    "midi": 47,
                    "time": 34.07999999999985,
                    "velocity": 0.7874015748031497,
                    "duration": 0.11999999999999744
                },
                {
                    "name": "E3",
                    "midi": 52,
                    "time": 34.19999999999985,
                    "velocity": 0.7874015748031497,
                    "duration": 0.060000000000002274
                },
                {
                    "name": "F3",
                    "midi": 53,
                    "time": 34.25999999999985,
                    "velocity": 0.7874015748031497,
                    "duration": 0.060000000000002274
                },
                {
                    "name": "G3",
                    "midi": 55,
                    "time": 34.31999999999985,
                    "velocity": 0.7874015748031497,
                    "duration": 0.060000000000002274
                },
                {
                    "name": "F3",
                    "midi": 53,
                    "time": 34.37999999999985,
                    "velocity": 0.7874015748031497,
                    "duration": 0.060000000000002274
                },
                {
                    "name": "E3",
                    "midi": 52,
                    "time": 34.439999999999856,
                    "velocity": 0.7874015748031497,
                    "duration": 0.060000000000002274
                },
                {
                    "name": "D3",
                    "midi": 50,
                    "time": 34.49999999999986,
                    "velocity": 0.7874015748031497,
                    "duration": 0.060000000000002274
                },
                {
                    "name": "E3",
                    "midi": 52,
                    "time": 34.55999999999986,
                    "velocity": 0.7874015748031497,
                    "duration": 0.11999999999999744
                },
                {
                    "name": "C3",
                    "midi": 48,
                    "time": 34.67999999999986,
                    "velocity": 0.7874015748031497,
                    "duration": 0.11999999999999744
                },
                {
                    "name": "C2",
                    "midi": 36,
                    "time": 34.799999999999855,
                    "velocity": 0.7874015748031497,
                    "duration": 0.11999999999999744
                },
                {
                    "name": "C3",
                    "midi": 48,
                    "time": 34.91999999999985,
                    "velocity": 0.7874015748031497,
                    "duration": 0.060000000000002274
                },
                {
                    "name": "D3",
                    "midi": 50,
                    "time": 34.979999999999855,
                    "velocity": 0.7874015748031497,
                    "duration": 0.060000000000002274
                },
                {
                    "name": "E3",
                    "midi": 52,
                    "time": 35.03999999999986,
                    "velocity": 0.7874015748031497,
                    "duration": 0.060000000000002274
                },
                {
                    "name": "F#3",
                    "midi": 54,
                    "time": 35.09999999999986,
                    "velocity": 0.7874015748031497,
                    "duration": 0.060000000000002274
                },
                {
                    "name": "G3",
                    "midi": 55,
                    "time": 35.15999999999986,
                    "velocity": 0.7874015748031497,
                    "duration": 0.060000000000002274
                },
                {
                    "name": "E3",
                    "midi": 52,
                    "time": 35.219999999999864,
                    "velocity": 0.7874015748031497,
                    "duration": 0.060000000000002274
                },
                {
                    "name": "C#3",
                    "midi": 49,
                    "time": 35.279999999999866,
                    "velocity": 0.7874015748031497,
                    "duration": 0.060000000000002274
                },
                {
                    "name": "G3",
                    "midi": 55,
                    "time": 35.33999999999987,
                    "velocity": 0.7874015748031497,
                    "duration": 0.060000000000002274
                },
                {
                    "name": "A3",
                    "midi": 57,
                    "time": 35.39999999999987,
                    "velocity": 0.7874015748031497,
                    "duration": 0.060000000000002274
                },
                {
                    "name": "G3",
                    "midi": 55,
                    "time": 35.45999999999987,
                    "velocity": 0.7874015748031497,
                    "duration": 0.060000000000002274
                },
                {
                    "name": "A3",
                    "midi": 57,
                    "time": 35.519999999999875,
                    "velocity": 0.7874015748031497,
                    "duration": 0.060000000000002274
                },
                {
                    "name": "G3",
                    "midi": 55,
                    "time": 35.57999999999988,
                    "velocity": 0.7874015748031497,
                    "duration": 0.060000000000002274
                },
                {
                    "name": "C#3",
                    "midi": 49,
                    "time": 35.63999999999988,
                    "velocity": 0.7874015748031497,
                    "duration": 0.060000000000002274
                },
                {
                    "name": "G3",
                    "midi": 55,
                    "time": 35.69999999999988,
                    "velocity": 0.7874015748031497,
                    "duration": 0.060000000000002274
                },
                {
                    "name": "C#3",
                    "midi": 49,
                    "time": 35.759999999999884,
                    "velocity": 0.7874015748031497,
                    "duration": 0.060000000000002274
                },
                {
                    "name": "G3",
                    "midi": 55,
                    "time": 35.81999999999989,
                    "velocity": 0.7874015748031497,
                    "duration": 0.060000000000002274
                },
                {
                    "name": "A3",
                    "midi": 57,
                    "time": 35.87999999999989,
                    "velocity": 0.7874015748031497,
                    "duration": 0.060000000000002274
                },
                {
                    "name": "G3",
                    "midi": 55,
                    "time": 35.93999999999989,
                    "velocity": 0.7874015748031497,
                    "duration": 0.060000000000002274
                },
                {
                    "name": "C3",
                    "midi": 48,
                    "time": 35.99999999999989,
                    "velocity": 0.7874015748031497,
                    "duration": 0.060000000000002274
                },
                {
                    "name": "F#3",
                    "midi": 54,
                    "time": 36.059999999999896,
                    "velocity": 0.7874015748031497,
                    "duration": 0.060000000000002274
                },
                {
                    "name": "A3",
                    "midi": 57,
                    "time": 36.1199999999999,
                    "velocity": 0.7874015748031497,
                    "duration": 0.060000000000002274
                },
                {
                    "name": "F#3",
                    "midi": 54,
                    "time": 36.1799999999999,
                    "velocity": 0.7874015748031497,
                    "duration": 0.060000000000002274
                },
                {
                    "name": "A3",
                    "midi": 57,
                    "time": 36.2399999999999,
                    "velocity": 0.7874015748031497,
                    "duration": 0.060000000000002274
                },
                {
                    "name": "F#3",
                    "midi": 54,
                    "time": 36.299999999999905,
                    "velocity": 0.7874015748031497,
                    "duration": 0.060000000000002274
                },
                {
                    "name": "C3",
                    "midi": 48,
                    "time": 36.35999999999991,
                    "velocity": 0.7874015748031497,
                    "duration": 0.060000000000002274
                },
                {
                    "name": "F#3",
                    "midi": 54,
                    "time": 36.41999999999991,
                    "velocity": 0.7874015748031497,
                    "duration": 0.060000000000002274
                },
                {
                    "name": "C3",
                    "midi": 48,
                    "time": 36.47999999999991,
                    "velocity": 0.7874015748031497,
                    "duration": 0.060000000000002274
                },
                {
                    "name": "F#3",
                    "midi": 54,
                    "time": 36.539999999999914,
                    "velocity": 0.7874015748031497,
                    "duration": 0.060000000000002274
                },
                {
                    "name": "A3",
                    "midi": 57,
                    "time": 36.599999999999916,
                    "velocity": 0.7874015748031497,
                    "duration": 0.060000000000002274
                },
                {
                    "name": "F#3",
                    "midi": 54,
                    "time": 36.65999999999992,
                    "velocity": 0.7874015748031497,
                    "duration": 0.060000000000002274
                },
                {
                    "name": "B2",
                    "midi": 47,
                    "time": 36.71999999999992,
                    "velocity": 0.7874015748031497,
                    "duration": 0.060000000000002274
                },
                {
                    "name": "D3",
                    "midi": 50,
                    "time": 36.77999999999992,
                    "velocity": 0.7874015748031497,
                    "duration": 0.060000000000002274
                },
                {
                    "name": "E3",
                    "midi": 52,
                    "time": 36.839999999999925,
                    "velocity": 0.7874015748031497,
                    "duration": 0.060000000000002274
                },
                {
                    "name": "F3",
                    "midi": 53,
                    "time": 36.89999999999993,
                    "velocity": 0.7874015748031497,
                    "duration": 0.060000000000002274
                },
                {
                    "name": "G2",
                    "midi": 43,
                    "time": 36.95999999999993,
                    "velocity": 0.7874015748031497,
                    "duration": 0.060000000000002274
                },
                {
                    "name": "F3",
                    "midi": 53,
                    "time": 37.01999999999993,
                    "velocity": 0.7874015748031497,
                    "duration": 0.060000000000002274
                },
                {
                    "name": "E3",
                    "midi": 52,
                    "time": 37.079999999999934,
                    "velocity": 0.7874015748031497,
                    "duration": 0.060000000000002274
                },
                {
                    "name": "D3",
                    "midi": 50,
                    "time": 37.13999999999994,
                    "velocity": 0.7874015748031497,
                    "duration": 0.060000000000002274
                },
                {
                    "name": "E3",
                    "midi": 52,
                    "time": 37.19999999999994,
                    "velocity": 0.7874015748031497,
                    "duration": 0.060000000000002274
                },
                {
                    "name": "D4",
                    "midi": 62,
                    "time": 37.25999999999994,
                    "velocity": 0.7874015748031497,
                    "duration": 0.060000000000002274
                },
                {
                    "name": "C4",
                    "midi": 60,
                    "time": 37.31999999999994,
                    "velocity": 0.7874015748031497,
                    "duration": 0.060000000000002274
                },
                {
                    "name": "B3",
                    "midi": 59,
                    "time": 37.379999999999946,
                    "velocity": 0.7874015748031497,
                    "duration": 0.060000000000002274
                },
                {
                    "name": "F#3",
                    "midi": 54,
                    "time": 37.43999999999995,
                    "velocity": 0.7874015748031497,
                    "duration": 0.060000000000002274
                },
                {
                    "name": "A3",
                    "midi": 57,
                    "time": 37.49999999999995,
                    "velocity": 0.7874015748031497,
                    "duration": 0.060000000000002274
                },
                {
                    "name": "B3",
                    "midi": 59,
                    "time": 37.55999999999995,
                    "velocity": 0.7874015748031497,
                    "duration": 0.060000000000002274
                },
                {
                    "name": "C4",
                    "midi": 60,
                    "time": 37.619999999999955,
                    "velocity": 0.7874015748031497,
                    "duration": 0.060000000000002274
                },
                {
                    "name": "D3",
                    "midi": 50,
                    "time": 37.67999999999996,
                    "velocity": 0.7874015748031497,
                    "duration": 0.060000000000002274
                },
                {
                    "name": "C4",
                    "midi": 60,
                    "time": 37.73999999999996,
                    "velocity": 0.7874015748031497,
                    "duration": 0.060000000000002274
                },
                {
                    "name": "B3",
                    "midi": 59,
                    "time": 37.79999999999996,
                    "velocity": 0.7874015748031497,
                    "duration": 0.060000000000002274
                },
                {
                    "name": "A3",
                    "midi": 57,
                    "time": 37.859999999999964,
                    "velocity": 0.7874015748031497,
                    "duration": 0.060000000000002274
                },
                {
                    "name": "B3",
                    "midi": 59,
                    "time": 37.919999999999966,
                    "velocity": 0.7874015748031497,
                    "duration": 0.11999999999999744
                },
                {
                    "name": "G2",
                    "midi": 43,
                    "time": 38.039999999999964,
                    "velocity": 0.7874015748031497,
                    "duration": 0.11999999999999744
                },
                {
                    "name": "C2",
                    "midi": 36,
                    "time": 38.15999999999996,
                    "velocity": 0.7874015748031497,
                    "duration": 0.11999999999999744
                },
                {
                    "name": "B3",
                    "midi": 59,
                    "time": 38.27999999999996,
                    "velocity": 0.7874015748031497,
                    "duration": 0.060000000000002274
                },
                {
                    "name": "A3",
                    "midi": 57,
                    "time": 38.33999999999996,
                    "velocity": 0.7874015748031497,
                    "duration": 0.060000000000002274
                },
                {
                    "name": "C4",
                    "midi": 60,
                    "time": 38.39999999999996,
                    "velocity": 0.7874015748031497,
                    "duration": 0.060000000000002274
                },
                {
                    "name": "B3",
                    "midi": 59,
                    "time": 38.459999999999965,
                    "velocity": 0.7874015748031497,
                    "duration": 0.060000000000002274
                },
                {
                    "name": "A3",
                    "midi": 57,
                    "time": 38.51999999999997,
                    "velocity": 0.7874015748031497,
                    "duration": 0.060000000000002274
                },
                {
                    "name": "G3",
                    "midi": 55,
                    "time": 38.57999999999997,
                    "velocity": 0.7874015748031497,
                    "duration": 0.060000000000002274
                },
                {
                    "name": "D3",
                    "midi": 50,
                    "time": 38.63999999999997,
                    "velocity": 0.7874015748031497,
                    "duration": 0.11999999999999744
                },
                {
                    "name": "F#3",
                    "midi": 54,
                    "time": 38.75999999999997,
                    "velocity": 0.7874015748031497,
                    "duration": 0.11999999999999744
                },
                {
                    "name": "G2",
                    "midi": 43,
                    "time": 38.87999999999997,
                    "velocity": 0.7874015748031497,
                    "duration": 0.060000000000002274
                },
                {
                    "name": "A2",
                    "midi": 45,
                    "time": 38.93999999999997,
                    "velocity": 0.7874015748031497,
                    "duration": 0.060000000000002274
                },
                {
                    "name": "G2",
                    "midi": 43,
                    "time": 38.99999999999997,
                    "velocity": 0.7874015748031497,
                    "duration": 0.060000000000002274
                },
                {
                    "name": "B2",
                    "midi": 47,
                    "time": 39.059999999999974,
                    "velocity": 0.7874015748031497,
                    "duration": 0.060000000000002274
                },
                {
                    "name": "G2",
                    "midi": 43,
                    "time": 39.119999999999976,
                    "velocity": 0.7874015748031497,
                    "duration": 0.060000000000002274
                },
                {
                    "name": "A2",
                    "midi": 45,
                    "time": 39.17999999999998,
                    "velocity": 0.7874015748031497,
                    "duration": 0.060000000000002274
                },
                {
                    "name": "G2",
                    "midi": 43,
                    "time": 39.23999999999998,
                    "velocity": 0.7874015748031497,
                    "duration": 0.060000000000002274
                },
                {
                    "name": "C3",
                    "midi": 48,
                    "time": 39.29999999999998,
                    "velocity": 0.7874015748031497,
                    "duration": 0.060000000000002274
                },
                {
                    "name": "G2",
                    "midi": 43,
                    "time": 39.359999999999985,
                    "velocity": 0.7874015748031497,
                    "duration": 0.060000000000002274
                },
                {
                    "name": "A2",
                    "midi": 45,
                    "time": 39.41999999999999,
                    "velocity": 0.7874015748031497,
                    "duration": 0.060000000000002274
                },
                {
                    "name": "G2",
                    "midi": 43,
                    "time": 39.47999999999999,
                    "velocity": 0.7874015748031497,
                    "duration": 0.060000000000002274
                },
                {
                    "name": "D3",
                    "midi": 50,
                    "time": 39.53999999999999,
                    "velocity": 0.7874015748031497,
                    "duration": 0.060000000000002274
                },
                {
                    "name": "G2",
                    "midi": 43,
                    "time": 39.599999999999994,
                    "velocity": 0.7874015748031497,
                    "duration": 0.060000000000002274
                },
                {
                    "name": "A2",
                    "midi": 45,
                    "time": 39.66,
                    "velocity": 0.7874015748031497,
                    "duration": 0.060000000000002274
                },
                {
                    "name": "G2",
                    "midi": 43,
                    "time": 39.72,
                    "velocity": 0.7874015748031497,
                    "duration": 0.060000000000002274
                },
                {
                    "name": "E3",
                    "midi": 52,
                    "time": 39.78,
                    "velocity": 0.7874015748031497,
                    "duration": 0.060000000000002274
                },
                {
                    "name": "G2",
                    "midi": 43,
                    "time": 39.84,
                    "velocity": 0.7874015748031497,
                    "duration": 0.060000000000002274
                },
                {
                    "name": "A2",
                    "midi": 45,
                    "time": 39.900000000000006,
                    "velocity": 0.7874015748031497,
                    "duration": 0.060000000000002274
                },
                {
                    "name": "G2",
                    "midi": 43,
                    "time": 39.96000000000001,
                    "velocity": 0.7874015748031497,
                    "duration": 0.060000000000002274
                },
                {
                    "name": "F#3",
                    "midi": 54,
                    "time": 40.02000000000001,
                    "velocity": 0.7874015748031497,
                    "duration": 0.060000000000002274
                },
                {
                    "name": "G2",
                    "midi": 43,
                    "time": 40.08000000000001,
                    "velocity": 0.7874015748031497,
                    "duration": 0.060000000000002274
                },
                {
                    "name": "A2",
                    "midi": 45,
                    "time": 40.140000000000015,
                    "velocity": 0.7874015748031497,
                    "duration": 0.060000000000002274
                },
                {
                    "name": "G2",
                    "midi": 43,
                    "time": 40.20000000000002,
                    "velocity": 0.7874015748031497,
                    "duration": 0.060000000000002274
                },
                {
                    "name": "G3",
                    "midi": 55,
                    "time": 40.26000000000002,
                    "velocity": 0.7874015748031497,
                    "duration": 0.060000000000002274
                },
                {
                    "name": "C4",
                    "midi": 60,
                    "time": 40.32000000000002,
                    "velocity": 0.7874015748031497,
                    "duration": 0.060000000000002274
                },
                {
                    "name": "B3",
                    "midi": 59,
                    "time": 40.380000000000024,
                    "velocity": 0.7874015748031497,
                    "duration": 0.060000000000002274
                },
                {
                    "name": "A3",
                    "midi": 57,
                    "time": 40.440000000000026,
                    "velocity": 0.7874015748031497,
                    "duration": 0.060000000000002274
                },
                {
                    "name": "G3",
                    "midi": 55,
                    "time": 40.50000000000003,
                    "velocity": 0.7874015748031497,
                    "duration": 0.060000000000002274
                },
                {
                    "name": "F#3",
                    "midi": 54,
                    "time": 40.56000000000003,
                    "velocity": 0.7874015748031497,
                    "duration": 0.060000000000002274
                },
                {
                    "name": "E3",
                    "midi": 52,
                    "time": 40.62000000000003,
                    "velocity": 0.7874015748031497,
                    "duration": 0.060000000000002274
                },
                {
                    "name": "D3",
                    "midi": 50,
                    "time": 40.680000000000035,
                    "velocity": 0.7874015748031497,
                    "duration": 0.060000000000002274
                },
                {
                    "name": "C4",
                    "midi": 60,
                    "time": 40.74000000000004,
                    "velocity": 0.7874015748031497,
                    "duration": 0.060000000000002274
                },
                {
                    "name": "B3",
                    "midi": 59,
                    "time": 40.80000000000004,
                    "velocity": 0.7874015748031497,
                    "duration": 0.18000000000000682
                },
                {
                    "name": "A3",
                    "midi": 57,
                    "time": 40.98000000000005,
                    "velocity": 0.7874015748031497,
                    "duration": 0.060000000000002274
                },
                {
                    "name": "D4",
                    "midi": 62,
                    "time": 41.04000000000005,
                    "velocity": 0.7874015748031497,
                    "duration": 0.060000000000002274
                },
                {
                    "name": "C4",
                    "midi": 60,
                    "time": 41.10000000000005,
                    "velocity": 0.7874015748031497,
                    "duration": 0.060000000000002274
                },
                {
                    "name": "D4",
                    "midi": 62,
                    "time": 41.16000000000005,
                    "velocity": 0.7874015748031497,
                    "duration": 0.060000000000002274
                },
                {
                    "name": "B3",
                    "midi": 59,
                    "time": 41.220000000000056,
                    "velocity": 0.7874015748031497,
                    "duration": 0.060000000000002274
                },
                {
                    "name": "D4",
                    "midi": 62,
                    "time": 41.28000000000006,
                    "velocity": 0.7874015748031497,
                    "duration": 0.060000000000002274
                },
                {
                    "name": "C4",
                    "midi": 60,
                    "time": 41.34000000000006,
                    "velocity": 0.7874015748031497,
                    "duration": 0.060000000000002274
                },
                {
                    "name": "D4",
                    "midi": 62,
                    "time": 41.40000000000006,
                    "velocity": 0.7874015748031497,
                    "duration": 0.060000000000002274
                },
                {
                    "name": "B3",
                    "midi": 59,
                    "time": 41.460000000000065,
                    "velocity": 0.7874015748031497,
                    "duration": 0.060000000000002274
                },
                {
                    "name": "E3",
                    "midi": 52,
                    "time": 41.52000000000007,
                    "velocity": 0.7874015748031497,
                    "duration": 0.060000000000002274
                },
                {
                    "name": "D4",
                    "midi": 62,
                    "time": 41.58000000000007,
                    "velocity": 0.7874015748031497,
                    "duration": 0.060000000000002274
                },
                {
                    "name": "C4",
                    "midi": 60,
                    "time": 41.64000000000007,
                    "velocity": 0.7874015748031497,
                    "duration": 0.060000000000002274
                },
                {
                    "name": "B3",
                    "midi": 59,
                    "time": 41.700000000000074,
                    "velocity": 0.7874015748031497,
                    "duration": 0.060000000000002274
                },
                {
                    "name": "C4",
                    "midi": 60,
                    "time": 41.760000000000076,
                    "velocity": 0.7874015748031497,
                    "duration": 0.060000000000002274
                },
                {
                    "name": "B3",
                    "midi": 59,
                    "time": 41.82000000000008,
                    "velocity": 0.7874015748031497,
                    "duration": 0.060000000000002274
                },
                {
                    "name": "C4",
                    "midi": 60,
                    "time": 41.88000000000008,
                    "velocity": 0.7874015748031497,
                    "duration": 0.060000000000002274
                },
                {
                    "name": "A3",
                    "midi": 57,
                    "time": 41.94000000000008,
                    "velocity": 0.7874015748031497,
                    "duration": 0.060000000000002274
                },
                {
                    "name": "C4",
                    "midi": 60,
                    "time": 42.000000000000085,
                    "velocity": 0.7874015748031497,
                    "duration": 0.060000000000002274
                },
                {
                    "name": "B3",
                    "midi": 59,
                    "time": 42.06000000000009,
                    "velocity": 0.7874015748031497,
                    "duration": 0.060000000000002274
                },
                {
                    "name": "C4",
                    "midi": 60,
                    "time": 42.12000000000009,
                    "velocity": 0.7874015748031497,
                    "duration": 0.060000000000002274
                },
                {
                    "name": "A3",
                    "midi": 57,
                    "time": 42.18000000000009,
                    "velocity": 0.7874015748031497,
                    "duration": 0.060000000000002274
                },
                {
                    "name": "D3",
                    "midi": 50,
                    "time": 42.240000000000094,
                    "velocity": 0.7874015748031497,
                    "duration": 0.060000000000002274
                },
                {
                    "name": "C4",
                    "midi": 60,
                    "time": 42.3000000000001,
                    "velocity": 0.7874015748031497,
                    "duration": 0.060000000000002274
                },
                {
                    "name": "B3",
                    "midi": 59,
                    "time": 42.3600000000001,
                    "velocity": 0.7874015748031497,
                    "duration": 0.060000000000002274
                },
                {
                    "name": "A3",
                    "midi": 57,
                    "time": 42.4200000000001,
                    "velocity": 0.7874015748031497,
                    "duration": 0.060000000000002274
                },
                {
                    "name": "B3",
                    "midi": 59,
                    "time": 42.4800000000001,
                    "velocity": 0.7874015748031497,
                    "duration": 0.060000000000002274
                },
                {
                    "name": "A3",
                    "midi": 57,
                    "time": 42.540000000000106,
                    "velocity": 0.7874015748031497,
                    "duration": 0.060000000000002274
                },
                {
                    "name": "B3",
                    "midi": 59,
                    "time": 42.60000000000011,
                    "velocity": 0.7874015748031497,
                    "duration": 0.060000000000002274
                },
                {
                    "name": "G3",
                    "midi": 55,
                    "time": 42.66000000000011,
                    "velocity": 0.7874015748031497,
                    "duration": 0.060000000000002274
                },
                {
                    "name": "C3",
                    "midi": 48,
                    "time": 42.72000000000011,
                    "velocity": 0.7874015748031497,
                    "duration": 0.060000000000002274
                },
                {
                    "name": "B3",
                    "midi": 59,
                    "time": 42.780000000000115,
                    "velocity": 0.7874015748031497,
                    "duration": 0.060000000000002274
                },
                {
                    "name": "A3",
                    "midi": 57,
                    "time": 42.84000000000012,
                    "velocity": 0.7874015748031497,
                    "duration": 0.060000000000002274
                },
                {
                    "name": "G3",
                    "midi": 55,
                    "time": 42.90000000000012,
                    "velocity": 0.7874015748031497,
                    "duration": 0.060000000000002274
                },
                {
                    "name": "D3",
                    "midi": 50,
                    "time": 42.96000000000012,
                    "velocity": 0.7874015748031497,
                    "duration": 0.11999999999999744
                },
                {
                    "name": "F#3",
                    "midi": 54,
                    "time": 43.08000000000012,
                    "velocity": 0.7874015748031497,
                    "duration": 0.11999999999999744
                },
                {
                    "name": "G3",
                    "midi": 55,
                    "time": 43.20000000000012,
                    "velocity": 0.7874015748031497,
                    "duration": 0.4799999999999969
                },
                {
                    "name": "A3",
                    "midi": 57,
                    "time": 43.80000000000011,
                    "velocity": 0.7874015748031497,
                    "duration": 0.11999999999999744
                },
                {
                    "name": "A3",
                    "midi": 57,
                    "time": 43.92000000000011,
                    "velocity": 0.7874015748031497,
                    "duration": 0.11999999999999744
                },
                {
                    "name": "F#3",
                    "midi": 54,
                    "time": 44.040000000000106,
                    "velocity": 0.7874015748031497,
                    "duration": 0.11999999999999744
                },
                {
                    "name": "D3",
                    "midi": 50,
                    "time": 44.1600000000001,
                    "velocity": 0.7874015748031497,
                    "duration": 0.11999999999999744
                },
                {
                    "name": "E3",
                    "midi": 52,
                    "time": 44.2800000000001,
                    "velocity": 0.7874015748031497,
                    "duration": 0.060000000000002274
                },
                {
                    "name": "F#3",
                    "midi": 54,
                    "time": 44.3400000000001,
                    "velocity": 0.7874015748031497,
                    "duration": 0.060000000000002274
                },
                {
                    "name": "G3",
                    "midi": 55,
                    "time": 44.400000000000105,
                    "velocity": 0.7874015748031497,
                    "duration": 0.060000000000002274
                },
                {
                    "name": "F#3",
                    "midi": 54,
                    "time": 44.46000000000011,
                    "velocity": 0.7874015748031497,
                    "duration": 0.060000000000002274
                },
                {
                    "name": "E3",
                    "midi": 52,
                    "time": 44.52000000000011,
                    "velocity": 0.7874015748031497,
                    "duration": 0.060000000000002274
                },
                {
                    "name": "D3",
                    "midi": 50,
                    "time": 44.58000000000011,
                    "velocity": 0.7874015748031497,
                    "duration": 0.060000000000002274
                },
                {
                    "name": "D4",
                    "midi": 62,
                    "time": 44.640000000000114,
                    "velocity": 0.7874015748031497,
                    "duration": 0.11999999999999744
                },
                {
                    "name": "F#3",
                    "midi": 54,
                    "time": 44.76000000000011,
                    "velocity": 0.7874015748031497,
                    "duration": 0.11999999999999744
                },
                {
                    "name": "C3",
                    "midi": 48,
                    "time": 44.88000000000011,
                    "velocity": 0.7874015748031497,
                    "duration": 0.11999999999999744
                },
                {
                    "name": "B2",
                    "midi": 47,
                    "time": 45.00000000000011,
                    "velocity": 0.7874015748031497,
                    "duration": 0.060000000000002274
                },
                {
                    "name": "C3",
                    "midi": 48,
                    "time": 45.06000000000011,
                    "velocity": 0.7874015748031497,
                    "duration": 0.060000000000002274
                },
                {
                    "name": "D3",
                    "midi": 50,
                    "time": 45.12000000000011,
                    "velocity": 0.7874015748031497,
                    "duration": 0.060000000000002274
                },
                {
                    "name": "C3",
                    "midi": 48,
                    "time": 45.18000000000011,
                    "velocity": 0.7874015748031497,
                    "duration": 0.060000000000002274
                },
                {
                    "name": "B2",
                    "midi": 47,
                    "time": 45.240000000000116,
                    "velocity": 0.7874015748031497,
                    "duration": 0.060000000000002274
                },
                {
                    "name": "A2",
                    "midi": 45,
                    "time": 45.30000000000012,
                    "velocity": 0.7874015748031497,
                    "duration": 0.060000000000002274
                },
                {
                    "name": "B2",
                    "midi": 47,
                    "time": 45.36000000000012,
                    "velocity": 0.7874015748031497,
                    "duration": 0.060000000000002274
                },
                {
                    "name": "G3",
                    "midi": 55,
                    "time": 45.42000000000012,
                    "velocity": 0.7874015748031497,
                    "duration": 0.060000000000002274
                },
                {
                    "name": "A3",
                    "midi": 57,
                    "time": 45.480000000000125,
                    "velocity": 0.7874015748031497,
                    "duration": 0.060000000000002274
                },
                {
                    "name": "B3",
                    "midi": 59,
                    "time": 45.54000000000013,
                    "velocity": 0.7874015748031497,
                    "duration": 0.060000000000002274
                },
                {
                    "name": "C4",
                    "midi": 60,
                    "time": 45.60000000000013,
                    "velocity": 0.7874015748031497,
                    "duration": 0.060000000000002274
                },
                {
                    "name": "B3",
                    "midi": 59,
                    "time": 45.66000000000013,
                    "velocity": 0.7874015748031497,
                    "duration": 0.060000000000002274
                },
                {
                    "name": "A3",
                    "midi": 57,
                    "time": 45.720000000000134,
                    "velocity": 0.7874015748031497,
                    "duration": 0.060000000000002274
                },
                {
                    "name": "G3",
                    "midi": 55,
                    "time": 45.780000000000136,
                    "velocity": 0.7874015748031497,
                    "duration": 0.060000000000002274
                },
                {
                    "name": "F#3",
                    "midi": 54,
                    "time": 45.84000000000014,
                    "velocity": 0.7874015748031497,
                    "duration": 0.11999999999999744
                },
                {
                    "name": "D4",
                    "midi": 62,
                    "time": 45.960000000000136,
                    "velocity": 0.7874015748031497,
                    "duration": 0.11999999999999744
                },
                {
                    "name": "B3",
                    "midi": 59,
                    "time": 46.08000000000013,
                    "velocity": 0.7874015748031497,
                    "duration": 0.11999999999999744
                },
                {
                    "name": "G3",
                    "midi": 55,
                    "time": 46.20000000000013,
                    "velocity": 0.7874015748031497,
                    "duration": 0.11999999999999744
                },
                {
                    "name": "G2",
                    "midi": 43,
                    "time": 46.32000000000013,
                    "velocity": 0.7874015748031497,
                    "duration": 0.11999999999999744
                },
                {
                    "name": "B3",
                    "midi": 59,
                    "time": 46.440000000000126,
                    "velocity": 0.7874015748031497,
                    "duration": 0.060000000000002274
                },
                {
                    "name": "A3",
                    "midi": 57,
                    "time": 46.50000000000013,
                    "velocity": 0.7874015748031497,
                    "duration": 0.060000000000002274
                },
                {
                    "name": "C4",
                    "midi": 60,
                    "time": 46.56000000000013,
                    "velocity": 0.7874015748031497,
                    "duration": 0.060000000000002274
                },
                {
                    "name": "B3",
                    "midi": 59,
                    "time": 46.62000000000013,
                    "velocity": 0.7874015748031497,
                    "duration": 0.060000000000002274
                },
                {
                    "name": "A3",
                    "midi": 57,
                    "time": 46.680000000000135,
                    "velocity": 0.7874015748031497,
                    "duration": 0.060000000000002274
                },
                {
                    "name": "G3",
                    "midi": 55,
                    "time": 46.74000000000014,
                    "velocity": 0.7874015748031497,
                    "duration": 0.060000000000002274
                },
                {
                    "name": "A3",
                    "midi": 57,
                    "time": 46.80000000000014,
                    "velocity": 0.7874015748031497,
                    "duration": 0.11999999999999744
                },
                {
                    "name": "F#3",
                    "midi": 54,
                    "time": 46.92000000000014,
                    "velocity": 0.7874015748031497,
                    "duration": 0.11999999999999744
                },
                {
                    "name": "D#3",
                    "midi": 51,
                    "time": 47.040000000000134,
                    "velocity": 0.7874015748031497,
                    "duration": 0.060000000000002274
                },
                {
                    "name": "A3",
                    "midi": 57,
                    "time": 47.100000000000136,
                    "velocity": 0.7874015748031497,
                    "duration": 0.060000000000002274
                },
                {
                    "name": "B3",
                    "midi": 59,
                    "time": 47.16000000000014,
                    "velocity": 0.7874015748031497,
                    "duration": 0.060000000000002274
                },
                {
                    "name": "C4",
                    "midi": 60,
                    "time": 47.22000000000014,
                    "velocity": 0.7874015748031497,
                    "duration": 0.060000000000002274
                },
                {
                    "name": "B3",
                    "midi": 59,
                    "time": 47.28000000000014,
                    "velocity": 0.7874015748031497,
                    "duration": 0.060000000000002274
                },
                {
                    "name": "A3",
                    "midi": 57,
                    "time": 47.340000000000146,
                    "velocity": 0.7874015748031497,
                    "duration": 0.060000000000002274
                },
                {
                    "name": "G3",
                    "midi": 55,
                    "time": 47.40000000000015,
                    "velocity": 0.7874015748031497,
                    "duration": 0.060000000000002274
                },
                {
                    "name": "F#3",
                    "midi": 54,
                    "time": 47.46000000000015,
                    "velocity": 0.7874015748031497,
                    "duration": 0.060000000000002274
                },
                {
                    "name": "G3",
                    "midi": 55,
                    "time": 47.52000000000015,
                    "velocity": 0.7874015748031497,
                    "duration": 0.11999999999999744
                },
                {
                    "name": "E3",
                    "midi": 52,
                    "time": 47.64000000000015,
                    "velocity": 0.7874015748031497,
                    "duration": 0.11999999999999744
                },
                {
                    "name": "E2",
                    "midi": 40,
                    "time": 47.76000000000015,
                    "velocity": 0.7874015748031497,
                    "duration": 0.11999999999999744
                },
                {
                    "name": "G3",
                    "midi": 55,
                    "time": 47.880000000000145,
                    "velocity": 0.7874015748031497,
                    "duration": 0.060000000000002274
                },
                {
                    "name": "F#3",
                    "midi": 54,
                    "time": 47.94000000000015,
                    "velocity": 0.7874015748031497,
                    "duration": 0.060000000000002274
                },
                {
                    "name": "A3",
                    "midi": 57,
                    "time": 48.00000000000015,
                    "velocity": 0.7874015748031497,
                    "duration": 0.060000000000002274
                },
                {
                    "name": "G3",
                    "midi": 55,
                    "time": 48.06000000000015,
                    "velocity": 0.7874015748031497,
                    "duration": 0.060000000000002274
                },
                {
                    "name": "F#3",
                    "midi": 54,
                    "time": 48.120000000000154,
                    "velocity": 0.7874015748031497,
                    "duration": 0.060000000000002274
                },
                {
                    "name": "E3",
                    "midi": 52,
                    "time": 48.180000000000156,
                    "velocity": 0.7874015748031497,
                    "duration": 0.060000000000002274
                },
                {
                    "name": "F3",
                    "midi": 53,
                    "time": 48.24000000000016,
                    "velocity": 0.7874015748031497,
                    "duration": 0.060000000000002274
                },
                {
                    "name": "E3",
                    "midi": 52,
                    "time": 48.30000000000016,
                    "velocity": 0.7874015748031497,
                    "duration": 0.060000000000002274
                },
                {
                    "name": "F3",
                    "midi": 53,
                    "time": 48.36000000000016,
                    "velocity": 0.7874015748031497,
                    "duration": 0.060000000000002274
                },
                {
                    "name": "A3",
                    "midi": 57,
                    "time": 48.420000000000165,
                    "velocity": 0.7874015748031497,
                    "duration": 0.060000000000002274
                },
                {
                    "name": "F3",
                    "midi": 53,
                    "time": 48.48000000000017,
                    "velocity": 0.7874015748031497,
                    "duration": 0.060000000000002274
                },
                {
                    "name": "E3",
                    "midi": 52,
                    "time": 48.54000000000017,
                    "velocity": 0.7874015748031497,
                    "duration": 0.060000000000002274
                },
                {
                    "name": "F3",
                    "midi": 53,
                    "time": 48.60000000000017,
                    "velocity": 0.7874015748031497,
                    "duration": 0.060000000000002274
                },
                {
                    "name": "A3",
                    "midi": 57,
                    "time": 48.660000000000174,
                    "velocity": 0.7874015748031497,
                    "duration": 0.060000000000002274
                },
                {
                    "name": "C4",
                    "midi": 60,
                    "time": 48.72000000000018,
                    "velocity": 0.7874015748031497,
                    "duration": 0.060000000000002274
                },
                {
                    "name": "B3",
                    "midi": 59,
                    "time": 48.78000000000018,
                    "velocity": 0.7874015748031497,
                    "duration": 0.060000000000002274
                },
                {
                    "name": "C4",
                    "midi": 60,
                    "time": 48.84000000000018,
                    "velocity": 0.7874015748031497,
                    "duration": 0.060000000000002274
                },
                {
                    "name": "A3",
                    "midi": 57,
                    "time": 48.90000000000018,
                    "velocity": 0.7874015748031497,
                    "duration": 0.060000000000002274
                },
                {
                    "name": "D#4",
                    "midi": 63,
                    "time": 48.960000000000186,
                    "velocity": 0.7874015748031497,
                    "duration": 0.30000000000000426
                },
                {
                    "name": "C4",
                    "midi": 60,
                    "time": 49.26000000000019,
                    "velocity": 0.7874015748031497,
                    "duration": 0.060000000000002274
                },
                {
                    "name": "B3",
                    "midi": 59,
                    "time": 49.32000000000019,
                    "velocity": 0.7874015748031497,
                    "duration": 0.060000000000002274
                },
                {
                    "name": "A3",
                    "midi": 57,
                    "time": 49.380000000000194,
                    "velocity": 0.7874015748031497,
                    "duration": 0.060000000000002274
                },
                {
                    "name": "G3",
                    "midi": 55,
                    "time": 49.4400000000002,
                    "velocity": 0.7874015748031497,
                    "duration": 0.060000000000002274
                },
                {
                    "name": "F#3",
                    "midi": 54,
                    "time": 49.5000000000002,
                    "velocity": 0.7874015748031497,
                    "duration": 0.060000000000002274
                },
                {
                    "name": "A3",
                    "midi": 57,
                    "time": 49.5600000000002,
                    "velocity": 0.7874015748031497,
                    "duration": 0.060000000000002274
                },
                {
                    "name": "D#3",
                    "midi": 51,
                    "time": 49.6200000000002,
                    "velocity": 0.7874015748031497,
                    "duration": 0.060000000000002274
                },
                {
                    "name": "G2",
                    "midi": 43,
                    "time": 49.680000000000206,
                    "velocity": 0.7874015748031497,
                    "duration": 0.11999999999999744
                },
                {
                    "name": "B3",
                    "midi": 59,
                    "time": 49.8000000000002,
                    "velocity": 0.7874015748031497,
                    "duration": 0.11999999999999744
                },
                {
                    "name": "A3",
                    "midi": 57,
                    "time": 49.9200000000002,
                    "velocity": 0.7874015748031497,
                    "duration": 0.060000000000002274
                },
                {
                    "name": "G3",
                    "midi": 55,
                    "time": 49.9800000000002,
                    "velocity": 0.7874015748031497,
                    "duration": 0.060000000000002274
                },
                {
                    "name": "F#3",
                    "midi": 54,
                    "time": 50.040000000000205,
                    "velocity": 0.7874015748031497,
                    "duration": 0.060000000000002274
                },
                {
                    "name": "E3",
                    "midi": 52,
                    "time": 50.10000000000021,
                    "velocity": 0.7874015748031497,
                    "duration": 0.060000000000002274
                },
                {
                    "name": "B2",
                    "midi": 47,
                    "time": 50.16000000000021,
                    "velocity": 0.7874015748031497,
                    "duration": 0.11999999999999744
                },
                {
                    "name": "D#3",
                    "midi": 51,
                    "time": 50.28000000000021,
                    "velocity": 0.7874015748031497,
                    "duration": 0.11999999999999744
                },
                {
                    "name": "E2",
                    "midi": 40,
                    "time": 50.400000000000205,
                    "velocity": 0.7874015748031497,
                    "duration": 0.35999999999999943
                },
                {
                    "name": "E3",
                    "midi": 52,
                    "time": 50.760000000000204,
                    "velocity": 0.7874015748031497,
                    "duration": 0.060000000000002274
                },
                {
                    "name": "F#3",
                    "midi": 54,
                    "time": 50.820000000000206,
                    "velocity": 0.7874015748031497,
                    "duration": 0.060000000000002274
                },
                {
                    "name": "G3",
                    "midi": 55,
                    "time": 50.88000000000021,
                    "velocity": 0.7874015748031497,
                    "duration": 0.060000000000002274
                },
                {
                    "name": "A3",
                    "midi": 57,
                    "time": 50.94000000000021,
                    "velocity": 0.7874015748031497,
                    "duration": 0.060000000000002274
                },
                {
                    "name": "B3",
                    "midi": 59,
                    "time": 51.00000000000021,
                    "velocity": 0.7874015748031497,
                    "duration": 0.060000000000002274
                },
                {
                    "name": "C4",
                    "midi": 60,
                    "time": 51.060000000000215,
                    "velocity": 0.7874015748031497,
                    "duration": 0.060000000000002274
                },
                {
                    "name": "D4",
                    "midi": 62,
                    "time": 51.12000000000022,
                    "velocity": 0.7874015748031497,
                    "duration": 0.11999999999999744
                },
                {
                    "name": "F3",
                    "midi": 53,
                    "time": 51.240000000000215,
                    "velocity": 0.7874015748031497,
                    "duration": 0.11999999999999744
                },
                {
                    "name": "B2",
                    "midi": 47,
                    "time": 51.36000000000021,
                    "velocity": 0.7874015748031497,
                    "duration": 0.11999999999999744
                },
                {
                    "name": "E3",
                    "midi": 52,
                    "time": 51.48000000000021,
                    "velocity": 0.7874015748031497,
                    "duration": 0.060000000000002274
                },
                {
                    "name": "F3",
                    "midi": 53,
                    "time": 51.54000000000021,
                    "velocity": 0.7874015748031497,
                    "duration": 0.060000000000002274
                },
                {
                    "name": "G3",
                    "midi": 55,
                    "time": 51.600000000000215,
                    "velocity": 0.7874015748031497,
                    "duration": 0.060000000000002274
                },
                {
                    "name": "F3",
                    "midi": 53,
                    "time": 51.66000000000022,
                    "velocity": 0.7874015748031497,
                    "duration": 0.060000000000002274
                },
                {
                    "name": "E3",
                    "midi": 52,
                    "time": 51.72000000000022,
                    "velocity": 0.7874015748031497,
                    "duration": 0.060000000000002274
                },
                {
                    "name": "D3",
                    "midi": 50,
                    "time": 51.78000000000022,
                    "velocity": 0.7874015748031497,
                    "duration": 0.060000000000002274
                },
                {
                    "name": "E3",
                    "midi": 52,
                    "time": 51.840000000000224,
                    "velocity": 0.7874015748031497,
                    "duration": 0.11999999999999744
                },
                {
                    "name": "C3",
                    "midi": 48,
                    "time": 51.96000000000022,
                    "velocity": 0.7874015748031497,
                    "duration": 0.11999999999999744
                },
                {
                    "name": "C2",
                    "midi": 36,
                    "time": 52.08000000000022,
                    "velocity": 0.7874015748031497,
                    "duration": 0.11999999999999744
                },
                {
                    "name": "C3",
                    "midi": 48,
                    "time": 52.200000000000216,
                    "velocity": 0.7874015748031497,
                    "duration": 0.060000000000002274
                },
                {
                    "name": "D3",
                    "midi": 50,
                    "time": 52.26000000000022,
                    "velocity": 0.7874015748031497,
                    "duration": 0.060000000000002274
                },
                {
                    "name": "E3",
                    "midi": 52,
                    "time": 52.32000000000022,
                    "velocity": 0.7874015748031497,
                    "duration": 0.060000000000002274
                },
                {
                    "name": "F#3",
                    "midi": 54,
                    "time": 52.38000000000022,
                    "velocity": 0.7874015748031497,
                    "duration": 0.060000000000002274
                },
                {
                    "name": "G3",
                    "midi": 55,
                    "time": 52.440000000000225,
                    "velocity": 0.7874015748031497,
                    "duration": 0.060000000000002274
                },
                {
                    "name": "E3",
                    "midi": 52,
                    "time": 52.50000000000023,
                    "velocity": 0.7874015748031497,
                    "duration": 0.060000000000002274
                },
                {
                    "name": "C#3",
                    "midi": 49,
                    "time": 52.56000000000023,
                    "velocity": 0.7874015748031497,
                    "duration": 0.060000000000002274
                },
                {
                    "name": "G3",
                    "midi": 55,
                    "time": 52.62000000000023,
                    "velocity": 0.7874015748031497,
                    "duration": 0.060000000000002274
                },
                {
                    "name": "A3",
                    "midi": 57,
                    "time": 52.680000000000234,
                    "velocity": 0.7874015748031497,
                    "duration": 0.060000000000002274
                },
                {
                    "name": "G3",
                    "midi": 55,
                    "time": 52.74000000000024,
                    "velocity": 0.7874015748031497,
                    "duration": 0.060000000000002274
                },
                {
                    "name": "A3",
                    "midi": 57,
                    "time": 52.80000000000024,
                    "velocity": 0.7874015748031497,
                    "duration": 0.060000000000002274
                },
                {
                    "name": "G3",
                    "midi": 55,
                    "time": 52.86000000000024,
                    "velocity": 0.7874015748031497,
                    "duration": 0.060000000000002274
                },
                {
                    "name": "C#3",
                    "midi": 49,
                    "time": 52.92000000000024,
                    "velocity": 0.7874015748031497,
                    "duration": 0.060000000000002274
                },
                {
                    "name": "G3",
                    "midi": 55,
                    "time": 52.980000000000246,
                    "velocity": 0.7874015748031497,
                    "duration": 0.060000000000002274
                },
                {
                    "name": "C#3",
                    "midi": 49,
                    "time": 53.04000000000025,
                    "velocity": 0.7874015748031497,
                    "duration": 0.060000000000002274
                },
                {
                    "name": "G3",
                    "midi": 55,
                    "time": 53.10000000000025,
                    "velocity": 0.7874015748031497,
                    "duration": 0.060000000000002274
                },
                {
                    "name": "A3",
                    "midi": 57,
                    "time": 53.16000000000025,
                    "velocity": 0.7874015748031497,
                    "duration": 0.060000000000002274
                },
                {
                    "name": "G3",
                    "midi": 55,
                    "time": 53.220000000000255,
                    "velocity": 0.7874015748031497,
                    "duration": 0.060000000000002274
                },
                {
                    "name": "C3",
                    "midi": 48,
                    "time": 53.28000000000026,
                    "velocity": 0.7874015748031497,
                    "duration": 0.060000000000002274
                },
                {
                    "name": "F#3",
                    "midi": 54,
                    "time": 53.34000000000026,
                    "velocity": 0.7874015748031497,
                    "duration": 0.060000000000002274
                },
                {
                    "name": "A3",
                    "midi": 57,
                    "time": 53.40000000000026,
                    "velocity": 0.7874015748031497,
                    "duration": 0.060000000000002274
                },
                {
                    "name": "F#3",
                    "midi": 54,
                    "time": 53.460000000000264,
                    "velocity": 0.7874015748031497,
                    "duration": 0.060000000000002274
                },
                {
                    "name": "A3",
                    "midi": 57,
                    "time": 53.520000000000266,
                    "velocity": 0.7874015748031497,
                    "duration": 0.060000000000002274
                },
                {
                    "name": "F#3",
                    "midi": 54,
                    "time": 53.58000000000027,
                    "velocity": 0.7874015748031497,
                    "duration": 0.060000000000002274
                },
                {
                    "name": "C3",
                    "midi": 48,
                    "time": 53.64000000000027,
                    "velocity": 0.7874015748031497,
                    "duration": 0.060000000000002274
                },
                {
                    "name": "F#3",
                    "midi": 54,
                    "time": 53.70000000000027,
                    "velocity": 0.7874015748031497,
                    "duration": 0.060000000000002274
                },
                {
                    "name": "C3",
                    "midi": 48,
                    "time": 53.760000000000275,
                    "velocity": 0.7874015748031497,
                    "duration": 0.060000000000002274
                },
                {
                    "name": "F#3",
                    "midi": 54,
                    "time": 53.82000000000028,
                    "velocity": 0.7874015748031497,
                    "duration": 0.060000000000002274
                },
                {
                    "name": "A3",
                    "midi": 57,
                    "time": 53.88000000000028,
                    "velocity": 0.7874015748031497,
                    "duration": 0.060000000000002274
                },
                {
                    "name": "F#3",
                    "midi": 54,
                    "time": 53.94000000000028,
                    "velocity": 0.7874015748031497,
                    "duration": 0.060000000000002274
                },
                {
                    "name": "B2",
                    "midi": 47,
                    "time": 54.000000000000284,
                    "velocity": 0.7874015748031497,
                    "duration": 0.060000000000002274
                },
                {
                    "name": "D3",
                    "midi": 50,
                    "time": 54.06000000000029,
                    "velocity": 0.7874015748031497,
                    "duration": 0.060000000000002274
                },
                {
                    "name": "E3",
                    "midi": 52,
                    "time": 54.12000000000029,
                    "velocity": 0.7874015748031497,
                    "duration": 0.060000000000002274
                },
                {
                    "name": "F3",
                    "midi": 53,
                    "time": 54.18000000000029,
                    "velocity": 0.7874015748031497,
                    "duration": 0.060000000000002274
                },
                {
                    "name": "G2",
                    "midi": 43,
                    "time": 54.24000000000029,
                    "velocity": 0.7874015748031497,
                    "duration": 0.060000000000002274
                },
                {
                    "name": "F3",
                    "midi": 53,
                    "time": 54.300000000000296,
                    "velocity": 0.7874015748031497,
                    "duration": 0.060000000000002274
                },
                {
                    "name": "E3",
                    "midi": 52,
                    "time": 54.3600000000003,
                    "velocity": 0.7874015748031497,
                    "duration": 0.060000000000002274
                },
                {
                    "name": "D3",
                    "midi": 50,
                    "time": 54.4200000000003,
                    "velocity": 0.7874015748031497,
                    "duration": 0.060000000000002274
                },
                {
                    "name": "E3",
                    "midi": 52,
                    "time": 54.4800000000003,
                    "velocity": 0.7874015748031497,
                    "duration": 0.060000000000002274
                },
                {
                    "name": "D4",
                    "midi": 62,
                    "time": 54.540000000000305,
                    "velocity": 0.7874015748031497,
                    "duration": 0.060000000000002274
                },
                {
                    "name": "C4",
                    "midi": 60,
                    "time": 54.60000000000031,
                    "velocity": 0.7874015748031497,
                    "duration": 0.060000000000002274
                },
                {
                    "name": "B3",
                    "midi": 59,
                    "time": 54.66000000000031,
                    "velocity": 0.7874015748031497,
                    "duration": 0.060000000000002274
                },
                {
                    "name": "F#3",
                    "midi": 54,
                    "time": 54.72000000000031,
                    "velocity": 0.7874015748031497,
                    "duration": 0.060000000000002274
                },
                {
                    "name": "A3",
                    "midi": 57,
                    "time": 54.780000000000314,
                    "velocity": 0.7874015748031497,
                    "duration": 0.060000000000002274
                },
                {
                    "name": "B3",
                    "midi": 59,
                    "time": 54.840000000000316,
                    "velocity": 0.7874015748031497,
                    "duration": 0.060000000000002274
                },
                {
                    "name": "C4",
                    "midi": 60,
                    "time": 54.90000000000032,
                    "velocity": 0.7874015748031497,
                    "duration": 0.060000000000002274
                },
                {
                    "name": "D3",
                    "midi": 50,
                    "time": 54.96000000000032,
                    "velocity": 0.7874015748031497,
                    "duration": 0.060000000000002274
                },
                {
                    "name": "C4",
                    "midi": 60,
                    "time": 55.02000000000032,
                    "velocity": 0.7874015748031497,
                    "duration": 0.060000000000002274
                },
                {
                    "name": "B3",
                    "midi": 59,
                    "time": 55.080000000000325,
                    "velocity": 0.7874015748031497,
                    "duration": 0.060000000000002274
                },
                {
                    "name": "A3",
                    "midi": 57,
                    "time": 55.14000000000033,
                    "velocity": 0.7874015748031497,
                    "duration": 0.060000000000002274
                },
                {
                    "name": "B3",
                    "midi": 59,
                    "time": 55.20000000000033,
                    "velocity": 0.7874015748031497,
                    "duration": 0.11999999999999744
                },
                {
                    "name": "G2",
                    "midi": 43,
                    "time": 55.32000000000033,
                    "velocity": 0.7874015748031497,
                    "duration": 0.11999999999999744
                },
                {
                    "name": "C2",
                    "midi": 36,
                    "time": 55.440000000000325,
                    "velocity": 0.7874015748031497,
                    "duration": 0.11999999999999744
                },
                {
                    "name": "B3",
                    "midi": 59,
                    "time": 55.56000000000032,
                    "velocity": 0.7874015748031497,
                    "duration": 0.060000000000002274
                },
                {
                    "name": "A3",
                    "midi": 57,
                    "time": 55.620000000000324,
                    "velocity": 0.7874015748031497,
                    "duration": 0.060000000000002274
                },
                {
                    "name": "C4",
                    "midi": 60,
                    "time": 55.68000000000033,
                    "velocity": 0.7874015748031497,
                    "duration": 0.060000000000002274
                },
                {
                    "name": "B3",
                    "midi": 59,
                    "time": 55.74000000000033,
                    "velocity": 0.7874015748031497,
                    "duration": 0.060000000000002274
                },
                {
                    "name": "A3",
                    "midi": 57,
                    "time": 55.80000000000033,
                    "velocity": 0.7874015748031497,
                    "duration": 0.060000000000002274
                },
                {
                    "name": "G3",
                    "midi": 55,
                    "time": 55.86000000000033,
                    "velocity": 0.7874015748031497,
                    "duration": 0.060000000000002274
                },
                {
                    "name": "D3",
                    "midi": 50,
                    "time": 55.920000000000336,
                    "velocity": 0.7874015748031497,
                    "duration": 0.11999999999999744
                },
                {
                    "name": "F#3",
                    "midi": 54,
                    "time": 56.04000000000033,
                    "velocity": 0.7874015748031497,
                    "duration": 0.11999999999999744
                },
                {
                    "name": "G2",
                    "midi": 43,
                    "time": 56.16000000000033,
                    "velocity": 0.7874015748031497,
                    "duration": 0.060000000000002274
                },
                {
                    "name": "A2",
                    "midi": 45,
                    "time": 56.22000000000033,
                    "velocity": 0.7874015748031497,
                    "duration": 0.060000000000002274
                },
                {
                    "name": "G2",
                    "midi": 43,
                    "time": 56.280000000000335,
                    "velocity": 0.7874015748031497,
                    "duration": 0.060000000000002274
                },
                {
                    "name": "B2",
                    "midi": 47,
                    "time": 56.34000000000034,
                    "velocity": 0.7874015748031497,
                    "duration": 0.060000000000002274
                },
                {
                    "name": "G2",
                    "midi": 43,
                    "time": 56.40000000000034,
                    "velocity": 0.7874015748031497,
                    "duration": 0.060000000000002274
                },
                {
                    "name": "A2",
                    "midi": 45,
                    "time": 56.46000000000034,
                    "velocity": 0.7874015748031497,
                    "duration": 0.060000000000002274
                },
                {
                    "name": "G2",
                    "midi": 43,
                    "time": 56.520000000000344,
                    "velocity": 0.7874015748031497,
                    "duration": 0.060000000000002274
                },
                {
                    "name": "C3",
                    "midi": 48,
                    "time": 56.58000000000035,
                    "velocity": 0.7874015748031497,
                    "duration": 0.060000000000002274
                },
                {
                    "name": "G2",
                    "midi": 43,
                    "time": 56.64000000000035,
                    "velocity": 0.7874015748031497,
                    "duration": 0.060000000000002274
                },
                {
                    "name": "A2",
                    "midi": 45,
                    "time": 56.70000000000035,
                    "velocity": 0.7874015748031497,
                    "duration": 0.060000000000002274
                },
                {
                    "name": "G2",
                    "midi": 43,
                    "time": 56.76000000000035,
                    "velocity": 0.7874015748031497,
                    "duration": 0.060000000000002274
                },
                {
                    "name": "D3",
                    "midi": 50,
                    "time": 56.820000000000356,
                    "velocity": 0.7874015748031497,
                    "duration": 0.060000000000002274
                },
                {
                    "name": "G2",
                    "midi": 43,
                    "time": 56.88000000000036,
                    "velocity": 0.7874015748031497,
                    "duration": 0.060000000000002274
                },
                {
                    "name": "A2",
                    "midi": 45,
                    "time": 56.94000000000036,
                    "velocity": 0.7874015748031497,
                    "duration": 0.060000000000002274
                },
                {
                    "name": "G2",
                    "midi": 43,
                    "time": 57.00000000000036,
                    "velocity": 0.7874015748031497,
                    "duration": 0.060000000000002274
                },
                {
                    "name": "E3",
                    "midi": 52,
                    "time": 57.060000000000365,
                    "velocity": 0.7874015748031497,
                    "duration": 0.060000000000002274
                },
                {
                    "name": "G2",
                    "midi": 43,
                    "time": 57.12000000000037,
                    "velocity": 0.7874015748031497,
                    "duration": 0.060000000000002274
                },
                {
                    "name": "A2",
                    "midi": 45,
                    "time": 57.18000000000037,
                    "velocity": 0.7874015748031497,
                    "duration": 0.060000000000002274
                },
                {
                    "name": "G2",
                    "midi": 43,
                    "time": 57.24000000000037,
                    "velocity": 0.7874015748031497,
                    "duration": 0.060000000000002274
                },
                {
                    "name": "F#3",
                    "midi": 54,
                    "time": 57.300000000000374,
                    "velocity": 0.7874015748031497,
                    "duration": 0.060000000000002274
                },
                {
                    "name": "G2",
                    "midi": 43,
                    "time": 57.360000000000376,
                    "velocity": 0.7874015748031497,
                    "duration": 0.060000000000002274
                },
                {
                    "name": "A2",
                    "midi": 45,
                    "time": 57.42000000000038,
                    "velocity": 0.7874015748031497,
                    "duration": 0.060000000000002274
                },
                {
                    "name": "G2",
                    "midi": 43,
                    "time": 57.48000000000038,
                    "velocity": 0.7874015748031497,
                    "duration": 0.060000000000002274
                },
                {
                    "name": "G3",
                    "midi": 55,
                    "time": 57.54000000000038,
                    "velocity": 0.7874015748031497,
                    "duration": 0.060000000000002274
                },
                {
                    "name": "C4",
                    "midi": 60,
                    "time": 57.600000000000385,
                    "velocity": 0.7874015748031497,
                    "duration": 0.060000000000002274
                },
                {
                    "name": "B3",
                    "midi": 59,
                    "time": 57.66000000000039,
                    "velocity": 0.7874015748031497,
                    "duration": 0.060000000000002274
                },
                {
                    "name": "A3",
                    "midi": 57,
                    "time": 57.72000000000039,
                    "velocity": 0.7874015748031497,
                    "duration": 0.060000000000002274
                },
                {
                    "name": "G3",
                    "midi": 55,
                    "time": 57.78000000000039,
                    "velocity": 0.7874015748031497,
                    "duration": 0.060000000000002274
                },
                {
                    "name": "F#3",
                    "midi": 54,
                    "time": 57.840000000000394,
                    "velocity": 0.7874015748031497,
                    "duration": 0.060000000000002274
                },
                {
                    "name": "E3",
                    "midi": 52,
                    "time": 57.9000000000004,
                    "velocity": 0.7874015748031497,
                    "duration": 0.060000000000002274
                },
                {
                    "name": "D3",
                    "midi": 50,
                    "time": 57.9600000000004,
                    "velocity": 0.7874015748031497,
                    "duration": 0.060000000000002274
                },
                {
                    "name": "C4",
                    "midi": 60,
                    "time": 58.0200000000004,
                    "velocity": 0.7874015748031497,
                    "duration": 0.060000000000002274
                },
                {
                    "name": "B3",
                    "midi": 59,
                    "time": 58.0800000000004,
                    "velocity": 0.7874015748031497,
                    "duration": 0.18000000000000682
                },
                {
                    "name": "A3",
                    "midi": 57,
                    "time": 58.26000000000041,
                    "velocity": 0.7874015748031497,
                    "duration": 0.060000000000002274
                },
                {
                    "name": "D4",
                    "midi": 62,
                    "time": 58.32000000000041,
                    "velocity": 0.7874015748031497,
                    "duration": 0.060000000000002274
                },
                {
                    "name": "C4",
                    "midi": 60,
                    "time": 58.380000000000415,
                    "velocity": 0.7874015748031497,
                    "duration": 0.060000000000002274
                },
                {
                    "name": "D4",
                    "midi": 62,
                    "time": 58.44000000000042,
                    "velocity": 0.7874015748031497,
                    "duration": 0.060000000000002274
                },
                {
                    "name": "B3",
                    "midi": 59,
                    "time": 58.50000000000042,
                    "velocity": 0.7874015748031497,
                    "duration": 0.060000000000002274
                },
                {
                    "name": "D4",
                    "midi": 62,
                    "time": 58.56000000000042,
                    "velocity": 0.7874015748031497,
                    "duration": 0.060000000000002274
                },
                {
                    "name": "C4",
                    "midi": 60,
                    "time": 58.620000000000424,
                    "velocity": 0.7874015748031497,
                    "duration": 0.060000000000002274
                },
                {
                    "name": "D4",
                    "midi": 62,
                    "time": 58.680000000000426,
                    "velocity": 0.7874015748031497,
                    "duration": 0.060000000000002274
                },
                {
                    "name": "B3",
                    "midi": 59,
                    "time": 58.74000000000043,
                    "velocity": 0.7874015748031497,
                    "duration": 0.060000000000002274
                },
                {
                    "name": "E3",
                    "midi": 52,
                    "time": 58.80000000000043,
                    "velocity": 0.7874015748031497,
                    "duration": 0.060000000000002274
                },
                {
                    "name": "D4",
                    "midi": 62,
                    "time": 58.86000000000043,
                    "velocity": 0.7874015748031497,
                    "duration": 0.060000000000002274
                },
                {
                    "name": "C4",
                    "midi": 60,
                    "time": 58.920000000000435,
                    "velocity": 0.7874015748031497,
                    "duration": 0.060000000000002274
                },
                {
                    "name": "B3",
                    "midi": 59,
                    "time": 58.98000000000044,
                    "velocity": 0.7874015748031497,
                    "duration": 0.060000000000002274
                },
                {
                    "name": "C4",
                    "midi": 60,
                    "time": 59.04000000000044,
                    "velocity": 0.7874015748031497,
                    "duration": 0.060000000000002274
                },
                {
                    "name": "B3",
                    "midi": 59,
                    "time": 59.10000000000044,
                    "velocity": 0.7874015748031497,
                    "duration": 0.060000000000002274
                },
                {
                    "name": "C4",
                    "midi": 60,
                    "time": 59.160000000000444,
                    "velocity": 0.7874015748031497,
                    "duration": 0.060000000000002274
                },
                {
                    "name": "A3",
                    "midi": 57,
                    "time": 59.22000000000045,
                    "velocity": 0.7874015748031497,
                    "duration": 0.060000000000002274
                },
                {
                    "name": "C4",
                    "midi": 60,
                    "time": 59.28000000000045,
                    "velocity": 0.7874015748031497,
                    "duration": 0.060000000000002274
                },
                {
                    "name": "B3",
                    "midi": 59,
                    "time": 59.34000000000045,
                    "velocity": 0.7874015748031497,
                    "duration": 0.060000000000002274
                },
                {
                    "name": "C4",
                    "midi": 60,
                    "time": 59.40000000000045,
                    "velocity": 0.7874015748031497,
                    "duration": 0.060000000000002274
                },
                {
                    "name": "A3",
                    "midi": 57,
                    "time": 59.460000000000456,
                    "velocity": 0.7874015748031497,
                    "duration": 0.060000000000002274
                },
                {
                    "name": "D3",
                    "midi": 50,
                    "time": 59.52000000000046,
                    "velocity": 0.7874015748031497,
                    "duration": 0.060000000000002274
                },
                {
                    "name": "C4",
                    "midi": 60,
                    "time": 59.58000000000046,
                    "velocity": 0.7874015748031497,
                    "duration": 0.060000000000002274
                },
                {
                    "name": "B3",
                    "midi": 59,
                    "time": 59.64000000000046,
                    "velocity": 0.7874015748031497,
                    "duration": 0.060000000000002274
                },
                {
                    "name": "A3",
                    "midi": 57,
                    "time": 59.700000000000465,
                    "velocity": 0.7874015748031497,
                    "duration": 0.060000000000002274
                },
                {
                    "name": "B3",
                    "midi": 59,
                    "time": 59.76000000000047,
                    "velocity": 0.7874015748031497,
                    "duration": 0.060000000000002274
                },
                {
                    "name": "A3",
                    "midi": 57,
                    "time": 59.82000000000047,
                    "velocity": 0.7874015748031497,
                    "duration": 0.060000000000002274
                },
                {
                    "name": "B3",
                    "midi": 59,
                    "time": 59.88000000000047,
                    "velocity": 0.7874015748031497,
                    "duration": 0.060000000000002274
                },
                {
                    "name": "G3",
                    "midi": 55,
                    "time": 59.940000000000474,
                    "velocity": 0.7874015748031497,
                    "duration": 0.060000000000002274
                },
                {
                    "name": "C3",
                    "midi": 48,
                    "time": 60.000000000000476,
                    "velocity": 0.7874015748031497,
                    "duration": 0.060000000000002274
                },
                {
                    "name": "B3",
                    "midi": 59,
                    "time": 60.06000000000048,
                    "velocity": 0.7874015748031497,
                    "duration": 0.060000000000002274
                },
                {
                    "name": "A3",
                    "midi": 57,
                    "time": 60.12000000000048,
                    "velocity": 0.7874015748031497,
                    "duration": 0.060000000000002274
                },
                {
                    "name": "G3",
                    "midi": 55,
                    "time": 60.18000000000048,
                    "velocity": 0.7874015748031497,
                    "duration": 0.060000000000002274
                },
                {
                    "name": "D3",
                    "midi": 50,
                    "time": 60.240000000000485,
                    "velocity": 0.7874015748031497,
                    "duration": 0.11999999999999744
                },
                {
                    "name": "F#3",
                    "midi": 54,
                    "time": 60.36000000000048,
                    "velocity": 0.7874015748031497,
                    "duration": 0.11999999999999744
                },
                {
                    "name": "G3",
                    "midi": 55,
                    "time": 60.48000000000048,
                    "velocity": 0.7874015748031497,
                    "duration": 0.4799999999999969
                }
            ],
            "controlChanges": {
                "7": [
                    {
                        "number": 7,
                        "time": 0,
                        "value": 0.7874015748031497
                    }
                ],
                "10": [
                    {
                        "number": 10,
                        "time": 0,
                        "value": 0.5039370078740157
                    }
                ]
            },
            "id": 1,
            "name": "Solo Cello",
            "instrumentNumber": 42,
            "instrument": "cello",
            "instrumentFamily": "strings",
            "channelNumber": 0,
            "isPercussion": false
        },
        {
            "startTime": 5.76,
            "duration": 60.95999999999999,
            "length": 4,
            "notes": [
                {
                    "name": "G2",
                    "midi": 43,
                    "time": 5.76,
                    "velocity": 0.7874015748031497,
                    "duration": 0.3600000000000003
                },
                {
                    "name": "G2",
                    "midi": 43,
                    "time": 18.72,
                    "velocity": 0.7874015748031497,
                    "duration": 0.35999999999999943
                },
                {
                    "name": "G2",
                    "midi": 43,
                    "time": 43.199999999999996,
                    "velocity": 0.7874015748031497,
                    "duration": 0.4799999999999969
                },
                {
                    "name": "G2",
                    "midi": 43,
                    "time": 60.47999999999999,
                    "velocity": 0.7874015748031497,
                    "duration": 0.4799999999999969
                }
            ],
            "controlChanges": {
                "7": [
                    {
                        "number": 7,
                        "time": 0,
                        "value": 0.7874015748031497
                    }
                ],
                "10": [
                    {
                        "number": 10,
                        "time": 0,
                        "value": 0.5826771653543307
                    }
                ]
            },
            "id": 2,
            "name": "--------------------------------------",
            "instrumentNumber": 42,
            "instrument": "cello",
            "instrumentFamily": "strings",
            "channelNumber": 1,
            "isPercussion": false
        },
        {
            "startTime": 0,
            "duration": 0,
            "length": 0,
            "notes": [],
            "controlChanges": {},
            "id": 3,
            "name": "Johann Sebastian Bach  (1685-1750)"
        },
        {
            "startTime": 0,
            "duration": 0,
            "length": 0,
            "notes": [],
            "controlChanges": {},
            "id": 4,
            "name": "Six Suites for Solo Cello"
        },
        {
            "startTime": 0,
            "duration": 0,
            "length": 0,
            "notes": [],
            "controlChanges": {},
            "id": 5,
            "name": "--------------------------------------"
        },
        {
            "startTime": 0,
            "duration": 0,
            "length": 0,
            "notes": [],
            "controlChanges": {},
            "id": 6,
            "name": "Suite No. 1 in G major - BWV 1007"
        },
        {
            "startTime": 0,
            "duration": 0,
            "length": 0,
            "notes": [],
            "controlChanges": {},
            "id": 7,
            "name": "3rd Movement: Courante"
        },
        {
            "startTime": 0,
            "duration": 0,
            "length": 0,
            "notes": [],
            "controlChanges": {},
            "id": 8,
            "name": "--------------------------------------"
        },
        {
            "startTime": 0,
            "duration": 0,
            "length": 0,
            "notes": [],
            "controlChanges": {},
            "id": 9,
            "name": "Sequenced with Cakewalk Pro Audio by"
        },
        {
            "startTime": 0,
            "duration": 0,
            "length": 0,
            "notes": [],
            "controlChanges": {},
            "id": 10,
            "name": "David J. Grossman - dave@unpronounceable.com"
        },
        {
            "startTime": 0,
            "duration": 0,
            "length": 0,
            "notes": [],
            "controlChanges": {},
            "id": 11,
            "name": "This and other Bach MIDI files can be found at:"
        },
        {
            "startTime": 0,
            "duration": 0,
            "length": 0,
            "notes": [],
            "controlChanges": {},
            "id": 12,
            "name": "Dave's J.S. Bach Page"
        },
        {
            "startTime": 0,
            "duration": 0,
            "length": 0,
            "notes": [],
            "controlChanges": {},
            "id": 13,
            "name": "http://www.unpronounceable.com/bach"
        },
        {
            "startTime": 0,
            "duration": 0,
            "length": 0,
            "notes": [],
            "controlChanges": {},
            "id": 14,
            "name": "--------------------------------------"
        },
        {
            "startTime": 0,
            "duration": 0,
            "length": 0,
            "notes": [],
            "controlChanges": {},
            "id": 15,
            "name": "Original Filename: cs1-3cou.mid"
        },
        {
            "startTime": 0,
            "duration": 0,
            "length": 0,
            "notes": [],
            "controlChanges": {},
            "id": 16,
            "name": "Last Modified: February 22, 1997"
        }
    ]
}