{
    "header": {
        "PPQ": 480,
        "timeSignature": [
            4,
            4
        ],
        "bpm": 250,
        "name": "untitled"
    },
    "startTime": 0,
    "duration": 62.33000000000073,
    "tracks": [
        {
            "startTime": 0,
            "duration": 0,
            "length": 0,
            "notes": [],
            "controlChanges": {},
            "id": 0,
            "name": "untitled"
        },
        {
            "startTime": 0.8999999999999999,
            "duration": 62.33000000000073,
            "length": 914,
            "notes": [
                {
                    "name": "B3",
                    "midi": 59,
                    "time": 0.8999999999999999,
                    "velocity": 0.7874015748031497,
                    "duration": 0.06000000000000005
                },
                {
                    "name": "B3",
                    "midi": 59,
                    "time": 0.96,
                    "velocity": 0.7874015748031497,
                    "duration": 0.30000000000000004
                },
                {
                    "name": "A3",
                    "midi": 57,
                    "time": 1.26,
                    "velocity": 0.7874015748031497,
                    "duration": 0.06000000000000005
                },
                {
                    "name": "G3",
                    "midi": 55,
                    "time": 1.32,
                    "velocity": 0.7874015748031497,
                    "duration": 0.06000000000000005
                },
                {
                    "name": "F#3",
                    "midi": 54,
                    "time": 1.3800000000000001,
                    "velocity": 0.7874015748031497,
                    "duration": 0.06000000000000005
                },
                {
                    "name": "G3",
                    "midi": 55,
                    "time": 1.4400000000000002,
                    "velocity": 0.7874015748031497,
                    "duration": 0.06000000000000005
                },
                {
                    "name": "D3",
                    "midi": 50,
                    "time": 1.5000000000000002,
                    "velocity": 0.7874015748031497,
                    "duration": 0.06000000000000005
                },
                {
                    "name": "E3",
                    "midi": 52,
                    "time": 1.5600000000000003,
                    "velocity": 0.7874015748031497,
                    "duration": 0.06000000000000005
                },
                {
                    "name": "F#3",
                    "midi": 54,
                    "time": 1.6200000000000003,
                    "velocity": 0.7874015748031497,
                    "duration": 0.06000000000000005
                },
                {
                    "name": "G3",
                    "midi": 55,
                    "time": 1.6800000000000004,
                    "velocity": 0.7874015748031497,
                    "duration": 0.06000000000000005
                },
                {
                    "name": "A3",
                    "midi": 57,
                    "time": 1.7400000000000004,
                    "velocity": 0.7874015748031497,
                    "duration": 0.06000000000000005
                },
                {
                    "name": "B3",
                    "midi": 59,
                    "time": 1.8000000000000005,
                    "velocity": 0.7874015748031497,
                    "duration": 0.06000000000000005
                },
                {
                    "name": "C4",
                    "midi": 60,
                    "time": 1.8600000000000005,
                    "velocity": 0.7874015748031497,
                    "duration": 0.06000000000000005
                },
                {
                    "name": "D4",
                    "midi": 62,
                    "time": 1.9200000000000006,
                    "velocity": 0.7874015748031497,
                    "duration": 0.06000000000000005
                },
                {
                    "name": "B3",
                    "midi": 59,
                    "time": 1.9800000000000006,
                    "velocity": 0.7874015748031497,
                    "duration": 0.05999999999999983
                },
                {
                    "name": "G3",
                    "midi": 55,
                    "time": 2.0400000000000005,
                    "velocity": 0.7874015748031497,
                    "duration": 0.06000000000000005
                },
                {
                    "name": "F#3",
                    "midi": 54,
                    "time": 2.1000000000000005,
                    "velocity": 0.7874015748031497,
                    "duration": 0.06000000000000005
                },
                {
                    "name": "G3",
                    "midi": 55,
                    "time": 2.1600000000000006,
                    "velocity": 0.7874015748031497,
                    "duration": 0.06000000000000005
                },
                {
                    "name": "E3",
                    "midi": 52,
                    "time": 2.2200000000000006,
                    "velocity": 0.7874015748031497,
                    "duration": 0.06000000000000005
                },
                {
                    "name": "D3",
                    "midi": 50,
                    "time": 2.2800000000000007,
                    "velocity": 0.7874015748031497,
                    "duration": 0.06000000000000005
                },
                {
                    "name": "C3",
                    "midi": 48,
                    "time": 2.3400000000000007,
                    "velocity": 0.7874015748031497,
                    "duration": 0.06000000000000005
                },
                {
                    "name": "B2",
                    "midi": 47,
                    "time": 2.400000000000001,
                    "velocity": 0.7874015748031497,
                    "duration": 0.06000000000000005
                },
                {
                    "name": "C3",
                    "midi": 48,
                    "time": 2.460000000000001,
                    "velocity": 0.7874015748031497,
                    "duration": 0.06000000000000005
                },
                {
                    "name": "D3",
                    "midi": 50,
                    "time": 2.520000000000001,
                    "velocity": 0.7874015748031497,
                    "duration": 0.06000000000000005
                },
                {
                    "name": "E3",
                    "midi": 52,
                    "time": 2.580000000000001,
                    "velocity": 0.7874015748031497,
                    "duration": 0.06000000000000005
                },
                {
                    "name": "F#3",
                    "midi": 54,
                    "time": 2.640000000000001,
                    "velocity": 0.7874015748031497,
                    "duration": 0.06000000000000005
                },
                {
                    "name": "G3",
                    "midi": 55,
                    "time": 2.700000000000001,
                    "velocity": 0.7874015748031497,
                    "duration": 0.06000000000000005
                },
                {
                    "name": "A3",
                    "midi": 57,
                    "time": 2.760000000000001,
                    "velocity": 0.7874015748031497,
                    "duration": 0.06000000000000005
                },
                {
                    "name": "B3",
                    "midi": 59,
                    "time": 2.820000000000001,
                    "velocity": 0.7874015748031497,
                    "duration": 0.06000000000000005
                },
                {
                    "name": "C4",
                    "midi": 60,
                    "time": 2.8800000000000012,
                    "velocity": 0.7874015748031497,
                    "duration": 0.06000000000000005
                },
                {
                    "name": "A3",
                    "midi": 57,
                    "time": 2.9400000000000013,
                    "velocity": 0.7874015748031497,
                    "duration": 0.06000000000000005
                },
                {
                    "name": "G3",
                    "midi": 55,
                    "time": 3.0000000000000013,
                    "velocity": 0.7874015748031497,
                    "duration": 0.06000000000000005
                },
                {
                    "name": "F#3",
                    "midi": 54,
                    "time": 3.0600000000000014,
                    "velocity": 0.7874015748031497,
                    "duration": 0.06000000000000005
                },
                {
                    "name": "G3",
                    "midi": 55,
                    "time": 3.1200000000000014,
                    "velocity": 0.7874015748031497,
                    "duration": 0.06000000000000005
                },
                {
                    "name": "E3",
                    "midi": 52,
                    "time": 3.1800000000000015,
                    "velocity": 0.7874015748031497,
                    "duration": 0.06000000000000005
                },
                {
                    "name": "F#3",
                    "midi": 54,
                    "time": 3.2400000000000015,
                    "velocity": 0.7874015748031497,
                    "duration": 0.06000000000000005
                },
                {
                    "name": "G3",
                    "midi": 55,
                    "time": 3.3000000000000016,
                    "velocity": 0.7874015748031497,
                    "duration": 0.06000000000000005
                },
                {
                    "name": "A2",
                    "midi": 45,
                    "time": 3.3600000000000017,
                    "velocity": 0.7874015748031497,
                    "duration": 0.06000000000000005
                },
                {
                    "name": "D3",
                    "midi": 50,
                    "time": 3.4200000000000017,
                    "velocity": 0.7874015748031497,
                    "duration": 0.06000000000000005
                },
                {
                    "name": "F#3",
                    "midi": 54,
                    "time": 3.4800000000000018,
                    "velocity": 0.7874015748031497,
                    "duration": 0.06000000000000005
                },
                {
                    "name": "G3",
                    "midi": 55,
                    "time": 3.540000000000002,
                    "velocity": 0.7874015748031497,
                    "duration": 0.06000000000000005
                },
                {
                    "name": "A3",
                    "midi": 57,
                    "time": 3.600000000000002,
                    "velocity": 0.7874015748031497,
                    "duration": 0.06000000000000005
                },
                {
                    "name": "B3",
                    "midi": 59,
                    "time": 3.660000000000002,
                    "velocity": 0.7874015748031497,
                    "duration": 0.06000000000000005
                },
                {
                    "name": "C4",
                    "midi": 60,
                    "time": 3.720000000000002,
                    "velocity": 0.7874015748031497,
                    "duration": 0.06000000000000005
                },
                {
                    "name": "A3",
                    "midi": 57,
                    "time": 3.780000000000002,
                    "velocity": 0.7874015748031497,
                    "duration": 0.06000000000000005
                },
                {
                    "name": "B3",
                    "midi": 59,
                    "time": 3.840000000000002,
                    "velocity": 0.7874015748031497,
                    "duration": 0.06000000000000005
                },
                {
                    "name": "G3",
                    "midi": 55,
                    "time": 3.900000000000002,
                    "velocity": 0.7874015748031497,
                    "duration": 0.06000000000000005
                },
                {
                    "name": "G3",
                    "midi": 55,
                    "time": 3.960000000000002,
                    "velocity": 0.7874015748031497,
                    "duration": 0.06000000000000005
                },
                {
                    "name": "D3",
                    "midi": 50,
                    "time": 4.020000000000002,
                    "velocity": 0.7874015748031497,
                    "duration": 0.05999999999999961
                },
                {
                    "name": "D3",
                    "midi": 50,
                    "time": 4.080000000000002,
                    "velocity": 0.7874015748031497,
                    "duration": 0.05999999999999961
                },
                {
                    "name": "B2",
                    "midi": 47,
                    "time": 4.1400000000000015,
                    "velocity": 0.7874015748031497,
                    "duration": 0.05999999999999961
                },
                {
                    "name": "B2",
                    "midi": 47,
                    "time": 4.200000000000001,
                    "velocity": 0.7874015748031497,
                    "duration": 0.05999999999999961
                },
                {
                    "name": "G2",
                    "midi": 43,
                    "time": 4.260000000000001,
                    "velocity": 0.7874015748031497,
                    "duration": 0.05999999999999961
                },
                {
                    "name": "G2",
                    "midi": 43,
                    "time": 4.32,
                    "velocity": 0.7874015748031497,
                    "duration": 0.17999999999999972
                },
                {
                    "name": "B3",
                    "midi": 59,
                    "time": 4.5,
                    "velocity": 0.7874015748031497,
                    "duration": 0.05999999999999961
                },
                {
                    "name": "C4",
                    "midi": 60,
                    "time": 4.56,
                    "velocity": 0.7874015748031497,
                    "duration": 0.05999999999999961
                },
                {
                    "name": "B3",
                    "midi": 59,
                    "time": 4.619999999999999,
                    "velocity": 0.7874015748031497,
                    "duration": 0.05999999999999961
                },
                {
                    "name": "A3",
                    "midi": 57,
                    "time": 4.679999999999999,
                    "velocity": 0.7874015748031497,
                    "duration": 0.05999999999999961
                },
                {
                    "name": "G3",
                    "midi": 55,
                    "time": 4.739999999999998,
                    "velocity": 0.7874015748031497,
                    "duration": 0.05999999999999961
                },
                {
                    "name": "A3",
                    "midi": 57,
                    "time": 4.799999999999998,
                    "velocity": 0.7874015748031497,
                    "duration": 0.05999999999999961
                },
                {
                    "name": "B3",
                    "midi": 59,
                    "time": 4.859999999999998,
                    "velocity": 0.7874015748031497,
                    "duration": 0.05999999999999961
                },
                {
                    "name": "C4",
                    "midi": 60,
                    "time": 4.919999999999997,
                    "velocity": 0.7874015748031497,
                    "duration": 0.05999999999999961
                },
                {
                    "name": "A3",
                    "midi": 57,
                    "time": 4.979999999999997,
                    "velocity": 0.7874015748031497,
                    "duration": 0.05999999999999961
                },
                {
                    "name": "G3",
                    "midi": 55,
                    "time": 5.0399999999999965,
                    "velocity": 0.7874015748031497,
                    "duration": 0.05999999999999961
                },
                {
                    "name": "F#3",
                    "midi": 54,
                    "time": 5.099999999999996,
                    "velocity": 0.7874015748031497,
                    "duration": 0.05999999999999961
                },
                {
                    "name": "G3",
                    "midi": 55,
                    "time": 5.159999999999996,
                    "velocity": 0.7874015748031497,
                    "duration": 0.05999999999999961
                },
                {
                    "name": "A3",
                    "midi": 57,
                    "time": 5.219999999999995,
                    "velocity": 0.7874015748031497,
                    "duration": 0.05999999999999961
                },
                {
                    "name": "D#3",
                    "midi": 51,
                    "time": 5.279999999999995,
                    "velocity": 0.7874015748031497,
                    "duration": 0.17999999999999883
                },
                {
                    "name": "C4",
                    "midi": 60,
                    "time": 5.459999999999994,
                    "velocity": 0.7874015748031497,
                    "duration": 0.05999999999999961
                },
                {
                    "name": "B3",
                    "midi": 59,
                    "time": 5.519999999999993,
                    "velocity": 0.7874015748031497,
                    "duration": 0.05999999999999961
                },
                {
                    "name": "A3",
                    "midi": 57,
                    "time": 5.579999999999993,
                    "velocity": 0.7874015748031497,
                    "duration": 0.05999999999999961
                },
                {
                    "name": "G3",
                    "midi": 55,
                    "time": 5.639999999999993,
                    "velocity": 0.7874015748031497,
                    "duration": 0.05999999999999961
                },
                {
                    "name": "F#3",
                    "midi": 54,
                    "time": 5.699999999999992,
                    "velocity": 0.7874015748031497,
                    "duration": 0.05999999999999961
                },
                {
                    "name": "G3",
                    "midi": 55,
                    "time": 5.759999999999992,
                    "velocity": 0.7874015748031497,
                    "duration": 0.05999999999999961
                },
                {
                    "name": "E3",
                    "midi": 52,
                    "time": 5.819999999999991,
                    "velocity": 0.7874015748031497,
                    "duration": 0.05999999999999961
                },
                {
                    "name": "E3",
                    "midi": 52,
                    "time": 5.879999999999991,
                    "velocity": 0.7874015748031497,
                    "duration": 0.05999999999999961
                },
                {
                    "name": "B2",
                    "midi": 47,
                    "time": 5.939999999999991,
                    "velocity": 0.7874015748031497,
                    "duration": 0.05999999999999961
                },
                {
                    "name": "B2",
                    "midi": 47,
                    "time": 5.99999999999999,
                    "velocity": 0.7874015748031497,
                    "duration": 0.05999999999999961
                },
                {
                    "name": "G2",
                    "midi": 43,
                    "time": 6.05999999999999,
                    "velocity": 0.7874015748031497,
                    "duration": 0.05999999999999961
                },
                {
                    "name": "G2",
                    "midi": 43,
                    "time": 6.1199999999999894,
                    "velocity": 0.7874015748031497,
                    "duration": 0.05999999999999961
                },
                {
                    "name": "E2",
                    "midi": 40,
                    "time": 6.179999999999989,
                    "velocity": 0.7874015748031497,
                    "duration": 0.05999999999999961
                },
                {
                    "name": "E2",
                    "midi": 40,
                    "time": 6.239999999999989,
                    "velocity": 0.7874015748031497,
                    "duration": 0.17999999999999972
                },
                {
                    "name": "B2",
                    "midi": 47,
                    "time": 6.419999999999988,
                    "velocity": 0.7874015748031497,
                    "duration": 0.05999999999999961
                },
                {
                    "name": "E3",
                    "midi": 52,
                    "time": 6.479999999999988,
                    "velocity": 0.7874015748031497,
                    "duration": 0.05999999999999961
                },
                {
                    "name": "G3",
                    "midi": 55,
                    "time": 6.539999999999988,
                    "velocity": 0.7874015748031497,
                    "duration": 0.05999999999999961
                },
                {
                    "name": "F#3",
                    "midi": 54,
                    "time": 6.599999999999987,
                    "velocity": 0.7874015748031497,
                    "duration": 0.05999999999999961
                },
                {
                    "name": "A3",
                    "midi": 57,
                    "time": 6.659999999999987,
                    "velocity": 0.7874015748031497,
                    "duration": 0.05999999999999961
                },
                {
                    "name": "G3",
                    "midi": 55,
                    "time": 6.719999999999986,
                    "velocity": 0.7874015748031497,
                    "duration": 0.05999999999999961
                },
                {
                    "name": "F#3",
                    "midi": 54,
                    "time": 6.779999999999986,
                    "velocity": 0.7874015748031497,
                    "duration": 0.05999999999999961
                },
                {
                    "name": "E3",
                    "midi": 52,
                    "time": 6.839999999999986,
                    "velocity": 0.7874015748031497,
                    "duration": 0.05999999999999961
                },
                {
                    "name": "F#3",
                    "midi": 54,
                    "time": 6.899999999999985,
                    "velocity": 0.7874015748031497,
                    "duration": 0.05999999999999961
                },
                {
                    "name": "G3",
                    "midi": 55,
                    "time": 6.959999999999985,
                    "velocity": 0.7874015748031497,
                    "duration": 0.05999999999999961
                },
                {
                    "name": "C#4",
                    "midi": 61,
                    "time": 7.0199999999999845,
                    "velocity": 0.7874015748031497,
                    "duration": 0.05999999999999961
                },
                {
                    "name": "G3",
                    "midi": 55,
                    "time": 7.079999999999984,
                    "velocity": 0.7874015748031497,
                    "duration": 0.05999999999999961
                },
                {
                    "name": "F#3",
                    "midi": 54,
                    "time": 7.139999999999984,
                    "velocity": 0.7874015748031497,
                    "duration": 0.05999999999999961
                },
                {
                    "name": "G3",
                    "midi": 55,
                    "time": 7.199999999999983,
                    "velocity": 0.7874015748031497,
                    "duration": 0.05999999999999961
                },
                {
                    "name": "C#4",
                    "midi": 61,
                    "time": 7.259999999999983,
                    "velocity": 0.7874015748031497,
                    "duration": 0.05999999999999961
                },
                {
                    "name": "E3",
                    "midi": 52,
                    "time": 7.3199999999999825,
                    "velocity": 0.7874015748031497,
                    "duration": 0.05999999999999961
                },
                {
                    "name": "F#3",
                    "midi": 54,
                    "time": 7.379999999999982,
                    "velocity": 0.7874015748031497,
                    "duration": 0.05999999999999961
                },
                {
                    "name": "G3",
                    "midi": 55,
                    "time": 7.439999999999982,
                    "velocity": 0.7874015748031497,
                    "duration": 0.05999999999999961
                },
                {
                    "name": "E3",
                    "midi": 52,
                    "time": 7.499999999999981,
                    "velocity": 0.7874015748031497,
                    "duration": 0.05999999999999961
                },
                {
                    "name": "A2",
                    "midi": 45,
                    "time": 7.559999999999981,
                    "velocity": 0.7874015748031497,
                    "duration": 0.05999999999999961
                },
                {
                    "name": "G3",
                    "midi": 55,
                    "time": 7.619999999999981,
                    "velocity": 0.7874015748031497,
                    "duration": 0.05999999999999961
                },
                {
                    "name": "F#3",
                    "midi": 54,
                    "time": 7.67999999999998,
                    "velocity": 0.7874015748031497,
                    "duration": 0.11999999999999833
                },
                {
                    "name": "D3",
                    "midi": 50,
                    "time": 7.7999999999999785,
                    "velocity": 0.7874015748031497,
                    "duration": 0.05999999999999961
                },
                {
                    "name": "E3",
                    "midi": 52,
                    "time": 7.859999999999978,
                    "velocity": 0.7874015748031497,
                    "duration": 0.05999999999999961
                },
                {
                    "name": "F#3",
                    "midi": 54,
                    "time": 7.919999999999978,
                    "velocity": 0.7874015748031497,
                    "duration": 0.05999999999999961
                },
                {
                    "name": "D3",
                    "midi": 50,
                    "time": 7.979999999999977,
                    "velocity": 0.7874015748031497,
                    "duration": 0.0600000000000005
                },
                {
                    "name": "G3",
                    "midi": 55,
                    "time": 8.039999999999978,
                    "velocity": 0.7874015748031497,
                    "duration": 0.0600000000000005
                },
                {
                    "name": "E3",
                    "midi": 52,
                    "time": 8.099999999999978,
                    "velocity": 0.7874015748031497,
                    "duration": 0.0600000000000005
                },
                {
                    "name": "F#3",
                    "midi": 54,
                    "time": 8.159999999999979,
                    "velocity": 0.7874015748031497,
                    "duration": 0.0600000000000005
                },
                {
                    "name": "D3",
                    "midi": 50,
                    "time": 8.21999999999998,
                    "velocity": 0.7874015748031497,
                    "duration": 0.0600000000000005
                },
                {
                    "name": "F#3",
                    "midi": 54,
                    "time": 8.27999999999998,
                    "velocity": 0.7874015748031497,
                    "duration": 0.0600000000000005
                },
                {
                    "name": "G3",
                    "midi": 55,
                    "time": 8.33999999999998,
                    "velocity": 0.7874015748031497,
                    "duration": 0.0600000000000005
                },
                {
                    "name": "A3",
                    "midi": 57,
                    "time": 8.39999999999998,
                    "velocity": 0.7874015748031497,
                    "duration": 0.0600000000000005
                },
                {
                    "name": "B3",
                    "midi": 59,
                    "time": 8.459999999999981,
                    "velocity": 0.7874015748031497,
                    "duration": 0.0600000000000005
                },
                {
                    "name": "C4",
                    "midi": 60,
                    "time": 8.519999999999982,
                    "velocity": 0.7874015748031497,
                    "duration": 0.0600000000000005
                },
                {
                    "name": "A3",
                    "midi": 57,
                    "time": 8.579999999999982,
                    "velocity": 0.7874015748031497,
                    "duration": 0.0600000000000005
                },
                {
                    "name": "B3",
                    "midi": 59,
                    "time": 8.639999999999983,
                    "velocity": 0.7874015748031497,
                    "duration": 0.0600000000000005
                },
                {
                    "name": "D3",
                    "midi": 50,
                    "time": 8.699999999999983,
                    "velocity": 0.7874015748031497,
                    "duration": 0.0600000000000005
                },
                {
                    "name": "G2",
                    "midi": 43,
                    "time": 8.759999999999984,
                    "velocity": 0.7874015748031497,
                    "duration": 0.0600000000000005
                },
                {
                    "name": "D3",
                    "midi": 50,
                    "time": 8.819999999999984,
                    "velocity": 0.7874015748031497,
                    "duration": 0.0600000000000005
                },
                {
                    "name": "B3",
                    "midi": 59,
                    "time": 8.879999999999985,
                    "velocity": 0.7874015748031497,
                    "duration": 0.0600000000000005
                },
                {
                    "name": "G3",
                    "midi": 55,
                    "time": 8.939999999999985,
                    "velocity": 0.7874015748031497,
                    "duration": 0.0600000000000005
                },
                {
                    "name": "A3",
                    "midi": 57,
                    "time": 8.999999999999986,
                    "velocity": 0.7874015748031497,
                    "duration": 0.0600000000000005
                },
                {
                    "name": "F#3",
                    "midi": 54,
                    "time": 9.059999999999986,
                    "velocity": 0.7874015748031497,
                    "duration": 0.0600000000000005
                },
                {
                    "name": "G3",
                    "midi": 55,
                    "time": 9.119999999999987,
                    "velocity": 0.7874015748031497,
                    "duration": 0.0600000000000005
                },
                {
                    "name": "E3",
                    "midi": 52,
                    "time": 9.179999999999987,
                    "velocity": 0.7874015748031497,
                    "duration": 0.0600000000000005
                },
                {
                    "name": "G3",
                    "midi": 55,
                    "time": 9.239999999999988,
                    "velocity": 0.7874015748031497,
                    "duration": 0.0600000000000005
                },
                {
                    "name": "A3",
                    "midi": 57,
                    "time": 9.299999999999988,
                    "velocity": 0.7874015748031497,
                    "duration": 0.0600000000000005
                },
                {
                    "name": "B3",
                    "midi": 59,
                    "time": 9.359999999999989,
                    "velocity": 0.7874015748031497,
                    "duration": 0.0600000000000005
                },
                {
                    "name": "C#4",
                    "midi": 61,
                    "time": 9.41999999999999,
                    "velocity": 0.7874015748031497,
                    "duration": 0.0600000000000005
                },
                {
                    "name": "D4",
                    "midi": 62,
                    "time": 9.47999999999999,
                    "velocity": 0.7874015748031497,
                    "duration": 0.0600000000000005
                },
                {
                    "name": "B3",
                    "midi": 59,
                    "time": 9.53999999999999,
                    "velocity": 0.7874015748031497,
                    "duration": 0.0600000000000005
                },
                {
                    "name": "C#4",
                    "midi": 61,
                    "time": 9.59999999999999,
                    "velocity": 0.7874015748031497,
                    "duration": 0.0600000000000005
                },
                {
                    "name": "E3",
                    "midi": 52,
                    "time": 9.659999999999991,
                    "velocity": 0.7874015748031497,
                    "duration": 0.0600000000000005
                },
                {
                    "name": "G2",
                    "midi": 43,
                    "time": 9.719999999999992,
                    "velocity": 0.7874015748031497,
                    "duration": 0.0600000000000005
                },
                {
                    "name": "E3",
                    "midi": 52,
                    "time": 9.779999999999992,
                    "velocity": 0.7874015748031497,
                    "duration": 0.0600000000000005
                },
                {
                    "name": "C#4",
                    "midi": 61,
                    "time": 9.839999999999993,
                    "velocity": 0.7874015748031497,
                    "duration": 0.0600000000000005
                },
                {
                    "name": "A3",
                    "midi": 57,
                    "time": 9.899999999999993,
                    "velocity": 0.7874015748031497,
                    "duration": 0.0600000000000005
                },
                {
                    "name": "B3",
                    "midi": 59,
                    "time": 9.959999999999994,
                    "velocity": 0.7874015748031497,
                    "duration": 0.0600000000000005
                },
                {
                    "name": "D4",
                    "midi": 62,
                    "time": 10.019999999999994,
                    "velocity": 0.7874015748031497,
                    "duration": 0.0600000000000005
                },
                {
                    "name": "C#4",
                    "midi": 61,
                    "time": 10.079999999999995,
                    "velocity": 0.7874015748031497,
                    "duration": 0.0600000000000005
                },
                {
                    "name": "A3",
                    "midi": 57,
                    "time": 10.139999999999995,
                    "velocity": 0.7874015748031497,
                    "duration": 0.0600000000000005
                },
                {
                    "name": "D4",
                    "midi": 62,
                    "time": 10.199999999999996,
                    "velocity": 0.7874015748031497,
                    "duration": 0.0600000000000005
                },
                {
                    "name": "B3",
                    "midi": 59,
                    "time": 10.259999999999996,
                    "velocity": 0.7874015748031497,
                    "duration": 0.0600000000000005
                },
                {
                    "name": "C#4",
                    "midi": 61,
                    "time": 10.319999999999997,
                    "velocity": 0.7874015748031497,
                    "duration": 0.0600000000000005
                },
                {
                    "name": "A3",
                    "midi": 57,
                    "time": 10.379999999999997,
                    "velocity": 0.7874015748031497,
                    "duration": 0.0600000000000005
                },
                {
                    "name": "E4",
                    "midi": 64,
                    "time": 10.439999999999998,
                    "velocity": 0.7874015748031497,
                    "duration": 0.0600000000000005
                },
                {
                    "name": "G3",
                    "midi": 55,
                    "time": 10.499999999999998,
                    "velocity": 0.7874015748031497,
                    "duration": 0.0600000000000005
                },
                {
                    "name": "F#3",
                    "midi": 54,
                    "time": 10.559999999999999,
                    "velocity": 0.7874015748031497,
                    "duration": 0.17999999999999794
                },
                {
                    "name": "D4",
                    "midi": 62,
                    "time": 10.739999999999997,
                    "velocity": 0.7874015748031497,
                    "duration": 0.0600000000000005
                },
                {
                    "name": "A3",
                    "midi": 57,
                    "time": 10.799999999999997,
                    "velocity": 0.7874015748031497,
                    "duration": 0.0600000000000005
                },
                {
                    "name": "G3",
                    "midi": 55,
                    "time": 10.859999999999998,
                    "velocity": 0.7874015748031497,
                    "duration": 0.0600000000000005
                },
                {
                    "name": "F#3",
                    "midi": 54,
                    "time": 10.919999999999998,
                    "velocity": 0.7874015748031497,
                    "duration": 0.0600000000000005
                },
                {
                    "name": "E3",
                    "midi": 52,
                    "time": 10.979999999999999,
                    "velocity": 0.7874015748031497,
                    "duration": 0.0600000000000005
                },
                {
                    "name": "D3",
                    "midi": 50,
                    "time": 11.04,
                    "velocity": 0.7874015748031497,
                    "duration": 0.0600000000000005
                },
                {
                    "name": "A3",
                    "midi": 57,
                    "time": 11.1,
                    "velocity": 0.7874015748031497,
                    "duration": 0.0600000000000005
                },
                {
                    "name": "G3",
                    "midi": 55,
                    "time": 11.16,
                    "velocity": 0.7874015748031497,
                    "duration": 0.0600000000000005
                },
                {
                    "name": "E3",
                    "midi": 52,
                    "time": 11.22,
                    "velocity": 0.7874015748031497,
                    "duration": 0.0600000000000005
                },
                {
                    "name": "F#3",
                    "midi": 54,
                    "time": 11.280000000000001,
                    "velocity": 0.7874015748031497,
                    "duration": 0.0600000000000005
                },
                {
                    "name": "D3",
                    "midi": 50,
                    "time": 11.340000000000002,
                    "velocity": 0.7874015748031497,
                    "duration": 0.0600000000000005
                },
                {
                    "name": "A3",
                    "midi": 57,
                    "time": 11.400000000000002,
                    "velocity": 0.7874015748031497,
                    "duration": 0.0600000000000005
                },
                {
                    "name": "C3",
                    "midi": 48,
                    "time": 11.460000000000003,
                    "velocity": 0.7874015748031497,
                    "duration": 0.0600000000000005
                },
                {
                    "name": "B2",
                    "midi": 47,
                    "time": 11.520000000000003,
                    "velocity": 0.7874015748031497,
                    "duration": 0.17999999999999972
                },
                {
                    "name": "G3",
                    "midi": 55,
                    "time": 11.700000000000003,
                    "velocity": 0.7874015748031497,
                    "duration": 0.0600000000000005
                },
                {
                    "name": "D3",
                    "midi": 50,
                    "time": 11.760000000000003,
                    "velocity": 0.7874015748031497,
                    "duration": 0.0600000000000005
                },
                {
                    "name": "C3",
                    "midi": 48,
                    "time": 11.820000000000004,
                    "velocity": 0.7874015748031497,
                    "duration": 0.0600000000000005
                },
                {
                    "name": "B2",
                    "midi": 47,
                    "time": 11.880000000000004,
                    "velocity": 0.7874015748031497,
                    "duration": 0.0600000000000005
                },
                {
                    "name": "A2",
                    "midi": 45,
                    "time": 11.940000000000005,
                    "velocity": 0.7874015748031497,
                    "duration": 0.0600000000000005
                },
                {
                    "name": "G2",
                    "midi": 43,
                    "time": 12.000000000000005,
                    "velocity": 0.7874015748031497,
                    "duration": 0.0600000000000005
                },
                {
                    "name": "D3",
                    "midi": 50,
                    "time": 12.060000000000006,
                    "velocity": 0.7874015748031497,
                    "duration": 0.0600000000000005
                },
                {
                    "name": "C3",
                    "midi": 48,
                    "time": 12.120000000000006,
                    "velocity": 0.7874015748031497,
                    "duration": 0.0600000000000005
                },
                {
                    "name": "A2",
                    "midi": 45,
                    "time": 12.180000000000007,
                    "velocity": 0.7874015748031497,
                    "duration": 0.0600000000000005
                },
                {
                    "name": "B2",
                    "midi": 47,
                    "time": 12.240000000000007,
                    "velocity": 0.7874015748031497,
                    "duration": 0.0600000000000005
                },
                {
                    "name": "G2",
                    "midi": 43,
                    "time": 12.300000000000008,
                    "velocity": 0.7874015748031497,
                    "duration": 0.0600000000000005
                },
                {
                    "name": "D3",
                    "midi": 50,
                    "time": 12.360000000000008,
                    "velocity": 0.7874015748031497,
                    "duration": 0.0600000000000005
                },
                {
                    "name": "F#2",
                    "midi": 42,
                    "time": 12.420000000000009,
                    "velocity": 0.7874015748031497,
                    "duration": 0.0600000000000005
                },
                {
                    "name": "E2",
                    "midi": 40,
                    "time": 12.48000000000001,
                    "velocity": 0.7874015748031497,
                    "duration": 0.0600000000000005
                },
                {
                    "name": "G2",
                    "midi": 43,
                    "time": 12.54000000000001,
                    "velocity": 0.7874015748031497,
                    "duration": 0.0600000000000005
                },
                {
                    "name": "A2",
                    "midi": 45,
                    "time": 12.60000000000001,
                    "velocity": 0.7874015748031497,
                    "duration": 0.0600000000000005
                },
                {
                    "name": "B2",
                    "midi": 47,
                    "time": 12.66000000000001,
                    "velocity": 0.7874015748031497,
                    "duration": 0.0600000000000005
                },
                {
                    "name": "C#3",
                    "midi": 49,
                    "time": 12.720000000000011,
                    "velocity": 0.7874015748031497,
                    "duration": 0.0600000000000005
                },
                {
                    "name": "D3",
                    "midi": 50,
                    "time": 12.780000000000012,
                    "velocity": 0.7874015748031497,
                    "duration": 0.0600000000000005
                },
                {
                    "name": "E3",
                    "midi": 52,
                    "time": 12.840000000000012,
                    "velocity": 0.7874015748031497,
                    "duration": 0.0600000000000005
                },
                {
                    "name": "F#3",
                    "midi": 54,
                    "time": 12.900000000000013,
                    "velocity": 0.7874015748031497,
                    "duration": 0.0600000000000005
                },
                {
                    "name": "G3",
                    "midi": 55,
                    "time": 12.960000000000013,
                    "velocity": 0.7874015748031497,
                    "duration": 0.0600000000000005
                },
                {
                    "name": "A3",
                    "midi": 57,
                    "time": 13.020000000000014,
                    "velocity": 0.7874015748031497,
                    "duration": 0.0600000000000005
                },
                {
                    "name": "C#4",
                    "midi": 61,
                    "time": 13.080000000000014,
                    "velocity": 0.7874015748031497,
                    "duration": 0.0600000000000005
                },
                {
                    "name": "D4",
                    "midi": 62,
                    "time": 13.140000000000015,
                    "velocity": 0.7874015748031497,
                    "duration": 0.0600000000000005
                },
                {
                    "name": "E4",
                    "midi": 64,
                    "time": 13.200000000000015,
                    "velocity": 0.7874015748031497,
                    "duration": 0.0600000000000005
                },
                {
                    "name": "A3",
                    "midi": 57,
                    "time": 13.260000000000016,
                    "velocity": 0.7874015748031497,
                    "duration": 0.0600000000000005
                },
                {
                    "name": "G4",
                    "midi": 67,
                    "time": 13.320000000000016,
                    "velocity": 0.7874015748031497,
                    "duration": 0.11999999999999922
                },
                {
                    "name": "D3",
                    "midi": 50,
                    "time": 13.440000000000015,
                    "velocity": 0.7874015748031497,
                    "duration": 0.0600000000000005
                },
                {
                    "name": "G4",
                    "midi": 67,
                    "time": 13.500000000000016,
                    "velocity": 0.7874015748031497,
                    "duration": 0.0600000000000005
                },
                {
                    "name": "F#4",
                    "midi": 66,
                    "time": 13.560000000000016,
                    "velocity": 0.7874015748031497,
                    "duration": 0.0600000000000005
                },
                {
                    "name": "E4",
                    "midi": 64,
                    "time": 13.620000000000017,
                    "velocity": 0.7874015748031497,
                    "duration": 0.0600000000000005
                },
                {
                    "name": "F#4",
                    "midi": 66,
                    "time": 13.680000000000017,
                    "velocity": 0.7874015748031497,
                    "duration": 0.0600000000000005
                },
                {
                    "name": "D4",
                    "midi": 62,
                    "time": 13.740000000000018,
                    "velocity": 0.7874015748031497,
                    "duration": 0.0600000000000005
                },
                {
                    "name": "A3",
                    "midi": 57,
                    "time": 13.800000000000018,
                    "velocity": 0.7874015748031497,
                    "duration": 0.0600000000000005
                },
                {
                    "name": "D4",
                    "midi": 62,
                    "time": 13.860000000000019,
                    "velocity": 0.7874015748031497,
                    "duration": 0.0600000000000005
                },
                {
                    "name": "D3",
                    "midi": 50,
                    "time": 13.92000000000002,
                    "velocity": 0.7874015748031497,
                    "duration": 0.0600000000000005
                },
                {
                    "name": "F#3",
                    "midi": 54,
                    "time": 13.98000000000002,
                    "velocity": 0.7874015748031497,
                    "duration": 0.0600000000000005
                },
                {
                    "name": "A3",
                    "midi": 57,
                    "time": 14.04000000000002,
                    "velocity": 0.7874015748031497,
                    "duration": 0.0600000000000005
                },
                {
                    "name": "C4",
                    "midi": 60,
                    "time": 14.100000000000021,
                    "velocity": 0.7874015748031497,
                    "duration": 0.0600000000000005
                },
                {
                    "name": "B3",
                    "midi": 59,
                    "time": 14.160000000000021,
                    "velocity": 0.7874015748031497,
                    "duration": 0.17999999999999616
                },
                {
                    "name": "A3",
                    "midi": 57,
                    "time": 14.340000000000018,
                    "velocity": 0.7874015748031497,
                    "duration": 0.0600000000000005
                },
                {
                    "name": "B3",
                    "midi": 59,
                    "time": 14.400000000000018,
                    "velocity": 0.7874015748031497,
                    "duration": 0.17999999999999972
                },
                {
                    "name": "A3",
                    "midi": 57,
                    "time": 14.580000000000018,
                    "velocity": 0.7874015748031497,
                    "duration": 0.0600000000000005
                },
                {
                    "name": "G3",
                    "midi": 55,
                    "time": 14.640000000000018,
                    "velocity": 0.7874015748031497,
                    "duration": 0.0600000000000005
                },
                {
                    "name": "F#3",
                    "midi": 54,
                    "time": 14.700000000000019,
                    "velocity": 0.7874015748031497,
                    "duration": 0.0600000000000005
                },
                {
                    "name": "E3",
                    "midi": 52,
                    "time": 14.76000000000002,
                    "velocity": 0.7874015748031497,
                    "duration": 0.0600000000000005
                },
                {
                    "name": "D4",
                    "midi": 62,
                    "time": 14.82000000000002,
                    "velocity": 0.7874015748031497,
                    "duration": 0.0600000000000005
                },
                {
                    "name": "C#4",
                    "midi": 61,
                    "time": 14.88000000000002,
                    "velocity": 0.7874015748031497,
                    "duration": 0.0600000000000005
                },
                {
                    "name": "E4",
                    "midi": 64,
                    "time": 14.94000000000002,
                    "velocity": 0.7874015748031497,
                    "duration": 0.0600000000000005
                },
                {
                    "name": "A3",
                    "midi": 57,
                    "time": 15.000000000000021,
                    "velocity": 0.7874015748031497,
                    "duration": 0.0600000000000005
                },
                {
                    "name": "G3",
                    "midi": 55,
                    "time": 15.060000000000022,
                    "velocity": 0.7874015748031497,
                    "duration": 0.0600000000000005
                },
                {
                    "name": "F#3",
                    "midi": 54,
                    "time": 15.120000000000022,
                    "velocity": 0.7874015748031497,
                    "duration": 0.0600000000000005
                },
                {
                    "name": "D3",
                    "midi": 50,
                    "time": 15.180000000000023,
                    "velocity": 0.7874015748031497,
                    "duration": 0.0600000000000005
                },
                {
                    "name": "A2",
                    "midi": 45,
                    "time": 15.240000000000023,
                    "velocity": 0.7874015748031497,
                    "duration": 0.0600000000000005
                },
                {
                    "name": "C#3",
                    "midi": 49,
                    "time": 15.300000000000024,
                    "velocity": 0.7874015748031497,
                    "duration": 0.0600000000000005
                },
                {
                    "name": "D2",
                    "midi": 38,
                    "time": 15.360000000000024,
                    "velocity": 0.7874015748031497,
                    "duration": 0.17999999999999972
                },
                {
                    "name": "A2",
                    "midi": 45,
                    "time": 15.540000000000024,
                    "velocity": 0.7874015748031497,
                    "duration": 0.0600000000000005
                },
                {
                    "name": "D3",
                    "midi": 50,
                    "time": 15.600000000000025,
                    "velocity": 0.7874015748031497,
                    "duration": 0.0600000000000005
                },
                {
                    "name": "F#3",
                    "midi": 54,
                    "time": 15.660000000000025,
                    "velocity": 0.7874015748031497,
                    "duration": 0.0600000000000005
                },
                {
                    "name": "A3",
                    "midi": 57,
                    "time": 15.720000000000026,
                    "velocity": 0.7874015748031497,
                    "duration": 0.0600000000000005
                },
                {
                    "name": "C#4",
                    "midi": 61,
                    "time": 15.780000000000026,
                    "velocity": 0.7874015748031497,
                    "duration": 0.0600000000000005
                },
                {
                    "name": "D4",
                    "midi": 62,
                    "time": 15.840000000000027,
                    "velocity": 0.7874015748031497,
                    "duration": 0.0600000000000005
                },
                {
                    "name": "A3",
                    "midi": 57,
                    "time": 15.900000000000027,
                    "velocity": 0.7874015748031497,
                    "duration": 0.0600000000000005
                },
                {
                    "name": "F#3",
                    "midi": 54,
                    "time": 15.960000000000027,
                    "velocity": 0.7874015748031497,
                    "duration": 0.0600000000000005
                },
                {
                    "name": "D3",
                    "midi": 50,
                    "time": 16.020000000000028,
                    "velocity": 0.7874015748031497,
                    "duration": 0.05999999999999872
                },
                {
                    "name": "D2",
                    "midi": 38,
                    "time": 16.080000000000027,
                    "velocity": 0.7874015748031497,
                    "duration": 0.17999999999999972
                },
                {
                    "name": "B3",
                    "midi": 59,
                    "time": 16.260000000000026,
                    "velocity": 0.7874015748031497,
                    "duration": 0.05999999999999872
                },
                {
                    "name": "B3",
                    "midi": 59,
                    "time": 16.320000000000025,
                    "velocity": 0.7874015748031497,
                    "duration": 0.3000000000000007
                },
                {
                    "name": "A3",
                    "midi": 57,
                    "time": 16.620000000000026,
                    "velocity": 0.7874015748031497,
                    "duration": 0.05999999999999872
                },
                {
                    "name": "G3",
                    "midi": 55,
                    "time": 16.680000000000025,
                    "velocity": 0.7874015748031497,
                    "duration": 0.05999999999999872
                },
                {
                    "name": "F#3",
                    "midi": 54,
                    "time": 16.740000000000023,
                    "velocity": 0.7874015748031497,
                    "duration": 0.05999999999999872
                },
                {
                    "name": "G3",
                    "midi": 55,
                    "time": 16.800000000000022,
                    "velocity": 0.7874015748031497,
                    "duration": 0.05999999999999872
                },
                {
                    "name": "D3",
                    "midi": 50,
                    "time": 16.86000000000002,
                    "velocity": 0.7874015748031497,
                    "duration": 0.05999999999999872
                },
                {
                    "name": "E3",
                    "midi": 52,
                    "time": 16.92000000000002,
                    "velocity": 0.7874015748031497,
                    "duration": 0.05999999999999872
                },
                {
                    "name": "F#3",
                    "midi": 54,
                    "time": 16.980000000000018,
                    "velocity": 0.7874015748031497,
                    "duration": 0.05999999999999872
                },
                {
                    "name": "G3",
                    "midi": 55,
                    "time": 17.040000000000017,
                    "velocity": 0.7874015748031497,
                    "duration": 0.05999999999999872
                },
                {
                    "name": "A3",
                    "midi": 57,
                    "time": 17.100000000000016,
                    "velocity": 0.7874015748031497,
                    "duration": 0.05999999999999872
                },
                {
                    "name": "B3",
                    "midi": 59,
                    "time": 17.160000000000014,
                    "velocity": 0.7874015748031497,
                    "duration": 0.05999999999999872
                },
                {
                    "name": "C4",
                    "midi": 60,
                    "time": 17.220000000000013,
                    "velocity": 0.7874015748031497,
                    "duration": 0.05999999999999872
                },
                {
                    "name": "D4",
                    "midi": 62,
                    "time": 17.280000000000012,
                    "velocity": 0.7874015748031497,
                    "duration": 0.05999999999999872
                },
                {
                    "name": "B3",
                    "midi": 59,
                    "time": 17.34000000000001,
                    "velocity": 0.7874015748031497,
                    "duration": 0.05999999999999872
                },
                {
                    "name": "G3",
                    "midi": 55,
                    "time": 17.40000000000001,
                    "velocity": 0.7874015748031497,
                    "duration": 0.05999999999999872
                },
                {
                    "name": "F#3",
                    "midi": 54,
                    "time": 17.460000000000008,
                    "velocity": 0.7874015748031497,
                    "duration": 0.05999999999999872
                },
                {
                    "name": "G3",
                    "midi": 55,
                    "time": 17.520000000000007,
                    "velocity": 0.7874015748031497,
                    "duration": 0.05999999999999872
                },
                {
                    "name": "E3",
                    "midi": 52,
                    "time": 17.580000000000005,
                    "velocity": 0.7874015748031497,
                    "duration": 0.05999999999999872
                },
                {
                    "name": "D3",
                    "midi": 50,
                    "time": 17.640000000000004,
                    "velocity": 0.7874015748031497,
                    "duration": 0.05999999999999872
                },
                {
                    "name": "C3",
                    "midi": 48,
                    "time": 17.700000000000003,
                    "velocity": 0.7874015748031497,
                    "duration": 0.05999999999999872
                },
                {
                    "name": "B2",
                    "midi": 47,
                    "time": 17.76,
                    "velocity": 0.7874015748031497,
                    "duration": 0.05999999999999872
                },
                {
                    "name": "C3",
                    "midi": 48,
                    "time": 17.82,
                    "velocity": 0.7874015748031497,
                    "duration": 0.05999999999999872
                },
                {
                    "name": "D3",
                    "midi": 50,
                    "time": 17.88,
                    "velocity": 0.7874015748031497,
                    "duration": 0.05999999999999872
                },
                {
                    "name": "E3",
                    "midi": 52,
                    "time": 17.939999999999998,
                    "velocity": 0.7874015748031497,
                    "duration": 0.05999999999999872
                },
                {
                    "name": "F#3",
                    "midi": 54,
                    "time": 17.999999999999996,
                    "velocity": 0.7874015748031497,
                    "duration": 0.05999999999999872
                },
                {
                    "name": "G3",
                    "midi": 55,
                    "time": 18.059999999999995,
                    "velocity": 0.7874015748031497,
                    "duration": 0.05999999999999872
                },
                {
                    "name": "A3",
                    "midi": 57,
                    "time": 18.119999999999994,
                    "velocity": 0.7874015748031497,
                    "duration": 0.05999999999999872
                },
                {
                    "name": "B3",
                    "midi": 59,
                    "time": 18.179999999999993,
                    "velocity": 0.7874015748031497,
                    "duration": 0.05999999999999872
                },
                {
                    "name": "C4",
                    "midi": 60,
                    "time": 18.23999999999999,
                    "velocity": 0.7874015748031497,
                    "duration": 0.05999999999999872
                },
                {
                    "name": "A3",
                    "midi": 57,
                    "time": 18.29999999999999,
                    "velocity": 0.7874015748031497,
                    "duration": 0.05999999999999872
                },
                {
                    "name": "G3",
                    "midi": 55,
                    "time": 18.35999999999999,
                    "velocity": 0.7874015748031497,
                    "duration": 0.05999999999999872
                },
                {
                    "name": "F#3",
                    "midi": 54,
                    "time": 18.419999999999987,
                    "velocity": 0.7874015748031497,
                    "duration": 0.05999999999999872
                },
                {
                    "name": "G3",
                    "midi": 55,
                    "time": 18.479999999999986,
                    "velocity": 0.7874015748031497,
                    "duration": 0.05999999999999872
                },
                {
                    "name": "E3",
                    "midi": 52,
                    "time": 18.539999999999985,
                    "velocity": 0.7874015748031497,
                    "duration": 0.05999999999999872
                },
                {
                    "name": "F#3",
                    "midi": 54,
                    "time": 18.599999999999984,
                    "velocity": 0.7874015748031497,
                    "duration": 0.05999999999999872
                },
                {
                    "name": "G3",
                    "midi": 55,
                    "time": 18.659999999999982,
                    "velocity": 0.7874015748031497,
                    "duration": 0.05999999999999872
                },
                {
                    "name": "A2",
                    "midi": 45,
                    "time": 18.71999999999998,
                    "velocity": 0.7874015748031497,
                    "duration": 0.05999999999999872
                },
                {
                    "name": "D3",
                    "midi": 50,
                    "time": 18.77999999999998,
                    "velocity": 0.7874015748031497,
                    "duration": 0.05999999999999872
                },
                {
                    "name": "F#3",
                    "midi": 54,
                    "time": 18.83999999999998,
                    "velocity": 0.7874015748031497,
                    "duration": 0.05999999999999872
                },
                {
                    "name": "G3",
                    "midi": 55,
                    "time": 18.899999999999977,
                    "velocity": 0.7874015748031497,
                    "duration": 0.05999999999999872
                },
                {
                    "name": "A3",
                    "midi": 57,
                    "time": 18.959999999999976,
                    "velocity": 0.7874015748031497,
                    "duration": 0.05999999999999872
                },
                {
                    "name": "B3",
                    "midi": 59,
                    "time": 19.019999999999975,
                    "velocity": 0.7874015748031497,
                    "duration": 0.05999999999999872
                },
                {
                    "name": "C4",
                    "midi": 60,
                    "time": 19.079999999999973,
                    "velocity": 0.7874015748031497,
                    "duration": 0.05999999999999872
                },
                {
                    "name": "A3",
                    "midi": 57,
                    "time": 19.139999999999972,
                    "velocity": 0.7874015748031497,
                    "duration": 0.05999999999999872
                },
                {
                    "name": "B3",
                    "midi": 59,
                    "time": 19.19999999999997,
                    "velocity": 0.7874015748031497,
                    "duration": 0.05999999999999872
                },
                {
                    "name": "G3",
                    "midi": 55,
                    "time": 19.25999999999997,
                    "velocity": 0.7874015748031497,
                    "duration": 0.05999999999999872
                },
                {
                    "name": "G3",
                    "midi": 55,
                    "time": 19.31999999999997,
                    "velocity": 0.7874015748031497,
                    "duration": 0.05999999999999872
                },
                {
                    "name": "D3",
                    "midi": 50,
                    "time": 19.379999999999967,
                    "velocity": 0.7874015748031497,
                    "duration": 0.05999999999999872
                },
                {
                    "name": "D3",
                    "midi": 50,
                    "time": 19.439999999999966,
                    "velocity": 0.7874015748031497,
                    "duration": 0.05999999999999872
                },
                {
                    "name": "B2",
                    "midi": 47,
                    "time": 19.499999999999964,
                    "velocity": 0.7874015748031497,
                    "duration": 0.05999999999999872
                },
                {
                    "name": "B2",
                    "midi": 47,
                    "time": 19.559999999999963,
                    "velocity": 0.7874015748031497,
                    "duration": 0.05999999999999872
                },
                {
                    "name": "G2",
                    "midi": 43,
                    "time": 19.619999999999962,
                    "velocity": 0.7874015748031497,
                    "duration": 0.05999999999999872
                },
                {
                    "name": "G2",
                    "midi": 43,
                    "time": 19.67999999999996,
                    "velocity": 0.7874015748031497,
                    "duration": 0.17999999999999972
                },
                {
                    "name": "B3",
                    "midi": 59,
                    "time": 19.85999999999996,
                    "velocity": 0.7874015748031497,
                    "duration": 0.05999999999999872
                },
                {
                    "name": "C4",
                    "midi": 60,
                    "time": 19.91999999999996,
                    "velocity": 0.7874015748031497,
                    "duration": 0.05999999999999872
                },
                {
                    "name": "B3",
                    "midi": 59,
                    "time": 19.979999999999958,
                    "velocity": 0.7874015748031497,
                    "duration": 0.05999999999999872
                },
                {
                    "name": "A3",
                    "midi": 57,
                    "time": 20.039999999999957,
                    "velocity": 0.7874015748031497,
                    "duration": 0.05999999999999872
                },
                {
                    "name": "G3",
                    "midi": 55,
                    "time": 20.099999999999955,
                    "velocity": 0.7874015748031497,
                    "duration": 0.05999999999999872
                },
                {
                    "name": "A3",
                    "midi": 57,
                    "time": 20.159999999999954,
                    "velocity": 0.7874015748031497,
                    "duration": 0.05999999999999872
                },
                {
                    "name": "B3",
                    "midi": 59,
                    "time": 20.219999999999953,
                    "velocity": 0.7874015748031497,
                    "duration": 0.05999999999999872
                },
                {
                    "name": "C4",
                    "midi": 60,
                    "time": 20.27999999999995,
                    "velocity": 0.7874015748031497,
                    "duration": 0.05999999999999872
                },
                {
                    "name": "A3",
                    "midi": 57,
                    "time": 20.33999999999995,
                    "velocity": 0.7874015748031497,
                    "duration": 0.05999999999999872
                },
                {
                    "name": "G3",
                    "midi": 55,
                    "time": 20.39999999999995,
                    "velocity": 0.7874015748031497,
                    "duration": 0.05999999999999872
                },
                {
                    "name": "F#3",
                    "midi": 54,
                    "time": 20.459999999999948,
                    "velocity": 0.7874015748031497,
                    "duration": 0.05999999999999872
                },
                {
                    "name": "G3",
                    "midi": 55,
                    "time": 20.519999999999946,
                    "velocity": 0.7874015748031497,
                    "duration": 0.05999999999999872
                },
                {
                    "name": "A3",
                    "midi": 57,
                    "time": 20.579999999999945,
                    "velocity": 0.7874015748031497,
                    "duration": 0.05999999999999872
                },
                {
                    "name": "D#3",
                    "midi": 51,
                    "time": 20.639999999999944,
                    "velocity": 0.7874015748031497,
                    "duration": 0.17999999999999972
                },
                {
                    "name": "C4",
                    "midi": 60,
                    "time": 20.819999999999943,
                    "velocity": 0.7874015748031497,
                    "duration": 0.05999999999999872
                },
                {
                    "name": "B3",
                    "midi": 59,
                    "time": 20.879999999999942,
                    "velocity": 0.7874015748031497,
                    "duration": 0.05999999999999872
                },
                {
                    "name": "A3",
                    "midi": 57,
                    "time": 20.93999999999994,
                    "velocity": 0.7874015748031497,
                    "duration": 0.05999999999999872
                },
                {
                    "name": "G3",
                    "midi": 55,
                    "time": 20.99999999999994,
                    "velocity": 0.7874015748031497,
                    "duration": 0.05999999999999872
                },
                {
                    "name": "F#3",
                    "midi": 54,
                    "time": 21.05999999999994,
                    "velocity": 0.7874015748031497,
                    "duration": 0.05999999999999872
                },
                {
                    "name": "G3",
                    "midi": 55,
                    "time": 21.119999999999937,
                    "velocity": 0.7874015748031497,
                    "duration": 0.05999999999999872
                },
                {
                    "name": "E3",
                    "midi": 52,
                    "time": 21.179999999999936,
                    "velocity": 0.7874015748031497,
                    "duration": 0.05999999999999872
                },
                {
                    "name": "E3",
                    "midi": 52,
                    "time": 21.239999999999934,
                    "velocity": 0.7874015748031497,
                    "duration": 0.05999999999999872
                },
                {
                    "name": "B2",
                    "midi": 47,
                    "time": 21.299999999999933,
                    "velocity": 0.7874015748031497,
                    "duration": 0.05999999999999872
                },
                {
                    "name": "B2",
                    "midi": 47,
                    "time": 21.359999999999932,
                    "velocity": 0.7874015748031497,
                    "duration": 0.05999999999999872
                },
                {
                    "name": "G2",
                    "midi": 43,
                    "time": 21.41999999999993,
                    "velocity": 0.7874015748031497,
                    "duration": 0.05999999999999872
                },
                {
                    "name": "G2",
                    "midi": 43,
                    "time": 21.47999999999993,
                    "velocity": 0.7874015748031497,
                    "duration": 0.05999999999999872
                },
                {
                    "name": "E2",
                    "midi": 40,
                    "time": 21.539999999999928,
                    "velocity": 0.7874015748031497,
                    "duration": 0.05999999999999872
                },
                {
                    "name": "E2",
                    "midi": 40,
                    "time": 21.599999999999927,
                    "velocity": 0.7874015748031497,
                    "duration": 0.17999999999999972
                },
                {
                    "name": "B2",
                    "midi": 47,
                    "time": 21.779999999999927,
                    "velocity": 0.7874015748031497,
                    "duration": 0.05999999999999872
                },
                {
                    "name": "E3",
                    "midi": 52,
                    "time": 21.839999999999925,
                    "velocity": 0.7874015748031497,
                    "duration": 0.05999999999999872
                },
                {
                    "name": "G3",
                    "midi": 55,
                    "time": 21.899999999999924,
                    "velocity": 0.7874015748031497,
                    "duration": 0.05999999999999872
                },
                {
                    "name": "F#3",
                    "midi": 54,
                    "time": 21.959999999999923,
                    "velocity": 0.7874015748031497,
                    "duration": 0.05999999999999872
                },
                {
                    "name": "A3",
                    "midi": 57,
                    "time": 22.01999999999992,
                    "velocity": 0.7874015748031497,
                    "duration": 0.05999999999999872
                },
                {
                    "name": "G3",
                    "midi": 55,
                    "time": 22.07999999999992,
                    "velocity": 0.7874015748031497,
                    "duration": 0.05999999999999872
                },
                {
                    "name": "F#3",
                    "midi": 54,
                    "time": 22.13999999999992,
                    "velocity": 0.7874015748031497,
                    "duration": 0.05999999999999872
                },
                {
                    "name": "E3",
                    "midi": 52,
                    "time": 22.199999999999918,
                    "velocity": 0.7874015748031497,
                    "duration": 0.05999999999999872
                },
                {
                    "name": "F#3",
                    "midi": 54,
                    "time": 22.259999999999916,
                    "velocity": 0.7874015748031497,
                    "duration": 0.05999999999999872
                },
                {
                    "name": "G3",
                    "midi": 55,
                    "time": 22.319999999999915,
                    "velocity": 0.7874015748031497,
                    "duration": 0.05999999999999872
                },
                {
                    "name": "C#4",
                    "midi": 61,
                    "time": 22.379999999999914,
                    "velocity": 0.7874015748031497,
                    "duration": 0.05999999999999872
                },
                {
                    "name": "G3",
                    "midi": 55,
                    "time": 22.439999999999912,
                    "velocity": 0.7874015748031497,
                    "duration": 0.05999999999999872
                },
                {
                    "name": "F#3",
                    "midi": 54,
                    "time": 22.49999999999991,
                    "velocity": 0.7874015748031497,
                    "duration": 0.05999999999999872
                },
                {
                    "name": "G3",
                    "midi": 55,
                    "time": 22.55999999999991,
                    "velocity": 0.7874015748031497,
                    "duration": 0.05999999999999872
                },
                {
                    "name": "C#4",
                    "midi": 61,
                    "time": 22.61999999999991,
                    "velocity": 0.7874015748031497,
                    "duration": 0.05999999999999872
                },
                {
                    "name": "E3",
                    "midi": 52,
                    "time": 22.679999999999907,
                    "velocity": 0.7874015748031497,
                    "duration": 0.05999999999999872
                },
                {
                    "name": "F#3",
                    "midi": 54,
                    "time": 22.739999999999906,
                    "velocity": 0.7874015748031497,
                    "duration": 0.05999999999999872
                },
                {
                    "name": "G3",
                    "midi": 55,
                    "time": 22.799999999999905,
                    "velocity": 0.7874015748031497,
                    "duration": 0.05999999999999872
                },
                {
                    "name": "E3",
                    "midi": 52,
                    "time": 22.859999999999904,
                    "velocity": 0.7874015748031497,
                    "duration": 0.05999999999999872
                },
                {
                    "name": "A2",
                    "midi": 45,
                    "time": 22.919999999999902,
                    "velocity": 0.7874015748031497,
                    "duration": 0.05999999999999872
                },
                {
                    "name": "G3",
                    "midi": 55,
                    "time": 22.9799999999999,
                    "velocity": 0.7874015748031497,
                    "duration": 0.05999999999999872
                },
                {
                    "name": "F#3",
                    "midi": 54,
                    "time": 23.0399999999999,
                    "velocity": 0.7874015748031497,
                    "duration": 0.11999999999999744
                },
                {
                    "name": "D3",
                    "midi": 50,
                    "time": 23.159999999999897,
                    "velocity": 0.7874015748031497,
                    "duration": 0.05999999999999872
                },
                {
                    "name": "E3",
                    "midi": 52,
                    "time": 23.219999999999896,
                    "velocity": 0.7874015748031497,
                    "duration": 0.05999999999999872
                },
                {
                    "name": "F#3",
                    "midi": 54,
                    "time": 23.279999999999895,
                    "velocity": 0.7874015748031497,
                    "duration": 0.05999999999999872
                },
                {
                    "name": "D3",
                    "midi": 50,
                    "time": 23.339999999999893,
                    "velocity": 0.7874015748031497,
                    "duration": 0.05999999999999872
                },
                {
                    "name": "G3",
                    "midi": 55,
                    "time": 23.399999999999892,
                    "velocity": 0.7874015748031497,
                    "duration": 0.05999999999999872
                },
                {
                    "name": "E3",
                    "midi": 52,
                    "time": 23.45999999999989,
                    "velocity": 0.7874015748031497,
                    "duration": 0.05999999999999872
                },
                {
                    "name": "F#3",
                    "midi": 54,
                    "time": 23.51999999999989,
                    "velocity": 0.7874015748031497,
                    "duration": 0.05999999999999872
                },
                {
                    "name": "D3",
                    "midi": 50,
                    "time": 23.579999999999888,
                    "velocity": 0.7874015748031497,
                    "duration": 0.05999999999999872
                },
                {
                    "name": "F#3",
                    "midi": 54,
                    "time": 23.639999999999887,
                    "velocity": 0.7874015748031497,
                    "duration": 0.05999999999999872
                },
                {
                    "name": "G3",
                    "midi": 55,
                    "time": 23.699999999999886,
                    "velocity": 0.7874015748031497,
                    "duration": 0.05999999999999872
                },
                {
                    "name": "A3",
                    "midi": 57,
                    "time": 23.759999999999884,
                    "velocity": 0.7874015748031497,
                    "duration": 0.05999999999999872
                },
                {
                    "name": "B3",
                    "midi": 59,
                    "time": 23.819999999999883,
                    "velocity": 0.7874015748031497,
                    "duration": 0.05999999999999872
                },
                {
                    "name": "C4",
                    "midi": 60,
                    "time": 23.87999999999988,
                    "velocity": 0.7874015748031497,
                    "duration": 0.05999999999999872
                },
                {
                    "name": "A3",
                    "midi": 57,
                    "time": 23.93999999999988,
                    "velocity": 0.7874015748031497,
                    "duration": 0.05999999999999872
                },
                {
                    "name": "B3",
                    "midi": 59,
                    "time": 23.99999999999988,
                    "velocity": 0.7874015748031497,
                    "duration": 0.05999999999999872
                },
                {
                    "name": "D3",
                    "midi": 50,
                    "time": 24.059999999999878,
                    "velocity": 0.7874015748031497,
                    "duration": 0.05999999999999872
                },
                {
                    "name": "G2",
                    "midi": 43,
                    "time": 24.119999999999877,
                    "velocity": 0.7874015748031497,
                    "duration": 0.05999999999999872
                },
                {
                    "name": "D3",
                    "midi": 50,
                    "time": 24.179999999999875,
                    "velocity": 0.7874015748031497,
                    "duration": 0.05999999999999872
                },
                {
                    "name": "B3",
                    "midi": 59,
                    "time": 24.239999999999874,
                    "velocity": 0.7874015748031497,
                    "duration": 0.05999999999999872
                },
                {
                    "name": "G3",
                    "midi": 55,
                    "time": 24.299999999999873,
                    "velocity": 0.7874015748031497,
                    "duration": 0.05999999999999872
                },
                {
                    "name": "A3",
                    "midi": 57,
                    "time": 24.35999999999987,
                    "velocity": 0.7874015748031497,
                    "duration": 0.05999999999999872
                },
                {
                    "name": "F#3",
                    "midi": 54,
                    "time": 24.41999999999987,
                    "velocity": 0.7874015748031497,
                    "duration": 0.05999999999999872
                },
                {
                    "name": "G3",
                    "midi": 55,
                    "time": 24.47999999999987,
                    "velocity": 0.7874015748031497,
                    "duration": 0.05999999999999872
                },
                {
                    "name": "E3",
                    "midi": 52,
                    "time": 24.539999999999868,
                    "velocity": 0.7874015748031497,
                    "duration": 0.05999999999999872
                },
                {
                    "name": "G3",
                    "midi": 55,
                    "time": 24.599999999999866,
                    "velocity": 0.7874015748031497,
                    "duration": 0.05999999999999872
                },
                {
                    "name": "A3",
                    "midi": 57,
                    "time": 24.659999999999865,
                    "velocity": 0.7874015748031497,
                    "duration": 0.05999999999999872
                },
                {
                    "name": "B3",
                    "midi": 59,
                    "time": 24.719999999999864,
                    "velocity": 0.7874015748031497,
                    "duration": 0.05999999999999872
                },
                {
                    "name": "C#4",
                    "midi": 61,
                    "time": 24.779999999999863,
                    "velocity": 0.7874015748031497,
                    "duration": 0.05999999999999872
                },
                {
                    "name": "D4",
                    "midi": 62,
                    "time": 24.83999999999986,
                    "velocity": 0.7874015748031497,
                    "duration": 0.05999999999999872
                },
                {
                    "name": "B3",
                    "midi": 59,
                    "time": 24.89999999999986,
                    "velocity": 0.7874015748031497,
                    "duration": 0.05999999999999872
                },
                {
                    "name": "C#4",
                    "midi": 61,
                    "time": 24.95999999999986,
                    "velocity": 0.7874015748031497,
                    "duration": 0.05999999999999872
                },
                {
                    "name": "E3",
                    "midi": 52,
                    "time": 25.019999999999857,
                    "velocity": 0.7874015748031497,
                    "duration": 0.05999999999999872
                },
                {
                    "name": "G2",
                    "midi": 43,
                    "time": 25.079999999999856,
                    "velocity": 0.7874015748031497,
                    "duration": 0.05999999999999872
                },
                {
                    "name": "E3",
                    "midi": 52,
                    "time": 25.139999999999855,
                    "velocity": 0.7874015748031497,
                    "duration": 0.05999999999999872
                },
                {
                    "name": "C#4",
                    "midi": 61,
                    "time": 25.199999999999854,
                    "velocity": 0.7874015748031497,
                    "duration": 0.05999999999999872
                },
                {
                    "name": "A3",
                    "midi": 57,
                    "time": 25.259999999999852,
                    "velocity": 0.7874015748031497,
                    "duration": 0.05999999999999872
                },
                {
                    "name": "B3",
                    "midi": 59,
                    "time": 25.31999999999985,
                    "velocity": 0.7874015748031497,
                    "duration": 0.05999999999999872
                },
                {
                    "name": "D4",
                    "midi": 62,
                    "time": 25.37999999999985,
                    "velocity": 0.7874015748031497,
                    "duration": 0.05999999999999872
                },
                {
                    "name": "C#4",
                    "midi": 61,
                    "time": 25.43999999999985,
                    "velocity": 0.7874015748031497,
                    "duration": 0.05999999999999872
                },
                {
                    "name": "A3",
                    "midi": 57,
                    "time": 25.499999999999847,
                    "velocity": 0.7874015748031497,
                    "duration": 0.05999999999999872
                },
                {
                    "name": "D4",
                    "midi": 62,
                    "time": 25.559999999999846,
                    "velocity": 0.7874015748031497,
                    "duration": 0.05999999999999872
                },
                {
                    "name": "B3",
                    "midi": 59,
                    "time": 25.619999999999845,
                    "velocity": 0.7874015748031497,
                    "duration": 0.05999999999999872
                },
                {
                    "name": "C#4",
                    "midi": 61,
                    "time": 25.679999999999843,
                    "velocity": 0.7874015748031497,
                    "duration": 0.05999999999999872
                },
                {
                    "name": "A3",
                    "midi": 57,
                    "time": 25.739999999999842,
                    "velocity": 0.7874015748031497,
                    "duration": 0.05999999999999872
                },
                {
                    "name": "E4",
                    "midi": 64,
                    "time": 25.79999999999984,
                    "velocity": 0.7874015748031497,
                    "duration": 0.05999999999999872
                },
                {
                    "name": "G3",
                    "midi": 55,
                    "time": 25.85999999999984,
                    "velocity": 0.7874015748031497,
                    "duration": 0.05999999999999872
                },
                {
                    "name": "F#3",
                    "midi": 54,
                    "time": 25.91999999999984,
                    "velocity": 0.7874015748031497,
                    "duration": 0.17999999999999972
                },
                {
                    "name": "D4",
                    "midi": 62,
                    "time": 26.099999999999838,
                    "velocity": 0.7874015748031497,
                    "duration": 0.05999999999999872
                },
                {
                    "name": "A3",
                    "midi": 57,
                    "time": 26.159999999999837,
                    "velocity": 0.7874015748031497,
                    "duration": 0.05999999999999872
                },
                {
                    "name": "G3",
                    "midi": 55,
                    "time": 26.219999999999835,
                    "velocity": 0.7874015748031497,
                    "duration": 0.05999999999999872
                },
                {
                    "name": "F#3",
                    "midi": 54,
                    "time": 26.279999999999834,
                    "velocity": 0.7874015748031497,
                    "duration": 0.05999999999999872
                },
                {
                    "name": "E3",
                    "midi": 52,
                    "time": 26.339999999999833,
                    "velocity": 0.7874015748031497,
                    "duration": 0.05999999999999872
                },
                {
                    "name": "D3",
                    "midi": 50,
                    "time": 26.39999999999983,
                    "velocity": 0.7874015748031497,
                    "duration": 0.05999999999999872
                },
                {
                    "name": "A3",
                    "midi": 57,
                    "time": 26.45999999999983,
                    "velocity": 0.7874015748031497,
                    "duration": 0.05999999999999872
                },
                {
                    "name": "G3",
                    "midi": 55,
                    "time": 26.51999999999983,
                    "velocity": 0.7874015748031497,
                    "duration": 0.05999999999999872
                },
                {
                    "name": "E3",
                    "midi": 52,
                    "time": 26.579999999999828,
                    "velocity": 0.7874015748031497,
                    "duration": 0.05999999999999872
                },
                {
                    "name": "F#3",
                    "midi": 54,
                    "time": 26.639999999999826,
                    "velocity": 0.7874015748031497,
                    "duration": 0.05999999999999872
                },
                {
                    "name": "D3",
                    "midi": 50,
                    "time": 26.699999999999825,
                    "velocity": 0.7874015748031497,
                    "duration": 0.05999999999999872
                },
                {
                    "name": "A3",
                    "midi": 57,
                    "time": 26.759999999999824,
                    "velocity": 0.7874015748031497,
                    "duration": 0.05999999999999872
                },
                {
                    "name": "C3",
                    "midi": 48,
                    "time": 26.819999999999823,
                    "velocity": 0.7874015748031497,
                    "duration": 0.05999999999999872
                },
                {
                    "name": "B2",
                    "midi": 47,
                    "time": 26.87999999999982,
                    "velocity": 0.7874015748031497,
                    "duration": 0.17999999999999972
                },
                {
                    "name": "G3",
                    "midi": 55,
                    "time": 27.05999999999982,
                    "velocity": 0.7874015748031497,
                    "duration": 0.05999999999999872
                },
                {
                    "name": "D3",
                    "midi": 50,
                    "time": 27.11999999999982,
                    "velocity": 0.7874015748031497,
                    "duration": 0.05999999999999872
                },
                {
                    "name": "C3",
                    "midi": 48,
                    "time": 27.17999999999982,
                    "velocity": 0.7874015748031497,
                    "duration": 0.05999999999999872
                },
                {
                    "name": "B2",
                    "midi": 47,
                    "time": 27.239999999999817,
                    "velocity": 0.7874015748031497,
                    "duration": 0.05999999999999872
                },
                {
                    "name": "A2",
                    "midi": 45,
                    "time": 27.299999999999816,
                    "velocity": 0.7874015748031497,
                    "duration": 0.05999999999999872
                },
                {
                    "name": "G2",
                    "midi": 43,
                    "time": 27.359999999999815,
                    "velocity": 0.7874015748031497,
                    "duration": 0.05999999999999872
                },
                {
                    "name": "D3",
                    "midi": 50,
                    "time": 27.419999999999813,
                    "velocity": 0.7874015748031497,
                    "duration": 0.05999999999999872
                },
                {
                    "name": "C3",
                    "midi": 48,
                    "time": 27.479999999999812,
                    "velocity": 0.7874015748031497,
                    "duration": 0.05999999999999872
                },
                {
                    "name": "A2",
                    "midi": 45,
                    "time": 27.53999999999981,
                    "velocity": 0.7874015748031497,
                    "duration": 0.05999999999999872
                },
                {
                    "name": "B2",
                    "midi": 47,
                    "time": 27.59999999999981,
                    "velocity": 0.7874015748031497,
                    "duration": 0.05999999999999872
                },
                {
                    "name": "G2",
                    "midi": 43,
                    "time": 27.65999999999981,
                    "velocity": 0.7874015748031497,
                    "duration": 0.05999999999999872
                },
                {
                    "name": "D3",
                    "midi": 50,
                    "time": 27.719999999999807,
                    "velocity": 0.7874015748031497,
                    "duration": 0.05999999999999872
                },
                {
                    "name": "F#2",
                    "midi": 42,
                    "time": 27.779999999999806,
                    "velocity": 0.7874015748031497,
                    "duration": 0.05999999999999872
                },
                {
                    "name": "E2",
                    "midi": 40,
                    "time": 27.839999999999804,
                    "velocity": 0.7874015748031497,
                    "duration": 0.05999999999999872
                },
                {
                    "name": "G2",
                    "midi": 43,
                    "time": 27.899999999999803,
                    "velocity": 0.7874015748031497,
                    "duration": 0.05999999999999872
                },
                {
                    "name": "A2",
                    "midi": 45,
                    "time": 27.959999999999802,
                    "velocity": 0.7874015748031497,
                    "duration": 0.05999999999999872
                },
                {
                    "name": "B2",
                    "midi": 47,
                    "time": 28.0199999999998,
                    "velocity": 0.7874015748031497,
                    "duration": 0.05999999999999872
                },
                {
                    "name": "C#3",
                    "midi": 49,
                    "time": 28.0799999999998,
                    "velocity": 0.7874015748031497,
                    "duration": 0.05999999999999872
                },
                {
                    "name": "D3",
                    "midi": 50,
                    "time": 28.139999999999798,
                    "velocity": 0.7874015748031497,
                    "duration": 0.05999999999999872
                },
                {
                    "name": "E3",
                    "midi": 52,
                    "time": 28.199999999999797,
                    "velocity": 0.7874015748031497,
                    "duration": 0.05999999999999872
                },
                {
                    "name": "F#3",
                    "midi": 54,
                    "time": 28.259999999999796,
                    "velocity": 0.7874015748031497,
                    "duration": 0.05999999999999872
                },
                {
                    "name": "G3",
                    "midi": 55,
                    "time": 28.319999999999794,
                    "velocity": 0.7874015748031497,
                    "duration": 0.05999999999999872
                },
                {
                    "name": "A3",
                    "midi": 57,
                    "time": 28.379999999999793,
                    "velocity": 0.7874015748031497,
                    "duration": 0.05999999999999872
                },
                {
                    "name": "C#4",
                    "midi": 61,
                    "time": 28.43999999999979,
                    "velocity": 0.7874015748031497,
                    "duration": 0.05999999999999872
                },
                {
                    "name": "D4",
                    "midi": 62,
                    "time": 28.49999999999979,
                    "velocity": 0.7874015748031497,
                    "duration": 0.05999999999999872
                },
                {
                    "name": "E4",
                    "midi": 64,
                    "time": 28.55999999999979,
                    "velocity": 0.7874015748031497,
                    "duration": 0.05999999999999872
                },
                {
                    "name": "A3",
                    "midi": 57,
                    "time": 28.619999999999788,
                    "velocity": 0.7874015748031497,
                    "duration": 0.05999999999999872
                },
                {
                    "name": "G4",
                    "midi": 67,
                    "time": 28.679999999999787,
                    "velocity": 0.7874015748031497,
                    "duration": 0.120000000000001
                },
                {
                    "name": "D3",
                    "midi": 50,
                    "time": 28.799999999999788,
                    "velocity": 0.7874015748031497,
                    "duration": 0.05999999999999872
                },
                {
                    "name": "G4",
                    "midi": 67,
                    "time": 28.859999999999786,
                    "velocity": 0.7874015748031497,
                    "duration": 0.05999999999999872
                },
                {
                    "name": "F#4",
                    "midi": 66,
                    "time": 28.919999999999785,
                    "velocity": 0.7874015748031497,
                    "duration": 0.05999999999999872
                },
                {
                    "name": "E4",
                    "midi": 64,
                    "time": 28.979999999999784,
                    "velocity": 0.7874015748031497,
                    "duration": 0.05999999999999872
                },
                {
                    "name": "F#4",
                    "midi": 66,
                    "time": 29.039999999999782,
                    "velocity": 0.7874015748031497,
                    "duration": 0.05999999999999872
                },
                {
                    "name": "D4",
                    "midi": 62,
                    "time": 29.09999999999978,
                    "velocity": 0.7874015748031497,
                    "duration": 0.05999999999999872
                },
                {
                    "name": "A3",
                    "midi": 57,
                    "time": 29.15999999999978,
                    "velocity": 0.7874015748031497,
                    "duration": 0.05999999999999872
                },
                {
                    "name": "D4",
                    "midi": 62,
                    "time": 29.21999999999978,
                    "velocity": 0.7874015748031497,
                    "duration": 0.05999999999999872
                },
                {
                    "name": "D3",
                    "midi": 50,
                    "time": 29.279999999999777,
                    "velocity": 0.7874015748031497,
                    "duration": 0.05999999999999872
                },
                {
                    "name": "F#3",
                    "midi": 54,
                    "time": 29.339999999999776,
                    "velocity": 0.7874015748031497,
                    "duration": 0.05999999999999872
                },
                {
                    "name": "A3",
                    "midi": 57,
                    "time": 29.399999999999775,
                    "velocity": 0.7874015748031497,
                    "duration": 0.05999999999999872
                },
                {
                    "name": "C4",
                    "midi": 60,
                    "time": 29.459999999999773,
                    "velocity": 0.7874015748031497,
                    "duration": 0.05999999999999872
                },
                {
                    "name": "B3",
                    "midi": 59,
                    "time": 29.519999999999772,
                    "velocity": 0.7874015748031497,
                    "duration": 0.17999999999999616
                },
                {
                    "name": "A3",
                    "midi": 57,
                    "time": 29.69999999999977,
                    "velocity": 0.7874015748031497,
                    "duration": 0.05999999999999872
                },
                {
                    "name": "B3",
                    "midi": 59,
                    "time": 29.759999999999767,
                    "velocity": 0.7874015748031497,
                    "duration": 0.17999999999999972
                },
                {
                    "name": "A3",
                    "midi": 57,
                    "time": 29.939999999999767,
                    "velocity": 0.7874015748031497,
                    "duration": 0.05999999999999872
                },
                {
                    "name": "G3",
                    "midi": 55,
                    "time": 29.999999999999766,
                    "velocity": 0.7874015748031497,
                    "duration": 0.05999999999999872
                },
                {
                    "name": "F#3",
                    "midi": 54,
                    "time": 30.059999999999764,
                    "velocity": 0.7874015748031497,
                    "duration": 0.05999999999999872
                },
                {
                    "name": "E3",
                    "midi": 52,
                    "time": 30.119999999999763,
                    "velocity": 0.7874015748031497,
                    "duration": 0.05999999999999872
                },
                {
                    "name": "D4",
                    "midi": 62,
                    "time": 30.17999999999976,
                    "velocity": 0.7874015748031497,
                    "duration": 0.05999999999999872
                },
                {
                    "name": "C#4",
                    "midi": 61,
                    "time": 30.23999999999976,
                    "velocity": 0.7874015748031497,
                    "duration": 0.05999999999999872
                },
                {
                    "name": "E4",
                    "midi": 64,
                    "time": 30.29999999999976,
                    "velocity": 0.7874015748031497,
                    "duration": 0.05999999999999872
                },
                {
                    "name": "A3",
                    "midi": 57,
                    "time": 30.359999999999758,
                    "velocity": 0.7874015748031497,
                    "duration": 0.05999999999999872
                },
                {
                    "name": "G3",
                    "midi": 55,
                    "time": 30.419999999999757,
                    "velocity": 0.7874015748031497,
                    "duration": 0.05999999999999872
                },
                {
                    "name": "F#3",
                    "midi": 54,
                    "time": 30.479999999999755,
                    "velocity": 0.7874015748031497,
                    "duration": 0.05999999999999872
                },
                {
                    "name": "D3",
                    "midi": 50,
                    "time": 30.539999999999754,
                    "velocity": 0.7874015748031497,
                    "duration": 0.05999999999999872
                },
                {
                    "name": "A2",
                    "midi": 45,
                    "time": 30.599999999999753,
                    "velocity": 0.7874015748031497,
                    "duration": 0.05999999999999872
                },
                {
                    "name": "C#3",
                    "midi": 49,
                    "time": 30.65999999999975,
                    "velocity": 0.7874015748031497,
                    "duration": 0.05999999999999872
                },
                {
                    "name": "D2",
                    "midi": 38,
                    "time": 30.71999999999975,
                    "velocity": 0.7874015748031497,
                    "duration": 0.17999999999999972
                },
                {
                    "name": "A2",
                    "midi": 45,
                    "time": 30.89999999999975,
                    "velocity": 0.7874015748031497,
                    "duration": 0.05999999999999872
                },
                {
                    "name": "D3",
                    "midi": 50,
                    "time": 30.95999999999975,
                    "velocity": 0.7874015748031497,
                    "duration": 0.05999999999999872
                },
                {
                    "name": "F#3",
                    "midi": 54,
                    "time": 31.019999999999747,
                    "velocity": 0.7874015748031497,
                    "duration": 0.05999999999999872
                },
                {
                    "name": "A3",
                    "midi": 57,
                    "time": 31.079999999999746,
                    "velocity": 0.7874015748031497,
                    "duration": 0.05999999999999872
                },
                {
                    "name": "C#4",
                    "midi": 61,
                    "time": 31.139999999999745,
                    "velocity": 0.7874015748031497,
                    "duration": 0.05999999999999872
                },
                {
                    "name": "D4",
                    "midi": 62,
                    "time": 31.199999999999743,
                    "velocity": 0.7874015748031497,
                    "duration": 0.05999999999999872
                },
                {
                    "name": "A3",
                    "midi": 57,
                    "time": 31.259999999999742,
                    "velocity": 0.7874015748031497,
                    "duration": 0.05999999999999872
                },
                {
                    "name": "F#3",
                    "midi": 54,
                    "time": 31.31999999999974,
                    "velocity": 0.7874015748031497,
                    "duration": 0.05999999999999872
                },
                {
                    "name": "D3",
                    "midi": 50,
                    "time": 31.37999999999974,
                    "velocity": 0.7874015748031497,
                    "duration": 0.05999999999999872
                },
                {
                    "name": "D2",
                    "midi": 38,
                    "time": 31.43999999999974,
                    "velocity": 0.7874015748031497,
                    "duration": 0.17999999999999972
                },
                {
                    "name": "A3",
                    "midi": 57,
                    "time": 31.619999999999738,
                    "velocity": 0.7874015748031497,
                    "duration": 0.05999999999999872
                },
                {
                    "name": "A3",
                    "midi": 57,
                    "time": 31.679999999999737,
                    "velocity": 0.7874015748031497,
                    "duration": 0.3000000000000007
                },
                {
                    "name": "F#3",
                    "midi": 54,
                    "time": 31.979999999999738,
                    "velocity": 0.7874015748031497,
                    "duration": 0.05999999999999872
                },
                {
                    "name": "G3",
                    "midi": 55,
                    "time": 32.039999999999736,
                    "velocity": 0.7874015748031497,
                    "duration": 0.060000000000002274
                },
                {
                    "name": "A3",
                    "midi": 57,
                    "time": 32.09999999999974,
                    "velocity": 0.7874015748031497,
                    "duration": 0.060000000000002274
                },
                {
                    "name": "D3",
                    "midi": 50,
                    "time": 32.15999999999974,
                    "velocity": 0.7874015748031497,
                    "duration": 0.060000000000002274
                },
                {
                    "name": "E3",
                    "midi": 52,
                    "time": 32.21999999999974,
                    "velocity": 0.7874015748031497,
                    "duration": 0.060000000000002274
                },
                {
                    "name": "F#3",
                    "midi": 54,
                    "time": 32.279999999999745,
                    "velocity": 0.7874015748031497,
                    "duration": 0.060000000000002274
                },
                {
                    "name": "G3",
                    "midi": 55,
                    "time": 32.33999999999975,
                    "velocity": 0.7874015748031497,
                    "duration": 0.060000000000002274
                },
                {
                    "name": "A3",
                    "midi": 57,
                    "time": 32.39999999999975,
                    "velocity": 0.7874015748031497,
                    "duration": 0.060000000000002274
                },
                {
                    "name": "F#3",
                    "midi": 54,
                    "time": 32.45999999999975,
                    "velocity": 0.7874015748031497,
                    "duration": 0.060000000000002274
                },
                {
                    "name": "D3",
                    "midi": 50,
                    "time": 32.519999999999754,
                    "velocity": 0.7874015748031497,
                    "duration": 0.060000000000002274
                },
                {
                    "name": "C3",
                    "midi": 48,
                    "time": 32.57999999999976,
                    "velocity": 0.7874015748031497,
                    "duration": 0.060000000000002274
                },
                {
                    "name": "B2",
                    "midi": 47,
                    "time": 32.63999999999976,
                    "velocity": 0.7874015748031497,
                    "duration": 0.060000000000002274
                },
                {
                    "name": "D3",
                    "midi": 50,
                    "time": 32.69999999999976,
                    "velocity": 0.7874015748031497,
                    "duration": 0.060000000000002274
                },
                {
                    "name": "G3",
                    "midi": 55,
                    "time": 32.75999999999976,
                    "velocity": 0.7874015748031497,
                    "duration": 0.060000000000002274
                },
                {
                    "name": "F#3",
                    "midi": 54,
                    "time": 32.819999999999766,
                    "velocity": 0.7874015748031497,
                    "duration": 0.060000000000002274
                },
                {
                    "name": "G3",
                    "midi": 55,
                    "time": 32.87999999999977,
                    "velocity": 0.7874015748031497,
                    "duration": 0.060000000000002274
                },
                {
                    "name": "A3",
                    "midi": 57,
                    "time": 32.93999999999977,
                    "velocity": 0.7874015748031497,
                    "duration": 0.060000000000002274
                },
                {
                    "name": "B3",
                    "midi": 59,
                    "time": 32.99999999999977,
                    "velocity": 0.7874015748031497,
                    "duration": 0.060000000000002274
                },
                {
                    "name": "C4",
                    "midi": 60,
                    "time": 33.059999999999775,
                    "velocity": 0.7874015748031497,
                    "duration": 0.060000000000002274
                },
                {
                    "name": "D4",
                    "midi": 62,
                    "time": 33.11999999999978,
                    "velocity": 0.7874015748031497,
                    "duration": 0.060000000000002274
                },
                {
                    "name": "B3",
                    "midi": 59,
                    "time": 33.17999999999978,
                    "velocity": 0.7874015748031497,
                    "duration": 0.060000000000002274
                },
                {
                    "name": "A3",
                    "midi": 57,
                    "time": 33.23999999999978,
                    "velocity": 0.7874015748031497,
                    "duration": 0.060000000000002274
                },
                {
                    "name": "G3",
                    "midi": 55,
                    "time": 33.299999999999784,
                    "velocity": 0.7874015748031497,
                    "duration": 0.060000000000002274
                },
                {
                    "name": "F3",
                    "midi": 53,
                    "time": 33.359999999999786,
                    "velocity": 0.7874015748031497,
                    "duration": 0.060000000000002274
                },
                {
                    "name": "E3",
                    "midi": 52,
                    "time": 33.41999999999979,
                    "velocity": 0.7874015748031497,
                    "duration": 0.060000000000002274
                },
                {
                    "name": "F3",
                    "midi": 53,
                    "time": 33.47999999999979,
                    "velocity": 0.7874015748031497,
                    "duration": 0.060000000000002274
                },
                {
                    "name": "D4",
                    "midi": 62,
                    "time": 33.53999999999979,
                    "velocity": 0.7874015748031497,
                    "duration": 0.060000000000002274
                },
                {
                    "name": "E3",
                    "midi": 52,
                    "time": 33.599999999999795,
                    "velocity": 0.7874015748031497,
                    "duration": 0.12000000000001165
                },
                {
                    "name": "C3",
                    "midi": 48,
                    "time": 33.71999999999981,
                    "velocity": 0.7874015748031497,
                    "duration": 0.12000000000000455
                },
                {
                    "name": "C4",
                    "midi": 60,
                    "time": 33.83999999999981,
                    "velocity": 0.7874015748031497,
                    "duration": 0.060000000000002274
                },
                {
                    "name": "A2",
                    "midi": 45,
                    "time": 33.899999999999814,
                    "velocity": 0.7874015748031497,
                    "duration": 0.060000000000002274
                },
                {
                    "name": "B2",
                    "midi": 47,
                    "time": 33.959999999999816,
                    "velocity": 0.7874015748031497,
                    "duration": 0.060000000000002274
                },
                {
                    "name": "C3",
                    "midi": 48,
                    "time": 34.01999999999982,
                    "velocity": 0.7874015748031497,
                    "duration": 0.060000000000002274
                },
                {
                    "name": "D2",
                    "midi": 38,
                    "time": 34.07999999999982,
                    "velocity": 0.7874015748031497,
                    "duration": 0.060000000000002274
                },
                {
                    "name": "C4",
                    "midi": 60,
                    "time": 34.13999999999982,
                    "velocity": 0.7874015748031497,
                    "duration": 0.060000000000002274
                },
                {
                    "name": "B3",
                    "midi": 59,
                    "time": 34.199999999999825,
                    "velocity": 0.7874015748031497,
                    "duration": 0.060000000000002274
                },
                {
                    "name": "C4",
                    "midi": 60,
                    "time": 34.25999999999983,
                    "velocity": 0.7874015748031497,
                    "duration": 0.060000000000002274
                },
                {
                    "name": "D4",
                    "midi": 62,
                    "time": 34.31999999999983,
                    "velocity": 0.7874015748031497,
                    "duration": 0.060000000000002274
                },
                {
                    "name": "B3",
                    "midi": 59,
                    "time": 34.37999999999983,
                    "velocity": 0.7874015748031497,
                    "duration": 0.060000000000002274
                },
                {
                    "name": "C4",
                    "midi": 60,
                    "time": 34.439999999999834,
                    "velocity": 0.7874015748031497,
                    "duration": 0.060000000000002274
                },
                {
                    "name": "A3",
                    "midi": 57,
                    "time": 34.49999999999984,
                    "velocity": 0.7874015748031497,
                    "duration": 0.060000000000002274
                },
                {
                    "name": "G#3",
                    "midi": 56,
                    "time": 34.55999999999984,
                    "velocity": 0.7874015748031497,
                    "duration": 0.12000000000001165
                },
                {
                    "name": "E3",
                    "midi": 52,
                    "time": 34.67999999999985,
                    "velocity": 0.7874015748031497,
                    "duration": 0.12000000000000455
                },
                {
                    "name": "B3",
                    "midi": 59,
                    "time": 34.799999999999855,
                    "velocity": 0.7874015748031497,
                    "duration": 0.060000000000002274
                },
                {
                    "name": "D3",
                    "midi": 50,
                    "time": 34.85999999999986,
                    "velocity": 0.7874015748031497,
                    "duration": 0.060000000000002274
                },
                {
                    "name": "C3",
                    "midi": 48,
                    "time": 34.91999999999986,
                    "velocity": 0.7874015748031497,
                    "duration": 0.060000000000002274
                },
                {
                    "name": "B2",
                    "midi": 47,
                    "time": 34.97999999999986,
                    "velocity": 0.7874015748031497,
                    "duration": 0.060000000000002274
                },
                {
                    "name": "C3",
                    "midi": 48,
                    "time": 35.039999999999864,
                    "velocity": 0.7874015748031497,
                    "duration": 0.060000000000002274
                },
                {
                    "name": "E3",
                    "midi": 52,
                    "time": 35.099999999999866,
                    "velocity": 0.7874015748031497,
                    "duration": 0.060000000000002274
                },
                {
                    "name": "F#3",
                    "midi": 54,
                    "time": 35.15999999999987,
                    "velocity": 0.7874015748031497,
                    "duration": 0.060000000000002274
                },
                {
                    "name": "G#3",
                    "midi": 56,
                    "time": 35.21999999999987,
                    "velocity": 0.7874015748031497,
                    "duration": 0.060000000000002274
                },
                {
                    "name": "A3",
                    "midi": 57,
                    "time": 35.27999999999987,
                    "velocity": 0.7874015748031497,
                    "duration": 0.060000000000002274
                },
                {
                    "name": "C4",
                    "midi": 60,
                    "time": 35.339999999999876,
                    "velocity": 0.7874015748031497,
                    "duration": 0.060000000000002274
                },
                {
                    "name": "B3",
                    "midi": 59,
                    "time": 35.39999999999988,
                    "velocity": 0.7874015748031497,
                    "duration": 0.060000000000002274
                },
                {
                    "name": "A3",
                    "midi": 57,
                    "time": 35.45999999999988,
                    "velocity": 0.7874015748031497,
                    "duration": 0.060000000000002274
                },
                {
                    "name": "D4",
                    "midi": 62,
                    "time": 35.51999999999988,
                    "velocity": 0.7874015748031497,
                    "duration": 0.11999999999999744
                },
                {
                    "name": "B2",
                    "midi": 47,
                    "time": 35.63999999999988,
                    "velocity": 0.7874015748031497,
                    "duration": 0.060000000000002274
                },
                {
                    "name": "C3",
                    "midi": 48,
                    "time": 35.69999999999988,
                    "velocity": 0.7874015748031497,
                    "duration": 0.060000000000002274
                },
                {
                    "name": "D3",
                    "midi": 50,
                    "time": 35.759999999999884,
                    "velocity": 0.7874015748031497,
                    "duration": 0.060000000000002274
                },
                {
                    "name": "E3",
                    "midi": 52,
                    "time": 35.81999999999989,
                    "velocity": 0.7874015748031497,
                    "duration": 0.060000000000002274
                },
                {
                    "name": "F3",
                    "midi": 53,
                    "time": 35.87999999999989,
                    "velocity": 0.7874015748031497,
                    "duration": 0.060000000000002274
                },
                {
                    "name": "A2",
                    "midi": 45,
                    "time": 35.93999999999989,
                    "velocity": 0.7874015748031497,
                    "duration": 0.060000000000002274
                },
                {
                    "name": "G#2",
                    "midi": 44,
                    "time": 35.99999999999989,
                    "velocity": 0.7874015748031497,
                    "duration": 0.18000000000000682
                },
                {
                    "name": "E3",
                    "midi": 52,
                    "time": 36.1799999999999,
                    "velocity": 0.7874015748031497,
                    "duration": 0.060000000000002274
                },
                {
                    "name": "B3",
                    "midi": 59,
                    "time": 36.2399999999999,
                    "velocity": 0.7874015748031497,
                    "duration": 0.060000000000002274
                },
                {
                    "name": "D4",
                    "midi": 62,
                    "time": 36.299999999999905,
                    "velocity": 0.7874015748031497,
                    "duration": 0.060000000000002274
                },
                {
                    "name": "C4",
                    "midi": 60,
                    "time": 36.35999999999991,
                    "velocity": 0.7874015748031497,
                    "duration": 0.060000000000002274
                },
                {
                    "name": "B3",
                    "midi": 59,
                    "time": 36.41999999999991,
                    "velocity": 0.7874015748031497,
                    "duration": 0.060000000000002274
                },
                {
                    "name": "C4",
                    "midi": 60,
                    "time": 36.47999999999991,
                    "velocity": 0.7874015748031497,
                    "duration": 0.17999999999999972
                },
                {
                    "name": "B3",
                    "midi": 59,
                    "time": 36.65999999999991,
                    "velocity": 0.7874015748031497,
                    "duration": 0.060000000000002274
                },
                {
                    "name": "A3",
                    "midi": 57,
                    "time": 36.719999999999914,
                    "velocity": 0.7874015748031497,
                    "duration": 0.060000000000002274
                },
                {
                    "name": "G3",
                    "midi": 55,
                    "time": 36.779999999999916,
                    "velocity": 0.7874015748031497,
                    "duration": 0.060000000000002274
                },
                {
                    "name": "F3",
                    "midi": 53,
                    "time": 36.83999999999992,
                    "velocity": 0.7874015748031497,
                    "duration": 0.060000000000002274
                },
                {
                    "name": "E3",
                    "midi": 52,
                    "time": 36.89999999999992,
                    "velocity": 0.7874015748031497,
                    "duration": 0.060000000000002274
                },
                {
                    "name": "F3",
                    "midi": 53,
                    "time": 36.95999999999992,
                    "velocity": 0.7874015748031497,
                    "duration": 0.060000000000002274
                },
                {
                    "name": "D3",
                    "midi": 50,
                    "time": 37.019999999999925,
                    "velocity": 0.7874015748031497,
                    "duration": 0.060000000000002274
                },
                {
                    "name": "A#3",
                    "midi": 58,
                    "time": 37.07999999999993,
                    "velocity": 0.7874015748031497,
                    "duration": 0.060000000000002274
                },
                {
                    "name": "A3",
                    "midi": 57,
                    "time": 37.13999999999993,
                    "velocity": 0.7874015748031497,
                    "duration": 0.060000000000002274
                },
                {
                    "name": "A#3",
                    "midi": 58,
                    "time": 37.19999999999993,
                    "velocity": 0.7874015748031497,
                    "duration": 0.060000000000002274
                },
                {
                    "name": "C4",
                    "midi": 60,
                    "time": 37.259999999999934,
                    "velocity": 0.7874015748031497,
                    "duration": 0.060000000000002274
                },
                {
                    "name": "D4",
                    "midi": 62,
                    "time": 37.319999999999936,
                    "velocity": 0.7874015748031497,
                    "duration": 0.060000000000002274
                },
                {
                    "name": "A3",
                    "midi": 57,
                    "time": 37.37999999999994,
                    "velocity": 0.7874015748031497,
                    "duration": 0.060000000000002274
                },
                {
                    "name": "G#3",
                    "midi": 56,
                    "time": 37.43999999999994,
                    "velocity": 0.7874015748031497,
                    "duration": 0.060000000000002274
                },
                {
                    "name": "A3",
                    "midi": 57,
                    "time": 37.49999999999994,
                    "velocity": 0.7874015748031497,
                    "duration": 0.060000000000002274
                },
                {
                    "name": "B3",
                    "midi": 59,
                    "time": 37.559999999999945,
                    "velocity": 0.7874015748031497,
                    "duration": 0.060000000000002274
                },
                {
                    "name": "E3",
                    "midi": 52,
                    "time": 37.61999999999995,
                    "velocity": 0.7874015748031497,
                    "duration": 0.060000000000002274
                },
                {
                    "name": "F3",
                    "midi": 53,
                    "time": 37.67999999999995,
                    "velocity": 0.7874015748031497,
                    "duration": 0.060000000000002274
                },
                {
                    "name": "D3",
                    "midi": 50,
                    "time": 37.73999999999995,
                    "velocity": 0.7874015748031497,
                    "duration": 0.060000000000002274
                },
                {
                    "name": "C3",
                    "midi": 48,
                    "time": 37.799999999999955,
                    "velocity": 0.7874015748031497,
                    "duration": 0.060000000000002274
                },
                {
                    "name": "B2",
                    "midi": 47,
                    "time": 37.85999999999996,
                    "velocity": 0.7874015748031497,
                    "duration": 0.060000000000002274
                },
                {
                    "name": "C3",
                    "midi": 48,
                    "time": 37.91999999999996,
                    "velocity": 0.7874015748031497,
                    "duration": 0.060000000000002274
                },
                {
                    "name": "E3",
                    "midi": 52,
                    "time": 37.97999999999996,
                    "velocity": 0.7874015748031497,
                    "duration": 0.060000000000002274
                },
                {
                    "name": "A3",
                    "midi": 57,
                    "time": 38.039999999999964,
                    "velocity": 0.7874015748031497,
                    "duration": 0.060000000000002274
                },
                {
                    "name": "B3",
                    "midi": 59,
                    "time": 38.099999999999966,
                    "velocity": 0.7874015748031497,
                    "duration": 0.060000000000002274
                },
                {
                    "name": "B3",
                    "midi": 59,
                    "time": 38.15999999999997,
                    "velocity": 0.7874015748031497,
                    "duration": 0.18000000000001393
                },
                {
                    "name": "A3",
                    "midi": 57,
                    "time": 38.33999999999998,
                    "velocity": 0.7874015748031497,
                    "duration": 0.060000000000002274
                },
                {
                    "name": "A3",
                    "midi": 57,
                    "time": 38.399999999999984,
                    "velocity": 0.7874015748031497,
                    "duration": 0.17999999999999972
                },
                {
                    "name": "B3",
                    "midi": 59,
                    "time": 38.579999999999984,
                    "velocity": 0.7874015748031497,
                    "duration": 0.060000000000002274
                },
                {
                    "name": "C4",
                    "midi": 60,
                    "time": 38.639999999999986,
                    "velocity": 0.7874015748031497,
                    "duration": 0.060000000000002274
                },
                {
                    "name": "B3",
                    "midi": 59,
                    "time": 38.69999999999999,
                    "velocity": 0.7874015748031497,
                    "duration": 0.060000000000002274
                },
                {
                    "name": "C4",
                    "midi": 60,
                    "time": 38.75999999999999,
                    "velocity": 0.7874015748031497,
                    "duration": 0.060000000000002274
                },
                {
                    "name": "G3",
                    "midi": 55,
                    "time": 38.81999999999999,
                    "velocity": 0.7874015748031497,
                    "duration": 0.060000000000002274
                },
                {
                    "name": "F#3",
                    "midi": 54,
                    "time": 38.879999999999995,
                    "velocity": 0.7874015748031497,
                    "duration": 0.060000000000002274
                },
                {
                    "name": "G3",
                    "midi": 55,
                    "time": 38.94,
                    "velocity": 0.7874015748031497,
                    "duration": 0.060000000000002274
                },
                {
                    "name": "A3",
                    "midi": 57,
                    "time": 39,
                    "velocity": 0.7874015748031497,
                    "duration": 0.060000000000002274
                },
                {
                    "name": "E3",
                    "midi": 52,
                    "time": 39.06,
                    "velocity": 0.7874015748031497,
                    "duration": 0.060000000000002274
                },
                {
                    "name": "D3",
                    "midi": 50,
                    "time": 39.120000000000005,
                    "velocity": 0.7874015748031497,
                    "duration": 0.060000000000002274
                },
                {
                    "name": "C3",
                    "midi": 48,
                    "time": 39.18000000000001,
                    "velocity": 0.7874015748031497,
                    "duration": 0.060000000000002274
                },
                {
                    "name": "B2",
                    "midi": 47,
                    "time": 39.24000000000001,
                    "velocity": 0.7874015748031497,
                    "duration": 0.060000000000002274
                },
                {
                    "name": "A2",
                    "midi": 45,
                    "time": 39.30000000000001,
                    "velocity": 0.7874015748031497,
                    "duration": 0.060000000000002274
                },
                {
                    "name": "G2",
                    "midi": 43,
                    "time": 39.360000000000014,
                    "velocity": 0.7874015748031497,
                    "duration": 0.060000000000002274
                },
                {
                    "name": "D3",
                    "midi": 50,
                    "time": 39.420000000000016,
                    "velocity": 0.7874015748031497,
                    "duration": 0.060000000000002274
                },
                {
                    "name": "F#3",
                    "midi": 54,
                    "time": 39.48000000000002,
                    "velocity": 0.7874015748031497,
                    "duration": 0.060000000000002274
                },
                {
                    "name": "C4",
                    "midi": 60,
                    "time": 39.54000000000002,
                    "velocity": 0.7874015748031497,
                    "duration": 0.060000000000002274
                },
                {
                    "name": "B3",
                    "midi": 59,
                    "time": 39.60000000000002,
                    "velocity": 0.7874015748031497,
                    "duration": 0.060000000000002274
                },
                {
                    "name": "A3",
                    "midi": 57,
                    "time": 39.660000000000025,
                    "velocity": 0.7874015748031497,
                    "duration": 0.060000000000002274
                },
                {
                    "name": "G3",
                    "midi": 55,
                    "time": 39.72000000000003,
                    "velocity": 0.7874015748031497,
                    "duration": 0.060000000000002274
                },
                {
                    "name": "A3",
                    "midi": 57,
                    "time": 39.78000000000003,
                    "velocity": 0.7874015748031497,
                    "duration": 0.060000000000002274
                },
                {
                    "name": "B3",
                    "midi": 59,
                    "time": 39.84000000000003,
                    "velocity": 0.7874015748031497,
                    "duration": 0.060000000000002274
                },
                {
                    "name": "C4",
                    "midi": 60,
                    "time": 39.900000000000034,
                    "velocity": 0.7874015748031497,
                    "duration": 0.060000000000002274
                },
                {
                    "name": "D4",
                    "midi": 62,
                    "time": 39.960000000000036,
                    "velocity": 0.7874015748031497,
                    "duration": 0.060000000000002274
                },
                {
                    "name": "E4",
                    "midi": 64,
                    "time": 40.02000000000004,
                    "velocity": 0.7874015748031497,
                    "duration": 0.060000000000002274
                },
                {
                    "name": "D4",
                    "midi": 62,
                    "time": 40.08000000000004,
                    "velocity": 0.7874015748031497,
                    "duration": 0.060000000000002274
                },
                {
                    "name": "E4",
                    "midi": 64,
                    "time": 40.14000000000004,
                    "velocity": 0.7874015748031497,
                    "duration": 0.060000000000002274
                },
                {
                    "name": "F4",
                    "midi": 65,
                    "time": 40.200000000000045,
                    "velocity": 0.7874015748031497,
                    "duration": 0.060000000000002274
                },
                {
                    "name": "D4",
                    "midi": 62,
                    "time": 40.26000000000005,
                    "velocity": 0.7874015748031497,
                    "duration": 0.060000000000002274
                },
                {
                    "name": "E4",
                    "midi": 64,
                    "time": 40.32000000000005,
                    "velocity": 0.7874015748031497,
                    "duration": 0.11999999999999744
                },
                {
                    "name": "G3",
                    "midi": 55,
                    "time": 40.44000000000005,
                    "velocity": 0.7874015748031497,
                    "duration": 0.11999999999999744
                },
                {
                    "name": "C3",
                    "midi": 48,
                    "time": 40.560000000000045,
                    "velocity": 0.7874015748031497,
                    "duration": 0.060000000000002274
                },
                {
                    "name": "D4",
                    "midi": 62,
                    "time": 40.62000000000005,
                    "velocity": 0.7874015748031497,
                    "duration": 0.060000000000002274
                },
                {
                    "name": "C4",
                    "midi": 60,
                    "time": 40.68000000000005,
                    "velocity": 0.7874015748031497,
                    "duration": 0.060000000000002274
                },
                {
                    "name": "B3",
                    "midi": 59,
                    "time": 40.74000000000005,
                    "velocity": 0.7874015748031497,
                    "duration": 0.060000000000002274
                },
                {
                    "name": "A3",
                    "midi": 57,
                    "time": 40.800000000000054,
                    "velocity": 0.7874015748031497,
                    "duration": 0.060000000000002274
                },
                {
                    "name": "B3",
                    "midi": 59,
                    "time": 40.860000000000056,
                    "velocity": 0.7874015748031497,
                    "duration": 0.060000000000002274
                },
                {
                    "name": "C4",
                    "midi": 60,
                    "time": 40.92000000000006,
                    "velocity": 0.7874015748031497,
                    "duration": 0.060000000000002274
                },
                {
                    "name": "E4",
                    "midi": 64,
                    "time": 40.98000000000006,
                    "velocity": 0.7874015748031497,
                    "duration": 0.060000000000002274
                },
                {
                    "name": "D4",
                    "midi": 62,
                    "time": 41.04000000000006,
                    "velocity": 0.7874015748031497,
                    "duration": 0.17999999999999972
                },
                {
                    "name": "C4",
                    "midi": 60,
                    "time": 41.22000000000006,
                    "velocity": 0.7874015748031497,
                    "duration": 0.060000000000002274
                },
                {
                    "name": "D4",
                    "midi": 62,
                    "time": 41.280000000000065,
                    "velocity": 0.7874015748031497,
                    "duration": 0.11999999999999744
                },
                {
                    "name": "A3",
                    "midi": 57,
                    "time": 41.40000000000006,
                    "velocity": 0.7874015748031497,
                    "duration": 0.11999999999999744
                },
                {
                    "name": "B2",
                    "midi": 47,
                    "time": 41.52000000000006,
                    "velocity": 0.7874015748031497,
                    "duration": 0.060000000000002274
                },
                {
                    "name": "C4",
                    "midi": 60,
                    "time": 41.58000000000006,
                    "velocity": 0.7874015748031497,
                    "duration": 0.060000000000002274
                },
                {
                    "name": "B3",
                    "midi": 59,
                    "time": 41.640000000000065,
                    "velocity": 0.7874015748031497,
                    "duration": 0.060000000000002274
                },
                {
                    "name": "A3",
                    "midi": 57,
                    "time": 41.70000000000007,
                    "velocity": 0.7874015748031497,
                    "duration": 0.060000000000002274
                },
                {
                    "name": "G3",
                    "midi": 55,
                    "time": 41.76000000000007,
                    "velocity": 0.7874015748031497,
                    "duration": 0.060000000000002274
                },
                {
                    "name": "F#3",
                    "midi": 54,
                    "time": 41.82000000000007,
                    "velocity": 0.7874015748031497,
                    "duration": 0.060000000000002274
                },
                {
                    "name": "E3",
                    "midi": 52,
                    "time": 41.880000000000074,
                    "velocity": 0.7874015748031497,
                    "duration": 0.060000000000002274
                },
                {
                    "name": "G3",
                    "midi": 55,
                    "time": 41.940000000000076,
                    "velocity": 0.7874015748031497,
                    "duration": 0.060000000000002274
                },
                {
                    "name": "B3",
                    "midi": 59,
                    "time": 42.00000000000008,
                    "velocity": 0.7874015748031497,
                    "duration": 0.060000000000002274
                },
                {
                    "name": "D4",
                    "midi": 62,
                    "time": 42.06000000000008,
                    "velocity": 0.7874015748031497,
                    "duration": 0.060000000000002274
                },
                {
                    "name": "C4",
                    "midi": 60,
                    "time": 42.12000000000008,
                    "velocity": 0.7874015748031497,
                    "duration": 0.060000000000002274
                },
                {
                    "name": "B3",
                    "midi": 59,
                    "time": 42.180000000000085,
                    "velocity": 0.7874015748031497,
                    "duration": 0.060000000000002274
                },
                {
                    "name": "C4",
                    "midi": 60,
                    "time": 42.24000000000009,
                    "velocity": 0.7874015748031497,
                    "duration": 0.11999999999999744
                },
                {
                    "name": "G3",
                    "midi": 55,
                    "time": 42.360000000000085,
                    "velocity": 0.7874015748031497,
                    "duration": 0.11999999999999744
                },
                {
                    "name": "A2",
                    "midi": 45,
                    "time": 42.48000000000008,
                    "velocity": 0.7874015748031497,
                    "duration": 0.060000000000002274
                },
                {
                    "name": "E3",
                    "midi": 52,
                    "time": 42.540000000000084,
                    "velocity": 0.7874015748031497,
                    "duration": 0.060000000000002274
                },
                {
                    "name": "F#3",
                    "midi": 54,
                    "time": 42.60000000000009,
                    "velocity": 0.7874015748031497,
                    "duration": 0.060000000000002274
                },
                {
                    "name": "G3",
                    "midi": 55,
                    "time": 42.66000000000009,
                    "velocity": 0.7874015748031497,
                    "duration": 0.060000000000002274
                },
                {
                    "name": "F#3",
                    "midi": 54,
                    "time": 42.72000000000009,
                    "velocity": 0.7874015748031497,
                    "duration": 0.060000000000002274
                },
                {
                    "name": "A3",
                    "midi": 57,
                    "time": 42.78000000000009,
                    "velocity": 0.7874015748031497,
                    "duration": 0.060000000000002274
                },
                {
                    "name": "B3",
                    "midi": 59,
                    "time": 42.840000000000096,
                    "velocity": 0.7874015748031497,
                    "duration": 0.060000000000002274
                },
                {
                    "name": "C4",
                    "midi": 60,
                    "time": 42.9000000000001,
                    "velocity": 0.7874015748031497,
                    "duration": 0.060000000000002274
                },
                {
                    "name": "D3",
                    "midi": 50,
                    "time": 42.9600000000001,
                    "velocity": 0.7874015748031497,
                    "duration": 0.060000000000002274
                },
                {
                    "name": "C3",
                    "midi": 48,
                    "time": 43.0200000000001,
                    "velocity": 0.7874015748031497,
                    "duration": 0.060000000000002274
                },
                {
                    "name": "B2",
                    "midi": 47,
                    "time": 43.080000000000105,
                    "velocity": 0.7874015748031497,
                    "duration": 0.060000000000002274
                },
                {
                    "name": "A2",
                    "midi": 45,
                    "time": 43.14000000000011,
                    "velocity": 0.7874015748031497,
                    "duration": 0.060000000000002274
                },
                {
                    "name": "G2",
                    "midi": 43,
                    "time": 43.20000000000011,
                    "velocity": 0.7874015748031497,
                    "duration": 0.060000000000002274
                },
                {
                    "name": "D3",
                    "midi": 50,
                    "time": 43.26000000000011,
                    "velocity": 0.7874015748031497,
                    "duration": 0.060000000000002274
                },
                {
                    "name": "F#3",
                    "midi": 54,
                    "time": 43.320000000000114,
                    "velocity": 0.7874015748031497,
                    "duration": 0.060000000000002274
                },
                {
                    "name": "A3",
                    "midi": 57,
                    "time": 43.380000000000116,
                    "velocity": 0.7874015748031497,
                    "duration": 0.060000000000002274
                },
                {
                    "name": "C4",
                    "midi": 60,
                    "time": 43.44000000000012,
                    "velocity": 0.7874015748031497,
                    "duration": 0.060000000000002274
                },
                {
                    "name": "A3",
                    "midi": 57,
                    "time": 43.50000000000012,
                    "velocity": 0.7874015748031497,
                    "duration": 0.060000000000002274
                },
                {
                    "name": "F#3",
                    "midi": 54,
                    "time": 43.56000000000012,
                    "velocity": 0.7874015748031497,
                    "duration": 0.060000000000002274
                },
                {
                    "name": "D3",
                    "midi": 50,
                    "time": 43.620000000000125,
                    "velocity": 0.7874015748031497,
                    "duration": 0.060000000000002274
                },
                {
                    "name": "G2",
                    "midi": 43,
                    "time": 43.68000000000013,
                    "velocity": 0.7874015748031497,
                    "duration": 0.17999999999999972
                },
                {
                    "name": "D3",
                    "midi": 50,
                    "time": 43.86000000000013,
                    "velocity": 0.7874015748031497,
                    "duration": 0.060000000000002274
                },
                {
                    "name": "E3",
                    "midi": 52,
                    "time": 43.92000000000013,
                    "velocity": 0.7874015748031497,
                    "duration": 0.060000000000002274
                },
                {
                    "name": "G3",
                    "midi": 55,
                    "time": 43.98000000000013,
                    "velocity": 0.7874015748031497,
                    "duration": 0.060000000000002274
                },
                {
                    "name": "A3",
                    "midi": 57,
                    "time": 44.040000000000134,
                    "velocity": 0.7874015748031497,
                    "duration": 0.060000000000002274
                },
                {
                    "name": "C#4",
                    "midi": 61,
                    "time": 44.100000000000136,
                    "velocity": 0.7874015748031497,
                    "duration": 0.060000000000002274
                },
                {
                    "name": "D4",
                    "midi": 62,
                    "time": 44.16000000000014,
                    "velocity": 0.7874015748031497,
                    "duration": 0.060000000000002274
                },
                {
                    "name": "A3",
                    "midi": 57,
                    "time": 44.22000000000014,
                    "velocity": 0.7874015748031497,
                    "duration": 0.060000000000002274
                },
                {
                    "name": "F#3",
                    "midi": 54,
                    "time": 44.28000000000014,
                    "velocity": 0.7874015748031497,
                    "duration": 0.060000000000002274
                },
                {
                    "name": "E3",
                    "midi": 52,
                    "time": 44.340000000000146,
                    "velocity": 0.7874015748031497,
                    "duration": 0.060000000000002274
                },
                {
                    "name": "D3",
                    "midi": 50,
                    "time": 44.40000000000015,
                    "velocity": 0.7874015748031497,
                    "duration": 0.060000000000002274
                },
                {
                    "name": "F3",
                    "midi": 53,
                    "time": 44.46000000000015,
                    "velocity": 0.7874015748031497,
                    "duration": 0.060000000000002274
                },
                {
                    "name": "G3",
                    "midi": 55,
                    "time": 44.52000000000015,
                    "velocity": 0.7874015748031497,
                    "duration": 0.060000000000002274
                },
                {
                    "name": "B3",
                    "midi": 59,
                    "time": 44.580000000000155,
                    "velocity": 0.7874015748031497,
                    "duration": 0.060000000000002274
                },
                {
                    "name": "C4",
                    "midi": 60,
                    "time": 44.64000000000016,
                    "velocity": 0.7874015748031497,
                    "duration": 0.060000000000002274
                },
                {
                    "name": "G3",
                    "midi": 55,
                    "time": 44.70000000000016,
                    "velocity": 0.7874015748031497,
                    "duration": 0.060000000000002274
                },
                {
                    "name": "E3",
                    "midi": 52,
                    "time": 44.76000000000016,
                    "velocity": 0.7874015748031497,
                    "duration": 0.060000000000002274
                },
                {
                    "name": "D3",
                    "midi": 50,
                    "time": 44.820000000000164,
                    "velocity": 0.7874015748031497,
                    "duration": 0.060000000000002274
                },
                {
                    "name": "C3",
                    "midi": 48,
                    "time": 44.880000000000166,
                    "velocity": 0.7874015748031497,
                    "duration": 0.060000000000002274
                },
                {
                    "name": "E3",
                    "midi": 52,
                    "time": 44.94000000000017,
                    "velocity": 0.7874015748031497,
                    "duration": 0.060000000000002274
                },
                {
                    "name": "A3",
                    "midi": 57,
                    "time": 45.00000000000017,
                    "velocity": 0.7874015748031497,
                    "duration": 0.060000000000002274
                },
                {
                    "name": "C4",
                    "midi": 60,
                    "time": 45.06000000000017,
                    "velocity": 0.7874015748031497,
                    "duration": 0.060000000000002274
                },
                {
                    "name": "F#3",
                    "midi": 54,
                    "time": 45.120000000000175,
                    "velocity": 0.7874015748031497,
                    "duration": 0.060000000000002274
                },
                {
                    "name": "A3",
                    "midi": 57,
                    "time": 45.18000000000018,
                    "velocity": 0.7874015748031497,
                    "duration": 0.060000000000002274
                },
                {
                    "name": "C4",
                    "midi": 60,
                    "time": 45.24000000000018,
                    "velocity": 0.7874015748031497,
                    "duration": 0.060000000000002274
                },
                {
                    "name": "E4",
                    "midi": 64,
                    "time": 45.30000000000018,
                    "velocity": 0.7874015748031497,
                    "duration": 0.060000000000002274
                },
                {
                    "name": "D4",
                    "midi": 62,
                    "time": 45.360000000000184,
                    "velocity": 0.7874015748031497,
                    "duration": 0.17999999999999972
                },
                {
                    "name": "C3",
                    "midi": 48,
                    "time": 45.540000000000184,
                    "velocity": 0.7874015748031497,
                    "duration": 0.060000000000002274
                },
                {
                    "name": "B2",
                    "midi": 47,
                    "time": 45.600000000000186,
                    "velocity": 0.7874015748031497,
                    "duration": 0.060000000000002274
                },
                {
                    "name": "G3",
                    "midi": 55,
                    "time": 45.66000000000019,
                    "velocity": 0.7874015748031497,
                    "duration": 0.060000000000002274
                },
                {
                    "name": "A2",
                    "midi": 45,
                    "time": 45.72000000000019,
                    "velocity": 0.7874015748031497,
                    "duration": 0.060000000000002274
                },
                {
                    "name": "G2",
                    "midi": 43,
                    "time": 45.78000000000019,
                    "velocity": 0.7874015748031497,
                    "duration": 0.060000000000002274
                },
                {
                    "name": "D2",
                    "midi": 38,
                    "time": 45.840000000000195,
                    "velocity": 0.7874015748031497,
                    "duration": 0.060000000000002274
                },
                {
                    "name": "A2",
                    "midi": 45,
                    "time": 45.9000000000002,
                    "velocity": 0.7874015748031497,
                    "duration": 0.060000000000002274
                },
                {
                    "name": "G3",
                    "midi": 55,
                    "time": 45.9600000000002,
                    "velocity": 0.7874015748031497,
                    "duration": 0.060000000000002274
                },
                {
                    "name": "F#3",
                    "midi": 54,
                    "time": 46.0200000000002,
                    "velocity": 0.7874015748031497,
                    "duration": 0.060000000000002274
                },
                {
                    "name": "G3",
                    "midi": 55,
                    "time": 46.080000000000204,
                    "velocity": 0.7874015748031497,
                    "duration": 0.060000000000002274
                },
                {
                    "name": "G2",
                    "midi": 43,
                    "time": 46.14000000000021,
                    "velocity": 0.7874015748031497,
                    "duration": 0.060000000000002274
                },
                {
                    "name": "B2",
                    "midi": 47,
                    "time": 46.20000000000021,
                    "velocity": 0.7874015748031497,
                    "duration": 0.060000000000002274
                },
                {
                    "name": "D3",
                    "midi": 50,
                    "time": 46.26000000000021,
                    "velocity": 0.7874015748031497,
                    "duration": 0.060000000000002274
                },
                {
                    "name": "G3",
                    "midi": 55,
                    "time": 46.32000000000021,
                    "velocity": 0.7874015748031497,
                    "duration": 0.060000000000002274
                },
                {
                    "name": "B3",
                    "midi": 59,
                    "time": 46.380000000000216,
                    "velocity": 0.7874015748031497,
                    "duration": 0.060000000000002274
                },
                {
                    "name": "D4",
                    "midi": 62,
                    "time": 46.44000000000022,
                    "velocity": 0.7874015748031497,
                    "duration": 0.060000000000002274
                },
                {
                    "name": "F#4",
                    "midi": 66,
                    "time": 46.50000000000022,
                    "velocity": 0.7874015748031497,
                    "duration": 0.060000000000002274
                },
                {
                    "name": "G4",
                    "midi": 67,
                    "time": 46.56000000000022,
                    "velocity": 0.7874015748031497,
                    "duration": 0.060000000000002274
                },
                {
                    "name": "D4",
                    "midi": 62,
                    "time": 46.620000000000225,
                    "velocity": 0.7874015748031497,
                    "duration": 0.060000000000002274
                },
                {
                    "name": "B3",
                    "midi": 59,
                    "time": 46.68000000000023,
                    "velocity": 0.7874015748031497,
                    "duration": 0.060000000000002274
                },
                {
                    "name": "G3",
                    "midi": 55,
                    "time": 46.74000000000023,
                    "velocity": 0.7874015748031497,
                    "duration": 0.060000000000002274
                },
                {
                    "name": "G2",
                    "midi": 43,
                    "time": 46.80000000000023,
                    "velocity": 0.7874015748031497,
                    "duration": 0.1700000000000017
                },
                {
                    "name": "A3",
                    "midi": 57,
                    "time": 46.98000000000023,
                    "velocity": 0.7874015748031497,
                    "duration": 0.060000000000002274
                },
                {
                    "name": "A3",
                    "midi": 57,
                    "time": 47.040000000000234,
                    "velocity": 0.7874015748031497,
                    "duration": 0.29999999999999716
                },
                {
                    "name": "F#3",
                    "midi": 54,
                    "time": 47.34000000000023,
                    "velocity": 0.7874015748031497,
                    "duration": 0.060000000000002274
                },
                {
                    "name": "G3",
                    "midi": 55,
                    "time": 47.40000000000023,
                    "velocity": 0.7874015748031497,
                    "duration": 0.060000000000002274
                },
                {
                    "name": "A3",
                    "midi": 57,
                    "time": 47.460000000000235,
                    "velocity": 0.7874015748031497,
                    "duration": 0.060000000000002274
                },
                {
                    "name": "D3",
                    "midi": 50,
                    "time": 47.52000000000024,
                    "velocity": 0.7874015748031497,
                    "duration": 0.060000000000002274
                },
                {
                    "name": "E3",
                    "midi": 52,
                    "time": 47.58000000000024,
                    "velocity": 0.7874015748031497,
                    "duration": 0.060000000000002274
                },
                {
                    "name": "F#3",
                    "midi": 54,
                    "time": 47.64000000000024,
                    "velocity": 0.7874015748031497,
                    "duration": 0.060000000000002274
                },
                {
                    "name": "G3",
                    "midi": 55,
                    "time": 47.700000000000244,
                    "velocity": 0.7874015748031497,
                    "duration": 0.060000000000002274
                },
                {
                    "name": "A3",
                    "midi": 57,
                    "time": 47.76000000000025,
                    "velocity": 0.7874015748031497,
                    "duration": 0.060000000000002274
                },
                {
                    "name": "F#3",
                    "midi": 54,
                    "time": 47.82000000000025,
                    "velocity": 0.7874015748031497,
                    "duration": 0.060000000000002274
                },
                {
                    "name": "D3",
                    "midi": 50,
                    "time": 47.88000000000025,
                    "velocity": 0.7874015748031497,
                    "duration": 0.060000000000002274
                },
                {
                    "name": "C3",
                    "midi": 48,
                    "time": 47.94000000000025,
                    "velocity": 0.7874015748031497,
                    "duration": 0.060000000000002274
                },
                {
                    "name": "B2",
                    "midi": 47,
                    "time": 48.000000000000256,
                    "velocity": 0.7874015748031497,
                    "duration": 0.060000000000002274
                },
                {
                    "name": "D3",
                    "midi": 50,
                    "time": 48.06000000000026,
                    "velocity": 0.7874015748031497,
                    "duration": 0.060000000000002274
                },
                {
                    "name": "G3",
                    "midi": 55,
                    "time": 48.12000000000026,
                    "velocity": 0.7874015748031497,
                    "duration": 0.060000000000002274
                },
                {
                    "name": "F#3",
                    "midi": 54,
                    "time": 48.18000000000026,
                    "velocity": 0.7874015748031497,
                    "duration": 0.060000000000002274
                },
                {
                    "name": "G3",
                    "midi": 55,
                    "time": 48.240000000000265,
                    "velocity": 0.7874015748031497,
                    "duration": 0.060000000000002274
                },
                {
                    "name": "A3",
                    "midi": 57,
                    "time": 48.30000000000027,
                    "velocity": 0.7874015748031497,
                    "duration": 0.060000000000002274
                },
                {
                    "name": "B3",
                    "midi": 59,
                    "time": 48.36000000000027,
                    "velocity": 0.7874015748031497,
                    "duration": 0.060000000000002274
                },
                {
                    "name": "C4",
                    "midi": 60,
                    "time": 48.42000000000027,
                    "velocity": 0.7874015748031497,
                    "duration": 0.060000000000002274
                },
                {
                    "name": "D4",
                    "midi": 62,
                    "time": 48.480000000000274,
                    "velocity": 0.7874015748031497,
                    "duration": 0.060000000000002274
                },
                {
                    "name": "B3",
                    "midi": 59,
                    "time": 48.540000000000276,
                    "velocity": 0.7874015748031497,
                    "duration": 0.060000000000002274
                },
                {
                    "name": "A3",
                    "midi": 57,
                    "time": 48.60000000000028,
                    "velocity": 0.7874015748031497,
                    "duration": 0.060000000000002274
                },
                {
                    "name": "G3",
                    "midi": 55,
                    "time": 48.66000000000028,
                    "velocity": 0.7874015748031497,
                    "duration": 0.060000000000002274
                },
                {
                    "name": "F3",
                    "midi": 53,
                    "time": 48.72000000000028,
                    "velocity": 0.7874015748031497,
                    "duration": 0.060000000000002274
                },
                {
                    "name": "E3",
                    "midi": 52,
                    "time": 48.780000000000285,
                    "velocity": 0.7874015748031497,
                    "duration": 0.060000000000002274
                },
                {
                    "name": "F3",
                    "midi": 53,
                    "time": 48.84000000000029,
                    "velocity": 0.7874015748031497,
                    "duration": 0.060000000000002274
                },
                {
                    "name": "D4",
                    "midi": 62,
                    "time": 48.90000000000029,
                    "velocity": 0.7874015748031497,
                    "duration": 0.060000000000002274
                },
                {
                    "name": "E3",
                    "midi": 52,
                    "time": 48.96000000000029,
                    "velocity": 0.7874015748031497,
                    "duration": 0.12000000000001165
                },
                {
                    "name": "C3",
                    "midi": 48,
                    "time": 49.080000000000304,
                    "velocity": 0.7874015748031497,
                    "duration": 0.12000000000000455
                },
                {
                    "name": "C4",
                    "midi": 60,
                    "time": 49.20000000000031,
                    "velocity": 0.7874015748031497,
                    "duration": 0.060000000000002274
                },
                {
                    "name": "A2",
                    "midi": 45,
                    "time": 49.26000000000031,
                    "velocity": 0.7874015748031497,
                    "duration": 0.060000000000002274
                },
                {
                    "name": "B2",
                    "midi": 47,
                    "time": 49.32000000000031,
                    "velocity": 0.7874015748031497,
                    "duration": 0.060000000000002274
                },
                {
                    "name": "C3",
                    "midi": 48,
                    "time": 49.380000000000315,
                    "velocity": 0.7874015748031497,
                    "duration": 0.060000000000002274
                },
                {
                    "name": "D2",
                    "midi": 38,
                    "time": 49.44000000000032,
                    "velocity": 0.7874015748031497,
                    "duration": 0.060000000000002274
                },
                {
                    "name": "C4",
                    "midi": 60,
                    "time": 49.50000000000032,
                    "velocity": 0.7874015748031497,
                    "duration": 0.060000000000002274
                },
                {
                    "name": "B3",
                    "midi": 59,
                    "time": 49.56000000000032,
                    "velocity": 0.7874015748031497,
                    "duration": 0.060000000000002274
                },
                {
                    "name": "C4",
                    "midi": 60,
                    "time": 49.620000000000324,
                    "velocity": 0.7874015748031497,
                    "duration": 0.060000000000002274
                },
                {
                    "name": "D4",
                    "midi": 62,
                    "time": 49.68000000000033,
                    "velocity": 0.7874015748031497,
                    "duration": 0.060000000000002274
                },
                {
                    "name": "B3",
                    "midi": 59,
                    "time": 49.74000000000033,
                    "velocity": 0.7874015748031497,
                    "duration": 0.060000000000002274
                },
                {
                    "name": "C4",
                    "midi": 60,
                    "time": 49.80000000000033,
                    "velocity": 0.7874015748031497,
                    "duration": 0.060000000000002274
                },
                {
                    "name": "A3",
                    "midi": 57,
                    "time": 49.86000000000033,
                    "velocity": 0.7874015748031497,
                    "duration": 0.060000000000002274
                },
                {
                    "name": "G#3",
                    "midi": 56,
                    "time": 49.920000000000336,
                    "velocity": 0.7874015748031497,
                    "duration": 0.12000000000001165
                },
                {
                    "name": "E3",
                    "midi": 52,
                    "time": 50.04000000000035,
                    "velocity": 0.7874015748031497,
                    "duration": 0.12000000000000455
                },
                {
                    "name": "B3",
                    "midi": 59,
                    "time": 50.16000000000035,
                    "velocity": 0.7874015748031497,
                    "duration": 0.060000000000002274
                },
                {
                    "name": "D3",
                    "midi": 50,
                    "time": 50.220000000000354,
                    "velocity": 0.7874015748031497,
                    "duration": 0.060000000000002274
                },
                {
                    "name": "C3",
                    "midi": 48,
                    "time": 50.280000000000356,
                    "velocity": 0.7874015748031497,
                    "duration": 0.060000000000002274
                },
                {
                    "name": "B2",
                    "midi": 47,
                    "time": 50.34000000000036,
                    "velocity": 0.7874015748031497,
                    "duration": 0.060000000000002274
                },
                {
                    "name": "C3",
                    "midi": 48,
                    "time": 50.40000000000036,
                    "velocity": 0.7874015748031497,
                    "duration": 0.060000000000002274
                },
                {
                    "name": "E3",
                    "midi": 52,
                    "time": 50.46000000000036,
                    "velocity": 0.7874015748031497,
                    "duration": 0.060000000000002274
                },
                {
                    "name": "F#3",
                    "midi": 54,
                    "time": 50.520000000000366,
                    "velocity": 0.7874015748031497,
                    "duration": 0.060000000000002274
                },
                {
                    "name": "G#3",
                    "midi": 56,
                    "time": 50.58000000000037,
                    "velocity": 0.7874015748031497,
                    "duration": 0.060000000000002274
                },
                {
                    "name": "A3",
                    "midi": 57,
                    "time": 50.64000000000037,
                    "velocity": 0.7874015748031497,
                    "duration": 0.060000000000002274
                },
                {
                    "name": "C4",
                    "midi": 60,
                    "time": 50.70000000000037,
                    "velocity": 0.7874015748031497,
                    "duration": 0.060000000000002274
                },
                {
                    "name": "B3",
                    "midi": 59,
                    "time": 50.760000000000375,
                    "velocity": 0.7874015748031497,
                    "duration": 0.060000000000002274
                },
                {
                    "name": "A3",
                    "midi": 57,
                    "time": 50.82000000000038,
                    "velocity": 0.7874015748031497,
                    "duration": 0.060000000000002274
                },
                {
                    "name": "D4",
                    "midi": 62,
                    "time": 50.88000000000038,
                    "velocity": 0.7874015748031497,
                    "duration": 0.11999999999999744
                },
                {
                    "name": "B2",
                    "midi": 47,
                    "time": 51.00000000000038,
                    "velocity": 0.7874015748031497,
                    "duration": 0.060000000000002274
                },
                {
                    "name": "C3",
                    "midi": 48,
                    "time": 51.06000000000038,
                    "velocity": 0.7874015748031497,
                    "duration": 0.060000000000002274
                },
                {
                    "name": "D3",
                    "midi": 50,
                    "time": 51.12000000000038,
                    "velocity": 0.7874015748031497,
                    "duration": 0.060000000000002274
                },
                {
                    "name": "E3",
                    "midi": 52,
                    "time": 51.18000000000038,
                    "velocity": 0.7874015748031497,
                    "duration": 0.060000000000002274
                },
                {
                    "name": "F3",
                    "midi": 53,
                    "time": 51.240000000000386,
                    "velocity": 0.7874015748031497,
                    "duration": 0.060000000000002274
                },
                {
                    "name": "A2",
                    "midi": 45,
                    "time": 51.30000000000039,
                    "velocity": 0.7874015748031497,
                    "duration": 0.060000000000002274
                },
                {
                    "name": "G#2",
                    "midi": 44,
                    "time": 51.36000000000039,
                    "velocity": 0.7874015748031497,
                    "duration": 0.18000000000000682
                },
                {
                    "name": "E3",
                    "midi": 52,
                    "time": 51.5400000000004,
                    "velocity": 0.7874015748031497,
                    "duration": 0.060000000000002274
                },
                {
                    "name": "B3",
                    "midi": 59,
                    "time": 51.6000000000004,
                    "velocity": 0.7874015748031497,
                    "duration": 0.060000000000002274
                },
                {
                    "name": "D4",
                    "midi": 62,
                    "time": 51.6600000000004,
                    "velocity": 0.7874015748031497,
                    "duration": 0.060000000000002274
                },
                {
                    "name": "C4",
                    "midi": 60,
                    "time": 51.720000000000404,
                    "velocity": 0.7874015748031497,
                    "duration": 0.060000000000002274
                },
                {
                    "name": "B3",
                    "midi": 59,
                    "time": 51.780000000000406,
                    "velocity": 0.7874015748031497,
                    "duration": 0.060000000000002274
                },
                {
                    "name": "C4",
                    "midi": 60,
                    "time": 51.84000000000041,
                    "velocity": 0.7874015748031497,
                    "duration": 0.17999999999999972
                },
                {
                    "name": "B3",
                    "midi": 59,
                    "time": 52.02000000000041,
                    "velocity": 0.7874015748031497,
                    "duration": 0.060000000000002274
                },
                {
                    "name": "A3",
                    "midi": 57,
                    "time": 52.08000000000041,
                    "velocity": 0.7874015748031497,
                    "duration": 0.060000000000002274
                },
                {
                    "name": "G3",
                    "midi": 55,
                    "time": 52.14000000000041,
                    "velocity": 0.7874015748031497,
                    "duration": 0.060000000000002274
                },
                {
                    "name": "F3",
                    "midi": 53,
                    "time": 52.200000000000415,
                    "velocity": 0.7874015748031497,
                    "duration": 0.060000000000002274
                },
                {
                    "name": "E3",
                    "midi": 52,
                    "time": 52.26000000000042,
                    "velocity": 0.7874015748031497,
                    "duration": 0.060000000000002274
                },
                {
                    "name": "F3",
                    "midi": 53,
                    "time": 52.32000000000042,
                    "velocity": 0.7874015748031497,
                    "duration": 0.060000000000002274
                },
                {
                    "name": "D3",
                    "midi": 50,
                    "time": 52.38000000000042,
                    "velocity": 0.7874015748031497,
                    "duration": 0.060000000000002274
                },
                {
                    "name": "A#3",
                    "midi": 58,
                    "time": 52.440000000000424,
                    "velocity": 0.7874015748031497,
                    "duration": 0.060000000000002274
                },
                {
                    "name": "A3",
                    "midi": 57,
                    "time": 52.500000000000426,
                    "velocity": 0.7874015748031497,
                    "duration": 0.060000000000002274
                },
                {
                    "name": "A#3",
                    "midi": 58,
                    "time": 52.56000000000043,
                    "velocity": 0.7874015748031497,
                    "duration": 0.060000000000002274
                },
                {
                    "name": "C4",
                    "midi": 60,
                    "time": 52.62000000000043,
                    "velocity": 0.7874015748031497,
                    "duration": 0.060000000000002274
                },
                {
                    "name": "D4",
                    "midi": 62,
                    "time": 52.68000000000043,
                    "velocity": 0.7874015748031497,
                    "duration": 0.060000000000002274
                },
                {
                    "name": "A3",
                    "midi": 57,
                    "time": 52.740000000000435,
                    "velocity": 0.7874015748031497,
                    "duration": 0.060000000000002274
                },
                {
                    "name": "G#3",
                    "midi": 56,
                    "time": 52.80000000000044,
                    "velocity": 0.7874015748031497,
                    "duration": 0.060000000000002274
                },
                {
                    "name": "A3",
                    "midi": 57,
                    "time": 52.86000000000044,
                    "velocity": 0.7874015748031497,
                    "duration": 0.060000000000002274
                },
                {
                    "name": "B3",
                    "midi": 59,
                    "time": 52.92000000000044,
                    "velocity": 0.7874015748031497,
                    "duration": 0.060000000000002274
                },
                {
                    "name": "E3",
                    "midi": 52,
                    "time": 52.980000000000445,
                    "velocity": 0.7874015748031497,
                    "duration": 0.060000000000002274
                },
                {
                    "name": "F3",
                    "midi": 53,
                    "time": 53.04000000000045,
                    "velocity": 0.7874015748031497,
                    "duration": 0.060000000000002274
                },
                {
                    "name": "D3",
                    "midi": 50,
                    "time": 53.10000000000045,
                    "velocity": 0.7874015748031497,
                    "duration": 0.060000000000002274
                },
                {
                    "name": "C3",
                    "midi": 48,
                    "time": 53.16000000000045,
                    "velocity": 0.7874015748031497,
                    "duration": 0.060000000000002274
                },
                {
                    "name": "B2",
                    "midi": 47,
                    "time": 53.220000000000454,
                    "velocity": 0.7874015748031497,
                    "duration": 0.060000000000002274
                },
                {
                    "name": "C3",
                    "midi": 48,
                    "time": 53.280000000000456,
                    "velocity": 0.7874015748031497,
                    "duration": 0.060000000000002274
                },
                {
                    "name": "E3",
                    "midi": 52,
                    "time": 53.34000000000046,
                    "velocity": 0.7874015748031497,
                    "duration": 0.060000000000002274
                },
                {
                    "name": "A3",
                    "midi": 57,
                    "time": 53.40000000000046,
                    "velocity": 0.7874015748031497,
                    "duration": 0.060000000000002274
                },
                {
                    "name": "B3",
                    "midi": 59,
                    "time": 53.46000000000046,
                    "velocity": 0.7874015748031497,
                    "duration": 0.060000000000002274
                },
                {
                    "name": "B3",
                    "midi": 59,
                    "time": 53.520000000000465,
                    "velocity": 0.7874015748031497,
                    "duration": 0.18000000000001393
                },
                {
                    "name": "A3",
                    "midi": 57,
                    "time": 53.70000000000048,
                    "velocity": 0.7874015748031497,
                    "duration": 0.060000000000002274
                },
                {
                    "name": "A3",
                    "midi": 57,
                    "time": 53.76000000000048,
                    "velocity": 0.7874015748031497,
                    "duration": 0.17999999999999972
                },
                {
                    "name": "B3",
                    "midi": 59,
                    "time": 53.94000000000048,
                    "velocity": 0.7874015748031497,
                    "duration": 0.060000000000002274
                },
                {
                    "name": "C4",
                    "midi": 60,
                    "time": 54.00000000000048,
                    "velocity": 0.7874015748031497,
                    "duration": 0.060000000000002274
                },
                {
                    "name": "B3",
                    "midi": 59,
                    "time": 54.060000000000485,
                    "velocity": 0.7874015748031497,
                    "duration": 0.060000000000002274
                },
                {
                    "name": "C4",
                    "midi": 60,
                    "time": 54.12000000000049,
                    "velocity": 0.7874015748031497,
                    "duration": 0.060000000000002274
                },
                {
                    "name": "G3",
                    "midi": 55,
                    "time": 54.18000000000049,
                    "velocity": 0.7874015748031497,
                    "duration": 0.060000000000002274
                },
                {
                    "name": "F#3",
                    "midi": 54,
                    "time": 54.24000000000049,
                    "velocity": 0.7874015748031497,
                    "duration": 0.060000000000002274
                },
                {
                    "name": "G3",
                    "midi": 55,
                    "time": 54.300000000000495,
                    "velocity": 0.7874015748031497,
                    "duration": 0.060000000000002274
                },
                {
                    "name": "A3",
                    "midi": 57,
                    "time": 54.3600000000005,
                    "velocity": 0.7874015748031497,
                    "duration": 0.060000000000002274
                },
                {
                    "name": "E3",
                    "midi": 52,
                    "time": 54.4200000000005,
                    "velocity": 0.7874015748031497,
                    "duration": 0.060000000000002274
                },
                {
                    "name": "D3",
                    "midi": 50,
                    "time": 54.4800000000005,
                    "velocity": 0.7874015748031497,
                    "duration": 0.060000000000002274
                },
                {
                    "name": "C3",
                    "midi": 48,
                    "time": 54.540000000000504,
                    "velocity": 0.7874015748031497,
                    "duration": 0.060000000000002274
                },
                {
                    "name": "B2",
                    "midi": 47,
                    "time": 54.600000000000506,
                    "velocity": 0.7874015748031497,
                    "duration": 0.060000000000002274
                },
                {
                    "name": "A2",
                    "midi": 45,
                    "time": 54.66000000000051,
                    "velocity": 0.7874015748031497,
                    "duration": 0.060000000000002274
                },
                {
                    "name": "G2",
                    "midi": 43,
                    "time": 54.72000000000051,
                    "velocity": 0.7874015748031497,
                    "duration": 0.060000000000002274
                },
                {
                    "name": "D3",
                    "midi": 50,
                    "time": 54.78000000000051,
                    "velocity": 0.7874015748031497,
                    "duration": 0.060000000000002274
                },
                {
                    "name": "F#3",
                    "midi": 54,
                    "time": 54.840000000000515,
                    "velocity": 0.7874015748031497,
                    "duration": 0.060000000000002274
                },
                {
                    "name": "C4",
                    "midi": 60,
                    "time": 54.90000000000052,
                    "velocity": 0.7874015748031497,
                    "duration": 0.060000000000002274
                },
                {
                    "name": "B3",
                    "midi": 59,
                    "time": 54.96000000000052,
                    "velocity": 0.7874015748031497,
                    "duration": 0.060000000000002274
                },
                {
                    "name": "A3",
                    "midi": 57,
                    "time": 55.02000000000052,
                    "velocity": 0.7874015748031497,
                    "duration": 0.060000000000002274
                },
                {
                    "name": "G3",
                    "midi": 55,
                    "time": 55.080000000000524,
                    "velocity": 0.7874015748031497,
                    "duration": 0.060000000000002274
                },
                {
                    "name": "A3",
                    "midi": 57,
                    "time": 55.140000000000526,
                    "velocity": 0.7874015748031497,
                    "duration": 0.060000000000002274
                },
                {
                    "name": "B3",
                    "midi": 59,
                    "time": 55.20000000000053,
                    "velocity": 0.7874015748031497,
                    "duration": 0.060000000000002274
                },
                {
                    "name": "C4",
                    "midi": 60,
                    "time": 55.26000000000053,
                    "velocity": 0.7874015748031497,
                    "duration": 0.060000000000002274
                },
                {
                    "name": "D4",
                    "midi": 62,
                    "time": 55.32000000000053,
                    "velocity": 0.7874015748031497,
                    "duration": 0.060000000000002274
                },
                {
                    "name": "E4",
                    "midi": 64,
                    "time": 55.380000000000535,
                    "velocity": 0.7874015748031497,
                    "duration": 0.060000000000002274
                },
                {
                    "name": "D4",
                    "midi": 62,
                    "time": 55.44000000000054,
                    "velocity": 0.7874015748031497,
                    "duration": 0.060000000000002274
                },
                {
                    "name": "E4",
                    "midi": 64,
                    "time": 55.50000000000054,
                    "velocity": 0.7874015748031497,
                    "duration": 0.060000000000002274
                },
                {
                    "name": "F4",
                    "midi": 65,
                    "time": 55.56000000000054,
                    "velocity": 0.7874015748031497,
                    "duration": 0.060000000000002274
                },
                {
                    "name": "D4",
                    "midi": 62,
                    "time": 55.620000000000545,
                    "velocity": 0.7874015748031497,
                    "duration": 0.060000000000002274
                },
                {
                    "name": "E4",
                    "midi": 64,
                    "time": 55.68000000000055,
                    "velocity": 0.7874015748031497,
                    "duration": 0.11999999999999744
                },
                {
                    "name": "G3",
                    "midi": 55,
                    "time": 55.800000000000544,
                    "velocity": 0.7874015748031497,
                    "duration": 0.11999999999999744
                },
                {
                    "name": "C3",
                    "midi": 48,
                    "time": 55.92000000000054,
                    "velocity": 0.7874015748031497,
                    "duration": 0.060000000000002274
                },
                {
                    "name": "D4",
                    "midi": 62,
                    "time": 55.980000000000544,
                    "velocity": 0.7874015748031497,
                    "duration": 0.060000000000002274
                },
                {
                    "name": "C4",
                    "midi": 60,
                    "time": 56.040000000000546,
                    "velocity": 0.7874015748031497,
                    "duration": 0.060000000000002274
                },
                {
                    "name": "B3",
                    "midi": 59,
                    "time": 56.10000000000055,
                    "velocity": 0.7874015748031497,
                    "duration": 0.060000000000002274
                },
                {
                    "name": "A3",
                    "midi": 57,
                    "time": 56.16000000000055,
                    "velocity": 0.7874015748031497,
                    "duration": 0.060000000000002274
                },
                {
                    "name": "B3",
                    "midi": 59,
                    "time": 56.22000000000055,
                    "velocity": 0.7874015748031497,
                    "duration": 0.060000000000002274
                },
                {
                    "name": "C4",
                    "midi": 60,
                    "time": 56.280000000000555,
                    "velocity": 0.7874015748031497,
                    "duration": 0.060000000000002274
                },
                {
                    "name": "E4",
                    "midi": 64,
                    "time": 56.34000000000056,
                    "velocity": 0.7874015748031497,
                    "duration": 0.060000000000002274
                },
                {
                    "name": "D4",
                    "midi": 62,
                    "time": 56.40000000000056,
                    "velocity": 0.7874015748031497,
                    "duration": 0.17999999999999972
                },
                {
                    "name": "C4",
                    "midi": 60,
                    "time": 56.58000000000056,
                    "velocity": 0.7874015748031497,
                    "duration": 0.060000000000002274
                },
                {
                    "name": "D4",
                    "midi": 62,
                    "time": 56.64000000000056,
                    "velocity": 0.7874015748031497,
                    "duration": 0.11999999999999744
                },
                {
                    "name": "A3",
                    "midi": 57,
                    "time": 56.76000000000056,
                    "velocity": 0.7874015748031497,
                    "duration": 0.11999999999999744
                },
                {
                    "name": "B2",
                    "midi": 47,
                    "time": 56.88000000000056,
                    "velocity": 0.7874015748031497,
                    "duration": 0.060000000000002274
                },
                {
                    "name": "C4",
                    "midi": 60,
                    "time": 56.94000000000056,
                    "velocity": 0.7874015748031497,
                    "duration": 0.060000000000002274
                },
                {
                    "name": "B3",
                    "midi": 59,
                    "time": 57.00000000000056,
                    "velocity": 0.7874015748031497,
                    "duration": 0.060000000000002274
                },
                {
                    "name": "A3",
                    "midi": 57,
                    "time": 57.060000000000564,
                    "velocity": 0.7874015748031497,
                    "duration": 0.060000000000002274
                },
                {
                    "name": "G3",
                    "midi": 55,
                    "time": 57.120000000000566,
                    "velocity": 0.7874015748031497,
                    "duration": 0.060000000000002274
                },
                {
                    "name": "F#3",
                    "midi": 54,
                    "time": 57.18000000000057,
                    "velocity": 0.7874015748031497,
                    "duration": 0.060000000000002274
                },
                {
                    "name": "E3",
                    "midi": 52,
                    "time": 57.24000000000057,
                    "velocity": 0.7874015748031497,
                    "duration": 0.060000000000002274
                },
                {
                    "name": "G3",
                    "midi": 55,
                    "time": 57.30000000000057,
                    "velocity": 0.7874015748031497,
                    "duration": 0.060000000000002274
                },
                {
                    "name": "B3",
                    "midi": 59,
                    "time": 57.360000000000575,
                    "velocity": 0.7874015748031497,
                    "duration": 0.060000000000002274
                },
                {
                    "name": "D4",
                    "midi": 62,
                    "time": 57.42000000000058,
                    "velocity": 0.7874015748031497,
                    "duration": 0.060000000000002274
                },
                {
                    "name": "C4",
                    "midi": 60,
                    "time": 57.48000000000058,
                    "velocity": 0.7874015748031497,
                    "duration": 0.060000000000002274
                },
                {
                    "name": "B3",
                    "midi": 59,
                    "time": 57.54000000000058,
                    "velocity": 0.7874015748031497,
                    "duration": 0.060000000000002274
                },
                {
                    "name": "C4",
                    "midi": 60,
                    "time": 57.600000000000584,
                    "velocity": 0.7874015748031497,
                    "duration": 0.11999999999999744
                },
                {
                    "name": "G3",
                    "midi": 55,
                    "time": 57.72000000000058,
                    "velocity": 0.7874015748031497,
                    "duration": 0.11999999999999744
                },
                {
                    "name": "A2",
                    "midi": 45,
                    "time": 57.84000000000058,
                    "velocity": 0.7874015748031497,
                    "duration": 0.060000000000002274
                },
                {
                    "name": "E3",
                    "midi": 52,
                    "time": 57.90000000000058,
                    "velocity": 0.7874015748031497,
                    "duration": 0.060000000000002274
                },
                {
                    "name": "F#3",
                    "midi": 54,
                    "time": 57.96000000000058,
                    "velocity": 0.7874015748031497,
                    "duration": 0.060000000000002274
                },
                {
                    "name": "G3",
                    "midi": 55,
                    "time": 58.020000000000586,
                    "velocity": 0.7874015748031497,
                    "duration": 0.060000000000002274
                },
                {
                    "name": "F#3",
                    "midi": 54,
                    "time": 58.08000000000059,
                    "velocity": 0.7874015748031497,
                    "duration": 0.060000000000002274
                },
                {
                    "name": "A3",
                    "midi": 57,
                    "time": 58.14000000000059,
                    "velocity": 0.7874015748031497,
                    "duration": 0.060000000000002274
                },
                {
                    "name": "B3",
                    "midi": 59,
                    "time": 58.20000000000059,
                    "velocity": 0.7874015748031497,
                    "duration": 0.060000000000002274
                },
                {
                    "name": "C4",
                    "midi": 60,
                    "time": 58.260000000000595,
                    "velocity": 0.7874015748031497,
                    "duration": 0.060000000000002274
                },
                {
                    "name": "D3",
                    "midi": 50,
                    "time": 58.3200000000006,
                    "velocity": 0.7874015748031497,
                    "duration": 0.060000000000002274
                },
                {
                    "name": "C3",
                    "midi": 48,
                    "time": 58.3800000000006,
                    "velocity": 0.7874015748031497,
                    "duration": 0.060000000000002274
                },
                {
                    "name": "B2",
                    "midi": 47,
                    "time": 58.4400000000006,
                    "velocity": 0.7874015748031497,
                    "duration": 0.060000000000002274
                },
                {
                    "name": "A2",
                    "midi": 45,
                    "time": 58.500000000000604,
                    "velocity": 0.7874015748031497,
                    "duration": 0.060000000000002274
                },
                {
                    "name": "G2",
                    "midi": 43,
                    "time": 58.560000000000606,
                    "velocity": 0.7874015748031497,
                    "duration": 0.060000000000002274
                },
                {
                    "name": "D3",
                    "midi": 50,
                    "time": 58.62000000000061,
                    "velocity": 0.7874015748031497,
                    "duration": 0.060000000000002274
                },
                {
                    "name": "F#3",
                    "midi": 54,
                    "time": 58.68000000000061,
                    "velocity": 0.7874015748031497,
                    "duration": 0.060000000000002274
                },
                {
                    "name": "A3",
                    "midi": 57,
                    "time": 58.74000000000061,
                    "velocity": 0.7874015748031497,
                    "duration": 0.060000000000002274
                },
                {
                    "name": "C4",
                    "midi": 60,
                    "time": 58.800000000000615,
                    "velocity": 0.7874015748031497,
                    "duration": 0.060000000000002274
                },
                {
                    "name": "A3",
                    "midi": 57,
                    "time": 58.86000000000062,
                    "velocity": 0.7874015748031497,
                    "duration": 0.060000000000002274
                },
                {
                    "name": "F#3",
                    "midi": 54,
                    "time": 58.92000000000062,
                    "velocity": 0.7874015748031497,
                    "duration": 0.060000000000002274
                },
                {
                    "name": "D3",
                    "midi": 50,
                    "time": 58.98000000000062,
                    "velocity": 0.7874015748031497,
                    "duration": 0.060000000000002274
                },
                {
                    "name": "G2",
                    "midi": 43,
                    "time": 59.040000000000624,
                    "velocity": 0.7874015748031497,
                    "duration": 0.17999999999999972
                },
                {
                    "name": "D3",
                    "midi": 50,
                    "time": 59.220000000000624,
                    "velocity": 0.7874015748031497,
                    "duration": 0.060000000000002274
                },
                {
                    "name": "E3",
                    "midi": 52,
                    "time": 59.280000000000626,
                    "velocity": 0.7874015748031497,
                    "duration": 0.060000000000002274
                },
                {
                    "name": "G3",
                    "midi": 55,
                    "time": 59.34000000000063,
                    "velocity": 0.7874015748031497,
                    "duration": 0.060000000000002274
                },
                {
                    "name": "A3",
                    "midi": 57,
                    "time": 59.40000000000063,
                    "velocity": 0.7874015748031497,
                    "duration": 0.060000000000002274
                },
                {
                    "name": "C#4",
                    "midi": 61,
                    "time": 59.46000000000063,
                    "velocity": 0.7874015748031497,
                    "duration": 0.060000000000002274
                },
                {
                    "name": "D4",
                    "midi": 62,
                    "time": 59.520000000000636,
                    "velocity": 0.7874015748031497,
                    "duration": 0.060000000000002274
                },
                {
                    "name": "A3",
                    "midi": 57,
                    "time": 59.58000000000064,
                    "velocity": 0.7874015748031497,
                    "duration": 0.060000000000002274
                },
                {
                    "name": "F#3",
                    "midi": 54,
                    "time": 59.64000000000064,
                    "velocity": 0.7874015748031497,
                    "duration": 0.060000000000002274
                },
                {
                    "name": "E3",
                    "midi": 52,
                    "time": 59.70000000000064,
                    "velocity": 0.7874015748031497,
                    "duration": 0.060000000000002274
                },
                {
                    "name": "D3",
                    "midi": 50,
                    "time": 59.760000000000645,
                    "velocity": 0.7874015748031497,
                    "duration": 0.060000000000002274
                },
                {
                    "name": "F3",
                    "midi": 53,
                    "time": 59.82000000000065,
                    "velocity": 0.7874015748031497,
                    "duration": 0.060000000000002274
                },
                {
                    "name": "G3",
                    "midi": 55,
                    "time": 59.88000000000065,
                    "velocity": 0.7874015748031497,
                    "duration": 0.060000000000002274
                },
                {
                    "name": "B3",
                    "midi": 59,
                    "time": 59.94000000000065,
                    "velocity": 0.7874015748031497,
                    "duration": 0.060000000000002274
                },
                {
                    "name": "C4",
                    "midi": 60,
                    "time": 60.000000000000654,
                    "velocity": 0.7874015748031497,
                    "duration": 0.060000000000002274
                },
                {
                    "name": "G3",
                    "midi": 55,
                    "time": 60.060000000000656,
                    "velocity": 0.7874015748031497,
                    "duration": 0.060000000000002274
                },
                {
                    "name": "E3",
                    "midi": 52,
                    "time": 60.12000000000066,
                    "velocity": 0.7874015748031497,
                    "duration": 0.060000000000002274
                },
                {
                    "name": "D3",
                    "midi": 50,
                    "time": 60.18000000000066,
                    "velocity": 0.7874015748031497,
                    "duration": 0.060000000000002274
                },
                {
                    "name": "C3",
                    "midi": 48,
                    "time": 60.24000000000066,
                    "velocity": 0.7874015748031497,
                    "duration": 0.060000000000002274
                },
                {
                    "name": "E3",
                    "midi": 52,
                    "time": 60.300000000000665,
                    "velocity": 0.7874015748031497,
                    "duration": 0.060000000000002274
                },
                {
                    "name": "A3",
                    "midi": 57,
                    "time": 60.36000000000067,
                    "velocity": 0.7874015748031497,
                    "duration": 0.060000000000002274
                },
                {
                    "name": "C4",
                    "midi": 60,
                    "time": 60.42000000000067,
                    "velocity": 0.7874015748031497,
                    "duration": 0.060000000000002274
                },
                {
                    "name": "F#3",
                    "midi": 54,
                    "time": 60.48000000000067,
                    "velocity": 0.7874015748031497,
                    "duration": 0.060000000000002274
                },
                {
                    "name": "A3",
                    "midi": 57,
                    "time": 60.540000000000674,
                    "velocity": 0.7874015748031497,
                    "duration": 0.060000000000002274
                },
                {
                    "name": "C4",
                    "midi": 60,
                    "time": 60.600000000000676,
                    "velocity": 0.7874015748031497,
                    "duration": 0.060000000000002274
                },
                {
                    "name": "E4",
                    "midi": 64,
                    "time": 60.66000000000068,
                    "velocity": 0.7874015748031497,
                    "duration": 0.060000000000002274
                },
                {
                    "name": "D4",
                    "midi": 62,
                    "time": 60.72000000000068,
                    "velocity": 0.7874015748031497,
                    "duration": 0.17999999999999972
                },
                {
                    "name": "C3",
                    "midi": 48,
                    "time": 60.90000000000068,
                    "velocity": 0.7874015748031497,
                    "duration": 0.060000000000002274
                },
                {
                    "name": "B2",
                    "midi": 47,
                    "time": 60.96000000000068,
                    "velocity": 0.7874015748031497,
                    "duration": 0.060000000000002274
                },
                {
                    "name": "G3",
                    "midi": 55,
                    "time": 61.020000000000685,
                    "velocity": 0.7874015748031497,
                    "duration": 0.060000000000002274
                },
                {
                    "name": "A2",
                    "midi": 45,
                    "time": 61.08000000000069,
                    "velocity": 0.7874015748031497,
                    "duration": 0.060000000000002274
                },
                {
                    "name": "G2",
                    "midi": 43,
                    "time": 61.14000000000069,
                    "velocity": 0.7874015748031497,
                    "duration": 0.060000000000002274
                },
                {
                    "name": "D2",
                    "midi": 38,
                    "time": 61.20000000000069,
                    "velocity": 0.7874015748031497,
                    "duration": 0.060000000000002274
                },
                {
                    "name": "A2",
                    "midi": 45,
                    "time": 61.260000000000694,
                    "velocity": 0.7874015748031497,
                    "duration": 0.060000000000002274
                },
                {
                    "name": "G3",
                    "midi": 55,
                    "time": 61.3200000000007,
                    "velocity": 0.7874015748031497,
                    "duration": 0.060000000000002274
                },
                {
                    "name": "F#3",
                    "midi": 54,
                    "time": 61.3800000000007,
                    "velocity": 0.7874015748031497,
                    "duration": 0.060000000000002274
                },
                {
                    "name": "G3",
                    "midi": 55,
                    "time": 61.4400000000007,
                    "velocity": 0.7874015748031497,
                    "duration": 0.060000000000002274
                },
                {
                    "name": "G2",
                    "midi": 43,
                    "time": 61.5000000000007,
                    "velocity": 0.7874015748031497,
                    "duration": 0.060000000000002274
                },
                {
                    "name": "B2",
                    "midi": 47,
                    "time": 61.560000000000706,
                    "velocity": 0.7874015748031497,
                    "duration": 0.060000000000002274
                },
                {
                    "name": "D3",
                    "midi": 50,
                    "time": 61.62000000000071,
                    "velocity": 0.7874015748031497,
                    "duration": 0.060000000000002274
                },
                {
                    "name": "G3",
                    "midi": 55,
                    "time": 61.68000000000071,
                    "velocity": 0.7874015748031497,
                    "duration": 0.060000000000002274
                },
                {
                    "name": "B3",
                    "midi": 59,
                    "time": 61.74000000000071,
                    "velocity": 0.7874015748031497,
                    "duration": 0.060000000000002274
                },
                {
                    "name": "D4",
                    "midi": 62,
                    "time": 61.800000000000715,
                    "velocity": 0.7874015748031497,
                    "duration": 0.060000000000002274
                },
                {
                    "name": "F#4",
                    "midi": 66,
                    "time": 61.86000000000072,
                    "velocity": 0.7874015748031497,
                    "duration": 0.060000000000002274
                },
                {
                    "name": "G4",
                    "midi": 67,
                    "time": 61.92000000000072,
                    "velocity": 0.7874015748031497,
                    "duration": 0.060000000000002274
                },
                {
                    "name": "D4",
                    "midi": 62,
                    "time": 61.98000000000072,
                    "velocity": 0.7874015748031497,
                    "duration": 0.060000000000002274
                },
                {
                    "name": "B3",
                    "midi": 59,
                    "time": 62.040000000000724,
                    "velocity": 0.7874015748031497,
                    "duration": 0.060000000000002274
                },
                {
                    "name": "G3",
                    "midi": 55,
                    "time": 62.100000000000726,
                    "velocity": 0.7874015748031497,
                    "duration": 0.060000000000002274
                },
                {
                    "name": "G2",
                    "midi": 43,
                    "time": 62.16000000000073,
                    "velocity": 0.7874015748031497,
                    "duration": 0.1700000000000017
                }
            ],
            "controlChanges": {
                "7": [
                    {
                        "number": 7,
                        "time": 0,
                        "value": 0.7874015748031497
                    }
                ],
                "10": [
                    {
                        "number": 10,
                        "time": 0,
                        "value": 0.5039370078740157
                    }
                ]
            },
            "id": 1,
            "name": "Solo Cello",
            "instrumentNumber": 42,
            "instrument": "cello",
            "instrumentFamily": "strings",
            "channelNumber": 0,
            "isPercussion": false
        },
        {
            "startTime": 0.96,
            "duration": 59.21999999999999,
            "length": 14,
            "notes": [
                {
                    "name": "D3",
                    "midi": 50,
                    "time": 0.96,
                    "velocity": 0.7874015748031497,
                    "duration": 0.24
                },
                {
                    "name": "D3",
                    "midi": 50,
                    "time": 14.399999999999999,
                    "velocity": 0.7874015748031497,
                    "duration": 0.17999999999999972
                },
                {
                    "name": "D3",
                    "midi": 50,
                    "time": 16.319999999999997,
                    "velocity": 0.7874015748031497,
                    "duration": 0.23999999999999844
                },
                {
                    "name": "D3",
                    "midi": 50,
                    "time": 29.759999999999994,
                    "velocity": 0.7874015748031497,
                    "duration": 0.17999999999999972
                },
                {
                    "name": "D3",
                    "midi": 50,
                    "time": 31.679999999999993,
                    "velocity": 0.7874015748031497,
                    "duration": 0.3000000000000007
                },
                {
                    "name": "E3",
                    "midi": 52,
                    "time": 36.47999999999999,
                    "velocity": 0.7874015748031497,
                    "duration": 0.17999999999999972
                },
                {
                    "name": "E3",
                    "midi": 52,
                    "time": 38.15999999999999,
                    "velocity": 0.7874015748031497,
                    "duration": 0.240000000000002
                },
                {
                    "name": "E3",
                    "midi": 52,
                    "time": 38.39999999999999,
                    "velocity": 0.7874015748031497,
                    "duration": 0.17999999999999972
                },
                {
                    "name": "B3",
                    "midi": 59,
                    "time": 43.67999999999999,
                    "velocity": 0.7874015748031497,
                    "duration": 0.17999999999999972
                },
                {
                    "name": "D3",
                    "midi": 50,
                    "time": 47.03999999999999,
                    "velocity": 0.7874015748031497,
                    "duration": 0.29999999999999716
                },
                {
                    "name": "E3",
                    "midi": 52,
                    "time": 51.83999999999999,
                    "velocity": 0.7874015748031497,
                    "duration": 0.17999999999999972
                },
                {
                    "name": "E3",
                    "midi": 52,
                    "time": 53.51999999999999,
                    "velocity": 0.7874015748031497,
                    "duration": 0.240000000000002
                },
                {
                    "name": "E3",
                    "midi": 52,
                    "time": 53.75999999999999,
                    "velocity": 0.7874015748031497,
                    "duration": 0.17999999999999972
                },
                {
                    "name": "B3",
                    "midi": 59,
                    "time": 59.03999999999999,
                    "velocity": 0.7874015748031497,
                    "duration": 0.17999999999999972
                }
            ],
            "controlChanges": {
                "7": [
                    {
                        "number": 7,
                        "time": 0,
                        "value": 0.7874015748031497
                    }
                ],
                "10": [
                    {
                        "number": 10,
                        "time": 0,
                        "value": 0.5826771653543307
                    }
                ]
            },
            "id": 2,
            "name": "--------------------------------------",
            "instrumentNumber": 42,
            "instrument": "cello",
            "instrumentFamily": "strings",
            "channelNumber": 1,
            "isPercussion": false
        },
        {
            "startTime": 0.96,
            "duration": 59.22,
            "length": 10,
            "notes": [
                {
                    "name": "G2",
                    "midi": 43,
                    "time": 0.96,
                    "velocity": 0.7874015748031497,
                    "duration": 0.24
                },
                {
                    "name": "G2",
                    "midi": 43,
                    "time": 14.399999999999999,
                    "velocity": 0.7874015748031497,
                    "duration": 0.17999999999999972
                },
                {
                    "name": "G2",
                    "midi": 43,
                    "time": 16.319999999999997,
                    "velocity": 0.7874015748031497,
                    "duration": 0.23999999999999844
                },
                {
                    "name": "G2",
                    "midi": 43,
                    "time": 29.759999999999994,
                    "velocity": 0.7874015748031497,
                    "duration": 0.17999999999999972
                },
                {
                    "name": "A2",
                    "midi": 45,
                    "time": 36.48,
                    "velocity": 0.7874015748031497,
                    "duration": 0.17999999999999972
                },
                {
                    "name": "A2",
                    "midi": 45,
                    "time": 38.4,
                    "velocity": 0.7874015748031497,
                    "duration": 0.17999999999999972
                },
                {
                    "name": "D3",
                    "midi": 50,
                    "time": 43.68,
                    "velocity": 0.7874015748031497,
                    "duration": 0.17999999999999972
                },
                {
                    "name": "A2",
                    "midi": 45,
                    "time": 51.839999999999996,
                    "velocity": 0.7874015748031497,
                    "duration": 0.17999999999999972
                },
                {
                    "name": "A2",
                    "midi": 45,
                    "time": 53.76,
                    "velocity": 0.7874015748031497,
                    "duration": 0.17999999999999972
                },
                {
                    "name": "D3",
                    "midi": 50,
                    "time": 59.04,
                    "velocity": 0.7874015748031497,
                    "duration": 0.17999999999999972
                }
            ],
            "controlChanges": {
                "7": [
                    {
                        "number": 7,
                        "time": 0,
                        "value": 0.7874015748031497
                    }
                ],
                "10": [
                    {
                        "number": 10,
                        "time": 0,
                        "value": 0.4251968503937008
                    }
                ]
            },
            "id": 3,
            "name": "Johann Sebastian Bach  (1685-1750)",
            "instrumentNumber": 42,
            "instrument": "cello",
            "instrumentFamily": "strings",
            "channelNumber": 2,
            "isPercussion": false
        },
        {
            "startTime": 0,
            "duration": 0,
            "length": 0,
            "notes": [],
            "controlChanges": {},
            "id": 4,
            "name": "Six Suites for Solo Cello"
        },
        {
            "startTime": 0,
            "duration": 0,
            "length": 0,
            "notes": [],
            "controlChanges": {},
            "id": 5,
            "name": "--------------------------------------"
        },
        {
            "startTime": 0,
            "duration": 0,
            "length": 0,
            "notes": [],
            "controlChanges": {},
            "id": 6,
            "name": "Suite No. 1 in G major - BWV 1007"
        },
        {
            "startTime": 0,
            "duration": 0,
            "length": 0,
            "notes": [],
            "controlChanges": {},
            "id": 7,
            "name": "2nd Movement: Allemande"
        },
        {
            "startTime": 0,
            "duration": 0,
            "length": 0,
            "notes": [],
            "controlChanges": {},
            "id": 8,
            "name": "--------------------------------------"
        },
        {
            "startTime": 0,
            "duration": 0,
            "length": 0,
            "notes": [],
            "controlChanges": {},
            "id": 9,
            "name": "Sequenced with Cakewalk Pro Audio by"
        },
        {
            "startTime": 0,
            "duration": 0,
            "length": 0,
            "notes": [],
            "controlChanges": {},
            "id": 10,
            "name": "David J. Grossman - dave@unpronounceable.com"
        },
        {
            "startTime": 0,
            "duration": 0,
            "length": 0,
            "notes": [],
            "controlChanges": {},
            "id": 11,
            "name": "This and other Bach MIDI files can be found at:"
        },
        {
            "startTime": 0,
            "duration": 0,
            "length": 0,
            "notes": [],
            "controlChanges": {},
            "id": 12,
            "name": "Dave's J.S. Bach Page"
        },
        {
            "startTime": 0,
            "duration": 0,
            "length": 0,
            "notes": [],
            "controlChanges": {},
            "id": 13,
            "name": "http://www.unpronounceable.com/bach"
        },
        {
            "startTime": 0,
            "duration": 0,
            "length": 0,
            "notes": [],
            "controlChanges": {},
            "id": 14,
            "name": "--------------------------------------"
        },
        {
            "startTime": 0,
            "duration": 0,
            "length": 0,
            "notes": [],
            "controlChanges": {},
            "id": 15,
            "name": "Original Filename: cs1-2all.mid"
        },
        {
            "startTime": 0,
            "duration": 0,
            "length": 0,
            "notes": [],
            "controlChanges": {},
            "id": 16,
            "name": "Last Modified: February 22, 1997"
        }
    ]
}