{
    "header": {
        "PPQ": 480,
        "timeSignature": [
            6,
            8
        ],
        "bpm": 250,
        "name": "untitled"
    },
    "startTime": 0,
    "duration": 49.5599999999998,
    "tracks": [
        {
            "startTime": 0,
            "duration": 0,
            "length": 0,
            "notes": [],
            "controlChanges": {},
            "id": 0,
            "name": "untitled"
        },
        {
            "startTime": 0.6,
            "duration": 49.5599999999998,
            "length": 420,
            "notes": [
                {
                    "name": "D3",
                    "midi": 50,
                    "time": 0.6,
                    "velocity": 0.7874015748031497,
                    "duration": 0.12
                },
                {
                    "name": "G3",
                    "midi": 55,
                    "time": 0.72,
                    "velocity": 0.7874015748031497,
                    "duration": 0.12
                },
                {
                    "name": "D3",
                    "midi": 50,
                    "time": 0.84,
                    "velocity": 0.7874015748031497,
                    "duration": 0.12
                },
                {
                    "name": "E3",
                    "midi": 52,
                    "time": 0.96,
                    "velocity": 0.7874015748031497,
                    "duration": 0.1200000000000001
                },
                {
                    "name": "E3",
                    "midi": 52,
                    "time": 1.08,
                    "velocity": 0.7874015748031497,
                    "duration": 0.1200000000000001
                },
                {
                    "name": "C3",
                    "midi": 48,
                    "time": 1.2000000000000002,
                    "velocity": 0.7874015748031497,
                    "duration": 0.1200000000000001
                },
                {
                    "name": "D3",
                    "midi": 50,
                    "time": 1.3200000000000003,
                    "velocity": 0.7874015748031497,
                    "duration": 0.1200000000000001
                },
                {
                    "name": "D3",
                    "midi": 50,
                    "time": 1.4400000000000004,
                    "velocity": 0.7874015748031497,
                    "duration": 0.1200000000000001
                },
                {
                    "name": "G3",
                    "midi": 55,
                    "time": 1.5600000000000005,
                    "velocity": 0.7874015748031497,
                    "duration": 0.1200000000000001
                },
                {
                    "name": "D3",
                    "midi": 50,
                    "time": 1.6800000000000006,
                    "velocity": 0.7874015748031497,
                    "duration": 0.1200000000000001
                },
                {
                    "name": "B2",
                    "midi": 47,
                    "time": 1.8000000000000007,
                    "velocity": 0.7874015748031497,
                    "duration": 0.1200000000000001
                },
                {
                    "name": "G2",
                    "midi": 43,
                    "time": 1.9200000000000008,
                    "velocity": 0.7874015748031497,
                    "duration": 0.1200000000000001
                },
                {
                    "name": "D3",
                    "midi": 50,
                    "time": 2.040000000000001,
                    "velocity": 0.7874015748031497,
                    "duration": 0.1200000000000001
                },
                {
                    "name": "G3",
                    "midi": 55,
                    "time": 2.160000000000001,
                    "velocity": 0.7874015748031497,
                    "duration": 0.06000000000000005
                },
                {
                    "name": "A3",
                    "midi": 57,
                    "time": 2.220000000000001,
                    "velocity": 0.7874015748031497,
                    "duration": 0.06000000000000005
                },
                {
                    "name": "B3",
                    "midi": 59,
                    "time": 2.280000000000001,
                    "velocity": 0.7874015748031497,
                    "duration": 0.1200000000000001
                },
                {
                    "name": "A3",
                    "midi": 57,
                    "time": 2.4000000000000012,
                    "velocity": 0.7874015748031497,
                    "duration": 0.1200000000000001
                },
                {
                    "name": "A3",
                    "midi": 57,
                    "time": 2.5200000000000014,
                    "velocity": 0.7874015748031497,
                    "duration": 0.06000000000000005
                },
                {
                    "name": "B3",
                    "midi": 59,
                    "time": 2.5800000000000014,
                    "velocity": 0.7874015748031497,
                    "duration": 0.06000000000000005
                },
                {
                    "name": "C4",
                    "midi": 60,
                    "time": 2.6400000000000015,
                    "velocity": 0.7874015748031497,
                    "duration": 0.1200000000000001
                },
                {
                    "name": "B3",
                    "midi": 59,
                    "time": 2.7600000000000016,
                    "velocity": 0.7874015748031497,
                    "duration": 0.1200000000000001
                },
                {
                    "name": "B3",
                    "midi": 59,
                    "time": 2.8800000000000017,
                    "velocity": 0.7874015748031497,
                    "duration": 0.3600000000000003
                },
                {
                    "name": "A3",
                    "midi": 57,
                    "time": 3.240000000000002,
                    "velocity": 0.7874015748031497,
                    "duration": 0.2400000000000002
                },
                {
                    "name": "A3",
                    "midi": 57,
                    "time": 3.480000000000002,
                    "velocity": 0.7874015748031497,
                    "duration": 0.1200000000000001
                },
                {
                    "name": "B3",
                    "midi": 59,
                    "time": 3.6000000000000023,
                    "velocity": 0.7874015748031497,
                    "duration": 0.1200000000000001
                },
                {
                    "name": "F#3",
                    "midi": 54,
                    "time": 3.7200000000000024,
                    "velocity": 0.7874015748031497,
                    "duration": 0.1200000000000001
                },
                {
                    "name": "G3",
                    "midi": 55,
                    "time": 3.8400000000000025,
                    "velocity": 0.7874015748031497,
                    "duration": 0.1200000000000001
                },
                {
                    "name": "G3",
                    "midi": 55,
                    "time": 3.9600000000000026,
                    "velocity": 0.7874015748031497,
                    "duration": 0.1200000000000001
                },
                {
                    "name": "E3",
                    "midi": 52,
                    "time": 4.080000000000003,
                    "velocity": 0.7874015748031497,
                    "duration": 0.1200000000000001
                },
                {
                    "name": "G3",
                    "midi": 55,
                    "time": 4.200000000000003,
                    "velocity": 0.7874015748031497,
                    "duration": 0.1200000000000001
                },
                {
                    "name": "A3",
                    "midi": 57,
                    "time": 4.320000000000003,
                    "velocity": 0.7874015748031497,
                    "duration": 0.1200000000000001
                },
                {
                    "name": "E3",
                    "midi": 52,
                    "time": 4.440000000000003,
                    "velocity": 0.7874015748031497,
                    "duration": 0.1200000000000001
                },
                {
                    "name": "F#3",
                    "midi": 54,
                    "time": 4.560000000000003,
                    "velocity": 0.7874015748031497,
                    "duration": 0.1200000000000001
                },
                {
                    "name": "F#3",
                    "midi": 54,
                    "time": 4.680000000000003,
                    "velocity": 0.7874015748031497,
                    "duration": 0.1200000000000001
                },
                {
                    "name": "D3",
                    "midi": 50,
                    "time": 4.800000000000003,
                    "velocity": 0.7874015748031497,
                    "duration": 0.1200000000000001
                },
                {
                    "name": "F#3",
                    "midi": 54,
                    "time": 4.9200000000000035,
                    "velocity": 0.7874015748031497,
                    "duration": 0.1200000000000001
                },
                {
                    "name": "G3",
                    "midi": 55,
                    "time": 5.040000000000004,
                    "velocity": 0.7874015748031497,
                    "duration": 0.1200000000000001
                },
                {
                    "name": "B3",
                    "midi": 59,
                    "time": 5.160000000000004,
                    "velocity": 0.7874015748031497,
                    "duration": 0.1200000000000001
                },
                {
                    "name": "G3",
                    "midi": 55,
                    "time": 5.280000000000004,
                    "velocity": 0.7874015748031497,
                    "duration": 0.1200000000000001
                },
                {
                    "name": "E3",
                    "midi": 52,
                    "time": 5.400000000000004,
                    "velocity": 0.7874015748031497,
                    "duration": 0.1200000000000001
                },
                {
                    "name": "B2",
                    "midi": 47,
                    "time": 5.520000000000004,
                    "velocity": 0.7874015748031497,
                    "duration": 0.1200000000000001
                },
                {
                    "name": "D3",
                    "midi": 50,
                    "time": 5.640000000000004,
                    "velocity": 0.7874015748031497,
                    "duration": 0.1200000000000001
                },
                {
                    "name": "C#3",
                    "midi": 49,
                    "time": 5.760000000000004,
                    "velocity": 0.7874015748031497,
                    "duration": 0.1200000000000001
                },
                {
                    "name": "E3",
                    "midi": 52,
                    "time": 5.880000000000004,
                    "velocity": 0.7874015748031497,
                    "duration": 0.1200000000000001
                },
                {
                    "name": "A3",
                    "midi": 57,
                    "time": 6.000000000000004,
                    "velocity": 0.7874015748031497,
                    "duration": 0.1200000000000001
                },
                {
                    "name": "A2",
                    "midi": 45,
                    "time": 6.1200000000000045,
                    "velocity": 0.7874015748031497,
                    "duration": 0.2400000000000002
                },
                {
                    "name": "E3",
                    "midi": 52,
                    "time": 6.360000000000005,
                    "velocity": 0.7874015748031497,
                    "duration": 0.1200000000000001
                },
                {
                    "name": "F3",
                    "midi": 53,
                    "time": 6.480000000000005,
                    "velocity": 0.7874015748031497,
                    "duration": 0.1200000000000001
                },
                {
                    "name": "E3",
                    "midi": 52,
                    "time": 6.600000000000005,
                    "velocity": 0.7874015748031497,
                    "duration": 0.1200000000000001
                },
                {
                    "name": "G3",
                    "midi": 55,
                    "time": 6.720000000000005,
                    "velocity": 0.7874015748031497,
                    "duration": 0.1200000000000001
                },
                {
                    "name": "G3",
                    "midi": 55,
                    "time": 6.840000000000005,
                    "velocity": 0.7874015748031497,
                    "duration": 0.1200000000000001
                },
                {
                    "name": "F3",
                    "midi": 53,
                    "time": 6.960000000000005,
                    "velocity": 0.7874015748031497,
                    "duration": 0.1200000000000001
                },
                {
                    "name": "A3",
                    "midi": 57,
                    "time": 7.080000000000005,
                    "velocity": 0.7874015748031497,
                    "duration": 0.1200000000000001
                },
                {
                    "name": "A3",
                    "midi": 57,
                    "time": 7.2000000000000055,
                    "velocity": 0.7874015748031497,
                    "duration": 0.1200000000000001
                },
                {
                    "name": "G3",
                    "midi": 55,
                    "time": 7.320000000000006,
                    "velocity": 0.7874015748031497,
                    "duration": 0.1200000000000001
                },
                {
                    "name": "A#3",
                    "midi": 58,
                    "time": 7.440000000000006,
                    "velocity": 0.7874015748031497,
                    "duration": 0.1200000000000001
                },
                {
                    "name": "A#3",
                    "midi": 58,
                    "time": 7.560000000000006,
                    "velocity": 0.7874015748031497,
                    "duration": 0.1200000000000001
                },
                {
                    "name": "A3",
                    "midi": 57,
                    "time": 7.680000000000006,
                    "velocity": 0.7874015748031497,
                    "duration": 0.1200000000000001
                },
                {
                    "name": "G3",
                    "midi": 55,
                    "time": 7.800000000000006,
                    "velocity": 0.7874015748031497,
                    "duration": 0.1200000000000001
                },
                {
                    "name": "F3",
                    "midi": 53,
                    "time": 7.920000000000006,
                    "velocity": 0.7874015748031497,
                    "duration": 0.1200000000000001
                },
                {
                    "name": "E3",
                    "midi": 52,
                    "time": 8.040000000000006,
                    "velocity": 0.7874015748031497,
                    "duration": 0.11999999999999922
                },
                {
                    "name": "D3",
                    "midi": 50,
                    "time": 8.160000000000005,
                    "velocity": 0.7874015748031497,
                    "duration": 0.11999999999999922
                },
                {
                    "name": "A2",
                    "midi": 45,
                    "time": 8.280000000000005,
                    "velocity": 0.7874015748031497,
                    "duration": 0.11999999999999922
                },
                {
                    "name": "D3",
                    "midi": 50,
                    "time": 8.400000000000004,
                    "velocity": 0.7874015748031497,
                    "duration": 0.11999999999999922
                },
                {
                    "name": "C#3",
                    "midi": 49,
                    "time": 8.520000000000003,
                    "velocity": 0.7874015748031497,
                    "duration": 0.11999999999999922
                },
                {
                    "name": "D3",
                    "midi": 50,
                    "time": 8.640000000000002,
                    "velocity": 0.7874015748031497,
                    "duration": 0.11999999999999922
                },
                {
                    "name": "A2",
                    "midi": 45,
                    "time": 8.760000000000002,
                    "velocity": 0.7874015748031497,
                    "duration": 0.11999999999999922
                },
                {
                    "name": "F#2",
                    "midi": 42,
                    "time": 8.88,
                    "velocity": 0.7874015748031497,
                    "duration": 0.11999999999999922
                },
                {
                    "name": "D2",
                    "midi": 38,
                    "time": 9,
                    "velocity": 0.7874015748031497,
                    "duration": 0.2400000000000002
                },
                {
                    "name": "D3",
                    "midi": 50,
                    "time": 9.24,
                    "velocity": 0.7874015748031497,
                    "duration": 0.11999999999999922
                },
                {
                    "name": "G3",
                    "midi": 55,
                    "time": 9.36,
                    "velocity": 0.7874015748031497,
                    "duration": 0.11999999999999922
                },
                {
                    "name": "D3",
                    "midi": 50,
                    "time": 9.479999999999999,
                    "velocity": 0.7874015748031497,
                    "duration": 0.11999999999999922
                },
                {
                    "name": "E3",
                    "midi": 52,
                    "time": 9.599999999999998,
                    "velocity": 0.7874015748031497,
                    "duration": 0.11999999999999922
                },
                {
                    "name": "E3",
                    "midi": 52,
                    "time": 9.719999999999997,
                    "velocity": 0.7874015748031497,
                    "duration": 0.11999999999999922
                },
                {
                    "name": "C3",
                    "midi": 48,
                    "time": 9.839999999999996,
                    "velocity": 0.7874015748031497,
                    "duration": 0.11999999999999922
                },
                {
                    "name": "D3",
                    "midi": 50,
                    "time": 9.959999999999996,
                    "velocity": 0.7874015748031497,
                    "duration": 0.11999999999999922
                },
                {
                    "name": "D3",
                    "midi": 50,
                    "time": 10.079999999999995,
                    "velocity": 0.7874015748031497,
                    "duration": 0.11999999999999922
                },
                {
                    "name": "G3",
                    "midi": 55,
                    "time": 10.199999999999994,
                    "velocity": 0.7874015748031497,
                    "duration": 0.11999999999999922
                },
                {
                    "name": "D3",
                    "midi": 50,
                    "time": 10.319999999999993,
                    "velocity": 0.7874015748031497,
                    "duration": 0.11999999999999922
                },
                {
                    "name": "B2",
                    "midi": 47,
                    "time": 10.439999999999992,
                    "velocity": 0.7874015748031497,
                    "duration": 0.11999999999999922
                },
                {
                    "name": "G2",
                    "midi": 43,
                    "time": 10.559999999999992,
                    "velocity": 0.7874015748031497,
                    "duration": 0.11999999999999922
                },
                {
                    "name": "D3",
                    "midi": 50,
                    "time": 10.67999999999999,
                    "velocity": 0.7874015748031497,
                    "duration": 0.11999999999999922
                },
                {
                    "name": "G3",
                    "midi": 55,
                    "time": 10.79999999999999,
                    "velocity": 0.7874015748031497,
                    "duration": 0.0600000000000005
                },
                {
                    "name": "A3",
                    "midi": 57,
                    "time": 10.85999999999999,
                    "velocity": 0.7874015748031497,
                    "duration": 0.0600000000000005
                },
                {
                    "name": "B3",
                    "midi": 59,
                    "time": 10.919999999999991,
                    "velocity": 0.7874015748031497,
                    "duration": 0.11999999999999922
                },
                {
                    "name": "A3",
                    "midi": 57,
                    "time": 11.03999999999999,
                    "velocity": 0.7874015748031497,
                    "duration": 0.11999999999999922
                },
                {
                    "name": "A3",
                    "midi": 57,
                    "time": 11.15999999999999,
                    "velocity": 0.7874015748031497,
                    "duration": 0.0600000000000005
                },
                {
                    "name": "B3",
                    "midi": 59,
                    "time": 11.21999999999999,
                    "velocity": 0.7874015748031497,
                    "duration": 0.0600000000000005
                },
                {
                    "name": "C4",
                    "midi": 60,
                    "time": 11.27999999999999,
                    "velocity": 0.7874015748031497,
                    "duration": 0.11999999999999922
                },
                {
                    "name": "B3",
                    "midi": 59,
                    "time": 11.39999999999999,
                    "velocity": 0.7874015748031497,
                    "duration": 0.11999999999999922
                },
                {
                    "name": "B3",
                    "midi": 59,
                    "time": 11.519999999999989,
                    "velocity": 0.7874015748031497,
                    "duration": 0.35999999999999766
                },
                {
                    "name": "A3",
                    "midi": 57,
                    "time": 11.879999999999987,
                    "velocity": 0.7874015748031497,
                    "duration": 0.2400000000000002
                },
                {
                    "name": "A3",
                    "midi": 57,
                    "time": 12.119999999999987,
                    "velocity": 0.7874015748031497,
                    "duration": 0.11999999999999922
                },
                {
                    "name": "B3",
                    "midi": 59,
                    "time": 12.239999999999986,
                    "velocity": 0.7874015748031497,
                    "duration": 0.11999999999999922
                },
                {
                    "name": "F#3",
                    "midi": 54,
                    "time": 12.359999999999985,
                    "velocity": 0.7874015748031497,
                    "duration": 0.11999999999999922
                },
                {
                    "name": "G3",
                    "midi": 55,
                    "time": 12.479999999999984,
                    "velocity": 0.7874015748031497,
                    "duration": 0.11999999999999922
                },
                {
                    "name": "G3",
                    "midi": 55,
                    "time": 12.599999999999984,
                    "velocity": 0.7874015748031497,
                    "duration": 0.11999999999999922
                },
                {
                    "name": "E3",
                    "midi": 52,
                    "time": 12.719999999999983,
                    "velocity": 0.7874015748031497,
                    "duration": 0.11999999999999922
                },
                {
                    "name": "G3",
                    "midi": 55,
                    "time": 12.839999999999982,
                    "velocity": 0.7874015748031497,
                    "duration": 0.11999999999999922
                },
                {
                    "name": "A3",
                    "midi": 57,
                    "time": 12.959999999999981,
                    "velocity": 0.7874015748031497,
                    "duration": 0.11999999999999922
                },
                {
                    "name": "E3",
                    "midi": 52,
                    "time": 13.07999999999998,
                    "velocity": 0.7874015748031497,
                    "duration": 0.11999999999999922
                },
                {
                    "name": "F#3",
                    "midi": 54,
                    "time": 13.19999999999998,
                    "velocity": 0.7874015748031497,
                    "duration": 0.11999999999999922
                },
                {
                    "name": "F#3",
                    "midi": 54,
                    "time": 13.319999999999979,
                    "velocity": 0.7874015748031497,
                    "duration": 0.11999999999999922
                },
                {
                    "name": "D3",
                    "midi": 50,
                    "time": 13.439999999999978,
                    "velocity": 0.7874015748031497,
                    "duration": 0.11999999999999922
                },
                {
                    "name": "F#3",
                    "midi": 54,
                    "time": 13.559999999999977,
                    "velocity": 0.7874015748031497,
                    "duration": 0.11999999999999922
                },
                {
                    "name": "G3",
                    "midi": 55,
                    "time": 13.679999999999977,
                    "velocity": 0.7874015748031497,
                    "duration": 0.11999999999999922
                },
                {
                    "name": "B3",
                    "midi": 59,
                    "time": 13.799999999999976,
                    "velocity": 0.7874015748031497,
                    "duration": 0.11999999999999922
                },
                {
                    "name": "G3",
                    "midi": 55,
                    "time": 13.919999999999975,
                    "velocity": 0.7874015748031497,
                    "duration": 0.11999999999999922
                },
                {
                    "name": "E3",
                    "midi": 52,
                    "time": 14.039999999999974,
                    "velocity": 0.7874015748031497,
                    "duration": 0.11999999999999922
                },
                {
                    "name": "B2",
                    "midi": 47,
                    "time": 14.159999999999973,
                    "velocity": 0.7874015748031497,
                    "duration": 0.11999999999999922
                },
                {
                    "name": "D3",
                    "midi": 50,
                    "time": 14.279999999999973,
                    "velocity": 0.7874015748031497,
                    "duration": 0.11999999999999922
                },
                {
                    "name": "C#3",
                    "midi": 49,
                    "time": 14.399999999999972,
                    "velocity": 0.7874015748031497,
                    "duration": 0.11999999999999922
                },
                {
                    "name": "E3",
                    "midi": 52,
                    "time": 14.519999999999971,
                    "velocity": 0.7874015748031497,
                    "duration": 0.11999999999999922
                },
                {
                    "name": "A3",
                    "midi": 57,
                    "time": 14.63999999999997,
                    "velocity": 0.7874015748031497,
                    "duration": 0.11999999999999922
                },
                {
                    "name": "A2",
                    "midi": 45,
                    "time": 14.75999999999997,
                    "velocity": 0.7874015748031497,
                    "duration": 0.2400000000000002
                },
                {
                    "name": "E3",
                    "midi": 52,
                    "time": 14.99999999999997,
                    "velocity": 0.7874015748031497,
                    "duration": 0.11999999999999922
                },
                {
                    "name": "F3",
                    "midi": 53,
                    "time": 15.119999999999969,
                    "velocity": 0.7874015748031497,
                    "duration": 0.11999999999999922
                },
                {
                    "name": "E3",
                    "midi": 52,
                    "time": 15.239999999999968,
                    "velocity": 0.7874015748031497,
                    "duration": 0.11999999999999922
                },
                {
                    "name": "G3",
                    "midi": 55,
                    "time": 15.359999999999967,
                    "velocity": 0.7874015748031497,
                    "duration": 0.11999999999999922
                },
                {
                    "name": "G3",
                    "midi": 55,
                    "time": 15.479999999999967,
                    "velocity": 0.7874015748031497,
                    "duration": 0.11999999999999922
                },
                {
                    "name": "F3",
                    "midi": 53,
                    "time": 15.599999999999966,
                    "velocity": 0.7874015748031497,
                    "duration": 0.11999999999999922
                },
                {
                    "name": "A3",
                    "midi": 57,
                    "time": 15.719999999999965,
                    "velocity": 0.7874015748031497,
                    "duration": 0.11999999999999922
                },
                {
                    "name": "A3",
                    "midi": 57,
                    "time": 15.839999999999964,
                    "velocity": 0.7874015748031497,
                    "duration": 0.11999999999999922
                },
                {
                    "name": "G3",
                    "midi": 55,
                    "time": 15.959999999999964,
                    "velocity": 0.7874015748031497,
                    "duration": 0.11999999999999922
                },
                {
                    "name": "A#3",
                    "midi": 58,
                    "time": 16.079999999999963,
                    "velocity": 0.7874015748031497,
                    "duration": 0.120000000000001
                },
                {
                    "name": "A#3",
                    "midi": 58,
                    "time": 16.199999999999964,
                    "velocity": 0.7874015748031497,
                    "duration": 0.120000000000001
                },
                {
                    "name": "A3",
                    "midi": 57,
                    "time": 16.319999999999965,
                    "velocity": 0.7874015748031497,
                    "duration": 0.120000000000001
                },
                {
                    "name": "G3",
                    "midi": 55,
                    "time": 16.439999999999966,
                    "velocity": 0.7874015748031497,
                    "duration": 0.120000000000001
                },
                {
                    "name": "F3",
                    "midi": 53,
                    "time": 16.559999999999967,
                    "velocity": 0.7874015748031497,
                    "duration": 0.120000000000001
                },
                {
                    "name": "E3",
                    "midi": 52,
                    "time": 16.679999999999968,
                    "velocity": 0.7874015748031497,
                    "duration": 0.120000000000001
                },
                {
                    "name": "D3",
                    "midi": 50,
                    "time": 16.79999999999997,
                    "velocity": 0.7874015748031497,
                    "duration": 0.120000000000001
                },
                {
                    "name": "A2",
                    "midi": 45,
                    "time": 16.91999999999997,
                    "velocity": 0.7874015748031497,
                    "duration": 0.120000000000001
                },
                {
                    "name": "D3",
                    "midi": 50,
                    "time": 17.03999999999997,
                    "velocity": 0.7874015748031497,
                    "duration": 0.120000000000001
                },
                {
                    "name": "C#3",
                    "midi": 49,
                    "time": 17.15999999999997,
                    "velocity": 0.7874015748031497,
                    "duration": 0.120000000000001
                },
                {
                    "name": "D3",
                    "midi": 50,
                    "time": 17.279999999999973,
                    "velocity": 0.7874015748031497,
                    "duration": 0.120000000000001
                },
                {
                    "name": "A2",
                    "midi": 45,
                    "time": 17.399999999999974,
                    "velocity": 0.7874015748031497,
                    "duration": 0.120000000000001
                },
                {
                    "name": "F#2",
                    "midi": 42,
                    "time": 17.519999999999975,
                    "velocity": 0.7874015748031497,
                    "duration": 0.120000000000001
                },
                {
                    "name": "D2",
                    "midi": 38,
                    "time": 17.639999999999976,
                    "velocity": 0.7874015748031497,
                    "duration": 0.23999999999999844
                },
                {
                    "name": "A3",
                    "midi": 57,
                    "time": 17.879999999999974,
                    "velocity": 0.7874015748031497,
                    "duration": 0.120000000000001
                },
                {
                    "name": "A3",
                    "midi": 57,
                    "time": 17.999999999999975,
                    "velocity": 0.7874015748031497,
                    "duration": 0.120000000000001
                },
                {
                    "name": "F#3",
                    "midi": 54,
                    "time": 18.119999999999976,
                    "velocity": 0.7874015748031497,
                    "duration": 0.120000000000001
                },
                {
                    "name": "G3",
                    "midi": 55,
                    "time": 18.239999999999977,
                    "velocity": 0.7874015748031497,
                    "duration": 0.120000000000001
                },
                {
                    "name": "G3",
                    "midi": 55,
                    "time": 18.359999999999978,
                    "velocity": 0.7874015748031497,
                    "duration": 0.120000000000001
                },
                {
                    "name": "E3",
                    "midi": 52,
                    "time": 18.47999999999998,
                    "velocity": 0.7874015748031497,
                    "duration": 0.120000000000001
                },
                {
                    "name": "F#3",
                    "midi": 54,
                    "time": 18.59999999999998,
                    "velocity": 0.7874015748031497,
                    "duration": 0.120000000000001
                },
                {
                    "name": "F#3",
                    "midi": 54,
                    "time": 18.71999999999998,
                    "velocity": 0.7874015748031497,
                    "duration": 0.05999999999999872
                },
                {
                    "name": "G3",
                    "midi": 55,
                    "time": 18.77999999999998,
                    "velocity": 0.7874015748031497,
                    "duration": 0.05999999999999872
                },
                {
                    "name": "A3",
                    "midi": 57,
                    "time": 18.83999999999998,
                    "velocity": 0.7874015748031497,
                    "duration": 0.120000000000001
                },
                {
                    "name": "F#3",
                    "midi": 54,
                    "time": 18.95999999999998,
                    "velocity": 0.7874015748031497,
                    "duration": 0.120000000000001
                },
                {
                    "name": "D3",
                    "midi": 50,
                    "time": 19.07999999999998,
                    "velocity": 0.7874015748031497,
                    "duration": 0.120000000000001
                },
                {
                    "name": "C4",
                    "midi": 60,
                    "time": 19.19999999999998,
                    "velocity": 0.7874015748031497,
                    "duration": 0.120000000000001
                },
                {
                    "name": "B3",
                    "midi": 59,
                    "time": 19.319999999999983,
                    "velocity": 0.7874015748031497,
                    "duration": 0.120000000000001
                },
                {
                    "name": "B3",
                    "midi": 59,
                    "time": 19.439999999999984,
                    "velocity": 0.7874015748031497,
                    "duration": 0.120000000000001
                },
                {
                    "name": "G3",
                    "midi": 55,
                    "time": 19.559999999999985,
                    "velocity": 0.7874015748031497,
                    "duration": 0.120000000000001
                },
                {
                    "name": "A3",
                    "midi": 57,
                    "time": 19.679999999999986,
                    "velocity": 0.7874015748031497,
                    "duration": 0.120000000000001
                },
                {
                    "name": "A3",
                    "midi": 57,
                    "time": 19.799999999999986,
                    "velocity": 0.7874015748031497,
                    "duration": 0.120000000000001
                },
                {
                    "name": "F#3",
                    "midi": 54,
                    "time": 19.919999999999987,
                    "velocity": 0.7874015748031497,
                    "duration": 0.120000000000001
                },
                {
                    "name": "G3",
                    "midi": 55,
                    "time": 20.03999999999999,
                    "velocity": 0.7874015748031497,
                    "duration": 0.120000000000001
                },
                {
                    "name": "G3",
                    "midi": 55,
                    "time": 20.15999999999999,
                    "velocity": 0.7874015748031497,
                    "duration": 0.05999999999999872
                },
                {
                    "name": "A3",
                    "midi": 57,
                    "time": 20.219999999999988,
                    "velocity": 0.7874015748031497,
                    "duration": 0.05999999999999872
                },
                {
                    "name": "B3",
                    "midi": 59,
                    "time": 20.279999999999987,
                    "velocity": 0.7874015748031497,
                    "duration": 0.120000000000001
                },
                {
                    "name": "G3",
                    "midi": 55,
                    "time": 20.399999999999988,
                    "velocity": 0.7874015748031497,
                    "duration": 0.120000000000001
                },
                {
                    "name": "E3",
                    "midi": 52,
                    "time": 20.51999999999999,
                    "velocity": 0.7874015748031497,
                    "duration": 0.120000000000001
                },
                {
                    "name": "D4",
                    "midi": 62,
                    "time": 20.63999999999999,
                    "velocity": 0.7874015748031497,
                    "duration": 0.120000000000001
                },
                {
                    "name": "C4",
                    "midi": 60,
                    "time": 20.75999999999999,
                    "velocity": 0.7874015748031497,
                    "duration": 0.120000000000001
                },
                {
                    "name": "A3",
                    "midi": 57,
                    "time": 20.879999999999992,
                    "velocity": 0.7874015748031497,
                    "duration": 0.120000000000001
                },
                {
                    "name": "D4",
                    "midi": 62,
                    "time": 20.999999999999993,
                    "velocity": 0.7874015748031497,
                    "duration": 0.120000000000001
                },
                {
                    "name": "C4",
                    "midi": 60,
                    "time": 21.119999999999994,
                    "velocity": 0.7874015748031497,
                    "duration": 0.120000000000001
                },
                {
                    "name": "D3",
                    "midi": 50,
                    "time": 21.239999999999995,
                    "velocity": 0.7874015748031497,
                    "duration": 0.120000000000001
                },
                {
                    "name": "C4",
                    "midi": 60,
                    "time": 21.359999999999996,
                    "velocity": 0.7874015748031497,
                    "duration": 0.120000000000001
                },
                {
                    "name": "B3",
                    "midi": 59,
                    "time": 21.479999999999997,
                    "velocity": 0.7874015748031497,
                    "duration": 0.120000000000001
                },
                {
                    "name": "G3",
                    "midi": 55,
                    "time": 21.599999999999998,
                    "velocity": 0.7874015748031497,
                    "duration": 0.120000000000001
                },
                {
                    "name": "C4",
                    "midi": 60,
                    "time": 21.72,
                    "velocity": 0.7874015748031497,
                    "duration": 0.120000000000001
                },
                {
                    "name": "B3",
                    "midi": 59,
                    "time": 21.84,
                    "velocity": 0.7874015748031497,
                    "duration": 0.120000000000001
                },
                {
                    "name": "C3",
                    "midi": 48,
                    "time": 21.96,
                    "velocity": 0.7874015748031497,
                    "duration": 0.120000000000001
                },
                {
                    "name": "B3",
                    "midi": 59,
                    "time": 22.080000000000002,
                    "velocity": 0.7874015748031497,
                    "duration": 0.120000000000001
                },
                {
                    "name": "A3",
                    "midi": 57,
                    "time": 22.200000000000003,
                    "velocity": 0.7874015748031497,
                    "duration": 0.120000000000001
                },
                {
                    "name": "G3",
                    "midi": 55,
                    "time": 22.320000000000004,
                    "velocity": 0.7874015748031497,
                    "duration": 0.120000000000001
                },
                {
                    "name": "F#3",
                    "midi": 54,
                    "time": 22.440000000000005,
                    "velocity": 0.7874015748031497,
                    "duration": 0.120000000000001
                },
                {
                    "name": "E3",
                    "midi": 52,
                    "time": 22.560000000000006,
                    "velocity": 0.7874015748031497,
                    "duration": 0.120000000000001
                },
                {
                    "name": "B2",
                    "midi": 47,
                    "time": 22.680000000000007,
                    "velocity": 0.7874015748031497,
                    "duration": 0.120000000000001
                },
                {
                    "name": "E3",
                    "midi": 52,
                    "time": 22.800000000000008,
                    "velocity": 0.7874015748031497,
                    "duration": 0.120000000000001
                },
                {
                    "name": "D#3",
                    "midi": 51,
                    "time": 22.92000000000001,
                    "velocity": 0.7874015748031497,
                    "duration": 0.120000000000001
                },
                {
                    "name": "E3",
                    "midi": 52,
                    "time": 23.04000000000001,
                    "velocity": 0.7874015748031497,
                    "duration": 0.120000000000001
                },
                {
                    "name": "B2",
                    "midi": 47,
                    "time": 23.16000000000001,
                    "velocity": 0.7874015748031497,
                    "duration": 0.120000000000001
                },
                {
                    "name": "G2",
                    "midi": 43,
                    "time": 23.280000000000012,
                    "velocity": 0.7874015748031497,
                    "duration": 0.120000000000001
                },
                {
                    "name": "E2",
                    "midi": 40,
                    "time": 23.400000000000013,
                    "velocity": 0.7874015748031497,
                    "duration": 0.23999999999999844
                },
                {
                    "name": "G3",
                    "midi": 55,
                    "time": 23.64000000000001,
                    "velocity": 0.7874015748031497,
                    "duration": 0.120000000000001
                },
                {
                    "name": "A3",
                    "midi": 57,
                    "time": 23.760000000000012,
                    "velocity": 0.7874015748031497,
                    "duration": 0.120000000000001
                },
                {
                    "name": "F#3",
                    "midi": 54,
                    "time": 23.880000000000013,
                    "velocity": 0.7874015748031497,
                    "duration": 0.120000000000001
                },
                {
                    "name": "G3",
                    "midi": 55,
                    "time": 24.000000000000014,
                    "velocity": 0.7874015748031497,
                    "duration": 0.120000000000001
                },
                {
                    "name": "C#4",
                    "midi": 61,
                    "time": 24.120000000000015,
                    "velocity": 0.7874015748031497,
                    "duration": 0.05999999999999872
                },
                {
                    "name": "D4",
                    "midi": 62,
                    "time": 24.180000000000014,
                    "velocity": 0.7874015748031497,
                    "duration": 0.05999999999999872
                },
                {
                    "name": "E4",
                    "midi": 64,
                    "time": 24.240000000000013,
                    "velocity": 0.7874015748031497,
                    "duration": 0.120000000000001
                },
                {
                    "name": "F#3",
                    "midi": 54,
                    "time": 24.360000000000014,
                    "velocity": 0.7874015748031497,
                    "duration": 0.120000000000001
                },
                {
                    "name": "G3",
                    "midi": 55,
                    "time": 24.480000000000015,
                    "velocity": 0.7874015748031497,
                    "duration": 0.120000000000001
                },
                {
                    "name": "E3",
                    "midi": 52,
                    "time": 24.600000000000016,
                    "velocity": 0.7874015748031497,
                    "duration": 0.120000000000001
                },
                {
                    "name": "F3",
                    "midi": 53,
                    "time": 24.720000000000017,
                    "velocity": 0.7874015748031497,
                    "duration": 0.120000000000001
                },
                {
                    "name": "B3",
                    "midi": 59,
                    "time": 24.840000000000018,
                    "velocity": 0.7874015748031497,
                    "duration": 0.05999999999999872
                },
                {
                    "name": "C4",
                    "midi": 60,
                    "time": 24.900000000000016,
                    "velocity": 0.7874015748031497,
                    "duration": 0.05999999999999872
                },
                {
                    "name": "D4",
                    "midi": 62,
                    "time": 24.960000000000015,
                    "velocity": 0.7874015748031497,
                    "duration": 0.120000000000001
                },
                {
                    "name": "E3",
                    "midi": 52,
                    "time": 25.080000000000016,
                    "velocity": 0.7874015748031497,
                    "duration": 0.120000000000001
                },
                {
                    "name": "F3",
                    "midi": 53,
                    "time": 25.200000000000017,
                    "velocity": 0.7874015748031497,
                    "duration": 0.120000000000001
                },
                {
                    "name": "D3",
                    "midi": 50,
                    "time": 25.320000000000018,
                    "velocity": 0.7874015748031497,
                    "duration": 0.120000000000001
                },
                {
                    "name": "E3",
                    "midi": 52,
                    "time": 25.44000000000002,
                    "velocity": 0.7874015748031497,
                    "duration": 0.120000000000001
                },
                {
                    "name": "A3",
                    "midi": 57,
                    "time": 25.56000000000002,
                    "velocity": 0.7874015748031497,
                    "duration": 0.05999999999999872
                },
                {
                    "name": "B3",
                    "midi": 59,
                    "time": 25.62000000000002,
                    "velocity": 0.7874015748031497,
                    "duration": 0.05999999999999872
                },
                {
                    "name": "C4",
                    "midi": 60,
                    "time": 25.680000000000017,
                    "velocity": 0.7874015748031497,
                    "duration": 0.120000000000001
                },
                {
                    "name": "A3",
                    "midi": 57,
                    "time": 25.80000000000002,
                    "velocity": 0.7874015748031497,
                    "duration": 0.120000000000001
                },
                {
                    "name": "F#3",
                    "midi": 54,
                    "time": 25.92000000000002,
                    "velocity": 0.7874015748031497,
                    "duration": 0.05999999999999872
                },
                {
                    "name": "G3",
                    "midi": 55,
                    "time": 25.980000000000018,
                    "velocity": 0.7874015748031497,
                    "duration": 0.05999999999999872
                },
                {
                    "name": "A3",
                    "midi": 57,
                    "time": 26.040000000000017,
                    "velocity": 0.7874015748031497,
                    "duration": 0.120000000000001
                },
                {
                    "name": "F#3",
                    "midi": 54,
                    "time": 26.160000000000018,
                    "velocity": 0.7874015748031497,
                    "duration": 0.120000000000001
                },
                {
                    "name": "D3",
                    "midi": 50,
                    "time": 26.28000000000002,
                    "velocity": 0.7874015748031497,
                    "duration": 0.23999999999999844
                },
                {
                    "name": "A3",
                    "midi": 57,
                    "time": 26.520000000000017,
                    "velocity": 0.7874015748031497,
                    "duration": 0.120000000000001
                },
                {
                    "name": "A#3",
                    "midi": 58,
                    "time": 26.64000000000002,
                    "velocity": 0.7874015748031497,
                    "duration": 0.120000000000001
                },
                {
                    "name": "A3",
                    "midi": 57,
                    "time": 26.76000000000002,
                    "velocity": 0.7874015748031497,
                    "duration": 0.120000000000001
                },
                {
                    "name": "C4",
                    "midi": 60,
                    "time": 26.88000000000002,
                    "velocity": 0.7874015748031497,
                    "duration": 0.120000000000001
                },
                {
                    "name": "C4",
                    "midi": 60,
                    "time": 27.00000000000002,
                    "velocity": 0.7874015748031497,
                    "duration": 0.120000000000001
                },
                {
                    "name": "A#3",
                    "midi": 58,
                    "time": 27.120000000000022,
                    "velocity": 0.7874015748031497,
                    "duration": 0.120000000000001
                },
                {
                    "name": "D4",
                    "midi": 62,
                    "time": 27.240000000000023,
                    "velocity": 0.7874015748031497,
                    "duration": 0.120000000000001
                },
                {
                    "name": "D4",
                    "midi": 62,
                    "time": 27.360000000000024,
                    "velocity": 0.7874015748031497,
                    "duration": 0.120000000000001
                },
                {
                    "name": "C4",
                    "midi": 60,
                    "time": 27.480000000000025,
                    "velocity": 0.7874015748031497,
                    "duration": 0.120000000000001
                },
                {
                    "name": "D#4",
                    "midi": 63,
                    "time": 27.600000000000026,
                    "velocity": 0.7874015748031497,
                    "duration": 0.120000000000001
                },
                {
                    "name": "D#4",
                    "midi": 63,
                    "time": 27.720000000000027,
                    "velocity": 0.7874015748031497,
                    "duration": 0.120000000000001
                },
                {
                    "name": "D4",
                    "midi": 62,
                    "time": 27.84000000000003,
                    "velocity": 0.7874015748031497,
                    "duration": 0.120000000000001
                },
                {
                    "name": "C4",
                    "midi": 60,
                    "time": 27.96000000000003,
                    "velocity": 0.7874015748031497,
                    "duration": 0.120000000000001
                },
                {
                    "name": "A#3",
                    "midi": 58,
                    "time": 28.08000000000003,
                    "velocity": 0.7874015748031497,
                    "duration": 0.120000000000001
                },
                {
                    "name": "A3",
                    "midi": 57,
                    "time": 28.20000000000003,
                    "velocity": 0.7874015748031497,
                    "duration": 0.120000000000001
                },
                {
                    "name": "G3",
                    "midi": 55,
                    "time": 28.320000000000032,
                    "velocity": 0.7874015748031497,
                    "duration": 0.120000000000001
                },
                {
                    "name": "D3",
                    "midi": 50,
                    "time": 28.440000000000033,
                    "velocity": 0.7874015748031497,
                    "duration": 0.120000000000001
                },
                {
                    "name": "G3",
                    "midi": 55,
                    "time": 28.560000000000034,
                    "velocity": 0.7874015748031497,
                    "duration": 0.120000000000001
                },
                {
                    "name": "F#3",
                    "midi": 54,
                    "time": 28.680000000000035,
                    "velocity": 0.7874015748031497,
                    "duration": 0.120000000000001
                },
                {
                    "name": "G3",
                    "midi": 55,
                    "time": 28.800000000000036,
                    "velocity": 0.7874015748031497,
                    "duration": 0.120000000000001
                },
                {
                    "name": "B2",
                    "midi": 47,
                    "time": 28.920000000000037,
                    "velocity": 0.7874015748031497,
                    "duration": 0.05999999999999872
                },
                {
                    "name": "C3",
                    "midi": 48,
                    "time": 28.980000000000036,
                    "velocity": 0.7874015748031497,
                    "duration": 0.05999999999999872
                },
                {
                    "name": "D3",
                    "midi": 50,
                    "time": 29.040000000000035,
                    "velocity": 0.7874015748031497,
                    "duration": 0.120000000000001
                },
                {
                    "name": "G2",
                    "midi": 43,
                    "time": 29.160000000000036,
                    "velocity": 0.7874015748031497,
                    "duration": 0.120000000000001
                },
                {
                    "name": "B2",
                    "midi": 47,
                    "time": 29.280000000000037,
                    "velocity": 0.7874015748031497,
                    "duration": 0.120000000000001
                },
                {
                    "name": "D3",
                    "midi": 50,
                    "time": 29.400000000000038,
                    "velocity": 0.7874015748031497,
                    "duration": 0.120000000000001
                },
                {
                    "name": "G3",
                    "midi": 55,
                    "time": 29.52000000000004,
                    "velocity": 0.7874015748031497,
                    "duration": 0.120000000000001
                },
                {
                    "name": "E3",
                    "midi": 52,
                    "time": 29.64000000000004,
                    "velocity": 0.7874015748031497,
                    "duration": 0.05999999999999872
                },
                {
                    "name": "F3",
                    "midi": 53,
                    "time": 29.70000000000004,
                    "velocity": 0.7874015748031497,
                    "duration": 0.05999999999999872
                },
                {
                    "name": "G3",
                    "midi": 55,
                    "time": 29.760000000000037,
                    "velocity": 0.7874015748031497,
                    "duration": 0.120000000000001
                },
                {
                    "name": "B2",
                    "midi": 47,
                    "time": 29.880000000000038,
                    "velocity": 0.7874015748031497,
                    "duration": 0.120000000000001
                },
                {
                    "name": "C3",
                    "midi": 48,
                    "time": 30.00000000000004,
                    "velocity": 0.7874015748031497,
                    "duration": 0.120000000000001
                },
                {
                    "name": "E3",
                    "midi": 52,
                    "time": 30.12000000000004,
                    "velocity": 0.7874015748031497,
                    "duration": 0.120000000000001
                },
                {
                    "name": "A3",
                    "midi": 57,
                    "time": 30.24000000000004,
                    "velocity": 0.7874015748031497,
                    "duration": 0.120000000000001
                },
                {
                    "name": "F#3",
                    "midi": 54,
                    "time": 30.360000000000042,
                    "velocity": 0.7874015748031497,
                    "duration": 0.05999999999999872
                },
                {
                    "name": "G3",
                    "midi": 55,
                    "time": 30.42000000000004,
                    "velocity": 0.7874015748031497,
                    "duration": 0.05999999999999872
                },
                {
                    "name": "A3",
                    "midi": 57,
                    "time": 30.48000000000004,
                    "velocity": 0.7874015748031497,
                    "duration": 0.120000000000001
                },
                {
                    "name": "C#3",
                    "midi": 49,
                    "time": 30.60000000000004,
                    "velocity": 0.7874015748031497,
                    "duration": 0.120000000000001
                },
                {
                    "name": "D3",
                    "midi": 50,
                    "time": 30.72000000000004,
                    "velocity": 0.7874015748031497,
                    "duration": 0.120000000000001
                },
                {
                    "name": "F#3",
                    "midi": 54,
                    "time": 30.840000000000042,
                    "velocity": 0.7874015748031497,
                    "duration": 0.120000000000001
                },
                {
                    "name": "B3",
                    "midi": 59,
                    "time": 30.960000000000043,
                    "velocity": 0.7874015748031497,
                    "duration": 0.120000000000001
                },
                {
                    "name": "G3",
                    "midi": 55,
                    "time": 31.080000000000044,
                    "velocity": 0.7874015748031497,
                    "duration": 0.05999999999999872
                },
                {
                    "name": "A3",
                    "midi": 57,
                    "time": 31.140000000000043,
                    "velocity": 0.7874015748031497,
                    "duration": 0.05999999999999872
                },
                {
                    "name": "B3",
                    "midi": 59,
                    "time": 31.200000000000042,
                    "velocity": 0.7874015748031497,
                    "duration": 0.120000000000001
                },
                {
                    "name": "D#3",
                    "midi": 51,
                    "time": 31.320000000000043,
                    "velocity": 0.7874015748031497,
                    "duration": 0.120000000000001
                },
                {
                    "name": "E3",
                    "midi": 52,
                    "time": 31.440000000000044,
                    "velocity": 0.7874015748031497,
                    "duration": 0.120000000000001
                },
                {
                    "name": "C4",
                    "midi": 60,
                    "time": 31.560000000000045,
                    "velocity": 0.7874015748031497,
                    "duration": 0.120000000000001
                },
                {
                    "name": "E3",
                    "midi": 52,
                    "time": 31.680000000000046,
                    "velocity": 0.7874015748031497,
                    "duration": 0.120000000000001
                },
                {
                    "name": "F#3",
                    "midi": 54,
                    "time": 31.800000000000047,
                    "velocity": 0.7874015748031497,
                    "duration": 0.120000000000001
                },
                {
                    "name": "D4",
                    "midi": 62,
                    "time": 31.920000000000048,
                    "velocity": 0.7874015748031497,
                    "duration": 0.120000000000001
                },
                {
                    "name": "F#3",
                    "midi": 54,
                    "time": 32.04000000000005,
                    "velocity": 0.7874015748031497,
                    "duration": 0.11999999999999744
                },
                {
                    "name": "G3",
                    "midi": 55,
                    "time": 32.160000000000046,
                    "velocity": 0.7874015748031497,
                    "duration": 0.11999999999999744
                },
                {
                    "name": "E4",
                    "midi": 64,
                    "time": 32.280000000000044,
                    "velocity": 0.7874015748031497,
                    "duration": 0.11999999999999744
                },
                {
                    "name": "D3",
                    "midi": 50,
                    "time": 32.40000000000004,
                    "velocity": 0.7874015748031497,
                    "duration": 0.11999999999999744
                },
                {
                    "name": "E3",
                    "midi": 52,
                    "time": 32.52000000000004,
                    "velocity": 0.7874015748031497,
                    "duration": 0.060000000000002274
                },
                {
                    "name": "F#3",
                    "midi": 54,
                    "time": 32.58000000000004,
                    "velocity": 0.7874015748031497,
                    "duration": 0.060000000000002274
                },
                {
                    "name": "G3",
                    "midi": 55,
                    "time": 32.64000000000004,
                    "velocity": 0.7874015748031497,
                    "duration": 0.060000000000002274
                },
                {
                    "name": "A3",
                    "midi": 57,
                    "time": 32.700000000000045,
                    "velocity": 0.7874015748031497,
                    "duration": 0.060000000000002274
                },
                {
                    "name": "B3",
                    "midi": 59,
                    "time": 32.76000000000005,
                    "velocity": 0.7874015748031497,
                    "duration": 0.11999999999999744
                },
                {
                    "name": "G3",
                    "midi": 55,
                    "time": 32.880000000000045,
                    "velocity": 0.7874015748031497,
                    "duration": 0.11999999999999744
                },
                {
                    "name": "F#3",
                    "midi": 54,
                    "time": 33.00000000000004,
                    "velocity": 0.7874015748031497,
                    "duration": 0.11999999999999744
                },
                {
                    "name": "G3",
                    "midi": 55,
                    "time": 33.12000000000004,
                    "velocity": 0.7874015748031497,
                    "duration": 0.11999999999999744
                },
                {
                    "name": "D3",
                    "midi": 50,
                    "time": 33.24000000000004,
                    "velocity": 0.7874015748031497,
                    "duration": 0.11999999999999744
                },
                {
                    "name": "B2",
                    "midi": 47,
                    "time": 33.360000000000035,
                    "velocity": 0.7874015748031497,
                    "duration": 0.11999999999999744
                },
                {
                    "name": "G2",
                    "midi": 43,
                    "time": 33.48000000000003,
                    "velocity": 0.7874015748031497,
                    "duration": 0.240000000000002
                },
                {
                    "name": "A3",
                    "midi": 57,
                    "time": 33.720000000000034,
                    "velocity": 0.7874015748031497,
                    "duration": 0.11999999999999744
                },
                {
                    "name": "A3",
                    "midi": 57,
                    "time": 33.84000000000003,
                    "velocity": 0.7874015748031497,
                    "duration": 0.11999999999999744
                },
                {
                    "name": "F#3",
                    "midi": 54,
                    "time": 33.96000000000003,
                    "velocity": 0.7874015748031497,
                    "duration": 0.11999999999999744
                },
                {
                    "name": "G3",
                    "midi": 55,
                    "time": 34.08000000000003,
                    "velocity": 0.7874015748031497,
                    "duration": 0.11999999999999744
                },
                {
                    "name": "G3",
                    "midi": 55,
                    "time": 34.200000000000024,
                    "velocity": 0.7874015748031497,
                    "duration": 0.11999999999999744
                },
                {
                    "name": "E3",
                    "midi": 52,
                    "time": 34.32000000000002,
                    "velocity": 0.7874015748031497,
                    "duration": 0.11999999999999744
                },
                {
                    "name": "F#3",
                    "midi": 54,
                    "time": 34.44000000000002,
                    "velocity": 0.7874015748031497,
                    "duration": 0.11999999999999744
                },
                {
                    "name": "F#3",
                    "midi": 54,
                    "time": 34.56000000000002,
                    "velocity": 0.7874015748031497,
                    "duration": 0.060000000000002274
                },
                {
                    "name": "G3",
                    "midi": 55,
                    "time": 34.62000000000002,
                    "velocity": 0.7874015748031497,
                    "duration": 0.060000000000002274
                },
                {
                    "name": "A3",
                    "midi": 57,
                    "time": 34.68000000000002,
                    "velocity": 0.7874015748031497,
                    "duration": 0.11999999999999744
                },
                {
                    "name": "F#3",
                    "midi": 54,
                    "time": 34.80000000000002,
                    "velocity": 0.7874015748031497,
                    "duration": 0.11999999999999744
                },
                {
                    "name": "D3",
                    "midi": 50,
                    "time": 34.920000000000016,
                    "velocity": 0.7874015748031497,
                    "duration": 0.11999999999999744
                },
                {
                    "name": "C4",
                    "midi": 60,
                    "time": 35.04000000000001,
                    "velocity": 0.7874015748031497,
                    "duration": 0.11999999999999744
                },
                {
                    "name": "B3",
                    "midi": 59,
                    "time": 35.16000000000001,
                    "velocity": 0.7874015748031497,
                    "duration": 0.11999999999999744
                },
                {
                    "name": "B3",
                    "midi": 59,
                    "time": 35.28000000000001,
                    "velocity": 0.7874015748031497,
                    "duration": 0.11999999999999744
                },
                {
                    "name": "G3",
                    "midi": 55,
                    "time": 35.400000000000006,
                    "velocity": 0.7874015748031497,
                    "duration": 0.11999999999999744
                },
                {
                    "name": "A3",
                    "midi": 57,
                    "time": 35.52,
                    "velocity": 0.7874015748031497,
                    "duration": 0.11999999999999744
                },
                {
                    "name": "A3",
                    "midi": 57,
                    "time": 35.64,
                    "velocity": 0.7874015748031497,
                    "duration": 0.11999999999999744
                },
                {
                    "name": "F#3",
                    "midi": 54,
                    "time": 35.76,
                    "velocity": 0.7874015748031497,
                    "duration": 0.11999999999999744
                },
                {
                    "name": "G3",
                    "midi": 55,
                    "time": 35.879999999999995,
                    "velocity": 0.7874015748031497,
                    "duration": 0.11999999999999744
                },
                {
                    "name": "G3",
                    "midi": 55,
                    "time": 35.99999999999999,
                    "velocity": 0.7874015748031497,
                    "duration": 0.060000000000002274
                },
                {
                    "name": "A3",
                    "midi": 57,
                    "time": 36.059999999999995,
                    "velocity": 0.7874015748031497,
                    "duration": 0.060000000000002274
                },
                {
                    "name": "B3",
                    "midi": 59,
                    "time": 36.12,
                    "velocity": 0.7874015748031497,
                    "duration": 0.11999999999999744
                },
                {
                    "name": "G3",
                    "midi": 55,
                    "time": 36.239999999999995,
                    "velocity": 0.7874015748031497,
                    "duration": 0.11999999999999744
                },
                {
                    "name": "E3",
                    "midi": 52,
                    "time": 36.35999999999999,
                    "velocity": 0.7874015748031497,
                    "duration": 0.11999999999999744
                },
                {
                    "name": "D4",
                    "midi": 62,
                    "time": 36.47999999999999,
                    "velocity": 0.7874015748031497,
                    "duration": 0.11999999999999744
                },
                {
                    "name": "C4",
                    "midi": 60,
                    "time": 36.59999999999999,
                    "velocity": 0.7874015748031497,
                    "duration": 0.11999999999999744
                },
                {
                    "name": "A3",
                    "midi": 57,
                    "time": 36.719999999999985,
                    "velocity": 0.7874015748031497,
                    "duration": 0.11999999999999744
                },
                {
                    "name": "D4",
                    "midi": 62,
                    "time": 36.83999999999998,
                    "velocity": 0.7874015748031497,
                    "duration": 0.11999999999999744
                },
                {
                    "name": "C4",
                    "midi": 60,
                    "time": 36.95999999999998,
                    "velocity": 0.7874015748031497,
                    "duration": 0.11999999999999744
                },
                {
                    "name": "D3",
                    "midi": 50,
                    "time": 37.07999999999998,
                    "velocity": 0.7874015748031497,
                    "duration": 0.11999999999999744
                },
                {
                    "name": "C4",
                    "midi": 60,
                    "time": 37.199999999999974,
                    "velocity": 0.7874015748031497,
                    "duration": 0.11999999999999744
                },
                {
                    "name": "B3",
                    "midi": 59,
                    "time": 37.31999999999997,
                    "velocity": 0.7874015748031497,
                    "duration": 0.11999999999999744
                },
                {
                    "name": "G3",
                    "midi": 55,
                    "time": 37.43999999999997,
                    "velocity": 0.7874015748031497,
                    "duration": 0.11999999999999744
                },
                {
                    "name": "C4",
                    "midi": 60,
                    "time": 37.55999999999997,
                    "velocity": 0.7874015748031497,
                    "duration": 0.11999999999999744
                },
                {
                    "name": "B3",
                    "midi": 59,
                    "time": 37.679999999999964,
                    "velocity": 0.7874015748031497,
                    "duration": 0.11999999999999744
                },
                {
                    "name": "C3",
                    "midi": 48,
                    "time": 37.79999999999996,
                    "velocity": 0.7874015748031497,
                    "duration": 0.11999999999999744
                },
                {
                    "name": "B3",
                    "midi": 59,
                    "time": 37.91999999999996,
                    "velocity": 0.7874015748031497,
                    "duration": 0.11999999999999744
                },
                {
                    "name": "A3",
                    "midi": 57,
                    "time": 38.03999999999996,
                    "velocity": 0.7874015748031497,
                    "duration": 0.11999999999999744
                },
                {
                    "name": "G3",
                    "midi": 55,
                    "time": 38.159999999999954,
                    "velocity": 0.7874015748031497,
                    "duration": 0.11999999999999744
                },
                {
                    "name": "F#3",
                    "midi": 54,
                    "time": 38.27999999999995,
                    "velocity": 0.7874015748031497,
                    "duration": 0.11999999999999744
                },
                {
                    "name": "E3",
                    "midi": 52,
                    "time": 38.39999999999995,
                    "velocity": 0.7874015748031497,
                    "duration": 0.11999999999999744
                },
                {
                    "name": "B2",
                    "midi": 47,
                    "time": 38.519999999999946,
                    "velocity": 0.7874015748031497,
                    "duration": 0.11999999999999744
                },
                {
                    "name": "E3",
                    "midi": 52,
                    "time": 38.639999999999944,
                    "velocity": 0.7874015748031497,
                    "duration": 0.11999999999999744
                },
                {
                    "name": "D#3",
                    "midi": 51,
                    "time": 38.75999999999994,
                    "velocity": 0.7874015748031497,
                    "duration": 0.11999999999999744
                },
                {
                    "name": "E3",
                    "midi": 52,
                    "time": 38.87999999999994,
                    "velocity": 0.7874015748031497,
                    "duration": 0.11999999999999744
                },
                {
                    "name": "B2",
                    "midi": 47,
                    "time": 38.999999999999936,
                    "velocity": 0.7874015748031497,
                    "duration": 0.11999999999999744
                },
                {
                    "name": "G2",
                    "midi": 43,
                    "time": 39.11999999999993,
                    "velocity": 0.7874015748031497,
                    "duration": 0.11999999999999744
                },
                {
                    "name": "E2",
                    "midi": 40,
                    "time": 39.23999999999993,
                    "velocity": 0.7874015748031497,
                    "duration": 0.240000000000002
                },
                {
                    "name": "G3",
                    "midi": 55,
                    "time": 39.47999999999993,
                    "velocity": 0.7874015748031497,
                    "duration": 0.11999999999999744
                },
                {
                    "name": "A3",
                    "midi": 57,
                    "time": 39.59999999999993,
                    "velocity": 0.7874015748031497,
                    "duration": 0.11999999999999744
                },
                {
                    "name": "F#3",
                    "midi": 54,
                    "time": 39.71999999999993,
                    "velocity": 0.7874015748031497,
                    "duration": 0.11999999999999744
                },
                {
                    "name": "G3",
                    "midi": 55,
                    "time": 39.839999999999925,
                    "velocity": 0.7874015748031497,
                    "duration": 0.11999999999999744
                },
                {
                    "name": "C#4",
                    "midi": 61,
                    "time": 39.95999999999992,
                    "velocity": 0.7874015748031497,
                    "duration": 0.060000000000002274
                },
                {
                    "name": "D4",
                    "midi": 62,
                    "time": 40.019999999999925,
                    "velocity": 0.7874015748031497,
                    "duration": 0.060000000000002274
                },
                {
                    "name": "E4",
                    "midi": 64,
                    "time": 40.07999999999993,
                    "velocity": 0.7874015748031497,
                    "duration": 0.11999999999999744
                },
                {
                    "name": "F#3",
                    "midi": 54,
                    "time": 40.199999999999925,
                    "velocity": 0.7874015748031497,
                    "duration": 0.11999999999999744
                },
                {
                    "name": "G3",
                    "midi": 55,
                    "time": 40.31999999999992,
                    "velocity": 0.7874015748031497,
                    "duration": 0.11999999999999744
                },
                {
                    "name": "E3",
                    "midi": 52,
                    "time": 40.43999999999992,
                    "velocity": 0.7874015748031497,
                    "duration": 0.11999999999999744
                },
                {
                    "name": "F3",
                    "midi": 53,
                    "time": 40.55999999999992,
                    "velocity": 0.7874015748031497,
                    "duration": 0.11999999999999744
                },
                {
                    "name": "B3",
                    "midi": 59,
                    "time": 40.679999999999914,
                    "velocity": 0.7874015748031497,
                    "duration": 0.060000000000002274
                },
                {
                    "name": "C4",
                    "midi": 60,
                    "time": 40.73999999999992,
                    "velocity": 0.7874015748031497,
                    "duration": 0.060000000000002274
                },
                {
                    "name": "D4",
                    "midi": 62,
                    "time": 40.79999999999992,
                    "velocity": 0.7874015748031497,
                    "duration": 0.11999999999999744
                },
                {
                    "name": "E3",
                    "midi": 52,
                    "time": 40.919999999999916,
                    "velocity": 0.7874015748031497,
                    "duration": 0.11999999999999744
                },
                {
                    "name": "F3",
                    "midi": 53,
                    "time": 41.039999999999914,
                    "velocity": 0.7874015748031497,
                    "duration": 0.11999999999999744
                },
                {
                    "name": "D3",
                    "midi": 50,
                    "time": 41.15999999999991,
                    "velocity": 0.7874015748031497,
                    "duration": 0.11999999999999744
                },
                {
                    "name": "E3",
                    "midi": 52,
                    "time": 41.27999999999991,
                    "velocity": 0.7874015748031497,
                    "duration": 0.11999999999999744
                },
                {
                    "name": "A3",
                    "midi": 57,
                    "time": 41.399999999999906,
                    "velocity": 0.7874015748031497,
                    "duration": 0.060000000000002274
                },
                {
                    "name": "B3",
                    "midi": 59,
                    "time": 41.45999999999991,
                    "velocity": 0.7874015748031497,
                    "duration": 0.060000000000002274
                },
                {
                    "name": "C4",
                    "midi": 60,
                    "time": 41.51999999999991,
                    "velocity": 0.7874015748031497,
                    "duration": 0.11999999999999744
                },
                {
                    "name": "A3",
                    "midi": 57,
                    "time": 41.63999999999991,
                    "velocity": 0.7874015748031497,
                    "duration": 0.11999999999999744
                },
                {
                    "name": "F#3",
                    "midi": 54,
                    "time": 41.759999999999906,
                    "velocity": 0.7874015748031497,
                    "duration": 0.060000000000002274
                },
                {
                    "name": "G3",
                    "midi": 55,
                    "time": 41.81999999999991,
                    "velocity": 0.7874015748031497,
                    "duration": 0.060000000000002274
                },
                {
                    "name": "A3",
                    "midi": 57,
                    "time": 41.87999999999991,
                    "velocity": 0.7874015748031497,
                    "duration": 0.11999999999999744
                },
                {
                    "name": "F#3",
                    "midi": 54,
                    "time": 41.99999999999991,
                    "velocity": 0.7874015748031497,
                    "duration": 0.11999999999999744
                },
                {
                    "name": "D3",
                    "midi": 50,
                    "time": 42.119999999999905,
                    "velocity": 0.7874015748031497,
                    "duration": 0.240000000000002
                },
                {
                    "name": "A3",
                    "midi": 57,
                    "time": 42.35999999999991,
                    "velocity": 0.7874015748031497,
                    "duration": 0.11999999999999744
                },
                {
                    "name": "A#3",
                    "midi": 58,
                    "time": 42.479999999999905,
                    "velocity": 0.7874015748031497,
                    "duration": 0.11999999999999744
                },
                {
                    "name": "A3",
                    "midi": 57,
                    "time": 42.5999999999999,
                    "velocity": 0.7874015748031497,
                    "duration": 0.11999999999999744
                },
                {
                    "name": "C4",
                    "midi": 60,
                    "time": 42.7199999999999,
                    "velocity": 0.7874015748031497,
                    "duration": 0.11999999999999744
                },
                {
                    "name": "C4",
                    "midi": 60,
                    "time": 42.8399999999999,
                    "velocity": 0.7874015748031497,
                    "duration": 0.11999999999999744
                },
                {
                    "name": "A#3",
                    "midi": 58,
                    "time": 42.959999999999894,
                    "velocity": 0.7874015748031497,
                    "duration": 0.11999999999999744
                },
                {
                    "name": "D4",
                    "midi": 62,
                    "time": 43.07999999999989,
                    "velocity": 0.7874015748031497,
                    "duration": 0.11999999999999744
                },
                {
                    "name": "D4",
                    "midi": 62,
                    "time": 43.19999999999989,
                    "velocity": 0.7874015748031497,
                    "duration": 0.11999999999999744
                },
                {
                    "name": "C4",
                    "midi": 60,
                    "time": 43.31999999999989,
                    "velocity": 0.7874015748031497,
                    "duration": 0.11999999999999744
                },
                {
                    "name": "D#4",
                    "midi": 63,
                    "time": 43.439999999999884,
                    "velocity": 0.7874015748031497,
                    "duration": 0.11999999999999744
                },
                {
                    "name": "D#4",
                    "midi": 63,
                    "time": 43.55999999999988,
                    "velocity": 0.7874015748031497,
                    "duration": 0.11999999999999744
                },
                {
                    "name": "D4",
                    "midi": 62,
                    "time": 43.67999999999988,
                    "velocity": 0.7874015748031497,
                    "duration": 0.11999999999999744
                },
                {
                    "name": "C4",
                    "midi": 60,
                    "time": 43.799999999999876,
                    "velocity": 0.7874015748031497,
                    "duration": 0.11999999999999744
                },
                {
                    "name": "A#3",
                    "midi": 58,
                    "time": 43.919999999999874,
                    "velocity": 0.7874015748031497,
                    "duration": 0.11999999999999744
                },
                {
                    "name": "A3",
                    "midi": 57,
                    "time": 44.03999999999987,
                    "velocity": 0.7874015748031497,
                    "duration": 0.11999999999999744
                },
                {
                    "name": "G3",
                    "midi": 55,
                    "time": 44.15999999999987,
                    "velocity": 0.7874015748031497,
                    "duration": 0.11999999999999744
                },
                {
                    "name": "D3",
                    "midi": 50,
                    "time": 44.279999999999866,
                    "velocity": 0.7874015748031497,
                    "duration": 0.11999999999999744
                },
                {
                    "name": "G3",
                    "midi": 55,
                    "time": 44.399999999999864,
                    "velocity": 0.7874015748031497,
                    "duration": 0.11999999999999744
                },
                {
                    "name": "F#3",
                    "midi": 54,
                    "time": 44.51999999999986,
                    "velocity": 0.7874015748031497,
                    "duration": 0.11999999999999744
                },
                {
                    "name": "G3",
                    "midi": 55,
                    "time": 44.63999999999986,
                    "velocity": 0.7874015748031497,
                    "duration": 0.11999999999999744
                },
                {
                    "name": "B2",
                    "midi": 47,
                    "time": 44.759999999999856,
                    "velocity": 0.7874015748031497,
                    "duration": 0.060000000000002274
                },
                {
                    "name": "C3",
                    "midi": 48,
                    "time": 44.81999999999986,
                    "velocity": 0.7874015748031497,
                    "duration": 0.060000000000002274
                },
                {
                    "name": "D3",
                    "midi": 50,
                    "time": 44.87999999999986,
                    "velocity": 0.7874015748031497,
                    "duration": 0.11999999999999744
                },
                {
                    "name": "G2",
                    "midi": 43,
                    "time": 44.99999999999986,
                    "velocity": 0.7874015748031497,
                    "duration": 0.11999999999999744
                },
                {
                    "name": "B2",
                    "midi": 47,
                    "time": 45.119999999999855,
                    "velocity": 0.7874015748031497,
                    "duration": 0.11999999999999744
                },
                {
                    "name": "D3",
                    "midi": 50,
                    "time": 45.23999999999985,
                    "velocity": 0.7874015748031497,
                    "duration": 0.11999999999999744
                },
                {
                    "name": "G3",
                    "midi": 55,
                    "time": 45.35999999999985,
                    "velocity": 0.7874015748031497,
                    "duration": 0.11999999999999744
                },
                {
                    "name": "E3",
                    "midi": 52,
                    "time": 45.47999999999985,
                    "velocity": 0.7874015748031497,
                    "duration": 0.060000000000002274
                },
                {
                    "name": "F3",
                    "midi": 53,
                    "time": 45.53999999999985,
                    "velocity": 0.7874015748031497,
                    "duration": 0.060000000000002274
                },
                {
                    "name": "G3",
                    "midi": 55,
                    "time": 45.59999999999985,
                    "velocity": 0.7874015748031497,
                    "duration": 0.11999999999999744
                },
                {
                    "name": "B2",
                    "midi": 47,
                    "time": 45.71999999999985,
                    "velocity": 0.7874015748031497,
                    "duration": 0.11999999999999744
                },
                {
                    "name": "C3",
                    "midi": 48,
                    "time": 45.83999999999985,
                    "velocity": 0.7874015748031497,
                    "duration": 0.11999999999999744
                },
                {
                    "name": "E3",
                    "midi": 52,
                    "time": 45.959999999999845,
                    "velocity": 0.7874015748031497,
                    "duration": 0.11999999999999744
                },
                {
                    "name": "A3",
                    "midi": 57,
                    "time": 46.07999999999984,
                    "velocity": 0.7874015748031497,
                    "duration": 0.11999999999999744
                },
                {
                    "name": "F#3",
                    "midi": 54,
                    "time": 46.19999999999984,
                    "velocity": 0.7874015748031497,
                    "duration": 0.060000000000002274
                },
                {
                    "name": "G3",
                    "midi": 55,
                    "time": 46.25999999999984,
                    "velocity": 0.7874015748031497,
                    "duration": 0.060000000000002274
                },
                {
                    "name": "A3",
                    "midi": 57,
                    "time": 46.319999999999844,
                    "velocity": 0.7874015748031497,
                    "duration": 0.11999999999999744
                },
                {
                    "name": "C#3",
                    "midi": 49,
                    "time": 46.43999999999984,
                    "velocity": 0.7874015748031497,
                    "duration": 0.11999999999999744
                },
                {
                    "name": "D3",
                    "midi": 50,
                    "time": 46.55999999999984,
                    "velocity": 0.7874015748031497,
                    "duration": 0.11999999999999744
                },
                {
                    "name": "F#3",
                    "midi": 54,
                    "time": 46.679999999999836,
                    "velocity": 0.7874015748031497,
                    "duration": 0.11999999999999744
                },
                {
                    "name": "B3",
                    "midi": 59,
                    "time": 46.799999999999834,
                    "velocity": 0.7874015748031497,
                    "duration": 0.11999999999999744
                },
                {
                    "name": "G3",
                    "midi": 55,
                    "time": 46.91999999999983,
                    "velocity": 0.7874015748031497,
                    "duration": 0.060000000000002274
                },
                {
                    "name": "A3",
                    "midi": 57,
                    "time": 46.97999999999983,
                    "velocity": 0.7874015748031497,
                    "duration": 0.060000000000002274
                },
                {
                    "name": "B3",
                    "midi": 59,
                    "time": 47.039999999999836,
                    "velocity": 0.7874015748031497,
                    "duration": 0.11999999999999744
                },
                {
                    "name": "D#3",
                    "midi": 51,
                    "time": 47.15999999999983,
                    "velocity": 0.7874015748031497,
                    "duration": 0.11999999999999744
                },
                {
                    "name": "E3",
                    "midi": 52,
                    "time": 47.27999999999983,
                    "velocity": 0.7874015748031497,
                    "duration": 0.11999999999999744
                },
                {
                    "name": "C4",
                    "midi": 60,
                    "time": 47.39999999999983,
                    "velocity": 0.7874015748031497,
                    "duration": 0.11999999999999744
                },
                {
                    "name": "E3",
                    "midi": 52,
                    "time": 47.519999999999825,
                    "velocity": 0.7874015748031497,
                    "duration": 0.11999999999999744
                },
                {
                    "name": "F#3",
                    "midi": 54,
                    "time": 47.63999999999982,
                    "velocity": 0.7874015748031497,
                    "duration": 0.11999999999999744
                },
                {
                    "name": "D4",
                    "midi": 62,
                    "time": 47.75999999999982,
                    "velocity": 0.7874015748031497,
                    "duration": 0.11999999999999744
                },
                {
                    "name": "F#3",
                    "midi": 54,
                    "time": 47.87999999999982,
                    "velocity": 0.7874015748031497,
                    "duration": 0.11999999999999744
                },
                {
                    "name": "G3",
                    "midi": 55,
                    "time": 47.999999999999815,
                    "velocity": 0.7874015748031497,
                    "duration": 0.11999999999999744
                },
                {
                    "name": "E4",
                    "midi": 64,
                    "time": 48.11999999999981,
                    "velocity": 0.7874015748031497,
                    "duration": 0.11999999999999744
                },
                {
                    "name": "D3",
                    "midi": 50,
                    "time": 48.23999999999981,
                    "velocity": 0.7874015748031497,
                    "duration": 0.11999999999999744
                },
                {
                    "name": "E3",
                    "midi": 52,
                    "time": 48.35999999999981,
                    "velocity": 0.7874015748031497,
                    "duration": 0.060000000000002274
                },
                {
                    "name": "F#3",
                    "midi": 54,
                    "time": 48.41999999999981,
                    "velocity": 0.7874015748031497,
                    "duration": 0.060000000000002274
                },
                {
                    "name": "G3",
                    "midi": 55,
                    "time": 48.47999999999981,
                    "velocity": 0.7874015748031497,
                    "duration": 0.060000000000002274
                },
                {
                    "name": "A3",
                    "midi": 57,
                    "time": 48.539999999999814,
                    "velocity": 0.7874015748031497,
                    "duration": 0.060000000000002274
                },
                {
                    "name": "B3",
                    "midi": 59,
                    "time": 48.59999999999982,
                    "velocity": 0.7874015748031497,
                    "duration": 0.11999999999999744
                },
                {
                    "name": "G3",
                    "midi": 55,
                    "time": 48.719999999999814,
                    "velocity": 0.7874015748031497,
                    "duration": 0.11999999999999744
                },
                {
                    "name": "F#3",
                    "midi": 54,
                    "time": 48.83999999999981,
                    "velocity": 0.7874015748031497,
                    "duration": 0.11999999999999744
                },
                {
                    "name": "G3",
                    "midi": 55,
                    "time": 48.95999999999981,
                    "velocity": 0.7874015748031497,
                    "duration": 0.11999999999999744
                },
                {
                    "name": "D3",
                    "midi": 50,
                    "time": 49.07999999999981,
                    "velocity": 0.7874015748031497,
                    "duration": 0.11999999999999744
                },
                {
                    "name": "B2",
                    "midi": 47,
                    "time": 49.199999999999804,
                    "velocity": 0.7874015748031497,
                    "duration": 0.11999999999999744
                },
                {
                    "name": "G2",
                    "midi": 43,
                    "time": 49.3199999999998,
                    "velocity": 0.7874015748031497,
                    "duration": 0.240000000000002
                }
            ],
            "controlChanges": {
                "7": [
                    {
                        "number": 7,
                        "time": 0,
                        "value": 0.7874015748031497
                    }
                ],
                "10": [
                    {
                        "number": 10,
                        "time": 0,
                        "value": 0.5039370078740157
                    }
                ]
            },
            "id": 1,
            "name": "Solo Cello",
            "instrumentNumber": 42,
            "instrument": "cello",
            "instrumentFamily": "strings",
            "channelNumber": 0,
            "isPercussion": false
        },
        {
            "startTime": 2.88,
            "duration": 12.12,
            "length": 4,
            "notes": [
                {
                    "name": "D3",
                    "midi": 50,
                    "time": 2.88,
                    "velocity": 0.7874015748031497,
                    "duration": 0.3599999999999999
                },
                {
                    "name": "D3",
                    "midi": 50,
                    "time": 3.2399999999999998,
                    "velocity": 0.7874015748031497,
                    "duration": 0.23999999999999977
                },
                {
                    "name": "D3",
                    "midi": 50,
                    "time": 11.52,
                    "velocity": 0.7874015748031497,
                    "duration": 0.35999999999999943
                },
                {
                    "name": "D3",
                    "midi": 50,
                    "time": 11.879999999999999,
                    "velocity": 0.7874015748031497,
                    "duration": 0.2400000000000002
                }
            ],
            "controlChanges": {
                "7": [
                    {
                        "number": 7,
                        "time": 0,
                        "value": 0.7874015748031497
                    }
                ],
                "10": [
                    {
                        "number": 10,
                        "time": 0,
                        "value": 0.5826771653543307
                    }
                ]
            },
            "id": 2,
            "name": "--------------------------------------",
            "instrumentNumber": 42,
            "instrument": "cello",
            "instrumentFamily": "strings",
            "channelNumber": 1,
            "isPercussion": false
        },
        {
            "startTime": 2.88,
            "duration": 11.879999999999999,
            "length": 2,
            "notes": [
                {
                    "name": "G2",
                    "midi": 43,
                    "time": 2.88,
                    "velocity": 0.7874015748031497,
                    "duration": 0.3599999999999999
                },
                {
                    "name": "G2",
                    "midi": 43,
                    "time": 11.52,
                    "velocity": 0.7874015748031497,
                    "duration": 0.35999999999999943
                }
            ],
            "controlChanges": {
                "7": [
                    {
                        "number": 7,
                        "time": 0,
                        "value": 0.7874015748031497
                    }
                ],
                "10": [
                    {
                        "number": 10,
                        "time": 0,
                        "value": 0.4251968503937008
                    }
                ]
            },
            "id": 3,
            "name": "Johann Sebastian Bach  (1685-1750)",
            "instrumentNumber": 42,
            "instrument": "cello",
            "instrumentFamily": "strings",
            "channelNumber": 2,
            "isPercussion": false
        },
        {
            "startTime": 0,
            "duration": 0,
            "length": 0,
            "notes": [],
            "controlChanges": {},
            "id": 4,
            "name": "Six Suites for Solo Cello"
        },
        {
            "startTime": 0,
            "duration": 0,
            "length": 0,
            "notes": [],
            "controlChanges": {},
            "id": 5,
            "name": "--------------------------------------"
        },
        {
            "startTime": 0,
            "duration": 0,
            "length": 0,
            "notes": [],
            "controlChanges": {},
            "id": 6,
            "name": "Suite No. 1 in G major - BWV 1007"
        },
        {
            "startTime": 0,
            "duration": 0,
            "length": 0,
            "notes": [],
            "controlChanges": {},
            "id": 7,
            "name": "6th Movement: Gigue"
        },
        {
            "startTime": 0,
            "duration": 0,
            "length": 0,
            "notes": [],
            "controlChanges": {},
            "id": 8,
            "name": "--------------------------------------"
        },
        {
            "startTime": 0,
            "duration": 0,
            "length": 0,
            "notes": [],
            "controlChanges": {},
            "id": 9,
            "name": "Sequenced with Cakewalk Pro Audio by"
        },
        {
            "startTime": 0,
            "duration": 0,
            "length": 0,
            "notes": [],
            "controlChanges": {},
            "id": 10,
            "name": "David J. Grossman - dave@unpronounceable.com"
        },
        {
            "startTime": 0,
            "duration": 0,
            "length": 0,
            "notes": [],
            "controlChanges": {},
            "id": 11,
            "name": "This and other Bach MIDI files can be found at:"
        },
        {
            "startTime": 0,
            "duration": 0,
            "length": 0,
            "notes": [],
            "controlChanges": {},
            "id": 12,
            "name": "Dave's J.S. Bach Page"
        },
        {
            "startTime": 0,
            "duration": 0,
            "length": 0,
            "notes": [],
            "controlChanges": {},
            "id": 13,
            "name": "http://www.unpronounceable.com/bach"
        },
        {
            "startTime": 0,
            "duration": 0,
            "length": 0,
            "notes": [],
            "controlChanges": {},
            "id": 14,
            "name": "--------------------------------------"
        },
        {
            "startTime": 0,
            "duration": 0,
            "length": 0,
            "notes": [],
            "controlChanges": {},
            "id": 15,
            "name": "Original Filename: cs1-6gig.mid"
        },
        {
            "startTime": 0,
            "duration": 0,
            "length": 0,
            "notes": [],
            "controlChanges": {},
            "id": 16,
            "name": "Last Modified: February 22, 1997"
        }
    ]
}