{
    "header": {
        "PPQ": 480,
        "timeSignature": [
            3,
            4
        ],
        "bpm": 120,
        "name": "untitled"
    },
    "startTime": 0,
    "duration": 180.00000000000003,
    "tracks": [
        {
            "startTime": 0,
            "duration": 0,
            "length": 0,
            "notes": [],
            "controlChanges": {},
            "id": 0,
            "name": "untitled"
        },
        {
            "startTime": 0,
            "duration": 179.99999999999997,
            "length": 489,
            "notes": [
                {
                    "name": "A3",
                    "midi": 57,
                    "time": 0,
                    "velocity": 0.7874015748031497,
                    "duration": 1
                },
                {
                    "name": "A#3",
                    "midi": 58,
                    "time": 1,
                    "velocity": 0.7874015748031497,
                    "duration": 0.5
                },
                {
                    "name": "A#3",
                    "midi": 58,
                    "time": 1.5,
                    "velocity": 0.7874015748031497,
                    "duration": 0.25
                },
                {
                    "name": "A3",
                    "midi": 57,
                    "time": 1.75,
                    "velocity": 0.7874015748031497,
                    "duration": 0.25
                },
                {
                    "name": "A#3",
                    "midi": 58,
                    "time": 2,
                    "velocity": 0.7874015748031497,
                    "duration": 0.25
                },
                {
                    "name": "G3",
                    "midi": 55,
                    "time": 2.25,
                    "velocity": 0.7874015748031497,
                    "duration": 0.25
                },
                {
                    "name": "A3",
                    "midi": 57,
                    "time": 2.5,
                    "velocity": 0.7874015748031497,
                    "duration": 0.5
                },
                {
                    "name": "D3",
                    "midi": 50,
                    "time": 3,
                    "velocity": 0.7874015748031497,
                    "duration": 0.5
                },
                {
                    "name": "G3",
                    "midi": 55,
                    "time": 3.5,
                    "velocity": 0.7874015748031497,
                    "duration": 0.5
                },
                {
                    "name": "F3",
                    "midi": 53,
                    "time": 4,
                    "velocity": 0.7874015748031497,
                    "duration": 0.25
                },
                {
                    "name": "E3",
                    "midi": 52,
                    "time": 4.25,
                    "velocity": 0.7874015748031497,
                    "duration": 0.25
                },
                {
                    "name": "F3",
                    "midi": 53,
                    "time": 4.5,
                    "velocity": 0.7874015748031497,
                    "duration": 0.25
                },
                {
                    "name": "E3",
                    "midi": 52,
                    "time": 4.75,
                    "velocity": 0.7874015748031497,
                    "duration": 0.25
                },
                {
                    "name": "D3",
                    "midi": 50,
                    "time": 5,
                    "velocity": 0.7874015748031497,
                    "duration": 0.25
                },
                {
                    "name": "C#3",
                    "midi": 49,
                    "time": 5.25,
                    "velocity": 0.7874015748031497,
                    "duration": 0.25
                },
                {
                    "name": "B2",
                    "midi": 47,
                    "time": 5.5,
                    "velocity": 0.7874015748031497,
                    "duration": 0.25
                },
                {
                    "name": "A2",
                    "midi": 45,
                    "time": 5.75,
                    "velocity": 0.7874015748031497,
                    "duration": 0.25
                },
                {
                    "name": "A3",
                    "midi": 57,
                    "time": 6,
                    "velocity": 0.7874015748031497,
                    "duration": 1
                },
                {
                    "name": "A#3",
                    "midi": 58,
                    "time": 7,
                    "velocity": 0.7874015748031497,
                    "duration": 0.5
                },
                {
                    "name": "A#3",
                    "midi": 58,
                    "time": 7.5,
                    "velocity": 0.7874015748031497,
                    "duration": 0.25
                },
                {
                    "name": "A3",
                    "midi": 57,
                    "time": 7.75,
                    "velocity": 0.7874015748031497,
                    "duration": 0.25
                },
                {
                    "name": "A#3",
                    "midi": 58,
                    "time": 8,
                    "velocity": 0.7874015748031497,
                    "duration": 0.25
                },
                {
                    "name": "G3",
                    "midi": 55,
                    "time": 8.25,
                    "velocity": 0.7874015748031497,
                    "duration": 0.25
                },
                {
                    "name": "C4",
                    "midi": 60,
                    "time": 8.5,
                    "velocity": 0.7874015748031497,
                    "duration": 0.5
                },
                {
                    "name": "A3",
                    "midi": 57,
                    "time": 9,
                    "velocity": 0.7874015748031497,
                    "duration": 0.5
                },
                {
                    "name": "D4",
                    "midi": 62,
                    "time": 9.5,
                    "velocity": 0.7874015748031497,
                    "duration": 0.5
                },
                {
                    "name": "E4",
                    "midi": 64,
                    "time": 10,
                    "velocity": 0.7874015748031497,
                    "duration": 0.5
                },
                {
                    "name": "C#4",
                    "midi": 61,
                    "time": 10.5,
                    "velocity": 0.7874015748031497,
                    "duration": 1.5
                },
                {
                    "name": "A3",
                    "midi": 57,
                    "time": 12,
                    "velocity": 0.7874015748031497,
                    "duration": 1
                },
                {
                    "name": "A#3",
                    "midi": 58,
                    "time": 13,
                    "velocity": 0.7874015748031497,
                    "duration": 0.5
                },
                {
                    "name": "A#3",
                    "midi": 58,
                    "time": 13.5,
                    "velocity": 0.7874015748031497,
                    "duration": 0.25
                },
                {
                    "name": "A3",
                    "midi": 57,
                    "time": 13.75,
                    "velocity": 0.7874015748031497,
                    "duration": 0.25
                },
                {
                    "name": "A#3",
                    "midi": 58,
                    "time": 14,
                    "velocity": 0.7874015748031497,
                    "duration": 0.25
                },
                {
                    "name": "G3",
                    "midi": 55,
                    "time": 14.25,
                    "velocity": 0.7874015748031497,
                    "duration": 0.25
                },
                {
                    "name": "A3",
                    "midi": 57,
                    "time": 14.5,
                    "velocity": 0.7874015748031497,
                    "duration": 0.5
                },
                {
                    "name": "D3",
                    "midi": 50,
                    "time": 15,
                    "velocity": 0.7874015748031497,
                    "duration": 0.5
                },
                {
                    "name": "G3",
                    "midi": 55,
                    "time": 15.5,
                    "velocity": 0.7874015748031497,
                    "duration": 0.5
                },
                {
                    "name": "F3",
                    "midi": 53,
                    "time": 16,
                    "velocity": 0.7874015748031497,
                    "duration": 0.25
                },
                {
                    "name": "E3",
                    "midi": 52,
                    "time": 16.25,
                    "velocity": 0.7874015748031497,
                    "duration": 0.25
                },
                {
                    "name": "F3",
                    "midi": 53,
                    "time": 16.5,
                    "velocity": 0.7874015748031497,
                    "duration": 0.25
                },
                {
                    "name": "E3",
                    "midi": 52,
                    "time": 16.75,
                    "velocity": 0.7874015748031497,
                    "duration": 0.25
                },
                {
                    "name": "D3",
                    "midi": 50,
                    "time": 17,
                    "velocity": 0.7874015748031497,
                    "duration": 0.25
                },
                {
                    "name": "C#3",
                    "midi": 49,
                    "time": 17.25,
                    "velocity": 0.7874015748031497,
                    "duration": 0.25
                },
                {
                    "name": "B2",
                    "midi": 47,
                    "time": 17.5,
                    "velocity": 0.7874015748031497,
                    "duration": 0.25
                },
                {
                    "name": "A2",
                    "midi": 45,
                    "time": 17.75,
                    "velocity": 0.7874015748031497,
                    "duration": 0.25
                },
                {
                    "name": "A3",
                    "midi": 57,
                    "time": 18,
                    "velocity": 0.7874015748031497,
                    "duration": 1
                },
                {
                    "name": "A#3",
                    "midi": 58,
                    "time": 19,
                    "velocity": 0.7874015748031497,
                    "duration": 0.5
                },
                {
                    "name": "A#3",
                    "midi": 58,
                    "time": 19.5,
                    "velocity": 0.7874015748031497,
                    "duration": 0.25
                },
                {
                    "name": "A3",
                    "midi": 57,
                    "time": 19.75,
                    "velocity": 0.7874015748031497,
                    "duration": 0.25
                },
                {
                    "name": "A#3",
                    "midi": 58,
                    "time": 20,
                    "velocity": 0.7874015748031497,
                    "duration": 0.25
                },
                {
                    "name": "G3",
                    "midi": 55,
                    "time": 20.25,
                    "velocity": 0.7874015748031497,
                    "duration": 0.25
                },
                {
                    "name": "C4",
                    "midi": 60,
                    "time": 20.5,
                    "velocity": 0.7874015748031497,
                    "duration": 0.5
                },
                {
                    "name": "A3",
                    "midi": 57,
                    "time": 21,
                    "velocity": 0.7874015748031497,
                    "duration": 0.5
                },
                {
                    "name": "D4",
                    "midi": 62,
                    "time": 21.5,
                    "velocity": 0.7874015748031497,
                    "duration": 0.5
                },
                {
                    "name": "E4",
                    "midi": 64,
                    "time": 22,
                    "velocity": 0.7874015748031497,
                    "duration": 0.5
                },
                {
                    "name": "C#4",
                    "midi": 61,
                    "time": 22.5,
                    "velocity": 0.7874015748031497,
                    "duration": 1.5
                },
                {
                    "name": "C#4",
                    "midi": 61,
                    "time": 24,
                    "velocity": 0.7874015748031497,
                    "duration": 1
                },
                {
                    "name": "D4",
                    "midi": 62,
                    "time": 25,
                    "velocity": 0.7874015748031497,
                    "duration": 0.25
                },
                {
                    "name": "E4",
                    "midi": 64,
                    "time": 25.25,
                    "velocity": 0.7874015748031497,
                    "duration": 0.125
                },
                {
                    "name": "F4",
                    "midi": 65,
                    "time": 25.375,
                    "velocity": 0.7874015748031497,
                    "duration": 0.125
                },
                {
                    "name": "E4",
                    "midi": 64,
                    "time": 25.5,
                    "velocity": 0.7874015748031497,
                    "duration": 0.25
                },
                {
                    "name": "D4",
                    "midi": 62,
                    "time": 25.75,
                    "velocity": 0.7874015748031497,
                    "duration": 0.25
                },
                {
                    "name": "C#4",
                    "midi": 61,
                    "time": 26,
                    "velocity": 0.7874015748031497,
                    "duration": 0.25
                },
                {
                    "name": "E4",
                    "midi": 64,
                    "time": 26.25,
                    "velocity": 0.7874015748031497,
                    "duration": 0.25
                },
                {
                    "name": "A3",
                    "midi": 57,
                    "time": 26.5,
                    "velocity": 0.7874015748031497,
                    "duration": 0.25
                },
                {
                    "name": "G3",
                    "midi": 55,
                    "time": 26.75,
                    "velocity": 0.7874015748031497,
                    "duration": 0.25
                },
                {
                    "name": "A3",
                    "midi": 57,
                    "time": 27,
                    "velocity": 0.7874015748031497,
                    "duration": 0.5
                },
                {
                    "name": "D4",
                    "midi": 62,
                    "time": 27.5,
                    "velocity": 0.7874015748031497,
                    "duration": 0.5
                },
                {
                    "name": "C#4",
                    "midi": 61,
                    "time": 28,
                    "velocity": 0.7874015748031497,
                    "duration": 0.5
                },
                {
                    "name": "G4",
                    "midi": 67,
                    "time": 28.5,
                    "velocity": 0.7874015748031497,
                    "duration": 0.25
                },
                {
                    "name": "F4",
                    "midi": 65,
                    "time": 28.75,
                    "velocity": 0.7874015748031497,
                    "duration": 0.25
                },
                {
                    "name": "E4",
                    "midi": 64,
                    "time": 29,
                    "velocity": 0.7874015748031497,
                    "duration": 0.25
                },
                {
                    "name": "F4",
                    "midi": 65,
                    "time": 29.25,
                    "velocity": 0.7874015748031497,
                    "duration": 0.25
                },
                {
                    "name": "D4",
                    "midi": 62,
                    "time": 29.5,
                    "velocity": 0.7874015748031497,
                    "duration": 0.25
                },
                {
                    "name": "C4",
                    "midi": 60,
                    "time": 29.75,
                    "velocity": 0.7874015748031497,
                    "duration": 0.25
                },
                {
                    "name": "A#3",
                    "midi": 58,
                    "time": 30,
                    "velocity": 0.7874015748031497,
                    "duration": 1
                },
                {
                    "name": "C4",
                    "midi": 60,
                    "time": 31,
                    "velocity": 0.7874015748031497,
                    "duration": 0.5
                },
                {
                    "name": "A3",
                    "midi": 57,
                    "time": 31.5,
                    "velocity": 0.7874015748031497,
                    "duration": 0.25
                },
                {
                    "name": "G3",
                    "midi": 55,
                    "time": 31.75,
                    "velocity": 0.7874015748031497,
                    "duration": 0.25
                },
                {
                    "name": "A3",
                    "midi": 57,
                    "time": 32,
                    "velocity": 0.7874015748031497,
                    "duration": 0.25
                },
                {
                    "name": "F3",
                    "midi": 53,
                    "time": 32.25,
                    "velocity": 0.7874015748031497,
                    "duration": 0.25
                },
                {
                    "name": "E3",
                    "midi": 52,
                    "time": 32.5,
                    "velocity": 0.7874015748031497,
                    "duration": 0.5
                },
                {
                    "name": "F3",
                    "midi": 53,
                    "time": 33,
                    "velocity": 0.7874015748031497,
                    "duration": 0.5
                },
                {
                    "name": "F#3",
                    "midi": 54,
                    "time": 36,
                    "velocity": 0.7874015748031497,
                    "duration": 1
                },
                {
                    "name": "A#3",
                    "midi": 58,
                    "time": 37,
                    "velocity": 0.7874015748031497,
                    "duration": 0.5
                },
                {
                    "name": "C4",
                    "midi": 60,
                    "time": 37.5,
                    "velocity": 0.7874015748031497,
                    "duration": 0.25
                },
                {
                    "name": "A#3",
                    "midi": 58,
                    "time": 37.75,
                    "velocity": 0.7874015748031497,
                    "duration": 0.25
                },
                {
                    "name": "C4",
                    "midi": 60,
                    "time": 38,
                    "velocity": 0.7874015748031497,
                    "duration": 0.25
                },
                {
                    "name": "A3",
                    "midi": 57,
                    "time": 38.25,
                    "velocity": 0.7874015748031497,
                    "duration": 0.25
                },
                {
                    "name": "F#3",
                    "midi": 54,
                    "time": 38.5,
                    "velocity": 0.7874015748031497,
                    "duration": 0.5
                },
                {
                    "name": "D4",
                    "midi": 62,
                    "time": 39,
                    "velocity": 0.7874015748031497,
                    "duration": 0.5
                },
                {
                    "name": "C4",
                    "midi": 60,
                    "time": 39.5,
                    "velocity": 0.7874015748031497,
                    "duration": 0.5
                },
                {
                    "name": "A#3",
                    "midi": 58,
                    "time": 40,
                    "velocity": 0.7874015748031497,
                    "duration": 0.25
                },
                {
                    "name": "A3",
                    "midi": 57,
                    "time": 40.25,
                    "velocity": 0.7874015748031497,
                    "duration": 0.25
                },
                {
                    "name": "C4",
                    "midi": 60,
                    "time": 40.5,
                    "velocity": 0.7874015748031497,
                    "duration": 0.25
                },
                {
                    "name": "A#3",
                    "midi": 58,
                    "time": 40.75,
                    "velocity": 0.7874015748031497,
                    "duration": 0.25
                },
                {
                    "name": "A3",
                    "midi": 57,
                    "time": 41,
                    "velocity": 0.7874015748031497,
                    "duration": 0.25
                },
                {
                    "name": "A#3",
                    "midi": 58,
                    "time": 41.25,
                    "velocity": 0.7874015748031497,
                    "duration": 0.25
                },
                {
                    "name": "G3",
                    "midi": 55,
                    "time": 41.5,
                    "velocity": 0.7874015748031497,
                    "duration": 0.25
                },
                {
                    "name": "A#3",
                    "midi": 58,
                    "time": 41.75,
                    "velocity": 0.7874015748031497,
                    "duration": 0.25
                },
                {
                    "name": "D4",
                    "midi": 62,
                    "time": 42,
                    "velocity": 0.7874015748031497,
                    "duration": 0.5
                },
                {
                    "name": "C#4",
                    "midi": 61,
                    "time": 42.5,
                    "velocity": 0.7874015748031497,
                    "duration": 0.5
                },
                {
                    "name": "D4",
                    "midi": 62,
                    "time": 43,
                    "velocity": 0.7874015748031497,
                    "duration": 0.5
                },
                {
                    "name": "G3",
                    "midi": 55,
                    "time": 43.5,
                    "velocity": 0.7874015748031497,
                    "duration": 0.25
                },
                {
                    "name": "F3",
                    "midi": 53,
                    "time": 43.75,
                    "velocity": 0.7874015748031497,
                    "duration": 0.25
                },
                {
                    "name": "G3",
                    "midi": 55,
                    "time": 44,
                    "velocity": 0.7874015748031497,
                    "duration": 0.25
                },
                {
                    "name": "E3",
                    "midi": 52,
                    "time": 44.25,
                    "velocity": 0.7874015748031497,
                    "duration": 0.25
                },
                {
                    "name": "F3",
                    "midi": 53,
                    "time": 44.5,
                    "velocity": 0.7874015748031497,
                    "duration": 0.5
                },
                {
                    "name": "G2",
                    "midi": 43,
                    "time": 45,
                    "velocity": 0.7874015748031497,
                    "duration": 0.25
                },
                {
                    "name": "G3",
                    "midi": 55,
                    "time": 45.25,
                    "velocity": 0.7874015748031497,
                    "duration": 0.25
                },
                {
                    "name": "E3",
                    "midi": 52,
                    "time": 45.5,
                    "velocity": 0.7874015748031497,
                    "duration": 0.7500000000000071
                },
                {
                    "name": "D3",
                    "midi": 50,
                    "time": 46.25000000000001,
                    "velocity": 0.7874015748031497,
                    "duration": 0.25
                },
                {
                    "name": "D3",
                    "midi": 50,
                    "time": 46.50000000000001,
                    "velocity": 0.7874015748031497,
                    "duration": 1.5
                },
                {
                    "name": "C#4",
                    "midi": 61,
                    "time": 48.00000000000001,
                    "velocity": 0.7874015748031497,
                    "duration": 1
                },
                {
                    "name": "D4",
                    "midi": 62,
                    "time": 49.00000000000001,
                    "velocity": 0.7874015748031497,
                    "duration": 0.25
                },
                {
                    "name": "E4",
                    "midi": 64,
                    "time": 49.25000000000001,
                    "velocity": 0.7874015748031497,
                    "duration": 0.125
                },
                {
                    "name": "F4",
                    "midi": 65,
                    "time": 49.37500000000001,
                    "velocity": 0.7874015748031497,
                    "duration": 0.125
                },
                {
                    "name": "E4",
                    "midi": 64,
                    "time": 49.50000000000001,
                    "velocity": 0.7874015748031497,
                    "duration": 0.25
                },
                {
                    "name": "D4",
                    "midi": 62,
                    "time": 49.75000000000001,
                    "velocity": 0.7874015748031497,
                    "duration": 0.25
                },
                {
                    "name": "C#4",
                    "midi": 61,
                    "time": 50.00000000000001,
                    "velocity": 0.7874015748031497,
                    "duration": 0.25
                },
                {
                    "name": "E4",
                    "midi": 64,
                    "time": 50.25000000000001,
                    "velocity": 0.7874015748031497,
                    "duration": 0.25
                },
                {
                    "name": "A3",
                    "midi": 57,
                    "time": 50.50000000000001,
                    "velocity": 0.7874015748031497,
                    "duration": 0.25
                },
                {
                    "name": "G3",
                    "midi": 55,
                    "time": 50.75000000000001,
                    "velocity": 0.7874015748031497,
                    "duration": 0.25
                },
                {
                    "name": "A3",
                    "midi": 57,
                    "time": 51.00000000000001,
                    "velocity": 0.7874015748031497,
                    "duration": 0.5
                },
                {
                    "name": "D4",
                    "midi": 62,
                    "time": 51.50000000000001,
                    "velocity": 0.7874015748031497,
                    "duration": 0.5
                },
                {
                    "name": "C#4",
                    "midi": 61,
                    "time": 52.00000000000001,
                    "velocity": 0.7874015748031497,
                    "duration": 0.5
                },
                {
                    "name": "G4",
                    "midi": 67,
                    "time": 52.50000000000001,
                    "velocity": 0.7874015748031497,
                    "duration": 0.25
                },
                {
                    "name": "F4",
                    "midi": 65,
                    "time": 52.75000000000001,
                    "velocity": 0.7874015748031497,
                    "duration": 0.25
                },
                {
                    "name": "E4",
                    "midi": 64,
                    "time": 53.00000000000001,
                    "velocity": 0.7874015748031497,
                    "duration": 0.25
                },
                {
                    "name": "F4",
                    "midi": 65,
                    "time": 53.25000000000001,
                    "velocity": 0.7874015748031497,
                    "duration": 0.25
                },
                {
                    "name": "D4",
                    "midi": 62,
                    "time": 53.50000000000001,
                    "velocity": 0.7874015748031497,
                    "duration": 0.25
                },
                {
                    "name": "C4",
                    "midi": 60,
                    "time": 53.75000000000001,
                    "velocity": 0.7874015748031497,
                    "duration": 0.25
                },
                {
                    "name": "A#3",
                    "midi": 58,
                    "time": 54.00000000000001,
                    "velocity": 0.7874015748031497,
                    "duration": 1
                },
                {
                    "name": "C4",
                    "midi": 60,
                    "time": 55.00000000000001,
                    "velocity": 0.7874015748031497,
                    "duration": 0.5
                },
                {
                    "name": "A3",
                    "midi": 57,
                    "time": 55.50000000000001,
                    "velocity": 0.7874015748031497,
                    "duration": 0.25
                },
                {
                    "name": "G3",
                    "midi": 55,
                    "time": 55.75000000000001,
                    "velocity": 0.7874015748031497,
                    "duration": 0.25
                },
                {
                    "name": "A3",
                    "midi": 57,
                    "time": 56.00000000000001,
                    "velocity": 0.7874015748031497,
                    "duration": 0.25
                },
                {
                    "name": "F3",
                    "midi": 53,
                    "time": 56.25000000000001,
                    "velocity": 0.7874015748031497,
                    "duration": 0.25
                },
                {
                    "name": "E3",
                    "midi": 52,
                    "time": 56.50000000000001,
                    "velocity": 0.7874015748031497,
                    "duration": 0.5
                },
                {
                    "name": "F3",
                    "midi": 53,
                    "time": 57.00000000000001,
                    "velocity": 0.7874015748031497,
                    "duration": 0.5
                },
                {
                    "name": "F#3",
                    "midi": 54,
                    "time": 60.00000000000001,
                    "velocity": 0.7874015748031497,
                    "duration": 1
                },
                {
                    "name": "A#3",
                    "midi": 58,
                    "time": 61.00000000000001,
                    "velocity": 0.7874015748031497,
                    "duration": 0.5
                },
                {
                    "name": "C4",
                    "midi": 60,
                    "time": 61.50000000000001,
                    "velocity": 0.7874015748031497,
                    "duration": 0.25
                },
                {
                    "name": "A#3",
                    "midi": 58,
                    "time": 61.75000000000001,
                    "velocity": 0.7874015748031497,
                    "duration": 0.25
                },
                {
                    "name": "C4",
                    "midi": 60,
                    "time": 62.00000000000001,
                    "velocity": 0.7874015748031497,
                    "duration": 0.25
                },
                {
                    "name": "A3",
                    "midi": 57,
                    "time": 62.25000000000001,
                    "velocity": 0.7874015748031497,
                    "duration": 0.25
                },
                {
                    "name": "F#3",
                    "midi": 54,
                    "time": 62.50000000000001,
                    "velocity": 0.7874015748031497,
                    "duration": 0.5
                },
                {
                    "name": "D4",
                    "midi": 62,
                    "time": 63.00000000000001,
                    "velocity": 0.7874015748031497,
                    "duration": 0.5
                },
                {
                    "name": "C4",
                    "midi": 60,
                    "time": 63.50000000000001,
                    "velocity": 0.7874015748031497,
                    "duration": 0.4999999999999929
                },
                {
                    "name": "A#3",
                    "midi": 58,
                    "time": 64,
                    "velocity": 0.7874015748031497,
                    "duration": 0.25
                },
                {
                    "name": "A3",
                    "midi": 57,
                    "time": 64.25,
                    "velocity": 0.7874015748031497,
                    "duration": 0.25
                },
                {
                    "name": "C4",
                    "midi": 60,
                    "time": 64.5,
                    "velocity": 0.7874015748031497,
                    "duration": 0.25
                },
                {
                    "name": "A#3",
                    "midi": 58,
                    "time": 64.75,
                    "velocity": 0.7874015748031497,
                    "duration": 0.25
                },
                {
                    "name": "A3",
                    "midi": 57,
                    "time": 65,
                    "velocity": 0.7874015748031497,
                    "duration": 0.25
                },
                {
                    "name": "A#3",
                    "midi": 58,
                    "time": 65.25,
                    "velocity": 0.7874015748031497,
                    "duration": 0.25
                },
                {
                    "name": "G3",
                    "midi": 55,
                    "time": 65.5,
                    "velocity": 0.7874015748031497,
                    "duration": 0.25
                },
                {
                    "name": "A#3",
                    "midi": 58,
                    "time": 65.75,
                    "velocity": 0.7874015748031497,
                    "duration": 0.25
                },
                {
                    "name": "D4",
                    "midi": 62,
                    "time": 66,
                    "velocity": 0.7874015748031497,
                    "duration": 0.5
                },
                {
                    "name": "C#4",
                    "midi": 61,
                    "time": 66.5,
                    "velocity": 0.7874015748031497,
                    "duration": 0.5
                },
                {
                    "name": "D4",
                    "midi": 62,
                    "time": 67,
                    "velocity": 0.7874015748031497,
                    "duration": 0.5
                },
                {
                    "name": "G3",
                    "midi": 55,
                    "time": 67.5,
                    "velocity": 0.7874015748031497,
                    "duration": 0.25
                },
                {
                    "name": "F3",
                    "midi": 53,
                    "time": 67.75,
                    "velocity": 0.7874015748031497,
                    "duration": 0.25
                },
                {
                    "name": "G3",
                    "midi": 55,
                    "time": 68,
                    "velocity": 0.7874015748031497,
                    "duration": 0.25
                },
                {
                    "name": "E3",
                    "midi": 52,
                    "time": 68.25,
                    "velocity": 0.7874015748031497,
                    "duration": 0.25
                },
                {
                    "name": "F3",
                    "midi": 53,
                    "time": 68.5,
                    "velocity": 0.7874015748031497,
                    "duration": 0.5
                },
                {
                    "name": "G2",
                    "midi": 43,
                    "time": 69,
                    "velocity": 0.7874015748031497,
                    "duration": 0.25
                },
                {
                    "name": "G3",
                    "midi": 55,
                    "time": 69.25,
                    "velocity": 0.7874015748031497,
                    "duration": 0.25
                },
                {
                    "name": "E3",
                    "midi": 52,
                    "time": 69.5,
                    "velocity": 0.7874015748031497,
                    "duration": 0.7499999999999858
                },
                {
                    "name": "D3",
                    "midi": 50,
                    "time": 70.24999999999999,
                    "velocity": 0.7874015748031497,
                    "duration": 0.25
                },
                {
                    "name": "D3",
                    "midi": 50,
                    "time": 70.49999999999999,
                    "velocity": 0.7874015748031497,
                    "duration": 1.5
                },
                {
                    "name": "F#3",
                    "midi": 54,
                    "time": 71.99999999999999,
                    "velocity": 0.7874015748031497,
                    "duration": 0.5
                },
                {
                    "name": "D3",
                    "midi": 50,
                    "time": 72.49999999999999,
                    "velocity": 0.7874015748031497,
                    "duration": 0.25
                },
                {
                    "name": "E3",
                    "midi": 52,
                    "time": 72.74999999999999,
                    "velocity": 0.7874015748031497,
                    "duration": 0.25
                },
                {
                    "name": "F#3",
                    "midi": 54,
                    "time": 72.99999999999999,
                    "velocity": 0.7874015748031497,
                    "duration": 0.25
                },
                {
                    "name": "G3",
                    "midi": 55,
                    "time": 73.24999999999999,
                    "velocity": 0.7874015748031497,
                    "duration": 0.25
                },
                {
                    "name": "A3",
                    "midi": 57,
                    "time": 73.49999999999999,
                    "velocity": 0.7874015748031497,
                    "duration": 0.5
                },
                {
                    "name": "F#2",
                    "midi": 42,
                    "time": 73.99999999999999,
                    "velocity": 0.7874015748031497,
                    "duration": 0.5
                },
                {
                    "name": "A3",
                    "midi": 57,
                    "time": 74.49999999999999,
                    "velocity": 0.7874015748031497,
                    "duration": 0.5
                },
                {
                    "name": "G2",
                    "midi": 43,
                    "time": 74.99999999999999,
                    "velocity": 0.7874015748031497,
                    "duration": 0.25
                },
                {
                    "name": "B2",
                    "midi": 47,
                    "time": 75.24999999999999,
                    "velocity": 0.7874015748031497,
                    "duration": 0.25
                },
                {
                    "name": "E3",
                    "midi": 52,
                    "time": 75.49999999999999,
                    "velocity": 0.7874015748031497,
                    "duration": 0.5
                },
                {
                    "name": "G3",
                    "midi": 55,
                    "time": 75.99999999999999,
                    "velocity": 0.7874015748031497,
                    "duration": 0.5
                },
                {
                    "name": "D3",
                    "midi": 50,
                    "time": 76.49999999999999,
                    "velocity": 0.7874015748031497,
                    "duration": 0.25
                },
                {
                    "name": "C#3",
                    "midi": 49,
                    "time": 76.74999999999999,
                    "velocity": 0.7874015748031497,
                    "duration": 0.25
                },
                {
                    "name": "B2",
                    "midi": 47,
                    "time": 76.99999999999999,
                    "velocity": 0.7874015748031497,
                    "duration": 0.25
                },
                {
                    "name": "C#3",
                    "midi": 49,
                    "time": 77.24999999999999,
                    "velocity": 0.7874015748031497,
                    "duration": 0.25
                },
                {
                    "name": "A2",
                    "midi": 45,
                    "time": 77.49999999999999,
                    "velocity": 0.7874015748031497,
                    "duration": 0.25
                },
                {
                    "name": "G2",
                    "midi": 43,
                    "time": 77.74999999999999,
                    "velocity": 0.7874015748031497,
                    "duration": 0.25
                },
                {
                    "name": "F#2",
                    "midi": 42,
                    "time": 77.99999999999999,
                    "velocity": 0.7874015748031497,
                    "duration": 0.25
                },
                {
                    "name": "D4",
                    "midi": 62,
                    "time": 78.24999999999999,
                    "velocity": 0.7874015748031497,
                    "duration": 0.25
                },
                {
                    "name": "C#4",
                    "midi": 61,
                    "time": 78.49999999999999,
                    "velocity": 0.7874015748031497,
                    "duration": 0.25
                },
                {
                    "name": "B3",
                    "midi": 59,
                    "time": 78.74999999999999,
                    "velocity": 0.7874015748031497,
                    "duration": 0.25
                },
                {
                    "name": "A3",
                    "midi": 57,
                    "time": 78.99999999999999,
                    "velocity": 0.7874015748031497,
                    "duration": 0.25
                },
                {
                    "name": "G3",
                    "midi": 55,
                    "time": 79.24999999999999,
                    "velocity": 0.7874015748031497,
                    "duration": 0.25
                },
                {
                    "name": "B3",
                    "midi": 59,
                    "time": 79.49999999999999,
                    "velocity": 0.7874015748031497,
                    "duration": 0.25
                },
                {
                    "name": "A3",
                    "midi": 57,
                    "time": 79.74999999999999,
                    "velocity": 0.7874015748031497,
                    "duration": 0.25
                },
                {
                    "name": "G3",
                    "midi": 55,
                    "time": 79.99999999999999,
                    "velocity": 0.7874015748031497,
                    "duration": 0.25
                },
                {
                    "name": "F#3",
                    "midi": 54,
                    "time": 80.24999999999999,
                    "velocity": 0.7874015748031497,
                    "duration": 0.25
                },
                {
                    "name": "E3",
                    "midi": 52,
                    "time": 80.49999999999999,
                    "velocity": 0.7874015748031497,
                    "duration": 0.25
                },
                {
                    "name": "D3",
                    "midi": 50,
                    "time": 80.74999999999999,
                    "velocity": 0.7874015748031497,
                    "duration": 0.25
                },
                {
                    "name": "C#3",
                    "midi": 49,
                    "time": 80.99999999999999,
                    "velocity": 0.7874015748031497,
                    "duration": 0.25
                },
                {
                    "name": "D3",
                    "midi": 50,
                    "time": 81.24999999999999,
                    "velocity": 0.7874015748031497,
                    "duration": 0.25
                },
                {
                    "name": "G3",
                    "midi": 55,
                    "time": 81.49999999999999,
                    "velocity": 0.7874015748031497,
                    "duration": 0.5
                },
                {
                    "name": "F#3",
                    "midi": 54,
                    "time": 81.99999999999999,
                    "velocity": 0.7874015748031497,
                    "duration": 0.25
                },
                {
                    "name": "G3",
                    "midi": 55,
                    "time": 82.24999999999999,
                    "velocity": 0.7874015748031497,
                    "duration": 0.125
                },
                {
                    "name": "A3",
                    "midi": 57,
                    "time": 82.37499999999999,
                    "velocity": 0.7874015748031497,
                    "duration": 0.125
                },
                {
                    "name": "E3",
                    "midi": 52,
                    "time": 82.49999999999999,
                    "velocity": 0.7874015748031497,
                    "duration": 1.4999999999999858
                },
                {
                    "name": "F#3",
                    "midi": 54,
                    "time": 83.99999999999997,
                    "velocity": 0.7874015748031497,
                    "duration": 0.5
                },
                {
                    "name": "D3",
                    "midi": 50,
                    "time": 84.49999999999997,
                    "velocity": 0.7874015748031497,
                    "duration": 0.25
                },
                {
                    "name": "E3",
                    "midi": 52,
                    "time": 84.74999999999997,
                    "velocity": 0.7874015748031497,
                    "duration": 0.25
                },
                {
                    "name": "F#3",
                    "midi": 54,
                    "time": 84.99999999999997,
                    "velocity": 0.7874015748031497,
                    "duration": 0.25
                },
                {
                    "name": "G3",
                    "midi": 55,
                    "time": 85.24999999999997,
                    "velocity": 0.7874015748031497,
                    "duration": 0.25
                },
                {
                    "name": "A3",
                    "midi": 57,
                    "time": 85.49999999999997,
                    "velocity": 0.7874015748031497,
                    "duration": 0.5
                },
                {
                    "name": "F#2",
                    "midi": 42,
                    "time": 85.99999999999997,
                    "velocity": 0.7874015748031497,
                    "duration": 0.5
                },
                {
                    "name": "A3",
                    "midi": 57,
                    "time": 86.49999999999997,
                    "velocity": 0.7874015748031497,
                    "duration": 0.5
                },
                {
                    "name": "G2",
                    "midi": 43,
                    "time": 86.99999999999997,
                    "velocity": 0.7874015748031497,
                    "duration": 0.25
                },
                {
                    "name": "B2",
                    "midi": 47,
                    "time": 87.24999999999997,
                    "velocity": 0.7874015748031497,
                    "duration": 0.25
                },
                {
                    "name": "E3",
                    "midi": 52,
                    "time": 87.49999999999997,
                    "velocity": 0.7874015748031497,
                    "duration": 0.5
                },
                {
                    "name": "G3",
                    "midi": 55,
                    "time": 87.99999999999997,
                    "velocity": 0.7874015748031497,
                    "duration": 0.5
                },
                {
                    "name": "D3",
                    "midi": 50,
                    "time": 88.49999999999997,
                    "velocity": 0.7874015748031497,
                    "duration": 0.25
                },
                {
                    "name": "C#3",
                    "midi": 49,
                    "time": 88.74999999999997,
                    "velocity": 0.7874015748031497,
                    "duration": 0.25
                },
                {
                    "name": "B2",
                    "midi": 47,
                    "time": 88.99999999999997,
                    "velocity": 0.7874015748031497,
                    "duration": 0.25
                },
                {
                    "name": "C#3",
                    "midi": 49,
                    "time": 89.24999999999997,
                    "velocity": 0.7874015748031497,
                    "duration": 0.25
                },
                {
                    "name": "A2",
                    "midi": 45,
                    "time": 89.49999999999997,
                    "velocity": 0.7874015748031497,
                    "duration": 0.25
                },
                {
                    "name": "G2",
                    "midi": 43,
                    "time": 89.74999999999997,
                    "velocity": 0.7874015748031497,
                    "duration": 0.25
                },
                {
                    "name": "F#2",
                    "midi": 42,
                    "time": 89.99999999999997,
                    "velocity": 0.7874015748031497,
                    "duration": 0.25
                },
                {
                    "name": "D4",
                    "midi": 62,
                    "time": 90.24999999999997,
                    "velocity": 0.7874015748031497,
                    "duration": 0.25
                },
                {
                    "name": "C#4",
                    "midi": 61,
                    "time": 90.49999999999997,
                    "velocity": 0.7874015748031497,
                    "duration": 0.25
                },
                {
                    "name": "B3",
                    "midi": 59,
                    "time": 90.74999999999997,
                    "velocity": 0.7874015748031497,
                    "duration": 0.25
                },
                {
                    "name": "A3",
                    "midi": 57,
                    "time": 90.99999999999997,
                    "velocity": 0.7874015748031497,
                    "duration": 0.25
                },
                {
                    "name": "G3",
                    "midi": 55,
                    "time": 91.24999999999997,
                    "velocity": 0.7874015748031497,
                    "duration": 0.25
                },
                {
                    "name": "B3",
                    "midi": 59,
                    "time": 91.49999999999997,
                    "velocity": 0.7874015748031497,
                    "duration": 0.25
                },
                {
                    "name": "A3",
                    "midi": 57,
                    "time": 91.74999999999997,
                    "velocity": 0.7874015748031497,
                    "duration": 0.25
                },
                {
                    "name": "G3",
                    "midi": 55,
                    "time": 91.99999999999997,
                    "velocity": 0.7874015748031497,
                    "duration": 0.25
                },
                {
                    "name": "F#3",
                    "midi": 54,
                    "time": 92.24999999999997,
                    "velocity": 0.7874015748031497,
                    "duration": 0.25
                },
                {
                    "name": "E3",
                    "midi": 52,
                    "time": 92.49999999999997,
                    "velocity": 0.7874015748031497,
                    "duration": 0.25
                },
                {
                    "name": "D3",
                    "midi": 50,
                    "time": 92.74999999999997,
                    "velocity": 0.7874015748031497,
                    "duration": 0.25
                },
                {
                    "name": "C#3",
                    "midi": 49,
                    "time": 92.99999999999997,
                    "velocity": 0.7874015748031497,
                    "duration": 0.25
                },
                {
                    "name": "D3",
                    "midi": 50,
                    "time": 93.24999999999997,
                    "velocity": 0.7874015748031497,
                    "duration": 0.25
                },
                {
                    "name": "G3",
                    "midi": 55,
                    "time": 93.49999999999997,
                    "velocity": 0.7874015748031497,
                    "duration": 0.5
                },
                {
                    "name": "F#3",
                    "midi": 54,
                    "time": 93.99999999999997,
                    "velocity": 0.7874015748031497,
                    "duration": 0.25
                },
                {
                    "name": "G3",
                    "midi": 55,
                    "time": 94.24999999999997,
                    "velocity": 0.7874015748031497,
                    "duration": 0.125
                },
                {
                    "name": "A3",
                    "midi": 57,
                    "time": 94.37499999999997,
                    "velocity": 0.7874015748031497,
                    "duration": 0.125
                },
                {
                    "name": "E3",
                    "midi": 52,
                    "time": 94.49999999999997,
                    "velocity": 0.7874015748031497,
                    "duration": 1.4999999999999858
                },
                {
                    "name": "C#4",
                    "midi": 61,
                    "time": 95.99999999999996,
                    "velocity": 0.7874015748031497,
                    "duration": 0.5
                },
                {
                    "name": "E4",
                    "midi": 64,
                    "time": 96.49999999999996,
                    "velocity": 0.7874015748031497,
                    "duration": 0.25
                },
                {
                    "name": "D4",
                    "midi": 62,
                    "time": 96.74999999999996,
                    "velocity": 0.7874015748031497,
                    "duration": 0.25
                },
                {
                    "name": "C#4",
                    "midi": 61,
                    "time": 96.99999999999996,
                    "velocity": 0.7874015748031497,
                    "duration": 0.25
                },
                {
                    "name": "B3",
                    "midi": 59,
                    "time": 97.24999999999996,
                    "velocity": 0.7874015748031497,
                    "duration": 0.25
                },
                {
                    "name": "C#4",
                    "midi": 61,
                    "time": 97.49999999999996,
                    "velocity": 0.7874015748031497,
                    "duration": 0.5
                },
                {
                    "name": "G2",
                    "midi": 43,
                    "time": 97.99999999999996,
                    "velocity": 0.7874015748031497,
                    "duration": 0.5
                },
                {
                    "name": "C#4",
                    "midi": 61,
                    "time": 98.49999999999996,
                    "velocity": 0.7874015748031497,
                    "duration": 0.5
                },
                {
                    "name": "F#3",
                    "midi": 54,
                    "time": 98.99999999999996,
                    "velocity": 0.7874015748031497,
                    "duration": 0.25
                },
                {
                    "name": "A3",
                    "midi": 57,
                    "time": 99.24999999999996,
                    "velocity": 0.7874015748031497,
                    "duration": 0.25
                },
                {
                    "name": "D4",
                    "midi": 62,
                    "time": 99.49999999999996,
                    "velocity": 0.7874015748031497,
                    "duration": 0.5
                },
                {
                    "name": "F#4",
                    "midi": 66,
                    "time": 99.99999999999996,
                    "velocity": 0.7874015748031497,
                    "duration": 0.5
                },
                {
                    "name": "B3",
                    "midi": 59,
                    "time": 100.49999999999996,
                    "velocity": 0.7874015748031497,
                    "duration": 0.25
                },
                {
                    "name": "A3",
                    "midi": 57,
                    "time": 100.74999999999996,
                    "velocity": 0.7874015748031497,
                    "duration": 0.25
                },
                {
                    "name": "G3",
                    "midi": 55,
                    "time": 100.99999999999996,
                    "velocity": 0.7874015748031497,
                    "duration": 0.25
                },
                {
                    "name": "F#3",
                    "midi": 54,
                    "time": 101.24999999999996,
                    "velocity": 0.7874015748031497,
                    "duration": 0.25
                },
                {
                    "name": "G3",
                    "midi": 55,
                    "time": 101.49999999999996,
                    "velocity": 0.7874015748031497,
                    "duration": 0.25
                },
                {
                    "name": "B3",
                    "midi": 59,
                    "time": 101.74999999999996,
                    "velocity": 0.7874015748031497,
                    "duration": 0.25
                },
                {
                    "name": "E3",
                    "midi": 52,
                    "time": 101.99999999999996,
                    "velocity": 0.7874015748031497,
                    "duration": 0.25
                },
                {
                    "name": "D4",
                    "midi": 62,
                    "time": 102.24999999999996,
                    "velocity": 0.7874015748031497,
                    "duration": 0.25
                },
                {
                    "name": "C#4",
                    "midi": 61,
                    "time": 102.49999999999996,
                    "velocity": 0.7874015748031497,
                    "duration": 0.25
                },
                {
                    "name": "B3",
                    "midi": 59,
                    "time": 102.74999999999996,
                    "velocity": 0.7874015748031497,
                    "duration": 0.25
                },
                {
                    "name": "C#4",
                    "midi": 61,
                    "time": 102.99999999999996,
                    "velocity": 0.7874015748031497,
                    "duration": 0.25
                },
                {
                    "name": "A#3",
                    "midi": 58,
                    "time": 103.24999999999996,
                    "velocity": 0.7874015748031497,
                    "duration": 0.25
                },
                {
                    "name": "D3",
                    "midi": 50,
                    "time": 103.49999999999996,
                    "velocity": 0.7874015748031497,
                    "duration": 0.25
                },
                {
                    "name": "B3",
                    "midi": 59,
                    "time": 103.74999999999996,
                    "velocity": 0.7874015748031497,
                    "duration": 0.25
                },
                {
                    "name": "A3",
                    "midi": 57,
                    "time": 103.99999999999996,
                    "velocity": 0.7874015748031497,
                    "duration": 0.25
                },
                {
                    "name": "G3",
                    "midi": 55,
                    "time": 104.24999999999996,
                    "velocity": 0.7874015748031497,
                    "duration": 0.25
                },
                {
                    "name": "F#3",
                    "midi": 54,
                    "time": 104.49999999999996,
                    "velocity": 0.7874015748031497,
                    "duration": 0.25
                },
                {
                    "name": "E3",
                    "midi": 52,
                    "time": 104.74999999999996,
                    "velocity": 0.7874015748031497,
                    "duration": 0.25
                },
                {
                    "name": "G3",
                    "midi": 55,
                    "time": 104.99999999999996,
                    "velocity": 0.7874015748031497,
                    "duration": 0.25
                },
                {
                    "name": "F#3",
                    "midi": 54,
                    "time": 105.24999999999996,
                    "velocity": 0.7874015748031497,
                    "duration": 0.25
                },
                {
                    "name": "E3",
                    "midi": 52,
                    "time": 105.49999999999996,
                    "velocity": 0.7874015748031497,
                    "duration": 0.25
                },
                {
                    "name": "D3",
                    "midi": 50,
                    "time": 105.74999999999996,
                    "velocity": 0.7874015748031497,
                    "duration": 0.25
                },
                {
                    "name": "C#3",
                    "midi": 49,
                    "time": 105.99999999999996,
                    "velocity": 0.7874015748031497,
                    "duration": 0.25
                },
                {
                    "name": "D3",
                    "midi": 50,
                    "time": 106.24999999999996,
                    "velocity": 0.7874015748031497,
                    "duration": 0.25
                },
                {
                    "name": "B2",
                    "midi": 47,
                    "time": 106.49999999999996,
                    "velocity": 0.7874015748031497,
                    "duration": 0.25
                },
                {
                    "name": "C#3",
                    "midi": 49,
                    "time": 106.74999999999996,
                    "velocity": 0.7874015748031497,
                    "duration": 0.25
                },
                {
                    "name": "D3",
                    "midi": 50,
                    "time": 106.99999999999996,
                    "velocity": 0.7874015748031497,
                    "duration": 0.25
                },
                {
                    "name": "E3",
                    "midi": 52,
                    "time": 107.24999999999996,
                    "velocity": 0.7874015748031497,
                    "duration": 0.25
                },
                {
                    "name": "F#3",
                    "midi": 54,
                    "time": 107.49999999999996,
                    "velocity": 0.7874015748031497,
                    "duration": 0.25
                },
                {
                    "name": "G3",
                    "midi": 55,
                    "time": 107.74999999999996,
                    "velocity": 0.7874015748031497,
                    "duration": 0.25
                },
                {
                    "name": "A3",
                    "midi": 57,
                    "time": 107.99999999999996,
                    "velocity": 0.7874015748031497,
                    "duration": 0.25
                },
                {
                    "name": "G3",
                    "midi": 55,
                    "time": 108.24999999999996,
                    "velocity": 0.7874015748031497,
                    "duration": 0.25
                },
                {
                    "name": "F#3",
                    "midi": 54,
                    "time": 108.49999999999996,
                    "velocity": 0.7874015748031497,
                    "duration": 0.25
                },
                {
                    "name": "G3",
                    "midi": 55,
                    "time": 108.74999999999996,
                    "velocity": 0.7874015748031497,
                    "duration": 0.25
                },
                {
                    "name": "A3",
                    "midi": 57,
                    "time": 108.99999999999996,
                    "velocity": 0.7874015748031497,
                    "duration": 0.25
                },
                {
                    "name": "B3",
                    "midi": 59,
                    "time": 109.24999999999996,
                    "velocity": 0.7874015748031497,
                    "duration": 0.25
                },
                {
                    "name": "C4",
                    "midi": 60,
                    "time": 109.49999999999996,
                    "velocity": 0.7874015748031497,
                    "duration": 0.5
                },
                {
                    "name": "D#2",
                    "midi": 39,
                    "time": 109.99999999999996,
                    "velocity": 0.7874015748031497,
                    "duration": 0.5
                },
                {
                    "name": "C4",
                    "midi": 60,
                    "time": 110.49999999999996,
                    "velocity": 0.7874015748031497,
                    "duration": 0.5
                },
                {
                    "name": "B3",
                    "midi": 59,
                    "time": 110.99999999999996,
                    "velocity": 0.7874015748031497,
                    "duration": 0.25
                },
                {
                    "name": "A3",
                    "midi": 57,
                    "time": 111.24999999999996,
                    "velocity": 0.7874015748031497,
                    "duration": 0.25
                },
                {
                    "name": "C4",
                    "midi": 60,
                    "time": 111.49999999999996,
                    "velocity": 0.7874015748031497,
                    "duration": 0.25
                },
                {
                    "name": "B3",
                    "midi": 59,
                    "time": 111.74999999999996,
                    "velocity": 0.7874015748031497,
                    "duration": 0.25
                },
                {
                    "name": "A3",
                    "midi": 57,
                    "time": 111.99999999999996,
                    "velocity": 0.7874015748031497,
                    "duration": 0.25
                },
                {
                    "name": "G3",
                    "midi": 55,
                    "time": 112.24999999999996,
                    "velocity": 0.7874015748031497,
                    "duration": 0.25
                },
                {
                    "name": "F#3",
                    "midi": 54,
                    "time": 112.49999999999996,
                    "velocity": 0.7874015748031497,
                    "duration": 0.25
                },
                {
                    "name": "G3",
                    "midi": 55,
                    "time": 112.74999999999996,
                    "velocity": 0.7874015748031497,
                    "duration": 0.25
                },
                {
                    "name": "A3",
                    "midi": 57,
                    "time": 112.99999999999996,
                    "velocity": 0.7874015748031497,
                    "duration": 0.25
                },
                {
                    "name": "F#3",
                    "midi": 54,
                    "time": 113.24999999999996,
                    "velocity": 0.7874015748031497,
                    "duration": 0.25
                },
                {
                    "name": "G3",
                    "midi": 55,
                    "time": 113.49999999999996,
                    "velocity": 0.7874015748031497,
                    "duration": 0.25
                },
                {
                    "name": "E3",
                    "midi": 52,
                    "time": 113.74999999999996,
                    "velocity": 0.7874015748031497,
                    "duration": 0.25
                },
                {
                    "name": "C#3",
                    "midi": 49,
                    "time": 113.99999999999996,
                    "velocity": 0.7874015748031497,
                    "duration": 0.5
                },
                {
                    "name": "A2",
                    "midi": 45,
                    "time": 114.49999999999996,
                    "velocity": 0.7874015748031497,
                    "duration": 0.25
                },
                {
                    "name": "B2",
                    "midi": 47,
                    "time": 114.74999999999996,
                    "velocity": 0.7874015748031497,
                    "duration": 0.25
                },
                {
                    "name": "C#3",
                    "midi": 49,
                    "time": 114.99999999999996,
                    "velocity": 0.7874015748031497,
                    "duration": 0.25
                },
                {
                    "name": "D3",
                    "midi": 50,
                    "time": 115.24999999999996,
                    "velocity": 0.7874015748031497,
                    "duration": 0.25
                },
                {
                    "name": "E3",
                    "midi": 52,
                    "time": 115.49999999999996,
                    "velocity": 0.7874015748031497,
                    "duration": 0.25
                },
                {
                    "name": "F#3",
                    "midi": 54,
                    "time": 115.74999999999996,
                    "velocity": 0.7874015748031497,
                    "duration": 0.25
                },
                {
                    "name": "G3",
                    "midi": 55,
                    "time": 115.99999999999996,
                    "velocity": 0.7874015748031497,
                    "duration": 0.25
                },
                {
                    "name": "B3",
                    "midi": 59,
                    "time": 116.24999999999996,
                    "velocity": 0.7874015748031497,
                    "duration": 0.25
                },
                {
                    "name": "A3",
                    "midi": 57,
                    "time": 116.49999999999996,
                    "velocity": 0.7874015748031497,
                    "duration": 0.5
                },
                {
                    "name": "G3",
                    "midi": 55,
                    "time": 116.99999999999996,
                    "velocity": 0.7874015748031497,
                    "duration": 0.25
                },
                {
                    "name": "F#3",
                    "midi": 54,
                    "time": 117.24999999999996,
                    "velocity": 0.7874015748031497,
                    "duration": 0.25
                },
                {
                    "name": "E3",
                    "midi": 52,
                    "time": 117.49999999999996,
                    "velocity": 0.7874015748031497,
                    "duration": 0.25
                },
                {
                    "name": "D3",
                    "midi": 50,
                    "time": 117.74999999999996,
                    "velocity": 0.7874015748031497,
                    "duration": 0.25
                },
                {
                    "name": "E3",
                    "midi": 52,
                    "time": 117.99999999999996,
                    "velocity": 0.7874015748031497,
                    "duration": 0.25
                },
                {
                    "name": "C#3",
                    "midi": 49,
                    "time": 118.24999999999996,
                    "velocity": 0.7874015748031497,
                    "duration": 0.25
                },
                {
                    "name": "D3",
                    "midi": 50,
                    "time": 118.49999999999996,
                    "velocity": 0.7874015748031497,
                    "duration": 1.5
                },
                {
                    "name": "C#4",
                    "midi": 61,
                    "time": 119.99999999999996,
                    "velocity": 0.7874015748031497,
                    "duration": 0.5
                },
                {
                    "name": "E4",
                    "midi": 64,
                    "time": 120.49999999999996,
                    "velocity": 0.7874015748031497,
                    "duration": 0.25
                },
                {
                    "name": "D4",
                    "midi": 62,
                    "time": 120.74999999999996,
                    "velocity": 0.7874015748031497,
                    "duration": 0.25
                },
                {
                    "name": "C#4",
                    "midi": 61,
                    "time": 120.99999999999996,
                    "velocity": 0.7874015748031497,
                    "duration": 0.25
                },
                {
                    "name": "B3",
                    "midi": 59,
                    "time": 121.24999999999996,
                    "velocity": 0.7874015748031497,
                    "duration": 0.25
                },
                {
                    "name": "C#4",
                    "midi": 61,
                    "time": 121.49999999999996,
                    "velocity": 0.7874015748031497,
                    "duration": 0.5
                },
                {
                    "name": "G2",
                    "midi": 43,
                    "time": 121.99999999999996,
                    "velocity": 0.7874015748031497,
                    "duration": 0.5
                },
                {
                    "name": "C#4",
                    "midi": 61,
                    "time": 122.49999999999996,
                    "velocity": 0.7874015748031497,
                    "duration": 0.5
                },
                {
                    "name": "F#3",
                    "midi": 54,
                    "time": 122.99999999999996,
                    "velocity": 0.7874015748031497,
                    "duration": 0.25
                },
                {
                    "name": "A3",
                    "midi": 57,
                    "time": 123.24999999999996,
                    "velocity": 0.7874015748031497,
                    "duration": 0.25
                },
                {
                    "name": "D4",
                    "midi": 62,
                    "time": 123.49999999999996,
                    "velocity": 0.7874015748031497,
                    "duration": 0.5
                },
                {
                    "name": "F#4",
                    "midi": 66,
                    "time": 123.99999999999996,
                    "velocity": 0.7874015748031497,
                    "duration": 0.5
                },
                {
                    "name": "B3",
                    "midi": 59,
                    "time": 124.49999999999996,
                    "velocity": 0.7874015748031497,
                    "duration": 0.25
                },
                {
                    "name": "A3",
                    "midi": 57,
                    "time": 124.74999999999996,
                    "velocity": 0.7874015748031497,
                    "duration": 0.25
                },
                {
                    "name": "G3",
                    "midi": 55,
                    "time": 124.99999999999996,
                    "velocity": 0.7874015748031497,
                    "duration": 0.25
                },
                {
                    "name": "F#3",
                    "midi": 54,
                    "time": 125.24999999999996,
                    "velocity": 0.7874015748031497,
                    "duration": 0.25
                },
                {
                    "name": "G3",
                    "midi": 55,
                    "time": 125.49999999999996,
                    "velocity": 0.7874015748031497,
                    "duration": 0.25
                },
                {
                    "name": "B3",
                    "midi": 59,
                    "time": 125.74999999999996,
                    "velocity": 0.7874015748031497,
                    "duration": 0.25
                },
                {
                    "name": "E3",
                    "midi": 52,
                    "time": 125.99999999999996,
                    "velocity": 0.7874015748031497,
                    "duration": 0.25
                },
                {
                    "name": "D4",
                    "midi": 62,
                    "time": 126.24999999999996,
                    "velocity": 0.7874015748031497,
                    "duration": 0.25
                },
                {
                    "name": "C#4",
                    "midi": 61,
                    "time": 126.49999999999996,
                    "velocity": 0.7874015748031497,
                    "duration": 0.25
                },
                {
                    "name": "B3",
                    "midi": 59,
                    "time": 126.74999999999996,
                    "velocity": 0.7874015748031497,
                    "duration": 0.25
                },
                {
                    "name": "C#4",
                    "midi": 61,
                    "time": 126.99999999999996,
                    "velocity": 0.7874015748031497,
                    "duration": 0.25
                },
                {
                    "name": "A#3",
                    "midi": 58,
                    "time": 127.24999999999996,
                    "velocity": 0.7874015748031497,
                    "duration": 0.25
                },
                {
                    "name": "D3",
                    "midi": 50,
                    "time": 127.49999999999996,
                    "velocity": 0.7874015748031497,
                    "duration": 0.25
                },
                {
                    "name": "B3",
                    "midi": 59,
                    "time": 127.74999999999996,
                    "velocity": 0.7874015748031497,
                    "duration": 0.25
                },
                {
                    "name": "A3",
                    "midi": 57,
                    "time": 127.99999999999996,
                    "velocity": 0.7874015748031497,
                    "duration": 0.2499999999999858
                },
                {
                    "name": "G3",
                    "midi": 55,
                    "time": 128.24999999999994,
                    "velocity": 0.7874015748031497,
                    "duration": 0.25
                },
                {
                    "name": "F#3",
                    "midi": 54,
                    "time": 128.49999999999994,
                    "velocity": 0.7874015748031497,
                    "duration": 0.25
                },
                {
                    "name": "E3",
                    "midi": 52,
                    "time": 128.74999999999994,
                    "velocity": 0.7874015748031497,
                    "duration": 0.25
                },
                {
                    "name": "G3",
                    "midi": 55,
                    "time": 128.99999999999994,
                    "velocity": 0.7874015748031497,
                    "duration": 0.25
                },
                {
                    "name": "F#3",
                    "midi": 54,
                    "time": 129.24999999999994,
                    "velocity": 0.7874015748031497,
                    "duration": 0.25
                },
                {
                    "name": "E3",
                    "midi": 52,
                    "time": 129.49999999999994,
                    "velocity": 0.7874015748031497,
                    "duration": 0.25
                },
                {
                    "name": "D3",
                    "midi": 50,
                    "time": 129.74999999999994,
                    "velocity": 0.7874015748031497,
                    "duration": 0.25
                },
                {
                    "name": "C#3",
                    "midi": 49,
                    "time": 129.99999999999994,
                    "velocity": 0.7874015748031497,
                    "duration": 0.25
                },
                {
                    "name": "D3",
                    "midi": 50,
                    "time": 130.24999999999994,
                    "velocity": 0.7874015748031497,
                    "duration": 0.25
                },
                {
                    "name": "B2",
                    "midi": 47,
                    "time": 130.49999999999994,
                    "velocity": 0.7874015748031497,
                    "duration": 0.25
                },
                {
                    "name": "C#3",
                    "midi": 49,
                    "time": 130.74999999999994,
                    "velocity": 0.7874015748031497,
                    "duration": 0.25
                },
                {
                    "name": "D3",
                    "midi": 50,
                    "time": 130.99999999999994,
                    "velocity": 0.7874015748031497,
                    "duration": 0.25
                },
                {
                    "name": "E3",
                    "midi": 52,
                    "time": 131.24999999999994,
                    "velocity": 0.7874015748031497,
                    "duration": 0.25
                },
                {
                    "name": "F#3",
                    "midi": 54,
                    "time": 131.49999999999994,
                    "velocity": 0.7874015748031497,
                    "duration": 0.25
                },
                {
                    "name": "G3",
                    "midi": 55,
                    "time": 131.74999999999994,
                    "velocity": 0.7874015748031497,
                    "duration": 0.25
                },
                {
                    "name": "A3",
                    "midi": 57,
                    "time": 131.99999999999994,
                    "velocity": 0.7874015748031497,
                    "duration": 0.25
                },
                {
                    "name": "G3",
                    "midi": 55,
                    "time": 132.24999999999994,
                    "velocity": 0.7874015748031497,
                    "duration": 0.25
                },
                {
                    "name": "F#3",
                    "midi": 54,
                    "time": 132.49999999999994,
                    "velocity": 0.7874015748031497,
                    "duration": 0.25
                },
                {
                    "name": "G3",
                    "midi": 55,
                    "time": 132.74999999999994,
                    "velocity": 0.7874015748031497,
                    "duration": 0.25
                },
                {
                    "name": "A3",
                    "midi": 57,
                    "time": 132.99999999999994,
                    "velocity": 0.7874015748031497,
                    "duration": 0.25
                },
                {
                    "name": "B3",
                    "midi": 59,
                    "time": 133.24999999999994,
                    "velocity": 0.7874015748031497,
                    "duration": 0.25
                },
                {
                    "name": "C4",
                    "midi": 60,
                    "time": 133.49999999999994,
                    "velocity": 0.7874015748031497,
                    "duration": 0.5
                },
                {
                    "name": "D#2",
                    "midi": 39,
                    "time": 133.99999999999994,
                    "velocity": 0.7874015748031497,
                    "duration": 0.5
                },
                {
                    "name": "C4",
                    "midi": 60,
                    "time": 134.49999999999994,
                    "velocity": 0.7874015748031497,
                    "duration": 0.5
                },
                {
                    "name": "B3",
                    "midi": 59,
                    "time": 134.99999999999994,
                    "velocity": 0.7874015748031497,
                    "duration": 0.25
                },
                {
                    "name": "A3",
                    "midi": 57,
                    "time": 135.24999999999994,
                    "velocity": 0.7874015748031497,
                    "duration": 0.25
                },
                {
                    "name": "C4",
                    "midi": 60,
                    "time": 135.49999999999994,
                    "velocity": 0.7874015748031497,
                    "duration": 0.25
                },
                {
                    "name": "B3",
                    "midi": 59,
                    "time": 135.74999999999994,
                    "velocity": 0.7874015748031497,
                    "duration": 0.25
                },
                {
                    "name": "A3",
                    "midi": 57,
                    "time": 135.99999999999994,
                    "velocity": 0.7874015748031497,
                    "duration": 0.25
                },
                {
                    "name": "G3",
                    "midi": 55,
                    "time": 136.24999999999994,
                    "velocity": 0.7874015748031497,
                    "duration": 0.25
                },
                {
                    "name": "F#3",
                    "midi": 54,
                    "time": 136.49999999999994,
                    "velocity": 0.7874015748031497,
                    "duration": 0.25
                },
                {
                    "name": "G3",
                    "midi": 55,
                    "time": 136.74999999999994,
                    "velocity": 0.7874015748031497,
                    "duration": 0.25
                },
                {
                    "name": "A3",
                    "midi": 57,
                    "time": 136.99999999999994,
                    "velocity": 0.7874015748031497,
                    "duration": 0.25
                },
                {
                    "name": "F#3",
                    "midi": 54,
                    "time": 137.24999999999994,
                    "velocity": 0.7874015748031497,
                    "duration": 0.25
                },
                {
                    "name": "G3",
                    "midi": 55,
                    "time": 137.49999999999994,
                    "velocity": 0.7874015748031497,
                    "duration": 0.25
                },
                {
                    "name": "E3",
                    "midi": 52,
                    "time": 137.74999999999994,
                    "velocity": 0.7874015748031497,
                    "duration": 0.25
                },
                {
                    "name": "C#3",
                    "midi": 49,
                    "time": 137.99999999999994,
                    "velocity": 0.7874015748031497,
                    "duration": 0.5
                },
                {
                    "name": "A2",
                    "midi": 45,
                    "time": 138.49999999999994,
                    "velocity": 0.7874015748031497,
                    "duration": 0.25
                },
                {
                    "name": "B2",
                    "midi": 47,
                    "time": 138.74999999999994,
                    "velocity": 0.7874015748031497,
                    "duration": 0.25
                },
                {
                    "name": "C#3",
                    "midi": 49,
                    "time": 138.99999999999994,
                    "velocity": 0.7874015748031497,
                    "duration": 0.25
                },
                {
                    "name": "D3",
                    "midi": 50,
                    "time": 139.24999999999994,
                    "velocity": 0.7874015748031497,
                    "duration": 0.25
                },
                {
                    "name": "E3",
                    "midi": 52,
                    "time": 139.49999999999994,
                    "velocity": 0.7874015748031497,
                    "duration": 0.25
                },
                {
                    "name": "F#3",
                    "midi": 54,
                    "time": 139.74999999999994,
                    "velocity": 0.7874015748031497,
                    "duration": 0.25
                },
                {
                    "name": "G3",
                    "midi": 55,
                    "time": 139.99999999999994,
                    "velocity": 0.7874015748031497,
                    "duration": 0.25
                },
                {
                    "name": "B3",
                    "midi": 59,
                    "time": 140.24999999999994,
                    "velocity": 0.7874015748031497,
                    "duration": 0.25
                },
                {
                    "name": "A3",
                    "midi": 57,
                    "time": 140.49999999999994,
                    "velocity": 0.7874015748031497,
                    "duration": 0.5
                },
                {
                    "name": "G3",
                    "midi": 55,
                    "time": 140.99999999999994,
                    "velocity": 0.7874015748031497,
                    "duration": 0.25
                },
                {
                    "name": "F#3",
                    "midi": 54,
                    "time": 141.24999999999994,
                    "velocity": 0.7874015748031497,
                    "duration": 0.25
                },
                {
                    "name": "E3",
                    "midi": 52,
                    "time": 141.49999999999994,
                    "velocity": 0.7874015748031497,
                    "duration": 0.25
                },
                {
                    "name": "D3",
                    "midi": 50,
                    "time": 141.74999999999994,
                    "velocity": 0.7874015748031497,
                    "duration": 0.25
                },
                {
                    "name": "E3",
                    "midi": 52,
                    "time": 141.99999999999994,
                    "velocity": 0.7874015748031497,
                    "duration": 0.25
                },
                {
                    "name": "C#3",
                    "midi": 49,
                    "time": 142.24999999999994,
                    "velocity": 0.7874015748031497,
                    "duration": 0.25
                },
                {
                    "name": "D3",
                    "midi": 50,
                    "time": 142.49999999999994,
                    "velocity": 0.7874015748031497,
                    "duration": 1.5
                },
                {
                    "name": "A3",
                    "midi": 57,
                    "time": 143.99999999999994,
                    "velocity": 0.7874015748031497,
                    "duration": 1
                },
                {
                    "name": "A#3",
                    "midi": 58,
                    "time": 144.99999999999994,
                    "velocity": 0.7874015748031497,
                    "duration": 0.5
                },
                {
                    "name": "A#3",
                    "midi": 58,
                    "time": 145.49999999999994,
                    "velocity": 0.7874015748031497,
                    "duration": 0.25
                },
                {
                    "name": "A3",
                    "midi": 57,
                    "time": 145.74999999999994,
                    "velocity": 0.7874015748031497,
                    "duration": 0.25
                },
                {
                    "name": "A#3",
                    "midi": 58,
                    "time": 145.99999999999994,
                    "velocity": 0.7874015748031497,
                    "duration": 0.25
                },
                {
                    "name": "G3",
                    "midi": 55,
                    "time": 146.24999999999994,
                    "velocity": 0.7874015748031497,
                    "duration": 0.25
                },
                {
                    "name": "A3",
                    "midi": 57,
                    "time": 146.49999999999994,
                    "velocity": 0.7874015748031497,
                    "duration": 0.5
                },
                {
                    "name": "D3",
                    "midi": 50,
                    "time": 146.99999999999994,
                    "velocity": 0.7874015748031497,
                    "duration": 0.5
                },
                {
                    "name": "G3",
                    "midi": 55,
                    "time": 147.49999999999994,
                    "velocity": 0.7874015748031497,
                    "duration": 0.5
                },
                {
                    "name": "F3",
                    "midi": 53,
                    "time": 147.99999999999994,
                    "velocity": 0.7874015748031497,
                    "duration": 0.25
                },
                {
                    "name": "E3",
                    "midi": 52,
                    "time": 148.24999999999994,
                    "velocity": 0.7874015748031497,
                    "duration": 0.25
                },
                {
                    "name": "F3",
                    "midi": 53,
                    "time": 148.49999999999994,
                    "velocity": 0.7874015748031497,
                    "duration": 0.25
                },
                {
                    "name": "E3",
                    "midi": 52,
                    "time": 148.74999999999994,
                    "velocity": 0.7874015748031497,
                    "duration": 0.25
                },
                {
                    "name": "D3",
                    "midi": 50,
                    "time": 148.99999999999994,
                    "velocity": 0.7874015748031497,
                    "duration": 0.25
                },
                {
                    "name": "C#3",
                    "midi": 49,
                    "time": 149.24999999999994,
                    "velocity": 0.7874015748031497,
                    "duration": 0.25
                },
                {
                    "name": "B2",
                    "midi": 47,
                    "time": 149.49999999999994,
                    "velocity": 0.7874015748031497,
                    "duration": 0.25
                },
                {
                    "name": "A2",
                    "midi": 45,
                    "time": 149.74999999999994,
                    "velocity": 0.7874015748031497,
                    "duration": 0.25
                },
                {
                    "name": "A3",
                    "midi": 57,
                    "time": 149.99999999999994,
                    "velocity": 0.7874015748031497,
                    "duration": 1
                },
                {
                    "name": "A#3",
                    "midi": 58,
                    "time": 150.99999999999994,
                    "velocity": 0.7874015748031497,
                    "duration": 0.5
                },
                {
                    "name": "A#3",
                    "midi": 58,
                    "time": 151.49999999999994,
                    "velocity": 0.7874015748031497,
                    "duration": 0.25
                },
                {
                    "name": "A3",
                    "midi": 57,
                    "time": 151.74999999999994,
                    "velocity": 0.7874015748031497,
                    "duration": 0.25
                },
                {
                    "name": "A#3",
                    "midi": 58,
                    "time": 151.99999999999994,
                    "velocity": 0.7874015748031497,
                    "duration": 0.25
                },
                {
                    "name": "G3",
                    "midi": 55,
                    "time": 152.24999999999994,
                    "velocity": 0.7874015748031497,
                    "duration": 0.25
                },
                {
                    "name": "C4",
                    "midi": 60,
                    "time": 152.49999999999994,
                    "velocity": 0.7874015748031497,
                    "duration": 0.5
                },
                {
                    "name": "A3",
                    "midi": 57,
                    "time": 152.99999999999994,
                    "velocity": 0.7874015748031497,
                    "duration": 0.5
                },
                {
                    "name": "D4",
                    "midi": 62,
                    "time": 153.49999999999994,
                    "velocity": 0.7874015748031497,
                    "duration": 0.5
                },
                {
                    "name": "E4",
                    "midi": 64,
                    "time": 153.99999999999994,
                    "velocity": 0.7874015748031497,
                    "duration": 0.5
                },
                {
                    "name": "C#4",
                    "midi": 61,
                    "time": 154.49999999999994,
                    "velocity": 0.7874015748031497,
                    "duration": 1.5
                },
                {
                    "name": "C#4",
                    "midi": 61,
                    "time": 155.99999999999994,
                    "velocity": 0.7874015748031497,
                    "duration": 1
                },
                {
                    "name": "D4",
                    "midi": 62,
                    "time": 156.99999999999994,
                    "velocity": 0.7874015748031497,
                    "duration": 0.25
                },
                {
                    "name": "E4",
                    "midi": 64,
                    "time": 157.24999999999994,
                    "velocity": 0.7874015748031497,
                    "duration": 0.125
                },
                {
                    "name": "F4",
                    "midi": 65,
                    "time": 157.37499999999994,
                    "velocity": 0.7874015748031497,
                    "duration": 0.125
                },
                {
                    "name": "E4",
                    "midi": 64,
                    "time": 157.49999999999994,
                    "velocity": 0.7874015748031497,
                    "duration": 0.25
                },
                {
                    "name": "D4",
                    "midi": 62,
                    "time": 157.74999999999994,
                    "velocity": 0.7874015748031497,
                    "duration": 0.25
                },
                {
                    "name": "C#4",
                    "midi": 61,
                    "time": 157.99999999999994,
                    "velocity": 0.7874015748031497,
                    "duration": 0.25
                },
                {
                    "name": "E4",
                    "midi": 64,
                    "time": 158.24999999999994,
                    "velocity": 0.7874015748031497,
                    "duration": 0.25
                },
                {
                    "name": "A3",
                    "midi": 57,
                    "time": 158.49999999999994,
                    "velocity": 0.7874015748031497,
                    "duration": 0.25
                },
                {
                    "name": "G3",
                    "midi": 55,
                    "time": 158.74999999999994,
                    "velocity": 0.7874015748031497,
                    "duration": 0.25
                },
                {
                    "name": "A3",
                    "midi": 57,
                    "time": 158.99999999999994,
                    "velocity": 0.7874015748031497,
                    "duration": 0.5
                },
                {
                    "name": "D4",
                    "midi": 62,
                    "time": 159.49999999999994,
                    "velocity": 0.7874015748031497,
                    "duration": 0.5
                },
                {
                    "name": "C#4",
                    "midi": 61,
                    "time": 159.99999999999994,
                    "velocity": 0.7874015748031497,
                    "duration": 0.5
                },
                {
                    "name": "G4",
                    "midi": 67,
                    "time": 160.49999999999994,
                    "velocity": 0.7874015748031497,
                    "duration": 0.25
                },
                {
                    "name": "F4",
                    "midi": 65,
                    "time": 160.74999999999994,
                    "velocity": 0.7874015748031497,
                    "duration": 0.25
                },
                {
                    "name": "E4",
                    "midi": 64,
                    "time": 160.99999999999994,
                    "velocity": 0.7874015748031497,
                    "duration": 0.25
                },
                {
                    "name": "F4",
                    "midi": 65,
                    "time": 161.24999999999994,
                    "velocity": 0.7874015748031497,
                    "duration": 0.25
                },
                {
                    "name": "D4",
                    "midi": 62,
                    "time": 161.49999999999994,
                    "velocity": 0.7874015748031497,
                    "duration": 0.25
                },
                {
                    "name": "C4",
                    "midi": 60,
                    "time": 161.74999999999994,
                    "velocity": 0.7874015748031497,
                    "duration": 0.25
                },
                {
                    "name": "A#3",
                    "midi": 58,
                    "time": 161.99999999999994,
                    "velocity": 0.7874015748031497,
                    "duration": 1
                },
                {
                    "name": "C4",
                    "midi": 60,
                    "time": 162.99999999999994,
                    "velocity": 0.7874015748031497,
                    "duration": 0.5
                },
                {
                    "name": "A3",
                    "midi": 57,
                    "time": 163.49999999999994,
                    "velocity": 0.7874015748031497,
                    "duration": 0.25
                },
                {
                    "name": "G3",
                    "midi": 55,
                    "time": 163.74999999999994,
                    "velocity": 0.7874015748031497,
                    "duration": 0.25
                },
                {
                    "name": "A3",
                    "midi": 57,
                    "time": 163.99999999999994,
                    "velocity": 0.7874015748031497,
                    "duration": 0.25
                },
                {
                    "name": "F3",
                    "midi": 53,
                    "time": 164.24999999999994,
                    "velocity": 0.7874015748031497,
                    "duration": 0.25
                },
                {
                    "name": "E3",
                    "midi": 52,
                    "time": 164.49999999999994,
                    "velocity": 0.7874015748031497,
                    "duration": 0.5
                },
                {
                    "name": "F3",
                    "midi": 53,
                    "time": 164.99999999999994,
                    "velocity": 0.7874015748031497,
                    "duration": 0.5
                },
                {
                    "name": "F#3",
                    "midi": 54,
                    "time": 167.99999999999994,
                    "velocity": 0.7874015748031497,
                    "duration": 1
                },
                {
                    "name": "A#3",
                    "midi": 58,
                    "time": 168.99999999999994,
                    "velocity": 0.7874015748031497,
                    "duration": 0.5
                },
                {
                    "name": "C4",
                    "midi": 60,
                    "time": 169.49999999999994,
                    "velocity": 0.7874015748031497,
                    "duration": 0.25
                },
                {
                    "name": "A#3",
                    "midi": 58,
                    "time": 169.74999999999994,
                    "velocity": 0.7874015748031497,
                    "duration": 0.25
                },
                {
                    "name": "C4",
                    "midi": 60,
                    "time": 169.99999999999994,
                    "velocity": 0.7874015748031497,
                    "duration": 0.25
                },
                {
                    "name": "A3",
                    "midi": 57,
                    "time": 170.24999999999994,
                    "velocity": 0.7874015748031497,
                    "duration": 0.25
                },
                {
                    "name": "F#3",
                    "midi": 54,
                    "time": 170.49999999999994,
                    "velocity": 0.7874015748031497,
                    "duration": 0.5
                },
                {
                    "name": "D4",
                    "midi": 62,
                    "time": 170.99999999999994,
                    "velocity": 0.7874015748031497,
                    "duration": 0.5
                },
                {
                    "name": "C4",
                    "midi": 60,
                    "time": 171.49999999999994,
                    "velocity": 0.7874015748031497,
                    "duration": 0.5
                },
                {
                    "name": "A#3",
                    "midi": 58,
                    "time": 171.99999999999994,
                    "velocity": 0.7874015748031497,
                    "duration": 0.25
                },
                {
                    "name": "A3",
                    "midi": 57,
                    "time": 172.24999999999994,
                    "velocity": 0.7874015748031497,
                    "duration": 0.25
                },
                {
                    "name": "C4",
                    "midi": 60,
                    "time": 172.49999999999994,
                    "velocity": 0.7874015748031497,
                    "duration": 0.25
                },
                {
                    "name": "A#3",
                    "midi": 58,
                    "time": 172.74999999999994,
                    "velocity": 0.7874015748031497,
                    "duration": 0.25
                },
                {
                    "name": "A3",
                    "midi": 57,
                    "time": 172.99999999999994,
                    "velocity": 0.7874015748031497,
                    "duration": 0.25
                },
                {
                    "name": "A#3",
                    "midi": 58,
                    "time": 173.24999999999994,
                    "velocity": 0.7874015748031497,
                    "duration": 0.25
                },
                {
                    "name": "G3",
                    "midi": 55,
                    "time": 173.49999999999994,
                    "velocity": 0.7874015748031497,
                    "duration": 0.25
                },
                {
                    "name": "A#3",
                    "midi": 58,
                    "time": 173.74999999999994,
                    "velocity": 0.7874015748031497,
                    "duration": 0.25
                },
                {
                    "name": "D4",
                    "midi": 62,
                    "time": 173.99999999999994,
                    "velocity": 0.7874015748031497,
                    "duration": 0.5
                },
                {
                    "name": "C#4",
                    "midi": 61,
                    "time": 174.49999999999994,
                    "velocity": 0.7874015748031497,
                    "duration": 0.5
                },
                {
                    "name": "D4",
                    "midi": 62,
                    "time": 174.99999999999994,
                    "velocity": 0.7874015748031497,
                    "duration": 0.5
                },
                {
                    "name": "G3",
                    "midi": 55,
                    "time": 175.49999999999994,
                    "velocity": 0.7874015748031497,
                    "duration": 0.25
                },
                {
                    "name": "F3",
                    "midi": 53,
                    "time": 175.74999999999994,
                    "velocity": 0.7874015748031497,
                    "duration": 0.25
                },
                {
                    "name": "G3",
                    "midi": 55,
                    "time": 175.99999999999994,
                    "velocity": 0.7874015748031497,
                    "duration": 0.25
                },
                {
                    "name": "E3",
                    "midi": 52,
                    "time": 176.24999999999994,
                    "velocity": 0.7874015748031497,
                    "duration": 0.25
                },
                {
                    "name": "F3",
                    "midi": 53,
                    "time": 176.49999999999994,
                    "velocity": 0.7874015748031497,
                    "duration": 0.5
                },
                {
                    "name": "G2",
                    "midi": 43,
                    "time": 176.99999999999994,
                    "velocity": 0.7874015748031497,
                    "duration": 0.25
                },
                {
                    "name": "G3",
                    "midi": 55,
                    "time": 177.24999999999994,
                    "velocity": 0.7874015748031497,
                    "duration": 0.25
                },
                {
                    "name": "E3",
                    "midi": 52,
                    "time": 177.49999999999994,
                    "velocity": 0.7874015748031497,
                    "duration": 0.7500000000000284
                },
                {
                    "name": "D3",
                    "midi": 50,
                    "time": 178.24999999999997,
                    "velocity": 0.7874015748031497,
                    "duration": 0.25
                },
                {
                    "name": "D3",
                    "midi": 50,
                    "time": 178.49999999999997,
                    "velocity": 0.7874015748031497,
                    "duration": 1.5
                }
            ],
            "controlChanges": {
                "7": [
                    {
                        "number": 7,
                        "time": 0,
                        "value": 0.7874015748031497
                    }
                ],
                "10": [
                    {
                        "number": 10,
                        "time": 0,
                        "value": 0.5039370078740157
                    }
                ]
            },
            "id": 1,
            "name": "Solo Cello",
            "instrumentNumber": 42,
            "instrument": "cello",
            "instrumentFamily": "strings",
            "channelNumber": 0,
            "isPercussion": false
        },
        {
            "startTime": 0,
            "duration": 180,
            "length": 89,
            "notes": [
                {
                    "name": "F3",
                    "midi": 53,
                    "time": 0,
                    "velocity": 0.7874015748031497,
                    "duration": 1
                },
                {
                    "name": "E3",
                    "midi": 52,
                    "time": 1.5,
                    "velocity": 0.7874015748031497,
                    "duration": 0.25
                },
                {
                    "name": "F3",
                    "midi": 53,
                    "time": 6,
                    "velocity": 0.7874015748031497,
                    "duration": 1
                },
                {
                    "name": "E3",
                    "midi": 52,
                    "time": 7.5,
                    "velocity": 0.7874015748031497,
                    "duration": 0.25
                },
                {
                    "name": "F3",
                    "midi": 53,
                    "time": 9,
                    "velocity": 0.7874015748031497,
                    "duration": 0.5
                },
                {
                    "name": "F3",
                    "midi": 53,
                    "time": 9.5,
                    "velocity": 0.7874015748031497,
                    "duration": 0.5
                },
                {
                    "name": "G3",
                    "midi": 55,
                    "time": 10,
                    "velocity": 0.7874015748031497,
                    "duration": 0.5
                },
                {
                    "name": "E3",
                    "midi": 52,
                    "time": 10.5,
                    "velocity": 0.7874015748031497,
                    "duration": 1.5
                },
                {
                    "name": "F3",
                    "midi": 53,
                    "time": 12,
                    "velocity": 0.7874015748031497,
                    "duration": 1
                },
                {
                    "name": "E3",
                    "midi": 52,
                    "time": 13.5,
                    "velocity": 0.7874015748031497,
                    "duration": 0.25
                },
                {
                    "name": "F3",
                    "midi": 53,
                    "time": 18,
                    "velocity": 0.7874015748031497,
                    "duration": 1
                },
                {
                    "name": "E3",
                    "midi": 52,
                    "time": 19.5,
                    "velocity": 0.7874015748031497,
                    "duration": 0.25
                },
                {
                    "name": "F3",
                    "midi": 53,
                    "time": 21,
                    "velocity": 0.7874015748031497,
                    "duration": 0.5
                },
                {
                    "name": "F3",
                    "midi": 53,
                    "time": 21.5,
                    "velocity": 0.7874015748031497,
                    "duration": 0.5
                },
                {
                    "name": "G3",
                    "midi": 55,
                    "time": 22,
                    "velocity": 0.7874015748031497,
                    "duration": 0.5
                },
                {
                    "name": "E3",
                    "midi": 52,
                    "time": 22.5,
                    "velocity": 0.7874015748031497,
                    "duration": 1.5
                },
                {
                    "name": "A3",
                    "midi": 57,
                    "time": 24,
                    "velocity": 0.7874015748031497,
                    "duration": 1
                },
                {
                    "name": "G3",
                    "midi": 55,
                    "time": 25.5,
                    "velocity": 0.7874015748031497,
                    "duration": 0.25
                },
                {
                    "name": "F3",
                    "midi": 53,
                    "time": 27,
                    "velocity": 0.7874015748031497,
                    "duration": 1
                },
                {
                    "name": "E3",
                    "midi": 52,
                    "time": 28,
                    "velocity": 0.7874015748031497,
                    "duration": 0.5
                },
                {
                    "name": "D3",
                    "midi": 50,
                    "time": 28.5,
                    "velocity": 0.7874015748031497,
                    "duration": 0.25
                },
                {
                    "name": "G3",
                    "midi": 55,
                    "time": 30,
                    "velocity": 0.7874015748031497,
                    "duration": 0.5
                },
                {
                    "name": "F3",
                    "midi": 53,
                    "time": 30.5,
                    "velocity": 0.7874015748031497,
                    "duration": 0.5
                },
                {
                    "name": "E3",
                    "midi": 52,
                    "time": 31,
                    "velocity": 0.7874015748031497,
                    "duration": 0.5
                },
                {
                    "name": "F3",
                    "midi": 53,
                    "time": 31.5,
                    "velocity": 0.7874015748031497,
                    "duration": 0.25
                },
                {
                    "name": "A#2",
                    "midi": 46,
                    "time": 32.5,
                    "velocity": 0.7874015748031497,
                    "duration": 0.5
                },
                {
                    "name": "A2",
                    "midi": 45,
                    "time": 33,
                    "velocity": 0.7874015748031497,
                    "duration": 0.5
                },
                {
                    "name": "D#3",
                    "midi": 51,
                    "time": 37.5,
                    "velocity": 0.7874015748031497,
                    "duration": 0.25
                },
                {
                    "name": "G3",
                    "midi": 55,
                    "time": 39,
                    "velocity": 0.7874015748031497,
                    "duration": 0.5
                },
                {
                    "name": "G3",
                    "midi": 55,
                    "time": 39.5,
                    "velocity": 0.7874015748031497,
                    "duration": 0.5
                },
                {
                    "name": "D3",
                    "midi": 50,
                    "time": 40.5,
                    "velocity": 0.7874015748031497,
                    "duration": 0.25
                },
                {
                    "name": "G3",
                    "midi": 55,
                    "time": 42,
                    "velocity": 0.7874015748031497,
                    "duration": 0.5
                },
                {
                    "name": "F3",
                    "midi": 53,
                    "time": 43,
                    "velocity": 0.7874015748031497,
                    "duration": 0.5
                },
                {
                    "name": "C#3",
                    "midi": 49,
                    "time": 43.5,
                    "velocity": 0.7874015748031497,
                    "duration": 0.25
                },
                {
                    "name": "D3",
                    "midi": 50,
                    "time": 44.5,
                    "velocity": 0.7874015748031497,
                    "duration": 0.5
                },
                {
                    "name": "A2",
                    "midi": 45,
                    "time": 45.5,
                    "velocity": 0.7874015748031497,
                    "duration": 0.75
                },
                {
                    "name": "D2",
                    "midi": 38,
                    "time": 46.5,
                    "velocity": 0.7874015748031497,
                    "duration": 1.5
                },
                {
                    "name": "A3",
                    "midi": 57,
                    "time": 48,
                    "velocity": 0.7874015748031497,
                    "duration": 1
                },
                {
                    "name": "G3",
                    "midi": 55,
                    "time": 49.5,
                    "velocity": 0.7874015748031497,
                    "duration": 0.25
                },
                {
                    "name": "F3",
                    "midi": 53,
                    "time": 51,
                    "velocity": 0.7874015748031497,
                    "duration": 1
                },
                {
                    "name": "E3",
                    "midi": 52,
                    "time": 52,
                    "velocity": 0.7874015748031497,
                    "duration": 0.5
                },
                {
                    "name": "D3",
                    "midi": 50,
                    "time": 52.5,
                    "velocity": 0.7874015748031497,
                    "duration": 0.25
                },
                {
                    "name": "G3",
                    "midi": 55,
                    "time": 54,
                    "velocity": 0.7874015748031497,
                    "duration": 0.5
                },
                {
                    "name": "F3",
                    "midi": 53,
                    "time": 54.5,
                    "velocity": 0.7874015748031497,
                    "duration": 0.5
                },
                {
                    "name": "E3",
                    "midi": 52,
                    "time": 55,
                    "velocity": 0.7874015748031497,
                    "duration": 0.5
                },
                {
                    "name": "F3",
                    "midi": 53,
                    "time": 55.5,
                    "velocity": 0.7874015748031497,
                    "duration": 0.25
                },
                {
                    "name": "A#2",
                    "midi": 46,
                    "time": 56.5,
                    "velocity": 0.7874015748031497,
                    "duration": 0.5
                },
                {
                    "name": "A2",
                    "midi": 45,
                    "time": 57,
                    "velocity": 0.7874015748031497,
                    "duration": 0.5
                },
                {
                    "name": "D#3",
                    "midi": 51,
                    "time": 61.5,
                    "velocity": 0.7874015748031497,
                    "duration": 0.25
                },
                {
                    "name": "G3",
                    "midi": 55,
                    "time": 63,
                    "velocity": 0.7874015748031497,
                    "duration": 0.5
                },
                {
                    "name": "G3",
                    "midi": 55,
                    "time": 63.5,
                    "velocity": 0.7874015748031497,
                    "duration": 0.5
                },
                {
                    "name": "D3",
                    "midi": 50,
                    "time": 64.5,
                    "velocity": 0.7874015748031497,
                    "duration": 0.25
                },
                {
                    "name": "G3",
                    "midi": 55,
                    "time": 66,
                    "velocity": 0.7874015748031497,
                    "duration": 0.5
                },
                {
                    "name": "F3",
                    "midi": 53,
                    "time": 67,
                    "velocity": 0.7874015748031497,
                    "duration": 0.5
                },
                {
                    "name": "C#3",
                    "midi": 49,
                    "time": 67.5,
                    "velocity": 0.7874015748031497,
                    "duration": 0.25
                },
                {
                    "name": "D3",
                    "midi": 50,
                    "time": 68.5,
                    "velocity": 0.7874015748031497,
                    "duration": 0.5
                },
                {
                    "name": "A2",
                    "midi": 45,
                    "time": 69.5,
                    "velocity": 0.7874015748031497,
                    "duration": 0.75
                },
                {
                    "name": "D2",
                    "midi": 38,
                    "time": 70.5,
                    "velocity": 0.7874015748031497,
                    "duration": 1.5
                },
                {
                    "name": "A2",
                    "midi": 45,
                    "time": 82.5,
                    "velocity": 0.7874015748031497,
                    "duration": 1.5
                },
                {
                    "name": "A2",
                    "midi": 45,
                    "time": 94.5,
                    "velocity": 0.7874015748031497,
                    "duration": 1.5
                },
                {
                    "name": "F3",
                    "midi": 53,
                    "time": 144,
                    "velocity": 0.7874015748031497,
                    "duration": 1
                },
                {
                    "name": "E3",
                    "midi": 52,
                    "time": 145.5,
                    "velocity": 0.7874015748031497,
                    "duration": 0.25
                },
                {
                    "name": "F3",
                    "midi": 53,
                    "time": 150,
                    "velocity": 0.7874015748031497,
                    "duration": 1
                },
                {
                    "name": "E3",
                    "midi": 52,
                    "time": 151.5,
                    "velocity": 0.7874015748031497,
                    "duration": 0.25
                },
                {
                    "name": "F3",
                    "midi": 53,
                    "time": 153,
                    "velocity": 0.7874015748031497,
                    "duration": 0.5
                },
                {
                    "name": "F3",
                    "midi": 53,
                    "time": 153.5,
                    "velocity": 0.7874015748031497,
                    "duration": 0.5
                },
                {
                    "name": "G3",
                    "midi": 55,
                    "time": 154,
                    "velocity": 0.7874015748031497,
                    "duration": 0.5
                },
                {
                    "name": "E3",
                    "midi": 52,
                    "time": 154.5,
                    "velocity": 0.7874015748031497,
                    "duration": 1.5
                },
                {
                    "name": "A3",
                    "midi": 57,
                    "time": 156,
                    "velocity": 0.7874015748031497,
                    "duration": 1
                },
                {
                    "name": "G3",
                    "midi": 55,
                    "time": 157.5,
                    "velocity": 0.7874015748031497,
                    "duration": 0.25
                },
                {
                    "name": "F3",
                    "midi": 53,
                    "time": 159,
                    "velocity": 0.7874015748031497,
                    "duration": 1
                },
                {
                    "name": "E3",
                    "midi": 52,
                    "time": 160,
                    "velocity": 0.7874015748031497,
                    "duration": 0.5
                },
                {
                    "name": "D3",
                    "midi": 50,
                    "time": 160.5,
                    "velocity": 0.7874015748031497,
                    "duration": 0.25
                },
                {
                    "name": "G3",
                    "midi": 55,
                    "time": 162,
                    "velocity": 0.7874015748031497,
                    "duration": 0.5
                },
                {
                    "name": "F3",
                    "midi": 53,
                    "time": 162.5,
                    "velocity": 0.7874015748031497,
                    "duration": 0.5
                },
                {
                    "name": "E3",
                    "midi": 52,
                    "time": 163,
                    "velocity": 0.7874015748031497,
                    "duration": 0.5
                },
                {
                    "name": "F3",
                    "midi": 53,
                    "time": 163.5,
                    "velocity": 0.7874015748031497,
                    "duration": 0.25
                },
                {
                    "name": "A#2",
                    "midi": 46,
                    "time": 164.5,
                    "velocity": 0.7874015748031497,
                    "duration": 0.5
                },
                {
                    "name": "A2",
                    "midi": 45,
                    "time": 165,
                    "velocity": 0.7874015748031497,
                    "duration": 0.5
                },
                {
                    "name": "D#3",
                    "midi": 51,
                    "time": 169.5,
                    "velocity": 0.7874015748031497,
                    "duration": 0.25
                },
                {
                    "name": "G3",
                    "midi": 55,
                    "time": 171,
                    "velocity": 0.7874015748031497,
                    "duration": 0.5
                },
                {
                    "name": "G3",
                    "midi": 55,
                    "time": 171.5,
                    "velocity": 0.7874015748031497,
                    "duration": 0.5
                },
                {
                    "name": "D3",
                    "midi": 50,
                    "time": 172.5,
                    "velocity": 0.7874015748031497,
                    "duration": 0.25
                },
                {
                    "name": "G3",
                    "midi": 55,
                    "time": 174,
                    "velocity": 0.7874015748031497,
                    "duration": 0.5
                },
                {
                    "name": "F3",
                    "midi": 53,
                    "time": 175,
                    "velocity": 0.7874015748031497,
                    "duration": 0.5
                },
                {
                    "name": "C#3",
                    "midi": 49,
                    "time": 175.5,
                    "velocity": 0.7874015748031497,
                    "duration": 0.25
                },
                {
                    "name": "D3",
                    "midi": 50,
                    "time": 176.5,
                    "velocity": 0.7874015748031497,
                    "duration": 0.5
                },
                {
                    "name": "A2",
                    "midi": 45,
                    "time": 177.5,
                    "velocity": 0.7874015748031497,
                    "duration": 0.75
                },
                {
                    "name": "D2",
                    "midi": 38,
                    "time": 178.5,
                    "velocity": 0.7874015748031497,
                    "duration": 1.5
                }
            ],
            "controlChanges": {
                "7": [
                    {
                        "number": 7,
                        "time": 0,
                        "value": 0.7874015748031497
                    }
                ],
                "10": [
                    {
                        "number": 10,
                        "time": 0,
                        "value": 0.5826771653543307
                    }
                ]
            },
            "id": 2,
            "name": "--------------------------------------",
            "instrumentNumber": 42,
            "instrument": "cello",
            "instrumentFamily": "strings",
            "channelNumber": 1,
            "isPercussion": false
        },
        {
            "startTime": 0,
            "duration": 180.00000000000003,
            "length": 81,
            "notes": [
                {
                    "name": "D3",
                    "midi": 50,
                    "time": 0,
                    "velocity": 0.7874015748031497,
                    "duration": 1
                },
                {
                    "name": "C3",
                    "midi": 48,
                    "time": 1.5,
                    "velocity": 0.7874015748031497,
                    "duration": 0.25
                },
                {
                    "name": "A#2",
                    "midi": 46,
                    "time": 3,
                    "velocity": 0.7874015748031497,
                    "duration": 0.5
                },
                {
                    "name": "A2",
                    "midi": 45,
                    "time": 4.5,
                    "velocity": 0.7874015748031497,
                    "duration": 0.25
                },
                {
                    "name": "D3",
                    "midi": 50,
                    "time": 6,
                    "velocity": 0.7874015748031497,
                    "duration": 1
                },
                {
                    "name": "A#2",
                    "midi": 46,
                    "time": 9.5,
                    "velocity": 0.7874015748031497,
                    "duration": 0.5
                },
                {
                    "name": "G2",
                    "midi": 43,
                    "time": 10,
                    "velocity": 0.7874015748031497,
                    "duration": 0.5
                },
                {
                    "name": "A2",
                    "midi": 45,
                    "time": 10.5,
                    "velocity": 0.7874015748031497,
                    "duration": 1.5
                },
                {
                    "name": "D3",
                    "midi": 50,
                    "time": 12,
                    "velocity": 0.7874015748031497,
                    "duration": 1
                },
                {
                    "name": "C3",
                    "midi": 48,
                    "time": 13.5,
                    "velocity": 0.7874015748031497,
                    "duration": 0.25
                },
                {
                    "name": "A#2",
                    "midi": 46,
                    "time": 15,
                    "velocity": 0.7874015748031497,
                    "duration": 0.5
                },
                {
                    "name": "A2",
                    "midi": 45,
                    "time": 16.5,
                    "velocity": 0.7874015748031497,
                    "duration": 0.25
                },
                {
                    "name": "D3",
                    "midi": 50,
                    "time": 18,
                    "velocity": 0.7874015748031497,
                    "duration": 1
                },
                {
                    "name": "A#2",
                    "midi": 46,
                    "time": 21.5,
                    "velocity": 0.7874015748031497,
                    "duration": 0.5
                },
                {
                    "name": "G2",
                    "midi": 43,
                    "time": 22,
                    "velocity": 0.7874015748031497,
                    "duration": 0.5
                },
                {
                    "name": "A2",
                    "midi": 45,
                    "time": 22.5,
                    "velocity": 0.7874015748031497,
                    "duration": 1.5
                },
                {
                    "name": "E4",
                    "midi": 64,
                    "time": 24,
                    "velocity": 0.007874015748031496,
                    "duration": 1
                },
                {
                    "name": "D4",
                    "midi": 62,
                    "time": 32.5,
                    "velocity": 0.7874015748031497,
                    "duration": 0.5
                },
                {
                    "name": "C4",
                    "midi": 60,
                    "time": 33,
                    "velocity": 0.7874015748031497,
                    "duration": 0.5
                },
                {
                    "name": "A#3",
                    "midi": 58,
                    "time": 33.5,
                    "velocity": 0.7874015748031497,
                    "duration": 0.25
                },
                {
                    "name": "A3",
                    "midi": 57,
                    "time": 33.75,
                    "velocity": 0.7874015748031497,
                    "duration": 0.25
                },
                {
                    "name": "G3",
                    "midi": 55,
                    "time": 34,
                    "velocity": 0.7874015748031497,
                    "duration": 0.25
                },
                {
                    "name": "A3",
                    "midi": 57,
                    "time": 34.25,
                    "velocity": 0.7874015748031497,
                    "duration": 0.25
                },
                {
                    "name": "F3",
                    "midi": 53,
                    "time": 34.5,
                    "velocity": 0.7874015748031497,
                    "duration": 0.25
                },
                {
                    "name": "E3",
                    "midi": 52,
                    "time": 34.75,
                    "velocity": 0.7874015748031497,
                    "duration": 0.25
                },
                {
                    "name": "F3",
                    "midi": 53,
                    "time": 35,
                    "velocity": 0.7874015748031497,
                    "duration": 0.25
                },
                {
                    "name": "A3",
                    "midi": 57,
                    "time": 35.25,
                    "velocity": 0.7874015748031497,
                    "duration": 0.25
                },
                {
                    "name": "G3",
                    "midi": 55,
                    "time": 35.5,
                    "velocity": 0.7874015748031497,
                    "duration": 0.25
                },
                {
                    "name": "A#3",
                    "midi": 58,
                    "time": 35.75,
                    "velocity": 0.7874015748031497,
                    "duration": 0.25
                },
                {
                    "name": "A3",
                    "midi": 57,
                    "time": 36,
                    "velocity": 0.7874015748031497,
                    "duration": 1.000000000000007
                },
                {
                    "name": "A#2",
                    "midi": 46,
                    "time": 39.00000000000001,
                    "velocity": 0.7874015748031497,
                    "duration": 0.5
                },
                {
                    "name": "C3",
                    "midi": 48,
                    "time": 39.50000000000001,
                    "velocity": 0.7874015748031497,
                    "duration": 0.5
                },
                {
                    "name": "D3",
                    "midi": 50,
                    "time": 40.00000000000001,
                    "velocity": 0.7874015748031497,
                    "duration": 0.5
                },
                {
                    "name": "G2",
                    "midi": 43,
                    "time": 40.50000000000001,
                    "velocity": 0.7874015748031497,
                    "duration": 0.25
                },
                {
                    "name": "A2",
                    "midi": 45,
                    "time": 46.50000000000001,
                    "velocity": 0.7874015748031497,
                    "duration": 1.5
                },
                {
                    "name": "E4",
                    "midi": 64,
                    "time": 48.00000000000001,
                    "velocity": 0.007874015748031496,
                    "duration": 1
                },
                {
                    "name": "D4",
                    "midi": 62,
                    "time": 56.50000000000001,
                    "velocity": 0.7874015748031497,
                    "duration": 0.5
                },
                {
                    "name": "C4",
                    "midi": 60,
                    "time": 57.00000000000001,
                    "velocity": 0.7874015748031497,
                    "duration": 0.5
                },
                {
                    "name": "A#3",
                    "midi": 58,
                    "time": 57.50000000000001,
                    "velocity": 0.7874015748031497,
                    "duration": 0.25
                },
                {
                    "name": "A3",
                    "midi": 57,
                    "time": 57.75000000000001,
                    "velocity": 0.7874015748031497,
                    "duration": 0.25
                },
                {
                    "name": "G3",
                    "midi": 55,
                    "time": 58.00000000000001,
                    "velocity": 0.7874015748031497,
                    "duration": 0.25
                },
                {
                    "name": "A3",
                    "midi": 57,
                    "time": 58.25000000000001,
                    "velocity": 0.7874015748031497,
                    "duration": 0.25
                },
                {
                    "name": "F3",
                    "midi": 53,
                    "time": 58.50000000000001,
                    "velocity": 0.7874015748031497,
                    "duration": 0.25
                },
                {
                    "name": "E3",
                    "midi": 52,
                    "time": 58.75000000000001,
                    "velocity": 0.7874015748031497,
                    "duration": 0.25
                },
                {
                    "name": "F3",
                    "midi": 53,
                    "time": 59.00000000000001,
                    "velocity": 0.7874015748031497,
                    "duration": 0.25
                },
                {
                    "name": "A3",
                    "midi": 57,
                    "time": 59.25000000000001,
                    "velocity": 0.7874015748031497,
                    "duration": 0.25
                },
                {
                    "name": "G3",
                    "midi": 55,
                    "time": 59.50000000000001,
                    "velocity": 0.7874015748031497,
                    "duration": 0.25
                },
                {
                    "name": "A#3",
                    "midi": 58,
                    "time": 59.75000000000001,
                    "velocity": 0.7874015748031497,
                    "duration": 0.25
                },
                {
                    "name": "A3",
                    "midi": 57,
                    "time": 60.00000000000001,
                    "velocity": 0.7874015748031497,
                    "duration": 1.000000000000007
                },
                {
                    "name": "A#2",
                    "midi": 46,
                    "time": 63.000000000000014,
                    "velocity": 0.7874015748031497,
                    "duration": 0.5
                },
                {
                    "name": "C3",
                    "midi": 48,
                    "time": 63.500000000000014,
                    "velocity": 0.7874015748031497,
                    "duration": 0.5
                },
                {
                    "name": "D3",
                    "midi": 50,
                    "time": 64.00000000000001,
                    "velocity": 0.7874015748031497,
                    "duration": 0.5
                },
                {
                    "name": "G2",
                    "midi": 43,
                    "time": 64.50000000000001,
                    "velocity": 0.7874015748031497,
                    "duration": 0.25
                },
                {
                    "name": "A2",
                    "midi": 45,
                    "time": 70.50000000000001,
                    "velocity": 0.7874015748031497,
                    "duration": 1.5
                },
                {
                    "name": "D3",
                    "midi": 50,
                    "time": 144,
                    "velocity": 0.7874015748031497,
                    "duration": 1
                },
                {
                    "name": "C3",
                    "midi": 48,
                    "time": 145.5,
                    "velocity": 0.7874015748031497,
                    "duration": 0.25
                },
                {
                    "name": "A#2",
                    "midi": 46,
                    "time": 147,
                    "velocity": 0.7874015748031497,
                    "duration": 0.5
                },
                {
                    "name": "A2",
                    "midi": 45,
                    "time": 148.5,
                    "velocity": 0.7874015748031497,
                    "duration": 0.25
                },
                {
                    "name": "D3",
                    "midi": 50,
                    "time": 150,
                    "velocity": 0.7874015748031497,
                    "duration": 1
                },
                {
                    "name": "A#2",
                    "midi": 46,
                    "time": 153.5,
                    "velocity": 0.7874015748031497,
                    "duration": 0.5
                },
                {
                    "name": "G2",
                    "midi": 43,
                    "time": 154,
                    "velocity": 0.7874015748031497,
                    "duration": 0.5
                },
                {
                    "name": "A2",
                    "midi": 45,
                    "time": 154.5,
                    "velocity": 0.7874015748031497,
                    "duration": 1.5
                },
                {
                    "name": "E4",
                    "midi": 64,
                    "time": 156,
                    "velocity": 0.007874015748031496,
                    "duration": 1
                },
                {
                    "name": "D4",
                    "midi": 62,
                    "time": 164.5,
                    "velocity": 0.7874015748031497,
                    "duration": 0.5
                },
                {
                    "name": "C4",
                    "midi": 60,
                    "time": 165,
                    "velocity": 0.7874015748031497,
                    "duration": 0.5
                },
                {
                    "name": "A#3",
                    "midi": 58,
                    "time": 165.5,
                    "velocity": 0.7874015748031497,
                    "duration": 0.25
                },
                {
                    "name": "A3",
                    "midi": 57,
                    "time": 165.75,
                    "velocity": 0.7874015748031497,
                    "duration": 0.25
                },
                {
                    "name": "G3",
                    "midi": 55,
                    "time": 166,
                    "velocity": 0.7874015748031497,
                    "duration": 0.25
                },
                {
                    "name": "A3",
                    "midi": 57,
                    "time": 166.25,
                    "velocity": 0.7874015748031497,
                    "duration": 0.25
                },
                {
                    "name": "F3",
                    "midi": 53,
                    "time": 166.5,
                    "velocity": 0.7874015748031497,
                    "duration": 0.25
                },
                {
                    "name": "E3",
                    "midi": 52,
                    "time": 166.75,
                    "velocity": 0.7874015748031497,
                    "duration": 0.25
                },
                {
                    "name": "F3",
                    "midi": 53,
                    "time": 167,
                    "velocity": 0.7874015748031497,
                    "duration": 0.25
                },
                {
                    "name": "A3",
                    "midi": 57,
                    "time": 167.25,
                    "velocity": 0.7874015748031497,
                    "duration": 0.25
                },
                {
                    "name": "G3",
                    "midi": 55,
                    "time": 167.5,
                    "velocity": 0.7874015748031497,
                    "duration": 0.25
                },
                {
                    "name": "A#3",
                    "midi": 58,
                    "time": 167.75,
                    "velocity": 0.7874015748031497,
                    "duration": 0.25
                },
                {
                    "name": "A3",
                    "midi": 57,
                    "time": 168,
                    "velocity": 0.7874015748031497,
                    "duration": 1.0000000000000284
                },
                {
                    "name": "A#2",
                    "midi": 46,
                    "time": 171.00000000000003,
                    "velocity": 0.7874015748031497,
                    "duration": 0.5
                },
                {
                    "name": "C3",
                    "midi": 48,
                    "time": 171.50000000000003,
                    "velocity": 0.7874015748031497,
                    "duration": 0.5
                },
                {
                    "name": "D3",
                    "midi": 50,
                    "time": 172.00000000000003,
                    "velocity": 0.7874015748031497,
                    "duration": 0.5
                },
                {
                    "name": "G2",
                    "midi": 43,
                    "time": 172.50000000000003,
                    "velocity": 0.7874015748031497,
                    "duration": 0.25
                },
                {
                    "name": "A2",
                    "midi": 45,
                    "time": 178.50000000000003,
                    "velocity": 0.7874015748031497,
                    "duration": 1.5
                }
            ],
            "controlChanges": {
                "7": [
                    {
                        "number": 7,
                        "time": 0,
                        "value": 0.7874015748031497
                    }
                ],
                "10": [
                    {
                        "number": 10,
                        "time": 0,
                        "value": 0.4251968503937008
                    }
                ]
            },
            "id": 3,
            "name": "Johann Sebastian Bach  (1685-1750)",
            "instrumentNumber": 42,
            "instrument": "cello",
            "instrumentFamily": "strings",
            "channelNumber": 2,
            "isPercussion": false
        },
        {
            "startTime": 0,
            "duration": 0,
            "length": 0,
            "notes": [],
            "controlChanges": {},
            "id": 4,
            "name": "Six Suites for Solo Cello"
        },
        {
            "startTime": 0,
            "duration": 0,
            "length": 0,
            "notes": [],
            "controlChanges": {},
            "id": 5,
            "name": "--------------------------------------"
        },
        {
            "startTime": 0,
            "duration": 0,
            "length": 0,
            "notes": [],
            "controlChanges": {},
            "id": 6,
            "name": "Suite No. 2 in D minor - BWV 1008"
        },
        {
            "startTime": 0,
            "duration": 0,
            "length": 0,
            "notes": [],
            "controlChanges": {},
            "id": 7,
            "name": "5th Movement: Menuet I/II"
        },
        {
            "startTime": 0,
            "duration": 0,
            "length": 0,
            "notes": [],
            "controlChanges": {},
            "id": 8,
            "name": "--------------------------------------"
        },
        {
            "startTime": 0,
            "duration": 0,
            "length": 0,
            "notes": [],
            "controlChanges": {},
            "id": 9,
            "name": "Sequenced with Cakewalk Pro Audio by"
        },
        {
            "startTime": 0,
            "duration": 0,
            "length": 0,
            "notes": [],
            "controlChanges": {},
            "id": 10,
            "name": "David J. Grossman - dave@unpronounceable.com"
        },
        {
            "startTime": 0,
            "duration": 0,
            "length": 0,
            "notes": [],
            "controlChanges": {},
            "id": 11,
            "name": "This and other Bach MIDI files can be found at:"
        },
        {
            "startTime": 0,
            "duration": 0,
            "length": 0,
            "notes": [],
            "controlChanges": {},
            "id": 12,
            "name": "Dave's J.S. Bach Page"
        },
        {
            "startTime": 0,
            "duration": 0,
            "length": 0,
            "notes": [],
            "controlChanges": {},
            "id": 13,
            "name": "http://www.unpronounceable.com/bach"
        },
        {
            "startTime": 0,
            "duration": 0,
            "length": 0,
            "notes": [],
            "controlChanges": {},
            "id": 14,
            "name": "--------------------------------------"
        },
        {
            "startTime": 0,
            "duration": 0,
            "length": 0,
            "notes": [],
            "controlChanges": {},
            "id": 15,
            "name": "Original Filename: cs2-5men.mid"
        },
        {
            "startTime": 0,
            "duration": 0,
            "length": 0,
            "notes": [],
            "controlChanges": {},
            "id": 16,
            "name": "Last Modified: February 22, 1997"
        },
        {
            "startTime": 0,
            "duration": 0,
            "length": 0,
            "notes": [],
            "controlChanges": {},
            "id": 17
        }
    ]
}