{
    "header": {
        "PPQ": 120,
        "timeSignature": [
            4,
            4
        ],
        "bpm": 65.99999340000066,
        "name": ""
    },
    "startTime": 0,
    "duration": 229.09093199999833,
    "tracks": [
        {
            "startTime": 0,
            "duration": 0,
            "length": 0,
            "notes": [],
            "controlChanges": {},
            "id": 0
        },
        {
            "startTime": 0,
            "duration": 229.09093199999813,
            "length": 457,
            "notes": [
                {
                    "name": "G5",
                    "midi": 79,
                    "time": 0,
                    "velocity": 0.7874015748031497,
                    "duration": 1.3636365
                },
                {
                    "name": "G5",
                    "midi": 79,
                    "time": 1.3636365,
                    "velocity": 0.7874015748031497,
                    "duration": 0.45454550000000005
                },
                {
                    "name": "F5",
                    "midi": 77,
                    "time": 1.818182,
                    "velocity": 0.7874015748031497,
                    "duration": 0.6818182499999998
                },
                {
                    "name": "G5",
                    "midi": 79,
                    "time": 2.50000025,
                    "velocity": 0.7874015748031497,
                    "duration": 0.22727275000000002
                },
                {
                    "name": "F5",
                    "midi": 77,
                    "time": 2.727273,
                    "velocity": 0.7874015748031497,
                    "duration": 0.6818182500000001
                },
                {
                    "name": "D5",
                    "midi": 74,
                    "time": 3.40909125,
                    "velocity": 0.7874015748031497,
                    "duration": 0.22727275000000002
                },
                {
                    "name": "D#5",
                    "midi": 75,
                    "time": 3.636364,
                    "velocity": 0.7874015748031497,
                    "duration": 1.3636364999999997
                },
                {
                    "name": "D#5",
                    "midi": 75,
                    "time": 5.0000005,
                    "velocity": 0.7874015748031497,
                    "duration": 0.45454550000000005
                },
                {
                    "name": "E5",
                    "midi": 76,
                    "time": 5.454546,
                    "velocity": 0.7874015748031497,
                    "duration": 1.3636365000000001
                },
                {
                    "name": "E5",
                    "midi": 76,
                    "time": 6.8181825,
                    "velocity": 0.7874015748031497,
                    "duration": 0.45454550000000005
                },
                {
                    "name": "F5",
                    "midi": 77,
                    "time": 7.272728,
                    "velocity": 0.7874015748031497,
                    "duration": 1.3636364999999993
                },
                {
                    "name": "E5",
                    "midi": 76,
                    "time": 8.636364499999999,
                    "velocity": 0.7874015748031497,
                    "duration": 0.22727274999999914
                },
                {
                    "name": "F5",
                    "midi": 77,
                    "time": 8.863637249999998,
                    "velocity": 0.7874015748031497,
                    "duration": 0.22727274999999914
                },
                {
                    "name": "G5",
                    "midi": 79,
                    "time": 9.090909999999997,
                    "velocity": 0.7874015748031497,
                    "duration": 1.3636365000000001
                },
                {
                    "name": "G5",
                    "midi": 79,
                    "time": 10.454546499999998,
                    "velocity": 0.7874015748031497,
                    "duration": 0.45454550000000005
                },
                {
                    "name": "G5",
                    "midi": 79,
                    "time": 10.909091999999998,
                    "velocity": 0.7874015748031497,
                    "duration": 0.9090910000000001
                },
                {
                    "name": "G#5",
                    "midi": 80,
                    "time": 11.818182999999998,
                    "velocity": 0.7874015748031497,
                    "duration": 1.3636365000000001
                },
                {
                    "name": "G#5",
                    "midi": 80,
                    "time": 13.181819499999998,
                    "velocity": 0.7874015748031497,
                    "duration": 0.45454550000000005
                },
                {
                    "name": "G5",
                    "midi": 79,
                    "time": 13.636364999999998,
                    "velocity": 0.7874015748031497,
                    "duration": 1.3636365000000001
                },
                {
                    "name": "F5",
                    "midi": 77,
                    "time": 15.000001499999998,
                    "velocity": 0.7874015748031497,
                    "duration": 0.45454550000000005
                },
                {
                    "name": "F5",
                    "midi": 77,
                    "time": 15.454546999999998,
                    "velocity": 0.7874015748031497,
                    "duration": 1.3636364999999984
                },
                {
                    "name": "G5",
                    "midi": 79,
                    "time": 16.818183499999996,
                    "velocity": 0.7874015748031497,
                    "duration": 0.45454549999999827
                },
                {
                    "name": "F5",
                    "midi": 77,
                    "time": 17.272728999999995,
                    "velocity": 0.7874015748031497,
                    "duration": 0.2272727500000009
                },
                {
                    "name": "D#5",
                    "midi": 75,
                    "time": 17.500001749999996,
                    "velocity": 0.7874015748031497,
                    "duration": 0.2272727500000009
                },
                {
                    "name": "D5",
                    "midi": 74,
                    "time": 17.727274499999996,
                    "velocity": 0.7874015748031497,
                    "duration": 0.2272727500000009
                },
                {
                    "name": "D#5",
                    "midi": 75,
                    "time": 17.954547249999997,
                    "velocity": 0.7874015748031497,
                    "duration": 0.2272727500000009
                },
                {
                    "name": "D5",
                    "midi": 74,
                    "time": 18.18182,
                    "velocity": 0.7874015748031497,
                    "duration": 0.9090910000000001
                },
                {
                    "name": "D5",
                    "midi": 74,
                    "time": 19.545456499999997,
                    "velocity": 0.7874015748031497,
                    "duration": 0.45454549999999827
                },
                {
                    "name": "A5",
                    "midi": 81,
                    "time": 20.000001999999995,
                    "velocity": 0.7874015748031497,
                    "duration": 1.3636364999999984
                },
                {
                    "name": "A5",
                    "midi": 81,
                    "time": 21.363638499999993,
                    "velocity": 0.7874015748031497,
                    "duration": 0.45454549999999827
                },
                {
                    "name": "A#5",
                    "midi": 82,
                    "time": 21.81818399999999,
                    "velocity": 0.7874015748031497,
                    "duration": 1.3636364999999984
                },
                {
                    "name": "A#5",
                    "midi": 82,
                    "time": 23.18182049999999,
                    "velocity": 0.7874015748031497,
                    "duration": 0.45454549999999827
                },
                {
                    "name": "A#5",
                    "midi": 82,
                    "time": 23.636365999999988,
                    "velocity": 0.7874015748031497,
                    "duration": 0.45454549999999827
                },
                {
                    "name": "G#5",
                    "midi": 80,
                    "time": 24.090911499999986,
                    "velocity": 0.7874015748031497,
                    "duration": 0.45454549999999827
                },
                {
                    "name": "A#5",
                    "midi": 82,
                    "time": 24.545456999999985,
                    "velocity": 0.7874015748031497,
                    "duration": 0.45454549999999827
                },
                {
                    "name": "G5",
                    "midi": 79,
                    "time": 25.000002499999983,
                    "velocity": 0.7874015748031497,
                    "duration": 0.45454549999999827
                },
                {
                    "name": "G#5",
                    "midi": 80,
                    "time": 25.45454799999998,
                    "velocity": 0.7874015748031497,
                    "duration": 1.3636364999999984
                },
                {
                    "name": "G#5",
                    "midi": 80,
                    "time": 26.81818449999998,
                    "velocity": 0.7874015748031497,
                    "duration": 0.45454549999999827
                },
                {
                    "name": "A5",
                    "midi": 81,
                    "time": 27.272729999999978,
                    "velocity": 0.7874015748031497,
                    "duration": 1.3636364999999984
                },
                {
                    "name": "A#5",
                    "midi": 82,
                    "time": 28.636366499999976,
                    "velocity": 0.7874015748031497,
                    "duration": 0.45454549999999827
                },
                {
                    "name": "F#5",
                    "midi": 78,
                    "time": 29.090911999999975,
                    "velocity": 0.7874015748031497,
                    "duration": 0.9090910000000001
                },
                {
                    "name": "D5",
                    "midi": 74,
                    "time": 30.000002999999975,
                    "velocity": 0.7874015748031497,
                    "duration": 0.9090910000000001
                },
                {
                    "name": "F5",
                    "midi": 77,
                    "time": 30.909093999999975,
                    "velocity": 0.7874015748031497,
                    "duration": 1.8181820000000002
                },
                {
                    "name": "F5",
                    "midi": 77,
                    "time": 32.727275999999975,
                    "velocity": 0.7874015748031497,
                    "duration": 0.6818182499999992
                },
                {
                    "name": "F5",
                    "midi": 77,
                    "time": 33.409094249999974,
                    "velocity": 0.7874015748031497,
                    "duration": 0.22727274999999736
                },
                {
                    "name": "G5",
                    "midi": 79,
                    "time": 33.63636699999997,
                    "velocity": 0.7874015748031497,
                    "duration": 0.6818182499999992
                },
                {
                    "name": "D5",
                    "midi": 74,
                    "time": 34.31818524999997,
                    "velocity": 0.7874015748031497,
                    "duration": 0.22727274999999736
                },
                {
                    "name": "D#5",
                    "midi": 75,
                    "time": 34.54545799999997,
                    "velocity": 0.7874015748031497,
                    "duration": 2.7272729999999967
                },
                {
                    "name": "D#5",
                    "midi": 75,
                    "time": 37.272730999999965,
                    "velocity": 0.7874015748031497,
                    "duration": 0.9090909999999965
                },
                {
                    "name": "D#5",
                    "midi": 75,
                    "time": 38.18182199999996,
                    "velocity": 0.7874015748031497,
                    "duration": 0.6818182499999992
                },
                {
                    "name": "D#5",
                    "midi": 75,
                    "time": 38.86364024999996,
                    "velocity": 0.7874015748031497,
                    "duration": 0.22727274999999736
                },
                {
                    "name": "D5",
                    "midi": 74,
                    "time": 39.09091299999996,
                    "velocity": 0.7874015748031497,
                    "duration": 0.6818182499999992
                },
                {
                    "name": "C5",
                    "midi": 72,
                    "time": 39.77273124999996,
                    "velocity": 0.7874015748031497,
                    "duration": 0.22727274999999736
                },
                {
                    "name": "B4",
                    "midi": 71,
                    "time": 40.000003999999954,
                    "velocity": 0.7874015748031497,
                    "duration": 0.9090909999999965
                },
                {
                    "name": "C5",
                    "midi": 72,
                    "time": 40.90909499999995,
                    "velocity": 0.7874015748031497,
                    "duration": 0.6818182499999992
                },
                {
                    "name": "D5",
                    "midi": 74,
                    "time": 41.59091324999995,
                    "velocity": 0.7874015748031497,
                    "duration": 0.22727274999999736
                },
                {
                    "name": "D#5",
                    "midi": 75,
                    "time": 41.81818599999995,
                    "velocity": 0.7874015748031497,
                    "duration": 0.9090909999999965
                },
                {
                    "name": "D5",
                    "midi": 74,
                    "time": 42.727276999999944,
                    "velocity": 0.7874015748031497,
                    "duration": 0.9090909999999965
                },
                {
                    "name": "C5",
                    "midi": 72,
                    "time": 43.63636799999994,
                    "velocity": 0.7874015748031497,
                    "duration": 0.34090912500000314
                },
                {
                    "name": "G4",
                    "midi": 67,
                    "time": 44.09091349999994,
                    "velocity": 0.7874015748031497,
                    "duration": 0.34090912500000314
                },
                {
                    "name": "C5",
                    "midi": 72,
                    "time": 44.545458999999944,
                    "velocity": 0.7874015748031497,
                    "duration": 0.34090912500000314
                },
                {
                    "name": "G4",
                    "midi": 67,
                    "time": 45.000004499999946,
                    "velocity": 0.7874015748031497,
                    "duration": 0.34090912500000314
                },
                {
                    "name": "C5",
                    "midi": 72,
                    "time": 45.45454999999995,
                    "velocity": 0.7874015748031497,
                    "duration": 0.34090912500000314
                },
                {
                    "name": "D#5",
                    "midi": 75,
                    "time": 45.90909549999995,
                    "velocity": 0.7874015748031497,
                    "duration": 0.34090912500000314
                },
                {
                    "name": "C5",
                    "midi": 72,
                    "time": 46.36364099999995,
                    "velocity": 0.7874015748031497,
                    "duration": 0.34090912500000314
                },
                {
                    "name": "D#5",
                    "midi": 75,
                    "time": 46.81818649999995,
                    "velocity": 0.7874015748031497,
                    "duration": 0.34090912500000314
                },
                {
                    "name": "C5",
                    "midi": 72,
                    "time": 47.272731999999955,
                    "velocity": 0.7874015748031497,
                    "duration": 0.34090912500000314
                },
                {
                    "name": "G5",
                    "midi": 79,
                    "time": 47.72727749999996,
                    "velocity": 0.7874015748031497,
                    "duration": 0.34090912500000314
                },
                {
                    "name": "D#5",
                    "midi": 75,
                    "time": 48.18182299999996,
                    "velocity": 0.7874015748031497,
                    "duration": 0.34090912500000314
                },
                {
                    "name": "G5",
                    "midi": 79,
                    "time": 48.63636849999996,
                    "velocity": 0.7874015748031497,
                    "duration": 0.34090912500000314
                },
                {
                    "name": "D#5",
                    "midi": 75,
                    "time": 49.09091399999996,
                    "velocity": 0.7874015748031497,
                    "duration": 0.34090912500000314
                },
                {
                    "name": "G5",
                    "midi": 79,
                    "time": 49.545459499999964,
                    "velocity": 0.7874015748031497,
                    "duration": 0.34090912500000314
                },
                {
                    "name": "D#5",
                    "midi": 75,
                    "time": 50.000004999999966,
                    "velocity": 0.7874015748031497,
                    "duration": 0.34090912500000314
                },
                {
                    "name": "G5",
                    "midi": 79,
                    "time": 50.45455049999997,
                    "velocity": 0.7874015748031497,
                    "duration": 0.34090912500000314
                },
                {
                    "name": "F5",
                    "midi": 77,
                    "time": 50.90909599999997,
                    "velocity": 0.7874015748031497,
                    "duration": 0.34090912500000314
                },
                {
                    "name": "D#5",
                    "midi": 75,
                    "time": 51.36364149999997,
                    "velocity": 0.7874015748031497,
                    "duration": 0.34090912500000314
                },
                {
                    "name": "F5",
                    "midi": 77,
                    "time": 51.81818699999997,
                    "velocity": 0.7874015748031497,
                    "duration": 0.34090912500000314
                },
                {
                    "name": "D5",
                    "midi": 74,
                    "time": 52.272732499999975,
                    "velocity": 0.7874015748031497,
                    "duration": 0.34090912500000314
                },
                {
                    "name": "D#5",
                    "midi": 75,
                    "time": 52.72727799999998,
                    "velocity": 0.7874015748031497,
                    "duration": 0.34090912500000314
                },
                {
                    "name": "D5",
                    "midi": 74,
                    "time": 53.18182349999998,
                    "velocity": 0.7874015748031497,
                    "duration": 0.34090912500000314
                },
                {
                    "name": "D#5",
                    "midi": 75,
                    "time": 53.63636899999998,
                    "velocity": 0.7874015748031497,
                    "duration": 0.34090912500000314
                },
                {
                    "name": "C5",
                    "midi": 72,
                    "time": 54.09091449999998,
                    "velocity": 0.7874015748031497,
                    "duration": 0.34090912500000314
                },
                {
                    "name": "D5",
                    "midi": 74,
                    "time": 54.545459999999984,
                    "velocity": 0.7874015748031497,
                    "duration": 0.34090912500000314
                },
                {
                    "name": "D5",
                    "midi": 74,
                    "time": 55.000005499999986,
                    "velocity": 0.7874015748031497,
                    "duration": 0.34090912500000314
                },
                {
                    "name": "A#4",
                    "midi": 70,
                    "time": 55.45455099999999,
                    "velocity": 0.7874015748031497,
                    "duration": 0.34090912500000314
                },
                {
                    "name": "D5",
                    "midi": 74,
                    "time": 55.90909649999999,
                    "velocity": 0.7874015748031497,
                    "duration": 0.34090912500000314
                },
                {
                    "name": "A#4",
                    "midi": 70,
                    "time": 56.36364199999999,
                    "velocity": 0.7874015748031497,
                    "duration": 0.34090912500000314
                },
                {
                    "name": "D5",
                    "midi": 74,
                    "time": 56.81818749999999,
                    "velocity": 0.7874015748031497,
                    "duration": 0.34090912500000314
                },
                {
                    "name": "E5",
                    "midi": 76,
                    "time": 57.272732999999995,
                    "velocity": 0.7874015748031497,
                    "duration": 0.34090912500000314
                },
                {
                    "name": "F#5",
                    "midi": 78,
                    "time": 57.7272785,
                    "velocity": 0.7874015748031497,
                    "duration": 0.34090912500000314
                },
                {
                    "name": "G5",
                    "midi": 79,
                    "time": 58.181824,
                    "velocity": 0.7874015748031497,
                    "duration": 0.34090912500000314
                },
                {
                    "name": "D5",
                    "midi": 74,
                    "time": 58.6363695,
                    "velocity": 0.7874015748031497,
                    "duration": 0.34090912500000314
                },
                {
                    "name": "G5",
                    "midi": 79,
                    "time": 59.090915,
                    "velocity": 0.7874015748031497,
                    "duration": 0.34090912500000314
                },
                {
                    "name": "D5",
                    "midi": 74,
                    "time": 59.545460500000004,
                    "velocity": 0.7874015748031497,
                    "duration": 0.34090912500000314
                },
                {
                    "name": "G5",
                    "midi": 79,
                    "time": 60.000006000000006,
                    "velocity": 0.7874015748031497,
                    "duration": 0.34090912500000314
                },
                {
                    "name": "A#5",
                    "midi": 82,
                    "time": 60.45455150000001,
                    "velocity": 0.7874015748031497,
                    "duration": 0.34090912500000314
                },
                {
                    "name": "G5",
                    "midi": 79,
                    "time": 60.90909700000001,
                    "velocity": 0.7874015748031497,
                    "duration": 0.34090912500000314
                },
                {
                    "name": "A#5",
                    "midi": 82,
                    "time": 61.36364250000001,
                    "velocity": 0.7874015748031497,
                    "duration": 0.34090912500000314
                },
                {
                    "name": "G5",
                    "midi": 79,
                    "time": 61.81818800000001,
                    "velocity": 0.7874015748031497,
                    "duration": 0.34090912500000314
                },
                {
                    "name": "F5",
                    "midi": 77,
                    "time": 62.272733500000015,
                    "velocity": 0.7874015748031497,
                    "duration": 0.34090912500000314
                },
                {
                    "name": "D#5",
                    "midi": 75,
                    "time": 62.72727900000002,
                    "velocity": 0.7874015748031497,
                    "duration": 0.34090912500000314
                },
                {
                    "name": "D5",
                    "midi": 74,
                    "time": 63.18182450000002,
                    "velocity": 0.7874015748031497,
                    "duration": 0.34090912500000314
                },
                {
                    "name": "D#5",
                    "midi": 75,
                    "time": 63.63637000000002,
                    "velocity": 0.7874015748031497,
                    "duration": 0.34090912500000314
                },
                {
                    "name": "G5",
                    "midi": 79,
                    "time": 64.09091550000002,
                    "velocity": 0.7874015748031497,
                    "duration": 0.34090912499999604
                },
                {
                    "name": "D#5",
                    "midi": 75,
                    "time": 64.54546100000002,
                    "velocity": 0.7874015748031497,
                    "duration": 0.34090912499999604
                },
                {
                    "name": "G5",
                    "midi": 79,
                    "time": 65.00000650000001,
                    "velocity": 0.7874015748031497,
                    "duration": 0.34090912499999604
                },
                {
                    "name": "C5",
                    "midi": 72,
                    "time": 65.454552,
                    "velocity": 0.7874015748031497,
                    "duration": 0.34090912499999604
                },
                {
                    "name": "G5",
                    "midi": 79,
                    "time": 65.9090975,
                    "velocity": 0.7874015748031497,
                    "duration": 0.34090912499999604
                },
                {
                    "name": "G#5",
                    "midi": 80,
                    "time": 66.363643,
                    "velocity": 0.7874015748031497,
                    "duration": 0.34090912499999604
                },
                {
                    "name": "G5",
                    "midi": 79,
                    "time": 66.81818849999999,
                    "velocity": 0.7874015748031497,
                    "duration": 0.34090912499999604
                },
                {
                    "name": "F5",
                    "midi": 77,
                    "time": 67.27273399999999,
                    "velocity": 0.7874015748031497,
                    "duration": 0.34090912499999604
                },
                {
                    "name": "D#5",
                    "midi": 75,
                    "time": 67.72727949999998,
                    "velocity": 0.7874015748031497,
                    "duration": 0.34090912499999604
                },
                {
                    "name": "D5",
                    "midi": 74,
                    "time": 68.18182499999998,
                    "velocity": 0.7874015748031497,
                    "duration": 0.34090912499999604
                },
                {
                    "name": "C5",
                    "midi": 72,
                    "time": 68.63637049999997,
                    "velocity": 0.7874015748031497,
                    "duration": 0.34090912499999604
                },
                {
                    "name": "B4",
                    "midi": 71,
                    "time": 69.09091599999996,
                    "velocity": 0.7874015748031497,
                    "duration": 0.34090912499999604
                },
                {
                    "name": "D5",
                    "midi": 74,
                    "time": 69.54546149999996,
                    "velocity": 0.7874015748031497,
                    "duration": 0.34090912499999604
                },
                {
                    "name": "B4",
                    "midi": 71,
                    "time": 70.00000699999995,
                    "velocity": 0.7874015748031497,
                    "duration": 0.34090912499999604
                },
                {
                    "name": "D5",
                    "midi": 74,
                    "time": 70.45455249999995,
                    "velocity": 0.7874015748031497,
                    "duration": 0.34090912499999604
                },
                {
                    "name": "B4",
                    "midi": 71,
                    "time": 70.90909799999994,
                    "velocity": 0.7874015748031497,
                    "duration": 0.34090912499999604
                },
                {
                    "name": "B4",
                    "midi": 71,
                    "time": 71.36364349999994,
                    "velocity": 0.7874015748031497,
                    "duration": 0.34090912499999604
                },
                {
                    "name": "C5",
                    "midi": 72,
                    "time": 71.81818899999993,
                    "velocity": 0.7874015748031497,
                    "duration": 0.34090912499999604
                },
                {
                    "name": "D5",
                    "midi": 74,
                    "time": 72.27273449999993,
                    "velocity": 0.7874015748031497,
                    "duration": 0.34090912499999604
                },
                {
                    "name": "D#5",
                    "midi": 75,
                    "time": 72.72727999999992,
                    "velocity": 0.7874015748031497,
                    "duration": 0.34090912499999604
                },
                {
                    "name": "D5",
                    "midi": 74,
                    "time": 73.18182549999992,
                    "velocity": 0.7874015748031497,
                    "duration": 0.34090912499999604
                },
                {
                    "name": "D#5",
                    "midi": 75,
                    "time": 73.63637099999991,
                    "velocity": 0.7874015748031497,
                    "duration": 0.34090912499999604
                },
                {
                    "name": "F5",
                    "midi": 77,
                    "time": 74.0909164999999,
                    "velocity": 0.7874015748031497,
                    "duration": 0.34090912499999604
                },
                {
                    "name": "G5",
                    "midi": 79,
                    "time": 74.5454619999999,
                    "velocity": 0.7874015748031497,
                    "duration": 0.34090912499999604
                },
                {
                    "name": "C5",
                    "midi": 72,
                    "time": 75.0000074999999,
                    "velocity": 0.7874015748031497,
                    "duration": 0.34090912499999604
                },
                {
                    "name": "G5",
                    "midi": 79,
                    "time": 75.45455299999989,
                    "velocity": 0.7874015748031497,
                    "duration": 0.34090912499999604
                },
                {
                    "name": "C5",
                    "midi": 72,
                    "time": 75.90909849999989,
                    "velocity": 0.7874015748031497,
                    "duration": 0.34090912499999604
                },
                {
                    "name": "G#5",
                    "midi": 80,
                    "time": 76.36364399999988,
                    "velocity": 0.7874015748031497,
                    "duration": 0.34090912499999604
                },
                {
                    "name": "G#5",
                    "midi": 80,
                    "time": 76.81818949999987,
                    "velocity": 0.7874015748031497,
                    "duration": 0.1742424416666637
                },
                {
                    "name": "G5",
                    "midi": 79,
                    "time": 77.04546224999987,
                    "velocity": 0.7874015748031497,
                    "duration": 0.1742424416666637
                },
                {
                    "name": "F5",
                    "midi": 77,
                    "time": 77.27273499999987,
                    "velocity": 0.7874015748031497,
                    "duration": 0.34090912499999604
                },
                {
                    "name": "D#5",
                    "midi": 75,
                    "time": 77.72728049999986,
                    "velocity": 0.7874015748031497,
                    "duration": 0.34090912499999604
                },
                {
                    "name": "D5",
                    "midi": 74,
                    "time": 78.18182599999986,
                    "velocity": 0.7874015748031497,
                    "duration": 0.34090912499999604
                },
                {
                    "name": "F5",
                    "midi": 77,
                    "time": 78.63637149999985,
                    "velocity": 0.7874015748031497,
                    "duration": 0.34090912499999604
                },
                {
                    "name": "A#5",
                    "midi": 82,
                    "time": 79.09091699999985,
                    "velocity": 0.7874015748031497,
                    "duration": 0.34090912499999604
                },
                {
                    "name": "F5",
                    "midi": 77,
                    "time": 79.54546249999984,
                    "velocity": 0.7874015748031497,
                    "duration": 0.34090912499999604
                },
                {
                    "name": "A#5",
                    "midi": 82,
                    "time": 80.00000799999984,
                    "velocity": 0.7874015748031497,
                    "duration": 0.34090912499999604
                },
                {
                    "name": "G#5",
                    "midi": 80,
                    "time": 80.45455349999983,
                    "velocity": 0.7874015748031497,
                    "duration": 0.34090912499999604
                },
                {
                    "name": "G5",
                    "midi": 79,
                    "time": 80.90909899999983,
                    "velocity": 0.7874015748031497,
                    "duration": 0.34090912499999604
                },
                {
                    "name": "F5",
                    "midi": 77,
                    "time": 81.36364449999982,
                    "velocity": 0.7874015748031497,
                    "duration": 0.34090912499999604
                },
                {
                    "name": "G5",
                    "midi": 79,
                    "time": 81.81818999999982,
                    "velocity": 0.7874015748031497,
                    "duration": 0.34090912499999604
                },
                {
                    "name": "A#4",
                    "midi": 70,
                    "time": 82.27273549999981,
                    "velocity": 0.7874015748031497,
                    "duration": 0.34090912499999604
                },
                {
                    "name": "D#5",
                    "midi": 75,
                    "time": 82.7272809999998,
                    "velocity": 0.7874015748031497,
                    "duration": 0.34090912499999604
                },
                {
                    "name": "A#4",
                    "midi": 70,
                    "time": 83.1818264999998,
                    "velocity": 0.7874015748031497,
                    "duration": 0.34090912499999604
                },
                {
                    "name": "D#5",
                    "midi": 75,
                    "time": 83.6363719999998,
                    "velocity": 0.7874015748031497,
                    "duration": 0.34090912499999604
                },
                {
                    "name": "D5",
                    "midi": 74,
                    "time": 84.09091749999979,
                    "velocity": 0.7874015748031497,
                    "duration": 0.34090912499999604
                },
                {
                    "name": "C5",
                    "midi": 72,
                    "time": 84.54546299999978,
                    "velocity": 0.7874015748031497,
                    "duration": 0.34090912499999604
                },
                {
                    "name": "A#4",
                    "midi": 70,
                    "time": 85.00000849999978,
                    "velocity": 0.7874015748031497,
                    "duration": 0.34090912499999604
                },
                {
                    "name": "C5",
                    "midi": 72,
                    "time": 85.45455399999977,
                    "velocity": 0.7874015748031497,
                    "duration": 0.34090912499999604
                },
                {
                    "name": "C5",
                    "midi": 72,
                    "time": 85.90909949999977,
                    "velocity": 0.7874015748031497,
                    "duration": 0.34090912499999604
                },
                {
                    "name": "F5",
                    "midi": 77,
                    "time": 86.36364499999976,
                    "velocity": 0.7874015748031497,
                    "duration": 0.34090912499999604
                },
                {
                    "name": "C5",
                    "midi": 72,
                    "time": 86.81819049999976,
                    "velocity": 0.7874015748031497,
                    "duration": 0.34090912499999604
                },
                {
                    "name": "F5",
                    "midi": 77,
                    "time": 87.27273599999975,
                    "velocity": 0.7874015748031497,
                    "duration": 0.34090912499999604
                },
                {
                    "name": "G#5",
                    "midi": 80,
                    "time": 87.72728149999975,
                    "velocity": 0.7874015748031497,
                    "duration": 0.34090912499999604
                },
                {
                    "name": "F5",
                    "midi": 77,
                    "time": 88.18182699999974,
                    "velocity": 0.7874015748031497,
                    "duration": 0.34090912499999604
                },
                {
                    "name": "G#5",
                    "midi": 80,
                    "time": 88.63637249999974,
                    "velocity": 0.7874015748031497,
                    "duration": 0.34090912499999604
                },
                {
                    "name": "F5",
                    "midi": 77,
                    "time": 89.09091799999973,
                    "velocity": 0.7874015748031497,
                    "duration": 0.34090912499999604
                },
                {
                    "name": "G#5",
                    "midi": 80,
                    "time": 89.54546349999973,
                    "velocity": 0.7874015748031497,
                    "duration": 0.34090912499999604
                },
                {
                    "name": "F5",
                    "midi": 77,
                    "time": 90.00000899999972,
                    "velocity": 0.7874015748031497,
                    "duration": 0.34090912499999604
                },
                {
                    "name": "G#5",
                    "midi": 80,
                    "time": 90.45455449999972,
                    "velocity": 0.7874015748031497,
                    "duration": 0.34090912499999604
                },
                {
                    "name": "D5",
                    "midi": 74,
                    "time": 90.90909999999971,
                    "velocity": 0.7874015748031497,
                    "duration": 0.34090912499999604
                },
                {
                    "name": "G5",
                    "midi": 79,
                    "time": 91.3636454999997,
                    "velocity": 0.7874015748031497,
                    "duration": 0.34090912499999604
                },
                {
                    "name": "D5",
                    "midi": 74,
                    "time": 91.8181909999997,
                    "velocity": 0.7874015748031497,
                    "duration": 0.34090912499999604
                },
                {
                    "name": "G5",
                    "midi": 79,
                    "time": 92.2727364999997,
                    "velocity": 0.7874015748031497,
                    "duration": 0.34090912499999604
                },
                {
                    "name": "C5",
                    "midi": 72,
                    "time": 92.72728199999969,
                    "velocity": 0.7874015748031497,
                    "duration": 0.34090912499999604
                },
                {
                    "name": "F5",
                    "midi": 77,
                    "time": 93.18182749999968,
                    "velocity": 0.7874015748031497,
                    "duration": 0.34090912499999604
                },
                {
                    "name": "C5",
                    "midi": 72,
                    "time": 93.63637299999968,
                    "velocity": 0.7874015748031497,
                    "duration": 0.34090912499999604
                },
                {
                    "name": "F5",
                    "midi": 77,
                    "time": 94.09091849999967,
                    "velocity": 0.7874015748031497,
                    "duration": 0.34090912499999604
                },
                {
                    "name": "A#4",
                    "midi": 70,
                    "time": 94.54546399999967,
                    "velocity": 0.7874015748031497,
                    "duration": 0.34090912499999604
                },
                {
                    "name": "D#5",
                    "midi": 75,
                    "time": 95.00000949999966,
                    "velocity": 0.7874015748031497,
                    "duration": 0.34090912499999604
                },
                {
                    "name": "A#4",
                    "midi": 70,
                    "time": 95.45455499999966,
                    "velocity": 0.7874015748031497,
                    "duration": 0.34090912499999604
                },
                {
                    "name": "D#5",
                    "midi": 75,
                    "time": 95.90910049999965,
                    "velocity": 0.7874015748031497,
                    "duration": 0.34090912499999604
                },
                {
                    "name": "G#4",
                    "midi": 68,
                    "time": 96.36364599999965,
                    "velocity": 0.7874015748031497,
                    "duration": 0.34090912499999604
                },
                {
                    "name": "D5",
                    "midi": 74,
                    "time": 96.81819149999964,
                    "velocity": 0.7874015748031497,
                    "duration": 0.34090912499999604
                },
                {
                    "name": "G#4",
                    "midi": 68,
                    "time": 97.27273699999964,
                    "velocity": 0.7874015748031497,
                    "duration": 0.34090912499999604
                },
                {
                    "name": "D5",
                    "midi": 74,
                    "time": 97.72728249999963,
                    "velocity": 0.7874015748031497,
                    "duration": 0.34090912499999604
                },
                {
                    "name": "G4",
                    "midi": 67,
                    "time": 98.18182799999963,
                    "velocity": 0.7874015748031497,
                    "duration": 0.34090912499999604
                },
                {
                    "name": "G5",
                    "midi": 79,
                    "time": 98.63637349999962,
                    "velocity": 0.7874015748031497,
                    "duration": 0.34090912499999604
                },
                {
                    "name": "C5",
                    "midi": 72,
                    "time": 99.09091899999962,
                    "velocity": 0.7874015748031497,
                    "duration": 0.34090912499999604
                },
                {
                    "name": "G5",
                    "midi": 79,
                    "time": 99.54546449999961,
                    "velocity": 0.7874015748031497,
                    "duration": 0.34090912499999604
                },
                {
                    "name": "B4",
                    "midi": 71,
                    "time": 100.0000099999996,
                    "velocity": 0.7874015748031497,
                    "duration": 0.34090912499999604
                },
                {
                    "name": "F5",
                    "midi": 77,
                    "time": 100.4545554999996,
                    "velocity": 0.7874015748031497,
                    "duration": 0.34090912499999604
                },
                {
                    "name": "B4",
                    "midi": 71,
                    "time": 100.9091009999996,
                    "velocity": 0.7874015748031497,
                    "duration": 0.34090912499999604
                },
                {
                    "name": "F5",
                    "midi": 77,
                    "time": 101.36364649999959,
                    "velocity": 0.7874015748031497,
                    "duration": 0.34090912499999604
                },
                {
                    "name": "D#5",
                    "midi": 75,
                    "time": 101.81819199999958,
                    "velocity": 0.7874015748031497,
                    "duration": 0.34090912499999604
                },
                {
                    "name": "G#5",
                    "midi": 80,
                    "time": 102.27273749999958,
                    "velocity": 0.7874015748031497,
                    "duration": 0.34090912499999604
                },
                {
                    "name": "D#5",
                    "midi": 75,
                    "time": 102.72728299999957,
                    "velocity": 0.7874015748031497,
                    "duration": 0.34090912499999604
                },
                {
                    "name": "G#5",
                    "midi": 80,
                    "time": 103.18182849999957,
                    "velocity": 0.7874015748031497,
                    "duration": 0.34090912499999604
                },
                {
                    "name": "F5",
                    "midi": 77,
                    "time": 103.63637399999956,
                    "velocity": 0.7874015748031497,
                    "duration": 0.34090912499999604
                },
                {
                    "name": "A#5",
                    "midi": 82,
                    "time": 104.09091949999956,
                    "velocity": 0.7874015748031497,
                    "duration": 0.34090912499999604
                },
                {
                    "name": "F5",
                    "midi": 77,
                    "time": 104.54546499999955,
                    "velocity": 0.7874015748031497,
                    "duration": 0.34090912499999604
                },
                {
                    "name": "A#5",
                    "midi": 82,
                    "time": 105.00001049999955,
                    "velocity": 0.7874015748031497,
                    "duration": 0.34090912499999604
                },
                {
                    "name": "G5",
                    "midi": 79,
                    "time": 105.45455599999954,
                    "velocity": 0.7874015748031497,
                    "duration": 0.34090912499999604
                },
                {
                    "name": "C5",
                    "midi": 72,
                    "time": 105.90910149999954,
                    "velocity": 0.7874015748031497,
                    "duration": 0.34090912499999604
                },
                {
                    "name": "G4",
                    "midi": 67,
                    "time": 106.36364699999953,
                    "velocity": 0.7874015748031497,
                    "duration": 0.34090912499999604
                },
                {
                    "name": "C5",
                    "midi": 72,
                    "time": 106.81819249999953,
                    "velocity": 0.7874015748031497,
                    "duration": 0.34090912499999604
                },
                {
                    "name": "A4",
                    "midi": 69,
                    "time": 107.27273799999952,
                    "velocity": 0.7874015748031497,
                    "duration": 0.34090912499999604
                },
                {
                    "name": "D5",
                    "midi": 74,
                    "time": 107.72728349999952,
                    "velocity": 0.7874015748031497,
                    "duration": 0.34090912499999604
                },
                {
                    "name": "A4",
                    "midi": 69,
                    "time": 108.18182899999951,
                    "velocity": 0.7874015748031497,
                    "duration": 0.34090912499999604
                },
                {
                    "name": "D5",
                    "midi": 74,
                    "time": 108.6363744999995,
                    "velocity": 0.7874015748031497,
                    "duration": 0.34090912499999604
                },
                {
                    "name": "G4",
                    "midi": 67,
                    "time": 109.0909199999995,
                    "velocity": 0.7874015748031497,
                    "duration": 0.34090912499999604
                },
                {
                    "name": "C5",
                    "midi": 72,
                    "time": 109.5454654999995,
                    "velocity": 0.7874015748031497,
                    "duration": 0.34090912499999604
                },
                {
                    "name": "G4",
                    "midi": 67,
                    "time": 110.00001099999949,
                    "velocity": 0.7874015748031497,
                    "duration": 0.34090912499999604
                },
                {
                    "name": "C5",
                    "midi": 72,
                    "time": 110.45455649999948,
                    "velocity": 0.7874015748031497,
                    "duration": 0.34090912499999604
                },
                {
                    "name": "F#4",
                    "midi": 66,
                    "time": 110.90910199999948,
                    "velocity": 0.7874015748031497,
                    "duration": 0.34090912499999604
                },
                {
                    "name": "A#4",
                    "midi": 70,
                    "time": 111.36364749999947,
                    "velocity": 0.7874015748031497,
                    "duration": 0.34090912499999604
                },
                {
                    "name": "F#4",
                    "midi": 66,
                    "time": 111.81819299999947,
                    "velocity": 0.7874015748031497,
                    "duration": 0.34090912499999604
                },
                {
                    "name": "A#4",
                    "midi": 70,
                    "time": 112.27273849999946,
                    "velocity": 0.7874015748031497,
                    "duration": 0.34090912499999604
                },
                {
                    "name": "G4",
                    "midi": 67,
                    "time": 112.72728399999946,
                    "velocity": 0.7874015748031497,
                    "duration": 0.34090912499999604
                },
                {
                    "name": "C5",
                    "midi": 72,
                    "time": 113.18182949999945,
                    "velocity": 0.7874015748031497,
                    "duration": 0.34090912499999604
                },
                {
                    "name": "G4",
                    "midi": 67,
                    "time": 113.63637499999945,
                    "velocity": 0.7874015748031497,
                    "duration": 0.34090912499999604
                },
                {
                    "name": "C5",
                    "midi": 72,
                    "time": 114.09092049999944,
                    "velocity": 0.7874015748031497,
                    "duration": 0.34090912499999604
                },
                {
                    "name": "A4",
                    "midi": 69,
                    "time": 114.54546599999944,
                    "velocity": 0.7874015748031497,
                    "duration": 0.34090912499999604
                },
                {
                    "name": "D5",
                    "midi": 74,
                    "time": 115.00001149999943,
                    "velocity": 0.7874015748031497,
                    "duration": 0.34090912499999604
                },
                {
                    "name": "A4",
                    "midi": 69,
                    "time": 115.45455699999943,
                    "velocity": 0.7874015748031497,
                    "duration": 0.34090912499999604
                },
                {
                    "name": "D5",
                    "midi": 74,
                    "time": 115.90910249999942,
                    "velocity": 0.7874015748031497,
                    "duration": 0.34090912499999604
                },
                {
                    "name": "A#4",
                    "midi": 70,
                    "time": 116.36364799999942,
                    "velocity": 0.7874015748031497,
                    "duration": 0.34090912499999604
                },
                {
                    "name": "D#5",
                    "midi": 75,
                    "time": 116.81819349999941,
                    "velocity": 0.7874015748031497,
                    "duration": 0.34090912499999604
                },
                {
                    "name": "A#4",
                    "midi": 70,
                    "time": 117.2727389999994,
                    "velocity": 0.7874015748031497,
                    "duration": 0.34090912499999604
                },
                {
                    "name": "D#5",
                    "midi": 75,
                    "time": 117.7272844999994,
                    "velocity": 0.7874015748031497,
                    "duration": 0.34090912499999604
                },
                {
                    "name": "C5",
                    "midi": 72,
                    "time": 118.1818299999994,
                    "velocity": 0.7874015748031497,
                    "duration": 0.34090912499999604
                },
                {
                    "name": "F5",
                    "midi": 77,
                    "time": 118.63637549999939,
                    "velocity": 0.7874015748031497,
                    "duration": 0.34090912499999604
                },
                {
                    "name": "C5",
                    "midi": 72,
                    "time": 119.09092099999938,
                    "velocity": 0.7874015748031497,
                    "duration": 0.34090912499999604
                },
                {
                    "name": "F5",
                    "midi": 77,
                    "time": 119.54546649999938,
                    "velocity": 0.7874015748031497,
                    "duration": 0.34090912499999604
                },
                {
                    "name": "D5",
                    "midi": 74,
                    "time": 120.00001199999937,
                    "velocity": 0.7874015748031497,
                    "duration": 0.34090912499999604
                },
                {
                    "name": "G5",
                    "midi": 79,
                    "time": 120.45455749999937,
                    "velocity": 0.7874015748031497,
                    "duration": 0.34090912499999604
                },
                {
                    "name": "D5",
                    "midi": 74,
                    "time": 120.90910299999936,
                    "velocity": 0.7874015748031497,
                    "duration": 0.34090912499999604
                },
                {
                    "name": "G5",
                    "midi": 79,
                    "time": 121.36364849999936,
                    "velocity": 0.7874015748031497,
                    "duration": 0.34090912499999604
                },
                {
                    "name": "D#5",
                    "midi": 75,
                    "time": 121.81819399999935,
                    "velocity": 0.7874015748031497,
                    "duration": 0.34090912499999604
                },
                {
                    "name": "G#5",
                    "midi": 80,
                    "time": 122.27273949999935,
                    "velocity": 0.7874015748031497,
                    "duration": 0.34090912499999604
                },
                {
                    "name": "D#5",
                    "midi": 75,
                    "time": 122.72728499999934,
                    "velocity": 0.7874015748031497,
                    "duration": 0.34090912499999604
                },
                {
                    "name": "G#5",
                    "midi": 80,
                    "time": 123.18183049999934,
                    "velocity": 0.7874015748031497,
                    "duration": 0.34090912499999604
                },
                {
                    "name": "F5",
                    "midi": 77,
                    "time": 123.63637599999933,
                    "velocity": 0.7874015748031497,
                    "duration": 0.34090912499999604
                },
                {
                    "name": "A#5",
                    "midi": 82,
                    "time": 124.09092149999933,
                    "velocity": 0.7874015748031497,
                    "duration": 0.34090912499999604
                },
                {
                    "name": "F5",
                    "midi": 77,
                    "time": 124.54546699999932,
                    "velocity": 0.7874015748031497,
                    "duration": 0.34090912499999604
                },
                {
                    "name": "A#5",
                    "midi": 82,
                    "time": 125.00001249999931,
                    "velocity": 0.7874015748031497,
                    "duration": 0.34090912499999604
                },
                {
                    "name": "G5",
                    "midi": 79,
                    "time": 125.45455799999931,
                    "velocity": 0.7874015748031497,
                    "duration": 0.34090912499999604
                },
                {
                    "name": "G5",
                    "midi": 79,
                    "time": 125.9091034999993,
                    "velocity": 0.7874015748031497,
                    "duration": 0.34090912499999604
                },
                {
                    "name": "C6",
                    "midi": 84,
                    "time": 126.3636489999993,
                    "velocity": 0.7874015748031497,
                    "duration": 0.34090912499999604
                },
                {
                    "name": "A#5",
                    "midi": 82,
                    "time": 126.8181944999993,
                    "velocity": 0.7874015748031497,
                    "duration": 0.34090912499999604
                },
                {
                    "name": "G#5",
                    "midi": 80,
                    "time": 127.27273999999929,
                    "velocity": 0.7874015748031497,
                    "duration": 0.34090912499999604
                },
                {
                    "name": "G5",
                    "midi": 79,
                    "time": 127.72728549999928,
                    "velocity": 0.7874015748031497,
                    "duration": 0.34090912499999604
                },
                {
                    "name": "F5",
                    "midi": 77,
                    "time": 128.18183099999928,
                    "velocity": 0.7874015748031497,
                    "duration": 0.34090912499999604
                },
                {
                    "name": "D#5",
                    "midi": 75,
                    "time": 128.63637649999927,
                    "velocity": 0.7874015748031497,
                    "duration": 0.34090912499999604
                },
                {
                    "name": "D5",
                    "midi": 74,
                    "time": 129.09092199999927,
                    "velocity": 0.7874015748031497,
                    "duration": 0.34090912499999604
                },
                {
                    "name": "D5",
                    "midi": 74,
                    "time": 129.54546749999926,
                    "velocity": 0.7874015748031497,
                    "duration": 0.34090912499999604
                },
                {
                    "name": "G5",
                    "midi": 79,
                    "time": 130.00001299999926,
                    "velocity": 0.7874015748031497,
                    "duration": 0.34090912499999604
                },
                {
                    "name": "F5",
                    "midi": 77,
                    "time": 130.45455849999925,
                    "velocity": 0.7874015748031497,
                    "duration": 0.34090912499999604
                },
                {
                    "name": "D#5",
                    "midi": 75,
                    "time": 130.90910399999925,
                    "velocity": 0.7874015748031497,
                    "duration": 0.34090912499999604
                },
                {
                    "name": "D5",
                    "midi": 74,
                    "time": 131.36364949999924,
                    "velocity": 0.7874015748031497,
                    "duration": 0.34090912499999604
                },
                {
                    "name": "C5",
                    "midi": 72,
                    "time": 131.81819499999924,
                    "velocity": 0.7874015748031497,
                    "duration": 0.34090912499999604
                },
                {
                    "name": "D5",
                    "midi": 74,
                    "time": 132.27274049999923,
                    "velocity": 0.7874015748031497,
                    "duration": 0.34090912499999604
                },
                {
                    "name": "D#5",
                    "midi": 75,
                    "time": 132.72728599999922,
                    "velocity": 0.7874015748031497,
                    "duration": 0.6818182499999921
                },
                {
                    "name": "D5",
                    "midi": 74,
                    "time": 133.63637699999921,
                    "velocity": 0.7874015748031497,
                    "duration": 0.6818182499999921
                },
                {
                    "name": "C5",
                    "midi": 72,
                    "time": 134.5454679999992,
                    "velocity": 0.7874015748031497,
                    "duration": 0.34090912499999604
                },
                {
                    "name": "G4",
                    "midi": 67,
                    "time": 135.0000134999992,
                    "velocity": 0.7874015748031497,
                    "duration": 0.34090912499999604
                },
                {
                    "name": "C5",
                    "midi": 72,
                    "time": 135.4545589999992,
                    "velocity": 0.7874015748031497,
                    "duration": 0.34090912499999604
                },
                {
                    "name": "G4",
                    "midi": 67,
                    "time": 135.9091044999992,
                    "velocity": 0.7874015748031497,
                    "duration": 0.34090912499999604
                },
                {
                    "name": "C5",
                    "midi": 72,
                    "time": 136.36364999999918,
                    "velocity": 0.7874015748031497,
                    "duration": 0.34090912499999604
                },
                {
                    "name": "D#5",
                    "midi": 75,
                    "time": 136.81819549999918,
                    "velocity": 0.7874015748031497,
                    "duration": 0.34090912499999604
                },
                {
                    "name": "C5",
                    "midi": 72,
                    "time": 137.27274099999917,
                    "velocity": 0.7874015748031497,
                    "duration": 0.34090912499999604
                },
                {
                    "name": "D#5",
                    "midi": 75,
                    "time": 137.72728649999917,
                    "velocity": 0.7874015748031497,
                    "duration": 0.34090912499999604
                },
                {
                    "name": "C5",
                    "midi": 72,
                    "time": 138.18183199999916,
                    "velocity": 0.7874015748031497,
                    "duration": 0.34090912499999604
                },
                {
                    "name": "G5",
                    "midi": 79,
                    "time": 138.63637749999916,
                    "velocity": 0.7874015748031497,
                    "duration": 0.34090912499999604
                },
                {
                    "name": "D#5",
                    "midi": 75,
                    "time": 139.09092299999915,
                    "velocity": 0.7874015748031497,
                    "duration": 0.34090912499999604
                },
                {
                    "name": "G5",
                    "midi": 79,
                    "time": 139.54546849999915,
                    "velocity": 0.7874015748031497,
                    "duration": 0.34090912499999604
                },
                {
                    "name": "D#5",
                    "midi": 75,
                    "time": 140.00001399999914,
                    "velocity": 0.7874015748031497,
                    "duration": 0.34090912499999604
                },
                {
                    "name": "G5",
                    "midi": 79,
                    "time": 140.45455949999914,
                    "velocity": 0.7874015748031497,
                    "duration": 0.34090912499999604
                },
                {
                    "name": "D#5",
                    "midi": 75,
                    "time": 140.90910499999913,
                    "velocity": 0.7874015748031497,
                    "duration": 0.34090912499999604
                },
                {
                    "name": "G5",
                    "midi": 79,
                    "time": 141.36365049999912,
                    "velocity": 0.7874015748031497,
                    "duration": 0.34090912499999604
                },
                {
                    "name": "F5",
                    "midi": 77,
                    "time": 141.81819599999912,
                    "velocity": 0.7874015748031497,
                    "duration": 0.34090912499999604
                },
                {
                    "name": "D#5",
                    "midi": 75,
                    "time": 142.2727414999991,
                    "velocity": 0.7874015748031497,
                    "duration": 0.34090912499999604
                },
                {
                    "name": "F5",
                    "midi": 77,
                    "time": 142.7272869999991,
                    "velocity": 0.7874015748031497,
                    "duration": 0.34090912499999604
                },
                {
                    "name": "D5",
                    "midi": 74,
                    "time": 143.1818324999991,
                    "velocity": 0.7874015748031497,
                    "duration": 0.34090912499999604
                },
                {
                    "name": "D#5",
                    "midi": 75,
                    "time": 143.6363779999991,
                    "velocity": 0.7874015748031497,
                    "duration": 0.34090912499999604
                },
                {
                    "name": "D5",
                    "midi": 74,
                    "time": 144.0909234999991,
                    "velocity": 0.7874015748031497,
                    "duration": 0.34090912499999604
                },
                {
                    "name": "D#5",
                    "midi": 75,
                    "time": 144.5454689999991,
                    "velocity": 0.7874015748031497,
                    "duration": 0.34090912499999604
                },
                {
                    "name": "C5",
                    "midi": 72,
                    "time": 145.00001449999908,
                    "velocity": 0.7874015748031497,
                    "duration": 0.34090912499999604
                },
                {
                    "name": "D5",
                    "midi": 74,
                    "time": 145.45455999999908,
                    "velocity": 0.7874015748031497,
                    "duration": 0.34090912499999604
                },
                {
                    "name": "D5",
                    "midi": 74,
                    "time": 145.90910549999907,
                    "velocity": 0.7874015748031497,
                    "duration": 0.34090912499999604
                },
                {
                    "name": "A#4",
                    "midi": 70,
                    "time": 146.36365099999907,
                    "velocity": 0.7874015748031497,
                    "duration": 0.34090912499999604
                },
                {
                    "name": "D5",
                    "midi": 74,
                    "time": 146.81819649999906,
                    "velocity": 0.7874015748031497,
                    "duration": 0.34090912499999604
                },
                {
                    "name": "A#4",
                    "midi": 70,
                    "time": 147.27274199999906,
                    "velocity": 0.7874015748031497,
                    "duration": 0.34090912499999604
                },
                {
                    "name": "D5",
                    "midi": 74,
                    "time": 147.72728749999905,
                    "velocity": 0.7874015748031497,
                    "duration": 0.34090912499999604
                },
                {
                    "name": "E5",
                    "midi": 76,
                    "time": 148.18183299999905,
                    "velocity": 0.7874015748031497,
                    "duration": 0.34090912499999604
                },
                {
                    "name": "F#5",
                    "midi": 78,
                    "time": 148.63637849999904,
                    "velocity": 0.7874015748031497,
                    "duration": 0.34090912499999604
                },
                {
                    "name": "G5",
                    "midi": 79,
                    "time": 149.09092399999903,
                    "velocity": 0.7874015748031497,
                    "duration": 0.34090912499999604
                },
                {
                    "name": "D5",
                    "midi": 74,
                    "time": 149.54546949999903,
                    "velocity": 0.7874015748031497,
                    "duration": 0.34090912499999604
                },
                {
                    "name": "G5",
                    "midi": 79,
                    "time": 150.00001499999902,
                    "velocity": 0.7874015748031497,
                    "duration": 0.34090912499999604
                },
                {
                    "name": "D5",
                    "midi": 74,
                    "time": 150.45456049999902,
                    "velocity": 0.7874015748031497,
                    "duration": 0.34090912499999604
                },
                {
                    "name": "G5",
                    "midi": 79,
                    "time": 150.909105999999,
                    "velocity": 0.7874015748031497,
                    "duration": 0.34090912499999604
                },
                {
                    "name": "A#5",
                    "midi": 82,
                    "time": 151.363651499999,
                    "velocity": 0.7874015748031497,
                    "duration": 0.34090912499999604
                },
                {
                    "name": "G5",
                    "midi": 79,
                    "time": 151.818196999999,
                    "velocity": 0.7874015748031497,
                    "duration": 0.34090912499999604
                },
                {
                    "name": "A#5",
                    "midi": 82,
                    "time": 152.272742499999,
                    "velocity": 0.7874015748031497,
                    "duration": 0.34090912499999604
                },
                {
                    "name": "G5",
                    "midi": 79,
                    "time": 152.727287999999,
                    "velocity": 0.7874015748031497,
                    "duration": 0.34090912499999604
                },
                {
                    "name": "F5",
                    "midi": 77,
                    "time": 153.181833499999,
                    "velocity": 0.7874015748031497,
                    "duration": 0.34090912499999604
                },
                {
                    "name": "D#5",
                    "midi": 75,
                    "time": 153.63637899999898,
                    "velocity": 0.7874015748031497,
                    "duration": 0.34090912499999604
                },
                {
                    "name": "D5",
                    "midi": 74,
                    "time": 154.09092449999898,
                    "velocity": 0.7874015748031497,
                    "duration": 0.34090912499999604
                },
                {
                    "name": "D#5",
                    "midi": 75,
                    "time": 154.54546999999897,
                    "velocity": 0.7874015748031497,
                    "duration": 0.34090912499999604
                },
                {
                    "name": "G5",
                    "midi": 79,
                    "time": 155.00001549999897,
                    "velocity": 0.7874015748031497,
                    "duration": 0.34090912499999604
                },
                {
                    "name": "D#5",
                    "midi": 75,
                    "time": 155.45456099999896,
                    "velocity": 0.7874015748031497,
                    "duration": 0.34090912499999604
                },
                {
                    "name": "G5",
                    "midi": 79,
                    "time": 155.90910649999896,
                    "velocity": 0.7874015748031497,
                    "duration": 0.34090912499999604
                },
                {
                    "name": "C5",
                    "midi": 72,
                    "time": 156.36365199999895,
                    "velocity": 0.7874015748031497,
                    "duration": 0.34090912499999604
                },
                {
                    "name": "G5",
                    "midi": 79,
                    "time": 156.81819749999894,
                    "velocity": 0.7874015748031497,
                    "duration": 0.34090912499999604
                },
                {
                    "name": "G#5",
                    "midi": 80,
                    "time": 157.27274299999894,
                    "velocity": 0.7874015748031497,
                    "duration": 0.34090912499999604
                },
                {
                    "name": "G5",
                    "midi": 79,
                    "time": 157.72728849999893,
                    "velocity": 0.7874015748031497,
                    "duration": 0.34090912499999604
                },
                {
                    "name": "F5",
                    "midi": 77,
                    "time": 158.18183399999893,
                    "velocity": 0.7874015748031497,
                    "duration": 0.34090912499999604
                },
                {
                    "name": "D#5",
                    "midi": 75,
                    "time": 158.63637949999892,
                    "velocity": 0.7874015748031497,
                    "duration": 0.34090912499999604
                },
                {
                    "name": "D5",
                    "midi": 74,
                    "time": 159.09092499999892,
                    "velocity": 0.7874015748031497,
                    "duration": 0.34090912499999604
                },
                {
                    "name": "C5",
                    "midi": 72,
                    "time": 159.5454704999989,
                    "velocity": 0.7874015748031497,
                    "duration": 0.34090912499999604
                },
                {
                    "name": "B4",
                    "midi": 71,
                    "time": 160.0000159999989,
                    "velocity": 0.7874015748031497,
                    "duration": 0.34090912499999604
                },
                {
                    "name": "D5",
                    "midi": 74,
                    "time": 160.4545614999989,
                    "velocity": 0.7874015748031497,
                    "duration": 0.34090912499999604
                },
                {
                    "name": "B4",
                    "midi": 71,
                    "time": 160.9091069999989,
                    "velocity": 0.7874015748031497,
                    "duration": 0.34090912499999604
                },
                {
                    "name": "D5",
                    "midi": 74,
                    "time": 161.3636524999989,
                    "velocity": 0.7874015748031497,
                    "duration": 0.34090912499999604
                },
                {
                    "name": "B4",
                    "midi": 71,
                    "time": 161.8181979999989,
                    "velocity": 0.7874015748031497,
                    "duration": 0.34090912499999604
                },
                {
                    "name": "B4",
                    "midi": 71,
                    "time": 162.27274349999888,
                    "velocity": 0.7874015748031497,
                    "duration": 0.34090912499999604
                },
                {
                    "name": "C5",
                    "midi": 72,
                    "time": 162.72728899999888,
                    "velocity": 0.7874015748031497,
                    "duration": 0.34090912499999604
                },
                {
                    "name": "D5",
                    "midi": 74,
                    "time": 163.18183449999887,
                    "velocity": 0.7874015748031497,
                    "duration": 0.34090912499999604
                },
                {
                    "name": "D#5",
                    "midi": 75,
                    "time": 163.63637999999887,
                    "velocity": 0.7874015748031497,
                    "duration": 0.34090912499999604
                },
                {
                    "name": "D5",
                    "midi": 74,
                    "time": 164.09092549999886,
                    "velocity": 0.7874015748031497,
                    "duration": 0.34090912499999604
                },
                {
                    "name": "D#5",
                    "midi": 75,
                    "time": 164.54547099999886,
                    "velocity": 0.7874015748031497,
                    "duration": 0.34090912499999604
                },
                {
                    "name": "F5",
                    "midi": 77,
                    "time": 165.00001649999885,
                    "velocity": 0.7874015748031497,
                    "duration": 0.34090912499999604
                },
                {
                    "name": "G5",
                    "midi": 79,
                    "time": 165.45456199999884,
                    "velocity": 0.7874015748031497,
                    "duration": 0.34090912499999604
                },
                {
                    "name": "C5",
                    "midi": 72,
                    "time": 165.90910749999884,
                    "velocity": 0.7874015748031497,
                    "duration": 0.34090912499999604
                },
                {
                    "name": "G5",
                    "midi": 79,
                    "time": 166.36365299999883,
                    "velocity": 0.7874015748031497,
                    "duration": 0.34090912499999604
                },
                {
                    "name": "C5",
                    "midi": 72,
                    "time": 166.81819849999883,
                    "velocity": 0.7874015748031497,
                    "duration": 0.34090912499999604
                },
                {
                    "name": "G#5",
                    "midi": 80,
                    "time": 167.27274399999882,
                    "velocity": 0.7874015748031497,
                    "duration": 0.34090912499999604
                },
                {
                    "name": "G#5",
                    "midi": 80,
                    "time": 167.72728949999882,
                    "velocity": 0.7874015748031497,
                    "duration": 0.1742424416666779
                },
                {
                    "name": "G5",
                    "midi": 79,
                    "time": 167.95456224999882,
                    "velocity": 0.7874015748031497,
                    "duration": 0.1742424416666779
                },
                {
                    "name": "F5",
                    "midi": 77,
                    "time": 168.1818349999988,
                    "velocity": 0.7874015748031497,
                    "duration": 0.34090912499999604
                },
                {
                    "name": "D#5",
                    "midi": 75,
                    "time": 168.6363804999988,
                    "velocity": 0.7874015748031497,
                    "duration": 0.34090912499999604
                },
                {
                    "name": "D5",
                    "midi": 74,
                    "time": 169.0909259999988,
                    "velocity": 0.7874015748031497,
                    "duration": 0.34090912499999604
                },
                {
                    "name": "F5",
                    "midi": 77,
                    "time": 169.5454714999988,
                    "velocity": 0.7874015748031497,
                    "duration": 0.34090912499999604
                },
                {
                    "name": "A#5",
                    "midi": 82,
                    "time": 170.0000169999988,
                    "velocity": 0.7874015748031497,
                    "duration": 0.34090912499999604
                },
                {
                    "name": "F5",
                    "midi": 77,
                    "time": 170.4545624999988,
                    "velocity": 0.7874015748031497,
                    "duration": 0.34090912499999604
                },
                {
                    "name": "A#5",
                    "midi": 82,
                    "time": 170.90910799999878,
                    "velocity": 0.7874015748031497,
                    "duration": 0.34090912499999604
                },
                {
                    "name": "G#5",
                    "midi": 80,
                    "time": 171.36365349999878,
                    "velocity": 0.7874015748031497,
                    "duration": 0.34090912499999604
                },
                {
                    "name": "G5",
                    "midi": 79,
                    "time": 171.81819899999877,
                    "velocity": 0.7874015748031497,
                    "duration": 0.34090912499999604
                },
                {
                    "name": "F5",
                    "midi": 77,
                    "time": 172.27274449999877,
                    "velocity": 0.7874015748031497,
                    "duration": 0.34090912499999604
                },
                {
                    "name": "G5",
                    "midi": 79,
                    "time": 172.72728999999876,
                    "velocity": 0.7874015748031497,
                    "duration": 0.34090912499999604
                },
                {
                    "name": "A#4",
                    "midi": 70,
                    "time": 173.18183549999875,
                    "velocity": 0.7874015748031497,
                    "duration": 0.34090912499999604
                },
                {
                    "name": "D#5",
                    "midi": 75,
                    "time": 173.63638099999875,
                    "velocity": 0.7874015748031497,
                    "duration": 0.34090912499999604
                },
                {
                    "name": "A#4",
                    "midi": 70,
                    "time": 174.09092649999874,
                    "velocity": 0.7874015748031497,
                    "duration": 0.34090912499999604
                },
                {
                    "name": "D#5",
                    "midi": 75,
                    "time": 174.54547199999874,
                    "velocity": 0.7874015748031497,
                    "duration": 0.34090912499999604
                },
                {
                    "name": "D5",
                    "midi": 74,
                    "time": 175.00001749999873,
                    "velocity": 0.7874015748031497,
                    "duration": 0.34090912499999604
                },
                {
                    "name": "C5",
                    "midi": 72,
                    "time": 175.45456299999873,
                    "velocity": 0.7874015748031497,
                    "duration": 0.34090912499999604
                },
                {
                    "name": "A#4",
                    "midi": 70,
                    "time": 175.90910849999872,
                    "velocity": 0.7874015748031497,
                    "duration": 0.34090912499999604
                },
                {
                    "name": "C5",
                    "midi": 72,
                    "time": 176.36365399999872,
                    "velocity": 0.7874015748031497,
                    "duration": 0.34090912499999604
                },
                {
                    "name": "C5",
                    "midi": 72,
                    "time": 176.8181994999987,
                    "velocity": 0.7874015748031497,
                    "duration": 0.34090912499999604
                },
                {
                    "name": "F5",
                    "midi": 77,
                    "time": 177.2727449999987,
                    "velocity": 0.7874015748031497,
                    "duration": 0.34090912499999604
                },
                {
                    "name": "C5",
                    "midi": 72,
                    "time": 177.7272904999987,
                    "velocity": 0.7874015748031497,
                    "duration": 0.34090912499999604
                },
                {
                    "name": "F5",
                    "midi": 77,
                    "time": 178.1818359999987,
                    "velocity": 0.7874015748031497,
                    "duration": 0.34090912499999604
                },
                {
                    "name": "G#5",
                    "midi": 80,
                    "time": 178.6363814999987,
                    "velocity": 0.7874015748031497,
                    "duration": 0.34090912499999604
                },
                {
                    "name": "F5",
                    "midi": 77,
                    "time": 179.0909269999987,
                    "velocity": 0.7874015748031497,
                    "duration": 0.34090912499999604
                },
                {
                    "name": "G#5",
                    "midi": 80,
                    "time": 179.54547249999868,
                    "velocity": 0.7874015748031497,
                    "duration": 0.34090912499999604
                },
                {
                    "name": "F5",
                    "midi": 77,
                    "time": 180.00001799999868,
                    "velocity": 0.7874015748031497,
                    "duration": 0.34090912499999604
                },
                {
                    "name": "G#5",
                    "midi": 80,
                    "time": 180.45456349999867,
                    "velocity": 0.7874015748031497,
                    "duration": 0.34090912499999604
                },
                {
                    "name": "F5",
                    "midi": 77,
                    "time": 180.90910899999867,
                    "velocity": 0.7874015748031497,
                    "duration": 0.34090912499999604
                },
                {
                    "name": "G#5",
                    "midi": 80,
                    "time": 181.36365449999866,
                    "velocity": 0.7874015748031497,
                    "duration": 0.34090912499999604
                },
                {
                    "name": "D5",
                    "midi": 74,
                    "time": 181.81819999999865,
                    "velocity": 0.7874015748031497,
                    "duration": 0.34090912499999604
                },
                {
                    "name": "G5",
                    "midi": 79,
                    "time": 182.27274549999865,
                    "velocity": 0.7874015748031497,
                    "duration": 0.34090912499999604
                },
                {
                    "name": "D5",
                    "midi": 74,
                    "time": 182.72729099999864,
                    "velocity": 0.7874015748031497,
                    "duration": 0.34090912499999604
                },
                {
                    "name": "G5",
                    "midi": 79,
                    "time": 183.18183649999864,
                    "velocity": 0.7874015748031497,
                    "duration": 0.34090912499999604
                },
                {
                    "name": "C5",
                    "midi": 72,
                    "time": 183.63638199999863,
                    "velocity": 0.7874015748031497,
                    "duration": 0.34090912499999604
                },
                {
                    "name": "F5",
                    "midi": 77,
                    "time": 184.09092749999863,
                    "velocity": 0.7874015748031497,
                    "duration": 0.34090912499999604
                },
                {
                    "name": "C5",
                    "midi": 72,
                    "time": 184.54547299999862,
                    "velocity": 0.7874015748031497,
                    "duration": 0.34090912499999604
                },
                {
                    "name": "F5",
                    "midi": 77,
                    "time": 185.00001849999862,
                    "velocity": 0.7874015748031497,
                    "duration": 0.34090912499999604
                },
                {
                    "name": "A#4",
                    "midi": 70,
                    "time": 185.4545639999986,
                    "velocity": 0.7874015748031497,
                    "duration": 0.34090912499999604
                },
                {
                    "name": "D#5",
                    "midi": 75,
                    "time": 185.9091094999986,
                    "velocity": 0.7874015748031497,
                    "duration": 0.34090912499999604
                },
                {
                    "name": "A#4",
                    "midi": 70,
                    "time": 186.3636549999986,
                    "velocity": 0.7874015748031497,
                    "duration": 0.34090912499999604
                },
                {
                    "name": "D#5",
                    "midi": 75,
                    "time": 186.8182004999986,
                    "velocity": 0.7874015748031497,
                    "duration": 0.34090912499999604
                },
                {
                    "name": "G#4",
                    "midi": 68,
                    "time": 187.2727459999986,
                    "velocity": 0.7874015748031497,
                    "duration": 0.34090912499999604
                },
                {
                    "name": "D5",
                    "midi": 74,
                    "time": 187.72729149999859,
                    "velocity": 0.7874015748031497,
                    "duration": 0.34090912499999604
                },
                {
                    "name": "G#4",
                    "midi": 68,
                    "time": 188.18183699999858,
                    "velocity": 0.7874015748031497,
                    "duration": 0.34090912499999604
                },
                {
                    "name": "D5",
                    "midi": 74,
                    "time": 188.63638249999858,
                    "velocity": 0.7874015748031497,
                    "duration": 0.34090912499999604
                },
                {
                    "name": "G4",
                    "midi": 67,
                    "time": 189.09092799999857,
                    "velocity": 0.7874015748031497,
                    "duration": 0.34090912499999604
                },
                {
                    "name": "G5",
                    "midi": 79,
                    "time": 189.54547349999856,
                    "velocity": 0.7874015748031497,
                    "duration": 0.34090912499999604
                },
                {
                    "name": "C5",
                    "midi": 72,
                    "time": 190.00001899999856,
                    "velocity": 0.7874015748031497,
                    "duration": 0.34090912499999604
                },
                {
                    "name": "G5",
                    "midi": 79,
                    "time": 190.45456449999855,
                    "velocity": 0.7874015748031497,
                    "duration": 0.34090912499999604
                },
                {
                    "name": "B4",
                    "midi": 71,
                    "time": 190.90910999999855,
                    "velocity": 0.7874015748031497,
                    "duration": 0.34090912499999604
                },
                {
                    "name": "F5",
                    "midi": 77,
                    "time": 191.36365549999854,
                    "velocity": 0.7874015748031497,
                    "duration": 0.34090912499999604
                },
                {
                    "name": "B4",
                    "midi": 71,
                    "time": 191.81820099999854,
                    "velocity": 0.7874015748031497,
                    "duration": 0.34090912499999604
                },
                {
                    "name": "F5",
                    "midi": 77,
                    "time": 192.27274649999853,
                    "velocity": 0.7874015748031497,
                    "duration": 0.34090912499999604
                },
                {
                    "name": "D#5",
                    "midi": 75,
                    "time": 192.72729199999853,
                    "velocity": 0.7874015748031497,
                    "duration": 0.34090912499999604
                },
                {
                    "name": "G#5",
                    "midi": 80,
                    "time": 193.18183749999852,
                    "velocity": 0.7874015748031497,
                    "duration": 0.34090912499999604
                },
                {
                    "name": "D#5",
                    "midi": 75,
                    "time": 193.63638299999852,
                    "velocity": 0.7874015748031497,
                    "duration": 0.34090912499999604
                },
                {
                    "name": "G#5",
                    "midi": 80,
                    "time": 194.0909284999985,
                    "velocity": 0.7874015748031497,
                    "duration": 0.34090912499999604
                },
                {
                    "name": "F5",
                    "midi": 77,
                    "time": 194.5454739999985,
                    "velocity": 0.7874015748031497,
                    "duration": 0.34090912499999604
                },
                {
                    "name": "A#5",
                    "midi": 82,
                    "time": 195.0000194999985,
                    "velocity": 0.7874015748031497,
                    "duration": 0.34090912499999604
                },
                {
                    "name": "F5",
                    "midi": 77,
                    "time": 195.4545649999985,
                    "velocity": 0.7874015748031497,
                    "duration": 0.34090912499999604
                },
                {
                    "name": "A#5",
                    "midi": 82,
                    "time": 195.9091104999985,
                    "velocity": 0.7874015748031497,
                    "duration": 0.34090912499999604
                },
                {
                    "name": "G5",
                    "midi": 79,
                    "time": 196.36365599999849,
                    "velocity": 0.7874015748031497,
                    "duration": 0.34090912499999604
                },
                {
                    "name": "C5",
                    "midi": 72,
                    "time": 196.81820149999848,
                    "velocity": 0.7874015748031497,
                    "duration": 0.34090912499999604
                },
                {
                    "name": "G4",
                    "midi": 67,
                    "time": 197.27274699999847,
                    "velocity": 0.7874015748031497,
                    "duration": 0.34090912499999604
                },
                {
                    "name": "C5",
                    "midi": 72,
                    "time": 197.72729249999847,
                    "velocity": 0.7874015748031497,
                    "duration": 0.34090912499999604
                },
                {
                    "name": "A4",
                    "midi": 69,
                    "time": 198.18183799999846,
                    "velocity": 0.7874015748031497,
                    "duration": 0.34090912499999604
                },
                {
                    "name": "D5",
                    "midi": 74,
                    "time": 198.63638349999846,
                    "velocity": 0.7874015748031497,
                    "duration": 0.34090912499999604
                },
                {
                    "name": "A4",
                    "midi": 69,
                    "time": 199.09092899999845,
                    "velocity": 0.7874015748031497,
                    "duration": 0.34090912499999604
                },
                {
                    "name": "D5",
                    "midi": 74,
                    "time": 199.54547449999845,
                    "velocity": 0.7874015748031497,
                    "duration": 0.34090912499999604
                },
                {
                    "name": "G4",
                    "midi": 67,
                    "time": 200.00001999999844,
                    "velocity": 0.7874015748031497,
                    "duration": 0.34090912499999604
                },
                {
                    "name": "C5",
                    "midi": 72,
                    "time": 200.45456549999844,
                    "velocity": 0.7874015748031497,
                    "duration": 0.34090912499999604
                },
                {
                    "name": "G4",
                    "midi": 67,
                    "time": 200.90911099999843,
                    "velocity": 0.7874015748031497,
                    "duration": 0.34090912499999604
                },
                {
                    "name": "C5",
                    "midi": 72,
                    "time": 201.36365649999843,
                    "velocity": 0.7874015748031497,
                    "duration": 0.34090912499999604
                },
                {
                    "name": "F#4",
                    "midi": 66,
                    "time": 201.81820199999842,
                    "velocity": 0.7874015748031497,
                    "duration": 0.34090912499999604
                },
                {
                    "name": "A#4",
                    "midi": 70,
                    "time": 202.27274749999842,
                    "velocity": 0.7874015748031497,
                    "duration": 0.34090912499999604
                },
                {
                    "name": "F#4",
                    "midi": 66,
                    "time": 202.7272929999984,
                    "velocity": 0.7874015748031497,
                    "duration": 0.34090912499999604
                },
                {
                    "name": "A#4",
                    "midi": 70,
                    "time": 203.1818384999984,
                    "velocity": 0.7874015748031497,
                    "duration": 0.34090912499999604
                },
                {
                    "name": "G4",
                    "midi": 67,
                    "time": 203.6363839999984,
                    "velocity": 0.7874015748031497,
                    "duration": 0.34090912499999604
                },
                {
                    "name": "C5",
                    "midi": 72,
                    "time": 204.0909294999984,
                    "velocity": 0.7874015748031497,
                    "duration": 0.34090912499999604
                },
                {
                    "name": "G4",
                    "midi": 67,
                    "time": 204.5454749999984,
                    "velocity": 0.7874015748031497,
                    "duration": 0.34090912499999604
                },
                {
                    "name": "C5",
                    "midi": 72,
                    "time": 205.00002049999839,
                    "velocity": 0.7874015748031497,
                    "duration": 0.34090912499999604
                },
                {
                    "name": "A4",
                    "midi": 69,
                    "time": 205.45456599999838,
                    "velocity": 0.7874015748031497,
                    "duration": 0.34090912499999604
                },
                {
                    "name": "D5",
                    "midi": 74,
                    "time": 205.90911149999837,
                    "velocity": 0.7874015748031497,
                    "duration": 0.34090912499999604
                },
                {
                    "name": "A4",
                    "midi": 69,
                    "time": 206.36365699999837,
                    "velocity": 0.7874015748031497,
                    "duration": 0.34090912499999604
                },
                {
                    "name": "D5",
                    "midi": 74,
                    "time": 206.81820249999836,
                    "velocity": 0.7874015748031497,
                    "duration": 0.34090912499999604
                },
                {
                    "name": "A#4",
                    "midi": 70,
                    "time": 207.27274799999836,
                    "velocity": 0.7874015748031497,
                    "duration": 0.34090912499999604
                },
                {
                    "name": "D#5",
                    "midi": 75,
                    "time": 207.72729349999835,
                    "velocity": 0.7874015748031497,
                    "duration": 0.34090912499999604
                },
                {
                    "name": "A#4",
                    "midi": 70,
                    "time": 208.18183899999835,
                    "velocity": 0.7874015748031497,
                    "duration": 0.34090912499999604
                },
                {
                    "name": "D#5",
                    "midi": 75,
                    "time": 208.63638449999834,
                    "velocity": 0.7874015748031497,
                    "duration": 0.34090912499999604
                },
                {
                    "name": "C5",
                    "midi": 72,
                    "time": 209.09092999999834,
                    "velocity": 0.7874015748031497,
                    "duration": 0.34090912499999604
                },
                {
                    "name": "F5",
                    "midi": 77,
                    "time": 209.54547549999833,
                    "velocity": 0.7874015748031497,
                    "duration": 0.34090912499999604
                },
                {
                    "name": "C5",
                    "midi": 72,
                    "time": 210.00002099999833,
                    "velocity": 0.7874015748031497,
                    "duration": 0.34090912499999604
                },
                {
                    "name": "F5",
                    "midi": 77,
                    "time": 210.45456649999832,
                    "velocity": 0.7874015748031497,
                    "duration": 0.34090912499999604
                },
                {
                    "name": "D5",
                    "midi": 74,
                    "time": 210.90911199999832,
                    "velocity": 0.7874015748031497,
                    "duration": 0.34090912499999604
                },
                {
                    "name": "G5",
                    "midi": 79,
                    "time": 211.3636574999983,
                    "velocity": 0.7874015748031497,
                    "duration": 0.34090912499999604
                },
                {
                    "name": "D5",
                    "midi": 74,
                    "time": 211.8182029999983,
                    "velocity": 0.7874015748031497,
                    "duration": 0.34090912499999604
                },
                {
                    "name": "G5",
                    "midi": 79,
                    "time": 212.2727484999983,
                    "velocity": 0.7874015748031497,
                    "duration": 0.34090912499999604
                },
                {
                    "name": "D#5",
                    "midi": 75,
                    "time": 212.7272939999983,
                    "velocity": 0.7874015748031497,
                    "duration": 0.34090912499999604
                },
                {
                    "name": "G#5",
                    "midi": 80,
                    "time": 213.1818394999983,
                    "velocity": 0.7874015748031497,
                    "duration": 0.34090912499999604
                },
                {
                    "name": "D#5",
                    "midi": 75,
                    "time": 213.63638499999828,
                    "velocity": 0.7874015748031497,
                    "duration": 0.34090912499999604
                },
                {
                    "name": "G#5",
                    "midi": 80,
                    "time": 214.09093049999828,
                    "velocity": 0.7874015748031497,
                    "duration": 0.34090912499999604
                },
                {
                    "name": "F5",
                    "midi": 77,
                    "time": 214.54547599999827,
                    "velocity": 0.7874015748031497,
                    "duration": 0.34090912499999604
                },
                {
                    "name": "A#5",
                    "midi": 82,
                    "time": 215.00002149999827,
                    "velocity": 0.7874015748031497,
                    "duration": 0.34090912499999604
                },
                {
                    "name": "F5",
                    "midi": 77,
                    "time": 215.45456699999826,
                    "velocity": 0.7874015748031497,
                    "duration": 0.34090912499999604
                },
                {
                    "name": "A#5",
                    "midi": 82,
                    "time": 215.90911249999826,
                    "velocity": 0.7874015748031497,
                    "duration": 0.34090912499999604
                },
                {
                    "name": "G5",
                    "midi": 79,
                    "time": 216.36365799999825,
                    "velocity": 0.7874015748031497,
                    "duration": 0.34090912499999604
                },
                {
                    "name": "G5",
                    "midi": 79,
                    "time": 216.81820349999825,
                    "velocity": 0.7874015748031497,
                    "duration": 0.34090912499999604
                },
                {
                    "name": "C6",
                    "midi": 84,
                    "time": 217.27274899999824,
                    "velocity": 0.7874015748031497,
                    "duration": 0.34090912499999604
                },
                {
                    "name": "A#5",
                    "midi": 82,
                    "time": 217.72729449999824,
                    "velocity": 0.7874015748031497,
                    "duration": 0.34090912499999604
                },
                {
                    "name": "G#5",
                    "midi": 80,
                    "time": 218.18183999999823,
                    "velocity": 0.7874015748031497,
                    "duration": 0.34090912499999604
                },
                {
                    "name": "G5",
                    "midi": 79,
                    "time": 218.63638549999823,
                    "velocity": 0.7874015748031497,
                    "duration": 0.34090912499999604
                },
                {
                    "name": "F5",
                    "midi": 77,
                    "time": 219.09093099999822,
                    "velocity": 0.7874015748031497,
                    "duration": 0.34090912499999604
                },
                {
                    "name": "D#5",
                    "midi": 75,
                    "time": 219.54547649999822,
                    "velocity": 0.7874015748031497,
                    "duration": 0.34090912499999604
                },
                {
                    "name": "D5",
                    "midi": 74,
                    "time": 220.0000219999982,
                    "velocity": 0.7874015748031497,
                    "duration": 0.34090912499999604
                },
                {
                    "name": "D5",
                    "midi": 74,
                    "time": 220.4545674999982,
                    "velocity": 0.7874015748031497,
                    "duration": 0.34090912499999604
                },
                {
                    "name": "G5",
                    "midi": 79,
                    "time": 220.9091129999982,
                    "velocity": 0.7874015748031497,
                    "duration": 0.34090912499999604
                },
                {
                    "name": "F5",
                    "midi": 77,
                    "time": 221.3636584999982,
                    "velocity": 0.7874015748031497,
                    "duration": 0.34090912499999604
                },
                {
                    "name": "D#5",
                    "midi": 75,
                    "time": 221.8182039999982,
                    "velocity": 0.7874015748031497,
                    "duration": 0.34090912499999604
                },
                {
                    "name": "D5",
                    "midi": 74,
                    "time": 222.27274949999818,
                    "velocity": 0.7874015748031497,
                    "duration": 0.34090912499999604
                },
                {
                    "name": "C5",
                    "midi": 72,
                    "time": 222.72729499999818,
                    "velocity": 0.7874015748031497,
                    "duration": 0.34090912499999604
                },
                {
                    "name": "D5",
                    "midi": 74,
                    "time": 223.18184049999817,
                    "velocity": 0.7874015748031497,
                    "duration": 0.34090912499999604
                },
                {
                    "name": "D#5",
                    "midi": 75,
                    "time": 223.63638599999817,
                    "velocity": 0.7874015748031497,
                    "duration": 0.6818182499999921
                },
                {
                    "name": "D5",
                    "midi": 74,
                    "time": 224.54547699999816,
                    "velocity": 0.7874015748031497,
                    "duration": 0.6818182499999921
                },
                {
                    "name": "C5",
                    "midi": 72,
                    "time": 225.45456799999815,
                    "velocity": 0.7874015748031497,
                    "duration": 3.636363999999986
                }
            ],
            "controlChanges": {
                "7": [
                    {
                        "number": 7,
                        "time": 0,
                        "value": 0.7874015748031497
                    }
                ],
                "10": [
                    {
                        "number": 10,
                        "time": 0,
                        "value": 0.1968503937007874
                    }
                ]
            },
            "id": 1,
            "name": "Violin 1",
            "instrumentNumber": 48,
            "instrument": "string ensemble 1",
            "instrumentFamily": "ensemble",
            "channelNumber": 0,
            "isPercussion": false
        },
        {
            "startTime": 0,
            "duration": 229.09093199999825,
            "length": 428,
            "notes": [
                {
                    "name": "D#5",
                    "midi": 75,
                    "time": 0,
                    "velocity": 0.7874015748031497,
                    "duration": 1.3636365
                },
                {
                    "name": "D#5",
                    "midi": 75,
                    "time": 1.3636365,
                    "velocity": 0.7874015748031497,
                    "duration": 0.45454550000000005
                },
                {
                    "name": "D#5",
                    "midi": 75,
                    "time": 1.818182,
                    "velocity": 0.7874015748031497,
                    "duration": 0.9090909999999999
                },
                {
                    "name": "D5",
                    "midi": 74,
                    "time": 2.727273,
                    "velocity": 0.7874015748031497,
                    "duration": 1.3636364999999997
                },
                {
                    "name": "D5",
                    "midi": 74,
                    "time": 4.0909094999999995,
                    "velocity": 0.7874015748031497,
                    "duration": 0.45454550000000005
                },
                {
                    "name": "C5",
                    "midi": 72,
                    "time": 4.545455,
                    "velocity": 0.7874015748031497,
                    "duration": 0.9090910000000001
                },
                {
                    "name": "A#4",
                    "midi": 70,
                    "time": 5.454546,
                    "velocity": 0.7874015748031497,
                    "duration": 1.3636365000000001
                },
                {
                    "name": "A#4",
                    "midi": 70,
                    "time": 6.8181825,
                    "velocity": 0.7874015748031497,
                    "duration": 0.45454550000000005
                },
                {
                    "name": "G#4",
                    "midi": 68,
                    "time": 7.272728,
                    "velocity": 0.7874015748031497,
                    "duration": 1.3636364999999993
                },
                {
                    "name": "G#4",
                    "midi": 68,
                    "time": 8.636364499999999,
                    "velocity": 0.7874015748031497,
                    "duration": 0.45454550000000005
                },
                {
                    "name": "G4",
                    "midi": 67,
                    "time": 9.09091,
                    "velocity": 0.7874015748031497,
                    "duration": 0.9090910000000001
                },
                {
                    "name": "C5",
                    "midi": 72,
                    "time": 10.000001,
                    "velocity": 0.7874015748031497,
                    "duration": 0.9090910000000001
                },
                {
                    "name": "D5",
                    "midi": 74,
                    "time": 10.909092,
                    "velocity": 0.7874015748031497,
                    "duration": 1.3636365000000001
                },
                {
                    "name": "D5",
                    "midi": 74,
                    "time": 12.2727285,
                    "velocity": 0.7874015748031497,
                    "duration": 0.45454550000000005
                },
                {
                    "name": "C5",
                    "midi": 72,
                    "time": 12.727274,
                    "velocity": 0.7874015748031497,
                    "duration": 0.45454550000000005
                },
                {
                    "name": "D5",
                    "midi": 74,
                    "time": 13.1818195,
                    "velocity": 0.7874015748031497,
                    "duration": 0.45454550000000005
                },
                {
                    "name": "D#5",
                    "midi": 75,
                    "time": 13.636365,
                    "velocity": 0.7874015748031497,
                    "duration": 1.3636365000000001
                },
                {
                    "name": "D#5",
                    "midi": 75,
                    "time": 15.0000015,
                    "velocity": 0.7874015748031497,
                    "duration": 0.45454550000000005
                },
                {
                    "name": "D5",
                    "midi": 74,
                    "time": 15.454547,
                    "velocity": 0.7874015748031497,
                    "duration": 0.9090909999999983
                },
                {
                    "name": "C5",
                    "midi": 72,
                    "time": 16.363637999999998,
                    "velocity": 0.7874015748031497,
                    "duration": 1.8181820000000002
                },
                {
                    "name": "A#4",
                    "midi": 70,
                    "time": 18.18182,
                    "velocity": 0.7874015748031497,
                    "duration": 1.3636364999999984
                },
                {
                    "name": "C5",
                    "midi": 72,
                    "time": 19.545456499999997,
                    "velocity": 0.7874015748031497,
                    "duration": 0.45454549999999827
                },
                {
                    "name": "D5",
                    "midi": 74,
                    "time": 20.000001999999995,
                    "velocity": 0.7874015748031497,
                    "duration": 1.3636364999999984
                },
                {
                    "name": "D5",
                    "midi": 74,
                    "time": 21.363638499999993,
                    "velocity": 0.7874015748031497,
                    "duration": 0.45454549999999827
                },
                {
                    "name": "D5",
                    "midi": 74,
                    "time": 21.81818399999999,
                    "velocity": 0.7874015748031497,
                    "duration": 0.9090910000000001
                },
                {
                    "name": "D#5",
                    "midi": 75,
                    "time": 22.72727499999999,
                    "velocity": 0.7874015748031497,
                    "duration": 0.6818182499999992
                },
                {
                    "name": "D5",
                    "midi": 74,
                    "time": 23.40909324999999,
                    "velocity": 0.7874015748031497,
                    "duration": 0.2272727500000009
                },
                {
                    "name": "C5",
                    "midi": 72,
                    "time": 23.63636599999999,
                    "velocity": 0.7874015748031497,
                    "duration": 2.7272730000000003
                },
                {
                    "name": "C5",
                    "midi": 72,
                    "time": 26.363638999999992,
                    "velocity": 0.7874015748031497,
                    "duration": 0.9090910000000001
                },
                {
                    "name": "C5",
                    "midi": 72,
                    "time": 27.272729999999992,
                    "velocity": 0.7874015748031497,
                    "duration": 1.3636364999999984
                },
                {
                    "name": "C5",
                    "midi": 72,
                    "time": 28.63636649999999,
                    "velocity": 0.7874015748031497,
                    "duration": 0.45454549999999827
                },
                {
                    "name": "C5",
                    "midi": 72,
                    "time": 29.09091199999999,
                    "velocity": 0.7874015748031497,
                    "duration": 0.9090910000000001
                },
                {
                    "name": "A#4",
                    "midi": 70,
                    "time": 30.00000299999999,
                    "velocity": 0.7874015748031497,
                    "duration": 0.9090910000000001
                },
                {
                    "name": "A#4",
                    "midi": 70,
                    "time": 30.90909399999999,
                    "velocity": 0.7874015748031497,
                    "duration": 0.6818182499999992
                },
                {
                    "name": "A#4",
                    "midi": 70,
                    "time": 31.590912249999988,
                    "velocity": 0.7874015748031497,
                    "duration": 0.2272727500000009
                },
                {
                    "name": "A4",
                    "midi": 69,
                    "time": 31.81818499999999,
                    "velocity": 0.7874015748031497,
                    "duration": 0.6818182500000027
                },
                {
                    "name": "A#4",
                    "midi": 70,
                    "time": 32.50000324999999,
                    "velocity": 0.7874015748031497,
                    "duration": 0.22727274999999736
                },
                {
                    "name": "G4",
                    "midi": 67,
                    "time": 32.72727599999999,
                    "velocity": 0.7874015748031497,
                    "duration": 1.8181820000000002
                },
                {
                    "name": "G4",
                    "midi": 67,
                    "time": 34.54545799999999,
                    "velocity": 0.7874015748031497,
                    "duration": 0.6818182499999992
                },
                {
                    "name": "G4",
                    "midi": 67,
                    "time": 35.22727624999999,
                    "velocity": 0.7874015748031497,
                    "duration": 0.22727274999999736
                },
                {
                    "name": "G#4",
                    "midi": 68,
                    "time": 35.454548999999986,
                    "velocity": 0.7874015748031497,
                    "duration": 0.6818182499999992
                },
                {
                    "name": "G4",
                    "midi": 67,
                    "time": 36.136367249999985,
                    "velocity": 0.7874015748031497,
                    "duration": 0.22727274999999736
                },
                {
                    "name": "C5",
                    "midi": 72,
                    "time": 36.36363999999998,
                    "velocity": 0.7874015748031497,
                    "duration": 0.9090909999999965
                },
                {
                    "name": "A#4",
                    "midi": 70,
                    "time": 37.27273099999998,
                    "velocity": 0.7874015748031497,
                    "duration": 0.9090909999999965
                },
                {
                    "name": "A4",
                    "midi": 69,
                    "time": 38.181821999999976,
                    "velocity": 0.7874015748031497,
                    "duration": 0.9090909999999965
                },
                {
                    "name": "G#4",
                    "midi": 68,
                    "time": 39.09091299999997,
                    "velocity": 0.7874015748031497,
                    "duration": 0.9090909999999965
                },
                {
                    "name": "G4",
                    "midi": 67,
                    "time": 40.00000399999997,
                    "velocity": 0.7874015748031497,
                    "duration": 0.9090909999999965
                },
                {
                    "name": "C5",
                    "midi": 72,
                    "time": 40.909094999999965,
                    "velocity": 0.7874015748031497,
                    "duration": 1.8181820000000002
                },
                {
                    "name": "B4",
                    "midi": 71,
                    "time": 42.727276999999965,
                    "velocity": 0.7874015748031497,
                    "duration": 0.9090909999999965
                },
                {
                    "name": "C5",
                    "midi": 72,
                    "time": 43.63636799999996,
                    "velocity": 0.7874015748031497,
                    "duration": 0.6818182499999992
                },
                {
                    "name": "G4",
                    "midi": 67,
                    "time": 47.727277499999964,
                    "velocity": 0.7874015748031497,
                    "duration": 0.34090912500000314
                },
                {
                    "name": "C5",
                    "midi": 72,
                    "time": 48.181822999999966,
                    "velocity": 0.7874015748031497,
                    "duration": 0.34090912500000314
                },
                {
                    "name": "G4",
                    "midi": 67,
                    "time": 48.63636849999997,
                    "velocity": 0.7874015748031497,
                    "duration": 0.34090912500000314
                },
                {
                    "name": "C5",
                    "midi": 72,
                    "time": 49.09091399999997,
                    "velocity": 0.7874015748031497,
                    "duration": 0.34090912500000314
                },
                {
                    "name": "D#5",
                    "midi": 75,
                    "time": 49.54545949999997,
                    "velocity": 0.7874015748031497,
                    "duration": 0.34090912500000314
                },
                {
                    "name": "C5",
                    "midi": 72,
                    "time": 50.00000499999997,
                    "velocity": 0.7874015748031497,
                    "duration": 0.34090912500000314
                },
                {
                    "name": "D#5",
                    "midi": 75,
                    "time": 50.454550499999975,
                    "velocity": 0.7874015748031497,
                    "duration": 0.34090912500000314
                },
                {
                    "name": "D5",
                    "midi": 74,
                    "time": 50.90909599999998,
                    "velocity": 0.7874015748031497,
                    "duration": 0.34090912500000314
                },
                {
                    "name": "C5",
                    "midi": 72,
                    "time": 51.36364149999998,
                    "velocity": 0.7874015748031497,
                    "duration": 0.34090912500000314
                },
                {
                    "name": "D5",
                    "midi": 74,
                    "time": 51.81818699999998,
                    "velocity": 0.7874015748031497,
                    "duration": 0.34090912500000314
                },
                {
                    "name": "B4",
                    "midi": 71,
                    "time": 52.27273249999998,
                    "velocity": 0.7874015748031497,
                    "duration": 0.34090912500000314
                },
                {
                    "name": "C5",
                    "midi": 72,
                    "time": 52.727277999999984,
                    "velocity": 0.7874015748031497,
                    "duration": 0.34090912500000314
                },
                {
                    "name": "B4",
                    "midi": 71,
                    "time": 53.181823499999986,
                    "velocity": 0.7874015748031497,
                    "duration": 0.34090912500000314
                },
                {
                    "name": "C5",
                    "midi": 72,
                    "time": 53.63636899999999,
                    "velocity": 0.7874015748031497,
                    "duration": 0.34090912500000314
                },
                {
                    "name": "A4",
                    "midi": 69,
                    "time": 54.09091449999999,
                    "velocity": 0.7874015748031497,
                    "duration": 0.34090912500000314
                },
                {
                    "name": "A#4",
                    "midi": 70,
                    "time": 54.54545999999999,
                    "velocity": 0.7874015748031497,
                    "duration": 0.34090912500000314
                },
                {
                    "name": "A#4",
                    "midi": 70,
                    "time": 55.00000549999999,
                    "velocity": 0.7874015748031497,
                    "duration": 0.34090912500000314
                },
                {
                    "name": "G4",
                    "midi": 67,
                    "time": 55.454550999999995,
                    "velocity": 0.7874015748031497,
                    "duration": 0.34090912500000314
                },
                {
                    "name": "A#4",
                    "midi": 70,
                    "time": 55.9090965,
                    "velocity": 0.7874015748031497,
                    "duration": 0.34090912500000314
                },
                {
                    "name": "G4",
                    "midi": 67,
                    "time": 56.363642,
                    "velocity": 0.7874015748031497,
                    "duration": 0.34090912500000314
                },
                {
                    "name": "F#4",
                    "midi": 66,
                    "time": 56.8181875,
                    "velocity": 0.7874015748031497,
                    "duration": 0.34090912500000314
                },
                {
                    "name": "A#4",
                    "midi": 70,
                    "time": 57.272733,
                    "velocity": 0.7874015748031497,
                    "duration": 0.34090912500000314
                },
                {
                    "name": "D5",
                    "midi": 74,
                    "time": 57.727278500000004,
                    "velocity": 0.7874015748031497,
                    "duration": 0.34090912500000314
                },
                {
                    "name": "A#4",
                    "midi": 70,
                    "time": 58.181824000000006,
                    "velocity": 0.7874015748031497,
                    "duration": 0.34090912500000314
                },
                {
                    "name": "D5",
                    "midi": 74,
                    "time": 58.63636950000001,
                    "velocity": 0.7874015748031497,
                    "duration": 0.34090912500000314
                },
                {
                    "name": "A#4",
                    "midi": 70,
                    "time": 59.09091500000001,
                    "velocity": 0.7874015748031497,
                    "duration": 0.34090912500000314
                },
                {
                    "name": "D5",
                    "midi": 74,
                    "time": 59.54546050000001,
                    "velocity": 0.7874015748031497,
                    "duration": 0.34090912500000314
                },
                {
                    "name": "A#4",
                    "midi": 70,
                    "time": 60.00000600000001,
                    "velocity": 0.7874015748031497,
                    "duration": 0.34090912500000314
                },
                {
                    "name": "D5",
                    "midi": 74,
                    "time": 60.454551500000015,
                    "velocity": 0.7874015748031497,
                    "duration": 0.34090912500000314
                },
                {
                    "name": "A#4",
                    "midi": 70,
                    "time": 60.90909700000002,
                    "velocity": 0.7874015748031497,
                    "duration": 0.34090912500000314
                },
                {
                    "name": "D5",
                    "midi": 74,
                    "time": 61.36364250000002,
                    "velocity": 0.7874015748031497,
                    "duration": 0.34090912500000314
                },
                {
                    "name": "A#4",
                    "midi": 70,
                    "time": 61.81818800000002,
                    "velocity": 0.7874015748031497,
                    "duration": 0.34090912500000314
                },
                {
                    "name": "D5",
                    "midi": 74,
                    "time": 62.27273350000002,
                    "velocity": 0.7874015748031497,
                    "duration": 0.34090912500000314
                },
                {
                    "name": "C5",
                    "midi": 72,
                    "time": 62.727279000000024,
                    "velocity": 0.7874015748031497,
                    "duration": 0.34090912500000314
                },
                {
                    "name": "B4",
                    "midi": 71,
                    "time": 63.181824500000026,
                    "velocity": 0.7874015748031497,
                    "duration": 0.34090912500000314
                },
                {
                    "name": "C5",
                    "midi": 72,
                    "time": 63.63637000000003,
                    "velocity": 0.7874015748031497,
                    "duration": 0.34090912500000314
                },
                {
                    "name": "G4",
                    "midi": 67,
                    "time": 64.09091550000004,
                    "velocity": 0.7874015748031497,
                    "duration": 0.34090912499999604
                },
                {
                    "name": "C5",
                    "midi": 72,
                    "time": 64.54546100000003,
                    "velocity": 0.7874015748031497,
                    "duration": 0.34090912499999604
                },
                {
                    "name": "G4",
                    "midi": 67,
                    "time": 65.00000650000003,
                    "velocity": 0.7874015748031497,
                    "duration": 0.34090912499999604
                },
                {
                    "name": "C5",
                    "midi": 72,
                    "time": 65.45455200000002,
                    "velocity": 0.7874015748031497,
                    "duration": 0.34090912499999604
                },
                {
                    "name": "D#5",
                    "midi": 75,
                    "time": 65.90909750000002,
                    "velocity": 0.7874015748031497,
                    "duration": 0.34090912499999604
                },
                {
                    "name": "F5",
                    "midi": 77,
                    "time": 66.36364300000001,
                    "velocity": 0.7874015748031497,
                    "duration": 0.34090912499999604
                },
                {
                    "name": "D#5",
                    "midi": 75,
                    "time": 66.8181885,
                    "velocity": 0.7874015748031497,
                    "duration": 0.34090912499999604
                },
                {
                    "name": "D5",
                    "midi": 74,
                    "time": 67.272734,
                    "velocity": 0.7874015748031497,
                    "duration": 0.34090912499999604
                },
                {
                    "name": "C5",
                    "midi": 72,
                    "time": 67.7272795,
                    "velocity": 0.7874015748031497,
                    "duration": 0.34090912499999604
                },
                {
                    "name": "B4",
                    "midi": 71,
                    "time": 68.18182499999999,
                    "velocity": 0.7874015748031497,
                    "duration": 0.34090912499999604
                },
                {
                    "name": "C5",
                    "midi": 72,
                    "time": 68.63637049999998,
                    "velocity": 0.7874015748031497,
                    "duration": 0.34090912499999604
                },
                {
                    "name": "D5",
                    "midi": 74,
                    "time": 69.09091599999998,
                    "velocity": 0.7874015748031497,
                    "duration": 0.34090912499999604
                },
                {
                    "name": "B4",
                    "midi": 71,
                    "time": 69.54546149999997,
                    "velocity": 0.7874015748031497,
                    "duration": 0.34090912499999604
                },
                {
                    "name": "G4",
                    "midi": 67,
                    "time": 70.00000699999997,
                    "velocity": 0.7874015748031497,
                    "duration": 0.34090912499999604
                },
                {
                    "name": "B4",
                    "midi": 71,
                    "time": 70.45455249999996,
                    "velocity": 0.7874015748031497,
                    "duration": 0.34090912499999604
                },
                {
                    "name": "G4",
                    "midi": 67,
                    "time": 70.90909799999996,
                    "velocity": 0.7874015748031497,
                    "duration": 0.34090912499999604
                },
                {
                    "name": "G4",
                    "midi": 67,
                    "time": 71.36364349999995,
                    "velocity": 0.7874015748031497,
                    "duration": 0.34090912499999604
                },
                {
                    "name": "A4",
                    "midi": 69,
                    "time": 71.81818899999995,
                    "velocity": 0.7874015748031497,
                    "duration": 0.34090912499999604
                },
                {
                    "name": "B4",
                    "midi": 71,
                    "time": 72.27273449999994,
                    "velocity": 0.7874015748031497,
                    "duration": 0.34090912499999604
                },
                {
                    "name": "C5",
                    "midi": 72,
                    "time": 72.72727999999994,
                    "velocity": 0.7874015748031497,
                    "duration": 0.34090912499999604
                },
                {
                    "name": "B4",
                    "midi": 71,
                    "time": 73.18182549999993,
                    "velocity": 0.7874015748031497,
                    "duration": 0.34090912499999604
                },
                {
                    "name": "C5",
                    "midi": 72,
                    "time": 73.63637099999993,
                    "velocity": 0.7874015748031497,
                    "duration": 0.34090912499999604
                },
                {
                    "name": "D5",
                    "midi": 74,
                    "time": 74.09091649999992,
                    "velocity": 0.7874015748031497,
                    "duration": 0.34090912499999604
                },
                {
                    "name": "D#5",
                    "midi": 75,
                    "time": 74.54546199999992,
                    "velocity": 0.7874015748031497,
                    "duration": 0.34090912499999604
                },
                {
                    "name": "G5",
                    "midi": 79,
                    "time": 75.00000749999991,
                    "velocity": 0.7874015748031497,
                    "duration": 0.34090912499999604
                },
                {
                    "name": "D#5",
                    "midi": 75,
                    "time": 75.4545529999999,
                    "velocity": 0.7874015748031497,
                    "duration": 0.34090912499999604
                },
                {
                    "name": "G5",
                    "midi": 79,
                    "time": 75.9090984999999,
                    "velocity": 0.7874015748031497,
                    "duration": 0.34090912499999604
                },
                {
                    "name": "D#5",
                    "midi": 75,
                    "time": 76.3636439999999,
                    "velocity": 0.7874015748031497,
                    "duration": 0.34090912499999604
                },
                {
                    "name": "F5",
                    "midi": 77,
                    "time": 76.81818949999989,
                    "velocity": 0.7874015748031497,
                    "duration": 0.1742424416666637
                },
                {
                    "name": "D#5",
                    "midi": 75,
                    "time": 77.04546224999989,
                    "velocity": 0.7874015748031497,
                    "duration": 0.1742424416666637
                },
                {
                    "name": "D5",
                    "midi": 74,
                    "time": 77.27273499999988,
                    "velocity": 0.7874015748031497,
                    "duration": 0.34090912499999604
                },
                {
                    "name": "C5",
                    "midi": 72,
                    "time": 77.72728049999988,
                    "velocity": 0.7874015748031497,
                    "duration": 0.34090912499999604
                },
                {
                    "name": "A#4",
                    "midi": 70,
                    "time": 78.18182599999987,
                    "velocity": 0.7874015748031497,
                    "duration": 0.34090912499999604
                },
                {
                    "name": "A#4",
                    "midi": 70,
                    "time": 78.63637149999987,
                    "velocity": 0.7874015748031497,
                    "duration": 0.34090912499999604
                },
                {
                    "name": "D5",
                    "midi": 74,
                    "time": 79.09091699999986,
                    "velocity": 0.7874015748031497,
                    "duration": 0.34090912499999604
                },
                {
                    "name": "A#4",
                    "midi": 70,
                    "time": 79.54546249999986,
                    "velocity": 0.7874015748031497,
                    "duration": 0.34090912499999604
                },
                {
                    "name": "D5",
                    "midi": 74,
                    "time": 80.00000799999985,
                    "velocity": 0.7874015748031497,
                    "duration": 0.34090912499999604
                },
                {
                    "name": "F5",
                    "midi": 77,
                    "time": 80.45455349999985,
                    "velocity": 0.7874015748031497,
                    "duration": 0.34090912499999604
                },
                {
                    "name": "D#5",
                    "midi": 75,
                    "time": 80.90909899999984,
                    "velocity": 0.7874015748031497,
                    "duration": 0.34090912499999604
                },
                {
                    "name": "D5",
                    "midi": 74,
                    "time": 81.36364449999984,
                    "velocity": 0.7874015748031497,
                    "duration": 0.34090912499999604
                },
                {
                    "name": "D#5",
                    "midi": 75,
                    "time": 81.81818999999983,
                    "velocity": 0.7874015748031497,
                    "duration": 0.34090912499999604
                },
                {
                    "name": "D#4",
                    "midi": 63,
                    "time": 82.27273549999983,
                    "velocity": 0.7874015748031497,
                    "duration": 0.34090912499999604
                },
                {
                    "name": "G4",
                    "midi": 67,
                    "time": 82.72728099999982,
                    "velocity": 0.7874015748031497,
                    "duration": 0.34090912499999604
                },
                {
                    "name": "G4",
                    "midi": 67,
                    "time": 83.18182649999981,
                    "velocity": 0.7874015748031497,
                    "duration": 0.34090912499999604
                },
                {
                    "name": "A#4",
                    "midi": 70,
                    "time": 83.63637199999981,
                    "velocity": 0.7874015748031497,
                    "duration": 0.34090912499999604
                },
                {
                    "name": "G#4",
                    "midi": 68,
                    "time": 84.0909174999998,
                    "velocity": 0.7874015748031497,
                    "duration": 0.34090912499999604
                },
                {
                    "name": "A#4",
                    "midi": 70,
                    "time": 84.5454629999998,
                    "velocity": 0.7874015748031497,
                    "duration": 0.34090912499999604
                },
                {
                    "name": "G4",
                    "midi": 67,
                    "time": 85.0000084999998,
                    "velocity": 0.7874015748031497,
                    "duration": 0.34090912499999604
                },
                {
                    "name": "G#4",
                    "midi": 68,
                    "time": 85.45455399999979,
                    "velocity": 0.7874015748031497,
                    "duration": 0.34090912499999604
                },
                {
                    "name": "G#4",
                    "midi": 68,
                    "time": 85.90909949999978,
                    "velocity": 0.7874015748031497,
                    "duration": 0.34090912499999604
                },
                {
                    "name": "C5",
                    "midi": 72,
                    "time": 86.36364499999978,
                    "velocity": 0.7874015748031497,
                    "duration": 0.34090912499999604
                },
                {
                    "name": "G#4",
                    "midi": 68,
                    "time": 86.81819049999977,
                    "velocity": 0.7874015748031497,
                    "duration": 0.34090912499999604
                },
                {
                    "name": "C5",
                    "midi": 72,
                    "time": 87.27273599999977,
                    "velocity": 0.7874015748031497,
                    "duration": 0.34090912499999604
                },
                {
                    "name": "F5",
                    "midi": 77,
                    "time": 87.72728149999976,
                    "velocity": 0.7874015748031497,
                    "duration": 0.34090912499999604
                },
                {
                    "name": "C5",
                    "midi": 72,
                    "time": 88.18182699999976,
                    "velocity": 0.7874015748031497,
                    "duration": 0.34090912499999604
                },
                {
                    "name": "F5",
                    "midi": 77,
                    "time": 88.63637249999975,
                    "velocity": 0.7874015748031497,
                    "duration": 0.34090912499999604
                },
                {
                    "name": "C5",
                    "midi": 72,
                    "time": 89.09091799999975,
                    "velocity": 0.7874015748031497,
                    "duration": 0.34090912499999604
                },
                {
                    "name": "F5",
                    "midi": 77,
                    "time": 89.54546349999974,
                    "velocity": 0.7874015748031497,
                    "duration": 0.34090912499999604
                },
                {
                    "name": "C5",
                    "midi": 72,
                    "time": 90.00000899999974,
                    "velocity": 0.7874015748031497,
                    "duration": 0.34090912499999604
                },
                {
                    "name": "C5",
                    "midi": 72,
                    "time": 90.45455449999973,
                    "velocity": 0.7874015748031497,
                    "duration": 0.34090912499999604
                },
                {
                    "name": "C5",
                    "midi": 72,
                    "time": 90.90909999999973,
                    "velocity": 0.7874015748031497,
                    "duration": 0.34090912499999604
                },
                {
                    "name": "A#4",
                    "midi": 70,
                    "time": 91.36364549999972,
                    "velocity": 0.7874015748031497,
                    "duration": 0.34090912499999604
                },
                {
                    "name": "G4",
                    "midi": 67,
                    "time": 91.81819099999971,
                    "velocity": 0.7874015748031497,
                    "duration": 0.34090912499999604
                },
                {
                    "name": "G4",
                    "midi": 67,
                    "time": 92.27273649999971,
                    "velocity": 0.7874015748031497,
                    "duration": 0.34090912499999604
                },
                {
                    "name": "G4",
                    "midi": 67,
                    "time": 92.7272819999997,
                    "velocity": 0.7874015748031497,
                    "duration": 0.34090912499999604
                },
                {
                    "name": "F4",
                    "midi": 65,
                    "time": 93.1818274999997,
                    "velocity": 0.7874015748031497,
                    "duration": 0.34090912499999604
                },
                {
                    "name": "G#4",
                    "midi": 68,
                    "time": 93.6363729999997,
                    "velocity": 0.7874015748031497,
                    "duration": 0.34090912499999604
                },
                {
                    "name": "F4",
                    "midi": 65,
                    "time": 94.09091849999969,
                    "velocity": 0.7874015748031497,
                    "duration": 0.34090912499999604
                },
                {
                    "name": "F4",
                    "midi": 65,
                    "time": 94.54546399999968,
                    "velocity": 0.7874015748031497,
                    "duration": 0.34090912499999604
                },
                {
                    "name": "D#4",
                    "midi": 63,
                    "time": 95.00000949999968,
                    "velocity": 0.7874015748031497,
                    "duration": 0.34090912499999604
                },
                {
                    "name": "G4",
                    "midi": 67,
                    "time": 95.45455499999967,
                    "velocity": 0.7874015748031497,
                    "duration": 0.34090912499999604
                },
                {
                    "name": "D#4",
                    "midi": 63,
                    "time": 95.90910049999967,
                    "velocity": 0.7874015748031497,
                    "duration": 0.34090912499999604
                },
                {
                    "name": "D#4",
                    "midi": 63,
                    "time": 96.36364599999966,
                    "velocity": 0.7874015748031497,
                    "duration": 0.34090912499999604
                },
                {
                    "name": "D4",
                    "midi": 62,
                    "time": 96.81819149999966,
                    "velocity": 0.7874015748031497,
                    "duration": 0.34090912499999604
                },
                {
                    "name": "F4",
                    "midi": 65,
                    "time": 97.27273699999965,
                    "velocity": 0.7874015748031497,
                    "duration": 0.34090912499999604
                },
                {
                    "name": "D4",
                    "midi": 62,
                    "time": 97.72728249999965,
                    "velocity": 0.7874015748031497,
                    "duration": 0.34090912499999604
                },
                {
                    "name": "D4",
                    "midi": 62,
                    "time": 98.18182799999964,
                    "velocity": 0.7874015748031497,
                    "duration": 0.34090912499999604
                },
                {
                    "name": "C4",
                    "midi": 60,
                    "time": 98.63637349999964,
                    "velocity": 0.7874015748031497,
                    "duration": 0.34090912499999604
                },
                {
                    "name": "G4",
                    "midi": 67,
                    "time": 99.09091899999963,
                    "velocity": 0.7874015748031497,
                    "duration": 0.34090912499999604
                },
                {
                    "name": "D#4",
                    "midi": 63,
                    "time": 99.54546449999962,
                    "velocity": 0.7874015748031497,
                    "duration": 0.34090912499999604
                },
                {
                    "name": "F4",
                    "midi": 65,
                    "time": 100.00000999999962,
                    "velocity": 0.7874015748031497,
                    "duration": 0.34090912499999604
                },
                {
                    "name": "G#4",
                    "midi": 68,
                    "time": 100.45455549999961,
                    "velocity": 0.7874015748031497,
                    "duration": 0.34090912499999604
                },
                {
                    "name": "F4",
                    "midi": 65,
                    "time": 100.90910099999961,
                    "velocity": 0.7874015748031497,
                    "duration": 0.34090912499999604
                },
                {
                    "name": "F4",
                    "midi": 65,
                    "time": 101.3636464999996,
                    "velocity": 0.7874015748031497,
                    "duration": 0.34090912499999604
                },
                {
                    "name": "G4",
                    "midi": 67,
                    "time": 101.8181919999996,
                    "velocity": 0.7874015748031497,
                    "duration": 0.34090912499999604
                },
                {
                    "name": "C5",
                    "midi": 72,
                    "time": 102.2727374999996,
                    "velocity": 0.7874015748031497,
                    "duration": 0.34090912499999604
                },
                {
                    "name": "C5",
                    "midi": 72,
                    "time": 102.72728299999959,
                    "velocity": 0.7874015748031497,
                    "duration": 0.34090912499999604
                },
                {
                    "name": "C5",
                    "midi": 72,
                    "time": 103.18182849999958,
                    "velocity": 0.7874015748031497,
                    "duration": 0.34090912499999604
                },
                {
                    "name": "C5",
                    "midi": 72,
                    "time": 103.63637399999958,
                    "velocity": 0.7874015748031497,
                    "duration": 0.34090912499999604
                },
                {
                    "name": "A#4",
                    "midi": 70,
                    "time": 104.09091949999957,
                    "velocity": 0.7874015748031497,
                    "duration": 0.34090912499999604
                },
                {
                    "name": "D5",
                    "midi": 74,
                    "time": 104.54546499999957,
                    "velocity": 0.7874015748031497,
                    "duration": 0.34090912499999604
                },
                {
                    "name": "A#4",
                    "midi": 70,
                    "time": 105.00001049999956,
                    "velocity": 0.7874015748031497,
                    "duration": 0.34090912499999604
                },
                {
                    "name": "A#4",
                    "midi": 70,
                    "time": 105.45455599999956,
                    "velocity": 0.7874015748031497,
                    "duration": 0.34090912499999604
                },
                {
                    "name": "G4",
                    "midi": 67,
                    "time": 105.90910149999955,
                    "velocity": 0.7874015748031497,
                    "duration": 0.34090912499999604
                },
                {
                    "name": "D#4",
                    "midi": 63,
                    "time": 106.36364699999955,
                    "velocity": 0.7874015748031497,
                    "duration": 0.34090912499999604
                },
                {
                    "name": "D#4",
                    "midi": 63,
                    "time": 106.81819249999954,
                    "velocity": 0.7874015748031497,
                    "duration": 0.34090912499999604
                },
                {
                    "name": "D#4",
                    "midi": 63,
                    "time": 107.27273799999953,
                    "velocity": 0.7874015748031497,
                    "duration": 0.34090912499999604
                },
                {
                    "name": "D4",
                    "midi": 62,
                    "time": 107.72728349999953,
                    "velocity": 0.7874015748031497,
                    "duration": 0.34090912499999604
                },
                {
                    "name": "F4",
                    "midi": 65,
                    "time": 108.18182899999952,
                    "velocity": 0.7874015748031497,
                    "duration": 0.34090912499999604
                },
                {
                    "name": "D4",
                    "midi": 62,
                    "time": 108.63637449999952,
                    "velocity": 0.7874015748031497,
                    "duration": 0.34090912499999604
                },
                {
                    "name": "D4",
                    "midi": 62,
                    "time": 109.09091999999951,
                    "velocity": 0.7874015748031497,
                    "duration": 0.34090912499999604
                },
                {
                    "name": "C4",
                    "midi": 60,
                    "time": 109.54546549999951,
                    "velocity": 0.7874015748031497,
                    "duration": 0.34090912499999604
                },
                {
                    "name": "D#4",
                    "midi": 63,
                    "time": 110.0000109999995,
                    "velocity": 0.7874015748031497,
                    "duration": 0.34090912499999604
                },
                {
                    "name": "C4",
                    "midi": 60,
                    "time": 110.4545564999995,
                    "velocity": 0.7874015748031497,
                    "duration": 0.34090912499999604
                },
                {
                    "name": "C4",
                    "midi": 60,
                    "time": 110.90910199999949,
                    "velocity": 0.7874015748031497,
                    "duration": 0.34090912499999604
                },
                {
                    "name": "A#3",
                    "midi": 58,
                    "time": 111.36364749999949,
                    "velocity": 0.7874015748031497,
                    "duration": 0.34090912499999604
                },
                {
                    "name": "D4",
                    "midi": 62,
                    "time": 111.81819299999948,
                    "velocity": 0.7874015748031497,
                    "duration": 0.34090912499999604
                },
                {
                    "name": "D4",
                    "midi": 62,
                    "time": 112.27273849999948,
                    "velocity": 0.7874015748031497,
                    "duration": 0.34090912499999604
                },
                {
                    "name": "D4",
                    "midi": 62,
                    "time": 112.72728399999947,
                    "velocity": 0.7874015748031497,
                    "duration": 0.34090912499999604
                },
                {
                    "name": "C4",
                    "midi": 60,
                    "time": 113.18182949999947,
                    "velocity": 0.7874015748031497,
                    "duration": 0.34090912499999604
                },
                {
                    "name": "C4",
                    "midi": 60,
                    "time": 113.63637499999946,
                    "velocity": 0.7874015748031497,
                    "duration": 0.34090912499999604
                },
                {
                    "name": "C4",
                    "midi": 60,
                    "time": 114.09092049999946,
                    "velocity": 0.7874015748031497,
                    "duration": 0.34090912499999604
                },
                {
                    "name": "C4",
                    "midi": 60,
                    "time": 114.54546599999945,
                    "velocity": 0.7874015748031497,
                    "duration": 0.34090912499999604
                },
                {
                    "name": "A4",
                    "midi": 69,
                    "time": 115.00001149999945,
                    "velocity": 0.7874015748031497,
                    "duration": 0.34090912499999604
                },
                {
                    "name": "F4",
                    "midi": 65,
                    "time": 115.45455699999944,
                    "velocity": 0.7874015748031497,
                    "duration": 0.34090912499999604
                },
                {
                    "name": "F4",
                    "midi": 65,
                    "time": 115.90910249999943,
                    "velocity": 0.7874015748031497,
                    "duration": 0.34090912499999604
                },
                {
                    "name": "F4",
                    "midi": 65,
                    "time": 116.36364799999943,
                    "velocity": 0.7874015748031497,
                    "duration": 0.34090912499999604
                },
                {
                    "name": "D#4",
                    "midi": 63,
                    "time": 116.81819349999942,
                    "velocity": 0.7874015748031497,
                    "duration": 0.34090912499999604
                },
                {
                    "name": "G4",
                    "midi": 67,
                    "time": 117.27273899999942,
                    "velocity": 0.7874015748031497,
                    "duration": 0.34090912499999604
                },
                {
                    "name": "G4",
                    "midi": 67,
                    "time": 117.72728449999941,
                    "velocity": 0.7874015748031497,
                    "duration": 0.34090912499999604
                },
                {
                    "name": "G4",
                    "midi": 67,
                    "time": 118.18182999999941,
                    "velocity": 0.7874015748031497,
                    "duration": 0.34090912499999604
                },
                {
                    "name": "F4",
                    "midi": 65,
                    "time": 118.6363754999994,
                    "velocity": 0.7874015748031497,
                    "duration": 0.34090912499999604
                },
                {
                    "name": "A4",
                    "midi": 69,
                    "time": 119.0909209999994,
                    "velocity": 0.7874015748031497,
                    "duration": 0.34090912499999604
                },
                {
                    "name": "A4",
                    "midi": 69,
                    "time": 119.54546649999939,
                    "velocity": 0.7874015748031497,
                    "duration": 0.34090912499999604
                },
                {
                    "name": "A4",
                    "midi": 69,
                    "time": 120.00001199999939,
                    "velocity": 0.7874015748031497,
                    "duration": 0.34090912499999604
                },
                {
                    "name": "G4",
                    "midi": 67,
                    "time": 120.45455749999938,
                    "velocity": 0.7874015748031497,
                    "duration": 0.34090912499999604
                },
                {
                    "name": "A#4",
                    "midi": 70,
                    "time": 120.90910299999938,
                    "velocity": 0.7874015748031497,
                    "duration": 0.34090912499999604
                },
                {
                    "name": "A#4",
                    "midi": 70,
                    "time": 121.36364849999937,
                    "velocity": 0.7874015748031497,
                    "duration": 0.34090912499999604
                },
                {
                    "name": "A#4",
                    "midi": 70,
                    "time": 121.81819399999937,
                    "velocity": 0.7874015748031497,
                    "duration": 0.34090912499999604
                },
                {
                    "name": "G#4",
                    "midi": 68,
                    "time": 122.27273949999936,
                    "velocity": 0.7874015748031497,
                    "duration": 0.34090912499999604
                },
                {
                    "name": "C5",
                    "midi": 72,
                    "time": 122.72728499999936,
                    "velocity": 0.7874015748031497,
                    "duration": 0.34090912499999604
                },
                {
                    "name": "C5",
                    "midi": 72,
                    "time": 123.18183049999935,
                    "velocity": 0.7874015748031497,
                    "duration": 0.34090912499999604
                },
                {
                    "name": "C5",
                    "midi": 72,
                    "time": 123.63637599999934,
                    "velocity": 0.7874015748031497,
                    "duration": 0.34090912499999604
                },
                {
                    "name": "A#4",
                    "midi": 70,
                    "time": 124.09092149999934,
                    "velocity": 0.7874015748031497,
                    "duration": 0.34090912499999604
                },
                {
                    "name": "D5",
                    "midi": 74,
                    "time": 124.54546699999933,
                    "velocity": 0.7874015748031497,
                    "duration": 0.34090912499999604
                },
                {
                    "name": "D5",
                    "midi": 74,
                    "time": 125.00001249999933,
                    "velocity": 0.7874015748031497,
                    "duration": 0.34090912499999604
                },
                {
                    "name": "D5",
                    "midi": 74,
                    "time": 125.45455799999932,
                    "velocity": 0.7874015748031497,
                    "duration": 0.34090912499999604
                },
                {
                    "name": "C5",
                    "midi": 72,
                    "time": 125.90910349999932,
                    "velocity": 0.7874015748031497,
                    "duration": 0.34090912499999604
                },
                {
                    "name": "C5",
                    "midi": 72,
                    "time": 126.36364899999931,
                    "velocity": 0.7874015748031497,
                    "duration": 0.34090912499999604
                },
                {
                    "name": "C5",
                    "midi": 72,
                    "time": 126.81819449999931,
                    "velocity": 0.7874015748031497,
                    "duration": 0.34090912499999604
                },
                {
                    "name": "C5",
                    "midi": 72,
                    "time": 127.2727399999993,
                    "velocity": 0.7874015748031497,
                    "duration": 0.34090912499999604
                },
                {
                    "name": "C5",
                    "midi": 72,
                    "time": 127.7272854999993,
                    "velocity": 0.7874015748031497,
                    "duration": 0.34090912500001025
                },
                {
                    "name": "D5",
                    "midi": 74,
                    "time": 128.1818309999993,
                    "velocity": 0.7874015748031497,
                    "duration": 0.34090912499999604
                },
                {
                    "name": "C5",
                    "midi": 72,
                    "time": 128.6363764999993,
                    "velocity": 0.7874015748031497,
                    "duration": 0.34090912499999604
                },
                {
                    "name": "B4",
                    "midi": 71,
                    "time": 129.0909219999993,
                    "velocity": 0.7874015748031497,
                    "duration": 0.34090912499999604
                },
                {
                    "name": "B4",
                    "midi": 71,
                    "time": 129.5454674999993,
                    "velocity": 0.7874015748031497,
                    "duration": 0.34090912499999604
                },
                {
                    "name": "D#5",
                    "midi": 75,
                    "time": 130.00001299999929,
                    "velocity": 0.7874015748031497,
                    "duration": 0.34090912499999604
                },
                {
                    "name": "D5",
                    "midi": 74,
                    "time": 130.45455849999928,
                    "velocity": 0.7874015748031497,
                    "duration": 0.34090912499999604
                },
                {
                    "name": "C5",
                    "midi": 72,
                    "time": 130.90910399999927,
                    "velocity": 0.7874015748031497,
                    "duration": 0.34090912499999604
                },
                {
                    "name": "B4",
                    "midi": 71,
                    "time": 131.36364949999927,
                    "velocity": 0.7874015748031497,
                    "duration": 0.34090912499999604
                },
                {
                    "name": "C5",
                    "midi": 72,
                    "time": 131.81819499999926,
                    "velocity": 0.7874015748031497,
                    "duration": 1.3636365000000126
                },
                {
                    "name": "B4",
                    "midi": 71,
                    "time": 133.63637699999927,
                    "velocity": 0.7874015748031497,
                    "duration": 0.6818182499999921
                },
                {
                    "name": "C5",
                    "midi": 72,
                    "time": 134.54546799999926,
                    "velocity": 0.7874015748031497,
                    "duration": 0.6818182499999921
                },
                {
                    "name": "G4",
                    "midi": 67,
                    "time": 138.63637749999924,
                    "velocity": 0.7874015748031497,
                    "duration": 0.34090912499999604
                },
                {
                    "name": "C5",
                    "midi": 72,
                    "time": 139.09092299999924,
                    "velocity": 0.7874015748031497,
                    "duration": 0.34090912499999604
                },
                {
                    "name": "G4",
                    "midi": 67,
                    "time": 139.54546849999923,
                    "velocity": 0.7874015748031497,
                    "duration": 0.34090912499999604
                },
                {
                    "name": "C5",
                    "midi": 72,
                    "time": 140.00001399999923,
                    "velocity": 0.7874015748031497,
                    "duration": 0.34090912499999604
                },
                {
                    "name": "D#5",
                    "midi": 75,
                    "time": 140.45455949999922,
                    "velocity": 0.7874015748031497,
                    "duration": 0.34090912499999604
                },
                {
                    "name": "C5",
                    "midi": 72,
                    "time": 140.90910499999922,
                    "velocity": 0.7874015748031497,
                    "duration": 0.34090912499999604
                },
                {
                    "name": "D#5",
                    "midi": 75,
                    "time": 141.3636504999992,
                    "velocity": 0.7874015748031497,
                    "duration": 0.34090912499999604
                },
                {
                    "name": "D5",
                    "midi": 74,
                    "time": 141.8181959999992,
                    "velocity": 0.7874015748031497,
                    "duration": 0.34090912499999604
                },
                {
                    "name": "C5",
                    "midi": 72,
                    "time": 142.2727414999992,
                    "velocity": 0.7874015748031497,
                    "duration": 0.34090912499999604
                },
                {
                    "name": "D5",
                    "midi": 74,
                    "time": 142.7272869999992,
                    "velocity": 0.7874015748031497,
                    "duration": 0.34090912499999604
                },
                {
                    "name": "B4",
                    "midi": 71,
                    "time": 143.1818324999992,
                    "velocity": 0.7874015748031497,
                    "duration": 0.34090912499999604
                },
                {
                    "name": "C5",
                    "midi": 72,
                    "time": 143.63637799999918,
                    "velocity": 0.7874015748031497,
                    "duration": 0.34090912499999604
                },
                {
                    "name": "B4",
                    "midi": 71,
                    "time": 144.09092349999918,
                    "velocity": 0.7874015748031497,
                    "duration": 0.34090912499999604
                },
                {
                    "name": "C5",
                    "midi": 72,
                    "time": 144.54546899999917,
                    "velocity": 0.7874015748031497,
                    "duration": 0.34090912499999604
                },
                {
                    "name": "A4",
                    "midi": 69,
                    "time": 145.00001449999917,
                    "velocity": 0.7874015748031497,
                    "duration": 0.34090912499999604
                },
                {
                    "name": "A#4",
                    "midi": 70,
                    "time": 145.45455999999916,
                    "velocity": 0.7874015748031497,
                    "duration": 0.34090912499999604
                },
                {
                    "name": "A#4",
                    "midi": 70,
                    "time": 145.90910549999916,
                    "velocity": 0.7874015748031497,
                    "duration": 0.34090912499999604
                },
                {
                    "name": "G4",
                    "midi": 67,
                    "time": 146.36365099999915,
                    "velocity": 0.7874015748031497,
                    "duration": 0.34090912499999604
                },
                {
                    "name": "A#4",
                    "midi": 70,
                    "time": 146.81819649999915,
                    "velocity": 0.7874015748031497,
                    "duration": 0.34090912499999604
                },
                {
                    "name": "G4",
                    "midi": 67,
                    "time": 147.27274199999914,
                    "velocity": 0.7874015748031497,
                    "duration": 0.34090912499999604
                },
                {
                    "name": "F#4",
                    "midi": 66,
                    "time": 147.72728749999914,
                    "velocity": 0.7874015748031497,
                    "duration": 0.34090912499999604
                },
                {
                    "name": "A#4",
                    "midi": 70,
                    "time": 148.18183299999913,
                    "velocity": 0.7874015748031497,
                    "duration": 0.34090912499999604
                },
                {
                    "name": "D5",
                    "midi": 74,
                    "time": 148.63637849999913,
                    "velocity": 0.7874015748031497,
                    "duration": 0.34090912499999604
                },
                {
                    "name": "A#4",
                    "midi": 70,
                    "time": 149.09092399999912,
                    "velocity": 0.7874015748031497,
                    "duration": 0.34090912499999604
                },
                {
                    "name": "D5",
                    "midi": 74,
                    "time": 149.54546949999911,
                    "velocity": 0.7874015748031497,
                    "duration": 0.34090912499999604
                },
                {
                    "name": "A#4",
                    "midi": 70,
                    "time": 150.0000149999991,
                    "velocity": 0.7874015748031497,
                    "duration": 0.34090912499999604
                },
                {
                    "name": "D5",
                    "midi": 74,
                    "time": 150.4545604999991,
                    "velocity": 0.7874015748031497,
                    "duration": 0.34090912499999604
                },
                {
                    "name": "A#4",
                    "midi": 70,
                    "time": 150.9091059999991,
                    "velocity": 0.7874015748031497,
                    "duration": 0.34090912499999604
                },
                {
                    "name": "D5",
                    "midi": 74,
                    "time": 151.3636514999991,
                    "velocity": 0.7874015748031497,
                    "duration": 0.34090912499999604
                },
                {
                    "name": "A#4",
                    "midi": 70,
                    "time": 151.8181969999991,
                    "velocity": 0.7874015748031497,
                    "duration": 0.34090912499999604
                },
                {
                    "name": "D5",
                    "midi": 74,
                    "time": 152.27274249999908,
                    "velocity": 0.7874015748031497,
                    "duration": 0.34090912499999604
                },
                {
                    "name": "A#4",
                    "midi": 70,
                    "time": 152.72728799999908,
                    "velocity": 0.7874015748031497,
                    "duration": 0.34090912499999604
                },
                {
                    "name": "D5",
                    "midi": 74,
                    "time": 153.18183349999907,
                    "velocity": 0.7874015748031497,
                    "duration": 0.34090912499999604
                },
                {
                    "name": "C5",
                    "midi": 72,
                    "time": 153.63637899999907,
                    "velocity": 0.7874015748031497,
                    "duration": 0.34090912499999604
                },
                {
                    "name": "B4",
                    "midi": 71,
                    "time": 154.09092449999906,
                    "velocity": 0.7874015748031497,
                    "duration": 0.34090912499999604
                },
                {
                    "name": "C5",
                    "midi": 72,
                    "time": 154.54546999999906,
                    "velocity": 0.7874015748031497,
                    "duration": 0.34090912499999604
                },
                {
                    "name": "G4",
                    "midi": 67,
                    "time": 155.00001549999905,
                    "velocity": 0.7874015748031497,
                    "duration": 0.34090912499999604
                },
                {
                    "name": "C5",
                    "midi": 72,
                    "time": 155.45456099999905,
                    "velocity": 0.7874015748031497,
                    "duration": 0.34090912499999604
                },
                {
                    "name": "G4",
                    "midi": 67,
                    "time": 155.90910649999904,
                    "velocity": 0.7874015748031497,
                    "duration": 0.34090912499999604
                },
                {
                    "name": "C5",
                    "midi": 72,
                    "time": 156.36365199999904,
                    "velocity": 0.7874015748031497,
                    "duration": 0.34090912499999604
                },
                {
                    "name": "D#5",
                    "midi": 75,
                    "time": 156.81819749999903,
                    "velocity": 0.7874015748031497,
                    "duration": 0.34090912499999604
                },
                {
                    "name": "F5",
                    "midi": 77,
                    "time": 157.27274299999902,
                    "velocity": 0.7874015748031497,
                    "duration": 0.34090912499999604
                },
                {
                    "name": "D#5",
                    "midi": 75,
                    "time": 157.72728849999902,
                    "velocity": 0.7874015748031497,
                    "duration": 0.34090912499999604
                },
                {
                    "name": "D5",
                    "midi": 74,
                    "time": 158.18183399999901,
                    "velocity": 0.7874015748031497,
                    "duration": 0.34090912499999604
                },
                {
                    "name": "C5",
                    "midi": 72,
                    "time": 158.636379499999,
                    "velocity": 0.7874015748031497,
                    "duration": 0.34090912499999604
                },
                {
                    "name": "B4",
                    "midi": 71,
                    "time": 159.090924999999,
                    "velocity": 0.7874015748031497,
                    "duration": 0.34090912499999604
                },
                {
                    "name": "C5",
                    "midi": 72,
                    "time": 159.545470499999,
                    "velocity": 0.7874015748031497,
                    "duration": 0.34090912499999604
                },
                {
                    "name": "D5",
                    "midi": 74,
                    "time": 160.000015999999,
                    "velocity": 0.7874015748031497,
                    "duration": 0.34090912499999604
                },
                {
                    "name": "B4",
                    "midi": 71,
                    "time": 160.454561499999,
                    "velocity": 0.7874015748031497,
                    "duration": 0.34090912499999604
                },
                {
                    "name": "G4",
                    "midi": 67,
                    "time": 160.90910699999898,
                    "velocity": 0.7874015748031497,
                    "duration": 0.34090912499999604
                },
                {
                    "name": "B4",
                    "midi": 71,
                    "time": 161.36365249999898,
                    "velocity": 0.7874015748031497,
                    "duration": 0.34090912499999604
                },
                {
                    "name": "G4",
                    "midi": 67,
                    "time": 161.81819799999897,
                    "velocity": 0.7874015748031497,
                    "duration": 0.34090912499999604
                },
                {
                    "name": "G4",
                    "midi": 67,
                    "time": 162.27274349999897,
                    "velocity": 0.7874015748031497,
                    "duration": 0.34090912499999604
                },
                {
                    "name": "A4",
                    "midi": 69,
                    "time": 162.72728899999896,
                    "velocity": 0.7874015748031497,
                    "duration": 0.34090912499999604
                },
                {
                    "name": "B4",
                    "midi": 71,
                    "time": 163.18183449999896,
                    "velocity": 0.7874015748031497,
                    "duration": 0.34090912499999604
                },
                {
                    "name": "C5",
                    "midi": 72,
                    "time": 163.63637999999895,
                    "velocity": 0.7874015748031497,
                    "duration": 0.34090912499999604
                },
                {
                    "name": "B4",
                    "midi": 71,
                    "time": 164.09092549999895,
                    "velocity": 0.7874015748031497,
                    "duration": 0.34090912499999604
                },
                {
                    "name": "C5",
                    "midi": 72,
                    "time": 164.54547099999894,
                    "velocity": 0.7874015748031497,
                    "duration": 0.34090912499999604
                },
                {
                    "name": "D5",
                    "midi": 74,
                    "time": 165.00001649999894,
                    "velocity": 0.7874015748031497,
                    "duration": 0.34090912499999604
                },
                {
                    "name": "D#5",
                    "midi": 75,
                    "time": 165.45456199999893,
                    "velocity": 0.7874015748031497,
                    "duration": 0.34090912499999604
                },
                {
                    "name": "G5",
                    "midi": 79,
                    "time": 165.90910749999892,
                    "velocity": 0.7874015748031497,
                    "duration": 0.34090912499999604
                },
                {
                    "name": "D#5",
                    "midi": 75,
                    "time": 166.36365299999892,
                    "velocity": 0.7874015748031497,
                    "duration": 0.34090912499999604
                },
                {
                    "name": "G5",
                    "midi": 79,
                    "time": 166.8181984999989,
                    "velocity": 0.7874015748031497,
                    "duration": 0.34090912499999604
                },
                {
                    "name": "D#5",
                    "midi": 75,
                    "time": 167.2727439999989,
                    "velocity": 0.7874015748031497,
                    "duration": 0.34090912499999604
                },
                {
                    "name": "F5",
                    "midi": 77,
                    "time": 167.7272894999989,
                    "velocity": 0.7874015748031497,
                    "duration": 0.1742424416666779
                },
                {
                    "name": "D#5",
                    "midi": 75,
                    "time": 167.9545622499989,
                    "velocity": 0.7874015748031497,
                    "duration": 0.1742424416666779
                },
                {
                    "name": "D5",
                    "midi": 74,
                    "time": 168.1818349999989,
                    "velocity": 0.7874015748031497,
                    "duration": 0.34090912499999604
                },
                {
                    "name": "C5",
                    "midi": 72,
                    "time": 168.6363804999989,
                    "velocity": 0.7874015748031497,
                    "duration": 0.34090912499999604
                },
                {
                    "name": "A#4",
                    "midi": 70,
                    "time": 169.0909259999989,
                    "velocity": 0.7874015748031497,
                    "duration": 0.34090912499999604
                },
                {
                    "name": "A#4",
                    "midi": 70,
                    "time": 169.54547149999888,
                    "velocity": 0.7874015748031497,
                    "duration": 0.34090912499999604
                },
                {
                    "name": "D5",
                    "midi": 74,
                    "time": 170.00001699999888,
                    "velocity": 0.7874015748031497,
                    "duration": 0.34090912499999604
                },
                {
                    "name": "A#4",
                    "midi": 70,
                    "time": 170.45456249999887,
                    "velocity": 0.7874015748031497,
                    "duration": 0.34090912499999604
                },
                {
                    "name": "D5",
                    "midi": 74,
                    "time": 170.90910799999887,
                    "velocity": 0.7874015748031497,
                    "duration": 0.34090912499999604
                },
                {
                    "name": "F5",
                    "midi": 77,
                    "time": 171.36365349999886,
                    "velocity": 0.7874015748031497,
                    "duration": 0.34090912499999604
                },
                {
                    "name": "D#5",
                    "midi": 75,
                    "time": 171.81819899999886,
                    "velocity": 0.7874015748031497,
                    "duration": 0.34090912499999604
                },
                {
                    "name": "D5",
                    "midi": 74,
                    "time": 172.27274449999885,
                    "velocity": 0.7874015748031497,
                    "duration": 0.34090912499999604
                },
                {
                    "name": "D#5",
                    "midi": 75,
                    "time": 172.72728999999885,
                    "velocity": 0.7874015748031497,
                    "duration": 0.34090912499999604
                },
                {
                    "name": "D#4",
                    "midi": 63,
                    "time": 173.18183549999884,
                    "velocity": 0.7874015748031497,
                    "duration": 0.34090912499999604
                },
                {
                    "name": "G4",
                    "midi": 67,
                    "time": 173.63638099999883,
                    "velocity": 0.7874015748031497,
                    "duration": 0.34090912499999604
                },
                {
                    "name": "G4",
                    "midi": 67,
                    "time": 174.09092649999883,
                    "velocity": 0.7874015748031497,
                    "duration": 0.34090912499999604
                },
                {
                    "name": "A#4",
                    "midi": 70,
                    "time": 174.54547199999882,
                    "velocity": 0.7874015748031497,
                    "duration": 0.34090912499999604
                },
                {
                    "name": "G#4",
                    "midi": 68,
                    "time": 175.00001749999882,
                    "velocity": 0.7874015748031497,
                    "duration": 0.34090912499999604
                },
                {
                    "name": "A#4",
                    "midi": 70,
                    "time": 175.4545629999988,
                    "velocity": 0.7874015748031497,
                    "duration": 0.34090912499999604
                },
                {
                    "name": "G4",
                    "midi": 67,
                    "time": 175.9091084999988,
                    "velocity": 0.7874015748031497,
                    "duration": 0.34090912499999604
                },
                {
                    "name": "G#4",
                    "midi": 68,
                    "time": 176.3636539999988,
                    "velocity": 0.7874015748031497,
                    "duration": 0.34090912499999604
                },
                {
                    "name": "G#4",
                    "midi": 68,
                    "time": 176.8181994999988,
                    "velocity": 0.7874015748031497,
                    "duration": 0.34090912499999604
                },
                {
                    "name": "C5",
                    "midi": 72,
                    "time": 177.2727449999988,
                    "velocity": 0.7874015748031497,
                    "duration": 0.34090912499999604
                },
                {
                    "name": "G#4",
                    "midi": 68,
                    "time": 177.7272904999988,
                    "velocity": 0.7874015748031497,
                    "duration": 0.34090912499999604
                },
                {
                    "name": "C5",
                    "midi": 72,
                    "time": 178.18183599999878,
                    "velocity": 0.7874015748031497,
                    "duration": 0.34090912499999604
                },
                {
                    "name": "F5",
                    "midi": 77,
                    "time": 178.63638149999878,
                    "velocity": 0.7874015748031497,
                    "duration": 0.34090912499999604
                },
                {
                    "name": "C5",
                    "midi": 72,
                    "time": 179.09092699999877,
                    "velocity": 0.7874015748031497,
                    "duration": 0.34090912499999604
                },
                {
                    "name": "F5",
                    "midi": 77,
                    "time": 179.54547249999877,
                    "velocity": 0.7874015748031497,
                    "duration": 0.34090912499999604
                },
                {
                    "name": "C5",
                    "midi": 72,
                    "time": 180.00001799999876,
                    "velocity": 0.7874015748031497,
                    "duration": 0.34090912499999604
                },
                {
                    "name": "F5",
                    "midi": 77,
                    "time": 180.45456349999876,
                    "velocity": 0.7874015748031497,
                    "duration": 0.34090912499999604
                },
                {
                    "name": "C5",
                    "midi": 72,
                    "time": 180.90910899999875,
                    "velocity": 0.7874015748031497,
                    "duration": 0.34090912499999604
                },
                {
                    "name": "C5",
                    "midi": 72,
                    "time": 181.36365449999874,
                    "velocity": 0.7874015748031497,
                    "duration": 0.34090912499999604
                },
                {
                    "name": "C5",
                    "midi": 72,
                    "time": 181.81819999999874,
                    "velocity": 0.7874015748031497,
                    "duration": 0.34090912499999604
                },
                {
                    "name": "A#4",
                    "midi": 70,
                    "time": 182.27274549999873,
                    "velocity": 0.7874015748031497,
                    "duration": 0.34090912499999604
                },
                {
                    "name": "G4",
                    "midi": 67,
                    "time": 182.72729099999873,
                    "velocity": 0.7874015748031497,
                    "duration": 0.34090912499999604
                },
                {
                    "name": "G4",
                    "midi": 67,
                    "time": 183.18183649999872,
                    "velocity": 0.7874015748031497,
                    "duration": 0.34090912499999604
                },
                {
                    "name": "G4",
                    "midi": 67,
                    "time": 183.63638199999872,
                    "velocity": 0.7874015748031497,
                    "duration": 0.34090912499999604
                },
                {
                    "name": "F4",
                    "midi": 65,
                    "time": 184.0909274999987,
                    "velocity": 0.7874015748031497,
                    "duration": 0.34090912499999604
                },
                {
                    "name": "G#4",
                    "midi": 68,
                    "time": 184.5454729999987,
                    "velocity": 0.7874015748031497,
                    "duration": 0.34090912499999604
                },
                {
                    "name": "F4",
                    "midi": 65,
                    "time": 185.0000184999987,
                    "velocity": 0.7874015748031497,
                    "duration": 0.34090912499999604
                },
                {
                    "name": "F4",
                    "midi": 65,
                    "time": 185.4545639999987,
                    "velocity": 0.7874015748031497,
                    "duration": 0.34090912499999604
                },
                {
                    "name": "D#4",
                    "midi": 63,
                    "time": 185.9091094999987,
                    "velocity": 0.7874015748031497,
                    "duration": 0.34090912499999604
                },
                {
                    "name": "G4",
                    "midi": 67,
                    "time": 186.3636549999987,
                    "velocity": 0.7874015748031497,
                    "duration": 0.34090912499999604
                },
                {
                    "name": "D#4",
                    "midi": 63,
                    "time": 186.81820049999868,
                    "velocity": 0.7874015748031497,
                    "duration": 0.34090912499999604
                },
                {
                    "name": "D#4",
                    "midi": 63,
                    "time": 187.27274599999868,
                    "velocity": 0.7874015748031497,
                    "duration": 0.34090912499999604
                },
                {
                    "name": "D4",
                    "midi": 62,
                    "time": 187.72729149999867,
                    "velocity": 0.7874015748031497,
                    "duration": 0.34090912499999604
                },
                {
                    "name": "F4",
                    "midi": 65,
                    "time": 188.18183699999867,
                    "velocity": 0.7874015748031497,
                    "duration": 0.34090912499999604
                },
                {
                    "name": "D4",
                    "midi": 62,
                    "time": 188.63638249999866,
                    "velocity": 0.7874015748031497,
                    "duration": 0.34090912499999604
                },
                {
                    "name": "D4",
                    "midi": 62,
                    "time": 189.09092799999866,
                    "velocity": 0.7874015748031497,
                    "duration": 0.34090912499999604
                },
                {
                    "name": "C4",
                    "midi": 60,
                    "time": 189.54547349999865,
                    "velocity": 0.7874015748031497,
                    "duration": 0.34090912499999604
                },
                {
                    "name": "G4",
                    "midi": 67,
                    "time": 190.00001899999864,
                    "velocity": 0.7874015748031497,
                    "duration": 0.34090912499999604
                },
                {
                    "name": "D#4",
                    "midi": 63,
                    "time": 190.45456449999864,
                    "velocity": 0.7874015748031497,
                    "duration": 0.34090912499999604
                },
                {
                    "name": "F4",
                    "midi": 65,
                    "time": 190.90910999999863,
                    "velocity": 0.7874015748031497,
                    "duration": 0.34090912499999604
                },
                {
                    "name": "G#4",
                    "midi": 68,
                    "time": 191.36365549999863,
                    "velocity": 0.7874015748031497,
                    "duration": 0.34090912499999604
                },
                {
                    "name": "F4",
                    "midi": 65,
                    "time": 191.81820099999862,
                    "velocity": 0.7874015748031497,
                    "duration": 0.34090912499999604
                },
                {
                    "name": "F4",
                    "midi": 65,
                    "time": 192.27274649999862,
                    "velocity": 0.7874015748031497,
                    "duration": 0.34090912499999604
                },
                {
                    "name": "G4",
                    "midi": 67,
                    "time": 192.7272919999986,
                    "velocity": 0.7874015748031497,
                    "duration": 0.34090912499999604
                },
                {
                    "name": "C5",
                    "midi": 72,
                    "time": 193.1818374999986,
                    "velocity": 0.7874015748031497,
                    "duration": 0.34090912499999604
                },
                {
                    "name": "C5",
                    "midi": 72,
                    "time": 193.6363829999986,
                    "velocity": 0.7874015748031497,
                    "duration": 0.34090912499999604
                },
                {
                    "name": "C5",
                    "midi": 72,
                    "time": 194.0909284999986,
                    "velocity": 0.7874015748031497,
                    "duration": 0.34090912499999604
                },
                {
                    "name": "C5",
                    "midi": 72,
                    "time": 194.5454739999986,
                    "velocity": 0.7874015748031497,
                    "duration": 0.34090912499999604
                },
                {
                    "name": "A#4",
                    "midi": 70,
                    "time": 195.0000194999986,
                    "velocity": 0.7874015748031497,
                    "duration": 0.34090912499999604
                },
                {
                    "name": "D5",
                    "midi": 74,
                    "time": 195.45456499999858,
                    "velocity": 0.7874015748031497,
                    "duration": 0.34090912499999604
                },
                {
                    "name": "A#4",
                    "midi": 70,
                    "time": 195.90911049999858,
                    "velocity": 0.7874015748031497,
                    "duration": 0.34090912499999604
                },
                {
                    "name": "A#4",
                    "midi": 70,
                    "time": 196.36365599999857,
                    "velocity": 0.7874015748031497,
                    "duration": 0.34090912499999604
                },
                {
                    "name": "G4",
                    "midi": 67,
                    "time": 196.81820149999857,
                    "velocity": 0.7874015748031497,
                    "duration": 0.34090912499999604
                },
                {
                    "name": "D#4",
                    "midi": 63,
                    "time": 197.27274699999856,
                    "velocity": 0.7874015748031497,
                    "duration": 0.34090912499999604
                },
                {
                    "name": "D#4",
                    "midi": 63,
                    "time": 197.72729249999855,
                    "velocity": 0.7874015748031497,
                    "duration": 0.34090912499999604
                },
                {
                    "name": "D#4",
                    "midi": 63,
                    "time": 198.18183799999855,
                    "velocity": 0.7874015748031497,
                    "duration": 0.34090912499999604
                },
                {
                    "name": "D4",
                    "midi": 62,
                    "time": 198.63638349999854,
                    "velocity": 0.7874015748031497,
                    "duration": 0.34090912499999604
                },
                {
                    "name": "F4",
                    "midi": 65,
                    "time": 199.09092899999854,
                    "velocity": 0.7874015748031497,
                    "duration": 0.34090912499999604
                },
                {
                    "name": "D4",
                    "midi": 62,
                    "time": 199.54547449999853,
                    "velocity": 0.7874015748031497,
                    "duration": 0.34090912499999604
                },
                {
                    "name": "D4",
                    "midi": 62,
                    "time": 200.00001999999853,
                    "velocity": 0.7874015748031497,
                    "duration": 0.34090912499999604
                },
                {
                    "name": "C4",
                    "midi": 60,
                    "time": 200.45456549999852,
                    "velocity": 0.7874015748031497,
                    "duration": 0.34090912499999604
                },
                {
                    "name": "D#4",
                    "midi": 63,
                    "time": 200.90911099999852,
                    "velocity": 0.7874015748031497,
                    "duration": 0.34090912499999604
                },
                {
                    "name": "C4",
                    "midi": 60,
                    "time": 201.3636564999985,
                    "velocity": 0.7874015748031497,
                    "duration": 0.34090912499999604
                },
                {
                    "name": "C4",
                    "midi": 60,
                    "time": 201.8182019999985,
                    "velocity": 0.7874015748031497,
                    "duration": 0.34090912499999604
                },
                {
                    "name": "A#3",
                    "midi": 58,
                    "time": 202.2727474999985,
                    "velocity": 0.7874015748031497,
                    "duration": 0.34090912499999604
                },
                {
                    "name": "D4",
                    "midi": 62,
                    "time": 202.7272929999985,
                    "velocity": 0.7874015748031497,
                    "duration": 0.34090912499999604
                },
                {
                    "name": "D4",
                    "midi": 62,
                    "time": 203.1818384999985,
                    "velocity": 0.7874015748031497,
                    "duration": 0.34090912499999604
                },
                {
                    "name": "D4",
                    "midi": 62,
                    "time": 203.6363839999985,
                    "velocity": 0.7874015748031497,
                    "duration": 0.34090912499999604
                },
                {
                    "name": "C4",
                    "midi": 60,
                    "time": 204.09092949999848,
                    "velocity": 0.7874015748031497,
                    "duration": 0.34090912499999604
                },
                {
                    "name": "C4",
                    "midi": 60,
                    "time": 204.54547499999848,
                    "velocity": 0.7874015748031497,
                    "duration": 0.34090912499999604
                },
                {
                    "name": "C4",
                    "midi": 60,
                    "time": 205.00002049999847,
                    "velocity": 0.7874015748031497,
                    "duration": 0.34090912499999604
                },
                {
                    "name": "C4",
                    "midi": 60,
                    "time": 205.45456599999847,
                    "velocity": 0.7874015748031497,
                    "duration": 0.34090912499999604
                },
                {
                    "name": "A4",
                    "midi": 69,
                    "time": 205.90911149999846,
                    "velocity": 0.7874015748031497,
                    "duration": 0.34090912499999604
                },
                {
                    "name": "F4",
                    "midi": 65,
                    "time": 206.36365699999845,
                    "velocity": 0.7874015748031497,
                    "duration": 0.34090912499999604
                },
                {
                    "name": "F4",
                    "midi": 65,
                    "time": 206.81820249999845,
                    "velocity": 0.7874015748031497,
                    "duration": 0.34090912499999604
                },
                {
                    "name": "F4",
                    "midi": 65,
                    "time": 207.27274799999844,
                    "velocity": 0.7874015748031497,
                    "duration": 0.34090912499999604
                },
                {
                    "name": "D#4",
                    "midi": 63,
                    "time": 207.72729349999844,
                    "velocity": 0.7874015748031497,
                    "duration": 0.34090912499999604
                },
                {
                    "name": "G4",
                    "midi": 67,
                    "time": 208.18183899999843,
                    "velocity": 0.7874015748031497,
                    "duration": 0.34090912499999604
                },
                {
                    "name": "G4",
                    "midi": 67,
                    "time": 208.63638449999843,
                    "velocity": 0.7874015748031497,
                    "duration": 0.34090912499999604
                },
                {
                    "name": "G4",
                    "midi": 67,
                    "time": 209.09092999999842,
                    "velocity": 0.7874015748031497,
                    "duration": 0.34090912499999604
                },
                {
                    "name": "F4",
                    "midi": 65,
                    "time": 209.54547549999842,
                    "velocity": 0.7874015748031497,
                    "duration": 0.34090912499999604
                },
                {
                    "name": "A4",
                    "midi": 69,
                    "time": 210.0000209999984,
                    "velocity": 0.7874015748031497,
                    "duration": 0.34090912499999604
                },
                {
                    "name": "A4",
                    "midi": 69,
                    "time": 210.4545664999984,
                    "velocity": 0.7874015748031497,
                    "duration": 0.34090912499999604
                },
                {
                    "name": "A4",
                    "midi": 69,
                    "time": 210.9091119999984,
                    "velocity": 0.7874015748031497,
                    "duration": 0.34090912499999604
                },
                {
                    "name": "G4",
                    "midi": 67,
                    "time": 211.3636574999984,
                    "velocity": 0.7874015748031497,
                    "duration": 0.34090912499999604
                },
                {
                    "name": "A#4",
                    "midi": 70,
                    "time": 211.8182029999984,
                    "velocity": 0.7874015748031497,
                    "duration": 0.34090912499999604
                },
                {
                    "name": "A#4",
                    "midi": 70,
                    "time": 212.2727484999984,
                    "velocity": 0.7874015748031497,
                    "duration": 0.34090912499999604
                },
                {
                    "name": "A#4",
                    "midi": 70,
                    "time": 212.72729399999838,
                    "velocity": 0.7874015748031497,
                    "duration": 0.34090912499999604
                },
                {
                    "name": "G#4",
                    "midi": 68,
                    "time": 213.18183949999838,
                    "velocity": 0.7874015748031497,
                    "duration": 0.34090912499999604
                },
                {
                    "name": "C5",
                    "midi": 72,
                    "time": 213.63638499999837,
                    "velocity": 0.7874015748031497,
                    "duration": 0.34090912499999604
                },
                {
                    "name": "C5",
                    "midi": 72,
                    "time": 214.09093049999836,
                    "velocity": 0.7874015748031497,
                    "duration": 0.34090912499999604
                },
                {
                    "name": "C5",
                    "midi": 72,
                    "time": 214.54547599999836,
                    "velocity": 0.7874015748031497,
                    "duration": 0.34090912499999604
                },
                {
                    "name": "A#4",
                    "midi": 70,
                    "time": 215.00002149999835,
                    "velocity": 0.7874015748031497,
                    "duration": 0.34090912499999604
                },
                {
                    "name": "D5",
                    "midi": 74,
                    "time": 215.45456699999835,
                    "velocity": 0.7874015748031497,
                    "duration": 0.34090912499999604
                },
                {
                    "name": "D5",
                    "midi": 74,
                    "time": 215.90911249999834,
                    "velocity": 0.7874015748031497,
                    "duration": 0.34090912499999604
                },
                {
                    "name": "D5",
                    "midi": 74,
                    "time": 216.36365799999834,
                    "velocity": 0.7874015748031497,
                    "duration": 0.34090912499999604
                },
                {
                    "name": "C5",
                    "midi": 72,
                    "time": 216.81820349999833,
                    "velocity": 0.7874015748031497,
                    "duration": 0.34090912499999604
                },
                {
                    "name": "C5",
                    "midi": 72,
                    "time": 217.27274899999833,
                    "velocity": 0.7874015748031497,
                    "duration": 0.34090912499999604
                },
                {
                    "name": "C5",
                    "midi": 72,
                    "time": 217.72729449999832,
                    "velocity": 0.7874015748031497,
                    "duration": 0.34090912499999604
                },
                {
                    "name": "C5",
                    "midi": 72,
                    "time": 218.18183999999832,
                    "velocity": 0.7874015748031497,
                    "duration": 0.34090912499999604
                },
                {
                    "name": "C5",
                    "midi": 72,
                    "time": 218.6363854999983,
                    "velocity": 0.7874015748031497,
                    "duration": 0.34090912499999604
                },
                {
                    "name": "D5",
                    "midi": 74,
                    "time": 219.0909309999983,
                    "velocity": 0.7874015748031497,
                    "duration": 0.34090912499999604
                },
                {
                    "name": "C5",
                    "midi": 72,
                    "time": 219.5454764999983,
                    "velocity": 0.7874015748031497,
                    "duration": 0.34090912499999604
                },
                {
                    "name": "B4",
                    "midi": 71,
                    "time": 220.0000219999983,
                    "velocity": 0.7874015748031497,
                    "duration": 0.34090912499999604
                },
                {
                    "name": "B4",
                    "midi": 71,
                    "time": 220.4545674999983,
                    "velocity": 0.7874015748031497,
                    "duration": 0.34090912499999604
                },
                {
                    "name": "D#5",
                    "midi": 75,
                    "time": 220.90911299999829,
                    "velocity": 0.7874015748031497,
                    "duration": 0.34090912499999604
                },
                {
                    "name": "D5",
                    "midi": 74,
                    "time": 221.36365849999828,
                    "velocity": 0.7874015748031497,
                    "duration": 0.34090912499999604
                },
                {
                    "name": "C5",
                    "midi": 72,
                    "time": 221.81820399999827,
                    "velocity": 0.7874015748031497,
                    "duration": 0.34090912499999604
                },
                {
                    "name": "B4",
                    "midi": 71,
                    "time": 222.27274949999827,
                    "velocity": 0.7874015748031497,
                    "duration": 0.34090912499999604
                },
                {
                    "name": "C5",
                    "midi": 72,
                    "time": 222.72729499999826,
                    "velocity": 0.7874015748031497,
                    "duration": 1.3636365000000126
                },
                {
                    "name": "B4",
                    "midi": 71,
                    "time": 224.54547699999827,
                    "velocity": 0.7874015748031497,
                    "duration": 0.6818182499999921
                },
                {
                    "name": "C5",
                    "midi": 72,
                    "time": 225.45456799999826,
                    "velocity": 0.7874015748031497,
                    "duration": 3.636363999999986
                }
            ],
            "controlChanges": {
                "7": [
                    {
                        "number": 7,
                        "time": 0,
                        "value": 0.7086614173228346
                    }
                ],
                "10": [
                    {
                        "number": 10,
                        "time": 0,
                        "value": 0.7874015748031497
                    }
                ]
            },
            "id": 2,
            "name": "Violin 2",
            "instrumentNumber": 48,
            "instrument": "string ensemble 1",
            "instrumentFamily": "ensemble",
            "channelNumber": 1,
            "isPercussion": false
        },
        {
            "startTime": 0,
            "duration": 229.0909319999983,
            "length": 392,
            "notes": [
                {
                    "name": "G4",
                    "midi": 67,
                    "time": 0,
                    "velocity": 0.7874015748031497,
                    "duration": 1.818182
                },
                {
                    "name": "G#4",
                    "midi": 68,
                    "time": 1.818182,
                    "velocity": 0.7874015748031497,
                    "duration": 0.9090909999999999
                },
                {
                    "name": "B4",
                    "midi": 71,
                    "time": 2.727273,
                    "velocity": 0.7874015748031497,
                    "duration": 0.9090910000000001
                },
                {
                    "name": "C5",
                    "midi": 72,
                    "time": 3.636364,
                    "velocity": 0.7874015748031497,
                    "duration": 0.4545454999999996
                },
                {
                    "name": "G4",
                    "midi": 67,
                    "time": 4.0909094999999995,
                    "velocity": 0.7874015748031497,
                    "duration": 0.45454550000000005
                },
                {
                    "name": "G#4",
                    "midi": 68,
                    "time": 4.545455,
                    "velocity": 0.7874015748031497,
                    "duration": 1.3636365000000001
                },
                {
                    "name": "G#4",
                    "midi": 68,
                    "time": 5.9090915,
                    "velocity": 0.7874015748031497,
                    "duration": 0.45454550000000005
                },
                {
                    "name": "G4",
                    "midi": 67,
                    "time": 6.363637,
                    "velocity": 0.7874015748031497,
                    "duration": 1.3636365000000001
                },
                {
                    "name": "G4",
                    "midi": 67,
                    "time": 7.7272735,
                    "velocity": 0.7874015748031497,
                    "duration": 0.45454549999999916
                },
                {
                    "name": "F4",
                    "midi": 65,
                    "time": 8.181818999999999,
                    "velocity": 0.7874015748031497,
                    "duration": 1.3636365000000001
                },
                {
                    "name": "F4",
                    "midi": 65,
                    "time": 9.5454555,
                    "velocity": 0.7874015748031497,
                    "duration": 0.45454550000000005
                },
                {
                    "name": "D#4",
                    "midi": 63,
                    "time": 10.000001,
                    "velocity": 0.7874015748031497,
                    "duration": 0.9090910000000001
                },
                {
                    "name": "D4",
                    "midi": 62,
                    "time": 10.909092,
                    "velocity": 0.7874015748031497,
                    "duration": 0.45454550000000005
                },
                {
                    "name": "D#4",
                    "midi": 63,
                    "time": 11.3636375,
                    "velocity": 0.7874015748031497,
                    "duration": 0.45454550000000005
                },
                {
                    "name": "F4",
                    "midi": 65,
                    "time": 11.818183,
                    "velocity": 0.7874015748031497,
                    "duration": 0.9090910000000001
                },
                {
                    "name": "D#4",
                    "midi": 63,
                    "time": 12.727274,
                    "velocity": 0.7874015748031497,
                    "duration": 0.45454550000000005
                },
                {
                    "name": "F4",
                    "midi": 65,
                    "time": 13.1818195,
                    "velocity": 0.7874015748031497,
                    "duration": 0.45454550000000005
                },
                {
                    "name": "G4",
                    "midi": 67,
                    "time": 13.636365,
                    "velocity": 0.7874015748031497,
                    "duration": 0.9090910000000001
                },
                {
                    "name": "C4",
                    "midi": 60,
                    "time": 14.545456,
                    "velocity": 0.7874015748031497,
                    "duration": 0.9090910000000001
                },
                {
                    "name": "B3",
                    "midi": 59,
                    "time": 15.454547,
                    "velocity": 0.7874015748031497,
                    "duration": 0.9090909999999983
                },
                {
                    "name": "C4",
                    "midi": 60,
                    "time": 16.363637999999998,
                    "velocity": 0.7874015748031497,
                    "duration": 0.9090910000000001
                },
                {
                    "name": "F4",
                    "midi": 65,
                    "time": 17.272728999999998,
                    "velocity": 0.7874015748031497,
                    "duration": 0.9090910000000001
                },
                {
                    "name": "F4",
                    "midi": 65,
                    "time": 18.18182,
                    "velocity": 0.7874015748031497,
                    "duration": 1.3636364999999984
                },
                {
                    "name": "D4",
                    "midi": 62,
                    "time": 20.000001999999995,
                    "velocity": 0.7874015748031497,
                    "duration": 1.3636364999999984
                },
                {
                    "name": "D4",
                    "midi": 62,
                    "time": 21.363638499999993,
                    "velocity": 0.7874015748031497,
                    "duration": 0.45454549999999827
                },
                {
                    "name": "G4",
                    "midi": 67,
                    "time": 21.81818399999999,
                    "velocity": 0.7874015748031497,
                    "duration": 1.3636364999999984
                },
                {
                    "name": "G4",
                    "midi": 67,
                    "time": 23.18182049999999,
                    "velocity": 0.7874015748031497,
                    "duration": 0.45454549999999827
                },
                {
                    "name": "G4",
                    "midi": 67,
                    "time": 23.636365999999988,
                    "velocity": 0.7874015748031497,
                    "duration": 1.3636364999999984
                },
                {
                    "name": "G4",
                    "midi": 67,
                    "time": 25.000002499999987,
                    "velocity": 0.7874015748031497,
                    "duration": 0.45454549999999827
                },
                {
                    "name": "F4",
                    "midi": 65,
                    "time": 25.454547999999985,
                    "velocity": 0.7874015748031497,
                    "duration": 1.3636364999999984
                },
                {
                    "name": "F4",
                    "midi": 65,
                    "time": 26.818184499999983,
                    "velocity": 0.7874015748031497,
                    "duration": 0.45454549999999827
                },
                {
                    "name": "F#4",
                    "midi": 66,
                    "time": 27.27272999999998,
                    "velocity": 0.7874015748031497,
                    "duration": 0.9090910000000001
                },
                {
                    "name": "G4",
                    "midi": 67,
                    "time": 28.18182099999998,
                    "velocity": 0.7874015748031497,
                    "duration": 0.9090910000000001
                },
                {
                    "name": "A4",
                    "midi": 69,
                    "time": 29.09091199999998,
                    "velocity": 0.7874015748031497,
                    "duration": 0.9090910000000001
                },
                {
                    "name": "F#4",
                    "midi": 66,
                    "time": 30.00000299999998,
                    "velocity": 0.7874015748031497,
                    "duration": 0.9090910000000001
                },
                {
                    "name": "D4",
                    "midi": 62,
                    "time": 30.909093999999982,
                    "velocity": 0.7874015748031497,
                    "duration": 2.7272729999999967
                },
                {
                    "name": "D4",
                    "midi": 62,
                    "time": 33.63636699999998,
                    "velocity": 0.7874015748031497,
                    "duration": 1.3636364999999984
                },
                {
                    "name": "D4",
                    "midi": 62,
                    "time": 35.00000349999998,
                    "velocity": 0.7874015748031497,
                    "duration": 0.4545455000000018
                },
                {
                    "name": "C4",
                    "midi": 60,
                    "time": 35.45454899999998,
                    "velocity": 0.7874015748031497,
                    "duration": 0.9090909999999965
                },
                {
                    "name": "C4",
                    "midi": 60,
                    "time": 36.363639999999975,
                    "velocity": 0.7874015748031497,
                    "duration": 1.8181820000000002
                },
                {
                    "name": "C4",
                    "midi": 60,
                    "time": 38.181821999999976,
                    "velocity": 0.7874015748031497,
                    "duration": 0.4545455000000018
                },
                {
                    "name": "C4",
                    "midi": 60,
                    "time": 38.63636749999998,
                    "velocity": 0.7874015748031497,
                    "duration": 0.4545455000000018
                },
                {
                    "name": "D4",
                    "midi": 62,
                    "time": 39.09091299999998,
                    "velocity": 0.7874015748031497,
                    "duration": 0.9090909999999965
                },
                {
                    "name": "D4",
                    "midi": 62,
                    "time": 40.000003999999976,
                    "velocity": 0.7874015748031497,
                    "duration": 0.6818182499999992
                },
                {
                    "name": "D4",
                    "midi": 62,
                    "time": 40.681822249999975,
                    "velocity": 0.7874015748031497,
                    "duration": 0.22727274999999736
                },
                {
                    "name": "G4",
                    "midi": 67,
                    "time": 40.90909499999997,
                    "velocity": 0.7874015748031497,
                    "duration": 0.6818182499999992
                },
                {
                    "name": "G4",
                    "midi": 67,
                    "time": 41.59091324999997,
                    "velocity": 0.7874015748031497,
                    "duration": 0.22727274999999736
                },
                {
                    "name": "G4",
                    "midi": 67,
                    "time": 41.81818599999997,
                    "velocity": 0.7874015748031497,
                    "duration": 1.3636364999999984
                },
                {
                    "name": "F4",
                    "midi": 65,
                    "time": 43.18182249999997,
                    "velocity": 0.7874015748031497,
                    "duration": 0.4545455000000018
                },
                {
                    "name": "D#4",
                    "midi": 63,
                    "time": 43.63636799999997,
                    "velocity": 0.7874015748031497,
                    "duration": 0.6818182499999992
                },
                {
                    "name": "D4",
                    "midi": 62,
                    "time": 55.00000549999997,
                    "velocity": 0.7874015748031497,
                    "duration": 0.34090912500000314
                },
                {
                    "name": "G4",
                    "midi": 67,
                    "time": 55.454550999999974,
                    "velocity": 0.7874015748031497,
                    "duration": 0.34090912500000314
                },
                {
                    "name": "D4",
                    "midi": 62,
                    "time": 55.909096499999976,
                    "velocity": 0.7874015748031497,
                    "duration": 0.34090912500000314
                },
                {
                    "name": "G4",
                    "midi": 67,
                    "time": 56.36364199999998,
                    "velocity": 0.7874015748031497,
                    "duration": 0.34090912500000314
                },
                {
                    "name": "A#4",
                    "midi": 70,
                    "time": 56.81818749999998,
                    "velocity": 0.7874015748031497,
                    "duration": 0.34090912500000314
                },
                {
                    "name": "G4",
                    "midi": 67,
                    "time": 57.27273299999998,
                    "velocity": 0.7874015748031497,
                    "duration": 0.34090912500000314
                },
                {
                    "name": "A#4",
                    "midi": 70,
                    "time": 57.72727849999998,
                    "velocity": 0.7874015748031497,
                    "duration": 0.34090912500000314
                },
                {
                    "name": "G4",
                    "midi": 67,
                    "time": 58.181823999999985,
                    "velocity": 0.7874015748031497,
                    "duration": 0.34090912500000314
                },
                {
                    "name": "G4",
                    "midi": 67,
                    "time": 58.63636949999999,
                    "velocity": 0.7874015748031497,
                    "duration": 0.34090912500000314
                },
                {
                    "name": "G4",
                    "midi": 67,
                    "time": 59.09091499999999,
                    "velocity": 0.7874015748031497,
                    "duration": 0.34090912500000314
                },
                {
                    "name": "G4",
                    "midi": 67,
                    "time": 59.54546049999999,
                    "velocity": 0.7874015748031497,
                    "duration": 0.34090912500000314
                },
                {
                    "name": "G4",
                    "midi": 67,
                    "time": 60.00000599999999,
                    "velocity": 0.7874015748031497,
                    "duration": 0.34090912500000314
                },
                {
                    "name": "F#4",
                    "midi": 66,
                    "time": 60.454551499999994,
                    "velocity": 0.7874015748031497,
                    "duration": 0.1742424416666637
                },
                {
                    "name": "E4",
                    "midi": 64,
                    "time": 60.68182424999999,
                    "velocity": 0.7874015748031497,
                    "duration": 0.1742424416666637
                },
                {
                    "name": "D4",
                    "midi": 62,
                    "time": 60.90909699999999,
                    "velocity": 0.7874015748031497,
                    "duration": 0.34090912500000314
                },
                {
                    "name": "D4",
                    "midi": 62,
                    "time": 61.36364249999999,
                    "velocity": 0.7874015748031497,
                    "duration": 0.34090912500000314
                },
                {
                    "name": "D4",
                    "midi": 62,
                    "time": 61.81818799999999,
                    "velocity": 0.7874015748031497,
                    "duration": 0.34090912500000314
                },
                {
                    "name": "B3",
                    "midi": 59,
                    "time": 62.272733499999994,
                    "velocity": 0.7874015748031497,
                    "duration": 0.34090912500000314
                },
                {
                    "name": "C4",
                    "midi": 60,
                    "time": 62.727278999999996,
                    "velocity": 0.7874015748031497,
                    "duration": 0.34090912500000314
                },
                {
                    "name": "D4",
                    "midi": 62,
                    "time": 63.1818245,
                    "velocity": 0.7874015748031497,
                    "duration": 0.34090912500000314
                },
                {
                    "name": "G3",
                    "midi": 55,
                    "time": 63.63637,
                    "velocity": 0.7874015748031497,
                    "duration": 0.34090912500000314
                },
                {
                    "name": "G3",
                    "midi": 55,
                    "time": 64.09091550000001,
                    "velocity": 0.7874015748031497,
                    "duration": 0.34090912499999604
                },
                {
                    "name": "G3",
                    "midi": 55,
                    "time": 64.545461,
                    "velocity": 0.7874015748031497,
                    "duration": 0.34090912499999604
                },
                {
                    "name": "G3",
                    "midi": 55,
                    "time": 65.0000065,
                    "velocity": 0.7874015748031497,
                    "duration": 0.34090912499999604
                },
                {
                    "name": "G3",
                    "midi": 55,
                    "time": 65.45455199999999,
                    "velocity": 0.7874015748031497,
                    "duration": 0.34090912499999604
                },
                {
                    "name": "C4",
                    "midi": 60,
                    "time": 65.90909749999999,
                    "velocity": 0.7874015748031497,
                    "duration": 0.34090912499999604
                },
                {
                    "name": "C4",
                    "midi": 60,
                    "time": 66.36364299999998,
                    "velocity": 0.7874015748031497,
                    "duration": 0.34090912499999604
                },
                {
                    "name": "C4",
                    "midi": 60,
                    "time": 66.81818849999998,
                    "velocity": 0.7874015748031497,
                    "duration": 0.34090912499999604
                },
                {
                    "name": "G#3",
                    "midi": 56,
                    "time": 67.27273399999997,
                    "velocity": 0.7874015748031497,
                    "duration": 0.34090912499999604
                },
                {
                    "name": "C4",
                    "midi": 60,
                    "time": 67.72727949999997,
                    "velocity": 0.7874015748031497,
                    "duration": 0.34090912499999604
                },
                {
                    "name": "F4",
                    "midi": 65,
                    "time": 68.18182499999996,
                    "velocity": 0.7874015748031497,
                    "duration": 0.34090912499999604
                },
                {
                    "name": "F4",
                    "midi": 65,
                    "time": 68.63637049999996,
                    "velocity": 0.7874015748031497,
                    "duration": 0.34090912499999604
                },
                {
                    "name": "F4",
                    "midi": 65,
                    "time": 69.09091599999995,
                    "velocity": 0.7874015748031497,
                    "duration": 0.34090912499999604
                },
                {
                    "name": "D4",
                    "midi": 62,
                    "time": 69.54546149999994,
                    "velocity": 0.7874015748031497,
                    "duration": 0.34090912499999604
                },
                {
                    "name": "D#4",
                    "midi": 63,
                    "time": 70.00000699999994,
                    "velocity": 0.7874015748031497,
                    "duration": 0.34090912499999604
                },
                {
                    "name": "D4",
                    "midi": 62,
                    "time": 70.45455249999993,
                    "velocity": 0.7874015748031497,
                    "duration": 0.34090912499999604
                },
                {
                    "name": "D4",
                    "midi": 62,
                    "time": 70.90909799999993,
                    "velocity": 0.7874015748031497,
                    "duration": 0.6818182500000063
                },
                {
                    "name": "G3",
                    "midi": 55,
                    "time": 73.18182549999993,
                    "velocity": 0.7874015748031497,
                    "duration": 0.34090912499999604
                },
                {
                    "name": "C4",
                    "midi": 60,
                    "time": 73.63637099999993,
                    "velocity": 0.7874015748031497,
                    "duration": 0.34090912499999604
                },
                {
                    "name": "G3",
                    "midi": 55,
                    "time": 74.09091649999992,
                    "velocity": 0.7874015748031497,
                    "duration": 0.34090912499999604
                },
                {
                    "name": "C4",
                    "midi": 60,
                    "time": 74.54546199999992,
                    "velocity": 0.7874015748031497,
                    "duration": 0.34090912499999604
                },
                {
                    "name": "D#4",
                    "midi": 63,
                    "time": 75.00000749999991,
                    "velocity": 0.7874015748031497,
                    "duration": 0.34090912499999604
                },
                {
                    "name": "C4",
                    "midi": 60,
                    "time": 75.4545529999999,
                    "velocity": 0.7874015748031497,
                    "duration": 0.34090912499999604
                },
                {
                    "name": "D#4",
                    "midi": 63,
                    "time": 75.9090984999999,
                    "velocity": 0.7874015748031497,
                    "duration": 0.34090912499999604
                },
                {
                    "name": "C4",
                    "midi": 60,
                    "time": 76.3636439999999,
                    "velocity": 0.7874015748031497,
                    "duration": 0.34090912499999604
                },
                {
                    "name": "C4",
                    "midi": 60,
                    "time": 76.81818949999989,
                    "velocity": 0.7874015748031497,
                    "duration": 0.34090912499999604
                },
                {
                    "name": "D4",
                    "midi": 62,
                    "time": 77.27273499999988,
                    "velocity": 0.7874015748031497,
                    "duration": 0.34090912499999604
                },
                {
                    "name": "D#4",
                    "midi": 63,
                    "time": 77.72728049999988,
                    "velocity": 0.7874015748031497,
                    "duration": 0.34090912499999604
                },
                {
                    "name": "F4",
                    "midi": 65,
                    "time": 78.18182599999987,
                    "velocity": 0.7874015748031497,
                    "duration": 0.34090912499999604
                },
                {
                    "name": "F4",
                    "midi": 65,
                    "time": 78.63637149999987,
                    "velocity": 0.7874015748031497,
                    "duration": 0.34090912499999604
                },
                {
                    "name": "F4",
                    "midi": 65,
                    "time": 79.09091699999986,
                    "velocity": 0.7874015748031497,
                    "duration": 0.34090912499999604
                },
                {
                    "name": "F4",
                    "midi": 65,
                    "time": 79.54546249999986,
                    "velocity": 0.7874015748031497,
                    "duration": 0.34090912499999604
                },
                {
                    "name": "F4",
                    "midi": 65,
                    "time": 80.00000799999985,
                    "velocity": 0.7874015748031497,
                    "duration": 0.34090912499999604
                },
                {
                    "name": "A#4",
                    "midi": 70,
                    "time": 80.45455349999985,
                    "velocity": 0.7874015748031497,
                    "duration": 0.34090912499999604
                },
                {
                    "name": "A#4",
                    "midi": 70,
                    "time": 80.90909899999984,
                    "velocity": 0.7874015748031497,
                    "duration": 0.34090912499999604
                },
                {
                    "name": "A#4",
                    "midi": 70,
                    "time": 81.36364449999984,
                    "velocity": 0.7874015748031497,
                    "duration": 0.34090912499999604
                },
                {
                    "name": "A#4",
                    "midi": 70,
                    "time": 81.81818999999983,
                    "velocity": 0.7874015748031497,
                    "duration": 0.34090912499999604
                },
                {
                    "name": "G4",
                    "midi": 67,
                    "time": 82.27273549999983,
                    "velocity": 0.7874015748031497,
                    "duration": 0.34090912499999604
                },
                {
                    "name": "A#4",
                    "midi": 70,
                    "time": 82.72728099999982,
                    "velocity": 0.7874015748031497,
                    "duration": 0.34090912499999604
                },
                {
                    "name": "D#4",
                    "midi": 63,
                    "time": 83.18182649999981,
                    "velocity": 0.7874015748031497,
                    "duration": 0.34090912499999604
                },
                {
                    "name": "G4",
                    "midi": 67,
                    "time": 83.63637199999981,
                    "velocity": 0.7874015748031497,
                    "duration": 0.34090912499999604
                },
                {
                    "name": "F4",
                    "midi": 65,
                    "time": 84.0909174999998,
                    "velocity": 0.7874015748031497,
                    "duration": 0.34090912499999604
                },
                {
                    "name": "D#4",
                    "midi": 63,
                    "time": 84.5454629999998,
                    "velocity": 0.7874015748031497,
                    "duration": 0.34090912499999604
                },
                {
                    "name": "D#4",
                    "midi": 63,
                    "time": 85.0000084999998,
                    "velocity": 0.7874015748031497,
                    "duration": 0.34090912499999604
                },
                {
                    "name": "D#4",
                    "midi": 63,
                    "time": 85.45455399999979,
                    "velocity": 0.7874015748031497,
                    "duration": 0.34090912499999604
                },
                {
                    "name": "D#4",
                    "midi": 63,
                    "time": 85.90909949999978,
                    "velocity": 0.7874015748031497,
                    "duration": 0.34090912499999604
                },
                {
                    "name": "G#4",
                    "midi": 68,
                    "time": 86.36364499999978,
                    "velocity": 0.7874015748031497,
                    "duration": 0.34090912499999604
                },
                {
                    "name": "D#4",
                    "midi": 63,
                    "time": 86.81819049999977,
                    "velocity": 0.7874015748031497,
                    "duration": 0.34090912499999604
                },
                {
                    "name": "G#4",
                    "midi": 68,
                    "time": 87.27273599999977,
                    "velocity": 0.7874015748031497,
                    "duration": 0.34090912499999604
                },
                {
                    "name": "C5",
                    "midi": 72,
                    "time": 87.72728149999976,
                    "velocity": 0.7874015748031497,
                    "duration": 0.34090912499999604
                },
                {
                    "name": "G#4",
                    "midi": 68,
                    "time": 88.18182699999976,
                    "velocity": 0.7874015748031497,
                    "duration": 0.34090912499999604
                },
                {
                    "name": "C5",
                    "midi": 72,
                    "time": 88.63637249999975,
                    "velocity": 0.7874015748031497,
                    "duration": 0.34090912499999604
                },
                {
                    "name": "G#4",
                    "midi": 68,
                    "time": 89.09091799999975,
                    "velocity": 0.7874015748031497,
                    "duration": 0.34090912499999604
                },
                {
                    "name": "C5",
                    "midi": 72,
                    "time": 89.54546349999974,
                    "velocity": 0.7874015748031497,
                    "duration": 0.34090912499999604
                },
                {
                    "name": "G#4",
                    "midi": 68,
                    "time": 90.00000899999974,
                    "velocity": 0.7874015748031497,
                    "duration": 0.34090912499999604
                },
                {
                    "name": "G#4",
                    "midi": 68,
                    "time": 90.45455449999973,
                    "velocity": 0.7874015748031497,
                    "duration": 0.34090912499999604
                },
                {
                    "name": "F4",
                    "midi": 65,
                    "time": 90.90909999999973,
                    "velocity": 0.7874015748031497,
                    "duration": 0.34090912499999604
                },
                {
                    "name": "D4",
                    "midi": 62,
                    "time": 91.36364549999972,
                    "velocity": 0.7874015748031497,
                    "duration": 0.34090912499999604
                },
                {
                    "name": "D4",
                    "midi": 62,
                    "time": 91.81819099999971,
                    "velocity": 0.7874015748031497,
                    "duration": 0.34090912499999604
                },
                {
                    "name": "D4",
                    "midi": 62,
                    "time": 92.27273649999971,
                    "velocity": 0.7874015748031497,
                    "duration": 0.34090912499999604
                },
                {
                    "name": "D#4",
                    "midi": 63,
                    "time": 92.7272819999997,
                    "velocity": 0.7874015748031497,
                    "duration": 0.34090912499999604
                },
                {
                    "name": "C4",
                    "midi": 60,
                    "time": 93.1818274999997,
                    "velocity": 0.7874015748031497,
                    "duration": 0.34090912499999604
                },
                {
                    "name": "D#4",
                    "midi": 63,
                    "time": 93.6363729999997,
                    "velocity": 0.7874015748031497,
                    "duration": 0.34090912499999604
                },
                {
                    "name": "C4",
                    "midi": 60,
                    "time": 94.09091849999969,
                    "velocity": 0.7874015748031497,
                    "duration": 0.34090912499999604
                },
                {
                    "name": "D4",
                    "midi": 62,
                    "time": 94.54546399999968,
                    "velocity": 0.7874015748031497,
                    "duration": 0.34090912499999604
                },
                {
                    "name": "A#3",
                    "midi": 58,
                    "time": 95.00000949999968,
                    "velocity": 0.7874015748031497,
                    "duration": 0.34090912499999604
                },
                {
                    "name": "D4",
                    "midi": 62,
                    "time": 95.45455499999967,
                    "velocity": 0.7874015748031497,
                    "duration": 0.34090912499999604
                },
                {
                    "name": "A#3",
                    "midi": 58,
                    "time": 95.90910049999967,
                    "velocity": 0.7874015748031497,
                    "duration": 0.34090912499999604
                },
                {
                    "name": "C4",
                    "midi": 60,
                    "time": 96.36364599999966,
                    "velocity": 0.7874015748031497,
                    "duration": 0.34090912499999604
                },
                {
                    "name": "G#3",
                    "midi": 56,
                    "time": 96.81819149999966,
                    "velocity": 0.7874015748031497,
                    "duration": 0.34090912499999604
                },
                {
                    "name": "C4",
                    "midi": 60,
                    "time": 97.27273699999965,
                    "velocity": 0.7874015748031497,
                    "duration": 0.34090912499999604
                },
                {
                    "name": "G#3",
                    "midi": 56,
                    "time": 97.72728249999965,
                    "velocity": 0.7874015748031497,
                    "duration": 0.34090912499999604
                },
                {
                    "name": "A#3",
                    "midi": 58,
                    "time": 98.18182799999964,
                    "velocity": 0.7874015748031497,
                    "duration": 0.34090912499999604
                },
                {
                    "name": "G3",
                    "midi": 55,
                    "time": 98.63637349999964,
                    "velocity": 0.7874015748031497,
                    "duration": 0.34090912499999604
                },
                {
                    "name": "G3",
                    "midi": 55,
                    "time": 99.09091899999963,
                    "velocity": 0.7874015748031497,
                    "duration": 0.34090912499999604
                },
                {
                    "name": "G3",
                    "midi": 55,
                    "time": 99.54546449999962,
                    "velocity": 0.7874015748031497,
                    "duration": 0.34090912499999604
                },
                {
                    "name": "D4",
                    "midi": 62,
                    "time": 100.00000999999962,
                    "velocity": 0.7874015748031497,
                    "duration": 0.34090912499999604
                },
                {
                    "name": "D4",
                    "midi": 62,
                    "time": 100.45455549999961,
                    "velocity": 0.7874015748031497,
                    "duration": 0.34090912499999604
                },
                {
                    "name": "D4",
                    "midi": 62,
                    "time": 100.90910099999961,
                    "velocity": 0.7874015748031497,
                    "duration": 0.34090912499999604
                },
                {
                    "name": "B3",
                    "midi": 59,
                    "time": 101.3636464999996,
                    "velocity": 0.7874015748031497,
                    "duration": 0.34090912499999604
                },
                {
                    "name": "C4",
                    "midi": 60,
                    "time": 101.8181919999996,
                    "velocity": 0.7874015748031497,
                    "duration": 0.34090912499999604
                },
                {
                    "name": "D#4",
                    "midi": 63,
                    "time": 102.2727374999996,
                    "velocity": 0.7874015748031497,
                    "duration": 0.34090912499999604
                },
                {
                    "name": "D#4",
                    "midi": 63,
                    "time": 102.72728299999959,
                    "velocity": 0.7874015748031497,
                    "duration": 0.34090912499999604
                },
                {
                    "name": "D#4",
                    "midi": 63,
                    "time": 103.18182849999958,
                    "velocity": 0.7874015748031497,
                    "duration": 0.34090912499999604
                },
                {
                    "name": "D#4",
                    "midi": 63,
                    "time": 103.63637399999958,
                    "velocity": 0.7874015748031497,
                    "duration": 0.34090912499999604
                },
                {
                    "name": "D4",
                    "midi": 62,
                    "time": 104.09091949999957,
                    "velocity": 0.7874015748031497,
                    "duration": 0.34090912499999604
                },
                {
                    "name": "D4",
                    "midi": 62,
                    "time": 104.54546499999957,
                    "velocity": 0.7874015748031497,
                    "duration": 0.34090912499999604
                },
                {
                    "name": "D4",
                    "midi": 62,
                    "time": 105.00001049999956,
                    "velocity": 0.7874015748031497,
                    "duration": 0.34090912499999604
                },
                {
                    "name": "D4",
                    "midi": 62,
                    "time": 105.45455599999956,
                    "velocity": 0.7874015748031497,
                    "duration": 0.34090912499999604
                },
                {
                    "name": "C4",
                    "midi": 60,
                    "time": 105.90910149999955,
                    "velocity": 0.7874015748031497,
                    "duration": 0.34090912499999604
                },
                {
                    "name": "C4",
                    "midi": 60,
                    "time": 106.36364699999955,
                    "velocity": 0.7874015748031497,
                    "duration": 0.34090912499999604
                },
                {
                    "name": "C4",
                    "midi": 60,
                    "time": 106.81819249999954,
                    "velocity": 0.7874015748031497,
                    "duration": 0.34090912499999604
                },
                {
                    "name": "C4",
                    "midi": 60,
                    "time": 107.27273799999953,
                    "velocity": 0.7874015748031497,
                    "duration": 0.34090912499999604
                },
                {
                    "name": "A3",
                    "midi": 57,
                    "time": 107.72728349999953,
                    "velocity": 0.7874015748031497,
                    "duration": 0.34090912499999604
                },
                {
                    "name": "D4",
                    "midi": 62,
                    "time": 108.18182899999952,
                    "velocity": 0.7874015748031497,
                    "duration": 0.34090912499999604
                },
                {
                    "name": "A3",
                    "midi": 57,
                    "time": 108.63637449999952,
                    "velocity": 0.7874015748031497,
                    "duration": 0.34090912499999604
                },
                {
                    "name": "A#3",
                    "midi": 58,
                    "time": 109.09091999999951,
                    "velocity": 0.7874015748031497,
                    "duration": 0.34090912499999604
                },
                {
                    "name": "G3",
                    "midi": 55,
                    "time": 109.54546549999951,
                    "velocity": 0.7874015748031497,
                    "duration": 0.34090912499999604
                },
                {
                    "name": "C4",
                    "midi": 60,
                    "time": 110.0000109999995,
                    "velocity": 0.7874015748031497,
                    "duration": 0.34090912499999604
                },
                {
                    "name": "G3",
                    "midi": 55,
                    "time": 110.4545564999995,
                    "velocity": 0.7874015748031497,
                    "duration": 0.34090912499999604
                },
                {
                    "name": "A3",
                    "midi": 57,
                    "time": 110.90910199999949,
                    "velocity": 0.7874015748031497,
                    "duration": 0.34090912499999604
                },
                {
                    "name": "F#3",
                    "midi": 54,
                    "time": 111.36364749999949,
                    "velocity": 0.7874015748031497,
                    "duration": 0.34090912499999604
                },
                {
                    "name": "A#3",
                    "midi": 58,
                    "time": 111.81819299999948,
                    "velocity": 0.7874015748031497,
                    "duration": 0.34090912499999604
                },
                {
                    "name": "A#3",
                    "midi": 58,
                    "time": 112.27273849999948,
                    "velocity": 0.7874015748031497,
                    "duration": 0.34090912499999604
                },
                {
                    "name": "A#3",
                    "midi": 58,
                    "time": 112.72728399999947,
                    "velocity": 0.7874015748031497,
                    "duration": 0.34090912499999604
                },
                {
                    "name": "A#3",
                    "midi": 58,
                    "time": 113.18182949999947,
                    "velocity": 0.7874015748031497,
                    "duration": 0.34090912499999604
                },
                {
                    "name": "A#3",
                    "midi": 58,
                    "time": 113.63637499999946,
                    "velocity": 0.7874015748031497,
                    "duration": 0.34090912499999604
                },
                {
                    "name": "G3",
                    "midi": 55,
                    "time": 114.09092049999946,
                    "velocity": 0.7874015748031497,
                    "duration": 0.34090912499999604
                },
                {
                    "name": "A3",
                    "midi": 57,
                    "time": 114.54546599999945,
                    "velocity": 0.7874015748031497,
                    "duration": 0.34090912499999604
                },
                {
                    "name": "A3",
                    "midi": 57,
                    "time": 115.00001149999945,
                    "velocity": 0.7874015748031497,
                    "duration": 0.34090912499999604
                },
                {
                    "name": "D4",
                    "midi": 62,
                    "time": 115.45455699999944,
                    "velocity": 0.7874015748031497,
                    "duration": 0.34090912499999604
                },
                {
                    "name": "D4",
                    "midi": 62,
                    "time": 115.90910249999943,
                    "velocity": 0.7874015748031497,
                    "duration": 0.34090912499999604
                },
                {
                    "name": "D4",
                    "midi": 62,
                    "time": 116.36364799999943,
                    "velocity": 0.7874015748031497,
                    "duration": 0.34090912499999604
                },
                {
                    "name": "A#3",
                    "midi": 58,
                    "time": 116.81819349999942,
                    "velocity": 0.7874015748031497,
                    "duration": 0.34090912499999604
                },
                {
                    "name": "D#4",
                    "midi": 63,
                    "time": 117.27273899999942,
                    "velocity": 0.7874015748031497,
                    "duration": 0.34090912499999604
                },
                {
                    "name": "D#4",
                    "midi": 63,
                    "time": 117.72728449999941,
                    "velocity": 0.7874015748031497,
                    "duration": 0.34090912499999604
                },
                {
                    "name": "D#4",
                    "midi": 63,
                    "time": 118.18182999999941,
                    "velocity": 0.7874015748031497,
                    "duration": 0.34090912499999604
                },
                {
                    "name": "C4",
                    "midi": 60,
                    "time": 118.6363754999994,
                    "velocity": 0.7874015748031497,
                    "duration": 0.34090912499999604
                },
                {
                    "name": "F4",
                    "midi": 65,
                    "time": 119.0909209999994,
                    "velocity": 0.7874015748031497,
                    "duration": 0.34090912499999604
                },
                {
                    "name": "F4",
                    "midi": 65,
                    "time": 119.54546649999939,
                    "velocity": 0.7874015748031497,
                    "duration": 0.34090912499999604
                },
                {
                    "name": "F4",
                    "midi": 65,
                    "time": 120.00001199999939,
                    "velocity": 0.7874015748031497,
                    "duration": 0.34090912499999604
                },
                {
                    "name": "D4",
                    "midi": 62,
                    "time": 120.45455749999938,
                    "velocity": 0.7874015748031497,
                    "duration": 0.34090912499999604
                },
                {
                    "name": "G4",
                    "midi": 67,
                    "time": 120.90910299999938,
                    "velocity": 0.7874015748031497,
                    "duration": 0.34090912499999604
                },
                {
                    "name": "G4",
                    "midi": 67,
                    "time": 121.36364849999937,
                    "velocity": 0.7874015748031497,
                    "duration": 0.34090912499999604
                },
                {
                    "name": "G4",
                    "midi": 67,
                    "time": 121.81819399999937,
                    "velocity": 0.7874015748031497,
                    "duration": 0.34090912499999604
                },
                {
                    "name": "D#4",
                    "midi": 63,
                    "time": 122.27273949999936,
                    "velocity": 0.7874015748031497,
                    "duration": 0.34090912499999604
                },
                {
                    "name": "G#4",
                    "midi": 68,
                    "time": 122.72728499999936,
                    "velocity": 0.7874015748031497,
                    "duration": 0.34090912499999604
                },
                {
                    "name": "G#4",
                    "midi": 68,
                    "time": 123.18183049999935,
                    "velocity": 0.7874015748031497,
                    "duration": 0.34090912499999604
                },
                {
                    "name": "G#4",
                    "midi": 68,
                    "time": 123.63637599999934,
                    "velocity": 0.7874015748031497,
                    "duration": 0.34090912499999604
                },
                {
                    "name": "F4",
                    "midi": 65,
                    "time": 124.09092149999934,
                    "velocity": 0.7874015748031497,
                    "duration": 0.34090912499999604
                },
                {
                    "name": "A#4",
                    "midi": 70,
                    "time": 124.54546699999933,
                    "velocity": 0.7874015748031497,
                    "duration": 0.34090912499999604
                },
                {
                    "name": "A#4",
                    "midi": 70,
                    "time": 125.00001249999933,
                    "velocity": 0.7874015748031497,
                    "duration": 0.34090912499999604
                },
                {
                    "name": "A#4",
                    "midi": 70,
                    "time": 125.45455799999932,
                    "velocity": 0.7874015748031497,
                    "duration": 0.34090912499999604
                },
                {
                    "name": "A#4",
                    "midi": 70,
                    "time": 125.90910349999932,
                    "velocity": 0.7874015748031497,
                    "duration": 0.34090912499999604
                },
                {
                    "name": "G#4",
                    "midi": 68,
                    "time": 126.36364899999931,
                    "velocity": 0.7874015748031497,
                    "duration": 0.34090912499999604
                },
                {
                    "name": "G4",
                    "midi": 67,
                    "time": 126.81819449999931,
                    "velocity": 0.7874015748031497,
                    "duration": 0.34090912499999604
                },
                {
                    "name": "F4",
                    "midi": 65,
                    "time": 127.2727399999993,
                    "velocity": 0.7874015748031497,
                    "duration": 0.34090912499999604
                },
                {
                    "name": "G4",
                    "midi": 67,
                    "time": 127.7272854999993,
                    "velocity": 0.7874015748031497,
                    "duration": 0.34090912500001025
                },
                {
                    "name": "G#4",
                    "midi": 68,
                    "time": 128.1818309999993,
                    "velocity": 0.7874015748031497,
                    "duration": 0.34090912499999604
                },
                {
                    "name": "G4",
                    "midi": 67,
                    "time": 128.6363764999993,
                    "velocity": 0.7874015748031497,
                    "duration": 0.34090912499999604
                },
                {
                    "name": "G4",
                    "midi": 67,
                    "time": 129.0909219999993,
                    "velocity": 0.7874015748031497,
                    "duration": 0.34090912499999604
                },
                {
                    "name": "A4",
                    "midi": 69,
                    "time": 129.5454674999993,
                    "velocity": 0.7874015748031497,
                    "duration": 0.34090912499999604
                },
                {
                    "name": "B4",
                    "midi": 71,
                    "time": 130.00001299999929,
                    "velocity": 0.7874015748031497,
                    "duration": 0.34090912499999604
                },
                {
                    "name": "B3",
                    "midi": 59,
                    "time": 130.45455849999928,
                    "velocity": 0.7874015748031497,
                    "duration": 0.34090912499999604
                },
                {
                    "name": "C4",
                    "midi": 60,
                    "time": 130.90910399999927,
                    "velocity": 0.7874015748031497,
                    "duration": 0.34090912499999604
                },
                {
                    "name": "D4",
                    "midi": 62,
                    "time": 131.36364949999927,
                    "velocity": 0.7874015748031497,
                    "duration": 0.34090912499999604
                },
                {
                    "name": "D#4",
                    "midi": 63,
                    "time": 131.81819499999926,
                    "velocity": 0.7874015748031497,
                    "duration": 0.34090912499999604
                },
                {
                    "name": "F4",
                    "midi": 65,
                    "time": 132.27274049999926,
                    "velocity": 0.7874015748031497,
                    "duration": 0.34090912499999604
                },
                {
                    "name": "G4",
                    "midi": 67,
                    "time": 132.72728599999925,
                    "velocity": 0.7874015748031497,
                    "duration": 1.0227273749999881
                },
                {
                    "name": "G4",
                    "midi": 67,
                    "time": 134.09092249999924,
                    "velocity": 0.7874015748031497,
                    "duration": 0.34090912499999604
                },
                {
                    "name": "D#4",
                    "midi": 63,
                    "time": 134.54546799999923,
                    "velocity": 0.7874015748031497,
                    "duration": 0.6818182499999921
                },
                {
                    "name": "D4",
                    "midi": 62,
                    "time": 145.9091054999992,
                    "velocity": 0.7874015748031497,
                    "duration": 0.34090912499999604
                },
                {
                    "name": "G4",
                    "midi": 67,
                    "time": 146.3636509999992,
                    "velocity": 0.7874015748031497,
                    "duration": 0.34090912499999604
                },
                {
                    "name": "D4",
                    "midi": 62,
                    "time": 146.8181964999992,
                    "velocity": 0.7874015748031497,
                    "duration": 0.34090912499999604
                },
                {
                    "name": "G4",
                    "midi": 67,
                    "time": 147.2727419999992,
                    "velocity": 0.7874015748031497,
                    "duration": 0.34090912499999604
                },
                {
                    "name": "A#4",
                    "midi": 70,
                    "time": 147.7272874999992,
                    "velocity": 0.7874015748031497,
                    "duration": 0.34090912499999604
                },
                {
                    "name": "G4",
                    "midi": 67,
                    "time": 148.1818329999992,
                    "velocity": 0.7874015748031497,
                    "duration": 0.34090912499999604
                },
                {
                    "name": "A#4",
                    "midi": 70,
                    "time": 148.63637849999918,
                    "velocity": 0.7874015748031497,
                    "duration": 0.34090912499999604
                },
                {
                    "name": "G4",
                    "midi": 67,
                    "time": 149.09092399999918,
                    "velocity": 0.7874015748031497,
                    "duration": 0.34090912499999604
                },
                {
                    "name": "G4",
                    "midi": 67,
                    "time": 149.54546949999917,
                    "velocity": 0.7874015748031497,
                    "duration": 0.34090912499999604
                },
                {
                    "name": "G4",
                    "midi": 67,
                    "time": 150.00001499999917,
                    "velocity": 0.7874015748031497,
                    "duration": 0.34090912499999604
                },
                {
                    "name": "G4",
                    "midi": 67,
                    "time": 150.45456049999916,
                    "velocity": 0.7874015748031497,
                    "duration": 0.34090912499999604
                },
                {
                    "name": "G4",
                    "midi": 67,
                    "time": 150.90910599999916,
                    "velocity": 0.7874015748031497,
                    "duration": 0.34090912499999604
                },
                {
                    "name": "F#4",
                    "midi": 66,
                    "time": 151.36365149999915,
                    "velocity": 0.7874015748031497,
                    "duration": 0.1742424416666779
                },
                {
                    "name": "E4",
                    "midi": 64,
                    "time": 151.59092424999915,
                    "velocity": 0.7874015748031497,
                    "duration": 0.1742424416666779
                },
                {
                    "name": "D4",
                    "midi": 62,
                    "time": 151.81819699999915,
                    "velocity": 0.7874015748031497,
                    "duration": 0.34090912499999604
                },
                {
                    "name": "D4",
                    "midi": 62,
                    "time": 152.27274249999914,
                    "velocity": 0.7874015748031497,
                    "duration": 0.34090912499999604
                },
                {
                    "name": "D4",
                    "midi": 62,
                    "time": 152.72728799999913,
                    "velocity": 0.7874015748031497,
                    "duration": 0.34090912499999604
                },
                {
                    "name": "B3",
                    "midi": 59,
                    "time": 153.18183349999913,
                    "velocity": 0.7874015748031497,
                    "duration": 0.34090912499999604
                },
                {
                    "name": "C4",
                    "midi": 60,
                    "time": 153.63637899999912,
                    "velocity": 0.7874015748031497,
                    "duration": 0.34090912499999604
                },
                {
                    "name": "D4",
                    "midi": 62,
                    "time": 154.09092449999912,
                    "velocity": 0.7874015748031497,
                    "duration": 0.34090912499999604
                },
                {
                    "name": "G3",
                    "midi": 55,
                    "time": 154.5454699999991,
                    "velocity": 0.7874015748031497,
                    "duration": 0.34090912499999604
                },
                {
                    "name": "G3",
                    "midi": 55,
                    "time": 155.0000154999991,
                    "velocity": 0.7874015748031497,
                    "duration": 0.34090912499999604
                },
                {
                    "name": "G3",
                    "midi": 55,
                    "time": 155.4545609999991,
                    "velocity": 0.7874015748031497,
                    "duration": 0.34090912499999604
                },
                {
                    "name": "G3",
                    "midi": 55,
                    "time": 155.9091064999991,
                    "velocity": 0.7874015748031497,
                    "duration": 0.34090912499999604
                },
                {
                    "name": "G3",
                    "midi": 55,
                    "time": 156.3636519999991,
                    "velocity": 0.7874015748031497,
                    "duration": 0.34090912499999604
                },
                {
                    "name": "C4",
                    "midi": 60,
                    "time": 156.8181974999991,
                    "velocity": 0.7874015748031497,
                    "duration": 0.34090912499999604
                },
                {
                    "name": "C4",
                    "midi": 60,
                    "time": 157.27274299999908,
                    "velocity": 0.7874015748031497,
                    "duration": 0.34090912499999604
                },
                {
                    "name": "C4",
                    "midi": 60,
                    "time": 157.72728849999908,
                    "velocity": 0.7874015748031497,
                    "duration": 0.34090912499999604
                },
                {
                    "name": "G#3",
                    "midi": 56,
                    "time": 158.18183399999907,
                    "velocity": 0.7874015748031497,
                    "duration": 0.34090912499999604
                },
                {
                    "name": "C4",
                    "midi": 60,
                    "time": 158.63637949999907,
                    "velocity": 0.7874015748031497,
                    "duration": 0.34090912499999604
                },
                {
                    "name": "F4",
                    "midi": 65,
                    "time": 159.09092499999906,
                    "velocity": 0.7874015748031497,
                    "duration": 0.34090912499999604
                },
                {
                    "name": "F4",
                    "midi": 65,
                    "time": 159.54547049999906,
                    "velocity": 0.7874015748031497,
                    "duration": 0.34090912499999604
                },
                {
                    "name": "F4",
                    "midi": 65,
                    "time": 160.00001599999905,
                    "velocity": 0.7874015748031497,
                    "duration": 0.34090912499999604
                },
                {
                    "name": "D4",
                    "midi": 62,
                    "time": 160.45456149999904,
                    "velocity": 0.7874015748031497,
                    "duration": 0.34090912499999604
                },
                {
                    "name": "D#4",
                    "midi": 63,
                    "time": 160.90910699999904,
                    "velocity": 0.7874015748031497,
                    "duration": 0.34090912499999604
                },
                {
                    "name": "D4",
                    "midi": 62,
                    "time": 161.36365249999903,
                    "velocity": 0.7874015748031497,
                    "duration": 0.34090912499999604
                },
                {
                    "name": "D4",
                    "midi": 62,
                    "time": 161.81819799999903,
                    "velocity": 0.7874015748031497,
                    "duration": 0.6818182499999921
                },
                {
                    "name": "G3",
                    "midi": 55,
                    "time": 164.09092549999903,
                    "velocity": 0.7874015748031497,
                    "duration": 0.34090912499999604
                },
                {
                    "name": "C4",
                    "midi": 60,
                    "time": 164.54547099999903,
                    "velocity": 0.7874015748031497,
                    "duration": 0.34090912499999604
                },
                {
                    "name": "G3",
                    "midi": 55,
                    "time": 165.00001649999902,
                    "velocity": 0.7874015748031497,
                    "duration": 0.34090912499999604
                },
                {
                    "name": "C4",
                    "midi": 60,
                    "time": 165.45456199999902,
                    "velocity": 0.7874015748031497,
                    "duration": 0.34090912499999604
                },
                {
                    "name": "D#4",
                    "midi": 63,
                    "time": 165.909107499999,
                    "velocity": 0.7874015748031497,
                    "duration": 0.34090912499999604
                },
                {
                    "name": "C4",
                    "midi": 60,
                    "time": 166.363652999999,
                    "velocity": 0.7874015748031497,
                    "duration": 0.34090912499999604
                },
                {
                    "name": "D#4",
                    "midi": 63,
                    "time": 166.818198499999,
                    "velocity": 0.7874015748031497,
                    "duration": 0.34090912499999604
                },
                {
                    "name": "C4",
                    "midi": 60,
                    "time": 167.272743999999,
                    "velocity": 0.7874015748031497,
                    "duration": 0.34090912499999604
                },
                {
                    "name": "C4",
                    "midi": 60,
                    "time": 167.727289499999,
                    "velocity": 0.7874015748031497,
                    "duration": 0.34090912499999604
                },
                {
                    "name": "D4",
                    "midi": 62,
                    "time": 168.18183499999898,
                    "velocity": 0.7874015748031497,
                    "duration": 0.34090912499999604
                },
                {
                    "name": "D#4",
                    "midi": 63,
                    "time": 168.63638049999898,
                    "velocity": 0.7874015748031497,
                    "duration": 0.34090912499999604
                },
                {
                    "name": "F4",
                    "midi": 65,
                    "time": 169.09092599999897,
                    "velocity": 0.7874015748031497,
                    "duration": 0.34090912499999604
                },
                {
                    "name": "F4",
                    "midi": 65,
                    "time": 169.54547149999897,
                    "velocity": 0.7874015748031497,
                    "duration": 0.34090912499999604
                },
                {
                    "name": "F4",
                    "midi": 65,
                    "time": 170.00001699999896,
                    "velocity": 0.7874015748031497,
                    "duration": 0.34090912499999604
                },
                {
                    "name": "F4",
                    "midi": 65,
                    "time": 170.45456249999896,
                    "velocity": 0.7874015748031497,
                    "duration": 0.34090912499999604
                },
                {
                    "name": "F4",
                    "midi": 65,
                    "time": 170.90910799999895,
                    "velocity": 0.7874015748031497,
                    "duration": 0.34090912499999604
                },
                {
                    "name": "A#4",
                    "midi": 70,
                    "time": 171.36365349999895,
                    "velocity": 0.7874015748031497,
                    "duration": 0.34090912499999604
                },
                {
                    "name": "A#4",
                    "midi": 70,
                    "time": 171.81819899999894,
                    "velocity": 0.7874015748031497,
                    "duration": 0.34090912499999604
                },
                {
                    "name": "A#4",
                    "midi": 70,
                    "time": 172.27274449999894,
                    "velocity": 0.7874015748031497,
                    "duration": 0.34090912499999604
                },
                {
                    "name": "A#4",
                    "midi": 70,
                    "time": 172.72728999999893,
                    "velocity": 0.7874015748031497,
                    "duration": 0.34090912499999604
                },
                {
                    "name": "G4",
                    "midi": 67,
                    "time": 173.18183549999893,
                    "velocity": 0.7874015748031497,
                    "duration": 0.34090912499999604
                },
                {
                    "name": "A#4",
                    "midi": 70,
                    "time": 173.63638099999892,
                    "velocity": 0.7874015748031497,
                    "duration": 0.34090912499999604
                },
                {
                    "name": "D#4",
                    "midi": 63,
                    "time": 174.09092649999891,
                    "velocity": 0.7874015748031497,
                    "duration": 0.34090912499999604
                },
                {
                    "name": "G4",
                    "midi": 67,
                    "time": 174.5454719999989,
                    "velocity": 0.7874015748031497,
                    "duration": 0.34090912499999604
                },
                {
                    "name": "F4",
                    "midi": 65,
                    "time": 175.0000174999989,
                    "velocity": 0.7874015748031497,
                    "duration": 0.34090912499999604
                },
                {
                    "name": "D#4",
                    "midi": 63,
                    "time": 175.4545629999989,
                    "velocity": 0.7874015748031497,
                    "duration": 0.34090912499999604
                },
                {
                    "name": "D#4",
                    "midi": 63,
                    "time": 175.9091084999989,
                    "velocity": 0.7874015748031497,
                    "duration": 0.34090912499999604
                },
                {
                    "name": "D#4",
                    "midi": 63,
                    "time": 176.3636539999989,
                    "velocity": 0.7874015748031497,
                    "duration": 0.34090912499999604
                },
                {
                    "name": "D#4",
                    "midi": 63,
                    "time": 176.81819949999888,
                    "velocity": 0.7874015748031497,
                    "duration": 0.34090912499999604
                },
                {
                    "name": "G#4",
                    "midi": 68,
                    "time": 177.27274499999888,
                    "velocity": 0.7874015748031497,
                    "duration": 0.34090912499999604
                },
                {
                    "name": "D#4",
                    "midi": 63,
                    "time": 177.72729049999887,
                    "velocity": 0.7874015748031497,
                    "duration": 0.34090912499999604
                },
                {
                    "name": "G#4",
                    "midi": 68,
                    "time": 178.18183599999887,
                    "velocity": 0.7874015748031497,
                    "duration": 0.34090912499999604
                },
                {
                    "name": "C5",
                    "midi": 72,
                    "time": 178.63638149999886,
                    "velocity": 0.7874015748031497,
                    "duration": 0.34090912499999604
                },
                {
                    "name": "G#4",
                    "midi": 68,
                    "time": 179.09092699999886,
                    "velocity": 0.7874015748031497,
                    "duration": 0.34090912499999604
                },
                {
                    "name": "C5",
                    "midi": 72,
                    "time": 179.54547249999885,
                    "velocity": 0.7874015748031497,
                    "duration": 0.34090912499999604
                },
                {
                    "name": "G#4",
                    "midi": 68,
                    "time": 180.00001799999885,
                    "velocity": 0.7874015748031497,
                    "duration": 0.34090912499999604
                },
                {
                    "name": "C5",
                    "midi": 72,
                    "time": 180.45456349999884,
                    "velocity": 0.7874015748031497,
                    "duration": 0.34090912499999604
                },
                {
                    "name": "G#4",
                    "midi": 68,
                    "time": 180.90910899999884,
                    "velocity": 0.7874015748031497,
                    "duration": 0.34090912499999604
                },
                {
                    "name": "G#4",
                    "midi": 68,
                    "time": 181.36365449999883,
                    "velocity": 0.7874015748031497,
                    "duration": 0.34090912499999604
                },
                {
                    "name": "F4",
                    "midi": 65,
                    "time": 181.81819999999882,
                    "velocity": 0.7874015748031497,
                    "duration": 0.34090912499999604
                },
                {
                    "name": "D4",
                    "midi": 62,
                    "time": 182.27274549999882,
                    "velocity": 0.7874015748031497,
                    "duration": 0.34090912499999604
                },
                {
                    "name": "D4",
                    "midi": 62,
                    "time": 182.72729099999881,
                    "velocity": 0.7874015748031497,
                    "duration": 0.34090912499999604
                },
                {
                    "name": "D4",
                    "midi": 62,
                    "time": 183.1818364999988,
                    "velocity": 0.7874015748031497,
                    "duration": 0.34090912499999604
                },
                {
                    "name": "D#4",
                    "midi": 63,
                    "time": 183.6363819999988,
                    "velocity": 0.7874015748031497,
                    "duration": 0.34090912499999604
                },
                {
                    "name": "C4",
                    "midi": 60,
                    "time": 184.0909274999988,
                    "velocity": 0.7874015748031497,
                    "duration": 0.34090912499999604
                },
                {
                    "name": "D#4",
                    "midi": 63,
                    "time": 184.5454729999988,
                    "velocity": 0.7874015748031497,
                    "duration": 0.34090912499999604
                },
                {
                    "name": "C4",
                    "midi": 60,
                    "time": 185.0000184999988,
                    "velocity": 0.7874015748031497,
                    "duration": 0.34090912499999604
                },
                {
                    "name": "D4",
                    "midi": 62,
                    "time": 185.45456399999878,
                    "velocity": 0.7874015748031497,
                    "duration": 0.34090912499999604
                },
                {
                    "name": "A#3",
                    "midi": 58,
                    "time": 185.90910949999878,
                    "velocity": 0.7874015748031497,
                    "duration": 0.34090912499999604
                },
                {
                    "name": "D4",
                    "midi": 62,
                    "time": 186.36365499999877,
                    "velocity": 0.7874015748031497,
                    "duration": 0.34090912499999604
                },
                {
                    "name": "A#3",
                    "midi": 58,
                    "time": 186.81820049999877,
                    "velocity": 0.7874015748031497,
                    "duration": 0.34090912499999604
                },
                {
                    "name": "C4",
                    "midi": 60,
                    "time": 187.27274599999876,
                    "velocity": 0.7874015748031497,
                    "duration": 0.34090912499999604
                },
                {
                    "name": "G#3",
                    "midi": 56,
                    "time": 187.72729149999876,
                    "velocity": 0.7874015748031497,
                    "duration": 0.34090912499999604
                },
                {
                    "name": "C4",
                    "midi": 60,
                    "time": 188.18183699999875,
                    "velocity": 0.7874015748031497,
                    "duration": 0.34090912499999604
                },
                {
                    "name": "G#3",
                    "midi": 56,
                    "time": 188.63638249999875,
                    "velocity": 0.7874015748031497,
                    "duration": 0.34090912499999604
                },
                {
                    "name": "A#3",
                    "midi": 58,
                    "time": 189.09092799999874,
                    "velocity": 0.7874015748031497,
                    "duration": 0.34090912499999604
                },
                {
                    "name": "G3",
                    "midi": 55,
                    "time": 189.54547349999874,
                    "velocity": 0.7874015748031497,
                    "duration": 0.34090912499999604
                },
                {
                    "name": "G3",
                    "midi": 55,
                    "time": 190.00001899999873,
                    "velocity": 0.7874015748031497,
                    "duration": 0.34090912499999604
                },
                {
                    "name": "G3",
                    "midi": 55,
                    "time": 190.45456449999872,
                    "velocity": 0.7874015748031497,
                    "duration": 0.34090912499999604
                },
                {
                    "name": "D4",
                    "midi": 62,
                    "time": 190.90910999999872,
                    "velocity": 0.7874015748031497,
                    "duration": 0.34090912499999604
                },
                {
                    "name": "D4",
                    "midi": 62,
                    "time": 191.3636554999987,
                    "velocity": 0.7874015748031497,
                    "duration": 0.34090912499999604
                },
                {
                    "name": "D4",
                    "midi": 62,
                    "time": 191.8182009999987,
                    "velocity": 0.7874015748031497,
                    "duration": 0.34090912499999604
                },
                {
                    "name": "B3",
                    "midi": 59,
                    "time": 192.2727464999987,
                    "velocity": 0.7874015748031497,
                    "duration": 0.34090912499999604
                },
                {
                    "name": "C4",
                    "midi": 60,
                    "time": 192.7272919999987,
                    "velocity": 0.7874015748031497,
                    "duration": 0.34090912499999604
                },
                {
                    "name": "D#4",
                    "midi": 63,
                    "time": 193.1818374999987,
                    "velocity": 0.7874015748031497,
                    "duration": 0.34090912499999604
                },
                {
                    "name": "D#4",
                    "midi": 63,
                    "time": 193.6363829999987,
                    "velocity": 0.7874015748031497,
                    "duration": 0.34090912499999604
                },
                {
                    "name": "D#4",
                    "midi": 63,
                    "time": 194.09092849999868,
                    "velocity": 0.7874015748031497,
                    "duration": 0.34090912499999604
                },
                {
                    "name": "D#4",
                    "midi": 63,
                    "time": 194.54547399999868,
                    "velocity": 0.7874015748031497,
                    "duration": 0.34090912499999604
                },
                {
                    "name": "D4",
                    "midi": 62,
                    "time": 195.00001949999867,
                    "velocity": 0.7874015748031497,
                    "duration": 0.34090912499999604
                },
                {
                    "name": "D4",
                    "midi": 62,
                    "time": 195.45456499999867,
                    "velocity": 0.7874015748031497,
                    "duration": 0.34090912499999604
                },
                {
                    "name": "D4",
                    "midi": 62,
                    "time": 195.90911049999866,
                    "velocity": 0.7874015748031497,
                    "duration": 0.34090912499999604
                },
                {
                    "name": "D4",
                    "midi": 62,
                    "time": 196.36365599999866,
                    "velocity": 0.7874015748031497,
                    "duration": 0.34090912499999604
                },
                {
                    "name": "C4",
                    "midi": 60,
                    "time": 196.81820149999865,
                    "velocity": 0.7874015748031497,
                    "duration": 0.34090912499999604
                },
                {
                    "name": "C4",
                    "midi": 60,
                    "time": 197.27274699999865,
                    "velocity": 0.7874015748031497,
                    "duration": 0.34090912499999604
                },
                {
                    "name": "C4",
                    "midi": 60,
                    "time": 197.72729249999864,
                    "velocity": 0.7874015748031497,
                    "duration": 0.34090912499999604
                },
                {
                    "name": "C4",
                    "midi": 60,
                    "time": 198.18183799999863,
                    "velocity": 0.7874015748031497,
                    "duration": 0.34090912499999604
                },
                {
                    "name": "A3",
                    "midi": 57,
                    "time": 198.63638349999863,
                    "velocity": 0.7874015748031497,
                    "duration": 0.34090912499999604
                },
                {
                    "name": "D4",
                    "midi": 62,
                    "time": 199.09092899999862,
                    "velocity": 0.7874015748031497,
                    "duration": 0.34090912499999604
                },
                {
                    "name": "A3",
                    "midi": 57,
                    "time": 199.54547449999862,
                    "velocity": 0.7874015748031497,
                    "duration": 0.34090912499999604
                },
                {
                    "name": "A#3",
                    "midi": 58,
                    "time": 200.0000199999986,
                    "velocity": 0.7874015748031497,
                    "duration": 0.34090912499999604
                },
                {
                    "name": "G3",
                    "midi": 55,
                    "time": 200.4545654999986,
                    "velocity": 0.7874015748031497,
                    "duration": 0.34090912499999604
                },
                {
                    "name": "C4",
                    "midi": 60,
                    "time": 200.9091109999986,
                    "velocity": 0.7874015748031497,
                    "duration": 0.34090912499999604
                },
                {
                    "name": "G3",
                    "midi": 55,
                    "time": 201.3636564999986,
                    "velocity": 0.7874015748031497,
                    "duration": 0.34090912499999604
                },
                {
                    "name": "A3",
                    "midi": 57,
                    "time": 201.8182019999986,
                    "velocity": 0.7874015748031497,
                    "duration": 0.34090912499999604
                },
                {
                    "name": "F#3",
                    "midi": 54,
                    "time": 202.2727474999986,
                    "velocity": 0.7874015748031497,
                    "duration": 0.34090912499999604
                },
                {
                    "name": "A#3",
                    "midi": 58,
                    "time": 202.72729299999858,
                    "velocity": 0.7874015748031497,
                    "duration": 0.34090912499999604
                },
                {
                    "name": "A#3",
                    "midi": 58,
                    "time": 203.18183849999858,
                    "velocity": 0.7874015748031497,
                    "duration": 0.34090912499999604
                },
                {
                    "name": "A#3",
                    "midi": 58,
                    "time": 203.63638399999857,
                    "velocity": 0.7874015748031497,
                    "duration": 0.34090912499999604
                },
                {
                    "name": "A#3",
                    "midi": 58,
                    "time": 204.09092949999857,
                    "velocity": 0.7874015748031497,
                    "duration": 0.34090912499999604
                },
                {
                    "name": "A#3",
                    "midi": 58,
                    "time": 204.54547499999856,
                    "velocity": 0.7874015748031497,
                    "duration": 0.34090912499999604
                },
                {
                    "name": "G3",
                    "midi": 55,
                    "time": 205.00002049999856,
                    "velocity": 0.7874015748031497,
                    "duration": 0.34090912499999604
                },
                {
                    "name": "A3",
                    "midi": 57,
                    "time": 205.45456599999855,
                    "velocity": 0.7874015748031497,
                    "duration": 0.34090912499999604
                },
                {
                    "name": "A3",
                    "midi": 57,
                    "time": 205.90911149999855,
                    "velocity": 0.7874015748031497,
                    "duration": 0.34090912499999604
                },
                {
                    "name": "D4",
                    "midi": 62,
                    "time": 206.36365699999854,
                    "velocity": 0.7874015748031497,
                    "duration": 0.34090912499999604
                },
                {
                    "name": "D4",
                    "midi": 62,
                    "time": 206.81820249999853,
                    "velocity": 0.7874015748031497,
                    "duration": 0.34090912499999604
                },
                {
                    "name": "D4",
                    "midi": 62,
                    "time": 207.27274799999853,
                    "velocity": 0.7874015748031497,
                    "duration": 0.34090912499999604
                },
                {
                    "name": "A#3",
                    "midi": 58,
                    "time": 207.72729349999852,
                    "velocity": 0.7874015748031497,
                    "duration": 0.34090912499999604
                },
                {
                    "name": "D#4",
                    "midi": 63,
                    "time": 208.18183899999852,
                    "velocity": 0.7874015748031497,
                    "duration": 0.34090912499999604
                },
                {
                    "name": "D#4",
                    "midi": 63,
                    "time": 208.6363844999985,
                    "velocity": 0.7874015748031497,
                    "duration": 0.34090912499999604
                },
                {
                    "name": "D#4",
                    "midi": 63,
                    "time": 209.0909299999985,
                    "velocity": 0.7874015748031497,
                    "duration": 0.34090912499999604
                },
                {
                    "name": "C4",
                    "midi": 60,
                    "time": 209.5454754999985,
                    "velocity": 0.7874015748031497,
                    "duration": 0.34090912499999604
                },
                {
                    "name": "F4",
                    "midi": 65,
                    "time": 210.0000209999985,
                    "velocity": 0.7874015748031497,
                    "duration": 0.34090912499999604
                },
                {
                    "name": "F4",
                    "midi": 65,
                    "time": 210.4545664999985,
                    "velocity": 0.7874015748031497,
                    "duration": 0.34090912499999604
                },
                {
                    "name": "F4",
                    "midi": 65,
                    "time": 210.9091119999985,
                    "velocity": 0.7874015748031497,
                    "duration": 0.34090912499999604
                },
                {
                    "name": "D4",
                    "midi": 62,
                    "time": 211.36365749999848,
                    "velocity": 0.7874015748031497,
                    "duration": 0.34090912499999604
                },
                {
                    "name": "G4",
                    "midi": 67,
                    "time": 211.81820299999848,
                    "velocity": 0.7874015748031497,
                    "duration": 0.34090912499999604
                },
                {
                    "name": "G4",
                    "midi": 67,
                    "time": 212.27274849999847,
                    "velocity": 0.7874015748031497,
                    "duration": 0.34090912499999604
                },
                {
                    "name": "G4",
                    "midi": 67,
                    "time": 212.72729399999847,
                    "velocity": 0.7874015748031497,
                    "duration": 0.34090912499999604
                },
                {
                    "name": "D#4",
                    "midi": 63,
                    "time": 213.18183949999846,
                    "velocity": 0.7874015748031497,
                    "duration": 0.34090912499999604
                },
                {
                    "name": "G#4",
                    "midi": 68,
                    "time": 213.63638499999846,
                    "velocity": 0.7874015748031497,
                    "duration": 0.34090912499999604
                },
                {
                    "name": "G#4",
                    "midi": 68,
                    "time": 214.09093049999845,
                    "velocity": 0.7874015748031497,
                    "duration": 0.34090912499999604
                },
                {
                    "name": "G#4",
                    "midi": 68,
                    "time": 214.54547599999844,
                    "velocity": 0.7874015748031497,
                    "duration": 0.34090912499999604
                },
                {
                    "name": "F4",
                    "midi": 65,
                    "time": 215.00002149999844,
                    "velocity": 0.7874015748031497,
                    "duration": 0.34090912499999604
                },
                {
                    "name": "A#4",
                    "midi": 70,
                    "time": 215.45456699999843,
                    "velocity": 0.7874015748031497,
                    "duration": 0.34090912499999604
                },
                {
                    "name": "A#4",
                    "midi": 70,
                    "time": 215.90911249999843,
                    "velocity": 0.7874015748031497,
                    "duration": 0.34090912499999604
                },
                {
                    "name": "A#4",
                    "midi": 70,
                    "time": 216.36365799999842,
                    "velocity": 0.7874015748031497,
                    "duration": 0.34090912499999604
                },
                {
                    "name": "A#4",
                    "midi": 70,
                    "time": 216.81820349999842,
                    "velocity": 0.7874015748031497,
                    "duration": 0.34090912499999604
                },
                {
                    "name": "G#4",
                    "midi": 68,
                    "time": 217.2727489999984,
                    "velocity": 0.7874015748031497,
                    "duration": 0.34090912499999604
                },
                {
                    "name": "G4",
                    "midi": 67,
                    "time": 217.7272944999984,
                    "velocity": 0.7874015748031497,
                    "duration": 0.34090912499999604
                },
                {
                    "name": "F4",
                    "midi": 65,
                    "time": 218.1818399999984,
                    "velocity": 0.7874015748031497,
                    "duration": 0.34090912499999604
                },
                {
                    "name": "G4",
                    "midi": 67,
                    "time": 218.6363854999984,
                    "velocity": 0.7874015748031497,
                    "duration": 0.34090912499999604
                },
                {
                    "name": "G#4",
                    "midi": 68,
                    "time": 219.0909309999984,
                    "velocity": 0.7874015748031497,
                    "duration": 0.34090912499999604
                },
                {
                    "name": "G4",
                    "midi": 67,
                    "time": 219.5454764999984,
                    "velocity": 0.7874015748031497,
                    "duration": 0.34090912499999604
                },
                {
                    "name": "G4",
                    "midi": 67,
                    "time": 220.00002199999838,
                    "velocity": 0.7874015748031497,
                    "duration": 0.34090912499999604
                },
                {
                    "name": "A4",
                    "midi": 69,
                    "time": 220.45456749999838,
                    "velocity": 0.7874015748031497,
                    "duration": 0.34090912499999604
                },
                {
                    "name": "B4",
                    "midi": 71,
                    "time": 220.90911299999837,
                    "velocity": 0.7874015748031497,
                    "duration": 0.34090912499999604
                },
                {
                    "name": "B3",
                    "midi": 59,
                    "time": 221.36365849999837,
                    "velocity": 0.7874015748031497,
                    "duration": 0.34090912499999604
                },
                {
                    "name": "C4",
                    "midi": 60,
                    "time": 221.81820399999836,
                    "velocity": 0.7874015748031497,
                    "duration": 0.34090912499999604
                },
                {
                    "name": "D4",
                    "midi": 62,
                    "time": 222.27274949999835,
                    "velocity": 0.7874015748031497,
                    "duration": 0.34090912499999604
                },
                {
                    "name": "D#4",
                    "midi": 63,
                    "time": 222.72729499999835,
                    "velocity": 0.7874015748031497,
                    "duration": 0.34090912499999604
                },
                {
                    "name": "F4",
                    "midi": 65,
                    "time": 223.18184049999834,
                    "velocity": 0.7874015748031497,
                    "duration": 0.34090912499999604
                },
                {
                    "name": "G4",
                    "midi": 67,
                    "time": 223.63638599999834,
                    "velocity": 0.7874015748031497,
                    "duration": 1.0227273749999881
                },
                {
                    "name": "G4",
                    "midi": 67,
                    "time": 225.00002249999832,
                    "velocity": 0.7874015748031497,
                    "duration": 0.34090912499999604
                },
                {
                    "name": "G4",
                    "midi": 67,
                    "time": 225.45456799999832,
                    "velocity": 0.7874015748031497,
                    "duration": 3.636363999999986
                }
            ],
            "controlChanges": {
                "7": [
                    {
                        "number": 7,
                        "time": 0,
                        "value": 0.7874015748031497
                    }
                ],
                "10": [
                    {
                        "number": 10,
                        "time": 0,
                        "value": 0.47244094488188976
                    }
                ]
            },
            "id": 3,
            "name": "Viola",
            "instrumentNumber": 49,
            "instrument": "string ensemble 2",
            "instrumentFamily": "ensemble",
            "channelNumber": 2,
            "isPercussion": false
        },
        {
            "startTime": 0,
            "duration": 229.09093199999833,
            "length": 355,
            "notes": [
                {
                    "name": "C4",
                    "midi": 60,
                    "time": 0,
                    "velocity": 0.7874015748031497,
                    "duration": 3.636364
                },
                {
                    "name": "C4",
                    "midi": 60,
                    "time": 3.636364,
                    "velocity": 0.7874015748031497,
                    "duration": 3.636364
                },
                {
                    "name": "C4",
                    "midi": 60,
                    "time": 7.272728,
                    "velocity": 0.7874015748031497,
                    "duration": 3.6363639999999995
                },
                {
                    "name": "C4",
                    "midi": 60,
                    "time": 10.909092,
                    "velocity": 0.7874015748031497,
                    "duration": 0.9090910000000001
                },
                {
                    "name": "B3",
                    "midi": 59,
                    "time": 11.818183,
                    "velocity": 0.7874015748031497,
                    "duration": 0.9090910000000001
                },
                {
                    "name": "C4",
                    "midi": 60,
                    "time": 12.727274,
                    "velocity": 0.7874015748031497,
                    "duration": 1.3636365000000001
                },
                {
                    "name": "A#3",
                    "midi": 58,
                    "time": 14.0909105,
                    "velocity": 0.7874015748031497,
                    "duration": 0.45454550000000005
                },
                {
                    "name": "G#3",
                    "midi": 56,
                    "time": 14.545456,
                    "velocity": 0.7874015748031497,
                    "duration": 1.8181819999999984
                },
                {
                    "name": "A3",
                    "midi": 57,
                    "time": 16.363637999999998,
                    "velocity": 0.7874015748031497,
                    "duration": 1.8181820000000002
                },
                {
                    "name": "A#3",
                    "midi": 58,
                    "time": 18.18182,
                    "velocity": 0.7874015748031497,
                    "duration": 0.9090910000000001
                },
                {
                    "name": "F#3",
                    "midi": 54,
                    "time": 20.000002,
                    "velocity": 0.7874015748031497,
                    "duration": 1.8181820000000002
                },
                {
                    "name": "G3",
                    "midi": 55,
                    "time": 21.818184,
                    "velocity": 0.7874015748031497,
                    "duration": 1.8181820000000002
                },
                {
                    "name": "E3",
                    "midi": 52,
                    "time": 23.636366,
                    "velocity": 0.7874015748031497,
                    "duration": 1.8181820000000002
                },
                {
                    "name": "F3",
                    "midi": 53,
                    "time": 25.454548,
                    "velocity": 0.7874015748031497,
                    "duration": 1.8181820000000002
                },
                {
                    "name": "D#3",
                    "midi": 51,
                    "time": 27.27273,
                    "velocity": 0.7874015748031497,
                    "duration": 1.8181820000000002
                },
                {
                    "name": "D3",
                    "midi": 50,
                    "time": 29.090912,
                    "velocity": 0.7874015748031497,
                    "duration": 2.7272730000000003
                },
                {
                    "name": "C3",
                    "midi": 48,
                    "time": 31.818185,
                    "velocity": 0.7874015748031497,
                    "duration": 0.9090909999999965
                },
                {
                    "name": "B2",
                    "midi": 47,
                    "time": 32.727275999999996,
                    "velocity": 0.7874015748031497,
                    "duration": 2.7272729999999967
                },
                {
                    "name": "C3",
                    "midi": 48,
                    "time": 35.45454899999999,
                    "velocity": 0.7874015748031497,
                    "duration": 0.6818182499999992
                },
                {
                    "name": "A#2",
                    "midi": 46,
                    "time": 36.13636724999999,
                    "velocity": 0.7874015748031497,
                    "duration": 0.22727274999999736
                },
                {
                    "name": "G#2",
                    "midi": 44,
                    "time": 36.36363999999999,
                    "velocity": 0.7874015748031497,
                    "duration": 0.9090909999999965
                },
                {
                    "name": "G2",
                    "midi": 43,
                    "time": 37.272730999999986,
                    "velocity": 0.7874015748031497,
                    "duration": 0.9090909999999965
                },
                {
                    "name": "F#2",
                    "midi": 42,
                    "time": 38.18182199999998,
                    "velocity": 0.7874015748031497,
                    "duration": 0.9090909999999965
                },
                {
                    "name": "F2",
                    "midi": 41,
                    "time": 39.09091299999998,
                    "velocity": 0.7874015748031497,
                    "duration": 1.8181820000000002
                },
                {
                    "name": "D#2",
                    "midi": 39,
                    "time": 40.90909499999998,
                    "velocity": 0.7874015748031497,
                    "duration": 0.9090909999999965
                },
                {
                    "name": "G2",
                    "midi": 43,
                    "time": 41.818185999999976,
                    "velocity": 0.7874015748031497,
                    "duration": 1.8181820000000002
                },
                {
                    "name": "C3",
                    "midi": 48,
                    "time": 43.636367999999976,
                    "velocity": 0.7874015748031497,
                    "duration": 0.9090909999999965
                },
                {
                    "name": "D3",
                    "midi": 50,
                    "time": 56.81818749999997,
                    "velocity": 0.7874015748031497,
                    "duration": 0.4545455000000018
                },
                {
                    "name": "G3",
                    "midi": 55,
                    "time": 57.272732999999974,
                    "velocity": 0.7874015748031497,
                    "duration": 0.4545455000000018
                },
                {
                    "name": "D3",
                    "midi": 50,
                    "time": 57.727278499999976,
                    "velocity": 0.7874015748031497,
                    "duration": 0.4545455000000018
                },
                {
                    "name": "G3",
                    "midi": 55,
                    "time": 58.18182399999998,
                    "velocity": 0.7874015748031497,
                    "duration": 0.4545455000000018
                },
                {
                    "name": "A#3",
                    "midi": 58,
                    "time": 58.63636949999998,
                    "velocity": 0.7874015748031497,
                    "duration": 0.4545455000000018
                },
                {
                    "name": "G3",
                    "midi": 55,
                    "time": 59.09091499999998,
                    "velocity": 0.7874015748031497,
                    "duration": 0.4545455000000018
                },
                {
                    "name": "A#3",
                    "midi": 58,
                    "time": 59.54546049999998,
                    "velocity": 0.7874015748031497,
                    "duration": 0.4545455000000018
                },
                {
                    "name": "G3",
                    "midi": 55,
                    "time": 60.000005999999985,
                    "velocity": 0.7874015748031497,
                    "duration": 0.4545455000000018
                },
                {
                    "name": "D3",
                    "midi": 50,
                    "time": 60.45455149999999,
                    "velocity": 0.7874015748031497,
                    "duration": 0.4545455000000018
                },
                {
                    "name": "G3",
                    "midi": 55,
                    "time": 60.90909699999999,
                    "velocity": 0.7874015748031497,
                    "duration": 0.4545455000000018
                },
                {
                    "name": "D3",
                    "midi": 50,
                    "time": 61.36364249999999,
                    "velocity": 0.7874015748031497,
                    "duration": 0.4545455000000018
                },
                {
                    "name": "G3",
                    "midi": 55,
                    "time": 61.81818799999999,
                    "velocity": 0.7874015748031497,
                    "duration": 0.4545455000000018
                },
                {
                    "name": "G2",
                    "midi": 43,
                    "time": 62.272733499999994,
                    "velocity": 0.7874015748031497,
                    "duration": 0.4545455000000018
                },
                {
                    "name": "C3",
                    "midi": 48,
                    "time": 62.727278999999996,
                    "velocity": 0.7874015748031497,
                    "duration": 0.4545455000000018
                },
                {
                    "name": "G2",
                    "midi": 43,
                    "time": 63.1818245,
                    "velocity": 0.7874015748031497,
                    "duration": 0.4545455000000018
                },
                {
                    "name": "C3",
                    "midi": 48,
                    "time": 63.63637,
                    "velocity": 0.7874015748031497,
                    "duration": 0.4545454999999947
                },
                {
                    "name": "D#3",
                    "midi": 51,
                    "time": 64.0909155,
                    "velocity": 0.7874015748031497,
                    "duration": 0.4545454999999947
                },
                {
                    "name": "C3",
                    "midi": 48,
                    "time": 64.54546099999999,
                    "velocity": 0.7874015748031497,
                    "duration": 0.4545454999999947
                },
                {
                    "name": "D#3",
                    "midi": 51,
                    "time": 65.00000649999998,
                    "velocity": 0.7874015748031497,
                    "duration": 0.4545454999999947
                },
                {
                    "name": "C3",
                    "midi": 48,
                    "time": 65.45455199999998,
                    "velocity": 0.7874015748031497,
                    "duration": 0.4545454999999947
                },
                {
                    "name": "C3",
                    "midi": 48,
                    "time": 65.90909749999997,
                    "velocity": 0.7874015748031497,
                    "duration": 0.4545454999999947
                },
                {
                    "name": "F3",
                    "midi": 53,
                    "time": 66.36364299999997,
                    "velocity": 0.7874015748031497,
                    "duration": 0.4545454999999947
                },
                {
                    "name": "C3",
                    "midi": 48,
                    "time": 66.81818849999996,
                    "velocity": 0.7874015748031497,
                    "duration": 0.4545454999999947
                },
                {
                    "name": "F3",
                    "midi": 53,
                    "time": 67.27273399999996,
                    "velocity": 0.7874015748031497,
                    "duration": 0.4545454999999947
                },
                {
                    "name": "G#3",
                    "midi": 56,
                    "time": 67.72727949999995,
                    "velocity": 0.7874015748031497,
                    "duration": 0.4545454999999947
                },
                {
                    "name": "F3",
                    "midi": 53,
                    "time": 68.18182499999995,
                    "velocity": 0.7874015748031497,
                    "duration": 0.4545454999999947
                },
                {
                    "name": "G#3",
                    "midi": 56,
                    "time": 68.63637049999994,
                    "velocity": 0.7874015748031497,
                    "duration": 0.4545454999999947
                },
                {
                    "name": "G3",
                    "midi": 55,
                    "time": 69.09091599999994,
                    "velocity": 0.7874015748031497,
                    "duration": 0.4545454999999947
                },
                {
                    "name": "G2",
                    "midi": 43,
                    "time": 69.54546149999993,
                    "velocity": 0.7874015748031497,
                    "duration": 0.4545454999999947
                },
                {
                    "name": "G3",
                    "midi": 55,
                    "time": 70.00000699999993,
                    "velocity": 0.7874015748031497,
                    "duration": 0.4545454999999947
                },
                {
                    "name": "G2",
                    "midi": 43,
                    "time": 70.45455249999992,
                    "velocity": 0.7874015748031497,
                    "duration": 0.4545454999999947
                },
                {
                    "name": "G3",
                    "midi": 55,
                    "time": 70.90909799999991,
                    "velocity": 0.7874015748031497,
                    "duration": 0.4545454999999947
                },
                {
                    "name": "G2",
                    "midi": 43,
                    "time": 71.36364349999991,
                    "velocity": 0.7874015748031497,
                    "duration": 0.4545454999999947
                },
                {
                    "name": "G3",
                    "midi": 55,
                    "time": 71.8181889999999,
                    "velocity": 0.7874015748031497,
                    "duration": 0.4545454999999947
                },
                {
                    "name": "G2",
                    "midi": 43,
                    "time": 72.2727344999999,
                    "velocity": 0.7874015748031497,
                    "duration": 0.4545454999999947
                },
                {
                    "name": "C3",
                    "midi": 48,
                    "time": 72.7272799999999,
                    "velocity": 0.7874015748031497,
                    "duration": 0.9090910000000036
                },
                {
                    "name": "F3",
                    "midi": 53,
                    "time": 76.8181894999999,
                    "velocity": 0.7874015748031497,
                    "duration": 0.4545454999999947
                },
                {
                    "name": "A#3",
                    "midi": 58,
                    "time": 77.2727349999999,
                    "velocity": 0.7874015748031497,
                    "duration": 0.4545454999999947
                },
                {
                    "name": "F3",
                    "midi": 53,
                    "time": 77.72728049999989,
                    "velocity": 0.7874015748031497,
                    "duration": 0.4545454999999947
                },
                {
                    "name": "A#3",
                    "midi": 58,
                    "time": 78.18182599999989,
                    "velocity": 0.7874015748031497,
                    "duration": 0.4545454999999947
                },
                {
                    "name": "D4",
                    "midi": 62,
                    "time": 78.63637149999988,
                    "velocity": 0.7874015748031497,
                    "duration": 0.4545454999999947
                },
                {
                    "name": "A#3",
                    "midi": 58,
                    "time": 79.09091699999988,
                    "velocity": 0.7874015748031497,
                    "duration": 0.4545454999999947
                },
                {
                    "name": "D4",
                    "midi": 62,
                    "time": 79.54546249999987,
                    "velocity": 0.7874015748031497,
                    "duration": 0.4545454999999947
                },
                {
                    "name": "A#3",
                    "midi": 58,
                    "time": 80.00000799999987,
                    "velocity": 0.7874015748031497,
                    "duration": 0.4545454999999947
                },
                {
                    "name": "A#2",
                    "midi": 46,
                    "time": 80.45455349999986,
                    "velocity": 0.7874015748031497,
                    "duration": 0.4545454999999947
                },
                {
                    "name": "D#3",
                    "midi": 51,
                    "time": 80.90909899999986,
                    "velocity": 0.7874015748031497,
                    "duration": 0.4545454999999947
                },
                {
                    "name": "A#2",
                    "midi": 46,
                    "time": 81.36364449999985,
                    "velocity": 0.7874015748031497,
                    "duration": 0.4545454999999947
                },
                {
                    "name": "D#3",
                    "midi": 51,
                    "time": 81.81818999999984,
                    "velocity": 0.7874015748031497,
                    "duration": 0.4545454999999947
                },
                {
                    "name": "G3",
                    "midi": 55,
                    "time": 82.27273549999984,
                    "velocity": 0.7874015748031497,
                    "duration": 0.4545454999999947
                },
                {
                    "name": "D#3",
                    "midi": 51,
                    "time": 82.72728099999983,
                    "velocity": 0.7874015748031497,
                    "duration": 0.4545454999999947
                },
                {
                    "name": "G3",
                    "midi": 55,
                    "time": 83.18182649999983,
                    "velocity": 0.7874015748031497,
                    "duration": 0.4545454999999947
                },
                {
                    "name": "D#3",
                    "midi": 51,
                    "time": 83.63637199999982,
                    "velocity": 0.7874015748031497,
                    "duration": 0.4545454999999947
                },
                {
                    "name": "F3",
                    "midi": 53,
                    "time": 84.09091749999982,
                    "velocity": 0.7874015748031497,
                    "duration": 0.4545454999999947
                },
                {
                    "name": "G3",
                    "midi": 55,
                    "time": 84.54546299999981,
                    "velocity": 0.7874015748031497,
                    "duration": 0.4545454999999947
                },
                {
                    "name": "D#3",
                    "midi": 51,
                    "time": 85.00000849999981,
                    "velocity": 0.7874015748031497,
                    "duration": 0.4545454999999947
                },
                {
                    "name": "G#3",
                    "midi": 56,
                    "time": 85.4545539999998,
                    "velocity": 0.7874015748031497,
                    "duration": 0.4545454999999947
                },
                {
                    "name": "G#3",
                    "midi": 56,
                    "time": 85.9090994999998,
                    "velocity": 0.7874015748031497,
                    "duration": 0.4545454999999947
                },
                {
                    "name": "F3",
                    "midi": 53,
                    "time": 86.36364499999979,
                    "velocity": 0.7874015748031497,
                    "duration": 0.4545454999999947
                },
                {
                    "name": "G#3",
                    "midi": 56,
                    "time": 86.81819049999979,
                    "velocity": 0.7874015748031497,
                    "duration": 0.4545454999999947
                },
                {
                    "name": "F3",
                    "midi": 53,
                    "time": 87.27273599999978,
                    "velocity": 0.7874015748031497,
                    "duration": 0.4545454999999947
                },
                {
                    "name": "F2",
                    "midi": 41,
                    "time": 87.72728149999978,
                    "velocity": 0.7874015748031497,
                    "duration": 0.4545454999999947
                },
                {
                    "name": "F3",
                    "midi": 53,
                    "time": 88.18182699999977,
                    "velocity": 0.7874015748031497,
                    "duration": 0.4545454999999947
                },
                {
                    "name": "F2",
                    "midi": 41,
                    "time": 88.63637249999977,
                    "velocity": 0.7874015748031497,
                    "duration": 0.4545454999999947
                },
                {
                    "name": "F3",
                    "midi": 53,
                    "time": 89.09091799999976,
                    "velocity": 0.7874015748031497,
                    "duration": 0.4545454999999947
                },
                {
                    "name": "F2",
                    "midi": 41,
                    "time": 89.54546349999976,
                    "velocity": 0.7874015748031497,
                    "duration": 0.4545454999999947
                },
                {
                    "name": "F3",
                    "midi": 53,
                    "time": 90.00000899999975,
                    "velocity": 0.7874015748031497,
                    "duration": 0.4545454999999947
                },
                {
                    "name": "F2",
                    "midi": 41,
                    "time": 90.45455449999974,
                    "velocity": 0.7874015748031497,
                    "duration": 0.4545454999999947
                },
                {
                    "name": "A#2",
                    "midi": 46,
                    "time": 90.90909999999974,
                    "velocity": 0.7874015748031497,
                    "duration": 0.4545454999999947
                },
                {
                    "name": "A#3",
                    "midi": 58,
                    "time": 91.36364549999973,
                    "velocity": 0.7874015748031497,
                    "duration": 0.4545454999999947
                },
                {
                    "name": "A#2",
                    "midi": 46,
                    "time": 91.81819099999973,
                    "velocity": 0.7874015748031497,
                    "duration": 0.4545454999999947
                },
                {
                    "name": "A#3",
                    "midi": 58,
                    "time": 92.27273649999972,
                    "velocity": 0.7874015748031497,
                    "duration": 0.4545454999999947
                },
                {
                    "name": "G#2",
                    "midi": 44,
                    "time": 92.72728199999972,
                    "velocity": 0.7874015748031497,
                    "duration": 0.4545454999999947
                },
                {
                    "name": "G#3",
                    "midi": 56,
                    "time": 93.18182749999971,
                    "velocity": 0.7874015748031497,
                    "duration": 0.4545454999999947
                },
                {
                    "name": "G#2",
                    "midi": 44,
                    "time": 93.63637299999971,
                    "velocity": 0.7874015748031497,
                    "duration": 0.4545454999999947
                },
                {
                    "name": "G#3",
                    "midi": 56,
                    "time": 94.0909184999997,
                    "velocity": 0.7874015748031497,
                    "duration": 0.4545454999999947
                },
                {
                    "name": "G2",
                    "midi": 43,
                    "time": 94.5454639999997,
                    "velocity": 0.7874015748031497,
                    "duration": 0.4545454999999947
                },
                {
                    "name": "G3",
                    "midi": 55,
                    "time": 95.00000949999969,
                    "velocity": 0.7874015748031497,
                    "duration": 0.4545454999999947
                },
                {
                    "name": "G2",
                    "midi": 43,
                    "time": 95.45455499999969,
                    "velocity": 0.7874015748031497,
                    "duration": 0.4545454999999947
                },
                {
                    "name": "G3",
                    "midi": 55,
                    "time": 95.90910049999968,
                    "velocity": 0.7874015748031497,
                    "duration": 0.4545454999999947
                },
                {
                    "name": "F2",
                    "midi": 41,
                    "time": 96.36364599999968,
                    "velocity": 0.7874015748031497,
                    "duration": 0.4545454999999947
                },
                {
                    "name": "F3",
                    "midi": 53,
                    "time": 96.81819149999967,
                    "velocity": 0.7874015748031497,
                    "duration": 0.4545454999999947
                },
                {
                    "name": "F2",
                    "midi": 41,
                    "time": 97.27273699999967,
                    "velocity": 0.7874015748031497,
                    "duration": 0.4545454999999947
                },
                {
                    "name": "F3",
                    "midi": 53,
                    "time": 97.72728249999966,
                    "velocity": 0.7874015748031497,
                    "duration": 0.4545454999999947
                },
                {
                    "name": "D#2",
                    "midi": 39,
                    "time": 98.18182799999965,
                    "velocity": 0.7874015748031497,
                    "duration": 0.4545454999999947
                },
                {
                    "name": "D#3",
                    "midi": 51,
                    "time": 98.63637349999965,
                    "velocity": 0.7874015748031497,
                    "duration": 0.4545454999999947
                },
                {
                    "name": "D#2",
                    "midi": 39,
                    "time": 99.09091899999964,
                    "velocity": 0.7874015748031497,
                    "duration": 0.4545454999999947
                },
                {
                    "name": "D#3",
                    "midi": 51,
                    "time": 99.54546449999964,
                    "velocity": 0.7874015748031497,
                    "duration": 0.4545454999999947
                },
                {
                    "name": "D2",
                    "midi": 38,
                    "time": 100.00000999999963,
                    "velocity": 0.7874015748031497,
                    "duration": 0.4545454999999947
                },
                {
                    "name": "D3",
                    "midi": 50,
                    "time": 100.45455549999963,
                    "velocity": 0.7874015748031497,
                    "duration": 0.4545454999999947
                },
                {
                    "name": "D2",
                    "midi": 38,
                    "time": 100.90910099999962,
                    "velocity": 0.7874015748031497,
                    "duration": 0.4545454999999947
                },
                {
                    "name": "D3",
                    "midi": 50,
                    "time": 101.36364649999962,
                    "velocity": 0.7874015748031497,
                    "duration": 0.4545454999999947
                },
                {
                    "name": "C2",
                    "midi": 36,
                    "time": 101.81819199999961,
                    "velocity": 0.7874015748031497,
                    "duration": 0.4545454999999947
                },
                {
                    "name": "C3",
                    "midi": 48,
                    "time": 102.27273749999961,
                    "velocity": 0.7874015748031497,
                    "duration": 0.4545454999999947
                },
                {
                    "name": "C2",
                    "midi": 36,
                    "time": 102.7272829999996,
                    "velocity": 0.7874015748031497,
                    "duration": 0.4545454999999947
                },
                {
                    "name": "C3",
                    "midi": 48,
                    "time": 103.1818284999996,
                    "velocity": 0.7874015748031497,
                    "duration": 0.4545454999999947
                },
                {
                    "name": "D2",
                    "midi": 38,
                    "time": 103.63637399999959,
                    "velocity": 0.7874015748031497,
                    "duration": 0.4545454999999947
                },
                {
                    "name": "D3",
                    "midi": 50,
                    "time": 104.09091949999959,
                    "velocity": 0.7874015748031497,
                    "duration": 0.4545454999999947
                },
                {
                    "name": "D2",
                    "midi": 38,
                    "time": 104.54546499999958,
                    "velocity": 0.7874015748031497,
                    "duration": 0.4545454999999947
                },
                {
                    "name": "D3",
                    "midi": 50,
                    "time": 105.00001049999958,
                    "velocity": 0.7874015748031497,
                    "duration": 0.4545454999999947
                },
                {
                    "name": "D#2",
                    "midi": 39,
                    "time": 105.45455599999957,
                    "velocity": 0.7874015748031497,
                    "duration": 0.4545454999999947
                },
                {
                    "name": "D#3",
                    "midi": 51,
                    "time": 105.90910149999957,
                    "velocity": 0.7874015748031497,
                    "duration": 0.4545454999999947
                },
                {
                    "name": "D#2",
                    "midi": 39,
                    "time": 106.36364699999956,
                    "velocity": 0.7874015748031497,
                    "duration": 0.4545454999999947
                },
                {
                    "name": "D#3",
                    "midi": 51,
                    "time": 106.81819249999955,
                    "velocity": 0.7874015748031497,
                    "duration": 0.4545454999999947
                },
                {
                    "name": "F2",
                    "midi": 41,
                    "time": 107.27273799999955,
                    "velocity": 0.7874015748031497,
                    "duration": 0.4545454999999947
                },
                {
                    "name": "F3",
                    "midi": 53,
                    "time": 107.72728349999954,
                    "velocity": 0.7874015748031497,
                    "duration": 0.4545454999999947
                },
                {
                    "name": "F2",
                    "midi": 41,
                    "time": 108.18182899999954,
                    "velocity": 0.7874015748031497,
                    "duration": 0.4545454999999947
                },
                {
                    "name": "F3",
                    "midi": 53,
                    "time": 108.63637449999953,
                    "velocity": 0.7874015748031497,
                    "duration": 0.4545454999999947
                },
                {
                    "name": "D#2",
                    "midi": 39,
                    "time": 109.09091999999953,
                    "velocity": 0.7874015748031497,
                    "duration": 0.4545454999999947
                },
                {
                    "name": "D#3",
                    "midi": 51,
                    "time": 109.54546549999952,
                    "velocity": 0.7874015748031497,
                    "duration": 0.4545454999999947
                },
                {
                    "name": "D#2",
                    "midi": 39,
                    "time": 110.00001099999952,
                    "velocity": 0.7874015748031497,
                    "duration": 0.4545454999999947
                },
                {
                    "name": "D#3",
                    "midi": 51,
                    "time": 110.45455649999951,
                    "velocity": 0.7874015748031497,
                    "duration": 0.4545454999999947
                },
                {
                    "name": "D2",
                    "midi": 38,
                    "time": 110.9091019999995,
                    "velocity": 0.7874015748031497,
                    "duration": 0.4545454999999947
                },
                {
                    "name": "D3",
                    "midi": 50,
                    "time": 111.3636474999995,
                    "velocity": 0.7874015748031497,
                    "duration": 0.4545454999999947
                },
                {
                    "name": "D2",
                    "midi": 38,
                    "time": 111.8181929999995,
                    "velocity": 0.7874015748031497,
                    "duration": 0.4545454999999947
                },
                {
                    "name": "D3",
                    "midi": 50,
                    "time": 112.27273849999949,
                    "velocity": 0.7874015748031497,
                    "duration": 0.4545454999999947
                },
                {
                    "name": "E2",
                    "midi": 40,
                    "time": 112.72728399999949,
                    "velocity": 0.7874015748031497,
                    "duration": 0.4545454999999947
                },
                {
                    "name": "E3",
                    "midi": 52,
                    "time": 113.18182949999948,
                    "velocity": 0.7874015748031497,
                    "duration": 0.4545454999999947
                },
                {
                    "name": "E2",
                    "midi": 40,
                    "time": 113.63637499999948,
                    "velocity": 0.7874015748031497,
                    "duration": 0.4545454999999947
                },
                {
                    "name": "E3",
                    "midi": 52,
                    "time": 114.09092049999947,
                    "velocity": 0.7874015748031497,
                    "duration": 0.4545454999999947
                },
                {
                    "name": "F2",
                    "midi": 41,
                    "time": 114.54546599999946,
                    "velocity": 0.7874015748031497,
                    "duration": 0.4545454999999947
                },
                {
                    "name": "F3",
                    "midi": 53,
                    "time": 115.00001149999946,
                    "velocity": 0.7874015748031497,
                    "duration": 0.4545454999999947
                },
                {
                    "name": "F2",
                    "midi": 41,
                    "time": 115.45455699999945,
                    "velocity": 0.7874015748031497,
                    "duration": 0.4545454999999947
                },
                {
                    "name": "F3",
                    "midi": 53,
                    "time": 115.90910249999945,
                    "velocity": 0.7874015748031497,
                    "duration": 0.4545454999999947
                },
                {
                    "name": "G2",
                    "midi": 43,
                    "time": 116.36364799999944,
                    "velocity": 0.7874015748031497,
                    "duration": 0.4545454999999947
                },
                {
                    "name": "G3",
                    "midi": 55,
                    "time": 116.81819349999944,
                    "velocity": 0.7874015748031497,
                    "duration": 0.4545454999999947
                },
                {
                    "name": "G2",
                    "midi": 43,
                    "time": 117.27273899999943,
                    "velocity": 0.7874015748031497,
                    "duration": 0.4545454999999947
                },
                {
                    "name": "G3",
                    "midi": 55,
                    "time": 117.72728449999943,
                    "velocity": 0.7874015748031497,
                    "duration": 0.4545454999999947
                },
                {
                    "name": "A2",
                    "midi": 45,
                    "time": 118.18182999999942,
                    "velocity": 0.7874015748031497,
                    "duration": 0.4545454999999947
                },
                {
                    "name": "A3",
                    "midi": 57,
                    "time": 118.63637549999942,
                    "velocity": 0.7874015748031497,
                    "duration": 0.4545454999999947
                },
                {
                    "name": "A2",
                    "midi": 45,
                    "time": 119.09092099999941,
                    "velocity": 0.7874015748031497,
                    "duration": 0.4545454999999947
                },
                {
                    "name": "A3",
                    "midi": 57,
                    "time": 119.5454664999994,
                    "velocity": 0.7874015748031497,
                    "duration": 0.4545454999999947
                },
                {
                    "name": "A#2",
                    "midi": 46,
                    "time": 120.0000119999994,
                    "velocity": 0.7874015748031497,
                    "duration": 0.4545454999999947
                },
                {
                    "name": "A#3",
                    "midi": 58,
                    "time": 120.4545574999994,
                    "velocity": 0.7874015748031497,
                    "duration": 0.4545454999999947
                },
                {
                    "name": "A#2",
                    "midi": 46,
                    "time": 120.90910299999939,
                    "velocity": 0.7874015748031497,
                    "duration": 0.4545454999999947
                },
                {
                    "name": "A#3",
                    "midi": 58,
                    "time": 121.36364849999939,
                    "velocity": 0.7874015748031497,
                    "duration": 0.4545454999999947
                },
                {
                    "name": "C3",
                    "midi": 48,
                    "time": 121.81819399999938,
                    "velocity": 0.7874015748031497,
                    "duration": 0.4545454999999947
                },
                {
                    "name": "C4",
                    "midi": 60,
                    "time": 122.27273949999937,
                    "velocity": 0.7874015748031497,
                    "duration": 0.4545454999999947
                },
                {
                    "name": "C3",
                    "midi": 48,
                    "time": 122.72728499999937,
                    "velocity": 0.7874015748031497,
                    "duration": 0.4545454999999947
                },
                {
                    "name": "C4",
                    "midi": 60,
                    "time": 123.18183049999936,
                    "velocity": 0.7874015748031497,
                    "duration": 0.4545454999999947
                },
                {
                    "name": "D3",
                    "midi": 50,
                    "time": 123.63637599999936,
                    "velocity": 0.7874015748031497,
                    "duration": 0.4545454999999947
                },
                {
                    "name": "D4",
                    "midi": 62,
                    "time": 124.09092149999935,
                    "velocity": 0.7874015748031497,
                    "duration": 0.4545454999999947
                },
                {
                    "name": "D3",
                    "midi": 50,
                    "time": 124.54546699999935,
                    "velocity": 0.7874015748031497,
                    "duration": 0.4545454999999947
                },
                {
                    "name": "D4",
                    "midi": 62,
                    "time": 125.00001249999934,
                    "velocity": 0.7874015748031497,
                    "duration": 0.4545454999999947
                },
                {
                    "name": "D#2",
                    "midi": 39,
                    "time": 125.45455799999934,
                    "velocity": 0.7874015748031497,
                    "duration": 0.4545454999999947
                },
                {
                    "name": "D#3",
                    "midi": 51,
                    "time": 125.90910349999933,
                    "velocity": 0.7874015748031497,
                    "duration": 0.4545454999999947
                },
                {
                    "name": "D#2",
                    "midi": 39,
                    "time": 126.36364899999933,
                    "velocity": 0.7874015748031497,
                    "duration": 0.4545454999999947
                },
                {
                    "name": "D#3",
                    "midi": 51,
                    "time": 126.81819449999932,
                    "velocity": 0.7874015748031497,
                    "duration": 0.4545454999999947
                },
                {
                    "name": "F2",
                    "midi": 41,
                    "time": 127.27273999999932,
                    "velocity": 0.7874015748031497,
                    "duration": 0.4545454999999947
                },
                {
                    "name": "F3",
                    "midi": 53,
                    "time": 127.72728549999931,
                    "velocity": 0.7874015748031497,
                    "duration": 0.4545454999999947
                },
                {
                    "name": "F2",
                    "midi": 41,
                    "time": 128.1818309999993,
                    "velocity": 0.7874015748031497,
                    "duration": 0.4545454999999947
                },
                {
                    "name": "F3",
                    "midi": 53,
                    "time": 128.6363764999993,
                    "velocity": 0.7874015748031497,
                    "duration": 0.4545454999999947
                },
                {
                    "name": "G2",
                    "midi": 43,
                    "time": 129.0909219999993,
                    "velocity": 0.7874015748031497,
                    "duration": 0.4545454999999947
                },
                {
                    "name": "G3",
                    "midi": 55,
                    "time": 129.5454674999993,
                    "velocity": 0.7874015748031497,
                    "duration": 0.4545454999999947
                },
                {
                    "name": "G2",
                    "midi": 43,
                    "time": 130.00001299999929,
                    "velocity": 0.7874015748031497,
                    "duration": 0.4545454999999947
                },
                {
                    "name": "G3",
                    "midi": 55,
                    "time": 130.45455849999928,
                    "velocity": 0.7874015748031497,
                    "duration": 0.4545454999999947
                },
                {
                    "name": "G#2",
                    "midi": 44,
                    "time": 130.90910399999927,
                    "velocity": 0.7874015748031497,
                    "duration": 0.4545454999999947
                },
                {
                    "name": "G#3",
                    "midi": 56,
                    "time": 131.36364949999927,
                    "velocity": 0.7874015748031497,
                    "duration": 0.4545454999999947
                },
                {
                    "name": "G#2",
                    "midi": 44,
                    "time": 131.81819499999926,
                    "velocity": 0.7874015748031497,
                    "duration": 0.4545454999999947
                },
                {
                    "name": "G#3",
                    "midi": 56,
                    "time": 132.27274049999926,
                    "velocity": 0.7874015748031497,
                    "duration": 0.4545454999999947
                },
                {
                    "name": "G3",
                    "midi": 55,
                    "time": 132.72728599999925,
                    "velocity": 0.7874015748031497,
                    "duration": 0.4545454999999947
                },
                {
                    "name": "F3",
                    "midi": 53,
                    "time": 133.18183149999925,
                    "velocity": 0.7874015748031497,
                    "duration": 0.4545454999999947
                },
                {
                    "name": "G3",
                    "midi": 55,
                    "time": 133.63637699999924,
                    "velocity": 0.7874015748031497,
                    "duration": 0.4545454999999947
                },
                {
                    "name": "G2",
                    "midi": 43,
                    "time": 134.09092249999924,
                    "velocity": 0.7874015748031497,
                    "duration": 0.4545454999999947
                },
                {
                    "name": "C3",
                    "midi": 48,
                    "time": 134.54546799999923,
                    "velocity": 0.7874015748031497,
                    "duration": 0.9090909999999894
                },
                {
                    "name": "D3",
                    "midi": 50,
                    "time": 147.72728749999922,
                    "velocity": 0.7874015748031497,
                    "duration": 0.4545454999999947
                },
                {
                    "name": "G3",
                    "midi": 55,
                    "time": 148.18183299999922,
                    "velocity": 0.7874015748031497,
                    "duration": 0.4545454999999947
                },
                {
                    "name": "D3",
                    "midi": 50,
                    "time": 148.6363784999992,
                    "velocity": 0.7874015748031497,
                    "duration": 0.4545454999999947
                },
                {
                    "name": "G3",
                    "midi": 55,
                    "time": 149.0909239999992,
                    "velocity": 0.7874015748031497,
                    "duration": 0.4545454999999947
                },
                {
                    "name": "A#3",
                    "midi": 58,
                    "time": 149.5454694999992,
                    "velocity": 0.7874015748031497,
                    "duration": 0.4545454999999947
                },
                {
                    "name": "G3",
                    "midi": 55,
                    "time": 150.0000149999992,
                    "velocity": 0.7874015748031497,
                    "duration": 0.4545454999999947
                },
                {
                    "name": "A#3",
                    "midi": 58,
                    "time": 150.4545604999992,
                    "velocity": 0.7874015748031497,
                    "duration": 0.4545454999999947
                },
                {
                    "name": "G3",
                    "midi": 55,
                    "time": 150.90910599999918,
                    "velocity": 0.7874015748031497,
                    "duration": 0.4545454999999947
                },
                {
                    "name": "D3",
                    "midi": 50,
                    "time": 151.36365149999918,
                    "velocity": 0.7874015748031497,
                    "duration": 0.4545454999999947
                },
                {
                    "name": "G3",
                    "midi": 55,
                    "time": 151.81819699999917,
                    "velocity": 0.7874015748031497,
                    "duration": 0.4545454999999947
                },
                {
                    "name": "D3",
                    "midi": 50,
                    "time": 152.27274249999917,
                    "velocity": 0.7874015748031497,
                    "duration": 0.4545454999999947
                },
                {
                    "name": "G3",
                    "midi": 55,
                    "time": 152.72728799999916,
                    "velocity": 0.7874015748031497,
                    "duration": 0.4545454999999947
                },
                {
                    "name": "G2",
                    "midi": 43,
                    "time": 153.18183349999916,
                    "velocity": 0.7874015748031497,
                    "duration": 0.4545454999999947
                },
                {
                    "name": "C3",
                    "midi": 48,
                    "time": 153.63637899999915,
                    "velocity": 0.7874015748031497,
                    "duration": 0.4545454999999947
                },
                {
                    "name": "G2",
                    "midi": 43,
                    "time": 154.09092449999915,
                    "velocity": 0.7874015748031497,
                    "duration": 0.4545454999999947
                },
                {
                    "name": "C3",
                    "midi": 48,
                    "time": 154.54546999999914,
                    "velocity": 0.7874015748031497,
                    "duration": 0.4545454999999947
                },
                {
                    "name": "D#3",
                    "midi": 51,
                    "time": 155.00001549999914,
                    "velocity": 0.7874015748031497,
                    "duration": 0.4545454999999947
                },
                {
                    "name": "C3",
                    "midi": 48,
                    "time": 155.45456099999913,
                    "velocity": 0.7874015748031497,
                    "duration": 0.4545454999999947
                },
                {
                    "name": "D#3",
                    "midi": 51,
                    "time": 155.90910649999913,
                    "velocity": 0.7874015748031497,
                    "duration": 0.4545454999999947
                },
                {
                    "name": "C3",
                    "midi": 48,
                    "time": 156.36365199999912,
                    "velocity": 0.7874015748031497,
                    "duration": 0.4545454999999947
                },
                {
                    "name": "C3",
                    "midi": 48,
                    "time": 156.81819749999912,
                    "velocity": 0.7874015748031497,
                    "duration": 0.4545454999999947
                },
                {
                    "name": "F3",
                    "midi": 53,
                    "time": 157.2727429999991,
                    "velocity": 0.7874015748031497,
                    "duration": 0.4545454999999947
                },
                {
                    "name": "C3",
                    "midi": 48,
                    "time": 157.7272884999991,
                    "velocity": 0.7874015748031497,
                    "duration": 0.4545454999999947
                },
                {
                    "name": "F3",
                    "midi": 53,
                    "time": 158.1818339999991,
                    "velocity": 0.7874015748031497,
                    "duration": 0.4545454999999947
                },
                {
                    "name": "G#3",
                    "midi": 56,
                    "time": 158.6363794999991,
                    "velocity": 0.7874015748031497,
                    "duration": 0.4545454999999947
                },
                {
                    "name": "F3",
                    "midi": 53,
                    "time": 159.0909249999991,
                    "velocity": 0.7874015748031497,
                    "duration": 0.4545454999999947
                },
                {
                    "name": "G#3",
                    "midi": 56,
                    "time": 159.54547049999908,
                    "velocity": 0.7874015748031497,
                    "duration": 0.4545454999999947
                },
                {
                    "name": "G3",
                    "midi": 55,
                    "time": 160.00001599999908,
                    "velocity": 0.7874015748031497,
                    "duration": 0.4545454999999947
                },
                {
                    "name": "G2",
                    "midi": 43,
                    "time": 160.45456149999907,
                    "velocity": 0.7874015748031497,
                    "duration": 0.4545454999999947
                },
                {
                    "name": "G3",
                    "midi": 55,
                    "time": 160.90910699999907,
                    "velocity": 0.7874015748031497,
                    "duration": 0.4545454999999947
                },
                {
                    "name": "G2",
                    "midi": 43,
                    "time": 161.36365249999906,
                    "velocity": 0.7874015748031497,
                    "duration": 0.4545454999999947
                },
                {
                    "name": "G3",
                    "midi": 55,
                    "time": 161.81819799999906,
                    "velocity": 0.7874015748031497,
                    "duration": 0.4545454999999947
                },
                {
                    "name": "G2",
                    "midi": 43,
                    "time": 162.27274349999905,
                    "velocity": 0.7874015748031497,
                    "duration": 0.4545454999999947
                },
                {
                    "name": "G3",
                    "midi": 55,
                    "time": 162.72728899999905,
                    "velocity": 0.7874015748031497,
                    "duration": 0.4545454999999947
                },
                {
                    "name": "G2",
                    "midi": 43,
                    "time": 163.18183449999904,
                    "velocity": 0.7874015748031497,
                    "duration": 0.4545454999999947
                },
                {
                    "name": "C3",
                    "midi": 48,
                    "time": 163.63637999999904,
                    "velocity": 0.7874015748031497,
                    "duration": 0.9090909999999894
                },
                {
                    "name": "F3",
                    "midi": 53,
                    "time": 167.72728949999902,
                    "velocity": 0.7874015748031497,
                    "duration": 0.4545454999999947
                },
                {
                    "name": "A#3",
                    "midi": 58,
                    "time": 168.181834999999,
                    "velocity": 0.7874015748031497,
                    "duration": 0.4545454999999947
                },
                {
                    "name": "F3",
                    "midi": 53,
                    "time": 168.636380499999,
                    "velocity": 0.7874015748031497,
                    "duration": 0.4545454999999947
                },
                {
                    "name": "A#3",
                    "midi": 58,
                    "time": 169.090925999999,
                    "velocity": 0.7874015748031497,
                    "duration": 0.4545454999999947
                },
                {
                    "name": "D4",
                    "midi": 62,
                    "time": 169.545471499999,
                    "velocity": 0.7874015748031497,
                    "duration": 0.4545454999999947
                },
                {
                    "name": "A#3",
                    "midi": 58,
                    "time": 170.000016999999,
                    "velocity": 0.7874015748031497,
                    "duration": 0.4545454999999947
                },
                {
                    "name": "D4",
                    "midi": 62,
                    "time": 170.45456249999899,
                    "velocity": 0.7874015748031497,
                    "duration": 0.4545454999999947
                },
                {
                    "name": "A#3",
                    "midi": 58,
                    "time": 170.90910799999898,
                    "velocity": 0.7874015748031497,
                    "duration": 0.4545454999999947
                },
                {
                    "name": "A#2",
                    "midi": 46,
                    "time": 171.36365349999897,
                    "velocity": 0.7874015748031497,
                    "duration": 0.4545454999999947
                },
                {
                    "name": "D#3",
                    "midi": 51,
                    "time": 171.81819899999897,
                    "velocity": 0.7874015748031497,
                    "duration": 0.4545454999999947
                },
                {
                    "name": "A#2",
                    "midi": 46,
                    "time": 172.27274449999896,
                    "velocity": 0.7874015748031497,
                    "duration": 0.4545454999999947
                },
                {
                    "name": "D#3",
                    "midi": 51,
                    "time": 172.72728999999896,
                    "velocity": 0.7874015748031497,
                    "duration": 0.4545454999999947
                },
                {
                    "name": "G3",
                    "midi": 55,
                    "time": 173.18183549999895,
                    "velocity": 0.7874015748031497,
                    "duration": 0.4545454999999947
                },
                {
                    "name": "D#3",
                    "midi": 51,
                    "time": 173.63638099999895,
                    "velocity": 0.7874015748031497,
                    "duration": 0.4545454999999947
                },
                {
                    "name": "G3",
                    "midi": 55,
                    "time": 174.09092649999894,
                    "velocity": 0.7874015748031497,
                    "duration": 0.4545454999999947
                },
                {
                    "name": "D#3",
                    "midi": 51,
                    "time": 174.54547199999894,
                    "velocity": 0.7874015748031497,
                    "duration": 0.4545454999999947
                },
                {
                    "name": "F3",
                    "midi": 53,
                    "time": 175.00001749999893,
                    "velocity": 0.7874015748031497,
                    "duration": 0.4545454999999947
                },
                {
                    "name": "G3",
                    "midi": 55,
                    "time": 175.45456299999893,
                    "velocity": 0.7874015748031497,
                    "duration": 0.4545454999999947
                },
                {
                    "name": "D#3",
                    "midi": 51,
                    "time": 175.90910849999892,
                    "velocity": 0.7874015748031497,
                    "duration": 0.4545454999999947
                },
                {
                    "name": "G#3",
                    "midi": 56,
                    "time": 176.36365399999892,
                    "velocity": 0.7874015748031497,
                    "duration": 0.4545454999999947
                },
                {
                    "name": "G#3",
                    "midi": 56,
                    "time": 176.8181994999989,
                    "velocity": 0.7874015748031497,
                    "duration": 0.4545454999999947
                },
                {
                    "name": "F3",
                    "midi": 53,
                    "time": 177.2727449999989,
                    "velocity": 0.7874015748031497,
                    "duration": 0.4545454999999947
                },
                {
                    "name": "G#3",
                    "midi": 56,
                    "time": 177.7272904999989,
                    "velocity": 0.7874015748031497,
                    "duration": 0.4545454999999947
                },
                {
                    "name": "F3",
                    "midi": 53,
                    "time": 178.1818359999989,
                    "velocity": 0.7874015748031497,
                    "duration": 0.4545454999999947
                },
                {
                    "name": "F2",
                    "midi": 41,
                    "time": 178.6363814999989,
                    "velocity": 0.7874015748031497,
                    "duration": 0.4545454999999947
                },
                {
                    "name": "F3",
                    "midi": 53,
                    "time": 179.09092699999889,
                    "velocity": 0.7874015748031497,
                    "duration": 0.4545454999999947
                },
                {
                    "name": "F2",
                    "midi": 41,
                    "time": 179.54547249999888,
                    "velocity": 0.7874015748031497,
                    "duration": 0.4545454999999947
                },
                {
                    "name": "F3",
                    "midi": 53,
                    "time": 180.00001799999887,
                    "velocity": 0.7874015748031497,
                    "duration": 0.4545454999999947
                },
                {
                    "name": "F2",
                    "midi": 41,
                    "time": 180.45456349999887,
                    "velocity": 0.7874015748031497,
                    "duration": 0.4545454999999947
                },
                {
                    "name": "F3",
                    "midi": 53,
                    "time": 180.90910899999886,
                    "velocity": 0.7874015748031497,
                    "duration": 0.4545454999999947
                },
                {
                    "name": "F2",
                    "midi": 41,
                    "time": 181.36365449999886,
                    "velocity": 0.7874015748031497,
                    "duration": 0.4545454999999947
                },
                {
                    "name": "A#2",
                    "midi": 46,
                    "time": 181.81819999999885,
                    "velocity": 0.7874015748031497,
                    "duration": 0.4545454999999947
                },
                {
                    "name": "A#3",
                    "midi": 58,
                    "time": 182.27274549999885,
                    "velocity": 0.7874015748031497,
                    "duration": 0.4545454999999947
                },
                {
                    "name": "A#2",
                    "midi": 46,
                    "time": 182.72729099999884,
                    "velocity": 0.7874015748031497,
                    "duration": 0.4545454999999947
                },
                {
                    "name": "A#3",
                    "midi": 58,
                    "time": 183.18183649999884,
                    "velocity": 0.7874015748031497,
                    "duration": 0.4545454999999947
                },
                {
                    "name": "G#2",
                    "midi": 44,
                    "time": 183.63638199999883,
                    "velocity": 0.7874015748031497,
                    "duration": 0.4545454999999947
                },
                {
                    "name": "G#3",
                    "midi": 56,
                    "time": 184.09092749999883,
                    "velocity": 0.7874015748031497,
                    "duration": 0.4545454999999947
                },
                {
                    "name": "G#2",
                    "midi": 44,
                    "time": 184.54547299999882,
                    "velocity": 0.7874015748031497,
                    "duration": 0.4545454999999947
                },
                {
                    "name": "G#3",
                    "midi": 56,
                    "time": 185.00001849999882,
                    "velocity": 0.7874015748031497,
                    "duration": 0.4545454999999947
                },
                {
                    "name": "G2",
                    "midi": 43,
                    "time": 185.4545639999988,
                    "velocity": 0.7874015748031497,
                    "duration": 0.4545454999999947
                },
                {
                    "name": "G3",
                    "midi": 55,
                    "time": 185.9091094999988,
                    "velocity": 0.7874015748031497,
                    "duration": 0.4545454999999947
                },
                {
                    "name": "G2",
                    "midi": 43,
                    "time": 186.3636549999988,
                    "velocity": 0.7874015748031497,
                    "duration": 0.4545454999999947
                },
                {
                    "name": "G3",
                    "midi": 55,
                    "time": 186.8182004999988,
                    "velocity": 0.7874015748031497,
                    "duration": 0.4545454999999947
                },
                {
                    "name": "F2",
                    "midi": 41,
                    "time": 187.2727459999988,
                    "velocity": 0.7874015748031497,
                    "duration": 0.4545454999999947
                },
                {
                    "name": "F3",
                    "midi": 53,
                    "time": 187.72729149999878,
                    "velocity": 0.7874015748031497,
                    "duration": 0.4545454999999947
                },
                {
                    "name": "F2",
                    "midi": 41,
                    "time": 188.18183699999878,
                    "velocity": 0.7874015748031497,
                    "duration": 0.4545454999999947
                },
                {
                    "name": "F3",
                    "midi": 53,
                    "time": 188.63638249999877,
                    "velocity": 0.7874015748031497,
                    "duration": 0.4545454999999947
                },
                {
                    "name": "D#2",
                    "midi": 39,
                    "time": 189.09092799999877,
                    "velocity": 0.7874015748031497,
                    "duration": 0.4545454999999947
                },
                {
                    "name": "D#3",
                    "midi": 51,
                    "time": 189.54547349999876,
                    "velocity": 0.7874015748031497,
                    "duration": 0.4545454999999947
                },
                {
                    "name": "D#2",
                    "midi": 39,
                    "time": 190.00001899999876,
                    "velocity": 0.7874015748031497,
                    "duration": 0.4545454999999947
                },
                {
                    "name": "D#3",
                    "midi": 51,
                    "time": 190.45456449999875,
                    "velocity": 0.7874015748031497,
                    "duration": 0.4545454999999947
                },
                {
                    "name": "D2",
                    "midi": 38,
                    "time": 190.90910999999875,
                    "velocity": 0.7874015748031497,
                    "duration": 0.4545454999999947
                },
                {
                    "name": "D3",
                    "midi": 50,
                    "time": 191.36365549999874,
                    "velocity": 0.7874015748031497,
                    "duration": 0.4545454999999947
                },
                {
                    "name": "D2",
                    "midi": 38,
                    "time": 191.81820099999874,
                    "velocity": 0.7874015748031497,
                    "duration": 0.4545454999999947
                },
                {
                    "name": "D3",
                    "midi": 50,
                    "time": 192.27274649999873,
                    "velocity": 0.7874015748031497,
                    "duration": 0.4545454999999947
                },
                {
                    "name": "C2",
                    "midi": 36,
                    "time": 192.72729199999873,
                    "velocity": 0.7874015748031497,
                    "duration": 0.4545454999999947
                },
                {
                    "name": "C3",
                    "midi": 48,
                    "time": 193.18183749999872,
                    "velocity": 0.7874015748031497,
                    "duration": 0.4545454999999947
                },
                {
                    "name": "C2",
                    "midi": 36,
                    "time": 193.63638299999872,
                    "velocity": 0.7874015748031497,
                    "duration": 0.4545454999999947
                },
                {
                    "name": "C3",
                    "midi": 48,
                    "time": 194.0909284999987,
                    "velocity": 0.7874015748031497,
                    "duration": 0.4545454999999947
                },
                {
                    "name": "D2",
                    "midi": 38,
                    "time": 194.5454739999987,
                    "velocity": 0.7874015748031497,
                    "duration": 0.4545454999999947
                },
                {
                    "name": "D3",
                    "midi": 50,
                    "time": 195.0000194999987,
                    "velocity": 0.7874015748031497,
                    "duration": 0.4545454999999947
                },
                {
                    "name": "D2",
                    "midi": 38,
                    "time": 195.4545649999987,
                    "velocity": 0.7874015748031497,
                    "duration": 0.4545454999999947
                },
                {
                    "name": "D3",
                    "midi": 50,
                    "time": 195.9091104999987,
                    "velocity": 0.7874015748031497,
                    "duration": 0.4545454999999947
                },
                {
                    "name": "D#2",
                    "midi": 39,
                    "time": 196.36365599999868,
                    "velocity": 0.7874015748031497,
                    "duration": 0.4545454999999947
                },
                {
                    "name": "D#3",
                    "midi": 51,
                    "time": 196.81820149999868,
                    "velocity": 0.7874015748031497,
                    "duration": 0.4545454999999947
                },
                {
                    "name": "D#2",
                    "midi": 39,
                    "time": 197.27274699999867,
                    "velocity": 0.7874015748031497,
                    "duration": 0.4545454999999947
                },
                {
                    "name": "D#3",
                    "midi": 51,
                    "time": 197.72729249999867,
                    "velocity": 0.7874015748031497,
                    "duration": 0.4545454999999947
                },
                {
                    "name": "F2",
                    "midi": 41,
                    "time": 198.18183799999866,
                    "velocity": 0.7874015748031497,
                    "duration": 0.4545454999999947
                },
                {
                    "name": "F3",
                    "midi": 53,
                    "time": 198.63638349999866,
                    "velocity": 0.7874015748031497,
                    "duration": 0.4545454999999947
                },
                {
                    "name": "F2",
                    "midi": 41,
                    "time": 199.09092899999865,
                    "velocity": 0.7874015748031497,
                    "duration": 0.4545454999999947
                },
                {
                    "name": "F3",
                    "midi": 53,
                    "time": 199.54547449999865,
                    "velocity": 0.7874015748031497,
                    "duration": 0.4545454999999947
                },
                {
                    "name": "D#2",
                    "midi": 39,
                    "time": 200.00001999999864,
                    "velocity": 0.7874015748031497,
                    "duration": 0.4545454999999947
                },
                {
                    "name": "D#3",
                    "midi": 51,
                    "time": 200.45456549999864,
                    "velocity": 0.7874015748031497,
                    "duration": 0.4545454999999947
                },
                {
                    "name": "D#2",
                    "midi": 39,
                    "time": 200.90911099999863,
                    "velocity": 0.7874015748031497,
                    "duration": 0.4545454999999947
                },
                {
                    "name": "D#3",
                    "midi": 51,
                    "time": 201.36365649999863,
                    "velocity": 0.7874015748031497,
                    "duration": 0.4545454999999947
                },
                {
                    "name": "D2",
                    "midi": 38,
                    "time": 201.81820199999862,
                    "velocity": 0.7874015748031497,
                    "duration": 0.4545454999999947
                },
                {
                    "name": "D3",
                    "midi": 50,
                    "time": 202.27274749999862,
                    "velocity": 0.7874015748031497,
                    "duration": 0.4545454999999947
                },
                {
                    "name": "D2",
                    "midi": 38,
                    "time": 202.7272929999986,
                    "velocity": 0.7874015748031497,
                    "duration": 0.4545454999999947
                },
                {
                    "name": "D3",
                    "midi": 50,
                    "time": 203.1818384999986,
                    "velocity": 0.7874015748031497,
                    "duration": 0.4545454999999947
                },
                {
                    "name": "E2",
                    "midi": 40,
                    "time": 203.6363839999986,
                    "velocity": 0.7874015748031497,
                    "duration": 0.4545454999999947
                },
                {
                    "name": "E3",
                    "midi": 52,
                    "time": 204.0909294999986,
                    "velocity": 0.7874015748031497,
                    "duration": 0.4545454999999947
                },
                {
                    "name": "E2",
                    "midi": 40,
                    "time": 204.5454749999986,
                    "velocity": 0.7874015748031497,
                    "duration": 0.4545454999999947
                },
                {
                    "name": "E3",
                    "midi": 52,
                    "time": 205.00002049999858,
                    "velocity": 0.7874015748031497,
                    "duration": 0.4545454999999947
                },
                {
                    "name": "F2",
                    "midi": 41,
                    "time": 205.45456599999858,
                    "velocity": 0.7874015748031497,
                    "duration": 0.4545454999999947
                },
                {
                    "name": "F3",
                    "midi": 53,
                    "time": 205.90911149999857,
                    "velocity": 0.7874015748031497,
                    "duration": 0.4545454999999947
                },
                {
                    "name": "F2",
                    "midi": 41,
                    "time": 206.36365699999857,
                    "velocity": 0.7874015748031497,
                    "duration": 0.4545454999999947
                },
                {
                    "name": "F3",
                    "midi": 53,
                    "time": 206.81820249999856,
                    "velocity": 0.7874015748031497,
                    "duration": 0.4545454999999947
                },
                {
                    "name": "G2",
                    "midi": 43,
                    "time": 207.27274799999856,
                    "velocity": 0.7874015748031497,
                    "duration": 0.4545454999999947
                },
                {
                    "name": "G3",
                    "midi": 55,
                    "time": 207.72729349999855,
                    "velocity": 0.7874015748031497,
                    "duration": 0.4545454999999947
                },
                {
                    "name": "G2",
                    "midi": 43,
                    "time": 208.18183899999855,
                    "velocity": 0.7874015748031497,
                    "duration": 0.4545454999999947
                },
                {
                    "name": "G3",
                    "midi": 55,
                    "time": 208.63638449999854,
                    "velocity": 0.7874015748031497,
                    "duration": 0.4545454999999947
                },
                {
                    "name": "A2",
                    "midi": 45,
                    "time": 209.09092999999854,
                    "velocity": 0.7874015748031497,
                    "duration": 0.4545454999999947
                },
                {
                    "name": "A3",
                    "midi": 57,
                    "time": 209.54547549999853,
                    "velocity": 0.7874015748031497,
                    "duration": 0.4545454999999947
                },
                {
                    "name": "A2",
                    "midi": 45,
                    "time": 210.00002099999853,
                    "velocity": 0.7874015748031497,
                    "duration": 0.4545454999999947
                },
                {
                    "name": "A3",
                    "midi": 57,
                    "time": 210.45456649999852,
                    "velocity": 0.7874015748031497,
                    "duration": 0.4545454999999947
                },
                {
                    "name": "A#2",
                    "midi": 46,
                    "time": 210.90911199999852,
                    "velocity": 0.7874015748031497,
                    "duration": 0.4545454999999947
                },
                {
                    "name": "A#3",
                    "midi": 58,
                    "time": 211.3636574999985,
                    "velocity": 0.7874015748031497,
                    "duration": 0.4545454999999947
                },
                {
                    "name": "A#2",
                    "midi": 46,
                    "time": 211.8182029999985,
                    "velocity": 0.7874015748031497,
                    "duration": 0.4545454999999947
                },
                {
                    "name": "A#3",
                    "midi": 58,
                    "time": 212.2727484999985,
                    "velocity": 0.7874015748031497,
                    "duration": 0.4545454999999947
                },
                {
                    "name": "C3",
                    "midi": 48,
                    "time": 212.7272939999985,
                    "velocity": 0.7874015748031497,
                    "duration": 0.4545454999999947
                },
                {
                    "name": "C4",
                    "midi": 60,
                    "time": 213.1818394999985,
                    "velocity": 0.7874015748031497,
                    "duration": 0.4545454999999947
                },
                {
                    "name": "C3",
                    "midi": 48,
                    "time": 213.63638499999848,
                    "velocity": 0.7874015748031497,
                    "duration": 0.4545454999999947
                },
                {
                    "name": "C4",
                    "midi": 60,
                    "time": 214.09093049999848,
                    "velocity": 0.7874015748031497,
                    "duration": 0.4545454999999947
                },
                {
                    "name": "D3",
                    "midi": 50,
                    "time": 214.54547599999847,
                    "velocity": 0.7874015748031497,
                    "duration": 0.4545454999999947
                },
                {
                    "name": "D4",
                    "midi": 62,
                    "time": 215.00002149999847,
                    "velocity": 0.7874015748031497,
                    "duration": 0.4545454999999947
                },
                {
                    "name": "D3",
                    "midi": 50,
                    "time": 215.45456699999846,
                    "velocity": 0.7874015748031497,
                    "duration": 0.4545454999999947
                },
                {
                    "name": "D4",
                    "midi": 62,
                    "time": 215.90911249999846,
                    "velocity": 0.7874015748031497,
                    "duration": 0.4545454999999947
                },
                {
                    "name": "D#2",
                    "midi": 39,
                    "time": 216.36365799999845,
                    "velocity": 0.7874015748031497,
                    "duration": 0.4545454999999947
                },
                {
                    "name": "D#3",
                    "midi": 51,
                    "time": 216.81820349999845,
                    "velocity": 0.7874015748031497,
                    "duration": 0.4545454999999947
                },
                {
                    "name": "D#2",
                    "midi": 39,
                    "time": 217.27274899999844,
                    "velocity": 0.7874015748031497,
                    "duration": 0.4545454999999947
                },
                {
                    "name": "D#3",
                    "midi": 51,
                    "time": 217.72729449999844,
                    "velocity": 0.7874015748031497,
                    "duration": 0.4545454999999947
                },
                {
                    "name": "F2",
                    "midi": 41,
                    "time": 218.18183999999843,
                    "velocity": 0.7874015748031497,
                    "duration": 0.4545454999999947
                },
                {
                    "name": "F3",
                    "midi": 53,
                    "time": 218.63638549999843,
                    "velocity": 0.7874015748031497,
                    "duration": 0.4545454999999947
                },
                {
                    "name": "F2",
                    "midi": 41,
                    "time": 219.09093099999842,
                    "velocity": 0.7874015748031497,
                    "duration": 0.4545454999999947
                },
                {
                    "name": "F3",
                    "midi": 53,
                    "time": 219.54547649999841,
                    "velocity": 0.7874015748031497,
                    "duration": 0.4545454999999947
                },
                {
                    "name": "G2",
                    "midi": 43,
                    "time": 220.0000219999984,
                    "velocity": 0.7874015748031497,
                    "duration": 0.4545454999999947
                },
                {
                    "name": "G3",
                    "midi": 55,
                    "time": 220.4545674999984,
                    "velocity": 0.7874015748031497,
                    "duration": 0.4545454999999947
                },
                {
                    "name": "G2",
                    "midi": 43,
                    "time": 220.9091129999984,
                    "velocity": 0.7874015748031497,
                    "duration": 0.4545454999999947
                },
                {
                    "name": "G3",
                    "midi": 55,
                    "time": 221.3636584999984,
                    "velocity": 0.7874015748031497,
                    "duration": 0.4545454999999947
                },
                {
                    "name": "G#2",
                    "midi": 44,
                    "time": 221.8182039999984,
                    "velocity": 0.7874015748031497,
                    "duration": 0.4545454999999947
                },
                {
                    "name": "G#3",
                    "midi": 56,
                    "time": 222.27274949999838,
                    "velocity": 0.7874015748031497,
                    "duration": 0.4545454999999947
                },
                {
                    "name": "G#2",
                    "midi": 44,
                    "time": 222.72729499999838,
                    "velocity": 0.7874015748031497,
                    "duration": 0.4545454999999947
                },
                {
                    "name": "G#3",
                    "midi": 56,
                    "time": 223.18184049999837,
                    "velocity": 0.7874015748031497,
                    "duration": 0.4545454999999947
                },
                {
                    "name": "G3",
                    "midi": 55,
                    "time": 223.63638599999837,
                    "velocity": 0.7874015748031497,
                    "duration": 0.4545454999999947
                },
                {
                    "name": "F3",
                    "midi": 53,
                    "time": 224.09093149999836,
                    "velocity": 0.7874015748031497,
                    "duration": 0.4545454999999947
                },
                {
                    "name": "G3",
                    "midi": 55,
                    "time": 224.54547699999836,
                    "velocity": 0.7874015748031497,
                    "duration": 0.4545454999999947
                },
                {
                    "name": "G2",
                    "midi": 43,
                    "time": 225.00002249999835,
                    "velocity": 0.7874015748031497,
                    "duration": 0.4545454999999947
                },
                {
                    "name": "C3",
                    "midi": 48,
                    "time": 225.45456799999835,
                    "velocity": 0.7874015748031497,
                    "duration": 3.636363999999986
                }
            ],
            "controlChanges": {
                "7": [
                    {
                        "number": 7,
                        "time": 0,
                        "value": 0.7874015748031497
                    }
                ],
                "10": [
                    {
                        "number": 10,
                        "time": 0,
                        "value": 0.5039370078740157
                    }
                ]
            },
            "id": 4,
            "name": "Bass",
            "instrumentNumber": 49,
            "instrument": "string ensemble 2",
            "instrumentFamily": "ensemble",
            "channelNumber": 3,
            "isPercussion": false
        },
        {
            "startTime": 0,
            "duration": 228.18184099999814,
            "length": 1179,
            "notes": [
                {
                    "name": "D#5",
                    "midi": 75,
                    "time": 0,
                    "velocity": 0.7874015748031497,
                    "duration": 1.3636365
                },
                {
                    "name": "G5",
                    "midi": 79,
                    "time": 0,
                    "velocity": 0.7874015748031497,
                    "duration": 1.3636365
                },
                {
                    "name": "D#5",
                    "midi": 75,
                    "time": 1.3636365,
                    "velocity": 0.7874015748031497,
                    "duration": 0.45454550000000005
                },
                {
                    "name": "G5",
                    "midi": 79,
                    "time": 1.3636365,
                    "velocity": 0.7874015748031497,
                    "duration": 0.45454550000000005
                },
                {
                    "name": "D#5",
                    "midi": 75,
                    "time": 1.818182,
                    "velocity": 0.7874015748031497,
                    "duration": 0.9090909999999999
                },
                {
                    "name": "F5",
                    "midi": 77,
                    "time": 1.818182,
                    "velocity": 0.7874015748031497,
                    "duration": 0.6818182499999998
                },
                {
                    "name": "G5",
                    "midi": 79,
                    "time": 2.50000025,
                    "velocity": 0.7874015748031497,
                    "duration": 0.22727275000000002
                },
                {
                    "name": "D5",
                    "midi": 74,
                    "time": 2.727273,
                    "velocity": 0.7874015748031497,
                    "duration": 0.9090910000000001
                },
                {
                    "name": "F5",
                    "midi": 77,
                    "time": 2.727273,
                    "velocity": 0.7874015748031497,
                    "duration": 0.6818182500000001
                },
                {
                    "name": "D5",
                    "midi": 74,
                    "time": 3.40909125,
                    "velocity": 0.7874015748031497,
                    "duration": 0.22727275000000002
                },
                {
                    "name": "D5",
                    "midi": 74,
                    "time": 3.636364,
                    "velocity": 0.7874015748031497,
                    "duration": 0.4545454999999996
                },
                {
                    "name": "D#5",
                    "midi": 75,
                    "time": 3.636364,
                    "velocity": 0.7874015748031497,
                    "duration": 1.3636364999999997
                },
                {
                    "name": "D5",
                    "midi": 74,
                    "time": 4.0909094999999995,
                    "velocity": 0.7874015748031497,
                    "duration": 0.45454550000000005
                },
                {
                    "name": "C5",
                    "midi": 72,
                    "time": 4.545455,
                    "velocity": 0.7874015748031497,
                    "duration": 0.9090910000000001
                },
                {
                    "name": "D#5",
                    "midi": 75,
                    "time": 5.0000005,
                    "velocity": 0.7874015748031497,
                    "duration": 0.45454550000000005
                },
                {
                    "name": "E5",
                    "midi": 76,
                    "time": 5.454546,
                    "velocity": 0.7874015748031497,
                    "duration": 1.3636365000000001
                },
                {
                    "name": "A#4",
                    "midi": 70,
                    "time": 5.454546,
                    "velocity": 0.7874015748031497,
                    "duration": 1.8181820000000002
                },
                {
                    "name": "E5",
                    "midi": 76,
                    "time": 6.8181825,
                    "velocity": 0.7874015748031497,
                    "duration": 0.45454550000000005
                },
                {
                    "name": "F5",
                    "midi": 77,
                    "time": 7.272728,
                    "velocity": 0.7874015748031497,
                    "duration": 1.3636364999999993
                },
                {
                    "name": "G#4",
                    "midi": 68,
                    "time": 7.272728,
                    "velocity": 0.7874015748031497,
                    "duration": 1.3636364999999993
                },
                {
                    "name": "E5",
                    "midi": 76,
                    "time": 8.636364499999999,
                    "velocity": 0.7874015748031497,
                    "duration": 0.22727274999999914
                },
                {
                    "name": "G#4",
                    "midi": 68,
                    "time": 8.636364499999999,
                    "velocity": 0.7874015748031497,
                    "duration": 0.45454549999999827
                },
                {
                    "name": "F5",
                    "midi": 77,
                    "time": 8.863637249999998,
                    "velocity": 0.7874015748031497,
                    "duration": 0.22727274999999914
                },
                {
                    "name": "G5",
                    "midi": 79,
                    "time": 9.090909999999997,
                    "velocity": 0.7874015748031497,
                    "duration": 1.3636365000000001
                },
                {
                    "name": "G4",
                    "midi": 67,
                    "time": 9.090909999999997,
                    "velocity": 0.7874015748031497,
                    "duration": 0.9090910000000001
                },
                {
                    "name": "C5",
                    "midi": 72,
                    "time": 10.000000999999997,
                    "velocity": 0.7874015748031497,
                    "duration": 0.9090910000000001
                },
                {
                    "name": "G5",
                    "midi": 79,
                    "time": 10.454546499999998,
                    "velocity": 0.7874015748031497,
                    "duration": 0.45454550000000005
                },
                {
                    "name": "D5",
                    "midi": 74,
                    "time": 10.909091999999998,
                    "velocity": 0.7874015748031497,
                    "duration": 1.3636365000000001
                },
                {
                    "name": "G5",
                    "midi": 79,
                    "time": 10.909091999999998,
                    "velocity": 0.7874015748031497,
                    "duration": 0.9090910000000001
                },
                {
                    "name": "G#5",
                    "midi": 80,
                    "time": 11.818182999999998,
                    "velocity": 0.7874015748031497,
                    "duration": 1.3636365000000001
                },
                {
                    "name": "D5",
                    "midi": 74,
                    "time": 12.272728499999998,
                    "velocity": 0.7874015748031497,
                    "duration": 0.45454550000000005
                },
                {
                    "name": "C5",
                    "midi": 72,
                    "time": 12.727273999999998,
                    "velocity": 0.7874015748031497,
                    "duration": 0.45454550000000005
                },
                {
                    "name": "D5",
                    "midi": 74,
                    "time": 13.181819499999998,
                    "velocity": 0.7874015748031497,
                    "duration": 0.45454550000000005
                },
                {
                    "name": "G#5",
                    "midi": 80,
                    "time": 13.181819499999998,
                    "velocity": 0.7874015748031497,
                    "duration": 0.45454550000000005
                },
                {
                    "name": "D#5",
                    "midi": 75,
                    "time": 13.636364999999998,
                    "velocity": 0.7874015748031497,
                    "duration": 1.3636365000000001
                },
                {
                    "name": "G5",
                    "midi": 79,
                    "time": 13.636364999999998,
                    "velocity": 0.7874015748031497,
                    "duration": 1.3636365000000001
                },
                {
                    "name": "D#5",
                    "midi": 75,
                    "time": 15.000001499999998,
                    "velocity": 0.7874015748031497,
                    "duration": 0.45454550000000005
                },
                {
                    "name": "F5",
                    "midi": 77,
                    "time": 15.000001499999998,
                    "velocity": 0.7874015748031497,
                    "duration": 0.45454550000000005
                },
                {
                    "name": "F5",
                    "midi": 77,
                    "time": 15.454546999999998,
                    "velocity": 0.7874015748031497,
                    "duration": 1.3636364999999984
                },
                {
                    "name": "D5",
                    "midi": 74,
                    "time": 15.454546999999998,
                    "velocity": 0.7874015748031497,
                    "duration": 0.9090910000000001
                },
                {
                    "name": "C5",
                    "midi": 72,
                    "time": 16.363637999999998,
                    "velocity": 0.7874015748031497,
                    "duration": 1.8181820000000002
                },
                {
                    "name": "G5",
                    "midi": 79,
                    "time": 16.818183499999996,
                    "velocity": 0.7874015748031497,
                    "duration": 0.45454549999999827
                },
                {
                    "name": "F5",
                    "midi": 77,
                    "time": 17.272728999999995,
                    "velocity": 0.7874015748031497,
                    "duration": 0.2272727500000009
                },
                {
                    "name": "D#5",
                    "midi": 75,
                    "time": 17.500001749999996,
                    "velocity": 0.7874015748031497,
                    "duration": 0.2272727500000009
                },
                {
                    "name": "D5",
                    "midi": 74,
                    "time": 17.727274499999996,
                    "velocity": 0.7874015748031497,
                    "duration": 0.2272727500000009
                },
                {
                    "name": "D#5",
                    "midi": 75,
                    "time": 17.954547249999997,
                    "velocity": 0.7874015748031497,
                    "duration": 0.2272727500000009
                },
                {
                    "name": "D5",
                    "midi": 74,
                    "time": 18.18182,
                    "velocity": 0.7874015748031497,
                    "duration": 0.9090910000000001
                },
                {
                    "name": "A#4",
                    "midi": 70,
                    "time": 18.18182,
                    "velocity": 0.7874015748031497,
                    "duration": 0.9090910000000001
                },
                {
                    "name": "D5",
                    "midi": 74,
                    "time": 19.545456499999997,
                    "velocity": 0.7874015748031497,
                    "duration": 0.45454549999999827
                },
                {
                    "name": "C5",
                    "midi": 72,
                    "time": 19.545456499999997,
                    "velocity": 0.7874015748031497,
                    "duration": 0.45454549999999827
                },
                {
                    "name": "A5",
                    "midi": 81,
                    "time": 20.000001999999995,
                    "velocity": 0.7874015748031497,
                    "duration": 1.3636364999999984
                },
                {
                    "name": "A4",
                    "midi": 69,
                    "time": 20.000001999999995,
                    "velocity": 0.7874015748031497,
                    "duration": 1.8181819999999966
                },
                {
                    "name": "D5",
                    "midi": 74,
                    "time": 20.000001999999995,
                    "velocity": 0.7874015748031497,
                    "duration": 1.8181819999999966
                },
                {
                    "name": "A5",
                    "midi": 81,
                    "time": 21.363638499999993,
                    "velocity": 0.7874015748031497,
                    "duration": 0.45454549999999827
                },
                {
                    "name": "A#5",
                    "midi": 82,
                    "time": 21.81818399999999,
                    "velocity": 0.7874015748031497,
                    "duration": 1.3636364999999984
                },
                {
                    "name": "G5",
                    "midi": 79,
                    "time": 21.81818399999999,
                    "velocity": 0.7874015748031497,
                    "duration": 1.3636364999999984
                },
                {
                    "name": "A#4",
                    "midi": 70,
                    "time": 21.81818399999999,
                    "velocity": 0.7874015748031497,
                    "duration": 0.9090910000000001
                },
                {
                    "name": "D5",
                    "midi": 74,
                    "time": 21.81818399999999,
                    "velocity": 0.7874015748031497,
                    "duration": 0.9090910000000001
                },
                {
                    "name": "D#5",
                    "midi": 75,
                    "time": 22.72727499999999,
                    "velocity": 0.7874015748031497,
                    "duration": 0.6818182499999992
                },
                {
                    "name": "A#5",
                    "midi": 82,
                    "time": 23.18182049999999,
                    "velocity": 0.7874015748031497,
                    "duration": 0.4545455000000018
                },
                {
                    "name": "G5",
                    "midi": 79,
                    "time": 23.18182049999999,
                    "velocity": 0.7874015748031497,
                    "duration": 0.4545455000000018
                },
                {
                    "name": "D5",
                    "midi": 74,
                    "time": 23.40909324999999,
                    "velocity": 0.7874015748031497,
                    "duration": 0.2272727500000009
                },
                {
                    "name": "A#5",
                    "midi": 82,
                    "time": 23.63636599999999,
                    "velocity": 0.7874015748031497,
                    "duration": 0.45454549999999827
                },
                {
                    "name": "C5",
                    "midi": 72,
                    "time": 23.63636599999999,
                    "velocity": 0.7874015748031497,
                    "duration": 2.727272999999993
                },
                {
                    "name": "G5",
                    "midi": 79,
                    "time": 23.63636599999999,
                    "velocity": 0.7874015748031497,
                    "duration": 1.818181999999993
                },
                {
                    "name": "G#5",
                    "midi": 80,
                    "time": 24.09091149999999,
                    "velocity": 0.7874015748031497,
                    "duration": 0.45454549999999827
                },
                {
                    "name": "A#5",
                    "midi": 82,
                    "time": 24.54545699999999,
                    "velocity": 0.7874015748031497,
                    "duration": 0.45454549999999827
                },
                {
                    "name": "G5",
                    "midi": 79,
                    "time": 25.000002499999987,
                    "velocity": 0.7874015748031497,
                    "duration": 0.45454549999999827
                },
                {
                    "name": "G#5",
                    "midi": 80,
                    "time": 25.454547999999985,
                    "velocity": 0.7874015748031497,
                    "duration": 1.3636364999999984
                },
                {
                    "name": "F5",
                    "midi": 77,
                    "time": 25.454547999999985,
                    "velocity": 0.7874015748031497,
                    "duration": 1.3636364999999984
                },
                {
                    "name": "C5",
                    "midi": 72,
                    "time": 26.363638999999985,
                    "velocity": 0.7874015748031497,
                    "duration": 0.9090909999999965
                },
                {
                    "name": "G#5",
                    "midi": 80,
                    "time": 26.818184499999983,
                    "velocity": 0.7874015748031497,
                    "duration": 0.45454549999999827
                },
                {
                    "name": "F5",
                    "midi": 77,
                    "time": 26.818184499999983,
                    "velocity": 0.7874015748031497,
                    "duration": 0.45454549999999827
                },
                {
                    "name": "A5",
                    "midi": 81,
                    "time": 27.27272999999998,
                    "velocity": 0.7874015748031497,
                    "duration": 0.9090910000000001
                },
                {
                    "name": "F#5",
                    "midi": 78,
                    "time": 27.27272999999998,
                    "velocity": 0.7874015748031497,
                    "duration": 0.9090910000000001
                },
                {
                    "name": "C5",
                    "midi": 72,
                    "time": 27.27272999999998,
                    "velocity": 0.7874015748031497,
                    "duration": 0.9090910000000001
                },
                {
                    "name": "C5",
                    "midi": 72,
                    "time": 28.18182099999998,
                    "velocity": 0.7874015748031497,
                    "duration": 0.9090909999999965
                },
                {
                    "name": "G5",
                    "midi": 79,
                    "time": 28.18182099999998,
                    "velocity": 0.7874015748031497,
                    "duration": 0.9090909999999965
                },
                {
                    "name": "A5",
                    "midi": 81,
                    "time": 28.18182099999998,
                    "velocity": 0.7874015748031497,
                    "duration": 0.45454549999999827
                },
                {
                    "name": "A#5",
                    "midi": 82,
                    "time": 28.63636649999998,
                    "velocity": 0.7874015748031497,
                    "duration": 0.45454549999999827
                },
                {
                    "name": "F#5",
                    "midi": 78,
                    "time": 29.090911999999978,
                    "velocity": 0.7874015748031497,
                    "duration": 0.9090910000000001
                },
                {
                    "name": "C5",
                    "midi": 72,
                    "time": 29.090911999999978,
                    "velocity": 0.7874015748031497,
                    "duration": 0.9090910000000001
                },
                {
                    "name": "A4",
                    "midi": 69,
                    "time": 29.090911999999978,
                    "velocity": 0.7874015748031497,
                    "duration": 0.9090910000000001
                },
                {
                    "name": "D5",
                    "midi": 74,
                    "time": 30.000002999999978,
                    "velocity": 0.7874015748031497,
                    "duration": 0.9090910000000001
                },
                {
                    "name": "A#4",
                    "midi": 70,
                    "time": 30.000002999999978,
                    "velocity": 0.7874015748031497,
                    "duration": 0.9090910000000001
                },
                {
                    "name": "F#4",
                    "midi": 66,
                    "time": 30.000002999999978,
                    "velocity": 0.7874015748031497,
                    "duration": 0.9090910000000001
                },
                {
                    "name": "F5",
                    "midi": 77,
                    "time": 30.90909399999998,
                    "velocity": 0.7874015748031497,
                    "duration": 1.8181819999999966
                },
                {
                    "name": "D5",
                    "midi": 74,
                    "time": 30.90909399999998,
                    "velocity": 0.7874015748031497,
                    "duration": 1.8181819999999966
                },
                {
                    "name": "A#4",
                    "midi": 70,
                    "time": 30.90909399999998,
                    "velocity": 0.7874015748031497,
                    "duration": 0.6818182499999992
                },
                {
                    "name": "F4",
                    "midi": 65,
                    "time": 30.90909399999998,
                    "velocity": 0.7874015748031497,
                    "duration": 0.6818182499999992
                },
                {
                    "name": "A#4",
                    "midi": 70,
                    "time": 31.590912249999977,
                    "velocity": 0.7874015748031497,
                    "duration": 0.2272727500000009
                },
                {
                    "name": "A4",
                    "midi": 69,
                    "time": 31.81818499999998,
                    "velocity": 0.7874015748031497,
                    "duration": 0.6818182499999992
                },
                {
                    "name": "A#4",
                    "midi": 70,
                    "time": 32.50000324999998,
                    "velocity": 0.7874015748031497,
                    "duration": 0.22727274999999736
                },
                {
                    "name": "F5",
                    "midi": 77,
                    "time": 32.727275999999975,
                    "velocity": 0.7874015748031497,
                    "duration": 0.6818182499999992
                },
                {
                    "name": "D5",
                    "midi": 74,
                    "time": 32.727275999999975,
                    "velocity": 0.7874015748031497,
                    "duration": 1.818181999999993
                },
                {
                    "name": "G4",
                    "midi": 67,
                    "time": 32.727275999999975,
                    "velocity": 0.7874015748031497,
                    "duration": 1.818181999999993
                },
                {
                    "name": "F5",
                    "midi": 77,
                    "time": 33.409094249999974,
                    "velocity": 0.7874015748031497,
                    "duration": 0.22727274999999736
                },
                {
                    "name": "G5",
                    "midi": 79,
                    "time": 33.63636699999997,
                    "velocity": 0.7874015748031497,
                    "duration": 0.6818182499999992
                },
                {
                    "name": "D5",
                    "midi": 74,
                    "time": 34.31818524999997,
                    "velocity": 0.7874015748031497,
                    "duration": 0.22727274999999736
                },
                {
                    "name": "D#5",
                    "midi": 75,
                    "time": 34.54545799999997,
                    "velocity": 0.7874015748031497,
                    "duration": 2.7272729999999896
                },
                {
                    "name": "D5",
                    "midi": 74,
                    "time": 34.54545799999997,
                    "velocity": 0.7874015748031497,
                    "duration": 0.6818182499999992
                },
                {
                    "name": "G4",
                    "midi": 67,
                    "time": 34.54545799999997,
                    "velocity": 0.7874015748031497,
                    "duration": 0.6818182499999992
                },
                {
                    "name": "D5",
                    "midi": 74,
                    "time": 35.22727624999997,
                    "velocity": 0.7874015748031497,
                    "duration": 0.22727274999999736
                },
                {
                    "name": "G4",
                    "midi": 67,
                    "time": 35.22727624999997,
                    "velocity": 0.7874015748031497,
                    "duration": 0.22727274999999736
                },
                {
                    "name": "C5",
                    "midi": 72,
                    "time": 35.454548999999965,
                    "velocity": 0.7874015748031497,
                    "duration": 0.6818182499999992
                },
                {
                    "name": "G#4",
                    "midi": 68,
                    "time": 35.454548999999965,
                    "velocity": 0.7874015748031497,
                    "duration": 0.6818182499999992
                },
                {
                    "name": "G4",
                    "midi": 67,
                    "time": 36.136367249999964,
                    "velocity": 0.7874015748031497,
                    "duration": 0.22727274999999736
                },
                {
                    "name": "C5",
                    "midi": 72,
                    "time": 36.36363999999996,
                    "velocity": 0.7874015748031497,
                    "duration": 0.9090909999999965
                },
                {
                    "name": "D#5",
                    "midi": 75,
                    "time": 37.27273099999996,
                    "velocity": 0.7874015748031497,
                    "duration": 0.9090909999999965
                },
                {
                    "name": "C5",
                    "midi": 72,
                    "time": 37.27273099999996,
                    "velocity": 0.7874015748031497,
                    "duration": 0.9090909999999965
                },
                {
                    "name": "A#4",
                    "midi": 70,
                    "time": 37.27273099999996,
                    "velocity": 0.7874015748031497,
                    "duration": 0.9090909999999965
                },
                {
                    "name": "D#5",
                    "midi": 75,
                    "time": 38.181821999999954,
                    "velocity": 0.7874015748031497,
                    "duration": 0.6818182499999992
                },
                {
                    "name": "C5",
                    "midi": 72,
                    "time": 38.181821999999954,
                    "velocity": 0.7874015748031497,
                    "duration": 0.9090909999999965
                },
                {
                    "name": "A4",
                    "midi": 69,
                    "time": 38.181821999999954,
                    "velocity": 0.7874015748031497,
                    "duration": 0.9090909999999965
                },
                {
                    "name": "D#5",
                    "midi": 75,
                    "time": 38.86364024999995,
                    "velocity": 0.7874015748031497,
                    "duration": 0.22727274999999736
                },
                {
                    "name": "D5",
                    "midi": 74,
                    "time": 39.09091299999995,
                    "velocity": 0.7874015748031497,
                    "duration": 0.6818182499999992
                },
                {
                    "name": "G#4",
                    "midi": 68,
                    "time": 39.09091299999995,
                    "velocity": 0.7874015748031497,
                    "duration": 0.9090909999999965
                },
                {
                    "name": "D4",
                    "midi": 62,
                    "time": 39.09091299999995,
                    "velocity": 0.7874015748031497,
                    "duration": 0.9090909999999965
                },
                {
                    "name": "C5",
                    "midi": 72,
                    "time": 39.77273124999995,
                    "velocity": 0.7874015748031497,
                    "duration": 0.22727274999999736
                },
                {
                    "name": "D4",
                    "midi": 62,
                    "time": 40.00000399999995,
                    "velocity": 0.7874015748031497,
                    "duration": 0.6818182499999992
                },
                {
                    "name": "B4",
                    "midi": 71,
                    "time": 40.00000399999995,
                    "velocity": 0.7874015748031497,
                    "duration": 0.9090909999999965
                },
                {
                    "name": "G4",
                    "midi": 67,
                    "time": 40.00000399999995,
                    "velocity": 0.7874015748031497,
                    "duration": 0.9090909999999965
                },
                {
                    "name": "D4",
                    "midi": 62,
                    "time": 40.68182224999995,
                    "velocity": 0.7874015748031497,
                    "duration": 0.22727274999999736
                },
                {
                    "name": "C5",
                    "midi": 72,
                    "time": 40.909094999999944,
                    "velocity": 0.7874015748031497,
                    "duration": 0.6818182499999992
                },
                {
                    "name": "G4",
                    "midi": 67,
                    "time": 40.909094999999944,
                    "velocity": 0.7874015748031497,
                    "duration": 0.9090909999999965
                },
                {
                    "name": "D5",
                    "midi": 74,
                    "time": 41.59091324999994,
                    "velocity": 0.7874015748031497,
                    "duration": 0.22727274999999736
                },
                {
                    "name": "C5",
                    "midi": 72,
                    "time": 41.81818599999994,
                    "velocity": 0.7874015748031497,
                    "duration": 0.9090909999999965
                },
                {
                    "name": "D#5",
                    "midi": 75,
                    "time": 41.81818599999994,
                    "velocity": 0.7874015748031497,
                    "duration": 0.9090909999999965
                },
                {
                    "name": "G4",
                    "midi": 67,
                    "time": 41.81818599999994,
                    "velocity": 0.7874015748031497,
                    "duration": 1.3636364999999984
                },
                {
                    "name": "B4",
                    "midi": 71,
                    "time": 42.72727699999994,
                    "velocity": 0.7874015748031497,
                    "duration": 0.9090910000000036
                },
                {
                    "name": "D5",
                    "midi": 74,
                    "time": 42.72727699999994,
                    "velocity": 0.7874015748031497,
                    "duration": 0.9090910000000036
                },
                {
                    "name": "F4",
                    "midi": 65,
                    "time": 43.18182249999994,
                    "velocity": 0.7874015748031497,
                    "duration": 0.4545455000000018
                },
                {
                    "name": "C5",
                    "midi": 72,
                    "time": 43.63636799999994,
                    "velocity": 0.7874015748031497,
                    "duration": 0.34090912500000314
                },
                {
                    "name": "D#4",
                    "midi": 63,
                    "time": 43.63636799999994,
                    "velocity": 0.7874015748031497,
                    "duration": 0.34090912500000314
                },
                {
                    "name": "G4",
                    "midi": 67,
                    "time": 44.09091349999994,
                    "velocity": 0.7874015748031497,
                    "duration": 0.34090912500000314
                },
                {
                    "name": "C5",
                    "midi": 72,
                    "time": 44.545458999999944,
                    "velocity": 0.7874015748031497,
                    "duration": 0.34090912500000314
                },
                {
                    "name": "G4",
                    "midi": 67,
                    "time": 45.000004499999946,
                    "velocity": 0.7874015748031497,
                    "duration": 0.34090912500000314
                },
                {
                    "name": "C5",
                    "midi": 72,
                    "time": 45.45454999999995,
                    "velocity": 0.7874015748031497,
                    "duration": 0.34090912500000314
                },
                {
                    "name": "D#5",
                    "midi": 75,
                    "time": 45.90909549999995,
                    "velocity": 0.7874015748031497,
                    "duration": 0.34090912500000314
                },
                {
                    "name": "C5",
                    "midi": 72,
                    "time": 46.36364099999995,
                    "velocity": 0.7874015748031497,
                    "duration": 0.34090912500000314
                },
                {
                    "name": "D#5",
                    "midi": 75,
                    "time": 46.81818649999995,
                    "velocity": 0.7874015748031497,
                    "duration": 0.34090912500000314
                },
                {
                    "name": "C5",
                    "midi": 72,
                    "time": 47.272731999999955,
                    "velocity": 0.7874015748031497,
                    "duration": 0.34090912500000314
                },
                {
                    "name": "G4",
                    "midi": 67,
                    "time": 47.72727749999996,
                    "velocity": 0.7874015748031497,
                    "duration": 0.34090912500000314
                },
                {
                    "name": "G5",
                    "midi": 79,
                    "time": 47.72727749999996,
                    "velocity": 0.7874015748031497,
                    "duration": 0.34090912500000314
                },
                {
                    "name": "C5",
                    "midi": 72,
                    "time": 48.18182299999996,
                    "velocity": 0.7874015748031497,
                    "duration": 0.34090912500000314
                },
                {
                    "name": "D#5",
                    "midi": 75,
                    "time": 48.18182299999996,
                    "velocity": 0.7874015748031497,
                    "duration": 0.34090912500000314
                },
                {
                    "name": "G4",
                    "midi": 67,
                    "time": 48.63636849999996,
                    "velocity": 0.7874015748031497,
                    "duration": 0.34090912500000314
                },
                {
                    "name": "G5",
                    "midi": 79,
                    "time": 48.63636849999996,
                    "velocity": 0.7874015748031497,
                    "duration": 0.34090912500000314
                },
                {
                    "name": "C5",
                    "midi": 72,
                    "time": 49.09091399999996,
                    "velocity": 0.7874015748031497,
                    "duration": 0.34090912500000314
                },
                {
                    "name": "D#5",
                    "midi": 75,
                    "time": 49.09091399999996,
                    "velocity": 0.7874015748031497,
                    "duration": 0.34090912500000314
                },
                {
                    "name": "D#5",
                    "midi": 75,
                    "time": 49.545459499999964,
                    "velocity": 0.7874015748031497,
                    "duration": 0.34090912500000314
                },
                {
                    "name": "G5",
                    "midi": 79,
                    "time": 49.545459499999964,
                    "velocity": 0.7874015748031497,
                    "duration": 0.34090912500000314
                },
                {
                    "name": "C5",
                    "midi": 72,
                    "time": 50.000004999999966,
                    "velocity": 0.7874015748031497,
                    "duration": 0.34090912500000314
                },
                {
                    "name": "D#5",
                    "midi": 75,
                    "time": 50.000004999999966,
                    "velocity": 0.7874015748031497,
                    "duration": 0.34090912500000314
                },
                {
                    "name": "D#5",
                    "midi": 75,
                    "time": 50.45455049999997,
                    "velocity": 0.7874015748031497,
                    "duration": 0.34090912500000314
                },
                {
                    "name": "G5",
                    "midi": 79,
                    "time": 50.45455049999997,
                    "velocity": 0.7874015748031497,
                    "duration": 0.34090912500000314
                },
                {
                    "name": "D5",
                    "midi": 74,
                    "time": 50.90909599999997,
                    "velocity": 0.7874015748031497,
                    "duration": 0.34090912500000314
                },
                {
                    "name": "F5",
                    "midi": 77,
                    "time": 50.90909599999997,
                    "velocity": 0.7874015748031497,
                    "duration": 0.34090912500000314
                },
                {
                    "name": "C5",
                    "midi": 72,
                    "time": 51.36364149999997,
                    "velocity": 0.7874015748031497,
                    "duration": 0.34090912500000314
                },
                {
                    "name": "D#5",
                    "midi": 75,
                    "time": 51.36364149999997,
                    "velocity": 0.7874015748031497,
                    "duration": 0.34090912500000314
                },
                {
                    "name": "D5",
                    "midi": 74,
                    "time": 51.81818699999997,
                    "velocity": 0.7874015748031497,
                    "duration": 0.34090912500000314
                },
                {
                    "name": "F5",
                    "midi": 77,
                    "time": 51.81818699999997,
                    "velocity": 0.7874015748031497,
                    "duration": 0.34090912500000314
                },
                {
                    "name": "B4",
                    "midi": 71,
                    "time": 52.272732499999975,
                    "velocity": 0.7874015748031497,
                    "duration": 0.34090912500000314
                },
                {
                    "name": "D5",
                    "midi": 74,
                    "time": 52.272732499999975,
                    "velocity": 0.7874015748031497,
                    "duration": 0.34090912500000314
                },
                {
                    "name": "C5",
                    "midi": 72,
                    "time": 52.72727799999998,
                    "velocity": 0.7874015748031497,
                    "duration": 0.34090912500000314
                },
                {
                    "name": "D#5",
                    "midi": 75,
                    "time": 52.72727799999998,
                    "velocity": 0.7874015748031497,
                    "duration": 0.34090912500000314
                },
                {
                    "name": "B4",
                    "midi": 71,
                    "time": 53.18182349999998,
                    "velocity": 0.7874015748031497,
                    "duration": 0.34090912500000314
                },
                {
                    "name": "D5",
                    "midi": 74,
                    "time": 53.18182349999998,
                    "velocity": 0.7874015748031497,
                    "duration": 0.34090912500000314
                },
                {
                    "name": "C5",
                    "midi": 72,
                    "time": 53.63636899999998,
                    "velocity": 0.7874015748031497,
                    "duration": 0.34090912500000314
                },
                {
                    "name": "D#5",
                    "midi": 75,
                    "time": 53.63636899999998,
                    "velocity": 0.7874015748031497,
                    "duration": 0.34090912500000314
                },
                {
                    "name": "A4",
                    "midi": 69,
                    "time": 54.09091449999998,
                    "velocity": 0.7874015748031497,
                    "duration": 0.34090912500000314
                },
                {
                    "name": "C5",
                    "midi": 72,
                    "time": 54.09091449999998,
                    "velocity": 0.7874015748031497,
                    "duration": 0.34090912500000314
                },
                {
                    "name": "A#4",
                    "midi": 70,
                    "time": 54.545459999999984,
                    "velocity": 0.7874015748031497,
                    "duration": 0.34090912500000314
                },
                {
                    "name": "D5",
                    "midi": 74,
                    "time": 54.545459999999984,
                    "velocity": 0.7874015748031497,
                    "duration": 0.34090912500000314
                },
                {
                    "name": "D4",
                    "midi": 62,
                    "time": 55.000005499999986,
                    "velocity": 0.7874015748031497,
                    "duration": 0.34090912500000314
                },
                {
                    "name": "A#4",
                    "midi": 70,
                    "time": 55.000005499999986,
                    "velocity": 0.7874015748031497,
                    "duration": 0.34090912500000314
                },
                {
                    "name": "D5",
                    "midi": 74,
                    "time": 55.000005499999986,
                    "velocity": 0.7874015748031497,
                    "duration": 0.34090912500000314
                },
                {
                    "name": "G4",
                    "midi": 67,
                    "time": 55.45455099999999,
                    "velocity": 0.7874015748031497,
                    "duration": 0.34090912500000314
                },
                {
                    "name": "A#4",
                    "midi": 70,
                    "time": 55.45455099999999,
                    "velocity": 0.7874015748031497,
                    "duration": 0.34090912500000314
                },
                {
                    "name": "D4",
                    "midi": 62,
                    "time": 55.90909649999999,
                    "velocity": 0.7874015748031497,
                    "duration": 0.34090912500000314
                },
                {
                    "name": "A#4",
                    "midi": 70,
                    "time": 55.90909649999999,
                    "velocity": 0.7874015748031497,
                    "duration": 0.34090912500000314
                },
                {
                    "name": "D5",
                    "midi": 74,
                    "time": 55.90909649999999,
                    "velocity": 0.7874015748031497,
                    "duration": 0.34090912500000314
                },
                {
                    "name": "A#4",
                    "midi": 70,
                    "time": 56.36364199999999,
                    "velocity": 0.7874015748031497,
                    "duration": 0.34090912500000314
                },
                {
                    "name": "G4",
                    "midi": 67,
                    "time": 56.36364199999999,
                    "velocity": 0.7874015748031497,
                    "duration": 0.34090912500000314
                },
                {
                    "name": "F#4",
                    "midi": 66,
                    "time": 56.81818749999999,
                    "velocity": 0.7874015748031497,
                    "duration": 0.34090912500000314
                },
                {
                    "name": "D5",
                    "midi": 74,
                    "time": 56.81818749999999,
                    "velocity": 0.7874015748031497,
                    "duration": 0.34090912500000314
                },
                {
                    "name": "A#4",
                    "midi": 70,
                    "time": 56.81818749999999,
                    "velocity": 0.7874015748031497,
                    "duration": 0.34090912500000314
                },
                {
                    "name": "E5",
                    "midi": 76,
                    "time": 57.272732999999995,
                    "velocity": 0.7874015748031497,
                    "duration": 0.34090912500000314
                },
                {
                    "name": "A#4",
                    "midi": 70,
                    "time": 57.272732999999995,
                    "velocity": 0.7874015748031497,
                    "duration": 0.34090912500000314
                },
                {
                    "name": "G4",
                    "midi": 67,
                    "time": 57.272732999999995,
                    "velocity": 0.7874015748031497,
                    "duration": 0.34090912500000314
                },
                {
                    "name": "F#5",
                    "midi": 78,
                    "time": 57.7272785,
                    "velocity": 0.7874015748031497,
                    "duration": 0.34090912500000314
                },
                {
                    "name": "D5",
                    "midi": 74,
                    "time": 57.7272785,
                    "velocity": 0.7874015748031497,
                    "duration": 0.34090912500000314
                },
                {
                    "name": "A#4",
                    "midi": 70,
                    "time": 57.7272785,
                    "velocity": 0.7874015748031497,
                    "duration": 0.34090912500000314
                },
                {
                    "name": "G5",
                    "midi": 79,
                    "time": 58.181824,
                    "velocity": 0.7874015748031497,
                    "duration": 0.34090912500000314
                },
                {
                    "name": "A#4",
                    "midi": 70,
                    "time": 58.181824,
                    "velocity": 0.7874015748031497,
                    "duration": 0.34090912500000314
                },
                {
                    "name": "G4",
                    "midi": 67,
                    "time": 58.181824,
                    "velocity": 0.7874015748031497,
                    "duration": 0.34090912500000314
                },
                {
                    "name": "G4",
                    "midi": 67,
                    "time": 58.6363695,
                    "velocity": 0.7874015748031497,
                    "duration": 0.34090912500000314
                },
                {
                    "name": "D5",
                    "midi": 74,
                    "time": 58.6363695,
                    "velocity": 0.7874015748031497,
                    "duration": 0.34090912500000314
                },
                {
                    "name": "G5",
                    "midi": 79,
                    "time": 59.090915,
                    "velocity": 0.7874015748031497,
                    "duration": 0.34090912500000314
                },
                {
                    "name": "A#4",
                    "midi": 70,
                    "time": 59.090915,
                    "velocity": 0.7874015748031497,
                    "duration": 0.34090912500000314
                },
                {
                    "name": "G4",
                    "midi": 67,
                    "time": 59.090915,
                    "velocity": 0.7874015748031497,
                    "duration": 0.34090912500000314
                },
                {
                    "name": "D5",
                    "midi": 74,
                    "time": 59.545460500000004,
                    "velocity": 0.7874015748031497,
                    "duration": 0.34090912500000314
                },
                {
                    "name": "G4",
                    "midi": 67,
                    "time": 59.545460500000004,
                    "velocity": 0.7874015748031497,
                    "duration": 0.34090912500000314
                },
                {
                    "name": "G4",
                    "midi": 67,
                    "time": 60.000006000000006,
                    "velocity": 0.7874015748031497,
                    "duration": 0.34090912500000314
                },
                {
                    "name": "A#4",
                    "midi": 70,
                    "time": 60.000006000000006,
                    "velocity": 0.7874015748031497,
                    "duration": 0.34090912500000314
                },
                {
                    "name": "G5",
                    "midi": 79,
                    "time": 60.000006000000006,
                    "velocity": 0.7874015748031497,
                    "duration": 0.34090912500000314
                },
                {
                    "name": "F#5",
                    "midi": 78,
                    "time": 60.45455150000001,
                    "velocity": 0.7874015748031497,
                    "duration": 0.1742424416666637
                },
                {
                    "name": "D5",
                    "midi": 74,
                    "time": 60.45455150000001,
                    "velocity": 0.7874015748031497,
                    "duration": 0.1742424416666637
                },
                {
                    "name": "A#5",
                    "midi": 82,
                    "time": 60.45455150000001,
                    "velocity": 0.7874015748031497,
                    "duration": 0.34090912499999604
                },
                {
                    "name": "E5",
                    "midi": 76,
                    "time": 60.681824250000005,
                    "velocity": 0.7874015748031497,
                    "duration": 0.1742424416666637
                },
                {
                    "name": "D5",
                    "midi": 74,
                    "time": 60.909097,
                    "velocity": 0.7874015748031497,
                    "duration": 0.34090912500000314
                },
                {
                    "name": "A#4",
                    "midi": 70,
                    "time": 60.909097,
                    "velocity": 0.7874015748031497,
                    "duration": 0.34090912500000314
                },
                {
                    "name": "G5",
                    "midi": 79,
                    "time": 60.909097,
                    "velocity": 0.7874015748031497,
                    "duration": 0.34090912500000314
                },
                {
                    "name": "D5",
                    "midi": 74,
                    "time": 61.363642500000005,
                    "velocity": 0.7874015748031497,
                    "duration": 0.34090912500000314
                },
                {
                    "name": "A#5",
                    "midi": 82,
                    "time": 61.363642500000005,
                    "velocity": 0.7874015748031497,
                    "duration": 0.34090912500000314
                },
                {
                    "name": "G5",
                    "midi": 79,
                    "time": 61.818188000000006,
                    "velocity": 0.7874015748031497,
                    "duration": 0.34090912500000314
                },
                {
                    "name": "A#4",
                    "midi": 70,
                    "time": 61.818188000000006,
                    "velocity": 0.7874015748031497,
                    "duration": 0.34090912500000314
                },
                {
                    "name": "B4",
                    "midi": 71,
                    "time": 62.27273350000001,
                    "velocity": 0.7874015748031497,
                    "duration": 0.34090912500000314
                },
                {
                    "name": "F5",
                    "midi": 77,
                    "time": 62.27273350000001,
                    "velocity": 0.7874015748031497,
                    "duration": 0.34090912500000314
                },
                {
                    "name": "D5",
                    "midi": 74,
                    "time": 62.27273350000001,
                    "velocity": 0.7874015748031497,
                    "duration": 0.34090912500000314
                },
                {
                    "name": "G4",
                    "midi": 67,
                    "time": 62.27273350000001,
                    "velocity": 0.7874015748031497,
                    "duration": 0.34090912500000314
                },
                {
                    "name": "G4",
                    "midi": 67,
                    "time": 62.72727900000001,
                    "velocity": 0.7874015748031497,
                    "duration": 0.34090912500000314
                },
                {
                    "name": "C5",
                    "midi": 72,
                    "time": 62.72727900000001,
                    "velocity": 0.7874015748031497,
                    "duration": 0.34090912500000314
                },
                {
                    "name": "D#5",
                    "midi": 75,
                    "time": 62.72727900000001,
                    "velocity": 0.7874015748031497,
                    "duration": 0.34090912500000314
                },
                {
                    "name": "B4",
                    "midi": 71,
                    "time": 63.18182450000001,
                    "velocity": 0.7874015748031497,
                    "duration": 0.34090912500000314
                },
                {
                    "name": "G4",
                    "midi": 67,
                    "time": 63.18182450000001,
                    "velocity": 0.7874015748031497,
                    "duration": 0.34090912500000314
                },
                {
                    "name": "D5",
                    "midi": 74,
                    "time": 63.18182450000001,
                    "velocity": 0.7874015748031497,
                    "duration": 0.34090912500000314
                },
                {
                    "name": "D#5",
                    "midi": 75,
                    "time": 63.636370000000014,
                    "velocity": 0.7874015748031497,
                    "duration": 0.34090912500000314
                },
                {
                    "name": "C5",
                    "midi": 72,
                    "time": 63.636370000000014,
                    "velocity": 0.7874015748031497,
                    "duration": 0.34090912500000314
                },
                {
                    "name": "G4",
                    "midi": 67,
                    "time": 63.636370000000014,
                    "velocity": 0.7874015748031497,
                    "duration": 0.34090912500000314
                },
                {
                    "name": "G5",
                    "midi": 79,
                    "time": 64.09091550000002,
                    "velocity": 0.7874015748031497,
                    "duration": 0.34090912499999604
                },
                {
                    "name": "G4",
                    "midi": 67,
                    "time": 64.09091550000002,
                    "velocity": 0.7874015748031497,
                    "duration": 0.34090912499999604
                },
                {
                    "name": "D#5",
                    "midi": 75,
                    "time": 64.54546100000002,
                    "velocity": 0.7874015748031497,
                    "duration": 0.34090912499999604
                },
                {
                    "name": "C5",
                    "midi": 72,
                    "time": 64.54546100000002,
                    "velocity": 0.7874015748031497,
                    "duration": 0.34090912499999604
                },
                {
                    "name": "G4",
                    "midi": 67,
                    "time": 64.54546100000002,
                    "velocity": 0.7874015748031497,
                    "duration": 0.34090912499999604
                },
                {
                    "name": "G5",
                    "midi": 79,
                    "time": 65.00000650000001,
                    "velocity": 0.7874015748031497,
                    "duration": 0.34090912499999604
                },
                {
                    "name": "G4",
                    "midi": 67,
                    "time": 65.00000650000001,
                    "velocity": 0.7874015748031497,
                    "duration": 0.34090912499999604
                },
                {
                    "name": "C5",
                    "midi": 72,
                    "time": 65.454552,
                    "velocity": 0.7874015748031497,
                    "duration": 0.34090912499999604
                },
                {
                    "name": "G4",
                    "midi": 67,
                    "time": 65.454552,
                    "velocity": 0.7874015748031497,
                    "duration": 0.34090912499999604
                },
                {
                    "name": "G5",
                    "midi": 79,
                    "time": 65.9090975,
                    "velocity": 0.7874015748031497,
                    "duration": 0.34090912499999604
                },
                {
                    "name": "D#5",
                    "midi": 75,
                    "time": 65.9090975,
                    "velocity": 0.7874015748031497,
                    "duration": 0.34090912499999604
                },
                {
                    "name": "C5",
                    "midi": 72,
                    "time": 65.9090975,
                    "velocity": 0.7874015748031497,
                    "duration": 0.34090912499999604
                },
                {
                    "name": "G#5",
                    "midi": 80,
                    "time": 66.363643,
                    "velocity": 0.7874015748031497,
                    "duration": 0.34090912499999604
                },
                {
                    "name": "F5",
                    "midi": 77,
                    "time": 66.363643,
                    "velocity": 0.7874015748031497,
                    "duration": 0.34090912499999604
                },
                {
                    "name": "C5",
                    "midi": 72,
                    "time": 66.363643,
                    "velocity": 0.7874015748031497,
                    "duration": 0.34090912499999604
                },
                {
                    "name": "G5",
                    "midi": 79,
                    "time": 66.81818849999999,
                    "velocity": 0.7874015748031497,
                    "duration": 0.34090912499999604
                },
                {
                    "name": "D#5",
                    "midi": 75,
                    "time": 66.81818849999999,
                    "velocity": 0.7874015748031497,
                    "duration": 0.34090912499999604
                },
                {
                    "name": "C5",
                    "midi": 72,
                    "time": 66.81818849999999,
                    "velocity": 0.7874015748031497,
                    "duration": 0.34090912499999604
                },
                {
                    "name": "F5",
                    "midi": 77,
                    "time": 67.27273399999999,
                    "velocity": 0.7874015748031497,
                    "duration": 0.34090912499999604
                },
                {
                    "name": "D5",
                    "midi": 74,
                    "time": 67.27273399999999,
                    "velocity": 0.7874015748031497,
                    "duration": 0.34090912499999604
                },
                {
                    "name": "G#4",
                    "midi": 68,
                    "time": 67.27273399999999,
                    "velocity": 0.7874015748031497,
                    "duration": 0.34090912499999604
                },
                {
                    "name": "D#5",
                    "midi": 75,
                    "time": 67.72727949999998,
                    "velocity": 0.7874015748031497,
                    "duration": 0.34090912499999604
                },
                {
                    "name": "C5",
                    "midi": 72,
                    "time": 67.72727949999998,
                    "velocity": 0.7874015748031497,
                    "duration": 0.34090912499999604
                },
                {
                    "name": "B4",
                    "midi": 71,
                    "time": 68.18182499999998,
                    "velocity": 0.7874015748031497,
                    "duration": 0.34090912499999604
                },
                {
                    "name": "D5",
                    "midi": 74,
                    "time": 68.18182499999998,
                    "velocity": 0.7874015748031497,
                    "duration": 0.34090912499999604
                },
                {
                    "name": "F4",
                    "midi": 65,
                    "time": 68.18182499999998,
                    "velocity": 0.7874015748031497,
                    "duration": 0.34090912499999604
                },
                {
                    "name": "C5",
                    "midi": 72,
                    "time": 68.63637049999997,
                    "velocity": 0.7874015748031497,
                    "duration": 0.34090912499999604
                },
                {
                    "name": "F4",
                    "midi": 65,
                    "time": 68.63637049999997,
                    "velocity": 0.7874015748031497,
                    "duration": 0.34090912499999604
                },
                {
                    "name": "B4",
                    "midi": 71,
                    "time": 69.09091599999996,
                    "velocity": 0.7874015748031497,
                    "duration": 0.34090912499999604
                },
                {
                    "name": "F4",
                    "midi": 65,
                    "time": 69.09091599999996,
                    "velocity": 0.7874015748031497,
                    "duration": 0.34090912499999604
                },
                {
                    "name": "D4",
                    "midi": 62,
                    "time": 69.09091599999996,
                    "velocity": 0.7874015748031497,
                    "duration": 0.34090912499999604
                },
                {
                    "name": "B4",
                    "midi": 71,
                    "time": 69.54546149999996,
                    "velocity": 0.7874015748031497,
                    "duration": 0.34090912499999604
                },
                {
                    "name": "D5",
                    "midi": 74,
                    "time": 69.54546149999996,
                    "velocity": 0.7874015748031497,
                    "duration": 0.34090912499999604
                },
                {
                    "name": "D4",
                    "midi": 62,
                    "time": 69.54546149999996,
                    "velocity": 0.7874015748031497,
                    "duration": 0.34090912499999604
                },
                {
                    "name": "B4",
                    "midi": 71,
                    "time": 70.00000699999995,
                    "velocity": 0.7874015748031497,
                    "duration": 0.34090912499999604
                },
                {
                    "name": "G4",
                    "midi": 67,
                    "time": 70.00000699999995,
                    "velocity": 0.7874015748031497,
                    "duration": 0.34090912499999604
                },
                {
                    "name": "D#4",
                    "midi": 63,
                    "time": 70.00000699999995,
                    "velocity": 0.7874015748031497,
                    "duration": 0.34090912499999604
                },
                {
                    "name": "B4",
                    "midi": 71,
                    "time": 70.45455249999995,
                    "velocity": 0.7874015748031497,
                    "duration": 0.34090912499999604
                },
                {
                    "name": "D5",
                    "midi": 74,
                    "time": 70.45455249999995,
                    "velocity": 0.7874015748031497,
                    "duration": 0.34090912499999604
                },
                {
                    "name": "D4",
                    "midi": 62,
                    "time": 70.45455249999995,
                    "velocity": 0.7874015748031497,
                    "duration": 0.34090912499999604
                },
                {
                    "name": "B4",
                    "midi": 71,
                    "time": 70.90909799999994,
                    "velocity": 0.7874015748031497,
                    "duration": 0.34090912499999604
                },
                {
                    "name": "G4",
                    "midi": 67,
                    "time": 70.90909799999994,
                    "velocity": 0.7874015748031497,
                    "duration": 0.34090912499999604
                },
                {
                    "name": "D4",
                    "midi": 62,
                    "time": 70.90909799999994,
                    "velocity": 0.7874015748031497,
                    "duration": 0.34090912499999604
                },
                {
                    "name": "B4",
                    "midi": 71,
                    "time": 71.36364349999994,
                    "velocity": 0.7874015748031497,
                    "duration": 0.34090912499999604
                },
                {
                    "name": "G4",
                    "midi": 67,
                    "time": 71.36364349999994,
                    "velocity": 0.7874015748031497,
                    "duration": 0.34090912499999604
                },
                {
                    "name": "A4",
                    "midi": 69,
                    "time": 71.81818899999993,
                    "velocity": 0.7874015748031497,
                    "duration": 0.34090912499999604
                },
                {
                    "name": "C5",
                    "midi": 72,
                    "time": 71.81818899999993,
                    "velocity": 0.7874015748031497,
                    "duration": 0.34090912499999604
                },
                {
                    "name": "B4",
                    "midi": 71,
                    "time": 72.27273449999993,
                    "velocity": 0.7874015748031497,
                    "duration": 0.34090912499999604
                },
                {
                    "name": "D5",
                    "midi": 74,
                    "time": 72.27273449999993,
                    "velocity": 0.7874015748031497,
                    "duration": 0.34090912499999604
                },
                {
                    "name": "C5",
                    "midi": 72,
                    "time": 72.72727999999992,
                    "velocity": 0.7874015748031497,
                    "duration": 0.34090912499999604
                },
                {
                    "name": "D#5",
                    "midi": 75,
                    "time": 72.72727999999992,
                    "velocity": 0.7874015748031497,
                    "duration": 0.34090912499999604
                },
                {
                    "name": "B4",
                    "midi": 71,
                    "time": 73.18182549999992,
                    "velocity": 0.7874015748031497,
                    "duration": 0.34090912499999604
                },
                {
                    "name": "D5",
                    "midi": 74,
                    "time": 73.18182549999992,
                    "velocity": 0.7874015748031497,
                    "duration": 0.34090912499999604
                },
                {
                    "name": "C5",
                    "midi": 72,
                    "time": 73.63637099999991,
                    "velocity": 0.7874015748031497,
                    "duration": 0.34090912499999604
                },
                {
                    "name": "D#5",
                    "midi": 75,
                    "time": 73.63637099999991,
                    "velocity": 0.7874015748031497,
                    "duration": 0.34090912499999604
                },
                {
                    "name": "D5",
                    "midi": 74,
                    "time": 74.0909164999999,
                    "velocity": 0.7874015748031497,
                    "duration": 0.34090912499999604
                },
                {
                    "name": "F5",
                    "midi": 77,
                    "time": 74.0909164999999,
                    "velocity": 0.7874015748031497,
                    "duration": 0.34090912499999604
                },
                {
                    "name": "D#5",
                    "midi": 75,
                    "time": 74.5454619999999,
                    "velocity": 0.7874015748031497,
                    "duration": 0.34090912499999604
                },
                {
                    "name": "G5",
                    "midi": 79,
                    "time": 74.5454619999999,
                    "velocity": 0.7874015748031497,
                    "duration": 0.34090912499999604
                },
                {
                    "name": "C5",
                    "midi": 72,
                    "time": 75.0000074999999,
                    "velocity": 0.7874015748031497,
                    "duration": 0.34090912499999604
                },
                {
                    "name": "G5",
                    "midi": 79,
                    "time": 75.0000074999999,
                    "velocity": 0.7874015748031497,
                    "duration": 0.34090912499999604
                },
                {
                    "name": "D#5",
                    "midi": 75,
                    "time": 75.45455299999989,
                    "velocity": 0.7874015748031497,
                    "duration": 0.34090912499999604
                },
                {
                    "name": "G5",
                    "midi": 79,
                    "time": 75.45455299999989,
                    "velocity": 0.7874015748031497,
                    "duration": 0.34090912499999604
                },
                {
                    "name": "C5",
                    "midi": 72,
                    "time": 75.90909849999989,
                    "velocity": 0.7874015748031497,
                    "duration": 0.34090912499999604
                },
                {
                    "name": "G5",
                    "midi": 79,
                    "time": 75.90909849999989,
                    "velocity": 0.7874015748031497,
                    "duration": 0.34090912499999604
                },
                {
                    "name": "D#5",
                    "midi": 75,
                    "time": 76.36364399999988,
                    "velocity": 0.7874015748031497,
                    "duration": 0.34090912499999604
                },
                {
                    "name": "G#5",
                    "midi": 80,
                    "time": 76.36364399999988,
                    "velocity": 0.7874015748031497,
                    "duration": 0.34090912499999604
                },
                {
                    "name": "F5",
                    "midi": 77,
                    "time": 76.81818949999987,
                    "velocity": 0.7874015748031497,
                    "duration": 0.1742424416666637
                },
                {
                    "name": "G#5",
                    "midi": 80,
                    "time": 76.81818949999987,
                    "velocity": 0.7874015748031497,
                    "duration": 0.1742424416666637
                },
                {
                    "name": "D#5",
                    "midi": 75,
                    "time": 77.04546224999987,
                    "velocity": 0.7874015748031497,
                    "duration": 0.1742424416666637
                },
                {
                    "name": "G5",
                    "midi": 79,
                    "time": 77.04546224999987,
                    "velocity": 0.7874015748031497,
                    "duration": 0.1742424416666637
                },
                {
                    "name": "D5",
                    "midi": 74,
                    "time": 77.27273499999987,
                    "velocity": 0.7874015748031497,
                    "duration": 0.34090912499999604
                },
                {
                    "name": "F5",
                    "midi": 77,
                    "time": 77.27273499999987,
                    "velocity": 0.7874015748031497,
                    "duration": 0.34090912499999604
                },
                {
                    "name": "C5",
                    "midi": 72,
                    "time": 77.72728049999986,
                    "velocity": 0.7874015748031497,
                    "duration": 0.34090912499999604
                },
                {
                    "name": "D#5",
                    "midi": 75,
                    "time": 77.72728049999986,
                    "velocity": 0.7874015748031497,
                    "duration": 0.34090912499999604
                },
                {
                    "name": "A#4",
                    "midi": 70,
                    "time": 78.18182599999986,
                    "velocity": 0.7874015748031497,
                    "duration": 0.34090912499999604
                },
                {
                    "name": "D5",
                    "midi": 74,
                    "time": 78.18182599999986,
                    "velocity": 0.7874015748031497,
                    "duration": 0.34090912499999604
                },
                {
                    "name": "F5",
                    "midi": 77,
                    "time": 78.63637149999985,
                    "velocity": 0.7874015748031497,
                    "duration": 0.34090912499999604
                },
                {
                    "name": "A#4",
                    "midi": 70,
                    "time": 78.63637149999985,
                    "velocity": 0.7874015748031497,
                    "duration": 0.34090912499999604
                },
                {
                    "name": "A#5",
                    "midi": 82,
                    "time": 79.09091699999985,
                    "velocity": 0.7874015748031497,
                    "duration": 0.34090912499999604
                },
                {
                    "name": "D5",
                    "midi": 74,
                    "time": 79.09091699999985,
                    "velocity": 0.7874015748031497,
                    "duration": 0.34090912499999604
                },
                {
                    "name": "F5",
                    "midi": 77,
                    "time": 79.54546249999984,
                    "velocity": 0.7874015748031497,
                    "duration": 0.34090912499999604
                },
                {
                    "name": "A#4",
                    "midi": 70,
                    "time": 79.54546249999984,
                    "velocity": 0.7874015748031497,
                    "duration": 0.34090912499999604
                },
                {
                    "name": "A#5",
                    "midi": 82,
                    "time": 80.00000799999984,
                    "velocity": 0.7874015748031497,
                    "duration": 0.34090912499999604
                },
                {
                    "name": "D5",
                    "midi": 74,
                    "time": 80.00000799999984,
                    "velocity": 0.7874015748031497,
                    "duration": 0.34090912499999604
                },
                {
                    "name": "A#4",
                    "midi": 70,
                    "time": 80.45455349999983,
                    "velocity": 0.7874015748031497,
                    "duration": 0.34090912499999604
                },
                {
                    "name": "F5",
                    "midi": 77,
                    "time": 80.45455349999983,
                    "velocity": 0.7874015748031497,
                    "duration": 0.34090912499999604
                },
                {
                    "name": "G#5",
                    "midi": 80,
                    "time": 80.45455349999983,
                    "velocity": 0.7874015748031497,
                    "duration": 0.34090912499999604
                },
                {
                    "name": "A#4",
                    "midi": 70,
                    "time": 80.90909899999983,
                    "velocity": 0.7874015748031497,
                    "duration": 0.34090912499999604
                },
                {
                    "name": "D#5",
                    "midi": 75,
                    "time": 80.90909899999983,
                    "velocity": 0.7874015748031497,
                    "duration": 0.34090912499999604
                },
                {
                    "name": "G5",
                    "midi": 79,
                    "time": 80.90909899999983,
                    "velocity": 0.7874015748031497,
                    "duration": 0.34090912499999604
                },
                {
                    "name": "A#4",
                    "midi": 70,
                    "time": 81.36364449999982,
                    "velocity": 0.7874015748031497,
                    "duration": 0.34090912499999604
                },
                {
                    "name": "D5",
                    "midi": 74,
                    "time": 81.36364449999982,
                    "velocity": 0.7874015748031497,
                    "duration": 0.34090912499999604
                },
                {
                    "name": "F5",
                    "midi": 77,
                    "time": 81.36364449999982,
                    "velocity": 0.7874015748031497,
                    "duration": 0.34090912499999604
                },
                {
                    "name": "A#4",
                    "midi": 70,
                    "time": 81.81818999999982,
                    "velocity": 0.7874015748031497,
                    "duration": 0.34090912499999604
                },
                {
                    "name": "D#5",
                    "midi": 75,
                    "time": 81.81818999999982,
                    "velocity": 0.7874015748031497,
                    "duration": 0.34090912499999604
                },
                {
                    "name": "G5",
                    "midi": 79,
                    "time": 81.81818999999982,
                    "velocity": 0.7874015748031497,
                    "duration": 0.34090912499999604
                },
                {
                    "name": "D#4",
                    "midi": 63,
                    "time": 82.27273549999981,
                    "velocity": 0.7874015748031497,
                    "duration": 0.34090912499999604
                },
                {
                    "name": "G4",
                    "midi": 67,
                    "time": 82.27273549999981,
                    "velocity": 0.7874015748031497,
                    "duration": 0.34090912499999604
                },
                {
                    "name": "A#4",
                    "midi": 70,
                    "time": 82.27273549999981,
                    "velocity": 0.7874015748031497,
                    "duration": 0.34090912499999604
                },
                {
                    "name": "G4",
                    "midi": 67,
                    "time": 82.7272809999998,
                    "velocity": 0.7874015748031497,
                    "duration": 0.34090912499999604
                },
                {
                    "name": "A#4",
                    "midi": 70,
                    "time": 82.7272809999998,
                    "velocity": 0.7874015748031497,
                    "duration": 0.34090912499999604
                },
                {
                    "name": "D#5",
                    "midi": 75,
                    "time": 82.7272809999998,
                    "velocity": 0.7874015748031497,
                    "duration": 0.34090912499999604
                },
                {
                    "name": "D#4",
                    "midi": 63,
                    "time": 83.1818264999998,
                    "velocity": 0.7874015748031497,
                    "duration": 0.34090912499999604
                },
                {
                    "name": "G4",
                    "midi": 67,
                    "time": 83.1818264999998,
                    "velocity": 0.7874015748031497,
                    "duration": 0.34090912499999604
                },
                {
                    "name": "A#4",
                    "midi": 70,
                    "time": 83.1818264999998,
                    "velocity": 0.7874015748031497,
                    "duration": 0.34090912499999604
                },
                {
                    "name": "G4",
                    "midi": 67,
                    "time": 83.6363719999998,
                    "velocity": 0.7874015748031497,
                    "duration": 0.34090912499999604
                },
                {
                    "name": "A#4",
                    "midi": 70,
                    "time": 83.6363719999998,
                    "velocity": 0.7874015748031497,
                    "duration": 0.34090912499999604
                },
                {
                    "name": "D#5",
                    "midi": 75,
                    "time": 83.6363719999998,
                    "velocity": 0.7874015748031497,
                    "duration": 0.34090912499999604
                },
                {
                    "name": "F4",
                    "midi": 65,
                    "time": 84.09091749999979,
                    "velocity": 0.7874015748031497,
                    "duration": 0.34090912499999604
                },
                {
                    "name": "G#4",
                    "midi": 68,
                    "time": 84.09091749999979,
                    "velocity": 0.7874015748031497,
                    "duration": 0.34090912499999604
                },
                {
                    "name": "D5",
                    "midi": 74,
                    "time": 84.09091749999979,
                    "velocity": 0.7874015748031497,
                    "duration": 0.34090912499999604
                },
                {
                    "name": "D#4",
                    "midi": 63,
                    "time": 84.54546299999978,
                    "velocity": 0.7874015748031497,
                    "duration": 0.34090912499999604
                },
                {
                    "name": "A#4",
                    "midi": 70,
                    "time": 84.54546299999978,
                    "velocity": 0.7874015748031497,
                    "duration": 0.34090912499999604
                },
                {
                    "name": "C5",
                    "midi": 72,
                    "time": 84.54546299999978,
                    "velocity": 0.7874015748031497,
                    "duration": 0.34090912499999604
                },
                {
                    "name": "D#4",
                    "midi": 63,
                    "time": 85.00000849999978,
                    "velocity": 0.7874015748031497,
                    "duration": 0.34090912499999604
                },
                {
                    "name": "G4",
                    "midi": 67,
                    "time": 85.00000849999978,
                    "velocity": 0.7874015748031497,
                    "duration": 0.34090912499999604
                },
                {
                    "name": "A#4",
                    "midi": 70,
                    "time": 85.00000849999978,
                    "velocity": 0.7874015748031497,
                    "duration": 0.34090912499999604
                },
                {
                    "name": "D#4",
                    "midi": 63,
                    "time": 85.45455399999977,
                    "velocity": 0.7874015748031497,
                    "duration": 0.34090912499999604
                },
                {
                    "name": "G#4",
                    "midi": 68,
                    "time": 85.45455399999977,
                    "velocity": 0.7874015748031497,
                    "duration": 0.34090912499999604
                },
                {
                    "name": "C5",
                    "midi": 72,
                    "time": 85.45455399999977,
                    "velocity": 0.7874015748031497,
                    "duration": 0.34090912499999604
                },
                {
                    "name": "D#4",
                    "midi": 63,
                    "time": 85.90909949999977,
                    "velocity": 0.7874015748031497,
                    "duration": 0.34090912499999604
                },
                {
                    "name": "G#4",
                    "midi": 68,
                    "time": 85.90909949999977,
                    "velocity": 0.7874015748031497,
                    "duration": 0.34090912499999604
                },
                {
                    "name": "C5",
                    "midi": 72,
                    "time": 85.90909949999977,
                    "velocity": 0.7874015748031497,
                    "duration": 0.34090912499999604
                },
                {
                    "name": "G#4",
                    "midi": 68,
                    "time": 86.36364499999976,
                    "velocity": 0.7874015748031497,
                    "duration": 0.34090912499999604
                },
                {
                    "name": "C5",
                    "midi": 72,
                    "time": 86.36364499999976,
                    "velocity": 0.7874015748031497,
                    "duration": 0.34090912499999604
                },
                {
                    "name": "F5",
                    "midi": 77,
                    "time": 86.36364499999976,
                    "velocity": 0.7874015748031497,
                    "duration": 0.34090912499999604
                },
                {
                    "name": "D#4",
                    "midi": 63,
                    "time": 86.81819049999976,
                    "velocity": 0.7874015748031497,
                    "duration": 0.34090912499999604
                },
                {
                    "name": "G#4",
                    "midi": 68,
                    "time": 86.81819049999976,
                    "velocity": 0.7874015748031497,
                    "duration": 0.34090912499999604
                },
                {
                    "name": "C5",
                    "midi": 72,
                    "time": 86.81819049999976,
                    "velocity": 0.7874015748031497,
                    "duration": 0.34090912499999604
                },
                {
                    "name": "G#4",
                    "midi": 68,
                    "time": 87.27273599999975,
                    "velocity": 0.7874015748031497,
                    "duration": 0.34090912499999604
                },
                {
                    "name": "C5",
                    "midi": 72,
                    "time": 87.27273599999975,
                    "velocity": 0.7874015748031497,
                    "duration": 0.34090912499999604
                },
                {
                    "name": "F5",
                    "midi": 77,
                    "time": 87.27273599999975,
                    "velocity": 0.7874015748031497,
                    "duration": 0.34090912499999604
                },
                {
                    "name": "C5",
                    "midi": 72,
                    "time": 87.72728149999975,
                    "velocity": 0.7874015748031497,
                    "duration": 0.34090912499999604
                },
                {
                    "name": "F5",
                    "midi": 77,
                    "time": 87.72728149999975,
                    "velocity": 0.7874015748031497,
                    "duration": 0.34090912499999604
                },
                {
                    "name": "G#5",
                    "midi": 80,
                    "time": 87.72728149999975,
                    "velocity": 0.7874015748031497,
                    "duration": 0.34090912499999604
                },
                {
                    "name": "G#4",
                    "midi": 68,
                    "time": 88.18182699999974,
                    "velocity": 0.7874015748031497,
                    "duration": 0.34090912499999604
                },
                {
                    "name": "C5",
                    "midi": 72,
                    "time": 88.18182699999974,
                    "velocity": 0.7874015748031497,
                    "duration": 0.34090912499999604
                },
                {
                    "name": "F5",
                    "midi": 77,
                    "time": 88.18182699999974,
                    "velocity": 0.7874015748031497,
                    "duration": 0.34090912499999604
                },
                {
                    "name": "C5",
                    "midi": 72,
                    "time": 88.63637249999974,
                    "velocity": 0.7874015748031497,
                    "duration": 0.34090912499999604
                },
                {
                    "name": "F5",
                    "midi": 77,
                    "time": 88.63637249999974,
                    "velocity": 0.7874015748031497,
                    "duration": 0.34090912499999604
                },
                {
                    "name": "G#5",
                    "midi": 80,
                    "time": 88.63637249999974,
                    "velocity": 0.7874015748031497,
                    "duration": 0.34090912499999604
                },
                {
                    "name": "G#4",
                    "midi": 68,
                    "time": 89.09091799999973,
                    "velocity": 0.7874015748031497,
                    "duration": 0.34090912499999604
                },
                {
                    "name": "C5",
                    "midi": 72,
                    "time": 89.09091799999973,
                    "velocity": 0.7874015748031497,
                    "duration": 0.34090912499999604
                },
                {
                    "name": "F5",
                    "midi": 77,
                    "time": 89.09091799999973,
                    "velocity": 0.7874015748031497,
                    "duration": 0.34090912499999604
                },
                {
                    "name": "C5",
                    "midi": 72,
                    "time": 89.54546349999973,
                    "velocity": 0.7874015748031497,
                    "duration": 0.34090912499999604
                },
                {
                    "name": "F5",
                    "midi": 77,
                    "time": 89.54546349999973,
                    "velocity": 0.7874015748031497,
                    "duration": 0.34090912499999604
                },
                {
                    "name": "G#5",
                    "midi": 80,
                    "time": 89.54546349999973,
                    "velocity": 0.7874015748031497,
                    "duration": 0.34090912499999604
                },
                {
                    "name": "G#4",
                    "midi": 68,
                    "time": 90.00000899999972,
                    "velocity": 0.7874015748031497,
                    "duration": 0.34090912499999604
                },
                {
                    "name": "C5",
                    "midi": 72,
                    "time": 90.00000899999972,
                    "velocity": 0.7874015748031497,
                    "duration": 0.34090912499999604
                },
                {
                    "name": "F5",
                    "midi": 77,
                    "time": 90.00000899999972,
                    "velocity": 0.7874015748031497,
                    "duration": 0.34090912499999604
                },
                {
                    "name": "C5",
                    "midi": 72,
                    "time": 90.45455449999972,
                    "velocity": 0.7874015748031497,
                    "duration": 0.34090912499999604
                },
                {
                    "name": "F5",
                    "midi": 77,
                    "time": 90.45455449999972,
                    "velocity": 0.7874015748031497,
                    "duration": 0.34090912499999604
                },
                {
                    "name": "G#5",
                    "midi": 80,
                    "time": 90.45455449999972,
                    "velocity": 0.7874015748031497,
                    "duration": 0.34090912499999604
                },
                {
                    "name": "F4",
                    "midi": 65,
                    "time": 90.90909999999971,
                    "velocity": 0.7874015748031497,
                    "duration": 0.34090912499999604
                },
                {
                    "name": "C5",
                    "midi": 72,
                    "time": 90.90909999999971,
                    "velocity": 0.7874015748031497,
                    "duration": 0.34090912499999604
                },
                {
                    "name": "D5",
                    "midi": 74,
                    "time": 90.90909999999971,
                    "velocity": 0.7874015748031497,
                    "duration": 0.34090912499999604
                },
                {
                    "name": "A#4",
                    "midi": 70,
                    "time": 91.3636454999997,
                    "velocity": 0.7874015748031497,
                    "duration": 0.34090912499999604
                },
                {
                    "name": "D5",
                    "midi": 74,
                    "time": 91.3636454999997,
                    "velocity": 0.7874015748031497,
                    "duration": 0.34090912499999604
                },
                {
                    "name": "G5",
                    "midi": 79,
                    "time": 91.3636454999997,
                    "velocity": 0.7874015748031497,
                    "duration": 0.34090912499999604
                },
                {
                    "name": "G4",
                    "midi": 67,
                    "time": 91.8181909999997,
                    "velocity": 0.7874015748031497,
                    "duration": 0.34090912499999604
                },
                {
                    "name": "D5",
                    "midi": 74,
                    "time": 91.8181909999997,
                    "velocity": 0.7874015748031497,
                    "duration": 0.34090912499999604
                },
                {
                    "name": "G5",
                    "midi": 79,
                    "time": 92.2727364999997,
                    "velocity": 0.7874015748031497,
                    "duration": 0.34090912499999604
                },
                {
                    "name": "D5",
                    "midi": 74,
                    "time": 92.2727364999997,
                    "velocity": 0.7874015748031497,
                    "duration": 0.34090912499999604
                },
                {
                    "name": "G4",
                    "midi": 67,
                    "time": 92.2727364999997,
                    "velocity": 0.7874015748031497,
                    "duration": 0.34090912499999604
                },
                {
                    "name": "C5",
                    "midi": 72,
                    "time": 92.72728199999969,
                    "velocity": 0.7874015748031497,
                    "duration": 0.34090912499999604
                },
                {
                    "name": "G4",
                    "midi": 67,
                    "time": 92.72728199999969,
                    "velocity": 0.7874015748031497,
                    "duration": 0.34090912499999604
                },
                {
                    "name": "D#4",
                    "midi": 63,
                    "time": 92.72728199999969,
                    "velocity": 0.7874015748031497,
                    "duration": 0.34090912499999604
                },
                {
                    "name": "F5",
                    "midi": 77,
                    "time": 93.18182749999968,
                    "velocity": 0.7874015748031497,
                    "duration": 0.34090912499999604
                },
                {
                    "name": "C5",
                    "midi": 72,
                    "time": 93.18182749999968,
                    "velocity": 0.7874015748031497,
                    "duration": 0.34090912499999604
                },
                {
                    "name": "F4",
                    "midi": 65,
                    "time": 93.18182749999968,
                    "velocity": 0.7874015748031497,
                    "duration": 0.34090912499999604
                },
                {
                    "name": "C5",
                    "midi": 72,
                    "time": 93.63637299999968,
                    "velocity": 0.7874015748031497,
                    "duration": 0.34090912499999604
                },
                {
                    "name": "G#4",
                    "midi": 68,
                    "time": 93.63637299999968,
                    "velocity": 0.7874015748031497,
                    "duration": 0.34090912499999604
                },
                {
                    "name": "D#4",
                    "midi": 63,
                    "time": 93.63637299999968,
                    "velocity": 0.7874015748031497,
                    "duration": 0.34090912499999604
                },
                {
                    "name": "F5",
                    "midi": 77,
                    "time": 94.09091849999967,
                    "velocity": 0.7874015748031497,
                    "duration": 0.34090912499999604
                },
                {
                    "name": "C5",
                    "midi": 72,
                    "time": 94.09091849999967,
                    "velocity": 0.7874015748031497,
                    "duration": 0.34090912499999604
                },
                {
                    "name": "F4",
                    "midi": 65,
                    "time": 94.09091849999967,
                    "velocity": 0.7874015748031497,
                    "duration": 0.34090912499999604
                },
                {
                    "name": "A#4",
                    "midi": 70,
                    "time": 94.54546399999967,
                    "velocity": 0.7874015748031497,
                    "duration": 0.34090912499999604
                },
                {
                    "name": "F4",
                    "midi": 65,
                    "time": 94.54546399999967,
                    "velocity": 0.7874015748031497,
                    "duration": 0.34090912499999604
                },
                {
                    "name": "D4",
                    "midi": 62,
                    "time": 94.54546399999967,
                    "velocity": 0.7874015748031497,
                    "duration": 0.34090912499999604
                },
                {
                    "name": "D#5",
                    "midi": 75,
                    "time": 95.00000949999966,
                    "velocity": 0.7874015748031497,
                    "duration": 0.34090912499999604
                },
                {
                    "name": "A#4",
                    "midi": 70,
                    "time": 95.00000949999966,
                    "velocity": 0.7874015748031497,
                    "duration": 0.34090912499999604
                },
                {
                    "name": "D#4",
                    "midi": 63,
                    "time": 95.00000949999966,
                    "velocity": 0.7874015748031497,
                    "duration": 0.34090912499999604
                },
                {
                    "name": "A#4",
                    "midi": 70,
                    "time": 95.45455499999966,
                    "velocity": 0.7874015748031497,
                    "duration": 0.34090912499999604
                },
                {
                    "name": "G4",
                    "midi": 67,
                    "time": 95.45455499999966,
                    "velocity": 0.7874015748031497,
                    "duration": 0.34090912499999604
                },
                {
                    "name": "D4",
                    "midi": 62,
                    "time": 95.45455499999966,
                    "velocity": 0.7874015748031497,
                    "duration": 0.34090912499999604
                },
                {
                    "name": "D#5",
                    "midi": 75,
                    "time": 95.90910049999965,
                    "velocity": 0.7874015748031497,
                    "duration": 0.34090912499999604
                },
                {
                    "name": "A#4",
                    "midi": 70,
                    "time": 95.90910049999965,
                    "velocity": 0.7874015748031497,
                    "duration": 0.34090912499999604
                },
                {
                    "name": "D#4",
                    "midi": 63,
                    "time": 95.90910049999965,
                    "velocity": 0.7874015748031497,
                    "duration": 0.34090912499999604
                },
                {
                    "name": "G#4",
                    "midi": 68,
                    "time": 96.36364599999965,
                    "velocity": 0.7874015748031497,
                    "duration": 0.34090912499999604
                },
                {
                    "name": "D#4",
                    "midi": 63,
                    "time": 96.36364599999965,
                    "velocity": 0.7874015748031497,
                    "duration": 0.34090912499999604
                },
                {
                    "name": "C4",
                    "midi": 60,
                    "time": 96.36364599999965,
                    "velocity": 0.7874015748031497,
                    "duration": 0.34090912499999604
                },
                {
                    "name": "D5",
                    "midi": 74,
                    "time": 96.81819149999964,
                    "velocity": 0.7874015748031497,
                    "duration": 0.34090912499999604
                },
                {
                    "name": "G#4",
                    "midi": 68,
                    "time": 96.81819149999964,
                    "velocity": 0.7874015748031497,
                    "duration": 0.34090912499999604
                },
                {
                    "name": "D4",
                    "midi": 62,
                    "time": 96.81819149999964,
                    "velocity": 0.7874015748031497,
                    "duration": 0.34090912499999604
                },
                {
                    "name": "G#4",
                    "midi": 68,
                    "time": 97.27273699999964,
                    "velocity": 0.7874015748031497,
                    "duration": 0.34090912499999604
                },
                {
                    "name": "F4",
                    "midi": 65,
                    "time": 97.27273699999964,
                    "velocity": 0.7874015748031497,
                    "duration": 0.34090912499999604
                },
                {
                    "name": "C4",
                    "midi": 60,
                    "time": 97.27273699999964,
                    "velocity": 0.7874015748031497,
                    "duration": 0.34090912499999604
                },
                {
                    "name": "D5",
                    "midi": 74,
                    "time": 97.72728249999963,
                    "velocity": 0.7874015748031497,
                    "duration": 0.34090912499999604
                },
                {
                    "name": "G#4",
                    "midi": 68,
                    "time": 97.72728249999963,
                    "velocity": 0.7874015748031497,
                    "duration": 0.34090912499999604
                },
                {
                    "name": "D4",
                    "midi": 62,
                    "time": 97.72728249999963,
                    "velocity": 0.7874015748031497,
                    "duration": 0.34090912499999604
                },
                {
                    "name": "G4",
                    "midi": 67,
                    "time": 98.18182799999963,
                    "velocity": 0.7874015748031497,
                    "duration": 0.34090912499999604
                },
                {
                    "name": "D4",
                    "midi": 62,
                    "time": 98.18182799999963,
                    "velocity": 0.7874015748031497,
                    "duration": 0.34090912499999604
                },
                {
                    "name": "A#3",
                    "midi": 58,
                    "time": 98.18182799999963,
                    "velocity": 0.7874015748031497,
                    "duration": 0.34090912499999604
                },
                {
                    "name": "G5",
                    "midi": 79,
                    "time": 98.63637349999962,
                    "velocity": 0.7874015748031497,
                    "duration": 0.34090912499999604
                },
                {
                    "name": "C5",
                    "midi": 72,
                    "time": 98.63637349999962,
                    "velocity": 0.7874015748031497,
                    "duration": 0.34090912499999604
                },
                {
                    "name": "G4",
                    "midi": 67,
                    "time": 98.63637349999962,
                    "velocity": 0.7874015748031497,
                    "duration": 0.34090912499999604
                },
                {
                    "name": "C5",
                    "midi": 72,
                    "time": 99.09091899999962,
                    "velocity": 0.7874015748031497,
                    "duration": 0.34090912499999604
                },
                {
                    "name": "G4",
                    "midi": 67,
                    "time": 99.09091899999962,
                    "velocity": 0.7874015748031497,
                    "duration": 0.34090912499999604
                },
                {
                    "name": "G5",
                    "midi": 79,
                    "time": 99.54546449999961,
                    "velocity": 0.7874015748031497,
                    "duration": 0.34090912499999604
                },
                {
                    "name": "D#5",
                    "midi": 75,
                    "time": 99.54546449999961,
                    "velocity": 0.7874015748031497,
                    "duration": 0.34090912499999604
                },
                {
                    "name": "G4",
                    "midi": 67,
                    "time": 99.54546449999961,
                    "velocity": 0.7874015748031497,
                    "duration": 0.34090912499999604
                },
                {
                    "name": "B4",
                    "midi": 71,
                    "time": 100.0000099999996,
                    "velocity": 0.7874015748031497,
                    "duration": 0.34090912499999604
                },
                {
                    "name": "F4",
                    "midi": 65,
                    "time": 100.0000099999996,
                    "velocity": 0.7874015748031497,
                    "duration": 0.34090912499999604
                },
                {
                    "name": "D4",
                    "midi": 62,
                    "time": 100.0000099999996,
                    "velocity": 0.7874015748031497,
                    "duration": 0.34090912499999604
                },
                {
                    "name": "F5",
                    "midi": 77,
                    "time": 100.4545554999996,
                    "velocity": 0.7874015748031497,
                    "duration": 0.34090912499999604
                },
                {
                    "name": "D5",
                    "midi": 74,
                    "time": 100.4545554999996,
                    "velocity": 0.7874015748031497,
                    "duration": 0.34090912499999604
                },
                {
                    "name": "G#4",
                    "midi": 68,
                    "time": 100.4545554999996,
                    "velocity": 0.7874015748031497,
                    "duration": 0.34090912499999604
                },
                {
                    "name": "B4",
                    "midi": 71,
                    "time": 100.9091009999996,
                    "velocity": 0.7874015748031497,
                    "duration": 0.34090912499999604
                },
                {
                    "name": "F4",
                    "midi": 65,
                    "time": 100.9091009999996,
                    "velocity": 0.7874015748031497,
                    "duration": 0.34090912499999604
                },
                {
                    "name": "D4",
                    "midi": 62,
                    "time": 100.9091009999996,
                    "velocity": 0.7874015748031497,
                    "duration": 0.34090912499999604
                },
                {
                    "name": "B4",
                    "midi": 71,
                    "time": 101.36364649999959,
                    "velocity": 0.7874015748031497,
                    "duration": 0.34090912499999604
                },
                {
                    "name": "F5",
                    "midi": 77,
                    "time": 101.36364649999959,
                    "velocity": 0.7874015748031497,
                    "duration": 0.34090912499999604
                },
                {
                    "name": "F4",
                    "midi": 65,
                    "time": 101.36364649999959,
                    "velocity": 0.7874015748031497,
                    "duration": 0.34090912499999604
                },
                {
                    "name": "D#5",
                    "midi": 75,
                    "time": 101.81819199999958,
                    "velocity": 0.7874015748031497,
                    "duration": 0.34090912499999604
                },
                {
                    "name": "C5",
                    "midi": 72,
                    "time": 101.81819199999958,
                    "velocity": 0.7874015748031497,
                    "duration": 0.34090912499999604
                },
                {
                    "name": "G4",
                    "midi": 67,
                    "time": 101.81819199999958,
                    "velocity": 0.7874015748031497,
                    "duration": 0.34090912499999604
                },
                {
                    "name": "G#5",
                    "midi": 80,
                    "time": 102.27273749999958,
                    "velocity": 0.7874015748031497,
                    "duration": 0.34090912499999604
                },
                {
                    "name": "D#5",
                    "midi": 75,
                    "time": 102.27273749999958,
                    "velocity": 0.7874015748031497,
                    "duration": 0.34090912499999604
                },
                {
                    "name": "C5",
                    "midi": 72,
                    "time": 102.27273749999958,
                    "velocity": 0.7874015748031497,
                    "duration": 0.34090912499999604
                },
                {
                    "name": "D#5",
                    "midi": 75,
                    "time": 102.72728299999957,
                    "velocity": 0.7874015748031497,
                    "duration": 0.34090912499999604
                },
                {
                    "name": "C5",
                    "midi": 72,
                    "time": 102.72728299999957,
                    "velocity": 0.7874015748031497,
                    "duration": 0.34090912499999604
                },
                {
                    "name": "G#5",
                    "midi": 80,
                    "time": 103.18182849999957,
                    "velocity": 0.7874015748031497,
                    "duration": 0.34090912499999604
                },
                {
                    "name": "D#5",
                    "midi": 75,
                    "time": 103.18182849999957,
                    "velocity": 0.7874015748031497,
                    "duration": 0.34090912499999604
                },
                {
                    "name": "C5",
                    "midi": 72,
                    "time": 103.18182849999957,
                    "velocity": 0.7874015748031497,
                    "duration": 0.34090912499999604
                },
                {
                    "name": "F5",
                    "midi": 77,
                    "time": 103.63637399999956,
                    "velocity": 0.7874015748031497,
                    "duration": 0.34090912499999604
                },
                {
                    "name": "D#5",
                    "midi": 75,
                    "time": 103.63637399999956,
                    "velocity": 0.7874015748031497,
                    "duration": 0.34090912499999604
                },
                {
                    "name": "C5",
                    "midi": 72,
                    "time": 103.63637399999956,
                    "velocity": 0.7874015748031497,
                    "duration": 0.34090912499999604
                },
                {
                    "name": "A#5",
                    "midi": 82,
                    "time": 104.09091949999956,
                    "velocity": 0.7874015748031497,
                    "duration": 0.34090912499999604
                },
                {
                    "name": "D5",
                    "midi": 74,
                    "time": 104.09091949999956,
                    "velocity": 0.7874015748031497,
                    "duration": 0.34090912499999604
                },
                {
                    "name": "A#4",
                    "midi": 70,
                    "time": 104.09091949999956,
                    "velocity": 0.7874015748031497,
                    "duration": 0.34090912499999604
                },
                {
                    "name": "F5",
                    "midi": 77,
                    "time": 104.54546499999955,
                    "velocity": 0.7874015748031497,
                    "duration": 0.34090912499999604
                },
                {
                    "name": "D5",
                    "midi": 74,
                    "time": 104.54546499999955,
                    "velocity": 0.7874015748031497,
                    "duration": 0.34090912499999604
                },
                {
                    "name": "A#5",
                    "midi": 82,
                    "time": 105.00001049999955,
                    "velocity": 0.7874015748031497,
                    "duration": 0.34090912499999604
                },
                {
                    "name": "D5",
                    "midi": 74,
                    "time": 105.00001049999955,
                    "velocity": 0.7874015748031497,
                    "duration": 0.34090912499999604
                },
                {
                    "name": "A#4",
                    "midi": 70,
                    "time": 105.00001049999955,
                    "velocity": 0.7874015748031497,
                    "duration": 0.34090912499999604
                },
                {
                    "name": "G5",
                    "midi": 79,
                    "time": 105.45455599999954,
                    "velocity": 0.7874015748031497,
                    "duration": 0.34090912499999604
                },
                {
                    "name": "D5",
                    "midi": 74,
                    "time": 105.45455599999954,
                    "velocity": 0.7874015748031497,
                    "duration": 0.34090912499999604
                },
                {
                    "name": "A#4",
                    "midi": 70,
                    "time": 105.45455599999954,
                    "velocity": 0.7874015748031497,
                    "duration": 0.34090912499999604
                },
                {
                    "name": "C5",
                    "midi": 72,
                    "time": 105.90910149999954,
                    "velocity": 0.7874015748031497,
                    "duration": 0.34090912499999604
                },
                {
                    "name": "G4",
                    "midi": 67,
                    "time": 105.90910149999954,
                    "velocity": 0.7874015748031497,
                    "duration": 0.34090912499999604
                },
                {
                    "name": "G4",
                    "midi": 67,
                    "time": 106.36364699999953,
                    "velocity": 0.7874015748031497,
                    "duration": 0.34090912499999604
                },
                {
                    "name": "D#4",
                    "midi": 63,
                    "time": 106.36364699999953,
                    "velocity": 0.7874015748031497,
                    "duration": 0.34090912499999604
                },
                {
                    "name": "C4",
                    "midi": 60,
                    "time": 106.36364699999953,
                    "velocity": 0.7874015748031497,
                    "duration": 0.34090912499999604
                },
                {
                    "name": "C5",
                    "midi": 72,
                    "time": 106.81819249999953,
                    "velocity": 0.7874015748031497,
                    "duration": 0.34090912499999604
                },
                {
                    "name": "D#4",
                    "midi": 63,
                    "time": 106.81819249999953,
                    "velocity": 0.7874015748031497,
                    "duration": 0.34090912499999604
                },
                {
                    "name": "C4",
                    "midi": 60,
                    "time": 106.81819249999953,
                    "velocity": 0.7874015748031497,
                    "duration": 0.34090912499999604
                },
                {
                    "name": "A4",
                    "midi": 69,
                    "time": 107.27273799999952,
                    "velocity": 0.7874015748031497,
                    "duration": 0.34090912499999604
                },
                {
                    "name": "D#4",
                    "midi": 63,
                    "time": 107.27273799999952,
                    "velocity": 0.7874015748031497,
                    "duration": 0.34090912499999604
                },
                {
                    "name": "C4",
                    "midi": 60,
                    "time": 107.27273799999952,
                    "velocity": 0.7874015748031497,
                    "duration": 0.34090912499999604
                },
                {
                    "name": "A4",
                    "midi": 69,
                    "time": 107.72728349999952,
                    "velocity": 0.7874015748031497,
                    "duration": 0.34090912499999604
                },
                {
                    "name": "D5",
                    "midi": 74,
                    "time": 107.72728349999952,
                    "velocity": 0.7874015748031497,
                    "duration": 0.34090912499999604
                },
                {
                    "name": "D4",
                    "midi": 62,
                    "time": 107.72728349999952,
                    "velocity": 0.7874015748031497,
                    "duration": 0.34090912499999604
                },
                {
                    "name": "A4",
                    "midi": 69,
                    "time": 108.18182899999951,
                    "velocity": 0.7874015748031497,
                    "duration": 0.34090912499999604
                },
                {
                    "name": "F4",
                    "midi": 65,
                    "time": 108.18182899999951,
                    "velocity": 0.7874015748031497,
                    "duration": 0.34090912499999604
                },
                {
                    "name": "D4",
                    "midi": 62,
                    "time": 108.18182899999951,
                    "velocity": 0.7874015748031497,
                    "duration": 0.34090912499999604
                },
                {
                    "name": "A4",
                    "midi": 69,
                    "time": 108.6363744999995,
                    "velocity": 0.7874015748031497,
                    "duration": 0.34090912499999604
                },
                {
                    "name": "D5",
                    "midi": 74,
                    "time": 108.6363744999995,
                    "velocity": 0.7874015748031497,
                    "duration": 0.34090912499999604
                },
                {
                    "name": "D4",
                    "midi": 62,
                    "time": 108.6363744999995,
                    "velocity": 0.7874015748031497,
                    "duration": 0.34090912499999604
                },
                {
                    "name": "G4",
                    "midi": 67,
                    "time": 109.0909199999995,
                    "velocity": 0.7874015748031497,
                    "duration": 0.34090912499999604
                },
                {
                    "name": "D4",
                    "midi": 62,
                    "time": 109.0909199999995,
                    "velocity": 0.7874015748031497,
                    "duration": 0.34090912499999604
                },
                {
                    "name": "A#3",
                    "midi": 58,
                    "time": 109.0909199999995,
                    "velocity": 0.7874015748031497,
                    "duration": 0.34090912499999604
                },
                {
                    "name": "C5",
                    "midi": 72,
                    "time": 109.5454654999995,
                    "velocity": 0.7874015748031497,
                    "duration": 0.34090912499999604
                },
                {
                    "name": "G4",
                    "midi": 67,
                    "time": 109.5454654999995,
                    "velocity": 0.7874015748031497,
                    "duration": 0.34090912499999604
                },
                {
                    "name": "C4",
                    "midi": 60,
                    "time": 109.5454654999995,
                    "velocity": 0.7874015748031497,
                    "duration": 0.34090912499999604
                },
                {
                    "name": "G4",
                    "midi": 67,
                    "time": 110.00001099999949,
                    "velocity": 0.7874015748031497,
                    "duration": 0.34090912499999604
                },
                {
                    "name": "D#4",
                    "midi": 63,
                    "time": 110.00001099999949,
                    "velocity": 0.7874015748031497,
                    "duration": 0.34090912499999604
                },
                {
                    "name": "C4",
                    "midi": 60,
                    "time": 110.00001099999949,
                    "velocity": 0.7874015748031497,
                    "duration": 0.34090912499999604
                },
                {
                    "name": "C5",
                    "midi": 72,
                    "time": 110.45455649999948,
                    "velocity": 0.7874015748031497,
                    "duration": 0.34090912499999604
                },
                {
                    "name": "G4",
                    "midi": 67,
                    "time": 110.45455649999948,
                    "velocity": 0.7874015748031497,
                    "duration": 0.34090912499999604
                },
                {
                    "name": "C4",
                    "midi": 60,
                    "time": 110.45455649999948,
                    "velocity": 0.7874015748031497,
                    "duration": 0.34090912499999604
                },
                {
                    "name": "F#4",
                    "midi": 66,
                    "time": 110.90910199999948,
                    "velocity": 0.7874015748031497,
                    "duration": 0.34090912499999604
                },
                {
                    "name": "A3",
                    "midi": 57,
                    "time": 110.90910199999948,
                    "velocity": 0.7874015748031497,
                    "duration": 0.34090912499999604
                },
                {
                    "name": "C4",
                    "midi": 60,
                    "time": 110.90910199999948,
                    "velocity": 0.7874015748031497,
                    "duration": 0.34090912499999604
                },
                {
                    "name": "F#4",
                    "midi": 66,
                    "time": 111.36364749999947,
                    "velocity": 0.7874015748031497,
                    "duration": 0.34090912499999604
                },
                {
                    "name": "A#4",
                    "midi": 70,
                    "time": 111.36364749999947,
                    "velocity": 0.7874015748031497,
                    "duration": 0.34090912499999604
                },
                {
                    "name": "A#3",
                    "midi": 58,
                    "time": 111.36364749999947,
                    "velocity": 0.7874015748031497,
                    "duration": 0.34090912499999604
                },
                {
                    "name": "F#4",
                    "midi": 66,
                    "time": 111.81819299999947,
                    "velocity": 0.7874015748031497,
                    "duration": 0.34090912499999604
                },
                {
                    "name": "D4",
                    "midi": 62,
                    "time": 111.81819299999947,
                    "velocity": 0.7874015748031497,
                    "duration": 0.34090912499999604
                },
                {
                    "name": "A#3",
                    "midi": 58,
                    "time": 111.81819299999947,
                    "velocity": 0.7874015748031497,
                    "duration": 0.34090912499999604
                },
                {
                    "name": "F#4",
                    "midi": 66,
                    "time": 112.27273849999946,
                    "velocity": 0.7874015748031497,
                    "duration": 0.34090912499999604
                },
                {
                    "name": "A#4",
                    "midi": 70,
                    "time": 112.27273849999946,
                    "velocity": 0.7874015748031497,
                    "duration": 0.34090912499999604
                },
                {
                    "name": "A#3",
                    "midi": 58,
                    "time": 112.27273849999946,
                    "velocity": 0.7874015748031497,
                    "duration": 0.34090912499999604
                },
                {
                    "name": "G4",
                    "midi": 67,
                    "time": 112.72728399999946,
                    "velocity": 0.7874015748031497,
                    "duration": 0.34090912499999604
                },
                {
                    "name": "D4",
                    "midi": 62,
                    "time": 112.72728399999946,
                    "velocity": 0.7874015748031497,
                    "duration": 0.34090912499999604
                },
                {
                    "name": "A#3",
                    "midi": 58,
                    "time": 112.72728399999946,
                    "velocity": 0.7874015748031497,
                    "duration": 0.34090912499999604
                },
                {
                    "name": "C5",
                    "midi": 72,
                    "time": 113.18182949999945,
                    "velocity": 0.7874015748031497,
                    "duration": 0.34090912499999604
                },
                {
                    "name": "A#4",
                    "midi": 70,
                    "time": 113.18182949999945,
                    "velocity": 0.7874015748031497,
                    "duration": 0.34090912499999604
                },
                {
                    "name": "C4",
                    "midi": 60,
                    "time": 113.18182949999945,
                    "velocity": 0.7874015748031497,
                    "duration": 0.34090912499999604
                },
                {
                    "name": "G4",
                    "midi": 67,
                    "time": 113.63637499999945,
                    "velocity": 0.7874015748031497,
                    "duration": 0.34090912499999604
                },
                {
                    "name": "C4",
                    "midi": 60,
                    "time": 113.63637499999945,
                    "velocity": 0.7874015748031497,
                    "duration": 0.34090912499999604
                },
                {
                    "name": "A#3",
                    "midi": 58,
                    "time": 113.63637499999945,
                    "velocity": 0.7874015748031497,
                    "duration": 0.34090912499999604
                },
                {
                    "name": "C5",
                    "midi": 72,
                    "time": 114.09092049999944,
                    "velocity": 0.7874015748031497,
                    "duration": 0.34090912499999604
                },
                {
                    "name": "G4",
                    "midi": 67,
                    "time": 114.09092049999944,
                    "velocity": 0.7874015748031497,
                    "duration": 0.34090912499999604
                },
                {
                    "name": "C4",
                    "midi": 60,
                    "time": 114.09092049999944,
                    "velocity": 0.7874015748031497,
                    "duration": 0.34090912499999604
                },
                {
                    "name": "A4",
                    "midi": 69,
                    "time": 114.54546599999944,
                    "velocity": 0.7874015748031497,
                    "duration": 0.34090912499999604
                },
                {
                    "name": "C4",
                    "midi": 60,
                    "time": 114.54546599999944,
                    "velocity": 0.7874015748031497,
                    "duration": 0.34090912499999604
                },
                {
                    "name": "A4",
                    "midi": 69,
                    "time": 115.00001149999943,
                    "velocity": 0.7874015748031497,
                    "duration": 0.34090912499999604
                },
                {
                    "name": "D5",
                    "midi": 74,
                    "time": 115.00001149999943,
                    "velocity": 0.7874015748031497,
                    "duration": 0.34090912499999604
                },
                {
                    "name": "A4",
                    "midi": 69,
                    "time": 115.45455699999943,
                    "velocity": 0.7874015748031497,
                    "duration": 0.34090912499999604
                },
                {
                    "name": "F4",
                    "midi": 65,
                    "time": 115.45455699999943,
                    "velocity": 0.7874015748031497,
                    "duration": 0.34090912499999604
                },
                {
                    "name": "D4",
                    "midi": 62,
                    "time": 115.45455699999943,
                    "velocity": 0.7874015748031497,
                    "duration": 0.34090912499999604
                },
                {
                    "name": "D5",
                    "midi": 74,
                    "time": 115.90910249999942,
                    "velocity": 0.7874015748031497,
                    "duration": 0.34090912499999604
                },
                {
                    "name": "F4",
                    "midi": 65,
                    "time": 115.90910249999942,
                    "velocity": 0.7874015748031497,
                    "duration": 0.34090912499999604
                },
                {
                    "name": "D4",
                    "midi": 62,
                    "time": 115.90910249999942,
                    "velocity": 0.7874015748031497,
                    "duration": 0.34090912499999604
                },
                {
                    "name": "A#4",
                    "midi": 70,
                    "time": 116.36364799999942,
                    "velocity": 0.7874015748031497,
                    "duration": 0.34090912499999604
                },
                {
                    "name": "F4",
                    "midi": 65,
                    "time": 116.36364799999942,
                    "velocity": 0.7874015748031497,
                    "duration": 0.34090912499999604
                },
                {
                    "name": "D4",
                    "midi": 62,
                    "time": 116.36364799999942,
                    "velocity": 0.7874015748031497,
                    "duration": 0.34090912499999604
                },
                {
                    "name": "D#5",
                    "midi": 75,
                    "time": 116.81819349999941,
                    "velocity": 0.7874015748031497,
                    "duration": 0.34090912499999604
                },
                {
                    "name": "A#4",
                    "midi": 70,
                    "time": 116.81819349999941,
                    "velocity": 0.7874015748031497,
                    "duration": 0.34090912499999604
                },
                {
                    "name": "D#4",
                    "midi": 63,
                    "time": 116.81819349999941,
                    "velocity": 0.7874015748031497,
                    "duration": 0.34090912499999604
                },
                {
                    "name": "A#4",
                    "midi": 70,
                    "time": 117.2727389999994,
                    "velocity": 0.7874015748031497,
                    "duration": 0.34090912499999604
                },
                {
                    "name": "G4",
                    "midi": 67,
                    "time": 117.2727389999994,
                    "velocity": 0.7874015748031497,
                    "duration": 0.34090912499999604
                },
                {
                    "name": "D#4",
                    "midi": 63,
                    "time": 117.2727389999994,
                    "velocity": 0.7874015748031497,
                    "duration": 0.34090912499999604
                },
                {
                    "name": "D#5",
                    "midi": 75,
                    "time": 117.7272844999994,
                    "velocity": 0.7874015748031497,
                    "duration": 0.34090912499999604
                },
                {
                    "name": "G4",
                    "midi": 67,
                    "time": 117.7272844999994,
                    "velocity": 0.7874015748031497,
                    "duration": 0.34090912499999604
                },
                {
                    "name": "D#4",
                    "midi": 63,
                    "time": 117.7272844999994,
                    "velocity": 0.7874015748031497,
                    "duration": 0.34090912499999604
                },
                {
                    "name": "C5",
                    "midi": 72,
                    "time": 118.1818299999994,
                    "velocity": 0.7874015748031497,
                    "duration": 0.34090912499999604
                },
                {
                    "name": "G4",
                    "midi": 67,
                    "time": 118.1818299999994,
                    "velocity": 0.7874015748031497,
                    "duration": 0.34090912499999604
                },
                {
                    "name": "D#4",
                    "midi": 63,
                    "time": 118.1818299999994,
                    "velocity": 0.7874015748031497,
                    "duration": 0.34090912499999604
                },
                {
                    "name": "F5",
                    "midi": 77,
                    "time": 118.63637549999939,
                    "velocity": 0.7874015748031497,
                    "duration": 0.34090912499999604
                },
                {
                    "name": "C5",
                    "midi": 72,
                    "time": 118.63637549999939,
                    "velocity": 0.7874015748031497,
                    "duration": 0.34090912499999604
                },
                {
                    "name": "F4",
                    "midi": 65,
                    "time": 118.63637549999939,
                    "velocity": 0.7874015748031497,
                    "duration": 0.34090912499999604
                },
                {
                    "name": "A4",
                    "midi": 69,
                    "time": 119.09092099999938,
                    "velocity": 0.7874015748031497,
                    "duration": 0.34090912499999604
                },
                {
                    "name": "C5",
                    "midi": 72,
                    "time": 119.09092099999938,
                    "velocity": 0.7874015748031497,
                    "duration": 0.34090912499999604
                },
                {
                    "name": "F4",
                    "midi": 65,
                    "time": 119.09092099999938,
                    "velocity": 0.7874015748031497,
                    "duration": 0.34090912499999604
                },
                {
                    "name": "A4",
                    "midi": 69,
                    "time": 119.54546649999938,
                    "velocity": 0.7874015748031497,
                    "duration": 0.34090912499999604
                },
                {
                    "name": "F5",
                    "midi": 77,
                    "time": 119.54546649999938,
                    "velocity": 0.7874015748031497,
                    "duration": 0.34090912499999604
                },
                {
                    "name": "F4",
                    "midi": 65,
                    "time": 119.54546649999938,
                    "velocity": 0.7874015748031497,
                    "duration": 0.34090912499999604
                },
                {
                    "name": "A4",
                    "midi": 69,
                    "time": 120.00001199999937,
                    "velocity": 0.7874015748031497,
                    "duration": 0.34090912499999604
                },
                {
                    "name": "D5",
                    "midi": 74,
                    "time": 120.00001199999937,
                    "velocity": 0.7874015748031497,
                    "duration": 0.34090912499999604
                },
                {
                    "name": "F4",
                    "midi": 65,
                    "time": 120.00001199999937,
                    "velocity": 0.7874015748031497,
                    "duration": 0.34090912499999604
                },
                {
                    "name": "G5",
                    "midi": 79,
                    "time": 120.45455749999937,
                    "velocity": 0.7874015748031497,
                    "duration": 0.34090912499999604
                },
                {
                    "name": "D5",
                    "midi": 74,
                    "time": 120.45455749999937,
                    "velocity": 0.7874015748031497,
                    "duration": 0.34090912499999604
                },
                {
                    "name": "G4",
                    "midi": 67,
                    "time": 120.45455749999937,
                    "velocity": 0.7874015748031497,
                    "duration": 0.34090912499999604
                },
                {
                    "name": "D5",
                    "midi": 74,
                    "time": 120.90910299999936,
                    "velocity": 0.7874015748031497,
                    "duration": 0.34090912499999604
                },
                {
                    "name": "A#4",
                    "midi": 70,
                    "time": 120.90910299999936,
                    "velocity": 0.7874015748031497,
                    "duration": 0.34090912499999604
                },
                {
                    "name": "G4",
                    "midi": 67,
                    "time": 120.90910299999936,
                    "velocity": 0.7874015748031497,
                    "duration": 0.34090912499999604
                },
                {
                    "name": "G5",
                    "midi": 79,
                    "time": 121.36364849999936,
                    "velocity": 0.7874015748031497,
                    "duration": 0.34090912499999604
                },
                {
                    "name": "A#4",
                    "midi": 70,
                    "time": 121.36364849999936,
                    "velocity": 0.7874015748031497,
                    "duration": 0.34090912499999604
                },
                {
                    "name": "G4",
                    "midi": 67,
                    "time": 121.36364849999936,
                    "velocity": 0.7874015748031497,
                    "duration": 0.34090912499999604
                },
                {
                    "name": "D#5",
                    "midi": 75,
                    "time": 121.81819399999935,
                    "velocity": 0.7874015748031497,
                    "duration": 0.34090912499999604
                },
                {
                    "name": "A#4",
                    "midi": 70,
                    "time": 121.81819399999935,
                    "velocity": 0.7874015748031497,
                    "duration": 0.34090912499999604
                },
                {
                    "name": "G4",
                    "midi": 67,
                    "time": 121.81819399999935,
                    "velocity": 0.7874015748031497,
                    "duration": 0.34090912499999604
                },
                {
                    "name": "G#5",
                    "midi": 80,
                    "time": 122.27273949999935,
                    "velocity": 0.7874015748031497,
                    "duration": 0.34090912499999604
                },
                {
                    "name": "D#5",
                    "midi": 75,
                    "time": 122.27273949999935,
                    "velocity": 0.7874015748031497,
                    "duration": 0.34090912499999604
                },
                {
                    "name": "G#4",
                    "midi": 68,
                    "time": 122.27273949999935,
                    "velocity": 0.7874015748031497,
                    "duration": 0.34090912499999604
                },
                {
                    "name": "D#5",
                    "midi": 75,
                    "time": 122.72728499999934,
                    "velocity": 0.7874015748031497,
                    "duration": 0.34090912499999604
                },
                {
                    "name": "C5",
                    "midi": 72,
                    "time": 122.72728499999934,
                    "velocity": 0.7874015748031497,
                    "duration": 0.34090912499999604
                },
                {
                    "name": "G#4",
                    "midi": 68,
                    "time": 122.72728499999934,
                    "velocity": 0.7874015748031497,
                    "duration": 0.34090912499999604
                },
                {
                    "name": "G#5",
                    "midi": 80,
                    "time": 123.18183049999934,
                    "velocity": 0.7874015748031497,
                    "duration": 0.34090912499999604
                },
                {
                    "name": "C5",
                    "midi": 72,
                    "time": 123.18183049999934,
                    "velocity": 0.7874015748031497,
                    "duration": 0.34090912499999604
                },
                {
                    "name": "G#4",
                    "midi": 68,
                    "time": 123.18183049999934,
                    "velocity": 0.7874015748031497,
                    "duration": 0.34090912499999604
                },
                {
                    "name": "F5",
                    "midi": 77,
                    "time": 123.63637599999933,
                    "velocity": 0.7874015748031497,
                    "duration": 0.34090912499999604
                },
                {
                    "name": "C5",
                    "midi": 72,
                    "time": 123.63637599999933,
                    "velocity": 0.7874015748031497,
                    "duration": 0.34090912499999604
                },
                {
                    "name": "G#4",
                    "midi": 68,
                    "time": 123.63637599999933,
                    "velocity": 0.7874015748031497,
                    "duration": 0.34090912499999604
                },
                {
                    "name": "A#5",
                    "midi": 82,
                    "time": 124.09092149999933,
                    "velocity": 0.7874015748031497,
                    "duration": 0.34090912499999604
                },
                {
                    "name": "F5",
                    "midi": 77,
                    "time": 124.09092149999933,
                    "velocity": 0.7874015748031497,
                    "duration": 0.34090912499999604
                },
                {
                    "name": "A#4",
                    "midi": 70,
                    "time": 124.09092149999933,
                    "velocity": 0.7874015748031497,
                    "duration": 0.34090912499999604
                },
                {
                    "name": "F5",
                    "midi": 77,
                    "time": 124.54546699999932,
                    "velocity": 0.7874015748031497,
                    "duration": 0.34090912499999604
                },
                {
                    "name": "D5",
                    "midi": 74,
                    "time": 124.54546699999932,
                    "velocity": 0.7874015748031497,
                    "duration": 0.34090912499999604
                },
                {
                    "name": "A#4",
                    "midi": 70,
                    "time": 124.54546699999932,
                    "velocity": 0.7874015748031497,
                    "duration": 0.34090912499999604
                },
                {
                    "name": "A#5",
                    "midi": 82,
                    "time": 125.00001249999931,
                    "velocity": 0.7874015748031497,
                    "duration": 0.34090912499999604
                },
                {
                    "name": "D5",
                    "midi": 74,
                    "time": 125.00001249999931,
                    "velocity": 0.7874015748031497,
                    "duration": 0.34090912499999604
                },
                {
                    "name": "A#4",
                    "midi": 70,
                    "time": 125.00001249999931,
                    "velocity": 0.7874015748031497,
                    "duration": 0.34090912499999604
                },
                {
                    "name": "G5",
                    "midi": 79,
                    "time": 125.45455799999931,
                    "velocity": 0.7874015748031497,
                    "duration": 0.34090912499999604
                },
                {
                    "name": "D5",
                    "midi": 74,
                    "time": 125.45455799999931,
                    "velocity": 0.7874015748031497,
                    "duration": 0.34090912499999604
                },
                {
                    "name": "A#4",
                    "midi": 70,
                    "time": 125.45455799999931,
                    "velocity": 0.7874015748031497,
                    "duration": 0.34090912499999604
                },
                {
                    "name": "G5",
                    "midi": 79,
                    "time": 125.9091034999993,
                    "velocity": 0.7874015748031497,
                    "duration": 0.34090912499999604
                },
                {
                    "name": "C5",
                    "midi": 72,
                    "time": 125.9091034999993,
                    "velocity": 0.7874015748031497,
                    "duration": 0.34090912499999604
                },
                {
                    "name": "C6",
                    "midi": 84,
                    "time": 126.3636489999993,
                    "velocity": 0.7874015748031497,
                    "duration": 0.34090912499999604
                },
                {
                    "name": "C5",
                    "midi": 72,
                    "time": 126.3636489999993,
                    "velocity": 0.7874015748031497,
                    "duration": 0.34090912499999604
                },
                {
                    "name": "G5",
                    "midi": 79,
                    "time": 126.8181944999993,
                    "velocity": 0.7874015748031497,
                    "duration": 0.34090912499999604
                },
                {
                    "name": "A#5",
                    "midi": 82,
                    "time": 126.8181944999993,
                    "velocity": 0.7874015748031497,
                    "duration": 0.34090912499999604
                },
                {
                    "name": "C5",
                    "midi": 72,
                    "time": 126.8181944999993,
                    "velocity": 0.7874015748031497,
                    "duration": 0.34090912499999604
                },
                {
                    "name": "F5",
                    "midi": 77,
                    "time": 127.27273999999929,
                    "velocity": 0.7874015748031497,
                    "duration": 0.34090912499999604
                },
                {
                    "name": "G#5",
                    "midi": 80,
                    "time": 127.27273999999929,
                    "velocity": 0.7874015748031497,
                    "duration": 0.34090912499999604
                },
                {
                    "name": "C5",
                    "midi": 72,
                    "time": 127.27273999999929,
                    "velocity": 0.7874015748031497,
                    "duration": 0.34090912499999604
                },
                {
                    "name": "G5",
                    "midi": 79,
                    "time": 127.72728549999928,
                    "velocity": 0.7874015748031497,
                    "duration": 0.34090912499999604
                },
                {
                    "name": "C5",
                    "midi": 72,
                    "time": 127.72728549999928,
                    "velocity": 0.7874015748031497,
                    "duration": 0.34090912499999604
                },
                {
                    "name": "D5",
                    "midi": 74,
                    "time": 128.18183099999928,
                    "velocity": 0.7874015748031497,
                    "duration": 0.34090912499999604
                },
                {
                    "name": "F5",
                    "midi": 77,
                    "time": 128.18183099999928,
                    "velocity": 0.7874015748031497,
                    "duration": 0.34090912499999604
                },
                {
                    "name": "G#4",
                    "midi": 68,
                    "time": 128.18183099999928,
                    "velocity": 0.7874015748031497,
                    "duration": 0.34090912499999604
                },
                {
                    "name": "C5",
                    "midi": 72,
                    "time": 128.63637649999927,
                    "velocity": 0.7874015748031497,
                    "duration": 0.34090912499999604
                },
                {
                    "name": "D#5",
                    "midi": 75,
                    "time": 128.63637649999927,
                    "velocity": 0.7874015748031497,
                    "duration": 0.34090912499999604
                },
                {
                    "name": "G4",
                    "midi": 67,
                    "time": 128.63637649999927,
                    "velocity": 0.7874015748031497,
                    "duration": 0.34090912499999604
                },
                {
                    "name": "B4",
                    "midi": 71,
                    "time": 129.09092199999927,
                    "velocity": 0.7874015748031497,
                    "duration": 0.34090912499999604
                },
                {
                    "name": "D5",
                    "midi": 74,
                    "time": 129.09092199999927,
                    "velocity": 0.7874015748031497,
                    "duration": 0.34090912499999604
                },
                {
                    "name": "G4",
                    "midi": 67,
                    "time": 129.09092199999927,
                    "velocity": 0.7874015748031497,
                    "duration": 0.34090912499999604
                },
                {
                    "name": "A4",
                    "midi": 69,
                    "time": 129.54546749999926,
                    "velocity": 0.7874015748031497,
                    "duration": 0.34090912499999604
                },
                {
                    "name": "B4",
                    "midi": 71,
                    "time": 129.54546749999926,
                    "velocity": 0.7874015748031497,
                    "duration": 0.34090912499999604
                },
                {
                    "name": "D5",
                    "midi": 74,
                    "time": 129.54546749999926,
                    "velocity": 0.7874015748031497,
                    "duration": 0.34090912499999604
                },
                {
                    "name": "B4",
                    "midi": 71,
                    "time": 130.00001299999926,
                    "velocity": 0.7874015748031497,
                    "duration": 0.34090912499999604
                },
                {
                    "name": "G5",
                    "midi": 79,
                    "time": 130.00001299999926,
                    "velocity": 0.7874015748031497,
                    "duration": 0.34090912499999604
                },
                {
                    "name": "D#5",
                    "midi": 75,
                    "time": 130.00001299999926,
                    "velocity": 0.7874015748031497,
                    "duration": 0.34090912499999604
                },
                {
                    "name": "B4",
                    "midi": 71,
                    "time": 130.45455849999925,
                    "velocity": 0.7874015748031497,
                    "duration": 0.34090912499999604
                },
                {
                    "name": "F5",
                    "midi": 77,
                    "time": 130.45455849999925,
                    "velocity": 0.7874015748031497,
                    "duration": 0.34090912499999604
                },
                {
                    "name": "D5",
                    "midi": 74,
                    "time": 130.45455849999925,
                    "velocity": 0.7874015748031497,
                    "duration": 0.34090912499999604
                },
                {
                    "name": "C5",
                    "midi": 72,
                    "time": 130.90910399999925,
                    "velocity": 0.7874015748031497,
                    "duration": 0.34090912499999604
                },
                {
                    "name": "D#5",
                    "midi": 75,
                    "time": 130.90910399999925,
                    "velocity": 0.7874015748031497,
                    "duration": 0.34090912499999604
                },
                {
                    "name": "B4",
                    "midi": 71,
                    "time": 131.36364949999924,
                    "velocity": 0.7874015748031497,
                    "duration": 0.34090912499999604
                },
                {
                    "name": "D4",
                    "midi": 62,
                    "time": 131.36364949999924,
                    "velocity": 0.7874015748031497,
                    "duration": 0.34090912499999604
                },
                {
                    "name": "D5",
                    "midi": 74,
                    "time": 131.36364949999924,
                    "velocity": 0.7874015748031497,
                    "duration": 0.34090912499999604
                },
                {
                    "name": "C5",
                    "midi": 72,
                    "time": 131.81819499999924,
                    "velocity": 0.7874015748031497,
                    "duration": 0.34090912499999604
                },
                {
                    "name": "D#4",
                    "midi": 63,
                    "time": 131.81819499999924,
                    "velocity": 0.7874015748031497,
                    "duration": 0.34090912499999604
                },
                {
                    "name": "D5",
                    "midi": 74,
                    "time": 132.27274049999923,
                    "velocity": 0.7874015748031497,
                    "duration": 0.34090912499999604
                },
                {
                    "name": "C5",
                    "midi": 72,
                    "time": 132.27274049999923,
                    "velocity": 0.7874015748031497,
                    "duration": 0.34090912499999604
                },
                {
                    "name": "F4",
                    "midi": 65,
                    "time": 132.27274049999923,
                    "velocity": 0.7874015748031497,
                    "duration": 0.34090912499999604
                },
                {
                    "name": "D#5",
                    "midi": 75,
                    "time": 132.72728599999922,
                    "velocity": 0.7874015748031497,
                    "duration": 0.6818182499999921
                },
                {
                    "name": "C5",
                    "midi": 72,
                    "time": 132.72728599999922,
                    "velocity": 0.7874015748031497,
                    "duration": 0.6818182499999921
                },
                {
                    "name": "G4",
                    "midi": 67,
                    "time": 132.72728599999922,
                    "velocity": 0.7874015748031497,
                    "duration": 1.0227273749999881
                },
                {
                    "name": "B4",
                    "midi": 71,
                    "time": 133.63637699999921,
                    "velocity": 0.7874015748031497,
                    "duration": 0.6818182499999921
                },
                {
                    "name": "D5",
                    "midi": 74,
                    "time": 133.63637699999921,
                    "velocity": 0.7874015748031497,
                    "duration": 0.6818182499999921
                },
                {
                    "name": "G4",
                    "midi": 67,
                    "time": 134.0909224999992,
                    "velocity": 0.7874015748031497,
                    "duration": 0.34090912499999604
                },
                {
                    "name": "C5",
                    "midi": 72,
                    "time": 134.5454679999992,
                    "velocity": 0.7874015748031497,
                    "duration": 0.34090912499999604
                },
                {
                    "name": "D#4",
                    "midi": 63,
                    "time": 134.5454679999992,
                    "velocity": 0.7874015748031497,
                    "duration": 0.34090912499999604
                },
                {
                    "name": "G4",
                    "midi": 67,
                    "time": 135.0000134999992,
                    "velocity": 0.7874015748031497,
                    "duration": 0.34090912499999604
                },
                {
                    "name": "C5",
                    "midi": 72,
                    "time": 135.4545589999992,
                    "velocity": 0.7874015748031497,
                    "duration": 0.34090912499999604
                },
                {
                    "name": "G4",
                    "midi": 67,
                    "time": 135.9091044999992,
                    "velocity": 0.7874015748031497,
                    "duration": 0.34090912499999604
                },
                {
                    "name": "C5",
                    "midi": 72,
                    "time": 136.36364999999918,
                    "velocity": 0.7874015748031497,
                    "duration": 0.34090912499999604
                },
                {
                    "name": "D#5",
                    "midi": 75,
                    "time": 136.81819549999918,
                    "velocity": 0.7874015748031497,
                    "duration": 0.34090912499999604
                },
                {
                    "name": "C5",
                    "midi": 72,
                    "time": 137.27274099999917,
                    "velocity": 0.7874015748031497,
                    "duration": 0.34090912499999604
                },
                {
                    "name": "D#5",
                    "midi": 75,
                    "time": 137.72728649999917,
                    "velocity": 0.7874015748031497,
                    "duration": 0.34090912499999604
                },
                {
                    "name": "C5",
                    "midi": 72,
                    "time": 138.18183199999916,
                    "velocity": 0.7874015748031497,
                    "duration": 0.34090912499999604
                },
                {
                    "name": "G4",
                    "midi": 67,
                    "time": 138.63637749999916,
                    "velocity": 0.7874015748031497,
                    "duration": 0.34090912499999604
                },
                {
                    "name": "G5",
                    "midi": 79,
                    "time": 138.63637749999916,
                    "velocity": 0.7874015748031497,
                    "duration": 0.34090912499999604
                },
                {
                    "name": "C5",
                    "midi": 72,
                    "time": 139.09092299999915,
                    "velocity": 0.7874015748031497,
                    "duration": 0.34090912499999604
                },
                {
                    "name": "D#5",
                    "midi": 75,
                    "time": 139.09092299999915,
                    "velocity": 0.7874015748031497,
                    "duration": 0.34090912499999604
                },
                {
                    "name": "G4",
                    "midi": 67,
                    "time": 139.54546849999915,
                    "velocity": 0.7874015748031497,
                    "duration": 0.34090912499999604
                },
                {
                    "name": "G5",
                    "midi": 79,
                    "time": 139.54546849999915,
                    "velocity": 0.7874015748031497,
                    "duration": 0.34090912499999604
                },
                {
                    "name": "C5",
                    "midi": 72,
                    "time": 140.00001399999914,
                    "velocity": 0.7874015748031497,
                    "duration": 0.34090912499999604
                },
                {
                    "name": "D#5",
                    "midi": 75,
                    "time": 140.00001399999914,
                    "velocity": 0.7874015748031497,
                    "duration": 0.34090912499999604
                },
                {
                    "name": "D#5",
                    "midi": 75,
                    "time": 140.45455949999914,
                    "velocity": 0.7874015748031497,
                    "duration": 0.34090912499999604
                },
                {
                    "name": "G5",
                    "midi": 79,
                    "time": 140.45455949999914,
                    "velocity": 0.7874015748031497,
                    "duration": 0.34090912499999604
                },
                {
                    "name": "C5",
                    "midi": 72,
                    "time": 140.90910499999913,
                    "velocity": 0.7874015748031497,
                    "duration": 0.34090912499999604
                },
                {
                    "name": "D#5",
                    "midi": 75,
                    "time": 140.90910499999913,
                    "velocity": 0.7874015748031497,
                    "duration": 0.34090912499999604
                },
                {
                    "name": "D#5",
                    "midi": 75,
                    "time": 141.36365049999912,
                    "velocity": 0.7874015748031497,
                    "duration": 0.34090912499999604
                },
                {
                    "name": "G5",
                    "midi": 79,
                    "time": 141.36365049999912,
                    "velocity": 0.7874015748031497,
                    "duration": 0.34090912499999604
                },
                {
                    "name": "D5",
                    "midi": 74,
                    "time": 141.81819599999912,
                    "velocity": 0.7874015748031497,
                    "duration": 0.34090912499999604
                },
                {
                    "name": "F5",
                    "midi": 77,
                    "time": 141.81819599999912,
                    "velocity": 0.7874015748031497,
                    "duration": 0.34090912499999604
                },
                {
                    "name": "C5",
                    "midi": 72,
                    "time": 142.2727414999991,
                    "velocity": 0.7874015748031497,
                    "duration": 0.34090912499999604
                },
                {
                    "name": "D#5",
                    "midi": 75,
                    "time": 142.2727414999991,
                    "velocity": 0.7874015748031497,
                    "duration": 0.34090912499999604
                },
                {
                    "name": "D5",
                    "midi": 74,
                    "time": 142.7272869999991,
                    "velocity": 0.7874015748031497,
                    "duration": 0.34090912499999604
                },
                {
                    "name": "F5",
                    "midi": 77,
                    "time": 142.7272869999991,
                    "velocity": 0.7874015748031497,
                    "duration": 0.34090912499999604
                },
                {
                    "name": "B4",
                    "midi": 71,
                    "time": 143.1818324999991,
                    "velocity": 0.7874015748031497,
                    "duration": 0.34090912499999604
                },
                {
                    "name": "D5",
                    "midi": 74,
                    "time": 143.1818324999991,
                    "velocity": 0.7874015748031497,
                    "duration": 0.34090912499999604
                },
                {
                    "name": "C5",
                    "midi": 72,
                    "time": 143.6363779999991,
                    "velocity": 0.7874015748031497,
                    "duration": 0.34090912499999604
                },
                {
                    "name": "D#5",
                    "midi": 75,
                    "time": 143.6363779999991,
                    "velocity": 0.7874015748031497,
                    "duration": 0.34090912499999604
                },
                {
                    "name": "B4",
                    "midi": 71,
                    "time": 144.0909234999991,
                    "velocity": 0.7874015748031497,
                    "duration": 0.34090912499999604
                },
                {
                    "name": "D5",
                    "midi": 74,
                    "time": 144.0909234999991,
                    "velocity": 0.7874015748031497,
                    "duration": 0.34090912499999604
                },
                {
                    "name": "C5",
                    "midi": 72,
                    "time": 144.5454689999991,
                    "velocity": 0.7874015748031497,
                    "duration": 0.34090912499999604
                },
                {
                    "name": "D#5",
                    "midi": 75,
                    "time": 144.5454689999991,
                    "velocity": 0.7874015748031497,
                    "duration": 0.34090912499999604
                },
                {
                    "name": "A4",
                    "midi": 69,
                    "time": 145.00001449999908,
                    "velocity": 0.7874015748031497,
                    "duration": 0.34090912499999604
                },
                {
                    "name": "C5",
                    "midi": 72,
                    "time": 145.00001449999908,
                    "velocity": 0.7874015748031497,
                    "duration": 0.34090912499999604
                },
                {
                    "name": "A#4",
                    "midi": 70,
                    "time": 145.45455999999908,
                    "velocity": 0.7874015748031497,
                    "duration": 0.34090912499999604
                },
                {
                    "name": "D5",
                    "midi": 74,
                    "time": 145.45455999999908,
                    "velocity": 0.7874015748031497,
                    "duration": 0.34090912499999604
                },
                {
                    "name": "D4",
                    "midi": 62,
                    "time": 145.90910549999907,
                    "velocity": 0.7874015748031497,
                    "duration": 0.34090912499999604
                },
                {
                    "name": "A#4",
                    "midi": 70,
                    "time": 145.90910549999907,
                    "velocity": 0.7874015748031497,
                    "duration": 0.34090912499999604
                },
                {
                    "name": "D5",
                    "midi": 74,
                    "time": 145.90910549999907,
                    "velocity": 0.7874015748031497,
                    "duration": 0.34090912499999604
                },
                {
                    "name": "G4",
                    "midi": 67,
                    "time": 146.36365099999907,
                    "velocity": 0.7874015748031497,
                    "duration": 0.34090912499999604
                },
                {
                    "name": "A#4",
                    "midi": 70,
                    "time": 146.36365099999907,
                    "velocity": 0.7874015748031497,
                    "duration": 0.34090912499999604
                },
                {
                    "name": "D4",
                    "midi": 62,
                    "time": 146.81819649999906,
                    "velocity": 0.7874015748031497,
                    "duration": 0.34090912499999604
                },
                {
                    "name": "A#4",
                    "midi": 70,
                    "time": 146.81819649999906,
                    "velocity": 0.7874015748031497,
                    "duration": 0.34090912499999604
                },
                {
                    "name": "D5",
                    "midi": 74,
                    "time": 146.81819649999906,
                    "velocity": 0.7874015748031497,
                    "duration": 0.34090912499999604
                },
                {
                    "name": "A#4",
                    "midi": 70,
                    "time": 147.27274199999906,
                    "velocity": 0.7874015748031497,
                    "duration": 0.34090912499999604
                },
                {
                    "name": "G4",
                    "midi": 67,
                    "time": 147.27274199999906,
                    "velocity": 0.7874015748031497,
                    "duration": 0.34090912499999604
                },
                {
                    "name": "F#4",
                    "midi": 66,
                    "time": 147.72728749999905,
                    "velocity": 0.7874015748031497,
                    "duration": 0.34090912499999604
                },
                {
                    "name": "D5",
                    "midi": 74,
                    "time": 147.72728749999905,
                    "velocity": 0.7874015748031497,
                    "duration": 0.34090912499999604
                },
                {
                    "name": "A#4",
                    "midi": 70,
                    "time": 147.72728749999905,
                    "velocity": 0.7874015748031497,
                    "duration": 0.34090912499999604
                },
                {
                    "name": "E5",
                    "midi": 76,
                    "time": 148.18183299999905,
                    "velocity": 0.7874015748031497,
                    "duration": 0.34090912499999604
                },
                {
                    "name": "A#4",
                    "midi": 70,
                    "time": 148.18183299999905,
                    "velocity": 0.7874015748031497,
                    "duration": 0.34090912499999604
                },
                {
                    "name": "G4",
                    "midi": 67,
                    "time": 148.18183299999905,
                    "velocity": 0.7874015748031497,
                    "duration": 0.34090912499999604
                },
                {
                    "name": "F#5",
                    "midi": 78,
                    "time": 148.63637849999904,
                    "velocity": 0.7874015748031497,
                    "duration": 0.34090912499999604
                },
                {
                    "name": "D5",
                    "midi": 74,
                    "time": 148.63637849999904,
                    "velocity": 0.7874015748031497,
                    "duration": 0.34090912499999604
                },
                {
                    "name": "A#4",
                    "midi": 70,
                    "time": 148.63637849999904,
                    "velocity": 0.7874015748031497,
                    "duration": 0.34090912499999604
                },
                {
                    "name": "G5",
                    "midi": 79,
                    "time": 149.09092399999903,
                    "velocity": 0.7874015748031497,
                    "duration": 0.34090912499999604
                },
                {
                    "name": "A#4",
                    "midi": 70,
                    "time": 149.09092399999903,
                    "velocity": 0.7874015748031497,
                    "duration": 0.34090912499999604
                },
                {
                    "name": "G4",
                    "midi": 67,
                    "time": 149.09092399999903,
                    "velocity": 0.7874015748031497,
                    "duration": 0.34090912499999604
                },
                {
                    "name": "G4",
                    "midi": 67,
                    "time": 149.54546949999903,
                    "velocity": 0.7874015748031497,
                    "duration": 0.34090912499999604
                },
                {
                    "name": "D5",
                    "midi": 74,
                    "time": 149.54546949999903,
                    "velocity": 0.7874015748031497,
                    "duration": 0.34090912499999604
                },
                {
                    "name": "G5",
                    "midi": 79,
                    "time": 150.00001499999902,
                    "velocity": 0.7874015748031497,
                    "duration": 0.34090912499999604
                },
                {
                    "name": "A#4",
                    "midi": 70,
                    "time": 150.00001499999902,
                    "velocity": 0.7874015748031497,
                    "duration": 0.34090912499999604
                },
                {
                    "name": "G4",
                    "midi": 67,
                    "time": 150.00001499999902,
                    "velocity": 0.7874015748031497,
                    "duration": 0.34090912499999604
                },
                {
                    "name": "D5",
                    "midi": 74,
                    "time": 150.45456049999902,
                    "velocity": 0.7874015748031497,
                    "duration": 0.34090912499999604
                },
                {
                    "name": "G4",
                    "midi": 67,
                    "time": 150.45456049999902,
                    "velocity": 0.7874015748031497,
                    "duration": 0.34090912499999604
                },
                {
                    "name": "G4",
                    "midi": 67,
                    "time": 150.909105999999,
                    "velocity": 0.7874015748031497,
                    "duration": 0.34090912499999604
                },
                {
                    "name": "A#4",
                    "midi": 70,
                    "time": 150.909105999999,
                    "velocity": 0.7874015748031497,
                    "duration": 0.34090912499999604
                },
                {
                    "name": "G5",
                    "midi": 79,
                    "time": 150.909105999999,
                    "velocity": 0.7874015748031497,
                    "duration": 0.34090912499999604
                },
                {
                    "name": "F#5",
                    "midi": 78,
                    "time": 151.363651499999,
                    "velocity": 0.7874015748031497,
                    "duration": 0.1742424416666779
                },
                {
                    "name": "D5",
                    "midi": 74,
                    "time": 151.363651499999,
                    "velocity": 0.7874015748031497,
                    "duration": 0.1742424416666779
                },
                {
                    "name": "A#5",
                    "midi": 82,
                    "time": 151.363651499999,
                    "velocity": 0.7874015748031497,
                    "duration": 0.34090912499999604
                },
                {
                    "name": "E5",
                    "midi": 76,
                    "time": 151.590924249999,
                    "velocity": 0.7874015748031497,
                    "duration": 0.1742424416666779
                },
                {
                    "name": "D5",
                    "midi": 74,
                    "time": 151.818196999999,
                    "velocity": 0.7874015748031497,
                    "duration": 0.34090912499999604
                },
                {
                    "name": "A#4",
                    "midi": 70,
                    "time": 151.818196999999,
                    "velocity": 0.7874015748031497,
                    "duration": 0.34090912499999604
                },
                {
                    "name": "G5",
                    "midi": 79,
                    "time": 151.818196999999,
                    "velocity": 0.7874015748031497,
                    "duration": 0.34090912499999604
                },
                {
                    "name": "D5",
                    "midi": 74,
                    "time": 152.272742499999,
                    "velocity": 0.7874015748031497,
                    "duration": 0.34090912499999604
                },
                {
                    "name": "A#5",
                    "midi": 82,
                    "time": 152.272742499999,
                    "velocity": 0.7874015748031497,
                    "duration": 0.34090912499999604
                },
                {
                    "name": "G5",
                    "midi": 79,
                    "time": 152.727287999999,
                    "velocity": 0.7874015748031497,
                    "duration": 0.34090912499999604
                },
                {
                    "name": "A#4",
                    "midi": 70,
                    "time": 152.727287999999,
                    "velocity": 0.7874015748031497,
                    "duration": 0.34090912499999604
                },
                {
                    "name": "B4",
                    "midi": 71,
                    "time": 153.181833499999,
                    "velocity": 0.7874015748031497,
                    "duration": 0.34090912499999604
                },
                {
                    "name": "F5",
                    "midi": 77,
                    "time": 153.181833499999,
                    "velocity": 0.7874015748031497,
                    "duration": 0.34090912499999604
                },
                {
                    "name": "D5",
                    "midi": 74,
                    "time": 153.181833499999,
                    "velocity": 0.7874015748031497,
                    "duration": 0.34090912499999604
                },
                {
                    "name": "G4",
                    "midi": 67,
                    "time": 153.181833499999,
                    "velocity": 0.7874015748031497,
                    "duration": 0.34090912499999604
                },
                {
                    "name": "G4",
                    "midi": 67,
                    "time": 153.63637899999898,
                    "velocity": 0.7874015748031497,
                    "duration": 0.34090912499999604
                },
                {
                    "name": "C5",
                    "midi": 72,
                    "time": 153.63637899999898,
                    "velocity": 0.7874015748031497,
                    "duration": 0.34090912499999604
                },
                {
                    "name": "D#5",
                    "midi": 75,
                    "time": 153.63637899999898,
                    "velocity": 0.7874015748031497,
                    "duration": 0.34090912499999604
                },
                {
                    "name": "B4",
                    "midi": 71,
                    "time": 154.09092449999898,
                    "velocity": 0.7874015748031497,
                    "duration": 0.34090912499999604
                },
                {
                    "name": "G4",
                    "midi": 67,
                    "time": 154.09092449999898,
                    "velocity": 0.7874015748031497,
                    "duration": 0.34090912499999604
                },
                {
                    "name": "D5",
                    "midi": 74,
                    "time": 154.09092449999898,
                    "velocity": 0.7874015748031497,
                    "duration": 0.34090912499999604
                },
                {
                    "name": "D#5",
                    "midi": 75,
                    "time": 154.54546999999897,
                    "velocity": 0.7874015748031497,
                    "duration": 0.34090912499999604
                },
                {
                    "name": "C5",
                    "midi": 72,
                    "time": 154.54546999999897,
                    "velocity": 0.7874015748031497,
                    "duration": 0.34090912499999604
                },
                {
                    "name": "G4",
                    "midi": 67,
                    "time": 154.54546999999897,
                    "velocity": 0.7874015748031497,
                    "duration": 0.34090912499999604
                },
                {
                    "name": "G5",
                    "midi": 79,
                    "time": 155.00001549999897,
                    "velocity": 0.7874015748031497,
                    "duration": 0.34090912499999604
                },
                {
                    "name": "G4",
                    "midi": 67,
                    "time": 155.00001549999897,
                    "velocity": 0.7874015748031497,
                    "duration": 0.34090912499999604
                },
                {
                    "name": "D#5",
                    "midi": 75,
                    "time": 155.45456099999896,
                    "velocity": 0.7874015748031497,
                    "duration": 0.34090912499999604
                },
                {
                    "name": "C5",
                    "midi": 72,
                    "time": 155.45456099999896,
                    "velocity": 0.7874015748031497,
                    "duration": 0.34090912499999604
                },
                {
                    "name": "G4",
                    "midi": 67,
                    "time": 155.45456099999896,
                    "velocity": 0.7874015748031497,
                    "duration": 0.34090912499999604
                },
                {
                    "name": "G5",
                    "midi": 79,
                    "time": 155.90910649999896,
                    "velocity": 0.7874015748031497,
                    "duration": 0.34090912499999604
                },
                {
                    "name": "G4",
                    "midi": 67,
                    "time": 155.90910649999896,
                    "velocity": 0.7874015748031497,
                    "duration": 0.34090912499999604
                },
                {
                    "name": "C5",
                    "midi": 72,
                    "time": 156.36365199999895,
                    "velocity": 0.7874015748031497,
                    "duration": 0.34090912499999604
                },
                {
                    "name": "G4",
                    "midi": 67,
                    "time": 156.36365199999895,
                    "velocity": 0.7874015748031497,
                    "duration": 0.34090912499999604
                },
                {
                    "name": "G5",
                    "midi": 79,
                    "time": 156.81819749999894,
                    "velocity": 0.7874015748031497,
                    "duration": 0.34090912499999604
                },
                {
                    "name": "D#5",
                    "midi": 75,
                    "time": 156.81819749999894,
                    "velocity": 0.7874015748031497,
                    "duration": 0.34090912499999604
                },
                {
                    "name": "C5",
                    "midi": 72,
                    "time": 156.81819749999894,
                    "velocity": 0.7874015748031497,
                    "duration": 0.34090912499999604
                },
                {
                    "name": "G#5",
                    "midi": 80,
                    "time": 157.27274299999894,
                    "velocity": 0.7874015748031497,
                    "duration": 0.34090912499999604
                },
                {
                    "name": "F5",
                    "midi": 77,
                    "time": 157.27274299999894,
                    "velocity": 0.7874015748031497,
                    "duration": 0.34090912499999604
                },
                {
                    "name": "C5",
                    "midi": 72,
                    "time": 157.27274299999894,
                    "velocity": 0.7874015748031497,
                    "duration": 0.34090912499999604
                },
                {
                    "name": "G5",
                    "midi": 79,
                    "time": 157.72728849999893,
                    "velocity": 0.7874015748031497,
                    "duration": 0.34090912499999604
                },
                {
                    "name": "D#5",
                    "midi": 75,
                    "time": 157.72728849999893,
                    "velocity": 0.7874015748031497,
                    "duration": 0.34090912499999604
                },
                {
                    "name": "C5",
                    "midi": 72,
                    "time": 157.72728849999893,
                    "velocity": 0.7874015748031497,
                    "duration": 0.34090912499999604
                },
                {
                    "name": "F5",
                    "midi": 77,
                    "time": 158.18183399999893,
                    "velocity": 0.7874015748031497,
                    "duration": 0.34090912499999604
                },
                {
                    "name": "D5",
                    "midi": 74,
                    "time": 158.18183399999893,
                    "velocity": 0.7874015748031497,
                    "duration": 0.34090912499999604
                },
                {
                    "name": "G#4",
                    "midi": 68,
                    "time": 158.18183399999893,
                    "velocity": 0.7874015748031497,
                    "duration": 0.34090912499999604
                },
                {
                    "name": "D#5",
                    "midi": 75,
                    "time": 158.63637949999892,
                    "velocity": 0.7874015748031497,
                    "duration": 0.34090912499999604
                },
                {
                    "name": "C5",
                    "midi": 72,
                    "time": 158.63637949999892,
                    "velocity": 0.7874015748031497,
                    "duration": 0.34090912499999604
                },
                {
                    "name": "B4",
                    "midi": 71,
                    "time": 159.09092499999892,
                    "velocity": 0.7874015748031497,
                    "duration": 0.34090912499999604
                },
                {
                    "name": "D5",
                    "midi": 74,
                    "time": 159.09092499999892,
                    "velocity": 0.7874015748031497,
                    "duration": 0.34090912499999604
                },
                {
                    "name": "F4",
                    "midi": 65,
                    "time": 159.09092499999892,
                    "velocity": 0.7874015748031497,
                    "duration": 0.34090912499999604
                },
                {
                    "name": "C5",
                    "midi": 72,
                    "time": 159.5454704999989,
                    "velocity": 0.7874015748031497,
                    "duration": 0.34090912499999604
                },
                {
                    "name": "F4",
                    "midi": 65,
                    "time": 159.5454704999989,
                    "velocity": 0.7874015748031497,
                    "duration": 0.34090912499999604
                },
                {
                    "name": "B4",
                    "midi": 71,
                    "time": 160.0000159999989,
                    "velocity": 0.7874015748031497,
                    "duration": 0.34090912499999604
                },
                {
                    "name": "F4",
                    "midi": 65,
                    "time": 160.0000159999989,
                    "velocity": 0.7874015748031497,
                    "duration": 0.34090912499999604
                },
                {
                    "name": "D4",
                    "midi": 62,
                    "time": 160.0000159999989,
                    "velocity": 0.7874015748031497,
                    "duration": 0.34090912499999604
                },
                {
                    "name": "B4",
                    "midi": 71,
                    "time": 160.4545614999989,
                    "velocity": 0.7874015748031497,
                    "duration": 0.34090912499999604
                },
                {
                    "name": "D5",
                    "midi": 74,
                    "time": 160.4545614999989,
                    "velocity": 0.7874015748031497,
                    "duration": 0.34090912499999604
                },
                {
                    "name": "D4",
                    "midi": 62,
                    "time": 160.4545614999989,
                    "velocity": 0.7874015748031497,
                    "duration": 0.34090912499999604
                },
                {
                    "name": "B4",
                    "midi": 71,
                    "time": 160.9091069999989,
                    "velocity": 0.7874015748031497,
                    "duration": 0.34090912499999604
                },
                {
                    "name": "G4",
                    "midi": 67,
                    "time": 160.9091069999989,
                    "velocity": 0.7874015748031497,
                    "duration": 0.34090912499999604
                },
                {
                    "name": "D#4",
                    "midi": 63,
                    "time": 160.9091069999989,
                    "velocity": 0.7874015748031497,
                    "duration": 0.34090912499999604
                },
                {
                    "name": "B4",
                    "midi": 71,
                    "time": 161.3636524999989,
                    "velocity": 0.7874015748031497,
                    "duration": 0.34090912499999604
                },
                {
                    "name": "D5",
                    "midi": 74,
                    "time": 161.3636524999989,
                    "velocity": 0.7874015748031497,
                    "duration": 0.34090912499999604
                },
                {
                    "name": "D4",
                    "midi": 62,
                    "time": 161.3636524999989,
                    "velocity": 0.7874015748031497,
                    "duration": 0.34090912499999604
                },
                {
                    "name": "B4",
                    "midi": 71,
                    "time": 161.8181979999989,
                    "velocity": 0.7874015748031497,
                    "duration": 0.34090912499999604
                },
                {
                    "name": "G4",
                    "midi": 67,
                    "time": 161.8181979999989,
                    "velocity": 0.7874015748031497,
                    "duration": 0.34090912499999604
                },
                {
                    "name": "D4",
                    "midi": 62,
                    "time": 161.8181979999989,
                    "velocity": 0.7874015748031497,
                    "duration": 0.34090912499999604
                },
                {
                    "name": "B4",
                    "midi": 71,
                    "time": 162.27274349999888,
                    "velocity": 0.7874015748031497,
                    "duration": 0.34090912499999604
                },
                {
                    "name": "G4",
                    "midi": 67,
                    "time": 162.27274349999888,
                    "velocity": 0.7874015748031497,
                    "duration": 0.34090912499999604
                },
                {
                    "name": "A4",
                    "midi": 69,
                    "time": 162.72728899999888,
                    "velocity": 0.7874015748031497,
                    "duration": 0.34090912499999604
                },
                {
                    "name": "C5",
                    "midi": 72,
                    "time": 162.72728899999888,
                    "velocity": 0.7874015748031497,
                    "duration": 0.34090912499999604
                },
                {
                    "name": "B4",
                    "midi": 71,
                    "time": 163.18183449999887,
                    "velocity": 0.7874015748031497,
                    "duration": 0.34090912499999604
                },
                {
                    "name": "D5",
                    "midi": 74,
                    "time": 163.18183449999887,
                    "velocity": 0.7874015748031497,
                    "duration": 0.34090912499999604
                },
                {
                    "name": "C5",
                    "midi": 72,
                    "time": 163.63637999999887,
                    "velocity": 0.7874015748031497,
                    "duration": 0.34090912499999604
                },
                {
                    "name": "D#5",
                    "midi": 75,
                    "time": 163.63637999999887,
                    "velocity": 0.7874015748031497,
                    "duration": 0.34090912499999604
                },
                {
                    "name": "B4",
                    "midi": 71,
                    "time": 164.09092549999886,
                    "velocity": 0.7874015748031497,
                    "duration": 0.34090912499999604
                },
                {
                    "name": "D5",
                    "midi": 74,
                    "time": 164.09092549999886,
                    "velocity": 0.7874015748031497,
                    "duration": 0.34090912499999604
                },
                {
                    "name": "C5",
                    "midi": 72,
                    "time": 164.54547099999886,
                    "velocity": 0.7874015748031497,
                    "duration": 0.34090912499999604
                },
                {
                    "name": "D#5",
                    "midi": 75,
                    "time": 164.54547099999886,
                    "velocity": 0.7874015748031497,
                    "duration": 0.34090912499999604
                },
                {
                    "name": "D5",
                    "midi": 74,
                    "time": 165.00001649999885,
                    "velocity": 0.7874015748031497,
                    "duration": 0.34090912499999604
                },
                {
                    "name": "F5",
                    "midi": 77,
                    "time": 165.00001649999885,
                    "velocity": 0.7874015748031497,
                    "duration": 0.34090912499999604
                },
                {
                    "name": "D#5",
                    "midi": 75,
                    "time": 165.45456199999884,
                    "velocity": 0.7874015748031497,
                    "duration": 0.34090912499999604
                },
                {
                    "name": "G5",
                    "midi": 79,
                    "time": 165.45456199999884,
                    "velocity": 0.7874015748031497,
                    "duration": 0.34090912499999604
                },
                {
                    "name": "C5",
                    "midi": 72,
                    "time": 165.90910749999884,
                    "velocity": 0.7874015748031497,
                    "duration": 0.34090912499999604
                },
                {
                    "name": "G5",
                    "midi": 79,
                    "time": 165.90910749999884,
                    "velocity": 0.7874015748031497,
                    "duration": 0.34090912499999604
                },
                {
                    "name": "D#5",
                    "midi": 75,
                    "time": 166.36365299999883,
                    "velocity": 0.7874015748031497,
                    "duration": 0.34090912499999604
                },
                {
                    "name": "G5",
                    "midi": 79,
                    "time": 166.36365299999883,
                    "velocity": 0.7874015748031497,
                    "duration": 0.34090912499999604
                },
                {
                    "name": "C5",
                    "midi": 72,
                    "time": 166.81819849999883,
                    "velocity": 0.7874015748031497,
                    "duration": 0.34090912499999604
                },
                {
                    "name": "G5",
                    "midi": 79,
                    "time": 166.81819849999883,
                    "velocity": 0.7874015748031497,
                    "duration": 0.34090912499999604
                },
                {
                    "name": "D#5",
                    "midi": 75,
                    "time": 167.27274399999882,
                    "velocity": 0.7874015748031497,
                    "duration": 0.34090912499999604
                },
                {
                    "name": "G#5",
                    "midi": 80,
                    "time": 167.27274399999882,
                    "velocity": 0.7874015748031497,
                    "duration": 0.34090912499999604
                },
                {
                    "name": "F5",
                    "midi": 77,
                    "time": 167.72728949999882,
                    "velocity": 0.7874015748031497,
                    "duration": 0.1742424416666779
                },
                {
                    "name": "G#5",
                    "midi": 80,
                    "time": 167.72728949999882,
                    "velocity": 0.7874015748031497,
                    "duration": 0.1742424416666779
                },
                {
                    "name": "D#5",
                    "midi": 75,
                    "time": 167.95456224999882,
                    "velocity": 0.7874015748031497,
                    "duration": 0.1742424416666779
                },
                {
                    "name": "G5",
                    "midi": 79,
                    "time": 167.95456224999882,
                    "velocity": 0.7874015748031497,
                    "duration": 0.1742424416666779
                },
                {
                    "name": "D5",
                    "midi": 74,
                    "time": 168.1818349999988,
                    "velocity": 0.7874015748031497,
                    "duration": 0.34090912499999604
                },
                {
                    "name": "F5",
                    "midi": 77,
                    "time": 168.1818349999988,
                    "velocity": 0.7874015748031497,
                    "duration": 0.34090912499999604
                },
                {
                    "name": "C5",
                    "midi": 72,
                    "time": 168.6363804999988,
                    "velocity": 0.7874015748031497,
                    "duration": 0.34090912499999604
                },
                {
                    "name": "D#5",
                    "midi": 75,
                    "time": 168.6363804999988,
                    "velocity": 0.7874015748031497,
                    "duration": 0.34090912499999604
                },
                {
                    "name": "A#4",
                    "midi": 70,
                    "time": 169.0909259999988,
                    "velocity": 0.7874015748031497,
                    "duration": 0.34090912499999604
                },
                {
                    "name": "D5",
                    "midi": 74,
                    "time": 169.0909259999988,
                    "velocity": 0.7874015748031497,
                    "duration": 0.34090912499999604
                },
                {
                    "name": "F5",
                    "midi": 77,
                    "time": 169.5454714999988,
                    "velocity": 0.7874015748031497,
                    "duration": 0.34090912499999604
                },
                {
                    "name": "A#4",
                    "midi": 70,
                    "time": 169.5454714999988,
                    "velocity": 0.7874015748031497,
                    "duration": 0.34090912499999604
                },
                {
                    "name": "A#5",
                    "midi": 82,
                    "time": 170.0000169999988,
                    "velocity": 0.7874015748031497,
                    "duration": 0.34090912499999604
                },
                {
                    "name": "D5",
                    "midi": 74,
                    "time": 170.0000169999988,
                    "velocity": 0.7874015748031497,
                    "duration": 0.34090912499999604
                },
                {
                    "name": "F5",
                    "midi": 77,
                    "time": 170.4545624999988,
                    "velocity": 0.7874015748031497,
                    "duration": 0.34090912499999604
                },
                {
                    "name": "A#4",
                    "midi": 70,
                    "time": 170.4545624999988,
                    "velocity": 0.7874015748031497,
                    "duration": 0.34090912499999604
                },
                {
                    "name": "A#5",
                    "midi": 82,
                    "time": 170.90910799999878,
                    "velocity": 0.7874015748031497,
                    "duration": 0.34090912499999604
                },
                {
                    "name": "D5",
                    "midi": 74,
                    "time": 170.90910799999878,
                    "velocity": 0.7874015748031497,
                    "duration": 0.34090912499999604
                },
                {
                    "name": "A#4",
                    "midi": 70,
                    "time": 171.36365349999878,
                    "velocity": 0.7874015748031497,
                    "duration": 0.34090912499999604
                },
                {
                    "name": "F5",
                    "midi": 77,
                    "time": 171.36365349999878,
                    "velocity": 0.7874015748031497,
                    "duration": 0.34090912499999604
                },
                {
                    "name": "G#5",
                    "midi": 80,
                    "time": 171.36365349999878,
                    "velocity": 0.7874015748031497,
                    "duration": 0.34090912499999604
                },
                {
                    "name": "A#4",
                    "midi": 70,
                    "time": 171.81819899999877,
                    "velocity": 0.7874015748031497,
                    "duration": 0.34090912499999604
                },
                {
                    "name": "D#5",
                    "midi": 75,
                    "time": 171.81819899999877,
                    "velocity": 0.7874015748031497,
                    "duration": 0.34090912499999604
                },
                {
                    "name": "G5",
                    "midi": 79,
                    "time": 171.81819899999877,
                    "velocity": 0.7874015748031497,
                    "duration": 0.34090912499999604
                },
                {
                    "name": "A#4",
                    "midi": 70,
                    "time": 172.27274449999877,
                    "velocity": 0.7874015748031497,
                    "duration": 0.34090912499999604
                },
                {
                    "name": "D5",
                    "midi": 74,
                    "time": 172.27274449999877,
                    "velocity": 0.7874015748031497,
                    "duration": 0.34090912499999604
                },
                {
                    "name": "F5",
                    "midi": 77,
                    "time": 172.27274449999877,
                    "velocity": 0.7874015748031497,
                    "duration": 0.34090912499999604
                },
                {
                    "name": "A#4",
                    "midi": 70,
                    "time": 172.72728999999876,
                    "velocity": 0.7874015748031497,
                    "duration": 0.34090912499999604
                },
                {
                    "name": "D#5",
                    "midi": 75,
                    "time": 172.72728999999876,
                    "velocity": 0.7874015748031497,
                    "duration": 0.34090912499999604
                },
                {
                    "name": "G5",
                    "midi": 79,
                    "time": 172.72728999999876,
                    "velocity": 0.7874015748031497,
                    "duration": 0.34090912499999604
                },
                {
                    "name": "D#4",
                    "midi": 63,
                    "time": 173.18183549999875,
                    "velocity": 0.7874015748031497,
                    "duration": 0.34090912499999604
                },
                {
                    "name": "G4",
                    "midi": 67,
                    "time": 173.18183549999875,
                    "velocity": 0.7874015748031497,
                    "duration": 0.34090912499999604
                },
                {
                    "name": "A#4",
                    "midi": 70,
                    "time": 173.18183549999875,
                    "velocity": 0.7874015748031497,
                    "duration": 0.34090912499999604
                },
                {
                    "name": "G4",
                    "midi": 67,
                    "time": 173.63638099999875,
                    "velocity": 0.7874015748031497,
                    "duration": 0.34090912499999604
                },
                {
                    "name": "A#4",
                    "midi": 70,
                    "time": 173.63638099999875,
                    "velocity": 0.7874015748031497,
                    "duration": 0.34090912499999604
                },
                {
                    "name": "D#5",
                    "midi": 75,
                    "time": 173.63638099999875,
                    "velocity": 0.7874015748031497,
                    "duration": 0.34090912499999604
                },
                {
                    "name": "D#4",
                    "midi": 63,
                    "time": 174.09092649999874,
                    "velocity": 0.7874015748031497,
                    "duration": 0.34090912499999604
                },
                {
                    "name": "G4",
                    "midi": 67,
                    "time": 174.09092649999874,
                    "velocity": 0.7874015748031497,
                    "duration": 0.34090912499999604
                },
                {
                    "name": "A#4",
                    "midi": 70,
                    "time": 174.09092649999874,
                    "velocity": 0.7874015748031497,
                    "duration": 0.34090912499999604
                },
                {
                    "name": "G4",
                    "midi": 67,
                    "time": 174.54547199999874,
                    "velocity": 0.7874015748031497,
                    "duration": 0.34090912499999604
                },
                {
                    "name": "A#4",
                    "midi": 70,
                    "time": 174.54547199999874,
                    "velocity": 0.7874015748031497,
                    "duration": 0.34090912499999604
                },
                {
                    "name": "D#5",
                    "midi": 75,
                    "time": 174.54547199999874,
                    "velocity": 0.7874015748031497,
                    "duration": 0.34090912499999604
                },
                {
                    "name": "F4",
                    "midi": 65,
                    "time": 175.00001749999873,
                    "velocity": 0.7874015748031497,
                    "duration": 0.34090912499999604
                },
                {
                    "name": "G#4",
                    "midi": 68,
                    "time": 175.00001749999873,
                    "velocity": 0.7874015748031497,
                    "duration": 0.34090912499999604
                },
                {
                    "name": "D5",
                    "midi": 74,
                    "time": 175.00001749999873,
                    "velocity": 0.7874015748031497,
                    "duration": 0.34090912499999604
                },
                {
                    "name": "D#4",
                    "midi": 63,
                    "time": 175.45456299999873,
                    "velocity": 0.7874015748031497,
                    "duration": 0.34090912499999604
                },
                {
                    "name": "A#4",
                    "midi": 70,
                    "time": 175.45456299999873,
                    "velocity": 0.7874015748031497,
                    "duration": 0.34090912499999604
                },
                {
                    "name": "C5",
                    "midi": 72,
                    "time": 175.45456299999873,
                    "velocity": 0.7874015748031497,
                    "duration": 0.34090912499999604
                },
                {
                    "name": "D#4",
                    "midi": 63,
                    "time": 175.90910849999872,
                    "velocity": 0.7874015748031497,
                    "duration": 0.34090912499999604
                },
                {
                    "name": "G4",
                    "midi": 67,
                    "time": 175.90910849999872,
                    "velocity": 0.7874015748031497,
                    "duration": 0.34090912499999604
                },
                {
                    "name": "A#4",
                    "midi": 70,
                    "time": 175.90910849999872,
                    "velocity": 0.7874015748031497,
                    "duration": 0.34090912499999604
                },
                {
                    "name": "D#4",
                    "midi": 63,
                    "time": 176.36365399999872,
                    "velocity": 0.7874015748031497,
                    "duration": 0.34090912499999604
                },
                {
                    "name": "G#4",
                    "midi": 68,
                    "time": 176.36365399999872,
                    "velocity": 0.7874015748031497,
                    "duration": 0.34090912499999604
                },
                {
                    "name": "C5",
                    "midi": 72,
                    "time": 176.36365399999872,
                    "velocity": 0.7874015748031497,
                    "duration": 0.34090912499999604
                },
                {
                    "name": "D#4",
                    "midi": 63,
                    "time": 176.8181994999987,
                    "velocity": 0.7874015748031497,
                    "duration": 0.34090912499999604
                },
                {
                    "name": "G#4",
                    "midi": 68,
                    "time": 176.8181994999987,
                    "velocity": 0.7874015748031497,
                    "duration": 0.34090912499999604
                },
                {
                    "name": "C5",
                    "midi": 72,
                    "time": 176.8181994999987,
                    "velocity": 0.7874015748031497,
                    "duration": 0.34090912499999604
                },
                {
                    "name": "G#4",
                    "midi": 68,
                    "time": 177.2727449999987,
                    "velocity": 0.7874015748031497,
                    "duration": 0.34090912499999604
                },
                {
                    "name": "C5",
                    "midi": 72,
                    "time": 177.2727449999987,
                    "velocity": 0.7874015748031497,
                    "duration": 0.34090912499999604
                },
                {
                    "name": "F5",
                    "midi": 77,
                    "time": 177.2727449999987,
                    "velocity": 0.7874015748031497,
                    "duration": 0.34090912499999604
                },
                {
                    "name": "D#4",
                    "midi": 63,
                    "time": 177.7272904999987,
                    "velocity": 0.7874015748031497,
                    "duration": 0.34090912499999604
                },
                {
                    "name": "G#4",
                    "midi": 68,
                    "time": 177.7272904999987,
                    "velocity": 0.7874015748031497,
                    "duration": 0.34090912499999604
                },
                {
                    "name": "C5",
                    "midi": 72,
                    "time": 177.7272904999987,
                    "velocity": 0.7874015748031497,
                    "duration": 0.34090912499999604
                },
                {
                    "name": "G#4",
                    "midi": 68,
                    "time": 178.1818359999987,
                    "velocity": 0.7874015748031497,
                    "duration": 0.34090912499999604
                },
                {
                    "name": "C5",
                    "midi": 72,
                    "time": 178.1818359999987,
                    "velocity": 0.7874015748031497,
                    "duration": 0.34090912499999604
                },
                {
                    "name": "F5",
                    "midi": 77,
                    "time": 178.1818359999987,
                    "velocity": 0.7874015748031497,
                    "duration": 0.34090912499999604
                },
                {
                    "name": "C5",
                    "midi": 72,
                    "time": 178.6363814999987,
                    "velocity": 0.7874015748031497,
                    "duration": 0.34090912499999604
                },
                {
                    "name": "F5",
                    "midi": 77,
                    "time": 178.6363814999987,
                    "velocity": 0.7874015748031497,
                    "duration": 0.34090912499999604
                },
                {
                    "name": "G#5",
                    "midi": 80,
                    "time": 178.6363814999987,
                    "velocity": 0.7874015748031497,
                    "duration": 0.34090912499999604
                },
                {
                    "name": "G#4",
                    "midi": 68,
                    "time": 179.0909269999987,
                    "velocity": 0.7874015748031497,
                    "duration": 0.34090912499999604
                },
                {
                    "name": "C5",
                    "midi": 72,
                    "time": 179.0909269999987,
                    "velocity": 0.7874015748031497,
                    "duration": 0.34090912499999604
                },
                {
                    "name": "F5",
                    "midi": 77,
                    "time": 179.0909269999987,
                    "velocity": 0.7874015748031497,
                    "duration": 0.34090912499999604
                },
                {
                    "name": "C5",
                    "midi": 72,
                    "time": 179.54547249999868,
                    "velocity": 0.7874015748031497,
                    "duration": 0.34090912499999604
                },
                {
                    "name": "F5",
                    "midi": 77,
                    "time": 179.54547249999868,
                    "velocity": 0.7874015748031497,
                    "duration": 0.34090912499999604
                },
                {
                    "name": "G#5",
                    "midi": 80,
                    "time": 179.54547249999868,
                    "velocity": 0.7874015748031497,
                    "duration": 0.34090912499999604
                },
                {
                    "name": "G#4",
                    "midi": 68,
                    "time": 180.00001799999868,
                    "velocity": 0.7874015748031497,
                    "duration": 0.34090912499999604
                },
                {
                    "name": "C5",
                    "midi": 72,
                    "time": 180.00001799999868,
                    "velocity": 0.7874015748031497,
                    "duration": 0.34090912499999604
                },
                {
                    "name": "F5",
                    "midi": 77,
                    "time": 180.00001799999868,
                    "velocity": 0.7874015748031497,
                    "duration": 0.34090912499999604
                },
                {
                    "name": "C5",
                    "midi": 72,
                    "time": 180.45456349999867,
                    "velocity": 0.7874015748031497,
                    "duration": 0.34090912499999604
                },
                {
                    "name": "F5",
                    "midi": 77,
                    "time": 180.45456349999867,
                    "velocity": 0.7874015748031497,
                    "duration": 0.34090912499999604
                },
                {
                    "name": "G#5",
                    "midi": 80,
                    "time": 180.45456349999867,
                    "velocity": 0.7874015748031497,
                    "duration": 0.34090912499999604
                },
                {
                    "name": "G#4",
                    "midi": 68,
                    "time": 180.90910899999867,
                    "velocity": 0.7874015748031497,
                    "duration": 0.34090912499999604
                },
                {
                    "name": "C5",
                    "midi": 72,
                    "time": 180.90910899999867,
                    "velocity": 0.7874015748031497,
                    "duration": 0.34090912499999604
                },
                {
                    "name": "F5",
                    "midi": 77,
                    "time": 180.90910899999867,
                    "velocity": 0.7874015748031497,
                    "duration": 0.34090912499999604
                },
                {
                    "name": "C5",
                    "midi": 72,
                    "time": 181.36365449999866,
                    "velocity": 0.7874015748031497,
                    "duration": 0.34090912499999604
                },
                {
                    "name": "F5",
                    "midi": 77,
                    "time": 181.36365449999866,
                    "velocity": 0.7874015748031497,
                    "duration": 0.34090912499999604
                },
                {
                    "name": "G#5",
                    "midi": 80,
                    "time": 181.36365449999866,
                    "velocity": 0.7874015748031497,
                    "duration": 0.34090912499999604
                },
                {
                    "name": "F4",
                    "midi": 65,
                    "time": 181.81819999999865,
                    "velocity": 0.7874015748031497,
                    "duration": 0.34090912499999604
                },
                {
                    "name": "C5",
                    "midi": 72,
                    "time": 181.81819999999865,
                    "velocity": 0.7874015748031497,
                    "duration": 0.34090912499999604
                },
                {
                    "name": "D5",
                    "midi": 74,
                    "time": 181.81819999999865,
                    "velocity": 0.7874015748031497,
                    "duration": 0.34090912499999604
                },
                {
                    "name": "A#4",
                    "midi": 70,
                    "time": 182.27274549999865,
                    "velocity": 0.7874015748031497,
                    "duration": 0.34090912499999604
                },
                {
                    "name": "D5",
                    "midi": 74,
                    "time": 182.27274549999865,
                    "velocity": 0.7874015748031497,
                    "duration": 0.34090912499999604
                },
                {
                    "name": "G5",
                    "midi": 79,
                    "time": 182.27274549999865,
                    "velocity": 0.7874015748031497,
                    "duration": 0.34090912499999604
                },
                {
                    "name": "G4",
                    "midi": 67,
                    "time": 182.72729099999864,
                    "velocity": 0.7874015748031497,
                    "duration": 0.34090912499999604
                },
                {
                    "name": "D5",
                    "midi": 74,
                    "time": 182.72729099999864,
                    "velocity": 0.7874015748031497,
                    "duration": 0.34090912499999604
                },
                {
                    "name": "G5",
                    "midi": 79,
                    "time": 183.18183649999864,
                    "velocity": 0.7874015748031497,
                    "duration": 0.34090912499999604
                },
                {
                    "name": "D5",
                    "midi": 74,
                    "time": 183.18183649999864,
                    "velocity": 0.7874015748031497,
                    "duration": 0.34090912499999604
                },
                {
                    "name": "G4",
                    "midi": 67,
                    "time": 183.18183649999864,
                    "velocity": 0.7874015748031497,
                    "duration": 0.34090912499999604
                },
                {
                    "name": "C5",
                    "midi": 72,
                    "time": 183.63638199999863,
                    "velocity": 0.7874015748031497,
                    "duration": 0.34090912499999604
                },
                {
                    "name": "G4",
                    "midi": 67,
                    "time": 183.63638199999863,
                    "velocity": 0.7874015748031497,
                    "duration": 0.34090912499999604
                },
                {
                    "name": "D#4",
                    "midi": 63,
                    "time": 183.63638199999863,
                    "velocity": 0.7874015748031497,
                    "duration": 0.34090912499999604
                },
                {
                    "name": "F5",
                    "midi": 77,
                    "time": 184.09092749999863,
                    "velocity": 0.7874015748031497,
                    "duration": 0.34090912499999604
                },
                {
                    "name": "C5",
                    "midi": 72,
                    "time": 184.09092749999863,
                    "velocity": 0.7874015748031497,
                    "duration": 0.34090912499999604
                },
                {
                    "name": "F4",
                    "midi": 65,
                    "time": 184.09092749999863,
                    "velocity": 0.7874015748031497,
                    "duration": 0.34090912499999604
                },
                {
                    "name": "C5",
                    "midi": 72,
                    "time": 184.54547299999862,
                    "velocity": 0.7874015748031497,
                    "duration": 0.34090912499999604
                },
                {
                    "name": "G#4",
                    "midi": 68,
                    "time": 184.54547299999862,
                    "velocity": 0.7874015748031497,
                    "duration": 0.34090912499999604
                },
                {
                    "name": "D#4",
                    "midi": 63,
                    "time": 184.54547299999862,
                    "velocity": 0.7874015748031497,
                    "duration": 0.34090912499999604
                },
                {
                    "name": "F5",
                    "midi": 77,
                    "time": 185.00001849999862,
                    "velocity": 0.7874015748031497,
                    "duration": 0.34090912499999604
                },
                {
                    "name": "C5",
                    "midi": 72,
                    "time": 185.00001849999862,
                    "velocity": 0.7874015748031497,
                    "duration": 0.34090912499999604
                },
                {
                    "name": "F4",
                    "midi": 65,
                    "time": 185.00001849999862,
                    "velocity": 0.7874015748031497,
                    "duration": 0.34090912499999604
                },
                {
                    "name": "A#4",
                    "midi": 70,
                    "time": 185.4545639999986,
                    "velocity": 0.7874015748031497,
                    "duration": 0.34090912499999604
                },
                {
                    "name": "F4",
                    "midi": 65,
                    "time": 185.4545639999986,
                    "velocity": 0.7874015748031497,
                    "duration": 0.34090912499999604
                },
                {
                    "name": "D4",
                    "midi": 62,
                    "time": 185.4545639999986,
                    "velocity": 0.7874015748031497,
                    "duration": 0.34090912499999604
                },
                {
                    "name": "D#5",
                    "midi": 75,
                    "time": 185.9091094999986,
                    "velocity": 0.7874015748031497,
                    "duration": 0.34090912499999604
                },
                {
                    "name": "A#4",
                    "midi": 70,
                    "time": 185.9091094999986,
                    "velocity": 0.7874015748031497,
                    "duration": 0.34090912499999604
                },
                {
                    "name": "D#4",
                    "midi": 63,
                    "time": 185.9091094999986,
                    "velocity": 0.7874015748031497,
                    "duration": 0.34090912499999604
                },
                {
                    "name": "A#4",
                    "midi": 70,
                    "time": 186.3636549999986,
                    "velocity": 0.7874015748031497,
                    "duration": 0.34090912499999604
                },
                {
                    "name": "G4",
                    "midi": 67,
                    "time": 186.3636549999986,
                    "velocity": 0.7874015748031497,
                    "duration": 0.34090912499999604
                },
                {
                    "name": "D4",
                    "midi": 62,
                    "time": 186.3636549999986,
                    "velocity": 0.7874015748031497,
                    "duration": 0.34090912499999604
                },
                {
                    "name": "D#5",
                    "midi": 75,
                    "time": 186.8182004999986,
                    "velocity": 0.7874015748031497,
                    "duration": 0.34090912499999604
                },
                {
                    "name": "A#4",
                    "midi": 70,
                    "time": 186.8182004999986,
                    "velocity": 0.7874015748031497,
                    "duration": 0.34090912499999604
                },
                {
                    "name": "D#4",
                    "midi": 63,
                    "time": 186.8182004999986,
                    "velocity": 0.7874015748031497,
                    "duration": 0.34090912499999604
                },
                {
                    "name": "G#4",
                    "midi": 68,
                    "time": 187.2727459999986,
                    "velocity": 0.7874015748031497,
                    "duration": 0.34090912499999604
                },
                {
                    "name": "D#4",
                    "midi": 63,
                    "time": 187.2727459999986,
                    "velocity": 0.7874015748031497,
                    "duration": 0.34090912499999604
                },
                {
                    "name": "C4",
                    "midi": 60,
                    "time": 187.2727459999986,
                    "velocity": 0.7874015748031497,
                    "duration": 0.34090912499999604
                },
                {
                    "name": "D5",
                    "midi": 74,
                    "time": 187.72729149999859,
                    "velocity": 0.7874015748031497,
                    "duration": 0.34090912499999604
                },
                {
                    "name": "G#4",
                    "midi": 68,
                    "time": 187.72729149999859,
                    "velocity": 0.7874015748031497,
                    "duration": 0.34090912499999604
                },
                {
                    "name": "D4",
                    "midi": 62,
                    "time": 187.72729149999859,
                    "velocity": 0.7874015748031497,
                    "duration": 0.34090912499999604
                },
                {
                    "name": "G#4",
                    "midi": 68,
                    "time": 188.18183699999858,
                    "velocity": 0.7874015748031497,
                    "duration": 0.34090912499999604
                },
                {
                    "name": "F4",
                    "midi": 65,
                    "time": 188.18183699999858,
                    "velocity": 0.7874015748031497,
                    "duration": 0.34090912499999604
                },
                {
                    "name": "C4",
                    "midi": 60,
                    "time": 188.18183699999858,
                    "velocity": 0.7874015748031497,
                    "duration": 0.34090912499999604
                },
                {
                    "name": "D5",
                    "midi": 74,
                    "time": 188.63638249999858,
                    "velocity": 0.7874015748031497,
                    "duration": 0.34090912499999604
                },
                {
                    "name": "G#4",
                    "midi": 68,
                    "time": 188.63638249999858,
                    "velocity": 0.7874015748031497,
                    "duration": 0.34090912499999604
                },
                {
                    "name": "D4",
                    "midi": 62,
                    "time": 188.63638249999858,
                    "velocity": 0.7874015748031497,
                    "duration": 0.34090912499999604
                },
                {
                    "name": "G4",
                    "midi": 67,
                    "time": 189.09092799999857,
                    "velocity": 0.7874015748031497,
                    "duration": 0.34090912499999604
                },
                {
                    "name": "D4",
                    "midi": 62,
                    "time": 189.09092799999857,
                    "velocity": 0.7874015748031497,
                    "duration": 0.34090912499999604
                },
                {
                    "name": "A#3",
                    "midi": 58,
                    "time": 189.09092799999857,
                    "velocity": 0.7874015748031497,
                    "duration": 0.34090912499999604
                },
                {
                    "name": "G5",
                    "midi": 79,
                    "time": 189.54547349999856,
                    "velocity": 0.7874015748031497,
                    "duration": 0.34090912499999604
                },
                {
                    "name": "C5",
                    "midi": 72,
                    "time": 189.54547349999856,
                    "velocity": 0.7874015748031497,
                    "duration": 0.34090912499999604
                },
                {
                    "name": "G4",
                    "midi": 67,
                    "time": 189.54547349999856,
                    "velocity": 0.7874015748031497,
                    "duration": 0.34090912499999604
                },
                {
                    "name": "C5",
                    "midi": 72,
                    "time": 190.00001899999856,
                    "velocity": 0.7874015748031497,
                    "duration": 0.34090912499999604
                },
                {
                    "name": "G4",
                    "midi": 67,
                    "time": 190.00001899999856,
                    "velocity": 0.7874015748031497,
                    "duration": 0.34090912499999604
                },
                {
                    "name": "G5",
                    "midi": 79,
                    "time": 190.45456449999855,
                    "velocity": 0.7874015748031497,
                    "duration": 0.34090912499999604
                },
                {
                    "name": "D#5",
                    "midi": 75,
                    "time": 190.45456449999855,
                    "velocity": 0.7874015748031497,
                    "duration": 0.34090912499999604
                },
                {
                    "name": "G4",
                    "midi": 67,
                    "time": 190.45456449999855,
                    "velocity": 0.7874015748031497,
                    "duration": 0.34090912499999604
                },
                {
                    "name": "B4",
                    "midi": 71,
                    "time": 190.90910999999855,
                    "velocity": 0.7874015748031497,
                    "duration": 0.34090912499999604
                },
                {
                    "name": "F4",
                    "midi": 65,
                    "time": 190.90910999999855,
                    "velocity": 0.7874015748031497,
                    "duration": 0.34090912499999604
                },
                {
                    "name": "D4",
                    "midi": 62,
                    "time": 190.90910999999855,
                    "velocity": 0.7874015748031497,
                    "duration": 0.34090912499999604
                },
                {
                    "name": "F5",
                    "midi": 77,
                    "time": 191.36365549999854,
                    "velocity": 0.7874015748031497,
                    "duration": 0.34090912499999604
                },
                {
                    "name": "D5",
                    "midi": 74,
                    "time": 191.36365549999854,
                    "velocity": 0.7874015748031497,
                    "duration": 0.34090912499999604
                },
                {
                    "name": "G#4",
                    "midi": 68,
                    "time": 191.36365549999854,
                    "velocity": 0.7874015748031497,
                    "duration": 0.34090912499999604
                },
                {
                    "name": "B4",
                    "midi": 71,
                    "time": 191.81820099999854,
                    "velocity": 0.7874015748031497,
                    "duration": 0.34090912499999604
                },
                {
                    "name": "F4",
                    "midi": 65,
                    "time": 191.81820099999854,
                    "velocity": 0.7874015748031497,
                    "duration": 0.34090912499999604
                },
                {
                    "name": "D4",
                    "midi": 62,
                    "time": 191.81820099999854,
                    "velocity": 0.7874015748031497,
                    "duration": 0.34090912499999604
                },
                {
                    "name": "B4",
                    "midi": 71,
                    "time": 192.27274649999853,
                    "velocity": 0.7874015748031497,
                    "duration": 0.34090912499999604
                },
                {
                    "name": "F5",
                    "midi": 77,
                    "time": 192.27274649999853,
                    "velocity": 0.7874015748031497,
                    "duration": 0.34090912499999604
                },
                {
                    "name": "F4",
                    "midi": 65,
                    "time": 192.27274649999853,
                    "velocity": 0.7874015748031497,
                    "duration": 0.34090912499999604
                },
                {
                    "name": "D#5",
                    "midi": 75,
                    "time": 192.72729199999853,
                    "velocity": 0.7874015748031497,
                    "duration": 0.34090912499999604
                },
                {
                    "name": "C5",
                    "midi": 72,
                    "time": 192.72729199999853,
                    "velocity": 0.7874015748031497,
                    "duration": 0.34090912499999604
                },
                {
                    "name": "G4",
                    "midi": 67,
                    "time": 192.72729199999853,
                    "velocity": 0.7874015748031497,
                    "duration": 0.34090912499999604
                },
                {
                    "name": "G#5",
                    "midi": 80,
                    "time": 193.18183749999852,
                    "velocity": 0.7874015748031497,
                    "duration": 0.34090912499999604
                },
                {
                    "name": "D#5",
                    "midi": 75,
                    "time": 193.18183749999852,
                    "velocity": 0.7874015748031497,
                    "duration": 0.34090912499999604
                },
                {
                    "name": "C5",
                    "midi": 72,
                    "time": 193.18183749999852,
                    "velocity": 0.7874015748031497,
                    "duration": 0.34090912499999604
                },
                {
                    "name": "D#5",
                    "midi": 75,
                    "time": 193.63638299999852,
                    "velocity": 0.7874015748031497,
                    "duration": 0.34090912499999604
                },
                {
                    "name": "C5",
                    "midi": 72,
                    "time": 193.63638299999852,
                    "velocity": 0.7874015748031497,
                    "duration": 0.34090912499999604
                },
                {
                    "name": "G#5",
                    "midi": 80,
                    "time": 194.0909284999985,
                    "velocity": 0.7874015748031497,
                    "duration": 0.34090912499999604
                },
                {
                    "name": "D#5",
                    "midi": 75,
                    "time": 194.0909284999985,
                    "velocity": 0.7874015748031497,
                    "duration": 0.34090912499999604
                },
                {
                    "name": "C5",
                    "midi": 72,
                    "time": 194.0909284999985,
                    "velocity": 0.7874015748031497,
                    "duration": 0.34090912499999604
                },
                {
                    "name": "F5",
                    "midi": 77,
                    "time": 194.5454739999985,
                    "velocity": 0.7874015748031497,
                    "duration": 0.34090912499999604
                },
                {
                    "name": "D#5",
                    "midi": 75,
                    "time": 194.5454739999985,
                    "velocity": 0.7874015748031497,
                    "duration": 0.34090912499999604
                },
                {
                    "name": "C5",
                    "midi": 72,
                    "time": 194.5454739999985,
                    "velocity": 0.7874015748031497,
                    "duration": 0.34090912499999604
                },
                {
                    "name": "A#5",
                    "midi": 82,
                    "time": 195.0000194999985,
                    "velocity": 0.7874015748031497,
                    "duration": 0.34090912499999604
                },
                {
                    "name": "D5",
                    "midi": 74,
                    "time": 195.0000194999985,
                    "velocity": 0.7874015748031497,
                    "duration": 0.34090912499999604
                },
                {
                    "name": "A#4",
                    "midi": 70,
                    "time": 195.0000194999985,
                    "velocity": 0.7874015748031497,
                    "duration": 0.34090912499999604
                },
                {
                    "name": "F5",
                    "midi": 77,
                    "time": 195.4545649999985,
                    "velocity": 0.7874015748031497,
                    "duration": 0.34090912499999604
                },
                {
                    "name": "D5",
                    "midi": 74,
                    "time": 195.4545649999985,
                    "velocity": 0.7874015748031497,
                    "duration": 0.34090912499999604
                },
                {
                    "name": "A#5",
                    "midi": 82,
                    "time": 195.9091104999985,
                    "velocity": 0.7874015748031497,
                    "duration": 0.34090912499999604
                },
                {
                    "name": "D5",
                    "midi": 74,
                    "time": 195.9091104999985,
                    "velocity": 0.7874015748031497,
                    "duration": 0.34090912499999604
                },
                {
                    "name": "A#4",
                    "midi": 70,
                    "time": 195.9091104999985,
                    "velocity": 0.7874015748031497,
                    "duration": 0.34090912499999604
                },
                {
                    "name": "G5",
                    "midi": 79,
                    "time": 196.36365599999849,
                    "velocity": 0.7874015748031497,
                    "duration": 0.34090912499999604
                },
                {
                    "name": "D5",
                    "midi": 74,
                    "time": 196.36365599999849,
                    "velocity": 0.7874015748031497,
                    "duration": 0.34090912499999604
                },
                {
                    "name": "A#4",
                    "midi": 70,
                    "time": 196.36365599999849,
                    "velocity": 0.7874015748031497,
                    "duration": 0.34090912499999604
                },
                {
                    "name": "C5",
                    "midi": 72,
                    "time": 196.81820149999848,
                    "velocity": 0.7874015748031497,
                    "duration": 0.34090912499999604
                },
                {
                    "name": "G4",
                    "midi": 67,
                    "time": 196.81820149999848,
                    "velocity": 0.7874015748031497,
                    "duration": 0.34090912499999604
                },
                {
                    "name": "G4",
                    "midi": 67,
                    "time": 197.27274699999847,
                    "velocity": 0.7874015748031497,
                    "duration": 0.34090912499999604
                },
                {
                    "name": "D#4",
                    "midi": 63,
                    "time": 197.27274699999847,
                    "velocity": 0.7874015748031497,
                    "duration": 0.34090912499999604
                },
                {
                    "name": "C4",
                    "midi": 60,
                    "time": 197.27274699999847,
                    "velocity": 0.7874015748031497,
                    "duration": 0.34090912499999604
                },
                {
                    "name": "C5",
                    "midi": 72,
                    "time": 197.72729249999847,
                    "velocity": 0.7874015748031497,
                    "duration": 0.34090912499999604
                },
                {
                    "name": "D#4",
                    "midi": 63,
                    "time": 197.72729249999847,
                    "velocity": 0.7874015748031497,
                    "duration": 0.34090912499999604
                },
                {
                    "name": "C4",
                    "midi": 60,
                    "time": 197.72729249999847,
                    "velocity": 0.7874015748031497,
                    "duration": 0.34090912499999604
                },
                {
                    "name": "A4",
                    "midi": 69,
                    "time": 198.18183799999846,
                    "velocity": 0.7874015748031497,
                    "duration": 0.34090912499999604
                },
                {
                    "name": "D#4",
                    "midi": 63,
                    "time": 198.18183799999846,
                    "velocity": 0.7874015748031497,
                    "duration": 0.34090912499999604
                },
                {
                    "name": "C4",
                    "midi": 60,
                    "time": 198.18183799999846,
                    "velocity": 0.7874015748031497,
                    "duration": 0.34090912499999604
                },
                {
                    "name": "A4",
                    "midi": 69,
                    "time": 198.63638349999846,
                    "velocity": 0.7874015748031497,
                    "duration": 0.34090912499999604
                },
                {
                    "name": "D5",
                    "midi": 74,
                    "time": 198.63638349999846,
                    "velocity": 0.7874015748031497,
                    "duration": 0.34090912499999604
                },
                {
                    "name": "D4",
                    "midi": 62,
                    "time": 198.63638349999846,
                    "velocity": 0.7874015748031497,
                    "duration": 0.34090912499999604
                },
                {
                    "name": "A4",
                    "midi": 69,
                    "time": 199.09092899999845,
                    "velocity": 0.7874015748031497,
                    "duration": 0.34090912499999604
                },
                {
                    "name": "F4",
                    "midi": 65,
                    "time": 199.09092899999845,
                    "velocity": 0.7874015748031497,
                    "duration": 0.34090912499999604
                },
                {
                    "name": "D4",
                    "midi": 62,
                    "time": 199.09092899999845,
                    "velocity": 0.7874015748031497,
                    "duration": 0.34090912499999604
                },
                {
                    "name": "A4",
                    "midi": 69,
                    "time": 199.54547449999845,
                    "velocity": 0.7874015748031497,
                    "duration": 0.34090912499999604
                },
                {
                    "name": "D5",
                    "midi": 74,
                    "time": 199.54547449999845,
                    "velocity": 0.7874015748031497,
                    "duration": 0.34090912499999604
                },
                {
                    "name": "D4",
                    "midi": 62,
                    "time": 199.54547449999845,
                    "velocity": 0.7874015748031497,
                    "duration": 0.34090912499999604
                },
                {
                    "name": "G4",
                    "midi": 67,
                    "time": 200.00001999999844,
                    "velocity": 0.7874015748031497,
                    "duration": 0.34090912499999604
                },
                {
                    "name": "D4",
                    "midi": 62,
                    "time": 200.00001999999844,
                    "velocity": 0.7874015748031497,
                    "duration": 0.34090912499999604
                },
                {
                    "name": "A#3",
                    "midi": 58,
                    "time": 200.00001999999844,
                    "velocity": 0.7874015748031497,
                    "duration": 0.34090912499999604
                },
                {
                    "name": "C5",
                    "midi": 72,
                    "time": 200.45456549999844,
                    "velocity": 0.7874015748031497,
                    "duration": 0.34090912499999604
                },
                {
                    "name": "G4",
                    "midi": 67,
                    "time": 200.45456549999844,
                    "velocity": 0.7874015748031497,
                    "duration": 0.34090912499999604
                },
                {
                    "name": "C4",
                    "midi": 60,
                    "time": 200.45456549999844,
                    "velocity": 0.7874015748031497,
                    "duration": 0.34090912499999604
                },
                {
                    "name": "G4",
                    "midi": 67,
                    "time": 200.90911099999843,
                    "velocity": 0.7874015748031497,
                    "duration": 0.34090912499999604
                },
                {
                    "name": "D#4",
                    "midi": 63,
                    "time": 200.90911099999843,
                    "velocity": 0.7874015748031497,
                    "duration": 0.34090912499999604
                },
                {
                    "name": "C4",
                    "midi": 60,
                    "time": 200.90911099999843,
                    "velocity": 0.7874015748031497,
                    "duration": 0.34090912499999604
                },
                {
                    "name": "C5",
                    "midi": 72,
                    "time": 201.36365649999843,
                    "velocity": 0.7874015748031497,
                    "duration": 0.34090912499999604
                },
                {
                    "name": "G4",
                    "midi": 67,
                    "time": 201.36365649999843,
                    "velocity": 0.7874015748031497,
                    "duration": 0.34090912499999604
                },
                {
                    "name": "C4",
                    "midi": 60,
                    "time": 201.36365649999843,
                    "velocity": 0.7874015748031497,
                    "duration": 0.34090912499999604
                },
                {
                    "name": "F#4",
                    "midi": 66,
                    "time": 201.81820199999842,
                    "velocity": 0.7874015748031497,
                    "duration": 0.34090912499999604
                },
                {
                    "name": "A3",
                    "midi": 57,
                    "time": 201.81820199999842,
                    "velocity": 0.7874015748031497,
                    "duration": 0.34090912499999604
                },
                {
                    "name": "C4",
                    "midi": 60,
                    "time": 201.81820199999842,
                    "velocity": 0.7874015748031497,
                    "duration": 0.34090912499999604
                },
                {
                    "name": "F#4",
                    "midi": 66,
                    "time": 202.27274749999842,
                    "velocity": 0.7874015748031497,
                    "duration": 0.34090912499999604
                },
                {
                    "name": "A#4",
                    "midi": 70,
                    "time": 202.27274749999842,
                    "velocity": 0.7874015748031497,
                    "duration": 0.34090912499999604
                },
                {
                    "name": "A#3",
                    "midi": 58,
                    "time": 202.27274749999842,
                    "velocity": 0.7874015748031497,
                    "duration": 0.34090912499999604
                },
                {
                    "name": "F#4",
                    "midi": 66,
                    "time": 202.7272929999984,
                    "velocity": 0.7874015748031497,
                    "duration": 0.34090912499999604
                },
                {
                    "name": "D4",
                    "midi": 62,
                    "time": 202.7272929999984,
                    "velocity": 0.7874015748031497,
                    "duration": 0.34090912499999604
                },
                {
                    "name": "A#3",
                    "midi": 58,
                    "time": 202.7272929999984,
                    "velocity": 0.7874015748031497,
                    "duration": 0.34090912499999604
                },
                {
                    "name": "F#4",
                    "midi": 66,
                    "time": 203.1818384999984,
                    "velocity": 0.7874015748031497,
                    "duration": 0.34090912499999604
                },
                {
                    "name": "A#4",
                    "midi": 70,
                    "time": 203.1818384999984,
                    "velocity": 0.7874015748031497,
                    "duration": 0.34090912499999604
                },
                {
                    "name": "A#3",
                    "midi": 58,
                    "time": 203.1818384999984,
                    "velocity": 0.7874015748031497,
                    "duration": 0.34090912499999604
                },
                {
                    "name": "G4",
                    "midi": 67,
                    "time": 203.6363839999984,
                    "velocity": 0.7874015748031497,
                    "duration": 0.34090912499999604
                },
                {
                    "name": "D4",
                    "midi": 62,
                    "time": 203.6363839999984,
                    "velocity": 0.7874015748031497,
                    "duration": 0.34090912499999604
                },
                {
                    "name": "A#3",
                    "midi": 58,
                    "time": 203.6363839999984,
                    "velocity": 0.7874015748031497,
                    "duration": 0.34090912499999604
                },
                {
                    "name": "C5",
                    "midi": 72,
                    "time": 204.0909294999984,
                    "velocity": 0.7874015748031497,
                    "duration": 0.34090912499999604
                },
                {
                    "name": "A#4",
                    "midi": 70,
                    "time": 204.0909294999984,
                    "velocity": 0.7874015748031497,
                    "duration": 0.34090912499999604
                },
                {
                    "name": "C4",
                    "midi": 60,
                    "time": 204.0909294999984,
                    "velocity": 0.7874015748031497,
                    "duration": 0.34090912499999604
                },
                {
                    "name": "G4",
                    "midi": 67,
                    "time": 204.5454749999984,
                    "velocity": 0.7874015748031497,
                    "duration": 0.34090912499999604
                },
                {
                    "name": "C4",
                    "midi": 60,
                    "time": 204.5454749999984,
                    "velocity": 0.7874015748031497,
                    "duration": 0.34090912499999604
                },
                {
                    "name": "A#3",
                    "midi": 58,
                    "time": 204.5454749999984,
                    "velocity": 0.7874015748031497,
                    "duration": 0.34090912499999604
                },
                {
                    "name": "C5",
                    "midi": 72,
                    "time": 205.00002049999839,
                    "velocity": 0.7874015748031497,
                    "duration": 0.34090912499999604
                },
                {
                    "name": "G4",
                    "midi": 67,
                    "time": 205.00002049999839,
                    "velocity": 0.7874015748031497,
                    "duration": 0.34090912499999604
                },
                {
                    "name": "C4",
                    "midi": 60,
                    "time": 205.00002049999839,
                    "velocity": 0.7874015748031497,
                    "duration": 0.34090912499999604
                },
                {
                    "name": "A4",
                    "midi": 69,
                    "time": 205.45456599999838,
                    "velocity": 0.7874015748031497,
                    "duration": 0.34090912499999604
                },
                {
                    "name": "C4",
                    "midi": 60,
                    "time": 205.45456599999838,
                    "velocity": 0.7874015748031497,
                    "duration": 0.34090912499999604
                },
                {
                    "name": "A4",
                    "midi": 69,
                    "time": 205.90911149999837,
                    "velocity": 0.7874015748031497,
                    "duration": 0.34090912499999604
                },
                {
                    "name": "D5",
                    "midi": 74,
                    "time": 205.90911149999837,
                    "velocity": 0.7874015748031497,
                    "duration": 0.34090912499999604
                },
                {
                    "name": "A4",
                    "midi": 69,
                    "time": 206.36365699999837,
                    "velocity": 0.7874015748031497,
                    "duration": 0.34090912499999604
                },
                {
                    "name": "F4",
                    "midi": 65,
                    "time": 206.36365699999837,
                    "velocity": 0.7874015748031497,
                    "duration": 0.34090912499999604
                },
                {
                    "name": "D4",
                    "midi": 62,
                    "time": 206.36365699999837,
                    "velocity": 0.7874015748031497,
                    "duration": 0.34090912499999604
                },
                {
                    "name": "D5",
                    "midi": 74,
                    "time": 206.81820249999836,
                    "velocity": 0.7874015748031497,
                    "duration": 0.34090912499999604
                },
                {
                    "name": "F4",
                    "midi": 65,
                    "time": 206.81820249999836,
                    "velocity": 0.7874015748031497,
                    "duration": 0.34090912499999604
                },
                {
                    "name": "D4",
                    "midi": 62,
                    "time": 206.81820249999836,
                    "velocity": 0.7874015748031497,
                    "duration": 0.34090912499999604
                },
                {
                    "name": "A#4",
                    "midi": 70,
                    "time": 207.27274799999836,
                    "velocity": 0.7874015748031497,
                    "duration": 0.34090912499999604
                },
                {
                    "name": "F4",
                    "midi": 65,
                    "time": 207.27274799999836,
                    "velocity": 0.7874015748031497,
                    "duration": 0.34090912499999604
                },
                {
                    "name": "D4",
                    "midi": 62,
                    "time": 207.27274799999836,
                    "velocity": 0.7874015748031497,
                    "duration": 0.34090912499999604
                },
                {
                    "name": "D#5",
                    "midi": 75,
                    "time": 207.72729349999835,
                    "velocity": 0.7874015748031497,
                    "duration": 0.34090912499999604
                },
                {
                    "name": "A#4",
                    "midi": 70,
                    "time": 207.72729349999835,
                    "velocity": 0.7874015748031497,
                    "duration": 0.34090912499999604
                },
                {
                    "name": "D#4",
                    "midi": 63,
                    "time": 207.72729349999835,
                    "velocity": 0.7874015748031497,
                    "duration": 0.34090912499999604
                },
                {
                    "name": "A#4",
                    "midi": 70,
                    "time": 208.18183899999835,
                    "velocity": 0.7874015748031497,
                    "duration": 0.34090912499999604
                },
                {
                    "name": "G4",
                    "midi": 67,
                    "time": 208.18183899999835,
                    "velocity": 0.7874015748031497,
                    "duration": 0.34090912499999604
                },
                {
                    "name": "D#4",
                    "midi": 63,
                    "time": 208.18183899999835,
                    "velocity": 0.7874015748031497,
                    "duration": 0.34090912499999604
                },
                {
                    "name": "D#5",
                    "midi": 75,
                    "time": 208.63638449999834,
                    "velocity": 0.7874015748031497,
                    "duration": 0.34090912499999604
                },
                {
                    "name": "G4",
                    "midi": 67,
                    "time": 208.63638449999834,
                    "velocity": 0.7874015748031497,
                    "duration": 0.34090912499999604
                },
                {
                    "name": "D#4",
                    "midi": 63,
                    "time": 208.63638449999834,
                    "velocity": 0.7874015748031497,
                    "duration": 0.34090912499999604
                },
                {
                    "name": "C5",
                    "midi": 72,
                    "time": 209.09092999999834,
                    "velocity": 0.7874015748031497,
                    "duration": 0.34090912499999604
                },
                {
                    "name": "G4",
                    "midi": 67,
                    "time": 209.09092999999834,
                    "velocity": 0.7874015748031497,
                    "duration": 0.34090912499999604
                },
                {
                    "name": "D#4",
                    "midi": 63,
                    "time": 209.09092999999834,
                    "velocity": 0.7874015748031497,
                    "duration": 0.34090912499999604
                },
                {
                    "name": "F5",
                    "midi": 77,
                    "time": 209.54547549999833,
                    "velocity": 0.7874015748031497,
                    "duration": 0.34090912499999604
                },
                {
                    "name": "C5",
                    "midi": 72,
                    "time": 209.54547549999833,
                    "velocity": 0.7874015748031497,
                    "duration": 0.34090912499999604
                },
                {
                    "name": "F4",
                    "midi": 65,
                    "time": 209.54547549999833,
                    "velocity": 0.7874015748031497,
                    "duration": 0.34090912499999604
                },
                {
                    "name": "A4",
                    "midi": 69,
                    "time": 210.00002099999833,
                    "velocity": 0.7874015748031497,
                    "duration": 0.34090912499999604
                },
                {
                    "name": "C5",
                    "midi": 72,
                    "time": 210.00002099999833,
                    "velocity": 0.7874015748031497,
                    "duration": 0.34090912499999604
                },
                {
                    "name": "F4",
                    "midi": 65,
                    "time": 210.00002099999833,
                    "velocity": 0.7874015748031497,
                    "duration": 0.34090912499999604
                },
                {
                    "name": "A4",
                    "midi": 69,
                    "time": 210.45456649999832,
                    "velocity": 0.7874015748031497,
                    "duration": 0.34090912499999604
                },
                {
                    "name": "F5",
                    "midi": 77,
                    "time": 210.45456649999832,
                    "velocity": 0.7874015748031497,
                    "duration": 0.34090912499999604
                },
                {
                    "name": "F4",
                    "midi": 65,
                    "time": 210.45456649999832,
                    "velocity": 0.7874015748031497,
                    "duration": 0.34090912499999604
                },
                {
                    "name": "A4",
                    "midi": 69,
                    "time": 210.90911199999832,
                    "velocity": 0.7874015748031497,
                    "duration": 0.34090912499999604
                },
                {
                    "name": "D5",
                    "midi": 74,
                    "time": 210.90911199999832,
                    "velocity": 0.7874015748031497,
                    "duration": 0.34090912499999604
                },
                {
                    "name": "F4",
                    "midi": 65,
                    "time": 210.90911199999832,
                    "velocity": 0.7874015748031497,
                    "duration": 0.34090912499999604
                },
                {
                    "name": "G5",
                    "midi": 79,
                    "time": 211.3636574999983,
                    "velocity": 0.7874015748031497,
                    "duration": 0.34090912499999604
                },
                {
                    "name": "D5",
                    "midi": 74,
                    "time": 211.3636574999983,
                    "velocity": 0.7874015748031497,
                    "duration": 0.34090912499999604
                },
                {
                    "name": "G4",
                    "midi": 67,
                    "time": 211.3636574999983,
                    "velocity": 0.7874015748031497,
                    "duration": 0.34090912499999604
                },
                {
                    "name": "D5",
                    "midi": 74,
                    "time": 211.8182029999983,
                    "velocity": 0.7874015748031497,
                    "duration": 0.34090912499999604
                },
                {
                    "name": "A#4",
                    "midi": 70,
                    "time": 211.8182029999983,
                    "velocity": 0.7874015748031497,
                    "duration": 0.34090912499999604
                },
                {
                    "name": "G4",
                    "midi": 67,
                    "time": 211.8182029999983,
                    "velocity": 0.7874015748031497,
                    "duration": 0.34090912499999604
                },
                {
                    "name": "G5",
                    "midi": 79,
                    "time": 212.2727484999983,
                    "velocity": 0.7874015748031497,
                    "duration": 0.34090912499999604
                },
                {
                    "name": "A#4",
                    "midi": 70,
                    "time": 212.2727484999983,
                    "velocity": 0.7874015748031497,
                    "duration": 0.34090912499999604
                },
                {
                    "name": "G4",
                    "midi": 67,
                    "time": 212.2727484999983,
                    "velocity": 0.7874015748031497,
                    "duration": 0.34090912499999604
                },
                {
                    "name": "D#5",
                    "midi": 75,
                    "time": 212.7272939999983,
                    "velocity": 0.7874015748031497,
                    "duration": 0.34090912499999604
                },
                {
                    "name": "A#4",
                    "midi": 70,
                    "time": 212.7272939999983,
                    "velocity": 0.7874015748031497,
                    "duration": 0.34090912499999604
                },
                {
                    "name": "G4",
                    "midi": 67,
                    "time": 212.7272939999983,
                    "velocity": 0.7874015748031497,
                    "duration": 0.34090912499999604
                },
                {
                    "name": "G#5",
                    "midi": 80,
                    "time": 213.1818394999983,
                    "velocity": 0.7874015748031497,
                    "duration": 0.34090912499999604
                },
                {
                    "name": "D#5",
                    "midi": 75,
                    "time": 213.1818394999983,
                    "velocity": 0.7874015748031497,
                    "duration": 0.34090912499999604
                },
                {
                    "name": "G#4",
                    "midi": 68,
                    "time": 213.1818394999983,
                    "velocity": 0.7874015748031497,
                    "duration": 0.34090912499999604
                },
                {
                    "name": "D#5",
                    "midi": 75,
                    "time": 213.63638499999828,
                    "velocity": 0.7874015748031497,
                    "duration": 0.34090912499999604
                },
                {
                    "name": "C5",
                    "midi": 72,
                    "time": 213.63638499999828,
                    "velocity": 0.7874015748031497,
                    "duration": 0.34090912499999604
                },
                {
                    "name": "G#4",
                    "midi": 68,
                    "time": 213.63638499999828,
                    "velocity": 0.7874015748031497,
                    "duration": 0.34090912499999604
                },
                {
                    "name": "G#5",
                    "midi": 80,
                    "time": 214.09093049999828,
                    "velocity": 0.7874015748031497,
                    "duration": 0.34090912499999604
                },
                {
                    "name": "C5",
                    "midi": 72,
                    "time": 214.09093049999828,
                    "velocity": 0.7874015748031497,
                    "duration": 0.34090912499999604
                },
                {
                    "name": "G#4",
                    "midi": 68,
                    "time": 214.09093049999828,
                    "velocity": 0.7874015748031497,
                    "duration": 0.34090912499999604
                },
                {
                    "name": "F5",
                    "midi": 77,
                    "time": 214.54547599999827,
                    "velocity": 0.7874015748031497,
                    "duration": 0.34090912499999604
                },
                {
                    "name": "C5",
                    "midi": 72,
                    "time": 214.54547599999827,
                    "velocity": 0.7874015748031497,
                    "duration": 0.34090912499999604
                },
                {
                    "name": "G#4",
                    "midi": 68,
                    "time": 214.54547599999827,
                    "velocity": 0.7874015748031497,
                    "duration": 0.34090912499999604
                },
                {
                    "name": "A#5",
                    "midi": 82,
                    "time": 215.00002149999827,
                    "velocity": 0.7874015748031497,
                    "duration": 0.34090912499999604
                },
                {
                    "name": "F5",
                    "midi": 77,
                    "time": 215.00002149999827,
                    "velocity": 0.7874015748031497,
                    "duration": 0.34090912499999604
                },
                {
                    "name": "A#4",
                    "midi": 70,
                    "time": 215.00002149999827,
                    "velocity": 0.7874015748031497,
                    "duration": 0.34090912499999604
                },
                {
                    "name": "F5",
                    "midi": 77,
                    "time": 215.45456699999826,
                    "velocity": 0.7874015748031497,
                    "duration": 0.34090912499999604
                },
                {
                    "name": "D5",
                    "midi": 74,
                    "time": 215.45456699999826,
                    "velocity": 0.7874015748031497,
                    "duration": 0.34090912499999604
                },
                {
                    "name": "A#4",
                    "midi": 70,
                    "time": 215.45456699999826,
                    "velocity": 0.7874015748031497,
                    "duration": 0.34090912499999604
                },
                {
                    "name": "A#5",
                    "midi": 82,
                    "time": 215.90911249999826,
                    "velocity": 0.7874015748031497,
                    "duration": 0.34090912499999604
                },
                {
                    "name": "D5",
                    "midi": 74,
                    "time": 215.90911249999826,
                    "velocity": 0.7874015748031497,
                    "duration": 0.34090912499999604
                },
                {
                    "name": "A#4",
                    "midi": 70,
                    "time": 215.90911249999826,
                    "velocity": 0.7874015748031497,
                    "duration": 0.34090912499999604
                },
                {
                    "name": "G5",
                    "midi": 79,
                    "time": 216.36365799999825,
                    "velocity": 0.7874015748031497,
                    "duration": 0.34090912499999604
                },
                {
                    "name": "D5",
                    "midi": 74,
                    "time": 216.36365799999825,
                    "velocity": 0.7874015748031497,
                    "duration": 0.34090912499999604
                },
                {
                    "name": "A#4",
                    "midi": 70,
                    "time": 216.36365799999825,
                    "velocity": 0.7874015748031497,
                    "duration": 0.34090912499999604
                },
                {
                    "name": "G5",
                    "midi": 79,
                    "time": 216.81820349999825,
                    "velocity": 0.7874015748031497,
                    "duration": 0.34090912499999604
                },
                {
                    "name": "C5",
                    "midi": 72,
                    "time": 216.81820349999825,
                    "velocity": 0.7874015748031497,
                    "duration": 0.34090912499999604
                },
                {
                    "name": "C6",
                    "midi": 84,
                    "time": 217.27274899999824,
                    "velocity": 0.7874015748031497,
                    "duration": 0.34090912499999604
                },
                {
                    "name": "C5",
                    "midi": 72,
                    "time": 217.27274899999824,
                    "velocity": 0.7874015748031497,
                    "duration": 0.34090912499999604
                },
                {
                    "name": "G5",
                    "midi": 79,
                    "time": 217.72729449999824,
                    "velocity": 0.7874015748031497,
                    "duration": 0.34090912499999604
                },
                {
                    "name": "A#5",
                    "midi": 82,
                    "time": 217.72729449999824,
                    "velocity": 0.7874015748031497,
                    "duration": 0.34090912499999604
                },
                {
                    "name": "C5",
                    "midi": 72,
                    "time": 217.72729449999824,
                    "velocity": 0.7874015748031497,
                    "duration": 0.34090912499999604
                },
                {
                    "name": "F5",
                    "midi": 77,
                    "time": 218.18183999999823,
                    "velocity": 0.7874015748031497,
                    "duration": 0.34090912499999604
                },
                {
                    "name": "G#5",
                    "midi": 80,
                    "time": 218.18183999999823,
                    "velocity": 0.7874015748031497,
                    "duration": 0.34090912499999604
                },
                {
                    "name": "C5",
                    "midi": 72,
                    "time": 218.18183999999823,
                    "velocity": 0.7874015748031497,
                    "duration": 0.34090912499999604
                },
                {
                    "name": "G5",
                    "midi": 79,
                    "time": 218.63638549999823,
                    "velocity": 0.7874015748031497,
                    "duration": 0.34090912499999604
                },
                {
                    "name": "C5",
                    "midi": 72,
                    "time": 218.63638549999823,
                    "velocity": 0.7874015748031497,
                    "duration": 0.34090912499999604
                },
                {
                    "name": "D5",
                    "midi": 74,
                    "time": 219.09093099999822,
                    "velocity": 0.7874015748031497,
                    "duration": 0.34090912499999604
                },
                {
                    "name": "F5",
                    "midi": 77,
                    "time": 219.09093099999822,
                    "velocity": 0.7874015748031497,
                    "duration": 0.34090912499999604
                },
                {
                    "name": "G#4",
                    "midi": 68,
                    "time": 219.09093099999822,
                    "velocity": 0.7874015748031497,
                    "duration": 0.34090912499999604
                },
                {
                    "name": "C5",
                    "midi": 72,
                    "time": 219.54547649999822,
                    "velocity": 0.7874015748031497,
                    "duration": 0.34090912499999604
                },
                {
                    "name": "D#5",
                    "midi": 75,
                    "time": 219.54547649999822,
                    "velocity": 0.7874015748031497,
                    "duration": 0.34090912499999604
                },
                {
                    "name": "G4",
                    "midi": 67,
                    "time": 219.54547649999822,
                    "velocity": 0.7874015748031497,
                    "duration": 0.34090912499999604
                },
                {
                    "name": "B4",
                    "midi": 71,
                    "time": 220.0000219999982,
                    "velocity": 0.7874015748031497,
                    "duration": 0.34090912499999604
                },
                {
                    "name": "D5",
                    "midi": 74,
                    "time": 220.0000219999982,
                    "velocity": 0.7874015748031497,
                    "duration": 0.34090912499999604
                },
                {
                    "name": "G4",
                    "midi": 67,
                    "time": 220.0000219999982,
                    "velocity": 0.7874015748031497,
                    "duration": 0.34090912499999604
                },
                {
                    "name": "A4",
                    "midi": 69,
                    "time": 220.4545674999982,
                    "velocity": 0.7874015748031497,
                    "duration": 0.34090912499999604
                },
                {
                    "name": "B4",
                    "midi": 71,
                    "time": 220.4545674999982,
                    "velocity": 0.7874015748031497,
                    "duration": 0.34090912499999604
                },
                {
                    "name": "D5",
                    "midi": 74,
                    "time": 220.4545674999982,
                    "velocity": 0.7874015748031497,
                    "duration": 0.34090912499999604
                },
                {
                    "name": "B4",
                    "midi": 71,
                    "time": 220.9091129999982,
                    "velocity": 0.7874015748031497,
                    "duration": 0.34090912499999604
                },
                {
                    "name": "G5",
                    "midi": 79,
                    "time": 220.9091129999982,
                    "velocity": 0.7874015748031497,
                    "duration": 0.34090912499999604
                },
                {
                    "name": "D#5",
                    "midi": 75,
                    "time": 220.9091129999982,
                    "velocity": 0.7874015748031497,
                    "duration": 0.34090912499999604
                },
                {
                    "name": "B4",
                    "midi": 71,
                    "time": 221.3636584999982,
                    "velocity": 0.7874015748031497,
                    "duration": 0.34090912499999604
                },
                {
                    "name": "F5",
                    "midi": 77,
                    "time": 221.3636584999982,
                    "velocity": 0.7874015748031497,
                    "duration": 0.34090912499999604
                },
                {
                    "name": "D5",
                    "midi": 74,
                    "time": 221.3636584999982,
                    "velocity": 0.7874015748031497,
                    "duration": 0.34090912499999604
                },
                {
                    "name": "C5",
                    "midi": 72,
                    "time": 221.8182039999982,
                    "velocity": 0.7874015748031497,
                    "duration": 0.34090912499999604
                },
                {
                    "name": "D#5",
                    "midi": 75,
                    "time": 221.8182039999982,
                    "velocity": 0.7874015748031497,
                    "duration": 0.34090912499999604
                },
                {
                    "name": "B4",
                    "midi": 71,
                    "time": 222.27274949999818,
                    "velocity": 0.7874015748031497,
                    "duration": 0.34090912499999604
                },
                {
                    "name": "D4",
                    "midi": 62,
                    "time": 222.27274949999818,
                    "velocity": 0.7874015748031497,
                    "duration": 0.34090912499999604
                },
                {
                    "name": "D5",
                    "midi": 74,
                    "time": 222.27274949999818,
                    "velocity": 0.7874015748031497,
                    "duration": 0.34090912499999604
                },
                {
                    "name": "C5",
                    "midi": 72,
                    "time": 222.72729499999818,
                    "velocity": 0.7874015748031497,
                    "duration": 0.34090912499999604
                },
                {
                    "name": "D#4",
                    "midi": 63,
                    "time": 222.72729499999818,
                    "velocity": 0.7874015748031497,
                    "duration": 0.34090912499999604
                },
                {
                    "name": "D5",
                    "midi": 74,
                    "time": 223.18184049999817,
                    "velocity": 0.7874015748031497,
                    "duration": 0.34090912499999604
                },
                {
                    "name": "C5",
                    "midi": 72,
                    "time": 223.18184049999817,
                    "velocity": 0.7874015748031497,
                    "duration": 0.34090912499999604
                },
                {
                    "name": "F4",
                    "midi": 65,
                    "time": 223.18184049999817,
                    "velocity": 0.7874015748031497,
                    "duration": 0.34090912499999604
                },
                {
                    "name": "D#5",
                    "midi": 75,
                    "time": 223.63638599999817,
                    "velocity": 0.7874015748031497,
                    "duration": 0.6818182499999921
                },
                {
                    "name": "C5",
                    "midi": 72,
                    "time": 223.63638599999817,
                    "velocity": 0.7874015748031497,
                    "duration": 0.6818182499999921
                },
                {
                    "name": "G4",
                    "midi": 67,
                    "time": 223.63638599999817,
                    "velocity": 0.7874015748031497,
                    "duration": 1.0227273749999881
                },
                {
                    "name": "B4",
                    "midi": 71,
                    "time": 224.54547699999816,
                    "velocity": 0.7874015748031497,
                    "duration": 0.6818182499999921
                },
                {
                    "name": "D5",
                    "midi": 74,
                    "time": 224.54547699999816,
                    "velocity": 0.7874015748031497,
                    "duration": 0.6818182499999921
                },
                {
                    "name": "G4",
                    "midi": 67,
                    "time": 225.00002249999815,
                    "velocity": 0.7874015748031497,
                    "duration": 0.34090912499999604
                },
                {
                    "name": "C5",
                    "midi": 72,
                    "time": 225.45456799999815,
                    "velocity": 0.7874015748031497,
                    "duration": 2.7272729999999967
                },
                {
                    "name": "G4",
                    "midi": 67,
                    "time": 225.45456799999815,
                    "velocity": 0.7874015748031497,
                    "duration": 2.7272729999999967
                },
                {
                    "name": "D#4",
                    "midi": 63,
                    "time": 225.45456799999815,
                    "velocity": 0.7874015748031497,
                    "duration": 2.7272729999999967
                }
            ],
            "controlChanges": {
                "7": [
                    {
                        "number": 7,
                        "time": 0,
                        "value": 0.3937007874015748
                    }
                ],
                "10": [
                    {
                        "number": 10,
                        "time": 0,
                        "value": 0.7874015748031497
                    }
                ]
            },
            "id": 5,
            "name": "Harpsi A",
            "instrumentNumber": 6,
            "instrument": "harpsichord",
            "instrumentFamily": "piano",
            "channelNumber": 4,
            "isPercussion": false
        },
        {
            "startTime": 0,
            "duration": 19.090911,
            "length": 33,
            "notes": [
                {
                    "name": "G4",
                    "midi": 67,
                    "time": 0,
                    "velocity": 0.7874015748031497,
                    "duration": 1.818182
                },
                {
                    "name": "C4",
                    "midi": 60,
                    "time": 0,
                    "velocity": 0.7874015748031497,
                    "duration": 3.636364
                },
                {
                    "name": "G#4",
                    "midi": 68,
                    "time": 1.818182,
                    "velocity": 0.7874015748031497,
                    "duration": 0.9090909999999999
                },
                {
                    "name": "B4",
                    "midi": 71,
                    "time": 2.727273,
                    "velocity": 0.7874015748031497,
                    "duration": 0.9090910000000001
                },
                {
                    "name": "C5",
                    "midi": 72,
                    "time": 3.636364,
                    "velocity": 0.7874015748031497,
                    "duration": 0.4545454999999996
                },
                {
                    "name": "C4",
                    "midi": 60,
                    "time": 3.636364,
                    "velocity": 0.7874015748031497,
                    "duration": 3.636364
                },
                {
                    "name": "G4",
                    "midi": 67,
                    "time": 4.0909094999999995,
                    "velocity": 0.7874015748031497,
                    "duration": 0.45454550000000005
                },
                {
                    "name": "G#4",
                    "midi": 68,
                    "time": 4.545455,
                    "velocity": 0.7874015748031497,
                    "duration": 1.3636365000000001
                },
                {
                    "name": "G#4",
                    "midi": 68,
                    "time": 5.9090915,
                    "velocity": 0.7874015748031497,
                    "duration": 0.45454550000000005
                },
                {
                    "name": "G4",
                    "midi": 67,
                    "time": 6.363637,
                    "velocity": 0.7874015748031497,
                    "duration": 1.3636365000000001
                },
                {
                    "name": "C4",
                    "midi": 60,
                    "time": 7.272728,
                    "velocity": 0.7874015748031497,
                    "duration": 3.6363639999999995
                },
                {
                    "name": "G4",
                    "midi": 67,
                    "time": 7.7272735,
                    "velocity": 0.7874015748031497,
                    "duration": 0.45454549999999916
                },
                {
                    "name": "F4",
                    "midi": 65,
                    "time": 8.181818999999999,
                    "velocity": 0.7874015748031497,
                    "duration": 1.3636365000000001
                },
                {
                    "name": "F4",
                    "midi": 65,
                    "time": 9.5454555,
                    "velocity": 0.7874015748031497,
                    "duration": 0.45454550000000005
                },
                {
                    "name": "D#4",
                    "midi": 63,
                    "time": 10.000001,
                    "velocity": 0.7874015748031497,
                    "duration": 0.9090910000000001
                },
                {
                    "name": "D4",
                    "midi": 62,
                    "time": 10.909092,
                    "velocity": 0.7874015748031497,
                    "duration": 0.45454550000000005
                },
                {
                    "name": "C4",
                    "midi": 60,
                    "time": 10.909092,
                    "velocity": 0.7874015748031497,
                    "duration": 0.9090910000000001
                },
                {
                    "name": "D#4",
                    "midi": 63,
                    "time": 11.3636375,
                    "velocity": 0.7874015748031497,
                    "duration": 0.45454550000000005
                },
                {
                    "name": "F4",
                    "midi": 65,
                    "time": 11.818183,
                    "velocity": 0.7874015748031497,
                    "duration": 0.9090910000000001
                },
                {
                    "name": "B3",
                    "midi": 59,
                    "time": 11.818183,
                    "velocity": 0.7874015748031497,
                    "duration": 0.9090910000000001
                },
                {
                    "name": "D#4",
                    "midi": 63,
                    "time": 12.727274,
                    "velocity": 0.7874015748031497,
                    "duration": 0.45454550000000005
                },
                {
                    "name": "C4",
                    "midi": 60,
                    "time": 12.727274,
                    "velocity": 0.7874015748031497,
                    "duration": 1.3636365000000001
                },
                {
                    "name": "F4",
                    "midi": 65,
                    "time": 13.1818195,
                    "velocity": 0.7874015748031497,
                    "duration": 0.45454550000000005
                },
                {
                    "name": "G4",
                    "midi": 67,
                    "time": 13.636365,
                    "velocity": 0.7874015748031497,
                    "duration": 0.9090910000000001
                },
                {
                    "name": "A#3",
                    "midi": 58,
                    "time": 14.0909105,
                    "velocity": 0.7874015748031497,
                    "duration": 0.45454550000000005
                },
                {
                    "name": "C4",
                    "midi": 60,
                    "time": 14.545456,
                    "velocity": 0.7874015748031497,
                    "duration": 0.9090910000000001
                },
                {
                    "name": "G#3",
                    "midi": 56,
                    "time": 14.545456,
                    "velocity": 0.7874015748031497,
                    "duration": 1.8181819999999984
                },
                {
                    "name": "B3",
                    "midi": 59,
                    "time": 15.454547,
                    "velocity": 0.7874015748031497,
                    "duration": 0.9090909999999983
                },
                {
                    "name": "C4",
                    "midi": 60,
                    "time": 16.363637999999998,
                    "velocity": 0.7874015748031497,
                    "duration": 0.9090910000000001
                },
                {
                    "name": "A3",
                    "midi": 57,
                    "time": 16.363637999999998,
                    "velocity": 0.7874015748031497,
                    "duration": 1.8181820000000002
                },
                {
                    "name": "F4",
                    "midi": 65,
                    "time": 17.272728999999998,
                    "velocity": 0.7874015748031497,
                    "duration": 0.9090910000000001
                },
                {
                    "name": "A#3",
                    "midi": 58,
                    "time": 18.18182,
                    "velocity": 0.7874015748031497,
                    "duration": 0.9090910000000001
                },
                {
                    "name": "F4",
                    "midi": 65,
                    "time": 18.18182,
                    "velocity": 0.7874015748031497,
                    "duration": 0.9090910000000001
                }
            ],
            "controlChanges": {
                "7": [
                    {
                        "number": 7,
                        "time": 0,
                        "value": 0.3937007874015748
                    }
                ],
                "10": [
                    {
                        "number": 10,
                        "time": 0,
                        "value": 0.7874015748031497
                    }
                ]
            },
            "id": 6,
            "name": "Harpsi B",
            "instrumentNumber": 6,
            "instrument": "harpsichord",
            "instrumentFamily": "piano",
            "channelNumber": 5,
            "isPercussion": false
        },
        {
            "startTime": 20.000002,
            "duration": 226.60608326666699,
            "length": 500,
            "notes": [
                {
                    "name": "F2",
                    "midi": 41,
                    "time": 20.000002,
                    "velocity": 0.7874015748031497,
                    "duration": 1.8181820000000002
                },
                {
                    "name": "F#3",
                    "midi": 54,
                    "time": 20.000002,
                    "velocity": 0.7874015748031497,
                    "duration": 1.8181820000000002
                },
                {
                    "name": "G2",
                    "midi": 43,
                    "time": 21.818184,
                    "velocity": 0.7874015748031497,
                    "duration": 1.8181820000000002
                },
                {
                    "name": "G3",
                    "midi": 55,
                    "time": 21.818184,
                    "velocity": 0.7874015748031497,
                    "duration": 1.8181820000000002
                },
                {
                    "name": "E2",
                    "midi": 40,
                    "time": 23.636366,
                    "velocity": 0.7874015748031497,
                    "duration": 1.8181820000000002
                },
                {
                    "name": "E3",
                    "midi": 52,
                    "time": 23.636366,
                    "velocity": 0.7874015748031497,
                    "duration": 1.8181820000000002
                },
                {
                    "name": "F2",
                    "midi": 41,
                    "time": 25.454548,
                    "velocity": 0.7874015748031497,
                    "duration": 1.8181820000000002
                },
                {
                    "name": "F3",
                    "midi": 53,
                    "time": 25.454548,
                    "velocity": 0.7874015748031497,
                    "duration": 1.8181820000000002
                },
                {
                    "name": "D#2",
                    "midi": 39,
                    "time": 27.27273,
                    "velocity": 0.7874015748031497,
                    "duration": 1.8181820000000002
                },
                {
                    "name": "D#3",
                    "midi": 51,
                    "time": 27.27273,
                    "velocity": 0.7874015748031497,
                    "duration": 1.8181820000000002
                },
                {
                    "name": "D2",
                    "midi": 38,
                    "time": 29.090912,
                    "velocity": 0.7874015748031497,
                    "duration": 2.7272730000000003
                },
                {
                    "name": "D3",
                    "midi": 50,
                    "time": 29.090912,
                    "velocity": 0.7874015748031497,
                    "duration": 2.7272730000000003
                },
                {
                    "name": "C2",
                    "midi": 36,
                    "time": 31.818185,
                    "velocity": 0.7874015748031497,
                    "duration": 0.9090909999999965
                },
                {
                    "name": "C3",
                    "midi": 48,
                    "time": 31.818185,
                    "velocity": 0.7874015748031497,
                    "duration": 0.9090909999999965
                },
                {
                    "name": "B1",
                    "midi": 35,
                    "time": 32.727275999999996,
                    "velocity": 0.7874015748031497,
                    "duration": 2.7272729999999967
                },
                {
                    "name": "B2",
                    "midi": 47,
                    "time": 32.727275999999996,
                    "velocity": 0.7874015748031497,
                    "duration": 2.7272729999999967
                },
                {
                    "name": "C2",
                    "midi": 36,
                    "time": 35.45454899999999,
                    "velocity": 0.7874015748031497,
                    "duration": 0.6818182499999992
                },
                {
                    "name": "C3",
                    "midi": 48,
                    "time": 35.45454899999999,
                    "velocity": 0.7874015748031497,
                    "duration": 0.6818182499999992
                },
                {
                    "name": "A#1",
                    "midi": 34,
                    "time": 36.13636724999999,
                    "velocity": 0.7874015748031497,
                    "duration": 0.22727274999999736
                },
                {
                    "name": "A#2",
                    "midi": 46,
                    "time": 36.13636724999999,
                    "velocity": 0.7874015748031497,
                    "duration": 0.22727274999999736
                },
                {
                    "name": "G#1",
                    "midi": 32,
                    "time": 36.36363999999999,
                    "velocity": 0.7874015748031497,
                    "duration": 0.9090909999999965
                },
                {
                    "name": "G#2",
                    "midi": 44,
                    "time": 36.36363999999999,
                    "velocity": 0.7874015748031497,
                    "duration": 0.9090909999999965
                },
                {
                    "name": "G1",
                    "midi": 31,
                    "time": 37.272730999999986,
                    "velocity": 0.7874015748031497,
                    "duration": 0.9090909999999965
                },
                {
                    "name": "G2",
                    "midi": 43,
                    "time": 37.272730999999986,
                    "velocity": 0.7874015748031497,
                    "duration": 0.9090909999999965
                },
                {
                    "name": "F#1",
                    "midi": 30,
                    "time": 38.18182199999998,
                    "velocity": 0.7874015748031497,
                    "duration": 0.9090909999999965
                },
                {
                    "name": "F#2",
                    "midi": 42,
                    "time": 38.18182199999998,
                    "velocity": 0.7874015748031497,
                    "duration": 0.9090909999999965
                },
                {
                    "name": "F1",
                    "midi": 29,
                    "time": 39.09091299999998,
                    "velocity": 0.7874015748031497,
                    "duration": 1.8181820000000002
                },
                {
                    "name": "F2",
                    "midi": 41,
                    "time": 39.09091299999998,
                    "velocity": 0.7874015748031497,
                    "duration": 1.8181820000000002
                },
                {
                    "name": "D#1",
                    "midi": 27,
                    "time": 40.90909499999998,
                    "velocity": 0.7874015748031497,
                    "duration": 0.9090909999999965
                },
                {
                    "name": "D#2",
                    "midi": 39,
                    "time": 40.90909499999998,
                    "velocity": 0.7874015748031497,
                    "duration": 0.9090909999999965
                },
                {
                    "name": "G1",
                    "midi": 31,
                    "time": 41.818185999999976,
                    "velocity": 0.7874015748031497,
                    "duration": 1.8181820000000002
                },
                {
                    "name": "G2",
                    "midi": 43,
                    "time": 41.818185999999976,
                    "velocity": 0.7874015748031497,
                    "duration": 1.8181820000000002
                },
                {
                    "name": "C2",
                    "midi": 36,
                    "time": 43.636367999999976,
                    "velocity": 0.7874015748031497,
                    "duration": 0.2878788166666695
                },
                {
                    "name": "C3",
                    "midi": 48,
                    "time": 43.636367999999976,
                    "velocity": 0.7874015748031497,
                    "duration": 0.2878788166666695
                },
                {
                    "name": "D2",
                    "midi": 38,
                    "time": 56.81818749999998,
                    "velocity": 0.7874015748031497,
                    "duration": 0.15151516666666964
                },
                {
                    "name": "D3",
                    "midi": 50,
                    "time": 56.81818749999998,
                    "velocity": 0.7874015748031497,
                    "duration": 0.15151516666666964
                },
                {
                    "name": "G2",
                    "midi": 43,
                    "time": 57.27273299999998,
                    "velocity": 0.7874015748031497,
                    "duration": 0.15151516666666964
                },
                {
                    "name": "G3",
                    "midi": 55,
                    "time": 57.27273299999998,
                    "velocity": 0.7874015748031497,
                    "duration": 0.15151516666666964
                },
                {
                    "name": "D2",
                    "midi": 38,
                    "time": 57.72727849999998,
                    "velocity": 0.7874015748031497,
                    "duration": 0.15151516666666964
                },
                {
                    "name": "D3",
                    "midi": 50,
                    "time": 57.72727849999998,
                    "velocity": 0.7874015748031497,
                    "duration": 0.15151516666666964
                },
                {
                    "name": "G2",
                    "midi": 43,
                    "time": 58.181823999999985,
                    "velocity": 0.7874015748031497,
                    "duration": 0.15151516666666964
                },
                {
                    "name": "G3",
                    "midi": 55,
                    "time": 58.181823999999985,
                    "velocity": 0.7874015748031497,
                    "duration": 0.15151516666666964
                },
                {
                    "name": "A#3",
                    "midi": 58,
                    "time": 58.63636949999999,
                    "velocity": 0.7874015748031497,
                    "duration": 0.15151516666666964
                },
                {
                    "name": "A#2",
                    "midi": 46,
                    "time": 58.63636949999999,
                    "velocity": 0.7874015748031497,
                    "duration": 0.15151516666666964
                },
                {
                    "name": "G2",
                    "midi": 43,
                    "time": 59.09091499999999,
                    "velocity": 0.7874015748031497,
                    "duration": 0.15151516666666964
                },
                {
                    "name": "G3",
                    "midi": 55,
                    "time": 59.09091499999999,
                    "velocity": 0.7874015748031497,
                    "duration": 0.15151516666666964
                },
                {
                    "name": "A#3",
                    "midi": 58,
                    "time": 59.54546049999999,
                    "velocity": 0.7874015748031497,
                    "duration": 0.15151516666666964
                },
                {
                    "name": "A#2",
                    "midi": 46,
                    "time": 59.54546049999999,
                    "velocity": 0.7874015748031497,
                    "duration": 0.15151516666666964
                },
                {
                    "name": "G2",
                    "midi": 43,
                    "time": 60.00000599999999,
                    "velocity": 0.7874015748031497,
                    "duration": 0.15151516666666964
                },
                {
                    "name": "G3",
                    "midi": 55,
                    "time": 60.00000599999999,
                    "velocity": 0.7874015748031497,
                    "duration": 0.15151516666666964
                },
                {
                    "name": "D2",
                    "midi": 38,
                    "time": 60.454551499999994,
                    "velocity": 0.7874015748031497,
                    "duration": 0.15151516666666964
                },
                {
                    "name": "D3",
                    "midi": 50,
                    "time": 60.454551499999994,
                    "velocity": 0.7874015748031497,
                    "duration": 0.15151516666666964
                },
                {
                    "name": "G2",
                    "midi": 43,
                    "time": 60.909096999999996,
                    "velocity": 0.7874015748031497,
                    "duration": 0.15151516666666964
                },
                {
                    "name": "G3",
                    "midi": 55,
                    "time": 60.909096999999996,
                    "velocity": 0.7874015748031497,
                    "duration": 0.15151516666666964
                },
                {
                    "name": "D2",
                    "midi": 38,
                    "time": 61.3636425,
                    "velocity": 0.7874015748031497,
                    "duration": 0.15151516666666964
                },
                {
                    "name": "D3",
                    "midi": 50,
                    "time": 61.3636425,
                    "velocity": 0.7874015748031497,
                    "duration": 0.15151516666666964
                },
                {
                    "name": "G2",
                    "midi": 43,
                    "time": 61.818188,
                    "velocity": 0.7874015748031497,
                    "duration": 0.15151516666666964
                },
                {
                    "name": "G3",
                    "midi": 55,
                    "time": 61.818188,
                    "velocity": 0.7874015748031497,
                    "duration": 0.15151516666666964
                },
                {
                    "name": "G1",
                    "midi": 31,
                    "time": 62.2727335,
                    "velocity": 0.7874015748031497,
                    "duration": 0.15151516666666964
                },
                {
                    "name": "G2",
                    "midi": 43,
                    "time": 62.2727335,
                    "velocity": 0.7874015748031497,
                    "duration": 0.15151516666666964
                },
                {
                    "name": "C2",
                    "midi": 36,
                    "time": 62.727279,
                    "velocity": 0.7874015748031497,
                    "duration": 0.15151516666666964
                },
                {
                    "name": "C3",
                    "midi": 48,
                    "time": 62.727279,
                    "velocity": 0.7874015748031497,
                    "duration": 0.15151516666666964
                },
                {
                    "name": "G1",
                    "midi": 31,
                    "time": 63.181824500000005,
                    "velocity": 0.7874015748031497,
                    "duration": 0.15151516666666964
                },
                {
                    "name": "G2",
                    "midi": 43,
                    "time": 63.181824500000005,
                    "velocity": 0.7874015748031497,
                    "duration": 0.15151516666666964
                },
                {
                    "name": "C2",
                    "midi": 36,
                    "time": 63.63637000000001,
                    "velocity": 0.7874015748031497,
                    "duration": 0.15151516666666964
                },
                {
                    "name": "C3",
                    "midi": 48,
                    "time": 63.63637000000001,
                    "velocity": 0.7874015748031497,
                    "duration": 0.15151516666666964
                },
                {
                    "name": "D#2",
                    "midi": 39,
                    "time": 64.09091550000001,
                    "velocity": 0.7874015748031497,
                    "duration": 0.15151516666666964
                },
                {
                    "name": "D#3",
                    "midi": 51,
                    "time": 64.09091550000001,
                    "velocity": 0.7874015748031497,
                    "duration": 0.15151516666666964
                },
                {
                    "name": "C2",
                    "midi": 36,
                    "time": 64.54546100000002,
                    "velocity": 0.7874015748031497,
                    "duration": 0.15151516666666964
                },
                {
                    "name": "C3",
                    "midi": 48,
                    "time": 64.54546100000002,
                    "velocity": 0.7874015748031497,
                    "duration": 0.15151516666666964
                },
                {
                    "name": "D#2",
                    "midi": 39,
                    "time": 65.00000650000003,
                    "velocity": 0.7874015748031497,
                    "duration": 0.15151516666666964
                },
                {
                    "name": "D#3",
                    "midi": 51,
                    "time": 65.00000650000003,
                    "velocity": 0.7874015748031497,
                    "duration": 0.15151516666666964
                },
                {
                    "name": "C2",
                    "midi": 36,
                    "time": 65.45455200000004,
                    "velocity": 0.7874015748031497,
                    "duration": 0.15151516666666964
                },
                {
                    "name": "C3",
                    "midi": 48,
                    "time": 65.45455200000004,
                    "velocity": 0.7874015748031497,
                    "duration": 0.15151516666666964
                },
                {
                    "name": "C2",
                    "midi": 36,
                    "time": 65.90909750000004,
                    "velocity": 0.7874015748031497,
                    "duration": 0.15151516666666964
                },
                {
                    "name": "C3",
                    "midi": 48,
                    "time": 65.90909750000004,
                    "velocity": 0.7874015748031497,
                    "duration": 0.15151516666666964
                },
                {
                    "name": "F2",
                    "midi": 41,
                    "time": 66.36364300000005,
                    "velocity": 0.7874015748031497,
                    "duration": 0.15151516666666964
                },
                {
                    "name": "F3",
                    "midi": 53,
                    "time": 66.36364300000005,
                    "velocity": 0.7874015748031497,
                    "duration": 0.15151516666666964
                },
                {
                    "name": "C2",
                    "midi": 36,
                    "time": 66.81818850000006,
                    "velocity": 0.7874015748031497,
                    "duration": 0.15151516666666964
                },
                {
                    "name": "C3",
                    "midi": 48,
                    "time": 66.81818850000006,
                    "velocity": 0.7874015748031497,
                    "duration": 0.15151516666666964
                },
                {
                    "name": "F2",
                    "midi": 41,
                    "time": 67.27273400000007,
                    "velocity": 0.7874015748031497,
                    "duration": 0.15151516666666964
                },
                {
                    "name": "F3",
                    "midi": 53,
                    "time": 67.27273400000007,
                    "velocity": 0.7874015748031497,
                    "duration": 0.15151516666666964
                },
                {
                    "name": "G#2",
                    "midi": 44,
                    "time": 67.72727950000008,
                    "velocity": 0.7874015748031497,
                    "duration": 0.15151516666666964
                },
                {
                    "name": "G#3",
                    "midi": 56,
                    "time": 67.72727950000008,
                    "velocity": 0.7874015748031497,
                    "duration": 0.15151516666666964
                },
                {
                    "name": "F2",
                    "midi": 41,
                    "time": 68.18182500000009,
                    "velocity": 0.7874015748031497,
                    "duration": 0.15151516666666964
                },
                {
                    "name": "F3",
                    "midi": 53,
                    "time": 68.18182500000009,
                    "velocity": 0.7874015748031497,
                    "duration": 0.15151516666666964
                },
                {
                    "name": "G#2",
                    "midi": 44,
                    "time": 68.6363705000001,
                    "velocity": 0.7874015748031497,
                    "duration": 0.15151516666666964
                },
                {
                    "name": "G#3",
                    "midi": 56,
                    "time": 68.6363705000001,
                    "velocity": 0.7874015748031497,
                    "duration": 0.15151516666666964
                },
                {
                    "name": "G2",
                    "midi": 43,
                    "time": 69.0909160000001,
                    "velocity": 0.7874015748031497,
                    "duration": 0.15151516666666964
                },
                {
                    "name": "G3",
                    "midi": 55,
                    "time": 69.0909160000001,
                    "velocity": 0.7874015748031497,
                    "duration": 0.15151516666666964
                },
                {
                    "name": "G1",
                    "midi": 31,
                    "time": 69.54546150000012,
                    "velocity": 0.7874015748031497,
                    "duration": 0.15151516666666964
                },
                {
                    "name": "G2",
                    "midi": 43,
                    "time": 69.54546150000012,
                    "velocity": 0.7874015748031497,
                    "duration": 0.15151516666666964
                },
                {
                    "name": "G2",
                    "midi": 43,
                    "time": 70.00000700000012,
                    "velocity": 0.7874015748031497,
                    "duration": 0.15151516666666964
                },
                {
                    "name": "G3",
                    "midi": 55,
                    "time": 70.00000700000012,
                    "velocity": 0.7874015748031497,
                    "duration": 0.15151516666666964
                },
                {
                    "name": "G1",
                    "midi": 31,
                    "time": 70.45455250000013,
                    "velocity": 0.7874015748031497,
                    "duration": 0.15151516666666964
                },
                {
                    "name": "G2",
                    "midi": 43,
                    "time": 70.45455250000013,
                    "velocity": 0.7874015748031497,
                    "duration": 0.15151516666666964
                },
                {
                    "name": "G2",
                    "midi": 43,
                    "time": 70.90909800000014,
                    "velocity": 0.7874015748031497,
                    "duration": 0.15151516666666964
                },
                {
                    "name": "G3",
                    "midi": 55,
                    "time": 70.90909800000014,
                    "velocity": 0.7874015748031497,
                    "duration": 0.15151516666666964
                },
                {
                    "name": "G1",
                    "midi": 31,
                    "time": 71.36364350000015,
                    "velocity": 0.7874015748031497,
                    "duration": 0.15151516666666964
                },
                {
                    "name": "G2",
                    "midi": 43,
                    "time": 71.36364350000015,
                    "velocity": 0.7874015748031497,
                    "duration": 0.15151516666666964
                },
                {
                    "name": "G2",
                    "midi": 43,
                    "time": 71.81818900000016,
                    "velocity": 0.7874015748031497,
                    "duration": 0.15151516666666964
                },
                {
                    "name": "G3",
                    "midi": 55,
                    "time": 71.81818900000016,
                    "velocity": 0.7874015748031497,
                    "duration": 0.15151516666666964
                },
                {
                    "name": "G1",
                    "midi": 31,
                    "time": 72.27273450000017,
                    "velocity": 0.7874015748031497,
                    "duration": 0.15151516666666964
                },
                {
                    "name": "G2",
                    "midi": 43,
                    "time": 72.27273450000017,
                    "velocity": 0.7874015748031497,
                    "duration": 0.15151516666666964
                },
                {
                    "name": "C2",
                    "midi": 36,
                    "time": 72.72728000000018,
                    "velocity": 0.7874015748031497,
                    "duration": 0.2878788166666624
                },
                {
                    "name": "C3",
                    "midi": 48,
                    "time": 72.72728000000018,
                    "velocity": 0.7874015748031497,
                    "duration": 0.2878788166666624
                },
                {
                    "name": "G3",
                    "midi": 55,
                    "time": 73.18182550000017,
                    "velocity": 0.7874015748031497,
                    "duration": 0.15151516666666964
                },
                {
                    "name": "C4",
                    "midi": 60,
                    "time": 73.63637100000018,
                    "velocity": 0.7874015748031497,
                    "duration": 0.15151516666666964
                },
                {
                    "name": "G3",
                    "midi": 55,
                    "time": 74.09091650000019,
                    "velocity": 0.7874015748031497,
                    "duration": 0.15151516666666964
                },
                {
                    "name": "C4",
                    "midi": 60,
                    "time": 74.5454620000002,
                    "velocity": 0.7874015748031497,
                    "duration": 0.15151516666666964
                },
                {
                    "name": "D#4",
                    "midi": 63,
                    "time": 75.00000750000021,
                    "velocity": 0.7874015748031497,
                    "duration": 0.15151516666666964
                },
                {
                    "name": "C4",
                    "midi": 60,
                    "time": 75.45455300000022,
                    "velocity": 0.7874015748031497,
                    "duration": 0.15151516666666964
                },
                {
                    "name": "D#4",
                    "midi": 63,
                    "time": 75.90909850000023,
                    "velocity": 0.7874015748031497,
                    "duration": 0.15151516666666964
                },
                {
                    "name": "C4",
                    "midi": 60,
                    "time": 76.36364400000024,
                    "velocity": 0.7874015748031497,
                    "duration": 0.15151516666666964
                },
                {
                    "name": "F3",
                    "midi": 53,
                    "time": 76.81818950000024,
                    "velocity": 0.7874015748031497,
                    "duration": 0.15151516666666964
                },
                {
                    "name": "C4",
                    "midi": 60,
                    "time": 76.81818950000024,
                    "velocity": 0.7874015748031497,
                    "duration": 0.15151516666666964
                },
                {
                    "name": "A#3",
                    "midi": 58,
                    "time": 77.27273500000025,
                    "velocity": 0.7874015748031497,
                    "duration": 0.15151516666666964
                },
                {
                    "name": "D4",
                    "midi": 62,
                    "time": 77.27273500000025,
                    "velocity": 0.7874015748031497,
                    "duration": 0.15151516666666964
                },
                {
                    "name": "F3",
                    "midi": 53,
                    "time": 77.72728050000026,
                    "velocity": 0.7874015748031497,
                    "duration": 0.15151516666666964
                },
                {
                    "name": "D#4",
                    "midi": 63,
                    "time": 77.72728050000026,
                    "velocity": 0.7874015748031497,
                    "duration": 0.15151516666666964
                },
                {
                    "name": "F4",
                    "midi": 65,
                    "time": 78.18182600000027,
                    "velocity": 0.7874015748031497,
                    "duration": 0.15151516666666964
                },
                {
                    "name": "A#3",
                    "midi": 58,
                    "time": 78.18182600000027,
                    "velocity": 0.7874015748031497,
                    "duration": 0.15151516666666964
                },
                {
                    "name": "F4",
                    "midi": 65,
                    "time": 78.63637150000028,
                    "velocity": 0.7874015748031497,
                    "duration": 0.15151516666666964
                },
                {
                    "name": "D4",
                    "midi": 62,
                    "time": 78.63637150000028,
                    "velocity": 0.7874015748031497,
                    "duration": 0.15151516666666964
                },
                {
                    "name": "F4",
                    "midi": 65,
                    "time": 79.09091700000029,
                    "velocity": 0.7874015748031497,
                    "duration": 0.15151516666666964
                },
                {
                    "name": "A#3",
                    "midi": 58,
                    "time": 79.09091700000029,
                    "velocity": 0.7874015748031497,
                    "duration": 0.15151516666666964
                },
                {
                    "name": "F4",
                    "midi": 65,
                    "time": 79.5454625000003,
                    "velocity": 0.7874015748031497,
                    "duration": 0.15151516666666964
                },
                {
                    "name": "D4",
                    "midi": 62,
                    "time": 79.5454625000003,
                    "velocity": 0.7874015748031497,
                    "duration": 0.15151516666666964
                },
                {
                    "name": "F4",
                    "midi": 65,
                    "time": 80.0000080000003,
                    "velocity": 0.7874015748031497,
                    "duration": 0.15151516666666964
                },
                {
                    "name": "A#3",
                    "midi": 58,
                    "time": 80.0000080000003,
                    "velocity": 0.7874015748031497,
                    "duration": 0.15151516666666964
                },
                {
                    "name": "A#1",
                    "midi": 34,
                    "time": 80.45455350000032,
                    "velocity": 0.7874015748031497,
                    "duration": 0.15151516666666964
                },
                {
                    "name": "A#2",
                    "midi": 46,
                    "time": 80.45455350000032,
                    "velocity": 0.7874015748031497,
                    "duration": 0.15151516666666964
                },
                {
                    "name": "D#2",
                    "midi": 39,
                    "time": 80.90909900000032,
                    "velocity": 0.7874015748031497,
                    "duration": 0.15151516666666964
                },
                {
                    "name": "D#3",
                    "midi": 51,
                    "time": 80.90909900000032,
                    "velocity": 0.7874015748031497,
                    "duration": 0.15151516666666964
                },
                {
                    "name": "A#1",
                    "midi": 34,
                    "time": 81.36364450000033,
                    "velocity": 0.7874015748031497,
                    "duration": 0.15151516666666964
                },
                {
                    "name": "A#2",
                    "midi": 46,
                    "time": 81.36364450000033,
                    "velocity": 0.7874015748031497,
                    "duration": 0.15151516666666964
                },
                {
                    "name": "D#2",
                    "midi": 39,
                    "time": 81.81819000000034,
                    "velocity": 0.7874015748031497,
                    "duration": 0.15151516666666964
                },
                {
                    "name": "D#3",
                    "midi": 51,
                    "time": 81.81819000000034,
                    "velocity": 0.7874015748031497,
                    "duration": 0.15151516666666964
                },
                {
                    "name": "G2",
                    "midi": 43,
                    "time": 82.27273550000035,
                    "velocity": 0.7874015748031497,
                    "duration": 0.15151516666666964
                },
                {
                    "name": "G3",
                    "midi": 55,
                    "time": 82.27273550000035,
                    "velocity": 0.7874015748031497,
                    "duration": 0.15151516666666964
                },
                {
                    "name": "D#2",
                    "midi": 39,
                    "time": 82.72728100000036,
                    "velocity": 0.7874015748031497,
                    "duration": 0.15151516666666964
                },
                {
                    "name": "D#3",
                    "midi": 51,
                    "time": 82.72728100000036,
                    "velocity": 0.7874015748031497,
                    "duration": 0.15151516666666964
                },
                {
                    "name": "G2",
                    "midi": 43,
                    "time": 83.18182650000037,
                    "velocity": 0.7874015748031497,
                    "duration": 0.15151516666666964
                },
                {
                    "name": "G3",
                    "midi": 55,
                    "time": 83.18182650000037,
                    "velocity": 0.7874015748031497,
                    "duration": 0.15151516666666964
                },
                {
                    "name": "D#2",
                    "midi": 39,
                    "time": 83.63637200000038,
                    "velocity": 0.7874015748031497,
                    "duration": 0.15151516666666964
                },
                {
                    "name": "D#3",
                    "midi": 51,
                    "time": 83.63637200000038,
                    "velocity": 0.7874015748031497,
                    "duration": 0.15151516666666964
                },
                {
                    "name": "F2",
                    "midi": 41,
                    "time": 84.09091750000039,
                    "velocity": 0.7874015748031497,
                    "duration": 0.15151516666666964
                },
                {
                    "name": "F3",
                    "midi": 53,
                    "time": 84.09091750000039,
                    "velocity": 0.7874015748031497,
                    "duration": 0.15151516666666964
                },
                {
                    "name": "G2",
                    "midi": 43,
                    "time": 84.5454630000004,
                    "velocity": 0.7874015748031497,
                    "duration": 0.15151516666666964
                },
                {
                    "name": "G3",
                    "midi": 55,
                    "time": 84.5454630000004,
                    "velocity": 0.7874015748031497,
                    "duration": 0.15151516666666964
                },
                {
                    "name": "D#2",
                    "midi": 39,
                    "time": 85.0000085000004,
                    "velocity": 0.7874015748031497,
                    "duration": 0.15151516666666964
                },
                {
                    "name": "D#3",
                    "midi": 51,
                    "time": 85.0000085000004,
                    "velocity": 0.7874015748031497,
                    "duration": 0.15151516666666964
                },
                {
                    "name": "G#3",
                    "midi": 56,
                    "time": 85.45455400000041,
                    "velocity": 0.7874015748031497,
                    "duration": 0.15151516666666964
                },
                {
                    "name": "G#2",
                    "midi": 44,
                    "time": 85.45455400000041,
                    "velocity": 0.7874015748031497,
                    "duration": 0.15151516666666964
                },
                {
                    "name": "G#2",
                    "midi": 44,
                    "time": 85.90909950000042,
                    "velocity": 0.7874015748031497,
                    "duration": 0.15151516666666964
                },
                {
                    "name": "G#3",
                    "midi": 56,
                    "time": 85.90909950000042,
                    "velocity": 0.7874015748031497,
                    "duration": 0.15151516666666964
                },
                {
                    "name": "F2",
                    "midi": 41,
                    "time": 86.36364500000043,
                    "velocity": 0.7874015748031497,
                    "duration": 0.15151516666666964
                },
                {
                    "name": "F3",
                    "midi": 53,
                    "time": 86.36364500000043,
                    "velocity": 0.7874015748031497,
                    "duration": 0.15151516666666964
                },
                {
                    "name": "G#2",
                    "midi": 44,
                    "time": 86.81819050000044,
                    "velocity": 0.7874015748031497,
                    "duration": 0.15151516666666964
                },
                {
                    "name": "G#3",
                    "midi": 56,
                    "time": 86.81819050000044,
                    "velocity": 0.7874015748031497,
                    "duration": 0.15151516666666964
                },
                {
                    "name": "F2",
                    "midi": 41,
                    "time": 87.27273600000045,
                    "velocity": 0.7874015748031497,
                    "duration": 0.15151516666666964
                },
                {
                    "name": "F3",
                    "midi": 53,
                    "time": 87.27273600000045,
                    "velocity": 0.7874015748031497,
                    "duration": 0.15151516666666964
                },
                {
                    "name": "F2",
                    "midi": 41,
                    "time": 87.72728150000046,
                    "velocity": 0.7874015748031497,
                    "duration": 0.15151516666666964
                },
                {
                    "name": "F3",
                    "midi": 53,
                    "time": 88.18182700000047,
                    "velocity": 0.7874015748031497,
                    "duration": 0.15151516666666964
                },
                {
                    "name": "F2",
                    "midi": 41,
                    "time": 88.63637250000048,
                    "velocity": 0.7874015748031497,
                    "duration": 0.15151516666666964
                },
                {
                    "name": "F3",
                    "midi": 53,
                    "time": 89.09091800000049,
                    "velocity": 0.7874015748031497,
                    "duration": 0.15151516666666964
                },
                {
                    "name": "F2",
                    "midi": 41,
                    "time": 89.5454635000005,
                    "velocity": 0.7874015748031497,
                    "duration": 0.15151516666666964
                },
                {
                    "name": "F3",
                    "midi": 53,
                    "time": 90.0000090000005,
                    "velocity": 0.7874015748031497,
                    "duration": 0.15151516666666964
                },
                {
                    "name": "F2",
                    "midi": 41,
                    "time": 90.45455450000051,
                    "velocity": 0.7874015748031497,
                    "duration": 0.15151516666666964
                },
                {
                    "name": "A#2",
                    "midi": 46,
                    "time": 90.90910000000052,
                    "velocity": 0.7874015748031497,
                    "duration": 0.15151516666666964
                },
                {
                    "name": "A#3",
                    "midi": 58,
                    "time": 91.36364550000053,
                    "velocity": 0.7874015748031497,
                    "duration": 0.15151516666666964
                },
                {
                    "name": "A#2",
                    "midi": 46,
                    "time": 91.81819100000054,
                    "velocity": 0.7874015748031497,
                    "duration": 0.15151516666666964
                },
                {
                    "name": "A#3",
                    "midi": 58,
                    "time": 92.27273650000055,
                    "velocity": 0.7874015748031497,
                    "duration": 0.15151516666666964
                },
                {
                    "name": "G#2",
                    "midi": 44,
                    "time": 92.72728200000056,
                    "velocity": 0.7874015748031497,
                    "duration": 0.15151516666666964
                },
                {
                    "name": "G#3",
                    "midi": 56,
                    "time": 93.18182750000057,
                    "velocity": 0.7874015748031497,
                    "duration": 0.15151516666666964
                },
                {
                    "name": "G#2",
                    "midi": 44,
                    "time": 93.63637300000057,
                    "velocity": 0.7874015748031497,
                    "duration": 0.15151516666666964
                },
                {
                    "name": "G#3",
                    "midi": 56,
                    "time": 94.09091850000058,
                    "velocity": 0.7874015748031497,
                    "duration": 0.15151516666666964
                },
                {
                    "name": "G2",
                    "midi": 43,
                    "time": 94.54546400000059,
                    "velocity": 0.7874015748031497,
                    "duration": 0.15151516666666964
                },
                {
                    "name": "G3",
                    "midi": 55,
                    "time": 95.0000095000006,
                    "velocity": 0.7874015748031497,
                    "duration": 0.15151516666666964
                },
                {
                    "name": "G2",
                    "midi": 43,
                    "time": 95.45455500000061,
                    "velocity": 0.7874015748031497,
                    "duration": 0.15151516666666964
                },
                {
                    "name": "G3",
                    "midi": 55,
                    "time": 95.90910050000062,
                    "velocity": 0.7874015748031497,
                    "duration": 0.15151516666666964
                },
                {
                    "name": "F2",
                    "midi": 41,
                    "time": 96.36364600000063,
                    "velocity": 0.7874015748031497,
                    "duration": 0.15151516666666964
                },
                {
                    "name": "F3",
                    "midi": 53,
                    "time": 96.81819150000064,
                    "velocity": 0.7874015748031497,
                    "duration": 0.15151516666666964
                },
                {
                    "name": "F2",
                    "midi": 41,
                    "time": 97.27273700000065,
                    "velocity": 0.7874015748031497,
                    "duration": 0.15151516666666964
                },
                {
                    "name": "F3",
                    "midi": 53,
                    "time": 97.72728250000065,
                    "velocity": 0.7874015748031497,
                    "duration": 0.15151516666666964
                },
                {
                    "name": "D#2",
                    "midi": 39,
                    "time": 98.18182800000066,
                    "velocity": 0.7874015748031497,
                    "duration": 0.15151516666666964
                },
                {
                    "name": "D#3",
                    "midi": 51,
                    "time": 98.63637350000067,
                    "velocity": 0.7874015748031497,
                    "duration": 0.15151516666666964
                },
                {
                    "name": "D#2",
                    "midi": 39,
                    "time": 99.09091900000068,
                    "velocity": 0.7874015748031497,
                    "duration": 0.15151516666666964
                },
                {
                    "name": "D#3",
                    "midi": 51,
                    "time": 99.54546450000069,
                    "velocity": 0.7874015748031497,
                    "duration": 0.15151516666666964
                },
                {
                    "name": "D2",
                    "midi": 38,
                    "time": 100.0000100000007,
                    "velocity": 0.7874015748031497,
                    "duration": 0.15151516666666964
                },
                {
                    "name": "D3",
                    "midi": 50,
                    "time": 100.45455550000071,
                    "velocity": 0.7874015748031497,
                    "duration": 0.15151516666666964
                },
                {
                    "name": "D2",
                    "midi": 38,
                    "time": 100.90910100000072,
                    "velocity": 0.7874015748031497,
                    "duration": 0.15151516666666964
                },
                {
                    "name": "D3",
                    "midi": 50,
                    "time": 101.36364650000073,
                    "velocity": 0.7874015748031497,
                    "duration": 0.15151516666666964
                },
                {
                    "name": "C2",
                    "midi": 36,
                    "time": 101.81819200000074,
                    "velocity": 0.7874015748031497,
                    "duration": 0.15151516666666964
                },
                {
                    "name": "C3",
                    "midi": 48,
                    "time": 102.27273750000074,
                    "velocity": 0.7874015748031497,
                    "duration": 0.15151516666666964
                },
                {
                    "name": "C2",
                    "midi": 36,
                    "time": 102.72728300000075,
                    "velocity": 0.7874015748031497,
                    "duration": 0.15151516666666964
                },
                {
                    "name": "C3",
                    "midi": 48,
                    "time": 103.18182850000076,
                    "velocity": 0.7874015748031497,
                    "duration": 0.15151516666666964
                },
                {
                    "name": "D2",
                    "midi": 38,
                    "time": 103.63637400000077,
                    "velocity": 0.7874015748031497,
                    "duration": 0.15151516666666964
                },
                {
                    "name": "D3",
                    "midi": 50,
                    "time": 104.09091950000078,
                    "velocity": 0.7874015748031497,
                    "duration": 0.15151516666666964
                },
                {
                    "name": "D2",
                    "midi": 38,
                    "time": 104.54546500000079,
                    "velocity": 0.7874015748031497,
                    "duration": 0.15151516666666964
                },
                {
                    "name": "D3",
                    "midi": 50,
                    "time": 105.0000105000008,
                    "velocity": 0.7874015748031497,
                    "duration": 0.15151516666666964
                },
                {
                    "name": "D#2",
                    "midi": 39,
                    "time": 105.4545560000008,
                    "velocity": 0.7874015748031497,
                    "duration": 0.15151516666666964
                },
                {
                    "name": "D#3",
                    "midi": 51,
                    "time": 105.90910150000082,
                    "velocity": 0.7874015748031497,
                    "duration": 0.15151516666666964
                },
                {
                    "name": "D#2",
                    "midi": 39,
                    "time": 106.36364700000082,
                    "velocity": 0.7874015748031497,
                    "duration": 0.15151516666666964
                },
                {
                    "name": "D#3",
                    "midi": 51,
                    "time": 106.81819250000083,
                    "velocity": 0.7874015748031497,
                    "duration": 0.15151516666666964
                },
                {
                    "name": "F2",
                    "midi": 41,
                    "time": 107.27273800000084,
                    "velocity": 0.7874015748031497,
                    "duration": 0.15151516666666964
                },
                {
                    "name": "F3",
                    "midi": 53,
                    "time": 107.72728350000085,
                    "velocity": 0.7874015748031497,
                    "duration": 0.15151516666666964
                },
                {
                    "name": "F2",
                    "midi": 41,
                    "time": 108.18182900000086,
                    "velocity": 0.7874015748031497,
                    "duration": 0.15151516666666964
                },
                {
                    "name": "F3",
                    "midi": 53,
                    "time": 108.63637450000087,
                    "velocity": 0.7874015748031497,
                    "duration": 0.15151516666666964
                },
                {
                    "name": "D#2",
                    "midi": 39,
                    "time": 109.09092000000088,
                    "velocity": 0.7874015748031497,
                    "duration": 0.15151516666666964
                },
                {
                    "name": "D#3",
                    "midi": 51,
                    "time": 109.54546550000089,
                    "velocity": 0.7874015748031497,
                    "duration": 0.15151516666666964
                },
                {
                    "name": "D#2",
                    "midi": 39,
                    "time": 110.0000110000009,
                    "velocity": 0.7874015748031497,
                    "duration": 0.15151516666666964
                },
                {
                    "name": "D#3",
                    "midi": 51,
                    "time": 110.4545565000009,
                    "velocity": 0.7874015748031497,
                    "duration": 0.15151516666666964
                },
                {
                    "name": "D2",
                    "midi": 38,
                    "time": 110.90910200000091,
                    "velocity": 0.7874015748031497,
                    "duration": 0.15151516666666964
                },
                {
                    "name": "D3",
                    "midi": 50,
                    "time": 111.36364750000092,
                    "velocity": 0.7874015748031497,
                    "duration": 0.15151516666666964
                },
                {
                    "name": "D2",
                    "midi": 38,
                    "time": 111.81819300000093,
                    "velocity": 0.7874015748031497,
                    "duration": 0.15151516666666964
                },
                {
                    "name": "D3",
                    "midi": 50,
                    "time": 112.27273850000094,
                    "velocity": 0.7874015748031497,
                    "duration": 0.15151516666666964
                },
                {
                    "name": "E2",
                    "midi": 40,
                    "time": 112.72728400000095,
                    "velocity": 0.7874015748031497,
                    "duration": 0.15151516666666964
                },
                {
                    "name": "E3",
                    "midi": 52,
                    "time": 113.18182950000096,
                    "velocity": 0.7874015748031497,
                    "duration": 0.15151516666666964
                },
                {
                    "name": "E2",
                    "midi": 40,
                    "time": 113.63637500000097,
                    "velocity": 0.7874015748031497,
                    "duration": 0.15151516666666964
                },
                {
                    "name": "E3",
                    "midi": 52,
                    "time": 114.09092050000098,
                    "velocity": 0.7874015748031497,
                    "duration": 0.15151516666666964
                },
                {
                    "name": "F2",
                    "midi": 41,
                    "time": 114.54546600000099,
                    "velocity": 0.7874015748031497,
                    "duration": 0.15151516666666964
                },
                {
                    "name": "F3",
                    "midi": 53,
                    "time": 115.000011500001,
                    "velocity": 0.7874015748031497,
                    "duration": 0.15151516666666964
                },
                {
                    "name": "F2",
                    "midi": 41,
                    "time": 115.454557000001,
                    "velocity": 0.7874015748031497,
                    "duration": 0.15151516666666964
                },
                {
                    "name": "F3",
                    "midi": 53,
                    "time": 115.90910250000101,
                    "velocity": 0.7874015748031497,
                    "duration": 0.15151516666666964
                },
                {
                    "name": "G2",
                    "midi": 43,
                    "time": 116.36364800000102,
                    "velocity": 0.7874015748031497,
                    "duration": 0.15151516666666964
                },
                {
                    "name": "G3",
                    "midi": 55,
                    "time": 116.81819350000103,
                    "velocity": 0.7874015748031497,
                    "duration": 0.15151516666666964
                },
                {
                    "name": "G2",
                    "midi": 43,
                    "time": 117.27273900000104,
                    "velocity": 0.7874015748031497,
                    "duration": 0.15151516666666964
                },
                {
                    "name": "G3",
                    "midi": 55,
                    "time": 117.72728450000105,
                    "velocity": 0.7874015748031497,
                    "duration": 0.15151516666666964
                },
                {
                    "name": "A2",
                    "midi": 45,
                    "time": 118.18183000000106,
                    "velocity": 0.7874015748031497,
                    "duration": 0.15151516666666964
                },
                {
                    "name": "A3",
                    "midi": 57,
                    "time": 118.63637550000107,
                    "velocity": 0.7874015748031497,
                    "duration": 0.15151516666666964
                },
                {
                    "name": "A2",
                    "midi": 45,
                    "time": 119.09092100000107,
                    "velocity": 0.7874015748031497,
                    "duration": 0.15151516666666964
                },
                {
                    "name": "A3",
                    "midi": 57,
                    "time": 119.54546650000108,
                    "velocity": 0.7874015748031497,
                    "duration": 0.15151516666666964
                },
                {
                    "name": "A#2",
                    "midi": 46,
                    "time": 120.00001200000109,
                    "velocity": 0.7874015748031497,
                    "duration": 0.15151516666666964
                },
                {
                    "name": "A#3",
                    "midi": 58,
                    "time": 120.4545575000011,
                    "velocity": 0.7874015748031497,
                    "duration": 0.15151516666666964
                },
                {
                    "name": "A#2",
                    "midi": 46,
                    "time": 120.90910300000111,
                    "velocity": 0.7874015748031497,
                    "duration": 0.15151516666666964
                },
                {
                    "name": "A#3",
                    "midi": 58,
                    "time": 121.36364850000112,
                    "velocity": 0.7874015748031497,
                    "duration": 0.15151516666666964
                },
                {
                    "name": "C3",
                    "midi": 48,
                    "time": 121.81819400000113,
                    "velocity": 0.7874015748031497,
                    "duration": 0.15151516666666964
                },
                {
                    "name": "C4",
                    "midi": 60,
                    "time": 122.27273950000114,
                    "velocity": 0.7874015748031497,
                    "duration": 0.15151516666666964
                },
                {
                    "name": "C3",
                    "midi": 48,
                    "time": 122.72728500000115,
                    "velocity": 0.7874015748031497,
                    "duration": 0.15151516666666964
                },
                {
                    "name": "C4",
                    "midi": 60,
                    "time": 123.18183050000115,
                    "velocity": 0.7874015748031497,
                    "duration": 0.15151516666666964
                },
                {
                    "name": "D3",
                    "midi": 50,
                    "time": 123.63637600000116,
                    "velocity": 0.7874015748031497,
                    "duration": 0.15151516666666964
                },
                {
                    "name": "D4",
                    "midi": 62,
                    "time": 124.09092150000117,
                    "velocity": 0.7874015748031497,
                    "duration": 0.15151516666666964
                },
                {
                    "name": "D3",
                    "midi": 50,
                    "time": 124.54546700000118,
                    "velocity": 0.7874015748031497,
                    "duration": 0.15151516666666964
                },
                {
                    "name": "D4",
                    "midi": 62,
                    "time": 125.00001250000119,
                    "velocity": 0.7874015748031497,
                    "duration": 0.15151516666666964
                },
                {
                    "name": "D#2",
                    "midi": 39,
                    "time": 125.4545580000012,
                    "velocity": 0.7874015748031497,
                    "duration": 0.15151516666666964
                },
                {
                    "name": "D#3",
                    "midi": 51,
                    "time": 125.90910350000121,
                    "velocity": 0.7874015748031497,
                    "duration": 0.15151516666666964
                },
                {
                    "name": "D#2",
                    "midi": 39,
                    "time": 126.36364900000122,
                    "velocity": 0.7874015748031497,
                    "duration": 0.15151516666666964
                },
                {
                    "name": "D#3",
                    "midi": 51,
                    "time": 126.81819450000123,
                    "velocity": 0.7874015748031497,
                    "duration": 0.15151516666666964
                },
                {
                    "name": "F2",
                    "midi": 41,
                    "time": 127.27274000000124,
                    "velocity": 0.7874015748031497,
                    "duration": 0.15151516666666964
                },
                {
                    "name": "F3",
                    "midi": 53,
                    "time": 127.72728550000124,
                    "velocity": 0.7874015748031497,
                    "duration": 0.15151516666666964
                },
                {
                    "name": "F2",
                    "midi": 41,
                    "time": 128.18183100000124,
                    "velocity": 0.7874015748031497,
                    "duration": 0.15151516666665543
                },
                {
                    "name": "F3",
                    "midi": 53,
                    "time": 128.63637650000123,
                    "velocity": 0.7874015748031497,
                    "duration": 0.15151516666665543
                },
                {
                    "name": "G2",
                    "midi": 43,
                    "time": 129.09092200000123,
                    "velocity": 0.7874015748031497,
                    "duration": 0.15151516666665543
                },
                {
                    "name": "G3",
                    "midi": 55,
                    "time": 129.54546750000122,
                    "velocity": 0.7874015748031497,
                    "duration": 0.15151516666665543
                },
                {
                    "name": "G2",
                    "midi": 43,
                    "time": 130.00001300000122,
                    "velocity": 0.7874015748031497,
                    "duration": 0.15151516666665543
                },
                {
                    "name": "G3",
                    "midi": 55,
                    "time": 130.4545585000012,
                    "velocity": 0.7874015748031497,
                    "duration": 0.15151516666665543
                },
                {
                    "name": "G#2",
                    "midi": 44,
                    "time": 130.9091040000012,
                    "velocity": 0.7874015748031497,
                    "duration": 0.15151516666665543
                },
                {
                    "name": "G#3",
                    "midi": 56,
                    "time": 131.3636495000012,
                    "velocity": 0.7874015748031497,
                    "duration": 0.15151516666665543
                },
                {
                    "name": "G#2",
                    "midi": 44,
                    "time": 131.8181950000012,
                    "velocity": 0.7874015748031497,
                    "duration": 0.15151516666665543
                },
                {
                    "name": "G#3",
                    "midi": 56,
                    "time": 132.2727405000012,
                    "velocity": 0.7874015748031497,
                    "duration": 0.15151516666665543
                },
                {
                    "name": "G3",
                    "midi": 55,
                    "time": 132.7272860000012,
                    "velocity": 0.7874015748031497,
                    "duration": 0.15151516666665543
                },
                {
                    "name": "F3",
                    "midi": 53,
                    "time": 133.18183150000118,
                    "velocity": 0.7874015748031497,
                    "duration": 0.15151516666665543
                },
                {
                    "name": "G3",
                    "midi": 55,
                    "time": 133.63637700000118,
                    "velocity": 0.7874015748031497,
                    "duration": 0.15151516666665543
                },
                {
                    "name": "G2",
                    "midi": 43,
                    "time": 134.09092250000117,
                    "velocity": 0.7874015748031497,
                    "duration": 0.15151516666665543
                },
                {
                    "name": "C2",
                    "midi": 36,
                    "time": 134.54546800000116,
                    "velocity": 0.7874015748031497,
                    "duration": 0.2878788166666766
                },
                {
                    "name": "C3",
                    "midi": 48,
                    "time": 134.54546800000116,
                    "velocity": 0.7874015748031497,
                    "duration": 0.2878788166666766
                },
                {
                    "name": "D2",
                    "midi": 38,
                    "time": 147.72728750000118,
                    "velocity": 0.7874015748031497,
                    "duration": 0.15151516666665543
                },
                {
                    "name": "D3",
                    "midi": 50,
                    "time": 147.72728750000118,
                    "velocity": 0.7874015748031497,
                    "duration": 0.15151516666665543
                },
                {
                    "name": "G2",
                    "midi": 43,
                    "time": 148.18183300000118,
                    "velocity": 0.7874015748031497,
                    "duration": 0.15151516666665543
                },
                {
                    "name": "G3",
                    "midi": 55,
                    "time": 148.18183300000118,
                    "velocity": 0.7874015748031497,
                    "duration": 0.15151516666665543
                },
                {
                    "name": "D2",
                    "midi": 38,
                    "time": 148.63637850000117,
                    "velocity": 0.7874015748031497,
                    "duration": 0.15151516666665543
                },
                {
                    "name": "D3",
                    "midi": 50,
                    "time": 148.63637850000117,
                    "velocity": 0.7874015748031497,
                    "duration": 0.15151516666665543
                },
                {
                    "name": "G2",
                    "midi": 43,
                    "time": 149.09092400000117,
                    "velocity": 0.7874015748031497,
                    "duration": 0.15151516666665543
                },
                {
                    "name": "G3",
                    "midi": 55,
                    "time": 149.09092400000117,
                    "velocity": 0.7874015748031497,
                    "duration": 0.15151516666665543
                },
                {
                    "name": "A#3",
                    "midi": 58,
                    "time": 149.54546950000116,
                    "velocity": 0.7874015748031497,
                    "duration": 0.15151516666665543
                },
                {
                    "name": "A#2",
                    "midi": 46,
                    "time": 149.54546950000116,
                    "velocity": 0.7874015748031497,
                    "duration": 0.15151516666665543
                },
                {
                    "name": "G2",
                    "midi": 43,
                    "time": 150.00001500000116,
                    "velocity": 0.7874015748031497,
                    "duration": 0.15151516666665543
                },
                {
                    "name": "G3",
                    "midi": 55,
                    "time": 150.00001500000116,
                    "velocity": 0.7874015748031497,
                    "duration": 0.15151516666665543
                },
                {
                    "name": "A#3",
                    "midi": 58,
                    "time": 150.45456050000115,
                    "velocity": 0.7874015748031497,
                    "duration": 0.15151516666665543
                },
                {
                    "name": "A#2",
                    "midi": 46,
                    "time": 150.45456050000115,
                    "velocity": 0.7874015748031497,
                    "duration": 0.15151516666665543
                },
                {
                    "name": "G2",
                    "midi": 43,
                    "time": 150.90910600000115,
                    "velocity": 0.7874015748031497,
                    "duration": 0.15151516666665543
                },
                {
                    "name": "G3",
                    "midi": 55,
                    "time": 150.90910600000115,
                    "velocity": 0.7874015748031497,
                    "duration": 0.15151516666665543
                },
                {
                    "name": "D2",
                    "midi": 38,
                    "time": 151.36365150000114,
                    "velocity": 0.7874015748031497,
                    "duration": 0.15151516666665543
                },
                {
                    "name": "D3",
                    "midi": 50,
                    "time": 151.36365150000114,
                    "velocity": 0.7874015748031497,
                    "duration": 0.15151516666665543
                },
                {
                    "name": "G2",
                    "midi": 43,
                    "time": 151.81819700000113,
                    "velocity": 0.7874015748031497,
                    "duration": 0.15151516666665543
                },
                {
                    "name": "G3",
                    "midi": 55,
                    "time": 151.81819700000113,
                    "velocity": 0.7874015748031497,
                    "duration": 0.15151516666665543
                },
                {
                    "name": "D2",
                    "midi": 38,
                    "time": 152.27274250000113,
                    "velocity": 0.7874015748031497,
                    "duration": 0.15151516666665543
                },
                {
                    "name": "D3",
                    "midi": 50,
                    "time": 152.27274250000113,
                    "velocity": 0.7874015748031497,
                    "duration": 0.15151516666665543
                },
                {
                    "name": "G2",
                    "midi": 43,
                    "time": 152.72728800000112,
                    "velocity": 0.7874015748031497,
                    "duration": 0.15151516666665543
                },
                {
                    "name": "G3",
                    "midi": 55,
                    "time": 152.72728800000112,
                    "velocity": 0.7874015748031497,
                    "duration": 0.15151516666665543
                },
                {
                    "name": "G1",
                    "midi": 31,
                    "time": 153.18183350000112,
                    "velocity": 0.7874015748031497,
                    "duration": 0.15151516666665543
                },
                {
                    "name": "G2",
                    "midi": 43,
                    "time": 153.18183350000112,
                    "velocity": 0.7874015748031497,
                    "duration": 0.15151516666665543
                },
                {
                    "name": "C2",
                    "midi": 36,
                    "time": 153.6363790000011,
                    "velocity": 0.7874015748031497,
                    "duration": 0.15151516666665543
                },
                {
                    "name": "C3",
                    "midi": 48,
                    "time": 153.6363790000011,
                    "velocity": 0.7874015748031497,
                    "duration": 0.15151516666665543
                },
                {
                    "name": "G1",
                    "midi": 31,
                    "time": 154.0909245000011,
                    "velocity": 0.7874015748031497,
                    "duration": 0.15151516666665543
                },
                {
                    "name": "G2",
                    "midi": 43,
                    "time": 154.0909245000011,
                    "velocity": 0.7874015748031497,
                    "duration": 0.15151516666665543
                },
                {
                    "name": "C2",
                    "midi": 36,
                    "time": 154.5454700000011,
                    "velocity": 0.7874015748031497,
                    "duration": 0.15151516666665543
                },
                {
                    "name": "C3",
                    "midi": 48,
                    "time": 154.5454700000011,
                    "velocity": 0.7874015748031497,
                    "duration": 0.15151516666665543
                },
                {
                    "name": "D#2",
                    "midi": 39,
                    "time": 155.0000155000011,
                    "velocity": 0.7874015748031497,
                    "duration": 0.15151516666665543
                },
                {
                    "name": "D#3",
                    "midi": 51,
                    "time": 155.0000155000011,
                    "velocity": 0.7874015748031497,
                    "duration": 0.15151516666665543
                },
                {
                    "name": "C2",
                    "midi": 36,
                    "time": 155.4545610000011,
                    "velocity": 0.7874015748031497,
                    "duration": 0.15151516666665543
                },
                {
                    "name": "C3",
                    "midi": 48,
                    "time": 155.4545610000011,
                    "velocity": 0.7874015748031497,
                    "duration": 0.15151516666665543
                },
                {
                    "name": "D#2",
                    "midi": 39,
                    "time": 155.9091065000011,
                    "velocity": 0.7874015748031497,
                    "duration": 0.15151516666665543
                },
                {
                    "name": "D#3",
                    "midi": 51,
                    "time": 155.9091065000011,
                    "velocity": 0.7874015748031497,
                    "duration": 0.15151516666665543
                },
                {
                    "name": "C2",
                    "midi": 36,
                    "time": 156.36365200000108,
                    "velocity": 0.7874015748031497,
                    "duration": 0.15151516666665543
                },
                {
                    "name": "C3",
                    "midi": 48,
                    "time": 156.36365200000108,
                    "velocity": 0.7874015748031497,
                    "duration": 0.15151516666665543
                },
                {
                    "name": "C2",
                    "midi": 36,
                    "time": 156.81819750000108,
                    "velocity": 0.7874015748031497,
                    "duration": 0.15151516666665543
                },
                {
                    "name": "C3",
                    "midi": 48,
                    "time": 156.81819750000108,
                    "velocity": 0.7874015748031497,
                    "duration": 0.15151516666665543
                },
                {
                    "name": "F2",
                    "midi": 41,
                    "time": 157.27274300000107,
                    "velocity": 0.7874015748031497,
                    "duration": 0.15151516666665543
                },
                {
                    "name": "F3",
                    "midi": 53,
                    "time": 157.27274300000107,
                    "velocity": 0.7874015748031497,
                    "duration": 0.15151516666665543
                },
                {
                    "name": "C2",
                    "midi": 36,
                    "time": 157.72728850000107,
                    "velocity": 0.7874015748031497,
                    "duration": 0.15151516666665543
                },
                {
                    "name": "C3",
                    "midi": 48,
                    "time": 157.72728850000107,
                    "velocity": 0.7874015748031497,
                    "duration": 0.15151516666665543
                },
                {
                    "name": "F2",
                    "midi": 41,
                    "time": 158.18183400000106,
                    "velocity": 0.7874015748031497,
                    "duration": 0.15151516666665543
                },
                {
                    "name": "F3",
                    "midi": 53,
                    "time": 158.18183400000106,
                    "velocity": 0.7874015748031497,
                    "duration": 0.15151516666665543
                },
                {
                    "name": "G#2",
                    "midi": 44,
                    "time": 158.63637950000106,
                    "velocity": 0.7874015748031497,
                    "duration": 0.15151516666665543
                },
                {
                    "name": "G#3",
                    "midi": 56,
                    "time": 158.63637950000106,
                    "velocity": 0.7874015748031497,
                    "duration": 0.15151516666665543
                },
                {
                    "name": "F2",
                    "midi": 41,
                    "time": 159.09092500000105,
                    "velocity": 0.7874015748031497,
                    "duration": 0.15151516666665543
                },
                {
                    "name": "F3",
                    "midi": 53,
                    "time": 159.09092500000105,
                    "velocity": 0.7874015748031497,
                    "duration": 0.15151516666665543
                },
                {
                    "name": "G#2",
                    "midi": 44,
                    "time": 159.54547050000104,
                    "velocity": 0.7874015748031497,
                    "duration": 0.15151516666665543
                },
                {
                    "name": "G#3",
                    "midi": 56,
                    "time": 159.54547050000104,
                    "velocity": 0.7874015748031497,
                    "duration": 0.15151516666665543
                },
                {
                    "name": "G2",
                    "midi": 43,
                    "time": 160.00001600000104,
                    "velocity": 0.7874015748031497,
                    "duration": 0.15151516666665543
                },
                {
                    "name": "G3",
                    "midi": 55,
                    "time": 160.00001600000104,
                    "velocity": 0.7874015748031497,
                    "duration": 0.15151516666665543
                },
                {
                    "name": "G1",
                    "midi": 31,
                    "time": 160.45456150000103,
                    "velocity": 0.7874015748031497,
                    "duration": 0.15151516666665543
                },
                {
                    "name": "G2",
                    "midi": 43,
                    "time": 160.45456150000103,
                    "velocity": 0.7874015748031497,
                    "duration": 0.15151516666665543
                },
                {
                    "name": "G2",
                    "midi": 43,
                    "time": 160.90910700000103,
                    "velocity": 0.7874015748031497,
                    "duration": 0.15151516666665543
                },
                {
                    "name": "G3",
                    "midi": 55,
                    "time": 160.90910700000103,
                    "velocity": 0.7874015748031497,
                    "duration": 0.15151516666665543
                },
                {
                    "name": "G1",
                    "midi": 31,
                    "time": 161.36365250000102,
                    "velocity": 0.7874015748031497,
                    "duration": 0.15151516666665543
                },
                {
                    "name": "G2",
                    "midi": 43,
                    "time": 161.36365250000102,
                    "velocity": 0.7874015748031497,
                    "duration": 0.15151516666665543
                },
                {
                    "name": "G2",
                    "midi": 43,
                    "time": 161.81819800000102,
                    "velocity": 0.7874015748031497,
                    "duration": 0.15151516666665543
                },
                {
                    "name": "G3",
                    "midi": 55,
                    "time": 161.81819800000102,
                    "velocity": 0.7874015748031497,
                    "duration": 0.15151516666665543
                },
                {
                    "name": "G1",
                    "midi": 31,
                    "time": 162.272743500001,
                    "velocity": 0.7874015748031497,
                    "duration": 0.15151516666665543
                },
                {
                    "name": "G2",
                    "midi": 43,
                    "time": 162.272743500001,
                    "velocity": 0.7874015748031497,
                    "duration": 0.15151516666665543
                },
                {
                    "name": "G2",
                    "midi": 43,
                    "time": 162.727289000001,
                    "velocity": 0.7874015748031497,
                    "duration": 0.15151516666665543
                },
                {
                    "name": "G3",
                    "midi": 55,
                    "time": 162.727289000001,
                    "velocity": 0.7874015748031497,
                    "duration": 0.15151516666665543
                },
                {
                    "name": "G1",
                    "midi": 31,
                    "time": 163.181834500001,
                    "velocity": 0.7874015748031497,
                    "duration": 0.15151516666665543
                },
                {
                    "name": "G2",
                    "midi": 43,
                    "time": 163.181834500001,
                    "velocity": 0.7874015748031497,
                    "duration": 0.15151516666665543
                },
                {
                    "name": "C2",
                    "midi": 36,
                    "time": 163.636380000001,
                    "velocity": 0.7874015748031497,
                    "duration": 0.2878788166666766
                },
                {
                    "name": "C3",
                    "midi": 48,
                    "time": 163.636380000001,
                    "velocity": 0.7874015748031497,
                    "duration": 0.2878788166666766
                },
                {
                    "name": "G3",
                    "midi": 55,
                    "time": 164.09092550000102,
                    "velocity": 0.7874015748031497,
                    "duration": 0.15151516666665543
                },
                {
                    "name": "C4",
                    "midi": 60,
                    "time": 164.54547100000102,
                    "velocity": 0.7874015748031497,
                    "duration": 0.15151516666665543
                },
                {
                    "name": "G3",
                    "midi": 55,
                    "time": 165.000016500001,
                    "velocity": 0.7874015748031497,
                    "duration": 0.15151516666665543
                },
                {
                    "name": "C4",
                    "midi": 60,
                    "time": 165.454562000001,
                    "velocity": 0.7874015748031497,
                    "duration": 0.15151516666665543
                },
                {
                    "name": "D#4",
                    "midi": 63,
                    "time": 165.909107500001,
                    "velocity": 0.7874015748031497,
                    "duration": 0.15151516666665543
                },
                {
                    "name": "C4",
                    "midi": 60,
                    "time": 166.363653000001,
                    "velocity": 0.7874015748031497,
                    "duration": 0.15151516666665543
                },
                {
                    "name": "D#4",
                    "midi": 63,
                    "time": 166.818198500001,
                    "velocity": 0.7874015748031497,
                    "duration": 0.15151516666665543
                },
                {
                    "name": "C4",
                    "midi": 60,
                    "time": 167.27274400000098,
                    "velocity": 0.7874015748031497,
                    "duration": 0.15151516666665543
                },
                {
                    "name": "F3",
                    "midi": 53,
                    "time": 167.72728950000098,
                    "velocity": 0.7874015748031497,
                    "duration": 0.15151516666665543
                },
                {
                    "name": "C4",
                    "midi": 60,
                    "time": 167.72728950000098,
                    "velocity": 0.7874015748031497,
                    "duration": 0.15151516666665543
                },
                {
                    "name": "A#3",
                    "midi": 58,
                    "time": 168.18183500000097,
                    "velocity": 0.7874015748031497,
                    "duration": 0.15151516666665543
                },
                {
                    "name": "D4",
                    "midi": 62,
                    "time": 168.18183500000097,
                    "velocity": 0.7874015748031497,
                    "duration": 0.15151516666665543
                },
                {
                    "name": "F3",
                    "midi": 53,
                    "time": 168.63638050000097,
                    "velocity": 0.7874015748031497,
                    "duration": 0.15151516666665543
                },
                {
                    "name": "D#4",
                    "midi": 63,
                    "time": 168.63638050000097,
                    "velocity": 0.7874015748031497,
                    "duration": 0.15151516666665543
                },
                {
                    "name": "F4",
                    "midi": 65,
                    "time": 169.09092600000096,
                    "velocity": 0.7874015748031497,
                    "duration": 0.15151516666665543
                },
                {
                    "name": "A#3",
                    "midi": 58,
                    "time": 169.09092600000096,
                    "velocity": 0.7874015748031497,
                    "duration": 0.15151516666665543
                },
                {
                    "name": "F4",
                    "midi": 65,
                    "time": 169.54547150000096,
                    "velocity": 0.7874015748031497,
                    "duration": 0.15151516666665543
                },
                {
                    "name": "D4",
                    "midi": 62,
                    "time": 169.54547150000096,
                    "velocity": 0.7874015748031497,
                    "duration": 0.15151516666665543
                },
                {
                    "name": "F4",
                    "midi": 65,
                    "time": 170.00001700000095,
                    "velocity": 0.7874015748031497,
                    "duration": 0.15151516666665543
                },
                {
                    "name": "A#3",
                    "midi": 58,
                    "time": 170.00001700000095,
                    "velocity": 0.7874015748031497,
                    "duration": 0.15151516666665543
                },
                {
                    "name": "F4",
                    "midi": 65,
                    "time": 170.45456250000095,
                    "velocity": 0.7874015748031497,
                    "duration": 0.15151516666665543
                },
                {
                    "name": "D4",
                    "midi": 62,
                    "time": 170.45456250000095,
                    "velocity": 0.7874015748031497,
                    "duration": 0.15151516666665543
                },
                {
                    "name": "F4",
                    "midi": 65,
                    "time": 170.90910800000094,
                    "velocity": 0.7874015748031497,
                    "duration": 0.15151516666665543
                },
                {
                    "name": "A#3",
                    "midi": 58,
                    "time": 170.90910800000094,
                    "velocity": 0.7874015748031497,
                    "duration": 0.15151516666665543
                },
                {
                    "name": "A#1",
                    "midi": 34,
                    "time": 171.36365350000094,
                    "velocity": 0.7874015748031497,
                    "duration": 0.15151516666665543
                },
                {
                    "name": "A#2",
                    "midi": 46,
                    "time": 171.36365350000094,
                    "velocity": 0.7874015748031497,
                    "duration": 0.15151516666665543
                },
                {
                    "name": "D#2",
                    "midi": 39,
                    "time": 171.81819900000093,
                    "velocity": 0.7874015748031497,
                    "duration": 0.15151516666665543
                },
                {
                    "name": "D#3",
                    "midi": 51,
                    "time": 171.81819900000093,
                    "velocity": 0.7874015748031497,
                    "duration": 0.15151516666665543
                },
                {
                    "name": "A#1",
                    "midi": 34,
                    "time": 172.27274450000093,
                    "velocity": 0.7874015748031497,
                    "duration": 0.15151516666665543
                },
                {
                    "name": "A#2",
                    "midi": 46,
                    "time": 172.27274450000093,
                    "velocity": 0.7874015748031497,
                    "duration": 0.15151516666665543
                },
                {
                    "name": "D#2",
                    "midi": 39,
                    "time": 172.72729000000092,
                    "velocity": 0.7874015748031497,
                    "duration": 0.15151516666665543
                },
                {
                    "name": "D#3",
                    "midi": 51,
                    "time": 172.72729000000092,
                    "velocity": 0.7874015748031497,
                    "duration": 0.15151516666665543
                },
                {
                    "name": "G2",
                    "midi": 43,
                    "time": 173.18183550000091,
                    "velocity": 0.7874015748031497,
                    "duration": 0.15151516666665543
                },
                {
                    "name": "G3",
                    "midi": 55,
                    "time": 173.18183550000091,
                    "velocity": 0.7874015748031497,
                    "duration": 0.15151516666665543
                },
                {
                    "name": "D#2",
                    "midi": 39,
                    "time": 173.6363810000009,
                    "velocity": 0.7874015748031497,
                    "duration": 0.15151516666665543
                },
                {
                    "name": "D#3",
                    "midi": 51,
                    "time": 173.6363810000009,
                    "velocity": 0.7874015748031497,
                    "duration": 0.15151516666665543
                },
                {
                    "name": "G2",
                    "midi": 43,
                    "time": 174.0909265000009,
                    "velocity": 0.7874015748031497,
                    "duration": 0.15151516666665543
                },
                {
                    "name": "G3",
                    "midi": 55,
                    "time": 174.0909265000009,
                    "velocity": 0.7874015748031497,
                    "duration": 0.15151516666665543
                },
                {
                    "name": "D#2",
                    "midi": 39,
                    "time": 174.5454720000009,
                    "velocity": 0.7874015748031497,
                    "duration": 0.15151516666665543
                },
                {
                    "name": "D#3",
                    "midi": 51,
                    "time": 174.5454720000009,
                    "velocity": 0.7874015748031497,
                    "duration": 0.15151516666665543
                },
                {
                    "name": "F2",
                    "midi": 41,
                    "time": 175.0000175000009,
                    "velocity": 0.7874015748031497,
                    "duration": 0.15151516666665543
                },
                {
                    "name": "F3",
                    "midi": 53,
                    "time": 175.0000175000009,
                    "velocity": 0.7874015748031497,
                    "duration": 0.15151516666665543
                },
                {
                    "name": "G2",
                    "midi": 43,
                    "time": 175.4545630000009,
                    "velocity": 0.7874015748031497,
                    "duration": 0.15151516666665543
                },
                {
                    "name": "G3",
                    "midi": 55,
                    "time": 175.4545630000009,
                    "velocity": 0.7874015748031497,
                    "duration": 0.15151516666665543
                },
                {
                    "name": "D#2",
                    "midi": 39,
                    "time": 175.90910850000088,
                    "velocity": 0.7874015748031497,
                    "duration": 0.15151516666665543
                },
                {
                    "name": "D#3",
                    "midi": 51,
                    "time": 175.90910850000088,
                    "velocity": 0.7874015748031497,
                    "duration": 0.15151516666665543
                },
                {
                    "name": "G#3",
                    "midi": 56,
                    "time": 176.36365400000088,
                    "velocity": 0.7874015748031497,
                    "duration": 0.15151516666665543
                },
                {
                    "name": "G#2",
                    "midi": 44,
                    "time": 176.36365400000088,
                    "velocity": 0.7874015748031497,
                    "duration": 0.15151516666665543
                },
                {
                    "name": "G#2",
                    "midi": 44,
                    "time": 176.81819950000087,
                    "velocity": 0.7874015748031497,
                    "duration": 0.15151516666665543
                },
                {
                    "name": "G#3",
                    "midi": 56,
                    "time": 176.81819950000087,
                    "velocity": 0.7874015748031497,
                    "duration": 0.15151516666665543
                },
                {
                    "name": "F2",
                    "midi": 41,
                    "time": 177.27274500000087,
                    "velocity": 0.7874015748031497,
                    "duration": 0.15151516666665543
                },
                {
                    "name": "F3",
                    "midi": 53,
                    "time": 177.27274500000087,
                    "velocity": 0.7874015748031497,
                    "duration": 0.15151516666665543
                },
                {
                    "name": "G#2",
                    "midi": 44,
                    "time": 177.72729050000086,
                    "velocity": 0.7874015748031497,
                    "duration": 0.15151516666665543
                },
                {
                    "name": "G#3",
                    "midi": 56,
                    "time": 177.72729050000086,
                    "velocity": 0.7874015748031497,
                    "duration": 0.15151516666665543
                },
                {
                    "name": "F2",
                    "midi": 41,
                    "time": 178.18183600000086,
                    "velocity": 0.7874015748031497,
                    "duration": 0.15151516666665543
                },
                {
                    "name": "F3",
                    "midi": 53,
                    "time": 178.18183600000086,
                    "velocity": 0.7874015748031497,
                    "duration": 0.15151516666665543
                },
                {
                    "name": "F2",
                    "midi": 41,
                    "time": 178.63638150000085,
                    "velocity": 0.7874015748031497,
                    "duration": 0.15151516666665543
                },
                {
                    "name": "F3",
                    "midi": 53,
                    "time": 179.09092700000085,
                    "velocity": 0.7874015748031497,
                    "duration": 0.15151516666665543
                },
                {
                    "name": "F2",
                    "midi": 41,
                    "time": 179.54547250000084,
                    "velocity": 0.7874015748031497,
                    "duration": 0.15151516666665543
                },
                {
                    "name": "F3",
                    "midi": 53,
                    "time": 180.00001800000084,
                    "velocity": 0.7874015748031497,
                    "duration": 0.15151516666665543
                },
                {
                    "name": "F2",
                    "midi": 41,
                    "time": 180.45456350000083,
                    "velocity": 0.7874015748031497,
                    "duration": 0.15151516666665543
                },
                {
                    "name": "F3",
                    "midi": 53,
                    "time": 180.90910900000083,
                    "velocity": 0.7874015748031497,
                    "duration": 0.15151516666665543
                },
                {
                    "name": "F2",
                    "midi": 41,
                    "time": 181.36365450000082,
                    "velocity": 0.7874015748031497,
                    "duration": 0.15151516666665543
                },
                {
                    "name": "A#2",
                    "midi": 46,
                    "time": 181.81820000000081,
                    "velocity": 0.7874015748031497,
                    "duration": 0.15151516666665543
                },
                {
                    "name": "A#3",
                    "midi": 58,
                    "time": 182.2727455000008,
                    "velocity": 0.7874015748031497,
                    "duration": 0.15151516666665543
                },
                {
                    "name": "A#2",
                    "midi": 46,
                    "time": 182.7272910000008,
                    "velocity": 0.7874015748031497,
                    "duration": 0.15151516666665543
                },
                {
                    "name": "A#3",
                    "midi": 58,
                    "time": 183.1818365000008,
                    "velocity": 0.7874015748031497,
                    "duration": 0.15151516666665543
                },
                {
                    "name": "G#2",
                    "midi": 44,
                    "time": 183.6363820000008,
                    "velocity": 0.7874015748031497,
                    "duration": 0.15151516666665543
                },
                {
                    "name": "G#3",
                    "midi": 56,
                    "time": 184.0909275000008,
                    "velocity": 0.7874015748031497,
                    "duration": 0.15151516666665543
                },
                {
                    "name": "G#2",
                    "midi": 44,
                    "time": 184.54547300000078,
                    "velocity": 0.7874015748031497,
                    "duration": 0.15151516666665543
                },
                {
                    "name": "G#3",
                    "midi": 56,
                    "time": 185.00001850000078,
                    "velocity": 0.7874015748031497,
                    "duration": 0.15151516666665543
                },
                {
                    "name": "G2",
                    "midi": 43,
                    "time": 185.45456400000077,
                    "velocity": 0.7874015748031497,
                    "duration": 0.15151516666665543
                },
                {
                    "name": "G3",
                    "midi": 55,
                    "time": 185.90910950000077,
                    "velocity": 0.7874015748031497,
                    "duration": 0.15151516666665543
                },
                {
                    "name": "G2",
                    "midi": 43,
                    "time": 186.36365500000076,
                    "velocity": 0.7874015748031497,
                    "duration": 0.15151516666665543
                },
                {
                    "name": "G3",
                    "midi": 55,
                    "time": 186.81820050000076,
                    "velocity": 0.7874015748031497,
                    "duration": 0.15151516666665543
                },
                {
                    "name": "F2",
                    "midi": 41,
                    "time": 187.27274600000075,
                    "velocity": 0.7874015748031497,
                    "duration": 0.15151516666665543
                },
                {
                    "name": "F3",
                    "midi": 53,
                    "time": 187.72729150000075,
                    "velocity": 0.7874015748031497,
                    "duration": 0.15151516666665543
                },
                {
                    "name": "F2",
                    "midi": 41,
                    "time": 188.18183700000074,
                    "velocity": 0.7874015748031497,
                    "duration": 0.15151516666665543
                },
                {
                    "name": "F3",
                    "midi": 53,
                    "time": 188.63638250000074,
                    "velocity": 0.7874015748031497,
                    "duration": 0.15151516666665543
                },
                {
                    "name": "D#2",
                    "midi": 39,
                    "time": 189.09092800000073,
                    "velocity": 0.7874015748031497,
                    "duration": 0.15151516666665543
                },
                {
                    "name": "D#3",
                    "midi": 51,
                    "time": 189.54547350000072,
                    "velocity": 0.7874015748031497,
                    "duration": 0.15151516666665543
                },
                {
                    "name": "D#2",
                    "midi": 39,
                    "time": 190.00001900000072,
                    "velocity": 0.7874015748031497,
                    "duration": 0.15151516666665543
                },
                {
                    "name": "D#3",
                    "midi": 51,
                    "time": 190.4545645000007,
                    "velocity": 0.7874015748031497,
                    "duration": 0.15151516666665543
                },
                {
                    "name": "D2",
                    "midi": 38,
                    "time": 190.9091100000007,
                    "velocity": 0.7874015748031497,
                    "duration": 0.15151516666665543
                },
                {
                    "name": "D3",
                    "midi": 50,
                    "time": 191.3636555000007,
                    "velocity": 0.7874015748031497,
                    "duration": 0.15151516666665543
                },
                {
                    "name": "D2",
                    "midi": 38,
                    "time": 191.8182010000007,
                    "velocity": 0.7874015748031497,
                    "duration": 0.15151516666665543
                },
                {
                    "name": "D3",
                    "midi": 50,
                    "time": 192.2727465000007,
                    "velocity": 0.7874015748031497,
                    "duration": 0.15151516666665543
                },
                {
                    "name": "C2",
                    "midi": 36,
                    "time": 192.7272920000007,
                    "velocity": 0.7874015748031497,
                    "duration": 0.15151516666665543
                },
                {
                    "name": "C3",
                    "midi": 48,
                    "time": 193.18183750000068,
                    "velocity": 0.7874015748031497,
                    "duration": 0.15151516666665543
                },
                {
                    "name": "C2",
                    "midi": 36,
                    "time": 193.63638300000068,
                    "velocity": 0.7874015748031497,
                    "duration": 0.15151516666665543
                },
                {
                    "name": "C3",
                    "midi": 48,
                    "time": 194.09092850000067,
                    "velocity": 0.7874015748031497,
                    "duration": 0.15151516666665543
                },
                {
                    "name": "D2",
                    "midi": 38,
                    "time": 194.54547400000067,
                    "velocity": 0.7874015748031497,
                    "duration": 0.15151516666665543
                },
                {
                    "name": "D3",
                    "midi": 50,
                    "time": 195.00001950000066,
                    "velocity": 0.7874015748031497,
                    "duration": 0.15151516666665543
                },
                {
                    "name": "D2",
                    "midi": 38,
                    "time": 195.45456500000066,
                    "velocity": 0.7874015748031497,
                    "duration": 0.15151516666665543
                },
                {
                    "name": "D3",
                    "midi": 50,
                    "time": 195.90911050000065,
                    "velocity": 0.7874015748031497,
                    "duration": 0.15151516666665543
                },
                {
                    "name": "D#2",
                    "midi": 39,
                    "time": 196.36365600000065,
                    "velocity": 0.7874015748031497,
                    "duration": 0.15151516666665543
                },
                {
                    "name": "D#3",
                    "midi": 51,
                    "time": 196.81820150000064,
                    "velocity": 0.7874015748031497,
                    "duration": 0.15151516666665543
                },
                {
                    "name": "D#2",
                    "midi": 39,
                    "time": 197.27274700000063,
                    "velocity": 0.7874015748031497,
                    "duration": 0.15151516666665543
                },
                {
                    "name": "D#3",
                    "midi": 51,
                    "time": 197.72729250000063,
                    "velocity": 0.7874015748031497,
                    "duration": 0.15151516666665543
                },
                {
                    "name": "F2",
                    "midi": 41,
                    "time": 198.18183800000062,
                    "velocity": 0.7874015748031497,
                    "duration": 0.15151516666665543
                },
                {
                    "name": "F3",
                    "midi": 53,
                    "time": 198.63638350000062,
                    "velocity": 0.7874015748031497,
                    "duration": 0.15151516666665543
                },
                {
                    "name": "F2",
                    "midi": 41,
                    "time": 199.0909290000006,
                    "velocity": 0.7874015748031497,
                    "duration": 0.15151516666665543
                },
                {
                    "name": "F3",
                    "midi": 53,
                    "time": 199.5454745000006,
                    "velocity": 0.7874015748031497,
                    "duration": 0.15151516666665543
                },
                {
                    "name": "D#2",
                    "midi": 39,
                    "time": 200.0000200000006,
                    "velocity": 0.7874015748031497,
                    "duration": 0.15151516666665543
                },
                {
                    "name": "D#3",
                    "midi": 51,
                    "time": 200.4545655000006,
                    "velocity": 0.7874015748031497,
                    "duration": 0.15151516666665543
                },
                {
                    "name": "D#2",
                    "midi": 39,
                    "time": 200.9091110000006,
                    "velocity": 0.7874015748031497,
                    "duration": 0.15151516666665543
                },
                {
                    "name": "D#3",
                    "midi": 51,
                    "time": 201.3636565000006,
                    "velocity": 0.7874015748031497,
                    "duration": 0.15151516666665543
                },
                {
                    "name": "D2",
                    "midi": 38,
                    "time": 201.81820200000058,
                    "velocity": 0.7874015748031497,
                    "duration": 0.15151516666665543
                },
                {
                    "name": "D3",
                    "midi": 50,
                    "time": 202.27274750000058,
                    "velocity": 0.7874015748031497,
                    "duration": 0.15151516666665543
                },
                {
                    "name": "D2",
                    "midi": 38,
                    "time": 202.72729300000057,
                    "velocity": 0.7874015748031497,
                    "duration": 0.15151516666665543
                },
                {
                    "name": "D3",
                    "midi": 50,
                    "time": 203.18183850000057,
                    "velocity": 0.7874015748031497,
                    "duration": 0.15151516666665543
                },
                {
                    "name": "E2",
                    "midi": 40,
                    "time": 203.63638400000056,
                    "velocity": 0.7874015748031497,
                    "duration": 0.15151516666665543
                },
                {
                    "name": "E3",
                    "midi": 52,
                    "time": 204.09092950000056,
                    "velocity": 0.7874015748031497,
                    "duration": 0.15151516666665543
                },
                {
                    "name": "E2",
                    "midi": 40,
                    "time": 204.54547500000055,
                    "velocity": 0.7874015748031497,
                    "duration": 0.15151516666665543
                },
                {
                    "name": "E3",
                    "midi": 52,
                    "time": 205.00002050000055,
                    "velocity": 0.7874015748031497,
                    "duration": 0.15151516666665543
                },
                {
                    "name": "F2",
                    "midi": 41,
                    "time": 205.45456600000054,
                    "velocity": 0.7874015748031497,
                    "duration": 0.15151516666665543
                },
                {
                    "name": "F3",
                    "midi": 53,
                    "time": 205.90911150000053,
                    "velocity": 0.7874015748031497,
                    "duration": 0.15151516666665543
                },
                {
                    "name": "F2",
                    "midi": 41,
                    "time": 206.36365700000053,
                    "velocity": 0.7874015748031497,
                    "duration": 0.15151516666665543
                },
                {
                    "name": "F3",
                    "midi": 53,
                    "time": 206.81820250000052,
                    "velocity": 0.7874015748031497,
                    "duration": 0.15151516666665543
                },
                {
                    "name": "G2",
                    "midi": 43,
                    "time": 207.27274800000052,
                    "velocity": 0.7874015748031497,
                    "duration": 0.15151516666665543
                },
                {
                    "name": "G3",
                    "midi": 55,
                    "time": 207.7272935000005,
                    "velocity": 0.7874015748031497,
                    "duration": 0.15151516666665543
                },
                {
                    "name": "G2",
                    "midi": 43,
                    "time": 208.1818390000005,
                    "velocity": 0.7874015748031497,
                    "duration": 0.15151516666665543
                },
                {
                    "name": "G3",
                    "midi": 55,
                    "time": 208.6363845000005,
                    "velocity": 0.7874015748031497,
                    "duration": 0.15151516666665543
                },
                {
                    "name": "A2",
                    "midi": 45,
                    "time": 209.0909300000005,
                    "velocity": 0.7874015748031497,
                    "duration": 0.15151516666665543
                },
                {
                    "name": "A3",
                    "midi": 57,
                    "time": 209.5454755000005,
                    "velocity": 0.7874015748031497,
                    "duration": 0.15151516666665543
                },
                {
                    "name": "A2",
                    "midi": 45,
                    "time": 210.0000210000005,
                    "velocity": 0.7874015748031497,
                    "duration": 0.15151516666665543
                },
                {
                    "name": "A3",
                    "midi": 57,
                    "time": 210.45456650000048,
                    "velocity": 0.7874015748031497,
                    "duration": 0.15151516666665543
                },
                {
                    "name": "A#2",
                    "midi": 46,
                    "time": 210.90911200000048,
                    "velocity": 0.7874015748031497,
                    "duration": 0.15151516666665543
                },
                {
                    "name": "A#3",
                    "midi": 58,
                    "time": 211.36365750000047,
                    "velocity": 0.7874015748031497,
                    "duration": 0.15151516666665543
                },
                {
                    "name": "A#2",
                    "midi": 46,
                    "time": 211.81820300000047,
                    "velocity": 0.7874015748031497,
                    "duration": 0.15151516666665543
                },
                {
                    "name": "A#3",
                    "midi": 58,
                    "time": 212.27274850000046,
                    "velocity": 0.7874015748031497,
                    "duration": 0.15151516666665543
                },
                {
                    "name": "C3",
                    "midi": 48,
                    "time": 212.72729400000046,
                    "velocity": 0.7874015748031497,
                    "duration": 0.15151516666665543
                },
                {
                    "name": "C4",
                    "midi": 60,
                    "time": 213.18183950000045,
                    "velocity": 0.7874015748031497,
                    "duration": 0.15151516666665543
                },
                {
                    "name": "C3",
                    "midi": 48,
                    "time": 213.63638500000044,
                    "velocity": 0.7874015748031497,
                    "duration": 0.15151516666665543
                },
                {
                    "name": "C4",
                    "midi": 60,
                    "time": 214.09093050000044,
                    "velocity": 0.7874015748031497,
                    "duration": 0.15151516666665543
                },
                {
                    "name": "D3",
                    "midi": 50,
                    "time": 214.54547600000043,
                    "velocity": 0.7874015748031497,
                    "duration": 0.15151516666665543
                },
                {
                    "name": "D4",
                    "midi": 62,
                    "time": 215.00002150000043,
                    "velocity": 0.7874015748031497,
                    "duration": 0.15151516666665543
                },
                {
                    "name": "D3",
                    "midi": 50,
                    "time": 215.45456700000042,
                    "velocity": 0.7874015748031497,
                    "duration": 0.15151516666665543
                },
                {
                    "name": "D4",
                    "midi": 62,
                    "time": 215.90911250000042,
                    "velocity": 0.7874015748031497,
                    "duration": 0.15151516666665543
                },
                {
                    "name": "D#2",
                    "midi": 39,
                    "time": 216.3636580000004,
                    "velocity": 0.7874015748031497,
                    "duration": 0.15151516666665543
                },
                {
                    "name": "D#3",
                    "midi": 51,
                    "time": 216.8182035000004,
                    "velocity": 0.7874015748031497,
                    "duration": 0.15151516666665543
                },
                {
                    "name": "D#2",
                    "midi": 39,
                    "time": 217.2727490000004,
                    "velocity": 0.7874015748031497,
                    "duration": 0.15151516666665543
                },
                {
                    "name": "D#3",
                    "midi": 51,
                    "time": 217.7272945000004,
                    "velocity": 0.7874015748031497,
                    "duration": 0.15151516666665543
                },
                {
                    "name": "F2",
                    "midi": 41,
                    "time": 218.1818400000004,
                    "velocity": 0.7874015748031497,
                    "duration": 0.15151516666665543
                },
                {
                    "name": "F3",
                    "midi": 53,
                    "time": 218.6363855000004,
                    "velocity": 0.7874015748031497,
                    "duration": 0.15151516666665543
                },
                {
                    "name": "F2",
                    "midi": 41,
                    "time": 219.09093100000038,
                    "velocity": 0.7874015748031497,
                    "duration": 0.15151516666665543
                },
                {
                    "name": "F3",
                    "midi": 53,
                    "time": 219.54547650000038,
                    "velocity": 0.7874015748031497,
                    "duration": 0.15151516666665543
                },
                {
                    "name": "G2",
                    "midi": 43,
                    "time": 220.00002200000037,
                    "velocity": 0.7874015748031497,
                    "duration": 0.15151516666665543
                },
                {
                    "name": "G3",
                    "midi": 55,
                    "time": 220.45456750000037,
                    "velocity": 0.7874015748031497,
                    "duration": 0.15151516666665543
                },
                {
                    "name": "G2",
                    "midi": 43,
                    "time": 220.90911300000036,
                    "velocity": 0.7874015748031497,
                    "duration": 0.15151516666665543
                },
                {
                    "name": "G3",
                    "midi": 55,
                    "time": 221.36365850000035,
                    "velocity": 0.7874015748031497,
                    "duration": 0.15151516666665543
                },
                {
                    "name": "G#2",
                    "midi": 44,
                    "time": 221.81820400000035,
                    "velocity": 0.7874015748031497,
                    "duration": 0.15151516666665543
                },
                {
                    "name": "G#3",
                    "midi": 56,
                    "time": 222.27274950000034,
                    "velocity": 0.7874015748031497,
                    "duration": 0.15151516666665543
                },
                {
                    "name": "G#2",
                    "midi": 44,
                    "time": 222.72729500000034,
                    "velocity": 0.7874015748031497,
                    "duration": 0.15151516666665543
                },
                {
                    "name": "G#3",
                    "midi": 56,
                    "time": 223.18184050000033,
                    "velocity": 0.7874015748031497,
                    "duration": 0.15151516666665543
                },
                {
                    "name": "G3",
                    "midi": 55,
                    "time": 223.63638600000033,
                    "velocity": 0.7874015748031497,
                    "duration": 0.15151516666665543
                },
                {
                    "name": "F3",
                    "midi": 53,
                    "time": 224.09093150000032,
                    "velocity": 0.7874015748031497,
                    "duration": 0.15151516666665543
                },
                {
                    "name": "G3",
                    "midi": 55,
                    "time": 224.54547700000032,
                    "velocity": 0.7874015748031497,
                    "duration": 0.15151516666665543
                },
                {
                    "name": "G2",
                    "midi": 43,
                    "time": 225.0000225000003,
                    "velocity": 0.7874015748031497,
                    "duration": 0.15151516666665543
                },
                {
                    "name": "C2",
                    "midi": 36,
                    "time": 225.4545680000003,
                    "velocity": 0.7874015748031497,
                    "duration": 1.151515266666678
                },
                {
                    "name": "C3",
                    "midi": 48,
                    "time": 225.4545680000003,
                    "velocity": 0.7874015748031497,
                    "duration": 1.151515266666678
                }
            ],
            "controlChanges": {
                "7": [
                    {
                        "number": 7,
                        "time": 0,
                        "value": 0.5511811023622047
                    }
                ],
                "10": [
                    {
                        "number": 10,
                        "time": 0,
                        "value": 0.7874015748031497
                    }
                ]
            },
            "id": 7,
            "name": "Harpsi C",
            "instrumentNumber": 6,
            "instrument": "harpsichord",
            "instrumentFamily": "piano",
            "channelNumber": 6,
            "isPercussion": false
        },
        {
            "startTime": 0,
            "duration": 229.09093199999813,
            "length": 457,
            "notes": [
                {
                    "name": "G5",
                    "midi": 79,
                    "time": 0,
                    "velocity": 0.7874015748031497,
                    "duration": 1.3636365
                },
                {
                    "name": "G5",
                    "midi": 79,
                    "time": 1.3636365,
                    "velocity": 0.7874015748031497,
                    "duration": 0.45454550000000005
                },
                {
                    "name": "F5",
                    "midi": 77,
                    "time": 1.818182,
                    "velocity": 0.7874015748031497,
                    "duration": 0.6818182499999998
                },
                {
                    "name": "G5",
                    "midi": 79,
                    "time": 2.50000025,
                    "velocity": 0.7874015748031497,
                    "duration": 0.22727275000000002
                },
                {
                    "name": "F5",
                    "midi": 77,
                    "time": 2.727273,
                    "velocity": 0.7874015748031497,
                    "duration": 0.6818182500000001
                },
                {
                    "name": "D5",
                    "midi": 74,
                    "time": 3.40909125,
                    "velocity": 0.7874015748031497,
                    "duration": 0.22727275000000002
                },
                {
                    "name": "D#5",
                    "midi": 75,
                    "time": 3.636364,
                    "velocity": 0.7874015748031497,
                    "duration": 1.3636364999999997
                },
                {
                    "name": "D#5",
                    "midi": 75,
                    "time": 5.0000005,
                    "velocity": 0.7874015748031497,
                    "duration": 0.45454550000000005
                },
                {
                    "name": "E5",
                    "midi": 76,
                    "time": 5.454546,
                    "velocity": 0.7874015748031497,
                    "duration": 1.3636365000000001
                },
                {
                    "name": "E5",
                    "midi": 76,
                    "time": 6.8181825,
                    "velocity": 0.7874015748031497,
                    "duration": 0.45454550000000005
                },
                {
                    "name": "F5",
                    "midi": 77,
                    "time": 7.272728,
                    "velocity": 0.7874015748031497,
                    "duration": 1.3636364999999993
                },
                {
                    "name": "E5",
                    "midi": 76,
                    "time": 8.636364499999999,
                    "velocity": 0.7874015748031497,
                    "duration": 0.22727274999999914
                },
                {
                    "name": "F5",
                    "midi": 77,
                    "time": 8.863637249999998,
                    "velocity": 0.7874015748031497,
                    "duration": 0.22727274999999914
                },
                {
                    "name": "G5",
                    "midi": 79,
                    "time": 9.090909999999997,
                    "velocity": 0.7874015748031497,
                    "duration": 1.3636365000000001
                },
                {
                    "name": "G5",
                    "midi": 79,
                    "time": 10.454546499999998,
                    "velocity": 0.7874015748031497,
                    "duration": 0.45454550000000005
                },
                {
                    "name": "G5",
                    "midi": 79,
                    "time": 10.909091999999998,
                    "velocity": 0.7874015748031497,
                    "duration": 0.9090910000000001
                },
                {
                    "name": "G#5",
                    "midi": 80,
                    "time": 11.818182999999998,
                    "velocity": 0.7874015748031497,
                    "duration": 1.3636365000000001
                },
                {
                    "name": "G#5",
                    "midi": 80,
                    "time": 13.181819499999998,
                    "velocity": 0.7874015748031497,
                    "duration": 0.45454550000000005
                },
                {
                    "name": "G5",
                    "midi": 79,
                    "time": 13.636364999999998,
                    "velocity": 0.7874015748031497,
                    "duration": 1.3636365000000001
                },
                {
                    "name": "F5",
                    "midi": 77,
                    "time": 15.000001499999998,
                    "velocity": 0.7874015748031497,
                    "duration": 0.45454550000000005
                },
                {
                    "name": "F5",
                    "midi": 77,
                    "time": 15.454546999999998,
                    "velocity": 0.7874015748031497,
                    "duration": 1.3636364999999984
                },
                {
                    "name": "G5",
                    "midi": 79,
                    "time": 16.818183499999996,
                    "velocity": 0.7874015748031497,
                    "duration": 0.45454549999999827
                },
                {
                    "name": "F5",
                    "midi": 77,
                    "time": 17.272728999999995,
                    "velocity": 0.7874015748031497,
                    "duration": 0.2272727500000009
                },
                {
                    "name": "D#5",
                    "midi": 75,
                    "time": 17.500001749999996,
                    "velocity": 0.7874015748031497,
                    "duration": 0.2272727500000009
                },
                {
                    "name": "D5",
                    "midi": 74,
                    "time": 17.727274499999996,
                    "velocity": 0.7874015748031497,
                    "duration": 0.2272727500000009
                },
                {
                    "name": "D#5",
                    "midi": 75,
                    "time": 17.954547249999997,
                    "velocity": 0.7874015748031497,
                    "duration": 0.2272727500000009
                },
                {
                    "name": "D5",
                    "midi": 74,
                    "time": 18.18182,
                    "velocity": 0.7874015748031497,
                    "duration": 0.9090910000000001
                },
                {
                    "name": "D5",
                    "midi": 74,
                    "time": 19.545456499999997,
                    "velocity": 0.7874015748031497,
                    "duration": 0.45454549999999827
                },
                {
                    "name": "A5",
                    "midi": 81,
                    "time": 20.000001999999995,
                    "velocity": 0.7874015748031497,
                    "duration": 1.3636364999999984
                },
                {
                    "name": "A5",
                    "midi": 81,
                    "time": 21.363638499999993,
                    "velocity": 0.7874015748031497,
                    "duration": 0.45454549999999827
                },
                {
                    "name": "A#5",
                    "midi": 82,
                    "time": 21.81818399999999,
                    "velocity": 0.7874015748031497,
                    "duration": 1.3636364999999984
                },
                {
                    "name": "A#5",
                    "midi": 82,
                    "time": 23.18182049999999,
                    "velocity": 0.7874015748031497,
                    "duration": 0.45454549999999827
                },
                {
                    "name": "A#5",
                    "midi": 82,
                    "time": 23.636365999999988,
                    "velocity": 0.7874015748031497,
                    "duration": 0.45454549999999827
                },
                {
                    "name": "G#5",
                    "midi": 80,
                    "time": 24.090911499999986,
                    "velocity": 0.7874015748031497,
                    "duration": 0.45454549999999827
                },
                {
                    "name": "A#5",
                    "midi": 82,
                    "time": 24.545456999999985,
                    "velocity": 0.7874015748031497,
                    "duration": 0.45454549999999827
                },
                {
                    "name": "G5",
                    "midi": 79,
                    "time": 25.000002499999983,
                    "velocity": 0.7874015748031497,
                    "duration": 0.45454549999999827
                },
                {
                    "name": "G#5",
                    "midi": 80,
                    "time": 25.45454799999998,
                    "velocity": 0.7874015748031497,
                    "duration": 1.3636364999999984
                },
                {
                    "name": "G#5",
                    "midi": 80,
                    "time": 26.81818449999998,
                    "velocity": 0.7874015748031497,
                    "duration": 0.45454549999999827
                },
                {
                    "name": "A5",
                    "midi": 81,
                    "time": 27.272729999999978,
                    "velocity": 0.7874015748031497,
                    "duration": 1.3636364999999984
                },
                {
                    "name": "A#5",
                    "midi": 82,
                    "time": 28.636366499999976,
                    "velocity": 0.7874015748031497,
                    "duration": 0.45454549999999827
                },
                {
                    "name": "F#5",
                    "midi": 78,
                    "time": 29.090911999999975,
                    "velocity": 0.7874015748031497,
                    "duration": 0.9090910000000001
                },
                {
                    "name": "D5",
                    "midi": 74,
                    "time": 30.000002999999975,
                    "velocity": 0.7874015748031497,
                    "duration": 0.9090910000000001
                },
                {
                    "name": "F5",
                    "midi": 77,
                    "time": 30.909093999999975,
                    "velocity": 0.7874015748031497,
                    "duration": 1.8181820000000002
                },
                {
                    "name": "F5",
                    "midi": 77,
                    "time": 32.727275999999975,
                    "velocity": 0.7874015748031497,
                    "duration": 0.6818182499999992
                },
                {
                    "name": "F5",
                    "midi": 77,
                    "time": 33.409094249999974,
                    "velocity": 0.7874015748031497,
                    "duration": 0.22727274999999736
                },
                {
                    "name": "G5",
                    "midi": 79,
                    "time": 33.63636699999997,
                    "velocity": 0.7874015748031497,
                    "duration": 0.6818182499999992
                },
                {
                    "name": "D5",
                    "midi": 74,
                    "time": 34.31818524999997,
                    "velocity": 0.7874015748031497,
                    "duration": 0.22727274999999736
                },
                {
                    "name": "D#5",
                    "midi": 75,
                    "time": 34.54545799999997,
                    "velocity": 0.7874015748031497,
                    "duration": 2.7272729999999967
                },
                {
                    "name": "D#5",
                    "midi": 75,
                    "time": 37.272730999999965,
                    "velocity": 0.7874015748031497,
                    "duration": 0.9090909999999965
                },
                {
                    "name": "D#5",
                    "midi": 75,
                    "time": 38.18182199999996,
                    "velocity": 0.7874015748031497,
                    "duration": 0.6818182499999992
                },
                {
                    "name": "D#5",
                    "midi": 75,
                    "time": 38.86364024999996,
                    "velocity": 0.7874015748031497,
                    "duration": 0.22727274999999736
                },
                {
                    "name": "D5",
                    "midi": 74,
                    "time": 39.09091299999996,
                    "velocity": 0.7874015748031497,
                    "duration": 0.6818182499999992
                },
                {
                    "name": "C5",
                    "midi": 72,
                    "time": 39.77273124999996,
                    "velocity": 0.7874015748031497,
                    "duration": 0.22727274999999736
                },
                {
                    "name": "B4",
                    "midi": 71,
                    "time": 40.000003999999954,
                    "velocity": 0.7874015748031497,
                    "duration": 0.9090909999999965
                },
                {
                    "name": "C5",
                    "midi": 72,
                    "time": 40.90909499999995,
                    "velocity": 0.7874015748031497,
                    "duration": 0.6818182499999992
                },
                {
                    "name": "D5",
                    "midi": 74,
                    "time": 41.59091324999995,
                    "velocity": 0.7874015748031497,
                    "duration": 0.22727274999999736
                },
                {
                    "name": "D#5",
                    "midi": 75,
                    "time": 41.81818599999995,
                    "velocity": 0.7874015748031497,
                    "duration": 0.9090909999999965
                },
                {
                    "name": "D5",
                    "midi": 74,
                    "time": 42.727276999999944,
                    "velocity": 0.7874015748031497,
                    "duration": 0.9090909999999965
                },
                {
                    "name": "C5",
                    "midi": 72,
                    "time": 43.63636799999994,
                    "velocity": 0.7874015748031497,
                    "duration": 0.34090912500000314
                },
                {
                    "name": "G4",
                    "midi": 67,
                    "time": 44.09091349999994,
                    "velocity": 0.7874015748031497,
                    "duration": 0.34090912500000314
                },
                {
                    "name": "C5",
                    "midi": 72,
                    "time": 44.545458999999944,
                    "velocity": 0.7874015748031497,
                    "duration": 0.34090912500000314
                },
                {
                    "name": "G4",
                    "midi": 67,
                    "time": 45.000004499999946,
                    "velocity": 0.7874015748031497,
                    "duration": 0.34090912500000314
                },
                {
                    "name": "C5",
                    "midi": 72,
                    "time": 45.45454999999995,
                    "velocity": 0.7874015748031497,
                    "duration": 0.34090912500000314
                },
                {
                    "name": "D#5",
                    "midi": 75,
                    "time": 45.90909549999995,
                    "velocity": 0.7874015748031497,
                    "duration": 0.34090912500000314
                },
                {
                    "name": "C5",
                    "midi": 72,
                    "time": 46.36364099999995,
                    "velocity": 0.7874015748031497,
                    "duration": 0.34090912500000314
                },
                {
                    "name": "D#5",
                    "midi": 75,
                    "time": 46.81818649999995,
                    "velocity": 0.7874015748031497,
                    "duration": 0.34090912500000314
                },
                {
                    "name": "C5",
                    "midi": 72,
                    "time": 47.272731999999955,
                    "velocity": 0.7874015748031497,
                    "duration": 0.34090912500000314
                },
                {
                    "name": "G5",
                    "midi": 79,
                    "time": 47.72727749999996,
                    "velocity": 0.7874015748031497,
                    "duration": 0.34090912500000314
                },
                {
                    "name": "D#5",
                    "midi": 75,
                    "time": 48.18182299999996,
                    "velocity": 0.7874015748031497,
                    "duration": 0.34090912500000314
                },
                {
                    "name": "G5",
                    "midi": 79,
                    "time": 48.63636849999996,
                    "velocity": 0.7874015748031497,
                    "duration": 0.34090912500000314
                },
                {
                    "name": "D#5",
                    "midi": 75,
                    "time": 49.09091399999996,
                    "velocity": 0.7874015748031497,
                    "duration": 0.34090912500000314
                },
                {
                    "name": "G5",
                    "midi": 79,
                    "time": 49.545459499999964,
                    "velocity": 0.7874015748031497,
                    "duration": 0.34090912500000314
                },
                {
                    "name": "D#5",
                    "midi": 75,
                    "time": 50.000004999999966,
                    "velocity": 0.7874015748031497,
                    "duration": 0.34090912500000314
                },
                {
                    "name": "G5",
                    "midi": 79,
                    "time": 50.45455049999997,
                    "velocity": 0.7874015748031497,
                    "duration": 0.34090912500000314
                },
                {
                    "name": "F5",
                    "midi": 77,
                    "time": 50.90909599999997,
                    "velocity": 0.7874015748031497,
                    "duration": 0.34090912500000314
                },
                {
                    "name": "D#5",
                    "midi": 75,
                    "time": 51.36364149999997,
                    "velocity": 0.7874015748031497,
                    "duration": 0.34090912500000314
                },
                {
                    "name": "F5",
                    "midi": 77,
                    "time": 51.81818699999997,
                    "velocity": 0.7874015748031497,
                    "duration": 0.34090912500000314
                },
                {
                    "name": "D5",
                    "midi": 74,
                    "time": 52.272732499999975,
                    "velocity": 0.7874015748031497,
                    "duration": 0.34090912500000314
                },
                {
                    "name": "D#5",
                    "midi": 75,
                    "time": 52.72727799999998,
                    "velocity": 0.7874015748031497,
                    "duration": 0.34090912500000314
                },
                {
                    "name": "D5",
                    "midi": 74,
                    "time": 53.18182349999998,
                    "velocity": 0.7874015748031497,
                    "duration": 0.34090912500000314
                },
                {
                    "name": "D#5",
                    "midi": 75,
                    "time": 53.63636899999998,
                    "velocity": 0.7874015748031497,
                    "duration": 0.34090912500000314
                },
                {
                    "name": "C5",
                    "midi": 72,
                    "time": 54.09091449999998,
                    "velocity": 0.7874015748031497,
                    "duration": 0.34090912500000314
                },
                {
                    "name": "D5",
                    "midi": 74,
                    "time": 54.545459999999984,
                    "velocity": 0.7874015748031497,
                    "duration": 0.34090912500000314
                },
                {
                    "name": "D5",
                    "midi": 74,
                    "time": 55.000005499999986,
                    "velocity": 0.7874015748031497,
                    "duration": 0.34090912500000314
                },
                {
                    "name": "A#4",
                    "midi": 70,
                    "time": 55.45455099999999,
                    "velocity": 0.7874015748031497,
                    "duration": 0.34090912500000314
                },
                {
                    "name": "D5",
                    "midi": 74,
                    "time": 55.90909649999999,
                    "velocity": 0.7874015748031497,
                    "duration": 0.34090912500000314
                },
                {
                    "name": "A#4",
                    "midi": 70,
                    "time": 56.36364199999999,
                    "velocity": 0.7874015748031497,
                    "duration": 0.34090912500000314
                },
                {
                    "name": "D5",
                    "midi": 74,
                    "time": 56.81818749999999,
                    "velocity": 0.7874015748031497,
                    "duration": 0.34090912500000314
                },
                {
                    "name": "E5",
                    "midi": 76,
                    "time": 57.272732999999995,
                    "velocity": 0.7874015748031497,
                    "duration": 0.34090912500000314
                },
                {
                    "name": "F#5",
                    "midi": 78,
                    "time": 57.7272785,
                    "velocity": 0.7874015748031497,
                    "duration": 0.34090912500000314
                },
                {
                    "name": "G5",
                    "midi": 79,
                    "time": 58.181824,
                    "velocity": 0.7874015748031497,
                    "duration": 0.34090912500000314
                },
                {
                    "name": "D5",
                    "midi": 74,
                    "time": 58.6363695,
                    "velocity": 0.7874015748031497,
                    "duration": 0.34090912500000314
                },
                {
                    "name": "G5",
                    "midi": 79,
                    "time": 59.090915,
                    "velocity": 0.7874015748031497,
                    "duration": 0.34090912500000314
                },
                {
                    "name": "D5",
                    "midi": 74,
                    "time": 59.545460500000004,
                    "velocity": 0.7874015748031497,
                    "duration": 0.34090912500000314
                },
                {
                    "name": "G5",
                    "midi": 79,
                    "time": 60.000006000000006,
                    "velocity": 0.7874015748031497,
                    "duration": 0.34090912500000314
                },
                {
                    "name": "A#5",
                    "midi": 82,
                    "time": 60.45455150000001,
                    "velocity": 0.7874015748031497,
                    "duration": 0.34090912500000314
                },
                {
                    "name": "G5",
                    "midi": 79,
                    "time": 60.90909700000001,
                    "velocity": 0.7874015748031497,
                    "duration": 0.34090912500000314
                },
                {
                    "name": "A#5",
                    "midi": 82,
                    "time": 61.36364250000001,
                    "velocity": 0.7874015748031497,
                    "duration": 0.34090912500000314
                },
                {
                    "name": "G5",
                    "midi": 79,
                    "time": 61.81818800000001,
                    "velocity": 0.7874015748031497,
                    "duration": 0.34090912500000314
                },
                {
                    "name": "F5",
                    "midi": 77,
                    "time": 62.272733500000015,
                    "velocity": 0.7874015748031497,
                    "duration": 0.34090912500000314
                },
                {
                    "name": "D#5",
                    "midi": 75,
                    "time": 62.72727900000002,
                    "velocity": 0.7874015748031497,
                    "duration": 0.34090912500000314
                },
                {
                    "name": "D5",
                    "midi": 74,
                    "time": 63.18182450000002,
                    "velocity": 0.7874015748031497,
                    "duration": 0.34090912500000314
                },
                {
                    "name": "D#5",
                    "midi": 75,
                    "time": 63.63637000000002,
                    "velocity": 0.7874015748031497,
                    "duration": 0.34090912500000314
                },
                {
                    "name": "G5",
                    "midi": 79,
                    "time": 64.09091550000002,
                    "velocity": 0.7874015748031497,
                    "duration": 0.34090912499999604
                },
                {
                    "name": "D#5",
                    "midi": 75,
                    "time": 64.54546100000002,
                    "velocity": 0.7874015748031497,
                    "duration": 0.34090912499999604
                },
                {
                    "name": "G5",
                    "midi": 79,
                    "time": 65.00000650000001,
                    "velocity": 0.7874015748031497,
                    "duration": 0.34090912499999604
                },
                {
                    "name": "C5",
                    "midi": 72,
                    "time": 65.454552,
                    "velocity": 0.7874015748031497,
                    "duration": 0.34090912499999604
                },
                {
                    "name": "G5",
                    "midi": 79,
                    "time": 65.9090975,
                    "velocity": 0.7874015748031497,
                    "duration": 0.34090912499999604
                },
                {
                    "name": "G#5",
                    "midi": 80,
                    "time": 66.363643,
                    "velocity": 0.7874015748031497,
                    "duration": 0.34090912499999604
                },
                {
                    "name": "G5",
                    "midi": 79,
                    "time": 66.81818849999999,
                    "velocity": 0.7874015748031497,
                    "duration": 0.34090912499999604
                },
                {
                    "name": "F5",
                    "midi": 77,
                    "time": 67.27273399999999,
                    "velocity": 0.7874015748031497,
                    "duration": 0.34090912499999604
                },
                {
                    "name": "D#5",
                    "midi": 75,
                    "time": 67.72727949999998,
                    "velocity": 0.7874015748031497,
                    "duration": 0.34090912499999604
                },
                {
                    "name": "D5",
                    "midi": 74,
                    "time": 68.18182499999998,
                    "velocity": 0.7874015748031497,
                    "duration": 0.34090912499999604
                },
                {
                    "name": "C5",
                    "midi": 72,
                    "time": 68.63637049999997,
                    "velocity": 0.7874015748031497,
                    "duration": 0.34090912499999604
                },
                {
                    "name": "B4",
                    "midi": 71,
                    "time": 69.09091599999996,
                    "velocity": 0.7874015748031497,
                    "duration": 0.34090912499999604
                },
                {
                    "name": "D5",
                    "midi": 74,
                    "time": 69.54546149999996,
                    "velocity": 0.7874015748031497,
                    "duration": 0.34090912499999604
                },
                {
                    "name": "B4",
                    "midi": 71,
                    "time": 70.00000699999995,
                    "velocity": 0.7874015748031497,
                    "duration": 0.34090912499999604
                },
                {
                    "name": "D5",
                    "midi": 74,
                    "time": 70.45455249999995,
                    "velocity": 0.7874015748031497,
                    "duration": 0.34090912499999604
                },
                {
                    "name": "B4",
                    "midi": 71,
                    "time": 70.90909799999994,
                    "velocity": 0.7874015748031497,
                    "duration": 0.34090912499999604
                },
                {
                    "name": "B4",
                    "midi": 71,
                    "time": 71.36364349999994,
                    "velocity": 0.7874015748031497,
                    "duration": 0.34090912499999604
                },
                {
                    "name": "C5",
                    "midi": 72,
                    "time": 71.81818899999993,
                    "velocity": 0.7874015748031497,
                    "duration": 0.34090912499999604
                },
                {
                    "name": "D5",
                    "midi": 74,
                    "time": 72.27273449999993,
                    "velocity": 0.7874015748031497,
                    "duration": 0.34090912499999604
                },
                {
                    "name": "D#5",
                    "midi": 75,
                    "time": 72.72727999999992,
                    "velocity": 0.7874015748031497,
                    "duration": 0.34090912499999604
                },
                {
                    "name": "D5",
                    "midi": 74,
                    "time": 73.18182549999992,
                    "velocity": 0.7874015748031497,
                    "duration": 0.34090912499999604
                },
                {
                    "name": "D#5",
                    "midi": 75,
                    "time": 73.63637099999991,
                    "velocity": 0.7874015748031497,
                    "duration": 0.34090912499999604
                },
                {
                    "name": "F5",
                    "midi": 77,
                    "time": 74.0909164999999,
                    "velocity": 0.7874015748031497,
                    "duration": 0.34090912499999604
                },
                {
                    "name": "G5",
                    "midi": 79,
                    "time": 74.5454619999999,
                    "velocity": 0.7874015748031497,
                    "duration": 0.34090912499999604
                },
                {
                    "name": "C5",
                    "midi": 72,
                    "time": 75.0000074999999,
                    "velocity": 0.7874015748031497,
                    "duration": 0.34090912499999604
                },
                {
                    "name": "G5",
                    "midi": 79,
                    "time": 75.45455299999989,
                    "velocity": 0.7874015748031497,
                    "duration": 0.34090912499999604
                },
                {
                    "name": "C5",
                    "midi": 72,
                    "time": 75.90909849999989,
                    "velocity": 0.7874015748031497,
                    "duration": 0.34090912499999604
                },
                {
                    "name": "G#5",
                    "midi": 80,
                    "time": 76.36364399999988,
                    "velocity": 0.7874015748031497,
                    "duration": 0.34090912499999604
                },
                {
                    "name": "G#5",
                    "midi": 80,
                    "time": 76.81818949999987,
                    "velocity": 0.7874015748031497,
                    "duration": 0.1742424416666637
                },
                {
                    "name": "G5",
                    "midi": 79,
                    "time": 77.04546224999987,
                    "velocity": 0.7874015748031497,
                    "duration": 0.1742424416666637
                },
                {
                    "name": "F5",
                    "midi": 77,
                    "time": 77.27273499999987,
                    "velocity": 0.7874015748031497,
                    "duration": 0.34090912499999604
                },
                {
                    "name": "D#5",
                    "midi": 75,
                    "time": 77.72728049999986,
                    "velocity": 0.7874015748031497,
                    "duration": 0.34090912499999604
                },
                {
                    "name": "D5",
                    "midi": 74,
                    "time": 78.18182599999986,
                    "velocity": 0.7874015748031497,
                    "duration": 0.34090912499999604
                },
                {
                    "name": "F5",
                    "midi": 77,
                    "time": 78.63637149999985,
                    "velocity": 0.7874015748031497,
                    "duration": 0.34090912499999604
                },
                {
                    "name": "A#5",
                    "midi": 82,
                    "time": 79.09091699999985,
                    "velocity": 0.7874015748031497,
                    "duration": 0.34090912499999604
                },
                {
                    "name": "F5",
                    "midi": 77,
                    "time": 79.54546249999984,
                    "velocity": 0.7874015748031497,
                    "duration": 0.34090912499999604
                },
                {
                    "name": "A#5",
                    "midi": 82,
                    "time": 80.00000799999984,
                    "velocity": 0.7874015748031497,
                    "duration": 0.34090912499999604
                },
                {
                    "name": "G#5",
                    "midi": 80,
                    "time": 80.45455349999983,
                    "velocity": 0.7874015748031497,
                    "duration": 0.34090912499999604
                },
                {
                    "name": "G5",
                    "midi": 79,
                    "time": 80.90909899999983,
                    "velocity": 0.7874015748031497,
                    "duration": 0.34090912499999604
                },
                {
                    "name": "F5",
                    "midi": 77,
                    "time": 81.36364449999982,
                    "velocity": 0.7874015748031497,
                    "duration": 0.34090912499999604
                },
                {
                    "name": "G5",
                    "midi": 79,
                    "time": 81.81818999999982,
                    "velocity": 0.7874015748031497,
                    "duration": 0.34090912499999604
                },
                {
                    "name": "A#4",
                    "midi": 70,
                    "time": 82.27273549999981,
                    "velocity": 0.7874015748031497,
                    "duration": 0.34090912499999604
                },
                {
                    "name": "D#5",
                    "midi": 75,
                    "time": 82.7272809999998,
                    "velocity": 0.7874015748031497,
                    "duration": 0.34090912499999604
                },
                {
                    "name": "A#4",
                    "midi": 70,
                    "time": 83.1818264999998,
                    "velocity": 0.7874015748031497,
                    "duration": 0.34090912499999604
                },
                {
                    "name": "D#5",
                    "midi": 75,
                    "time": 83.6363719999998,
                    "velocity": 0.7874015748031497,
                    "duration": 0.34090912499999604
                },
                {
                    "name": "D5",
                    "midi": 74,
                    "time": 84.09091749999979,
                    "velocity": 0.7874015748031497,
                    "duration": 0.34090912499999604
                },
                {
                    "name": "C5",
                    "midi": 72,
                    "time": 84.54546299999978,
                    "velocity": 0.7874015748031497,
                    "duration": 0.34090912499999604
                },
                {
                    "name": "A#4",
                    "midi": 70,
                    "time": 85.00000849999978,
                    "velocity": 0.7874015748031497,
                    "duration": 0.34090912499999604
                },
                {
                    "name": "C5",
                    "midi": 72,
                    "time": 85.45455399999977,
                    "velocity": 0.7874015748031497,
                    "duration": 0.34090912499999604
                },
                {
                    "name": "C5",
                    "midi": 72,
                    "time": 85.90909949999977,
                    "velocity": 0.7874015748031497,
                    "duration": 0.34090912499999604
                },
                {
                    "name": "F5",
                    "midi": 77,
                    "time": 86.36364499999976,
                    "velocity": 0.7874015748031497,
                    "duration": 0.34090912499999604
                },
                {
                    "name": "C5",
                    "midi": 72,
                    "time": 86.81819049999976,
                    "velocity": 0.7874015748031497,
                    "duration": 0.34090912499999604
                },
                {
                    "name": "F5",
                    "midi": 77,
                    "time": 87.27273599999975,
                    "velocity": 0.7874015748031497,
                    "duration": 0.34090912499999604
                },
                {
                    "name": "G#5",
                    "midi": 80,
                    "time": 87.72728149999975,
                    "velocity": 0.7874015748031497,
                    "duration": 0.34090912499999604
                },
                {
                    "name": "F5",
                    "midi": 77,
                    "time": 88.18182699999974,
                    "velocity": 0.7874015748031497,
                    "duration": 0.34090912499999604
                },
                {
                    "name": "G#5",
                    "midi": 80,
                    "time": 88.63637249999974,
                    "velocity": 0.7874015748031497,
                    "duration": 0.34090912499999604
                },
                {
                    "name": "F5",
                    "midi": 77,
                    "time": 89.09091799999973,
                    "velocity": 0.7874015748031497,
                    "duration": 0.34090912499999604
                },
                {
                    "name": "G#5",
                    "midi": 80,
                    "time": 89.54546349999973,
                    "velocity": 0.7874015748031497,
                    "duration": 0.34090912499999604
                },
                {
                    "name": "F5",
                    "midi": 77,
                    "time": 90.00000899999972,
                    "velocity": 0.7874015748031497,
                    "duration": 0.34090912499999604
                },
                {
                    "name": "G#5",
                    "midi": 80,
                    "time": 90.45455449999972,
                    "velocity": 0.7874015748031497,
                    "duration": 0.34090912499999604
                },
                {
                    "name": "D5",
                    "midi": 74,
                    "time": 90.90909999999971,
                    "velocity": 0.7874015748031497,
                    "duration": 0.34090912499999604
                },
                {
                    "name": "G5",
                    "midi": 79,
                    "time": 91.3636454999997,
                    "velocity": 0.7874015748031497,
                    "duration": 0.34090912499999604
                },
                {
                    "name": "D5",
                    "midi": 74,
                    "time": 91.8181909999997,
                    "velocity": 0.7874015748031497,
                    "duration": 0.34090912499999604
                },
                {
                    "name": "G5",
                    "midi": 79,
                    "time": 92.2727364999997,
                    "velocity": 0.7874015748031497,
                    "duration": 0.34090912499999604
                },
                {
                    "name": "C5",
                    "midi": 72,
                    "time": 92.72728199999969,
                    "velocity": 0.7874015748031497,
                    "duration": 0.34090912499999604
                },
                {
                    "name": "F5",
                    "midi": 77,
                    "time": 93.18182749999968,
                    "velocity": 0.7874015748031497,
                    "duration": 0.34090912499999604
                },
                {
                    "name": "C5",
                    "midi": 72,
                    "time": 93.63637299999968,
                    "velocity": 0.7874015748031497,
                    "duration": 0.34090912499999604
                },
                {
                    "name": "F5",
                    "midi": 77,
                    "time": 94.09091849999967,
                    "velocity": 0.7874015748031497,
                    "duration": 0.34090912499999604
                },
                {
                    "name": "A#4",
                    "midi": 70,
                    "time": 94.54546399999967,
                    "velocity": 0.7874015748031497,
                    "duration": 0.34090912499999604
                },
                {
                    "name": "D#5",
                    "midi": 75,
                    "time": 95.00000949999966,
                    "velocity": 0.7874015748031497,
                    "duration": 0.34090912499999604
                },
                {
                    "name": "A#4",
                    "midi": 70,
                    "time": 95.45455499999966,
                    "velocity": 0.7874015748031497,
                    "duration": 0.34090912499999604
                },
                {
                    "name": "D#5",
                    "midi": 75,
                    "time": 95.90910049999965,
                    "velocity": 0.7874015748031497,
                    "duration": 0.34090912499999604
                },
                {
                    "name": "G#4",
                    "midi": 68,
                    "time": 96.36364599999965,
                    "velocity": 0.7874015748031497,
                    "duration": 0.34090912499999604
                },
                {
                    "name": "D5",
                    "midi": 74,
                    "time": 96.81819149999964,
                    "velocity": 0.7874015748031497,
                    "duration": 0.34090912499999604
                },
                {
                    "name": "G#4",
                    "midi": 68,
                    "time": 97.27273699999964,
                    "velocity": 0.7874015748031497,
                    "duration": 0.34090912499999604
                },
                {
                    "name": "D5",
                    "midi": 74,
                    "time": 97.72728249999963,
                    "velocity": 0.7874015748031497,
                    "duration": 0.34090912499999604
                },
                {
                    "name": "G4",
                    "midi": 67,
                    "time": 98.18182799999963,
                    "velocity": 0.7874015748031497,
                    "duration": 0.34090912499999604
                },
                {
                    "name": "G5",
                    "midi": 79,
                    "time": 98.63637349999962,
                    "velocity": 0.7874015748031497,
                    "duration": 0.34090912499999604
                },
                {
                    "name": "C5",
                    "midi": 72,
                    "time": 99.09091899999962,
                    "velocity": 0.7874015748031497,
                    "duration": 0.34090912499999604
                },
                {
                    "name": "G5",
                    "midi": 79,
                    "time": 99.54546449999961,
                    "velocity": 0.7874015748031497,
                    "duration": 0.34090912499999604
                },
                {
                    "name": "B4",
                    "midi": 71,
                    "time": 100.0000099999996,
                    "velocity": 0.7874015748031497,
                    "duration": 0.34090912499999604
                },
                {
                    "name": "F5",
                    "midi": 77,
                    "time": 100.4545554999996,
                    "velocity": 0.7874015748031497,
                    "duration": 0.34090912499999604
                },
                {
                    "name": "B4",
                    "midi": 71,
                    "time": 100.9091009999996,
                    "velocity": 0.7874015748031497,
                    "duration": 0.34090912499999604
                },
                {
                    "name": "F5",
                    "midi": 77,
                    "time": 101.36364649999959,
                    "velocity": 0.7874015748031497,
                    "duration": 0.34090912499999604
                },
                {
                    "name": "D#5",
                    "midi": 75,
                    "time": 101.81819199999958,
                    "velocity": 0.7874015748031497,
                    "duration": 0.34090912499999604
                },
                {
                    "name": "G#5",
                    "midi": 80,
                    "time": 102.27273749999958,
                    "velocity": 0.7874015748031497,
                    "duration": 0.34090912499999604
                },
                {
                    "name": "D#5",
                    "midi": 75,
                    "time": 102.72728299999957,
                    "velocity": 0.7874015748031497,
                    "duration": 0.34090912499999604
                },
                {
                    "name": "G#5",
                    "midi": 80,
                    "time": 103.18182849999957,
                    "velocity": 0.7874015748031497,
                    "duration": 0.34090912499999604
                },
                {
                    "name": "F5",
                    "midi": 77,
                    "time": 103.63637399999956,
                    "velocity": 0.7874015748031497,
                    "duration": 0.34090912499999604
                },
                {
                    "name": "A#5",
                    "midi": 82,
                    "time": 104.09091949999956,
                    "velocity": 0.7874015748031497,
                    "duration": 0.34090912499999604
                },
                {
                    "name": "F5",
                    "midi": 77,
                    "time": 104.54546499999955,
                    "velocity": 0.7874015748031497,
                    "duration": 0.34090912499999604
                },
                {
                    "name": "A#5",
                    "midi": 82,
                    "time": 105.00001049999955,
                    "velocity": 0.7874015748031497,
                    "duration": 0.34090912499999604
                },
                {
                    "name": "G5",
                    "midi": 79,
                    "time": 105.45455599999954,
                    "velocity": 0.7874015748031497,
                    "duration": 0.34090912499999604
                },
                {
                    "name": "C5",
                    "midi": 72,
                    "time": 105.90910149999954,
                    "velocity": 0.7874015748031497,
                    "duration": 0.34090912499999604
                },
                {
                    "name": "G4",
                    "midi": 67,
                    "time": 106.36364699999953,
                    "velocity": 0.7874015748031497,
                    "duration": 0.34090912499999604
                },
                {
                    "name": "C5",
                    "midi": 72,
                    "time": 106.81819249999953,
                    "velocity": 0.7874015748031497,
                    "duration": 0.34090912499999604
                },
                {
                    "name": "A4",
                    "midi": 69,
                    "time": 107.27273799999952,
                    "velocity": 0.7874015748031497,
                    "duration": 0.34090912499999604
                },
                {
                    "name": "D5",
                    "midi": 74,
                    "time": 107.72728349999952,
                    "velocity": 0.7874015748031497,
                    "duration": 0.34090912499999604
                },
                {
                    "name": "A4",
                    "midi": 69,
                    "time": 108.18182899999951,
                    "velocity": 0.7874015748031497,
                    "duration": 0.34090912499999604
                },
                {
                    "name": "D5",
                    "midi": 74,
                    "time": 108.6363744999995,
                    "velocity": 0.7874015748031497,
                    "duration": 0.34090912499999604
                },
                {
                    "name": "G4",
                    "midi": 67,
                    "time": 109.0909199999995,
                    "velocity": 0.7874015748031497,
                    "duration": 0.34090912499999604
                },
                {
                    "name": "C5",
                    "midi": 72,
                    "time": 109.5454654999995,
                    "velocity": 0.7874015748031497,
                    "duration": 0.34090912499999604
                },
                {
                    "name": "G4",
                    "midi": 67,
                    "time": 110.00001099999949,
                    "velocity": 0.7874015748031497,
                    "duration": 0.34090912499999604
                },
                {
                    "name": "C5",
                    "midi": 72,
                    "time": 110.45455649999948,
                    "velocity": 0.7874015748031497,
                    "duration": 0.34090912499999604
                },
                {
                    "name": "F#4",
                    "midi": 66,
                    "time": 110.90910199999948,
                    "velocity": 0.7874015748031497,
                    "duration": 0.34090912499999604
                },
                {
                    "name": "A#4",
                    "midi": 70,
                    "time": 111.36364749999947,
                    "velocity": 0.7874015748031497,
                    "duration": 0.34090912499999604
                },
                {
                    "name": "F#4",
                    "midi": 66,
                    "time": 111.81819299999947,
                    "velocity": 0.7874015748031497,
                    "duration": 0.34090912499999604
                },
                {
                    "name": "A#4",
                    "midi": 70,
                    "time": 112.27273849999946,
                    "velocity": 0.7874015748031497,
                    "duration": 0.34090912499999604
                },
                {
                    "name": "G4",
                    "midi": 67,
                    "time": 112.72728399999946,
                    "velocity": 0.7874015748031497,
                    "duration": 0.34090912499999604
                },
                {
                    "name": "C5",
                    "midi": 72,
                    "time": 113.18182949999945,
                    "velocity": 0.7874015748031497,
                    "duration": 0.34090912499999604
                },
                {
                    "name": "G4",
                    "midi": 67,
                    "time": 113.63637499999945,
                    "velocity": 0.7874015748031497,
                    "duration": 0.34090912499999604
                },
                {
                    "name": "C5",
                    "midi": 72,
                    "time": 114.09092049999944,
                    "velocity": 0.7874015748031497,
                    "duration": 0.34090912499999604
                },
                {
                    "name": "A4",
                    "midi": 69,
                    "time": 114.54546599999944,
                    "velocity": 0.7874015748031497,
                    "duration": 0.34090912499999604
                },
                {
                    "name": "D5",
                    "midi": 74,
                    "time": 115.00001149999943,
                    "velocity": 0.7874015748031497,
                    "duration": 0.34090912499999604
                },
                {
                    "name": "A4",
                    "midi": 69,
                    "time": 115.45455699999943,
                    "velocity": 0.7874015748031497,
                    "duration": 0.34090912499999604
                },
                {
                    "name": "D5",
                    "midi": 74,
                    "time": 115.90910249999942,
                    "velocity": 0.7874015748031497,
                    "duration": 0.34090912499999604
                },
                {
                    "name": "A#4",
                    "midi": 70,
                    "time": 116.36364799999942,
                    "velocity": 0.7874015748031497,
                    "duration": 0.34090912499999604
                },
                {
                    "name": "D#5",
                    "midi": 75,
                    "time": 116.81819349999941,
                    "velocity": 0.7874015748031497,
                    "duration": 0.34090912499999604
                },
                {
                    "name": "A#4",
                    "midi": 70,
                    "time": 117.2727389999994,
                    "velocity": 0.7874015748031497,
                    "duration": 0.34090912499999604
                },
                {
                    "name": "D#5",
                    "midi": 75,
                    "time": 117.7272844999994,
                    "velocity": 0.7874015748031497,
                    "duration": 0.34090912499999604
                },
                {
                    "name": "C5",
                    "midi": 72,
                    "time": 118.1818299999994,
                    "velocity": 0.7874015748031497,
                    "duration": 0.34090912499999604
                },
                {
                    "name": "F5",
                    "midi": 77,
                    "time": 118.63637549999939,
                    "velocity": 0.7874015748031497,
                    "duration": 0.34090912499999604
                },
                {
                    "name": "C5",
                    "midi": 72,
                    "time": 119.09092099999938,
                    "velocity": 0.7874015748031497,
                    "duration": 0.34090912499999604
                },
                {
                    "name": "F5",
                    "midi": 77,
                    "time": 119.54546649999938,
                    "velocity": 0.7874015748031497,
                    "duration": 0.34090912499999604
                },
                {
                    "name": "D5",
                    "midi": 74,
                    "time": 120.00001199999937,
                    "velocity": 0.7874015748031497,
                    "duration": 0.34090912499999604
                },
                {
                    "name": "G5",
                    "midi": 79,
                    "time": 120.45455749999937,
                    "velocity": 0.7874015748031497,
                    "duration": 0.34090912499999604
                },
                {
                    "name": "D5",
                    "midi": 74,
                    "time": 120.90910299999936,
                    "velocity": 0.7874015748031497,
                    "duration": 0.34090912499999604
                },
                {
                    "name": "G5",
                    "midi": 79,
                    "time": 121.36364849999936,
                    "velocity": 0.7874015748031497,
                    "duration": 0.34090912499999604
                },
                {
                    "name": "D#5",
                    "midi": 75,
                    "time": 121.81819399999935,
                    "velocity": 0.7874015748031497,
                    "duration": 0.34090912499999604
                },
                {
                    "name": "G#5",
                    "midi": 80,
                    "time": 122.27273949999935,
                    "velocity": 0.7874015748031497,
                    "duration": 0.34090912499999604
                },
                {
                    "name": "D#5",
                    "midi": 75,
                    "time": 122.72728499999934,
                    "velocity": 0.7874015748031497,
                    "duration": 0.34090912499999604
                },
                {
                    "name": "G#5",
                    "midi": 80,
                    "time": 123.18183049999934,
                    "velocity": 0.7874015748031497,
                    "duration": 0.34090912499999604
                },
                {
                    "name": "F5",
                    "midi": 77,
                    "time": 123.63637599999933,
                    "velocity": 0.7874015748031497,
                    "duration": 0.34090912499999604
                },
                {
                    "name": "A#5",
                    "midi": 82,
                    "time": 124.09092149999933,
                    "velocity": 0.7874015748031497,
                    "duration": 0.34090912499999604
                },
                {
                    "name": "F5",
                    "midi": 77,
                    "time": 124.54546699999932,
                    "velocity": 0.7874015748031497,
                    "duration": 0.34090912499999604
                },
                {
                    "name": "A#5",
                    "midi": 82,
                    "time": 125.00001249999931,
                    "velocity": 0.7874015748031497,
                    "duration": 0.34090912499999604
                },
                {
                    "name": "G5",
                    "midi": 79,
                    "time": 125.45455799999931,
                    "velocity": 0.7874015748031497,
                    "duration": 0.34090912499999604
                },
                {
                    "name": "G5",
                    "midi": 79,
                    "time": 125.9091034999993,
                    "velocity": 0.7874015748031497,
                    "duration": 0.34090912499999604
                },
                {
                    "name": "C6",
                    "midi": 84,
                    "time": 126.3636489999993,
                    "velocity": 0.7874015748031497,
                    "duration": 0.34090912499999604
                },
                {
                    "name": "A#5",
                    "midi": 82,
                    "time": 126.8181944999993,
                    "velocity": 0.7874015748031497,
                    "duration": 0.34090912499999604
                },
                {
                    "name": "G#5",
                    "midi": 80,
                    "time": 127.27273999999929,
                    "velocity": 0.7874015748031497,
                    "duration": 0.34090912499999604
                },
                {
                    "name": "G5",
                    "midi": 79,
                    "time": 127.72728549999928,
                    "velocity": 0.7874015748031497,
                    "duration": 0.34090912499999604
                },
                {
                    "name": "F5",
                    "midi": 77,
                    "time": 128.18183099999928,
                    "velocity": 0.7874015748031497,
                    "duration": 0.34090912499999604
                },
                {
                    "name": "D#5",
                    "midi": 75,
                    "time": 128.63637649999927,
                    "velocity": 0.7874015748031497,
                    "duration": 0.34090912499999604
                },
                {
                    "name": "D5",
                    "midi": 74,
                    "time": 129.09092199999927,
                    "velocity": 0.7874015748031497,
                    "duration": 0.34090912499999604
                },
                {
                    "name": "D5",
                    "midi": 74,
                    "time": 129.54546749999926,
                    "velocity": 0.7874015748031497,
                    "duration": 0.34090912499999604
                },
                {
                    "name": "G5",
                    "midi": 79,
                    "time": 130.00001299999926,
                    "velocity": 0.7874015748031497,
                    "duration": 0.34090912499999604
                },
                {
                    "name": "F5",
                    "midi": 77,
                    "time": 130.45455849999925,
                    "velocity": 0.7874015748031497,
                    "duration": 0.34090912499999604
                },
                {
                    "name": "D#5",
                    "midi": 75,
                    "time": 130.90910399999925,
                    "velocity": 0.7874015748031497,
                    "duration": 0.34090912499999604
                },
                {
                    "name": "D5",
                    "midi": 74,
                    "time": 131.36364949999924,
                    "velocity": 0.7874015748031497,
                    "duration": 0.34090912499999604
                },
                {
                    "name": "C5",
                    "midi": 72,
                    "time": 131.81819499999924,
                    "velocity": 0.7874015748031497,
                    "duration": 0.34090912499999604
                },
                {
                    "name": "D5",
                    "midi": 74,
                    "time": 132.27274049999923,
                    "velocity": 0.7874015748031497,
                    "duration": 0.34090912499999604
                },
                {
                    "name": "D#5",
                    "midi": 75,
                    "time": 132.72728599999922,
                    "velocity": 0.7874015748031497,
                    "duration": 0.6818182499999921
                },
                {
                    "name": "D5",
                    "midi": 74,
                    "time": 133.63637699999921,
                    "velocity": 0.7874015748031497,
                    "duration": 0.6818182499999921
                },
                {
                    "name": "C5",
                    "midi": 72,
                    "time": 134.5454679999992,
                    "velocity": 0.7874015748031497,
                    "duration": 0.34090912499999604
                },
                {
                    "name": "G4",
                    "midi": 67,
                    "time": 135.0000134999992,
                    "velocity": 0.7874015748031497,
                    "duration": 0.34090912499999604
                },
                {
                    "name": "C5",
                    "midi": 72,
                    "time": 135.4545589999992,
                    "velocity": 0.7874015748031497,
                    "duration": 0.34090912499999604
                },
                {
                    "name": "G4",
                    "midi": 67,
                    "time": 135.9091044999992,
                    "velocity": 0.7874015748031497,
                    "duration": 0.34090912499999604
                },
                {
                    "name": "C5",
                    "midi": 72,
                    "time": 136.36364999999918,
                    "velocity": 0.7874015748031497,
                    "duration": 0.34090912499999604
                },
                {
                    "name": "D#5",
                    "midi": 75,
                    "time": 136.81819549999918,
                    "velocity": 0.7874015748031497,
                    "duration": 0.34090912499999604
                },
                {
                    "name": "C5",
                    "midi": 72,
                    "time": 137.27274099999917,
                    "velocity": 0.7874015748031497,
                    "duration": 0.34090912499999604
                },
                {
                    "name": "D#5",
                    "midi": 75,
                    "time": 137.72728649999917,
                    "velocity": 0.7874015748031497,
                    "duration": 0.34090912499999604
                },
                {
                    "name": "C5",
                    "midi": 72,
                    "time": 138.18183199999916,
                    "velocity": 0.7874015748031497,
                    "duration": 0.34090912499999604
                },
                {
                    "name": "G5",
                    "midi": 79,
                    "time": 138.63637749999916,
                    "velocity": 0.7874015748031497,
                    "duration": 0.34090912499999604
                },
                {
                    "name": "D#5",
                    "midi": 75,
                    "time": 139.09092299999915,
                    "velocity": 0.7874015748031497,
                    "duration": 0.34090912499999604
                },
                {
                    "name": "G5",
                    "midi": 79,
                    "time": 139.54546849999915,
                    "velocity": 0.7874015748031497,
                    "duration": 0.34090912499999604
                },
                {
                    "name": "D#5",
                    "midi": 75,
                    "time": 140.00001399999914,
                    "velocity": 0.7874015748031497,
                    "duration": 0.34090912499999604
                },
                {
                    "name": "G5",
                    "midi": 79,
                    "time": 140.45455949999914,
                    "velocity": 0.7874015748031497,
                    "duration": 0.34090912499999604
                },
                {
                    "name": "D#5",
                    "midi": 75,
                    "time": 140.90910499999913,
                    "velocity": 0.7874015748031497,
                    "duration": 0.34090912499999604
                },
                {
                    "name": "G5",
                    "midi": 79,
                    "time": 141.36365049999912,
                    "velocity": 0.7874015748031497,
                    "duration": 0.34090912499999604
                },
                {
                    "name": "F5",
                    "midi": 77,
                    "time": 141.81819599999912,
                    "velocity": 0.7874015748031497,
                    "duration": 0.34090912499999604
                },
                {
                    "name": "D#5",
                    "midi": 75,
                    "time": 142.2727414999991,
                    "velocity": 0.7874015748031497,
                    "duration": 0.34090912499999604
                },
                {
                    "name": "F5",
                    "midi": 77,
                    "time": 142.7272869999991,
                    "velocity": 0.7874015748031497,
                    "duration": 0.34090912499999604
                },
                {
                    "name": "D5",
                    "midi": 74,
                    "time": 143.1818324999991,
                    "velocity": 0.7874015748031497,
                    "duration": 0.34090912499999604
                },
                {
                    "name": "D#5",
                    "midi": 75,
                    "time": 143.6363779999991,
                    "velocity": 0.7874015748031497,
                    "duration": 0.34090912499999604
                },
                {
                    "name": "D5",
                    "midi": 74,
                    "time": 144.0909234999991,
                    "velocity": 0.7874015748031497,
                    "duration": 0.34090912499999604
                },
                {
                    "name": "D#5",
                    "midi": 75,
                    "time": 144.5454689999991,
                    "velocity": 0.7874015748031497,
                    "duration": 0.34090912499999604
                },
                {
                    "name": "C5",
                    "midi": 72,
                    "time": 145.00001449999908,
                    "velocity": 0.7874015748031497,
                    "duration": 0.34090912499999604
                },
                {
                    "name": "D5",
                    "midi": 74,
                    "time": 145.45455999999908,
                    "velocity": 0.7874015748031497,
                    "duration": 0.34090912499999604
                },
                {
                    "name": "D5",
                    "midi": 74,
                    "time": 145.90910549999907,
                    "velocity": 0.7874015748031497,
                    "duration": 0.34090912499999604
                },
                {
                    "name": "A#4",
                    "midi": 70,
                    "time": 146.36365099999907,
                    "velocity": 0.7874015748031497,
                    "duration": 0.34090912499999604
                },
                {
                    "name": "D5",
                    "midi": 74,
                    "time": 146.81819649999906,
                    "velocity": 0.7874015748031497,
                    "duration": 0.34090912499999604
                },
                {
                    "name": "A#4",
                    "midi": 70,
                    "time": 147.27274199999906,
                    "velocity": 0.7874015748031497,
                    "duration": 0.34090912499999604
                },
                {
                    "name": "D5",
                    "midi": 74,
                    "time": 147.72728749999905,
                    "velocity": 0.7874015748031497,
                    "duration": 0.34090912499999604
                },
                {
                    "name": "E5",
                    "midi": 76,
                    "time": 148.18183299999905,
                    "velocity": 0.7874015748031497,
                    "duration": 0.34090912499999604
                },
                {
                    "name": "F#5",
                    "midi": 78,
                    "time": 148.63637849999904,
                    "velocity": 0.7874015748031497,
                    "duration": 0.34090912499999604
                },
                {
                    "name": "G5",
                    "midi": 79,
                    "time": 149.09092399999903,
                    "velocity": 0.7874015748031497,
                    "duration": 0.34090912499999604
                },
                {
                    "name": "D5",
                    "midi": 74,
                    "time": 149.54546949999903,
                    "velocity": 0.7874015748031497,
                    "duration": 0.34090912499999604
                },
                {
                    "name": "G5",
                    "midi": 79,
                    "time": 150.00001499999902,
                    "velocity": 0.7874015748031497,
                    "duration": 0.34090912499999604
                },
                {
                    "name": "D5",
                    "midi": 74,
                    "time": 150.45456049999902,
                    "velocity": 0.7874015748031497,
                    "duration": 0.34090912499999604
                },
                {
                    "name": "G5",
                    "midi": 79,
                    "time": 150.909105999999,
                    "velocity": 0.7874015748031497,
                    "duration": 0.34090912499999604
                },
                {
                    "name": "A#5",
                    "midi": 82,
                    "time": 151.363651499999,
                    "velocity": 0.7874015748031497,
                    "duration": 0.34090912499999604
                },
                {
                    "name": "G5",
                    "midi": 79,
                    "time": 151.818196999999,
                    "velocity": 0.7874015748031497,
                    "duration": 0.34090912499999604
                },
                {
                    "name": "A#5",
                    "midi": 82,
                    "time": 152.272742499999,
                    "velocity": 0.7874015748031497,
                    "duration": 0.34090912499999604
                },
                {
                    "name": "G5",
                    "midi": 79,
                    "time": 152.727287999999,
                    "velocity": 0.7874015748031497,
                    "duration": 0.34090912499999604
                },
                {
                    "name": "F5",
                    "midi": 77,
                    "time": 153.181833499999,
                    "velocity": 0.7874015748031497,
                    "duration": 0.34090912499999604
                },
                {
                    "name": "D#5",
                    "midi": 75,
                    "time": 153.63637899999898,
                    "velocity": 0.7874015748031497,
                    "duration": 0.34090912499999604
                },
                {
                    "name": "D5",
                    "midi": 74,
                    "time": 154.09092449999898,
                    "velocity": 0.7874015748031497,
                    "duration": 0.34090912499999604
                },
                {
                    "name": "D#5",
                    "midi": 75,
                    "time": 154.54546999999897,
                    "velocity": 0.7874015748031497,
                    "duration": 0.34090912499999604
                },
                {
                    "name": "G5",
                    "midi": 79,
                    "time": 155.00001549999897,
                    "velocity": 0.7874015748031497,
                    "duration": 0.34090912499999604
                },
                {
                    "name": "D#5",
                    "midi": 75,
                    "time": 155.45456099999896,
                    "velocity": 0.7874015748031497,
                    "duration": 0.34090912499999604
                },
                {
                    "name": "G5",
                    "midi": 79,
                    "time": 155.90910649999896,
                    "velocity": 0.7874015748031497,
                    "duration": 0.34090912499999604
                },
                {
                    "name": "C5",
                    "midi": 72,
                    "time": 156.36365199999895,
                    "velocity": 0.7874015748031497,
                    "duration": 0.34090912499999604
                },
                {
                    "name": "G5",
                    "midi": 79,
                    "time": 156.81819749999894,
                    "velocity": 0.7874015748031497,
                    "duration": 0.34090912499999604
                },
                {
                    "name": "G#5",
                    "midi": 80,
                    "time": 157.27274299999894,
                    "velocity": 0.7874015748031497,
                    "duration": 0.34090912499999604
                },
                {
                    "name": "G5",
                    "midi": 79,
                    "time": 157.72728849999893,
                    "velocity": 0.7874015748031497,
                    "duration": 0.34090912499999604
                },
                {
                    "name": "F5",
                    "midi": 77,
                    "time": 158.18183399999893,
                    "velocity": 0.7874015748031497,
                    "duration": 0.34090912499999604
                },
                {
                    "name": "D#5",
                    "midi": 75,
                    "time": 158.63637949999892,
                    "velocity": 0.7874015748031497,
                    "duration": 0.34090912499999604
                },
                {
                    "name": "D5",
                    "midi": 74,
                    "time": 159.09092499999892,
                    "velocity": 0.7874015748031497,
                    "duration": 0.34090912499999604
                },
                {
                    "name": "C5",
                    "midi": 72,
                    "time": 159.5454704999989,
                    "velocity": 0.7874015748031497,
                    "duration": 0.34090912499999604
                },
                {
                    "name": "B4",
                    "midi": 71,
                    "time": 160.0000159999989,
                    "velocity": 0.7874015748031497,
                    "duration": 0.34090912499999604
                },
                {
                    "name": "D5",
                    "midi": 74,
                    "time": 160.4545614999989,
                    "velocity": 0.7874015748031497,
                    "duration": 0.34090912499999604
                },
                {
                    "name": "B4",
                    "midi": 71,
                    "time": 160.9091069999989,
                    "velocity": 0.7874015748031497,
                    "duration": 0.34090912499999604
                },
                {
                    "name": "D5",
                    "midi": 74,
                    "time": 161.3636524999989,
                    "velocity": 0.7874015748031497,
                    "duration": 0.34090912499999604
                },
                {
                    "name": "B4",
                    "midi": 71,
                    "time": 161.8181979999989,
                    "velocity": 0.7874015748031497,
                    "duration": 0.34090912499999604
                },
                {
                    "name": "B4",
                    "midi": 71,
                    "time": 162.27274349999888,
                    "velocity": 0.7874015748031497,
                    "duration": 0.34090912499999604
                },
                {
                    "name": "C5",
                    "midi": 72,
                    "time": 162.72728899999888,
                    "velocity": 0.7874015748031497,
                    "duration": 0.34090912499999604
                },
                {
                    "name": "D5",
                    "midi": 74,
                    "time": 163.18183449999887,
                    "velocity": 0.7874015748031497,
                    "duration": 0.34090912499999604
                },
                {
                    "name": "D#5",
                    "midi": 75,
                    "time": 163.63637999999887,
                    "velocity": 0.7874015748031497,
                    "duration": 0.34090912499999604
                },
                {
                    "name": "D5",
                    "midi": 74,
                    "time": 164.09092549999886,
                    "velocity": 0.7874015748031497,
                    "duration": 0.34090912499999604
                },
                {
                    "name": "D#5",
                    "midi": 75,
                    "time": 164.54547099999886,
                    "velocity": 0.7874015748031497,
                    "duration": 0.34090912499999604
                },
                {
                    "name": "F5",
                    "midi": 77,
                    "time": 165.00001649999885,
                    "velocity": 0.7874015748031497,
                    "duration": 0.34090912499999604
                },
                {
                    "name": "G5",
                    "midi": 79,
                    "time": 165.45456199999884,
                    "velocity": 0.7874015748031497,
                    "duration": 0.34090912499999604
                },
                {
                    "name": "C5",
                    "midi": 72,
                    "time": 165.90910749999884,
                    "velocity": 0.7874015748031497,
                    "duration": 0.34090912499999604
                },
                {
                    "name": "G5",
                    "midi": 79,
                    "time": 166.36365299999883,
                    "velocity": 0.7874015748031497,
                    "duration": 0.34090912499999604
                },
                {
                    "name": "C5",
                    "midi": 72,
                    "time": 166.81819849999883,
                    "velocity": 0.7874015748031497,
                    "duration": 0.34090912499999604
                },
                {
                    "name": "G#5",
                    "midi": 80,
                    "time": 167.27274399999882,
                    "velocity": 0.7874015748031497,
                    "duration": 0.34090912499999604
                },
                {
                    "name": "G#5",
                    "midi": 80,
                    "time": 167.72728949999882,
                    "velocity": 0.7874015748031497,
                    "duration": 0.1742424416666779
                },
                {
                    "name": "G5",
                    "midi": 79,
                    "time": 167.95456224999882,
                    "velocity": 0.7874015748031497,
                    "duration": 0.1742424416666779
                },
                {
                    "name": "F5",
                    "midi": 77,
                    "time": 168.1818349999988,
                    "velocity": 0.7874015748031497,
                    "duration": 0.34090912499999604
                },
                {
                    "name": "D#5",
                    "midi": 75,
                    "time": 168.6363804999988,
                    "velocity": 0.7874015748031497,
                    "duration": 0.34090912499999604
                },
                {
                    "name": "D5",
                    "midi": 74,
                    "time": 169.0909259999988,
                    "velocity": 0.7874015748031497,
                    "duration": 0.34090912499999604
                },
                {
                    "name": "F5",
                    "midi": 77,
                    "time": 169.5454714999988,
                    "velocity": 0.7874015748031497,
                    "duration": 0.34090912499999604
                },
                {
                    "name": "A#5",
                    "midi": 82,
                    "time": 170.0000169999988,
                    "velocity": 0.7874015748031497,
                    "duration": 0.34090912499999604
                },
                {
                    "name": "F5",
                    "midi": 77,
                    "time": 170.4545624999988,
                    "velocity": 0.7874015748031497,
                    "duration": 0.34090912499999604
                },
                {
                    "name": "A#5",
                    "midi": 82,
                    "time": 170.90910799999878,
                    "velocity": 0.7874015748031497,
                    "duration": 0.34090912499999604
                },
                {
                    "name": "G#5",
                    "midi": 80,
                    "time": 171.36365349999878,
                    "velocity": 0.7874015748031497,
                    "duration": 0.34090912499999604
                },
                {
                    "name": "G5",
                    "midi": 79,
                    "time": 171.81819899999877,
                    "velocity": 0.7874015748031497,
                    "duration": 0.34090912499999604
                },
                {
                    "name": "F5",
                    "midi": 77,
                    "time": 172.27274449999877,
                    "velocity": 0.7874015748031497,
                    "duration": 0.34090912499999604
                },
                {
                    "name": "G5",
                    "midi": 79,
                    "time": 172.72728999999876,
                    "velocity": 0.7874015748031497,
                    "duration": 0.34090912499999604
                },
                {
                    "name": "A#4",
                    "midi": 70,
                    "time": 173.18183549999875,
                    "velocity": 0.7874015748031497,
                    "duration": 0.34090912499999604
                },
                {
                    "name": "D#5",
                    "midi": 75,
                    "time": 173.63638099999875,
                    "velocity": 0.7874015748031497,
                    "duration": 0.34090912499999604
                },
                {
                    "name": "A#4",
                    "midi": 70,
                    "time": 174.09092649999874,
                    "velocity": 0.7874015748031497,
                    "duration": 0.34090912499999604
                },
                {
                    "name": "D#5",
                    "midi": 75,
                    "time": 174.54547199999874,
                    "velocity": 0.7874015748031497,
                    "duration": 0.34090912499999604
                },
                {
                    "name": "D5",
                    "midi": 74,
                    "time": 175.00001749999873,
                    "velocity": 0.7874015748031497,
                    "duration": 0.34090912499999604
                },
                {
                    "name": "C5",
                    "midi": 72,
                    "time": 175.45456299999873,
                    "velocity": 0.7874015748031497,
                    "duration": 0.34090912499999604
                },
                {
                    "name": "A#4",
                    "midi": 70,
                    "time": 175.90910849999872,
                    "velocity": 0.7874015748031497,
                    "duration": 0.34090912499999604
                },
                {
                    "name": "C5",
                    "midi": 72,
                    "time": 176.36365399999872,
                    "velocity": 0.7874015748031497,
                    "duration": 0.34090912499999604
                },
                {
                    "name": "C5",
                    "midi": 72,
                    "time": 176.8181994999987,
                    "velocity": 0.7874015748031497,
                    "duration": 0.34090912499999604
                },
                {
                    "name": "F5",
                    "midi": 77,
                    "time": 177.2727449999987,
                    "velocity": 0.7874015748031497,
                    "duration": 0.34090912499999604
                },
                {
                    "name": "C5",
                    "midi": 72,
                    "time": 177.7272904999987,
                    "velocity": 0.7874015748031497,
                    "duration": 0.34090912499999604
                },
                {
                    "name": "F5",
                    "midi": 77,
                    "time": 178.1818359999987,
                    "velocity": 0.7874015748031497,
                    "duration": 0.34090912499999604
                },
                {
                    "name": "G#5",
                    "midi": 80,
                    "time": 178.6363814999987,
                    "velocity": 0.7874015748031497,
                    "duration": 0.34090912499999604
                },
                {
                    "name": "F5",
                    "midi": 77,
                    "time": 179.0909269999987,
                    "velocity": 0.7874015748031497,
                    "duration": 0.34090912499999604
                },
                {
                    "name": "G#5",
                    "midi": 80,
                    "time": 179.54547249999868,
                    "velocity": 0.7874015748031497,
                    "duration": 0.34090912499999604
                },
                {
                    "name": "F5",
                    "midi": 77,
                    "time": 180.00001799999868,
                    "velocity": 0.7874015748031497,
                    "duration": 0.34090912499999604
                },
                {
                    "name": "G#5",
                    "midi": 80,
                    "time": 180.45456349999867,
                    "velocity": 0.7874015748031497,
                    "duration": 0.34090912499999604
                },
                {
                    "name": "F5",
                    "midi": 77,
                    "time": 180.90910899999867,
                    "velocity": 0.7874015748031497,
                    "duration": 0.34090912499999604
                },
                {
                    "name": "G#5",
                    "midi": 80,
                    "time": 181.36365449999866,
                    "velocity": 0.7874015748031497,
                    "duration": 0.34090912499999604
                },
                {
                    "name": "D5",
                    "midi": 74,
                    "time": 181.81819999999865,
                    "velocity": 0.7874015748031497,
                    "duration": 0.34090912499999604
                },
                {
                    "name": "G5",
                    "midi": 79,
                    "time": 182.27274549999865,
                    "velocity": 0.7874015748031497,
                    "duration": 0.34090912499999604
                },
                {
                    "name": "D5",
                    "midi": 74,
                    "time": 182.72729099999864,
                    "velocity": 0.7874015748031497,
                    "duration": 0.34090912499999604
                },
                {
                    "name": "G5",
                    "midi": 79,
                    "time": 183.18183649999864,
                    "velocity": 0.7874015748031497,
                    "duration": 0.34090912499999604
                },
                {
                    "name": "C5",
                    "midi": 72,
                    "time": 183.63638199999863,
                    "velocity": 0.7874015748031497,
                    "duration": 0.34090912499999604
                },
                {
                    "name": "F5",
                    "midi": 77,
                    "time": 184.09092749999863,
                    "velocity": 0.7874015748031497,
                    "duration": 0.34090912499999604
                },
                {
                    "name": "C5",
                    "midi": 72,
                    "time": 184.54547299999862,
                    "velocity": 0.7874015748031497,
                    "duration": 0.34090912499999604
                },
                {
                    "name": "F5",
                    "midi": 77,
                    "time": 185.00001849999862,
                    "velocity": 0.7874015748031497,
                    "duration": 0.34090912499999604
                },
                {
                    "name": "A#4",
                    "midi": 70,
                    "time": 185.4545639999986,
                    "velocity": 0.7874015748031497,
                    "duration": 0.34090912499999604
                },
                {
                    "name": "D#5",
                    "midi": 75,
                    "time": 185.9091094999986,
                    "velocity": 0.7874015748031497,
                    "duration": 0.34090912499999604
                },
                {
                    "name": "A#4",
                    "midi": 70,
                    "time": 186.3636549999986,
                    "velocity": 0.7874015748031497,
                    "duration": 0.34090912499999604
                },
                {
                    "name": "D#5",
                    "midi": 75,
                    "time": 186.8182004999986,
                    "velocity": 0.7874015748031497,
                    "duration": 0.34090912499999604
                },
                {
                    "name": "G#4",
                    "midi": 68,
                    "time": 187.2727459999986,
                    "velocity": 0.7874015748031497,
                    "duration": 0.34090912499999604
                },
                {
                    "name": "D5",
                    "midi": 74,
                    "time": 187.72729149999859,
                    "velocity": 0.7874015748031497,
                    "duration": 0.34090912499999604
                },
                {
                    "name": "G#4",
                    "midi": 68,
                    "time": 188.18183699999858,
                    "velocity": 0.7874015748031497,
                    "duration": 0.34090912499999604
                },
                {
                    "name": "D5",
                    "midi": 74,
                    "time": 188.63638249999858,
                    "velocity": 0.7874015748031497,
                    "duration": 0.34090912499999604
                },
                {
                    "name": "G4",
                    "midi": 67,
                    "time": 189.09092799999857,
                    "velocity": 0.7874015748031497,
                    "duration": 0.34090912499999604
                },
                {
                    "name": "G5",
                    "midi": 79,
                    "time": 189.54547349999856,
                    "velocity": 0.7874015748031497,
                    "duration": 0.34090912499999604
                },
                {
                    "name": "C5",
                    "midi": 72,
                    "time": 190.00001899999856,
                    "velocity": 0.7874015748031497,
                    "duration": 0.34090912499999604
                },
                {
                    "name": "G5",
                    "midi": 79,
                    "time": 190.45456449999855,
                    "velocity": 0.7874015748031497,
                    "duration": 0.34090912499999604
                },
                {
                    "name": "B4",
                    "midi": 71,
                    "time": 190.90910999999855,
                    "velocity": 0.7874015748031497,
                    "duration": 0.34090912499999604
                },
                {
                    "name": "F5",
                    "midi": 77,
                    "time": 191.36365549999854,
                    "velocity": 0.7874015748031497,
                    "duration": 0.34090912499999604
                },
                {
                    "name": "B4",
                    "midi": 71,
                    "time": 191.81820099999854,
                    "velocity": 0.7874015748031497,
                    "duration": 0.34090912499999604
                },
                {
                    "name": "F5",
                    "midi": 77,
                    "time": 192.27274649999853,
                    "velocity": 0.7874015748031497,
                    "duration": 0.34090912499999604
                },
                {
                    "name": "D#5",
                    "midi": 75,
                    "time": 192.72729199999853,
                    "velocity": 0.7874015748031497,
                    "duration": 0.34090912499999604
                },
                {
                    "name": "G#5",
                    "midi": 80,
                    "time": 193.18183749999852,
                    "velocity": 0.7874015748031497,
                    "duration": 0.34090912499999604
                },
                {
                    "name": "D#5",
                    "midi": 75,
                    "time": 193.63638299999852,
                    "velocity": 0.7874015748031497,
                    "duration": 0.34090912499999604
                },
                {
                    "name": "G#5",
                    "midi": 80,
                    "time": 194.0909284999985,
                    "velocity": 0.7874015748031497,
                    "duration": 0.34090912499999604
                },
                {
                    "name": "F5",
                    "midi": 77,
                    "time": 194.5454739999985,
                    "velocity": 0.7874015748031497,
                    "duration": 0.34090912499999604
                },
                {
                    "name": "A#5",
                    "midi": 82,
                    "time": 195.0000194999985,
                    "velocity": 0.7874015748031497,
                    "duration": 0.34090912499999604
                },
                {
                    "name": "F5",
                    "midi": 77,
                    "time": 195.4545649999985,
                    "velocity": 0.7874015748031497,
                    "duration": 0.34090912499999604
                },
                {
                    "name": "A#5",
                    "midi": 82,
                    "time": 195.9091104999985,
                    "velocity": 0.7874015748031497,
                    "duration": 0.34090912499999604
                },
                {
                    "name": "G5",
                    "midi": 79,
                    "time": 196.36365599999849,
                    "velocity": 0.7874015748031497,
                    "duration": 0.34090912499999604
                },
                {
                    "name": "C5",
                    "midi": 72,
                    "time": 196.81820149999848,
                    "velocity": 0.7874015748031497,
                    "duration": 0.34090912499999604
                },
                {
                    "name": "G4",
                    "midi": 67,
                    "time": 197.27274699999847,
                    "velocity": 0.7874015748031497,
                    "duration": 0.34090912499999604
                },
                {
                    "name": "C5",
                    "midi": 72,
                    "time": 197.72729249999847,
                    "velocity": 0.7874015748031497,
                    "duration": 0.34090912499999604
                },
                {
                    "name": "A4",
                    "midi": 69,
                    "time": 198.18183799999846,
                    "velocity": 0.7874015748031497,
                    "duration": 0.34090912499999604
                },
                {
                    "name": "D5",
                    "midi": 74,
                    "time": 198.63638349999846,
                    "velocity": 0.7874015748031497,
                    "duration": 0.34090912499999604
                },
                {
                    "name": "A4",
                    "midi": 69,
                    "time": 199.09092899999845,
                    "velocity": 0.7874015748031497,
                    "duration": 0.34090912499999604
                },
                {
                    "name": "D5",
                    "midi": 74,
                    "time": 199.54547449999845,
                    "velocity": 0.7874015748031497,
                    "duration": 0.34090912499999604
                },
                {
                    "name": "G4",
                    "midi": 67,
                    "time": 200.00001999999844,
                    "velocity": 0.7874015748031497,
                    "duration": 0.34090912499999604
                },
                {
                    "name": "C5",
                    "midi": 72,
                    "time": 200.45456549999844,
                    "velocity": 0.7874015748031497,
                    "duration": 0.34090912499999604
                },
                {
                    "name": "G4",
                    "midi": 67,
                    "time": 200.90911099999843,
                    "velocity": 0.7874015748031497,
                    "duration": 0.34090912499999604
                },
                {
                    "name": "C5",
                    "midi": 72,
                    "time": 201.36365649999843,
                    "velocity": 0.7874015748031497,
                    "duration": 0.34090912499999604
                },
                {
                    "name": "F#4",
                    "midi": 66,
                    "time": 201.81820199999842,
                    "velocity": 0.7874015748031497,
                    "duration": 0.34090912499999604
                },
                {
                    "name": "A#4",
                    "midi": 70,
                    "time": 202.27274749999842,
                    "velocity": 0.7874015748031497,
                    "duration": 0.34090912499999604
                },
                {
                    "name": "F#4",
                    "midi": 66,
                    "time": 202.7272929999984,
                    "velocity": 0.7874015748031497,
                    "duration": 0.34090912499999604
                },
                {
                    "name": "A#4",
                    "midi": 70,
                    "time": 203.1818384999984,
                    "velocity": 0.7874015748031497,
                    "duration": 0.34090912499999604
                },
                {
                    "name": "G4",
                    "midi": 67,
                    "time": 203.6363839999984,
                    "velocity": 0.7874015748031497,
                    "duration": 0.34090912499999604
                },
                {
                    "name": "C5",
                    "midi": 72,
                    "time": 204.0909294999984,
                    "velocity": 0.7874015748031497,
                    "duration": 0.34090912499999604
                },
                {
                    "name": "G4",
                    "midi": 67,
                    "time": 204.5454749999984,
                    "velocity": 0.7874015748031497,
                    "duration": 0.34090912499999604
                },
                {
                    "name": "C5",
                    "midi": 72,
                    "time": 205.00002049999839,
                    "velocity": 0.7874015748031497,
                    "duration": 0.34090912499999604
                },
                {
                    "name": "A4",
                    "midi": 69,
                    "time": 205.45456599999838,
                    "velocity": 0.7874015748031497,
                    "duration": 0.34090912499999604
                },
                {
                    "name": "D5",
                    "midi": 74,
                    "time": 205.90911149999837,
                    "velocity": 0.7874015748031497,
                    "duration": 0.34090912499999604
                },
                {
                    "name": "A4",
                    "midi": 69,
                    "time": 206.36365699999837,
                    "velocity": 0.7874015748031497,
                    "duration": 0.34090912499999604
                },
                {
                    "name": "D5",
                    "midi": 74,
                    "time": 206.81820249999836,
                    "velocity": 0.7874015748031497,
                    "duration": 0.34090912499999604
                },
                {
                    "name": "A#4",
                    "midi": 70,
                    "time": 207.27274799999836,
                    "velocity": 0.7874015748031497,
                    "duration": 0.34090912499999604
                },
                {
                    "name": "D#5",
                    "midi": 75,
                    "time": 207.72729349999835,
                    "velocity": 0.7874015748031497,
                    "duration": 0.34090912499999604
                },
                {
                    "name": "A#4",
                    "midi": 70,
                    "time": 208.18183899999835,
                    "velocity": 0.7874015748031497,
                    "duration": 0.34090912499999604
                },
                {
                    "name": "D#5",
                    "midi": 75,
                    "time": 208.63638449999834,
                    "velocity": 0.7874015748031497,
                    "duration": 0.34090912499999604
                },
                {
                    "name": "C5",
                    "midi": 72,
                    "time": 209.09092999999834,
                    "velocity": 0.7874015748031497,
                    "duration": 0.34090912499999604
                },
                {
                    "name": "F5",
                    "midi": 77,
                    "time": 209.54547549999833,
                    "velocity": 0.7874015748031497,
                    "duration": 0.34090912499999604
                },
                {
                    "name": "C5",
                    "midi": 72,
                    "time": 210.00002099999833,
                    "velocity": 0.7874015748031497,
                    "duration": 0.34090912499999604
                },
                {
                    "name": "F5",
                    "midi": 77,
                    "time": 210.45456649999832,
                    "velocity": 0.7874015748031497,
                    "duration": 0.34090912499999604
                },
                {
                    "name": "D5",
                    "midi": 74,
                    "time": 210.90911199999832,
                    "velocity": 0.7874015748031497,
                    "duration": 0.34090912499999604
                },
                {
                    "name": "G5",
                    "midi": 79,
                    "time": 211.3636574999983,
                    "velocity": 0.7874015748031497,
                    "duration": 0.34090912499999604
                },
                {
                    "name": "D5",
                    "midi": 74,
                    "time": 211.8182029999983,
                    "velocity": 0.7874015748031497,
                    "duration": 0.34090912499999604
                },
                {
                    "name": "G5",
                    "midi": 79,
                    "time": 212.2727484999983,
                    "velocity": 0.7874015748031497,
                    "duration": 0.34090912499999604
                },
                {
                    "name": "D#5",
                    "midi": 75,
                    "time": 212.7272939999983,
                    "velocity": 0.7874015748031497,
                    "duration": 0.34090912499999604
                },
                {
                    "name": "G#5",
                    "midi": 80,
                    "time": 213.1818394999983,
                    "velocity": 0.7874015748031497,
                    "duration": 0.34090912499999604
                },
                {
                    "name": "D#5",
                    "midi": 75,
                    "time": 213.63638499999828,
                    "velocity": 0.7874015748031497,
                    "duration": 0.34090912499999604
                },
                {
                    "name": "G#5",
                    "midi": 80,
                    "time": 214.09093049999828,
                    "velocity": 0.7874015748031497,
                    "duration": 0.34090912499999604
                },
                {
                    "name": "F5",
                    "midi": 77,
                    "time": 214.54547599999827,
                    "velocity": 0.7874015748031497,
                    "duration": 0.34090912499999604
                },
                {
                    "name": "A#5",
                    "midi": 82,
                    "time": 215.00002149999827,
                    "velocity": 0.7874015748031497,
                    "duration": 0.34090912499999604
                },
                {
                    "name": "F5",
                    "midi": 77,
                    "time": 215.45456699999826,
                    "velocity": 0.7874015748031497,
                    "duration": 0.34090912499999604
                },
                {
                    "name": "A#5",
                    "midi": 82,
                    "time": 215.90911249999826,
                    "velocity": 0.7874015748031497,
                    "duration": 0.34090912499999604
                },
                {
                    "name": "G5",
                    "midi": 79,
                    "time": 216.36365799999825,
                    "velocity": 0.7874015748031497,
                    "duration": 0.34090912499999604
                },
                {
                    "name": "G5",
                    "midi": 79,
                    "time": 216.81820349999825,
                    "velocity": 0.7874015748031497,
                    "duration": 0.34090912499999604
                },
                {
                    "name": "C6",
                    "midi": 84,
                    "time": 217.27274899999824,
                    "velocity": 0.7874015748031497,
                    "duration": 0.34090912499999604
                },
                {
                    "name": "A#5",
                    "midi": 82,
                    "time": 217.72729449999824,
                    "velocity": 0.7874015748031497,
                    "duration": 0.34090912499999604
                },
                {
                    "name": "G#5",
                    "midi": 80,
                    "time": 218.18183999999823,
                    "velocity": 0.7874015748031497,
                    "duration": 0.34090912499999604
                },
                {
                    "name": "G5",
                    "midi": 79,
                    "time": 218.63638549999823,
                    "velocity": 0.7874015748031497,
                    "duration": 0.34090912499999604
                },
                {
                    "name": "F5",
                    "midi": 77,
                    "time": 219.09093099999822,
                    "velocity": 0.7874015748031497,
                    "duration": 0.34090912499999604
                },
                {
                    "name": "D#5",
                    "midi": 75,
                    "time": 219.54547649999822,
                    "velocity": 0.7874015748031497,
                    "duration": 0.34090912499999604
                },
                {
                    "name": "D5",
                    "midi": 74,
                    "time": 220.0000219999982,
                    "velocity": 0.7874015748031497,
                    "duration": 0.34090912499999604
                },
                {
                    "name": "D5",
                    "midi": 74,
                    "time": 220.4545674999982,
                    "velocity": 0.7874015748031497,
                    "duration": 0.34090912499999604
                },
                {
                    "name": "G5",
                    "midi": 79,
                    "time": 220.9091129999982,
                    "velocity": 0.7874015748031497,
                    "duration": 0.34090912499999604
                },
                {
                    "name": "F5",
                    "midi": 77,
                    "time": 221.3636584999982,
                    "velocity": 0.7874015748031497,
                    "duration": 0.34090912499999604
                },
                {
                    "name": "D#5",
                    "midi": 75,
                    "time": 221.8182039999982,
                    "velocity": 0.7874015748031497,
                    "duration": 0.34090912499999604
                },
                {
                    "name": "D5",
                    "midi": 74,
                    "time": 222.27274949999818,
                    "velocity": 0.7874015748031497,
                    "duration": 0.34090912499999604
                },
                {
                    "name": "C5",
                    "midi": 72,
                    "time": 222.72729499999818,
                    "velocity": 0.7874015748031497,
                    "duration": 0.34090912499999604
                },
                {
                    "name": "D5",
                    "midi": 74,
                    "time": 223.18184049999817,
                    "velocity": 0.7874015748031497,
                    "duration": 0.34090912499999604
                },
                {
                    "name": "D#5",
                    "midi": 75,
                    "time": 223.63638599999817,
                    "velocity": 0.7874015748031497,
                    "duration": 0.6818182499999921
                },
                {
                    "name": "D5",
                    "midi": 74,
                    "time": 224.54547699999816,
                    "velocity": 0.7874015748031497,
                    "duration": 0.6818182499999921
                },
                {
                    "name": "C5",
                    "midi": 72,
                    "time": 225.45456799999815,
                    "velocity": 0.7874015748031497,
                    "duration": 3.636363999999986
                }
            ],
            "controlChanges": {
                "7": [
                    {
                        "number": 7,
                        "time": 0,
                        "value": 0.5511811023622047
                    }
                ],
                "10": [
                    {
                        "number": 10,
                        "time": 0,
                        "value": 0.1968503937007874
                    }
                ]
            },
            "id": 8,
            "name": "Violin A",
            "instrumentNumber": 40,
            "instrument": "violin",
            "instrumentFamily": "strings",
            "channelNumber": 7,
            "isPercussion": false
        },
        {
            "startTime": 0,
            "duration": 229.09093199999825,
            "length": 428,
            "notes": [
                {
                    "name": "D#5",
                    "midi": 75,
                    "time": 0,
                    "velocity": 0.7874015748031497,
                    "duration": 1.3636365
                },
                {
                    "name": "D#5",
                    "midi": 75,
                    "time": 1.3636365,
                    "velocity": 0.7874015748031497,
                    "duration": 0.45454550000000005
                },
                {
                    "name": "D#5",
                    "midi": 75,
                    "time": 1.818182,
                    "velocity": 0.7874015748031497,
                    "duration": 0.9090909999999999
                },
                {
                    "name": "D5",
                    "midi": 74,
                    "time": 2.727273,
                    "velocity": 0.7874015748031497,
                    "duration": 1.3636364999999997
                },
                {
                    "name": "D5",
                    "midi": 74,
                    "time": 4.0909094999999995,
                    "velocity": 0.7874015748031497,
                    "duration": 0.45454550000000005
                },
                {
                    "name": "C5",
                    "midi": 72,
                    "time": 4.545455,
                    "velocity": 0.7874015748031497,
                    "duration": 0.9090910000000001
                },
                {
                    "name": "A#4",
                    "midi": 70,
                    "time": 5.454546,
                    "velocity": 0.7874015748031497,
                    "duration": 1.3636365000000001
                },
                {
                    "name": "A#4",
                    "midi": 70,
                    "time": 6.8181825,
                    "velocity": 0.7874015748031497,
                    "duration": 0.45454550000000005
                },
                {
                    "name": "G#4",
                    "midi": 68,
                    "time": 7.272728,
                    "velocity": 0.7874015748031497,
                    "duration": 1.3636364999999993
                },
                {
                    "name": "G#4",
                    "midi": 68,
                    "time": 8.636364499999999,
                    "velocity": 0.7874015748031497,
                    "duration": 0.45454550000000005
                },
                {
                    "name": "G4",
                    "midi": 67,
                    "time": 9.09091,
                    "velocity": 0.7874015748031497,
                    "duration": 0.9090910000000001
                },
                {
                    "name": "C5",
                    "midi": 72,
                    "time": 10.000001,
                    "velocity": 0.7874015748031497,
                    "duration": 0.9090910000000001
                },
                {
                    "name": "D5",
                    "midi": 74,
                    "time": 10.909092,
                    "velocity": 0.7874015748031497,
                    "duration": 1.3636365000000001
                },
                {
                    "name": "D5",
                    "midi": 74,
                    "time": 12.2727285,
                    "velocity": 0.7874015748031497,
                    "duration": 0.45454550000000005
                },
                {
                    "name": "C5",
                    "midi": 72,
                    "time": 12.727274,
                    "velocity": 0.7874015748031497,
                    "duration": 0.45454550000000005
                },
                {
                    "name": "D5",
                    "midi": 74,
                    "time": 13.1818195,
                    "velocity": 0.7874015748031497,
                    "duration": 0.45454550000000005
                },
                {
                    "name": "D#5",
                    "midi": 75,
                    "time": 13.636365,
                    "velocity": 0.7874015748031497,
                    "duration": 1.3636365000000001
                },
                {
                    "name": "D#5",
                    "midi": 75,
                    "time": 15.0000015,
                    "velocity": 0.7874015748031497,
                    "duration": 0.45454550000000005
                },
                {
                    "name": "D5",
                    "midi": 74,
                    "time": 15.454547,
                    "velocity": 0.7874015748031497,
                    "duration": 0.9090909999999983
                },
                {
                    "name": "C5",
                    "midi": 72,
                    "time": 16.363637999999998,
                    "velocity": 0.7874015748031497,
                    "duration": 1.8181820000000002
                },
                {
                    "name": "A#4",
                    "midi": 70,
                    "time": 18.18182,
                    "velocity": 0.7874015748031497,
                    "duration": 0.9090910000000001
                },
                {
                    "name": "C5",
                    "midi": 72,
                    "time": 19.545456499999997,
                    "velocity": 0.7874015748031497,
                    "duration": 0.45454549999999827
                },
                {
                    "name": "D5",
                    "midi": 74,
                    "time": 20.000001999999995,
                    "velocity": 0.7874015748031497,
                    "duration": 1.3636364999999984
                },
                {
                    "name": "D5",
                    "midi": 74,
                    "time": 21.363638499999993,
                    "velocity": 0.7874015748031497,
                    "duration": 0.45454549999999827
                },
                {
                    "name": "D5",
                    "midi": 74,
                    "time": 21.81818399999999,
                    "velocity": 0.7874015748031497,
                    "duration": 0.9090910000000001
                },
                {
                    "name": "D#5",
                    "midi": 75,
                    "time": 22.72727499999999,
                    "velocity": 0.7874015748031497,
                    "duration": 0.6818182499999992
                },
                {
                    "name": "D5",
                    "midi": 74,
                    "time": 23.40909324999999,
                    "velocity": 0.7874015748031497,
                    "duration": 0.2272727500000009
                },
                {
                    "name": "C5",
                    "midi": 72,
                    "time": 23.63636599999999,
                    "velocity": 0.7874015748031497,
                    "duration": 2.7272730000000003
                },
                {
                    "name": "C5",
                    "midi": 72,
                    "time": 26.363638999999992,
                    "velocity": 0.7874015748031497,
                    "duration": 0.9090910000000001
                },
                {
                    "name": "C5",
                    "midi": 72,
                    "time": 27.272729999999992,
                    "velocity": 0.7874015748031497,
                    "duration": 1.3636364999999984
                },
                {
                    "name": "C5",
                    "midi": 72,
                    "time": 28.63636649999999,
                    "velocity": 0.7874015748031497,
                    "duration": 0.45454549999999827
                },
                {
                    "name": "C5",
                    "midi": 72,
                    "time": 29.09091199999999,
                    "velocity": 0.7874015748031497,
                    "duration": 0.9090910000000001
                },
                {
                    "name": "A#4",
                    "midi": 70,
                    "time": 30.00000299999999,
                    "velocity": 0.7874015748031497,
                    "duration": 0.9090910000000001
                },
                {
                    "name": "A#4",
                    "midi": 70,
                    "time": 30.90909399999999,
                    "velocity": 0.7874015748031497,
                    "duration": 0.6818182499999992
                },
                {
                    "name": "A#4",
                    "midi": 70,
                    "time": 31.590912249999988,
                    "velocity": 0.7874015748031497,
                    "duration": 0.2272727500000009
                },
                {
                    "name": "A4",
                    "midi": 69,
                    "time": 31.81818499999999,
                    "velocity": 0.7874015748031497,
                    "duration": 0.6818182500000027
                },
                {
                    "name": "A#4",
                    "midi": 70,
                    "time": 32.50000324999999,
                    "velocity": 0.7874015748031497,
                    "duration": 0.22727274999999736
                },
                {
                    "name": "G4",
                    "midi": 67,
                    "time": 32.72727599999999,
                    "velocity": 0.7874015748031497,
                    "duration": 1.8181820000000002
                },
                {
                    "name": "G4",
                    "midi": 67,
                    "time": 34.54545799999999,
                    "velocity": 0.7874015748031497,
                    "duration": 0.6818182499999992
                },
                {
                    "name": "G4",
                    "midi": 67,
                    "time": 35.22727624999999,
                    "velocity": 0.7874015748031497,
                    "duration": 0.22727274999999736
                },
                {
                    "name": "G#4",
                    "midi": 68,
                    "time": 35.454548999999986,
                    "velocity": 0.7874015748031497,
                    "duration": 0.6818182499999992
                },
                {
                    "name": "G4",
                    "midi": 67,
                    "time": 36.136367249999985,
                    "velocity": 0.7874015748031497,
                    "duration": 0.22727274999999736
                },
                {
                    "name": "C5",
                    "midi": 72,
                    "time": 36.36363999999998,
                    "velocity": 0.7874015748031497,
                    "duration": 0.9090909999999965
                },
                {
                    "name": "A#4",
                    "midi": 70,
                    "time": 37.27273099999998,
                    "velocity": 0.7874015748031497,
                    "duration": 0.9090909999999965
                },
                {
                    "name": "A4",
                    "midi": 69,
                    "time": 38.181821999999976,
                    "velocity": 0.7874015748031497,
                    "duration": 0.9090909999999965
                },
                {
                    "name": "G#4",
                    "midi": 68,
                    "time": 39.09091299999997,
                    "velocity": 0.7874015748031497,
                    "duration": 0.9090909999999965
                },
                {
                    "name": "G4",
                    "midi": 67,
                    "time": 40.00000399999997,
                    "velocity": 0.7874015748031497,
                    "duration": 0.9090909999999965
                },
                {
                    "name": "C5",
                    "midi": 72,
                    "time": 40.909094999999965,
                    "velocity": 0.7874015748031497,
                    "duration": 1.8181820000000002
                },
                {
                    "name": "B4",
                    "midi": 71,
                    "time": 42.727276999999965,
                    "velocity": 0.7874015748031497,
                    "duration": 0.9090909999999965
                },
                {
                    "name": "C5",
                    "midi": 72,
                    "time": 43.63636799999996,
                    "velocity": 0.7874015748031497,
                    "duration": 0.6818182499999992
                },
                {
                    "name": "G4",
                    "midi": 67,
                    "time": 47.727277499999964,
                    "velocity": 0.7874015748031497,
                    "duration": 0.34090912500000314
                },
                {
                    "name": "C5",
                    "midi": 72,
                    "time": 48.181822999999966,
                    "velocity": 0.7874015748031497,
                    "duration": 0.34090912500000314
                },
                {
                    "name": "G4",
                    "midi": 67,
                    "time": 48.63636849999997,
                    "velocity": 0.7874015748031497,
                    "duration": 0.34090912500000314
                },
                {
                    "name": "C5",
                    "midi": 72,
                    "time": 49.09091399999997,
                    "velocity": 0.7874015748031497,
                    "duration": 0.34090912500000314
                },
                {
                    "name": "D#5",
                    "midi": 75,
                    "time": 49.54545949999997,
                    "velocity": 0.7874015748031497,
                    "duration": 0.34090912500000314
                },
                {
                    "name": "C5",
                    "midi": 72,
                    "time": 50.00000499999997,
                    "velocity": 0.7874015748031497,
                    "duration": 0.34090912500000314
                },
                {
                    "name": "D#5",
                    "midi": 75,
                    "time": 50.454550499999975,
                    "velocity": 0.7874015748031497,
                    "duration": 0.34090912500000314
                },
                {
                    "name": "D5",
                    "midi": 74,
                    "time": 50.90909599999998,
                    "velocity": 0.7874015748031497,
                    "duration": 0.34090912500000314
                },
                {
                    "name": "C5",
                    "midi": 72,
                    "time": 51.36364149999998,
                    "velocity": 0.7874015748031497,
                    "duration": 0.34090912500000314
                },
                {
                    "name": "D5",
                    "midi": 74,
                    "time": 51.81818699999998,
                    "velocity": 0.7874015748031497,
                    "duration": 0.34090912500000314
                },
                {
                    "name": "B4",
                    "midi": 71,
                    "time": 52.27273249999998,
                    "velocity": 0.7874015748031497,
                    "duration": 0.34090912500000314
                },
                {
                    "name": "C5",
                    "midi": 72,
                    "time": 52.727277999999984,
                    "velocity": 0.7874015748031497,
                    "duration": 0.34090912500000314
                },
                {
                    "name": "B4",
                    "midi": 71,
                    "time": 53.181823499999986,
                    "velocity": 0.7874015748031497,
                    "duration": 0.34090912500000314
                },
                {
                    "name": "C5",
                    "midi": 72,
                    "time": 53.63636899999999,
                    "velocity": 0.7874015748031497,
                    "duration": 0.34090912500000314
                },
                {
                    "name": "A4",
                    "midi": 69,
                    "time": 54.09091449999999,
                    "velocity": 0.7874015748031497,
                    "duration": 0.34090912500000314
                },
                {
                    "name": "A#4",
                    "midi": 70,
                    "time": 54.54545999999999,
                    "velocity": 0.7874015748031497,
                    "duration": 0.34090912500000314
                },
                {
                    "name": "A#4",
                    "midi": 70,
                    "time": 55.00000549999999,
                    "velocity": 0.7874015748031497,
                    "duration": 0.34090912500000314
                },
                {
                    "name": "G4",
                    "midi": 67,
                    "time": 55.454550999999995,
                    "velocity": 0.7874015748031497,
                    "duration": 0.34090912500000314
                },
                {
                    "name": "A#4",
                    "midi": 70,
                    "time": 55.9090965,
                    "velocity": 0.7874015748031497,
                    "duration": 0.34090912500000314
                },
                {
                    "name": "G4",
                    "midi": 67,
                    "time": 56.363642,
                    "velocity": 0.7874015748031497,
                    "duration": 0.34090912500000314
                },
                {
                    "name": "F#4",
                    "midi": 66,
                    "time": 56.8181875,
                    "velocity": 0.7874015748031497,
                    "duration": 0.34090912500000314
                },
                {
                    "name": "A#4",
                    "midi": 70,
                    "time": 57.272733,
                    "velocity": 0.7874015748031497,
                    "duration": 0.34090912500000314
                },
                {
                    "name": "D5",
                    "midi": 74,
                    "time": 57.727278500000004,
                    "velocity": 0.7874015748031497,
                    "duration": 0.34090912500000314
                },
                {
                    "name": "A#4",
                    "midi": 70,
                    "time": 58.181824000000006,
                    "velocity": 0.7874015748031497,
                    "duration": 0.34090912500000314
                },
                {
                    "name": "D5",
                    "midi": 74,
                    "time": 58.63636950000001,
                    "velocity": 0.7874015748031497,
                    "duration": 0.34090912500000314
                },
                {
                    "name": "A#4",
                    "midi": 70,
                    "time": 59.09091500000001,
                    "velocity": 0.7874015748031497,
                    "duration": 0.34090912500000314
                },
                {
                    "name": "D5",
                    "midi": 74,
                    "time": 59.54546050000001,
                    "velocity": 0.7874015748031497,
                    "duration": 0.34090912500000314
                },
                {
                    "name": "A#4",
                    "midi": 70,
                    "time": 60.00000600000001,
                    "velocity": 0.7874015748031497,
                    "duration": 0.34090912500000314
                },
                {
                    "name": "D5",
                    "midi": 74,
                    "time": 60.454551500000015,
                    "velocity": 0.7874015748031497,
                    "duration": 0.34090912500000314
                },
                {
                    "name": "A#4",
                    "midi": 70,
                    "time": 60.90909700000002,
                    "velocity": 0.7874015748031497,
                    "duration": 0.34090912500000314
                },
                {
                    "name": "D5",
                    "midi": 74,
                    "time": 61.36364250000002,
                    "velocity": 0.7874015748031497,
                    "duration": 0.34090912500000314
                },
                {
                    "name": "A#4",
                    "midi": 70,
                    "time": 61.81818800000002,
                    "velocity": 0.7874015748031497,
                    "duration": 0.34090912500000314
                },
                {
                    "name": "D5",
                    "midi": 74,
                    "time": 62.27273350000002,
                    "velocity": 0.7874015748031497,
                    "duration": 0.34090912500000314
                },
                {
                    "name": "C5",
                    "midi": 72,
                    "time": 62.727279000000024,
                    "velocity": 0.7874015748031497,
                    "duration": 0.34090912500000314
                },
                {
                    "name": "B4",
                    "midi": 71,
                    "time": 63.181824500000026,
                    "velocity": 0.7874015748031497,
                    "duration": 0.34090912500000314
                },
                {
                    "name": "C5",
                    "midi": 72,
                    "time": 63.63637000000003,
                    "velocity": 0.7874015748031497,
                    "duration": 0.34090912500000314
                },
                {
                    "name": "G4",
                    "midi": 67,
                    "time": 64.09091550000004,
                    "velocity": 0.7874015748031497,
                    "duration": 0.34090912499999604
                },
                {
                    "name": "C5",
                    "midi": 72,
                    "time": 64.54546100000003,
                    "velocity": 0.7874015748031497,
                    "duration": 0.34090912499999604
                },
                {
                    "name": "G4",
                    "midi": 67,
                    "time": 65.00000650000003,
                    "velocity": 0.7874015748031497,
                    "duration": 0.34090912499999604
                },
                {
                    "name": "C5",
                    "midi": 72,
                    "time": 65.45455200000002,
                    "velocity": 0.7874015748031497,
                    "duration": 0.34090912499999604
                },
                {
                    "name": "D#5",
                    "midi": 75,
                    "time": 65.90909750000002,
                    "velocity": 0.7874015748031497,
                    "duration": 0.34090912499999604
                },
                {
                    "name": "F5",
                    "midi": 77,
                    "time": 66.36364300000001,
                    "velocity": 0.7874015748031497,
                    "duration": 0.34090912499999604
                },
                {
                    "name": "D#5",
                    "midi": 75,
                    "time": 66.8181885,
                    "velocity": 0.7874015748031497,
                    "duration": 0.34090912499999604
                },
                {
                    "name": "D5",
                    "midi": 74,
                    "time": 67.272734,
                    "velocity": 0.7874015748031497,
                    "duration": 0.34090912499999604
                },
                {
                    "name": "C5",
                    "midi": 72,
                    "time": 67.7272795,
                    "velocity": 0.7874015748031497,
                    "duration": 0.34090912499999604
                },
                {
                    "name": "B4",
                    "midi": 71,
                    "time": 68.18182499999999,
                    "velocity": 0.7874015748031497,
                    "duration": 0.34090912499999604
                },
                {
                    "name": "C5",
                    "midi": 72,
                    "time": 68.63637049999998,
                    "velocity": 0.7874015748031497,
                    "duration": 0.34090912499999604
                },
                {
                    "name": "D5",
                    "midi": 74,
                    "time": 69.09091599999998,
                    "velocity": 0.7874015748031497,
                    "duration": 0.34090912499999604
                },
                {
                    "name": "B4",
                    "midi": 71,
                    "time": 69.54546149999997,
                    "velocity": 0.7874015748031497,
                    "duration": 0.34090912499999604
                },
                {
                    "name": "G4",
                    "midi": 67,
                    "time": 70.00000699999997,
                    "velocity": 0.7874015748031497,
                    "duration": 0.34090912499999604
                },
                {
                    "name": "B4",
                    "midi": 71,
                    "time": 70.45455249999996,
                    "velocity": 0.7874015748031497,
                    "duration": 0.34090912499999604
                },
                {
                    "name": "G4",
                    "midi": 67,
                    "time": 70.90909799999996,
                    "velocity": 0.7874015748031497,
                    "duration": 0.34090912499999604
                },
                {
                    "name": "G4",
                    "midi": 67,
                    "time": 71.36364349999995,
                    "velocity": 0.7874015748031497,
                    "duration": 0.34090912499999604
                },
                {
                    "name": "A4",
                    "midi": 69,
                    "time": 71.81818899999995,
                    "velocity": 0.7874015748031497,
                    "duration": 0.34090912499999604
                },
                {
                    "name": "B4",
                    "midi": 71,
                    "time": 72.27273449999994,
                    "velocity": 0.7874015748031497,
                    "duration": 0.34090912499999604
                },
                {
                    "name": "C5",
                    "midi": 72,
                    "time": 72.72727999999994,
                    "velocity": 0.7874015748031497,
                    "duration": 0.34090912499999604
                },
                {
                    "name": "B4",
                    "midi": 71,
                    "time": 73.18182549999993,
                    "velocity": 0.7874015748031497,
                    "duration": 0.34090912499999604
                },
                {
                    "name": "C5",
                    "midi": 72,
                    "time": 73.63637099999993,
                    "velocity": 0.7874015748031497,
                    "duration": 0.34090912499999604
                },
                {
                    "name": "D5",
                    "midi": 74,
                    "time": 74.09091649999992,
                    "velocity": 0.7874015748031497,
                    "duration": 0.34090912499999604
                },
                {
                    "name": "D#5",
                    "midi": 75,
                    "time": 74.54546199999992,
                    "velocity": 0.7874015748031497,
                    "duration": 0.34090912499999604
                },
                {
                    "name": "G5",
                    "midi": 79,
                    "time": 75.00000749999991,
                    "velocity": 0.7874015748031497,
                    "duration": 0.34090912499999604
                },
                {
                    "name": "D#5",
                    "midi": 75,
                    "time": 75.4545529999999,
                    "velocity": 0.7874015748031497,
                    "duration": 0.34090912499999604
                },
                {
                    "name": "G5",
                    "midi": 79,
                    "time": 75.9090984999999,
                    "velocity": 0.7874015748031497,
                    "duration": 0.34090912499999604
                },
                {
                    "name": "D#5",
                    "midi": 75,
                    "time": 76.3636439999999,
                    "velocity": 0.7874015748031497,
                    "duration": 0.34090912499999604
                },
                {
                    "name": "F5",
                    "midi": 77,
                    "time": 76.81818949999989,
                    "velocity": 0.7874015748031497,
                    "duration": 0.1742424416666637
                },
                {
                    "name": "D#5",
                    "midi": 75,
                    "time": 77.04546224999989,
                    "velocity": 0.7874015748031497,
                    "duration": 0.1742424416666637
                },
                {
                    "name": "D5",
                    "midi": 74,
                    "time": 77.27273499999988,
                    "velocity": 0.7874015748031497,
                    "duration": 0.34090912499999604
                },
                {
                    "name": "C5",
                    "midi": 72,
                    "time": 77.72728049999988,
                    "velocity": 0.7874015748031497,
                    "duration": 0.34090912499999604
                },
                {
                    "name": "A#4",
                    "midi": 70,
                    "time": 78.18182599999987,
                    "velocity": 0.7874015748031497,
                    "duration": 0.34090912499999604
                },
                {
                    "name": "A#4",
                    "midi": 70,
                    "time": 78.63637149999987,
                    "velocity": 0.7874015748031497,
                    "duration": 0.34090912499999604
                },
                {
                    "name": "D5",
                    "midi": 74,
                    "time": 79.09091699999986,
                    "velocity": 0.7874015748031497,
                    "duration": 0.34090912499999604
                },
                {
                    "name": "A#4",
                    "midi": 70,
                    "time": 79.54546249999986,
                    "velocity": 0.7874015748031497,
                    "duration": 0.34090912499999604
                },
                {
                    "name": "D5",
                    "midi": 74,
                    "time": 80.00000799999985,
                    "velocity": 0.7874015748031497,
                    "duration": 0.34090912499999604
                },
                {
                    "name": "F5",
                    "midi": 77,
                    "time": 80.45455349999985,
                    "velocity": 0.7874015748031497,
                    "duration": 0.34090912499999604
                },
                {
                    "name": "D#5",
                    "midi": 75,
                    "time": 80.90909899999984,
                    "velocity": 0.7874015748031497,
                    "duration": 0.34090912499999604
                },
                {
                    "name": "D5",
                    "midi": 74,
                    "time": 81.36364449999984,
                    "velocity": 0.7874015748031497,
                    "duration": 0.34090912499999604
                },
                {
                    "name": "D#5",
                    "midi": 75,
                    "time": 81.81818999999983,
                    "velocity": 0.7874015748031497,
                    "duration": 0.34090912499999604
                },
                {
                    "name": "D#4",
                    "midi": 63,
                    "time": 82.27273549999983,
                    "velocity": 0.7874015748031497,
                    "duration": 0.34090912499999604
                },
                {
                    "name": "G4",
                    "midi": 67,
                    "time": 82.72728099999982,
                    "velocity": 0.7874015748031497,
                    "duration": 0.34090912499999604
                },
                {
                    "name": "G4",
                    "midi": 67,
                    "time": 83.18182649999981,
                    "velocity": 0.7874015748031497,
                    "duration": 0.34090912499999604
                },
                {
                    "name": "A#4",
                    "midi": 70,
                    "time": 83.63637199999981,
                    "velocity": 0.7874015748031497,
                    "duration": 0.34090912499999604
                },
                {
                    "name": "G#4",
                    "midi": 68,
                    "time": 84.0909174999998,
                    "velocity": 0.7874015748031497,
                    "duration": 0.34090912499999604
                },
                {
                    "name": "A#4",
                    "midi": 70,
                    "time": 84.5454629999998,
                    "velocity": 0.7874015748031497,
                    "duration": 0.34090912499999604
                },
                {
                    "name": "G4",
                    "midi": 67,
                    "time": 85.0000084999998,
                    "velocity": 0.7874015748031497,
                    "duration": 0.34090912499999604
                },
                {
                    "name": "G#4",
                    "midi": 68,
                    "time": 85.45455399999979,
                    "velocity": 0.7874015748031497,
                    "duration": 0.34090912499999604
                },
                {
                    "name": "G#4",
                    "midi": 68,
                    "time": 85.90909949999978,
                    "velocity": 0.7874015748031497,
                    "duration": 0.34090912499999604
                },
                {
                    "name": "C5",
                    "midi": 72,
                    "time": 86.36364499999978,
                    "velocity": 0.7874015748031497,
                    "duration": 0.34090912499999604
                },
                {
                    "name": "G#4",
                    "midi": 68,
                    "time": 86.81819049999977,
                    "velocity": 0.7874015748031497,
                    "duration": 0.34090912499999604
                },
                {
                    "name": "C5",
                    "midi": 72,
                    "time": 87.27273599999977,
                    "velocity": 0.7874015748031497,
                    "duration": 0.34090912499999604
                },
                {
                    "name": "F5",
                    "midi": 77,
                    "time": 87.72728149999976,
                    "velocity": 0.7874015748031497,
                    "duration": 0.34090912499999604
                },
                {
                    "name": "C5",
                    "midi": 72,
                    "time": 88.18182699999976,
                    "velocity": 0.7874015748031497,
                    "duration": 0.34090912499999604
                },
                {
                    "name": "F5",
                    "midi": 77,
                    "time": 88.63637249999975,
                    "velocity": 0.7874015748031497,
                    "duration": 0.34090912499999604
                },
                {
                    "name": "C5",
                    "midi": 72,
                    "time": 89.09091799999975,
                    "velocity": 0.7874015748031497,
                    "duration": 0.34090912499999604
                },
                {
                    "name": "F5",
                    "midi": 77,
                    "time": 89.54546349999974,
                    "velocity": 0.7874015748031497,
                    "duration": 0.34090912499999604
                },
                {
                    "name": "C5",
                    "midi": 72,
                    "time": 90.00000899999974,
                    "velocity": 0.7874015748031497,
                    "duration": 0.34090912499999604
                },
                {
                    "name": "C5",
                    "midi": 72,
                    "time": 90.45455449999973,
                    "velocity": 0.7874015748031497,
                    "duration": 0.34090912499999604
                },
                {
                    "name": "C5",
                    "midi": 72,
                    "time": 90.90909999999973,
                    "velocity": 0.7874015748031497,
                    "duration": 0.34090912499999604
                },
                {
                    "name": "A#4",
                    "midi": 70,
                    "time": 91.36364549999972,
                    "velocity": 0.7874015748031497,
                    "duration": 0.34090912499999604
                },
                {
                    "name": "G4",
                    "midi": 67,
                    "time": 91.81819099999971,
                    "velocity": 0.7874015748031497,
                    "duration": 0.34090912499999604
                },
                {
                    "name": "G4",
                    "midi": 67,
                    "time": 92.27273649999971,
                    "velocity": 0.7874015748031497,
                    "duration": 0.34090912499999604
                },
                {
                    "name": "G4",
                    "midi": 67,
                    "time": 92.7272819999997,
                    "velocity": 0.7874015748031497,
                    "duration": 0.34090912499999604
                },
                {
                    "name": "F4",
                    "midi": 65,
                    "time": 93.1818274999997,
                    "velocity": 0.7874015748031497,
                    "duration": 0.34090912499999604
                },
                {
                    "name": "G#4",
                    "midi": 68,
                    "time": 93.6363729999997,
                    "velocity": 0.7874015748031497,
                    "duration": 0.34090912499999604
                },
                {
                    "name": "F4",
                    "midi": 65,
                    "time": 94.09091849999969,
                    "velocity": 0.7874015748031497,
                    "duration": 0.34090912499999604
                },
                {
                    "name": "F4",
                    "midi": 65,
                    "time": 94.54546399999968,
                    "velocity": 0.7874015748031497,
                    "duration": 0.34090912499999604
                },
                {
                    "name": "D#4",
                    "midi": 63,
                    "time": 95.00000949999968,
                    "velocity": 0.7874015748031497,
                    "duration": 0.34090912499999604
                },
                {
                    "name": "G4",
                    "midi": 67,
                    "time": 95.45455499999967,
                    "velocity": 0.7874015748031497,
                    "duration": 0.34090912499999604
                },
                {
                    "name": "D#4",
                    "midi": 63,
                    "time": 95.90910049999967,
                    "velocity": 0.7874015748031497,
                    "duration": 0.34090912499999604
                },
                {
                    "name": "D#4",
                    "midi": 63,
                    "time": 96.36364599999966,
                    "velocity": 0.7874015748031497,
                    "duration": 0.34090912499999604
                },
                {
                    "name": "D4",
                    "midi": 62,
                    "time": 96.81819149999966,
                    "velocity": 0.7874015748031497,
                    "duration": 0.34090912499999604
                },
                {
                    "name": "F4",
                    "midi": 65,
                    "time": 97.27273699999965,
                    "velocity": 0.7874015748031497,
                    "duration": 0.34090912499999604
                },
                {
                    "name": "D4",
                    "midi": 62,
                    "time": 97.72728249999965,
                    "velocity": 0.7874015748031497,
                    "duration": 0.34090912499999604
                },
                {
                    "name": "D4",
                    "midi": 62,
                    "time": 98.18182799999964,
                    "velocity": 0.7874015748031497,
                    "duration": 0.34090912499999604
                },
                {
                    "name": "C4",
                    "midi": 60,
                    "time": 98.63637349999964,
                    "velocity": 0.7874015748031497,
                    "duration": 0.34090912499999604
                },
                {
                    "name": "G4",
                    "midi": 67,
                    "time": 99.09091899999963,
                    "velocity": 0.7874015748031497,
                    "duration": 0.34090912499999604
                },
                {
                    "name": "D#4",
                    "midi": 63,
                    "time": 99.54546449999962,
                    "velocity": 0.7874015748031497,
                    "duration": 0.34090912499999604
                },
                {
                    "name": "F4",
                    "midi": 65,
                    "time": 100.00000999999962,
                    "velocity": 0.7874015748031497,
                    "duration": 0.34090912499999604
                },
                {
                    "name": "G#4",
                    "midi": 68,
                    "time": 100.45455549999961,
                    "velocity": 0.7874015748031497,
                    "duration": 0.34090912499999604
                },
                {
                    "name": "F4",
                    "midi": 65,
                    "time": 100.90910099999961,
                    "velocity": 0.7874015748031497,
                    "duration": 0.34090912499999604
                },
                {
                    "name": "F4",
                    "midi": 65,
                    "time": 101.3636464999996,
                    "velocity": 0.7874015748031497,
                    "duration": 0.34090912499999604
                },
                {
                    "name": "G4",
                    "midi": 67,
                    "time": 101.8181919999996,
                    "velocity": 0.7874015748031497,
                    "duration": 0.34090912499999604
                },
                {
                    "name": "C5",
                    "midi": 72,
                    "time": 102.2727374999996,
                    "velocity": 0.7874015748031497,
                    "duration": 0.34090912499999604
                },
                {
                    "name": "C5",
                    "midi": 72,
                    "time": 102.72728299999959,
                    "velocity": 0.7874015748031497,
                    "duration": 0.34090912499999604
                },
                {
                    "name": "C5",
                    "midi": 72,
                    "time": 103.18182849999958,
                    "velocity": 0.7874015748031497,
                    "duration": 0.34090912499999604
                },
                {
                    "name": "C5",
                    "midi": 72,
                    "time": 103.63637399999958,
                    "velocity": 0.7874015748031497,
                    "duration": 0.34090912499999604
                },
                {
                    "name": "A#4",
                    "midi": 70,
                    "time": 104.09091949999957,
                    "velocity": 0.7874015748031497,
                    "duration": 0.34090912499999604
                },
                {
                    "name": "D5",
                    "midi": 74,
                    "time": 104.54546499999957,
                    "velocity": 0.7874015748031497,
                    "duration": 0.34090912499999604
                },
                {
                    "name": "A#4",
                    "midi": 70,
                    "time": 105.00001049999956,
                    "velocity": 0.7874015748031497,
                    "duration": 0.34090912499999604
                },
                {
                    "name": "A#4",
                    "midi": 70,
                    "time": 105.45455599999956,
                    "velocity": 0.7874015748031497,
                    "duration": 0.34090912499999604
                },
                {
                    "name": "G4",
                    "midi": 67,
                    "time": 105.90910149999955,
                    "velocity": 0.7874015748031497,
                    "duration": 0.34090912499999604
                },
                {
                    "name": "D#4",
                    "midi": 63,
                    "time": 106.36364699999955,
                    "velocity": 0.7874015748031497,
                    "duration": 0.34090912499999604
                },
                {
                    "name": "D#4",
                    "midi": 63,
                    "time": 106.81819249999954,
                    "velocity": 0.7874015748031497,
                    "duration": 0.34090912499999604
                },
                {
                    "name": "D#4",
                    "midi": 63,
                    "time": 107.27273799999953,
                    "velocity": 0.7874015748031497,
                    "duration": 0.34090912499999604
                },
                {
                    "name": "D4",
                    "midi": 62,
                    "time": 107.72728349999953,
                    "velocity": 0.7874015748031497,
                    "duration": 0.34090912499999604
                },
                {
                    "name": "F4",
                    "midi": 65,
                    "time": 108.18182899999952,
                    "velocity": 0.7874015748031497,
                    "duration": 0.34090912499999604
                },
                {
                    "name": "D4",
                    "midi": 62,
                    "time": 108.63637449999952,
                    "velocity": 0.7874015748031497,
                    "duration": 0.34090912499999604
                },
                {
                    "name": "D4",
                    "midi": 62,
                    "time": 109.09091999999951,
                    "velocity": 0.7874015748031497,
                    "duration": 0.34090912499999604
                },
                {
                    "name": "C4",
                    "midi": 60,
                    "time": 109.54546549999951,
                    "velocity": 0.7874015748031497,
                    "duration": 0.34090912499999604
                },
                {
                    "name": "D#4",
                    "midi": 63,
                    "time": 110.0000109999995,
                    "velocity": 0.7874015748031497,
                    "duration": 0.34090912499999604
                },
                {
                    "name": "C4",
                    "midi": 60,
                    "time": 110.4545564999995,
                    "velocity": 0.7874015748031497,
                    "duration": 0.34090912499999604
                },
                {
                    "name": "C4",
                    "midi": 60,
                    "time": 110.90910199999949,
                    "velocity": 0.7874015748031497,
                    "duration": 0.34090912499999604
                },
                {
                    "name": "A#3",
                    "midi": 58,
                    "time": 111.36364749999949,
                    "velocity": 0.7874015748031497,
                    "duration": 0.34090912499999604
                },
                {
                    "name": "D4",
                    "midi": 62,
                    "time": 111.81819299999948,
                    "velocity": 0.7874015748031497,
                    "duration": 0.34090912499999604
                },
                {
                    "name": "D4",
                    "midi": 62,
                    "time": 112.27273849999948,
                    "velocity": 0.7874015748031497,
                    "duration": 0.34090912499999604
                },
                {
                    "name": "D4",
                    "midi": 62,
                    "time": 112.72728399999947,
                    "velocity": 0.7874015748031497,
                    "duration": 0.34090912499999604
                },
                {
                    "name": "C4",
                    "midi": 60,
                    "time": 113.18182949999947,
                    "velocity": 0.7874015748031497,
                    "duration": 0.34090912499999604
                },
                {
                    "name": "C4",
                    "midi": 60,
                    "time": 113.63637499999946,
                    "velocity": 0.7874015748031497,
                    "duration": 0.34090912499999604
                },
                {
                    "name": "C4",
                    "midi": 60,
                    "time": 114.09092049999946,
                    "velocity": 0.7874015748031497,
                    "duration": 0.34090912499999604
                },
                {
                    "name": "C4",
                    "midi": 60,
                    "time": 114.54546599999945,
                    "velocity": 0.7874015748031497,
                    "duration": 0.34090912499999604
                },
                {
                    "name": "A4",
                    "midi": 69,
                    "time": 115.00001149999945,
                    "velocity": 0.7874015748031497,
                    "duration": 0.34090912499999604
                },
                {
                    "name": "F4",
                    "midi": 65,
                    "time": 115.45455699999944,
                    "velocity": 0.7874015748031497,
                    "duration": 0.34090912499999604
                },
                {
                    "name": "F4",
                    "midi": 65,
                    "time": 115.90910249999943,
                    "velocity": 0.7874015748031497,
                    "duration": 0.34090912499999604
                },
                {
                    "name": "F4",
                    "midi": 65,
                    "time": 116.36364799999943,
                    "velocity": 0.7874015748031497,
                    "duration": 0.34090912499999604
                },
                {
                    "name": "D#4",
                    "midi": 63,
                    "time": 116.81819349999942,
                    "velocity": 0.7874015748031497,
                    "duration": 0.34090912499999604
                },
                {
                    "name": "G4",
                    "midi": 67,
                    "time": 117.27273899999942,
                    "velocity": 0.7874015748031497,
                    "duration": 0.34090912499999604
                },
                {
                    "name": "G4",
                    "midi": 67,
                    "time": 117.72728449999941,
                    "velocity": 0.7874015748031497,
                    "duration": 0.34090912499999604
                },
                {
                    "name": "G4",
                    "midi": 67,
                    "time": 118.18182999999941,
                    "velocity": 0.7874015748031497,
                    "duration": 0.34090912499999604
                },
                {
                    "name": "F4",
                    "midi": 65,
                    "time": 118.6363754999994,
                    "velocity": 0.7874015748031497,
                    "duration": 0.34090912499999604
                },
                {
                    "name": "A4",
                    "midi": 69,
                    "time": 119.0909209999994,
                    "velocity": 0.7874015748031497,
                    "duration": 0.34090912499999604
                },
                {
                    "name": "A4",
                    "midi": 69,
                    "time": 119.54546649999939,
                    "velocity": 0.7874015748031497,
                    "duration": 0.34090912499999604
                },
                {
                    "name": "A4",
                    "midi": 69,
                    "time": 120.00001199999939,
                    "velocity": 0.7874015748031497,
                    "duration": 0.34090912499999604
                },
                {
                    "name": "G4",
                    "midi": 67,
                    "time": 120.45455749999938,
                    "velocity": 0.7874015748031497,
                    "duration": 0.34090912499999604
                },
                {
                    "name": "A#4",
                    "midi": 70,
                    "time": 120.90910299999938,
                    "velocity": 0.7874015748031497,
                    "duration": 0.34090912499999604
                },
                {
                    "name": "A#4",
                    "midi": 70,
                    "time": 121.36364849999937,
                    "velocity": 0.7874015748031497,
                    "duration": 0.34090912499999604
                },
                {
                    "name": "A#4",
                    "midi": 70,
                    "time": 121.81819399999937,
                    "velocity": 0.7874015748031497,
                    "duration": 0.34090912499999604
                },
                {
                    "name": "G#4",
                    "midi": 68,
                    "time": 122.27273949999936,
                    "velocity": 0.7874015748031497,
                    "duration": 0.34090912499999604
                },
                {
                    "name": "C5",
                    "midi": 72,
                    "time": 122.72728499999936,
                    "velocity": 0.7874015748031497,
                    "duration": 0.34090912499999604
                },
                {
                    "name": "C5",
                    "midi": 72,
                    "time": 123.18183049999935,
                    "velocity": 0.7874015748031497,
                    "duration": 0.34090912499999604
                },
                {
                    "name": "C5",
                    "midi": 72,
                    "time": 123.63637599999934,
                    "velocity": 0.7874015748031497,
                    "duration": 0.34090912499999604
                },
                {
                    "name": "A#4",
                    "midi": 70,
                    "time": 124.09092149999934,
                    "velocity": 0.7874015748031497,
                    "duration": 0.34090912499999604
                },
                {
                    "name": "D5",
                    "midi": 74,
                    "time": 124.54546699999933,
                    "velocity": 0.7874015748031497,
                    "duration": 0.34090912499999604
                },
                {
                    "name": "D5",
                    "midi": 74,
                    "time": 125.00001249999933,
                    "velocity": 0.7874015748031497,
                    "duration": 0.34090912499999604
                },
                {
                    "name": "D5",
                    "midi": 74,
                    "time": 125.45455799999932,
                    "velocity": 0.7874015748031497,
                    "duration": 0.34090912499999604
                },
                {
                    "name": "C5",
                    "midi": 72,
                    "time": 125.90910349999932,
                    "velocity": 0.7874015748031497,
                    "duration": 0.34090912499999604
                },
                {
                    "name": "C5",
                    "midi": 72,
                    "time": 126.36364899999931,
                    "velocity": 0.7874015748031497,
                    "duration": 0.34090912499999604
                },
                {
                    "name": "C5",
                    "midi": 72,
                    "time": 126.81819449999931,
                    "velocity": 0.7874015748031497,
                    "duration": 0.34090912499999604
                },
                {
                    "name": "C5",
                    "midi": 72,
                    "time": 127.2727399999993,
                    "velocity": 0.7874015748031497,
                    "duration": 0.34090912499999604
                },
                {
                    "name": "C5",
                    "midi": 72,
                    "time": 127.7272854999993,
                    "velocity": 0.7874015748031497,
                    "duration": 0.34090912500001025
                },
                {
                    "name": "D5",
                    "midi": 74,
                    "time": 128.1818309999993,
                    "velocity": 0.7874015748031497,
                    "duration": 0.34090912499999604
                },
                {
                    "name": "C5",
                    "midi": 72,
                    "time": 128.6363764999993,
                    "velocity": 0.7874015748031497,
                    "duration": 0.34090912499999604
                },
                {
                    "name": "B4",
                    "midi": 71,
                    "time": 129.0909219999993,
                    "velocity": 0.7874015748031497,
                    "duration": 0.34090912499999604
                },
                {
                    "name": "B4",
                    "midi": 71,
                    "time": 129.5454674999993,
                    "velocity": 0.7874015748031497,
                    "duration": 0.34090912499999604
                },
                {
                    "name": "D#5",
                    "midi": 75,
                    "time": 130.00001299999929,
                    "velocity": 0.7874015748031497,
                    "duration": 0.34090912499999604
                },
                {
                    "name": "D5",
                    "midi": 74,
                    "time": 130.45455849999928,
                    "velocity": 0.7874015748031497,
                    "duration": 0.34090912499999604
                },
                {
                    "name": "C5",
                    "midi": 72,
                    "time": 130.90910399999927,
                    "velocity": 0.7874015748031497,
                    "duration": 0.34090912499999604
                },
                {
                    "name": "B4",
                    "midi": 71,
                    "time": 131.36364949999927,
                    "velocity": 0.7874015748031497,
                    "duration": 0.34090912499999604
                },
                {
                    "name": "C5",
                    "midi": 72,
                    "time": 131.81819499999926,
                    "velocity": 0.7874015748031497,
                    "duration": 1.3636365000000126
                },
                {
                    "name": "B4",
                    "midi": 71,
                    "time": 133.63637699999927,
                    "velocity": 0.7874015748031497,
                    "duration": 0.6818182499999921
                },
                {
                    "name": "C5",
                    "midi": 72,
                    "time": 134.54546799999926,
                    "velocity": 0.7874015748031497,
                    "duration": 0.6818182499999921
                },
                {
                    "name": "G4",
                    "midi": 67,
                    "time": 138.63637749999924,
                    "velocity": 0.7874015748031497,
                    "duration": 0.34090912499999604
                },
                {
                    "name": "C5",
                    "midi": 72,
                    "time": 139.09092299999924,
                    "velocity": 0.7874015748031497,
                    "duration": 0.34090912499999604
                },
                {
                    "name": "G4",
                    "midi": 67,
                    "time": 139.54546849999923,
                    "velocity": 0.7874015748031497,
                    "duration": 0.34090912499999604
                },
                {
                    "name": "C5",
                    "midi": 72,
                    "time": 140.00001399999923,
                    "velocity": 0.7874015748031497,
                    "duration": 0.34090912499999604
                },
                {
                    "name": "D#5",
                    "midi": 75,
                    "time": 140.45455949999922,
                    "velocity": 0.7874015748031497,
                    "duration": 0.34090912499999604
                },
                {
                    "name": "C5",
                    "midi": 72,
                    "time": 140.90910499999922,
                    "velocity": 0.7874015748031497,
                    "duration": 0.34090912499999604
                },
                {
                    "name": "D#5",
                    "midi": 75,
                    "time": 141.3636504999992,
                    "velocity": 0.7874015748031497,
                    "duration": 0.34090912499999604
                },
                {
                    "name": "D5",
                    "midi": 74,
                    "time": 141.8181959999992,
                    "velocity": 0.7874015748031497,
                    "duration": 0.34090912499999604
                },
                {
                    "name": "C5",
                    "midi": 72,
                    "time": 142.2727414999992,
                    "velocity": 0.7874015748031497,
                    "duration": 0.34090912499999604
                },
                {
                    "name": "D5",
                    "midi": 74,
                    "time": 142.7272869999992,
                    "velocity": 0.7874015748031497,
                    "duration": 0.34090912499999604
                },
                {
                    "name": "B4",
                    "midi": 71,
                    "time": 143.1818324999992,
                    "velocity": 0.7874015748031497,
                    "duration": 0.34090912499999604
                },
                {
                    "name": "C5",
                    "midi": 72,
                    "time": 143.63637799999918,
                    "velocity": 0.7874015748031497,
                    "duration": 0.34090912499999604
                },
                {
                    "name": "B4",
                    "midi": 71,
                    "time": 144.09092349999918,
                    "velocity": 0.7874015748031497,
                    "duration": 0.34090912499999604
                },
                {
                    "name": "C5",
                    "midi": 72,
                    "time": 144.54546899999917,
                    "velocity": 0.7874015748031497,
                    "duration": 0.34090912499999604
                },
                {
                    "name": "A4",
                    "midi": 69,
                    "time": 145.00001449999917,
                    "velocity": 0.7874015748031497,
                    "duration": 0.34090912499999604
                },
                {
                    "name": "A#4",
                    "midi": 70,
                    "time": 145.45455999999916,
                    "velocity": 0.7874015748031497,
                    "duration": 0.34090912499999604
                },
                {
                    "name": "A#4",
                    "midi": 70,
                    "time": 145.90910549999916,
                    "velocity": 0.7874015748031497,
                    "duration": 0.34090912499999604
                },
                {
                    "name": "G4",
                    "midi": 67,
                    "time": 146.36365099999915,
                    "velocity": 0.7874015748031497,
                    "duration": 0.34090912499999604
                },
                {
                    "name": "A#4",
                    "midi": 70,
                    "time": 146.81819649999915,
                    "velocity": 0.7874015748031497,
                    "duration": 0.34090912499999604
                },
                {
                    "name": "G4",
                    "midi": 67,
                    "time": 147.27274199999914,
                    "velocity": 0.7874015748031497,
                    "duration": 0.34090912499999604
                },
                {
                    "name": "F#4",
                    "midi": 66,
                    "time": 147.72728749999914,
                    "velocity": 0.7874015748031497,
                    "duration": 0.34090912499999604
                },
                {
                    "name": "A#4",
                    "midi": 70,
                    "time": 148.18183299999913,
                    "velocity": 0.7874015748031497,
                    "duration": 0.34090912499999604
                },
                {
                    "name": "D5",
                    "midi": 74,
                    "time": 148.63637849999913,
                    "velocity": 0.7874015748031497,
                    "duration": 0.34090912499999604
                },
                {
                    "name": "A#4",
                    "midi": 70,
                    "time": 149.09092399999912,
                    "velocity": 0.7874015748031497,
                    "duration": 0.34090912499999604
                },
                {
                    "name": "D5",
                    "midi": 74,
                    "time": 149.54546949999911,
                    "velocity": 0.7874015748031497,
                    "duration": 0.34090912499999604
                },
                {
                    "name": "A#4",
                    "midi": 70,
                    "time": 150.0000149999991,
                    "velocity": 0.7874015748031497,
                    "duration": 0.34090912499999604
                },
                {
                    "name": "D5",
                    "midi": 74,
                    "time": 150.4545604999991,
                    "velocity": 0.7874015748031497,
                    "duration": 0.34090912499999604
                },
                {
                    "name": "A#4",
                    "midi": 70,
                    "time": 150.9091059999991,
                    "velocity": 0.7874015748031497,
                    "duration": 0.34090912499999604
                },
                {
                    "name": "D5",
                    "midi": 74,
                    "time": 151.3636514999991,
                    "velocity": 0.7874015748031497,
                    "duration": 0.34090912499999604
                },
                {
                    "name": "A#4",
                    "midi": 70,
                    "time": 151.8181969999991,
                    "velocity": 0.7874015748031497,
                    "duration": 0.34090912499999604
                },
                {
                    "name": "D5",
                    "midi": 74,
                    "time": 152.27274249999908,
                    "velocity": 0.7874015748031497,
                    "duration": 0.34090912499999604
                },
                {
                    "name": "A#4",
                    "midi": 70,
                    "time": 152.72728799999908,
                    "velocity": 0.7874015748031497,
                    "duration": 0.34090912499999604
                },
                {
                    "name": "D5",
                    "midi": 74,
                    "time": 153.18183349999907,
                    "velocity": 0.7874015748031497,
                    "duration": 0.34090912499999604
                },
                {
                    "name": "C5",
                    "midi": 72,
                    "time": 153.63637899999907,
                    "velocity": 0.7874015748031497,
                    "duration": 0.34090912499999604
                },
                {
                    "name": "B4",
                    "midi": 71,
                    "time": 154.09092449999906,
                    "velocity": 0.7874015748031497,
                    "duration": 0.34090912499999604
                },
                {
                    "name": "C5",
                    "midi": 72,
                    "time": 154.54546999999906,
                    "velocity": 0.7874015748031497,
                    "duration": 0.34090912499999604
                },
                {
                    "name": "G4",
                    "midi": 67,
                    "time": 155.00001549999905,
                    "velocity": 0.7874015748031497,
                    "duration": 0.34090912499999604
                },
                {
                    "name": "C5",
                    "midi": 72,
                    "time": 155.45456099999905,
                    "velocity": 0.7874015748031497,
                    "duration": 0.34090912499999604
                },
                {
                    "name": "G4",
                    "midi": 67,
                    "time": 155.90910649999904,
                    "velocity": 0.7874015748031497,
                    "duration": 0.34090912499999604
                },
                {
                    "name": "C5",
                    "midi": 72,
                    "time": 156.36365199999904,
                    "velocity": 0.7874015748031497,
                    "duration": 0.34090912499999604
                },
                {
                    "name": "D#5",
                    "midi": 75,
                    "time": 156.81819749999903,
                    "velocity": 0.7874015748031497,
                    "duration": 0.34090912499999604
                },
                {
                    "name": "F5",
                    "midi": 77,
                    "time": 157.27274299999902,
                    "velocity": 0.7874015748031497,
                    "duration": 0.34090912499999604
                },
                {
                    "name": "D#5",
                    "midi": 75,
                    "time": 157.72728849999902,
                    "velocity": 0.7874015748031497,
                    "duration": 0.34090912499999604
                },
                {
                    "name": "D5",
                    "midi": 74,
                    "time": 158.18183399999901,
                    "velocity": 0.7874015748031497,
                    "duration": 0.34090912499999604
                },
                {
                    "name": "C5",
                    "midi": 72,
                    "time": 158.636379499999,
                    "velocity": 0.7874015748031497,
                    "duration": 0.34090912499999604
                },
                {
                    "name": "B4",
                    "midi": 71,
                    "time": 159.090924999999,
                    "velocity": 0.7874015748031497,
                    "duration": 0.34090912499999604
                },
                {
                    "name": "C5",
                    "midi": 72,
                    "time": 159.545470499999,
                    "velocity": 0.7874015748031497,
                    "duration": 0.34090912499999604
                },
                {
                    "name": "D5",
                    "midi": 74,
                    "time": 160.000015999999,
                    "velocity": 0.7874015748031497,
                    "duration": 0.34090912499999604
                },
                {
                    "name": "B4",
                    "midi": 71,
                    "time": 160.454561499999,
                    "velocity": 0.7874015748031497,
                    "duration": 0.34090912499999604
                },
                {
                    "name": "G4",
                    "midi": 67,
                    "time": 160.90910699999898,
                    "velocity": 0.7874015748031497,
                    "duration": 0.34090912499999604
                },
                {
                    "name": "B4",
                    "midi": 71,
                    "time": 161.36365249999898,
                    "velocity": 0.7874015748031497,
                    "duration": 0.34090912499999604
                },
                {
                    "name": "G4",
                    "midi": 67,
                    "time": 161.81819799999897,
                    "velocity": 0.7874015748031497,
                    "duration": 0.34090912499999604
                },
                {
                    "name": "G4",
                    "midi": 67,
                    "time": 162.27274349999897,
                    "velocity": 0.7874015748031497,
                    "duration": 0.34090912499999604
                },
                {
                    "name": "A4",
                    "midi": 69,
                    "time": 162.72728899999896,
                    "velocity": 0.7874015748031497,
                    "duration": 0.34090912499999604
                },
                {
                    "name": "B4",
                    "midi": 71,
                    "time": 163.18183449999896,
                    "velocity": 0.7874015748031497,
                    "duration": 0.34090912499999604
                },
                {
                    "name": "C5",
                    "midi": 72,
                    "time": 163.63637999999895,
                    "velocity": 0.7874015748031497,
                    "duration": 0.34090912499999604
                },
                {
                    "name": "B4",
                    "midi": 71,
                    "time": 164.09092549999895,
                    "velocity": 0.7874015748031497,
                    "duration": 0.34090912499999604
                },
                {
                    "name": "C5",
                    "midi": 72,
                    "time": 164.54547099999894,
                    "velocity": 0.7874015748031497,
                    "duration": 0.34090912499999604
                },
                {
                    "name": "D5",
                    "midi": 74,
                    "time": 165.00001649999894,
                    "velocity": 0.7874015748031497,
                    "duration": 0.34090912499999604
                },
                {
                    "name": "D#5",
                    "midi": 75,
                    "time": 165.45456199999893,
                    "velocity": 0.7874015748031497,
                    "duration": 0.34090912499999604
                },
                {
                    "name": "G5",
                    "midi": 79,
                    "time": 165.90910749999892,
                    "velocity": 0.7874015748031497,
                    "duration": 0.34090912499999604
                },
                {
                    "name": "D#5",
                    "midi": 75,
                    "time": 166.36365299999892,
                    "velocity": 0.7874015748031497,
                    "duration": 0.34090912499999604
                },
                {
                    "name": "G5",
                    "midi": 79,
                    "time": 166.8181984999989,
                    "velocity": 0.7874015748031497,
                    "duration": 0.34090912499999604
                },
                {
                    "name": "D#5",
                    "midi": 75,
                    "time": 167.2727439999989,
                    "velocity": 0.7874015748031497,
                    "duration": 0.34090912499999604
                },
                {
                    "name": "F5",
                    "midi": 77,
                    "time": 167.7272894999989,
                    "velocity": 0.7874015748031497,
                    "duration": 0.1742424416666779
                },
                {
                    "name": "D#5",
                    "midi": 75,
                    "time": 167.9545622499989,
                    "velocity": 0.7874015748031497,
                    "duration": 0.1742424416666779
                },
                {
                    "name": "D5",
                    "midi": 74,
                    "time": 168.1818349999989,
                    "velocity": 0.7874015748031497,
                    "duration": 0.34090912499999604
                },
                {
                    "name": "C5",
                    "midi": 72,
                    "time": 168.6363804999989,
                    "velocity": 0.7874015748031497,
                    "duration": 0.34090912499999604
                },
                {
                    "name": "A#4",
                    "midi": 70,
                    "time": 169.0909259999989,
                    "velocity": 0.7874015748031497,
                    "duration": 0.34090912499999604
                },
                {
                    "name": "A#4",
                    "midi": 70,
                    "time": 169.54547149999888,
                    "velocity": 0.7874015748031497,
                    "duration": 0.34090912499999604
                },
                {
                    "name": "D5",
                    "midi": 74,
                    "time": 170.00001699999888,
                    "velocity": 0.7874015748031497,
                    "duration": 0.34090912499999604
                },
                {
                    "name": "A#4",
                    "midi": 70,
                    "time": 170.45456249999887,
                    "velocity": 0.7874015748031497,
                    "duration": 0.34090912499999604
                },
                {
                    "name": "D5",
                    "midi": 74,
                    "time": 170.90910799999887,
                    "velocity": 0.7874015748031497,
                    "duration": 0.34090912499999604
                },
                {
                    "name": "F5",
                    "midi": 77,
                    "time": 171.36365349999886,
                    "velocity": 0.7874015748031497,
                    "duration": 0.34090912499999604
                },
                {
                    "name": "D#5",
                    "midi": 75,
                    "time": 171.81819899999886,
                    "velocity": 0.7874015748031497,
                    "duration": 0.34090912499999604
                },
                {
                    "name": "D5",
                    "midi": 74,
                    "time": 172.27274449999885,
                    "velocity": 0.7874015748031497,
                    "duration": 0.34090912499999604
                },
                {
                    "name": "D#5",
                    "midi": 75,
                    "time": 172.72728999999885,
                    "velocity": 0.7874015748031497,
                    "duration": 0.34090912499999604
                },
                {
                    "name": "D#4",
                    "midi": 63,
                    "time": 173.18183549999884,
                    "velocity": 0.7874015748031497,
                    "duration": 0.34090912499999604
                },
                {
                    "name": "G4",
                    "midi": 67,
                    "time": 173.63638099999883,
                    "velocity": 0.7874015748031497,
                    "duration": 0.34090912499999604
                },
                {
                    "name": "G4",
                    "midi": 67,
                    "time": 174.09092649999883,
                    "velocity": 0.7874015748031497,
                    "duration": 0.34090912499999604
                },
                {
                    "name": "A#4",
                    "midi": 70,
                    "time": 174.54547199999882,
                    "velocity": 0.7874015748031497,
                    "duration": 0.34090912499999604
                },
                {
                    "name": "G#4",
                    "midi": 68,
                    "time": 175.00001749999882,
                    "velocity": 0.7874015748031497,
                    "duration": 0.34090912499999604
                },
                {
                    "name": "A#4",
                    "midi": 70,
                    "time": 175.4545629999988,
                    "velocity": 0.7874015748031497,
                    "duration": 0.34090912499999604
                },
                {
                    "name": "G4",
                    "midi": 67,
                    "time": 175.9091084999988,
                    "velocity": 0.7874015748031497,
                    "duration": 0.34090912499999604
                },
                {
                    "name": "G#4",
                    "midi": 68,
                    "time": 176.3636539999988,
                    "velocity": 0.7874015748031497,
                    "duration": 0.34090912499999604
                },
                {
                    "name": "G#4",
                    "midi": 68,
                    "time": 176.8181994999988,
                    "velocity": 0.7874015748031497,
                    "duration": 0.34090912499999604
                },
                {
                    "name": "C5",
                    "midi": 72,
                    "time": 177.2727449999988,
                    "velocity": 0.7874015748031497,
                    "duration": 0.34090912499999604
                },
                {
                    "name": "G#4",
                    "midi": 68,
                    "time": 177.7272904999988,
                    "velocity": 0.7874015748031497,
                    "duration": 0.34090912499999604
                },
                {
                    "name": "C5",
                    "midi": 72,
                    "time": 178.18183599999878,
                    "velocity": 0.7874015748031497,
                    "duration": 0.34090912499999604
                },
                {
                    "name": "F5",
                    "midi": 77,
                    "time": 178.63638149999878,
                    "velocity": 0.7874015748031497,
                    "duration": 0.34090912499999604
                },
                {
                    "name": "C5",
                    "midi": 72,
                    "time": 179.09092699999877,
                    "velocity": 0.7874015748031497,
                    "duration": 0.34090912499999604
                },
                {
                    "name": "F5",
                    "midi": 77,
                    "time": 179.54547249999877,
                    "velocity": 0.7874015748031497,
                    "duration": 0.34090912499999604
                },
                {
                    "name": "C5",
                    "midi": 72,
                    "time": 180.00001799999876,
                    "velocity": 0.7874015748031497,
                    "duration": 0.34090912499999604
                },
                {
                    "name": "F5",
                    "midi": 77,
                    "time": 180.45456349999876,
                    "velocity": 0.7874015748031497,
                    "duration": 0.34090912499999604
                },
                {
                    "name": "C5",
                    "midi": 72,
                    "time": 180.90910899999875,
                    "velocity": 0.7874015748031497,
                    "duration": 0.34090912499999604
                },
                {
                    "name": "C5",
                    "midi": 72,
                    "time": 181.36365449999874,
                    "velocity": 0.7874015748031497,
                    "duration": 0.34090912499999604
                },
                {
                    "name": "C5",
                    "midi": 72,
                    "time": 181.81819999999874,
                    "velocity": 0.7874015748031497,
                    "duration": 0.34090912499999604
                },
                {
                    "name": "A#4",
                    "midi": 70,
                    "time": 182.27274549999873,
                    "velocity": 0.7874015748031497,
                    "duration": 0.34090912499999604
                },
                {
                    "name": "G4",
                    "midi": 67,
                    "time": 182.72729099999873,
                    "velocity": 0.7874015748031497,
                    "duration": 0.34090912499999604
                },
                {
                    "name": "G4",
                    "midi": 67,
                    "time": 183.18183649999872,
                    "velocity": 0.7874015748031497,
                    "duration": 0.34090912499999604
                },
                {
                    "name": "G4",
                    "midi": 67,
                    "time": 183.63638199999872,
                    "velocity": 0.7874015748031497,
                    "duration": 0.34090912499999604
                },
                {
                    "name": "F4",
                    "midi": 65,
                    "time": 184.0909274999987,
                    "velocity": 0.7874015748031497,
                    "duration": 0.34090912499999604
                },
                {
                    "name": "G#4",
                    "midi": 68,
                    "time": 184.5454729999987,
                    "velocity": 0.7874015748031497,
                    "duration": 0.34090912499999604
                },
                {
                    "name": "F4",
                    "midi": 65,
                    "time": 185.0000184999987,
                    "velocity": 0.7874015748031497,
                    "duration": 0.34090912499999604
                },
                {
                    "name": "F4",
                    "midi": 65,
                    "time": 185.4545639999987,
                    "velocity": 0.7874015748031497,
                    "duration": 0.34090912499999604
                },
                {
                    "name": "D#4",
                    "midi": 63,
                    "time": 185.9091094999987,
                    "velocity": 0.7874015748031497,
                    "duration": 0.34090912499999604
                },
                {
                    "name": "G4",
                    "midi": 67,
                    "time": 186.3636549999987,
                    "velocity": 0.7874015748031497,
                    "duration": 0.34090912499999604
                },
                {
                    "name": "D#4",
                    "midi": 63,
                    "time": 186.81820049999868,
                    "velocity": 0.7874015748031497,
                    "duration": 0.34090912499999604
                },
                {
                    "name": "D#4",
                    "midi": 63,
                    "time": 187.27274599999868,
                    "velocity": 0.7874015748031497,
                    "duration": 0.34090912499999604
                },
                {
                    "name": "D4",
                    "midi": 62,
                    "time": 187.72729149999867,
                    "velocity": 0.7874015748031497,
                    "duration": 0.34090912499999604
                },
                {
                    "name": "F4",
                    "midi": 65,
                    "time": 188.18183699999867,
                    "velocity": 0.7874015748031497,
                    "duration": 0.34090912499999604
                },
                {
                    "name": "D4",
                    "midi": 62,
                    "time": 188.63638249999866,
                    "velocity": 0.7874015748031497,
                    "duration": 0.34090912499999604
                },
                {
                    "name": "D4",
                    "midi": 62,
                    "time": 189.09092799999866,
                    "velocity": 0.7874015748031497,
                    "duration": 0.34090912499999604
                },
                {
                    "name": "C4",
                    "midi": 60,
                    "time": 189.54547349999865,
                    "velocity": 0.7874015748031497,
                    "duration": 0.34090912499999604
                },
                {
                    "name": "G4",
                    "midi": 67,
                    "time": 190.00001899999864,
                    "velocity": 0.7874015748031497,
                    "duration": 0.34090912499999604
                },
                {
                    "name": "D#4",
                    "midi": 63,
                    "time": 190.45456449999864,
                    "velocity": 0.7874015748031497,
                    "duration": 0.34090912499999604
                },
                {
                    "name": "F4",
                    "midi": 65,
                    "time": 190.90910999999863,
                    "velocity": 0.7874015748031497,
                    "duration": 0.34090912499999604
                },
                {
                    "name": "G#4",
                    "midi": 68,
                    "time": 191.36365549999863,
                    "velocity": 0.7874015748031497,
                    "duration": 0.34090912499999604
                },
                {
                    "name": "F4",
                    "midi": 65,
                    "time": 191.81820099999862,
                    "velocity": 0.7874015748031497,
                    "duration": 0.34090912499999604
                },
                {
                    "name": "F4",
                    "midi": 65,
                    "time": 192.27274649999862,
                    "velocity": 0.7874015748031497,
                    "duration": 0.34090912499999604
                },
                {
                    "name": "G4",
                    "midi": 67,
                    "time": 192.7272919999986,
                    "velocity": 0.7874015748031497,
                    "duration": 0.34090912499999604
                },
                {
                    "name": "C5",
                    "midi": 72,
                    "time": 193.1818374999986,
                    "velocity": 0.7874015748031497,
                    "duration": 0.34090912499999604
                },
                {
                    "name": "C5",
                    "midi": 72,
                    "time": 193.6363829999986,
                    "velocity": 0.7874015748031497,
                    "duration": 0.34090912499999604
                },
                {
                    "name": "C5",
                    "midi": 72,
                    "time": 194.0909284999986,
                    "velocity": 0.7874015748031497,
                    "duration": 0.34090912499999604
                },
                {
                    "name": "C5",
                    "midi": 72,
                    "time": 194.5454739999986,
                    "velocity": 0.7874015748031497,
                    "duration": 0.34090912499999604
                },
                {
                    "name": "A#4",
                    "midi": 70,
                    "time": 195.0000194999986,
                    "velocity": 0.7874015748031497,
                    "duration": 0.34090912499999604
                },
                {
                    "name": "D5",
                    "midi": 74,
                    "time": 195.45456499999858,
                    "velocity": 0.7874015748031497,
                    "duration": 0.34090912499999604
                },
                {
                    "name": "A#4",
                    "midi": 70,
                    "time": 195.90911049999858,
                    "velocity": 0.7874015748031497,
                    "duration": 0.34090912499999604
                },
                {
                    "name": "A#4",
                    "midi": 70,
                    "time": 196.36365599999857,
                    "velocity": 0.7874015748031497,
                    "duration": 0.34090912499999604
                },
                {
                    "name": "G4",
                    "midi": 67,
                    "time": 196.81820149999857,
                    "velocity": 0.7874015748031497,
                    "duration": 0.34090912499999604
                },
                {
                    "name": "D#4",
                    "midi": 63,
                    "time": 197.27274699999856,
                    "velocity": 0.7874015748031497,
                    "duration": 0.34090912499999604
                },
                {
                    "name": "D#4",
                    "midi": 63,
                    "time": 197.72729249999855,
                    "velocity": 0.7874015748031497,
                    "duration": 0.34090912499999604
                },
                {
                    "name": "D#4",
                    "midi": 63,
                    "time": 198.18183799999855,
                    "velocity": 0.7874015748031497,
                    "duration": 0.34090912499999604
                },
                {
                    "name": "D4",
                    "midi": 62,
                    "time": 198.63638349999854,
                    "velocity": 0.7874015748031497,
                    "duration": 0.34090912499999604
                },
                {
                    "name": "F4",
                    "midi": 65,
                    "time": 199.09092899999854,
                    "velocity": 0.7874015748031497,
                    "duration": 0.34090912499999604
                },
                {
                    "name": "D4",
                    "midi": 62,
                    "time": 199.54547449999853,
                    "velocity": 0.7874015748031497,
                    "duration": 0.34090912499999604
                },
                {
                    "name": "D4",
                    "midi": 62,
                    "time": 200.00001999999853,
                    "velocity": 0.7874015748031497,
                    "duration": 0.34090912499999604
                },
                {
                    "name": "C4",
                    "midi": 60,
                    "time": 200.45456549999852,
                    "velocity": 0.7874015748031497,
                    "duration": 0.34090912499999604
                },
                {
                    "name": "D#4",
                    "midi": 63,
                    "time": 200.90911099999852,
                    "velocity": 0.7874015748031497,
                    "duration": 0.34090912499999604
                },
                {
                    "name": "C4",
                    "midi": 60,
                    "time": 201.3636564999985,
                    "velocity": 0.7874015748031497,
                    "duration": 0.34090912499999604
                },
                {
                    "name": "C4",
                    "midi": 60,
                    "time": 201.8182019999985,
                    "velocity": 0.7874015748031497,
                    "duration": 0.34090912499999604
                },
                {
                    "name": "A#3",
                    "midi": 58,
                    "time": 202.2727474999985,
                    "velocity": 0.7874015748031497,
                    "duration": 0.34090912499999604
                },
                {
                    "name": "D4",
                    "midi": 62,
                    "time": 202.7272929999985,
                    "velocity": 0.7874015748031497,
                    "duration": 0.34090912499999604
                },
                {
                    "name": "D4",
                    "midi": 62,
                    "time": 203.1818384999985,
                    "velocity": 0.7874015748031497,
                    "duration": 0.34090912499999604
                },
                {
                    "name": "D4",
                    "midi": 62,
                    "time": 203.6363839999985,
                    "velocity": 0.7874015748031497,
                    "duration": 0.34090912499999604
                },
                {
                    "name": "C4",
                    "midi": 60,
                    "time": 204.09092949999848,
                    "velocity": 0.7874015748031497,
                    "duration": 0.34090912499999604
                },
                {
                    "name": "C4",
                    "midi": 60,
                    "time": 204.54547499999848,
                    "velocity": 0.7874015748031497,
                    "duration": 0.34090912499999604
                },
                {
                    "name": "C4",
                    "midi": 60,
                    "time": 205.00002049999847,
                    "velocity": 0.7874015748031497,
                    "duration": 0.34090912499999604
                },
                {
                    "name": "C4",
                    "midi": 60,
                    "time": 205.45456599999847,
                    "velocity": 0.7874015748031497,
                    "duration": 0.34090912499999604
                },
                {
                    "name": "A4",
                    "midi": 69,
                    "time": 205.90911149999846,
                    "velocity": 0.7874015748031497,
                    "duration": 0.34090912499999604
                },
                {
                    "name": "F4",
                    "midi": 65,
                    "time": 206.36365699999845,
                    "velocity": 0.7874015748031497,
                    "duration": 0.34090912499999604
                },
                {
                    "name": "F4",
                    "midi": 65,
                    "time": 206.81820249999845,
                    "velocity": 0.7874015748031497,
                    "duration": 0.34090912499999604
                },
                {
                    "name": "F4",
                    "midi": 65,
                    "time": 207.27274799999844,
                    "velocity": 0.7874015748031497,
                    "duration": 0.34090912499999604
                },
                {
                    "name": "D#4",
                    "midi": 63,
                    "time": 207.72729349999844,
                    "velocity": 0.7874015748031497,
                    "duration": 0.34090912499999604
                },
                {
                    "name": "G4",
                    "midi": 67,
                    "time": 208.18183899999843,
                    "velocity": 0.7874015748031497,
                    "duration": 0.34090912499999604
                },
                {
                    "name": "G4",
                    "midi": 67,
                    "time": 208.63638449999843,
                    "velocity": 0.7874015748031497,
                    "duration": 0.34090912499999604
                },
                {
                    "name": "G4",
                    "midi": 67,
                    "time": 209.09092999999842,
                    "velocity": 0.7874015748031497,
                    "duration": 0.34090912499999604
                },
                {
                    "name": "F4",
                    "midi": 65,
                    "time": 209.54547549999842,
                    "velocity": 0.7874015748031497,
                    "duration": 0.34090912499999604
                },
                {
                    "name": "A4",
                    "midi": 69,
                    "time": 210.0000209999984,
                    "velocity": 0.7874015748031497,
                    "duration": 0.34090912499999604
                },
                {
                    "name": "A4",
                    "midi": 69,
                    "time": 210.4545664999984,
                    "velocity": 0.7874015748031497,
                    "duration": 0.34090912499999604
                },
                {
                    "name": "A4",
                    "midi": 69,
                    "time": 210.9091119999984,
                    "velocity": 0.7874015748031497,
                    "duration": 0.34090912499999604
                },
                {
                    "name": "G4",
                    "midi": 67,
                    "time": 211.3636574999984,
                    "velocity": 0.7874015748031497,
                    "duration": 0.34090912499999604
                },
                {
                    "name": "A#4",
                    "midi": 70,
                    "time": 211.8182029999984,
                    "velocity": 0.7874015748031497,
                    "duration": 0.34090912499999604
                },
                {
                    "name": "A#4",
                    "midi": 70,
                    "time": 212.2727484999984,
                    "velocity": 0.7874015748031497,
                    "duration": 0.34090912499999604
                },
                {
                    "name": "A#4",
                    "midi": 70,
                    "time": 212.72729399999838,
                    "velocity": 0.7874015748031497,
                    "duration": 0.34090912499999604
                },
                {
                    "name": "G#4",
                    "midi": 68,
                    "time": 213.18183949999838,
                    "velocity": 0.7874015748031497,
                    "duration": 0.34090912499999604
                },
                {
                    "name": "C5",
                    "midi": 72,
                    "time": 213.63638499999837,
                    "velocity": 0.7874015748031497,
                    "duration": 0.34090912499999604
                },
                {
                    "name": "C5",
                    "midi": 72,
                    "time": 214.09093049999836,
                    "velocity": 0.7874015748031497,
                    "duration": 0.34090912499999604
                },
                {
                    "name": "C5",
                    "midi": 72,
                    "time": 214.54547599999836,
                    "velocity": 0.7874015748031497,
                    "duration": 0.34090912499999604
                },
                {
                    "name": "A#4",
                    "midi": 70,
                    "time": 215.00002149999835,
                    "velocity": 0.7874015748031497,
                    "duration": 0.34090912499999604
                },
                {
                    "name": "D5",
                    "midi": 74,
                    "time": 215.45456699999835,
                    "velocity": 0.7874015748031497,
                    "duration": 0.34090912499999604
                },
                {
                    "name": "D5",
                    "midi": 74,
                    "time": 215.90911249999834,
                    "velocity": 0.7874015748031497,
                    "duration": 0.34090912499999604
                },
                {
                    "name": "D5",
                    "midi": 74,
                    "time": 216.36365799999834,
                    "velocity": 0.7874015748031497,
                    "duration": 0.34090912499999604
                },
                {
                    "name": "C5",
                    "midi": 72,
                    "time": 216.81820349999833,
                    "velocity": 0.7874015748031497,
                    "duration": 0.34090912499999604
                },
                {
                    "name": "C5",
                    "midi": 72,
                    "time": 217.27274899999833,
                    "velocity": 0.7874015748031497,
                    "duration": 0.34090912499999604
                },
                {
                    "name": "C5",
                    "midi": 72,
                    "time": 217.72729449999832,
                    "velocity": 0.7874015748031497,
                    "duration": 0.34090912499999604
                },
                {
                    "name": "C5",
                    "midi": 72,
                    "time": 218.18183999999832,
                    "velocity": 0.7874015748031497,
                    "duration": 0.34090912499999604
                },
                {
                    "name": "C5",
                    "midi": 72,
                    "time": 218.6363854999983,
                    "velocity": 0.7874015748031497,
                    "duration": 0.34090912499999604
                },
                {
                    "name": "D5",
                    "midi": 74,
                    "time": 219.0909309999983,
                    "velocity": 0.7874015748031497,
                    "duration": 0.34090912499999604
                },
                {
                    "name": "C5",
                    "midi": 72,
                    "time": 219.5454764999983,
                    "velocity": 0.7874015748031497,
                    "duration": 0.34090912499999604
                },
                {
                    "name": "B4",
                    "midi": 71,
                    "time": 220.0000219999983,
                    "velocity": 0.7874015748031497,
                    "duration": 0.34090912499999604
                },
                {
                    "name": "B4",
                    "midi": 71,
                    "time": 220.4545674999983,
                    "velocity": 0.7874015748031497,
                    "duration": 0.34090912499999604
                },
                {
                    "name": "D#5",
                    "midi": 75,
                    "time": 220.90911299999829,
                    "velocity": 0.7874015748031497,
                    "duration": 0.34090912499999604
                },
                {
                    "name": "D5",
                    "midi": 74,
                    "time": 221.36365849999828,
                    "velocity": 0.7874015748031497,
                    "duration": 0.34090912499999604
                },
                {
                    "name": "C5",
                    "midi": 72,
                    "time": 221.81820399999827,
                    "velocity": 0.7874015748031497,
                    "duration": 0.34090912499999604
                },
                {
                    "name": "B4",
                    "midi": 71,
                    "time": 222.27274949999827,
                    "velocity": 0.7874015748031497,
                    "duration": 0.34090912499999604
                },
                {
                    "name": "C5",
                    "midi": 72,
                    "time": 222.72729499999826,
                    "velocity": 0.7874015748031497,
                    "duration": 1.3636365000000126
                },
                {
                    "name": "B4",
                    "midi": 71,
                    "time": 224.54547699999827,
                    "velocity": 0.7874015748031497,
                    "duration": 0.6818182499999921
                },
                {
                    "name": "C5",
                    "midi": 72,
                    "time": 225.45456799999826,
                    "velocity": 0.7874015748031497,
                    "duration": 3.636363999999986
                }
            ],
            "controlChanges": {
                "7": [
                    {
                        "number": 7,
                        "time": 0,
                        "value": 0.47244094488188976
                    }
                ],
                "10": [
                    {
                        "number": 10,
                        "time": 0,
                        "value": 0.7874015748031497
                    }
                ]
            },
            "id": 9,
            "name": "Violin B",
            "instrumentNumber": 40,
            "instrument": "violin",
            "instrumentFamily": "strings",
            "channelNumber": 8,
            "isPercussion": false
        },
        {
            "startTime": 0,
            "duration": 229.0909319999983,
            "length": 392,
            "notes": [
                {
                    "name": "G4",
                    "midi": 67,
                    "time": 0,
                    "velocity": 0.7874015748031497,
                    "duration": 1.818182
                },
                {
                    "name": "G#4",
                    "midi": 68,
                    "time": 1.818182,
                    "velocity": 0.7874015748031497,
                    "duration": 0.9090909999999999
                },
                {
                    "name": "B4",
                    "midi": 71,
                    "time": 2.727273,
                    "velocity": 0.7874015748031497,
                    "duration": 0.9090910000000001
                },
                {
                    "name": "C5",
                    "midi": 72,
                    "time": 3.636364,
                    "velocity": 0.7874015748031497,
                    "duration": 0.4545454999999996
                },
                {
                    "name": "G4",
                    "midi": 67,
                    "time": 4.0909094999999995,
                    "velocity": 0.7874015748031497,
                    "duration": 0.45454550000000005
                },
                {
                    "name": "G#4",
                    "midi": 68,
                    "time": 4.545455,
                    "velocity": 0.7874015748031497,
                    "duration": 1.3636365000000001
                },
                {
                    "name": "G#4",
                    "midi": 68,
                    "time": 5.9090915,
                    "velocity": 0.7874015748031497,
                    "duration": 0.45454550000000005
                },
                {
                    "name": "G4",
                    "midi": 67,
                    "time": 6.363637,
                    "velocity": 0.7874015748031497,
                    "duration": 1.3636365000000001
                },
                {
                    "name": "G4",
                    "midi": 67,
                    "time": 7.7272735,
                    "velocity": 0.7874015748031497,
                    "duration": 0.45454549999999916
                },
                {
                    "name": "F4",
                    "midi": 65,
                    "time": 8.181818999999999,
                    "velocity": 0.7874015748031497,
                    "duration": 1.3636365000000001
                },
                {
                    "name": "F4",
                    "midi": 65,
                    "time": 9.5454555,
                    "velocity": 0.7874015748031497,
                    "duration": 0.45454550000000005
                },
                {
                    "name": "D#4",
                    "midi": 63,
                    "time": 10.000001,
                    "velocity": 0.7874015748031497,
                    "duration": 0.9090910000000001
                },
                {
                    "name": "D4",
                    "midi": 62,
                    "time": 10.909092,
                    "velocity": 0.7874015748031497,
                    "duration": 0.45454550000000005
                },
                {
                    "name": "D#4",
                    "midi": 63,
                    "time": 11.3636375,
                    "velocity": 0.7874015748031497,
                    "duration": 0.45454550000000005
                },
                {
                    "name": "F4",
                    "midi": 65,
                    "time": 11.818183,
                    "velocity": 0.7874015748031497,
                    "duration": 0.9090910000000001
                },
                {
                    "name": "D#4",
                    "midi": 63,
                    "time": 12.727274,
                    "velocity": 0.7874015748031497,
                    "duration": 0.45454550000000005
                },
                {
                    "name": "F4",
                    "midi": 65,
                    "time": 13.1818195,
                    "velocity": 0.7874015748031497,
                    "duration": 0.45454550000000005
                },
                {
                    "name": "G4",
                    "midi": 67,
                    "time": 13.636365,
                    "velocity": 0.7874015748031497,
                    "duration": 0.9090910000000001
                },
                {
                    "name": "C4",
                    "midi": 60,
                    "time": 14.545456,
                    "velocity": 0.7874015748031497,
                    "duration": 0.9090910000000001
                },
                {
                    "name": "B3",
                    "midi": 59,
                    "time": 15.454547,
                    "velocity": 0.7874015748031497,
                    "duration": 0.9090909999999983
                },
                {
                    "name": "C4",
                    "midi": 60,
                    "time": 16.363637999999998,
                    "velocity": 0.7874015748031497,
                    "duration": 0.9090910000000001
                },
                {
                    "name": "F4",
                    "midi": 65,
                    "time": 17.272728999999998,
                    "velocity": 0.7874015748031497,
                    "duration": 0.9090910000000001
                },
                {
                    "name": "F4",
                    "midi": 65,
                    "time": 18.18182,
                    "velocity": 0.7874015748031497,
                    "duration": 1.3636364999999984
                },
                {
                    "name": "D4",
                    "midi": 62,
                    "time": 20.000001999999995,
                    "velocity": 0.7874015748031497,
                    "duration": 1.3636364999999984
                },
                {
                    "name": "D4",
                    "midi": 62,
                    "time": 21.363638499999993,
                    "velocity": 0.7874015748031497,
                    "duration": 0.45454549999999827
                },
                {
                    "name": "G4",
                    "midi": 67,
                    "time": 21.81818399999999,
                    "velocity": 0.7874015748031497,
                    "duration": 1.3636364999999984
                },
                {
                    "name": "G4",
                    "midi": 67,
                    "time": 23.18182049999999,
                    "velocity": 0.7874015748031497,
                    "duration": 0.45454549999999827
                },
                {
                    "name": "G4",
                    "midi": 67,
                    "time": 23.636365999999988,
                    "velocity": 0.7874015748031497,
                    "duration": 1.3636364999999984
                },
                {
                    "name": "G4",
                    "midi": 67,
                    "time": 25.000002499999987,
                    "velocity": 0.7874015748031497,
                    "duration": 0.45454549999999827
                },
                {
                    "name": "F4",
                    "midi": 65,
                    "time": 25.454547999999985,
                    "velocity": 0.7874015748031497,
                    "duration": 1.3636364999999984
                },
                {
                    "name": "F4",
                    "midi": 65,
                    "time": 26.818184499999983,
                    "velocity": 0.7874015748031497,
                    "duration": 0.45454549999999827
                },
                {
                    "name": "F#4",
                    "midi": 66,
                    "time": 27.27272999999998,
                    "velocity": 0.7874015748031497,
                    "duration": 0.9090910000000001
                },
                {
                    "name": "G4",
                    "midi": 67,
                    "time": 28.18182099999998,
                    "velocity": 0.7874015748031497,
                    "duration": 0.9090910000000001
                },
                {
                    "name": "A4",
                    "midi": 69,
                    "time": 29.09091199999998,
                    "velocity": 0.7874015748031497,
                    "duration": 0.9090910000000001
                },
                {
                    "name": "F#4",
                    "midi": 66,
                    "time": 30.00000299999998,
                    "velocity": 0.7874015748031497,
                    "duration": 0.9090910000000001
                },
                {
                    "name": "D4",
                    "midi": 62,
                    "time": 30.909093999999982,
                    "velocity": 0.7874015748031497,
                    "duration": 2.7272729999999967
                },
                {
                    "name": "D4",
                    "midi": 62,
                    "time": 33.63636699999998,
                    "velocity": 0.7874015748031497,
                    "duration": 1.3636364999999984
                },
                {
                    "name": "D4",
                    "midi": 62,
                    "time": 35.00000349999998,
                    "velocity": 0.7874015748031497,
                    "duration": 0.4545455000000018
                },
                {
                    "name": "C4",
                    "midi": 60,
                    "time": 35.45454899999998,
                    "velocity": 0.7874015748031497,
                    "duration": 0.9090909999999965
                },
                {
                    "name": "C4",
                    "midi": 60,
                    "time": 36.363639999999975,
                    "velocity": 0.7874015748031497,
                    "duration": 1.8181820000000002
                },
                {
                    "name": "C4",
                    "midi": 60,
                    "time": 38.181821999999976,
                    "velocity": 0.7874015748031497,
                    "duration": 0.4545455000000018
                },
                {
                    "name": "C4",
                    "midi": 60,
                    "time": 38.63636749999998,
                    "velocity": 0.7874015748031497,
                    "duration": 0.4545455000000018
                },
                {
                    "name": "D4",
                    "midi": 62,
                    "time": 39.09091299999998,
                    "velocity": 0.7874015748031497,
                    "duration": 0.9090909999999965
                },
                {
                    "name": "D4",
                    "midi": 62,
                    "time": 40.000003999999976,
                    "velocity": 0.7874015748031497,
                    "duration": 0.6818182499999992
                },
                {
                    "name": "D4",
                    "midi": 62,
                    "time": 40.681822249999975,
                    "velocity": 0.7874015748031497,
                    "duration": 0.22727274999999736
                },
                {
                    "name": "G4",
                    "midi": 67,
                    "time": 40.90909499999997,
                    "velocity": 0.7874015748031497,
                    "duration": 0.6818182499999992
                },
                {
                    "name": "G4",
                    "midi": 67,
                    "time": 41.59091324999997,
                    "velocity": 0.7874015748031497,
                    "duration": 0.22727274999999736
                },
                {
                    "name": "G4",
                    "midi": 67,
                    "time": 41.81818599999997,
                    "velocity": 0.7874015748031497,
                    "duration": 1.3636364999999984
                },
                {
                    "name": "F4",
                    "midi": 65,
                    "time": 43.18182249999997,
                    "velocity": 0.7874015748031497,
                    "duration": 0.4545455000000018
                },
                {
                    "name": "D#4",
                    "midi": 63,
                    "time": 43.63636799999997,
                    "velocity": 0.7874015748031497,
                    "duration": 0.6818182499999992
                },
                {
                    "name": "D4",
                    "midi": 62,
                    "time": 55.00000549999997,
                    "velocity": 0.7874015748031497,
                    "duration": 0.34090912500000314
                },
                {
                    "name": "G4",
                    "midi": 67,
                    "time": 55.454550999999974,
                    "velocity": 0.7874015748031497,
                    "duration": 0.34090912500000314
                },
                {
                    "name": "D4",
                    "midi": 62,
                    "time": 55.909096499999976,
                    "velocity": 0.7874015748031497,
                    "duration": 0.34090912500000314
                },
                {
                    "name": "G4",
                    "midi": 67,
                    "time": 56.36364199999998,
                    "velocity": 0.7874015748031497,
                    "duration": 0.34090912500000314
                },
                {
                    "name": "A#4",
                    "midi": 70,
                    "time": 56.81818749999998,
                    "velocity": 0.7874015748031497,
                    "duration": 0.34090912500000314
                },
                {
                    "name": "G4",
                    "midi": 67,
                    "time": 57.27273299999998,
                    "velocity": 0.7874015748031497,
                    "duration": 0.34090912500000314
                },
                {
                    "name": "A#4",
                    "midi": 70,
                    "time": 57.72727849999998,
                    "velocity": 0.7874015748031497,
                    "duration": 0.34090912500000314
                },
                {
                    "name": "G4",
                    "midi": 67,
                    "time": 58.181823999999985,
                    "velocity": 0.7874015748031497,
                    "duration": 0.34090912500000314
                },
                {
                    "name": "G4",
                    "midi": 67,
                    "time": 58.63636949999999,
                    "velocity": 0.7874015748031497,
                    "duration": 0.34090912500000314
                },
                {
                    "name": "G4",
                    "midi": 67,
                    "time": 59.09091499999999,
                    "velocity": 0.7874015748031497,
                    "duration": 0.34090912500000314
                },
                {
                    "name": "G4",
                    "midi": 67,
                    "time": 59.54546049999999,
                    "velocity": 0.7874015748031497,
                    "duration": 0.34090912500000314
                },
                {
                    "name": "G4",
                    "midi": 67,
                    "time": 60.00000599999999,
                    "velocity": 0.7874015748031497,
                    "duration": 0.34090912500000314
                },
                {
                    "name": "F#4",
                    "midi": 66,
                    "time": 60.454551499999994,
                    "velocity": 0.7874015748031497,
                    "duration": 0.1742424416666637
                },
                {
                    "name": "E4",
                    "midi": 64,
                    "time": 60.68182424999999,
                    "velocity": 0.7874015748031497,
                    "duration": 0.1742424416666637
                },
                {
                    "name": "D4",
                    "midi": 62,
                    "time": 60.90909699999999,
                    "velocity": 0.7874015748031497,
                    "duration": 0.34090912500000314
                },
                {
                    "name": "D4",
                    "midi": 62,
                    "time": 61.36364249999999,
                    "velocity": 0.7874015748031497,
                    "duration": 0.34090912500000314
                },
                {
                    "name": "D4",
                    "midi": 62,
                    "time": 61.81818799999999,
                    "velocity": 0.7874015748031497,
                    "duration": 0.34090912500000314
                },
                {
                    "name": "B3",
                    "midi": 59,
                    "time": 62.272733499999994,
                    "velocity": 0.7874015748031497,
                    "duration": 0.34090912500000314
                },
                {
                    "name": "C4",
                    "midi": 60,
                    "time": 62.727278999999996,
                    "velocity": 0.7874015748031497,
                    "duration": 0.34090912500000314
                },
                {
                    "name": "D4",
                    "midi": 62,
                    "time": 63.1818245,
                    "velocity": 0.7874015748031497,
                    "duration": 0.34090912500000314
                },
                {
                    "name": "G3",
                    "midi": 55,
                    "time": 63.63637,
                    "velocity": 0.7874015748031497,
                    "duration": 0.34090912500000314
                },
                {
                    "name": "G3",
                    "midi": 55,
                    "time": 64.09091550000001,
                    "velocity": 0.7874015748031497,
                    "duration": 0.34090912499999604
                },
                {
                    "name": "G3",
                    "midi": 55,
                    "time": 64.545461,
                    "velocity": 0.7874015748031497,
                    "duration": 0.34090912499999604
                },
                {
                    "name": "G3",
                    "midi": 55,
                    "time": 65.0000065,
                    "velocity": 0.7874015748031497,
                    "duration": 0.34090912499999604
                },
                {
                    "name": "G3",
                    "midi": 55,
                    "time": 65.45455199999999,
                    "velocity": 0.7874015748031497,
                    "duration": 0.34090912499999604
                },
                {
                    "name": "C4",
                    "midi": 60,
                    "time": 65.90909749999999,
                    "velocity": 0.7874015748031497,
                    "duration": 0.34090912499999604
                },
                {
                    "name": "C4",
                    "midi": 60,
                    "time": 66.36364299999998,
                    "velocity": 0.7874015748031497,
                    "duration": 0.34090912499999604
                },
                {
                    "name": "C4",
                    "midi": 60,
                    "time": 66.81818849999998,
                    "velocity": 0.7874015748031497,
                    "duration": 0.34090912499999604
                },
                {
                    "name": "G#3",
                    "midi": 56,
                    "time": 67.27273399999997,
                    "velocity": 0.7874015748031497,
                    "duration": 0.34090912499999604
                },
                {
                    "name": "C4",
                    "midi": 60,
                    "time": 67.72727949999997,
                    "velocity": 0.7874015748031497,
                    "duration": 0.34090912499999604
                },
                {
                    "name": "F4",
                    "midi": 65,
                    "time": 68.18182499999996,
                    "velocity": 0.7874015748031497,
                    "duration": 0.34090912499999604
                },
                {
                    "name": "F4",
                    "midi": 65,
                    "time": 68.63637049999996,
                    "velocity": 0.7874015748031497,
                    "duration": 0.34090912499999604
                },
                {
                    "name": "F4",
                    "midi": 65,
                    "time": 69.09091599999995,
                    "velocity": 0.7874015748031497,
                    "duration": 0.34090912499999604
                },
                {
                    "name": "D4",
                    "midi": 62,
                    "time": 69.54546149999994,
                    "velocity": 0.7874015748031497,
                    "duration": 0.34090912499999604
                },
                {
                    "name": "D#4",
                    "midi": 63,
                    "time": 70.00000699999994,
                    "velocity": 0.7874015748031497,
                    "duration": 0.34090912499999604
                },
                {
                    "name": "D4",
                    "midi": 62,
                    "time": 70.45455249999993,
                    "velocity": 0.7874015748031497,
                    "duration": 0.34090912499999604
                },
                {
                    "name": "D4",
                    "midi": 62,
                    "time": 70.90909799999993,
                    "velocity": 0.7874015748031497,
                    "duration": 0.6818182500000063
                },
                {
                    "name": "G3",
                    "midi": 55,
                    "time": 73.18182549999993,
                    "velocity": 0.7874015748031497,
                    "duration": 0.34090912499999604
                },
                {
                    "name": "C4",
                    "midi": 60,
                    "time": 73.63637099999993,
                    "velocity": 0.7874015748031497,
                    "duration": 0.34090912499999604
                },
                {
                    "name": "G3",
                    "midi": 55,
                    "time": 74.09091649999992,
                    "velocity": 0.7874015748031497,
                    "duration": 0.34090912499999604
                },
                {
                    "name": "C4",
                    "midi": 60,
                    "time": 74.54546199999992,
                    "velocity": 0.7874015748031497,
                    "duration": 0.34090912499999604
                },
                {
                    "name": "D#4",
                    "midi": 63,
                    "time": 75.00000749999991,
                    "velocity": 0.7874015748031497,
                    "duration": 0.34090912499999604
                },
                {
                    "name": "C4",
                    "midi": 60,
                    "time": 75.4545529999999,
                    "velocity": 0.7874015748031497,
                    "duration": 0.34090912499999604
                },
                {
                    "name": "D#4",
                    "midi": 63,
                    "time": 75.9090984999999,
                    "velocity": 0.7874015748031497,
                    "duration": 0.34090912499999604
                },
                {
                    "name": "C4",
                    "midi": 60,
                    "time": 76.3636439999999,
                    "velocity": 0.7874015748031497,
                    "duration": 0.34090912499999604
                },
                {
                    "name": "C4",
                    "midi": 60,
                    "time": 76.81818949999989,
                    "velocity": 0.7874015748031497,
                    "duration": 0.34090912499999604
                },
                {
                    "name": "D4",
                    "midi": 62,
                    "time": 77.27273499999988,
                    "velocity": 0.7874015748031497,
                    "duration": 0.34090912499999604
                },
                {
                    "name": "D#4",
                    "midi": 63,
                    "time": 77.72728049999988,
                    "velocity": 0.7874015748031497,
                    "duration": 0.34090912499999604
                },
                {
                    "name": "F4",
                    "midi": 65,
                    "time": 78.18182599999987,
                    "velocity": 0.7874015748031497,
                    "duration": 0.34090912499999604
                },
                {
                    "name": "F4",
                    "midi": 65,
                    "time": 78.63637149999987,
                    "velocity": 0.7874015748031497,
                    "duration": 0.34090912499999604
                },
                {
                    "name": "F4",
                    "midi": 65,
                    "time": 79.09091699999986,
                    "velocity": 0.7874015748031497,
                    "duration": 0.34090912499999604
                },
                {
                    "name": "F4",
                    "midi": 65,
                    "time": 79.54546249999986,
                    "velocity": 0.7874015748031497,
                    "duration": 0.34090912499999604
                },
                {
                    "name": "F4",
                    "midi": 65,
                    "time": 80.00000799999985,
                    "velocity": 0.7874015748031497,
                    "duration": 0.34090912499999604
                },
                {
                    "name": "A#4",
                    "midi": 70,
                    "time": 80.45455349999985,
                    "velocity": 0.7874015748031497,
                    "duration": 0.34090912499999604
                },
                {
                    "name": "A#4",
                    "midi": 70,
                    "time": 80.90909899999984,
                    "velocity": 0.7874015748031497,
                    "duration": 0.34090912499999604
                },
                {
                    "name": "A#4",
                    "midi": 70,
                    "time": 81.36364449999984,
                    "velocity": 0.7874015748031497,
                    "duration": 0.34090912499999604
                },
                {
                    "name": "A#4",
                    "midi": 70,
                    "time": 81.81818999999983,
                    "velocity": 0.7874015748031497,
                    "duration": 0.34090912499999604
                },
                {
                    "name": "G4",
                    "midi": 67,
                    "time": 82.27273549999983,
                    "velocity": 0.7874015748031497,
                    "duration": 0.34090912499999604
                },
                {
                    "name": "A#4",
                    "midi": 70,
                    "time": 82.72728099999982,
                    "velocity": 0.7874015748031497,
                    "duration": 0.34090912499999604
                },
                {
                    "name": "D#4",
                    "midi": 63,
                    "time": 83.18182649999981,
                    "velocity": 0.7874015748031497,
                    "duration": 0.34090912499999604
                },
                {
                    "name": "G4",
                    "midi": 67,
                    "time": 83.63637199999981,
                    "velocity": 0.7874015748031497,
                    "duration": 0.34090912499999604
                },
                {
                    "name": "F4",
                    "midi": 65,
                    "time": 84.0909174999998,
                    "velocity": 0.7874015748031497,
                    "duration": 0.34090912499999604
                },
                {
                    "name": "D#4",
                    "midi": 63,
                    "time": 84.5454629999998,
                    "velocity": 0.7874015748031497,
                    "duration": 0.34090912499999604
                },
                {
                    "name": "D#4",
                    "midi": 63,
                    "time": 85.0000084999998,
                    "velocity": 0.7874015748031497,
                    "duration": 0.34090912499999604
                },
                {
                    "name": "D#4",
                    "midi": 63,
                    "time": 85.45455399999979,
                    "velocity": 0.7874015748031497,
                    "duration": 0.34090912499999604
                },
                {
                    "name": "D#4",
                    "midi": 63,
                    "time": 85.90909949999978,
                    "velocity": 0.7874015748031497,
                    "duration": 0.34090912499999604
                },
                {
                    "name": "G#4",
                    "midi": 68,
                    "time": 86.36364499999978,
                    "velocity": 0.7874015748031497,
                    "duration": 0.34090912499999604
                },
                {
                    "name": "D#4",
                    "midi": 63,
                    "time": 86.81819049999977,
                    "velocity": 0.7874015748031497,
                    "duration": 0.34090912499999604
                },
                {
                    "name": "G#4",
                    "midi": 68,
                    "time": 87.27273599999977,
                    "velocity": 0.7874015748031497,
                    "duration": 0.34090912499999604
                },
                {
                    "name": "C5",
                    "midi": 72,
                    "time": 87.72728149999976,
                    "velocity": 0.7874015748031497,
                    "duration": 0.34090912499999604
                },
                {
                    "name": "G#4",
                    "midi": 68,
                    "time": 88.18182699999976,
                    "velocity": 0.7874015748031497,
                    "duration": 0.34090912499999604
                },
                {
                    "name": "C5",
                    "midi": 72,
                    "time": 88.63637249999975,
                    "velocity": 0.7874015748031497,
                    "duration": 0.34090912499999604
                },
                {
                    "name": "G#4",
                    "midi": 68,
                    "time": 89.09091799999975,
                    "velocity": 0.7874015748031497,
                    "duration": 0.34090912499999604
                },
                {
                    "name": "C5",
                    "midi": 72,
                    "time": 89.54546349999974,
                    "velocity": 0.7874015748031497,
                    "duration": 0.34090912499999604
                },
                {
                    "name": "G#4",
                    "midi": 68,
                    "time": 90.00000899999974,
                    "velocity": 0.7874015748031497,
                    "duration": 0.34090912499999604
                },
                {
                    "name": "G#4",
                    "midi": 68,
                    "time": 90.45455449999973,
                    "velocity": 0.7874015748031497,
                    "duration": 0.34090912499999604
                },
                {
                    "name": "F4",
                    "midi": 65,
                    "time": 90.90909999999973,
                    "velocity": 0.7874015748031497,
                    "duration": 0.34090912499999604
                },
                {
                    "name": "D4",
                    "midi": 62,
                    "time": 91.36364549999972,
                    "velocity": 0.7874015748031497,
                    "duration": 0.34090912499999604
                },
                {
                    "name": "D4",
                    "midi": 62,
                    "time": 91.81819099999971,
                    "velocity": 0.7874015748031497,
                    "duration": 0.34090912499999604
                },
                {
                    "name": "D4",
                    "midi": 62,
                    "time": 92.27273649999971,
                    "velocity": 0.7874015748031497,
                    "duration": 0.34090912499999604
                },
                {
                    "name": "D#4",
                    "midi": 63,
                    "time": 92.7272819999997,
                    "velocity": 0.7874015748031497,
                    "duration": 0.34090912499999604
                },
                {
                    "name": "C4",
                    "midi": 60,
                    "time": 93.1818274999997,
                    "velocity": 0.7874015748031497,
                    "duration": 0.34090912499999604
                },
                {
                    "name": "D#4",
                    "midi": 63,
                    "time": 93.6363729999997,
                    "velocity": 0.7874015748031497,
                    "duration": 0.34090912499999604
                },
                {
                    "name": "C4",
                    "midi": 60,
                    "time": 94.09091849999969,
                    "velocity": 0.7874015748031497,
                    "duration": 0.34090912499999604
                },
                {
                    "name": "D4",
                    "midi": 62,
                    "time": 94.54546399999968,
                    "velocity": 0.7874015748031497,
                    "duration": 0.34090912499999604
                },
                {
                    "name": "A#3",
                    "midi": 58,
                    "time": 95.00000949999968,
                    "velocity": 0.7874015748031497,
                    "duration": 0.34090912499999604
                },
                {
                    "name": "D4",
                    "midi": 62,
                    "time": 95.45455499999967,
                    "velocity": 0.7874015748031497,
                    "duration": 0.34090912499999604
                },
                {
                    "name": "A#3",
                    "midi": 58,
                    "time": 95.90910049999967,
                    "velocity": 0.7874015748031497,
                    "duration": 0.34090912499999604
                },
                {
                    "name": "C4",
                    "midi": 60,
                    "time": 96.36364599999966,
                    "velocity": 0.7874015748031497,
                    "duration": 0.34090912499999604
                },
                {
                    "name": "G#3",
                    "midi": 56,
                    "time": 96.81819149999966,
                    "velocity": 0.7874015748031497,
                    "duration": 0.34090912499999604
                },
                {
                    "name": "C4",
                    "midi": 60,
                    "time": 97.27273699999965,
                    "velocity": 0.7874015748031497,
                    "duration": 0.34090912499999604
                },
                {
                    "name": "G#3",
                    "midi": 56,
                    "time": 97.72728249999965,
                    "velocity": 0.7874015748031497,
                    "duration": 0.34090912499999604
                },
                {
                    "name": "A#3",
                    "midi": 58,
                    "time": 98.18182799999964,
                    "velocity": 0.7874015748031497,
                    "duration": 0.34090912499999604
                },
                {
                    "name": "G3",
                    "midi": 55,
                    "time": 98.63637349999964,
                    "velocity": 0.7874015748031497,
                    "duration": 0.34090912499999604
                },
                {
                    "name": "G3",
                    "midi": 55,
                    "time": 99.09091899999963,
                    "velocity": 0.7874015748031497,
                    "duration": 0.34090912499999604
                },
                {
                    "name": "G3",
                    "midi": 55,
                    "time": 99.54546449999962,
                    "velocity": 0.7874015748031497,
                    "duration": 0.34090912499999604
                },
                {
                    "name": "D4",
                    "midi": 62,
                    "time": 100.00000999999962,
                    "velocity": 0.7874015748031497,
                    "duration": 0.34090912499999604
                },
                {
                    "name": "D4",
                    "midi": 62,
                    "time": 100.45455549999961,
                    "velocity": 0.7874015748031497,
                    "duration": 0.34090912499999604
                },
                {
                    "name": "D4",
                    "midi": 62,
                    "time": 100.90910099999961,
                    "velocity": 0.7874015748031497,
                    "duration": 0.34090912499999604
                },
                {
                    "name": "B3",
                    "midi": 59,
                    "time": 101.3636464999996,
                    "velocity": 0.7874015748031497,
                    "duration": 0.34090912499999604
                },
                {
                    "name": "C4",
                    "midi": 60,
                    "time": 101.8181919999996,
                    "velocity": 0.7874015748031497,
                    "duration": 0.34090912499999604
                },
                {
                    "name": "D#4",
                    "midi": 63,
                    "time": 102.2727374999996,
                    "velocity": 0.7874015748031497,
                    "duration": 0.34090912499999604
                },
                {
                    "name": "D#4",
                    "midi": 63,
                    "time": 102.72728299999959,
                    "velocity": 0.7874015748031497,
                    "duration": 0.34090912499999604
                },
                {
                    "name": "D#4",
                    "midi": 63,
                    "time": 103.18182849999958,
                    "velocity": 0.7874015748031497,
                    "duration": 0.34090912499999604
                },
                {
                    "name": "D#4",
                    "midi": 63,
                    "time": 103.63637399999958,
                    "velocity": 0.7874015748031497,
                    "duration": 0.34090912499999604
                },
                {
                    "name": "D4",
                    "midi": 62,
                    "time": 104.09091949999957,
                    "velocity": 0.7874015748031497,
                    "duration": 0.34090912499999604
                },
                {
                    "name": "D4",
                    "midi": 62,
                    "time": 104.54546499999957,
                    "velocity": 0.7874015748031497,
                    "duration": 0.34090912499999604
                },
                {
                    "name": "D4",
                    "midi": 62,
                    "time": 105.00001049999956,
                    "velocity": 0.7874015748031497,
                    "duration": 0.34090912499999604
                },
                {
                    "name": "D4",
                    "midi": 62,
                    "time": 105.45455599999956,
                    "velocity": 0.7874015748031497,
                    "duration": 0.34090912499999604
                },
                {
                    "name": "C4",
                    "midi": 60,
                    "time": 105.90910149999955,
                    "velocity": 0.7874015748031497,
                    "duration": 0.34090912499999604
                },
                {
                    "name": "C4",
                    "midi": 60,
                    "time": 106.36364699999955,
                    "velocity": 0.7874015748031497,
                    "duration": 0.34090912499999604
                },
                {
                    "name": "C4",
                    "midi": 60,
                    "time": 106.81819249999954,
                    "velocity": 0.7874015748031497,
                    "duration": 0.34090912499999604
                },
                {
                    "name": "C4",
                    "midi": 60,
                    "time": 107.27273799999953,
                    "velocity": 0.7874015748031497,
                    "duration": 0.34090912499999604
                },
                {
                    "name": "A3",
                    "midi": 57,
                    "time": 107.72728349999953,
                    "velocity": 0.7874015748031497,
                    "duration": 0.34090912499999604
                },
                {
                    "name": "D4",
                    "midi": 62,
                    "time": 108.18182899999952,
                    "velocity": 0.7874015748031497,
                    "duration": 0.34090912499999604
                },
                {
                    "name": "A3",
                    "midi": 57,
                    "time": 108.63637449999952,
                    "velocity": 0.7874015748031497,
                    "duration": 0.34090912499999604
                },
                {
                    "name": "A#3",
                    "midi": 58,
                    "time": 109.09091999999951,
                    "velocity": 0.7874015748031497,
                    "duration": 0.34090912499999604
                },
                {
                    "name": "G3",
                    "midi": 55,
                    "time": 109.54546549999951,
                    "velocity": 0.7874015748031497,
                    "duration": 0.34090912499999604
                },
                {
                    "name": "C4",
                    "midi": 60,
                    "time": 110.0000109999995,
                    "velocity": 0.7874015748031497,
                    "duration": 0.34090912499999604
                },
                {
                    "name": "G3",
                    "midi": 55,
                    "time": 110.4545564999995,
                    "velocity": 0.7874015748031497,
                    "duration": 0.34090912499999604
                },
                {
                    "name": "A3",
                    "midi": 57,
                    "time": 110.90910199999949,
                    "velocity": 0.7874015748031497,
                    "duration": 0.34090912499999604
                },
                {
                    "name": "F#3",
                    "midi": 54,
                    "time": 111.36364749999949,
                    "velocity": 0.7874015748031497,
                    "duration": 0.34090912499999604
                },
                {
                    "name": "A#3",
                    "midi": 58,
                    "time": 111.81819299999948,
                    "velocity": 0.7874015748031497,
                    "duration": 0.34090912499999604
                },
                {
                    "name": "A#3",
                    "midi": 58,
                    "time": 112.27273849999948,
                    "velocity": 0.7874015748031497,
                    "duration": 0.34090912499999604
                },
                {
                    "name": "A#3",
                    "midi": 58,
                    "time": 112.72728399999947,
                    "velocity": 0.7874015748031497,
                    "duration": 0.34090912499999604
                },
                {
                    "name": "A#3",
                    "midi": 58,
                    "time": 113.18182949999947,
                    "velocity": 0.7874015748031497,
                    "duration": 0.34090912499999604
                },
                {
                    "name": "A#3",
                    "midi": 58,
                    "time": 113.63637499999946,
                    "velocity": 0.7874015748031497,
                    "duration": 0.34090912499999604
                },
                {
                    "name": "G3",
                    "midi": 55,
                    "time": 114.09092049999946,
                    "velocity": 0.7874015748031497,
                    "duration": 0.34090912499999604
                },
                {
                    "name": "A3",
                    "midi": 57,
                    "time": 114.54546599999945,
                    "velocity": 0.7874015748031497,
                    "duration": 0.34090912499999604
                },
                {
                    "name": "A3",
                    "midi": 57,
                    "time": 115.00001149999945,
                    "velocity": 0.7874015748031497,
                    "duration": 0.34090912499999604
                },
                {
                    "name": "D4",
                    "midi": 62,
                    "time": 115.45455699999944,
                    "velocity": 0.7874015748031497,
                    "duration": 0.34090912499999604
                },
                {
                    "name": "D4",
                    "midi": 62,
                    "time": 115.90910249999943,
                    "velocity": 0.7874015748031497,
                    "duration": 0.34090912499999604
                },
                {
                    "name": "D4",
                    "midi": 62,
                    "time": 116.36364799999943,
                    "velocity": 0.7874015748031497,
                    "duration": 0.34090912499999604
                },
                {
                    "name": "A#3",
                    "midi": 58,
                    "time": 116.81819349999942,
                    "velocity": 0.7874015748031497,
                    "duration": 0.34090912499999604
                },
                {
                    "name": "D#4",
                    "midi": 63,
                    "time": 117.27273899999942,
                    "velocity": 0.7874015748031497,
                    "duration": 0.34090912499999604
                },
                {
                    "name": "D#4",
                    "midi": 63,
                    "time": 117.72728449999941,
                    "velocity": 0.7874015748031497,
                    "duration": 0.34090912499999604
                },
                {
                    "name": "D#4",
                    "midi": 63,
                    "time": 118.18182999999941,
                    "velocity": 0.7874015748031497,
                    "duration": 0.34090912499999604
                },
                {
                    "name": "C4",
                    "midi": 60,
                    "time": 118.6363754999994,
                    "velocity": 0.7874015748031497,
                    "duration": 0.34090912499999604
                },
                {
                    "name": "F4",
                    "midi": 65,
                    "time": 119.0909209999994,
                    "velocity": 0.7874015748031497,
                    "duration": 0.34090912499999604
                },
                {
                    "name": "F4",
                    "midi": 65,
                    "time": 119.54546649999939,
                    "velocity": 0.7874015748031497,
                    "duration": 0.34090912499999604
                },
                {
                    "name": "F4",
                    "midi": 65,
                    "time": 120.00001199999939,
                    "velocity": 0.7874015748031497,
                    "duration": 0.34090912499999604
                },
                {
                    "name": "D4",
                    "midi": 62,
                    "time": 120.45455749999938,
                    "velocity": 0.7874015748031497,
                    "duration": 0.34090912499999604
                },
                {
                    "name": "G4",
                    "midi": 67,
                    "time": 120.90910299999938,
                    "velocity": 0.7874015748031497,
                    "duration": 0.34090912499999604
                },
                {
                    "name": "G4",
                    "midi": 67,
                    "time": 121.36364849999937,
                    "velocity": 0.7874015748031497,
                    "duration": 0.34090912499999604
                },
                {
                    "name": "G4",
                    "midi": 67,
                    "time": 121.81819399999937,
                    "velocity": 0.7874015748031497,
                    "duration": 0.34090912499999604
                },
                {
                    "name": "D#4",
                    "midi": 63,
                    "time": 122.27273949999936,
                    "velocity": 0.7874015748031497,
                    "duration": 0.34090912499999604
                },
                {
                    "name": "G#4",
                    "midi": 68,
                    "time": 122.72728499999936,
                    "velocity": 0.7874015748031497,
                    "duration": 0.34090912499999604
                },
                {
                    "name": "G#4",
                    "midi": 68,
                    "time": 123.18183049999935,
                    "velocity": 0.7874015748031497,
                    "duration": 0.34090912499999604
                },
                {
                    "name": "G#4",
                    "midi": 68,
                    "time": 123.63637599999934,
                    "velocity": 0.7874015748031497,
                    "duration": 0.34090912499999604
                },
                {
                    "name": "F4",
                    "midi": 65,
                    "time": 124.09092149999934,
                    "velocity": 0.7874015748031497,
                    "duration": 0.34090912499999604
                },
                {
                    "name": "A#4",
                    "midi": 70,
                    "time": 124.54546699999933,
                    "velocity": 0.7874015748031497,
                    "duration": 0.34090912499999604
                },
                {
                    "name": "A#4",
                    "midi": 70,
                    "time": 125.00001249999933,
                    "velocity": 0.7874015748031497,
                    "duration": 0.34090912499999604
                },
                {
                    "name": "A#4",
                    "midi": 70,
                    "time": 125.45455799999932,
                    "velocity": 0.7874015748031497,
                    "duration": 0.34090912499999604
                },
                {
                    "name": "A#4",
                    "midi": 70,
                    "time": 125.90910349999932,
                    "velocity": 0.7874015748031497,
                    "duration": 0.34090912499999604
                },
                {
                    "name": "G#4",
                    "midi": 68,
                    "time": 126.36364899999931,
                    "velocity": 0.7874015748031497,
                    "duration": 0.34090912499999604
                },
                {
                    "name": "G4",
                    "midi": 67,
                    "time": 126.81819449999931,
                    "velocity": 0.7874015748031497,
                    "duration": 0.34090912499999604
                },
                {
                    "name": "F4",
                    "midi": 65,
                    "time": 127.2727399999993,
                    "velocity": 0.7874015748031497,
                    "duration": 0.34090912499999604
                },
                {
                    "name": "G4",
                    "midi": 67,
                    "time": 127.7272854999993,
                    "velocity": 0.7874015748031497,
                    "duration": 0.34090912500001025
                },
                {
                    "name": "G#4",
                    "midi": 68,
                    "time": 128.1818309999993,
                    "velocity": 0.7874015748031497,
                    "duration": 0.34090912499999604
                },
                {
                    "name": "G4",
                    "midi": 67,
                    "time": 128.6363764999993,
                    "velocity": 0.7874015748031497,
                    "duration": 0.34090912499999604
                },
                {
                    "name": "G4",
                    "midi": 67,
                    "time": 129.0909219999993,
                    "velocity": 0.7874015748031497,
                    "duration": 0.34090912499999604
                },
                {
                    "name": "A4",
                    "midi": 69,
                    "time": 129.5454674999993,
                    "velocity": 0.7874015748031497,
                    "duration": 0.34090912499999604
                },
                {
                    "name": "B4",
                    "midi": 71,
                    "time": 130.00001299999929,
                    "velocity": 0.7874015748031497,
                    "duration": 0.34090912499999604
                },
                {
                    "name": "B3",
                    "midi": 59,
                    "time": 130.45455849999928,
                    "velocity": 0.7874015748031497,
                    "duration": 0.34090912499999604
                },
                {
                    "name": "C4",
                    "midi": 60,
                    "time": 130.90910399999927,
                    "velocity": 0.7874015748031497,
                    "duration": 0.34090912499999604
                },
                {
                    "name": "D4",
                    "midi": 62,
                    "time": 131.36364949999927,
                    "velocity": 0.7874015748031497,
                    "duration": 0.34090912499999604
                },
                {
                    "name": "D#4",
                    "midi": 63,
                    "time": 131.81819499999926,
                    "velocity": 0.7874015748031497,
                    "duration": 0.34090912499999604
                },
                {
                    "name": "F4",
                    "midi": 65,
                    "time": 132.27274049999926,
                    "velocity": 0.7874015748031497,
                    "duration": 0.34090912499999604
                },
                {
                    "name": "G4",
                    "midi": 67,
                    "time": 132.72728599999925,
                    "velocity": 0.7874015748031497,
                    "duration": 1.0227273749999881
                },
                {
                    "name": "G4",
                    "midi": 67,
                    "time": 134.09092249999924,
                    "velocity": 0.7874015748031497,
                    "duration": 0.34090912499999604
                },
                {
                    "name": "D#4",
                    "midi": 63,
                    "time": 134.54546799999923,
                    "velocity": 0.7874015748031497,
                    "duration": 0.6818182499999921
                },
                {
                    "name": "D4",
                    "midi": 62,
                    "time": 145.9091054999992,
                    "velocity": 0.7874015748031497,
                    "duration": 0.34090912499999604
                },
                {
                    "name": "G4",
                    "midi": 67,
                    "time": 146.3636509999992,
                    "velocity": 0.7874015748031497,
                    "duration": 0.34090912499999604
                },
                {
                    "name": "D4",
                    "midi": 62,
                    "time": 146.8181964999992,
                    "velocity": 0.7874015748031497,
                    "duration": 0.34090912499999604
                },
                {
                    "name": "G4",
                    "midi": 67,
                    "time": 147.2727419999992,
                    "velocity": 0.7874015748031497,
                    "duration": 0.34090912499999604
                },
                {
                    "name": "A#4",
                    "midi": 70,
                    "time": 147.7272874999992,
                    "velocity": 0.7874015748031497,
                    "duration": 0.34090912499999604
                },
                {
                    "name": "G4",
                    "midi": 67,
                    "time": 148.1818329999992,
                    "velocity": 0.7874015748031497,
                    "duration": 0.34090912499999604
                },
                {
                    "name": "A#4",
                    "midi": 70,
                    "time": 148.63637849999918,
                    "velocity": 0.7874015748031497,
                    "duration": 0.34090912499999604
                },
                {
                    "name": "G4",
                    "midi": 67,
                    "time": 149.09092399999918,
                    "velocity": 0.7874015748031497,
                    "duration": 0.34090912499999604
                },
                {
                    "name": "G4",
                    "midi": 67,
                    "time": 149.54546949999917,
                    "velocity": 0.7874015748031497,
                    "duration": 0.34090912499999604
                },
                {
                    "name": "G4",
                    "midi": 67,
                    "time": 150.00001499999917,
                    "velocity": 0.7874015748031497,
                    "duration": 0.34090912499999604
                },
                {
                    "name": "G4",
                    "midi": 67,
                    "time": 150.45456049999916,
                    "velocity": 0.7874015748031497,
                    "duration": 0.34090912499999604
                },
                {
                    "name": "G4",
                    "midi": 67,
                    "time": 150.90910599999916,
                    "velocity": 0.7874015748031497,
                    "duration": 0.34090912499999604
                },
                {
                    "name": "F#4",
                    "midi": 66,
                    "time": 151.36365149999915,
                    "velocity": 0.7874015748031497,
                    "duration": 0.1742424416666779
                },
                {
                    "name": "E4",
                    "midi": 64,
                    "time": 151.59092424999915,
                    "velocity": 0.7874015748031497,
                    "duration": 0.1742424416666779
                },
                {
                    "name": "D4",
                    "midi": 62,
                    "time": 151.81819699999915,
                    "velocity": 0.7874015748031497,
                    "duration": 0.34090912499999604
                },
                {
                    "name": "D4",
                    "midi": 62,
                    "time": 152.27274249999914,
                    "velocity": 0.7874015748031497,
                    "duration": 0.34090912499999604
                },
                {
                    "name": "D4",
                    "midi": 62,
                    "time": 152.72728799999913,
                    "velocity": 0.7874015748031497,
                    "duration": 0.34090912499999604
                },
                {
                    "name": "B3",
                    "midi": 59,
                    "time": 153.18183349999913,
                    "velocity": 0.7874015748031497,
                    "duration": 0.34090912499999604
                },
                {
                    "name": "C4",
                    "midi": 60,
                    "time": 153.63637899999912,
                    "velocity": 0.7874015748031497,
                    "duration": 0.34090912499999604
                },
                {
                    "name": "D4",
                    "midi": 62,
                    "time": 154.09092449999912,
                    "velocity": 0.7874015748031497,
                    "duration": 0.34090912499999604
                },
                {
                    "name": "G3",
                    "midi": 55,
                    "time": 154.5454699999991,
                    "velocity": 0.7874015748031497,
                    "duration": 0.34090912499999604
                },
                {
                    "name": "G3",
                    "midi": 55,
                    "time": 155.0000154999991,
                    "velocity": 0.7874015748031497,
                    "duration": 0.34090912499999604
                },
                {
                    "name": "G3",
                    "midi": 55,
                    "time": 155.4545609999991,
                    "velocity": 0.7874015748031497,
                    "duration": 0.34090912499999604
                },
                {
                    "name": "G3",
                    "midi": 55,
                    "time": 155.9091064999991,
                    "velocity": 0.7874015748031497,
                    "duration": 0.34090912499999604
                },
                {
                    "name": "G3",
                    "midi": 55,
                    "time": 156.3636519999991,
                    "velocity": 0.7874015748031497,
                    "duration": 0.34090912499999604
                },
                {
                    "name": "C4",
                    "midi": 60,
                    "time": 156.8181974999991,
                    "velocity": 0.7874015748031497,
                    "duration": 0.34090912499999604
                },
                {
                    "name": "C4",
                    "midi": 60,
                    "time": 157.27274299999908,
                    "velocity": 0.7874015748031497,
                    "duration": 0.34090912499999604
                },
                {
                    "name": "C4",
                    "midi": 60,
                    "time": 157.72728849999908,
                    "velocity": 0.7874015748031497,
                    "duration": 0.34090912499999604
                },
                {
                    "name": "G#3",
                    "midi": 56,
                    "time": 158.18183399999907,
                    "velocity": 0.7874015748031497,
                    "duration": 0.34090912499999604
                },
                {
                    "name": "C4",
                    "midi": 60,
                    "time": 158.63637949999907,
                    "velocity": 0.7874015748031497,
                    "duration": 0.34090912499999604
                },
                {
                    "name": "F4",
                    "midi": 65,
                    "time": 159.09092499999906,
                    "velocity": 0.7874015748031497,
                    "duration": 0.34090912499999604
                },
                {
                    "name": "F4",
                    "midi": 65,
                    "time": 159.54547049999906,
                    "velocity": 0.7874015748031497,
                    "duration": 0.34090912499999604
                },
                {
                    "name": "F4",
                    "midi": 65,
                    "time": 160.00001599999905,
                    "velocity": 0.7874015748031497,
                    "duration": 0.34090912499999604
                },
                {
                    "name": "D4",
                    "midi": 62,
                    "time": 160.45456149999904,
                    "velocity": 0.7874015748031497,
                    "duration": 0.34090912499999604
                },
                {
                    "name": "D#4",
                    "midi": 63,
                    "time": 160.90910699999904,
                    "velocity": 0.7874015748031497,
                    "duration": 0.34090912499999604
                },
                {
                    "name": "D4",
                    "midi": 62,
                    "time": 161.36365249999903,
                    "velocity": 0.7874015748031497,
                    "duration": 0.34090912499999604
                },
                {
                    "name": "D4",
                    "midi": 62,
                    "time": 161.81819799999903,
                    "velocity": 0.7874015748031497,
                    "duration": 0.6818182499999921
                },
                {
                    "name": "G3",
                    "midi": 55,
                    "time": 164.09092549999903,
                    "velocity": 0.7874015748031497,
                    "duration": 0.34090912499999604
                },
                {
                    "name": "C4",
                    "midi": 60,
                    "time": 164.54547099999903,
                    "velocity": 0.7874015748031497,
                    "duration": 0.34090912499999604
                },
                {
                    "name": "G3",
                    "midi": 55,
                    "time": 165.00001649999902,
                    "velocity": 0.7874015748031497,
                    "duration": 0.34090912499999604
                },
                {
                    "name": "C4",
                    "midi": 60,
                    "time": 165.45456199999902,
                    "velocity": 0.7874015748031497,
                    "duration": 0.34090912499999604
                },
                {
                    "name": "D#4",
                    "midi": 63,
                    "time": 165.909107499999,
                    "velocity": 0.7874015748031497,
                    "duration": 0.34090912499999604
                },
                {
                    "name": "C4",
                    "midi": 60,
                    "time": 166.363652999999,
                    "velocity": 0.7874015748031497,
                    "duration": 0.34090912499999604
                },
                {
                    "name": "D#4",
                    "midi": 63,
                    "time": 166.818198499999,
                    "velocity": 0.7874015748031497,
                    "duration": 0.34090912499999604
                },
                {
                    "name": "C4",
                    "midi": 60,
                    "time": 167.272743999999,
                    "velocity": 0.7874015748031497,
                    "duration": 0.34090912499999604
                },
                {
                    "name": "C4",
                    "midi": 60,
                    "time": 167.727289499999,
                    "velocity": 0.7874015748031497,
                    "duration": 0.34090912499999604
                },
                {
                    "name": "D4",
                    "midi": 62,
                    "time": 168.18183499999898,
                    "velocity": 0.7874015748031497,
                    "duration": 0.34090912499999604
                },
                {
                    "name": "D#4",
                    "midi": 63,
                    "time": 168.63638049999898,
                    "velocity": 0.7874015748031497,
                    "duration": 0.34090912499999604
                },
                {
                    "name": "F4",
                    "midi": 65,
                    "time": 169.09092599999897,
                    "velocity": 0.7874015748031497,
                    "duration": 0.34090912499999604
                },
                {
                    "name": "F4",
                    "midi": 65,
                    "time": 169.54547149999897,
                    "velocity": 0.7874015748031497,
                    "duration": 0.34090912499999604
                },
                {
                    "name": "F4",
                    "midi": 65,
                    "time": 170.00001699999896,
                    "velocity": 0.7874015748031497,
                    "duration": 0.34090912499999604
                },
                {
                    "name": "F4",
                    "midi": 65,
                    "time": 170.45456249999896,
                    "velocity": 0.7874015748031497,
                    "duration": 0.34090912499999604
                },
                {
                    "name": "F4",
                    "midi": 65,
                    "time": 170.90910799999895,
                    "velocity": 0.7874015748031497,
                    "duration": 0.34090912499999604
                },
                {
                    "name": "A#4",
                    "midi": 70,
                    "time": 171.36365349999895,
                    "velocity": 0.7874015748031497,
                    "duration": 0.34090912499999604
                },
                {
                    "name": "A#4",
                    "midi": 70,
                    "time": 171.81819899999894,
                    "velocity": 0.7874015748031497,
                    "duration": 0.34090912499999604
                },
                {
                    "name": "A#4",
                    "midi": 70,
                    "time": 172.27274449999894,
                    "velocity": 0.7874015748031497,
                    "duration": 0.34090912499999604
                },
                {
                    "name": "A#4",
                    "midi": 70,
                    "time": 172.72728999999893,
                    "velocity": 0.7874015748031497,
                    "duration": 0.34090912499999604
                },
                {
                    "name": "G4",
                    "midi": 67,
                    "time": 173.18183549999893,
                    "velocity": 0.7874015748031497,
                    "duration": 0.34090912499999604
                },
                {
                    "name": "A#4",
                    "midi": 70,
                    "time": 173.63638099999892,
                    "velocity": 0.7874015748031497,
                    "duration": 0.34090912499999604
                },
                {
                    "name": "D#4",
                    "midi": 63,
                    "time": 174.09092649999891,
                    "velocity": 0.7874015748031497,
                    "duration": 0.34090912499999604
                },
                {
                    "name": "G4",
                    "midi": 67,
                    "time": 174.5454719999989,
                    "velocity": 0.7874015748031497,
                    "duration": 0.34090912499999604
                },
                {
                    "name": "F4",
                    "midi": 65,
                    "time": 175.0000174999989,
                    "velocity": 0.7874015748031497,
                    "duration": 0.34090912499999604
                },
                {
                    "name": "D#4",
                    "midi": 63,
                    "time": 175.4545629999989,
                    "velocity": 0.7874015748031497,
                    "duration": 0.34090912499999604
                },
                {
                    "name": "D#4",
                    "midi": 63,
                    "time": 175.9091084999989,
                    "velocity": 0.7874015748031497,
                    "duration": 0.34090912499999604
                },
                {
                    "name": "D#4",
                    "midi": 63,
                    "time": 176.3636539999989,
                    "velocity": 0.7874015748031497,
                    "duration": 0.34090912499999604
                },
                {
                    "name": "D#4",
                    "midi": 63,
                    "time": 176.81819949999888,
                    "velocity": 0.7874015748031497,
                    "duration": 0.34090912499999604
                },
                {
                    "name": "G#4",
                    "midi": 68,
                    "time": 177.27274499999888,
                    "velocity": 0.7874015748031497,
                    "duration": 0.34090912499999604
                },
                {
                    "name": "D#4",
                    "midi": 63,
                    "time": 177.72729049999887,
                    "velocity": 0.7874015748031497,
                    "duration": 0.34090912499999604
                },
                {
                    "name": "G#4",
                    "midi": 68,
                    "time": 178.18183599999887,
                    "velocity": 0.7874015748031497,
                    "duration": 0.34090912499999604
                },
                {
                    "name": "C5",
                    "midi": 72,
                    "time": 178.63638149999886,
                    "velocity": 0.7874015748031497,
                    "duration": 0.34090912499999604
                },
                {
                    "name": "G#4",
                    "midi": 68,
                    "time": 179.09092699999886,
                    "velocity": 0.7874015748031497,
                    "duration": 0.34090912499999604
                },
                {
                    "name": "C5",
                    "midi": 72,
                    "time": 179.54547249999885,
                    "velocity": 0.7874015748031497,
                    "duration": 0.34090912499999604
                },
                {
                    "name": "G#4",
                    "midi": 68,
                    "time": 180.00001799999885,
                    "velocity": 0.7874015748031497,
                    "duration": 0.34090912499999604
                },
                {
                    "name": "C5",
                    "midi": 72,
                    "time": 180.45456349999884,
                    "velocity": 0.7874015748031497,
                    "duration": 0.34090912499999604
                },
                {
                    "name": "G#4",
                    "midi": 68,
                    "time": 180.90910899999884,
                    "velocity": 0.7874015748031497,
                    "duration": 0.34090912499999604
                },
                {
                    "name": "G#4",
                    "midi": 68,
                    "time": 181.36365449999883,
                    "velocity": 0.7874015748031497,
                    "duration": 0.34090912499999604
                },
                {
                    "name": "F4",
                    "midi": 65,
                    "time": 181.81819999999882,
                    "velocity": 0.7874015748031497,
                    "duration": 0.34090912499999604
                },
                {
                    "name": "D4",
                    "midi": 62,
                    "time": 182.27274549999882,
                    "velocity": 0.7874015748031497,
                    "duration": 0.34090912499999604
                },
                {
                    "name": "D4",
                    "midi": 62,
                    "time": 182.72729099999881,
                    "velocity": 0.7874015748031497,
                    "duration": 0.34090912499999604
                },
                {
                    "name": "D4",
                    "midi": 62,
                    "time": 183.1818364999988,
                    "velocity": 0.7874015748031497,
                    "duration": 0.34090912499999604
                },
                {
                    "name": "D#4",
                    "midi": 63,
                    "time": 183.6363819999988,
                    "velocity": 0.7874015748031497,
                    "duration": 0.34090912499999604
                },
                {
                    "name": "C4",
                    "midi": 60,
                    "time": 184.0909274999988,
                    "velocity": 0.7874015748031497,
                    "duration": 0.34090912499999604
                },
                {
                    "name": "D#4",
                    "midi": 63,
                    "time": 184.5454729999988,
                    "velocity": 0.7874015748031497,
                    "duration": 0.34090912499999604
                },
                {
                    "name": "C4",
                    "midi": 60,
                    "time": 185.0000184999988,
                    "velocity": 0.7874015748031497,
                    "duration": 0.34090912499999604
                },
                {
                    "name": "D4",
                    "midi": 62,
                    "time": 185.45456399999878,
                    "velocity": 0.7874015748031497,
                    "duration": 0.34090912499999604
                },
                {
                    "name": "A#3",
                    "midi": 58,
                    "time": 185.90910949999878,
                    "velocity": 0.7874015748031497,
                    "duration": 0.34090912499999604
                },
                {
                    "name": "D4",
                    "midi": 62,
                    "time": 186.36365499999877,
                    "velocity": 0.7874015748031497,
                    "duration": 0.34090912499999604
                },
                {
                    "name": "A#3",
                    "midi": 58,
                    "time": 186.81820049999877,
                    "velocity": 0.7874015748031497,
                    "duration": 0.34090912499999604
                },
                {
                    "name": "C4",
                    "midi": 60,
                    "time": 187.27274599999876,
                    "velocity": 0.7874015748031497,
                    "duration": 0.34090912499999604
                },
                {
                    "name": "G#3",
                    "midi": 56,
                    "time": 187.72729149999876,
                    "velocity": 0.7874015748031497,
                    "duration": 0.34090912499999604
                },
                {
                    "name": "C4",
                    "midi": 60,
                    "time": 188.18183699999875,
                    "velocity": 0.7874015748031497,
                    "duration": 0.34090912499999604
                },
                {
                    "name": "G#3",
                    "midi": 56,
                    "time": 188.63638249999875,
                    "velocity": 0.7874015748031497,
                    "duration": 0.34090912499999604
                },
                {
                    "name": "A#3",
                    "midi": 58,
                    "time": 189.09092799999874,
                    "velocity": 0.7874015748031497,
                    "duration": 0.34090912499999604
                },
                {
                    "name": "G3",
                    "midi": 55,
                    "time": 189.54547349999874,
                    "velocity": 0.7874015748031497,
                    "duration": 0.34090912499999604
                },
                {
                    "name": "G3",
                    "midi": 55,
                    "time": 190.00001899999873,
                    "velocity": 0.7874015748031497,
                    "duration": 0.34090912499999604
                },
                {
                    "name": "G3",
                    "midi": 55,
                    "time": 190.45456449999872,
                    "velocity": 0.7874015748031497,
                    "duration": 0.34090912499999604
                },
                {
                    "name": "D4",
                    "midi": 62,
                    "time": 190.90910999999872,
                    "velocity": 0.7874015748031497,
                    "duration": 0.34090912499999604
                },
                {
                    "name": "D4",
                    "midi": 62,
                    "time": 191.3636554999987,
                    "velocity": 0.7874015748031497,
                    "duration": 0.34090912499999604
                },
                {
                    "name": "D4",
                    "midi": 62,
                    "time": 191.8182009999987,
                    "velocity": 0.7874015748031497,
                    "duration": 0.34090912499999604
                },
                {
                    "name": "B3",
                    "midi": 59,
                    "time": 192.2727464999987,
                    "velocity": 0.7874015748031497,
                    "duration": 0.34090912499999604
                },
                {
                    "name": "C4",
                    "midi": 60,
                    "time": 192.7272919999987,
                    "velocity": 0.7874015748031497,
                    "duration": 0.34090912499999604
                },
                {
                    "name": "D#4",
                    "midi": 63,
                    "time": 193.1818374999987,
                    "velocity": 0.7874015748031497,
                    "duration": 0.34090912499999604
                },
                {
                    "name": "D#4",
                    "midi": 63,
                    "time": 193.6363829999987,
                    "velocity": 0.7874015748031497,
                    "duration": 0.34090912499999604
                },
                {
                    "name": "D#4",
                    "midi": 63,
                    "time": 194.09092849999868,
                    "velocity": 0.7874015748031497,
                    "duration": 0.34090912499999604
                },
                {
                    "name": "D#4",
                    "midi": 63,
                    "time": 194.54547399999868,
                    "velocity": 0.7874015748031497,
                    "duration": 0.34090912499999604
                },
                {
                    "name": "D4",
                    "midi": 62,
                    "time": 195.00001949999867,
                    "velocity": 0.7874015748031497,
                    "duration": 0.34090912499999604
                },
                {
                    "name": "D4",
                    "midi": 62,
                    "time": 195.45456499999867,
                    "velocity": 0.7874015748031497,
                    "duration": 0.34090912499999604
                },
                {
                    "name": "D4",
                    "midi": 62,
                    "time": 195.90911049999866,
                    "velocity": 0.7874015748031497,
                    "duration": 0.34090912499999604
                },
                {
                    "name": "D4",
                    "midi": 62,
                    "time": 196.36365599999866,
                    "velocity": 0.7874015748031497,
                    "duration": 0.34090912499999604
                },
                {
                    "name": "C4",
                    "midi": 60,
                    "time": 196.81820149999865,
                    "velocity": 0.7874015748031497,
                    "duration": 0.34090912499999604
                },
                {
                    "name": "C4",
                    "midi": 60,
                    "time": 197.27274699999865,
                    "velocity": 0.7874015748031497,
                    "duration": 0.34090912499999604
                },
                {
                    "name": "C4",
                    "midi": 60,
                    "time": 197.72729249999864,
                    "velocity": 0.7874015748031497,
                    "duration": 0.34090912499999604
                },
                {
                    "name": "C4",
                    "midi": 60,
                    "time": 198.18183799999863,
                    "velocity": 0.7874015748031497,
                    "duration": 0.34090912499999604
                },
                {
                    "name": "A3",
                    "midi": 57,
                    "time": 198.63638349999863,
                    "velocity": 0.7874015748031497,
                    "duration": 0.34090912499999604
                },
                {
                    "name": "D4",
                    "midi": 62,
                    "time": 199.09092899999862,
                    "velocity": 0.7874015748031497,
                    "duration": 0.34090912499999604
                },
                {
                    "name": "A3",
                    "midi": 57,
                    "time": 199.54547449999862,
                    "velocity": 0.7874015748031497,
                    "duration": 0.34090912499999604
                },
                {
                    "name": "A#3",
                    "midi": 58,
                    "time": 200.0000199999986,
                    "velocity": 0.7874015748031497,
                    "duration": 0.34090912499999604
                },
                {
                    "name": "G3",
                    "midi": 55,
                    "time": 200.4545654999986,
                    "velocity": 0.7874015748031497,
                    "duration": 0.34090912499999604
                },
                {
                    "name": "C4",
                    "midi": 60,
                    "time": 200.9091109999986,
                    "velocity": 0.7874015748031497,
                    "duration": 0.34090912499999604
                },
                {
                    "name": "G3",
                    "midi": 55,
                    "time": 201.3636564999986,
                    "velocity": 0.7874015748031497,
                    "duration": 0.34090912499999604
                },
                {
                    "name": "A3",
                    "midi": 57,
                    "time": 201.8182019999986,
                    "velocity": 0.7874015748031497,
                    "duration": 0.34090912499999604
                },
                {
                    "name": "F#3",
                    "midi": 54,
                    "time": 202.2727474999986,
                    "velocity": 0.7874015748031497,
                    "duration": 0.34090912499999604
                },
                {
                    "name": "A#3",
                    "midi": 58,
                    "time": 202.72729299999858,
                    "velocity": 0.7874015748031497,
                    "duration": 0.34090912499999604
                },
                {
                    "name": "A#3",
                    "midi": 58,
                    "time": 203.18183849999858,
                    "velocity": 0.7874015748031497,
                    "duration": 0.34090912499999604
                },
                {
                    "name": "A#3",
                    "midi": 58,
                    "time": 203.63638399999857,
                    "velocity": 0.7874015748031497,
                    "duration": 0.34090912499999604
                },
                {
                    "name": "A#3",
                    "midi": 58,
                    "time": 204.09092949999857,
                    "velocity": 0.7874015748031497,
                    "duration": 0.34090912499999604
                },
                {
                    "name": "A#3",
                    "midi": 58,
                    "time": 204.54547499999856,
                    "velocity": 0.7874015748031497,
                    "duration": 0.34090912499999604
                },
                {
                    "name": "G3",
                    "midi": 55,
                    "time": 205.00002049999856,
                    "velocity": 0.7874015748031497,
                    "duration": 0.34090912499999604
                },
                {
                    "name": "A3",
                    "midi": 57,
                    "time": 205.45456599999855,
                    "velocity": 0.7874015748031497,
                    "duration": 0.34090912499999604
                },
                {
                    "name": "A3",
                    "midi": 57,
                    "time": 205.90911149999855,
                    "velocity": 0.7874015748031497,
                    "duration": 0.34090912499999604
                },
                {
                    "name": "D4",
                    "midi": 62,
                    "time": 206.36365699999854,
                    "velocity": 0.7874015748031497,
                    "duration": 0.34090912499999604
                },
                {
                    "name": "D4",
                    "midi": 62,
                    "time": 206.81820249999853,
                    "velocity": 0.7874015748031497,
                    "duration": 0.34090912499999604
                },
                {
                    "name": "D4",
                    "midi": 62,
                    "time": 207.27274799999853,
                    "velocity": 0.7874015748031497,
                    "duration": 0.34090912499999604
                },
                {
                    "name": "A#3",
                    "midi": 58,
                    "time": 207.72729349999852,
                    "velocity": 0.7874015748031497,
                    "duration": 0.34090912499999604
                },
                {
                    "name": "D#4",
                    "midi": 63,
                    "time": 208.18183899999852,
                    "velocity": 0.7874015748031497,
                    "duration": 0.34090912499999604
                },
                {
                    "name": "D#4",
                    "midi": 63,
                    "time": 208.6363844999985,
                    "velocity": 0.7874015748031497,
                    "duration": 0.34090912499999604
                },
                {
                    "name": "D#4",
                    "midi": 63,
                    "time": 209.0909299999985,
                    "velocity": 0.7874015748031497,
                    "duration": 0.34090912499999604
                },
                {
                    "name": "C4",
                    "midi": 60,
                    "time": 209.5454754999985,
                    "velocity": 0.7874015748031497,
                    "duration": 0.34090912499999604
                },
                {
                    "name": "F4",
                    "midi": 65,
                    "time": 210.0000209999985,
                    "velocity": 0.7874015748031497,
                    "duration": 0.34090912499999604
                },
                {
                    "name": "F4",
                    "midi": 65,
                    "time": 210.4545664999985,
                    "velocity": 0.7874015748031497,
                    "duration": 0.34090912499999604
                },
                {
                    "name": "F4",
                    "midi": 65,
                    "time": 210.9091119999985,
                    "velocity": 0.7874015748031497,
                    "duration": 0.34090912499999604
                },
                {
                    "name": "D4",
                    "midi": 62,
                    "time": 211.36365749999848,
                    "velocity": 0.7874015748031497,
                    "duration": 0.34090912499999604
                },
                {
                    "name": "G4",
                    "midi": 67,
                    "time": 211.81820299999848,
                    "velocity": 0.7874015748031497,
                    "duration": 0.34090912499999604
                },
                {
                    "name": "G4",
                    "midi": 67,
                    "time": 212.27274849999847,
                    "velocity": 0.7874015748031497,
                    "duration": 0.34090912499999604
                },
                {
                    "name": "G4",
                    "midi": 67,
                    "time": 212.72729399999847,
                    "velocity": 0.7874015748031497,
                    "duration": 0.34090912499999604
                },
                {
                    "name": "D#4",
                    "midi": 63,
                    "time": 213.18183949999846,
                    "velocity": 0.7874015748031497,
                    "duration": 0.34090912499999604
                },
                {
                    "name": "G#4",
                    "midi": 68,
                    "time": 213.63638499999846,
                    "velocity": 0.7874015748031497,
                    "duration": 0.34090912499999604
                },
                {
                    "name": "G#4",
                    "midi": 68,
                    "time": 214.09093049999845,
                    "velocity": 0.7874015748031497,
                    "duration": 0.34090912499999604
                },
                {
                    "name": "G#4",
                    "midi": 68,
                    "time": 214.54547599999844,
                    "velocity": 0.7874015748031497,
                    "duration": 0.34090912499999604
                },
                {
                    "name": "F4",
                    "midi": 65,
                    "time": 215.00002149999844,
                    "velocity": 0.7874015748031497,
                    "duration": 0.34090912499999604
                },
                {
                    "name": "A#4",
                    "midi": 70,
                    "time": 215.45456699999843,
                    "velocity": 0.7874015748031497,
                    "duration": 0.34090912499999604
                },
                {
                    "name": "A#4",
                    "midi": 70,
                    "time": 215.90911249999843,
                    "velocity": 0.7874015748031497,
                    "duration": 0.34090912499999604
                },
                {
                    "name": "A#4",
                    "midi": 70,
                    "time": 216.36365799999842,
                    "velocity": 0.7874015748031497,
                    "duration": 0.34090912499999604
                },
                {
                    "name": "A#4",
                    "midi": 70,
                    "time": 216.81820349999842,
                    "velocity": 0.7874015748031497,
                    "duration": 0.34090912499999604
                },
                {
                    "name": "G#4",
                    "midi": 68,
                    "time": 217.2727489999984,
                    "velocity": 0.7874015748031497,
                    "duration": 0.34090912499999604
                },
                {
                    "name": "G4",
                    "midi": 67,
                    "time": 217.7272944999984,
                    "velocity": 0.7874015748031497,
                    "duration": 0.34090912499999604
                },
                {
                    "name": "F4",
                    "midi": 65,
                    "time": 218.1818399999984,
                    "velocity": 0.7874015748031497,
                    "duration": 0.34090912499999604
                },
                {
                    "name": "G4",
                    "midi": 67,
                    "time": 218.6363854999984,
                    "velocity": 0.7874015748031497,
                    "duration": 0.34090912499999604
                },
                {
                    "name": "G#4",
                    "midi": 68,
                    "time": 219.0909309999984,
                    "velocity": 0.7874015748031497,
                    "duration": 0.34090912499999604
                },
                {
                    "name": "G4",
                    "midi": 67,
                    "time": 219.5454764999984,
                    "velocity": 0.7874015748031497,
                    "duration": 0.34090912499999604
                },
                {
                    "name": "G4",
                    "midi": 67,
                    "time": 220.00002199999838,
                    "velocity": 0.7874015748031497,
                    "duration": 0.34090912499999604
                },
                {
                    "name": "A4",
                    "midi": 69,
                    "time": 220.45456749999838,
                    "velocity": 0.7874015748031497,
                    "duration": 0.34090912499999604
                },
                {
                    "name": "B4",
                    "midi": 71,
                    "time": 220.90911299999837,
                    "velocity": 0.7874015748031497,
                    "duration": 0.34090912499999604
                },
                {
                    "name": "B3",
                    "midi": 59,
                    "time": 221.36365849999837,
                    "velocity": 0.7874015748031497,
                    "duration": 0.34090912499999604
                },
                {
                    "name": "C4",
                    "midi": 60,
                    "time": 221.81820399999836,
                    "velocity": 0.7874015748031497,
                    "duration": 0.34090912499999604
                },
                {
                    "name": "D4",
                    "midi": 62,
                    "time": 222.27274949999835,
                    "velocity": 0.7874015748031497,
                    "duration": 0.34090912499999604
                },
                {
                    "name": "D#4",
                    "midi": 63,
                    "time": 222.72729499999835,
                    "velocity": 0.7874015748031497,
                    "duration": 0.34090912499999604
                },
                {
                    "name": "F4",
                    "midi": 65,
                    "time": 223.18184049999834,
                    "velocity": 0.7874015748031497,
                    "duration": 0.34090912499999604
                },
                {
                    "name": "G4",
                    "midi": 67,
                    "time": 223.63638599999834,
                    "velocity": 0.7874015748031497,
                    "duration": 1.0227273749999881
                },
                {
                    "name": "G4",
                    "midi": 67,
                    "time": 225.00002249999832,
                    "velocity": 0.7874015748031497,
                    "duration": 0.34090912499999604
                },
                {
                    "name": "G4",
                    "midi": 67,
                    "time": 225.45456799999832,
                    "velocity": 0.7874015748031497,
                    "duration": 3.636363999999986
                }
            ],
            "controlChanges": {
                "7": [
                    {
                        "number": 7,
                        "time": 0,
                        "value": 0.5511811023622047
                    }
                ],
                "10": [
                    {
                        "number": 10,
                        "time": 0,
                        "value": 0.47244094488188976
                    }
                ]
            },
            "id": 10,
            "name": "Viola",
            "instrumentNumber": 41,
            "instrument": "viola",
            "instrumentFamily": "strings",
            "channelNumber": 12,
            "isPercussion": false
        },
        {
            "startTime": 0,
            "duration": 229.09093199999833,
            "length": 355,
            "notes": [
                {
                    "name": "C4",
                    "midi": 60,
                    "time": 0,
                    "velocity": 0.7874015748031497,
                    "duration": 3.636364
                },
                {
                    "name": "C4",
                    "midi": 60,
                    "time": 3.636364,
                    "velocity": 0.7874015748031497,
                    "duration": 3.636364
                },
                {
                    "name": "C4",
                    "midi": 60,
                    "time": 7.272728,
                    "velocity": 0.7874015748031497,
                    "duration": 3.6363639999999995
                },
                {
                    "name": "C4",
                    "midi": 60,
                    "time": 10.909092,
                    "velocity": 0.7874015748031497,
                    "duration": 0.9090910000000001
                },
                {
                    "name": "B3",
                    "midi": 59,
                    "time": 11.818183,
                    "velocity": 0.7874015748031497,
                    "duration": 0.9090910000000001
                },
                {
                    "name": "C4",
                    "midi": 60,
                    "time": 12.727274,
                    "velocity": 0.7874015748031497,
                    "duration": 1.3636365000000001
                },
                {
                    "name": "A#3",
                    "midi": 58,
                    "time": 14.0909105,
                    "velocity": 0.7874015748031497,
                    "duration": 0.45454550000000005
                },
                {
                    "name": "G#3",
                    "midi": 56,
                    "time": 14.545456,
                    "velocity": 0.7874015748031497,
                    "duration": 1.8181819999999984
                },
                {
                    "name": "A3",
                    "midi": 57,
                    "time": 16.363637999999998,
                    "velocity": 0.7874015748031497,
                    "duration": 1.8181820000000002
                },
                {
                    "name": "A#3",
                    "midi": 58,
                    "time": 18.18182,
                    "velocity": 0.7874015748031497,
                    "duration": 0.9090910000000001
                },
                {
                    "name": "F#3",
                    "midi": 54,
                    "time": 20.000002,
                    "velocity": 0.7874015748031497,
                    "duration": 1.8181820000000002
                },
                {
                    "name": "G3",
                    "midi": 55,
                    "time": 21.818184,
                    "velocity": 0.7874015748031497,
                    "duration": 1.8181820000000002
                },
                {
                    "name": "E3",
                    "midi": 52,
                    "time": 23.636366,
                    "velocity": 0.7874015748031497,
                    "duration": 1.8181820000000002
                },
                {
                    "name": "F3",
                    "midi": 53,
                    "time": 25.454548,
                    "velocity": 0.7874015748031497,
                    "duration": 1.8181820000000002
                },
                {
                    "name": "D#3",
                    "midi": 51,
                    "time": 27.27273,
                    "velocity": 0.7874015748031497,
                    "duration": 1.8181820000000002
                },
                {
                    "name": "D3",
                    "midi": 50,
                    "time": 29.090912,
                    "velocity": 0.7874015748031497,
                    "duration": 2.7272730000000003
                },
                {
                    "name": "C3",
                    "midi": 48,
                    "time": 31.818185,
                    "velocity": 0.7874015748031497,
                    "duration": 0.9090909999999965
                },
                {
                    "name": "B2",
                    "midi": 47,
                    "time": 32.727275999999996,
                    "velocity": 0.7874015748031497,
                    "duration": 2.7272729999999967
                },
                {
                    "name": "C3",
                    "midi": 48,
                    "time": 35.45454899999999,
                    "velocity": 0.7874015748031497,
                    "duration": 0.6818182499999992
                },
                {
                    "name": "A#2",
                    "midi": 46,
                    "time": 36.13636724999999,
                    "velocity": 0.7874015748031497,
                    "duration": 0.22727274999999736
                },
                {
                    "name": "G#2",
                    "midi": 44,
                    "time": 36.36363999999999,
                    "velocity": 0.7874015748031497,
                    "duration": 0.9090909999999965
                },
                {
                    "name": "G2",
                    "midi": 43,
                    "time": 37.272730999999986,
                    "velocity": 0.7874015748031497,
                    "duration": 0.9090909999999965
                },
                {
                    "name": "F#2",
                    "midi": 42,
                    "time": 38.18182199999998,
                    "velocity": 0.7874015748031497,
                    "duration": 0.9090909999999965
                },
                {
                    "name": "F2",
                    "midi": 41,
                    "time": 39.09091299999998,
                    "velocity": 0.7874015748031497,
                    "duration": 1.8181820000000002
                },
                {
                    "name": "D#2",
                    "midi": 39,
                    "time": 40.90909499999998,
                    "velocity": 0.7874015748031497,
                    "duration": 0.9090909999999965
                },
                {
                    "name": "G2",
                    "midi": 43,
                    "time": 41.818185999999976,
                    "velocity": 0.7874015748031497,
                    "duration": 1.8181820000000002
                },
                {
                    "name": "C3",
                    "midi": 48,
                    "time": 43.636367999999976,
                    "velocity": 0.7874015748031497,
                    "duration": 0.9090909999999965
                },
                {
                    "name": "D3",
                    "midi": 50,
                    "time": 56.81818749999997,
                    "velocity": 0.7874015748031497,
                    "duration": 0.4545455000000018
                },
                {
                    "name": "G3",
                    "midi": 55,
                    "time": 57.272732999999974,
                    "velocity": 0.7874015748031497,
                    "duration": 0.4545455000000018
                },
                {
                    "name": "D3",
                    "midi": 50,
                    "time": 57.727278499999976,
                    "velocity": 0.7874015748031497,
                    "duration": 0.4545455000000018
                },
                {
                    "name": "G3",
                    "midi": 55,
                    "time": 58.18182399999998,
                    "velocity": 0.7874015748031497,
                    "duration": 0.4545455000000018
                },
                {
                    "name": "A#3",
                    "midi": 58,
                    "time": 58.63636949999998,
                    "velocity": 0.7874015748031497,
                    "duration": 0.4545455000000018
                },
                {
                    "name": "G3",
                    "midi": 55,
                    "time": 59.09091499999998,
                    "velocity": 0.7874015748031497,
                    "duration": 0.4545455000000018
                },
                {
                    "name": "A#3",
                    "midi": 58,
                    "time": 59.54546049999998,
                    "velocity": 0.7874015748031497,
                    "duration": 0.4545455000000018
                },
                {
                    "name": "G3",
                    "midi": 55,
                    "time": 60.000005999999985,
                    "velocity": 0.7874015748031497,
                    "duration": 0.4545455000000018
                },
                {
                    "name": "D3",
                    "midi": 50,
                    "time": 60.45455149999999,
                    "velocity": 0.7874015748031497,
                    "duration": 0.4545455000000018
                },
                {
                    "name": "G3",
                    "midi": 55,
                    "time": 60.90909699999999,
                    "velocity": 0.7874015748031497,
                    "duration": 0.4545455000000018
                },
                {
                    "name": "D3",
                    "midi": 50,
                    "time": 61.36364249999999,
                    "velocity": 0.7874015748031497,
                    "duration": 0.4545455000000018
                },
                {
                    "name": "G3",
                    "midi": 55,
                    "time": 61.81818799999999,
                    "velocity": 0.7874015748031497,
                    "duration": 0.4545455000000018
                },
                {
                    "name": "G2",
                    "midi": 43,
                    "time": 62.272733499999994,
                    "velocity": 0.7874015748031497,
                    "duration": 0.4545455000000018
                },
                {
                    "name": "C3",
                    "midi": 48,
                    "time": 62.727278999999996,
                    "velocity": 0.7874015748031497,
                    "duration": 0.4545455000000018
                },
                {
                    "name": "G2",
                    "midi": 43,
                    "time": 63.1818245,
                    "velocity": 0.7874015748031497,
                    "duration": 0.4545455000000018
                },
                {
                    "name": "C3",
                    "midi": 48,
                    "time": 63.63637,
                    "velocity": 0.7874015748031497,
                    "duration": 0.4545454999999947
                },
                {
                    "name": "D#3",
                    "midi": 51,
                    "time": 64.0909155,
                    "velocity": 0.7874015748031497,
                    "duration": 0.4545454999999947
                },
                {
                    "name": "C3",
                    "midi": 48,
                    "time": 64.54546099999999,
                    "velocity": 0.7874015748031497,
                    "duration": 0.4545454999999947
                },
                {
                    "name": "D#3",
                    "midi": 51,
                    "time": 65.00000649999998,
                    "velocity": 0.7874015748031497,
                    "duration": 0.4545454999999947
                },
                {
                    "name": "C3",
                    "midi": 48,
                    "time": 65.45455199999998,
                    "velocity": 0.7874015748031497,
                    "duration": 0.4545454999999947
                },
                {
                    "name": "C3",
                    "midi": 48,
                    "time": 65.90909749999997,
                    "velocity": 0.7874015748031497,
                    "duration": 0.4545454999999947
                },
                {
                    "name": "F3",
                    "midi": 53,
                    "time": 66.36364299999997,
                    "velocity": 0.7874015748031497,
                    "duration": 0.4545454999999947
                },
                {
                    "name": "C3",
                    "midi": 48,
                    "time": 66.81818849999996,
                    "velocity": 0.7874015748031497,
                    "duration": 0.4545454999999947
                },
                {
                    "name": "F3",
                    "midi": 53,
                    "time": 67.27273399999996,
                    "velocity": 0.7874015748031497,
                    "duration": 0.4545454999999947
                },
                {
                    "name": "G#3",
                    "midi": 56,
                    "time": 67.72727949999995,
                    "velocity": 0.7874015748031497,
                    "duration": 0.4545454999999947
                },
                {
                    "name": "F3",
                    "midi": 53,
                    "time": 68.18182499999995,
                    "velocity": 0.7874015748031497,
                    "duration": 0.4545454999999947
                },
                {
                    "name": "G#3",
                    "midi": 56,
                    "time": 68.63637049999994,
                    "velocity": 0.7874015748031497,
                    "duration": 0.4545454999999947
                },
                {
                    "name": "G3",
                    "midi": 55,
                    "time": 69.09091599999994,
                    "velocity": 0.7874015748031497,
                    "duration": 0.4545454999999947
                },
                {
                    "name": "G2",
                    "midi": 43,
                    "time": 69.54546149999993,
                    "velocity": 0.7874015748031497,
                    "duration": 0.4545454999999947
                },
                {
                    "name": "G3",
                    "midi": 55,
                    "time": 70.00000699999993,
                    "velocity": 0.7874015748031497,
                    "duration": 0.4545454999999947
                },
                {
                    "name": "G2",
                    "midi": 43,
                    "time": 70.45455249999992,
                    "velocity": 0.7874015748031497,
                    "duration": 0.4545454999999947
                },
                {
                    "name": "G3",
                    "midi": 55,
                    "time": 70.90909799999991,
                    "velocity": 0.7874015748031497,
                    "duration": 0.4545454999999947
                },
                {
                    "name": "G2",
                    "midi": 43,
                    "time": 71.36364349999991,
                    "velocity": 0.7874015748031497,
                    "duration": 0.4545454999999947
                },
                {
                    "name": "G3",
                    "midi": 55,
                    "time": 71.8181889999999,
                    "velocity": 0.7874015748031497,
                    "duration": 0.4545454999999947
                },
                {
                    "name": "G2",
                    "midi": 43,
                    "time": 72.2727344999999,
                    "velocity": 0.7874015748031497,
                    "duration": 0.4545454999999947
                },
                {
                    "name": "C3",
                    "midi": 48,
                    "time": 72.7272799999999,
                    "velocity": 0.7874015748031497,
                    "duration": 0.9090910000000036
                },
                {
                    "name": "F3",
                    "midi": 53,
                    "time": 76.8181894999999,
                    "velocity": 0.7874015748031497,
                    "duration": 0.4545454999999947
                },
                {
                    "name": "A#3",
                    "midi": 58,
                    "time": 77.2727349999999,
                    "velocity": 0.7874015748031497,
                    "duration": 0.4545454999999947
                },
                {
                    "name": "F3",
                    "midi": 53,
                    "time": 77.72728049999989,
                    "velocity": 0.7874015748031497,
                    "duration": 0.4545454999999947
                },
                {
                    "name": "A#3",
                    "midi": 58,
                    "time": 78.18182599999989,
                    "velocity": 0.7874015748031497,
                    "duration": 0.4545454999999947
                },
                {
                    "name": "D4",
                    "midi": 62,
                    "time": 78.63637149999988,
                    "velocity": 0.7874015748031497,
                    "duration": 0.4545454999999947
                },
                {
                    "name": "A#3",
                    "midi": 58,
                    "time": 79.09091699999988,
                    "velocity": 0.7874015748031497,
                    "duration": 0.4545454999999947
                },
                {
                    "name": "D4",
                    "midi": 62,
                    "time": 79.54546249999987,
                    "velocity": 0.7874015748031497,
                    "duration": 0.4545454999999947
                },
                {
                    "name": "A#3",
                    "midi": 58,
                    "time": 80.00000799999987,
                    "velocity": 0.7874015748031497,
                    "duration": 0.4545454999999947
                },
                {
                    "name": "A#2",
                    "midi": 46,
                    "time": 80.45455349999986,
                    "velocity": 0.7874015748031497,
                    "duration": 0.4545454999999947
                },
                {
                    "name": "D#3",
                    "midi": 51,
                    "time": 80.90909899999986,
                    "velocity": 0.7874015748031497,
                    "duration": 0.4545454999999947
                },
                {
                    "name": "A#2",
                    "midi": 46,
                    "time": 81.36364449999985,
                    "velocity": 0.7874015748031497,
                    "duration": 0.4545454999999947
                },
                {
                    "name": "D#3",
                    "midi": 51,
                    "time": 81.81818999999984,
                    "velocity": 0.7874015748031497,
                    "duration": 0.4545454999999947
                },
                {
                    "name": "G3",
                    "midi": 55,
                    "time": 82.27273549999984,
                    "velocity": 0.7874015748031497,
                    "duration": 0.4545454999999947
                },
                {
                    "name": "D#3",
                    "midi": 51,
                    "time": 82.72728099999983,
                    "velocity": 0.7874015748031497,
                    "duration": 0.4545454999999947
                },
                {
                    "name": "G3",
                    "midi": 55,
                    "time": 83.18182649999983,
                    "velocity": 0.7874015748031497,
                    "duration": 0.4545454999999947
                },
                {
                    "name": "D#3",
                    "midi": 51,
                    "time": 83.63637199999982,
                    "velocity": 0.7874015748031497,
                    "duration": 0.4545454999999947
                },
                {
                    "name": "F3",
                    "midi": 53,
                    "time": 84.09091749999982,
                    "velocity": 0.7874015748031497,
                    "duration": 0.4545454999999947
                },
                {
                    "name": "G3",
                    "midi": 55,
                    "time": 84.54546299999981,
                    "velocity": 0.7874015748031497,
                    "duration": 0.4545454999999947
                },
                {
                    "name": "D#3",
                    "midi": 51,
                    "time": 85.00000849999981,
                    "velocity": 0.7874015748031497,
                    "duration": 0.4545454999999947
                },
                {
                    "name": "G#3",
                    "midi": 56,
                    "time": 85.4545539999998,
                    "velocity": 0.7874015748031497,
                    "duration": 0.4545454999999947
                },
                {
                    "name": "G#3",
                    "midi": 56,
                    "time": 85.9090994999998,
                    "velocity": 0.7874015748031497,
                    "duration": 0.4545454999999947
                },
                {
                    "name": "F3",
                    "midi": 53,
                    "time": 86.36364499999979,
                    "velocity": 0.7874015748031497,
                    "duration": 0.4545454999999947
                },
                {
                    "name": "G#3",
                    "midi": 56,
                    "time": 86.81819049999979,
                    "velocity": 0.7874015748031497,
                    "duration": 0.4545454999999947
                },
                {
                    "name": "F3",
                    "midi": 53,
                    "time": 87.27273599999978,
                    "velocity": 0.7874015748031497,
                    "duration": 0.4545454999999947
                },
                {
                    "name": "F2",
                    "midi": 41,
                    "time": 87.72728149999978,
                    "velocity": 0.7874015748031497,
                    "duration": 0.4545454999999947
                },
                {
                    "name": "F3",
                    "midi": 53,
                    "time": 88.18182699999977,
                    "velocity": 0.7874015748031497,
                    "duration": 0.4545454999999947
                },
                {
                    "name": "F2",
                    "midi": 41,
                    "time": 88.63637249999977,
                    "velocity": 0.7874015748031497,
                    "duration": 0.4545454999999947
                },
                {
                    "name": "F3",
                    "midi": 53,
                    "time": 89.09091799999976,
                    "velocity": 0.7874015748031497,
                    "duration": 0.4545454999999947
                },
                {
                    "name": "F2",
                    "midi": 41,
                    "time": 89.54546349999976,
                    "velocity": 0.7874015748031497,
                    "duration": 0.4545454999999947
                },
                {
                    "name": "F3",
                    "midi": 53,
                    "time": 90.00000899999975,
                    "velocity": 0.7874015748031497,
                    "duration": 0.4545454999999947
                },
                {
                    "name": "F2",
                    "midi": 41,
                    "time": 90.45455449999974,
                    "velocity": 0.7874015748031497,
                    "duration": 0.4545454999999947
                },
                {
                    "name": "A#2",
                    "midi": 46,
                    "time": 90.90909999999974,
                    "velocity": 0.7874015748031497,
                    "duration": 0.4545454999999947
                },
                {
                    "name": "A#3",
                    "midi": 58,
                    "time": 91.36364549999973,
                    "velocity": 0.7874015748031497,
                    "duration": 0.4545454999999947
                },
                {
                    "name": "A#2",
                    "midi": 46,
                    "time": 91.81819099999973,
                    "velocity": 0.7874015748031497,
                    "duration": 0.4545454999999947
                },
                {
                    "name": "A#3",
                    "midi": 58,
                    "time": 92.27273649999972,
                    "velocity": 0.7874015748031497,
                    "duration": 0.4545454999999947
                },
                {
                    "name": "G#2",
                    "midi": 44,
                    "time": 92.72728199999972,
                    "velocity": 0.7874015748031497,
                    "duration": 0.4545454999999947
                },
                {
                    "name": "G#3",
                    "midi": 56,
                    "time": 93.18182749999971,
                    "velocity": 0.7874015748031497,
                    "duration": 0.4545454999999947
                },
                {
                    "name": "G#2",
                    "midi": 44,
                    "time": 93.63637299999971,
                    "velocity": 0.7874015748031497,
                    "duration": 0.4545454999999947
                },
                {
                    "name": "G#3",
                    "midi": 56,
                    "time": 94.0909184999997,
                    "velocity": 0.7874015748031497,
                    "duration": 0.4545454999999947
                },
                {
                    "name": "G2",
                    "midi": 43,
                    "time": 94.5454639999997,
                    "velocity": 0.7874015748031497,
                    "duration": 0.4545454999999947
                },
                {
                    "name": "G3",
                    "midi": 55,
                    "time": 95.00000949999969,
                    "velocity": 0.7874015748031497,
                    "duration": 0.4545454999999947
                },
                {
                    "name": "G2",
                    "midi": 43,
                    "time": 95.45455499999969,
                    "velocity": 0.7874015748031497,
                    "duration": 0.4545454999999947
                },
                {
                    "name": "G3",
                    "midi": 55,
                    "time": 95.90910049999968,
                    "velocity": 0.7874015748031497,
                    "duration": 0.4545454999999947
                },
                {
                    "name": "F2",
                    "midi": 41,
                    "time": 96.36364599999968,
                    "velocity": 0.7874015748031497,
                    "duration": 0.4545454999999947
                },
                {
                    "name": "F3",
                    "midi": 53,
                    "time": 96.81819149999967,
                    "velocity": 0.7874015748031497,
                    "duration": 0.4545454999999947
                },
                {
                    "name": "F2",
                    "midi": 41,
                    "time": 97.27273699999967,
                    "velocity": 0.7874015748031497,
                    "duration": 0.4545454999999947
                },
                {
                    "name": "F3",
                    "midi": 53,
                    "time": 97.72728249999966,
                    "velocity": 0.7874015748031497,
                    "duration": 0.4545454999999947
                },
                {
                    "name": "D#2",
                    "midi": 39,
                    "time": 98.18182799999965,
                    "velocity": 0.7874015748031497,
                    "duration": 0.4545454999999947
                },
                {
                    "name": "D#3",
                    "midi": 51,
                    "time": 98.63637349999965,
                    "velocity": 0.7874015748031497,
                    "duration": 0.4545454999999947
                },
                {
                    "name": "D#2",
                    "midi": 39,
                    "time": 99.09091899999964,
                    "velocity": 0.7874015748031497,
                    "duration": 0.4545454999999947
                },
                {
                    "name": "D#3",
                    "midi": 51,
                    "time": 99.54546449999964,
                    "velocity": 0.7874015748031497,
                    "duration": 0.4545454999999947
                },
                {
                    "name": "D2",
                    "midi": 38,
                    "time": 100.00000999999963,
                    "velocity": 0.7874015748031497,
                    "duration": 0.4545454999999947
                },
                {
                    "name": "D3",
                    "midi": 50,
                    "time": 100.45455549999963,
                    "velocity": 0.7874015748031497,
                    "duration": 0.4545454999999947
                },
                {
                    "name": "D2",
                    "midi": 38,
                    "time": 100.90910099999962,
                    "velocity": 0.7874015748031497,
                    "duration": 0.4545454999999947
                },
                {
                    "name": "D3",
                    "midi": 50,
                    "time": 101.36364649999962,
                    "velocity": 0.7874015748031497,
                    "duration": 0.4545454999999947
                },
                {
                    "name": "C2",
                    "midi": 36,
                    "time": 101.81819199999961,
                    "velocity": 0.7874015748031497,
                    "duration": 0.4545454999999947
                },
                {
                    "name": "C3",
                    "midi": 48,
                    "time": 102.27273749999961,
                    "velocity": 0.7874015748031497,
                    "duration": 0.4545454999999947
                },
                {
                    "name": "C2",
                    "midi": 36,
                    "time": 102.7272829999996,
                    "velocity": 0.7874015748031497,
                    "duration": 0.4545454999999947
                },
                {
                    "name": "C3",
                    "midi": 48,
                    "time": 103.1818284999996,
                    "velocity": 0.7874015748031497,
                    "duration": 0.4545454999999947
                },
                {
                    "name": "D2",
                    "midi": 38,
                    "time": 103.63637399999959,
                    "velocity": 0.7874015748031497,
                    "duration": 0.4545454999999947
                },
                {
                    "name": "D3",
                    "midi": 50,
                    "time": 104.09091949999959,
                    "velocity": 0.7874015748031497,
                    "duration": 0.4545454999999947
                },
                {
                    "name": "D2",
                    "midi": 38,
                    "time": 104.54546499999958,
                    "velocity": 0.7874015748031497,
                    "duration": 0.4545454999999947
                },
                {
                    "name": "D3",
                    "midi": 50,
                    "time": 105.00001049999958,
                    "velocity": 0.7874015748031497,
                    "duration": 0.4545454999999947
                },
                {
                    "name": "D#2",
                    "midi": 39,
                    "time": 105.45455599999957,
                    "velocity": 0.7874015748031497,
                    "duration": 0.4545454999999947
                },
                {
                    "name": "D#3",
                    "midi": 51,
                    "time": 105.90910149999957,
                    "velocity": 0.7874015748031497,
                    "duration": 0.4545454999999947
                },
                {
                    "name": "D#2",
                    "midi": 39,
                    "time": 106.36364699999956,
                    "velocity": 0.7874015748031497,
                    "duration": 0.4545454999999947
                },
                {
                    "name": "D#3",
                    "midi": 51,
                    "time": 106.81819249999955,
                    "velocity": 0.7874015748031497,
                    "duration": 0.4545454999999947
                },
                {
                    "name": "F2",
                    "midi": 41,
                    "time": 107.27273799999955,
                    "velocity": 0.7874015748031497,
                    "duration": 0.4545454999999947
                },
                {
                    "name": "F3",
                    "midi": 53,
                    "time": 107.72728349999954,
                    "velocity": 0.7874015748031497,
                    "duration": 0.4545454999999947
                },
                {
                    "name": "F2",
                    "midi": 41,
                    "time": 108.18182899999954,
                    "velocity": 0.7874015748031497,
                    "duration": 0.4545454999999947
                },
                {
                    "name": "F3",
                    "midi": 53,
                    "time": 108.63637449999953,
                    "velocity": 0.7874015748031497,
                    "duration": 0.4545454999999947
                },
                {
                    "name": "D#2",
                    "midi": 39,
                    "time": 109.09091999999953,
                    "velocity": 0.7874015748031497,
                    "duration": 0.4545454999999947
                },
                {
                    "name": "D#3",
                    "midi": 51,
                    "time": 109.54546549999952,
                    "velocity": 0.7874015748031497,
                    "duration": 0.4545454999999947
                },
                {
                    "name": "D#2",
                    "midi": 39,
                    "time": 110.00001099999952,
                    "velocity": 0.7874015748031497,
                    "duration": 0.4545454999999947
                },
                {
                    "name": "D#3",
                    "midi": 51,
                    "time": 110.45455649999951,
                    "velocity": 0.7874015748031497,
                    "duration": 0.4545454999999947
                },
                {
                    "name": "D2",
                    "midi": 38,
                    "time": 110.9091019999995,
                    "velocity": 0.7874015748031497,
                    "duration": 0.4545454999999947
                },
                {
                    "name": "D3",
                    "midi": 50,
                    "time": 111.3636474999995,
                    "velocity": 0.7874015748031497,
                    "duration": 0.4545454999999947
                },
                {
                    "name": "D2",
                    "midi": 38,
                    "time": 111.8181929999995,
                    "velocity": 0.7874015748031497,
                    "duration": 0.4545454999999947
                },
                {
                    "name": "D3",
                    "midi": 50,
                    "time": 112.27273849999949,
                    "velocity": 0.7874015748031497,
                    "duration": 0.4545454999999947
                },
                {
                    "name": "E2",
                    "midi": 40,
                    "time": 112.72728399999949,
                    "velocity": 0.7874015748031497,
                    "duration": 0.4545454999999947
                },
                {
                    "name": "E3",
                    "midi": 52,
                    "time": 113.18182949999948,
                    "velocity": 0.7874015748031497,
                    "duration": 0.4545454999999947
                },
                {
                    "name": "E2",
                    "midi": 40,
                    "time": 113.63637499999948,
                    "velocity": 0.7874015748031497,
                    "duration": 0.4545454999999947
                },
                {
                    "name": "E3",
                    "midi": 52,
                    "time": 114.09092049999947,
                    "velocity": 0.7874015748031497,
                    "duration": 0.4545454999999947
                },
                {
                    "name": "F2",
                    "midi": 41,
                    "time": 114.54546599999946,
                    "velocity": 0.7874015748031497,
                    "duration": 0.4545454999999947
                },
                {
                    "name": "F3",
                    "midi": 53,
                    "time": 115.00001149999946,
                    "velocity": 0.7874015748031497,
                    "duration": 0.4545454999999947
                },
                {
                    "name": "F2",
                    "midi": 41,
                    "time": 115.45455699999945,
                    "velocity": 0.7874015748031497,
                    "duration": 0.4545454999999947
                },
                {
                    "name": "F3",
                    "midi": 53,
                    "time": 115.90910249999945,
                    "velocity": 0.7874015748031497,
                    "duration": 0.4545454999999947
                },
                {
                    "name": "G2",
                    "midi": 43,
                    "time": 116.36364799999944,
                    "velocity": 0.7874015748031497,
                    "duration": 0.4545454999999947
                },
                {
                    "name": "G3",
                    "midi": 55,
                    "time": 116.81819349999944,
                    "velocity": 0.7874015748031497,
                    "duration": 0.4545454999999947
                },
                {
                    "name": "G2",
                    "midi": 43,
                    "time": 117.27273899999943,
                    "velocity": 0.7874015748031497,
                    "duration": 0.4545454999999947
                },
                {
                    "name": "G3",
                    "midi": 55,
                    "time": 117.72728449999943,
                    "velocity": 0.7874015748031497,
                    "duration": 0.4545454999999947
                },
                {
                    "name": "A2",
                    "midi": 45,
                    "time": 118.18182999999942,
                    "velocity": 0.7874015748031497,
                    "duration": 0.4545454999999947
                },
                {
                    "name": "A3",
                    "midi": 57,
                    "time": 118.63637549999942,
                    "velocity": 0.7874015748031497,
                    "duration": 0.4545454999999947
                },
                {
                    "name": "A2",
                    "midi": 45,
                    "time": 119.09092099999941,
                    "velocity": 0.7874015748031497,
                    "duration": 0.4545454999999947
                },
                {
                    "name": "A3",
                    "midi": 57,
                    "time": 119.5454664999994,
                    "velocity": 0.7874015748031497,
                    "duration": 0.4545454999999947
                },
                {
                    "name": "A#2",
                    "midi": 46,
                    "time": 120.0000119999994,
                    "velocity": 0.7874015748031497,
                    "duration": 0.4545454999999947
                },
                {
                    "name": "A#3",
                    "midi": 58,
                    "time": 120.4545574999994,
                    "velocity": 0.7874015748031497,
                    "duration": 0.4545454999999947
                },
                {
                    "name": "A#2",
                    "midi": 46,
                    "time": 120.90910299999939,
                    "velocity": 0.7874015748031497,
                    "duration": 0.4545454999999947
                },
                {
                    "name": "A#3",
                    "midi": 58,
                    "time": 121.36364849999939,
                    "velocity": 0.7874015748031497,
                    "duration": 0.4545454999999947
                },
                {
                    "name": "C3",
                    "midi": 48,
                    "time": 121.81819399999938,
                    "velocity": 0.7874015748031497,
                    "duration": 0.4545454999999947
                },
                {
                    "name": "C4",
                    "midi": 60,
                    "time": 122.27273949999937,
                    "velocity": 0.7874015748031497,
                    "duration": 0.4545454999999947
                },
                {
                    "name": "C3",
                    "midi": 48,
                    "time": 122.72728499999937,
                    "velocity": 0.7874015748031497,
                    "duration": 0.4545454999999947
                },
                {
                    "name": "C4",
                    "midi": 60,
                    "time": 123.18183049999936,
                    "velocity": 0.7874015748031497,
                    "duration": 0.4545454999999947
                },
                {
                    "name": "D3",
                    "midi": 50,
                    "time": 123.63637599999936,
                    "velocity": 0.7874015748031497,
                    "duration": 0.4545454999999947
                },
                {
                    "name": "D4",
                    "midi": 62,
                    "time": 124.09092149999935,
                    "velocity": 0.7874015748031497,
                    "duration": 0.4545454999999947
                },
                {
                    "name": "D3",
                    "midi": 50,
                    "time": 124.54546699999935,
                    "velocity": 0.7874015748031497,
                    "duration": 0.4545454999999947
                },
                {
                    "name": "D4",
                    "midi": 62,
                    "time": 125.00001249999934,
                    "velocity": 0.7874015748031497,
                    "duration": 0.4545454999999947
                },
                {
                    "name": "D#2",
                    "midi": 39,
                    "time": 125.45455799999934,
                    "velocity": 0.7874015748031497,
                    "duration": 0.4545454999999947
                },
                {
                    "name": "D#3",
                    "midi": 51,
                    "time": 125.90910349999933,
                    "velocity": 0.7874015748031497,
                    "duration": 0.4545454999999947
                },
                {
                    "name": "D#2",
                    "midi": 39,
                    "time": 126.36364899999933,
                    "velocity": 0.7874015748031497,
                    "duration": 0.4545454999999947
                },
                {
                    "name": "D#3",
                    "midi": 51,
                    "time": 126.81819449999932,
                    "velocity": 0.7874015748031497,
                    "duration": 0.4545454999999947
                },
                {
                    "name": "F2",
                    "midi": 41,
                    "time": 127.27273999999932,
                    "velocity": 0.7874015748031497,
                    "duration": 0.4545454999999947
                },
                {
                    "name": "F3",
                    "midi": 53,
                    "time": 127.72728549999931,
                    "velocity": 0.7874015748031497,
                    "duration": 0.4545454999999947
                },
                {
                    "name": "F2",
                    "midi": 41,
                    "time": 128.1818309999993,
                    "velocity": 0.7874015748031497,
                    "duration": 0.4545454999999947
                },
                {
                    "name": "F3",
                    "midi": 53,
                    "time": 128.6363764999993,
                    "velocity": 0.7874015748031497,
                    "duration": 0.4545454999999947
                },
                {
                    "name": "G2",
                    "midi": 43,
                    "time": 129.0909219999993,
                    "velocity": 0.7874015748031497,
                    "duration": 0.4545454999999947
                },
                {
                    "name": "G3",
                    "midi": 55,
                    "time": 129.5454674999993,
                    "velocity": 0.7874015748031497,
                    "duration": 0.4545454999999947
                },
                {
                    "name": "G2",
                    "midi": 43,
                    "time": 130.00001299999929,
                    "velocity": 0.7874015748031497,
                    "duration": 0.4545454999999947
                },
                {
                    "name": "G3",
                    "midi": 55,
                    "time": 130.45455849999928,
                    "velocity": 0.7874015748031497,
                    "duration": 0.4545454999999947
                },
                {
                    "name": "G#2",
                    "midi": 44,
                    "time": 130.90910399999927,
                    "velocity": 0.7874015748031497,
                    "duration": 0.4545454999999947
                },
                {
                    "name": "G#3",
                    "midi": 56,
                    "time": 131.36364949999927,
                    "velocity": 0.7874015748031497,
                    "duration": 0.4545454999999947
                },
                {
                    "name": "G#2",
                    "midi": 44,
                    "time": 131.81819499999926,
                    "velocity": 0.7874015748031497,
                    "duration": 0.4545454999999947
                },
                {
                    "name": "G#3",
                    "midi": 56,
                    "time": 132.27274049999926,
                    "velocity": 0.7874015748031497,
                    "duration": 0.4545454999999947
                },
                {
                    "name": "G3",
                    "midi": 55,
                    "time": 132.72728599999925,
                    "velocity": 0.7874015748031497,
                    "duration": 0.4545454999999947
                },
                {
                    "name": "F3",
                    "midi": 53,
                    "time": 133.18183149999925,
                    "velocity": 0.7874015748031497,
                    "duration": 0.4545454999999947
                },
                {
                    "name": "G3",
                    "midi": 55,
                    "time": 133.63637699999924,
                    "velocity": 0.7874015748031497,
                    "duration": 0.4545454999999947
                },
                {
                    "name": "G2",
                    "midi": 43,
                    "time": 134.09092249999924,
                    "velocity": 0.7874015748031497,
                    "duration": 0.4545454999999947
                },
                {
                    "name": "C3",
                    "midi": 48,
                    "time": 134.54546799999923,
                    "velocity": 0.7874015748031497,
                    "duration": 0.9090909999999894
                },
                {
                    "name": "D3",
                    "midi": 50,
                    "time": 147.72728749999922,
                    "velocity": 0.7874015748031497,
                    "duration": 0.4545454999999947
                },
                {
                    "name": "G3",
                    "midi": 55,
                    "time": 148.18183299999922,
                    "velocity": 0.7874015748031497,
                    "duration": 0.4545454999999947
                },
                {
                    "name": "D3",
                    "midi": 50,
                    "time": 148.6363784999992,
                    "velocity": 0.7874015748031497,
                    "duration": 0.4545454999999947
                },
                {
                    "name": "G3",
                    "midi": 55,
                    "time": 149.0909239999992,
                    "velocity": 0.7874015748031497,
                    "duration": 0.4545454999999947
                },
                {
                    "name": "A#3",
                    "midi": 58,
                    "time": 149.5454694999992,
                    "velocity": 0.7874015748031497,
                    "duration": 0.4545454999999947
                },
                {
                    "name": "G3",
                    "midi": 55,
                    "time": 150.0000149999992,
                    "velocity": 0.7874015748031497,
                    "duration": 0.4545454999999947
                },
                {
                    "name": "A#3",
                    "midi": 58,
                    "time": 150.4545604999992,
                    "velocity": 0.7874015748031497,
                    "duration": 0.4545454999999947
                },
                {
                    "name": "G3",
                    "midi": 55,
                    "time": 150.90910599999918,
                    "velocity": 0.7874015748031497,
                    "duration": 0.4545454999999947
                },
                {
                    "name": "D3",
                    "midi": 50,
                    "time": 151.36365149999918,
                    "velocity": 0.7874015748031497,
                    "duration": 0.4545454999999947
                },
                {
                    "name": "G3",
                    "midi": 55,
                    "time": 151.81819699999917,
                    "velocity": 0.7874015748031497,
                    "duration": 0.4545454999999947
                },
                {
                    "name": "D3",
                    "midi": 50,
                    "time": 152.27274249999917,
                    "velocity": 0.7874015748031497,
                    "duration": 0.4545454999999947
                },
                {
                    "name": "G3",
                    "midi": 55,
                    "time": 152.72728799999916,
                    "velocity": 0.7874015748031497,
                    "duration": 0.4545454999999947
                },
                {
                    "name": "G2",
                    "midi": 43,
                    "time": 153.18183349999916,
                    "velocity": 0.7874015748031497,
                    "duration": 0.4545454999999947
                },
                {
                    "name": "C3",
                    "midi": 48,
                    "time": 153.63637899999915,
                    "velocity": 0.7874015748031497,
                    "duration": 0.4545454999999947
                },
                {
                    "name": "G2",
                    "midi": 43,
                    "time": 154.09092449999915,
                    "velocity": 0.7874015748031497,
                    "duration": 0.4545454999999947
                },
                {
                    "name": "C3",
                    "midi": 48,
                    "time": 154.54546999999914,
                    "velocity": 0.7874015748031497,
                    "duration": 0.4545454999999947
                },
                {
                    "name": "D#3",
                    "midi": 51,
                    "time": 155.00001549999914,
                    "velocity": 0.7874015748031497,
                    "duration": 0.4545454999999947
                },
                {
                    "name": "C3",
                    "midi": 48,
                    "time": 155.45456099999913,
                    "velocity": 0.7874015748031497,
                    "duration": 0.4545454999999947
                },
                {
                    "name": "D#3",
                    "midi": 51,
                    "time": 155.90910649999913,
                    "velocity": 0.7874015748031497,
                    "duration": 0.4545454999999947
                },
                {
                    "name": "C3",
                    "midi": 48,
                    "time": 156.36365199999912,
                    "velocity": 0.7874015748031497,
                    "duration": 0.4545454999999947
                },
                {
                    "name": "C3",
                    "midi": 48,
                    "time": 156.81819749999912,
                    "velocity": 0.7874015748031497,
                    "duration": 0.4545454999999947
                },
                {
                    "name": "F3",
                    "midi": 53,
                    "time": 157.2727429999991,
                    "velocity": 0.7874015748031497,
                    "duration": 0.4545454999999947
                },
                {
                    "name": "C3",
                    "midi": 48,
                    "time": 157.7272884999991,
                    "velocity": 0.7874015748031497,
                    "duration": 0.4545454999999947
                },
                {
                    "name": "F3",
                    "midi": 53,
                    "time": 158.1818339999991,
                    "velocity": 0.7874015748031497,
                    "duration": 0.4545454999999947
                },
                {
                    "name": "G#3",
                    "midi": 56,
                    "time": 158.6363794999991,
                    "velocity": 0.7874015748031497,
                    "duration": 0.4545454999999947
                },
                {
                    "name": "F3",
                    "midi": 53,
                    "time": 159.0909249999991,
                    "velocity": 0.7874015748031497,
                    "duration": 0.4545454999999947
                },
                {
                    "name": "G#3",
                    "midi": 56,
                    "time": 159.54547049999908,
                    "velocity": 0.7874015748031497,
                    "duration": 0.4545454999999947
                },
                {
                    "name": "G3",
                    "midi": 55,
                    "time": 160.00001599999908,
                    "velocity": 0.7874015748031497,
                    "duration": 0.4545454999999947
                },
                {
                    "name": "G2",
                    "midi": 43,
                    "time": 160.45456149999907,
                    "velocity": 0.7874015748031497,
                    "duration": 0.4545454999999947
                },
                {
                    "name": "G3",
                    "midi": 55,
                    "time": 160.90910699999907,
                    "velocity": 0.7874015748031497,
                    "duration": 0.4545454999999947
                },
                {
                    "name": "G2",
                    "midi": 43,
                    "time": 161.36365249999906,
                    "velocity": 0.7874015748031497,
                    "duration": 0.4545454999999947
                },
                {
                    "name": "G3",
                    "midi": 55,
                    "time": 161.81819799999906,
                    "velocity": 0.7874015748031497,
                    "duration": 0.4545454999999947
                },
                {
                    "name": "G2",
                    "midi": 43,
                    "time": 162.27274349999905,
                    "velocity": 0.7874015748031497,
                    "duration": 0.4545454999999947
                },
                {
                    "name": "G3",
                    "midi": 55,
                    "time": 162.72728899999905,
                    "velocity": 0.7874015748031497,
                    "duration": 0.4545454999999947
                },
                {
                    "name": "G2",
                    "midi": 43,
                    "time": 163.18183449999904,
                    "velocity": 0.7874015748031497,
                    "duration": 0.4545454999999947
                },
                {
                    "name": "C3",
                    "midi": 48,
                    "time": 163.63637999999904,
                    "velocity": 0.7874015748031497,
                    "duration": 0.9090909999999894
                },
                {
                    "name": "F3",
                    "midi": 53,
                    "time": 167.72728949999902,
                    "velocity": 0.7874015748031497,
                    "duration": 0.4545454999999947
                },
                {
                    "name": "A#3",
                    "midi": 58,
                    "time": 168.181834999999,
                    "velocity": 0.7874015748031497,
                    "duration": 0.4545454999999947
                },
                {
                    "name": "F3",
                    "midi": 53,
                    "time": 168.636380499999,
                    "velocity": 0.7874015748031497,
                    "duration": 0.4545454999999947
                },
                {
                    "name": "A#3",
                    "midi": 58,
                    "time": 169.090925999999,
                    "velocity": 0.7874015748031497,
                    "duration": 0.4545454999999947
                },
                {
                    "name": "D4",
                    "midi": 62,
                    "time": 169.545471499999,
                    "velocity": 0.7874015748031497,
                    "duration": 0.4545454999999947
                },
                {
                    "name": "A#3",
                    "midi": 58,
                    "time": 170.000016999999,
                    "velocity": 0.7874015748031497,
                    "duration": 0.4545454999999947
                },
                {
                    "name": "D4",
                    "midi": 62,
                    "time": 170.45456249999899,
                    "velocity": 0.7874015748031497,
                    "duration": 0.4545454999999947
                },
                {
                    "name": "A#3",
                    "midi": 58,
                    "time": 170.90910799999898,
                    "velocity": 0.7874015748031497,
                    "duration": 0.4545454999999947
                },
                {
                    "name": "A#2",
                    "midi": 46,
                    "time": 171.36365349999897,
                    "velocity": 0.7874015748031497,
                    "duration": 0.4545454999999947
                },
                {
                    "name": "D#3",
                    "midi": 51,
                    "time": 171.81819899999897,
                    "velocity": 0.7874015748031497,
                    "duration": 0.4545454999999947
                },
                {
                    "name": "A#2",
                    "midi": 46,
                    "time": 172.27274449999896,
                    "velocity": 0.7874015748031497,
                    "duration": 0.4545454999999947
                },
                {
                    "name": "D#3",
                    "midi": 51,
                    "time": 172.72728999999896,
                    "velocity": 0.7874015748031497,
                    "duration": 0.4545454999999947
                },
                {
                    "name": "G3",
                    "midi": 55,
                    "time": 173.18183549999895,
                    "velocity": 0.7874015748031497,
                    "duration": 0.4545454999999947
                },
                {
                    "name": "D#3",
                    "midi": 51,
                    "time": 173.63638099999895,
                    "velocity": 0.7874015748031497,
                    "duration": 0.4545454999999947
                },
                {
                    "name": "G3",
                    "midi": 55,
                    "time": 174.09092649999894,
                    "velocity": 0.7874015748031497,
                    "duration": 0.4545454999999947
                },
                {
                    "name": "D#3",
                    "midi": 51,
                    "time": 174.54547199999894,
                    "velocity": 0.7874015748031497,
                    "duration": 0.4545454999999947
                },
                {
                    "name": "F3",
                    "midi": 53,
                    "time": 175.00001749999893,
                    "velocity": 0.7874015748031497,
                    "duration": 0.4545454999999947
                },
                {
                    "name": "G3",
                    "midi": 55,
                    "time": 175.45456299999893,
                    "velocity": 0.7874015748031497,
                    "duration": 0.4545454999999947
                },
                {
                    "name": "D#3",
                    "midi": 51,
                    "time": 175.90910849999892,
                    "velocity": 0.7874015748031497,
                    "duration": 0.4545454999999947
                },
                {
                    "name": "G#3",
                    "midi": 56,
                    "time": 176.36365399999892,
                    "velocity": 0.7874015748031497,
                    "duration": 0.4545454999999947
                },
                {
                    "name": "G#3",
                    "midi": 56,
                    "time": 176.8181994999989,
                    "velocity": 0.7874015748031497,
                    "duration": 0.4545454999999947
                },
                {
                    "name": "F3",
                    "midi": 53,
                    "time": 177.2727449999989,
                    "velocity": 0.7874015748031497,
                    "duration": 0.4545454999999947
                },
                {
                    "name": "G#3",
                    "midi": 56,
                    "time": 177.7272904999989,
                    "velocity": 0.7874015748031497,
                    "duration": 0.4545454999999947
                },
                {
                    "name": "F3",
                    "midi": 53,
                    "time": 178.1818359999989,
                    "velocity": 0.7874015748031497,
                    "duration": 0.4545454999999947
                },
                {
                    "name": "F2",
                    "midi": 41,
                    "time": 178.6363814999989,
                    "velocity": 0.7874015748031497,
                    "duration": 0.4545454999999947
                },
                {
                    "name": "F3",
                    "midi": 53,
                    "time": 179.09092699999889,
                    "velocity": 0.7874015748031497,
                    "duration": 0.4545454999999947
                },
                {
                    "name": "F2",
                    "midi": 41,
                    "time": 179.54547249999888,
                    "velocity": 0.7874015748031497,
                    "duration": 0.4545454999999947
                },
                {
                    "name": "F3",
                    "midi": 53,
                    "time": 180.00001799999887,
                    "velocity": 0.7874015748031497,
                    "duration": 0.4545454999999947
                },
                {
                    "name": "F2",
                    "midi": 41,
                    "time": 180.45456349999887,
                    "velocity": 0.7874015748031497,
                    "duration": 0.4545454999999947
                },
                {
                    "name": "F3",
                    "midi": 53,
                    "time": 180.90910899999886,
                    "velocity": 0.7874015748031497,
                    "duration": 0.4545454999999947
                },
                {
                    "name": "F2",
                    "midi": 41,
                    "time": 181.36365449999886,
                    "velocity": 0.7874015748031497,
                    "duration": 0.4545454999999947
                },
                {
                    "name": "A#2",
                    "midi": 46,
                    "time": 181.81819999999885,
                    "velocity": 0.7874015748031497,
                    "duration": 0.4545454999999947
                },
                {
                    "name": "A#3",
                    "midi": 58,
                    "time": 182.27274549999885,
                    "velocity": 0.7874015748031497,
                    "duration": 0.4545454999999947
                },
                {
                    "name": "A#2",
                    "midi": 46,
                    "time": 182.72729099999884,
                    "velocity": 0.7874015748031497,
                    "duration": 0.4545454999999947
                },
                {
                    "name": "A#3",
                    "midi": 58,
                    "time": 183.18183649999884,
                    "velocity": 0.7874015748031497,
                    "duration": 0.4545454999999947
                },
                {
                    "name": "G#2",
                    "midi": 44,
                    "time": 183.63638199999883,
                    "velocity": 0.7874015748031497,
                    "duration": 0.4545454999999947
                },
                {
                    "name": "G#3",
                    "midi": 56,
                    "time": 184.09092749999883,
                    "velocity": 0.7874015748031497,
                    "duration": 0.4545454999999947
                },
                {
                    "name": "G#2",
                    "midi": 44,
                    "time": 184.54547299999882,
                    "velocity": 0.7874015748031497,
                    "duration": 0.4545454999999947
                },
                {
                    "name": "G#3",
                    "midi": 56,
                    "time": 185.00001849999882,
                    "velocity": 0.7874015748031497,
                    "duration": 0.4545454999999947
                },
                {
                    "name": "G2",
                    "midi": 43,
                    "time": 185.4545639999988,
                    "velocity": 0.7874015748031497,
                    "duration": 0.4545454999999947
                },
                {
                    "name": "G3",
                    "midi": 55,
                    "time": 185.9091094999988,
                    "velocity": 0.7874015748031497,
                    "duration": 0.4545454999999947
                },
                {
                    "name": "G2",
                    "midi": 43,
                    "time": 186.3636549999988,
                    "velocity": 0.7874015748031497,
                    "duration": 0.4545454999999947
                },
                {
                    "name": "G3",
                    "midi": 55,
                    "time": 186.8182004999988,
                    "velocity": 0.7874015748031497,
                    "duration": 0.4545454999999947
                },
                {
                    "name": "F2",
                    "midi": 41,
                    "time": 187.2727459999988,
                    "velocity": 0.7874015748031497,
                    "duration": 0.4545454999999947
                },
                {
                    "name": "F3",
                    "midi": 53,
                    "time": 187.72729149999878,
                    "velocity": 0.7874015748031497,
                    "duration": 0.4545454999999947
                },
                {
                    "name": "F2",
                    "midi": 41,
                    "time": 188.18183699999878,
                    "velocity": 0.7874015748031497,
                    "duration": 0.4545454999999947
                },
                {
                    "name": "F3",
                    "midi": 53,
                    "time": 188.63638249999877,
                    "velocity": 0.7874015748031497,
                    "duration": 0.4545454999999947
                },
                {
                    "name": "D#2",
                    "midi": 39,
                    "time": 189.09092799999877,
                    "velocity": 0.7874015748031497,
                    "duration": 0.4545454999999947
                },
                {
                    "name": "D#3",
                    "midi": 51,
                    "time": 189.54547349999876,
                    "velocity": 0.7874015748031497,
                    "duration": 0.4545454999999947
                },
                {
                    "name": "D#2",
                    "midi": 39,
                    "time": 190.00001899999876,
                    "velocity": 0.7874015748031497,
                    "duration": 0.4545454999999947
                },
                {
                    "name": "D#3",
                    "midi": 51,
                    "time": 190.45456449999875,
                    "velocity": 0.7874015748031497,
                    "duration": 0.4545454999999947
                },
                {
                    "name": "D2",
                    "midi": 38,
                    "time": 190.90910999999875,
                    "velocity": 0.7874015748031497,
                    "duration": 0.4545454999999947
                },
                {
                    "name": "D3",
                    "midi": 50,
                    "time": 191.36365549999874,
                    "velocity": 0.7874015748031497,
                    "duration": 0.4545454999999947
                },
                {
                    "name": "D2",
                    "midi": 38,
                    "time": 191.81820099999874,
                    "velocity": 0.7874015748031497,
                    "duration": 0.4545454999999947
                },
                {
                    "name": "D3",
                    "midi": 50,
                    "time": 192.27274649999873,
                    "velocity": 0.7874015748031497,
                    "duration": 0.4545454999999947
                },
                {
                    "name": "C2",
                    "midi": 36,
                    "time": 192.72729199999873,
                    "velocity": 0.7874015748031497,
                    "duration": 0.4545454999999947
                },
                {
                    "name": "C3",
                    "midi": 48,
                    "time": 193.18183749999872,
                    "velocity": 0.7874015748031497,
                    "duration": 0.4545454999999947
                },
                {
                    "name": "C2",
                    "midi": 36,
                    "time": 193.63638299999872,
                    "velocity": 0.7874015748031497,
                    "duration": 0.4545454999999947
                },
                {
                    "name": "C3",
                    "midi": 48,
                    "time": 194.0909284999987,
                    "velocity": 0.7874015748031497,
                    "duration": 0.4545454999999947
                },
                {
                    "name": "D2",
                    "midi": 38,
                    "time": 194.5454739999987,
                    "velocity": 0.7874015748031497,
                    "duration": 0.4545454999999947
                },
                {
                    "name": "D3",
                    "midi": 50,
                    "time": 195.0000194999987,
                    "velocity": 0.7874015748031497,
                    "duration": 0.4545454999999947
                },
                {
                    "name": "D2",
                    "midi": 38,
                    "time": 195.4545649999987,
                    "velocity": 0.7874015748031497,
                    "duration": 0.4545454999999947
                },
                {
                    "name": "D3",
                    "midi": 50,
                    "time": 195.9091104999987,
                    "velocity": 0.7874015748031497,
                    "duration": 0.4545454999999947
                },
                {
                    "name": "D#2",
                    "midi": 39,
                    "time": 196.36365599999868,
                    "velocity": 0.7874015748031497,
                    "duration": 0.4545454999999947
                },
                {
                    "name": "D#3",
                    "midi": 51,
                    "time": 196.81820149999868,
                    "velocity": 0.7874015748031497,
                    "duration": 0.4545454999999947
                },
                {
                    "name": "D#2",
                    "midi": 39,
                    "time": 197.27274699999867,
                    "velocity": 0.7874015748031497,
                    "duration": 0.4545454999999947
                },
                {
                    "name": "D#3",
                    "midi": 51,
                    "time": 197.72729249999867,
                    "velocity": 0.7874015748031497,
                    "duration": 0.4545454999999947
                },
                {
                    "name": "F2",
                    "midi": 41,
                    "time": 198.18183799999866,
                    "velocity": 0.7874015748031497,
                    "duration": 0.4545454999999947
                },
                {
                    "name": "F3",
                    "midi": 53,
                    "time": 198.63638349999866,
                    "velocity": 0.7874015748031497,
                    "duration": 0.4545454999999947
                },
                {
                    "name": "F2",
                    "midi": 41,
                    "time": 199.09092899999865,
                    "velocity": 0.7874015748031497,
                    "duration": 0.4545454999999947
                },
                {
                    "name": "F3",
                    "midi": 53,
                    "time": 199.54547449999865,
                    "velocity": 0.7874015748031497,
                    "duration": 0.4545454999999947
                },
                {
                    "name": "D#2",
                    "midi": 39,
                    "time": 200.00001999999864,
                    "velocity": 0.7874015748031497,
                    "duration": 0.4545454999999947
                },
                {
                    "name": "D#3",
                    "midi": 51,
                    "time": 200.45456549999864,
                    "velocity": 0.7874015748031497,
                    "duration": 0.4545454999999947
                },
                {
                    "name": "D#2",
                    "midi": 39,
                    "time": 200.90911099999863,
                    "velocity": 0.7874015748031497,
                    "duration": 0.4545454999999947
                },
                {
                    "name": "D#3",
                    "midi": 51,
                    "time": 201.36365649999863,
                    "velocity": 0.7874015748031497,
                    "duration": 0.4545454999999947
                },
                {
                    "name": "D2",
                    "midi": 38,
                    "time": 201.81820199999862,
                    "velocity": 0.7874015748031497,
                    "duration": 0.4545454999999947
                },
                {
                    "name": "D3",
                    "midi": 50,
                    "time": 202.27274749999862,
                    "velocity": 0.7874015748031497,
                    "duration": 0.4545454999999947
                },
                {
                    "name": "D2",
                    "midi": 38,
                    "time": 202.7272929999986,
                    "velocity": 0.7874015748031497,
                    "duration": 0.4545454999999947
                },
                {
                    "name": "D3",
                    "midi": 50,
                    "time": 203.1818384999986,
                    "velocity": 0.7874015748031497,
                    "duration": 0.4545454999999947
                },
                {
                    "name": "E2",
                    "midi": 40,
                    "time": 203.6363839999986,
                    "velocity": 0.7874015748031497,
                    "duration": 0.4545454999999947
                },
                {
                    "name": "E3",
                    "midi": 52,
                    "time": 204.0909294999986,
                    "velocity": 0.7874015748031497,
                    "duration": 0.4545454999999947
                },
                {
                    "name": "E2",
                    "midi": 40,
                    "time": 204.5454749999986,
                    "velocity": 0.7874015748031497,
                    "duration": 0.4545454999999947
                },
                {
                    "name": "E3",
                    "midi": 52,
                    "time": 205.00002049999858,
                    "velocity": 0.7874015748031497,
                    "duration": 0.4545454999999947
                },
                {
                    "name": "F2",
                    "midi": 41,
                    "time": 205.45456599999858,
                    "velocity": 0.7874015748031497,
                    "duration": 0.4545454999999947
                },
                {
                    "name": "F3",
                    "midi": 53,
                    "time": 205.90911149999857,
                    "velocity": 0.7874015748031497,
                    "duration": 0.4545454999999947
                },
                {
                    "name": "F2",
                    "midi": 41,
                    "time": 206.36365699999857,
                    "velocity": 0.7874015748031497,
                    "duration": 0.4545454999999947
                },
                {
                    "name": "F3",
                    "midi": 53,
                    "time": 206.81820249999856,
                    "velocity": 0.7874015748031497,
                    "duration": 0.4545454999999947
                },
                {
                    "name": "G2",
                    "midi": 43,
                    "time": 207.27274799999856,
                    "velocity": 0.7874015748031497,
                    "duration": 0.4545454999999947
                },
                {
                    "name": "G3",
                    "midi": 55,
                    "time": 207.72729349999855,
                    "velocity": 0.7874015748031497,
                    "duration": 0.4545454999999947
                },
                {
                    "name": "G2",
                    "midi": 43,
                    "time": 208.18183899999855,
                    "velocity": 0.7874015748031497,
                    "duration": 0.4545454999999947
                },
                {
                    "name": "G3",
                    "midi": 55,
                    "time": 208.63638449999854,
                    "velocity": 0.7874015748031497,
                    "duration": 0.4545454999999947
                },
                {
                    "name": "A2",
                    "midi": 45,
                    "time": 209.09092999999854,
                    "velocity": 0.7874015748031497,
                    "duration": 0.4545454999999947
                },
                {
                    "name": "A3",
                    "midi": 57,
                    "time": 209.54547549999853,
                    "velocity": 0.7874015748031497,
                    "duration": 0.4545454999999947
                },
                {
                    "name": "A2",
                    "midi": 45,
                    "time": 210.00002099999853,
                    "velocity": 0.7874015748031497,
                    "duration": 0.4545454999999947
                },
                {
                    "name": "A3",
                    "midi": 57,
                    "time": 210.45456649999852,
                    "velocity": 0.7874015748031497,
                    "duration": 0.4545454999999947
                },
                {
                    "name": "A#2",
                    "midi": 46,
                    "time": 210.90911199999852,
                    "velocity": 0.7874015748031497,
                    "duration": 0.4545454999999947
                },
                {
                    "name": "A#3",
                    "midi": 58,
                    "time": 211.3636574999985,
                    "velocity": 0.7874015748031497,
                    "duration": 0.4545454999999947
                },
                {
                    "name": "A#2",
                    "midi": 46,
                    "time": 211.8182029999985,
                    "velocity": 0.7874015748031497,
                    "duration": 0.4545454999999947
                },
                {
                    "name": "A#3",
                    "midi": 58,
                    "time": 212.2727484999985,
                    "velocity": 0.7874015748031497,
                    "duration": 0.4545454999999947
                },
                {
                    "name": "C3",
                    "midi": 48,
                    "time": 212.7272939999985,
                    "velocity": 0.7874015748031497,
                    "duration": 0.4545454999999947
                },
                {
                    "name": "C4",
                    "midi": 60,
                    "time": 213.1818394999985,
                    "velocity": 0.7874015748031497,
                    "duration": 0.4545454999999947
                },
                {
                    "name": "C3",
                    "midi": 48,
                    "time": 213.63638499999848,
                    "velocity": 0.7874015748031497,
                    "duration": 0.4545454999999947
                },
                {
                    "name": "C4",
                    "midi": 60,
                    "time": 214.09093049999848,
                    "velocity": 0.7874015748031497,
                    "duration": 0.4545454999999947
                },
                {
                    "name": "D3",
                    "midi": 50,
                    "time": 214.54547599999847,
                    "velocity": 0.7874015748031497,
                    "duration": 0.4545454999999947
                },
                {
                    "name": "D4",
                    "midi": 62,
                    "time": 215.00002149999847,
                    "velocity": 0.7874015748031497,
                    "duration": 0.4545454999999947
                },
                {
                    "name": "D3",
                    "midi": 50,
                    "time": 215.45456699999846,
                    "velocity": 0.7874015748031497,
                    "duration": 0.4545454999999947
                },
                {
                    "name": "D4",
                    "midi": 62,
                    "time": 215.90911249999846,
                    "velocity": 0.7874015748031497,
                    "duration": 0.4545454999999947
                },
                {
                    "name": "D#2",
                    "midi": 39,
                    "time": 216.36365799999845,
                    "velocity": 0.7874015748031497,
                    "duration": 0.4545454999999947
                },
                {
                    "name": "D#3",
                    "midi": 51,
                    "time": 216.81820349999845,
                    "velocity": 0.7874015748031497,
                    "duration": 0.4545454999999947
                },
                {
                    "name": "D#2",
                    "midi": 39,
                    "time": 217.27274899999844,
                    "velocity": 0.7874015748031497,
                    "duration": 0.4545454999999947
                },
                {
                    "name": "D#3",
                    "midi": 51,
                    "time": 217.72729449999844,
                    "velocity": 0.7874015748031497,
                    "duration": 0.4545454999999947
                },
                {
                    "name": "F2",
                    "midi": 41,
                    "time": 218.18183999999843,
                    "velocity": 0.7874015748031497,
                    "duration": 0.4545454999999947
                },
                {
                    "name": "F3",
                    "midi": 53,
                    "time": 218.63638549999843,
                    "velocity": 0.7874015748031497,
                    "duration": 0.4545454999999947
                },
                {
                    "name": "F2",
                    "midi": 41,
                    "time": 219.09093099999842,
                    "velocity": 0.7874015748031497,
                    "duration": 0.4545454999999947
                },
                {
                    "name": "F3",
                    "midi": 53,
                    "time": 219.54547649999841,
                    "velocity": 0.7874015748031497,
                    "duration": 0.4545454999999947
                },
                {
                    "name": "G2",
                    "midi": 43,
                    "time": 220.0000219999984,
                    "velocity": 0.7874015748031497,
                    "duration": 0.4545454999999947
                },
                {
                    "name": "G3",
                    "midi": 55,
                    "time": 220.4545674999984,
                    "velocity": 0.7874015748031497,
                    "duration": 0.4545454999999947
                },
                {
                    "name": "G2",
                    "midi": 43,
                    "time": 220.9091129999984,
                    "velocity": 0.7874015748031497,
                    "duration": 0.4545454999999947
                },
                {
                    "name": "G3",
                    "midi": 55,
                    "time": 221.3636584999984,
                    "velocity": 0.7874015748031497,
                    "duration": 0.4545454999999947
                },
                {
                    "name": "G#2",
                    "midi": 44,
                    "time": 221.8182039999984,
                    "velocity": 0.7874015748031497,
                    "duration": 0.4545454999999947
                },
                {
                    "name": "G#3",
                    "midi": 56,
                    "time": 222.27274949999838,
                    "velocity": 0.7874015748031497,
                    "duration": 0.4545454999999947
                },
                {
                    "name": "G#2",
                    "midi": 44,
                    "time": 222.72729499999838,
                    "velocity": 0.7874015748031497,
                    "duration": 0.4545454999999947
                },
                {
                    "name": "G#3",
                    "midi": 56,
                    "time": 223.18184049999837,
                    "velocity": 0.7874015748031497,
                    "duration": 0.4545454999999947
                },
                {
                    "name": "G3",
                    "midi": 55,
                    "time": 223.63638599999837,
                    "velocity": 0.7874015748031497,
                    "duration": 0.4545454999999947
                },
                {
                    "name": "F3",
                    "midi": 53,
                    "time": 224.09093149999836,
                    "velocity": 0.7874015748031497,
                    "duration": 0.4545454999999947
                },
                {
                    "name": "G3",
                    "midi": 55,
                    "time": 224.54547699999836,
                    "velocity": 0.7874015748031497,
                    "duration": 0.4545454999999947
                },
                {
                    "name": "G2",
                    "midi": 43,
                    "time": 225.00002249999835,
                    "velocity": 0.7874015748031497,
                    "duration": 0.4545454999999947
                },
                {
                    "name": "C3",
                    "midi": 48,
                    "time": 225.45456799999835,
                    "velocity": 0.7874015748031497,
                    "duration": 3.636363999999986
                }
            ],
            "controlChanges": {
                "7": [
                    {
                        "number": 7,
                        "time": 0,
                        "value": 0.6299212598425197
                    }
                ],
                "10": [
                    {
                        "number": 10,
                        "time": 0,
                        "value": 0.5039370078740157
                    }
                ]
            },
            "id": 11,
            "name": "Cello A",
            "instrumentNumber": 42,
            "instrumentFamily": "drums",
            "channelNumber": 10,
            "isPercussion": true
        },
        {
            "startTime": 0,
            "duration": 229.09093199999833,
            "length": 355,
            "notes": [
                {
                    "name": "C3",
                    "midi": 48,
                    "time": 0,
                    "velocity": 0.7874015748031497,
                    "duration": 3.636364
                },
                {
                    "name": "C3",
                    "midi": 48,
                    "time": 3.636364,
                    "velocity": 0.7874015748031497,
                    "duration": 3.636364
                },
                {
                    "name": "C3",
                    "midi": 48,
                    "time": 7.272728,
                    "velocity": 0.7874015748031497,
                    "duration": 3.6363639999999995
                },
                {
                    "name": "C3",
                    "midi": 48,
                    "time": 10.909092,
                    "velocity": 0.7874015748031497,
                    "duration": 0.9090910000000001
                },
                {
                    "name": "B2",
                    "midi": 47,
                    "time": 11.818183,
                    "velocity": 0.7874015748031497,
                    "duration": 0.9090910000000001
                },
                {
                    "name": "C3",
                    "midi": 48,
                    "time": 12.727274,
                    "velocity": 0.7874015748031497,
                    "duration": 1.3636365000000001
                },
                {
                    "name": "A#2",
                    "midi": 46,
                    "time": 14.0909105,
                    "velocity": 0.7874015748031497,
                    "duration": 0.45454550000000005
                },
                {
                    "name": "G#2",
                    "midi": 44,
                    "time": 14.545456,
                    "velocity": 0.7874015748031497,
                    "duration": 1.8181819999999984
                },
                {
                    "name": "A2",
                    "midi": 45,
                    "time": 16.363637999999998,
                    "velocity": 0.7874015748031497,
                    "duration": 1.8181820000000002
                },
                {
                    "name": "A#2",
                    "midi": 46,
                    "time": 18.18182,
                    "velocity": 0.7874015748031497,
                    "duration": 0.9090910000000001
                },
                {
                    "name": "F#2",
                    "midi": 42,
                    "time": 20.000002,
                    "velocity": 0.7874015748031497,
                    "duration": 1.8181820000000002
                },
                {
                    "name": "G2",
                    "midi": 43,
                    "time": 21.818184,
                    "velocity": 0.7874015748031497,
                    "duration": 1.8181820000000002
                },
                {
                    "name": "E2",
                    "midi": 40,
                    "time": 23.636366,
                    "velocity": 0.7874015748031497,
                    "duration": 1.8181820000000002
                },
                {
                    "name": "F2",
                    "midi": 41,
                    "time": 25.454548,
                    "velocity": 0.7874015748031497,
                    "duration": 1.8181820000000002
                },
                {
                    "name": "D#2",
                    "midi": 39,
                    "time": 27.27273,
                    "velocity": 0.7874015748031497,
                    "duration": 1.8181820000000002
                },
                {
                    "name": "D2",
                    "midi": 38,
                    "time": 29.090912,
                    "velocity": 0.7874015748031497,
                    "duration": 2.7272730000000003
                },
                {
                    "name": "C2",
                    "midi": 36,
                    "time": 31.818185,
                    "velocity": 0.7874015748031497,
                    "duration": 0.9090909999999965
                },
                {
                    "name": "B1",
                    "midi": 35,
                    "time": 32.727275999999996,
                    "velocity": 0.7874015748031497,
                    "duration": 2.7272729999999967
                },
                {
                    "name": "C2",
                    "midi": 36,
                    "time": 35.45454899999999,
                    "velocity": 0.7874015748031497,
                    "duration": 0.6818182499999992
                },
                {
                    "name": "A#1",
                    "midi": 34,
                    "time": 36.13636724999999,
                    "velocity": 0.7874015748031497,
                    "duration": 0.22727274999999736
                },
                {
                    "name": "G#1",
                    "midi": 32,
                    "time": 36.36363999999999,
                    "velocity": 0.7874015748031497,
                    "duration": 0.9090909999999965
                },
                {
                    "name": "G1",
                    "midi": 31,
                    "time": 37.272730999999986,
                    "velocity": 0.7874015748031497,
                    "duration": 0.9090909999999965
                },
                {
                    "name": "F#1",
                    "midi": 30,
                    "time": 38.18182199999998,
                    "velocity": 0.7874015748031497,
                    "duration": 0.9090909999999965
                },
                {
                    "name": "F1",
                    "midi": 29,
                    "time": 39.09091299999998,
                    "velocity": 0.7874015748031497,
                    "duration": 1.8181820000000002
                },
                {
                    "name": "D#1",
                    "midi": 27,
                    "time": 40.90909499999998,
                    "velocity": 0.7874015748031497,
                    "duration": 0.9090909999999965
                },
                {
                    "name": "G1",
                    "midi": 31,
                    "time": 41.818185999999976,
                    "velocity": 0.7874015748031497,
                    "duration": 1.8181820000000002
                },
                {
                    "name": "C2",
                    "midi": 36,
                    "time": 43.636367999999976,
                    "velocity": 0.7874015748031497,
                    "duration": 0.9090909999999965
                },
                {
                    "name": "D2",
                    "midi": 38,
                    "time": 56.81818749999997,
                    "velocity": 0.7874015748031497,
                    "duration": 0.4545455000000018
                },
                {
                    "name": "G2",
                    "midi": 43,
                    "time": 57.272732999999974,
                    "velocity": 0.7874015748031497,
                    "duration": 0.4545455000000018
                },
                {
                    "name": "D2",
                    "midi": 38,
                    "time": 57.727278499999976,
                    "velocity": 0.7874015748031497,
                    "duration": 0.4545455000000018
                },
                {
                    "name": "G2",
                    "midi": 43,
                    "time": 58.18182399999998,
                    "velocity": 0.7874015748031497,
                    "duration": 0.4545455000000018
                },
                {
                    "name": "A#2",
                    "midi": 46,
                    "time": 58.63636949999998,
                    "velocity": 0.7874015748031497,
                    "duration": 0.4545455000000018
                },
                {
                    "name": "G2",
                    "midi": 43,
                    "time": 59.09091499999998,
                    "velocity": 0.7874015748031497,
                    "duration": 0.4545455000000018
                },
                {
                    "name": "A#2",
                    "midi": 46,
                    "time": 59.54546049999998,
                    "velocity": 0.7874015748031497,
                    "duration": 0.4545455000000018
                },
                {
                    "name": "G2",
                    "midi": 43,
                    "time": 60.000005999999985,
                    "velocity": 0.7874015748031497,
                    "duration": 0.4545455000000018
                },
                {
                    "name": "D2",
                    "midi": 38,
                    "time": 60.45455149999999,
                    "velocity": 0.7874015748031497,
                    "duration": 0.4545455000000018
                },
                {
                    "name": "G2",
                    "midi": 43,
                    "time": 60.90909699999999,
                    "velocity": 0.7874015748031497,
                    "duration": 0.4545455000000018
                },
                {
                    "name": "D2",
                    "midi": 38,
                    "time": 61.36364249999999,
                    "velocity": 0.7874015748031497,
                    "duration": 0.4545455000000018
                },
                {
                    "name": "G2",
                    "midi": 43,
                    "time": 61.81818799999999,
                    "velocity": 0.7874015748031497,
                    "duration": 0.4545455000000018
                },
                {
                    "name": "G1",
                    "midi": 31,
                    "time": 62.272733499999994,
                    "velocity": 0.7874015748031497,
                    "duration": 0.4545455000000018
                },
                {
                    "name": "C2",
                    "midi": 36,
                    "time": 62.727278999999996,
                    "velocity": 0.7874015748031497,
                    "duration": 0.4545455000000018
                },
                {
                    "name": "G1",
                    "midi": 31,
                    "time": 63.1818245,
                    "velocity": 0.7874015748031497,
                    "duration": 0.4545455000000018
                },
                {
                    "name": "C2",
                    "midi": 36,
                    "time": 63.63637,
                    "velocity": 0.7874015748031497,
                    "duration": 0.4545454999999947
                },
                {
                    "name": "D#2",
                    "midi": 39,
                    "time": 64.0909155,
                    "velocity": 0.7874015748031497,
                    "duration": 0.4545454999999947
                },
                {
                    "name": "C2",
                    "midi": 36,
                    "time": 64.54546099999999,
                    "velocity": 0.7874015748031497,
                    "duration": 0.4545454999999947
                },
                {
                    "name": "D#2",
                    "midi": 39,
                    "time": 65.00000649999998,
                    "velocity": 0.7874015748031497,
                    "duration": 0.4545454999999947
                },
                {
                    "name": "C2",
                    "midi": 36,
                    "time": 65.45455199999998,
                    "velocity": 0.7874015748031497,
                    "duration": 0.4545454999999947
                },
                {
                    "name": "C2",
                    "midi": 36,
                    "time": 65.90909749999997,
                    "velocity": 0.7874015748031497,
                    "duration": 0.4545454999999947
                },
                {
                    "name": "F2",
                    "midi": 41,
                    "time": 66.36364299999997,
                    "velocity": 0.7874015748031497,
                    "duration": 0.4545454999999947
                },
                {
                    "name": "C2",
                    "midi": 36,
                    "time": 66.81818849999996,
                    "velocity": 0.7874015748031497,
                    "duration": 0.4545454999999947
                },
                {
                    "name": "F2",
                    "midi": 41,
                    "time": 67.27273399999996,
                    "velocity": 0.7874015748031497,
                    "duration": 0.4545454999999947
                },
                {
                    "name": "G#2",
                    "midi": 44,
                    "time": 67.72727949999995,
                    "velocity": 0.7874015748031497,
                    "duration": 0.4545454999999947
                },
                {
                    "name": "F2",
                    "midi": 41,
                    "time": 68.18182499999995,
                    "velocity": 0.7874015748031497,
                    "duration": 0.4545454999999947
                },
                {
                    "name": "G#2",
                    "midi": 44,
                    "time": 68.63637049999994,
                    "velocity": 0.7874015748031497,
                    "duration": 0.4545454999999947
                },
                {
                    "name": "G2",
                    "midi": 43,
                    "time": 69.09091599999994,
                    "velocity": 0.7874015748031497,
                    "duration": 0.4545454999999947
                },
                {
                    "name": "G1",
                    "midi": 31,
                    "time": 69.54546149999993,
                    "velocity": 0.7874015748031497,
                    "duration": 0.4545454999999947
                },
                {
                    "name": "G2",
                    "midi": 43,
                    "time": 70.00000699999993,
                    "velocity": 0.7874015748031497,
                    "duration": 0.4545454999999947
                },
                {
                    "name": "G1",
                    "midi": 31,
                    "time": 70.45455249999992,
                    "velocity": 0.7874015748031497,
                    "duration": 0.4545454999999947
                },
                {
                    "name": "G2",
                    "midi": 43,
                    "time": 70.90909799999991,
                    "velocity": 0.7874015748031497,
                    "duration": 0.4545454999999947
                },
                {
                    "name": "G1",
                    "midi": 31,
                    "time": 71.36364349999991,
                    "velocity": 0.7874015748031497,
                    "duration": 0.4545454999999947
                },
                {
                    "name": "G2",
                    "midi": 43,
                    "time": 71.8181889999999,
                    "velocity": 0.7874015748031497,
                    "duration": 0.4545454999999947
                },
                {
                    "name": "G1",
                    "midi": 31,
                    "time": 72.2727344999999,
                    "velocity": 0.7874015748031497,
                    "duration": 0.4545454999999947
                },
                {
                    "name": "C2",
                    "midi": 36,
                    "time": 72.7272799999999,
                    "velocity": 0.7874015748031497,
                    "duration": 0.9090910000000036
                },
                {
                    "name": "F2",
                    "midi": 41,
                    "time": 76.8181894999999,
                    "velocity": 0.7874015748031497,
                    "duration": 0.4545454999999947
                },
                {
                    "name": "A#2",
                    "midi": 46,
                    "time": 77.2727349999999,
                    "velocity": 0.7874015748031497,
                    "duration": 0.4545454999999947
                },
                {
                    "name": "F2",
                    "midi": 41,
                    "time": 77.72728049999989,
                    "velocity": 0.7874015748031497,
                    "duration": 0.4545454999999947
                },
                {
                    "name": "A#2",
                    "midi": 46,
                    "time": 78.18182599999989,
                    "velocity": 0.7874015748031497,
                    "duration": 0.4545454999999947
                },
                {
                    "name": "D3",
                    "midi": 50,
                    "time": 78.63637149999988,
                    "velocity": 0.7874015748031497,
                    "duration": 0.4545454999999947
                },
                {
                    "name": "A#2",
                    "midi": 46,
                    "time": 79.09091699999988,
                    "velocity": 0.7874015748031497,
                    "duration": 0.4545454999999947
                },
                {
                    "name": "D3",
                    "midi": 50,
                    "time": 79.54546249999987,
                    "velocity": 0.7874015748031497,
                    "duration": 0.4545454999999947
                },
                {
                    "name": "A#2",
                    "midi": 46,
                    "time": 80.00000799999987,
                    "velocity": 0.7874015748031497,
                    "duration": 0.4545454999999947
                },
                {
                    "name": "A#1",
                    "midi": 34,
                    "time": 80.45455349999986,
                    "velocity": 0.7874015748031497,
                    "duration": 0.4545454999999947
                },
                {
                    "name": "D#2",
                    "midi": 39,
                    "time": 80.90909899999986,
                    "velocity": 0.7874015748031497,
                    "duration": 0.4545454999999947
                },
                {
                    "name": "A#1",
                    "midi": 34,
                    "time": 81.36364449999985,
                    "velocity": 0.7874015748031497,
                    "duration": 0.4545454999999947
                },
                {
                    "name": "D#2",
                    "midi": 39,
                    "time": 81.81818999999984,
                    "velocity": 0.7874015748031497,
                    "duration": 0.4545454999999947
                },
                {
                    "name": "G2",
                    "midi": 43,
                    "time": 82.27273549999984,
                    "velocity": 0.7874015748031497,
                    "duration": 0.4545454999999947
                },
                {
                    "name": "D#2",
                    "midi": 39,
                    "time": 82.72728099999983,
                    "velocity": 0.7874015748031497,
                    "duration": 0.4545454999999947
                },
                {
                    "name": "G2",
                    "midi": 43,
                    "time": 83.18182649999983,
                    "velocity": 0.7874015748031497,
                    "duration": 0.4545454999999947
                },
                {
                    "name": "D#2",
                    "midi": 39,
                    "time": 83.63637199999982,
                    "velocity": 0.7874015748031497,
                    "duration": 0.4545454999999947
                },
                {
                    "name": "F2",
                    "midi": 41,
                    "time": 84.09091749999982,
                    "velocity": 0.7874015748031497,
                    "duration": 0.4545454999999947
                },
                {
                    "name": "G2",
                    "midi": 43,
                    "time": 84.54546299999981,
                    "velocity": 0.7874015748031497,
                    "duration": 0.4545454999999947
                },
                {
                    "name": "D#2",
                    "midi": 39,
                    "time": 85.00000849999981,
                    "velocity": 0.7874015748031497,
                    "duration": 0.4545454999999947
                },
                {
                    "name": "G#2",
                    "midi": 44,
                    "time": 85.4545539999998,
                    "velocity": 0.7874015748031497,
                    "duration": 0.4545454999999947
                },
                {
                    "name": "G#2",
                    "midi": 44,
                    "time": 85.9090994999998,
                    "velocity": 0.7874015748031497,
                    "duration": 0.4545454999999947
                },
                {
                    "name": "F2",
                    "midi": 41,
                    "time": 86.36364499999979,
                    "velocity": 0.7874015748031497,
                    "duration": 0.4545454999999947
                },
                {
                    "name": "G#2",
                    "midi": 44,
                    "time": 86.81819049999979,
                    "velocity": 0.7874015748031497,
                    "duration": 0.4545454999999947
                },
                {
                    "name": "F2",
                    "midi": 41,
                    "time": 87.27273599999978,
                    "velocity": 0.7874015748031497,
                    "duration": 0.4545454999999947
                },
                {
                    "name": "F1",
                    "midi": 29,
                    "time": 87.72728149999978,
                    "velocity": 0.7874015748031497,
                    "duration": 0.4545454999999947
                },
                {
                    "name": "F2",
                    "midi": 41,
                    "time": 88.18182699999977,
                    "velocity": 0.7874015748031497,
                    "duration": 0.4545454999999947
                },
                {
                    "name": "F1",
                    "midi": 29,
                    "time": 88.63637249999977,
                    "velocity": 0.7874015748031497,
                    "duration": 0.4545454999999947
                },
                {
                    "name": "F2",
                    "midi": 41,
                    "time": 89.09091799999976,
                    "velocity": 0.7874015748031497,
                    "duration": 0.4545454999999947
                },
                {
                    "name": "F1",
                    "midi": 29,
                    "time": 89.54546349999976,
                    "velocity": 0.7874015748031497,
                    "duration": 0.4545454999999947
                },
                {
                    "name": "F2",
                    "midi": 41,
                    "time": 90.00000899999975,
                    "velocity": 0.7874015748031497,
                    "duration": 0.4545454999999947
                },
                {
                    "name": "F1",
                    "midi": 29,
                    "time": 90.45455449999974,
                    "velocity": 0.7874015748031497,
                    "duration": 0.4545454999999947
                },
                {
                    "name": "A#1",
                    "midi": 34,
                    "time": 90.90909999999974,
                    "velocity": 0.7874015748031497,
                    "duration": 0.4545454999999947
                },
                {
                    "name": "A#2",
                    "midi": 46,
                    "time": 91.36364549999973,
                    "velocity": 0.7874015748031497,
                    "duration": 0.4545454999999947
                },
                {
                    "name": "A#1",
                    "midi": 34,
                    "time": 91.81819099999973,
                    "velocity": 0.7874015748031497,
                    "duration": 0.4545454999999947
                },
                {
                    "name": "A#2",
                    "midi": 46,
                    "time": 92.27273649999972,
                    "velocity": 0.7874015748031497,
                    "duration": 0.4545454999999947
                },
                {
                    "name": "G#1",
                    "midi": 32,
                    "time": 92.72728199999972,
                    "velocity": 0.7874015748031497,
                    "duration": 0.4545454999999947
                },
                {
                    "name": "G#2",
                    "midi": 44,
                    "time": 93.18182749999971,
                    "velocity": 0.7874015748031497,
                    "duration": 0.4545454999999947
                },
                {
                    "name": "G#1",
                    "midi": 32,
                    "time": 93.63637299999971,
                    "velocity": 0.7874015748031497,
                    "duration": 0.4545454999999947
                },
                {
                    "name": "G#2",
                    "midi": 44,
                    "time": 94.0909184999997,
                    "velocity": 0.7874015748031497,
                    "duration": 0.4545454999999947
                },
                {
                    "name": "G1",
                    "midi": 31,
                    "time": 94.5454639999997,
                    "velocity": 0.7874015748031497,
                    "duration": 0.4545454999999947
                },
                {
                    "name": "G2",
                    "midi": 43,
                    "time": 95.00000949999969,
                    "velocity": 0.7874015748031497,
                    "duration": 0.4545454999999947
                },
                {
                    "name": "G1",
                    "midi": 31,
                    "time": 95.45455499999969,
                    "velocity": 0.7874015748031497,
                    "duration": 0.4545454999999947
                },
                {
                    "name": "G2",
                    "midi": 43,
                    "time": 95.90910049999968,
                    "velocity": 0.7874015748031497,
                    "duration": 0.4545454999999947
                },
                {
                    "name": "F1",
                    "midi": 29,
                    "time": 96.36364599999968,
                    "velocity": 0.7874015748031497,
                    "duration": 0.4545454999999947
                },
                {
                    "name": "F2",
                    "midi": 41,
                    "time": 96.81819149999967,
                    "velocity": 0.7874015748031497,
                    "duration": 0.4545454999999947
                },
                {
                    "name": "F1",
                    "midi": 29,
                    "time": 97.27273699999967,
                    "velocity": 0.7874015748031497,
                    "duration": 0.4545454999999947
                },
                {
                    "name": "F2",
                    "midi": 41,
                    "time": 97.72728249999966,
                    "velocity": 0.7874015748031497,
                    "duration": 0.4545454999999947
                },
                {
                    "name": "D#1",
                    "midi": 27,
                    "time": 98.18182799999965,
                    "velocity": 0.7874015748031497,
                    "duration": 0.4545454999999947
                },
                {
                    "name": "D#2",
                    "midi": 39,
                    "time": 98.63637349999965,
                    "velocity": 0.7874015748031497,
                    "duration": 0.4545454999999947
                },
                {
                    "name": "D#1",
                    "midi": 27,
                    "time": 99.09091899999964,
                    "velocity": 0.7874015748031497,
                    "duration": 0.4545454999999947
                },
                {
                    "name": "D#2",
                    "midi": 39,
                    "time": 99.54546449999964,
                    "velocity": 0.7874015748031497,
                    "duration": 0.4545454999999947
                },
                {
                    "name": "D1",
                    "midi": 26,
                    "time": 100.00000999999963,
                    "velocity": 0.7874015748031497,
                    "duration": 0.4545454999999947
                },
                {
                    "name": "D2",
                    "midi": 38,
                    "time": 100.45455549999963,
                    "velocity": 0.7874015748031497,
                    "duration": 0.4545454999999947
                },
                {
                    "name": "D1",
                    "midi": 26,
                    "time": 100.90910099999962,
                    "velocity": 0.7874015748031497,
                    "duration": 0.4545454999999947
                },
                {
                    "name": "D2",
                    "midi": 38,
                    "time": 101.36364649999962,
                    "velocity": 0.7874015748031497,
                    "duration": 0.4545454999999947
                },
                {
                    "name": "C1",
                    "midi": 24,
                    "time": 101.81819199999961,
                    "velocity": 0.7874015748031497,
                    "duration": 0.4545454999999947
                },
                {
                    "name": "C2",
                    "midi": 36,
                    "time": 102.27273749999961,
                    "velocity": 0.7874015748031497,
                    "duration": 0.4545454999999947
                },
                {
                    "name": "C1",
                    "midi": 24,
                    "time": 102.7272829999996,
                    "velocity": 0.7874015748031497,
                    "duration": 0.4545454999999947
                },
                {
                    "name": "C2",
                    "midi": 36,
                    "time": 103.1818284999996,
                    "velocity": 0.7874015748031497,
                    "duration": 0.4545454999999947
                },
                {
                    "name": "D1",
                    "midi": 26,
                    "time": 103.63637399999959,
                    "velocity": 0.7874015748031497,
                    "duration": 0.4545454999999947
                },
                {
                    "name": "D2",
                    "midi": 38,
                    "time": 104.09091949999959,
                    "velocity": 0.7874015748031497,
                    "duration": 0.4545454999999947
                },
                {
                    "name": "D1",
                    "midi": 26,
                    "time": 104.54546499999958,
                    "velocity": 0.7874015748031497,
                    "duration": 0.4545454999999947
                },
                {
                    "name": "D2",
                    "midi": 38,
                    "time": 105.00001049999958,
                    "velocity": 0.7874015748031497,
                    "duration": 0.4545454999999947
                },
                {
                    "name": "D#1",
                    "midi": 27,
                    "time": 105.45455599999957,
                    "velocity": 0.7874015748031497,
                    "duration": 0.4545454999999947
                },
                {
                    "name": "D#2",
                    "midi": 39,
                    "time": 105.90910149999957,
                    "velocity": 0.7874015748031497,
                    "duration": 0.4545454999999947
                },
                {
                    "name": "D#1",
                    "midi": 27,
                    "time": 106.36364699999956,
                    "velocity": 0.7874015748031497,
                    "duration": 0.4545454999999947
                },
                {
                    "name": "D#2",
                    "midi": 39,
                    "time": 106.81819249999955,
                    "velocity": 0.7874015748031497,
                    "duration": 0.4545454999999947
                },
                {
                    "name": "F1",
                    "midi": 29,
                    "time": 107.27273799999955,
                    "velocity": 0.7874015748031497,
                    "duration": 0.4545454999999947
                },
                {
                    "name": "F2",
                    "midi": 41,
                    "time": 107.72728349999954,
                    "velocity": 0.7874015748031497,
                    "duration": 0.4545454999999947
                },
                {
                    "name": "F1",
                    "midi": 29,
                    "time": 108.18182899999954,
                    "velocity": 0.7874015748031497,
                    "duration": 0.4545454999999947
                },
                {
                    "name": "F2",
                    "midi": 41,
                    "time": 108.63637449999953,
                    "velocity": 0.7874015748031497,
                    "duration": 0.4545454999999947
                },
                {
                    "name": "D#1",
                    "midi": 27,
                    "time": 109.09091999999953,
                    "velocity": 0.7874015748031497,
                    "duration": 0.4545454999999947
                },
                {
                    "name": "D#2",
                    "midi": 39,
                    "time": 109.54546549999952,
                    "velocity": 0.7874015748031497,
                    "duration": 0.4545454999999947
                },
                {
                    "name": "D#1",
                    "midi": 27,
                    "time": 110.00001099999952,
                    "velocity": 0.7874015748031497,
                    "duration": 0.4545454999999947
                },
                {
                    "name": "D#2",
                    "midi": 39,
                    "time": 110.45455649999951,
                    "velocity": 0.7874015748031497,
                    "duration": 0.4545454999999947
                },
                {
                    "name": "D1",
                    "midi": 26,
                    "time": 110.9091019999995,
                    "velocity": 0.7874015748031497,
                    "duration": 0.4545454999999947
                },
                {
                    "name": "D2",
                    "midi": 38,
                    "time": 111.3636474999995,
                    "velocity": 0.7874015748031497,
                    "duration": 0.4545454999999947
                },
                {
                    "name": "D1",
                    "midi": 26,
                    "time": 111.8181929999995,
                    "velocity": 0.7874015748031497,
                    "duration": 0.4545454999999947
                },
                {
                    "name": "D2",
                    "midi": 38,
                    "time": 112.27273849999949,
                    "velocity": 0.7874015748031497,
                    "duration": 0.4545454999999947
                },
                {
                    "name": "E1",
                    "midi": 28,
                    "time": 112.72728399999949,
                    "velocity": 0.7874015748031497,
                    "duration": 0.4545454999999947
                },
                {
                    "name": "E2",
                    "midi": 40,
                    "time": 113.18182949999948,
                    "velocity": 0.7874015748031497,
                    "duration": 0.4545454999999947
                },
                {
                    "name": "E1",
                    "midi": 28,
                    "time": 113.63637499999948,
                    "velocity": 0.7874015748031497,
                    "duration": 0.4545454999999947
                },
                {
                    "name": "E2",
                    "midi": 40,
                    "time": 114.09092049999947,
                    "velocity": 0.7874015748031497,
                    "duration": 0.4545454999999947
                },
                {
                    "name": "F1",
                    "midi": 29,
                    "time": 114.54546599999946,
                    "velocity": 0.7874015748031497,
                    "duration": 0.4545454999999947
                },
                {
                    "name": "F2",
                    "midi": 41,
                    "time": 115.00001149999946,
                    "velocity": 0.7874015748031497,
                    "duration": 0.4545454999999947
                },
                {
                    "name": "F1",
                    "midi": 29,
                    "time": 115.45455699999945,
                    "velocity": 0.7874015748031497,
                    "duration": 0.4545454999999947
                },
                {
                    "name": "F2",
                    "midi": 41,
                    "time": 115.90910249999945,
                    "velocity": 0.7874015748031497,
                    "duration": 0.4545454999999947
                },
                {
                    "name": "G1",
                    "midi": 31,
                    "time": 116.36364799999944,
                    "velocity": 0.7874015748031497,
                    "duration": 0.4545454999999947
                },
                {
                    "name": "G2",
                    "midi": 43,
                    "time": 116.81819349999944,
                    "velocity": 0.7874015748031497,
                    "duration": 0.4545454999999947
                },
                {
                    "name": "G1",
                    "midi": 31,
                    "time": 117.27273899999943,
                    "velocity": 0.7874015748031497,
                    "duration": 0.4545454999999947
                },
                {
                    "name": "G2",
                    "midi": 43,
                    "time": 117.72728449999943,
                    "velocity": 0.7874015748031497,
                    "duration": 0.4545454999999947
                },
                {
                    "name": "A1",
                    "midi": 33,
                    "time": 118.18182999999942,
                    "velocity": 0.7874015748031497,
                    "duration": 0.4545454999999947
                },
                {
                    "name": "A2",
                    "midi": 45,
                    "time": 118.63637549999942,
                    "velocity": 0.7874015748031497,
                    "duration": 0.4545454999999947
                },
                {
                    "name": "A1",
                    "midi": 33,
                    "time": 119.09092099999941,
                    "velocity": 0.7874015748031497,
                    "duration": 0.4545454999999947
                },
                {
                    "name": "A2",
                    "midi": 45,
                    "time": 119.5454664999994,
                    "velocity": 0.7874015748031497,
                    "duration": 0.4545454999999947
                },
                {
                    "name": "A#1",
                    "midi": 34,
                    "time": 120.0000119999994,
                    "velocity": 0.7874015748031497,
                    "duration": 0.4545454999999947
                },
                {
                    "name": "A#2",
                    "midi": 46,
                    "time": 120.4545574999994,
                    "velocity": 0.7874015748031497,
                    "duration": 0.4545454999999947
                },
                {
                    "name": "A#1",
                    "midi": 34,
                    "time": 120.90910299999939,
                    "velocity": 0.7874015748031497,
                    "duration": 0.4545454999999947
                },
                {
                    "name": "A#2",
                    "midi": 46,
                    "time": 121.36364849999939,
                    "velocity": 0.7874015748031497,
                    "duration": 0.4545454999999947
                },
                {
                    "name": "C2",
                    "midi": 36,
                    "time": 121.81819399999938,
                    "velocity": 0.7874015748031497,
                    "duration": 0.4545454999999947
                },
                {
                    "name": "C3",
                    "midi": 48,
                    "time": 122.27273949999937,
                    "velocity": 0.7874015748031497,
                    "duration": 0.4545454999999947
                },
                {
                    "name": "C2",
                    "midi": 36,
                    "time": 122.72728499999937,
                    "velocity": 0.7874015748031497,
                    "duration": 0.4545454999999947
                },
                {
                    "name": "C3",
                    "midi": 48,
                    "time": 123.18183049999936,
                    "velocity": 0.7874015748031497,
                    "duration": 0.4545454999999947
                },
                {
                    "name": "D2",
                    "midi": 38,
                    "time": 123.63637599999936,
                    "velocity": 0.7874015748031497,
                    "duration": 0.4545454999999947
                },
                {
                    "name": "D3",
                    "midi": 50,
                    "time": 124.09092149999935,
                    "velocity": 0.7874015748031497,
                    "duration": 0.4545454999999947
                },
                {
                    "name": "D2",
                    "midi": 38,
                    "time": 124.54546699999935,
                    "velocity": 0.7874015748031497,
                    "duration": 0.4545454999999947
                },
                {
                    "name": "D3",
                    "midi": 50,
                    "time": 125.00001249999934,
                    "velocity": 0.7874015748031497,
                    "duration": 0.4545454999999947
                },
                {
                    "name": "D#1",
                    "midi": 27,
                    "time": 125.45455799999934,
                    "velocity": 0.7874015748031497,
                    "duration": 0.4545454999999947
                },
                {
                    "name": "D#2",
                    "midi": 39,
                    "time": 125.90910349999933,
                    "velocity": 0.7874015748031497,
                    "duration": 0.4545454999999947
                },
                {
                    "name": "D#1",
                    "midi": 27,
                    "time": 126.36364899999933,
                    "velocity": 0.7874015748031497,
                    "duration": 0.4545454999999947
                },
                {
                    "name": "D#2",
                    "midi": 39,
                    "time": 126.81819449999932,
                    "velocity": 0.7874015748031497,
                    "duration": 0.4545454999999947
                },
                {
                    "name": "F1",
                    "midi": 29,
                    "time": 127.27273999999932,
                    "velocity": 0.7874015748031497,
                    "duration": 0.4545454999999947
                },
                {
                    "name": "F2",
                    "midi": 41,
                    "time": 127.72728549999931,
                    "velocity": 0.7874015748031497,
                    "duration": 0.4545454999999947
                },
                {
                    "name": "F1",
                    "midi": 29,
                    "time": 128.1818309999993,
                    "velocity": 0.7874015748031497,
                    "duration": 0.4545454999999947
                },
                {
                    "name": "F2",
                    "midi": 41,
                    "time": 128.6363764999993,
                    "velocity": 0.7874015748031497,
                    "duration": 0.4545454999999947
                },
                {
                    "name": "G1",
                    "midi": 31,
                    "time": 129.0909219999993,
                    "velocity": 0.7874015748031497,
                    "duration": 0.4545454999999947
                },
                {
                    "name": "G2",
                    "midi": 43,
                    "time": 129.5454674999993,
                    "velocity": 0.7874015748031497,
                    "duration": 0.4545454999999947
                },
                {
                    "name": "G1",
                    "midi": 31,
                    "time": 130.00001299999929,
                    "velocity": 0.7874015748031497,
                    "duration": 0.4545454999999947
                },
                {
                    "name": "G2",
                    "midi": 43,
                    "time": 130.45455849999928,
                    "velocity": 0.7874015748031497,
                    "duration": 0.4545454999999947
                },
                {
                    "name": "G#1",
                    "midi": 32,
                    "time": 130.90910399999927,
                    "velocity": 0.7874015748031497,
                    "duration": 0.4545454999999947
                },
                {
                    "name": "G#2",
                    "midi": 44,
                    "time": 131.36364949999927,
                    "velocity": 0.7874015748031497,
                    "duration": 0.4545454999999947
                },
                {
                    "name": "G#1",
                    "midi": 32,
                    "time": 131.81819499999926,
                    "velocity": 0.7874015748031497,
                    "duration": 0.4545454999999947
                },
                {
                    "name": "G#2",
                    "midi": 44,
                    "time": 132.27274049999926,
                    "velocity": 0.7874015748031497,
                    "duration": 0.4545454999999947
                },
                {
                    "name": "G2",
                    "midi": 43,
                    "time": 132.72728599999925,
                    "velocity": 0.7874015748031497,
                    "duration": 0.4545454999999947
                },
                {
                    "name": "F2",
                    "midi": 41,
                    "time": 133.18183149999925,
                    "velocity": 0.7874015748031497,
                    "duration": 0.4545454999999947
                },
                {
                    "name": "G2",
                    "midi": 43,
                    "time": 133.63637699999924,
                    "velocity": 0.7874015748031497,
                    "duration": 0.4545454999999947
                },
                {
                    "name": "G1",
                    "midi": 31,
                    "time": 134.09092249999924,
                    "velocity": 0.7874015748031497,
                    "duration": 0.4545454999999947
                },
                {
                    "name": "C2",
                    "midi": 36,
                    "time": 134.54546799999923,
                    "velocity": 0.7874015748031497,
                    "duration": 0.9090909999999894
                },
                {
                    "name": "D2",
                    "midi": 38,
                    "time": 147.72728749999922,
                    "velocity": 0.7874015748031497,
                    "duration": 0.4545454999999947
                },
                {
                    "name": "G2",
                    "midi": 43,
                    "time": 148.18183299999922,
                    "velocity": 0.7874015748031497,
                    "duration": 0.4545454999999947
                },
                {
                    "name": "D2",
                    "midi": 38,
                    "time": 148.6363784999992,
                    "velocity": 0.7874015748031497,
                    "duration": 0.4545454999999947
                },
                {
                    "name": "G2",
                    "midi": 43,
                    "time": 149.0909239999992,
                    "velocity": 0.7874015748031497,
                    "duration": 0.4545454999999947
                },
                {
                    "name": "A#2",
                    "midi": 46,
                    "time": 149.5454694999992,
                    "velocity": 0.7874015748031497,
                    "duration": 0.4545454999999947
                },
                {
                    "name": "G2",
                    "midi": 43,
                    "time": 150.0000149999992,
                    "velocity": 0.7874015748031497,
                    "duration": 0.4545454999999947
                },
                {
                    "name": "A#2",
                    "midi": 46,
                    "time": 150.4545604999992,
                    "velocity": 0.7874015748031497,
                    "duration": 0.4545454999999947
                },
                {
                    "name": "G2",
                    "midi": 43,
                    "time": 150.90910599999918,
                    "velocity": 0.7874015748031497,
                    "duration": 0.4545454999999947
                },
                {
                    "name": "D2",
                    "midi": 38,
                    "time": 151.36365149999918,
                    "velocity": 0.7874015748031497,
                    "duration": 0.4545454999999947
                },
                {
                    "name": "G2",
                    "midi": 43,
                    "time": 151.81819699999917,
                    "velocity": 0.7874015748031497,
                    "duration": 0.4545454999999947
                },
                {
                    "name": "D2",
                    "midi": 38,
                    "time": 152.27274249999917,
                    "velocity": 0.7874015748031497,
                    "duration": 0.4545454999999947
                },
                {
                    "name": "G2",
                    "midi": 43,
                    "time": 152.72728799999916,
                    "velocity": 0.7874015748031497,
                    "duration": 0.4545454999999947
                },
                {
                    "name": "G1",
                    "midi": 31,
                    "time": 153.18183349999916,
                    "velocity": 0.7874015748031497,
                    "duration": 0.4545454999999947
                },
                {
                    "name": "C2",
                    "midi": 36,
                    "time": 153.63637899999915,
                    "velocity": 0.7874015748031497,
                    "duration": 0.4545454999999947
                },
                {
                    "name": "G1",
                    "midi": 31,
                    "time": 154.09092449999915,
                    "velocity": 0.7874015748031497,
                    "duration": 0.4545454999999947
                },
                {
                    "name": "C2",
                    "midi": 36,
                    "time": 154.54546999999914,
                    "velocity": 0.7874015748031497,
                    "duration": 0.4545454999999947
                },
                {
                    "name": "D#2",
                    "midi": 39,
                    "time": 155.00001549999914,
                    "velocity": 0.7874015748031497,
                    "duration": 0.4545454999999947
                },
                {
                    "name": "C2",
                    "midi": 36,
                    "time": 155.45456099999913,
                    "velocity": 0.7874015748031497,
                    "duration": 0.4545454999999947
                },
                {
                    "name": "D#2",
                    "midi": 39,
                    "time": 155.90910649999913,
                    "velocity": 0.7874015748031497,
                    "duration": 0.4545454999999947
                },
                {
                    "name": "C2",
                    "midi": 36,
                    "time": 156.36365199999912,
                    "velocity": 0.7874015748031497,
                    "duration": 0.4545454999999947
                },
                {
                    "name": "C2",
                    "midi": 36,
                    "time": 156.81819749999912,
                    "velocity": 0.7874015748031497,
                    "duration": 0.4545454999999947
                },
                {
                    "name": "F2",
                    "midi": 41,
                    "time": 157.2727429999991,
                    "velocity": 0.7874015748031497,
                    "duration": 0.4545454999999947
                },
                {
                    "name": "C2",
                    "midi": 36,
                    "time": 157.7272884999991,
                    "velocity": 0.7874015748031497,
                    "duration": 0.4545454999999947
                },
                {
                    "name": "F2",
                    "midi": 41,
                    "time": 158.1818339999991,
                    "velocity": 0.7874015748031497,
                    "duration": 0.4545454999999947
                },
                {
                    "name": "G#2",
                    "midi": 44,
                    "time": 158.6363794999991,
                    "velocity": 0.7874015748031497,
                    "duration": 0.4545454999999947
                },
                {
                    "name": "F2",
                    "midi": 41,
                    "time": 159.0909249999991,
                    "velocity": 0.7874015748031497,
                    "duration": 0.4545454999999947
                },
                {
                    "name": "G#2",
                    "midi": 44,
                    "time": 159.54547049999908,
                    "velocity": 0.7874015748031497,
                    "duration": 0.4545454999999947
                },
                {
                    "name": "G2",
                    "midi": 43,
                    "time": 160.00001599999908,
                    "velocity": 0.7874015748031497,
                    "duration": 0.4545454999999947
                },
                {
                    "name": "G1",
                    "midi": 31,
                    "time": 160.45456149999907,
                    "velocity": 0.7874015748031497,
                    "duration": 0.4545454999999947
                },
                {
                    "name": "G2",
                    "midi": 43,
                    "time": 160.90910699999907,
                    "velocity": 0.7874015748031497,
                    "duration": 0.4545454999999947
                },
                {
                    "name": "G1",
                    "midi": 31,
                    "time": 161.36365249999906,
                    "velocity": 0.7874015748031497,
                    "duration": 0.4545454999999947
                },
                {
                    "name": "G2",
                    "midi": 43,
                    "time": 161.81819799999906,
                    "velocity": 0.7874015748031497,
                    "duration": 0.4545454999999947
                },
                {
                    "name": "G1",
                    "midi": 31,
                    "time": 162.27274349999905,
                    "velocity": 0.7874015748031497,
                    "duration": 0.4545454999999947
                },
                {
                    "name": "G2",
                    "midi": 43,
                    "time": 162.72728899999905,
                    "velocity": 0.7874015748031497,
                    "duration": 0.4545454999999947
                },
                {
                    "name": "G1",
                    "midi": 31,
                    "time": 163.18183449999904,
                    "velocity": 0.7874015748031497,
                    "duration": 0.4545454999999947
                },
                {
                    "name": "C2",
                    "midi": 36,
                    "time": 163.63637999999904,
                    "velocity": 0.7874015748031497,
                    "duration": 0.9090909999999894
                },
                {
                    "name": "F2",
                    "midi": 41,
                    "time": 167.72728949999902,
                    "velocity": 0.7874015748031497,
                    "duration": 0.4545454999999947
                },
                {
                    "name": "A#2",
                    "midi": 46,
                    "time": 168.181834999999,
                    "velocity": 0.7874015748031497,
                    "duration": 0.4545454999999947
                },
                {
                    "name": "F2",
                    "midi": 41,
                    "time": 168.636380499999,
                    "velocity": 0.7874015748031497,
                    "duration": 0.4545454999999947
                },
                {
                    "name": "A#2",
                    "midi": 46,
                    "time": 169.090925999999,
                    "velocity": 0.7874015748031497,
                    "duration": 0.4545454999999947
                },
                {
                    "name": "D3",
                    "midi": 50,
                    "time": 169.545471499999,
                    "velocity": 0.7874015748031497,
                    "duration": 0.4545454999999947
                },
                {
                    "name": "A#2",
                    "midi": 46,
                    "time": 170.000016999999,
                    "velocity": 0.7874015748031497,
                    "duration": 0.4545454999999947
                },
                {
                    "name": "D3",
                    "midi": 50,
                    "time": 170.45456249999899,
                    "velocity": 0.7874015748031497,
                    "duration": 0.4545454999999947
                },
                {
                    "name": "A#2",
                    "midi": 46,
                    "time": 170.90910799999898,
                    "velocity": 0.7874015748031497,
                    "duration": 0.4545454999999947
                },
                {
                    "name": "A#1",
                    "midi": 34,
                    "time": 171.36365349999897,
                    "velocity": 0.7874015748031497,
                    "duration": 0.4545454999999947
                },
                {
                    "name": "D#2",
                    "midi": 39,
                    "time": 171.81819899999897,
                    "velocity": 0.7874015748031497,
                    "duration": 0.4545454999999947
                },
                {
                    "name": "A#1",
                    "midi": 34,
                    "time": 172.27274449999896,
                    "velocity": 0.7874015748031497,
                    "duration": 0.4545454999999947
                },
                {
                    "name": "D#2",
                    "midi": 39,
                    "time": 172.72728999999896,
                    "velocity": 0.7874015748031497,
                    "duration": 0.4545454999999947
                },
                {
                    "name": "G2",
                    "midi": 43,
                    "time": 173.18183549999895,
                    "velocity": 0.7874015748031497,
                    "duration": 0.4545454999999947
                },
                {
                    "name": "D#2",
                    "midi": 39,
                    "time": 173.63638099999895,
                    "velocity": 0.7874015748031497,
                    "duration": 0.4545454999999947
                },
                {
                    "name": "G2",
                    "midi": 43,
                    "time": 174.09092649999894,
                    "velocity": 0.7874015748031497,
                    "duration": 0.4545454999999947
                },
                {
                    "name": "D#2",
                    "midi": 39,
                    "time": 174.54547199999894,
                    "velocity": 0.7874015748031497,
                    "duration": 0.4545454999999947
                },
                {
                    "name": "F2",
                    "midi": 41,
                    "time": 175.00001749999893,
                    "velocity": 0.7874015748031497,
                    "duration": 0.4545454999999947
                },
                {
                    "name": "G2",
                    "midi": 43,
                    "time": 175.45456299999893,
                    "velocity": 0.7874015748031497,
                    "duration": 0.4545454999999947
                },
                {
                    "name": "D#2",
                    "midi": 39,
                    "time": 175.90910849999892,
                    "velocity": 0.7874015748031497,
                    "duration": 0.4545454999999947
                },
                {
                    "name": "G#2",
                    "midi": 44,
                    "time": 176.36365399999892,
                    "velocity": 0.7874015748031497,
                    "duration": 0.4545454999999947
                },
                {
                    "name": "G#2",
                    "midi": 44,
                    "time": 176.8181994999989,
                    "velocity": 0.7874015748031497,
                    "duration": 0.4545454999999947
                },
                {
                    "name": "F2",
                    "midi": 41,
                    "time": 177.2727449999989,
                    "velocity": 0.7874015748031497,
                    "duration": 0.4545454999999947
                },
                {
                    "name": "G#2",
                    "midi": 44,
                    "time": 177.7272904999989,
                    "velocity": 0.7874015748031497,
                    "duration": 0.4545454999999947
                },
                {
                    "name": "F2",
                    "midi": 41,
                    "time": 178.1818359999989,
                    "velocity": 0.7874015748031497,
                    "duration": 0.4545454999999947
                },
                {
                    "name": "F1",
                    "midi": 29,
                    "time": 178.6363814999989,
                    "velocity": 0.7874015748031497,
                    "duration": 0.4545454999999947
                },
                {
                    "name": "F2",
                    "midi": 41,
                    "time": 179.09092699999889,
                    "velocity": 0.7874015748031497,
                    "duration": 0.4545454999999947
                },
                {
                    "name": "F1",
                    "midi": 29,
                    "time": 179.54547249999888,
                    "velocity": 0.7874015748031497,
                    "duration": 0.4545454999999947
                },
                {
                    "name": "F2",
                    "midi": 41,
                    "time": 180.00001799999887,
                    "velocity": 0.7874015748031497,
                    "duration": 0.4545454999999947
                },
                {
                    "name": "F1",
                    "midi": 29,
                    "time": 180.45456349999887,
                    "velocity": 0.7874015748031497,
                    "duration": 0.4545454999999947
                },
                {
                    "name": "F2",
                    "midi": 41,
                    "time": 180.90910899999886,
                    "velocity": 0.7874015748031497,
                    "duration": 0.4545454999999947
                },
                {
                    "name": "F1",
                    "midi": 29,
                    "time": 181.36365449999886,
                    "velocity": 0.7874015748031497,
                    "duration": 0.4545454999999947
                },
                {
                    "name": "A#1",
                    "midi": 34,
                    "time": 181.81819999999885,
                    "velocity": 0.7874015748031497,
                    "duration": 0.4545454999999947
                },
                {
                    "name": "A#2",
                    "midi": 46,
                    "time": 182.27274549999885,
                    "velocity": 0.7874015748031497,
                    "duration": 0.4545454999999947
                },
                {
                    "name": "A#1",
                    "midi": 34,
                    "time": 182.72729099999884,
                    "velocity": 0.7874015748031497,
                    "duration": 0.4545454999999947
                },
                {
                    "name": "A#2",
                    "midi": 46,
                    "time": 183.18183649999884,
                    "velocity": 0.7874015748031497,
                    "duration": 0.4545454999999947
                },
                {
                    "name": "G#1",
                    "midi": 32,
                    "time": 183.63638199999883,
                    "velocity": 0.7874015748031497,
                    "duration": 0.4545454999999947
                },
                {
                    "name": "G#2",
                    "midi": 44,
                    "time": 184.09092749999883,
                    "velocity": 0.7874015748031497,
                    "duration": 0.4545454999999947
                },
                {
                    "name": "G#1",
                    "midi": 32,
                    "time": 184.54547299999882,
                    "velocity": 0.7874015748031497,
                    "duration": 0.4545454999999947
                },
                {
                    "name": "G#2",
                    "midi": 44,
                    "time": 185.00001849999882,
                    "velocity": 0.7874015748031497,
                    "duration": 0.4545454999999947
                },
                {
                    "name": "G1",
                    "midi": 31,
                    "time": 185.4545639999988,
                    "velocity": 0.7874015748031497,
                    "duration": 0.4545454999999947
                },
                {
                    "name": "G2",
                    "midi": 43,
                    "time": 185.9091094999988,
                    "velocity": 0.7874015748031497,
                    "duration": 0.4545454999999947
                },
                {
                    "name": "G1",
                    "midi": 31,
                    "time": 186.3636549999988,
                    "velocity": 0.7874015748031497,
                    "duration": 0.4545454999999947
                },
                {
                    "name": "G2",
                    "midi": 43,
                    "time": 186.8182004999988,
                    "velocity": 0.7874015748031497,
                    "duration": 0.4545454999999947
                },
                {
                    "name": "F1",
                    "midi": 29,
                    "time": 187.2727459999988,
                    "velocity": 0.7874015748031497,
                    "duration": 0.4545454999999947
                },
                {
                    "name": "F2",
                    "midi": 41,
                    "time": 187.72729149999878,
                    "velocity": 0.7874015748031497,
                    "duration": 0.4545454999999947
                },
                {
                    "name": "F1",
                    "midi": 29,
                    "time": 188.18183699999878,
                    "velocity": 0.7874015748031497,
                    "duration": 0.4545454999999947
                },
                {
                    "name": "F2",
                    "midi": 41,
                    "time": 188.63638249999877,
                    "velocity": 0.7874015748031497,
                    "duration": 0.4545454999999947
                },
                {
                    "name": "D#1",
                    "midi": 27,
                    "time": 189.09092799999877,
                    "velocity": 0.7874015748031497,
                    "duration": 0.4545454999999947
                },
                {
                    "name": "D#2",
                    "midi": 39,
                    "time": 189.54547349999876,
                    "velocity": 0.7874015748031497,
                    "duration": 0.4545454999999947
                },
                {
                    "name": "D#1",
                    "midi": 27,
                    "time": 190.00001899999876,
                    "velocity": 0.7874015748031497,
                    "duration": 0.4545454999999947
                },
                {
                    "name": "D#2",
                    "midi": 39,
                    "time": 190.45456449999875,
                    "velocity": 0.7874015748031497,
                    "duration": 0.4545454999999947
                },
                {
                    "name": "D1",
                    "midi": 26,
                    "time": 190.90910999999875,
                    "velocity": 0.7874015748031497,
                    "duration": 0.4545454999999947
                },
                {
                    "name": "D2",
                    "midi": 38,
                    "time": 191.36365549999874,
                    "velocity": 0.7874015748031497,
                    "duration": 0.4545454999999947
                },
                {
                    "name": "D1",
                    "midi": 26,
                    "time": 191.81820099999874,
                    "velocity": 0.7874015748031497,
                    "duration": 0.4545454999999947
                },
                {
                    "name": "D2",
                    "midi": 38,
                    "time": 192.27274649999873,
                    "velocity": 0.7874015748031497,
                    "duration": 0.4545454999999947
                },
                {
                    "name": "C1",
                    "midi": 24,
                    "time": 192.72729199999873,
                    "velocity": 0.7874015748031497,
                    "duration": 0.4545454999999947
                },
                {
                    "name": "C2",
                    "midi": 36,
                    "time": 193.18183749999872,
                    "velocity": 0.7874015748031497,
                    "duration": 0.4545454999999947
                },
                {
                    "name": "C1",
                    "midi": 24,
                    "time": 193.63638299999872,
                    "velocity": 0.7874015748031497,
                    "duration": 0.4545454999999947
                },
                {
                    "name": "C2",
                    "midi": 36,
                    "time": 194.0909284999987,
                    "velocity": 0.7874015748031497,
                    "duration": 0.4545454999999947
                },
                {
                    "name": "D1",
                    "midi": 26,
                    "time": 194.5454739999987,
                    "velocity": 0.7874015748031497,
                    "duration": 0.4545454999999947
                },
                {
                    "name": "D2",
                    "midi": 38,
                    "time": 195.0000194999987,
                    "velocity": 0.7874015748031497,
                    "duration": 0.4545454999999947
                },
                {
                    "name": "D1",
                    "midi": 26,
                    "time": 195.4545649999987,
                    "velocity": 0.7874015748031497,
                    "duration": 0.4545454999999947
                },
                {
                    "name": "D2",
                    "midi": 38,
                    "time": 195.9091104999987,
                    "velocity": 0.7874015748031497,
                    "duration": 0.4545454999999947
                },
                {
                    "name": "D#1",
                    "midi": 27,
                    "time": 196.36365599999868,
                    "velocity": 0.7874015748031497,
                    "duration": 0.4545454999999947
                },
                {
                    "name": "D#2",
                    "midi": 39,
                    "time": 196.81820149999868,
                    "velocity": 0.7874015748031497,
                    "duration": 0.4545454999999947
                },
                {
                    "name": "D#1",
                    "midi": 27,
                    "time": 197.27274699999867,
                    "velocity": 0.7874015748031497,
                    "duration": 0.4545454999999947
                },
                {
                    "name": "D#2",
                    "midi": 39,
                    "time": 197.72729249999867,
                    "velocity": 0.7874015748031497,
                    "duration": 0.4545454999999947
                },
                {
                    "name": "F1",
                    "midi": 29,
                    "time": 198.18183799999866,
                    "velocity": 0.7874015748031497,
                    "duration": 0.4545454999999947
                },
                {
                    "name": "F2",
                    "midi": 41,
                    "time": 198.63638349999866,
                    "velocity": 0.7874015748031497,
                    "duration": 0.4545454999999947
                },
                {
                    "name": "F1",
                    "midi": 29,
                    "time": 199.09092899999865,
                    "velocity": 0.7874015748031497,
                    "duration": 0.4545454999999947
                },
                {
                    "name": "F2",
                    "midi": 41,
                    "time": 199.54547449999865,
                    "velocity": 0.7874015748031497,
                    "duration": 0.4545454999999947
                },
                {
                    "name": "D#1",
                    "midi": 27,
                    "time": 200.00001999999864,
                    "velocity": 0.7874015748031497,
                    "duration": 0.4545454999999947
                },
                {
                    "name": "D#2",
                    "midi": 39,
                    "time": 200.45456549999864,
                    "velocity": 0.7874015748031497,
                    "duration": 0.4545454999999947
                },
                {
                    "name": "D#1",
                    "midi": 27,
                    "time": 200.90911099999863,
                    "velocity": 0.7874015748031497,
                    "duration": 0.4545454999999947
                },
                {
                    "name": "D#2",
                    "midi": 39,
                    "time": 201.36365649999863,
                    "velocity": 0.7874015748031497,
                    "duration": 0.4545454999999947
                },
                {
                    "name": "D1",
                    "midi": 26,
                    "time": 201.81820199999862,
                    "velocity": 0.7874015748031497,
                    "duration": 0.4545454999999947
                },
                {
                    "name": "D2",
                    "midi": 38,
                    "time": 202.27274749999862,
                    "velocity": 0.7874015748031497,
                    "duration": 0.4545454999999947
                },
                {
                    "name": "D1",
                    "midi": 26,
                    "time": 202.7272929999986,
                    "velocity": 0.7874015748031497,
                    "duration": 0.4545454999999947
                },
                {
                    "name": "D2",
                    "midi": 38,
                    "time": 203.1818384999986,
                    "velocity": 0.7874015748031497,
                    "duration": 0.4545454999999947
                },
                {
                    "name": "E1",
                    "midi": 28,
                    "time": 203.6363839999986,
                    "velocity": 0.7874015748031497,
                    "duration": 0.4545454999999947
                },
                {
                    "name": "E2",
                    "midi": 40,
                    "time": 204.0909294999986,
                    "velocity": 0.7874015748031497,
                    "duration": 0.4545454999999947
                },
                {
                    "name": "E1",
                    "midi": 28,
                    "time": 204.5454749999986,
                    "velocity": 0.7874015748031497,
                    "duration": 0.4545454999999947
                },
                {
                    "name": "E2",
                    "midi": 40,
                    "time": 205.00002049999858,
                    "velocity": 0.7874015748031497,
                    "duration": 0.4545454999999947
                },
                {
                    "name": "F1",
                    "midi": 29,
                    "time": 205.45456599999858,
                    "velocity": 0.7874015748031497,
                    "duration": 0.4545454999999947
                },
                {
                    "name": "F2",
                    "midi": 41,
                    "time": 205.90911149999857,
                    "velocity": 0.7874015748031497,
                    "duration": 0.4545454999999947
                },
                {
                    "name": "F1",
                    "midi": 29,
                    "time": 206.36365699999857,
                    "velocity": 0.7874015748031497,
                    "duration": 0.4545454999999947
                },
                {
                    "name": "F2",
                    "midi": 41,
                    "time": 206.81820249999856,
                    "velocity": 0.7874015748031497,
                    "duration": 0.4545454999999947
                },
                {
                    "name": "G1",
                    "midi": 31,
                    "time": 207.27274799999856,
                    "velocity": 0.7874015748031497,
                    "duration": 0.4545454999999947
                },
                {
                    "name": "G2",
                    "midi": 43,
                    "time": 207.72729349999855,
                    "velocity": 0.7874015748031497,
                    "duration": 0.4545454999999947
                },
                {
                    "name": "G1",
                    "midi": 31,
                    "time": 208.18183899999855,
                    "velocity": 0.7874015748031497,
                    "duration": 0.4545454999999947
                },
                {
                    "name": "G2",
                    "midi": 43,
                    "time": 208.63638449999854,
                    "velocity": 0.7874015748031497,
                    "duration": 0.4545454999999947
                },
                {
                    "name": "A1",
                    "midi": 33,
                    "time": 209.09092999999854,
                    "velocity": 0.7874015748031497,
                    "duration": 0.4545454999999947
                },
                {
                    "name": "A2",
                    "midi": 45,
                    "time": 209.54547549999853,
                    "velocity": 0.7874015748031497,
                    "duration": 0.4545454999999947
                },
                {
                    "name": "A1",
                    "midi": 33,
                    "time": 210.00002099999853,
                    "velocity": 0.7874015748031497,
                    "duration": 0.4545454999999947
                },
                {
                    "name": "A2",
                    "midi": 45,
                    "time": 210.45456649999852,
                    "velocity": 0.7874015748031497,
                    "duration": 0.4545454999999947
                },
                {
                    "name": "A#1",
                    "midi": 34,
                    "time": 210.90911199999852,
                    "velocity": 0.7874015748031497,
                    "duration": 0.4545454999999947
                },
                {
                    "name": "A#2",
                    "midi": 46,
                    "time": 211.3636574999985,
                    "velocity": 0.7874015748031497,
                    "duration": 0.4545454999999947
                },
                {
                    "name": "A#1",
                    "midi": 34,
                    "time": 211.8182029999985,
                    "velocity": 0.7874015748031497,
                    "duration": 0.4545454999999947
                },
                {
                    "name": "A#2",
                    "midi": 46,
                    "time": 212.2727484999985,
                    "velocity": 0.7874015748031497,
                    "duration": 0.4545454999999947
                },
                {
                    "name": "C2",
                    "midi": 36,
                    "time": 212.7272939999985,
                    "velocity": 0.7874015748031497,
                    "duration": 0.4545454999999947
                },
                {
                    "name": "C3",
                    "midi": 48,
                    "time": 213.1818394999985,
                    "velocity": 0.7874015748031497,
                    "duration": 0.4545454999999947
                },
                {
                    "name": "C2",
                    "midi": 36,
                    "time": 213.63638499999848,
                    "velocity": 0.7874015748031497,
                    "duration": 0.4545454999999947
                },
                {
                    "name": "C3",
                    "midi": 48,
                    "time": 214.09093049999848,
                    "velocity": 0.7874015748031497,
                    "duration": 0.4545454999999947
                },
                {
                    "name": "D2",
                    "midi": 38,
                    "time": 214.54547599999847,
                    "velocity": 0.7874015748031497,
                    "duration": 0.4545454999999947
                },
                {
                    "name": "D3",
                    "midi": 50,
                    "time": 215.00002149999847,
                    "velocity": 0.7874015748031497,
                    "duration": 0.4545454999999947
                },
                {
                    "name": "D2",
                    "midi": 38,
                    "time": 215.45456699999846,
                    "velocity": 0.7874015748031497,
                    "duration": 0.4545454999999947
                },
                {
                    "name": "D3",
                    "midi": 50,
                    "time": 215.90911249999846,
                    "velocity": 0.7874015748031497,
                    "duration": 0.4545454999999947
                },
                {
                    "name": "D#1",
                    "midi": 27,
                    "time": 216.36365799999845,
                    "velocity": 0.7874015748031497,
                    "duration": 0.4545454999999947
                },
                {
                    "name": "D#2",
                    "midi": 39,
                    "time": 216.81820349999845,
                    "velocity": 0.7874015748031497,
                    "duration": 0.4545454999999947
                },
                {
                    "name": "D#1",
                    "midi": 27,
                    "time": 217.27274899999844,
                    "velocity": 0.7874015748031497,
                    "duration": 0.4545454999999947
                },
                {
                    "name": "D#2",
                    "midi": 39,
                    "time": 217.72729449999844,
                    "velocity": 0.7874015748031497,
                    "duration": 0.4545454999999947
                },
                {
                    "name": "F1",
                    "midi": 29,
                    "time": 218.18183999999843,
                    "velocity": 0.7874015748031497,
                    "duration": 0.4545454999999947
                },
                {
                    "name": "F2",
                    "midi": 41,
                    "time": 218.63638549999843,
                    "velocity": 0.7874015748031497,
                    "duration": 0.4545454999999947
                },
                {
                    "name": "F1",
                    "midi": 29,
                    "time": 219.09093099999842,
                    "velocity": 0.7874015748031497,
                    "duration": 0.4545454999999947
                },
                {
                    "name": "F2",
                    "midi": 41,
                    "time": 219.54547649999841,
                    "velocity": 0.7874015748031497,
                    "duration": 0.4545454999999947
                },
                {
                    "name": "G1",
                    "midi": 31,
                    "time": 220.0000219999984,
                    "velocity": 0.7874015748031497,
                    "duration": 0.4545454999999947
                },
                {
                    "name": "G2",
                    "midi": 43,
                    "time": 220.4545674999984,
                    "velocity": 0.7874015748031497,
                    "duration": 0.4545454999999947
                },
                {
                    "name": "G1",
                    "midi": 31,
                    "time": 220.9091129999984,
                    "velocity": 0.7874015748031497,
                    "duration": 0.4545454999999947
                },
                {
                    "name": "G2",
                    "midi": 43,
                    "time": 221.3636584999984,
                    "velocity": 0.7874015748031497,
                    "duration": 0.4545454999999947
                },
                {
                    "name": "G#1",
                    "midi": 32,
                    "time": 221.8182039999984,
                    "velocity": 0.7874015748031497,
                    "duration": 0.4545454999999947
                },
                {
                    "name": "G#2",
                    "midi": 44,
                    "time": 222.27274949999838,
                    "velocity": 0.7874015748031497,
                    "duration": 0.4545454999999947
                },
                {
                    "name": "G#1",
                    "midi": 32,
                    "time": 222.72729499999838,
                    "velocity": 0.7874015748031497,
                    "duration": 0.4545454999999947
                },
                {
                    "name": "G#2",
                    "midi": 44,
                    "time": 223.18184049999837,
                    "velocity": 0.7874015748031497,
                    "duration": 0.4545454999999947
                },
                {
                    "name": "G2",
                    "midi": 43,
                    "time": 223.63638599999837,
                    "velocity": 0.7874015748031497,
                    "duration": 0.4545454999999947
                },
                {
                    "name": "F2",
                    "midi": 41,
                    "time": 224.09093149999836,
                    "velocity": 0.7874015748031497,
                    "duration": 0.4545454999999947
                },
                {
                    "name": "G2",
                    "midi": 43,
                    "time": 224.54547699999836,
                    "velocity": 0.7874015748031497,
                    "duration": 0.4545454999999947
                },
                {
                    "name": "G1",
                    "midi": 31,
                    "time": 225.00002249999835,
                    "velocity": 0.7874015748031497,
                    "duration": 0.4545454999999947
                },
                {
                    "name": "C2",
                    "midi": 36,
                    "time": 225.45456799999835,
                    "velocity": 0.7874015748031497,
                    "duration": 3.636363999999986
                }
            ],
            "controlChanges": {
                "7": [
                    {
                        "number": 7,
                        "time": 0,
                        "value": 0.5511811023622047
                    }
                ],
                "10": [
                    {
                        "number": 10,
                        "time": 0,
                        "value": 0.5039370078740157
                    }
                ]
            },
            "id": 12,
            "name": "Contrabass A",
            "instrumentNumber": 43,
            "instrument": "contrabass",
            "instrumentFamily": "strings",
            "channelNumber": 11,
            "isPercussion": false
        }
    ]
}