{
    "header": {
        "PPQ": 192,
        "bpm": 120,
        "timeSignature": [
            3,
            4
        ],
        "name": ""
    },
    "startTime": 0,
    "duration": 149.91666666666669,
    "tracks": [
        {
            "startTime": 0,
            "duration": 149.91666666666669,
            "length": 1220,
            "notes": [
                {
                    "name": "E3",
                    "midi": 52,
                    "time": 0,
                    "velocity": 0.8661417322834646,
                    "duration": 0.24479166666666666
                },
                {
                    "name": "A3",
                    "midi": 57,
                    "time": 0.25,
                    "velocity": 0.8661417322834646,
                    "duration": 0.41666666666666663
                },
                {
                    "name": "C#4",
                    "midi": 61,
                    "time": 0.5,
                    "velocity": 0.8661417322834646,
                    "duration": 0.49479166666666663
                },
                {
                    "name": "E4",
                    "midi": 64,
                    "time": 0.75,
                    "velocity": 0.8661417322834646,
                    "duration": 0.8749999999999998
                },
                {
                    "name": "A2",
                    "midi": 45,
                    "time": 0.75,
                    "velocity": 0.8661417322834646,
                    "duration": 0.8749999999999998
                },
                {
                    "name": "B3",
                    "midi": 59,
                    "time": 1,
                    "velocity": 0.8661417322834646,
                    "duration": 0.24479166666666674
                },
                {
                    "name": "A1",
                    "midi": 33,
                    "time": 1.25,
                    "velocity": 0.8661417322834646,
                    "duration": 0.875
                },
                {
                    "name": "C#4",
                    "midi": 61,
                    "time": 1.25,
                    "velocity": 0.8661417322834646,
                    "duration": 0.08333333333333326
                },
                {
                    "name": "B3",
                    "midi": 59,
                    "time": 1.3333333333333333,
                    "velocity": 0.8661417322834646,
                    "duration": 0.08333333333333326
                },
                {
                    "name": "C#4",
                    "midi": 61,
                    "time": 1.4166666666666665,
                    "velocity": 0.8661417322834646,
                    "duration": 0.328125
                },
                {
                    "name": "A3",
                    "midi": 57,
                    "time": 1.4999999999999998,
                    "velocity": 0.8661417322834646,
                    "duration": 0.41666666666666674
                },
                {
                    "name": "D4",
                    "midi": 62,
                    "time": 1.7499999999999998,
                    "velocity": 0.8661417322834646,
                    "duration": 0.41666666666666674
                },
                {
                    "name": "B3",
                    "midi": 59,
                    "time": 1.7499999999999998,
                    "velocity": 0.8661417322834646,
                    "duration": 0.41666666666666674
                },
                {
                    "name": "G#3",
                    "midi": 56,
                    "time": 1.9999999999999998,
                    "velocity": 0.8661417322834646,
                    "duration": 0.24479166666666674
                },
                {
                    "name": "C#4",
                    "midi": 61,
                    "time": 2.25,
                    "velocity": 0.8661417322834646,
                    "duration": 0.6666666666666665
                },
                {
                    "name": "A3",
                    "midi": 57,
                    "time": 2.25,
                    "velocity": 0.8661417322834646,
                    "duration": 0.125
                },
                {
                    "name": "G#3",
                    "midi": 56,
                    "time": 2.375,
                    "velocity": 0.8661417322834646,
                    "duration": 0.125
                },
                {
                    "name": "F#3",
                    "midi": 54,
                    "time": 2.5,
                    "velocity": 0.8661417322834646,
                    "duration": 0.24479166666666652
                },
                {
                    "name": "A3",
                    "midi": 57,
                    "time": 2.5,
                    "velocity": 0.8661417322834646,
                    "duration": 0.6666666666666665
                },
                {
                    "name": "E3",
                    "midi": 52,
                    "time": 2.75,
                    "velocity": 0.8661417322834646,
                    "duration": 0.24479166666666652
                },
                {
                    "name": "E4",
                    "midi": 64,
                    "time": 3,
                    "velocity": 0.8661417322834646,
                    "duration": 0.24479166666666652
                },
                {
                    "name": "D3",
                    "midi": 50,
                    "time": 3,
                    "velocity": 0.8661417322834646,
                    "duration": 0.24479166666666652
                },
                {
                    "name": "F#4",
                    "midi": 66,
                    "time": 3.25,
                    "velocity": 0.8661417322834646,
                    "duration": 0.24479166666666652
                },
                {
                    "name": "C#3",
                    "midi": 49,
                    "time": 3.25,
                    "velocity": 0.8661417322834646,
                    "duration": 0.24479166666666652
                },
                {
                    "name": "G#4",
                    "midi": 68,
                    "time": 3.5,
                    "velocity": 0.8661417322834646,
                    "duration": 0.24479166666666652
                },
                {
                    "name": "B2",
                    "midi": 47,
                    "time": 3.5,
                    "velocity": 0.8661417322834646,
                    "duration": 0.24479166666666652
                },
                {
                    "name": "C#3",
                    "midi": 49,
                    "time": 3.75,
                    "velocity": 0.8661417322834646,
                    "duration": 0.41666666666666696
                },
                {
                    "name": "A4",
                    "midi": 69,
                    "time": 3.75,
                    "velocity": 0.8661417322834646,
                    "duration": 0.078125
                },
                {
                    "name": "G#4",
                    "midi": 68,
                    "time": 3.8333333333333335,
                    "velocity": 0.8661417322834646,
                    "duration": 0.078125
                },
                {
                    "name": "A4",
                    "midi": 69,
                    "time": 3.916666666666667,
                    "velocity": 0.8661417322834646,
                    "duration": 0.5
                },
                {
                    "name": "E3",
                    "midi": 52,
                    "time": 4,
                    "velocity": 0.8661417322834646,
                    "duration": 0.24479166666666696
                },
                {
                    "name": "F#3",
                    "midi": 54,
                    "time": 4.25,
                    "velocity": 0.8661417322834646,
                    "duration": 0.24479166666666696
                },
                {
                    "name": "B4",
                    "midi": 71,
                    "time": 4.5,
                    "velocity": 0.8661417322834646,
                    "duration": 0.24479166666666696
                },
                {
                    "name": "G#3",
                    "midi": 56,
                    "time": 4.5,
                    "velocity": 0.8661417322834646,
                    "duration": 0.24479166666666696
                },
                {
                    "name": "C#5",
                    "midi": 73,
                    "time": 4.75,
                    "velocity": 0.8661417322834646,
                    "duration": 0.24479166666666696
                },
                {
                    "name": "A3",
                    "midi": 57,
                    "time": 4.75,
                    "velocity": 0.8661417322834646,
                    "duration": 0.41666666666666696
                },
                {
                    "name": "D5",
                    "midi": 74,
                    "time": 5,
                    "velocity": 0.8661417322834646,
                    "duration": 0.24479166666666696
                },
                {
                    "name": "A2",
                    "midi": 45,
                    "time": 5,
                    "velocity": 0.8661417322834646,
                    "duration": 0.24479166666666696
                },
                {
                    "name": "G#3",
                    "midi": 56,
                    "time": 5.25,
                    "velocity": 0.8661417322834646,
                    "duration": 0.8749999999999991
                },
                {
                    "name": "E3",
                    "midi": 52,
                    "time": 5.25,
                    "velocity": 0.8661417322834646,
                    "duration": 0.8749999999999991
                },
                {
                    "name": "C#5",
                    "midi": 73,
                    "time": 5.25,
                    "velocity": 0.8661417322834646,
                    "duration": 0.08333333333333304
                },
                {
                    "name": "B4",
                    "midi": 71,
                    "time": 5.333333333333333,
                    "velocity": 0.8661417322834646,
                    "duration": 0.08333333333333304
                },
                {
                    "name": "C#5",
                    "midi": 73,
                    "time": 5.416666666666666,
                    "velocity": 0.8661417322834646,
                    "duration": 0.08333333333333304
                },
                {
                    "name": "B3",
                    "midi": 59,
                    "time": 5.499999999999999,
                    "velocity": 0.8661417322834646,
                    "duration": 0.24479166666666696
                },
                {
                    "name": "B4",
                    "midi": 71,
                    "time": 5.499999999999999,
                    "velocity": 0.8661417322834646,
                    "duration": 0.666666666666667
                },
                {
                    "name": "C#4",
                    "midi": 61,
                    "time": 5.749999999999999,
                    "velocity": 0.8661417322834646,
                    "duration": 0.24479166666666696
                },
                {
                    "name": "D4",
                    "midi": 62,
                    "time": 5.999999999999999,
                    "velocity": 0.8661417322834646,
                    "duration": 0.24479166666666696
                },
                {
                    "name": "E4",
                    "midi": 64,
                    "time": 6.249999999999999,
                    "velocity": 0.8661417322834646,
                    "duration": 0.7447916666666661
                },
                {
                    "name": "A4",
                    "midi": 69,
                    "time": 6.249999999999999,
                    "velocity": 0.8661417322834646,
                    "duration": 0.08333333333333304
                },
                {
                    "name": "G#4",
                    "midi": 68,
                    "time": 6.333333333333332,
                    "velocity": 0.8661417322834646,
                    "duration": 0.08333333333333304
                },
                {
                    "name": "A4",
                    "midi": 69,
                    "time": 6.416666666666665,
                    "velocity": 0.8661417322834646,
                    "duration": 0.08333333333333304
                },
                {
                    "name": "E3",
                    "midi": 52,
                    "time": 6.499999999999998,
                    "velocity": 0.8661417322834646,
                    "duration": 0.24479166666666696
                },
                {
                    "name": "G#4",
                    "midi": 68,
                    "time": 6.499999999999998,
                    "velocity": 0.8661417322834646,
                    "duration": 0.11979166666666696
                },
                {
                    "name": "F#4",
                    "midi": 66,
                    "time": 6.624999999999998,
                    "velocity": 0.8661417322834646,
                    "duration": 0.05729166666666696
                },
                {
                    "name": "G#4",
                    "midi": 68,
                    "time": 6.687499999999998,
                    "velocity": 0.8661417322834646,
                    "duration": 0.05729166666666696
                },
                {
                    "name": "A4",
                    "midi": 69,
                    "time": 6.749999999999998,
                    "velocity": 0.8661417322834646,
                    "duration": 0.24479166666666696
                },
                {
                    "name": "F#3",
                    "midi": 54,
                    "time": 6.749999999999998,
                    "velocity": 0.8661417322834646,
                    "duration": 0.6666666666666661
                },
                {
                    "name": "G#4",
                    "midi": 68,
                    "time": 6.999999999999998,
                    "velocity": 0.8661417322834646,
                    "duration": 0.11979166666666696
                },
                {
                    "name": "E4",
                    "midi": 64,
                    "time": 6.999999999999998,
                    "velocity": 0.8661417322834646,
                    "duration": 0.24479166666666696
                },
                {
                    "name": "A4",
                    "midi": 69,
                    "time": 7.124999999999998,
                    "velocity": 0.8661417322834646,
                    "duration": 0.11979166666666696
                },
                {
                    "name": "D4",
                    "midi": 62,
                    "time": 7.249999999999998,
                    "velocity": 0.8661417322834646,
                    "duration": 0.7447916666666661
                },
                {
                    "name": "B4",
                    "midi": 71,
                    "time": 7.249999999999998,
                    "velocity": 0.8661417322834646,
                    "duration": 0.08333333333333304
                },
                {
                    "name": "A4",
                    "midi": 69,
                    "time": 7.333333333333331,
                    "velocity": 0.8661417322834646,
                    "duration": 0.08333333333333304
                },
                {
                    "name": "B4",
                    "midi": 71,
                    "time": 7.416666666666664,
                    "velocity": 0.8661417322834646,
                    "duration": 0.08333333333333304
                },
                {
                    "name": "F#3",
                    "midi": 54,
                    "time": 7.499999999999997,
                    "velocity": 0.8661417322834646,
                    "duration": 0.24479166666666696
                },
                {
                    "name": "A4",
                    "midi": 69,
                    "time": 7.499999999999997,
                    "velocity": 0.8661417322834646,
                    "duration": 0.11979166666666696
                },
                {
                    "name": "G#4",
                    "midi": 68,
                    "time": 7.624999999999997,
                    "velocity": 0.8661417322834646,
                    "duration": 0.05729166666666696
                },
                {
                    "name": "A4",
                    "midi": 69,
                    "time": 7.687499999999997,
                    "velocity": 0.8661417322834646,
                    "duration": 0.05729166666666696
                },
                {
                    "name": "B4",
                    "midi": 71,
                    "time": 7.749999999999997,
                    "velocity": 0.8661417322834646,
                    "duration": 0.11979166666666696
                },
                {
                    "name": "G#3",
                    "midi": 56,
                    "time": 7.749999999999997,
                    "velocity": 0.8661417322834646,
                    "duration": 0.41666666666666696
                },
                {
                    "name": "A4",
                    "midi": 69,
                    "time": 7.874999999999997,
                    "velocity": 0.8661417322834646,
                    "duration": 0.11979166666666696
                },
                {
                    "name": "B4",
                    "midi": 71,
                    "time": 7.999999999999997,
                    "velocity": 0.8661417322834646,
                    "duration": 0.24479166666666696
                },
                {
                    "name": "D4",
                    "midi": 62,
                    "time": 7.999999999999997,
                    "velocity": 0.8661417322834646,
                    "duration": 0.49479166666666696
                },
                {
                    "name": "E4",
                    "midi": 64,
                    "time": 8.249999999999998,
                    "velocity": 0.8661417322834646,
                    "duration": 1.244791666666666
                },
                {
                    "name": "A3",
                    "midi": 57,
                    "time": 8.249999999999998,
                    "velocity": 0.8661417322834646,
                    "duration": 0.6666666666666661
                },
                {
                    "name": "D4",
                    "midi": 62,
                    "time": 8.499999999999998,
                    "velocity": 0.8661417322834646,
                    "duration": 0.24479166666666607
                },
                {
                    "name": "C#4",
                    "midi": 61,
                    "time": 8.749999999999998,
                    "velocity": 0.8661417322834646,
                    "duration": 0.7447916666666661
                },
                {
                    "name": "E5",
                    "midi": 76,
                    "time": 8.999999999999998,
                    "velocity": 0.8661417322834646,
                    "duration": 0.24479166666666607
                },
                {
                    "name": "A3",
                    "midi": 57,
                    "time": 8.999999999999998,
                    "velocity": 0.8661417322834646,
                    "duration": 0.24479166666666607
                },
                {
                    "name": "E5",
                    "midi": 76,
                    "time": 9.249999999999998,
                    "velocity": 0.8661417322834646,
                    "duration": 0.7447916666666661
                },
                {
                    "name": "C#3",
                    "midi": 49,
                    "time": 9.249999999999998,
                    "velocity": 0.8661417322834646,
                    "duration": 0.4166666666666661
                },
                {
                    "name": "E4",
                    "midi": 64,
                    "time": 9.499999999999998,
                    "velocity": 0.8661417322834646,
                    "duration": 0.24479166666666607
                },
                {
                    "name": "C#4",
                    "midi": 61,
                    "time": 9.499999999999998,
                    "velocity": 0.8661417322834646,
                    "duration": 0.4947916666666661
                },
                {
                    "name": "F#4",
                    "midi": 66,
                    "time": 9.749999999999998,
                    "velocity": 0.8661417322834646,
                    "duration": 0.6666666666666661
                },
                {
                    "name": "D3",
                    "midi": 50,
                    "time": 9.749999999999998,
                    "velocity": 0.8661417322834646,
                    "duration": 0.6666666666666661
                },
                {
                    "name": "E5",
                    "midi": 76,
                    "time": 9.999999999999998,
                    "velocity": 0.8661417322834646,
                    "duration": 0.24479166666666607
                },
                {
                    "name": "C#4",
                    "midi": 61,
                    "time": 9.999999999999998,
                    "velocity": 0.8661417322834646,
                    "duration": 0.24479166666666607
                },
                {
                    "name": "D5",
                    "midi": 74,
                    "time": 10.249999999999998,
                    "velocity": 0.8661417322834646,
                    "duration": 0.6666666666666661
                },
                {
                    "name": "B3",
                    "midi": 59,
                    "time": 10.249999999999998,
                    "velocity": 0.8661417322834646,
                    "duration": 0.7447916666666661
                },
                {
                    "name": "F#4",
                    "midi": 66,
                    "time": 10.499999999999998,
                    "velocity": 0.8661417322834646,
                    "duration": 0.24479166666666607
                },
                {
                    "name": "D3",
                    "midi": 50,
                    "time": 10.499999999999998,
                    "velocity": 0.8661417322834646,
                    "duration": 0.24479166666666607
                },
                {
                    "name": "G#4",
                    "midi": 68,
                    "time": 10.749999999999998,
                    "velocity": 0.8661417322834646,
                    "duration": 0.4166666666666661
                },
                {
                    "name": "E3",
                    "midi": 52,
                    "time": 10.749999999999998,
                    "velocity": 0.8661417322834646,
                    "duration": 0.4166666666666661
                },
                {
                    "name": "D5",
                    "midi": 74,
                    "time": 10.999999999999998,
                    "velocity": 0.8661417322834646,
                    "duration": 0.4947916666666661
                },
                {
                    "name": "B3",
                    "midi": 59,
                    "time": 10.999999999999998,
                    "velocity": 0.8661417322834646,
                    "duration": 0.24479166666666607
                },
                {
                    "name": "A4",
                    "midi": 69,
                    "time": 11.249999999999998,
                    "velocity": 0.8661417322834646,
                    "duration": 0.4166666666666661
                },
                {
                    "name": "F#3",
                    "midi": 54,
                    "time": 11.249999999999998,
                    "velocity": 0.8661417322834646,
                    "duration": 0.4166666666666661
                },
                {
                    "name": "D5",
                    "midi": 74,
                    "time": 11.499999999999998,
                    "velocity": 0.8661417322834646,
                    "duration": 0.24479166666666607
                },
                {
                    "name": "B3",
                    "midi": 59,
                    "time": 11.499999999999998,
                    "velocity": 0.8661417322834646,
                    "duration": 0.24479166666666607
                },
                {
                    "name": "C#5",
                    "midi": 73,
                    "time": 11.749999999999998,
                    "velocity": 0.8661417322834646,
                    "duration": 0.24479166666666607
                },
                {
                    "name": "A3",
                    "midi": 57,
                    "time": 11.749999999999998,
                    "velocity": 0.8661417322834646,
                    "duration": 0.24479166666666607
                },
                {
                    "name": "B4",
                    "midi": 71,
                    "time": 11.999999999999998,
                    "velocity": 0.8661417322834646,
                    "duration": 0.24479166666666607
                },
                {
                    "name": "G#3",
                    "midi": 56,
                    "time": 11.999999999999998,
                    "velocity": 0.8661417322834646,
                    "duration": 0.24479166666666607
                },
                {
                    "name": "C#5",
                    "midi": 73,
                    "time": 12.249999999999998,
                    "velocity": 0.8661417322834646,
                    "duration": 0.4166666666666661
                },
                {
                    "name": "A3",
                    "midi": 57,
                    "time": 12.249999999999998,
                    "velocity": 0.8661417322834646,
                    "duration": 0.4166666666666661
                },
                {
                    "name": "A4",
                    "midi": 69,
                    "time": 12.499999999999998,
                    "velocity": 0.8661417322834646,
                    "duration": 0.24479166666666607
                },
                {
                    "name": "C#3",
                    "midi": 49,
                    "time": 12.499999999999998,
                    "velocity": 0.8661417322834646,
                    "duration": 0.24479166666666607
                },
                {
                    "name": "F#4",
                    "midi": 66,
                    "time": 12.749999999999998,
                    "velocity": 0.8661417322834646,
                    "duration": 0.4166666666666661
                },
                {
                    "name": "D4",
                    "midi": 62,
                    "time": 12.749999999999998,
                    "velocity": 0.8661417322834646,
                    "duration": 0.4166666666666661
                },
                {
                    "name": "D3",
                    "midi": 50,
                    "time": 12.749999999999998,
                    "velocity": 0.8661417322834646,
                    "duration": 0.4166666666666661
                },
                {
                    "name": "B4",
                    "midi": 71,
                    "time": 12.999999999999998,
                    "velocity": 0.8661417322834646,
                    "duration": 0.4166666666666661
                },
                {
                    "name": "E4",
                    "midi": 64,
                    "time": 13.249999999999998,
                    "velocity": 0.8661417322834646,
                    "duration": 0.4166666666666661
                },
                {
                    "name": "C#4",
                    "midi": 61,
                    "time": 13.249999999999998,
                    "velocity": 0.8661417322834646,
                    "duration": 0.4166666666666661
                },
                {
                    "name": "E3",
                    "midi": 52,
                    "time": 13.249999999999998,
                    "velocity": 0.8661417322834646,
                    "duration": 0.4166666666666661
                },
                {
                    "name": "A4",
                    "midi": 69,
                    "time": 13.499999999999998,
                    "velocity": 0.8661417322834646,
                    "duration": 0.4166666666666661
                },
                {
                    "name": "D4",
                    "midi": 62,
                    "time": 13.749999999999998,
                    "velocity": 0.8661417322834646,
                    "duration": 0.4166666666666661
                },
                {
                    "name": "B3",
                    "midi": 59,
                    "time": 13.749999999999998,
                    "velocity": 0.8661417322834646,
                    "duration": 0.4166666666666661
                },
                {
                    "name": "E2",
                    "midi": 40,
                    "time": 13.749999999999998,
                    "velocity": 0.8661417322834646,
                    "duration": 0.4166666666666661
                },
                {
                    "name": "G#4",
                    "midi": 68,
                    "time": 13.999999999999998,
                    "velocity": 0.8661417322834646,
                    "duration": 0.24479166666666607
                },
                {
                    "name": "A4",
                    "midi": 69,
                    "time": 14.249999999999998,
                    "velocity": 0.8661417322834646,
                    "duration": 0.6666666666666661
                },
                {
                    "name": "E4",
                    "midi": 64,
                    "time": 14.249999999999998,
                    "velocity": 0.8661417322834646,
                    "duration": 0.875
                },
                {
                    "name": "C#4",
                    "midi": 61,
                    "time": 14.249999999999998,
                    "velocity": 0.8661417322834646,
                    "duration": 0.875
                },
                {
                    "name": "A2",
                    "midi": 45,
                    "time": 14.249999999999998,
                    "velocity": 0.8661417322834646,
                    "duration": 0.875
                },
                {
                    "name": "E3",
                    "midi": 52,
                    "time": 14.499999999999998,
                    "velocity": 0.8661417322834646,
                    "duration": 0.24479166666666607
                },
                {
                    "name": "A3",
                    "midi": 57,
                    "time": 14.749999999999998,
                    "velocity": 0.8661417322834646,
                    "duration": 0.875
                },
                {
                    "name": "C#5",
                    "midi": 73,
                    "time": 14.999999999999998,
                    "velocity": 0.8661417322834646,
                    "duration": 0.24479166666666607
                },
                {
                    "name": "B4",
                    "midi": 71,
                    "time": 15.249999999999998,
                    "velocity": 0.8661417322834646,
                    "duration": 0.3697916666666661
                },
                {
                    "name": "C#4",
                    "midi": 61,
                    "time": 15.499999999999998,
                    "velocity": 0.8661417322834646,
                    "duration": 0.24479166666666607
                },
                {
                    "name": "A4",
                    "midi": 69,
                    "time": 15.624999999999998,
                    "velocity": 0.8661417322834646,
                    "duration": 0.11979166666666607
                },
                {
                    "name": "B4",
                    "midi": 71,
                    "time": 15.749999999999998,
                    "velocity": 0.8661417322834646,
                    "duration": 0.24479166666666607
                },
                {
                    "name": "D4",
                    "midi": 62,
                    "time": 15.749999999999998,
                    "velocity": 0.8661417322834646,
                    "duration": 0.4166666666666661
                },
                {
                    "name": "A3",
                    "midi": 57,
                    "time": 15.749999999999998,
                    "velocity": 0.8661417322834646,
                    "duration": 0.4166666666666661
                },
                {
                    "name": "E4",
                    "midi": 64,
                    "time": 15.999999999999998,
                    "velocity": 0.8661417322834646,
                    "duration": 0.24479166666666607
                },
                {
                    "name": "B4",
                    "midi": 71,
                    "time": 16.249999999999996,
                    "velocity": 0.8661417322834646,
                    "duration": 0.24479166666666785
                },
                {
                    "name": "B3",
                    "midi": 59,
                    "time": 16.249999999999996,
                    "velocity": 0.8661417322834646,
                    "duration": 0.41666666666666785
                },
                {
                    "name": "G#3",
                    "midi": 56,
                    "time": 16.249999999999996,
                    "velocity": 0.8661417322834646,
                    "duration": 0.8749999999999964
                },
                {
                    "name": "D5",
                    "midi": 74,
                    "time": 16.499999999999996,
                    "velocity": 0.8661417322834646,
                    "duration": 0.24479166666666785
                },
                {
                    "name": "E4",
                    "midi": 64,
                    "time": 16.749999999999996,
                    "velocity": 0.8661417322834646,
                    "duration": 0.4166666666666643
                },
                {
                    "name": "D5",
                    "midi": 74,
                    "time": 16.749999999999996,
                    "velocity": 0.8661417322834646,
                    "duration": 0.08333333333333215
                },
                {
                    "name": "C#5",
                    "midi": 73,
                    "time": 16.83333333333333,
                    "velocity": 0.8661417322834646,
                    "duration": 0.08333333333333215
                },
                {
                    "name": "D5",
                    "midi": 74,
                    "time": 16.91666666666666,
                    "velocity": 0.8661417322834646,
                    "duration": 0.08333333333333215
                },
                {
                    "name": "C#5",
                    "midi": 73,
                    "time": 16.999999999999993,
                    "velocity": 0.8661417322834646,
                    "duration": 0.11979166666666785
                },
                {
                    "name": "B4",
                    "midi": 71,
                    "time": 17.124999999999993,
                    "velocity": 0.8661417322834646,
                    "duration": 0.11979166666666785
                },
                {
                    "name": "A3",
                    "midi": 57,
                    "time": 17.249999999999993,
                    "velocity": 0.8661417322834646,
                    "duration": 0.6666666666666643
                },
                {
                    "name": "C#5",
                    "midi": 73,
                    "time": 17.249999999999993,
                    "velocity": 0.8661417322834646,
                    "duration": 0.08333333333333215
                },
                {
                    "name": "B4",
                    "midi": 71,
                    "time": 17.333333333333325,
                    "velocity": 0.8661417322834646,
                    "duration": 0.08333333333333215
                },
                {
                    "name": "C#5",
                    "midi": 73,
                    "time": 17.416666666666657,
                    "velocity": 0.8661417322834646,
                    "duration": 0.5
                },
                {
                    "name": "C#4",
                    "midi": 61,
                    "time": 17.49999999999999,
                    "velocity": 0.8661417322834646,
                    "duration": 0.24479166666666785
                },
                {
                    "name": "E4",
                    "midi": 64,
                    "time": 17.74999999999999,
                    "velocity": 0.8661417322834646,
                    "duration": 0.6666666666666679
                },
                {
                    "name": "E5",
                    "midi": 76,
                    "time": 17.99999999999999,
                    "velocity": 0.8661417322834646,
                    "duration": 0.24479166666666785
                },
                {
                    "name": "A3",
                    "midi": 57,
                    "time": 17.99999999999999,
                    "velocity": 0.8661417322834646,
                    "duration": 0.24479166666666785
                },
                {
                    "name": "B4",
                    "midi": 71,
                    "time": 18.24999999999999,
                    "velocity": 0.8661417322834646,
                    "duration": 0.24479166666666785
                },
                {
                    "name": "G#3",
                    "midi": 56,
                    "time": 18.24999999999999,
                    "velocity": 0.8661417322834646,
                    "duration": 0.41666666666666785
                },
                {
                    "name": "E5",
                    "midi": 76,
                    "time": 18.49999999999999,
                    "velocity": 0.8661417322834646,
                    "duration": 0.24479166666666785
                },
                {
                    "name": "B3",
                    "midi": 59,
                    "time": 18.49999999999999,
                    "velocity": 0.8661417322834646,
                    "duration": 0.24479166666666785
                },
                {
                    "name": "A4",
                    "midi": 69,
                    "time": 18.74999999999999,
                    "velocity": 0.8661417322834646,
                    "duration": 0.24479166666666785
                },
                {
                    "name": "C#4",
                    "midi": 61,
                    "time": 18.74999999999999,
                    "velocity": 0.8661417322834646,
                    "duration": 0.24479166666666785
                },
                {
                    "name": "F#3",
                    "midi": 54,
                    "time": 18.74999999999999,
                    "velocity": 0.8661417322834646,
                    "duration": 0.41666666666666785
                },
                {
                    "name": "F#5",
                    "midi": 78,
                    "time": 18.99999999999999,
                    "velocity": 0.8661417322834646,
                    "duration": 0.24479166666666785
                },
                {
                    "name": "D#4",
                    "midi": 63,
                    "time": 18.99999999999999,
                    "velocity": 0.8661417322834646,
                    "duration": 0.24479166666666785
                },
                {
                    "name": "E4",
                    "midi": 64,
                    "time": 19.24999999999999,
                    "velocity": 0.8661417322834646,
                    "duration": 1.2447916666666607
                },
                {
                    "name": "A4",
                    "midi": 69,
                    "time": 19.24999999999999,
                    "velocity": 0.8661417322834646,
                    "duration": 0.08333333333333215
                },
                {
                    "name": "G#4",
                    "midi": 68,
                    "time": 19.33333333333332,
                    "velocity": 0.8661417322834646,
                    "duration": 0.08333333333333215
                },
                {
                    "name": "A4",
                    "midi": 69,
                    "time": 19.416666666666654,
                    "velocity": 0.8661417322834646,
                    "duration": 0.08333333333333215
                },
                {
                    "name": "B3",
                    "midi": 59,
                    "time": 19.499999999999986,
                    "velocity": 0.8661417322834646,
                    "duration": 0.6666666666666643
                },
                {
                    "name": "G#4",
                    "midi": 68,
                    "time": 19.499999999999986,
                    "velocity": 0.8661417322834646,
                    "duration": 0.08333333333333215
                },
                {
                    "name": "A4",
                    "midi": 69,
                    "time": 19.583333333333318,
                    "velocity": 0.8661417322834646,
                    "duration": 0.08333333333333215
                },
                {
                    "name": "G#4",
                    "midi": 68,
                    "time": 19.66666666666665,
                    "velocity": 0.8661417322834646,
                    "duration": 0.328125
                },
                {
                    "name": "G#3",
                    "midi": 56,
                    "time": 19.749999999999982,
                    "velocity": 0.8661417322834646,
                    "duration": 0.41666666666666785
                },
                {
                    "name": "A4",
                    "midi": 69,
                    "time": 19.999999999999982,
                    "velocity": 0.8661417322834646,
                    "duration": 0.24479166666666785
                },
                {
                    "name": "E3",
                    "midi": 52,
                    "time": 19.999999999999982,
                    "velocity": 0.8661417322834646,
                    "duration": 0.24479166666666785
                },
                {
                    "name": "F#4",
                    "midi": 66,
                    "time": 20.249999999999982,
                    "velocity": 0.8661417322834646,
                    "duration": 0.6666666666666679
                },
                {
                    "name": "B3",
                    "midi": 59,
                    "time": 20.249999999999982,
                    "velocity": 0.8661417322834646,
                    "duration": 0.875
                },
                {
                    "name": "E4",
                    "midi": 64,
                    "time": 20.499999999999982,
                    "velocity": 0.8661417322834646,
                    "duration": 0.24479166666666785
                },
                {
                    "name": "D#4",
                    "midi": 63,
                    "time": 20.749999999999982,
                    "velocity": 0.8661417322834646,
                    "duration": 0.24479166666666785
                },
                {
                    "name": "E5",
                    "midi": 76,
                    "time": 20.999999999999982,
                    "velocity": 0.8661417322834646,
                    "duration": 0.11979166666666785
                },
                {
                    "name": "C#4",
                    "midi": 61,
                    "time": 20.999999999999982,
                    "velocity": 0.8661417322834646,
                    "duration": 0.24479166666666785
                },
                {
                    "name": "D#5",
                    "midi": 75,
                    "time": 21.124999999999982,
                    "velocity": 0.8661417322834646,
                    "duration": 0.11979166666666785
                },
                {
                    "name": "B3",
                    "midi": 59,
                    "time": 21.249999999999982,
                    "velocity": 0.8661417322834646,
                    "duration": 0.7447916666666643
                },
                {
                    "name": "E5",
                    "midi": 76,
                    "time": 21.249999999999982,
                    "velocity": 0.8661417322834646,
                    "duration": 0.08333333333333215
                },
                {
                    "name": "D#5",
                    "midi": 75,
                    "time": 21.333333333333314,
                    "velocity": 0.8661417322834646,
                    "duration": 0.08333333333333215
                },
                {
                    "name": "E5",
                    "midi": 76,
                    "time": 21.416666666666647,
                    "velocity": 0.8661417322834646,
                    "duration": 0.08333333333333215
                },
                {
                    "name": "B2",
                    "midi": 47,
                    "time": 21.49999999999998,
                    "velocity": 0.8661417322834646,
                    "duration": 0.24479166666666785
                },
                {
                    "name": "D#5",
                    "midi": 75,
                    "time": 21.49999999999998,
                    "velocity": 0.8661417322834646,
                    "duration": 0.11979166666666785
                },
                {
                    "name": "C#5",
                    "midi": 73,
                    "time": 21.62499999999998,
                    "velocity": 0.8661417322834646,
                    "duration": 0.05729166666666785
                },
                {
                    "name": "D#5",
                    "midi": 75,
                    "time": 21.68749999999998,
                    "velocity": 0.8661417322834646,
                    "duration": 0.05729166666666785
                },
                {
                    "name": "E5",
                    "midi": 76,
                    "time": 21.74999999999998,
                    "velocity": 0.8661417322834646,
                    "duration": 0.24479166666666785
                },
                {
                    "name": "C#3",
                    "midi": 49,
                    "time": 21.74999999999998,
                    "velocity": 0.8661417322834646,
                    "duration": 0.6666666666666643
                },
                {
                    "name": "D#5",
                    "midi": 75,
                    "time": 21.99999999999998,
                    "velocity": 0.8661417322834646,
                    "duration": 0.11979166666666785
                },
                {
                    "name": "B3",
                    "midi": 59,
                    "time": 21.99999999999998,
                    "velocity": 0.8661417322834646,
                    "duration": 0.24479166666666785
                },
                {
                    "name": "E5",
                    "midi": 76,
                    "time": 22.12499999999998,
                    "velocity": 0.8661417322834646,
                    "duration": 0.11979166666666785
                },
                {
                    "name": "A3",
                    "midi": 57,
                    "time": 22.24999999999998,
                    "velocity": 0.8661417322834646,
                    "duration": 0.6666666666666643
                },
                {
                    "name": "F#5",
                    "midi": 78,
                    "time": 22.24999999999998,
                    "velocity": 0.8661417322834646,
                    "duration": 0.08333333333333215
                },
                {
                    "name": "E5",
                    "midi": 76,
                    "time": 22.33333333333331,
                    "velocity": 0.8661417322834646,
                    "duration": 0.08333333333333215
                },
                {
                    "name": "F#5",
                    "midi": 78,
                    "time": 22.416666666666643,
                    "velocity": 0.8661417322834646,
                    "duration": 0.08333333333333215
                },
                {
                    "name": "C#3",
                    "midi": 49,
                    "time": 22.499999999999975,
                    "velocity": 0.8661417322834646,
                    "duration": 0.24479166666666785
                },
                {
                    "name": "E5",
                    "midi": 76,
                    "time": 22.499999999999975,
                    "velocity": 0.8661417322834646,
                    "duration": 0.11979166666666785
                },
                {
                    "name": "D#5",
                    "midi": 75,
                    "time": 22.624999999999975,
                    "velocity": 0.8661417322834646,
                    "duration": 0.05729166666666785
                },
                {
                    "name": "E5",
                    "midi": 76,
                    "time": 22.687499999999975,
                    "velocity": 0.8661417322834646,
                    "duration": 0.05729166666666785
                },
                {
                    "name": "F#5",
                    "midi": 78,
                    "time": 22.749999999999975,
                    "velocity": 0.8661417322834646,
                    "duration": 0.11979166666666785
                },
                {
                    "name": "D#3",
                    "midi": 51,
                    "time": 22.749999999999975,
                    "velocity": 0.8661417322834646,
                    "duration": 0.41666666666666785
                },
                {
                    "name": "E5",
                    "midi": 76,
                    "time": 22.874999999999975,
                    "velocity": 0.8661417322834646,
                    "duration": 0.11979166666666785
                },
                {
                    "name": "F#5",
                    "midi": 78,
                    "time": 22.999999999999975,
                    "velocity": 0.8661417322834646,
                    "duration": 0.24479166666666785
                },
                {
                    "name": "A3",
                    "midi": 57,
                    "time": 22.999999999999975,
                    "velocity": 0.8661417322834646,
                    "duration": 0.49479166666666785
                },
                {
                    "name": "B4",
                    "midi": 71,
                    "time": 23.249999999999975,
                    "velocity": 0.8661417322834646,
                    "duration": 0.6666666666666679
                },
                {
                    "name": "E3",
                    "midi": 52,
                    "time": 23.249999999999975,
                    "velocity": 0.8661417322834646,
                    "duration": 0.6666666666666679
                },
                {
                    "name": "A3",
                    "midi": 57,
                    "time": 23.499999999999975,
                    "velocity": 0.8661417322834646,
                    "duration": 0.24479166666666785
                },
                {
                    "name": "G#3",
                    "midi": 56,
                    "time": 23.749999999999975,
                    "velocity": 0.8661417322834646,
                    "duration": 0.7447916666666679
                },
                {
                    "name": "B4",
                    "midi": 71,
                    "time": 23.999999999999975,
                    "velocity": 0.8661417322834646,
                    "duration": 0.24479166666666785
                },
                {
                    "name": "E3",
                    "midi": 52,
                    "time": 23.999999999999975,
                    "velocity": 0.8661417322834646,
                    "duration": 0.24479166666666785
                },
                {
                    "name": "B4",
                    "midi": 71,
                    "time": 24.249999999999975,
                    "velocity": 0.8661417322834646,
                    "duration": 0.7447916666666679
                },
                {
                    "name": "G#2",
                    "midi": 44,
                    "time": 24.249999999999975,
                    "velocity": 0.8661417322834646,
                    "duration": 0.41666666666666785
                },
                {
                    "name": "B3",
                    "midi": 59,
                    "time": 24.499999999999975,
                    "velocity": 0.8661417322834646,
                    "duration": 0.24479166666666785
                },
                {
                    "name": "G#3",
                    "midi": 56,
                    "time": 24.499999999999975,
                    "velocity": 0.8661417322834646,
                    "duration": 0.49479166666666785
                },
                {
                    "name": "C#4",
                    "midi": 61,
                    "time": 24.749999999999975,
                    "velocity": 0.8661417322834646,
                    "duration": 0.6666666666666679
                },
                {
                    "name": "A2",
                    "midi": 45,
                    "time": 24.749999999999975,
                    "velocity": 0.8661417322834646,
                    "duration": 0.6666666666666679
                },
                {
                    "name": "B4",
                    "midi": 71,
                    "time": 24.999999999999975,
                    "velocity": 0.8661417322834646,
                    "duration": 0.24479166666666785
                },
                {
                    "name": "G#3",
                    "midi": 56,
                    "time": 24.999999999999975,
                    "velocity": 0.8661417322834646,
                    "duration": 0.24479166666666785
                },
                {
                    "name": "A4",
                    "midi": 69,
                    "time": 25.249999999999975,
                    "velocity": 0.8661417322834646,
                    "duration": 0.7447916666666679
                },
                {
                    "name": "F#3",
                    "midi": 54,
                    "time": 25.249999999999975,
                    "velocity": 0.8661417322834646,
                    "duration": 0.7447916666666679
                },
                {
                    "name": "C#4",
                    "midi": 61,
                    "time": 25.499999999999975,
                    "velocity": 0.8661417322834646,
                    "duration": 0.24479166666666785
                },
                {
                    "name": "A2",
                    "midi": 45,
                    "time": 25.499999999999975,
                    "velocity": 0.8661417322834646,
                    "duration": 0.24479166666666785
                },
                {
                    "name": "D#4",
                    "midi": 63,
                    "time": 25.749999999999975,
                    "velocity": 0.8661417322834646,
                    "duration": 0.41666666666666785
                },
                {
                    "name": "B2",
                    "midi": 47,
                    "time": 25.749999999999975,
                    "velocity": 0.8661417322834646,
                    "duration": 0.41666666666666785
                },
                {
                    "name": "A4",
                    "midi": 69,
                    "time": 25.999999999999975,
                    "velocity": 0.8661417322834646,
                    "duration": 0.24479166666666785
                },
                {
                    "name": "F#3",
                    "midi": 54,
                    "time": 25.999999999999975,
                    "velocity": 0.8661417322834646,
                    "duration": 0.24479166666666785
                },
                {
                    "name": "G#4",
                    "midi": 68,
                    "time": 26.249999999999975,
                    "velocity": 0.8661417322834646,
                    "duration": 0.24479166666666785
                },
                {
                    "name": "E3",
                    "midi": 52,
                    "time": 26.249999999999975,
                    "velocity": 0.8661417322834646,
                    "duration": 0.6666666666666679
                },
                {
                    "name": "C#3",
                    "midi": 49,
                    "time": 26.249999999999975,
                    "velocity": 0.8661417322834646,
                    "duration": 0.41666666666666785
                },
                {
                    "name": "E4",
                    "midi": 64,
                    "time": 26.499999999999975,
                    "velocity": 0.8661417322834646,
                    "duration": 0.24479166666666785
                },
                {
                    "name": "E5",
                    "midi": 76,
                    "time": 26.749999999999975,
                    "velocity": 0.8661417322834646,
                    "duration": 0.6666666666666679
                },
                {
                    "name": "F#3",
                    "midi": 54,
                    "time": 26.999999999999975,
                    "velocity": 0.8661417322834646,
                    "duration": 0.24479166666666785
                },
                {
                    "name": "G#3",
                    "midi": 56,
                    "time": 27.249999999999975,
                    "velocity": 0.8661417322834646,
                    "duration": 0.7447916666666679
                },
                {
                    "name": "D#5",
                    "midi": 75,
                    "time": 27.499999999999975,
                    "velocity": 0.8661417322834646,
                    "duration": 0.24479166666666785
                },
                {
                    "name": "G#2",
                    "midi": 44,
                    "time": 27.499999999999975,
                    "velocity": 0.8661417322834646,
                    "duration": 0.24479166666666785
                },
                {
                    "name": "C#5",
                    "midi": 73,
                    "time": 27.749999999999975,
                    "velocity": 0.8661417322834646,
                    "duration": 0.24479166666666785
                },
                {
                    "name": "A2",
                    "midi": 45,
                    "time": 27.749999999999975,
                    "velocity": 0.8661417322834646,
                    "duration": 0.875
                },
                {
                    "name": "B4",
                    "midi": 71,
                    "time": 27.999999999999975,
                    "velocity": 0.8661417322834646,
                    "duration": 0.24479166666666785
                },
                {
                    "name": "G#3",
                    "midi": 56,
                    "time": 27.999999999999975,
                    "velocity": 0.8661417322834646,
                    "duration": 0.24479166666666785
                },
                {
                    "name": "A4",
                    "midi": 69,
                    "time": 28.249999999999975,
                    "velocity": 0.8661417322834646,
                    "duration": 0.24479166666666785
                },
                {
                    "name": "C#4",
                    "midi": 61,
                    "time": 28.249999999999975,
                    "velocity": 0.8661417322834646,
                    "duration": 0.41666666666666785
                },
                {
                    "name": "F#3",
                    "midi": 54,
                    "time": 28.249999999999975,
                    "velocity": 0.8661417322834646,
                    "duration": 0.24479166666666785
                },
                {
                    "name": "G#4",
                    "midi": 68,
                    "time": 28.499999999999975,
                    "velocity": 0.8661417322834646,
                    "duration": 0.24479166666666785
                },
                {
                    "name": "G#3",
                    "midi": 56,
                    "time": 28.499999999999975,
                    "velocity": 0.8661417322834646,
                    "duration": 0.24479166666666785
                },
                {
                    "name": "A4",
                    "midi": 69,
                    "time": 28.749999999999975,
                    "velocity": 0.8661417322834646,
                    "duration": 0.24479166666666785
                },
                {
                    "name": "F#4",
                    "midi": 66,
                    "time": 28.749999999999975,
                    "velocity": 0.8661417322834646,
                    "duration": 0.24479166666666785
                },
                {
                    "name": "A3",
                    "midi": 57,
                    "time": 28.749999999999975,
                    "velocity": 0.8661417322834646,
                    "duration": 0.41666666666666785
                },
                {
                    "name": "A4",
                    "midi": 69,
                    "time": 28.999999999999975,
                    "velocity": 0.8661417322834646,
                    "duration": 0.24479166666666785
                },
                {
                    "name": "E4",
                    "midi": 64,
                    "time": 28.999999999999975,
                    "velocity": 0.8661417322834646,
                    "duration": 0.24479166666666785
                },
                {
                    "name": "C#3",
                    "midi": 49,
                    "time": 28.999999999999975,
                    "velocity": 0.8661417322834646,
                    "duration": 0.24479166666666785
                },
                {
                    "name": "A4",
                    "midi": 69,
                    "time": 29.249999999999975,
                    "velocity": 0.8661417322834646,
                    "duration": 0.41666666666666785
                },
                {
                    "name": "B3",
                    "midi": 59,
                    "time": 29.249999999999975,
                    "velocity": 0.8661417322834646,
                    "duration": 0.41666666666666785
                },
                {
                    "name": "D#4",
                    "midi": 63,
                    "time": 29.249999999999975,
                    "velocity": 0.8661417322834646,
                    "duration": 0.41666666666666785
                },
                {
                    "name": "F#4",
                    "midi": 66,
                    "time": 29.249999999999975,
                    "velocity": 0.8661417322834646,
                    "duration": 0.41666666666666785
                },
                {
                    "name": "F#3",
                    "midi": 54,
                    "time": 29.249999999999975,
                    "velocity": 0.8661417322834646,
                    "duration": 0.41666666666666785
                },
                {
                    "name": "D#3",
                    "midi": 51,
                    "time": 29.249999999999975,
                    "velocity": 0.8661417322834646,
                    "duration": 0.41666666666666785
                },
                {
                    "name": "B2",
                    "midi": 47,
                    "time": 29.249999999999975,
                    "velocity": 0.8661417322834646,
                    "duration": 0.6666666666666679
                },
                {
                    "name": "B4",
                    "midi": 71,
                    "time": 29.749999999999975,
                    "velocity": 0.8661417322834646,
                    "duration": 0.11979166666666785
                },
                {
                    "name": "A4",
                    "midi": 69,
                    "time": 29.874999999999975,
                    "velocity": 0.8661417322834646,
                    "duration": 0.11979166666666785
                },
                {
                    "name": "G#4",
                    "midi": 68,
                    "time": 29.999999999999975,
                    "velocity": 0.8661417322834646,
                    "duration": 0.11979166666666785
                },
                {
                    "name": "D#3",
                    "midi": 51,
                    "time": 29.999999999999975,
                    "velocity": 0.8661417322834646,
                    "duration": 0.24479166666666785
                },
                {
                    "name": "F#4",
                    "midi": 66,
                    "time": 30.124999999999975,
                    "velocity": 0.8661417322834646,
                    "duration": 0.11979166666666785
                },
                {
                    "name": "G#4",
                    "midi": 68,
                    "time": 30.249999999999975,
                    "velocity": 0.8661417322834646,
                    "duration": 0.24479166666666785
                },
                {
                    "name": "E3",
                    "midi": 52,
                    "time": 30.249999999999975,
                    "velocity": 0.8661417322834646,
                    "duration": 0.24479166666666785
                },
                {
                    "name": "E4",
                    "midi": 64,
                    "time": 30.499999999999975,
                    "velocity": 0.8661417322834646,
                    "duration": 0.24479166666666785
                },
                {
                    "name": "G#2",
                    "midi": 44,
                    "time": 30.499999999999975,
                    "velocity": 0.8661417322834646,
                    "duration": 0.24479166666666785
                },
                {
                    "name": "C#4",
                    "midi": 61,
                    "time": 30.749999999999975,
                    "velocity": 0.8661417322834646,
                    "duration": 0.41666666666666785
                },
                {
                    "name": "A3",
                    "midi": 57,
                    "time": 30.749999999999975,
                    "velocity": 0.8661417322834646,
                    "duration": 0.41666666666666785
                },
                {
                    "name": "A2",
                    "midi": 45,
                    "time": 30.749999999999975,
                    "velocity": 0.8661417322834646,
                    "duration": 0.41666666666666785
                },
                {
                    "name": "F#4",
                    "midi": 66,
                    "time": 30.999999999999975,
                    "velocity": 0.8661417322834646,
                    "duration": 0.41666666666666785
                },
                {
                    "name": "B3",
                    "midi": 59,
                    "time": 31.249999999999975,
                    "velocity": 0.8661417322834646,
                    "duration": 0.41666666666666785
                },
                {
                    "name": "G#3",
                    "midi": 56,
                    "time": 31.249999999999975,
                    "velocity": 0.8661417322834646,
                    "duration": 0.41666666666666785
                },
                {
                    "name": "B2",
                    "midi": 47,
                    "time": 31.249999999999975,
                    "velocity": 0.8661417322834646,
                    "duration": 0.41666666666666785
                },
                {
                    "name": "E4",
                    "midi": 64,
                    "time": 31.499999999999975,
                    "velocity": 0.8661417322834646,
                    "duration": 0.41666666666666785
                },
                {
                    "name": "A3",
                    "midi": 57,
                    "time": 31.749999999999975,
                    "velocity": 0.8661417322834646,
                    "duration": 0.41666666666666785
                },
                {
                    "name": "F#3",
                    "midi": 54,
                    "time": 31.749999999999975,
                    "velocity": 0.8661417322834646,
                    "duration": 0.41666666666666785
                },
                {
                    "name": "B1",
                    "midi": 35,
                    "time": 31.749999999999975,
                    "velocity": 0.8661417322834646,
                    "duration": 0.41666666666666785
                },
                {
                    "name": "D#4",
                    "midi": 63,
                    "time": 31.999999999999975,
                    "velocity": 0.8661417322834646,
                    "duration": 0.24479166666666785
                },
                {
                    "name": "E4",
                    "midi": 64,
                    "time": 32.24999999999998,
                    "velocity": 0.8661417322834646,
                    "duration": 0.875
                },
                {
                    "name": "E3",
                    "midi": 52,
                    "time": 32.24999999999998,
                    "velocity": 0.8661417322834646,
                    "duration": 0.875
                },
                {
                    "name": "E2",
                    "midi": 40,
                    "time": 32.24999999999998,
                    "velocity": 0.8661417322834646,
                    "duration": 1.375
                },
                {
                    "name": "B3",
                    "midi": 59,
                    "time": 32.49999999999998,
                    "velocity": 0.8661417322834646,
                    "duration": 0.2447916666666643
                },
                {
                    "name": "C#4",
                    "midi": 61,
                    "time": 32.74999999999998,
                    "velocity": 0.8661417322834646,
                    "duration": 0.2447916666666643
                },
                {
                    "name": "A3",
                    "midi": 57,
                    "time": 32.99999999999998,
                    "velocity": 0.8661417322834646,
                    "duration": 0.2447916666666643
                },
                {
                    "name": "A4",
                    "midi": 69,
                    "time": 33.24999999999998,
                    "velocity": 0.8661417322834646,
                    "duration": 0.2447916666666643
                },
                {
                    "name": "F#3",
                    "midi": 54,
                    "time": 33.24999999999998,
                    "velocity": 0.8661417322834646,
                    "duration": 0.4166666666666643
                },
                {
                    "name": "D#4",
                    "midi": 63,
                    "time": 33.49999999999998,
                    "velocity": 0.8661417322834646,
                    "duration": 0.2447916666666643
                },
                {
                    "name": "E4",
                    "midi": 64,
                    "time": 33.74999999999998,
                    "velocity": 0.8661417322834646,
                    "duration": 0.6666666666666643
                },
                {
                    "name": "G#3",
                    "midi": 56,
                    "time": 33.74999999999998,
                    "velocity": 0.8661417322834646,
                    "duration": 0.6666666666666643
                },
                {
                    "name": "B3",
                    "midi": 59,
                    "time": 33.74999999999998,
                    "velocity": 0.8661417322834646,
                    "duration": 0.6666666666666643
                },
                {
                    "name": "E2",
                    "midi": 40,
                    "time": 33.74999999999998,
                    "velocity": 0.8661417322834646,
                    "duration": 0.6666666666666643
                },
                {
                    "name": "B2",
                    "midi": 47,
                    "time": 33.74999999999998,
                    "velocity": 0.8661417322834646,
                    "duration": 0.6666666666666643
                },
                {
                    "name": "E3",
                    "midi": 52,
                    "time": 33.74999999999998,
                    "velocity": 0.8661417322834646,
                    "duration": 0.6666666666666643
                },
                {
                    "name": "E3",
                    "midi": 52,
                    "time": 34.49999999999998,
                    "velocity": 0.8661417322834646,
                    "duration": 0.2447916666666643
                },
                {
                    "name": "A3",
                    "midi": 57,
                    "time": 34.74999999999998,
                    "velocity": 0.8661417322834646,
                    "duration": 0.4166666666666643
                },
                {
                    "name": "C#4",
                    "midi": 61,
                    "time": 34.99999999999998,
                    "velocity": 0.8661417322834646,
                    "duration": 0.4947916666666643
                },
                {
                    "name": "E4",
                    "midi": 64,
                    "time": 35.24999999999998,
                    "velocity": 0.8661417322834646,
                    "duration": 0.8750000000000071
                },
                {
                    "name": "A2",
                    "midi": 45,
                    "time": 35.24999999999998,
                    "velocity": 0.8661417322834646,
                    "duration": 0.8750000000000071
                },
                {
                    "name": "B3",
                    "midi": 59,
                    "time": 35.49999999999998,
                    "velocity": 0.8661417322834646,
                    "duration": 0.2447916666666643
                },
                {
                    "name": "A1",
                    "midi": 33,
                    "time": 35.74999999999998,
                    "velocity": 0.8661417322834646,
                    "duration": 0.8750000000000071
                },
                {
                    "name": "C#4",
                    "midi": 61,
                    "time": 35.74999999999998,
                    "velocity": 0.8661417322834646,
                    "duration": 0.0833333333333357
                },
                {
                    "name": "B3",
                    "midi": 59,
                    "time": 35.833333333333314,
                    "velocity": 0.8661417322834646,
                    "duration": 0.0833333333333357
                },
                {
                    "name": "C#4",
                    "midi": 61,
                    "time": 35.91666666666665,
                    "velocity": 0.8661417322834646,
                    "duration": 0.328125
                },
                {
                    "name": "A3",
                    "midi": 57,
                    "time": 35.999999999999986,
                    "velocity": 0.8661417322834646,
                    "duration": 0.4166666666666643
                },
                {
                    "name": "D4",
                    "midi": 62,
                    "time": 36.249999999999986,
                    "velocity": 0.8661417322834646,
                    "duration": 0.4166666666666643
                },
                {
                    "name": "B3",
                    "midi": 59,
                    "time": 36.249999999999986,
                    "velocity": 0.8661417322834646,
                    "duration": 0.4166666666666643
                },
                {
                    "name": "G#3",
                    "midi": 56,
                    "time": 36.499999999999986,
                    "velocity": 0.8661417322834646,
                    "duration": 0.2447916666666643
                },
                {
                    "name": "C#4",
                    "midi": 61,
                    "time": 36.749999999999986,
                    "velocity": 0.8661417322834646,
                    "duration": 0.6666666666666643
                },
                {
                    "name": "A3",
                    "midi": 57,
                    "time": 36.749999999999986,
                    "velocity": 0.8661417322834646,
                    "duration": 0.125
                },
                {
                    "name": "G#3",
                    "midi": 56,
                    "time": 36.874999999999986,
                    "velocity": 0.8661417322834646,
                    "duration": 0.125
                },
                {
                    "name": "F#3",
                    "midi": 54,
                    "time": 36.999999999999986,
                    "velocity": 0.8661417322834646,
                    "duration": 0.2447916666666643
                },
                {
                    "name": "A3",
                    "midi": 57,
                    "time": 36.999999999999986,
                    "velocity": 0.8661417322834646,
                    "duration": 0.6666666666666643
                },
                {
                    "name": "E3",
                    "midi": 52,
                    "time": 37.249999999999986,
                    "velocity": 0.8661417322834646,
                    "duration": 0.2447916666666643
                },
                {
                    "name": "E4",
                    "midi": 64,
                    "time": 37.499999999999986,
                    "velocity": 0.8661417322834646,
                    "duration": 0.2447916666666643
                },
                {
                    "name": "D3",
                    "midi": 50,
                    "time": 37.499999999999986,
                    "velocity": 0.8661417322834646,
                    "duration": 0.2447916666666643
                },
                {
                    "name": "F#4",
                    "midi": 66,
                    "time": 37.749999999999986,
                    "velocity": 0.8661417322834646,
                    "duration": 0.2447916666666643
                },
                {
                    "name": "C#3",
                    "midi": 49,
                    "time": 37.749999999999986,
                    "velocity": 0.8661417322834646,
                    "duration": 0.2447916666666643
                },
                {
                    "name": "G#4",
                    "midi": 68,
                    "time": 37.999999999999986,
                    "velocity": 0.8661417322834646,
                    "duration": 0.2447916666666643
                },
                {
                    "name": "B2",
                    "midi": 47,
                    "time": 37.999999999999986,
                    "velocity": 0.8661417322834646,
                    "duration": 0.2447916666666643
                },
                {
                    "name": "C#3",
                    "midi": 49,
                    "time": 38.249999999999986,
                    "velocity": 0.8661417322834646,
                    "duration": 0.4166666666666714
                },
                {
                    "name": "A4",
                    "midi": 69,
                    "time": 38.249999999999986,
                    "velocity": 0.8661417322834646,
                    "duration": 0.078125
                },
                {
                    "name": "G#4",
                    "midi": 68,
                    "time": 38.33333333333332,
                    "velocity": 0.8661417322834646,
                    "duration": 0.078125
                },
                {
                    "name": "A4",
                    "midi": 69,
                    "time": 38.41666666666666,
                    "velocity": 0.8661417322834646,
                    "duration": 0.5
                },
                {
                    "name": "E3",
                    "midi": 52,
                    "time": 38.49999999999999,
                    "velocity": 0.8661417322834646,
                    "duration": 0.2447916666666643
                },
                {
                    "name": "F#3",
                    "midi": 54,
                    "time": 38.74999999999999,
                    "velocity": 0.8661417322834646,
                    "duration": 0.2447916666666643
                },
                {
                    "name": "B4",
                    "midi": 71,
                    "time": 38.99999999999999,
                    "velocity": 0.8661417322834646,
                    "duration": 0.2447916666666643
                },
                {
                    "name": "G#3",
                    "midi": 56,
                    "time": 38.99999999999999,
                    "velocity": 0.8661417322834646,
                    "duration": 0.2447916666666643
                },
                {
                    "name": "C#5",
                    "midi": 73,
                    "time": 39.24999999999999,
                    "velocity": 0.8661417322834646,
                    "duration": 0.2447916666666643
                },
                {
                    "name": "A3",
                    "midi": 57,
                    "time": 39.24999999999999,
                    "velocity": 0.8661417322834646,
                    "duration": 0.4166666666666643
                },
                {
                    "name": "D5",
                    "midi": 74,
                    "time": 39.49999999999999,
                    "velocity": 0.8661417322834646,
                    "duration": 0.2447916666666643
                },
                {
                    "name": "A2",
                    "midi": 45,
                    "time": 39.49999999999999,
                    "velocity": 0.8661417322834646,
                    "duration": 0.2447916666666643
                },
                {
                    "name": "G#3",
                    "midi": 56,
                    "time": 39.74999999999999,
                    "velocity": 0.8661417322834646,
                    "duration": 0.8750000000000071
                },
                {
                    "name": "E3",
                    "midi": 52,
                    "time": 39.74999999999999,
                    "velocity": 0.8661417322834646,
                    "duration": 0.8750000000000071
                },
                {
                    "name": "C#5",
                    "midi": 73,
                    "time": 39.74999999999999,
                    "velocity": 0.8661417322834646,
                    "duration": 0.0833333333333357
                },
                {
                    "name": "B4",
                    "midi": 71,
                    "time": 39.83333333333333,
                    "velocity": 0.8661417322834646,
                    "duration": 0.0833333333333357
                },
                {
                    "name": "C#5",
                    "midi": 73,
                    "time": 39.916666666666664,
                    "velocity": 0.8661417322834646,
                    "duration": 0.0833333333333357
                },
                {
                    "name": "B3",
                    "midi": 59,
                    "time": 40,
                    "velocity": 0.8661417322834646,
                    "duration": 0.2447916666666643
                },
                {
                    "name": "B4",
                    "midi": 71,
                    "time": 40,
                    "velocity": 0.8661417322834646,
                    "duration": 0.6666666666666643
                },
                {
                    "name": "C#4",
                    "midi": 61,
                    "time": 40.25,
                    "velocity": 0.8661417322834646,
                    "duration": 0.2447916666666643
                },
                {
                    "name": "D4",
                    "midi": 62,
                    "time": 40.5,
                    "velocity": 0.8661417322834646,
                    "duration": 0.2447916666666643
                },
                {
                    "name": "E4",
                    "midi": 64,
                    "time": 40.75,
                    "velocity": 0.8661417322834646,
                    "duration": 0.7447916666666714
                },
                {
                    "name": "A4",
                    "midi": 69,
                    "time": 40.75,
                    "velocity": 0.8661417322834646,
                    "duration": 0.0833333333333357
                },
                {
                    "name": "G#4",
                    "midi": 68,
                    "time": 40.833333333333336,
                    "velocity": 0.8661417322834646,
                    "duration": 0.0833333333333357
                },
                {
                    "name": "A4",
                    "midi": 69,
                    "time": 40.91666666666667,
                    "velocity": 0.8661417322834646,
                    "duration": 0.0833333333333357
                },
                {
                    "name": "E3",
                    "midi": 52,
                    "time": 41.00000000000001,
                    "velocity": 0.8661417322834646,
                    "duration": 0.2447916666666643
                },
                {
                    "name": "G#4",
                    "midi": 68,
                    "time": 41.00000000000001,
                    "velocity": 0.8661417322834646,
                    "duration": 0.1197916666666643
                },
                {
                    "name": "F#4",
                    "midi": 66,
                    "time": 41.12500000000001,
                    "velocity": 0.8661417322834646,
                    "duration": 0.0572916666666643
                },
                {
                    "name": "G#4",
                    "midi": 68,
                    "time": 41.18750000000001,
                    "velocity": 0.8661417322834646,
                    "duration": 0.0572916666666643
                },
                {
                    "name": "A4",
                    "midi": 69,
                    "time": 41.25000000000001,
                    "velocity": 0.8661417322834646,
                    "duration": 0.2447916666666643
                },
                {
                    "name": "F#3",
                    "midi": 54,
                    "time": 41.25000000000001,
                    "velocity": 0.8661417322834646,
                    "duration": 0.6666666666666714
                },
                {
                    "name": "G#4",
                    "midi": 68,
                    "time": 41.50000000000001,
                    "velocity": 0.8661417322834646,
                    "duration": 0.1197916666666643
                },
                {
                    "name": "E4",
                    "midi": 64,
                    "time": 41.50000000000001,
                    "velocity": 0.8661417322834646,
                    "duration": 0.2447916666666643
                },
                {
                    "name": "A4",
                    "midi": 69,
                    "time": 41.62500000000001,
                    "velocity": 0.8661417322834646,
                    "duration": 0.1197916666666643
                },
                {
                    "name": "D4",
                    "midi": 62,
                    "time": 41.75000000000001,
                    "velocity": 0.8661417322834646,
                    "duration": 0.7447916666666714
                },
                {
                    "name": "B4",
                    "midi": 71,
                    "time": 41.75000000000001,
                    "velocity": 0.8661417322834646,
                    "duration": 0.0833333333333357
                },
                {
                    "name": "A4",
                    "midi": 69,
                    "time": 41.83333333333334,
                    "velocity": 0.8661417322834646,
                    "duration": 0.0833333333333357
                },
                {
                    "name": "B4",
                    "midi": 71,
                    "time": 41.91666666666668,
                    "velocity": 0.8661417322834646,
                    "duration": 0.0833333333333357
                },
                {
                    "name": "F#3",
                    "midi": 54,
                    "time": 42.000000000000014,
                    "velocity": 0.8661417322834646,
                    "duration": 0.2447916666666643
                },
                {
                    "name": "A4",
                    "midi": 69,
                    "time": 42.000000000000014,
                    "velocity": 0.8661417322834646,
                    "duration": 0.1197916666666643
                },
                {
                    "name": "G#4",
                    "midi": 68,
                    "time": 42.125000000000014,
                    "velocity": 0.8661417322834646,
                    "duration": 0.0572916666666643
                },
                {
                    "name": "A4",
                    "midi": 69,
                    "time": 42.187500000000014,
                    "velocity": 0.8661417322834646,
                    "duration": 0.0572916666666643
                },
                {
                    "name": "B4",
                    "midi": 71,
                    "time": 42.250000000000014,
                    "velocity": 0.8661417322834646,
                    "duration": 0.1197916666666643
                },
                {
                    "name": "G#3",
                    "midi": 56,
                    "time": 42.250000000000014,
                    "velocity": 0.8661417322834646,
                    "duration": 0.4166666666666643
                },
                {
                    "name": "A4",
                    "midi": 69,
                    "time": 42.375000000000014,
                    "velocity": 0.8661417322834646,
                    "duration": 0.1197916666666643
                },
                {
                    "name": "B4",
                    "midi": 71,
                    "time": 42.500000000000014,
                    "velocity": 0.8661417322834646,
                    "duration": 0.2447916666666643
                },
                {
                    "name": "D4",
                    "midi": 62,
                    "time": 42.500000000000014,
                    "velocity": 0.8661417322834646,
                    "duration": 0.4947916666666643
                },
                {
                    "name": "E4",
                    "midi": 64,
                    "time": 42.750000000000014,
                    "velocity": 0.8661417322834646,
                    "duration": 1.2447916666666643
                },
                {
                    "name": "A3",
                    "midi": 57,
                    "time": 42.750000000000014,
                    "velocity": 0.8661417322834646,
                    "duration": 0.6666666666666643
                },
                {
                    "name": "D4",
                    "midi": 62,
                    "time": 43.000000000000014,
                    "velocity": 0.8661417322834646,
                    "duration": 0.2447916666666643
                },
                {
                    "name": "C#4",
                    "midi": 61,
                    "time": 43.250000000000014,
                    "velocity": 0.8661417322834646,
                    "duration": 0.7447916666666643
                },
                {
                    "name": "E5",
                    "midi": 76,
                    "time": 43.500000000000014,
                    "velocity": 0.8661417322834646,
                    "duration": 0.2447916666666643
                },
                {
                    "name": "A3",
                    "midi": 57,
                    "time": 43.500000000000014,
                    "velocity": 0.8661417322834646,
                    "duration": 0.2447916666666643
                },
                {
                    "name": "E5",
                    "midi": 76,
                    "time": 43.750000000000014,
                    "velocity": 0.8661417322834646,
                    "duration": 0.7447916666666643
                },
                {
                    "name": "C#3",
                    "midi": 49,
                    "time": 43.750000000000014,
                    "velocity": 0.8661417322834646,
                    "duration": 0.4166666666666643
                },
                {
                    "name": "E4",
                    "midi": 64,
                    "time": 44.000000000000014,
                    "velocity": 0.8661417322834646,
                    "duration": 0.2447916666666643
                },
                {
                    "name": "C#4",
                    "midi": 61,
                    "time": 44.000000000000014,
                    "velocity": 0.8661417322834646,
                    "duration": 0.4947916666666643
                },
                {
                    "name": "F#4",
                    "midi": 66,
                    "time": 44.250000000000014,
                    "velocity": 0.8661417322834646,
                    "duration": 0.6666666666666643
                },
                {
                    "name": "D3",
                    "midi": 50,
                    "time": 44.250000000000014,
                    "velocity": 0.8661417322834646,
                    "duration": 0.6666666666666643
                },
                {
                    "name": "E5",
                    "midi": 76,
                    "time": 44.500000000000014,
                    "velocity": 0.8661417322834646,
                    "duration": 0.2447916666666643
                },
                {
                    "name": "C#4",
                    "midi": 61,
                    "time": 44.500000000000014,
                    "velocity": 0.8661417322834646,
                    "duration": 0.2447916666666643
                },
                {
                    "name": "D5",
                    "midi": 74,
                    "time": 44.750000000000014,
                    "velocity": 0.8661417322834646,
                    "duration": 0.6666666666666643
                },
                {
                    "name": "B3",
                    "midi": 59,
                    "time": 44.750000000000014,
                    "velocity": 0.8661417322834646,
                    "duration": 0.7447916666666643
                },
                {
                    "name": "F#4",
                    "midi": 66,
                    "time": 45.000000000000014,
                    "velocity": 0.8661417322834646,
                    "duration": 0.2447916666666643
                },
                {
                    "name": "D3",
                    "midi": 50,
                    "time": 45.000000000000014,
                    "velocity": 0.8661417322834646,
                    "duration": 0.2447916666666643
                },
                {
                    "name": "G#4",
                    "midi": 68,
                    "time": 45.250000000000014,
                    "velocity": 0.8661417322834646,
                    "duration": 0.4166666666666643
                },
                {
                    "name": "E3",
                    "midi": 52,
                    "time": 45.250000000000014,
                    "velocity": 0.8661417322834646,
                    "duration": 0.4166666666666643
                },
                {
                    "name": "D5",
                    "midi": 74,
                    "time": 45.500000000000014,
                    "velocity": 0.8661417322834646,
                    "duration": 0.4947916666666643
                },
                {
                    "name": "B3",
                    "midi": 59,
                    "time": 45.500000000000014,
                    "velocity": 0.8661417322834646,
                    "duration": 0.2447916666666643
                },
                {
                    "name": "A4",
                    "midi": 69,
                    "time": 45.750000000000014,
                    "velocity": 0.8661417322834646,
                    "duration": 0.4166666666666643
                },
                {
                    "name": "F#3",
                    "midi": 54,
                    "time": 45.750000000000014,
                    "velocity": 0.8661417322834646,
                    "duration": 0.4166666666666643
                },
                {
                    "name": "D5",
                    "midi": 74,
                    "time": 46.000000000000014,
                    "velocity": 0.8661417322834646,
                    "duration": 0.2447916666666643
                },
                {
                    "name": "B3",
                    "midi": 59,
                    "time": 46.000000000000014,
                    "velocity": 0.8661417322834646,
                    "duration": 0.2447916666666643
                },
                {
                    "name": "C#5",
                    "midi": 73,
                    "time": 46.250000000000014,
                    "velocity": 0.8661417322834646,
                    "duration": 0.2447916666666643
                },
                {
                    "name": "A3",
                    "midi": 57,
                    "time": 46.250000000000014,
                    "velocity": 0.8661417322834646,
                    "duration": 0.2447916666666643
                },
                {
                    "name": "B4",
                    "midi": 71,
                    "time": 46.500000000000014,
                    "velocity": 0.8661417322834646,
                    "duration": 0.2447916666666643
                },
                {
                    "name": "G#3",
                    "midi": 56,
                    "time": 46.500000000000014,
                    "velocity": 0.8661417322834646,
                    "duration": 0.2447916666666643
                },
                {
                    "name": "C#5",
                    "midi": 73,
                    "time": 46.750000000000014,
                    "velocity": 0.8661417322834646,
                    "duration": 0.4166666666666643
                },
                {
                    "name": "A3",
                    "midi": 57,
                    "time": 46.750000000000014,
                    "velocity": 0.8661417322834646,
                    "duration": 0.4166666666666643
                },
                {
                    "name": "A4",
                    "midi": 69,
                    "time": 47.000000000000014,
                    "velocity": 0.8661417322834646,
                    "duration": 0.2447916666666643
                },
                {
                    "name": "C#3",
                    "midi": 49,
                    "time": 47.000000000000014,
                    "velocity": 0.8661417322834646,
                    "duration": 0.2447916666666643
                },
                {
                    "name": "F#4",
                    "midi": 66,
                    "time": 47.250000000000014,
                    "velocity": 0.8661417322834646,
                    "duration": 0.4166666666666643
                },
                {
                    "name": "D4",
                    "midi": 62,
                    "time": 47.250000000000014,
                    "velocity": 0.8661417322834646,
                    "duration": 0.4166666666666643
                },
                {
                    "name": "D3",
                    "midi": 50,
                    "time": 47.250000000000014,
                    "velocity": 0.8661417322834646,
                    "duration": 0.4166666666666643
                },
                {
                    "name": "B4",
                    "midi": 71,
                    "time": 47.500000000000014,
                    "velocity": 0.8661417322834646,
                    "duration": 0.4166666666666643
                },
                {
                    "name": "E4",
                    "midi": 64,
                    "time": 47.750000000000014,
                    "velocity": 0.8661417322834646,
                    "duration": 0.4166666666666643
                },
                {
                    "name": "C#4",
                    "midi": 61,
                    "time": 47.750000000000014,
                    "velocity": 0.8661417322834646,
                    "duration": 0.4166666666666643
                },
                {
                    "name": "E3",
                    "midi": 52,
                    "time": 47.750000000000014,
                    "velocity": 0.8661417322834646,
                    "duration": 0.4166666666666643
                },
                {
                    "name": "A4",
                    "midi": 69,
                    "time": 48.000000000000014,
                    "velocity": 0.8661417322834646,
                    "duration": 0.4166666666666643
                },
                {
                    "name": "D4",
                    "midi": 62,
                    "time": 48.250000000000014,
                    "velocity": 0.8661417322834646,
                    "duration": 0.4166666666666643
                },
                {
                    "name": "B3",
                    "midi": 59,
                    "time": 48.250000000000014,
                    "velocity": 0.8661417322834646,
                    "duration": 0.4166666666666643
                },
                {
                    "name": "E2",
                    "midi": 40,
                    "time": 48.250000000000014,
                    "velocity": 0.8661417322834646,
                    "duration": 0.4166666666666643
                },
                {
                    "name": "G#4",
                    "midi": 68,
                    "time": 48.500000000000014,
                    "velocity": 0.8661417322834646,
                    "duration": 0.2447916666666643
                },
                {
                    "name": "A4",
                    "midi": 69,
                    "time": 48.750000000000014,
                    "velocity": 0.8661417322834646,
                    "duration": 0.6666666666666643
                },
                {
                    "name": "E4",
                    "midi": 64,
                    "time": 48.750000000000014,
                    "velocity": 0.8661417322834646,
                    "duration": 0.875
                },
                {
                    "name": "C#4",
                    "midi": 61,
                    "time": 48.750000000000014,
                    "velocity": 0.8661417322834646,
                    "duration": 0.875
                },
                {
                    "name": "A2",
                    "midi": 45,
                    "time": 48.750000000000014,
                    "velocity": 0.8661417322834646,
                    "duration": 0.875
                },
                {
                    "name": "E3",
                    "midi": 52,
                    "time": 49.000000000000014,
                    "velocity": 0.8661417322834646,
                    "duration": 0.2447916666666643
                },
                {
                    "name": "A3",
                    "midi": 57,
                    "time": 49.250000000000014,
                    "velocity": 0.8661417322834646,
                    "duration": 0.875
                },
                {
                    "name": "C#5",
                    "midi": 73,
                    "time": 49.500000000000014,
                    "velocity": 0.8661417322834646,
                    "duration": 0.2447916666666643
                },
                {
                    "name": "B4",
                    "midi": 71,
                    "time": 49.750000000000014,
                    "velocity": 0.8661417322834646,
                    "duration": 0.3697916666666643
                },
                {
                    "name": "C#4",
                    "midi": 61,
                    "time": 50.000000000000014,
                    "velocity": 0.8661417322834646,
                    "duration": 0.2447916666666643
                },
                {
                    "name": "A4",
                    "midi": 69,
                    "time": 50.125000000000014,
                    "velocity": 0.8661417322834646,
                    "duration": 0.1197916666666643
                },
                {
                    "name": "B4",
                    "midi": 71,
                    "time": 50.250000000000014,
                    "velocity": 0.8661417322834646,
                    "duration": 0.2447916666666643
                },
                {
                    "name": "D4",
                    "midi": 62,
                    "time": 50.250000000000014,
                    "velocity": 0.8661417322834646,
                    "duration": 0.4166666666666643
                },
                {
                    "name": "A3",
                    "midi": 57,
                    "time": 50.250000000000014,
                    "velocity": 0.8661417322834646,
                    "duration": 0.4166666666666643
                },
                {
                    "name": "E4",
                    "midi": 64,
                    "time": 50.500000000000014,
                    "velocity": 0.8661417322834646,
                    "duration": 0.2447916666666643
                },
                {
                    "name": "B4",
                    "midi": 71,
                    "time": 50.750000000000014,
                    "velocity": 0.8661417322834646,
                    "duration": 0.2447916666666643
                },
                {
                    "name": "B3",
                    "midi": 59,
                    "time": 50.750000000000014,
                    "velocity": 0.8661417322834646,
                    "duration": 0.4166666666666643
                },
                {
                    "name": "G#3",
                    "midi": 56,
                    "time": 50.750000000000014,
                    "velocity": 0.8661417322834646,
                    "duration": 0.8750000000000071
                },
                {
                    "name": "D5",
                    "midi": 74,
                    "time": 51.000000000000014,
                    "velocity": 0.8661417322834646,
                    "duration": 0.2447916666666643
                },
                {
                    "name": "E4",
                    "midi": 64,
                    "time": 51.250000000000014,
                    "velocity": 0.8661417322834646,
                    "duration": 0.4166666666666714
                },
                {
                    "name": "D5",
                    "midi": 74,
                    "time": 51.250000000000014,
                    "velocity": 0.8661417322834646,
                    "duration": 0.0833333333333357
                },
                {
                    "name": "C#5",
                    "midi": 73,
                    "time": 51.33333333333335,
                    "velocity": 0.8661417322834646,
                    "duration": 0.0833333333333357
                },
                {
                    "name": "D5",
                    "midi": 74,
                    "time": 51.416666666666686,
                    "velocity": 0.8661417322834646,
                    "duration": 0.0833333333333357
                },
                {
                    "name": "C#5",
                    "midi": 73,
                    "time": 51.50000000000002,
                    "velocity": 0.8661417322834646,
                    "duration": 0.1197916666666643
                },
                {
                    "name": "B4",
                    "midi": 71,
                    "time": 51.62500000000002,
                    "velocity": 0.8661417322834646,
                    "duration": 0.1197916666666643
                },
                {
                    "name": "A3",
                    "midi": 57,
                    "time": 51.75000000000002,
                    "velocity": 0.8661417322834646,
                    "duration": 0.6666666666666714
                },
                {
                    "name": "C#5",
                    "midi": 73,
                    "time": 51.75000000000002,
                    "velocity": 0.8661417322834646,
                    "duration": 0.0833333333333357
                },
                {
                    "name": "B4",
                    "midi": 71,
                    "time": 51.83333333333336,
                    "velocity": 0.8661417322834646,
                    "duration": 0.0833333333333357
                },
                {
                    "name": "C#5",
                    "midi": 73,
                    "time": 51.91666666666669,
                    "velocity": 0.8661417322834646,
                    "duration": 0.5
                },
                {
                    "name": "C#4",
                    "midi": 61,
                    "time": 52.00000000000003,
                    "velocity": 0.8661417322834646,
                    "duration": 0.2447916666666643
                },
                {
                    "name": "E4",
                    "midi": 64,
                    "time": 52.25000000000003,
                    "velocity": 0.8661417322834646,
                    "duration": 0.6666666666666643
                },
                {
                    "name": "E5",
                    "midi": 76,
                    "time": 52.50000000000003,
                    "velocity": 0.8661417322834646,
                    "duration": 0.2447916666666643
                },
                {
                    "name": "A3",
                    "midi": 57,
                    "time": 52.50000000000003,
                    "velocity": 0.8661417322834646,
                    "duration": 0.2447916666666643
                },
                {
                    "name": "B4",
                    "midi": 71,
                    "time": 52.75000000000003,
                    "velocity": 0.8661417322834646,
                    "duration": 0.2447916666666643
                },
                {
                    "name": "G#3",
                    "midi": 56,
                    "time": 52.75000000000003,
                    "velocity": 0.8661417322834646,
                    "duration": 0.4166666666666643
                },
                {
                    "name": "E5",
                    "midi": 76,
                    "time": 53.00000000000003,
                    "velocity": 0.8661417322834646,
                    "duration": 0.2447916666666643
                },
                {
                    "name": "B3",
                    "midi": 59,
                    "time": 53.00000000000003,
                    "velocity": 0.8661417322834646,
                    "duration": 0.2447916666666643
                },
                {
                    "name": "A4",
                    "midi": 69,
                    "time": 53.25000000000003,
                    "velocity": 0.8661417322834646,
                    "duration": 0.2447916666666643
                },
                {
                    "name": "C#4",
                    "midi": 61,
                    "time": 53.25000000000003,
                    "velocity": 0.8661417322834646,
                    "duration": 0.2447916666666643
                },
                {
                    "name": "F#3",
                    "midi": 54,
                    "time": 53.25000000000003,
                    "velocity": 0.8661417322834646,
                    "duration": 0.4166666666666643
                },
                {
                    "name": "F#5",
                    "midi": 78,
                    "time": 53.50000000000003,
                    "velocity": 0.8661417322834646,
                    "duration": 0.2447916666666643
                },
                {
                    "name": "D#4",
                    "midi": 63,
                    "time": 53.50000000000003,
                    "velocity": 0.8661417322834646,
                    "duration": 0.2447916666666643
                },
                {
                    "name": "E4",
                    "midi": 64,
                    "time": 53.75000000000003,
                    "velocity": 0.8661417322834646,
                    "duration": 1.2447916666666785
                },
                {
                    "name": "A4",
                    "midi": 69,
                    "time": 53.75000000000003,
                    "velocity": 0.8661417322834646,
                    "duration": 0.0833333333333357
                },
                {
                    "name": "G#4",
                    "midi": 68,
                    "time": 53.833333333333364,
                    "velocity": 0.8661417322834646,
                    "duration": 0.0833333333333357
                },
                {
                    "name": "A4",
                    "midi": 69,
                    "time": 53.9166666666667,
                    "velocity": 0.8661417322834646,
                    "duration": 0.0833333333333357
                },
                {
                    "name": "B3",
                    "midi": 59,
                    "time": 54.000000000000036,
                    "velocity": 0.8661417322834646,
                    "duration": 0.6666666666666714
                },
                {
                    "name": "G#4",
                    "midi": 68,
                    "time": 54.000000000000036,
                    "velocity": 0.8661417322834646,
                    "duration": 0.0833333333333357
                },
                {
                    "name": "A4",
                    "midi": 69,
                    "time": 54.08333333333337,
                    "velocity": 0.8661417322834646,
                    "duration": 0.0833333333333357
                },
                {
                    "name": "G#4",
                    "midi": 68,
                    "time": 54.16666666666671,
                    "velocity": 0.8661417322834646,
                    "duration": 0.328125
                },
                {
                    "name": "G#3",
                    "midi": 56,
                    "time": 54.25000000000004,
                    "velocity": 0.8661417322834646,
                    "duration": 0.4166666666666643
                },
                {
                    "name": "A4",
                    "midi": 69,
                    "time": 54.50000000000004,
                    "velocity": 0.8661417322834646,
                    "duration": 0.2447916666666643
                },
                {
                    "name": "E3",
                    "midi": 52,
                    "time": 54.50000000000004,
                    "velocity": 0.8661417322834646,
                    "duration": 0.2447916666666643
                },
                {
                    "name": "F#4",
                    "midi": 66,
                    "time": 54.75000000000004,
                    "velocity": 0.8661417322834646,
                    "duration": 0.6666666666666643
                },
                {
                    "name": "B3",
                    "midi": 59,
                    "time": 54.75000000000004,
                    "velocity": 0.8661417322834646,
                    "duration": 0.875
                },
                {
                    "name": "E4",
                    "midi": 64,
                    "time": 55.00000000000004,
                    "velocity": 0.8661417322834646,
                    "duration": 0.2447916666666643
                },
                {
                    "name": "D#4",
                    "midi": 63,
                    "time": 55.25000000000004,
                    "velocity": 0.8661417322834646,
                    "duration": 0.2447916666666643
                },
                {
                    "name": "E5",
                    "midi": 76,
                    "time": 55.50000000000004,
                    "velocity": 0.8661417322834646,
                    "duration": 0.1197916666666643
                },
                {
                    "name": "C#4",
                    "midi": 61,
                    "time": 55.50000000000004,
                    "velocity": 0.8661417322834646,
                    "duration": 0.2447916666666643
                },
                {
                    "name": "D#5",
                    "midi": 75,
                    "time": 55.62500000000004,
                    "velocity": 0.8661417322834646,
                    "duration": 0.1197916666666643
                },
                {
                    "name": "B3",
                    "midi": 59,
                    "time": 55.75000000000004,
                    "velocity": 0.8661417322834646,
                    "duration": 0.7447916666666714
                },
                {
                    "name": "E5",
                    "midi": 76,
                    "time": 55.75000000000004,
                    "velocity": 0.8661417322834646,
                    "duration": 0.0833333333333357
                },
                {
                    "name": "D#5",
                    "midi": 75,
                    "time": 55.83333333333338,
                    "velocity": 0.8661417322834646,
                    "duration": 0.0833333333333357
                },
                {
                    "name": "E5",
                    "midi": 76,
                    "time": 55.916666666666714,
                    "velocity": 0.8661417322834646,
                    "duration": 0.0833333333333357
                },
                {
                    "name": "B2",
                    "midi": 47,
                    "time": 56.00000000000005,
                    "velocity": 0.8661417322834646,
                    "duration": 0.2447916666666643
                },
                {
                    "name": "D#5",
                    "midi": 75,
                    "time": 56.00000000000005,
                    "velocity": 0.8661417322834646,
                    "duration": 0.1197916666666643
                },
                {
                    "name": "C#5",
                    "midi": 73,
                    "time": 56.12500000000005,
                    "velocity": 0.8661417322834646,
                    "duration": 0.0572916666666643
                },
                {
                    "name": "D#5",
                    "midi": 75,
                    "time": 56.18750000000005,
                    "velocity": 0.8661417322834646,
                    "duration": 0.0572916666666643
                },
                {
                    "name": "E5",
                    "midi": 76,
                    "time": 56.25000000000005,
                    "velocity": 0.8661417322834646,
                    "duration": 0.2447916666666643
                },
                {
                    "name": "C#3",
                    "midi": 49,
                    "time": 56.25000000000005,
                    "velocity": 0.8661417322834646,
                    "duration": 0.6666666666666714
                },
                {
                    "name": "D#5",
                    "midi": 75,
                    "time": 56.50000000000005,
                    "velocity": 0.8661417322834646,
                    "duration": 0.1197916666666643
                },
                {
                    "name": "B3",
                    "midi": 59,
                    "time": 56.50000000000005,
                    "velocity": 0.8661417322834646,
                    "duration": 0.2447916666666643
                },
                {
                    "name": "E5",
                    "midi": 76,
                    "time": 56.62500000000005,
                    "velocity": 0.8661417322834646,
                    "duration": 0.1197916666666643
                },
                {
                    "name": "A3",
                    "midi": 57,
                    "time": 56.75000000000005,
                    "velocity": 0.8661417322834646,
                    "duration": 0.6666666666666714
                },
                {
                    "name": "F#5",
                    "midi": 78,
                    "time": 56.75000000000005,
                    "velocity": 0.8661417322834646,
                    "duration": 0.0833333333333357
                },
                {
                    "name": "E5",
                    "midi": 76,
                    "time": 56.833333333333385,
                    "velocity": 0.8661417322834646,
                    "duration": 0.0833333333333357
                },
                {
                    "name": "F#5",
                    "midi": 78,
                    "time": 56.91666666666672,
                    "velocity": 0.8661417322834646,
                    "duration": 0.0833333333333357
                },
                {
                    "name": "C#3",
                    "midi": 49,
                    "time": 57.00000000000006,
                    "velocity": 0.8661417322834646,
                    "duration": 0.2447916666666643
                },
                {
                    "name": "E5",
                    "midi": 76,
                    "time": 57.00000000000006,
                    "velocity": 0.8661417322834646,
                    "duration": 0.1197916666666643
                },
                {
                    "name": "D#5",
                    "midi": 75,
                    "time": 57.12500000000006,
                    "velocity": 0.8661417322834646,
                    "duration": 0.0572916666666643
                },
                {
                    "name": "E5",
                    "midi": 76,
                    "time": 57.18750000000006,
                    "velocity": 0.8661417322834646,
                    "duration": 0.0572916666666643
                },
                {
                    "name": "F#5",
                    "midi": 78,
                    "time": 57.25000000000006,
                    "velocity": 0.8661417322834646,
                    "duration": 0.1197916666666643
                },
                {
                    "name": "D#3",
                    "midi": 51,
                    "time": 57.25000000000006,
                    "velocity": 0.8661417322834646,
                    "duration": 0.4166666666666643
                },
                {
                    "name": "E5",
                    "midi": 76,
                    "time": 57.37500000000006,
                    "velocity": 0.8661417322834646,
                    "duration": 0.1197916666666643
                },
                {
                    "name": "A3",
                    "midi": 57,
                    "time": 57.50000000000006,
                    "velocity": 0.8661417322834646,
                    "duration": 0.4947916666666643
                },
                {
                    "name": "F#5",
                    "midi": 78,
                    "time": 57.50000000000006,
                    "velocity": 0.8661417322834646,
                    "duration": 0.2447916666666643
                },
                {
                    "name": "B4",
                    "midi": 71,
                    "time": 57.75000000000006,
                    "velocity": 0.8661417322834646,
                    "duration": 0.6666666666666643
                },
                {
                    "name": "E3",
                    "midi": 52,
                    "time": 57.75000000000006,
                    "velocity": 0.8661417322834646,
                    "duration": 0.6666666666666643
                },
                {
                    "name": "A3",
                    "midi": 57,
                    "time": 58.00000000000006,
                    "velocity": 0.8661417322834646,
                    "duration": 0.2447916666666643
                },
                {
                    "name": "G#3",
                    "midi": 56,
                    "time": 58.25000000000006,
                    "velocity": 0.8661417322834646,
                    "duration": 0.7447916666666643
                },
                {
                    "name": "B4",
                    "midi": 71,
                    "time": 58.50000000000006,
                    "velocity": 0.8661417322834646,
                    "duration": 0.2447916666666643
                },
                {
                    "name": "E3",
                    "midi": 52,
                    "time": 58.50000000000006,
                    "velocity": 0.8661417322834646,
                    "duration": 0.2447916666666643
                },
                {
                    "name": "B4",
                    "midi": 71,
                    "time": 58.75000000000006,
                    "velocity": 0.8661417322834646,
                    "duration": 0.7447916666666643
                },
                {
                    "name": "G#2",
                    "midi": 44,
                    "time": 58.75000000000006,
                    "velocity": 0.8661417322834646,
                    "duration": 0.4166666666666643
                },
                {
                    "name": "B3",
                    "midi": 59,
                    "time": 59.00000000000006,
                    "velocity": 0.8661417322834646,
                    "duration": 0.2447916666666643
                },
                {
                    "name": "G#3",
                    "midi": 56,
                    "time": 59.00000000000006,
                    "velocity": 0.8661417322834646,
                    "duration": 0.4947916666666643
                },
                {
                    "name": "C#4",
                    "midi": 61,
                    "time": 59.25000000000006,
                    "velocity": 0.8661417322834646,
                    "duration": 0.6666666666666643
                },
                {
                    "name": "A2",
                    "midi": 45,
                    "time": 59.25000000000006,
                    "velocity": 0.8661417322834646,
                    "duration": 0.6666666666666643
                },
                {
                    "name": "B4",
                    "midi": 71,
                    "time": 59.50000000000006,
                    "velocity": 0.8661417322834646,
                    "duration": 0.2447916666666643
                },
                {
                    "name": "G#3",
                    "midi": 56,
                    "time": 59.50000000000006,
                    "velocity": 0.8661417322834646,
                    "duration": 0.2447916666666643
                },
                {
                    "name": "A4",
                    "midi": 69,
                    "time": 59.75000000000006,
                    "velocity": 0.8661417322834646,
                    "duration": 0.7447916666666643
                },
                {
                    "name": "F#3",
                    "midi": 54,
                    "time": 59.75000000000006,
                    "velocity": 0.8661417322834646,
                    "duration": 0.7447916666666643
                },
                {
                    "name": "C#4",
                    "midi": 61,
                    "time": 60.00000000000006,
                    "velocity": 0.8661417322834646,
                    "duration": 0.2447916666666643
                },
                {
                    "name": "A2",
                    "midi": 45,
                    "time": 60.00000000000006,
                    "velocity": 0.8661417322834646,
                    "duration": 0.2447916666666643
                },
                {
                    "name": "D#4",
                    "midi": 63,
                    "time": 60.25000000000006,
                    "velocity": 0.8661417322834646,
                    "duration": 0.4166666666666643
                },
                {
                    "name": "B2",
                    "midi": 47,
                    "time": 60.25000000000006,
                    "velocity": 0.8661417322834646,
                    "duration": 0.4166666666666643
                },
                {
                    "name": "A4",
                    "midi": 69,
                    "time": 60.50000000000006,
                    "velocity": 0.8661417322834646,
                    "duration": 0.2447916666666643
                },
                {
                    "name": "F#3",
                    "midi": 54,
                    "time": 60.50000000000006,
                    "velocity": 0.8661417322834646,
                    "duration": 0.2447916666666643
                },
                {
                    "name": "G#4",
                    "midi": 68,
                    "time": 60.75000000000006,
                    "velocity": 0.8661417322834646,
                    "duration": 0.2447916666666643
                },
                {
                    "name": "E3",
                    "midi": 52,
                    "time": 60.75000000000006,
                    "velocity": 0.8661417322834646,
                    "duration": 0.6666666666666643
                },
                {
                    "name": "C#3",
                    "midi": 49,
                    "time": 60.75000000000006,
                    "velocity": 0.8661417322834646,
                    "duration": 0.4166666666666643
                },
                {
                    "name": "E4",
                    "midi": 64,
                    "time": 61.00000000000006,
                    "velocity": 0.8661417322834646,
                    "duration": 0.2447916666666643
                },
                {
                    "name": "E5",
                    "midi": 76,
                    "time": 61.25000000000006,
                    "velocity": 0.8661417322834646,
                    "duration": 0.6666666666666643
                },
                {
                    "name": "F#3",
                    "midi": 54,
                    "time": 61.50000000000006,
                    "velocity": 0.8661417322834646,
                    "duration": 0.2447916666666643
                },
                {
                    "name": "G#3",
                    "midi": 56,
                    "time": 61.75000000000006,
                    "velocity": 0.8661417322834646,
                    "duration": 0.7447916666666643
                },
                {
                    "name": "D#5",
                    "midi": 75,
                    "time": 62.00000000000006,
                    "velocity": 0.8661417322834646,
                    "duration": 0.2447916666666643
                },
                {
                    "name": "G#2",
                    "midi": 44,
                    "time": 62.00000000000006,
                    "velocity": 0.8661417322834646,
                    "duration": 0.2447916666666643
                },
                {
                    "name": "C#5",
                    "midi": 73,
                    "time": 62.25000000000006,
                    "velocity": 0.8661417322834646,
                    "duration": 0.2447916666666643
                },
                {
                    "name": "A2",
                    "midi": 45,
                    "time": 62.25000000000006,
                    "velocity": 0.8661417322834646,
                    "duration": 0.875
                },
                {
                    "name": "B4",
                    "midi": 71,
                    "time": 62.50000000000006,
                    "velocity": 0.8661417322834646,
                    "duration": 0.2447916666666643
                },
                {
                    "name": "G#3",
                    "midi": 56,
                    "time": 62.50000000000006,
                    "velocity": 0.8661417322834646,
                    "duration": 0.2447916666666643
                },
                {
                    "name": "A4",
                    "midi": 69,
                    "time": 62.75000000000006,
                    "velocity": 0.8661417322834646,
                    "duration": 0.2447916666666643
                },
                {
                    "name": "C#4",
                    "midi": 61,
                    "time": 62.75000000000006,
                    "velocity": 0.8661417322834646,
                    "duration": 0.4166666666666643
                },
                {
                    "name": "F#3",
                    "midi": 54,
                    "time": 62.75000000000006,
                    "velocity": 0.8661417322834646,
                    "duration": 0.2447916666666643
                },
                {
                    "name": "G#4",
                    "midi": 68,
                    "time": 63.00000000000006,
                    "velocity": 0.8661417322834646,
                    "duration": 0.2447916666666643
                },
                {
                    "name": "G#3",
                    "midi": 56,
                    "time": 63.00000000000006,
                    "velocity": 0.8661417322834646,
                    "duration": 0.2447916666666643
                },
                {
                    "name": "A4",
                    "midi": 69,
                    "time": 63.25000000000006,
                    "velocity": 0.8661417322834646,
                    "duration": 0.2447916666666643
                },
                {
                    "name": "F#4",
                    "midi": 66,
                    "time": 63.25000000000006,
                    "velocity": 0.8661417322834646,
                    "duration": 0.2447916666666643
                },
                {
                    "name": "A3",
                    "midi": 57,
                    "time": 63.25000000000006,
                    "velocity": 0.8661417322834646,
                    "duration": 0.4166666666666643
                },
                {
                    "name": "A4",
                    "midi": 69,
                    "time": 63.50000000000006,
                    "velocity": 0.8661417322834646,
                    "duration": 0.2447916666666643
                },
                {
                    "name": "E4",
                    "midi": 64,
                    "time": 63.50000000000006,
                    "velocity": 0.8661417322834646,
                    "duration": 0.2447916666666643
                },
                {
                    "name": "C#3",
                    "midi": 49,
                    "time": 63.50000000000006,
                    "velocity": 0.8661417322834646,
                    "duration": 0.2447916666666643
                },
                {
                    "name": "A4",
                    "midi": 69,
                    "time": 63.75000000000006,
                    "velocity": 0.8661417322834646,
                    "duration": 0.4166666666666714
                },
                {
                    "name": "B3",
                    "midi": 59,
                    "time": 63.75000000000006,
                    "velocity": 0.8661417322834646,
                    "duration": 0.4166666666666714
                },
                {
                    "name": "D#4",
                    "midi": 63,
                    "time": 63.75000000000006,
                    "velocity": 0.8661417322834646,
                    "duration": 0.4166666666666714
                },
                {
                    "name": "F#4",
                    "midi": 66,
                    "time": 63.75000000000006,
                    "velocity": 0.8661417322834646,
                    "duration": 0.4166666666666714
                },
                {
                    "name": "F#3",
                    "midi": 54,
                    "time": 63.75000000000006,
                    "velocity": 0.8661417322834646,
                    "duration": 0.4166666666666714
                },
                {
                    "name": "D#3",
                    "midi": 51,
                    "time": 63.75000000000006,
                    "velocity": 0.8661417322834646,
                    "duration": 0.4166666666666714
                },
                {
                    "name": "B2",
                    "midi": 47,
                    "time": 63.75000000000006,
                    "velocity": 0.8661417322834646,
                    "duration": 0.6666666666666714
                },
                {
                    "name": "B4",
                    "midi": 71,
                    "time": 64.25000000000006,
                    "velocity": 0.8661417322834646,
                    "duration": 0.1197916666666714
                },
                {
                    "name": "A4",
                    "midi": 69,
                    "time": 64.37500000000006,
                    "velocity": 0.8661417322834646,
                    "duration": 0.1197916666666714
                },
                {
                    "name": "G#4",
                    "midi": 68,
                    "time": 64.50000000000006,
                    "velocity": 0.8661417322834646,
                    "duration": 0.1197916666666714
                },
                {
                    "name": "D#3",
                    "midi": 51,
                    "time": 64.50000000000006,
                    "velocity": 0.8661417322834646,
                    "duration": 0.2447916666666714
                },
                {
                    "name": "F#4",
                    "midi": 66,
                    "time": 64.62500000000006,
                    "velocity": 0.8661417322834646,
                    "duration": 0.1197916666666714
                },
                {
                    "name": "G#4",
                    "midi": 68,
                    "time": 64.75000000000006,
                    "velocity": 0.8661417322834646,
                    "duration": 0.2447916666666714
                },
                {
                    "name": "E3",
                    "midi": 52,
                    "time": 64.75000000000006,
                    "velocity": 0.8661417322834646,
                    "duration": 0.2447916666666714
                },
                {
                    "name": "E4",
                    "midi": 64,
                    "time": 65.00000000000006,
                    "velocity": 0.8661417322834646,
                    "duration": 0.2447916666666714
                },
                {
                    "name": "G#2",
                    "midi": 44,
                    "time": 65.00000000000006,
                    "velocity": 0.8661417322834646,
                    "duration": 0.2447916666666714
                },
                {
                    "name": "C#4",
                    "midi": 61,
                    "time": 65.25000000000006,
                    "velocity": 0.8661417322834646,
                    "duration": 0.4166666666666714
                },
                {
                    "name": "A3",
                    "midi": 57,
                    "time": 65.25000000000006,
                    "velocity": 0.8661417322834646,
                    "duration": 0.4166666666666714
                },
                {
                    "name": "A2",
                    "midi": 45,
                    "time": 65.25000000000006,
                    "velocity": 0.8661417322834646,
                    "duration": 0.4166666666666714
                },
                {
                    "name": "F#4",
                    "midi": 66,
                    "time": 65.50000000000006,
                    "velocity": 0.8661417322834646,
                    "duration": 0.4166666666666714
                },
                {
                    "name": "B3",
                    "midi": 59,
                    "time": 65.75000000000006,
                    "velocity": 0.8661417322834646,
                    "duration": 0.4166666666666714
                },
                {
                    "name": "G#3",
                    "midi": 56,
                    "time": 65.75000000000006,
                    "velocity": 0.8661417322834646,
                    "duration": 0.4166666666666714
                },
                {
                    "name": "B2",
                    "midi": 47,
                    "time": 65.75000000000006,
                    "velocity": 0.8661417322834646,
                    "duration": 0.4166666666666714
                },
                {
                    "name": "E4",
                    "midi": 64,
                    "time": 66.00000000000006,
                    "velocity": 0.8661417322834646,
                    "duration": 0.4166666666666714
                },
                {
                    "name": "A3",
                    "midi": 57,
                    "time": 66.25000000000006,
                    "velocity": 0.8661417322834646,
                    "duration": 0.4166666666666714
                },
                {
                    "name": "F#3",
                    "midi": 54,
                    "time": 66.25000000000006,
                    "velocity": 0.8661417322834646,
                    "duration": 0.4166666666666714
                },
                {
                    "name": "B1",
                    "midi": 35,
                    "time": 66.25000000000006,
                    "velocity": 0.8661417322834646,
                    "duration": 0.4166666666666714
                },
                {
                    "name": "D#4",
                    "midi": 63,
                    "time": 66.50000000000006,
                    "velocity": 0.8661417322834646,
                    "duration": 0.2447916666666714
                },
                {
                    "name": "E4",
                    "midi": 64,
                    "time": 66.75000000000006,
                    "velocity": 0.8661417322834646,
                    "duration": 0.875
                },
                {
                    "name": "E3",
                    "midi": 52,
                    "time": 66.75000000000006,
                    "velocity": 0.8661417322834646,
                    "duration": 0.875
                },
                {
                    "name": "E2",
                    "midi": 40,
                    "time": 66.75000000000006,
                    "velocity": 0.8661417322834646,
                    "duration": 1.375
                },
                {
                    "name": "B3",
                    "midi": 59,
                    "time": 67.00000000000006,
                    "velocity": 0.8661417322834646,
                    "duration": 0.2447916666666714
                },
                {
                    "name": "C#4",
                    "midi": 61,
                    "time": 67.25000000000006,
                    "velocity": 0.8661417322834646,
                    "duration": 0.2447916666666714
                },
                {
                    "name": "A3",
                    "midi": 57,
                    "time": 67.50000000000006,
                    "velocity": 0.8661417322834646,
                    "duration": 0.2447916666666714
                },
                {
                    "name": "A4",
                    "midi": 69,
                    "time": 67.75000000000006,
                    "velocity": 0.8661417322834646,
                    "duration": 0.2447916666666714
                },
                {
                    "name": "F#3",
                    "midi": 54,
                    "time": 67.75000000000006,
                    "velocity": 0.8661417322834646,
                    "duration": 0.4166666666666714
                },
                {
                    "name": "D#4",
                    "midi": 63,
                    "time": 68.00000000000006,
                    "velocity": 0.8661417322834646,
                    "duration": 0.2447916666666714
                },
                {
                    "name": "E4",
                    "midi": 64,
                    "time": 68.25000000000006,
                    "velocity": 0.8661417322834646,
                    "duration": 0.6666666666666714
                },
                {
                    "name": "G#3",
                    "midi": 56,
                    "time": 68.25000000000006,
                    "velocity": 0.8661417322834646,
                    "duration": 0.6666666666666714
                },
                {
                    "name": "B3",
                    "midi": 59,
                    "time": 68.25000000000006,
                    "velocity": 0.8661417322834646,
                    "duration": 0.6666666666666714
                },
                {
                    "name": "E2",
                    "midi": 40,
                    "time": 68.25000000000006,
                    "velocity": 0.8661417322834646,
                    "duration": 0.6666666666666714
                },
                {
                    "name": "B2",
                    "midi": 47,
                    "time": 68.25000000000006,
                    "velocity": 0.8661417322834646,
                    "duration": 0.6666666666666714
                },
                {
                    "name": "E3",
                    "midi": 52,
                    "time": 68.25000000000006,
                    "velocity": 0.8661417322834646,
                    "duration": 0.6666666666666714
                },
                {
                    "name": "B3",
                    "midi": 59,
                    "time": 69.00000000000006,
                    "velocity": 0.8661417322834646,
                    "duration": 0.2447916666666714
                },
                {
                    "name": "E4",
                    "midi": 64,
                    "time": 69.25000000000006,
                    "velocity": 0.8661417322834646,
                    "duration": 0.4166666666666714
                },
                {
                    "name": "G#4",
                    "midi": 68,
                    "time": 69.50000000000006,
                    "velocity": 0.8661417322834646,
                    "duration": 0.4947916666666714
                },
                {
                    "name": "B4",
                    "midi": 71,
                    "time": 69.75000000000006,
                    "velocity": 0.8661417322834646,
                    "duration": 0.875
                },
                {
                    "name": "E3",
                    "midi": 52,
                    "time": 69.75000000000006,
                    "velocity": 0.8661417322834646,
                    "duration": 0.875
                },
                {
                    "name": "F#4",
                    "midi": 66,
                    "time": 70.00000000000006,
                    "velocity": 0.8661417322834646,
                    "duration": 0.2447916666666714
                },
                {
                    "name": "G#4",
                    "midi": 68,
                    "time": 70.25000000000006,
                    "velocity": 0.8661417322834646,
                    "duration": 0.4166666666666714
                },
                {
                    "name": "E2",
                    "midi": 40,
                    "time": 70.25000000000006,
                    "velocity": 0.8661417322834646,
                    "duration": 0.875
                },
                {
                    "name": "E4",
                    "midi": 64,
                    "time": 70.50000000000006,
                    "velocity": 0.8661417322834646,
                    "duration": 0.4166666666666714
                },
                {
                    "name": "A4",
                    "midi": 69,
                    "time": 70.75000000000006,
                    "velocity": 0.8661417322834646,
                    "duration": 0.4166666666666714
                },
                {
                    "name": "F#4",
                    "midi": 66,
                    "time": 70.75000000000006,
                    "velocity": 0.8661417322834646,
                    "duration": 0.4166666666666714
                },
                {
                    "name": "D#4",
                    "midi": 63,
                    "time": 71.00000000000006,
                    "velocity": 0.8661417322834646,
                    "duration": 0.2447916666666714
                },
                {
                    "name": "G#4",
                    "midi": 68,
                    "time": 71.25000000000006,
                    "velocity": 0.8661417322834646,
                    "duration": 0.6666666666666714
                },
                {
                    "name": "E4",
                    "midi": 64,
                    "time": 71.25000000000006,
                    "velocity": 0.8661417322834646,
                    "duration": 0.6666666666666714
                },
                {
                    "name": "B3",
                    "midi": 59,
                    "time": 71.50000000000006,
                    "velocity": 0.8661417322834646,
                    "duration": 0.2447916666666714
                },
                {
                    "name": "G#3",
                    "midi": 56,
                    "time": 71.75000000000006,
                    "velocity": 0.8661417322834646,
                    "duration": 0.2447916666666714
                },
                {
                    "name": "B3",
                    "midi": 59,
                    "time": 72.00000000000006,
                    "velocity": 0.8661417322834646,
                    "duration": 0.2447916666666714
                },
                {
                    "name": "E3",
                    "midi": 52,
                    "time": 72.00000000000006,
                    "velocity": 0.8661417322834646,
                    "duration": 0.2447916666666714
                },
                {
                    "name": "G#4",
                    "midi": 68,
                    "time": 72.25000000000006,
                    "velocity": 0.8661417322834646,
                    "duration": 0.2447916666666714
                },
                {
                    "name": "B2",
                    "midi": 47,
                    "time": 72.25000000000006,
                    "velocity": 0.8661417322834646,
                    "duration": 0.2447916666666714
                },
                {
                    "name": "B4",
                    "midi": 71,
                    "time": 72.50000000000006,
                    "velocity": 0.8661417322834646,
                    "duration": 0.2447916666666714
                },
                {
                    "name": "D3",
                    "midi": 50,
                    "time": 72.50000000000006,
                    "velocity": 0.8661417322834646,
                    "duration": 0.2447916666666714
                },
                {
                    "name": "E5",
                    "midi": 76,
                    "time": 72.75000000000006,
                    "velocity": 0.8661417322834646,
                    "duration": 0.875
                },
                {
                    "name": "C#3",
                    "midi": 49,
                    "time": 72.75000000000006,
                    "velocity": 0.8661417322834646,
                    "duration": 0.6666666666666714
                },
                {
                    "name": "B4",
                    "midi": 71,
                    "time": 73.00000000000006,
                    "velocity": 0.8661417322834646,
                    "duration": 0.2447916666666714
                },
                {
                    "name": "C#5",
                    "midi": 73,
                    "time": 73.25000000000006,
                    "velocity": 0.8661417322834646,
                    "duration": 0.4166666666666714
                },
                {
                    "name": "A4",
                    "midi": 69,
                    "time": 73.50000000000006,
                    "velocity": 0.8661417322834646,
                    "duration": 0.4166666666666714
                },
                {
                    "name": "F#3",
                    "midi": 54,
                    "time": 73.50000000000006,
                    "velocity": 0.8661417322834646,
                    "duration": 0.2447916666666714
                },
                {
                    "name": "D5",
                    "midi": 74,
                    "time": 73.75000000000006,
                    "velocity": 0.8661417322834646,
                    "duration": 0.4166666666666714
                },
                {
                    "name": "B4",
                    "midi": 71,
                    "time": 73.75000000000006,
                    "velocity": 0.8661417322834646,
                    "duration": 0.4166666666666714
                },
                {
                    "name": "B2",
                    "midi": 47,
                    "time": 73.75000000000006,
                    "velocity": 0.8661417322834646,
                    "duration": 0.2447916666666714
                },
                {
                    "name": "G#4",
                    "midi": 68,
                    "time": 74.00000000000006,
                    "velocity": 0.8661417322834646,
                    "duration": 0.2447916666666714
                },
                {
                    "name": "E3",
                    "midi": 52,
                    "time": 74.00000000000006,
                    "velocity": 0.8661417322834646,
                    "duration": 0.2447916666666714
                },
                {
                    "name": "C#5",
                    "midi": 73,
                    "time": 74.25000000000006,
                    "velocity": 0.8661417322834646,
                    "duration": 0.6666666666666714
                },
                {
                    "name": "A4",
                    "midi": 69,
                    "time": 74.25000000000006,
                    "velocity": 0.8661417322834646,
                    "duration": 0.2447916666666714
                },
                {
                    "name": "A2",
                    "midi": 45,
                    "time": 74.25000000000006,
                    "velocity": 0.8661417322834646,
                    "duration": 0.6666666666666714
                },
                {
                    "name": "F4",
                    "midi": 65,
                    "time": 74.50000000000006,
                    "velocity": 0.8661417322834646,
                    "duration": 0.2447916666666714
                },
                {
                    "name": "F#4",
                    "midi": 66,
                    "time": 74.75000000000006,
                    "velocity": 0.8661417322834646,
                    "duration": 0.4166666666666714
                },
                {
                    "name": "C#5",
                    "midi": 73,
                    "time": 75.00000000000006,
                    "velocity": 0.8661417322834646,
                    "duration": 0.2447916666666714
                },
                {
                    "name": "A3",
                    "midi": 57,
                    "time": 75.00000000000006,
                    "velocity": 0.8661417322834646,
                    "duration": 0.2447916666666714
                },
                {
                    "name": "B4",
                    "midi": 71,
                    "time": 75.25000000000006,
                    "velocity": 0.8661417322834646,
                    "duration": 0.2447916666666714
                },
                {
                    "name": "G#3",
                    "midi": 56,
                    "time": 75.25000000000006,
                    "velocity": 0.8661417322834646,
                    "duration": 0.2447916666666714
                },
                {
                    "name": "C#5",
                    "midi": 73,
                    "time": 75.50000000000006,
                    "velocity": 0.8661417322834646,
                    "duration": 0.2447916666666714
                },
                {
                    "name": "A3",
                    "midi": 57,
                    "time": 75.50000000000006,
                    "velocity": 0.8661417322834646,
                    "duration": 0.2447916666666714
                },
                {
                    "name": "D5",
                    "midi": 74,
                    "time": 75.75000000000006,
                    "velocity": 0.8661417322834646,
                    "duration": 0.2447916666666714
                },
                {
                    "name": "B3",
                    "midi": 59,
                    "time": 75.75000000000006,
                    "velocity": 0.8661417322834646,
                    "duration": 0.2447916666666714
                },
                {
                    "name": "A#4",
                    "midi": 70,
                    "time": 76.00000000000006,
                    "velocity": 0.8661417322834646,
                    "duration": 0.2447916666666714
                },
                {
                    "name": "C#4",
                    "midi": 61,
                    "time": 76.00000000000006,
                    "velocity": 0.8661417322834646,
                    "duration": 0.2447916666666714
                },
                {
                    "name": "B4",
                    "midi": 71,
                    "time": 76.25000000000006,
                    "velocity": 0.8661417322834646,
                    "duration": 0.2447916666666714
                },
                {
                    "name": "D4",
                    "midi": 62,
                    "time": 76.25000000000006,
                    "velocity": 0.8661417322834646,
                    "duration": 0.2447916666666714
                },
                {
                    "name": "G#4",
                    "midi": 68,
                    "time": 76.50000000000006,
                    "velocity": 0.8661417322834646,
                    "duration": 0.2447916666666714
                },
                {
                    "name": "F3",
                    "midi": 53,
                    "time": 76.50000000000006,
                    "velocity": 0.8661417322834646,
                    "duration": 0.2447916666666714
                },
                {
                    "name": "A4",
                    "midi": 69,
                    "time": 76.75000000000006,
                    "velocity": 0.8661417322834646,
                    "duration": 0.2447916666666714
                },
                {
                    "name": "F#3",
                    "midi": 54,
                    "time": 76.75000000000006,
                    "velocity": 0.8661417322834646,
                    "duration": 0.2447916666666714
                },
                {
                    "name": "B4",
                    "midi": 71,
                    "time": 77.00000000000006,
                    "velocity": 0.8661417322834646,
                    "duration": 0.2447916666666714
                },
                {
                    "name": "D3",
                    "midi": 50,
                    "time": 77.00000000000006,
                    "velocity": 0.8661417322834646,
                    "duration": 0.2447916666666714
                },
                {
                    "name": "F4",
                    "midi": 65,
                    "time": 77.25000000000006,
                    "velocity": 0.8661417322834646,
                    "duration": 0.6666666666666714
                },
                {
                    "name": "C#3",
                    "midi": 49,
                    "time": 77.25000000000006,
                    "velocity": 0.8661417322834646,
                    "duration": 0.875
                },
                {
                    "name": "C#4",
                    "midi": 61,
                    "time": 77.50000000000006,
                    "velocity": 0.8661417322834646,
                    "duration": 0.2447916666666714
                },
                {
                    "name": "C#4",
                    "midi": 61,
                    "time": 77.75000000000006,
                    "velocity": 0.8661417322834646,
                    "duration": 0.2447916666666714
                },
                {
                    "name": "G#4",
                    "midi": 68,
                    "time": 78.00000000000006,
                    "velocity": 0.8661417322834646,
                    "duration": 0.2447916666666714
                },
                {
                    "name": "B3",
                    "midi": 59,
                    "time": 78.00000000000006,
                    "velocity": 0.8661417322834646,
                    "duration": 0.2447916666666714
                },
                {
                    "name": "C#5",
                    "midi": 73,
                    "time": 78.25000000000006,
                    "velocity": 0.8661417322834646,
                    "duration": 0.2447916666666714
                },
                {
                    "name": "A3",
                    "midi": 57,
                    "time": 78.25000000000006,
                    "velocity": 0.8661417322834646,
                    "duration": 0.2447916666666714
                },
                {
                    "name": "C#3",
                    "midi": 49,
                    "time": 78.25000000000006,
                    "velocity": 0.8661417322834646,
                    "duration": 0.4166666666666714
                },
                {
                    "name": "F4",
                    "midi": 65,
                    "time": 78.50000000000006,
                    "velocity": 0.8661417322834646,
                    "duration": 0.2447916666666714
                },
                {
                    "name": "G#3",
                    "midi": 56,
                    "time": 78.50000000000006,
                    "velocity": 0.8661417322834646,
                    "duration": 0.2447916666666714
                },
                {
                    "name": "F#4",
                    "midi": 66,
                    "time": 78.75000000000006,
                    "velocity": 0.8661417322834646,
                    "duration": 0.6666666666666572
                },
                {
                    "name": "F#3",
                    "midi": 54,
                    "time": 78.75000000000006,
                    "velocity": 0.8661417322834646,
                    "duration": 0.2447916666666714
                },
                {
                    "name": "D#3",
                    "midi": 51,
                    "time": 78.75000000000006,
                    "velocity": 0.8661417322834646,
                    "duration": 0.6666666666666572
                },
                {
                    "name": "C#4",
                    "midi": 61,
                    "time": 79.00000000000006,
                    "velocity": 0.8661417322834646,
                    "duration": 0.2447916666666714
                },
                {
                    "name": "B3",
                    "midi": 59,
                    "time": 79.25000000000006,
                    "velocity": 0.8661417322834646,
                    "duration": 0.7447916666666572
                },
                {
                    "name": "G#4",
                    "midi": 68,
                    "time": 79.25000000000006,
                    "velocity": 0.8661417322834646,
                    "duration": 0.0833333333333286
                },
                {
                    "name": "F#4",
                    "midi": 66,
                    "time": 79.33333333333339,
                    "velocity": 0.8661417322834646,
                    "duration": 0.2864583333333286
                },
                {
                    "name": "G#4",
                    "midi": 68,
                    "time": 79.41666666666671,
                    "velocity": 0.8661417322834646,
                    "duration": 0.0833333333333286
                },
                {
                    "name": "D#3",
                    "midi": 51,
                    "time": 79.50000000000004,
                    "velocity": 0.8661417322834646,
                    "duration": 0.2447916666666714
                },
                {
                    "name": "F#4",
                    "midi": 66,
                    "time": 79.50000000000004,
                    "velocity": 0.8661417322834646,
                    "duration": 0.2447916666666714
                },
                {
                    "name": "F4",
                    "midi": 65,
                    "time": 79.62500000000004,
                    "velocity": 0.8661417322834646,
                    "duration": 0.057291666666671404
                },
                {
                    "name": "F#4",
                    "midi": 66,
                    "time": 79.68750000000004,
                    "velocity": 0.8661417322834646,
                    "duration": 0.3072916666666714
                },
                {
                    "name": "G#4",
                    "midi": 68,
                    "time": 79.75000000000004,
                    "velocity": 0.8661417322834646,
                    "duration": 0.1197916666666714
                },
                {
                    "name": "F3",
                    "midi": 53,
                    "time": 79.75000000000004,
                    "velocity": 0.8661417322834646,
                    "duration": 0.4166666666666714
                },
                {
                    "name": "F#4",
                    "midi": 66,
                    "time": 79.87500000000004,
                    "velocity": 0.8661417322834646,
                    "duration": 3.3697916666666714
                },
                {
                    "name": "G#4",
                    "midi": 68,
                    "time": 80.00000000000004,
                    "velocity": 0.8661417322834646,
                    "duration": 0.2447916666666714
                },
                {
                    "name": "B3",
                    "midi": 59,
                    "time": 80.00000000000004,
                    "velocity": 0.8661417322834646,
                    "duration": 0.4947916666666714
                },
                {
                    "name": "C#4",
                    "midi": 61,
                    "time": 80.25000000000004,
                    "velocity": 0.8661417322834646,
                    "duration": 0.6666666666666714
                },
                {
                    "name": "F#3",
                    "midi": 54,
                    "time": 80.25000000000004,
                    "velocity": 0.8661417322834646,
                    "duration": 0.6666666666666714
                },
                {
                    "name": "B3",
                    "midi": 59,
                    "time": 80.50000000000004,
                    "velocity": 0.8661417322834646,
                    "duration": 0.2447916666666714
                },
                {
                    "name": "A3",
                    "midi": 57,
                    "time": 80.75000000000004,
                    "velocity": 0.8661417322834646,
                    "duration": 0.6666666666666714
                },
                {
                    "name": "C#5",
                    "midi": 73,
                    "time": 81.00000000000004,
                    "velocity": 0.8661417322834646,
                    "duration": 0.2447916666666714
                },
                {
                    "name": "F#3",
                    "midi": 54,
                    "time": 81.00000000000004,
                    "velocity": 0.8661417322834646,
                    "duration": 0.2447916666666714
                },
                {
                    "name": "C#5",
                    "midi": 73,
                    "time": 81.25000000000004,
                    "velocity": 0.8661417322834646,
                    "duration": 0.7447916666666714
                },
                {
                    "name": "A2",
                    "midi": 45,
                    "time": 81.25000000000004,
                    "velocity": 0.8661417322834646,
                    "duration": 0.4166666666666714
                },
                {
                    "name": "C#4",
                    "midi": 61,
                    "time": 81.50000000000004,
                    "velocity": 0.8661417322834646,
                    "duration": 0.2447916666666714
                },
                {
                    "name": "A3",
                    "midi": 57,
                    "time": 81.50000000000004,
                    "velocity": 0.8661417322834646,
                    "duration": 0.4947916666666714
                },
                {
                    "name": "D#4",
                    "midi": 63,
                    "time": 81.75000000000004,
                    "velocity": 0.8661417322834646,
                    "duration": 0.6666666666666714
                },
                {
                    "name": "B2",
                    "midi": 47,
                    "time": 81.75000000000004,
                    "velocity": 0.8661417322834646,
                    "duration": 0.875
                },
                {
                    "name": "C#5",
                    "midi": 73,
                    "time": 82.00000000000004,
                    "velocity": 0.8661417322834646,
                    "duration": 0.2447916666666714
                },
                {
                    "name": "A3",
                    "midi": 57,
                    "time": 82.00000000000004,
                    "velocity": 0.8661417322834646,
                    "duration": 0.2447916666666714
                },
                {
                    "name": "B4",
                    "midi": 71,
                    "time": 82.25000000000004,
                    "velocity": 0.8661417322834646,
                    "duration": 0.6666666666666714
                },
                {
                    "name": "G#3",
                    "midi": 56,
                    "time": 82.25000000000004,
                    "velocity": 0.8661417322834646,
                    "duration": 0.6666666666666714
                },
                {
                    "name": "D#4",
                    "midi": 63,
                    "time": 82.50000000000004,
                    "velocity": 0.8661417322834646,
                    "duration": 0.2447916666666714
                },
                {
                    "name": "G#4",
                    "midi": 68,
                    "time": 82.75000000000004,
                    "velocity": 0.8661417322834646,
                    "duration": 0.2447916666666714
                },
                {
                    "name": "B4",
                    "midi": 71,
                    "time": 83.00000000000004,
                    "velocity": 0.8661417322834646,
                    "duration": 0.2447916666666714
                },
                {
                    "name": "F#4",
                    "midi": 66,
                    "time": 83.00000000000004,
                    "velocity": 0.8661417322834646,
                    "duration": 1.9947916666666714
                },
                {
                    "name": "B3",
                    "midi": 59,
                    "time": 83.00000000000004,
                    "velocity": 0.8661417322834646,
                    "duration": 0.2447916666666714
                },
                {
                    "name": "D3",
                    "midi": 50,
                    "time": 83.00000000000004,
                    "velocity": 0.8661417322834646,
                    "duration": 0.2447916666666714
                },
                {
                    "name": "B4",
                    "midi": 71,
                    "time": 83.25000000000004,
                    "velocity": 0.8661417322834646,
                    "duration": 0.6666666666666714
                },
                {
                    "name": "F4",
                    "midi": 65,
                    "time": 83.25000000000004,
                    "velocity": 0.8661417322834646,
                    "duration": 0.4166666666666714
                },
                {
                    "name": "G#4",
                    "midi": 68,
                    "time": 83.25000000000004,
                    "velocity": 0.8661417322834646,
                    "duration": 0.4166666666666714
                },
                {
                    "name": "C#4",
                    "midi": 61,
                    "time": 83.25000000000004,
                    "velocity": 0.8661417322834646,
                    "duration": 0.4166666666666714
                },
                {
                    "name": "F3",
                    "midi": 53,
                    "time": 83.25000000000004,
                    "velocity": 0.8661417322834646,
                    "duration": 0.4166666666666714
                },
                {
                    "name": "G#3",
                    "midi": 56,
                    "time": 83.25000000000004,
                    "velocity": 0.8661417322834646,
                    "duration": 0.4166666666666714
                },
                {
                    "name": "B3",
                    "midi": 59,
                    "time": 83.25000000000004,
                    "velocity": 0.8661417322834646,
                    "duration": 0.4166666666666714
                },
                {
                    "name": "C#3",
                    "midi": 49,
                    "time": 83.25000000000004,
                    "velocity": 0.8661417322834646,
                    "duration": 0.6666666666666714
                },
                {
                    "name": "C#5",
                    "midi": 73,
                    "time": 84.00000000000004,
                    "velocity": 0.8661417322834646,
                    "duration": 0.2447916666666714
                },
                {
                    "name": "F3",
                    "midi": 53,
                    "time": 84.00000000000004,
                    "velocity": 0.8661417322834646,
                    "duration": 0.2447916666666714
                },
                {
                    "name": "A4",
                    "midi": 69,
                    "time": 84.25000000000004,
                    "velocity": 0.8661417322834646,
                    "duration": 0.2447916666666714
                },
                {
                    "name": "F#3",
                    "midi": 54,
                    "time": 84.25000000000004,
                    "velocity": 0.8661417322834646,
                    "duration": 0.4166666666666714
                },
                {
                    "name": "F4",
                    "midi": 65,
                    "time": 84.50000000000004,
                    "velocity": 0.8661417322834646,
                    "duration": 0.2447916666666714
                },
                {
                    "name": "C#3",
                    "midi": 49,
                    "time": 84.50000000000004,
                    "velocity": 0.8661417322834646,
                    "duration": 0.2447916666666714
                },
                {
                    "name": "F#4",
                    "midi": 66,
                    "time": 84.75000000000004,
                    "velocity": 0.8661417322834646,
                    "duration": 1.4947916666666572
                },
                {
                    "name": "D3",
                    "midi": 50,
                    "time": 84.75000000000004,
                    "velocity": 0.8661417322834646,
                    "duration": 0.2447916666666714
                },
                {
                    "name": "F#3",
                    "midi": 54,
                    "time": 84.75000000000004,
                    "velocity": 0.8661417322834646,
                    "duration": 0.7447916666666714
                },
                {
                    "name": "B4",
                    "midi": 71,
                    "time": 85.00000000000004,
                    "velocity": 0.8661417322834646,
                    "duration": 0.2447916666666714
                },
                {
                    "name": "B2",
                    "midi": 47,
                    "time": 85.00000000000004,
                    "velocity": 0.8661417322834646,
                    "duration": 0.2447916666666714
                },
                {
                    "name": "A4",
                    "midi": 69,
                    "time": 85.25000000000004,
                    "velocity": 0.8661417322834646,
                    "duration": 0.4166666666666714
                },
                {
                    "name": "C#3",
                    "midi": 49,
                    "time": 85.25000000000004,
                    "velocity": 0.8661417322834646,
                    "duration": 0.8749999999999858
                },
                {
                    "name": "F#3",
                    "midi": 54,
                    "time": 85.50000000000004,
                    "velocity": 0.8661417322834646,
                    "duration": 0.2447916666666714
                },
                {
                    "name": "F3",
                    "midi": 53,
                    "time": 85.75000000000004,
                    "velocity": 0.8661417322834646,
                    "duration": 0.2447916666666572
                },
                {
                    "name": "A4",
                    "midi": 69,
                    "time": 85.75000000000004,
                    "velocity": 0.8661417322834646,
                    "duration": 0.0833333333333286
                },
                {
                    "name": "G#4",
                    "midi": 68,
                    "time": 85.83333333333337,
                    "velocity": 0.8661417322834646,
                    "duration": 0.0833333333333286
                },
                {
                    "name": "A4",
                    "midi": 69,
                    "time": 85.9166666666667,
                    "velocity": 0.8661417322834646,
                    "duration": 0.0833333333333286
                },
                {
                    "name": "C#4",
                    "midi": 61,
                    "time": 86.00000000000003,
                    "velocity": 0.8661417322834646,
                    "duration": 0.4947916666666714
                },
                {
                    "name": "G#4",
                    "midi": 68,
                    "time": 86.00000000000003,
                    "velocity": 0.8661417322834646,
                    "duration": 0.1197916666666714
                },
                {
                    "name": "F#4",
                    "midi": 66,
                    "time": 86.12500000000003,
                    "velocity": 0.8661417322834646,
                    "duration": 0.7916666666666714
                },
                {
                    "name": "F#4",
                    "midi": 66,
                    "time": 86.25000000000003,
                    "velocity": 0.8661417322834646,
                    "duration": 1.4947916666666714
                },
                {
                    "name": "D3",
                    "midi": 50,
                    "time": 86.25000000000003,
                    "velocity": 0.8661417322834646,
                    "duration": 0.875
                },
                {
                    "name": "C#4",
                    "midi": 61,
                    "time": 86.50000000000003,
                    "velocity": 0.8661417322834646,
                    "duration": 0.2447916666666714
                },
                {
                    "name": "B3",
                    "midi": 59,
                    "time": 86.75000000000003,
                    "velocity": 0.8661417322834646,
                    "duration": 0.2447916666666714
                },
                {
                    "name": "F#5",
                    "midi": 78,
                    "time": 87.00000000000003,
                    "velocity": 0.8661417322834646,
                    "duration": 0.2447916666666714
                },
                {
                    "name": "A#3",
                    "midi": 58,
                    "time": 87.00000000000003,
                    "velocity": 0.8661417322834646,
                    "duration": 0.2447916666666714
                },
                {
                    "name": "F#5",
                    "midi": 78,
                    "time": 87.25000000000003,
                    "velocity": 0.8661417322834646,
                    "duration": 0.7447916666666714
                },
                {
                    "name": "B3",
                    "midi": 59,
                    "time": 87.25000000000003,
                    "velocity": 0.8661417322834646,
                    "duration": 0.7447916666666714
                },
                {
                    "name": "F#4",
                    "midi": 66,
                    "time": 87.50000000000003,
                    "velocity": 0.8661417322834646,
                    "duration": 4.416666666666657
                },
                {
                    "name": "D3",
                    "midi": 50,
                    "time": 87.50000000000003,
                    "velocity": 0.8661417322834646,
                    "duration": 0.2447916666666714
                },
                {
                    "name": "G#4",
                    "midi": 68,
                    "time": 87.75000000000003,
                    "velocity": 0.8661417322834646,
                    "duration": 0.6666666666666714
                },
                {
                    "name": "E3",
                    "midi": 52,
                    "time": 87.75000000000003,
                    "velocity": 0.8661417322834646,
                    "duration": 0.6666666666666714
                },
                {
                    "name": "F#5",
                    "midi": 78,
                    "time": 88.00000000000003,
                    "velocity": 0.8661417322834646,
                    "duration": 0.2447916666666714
                },
                {
                    "name": "D4",
                    "midi": 62,
                    "time": 88.00000000000003,
                    "velocity": 0.8661417322834646,
                    "duration": 0.2447916666666714
                },
                {
                    "name": "E5",
                    "midi": 76,
                    "time": 88.25000000000003,
                    "velocity": 0.8661417322834646,
                    "duration": 0.6666666666666714
                },
                {
                    "name": "C#4",
                    "midi": 61,
                    "time": 88.25000000000003,
                    "velocity": 0.8661417322834646,
                    "duration": 0.6666666666666714
                },
                {
                    "name": "B4",
                    "midi": 71,
                    "time": 88.50000000000003,
                    "velocity": 0.8661417322834646,
                    "duration": 0.2447916666666714
                },
                {
                    "name": "E3",
                    "midi": 52,
                    "time": 88.50000000000003,
                    "velocity": 0.8661417322834646,
                    "duration": 0.2447916666666714
                },
                {
                    "name": "A#4",
                    "midi": 70,
                    "time": 88.75000000000003,
                    "velocity": 0.8661417322834646,
                    "duration": 0.4166666666666714
                },
                {
                    "name": "F#3",
                    "midi": 54,
                    "time": 88.75000000000003,
                    "velocity": 0.8661417322834646,
                    "duration": 0.4166666666666714
                },
                {
                    "name": "E5",
                    "midi": 76,
                    "time": 89.00000000000003,
                    "velocity": 0.8661417322834646,
                    "duration": 0.2447916666666714
                },
                {
                    "name": "C#4",
                    "midi": 61,
                    "time": 89.00000000000003,
                    "velocity": 0.8661417322834646,
                    "duration": 0.2447916666666714
                },
                {
                    "name": "B3",
                    "midi": 59,
                    "time": 89.25000000000003,
                    "velocity": 0.8661417322834646,
                    "duration": 0.4166666666666572
                },
                {
                    "name": "E5",
                    "midi": 76,
                    "time": 89.25000000000003,
                    "velocity": 0.8661417322834646,
                    "duration": 0.0833333333333286
                },
                {
                    "name": "D5",
                    "midi": 74,
                    "time": 89.33333333333336,
                    "velocity": 0.8661417322834646,
                    "duration": 0.0833333333333286
                },
                {
                    "name": "E5",
                    "midi": 76,
                    "time": 89.41666666666669,
                    "velocity": 0.8661417322834646,
                    "duration": 0.0833333333333286
                },
                {
                    "name": "F#3",
                    "midi": 54,
                    "time": 89.50000000000001,
                    "velocity": 0.8661417322834646,
                    "duration": 0.2447916666666714
                },
                {
                    "name": "D5",
                    "midi": 74,
                    "time": 89.50000000000001,
                    "velocity": 0.8661417322834646,
                    "duration": 0.1197916666666714
                },
                {
                    "name": "C#5",
                    "midi": 73,
                    "time": 89.62500000000001,
                    "velocity": 0.8661417322834646,
                    "duration": 0.1197916666666714
                },
                {
                    "name": "B4",
                    "midi": 71,
                    "time": 89.75000000000001,
                    "velocity": 0.8661417322834646,
                    "duration": 0.6666666666666714
                },
                {
                    "name": "B2",
                    "midi": 47,
                    "time": 89.75000000000001,
                    "velocity": 0.8661417322834646,
                    "duration": 0.4166666666666714
                },
                {
                    "name": "G#4",
                    "midi": 68,
                    "time": 90.00000000000001,
                    "velocity": 0.8661417322834646,
                    "duration": 0.2447916666666714
                },
                {
                    "name": "G#4",
                    "midi": 68,
                    "time": 90.25000000000001,
                    "velocity": 0.8661417322834646,
                    "duration": 0.7447916666666714
                },
                {
                    "name": "B4",
                    "midi": 71,
                    "time": 90.50000000000001,
                    "velocity": 0.8661417322834646,
                    "duration": 0.2447916666666714
                },
                {
                    "name": "G#3",
                    "midi": 56,
                    "time": 90.50000000000001,
                    "velocity": 0.8661417322834646,
                    "duration": 0.2447916666666714
                },
                {
                    "name": "C#5",
                    "midi": 73,
                    "time": 90.75000000000001,
                    "velocity": 0.8661417322834646,
                    "duration": 0.2447916666666714
                },
                {
                    "name": "A3",
                    "midi": 57,
                    "time": 90.75000000000001,
                    "velocity": 0.8661417322834646,
                    "duration": 0.6666666666666714
                },
                {
                    "name": "D#5",
                    "midi": 75,
                    "time": 91.00000000000001,
                    "velocity": 0.8661417322834646,
                    "duration": 0.2447916666666714
                },
                {
                    "name": "G#4",
                    "midi": 68,
                    "time": 91.00000000000001,
                    "velocity": 0.8661417322834646,
                    "duration": 0.2447916666666714
                },
                {
                    "name": "D#5",
                    "midi": 75,
                    "time": 91.25000000000001,
                    "velocity": 0.8661417322834646,
                    "duration": 0.6666666666666714
                },
                {
                    "name": "F#4",
                    "midi": 66,
                    "time": 91.25000000000001,
                    "velocity": 0.8661417322834646,
                    "duration": 7.494791666666643
                },
                {
                    "name": "A3",
                    "midi": 57,
                    "time": 91.50000000000001,
                    "velocity": 0.8661417322834646,
                    "duration": 0.2447916666666714
                },
                {
                    "name": "B3",
                    "midi": 59,
                    "time": 91.75000000000001,
                    "velocity": 0.8661417322834646,
                    "duration": 0.4166666666666714
                },
                {
                    "name": "C#5",
                    "midi": 73,
                    "time": 92.00000000000001,
                    "velocity": 0.8661417322834646,
                    "duration": 0.1197916666666714
                },
                {
                    "name": "A4",
                    "midi": 69,
                    "time": 92.00000000000001,
                    "velocity": 0.8661417322834646,
                    "duration": 0.2447916666666714
                },
                {
                    "name": "D#5",
                    "midi": 75,
                    "time": 92.12500000000001,
                    "velocity": 0.8661417322834646,
                    "duration": 0.1197916666666714
                },
                {
                    "name": "E5",
                    "midi": 76,
                    "time": 92.25000000000001,
                    "velocity": 0.8661417322834646,
                    "duration": 0.875
                },
                {
                    "name": "G#4",
                    "midi": 68,
                    "time": 92.25000000000001,
                    "velocity": 0.8661417322834646,
                    "duration": 0.4166666666666714
                },
                {
                    "name": "E3",
                    "midi": 52,
                    "time": 92.50000000000001,
                    "velocity": 0.8661417322834646,
                    "duration": 0.9166666666666572
                },
                {
                    "name": "G#3",
                    "midi": 56,
                    "time": 92.75000000000001,
                    "velocity": 0.8661417322834646,
                    "duration": 0.4166666666666714
                },
                {
                    "name": "B3",
                    "midi": 59,
                    "time": 93.00000000000001,
                    "velocity": 0.8661417322834646,
                    "duration": 0.2447916666666714
                },
                {
                    "name": "E4",
                    "midi": 64,
                    "time": 93.25000000000001,
                    "velocity": 0.8661417322834646,
                    "duration": 0.7447916666666572
                },
                {
                    "name": "A5",
                    "midi": 81,
                    "time": 93.25000000000001,
                    "velocity": 0.8661417322834646,
                    "duration": 0.0833333333333286
                },
                {
                    "name": "G#5",
                    "midi": 80,
                    "time": 93.33333333333334,
                    "velocity": 0.8661417322834646,
                    "duration": 0.0833333333333286
                },
                {
                    "name": "A5",
                    "midi": 81,
                    "time": 93.41666666666667,
                    "velocity": 0.8661417322834646,
                    "duration": 0.0833333333333286
                },
                {
                    "name": "E3",
                    "midi": 52,
                    "time": 93.5,
                    "velocity": 0.8661417322834646,
                    "duration": 0.2447916666666714
                },
                {
                    "name": "G#5",
                    "midi": 80,
                    "time": 93.5,
                    "velocity": 0.8661417322834646,
                    "duration": 0.1197916666666714
                },
                {
                    "name": "F#5",
                    "midi": 78,
                    "time": 93.625,
                    "velocity": 0.8661417322834646,
                    "duration": 0.057291666666671404
                },
                {
                    "name": "G#5",
                    "midi": 80,
                    "time": 93.6875,
                    "velocity": 0.8661417322834646,
                    "duration": 0.057291666666671404
                },
                {
                    "name": "A5",
                    "midi": 81,
                    "time": 93.75,
                    "velocity": 0.8661417322834646,
                    "duration": 0.2447916666666714
                },
                {
                    "name": "F#3",
                    "midi": 54,
                    "time": 93.75,
                    "velocity": 0.8661417322834646,
                    "duration": 0.6666666666666572
                },
                {
                    "name": "G#5",
                    "midi": 80,
                    "time": 94,
                    "velocity": 0.8661417322834646,
                    "duration": 0.1197916666666714
                },
                {
                    "name": "E4",
                    "midi": 64,
                    "time": 94,
                    "velocity": 0.8661417322834646,
                    "duration": 0.2447916666666714
                },
                {
                    "name": "A5",
                    "midi": 81,
                    "time": 94.125,
                    "velocity": 0.8661417322834646,
                    "duration": 0.1197916666666714
                },
                {
                    "name": "D4",
                    "midi": 62,
                    "time": 94.25,
                    "velocity": 0.8661417322834646,
                    "duration": 0.6666666666666572
                },
                {
                    "name": "B5",
                    "midi": 83,
                    "time": 94.25,
                    "velocity": 0.8661417322834646,
                    "duration": 0.0833333333333286
                },
                {
                    "name": "A5",
                    "midi": 81,
                    "time": 94.33333333333333,
                    "velocity": 0.8661417322834646,
                    "duration": 0.0833333333333286
                },
                {
                    "name": "B5",
                    "midi": 83,
                    "time": 94.41666666666666,
                    "velocity": 0.8661417322834646,
                    "duration": 0.0833333333333286
                },
                {
                    "name": "F#3",
                    "midi": 54,
                    "time": 94.49999999999999,
                    "velocity": 0.8661417322834646,
                    "duration": 0.2447916666666714
                },
                {
                    "name": "A5",
                    "midi": 81,
                    "time": 94.49999999999999,
                    "velocity": 0.8661417322834646,
                    "duration": 0.1197916666666714
                },
                {
                    "name": "G#5",
                    "midi": 80,
                    "time": 94.62499999999999,
                    "velocity": 0.8661417322834646,
                    "duration": 0.057291666666671404
                },
                {
                    "name": "A5",
                    "midi": 81,
                    "time": 94.68749999999999,
                    "velocity": 0.8661417322834646,
                    "duration": 0.057291666666671404
                },
                {
                    "name": "B5",
                    "midi": 83,
                    "time": 94.74999999999999,
                    "velocity": 0.8661417322834646,
                    "duration": 0.1197916666666714
                },
                {
                    "name": "G#3",
                    "midi": 56,
                    "time": 94.74999999999999,
                    "velocity": 0.8661417322834646,
                    "duration": 0.4166666666666714
                },
                {
                    "name": "A5",
                    "midi": 81,
                    "time": 94.87499999999999,
                    "velocity": 0.8661417322834646,
                    "duration": 0.1197916666666714
                },
                {
                    "name": "B5",
                    "midi": 83,
                    "time": 94.99999999999999,
                    "velocity": 0.8661417322834646,
                    "duration": 0.2447916666666714
                },
                {
                    "name": "D4",
                    "midi": 62,
                    "time": 94.99999999999999,
                    "velocity": 0.8661417322834646,
                    "duration": 0.4947916666666714
                },
                {
                    "name": "E5",
                    "midi": 76,
                    "time": 95.24999999999999,
                    "velocity": 0.8661417322834646,
                    "duration": 0.6666666666666714
                },
                {
                    "name": "A3",
                    "midi": 57,
                    "time": 95.24999999999999,
                    "velocity": 0.8661417322834646,
                    "duration": 0.4166666666666714
                },
                {
                    "name": "D4",
                    "midi": 62,
                    "time": 95.49999999999999,
                    "velocity": 0.8661417322834646,
                    "duration": 0.2447916666666714
                },
                {
                    "name": "C#4",
                    "midi": 61,
                    "time": 95.74999999999999,
                    "velocity": 0.8661417322834646,
                    "duration": 0.2447916666666714
                },
                {
                    "name": "G#5",
                    "midi": 80,
                    "time": 95.99999999999999,
                    "velocity": 0.8661417322834646,
                    "duration": 0.2447916666666714
                },
                {
                    "name": "B3",
                    "midi": 59,
                    "time": 95.99999999999999,
                    "velocity": 0.8661417322834646,
                    "duration": 0.2447916666666714
                },
                {
                    "name": "A5",
                    "midi": 81,
                    "time": 96.24999999999999,
                    "velocity": 0.8661417322834646,
                    "duration": 0.2447916666666714
                },
                {
                    "name": "C#4",
                    "midi": 61,
                    "time": 96.24999999999999,
                    "velocity": 0.8661417322834646,
                    "duration": 0.7447916666666714
                },
                {
                    "name": "A4",
                    "midi": 69,
                    "time": 96.49999999999999,
                    "velocity": 0.8661417322834646,
                    "duration": 0.2447916666666714
                },
                {
                    "name": "C#3",
                    "midi": 49,
                    "time": 96.49999999999999,
                    "velocity": 0.8661417322834646,
                    "duration": 0.2447916666666714
                },
                {
                    "name": "F#5",
                    "midi": 78,
                    "time": 96.74999999999999,
                    "velocity": 0.8661417322834646,
                    "duration": 0.2447916666666714
                },
                {
                    "name": "D3",
                    "midi": 50,
                    "time": 96.74999999999999,
                    "velocity": 0.8661417322834646,
                    "duration": 0.6666666666666714
                },
                {
                    "name": "E5",
                    "midi": 76,
                    "time": 96.99999999999999,
                    "velocity": 0.8661417322834646,
                    "duration": 0.2447916666666714
                },
                {
                    "name": "C#4",
                    "midi": 61,
                    "time": 96.99999999999999,
                    "velocity": 0.8661417322834646,
                    "duration": 0.2447916666666714
                },
                {
                    "name": "D5",
                    "midi": 74,
                    "time": 97.24999999999999,
                    "velocity": 0.8661417322834646,
                    "duration": 0.2447916666666714
                },
                {
                    "name": "B3",
                    "midi": 59,
                    "time": 97.24999999999999,
                    "velocity": 0.8661417322834646,
                    "duration": 0.2447916666666714
                },
                {
                    "name": "C#5",
                    "midi": 73,
                    "time": 97.49999999999999,
                    "velocity": 0.8661417322834646,
                    "duration": 0.2447916666666714
                },
                {
                    "name": "C#4",
                    "midi": 61,
                    "time": 97.49999999999999,
                    "velocity": 0.8661417322834646,
                    "duration": 0.2447916666666714
                },
                {
                    "name": "E3",
                    "midi": 52,
                    "time": 97.49999999999999,
                    "velocity": 0.8661417322834646,
                    "duration": 0.2447916666666714
                },
                {
                    "name": "B4",
                    "midi": 71,
                    "time": 97.74999999999999,
                    "velocity": 0.8661417322834646,
                    "duration": 0.2447916666666714
                },
                {
                    "name": "D4",
                    "midi": 62,
                    "time": 97.74999999999999,
                    "velocity": 0.8661417322834646,
                    "duration": 1.1666666666666714
                },
                {
                    "name": "F#3",
                    "midi": 54,
                    "time": 97.74999999999999,
                    "velocity": 0.8661417322834646,
                    "duration": 0.4166666666666714
                },
                {
                    "name": "A4",
                    "midi": 69,
                    "time": 97.99999999999999,
                    "velocity": 0.8661417322834646,
                    "duration": 0.2447916666666714
                },
                {
                    "name": "G#4",
                    "midi": 68,
                    "time": 98.24999999999999,
                    "velocity": 0.8661417322834646,
                    "duration": 0.3697916666666714
                },
                {
                    "name": "E3",
                    "midi": 52,
                    "time": 98.24999999999999,
                    "velocity": 0.8661417322834646,
                    "duration": 1.375
                },
                {
                    "name": "F#4",
                    "midi": 66,
                    "time": 98.62499999999999,
                    "velocity": 0.8661417322834646,
                    "duration": 4.791666666666671
                },
                {
                    "name": "E4",
                    "midi": 64,
                    "time": 98.74999999999999,
                    "velocity": 0.8661417322834646,
                    "duration": 0.6666666666666714
                },
                {
                    "name": "D4",
                    "midi": 62,
                    "time": 98.99999999999999,
                    "velocity": 0.8661417322834646,
                    "duration": 0.2447916666666714
                },
                {
                    "name": "C#4",
                    "midi": 61,
                    "time": 99.24999999999999,
                    "velocity": 0.8661417322834646,
                    "duration": 0.2447916666666714
                },
                {
                    "name": "G#4",
                    "midi": 68,
                    "time": 99.49999999999999,
                    "velocity": 0.8661417322834646,
                    "duration": 0.2447916666666714
                },
                {
                    "name": "B3",
                    "midi": 59,
                    "time": 99.49999999999999,
                    "velocity": 0.8661417322834646,
                    "duration": 0.2447916666666714
                },
                {
                    "name": "A4",
                    "midi": 69,
                    "time": 99.74999999999999,
                    "velocity": 0.8661417322834646,
                    "duration": 0.6666666666666714
                },
                {
                    "name": "A3",
                    "midi": 57,
                    "time": 99.74999999999999,
                    "velocity": 0.8661417322834646,
                    "duration": 0.2447916666666714
                },
                {
                    "name": "F#3",
                    "midi": 54,
                    "time": 99.74999999999999,
                    "velocity": 0.8661417322834646,
                    "duration": 0.6666666666666714
                },
                {
                    "name": "E4",
                    "midi": 64,
                    "time": 99.99999999999999,
                    "velocity": 0.8661417322834646,
                    "duration": 0.2447916666666714
                },
                {
                    "name": "D4",
                    "midi": 62,
                    "time": 100.24999999999999,
                    "velocity": 0.8661417322834646,
                    "duration": 0.6666666666666714
                },
                {
                    "name": "G#4",
                    "midi": 68,
                    "time": 100.49999999999999,
                    "velocity": 0.8661417322834646,
                    "duration": 0.1197916666666714
                },
                {
                    "name": "F#3",
                    "midi": 54,
                    "time": 100.49999999999999,
                    "velocity": 0.8661417322834646,
                    "duration": 0.2447916666666714
                },
                {
                    "name": "A4",
                    "midi": 69,
                    "time": 100.62499999999999,
                    "velocity": 0.8661417322834646,
                    "duration": 0.1197916666666714
                },
                {
                    "name": "B4",
                    "midi": 71,
                    "time": 100.74999999999999,
                    "velocity": 0.8661417322834646,
                    "duration": 0.1197916666666714
                },
                {
                    "name": "G#3",
                    "midi": 56,
                    "time": 100.74999999999999,
                    "velocity": 0.8661417322834646,
                    "duration": 0.4166666666666714
                },
                {
                    "name": "A4",
                    "midi": 69,
                    "time": 100.87499999999999,
                    "velocity": 0.8661417322834646,
                    "duration": 0.1197916666666714
                },
                {
                    "name": "B4",
                    "midi": 71,
                    "time": 100.99999999999999,
                    "velocity": 0.8661417322834646,
                    "duration": 0.2447916666666714
                },
                {
                    "name": "D4",
                    "midi": 62,
                    "time": 100.99999999999999,
                    "velocity": 0.8661417322834646,
                    "duration": 0.2447916666666714
                },
                {
                    "name": "E4",
                    "midi": 64,
                    "time": 101.24999999999999,
                    "velocity": 0.8661417322834646,
                    "duration": 0.6666666666666714
                },
                {
                    "name": "C#3",
                    "midi": 49,
                    "time": 101.24999999999999,
                    "velocity": 0.8661417322834646,
                    "duration": 0.2447916666666714
                },
                {
                    "name": "D4",
                    "midi": 62,
                    "time": 101.49999999999999,
                    "velocity": 0.8661417322834646,
                    "duration": 0.2447916666666714
                },
                {
                    "name": "C#4",
                    "midi": 61,
                    "time": 101.74999999999999,
                    "velocity": 0.8661417322834646,
                    "duration": 0.2447916666666714
                },
                {
                    "name": "E5",
                    "midi": 76,
                    "time": 101.99999999999999,
                    "velocity": 0.8661417322834646,
                    "duration": 0.2447916666666714
                },
                {
                    "name": "B3",
                    "midi": 59,
                    "time": 101.99999999999999,
                    "velocity": 0.8661417322834646,
                    "duration": 0.2447916666666714
                },
                {
                    "name": "E5",
                    "midi": 76,
                    "time": 102.24999999999999,
                    "velocity": 0.8661417322834646,
                    "duration": 0.7447916666666714
                },
                {
                    "name": "C#4",
                    "midi": 61,
                    "time": 102.24999999999999,
                    "velocity": 0.8661417322834646,
                    "duration": 0.7447916666666714
                },
                {
                    "name": "E4",
                    "midi": 64,
                    "time": 102.49999999999999,
                    "velocity": 0.8661417322834646,
                    "duration": 0.2447916666666714
                },
                {
                    "name": "C#3",
                    "midi": 49,
                    "time": 102.49999999999999,
                    "velocity": 0.8661417322834646,
                    "duration": 0.2447916666666714
                },
                {
                    "name": "F#4",
                    "midi": 66,
                    "time": 102.74999999999999,
                    "velocity": 0.8661417322834646,
                    "duration": 0.9947916666666714
                },
                {
                    "name": "D3",
                    "midi": 50,
                    "time": 102.74999999999999,
                    "velocity": 0.8661417322834646,
                    "duration": 0.6666666666666714
                },
                {
                    "name": "E5",
                    "midi": 76,
                    "time": 102.99999999999999,
                    "velocity": 0.8661417322834646,
                    "duration": 0.2447916666666714
                },
                {
                    "name": "C#4",
                    "midi": 61,
                    "time": 102.99999999999999,
                    "velocity": 0.8661417322834646,
                    "duration": 0.2447916666666714
                },
                {
                    "name": "D5",
                    "midi": 74,
                    "time": 103.24999999999999,
                    "velocity": 0.8661417322834646,
                    "duration": 0.6666666666666714
                },
                {
                    "name": "B3",
                    "midi": 59,
                    "time": 103.24999999999999,
                    "velocity": 0.8661417322834646,
                    "duration": 0.6666666666666714
                },
                {
                    "name": "F#4",
                    "midi": 66,
                    "time": 103.49999999999999,
                    "velocity": 0.8661417322834646,
                    "duration": 2.6666666666666714
                },
                {
                    "name": "D3",
                    "midi": 50,
                    "time": 103.49999999999999,
                    "velocity": 0.8661417322834646,
                    "duration": 0.2447916666666714
                },
                {
                    "name": "G#4",
                    "midi": 68,
                    "time": 103.74999999999999,
                    "velocity": 0.8661417322834646,
                    "duration": 0.4166666666666714
                },
                {
                    "name": "E3",
                    "midi": 52,
                    "time": 103.74999999999999,
                    "velocity": 0.8661417322834646,
                    "duration": 0.4166666666666714
                },
                {
                    "name": "D5",
                    "midi": 74,
                    "time": 103.99999999999999,
                    "velocity": 0.8661417322834646,
                    "duration": 0.2447916666666714
                },
                {
                    "name": "B3",
                    "midi": 59,
                    "time": 103.99999999999999,
                    "velocity": 0.8661417322834646,
                    "duration": 0.2447916666666714
                },
                {
                    "name": "A4",
                    "midi": 69,
                    "time": 104.24999999999999,
                    "velocity": 0.8661417322834646,
                    "duration": 0.2447916666666714
                },
                {
                    "name": "F#3",
                    "midi": 54,
                    "time": 104.24999999999999,
                    "velocity": 0.8661417322834646,
                    "duration": 0.2447916666666714
                },
                {
                    "name": "D5",
                    "midi": 74,
                    "time": 104.49999999999999,
                    "velocity": 0.8661417322834646,
                    "duration": 0.2447916666666714
                },
                {
                    "name": "B3",
                    "midi": 59,
                    "time": 104.49999999999999,
                    "velocity": 0.8661417322834646,
                    "duration": 0.2447916666666714
                },
                {
                    "name": "C#5",
                    "midi": 73,
                    "time": 104.74999999999999,
                    "velocity": 0.8661417322834646,
                    "duration": 0.2447916666666714
                },
                {
                    "name": "A3",
                    "midi": 57,
                    "time": 104.74999999999999,
                    "velocity": 0.8661417322834646,
                    "duration": 0.2447916666666714
                },
                {
                    "name": "B4",
                    "midi": 71,
                    "time": 104.99999999999999,
                    "velocity": 0.8661417322834646,
                    "duration": 0.2447916666666714
                },
                {
                    "name": "G#3",
                    "midi": 56,
                    "time": 104.99999999999999,
                    "velocity": 0.8661417322834646,
                    "duration": 0.2447916666666714
                },
                {
                    "name": "C#5",
                    "midi": 73,
                    "time": 105.24999999999999,
                    "velocity": 0.8661417322834646,
                    "duration": 0.2447916666666714
                },
                {
                    "name": "A3",
                    "midi": 57,
                    "time": 105.24999999999999,
                    "velocity": 0.8661417322834646,
                    "duration": 0.2447916666666714
                },
                {
                    "name": "A4",
                    "midi": 69,
                    "time": 105.49999999999999,
                    "velocity": 0.8661417322834646,
                    "duration": 0.2447916666666714
                },
                {
                    "name": "C#3",
                    "midi": 49,
                    "time": 105.49999999999999,
                    "velocity": 0.8661417322834646,
                    "duration": 0.2447916666666714
                },
                {
                    "name": "F#4",
                    "midi": 66,
                    "time": 105.74999999999999,
                    "velocity": 0.8661417322834646,
                    "duration": 4.994791666666671
                },
                {
                    "name": "D4",
                    "midi": 62,
                    "time": 105.74999999999999,
                    "velocity": 0.8661417322834646,
                    "duration": 0.4166666666666714
                },
                {
                    "name": "D3",
                    "midi": 50,
                    "time": 105.74999999999999,
                    "velocity": 0.8661417322834646,
                    "duration": 0.4166666666666714
                },
                {
                    "name": "B4",
                    "midi": 71,
                    "time": 105.99999999999999,
                    "velocity": 0.8661417322834646,
                    "duration": 0.4166666666666714
                },
                {
                    "name": "E4",
                    "midi": 64,
                    "time": 106.24999999999999,
                    "velocity": 0.8661417322834646,
                    "duration": 0.4166666666666714
                },
                {
                    "name": "C#4",
                    "midi": 61,
                    "time": 106.24999999999999,
                    "velocity": 0.8661417322834646,
                    "duration": 0.4166666666666714
                },
                {
                    "name": "E3",
                    "midi": 52,
                    "time": 106.24999999999999,
                    "velocity": 0.8661417322834646,
                    "duration": 0.4166666666666714
                },
                {
                    "name": "A4",
                    "midi": 69,
                    "time": 106.49999999999999,
                    "velocity": 0.8661417322834646,
                    "duration": 0.4166666666666714
                },
                {
                    "name": "D4",
                    "midi": 62,
                    "time": 106.74999999999999,
                    "velocity": 0.8661417322834646,
                    "duration": 0.4166666666666714
                },
                {
                    "name": "B3",
                    "midi": 59,
                    "time": 106.74999999999999,
                    "velocity": 0.8661417322834646,
                    "duration": 0.4166666666666714
                },
                {
                    "name": "E2",
                    "midi": 40,
                    "time": 106.74999999999999,
                    "velocity": 0.8661417322834646,
                    "duration": 0.4166666666666714
                },
                {
                    "name": "G#4",
                    "midi": 68,
                    "time": 106.99999999999999,
                    "velocity": 0.8661417322834646,
                    "duration": 0.2447916666666714
                },
                {
                    "name": "A4",
                    "midi": 69,
                    "time": 107.24999999999999,
                    "velocity": 0.8661417322834646,
                    "duration": 0.875
                },
                {
                    "name": "A2",
                    "midi": 45,
                    "time": 107.24999999999999,
                    "velocity": 0.8661417322834646,
                    "duration": 1.375
                },
                {
                    "name": "D4",
                    "midi": 62,
                    "time": 107.49999999999999,
                    "velocity": 0.8661417322834646,
                    "duration": 0.2447916666666714
                },
                {
                    "name": "E4",
                    "midi": 64,
                    "time": 107.74999999999999,
                    "velocity": 0.8661417322834646,
                    "duration": 0.2447916666666714
                },
                {
                    "name": "A3",
                    "midi": 57,
                    "time": 107.74999999999999,
                    "velocity": 0.8661417322834646,
                    "duration": 0.4166666666666714
                },
                {
                    "name": "C#4",
                    "midi": 61,
                    "time": 107.99999999999999,
                    "velocity": 0.8661417322834646,
                    "duration": 0.2447916666666714
                },
                {
                    "name": "D5",
                    "midi": 74,
                    "time": 108.24999999999999,
                    "velocity": 0.8661417322834646,
                    "duration": 0.2447916666666714
                },
                {
                    "name": "B3",
                    "midi": 59,
                    "time": 108.24999999999999,
                    "velocity": 0.8661417322834646,
                    "duration": 0.4166666666666714
                },
                {
                    "name": "G#4",
                    "midi": 68,
                    "time": 108.49999999999999,
                    "velocity": 0.8661417322834646,
                    "duration": 0.2447916666666714
                },
                {
                    "name": "A4",
                    "midi": 69,
                    "time": 108.74999999999999,
                    "velocity": 0.8661417322834646,
                    "duration": 0.6666666666666714
                },
                {
                    "name": "C#4",
                    "midi": 61,
                    "time": 108.74999999999999,
                    "velocity": 0.8661417322834646,
                    "duration": 0.6666666666666714
                },
                {
                    "name": "E4",
                    "midi": 64,
                    "time": 108.74999999999999,
                    "velocity": 0.8661417322834646,
                    "duration": 0.6666666666666714
                },
                {
                    "name": "A3",
                    "midi": 57,
                    "time": 108.74999999999999,
                    "velocity": 0.8661417322834646,
                    "duration": 0.6666666666666714
                },
                {
                    "name": "A2",
                    "midi": 45,
                    "time": 108.74999999999999,
                    "velocity": 0.8661417322834646,
                    "duration": 0.6666666666666714
                },
                {
                    "name": "E3",
                    "midi": 52,
                    "time": 108.74999999999999,
                    "velocity": 0.8661417322834646,
                    "duration": 0.6666666666666714
                },
                {
                    "name": "B3",
                    "midi": 59,
                    "time": 109.49999999999999,
                    "velocity": 0.8661417322834646,
                    "duration": 0.2447916666666714
                },
                {
                    "name": "E4",
                    "midi": 64,
                    "time": 109.74999999999999,
                    "velocity": 0.8661417322834646,
                    "duration": 0.4166666666666714
                },
                {
                    "name": "G#4",
                    "midi": 68,
                    "time": 109.99999999999999,
                    "velocity": 0.8661417322834646,
                    "duration": 0.4947916666666714
                },
                {
                    "name": "B4",
                    "midi": 71,
                    "time": 110.24999999999999,
                    "velocity": 0.8661417322834646,
                    "duration": 0.875
                },
                {
                    "name": "E3",
                    "midi": 52,
                    "time": 110.24999999999999,
                    "velocity": 0.8661417322834646,
                    "duration": 0.875
                },
                {
                    "name": "F#4",
                    "midi": 66,
                    "time": 110.49999999999999,
                    "velocity": 0.8661417322834646,
                    "duration": 1.1666666666666714
                },
                {
                    "name": "G#4",
                    "midi": 68,
                    "time": 110.74999999999999,
                    "velocity": 0.8661417322834646,
                    "duration": 0.4166666666666714
                },
                {
                    "name": "E2",
                    "midi": 40,
                    "time": 110.74999999999999,
                    "velocity": 0.8661417322834646,
                    "duration": 0.875
                },
                {
                    "name": "E4",
                    "midi": 64,
                    "time": 110.99999999999999,
                    "velocity": 0.8661417322834646,
                    "duration": 0.4166666666666714
                },
                {
                    "name": "A4",
                    "midi": 69,
                    "time": 111.24999999999999,
                    "velocity": 0.8661417322834646,
                    "duration": 0.4166666666666714
                },
                {
                    "name": "F#4",
                    "midi": 66,
                    "time": 111.24999999999999,
                    "velocity": 0.8661417322834646,
                    "duration": 4.416666666666671
                },
                {
                    "name": "D#4",
                    "midi": 63,
                    "time": 111.49999999999999,
                    "velocity": 0.8661417322834646,
                    "duration": 0.2447916666666714
                },
                {
                    "name": "G#4",
                    "midi": 68,
                    "time": 111.74999999999999,
                    "velocity": 0.8661417322834646,
                    "duration": 0.6666666666666714
                },
                {
                    "name": "E4",
                    "midi": 64,
                    "time": 111.74999999999999,
                    "velocity": 0.8661417322834646,
                    "duration": 0.6666666666666714
                },
                {
                    "name": "B3",
                    "midi": 59,
                    "time": 111.99999999999999,
                    "velocity": 0.8661417322834646,
                    "duration": 0.2447916666666714
                },
                {
                    "name": "G#3",
                    "midi": 56,
                    "time": 112.24999999999999,
                    "velocity": 0.8661417322834646,
                    "duration": 0.2447916666666714
                },
                {
                    "name": "B3",
                    "midi": 59,
                    "time": 112.49999999999999,
                    "velocity": 0.8661417322834646,
                    "duration": 0.2447916666666714
                },
                {
                    "name": "E3",
                    "midi": 52,
                    "time": 112.49999999999999,
                    "velocity": 0.8661417322834646,
                    "duration": 0.2447916666666714
                },
                {
                    "name": "G#4",
                    "midi": 68,
                    "time": 112.74999999999999,
                    "velocity": 0.8661417322834646,
                    "duration": 0.2447916666666714
                },
                {
                    "name": "B2",
                    "midi": 47,
                    "time": 112.74999999999999,
                    "velocity": 0.8661417322834646,
                    "duration": 0.2447916666666714
                },
                {
                    "name": "B4",
                    "midi": 71,
                    "time": 112.99999999999999,
                    "velocity": 0.8661417322834646,
                    "duration": 0.2447916666666714
                },
                {
                    "name": "D3",
                    "midi": 50,
                    "time": 112.99999999999999,
                    "velocity": 0.8661417322834646,
                    "duration": 0.2447916666666714
                },
                {
                    "name": "E5",
                    "midi": 76,
                    "time": 113.24999999999999,
                    "velocity": 0.8661417322834646,
                    "duration": 0.875
                },
                {
                    "name": "C#3",
                    "midi": 49,
                    "time": 113.24999999999999,
                    "velocity": 0.8661417322834646,
                    "duration": 0.6666666666666714
                },
                {
                    "name": "B4",
                    "midi": 71,
                    "time": 113.49999999999999,
                    "velocity": 0.8661417322834646,
                    "duration": 0.2447916666666714
                },
                {
                    "name": "C#5",
                    "midi": 73,
                    "time": 113.74999999999999,
                    "velocity": 0.8661417322834646,
                    "duration": 0.4166666666666714
                },
                {
                    "name": "A4",
                    "midi": 69,
                    "time": 113.99999999999999,
                    "velocity": 0.8661417322834646,
                    "duration": 0.4166666666666714
                },
                {
                    "name": "F#3",
                    "midi": 54,
                    "time": 113.99999999999999,
                    "velocity": 0.8661417322834646,
                    "duration": 0.2447916666666714
                },
                {
                    "name": "D5",
                    "midi": 74,
                    "time": 114.24999999999999,
                    "velocity": 0.8661417322834646,
                    "duration": 0.4166666666666714
                },
                {
                    "name": "B4",
                    "midi": 71,
                    "time": 114.24999999999999,
                    "velocity": 0.8661417322834646,
                    "duration": 0.4166666666666714
                },
                {
                    "name": "B2",
                    "midi": 47,
                    "time": 114.24999999999999,
                    "velocity": 0.8661417322834646,
                    "duration": 0.2447916666666714
                },
                {
                    "name": "G#4",
                    "midi": 68,
                    "time": 114.49999999999999,
                    "velocity": 0.8661417322834646,
                    "duration": 0.2447916666666714
                },
                {
                    "name": "E3",
                    "midi": 52,
                    "time": 114.49999999999999,
                    "velocity": 0.8661417322834646,
                    "duration": 0.2447916666666714
                },
                {
                    "name": "C#5",
                    "midi": 73,
                    "time": 114.74999999999999,
                    "velocity": 0.8661417322834646,
                    "duration": 0.6666666666666714
                },
                {
                    "name": "A4",
                    "midi": 69,
                    "time": 114.74999999999999,
                    "velocity": 0.8661417322834646,
                    "duration": 0.2447916666666714
                },
                {
                    "name": "A2",
                    "midi": 45,
                    "time": 114.74999999999999,
                    "velocity": 0.8661417322834646,
                    "duration": 0.6666666666666714
                },
                {
                    "name": "F4",
                    "midi": 65,
                    "time": 114.99999999999999,
                    "velocity": 0.8661417322834646,
                    "duration": 0.2447916666666714
                },
                {
                    "name": "F#4",
                    "midi": 66,
                    "time": 115.24999999999999,
                    "velocity": 0.8661417322834646,
                    "duration": 4.666666666666657
                },
                {
                    "name": "C#5",
                    "midi": 73,
                    "time": 115.49999999999999,
                    "velocity": 0.8661417322834646,
                    "duration": 0.2447916666666714
                },
                {
                    "name": "A3",
                    "midi": 57,
                    "time": 115.49999999999999,
                    "velocity": 0.8661417322834646,
                    "duration": 0.2447916666666714
                },
                {
                    "name": "B4",
                    "midi": 71,
                    "time": 115.74999999999999,
                    "velocity": 0.8661417322834646,
                    "duration": 0.2447916666666714
                },
                {
                    "name": "G#3",
                    "midi": 56,
                    "time": 115.74999999999999,
                    "velocity": 0.8661417322834646,
                    "duration": 0.2447916666666714
                },
                {
                    "name": "C#5",
                    "midi": 73,
                    "time": 115.99999999999999,
                    "velocity": 0.8661417322834646,
                    "duration": 0.2447916666666714
                },
                {
                    "name": "A3",
                    "midi": 57,
                    "time": 115.99999999999999,
                    "velocity": 0.8661417322834646,
                    "duration": 0.2447916666666714
                },
                {
                    "name": "D5",
                    "midi": 74,
                    "time": 116.24999999999999,
                    "velocity": 0.8661417322834646,
                    "duration": 0.2447916666666714
                },
                {
                    "name": "B3",
                    "midi": 59,
                    "time": 116.24999999999999,
                    "velocity": 0.8661417322834646,
                    "duration": 0.2447916666666714
                },
                {
                    "name": "A#4",
                    "midi": 70,
                    "time": 116.49999999999999,
                    "velocity": 0.8661417322834646,
                    "duration": 0.2447916666666714
                },
                {
                    "name": "C#4",
                    "midi": 61,
                    "time": 116.49999999999999,
                    "velocity": 0.8661417322834646,
                    "duration": 0.2447916666666714
                },
                {
                    "name": "B4",
                    "midi": 71,
                    "time": 116.74999999999999,
                    "velocity": 0.8661417322834646,
                    "duration": 0.2447916666666714
                },
                {
                    "name": "D4",
                    "midi": 62,
                    "time": 116.74999999999999,
                    "velocity": 0.8661417322834646,
                    "duration": 0.2447916666666714
                },
                {
                    "name": "G#4",
                    "midi": 68,
                    "time": 116.99999999999999,
                    "velocity": 0.8661417322834646,
                    "duration": 0.2447916666666714
                },
                {
                    "name": "F3",
                    "midi": 53,
                    "time": 116.99999999999999,
                    "velocity": 0.8661417322834646,
                    "duration": 0.2447916666666714
                },
                {
                    "name": "A4",
                    "midi": 69,
                    "time": 117.24999999999999,
                    "velocity": 0.8661417322834646,
                    "duration": 0.2447916666666714
                },
                {
                    "name": "F#3",
                    "midi": 54,
                    "time": 117.24999999999999,
                    "velocity": 0.8661417322834646,
                    "duration": 0.2447916666666714
                },
                {
                    "name": "B4",
                    "midi": 71,
                    "time": 117.49999999999999,
                    "velocity": 0.8661417322834646,
                    "duration": 0.2447916666666714
                },
                {
                    "name": "D3",
                    "midi": 50,
                    "time": 117.49999999999999,
                    "velocity": 0.8661417322834646,
                    "duration": 0.2447916666666714
                },
                {
                    "name": "F4",
                    "midi": 65,
                    "time": 117.74999999999999,
                    "velocity": 0.8661417322834646,
                    "duration": 0.6666666666666714
                },
                {
                    "name": "C#3",
                    "midi": 49,
                    "time": 117.74999999999999,
                    "velocity": 0.8661417322834646,
                    "duration": 0.875
                },
                {
                    "name": "C#4",
                    "midi": 61,
                    "time": 117.99999999999999,
                    "velocity": 0.8661417322834646,
                    "duration": 0.2447916666666714
                },
                {
                    "name": "C#4",
                    "midi": 61,
                    "time": 118.24999999999999,
                    "velocity": 0.8661417322834646,
                    "duration": 0.2447916666666714
                },
                {
                    "name": "G#4",
                    "midi": 68,
                    "time": 118.49999999999999,
                    "velocity": 0.8661417322834646,
                    "duration": 0.2447916666666714
                },
                {
                    "name": "B3",
                    "midi": 59,
                    "time": 118.49999999999999,
                    "velocity": 0.8661417322834646,
                    "duration": 0.2447916666666714
                },
                {
                    "name": "C#5",
                    "midi": 73,
                    "time": 118.74999999999999,
                    "velocity": 0.8661417322834646,
                    "duration": 0.2447916666666714
                },
                {
                    "name": "A3",
                    "midi": 57,
                    "time": 118.74999999999999,
                    "velocity": 0.8661417322834646,
                    "duration": 0.2447916666666714
                },
                {
                    "name": "C#3",
                    "midi": 49,
                    "time": 118.74999999999999,
                    "velocity": 0.8661417322834646,
                    "duration": 0.4166666666666714
                },
                {
                    "name": "F4",
                    "midi": 65,
                    "time": 118.99999999999999,
                    "velocity": 0.8661417322834646,
                    "duration": 0.2447916666666714
                },
                {
                    "name": "G#3",
                    "midi": 56,
                    "time": 118.99999999999999,
                    "velocity": 0.8661417322834646,
                    "duration": 0.2447916666666714
                },
                {
                    "name": "F#4",
                    "midi": 66,
                    "time": 119.24999999999999,
                    "velocity": 0.8661417322834646,
                    "duration": 0.8697916666666572
                },
                {
                    "name": "F#3",
                    "midi": 54,
                    "time": 119.24999999999999,
                    "velocity": 0.8661417322834646,
                    "duration": 0.2447916666666714
                },
                {
                    "name": "D#3",
                    "midi": 51,
                    "time": 119.24999999999999,
                    "velocity": 0.8661417322834646,
                    "duration": 0.6666666666666572
                },
                {
                    "name": "C#4",
                    "midi": 61,
                    "time": 119.49999999999999,
                    "velocity": 0.8661417322834646,
                    "duration": 0.2447916666666714
                },
                {
                    "name": "B3",
                    "midi": 59,
                    "time": 119.74999999999999,
                    "velocity": 0.8661417322834646,
                    "duration": 0.7447916666666572
                },
                {
                    "name": "G#4",
                    "midi": 68,
                    "time": 119.74999999999999,
                    "velocity": 0.8661417322834646,
                    "duration": 0.0833333333333286
                },
                {
                    "name": "F#4",
                    "midi": 66,
                    "time": 119.83333333333331,
                    "velocity": 0.8661417322834646,
                    "duration": 0.4114583333333286
                },
                {
                    "name": "G#4",
                    "midi": 68,
                    "time": 119.91666666666664,
                    "velocity": 0.8661417322834646,
                    "duration": 0.0833333333333286
                },
                {
                    "name": "D#3",
                    "midi": 51,
                    "time": 119.99999999999997,
                    "velocity": 0.8661417322834646,
                    "duration": 0.2447916666666714
                },
                {
                    "name": "F#4",
                    "midi": 66,
                    "time": 119.99999999999997,
                    "velocity": 0.8661417322834646,
                    "duration": 0.4947916666666714
                },
                {
                    "name": "F4",
                    "midi": 65,
                    "time": 120.12499999999997,
                    "velocity": 0.8661417322834646,
                    "duration": 0.057291666666671404
                },
                {
                    "name": "F#4",
                    "midi": 66,
                    "time": 120.18749999999997,
                    "velocity": 0.8661417322834646,
                    "duration": 3.5572916666666714
                },
                {
                    "name": "G#4",
                    "midi": 68,
                    "time": 120.24999999999997,
                    "velocity": 0.8661417322834646,
                    "duration": 0.1197916666666714
                },
                {
                    "name": "F3",
                    "midi": 53,
                    "time": 120.24999999999997,
                    "velocity": 0.8661417322834646,
                    "duration": 0.4166666666666714
                },
                {
                    "name": "F#4",
                    "midi": 66,
                    "time": 120.37499999999997,
                    "velocity": 0.8661417322834646,
                    "duration": 5.119791666666671
                },
                {
                    "name": "G#4",
                    "midi": 68,
                    "time": 120.49999999999997,
                    "velocity": 0.8661417322834646,
                    "duration": 0.2447916666666714
                },
                {
                    "name": "B3",
                    "midi": 59,
                    "time": 120.49999999999997,
                    "velocity": 0.8661417322834646,
                    "duration": 0.4947916666666714
                },
                {
                    "name": "C#4",
                    "midi": 61,
                    "time": 120.74999999999997,
                    "velocity": 0.8661417322834646,
                    "duration": 0.6666666666666714
                },
                {
                    "name": "F#3",
                    "midi": 54,
                    "time": 120.74999999999997,
                    "velocity": 0.8661417322834646,
                    "duration": 0.6666666666666714
                },
                {
                    "name": "B3",
                    "midi": 59,
                    "time": 120.99999999999997,
                    "velocity": 0.8661417322834646,
                    "duration": 0.2447916666666714
                },
                {
                    "name": "A3",
                    "midi": 57,
                    "time": 121.24999999999997,
                    "velocity": 0.8661417322834646,
                    "duration": 0.6666666666666714
                },
                {
                    "name": "C#5",
                    "midi": 73,
                    "time": 121.49999999999997,
                    "velocity": 0.8661417322834646,
                    "duration": 0.2447916666666714
                },
                {
                    "name": "F#3",
                    "midi": 54,
                    "time": 121.49999999999997,
                    "velocity": 0.8661417322834646,
                    "duration": 0.2447916666666714
                },
                {
                    "name": "C#5",
                    "midi": 73,
                    "time": 121.74999999999997,
                    "velocity": 0.8661417322834646,
                    "duration": 0.7447916666666714
                },
                {
                    "name": "A2",
                    "midi": 45,
                    "time": 121.74999999999997,
                    "velocity": 0.8661417322834646,
                    "duration": 0.4166666666666714
                },
                {
                    "name": "C#4",
                    "midi": 61,
                    "time": 121.99999999999997,
                    "velocity": 0.8661417322834646,
                    "duration": 0.2447916666666714
                },
                {
                    "name": "A3",
                    "midi": 57,
                    "time": 121.99999999999997,
                    "velocity": 0.8661417322834646,
                    "duration": 0.4947916666666714
                },
                {
                    "name": "D#4",
                    "midi": 63,
                    "time": 122.24999999999997,
                    "velocity": 0.8661417322834646,
                    "duration": 0.6666666666666714
                },
                {
                    "name": "B2",
                    "midi": 47,
                    "time": 122.24999999999997,
                    "velocity": 0.8661417322834646,
                    "duration": 0.875
                },
                {
                    "name": "C#5",
                    "midi": 73,
                    "time": 122.49999999999997,
                    "velocity": 0.8661417322834646,
                    "duration": 0.2447916666666714
                },
                {
                    "name": "A3",
                    "midi": 57,
                    "time": 122.49999999999997,
                    "velocity": 0.8661417322834646,
                    "duration": 0.2447916666666714
                },
                {
                    "name": "B4",
                    "midi": 71,
                    "time": 122.74999999999997,
                    "velocity": 0.8661417322834646,
                    "duration": 0.6666666666666714
                },
                {
                    "name": "G#3",
                    "midi": 56,
                    "time": 122.74999999999997,
                    "velocity": 0.8661417322834646,
                    "duration": 0.6666666666666714
                },
                {
                    "name": "D#4",
                    "midi": 63,
                    "time": 122.99999999999997,
                    "velocity": 0.8661417322834646,
                    "duration": 0.2447916666666714
                },
                {
                    "name": "G#4",
                    "midi": 68,
                    "time": 123.24999999999997,
                    "velocity": 0.8661417322834646,
                    "duration": 0.2447916666666714
                },
                {
                    "name": "B4",
                    "midi": 71,
                    "time": 123.49999999999997,
                    "velocity": 0.8661417322834646,
                    "duration": 0.2447916666666714
                },
                {
                    "name": "F#4",
                    "midi": 66,
                    "time": 123.49999999999997,
                    "velocity": 0.8661417322834646,
                    "duration": 3.244791666666657
                },
                {
                    "name": "B3",
                    "midi": 59,
                    "time": 123.49999999999997,
                    "velocity": 0.8661417322834646,
                    "duration": 0.2447916666666714
                },
                {
                    "name": "D3",
                    "midi": 50,
                    "time": 123.49999999999997,
                    "velocity": 0.8661417322834646,
                    "duration": 0.2447916666666714
                },
                {
                    "name": "F4",
                    "midi": 65,
                    "time": 123.74999999999997,
                    "velocity": 0.8661417322834646,
                    "duration": 0.4166666666666714
                },
                {
                    "name": "G#4",
                    "midi": 68,
                    "time": 123.74999999999997,
                    "velocity": 0.8661417322834646,
                    "duration": 0.4166666666666714
                },
                {
                    "name": "C#4",
                    "midi": 61,
                    "time": 123.74999999999997,
                    "velocity": 0.8661417322834646,
                    "duration": 0.4166666666666714
                },
                {
                    "name": "B4",
                    "midi": 71,
                    "time": 123.74999999999997,
                    "velocity": 0.8661417322834646,
                    "duration": 0.6666666666666714
                },
                {
                    "name": "F3",
                    "midi": 53,
                    "time": 123.74999999999997,
                    "velocity": 0.8661417322834646,
                    "duration": 0.4166666666666714
                },
                {
                    "name": "G#3",
                    "midi": 56,
                    "time": 123.74999999999997,
                    "velocity": 0.8661417322834646,
                    "duration": 0.4166666666666714
                },
                {
                    "name": "B3",
                    "midi": 59,
                    "time": 123.74999999999997,
                    "velocity": 0.8661417322834646,
                    "duration": 0.4166666666666714
                },
                {
                    "name": "C#3",
                    "midi": 49,
                    "time": 123.74999999999997,
                    "velocity": 0.8661417322834646,
                    "duration": 0.6666666666666714
                },
                {
                    "name": "C#5",
                    "midi": 73,
                    "time": 124.49999999999997,
                    "velocity": 0.8661417322834646,
                    "duration": 0.2447916666666714
                },
                {
                    "name": "F3",
                    "midi": 53,
                    "time": 124.49999999999997,
                    "velocity": 0.8661417322834646,
                    "duration": 0.2447916666666714
                },
                {
                    "name": "A4",
                    "midi": 69,
                    "time": 124.74999999999997,
                    "velocity": 0.8661417322834646,
                    "duration": 0.2447916666666714
                },
                {
                    "name": "F#3",
                    "midi": 54,
                    "time": 124.74999999999997,
                    "velocity": 0.8661417322834646,
                    "duration": 0.4166666666666714
                },
                {
                    "name": "F4",
                    "midi": 65,
                    "time": 124.99999999999997,
                    "velocity": 0.8661417322834646,
                    "duration": 0.2447916666666714
                },
                {
                    "name": "C#3",
                    "midi": 49,
                    "time": 124.99999999999997,
                    "velocity": 0.8661417322834646,
                    "duration": 0.2447916666666714
                },
                {
                    "name": "F#4",
                    "midi": 66,
                    "time": 125.24999999999997,
                    "velocity": 0.8661417322834646,
                    "duration": 2.166666666666657
                },
                {
                    "name": "D3",
                    "midi": 50,
                    "time": 125.24999999999997,
                    "velocity": 0.8661417322834646,
                    "duration": 0.2447916666666714
                },
                {
                    "name": "F#3",
                    "midi": 54,
                    "time": 125.24999999999997,
                    "velocity": 0.8661417322834646,
                    "duration": 0.7447916666666714
                },
                {
                    "name": "B4",
                    "midi": 71,
                    "time": 125.49999999999997,
                    "velocity": 0.8661417322834646,
                    "duration": 0.2447916666666714
                },
                {
                    "name": "B2",
                    "midi": 47,
                    "time": 125.49999999999997,
                    "velocity": 0.8661417322834646,
                    "duration": 0.2447916666666714
                },
                {
                    "name": "A4",
                    "midi": 69,
                    "time": 125.74999999999997,
                    "velocity": 0.8661417322834646,
                    "duration": 0.4166666666666714
                },
                {
                    "name": "C#3",
                    "midi": 49,
                    "time": 125.74999999999997,
                    "velocity": 0.8661417322834646,
                    "duration": 0.8749999999999858
                },
                {
                    "name": "F#3",
                    "midi": 54,
                    "time": 125.99999999999997,
                    "velocity": 0.8661417322834646,
                    "duration": 0.2447916666666714
                },
                {
                    "name": "F3",
                    "midi": 53,
                    "time": 126.24999999999997,
                    "velocity": 0.8661417322834646,
                    "duration": 0.2447916666666572
                },
                {
                    "name": "A4",
                    "midi": 69,
                    "time": 126.24999999999997,
                    "velocity": 0.8661417322834646,
                    "duration": 0.0833333333333286
                },
                {
                    "name": "G#4",
                    "midi": 68,
                    "time": 126.3333333333333,
                    "velocity": 0.8661417322834646,
                    "duration": 0.0833333333333286
                },
                {
                    "name": "A4",
                    "midi": 69,
                    "time": 126.41666666666663,
                    "velocity": 0.8661417322834646,
                    "duration": 0.0833333333333286
                },
                {
                    "name": "C#4",
                    "midi": 61,
                    "time": 126.49999999999996,
                    "velocity": 0.8661417322834646,
                    "duration": 0.4947916666666714
                },
                {
                    "name": "G#4",
                    "midi": 68,
                    "time": 126.49999999999996,
                    "velocity": 0.8661417322834646,
                    "duration": 0.1197916666666714
                },
                {
                    "name": "F#4",
                    "midi": 66,
                    "time": 126.62499999999996,
                    "velocity": 0.8661417322834646,
                    "duration": 1.6197916666666714
                },
                {
                    "name": "F#4",
                    "midi": 66,
                    "time": 126.74999999999996,
                    "velocity": 0.8661417322834646,
                    "duration": 5.6666666666667
                },
                {
                    "name": "D3",
                    "midi": 50,
                    "time": 126.74999999999996,
                    "velocity": 0.8661417322834646,
                    "duration": 0.875
                },
                {
                    "name": "C#4",
                    "midi": 61,
                    "time": 126.99999999999996,
                    "velocity": 0.8661417322834646,
                    "duration": 0.2447916666666714
                },
                {
                    "name": "B3",
                    "midi": 59,
                    "time": 127.24999999999996,
                    "velocity": 0.8661417322834646,
                    "duration": 0.2447916666666714
                },
                {
                    "name": "F#5",
                    "midi": 78,
                    "time": 127.49999999999996,
                    "velocity": 0.8661417322834646,
                    "duration": 0.2447916666666714
                },
                {
                    "name": "A#3",
                    "midi": 58,
                    "time": 127.49999999999996,
                    "velocity": 0.8661417322834646,
                    "duration": 0.2447916666666714
                },
                {
                    "name": "F#5",
                    "midi": 78,
                    "time": 127.74999999999996,
                    "velocity": 0.8661417322834646,
                    "duration": 0.7447916666666714
                },
                {
                    "name": "B3",
                    "midi": 59,
                    "time": 127.74999999999996,
                    "velocity": 0.8661417322834646,
                    "duration": 0.7447916666666714
                },
                {
                    "name": "F#4",
                    "midi": 66,
                    "time": 127.99999999999996,
                    "velocity": 0.8661417322834646,
                    "duration": 11.244791666666757
                },
                {
                    "name": "D3",
                    "midi": 50,
                    "time": 127.99999999999996,
                    "velocity": 0.8661417322834646,
                    "duration": 0.2447916666666714
                },
                {
                    "name": "G#4",
                    "midi": 68,
                    "time": 128.24999999999997,
                    "velocity": 0.8661417322834646,
                    "duration": 0.6666666666666572
                },
                {
                    "name": "E3",
                    "midi": 52,
                    "time": 128.24999999999997,
                    "velocity": 0.8661417322834646,
                    "duration": 0.6666666666666572
                },
                {
                    "name": "F#5",
                    "midi": 78,
                    "time": 128.49999999999997,
                    "velocity": 0.8661417322834646,
                    "duration": 0.2447916666666572
                },
                {
                    "name": "D4",
                    "midi": 62,
                    "time": 128.49999999999997,
                    "velocity": 0.8661417322834646,
                    "duration": 0.2447916666666572
                },
                {
                    "name": "E5",
                    "midi": 76,
                    "time": 128.74999999999997,
                    "velocity": 0.8661417322834646,
                    "duration": 0.6666666666666572
                },
                {
                    "name": "C#4",
                    "midi": 61,
                    "time": 128.74999999999997,
                    "velocity": 0.8661417322834646,
                    "duration": 0.6666666666666572
                },
                {
                    "name": "B4",
                    "midi": 71,
                    "time": 128.99999999999997,
                    "velocity": 0.8661417322834646,
                    "duration": 0.2447916666666572
                },
                {
                    "name": "E3",
                    "midi": 52,
                    "time": 128.99999999999997,
                    "velocity": 0.8661417322834646,
                    "duration": 0.2447916666666572
                },
                {
                    "name": "A#4",
                    "midi": 70,
                    "time": 129.24999999999997,
                    "velocity": 0.8661417322834646,
                    "duration": 0.4166666666666572
                },
                {
                    "name": "F#3",
                    "midi": 54,
                    "time": 129.24999999999997,
                    "velocity": 0.8661417322834646,
                    "duration": 0.4166666666666572
                },
                {
                    "name": "E5",
                    "midi": 76,
                    "time": 129.49999999999997,
                    "velocity": 0.8661417322834646,
                    "duration": 0.2447916666666572
                },
                {
                    "name": "C#4",
                    "midi": 61,
                    "time": 129.49999999999997,
                    "velocity": 0.8661417322834646,
                    "duration": 0.2447916666666572
                },
                {
                    "name": "B3",
                    "midi": 59,
                    "time": 129.74999999999997,
                    "velocity": 0.8661417322834646,
                    "duration": 0.4166666666666856
                },
                {
                    "name": "E5",
                    "midi": 76,
                    "time": 129.74999999999997,
                    "velocity": 0.8661417322834646,
                    "duration": 0.08333333333334281
                },
                {
                    "name": "D5",
                    "midi": 74,
                    "time": 129.83333333333331,
                    "velocity": 0.8661417322834646,
                    "duration": 0.08333333333334281
                },
                {
                    "name": "E5",
                    "midi": 76,
                    "time": 129.91666666666666,
                    "velocity": 0.8661417322834646,
                    "duration": 0.08333333333334281
                },
                {
                    "name": "F#3",
                    "midi": 54,
                    "time": 130,
                    "velocity": 0.8661417322834646,
                    "duration": 0.2447916666666572
                },
                {
                    "name": "D5",
                    "midi": 74,
                    "time": 130,
                    "velocity": 0.8661417322834646,
                    "duration": 0.11979166666665719
                },
                {
                    "name": "C#5",
                    "midi": 73,
                    "time": 130.125,
                    "velocity": 0.8661417322834646,
                    "duration": 0.11979166666665719
                },
                {
                    "name": "B4",
                    "midi": 71,
                    "time": 130.25,
                    "velocity": 0.8661417322834646,
                    "duration": 0.6666666666666572
                },
                {
                    "name": "B2",
                    "midi": 47,
                    "time": 130.25,
                    "velocity": 0.8661417322834646,
                    "duration": 0.4166666666666572
                },
                {
                    "name": "G#4",
                    "midi": 68,
                    "time": 130.5,
                    "velocity": 0.8661417322834646,
                    "duration": 0.2447916666666572
                },
                {
                    "name": "G#4",
                    "midi": 68,
                    "time": 130.75,
                    "velocity": 0.8661417322834646,
                    "duration": 0.7447916666666572
                },
                {
                    "name": "B4",
                    "midi": 71,
                    "time": 131,
                    "velocity": 0.8661417322834646,
                    "duration": 0.2447916666666572
                },
                {
                    "name": "G#3",
                    "midi": 56,
                    "time": 131,
                    "velocity": 0.8661417322834646,
                    "duration": 0.2447916666666572
                },
                {
                    "name": "C#5",
                    "midi": 73,
                    "time": 131.25,
                    "velocity": 0.8661417322834646,
                    "duration": 0.2447916666666572
                },
                {
                    "name": "A3",
                    "midi": 57,
                    "time": 131.25,
                    "velocity": 0.8661417322834646,
                    "duration": 0.6666666666666572
                },
                {
                    "name": "D#5",
                    "midi": 75,
                    "time": 131.5,
                    "velocity": 0.8661417322834646,
                    "duration": 0.2447916666666572
                },
                {
                    "name": "G#4",
                    "midi": 68,
                    "time": 131.5,
                    "velocity": 0.8661417322834646,
                    "duration": 0.2447916666666572
                },
                {
                    "name": "D#5",
                    "midi": 75,
                    "time": 131.75,
                    "velocity": 0.8661417322834646,
                    "duration": 0.6666666666666572
                },
                {
                    "name": "F#4",
                    "midi": 66,
                    "time": 131.75,
                    "velocity": 0.8661417322834646,
                    "duration": 12.166666666666714
                },
                {
                    "name": "A3",
                    "midi": 57,
                    "time": 132,
                    "velocity": 0.8661417322834646,
                    "duration": 0.2447916666666572
                },
                {
                    "name": "B3",
                    "midi": 59,
                    "time": 132.25,
                    "velocity": 0.8661417322834646,
                    "duration": 0.4166666666666572
                },
                {
                    "name": "C#5",
                    "midi": 73,
                    "time": 132.5,
                    "velocity": 0.8661417322834646,
                    "duration": 0.11979166666665719
                },
                {
                    "name": "A4",
                    "midi": 69,
                    "time": 132.5,
                    "velocity": 0.8661417322834646,
                    "duration": 0.2447916666666572
                },
                {
                    "name": "D#5",
                    "midi": 75,
                    "time": 132.625,
                    "velocity": 0.8661417322834646,
                    "duration": 0.11979166666665719
                },
                {
                    "name": "E5",
                    "midi": 76,
                    "time": 132.75,
                    "velocity": 0.8661417322834646,
                    "duration": 0.875
                },
                {
                    "name": "G#4",
                    "midi": 68,
                    "time": 132.75,
                    "velocity": 0.8661417322834646,
                    "duration": 0.4166666666666572
                },
                {
                    "name": "E3",
                    "midi": 52,
                    "time": 133,
                    "velocity": 0.8661417322834646,
                    "duration": 0.9166666666666856
                },
                {
                    "name": "G#3",
                    "midi": 56,
                    "time": 133.25,
                    "velocity": 0.8661417322834646,
                    "duration": 0.4166666666666572
                },
                {
                    "name": "B3",
                    "midi": 59,
                    "time": 133.5,
                    "velocity": 0.8661417322834646,
                    "duration": 0.2447916666666572
                },
                {
                    "name": "E4",
                    "midi": 64,
                    "time": 133.75,
                    "velocity": 0.8661417322834646,
                    "duration": 0.7447916666666856
                },
                {
                    "name": "A5",
                    "midi": 81,
                    "time": 133.75,
                    "velocity": 0.8661417322834646,
                    "duration": 0.08333333333334281
                },
                {
                    "name": "G#5",
                    "midi": 80,
                    "time": 133.83333333333334,
                    "velocity": 0.8661417322834646,
                    "duration": 0.08333333333334281
                },
                {
                    "name": "A5",
                    "midi": 81,
                    "time": 133.91666666666669,
                    "velocity": 0.8661417322834646,
                    "duration": 0.08333333333334281
                },
                {
                    "name": "E3",
                    "midi": 52,
                    "time": 134.00000000000003,
                    "velocity": 0.8661417322834646,
                    "duration": 0.2447916666666572
                },
                {
                    "name": "G#5",
                    "midi": 80,
                    "time": 134.00000000000003,
                    "velocity": 0.8661417322834646,
                    "duration": 0.11979166666665719
                },
                {
                    "name": "F#5",
                    "midi": 78,
                    "time": 134.12500000000003,
                    "velocity": 0.8661417322834646,
                    "duration": 0.05729166666665719
                },
                {
                    "name": "G#5",
                    "midi": 80,
                    "time": 134.18750000000003,
                    "velocity": 0.8661417322834646,
                    "duration": 0.05729166666665719
                },
                {
                    "name": "A5",
                    "midi": 81,
                    "time": 134.25000000000003,
                    "velocity": 0.8661417322834646,
                    "duration": 0.2447916666666572
                },
                {
                    "name": "F#3",
                    "midi": 54,
                    "time": 134.25000000000003,
                    "velocity": 0.8661417322834646,
                    "duration": 0.6666666666666856
                },
                {
                    "name": "G#5",
                    "midi": 80,
                    "time": 134.50000000000003,
                    "velocity": 0.8661417322834646,
                    "duration": 0.11979166666665719
                },
                {
                    "name": "E4",
                    "midi": 64,
                    "time": 134.50000000000003,
                    "velocity": 0.8661417322834646,
                    "duration": 0.2447916666666572
                },
                {
                    "name": "A5",
                    "midi": 81,
                    "time": 134.62500000000003,
                    "velocity": 0.8661417322834646,
                    "duration": 0.11979166666665719
                },
                {
                    "name": "D4",
                    "midi": 62,
                    "time": 134.75000000000003,
                    "velocity": 0.8661417322834646,
                    "duration": 0.6666666666666856
                },
                {
                    "name": "B5",
                    "midi": 83,
                    "time": 134.75000000000003,
                    "velocity": 0.8661417322834646,
                    "duration": 0.08333333333334281
                },
                {
                    "name": "A5",
                    "midi": 81,
                    "time": 134.83333333333337,
                    "velocity": 0.8661417322834646,
                    "duration": 0.08333333333334281
                },
                {
                    "name": "B5",
                    "midi": 83,
                    "time": 134.9166666666667,
                    "velocity": 0.8661417322834646,
                    "duration": 0.08333333333334281
                },
                {
                    "name": "F#3",
                    "midi": 54,
                    "time": 135.00000000000006,
                    "velocity": 0.8661417322834646,
                    "duration": 0.2447916666666572
                },
                {
                    "name": "A5",
                    "midi": 81,
                    "time": 135.00000000000006,
                    "velocity": 0.8661417322834646,
                    "duration": 0.11979166666665719
                },
                {
                    "name": "G#5",
                    "midi": 80,
                    "time": 135.12500000000006,
                    "velocity": 0.8661417322834646,
                    "duration": 0.05729166666665719
                },
                {
                    "name": "A5",
                    "midi": 81,
                    "time": 135.18750000000006,
                    "velocity": 0.8661417322834646,
                    "duration": 0.05729166666665719
                },
                {
                    "name": "B5",
                    "midi": 83,
                    "time": 135.25000000000006,
                    "velocity": 0.8661417322834646,
                    "duration": 0.11979166666665719
                },
                {
                    "name": "G#3",
                    "midi": 56,
                    "time": 135.25000000000006,
                    "velocity": 0.8661417322834646,
                    "duration": 0.4166666666666572
                },
                {
                    "name": "A5",
                    "midi": 81,
                    "time": 135.37500000000006,
                    "velocity": 0.8661417322834646,
                    "duration": 0.11979166666665719
                },
                {
                    "name": "B5",
                    "midi": 83,
                    "time": 135.50000000000006,
                    "velocity": 0.8661417322834646,
                    "duration": 0.2447916666666572
                },
                {
                    "name": "D4",
                    "midi": 62,
                    "time": 135.50000000000006,
                    "velocity": 0.8661417322834646,
                    "duration": 0.4947916666666572
                },
                {
                    "name": "E5",
                    "midi": 76,
                    "time": 135.75000000000006,
                    "velocity": 0.8661417322834646,
                    "duration": 0.6666666666666572
                },
                {
                    "name": "A3",
                    "midi": 57,
                    "time": 135.75000000000006,
                    "velocity": 0.8661417322834646,
                    "duration": 0.4166666666666572
                },
                {
                    "name": "D4",
                    "midi": 62,
                    "time": 136.00000000000006,
                    "velocity": 0.8661417322834646,
                    "duration": 0.2447916666666572
                },
                {
                    "name": "C#4",
                    "midi": 61,
                    "time": 136.25000000000006,
                    "velocity": 0.8661417322834646,
                    "duration": 0.2447916666666572
                },
                {
                    "name": "G#5",
                    "midi": 80,
                    "time": 136.50000000000006,
                    "velocity": 0.8661417322834646,
                    "duration": 0.2447916666666572
                },
                {
                    "name": "B3",
                    "midi": 59,
                    "time": 136.50000000000006,
                    "velocity": 0.8661417322834646,
                    "duration": 0.2447916666666572
                },
                {
                    "name": "A5",
                    "midi": 81,
                    "time": 136.75000000000006,
                    "velocity": 0.8661417322834646,
                    "duration": 0.2447916666666572
                },
                {
                    "name": "C#4",
                    "midi": 61,
                    "time": 136.75000000000006,
                    "velocity": 0.8661417322834646,
                    "duration": 0.7447916666666572
                },
                {
                    "name": "A4",
                    "midi": 69,
                    "time": 137.00000000000006,
                    "velocity": 0.8661417322834646,
                    "duration": 0.2447916666666572
                },
                {
                    "name": "C#3",
                    "midi": 49,
                    "time": 137.00000000000006,
                    "velocity": 0.8661417322834646,
                    "duration": 0.2447916666666572
                },
                {
                    "name": "F#5",
                    "midi": 78,
                    "time": 137.25000000000006,
                    "velocity": 0.8661417322834646,
                    "duration": 0.2447916666666572
                },
                {
                    "name": "D3",
                    "midi": 50,
                    "time": 137.25000000000006,
                    "velocity": 0.8661417322834646,
                    "duration": 0.6666666666666572
                },
                {
                    "name": "E5",
                    "midi": 76,
                    "time": 137.50000000000006,
                    "velocity": 0.8661417322834646,
                    "duration": 0.2447916666666572
                },
                {
                    "name": "C#4",
                    "midi": 61,
                    "time": 137.50000000000006,
                    "velocity": 0.8661417322834646,
                    "duration": 0.2447916666666572
                },
                {
                    "name": "D5",
                    "midi": 74,
                    "time": 137.75000000000006,
                    "velocity": 0.8661417322834646,
                    "duration": 0.2447916666666572
                },
                {
                    "name": "B3",
                    "midi": 59,
                    "time": 137.75000000000006,
                    "velocity": 0.8661417322834646,
                    "duration": 0.2447916666666572
                },
                {
                    "name": "C#5",
                    "midi": 73,
                    "time": 138.00000000000006,
                    "velocity": 0.8661417322834646,
                    "duration": 0.2447916666666572
                },
                {
                    "name": "C#4",
                    "midi": 61,
                    "time": 138.00000000000006,
                    "velocity": 0.8661417322834646,
                    "duration": 0.2447916666666572
                },
                {
                    "name": "E3",
                    "midi": 52,
                    "time": 138.00000000000006,
                    "velocity": 0.8661417322834646,
                    "duration": 0.2447916666666572
                },
                {
                    "name": "B4",
                    "midi": 71,
                    "time": 138.25000000000006,
                    "velocity": 0.8661417322834646,
                    "duration": 0.2447916666666572
                },
                {
                    "name": "D4",
                    "midi": 62,
                    "time": 138.25000000000006,
                    "velocity": 0.8661417322834646,
                    "duration": 1.1666666666666572
                },
                {
                    "name": "F#3",
                    "midi": 54,
                    "time": 138.25000000000006,
                    "velocity": 0.8661417322834646,
                    "duration": 0.4166666666666572
                },
                {
                    "name": "A4",
                    "midi": 69,
                    "time": 138.50000000000006,
                    "velocity": 0.8661417322834646,
                    "duration": 0.2447916666666572
                },
                {
                    "name": "G#4",
                    "midi": 68,
                    "time": 138.75000000000006,
                    "velocity": 0.8661417322834646,
                    "duration": 0.3697916666666572
                },
                {
                    "name": "E3",
                    "midi": 52,
                    "time": 138.75000000000006,
                    "velocity": 0.8661417322834646,
                    "duration": 1.375
                },
                {
                    "name": "F#4",
                    "midi": 66,
                    "time": 139.12500000000006,
                    "velocity": 0.8661417322834646,
                    "duration": 5.119791666666657
                },
                {
                    "name": "E4",
                    "midi": 64,
                    "time": 139.25000000000006,
                    "velocity": 0.8661417322834646,
                    "duration": 0.6666666666666572
                },
                {
                    "name": "D4",
                    "midi": 62,
                    "time": 139.50000000000006,
                    "velocity": 0.8661417322834646,
                    "duration": 0.2447916666666572
                },
                {
                    "name": "C#4",
                    "midi": 61,
                    "time": 139.75000000000006,
                    "velocity": 0.8661417322834646,
                    "duration": 0.2447916666666572
                },
                {
                    "name": "G#4",
                    "midi": 68,
                    "time": 140.00000000000006,
                    "velocity": 0.8661417322834646,
                    "duration": 0.2447916666666572
                },
                {
                    "name": "B3",
                    "midi": 59,
                    "time": 140.00000000000006,
                    "velocity": 0.8661417322834646,
                    "duration": 0.2447916666666572
                },
                {
                    "name": "A4",
                    "midi": 69,
                    "time": 140.25000000000006,
                    "velocity": 0.8661417322834646,
                    "duration": 0.6666666666666572
                },
                {
                    "name": "A3",
                    "midi": 57,
                    "time": 140.25000000000006,
                    "velocity": 0.8661417322834646,
                    "duration": 0.2447916666666572
                },
                {
                    "name": "F#3",
                    "midi": 54,
                    "time": 140.25000000000006,
                    "velocity": 0.8661417322834646,
                    "duration": 0.6666666666666572
                },
                {
                    "name": "E4",
                    "midi": 64,
                    "time": 140.50000000000006,
                    "velocity": 0.8661417322834646,
                    "duration": 0.2447916666666572
                },
                {
                    "name": "D4",
                    "midi": 62,
                    "time": 140.75000000000006,
                    "velocity": 0.8661417322834646,
                    "duration": 0.6666666666666572
                },
                {
                    "name": "G#4",
                    "midi": 68,
                    "time": 141.00000000000006,
                    "velocity": 0.8661417322834646,
                    "duration": 0.11979166666665719
                },
                {
                    "name": "F#3",
                    "midi": 54,
                    "time": 141.00000000000006,
                    "velocity": 0.8661417322834646,
                    "duration": 0.2447916666666572
                },
                {
                    "name": "A4",
                    "midi": 69,
                    "time": 141.12500000000006,
                    "velocity": 0.8661417322834646,
                    "duration": 0.11979166666665719
                },
                {
                    "name": "B4",
                    "midi": 71,
                    "time": 141.25000000000006,
                    "velocity": 0.8661417322834646,
                    "duration": 0.11979166666665719
                },
                {
                    "name": "G#3",
                    "midi": 56,
                    "time": 141.25000000000006,
                    "velocity": 0.8661417322834646,
                    "duration": 0.4166666666666572
                },
                {
                    "name": "A4",
                    "midi": 69,
                    "time": 141.37500000000006,
                    "velocity": 0.8661417322834646,
                    "duration": 0.11979166666665719
                },
                {
                    "name": "B4",
                    "midi": 71,
                    "time": 141.50000000000006,
                    "velocity": 0.8661417322834646,
                    "duration": 0.2447916666666572
                },
                {
                    "name": "D4",
                    "midi": 62,
                    "time": 141.50000000000006,
                    "velocity": 0.8661417322834646,
                    "duration": 0.2447916666666572
                },
                {
                    "name": "E4",
                    "midi": 64,
                    "time": 141.75000000000006,
                    "velocity": 0.8661417322834646,
                    "duration": 0.6666666666666572
                },
                {
                    "name": "C#3",
                    "midi": 49,
                    "time": 141.75000000000006,
                    "velocity": 0.8661417322834646,
                    "duration": 0.2447916666666572
                },
                {
                    "name": "D4",
                    "midi": 62,
                    "time": 142.00000000000006,
                    "velocity": 0.8661417322834646,
                    "duration": 0.2447916666666572
                },
                {
                    "name": "C#4",
                    "midi": 61,
                    "time": 142.25000000000006,
                    "velocity": 0.8661417322834646,
                    "duration": 0.2447916666666572
                },
                {
                    "name": "E5",
                    "midi": 76,
                    "time": 142.50000000000006,
                    "velocity": 0.8661417322834646,
                    "duration": 0.2447916666666572
                },
                {
                    "name": "B3",
                    "midi": 59,
                    "time": 142.50000000000006,
                    "velocity": 0.8661417322834646,
                    "duration": 0.2447916666666572
                },
                {
                    "name": "E5",
                    "midi": 76,
                    "time": 142.75000000000006,
                    "velocity": 0.8661417322834646,
                    "duration": 0.7447916666666572
                },
                {
                    "name": "C#4",
                    "midi": 61,
                    "time": 142.75000000000006,
                    "velocity": 0.8661417322834646,
                    "duration": 0.7447916666666572
                },
                {
                    "name": "E4",
                    "midi": 64,
                    "time": 143.00000000000006,
                    "velocity": 0.8661417322834646,
                    "duration": 0.2447916666666572
                },
                {
                    "name": "C#3",
                    "midi": 49,
                    "time": 143.00000000000006,
                    "velocity": 0.8661417322834646,
                    "duration": 0.2447916666666572
                },
                {
                    "name": "F#4",
                    "midi": 66,
                    "time": 143.25000000000006,
                    "velocity": 0.8661417322834646,
                    "duration": 3.416666666666657
                },
                {
                    "name": "D3",
                    "midi": 50,
                    "time": 143.25000000000006,
                    "velocity": 0.8661417322834646,
                    "duration": 0.6666666666666572
                },
                {
                    "name": "E5",
                    "midi": 76,
                    "time": 143.50000000000006,
                    "velocity": 0.8661417322834646,
                    "duration": 0.2447916666666572
                },
                {
                    "name": "C#4",
                    "midi": 61,
                    "time": 143.50000000000006,
                    "velocity": 0.8661417322834646,
                    "duration": 0.2447916666666572
                },
                {
                    "name": "D5",
                    "midi": 74,
                    "time": 143.75000000000006,
                    "velocity": 0.8661417322834646,
                    "duration": 0.6666666666666572
                },
                {
                    "name": "B3",
                    "midi": 59,
                    "time": 143.75000000000006,
                    "velocity": 0.8661417322834646,
                    "duration": 0.6666666666666572
                },
                {
                    "name": "F#4",
                    "midi": 66,
                    "time": 144.00000000000006,
                    "velocity": 0.8661417322834646,
                    "duration": 0
                },
                {
                    "name": "D3",
                    "midi": 50,
                    "time": 144.00000000000006,
                    "velocity": 0.8661417322834646,
                    "duration": 0.2447916666666572
                },
                {
                    "name": "G#4",
                    "midi": 68,
                    "time": 144.25000000000006,
                    "velocity": 0.8661417322834646,
                    "duration": 0.4166666666666572
                },
                {
                    "name": "E3",
                    "midi": 52,
                    "time": 144.25000000000006,
                    "velocity": 0.8661417322834646,
                    "duration": 0.4166666666666572
                },
                {
                    "name": "D5",
                    "midi": 74,
                    "time": 144.50000000000006,
                    "velocity": 0.8661417322834646,
                    "duration": 0.2447916666666572
                },
                {
                    "name": "B3",
                    "midi": 59,
                    "time": 144.50000000000006,
                    "velocity": 0.8661417322834646,
                    "duration": 0.2447916666666572
                },
                {
                    "name": "A4",
                    "midi": 69,
                    "time": 144.75000000000006,
                    "velocity": 0.8661417322834646,
                    "duration": 0.2447916666666572
                },
                {
                    "name": "F#3",
                    "midi": 54,
                    "time": 144.75000000000006,
                    "velocity": 0.8661417322834646,
                    "duration": 0.2447916666666572
                },
                {
                    "name": "D5",
                    "midi": 74,
                    "time": 145.00000000000006,
                    "velocity": 0.8661417322834646,
                    "duration": 0.2447916666666572
                },
                {
                    "name": "B3",
                    "midi": 59,
                    "time": 145.00000000000006,
                    "velocity": 0.8661417322834646,
                    "duration": 0.2447916666666572
                },
                {
                    "name": "C#5",
                    "midi": 73,
                    "time": 145.25000000000006,
                    "velocity": 0.8661417322834646,
                    "duration": 0.2447916666666572
                },
                {
                    "name": "A3",
                    "midi": 57,
                    "time": 145.25000000000006,
                    "velocity": 0.8661417322834646,
                    "duration": 0.2447916666666572
                },
                {
                    "name": "B4",
                    "midi": 71,
                    "time": 145.50000000000006,
                    "velocity": 0.8661417322834646,
                    "duration": 0.2447916666666572
                },
                {
                    "name": "G#3",
                    "midi": 56,
                    "time": 145.50000000000006,
                    "velocity": 0.8661417322834646,
                    "duration": 0.2447916666666572
                },
                {
                    "name": "C#5",
                    "midi": 73,
                    "time": 145.75000000000006,
                    "velocity": 0.8661417322834646,
                    "duration": 0.2447916666666572
                },
                {
                    "name": "A3",
                    "midi": 57,
                    "time": 145.75000000000006,
                    "velocity": 0.8661417322834646,
                    "duration": 0.2447916666666572
                },
                {
                    "name": "A4",
                    "midi": 69,
                    "time": 146.00000000000006,
                    "velocity": 0.8661417322834646,
                    "duration": 0.2447916666666572
                },
                {
                    "name": "C#3",
                    "midi": 49,
                    "time": 146.00000000000006,
                    "velocity": 0.8661417322834646,
                    "duration": 0.2447916666666572
                },
                {
                    "name": "F#4",
                    "midi": 66,
                    "time": 146.25000000000006,
                    "velocity": 0.8661417322834646,
                    "duration": 0
                },
                {
                    "name": "D4",
                    "midi": 62,
                    "time": 146.25000000000006,
                    "velocity": 0.8661417322834646,
                    "duration": 0.4166666666666572
                },
                {
                    "name": "D3",
                    "midi": 50,
                    "time": 146.25000000000006,
                    "velocity": 0.8661417322834646,
                    "duration": 0.4166666666666572
                },
                {
                    "name": "B4",
                    "midi": 71,
                    "time": 146.50000000000006,
                    "velocity": 0.8661417322834646,
                    "duration": 0.4166666666666572
                },
                {
                    "name": "E4",
                    "midi": 64,
                    "time": 146.75000000000006,
                    "velocity": 0.8661417322834646,
                    "duration": 0.4166666666666572
                },
                {
                    "name": "C#4",
                    "midi": 61,
                    "time": 146.75000000000006,
                    "velocity": 0.8661417322834646,
                    "duration": 0.4166666666666572
                },
                {
                    "name": "E3",
                    "midi": 52,
                    "time": 146.75000000000006,
                    "velocity": 0.8661417322834646,
                    "duration": 0.4166666666666572
                },
                {
                    "name": "A4",
                    "midi": 69,
                    "time": 147.00000000000006,
                    "velocity": 0.8661417322834646,
                    "duration": 0.41666666666662877
                },
                {
                    "name": "D4",
                    "midi": 62,
                    "time": 147.25000000000003,
                    "velocity": 0.8661417322834646,
                    "duration": 0.4166666666666856
                },
                {
                    "name": "B3",
                    "midi": 59,
                    "time": 147.25000000000003,
                    "velocity": 0.8661417322834646,
                    "duration": 0.4166666666666856
                },
                {
                    "name": "E2",
                    "midi": 40,
                    "time": 147.25000000000003,
                    "velocity": 0.8661417322834646,
                    "duration": 0.4166666666666856
                },
                {
                    "name": "G#4",
                    "midi": 68,
                    "time": 147.50000000000003,
                    "velocity": 0.8661417322834646,
                    "duration": 0.24479166666668561
                },
                {
                    "name": "A4",
                    "midi": 69,
                    "time": 147.75000000000003,
                    "velocity": 0.8661417322834646,
                    "duration": 0.875
                },
                {
                    "name": "A2",
                    "midi": 45,
                    "time": 147.75000000000003,
                    "velocity": 0.8661417322834646,
                    "duration": 1.375
                },
                {
                    "name": "D4",
                    "midi": 62,
                    "time": 148.00000000000003,
                    "velocity": 0.8661417322834646,
                    "duration": 0.2447916666666572
                },
                {
                    "name": "E4",
                    "midi": 64,
                    "time": 148.25000000000003,
                    "velocity": 0.8661417322834646,
                    "duration": 0.24479166666668561
                },
                {
                    "name": "A3",
                    "midi": 57,
                    "time": 148.25000000000003,
                    "velocity": 0.8661417322834646,
                    "duration": 0.4166666666666572
                },
                {
                    "name": "C#4",
                    "midi": 61,
                    "time": 148.50000000000003,
                    "velocity": 0.8661417322834646,
                    "duration": 0.2447916666666572
                },
                {
                    "name": "D5",
                    "midi": 74,
                    "time": 148.75000000000003,
                    "velocity": 0.8661417322834646,
                    "duration": 0.2447916666666572
                },
                {
                    "name": "B3",
                    "midi": 59,
                    "time": 148.75000000000003,
                    "velocity": 0.8661417322834646,
                    "duration": 0.4166666666666572
                },
                {
                    "name": "G#4",
                    "midi": 68,
                    "time": 149.00000000000003,
                    "velocity": 0.8661417322834646,
                    "duration": 0.2447916666666572
                },
                {
                    "name": "A4",
                    "midi": 69,
                    "time": 149.25000000000003,
                    "velocity": 0.8661417322834646,
                    "duration": 0.6666666666666572
                },
                {
                    "name": "C#4",
                    "midi": 61,
                    "time": 149.25000000000003,
                    "velocity": 0.8661417322834646,
                    "duration": 0.6666666666666572
                },
                {
                    "name": "E4",
                    "midi": 64,
                    "time": 149.25000000000003,
                    "velocity": 0.8661417322834646,
                    "duration": 0.6666666666666572
                },
                {
                    "name": "A3",
                    "midi": 57,
                    "time": 149.25000000000003,
                    "velocity": 0.8661417322834646,
                    "duration": 0.6666666666666572
                },
                {
                    "name": "A2",
                    "midi": 45,
                    "time": 149.25000000000003,
                    "velocity": 0.8661417322834646,
                    "duration": 0.6666666666666572
                },
                {
                    "name": "E3",
                    "midi": 52,
                    "time": 149.25000000000003,
                    "velocity": 0.8661417322834646,
                    "duration": 0.6666666666666572
                }
            ],
            "controlChanges": {
                "7": [
                    {
                        "number": 7,
                        "time": 0,
                        "value": 0.7874015748031497
                    },
                    {
                        "number": 7,
                        "time": 0,
                        "value": 0.7874015748031497
                    },
                    {
                        "number": 7,
                        "time": 0,
                        "value": 0.7874015748031497
                    },
                    {
                        "number": 7,
                        "time": 0,
                        "value": 0.7874015748031497
                    },
                    {
                        "number": 7,
                        "time": 0,
                        "value": 0.7874015748031497
                    },
                    {
                        "number": 7,
                        "time": 0,
                        "value": 0.7874015748031497
                    },
                    {
                        "number": 7,
                        "time": 0,
                        "value": 0.7874015748031497
                    },
                    {
                        "number": 7,
                        "time": 0,
                        "value": 0.7874015748031497
                    }
                ],
                "10": [
                    {
                        "number": 10,
                        "time": 0,
                        "value": 0.5039370078740157
                    },
                    {
                        "number": 10,
                        "time": 0,
                        "value": 0.5039370078740157
                    },
                    {
                        "number": 10,
                        "time": 0,
                        "value": 0.5039370078740157
                    },
                    {
                        "number": 10,
                        "time": 0,
                        "value": 0.5039370078740157
                    },
                    {
                        "number": 10,
                        "time": 0,
                        "value": 0.5039370078740157
                    },
                    {
                        "number": 10,
                        "time": 0,
                        "value": 0.5039370078740157
                    },
                    {
                        "number": 10,
                        "time": 0,
                        "value": 0.5039370078740157
                    },
                    {
                        "number": 10,
                        "time": 0,
                        "value": 0.5039370078740157
                    }
                ]
            },
            "id": 0,
            "name": "3. Courante",
            "channelNumber": 3,
            "isPercussion": false
        },
        {
            "startTime": 0,
            "duration": 0,
            "length": 0,
            "notes": [],
            "controlChanges": {},
            "id": 1
        }
    ]
}