{
    "header": {
        "PPQ": 192,
        "bpm": 120,
        "name": ""
    },
    "startTime": 0,
    "duration": 87.91666666666663,
    "tracks": [
        {
            "startTime": 0.125,
            "duration": 87.91666666666663,
            "length": 1230,
            "notes": [
                {
                    "name": "A3",
                    "midi": 57,
                    "time": 0.125,
                    "velocity": 0.8661417322834646,
                    "duration": 0.11979166666666669
                },
                {
                    "name": "A3",
                    "midi": 57,
                    "time": 0.25,
                    "velocity": 0.8661417322834646,
                    "duration": 0.03125
                },
                {
                    "name": "G#3",
                    "midi": 56,
                    "time": 0.28125,
                    "velocity": 0.8661417322834646,
                    "duration": 0.03125
                },
                {
                    "name": "A3",
                    "midi": 57,
                    "time": 0.3125,
                    "velocity": 0.8661417322834646,
                    "duration": 0.03125
                },
                {
                    "name": "G#3",
                    "midi": 56,
                    "time": 0.34375,
                    "velocity": 0.8661417322834646,
                    "duration": 0.08854166666666669
                },
                {
                    "name": "F#3",
                    "midi": 54,
                    "time": 0.4375,
                    "velocity": 0.8661417322834646,
                    "duration": 0.057291666666666685
                },
                {
                    "name": "E3",
                    "midi": 52,
                    "time": 0.5,
                    "velocity": 0.8661417322834646,
                    "duration": 0.24479166666666663
                },
                {
                    "name": "E4",
                    "midi": 64,
                    "time": 0.625,
                    "velocity": 0.8661417322834646,
                    "duration": 0.11979166666666663
                },
                {
                    "name": "D3",
                    "midi": 50,
                    "time": 0.75,
                    "velocity": 0.8661417322834646,
                    "duration": 0.24479166666666663
                },
                {
                    "name": "F#4",
                    "midi": 66,
                    "time": 0.75,
                    "velocity": 0.8661417322834646,
                    "duration": 0.04166666666666663
                },
                {
                    "name": "E4",
                    "midi": 64,
                    "time": 0.7916666666666666,
                    "velocity": 0.8661417322834646,
                    "duration": 0.04166666666666663
                },
                {
                    "name": "F#4",
                    "midi": 66,
                    "time": 0.8333333333333333,
                    "velocity": 0.8661417322834646,
                    "duration": 0.09895833333333337
                },
                {
                    "name": "G#4",
                    "midi": 68,
                    "time": 0.9375,
                    "velocity": 0.8661417322834646,
                    "duration": 0.05729166666666663
                },
                {
                    "name": "A4",
                    "midi": 69,
                    "time": 1,
                    "velocity": 0.8661417322834646,
                    "duration": 0.24479166666666674
                },
                {
                    "name": "C#3",
                    "midi": 49,
                    "time": 1,
                    "velocity": 0.8661417322834646,
                    "duration": 0.24479166666666674
                },
                {
                    "name": "E3",
                    "midi": 52,
                    "time": 1.125,
                    "velocity": 0.8661417322834646,
                    "duration": 0.11979166666666674
                },
                {
                    "name": "D5",
                    "midi": 74,
                    "time": 1.25,
                    "velocity": 0.8661417322834646,
                    "duration": 0.24479166666666674
                },
                {
                    "name": "F#3",
                    "midi": 54,
                    "time": 1.25,
                    "velocity": 0.8661417322834646,
                    "duration": 0.11979166666666674
                },
                {
                    "name": "B2",
                    "midi": 47,
                    "time": 1.25,
                    "velocity": 0.8661417322834646,
                    "duration": 0.24479166666666674
                },
                {
                    "name": "G#3",
                    "midi": 56,
                    "time": 1.375,
                    "velocity": 0.8661417322834646,
                    "duration": 0.11979166666666674
                },
                {
                    "name": "C#5",
                    "midi": 73,
                    "time": 1.5,
                    "velocity": 0.8661417322834646,
                    "duration": 0.41666666666666674
                },
                {
                    "name": "A3",
                    "midi": 57,
                    "time": 1.5,
                    "velocity": 0.8661417322834646,
                    "duration": 0.24479166666666674
                },
                {
                    "name": "A2",
                    "midi": 45,
                    "time": 1.5,
                    "velocity": 0.8661417322834646,
                    "duration": 0.41666666666666674
                },
                {
                    "name": "A5",
                    "midi": 81,
                    "time": 1.625,
                    "velocity": 0.8661417322834646,
                    "duration": 0.11979166666666674
                },
                {
                    "name": "B3",
                    "midi": 59,
                    "time": 1.75,
                    "velocity": 0.8661417322834646,
                    "duration": 0.24479166666666674
                },
                {
                    "name": "A5",
                    "midi": 81,
                    "time": 1.75,
                    "velocity": 0.8661417322834646,
                    "duration": 0.03125
                },
                {
                    "name": "G#5",
                    "midi": 80,
                    "time": 1.78125,
                    "velocity": 0.8661417322834646,
                    "duration": 0.03125
                },
                {
                    "name": "A5",
                    "midi": 81,
                    "time": 1.8125,
                    "velocity": 0.8661417322834646,
                    "duration": 0.03125
                },
                {
                    "name": "G#5",
                    "midi": 80,
                    "time": 1.84375,
                    "velocity": 0.8661417322834646,
                    "duration": 0.02604166666666674
                },
                {
                    "name": "F#5",
                    "midi": 78,
                    "time": 1.875,
                    "velocity": 0.8661417322834646,
                    "duration": 0.11979166666666674
                },
                {
                    "name": "E5",
                    "midi": 76,
                    "time": 2,
                    "velocity": 0.8661417322834646,
                    "duration": 0.24479166666666652
                },
                {
                    "name": "E4",
                    "midi": 64,
                    "time": 2.125,
                    "velocity": 0.8661417322834646,
                    "duration": 0.11979166666666652
                },
                {
                    "name": "C#4",
                    "midi": 61,
                    "time": 2.125,
                    "velocity": 0.8661417322834646,
                    "duration": 0.11979166666666652
                },
                {
                    "name": "D5",
                    "midi": 74,
                    "time": 2.25,
                    "velocity": 0.8661417322834646,
                    "duration": 0.24479166666666652
                },
                {
                    "name": "F#4",
                    "midi": 66,
                    "time": 2.25,
                    "velocity": 0.8661417322834646,
                    "duration": 0.11979166666666652
                },
                {
                    "name": "D4",
                    "midi": 62,
                    "time": 2.25,
                    "velocity": 0.8661417322834646,
                    "duration": 0.11979166666666652
                },
                {
                    "name": "G#4",
                    "midi": 68,
                    "time": 2.375,
                    "velocity": 0.8661417322834646,
                    "duration": 0.11979166666666652
                },
                {
                    "name": "E4",
                    "midi": 64,
                    "time": 2.375,
                    "velocity": 0.8661417322834646,
                    "duration": 0.11979166666666652
                },
                {
                    "name": "C#5",
                    "midi": 73,
                    "time": 2.5,
                    "velocity": 0.8661417322834646,
                    "duration": 0.24479166666666652
                },
                {
                    "name": "A3",
                    "midi": 57,
                    "time": 2.5,
                    "velocity": 0.8661417322834646,
                    "duration": 0.24479166666666652
                },
                {
                    "name": "E4",
                    "midi": 64,
                    "time": 2.625,
                    "velocity": 0.8661417322834646,
                    "duration": 0.24479166666666652
                },
                {
                    "name": "C#5",
                    "midi": 73,
                    "time": 2.75,
                    "velocity": 0.8661417322834646,
                    "duration": 0.11979166666666652
                },
                {
                    "name": "G#3",
                    "midi": 56,
                    "time": 2.75,
                    "velocity": 0.8661417322834646,
                    "duration": 0.24479166666666652
                },
                {
                    "name": "B4",
                    "midi": 71,
                    "time": 2.875,
                    "velocity": 0.8661417322834646,
                    "duration": 0.11979166666666652
                },
                {
                    "name": "E4",
                    "midi": 64,
                    "time": 2.875,
                    "velocity": 0.8661417322834646,
                    "duration": 0.24479166666666652
                },
                {
                    "name": "F#3",
                    "midi": 54,
                    "time": 3,
                    "velocity": 0.8661417322834646,
                    "duration": 0.3697916666666661
                },
                {
                    "name": "B4",
                    "midi": 71,
                    "time": 3,
                    "velocity": 0.8661417322834646,
                    "duration": 0.11979166666666652
                },
                {
                    "name": "E4",
                    "midi": 64,
                    "time": 3.125,
                    "velocity": 0.8661417322834646,
                    "duration": 0.24479166666666607
                },
                {
                    "name": "B4",
                    "midi": 71,
                    "time": 3.125,
                    "velocity": 0.8661417322834646,
                    "duration": 0.04166666666666652
                },
                {
                    "name": "A4",
                    "midi": 69,
                    "time": 3.1666666666666665,
                    "velocity": 0.8661417322834646,
                    "duration": 0.04166666666666652
                },
                {
                    "name": "B4",
                    "midi": 71,
                    "time": 3.208333333333333,
                    "velocity": 0.8661417322834646,
                    "duration": 0.04166666666666652
                },
                {
                    "name": "A4",
                    "midi": 69,
                    "time": 3.2499999999999996,
                    "velocity": 0.8661417322834646,
                    "duration": 0.11979166666666652
                },
                {
                    "name": "B4",
                    "midi": 71,
                    "time": 3.3749999999999996,
                    "velocity": 0.8661417322834646,
                    "duration": 0.11979166666666652
                },
                {
                    "name": "D#4",
                    "midi": 63,
                    "time": 3.3749999999999996,
                    "velocity": 0.8661417322834646,
                    "duration": 0.11979166666666652
                },
                {
                    "name": "F#3",
                    "midi": 54,
                    "time": 3.3749999999999996,
                    "velocity": 0.8661417322834646,
                    "duration": 0.11979166666666652
                },
                {
                    "name": "E3",
                    "midi": 52,
                    "time": 3.4999999999999996,
                    "velocity": 0.8661417322834646,
                    "duration": 0.3697916666666665
                },
                {
                    "name": "A4",
                    "midi": 69,
                    "time": 3.4999999999999996,
                    "velocity": 0.8661417322834646,
                    "duration": 0.18229166666666652
                },
                {
                    "name": "B3",
                    "midi": 59,
                    "time": 3.6249999999999996,
                    "velocity": 0.8661417322834646,
                    "duration": 0.11979166666666652
                },
                {
                    "name": "G#4",
                    "midi": 68,
                    "time": 3.6874999999999996,
                    "velocity": 0.8661417322834646,
                    "duration": 0.05729166666666652
                },
                {
                    "name": "A4",
                    "midi": 69,
                    "time": 3.7499999999999996,
                    "velocity": 0.8661417322834646,
                    "duration": 0.11979166666666652
                },
                {
                    "name": "C#4",
                    "midi": 61,
                    "time": 3.7499999999999996,
                    "velocity": 0.8661417322834646,
                    "duration": 0.11979166666666652
                },
                {
                    "name": "B4",
                    "midi": 71,
                    "time": 3.8749999999999996,
                    "velocity": 0.8661417322834646,
                    "duration": 0.11979166666666652
                },
                {
                    "name": "D4",
                    "midi": 62,
                    "time": 3.8749999999999996,
                    "velocity": 0.8661417322834646,
                    "duration": 0.11979166666666652
                },
                {
                    "name": "D3",
                    "midi": 50,
                    "time": 3.8749999999999996,
                    "velocity": 0.8661417322834646,
                    "duration": 0.11979166666666652
                },
                {
                    "name": "E4",
                    "midi": 64,
                    "time": 3.9999999999999996,
                    "velocity": 0.8661417322834646,
                    "duration": 0.11979166666666652
                },
                {
                    "name": "C#3",
                    "midi": 49,
                    "time": 3.9999999999999996,
                    "velocity": 0.8661417322834646,
                    "duration": 0.4166666666666665
                },
                {
                    "name": "A4",
                    "midi": 69,
                    "time": 4.124999999999999,
                    "velocity": 0.8661417322834646,
                    "duration": 0.11979166666666696
                },
                {
                    "name": "B4",
                    "midi": 71,
                    "time": 4.249999999999999,
                    "velocity": 0.8661417322834646,
                    "duration": 0.11979166666666696
                },
                {
                    "name": "E3",
                    "midi": 52,
                    "time": 4.249999999999999,
                    "velocity": 0.8661417322834646,
                    "duration": 0.24479166666666696
                },
                {
                    "name": "C#5",
                    "midi": 73,
                    "time": 4.374999999999999,
                    "velocity": 0.8661417322834646,
                    "duration": 0.11979166666666696
                },
                {
                    "name": "F#4",
                    "midi": 66,
                    "time": 4.499999999999999,
                    "velocity": 0.8661417322834646,
                    "duration": 0.11979166666666696
                },
                {
                    "name": "F#3",
                    "midi": 54,
                    "time": 4.499999999999999,
                    "velocity": 0.8661417322834646,
                    "duration": 0.24479166666666696
                },
                {
                    "name": "D3",
                    "midi": 50,
                    "time": 4.499999999999999,
                    "velocity": 0.8661417322834646,
                    "duration": 0.24479166666666696
                },
                {
                    "name": "D5",
                    "midi": 74,
                    "time": 4.624999999999999,
                    "velocity": 0.8661417322834646,
                    "duration": 0.11979166666666696
                },
                {
                    "name": "E5",
                    "midi": 76,
                    "time": 4.749999999999999,
                    "velocity": 0.8661417322834646,
                    "duration": 0.11979166666666696
                },
                {
                    "name": "E3",
                    "midi": 52,
                    "time": 4.749999999999999,
                    "velocity": 0.8661417322834646,
                    "duration": 0.24479166666666696
                },
                {
                    "name": "C#3",
                    "midi": 49,
                    "time": 4.749999999999999,
                    "velocity": 0.8661417322834646,
                    "duration": 0.24479166666666696
                },
                {
                    "name": "F#5",
                    "midi": 78,
                    "time": 4.874999999999999,
                    "velocity": 0.8661417322834646,
                    "duration": 0.11979166666666696
                },
                {
                    "name": "F#3",
                    "midi": 54,
                    "time": 4.999999999999999,
                    "velocity": 0.8661417322834646,
                    "duration": 0.24479166666666696
                },
                {
                    "name": "B2",
                    "midi": 47,
                    "time": 4.999999999999999,
                    "velocity": 0.8661417322834646,
                    "duration": 0.41666666666666696
                },
                {
                    "name": "E5",
                    "midi": 76,
                    "time": 4.999999999999999,
                    "velocity": 0.8661417322834646,
                    "duration": 0.0625
                },
                {
                    "name": "D5",
                    "midi": 74,
                    "time": 5.062499999999999,
                    "velocity": 0.8661417322834646,
                    "duration": 0.03125
                },
                {
                    "name": "E5",
                    "midi": 76,
                    "time": 5.093749999999999,
                    "velocity": 0.8661417322834646,
                    "duration": 0.03125
                },
                {
                    "name": "D5",
                    "midi": 74,
                    "time": 5.124999999999999,
                    "velocity": 0.8661417322834646,
                    "duration": 0.03125
                },
                {
                    "name": "E5",
                    "midi": 76,
                    "time": 5.156249999999999,
                    "velocity": 0.8661417322834646,
                    "duration": 0.03125
                },
                {
                    "name": "D5",
                    "midi": 74,
                    "time": 5.187499999999999,
                    "velocity": 0.8661417322834646,
                    "duration": 0.18229166666666696
                },
                {
                    "name": "G#3",
                    "midi": 56,
                    "time": 5.249999999999999,
                    "velocity": 0.8661417322834646,
                    "duration": 0.24479166666666696
                },
                {
                    "name": "C#5",
                    "midi": 73,
                    "time": 5.374999999999999,
                    "velocity": 0.8661417322834646,
                    "duration": 0.11979166666666696
                },
                {
                    "name": "C#5",
                    "midi": 73,
                    "time": 5.499999999999999,
                    "velocity": 0.8661417322834646,
                    "duration": 0.6666666666666679
                },
                {
                    "name": "F#3",
                    "midi": 54,
                    "time": 5.499999999999999,
                    "velocity": 0.8661417322834646,
                    "duration": 0.41666666666666696
                },
                {
                    "name": "A3",
                    "midi": 57,
                    "time": 5.499999999999999,
                    "velocity": 0.8661417322834646,
                    "duration": 0.41666666666666696
                },
                {
                    "name": "C#4",
                    "midi": 61,
                    "time": 5.624999999999999,
                    "velocity": 0.8661417322834646,
                    "duration": 0.11979166666666696
                },
                {
                    "name": "A2",
                    "midi": 45,
                    "time": 5.624999999999999,
                    "velocity": 0.8661417322834646,
                    "duration": 0.11979166666666696
                },
                {
                    "name": "D#4",
                    "midi": 63,
                    "time": 5.749999999999999,
                    "velocity": 0.8661417322834646,
                    "duration": 0.11979166666666696
                },
                {
                    "name": "B2",
                    "midi": 47,
                    "time": 5.749999999999999,
                    "velocity": 0.8661417322834646,
                    "duration": 0.11979166666666696
                },
                {
                    "name": "F4",
                    "midi": 65,
                    "time": 5.874999999999999,
                    "velocity": 0.8661417322834646,
                    "duration": 0.11979166666666696
                },
                {
                    "name": "C#3",
                    "midi": 49,
                    "time": 5.874999999999999,
                    "velocity": 0.8661417322834646,
                    "duration": 0.11979166666666696
                },
                {
                    "name": "D3",
                    "midi": 50,
                    "time": 5.999999999999999,
                    "velocity": 0.8661417322834646,
                    "duration": 0.04166666666666696
                },
                {
                    "name": "F#4",
                    "midi": 66,
                    "time": 5.999999999999999,
                    "velocity": 0.8661417322834646,
                    "duration": 0.04166666666666696
                },
                {
                    "name": "C#3",
                    "midi": 49,
                    "time": 6.041666666666666,
                    "velocity": 0.8661417322834646,
                    "duration": 0.04166666666666696
                },
                {
                    "name": "F4",
                    "midi": 65,
                    "time": 6.041666666666666,
                    "velocity": 0.8661417322834646,
                    "duration": 0.04166666666666696
                },
                {
                    "name": "D3",
                    "midi": 50,
                    "time": 6.083333333333333,
                    "velocity": 0.8661417322834646,
                    "duration": 0.04166666666666696
                },
                {
                    "name": "F#4",
                    "midi": 66,
                    "time": 6.083333333333333,
                    "velocity": 0.8661417322834646,
                    "duration": 0.04166666666666696
                },
                {
                    "name": "C#3",
                    "midi": 49,
                    "time": 6.125,
                    "velocity": 0.8661417322834646,
                    "duration": 0.04166666666666696
                },
                {
                    "name": "F4",
                    "midi": 65,
                    "time": 6.125,
                    "velocity": 0.8661417322834646,
                    "duration": 0.04166666666666696
                },
                {
                    "name": "D3",
                    "midi": 50,
                    "time": 6.166666666666667,
                    "velocity": 0.8661417322834646,
                    "duration": 0.203125
                },
                {
                    "name": "F#4",
                    "midi": 66,
                    "time": 6.166666666666667,
                    "velocity": 0.8661417322834646,
                    "duration": 0.203125
                },
                {
                    "name": "B4",
                    "midi": 71,
                    "time": 6.25,
                    "velocity": 0.8661417322834646,
                    "duration": 0.36979166666666696
                },
                {
                    "name": "G#4",
                    "midi": 68,
                    "time": 6.375,
                    "velocity": 0.8661417322834646,
                    "duration": 0.11979166666666696
                },
                {
                    "name": "B2",
                    "midi": 47,
                    "time": 6.375,
                    "velocity": 0.8661417322834646,
                    "duration": 0.11979166666666696
                },
                {
                    "name": "F4",
                    "midi": 65,
                    "time": 6.5,
                    "velocity": 0.8661417322834646,
                    "duration": 0.24479166666666696
                },
                {
                    "name": "C#3",
                    "midi": 49,
                    "time": 6.5,
                    "velocity": 0.8661417322834646,
                    "duration": 0.24479166666666696
                },
                {
                    "name": "C#5",
                    "midi": 73,
                    "time": 6.625,
                    "velocity": 0.8661417322834646,
                    "duration": 0.11979166666666696
                },
                {
                    "name": "A4",
                    "midi": 69,
                    "time": 6.75,
                    "velocity": 0.8661417322834646,
                    "duration": 0.11979166666666696
                },
                {
                    "name": "F#4",
                    "midi": 66,
                    "time": 6.75,
                    "velocity": 0.8661417322834646,
                    "duration": 0.41666666666666785
                },
                {
                    "name": "F#2",
                    "midi": 42,
                    "time": 6.75,
                    "velocity": 0.8661417322834646,
                    "duration": 0.24479166666666696
                },
                {
                    "name": "B4",
                    "midi": 71,
                    "time": 6.875,
                    "velocity": 0.8661417322834646,
                    "duration": 0.11979166666666696
                },
                {
                    "name": "C#3",
                    "midi": 49,
                    "time": 7,
                    "velocity": 0.8661417322834646,
                    "duration": 0.24479166666666785
                },
                {
                    "name": "A4",
                    "midi": 69,
                    "time": 7,
                    "velocity": 0.8661417322834646,
                    "duration": 0.04166666666666696
                },
                {
                    "name": "G#4",
                    "midi": 68,
                    "time": 7.041666666666667,
                    "velocity": 0.8661417322834646,
                    "duration": 0.04166666666666696
                },
                {
                    "name": "A4",
                    "midi": 69,
                    "time": 7.083333333333334,
                    "velocity": 0.8661417322834646,
                    "duration": 0.04166666666666696
                },
                {
                    "name": "G#4",
                    "midi": 68,
                    "time": 7.125000000000001,
                    "velocity": 0.8661417322834646,
                    "duration": 0.11979166666666696
                },
                {
                    "name": "A#4",
                    "midi": 70,
                    "time": 7.250000000000001,
                    "velocity": 0.8661417322834646,
                    "duration": 0.11979166666666696
                },
                {
                    "name": "F4",
                    "midi": 65,
                    "time": 7.250000000000001,
                    "velocity": 0.8661417322834646,
                    "duration": 0.24479166666666696
                },
                {
                    "name": "C#2",
                    "midi": 37,
                    "time": 7.250000000000001,
                    "velocity": 0.8661417322834646,
                    "duration": 0.24479166666666696
                },
                {
                    "name": "B4",
                    "midi": 71,
                    "time": 7.375000000000001,
                    "velocity": 0.8661417322834646,
                    "duration": 0.11979166666666696
                },
                {
                    "name": "A#4",
                    "midi": 70,
                    "time": 7.500000000000001,
                    "velocity": 0.8661417322834646,
                    "duration": 0.41666666666666696
                },
                {
                    "name": "F#3",
                    "midi": 54,
                    "time": 7.500000000000001,
                    "velocity": 0.8661417322834646,
                    "duration": 0.36979166666666696
                },
                {
                    "name": "F#2",
                    "midi": 42,
                    "time": 7.500000000000001,
                    "velocity": 0.8661417322834646,
                    "duration": 0.41666666666666696
                },
                {
                    "name": "F#4",
                    "midi": 66,
                    "time": 7.625000000000001,
                    "velocity": 0.8661417322834646,
                    "duration": 0.11979166666666696
                },
                {
                    "name": "E4",
                    "midi": 64,
                    "time": 7.750000000000001,
                    "velocity": 0.8661417322834646,
                    "duration": 0.11979166666666696
                },
                {
                    "name": "C#4",
                    "midi": 61,
                    "time": 7.875000000000001,
                    "velocity": 0.8661417322834646,
                    "duration": 0.11979166666666696
                },
                {
                    "name": "C#4",
                    "midi": 61,
                    "time": 7.875000000000001,
                    "velocity": 0.8661417322834646,
                    "duration": 0.11979166666666696
                },
                {
                    "name": "F#4",
                    "midi": 66,
                    "time": 8.000000000000002,
                    "velocity": 0.8661417322834646,
                    "duration": 0.24479166666666607
                },
                {
                    "name": "D4",
                    "midi": 62,
                    "time": 8.000000000000002,
                    "velocity": 0.8661417322834646,
                    "duration": 0.24479166666666607
                },
                {
                    "name": "F#5",
                    "midi": 78,
                    "time": 8.125000000000002,
                    "velocity": 0.8661417322834646,
                    "duration": 0.11979166666666607
                },
                {
                    "name": "E5",
                    "midi": 76,
                    "time": 8.250000000000002,
                    "velocity": 0.8661417322834646,
                    "duration": 0.11979166666666607
                },
                {
                    "name": "G#4",
                    "midi": 68,
                    "time": 8.250000000000002,
                    "velocity": 0.8661417322834646,
                    "duration": 0.24479166666666607
                },
                {
                    "name": "C#4",
                    "midi": 61,
                    "time": 8.250000000000002,
                    "velocity": 0.8661417322834646,
                    "duration": 0.24479166666666607
                },
                {
                    "name": "C#5",
                    "midi": 73,
                    "time": 8.375000000000002,
                    "velocity": 0.8661417322834646,
                    "duration": 0.11979166666666607
                },
                {
                    "name": "B4",
                    "midi": 71,
                    "time": 8.500000000000002,
                    "velocity": 0.8661417322834646,
                    "duration": 0.24479166666666607
                },
                {
                    "name": "B3",
                    "midi": 59,
                    "time": 8.500000000000002,
                    "velocity": 0.8661417322834646,
                    "duration": 0.4166666666666661
                },
                {
                    "name": "D5",
                    "midi": 74,
                    "time": 8.500000000000002,
                    "velocity": 0.8661417322834646,
                    "duration": 0.041666666666666075
                },
                {
                    "name": "C#5",
                    "midi": 73,
                    "time": 8.541666666666668,
                    "velocity": 0.8661417322834646,
                    "duration": 0.041666666666666075
                },
                {
                    "name": "D5",
                    "midi": 74,
                    "time": 8.583333333333334,
                    "velocity": 0.8661417322834646,
                    "duration": 0.16145833333333393
                },
                {
                    "name": "C#5",
                    "midi": 73,
                    "time": 8.750000000000002,
                    "velocity": 0.8661417322834646,
                    "duration": 0.11979166666666607
                },
                {
                    "name": "D4",
                    "midi": 62,
                    "time": 8.750000000000002,
                    "velocity": 0.8661417322834646,
                    "duration": 0.24479166666666607
                },
                {
                    "name": "B4",
                    "midi": 71,
                    "time": 8.875000000000002,
                    "velocity": 0.8661417322834646,
                    "duration": 0.11979166666666607
                },
                {
                    "name": "E4",
                    "midi": 64,
                    "time": 9.000000000000002,
                    "velocity": 0.8661417322834646,
                    "duration": 0.2447916666666643
                },
                {
                    "name": "C#4",
                    "midi": 61,
                    "time": 9.000000000000002,
                    "velocity": 0.8661417322834646,
                    "duration": 0.2447916666666643
                },
                {
                    "name": "B4",
                    "midi": 71,
                    "time": 9.000000000000002,
                    "velocity": 0.8661417322834646,
                    "duration": 0.041666666666666075
                },
                {
                    "name": "A4",
                    "midi": 69,
                    "time": 9.041666666666668,
                    "velocity": 0.8661417322834646,
                    "duration": 0.041666666666666075
                },
                {
                    "name": "B4",
                    "midi": 71,
                    "time": 9.083333333333334,
                    "velocity": 0.8661417322834646,
                    "duration": 0.041666666666666075
                },
                {
                    "name": "A4",
                    "midi": 69,
                    "time": 9.125,
                    "velocity": 0.8661417322834646,
                    "duration": 0.18229166666666607
                },
                {
                    "name": "F#4",
                    "midi": 66,
                    "time": 9.25,
                    "velocity": 0.8661417322834646,
                    "duration": 0.24479166666666607
                },
                {
                    "name": "D#4",
                    "midi": 63,
                    "time": 9.25,
                    "velocity": 0.8661417322834646,
                    "duration": 0.24479166666666607
                },
                {
                    "name": "G#4",
                    "midi": 68,
                    "time": 9.3125,
                    "velocity": 0.8661417322834646,
                    "duration": 0.057291666666666075
                },
                {
                    "name": "A4",
                    "midi": 69,
                    "time": 9.375,
                    "velocity": 0.8661417322834646,
                    "duration": 0.057291666666666075
                },
                {
                    "name": "B4",
                    "midi": 71,
                    "time": 9.4375,
                    "velocity": 0.8661417322834646,
                    "duration": 0.057291666666666075
                },
                {
                    "name": "G#4",
                    "midi": 68,
                    "time": 9.5,
                    "velocity": 0.8661417322834646,
                    "duration": 0.3697916666666661
                },
                {
                    "name": "E4",
                    "midi": 64,
                    "time": 9.5,
                    "velocity": 0.8661417322834646,
                    "duration": 0.4166666666666661
                },
                {
                    "name": "B3",
                    "midi": 59,
                    "time": 9.625,
                    "velocity": 0.8661417322834646,
                    "duration": 0.11979166666666607
                },
                {
                    "name": "E3",
                    "midi": 52,
                    "time": 9.75,
                    "velocity": 0.8661417322834646,
                    "duration": 0.11979166666666607
                },
                {
                    "name": "A4",
                    "midi": 69,
                    "time": 9.875,
                    "velocity": 0.8661417322834646,
                    "duration": 0.11979166666666607
                },
                {
                    "name": "F#3",
                    "midi": 54,
                    "time": 9.875,
                    "velocity": 0.8661417322834646,
                    "duration": 0.11979166666666607
                },
                {
                    "name": "B4",
                    "midi": 71,
                    "time": 10,
                    "velocity": 0.8661417322834646,
                    "duration": 0.11979166666666607
                },
                {
                    "name": "G#3",
                    "midi": 56,
                    "time": 10,
                    "velocity": 0.8661417322834646,
                    "duration": 0.4166666666666661
                },
                {
                    "name": "B4",
                    "midi": 71,
                    "time": 10.125,
                    "velocity": 0.8661417322834646,
                    "duration": 0.11979166666666607
                },
                {
                    "name": "C#5",
                    "midi": 73,
                    "time": 10.25,
                    "velocity": 0.8661417322834646,
                    "duration": 0.11979166666666607
                },
                {
                    "name": "E4",
                    "midi": 64,
                    "time": 10.25,
                    "velocity": 0.8661417322834646,
                    "duration": 0.24479166666666607
                },
                {
                    "name": "D5",
                    "midi": 74,
                    "time": 10.375,
                    "velocity": 0.8661417322834646,
                    "duration": 0.11979166666666607
                },
                {
                    "name": "C#5",
                    "midi": 73,
                    "time": 10.5,
                    "velocity": 0.8661417322834646,
                    "duration": 0.6197916666666661
                },
                {
                    "name": "A3",
                    "midi": 57,
                    "time": 10.5,
                    "velocity": 0.8661417322834646,
                    "duration": 0.24479166666666607
                },
                {
                    "name": "E4",
                    "midi": 64,
                    "time": 10.625,
                    "velocity": 0.8661417322834646,
                    "duration": 0.11979166666666607
                },
                {
                    "name": "F#4",
                    "midi": 66,
                    "time": 10.75,
                    "velocity": 0.8661417322834646,
                    "duration": 0.11979166666666607
                },
                {
                    "name": "G#3",
                    "midi": 56,
                    "time": 10.75,
                    "velocity": 0.8661417322834646,
                    "duration": 0.24479166666666607
                },
                {
                    "name": "G#4",
                    "midi": 68,
                    "time": 10.875,
                    "velocity": 0.8661417322834646,
                    "duration": 0.11979166666666607
                },
                {
                    "name": "A4",
                    "midi": 69,
                    "time": 11,
                    "velocity": 0.8661417322834646,
                    "duration": 0.24479166666666607
                },
                {
                    "name": "F#3",
                    "midi": 54,
                    "time": 11,
                    "velocity": 0.8661417322834646,
                    "duration": 0.24479166666666607
                },
                {
                    "name": "C#5",
                    "midi": 73,
                    "time": 11.125,
                    "velocity": 0.8661417322834646,
                    "duration": 0.11979166666666607
                },
                {
                    "name": "D#5",
                    "midi": 75,
                    "time": 11.25,
                    "velocity": 0.8661417322834646,
                    "duration": 0.11979166666666607
                },
                {
                    "name": "G#4",
                    "midi": 68,
                    "time": 11.25,
                    "velocity": 0.8661417322834646,
                    "duration": 0.24479166666666607
                },
                {
                    "name": "E3",
                    "midi": 52,
                    "time": 11.25,
                    "velocity": 0.8661417322834646,
                    "duration": 0.24479166666666607
                },
                {
                    "name": "E5",
                    "midi": 76,
                    "time": 11.375,
                    "velocity": 0.8661417322834646,
                    "duration": 0.11979166666666607
                },
                {
                    "name": "F#4",
                    "midi": 66,
                    "time": 11.5,
                    "velocity": 0.8661417322834646,
                    "duration": 0.4166666666666643
                },
                {
                    "name": "B2",
                    "midi": 47,
                    "time": 11.5,
                    "velocity": 0.8661417322834646,
                    "duration": 0.8749999999999982
                },
                {
                    "name": "E5",
                    "midi": 76,
                    "time": 11.5,
                    "velocity": 0.8661417322834646,
                    "duration": 0.041666666666666075
                },
                {
                    "name": "D#5",
                    "midi": 75,
                    "time": 11.541666666666666,
                    "velocity": 0.8661417322834646,
                    "duration": 0.041666666666666075
                },
                {
                    "name": "E5",
                    "midi": 76,
                    "time": 11.583333333333332,
                    "velocity": 0.8661417322834646,
                    "duration": 0.041666666666666075
                },
                {
                    "name": "B3",
                    "midi": 59,
                    "time": 11.624999999999998,
                    "velocity": 0.8661417322834646,
                    "duration": 0.11979166666666607
                },
                {
                    "name": "D#5",
                    "midi": 75,
                    "time": 11.624999999999998,
                    "velocity": 0.8661417322834646,
                    "duration": 0.3697916666666661
                },
                {
                    "name": "A3",
                    "midi": 57,
                    "time": 11.749999999999998,
                    "velocity": 0.8661417322834646,
                    "duration": 0.11979166666666607
                },
                {
                    "name": "F#3",
                    "midi": 54,
                    "time": 11.874999999999998,
                    "velocity": 0.8661417322834646,
                    "duration": 0.11979166666666607
                },
                {
                    "name": "G3",
                    "midi": 55,
                    "time": 11.999999999999998,
                    "velocity": 0.8661417322834646,
                    "duration": 0.24479166666666607
                },
                {
                    "name": "B5",
                    "midi": 83,
                    "time": 12.124999999999998,
                    "velocity": 0.8661417322834646,
                    "duration": 0.11979166666666607
                },
                {
                    "name": "E4",
                    "midi": 64,
                    "time": 12.124999999999998,
                    "velocity": 0.8661417322834646,
                    "duration": 0.24479166666666607
                },
                {
                    "name": "A5",
                    "midi": 81,
                    "time": 12.249999999999998,
                    "velocity": 0.8661417322834646,
                    "duration": 0.11979166666666607
                },
                {
                    "name": "F#3",
                    "midi": 54,
                    "time": 12.249999999999998,
                    "velocity": 0.8661417322834646,
                    "duration": 0.24479166666666607
                },
                {
                    "name": "F#5",
                    "midi": 78,
                    "time": 12.374999999999998,
                    "velocity": 0.8661417322834646,
                    "duration": 0.11979166666666607
                },
                {
                    "name": "D#4",
                    "midi": 63,
                    "time": 12.374999999999998,
                    "velocity": 0.8661417322834646,
                    "duration": 0.11979166666666607
                },
                {
                    "name": "G5",
                    "midi": 79,
                    "time": 12.499999999999998,
                    "velocity": 0.8661417322834646,
                    "duration": 0.24479166666666607
                },
                {
                    "name": "E3",
                    "midi": 52,
                    "time": 12.499999999999998,
                    "velocity": 0.8661417322834646,
                    "duration": 0.11979166666666607
                },
                {
                    "name": "E4",
                    "midi": 64,
                    "time": 12.624999999999998,
                    "velocity": 0.8661417322834646,
                    "duration": 0.11979166666666607
                },
                {
                    "name": "F#5",
                    "midi": 78,
                    "time": 12.749999999999998,
                    "velocity": 0.8661417322834646,
                    "duration": 0.24479166666666607
                },
                {
                    "name": "D4",
                    "midi": 62,
                    "time": 12.749999999999998,
                    "velocity": 0.8661417322834646,
                    "duration": 0.11979166666666607
                },
                {
                    "name": "B4",
                    "midi": 71,
                    "time": 12.874999999999998,
                    "velocity": 0.8661417322834646,
                    "duration": 0.24479166666666607
                },
                {
                    "name": "E5",
                    "midi": 76,
                    "time": 12.999999999999998,
                    "velocity": 0.8661417322834646,
                    "duration": 0.3697916666666661
                },
                {
                    "name": "C4",
                    "midi": 60,
                    "time": 12.999999999999998,
                    "velocity": 0.8661417322834646,
                    "duration": 0.3697916666666661
                },
                {
                    "name": "B4",
                    "midi": 71,
                    "time": 13.124999999999998,
                    "velocity": 0.8661417322834646,
                    "duration": 0.11979166666666607
                },
                {
                    "name": "A4",
                    "midi": 69,
                    "time": 13.249999999999998,
                    "velocity": 0.8661417322834646,
                    "duration": 0.4947916666666661
                },
                {
                    "name": "F#5",
                    "midi": 78,
                    "time": 13.374999999999998,
                    "velocity": 0.8661417322834646,
                    "duration": 0.11979166666666607
                },
                {
                    "name": "C4",
                    "midi": 60,
                    "time": 13.374999999999998,
                    "velocity": 0.8661417322834646,
                    "duration": 0.11979166666666607
                },
                {
                    "name": "B3",
                    "midi": 59,
                    "time": 13.499999999999998,
                    "velocity": 0.8661417322834646,
                    "duration": 1.244791666666666
                },
                {
                    "name": "E5",
                    "midi": 76,
                    "time": 13.499999999999998,
                    "velocity": 0.8661417322834646,
                    "duration": 0.11979166666666607
                },
                {
                    "name": "D#5",
                    "midi": 75,
                    "time": 13.624999999999998,
                    "velocity": 0.8661417322834646,
                    "duration": 0.11979166666666607
                },
                {
                    "name": "C#5",
                    "midi": 73,
                    "time": 13.749999999999998,
                    "velocity": 0.8661417322834646,
                    "duration": 0.11979166666666607
                },
                {
                    "name": "A4",
                    "midi": 69,
                    "time": 13.749999999999998,
                    "velocity": 0.8661417322834646,
                    "duration": 0.3697916666666661
                },
                {
                    "name": "B4",
                    "midi": 71,
                    "time": 13.874999999999998,
                    "velocity": 0.8661417322834646,
                    "duration": 0.11979166666666607
                },
                {
                    "name": "E5",
                    "midi": 76,
                    "time": 13.999999999999998,
                    "velocity": 0.8661417322834646,
                    "duration": 0.6197916666666661
                },
                {
                    "name": "G#4",
                    "midi": 68,
                    "time": 14.124999999999998,
                    "velocity": 0.8661417322834646,
                    "duration": 0.11979166666666607
                },
                {
                    "name": "F#4",
                    "midi": 66,
                    "time": 14.249999999999998,
                    "velocity": 0.8661417322834646,
                    "duration": 0.11979166666666607
                },
                {
                    "name": "E4",
                    "midi": 64,
                    "time": 14.374999999999998,
                    "velocity": 0.8661417322834646,
                    "duration": 0.11979166666666607
                },
                {
                    "name": "F#4",
                    "midi": 66,
                    "time": 14.499999999999998,
                    "velocity": 0.8661417322834646,
                    "duration": 0.8697916666666643
                },
                {
                    "name": "E5",
                    "midi": 76,
                    "time": 14.624999999999998,
                    "velocity": 0.8661417322834646,
                    "duration": 0.11979166666666607
                },
                {
                    "name": "B3",
                    "midi": 59,
                    "time": 14.749999999999998,
                    "velocity": 0.8661417322834646,
                    "duration": 0.2447916666666643
                },
                {
                    "name": "E5",
                    "midi": 76,
                    "time": 14.749999999999998,
                    "velocity": 0.8661417322834646,
                    "duration": 0.041666666666666075
                },
                {
                    "name": "D#5",
                    "midi": 75,
                    "time": 14.791666666666664,
                    "velocity": 0.8661417322834646,
                    "duration": 0.041666666666666075
                },
                {
                    "name": "E5",
                    "midi": 76,
                    "time": 14.83333333333333,
                    "velocity": 0.8661417322834646,
                    "duration": 0.041666666666666075
                },
                {
                    "name": "D#5",
                    "midi": 75,
                    "time": 14.874999999999996,
                    "velocity": 0.8661417322834646,
                    "duration": 0.057291666666666075
                },
                {
                    "name": "C#5",
                    "midi": 73,
                    "time": 14.937499999999996,
                    "velocity": 0.8661417322834646,
                    "duration": 0.057291666666666075
                },
                {
                    "name": "D#5",
                    "midi": 75,
                    "time": 14.999999999999996,
                    "velocity": 0.8661417322834646,
                    "duration": 0.6197916666666661
                },
                {
                    "name": "C4",
                    "midi": 60,
                    "time": 14.999999999999996,
                    "velocity": 0.8661417322834646,
                    "duration": 0.4166666666666661
                },
                {
                    "name": "A4",
                    "midi": 69,
                    "time": 15.124999999999996,
                    "velocity": 0.8661417322834646,
                    "duration": 0.11979166666666607
                },
                {
                    "name": "G#4",
                    "midi": 68,
                    "time": 15.249999999999996,
                    "velocity": 0.8661417322834646,
                    "duration": 0.24479166666666607
                },
                {
                    "name": "F#4",
                    "midi": 66,
                    "time": 15.374999999999996,
                    "velocity": 0.8661417322834646,
                    "duration": 0.11979166666666607
                },
                {
                    "name": "E4",
                    "midi": 64,
                    "time": 15.499999999999996,
                    "velocity": 0.8661417322834646,
                    "duration": 0.3697916666666661
                },
                {
                    "name": "C#4",
                    "midi": 61,
                    "time": 15.499999999999996,
                    "velocity": 0.8661417322834646,
                    "duration": 0.4166666666666661
                },
                {
                    "name": "G#4",
                    "midi": 68,
                    "time": 15.624999999999996,
                    "velocity": 0.8661417322834646,
                    "duration": 0.11979166666666607
                },
                {
                    "name": "C#5",
                    "midi": 73,
                    "time": 15.749999999999996,
                    "velocity": 0.8661417322834646,
                    "duration": 0.36979166666666785
                },
                {
                    "name": "E4",
                    "midi": 64,
                    "time": 15.874999999999996,
                    "velocity": 0.8661417322834646,
                    "duration": 0.11979166666666607
                },
                {
                    "name": "D#4",
                    "midi": 63,
                    "time": 15.999999999999996,
                    "velocity": 0.8661417322834646,
                    "duration": 0.36979166666666785
                },
                {
                    "name": "G#3",
                    "midi": 56,
                    "time": 15.999999999999996,
                    "velocity": 0.8661417322834646,
                    "duration": 0.36979166666666785
                },
                {
                    "name": "D#5",
                    "midi": 75,
                    "time": 16.124999999999996,
                    "velocity": 0.8661417322834646,
                    "duration": 0.11979166666666785
                },
                {
                    "name": "B4",
                    "midi": 71,
                    "time": 16.249999999999996,
                    "velocity": 0.8661417322834646,
                    "duration": 0.36979166666666785
                },
                {
                    "name": "G#4",
                    "midi": 68,
                    "time": 16.374999999999996,
                    "velocity": 0.8661417322834646,
                    "duration": 0.11979166666666785
                },
                {
                    "name": "F#3",
                    "midi": 54,
                    "time": 16.374999999999996,
                    "velocity": 0.8661417322834646,
                    "duration": 0.11979166666666785
                },
                {
                    "name": "C#4",
                    "midi": 61,
                    "time": 16.499999999999996,
                    "velocity": 0.8661417322834646,
                    "duration": 0.36979166666666785
                },
                {
                    "name": "E3",
                    "midi": 52,
                    "time": 16.499999999999996,
                    "velocity": 0.8661417322834646,
                    "duration": 0.24479166666666785
                },
                {
                    "name": "C#5",
                    "midi": 73,
                    "time": 16.624999999999996,
                    "velocity": 0.8661417322834646,
                    "duration": 0.11979166666666785
                },
                {
                    "name": "A4",
                    "midi": 69,
                    "time": 16.749999999999996,
                    "velocity": 0.8661417322834646,
                    "duration": 0.36979166666666785
                },
                {
                    "name": "F#3",
                    "midi": 54,
                    "time": 16.749999999999996,
                    "velocity": 0.8661417322834646,
                    "duration": 0.24479166666666785
                },
                {
                    "name": "F#4",
                    "midi": 66,
                    "time": 16.874999999999996,
                    "velocity": 0.8661417322834646,
                    "duration": 0.11979166666666785
                },
                {
                    "name": "B3",
                    "midi": 59,
                    "time": 16.999999999999996,
                    "velocity": 0.8661417322834646,
                    "duration": 0.36979166666666785
                },
                {
                    "name": "D#3",
                    "midi": 51,
                    "time": 16.999999999999996,
                    "velocity": 0.8661417322834646,
                    "duration": 0.24479166666666785
                },
                {
                    "name": "B4",
                    "midi": 71,
                    "time": 17.124999999999996,
                    "velocity": 0.8661417322834646,
                    "duration": 0.11979166666666785
                },
                {
                    "name": "G#4",
                    "midi": 68,
                    "time": 17.249999999999996,
                    "velocity": 0.8661417322834646,
                    "duration": 0.24479166666666785
                },
                {
                    "name": "E3",
                    "midi": 52,
                    "time": 17.249999999999996,
                    "velocity": 0.8661417322834646,
                    "duration": 0.24479166666666785
                },
                {
                    "name": "E4",
                    "midi": 64,
                    "time": 17.374999999999996,
                    "velocity": 0.8661417322834646,
                    "duration": 0.11979166666666785
                },
                {
                    "name": "C#4",
                    "midi": 61,
                    "time": 17.499999999999996,
                    "velocity": 0.8661417322834646,
                    "duration": 0.11979166666666785
                },
                {
                    "name": "A2",
                    "midi": 45,
                    "time": 17.499999999999996,
                    "velocity": 0.8661417322834646,
                    "duration": 0.41666666666666785
                },
                {
                    "name": "F#4",
                    "midi": 66,
                    "time": 17.624999999999996,
                    "velocity": 0.8661417322834646,
                    "duration": 0.11979166666666785
                },
                {
                    "name": "G#4",
                    "midi": 68,
                    "time": 17.749999999999996,
                    "velocity": 0.8661417322834646,
                    "duration": 0.11979166666666785
                },
                {
                    "name": "F#3",
                    "midi": 54,
                    "time": 17.749999999999996,
                    "velocity": 0.8661417322834646,
                    "duration": 0.24479166666666785
                },
                {
                    "name": "A4",
                    "midi": 69,
                    "time": 17.874999999999996,
                    "velocity": 0.8661417322834646,
                    "duration": 0.11979166666666785
                },
                {
                    "name": "D#4",
                    "midi": 63,
                    "time": 17.999999999999996,
                    "velocity": 0.8661417322834646,
                    "duration": 0.11979166666666785
                },
                {
                    "name": "B2",
                    "midi": 47,
                    "time": 17.999999999999996,
                    "velocity": 0.8661417322834646,
                    "duration": 0.41666666666666785
                },
                {
                    "name": "G#4",
                    "midi": 68,
                    "time": 18.124999999999996,
                    "velocity": 0.8661417322834646,
                    "duration": 0.11979166666666785
                },
                {
                    "name": "A4",
                    "midi": 69,
                    "time": 18.249999999999996,
                    "velocity": 0.8661417322834646,
                    "duration": 0.11979166666666785
                },
                {
                    "name": "G#3",
                    "midi": 56,
                    "time": 18.249999999999996,
                    "velocity": 0.8661417322834646,
                    "duration": 0.24479166666666785
                },
                {
                    "name": "B4",
                    "midi": 71,
                    "time": 18.374999999999996,
                    "velocity": 0.8661417322834646,
                    "duration": 0.11979166666666785
                },
                {
                    "name": "E4",
                    "midi": 64,
                    "time": 18.499999999999996,
                    "velocity": 0.8661417322834646,
                    "duration": 0.11979166666666785
                },
                {
                    "name": "C#3",
                    "midi": 49,
                    "time": 18.499999999999996,
                    "velocity": 0.8661417322834646,
                    "duration": 0.41666666666666785
                },
                {
                    "name": "C#5",
                    "midi": 73,
                    "time": 18.624999999999996,
                    "velocity": 0.8661417322834646,
                    "duration": 0.11979166666666785
                },
                {
                    "name": "D#5",
                    "midi": 75,
                    "time": 18.749999999999996,
                    "velocity": 0.8661417322834646,
                    "duration": 0.11979166666666785
                },
                {
                    "name": "A3",
                    "midi": 57,
                    "time": 18.749999999999996,
                    "velocity": 0.8661417322834646,
                    "duration": 0.24479166666666785
                },
                {
                    "name": "E5",
                    "midi": 76,
                    "time": 18.874999999999996,
                    "velocity": 0.8661417322834646,
                    "duration": 0.11979166666666785
                },
                {
                    "name": "F#4",
                    "midi": 66,
                    "time": 18.999999999999996,
                    "velocity": 0.8661417322834646,
                    "duration": 0.11979166666666785
                },
                {
                    "name": "D#3",
                    "midi": 51,
                    "time": 18.999999999999996,
                    "velocity": 0.8661417322834646,
                    "duration": 0.41666666666666785
                },
                {
                    "name": "E5",
                    "midi": 76,
                    "time": 19.124999999999996,
                    "velocity": 0.8661417322834646,
                    "duration": 0.11979166666666785
                },
                {
                    "name": "C#5",
                    "midi": 73,
                    "time": 19.124999999999996,
                    "velocity": 0.8661417322834646,
                    "duration": 0.11979166666666785
                },
                {
                    "name": "D#5",
                    "midi": 75,
                    "time": 19.249999999999996,
                    "velocity": 0.8661417322834646,
                    "duration": 0.11979166666666785
                },
                {
                    "name": "B4",
                    "midi": 71,
                    "time": 19.249999999999996,
                    "velocity": 0.8661417322834646,
                    "duration": 0.11979166666666785
                },
                {
                    "name": "B3",
                    "midi": 59,
                    "time": 19.249999999999996,
                    "velocity": 0.8661417322834646,
                    "duration": 0.24479166666666785
                },
                {
                    "name": "C#5",
                    "midi": 73,
                    "time": 19.374999999999996,
                    "velocity": 0.8661417322834646,
                    "duration": 0.11979166666666785
                },
                {
                    "name": "A4",
                    "midi": 69,
                    "time": 19.374999999999996,
                    "velocity": 0.8661417322834646,
                    "duration": 0.11979166666666785
                },
                {
                    "name": "B4",
                    "midi": 71,
                    "time": 19.499999999999996,
                    "velocity": 0.8661417322834646,
                    "duration": 0.24479166666666785
                },
                {
                    "name": "G#4",
                    "midi": 68,
                    "time": 19.499999999999996,
                    "velocity": 0.8661417322834646,
                    "duration": 0.24479166666666785
                },
                {
                    "name": "E3",
                    "midi": 52,
                    "time": 19.499999999999996,
                    "velocity": 0.8661417322834646,
                    "duration": 0.24479166666666785
                },
                {
                    "name": "A4",
                    "midi": 69,
                    "time": 19.749999999999996,
                    "velocity": 0.8661417322834646,
                    "duration": 0.11979166666666785
                },
                {
                    "name": "F#4",
                    "midi": 66,
                    "time": 19.749999999999996,
                    "velocity": 0.8661417322834646,
                    "duration": 0.11979166666666785
                },
                {
                    "name": "A2",
                    "midi": 45,
                    "time": 19.749999999999996,
                    "velocity": 0.8661417322834646,
                    "duration": 0.24479166666666785
                },
                {
                    "name": "G#4",
                    "midi": 68,
                    "time": 19.874999999999996,
                    "velocity": 0.8661417322834646,
                    "duration": 0.11979166666666785
                },
                {
                    "name": "E4",
                    "midi": 64,
                    "time": 19.874999999999996,
                    "velocity": 0.8661417322834646,
                    "duration": 0.11979166666666785
                },
                {
                    "name": "G#4",
                    "midi": 68,
                    "time": 19.999999999999996,
                    "velocity": 0.8661417322834646,
                    "duration": 0.24479166666666785
                },
                {
                    "name": "E4",
                    "midi": 64,
                    "time": 19.999999999999996,
                    "velocity": 0.8661417322834646,
                    "duration": 0.24479166666666785
                },
                {
                    "name": "B2",
                    "midi": 47,
                    "time": 19.999999999999996,
                    "velocity": 0.8661417322834646,
                    "duration": 0.24479166666666785
                },
                {
                    "name": "D#4",
                    "midi": 63,
                    "time": 20.249999999999996,
                    "velocity": 0.8661417322834646,
                    "duration": 0.24479166666666785
                },
                {
                    "name": "B1",
                    "midi": 35,
                    "time": 20.249999999999996,
                    "velocity": 0.8661417322834646,
                    "duration": 0.24479166666666785
                },
                {
                    "name": "G#4",
                    "midi": 68,
                    "time": 20.249999999999996,
                    "velocity": 0.8661417322834646,
                    "duration": 0.03125
                },
                {
                    "name": "F#4",
                    "midi": 66,
                    "time": 20.281249999999996,
                    "velocity": 0.8661417322834646,
                    "duration": 0.03125
                },
                {
                    "name": "G#4",
                    "midi": 68,
                    "time": 20.312499999999996,
                    "velocity": 0.8661417322834646,
                    "duration": 0.03125
                },
                {
                    "name": "F#4",
                    "midi": 66,
                    "time": 20.343749999999996,
                    "velocity": 0.8661417322834646,
                    "duration": 0.02604166666666785
                },
                {
                    "name": "E4",
                    "midi": 64,
                    "time": 20.374999999999996,
                    "velocity": 0.8661417322834646,
                    "duration": 0.11979166666666785
                },
                {
                    "name": "E4",
                    "midi": 64,
                    "time": 20.499999999999996,
                    "velocity": 0.8661417322834646,
                    "duration": 0.41666666666666785
                },
                {
                    "name": "E2",
                    "midi": 40,
                    "time": 20.499999999999996,
                    "velocity": 0.8661417322834646,
                    "duration": 0.875
                },
                {
                    "name": "A3",
                    "midi": 57,
                    "time": 20.624999999999996,
                    "velocity": 0.8661417322834646,
                    "duration": 0.11979166666666785
                },
                {
                    "name": "B3",
                    "midi": 59,
                    "time": 20.749999999999996,
                    "velocity": 0.8661417322834646,
                    "duration": 0.11979166666666785
                },
                {
                    "name": "E3",
                    "midi": 52,
                    "time": 20.749999999999996,
                    "velocity": 0.8661417322834646,
                    "duration": 0.24479166666666785
                },
                {
                    "name": "G#3",
                    "midi": 56,
                    "time": 20.874999999999996,
                    "velocity": 0.8661417322834646,
                    "duration": 0.11979166666666785
                },
                {
                    "name": "A3",
                    "midi": 57,
                    "time": 20.999999999999996,
                    "velocity": 0.8661417322834646,
                    "duration": 0.41666666666666785
                },
                {
                    "name": "F#3",
                    "midi": 54,
                    "time": 20.999999999999996,
                    "velocity": 0.8661417322834646,
                    "duration": 0.41666666666666785
                },
                {
                    "name": "C#4",
                    "midi": 61,
                    "time": 21.124999999999996,
                    "velocity": 0.8661417322834646,
                    "duration": 0.11979166666666785
                },
                {
                    "name": "A4",
                    "midi": 69,
                    "time": 21.249999999999996,
                    "velocity": 0.8661417322834646,
                    "duration": 0.11979166666666785
                },
                {
                    "name": "D#4",
                    "midi": 63,
                    "time": 21.374999999999996,
                    "velocity": 0.8661417322834646,
                    "duration": 0.11979166666666785
                },
                {
                    "name": "E4",
                    "midi": 64,
                    "time": 21.499999999999996,
                    "velocity": 0.8661417322834646,
                    "duration": 0.41666666666666785
                },
                {
                    "name": "B3",
                    "midi": 59,
                    "time": 21.499999999999996,
                    "velocity": 0.8661417322834646,
                    "duration": 0.41666666666666785
                },
                {
                    "name": "G#3",
                    "midi": 56,
                    "time": 21.499999999999996,
                    "velocity": 0.8661417322834646,
                    "duration": 0.41666666666666785
                },
                {
                    "name": "E3",
                    "midi": 52,
                    "time": 21.499999999999996,
                    "velocity": 0.8661417322834646,
                    "duration": 0.41666666666666785
                },
                {
                    "name": "E2",
                    "midi": 40,
                    "time": 21.499999999999996,
                    "velocity": 0.8661417322834646,
                    "duration": 0.41666666666666785
                },
                {
                    "name": "A3",
                    "midi": 57,
                    "time": 22.124999999999996,
                    "velocity": 0.8661417322834646,
                    "duration": 0.11979166666666785
                },
                {
                    "name": "A3",
                    "midi": 57,
                    "time": 22.249999999999996,
                    "velocity": 0.8661417322834646,
                    "duration": 0.03125
                },
                {
                    "name": "G#3",
                    "midi": 56,
                    "time": 22.281249999999996,
                    "velocity": 0.8661417322834646,
                    "duration": 0.03125
                },
                {
                    "name": "A3",
                    "midi": 57,
                    "time": 22.312499999999996,
                    "velocity": 0.8661417322834646,
                    "duration": 0.03125
                },
                {
                    "name": "G#3",
                    "midi": 56,
                    "time": 22.343749999999996,
                    "velocity": 0.8661417322834646,
                    "duration": 0.08854166666666785
                },
                {
                    "name": "F#3",
                    "midi": 54,
                    "time": 22.437499999999996,
                    "velocity": 0.8661417322834646,
                    "duration": 0.05729166666666785
                },
                {
                    "name": "E3",
                    "midi": 52,
                    "time": 22.499999999999996,
                    "velocity": 0.8661417322834646,
                    "duration": 0.24479166666666785
                },
                {
                    "name": "E4",
                    "midi": 64,
                    "time": 22.624999999999996,
                    "velocity": 0.8661417322834646,
                    "duration": 0.11979166666666785
                },
                {
                    "name": "D3",
                    "midi": 50,
                    "time": 22.749999999999996,
                    "velocity": 0.8661417322834646,
                    "duration": 0.24479166666666785
                },
                {
                    "name": "F#4",
                    "midi": 66,
                    "time": 22.749999999999996,
                    "velocity": 0.8661417322834646,
                    "duration": 0.04166666666666785
                },
                {
                    "name": "E4",
                    "midi": 64,
                    "time": 22.791666666666664,
                    "velocity": 0.8661417322834646,
                    "duration": 0.04166666666666785
                },
                {
                    "name": "F#4",
                    "midi": 66,
                    "time": 22.833333333333332,
                    "velocity": 0.8661417322834646,
                    "duration": 0.09895833333333215
                },
                {
                    "name": "G#4",
                    "midi": 68,
                    "time": 22.937499999999996,
                    "velocity": 0.8661417322834646,
                    "duration": 0.05729166666666785
                },
                {
                    "name": "A4",
                    "midi": 69,
                    "time": 22.999999999999996,
                    "velocity": 0.8661417322834646,
                    "duration": 0.24479166666666785
                },
                {
                    "name": "C#3",
                    "midi": 49,
                    "time": 22.999999999999996,
                    "velocity": 0.8661417322834646,
                    "duration": 0.24479166666666785
                },
                {
                    "name": "E3",
                    "midi": 52,
                    "time": 23.124999999999996,
                    "velocity": 0.8661417322834646,
                    "duration": 0.11979166666666785
                },
                {
                    "name": "D5",
                    "midi": 74,
                    "time": 23.249999999999996,
                    "velocity": 0.8661417322834646,
                    "duration": 0.24479166666666785
                },
                {
                    "name": "F#3",
                    "midi": 54,
                    "time": 23.249999999999996,
                    "velocity": 0.8661417322834646,
                    "duration": 0.11979166666666785
                },
                {
                    "name": "B2",
                    "midi": 47,
                    "time": 23.249999999999996,
                    "velocity": 0.8661417322834646,
                    "duration": 0.24479166666666785
                },
                {
                    "name": "G#3",
                    "midi": 56,
                    "time": 23.374999999999996,
                    "velocity": 0.8661417322834646,
                    "duration": 0.11979166666666785
                },
                {
                    "name": "C#5",
                    "midi": 73,
                    "time": 23.499999999999996,
                    "velocity": 0.8661417322834646,
                    "duration": 0.41666666666666785
                },
                {
                    "name": "A3",
                    "midi": 57,
                    "time": 23.499999999999996,
                    "velocity": 0.8661417322834646,
                    "duration": 0.24479166666666785
                },
                {
                    "name": "A2",
                    "midi": 45,
                    "time": 23.499999999999996,
                    "velocity": 0.8661417322834646,
                    "duration": 0.41666666666666785
                },
                {
                    "name": "A5",
                    "midi": 81,
                    "time": 23.624999999999996,
                    "velocity": 0.8661417322834646,
                    "duration": 0.11979166666666785
                },
                {
                    "name": "B3",
                    "midi": 59,
                    "time": 23.749999999999996,
                    "velocity": 0.8661417322834646,
                    "duration": 0.24479166666666785
                },
                {
                    "name": "A5",
                    "midi": 81,
                    "time": 23.749999999999996,
                    "velocity": 0.8661417322834646,
                    "duration": 0.03125
                },
                {
                    "name": "G#5",
                    "midi": 80,
                    "time": 23.781249999999996,
                    "velocity": 0.8661417322834646,
                    "duration": 0.03125
                },
                {
                    "name": "A5",
                    "midi": 81,
                    "time": 23.812499999999996,
                    "velocity": 0.8661417322834646,
                    "duration": 0.03125
                },
                {
                    "name": "G#5",
                    "midi": 80,
                    "time": 23.843749999999996,
                    "velocity": 0.8661417322834646,
                    "duration": 0.02604166666666785
                },
                {
                    "name": "F#5",
                    "midi": 78,
                    "time": 23.874999999999996,
                    "velocity": 0.8661417322834646,
                    "duration": 0.11979166666666785
                },
                {
                    "name": "E5",
                    "midi": 76,
                    "time": 23.999999999999996,
                    "velocity": 0.8661417322834646,
                    "duration": 0.24479166666666785
                },
                {
                    "name": "E4",
                    "midi": 64,
                    "time": 24.124999999999996,
                    "velocity": 0.8661417322834646,
                    "duration": 0.11979166666666785
                },
                {
                    "name": "C#4",
                    "midi": 61,
                    "time": 24.124999999999996,
                    "velocity": 0.8661417322834646,
                    "duration": 0.11979166666666785
                },
                {
                    "name": "D5",
                    "midi": 74,
                    "time": 24.249999999999996,
                    "velocity": 0.8661417322834646,
                    "duration": 0.24479166666666785
                },
                {
                    "name": "F#4",
                    "midi": 66,
                    "time": 24.249999999999996,
                    "velocity": 0.8661417322834646,
                    "duration": 0.11979166666666785
                },
                {
                    "name": "D4",
                    "midi": 62,
                    "time": 24.249999999999996,
                    "velocity": 0.8661417322834646,
                    "duration": 0.11979166666666785
                },
                {
                    "name": "G#4",
                    "midi": 68,
                    "time": 24.374999999999996,
                    "velocity": 0.8661417322834646,
                    "duration": 0.11979166666666785
                },
                {
                    "name": "E4",
                    "midi": 64,
                    "time": 24.374999999999996,
                    "velocity": 0.8661417322834646,
                    "duration": 0.11979166666666785
                },
                {
                    "name": "C#5",
                    "midi": 73,
                    "time": 24.499999999999996,
                    "velocity": 0.8661417322834646,
                    "duration": 0.24479166666666785
                },
                {
                    "name": "A3",
                    "midi": 57,
                    "time": 24.499999999999996,
                    "velocity": 0.8661417322834646,
                    "duration": 0.24479166666666785
                },
                {
                    "name": "E4",
                    "midi": 64,
                    "time": 24.624999999999996,
                    "velocity": 0.8661417322834646,
                    "duration": 0.24479166666666785
                },
                {
                    "name": "C#5",
                    "midi": 73,
                    "time": 24.749999999999996,
                    "velocity": 0.8661417322834646,
                    "duration": 0.11979166666666785
                },
                {
                    "name": "G#3",
                    "midi": 56,
                    "time": 24.749999999999996,
                    "velocity": 0.8661417322834646,
                    "duration": 0.24479166666666785
                },
                {
                    "name": "B4",
                    "midi": 71,
                    "time": 24.874999999999996,
                    "velocity": 0.8661417322834646,
                    "duration": 0.11979166666666785
                },
                {
                    "name": "E4",
                    "midi": 64,
                    "time": 24.874999999999996,
                    "velocity": 0.8661417322834646,
                    "duration": 0.24479166666666785
                },
                {
                    "name": "F#3",
                    "midi": 54,
                    "time": 24.999999999999996,
                    "velocity": 0.8661417322834646,
                    "duration": 0.3697916666666714
                },
                {
                    "name": "B4",
                    "midi": 71,
                    "time": 24.999999999999996,
                    "velocity": 0.8661417322834646,
                    "duration": 0.11979166666666785
                },
                {
                    "name": "E4",
                    "midi": 64,
                    "time": 25.124999999999996,
                    "velocity": 0.8661417322834646,
                    "duration": 0.2447916666666714
                },
                {
                    "name": "B4",
                    "midi": 71,
                    "time": 25.124999999999996,
                    "velocity": 0.8661417322834646,
                    "duration": 0.04166666666666785
                },
                {
                    "name": "A4",
                    "midi": 69,
                    "time": 25.166666666666664,
                    "velocity": 0.8661417322834646,
                    "duration": 0.04166666666666785
                },
                {
                    "name": "B4",
                    "midi": 71,
                    "time": 25.208333333333332,
                    "velocity": 0.8661417322834646,
                    "duration": 0.04166666666666785
                },
                {
                    "name": "A4",
                    "midi": 69,
                    "time": 25.25,
                    "velocity": 0.8661417322834646,
                    "duration": 0.11979166666666785
                },
                {
                    "name": "B4",
                    "midi": 71,
                    "time": 25.375,
                    "velocity": 0.8661417322834646,
                    "duration": 0.11979166666666785
                },
                {
                    "name": "D#4",
                    "midi": 63,
                    "time": 25.375,
                    "velocity": 0.8661417322834646,
                    "duration": 0.11979166666666785
                },
                {
                    "name": "F#3",
                    "midi": 54,
                    "time": 25.375,
                    "velocity": 0.8661417322834646,
                    "duration": 0.11979166666666785
                },
                {
                    "name": "E3",
                    "midi": 52,
                    "time": 25.5,
                    "velocity": 0.8661417322834646,
                    "duration": 0.36979166666666785
                },
                {
                    "name": "A4",
                    "midi": 69,
                    "time": 25.5,
                    "velocity": 0.8661417322834646,
                    "duration": 0.18229166666666785
                },
                {
                    "name": "B3",
                    "midi": 59,
                    "time": 25.625,
                    "velocity": 0.8661417322834646,
                    "duration": 0.11979166666666785
                },
                {
                    "name": "G#4",
                    "midi": 68,
                    "time": 25.6875,
                    "velocity": 0.8661417322834646,
                    "duration": 0.05729166666666785
                },
                {
                    "name": "A4",
                    "midi": 69,
                    "time": 25.75,
                    "velocity": 0.8661417322834646,
                    "duration": 0.11979166666666785
                },
                {
                    "name": "C#4",
                    "midi": 61,
                    "time": 25.75,
                    "velocity": 0.8661417322834646,
                    "duration": 0.11979166666666785
                },
                {
                    "name": "B4",
                    "midi": 71,
                    "time": 25.875,
                    "velocity": 0.8661417322834646,
                    "duration": 0.11979166666666785
                },
                {
                    "name": "D4",
                    "midi": 62,
                    "time": 25.875,
                    "velocity": 0.8661417322834646,
                    "duration": 0.11979166666666785
                },
                {
                    "name": "D3",
                    "midi": 50,
                    "time": 25.875,
                    "velocity": 0.8661417322834646,
                    "duration": 0.11979166666666785
                },
                {
                    "name": "E4",
                    "midi": 64,
                    "time": 26,
                    "velocity": 0.8661417322834646,
                    "duration": 0.11979166666666785
                },
                {
                    "name": "C#3",
                    "midi": 49,
                    "time": 26,
                    "velocity": 0.8661417322834646,
                    "duration": 0.41666666666666785
                },
                {
                    "name": "A4",
                    "midi": 69,
                    "time": 26.125,
                    "velocity": 0.8661417322834646,
                    "duration": 0.11979166666666785
                },
                {
                    "name": "B4",
                    "midi": 71,
                    "time": 26.25,
                    "velocity": 0.8661417322834646,
                    "duration": 0.11979166666666785
                },
                {
                    "name": "E3",
                    "midi": 52,
                    "time": 26.25,
                    "velocity": 0.8661417322834646,
                    "duration": 0.24479166666666785
                },
                {
                    "name": "C#5",
                    "midi": 73,
                    "time": 26.375,
                    "velocity": 0.8661417322834646,
                    "duration": 0.11979166666666785
                },
                {
                    "name": "F#4",
                    "midi": 66,
                    "time": 26.5,
                    "velocity": 0.8661417322834646,
                    "duration": 0.11979166666666785
                },
                {
                    "name": "F#3",
                    "midi": 54,
                    "time": 26.5,
                    "velocity": 0.8661417322834646,
                    "duration": 0.24479166666666785
                },
                {
                    "name": "D3",
                    "midi": 50,
                    "time": 26.5,
                    "velocity": 0.8661417322834646,
                    "duration": 0.24479166666666785
                },
                {
                    "name": "D5",
                    "midi": 74,
                    "time": 26.625,
                    "velocity": 0.8661417322834646,
                    "duration": 0.11979166666666785
                },
                {
                    "name": "E5",
                    "midi": 76,
                    "time": 26.75,
                    "velocity": 0.8661417322834646,
                    "duration": 0.11979166666666785
                },
                {
                    "name": "E3",
                    "midi": 52,
                    "time": 26.75,
                    "velocity": 0.8661417322834646,
                    "duration": 0.24479166666666785
                },
                {
                    "name": "C#3",
                    "midi": 49,
                    "time": 26.75,
                    "velocity": 0.8661417322834646,
                    "duration": 0.24479166666666785
                },
                {
                    "name": "F#5",
                    "midi": 78,
                    "time": 26.875,
                    "velocity": 0.8661417322834646,
                    "duration": 0.11979166666666785
                },
                {
                    "name": "F#3",
                    "midi": 54,
                    "time": 27,
                    "velocity": 0.8661417322834646,
                    "duration": 0.24479166666666785
                },
                {
                    "name": "B2",
                    "midi": 47,
                    "time": 27,
                    "velocity": 0.8661417322834646,
                    "duration": 0.41666666666666785
                },
                {
                    "name": "E5",
                    "midi": 76,
                    "time": 27,
                    "velocity": 0.8661417322834646,
                    "duration": 0.0625
                },
                {
                    "name": "D5",
                    "midi": 74,
                    "time": 27.0625,
                    "velocity": 0.8661417322834646,
                    "duration": 0.03125
                },
                {
                    "name": "E5",
                    "midi": 76,
                    "time": 27.09375,
                    "velocity": 0.8661417322834646,
                    "duration": 0.03125
                },
                {
                    "name": "D5",
                    "midi": 74,
                    "time": 27.125,
                    "velocity": 0.8661417322834646,
                    "duration": 0.03125
                },
                {
                    "name": "E5",
                    "midi": 76,
                    "time": 27.15625,
                    "velocity": 0.8661417322834646,
                    "duration": 0.03125
                },
                {
                    "name": "D5",
                    "midi": 74,
                    "time": 27.1875,
                    "velocity": 0.8661417322834646,
                    "duration": 0.18229166666666785
                },
                {
                    "name": "G#3",
                    "midi": 56,
                    "time": 27.25,
                    "velocity": 0.8661417322834646,
                    "duration": 0.24479166666666785
                },
                {
                    "name": "C#5",
                    "midi": 73,
                    "time": 27.375,
                    "velocity": 0.8661417322834646,
                    "duration": 0.11979166666666785
                },
                {
                    "name": "C#5",
                    "midi": 73,
                    "time": 27.5,
                    "velocity": 0.8661417322834646,
                    "duration": 0.6666666666666714
                },
                {
                    "name": "F#3",
                    "midi": 54,
                    "time": 27.5,
                    "velocity": 0.8661417322834646,
                    "duration": 0.41666666666666785
                },
                {
                    "name": "A3",
                    "midi": 57,
                    "time": 27.5,
                    "velocity": 0.8661417322834646,
                    "duration": 0.41666666666666785
                },
                {
                    "name": "C#4",
                    "midi": 61,
                    "time": 27.625,
                    "velocity": 0.8661417322834646,
                    "duration": 0.11979166666666785
                },
                {
                    "name": "A2",
                    "midi": 45,
                    "time": 27.625,
                    "velocity": 0.8661417322834646,
                    "duration": 0.11979166666666785
                },
                {
                    "name": "D#4",
                    "midi": 63,
                    "time": 27.75,
                    "velocity": 0.8661417322834646,
                    "duration": 0.11979166666666785
                },
                {
                    "name": "B2",
                    "midi": 47,
                    "time": 27.75,
                    "velocity": 0.8661417322834646,
                    "duration": 0.11979166666666785
                },
                {
                    "name": "F4",
                    "midi": 65,
                    "time": 27.875,
                    "velocity": 0.8661417322834646,
                    "duration": 0.11979166666666785
                },
                {
                    "name": "C#3",
                    "midi": 49,
                    "time": 27.875,
                    "velocity": 0.8661417322834646,
                    "duration": 0.11979166666666785
                },
                {
                    "name": "D3",
                    "midi": 50,
                    "time": 28,
                    "velocity": 0.8661417322834646,
                    "duration": 0.04166666666666785
                },
                {
                    "name": "F#4",
                    "midi": 66,
                    "time": 28,
                    "velocity": 0.8661417322834646,
                    "duration": 0.04166666666666785
                },
                {
                    "name": "C#3",
                    "midi": 49,
                    "time": 28.041666666666668,
                    "velocity": 0.8661417322834646,
                    "duration": 0.04166666666666785
                },
                {
                    "name": "F4",
                    "midi": 65,
                    "time": 28.041666666666668,
                    "velocity": 0.8661417322834646,
                    "duration": 0.04166666666666785
                },
                {
                    "name": "D3",
                    "midi": 50,
                    "time": 28.083333333333336,
                    "velocity": 0.8661417322834646,
                    "duration": 0.04166666666666785
                },
                {
                    "name": "F#4",
                    "midi": 66,
                    "time": 28.083333333333336,
                    "velocity": 0.8661417322834646,
                    "duration": 0.04166666666666785
                },
                {
                    "name": "C#3",
                    "midi": 49,
                    "time": 28.125000000000004,
                    "velocity": 0.8661417322834646,
                    "duration": 0.04166666666666785
                },
                {
                    "name": "F4",
                    "midi": 65,
                    "time": 28.125000000000004,
                    "velocity": 0.8661417322834646,
                    "duration": 0.04166666666666785
                },
                {
                    "name": "D3",
                    "midi": 50,
                    "time": 28.16666666666667,
                    "velocity": 0.8661417322834646,
                    "duration": 0.203125
                },
                {
                    "name": "F#4",
                    "midi": 66,
                    "time": 28.16666666666667,
                    "velocity": 0.8661417322834646,
                    "duration": 0.203125
                },
                {
                    "name": "B4",
                    "midi": 71,
                    "time": 28.250000000000004,
                    "velocity": 0.8661417322834646,
                    "duration": 0.36979166666666785
                },
                {
                    "name": "G#4",
                    "midi": 68,
                    "time": 28.375000000000004,
                    "velocity": 0.8661417322834646,
                    "duration": 0.11979166666666785
                },
                {
                    "name": "B2",
                    "midi": 47,
                    "time": 28.375000000000004,
                    "velocity": 0.8661417322834646,
                    "duration": 0.11979166666666785
                },
                {
                    "name": "F4",
                    "midi": 65,
                    "time": 28.500000000000004,
                    "velocity": 0.8661417322834646,
                    "duration": 0.24479166666666785
                },
                {
                    "name": "C#3",
                    "midi": 49,
                    "time": 28.500000000000004,
                    "velocity": 0.8661417322834646,
                    "duration": 0.24479166666666785
                },
                {
                    "name": "C#5",
                    "midi": 73,
                    "time": 28.625000000000004,
                    "velocity": 0.8661417322834646,
                    "duration": 0.11979166666666785
                },
                {
                    "name": "A4",
                    "midi": 69,
                    "time": 28.750000000000004,
                    "velocity": 0.8661417322834646,
                    "duration": 0.11979166666666785
                },
                {
                    "name": "F#4",
                    "midi": 66,
                    "time": 28.750000000000004,
                    "velocity": 0.8661417322834646,
                    "duration": 0.4166666666666714
                },
                {
                    "name": "F#2",
                    "midi": 42,
                    "time": 28.750000000000004,
                    "velocity": 0.8661417322834646,
                    "duration": 0.24479166666666785
                },
                {
                    "name": "B4",
                    "midi": 71,
                    "time": 28.875000000000004,
                    "velocity": 0.8661417322834646,
                    "duration": 0.11979166666666785
                },
                {
                    "name": "C#3",
                    "midi": 49,
                    "time": 29.000000000000004,
                    "velocity": 0.8661417322834646,
                    "duration": 0.2447916666666714
                },
                {
                    "name": "A4",
                    "midi": 69,
                    "time": 29.000000000000004,
                    "velocity": 0.8661417322834646,
                    "duration": 0.04166666666666785
                },
                {
                    "name": "G#4",
                    "midi": 68,
                    "time": 29.04166666666667,
                    "velocity": 0.8661417322834646,
                    "duration": 0.04166666666666785
                },
                {
                    "name": "A4",
                    "midi": 69,
                    "time": 29.08333333333334,
                    "velocity": 0.8661417322834646,
                    "duration": 0.04166666666666785
                },
                {
                    "name": "G#4",
                    "midi": 68,
                    "time": 29.125000000000007,
                    "velocity": 0.8661417322834646,
                    "duration": 0.11979166666666785
                },
                {
                    "name": "A#4",
                    "midi": 70,
                    "time": 29.250000000000007,
                    "velocity": 0.8661417322834646,
                    "duration": 0.11979166666666785
                },
                {
                    "name": "F4",
                    "midi": 65,
                    "time": 29.250000000000007,
                    "velocity": 0.8661417322834646,
                    "duration": 0.24479166666666785
                },
                {
                    "name": "C#2",
                    "midi": 37,
                    "time": 29.250000000000007,
                    "velocity": 0.8661417322834646,
                    "duration": 0.24479166666666785
                },
                {
                    "name": "B4",
                    "midi": 71,
                    "time": 29.375000000000007,
                    "velocity": 0.8661417322834646,
                    "duration": 0.11979166666666785
                },
                {
                    "name": "A#4",
                    "midi": 70,
                    "time": 29.500000000000007,
                    "velocity": 0.8661417322834646,
                    "duration": 0.41666666666666785
                },
                {
                    "name": "F#3",
                    "midi": 54,
                    "time": 29.500000000000007,
                    "velocity": 0.8661417322834646,
                    "duration": 0.36979166666666785
                },
                {
                    "name": "F#2",
                    "midi": 42,
                    "time": 29.500000000000007,
                    "velocity": 0.8661417322834646,
                    "duration": 0.41666666666666785
                },
                {
                    "name": "F#4",
                    "midi": 66,
                    "time": 29.625000000000007,
                    "velocity": 0.8661417322834646,
                    "duration": 0.11979166666666785
                },
                {
                    "name": "E4",
                    "midi": 64,
                    "time": 29.750000000000007,
                    "velocity": 0.8661417322834646,
                    "duration": 0.11979166666666785
                },
                {
                    "name": "C#4",
                    "midi": 61,
                    "time": 29.875000000000007,
                    "velocity": 0.8661417322834646,
                    "duration": 0.11979166666666785
                },
                {
                    "name": "C#4",
                    "midi": 61,
                    "time": 29.875000000000007,
                    "velocity": 0.8661417322834646,
                    "duration": 0.11979166666666785
                },
                {
                    "name": "F#4",
                    "midi": 66,
                    "time": 30.000000000000007,
                    "velocity": 0.8661417322834646,
                    "duration": 0.24479166666666785
                },
                {
                    "name": "D4",
                    "midi": 62,
                    "time": 30.000000000000007,
                    "velocity": 0.8661417322834646,
                    "duration": 0.24479166666666785
                },
                {
                    "name": "F#5",
                    "midi": 78,
                    "time": 30.125000000000007,
                    "velocity": 0.8661417322834646,
                    "duration": 0.11979166666666785
                },
                {
                    "name": "E5",
                    "midi": 76,
                    "time": 30.250000000000007,
                    "velocity": 0.8661417322834646,
                    "duration": 0.11979166666666785
                },
                {
                    "name": "G#4",
                    "midi": 68,
                    "time": 30.250000000000007,
                    "velocity": 0.8661417322834646,
                    "duration": 0.24479166666666785
                },
                {
                    "name": "C#4",
                    "midi": 61,
                    "time": 30.250000000000007,
                    "velocity": 0.8661417322834646,
                    "duration": 0.24479166666666785
                },
                {
                    "name": "C#5",
                    "midi": 73,
                    "time": 30.375000000000007,
                    "velocity": 0.8661417322834646,
                    "duration": 0.11979166666666785
                },
                {
                    "name": "B4",
                    "midi": 71,
                    "time": 30.500000000000007,
                    "velocity": 0.8661417322834646,
                    "duration": 0.24479166666666785
                },
                {
                    "name": "B3",
                    "midi": 59,
                    "time": 30.500000000000007,
                    "velocity": 0.8661417322834646,
                    "duration": 0.41666666666666785
                },
                {
                    "name": "D5",
                    "midi": 74,
                    "time": 30.500000000000007,
                    "velocity": 0.8661417322834646,
                    "duration": 0.04166666666666785
                },
                {
                    "name": "C#5",
                    "midi": 73,
                    "time": 30.541666666666675,
                    "velocity": 0.8661417322834646,
                    "duration": 0.04166666666666785
                },
                {
                    "name": "D5",
                    "midi": 74,
                    "time": 30.583333333333343,
                    "velocity": 0.8661417322834646,
                    "duration": 0.16145833333333215
                },
                {
                    "name": "C#5",
                    "midi": 73,
                    "time": 30.750000000000007,
                    "velocity": 0.8661417322834646,
                    "duration": 0.11979166666666785
                },
                {
                    "name": "D4",
                    "midi": 62,
                    "time": 30.750000000000007,
                    "velocity": 0.8661417322834646,
                    "duration": 0.24479166666666785
                },
                {
                    "name": "B4",
                    "midi": 71,
                    "time": 30.875000000000007,
                    "velocity": 0.8661417322834646,
                    "duration": 0.11979166666666785
                },
                {
                    "name": "E4",
                    "midi": 64,
                    "time": 31.000000000000007,
                    "velocity": 0.8661417322834646,
                    "duration": 0.2447916666666714
                },
                {
                    "name": "C#4",
                    "midi": 61,
                    "time": 31.000000000000007,
                    "velocity": 0.8661417322834646,
                    "duration": 0.2447916666666714
                },
                {
                    "name": "B4",
                    "midi": 71,
                    "time": 31.000000000000007,
                    "velocity": 0.8661417322834646,
                    "duration": 0.04166666666666785
                },
                {
                    "name": "A4",
                    "midi": 69,
                    "time": 31.041666666666675,
                    "velocity": 0.8661417322834646,
                    "duration": 0.04166666666666785
                },
                {
                    "name": "B4",
                    "midi": 71,
                    "time": 31.083333333333343,
                    "velocity": 0.8661417322834646,
                    "duration": 0.04166666666666785
                },
                {
                    "name": "A4",
                    "midi": 69,
                    "time": 31.12500000000001,
                    "velocity": 0.8661417322834646,
                    "duration": 0.18229166666666785
                },
                {
                    "name": "F#4",
                    "midi": 66,
                    "time": 31.25000000000001,
                    "velocity": 0.8661417322834646,
                    "duration": 0.24479166666666785
                },
                {
                    "name": "D#4",
                    "midi": 63,
                    "time": 31.25000000000001,
                    "velocity": 0.8661417322834646,
                    "duration": 0.24479166666666785
                },
                {
                    "name": "G#4",
                    "midi": 68,
                    "time": 31.31250000000001,
                    "velocity": 0.8661417322834646,
                    "duration": 0.05729166666666785
                },
                {
                    "name": "A4",
                    "midi": 69,
                    "time": 31.37500000000001,
                    "velocity": 0.8661417322834646,
                    "duration": 0.05729166666666785
                },
                {
                    "name": "B4",
                    "midi": 71,
                    "time": 31.43750000000001,
                    "velocity": 0.8661417322834646,
                    "duration": 0.05729166666666785
                },
                {
                    "name": "G#4",
                    "midi": 68,
                    "time": 31.50000000000001,
                    "velocity": 0.8661417322834646,
                    "duration": 0.36979166666666785
                },
                {
                    "name": "E4",
                    "midi": 64,
                    "time": 31.50000000000001,
                    "velocity": 0.8661417322834646,
                    "duration": 0.41666666666666785
                },
                {
                    "name": "B3",
                    "midi": 59,
                    "time": 31.62500000000001,
                    "velocity": 0.8661417322834646,
                    "duration": 0.11979166666666785
                },
                {
                    "name": "E3",
                    "midi": 52,
                    "time": 31.75000000000001,
                    "velocity": 0.8661417322834646,
                    "duration": 0.11979166666666785
                },
                {
                    "name": "A4",
                    "midi": 69,
                    "time": 31.87500000000001,
                    "velocity": 0.8661417322834646,
                    "duration": 0.11979166666666785
                },
                {
                    "name": "F#3",
                    "midi": 54,
                    "time": 31.87500000000001,
                    "velocity": 0.8661417322834646,
                    "duration": 0.11979166666666785
                },
                {
                    "name": "B4",
                    "midi": 71,
                    "time": 32.000000000000014,
                    "velocity": 0.8661417322834646,
                    "duration": 0.1197916666666643
                },
                {
                    "name": "G#3",
                    "midi": 56,
                    "time": 32.000000000000014,
                    "velocity": 0.8661417322834646,
                    "duration": 0.4166666666666643
                },
                {
                    "name": "B4",
                    "midi": 71,
                    "time": 32.125000000000014,
                    "velocity": 0.8661417322834646,
                    "duration": 0.1197916666666643
                },
                {
                    "name": "C#5",
                    "midi": 73,
                    "time": 32.250000000000014,
                    "velocity": 0.8661417322834646,
                    "duration": 0.1197916666666643
                },
                {
                    "name": "E4",
                    "midi": 64,
                    "time": 32.250000000000014,
                    "velocity": 0.8661417322834646,
                    "duration": 0.2447916666666643
                },
                {
                    "name": "D5",
                    "midi": 74,
                    "time": 32.375000000000014,
                    "velocity": 0.8661417322834646,
                    "duration": 0.1197916666666643
                },
                {
                    "name": "C#5",
                    "midi": 73,
                    "time": 32.500000000000014,
                    "velocity": 0.8661417322834646,
                    "duration": 0.6197916666666643
                },
                {
                    "name": "A3",
                    "midi": 57,
                    "time": 32.500000000000014,
                    "velocity": 0.8661417322834646,
                    "duration": 0.2447916666666643
                },
                {
                    "name": "E4",
                    "midi": 64,
                    "time": 32.625000000000014,
                    "velocity": 0.8661417322834646,
                    "duration": 0.1197916666666643
                },
                {
                    "name": "F#4",
                    "midi": 66,
                    "time": 32.750000000000014,
                    "velocity": 0.8661417322834646,
                    "duration": 0.1197916666666643
                },
                {
                    "name": "G#3",
                    "midi": 56,
                    "time": 32.750000000000014,
                    "velocity": 0.8661417322834646,
                    "duration": 0.2447916666666643
                },
                {
                    "name": "G#4",
                    "midi": 68,
                    "time": 32.875000000000014,
                    "velocity": 0.8661417322834646,
                    "duration": 0.1197916666666643
                },
                {
                    "name": "A4",
                    "midi": 69,
                    "time": 33.000000000000014,
                    "velocity": 0.8661417322834646,
                    "duration": 0.2447916666666643
                },
                {
                    "name": "F#3",
                    "midi": 54,
                    "time": 33.000000000000014,
                    "velocity": 0.8661417322834646,
                    "duration": 0.2447916666666643
                },
                {
                    "name": "C#5",
                    "midi": 73,
                    "time": 33.125000000000014,
                    "velocity": 0.8661417322834646,
                    "duration": 0.1197916666666643
                },
                {
                    "name": "G#4",
                    "midi": 68,
                    "time": 33.250000000000014,
                    "velocity": 0.8661417322834646,
                    "duration": 0.2447916666666643
                },
                {
                    "name": "D#5",
                    "midi": 75,
                    "time": 33.250000000000014,
                    "velocity": 0.8661417322834646,
                    "duration": 0.1197916666666643
                },
                {
                    "name": "E3",
                    "midi": 52,
                    "time": 33.250000000000014,
                    "velocity": 0.8661417322834646,
                    "duration": 0.2447916666666643
                },
                {
                    "name": "E5",
                    "midi": 76,
                    "time": 33.375000000000014,
                    "velocity": 0.8661417322834646,
                    "duration": 0.1197916666666643
                },
                {
                    "name": "F#4",
                    "midi": 66,
                    "time": 33.500000000000014,
                    "velocity": 0.8661417322834646,
                    "duration": 0.4166666666666572
                },
                {
                    "name": "B2",
                    "midi": 47,
                    "time": 33.500000000000014,
                    "velocity": 0.8661417322834646,
                    "duration": 0.8749999999999929
                },
                {
                    "name": "E5",
                    "midi": 76,
                    "time": 33.500000000000014,
                    "velocity": 0.8661417322834646,
                    "duration": 0.0416666666666643
                },
                {
                    "name": "D#5",
                    "midi": 75,
                    "time": 33.54166666666668,
                    "velocity": 0.8661417322834646,
                    "duration": 0.0416666666666643
                },
                {
                    "name": "E5",
                    "midi": 76,
                    "time": 33.58333333333334,
                    "velocity": 0.8661417322834646,
                    "duration": 0.0416666666666643
                },
                {
                    "name": "B3",
                    "midi": 59,
                    "time": 33.62500000000001,
                    "velocity": 0.8661417322834646,
                    "duration": 0.1197916666666643
                },
                {
                    "name": "D#5",
                    "midi": 75,
                    "time": 33.62500000000001,
                    "velocity": 0.8661417322834646,
                    "duration": 0.3697916666666643
                },
                {
                    "name": "A3",
                    "midi": 57,
                    "time": 33.75000000000001,
                    "velocity": 0.8661417322834646,
                    "duration": 0.1197916666666643
                },
                {
                    "name": "F#3",
                    "midi": 54,
                    "time": 33.87500000000001,
                    "velocity": 0.8661417322834646,
                    "duration": 0.1197916666666643
                },
                {
                    "name": "G3",
                    "midi": 55,
                    "time": 34.00000000000001,
                    "velocity": 0.8661417322834646,
                    "duration": 0.2447916666666643
                },
                {
                    "name": "B5",
                    "midi": 83,
                    "time": 34.12500000000001,
                    "velocity": 0.8661417322834646,
                    "duration": 0.1197916666666643
                },
                {
                    "name": "E4",
                    "midi": 64,
                    "time": 34.12500000000001,
                    "velocity": 0.8661417322834646,
                    "duration": 0.2447916666666643
                },
                {
                    "name": "A5",
                    "midi": 81,
                    "time": 34.25000000000001,
                    "velocity": 0.8661417322834646,
                    "duration": 0.1197916666666643
                },
                {
                    "name": "F#3",
                    "midi": 54,
                    "time": 34.25000000000001,
                    "velocity": 0.8661417322834646,
                    "duration": 0.2447916666666643
                },
                {
                    "name": "F#5",
                    "midi": 78,
                    "time": 34.37500000000001,
                    "velocity": 0.8661417322834646,
                    "duration": 0.1197916666666643
                },
                {
                    "name": "D#4",
                    "midi": 63,
                    "time": 34.37500000000001,
                    "velocity": 0.8661417322834646,
                    "duration": 0.1197916666666643
                },
                {
                    "name": "G5",
                    "midi": 79,
                    "time": 34.50000000000001,
                    "velocity": 0.8661417322834646,
                    "duration": 0.2447916666666643
                },
                {
                    "name": "E3",
                    "midi": 52,
                    "time": 34.50000000000001,
                    "velocity": 0.8661417322834646,
                    "duration": 0.1197916666666643
                },
                {
                    "name": "E4",
                    "midi": 64,
                    "time": 34.62500000000001,
                    "velocity": 0.8661417322834646,
                    "duration": 0.1197916666666643
                },
                {
                    "name": "F#5",
                    "midi": 78,
                    "time": 34.75000000000001,
                    "velocity": 0.8661417322834646,
                    "duration": 0.2447916666666643
                },
                {
                    "name": "D4",
                    "midi": 62,
                    "time": 34.75000000000001,
                    "velocity": 0.8661417322834646,
                    "duration": 0.1197916666666643
                },
                {
                    "name": "B4",
                    "midi": 71,
                    "time": 34.87500000000001,
                    "velocity": 0.8661417322834646,
                    "duration": 0.2447916666666643
                },
                {
                    "name": "E5",
                    "midi": 76,
                    "time": 35.00000000000001,
                    "velocity": 0.8661417322834646,
                    "duration": 0.3697916666666643
                },
                {
                    "name": "C4",
                    "midi": 60,
                    "time": 35.00000000000001,
                    "velocity": 0.8661417322834646,
                    "duration": 0.3697916666666643
                },
                {
                    "name": "B4",
                    "midi": 71,
                    "time": 35.12500000000001,
                    "velocity": 0.8661417322834646,
                    "duration": 0.1197916666666643
                },
                {
                    "name": "A4",
                    "midi": 69,
                    "time": 35.25000000000001,
                    "velocity": 0.8661417322834646,
                    "duration": 0.4947916666666643
                },
                {
                    "name": "F#5",
                    "midi": 78,
                    "time": 35.37500000000001,
                    "velocity": 0.8661417322834646,
                    "duration": 0.1197916666666643
                },
                {
                    "name": "C4",
                    "midi": 60,
                    "time": 35.37500000000001,
                    "velocity": 0.8661417322834646,
                    "duration": 0.1197916666666643
                },
                {
                    "name": "B3",
                    "midi": 59,
                    "time": 35.50000000000001,
                    "velocity": 0.8661417322834646,
                    "duration": 1.2447916666666643
                },
                {
                    "name": "E5",
                    "midi": 76,
                    "time": 35.50000000000001,
                    "velocity": 0.8661417322834646,
                    "duration": 0.1197916666666643
                },
                {
                    "name": "D#5",
                    "midi": 75,
                    "time": 35.62500000000001,
                    "velocity": 0.8661417322834646,
                    "duration": 0.1197916666666643
                },
                {
                    "name": "C#5",
                    "midi": 73,
                    "time": 35.75000000000001,
                    "velocity": 0.8661417322834646,
                    "duration": 0.1197916666666643
                },
                {
                    "name": "A4",
                    "midi": 69,
                    "time": 35.75000000000001,
                    "velocity": 0.8661417322834646,
                    "duration": 0.3697916666666643
                },
                {
                    "name": "B4",
                    "midi": 71,
                    "time": 35.87500000000001,
                    "velocity": 0.8661417322834646,
                    "duration": 0.1197916666666643
                },
                {
                    "name": "E5",
                    "midi": 76,
                    "time": 36.00000000000001,
                    "velocity": 0.8661417322834646,
                    "duration": 0.6197916666666643
                },
                {
                    "name": "G#4",
                    "midi": 68,
                    "time": 36.12500000000001,
                    "velocity": 0.8661417322834646,
                    "duration": 0.1197916666666643
                },
                {
                    "name": "F#4",
                    "midi": 66,
                    "time": 36.25000000000001,
                    "velocity": 0.8661417322834646,
                    "duration": 0.1197916666666643
                },
                {
                    "name": "E4",
                    "midi": 64,
                    "time": 36.37500000000001,
                    "velocity": 0.8661417322834646,
                    "duration": 0.1197916666666643
                },
                {
                    "name": "F#4",
                    "midi": 66,
                    "time": 36.50000000000001,
                    "velocity": 0.8661417322834646,
                    "duration": 0.8697916666666572
                },
                {
                    "name": "E5",
                    "midi": 76,
                    "time": 36.62500000000001,
                    "velocity": 0.8661417322834646,
                    "duration": 0.1197916666666643
                },
                {
                    "name": "B3",
                    "midi": 59,
                    "time": 36.75000000000001,
                    "velocity": 0.8661417322834646,
                    "duration": 0.2447916666666572
                },
                {
                    "name": "E5",
                    "midi": 76,
                    "time": 36.75000000000001,
                    "velocity": 0.8661417322834646,
                    "duration": 0.0416666666666643
                },
                {
                    "name": "D#5",
                    "midi": 75,
                    "time": 36.79166666666667,
                    "velocity": 0.8661417322834646,
                    "duration": 0.0416666666666643
                },
                {
                    "name": "E5",
                    "midi": 76,
                    "time": 36.833333333333336,
                    "velocity": 0.8661417322834646,
                    "duration": 0.0416666666666643
                },
                {
                    "name": "D#5",
                    "midi": 75,
                    "time": 36.875,
                    "velocity": 0.8661417322834646,
                    "duration": 0.0572916666666643
                },
                {
                    "name": "C#5",
                    "midi": 73,
                    "time": 36.9375,
                    "velocity": 0.8661417322834646,
                    "duration": 0.0572916666666643
                },
                {
                    "name": "D#5",
                    "midi": 75,
                    "time": 37,
                    "velocity": 0.8661417322834646,
                    "duration": 0.6197916666666643
                },
                {
                    "name": "C4",
                    "midi": 60,
                    "time": 37,
                    "velocity": 0.8661417322834646,
                    "duration": 0.4166666666666643
                },
                {
                    "name": "A4",
                    "midi": 69,
                    "time": 37.125,
                    "velocity": 0.8661417322834646,
                    "duration": 0.1197916666666643
                },
                {
                    "name": "G#4",
                    "midi": 68,
                    "time": 37.25,
                    "velocity": 0.8661417322834646,
                    "duration": 0.2447916666666643
                },
                {
                    "name": "F#4",
                    "midi": 66,
                    "time": 37.375,
                    "velocity": 0.8661417322834646,
                    "duration": 0.1197916666666643
                },
                {
                    "name": "E4",
                    "midi": 64,
                    "time": 37.5,
                    "velocity": 0.8661417322834646,
                    "duration": 0.3697916666666643
                },
                {
                    "name": "C#4",
                    "midi": 61,
                    "time": 37.5,
                    "velocity": 0.8661417322834646,
                    "duration": 0.4166666666666643
                },
                {
                    "name": "G#4",
                    "midi": 68,
                    "time": 37.625,
                    "velocity": 0.8661417322834646,
                    "duration": 0.1197916666666643
                },
                {
                    "name": "C#5",
                    "midi": 73,
                    "time": 37.75,
                    "velocity": 0.8661417322834646,
                    "duration": 0.3697916666666643
                },
                {
                    "name": "E4",
                    "midi": 64,
                    "time": 37.875,
                    "velocity": 0.8661417322834646,
                    "duration": 0.1197916666666643
                },
                {
                    "name": "D#4",
                    "midi": 63,
                    "time": 38,
                    "velocity": 0.8661417322834646,
                    "duration": 0.3697916666666643
                },
                {
                    "name": "G#3",
                    "midi": 56,
                    "time": 38,
                    "velocity": 0.8661417322834646,
                    "duration": 0.3697916666666643
                },
                {
                    "name": "D#5",
                    "midi": 75,
                    "time": 38.125,
                    "velocity": 0.8661417322834646,
                    "duration": 0.1197916666666643
                },
                {
                    "name": "B4",
                    "midi": 71,
                    "time": 38.25,
                    "velocity": 0.8661417322834646,
                    "duration": 0.3697916666666643
                },
                {
                    "name": "G#4",
                    "midi": 68,
                    "time": 38.375,
                    "velocity": 0.8661417322834646,
                    "duration": 0.1197916666666643
                },
                {
                    "name": "F#3",
                    "midi": 54,
                    "time": 38.375,
                    "velocity": 0.8661417322834646,
                    "duration": 0.1197916666666643
                },
                {
                    "name": "C#4",
                    "midi": 61,
                    "time": 38.5,
                    "velocity": 0.8661417322834646,
                    "duration": 0.3697916666666643
                },
                {
                    "name": "E3",
                    "midi": 52,
                    "time": 38.5,
                    "velocity": 0.8661417322834646,
                    "duration": 0.2447916666666643
                },
                {
                    "name": "C#5",
                    "midi": 73,
                    "time": 38.625,
                    "velocity": 0.8661417322834646,
                    "duration": 0.1197916666666643
                },
                {
                    "name": "A4",
                    "midi": 69,
                    "time": 38.75,
                    "velocity": 0.8661417322834646,
                    "duration": 0.3697916666666643
                },
                {
                    "name": "F#3",
                    "midi": 54,
                    "time": 38.75,
                    "velocity": 0.8661417322834646,
                    "duration": 0.2447916666666643
                },
                {
                    "name": "F#4",
                    "midi": 66,
                    "time": 38.875,
                    "velocity": 0.8661417322834646,
                    "duration": 0.1197916666666643
                },
                {
                    "name": "B3",
                    "midi": 59,
                    "time": 39,
                    "velocity": 0.8661417322834646,
                    "duration": 0.3697916666666643
                },
                {
                    "name": "D#3",
                    "midi": 51,
                    "time": 39,
                    "velocity": 0.8661417322834646,
                    "duration": 0.2447916666666643
                },
                {
                    "name": "B4",
                    "midi": 71,
                    "time": 39.125,
                    "velocity": 0.8661417322834646,
                    "duration": 0.1197916666666643
                },
                {
                    "name": "G#4",
                    "midi": 68,
                    "time": 39.25,
                    "velocity": 0.8661417322834646,
                    "duration": 0.2447916666666643
                },
                {
                    "name": "E3",
                    "midi": 52,
                    "time": 39.25,
                    "velocity": 0.8661417322834646,
                    "duration": 0.2447916666666643
                },
                {
                    "name": "E4",
                    "midi": 64,
                    "time": 39.375,
                    "velocity": 0.8661417322834646,
                    "duration": 0.1197916666666643
                },
                {
                    "name": "C#4",
                    "midi": 61,
                    "time": 39.5,
                    "velocity": 0.8661417322834646,
                    "duration": 0.1197916666666643
                },
                {
                    "name": "A2",
                    "midi": 45,
                    "time": 39.5,
                    "velocity": 0.8661417322834646,
                    "duration": 0.4166666666666643
                },
                {
                    "name": "F#4",
                    "midi": 66,
                    "time": 39.625,
                    "velocity": 0.8661417322834646,
                    "duration": 0.1197916666666643
                },
                {
                    "name": "G#4",
                    "midi": 68,
                    "time": 39.75,
                    "velocity": 0.8661417322834646,
                    "duration": 0.1197916666666643
                },
                {
                    "name": "F#3",
                    "midi": 54,
                    "time": 39.75,
                    "velocity": 0.8661417322834646,
                    "duration": 0.2447916666666643
                },
                {
                    "name": "A4",
                    "midi": 69,
                    "time": 39.875,
                    "velocity": 0.8661417322834646,
                    "duration": 0.1197916666666643
                },
                {
                    "name": "D#4",
                    "midi": 63,
                    "time": 40,
                    "velocity": 0.8661417322834646,
                    "duration": 0.1197916666666643
                },
                {
                    "name": "B2",
                    "midi": 47,
                    "time": 40,
                    "velocity": 0.8661417322834646,
                    "duration": 0.4166666666666643
                },
                {
                    "name": "G#4",
                    "midi": 68,
                    "time": 40.125,
                    "velocity": 0.8661417322834646,
                    "duration": 0.1197916666666643
                },
                {
                    "name": "A4",
                    "midi": 69,
                    "time": 40.25,
                    "velocity": 0.8661417322834646,
                    "duration": 0.1197916666666643
                },
                {
                    "name": "G#3",
                    "midi": 56,
                    "time": 40.25,
                    "velocity": 0.8661417322834646,
                    "duration": 0.2447916666666643
                },
                {
                    "name": "B4",
                    "midi": 71,
                    "time": 40.375,
                    "velocity": 0.8661417322834646,
                    "duration": 0.1197916666666643
                },
                {
                    "name": "E4",
                    "midi": 64,
                    "time": 40.5,
                    "velocity": 0.8661417322834646,
                    "duration": 0.1197916666666643
                },
                {
                    "name": "C#3",
                    "midi": 49,
                    "time": 40.5,
                    "velocity": 0.8661417322834646,
                    "duration": 0.4166666666666643
                },
                {
                    "name": "C#5",
                    "midi": 73,
                    "time": 40.625,
                    "velocity": 0.8661417322834646,
                    "duration": 0.1197916666666643
                },
                {
                    "name": "D#5",
                    "midi": 75,
                    "time": 40.75,
                    "velocity": 0.8661417322834646,
                    "duration": 0.1197916666666643
                },
                {
                    "name": "A3",
                    "midi": 57,
                    "time": 40.75,
                    "velocity": 0.8661417322834646,
                    "duration": 0.2447916666666643
                },
                {
                    "name": "E5",
                    "midi": 76,
                    "time": 40.875,
                    "velocity": 0.8661417322834646,
                    "duration": 0.1197916666666643
                },
                {
                    "name": "F#4",
                    "midi": 66,
                    "time": 41,
                    "velocity": 0.8661417322834646,
                    "duration": 0.1197916666666643
                },
                {
                    "name": "D#3",
                    "midi": 51,
                    "time": 41,
                    "velocity": 0.8661417322834646,
                    "duration": 0.4166666666666643
                },
                {
                    "name": "E5",
                    "midi": 76,
                    "time": 41.125,
                    "velocity": 0.8661417322834646,
                    "duration": 0.1197916666666643
                },
                {
                    "name": "C#5",
                    "midi": 73,
                    "time": 41.125,
                    "velocity": 0.8661417322834646,
                    "duration": 0.1197916666666643
                },
                {
                    "name": "D#5",
                    "midi": 75,
                    "time": 41.25,
                    "velocity": 0.8661417322834646,
                    "duration": 0.1197916666666643
                },
                {
                    "name": "B4",
                    "midi": 71,
                    "time": 41.25,
                    "velocity": 0.8661417322834646,
                    "duration": 0.1197916666666643
                },
                {
                    "name": "B3",
                    "midi": 59,
                    "time": 41.25,
                    "velocity": 0.8661417322834646,
                    "duration": 0.2447916666666643
                },
                {
                    "name": "C#5",
                    "midi": 73,
                    "time": 41.375,
                    "velocity": 0.8661417322834646,
                    "duration": 0.1197916666666643
                },
                {
                    "name": "A4",
                    "midi": 69,
                    "time": 41.375,
                    "velocity": 0.8661417322834646,
                    "duration": 0.1197916666666643
                },
                {
                    "name": "B4",
                    "midi": 71,
                    "time": 41.5,
                    "velocity": 0.8661417322834646,
                    "duration": 0.2447916666666643
                },
                {
                    "name": "G#4",
                    "midi": 68,
                    "time": 41.5,
                    "velocity": 0.8661417322834646,
                    "duration": 0.2447916666666643
                },
                {
                    "name": "E3",
                    "midi": 52,
                    "time": 41.5,
                    "velocity": 0.8661417322834646,
                    "duration": 0.2447916666666643
                },
                {
                    "name": "A4",
                    "midi": 69,
                    "time": 41.75,
                    "velocity": 0.8661417322834646,
                    "duration": 0.1197916666666643
                },
                {
                    "name": "F#4",
                    "midi": 66,
                    "time": 41.75,
                    "velocity": 0.8661417322834646,
                    "duration": 0.1197916666666643
                },
                {
                    "name": "A2",
                    "midi": 45,
                    "time": 41.75,
                    "velocity": 0.8661417322834646,
                    "duration": 0.2447916666666643
                },
                {
                    "name": "G#4",
                    "midi": 68,
                    "time": 41.875,
                    "velocity": 0.8661417322834646,
                    "duration": 0.1197916666666643
                },
                {
                    "name": "E4",
                    "midi": 64,
                    "time": 41.875,
                    "velocity": 0.8661417322834646,
                    "duration": 0.1197916666666643
                },
                {
                    "name": "G#4",
                    "midi": 68,
                    "time": 42,
                    "velocity": 0.8661417322834646,
                    "duration": 0.2447916666666643
                },
                {
                    "name": "E4",
                    "midi": 64,
                    "time": 42,
                    "velocity": 0.8661417322834646,
                    "duration": 0.2447916666666643
                },
                {
                    "name": "B2",
                    "midi": 47,
                    "time": 42,
                    "velocity": 0.8661417322834646,
                    "duration": 0.2447916666666643
                },
                {
                    "name": "D#4",
                    "midi": 63,
                    "time": 42.25,
                    "velocity": 0.8661417322834646,
                    "duration": 0.2447916666666643
                },
                {
                    "name": "B1",
                    "midi": 35,
                    "time": 42.25,
                    "velocity": 0.8661417322834646,
                    "duration": 0.2447916666666643
                },
                {
                    "name": "G#4",
                    "midi": 68,
                    "time": 42.25,
                    "velocity": 0.8661417322834646,
                    "duration": 0.03125
                },
                {
                    "name": "F#4",
                    "midi": 66,
                    "time": 42.28125,
                    "velocity": 0.8661417322834646,
                    "duration": 0.03125
                },
                {
                    "name": "G#4",
                    "midi": 68,
                    "time": 42.3125,
                    "velocity": 0.8661417322834646,
                    "duration": 0.03125
                },
                {
                    "name": "F#4",
                    "midi": 66,
                    "time": 42.34375,
                    "velocity": 0.8661417322834646,
                    "duration": 0.026041666666664298
                },
                {
                    "name": "E4",
                    "midi": 64,
                    "time": 42.375,
                    "velocity": 0.8661417322834646,
                    "duration": 0.1197916666666643
                },
                {
                    "name": "E4",
                    "midi": 64,
                    "time": 42.5,
                    "velocity": 0.8661417322834646,
                    "duration": 0.4166666666666643
                },
                {
                    "name": "E2",
                    "midi": 40,
                    "time": 42.5,
                    "velocity": 0.8661417322834646,
                    "duration": 0.875
                },
                {
                    "name": "A3",
                    "midi": 57,
                    "time": 42.625,
                    "velocity": 0.8661417322834646,
                    "duration": 0.1197916666666643
                },
                {
                    "name": "B3",
                    "midi": 59,
                    "time": 42.75,
                    "velocity": 0.8661417322834646,
                    "duration": 0.1197916666666643
                },
                {
                    "name": "E3",
                    "midi": 52,
                    "time": 42.75,
                    "velocity": 0.8661417322834646,
                    "duration": 0.2447916666666643
                },
                {
                    "name": "G#3",
                    "midi": 56,
                    "time": 42.875,
                    "velocity": 0.8661417322834646,
                    "duration": 0.1197916666666643
                },
                {
                    "name": "A3",
                    "midi": 57,
                    "time": 43,
                    "velocity": 0.8661417322834646,
                    "duration": 0.4166666666666643
                },
                {
                    "name": "F#3",
                    "midi": 54,
                    "time": 43,
                    "velocity": 0.8661417322834646,
                    "duration": 0.4166666666666643
                },
                {
                    "name": "C#4",
                    "midi": 61,
                    "time": 43.125,
                    "velocity": 0.8661417322834646,
                    "duration": 0.1197916666666643
                },
                {
                    "name": "A4",
                    "midi": 69,
                    "time": 43.25,
                    "velocity": 0.8661417322834646,
                    "duration": 0.1197916666666643
                },
                {
                    "name": "D#4",
                    "midi": 63,
                    "time": 43.375,
                    "velocity": 0.8661417322834646,
                    "duration": 0.1197916666666643
                },
                {
                    "name": "E4",
                    "midi": 64,
                    "time": 43.5,
                    "velocity": 0.8661417322834646,
                    "duration": 0.4166666666666643
                },
                {
                    "name": "B3",
                    "midi": 59,
                    "time": 43.5,
                    "velocity": 0.8661417322834646,
                    "duration": 0.4166666666666643
                },
                {
                    "name": "G#3",
                    "midi": 56,
                    "time": 43.5,
                    "velocity": 0.8661417322834646,
                    "duration": 0.4166666666666643
                },
                {
                    "name": "E3",
                    "midi": 52,
                    "time": 43.5,
                    "velocity": 0.8661417322834646,
                    "duration": 0.4166666666666643
                },
                {
                    "name": "E2",
                    "midi": 40,
                    "time": 43.5,
                    "velocity": 0.8661417322834646,
                    "duration": 0.4166666666666643
                },
                {
                    "name": "B4",
                    "midi": 71,
                    "time": 44.125,
                    "velocity": 0.8661417322834646,
                    "duration": 0.1197916666666643
                },
                {
                    "name": "C#5",
                    "midi": 73,
                    "time": 44.25,
                    "velocity": 0.8661417322834646,
                    "duration": 0.0416666666666643
                },
                {
                    "name": "B4",
                    "midi": 71,
                    "time": 44.291666666666664,
                    "velocity": 0.8661417322834646,
                    "duration": 0.0416666666666643
                },
                {
                    "name": "C#5",
                    "midi": 73,
                    "time": 44.33333333333333,
                    "velocity": 0.8661417322834646,
                    "duration": 0.0989583333333357
                },
                {
                    "name": "D#5",
                    "midi": 75,
                    "time": 44.4375,
                    "velocity": 0.8661417322834646,
                    "duration": 0.0572916666666643
                },
                {
                    "name": "E5",
                    "midi": 76,
                    "time": 44.5,
                    "velocity": 0.8661417322834646,
                    "duration": 0.2447916666666643
                },
                {
                    "name": "E4",
                    "midi": 64,
                    "time": 44.625,
                    "velocity": 0.8661417322834646,
                    "duration": 0.1197916666666643
                },
                {
                    "name": "F#4",
                    "midi": 66,
                    "time": 44.75,
                    "velocity": 0.8661417322834646,
                    "duration": 0.1197916666666643
                },
                {
                    "name": "D4",
                    "midi": 62,
                    "time": 44.75,
                    "velocity": 0.8661417322834646,
                    "duration": 0.1197916666666643
                },
                {
                    "name": "G#4",
                    "midi": 68,
                    "time": 44.875,
                    "velocity": 0.8661417322834646,
                    "duration": 0.1197916666666643
                },
                {
                    "name": "C#4",
                    "midi": 61,
                    "time": 44.875,
                    "velocity": 0.8661417322834646,
                    "duration": 0.1197916666666643
                },
                {
                    "name": "G#4",
                    "midi": 68,
                    "time": 45,
                    "velocity": 0.8661417322834646,
                    "duration": 0.3697916666666643
                },
                {
                    "name": "B3",
                    "midi": 59,
                    "time": 45,
                    "velocity": 0.8661417322834646,
                    "duration": 0.1197916666666643
                },
                {
                    "name": "E4",
                    "midi": 64,
                    "time": 45.125,
                    "velocity": 0.8661417322834646,
                    "duration": 0.1197916666666643
                },
                {
                    "name": "D4",
                    "midi": 62,
                    "time": 45.25,
                    "velocity": 0.8661417322834646,
                    "duration": 0.1197916666666643
                },
                {
                    "name": "F#4",
                    "midi": 66,
                    "time": 45.375,
                    "velocity": 0.8661417322834646,
                    "duration": 0.0572916666666643
                },
                {
                    "name": "E4",
                    "midi": 64,
                    "time": 45.375,
                    "velocity": 0.8661417322834646,
                    "duration": 0.1197916666666643
                },
                {
                    "name": "G#4",
                    "midi": 68,
                    "time": 45.4375,
                    "velocity": 0.8661417322834646,
                    "duration": 0.0572916666666643
                },
                {
                    "name": "A4",
                    "midi": 69,
                    "time": 45.5,
                    "velocity": 0.8661417322834646,
                    "duration": 0.4166666666666643
                },
                {
                    "name": "C#4",
                    "midi": 61,
                    "time": 45.5,
                    "velocity": 0.8661417322834646,
                    "duration": 0.4166666666666643
                },
                {
                    "name": "E3",
                    "midi": 52,
                    "time": 45.625,
                    "velocity": 0.8661417322834646,
                    "duration": 0.1197916666666643
                },
                {
                    "name": "F#3",
                    "midi": 54,
                    "time": 45.75,
                    "velocity": 0.8661417322834646,
                    "duration": 0.1197916666666643
                },
                {
                    "name": "G#3",
                    "midi": 56,
                    "time": 45.875,
                    "velocity": 0.8661417322834646,
                    "duration": 0.1197916666666643
                },
                {
                    "name": "A3",
                    "midi": 57,
                    "time": 46,
                    "velocity": 0.8661417322834646,
                    "duration": 0.2447916666666643
                },
                {
                    "name": "E5",
                    "midi": 76,
                    "time": 46.125,
                    "velocity": 0.8661417322834646,
                    "duration": 0.1197916666666643
                },
                {
                    "name": "F#5",
                    "midi": 78,
                    "time": 46.25,
                    "velocity": 0.8661417322834646,
                    "duration": 0.1197916666666643
                },
                {
                    "name": "G3",
                    "midi": 55,
                    "time": 46.25,
                    "velocity": 0.8661417322834646,
                    "duration": 0.2447916666666643
                },
                {
                    "name": "G#5",
                    "midi": 80,
                    "time": 46.375,
                    "velocity": 0.8661417322834646,
                    "duration": 0.1197916666666643
                },
                {
                    "name": "A5",
                    "midi": 81,
                    "time": 46.5,
                    "velocity": 0.8661417322834646,
                    "duration": 0.2447916666666643
                },
                {
                    "name": "F#3",
                    "midi": 54,
                    "time": 46.5,
                    "velocity": 0.8661417322834646,
                    "duration": 0.2447916666666643
                },
                {
                    "name": "A4",
                    "midi": 69,
                    "time": 46.625,
                    "velocity": 0.8661417322834646,
                    "duration": 0.1197916666666643
                },
                {
                    "name": "B4",
                    "midi": 71,
                    "time": 46.75,
                    "velocity": 0.8661417322834646,
                    "duration": 0.1197916666666643
                },
                {
                    "name": "G4",
                    "midi": 67,
                    "time": 46.75,
                    "velocity": 0.8661417322834646,
                    "duration": 0.1197916666666643
                },
                {
                    "name": "G3",
                    "midi": 55,
                    "time": 46.75,
                    "velocity": 0.8661417322834646,
                    "duration": 0.2447916666666643
                },
                {
                    "name": "C#5",
                    "midi": 73,
                    "time": 46.875,
                    "velocity": 0.8661417322834646,
                    "duration": 0.1197916666666643
                },
                {
                    "name": "F#4",
                    "midi": 66,
                    "time": 46.875,
                    "velocity": 0.8661417322834646,
                    "duration": 0.1197916666666643
                },
                {
                    "name": "D5",
                    "midi": 74,
                    "time": 47,
                    "velocity": 0.8661417322834646,
                    "duration": 0.2447916666666643
                },
                {
                    "name": "E4",
                    "midi": 64,
                    "time": 47,
                    "velocity": 0.8661417322834646,
                    "duration": 0.1197916666666643
                },
                {
                    "name": "A3",
                    "midi": 57,
                    "time": 47,
                    "velocity": 0.8661417322834646,
                    "duration": 0.4166666666666643
                },
                {
                    "name": "A4",
                    "midi": 69,
                    "time": 47.125,
                    "velocity": 0.8661417322834646,
                    "duration": 0.1197916666666643
                },
                {
                    "name": "G4",
                    "midi": 67,
                    "time": 47.25,
                    "velocity": 0.8661417322834646,
                    "duration": 0.1197916666666643
                },
                {
                    "name": "D5",
                    "midi": 74,
                    "time": 47.25,
                    "velocity": 0.8661417322834646,
                    "duration": 0.0416666666666643
                },
                {
                    "name": "C#5",
                    "midi": 73,
                    "time": 47.291666666666664,
                    "velocity": 0.8661417322834646,
                    "duration": 0.0416666666666643
                },
                {
                    "name": "D5",
                    "midi": 74,
                    "time": 47.33333333333333,
                    "velocity": 0.8661417322834646,
                    "duration": 0.041666666666671404
                },
                {
                    "name": "A4",
                    "midi": 69,
                    "time": 47.375,
                    "velocity": 0.8661417322834646,
                    "duration": 0.1197916666666643
                },
                {
                    "name": "C#5",
                    "midi": 73,
                    "time": 47.375,
                    "velocity": 0.8661417322834646,
                    "duration": 0.1197916666666643
                },
                {
                    "name": "D5",
                    "midi": 74,
                    "time": 47.5,
                    "velocity": 0.8661417322834646,
                    "duration": 0.4166666666666572
                },
                {
                    "name": "F#4",
                    "midi": 66,
                    "time": 47.5,
                    "velocity": 0.8661417322834646,
                    "duration": 0.4166666666666572
                },
                {
                    "name": "D3",
                    "midi": 50,
                    "time": 47.5,
                    "velocity": 0.8661417322834646,
                    "duration": 0.1197916666666643
                },
                {
                    "name": "D4",
                    "midi": 62,
                    "time": 47.625,
                    "velocity": 0.8661417322834646,
                    "duration": 0.1197916666666643
                },
                {
                    "name": "D4",
                    "midi": 62,
                    "time": 47.75,
                    "velocity": 0.8661417322834646,
                    "duration": 0.0416666666666643
                },
                {
                    "name": "C#4",
                    "midi": 61,
                    "time": 47.791666666666664,
                    "velocity": 0.8661417322834646,
                    "duration": 0.0416666666666643
                },
                {
                    "name": "D4",
                    "midi": 62,
                    "time": 47.83333333333333,
                    "velocity": 0.8661417322834646,
                    "duration": 0.0416666666666643
                },
                {
                    "name": "C#4",
                    "midi": 61,
                    "time": 47.87499999999999,
                    "velocity": 0.8661417322834646,
                    "duration": 0.0572916666666643
                },
                {
                    "name": "B3",
                    "midi": 59,
                    "time": 47.93749999999999,
                    "velocity": 0.8661417322834646,
                    "duration": 0.0572916666666643
                },
                {
                    "name": "A#3",
                    "midi": 58,
                    "time": 47.99999999999999,
                    "velocity": 0.8661417322834646,
                    "duration": 0.4166666666666643
                },
                {
                    "name": "F#5",
                    "midi": 78,
                    "time": 48.12499999999999,
                    "velocity": 0.8661417322834646,
                    "duration": 0.1197916666666643
                },
                {
                    "name": "E5",
                    "midi": 76,
                    "time": 48.24999999999999,
                    "velocity": 0.8661417322834646,
                    "duration": 0.1197916666666643
                },
                {
                    "name": "F#4",
                    "midi": 66,
                    "time": 48.24999999999999,
                    "velocity": 0.8661417322834646,
                    "duration": 0.3697916666666643
                },
                {
                    "name": "C#5",
                    "midi": 73,
                    "time": 48.37499999999999,
                    "velocity": 0.8661417322834646,
                    "duration": 0.1197916666666643
                },
                {
                    "name": "D5",
                    "midi": 74,
                    "time": 48.49999999999999,
                    "velocity": 0.8661417322834646,
                    "duration": 0.2447916666666643
                },
                {
                    "name": "B3",
                    "midi": 59,
                    "time": 48.49999999999999,
                    "velocity": 0.8661417322834646,
                    "duration": 0.2447916666666643
                },
                {
                    "name": "F#4",
                    "midi": 66,
                    "time": 48.62499999999999,
                    "velocity": 0.8661417322834646,
                    "duration": 0.2447916666666643
                },
                {
                    "name": "C#5",
                    "midi": 73,
                    "time": 48.74999999999999,
                    "velocity": 0.8661417322834646,
                    "duration": 0.1197916666666643
                },
                {
                    "name": "A3",
                    "midi": 57,
                    "time": 48.74999999999999,
                    "velocity": 0.8661417322834646,
                    "duration": 0.2447916666666643
                },
                {
                    "name": "D5",
                    "midi": 74,
                    "time": 48.87499999999999,
                    "velocity": 0.8661417322834646,
                    "duration": 0.1197916666666643
                },
                {
                    "name": "F#4",
                    "midi": 66,
                    "time": 48.87499999999999,
                    "velocity": 0.8661417322834646,
                    "duration": 0.2447916666666643
                },
                {
                    "name": "B4",
                    "midi": 71,
                    "time": 48.99999999999999,
                    "velocity": 0.8661417322834646,
                    "duration": 0.3697916666666643
                },
                {
                    "name": "G3",
                    "midi": 55,
                    "time": 48.99999999999999,
                    "velocity": 0.8661417322834646,
                    "duration": 0.4166666666666643
                },
                {
                    "name": "F#4",
                    "midi": 66,
                    "time": 49.12499999999999,
                    "velocity": 0.8661417322834646,
                    "duration": 0.1197916666666643
                },
                {
                    "name": "E4",
                    "midi": 64,
                    "time": 49.24999999999999,
                    "velocity": 0.8661417322834646,
                    "duration": 0.4947916666666643
                },
                {
                    "name": "B4",
                    "midi": 71,
                    "time": 49.37499999999999,
                    "velocity": 0.8661417322834646,
                    "duration": 0.1197916666666643
                },
                {
                    "name": "F#5",
                    "midi": 78,
                    "time": 49.49999999999999,
                    "velocity": 0.8661417322834646,
                    "duration": 0.1197916666666643
                },
                {
                    "name": "F#3",
                    "midi": 54,
                    "time": 49.49999999999999,
                    "velocity": 0.8661417322834646,
                    "duration": 0.4166666666666643
                },
                {
                    "name": "A#4",
                    "midi": 70,
                    "time": 49.62499999999999,
                    "velocity": 0.8661417322834646,
                    "duration": 0.1197916666666643
                },
                {
                    "name": "B4",
                    "midi": 71,
                    "time": 49.74999999999999,
                    "velocity": 0.8661417322834646,
                    "duration": 0.1197916666666643
                },
                {
                    "name": "E4",
                    "midi": 64,
                    "time": 49.74999999999999,
                    "velocity": 0.8661417322834646,
                    "duration": 0.2447916666666643
                },
                {
                    "name": "C#5",
                    "midi": 73,
                    "time": 49.87499999999999,
                    "velocity": 0.8661417322834646,
                    "duration": 0.1197916666666643
                },
                {
                    "name": "F#4",
                    "midi": 66,
                    "time": 49.99999999999999,
                    "velocity": 0.8661417322834646,
                    "duration": 0.1197916666666643
                },
                {
                    "name": "D4",
                    "midi": 62,
                    "time": 49.99999999999999,
                    "velocity": 0.8661417322834646,
                    "duration": 0.2447916666666643
                },
                {
                    "name": "F#5",
                    "midi": 78,
                    "time": 50.12499999999999,
                    "velocity": 0.8661417322834646,
                    "duration": 0.1197916666666643
                },
                {
                    "name": "E5",
                    "midi": 76,
                    "time": 50.24999999999999,
                    "velocity": 0.8661417322834646,
                    "duration": 0.1197916666666643
                },
                {
                    "name": "C#4",
                    "midi": 61,
                    "time": 50.24999999999999,
                    "velocity": 0.8661417322834646,
                    "duration": 0.1197916666666643
                },
                {
                    "name": "D5",
                    "midi": 74,
                    "time": 50.37499999999999,
                    "velocity": 0.8661417322834646,
                    "duration": 0.1197916666666643
                },
                {
                    "name": "B3",
                    "midi": 59,
                    "time": 50.37499999999999,
                    "velocity": 0.8661417322834646,
                    "duration": 0.1197916666666643
                },
                {
                    "name": "E5",
                    "midi": 76,
                    "time": 50.49999999999999,
                    "velocity": 0.8661417322834646,
                    "duration": 0.1197916666666643
                },
                {
                    "name": "C#4",
                    "midi": 61,
                    "time": 50.49999999999999,
                    "velocity": 0.8661417322834646,
                    "duration": 0.1197916666666643
                },
                {
                    "name": "C#5",
                    "midi": 73,
                    "time": 50.62499999999999,
                    "velocity": 0.8661417322834646,
                    "duration": 0.1197916666666643
                },
                {
                    "name": "A#3",
                    "midi": 58,
                    "time": 50.62499999999999,
                    "velocity": 0.8661417322834646,
                    "duration": 0.1197916666666643
                },
                {
                    "name": "D5",
                    "midi": 74,
                    "time": 50.74999999999999,
                    "velocity": 0.8661417322834646,
                    "duration": 0.1197916666666643
                },
                {
                    "name": "B4",
                    "midi": 71,
                    "time": 50.74999999999999,
                    "velocity": 0.8661417322834646,
                    "duration": 0.2447916666666643
                },
                {
                    "name": "B3",
                    "midi": 59,
                    "time": 50.74999999999999,
                    "velocity": 0.8661417322834646,
                    "duration": 0.1197916666666643
                },
                {
                    "name": "E5",
                    "midi": 76,
                    "time": 50.87499999999999,
                    "velocity": 0.8661417322834646,
                    "duration": 0.1197916666666643
                },
                {
                    "name": "E3",
                    "midi": 52,
                    "time": 50.87499999999999,
                    "velocity": 0.8661417322834646,
                    "duration": 0.1197916666666643
                },
                {
                    "name": "D5",
                    "midi": 74,
                    "time": 50.99999999999999,
                    "velocity": 0.8661417322834646,
                    "duration": 0.2447916666666643
                },
                {
                    "name": "B4",
                    "midi": 71,
                    "time": 50.99999999999999,
                    "velocity": 0.8661417322834646,
                    "duration": 0.2447916666666643
                },
                {
                    "name": "F#3",
                    "midi": 54,
                    "time": 50.99999999999999,
                    "velocity": 0.8661417322834646,
                    "duration": 0.2447916666666643
                },
                {
                    "name": "F#4",
                    "midi": 66,
                    "time": 51.12499999999999,
                    "velocity": 0.8661417322834646,
                    "duration": 0.2447916666666643
                },
                {
                    "name": "C#5",
                    "midi": 73,
                    "time": 51.24999999999999,
                    "velocity": 0.8661417322834646,
                    "duration": 0.2447916666666643
                },
                {
                    "name": "A#4",
                    "midi": 70,
                    "time": 51.24999999999999,
                    "velocity": 0.8661417322834646,
                    "duration": 0.2447916666666643
                },
                {
                    "name": "F#2",
                    "midi": 42,
                    "time": 51.24999999999999,
                    "velocity": 0.8661417322834646,
                    "duration": 0.2447916666666643
                },
                {
                    "name": "E4",
                    "midi": 64,
                    "time": 51.37499999999999,
                    "velocity": 0.8661417322834646,
                    "duration": 0.1197916666666643
                },
                {
                    "name": "B4",
                    "midi": 71,
                    "time": 51.49999999999999,
                    "velocity": 0.8661417322834646,
                    "duration": 0.4166666666666643
                },
                {
                    "name": "B2",
                    "midi": 47,
                    "time": 51.49999999999999,
                    "velocity": 0.8661417322834646,
                    "duration": 0.4166666666666643
                },
                {
                    "name": "D#4",
                    "midi": 63,
                    "time": 51.62499999999999,
                    "velocity": 0.8661417322834646,
                    "duration": 0.1197916666666643
                },
                {
                    "name": "E4",
                    "midi": 64,
                    "time": 51.74999999999999,
                    "velocity": 0.8661417322834646,
                    "duration": 0.1197916666666643
                },
                {
                    "name": "A3",
                    "midi": 57,
                    "time": 51.74999999999999,
                    "velocity": 0.8661417322834646,
                    "duration": 0.2447916666666643
                },
                {
                    "name": "F#4",
                    "midi": 66,
                    "time": 51.87499999999999,
                    "velocity": 0.8661417322834646,
                    "duration": 0.1197916666666643
                },
                {
                    "name": "B3",
                    "midi": 59,
                    "time": 51.99999999999999,
                    "velocity": 0.8661417322834646,
                    "duration": 0.1197916666666643
                },
                {
                    "name": "G#3",
                    "midi": 56,
                    "time": 51.99999999999999,
                    "velocity": 0.8661417322834646,
                    "duration": 0.2447916666666643
                },
                {
                    "name": "E4",
                    "midi": 64,
                    "time": 52.12499999999999,
                    "velocity": 0.8661417322834646,
                    "duration": 0.1197916666666643
                },
                {
                    "name": "F#4",
                    "midi": 66,
                    "time": 52.24999999999999,
                    "velocity": 0.8661417322834646,
                    "duration": 0.1197916666666643
                },
                {
                    "name": "F#3",
                    "midi": 54,
                    "time": 52.24999999999999,
                    "velocity": 0.8661417322834646,
                    "duration": 0.2447916666666643
                },
                {
                    "name": "G#4",
                    "midi": 68,
                    "time": 52.37499999999999,
                    "velocity": 0.8661417322834646,
                    "duration": 0.1197916666666643
                },
                {
                    "name": "C#4",
                    "midi": 61,
                    "time": 52.49999999999999,
                    "velocity": 0.8661417322834646,
                    "duration": 0.1197916666666643
                },
                {
                    "name": "A2",
                    "midi": 45,
                    "time": 52.49999999999999,
                    "velocity": 0.8661417322834646,
                    "duration": 0.4166666666666643
                },
                {
                    "name": "F#4",
                    "midi": 66,
                    "time": 52.62499999999999,
                    "velocity": 0.8661417322834646,
                    "duration": 0.1197916666666643
                },
                {
                    "name": "G#4",
                    "midi": 68,
                    "time": 52.74999999999999,
                    "velocity": 0.8661417322834646,
                    "duration": 0.1197916666666643
                },
                {
                    "name": "F#3",
                    "midi": 54,
                    "time": 52.74999999999999,
                    "velocity": 0.8661417322834646,
                    "duration": 0.2447916666666643
                },
                {
                    "name": "A4",
                    "midi": 69,
                    "time": 52.87499999999999,
                    "velocity": 0.8661417322834646,
                    "duration": 0.1197916666666643
                },
                {
                    "name": "D#4",
                    "midi": 63,
                    "time": 52.99999999999999,
                    "velocity": 0.8661417322834646,
                    "duration": 0.1197916666666643
                },
                {
                    "name": "B2",
                    "midi": 47,
                    "time": 52.99999999999999,
                    "velocity": 0.8661417322834646,
                    "duration": 0.4166666666666643
                },
                {
                    "name": "G#4",
                    "midi": 68,
                    "time": 53.12499999999999,
                    "velocity": 0.8661417322834646,
                    "duration": 0.1197916666666643
                },
                {
                    "name": "A4",
                    "midi": 69,
                    "time": 53.24999999999999,
                    "velocity": 0.8661417322834646,
                    "duration": 0.1197916666666643
                },
                {
                    "name": "G#3",
                    "midi": 56,
                    "time": 53.24999999999999,
                    "velocity": 0.8661417322834646,
                    "duration": 0.2447916666666643
                },
                {
                    "name": "B4",
                    "midi": 71,
                    "time": 53.37499999999999,
                    "velocity": 0.8661417322834646,
                    "duration": 0.1197916666666643
                },
                {
                    "name": "E4",
                    "midi": 64,
                    "time": 53.49999999999999,
                    "velocity": 0.8661417322834646,
                    "duration": 0.1197916666666643
                },
                {
                    "name": "C#3",
                    "midi": 49,
                    "time": 53.49999999999999,
                    "velocity": 0.8661417322834646,
                    "duration": 0.4166666666666643
                },
                {
                    "name": "A4",
                    "midi": 69,
                    "time": 53.62499999999999,
                    "velocity": 0.8661417322834646,
                    "duration": 0.1197916666666643
                },
                {
                    "name": "B4",
                    "midi": 71,
                    "time": 53.74999999999999,
                    "velocity": 0.8661417322834646,
                    "duration": 0.1197916666666643
                },
                {
                    "name": "A3",
                    "midi": 57,
                    "time": 53.74999999999999,
                    "velocity": 0.8661417322834646,
                    "duration": 0.2447916666666643
                },
                {
                    "name": "C#5",
                    "midi": 73,
                    "time": 53.87499999999999,
                    "velocity": 0.8661417322834646,
                    "duration": 0.1197916666666643
                },
                {
                    "name": "F#4",
                    "midi": 66,
                    "time": 53.99999999999999,
                    "velocity": 0.8661417322834646,
                    "duration": 0.1197916666666643
                },
                {
                    "name": "D#3",
                    "midi": 51,
                    "time": 53.99999999999999,
                    "velocity": 0.8661417322834646,
                    "duration": 0.4166666666666643
                },
                {
                    "name": "C#5",
                    "midi": 73,
                    "time": 54.12499999999999,
                    "velocity": 0.8661417322834646,
                    "duration": 0.1197916666666643
                },
                {
                    "name": "B4",
                    "midi": 71,
                    "time": 54.24999999999999,
                    "velocity": 0.8661417322834646,
                    "duration": 0.1197916666666643
                },
                {
                    "name": "B3",
                    "midi": 59,
                    "time": 54.24999999999999,
                    "velocity": 0.8661417322834646,
                    "duration": 0.2447916666666643
                },
                {
                    "name": "A4",
                    "midi": 69,
                    "time": 54.37499999999999,
                    "velocity": 0.8661417322834646,
                    "duration": 0.1197916666666643
                },
                {
                    "name": "G#4",
                    "midi": 68,
                    "time": 54.49999999999999,
                    "velocity": 0.8661417322834646,
                    "duration": 0.1197916666666643
                },
                {
                    "name": "E3",
                    "midi": 52,
                    "time": 54.49999999999999,
                    "velocity": 0.8661417322834646,
                    "duration": 0.4166666666666643
                },
                {
                    "name": "B4",
                    "midi": 71,
                    "time": 54.62499999999999,
                    "velocity": 0.8661417322834646,
                    "duration": 0.1197916666666643
                },
                {
                    "name": "C#5",
                    "midi": 73,
                    "time": 54.74999999999999,
                    "velocity": 0.8661417322834646,
                    "duration": 0.1197916666666643
                },
                {
                    "name": "G#3",
                    "midi": 56,
                    "time": 54.74999999999999,
                    "velocity": 0.8661417322834646,
                    "duration": 0.2447916666666643
                },
                {
                    "name": "D#5",
                    "midi": 75,
                    "time": 54.87499999999999,
                    "velocity": 0.8661417322834646,
                    "duration": 0.1197916666666643
                },
                {
                    "name": "C#5",
                    "midi": 73,
                    "time": 54.99999999999999,
                    "velocity": 0.8661417322834646,
                    "duration": 0.1197916666666643
                },
                {
                    "name": "A3",
                    "midi": 57,
                    "time": 54.99999999999999,
                    "velocity": 0.8661417322834646,
                    "duration": 0.4166666666666643
                },
                {
                    "name": "D#5",
                    "midi": 75,
                    "time": 55.12499999999999,
                    "velocity": 0.8661417322834646,
                    "duration": 0.1197916666666643
                },
                {
                    "name": "D#5",
                    "midi": 75,
                    "time": 55.24999999999999,
                    "velocity": 0.8661417322834646,
                    "duration": 0.1822916666666643
                },
                {
                    "name": "F#3",
                    "midi": 54,
                    "time": 55.24999999999999,
                    "velocity": 0.8661417322834646,
                    "duration": 0.2447916666666643
                },
                {
                    "name": "C#5",
                    "midi": 73,
                    "time": 55.43749999999999,
                    "velocity": 0.8661417322834646,
                    "duration": 0.026041666666664298
                },
                {
                    "name": "D#5",
                    "midi": 75,
                    "time": 55.46874999999999,
                    "velocity": 0.8661417322834646,
                    "duration": 0.026041666666664298
                },
                {
                    "name": "E5",
                    "midi": 76,
                    "time": 55.49999999999999,
                    "velocity": 0.8661417322834646,
                    "duration": 0.4166666666666643
                },
                {
                    "name": "B3",
                    "midi": 59,
                    "time": 55.49999999999999,
                    "velocity": 0.8661417322834646,
                    "duration": 0.4166666666666643
                },
                {
                    "name": "E3",
                    "midi": 52,
                    "time": 55.49999999999999,
                    "velocity": 0.8661417322834646,
                    "duration": 0.2447916666666643
                },
                {
                    "name": "G#4",
                    "midi": 68,
                    "time": 55.62499999999999,
                    "velocity": 0.8661417322834646,
                    "duration": 0.1197916666666643
                },
                {
                    "name": "A4",
                    "midi": 69,
                    "time": 55.74999999999999,
                    "velocity": 0.8661417322834646,
                    "duration": 0.1197916666666643
                },
                {
                    "name": "D3",
                    "midi": 50,
                    "time": 55.74999999999999,
                    "velocity": 0.8661417322834646,
                    "duration": 0.2447916666666643
                },
                {
                    "name": "B4",
                    "midi": 71,
                    "time": 55.87499999999999,
                    "velocity": 0.8661417322834646,
                    "duration": 0.1197916666666643
                },
                {
                    "name": "E4",
                    "midi": 64,
                    "time": 55.99999999999999,
                    "velocity": 0.8661417322834646,
                    "duration": 0.1197916666666643
                },
                {
                    "name": "C#3",
                    "midi": 49,
                    "time": 55.99999999999999,
                    "velocity": 0.8661417322834646,
                    "duration": 0.4166666666666643
                },
                {
                    "name": "A4",
                    "midi": 69,
                    "time": 56.12499999999999,
                    "velocity": 0.8661417322834646,
                    "duration": 0.1197916666666643
                },
                {
                    "name": "B4",
                    "midi": 71,
                    "time": 56.24999999999999,
                    "velocity": 0.8661417322834646,
                    "duration": 0.1197916666666643
                },
                {
                    "name": "A3",
                    "midi": 57,
                    "time": 56.24999999999999,
                    "velocity": 0.8661417322834646,
                    "duration": 0.2447916666666643
                },
                {
                    "name": "C#5",
                    "midi": 73,
                    "time": 56.37499999999999,
                    "velocity": 0.8661417322834646,
                    "duration": 0.1197916666666643
                },
                {
                    "name": "F#4",
                    "midi": 66,
                    "time": 56.49999999999999,
                    "velocity": 0.8661417322834646,
                    "duration": 0.1197916666666643
                },
                {
                    "name": "D3",
                    "midi": 50,
                    "time": 56.49999999999999,
                    "velocity": 0.8661417322834646,
                    "duration": 0.4166666666666643
                },
                {
                    "name": "B4",
                    "midi": 71,
                    "time": 56.62499999999999,
                    "velocity": 0.8661417322834646,
                    "duration": 0.1197916666666643
                },
                {
                    "name": "C#5",
                    "midi": 73,
                    "time": 56.74999999999999,
                    "velocity": 0.8661417322834646,
                    "duration": 0.1197916666666643
                },
                {
                    "name": "B3",
                    "midi": 59,
                    "time": 56.74999999999999,
                    "velocity": 0.8661417322834646,
                    "duration": 0.2447916666666643
                },
                {
                    "name": "D5",
                    "midi": 74,
                    "time": 56.87499999999999,
                    "velocity": 0.8661417322834646,
                    "duration": 0.1197916666666643
                },
                {
                    "name": "G#4",
                    "midi": 68,
                    "time": 56.99999999999999,
                    "velocity": 0.8661417322834646,
                    "duration": 0.1197916666666643
                },
                {
                    "name": "E3",
                    "midi": 52,
                    "time": 56.99999999999999,
                    "velocity": 0.8661417322834646,
                    "duration": 0.4166666666666643
                },
                {
                    "name": "C#5",
                    "midi": 73,
                    "time": 57.12499999999999,
                    "velocity": 0.8661417322834646,
                    "duration": 0.1197916666666643
                },
                {
                    "name": "D5",
                    "midi": 74,
                    "time": 57.24999999999999,
                    "velocity": 0.8661417322834646,
                    "duration": 0.1197916666666643
                },
                {
                    "name": "C#4",
                    "midi": 61,
                    "time": 57.24999999999999,
                    "velocity": 0.8661417322834646,
                    "duration": 0.2447916666666643
                },
                {
                    "name": "E5",
                    "midi": 76,
                    "time": 57.37499999999999,
                    "velocity": 0.8661417322834646,
                    "duration": 0.1197916666666643
                },
                {
                    "name": "A4",
                    "midi": 69,
                    "time": 57.49999999999999,
                    "velocity": 0.8661417322834646,
                    "duration": 0.1197916666666643
                },
                {
                    "name": "F#3",
                    "midi": 54,
                    "time": 57.49999999999999,
                    "velocity": 0.8661417322834646,
                    "duration": 0.4166666666666643
                },
                {
                    "name": "D5",
                    "midi": 74,
                    "time": 57.62499999999999,
                    "velocity": 0.8661417322834646,
                    "duration": 0.1197916666666643
                },
                {
                    "name": "E5",
                    "midi": 76,
                    "time": 57.74999999999999,
                    "velocity": 0.8661417322834646,
                    "duration": 0.1197916666666643
                },
                {
                    "name": "D4",
                    "midi": 62,
                    "time": 57.74999999999999,
                    "velocity": 0.8661417322834646,
                    "duration": 0.2447916666666643
                },
                {
                    "name": "F#5",
                    "midi": 78,
                    "time": 57.87499999999999,
                    "velocity": 0.8661417322834646,
                    "duration": 0.1197916666666643
                },
                {
                    "name": "B4",
                    "midi": 71,
                    "time": 57.99999999999999,
                    "velocity": 0.8661417322834646,
                    "duration": 0.1197916666666643
                },
                {
                    "name": "G#3",
                    "midi": 56,
                    "time": 57.99999999999999,
                    "velocity": 0.8661417322834646,
                    "duration": 0.4166666666666643
                },
                {
                    "name": "F#5",
                    "midi": 78,
                    "time": 58.12499999999999,
                    "velocity": 0.8661417322834646,
                    "duration": 0.1197916666666643
                },
                {
                    "name": "E5",
                    "midi": 76,
                    "time": 58.24999999999999,
                    "velocity": 0.8661417322834646,
                    "duration": 0.1197916666666643
                },
                {
                    "name": "B3",
                    "midi": 59,
                    "time": 58.24999999999999,
                    "velocity": 0.8661417322834646,
                    "duration": 0.2447916666666643
                },
                {
                    "name": "D5",
                    "midi": 74,
                    "time": 58.37499999999999,
                    "velocity": 0.8661417322834646,
                    "duration": 0.1197916666666643
                },
                {
                    "name": "C#5",
                    "midi": 73,
                    "time": 58.49999999999999,
                    "velocity": 0.8661417322834646,
                    "duration": 0.3697916666666643
                },
                {
                    "name": "A3",
                    "midi": 57,
                    "time": 58.49999999999999,
                    "velocity": 0.8661417322834646,
                    "duration": 0.2447916666666643
                },
                {
                    "name": "E5",
                    "midi": 76,
                    "time": 58.62499999999999,
                    "velocity": 0.8661417322834646,
                    "duration": 0.1197916666666643
                },
                {
                    "name": "A5",
                    "midi": 81,
                    "time": 58.74999999999999,
                    "velocity": 0.8661417322834646,
                    "duration": 0.3697916666666643
                },
                {
                    "name": "C#4",
                    "midi": 61,
                    "time": 58.74999999999999,
                    "velocity": 0.8661417322834646,
                    "duration": 0.1197916666666643
                },
                {
                    "name": "C#5",
                    "midi": 73,
                    "time": 58.87499999999999,
                    "velocity": 0.8661417322834646,
                    "duration": 0.1197916666666643
                },
                {
                    "name": "A3",
                    "midi": 57,
                    "time": 58.87499999999999,
                    "velocity": 0.8661417322834646,
                    "duration": 0.1197916666666643
                },
                {
                    "name": "B4",
                    "midi": 71,
                    "time": 58.99999999999999,
                    "velocity": 0.8661417322834646,
                    "duration": 0.3697916666666643
                },
                {
                    "name": "E4",
                    "midi": 64,
                    "time": 58.99999999999999,
                    "velocity": 0.8661417322834646,
                    "duration": 0.1197916666666643
                },
                {
                    "name": "A5",
                    "midi": 81,
                    "time": 59.12499999999999,
                    "velocity": 0.8661417322834646,
                    "duration": 0.1197916666666643
                },
                {
                    "name": "E3",
                    "midi": 52,
                    "time": 59.12499999999999,
                    "velocity": 0.8661417322834646,
                    "duration": 0.1197916666666643
                },
                {
                    "name": "G#5",
                    "midi": 80,
                    "time": 59.24999999999999,
                    "velocity": 0.8661417322834646,
                    "duration": 0.3697916666666643
                },
                {
                    "name": "G#3",
                    "midi": 56,
                    "time": 59.24999999999999,
                    "velocity": 0.8661417322834646,
                    "duration": 0.1197916666666643
                },
                {
                    "name": "B4",
                    "midi": 71,
                    "time": 59.37499999999999,
                    "velocity": 0.8661417322834646,
                    "duration": 0.1197916666666643
                },
                {
                    "name": "E3",
                    "midi": 52,
                    "time": 59.37499999999999,
                    "velocity": 0.8661417322834646,
                    "duration": 0.1197916666666643
                },
                {
                    "name": "A4",
                    "midi": 69,
                    "time": 59.49999999999999,
                    "velocity": 0.8661417322834646,
                    "duration": 0.3697916666666643
                },
                {
                    "name": "A3",
                    "midi": 57,
                    "time": 59.49999999999999,
                    "velocity": 0.8661417322834646,
                    "duration": 0.1197916666666643
                },
                {
                    "name": "G#5",
                    "midi": 80,
                    "time": 59.62499999999999,
                    "velocity": 0.8661417322834646,
                    "duration": 0.1197916666666643
                },
                {
                    "name": "F#3",
                    "midi": 54,
                    "time": 59.62499999999999,
                    "velocity": 0.8661417322834646,
                    "duration": 0.1197916666666643
                },
                {
                    "name": "F#5",
                    "midi": 78,
                    "time": 59.74999999999999,
                    "velocity": 0.8661417322834646,
                    "duration": 0.3697916666666643
                },
                {
                    "name": "A3",
                    "midi": 57,
                    "time": 59.74999999999999,
                    "velocity": 0.8661417322834646,
                    "duration": 0.1197916666666643
                },
                {
                    "name": "A4",
                    "midi": 69,
                    "time": 59.87499999999999,
                    "velocity": 0.8661417322834646,
                    "duration": 0.1197916666666643
                },
                {
                    "name": "F#3",
                    "midi": 54,
                    "time": 59.87499999999999,
                    "velocity": 0.8661417322834646,
                    "duration": 0.1197916666666643
                },
                {
                    "name": "G#4",
                    "midi": 68,
                    "time": 59.99999999999999,
                    "velocity": 0.8661417322834646,
                    "duration": 0.3697916666666643
                },
                {
                    "name": "C#4",
                    "midi": 61,
                    "time": 59.99999999999999,
                    "velocity": 0.8661417322834646,
                    "duration": 0.1197916666666643
                },
                {
                    "name": "F#5",
                    "midi": 78,
                    "time": 60.12499999999999,
                    "velocity": 0.8661417322834646,
                    "duration": 0.1197916666666643
                },
                {
                    "name": "C#3",
                    "midi": 49,
                    "time": 60.12499999999999,
                    "velocity": 0.8661417322834646,
                    "duration": 0.1197916666666643
                },
                {
                    "name": "E5",
                    "midi": 76,
                    "time": 60.24999999999999,
                    "velocity": 0.8661417322834646,
                    "duration": 0.3697916666666643
                },
                {
                    "name": "E3",
                    "midi": 52,
                    "time": 60.24999999999999,
                    "velocity": 0.8661417322834646,
                    "duration": 0.1197916666666643
                },
                {
                    "name": "G#4",
                    "midi": 68,
                    "time": 60.37499999999999,
                    "velocity": 0.8661417322834646,
                    "duration": 0.1197916666666643
                },
                {
                    "name": "C#3",
                    "midi": 49,
                    "time": 60.37499999999999,
                    "velocity": 0.8661417322834646,
                    "duration": 0.1197916666666643
                },
                {
                    "name": "F#4",
                    "midi": 66,
                    "time": 60.49999999999999,
                    "velocity": 0.8661417322834646,
                    "duration": 0.3697916666666643
                },
                {
                    "name": "F#3",
                    "midi": 54,
                    "time": 60.49999999999999,
                    "velocity": 0.8661417322834646,
                    "duration": 0.1197916666666643
                },
                {
                    "name": "E5",
                    "midi": 76,
                    "time": 60.62499999999999,
                    "velocity": 0.8661417322834646,
                    "duration": 0.1197916666666643
                },
                {
                    "name": "D3",
                    "midi": 50,
                    "time": 60.62499999999999,
                    "velocity": 0.8661417322834646,
                    "duration": 0.1197916666666643
                },
                {
                    "name": "D5",
                    "midi": 74,
                    "time": 60.74999999999999,
                    "velocity": 0.8661417322834646,
                    "duration": 0.3697916666666643
                },
                {
                    "name": "F#3",
                    "midi": 54,
                    "time": 60.74999999999999,
                    "velocity": 0.8661417322834646,
                    "duration": 0.1197916666666643
                },
                {
                    "name": "F#4",
                    "midi": 66,
                    "time": 60.87499999999999,
                    "velocity": 0.8661417322834646,
                    "duration": 0.1197916666666643
                },
                {
                    "name": "D3",
                    "midi": 50,
                    "time": 60.87499999999999,
                    "velocity": 0.8661417322834646,
                    "duration": 0.1197916666666643
                },
                {
                    "name": "E4",
                    "midi": 64,
                    "time": 60.99999999999999,
                    "velocity": 0.8661417322834646,
                    "duration": 0.3697916666666643
                },
                {
                    "name": "A3",
                    "midi": 57,
                    "time": 60.99999999999999,
                    "velocity": 0.8661417322834646,
                    "duration": 0.1197916666666643
                },
                {
                    "name": "D5",
                    "midi": 74,
                    "time": 61.12499999999999,
                    "velocity": 0.8661417322834646,
                    "duration": 0.1197916666666643
                },
                {
                    "name": "A2",
                    "midi": 45,
                    "time": 61.12499999999999,
                    "velocity": 0.8661417322834646,
                    "duration": 0.1197916666666643
                },
                {
                    "name": "C#5",
                    "midi": 73,
                    "time": 61.24999999999999,
                    "velocity": 0.8661417322834646,
                    "duration": 0.2447916666666643
                },
                {
                    "name": "C#3",
                    "midi": 49,
                    "time": 61.24999999999999,
                    "velocity": 0.8661417322834646,
                    "duration": 0.1197916666666643
                },
                {
                    "name": "E4",
                    "midi": 64,
                    "time": 61.37499999999999,
                    "velocity": 0.8661417322834646,
                    "duration": 0.1197916666666643
                },
                {
                    "name": "A2",
                    "midi": 45,
                    "time": 61.37499999999999,
                    "velocity": 0.8661417322834646,
                    "duration": 0.1197916666666643
                },
                {
                    "name": "F#4",
                    "midi": 66,
                    "time": 61.49999999999999,
                    "velocity": 0.8661417322834646,
                    "duration": 0.4166666666666643
                },
                {
                    "name": "D3",
                    "midi": 50,
                    "time": 61.49999999999999,
                    "velocity": 0.8661417322834646,
                    "duration": 0.2447916666666643
                },
                {
                    "name": "B4",
                    "midi": 71,
                    "time": 61.62499999999999,
                    "velocity": 0.8661417322834646,
                    "duration": 0.1197916666666643
                },
                {
                    "name": "C#5",
                    "midi": 73,
                    "time": 61.74999999999999,
                    "velocity": 0.8661417322834646,
                    "duration": 0.1197916666666643
                },
                {
                    "name": "B2",
                    "midi": 47,
                    "time": 61.74999999999999,
                    "velocity": 0.8661417322834646,
                    "duration": 0.2447916666666643
                },
                {
                    "name": "D5",
                    "midi": 74,
                    "time": 61.87499999999999,
                    "velocity": 0.8661417322834646,
                    "duration": 0.1197916666666643
                },
                {
                    "name": "G#4",
                    "midi": 68,
                    "time": 61.99999999999999,
                    "velocity": 0.8661417322834646,
                    "duration": 0.4166666666666643
                },
                {
                    "name": "E3",
                    "midi": 52,
                    "time": 61.99999999999999,
                    "velocity": 0.8661417322834646,
                    "duration": 0.2447916666666643
                },
                {
                    "name": "C#5",
                    "midi": 73,
                    "time": 62.12499999999999,
                    "velocity": 0.8661417322834646,
                    "duration": 0.1197916666666643
                },
                {
                    "name": "D5",
                    "midi": 74,
                    "time": 62.24999999999999,
                    "velocity": 0.8661417322834646,
                    "duration": 0.1197916666666643
                },
                {
                    "name": "C#3",
                    "midi": 49,
                    "time": 62.24999999999999,
                    "velocity": 0.8661417322834646,
                    "duration": 0.2447916666666643
                },
                {
                    "name": "E5",
                    "midi": 76,
                    "time": 62.37499999999999,
                    "velocity": 0.8661417322834646,
                    "duration": 0.1197916666666643
                },
                {
                    "name": "A4",
                    "midi": 69,
                    "time": 62.49999999999999,
                    "velocity": 0.8661417322834646,
                    "duration": 0.4166666666666643
                },
                {
                    "name": "F#3",
                    "midi": 54,
                    "time": 62.49999999999999,
                    "velocity": 0.8661417322834646,
                    "duration": 0.2447916666666643
                },
                {
                    "name": "F#5",
                    "midi": 78,
                    "time": 62.62499999999999,
                    "velocity": 0.8661417322834646,
                    "duration": 0.1197916666666643
                },
                {
                    "name": "G#5",
                    "midi": 80,
                    "time": 62.74999999999999,
                    "velocity": 0.8661417322834646,
                    "duration": 0.1197916666666643
                },
                {
                    "name": "D4",
                    "midi": 62,
                    "time": 62.74999999999999,
                    "velocity": 0.8661417322834646,
                    "duration": 0.2447916666666643
                },
                {
                    "name": "A5",
                    "midi": 81,
                    "time": 62.87499999999999,
                    "velocity": 0.8661417322834646,
                    "duration": 0.1197916666666643
                },
                {
                    "name": "B4",
                    "midi": 71,
                    "time": 62.99999999999999,
                    "velocity": 0.8661417322834646,
                    "duration": 0.1197916666666643
                },
                {
                    "name": "G#3",
                    "midi": 56,
                    "time": 62.99999999999999,
                    "velocity": 0.8661417322834646,
                    "duration": 0.2447916666666643
                },
                {
                    "name": "A5",
                    "midi": 81,
                    "time": 63.12499999999999,
                    "velocity": 0.8661417322834646,
                    "duration": 0.1197916666666643
                },
                {
                    "name": "F#5",
                    "midi": 78,
                    "time": 63.12499999999999,
                    "velocity": 0.8661417322834646,
                    "duration": 0.1197916666666643
                },
                {
                    "name": "G#5",
                    "midi": 80,
                    "time": 63.24999999999999,
                    "velocity": 0.8661417322834646,
                    "duration": 0.1197916666666643
                },
                {
                    "name": "E5",
                    "midi": 76,
                    "time": 63.24999999999999,
                    "velocity": 0.8661417322834646,
                    "duration": 0.1197916666666643
                },
                {
                    "name": "G#2",
                    "midi": 44,
                    "time": 63.24999999999999,
                    "velocity": 0.8661417322834646,
                    "duration": 0.2447916666666643
                },
                {
                    "name": "F#5",
                    "midi": 78,
                    "time": 63.37499999999999,
                    "velocity": 0.8661417322834646,
                    "duration": 0.1197916666666643
                },
                {
                    "name": "D5",
                    "midi": 74,
                    "time": 63.37499999999999,
                    "velocity": 0.8661417322834646,
                    "duration": 0.1197916666666643
                },
                {
                    "name": "E5",
                    "midi": 76,
                    "time": 63.49999999999999,
                    "velocity": 0.8661417322834646,
                    "duration": 0.2447916666666643
                },
                {
                    "name": "C#5",
                    "midi": 73,
                    "time": 63.49999999999999,
                    "velocity": 0.8661417322834646,
                    "duration": 0.2447916666666643
                },
                {
                    "name": "A2",
                    "midi": 45,
                    "time": 63.49999999999999,
                    "velocity": 0.8661417322834646,
                    "duration": 0.2447916666666643
                },
                {
                    "name": "D5",
                    "midi": 74,
                    "time": 63.74999999999999,
                    "velocity": 0.8661417322834646,
                    "duration": 0.1197916666666643
                },
                {
                    "name": "B4",
                    "midi": 71,
                    "time": 63.74999999999999,
                    "velocity": 0.8661417322834646,
                    "duration": 0.1197916666666643
                },
                {
                    "name": "D3",
                    "midi": 50,
                    "time": 63.74999999999999,
                    "velocity": 0.8661417322834646,
                    "duration": 0.2447916666666643
                },
                {
                    "name": "C#5",
                    "midi": 73,
                    "time": 63.87499999999999,
                    "velocity": 0.8661417322834646,
                    "duration": 0.1197916666666643
                },
                {
                    "name": "A4",
                    "midi": 69,
                    "time": 63.87499999999999,
                    "velocity": 0.8661417322834646,
                    "duration": 0.1197916666666643
                },
                {
                    "name": "C#5",
                    "midi": 73,
                    "time": 63.99999999999999,
                    "velocity": 0.8661417322834646,
                    "duration": 0.2447916666666643
                },
                {
                    "name": "A4",
                    "midi": 69,
                    "time": 63.99999999999999,
                    "velocity": 0.8661417322834646,
                    "duration": 0.2447916666666643
                },
                {
                    "name": "E3",
                    "midi": 52,
                    "time": 63.99999999999999,
                    "velocity": 0.8661417322834646,
                    "duration": 0.2447916666666643
                },
                {
                    "name": "G#4",
                    "midi": 68,
                    "time": 64.24999999999999,
                    "velocity": 0.8661417322834646,
                    "duration": 0.2447916666666714
                },
                {
                    "name": "E2",
                    "midi": 40,
                    "time": 64.24999999999999,
                    "velocity": 0.8661417322834646,
                    "duration": 0.2447916666666714
                },
                {
                    "name": "C#5",
                    "midi": 73,
                    "time": 64.24999999999999,
                    "velocity": 0.8661417322834646,
                    "duration": 0.03125
                },
                {
                    "name": "B4",
                    "midi": 71,
                    "time": 64.28124999999999,
                    "velocity": 0.8661417322834646,
                    "duration": 0.03125
                },
                {
                    "name": "C#5",
                    "midi": 73,
                    "time": 64.31249999999999,
                    "velocity": 0.8661417322834646,
                    "duration": 0.03125
                },
                {
                    "name": "B4",
                    "midi": 71,
                    "time": 64.34374999999999,
                    "velocity": 0.8661417322834646,
                    "duration": 0.026041666666671404
                },
                {
                    "name": "A4",
                    "midi": 69,
                    "time": 64.37499999999999,
                    "velocity": 0.8661417322834646,
                    "duration": 0.1197916666666714
                },
                {
                    "name": "A4",
                    "midi": 69,
                    "time": 64.49999999999999,
                    "velocity": 0.8661417322834646,
                    "duration": 0.4166666666666714
                },
                {
                    "name": "A2",
                    "midi": 45,
                    "time": 64.49999999999999,
                    "velocity": 0.8661417322834646,
                    "duration": 0.875
                },
                {
                    "name": "D4",
                    "midi": 62,
                    "time": 64.62499999999999,
                    "velocity": 0.8661417322834646,
                    "duration": 0.1197916666666714
                },
                {
                    "name": "E4",
                    "midi": 64,
                    "time": 64.74999999999999,
                    "velocity": 0.8661417322834646,
                    "duration": 0.1197916666666714
                },
                {
                    "name": "A3",
                    "midi": 57,
                    "time": 64.74999999999999,
                    "velocity": 0.8661417322834646,
                    "duration": 0.2447916666666714
                },
                {
                    "name": "C#4",
                    "midi": 61,
                    "time": 64.87499999999999,
                    "velocity": 0.8661417322834646,
                    "duration": 0.1197916666666714
                },
                {
                    "name": "D4",
                    "midi": 62,
                    "time": 64.99999999999999,
                    "velocity": 0.8661417322834646,
                    "duration": 0.4166666666666714
                },
                {
                    "name": "B3",
                    "midi": 59,
                    "time": 64.99999999999999,
                    "velocity": 0.8661417322834646,
                    "duration": 0.4166666666666714
                },
                {
                    "name": "F#4",
                    "midi": 66,
                    "time": 65.12499999999999,
                    "velocity": 0.8661417322834646,
                    "duration": 0.1197916666666714
                },
                {
                    "name": "D5",
                    "midi": 74,
                    "time": 65.24999999999999,
                    "velocity": 0.8661417322834646,
                    "duration": 0.1197916666666714
                },
                {
                    "name": "G#4",
                    "midi": 68,
                    "time": 65.37499999999999,
                    "velocity": 0.8661417322834646,
                    "duration": 0.1197916666666714
                },
                {
                    "name": "A4",
                    "midi": 69,
                    "time": 65.49999999999999,
                    "velocity": 0.8661417322834646,
                    "duration": 0.4166666666666714
                },
                {
                    "name": "E4",
                    "midi": 64,
                    "time": 65.49999999999999,
                    "velocity": 0.8661417322834646,
                    "duration": 0.4166666666666714
                },
                {
                    "name": "C#4",
                    "midi": 61,
                    "time": 65.49999999999999,
                    "velocity": 0.8661417322834646,
                    "duration": 0.4166666666666714
                },
                {
                    "name": "A3",
                    "midi": 57,
                    "time": 65.49999999999999,
                    "velocity": 0.8661417322834646,
                    "duration": 0.4166666666666714
                },
                {
                    "name": "A2",
                    "midi": 45,
                    "time": 65.49999999999999,
                    "velocity": 0.8661417322834646,
                    "duration": 0.4166666666666714
                },
                {
                    "name": "B4",
                    "midi": 71,
                    "time": 66.12499999999999,
                    "velocity": 0.8661417322834646,
                    "duration": 0.1197916666666714
                },
                {
                    "name": "C#5",
                    "midi": 73,
                    "time": 66.24999999999999,
                    "velocity": 0.8661417322834646,
                    "duration": 0.041666666666671404
                },
                {
                    "name": "B4",
                    "midi": 71,
                    "time": 66.29166666666666,
                    "velocity": 0.8661417322834646,
                    "duration": 0.041666666666671404
                },
                {
                    "name": "C#5",
                    "midi": 73,
                    "time": 66.33333333333333,
                    "velocity": 0.8661417322834646,
                    "duration": 0.0989583333333286
                },
                {
                    "name": "D#5",
                    "midi": 75,
                    "time": 66.43749999999999,
                    "velocity": 0.8661417322834646,
                    "duration": 0.057291666666671404
                },
                {
                    "name": "E5",
                    "midi": 76,
                    "time": 66.49999999999999,
                    "velocity": 0.8661417322834646,
                    "duration": 0.2447916666666714
                },
                {
                    "name": "E4",
                    "midi": 64,
                    "time": 66.62499999999999,
                    "velocity": 0.8661417322834646,
                    "duration": 0.1197916666666714
                },
                {
                    "name": "F#4",
                    "midi": 66,
                    "time": 66.74999999999999,
                    "velocity": 0.8661417322834646,
                    "duration": 0.1197916666666714
                },
                {
                    "name": "D4",
                    "midi": 62,
                    "time": 66.74999999999999,
                    "velocity": 0.8661417322834646,
                    "duration": 0.1197916666666714
                },
                {
                    "name": "G#4",
                    "midi": 68,
                    "time": 66.87499999999999,
                    "velocity": 0.8661417322834646,
                    "duration": 0.1197916666666714
                },
                {
                    "name": "C#4",
                    "midi": 61,
                    "time": 66.87499999999999,
                    "velocity": 0.8661417322834646,
                    "duration": 0.1197916666666714
                },
                {
                    "name": "G#4",
                    "midi": 68,
                    "time": 66.99999999999999,
                    "velocity": 0.8661417322834646,
                    "duration": 0.3697916666666714
                },
                {
                    "name": "B3",
                    "midi": 59,
                    "time": 66.99999999999999,
                    "velocity": 0.8661417322834646,
                    "duration": 0.1197916666666714
                },
                {
                    "name": "E4",
                    "midi": 64,
                    "time": 67.12499999999999,
                    "velocity": 0.8661417322834646,
                    "duration": 0.1197916666666714
                },
                {
                    "name": "D4",
                    "midi": 62,
                    "time": 67.24999999999999,
                    "velocity": 0.8661417322834646,
                    "duration": 0.1197916666666714
                },
                {
                    "name": "F#4",
                    "midi": 66,
                    "time": 67.37499999999999,
                    "velocity": 0.8661417322834646,
                    "duration": 0.057291666666671404
                },
                {
                    "name": "E4",
                    "midi": 64,
                    "time": 67.37499999999999,
                    "velocity": 0.8661417322834646,
                    "duration": 0.1197916666666714
                },
                {
                    "name": "G#4",
                    "midi": 68,
                    "time": 67.43749999999999,
                    "velocity": 0.8661417322834646,
                    "duration": 0.057291666666671404
                },
                {
                    "name": "A4",
                    "midi": 69,
                    "time": 67.49999999999999,
                    "velocity": 0.8661417322834646,
                    "duration": 0.4166666666666714
                },
                {
                    "name": "C#4",
                    "midi": 61,
                    "time": 67.49999999999999,
                    "velocity": 0.8661417322834646,
                    "duration": 0.4166666666666714
                },
                {
                    "name": "E3",
                    "midi": 52,
                    "time": 67.62499999999999,
                    "velocity": 0.8661417322834646,
                    "duration": 0.1197916666666714
                },
                {
                    "name": "F#3",
                    "midi": 54,
                    "time": 67.74999999999999,
                    "velocity": 0.8661417322834646,
                    "duration": 0.1197916666666714
                },
                {
                    "name": "G#3",
                    "midi": 56,
                    "time": 67.87499999999999,
                    "velocity": 0.8661417322834646,
                    "duration": 0.1197916666666714
                },
                {
                    "name": "A3",
                    "midi": 57,
                    "time": 67.99999999999999,
                    "velocity": 0.8661417322834646,
                    "duration": 0.2447916666666714
                },
                {
                    "name": "E5",
                    "midi": 76,
                    "time": 68.12499999999999,
                    "velocity": 0.8661417322834646,
                    "duration": 0.1197916666666714
                },
                {
                    "name": "F#5",
                    "midi": 78,
                    "time": 68.24999999999999,
                    "velocity": 0.8661417322834646,
                    "duration": 0.1197916666666714
                },
                {
                    "name": "G3",
                    "midi": 55,
                    "time": 68.24999999999999,
                    "velocity": 0.8661417322834646,
                    "duration": 0.2447916666666714
                },
                {
                    "name": "G#5",
                    "midi": 80,
                    "time": 68.37499999999999,
                    "velocity": 0.8661417322834646,
                    "duration": 0.1197916666666714
                },
                {
                    "name": "A5",
                    "midi": 81,
                    "time": 68.49999999999999,
                    "velocity": 0.8661417322834646,
                    "duration": 0.2447916666666714
                },
                {
                    "name": "F#3",
                    "midi": 54,
                    "time": 68.49999999999999,
                    "velocity": 0.8661417322834646,
                    "duration": 0.2447916666666714
                },
                {
                    "name": "A4",
                    "midi": 69,
                    "time": 68.62499999999999,
                    "velocity": 0.8661417322834646,
                    "duration": 0.1197916666666714
                },
                {
                    "name": "B4",
                    "midi": 71,
                    "time": 68.74999999999999,
                    "velocity": 0.8661417322834646,
                    "duration": 0.1197916666666714
                },
                {
                    "name": "G4",
                    "midi": 67,
                    "time": 68.74999999999999,
                    "velocity": 0.8661417322834646,
                    "duration": 0.1197916666666714
                },
                {
                    "name": "G3",
                    "midi": 55,
                    "time": 68.74999999999999,
                    "velocity": 0.8661417322834646,
                    "duration": 0.2447916666666714
                },
                {
                    "name": "C#5",
                    "midi": 73,
                    "time": 68.87499999999999,
                    "velocity": 0.8661417322834646,
                    "duration": 0.1197916666666714
                },
                {
                    "name": "F#4",
                    "midi": 66,
                    "time": 68.87499999999999,
                    "velocity": 0.8661417322834646,
                    "duration": 0.1197916666666714
                },
                {
                    "name": "D5",
                    "midi": 74,
                    "time": 68.99999999999999,
                    "velocity": 0.8661417322834646,
                    "duration": 0.2447916666666714
                },
                {
                    "name": "E4",
                    "midi": 64,
                    "time": 68.99999999999999,
                    "velocity": 0.8661417322834646,
                    "duration": 0.1197916666666714
                },
                {
                    "name": "A3",
                    "midi": 57,
                    "time": 68.99999999999999,
                    "velocity": 0.8661417322834646,
                    "duration": 0.4166666666666714
                },
                {
                    "name": "A4",
                    "midi": 69,
                    "time": 69.12499999999999,
                    "velocity": 0.8661417322834646,
                    "duration": 0.1197916666666714
                },
                {
                    "name": "G4",
                    "midi": 67,
                    "time": 69.24999999999999,
                    "velocity": 0.8661417322834646,
                    "duration": 0.1197916666666714
                },
                {
                    "name": "D5",
                    "midi": 74,
                    "time": 69.24999999999999,
                    "velocity": 0.8661417322834646,
                    "duration": 0.041666666666671404
                },
                {
                    "name": "C#5",
                    "midi": 73,
                    "time": 69.29166666666666,
                    "velocity": 0.8661417322834646,
                    "duration": 0.041666666666671404
                },
                {
                    "name": "D5",
                    "midi": 74,
                    "time": 69.33333333333333,
                    "velocity": 0.8661417322834646,
                    "duration": 0.04166666666665719
                },
                {
                    "name": "A4",
                    "midi": 69,
                    "time": 69.37499999999999,
                    "velocity": 0.8661417322834646,
                    "duration": 0.1197916666666714
                },
                {
                    "name": "C#5",
                    "midi": 73,
                    "time": 69.37499999999999,
                    "velocity": 0.8661417322834646,
                    "duration": 0.1197916666666714
                },
                {
                    "name": "D5",
                    "midi": 74,
                    "time": 69.49999999999999,
                    "velocity": 0.8661417322834646,
                    "duration": 0.4166666666666856
                },
                {
                    "name": "F#4",
                    "midi": 66,
                    "time": 69.49999999999999,
                    "velocity": 0.8661417322834646,
                    "duration": 0.4166666666666856
                },
                {
                    "name": "D3",
                    "midi": 50,
                    "time": 69.49999999999999,
                    "velocity": 0.8661417322834646,
                    "duration": 0.1197916666666714
                },
                {
                    "name": "D4",
                    "midi": 62,
                    "time": 69.62499999999999,
                    "velocity": 0.8661417322834646,
                    "duration": 0.1197916666666714
                },
                {
                    "name": "D4",
                    "midi": 62,
                    "time": 69.74999999999999,
                    "velocity": 0.8661417322834646,
                    "duration": 0.041666666666671404
                },
                {
                    "name": "C#4",
                    "midi": 61,
                    "time": 69.79166666666666,
                    "velocity": 0.8661417322834646,
                    "duration": 0.041666666666671404
                },
                {
                    "name": "D4",
                    "midi": 62,
                    "time": 69.83333333333333,
                    "velocity": 0.8661417322834646,
                    "duration": 0.041666666666671404
                },
                {
                    "name": "C#4",
                    "midi": 61,
                    "time": 69.875,
                    "velocity": 0.8661417322834646,
                    "duration": 0.057291666666671404
                },
                {
                    "name": "B3",
                    "midi": 59,
                    "time": 69.9375,
                    "velocity": 0.8661417322834646,
                    "duration": 0.057291666666671404
                },
                {
                    "name": "A#3",
                    "midi": 58,
                    "time": 70,
                    "velocity": 0.8661417322834646,
                    "duration": 0.4166666666666714
                },
                {
                    "name": "F#5",
                    "midi": 78,
                    "time": 70.125,
                    "velocity": 0.8661417322834646,
                    "duration": 0.1197916666666714
                },
                {
                    "name": "E5",
                    "midi": 76,
                    "time": 70.25,
                    "velocity": 0.8661417322834646,
                    "duration": 0.1197916666666714
                },
                {
                    "name": "F#4",
                    "midi": 66,
                    "time": 70.25,
                    "velocity": 0.8661417322834646,
                    "duration": 0.3697916666666714
                },
                {
                    "name": "C#5",
                    "midi": 73,
                    "time": 70.375,
                    "velocity": 0.8661417322834646,
                    "duration": 0.1197916666666714
                },
                {
                    "name": "D5",
                    "midi": 74,
                    "time": 70.5,
                    "velocity": 0.8661417322834646,
                    "duration": 0.2447916666666714
                },
                {
                    "name": "B3",
                    "midi": 59,
                    "time": 70.5,
                    "velocity": 0.8661417322834646,
                    "duration": 0.2447916666666714
                },
                {
                    "name": "F#4",
                    "midi": 66,
                    "time": 70.625,
                    "velocity": 0.8661417322834646,
                    "duration": 0.2447916666666714
                },
                {
                    "name": "C#5",
                    "midi": 73,
                    "time": 70.75,
                    "velocity": 0.8661417322834646,
                    "duration": 0.1197916666666714
                },
                {
                    "name": "A3",
                    "midi": 57,
                    "time": 70.75,
                    "velocity": 0.8661417322834646,
                    "duration": 0.2447916666666714
                },
                {
                    "name": "D5",
                    "midi": 74,
                    "time": 70.875,
                    "velocity": 0.8661417322834646,
                    "duration": 0.1197916666666714
                },
                {
                    "name": "F#4",
                    "midi": 66,
                    "time": 70.875,
                    "velocity": 0.8661417322834646,
                    "duration": 0.2447916666666714
                },
                {
                    "name": "B4",
                    "midi": 71,
                    "time": 71,
                    "velocity": 0.8661417322834646,
                    "duration": 0.3697916666666714
                },
                {
                    "name": "G3",
                    "midi": 55,
                    "time": 71,
                    "velocity": 0.8661417322834646,
                    "duration": 0.4166666666666714
                },
                {
                    "name": "F#4",
                    "midi": 66,
                    "time": 71.125,
                    "velocity": 0.8661417322834646,
                    "duration": 0.1197916666666714
                },
                {
                    "name": "E4",
                    "midi": 64,
                    "time": 71.25,
                    "velocity": 0.8661417322834646,
                    "duration": 0.4947916666666714
                },
                {
                    "name": "B4",
                    "midi": 71,
                    "time": 71.375,
                    "velocity": 0.8661417322834646,
                    "duration": 0.1197916666666714
                },
                {
                    "name": "F#5",
                    "midi": 78,
                    "time": 71.5,
                    "velocity": 0.8661417322834646,
                    "duration": 0.1197916666666714
                },
                {
                    "name": "F#3",
                    "midi": 54,
                    "time": 71.5,
                    "velocity": 0.8661417322834646,
                    "duration": 0.4166666666666714
                },
                {
                    "name": "A#4",
                    "midi": 70,
                    "time": 71.625,
                    "velocity": 0.8661417322834646,
                    "duration": 0.1197916666666714
                },
                {
                    "name": "B4",
                    "midi": 71,
                    "time": 71.75,
                    "velocity": 0.8661417322834646,
                    "duration": 0.1197916666666714
                },
                {
                    "name": "E4",
                    "midi": 64,
                    "time": 71.75,
                    "velocity": 0.8661417322834646,
                    "duration": 0.2447916666666714
                },
                {
                    "name": "C#5",
                    "midi": 73,
                    "time": 71.875,
                    "velocity": 0.8661417322834646,
                    "duration": 0.1197916666666714
                },
                {
                    "name": "F#4",
                    "midi": 66,
                    "time": 72,
                    "velocity": 0.8661417322834646,
                    "duration": 0.1197916666666714
                },
                {
                    "name": "D4",
                    "midi": 62,
                    "time": 72,
                    "velocity": 0.8661417322834646,
                    "duration": 0.2447916666666714
                },
                {
                    "name": "F#5",
                    "midi": 78,
                    "time": 72.125,
                    "velocity": 0.8661417322834646,
                    "duration": 0.1197916666666714
                },
                {
                    "name": "E5",
                    "midi": 76,
                    "time": 72.25,
                    "velocity": 0.8661417322834646,
                    "duration": 0.1197916666666714
                },
                {
                    "name": "C#4",
                    "midi": 61,
                    "time": 72.25,
                    "velocity": 0.8661417322834646,
                    "duration": 0.1197916666666714
                },
                {
                    "name": "D5",
                    "midi": 74,
                    "time": 72.375,
                    "velocity": 0.8661417322834646,
                    "duration": 0.1197916666666714
                },
                {
                    "name": "B3",
                    "midi": 59,
                    "time": 72.375,
                    "velocity": 0.8661417322834646,
                    "duration": 0.1197916666666714
                },
                {
                    "name": "E5",
                    "midi": 76,
                    "time": 72.5,
                    "velocity": 0.8661417322834646,
                    "duration": 0.1197916666666714
                },
                {
                    "name": "C#4",
                    "midi": 61,
                    "time": 72.5,
                    "velocity": 0.8661417322834646,
                    "duration": 0.1197916666666714
                },
                {
                    "name": "C#5",
                    "midi": 73,
                    "time": 72.625,
                    "velocity": 0.8661417322834646,
                    "duration": 0.1197916666666714
                },
                {
                    "name": "A#3",
                    "midi": 58,
                    "time": 72.625,
                    "velocity": 0.8661417322834646,
                    "duration": 0.1197916666666714
                },
                {
                    "name": "D5",
                    "midi": 74,
                    "time": 72.75,
                    "velocity": 0.8661417322834646,
                    "duration": 0.1197916666666714
                },
                {
                    "name": "B4",
                    "midi": 71,
                    "time": 72.75,
                    "velocity": 0.8661417322834646,
                    "duration": 0.2447916666666714
                },
                {
                    "name": "B3",
                    "midi": 59,
                    "time": 72.75,
                    "velocity": 0.8661417322834646,
                    "duration": 0.1197916666666714
                },
                {
                    "name": "E5",
                    "midi": 76,
                    "time": 72.875,
                    "velocity": 0.8661417322834646,
                    "duration": 0.1197916666666714
                },
                {
                    "name": "E3",
                    "midi": 52,
                    "time": 72.875,
                    "velocity": 0.8661417322834646,
                    "duration": 0.1197916666666714
                },
                {
                    "name": "D5",
                    "midi": 74,
                    "time": 73,
                    "velocity": 0.8661417322834646,
                    "duration": 0.2447916666666714
                },
                {
                    "name": "B4",
                    "midi": 71,
                    "time": 73,
                    "velocity": 0.8661417322834646,
                    "duration": 0.2447916666666714
                },
                {
                    "name": "F#3",
                    "midi": 54,
                    "time": 73,
                    "velocity": 0.8661417322834646,
                    "duration": 0.2447916666666714
                },
                {
                    "name": "F#4",
                    "midi": 66,
                    "time": 73.125,
                    "velocity": 0.8661417322834646,
                    "duration": 0.2447916666666714
                },
                {
                    "name": "C#5",
                    "midi": 73,
                    "time": 73.25,
                    "velocity": 0.8661417322834646,
                    "duration": 0.2447916666666714
                },
                {
                    "name": "A#4",
                    "midi": 70,
                    "time": 73.25,
                    "velocity": 0.8661417322834646,
                    "duration": 0.2447916666666714
                },
                {
                    "name": "F#2",
                    "midi": 42,
                    "time": 73.25,
                    "velocity": 0.8661417322834646,
                    "duration": 0.2447916666666714
                },
                {
                    "name": "E4",
                    "midi": 64,
                    "time": 73.375,
                    "velocity": 0.8661417322834646,
                    "duration": 0.1197916666666714
                },
                {
                    "name": "B4",
                    "midi": 71,
                    "time": 73.5,
                    "velocity": 0.8661417322834646,
                    "duration": 0.4166666666666714
                },
                {
                    "name": "B2",
                    "midi": 47,
                    "time": 73.5,
                    "velocity": 0.8661417322834646,
                    "duration": 0.4166666666666714
                },
                {
                    "name": "D#4",
                    "midi": 63,
                    "time": 73.625,
                    "velocity": 0.8661417322834646,
                    "duration": 0.1197916666666714
                },
                {
                    "name": "E4",
                    "midi": 64,
                    "time": 73.75,
                    "velocity": 0.8661417322834646,
                    "duration": 0.1197916666666714
                },
                {
                    "name": "A3",
                    "midi": 57,
                    "time": 73.75,
                    "velocity": 0.8661417322834646,
                    "duration": 0.2447916666666714
                },
                {
                    "name": "F#4",
                    "midi": 66,
                    "time": 73.875,
                    "velocity": 0.8661417322834646,
                    "duration": 0.1197916666666714
                },
                {
                    "name": "B3",
                    "midi": 59,
                    "time": 74,
                    "velocity": 0.8661417322834646,
                    "duration": 0.1197916666666714
                },
                {
                    "name": "G#3",
                    "midi": 56,
                    "time": 74,
                    "velocity": 0.8661417322834646,
                    "duration": 0.2447916666666714
                },
                {
                    "name": "E4",
                    "midi": 64,
                    "time": 74.125,
                    "velocity": 0.8661417322834646,
                    "duration": 0.1197916666666714
                },
                {
                    "name": "F#4",
                    "midi": 66,
                    "time": 74.25,
                    "velocity": 0.8661417322834646,
                    "duration": 0.1197916666666714
                },
                {
                    "name": "F#3",
                    "midi": 54,
                    "time": 74.25,
                    "velocity": 0.8661417322834646,
                    "duration": 0.2447916666666714
                },
                {
                    "name": "G#4",
                    "midi": 68,
                    "time": 74.375,
                    "velocity": 0.8661417322834646,
                    "duration": 0.1197916666666714
                },
                {
                    "name": "C#4",
                    "midi": 61,
                    "time": 74.5,
                    "velocity": 0.8661417322834646,
                    "duration": 0.1197916666666714
                },
                {
                    "name": "A2",
                    "midi": 45,
                    "time": 74.5,
                    "velocity": 0.8661417322834646,
                    "duration": 0.4166666666666714
                },
                {
                    "name": "F#4",
                    "midi": 66,
                    "time": 74.625,
                    "velocity": 0.8661417322834646,
                    "duration": 0.1197916666666714
                },
                {
                    "name": "G#4",
                    "midi": 68,
                    "time": 74.75,
                    "velocity": 0.8661417322834646,
                    "duration": 0.1197916666666714
                },
                {
                    "name": "F#3",
                    "midi": 54,
                    "time": 74.75,
                    "velocity": 0.8661417322834646,
                    "duration": 0.2447916666666714
                },
                {
                    "name": "A4",
                    "midi": 69,
                    "time": 74.875,
                    "velocity": 0.8661417322834646,
                    "duration": 0.1197916666666714
                },
                {
                    "name": "D#4",
                    "midi": 63,
                    "time": 75,
                    "velocity": 0.8661417322834646,
                    "duration": 0.1197916666666714
                },
                {
                    "name": "B2",
                    "midi": 47,
                    "time": 75,
                    "velocity": 0.8661417322834646,
                    "duration": 0.4166666666666714
                },
                {
                    "name": "G#4",
                    "midi": 68,
                    "time": 75.125,
                    "velocity": 0.8661417322834646,
                    "duration": 0.1197916666666714
                },
                {
                    "name": "A4",
                    "midi": 69,
                    "time": 75.25,
                    "velocity": 0.8661417322834646,
                    "duration": 0.1197916666666714
                },
                {
                    "name": "G#3",
                    "midi": 56,
                    "time": 75.25,
                    "velocity": 0.8661417322834646,
                    "duration": 0.2447916666666714
                },
                {
                    "name": "B4",
                    "midi": 71,
                    "time": 75.375,
                    "velocity": 0.8661417322834646,
                    "duration": 0.1197916666666714
                },
                {
                    "name": "E4",
                    "midi": 64,
                    "time": 75.5,
                    "velocity": 0.8661417322834646,
                    "duration": 0.1197916666666714
                },
                {
                    "name": "C#3",
                    "midi": 49,
                    "time": 75.5,
                    "velocity": 0.8661417322834646,
                    "duration": 0.4166666666666714
                },
                {
                    "name": "A4",
                    "midi": 69,
                    "time": 75.625,
                    "velocity": 0.8661417322834646,
                    "duration": 0.1197916666666714
                },
                {
                    "name": "B4",
                    "midi": 71,
                    "time": 75.75,
                    "velocity": 0.8661417322834646,
                    "duration": 0.1197916666666714
                },
                {
                    "name": "A3",
                    "midi": 57,
                    "time": 75.75,
                    "velocity": 0.8661417322834646,
                    "duration": 0.2447916666666714
                },
                {
                    "name": "C#5",
                    "midi": 73,
                    "time": 75.875,
                    "velocity": 0.8661417322834646,
                    "duration": 0.1197916666666714
                },
                {
                    "name": "F#4",
                    "midi": 66,
                    "time": 76,
                    "velocity": 0.8661417322834646,
                    "duration": 0.1197916666666714
                },
                {
                    "name": "D#3",
                    "midi": 51,
                    "time": 76,
                    "velocity": 0.8661417322834646,
                    "duration": 0.4166666666666714
                },
                {
                    "name": "C#5",
                    "midi": 73,
                    "time": 76.125,
                    "velocity": 0.8661417322834646,
                    "duration": 0.1197916666666714
                },
                {
                    "name": "B4",
                    "midi": 71,
                    "time": 76.25,
                    "velocity": 0.8661417322834646,
                    "duration": 0.1197916666666714
                },
                {
                    "name": "B3",
                    "midi": 59,
                    "time": 76.25,
                    "velocity": 0.8661417322834646,
                    "duration": 0.2447916666666714
                },
                {
                    "name": "A4",
                    "midi": 69,
                    "time": 76.375,
                    "velocity": 0.8661417322834646,
                    "duration": 0.1197916666666714
                },
                {
                    "name": "G#4",
                    "midi": 68,
                    "time": 76.5,
                    "velocity": 0.8661417322834646,
                    "duration": 0.1197916666666714
                },
                {
                    "name": "E3",
                    "midi": 52,
                    "time": 76.5,
                    "velocity": 0.8661417322834646,
                    "duration": 0.4166666666666714
                },
                {
                    "name": "B4",
                    "midi": 71,
                    "time": 76.625,
                    "velocity": 0.8661417322834646,
                    "duration": 0.1197916666666714
                },
                {
                    "name": "C#5",
                    "midi": 73,
                    "time": 76.75,
                    "velocity": 0.8661417322834646,
                    "duration": 0.1197916666666714
                },
                {
                    "name": "G#3",
                    "midi": 56,
                    "time": 76.75,
                    "velocity": 0.8661417322834646,
                    "duration": 0.2447916666666714
                },
                {
                    "name": "D#5",
                    "midi": 75,
                    "time": 76.875,
                    "velocity": 0.8661417322834646,
                    "duration": 0.1197916666666714
                },
                {
                    "name": "C#5",
                    "midi": 73,
                    "time": 77,
                    "velocity": 0.8661417322834646,
                    "duration": 0.1197916666666714
                },
                {
                    "name": "A3",
                    "midi": 57,
                    "time": 77,
                    "velocity": 0.8661417322834646,
                    "duration": 0.4166666666666714
                },
                {
                    "name": "D#5",
                    "midi": 75,
                    "time": 77.125,
                    "velocity": 0.8661417322834646,
                    "duration": 0.1197916666666714
                },
                {
                    "name": "D#5",
                    "midi": 75,
                    "time": 77.25,
                    "velocity": 0.8661417322834646,
                    "duration": 0.1822916666666714
                },
                {
                    "name": "F#3",
                    "midi": 54,
                    "time": 77.25,
                    "velocity": 0.8661417322834646,
                    "duration": 0.2447916666666714
                },
                {
                    "name": "C#5",
                    "midi": 73,
                    "time": 77.4375,
                    "velocity": 0.8661417322834646,
                    "duration": 0.026041666666671404
                },
                {
                    "name": "D#5",
                    "midi": 75,
                    "time": 77.46875,
                    "velocity": 0.8661417322834646,
                    "duration": 0.026041666666671404
                },
                {
                    "name": "E5",
                    "midi": 76,
                    "time": 77.5,
                    "velocity": 0.8661417322834646,
                    "duration": 0.4166666666666714
                },
                {
                    "name": "B3",
                    "midi": 59,
                    "time": 77.5,
                    "velocity": 0.8661417322834646,
                    "duration": 0.4166666666666714
                },
                {
                    "name": "E3",
                    "midi": 52,
                    "time": 77.5,
                    "velocity": 0.8661417322834646,
                    "duration": 0.2447916666666714
                },
                {
                    "name": "G#4",
                    "midi": 68,
                    "time": 77.625,
                    "velocity": 0.8661417322834646,
                    "duration": 0.1197916666666714
                },
                {
                    "name": "A4",
                    "midi": 69,
                    "time": 77.75,
                    "velocity": 0.8661417322834646,
                    "duration": 0.1197916666666714
                },
                {
                    "name": "D3",
                    "midi": 50,
                    "time": 77.75,
                    "velocity": 0.8661417322834646,
                    "duration": 0.2447916666666714
                },
                {
                    "name": "B4",
                    "midi": 71,
                    "time": 77.875,
                    "velocity": 0.8661417322834646,
                    "duration": 0.1197916666666714
                },
                {
                    "name": "E4",
                    "midi": 64,
                    "time": 78,
                    "velocity": 0.8661417322834646,
                    "duration": 0.1197916666666714
                },
                {
                    "name": "C#3",
                    "midi": 49,
                    "time": 78,
                    "velocity": 0.8661417322834646,
                    "duration": 0.4166666666666714
                },
                {
                    "name": "A4",
                    "midi": 69,
                    "time": 78.125,
                    "velocity": 0.8661417322834646,
                    "duration": 0.1197916666666714
                },
                {
                    "name": "B4",
                    "midi": 71,
                    "time": 78.25,
                    "velocity": 0.8661417322834646,
                    "duration": 0.1197916666666714
                },
                {
                    "name": "A3",
                    "midi": 57,
                    "time": 78.25,
                    "velocity": 0.8661417322834646,
                    "duration": 0.2447916666666714
                },
                {
                    "name": "C#5",
                    "midi": 73,
                    "time": 78.375,
                    "velocity": 0.8661417322834646,
                    "duration": 0.1197916666666714
                },
                {
                    "name": "F#4",
                    "midi": 66,
                    "time": 78.5,
                    "velocity": 0.8661417322834646,
                    "duration": 0.1197916666666714
                },
                {
                    "name": "D3",
                    "midi": 50,
                    "time": 78.5,
                    "velocity": 0.8661417322834646,
                    "duration": 0.4166666666666714
                },
                {
                    "name": "B4",
                    "midi": 71,
                    "time": 78.625,
                    "velocity": 0.8661417322834646,
                    "duration": 0.1197916666666714
                },
                {
                    "name": "C#5",
                    "midi": 73,
                    "time": 78.75,
                    "velocity": 0.8661417322834646,
                    "duration": 0.1197916666666714
                },
                {
                    "name": "B3",
                    "midi": 59,
                    "time": 78.75,
                    "velocity": 0.8661417322834646,
                    "duration": 0.2447916666666714
                },
                {
                    "name": "D5",
                    "midi": 74,
                    "time": 78.875,
                    "velocity": 0.8661417322834646,
                    "duration": 0.1197916666666714
                },
                {
                    "name": "G#4",
                    "midi": 68,
                    "time": 79,
                    "velocity": 0.8661417322834646,
                    "duration": 0.1197916666666714
                },
                {
                    "name": "E3",
                    "midi": 52,
                    "time": 79,
                    "velocity": 0.8661417322834646,
                    "duration": 0.4166666666666714
                },
                {
                    "name": "C#5",
                    "midi": 73,
                    "time": 79.125,
                    "velocity": 0.8661417322834646,
                    "duration": 0.1197916666666714
                },
                {
                    "name": "D5",
                    "midi": 74,
                    "time": 79.25,
                    "velocity": 0.8661417322834646,
                    "duration": 0.1197916666666714
                },
                {
                    "name": "C#4",
                    "midi": 61,
                    "time": 79.25,
                    "velocity": 0.8661417322834646,
                    "duration": 0.2447916666666714
                },
                {
                    "name": "E5",
                    "midi": 76,
                    "time": 79.375,
                    "velocity": 0.8661417322834646,
                    "duration": 0.1197916666666714
                },
                {
                    "name": "A4",
                    "midi": 69,
                    "time": 79.5,
                    "velocity": 0.8661417322834646,
                    "duration": 0.1197916666666714
                },
                {
                    "name": "F#3",
                    "midi": 54,
                    "time": 79.5,
                    "velocity": 0.8661417322834646,
                    "duration": 0.4166666666666714
                },
                {
                    "name": "D5",
                    "midi": 74,
                    "time": 79.625,
                    "velocity": 0.8661417322834646,
                    "duration": 0.1197916666666714
                },
                {
                    "name": "E5",
                    "midi": 76,
                    "time": 79.75,
                    "velocity": 0.8661417322834646,
                    "duration": 0.1197916666666714
                },
                {
                    "name": "D4",
                    "midi": 62,
                    "time": 79.75,
                    "velocity": 0.8661417322834646,
                    "duration": 0.2447916666666714
                },
                {
                    "name": "F#5",
                    "midi": 78,
                    "time": 79.875,
                    "velocity": 0.8661417322834646,
                    "duration": 0.1197916666666714
                },
                {
                    "name": "B4",
                    "midi": 71,
                    "time": 80,
                    "velocity": 0.8661417322834646,
                    "duration": 0.1197916666666714
                },
                {
                    "name": "G#3",
                    "midi": 56,
                    "time": 80,
                    "velocity": 0.8661417322834646,
                    "duration": 0.4166666666666714
                },
                {
                    "name": "F#5",
                    "midi": 78,
                    "time": 80.125,
                    "velocity": 0.8661417322834646,
                    "duration": 0.1197916666666714
                },
                {
                    "name": "E5",
                    "midi": 76,
                    "time": 80.25,
                    "velocity": 0.8661417322834646,
                    "duration": 0.1197916666666714
                },
                {
                    "name": "B3",
                    "midi": 59,
                    "time": 80.25,
                    "velocity": 0.8661417322834646,
                    "duration": 0.2447916666666714
                },
                {
                    "name": "D5",
                    "midi": 74,
                    "time": 80.375,
                    "velocity": 0.8661417322834646,
                    "duration": 0.1197916666666714
                },
                {
                    "name": "C#5",
                    "midi": 73,
                    "time": 80.5,
                    "velocity": 0.8661417322834646,
                    "duration": 0.3697916666666714
                },
                {
                    "name": "A3",
                    "midi": 57,
                    "time": 80.5,
                    "velocity": 0.8661417322834646,
                    "duration": 0.2447916666666714
                },
                {
                    "name": "E5",
                    "midi": 76,
                    "time": 80.625,
                    "velocity": 0.8661417322834646,
                    "duration": 0.1197916666666714
                },
                {
                    "name": "A5",
                    "midi": 81,
                    "time": 80.75,
                    "velocity": 0.8661417322834646,
                    "duration": 0.3697916666666714
                },
                {
                    "name": "C#4",
                    "midi": 61,
                    "time": 80.75,
                    "velocity": 0.8661417322834646,
                    "duration": 0.1197916666666714
                },
                {
                    "name": "C#5",
                    "midi": 73,
                    "time": 80.875,
                    "velocity": 0.8661417322834646,
                    "duration": 0.1197916666666714
                },
                {
                    "name": "A3",
                    "midi": 57,
                    "time": 80.875,
                    "velocity": 0.8661417322834646,
                    "duration": 0.1197916666666714
                },
                {
                    "name": "B4",
                    "midi": 71,
                    "time": 81,
                    "velocity": 0.8661417322834646,
                    "duration": 0.3697916666666714
                },
                {
                    "name": "E4",
                    "midi": 64,
                    "time": 81,
                    "velocity": 0.8661417322834646,
                    "duration": 0.1197916666666714
                },
                {
                    "name": "A5",
                    "midi": 81,
                    "time": 81.125,
                    "velocity": 0.8661417322834646,
                    "duration": 0.1197916666666714
                },
                {
                    "name": "E3",
                    "midi": 52,
                    "time": 81.125,
                    "velocity": 0.8661417322834646,
                    "duration": 0.1197916666666714
                },
                {
                    "name": "G#5",
                    "midi": 80,
                    "time": 81.25,
                    "velocity": 0.8661417322834646,
                    "duration": 0.3697916666666714
                },
                {
                    "name": "G#3",
                    "midi": 56,
                    "time": 81.25,
                    "velocity": 0.8661417322834646,
                    "duration": 0.1197916666666714
                },
                {
                    "name": "B4",
                    "midi": 71,
                    "time": 81.375,
                    "velocity": 0.8661417322834646,
                    "duration": 0.1197916666666714
                },
                {
                    "name": "E3",
                    "midi": 52,
                    "time": 81.375,
                    "velocity": 0.8661417322834646,
                    "duration": 0.1197916666666714
                },
                {
                    "name": "A4",
                    "midi": 69,
                    "time": 81.5,
                    "velocity": 0.8661417322834646,
                    "duration": 0.3697916666666714
                },
                {
                    "name": "A3",
                    "midi": 57,
                    "time": 81.5,
                    "velocity": 0.8661417322834646,
                    "duration": 0.1197916666666714
                },
                {
                    "name": "G#5",
                    "midi": 80,
                    "time": 81.625,
                    "velocity": 0.8661417322834646,
                    "duration": 0.1197916666666714
                },
                {
                    "name": "F#3",
                    "midi": 54,
                    "time": 81.625,
                    "velocity": 0.8661417322834646,
                    "duration": 0.1197916666666714
                },
                {
                    "name": "F#5",
                    "midi": 78,
                    "time": 81.75,
                    "velocity": 0.8661417322834646,
                    "duration": 0.3697916666666714
                },
                {
                    "name": "A3",
                    "midi": 57,
                    "time": 81.75,
                    "velocity": 0.8661417322834646,
                    "duration": 0.1197916666666714
                },
                {
                    "name": "A4",
                    "midi": 69,
                    "time": 81.875,
                    "velocity": 0.8661417322834646,
                    "duration": 0.1197916666666714
                },
                {
                    "name": "F#3",
                    "midi": 54,
                    "time": 81.875,
                    "velocity": 0.8661417322834646,
                    "duration": 0.1197916666666714
                },
                {
                    "name": "G#4",
                    "midi": 68,
                    "time": 82,
                    "velocity": 0.8661417322834646,
                    "duration": 0.3697916666666714
                },
                {
                    "name": "C#4",
                    "midi": 61,
                    "time": 82,
                    "velocity": 0.8661417322834646,
                    "duration": 0.1197916666666714
                },
                {
                    "name": "F#5",
                    "midi": 78,
                    "time": 82.125,
                    "velocity": 0.8661417322834646,
                    "duration": 0.1197916666666714
                },
                {
                    "name": "C#3",
                    "midi": 49,
                    "time": 82.125,
                    "velocity": 0.8661417322834646,
                    "duration": 0.1197916666666714
                },
                {
                    "name": "E5",
                    "midi": 76,
                    "time": 82.25,
                    "velocity": 0.8661417322834646,
                    "duration": 0.3697916666666714
                },
                {
                    "name": "E3",
                    "midi": 52,
                    "time": 82.25,
                    "velocity": 0.8661417322834646,
                    "duration": 0.1197916666666714
                },
                {
                    "name": "G#4",
                    "midi": 68,
                    "time": 82.375,
                    "velocity": 0.8661417322834646,
                    "duration": 0.1197916666666714
                },
                {
                    "name": "C#3",
                    "midi": 49,
                    "time": 82.375,
                    "velocity": 0.8661417322834646,
                    "duration": 0.1197916666666714
                },
                {
                    "name": "F#4",
                    "midi": 66,
                    "time": 82.5,
                    "velocity": 0.8661417322834646,
                    "duration": 0.3697916666666714
                },
                {
                    "name": "F#3",
                    "midi": 54,
                    "time": 82.5,
                    "velocity": 0.8661417322834646,
                    "duration": 0.1197916666666714
                },
                {
                    "name": "E5",
                    "midi": 76,
                    "time": 82.625,
                    "velocity": 0.8661417322834646,
                    "duration": 0.1197916666666714
                },
                {
                    "name": "D3",
                    "midi": 50,
                    "time": 82.625,
                    "velocity": 0.8661417322834646,
                    "duration": 0.1197916666666714
                },
                {
                    "name": "D5",
                    "midi": 74,
                    "time": 82.75,
                    "velocity": 0.8661417322834646,
                    "duration": 0.3697916666666714
                },
                {
                    "name": "F#3",
                    "midi": 54,
                    "time": 82.75,
                    "velocity": 0.8661417322834646,
                    "duration": 0.1197916666666714
                },
                {
                    "name": "F#4",
                    "midi": 66,
                    "time": 82.875,
                    "velocity": 0.8661417322834646,
                    "duration": 0.1197916666666714
                },
                {
                    "name": "D3",
                    "midi": 50,
                    "time": 82.875,
                    "velocity": 0.8661417322834646,
                    "duration": 0.1197916666666714
                },
                {
                    "name": "E4",
                    "midi": 64,
                    "time": 83,
                    "velocity": 0.8661417322834646,
                    "duration": 0.3697916666666714
                },
                {
                    "name": "A3",
                    "midi": 57,
                    "time": 83,
                    "velocity": 0.8661417322834646,
                    "duration": 0.1197916666666714
                },
                {
                    "name": "D5",
                    "midi": 74,
                    "time": 83.125,
                    "velocity": 0.8661417322834646,
                    "duration": 0.1197916666666714
                },
                {
                    "name": "A2",
                    "midi": 45,
                    "time": 83.125,
                    "velocity": 0.8661417322834646,
                    "duration": 0.1197916666666714
                },
                {
                    "name": "C#5",
                    "midi": 73,
                    "time": 83.25,
                    "velocity": 0.8661417322834646,
                    "duration": 0.2447916666666714
                },
                {
                    "name": "C#3",
                    "midi": 49,
                    "time": 83.25,
                    "velocity": 0.8661417322834646,
                    "duration": 0.1197916666666714
                },
                {
                    "name": "E4",
                    "midi": 64,
                    "time": 83.375,
                    "velocity": 0.8661417322834646,
                    "duration": 0.1197916666666714
                },
                {
                    "name": "A2",
                    "midi": 45,
                    "time": 83.375,
                    "velocity": 0.8661417322834646,
                    "duration": 0.1197916666666714
                },
                {
                    "name": "F#4",
                    "midi": 66,
                    "time": 83.5,
                    "velocity": 0.8661417322834646,
                    "duration": 0.4166666666666714
                },
                {
                    "name": "D3",
                    "midi": 50,
                    "time": 83.5,
                    "velocity": 0.8661417322834646,
                    "duration": 0.2447916666666714
                },
                {
                    "name": "B4",
                    "midi": 71,
                    "time": 83.625,
                    "velocity": 0.8661417322834646,
                    "duration": 0.1197916666666714
                },
                {
                    "name": "C#5",
                    "midi": 73,
                    "time": 83.75,
                    "velocity": 0.8661417322834646,
                    "duration": 0.1197916666666714
                },
                {
                    "name": "B2",
                    "midi": 47,
                    "time": 83.75,
                    "velocity": 0.8661417322834646,
                    "duration": 0.2447916666666714
                },
                {
                    "name": "D5",
                    "midi": 74,
                    "time": 83.875,
                    "velocity": 0.8661417322834646,
                    "duration": 0.1197916666666714
                },
                {
                    "name": "G#4",
                    "midi": 68,
                    "time": 84,
                    "velocity": 0.8661417322834646,
                    "duration": 0.4166666666666714
                },
                {
                    "name": "E3",
                    "midi": 52,
                    "time": 84,
                    "velocity": 0.8661417322834646,
                    "duration": 0.2447916666666714
                },
                {
                    "name": "C#5",
                    "midi": 73,
                    "time": 84.125,
                    "velocity": 0.8661417322834646,
                    "duration": 0.1197916666666714
                },
                {
                    "name": "D5",
                    "midi": 74,
                    "time": 84.25,
                    "velocity": 0.8661417322834646,
                    "duration": 0.1197916666666714
                },
                {
                    "name": "C#3",
                    "midi": 49,
                    "time": 84.25,
                    "velocity": 0.8661417322834646,
                    "duration": 0.2447916666666714
                },
                {
                    "name": "E5",
                    "midi": 76,
                    "time": 84.375,
                    "velocity": 0.8661417322834646,
                    "duration": 0.1197916666666714
                },
                {
                    "name": "A4",
                    "midi": 69,
                    "time": 84.5,
                    "velocity": 0.8661417322834646,
                    "duration": 0.4166666666666714
                },
                {
                    "name": "F#3",
                    "midi": 54,
                    "time": 84.5,
                    "velocity": 0.8661417322834646,
                    "duration": 0.2447916666666714
                },
                {
                    "name": "F#5",
                    "midi": 78,
                    "time": 84.625,
                    "velocity": 0.8661417322834646,
                    "duration": 0.1197916666666714
                },
                {
                    "name": "G#5",
                    "midi": 80,
                    "time": 84.75,
                    "velocity": 0.8661417322834646,
                    "duration": 0.1197916666666714
                },
                {
                    "name": "D4",
                    "midi": 62,
                    "time": 84.75,
                    "velocity": 0.8661417322834646,
                    "duration": 0.2447916666666714
                },
                {
                    "name": "A5",
                    "midi": 81,
                    "time": 84.875,
                    "velocity": 0.8661417322834646,
                    "duration": 0.1197916666666714
                },
                {
                    "name": "B4",
                    "midi": 71,
                    "time": 85,
                    "velocity": 0.8661417322834646,
                    "duration": 0.1197916666666714
                },
                {
                    "name": "G#3",
                    "midi": 56,
                    "time": 85,
                    "velocity": 0.8661417322834646,
                    "duration": 0.2447916666666714
                },
                {
                    "name": "A5",
                    "midi": 81,
                    "time": 85.125,
                    "velocity": 0.8661417322834646,
                    "duration": 0.1197916666666714
                },
                {
                    "name": "F#5",
                    "midi": 78,
                    "time": 85.125,
                    "velocity": 0.8661417322834646,
                    "duration": 0.1197916666666714
                },
                {
                    "name": "G#5",
                    "midi": 80,
                    "time": 85.25,
                    "velocity": 0.8661417322834646,
                    "duration": 0.1197916666666714
                },
                {
                    "name": "E5",
                    "midi": 76,
                    "time": 85.25,
                    "velocity": 0.8661417322834646,
                    "duration": 0.1197916666666714
                },
                {
                    "name": "G#2",
                    "midi": 44,
                    "time": 85.25,
                    "velocity": 0.8661417322834646,
                    "duration": 0.2447916666666714
                },
                {
                    "name": "F#5",
                    "midi": 78,
                    "time": 85.375,
                    "velocity": 0.8661417322834646,
                    "duration": 0.1197916666666714
                },
                {
                    "name": "D5",
                    "midi": 74,
                    "time": 85.375,
                    "velocity": 0.8661417322834646,
                    "duration": 0.1197916666666714
                },
                {
                    "name": "E5",
                    "midi": 76,
                    "time": 85.5,
                    "velocity": 0.8661417322834646,
                    "duration": 0.2447916666666714
                },
                {
                    "name": "C#5",
                    "midi": 73,
                    "time": 85.5,
                    "velocity": 0.8661417322834646,
                    "duration": 0.2447916666666714
                },
                {
                    "name": "A2",
                    "midi": 45,
                    "time": 85.5,
                    "velocity": 0.8661417322834646,
                    "duration": 0.2447916666666714
                },
                {
                    "name": "D5",
                    "midi": 74,
                    "time": 85.75,
                    "velocity": 0.8661417322834646,
                    "duration": 0.11979166666665719
                },
                {
                    "name": "B4",
                    "midi": 71,
                    "time": 85.75,
                    "velocity": 0.8661417322834646,
                    "duration": 0.11979166666665719
                },
                {
                    "name": "D3",
                    "midi": 50,
                    "time": 85.75,
                    "velocity": 0.8661417322834646,
                    "duration": 0.2447916666666572
                },
                {
                    "name": "C#5",
                    "midi": 73,
                    "time": 85.87499999999999,
                    "velocity": 0.8661417322834646,
                    "duration": 0.1197916666666714
                },
                {
                    "name": "A4",
                    "midi": 69,
                    "time": 85.87499999999999,
                    "velocity": 0.8661417322834646,
                    "duration": 0.1197916666666714
                },
                {
                    "name": "C#5",
                    "midi": 73,
                    "time": 85.99999999999999,
                    "velocity": 0.8661417322834646,
                    "duration": 0.2447916666666714
                },
                {
                    "name": "A4",
                    "midi": 69,
                    "time": 85.99999999999999,
                    "velocity": 0.8661417322834646,
                    "duration": 0.2447916666666714
                },
                {
                    "name": "E3",
                    "midi": 52,
                    "time": 85.99999999999999,
                    "velocity": 0.8661417322834646,
                    "duration": 0.2447916666666714
                },
                {
                    "name": "G#4",
                    "midi": 68,
                    "time": 86.24999999999999,
                    "velocity": 0.8661417322834646,
                    "duration": 0.2447916666666714
                },
                {
                    "name": "E2",
                    "midi": 40,
                    "time": 86.24999999999999,
                    "velocity": 0.8661417322834646,
                    "duration": 0.2447916666666714
                },
                {
                    "name": "C#5",
                    "midi": 73,
                    "time": 86.24999999999999,
                    "velocity": 0.8661417322834646,
                    "duration": 0.03125
                },
                {
                    "name": "B4",
                    "midi": 71,
                    "time": 86.28124999999999,
                    "velocity": 0.8661417322834646,
                    "duration": 0.03125
                },
                {
                    "name": "C#5",
                    "midi": 73,
                    "time": 86.31249999999999,
                    "velocity": 0.8661417322834646,
                    "duration": 0.03125
                },
                {
                    "name": "B4",
                    "midi": 71,
                    "time": 86.34374999999999,
                    "velocity": 0.8661417322834646,
                    "duration": 0.026041666666671404
                },
                {
                    "name": "A4",
                    "midi": 69,
                    "time": 86.37499999999999,
                    "velocity": 0.8661417322834646,
                    "duration": 0.1197916666666714
                },
                {
                    "name": "A4",
                    "midi": 69,
                    "time": 86.49999999999999,
                    "velocity": 0.8661417322834646,
                    "duration": 0.4166666666666572
                },
                {
                    "name": "A2",
                    "midi": 45,
                    "time": 86.49999999999999,
                    "velocity": 0.8661417322834646,
                    "duration": 0.8749999999999716
                },
                {
                    "name": "D4",
                    "midi": 62,
                    "time": 86.62499999999999,
                    "velocity": 0.8661417322834646,
                    "duration": 0.1197916666666714
                },
                {
                    "name": "E4",
                    "midi": 64,
                    "time": 86.74999999999999,
                    "velocity": 0.8661417322834646,
                    "duration": 0.11979166666665719
                },
                {
                    "name": "A3",
                    "midi": 57,
                    "time": 86.74999999999999,
                    "velocity": 0.8661417322834646,
                    "duration": 0.2447916666666572
                },
                {
                    "name": "C#4",
                    "midi": 61,
                    "time": 86.87499999999997,
                    "velocity": 0.8661417322834646,
                    "duration": 0.1197916666666714
                },
                {
                    "name": "D4",
                    "midi": 62,
                    "time": 86.99999999999997,
                    "velocity": 0.8661417322834646,
                    "duration": 0.4166666666666572
                },
                {
                    "name": "B3",
                    "midi": 59,
                    "time": 86.99999999999997,
                    "velocity": 0.8661417322834646,
                    "duration": 0.4166666666666572
                },
                {
                    "name": "F#4",
                    "midi": 66,
                    "time": 87.12499999999997,
                    "velocity": 0.8661417322834646,
                    "duration": 0.1197916666666714
                },
                {
                    "name": "D5",
                    "midi": 74,
                    "time": 87.24999999999997,
                    "velocity": 0.8661417322834646,
                    "duration": 0.11979166666665719
                },
                {
                    "name": "G#4",
                    "midi": 68,
                    "time": 87.37499999999996,
                    "velocity": 0.8661417322834646,
                    "duration": 0.1197916666666714
                },
                {
                    "name": "A4",
                    "midi": 69,
                    "time": 87.49999999999996,
                    "velocity": 0.8661417322834646,
                    "duration": 0.4166666666666714
                },
                {
                    "name": "E4",
                    "midi": 64,
                    "time": 87.49999999999996,
                    "velocity": 0.8661417322834646,
                    "duration": 0.4166666666666714
                },
                {
                    "name": "C#4",
                    "midi": 61,
                    "time": 87.49999999999996,
                    "velocity": 0.8661417322834646,
                    "duration": 0.4166666666666714
                },
                {
                    "name": "A3",
                    "midi": 57,
                    "time": 87.49999999999996,
                    "velocity": 0.8661417322834646,
                    "duration": 0.4166666666666714
                },
                {
                    "name": "A2",
                    "midi": 45,
                    "time": 87.49999999999996,
                    "velocity": 0.8661417322834646,
                    "duration": 0.4166666666666714
                }
            ],
            "controlChanges": {
                "7": [
                    {
                        "number": 7,
                        "time": 0,
                        "value": 0.7874015748031497
                    },
                    {
                        "number": 7,
                        "time": 0,
                        "value": 0.7874015748031497
                    },
                    {
                        "number": 7,
                        "time": 0,
                        "value": 0.7874015748031497
                    },
                    {
                        "number": 7,
                        "time": 0,
                        "value": 0.7874015748031497
                    },
                    {
                        "number": 7,
                        "time": 0,
                        "value": 0.7874015748031497
                    },
                    {
                        "number": 7,
                        "time": 0,
                        "value": 0.7874015748031497
                    },
                    {
                        "number": 7,
                        "time": 0,
                        "value": 0.7874015748031497
                    }
                ],
                "10": [
                    {
                        "number": 10,
                        "time": 0,
                        "value": 0.5039370078740157
                    },
                    {
                        "number": 10,
                        "time": 0,
                        "value": 0.5039370078740157
                    },
                    {
                        "number": 10,
                        "time": 0,
                        "value": 0.5039370078740157
                    },
                    {
                        "number": 10,
                        "time": 0,
                        "value": 0.5039370078740157
                    },
                    {
                        "number": 10,
                        "time": 0,
                        "value": 0.5039370078740157
                    },
                    {
                        "number": 10,
                        "time": 0,
                        "value": 0.5039370078740157
                    },
                    {
                        "number": 10,
                        "time": 0,
                        "value": 0.5039370078740157
                    }
                ]
            },
            "id": 0,
            "name": "2. Allemande",
            "channelNumber": 3,
            "isPercussion": false
        },
        {
            "startTime": 0,
            "duration": 0,
            "length": 0,
            "notes": [],
            "controlChanges": {},
            "id": 1
        }
    ]
}