{
    "header": {
        "PPQ": 240,
        "timeSignature": [
            3,
            4
        ],
        "bpm": 75.99996960001216,
        "name": "Sequenced using Midiscan"
    },
    "startTime": 0,
    "duration": 177.61849210000057,
    "tracks": [
        {
            "startTime": 0,
            "duration": 0,
            "length": 0,
            "notes": [],
            "controlChanges": {},
            "id": 0
        },
        {
            "startTime": 4.345396474999999,
            "duration": 174.46059610000077,
            "length": 576,
            "notes": [
                {
                    "name": "D5",
                    "midi": 74,
                    "time": 4.345396474999999,
                    "velocity": 0.7874015748031497,
                    "duration": 0.3815790999999997
                },
                {
                    "name": "G4",
                    "midi": 67,
                    "time": 4.730265049999999,
                    "velocity": 0.7874015748031497,
                    "duration": 0.7828950499999996
                },
                {
                    "name": "D5",
                    "midi": 74,
                    "time": 4.740133474999999,
                    "velocity": 0.7874015748031497,
                    "duration": 1.1842109999999995
                },
                {
                    "name": "B4",
                    "midi": 71,
                    "time": 4.7434229499999985,
                    "velocity": 0.7874015748031497,
                    "duration": 0.7763160999999998
                },
                {
                    "name": "E5",
                    "midi": 76,
                    "time": 5.914476049999998,
                    "velocity": 0.7874015748031497,
                    "duration": 0.3881580499999995
                },
                {
                    "name": "D5",
                    "midi": 74,
                    "time": 6.315791999999998,
                    "velocity": 0.7874015748031497,
                    "duration": 0.58552655
                },
                {
                    "name": "C5",
                    "midi": 72,
                    "time": 6.911186974999998,
                    "velocity": 0.7874015748031497,
                    "duration": 0.187500075
                },
                {
                    "name": "C5",
                    "midi": 72,
                    "time": 7.111844949999998,
                    "velocity": 0.7874015748031497,
                    "duration": 0.0986842499999998
                },
                {
                    "name": "B4",
                    "midi": 71,
                    "time": 7.207239724999998,
                    "velocity": 0.7874015748031497,
                    "duration": 0.0986842499999998
                },
                {
                    "name": "C5",
                    "midi": 72,
                    "time": 7.305923974999998,
                    "velocity": 0.7874015748031497,
                    "duration": 0.09539477499999993
                },
                {
                    "name": "B4",
                    "midi": 71,
                    "time": 7.404608224999998,
                    "velocity": 0.7874015748031497,
                    "duration": 0.0855263500000003
                },
                {
                    "name": "C5",
                    "midi": 72,
                    "time": 7.506581949999998,
                    "velocity": 0.7874015748031497,
                    "duration": 0.0986842499999998
                },
                {
                    "name": "B4",
                    "midi": 71,
                    "time": 7.601976724999998,
                    "velocity": 0.7874015748031497,
                    "duration": 0.09539477499999993
                },
                {
                    "name": "A4",
                    "midi": 69,
                    "time": 7.707239924999998,
                    "velocity": 0.7874015748031497,
                    "duration": 0.19078954999999986
                },
                {
                    "name": "G4",
                    "midi": 67,
                    "time": 7.907897899999997,
                    "velocity": 0.7874015748031497,
                    "duration": 0.5822370749999992
                },
                {
                    "name": "B4",
                    "midi": 71,
                    "time": 8.483556024999997,
                    "velocity": 0.7874015748031497,
                    "duration": 0.1842106000000001
                },
                {
                    "name": "B4",
                    "midi": 71,
                    "time": 8.684213999999997,
                    "velocity": 0.7874015748031497,
                    "duration": 0.0855263500000003
                },
                {
                    "name": "A4",
                    "midi": 69,
                    "time": 8.786187724999998,
                    "velocity": 0.7874015748031497,
                    "duration": 0.0888158249999993
                },
                {
                    "name": "B4",
                    "midi": 71,
                    "time": 8.878293024999998,
                    "velocity": 0.7874015748031497,
                    "duration": 0.0855263500000003
                },
                {
                    "name": "A4",
                    "midi": 69,
                    "time": 8.980266749999998,
                    "velocity": 0.7874015748031497,
                    "duration": 0.0855263500000003
                },
                {
                    "name": "B4",
                    "midi": 71,
                    "time": 9.078950999999998,
                    "velocity": 0.7874015748031497,
                    "duration": 0.0986842499999998
                },
                {
                    "name": "A4",
                    "midi": 69,
                    "time": 9.184214199999998,
                    "velocity": 0.7874015748031497,
                    "duration": 0.09210530000000006
                },
                {
                    "name": "G4",
                    "midi": 67,
                    "time": 9.292766874999998,
                    "velocity": 0.7874015748031497,
                    "duration": 0.1842106000000001
                },
                {
                    "name": "A4",
                    "midi": 69,
                    "time": 9.476977474999998,
                    "velocity": 0.7874015748031497,
                    "duration": 0.776316099999999
                },
                {
                    "name": "F#4",
                    "midi": 66,
                    "time": 9.476977474999998,
                    "velocity": 0.7874015748031497,
                    "duration": 0.776316099999999
                },
                {
                    "name": "D4",
                    "midi": 62,
                    "time": 10.263161999999998,
                    "velocity": 0.7874015748031497,
                    "duration": 0.5822370750000001
                },
                {
                    "name": "F#4",
                    "midi": 66,
                    "time": 10.858556974999997,
                    "velocity": 0.7874015748031497,
                    "duration": 0.19078954999999986
                },
                {
                    "name": "E4",
                    "midi": 64,
                    "time": 11.055925474999997,
                    "velocity": 0.7874015748031497,
                    "duration": 0.5855265499999991
                },
                {
                    "name": "F#4",
                    "midi": 66,
                    "time": 11.651320449999996,
                    "velocity": 0.7874015748031497,
                    "duration": 0.19407902499999885
                },
                {
                    "name": "G4",
                    "midi": 67,
                    "time": 11.838820524999996,
                    "velocity": 0.7874015748031497,
                    "duration": 0.5888160249999999
                },
                {
                    "name": "A4",
                    "midi": 69,
                    "time": 12.437504974999996,
                    "velocity": 0.7874015748031497,
                    "duration": 0.1842106000000001
                },
                {
                    "name": "B4",
                    "midi": 71,
                    "time": 12.638162949999996,
                    "velocity": 0.7874015748031497,
                    "duration": 0.49013177500000005
                },
                {
                    "name": "A4",
                    "midi": 69,
                    "time": 13.125005249999996,
                    "velocity": 0.7874015748031497,
                    "duration": 0.09210530000000006
                },
                {
                    "name": "B4",
                    "midi": 71,
                    "time": 13.230268449999995,
                    "velocity": 0.7874015748031497,
                    "duration": 0.0888158249999993
                },
                {
                    "name": "A4",
                    "midi": 69,
                    "time": 13.322373749999995,
                    "velocity": 0.7874015748031497,
                    "duration": 0.0855263500000003
                },
                {
                    "name": "B4",
                    "midi": 71,
                    "time": 13.421057999999995,
                    "velocity": 0.7874015748031497,
                    "duration": 0.09539477500000082
                },
                {
                    "name": "A4",
                    "midi": 69,
                    "time": 13.519742249999997,
                    "velocity": 0.7874015748031497,
                    "duration": 0.09539477500000082
                },
                {
                    "name": "B4",
                    "midi": 71,
                    "time": 13.625005449999998,
                    "velocity": 0.7874015748031497,
                    "duration": 0.0986842499999998
                },
                {
                    "name": "A4",
                    "midi": 69,
                    "time": 13.723689699999998,
                    "velocity": 0.7874015748031497,
                    "duration": 0.09210530000000006
                },
                {
                    "name": "G4",
                    "midi": 67,
                    "time": 13.809216049999998,
                    "velocity": 0.7874015748031497,
                    "duration": 0.1875000749999991
                },
                {
                    "name": "A4",
                    "midi": 69,
                    "time": 14.009874024999997,
                    "velocity": 0.7874015748031497,
                    "duration": 0.1973684999999996
                },
                {
                    "name": "B4",
                    "midi": 71,
                    "time": 14.207242524999996,
                    "velocity": 0.7874015748031497,
                    "duration": 0.7861845249999995
                },
                {
                    "name": "B4",
                    "midi": 71,
                    "time": 15.003295474999996,
                    "velocity": 0.8661417322834646,
                    "duration": 1.5789480000000022
                },
                {
                    "name": "D5",
                    "midi": 74,
                    "time": 15.006584949999997,
                    "velocity": 0.8661417322834646,
                    "duration": 2.3684220000000025
                },
                {
                    "name": "G4",
                    "midi": 67,
                    "time": 16.582243475,
                    "velocity": 0.7874015748031497,
                    "duration": 2.361843050000001
                },
                {
                    "name": "C5",
                    "midi": 72,
                    "time": 17.36184905,
                    "velocity": 0.905511811023622,
                    "duration": 2.3552640999999994
                },
                {
                    "name": "F#4",
                    "midi": 66,
                    "time": 18.950665475,
                    "velocity": 0.7874015748031497,
                    "duration": 2.3618430499999974
                },
                {
                    "name": "B4",
                    "midi": 71,
                    "time": 19.73027105,
                    "velocity": 0.905511811023622,
                    "duration": 2.3585535749999984
                },
                {
                    "name": "E4",
                    "midi": 64,
                    "time": 21.315797999999997,
                    "velocity": 0.7874015748031497,
                    "duration": 2.368421999999999
                },
                {
                    "name": "B4",
                    "midi": 71,
                    "time": 22.105271999999996,
                    "velocity": 0.905511811023622,
                    "duration": 0.08881582500000107
                },
                {
                    "name": "A4",
                    "midi": 69,
                    "time": 22.203956249999997,
                    "velocity": 0.905511811023622,
                    "duration": 0.09539477499999904
                },
                {
                    "name": "B4",
                    "midi": 71,
                    "time": 22.296061549999997,
                    "velocity": 0.905511811023622,
                    "duration": 0.09868424999999803
                },
                {
                    "name": "A4",
                    "midi": 69,
                    "time": 22.407903699999995,
                    "velocity": 0.905511811023622,
                    "duration": 0.09868424999999803
                },
                {
                    "name": "B4",
                    "midi": 71,
                    "time": 22.493430049999994,
                    "velocity": 0.905511811023622,
                    "duration": 0.09868424999999803
                },
                {
                    "name": "A4",
                    "midi": 69,
                    "time": 22.601982724999992,
                    "velocity": 0.905511811023622,
                    "duration": 0.0953947750000026
                },
                {
                    "name": "B4",
                    "midi": 71,
                    "time": 22.690798549999993,
                    "velocity": 0.905511811023622,
                    "duration": 0.08881582500000107
                },
                {
                    "name": "A4",
                    "midi": 69,
                    "time": 22.789482799999995,
                    "velocity": 0.905511811023622,
                    "duration": 0.08881582500000107
                },
                {
                    "name": "B4",
                    "midi": 71,
                    "time": 22.898035474999997,
                    "velocity": 0.905511811023622,
                    "duration": 0.08881582500000107
                },
                {
                    "name": "A4",
                    "midi": 69,
                    "time": 22.990140774999997,
                    "velocity": 0.905511811023622,
                    "duration": 0.09868425000000158
                },
                {
                    "name": "B4",
                    "midi": 71,
                    "time": 23.088825025,
                    "velocity": 0.905511811023622,
                    "duration": 0.08552634999999853
                },
                {
                    "name": "A4",
                    "midi": 69,
                    "time": 23.194088224999998,
                    "velocity": 0.905511811023622,
                    "duration": 0.08881582500000107
                },
                {
                    "name": "B4",
                    "midi": 71,
                    "time": 23.289483,
                    "velocity": 0.905511811023622,
                    "duration": 0.08552634999999853
                },
                {
                    "name": "A4",
                    "midi": 69,
                    "time": 23.38816725,
                    "velocity": 0.905511811023622,
                    "duration": 0.09539477499999904
                },
                {
                    "name": "B4",
                    "midi": 71,
                    "time": 23.483562024999998,
                    "velocity": 0.905511811023622,
                    "duration": 0.08552634999999853
                },
                {
                    "name": "A4",
                    "midi": 69,
                    "time": 23.588825224999997,
                    "velocity": 0.905511811023622,
                    "duration": 0.08552634999999853
                },
                {
                    "name": "B4",
                    "midi": 71,
                    "time": 23.677641049999995,
                    "velocity": 0.905511811023622,
                    "duration": 0.09868425000000158
                },
                {
                    "name": "A4",
                    "midi": 69,
                    "time": 23.782904249999998,
                    "velocity": 0.905511811023622,
                    "duration": 0.08881582500000107
                },
                {
                    "name": "B4",
                    "midi": 71,
                    "time": 23.8815885,
                    "velocity": 0.905511811023622,
                    "duration": 0.08881582500000107
                },
                {
                    "name": "A4",
                    "midi": 69,
                    "time": 23.9868517,
                    "velocity": 0.905511811023622,
                    "duration": 0.09210530000000006
                },
                {
                    "name": "B4",
                    "midi": 71,
                    "time": 24.078957,
                    "velocity": 0.905511811023622,
                    "duration": 0.09539477499999904
                },
                {
                    "name": "A4",
                    "midi": 69,
                    "time": 24.1710623,
                    "velocity": 0.905511811023622,
                    "duration": 0.09868424999999803
                },
                {
                    "name": "F#4",
                    "midi": 66,
                    "time": 24.273036024999996,
                    "velocity": 0.7874015748031497,
                    "duration": 0.19407902500000063
                },
                {
                    "name": "G4",
                    "midi": 67,
                    "time": 24.470404524999996,
                    "velocity": 0.7874015748031497,
                    "duration": 0.5855265500000009
                },
                {
                    "name": "D5",
                    "midi": 74,
                    "time": 25.059220549999996,
                    "velocity": 0.7874015748031497,
                    "duration": 0.1875000749999991
                },
                {
                    "name": "E5",
                    "midi": 76,
                    "time": 25.269746949999995,
                    "velocity": 0.7874015748031497,
                    "duration": 0.5888160249999999
                },
                {
                    "name": "B4",
                    "midi": 71,
                    "time": 25.858562974999995,
                    "velocity": 0.7874015748031497,
                    "duration": 0.19078955000000164
                },
                {
                    "name": "B4",
                    "midi": 71,
                    "time": 26.059220949999997,
                    "velocity": 0.7874015748031497,
                    "duration": 0.5855265500000009
                },
                {
                    "name": "C5",
                    "midi": 72,
                    "time": 26.648036974999997,
                    "velocity": 0.7874015748031497,
                    "duration": 0.1973684999999996
                },
                {
                    "name": "D5",
                    "midi": 74,
                    "time": 26.845405474999996,
                    "velocity": 0.7874015748031497,
                    "duration": 0.49013177499999827
                },
                {
                    "name": "C5",
                    "midi": 72,
                    "time": 27.335537249999994,
                    "velocity": 0.7874015748031497,
                    "duration": 0.08552634999999853
                },
                {
                    "name": "D5",
                    "midi": 74,
                    "time": 27.43751097499999,
                    "velocity": 0.7874015748031497,
                    "duration": 0.09210530000000006
                },
                {
                    "name": "C5",
                    "midi": 72,
                    "time": 27.536195224999993,
                    "velocity": 0.7874015748031497,
                    "duration": 0.08881582500000107
                },
                {
                    "name": "D5",
                    "midi": 74,
                    "time": 27.638168949999994,
                    "velocity": 0.7874015748031497,
                    "duration": 0.09539477499999904
                },
                {
                    "name": "C5",
                    "midi": 72,
                    "time": 27.730274249999994,
                    "velocity": 0.7874015748031497,
                    "duration": 0.09539477499999904
                },
                {
                    "name": "D5",
                    "midi": 74,
                    "time": 27.825669024999993,
                    "velocity": 0.7874015748031497,
                    "duration": 0.09210530000000006
                },
                {
                    "name": "C5",
                    "midi": 72,
                    "time": 27.92106379999999,
                    "velocity": 0.7874015748031497,
                    "duration": 0.08881582500000107
                },
                {
                    "name": "B4",
                    "midi": 71,
                    "time": 28.032905949999993,
                    "velocity": 0.7874015748031497,
                    "duration": 0.3815790999999997
                },
                {
                    "name": "B4",
                    "midi": 71,
                    "time": 28.427642949999992,
                    "velocity": 0.7874015748031497,
                    "duration": 1.1743425750000007
                },
                {
                    "name": "D5",
                    "midi": 74,
                    "time": 29.605274999999992,
                    "velocity": 0.7874015748031497,
                    "duration": 0.38815805000000125
                },
                {
                    "name": "E5",
                    "midi": 76,
                    "time": 29.993433049999993,
                    "velocity": 0.7874015748031497,
                    "duration": 0.5921054999999988
                },
                {
                    "name": "F#5",
                    "midi": 78,
                    "time": 30.59869644999999,
                    "velocity": 0.7874015748031497,
                    "duration": 0.19078955000000164
                },
                {
                    "name": "F#5",
                    "midi": 78,
                    "time": 30.792775474999992,
                    "velocity": 0.7874015748031497,
                    "duration": 0.1973684999999996
                },
                {
                    "name": "G5",
                    "midi": 79,
                    "time": 30.98027554999999,
                    "velocity": 0.7874015748031497,
                    "duration": 0.09539477499999904
                },
                {
                    "name": "F#5",
                    "midi": 78,
                    "time": 31.08553874999999,
                    "velocity": 0.7874015748031497,
                    "duration": 0.08881582500000107
                },
                {
                    "name": "G5",
                    "midi": 79,
                    "time": 31.19080194999999,
                    "velocity": 0.7874015748031497,
                    "duration": 0.3815790999999997
                },
                {
                    "name": "G5",
                    "midi": 79,
                    "time": 31.57238104999999,
                    "velocity": 0.7874015748031497,
                    "duration": 0.39144752500000024
                },
                {
                    "name": "G5",
                    "midi": 79,
                    "time": 31.96711804999999,
                    "velocity": 0.7874015748031497,
                    "duration": 0.38815805000000125
                },
                {
                    "name": "A5",
                    "midi": 81,
                    "time": 32.36514452499999,
                    "velocity": 0.7874015748031497,
                    "duration": 0.5789475999999993
                },
                {
                    "name": "B5",
                    "midi": 83,
                    "time": 32.95396054999999,
                    "velocity": 0.7874015748031497,
                    "duration": 0.19407902500000063
                },
                {
                    "name": "F#5",
                    "midi": 78,
                    "time": 33.15790799999999,
                    "velocity": 0.7874015748031497,
                    "duration": 0.1907895499999981
                },
                {
                    "name": "E5",
                    "midi": 76,
                    "time": 33.34869754999999,
                    "velocity": 0.7874015748031497,
                    "duration": 0.9736845999999986
                },
                {
                    "name": "A5",
                    "midi": 81,
                    "time": 34.345408474999985,
                    "velocity": 0.7874015748031497,
                    "duration": 0.3947369999999992
                },
                {
                    "name": "B5",
                    "midi": 83,
                    "time": 34.73685599999998,
                    "velocity": 0.7874015748031497,
                    "duration": 0.5789475999999993
                },
                {
                    "name": "C6",
                    "midi": 84,
                    "time": 35.33225097499998,
                    "velocity": 0.7874015748031497,
                    "duration": 0.19736850000000317
                },
                {
                    "name": "G5",
                    "midi": 79,
                    "time": 35.52961947499998,
                    "velocity": 0.7874015748031497,
                    "duration": 0.0953947750000026
                },
                {
                    "name": "F#5",
                    "midi": 78,
                    "time": 35.63159319999998,
                    "velocity": 0.7874015748031497,
                    "duration": 0.08881582499999752
                },
                {
                    "name": "G5",
                    "midi": 79,
                    "time": 35.72698797499998,
                    "velocity": 0.7874015748031497,
                    "duration": 0.09210530000000006
                },
                {
                    "name": "F#5",
                    "midi": 78,
                    "time": 35.81909327499998,
                    "velocity": 0.7874015748031497,
                    "duration": 0.08552635000000208
                },
                {
                    "name": "G5",
                    "midi": 79,
                    "time": 35.92764594999998,
                    "velocity": 0.7874015748031497,
                    "duration": 0.09868424999999803
                },
                {
                    "name": "F#5",
                    "midi": 78,
                    "time": 36.016461774999975,
                    "velocity": 0.7874015748031497,
                    "duration": 0.0953947750000026
                },
                {
                    "name": "G5",
                    "midi": 79,
                    "time": 36.12501444999998,
                    "velocity": 0.7874015748031497,
                    "duration": 0.1842106000000001
                },
                {
                    "name": "F#5",
                    "midi": 78,
                    "time": 36.31909347499998,
                    "velocity": 0.7874015748031497,
                    "duration": 0.5921054999999953
                },
                {
                    "name": "G5",
                    "midi": 79,
                    "time": 36.90462002499998,
                    "velocity": 0.7874015748031497,
                    "duration": 0.19736850000000317
                },
                {
                    "name": "A5",
                    "midi": 81,
                    "time": 37.09869904999998,
                    "velocity": 0.7874015748031497,
                    "duration": 0.7828950500000005
                },
                {
                    "name": "D5",
                    "midi": 74,
                    "time": 37.89146252499998,
                    "velocity": 0.7874015748031497,
                    "duration": 0.5789475999999993
                },
                {
                    "name": "E5",
                    "midi": 76,
                    "time": 38.48027854999998,
                    "velocity": 0.7874015748031497,
                    "duration": 0.1842106000000001
                },
                {
                    "name": "F#5",
                    "midi": 78,
                    "time": 38.68422599999998,
                    "velocity": 0.7874015748031497,
                    "duration": 0.49342124999999726
                },
                {
                    "name": "E5",
                    "midi": 76,
                    "time": 39.17106829999998,
                    "velocity": 0.7874015748031497,
                    "duration": 0.09210530000000006
                },
                {
                    "name": "F#5",
                    "midi": 78,
                    "time": 39.28291044999998,
                    "velocity": 0.7874015748031497,
                    "duration": 0.08552635000000208
                },
                {
                    "name": "E5",
                    "midi": 76,
                    "time": 39.368436799999984,
                    "velocity": 0.7874015748031497,
                    "duration": 0.09210530000000006
                },
                {
                    "name": "F#5",
                    "midi": 78,
                    "time": 39.470410524999984,
                    "velocity": 0.7874015748031497,
                    "duration": 0.0953947750000026
                },
                {
                    "name": "E5",
                    "midi": 76,
                    "time": 39.56909477499999,
                    "velocity": 0.7874015748031497,
                    "duration": 0.09210530000000006
                },
                {
                    "name": "F#5",
                    "midi": 78,
                    "time": 39.66448954999999,
                    "velocity": 0.7874015748031497,
                    "duration": 0.08881582499999752
                },
                {
                    "name": "E5",
                    "midi": 76,
                    "time": 39.76317379999999,
                    "velocity": 0.7874015748031497,
                    "duration": 0.09210530000000006
                },
                {
                    "name": "D5",
                    "midi": 74,
                    "time": 39.86185804999999,
                    "velocity": 0.7874015748031497,
                    "duration": 0.3914475249999967
                },
                {
                    "name": "D5",
                    "midi": 74,
                    "time": 40.26646347499999,
                    "velocity": 0.7874015748031497,
                    "duration": 1.5756585249999944
                },
                {
                    "name": "A4",
                    "midi": 69,
                    "time": 40.66120047499999,
                    "velocity": 0.7874015748031497,
                    "duration": 0.3914475249999967
                },
                {
                    "name": "F#4",
                    "midi": 66,
                    "time": 41.05922694999998,
                    "velocity": 0.7874015748031497,
                    "duration": 0.7828950500000005
                },
                {
                    "name": "D5",
                    "midi": 74,
                    "time": 42.23028004999998,
                    "velocity": 0.7874015748031497,
                    "duration": 0.3815791000000033
                },
                {
                    "name": "G4",
                    "midi": 67,
                    "time": 42.63159599999999,
                    "velocity": 0.7874015748031497,
                    "duration": 0.7796055749999979
                },
                {
                    "name": "B4",
                    "midi": 71,
                    "time": 42.63159599999999,
                    "velocity": 0.7874015748031497,
                    "duration": 0.7894739999999985
                },
                {
                    "name": "D5",
                    "midi": 74,
                    "time": 42.638174949999986,
                    "velocity": 0.7874015748031497,
                    "duration": 1.1710531000000017
                },
                {
                    "name": "E5",
                    "midi": 76,
                    "time": 43.815806999999985,
                    "velocity": 0.7874015748031497,
                    "duration": 0.38815805000000125
                },
                {
                    "name": "D5",
                    "midi": 74,
                    "time": 44.210543999999985,
                    "velocity": 0.7874015748031497,
                    "duration": 0.5888160249999999
                },
                {
                    "name": "C5",
                    "midi": 72,
                    "time": 44.80593897499998,
                    "velocity": 0.7874015748031497,
                    "duration": 0.1907895499999981
                },
                {
                    "name": "C5",
                    "midi": 72,
                    "time": 44.99672852499998,
                    "velocity": 0.7874015748031497,
                    "duration": 0.08552635000000208
                },
                {
                    "name": "B4",
                    "midi": 71,
                    "time": 45.09870224999998,
                    "velocity": 0.7874015748031497,
                    "duration": 0.09868424999999803
                },
                {
                    "name": "C5",
                    "midi": 72,
                    "time": 45.19080754999998,
                    "velocity": 0.7874015748031497,
                    "duration": 0.09868424999999803
                },
                {
                    "name": "B4",
                    "midi": 71,
                    "time": 45.30264969999998,
                    "velocity": 0.7874015748031497,
                    "duration": 0.09210530000000006
                },
                {
                    "name": "C5",
                    "midi": 72,
                    "time": 45.40133394999998,
                    "velocity": 0.7874015748031497,
                    "duration": 0.08881582499999752
                },
                {
                    "name": "B4",
                    "midi": 71,
                    "time": 45.50001819999998,
                    "velocity": 0.7874015748031497,
                    "duration": 0.09210530000000006
                },
                {
                    "name": "A4",
                    "midi": 69,
                    "time": 45.58554454999998,
                    "velocity": 0.7874015748031497,
                    "duration": 0.18750007499999555
                },
                {
                    "name": "G4",
                    "midi": 67,
                    "time": 45.789491999999974,
                    "velocity": 0.7874015748031497,
                    "duration": 0.5921055000000024
                },
                {
                    "name": "B4",
                    "midi": 71,
                    "time": 46.38488697499998,
                    "velocity": 0.7874015748031497,
                    "duration": 0.18750007500000265
                },
                {
                    "name": "B4",
                    "midi": 71,
                    "time": 46.58225547499998,
                    "velocity": 0.7874015748031497,
                    "duration": 0.09210530000000006
                },
                {
                    "name": "A4",
                    "midi": 69,
                    "time": 46.68093972499998,
                    "velocity": 0.7874015748031497,
                    "duration": 0.08881582499999752
                },
                {
                    "name": "B4",
                    "midi": 71,
                    "time": 46.77304502499998,
                    "velocity": 0.7874015748031497,
                    "duration": 0.09868424999999803
                },
                {
                    "name": "A4",
                    "midi": 69,
                    "time": 46.88159769999998,
                    "velocity": 0.7874015748031497,
                    "duration": 0.08881582499999752
                },
                {
                    "name": "B4",
                    "midi": 71,
                    "time": 46.976992474999975,
                    "velocity": 0.7874015748031497,
                    "duration": 0.09539477499999549
                },
                {
                    "name": "A4",
                    "midi": 69,
                    "time": 47.06580829999997,
                    "velocity": 0.7874015748031497,
                    "duration": 0.09210530000000006
                },
                {
                    "name": "G4",
                    "midi": 67,
                    "time": 47.171071499999975,
                    "velocity": 0.7874015748031497,
                    "duration": 0.1842106000000001
                },
                {
                    "name": "A4",
                    "midi": 69,
                    "time": 47.36186104999997,
                    "velocity": 0.7874015748031497,
                    "duration": 0.7861845249999959
                },
                {
                    "name": "F#4",
                    "midi": 66,
                    "time": 47.36843999999997,
                    "velocity": 0.7874015748031497,
                    "duration": 0.7894739999999985
                },
                {
                    "name": "D4",
                    "midi": 62,
                    "time": 48.16120347499997,
                    "velocity": 0.7874015748031497,
                    "duration": 0.5822370750000019
                },
                {
                    "name": "F#4",
                    "midi": 66,
                    "time": 48.753308974999975,
                    "velocity": 0.7874015748031497,
                    "duration": 0.1907895500000052
                },
                {
                    "name": "E4",
                    "midi": 64,
                    "time": 48.94080904999998,
                    "velocity": 0.7874015748031497,
                    "duration": 0.5921055000000024
                },
                {
                    "name": "F#4",
                    "midi": 66,
                    "time": 49.54278297499998,
                    "velocity": 0.7874015748031497,
                    "duration": 0.1842106000000001
                },
                {
                    "name": "G4",
                    "midi": 67,
                    "time": 49.73686199999998,
                    "velocity": 0.7874015748031497,
                    "duration": 0.5921055000000024
                },
                {
                    "name": "A4",
                    "midi": 69,
                    "time": 50.33554644999998,
                    "velocity": 0.7874015748031497,
                    "duration": 0.1907895499999981
                },
                {
                    "name": "B4",
                    "midi": 71,
                    "time": 50.53291494999998,
                    "velocity": 0.7874015748031497,
                    "duration": 0.4802633500000013
                },
                {
                    "name": "A4",
                    "midi": 69,
                    "time": 51.02304672499998,
                    "velocity": 0.7874015748031497,
                    "duration": 0.09210530000000006
                },
                {
                    "name": "B4",
                    "midi": 71,
                    "time": 51.11515202499998,
                    "velocity": 0.7874015748031497,
                    "duration": 0.08552635000000208
                },
                {
                    "name": "A4",
                    "midi": 69,
                    "time": 51.213836274999984,
                    "velocity": 0.7874015748031497,
                    "duration": 0.09868424999999803
                },
                {
                    "name": "B4",
                    "midi": 71,
                    "time": 51.315809999999985,
                    "velocity": 0.7874015748031497,
                    "duration": 0.0953947750000026
                },
                {
                    "name": "A4",
                    "midi": 69,
                    "time": 51.407915299999985,
                    "velocity": 0.7874015748031497,
                    "duration": 0.0953947750000026
                },
                {
                    "name": "B4",
                    "midi": 71,
                    "time": 51.51646797499999,
                    "velocity": 0.7874015748031497,
                    "duration": 0.08552635000000208
                },
                {
                    "name": "A4",
                    "midi": 69,
                    "time": 51.605283799999995,
                    "velocity": 0.7874015748031497,
                    "duration": 0.09868424999999803
                },
                {
                    "name": "G4",
                    "midi": 67,
                    "time": 51.713836474999994,
                    "velocity": 0.7874015748031497,
                    "duration": 0.1842106000000001
                },
                {
                    "name": "A4",
                    "midi": 69,
                    "time": 51.911204975,
                    "velocity": 0.7874015748031497,
                    "duration": 0.1842106000000001
                },
                {
                    "name": "B4",
                    "midi": 71,
                    "time": 52.101994524999995,
                    "velocity": 0.7874015748031497,
                    "duration": 0.786184525000003
                },
                {
                    "name": "B4",
                    "midi": 71,
                    "time": 52.88817905,
                    "velocity": 0.8661417322834646,
                    "duration": 1.5690795749999964
                },
                {
                    "name": "D5",
                    "midi": 74,
                    "time": 52.88817905,
                    "velocity": 0.8661417322834646,
                    "duration": 2.3684219999999954
                },
                {
                    "name": "G4",
                    "midi": 67,
                    "time": 54.476995474999995,
                    "velocity": 0.7874015748031497,
                    "duration": 2.358553574999995
                },
                {
                    "name": "C5",
                    "midi": 72,
                    "time": 55.25660104999999,
                    "velocity": 0.905511811023622,
                    "duration": 2.358553575000002
                },
                {
                    "name": "F#4",
                    "midi": 66,
                    "time": 56.83883852499999,
                    "velocity": 0.7874015748031497,
                    "duration": 2.3552641000000065
                },
                {
                    "name": "B4",
                    "midi": 71,
                    "time": 57.634891474999996,
                    "velocity": 0.905511811023622,
                    "duration": 2.365132525000007
                },
                {
                    "name": "E4",
                    "midi": 64,
                    "time": 59.213839475,
                    "velocity": 0.7874015748031497,
                    "duration": 2.3684220000000167
                },
                {
                    "name": "B4",
                    "midi": 71,
                    "time": 60.000024,
                    "velocity": 0.905511811023622,
                    "duration": 0.0953947750000026
                },
                {
                    "name": "A4",
                    "midi": 69,
                    "time": 60.10528720000001,
                    "velocity": 0.905511811023622,
                    "duration": 0.0953947750000026
                },
                {
                    "name": "B4",
                    "midi": 71,
                    "time": 60.20068197500001,
                    "velocity": 0.905511811023622,
                    "duration": 0.0953947750000026
                },
                {
                    "name": "A4",
                    "midi": 69,
                    "time": 60.29278727500001,
                    "velocity": 0.905511811023622,
                    "duration": 0.08881582500000462
                },
                {
                    "name": "B4",
                    "midi": 71,
                    "time": 60.39476100000002,
                    "velocity": 0.905511811023622,
                    "duration": 0.08552635000000208
                },
                {
                    "name": "A4",
                    "midi": 69,
                    "time": 60.50002420000002,
                    "velocity": 0.905511811023622,
                    "duration": 0.08552635000000208
                },
                {
                    "name": "B4",
                    "midi": 71,
                    "time": 60.58555055000002,
                    "velocity": 0.905511811023622,
                    "duration": 0.08552635000000208
                },
                {
                    "name": "A4",
                    "midi": 69,
                    "time": 60.68423480000003,
                    "velocity": 0.905511811023622,
                    "duration": 0.09868424999999803
                },
                {
                    "name": "B4",
                    "midi": 71,
                    "time": 60.782919050000025,
                    "velocity": 0.905511811023622,
                    "duration": 0.09868424999999803
                },
                {
                    "name": "A4",
                    "midi": 69,
                    "time": 60.88160330000002,
                    "velocity": 0.905511811023622,
                    "duration": 0.08881582499999752
                },
                {
                    "name": "B4",
                    "midi": 71,
                    "time": 60.99344545000002,
                    "velocity": 0.905511811023622,
                    "duration": 0.08552635000000208
                },
                {
                    "name": "A4",
                    "midi": 69,
                    "time": 61.08226127500002,
                    "velocity": 0.905511811023622,
                    "duration": 0.09210530000000006
                },
                {
                    "name": "B4",
                    "midi": 71,
                    "time": 61.18094552500002,
                    "velocity": 0.905511811023622,
                    "duration": 0.08552635000000208
                },
                {
                    "name": "A4",
                    "midi": 69,
                    "time": 61.28949820000002,
                    "velocity": 0.905511811023622,
                    "duration": 0.08552635000000208
                },
                {
                    "name": "B4",
                    "midi": 71,
                    "time": 61.37502455000002,
                    "velocity": 0.905511811023622,
                    "duration": 0.09210530000000006
                },
                {
                    "name": "A4",
                    "midi": 69,
                    "time": 61.48686670000002,
                    "velocity": 0.905511811023622,
                    "duration": 0.09539477499999549
                },
                {
                    "name": "B4",
                    "midi": 71,
                    "time": 61.57568252500002,
                    "velocity": 0.905511811023622,
                    "duration": 0.09539477499999549
                },
                {
                    "name": "A4",
                    "midi": 69,
                    "time": 61.68423520000002,
                    "velocity": 0.905511811023622,
                    "duration": 0.09210530000000006
                },
                {
                    "name": "B4",
                    "midi": 71,
                    "time": 61.773051025000015,
                    "velocity": 0.905511811023622,
                    "duration": 0.08552635000000208
                },
                {
                    "name": "A4",
                    "midi": 69,
                    "time": 61.87173527500002,
                    "velocity": 0.905511811023622,
                    "duration": 0.09210530000000006
                },
                {
                    "name": "B4",
                    "midi": 71,
                    "time": 61.97041952500002,
                    "velocity": 0.905511811023622,
                    "duration": 0.08881582499999752
                },
                {
                    "name": "A4",
                    "midi": 69,
                    "time": 62.069103775000016,
                    "velocity": 0.905511811023622,
                    "duration": 0.0953947750000026
                },
                {
                    "name": "F#4",
                    "midi": 66,
                    "time": 62.17765645000002,
                    "velocity": 0.7874015748031497,
                    "duration": 0.18750007500000265
                },
                {
                    "name": "G4",
                    "midi": 67,
                    "time": 62.375024950000025,
                    "velocity": 0.7874015748031497,
                    "duration": 0.5855265499999973
                },
                {
                    "name": "D5",
                    "midi": 74,
                    "time": 62.96713045000002,
                    "velocity": 0.7874015748031497,
                    "duration": 0.18750007500000265
                },
                {
                    "name": "E5",
                    "midi": 76,
                    "time": 63.164498950000024,
                    "velocity": 0.7874015748031497,
                    "duration": 0.5855265499999973
                },
                {
                    "name": "B4",
                    "midi": 71,
                    "time": 63.75002550000002,
                    "velocity": 0.7874015748031497,
                    "duration": 0.1907895499999981
                },
                {
                    "name": "B4",
                    "midi": 71,
                    "time": 63.94739400000002,
                    "velocity": 0.7874015748031497,
                    "duration": 0.5855265499999973
                },
                {
                    "name": "C5",
                    "midi": 72,
                    "time": 64.53292055000001,
                    "velocity": 0.7874015748031497,
                    "duration": 0.1842106000000001
                },
                {
                    "name": "D5",
                    "midi": 74,
                    "time": 64.73028905000001,
                    "velocity": 0.7874015748031497,
                    "duration": 0.4868423000000064
                },
                {
                    "name": "C5",
                    "midi": 72,
                    "time": 65.22699977500001,
                    "velocity": 0.7874015748031497,
                    "duration": 0.09868425000000514
                },
                {
                    "name": "D5",
                    "midi": 74,
                    "time": 65.32897350000002,
                    "velocity": 0.7874015748031497,
                    "duration": 0.0953947750000026
                },
                {
                    "name": "C5",
                    "midi": 72,
                    "time": 65.42107880000002,
                    "velocity": 0.7874015748031497,
                    "duration": 0.09868425000000514
                },
                {
                    "name": "D5",
                    "midi": 74,
                    "time": 65.53292095000002,
                    "velocity": 0.7874015748031497,
                    "duration": 0.08552634999999498
                },
                {
                    "name": "C5",
                    "midi": 72,
                    "time": 65.62831572500001,
                    "velocity": 0.7874015748031497,
                    "duration": 0.08881582499999752
                },
                {
                    "name": "D5",
                    "midi": 74,
                    "time": 65.72371050000001,
                    "velocity": 0.7874015748031497,
                    "duration": 0.08552634999999498
                },
                {
                    "name": "C5",
                    "midi": 72,
                    "time": 65.8289737,
                    "velocity": 0.7874015748031497,
                    "duration": 0.09868425000000514
                },
                {
                    "name": "B4",
                    "midi": 71,
                    "time": 65.921079,
                    "velocity": 0.7874015748031497,
                    "duration": 0.38815805000000125
                },
                {
                    "name": "B4",
                    "midi": 71,
                    "time": 66.319105475,
                    "velocity": 0.7874015748031497,
                    "duration": 1.1842110000000048
                },
                {
                    "name": "D5",
                    "midi": 74,
                    "time": 67.50660595000001,
                    "velocity": 0.7874015748031497,
                    "duration": 0.3815790999999962
                },
                {
                    "name": "E5",
                    "midi": 76,
                    "time": 67.90134295,
                    "velocity": 0.7874015748031497,
                    "duration": 0.5888160249999999
                },
                {
                    "name": "F#5",
                    "midi": 78,
                    "time": 68.49344845,
                    "velocity": 0.7874015748031497,
                    "duration": 0.1842106000000001
                },
                {
                    "name": "F#5",
                    "midi": 78,
                    "time": 68.69081695,
                    "velocity": 0.7874015748031497,
                    "duration": 0.1907895500000052
                },
                {
                    "name": "G5",
                    "midi": 79,
                    "time": 68.87502755,
                    "velocity": 0.7874015748031497,
                    "duration": 0.09868425000000514
                },
                {
                    "name": "F#5",
                    "midi": 78,
                    "time": 68.977001275,
                    "velocity": 0.7874015748031497,
                    "duration": 0.08552634999999498
                },
                {
                    "name": "G5",
                    "midi": 79,
                    "time": 69.075685525,
                    "velocity": 0.7874015748031497,
                    "duration": 0.38815805000000125
                },
                {
                    "name": "G5",
                    "midi": 79,
                    "time": 69.47371199999999,
                    "velocity": 0.7874015748031497,
                    "duration": 0.38815805000000125
                },
                {
                    "name": "G5",
                    "midi": 79,
                    "time": 69.87173847499999,
                    "velocity": 0.7874015748031497,
                    "duration": 0.3848685749999987
                },
                {
                    "name": "A5",
                    "midi": 81,
                    "time": 70.26647547499998,
                    "velocity": 0.7874015748031497,
                    "duration": 0.5888160249999999
                },
                {
                    "name": "B5",
                    "midi": 83,
                    "time": 70.85858097499998,
                    "velocity": 0.7874015748031497,
                    "duration": 0.1907895500000052
                },
                {
                    "name": "F#5",
                    "midi": 78,
                    "time": 71.04608104999998,
                    "velocity": 0.7874015748031497,
                    "duration": 0.18750007500000265
                },
                {
                    "name": "E5",
                    "midi": 76,
                    "time": 71.25331797499999,
                    "velocity": 0.7874015748031497,
                    "duration": 0.990131974999997
                },
                {
                    "name": "A5",
                    "midi": 81,
                    "time": 72.24344994999998,
                    "velocity": 0.7874015748031497,
                    "duration": 0.3914475250000038
                },
                {
                    "name": "B5",
                    "midi": 83,
                    "time": 72.63489747499999,
                    "velocity": 0.7874015748031497,
                    "duration": 0.5855265499999973
                },
                {
                    "name": "C6",
                    "midi": 84,
                    "time": 73.23029244999998,
                    "velocity": 0.7874015748031497,
                    "duration": 0.1907895500000052
                },
                {
                    "name": "G5",
                    "midi": 79,
                    "time": 73.41450304999998,
                    "velocity": 0.7874015748031497,
                    "duration": 0.09210530000000006
                },
                {
                    "name": "F#5",
                    "midi": 78,
                    "time": 73.52305572499998,
                    "velocity": 0.7874015748031497,
                    "duration": 0.0953947750000026
                },
                {
                    "name": "G5",
                    "midi": 79,
                    "time": 73.61516102499998,
                    "velocity": 0.7874015748031497,
                    "duration": 0.09868425000000514
                },
                {
                    "name": "F#5",
                    "midi": 78,
                    "time": 73.72042422499999,
                    "velocity": 0.7874015748031497,
                    "duration": 0.09868425000000514
                },
                {
                    "name": "G5",
                    "midi": 79,
                    "time": 73.82239795,
                    "velocity": 0.7874015748031497,
                    "duration": 0.0953947750000026
                },
                {
                    "name": "F#5",
                    "midi": 78,
                    "time": 73.9210822,
                    "velocity": 0.7874015748031497,
                    "duration": 0.09539477499998839
                },
                {
                    "name": "G5",
                    "midi": 79,
                    "time": 74.00660855,
                    "velocity": 0.7874015748031497,
                    "duration": 0.19078954999999098
                },
                {
                    "name": "F#5",
                    "midi": 78,
                    "time": 74.21384547499999,
                    "velocity": 0.7874015748031497,
                    "duration": 0.5822370749999948
                },
                {
                    "name": "G5",
                    "midi": 79,
                    "time": 74.80266149999999,
                    "velocity": 0.7874015748031497,
                    "duration": 0.1842106000000001
                },
                {
                    "name": "A5",
                    "midi": 81,
                    "time": 74.99345104999999,
                    "velocity": 0.7874015748031497,
                    "duration": 0.7861845249999959
                },
                {
                    "name": "D5",
                    "midi": 74,
                    "time": 75.78621452499999,
                    "velocity": 0.7874015748031497,
                    "duration": 0.5855265499999973
                },
                {
                    "name": "E5",
                    "midi": 76,
                    "time": 76.38160949999998,
                    "velocity": 0.7874015748031497,
                    "duration": 0.19736850000001027
                },
                {
                    "name": "F#5",
                    "midi": 78,
                    "time": 76.57239904999999,
                    "velocity": 0.7874015748031497,
                    "duration": 0.48355282500000385
                },
                {
                    "name": "E5",
                    "midi": 76,
                    "time": 77.0789782,
                    "velocity": 0.7874015748031497,
                    "duration": 0.08552634999999498
                },
                {
                    "name": "F#5",
                    "midi": 78,
                    "time": 77.1710835,
                    "velocity": 0.7874015748031497,
                    "duration": 0.0953947750000026
                },
                {
                    "name": "E5",
                    "midi": 76,
                    "time": 77.266478275,
                    "velocity": 0.7874015748031497,
                    "duration": 0.0953947750000026
                },
                {
                    "name": "F#5",
                    "midi": 78,
                    "time": 77.371741475,
                    "velocity": 0.7874015748031497,
                    "duration": 0.09210530000000006
                },
                {
                    "name": "E5",
                    "midi": 76,
                    "time": 77.47371519999999,
                    "velocity": 0.7874015748031497,
                    "duration": 0.08881582499999752
                },
                {
                    "name": "F#5",
                    "midi": 78,
                    "time": 77.56253102499998,
                    "velocity": 0.7874015748031497,
                    "duration": 0.09210530000000006
                },
                {
                    "name": "E5",
                    "midi": 76,
                    "time": 77.65792579999999,
                    "velocity": 0.7874015748031497,
                    "duration": 0.08552634999999498
                },
                {
                    "name": "D5",
                    "midi": 74,
                    "time": 77.76647847499999,
                    "velocity": 0.7874015748031497,
                    "duration": 0.38815805000000125
                },
                {
                    "name": "D5",
                    "midi": 74,
                    "time": 78.15463652499999,
                    "velocity": 0.7874015748031497,
                    "duration": 0.7894739999999985
                },
                {
                    "name": "A4",
                    "midi": 69,
                    "time": 78.55266299999998,
                    "velocity": 0.7874015748031497,
                    "duration": 0.3914475250000038
                },
                {
                    "name": "F#4",
                    "midi": 66,
                    "time": 78.95397894999998,
                    "velocity": 0.7874015748031497,
                    "duration": 0.7861845249999959
                },
                {
                    "name": "F#5",
                    "midi": 78,
                    "time": 80.13818994999997,
                    "velocity": 0.7874015748031497,
                    "duration": 0.39473700000000633
                },
                {
                    "name": "A4",
                    "midi": 69,
                    "time": 80.52305852499997,
                    "velocity": 0.7874015748031497,
                    "duration": 0.7763161000000025
                },
                {
                    "name": "D5",
                    "midi": 74,
                    "time": 80.52634799999997,
                    "velocity": 0.7874015748031497,
                    "duration": 0.7828950499999934
                },
                {
                    "name": "F#5",
                    "midi": 78,
                    "time": 80.53292694999998,
                    "velocity": 0.7874015748031497,
                    "duration": 1.1842109999999906
                },
                {
                    "name": "F#5",
                    "midi": 78,
                    "time": 81.71713794999997,
                    "velocity": 0.7874015748031497,
                    "duration": 0.39473700000000633
                },
                {
                    "name": "E5",
                    "midi": 76,
                    "time": 82.10858547499997,
                    "velocity": 0.7874015748031497,
                    "duration": 0.5888160249999999
                },
                {
                    "name": "F#5",
                    "midi": 78,
                    "time": 82.69411202499997,
                    "velocity": 0.7874015748031497,
                    "duration": 0.19407902500000773
                },
                {
                    "name": "F#5",
                    "midi": 78,
                    "time": 82.90134894999997,
                    "velocity": 0.7874015748031497,
                    "duration": 0.1842106000000001
                },
                {
                    "name": "G5",
                    "midi": 79,
                    "time": 83.08884902499997,
                    "velocity": 0.7874015748031497,
                    "duration": 0.0953947750000026
                },
                {
                    "name": "F#5",
                    "midi": 78,
                    "time": 83.18753327499998,
                    "velocity": 0.7874015748031497,
                    "duration": 0.09868425000000514
                },
                {
                    "name": "G5",
                    "midi": 79,
                    "time": 83.28292804999998,
                    "velocity": 0.7874015748031497,
                    "duration": 0.08881582499999752
                },
                {
                    "name": "F#5",
                    "midi": 78,
                    "time": 83.38819124999998,
                    "velocity": 0.7874015748031497,
                    "duration": 0.09210530000000006
                },
                {
                    "name": "G5",
                    "midi": 79,
                    "time": 83.48358602499998,
                    "velocity": 0.7874015748031497,
                    "duration": 0.08881582499999752
                },
                {
                    "name": "F#5",
                    "midi": 78,
                    "time": 83.57898079999998,
                    "velocity": 0.7874015748031497,
                    "duration": 0.08552634999999498
                },
                {
                    "name": "G5",
                    "midi": 79,
                    "time": 83.68095452499998,
                    "velocity": 0.7874015748031497,
                    "duration": 0.08552634999999498
                },
                {
                    "name": "F#5",
                    "midi": 78,
                    "time": 83.78950719999997,
                    "velocity": 0.7874015748031497,
                    "duration": 0.09868424999999093
                },
                {
                    "name": "G5",
                    "midi": 79,
                    "time": 83.87832302499997,
                    "velocity": 0.7874015748031497,
                    "duration": 0.09868424999999093
                },
                {
                    "name": "F#5",
                    "midi": 78,
                    "time": 83.98687569999996,
                    "velocity": 0.7874015748031497,
                    "duration": 0.09539477499998839
                },
                {
                    "name": "G5",
                    "midi": 79,
                    "time": 84.07240204999995,
                    "velocity": 0.7874015748031497,
                    "duration": 0.3848685749999987
                },
                {
                    "name": "G5",
                    "midi": 79,
                    "time": 84.28292844999994,
                    "velocity": 0.7874015748031497,
                    "duration": 0.1842106000000001
                },
                {
                    "name": "G5",
                    "midi": 79,
                    "time": 84.48029694999994,
                    "velocity": 0.7874015748031497,
                    "duration": 0.5789476000000064
                },
                {
                    "name": "F#5",
                    "midi": 78,
                    "time": 85.06582349999995,
                    "velocity": 0.7874015748031497,
                    "duration": 0.1842106000000001
                },
                {
                    "name": "E5",
                    "midi": 76,
                    "time": 85.25990252499994,
                    "velocity": 0.7874015748031497,
                    "duration": 1.1809215250000022
                },
                {
                    "name": "G4",
                    "midi": 67,
                    "time": 85.26319199999995,
                    "velocity": 0.7874015748031497,
                    "duration": 0.7828950500000076
                },
                {
                    "name": "C5",
                    "midi": 72,
                    "time": 85.26648147499995,
                    "velocity": 0.7874015748031497,
                    "duration": 0.7894739999999985
                },
                {
                    "name": "E5",
                    "midi": 76,
                    "time": 86.45069247499994,
                    "velocity": 0.7874015748031497,
                    "duration": 0.38815805000000125
                },
                {
                    "name": "D5",
                    "midi": 74,
                    "time": 86.84213999999994,
                    "velocity": 0.7874015748031497,
                    "duration": 0.5855265499999973
                },
                {
                    "name": "E5",
                    "midi": 76,
                    "time": 87.42766654999994,
                    "velocity": 0.7874015748031497,
                    "duration": 0.18750007500000265
                },
                {
                    "name": "E5",
                    "midi": 76,
                    "time": 87.63819294999995,
                    "velocity": 0.7874015748031497,
                    "duration": 0.1907895500000052
                },
                {
                    "name": "F5",
                    "midi": 77,
                    "time": 87.82240354999995,
                    "velocity": 0.7874015748031497,
                    "duration": 1.1776320499999997
                },
                {
                    "name": "F5",
                    "midi": 77,
                    "time": 89.00990402499994,
                    "velocity": 0.7874015748031497,
                    "duration": 0.1842106000000001
                },
                {
                    "name": "F5",
                    "midi": 77,
                    "time": 89.20727252499994,
                    "velocity": 0.7874015748031497,
                    "duration": 0.5822370749999948
                },
                {
                    "name": "C#5",
                    "midi": 73,
                    "time": 89.80595697499993,
                    "velocity": 0.7874015748031497,
                    "duration": 0.19407902499999352
                },
                {
                    "name": "D5",
                    "midi": 74,
                    "time": 90.00003599999992,
                    "velocity": 0.7874015748031497,
                    "duration": 0.5822370749999948
                },
                {
                    "name": "E5",
                    "midi": 76,
                    "time": 90.59543097499991,
                    "velocity": 0.7874015748031497,
                    "duration": 0.1907895500000052
                },
                {
                    "name": "E5",
                    "midi": 76,
                    "time": 90.79279947499992,
                    "velocity": 0.7874015748031497,
                    "duration": 0.09210530000000006
                },
                {
                    "name": "D5",
                    "midi": 74,
                    "time": 90.89148372499993,
                    "velocity": 0.7874015748031497,
                    "duration": 0.09868425000000514
                },
                {
                    "name": "E5",
                    "midi": 76,
                    "time": 90.98687849999993,
                    "velocity": 0.7874015748031497,
                    "duration": 0.0953947750000026
                },
                {
                    "name": "D5",
                    "midi": 74,
                    "time": 91.09214169999993,
                    "velocity": 0.7874015748031497,
                    "duration": 0.08881582499999752
                },
                {
                    "name": "E5",
                    "midi": 76,
                    "time": 91.18753647499993,
                    "velocity": 0.7874015748031497,
                    "duration": 0.09868424999999093
                },
                {
                    "name": "D5",
                    "midi": 74,
                    "time": 91.27635229999993,
                    "velocity": 0.7874015748031497,
                    "duration": 0.08552634999999498
                },
                {
                    "name": "E5",
                    "midi": 76,
                    "time": 91.38161549999992,
                    "velocity": 0.7874015748031497,
                    "duration": 0.08552634999999498
                },
                {
                    "name": "D5",
                    "midi": 74,
                    "time": 91.47372079999992,
                    "velocity": 0.7874015748031497,
                    "duration": 0.0953947750000026
                },
                {
                    "name": "E5",
                    "midi": 76,
                    "time": 91.57240504999993,
                    "velocity": 0.7874015748031497,
                    "duration": 0.09210530000000006
                },
                {
                    "name": "D5",
                    "midi": 74,
                    "time": 91.68095772499993,
                    "velocity": 0.7874015748031497,
                    "duration": 0.0953947750000026
                },
                {
                    "name": "E5",
                    "midi": 76,
                    "time": 91.77306302499993,
                    "velocity": 0.7874015748031497,
                    "duration": 0.09868425000000514
                },
                {
                    "name": "D5",
                    "midi": 74,
                    "time": 91.88161569999993,
                    "velocity": 0.7874015748031497,
                    "duration": 0.08552634999999498
                },
                {
                    "name": "C5",
                    "midi": 72,
                    "time": 91.97372099999993,
                    "velocity": 0.7874015748031497,
                    "duration": 0.39473700000000633
                },
                {
                    "name": "C5",
                    "midi": 72,
                    "time": 92.37174747499994,
                    "velocity": 0.7874015748031497,
                    "duration": 0.19407902500000773
                },
                {
                    "name": "B4",
                    "midi": 71,
                    "time": 92.55924754999994,
                    "velocity": 0.7874015748031497,
                    "duration": 1.1743425750000114
                },
                {
                    "name": "B5",
                    "midi": 83,
                    "time": 93.75332697499995,
                    "velocity": 0.7874015748031497,
                    "duration": 0.1842106000000001
                },
                {
                    "name": "B5",
                    "midi": 83,
                    "time": 93.94082704999995,
                    "velocity": 0.7874015748031497,
                    "duration": 0.5855265499999973
                },
                {
                    "name": "F#5",
                    "midi": 78,
                    "time": 94.54280097499995,
                    "velocity": 0.7874015748031497,
                    "duration": 0.18750007500000265
                },
                {
                    "name": "G5",
                    "midi": 79,
                    "time": 94.74345894999995,
                    "velocity": 0.7874015748031497,
                    "duration": 0.18750007500000265
                },
                {
                    "name": "A5",
                    "midi": 81,
                    "time": 94.93424849999995,
                    "velocity": 0.7874015748031497,
                    "duration": 0.19736849999999606
                },
                {
                    "name": "B5",
                    "midi": 83,
                    "time": 95.13490647499995,
                    "velocity": 0.7874015748031497,
                    "duration": 0.38815805000000125
                },
                {
                    "name": "A5",
                    "midi": 81,
                    "time": 95.52306452499995,
                    "velocity": 0.7874015748031497,
                    "duration": 0.0953947750000026
                },
                {
                    "name": "G5",
                    "midi": 79,
                    "time": 95.63161719999995,
                    "velocity": 0.7874015748031497,
                    "duration": 0.08552634999999498
                },
                {
                    "name": "A5",
                    "midi": 81,
                    "time": 95.72701197499994,
                    "velocity": 0.7874015748031497,
                    "duration": 0.09210530000000006
                },
                {
                    "name": "G5",
                    "midi": 79,
                    "time": 95.82240674999994,
                    "velocity": 0.7874015748031497,
                    "duration": 0.08881582499999752
                },
                {
                    "name": "A5",
                    "midi": 81,
                    "time": 95.91780152499994,
                    "velocity": 0.7874015748031497,
                    "duration": 0.09210530000000006
                },
                {
                    "name": "G5",
                    "midi": 79,
                    "time": 96.02635419999994,
                    "velocity": 0.7874015748031497,
                    "duration": 0.0953947750000026
                },
                {
                    "name": "A5",
                    "midi": 81,
                    "time": 96.11845949999994,
                    "velocity": 0.7874015748031497,
                    "duration": 0.09210530000000006
                },
                {
                    "name": "G5",
                    "midi": 79,
                    "time": 96.22043322499994,
                    "velocity": 0.7874015748031497,
                    "duration": 0.08881582499999752
                },
                {
                    "name": "A5",
                    "midi": 81,
                    "time": 96.31253852499994,
                    "velocity": 0.7874015748031497,
                    "duration": 0.0953947750000026
                },
                {
                    "name": "G5",
                    "midi": 79,
                    "time": 96.40793329999994,
                    "velocity": 0.7874015748031497,
                    "duration": 0.09210530000000006
                },
                {
                    "name": "A5",
                    "midi": 81,
                    "time": 96.51319649999994,
                    "velocity": 0.7874015748031497,
                    "duration": 0.0953947750000026
                },
                {
                    "name": "G5",
                    "midi": 79,
                    "time": 96.61517022499994,
                    "velocity": 0.7874015748031497,
                    "duration": 0.08881582499999752
                },
                {
                    "name": "F#5",
                    "midi": 78,
                    "time": 96.71056499999995,
                    "velocity": 0.7874015748031497,
                    "duration": 0.1842106000000001
                },
                {
                    "name": "E5",
                    "midi": 76,
                    "time": 96.90464402499994,
                    "velocity": 0.7874015748031497,
                    "duration": 0.19407902499999352
                },
                {
                    "name": "E5",
                    "midi": 76,
                    "time": 97.09872304999993,
                    "velocity": 0.7874015748031497,
                    "duration": 1.1710530999999946
                },
                {
                    "name": "E5",
                    "midi": 76,
                    "time": 98.28622352499993,
                    "velocity": 0.7874015748031497,
                    "duration": 0.3914475250000038
                },
                {
                    "name": "F#5",
                    "midi": 78,
                    "time": 98.68424999999993,
                    "velocity": 0.7874015748031497,
                    "duration": 0.5921055000000024
                },
                {
                    "name": "G5",
                    "midi": 79,
                    "time": 99.28293444999994,
                    "velocity": 0.7874015748031497,
                    "duration": 0.1907895500000052
                },
                {
                    "name": "A5",
                    "midi": 81,
                    "time": 99.47372399999995,
                    "velocity": 0.7874015748031497,
                    "duration": 0.5888160249999999
                },
                {
                    "name": "B5",
                    "midi": 83,
                    "time": 100.07240844999994,
                    "velocity": 0.7874015748031497,
                    "duration": 0.1907895500000052
                },
                {
                    "name": "A5",
                    "midi": 81,
                    "time": 100.25990852499994,
                    "velocity": 0.7874015748031497,
                    "duration": 0.582237075000009
                },
                {
                    "name": "G5",
                    "midi": 79,
                    "time": 100.85530349999995,
                    "velocity": 0.7874015748031497,
                    "duration": 0.1907895500000052
                },
                {
                    "name": "G5",
                    "midi": 79,
                    "time": 101.05267199999996,
                    "velocity": 0.7874015748031497,
                    "duration": 0.09210530000000006
                },
                {
                    "name": "F#5",
                    "midi": 78,
                    "time": 101.15793519999995,
                    "velocity": 0.7874015748031497,
                    "duration": 0.08881582499999752
                },
                {
                    "name": "G5",
                    "midi": 79,
                    "time": 101.25661944999995,
                    "velocity": 0.7874015748031497,
                    "duration": 0.09868425000000514
                },
                {
                    "name": "F#5",
                    "midi": 78,
                    "time": 101.34872474999995,
                    "velocity": 0.7874015748031497,
                    "duration": 0.0953947750000026
                },
                {
                    "name": "G5",
                    "midi": 79,
                    "time": 101.45069847499995,
                    "velocity": 0.7874015748031497,
                    "duration": 0.08552634999999498
                },
                {
                    "name": "F#5",
                    "midi": 78,
                    "time": 101.54280377499995,
                    "velocity": 0.7874015748031497,
                    "duration": 0.08881582499999752
                },
                {
                    "name": "E5",
                    "midi": 76,
                    "time": 101.64806697499995,
                    "velocity": 0.7874015748031497,
                    "duration": 0.1842106000000001
                },
                {
                    "name": "G5",
                    "midi": 79,
                    "time": 101.84214599999994,
                    "velocity": 0.7874015748031497,
                    "duration": 0.0953947750000026
                },
                {
                    "name": "F#5",
                    "midi": 78,
                    "time": 101.94083024999995,
                    "velocity": 0.7874015748031497,
                    "duration": 0.09868425000000514
                },
                {
                    "name": "G5",
                    "midi": 79,
                    "time": 102.03293554999995,
                    "velocity": 0.7874015748031497,
                    "duration": 0.0953947750000026
                },
                {
                    "name": "F#5",
                    "midi": 78,
                    "time": 102.13490927499996,
                    "velocity": 0.7874015748031497,
                    "duration": 0.08552634999999498
                },
                {
                    "name": "G5",
                    "midi": 79,
                    "time": 102.23359352499995,
                    "velocity": 0.7874015748031497,
                    "duration": 0.08881582499999752
                },
                {
                    "name": "F#5",
                    "midi": 78,
                    "time": 102.34214619999995,
                    "velocity": 0.7874015748031497,
                    "duration": 0.08552634999999498
                },
                {
                    "name": "G5",
                    "midi": 79,
                    "time": 102.44083044999994,
                    "velocity": 0.7874015748031497,
                    "duration": 0.0953947750000026
                },
                {
                    "name": "F#5",
                    "midi": 78,
                    "time": 102.53951469999994,
                    "velocity": 0.7874015748031497,
                    "duration": 0.08552634999999498
                },
                {
                    "name": "G5",
                    "midi": 79,
                    "time": 102.63490947499993,
                    "velocity": 0.7874015748031497,
                    "duration": 0.09868425000000514
                },
                {
                    "name": "F#5",
                    "midi": 78,
                    "time": 102.73030424999993,
                    "velocity": 0.7874015748031497,
                    "duration": 0.09868425000000514
                },
                {
                    "name": "G5",
                    "midi": 79,
                    "time": 102.82240954999993,
                    "velocity": 0.7874015748031497,
                    "duration": 0.09210530000000006
                },
                {
                    "name": "F#5",
                    "midi": 78,
                    "time": 102.92767274999993,
                    "velocity": 0.7874015748031497,
                    "duration": 0.0953947750000026
                },
                {
                    "name": "D5",
                    "midi": 74,
                    "time": 103.02306752499993,
                    "velocity": 0.7874015748031497,
                    "duration": 0.39473700000000633
                },
                {
                    "name": "E5",
                    "midi": 76,
                    "time": 103.42109399999994,
                    "velocity": 0.7874015748031497,
                    "duration": 0.5789476000000064
                },
                {
                    "name": "F#5",
                    "midi": 78,
                    "time": 104.00662054999995,
                    "velocity": 0.7874015748031497,
                    "duration": 0.1842106000000001
                },
                {
                    "name": "G5",
                    "midi": 79,
                    "time": 104.21714694999996,
                    "velocity": 0.7874015748031497,
                    "duration": 0.5888160249999999
                },
                {
                    "name": "A5",
                    "midi": 81,
                    "time": 104.79938402499995,
                    "velocity": 0.7874015748031497,
                    "duration": 0.19407902500000773
                },
                {
                    "name": "G5",
                    "midi": 79,
                    "time": 105.00333147499995,
                    "velocity": 0.7874015748031497,
                    "duration": 0.5822370749999948
                },
                {
                    "name": "F#5",
                    "midi": 78,
                    "time": 105.59872644999994,
                    "velocity": 0.7874015748031497,
                    "duration": 0.1842106000000001
                },
                {
                    "name": "E5",
                    "midi": 76,
                    "time": 105.78951599999995,
                    "velocity": 0.7874015748031497,
                    "duration": 0.5789476000000064
                },
                {
                    "name": "D5",
                    "midi": 74,
                    "time": 106.37833202499995,
                    "velocity": 0.7874015748031497,
                    "duration": 0.19407902499999352
                },
                {
                    "name": "D5",
                    "midi": 74,
                    "time": 106.57570052499995,
                    "velocity": 0.7874015748031497,
                    "duration": 0.18750007500000265
                },
                {
                    "name": "E5",
                    "midi": 76,
                    "time": 106.77635849999994,
                    "velocity": 0.7874015748031497,
                    "duration": 1.1743425749999972
                },
                {
                    "name": "D5",
                    "midi": 74,
                    "time": 107.96714844999994,
                    "velocity": 0.7874015748031497,
                    "duration": 0.18750007500000265
                },
                {
                    "name": "E5",
                    "midi": 76,
                    "time": 108.15464852499994,
                    "velocity": 0.7874015748031497,
                    "duration": 0.5888160249999999
                },
                {
                    "name": "F5",
                    "midi": 77,
                    "time": 108.74675402499994,
                    "velocity": 0.7874015748031497,
                    "duration": 0.19736849999999606
                },
                {
                    "name": "D5",
                    "midi": 74,
                    "time": 108.95070147499995,
                    "velocity": 0.7874015748031497,
                    "duration": 1.3815795000000008
                },
                {
                    "name": "C5",
                    "midi": 72,
                    "time": 110.33557044999995,
                    "velocity": 0.7874015748031497,
                    "duration": 0.1907895500000052
                },
                {
                    "name": "D5",
                    "midi": 74,
                    "time": 110.52307052499995,
                    "velocity": 0.7874015748031497,
                    "duration": 0.5888160249999999
                },
                {
                    "name": "E5",
                    "midi": 76,
                    "time": 111.11188654999995,
                    "velocity": 0.7874015748031497,
                    "duration": 0.19407902499999352
                },
                {
                    "name": "D5",
                    "midi": 74,
                    "time": 111.31583399999994,
                    "velocity": 0.7874015748031497,
                    "duration": 0.49342124999999726
                },
                {
                    "name": "C5",
                    "midi": 72,
                    "time": 111.81583419999994,
                    "velocity": 0.7874015748031497,
                    "duration": 0.08552634999999498
                },
                {
                    "name": "D5",
                    "midi": 74,
                    "time": 111.90793949999994,
                    "velocity": 0.7874015748031497,
                    "duration": 0.0953947750000026
                },
                {
                    "name": "C5",
                    "midi": 72,
                    "time": 112.00004479999994,
                    "velocity": 0.7874015748031497,
                    "duration": 0.09210530000000006
                },
                {
                    "name": "D5",
                    "midi": 74,
                    "time": 112.11188694999994,
                    "velocity": 0.7874015748031497,
                    "duration": 0.08881582499999752
                },
                {
                    "name": "C5",
                    "midi": 72,
                    "time": 112.19741329999994,
                    "velocity": 0.7874015748031497,
                    "duration": 0.08552635000000919
                },
                {
                    "name": "D5",
                    "midi": 74,
                    "time": 112.30596597499995,
                    "velocity": 0.7874015748031497,
                    "duration": 0.09868425000000514
                },
                {
                    "name": "C5",
                    "midi": 72,
                    "time": 112.39807127499995,
                    "velocity": 0.7874015748031497,
                    "duration": 0.08552635000000919
                },
                {
                    "name": "D5",
                    "midi": 74,
                    "time": 112.49346604999995,
                    "velocity": 0.7874015748031497,
                    "duration": 0.09210530000000006
                },
                {
                    "name": "C5",
                    "midi": 72,
                    "time": 112.59215029999996,
                    "velocity": 0.7874015748031497,
                    "duration": 0.09210530000000006
                },
                {
                    "name": "B4",
                    "midi": 71,
                    "time": 112.69412402499995,
                    "velocity": 0.7874015748031497,
                    "duration": 0.18750007500000265
                },
                {
                    "name": "C5",
                    "midi": 72,
                    "time": 112.89478199999995,
                    "velocity": 0.7874015748031497,
                    "duration": 0.5855265499999973
                },
                {
                    "name": "D5",
                    "midi": 74,
                    "time": 113.49346644999994,
                    "velocity": 0.7874015748031497,
                    "duration": 0.18750007500000265
                },
                {
                    "name": "C5",
                    "midi": 72,
                    "time": 113.67767704999994,
                    "velocity": 0.7874015748031497,
                    "duration": 0.18750007500000265
                },
                {
                    "name": "B4",
                    "midi": 71,
                    "time": 113.87504554999994,
                    "velocity": 0.7874015748031497,
                    "duration": 1.1710531000000088
                },
                {
                    "name": "E5",
                    "midi": 76,
                    "time": 114.47044052499994,
                    "velocity": 0.905511811023622,
                    "duration": 2.368421999999981
                },
                {
                    "name": "A4",
                    "midi": 69,
                    "time": 115.06254602499995,
                    "velocity": 0.7874015748031497,
                    "duration": 0.1842106000000001
                },
                {
                    "name": "B4",
                    "midi": 71,
                    "time": 115.26320399999994,
                    "velocity": 0.7874015748031497,
                    "duration": 0.5822370749999948
                },
                {
                    "name": "C5",
                    "midi": 72,
                    "time": 115.85530949999993,
                    "velocity": 0.7874015748031497,
                    "duration": 0.19407902499999352
                },
                {
                    "name": "C5",
                    "midi": 72,
                    "time": 116.05267799999993,
                    "velocity": 0.7874015748031497,
                    "duration": 0.19736849999999606
                },
                {
                    "name": "A4",
                    "midi": 69,
                    "time": 116.25662544999993,
                    "velocity": 0.7874015748031497,
                    "duration": 1.1809215250000022
                },
                {
                    "name": "D5",
                    "midi": 74,
                    "time": 116.84544147499993,
                    "velocity": 0.7874015748031497,
                    "duration": 2.365132525000007
                },
                {
                    "name": "G4",
                    "midi": 67,
                    "time": 117.43096802499993,
                    "velocity": 0.7874015748031497,
                    "duration": 0.19407902500000773
                },
                {
                    "name": "A4",
                    "midi": 69,
                    "time": 117.63162599999994,
                    "velocity": 0.7874015748031497,
                    "duration": 0.5822370749999948
                },
                {
                    "name": "B4",
                    "midi": 71,
                    "time": 118.22373149999993,
                    "velocity": 0.7874015748031497,
                    "duration": 0.19736849999999606
                },
                {
                    "name": "A4",
                    "midi": 69,
                    "time": 118.42767894999993,
                    "velocity": 0.7874015748031497,
                    "duration": 0.18750007500000265
                },
                {
                    "name": "G4",
                    "midi": 67,
                    "time": 118.61846849999993,
                    "velocity": 0.7874015748031497,
                    "duration": 1.1842110000000048
                },
                {
                    "name": "C5",
                    "midi": 72,
                    "time": 119.21715294999994,
                    "velocity": 0.905511811023622,
                    "duration": 2.1611850749999917
                },
                {
                    "name": "F#4",
                    "midi": 66,
                    "time": 119.80596897499994,
                    "velocity": 0.7874015748031497,
                    "duration": 0.18750007500000265
                },
                {
                    "name": "G4",
                    "midi": 67,
                    "time": 120.00662694999994,
                    "velocity": 0.7874015748031497,
                    "duration": 0.5855265499999973
                },
                {
                    "name": "E4",
                    "midi": 64,
                    "time": 120.59215349999994,
                    "velocity": 0.7874015748031497,
                    "duration": 0.19736849999999606
                },
                {
                    "name": "F#4",
                    "midi": 66,
                    "time": 120.79610094999994,
                    "velocity": 0.7874015748031497,
                    "duration": 0.7763160999999883
                },
                {
                    "name": "C5",
                    "midi": 72,
                    "time": 121.37833802499993,
                    "velocity": 0.7874015748031497,
                    "duration": 0.1842106000000001
                },
                {
                    "name": "B4",
                    "midi": 71,
                    "time": 121.58557494999992,
                    "velocity": 0.7874015748031497,
                    "duration": 0.5855265499999973
                },
                {
                    "name": "A4",
                    "midi": 69,
                    "time": 122.16781202499992,
                    "velocity": 0.7874015748031497,
                    "duration": 0.1907895500000052
                },
                {
                    "name": "G4",
                    "midi": 67,
                    "time": 122.37504894999992,
                    "velocity": 0.7874015748031497,
                    "duration": 1.368421600000005
                },
                {
                    "name": "A4",
                    "midi": 69,
                    "time": 123.75333897499992,
                    "velocity": 0.7874015748031497,
                    "duration": 0.18750007500000265
                },
                {
                    "name": "G4",
                    "midi": 67,
                    "time": 123.94083904999992,
                    "velocity": 0.7874015748031497,
                    "duration": 0.19736849999999606
                },
                {
                    "name": "A4",
                    "midi": 69,
                    "time": 124.14807597499991,
                    "velocity": 0.7874015748031497,
                    "duration": 0.18750007500000265
                },
                {
                    "name": "B4",
                    "midi": 71,
                    "time": 124.34215499999992,
                    "velocity": 0.7874015748031497,
                    "duration": 0.3815790999999962
                },
                {
                    "name": "A4",
                    "midi": 69,
                    "time": 124.73031304999992,
                    "velocity": 0.7874015748031497,
                    "duration": 0.5789476000000064
                },
                {
                    "name": "G4",
                    "midi": 67,
                    "time": 125.32241854999992,
                    "velocity": 0.7874015748031497,
                    "duration": 0.19736849999999606
                },
                {
                    "name": "G4",
                    "midi": 67,
                    "time": 125.51978704999992,
                    "velocity": 0.7874015748031497,
                    "duration": 1.565790100000001
                },
                {
                    "name": "D4",
                    "midi": 62,
                    "time": 125.92110299999992,
                    "velocity": 0.7874015748031497,
                    "duration": 0.3815790999999962
                },
                {
                    "name": "B3",
                    "midi": 59,
                    "time": 126.32241894999991,
                    "velocity": 0.7874015748031497,
                    "duration": 0.7763161000000025
                },
                {
                    "name": "F#5",
                    "midi": 78,
                    "time": 127.49347204999992,
                    "velocity": 0.7874015748031497,
                    "duration": 0.3848685749999987
                },
                {
                    "name": "A4",
                    "midi": 69,
                    "time": 127.88820904999992,
                    "velocity": 0.7874015748031497,
                    "duration": 0.7894740000000127
                },
                {
                    "name": "D5",
                    "midi": 74,
                    "time": 127.89149852499992,
                    "velocity": 0.7874015748031497,
                    "duration": 0.779605575000005
                },
                {
                    "name": "F#5",
                    "midi": 78,
                    "time": 127.90136694999991,
                    "velocity": 0.7874015748031497,
                    "duration": 1.177632050000014
                },
                {
                    "name": "F#5",
                    "midi": 78,
                    "time": 129.08228847499993,
                    "velocity": 0.7874015748031497,
                    "duration": 0.3947369999999921
                },
                {
                    "name": "E5",
                    "midi": 76,
                    "time": 129.47702547499992,
                    "velocity": 0.7874015748031497,
                    "duration": 0.5921055000000024
                },
                {
                    "name": "F#5",
                    "midi": 78,
                    "time": 130.06913097499992,
                    "velocity": 0.7874015748031497,
                    "duration": 0.1907895500000052
                },
                {
                    "name": "F#5",
                    "midi": 78,
                    "time": 130.25992052499993,
                    "velocity": 0.7874015748031497,
                    "duration": 0.19736850000001027
                },
                {
                    "name": "G5",
                    "midi": 79,
                    "time": 130.46386797499994,
                    "velocity": 0.7874015748031497,
                    "duration": 0.09539477499998839
                },
                {
                    "name": "F#5",
                    "midi": 78,
                    "time": 130.56584169999994,
                    "velocity": 0.7874015748031497,
                    "duration": 0.08881582500001173
                },
                {
                    "name": "G5",
                    "midi": 79,
                    "time": 130.66452594999996,
                    "velocity": 0.7874015748031497,
                    "duration": 0.08881582500001173
                },
                {
                    "name": "F#5",
                    "midi": 78,
                    "time": 130.75334177499997,
                    "velocity": 0.7874015748031497,
                    "duration": 0.08552635000000919
                },
                {
                    "name": "G5",
                    "midi": 79,
                    "time": 130.8553155,
                    "velocity": 0.7874015748031497,
                    "duration": 0.09210529999998585
                },
                {
                    "name": "F#5",
                    "midi": 78,
                    "time": 130.94742079999997,
                    "velocity": 0.7874015748031497,
                    "duration": 0.09868424999999093
                },
                {
                    "name": "G5",
                    "midi": 79,
                    "time": 131.04610504999997,
                    "velocity": 0.7874015748031497,
                    "duration": 0.08881582500001173
                },
                {
                    "name": "F#5",
                    "midi": 78,
                    "time": 131.14478929999999,
                    "velocity": 0.7874015748031497,
                    "duration": 0.08881582500001173
                },
                {
                    "name": "G5",
                    "midi": 79,
                    "time": 131.246763025,
                    "velocity": 0.7874015748031497,
                    "duration": 0.09210529999998585
                },
                {
                    "name": "F#5",
                    "midi": 78,
                    "time": 131.352026225,
                    "velocity": 0.7874015748031497,
                    "duration": 0.08881582500001173
                },
                {
                    "name": "G5",
                    "midi": 79,
                    "time": 131.44742100000002,
                    "velocity": 0.7874015748031497,
                    "duration": 0.1907895500000052
                },
                {
                    "name": "G5",
                    "midi": 79,
                    "time": 131.64478950000003,
                    "velocity": 0.7874015748031497,
                    "duration": 0.19407902500000773
                },
                {
                    "name": "G5",
                    "midi": 79,
                    "time": 131.84215800000004,
                    "velocity": 0.7874015748031497,
                    "duration": 0.5855265499999973
                },
                {
                    "name": "F#5",
                    "midi": 78,
                    "time": 132.42768455000004,
                    "velocity": 0.7874015748031497,
                    "duration": 0.19736850000001027
                },
                {
                    "name": "G4",
                    "midi": 67,
                    "time": 132.62505305000005,
                    "velocity": 0.7874015748031497,
                    "duration": 0.7861845250000101
                },
                {
                    "name": "C5",
                    "midi": 72,
                    "time": 132.62505305000005,
                    "velocity": 0.7874015748031497,
                    "duration": 0.7894740000000127
                },
                {
                    "name": "E5",
                    "midi": 76,
                    "time": 132.63492147500006,
                    "velocity": 0.7874015748031497,
                    "duration": 1.1710530999999946
                },
                {
                    "name": "E5",
                    "midi": 76,
                    "time": 133.81584300000006,
                    "velocity": 0.7874015748031497,
                    "duration": 0.3914475249999896
                },
                {
                    "name": "D5",
                    "midi": 74,
                    "time": 134.20729052500005,
                    "velocity": 0.7874015748031497,
                    "duration": 0.5855265499999973
                },
                {
                    "name": "E5",
                    "midi": 76,
                    "time": 134.80926445000006,
                    "velocity": 0.7874015748031497,
                    "duration": 0.1842106000000001
                },
                {
                    "name": "E5",
                    "midi": 76,
                    "time": 134.99347505000006,
                    "velocity": 0.7874015748031497,
                    "duration": 0.18750007500000265
                },
                {
                    "name": "F5",
                    "midi": 77,
                    "time": 135.19742250000007,
                    "velocity": 0.7874015748031497,
                    "duration": 1.1776320499999997
                },
                {
                    "name": "F5",
                    "midi": 77,
                    "time": 136.38163350000008,
                    "velocity": 0.7874015748031497,
                    "duration": 0.1907895500000052
                },
                {
                    "name": "F5",
                    "midi": 77,
                    "time": 136.5790020000001,
                    "velocity": 0.7874015748031497,
                    "duration": 0.5855265499999973
                },
                {
                    "name": "C#5",
                    "midi": 73,
                    "time": 137.16452855000009,
                    "velocity": 0.7874015748031497,
                    "duration": 0.1842106000000001
                },
                {
                    "name": "D5",
                    "midi": 74,
                    "time": 137.37505495000008,
                    "velocity": 0.7874015748031497,
                    "duration": 0.5888160249999999
                },
                {
                    "name": "E5",
                    "midi": 76,
                    "time": 137.95729202500007,
                    "velocity": 0.7874015748031497,
                    "duration": 0.19736850000001027
                },
                {
                    "name": "E5",
                    "midi": 76,
                    "time": 138.15795000000008,
                    "velocity": 0.7874015748031497,
                    "duration": 0.08552635000000919
                },
                {
                    "name": "D5",
                    "midi": 74,
                    "time": 138.2533447750001,
                    "velocity": 0.7874015748031497,
                    "duration": 0.09868424999999093
                },
                {
                    "name": "E5",
                    "midi": 76,
                    "time": 138.3553185000001,
                    "velocity": 0.7874015748031497,
                    "duration": 0.09539477499998839
                },
                {
                    "name": "D5",
                    "midi": 74,
                    "time": 138.4572922250001,
                    "velocity": 0.7874015748031497,
                    "duration": 0.09539477499998839
                },
                {
                    "name": "E5",
                    "midi": 76,
                    "time": 138.55926595000008,
                    "velocity": 0.7874015748031497,
                    "duration": 0.09868424999999093
                },
                {
                    "name": "D5",
                    "midi": 74,
                    "time": 138.65795020000007,
                    "velocity": 0.7874015748031497,
                    "duration": 0.09210529999998585
                },
                {
                    "name": "E5",
                    "midi": 76,
                    "time": 138.75663445000006,
                    "velocity": 0.7874015748031497,
                    "duration": 0.09539477500001681
                },
                {
                    "name": "D5",
                    "midi": 74,
                    "time": 138.84216080000007,
                    "velocity": 0.7874015748031497,
                    "duration": 0.08552635000000919
                },
                {
                    "name": "E5",
                    "midi": 76,
                    "time": 138.9408450500001,
                    "velocity": 0.7874015748031497,
                    "duration": 0.09539477499998839
                },
                {
                    "name": "D5",
                    "midi": 74,
                    "time": 139.0461082500001,
                    "velocity": 0.7874015748031497,
                    "duration": 0.09539477499998839
                },
                {
                    "name": "E5",
                    "midi": 76,
                    "time": 139.15137145000008,
                    "velocity": 0.7874015748031497,
                    "duration": 0.09539477499998839
                },
                {
                    "name": "D5",
                    "midi": 74,
                    "time": 139.25005570000008,
                    "velocity": 0.7874015748031497,
                    "duration": 0.08552635000000919
                },
                {
                    "name": "C5",
                    "midi": 72,
                    "time": 139.33558205000008,
                    "velocity": 0.7874015748031497,
                    "duration": 0.3947369999999921
                },
                {
                    "name": "C5",
                    "midi": 72,
                    "time": 139.7434769500001,
                    "velocity": 0.7874015748031497,
                    "duration": 0.19407902500000773
                },
                {
                    "name": "B4",
                    "midi": 71,
                    "time": 139.9408454500001,
                    "velocity": 0.7874015748031497,
                    "duration": 1.1809215250000022
                },
                {
                    "name": "B5",
                    "midi": 83,
                    "time": 141.1151880250001,
                    "velocity": 0.7874015748031497,
                    "duration": 0.1842106000000001
                },
                {
                    "name": "B5",
                    "midi": 83,
                    "time": 141.3158460000001,
                    "velocity": 0.7874015748031497,
                    "duration": 0.5855265499999973
                },
                {
                    "name": "F#5",
                    "midi": 78,
                    "time": 141.9112409750001,
                    "velocity": 0.7874015748031497,
                    "duration": 0.19736850000001027
                },
                {
                    "name": "G5",
                    "midi": 79,
                    "time": 142.10532000000012,
                    "velocity": 0.7874015748031497,
                    "duration": 0.1842106000000001
                },
                {
                    "name": "A5",
                    "midi": 81,
                    "time": 142.29939902500013,
                    "velocity": 0.7874015748031497,
                    "duration": 0.18750007500000265
                },
                {
                    "name": "B5",
                    "midi": 83,
                    "time": 142.50663595000012,
                    "velocity": 0.7874015748031497,
                    "duration": 0.3815791000000104
                },
                {
                    "name": "A5",
                    "midi": 81,
                    "time": 142.90137295000014,
                    "velocity": 0.7874015748031497,
                    "duration": 0.09868424999999093
                },
                {
                    "name": "G5",
                    "midi": 79,
                    "time": 142.99676772500013,
                    "velocity": 0.7874015748031497,
                    "duration": 0.09539477499998839
                },
                {
                    "name": "A5",
                    "midi": 81,
                    "time": 143.09216250000011,
                    "velocity": 0.7874015748031497,
                    "duration": 0.08881582500001173
                },
                {
                    "name": "G5",
                    "midi": 79,
                    "time": 143.18755727500013,
                    "velocity": 0.7874015748031497,
                    "duration": 0.09868424999999093
                },
                {
                    "name": "A5",
                    "midi": 81,
                    "time": 143.28295205000012,
                    "velocity": 0.7874015748031497,
                    "duration": 0.08881582500001173
                },
                {
                    "name": "G5",
                    "midi": 79,
                    "time": 143.38163630000014,
                    "velocity": 0.7874015748031497,
                    "duration": 0.09539477499998839
                },
                {
                    "name": "A5",
                    "midi": 81,
                    "time": 143.49018897500014,
                    "velocity": 0.7874015748031497,
                    "duration": 0.08881582500001173
                },
                {
                    "name": "G5",
                    "midi": 79,
                    "time": 143.58558375000015,
                    "velocity": 0.7874015748031497,
                    "duration": 0.08552635000000919
                },
                {
                    "name": "A5",
                    "midi": 81,
                    "time": 143.68097852500017,
                    "velocity": 0.7874015748031497,
                    "duration": 0.08881582500001173
                },
                {
                    "name": "G5",
                    "midi": 79,
                    "time": 143.7796627750002,
                    "velocity": 0.7874015748031497,
                    "duration": 0.09210529999998585
                },
                {
                    "name": "A5",
                    "midi": 81,
                    "time": 143.88163650000018,
                    "velocity": 0.7874015748031497,
                    "duration": 0.09868424999999093
                },
                {
                    "name": "G5",
                    "midi": 79,
                    "time": 143.98361022500018,
                    "velocity": 0.7874015748031497,
                    "duration": 0.08552635000000919
                },
                {
                    "name": "F#5",
                    "midi": 78,
                    "time": 144.0855839500002,
                    "velocity": 0.7874015748031497,
                    "duration": 0.19736850000001027
                },
                {
                    "name": "E5",
                    "midi": 76,
                    "time": 144.2796629750002,
                    "velocity": 0.7874015748031497,
                    "duration": 0.1907895500000052
                },
                {
                    "name": "E5",
                    "midi": 76,
                    "time": 144.48032095000022,
                    "velocity": 0.7874015748031497,
                    "duration": 1.1710530999999946
                },
                {
                    "name": "E5",
                    "midi": 76,
                    "time": 145.65466352500022,
                    "velocity": 0.7874015748031497,
                    "duration": 0.3914475249999896
                },
                {
                    "name": "F#5",
                    "midi": 78,
                    "time": 146.0526900000002,
                    "velocity": 0.7874015748031497,
                    "duration": 0.5789475999999922
                },
                {
                    "name": "G5",
                    "midi": 79,
                    "time": 146.6415060250002,
                    "velocity": 0.7874015748031497,
                    "duration": 0.19736850000001027
                },
                {
                    "name": "A5",
                    "midi": 81,
                    "time": 146.84874295000023,
                    "velocity": 0.7874015748031497,
                    "duration": 0.5888160249999999
                },
                {
                    "name": "B5",
                    "midi": 83,
                    "time": 147.43426950000023,
                    "velocity": 0.7874015748031497,
                    "duration": 0.19736850000001027
                },
                {
                    "name": "A5",
                    "midi": 81,
                    "time": 147.62834852500023,
                    "velocity": 0.7874015748031497,
                    "duration": 0.5822370749999948
                },
                {
                    "name": "G5",
                    "midi": 79,
                    "time": 148.22374350000024,
                    "velocity": 0.7874015748031497,
                    "duration": 0.1907895500000052
                },
                {
                    "name": "G5",
                    "midi": 79,
                    "time": 148.42111200000025,
                    "velocity": 0.7874015748031497,
                    "duration": 0.08552635000000919
                },
                {
                    "name": "F#5",
                    "midi": 78,
                    "time": 148.51650677500027,
                    "velocity": 0.7874015748031497,
                    "duration": 0.09539477499998839
                },
                {
                    "name": "G5",
                    "midi": 79,
                    "time": 148.61519102500026,
                    "velocity": 0.7874015748031497,
                    "duration": 0.08552635000000919
                },
                {
                    "name": "F#5",
                    "midi": 78,
                    "time": 148.71058580000027,
                    "velocity": 0.7874015748031497,
                    "duration": 0.09210529999998585
                },
                {
                    "name": "G5",
                    "midi": 79,
                    "time": 148.81255952500027,
                    "velocity": 0.7874015748031497,
                    "duration": 0.08881582500001173
                },
                {
                    "name": "F#5",
                    "midi": 78,
                    "time": 148.9112437750003,
                    "velocity": 0.7874015748031497,
                    "duration": 0.09868424999999093
                },
                {
                    "name": "E5",
                    "midi": 76,
                    "time": 149.01979645000029,
                    "velocity": 0.7874015748031497,
                    "duration": 0.1842106000000001
                },
                {
                    "name": "G5",
                    "midi": 79,
                    "time": 149.2138754750003,
                    "velocity": 0.7874015748031497,
                    "duration": 0.08881582500001173
                },
                {
                    "name": "F#5",
                    "midi": 78,
                    "time": 149.31584920000032,
                    "velocity": 0.7874015748031497,
                    "duration": 0.08552635000000919
                },
                {
                    "name": "G5",
                    "midi": 79,
                    "time": 149.41124397500033,
                    "velocity": 0.7874015748031497,
                    "duration": 0.08881582500001173
                },
                {
                    "name": "F#5",
                    "midi": 78,
                    "time": 149.50992822500035,
                    "velocity": 0.7874015748031497,
                    "duration": 0.08552635000000919
                },
                {
                    "name": "G5",
                    "midi": 79,
                    "time": 149.60203352500037,
                    "velocity": 0.7874015748031497,
                    "duration": 0.09539477499998839
                },
                {
                    "name": "F#5",
                    "midi": 78,
                    "time": 149.70729672500036,
                    "velocity": 0.7874015748031497,
                    "duration": 0.09868425000001935
                },
                {
                    "name": "G5",
                    "midi": 79,
                    "time": 149.79611255000037,
                    "velocity": 0.7874015748031497,
                    "duration": 0.09868425000001935
                },
                {
                    "name": "F#5",
                    "midi": 78,
                    "time": 149.9046652250004,
                    "velocity": 0.7874015748031497,
                    "duration": 0.08552635000000919
                },
                {
                    "name": "G5",
                    "midi": 79,
                    "time": 150.00663895000042,
                    "velocity": 0.7874015748031497,
                    "duration": 0.09539477500001681
                },
                {
                    "name": "F#5",
                    "midi": 78,
                    "time": 150.09545477500043,
                    "velocity": 0.7874015748031497,
                    "duration": 0.09539477500001681
                },
                {
                    "name": "G5",
                    "midi": 79,
                    "time": 150.19084955000045,
                    "velocity": 0.7874015748031497,
                    "duration": 0.09539477499998839
                },
                {
                    "name": "F#5",
                    "midi": 78,
                    "time": 150.29611275000045,
                    "velocity": 0.7874015748031497,
                    "duration": 0.09868424999999093
                },
                {
                    "name": "D5",
                    "midi": 74,
                    "time": 150.38821805000043,
                    "velocity": 0.7874015748031497,
                    "duration": 0.38815805000001546
                },
                {
                    "name": "E5",
                    "midi": 76,
                    "time": 150.79611295000043,
                    "velocity": 0.7874015748031497,
                    "duration": 0.5921055000000024
                },
                {
                    "name": "F#5",
                    "midi": 78,
                    "time": 151.38492897500043,
                    "velocity": 0.7874015748031497,
                    "duration": 0.19407902500000773
                },
                {
                    "name": "G5",
                    "midi": 79,
                    "time": 151.57900800000044,
                    "velocity": 0.7874015748031497,
                    "duration": 0.5789475999999922
                },
                {
                    "name": "A5",
                    "midi": 81,
                    "time": 152.17440297500045,
                    "velocity": 0.7874015748031497,
                    "duration": 0.19407902500000773
                },
                {
                    "name": "G5",
                    "midi": 79,
                    "time": 152.36848200000045,
                    "velocity": 0.7874015748031497,
                    "duration": 0.5855265499999973
                },
                {
                    "name": "F#5",
                    "midi": 78,
                    "time": 152.96387697500046,
                    "velocity": 0.7874015748031497,
                    "duration": 0.1907895500000052
                },
                {
                    "name": "E5",
                    "midi": 76,
                    "time": 153.16124547500047,
                    "velocity": 0.7874015748031497,
                    "duration": 0.5921055000000024
                },
                {
                    "name": "D5",
                    "midi": 74,
                    "time": 153.75335097500047,
                    "velocity": 0.7874015748031497,
                    "duration": 0.1907895500000052
                },
                {
                    "name": "D5",
                    "midi": 74,
                    "time": 153.95071947500048,
                    "velocity": 0.7874015748031497,
                    "duration": 0.1907895500000052
                },
                {
                    "name": "E5",
                    "midi": 76,
                    "time": 154.1513774500005,
                    "velocity": 0.7874015748031497,
                    "duration": 1.1776320499999997
                },
                {
                    "name": "D5",
                    "midi": 74,
                    "time": 155.3224305500005,
                    "velocity": 0.7874015748031497,
                    "duration": 0.18750007500000265
                },
                {
                    "name": "E5",
                    "midi": 76,
                    "time": 155.5263780000005,
                    "velocity": 0.7874015748031497,
                    "duration": 0.5822370749999948
                },
                {
                    "name": "F5",
                    "midi": 77,
                    "time": 156.1217729750005,
                    "velocity": 0.7874015748031497,
                    "duration": 0.18750007500000265
                },
                {
                    "name": "D5",
                    "midi": 74,
                    "time": 156.3092730500005,
                    "velocity": 0.7874015748031497,
                    "duration": 1.368421600000005
                },
                {
                    "name": "C5",
                    "midi": 72,
                    "time": 157.6974315000005,
                    "velocity": 0.7874015748031497,
                    "duration": 0.19407902500000773
                },
                {
                    "name": "D5",
                    "midi": 74,
                    "time": 157.8882210500005,
                    "velocity": 0.7874015748031497,
                    "duration": 0.5789475999999922
                },
                {
                    "name": "E5",
                    "midi": 76,
                    "time": 158.4869055000005,
                    "velocity": 0.7874015748031497,
                    "duration": 0.1842106000000001
                },
                {
                    "name": "D5",
                    "midi": 74,
                    "time": 158.6809845250005,
                    "velocity": 0.7874015748031497,
                    "duration": 0.48355282500000385
                },
                {
                    "name": "C5",
                    "midi": 72,
                    "time": 159.1711163000005,
                    "velocity": 0.7874015748031497,
                    "duration": 0.09210529999998585
                },
                {
                    "name": "D5",
                    "midi": 74,
                    "time": 159.2730900250005,
                    "velocity": 0.7874015748031497,
                    "duration": 0.08552635000000919
                },
                {
                    "name": "C5",
                    "midi": 72,
                    "time": 159.3816427000005,
                    "velocity": 0.7874015748031497,
                    "duration": 0.08552635000000919
                },
                {
                    "name": "D5",
                    "midi": 74,
                    "time": 159.4737480000005,
                    "velocity": 0.7874015748031497,
                    "duration": 0.08552635000000919
                },
                {
                    "name": "C5",
                    "midi": 72,
                    "time": 159.57572172500053,
                    "velocity": 0.7874015748031497,
                    "duration": 0.09539477500001681
                },
                {
                    "name": "D5",
                    "midi": 74,
                    "time": 159.66453755000055,
                    "velocity": 0.7874015748031497,
                    "duration": 0.09210530000001427
                },
                {
                    "name": "C5",
                    "midi": 72,
                    "time": 159.76651127500057,
                    "velocity": 0.7874015748031497,
                    "duration": 0.09539477499998839
                },
                {
                    "name": "D5",
                    "midi": 74,
                    "time": 159.87506395000057,
                    "velocity": 0.7874015748031497,
                    "duration": 0.09539477499998839
                },
                {
                    "name": "C5",
                    "midi": 72,
                    "time": 159.97374820000056,
                    "velocity": 0.7874015748031497,
                    "duration": 0.09210530000001427
                },
                {
                    "name": "B4",
                    "midi": 71,
                    "time": 160.06256402500057,
                    "velocity": 0.7874015748031497,
                    "duration": 0.19407902500000773
                },
                {
                    "name": "C5",
                    "midi": 72,
                    "time": 160.25993252500058,
                    "velocity": 0.7874015748031497,
                    "duration": 0.5822370749999948
                },
                {
                    "name": "D5",
                    "midi": 74,
                    "time": 160.85203802500058,
                    "velocity": 0.7874015748031497,
                    "duration": 0.19736850000001027
                },
                {
                    "name": "C5",
                    "midi": 72,
                    "time": 161.0461170500006,
                    "velocity": 0.7874015748031497,
                    "duration": 0.1907895500000052
                },
                {
                    "name": "B4",
                    "midi": 71,
                    "time": 161.25664345000058,
                    "velocity": 0.7874015748031497,
                    "duration": 1.1710530999999946
                },
                {
                    "name": "E5",
                    "midi": 76,
                    "time": 161.83559105000057,
                    "velocity": 0.905511811023622,
                    "duration": 2.368422000000038
                },
                {
                    "name": "A4",
                    "midi": 69,
                    "time": 162.42769655000058,
                    "velocity": 0.7874015748031497,
                    "duration": 0.19736850000001027
                },
                {
                    "name": "B4",
                    "midi": 71,
                    "time": 162.6283545250006,
                    "velocity": 0.7874015748031497,
                    "duration": 0.5822370749999948
                },
                {
                    "name": "C5",
                    "midi": 72,
                    "time": 163.2204600250006,
                    "velocity": 0.7874015748031497,
                    "duration": 0.19736850000001027
                },
                {
                    "name": "C5",
                    "midi": 72,
                    "time": 163.4244074750006,
                    "velocity": 0.7874015748031497,
                    "duration": 0.1842106000000001
                },
                {
                    "name": "A4",
                    "midi": 69,
                    "time": 163.62177597500062,
                    "velocity": 0.7874015748031497,
                    "duration": 1.1842110000000048
                },
                {
                    "name": "D5",
                    "midi": 74,
                    "time": 164.2040130500006,
                    "velocity": 0.7874015748031497,
                    "duration": 2.361843050000033
                },
                {
                    "name": "G4",
                    "midi": 67,
                    "time": 164.79940802500062,
                    "velocity": 0.7874015748031497,
                    "duration": 0.1907895500000052
                },
                {
                    "name": "A4",
                    "midi": 69,
                    "time": 164.99348705000062,
                    "velocity": 0.7874015748031497,
                    "duration": 0.5888160249999999
                },
                {
                    "name": "B4",
                    "midi": 71,
                    "time": 165.58888202500063,
                    "velocity": 0.7874015748031497,
                    "duration": 0.19407902500000773
                },
                {
                    "name": "A4",
                    "midi": 69,
                    "time": 165.78954000000064,
                    "velocity": 0.7874015748031497,
                    "duration": 0.1842106000000001
                },
                {
                    "name": "G4",
                    "midi": 67,
                    "time": 165.98032955000065,
                    "velocity": 0.7874015748031497,
                    "duration": 1.1743425749999972
                },
                {
                    "name": "C5",
                    "midi": 72,
                    "time": 166.58230347500066,
                    "velocity": 0.905511811023622,
                    "duration": 2.16118507500002
                },
                {
                    "name": "F#4",
                    "midi": 66,
                    "time": 167.16454055000065,
                    "velocity": 0.7874015748031497,
                    "duration": 0.1907895500000052
                },
                {
                    "name": "G4",
                    "midi": 67,
                    "time": 167.36848800000067,
                    "velocity": 0.7874015748031497,
                    "duration": 0.5921055000000024
                },
                {
                    "name": "E4",
                    "midi": 64,
                    "time": 167.96388297500067,
                    "velocity": 0.7874015748031497,
                    "duration": 0.19407902500000773
                },
                {
                    "name": "F#4",
                    "midi": 66,
                    "time": 168.15467252500068,
                    "velocity": 0.7874015748031497,
                    "duration": 0.7861845250000101
                },
                {
                    "name": "C5",
                    "midi": 72,
                    "time": 168.74348855000068,
                    "velocity": 0.7874015748031497,
                    "duration": 0.19736850000001027
                },
                {
                    "name": "B4",
                    "midi": 71,
                    "time": 168.9441465250007,
                    "velocity": 0.7874015748031497,
                    "duration": 0.5822370749999948
                },
                {
                    "name": "A4",
                    "midi": 69,
                    "time": 169.5428309750007,
                    "velocity": 0.7874015748031497,
                    "duration": 0.18750007500000265
                },
                {
                    "name": "G4",
                    "midi": 67,
                    "time": 169.7434889500007,
                    "velocity": 0.7874015748031497,
                    "duration": 1.381579500000015
                },
                {
                    "name": "A4",
                    "midi": 69,
                    "time": 171.11848950000072,
                    "velocity": 0.7874015748031497,
                    "duration": 0.18750007500000265
                },
                {
                    "name": "G4",
                    "midi": 67,
                    "time": 171.32243695000074,
                    "velocity": 0.7874015748031497,
                    "duration": 0.18750007500000265
                },
                {
                    "name": "A4",
                    "midi": 69,
                    "time": 171.50664755000074,
                    "velocity": 0.7874015748031497,
                    "duration": 0.1907895500000052
                },
                {
                    "name": "B4",
                    "midi": 71,
                    "time": 171.71388447500075,
                    "velocity": 0.7874015748031497,
                    "duration": 0.3848685750000129
                },
                {
                    "name": "A4",
                    "midi": 69,
                    "time": 172.11191095000078,
                    "velocity": 0.7874015748031497,
                    "duration": 0.5888160249999999
                },
                {
                    "name": "G4",
                    "midi": 67,
                    "time": 172.70072697500078,
                    "velocity": 0.7874015748031497,
                    "duration": 0.19407902500000773
                },
                {
                    "name": "G4",
                    "midi": 67,
                    "time": 172.8980954750008,
                    "velocity": 0.7874015748031497,
                    "duration": 1.5756585249999944
                },
                {
                    "name": "D4",
                    "midi": 62,
                    "time": 173.28954300000078,
                    "velocity": 0.7874015748031497,
                    "duration": 0.3914475249999896
                },
                {
                    "name": "B3",
                    "midi": 59,
                    "time": 173.68428000000077,
                    "velocity": 0.7874015748031497,
                    "duration": 0.7763161000000025
                }
            ],
            "controlChanges": {
                "7": [
                    {
                        "number": 7,
                        "time": 0,
                        "value": 0.7874015748031497
                    }
                ],
                "10": [
                    {
                        "number": 10,
                        "time": 0,
                        "value": 0.5039370078740157
                    }
                ]
            },
            "id": 1,
            "name": "Henry Purcel (1659-1695)",
            "instrumentNumber": 6,
            "instrument": "harpsichord",
            "instrumentFamily": "piano",
            "channelNumber": 0,
            "isPercussion": false
        },
        {
            "startTime": 4.730265049999999,
            "duration": 177.61849210000057,
            "length": 234,
            "notes": [
                {
                    "name": "G3",
                    "midi": 55,
                    "time": 4.730265049999999,
                    "velocity": 0.8661417322834646,
                    "duration": 1.569079575
                },
                {
                    "name": "G2",
                    "midi": 43,
                    "time": 5.532896949999999,
                    "velocity": 0.8661417322834646,
                    "duration": 0.7796055750000006
                },
                {
                    "name": "F#3",
                    "midi": 54,
                    "time": 6.312502524999999,
                    "velocity": 0.8661417322834646,
                    "duration": 0.7861845249999995
                },
                {
                    "name": "G3",
                    "midi": 55,
                    "time": 7.098687049999999,
                    "velocity": 0.8661417322834646,
                    "duration": 1.5789480000000005
                },
                {
                    "name": "G2",
                    "midi": 43,
                    "time": 7.891450524999999,
                    "velocity": 0.8661417322834646,
                    "duration": 1.5690795750000008
                },
                {
                    "name": "D3",
                    "midi": 50,
                    "time": 9.470398525,
                    "velocity": 0.8661417322834646,
                    "duration": 1.5723690500000007
                },
                {
                    "name": "D2",
                    "midi": 38,
                    "time": 10.263162,
                    "velocity": 0.8661417322834646,
                    "duration": 0.7763161000000007
                },
                {
                    "name": "C3",
                    "midi": 48,
                    "time": 11.055925475,
                    "velocity": 0.8661417322834646,
                    "duration": 0.7894740000000002
                },
                {
                    "name": "B2",
                    "midi": 47,
                    "time": 11.838820525000001,
                    "velocity": 0.8661417322834646,
                    "duration": 0.7796055749999997
                },
                {
                    "name": "G3",
                    "midi": 55,
                    "time": 12.24342595,
                    "velocity": 0.8661417322834646,
                    "duration": 0.7828950500000005
                },
                {
                    "name": "A2",
                    "midi": 45,
                    "time": 12.628294525000001,
                    "velocity": 0.8661417322834646,
                    "duration": 1.5756585249999997
                },
                {
                    "name": "G3",
                    "midi": 55,
                    "time": 13.029610475000002,
                    "velocity": 0.8661417322834646,
                    "duration": 0.3881580499999995
                },
                {
                    "name": "F#3",
                    "midi": 54,
                    "time": 13.417768525000001,
                    "velocity": 0.8661417322834646,
                    "duration": 0.7861845249999995
                },
                {
                    "name": "G3",
                    "midi": 55,
                    "time": 14.20395305,
                    "velocity": 0.8661417322834646,
                    "duration": 1.1710531000000017
                },
                {
                    "name": "G2",
                    "midi": 43,
                    "time": 14.213821475000001,
                    "velocity": 0.8661417322834646,
                    "duration": 0.7763161000000007
                },
                {
                    "name": "G3",
                    "midi": 55,
                    "time": 15.786190525000002,
                    "velocity": 0.8661417322834646,
                    "duration": 0.3815790999999997
                },
                {
                    "name": "A3",
                    "midi": 57,
                    "time": 16.180927525,
                    "velocity": 0.8661417322834646,
                    "duration": 0.3815790999999997
                },
                {
                    "name": "E3",
                    "midi": 52,
                    "time": 16.582243475000002,
                    "velocity": 0.8661417322834646,
                    "duration": 1.1743425750000007
                },
                {
                    "name": "E3",
                    "midi": 52,
                    "time": 17.769743950000002,
                    "velocity": 0.8661417322834646,
                    "duration": 0.3848685749999987
                },
                {
                    "name": "F#3",
                    "midi": 54,
                    "time": 18.154612525,
                    "velocity": 0.8661417322834646,
                    "duration": 0.5888160249999999
                },
                {
                    "name": "G3",
                    "midi": 55,
                    "time": 18.75658645,
                    "velocity": 0.8661417322834646,
                    "duration": 0.1842106000000001
                },
                {
                    "name": "D3",
                    "midi": 50,
                    "time": 18.944086525,
                    "velocity": 0.8661417322834646,
                    "duration": 1.1743425750000007
                },
                {
                    "name": "D3",
                    "midi": 50,
                    "time": 20.13816595,
                    "velocity": 0.8661417322834646,
                    "duration": 0.3815790999999997
                },
                {
                    "name": "E3",
                    "midi": 52,
                    "time": 20.529613475,
                    "velocity": 0.8661417322834646,
                    "duration": 0.5888160249999999
                },
                {
                    "name": "F#3",
                    "midi": 54,
                    "time": 21.115140025000002,
                    "velocity": 0.8661417322834646,
                    "duration": 0.19407902500000063
                },
                {
                    "name": "C3",
                    "midi": 48,
                    "time": 21.312508525000002,
                    "velocity": 0.8661417322834646,
                    "duration": 1.1710530999999982
                },
                {
                    "name": "C3",
                    "midi": 48,
                    "time": 22.496719525,
                    "velocity": 0.984251968503937,
                    "duration": 0.39144752500000024
                },
                {
                    "name": "D3",
                    "midi": 50,
                    "time": 22.894746,
                    "velocity": 0.984251968503937,
                    "duration": 0.5888160249999999
                },
                {
                    "name": "E3",
                    "midi": 52,
                    "time": 23.483562025,
                    "velocity": 0.984251968503937,
                    "duration": 0.19407902500000063
                },
                {
                    "name": "B2",
                    "midi": 47,
                    "time": 23.680930525,
                    "velocity": 0.984251968503937,
                    "duration": 2.361843050000001
                },
                {
                    "name": "G3",
                    "midi": 55,
                    "time": 25.256589050000002,
                    "velocity": 0.8661417322834646,
                    "duration": 1.9605271000000002
                },
                {
                    "name": "A2",
                    "midi": 45,
                    "time": 26.04606305,
                    "velocity": 0.8661417322834646,
                    "duration": 2.361843050000001
                },
                {
                    "name": "G3",
                    "midi": 55,
                    "time": 27.240142475000003,
                    "velocity": 0.8661417322834646,
                    "duration": 0.3815790999999997
                },
                {
                    "name": "F#3",
                    "midi": 54,
                    "time": 27.63816895,
                    "velocity": 0.8661417322834646,
                    "duration": 0.7894739999999985
                },
                {
                    "name": "G3",
                    "midi": 55,
                    "time": 28.424353475,
                    "velocity": 0.8661417322834646,
                    "duration": 0.7828950499999969
                },
                {
                    "name": "G2",
                    "midi": 43,
                    "time": 28.42764295,
                    "velocity": 0.8661417322834646,
                    "duration": 0.7894739999999985
                },
                {
                    "name": "B3",
                    "midi": 59,
                    "time": 29.203959049999998,
                    "velocity": 0.8661417322834646,
                    "duration": 0.7861845249999995
                },
                {
                    "name": "G3",
                    "midi": 55,
                    "time": 29.210537999999996,
                    "velocity": 0.8661417322834646,
                    "duration": 0.7828950500000005
                },
                {
                    "name": "A3",
                    "midi": 57,
                    "time": 30.003301474999997,
                    "velocity": 0.8661417322834646,
                    "duration": 0.7861845249999995
                },
                {
                    "name": "F#3",
                    "midi": 54,
                    "time": 30.006590949999996,
                    "velocity": 0.8661417322834646,
                    "duration": 0.7861845249999995
                },
                {
                    "name": "E3",
                    "midi": 52,
                    "time": 30.786196524999998,
                    "velocity": 0.8661417322834646,
                    "duration": 1.5690795749999928
                },
                {
                    "name": "G3",
                    "midi": 55,
                    "time": 31.582249474999994,
                    "velocity": 0.8661417322834646,
                    "duration": 1.5690795749999928
                },
                {
                    "name": "C3",
                    "midi": 48,
                    "time": 33.16119747499999,
                    "velocity": 0.8661417322834646,
                    "duration": 1.565790100000001
                },
                {
                    "name": "E3",
                    "midi": 52,
                    "time": 33.95396094999999,
                    "velocity": 0.8661417322834646,
                    "duration": 1.578947999999997
                },
                {
                    "name": "D3",
                    "midi": 50,
                    "time": 35.532908949999985,
                    "velocity": 0.8661417322834646,
                    "duration": 1.565790100000001
                },
                {
                    "name": "D2",
                    "midi": 38,
                    "time": 36.322382949999984,
                    "velocity": 0.8661417322834646,
                    "duration": 0.7763161000000025
                },
                {
                    "name": "F#3",
                    "midi": 54,
                    "time": 37.10856747499999,
                    "velocity": 0.8661417322834646,
                    "duration": 0.7796055749999979
                },
                {
                    "name": "B3",
                    "midi": 59,
                    "time": 37.89146252499999,
                    "velocity": 0.8661417322834646,
                    "duration": 0.5888160249999999
                },
                {
                    "name": "G3",
                    "midi": 55,
                    "time": 38.49014697499999,
                    "velocity": 0.8661417322834646,
                    "duration": 0.18750007500000265
                },
                {
                    "name": "A3",
                    "midi": 57,
                    "time": 38.67764704999999,
                    "velocity": 0.8661417322834646,
                    "duration": 1.5690795749999964
                },
                {
                    "name": "A2",
                    "midi": 45,
                    "time": 39.47369999999999,
                    "velocity": 0.8661417322834646,
                    "duration": 0.7828950500000005
                },
                {
                    "name": "D3",
                    "midi": 50,
                    "time": 40.26646347499999,
                    "velocity": 0.8661417322834646,
                    "duration": 1.1710531000000017
                },
                {
                    "name": "A2",
                    "midi": 45,
                    "time": 41.44409552499999,
                    "velocity": 0.8661417322834646,
                    "duration": 0.38815805000000125
                },
                {
                    "name": "D2",
                    "midi": 38,
                    "time": 41.84870094999999,
                    "velocity": 0.8661417322834646,
                    "duration": 0.38815805000000125
                },
                {
                    "name": "G3",
                    "midi": 55,
                    "time": 42.62501704999999,
                    "velocity": 0.8661417322834646,
                    "duration": 1.5756585249999944
                },
                {
                    "name": "G2",
                    "midi": 43,
                    "time": 43.421069999999986,
                    "velocity": 0.8661417322834646,
                    "duration": 0.786184525000003
                },
                {
                    "name": "F#3",
                    "midi": 54,
                    "time": 44.20396504999999,
                    "velocity": 0.8661417322834646,
                    "duration": 0.7828950500000005
                },
                {
                    "name": "G3",
                    "midi": 55,
                    "time": 45.003307474999986,
                    "velocity": 0.8661417322834646,
                    "duration": 1.5690795750000035
                },
                {
                    "name": "G2",
                    "midi": 43,
                    "time": 45.786202524999986,
                    "velocity": 0.8661417322834646,
                    "duration": 1.578948000000004
                },
                {
                    "name": "D3",
                    "midi": 50,
                    "time": 47.36186104999999,
                    "velocity": 0.8661417322834646,
                    "duration": 1.578948000000004
                },
                {
                    "name": "D2",
                    "midi": 38,
                    "time": 48.15462452499999,
                    "velocity": 0.8661417322834646,
                    "duration": 0.786184525000003
                },
                {
                    "name": "C3",
                    "midi": 48,
                    "time": 48.94080904999999,
                    "velocity": 0.8661417322834646,
                    "duration": 0.7894739999999985
                },
                {
                    "name": "B2",
                    "midi": 47,
                    "time": 49.74344094999999,
                    "velocity": 0.8661417322834646,
                    "duration": 0.7763160999999954
                },
                {
                    "name": "G3",
                    "midi": 55,
                    "time": 50.13488847499999,
                    "velocity": 0.8661417322834646,
                    "duration": 0.7828950500000005
                },
                {
                    "name": "A2",
                    "midi": 45,
                    "time": 50.51975704999999,
                    "velocity": 0.8661417322834646,
                    "duration": 1.578948000000004
                },
                {
                    "name": "G3",
                    "midi": 55,
                    "time": 50.92107299999999,
                    "velocity": 0.8661417322834646,
                    "duration": 0.3848685749999987
                },
                {
                    "name": "F#3",
                    "midi": 54,
                    "time": 51.309231049999994,
                    "velocity": 0.8661417322834646,
                    "duration": 0.7796055749999979
                },
                {
                    "name": "G2",
                    "midi": 43,
                    "time": 52.09870504999999,
                    "velocity": 0.8661417322834646,
                    "duration": 0.7763161000000025
                },
                {
                    "name": "G3",
                    "midi": 55,
                    "time": 52.111862949999995,
                    "velocity": 0.8661417322834646,
                    "duration": 1.1743425749999972
                },
                {
                    "name": "G3",
                    "midi": 55,
                    "time": 53.684231999999994,
                    "velocity": 0.8661417322834646,
                    "duration": 0.3914475249999967
                },
                {
                    "name": "A3",
                    "midi": 57,
                    "time": 54.08554794999999,
                    "velocity": 0.8661417322834646,
                    "duration": 0.3848685749999987
                },
                {
                    "name": "E3",
                    "midi": 52,
                    "time": 54.47370599999999,
                    "velocity": 0.8661417322834646,
                    "duration": 1.1710531000000017
                },
                {
                    "name": "E3",
                    "midi": 52,
                    "time": 55.664495949999996,
                    "velocity": 0.8661417322834646,
                    "duration": 0.3815791000000033
                },
                {
                    "name": "F#3",
                    "midi": 54,
                    "time": 56.052654,
                    "velocity": 0.8661417322834646,
                    "duration": 0.5855265499999973
                },
                {
                    "name": "G3",
                    "midi": 55,
                    "time": 56.64475949999999,
                    "velocity": 0.8661417322834646,
                    "duration": 0.19736850000000317
                },
                {
                    "name": "D3",
                    "midi": 50,
                    "time": 56.842127999999995,
                    "velocity": 0.8661417322834646,
                    "duration": 1.1842109999999977
                },
                {
                    "name": "D3",
                    "midi": 50,
                    "time": 58.029628474999996,
                    "velocity": 0.8661417322834646,
                    "duration": 0.38815805000000125
                },
                {
                    "name": "E3",
                    "midi": 52,
                    "time": 58.42765495,
                    "velocity": 0.8661417322834646,
                    "duration": 0.5888160249999999
                },
                {
                    "name": "F#3",
                    "midi": 54,
                    "time": 59.01976045,
                    "velocity": 0.8661417322834646,
                    "duration": 0.19407902500000063
                },
                {
                    "name": "C3",
                    "midi": 48,
                    "time": 59.207260525,
                    "velocity": 0.8661417322834646,
                    "duration": 1.1776320499999997
                },
                {
                    "name": "C3",
                    "midi": 48,
                    "time": 60.391471525,
                    "velocity": 0.984251968503937,
                    "duration": 0.38815805000000125
                },
                {
                    "name": "D3",
                    "midi": 50,
                    "time": 60.792787475000004,
                    "velocity": 0.984251968503937,
                    "duration": 0.5855265500000044
                },
                {
                    "name": "E3",
                    "midi": 52,
                    "time": 61.375024550000006,
                    "velocity": 0.984251968503937,
                    "duration": 0.1907895500000052
                },
                {
                    "name": "B2",
                    "midi": 47,
                    "time": 61.58226147500001,
                    "velocity": 0.984251968503937,
                    "duration": 2.3552640999999994
                },
                {
                    "name": "G3",
                    "midi": 55,
                    "time": 63.15792000000001,
                    "velocity": 0.8661417322834646,
                    "duration": 1.9703955249999936
                },
                {
                    "name": "A2",
                    "midi": 45,
                    "time": 63.95397295000001,
                    "velocity": 0.8661417322834646,
                    "duration": 2.3618430500000045
                },
                {
                    "name": "G3",
                    "midi": 55,
                    "time": 65.13489447500001,
                    "velocity": 0.8661417322834646,
                    "duration": 0.38815805000000125
                },
                {
                    "name": "F#3",
                    "midi": 54,
                    "time": 65.52305252500001,
                    "velocity": 0.8661417322834646,
                    "duration": 0.7828950499999934
                },
                {
                    "name": "G2",
                    "midi": 43,
                    "time": 66.31252652500001,
                    "velocity": 0.8661417322834646,
                    "duration": 0.7894739999999985
                },
                {
                    "name": "G3",
                    "midi": 55,
                    "time": 66.31581600000001,
                    "velocity": 0.8661417322834646,
                    "duration": 0.7828950499999934
                },
                {
                    "name": "B3",
                    "midi": 59,
                    "time": 67.10857947500001,
                    "velocity": 0.8661417322834646,
                    "duration": 0.7861845250000101
                },
                {
                    "name": "G3",
                    "midi": 55,
                    "time": 67.11186895000002,
                    "velocity": 0.8661417322834646,
                    "duration": 0.779605575000005
                },
                {
                    "name": "A3",
                    "midi": 57,
                    "time": 67.88818505000002,
                    "velocity": 0.8661417322834646,
                    "duration": 0.7763161000000025
                },
                {
                    "name": "F#3",
                    "midi": 54,
                    "time": 67.88818505000002,
                    "velocity": 0.8661417322834646,
                    "duration": 0.779605575000005
                },
                {
                    "name": "E3",
                    "midi": 52,
                    "time": 68.68094852500002,
                    "velocity": 0.8661417322834646,
                    "duration": 1.5690795750000035
                },
                {
                    "name": "G3",
                    "midi": 55,
                    "time": 69.47042252500002,
                    "velocity": 0.8661417322834646,
                    "duration": 1.5690795750000035
                },
                {
                    "name": "C3",
                    "midi": 48,
                    "time": 71.04937052500001,
                    "velocity": 0.8661417322834646,
                    "duration": 1.5756585250000086
                },
                {
                    "name": "E3",
                    "midi": 52,
                    "time": 71.84871295000002,
                    "velocity": 0.8661417322834646,
                    "duration": 1.5690795750000035
                },
                {
                    "name": "D3",
                    "midi": 50,
                    "time": 73.42766095000002,
                    "velocity": 0.8661417322834646,
                    "duration": 1.578947999999997
                },
                {
                    "name": "D2",
                    "midi": 38,
                    "time": 74.20726652500002,
                    "velocity": 0.8661417322834646,
                    "duration": 0.7763161000000025
                },
                {
                    "name": "F#3",
                    "midi": 54,
                    "time": 74.99345105000002,
                    "velocity": 0.8661417322834646,
                    "duration": 0.7861845249999959
                },
                {
                    "name": "B3",
                    "midi": 59,
                    "time": 75.78950400000001,
                    "velocity": 0.8661417322834646,
                    "duration": 0.5888160249999999
                },
                {
                    "name": "G3",
                    "midi": 55,
                    "time": 76.38160950000001,
                    "velocity": 0.8661417322834646,
                    "duration": 0.19736849999999606
                },
                {
                    "name": "A3",
                    "midi": 57,
                    "time": 76.58555695000001,
                    "velocity": 0.8661417322834646,
                    "duration": 1.5657900999999868
                },
                {
                    "name": "A2",
                    "midi": 45,
                    "time": 77.368452,
                    "velocity": 0.8661417322834646,
                    "duration": 0.7828950499999934
                },
                {
                    "name": "D3",
                    "midi": 50,
                    "time": 78.154636525,
                    "velocity": 0.8661417322834646,
                    "duration": 1.1842110000000048
                },
                {
                    "name": "A2",
                    "midi": 45,
                    "time": 79.34213700000001,
                    "velocity": 0.8661417322834646,
                    "duration": 0.3914475250000038
                },
                {
                    "name": "D2",
                    "midi": 38,
                    "time": 79.73358452500001,
                    "velocity": 0.8661417322834646,
                    "duration": 0.7894739999999985
                },
                {
                    "name": "D4",
                    "midi": 62,
                    "time": 81.11845350000002,
                    "velocity": 0.8661417322834646,
                    "duration": 0.9736845999999986
                },
                {
                    "name": "D3",
                    "midi": 50,
                    "time": 81.32240095000002,
                    "velocity": 0.8661417322834646,
                    "duration": 0.7894739999999842
                },
                {
                    "name": "C4",
                    "midi": 60,
                    "time": 82.10200652500001,
                    "velocity": 0.8661417322834646,
                    "duration": 0.7861845249999959
                },
                {
                    "name": "B3",
                    "midi": 59,
                    "time": 83.48358602500001,
                    "velocity": 0.8661417322834646,
                    "duration": 0.9868425000000087
                },
                {
                    "name": "B2",
                    "midi": 47,
                    "time": 83.69082295000001,
                    "velocity": 0.8661417322834646,
                    "duration": 0.7894740000000127
                },
                {
                    "name": "B3",
                    "midi": 59,
                    "time": 84.47371800000002,
                    "velocity": 0.8661417322834646,
                    "duration": 0.7894740000000127
                },
                {
                    "name": "G3",
                    "midi": 55,
                    "time": 84.47371800000002,
                    "velocity": 0.8661417322834646,
                    "duration": 0.7861845250000101
                },
                {
                    "name": "C4",
                    "midi": 60,
                    "time": 85.85858697500004,
                    "velocity": 0.8661417322834646,
                    "duration": 0.9736845999999986
                },
                {
                    "name": "C3",
                    "midi": 48,
                    "time": 86.05595547500003,
                    "velocity": 0.8661417322834646,
                    "duration": 0.7861845250000101
                },
                {
                    "name": "B3",
                    "midi": 59,
                    "time": 86.83556105000004,
                    "velocity": 0.8661417322834646,
                    "duration": 0.779605575000005
                },
                {
                    "name": "G3",
                    "midi": 55,
                    "time": 86.83556105000004,
                    "velocity": 0.8661417322834646,
                    "duration": 0.779605575000005
                },
                {
                    "name": "A3",
                    "midi": 57,
                    "time": 88.22043002500004,
                    "velocity": 0.8661417322834646,
                    "duration": 0.983553024999992
                },
                {
                    "name": "A2",
                    "midi": 45,
                    "time": 88.41450905000004,
                    "velocity": 0.8661417322834646,
                    "duration": 0.7861845249999959
                },
                {
                    "name": "A3",
                    "midi": 57,
                    "time": 89.20727252500004,
                    "velocity": 0.8661417322834646,
                    "duration": 0.7763161000000025
                },
                {
                    "name": "A#3",
                    "midi": 58,
                    "time": 90.00003600000004,
                    "velocity": 0.8661417322834646,
                    "duration": 0.7861845249999959
                },
                {
                    "name": "A3",
                    "midi": 57,
                    "time": 90.79279947500004,
                    "velocity": 0.8661417322834646,
                    "duration": 1.5723690499999918
                },
                {
                    "name": "D4",
                    "midi": 62,
                    "time": 91.57569452500003,
                    "velocity": 0.8661417322834646,
                    "duration": 0.7763161000000025
                },
                {
                    "name": "G3",
                    "midi": 55,
                    "time": 92.36187905000003,
                    "velocity": 0.8661417322834646,
                    "duration": 1.5789480000000111
                },
                {
                    "name": "B3",
                    "midi": 59,
                    "time": 93.16122147500003,
                    "velocity": 0.8661417322834646,
                    "duration": 1.578947999999997
                },
                {
                    "name": "E3",
                    "midi": 52,
                    "time": 94.73030105000004,
                    "velocity": 0.8661417322834646,
                    "duration": 0.7763160999999883
                },
                {
                    "name": "B2",
                    "midi": 47,
                    "time": 95.52306452500002,
                    "velocity": 0.8661417322834646,
                    "duration": 1.5690795750000035
                },
                {
                    "name": "B3",
                    "midi": 59,
                    "time": 96.32240695000003,
                    "velocity": 0.8661417322834646,
                    "duration": 0.7828950499999934
                },
                {
                    "name": "C3",
                    "midi": 48,
                    "time": 97.10530200000002,
                    "velocity": 0.8661417322834646,
                    "duration": 1.572369050000006
                },
                {
                    "name": "C4",
                    "midi": 60,
                    "time": 97.90135495000003,
                    "velocity": 0.8661417322834646,
                    "duration": 0.7861845250000101
                },
                {
                    "name": "B3",
                    "midi": 59,
                    "time": 98.68096052500003,
                    "velocity": 0.8661417322834646,
                    "duration": 0.7763161000000025
                },
                {
                    "name": "A3",
                    "midi": 57,
                    "time": 99.46714505000003,
                    "velocity": 0.8661417322834646,
                    "duration": 0.7861845249999959
                },
                {
                    "name": "B3",
                    "midi": 59,
                    "time": 100.26319800000002,
                    "velocity": 0.8661417322834646,
                    "duration": 0.7894739999999985
                },
                {
                    "name": "C#4",
                    "midi": 61,
                    "time": 101.04938252500001,
                    "velocity": 0.8661417322834646,
                    "duration": 0.7763161000000025
                },
                {
                    "name": "D4",
                    "midi": 62,
                    "time": 101.83556705000001,
                    "velocity": 0.8661417322834646,
                    "duration": 1.5756585250000086
                },
                {
                    "name": "D3",
                    "midi": 50,
                    "time": 102.63162000000001,
                    "velocity": 0.8661417322834646,
                    "duration": 0.7861845250000101
                },
                {
                    "name": "C4",
                    "midi": 60,
                    "time": 103.42438347500003,
                    "velocity": 0.8661417322834646,
                    "duration": 0.7763161000000025
                },
                {
                    "name": "B3",
                    "midi": 59,
                    "time": 104.20398905000003,
                    "velocity": 0.8661417322834646,
                    "duration": 2.3552640999999994
                },
                {
                    "name": "D4",
                    "midi": 62,
                    "time": 105.00662095000003,
                    "velocity": 0.8661417322834646,
                    "duration": 0.779605575000005
                },
                {
                    "name": "G4",
                    "midi": 67,
                    "time": 105.78622652500003,
                    "velocity": 0.8661417322834646,
                    "duration": 0.7861845249999959
                },
                {
                    "name": "C4",
                    "midi": 60,
                    "time": 106.57899000000003,
                    "velocity": 0.8661417322834646,
                    "duration": 2.3618430500000045
                },
                {
                    "name": "G4",
                    "midi": 67,
                    "time": 106.58556895000004,
                    "velocity": 0.8661417322834646,
                    "duration": 0.7894739999999985
                },
                {
                    "name": "A4",
                    "midi": 69,
                    "time": 107.36517452500004,
                    "velocity": 0.984251968503937,
                    "duration": 2.358553575000002
                },
                {
                    "name": "B3",
                    "midi": 59,
                    "time": 108.94412252500004,
                    "velocity": 0.8661417322834646,
                    "duration": 2.365132525000007
                },
                {
                    "name": "G4",
                    "midi": 67,
                    "time": 109.73688600000004,
                    "velocity": 0.984251968503937,
                    "duration": 3.1480275750000146
                },
                {
                    "name": "A3",
                    "midi": 57,
                    "time": 111.31254452500005,
                    "velocity": 0.8661417322834646,
                    "duration": 2.365132525000007
                },
                {
                    "name": "F#4",
                    "midi": 66,
                    "time": 112.89478200000005,
                    "velocity": 0.8661417322834646,
                    "duration": 0.779605575000005
                },
                {
                    "name": "G3",
                    "midi": 55,
                    "time": 113.68754547500005,
                    "velocity": 0.8661417322834646,
                    "duration": 1.3717110749999932
                },
                {
                    "name": "F#3",
                    "midi": 54,
                    "time": 115.07241445000004,
                    "velocity": 0.8661417322834646,
                    "duration": 0.19736849999999606
                },
                {
                    "name": "G3",
                    "midi": 55,
                    "time": 115.25991452500004,
                    "velocity": 0.8661417322834646,
                    "duration": 0.5822370749999948
                },
                {
                    "name": "A3",
                    "midi": 57,
                    "time": 115.85530950000003,
                    "velocity": 0.8661417322834646,
                    "duration": 0.1842106000000001
                },
                {
                    "name": "F#3",
                    "midi": 54,
                    "time": 116.05596747500003,
                    "velocity": 0.8661417322834646,
                    "duration": 1.3782900249999983
                },
                {
                    "name": "E3",
                    "midi": 52,
                    "time": 117.43754697500003,
                    "velocity": 0.8661417322834646,
                    "duration": 0.1842106000000001
                },
                {
                    "name": "F#3",
                    "midi": 54,
                    "time": 117.62504705000003,
                    "velocity": 0.8661417322834646,
                    "duration": 0.5789476000000064
                },
                {
                    "name": "G3",
                    "midi": 55,
                    "time": 118.21715255000004,
                    "velocity": 0.8661417322834646,
                    "duration": 0.1842106000000001
                },
                {
                    "name": "E3",
                    "midi": 52,
                    "time": 118.42438947500004,
                    "velocity": 0.8661417322834646,
                    "duration": 1.3717110749999932
                },
                {
                    "name": "D3",
                    "midi": 50,
                    "time": 119.80925845000003,
                    "velocity": 0.8661417322834646,
                    "duration": 0.19407902499999352
                },
                {
                    "name": "E3",
                    "midi": 52,
                    "time": 120.00333747500002,
                    "velocity": 0.8661417322834646,
                    "duration": 0.5822370749999948
                },
                {
                    "name": "C3",
                    "midi": 48,
                    "time": 120.58886402500002,
                    "velocity": 0.8661417322834646,
                    "duration": 0.1907895500000052
                },
                {
                    "name": "D3",
                    "midi": 50,
                    "time": 120.78952200000002,
                    "velocity": 0.8661417322834646,
                    "duration": 1.5723690499999918
                },
                {
                    "name": "D2",
                    "midi": 38,
                    "time": 121.57241705000001,
                    "velocity": 0.8661417322834646,
                    "duration": 0.7763161000000025
                },
                {
                    "name": "E3",
                    "midi": 52,
                    "time": 122.36847000000002,
                    "velocity": 0.8661417322834646,
                    "duration": 0.5855265499999973
                },
                {
                    "name": "D3",
                    "midi": 50,
                    "time": 122.95399655000001,
                    "velocity": 0.8661417322834646,
                    "duration": 0.19407902499999352
                },
                {
                    "name": "C3",
                    "midi": 48,
                    "time": 123.15465452500001,
                    "velocity": 0.8661417322834646,
                    "duration": 0.779605575000005
                },
                {
                    "name": "D3",
                    "midi": 50,
                    "time": 123.95399695000002,
                    "velocity": 0.8661417322834646,
                    "duration": 1.5756585250000086
                },
                {
                    "name": "D2",
                    "midi": 38,
                    "time": 124.73360252500002,
                    "velocity": 0.8661417322834646,
                    "duration": 0.7894739999999985
                },
                {
                    "name": "G3",
                    "midi": 55,
                    "time": 125.52307652500002,
                    "velocity": 0.8661417322834646,
                    "duration": 1.1776320499999997
                },
                {
                    "name": "D3",
                    "midi": 50,
                    "time": 126.70399805000002,
                    "velocity": 0.8661417322834646,
                    "duration": 0.38815805000000125
                },
                {
                    "name": "G2",
                    "midi": 43,
                    "time": 127.10202452500002,
                    "velocity": 0.8661417322834646,
                    "duration": 0.7763161000000025
                },
                {
                    "name": "D4",
                    "midi": 62,
                    "time": 128.48031455000003,
                    "velocity": 0.8661417322834646,
                    "duration": 0.9802635500000179
                },
                {
                    "name": "D3",
                    "midi": 50,
                    "time": 128.68097252500004,
                    "velocity": 0.8661417322834646,
                    "duration": 0.779605575000005
                },
                {
                    "name": "C4",
                    "midi": 60,
                    "time": 129.47044652500006,
                    "velocity": 0.8661417322834646,
                    "duration": 0.7828950500000076
                },
                {
                    "name": "B3",
                    "midi": 59,
                    "time": 130.84873655000007,
                    "velocity": 0.8661417322834646,
                    "duration": 0.9868425000000229
                },
                {
                    "name": "B2",
                    "midi": 47,
                    "time": 131.04939452500008,
                    "velocity": 0.8661417322834646,
                    "duration": 0.7828950500000076
                },
                {
                    "name": "B3",
                    "midi": 59,
                    "time": 131.8355790500001,
                    "velocity": 0.8661417322834646,
                    "duration": 0.7763161000000025
                },
                {
                    "name": "G3",
                    "midi": 55,
                    "time": 131.8421580000001,
                    "velocity": 0.8661417322834646,
                    "duration": 0.7828950500000076
                },
                {
                    "name": "C4",
                    "midi": 60,
                    "time": 133.23031645000012,
                    "velocity": 0.8661417322834646,
                    "duration": 0.9835530250000204
                },
                {
                    "name": "C3",
                    "midi": 48,
                    "time": 133.42768495000013,
                    "velocity": 0.8661417322834646,
                    "duration": 0.7861845250000101
                },
                {
                    "name": "B3",
                    "midi": 59,
                    "time": 134.21058000000014,
                    "velocity": 0.8661417322834646,
                    "duration": 0.7894740000000127
                },
                {
                    "name": "G3",
                    "midi": 55,
                    "time": 134.21715895000014,
                    "velocity": 0.8661417322834646,
                    "duration": 0.7894740000000127
                },
                {
                    "name": "A3",
                    "midi": 57,
                    "time": 135.58558055000015,
                    "velocity": 0.8661417322834646,
                    "duration": 0.9769740749999869
                },
                {
                    "name": "A2",
                    "midi": 45,
                    "time": 135.78952800000013,
                    "velocity": 0.8661417322834646,
                    "duration": 0.7894740000000127
                },
                {
                    "name": "A3",
                    "midi": 57,
                    "time": 136.57900200000014,
                    "velocity": 0.8661417322834646,
                    "duration": 0.7861845250000101
                },
                {
                    "name": "A#3",
                    "midi": 58,
                    "time": 137.37176547500016,
                    "velocity": 0.8661417322834646,
                    "duration": 0.7861845250000101
                },
                {
                    "name": "A3",
                    "midi": 57,
                    "time": 138.15466052500017,
                    "velocity": 0.8661417322834646,
                    "duration": 1.578947999999997
                },
                {
                    "name": "D4",
                    "midi": 62,
                    "time": 138.95400295000016,
                    "velocity": 0.8661417322834646,
                    "duration": 0.7861845250000101
                },
                {
                    "name": "G3",
                    "midi": 55,
                    "time": 139.73360852500016,
                    "velocity": 0.8661417322834646,
                    "duration": 1.5789480000000253
                },
                {
                    "name": "B3",
                    "midi": 59,
                    "time": 140.52308252500018,
                    "velocity": 0.8661417322834646,
                    "duration": 1.5789480000000253
                },
                {
                    "name": "E3",
                    "midi": 52,
                    "time": 142.1118989500002,
                    "velocity": 0.8661417322834646,
                    "duration": 0.7894740000000127
                },
                {
                    "name": "B2",
                    "midi": 47,
                    "time": 142.90137295000022,
                    "velocity": 0.8661417322834646,
                    "duration": 1.5723690500000203
                },
                {
                    "name": "B3",
                    "midi": 59,
                    "time": 143.68755747500023,
                    "velocity": 0.8661417322834646,
                    "duration": 0.7828950500000076
                },
                {
                    "name": "C3",
                    "midi": 48,
                    "time": 144.47703147500025,
                    "velocity": 0.8661417322834646,
                    "duration": 1.5657901000000152
                },
                {
                    "name": "C4",
                    "midi": 60,
                    "time": 145.25663705000025,
                    "velocity": 0.8661417322834646,
                    "duration": 0.779605575000005
                },
                {
                    "name": "B3",
                    "midi": 59,
                    "time": 146.04940052500027,
                    "velocity": 0.8661417322834646,
                    "duration": 0.7894740000000127
                },
                {
                    "name": "A3",
                    "midi": 57,
                    "time": 146.83887452500028,
                    "velocity": 0.8661417322834646,
                    "duration": 0.7828950500000076
                },
                {
                    "name": "B3",
                    "midi": 59,
                    "time": 147.6382169500003,
                    "velocity": 0.8661417322834646,
                    "duration": 0.7763161000000025
                },
                {
                    "name": "C#4",
                    "midi": 61,
                    "time": 148.4276909500003,
                    "velocity": 0.8661417322834646,
                    "duration": 0.7763161000000025
                },
                {
                    "name": "D4",
                    "midi": 62,
                    "time": 149.21058600000032,
                    "velocity": 0.8661417322834646,
                    "duration": 1.5756585249999944
                },
                {
                    "name": "D3",
                    "midi": 50,
                    "time": 150.0033494750003,
                    "velocity": 0.8661417322834646,
                    "duration": 0.7861845250000101
                },
                {
                    "name": "C4",
                    "midi": 60,
                    "time": 150.7862445250003,
                    "velocity": 0.8661417322834646,
                    "duration": 0.7763161000000025
                },
                {
                    "name": "B3",
                    "midi": 59,
                    "time": 151.5855869500003,
                    "velocity": 0.8661417322834646,
                    "duration": 2.355264100000028
                },
                {
                    "name": "D4",
                    "midi": 62,
                    "time": 152.3684820000003,
                    "velocity": 0.8661417322834646,
                    "duration": 0.779605575000005
                },
                {
                    "name": "G4",
                    "midi": 67,
                    "time": 153.15137705000032,
                    "velocity": 0.8661417322834646,
                    "duration": 0.7861845250000101
                },
                {
                    "name": "C4",
                    "midi": 60,
                    "time": 153.94085105000033,
                    "velocity": 0.8661417322834646,
                    "duration": 2.355264100000028
                },
                {
                    "name": "G4",
                    "midi": 67,
                    "time": 153.95400895000034,
                    "velocity": 0.8661417322834646,
                    "duration": 0.7894740000000127
                },
                {
                    "name": "A4",
                    "midi": 69,
                    "time": 154.73361452500035,
                    "velocity": 0.984251968503937,
                    "duration": 2.355264100000028
                },
                {
                    "name": "B3",
                    "midi": 59,
                    "time": 156.31256252500037,
                    "velocity": 0.8661417322834646,
                    "duration": 2.3552640999999994
                },
                {
                    "name": "G4",
                    "midi": 67,
                    "time": 157.10861547500036,
                    "velocity": 0.984251968503937,
                    "duration": 3.1480275750000146
                },
                {
                    "name": "A3",
                    "midi": 57,
                    "time": 158.68427400000039,
                    "velocity": 0.8661417322834646,
                    "duration": 2.3552640999999994
                },
                {
                    "name": "F#4",
                    "midi": 66,
                    "time": 160.26322200000038,
                    "velocity": 0.8661417322834646,
                    "duration": 0.7894740000000127
                },
                {
                    "name": "G3",
                    "midi": 55,
                    "time": 161.0461170500004,
                    "velocity": 0.8661417322834646,
                    "duration": 1.3782900250000125
                },
                {
                    "name": "F#3",
                    "midi": 54,
                    "time": 162.44085445000042,
                    "velocity": 0.8661417322834646,
                    "duration": 0.1842106000000001
                },
                {
                    "name": "G3",
                    "midi": 55,
                    "time": 162.62506505000042,
                    "velocity": 0.8661417322834646,
                    "duration": 0.5921055000000024
                },
                {
                    "name": "A3",
                    "midi": 57,
                    "time": 163.21717055000042,
                    "velocity": 0.8661417322834646,
                    "duration": 0.19407902500000773
                },
                {
                    "name": "F#3",
                    "midi": 54,
                    "time": 163.42769695000044,
                    "velocity": 0.8661417322834646,
                    "duration": 1.37500055000001
                },
                {
                    "name": "E3",
                    "midi": 52,
                    "time": 164.80269750000045,
                    "velocity": 0.8661417322834646,
                    "duration": 0.1842106000000001
                },
                {
                    "name": "F#3",
                    "midi": 54,
                    "time": 165.00335547500046,
                    "velocity": 0.8661417322834646,
                    "duration": 0.5822370749999948
                },
                {
                    "name": "G3",
                    "midi": 55,
                    "time": 165.58559255000046,
                    "velocity": 0.8661417322834646,
                    "duration": 0.18750007500000265
                },
                {
                    "name": "E3",
                    "midi": 52,
                    "time": 165.78296105000047,
                    "velocity": 0.8661417322834646,
                    "duration": 1.3782900250000125
                },
                {
                    "name": "D3",
                    "midi": 50,
                    "time": 167.1711195000005,
                    "velocity": 0.8661417322834646,
                    "duration": 0.19407902500000773
                },
                {
                    "name": "E3",
                    "midi": 52,
                    "time": 167.3717774750005,
                    "velocity": 0.8661417322834646,
                    "duration": 0.5789475999999922
                },
                {
                    "name": "C3",
                    "midi": 48,
                    "time": 167.9605935000005,
                    "velocity": 0.8661417322834646,
                    "duration": 0.19736850000001027
                },
                {
                    "name": "D3",
                    "midi": 50,
                    "time": 168.16454095000051,
                    "velocity": 0.8661417322834646,
                    "duration": 1.5657901000000152
                },
                {
                    "name": "D2",
                    "midi": 38,
                    "time": 168.95401495000053,
                    "velocity": 0.8661417322834646,
                    "duration": 0.7861845250000101
                },
                {
                    "name": "E3",
                    "midi": 52,
                    "time": 169.73362052500053,
                    "velocity": 0.8661417322834646,
                    "duration": 0.5855265499999973
                },
                {
                    "name": "D3",
                    "midi": 50,
                    "time": 170.32901550000054,
                    "velocity": 0.8661417322834646,
                    "duration": 0.19736850000001027
                },
                {
                    "name": "C3",
                    "midi": 48,
                    "time": 170.53296295000055,
                    "velocity": 0.8661417322834646,
                    "duration": 0.7828950500000076
                },
                {
                    "name": "D3",
                    "midi": 50,
                    "time": 171.30927905000055,
                    "velocity": 0.8661417322834646,
                    "duration": 1.5690795749999893
                },
                {
                    "name": "D2",
                    "midi": 38,
                    "time": 172.11191095000055,
                    "velocity": 0.8661417322834646,
                    "duration": 0.779605575000005
                },
                {
                    "name": "G3",
                    "midi": 55,
                    "time": 172.89480600000056,
                    "velocity": 0.8661417322834646,
                    "duration": 1.1809215250000022
                },
                {
                    "name": "D3",
                    "midi": 50,
                    "time": 174.07572752500056,
                    "velocity": 0.8661417322834646,
                    "duration": 0.3848685750000129
                },
                {
                    "name": "G2",
                    "midi": 43,
                    "time": 174.46717505000058,
                    "velocity": 0.8661417322834646,
                    "duration": 3.1513170499999887
                }
            ],
            "controlChanges": {
                "7": [
                    {
                        "number": 7,
                        "time": 0,
                        "value": 0.7874015748031497
                    }
                ],
                "10": [
                    {
                        "number": 10,
                        "time": 0,
                        "value": 0.5039370078740157
                    }
                ]
            },
            "id": 2,
            "name": "Corant in G Major - Z.644",
            "instrumentNumber": 6,
            "instrument": "harpsichord",
            "instrumentFamily": "piano",
            "channelNumber": 1,
            "isPercussion": false
        },
        {
            "startTime": 0,
            "duration": 0,
            "length": 0,
            "notes": [],
            "controlChanges": {},
            "id": 3,
            "name": "Sequenced using Midiscan"
        },
        {
            "startTime": 0,
            "duration": 0,
            "length": 0,
            "notes": [],
            "controlChanges": {},
            "id": 4,
            "name": "  and Wincake Pro by"
        },
        {
            "startTime": 0,
            "duration": 0,
            "length": 0,
            "notes": [],
            "controlChanges": {},
            "id": 5,
            "name": "John Cowles"
        },
        {
            "startTime": 0,
            "duration": 0,
            "length": 0,
            "notes": [],
            "controlChanges": {},
            "id": 6,
            "name": "cowles@hydra.convex.com"
        }
    ]
}