{
    "header": {
        "PPQ": 384,
        "timeSignature": [
            2,
            2
        ],
        "bpm": 90.00009000009,
        "name": "control track"
    },
    "startTime": 0,
    "duration": 168.99983100000117,
    "tracks": [
        {
            "startTime": 0,
            "duration": 0,
            "length": 0,
            "notes": [],
            "controlChanges": {},
            "id": 0,
            "name": "control track"
        },
        {
            "startTime": 0,
            "duration": 168.99983100000114,
            "length": 328,
            "notes": [
                {
                    "name": "A4",
                    "midi": 69,
                    "time": 0,
                    "velocity": 0.7086614173228346,
                    "duration": 0.333333
                },
                {
                    "name": "D5",
                    "midi": 74,
                    "time": 0.333333,
                    "velocity": 0.7086614173228346,
                    "duration": 0.49999950000000004
                },
                {
                    "name": "D5",
                    "midi": 74,
                    "time": 0.8333325,
                    "velocity": 0.7086614173228346,
                    "duration": 0.16666650000000005
                },
                {
                    "name": "F5",
                    "midi": 77,
                    "time": 0.9999990000000001,
                    "velocity": 0.7086614173228346,
                    "duration": 1.3333320000000002
                },
                {
                    "name": "D5",
                    "midi": 74,
                    "time": 2.6666640000000004,
                    "velocity": 0.7086614173228346,
                    "duration": 0.3333330000000001
                },
                {
                    "name": "F5",
                    "midi": 77,
                    "time": 2.9999970000000005,
                    "velocity": 0.7086614173228346,
                    "duration": 0.49999949999999993
                },
                {
                    "name": "F5",
                    "midi": 77,
                    "time": 3.4999965000000004,
                    "velocity": 0.7086614173228346,
                    "duration": 0.16666649999999983
                },
                {
                    "name": "A5",
                    "midi": 81,
                    "time": 3.6666630000000002,
                    "velocity": 0.7086614173228346,
                    "duration": 1.333332
                },
                {
                    "name": "C#5",
                    "midi": 73,
                    "time": 5.416661250000001,
                    "velocity": 0.7086614173228346,
                    "duration": 0.048611062500000024
                },
                {
                    "name": "D5",
                    "midi": 74,
                    "time": 5.465272312500001,
                    "velocity": 0.7086614173228346,
                    "duration": 0.048611062500000024
                },
                {
                    "name": "E5",
                    "midi": 76,
                    "time": 5.515619484375001,
                    "velocity": 0.7086614173228346,
                    "duration": 0.048611062500000024
                },
                {
                    "name": "F5",
                    "midi": 77,
                    "time": 5.5659666562500005,
                    "velocity": 0.7086614173228346,
                    "duration": 0.048611062500000024
                },
                {
                    "name": "G5",
                    "midi": 79,
                    "time": 5.6163138281250005,
                    "velocity": 0.7086614173228346,
                    "duration": 0.048611062500000024
                },
                {
                    "name": "A5",
                    "midi": 81,
                    "time": 5.666661,
                    "velocity": 0.7086614173228346,
                    "duration": 0.4999995000000004
                },
                {
                    "name": "A5",
                    "midi": 81,
                    "time": 6.166660500000001,
                    "velocity": 0.7086614173228346,
                    "duration": 0.16666649999999983
                },
                {
                    "name": "D6",
                    "midi": 86,
                    "time": 6.333327000000001,
                    "velocity": 0.7086614173228346,
                    "duration": 0.9999989999999999
                },
                {
                    "name": "C6",
                    "midi": 84,
                    "time": 7.3333260000000005,
                    "velocity": 0.7086614173228346,
                    "duration": 0.10937489062500028
                },
                {
                    "name": "A#5",
                    "midi": 82,
                    "time": 7.444437000000001,
                    "velocity": 0.7086614173228346,
                    "duration": 0.10937489062500028
                },
                {
                    "name": "A5",
                    "midi": 81,
                    "time": 7.555548000000001,
                    "velocity": 0.7086614173228346,
                    "duration": 0.10937489062500028
                },
                {
                    "name": "A#5",
                    "midi": 82,
                    "time": 7.666659000000001,
                    "velocity": 0.7086614173228346,
                    "duration": 0.4999994999999995
                },
                {
                    "name": "A5",
                    "midi": 81,
                    "time": 8.1666585,
                    "velocity": 0.7086614173228346,
                    "duration": 0.16666649999999983
                },
                {
                    "name": "G5",
                    "midi": 79,
                    "time": 8.333325,
                    "velocity": 0.7086614173228346,
                    "duration": 0.4999994999999995
                },
                {
                    "name": "F5",
                    "midi": 77,
                    "time": 8.8333245,
                    "velocity": 0.7086614173228346,
                    "duration": 0.16666649999999983
                },
                {
                    "name": "G5",
                    "midi": 79,
                    "time": 8.999991,
                    "velocity": 0.7086614173228346,
                    "duration": 0.9999990000000007
                },
                {
                    "name": "A5",
                    "midi": 81,
                    "time": 9.99999,
                    "velocity": 0.7086614173228346,
                    "duration": 0.33333299999999966
                },
                {
                    "name": "F5",
                    "midi": 77,
                    "time": 10.333323,
                    "velocity": 0.7086614173228346,
                    "duration": 0.9999990000000007
                },
                {
                    "name": "E5",
                    "midi": 76,
                    "time": 11.333322,
                    "velocity": 0.7086614173228346,
                    "duration": 0.33333299999999966
                },
                {
                    "name": "E5",
                    "midi": 76,
                    "time": 11.666655,
                    "velocity": 0.7086614173228346,
                    "duration": 0.4999994999999995
                },
                {
                    "name": "E5",
                    "midi": 76,
                    "time": 12.1666545,
                    "velocity": 0.7086614173228346,
                    "duration": 0.16666649999999983
                },
                {
                    "name": "C6",
                    "midi": 84,
                    "time": 12.333321,
                    "velocity": 0.7086614173228346,
                    "duration": 0.4999994999999995
                },
                {
                    "name": "C6",
                    "midi": 84,
                    "time": 12.8333205,
                    "velocity": 0.7086614173228346,
                    "duration": 0.16666649999999983
                },
                {
                    "name": "C6",
                    "midi": 84,
                    "time": 12.999986999999999,
                    "velocity": 0.7086614173228346,
                    "duration": 0.9999990000000007
                },
                {
                    "name": "C6",
                    "midi": 84,
                    "time": 13.999986,
                    "velocity": 0.7086614173228346,
                    "duration": 0.10937489062500028
                },
                {
                    "name": "B5",
                    "midi": 83,
                    "time": 14.111097000000001,
                    "velocity": 0.7086614173228346,
                    "duration": 0.10937489062500028
                },
                {
                    "name": "A5",
                    "midi": 81,
                    "time": 14.222208000000002,
                    "velocity": 0.7086614173228346,
                    "duration": 0.10937489062500028
                },
                {
                    "name": "B5",
                    "midi": 83,
                    "time": 14.333319000000003,
                    "velocity": 0.7086614173228346,
                    "duration": 0.6666659999999993
                },
                {
                    "name": "E5",
                    "midi": 76,
                    "time": 14.999985000000002,
                    "velocity": 0.7086614173228346,
                    "duration": 0.6666659999999993
                },
                {
                    "name": "A5",
                    "midi": 81,
                    "time": 15.666651000000002,
                    "velocity": 0.7086614173228346,
                    "duration": 0.999998999999999
                },
                {
                    "name": "B5",
                    "midi": 83,
                    "time": 16.66665,
                    "velocity": 0.7086614173228346,
                    "duration": 0.33333299999999966
                },
                {
                    "name": "G#5",
                    "midi": 80,
                    "time": 16.999983,
                    "velocity": 0.7086614173228346,
                    "duration": 0.999998999999999
                },
                {
                    "name": "E5",
                    "midi": 76,
                    "time": 17.999982,
                    "velocity": 0.7086614173228346,
                    "duration": 0.33333299999999966
                },
                {
                    "name": "F5",
                    "midi": 77,
                    "time": 18.333315,
                    "velocity": 0.7086614173228346,
                    "duration": 0.999998999999999
                },
                {
                    "name": "F5",
                    "midi": 77,
                    "time": 19.4999805,
                    "velocity": 0.7086614173228346,
                    "duration": 0.05381939062500152
                },
                {
                    "name": "E5",
                    "midi": 76,
                    "time": 19.555536,
                    "velocity": 0.7086614173228346,
                    "duration": 0.05381939062500152
                },
                {
                    "name": "D5",
                    "midi": 74,
                    "time": 19.6110915,
                    "velocity": 0.7086614173228346,
                    "duration": 0.05381939062500152
                },
                {
                    "name": "E5",
                    "midi": 76,
                    "time": 19.666647,
                    "velocity": 0.7086614173228346,
                    "duration": 0.6666659999999993
                },
                {
                    "name": "A5",
                    "midi": 81,
                    "time": 20.333313,
                    "velocity": 0.7086614173228346,
                    "duration": 1.3333319999999986
                },
                {
                    "name": "G#5",
                    "midi": 80,
                    "time": 21.666645,
                    "velocity": 0.7086614173228346,
                    "duration": 0.6666659999999993
                },
                {
                    "name": "A5",
                    "midi": 81,
                    "time": 22.333311,
                    "velocity": 0.7086614173228346,
                    "duration": 0.49999950000000126
                },
                {
                    "name": "G5",
                    "midi": 79,
                    "time": 22.8333105,
                    "velocity": 0.7086614173228346,
                    "duration": 0.1666665000000016
                },
                {
                    "name": "F5",
                    "midi": 77,
                    "time": 22.999977,
                    "velocity": 0.7086614173228346,
                    "duration": 0.49999950000000126
                },
                {
                    "name": "E5",
                    "midi": 76,
                    "time": 23.499976500000002,
                    "velocity": 0.7086614173228346,
                    "duration": 0.1666665000000016
                },
                {
                    "name": "D5",
                    "midi": 74,
                    "time": 23.666643000000004,
                    "velocity": 0.7086614173228346,
                    "duration": 0.49999950000000126
                },
                {
                    "name": "C5",
                    "midi": 72,
                    "time": 24.166642500000005,
                    "velocity": 0.7086614173228346,
                    "duration": 0.1666665000000016
                },
                {
                    "name": "B4",
                    "midi": 71,
                    "time": 24.333309000000007,
                    "velocity": 0.7086614173228346,
                    "duration": 0.49999950000000126
                },
                {
                    "name": "A4",
                    "midi": 69,
                    "time": 24.833308500000008,
                    "velocity": 0.7086614173228346,
                    "duration": 0.1666665000000016
                },
                {
                    "name": "E4",
                    "midi": 64,
                    "time": 24.99997500000001,
                    "velocity": 0.7086614173228346,
                    "duration": 1.3333319999999986
                },
                {
                    "name": "B4",
                    "midi": 71,
                    "time": 26.666640000000008,
                    "velocity": 0.7086614173228346,
                    "duration": 0.33333299999999966
                },
                {
                    "name": "E5",
                    "midi": 76,
                    "time": 26.999973000000008,
                    "velocity": 0.7086614173228346,
                    "duration": 0.49999950000000126
                },
                {
                    "name": "E5",
                    "midi": 76,
                    "time": 27.49997250000001,
                    "velocity": 0.7086614173228346,
                    "duration": 0.1666665000000016
                },
                {
                    "name": "G#5",
                    "midi": 80,
                    "time": 27.66663900000001,
                    "velocity": 0.7086614173228346,
                    "duration": 1.3333319999999986
                },
                {
                    "name": "E5",
                    "midi": 76,
                    "time": 29.33330400000001,
                    "velocity": 0.7086614173228346,
                    "duration": 0.33333299999999966
                },
                {
                    "name": "G#5",
                    "midi": 80,
                    "time": 29.66663700000001,
                    "velocity": 0.7086614173228346,
                    "duration": 0.49999950000000126
                },
                {
                    "name": "G#5",
                    "midi": 80,
                    "time": 30.16663650000001,
                    "velocity": 0.7086614173228346,
                    "duration": 0.1666665000000016
                },
                {
                    "name": "B5",
                    "midi": 83,
                    "time": 30.33330300000001,
                    "velocity": 0.7086614173228346,
                    "duration": 0.999998999999999
                },
                {
                    "name": "A5",
                    "midi": 81,
                    "time": 31.499968500000012,
                    "velocity": 0.7086614173228346,
                    "duration": 0.05381939062500152
                },
                {
                    "name": "G#5",
                    "midi": 80,
                    "time": 31.555524000000013,
                    "velocity": 0.7086614173228346,
                    "duration": 0.05381939062500152
                },
                {
                    "name": "F#5",
                    "midi": 78,
                    "time": 31.611079500000013,
                    "velocity": 0.7086614173228346,
                    "duration": 0.05381939062500152
                },
                {
                    "name": "E5",
                    "midi": 76,
                    "time": 31.666635000000014,
                    "velocity": 0.7086614173228346,
                    "duration": 0.49999950000000126
                },
                {
                    "name": "D5",
                    "midi": 74,
                    "time": 32.166634500000015,
                    "velocity": 0.7086614173228346,
                    "duration": 0.16666649999999805
                },
                {
                    "name": "C5",
                    "midi": 72,
                    "time": 32.33330100000001,
                    "velocity": 0.7086614173228346,
                    "duration": 0.49999950000000126
                },
                {
                    "name": "B4",
                    "midi": 71,
                    "time": 32.833300500000014,
                    "velocity": 0.7086614173228346,
                    "duration": 0.16666649999999805
                },
                {
                    "name": "C5",
                    "midi": 72,
                    "time": 32.99996700000001,
                    "velocity": 0.7086614173228346,
                    "duration": 0.49999950000000126
                },
                {
                    "name": "E5",
                    "midi": 76,
                    "time": 33.49996650000001,
                    "velocity": 0.7086614173228346,
                    "duration": 0.16666649999999805
                },
                {
                    "name": "A5",
                    "midi": 81,
                    "time": 33.66663300000001,
                    "velocity": 0.7086614173228346,
                    "duration": 0.49999950000000126
                },
                {
                    "name": "C5",
                    "midi": 72,
                    "time": 34.16663250000001,
                    "velocity": 0.7086614173228346,
                    "duration": 0.16666649999999805
                },
                {
                    "name": "B4",
                    "midi": 71,
                    "time": 34.33329900000001,
                    "velocity": 0.7086614173228346,
                    "duration": 0.9999990000000025
                },
                {
                    "name": "A4",
                    "midi": 69,
                    "time": 35.33329800000001,
                    "velocity": 0.7086614173228346,
                    "duration": 0.3333330000000032
                },
                {
                    "name": "A4",
                    "midi": 69,
                    "time": 35.66663100000002,
                    "velocity": 0.7086614173228346,
                    "duration": 1.3333319999999986
                },
                {
                    "name": "A4",
                    "midi": 69,
                    "time": 37.33329600000002,
                    "velocity": 0.7086614173228346,
                    "duration": 0.3333330000000032
                },
                {
                    "name": "D5",
                    "midi": 74,
                    "time": 37.66662900000002,
                    "velocity": 0.7086614173228346,
                    "duration": 0.49999950000000126
                },
                {
                    "name": "D5",
                    "midi": 74,
                    "time": 38.16662850000002,
                    "velocity": 0.7086614173228346,
                    "duration": 0.16666649999999805
                },
                {
                    "name": "A4",
                    "midi": 69,
                    "time": 38.33329500000002,
                    "velocity": 0.7086614173228346,
                    "duration": 2.6666639999999973
                },
                {
                    "name": "A4",
                    "midi": 69,
                    "time": 41.33329200000002,
                    "velocity": 0.7086614173228346,
                    "duration": 0.3333330000000032
                },
                {
                    "name": "A4",
                    "midi": 69,
                    "time": 41.666625000000025,
                    "velocity": 0.7086614173228346,
                    "duration": 0.3333330000000032
                },
                {
                    "name": "B4",
                    "midi": 71,
                    "time": 41.99995800000003,
                    "velocity": 0.7086614173228346,
                    "duration": 0.3333330000000032
                },
                {
                    "name": "C#5",
                    "midi": 73,
                    "time": 42.33329100000003,
                    "velocity": 0.7086614173228346,
                    "duration": 0.3333330000000032
                },
                {
                    "name": "C#5",
                    "midi": 73,
                    "time": 42.666624000000034,
                    "velocity": 0.7086614173228346,
                    "duration": 0.3333330000000032
                },
                {
                    "name": "C#5",
                    "midi": 73,
                    "time": 42.99995700000004,
                    "velocity": 0.7086614173228346,
                    "duration": 0.3333330000000032
                },
                {
                    "name": "D5",
                    "midi": 74,
                    "time": 43.33329000000004,
                    "velocity": 0.7086614173228346,
                    "duration": 0.3333330000000032
                },
                {
                    "name": "E5",
                    "midi": 76,
                    "time": 43.666623000000044,
                    "velocity": 0.7086614173228346,
                    "duration": 0.3333330000000032
                },
                {
                    "name": "E5",
                    "midi": 76,
                    "time": 43.99995600000005,
                    "velocity": 0.7086614173228346,
                    "duration": 0.3333330000000032
                },
                {
                    "name": "E5",
                    "midi": 76,
                    "time": 44.33328900000005,
                    "velocity": 0.7086614173228346,
                    "duration": 0.3333330000000032
                },
                {
                    "name": "F5",
                    "midi": 77,
                    "time": 44.666622000000054,
                    "velocity": 0.7086614173228346,
                    "duration": 0.3333330000000032
                },
                {
                    "name": "G5",
                    "midi": 79,
                    "time": 44.99995500000006,
                    "velocity": 0.7086614173228346,
                    "duration": 0.3333330000000032
                },
                {
                    "name": "G5",
                    "midi": 79,
                    "time": 45.33328800000006,
                    "velocity": 0.7086614173228346,
                    "duration": 0.3333330000000032
                },
                {
                    "name": "F5",
                    "midi": 77,
                    "time": 45.66662100000006,
                    "velocity": 0.7086614173228346,
                    "duration": 0.3333330000000032
                },
                {
                    "name": "E5",
                    "midi": 76,
                    "time": 45.999954000000066,
                    "velocity": 0.7086614173228346,
                    "duration": 0.3333330000000032
                },
                {
                    "name": "F5",
                    "midi": 77,
                    "time": 46.33328700000007,
                    "velocity": 0.7086614173228346,
                    "duration": 0.9999990000000025
                },
                {
                    "name": "D5",
                    "midi": 74,
                    "time": 47.33328600000007,
                    "velocity": 0.7086614173228346,
                    "duration": 0.3333330000000032
                },
                {
                    "name": "G5",
                    "midi": 79,
                    "time": 47.666619000000075,
                    "velocity": 0.7086614173228346,
                    "duration": 0.6666659999999993
                },
                {
                    "name": "G5",
                    "midi": 79,
                    "time": 48.333285000000075,
                    "velocity": 0.7086614173228346,
                    "duration": 0.3333330000000032
                },
                {
                    "name": "A5",
                    "midi": 81,
                    "time": 48.66661800000008,
                    "velocity": 0.7086614173228346,
                    "duration": 0.3333330000000032
                },
                {
                    "name": "A#5",
                    "midi": 82,
                    "time": 48.99995100000008,
                    "velocity": 0.7086614173228346,
                    "duration": 0.9999990000000025
                },
                {
                    "name": "A5",
                    "midi": 81,
                    "time": 49.999950000000084,
                    "velocity": 0.7086614173228346,
                    "duration": 0.3333330000000032
                },
                {
                    "name": "G5",
                    "midi": 79,
                    "time": 50.33328300000009,
                    "velocity": 0.7086614173228346,
                    "duration": 0.9999990000000025
                },
                {
                    "name": "F5",
                    "midi": 77,
                    "time": 51.33328200000009,
                    "velocity": 0.7086614173228346,
                    "duration": 0.3333330000000032
                },
                {
                    "name": "E5",
                    "midi": 76,
                    "time": 51.66661500000009,
                    "velocity": 0.7086614173228346,
                    "duration": 0.9999990000000025
                },
                {
                    "name": "E5",
                    "midi": 76,
                    "time": 52.666614000000095,
                    "velocity": 0.7086614173228346,
                    "duration": 0.3333330000000032
                },
                {
                    "name": "A5",
                    "midi": 81,
                    "time": 52.9999470000001,
                    "velocity": 0.7086614173228346,
                    "duration": 0.9999990000000025
                },
                {
                    "name": "A5",
                    "midi": 81,
                    "time": 53.9999460000001,
                    "velocity": 0.7086614173228346,
                    "duration": 0.3333330000000032
                },
                {
                    "name": "A5",
                    "midi": 81,
                    "time": 54.333279000000104,
                    "velocity": 0.7086614173228346,
                    "duration": 0.9999990000000025
                },
                {
                    "name": "C#5",
                    "midi": 73,
                    "time": 55.33327800000011,
                    "velocity": 0.7086614173228346,
                    "duration": 0.3333330000000032
                },
                {
                    "name": "C#5",
                    "midi": 73,
                    "time": 55.66661100000011,
                    "velocity": 0.7086614173228346,
                    "duration": 0.3333330000000032
                },
                {
                    "name": "C#5",
                    "midi": 73,
                    "time": 55.99994400000011,
                    "velocity": 0.7086614173228346,
                    "duration": 0.3333330000000032
                },
                {
                    "name": "D5",
                    "midi": 74,
                    "time": 56.333277000000116,
                    "velocity": 0.7086614173228346,
                    "duration": 0.3333330000000032
                },
                {
                    "name": "E5",
                    "midi": 76,
                    "time": 56.66661000000012,
                    "velocity": 0.7086614173228346,
                    "duration": 0.3333330000000032
                },
                {
                    "name": "A4",
                    "midi": 69,
                    "time": 56.99994300000012,
                    "velocity": 0.7086614173228346,
                    "duration": 1.3333319999999986
                },
                {
                    "name": "D5",
                    "midi": 74,
                    "time": 58.666608000000124,
                    "velocity": 0.7086614173228346,
                    "duration": 0.3333330000000032
                },
                {
                    "name": "D5",
                    "midi": 74,
                    "time": 58.99994100000013,
                    "velocity": 0.7086614173228346,
                    "duration": 0.3333330000000032
                },
                {
                    "name": "C5",
                    "midi": 72,
                    "time": 59.33327400000013,
                    "velocity": 0.7086614173228346,
                    "duration": 0.3333330000000032
                },
                {
                    "name": "A#4",
                    "midi": 70,
                    "time": 59.666607000000134,
                    "velocity": 0.7086614173228346,
                    "duration": 0.3333330000000032
                },
                {
                    "name": "A#4",
                    "midi": 70,
                    "time": 59.99994000000014,
                    "velocity": 0.7086614173228346,
                    "duration": 0.3333330000000032
                },
                {
                    "name": "A#4",
                    "midi": 70,
                    "time": 60.33327300000014,
                    "velocity": 0.7086614173228346,
                    "duration": 0.3333330000000032
                },
                {
                    "name": "A4",
                    "midi": 69,
                    "time": 60.666606000000144,
                    "velocity": 0.7086614173228346,
                    "duration": 0.3333330000000032
                },
                {
                    "name": "G4",
                    "midi": 67,
                    "time": 60.99993900000015,
                    "velocity": 0.7086614173228346,
                    "duration": 0.9999990000000025
                },
                {
                    "name": "G4",
                    "midi": 67,
                    "time": 61.99993800000015,
                    "velocity": 0.7086614173228346,
                    "duration": 0.3333330000000032
                },
                {
                    "name": "G4",
                    "midi": 67,
                    "time": 62.33327100000015,
                    "velocity": 0.7086614173228346,
                    "duration": 0.9999990000000025
                },
                {
                    "name": "A4",
                    "midi": 69,
                    "time": 63.333270000000155,
                    "velocity": 0.7086614173228346,
                    "duration": 0.3333330000000032
                },
                {
                    "name": "F4",
                    "midi": 65,
                    "time": 63.66660300000016,
                    "velocity": 0.7086614173228346,
                    "duration": 0.9999989999999954
                },
                {
                    "name": "E4",
                    "midi": 64,
                    "time": 64.66660200000015,
                    "velocity": 0.7086614173228346,
                    "duration": 0.3333329999999961
                },
                {
                    "name": "E4",
                    "midi": 64,
                    "time": 64.99993500000015,
                    "velocity": 0.7086614173228346,
                    "duration": 1.3333319999999986
                },
                {
                    "name": "A4",
                    "midi": 69,
                    "time": 66.66660000000014,
                    "velocity": 0.7086614173228346,
                    "duration": 0.3333329999999961
                },
                {
                    "name": "A4",
                    "midi": 69,
                    "time": 66.99993300000014,
                    "velocity": 0.7086614173228346,
                    "duration": 0.3333329999999961
                },
                {
                    "name": "G4",
                    "midi": 67,
                    "time": 67.33326600000014,
                    "velocity": 0.7086614173228346,
                    "duration": 0.3333329999999961
                },
                {
                    "name": "F#4",
                    "midi": 66,
                    "time": 67.66659900000013,
                    "velocity": 0.7086614173228346,
                    "duration": 0.6666660000000064
                },
                {
                    "name": "D4",
                    "midi": 62,
                    "time": 68.33326500000014,
                    "velocity": 0.7086614173228346,
                    "duration": 0.6666660000000064
                },
                {
                    "name": "G4",
                    "midi": 67,
                    "time": 68.99993100000015,
                    "velocity": 0.7086614173228346,
                    "duration": 0.6666660000000064
                },
                {
                    "name": "G4",
                    "midi": 67,
                    "time": 69.66659700000015,
                    "velocity": 0.7086614173228346,
                    "duration": 0.3333329999999961
                },
                {
                    "name": "A4",
                    "midi": 69,
                    "time": 69.99993000000015,
                    "velocity": 0.7086614173228346,
                    "duration": 0.3333329999999961
                },
                {
                    "name": "A#4",
                    "midi": 70,
                    "time": 70.33326300000014,
                    "velocity": 0.7086614173228346,
                    "duration": 1.3333319999999986
                },
                {
                    "name": "G4",
                    "midi": 67,
                    "time": 71.99992800000014,
                    "velocity": 0.7086614173228346,
                    "duration": 0.3333329999999961
                },
                {
                    "name": "G4",
                    "midi": 67,
                    "time": 72.33326100000014,
                    "velocity": 0.7086614173228346,
                    "duration": 0.3333329999999961
                },
                {
                    "name": "F4",
                    "midi": 65,
                    "time": 72.66659400000013,
                    "velocity": 0.7086614173228346,
                    "duration": 0.3333329999999961
                },
                {
                    "name": "E4",
                    "midi": 64,
                    "time": 72.99992700000013,
                    "velocity": 0.7086614173228346,
                    "duration": 0.6666660000000064
                },
                {
                    "name": "C4",
                    "midi": 60,
                    "time": 73.66659300000013,
                    "velocity": 0.7086614173228346,
                    "duration": 0.6666660000000064
                },
                {
                    "name": "F4",
                    "midi": 65,
                    "time": 74.33325900000014,
                    "velocity": 0.7086614173228346,
                    "duration": 0.6666660000000064
                },
                {
                    "name": "F4",
                    "midi": 65,
                    "time": 74.99992500000015,
                    "velocity": 0.7086614173228346,
                    "duration": 0.3333329999999961
                },
                {
                    "name": "G4",
                    "midi": 67,
                    "time": 75.33325800000014,
                    "velocity": 0.7086614173228346,
                    "duration": 0.3333329999999961
                },
                {
                    "name": "A4",
                    "midi": 69,
                    "time": 75.66659100000014,
                    "velocity": 0.7086614173228346,
                    "duration": 0.9999990000000025
                },
                {
                    "name": "A4",
                    "midi": 69,
                    "time": 76.66659000000014,
                    "velocity": 0.7086614173228346,
                    "duration": 0.3333329999999961
                },
                {
                    "name": "A#4",
                    "midi": 70,
                    "time": 76.99992300000014,
                    "velocity": 0.7086614173228346,
                    "duration": 0.6666660000000064
                },
                {
                    "name": "C5",
                    "midi": 72,
                    "time": 77.66658900000014,
                    "velocity": 0.7086614173228346,
                    "duration": 0.6666660000000064
                },
                {
                    "name": "D5",
                    "midi": 74,
                    "time": 78.33325500000015,
                    "velocity": 0.7086614173228346,
                    "duration": 0.9999990000000025
                },
                {
                    "name": "D5",
                    "midi": 74,
                    "time": 79.33325400000015,
                    "velocity": 0.7086614173228346,
                    "duration": 0.3333329999999961
                },
                {
                    "name": "E5",
                    "midi": 76,
                    "time": 79.66658700000015,
                    "velocity": 0.7086614173228346,
                    "duration": 0.6666660000000064
                },
                {
                    "name": "F5",
                    "midi": 77,
                    "time": 80.33325300000016,
                    "velocity": 0.7086614173228346,
                    "duration": 0.6666660000000064
                },
                {
                    "name": "E5",
                    "midi": 76,
                    "time": 80.99991900000016,
                    "velocity": 0.7086614173228346,
                    "duration": 0.9999990000000025
                },
                {
                    "name": "G5",
                    "midi": 79,
                    "time": 81.99991800000016,
                    "velocity": 0.7086614173228346,
                    "duration": 0.3333329999999961
                },
                {
                    "name": "C6",
                    "midi": 84,
                    "time": 82.33325100000016,
                    "velocity": 0.7086614173228346,
                    "duration": 0.9999990000000025
                },
                {
                    "name": "C6",
                    "midi": 84,
                    "time": 83.33325000000016,
                    "velocity": 0.7086614173228346,
                    "duration": 0.3333329999999961
                },
                {
                    "name": "C6",
                    "midi": 84,
                    "time": 83.66658300000016,
                    "velocity": 0.7086614173228346,
                    "duration": 0.9999990000000025
                },
                {
                    "name": "E5",
                    "midi": 76,
                    "time": 84.66658200000016,
                    "velocity": 0.7086614173228346,
                    "duration": 0.3333329999999961
                },
                {
                    "name": "E5",
                    "midi": 76,
                    "time": 84.99991500000016,
                    "velocity": 0.7086614173228346,
                    "duration": 0.3333329999999961
                },
                {
                    "name": "E5",
                    "midi": 76,
                    "time": 85.33324800000015,
                    "velocity": 0.7086614173228346,
                    "duration": 0.3333329999999961
                },
                {
                    "name": "F5",
                    "midi": 77,
                    "time": 85.66658100000015,
                    "velocity": 0.7086614173228346,
                    "duration": 0.3333329999999961
                },
                {
                    "name": "G5",
                    "midi": 79,
                    "time": 85.99991400000015,
                    "velocity": 0.7086614173228346,
                    "duration": 0.3333329999999961
                },
                {
                    "name": "C5",
                    "midi": 72,
                    "time": 86.33324700000014,
                    "velocity": 0.7086614173228346,
                    "duration": 1.3333319999999986
                },
                {
                    "name": "F5",
                    "midi": 77,
                    "time": 87.99991200000014,
                    "velocity": 0.7086614173228346,
                    "duration": 0.3333329999999961
                },
                {
                    "name": "F5",
                    "midi": 77,
                    "time": 88.33324500000013,
                    "velocity": 0.7086614173228346,
                    "duration": 0.3333329999999961
                },
                {
                    "name": "E5",
                    "midi": 76,
                    "time": 88.66657800000013,
                    "velocity": 0.7086614173228346,
                    "duration": 0.3333329999999961
                },
                {
                    "name": "D5",
                    "midi": 74,
                    "time": 88.99991100000013,
                    "velocity": 0.7086614173228346,
                    "duration": 0.3333329999999961
                },
                {
                    "name": "D5",
                    "midi": 74,
                    "time": 89.33324400000012,
                    "velocity": 0.7086614173228346,
                    "duration": 0.3333329999999961
                },
                {
                    "name": "D5",
                    "midi": 74,
                    "time": 89.66657700000012,
                    "velocity": 0.7086614173228346,
                    "duration": 0.3333329999999961
                },
                {
                    "name": "C5",
                    "midi": 72,
                    "time": 89.99991000000011,
                    "velocity": 0.7086614173228346,
                    "duration": 0.3333329999999961
                },
                {
                    "name": "A#4",
                    "midi": 70,
                    "time": 90.33324300000011,
                    "velocity": 0.7086614173228346,
                    "duration": 0.3333329999999961
                },
                {
                    "name": "A#4",
                    "midi": 70,
                    "time": 90.6665760000001,
                    "velocity": 0.7086614173228346,
                    "duration": 0.3333329999999961
                },
                {
                    "name": "A#4",
                    "midi": 70,
                    "time": 90.9999090000001,
                    "velocity": 0.7086614173228346,
                    "duration": 0.3333329999999961
                },
                {
                    "name": "A4",
                    "midi": 69,
                    "time": 91.3332420000001,
                    "velocity": 0.7086614173228346,
                    "duration": 0.3333329999999961
                },
                {
                    "name": "G4",
                    "midi": 67,
                    "time": 91.6665750000001,
                    "velocity": 0.7086614173228346,
                    "duration": 0.6666660000000064
                },
                {
                    "name": "A4",
                    "midi": 69,
                    "time": 92.3332410000001,
                    "velocity": 0.7086614173228346,
                    "duration": 0.6666660000000064
                },
                {
                    "name": "G4",
                    "midi": 67,
                    "time": 92.9999070000001,
                    "velocity": 0.7086614173228346,
                    "duration": 0.9999990000000025
                },
                {
                    "name": "F4",
                    "midi": 65,
                    "time": 93.99990600000011,
                    "velocity": 0.7086614173228346,
                    "duration": 0.3333329999999961
                },
                {
                    "name": "F4",
                    "midi": 65,
                    "time": 94.3332390000001,
                    "velocity": 0.7086614173228346,
                    "duration": 1.3333319999999986
                },
                {
                    "name": "C5",
                    "midi": 72,
                    "time": 95.9999040000001,
                    "velocity": 0.7086614173228346,
                    "duration": 0.3333329999999961
                },
                {
                    "name": "A#4",
                    "midi": 70,
                    "time": 96.3332370000001,
                    "velocity": 0.7086614173228346,
                    "duration": 0.3333329999999961
                },
                {
                    "name": "A4",
                    "midi": 69,
                    "time": 96.66657000000009,
                    "velocity": 0.7086614173228346,
                    "duration": 0.3333329999999961
                },
                {
                    "name": "G4",
                    "midi": 67,
                    "time": 96.99990300000009,
                    "velocity": 0.7086614173228346,
                    "duration": 0.6666660000000064
                },
                {
                    "name": "C4",
                    "midi": 60,
                    "time": 97.6665690000001,
                    "velocity": 0.7086614173228346,
                    "duration": 0.6666660000000064
                },
                {
                    "name": "G4",
                    "midi": 67,
                    "time": 98.3332350000001,
                    "velocity": 0.7086614173228346,
                    "duration": 0.6666660000000064
                },
                {
                    "name": "G4",
                    "midi": 67,
                    "time": 98.99990100000011,
                    "velocity": 0.7086614173228346,
                    "duration": 0.3333329999999961
                },
                {
                    "name": "A4",
                    "midi": 69,
                    "time": 99.3332340000001,
                    "velocity": 0.7086614173228346,
                    "duration": 0.3333329999999961
                },
                {
                    "name": "A#4",
                    "midi": 70,
                    "time": 99.6665670000001,
                    "velocity": 0.7086614173228346,
                    "duration": 1.3333319999999986
                },
                {
                    "name": "D5",
                    "midi": 74,
                    "time": 101.3332320000001,
                    "velocity": 0.7086614173228346,
                    "duration": 0.3333329999999961
                },
                {
                    "name": "C5",
                    "midi": 72,
                    "time": 101.66656500000009,
                    "velocity": 0.7086614173228346,
                    "duration": 0.3333329999999961
                },
                {
                    "name": "A#4",
                    "midi": 70,
                    "time": 101.99989800000009,
                    "velocity": 0.7086614173228346,
                    "duration": 0.3333329999999961
                },
                {
                    "name": "A4",
                    "midi": 69,
                    "time": 102.33323100000008,
                    "velocity": 0.7086614173228346,
                    "duration": 0.6666660000000064
                },
                {
                    "name": "A4",
                    "midi": 69,
                    "time": 102.99989700000009,
                    "velocity": 0.7086614173228346,
                    "duration": 0.6666660000000064
                },
                {
                    "name": "D5",
                    "midi": 74,
                    "time": 103.6665630000001,
                    "velocity": 0.7086614173228346,
                    "duration": 0.9999990000000025
                },
                {
                    "name": "E5",
                    "midi": 76,
                    "time": 104.6665620000001,
                    "velocity": 0.7086614173228346,
                    "duration": 0.3333329999999961
                },
                {
                    "name": "C#5",
                    "midi": 73,
                    "time": 104.9998950000001,
                    "velocity": 0.7086614173228346,
                    "duration": 0.9999990000000025
                },
                {
                    "name": "A4",
                    "midi": 69,
                    "time": 105.9998940000001,
                    "velocity": 0.7086614173228346,
                    "duration": 0.3333329999999961
                },
                {
                    "name": "E5",
                    "midi": 76,
                    "time": 106.3332270000001,
                    "velocity": 0.7086614173228346,
                    "duration": 0.9999990000000025
                },
                {
                    "name": "E5",
                    "midi": 76,
                    "time": 107.3332260000001,
                    "velocity": 0.7086614173228346,
                    "duration": 0.3333329999999961
                },
                {
                    "name": "E5",
                    "midi": 76,
                    "time": 107.66655900000009,
                    "velocity": 0.7086614173228346,
                    "duration": 11.666655000000006
                },
                {
                    "name": "A4",
                    "midi": 69,
                    "time": 119.3332140000001,
                    "velocity": 0.7086614173228346,
                    "duration": 0.3333329999999961
                },
                {
                    "name": "D5",
                    "midi": 74,
                    "time": 119.6665470000001,
                    "velocity": 0.7086614173228346,
                    "duration": 0.9999990000000025
                },
                {
                    "name": "D5",
                    "midi": 74,
                    "time": 120.6665460000001,
                    "velocity": 0.7086614173228346,
                    "duration": 0.3333329999999961
                },
                {
                    "name": "D5",
                    "midi": 74,
                    "time": 120.99987900000009,
                    "velocity": 0.7086614173228346,
                    "duration": 0.6666660000000064
                },
                {
                    "name": "C5",
                    "midi": 72,
                    "time": 121.6665450000001,
                    "velocity": 0.7086614173228346,
                    "duration": 0.3333329999999961
                },
                {
                    "name": "B4",
                    "midi": 71,
                    "time": 121.9998780000001,
                    "velocity": 0.7086614173228346,
                    "duration": 0.3333329999999961
                },
                {
                    "name": "C5",
                    "midi": 72,
                    "time": 122.33321100000009,
                    "velocity": 0.7086614173228346,
                    "duration": 0.9999990000000025
                },
                {
                    "name": "C5",
                    "midi": 72,
                    "time": 123.3332100000001,
                    "velocity": 0.7086614173228346,
                    "duration": 0.3333329999999961
                },
                {
                    "name": "C5",
                    "midi": 72,
                    "time": 123.66654300000009,
                    "velocity": 0.7086614173228346,
                    "duration": 0.9999990000000025
                },
                {
                    "name": "B4",
                    "midi": 71,
                    "time": 124.66654200000009,
                    "velocity": 0.7086614173228346,
                    "duration": 0.3333329999999961
                },
                {
                    "name": "B4",
                    "midi": 71,
                    "time": 124.99987500000009,
                    "velocity": 0.7086614173228346,
                    "duration": 0.9999990000000025
                },
                {
                    "name": "A4",
                    "midi": 69,
                    "time": 125.99987400000009,
                    "velocity": 0.7086614173228346,
                    "duration": 0.3333329999999961
                },
                {
                    "name": "A4",
                    "midi": 69,
                    "time": 126.33320700000009,
                    "velocity": 0.7086614173228346,
                    "duration": 0.3333329999999961
                },
                {
                    "name": "A4",
                    "midi": 69,
                    "time": 126.66654000000008,
                    "velocity": 0.7086614173228346,
                    "duration": 0.3333329999999961
                },
                {
                    "name": "A4",
                    "midi": 69,
                    "time": 126.99987300000008,
                    "velocity": 0.7086614173228346,
                    "duration": 0.3333329999999961
                },
                {
                    "name": "B4",
                    "midi": 71,
                    "time": 127.33320600000008,
                    "velocity": 0.7086614173228346,
                    "duration": 0.3333329999999961
                },
                {
                    "name": "C#5",
                    "midi": 73,
                    "time": 127.66653900000007,
                    "velocity": 0.7086614173228346,
                    "duration": 0.3333329999999961
                },
                {
                    "name": "C#5",
                    "midi": 73,
                    "time": 127.99987200000007,
                    "velocity": 0.7086614173228346,
                    "duration": 0.3333330000000103
                },
                {
                    "name": "C#5",
                    "midi": 73,
                    "time": 128.33320500000008,
                    "velocity": 0.7086614173228346,
                    "duration": 0.3333330000000103
                },
                {
                    "name": "D5",
                    "midi": 74,
                    "time": 128.6665380000001,
                    "velocity": 0.7086614173228346,
                    "duration": 0.3333330000000103
                },
                {
                    "name": "E5",
                    "midi": 76,
                    "time": 128.9998710000001,
                    "velocity": 0.7086614173228346,
                    "duration": 0.3333330000000103
                },
                {
                    "name": "E5",
                    "midi": 76,
                    "time": 129.3332040000001,
                    "velocity": 0.7086614173228346,
                    "duration": 0.3333330000000103
                },
                {
                    "name": "E5",
                    "midi": 76,
                    "time": 129.66653700000012,
                    "velocity": 0.7086614173228346,
                    "duration": 0.3333330000000103
                },
                {
                    "name": "F5",
                    "midi": 77,
                    "time": 129.99987000000013,
                    "velocity": 0.7086614173228346,
                    "duration": 0.3333330000000103
                },
                {
                    "name": "G5",
                    "midi": 79,
                    "time": 130.33320300000014,
                    "velocity": 0.7086614173228346,
                    "duration": 0.3333330000000103
                },
                {
                    "name": "G5",
                    "midi": 79,
                    "time": 130.66653600000015,
                    "velocity": 0.7086614173228346,
                    "duration": 0.3333330000000103
                },
                {
                    "name": "F5",
                    "midi": 77,
                    "time": 130.99986900000016,
                    "velocity": 0.7086614173228346,
                    "duration": 0.3333330000000103
                },
                {
                    "name": "E5",
                    "midi": 76,
                    "time": 131.33320200000017,
                    "velocity": 0.7086614173228346,
                    "duration": 0.3333330000000103
                },
                {
                    "name": "F5",
                    "midi": 77,
                    "time": 131.66653500000018,
                    "velocity": 0.7086614173228346,
                    "duration": 0.3333330000000103
                },
                {
                    "name": "D5",
                    "midi": 74,
                    "time": 131.9998680000002,
                    "velocity": 0.7086614173228346,
                    "duration": 0.3333330000000103
                },
                {
                    "name": "D5",
                    "midi": 74,
                    "time": 132.3332010000002,
                    "velocity": 0.7086614173228346,
                    "duration": 0.3333330000000103
                },
                {
                    "name": "E5",
                    "midi": 76,
                    "time": 132.6665340000002,
                    "velocity": 0.7086614173228346,
                    "duration": 0.3333330000000103
                },
                {
                    "name": "F#5",
                    "midi": 78,
                    "time": 132.99986700000022,
                    "velocity": 0.7086614173228346,
                    "duration": 0.3333330000000103
                },
                {
                    "name": "F#5",
                    "midi": 78,
                    "time": 133.33320000000023,
                    "velocity": 0.7086614173228346,
                    "duration": 0.3333330000000103
                },
                {
                    "name": "F#5",
                    "midi": 78,
                    "time": 133.66653300000024,
                    "velocity": 0.7086614173228346,
                    "duration": 0.3333330000000103
                },
                {
                    "name": "G5",
                    "midi": 79,
                    "time": 133.99986600000025,
                    "velocity": 0.7086614173228346,
                    "duration": 0.3333330000000103
                },
                {
                    "name": "A5",
                    "midi": 81,
                    "time": 134.33319900000026,
                    "velocity": 0.7086614173228346,
                    "duration": 0.3333330000000103
                },
                {
                    "name": "A5",
                    "midi": 81,
                    "time": 134.66653200000027,
                    "velocity": 0.7086614173228346,
                    "duration": 0.3333330000000103
                },
                {
                    "name": "A5",
                    "midi": 81,
                    "time": 134.99986500000028,
                    "velocity": 0.7086614173228346,
                    "duration": 0.3333330000000103
                },
                {
                    "name": "A#5",
                    "midi": 82,
                    "time": 135.3331980000003,
                    "velocity": 0.7086614173228346,
                    "duration": 0.3333330000000103
                },
                {
                    "name": "C6",
                    "midi": 84,
                    "time": 135.6665310000003,
                    "velocity": 0.7086614173228346,
                    "duration": 0.3333330000000103
                },
                {
                    "name": "C6",
                    "midi": 84,
                    "time": 135.99986400000031,
                    "velocity": 0.7086614173228346,
                    "duration": 0.3333330000000103
                },
                {
                    "name": "A#5",
                    "midi": 82,
                    "time": 136.33319700000033,
                    "velocity": 0.7086614173228346,
                    "duration": 0.3333330000000103
                },
                {
                    "name": "A5",
                    "midi": 81,
                    "time": 136.66653000000034,
                    "velocity": 0.7086614173228346,
                    "duration": 0.3333330000000103
                },
                {
                    "name": "A#5",
                    "midi": 82,
                    "time": 136.99986300000035,
                    "velocity": 0.7086614173228346,
                    "duration": 0.3333330000000103
                },
                {
                    "name": "D6",
                    "midi": 86,
                    "time": 137.33319600000036,
                    "velocity": 0.7086614173228346,
                    "duration": 0.3333330000000103
                },
                {
                    "name": "D6",
                    "midi": 86,
                    "time": 137.66652900000037,
                    "velocity": 0.7086614173228346,
                    "duration": 0.3333330000000103
                },
                {
                    "name": "C6",
                    "midi": 84,
                    "time": 137.99986200000038,
                    "velocity": 0.7086614173228346,
                    "duration": 0.3333330000000103
                },
                {
                    "name": "A#5",
                    "midi": 82,
                    "time": 138.3331950000004,
                    "velocity": 0.7086614173228346,
                    "duration": 0.3333330000000103
                },
                {
                    "name": "A#5",
                    "midi": 82,
                    "time": 138.6665280000004,
                    "velocity": 0.7086614173228346,
                    "duration": 0.3333330000000103
                },
                {
                    "name": "A#5",
                    "midi": 82,
                    "time": 138.9998610000004,
                    "velocity": 0.7086614173228346,
                    "duration": 0.3333330000000103
                },
                {
                    "name": "A5",
                    "midi": 81,
                    "time": 139.33319400000042,
                    "velocity": 0.7086614173228346,
                    "duration": 0.3333330000000103
                },
                {
                    "name": "G5",
                    "midi": 79,
                    "time": 139.66652700000043,
                    "velocity": 0.7086614173228346,
                    "duration": 0.3333330000000103
                },
                {
                    "name": "G5",
                    "midi": 79,
                    "time": 139.99986000000044,
                    "velocity": 0.7086614173228346,
                    "duration": 0.3333330000000103
                },
                {
                    "name": "G5",
                    "midi": 79,
                    "time": 140.33319300000045,
                    "velocity": 0.7086614173228346,
                    "duration": 0.3333330000000103
                },
                {
                    "name": "F5",
                    "midi": 77,
                    "time": 140.66652600000046,
                    "velocity": 0.7086614173228346,
                    "duration": 0.3333330000000103
                },
                {
                    "name": "E5",
                    "midi": 76,
                    "time": 140.99985900000047,
                    "velocity": 0.7086614173228346,
                    "duration": 0.3333330000000103
                },
                {
                    "name": "E5",
                    "midi": 76,
                    "time": 141.33319200000048,
                    "velocity": 0.7086614173228346,
                    "duration": 0.3333330000000103
                },
                {
                    "name": "E5",
                    "midi": 76,
                    "time": 141.6665250000005,
                    "velocity": 0.7086614173228346,
                    "duration": 0.3333330000000103
                },
                {
                    "name": "D5",
                    "midi": 74,
                    "time": 141.9998580000005,
                    "velocity": 0.7086614173228346,
                    "duration": 0.3333330000000103
                },
                {
                    "name": "C#5",
                    "midi": 73,
                    "time": 142.3331910000005,
                    "velocity": 0.7086614173228346,
                    "duration": 0.3333330000000103
                },
                {
                    "name": "D5",
                    "midi": 74,
                    "time": 142.66652400000052,
                    "velocity": 0.7086614173228346,
                    "duration": 0.3333330000000103
                },
                {
                    "name": "C#5",
                    "midi": 73,
                    "time": 142.99985700000053,
                    "velocity": 0.7086614173228346,
                    "duration": 0.3333330000000103
                },
                {
                    "name": "D5",
                    "midi": 74,
                    "time": 143.33319000000054,
                    "velocity": 0.7086614173228346,
                    "duration": 0.3333330000000103
                },
                {
                    "name": "E5",
                    "midi": 76,
                    "time": 143.66652300000055,
                    "velocity": 0.7086614173228346,
                    "duration": 0.3333330000000103
                },
                {
                    "name": "F5",
                    "midi": 77,
                    "time": 143.99985600000056,
                    "velocity": 0.7086614173228346,
                    "duration": 0.3333330000000103
                },
                {
                    "name": "G5",
                    "midi": 79,
                    "time": 144.33318900000057,
                    "velocity": 0.7086614173228346,
                    "duration": 0.3333330000000103
                },
                {
                    "name": "A5",
                    "midi": 81,
                    "time": 144.66652200000058,
                    "velocity": 0.7086614173228346,
                    "duration": 0.3333330000000103
                },
                {
                    "name": "F5",
                    "midi": 77,
                    "time": 144.9998550000006,
                    "velocity": 0.7086614173228346,
                    "duration": 0.9999990000000025
                },
                {
                    "name": "E5",
                    "midi": 76,
                    "time": 145.9998540000006,
                    "velocity": 0.7086614173228346,
                    "duration": 0.3333330000000103
                },
                {
                    "name": "E5",
                    "midi": 76,
                    "time": 146.3331870000006,
                    "velocity": 0.7086614173228346,
                    "duration": 0.9999990000000025
                },
                {
                    "name": "D5",
                    "midi": 74,
                    "time": 147.3331860000006,
                    "velocity": 0.7086614173228346,
                    "duration": 0.3333330000000103
                },
                {
                    "name": "D5",
                    "midi": 74,
                    "time": 147.66651900000062,
                    "velocity": 0.7086614173228346,
                    "duration": 0.3333330000000103
                },
                {
                    "name": "C5",
                    "midi": 72,
                    "time": 147.99985200000063,
                    "velocity": 0.7086614173228346,
                    "duration": 0.3333330000000103
                },
                {
                    "name": "A#4",
                    "midi": 70,
                    "time": 148.33318500000064,
                    "velocity": 0.7086614173228346,
                    "duration": 0.3333330000000103
                },
                {
                    "name": "A4",
                    "midi": 69,
                    "time": 148.66651800000065,
                    "velocity": 0.7086614173228346,
                    "duration": 0.3333330000000103
                },
                {
                    "name": "G4",
                    "midi": 67,
                    "time": 148.99985100000066,
                    "velocity": 0.7086614173228346,
                    "duration": 0.3333330000000103
                },
                {
                    "name": "F4",
                    "midi": 65,
                    "time": 149.33318400000067,
                    "velocity": 0.7086614173228346,
                    "duration": 0.3333330000000103
                },
                {
                    "name": "E4",
                    "midi": 64,
                    "time": 149.66651700000068,
                    "velocity": 0.7086614173228346,
                    "duration": 0.3333330000000103
                },
                {
                    "name": "D4",
                    "midi": 62,
                    "time": 149.9998500000007,
                    "velocity": 0.7086614173228346,
                    "duration": 0.3333330000000103
                },
                {
                    "name": "A#4",
                    "midi": 70,
                    "time": 150.3331830000007,
                    "velocity": 0.7086614173228346,
                    "duration": 0.3333330000000103
                },
                {
                    "name": "A4",
                    "midi": 69,
                    "time": 150.6665160000007,
                    "velocity": 0.7086614173228346,
                    "duration": 0.3333330000000103
                },
                {
                    "name": "G4",
                    "midi": 67,
                    "time": 150.99984900000072,
                    "velocity": 0.7086614173228346,
                    "duration": 0.3333330000000103
                },
                {
                    "name": "F4",
                    "midi": 65,
                    "time": 151.33318200000073,
                    "velocity": 0.7086614173228346,
                    "duration": 0.3333330000000103
                },
                {
                    "name": "E4",
                    "midi": 64,
                    "time": 151.66651500000074,
                    "velocity": 0.7086614173228346,
                    "duration": 0.3333330000000103
                },
                {
                    "name": "D4",
                    "midi": 62,
                    "time": 151.99984800000075,
                    "velocity": 0.7086614173228346,
                    "duration": 0.3333330000000103
                },
                {
                    "name": "C#4",
                    "midi": 61,
                    "time": 152.33318100000076,
                    "velocity": 0.7086614173228346,
                    "duration": 0.3333330000000103
                },
                {
                    "name": "B3",
                    "midi": 59,
                    "time": 152.66651400000077,
                    "velocity": 0.7086614173228346,
                    "duration": 0.3333330000000103
                },
                {
                    "name": "C#4",
                    "midi": 61,
                    "time": 152.99984700000078,
                    "velocity": 0.7086614173228346,
                    "duration": 1.3333320000000128
                },
                {
                    "name": "B3",
                    "midi": 59,
                    "time": 154.6665120000008,
                    "velocity": 0.7086614173228346,
                    "duration": 0.3333330000000103
                },
                {
                    "name": "C#4",
                    "midi": 61,
                    "time": 154.99984500000082,
                    "velocity": 0.7086614173228346,
                    "duration": 0.3333330000000103
                },
                {
                    "name": "C#4",
                    "midi": 61,
                    "time": 155.33317800000083,
                    "velocity": 0.7086614173228346,
                    "duration": 0.3333330000000103
                },
                {
                    "name": "C#4",
                    "midi": 61,
                    "time": 155.66651100000084,
                    "velocity": 0.7086614173228346,
                    "duration": 0.3333330000000103
                },
                {
                    "name": "D4",
                    "midi": 62,
                    "time": 155.99984400000085,
                    "velocity": 0.7086614173228346,
                    "duration": 0.3333330000000103
                },
                {
                    "name": "E4",
                    "midi": 64,
                    "time": 156.33317700000086,
                    "velocity": 0.7086614173228346,
                    "duration": 0.3333330000000103
                },
                {
                    "name": "E4",
                    "midi": 64,
                    "time": 156.66651000000087,
                    "velocity": 0.7086614173228346,
                    "duration": 0.3333330000000103
                },
                {
                    "name": "E4",
                    "midi": 64,
                    "time": 156.99984300000088,
                    "velocity": 0.7086614173228346,
                    "duration": 0.3333330000000103
                },
                {
                    "name": "F4",
                    "midi": 65,
                    "time": 157.3331760000009,
                    "velocity": 0.7086614173228346,
                    "duration": 0.3333330000000103
                },
                {
                    "name": "G4",
                    "midi": 67,
                    "time": 157.6665090000009,
                    "velocity": 0.7086614173228346,
                    "duration": 0.3333330000000103
                },
                {
                    "name": "G4",
                    "midi": 67,
                    "time": 157.9998420000009,
                    "velocity": 0.7086614173228346,
                    "duration": 0.3333330000000103
                },
                {
                    "name": "G4",
                    "midi": 67,
                    "time": 158.33317500000092,
                    "velocity": 0.7086614173228346,
                    "duration": 0.3333330000000103
                },
                {
                    "name": "A4",
                    "midi": 69,
                    "time": 158.66650800000093,
                    "velocity": 0.7086614173228346,
                    "duration": 0.3333330000000103
                },
                {
                    "name": "A#4",
                    "midi": 70,
                    "time": 158.99984100000094,
                    "velocity": 0.7086614173228346,
                    "duration": 0.3333330000000103
                },
                {
                    "name": "A#4",
                    "midi": 70,
                    "time": 159.33317400000095,
                    "velocity": 0.7086614173228346,
                    "duration": 0.3333330000000103
                },
                {
                    "name": "A#4",
                    "midi": 70,
                    "time": 159.66650700000096,
                    "velocity": 0.7086614173228346,
                    "duration": 0.3333330000000103
                },
                {
                    "name": "A#4",
                    "midi": 70,
                    "time": 159.99984000000097,
                    "velocity": 0.7086614173228346,
                    "duration": 0.3333330000000103
                },
                {
                    "name": "A4",
                    "midi": 69,
                    "time": 160.33317300000098,
                    "velocity": 0.7086614173228346,
                    "duration": 0.3333330000000103
                },
                {
                    "name": "G4",
                    "midi": 67,
                    "time": 160.666506000001,
                    "velocity": 0.7086614173228346,
                    "duration": 0.3333330000000103
                },
                {
                    "name": "F4",
                    "midi": 65,
                    "time": 160.999839000001,
                    "velocity": 0.7086614173228346,
                    "duration": 0.3333330000000103
                },
                {
                    "name": "E4",
                    "midi": 64,
                    "time": 161.333172000001,
                    "velocity": 0.7086614173228346,
                    "duration": 0.3333330000000103
                },
                {
                    "name": "D4",
                    "midi": 62,
                    "time": 161.66650500000102,
                    "velocity": 0.7086614173228346,
                    "duration": 0.3333330000000103
                },
                {
                    "name": "E4",
                    "midi": 64,
                    "time": 161.99983800000103,
                    "velocity": 0.7086614173228346,
                    "duration": 0.3333330000000103
                },
                {
                    "name": "F4",
                    "midi": 65,
                    "time": 162.33317100000104,
                    "velocity": 0.7086614173228346,
                    "duration": 0.3333330000000103
                },
                {
                    "name": "G4",
                    "midi": 67,
                    "time": 162.66650400000105,
                    "velocity": 0.7086614173228346,
                    "duration": 0.3333330000000103
                },
                {
                    "name": "A4",
                    "midi": 69,
                    "time": 162.99983700000107,
                    "velocity": 0.7086614173228346,
                    "duration": 0.3333330000000103
                },
                {
                    "name": "B4",
                    "midi": 71,
                    "time": 163.33317000000108,
                    "velocity": 0.7086614173228346,
                    "duration": 0.3333330000000103
                },
                {
                    "name": "C#5",
                    "midi": 73,
                    "time": 163.6665030000011,
                    "velocity": 0.7086614173228346,
                    "duration": 0.3333330000000103
                },
                {
                    "name": "A4",
                    "midi": 69,
                    "time": 163.9998360000011,
                    "velocity": 0.7086614173228346,
                    "duration": 0.3333330000000103
                },
                {
                    "name": "D5",
                    "midi": 74,
                    "time": 164.3331690000011,
                    "velocity": 0.7086614173228346,
                    "duration": 0.3333330000000103
                },
                {
                    "name": "F4",
                    "midi": 65,
                    "time": 164.66650200000112,
                    "velocity": 0.7086614173228346,
                    "duration": 0.3333330000000103
                },
                {
                    "name": "E4",
                    "midi": 64,
                    "time": 164.99983500000113,
                    "velocity": 0.7086614173228346,
                    "duration": 0.9999990000000025
                },
                {
                    "name": "D4",
                    "midi": 62,
                    "time": 165.99983400000113,
                    "velocity": 0.7086614173228346,
                    "duration": 0.3333330000000103
                },
                {
                    "name": "D4",
                    "midi": 62,
                    "time": 166.33316700000114,
                    "velocity": 0.7086614173228346,
                    "duration": 2.6666639999999973
                }
            ],
            "controlChanges": {},
            "id": 1,
            "name": "",
            "instrumentNumber": 68,
            "instrument": "oboe",
            "instrumentFamily": "reed",
            "channelNumber": 1,
            "isPercussion": false
        },
        {
            "startTime": 0,
            "duration": 168.99983100000114,
            "length": 328,
            "notes": [
                {
                    "name": "A4",
                    "midi": 69,
                    "time": 0,
                    "velocity": 0.7086614173228346,
                    "duration": 0.333333
                },
                {
                    "name": "D5",
                    "midi": 74,
                    "time": 0.333333,
                    "velocity": 0.7086614173228346,
                    "duration": 0.49999950000000004
                },
                {
                    "name": "D5",
                    "midi": 74,
                    "time": 0.8333325,
                    "velocity": 0.7086614173228346,
                    "duration": 0.16666650000000005
                },
                {
                    "name": "F5",
                    "midi": 77,
                    "time": 0.9999990000000001,
                    "velocity": 0.7086614173228346,
                    "duration": 1.3333320000000002
                },
                {
                    "name": "D5",
                    "midi": 74,
                    "time": 2.6666640000000004,
                    "velocity": 0.7086614173228346,
                    "duration": 0.3333330000000001
                },
                {
                    "name": "F5",
                    "midi": 77,
                    "time": 2.9999970000000005,
                    "velocity": 0.7086614173228346,
                    "duration": 0.49999949999999993
                },
                {
                    "name": "F5",
                    "midi": 77,
                    "time": 3.4999965000000004,
                    "velocity": 0.7086614173228346,
                    "duration": 0.16666649999999983
                },
                {
                    "name": "A5",
                    "midi": 81,
                    "time": 3.6666630000000002,
                    "velocity": 0.7086614173228346,
                    "duration": 1.333332
                },
                {
                    "name": "C#5",
                    "midi": 73,
                    "time": 5.416661250000001,
                    "velocity": 0.7086614173228346,
                    "duration": 0.048611062500000024
                },
                {
                    "name": "D5",
                    "midi": 74,
                    "time": 5.465272312500001,
                    "velocity": 0.7086614173228346,
                    "duration": 0.048611062500000024
                },
                {
                    "name": "E5",
                    "midi": 76,
                    "time": 5.515619484375001,
                    "velocity": 0.7086614173228346,
                    "duration": 0.048611062500000024
                },
                {
                    "name": "F5",
                    "midi": 77,
                    "time": 5.5659666562500005,
                    "velocity": 0.7086614173228346,
                    "duration": 0.048611062500000024
                },
                {
                    "name": "G5",
                    "midi": 79,
                    "time": 5.6163138281250005,
                    "velocity": 0.7086614173228346,
                    "duration": 0.048611062500000024
                },
                {
                    "name": "A5",
                    "midi": 81,
                    "time": 5.666661,
                    "velocity": 0.7086614173228346,
                    "duration": 0.4999995000000004
                },
                {
                    "name": "A5",
                    "midi": 81,
                    "time": 6.166660500000001,
                    "velocity": 0.7086614173228346,
                    "duration": 0.16666649999999983
                },
                {
                    "name": "D6",
                    "midi": 86,
                    "time": 6.333327000000001,
                    "velocity": 0.7086614173228346,
                    "duration": 0.9999989999999999
                },
                {
                    "name": "C6",
                    "midi": 84,
                    "time": 7.3333260000000005,
                    "velocity": 0.7086614173228346,
                    "duration": 0.10937489062500028
                },
                {
                    "name": "A#5",
                    "midi": 82,
                    "time": 7.444437000000001,
                    "velocity": 0.7086614173228346,
                    "duration": 0.10937489062500028
                },
                {
                    "name": "A5",
                    "midi": 81,
                    "time": 7.555548000000001,
                    "velocity": 0.7086614173228346,
                    "duration": 0.10937489062500028
                },
                {
                    "name": "A#5",
                    "midi": 82,
                    "time": 7.666659000000001,
                    "velocity": 0.7086614173228346,
                    "duration": 0.4999994999999995
                },
                {
                    "name": "A5",
                    "midi": 81,
                    "time": 8.1666585,
                    "velocity": 0.7086614173228346,
                    "duration": 0.16666649999999983
                },
                {
                    "name": "G5",
                    "midi": 79,
                    "time": 8.333325,
                    "velocity": 0.7086614173228346,
                    "duration": 0.4999994999999995
                },
                {
                    "name": "F5",
                    "midi": 77,
                    "time": 8.8333245,
                    "velocity": 0.7086614173228346,
                    "duration": 0.16666649999999983
                },
                {
                    "name": "G5",
                    "midi": 79,
                    "time": 8.999991,
                    "velocity": 0.7086614173228346,
                    "duration": 0.9999990000000007
                },
                {
                    "name": "A5",
                    "midi": 81,
                    "time": 9.99999,
                    "velocity": 0.7086614173228346,
                    "duration": 0.33333299999999966
                },
                {
                    "name": "F5",
                    "midi": 77,
                    "time": 10.333323,
                    "velocity": 0.7086614173228346,
                    "duration": 0.9999990000000007
                },
                {
                    "name": "E5",
                    "midi": 76,
                    "time": 11.333322,
                    "velocity": 0.7086614173228346,
                    "duration": 0.33333299999999966
                },
                {
                    "name": "E5",
                    "midi": 76,
                    "time": 11.666655,
                    "velocity": 0.7086614173228346,
                    "duration": 0.4999994999999995
                },
                {
                    "name": "E5",
                    "midi": 76,
                    "time": 12.1666545,
                    "velocity": 0.7086614173228346,
                    "duration": 0.16666649999999983
                },
                {
                    "name": "C6",
                    "midi": 84,
                    "time": 12.333321,
                    "velocity": 0.7086614173228346,
                    "duration": 0.4999994999999995
                },
                {
                    "name": "C6",
                    "midi": 84,
                    "time": 12.8333205,
                    "velocity": 0.7086614173228346,
                    "duration": 0.16666649999999983
                },
                {
                    "name": "C6",
                    "midi": 84,
                    "time": 12.999986999999999,
                    "velocity": 0.7086614173228346,
                    "duration": 0.9999990000000007
                },
                {
                    "name": "C6",
                    "midi": 84,
                    "time": 13.999986,
                    "velocity": 0.7086614173228346,
                    "duration": 0.10937489062500028
                },
                {
                    "name": "B5",
                    "midi": 83,
                    "time": 14.111097000000001,
                    "velocity": 0.7086614173228346,
                    "duration": 0.10937489062500028
                },
                {
                    "name": "A5",
                    "midi": 81,
                    "time": 14.222208000000002,
                    "velocity": 0.7086614173228346,
                    "duration": 0.10937489062500028
                },
                {
                    "name": "B5",
                    "midi": 83,
                    "time": 14.333319000000003,
                    "velocity": 0.7086614173228346,
                    "duration": 0.6666659999999993
                },
                {
                    "name": "E5",
                    "midi": 76,
                    "time": 14.999985000000002,
                    "velocity": 0.7086614173228346,
                    "duration": 0.6666659999999993
                },
                {
                    "name": "A5",
                    "midi": 81,
                    "time": 15.666651000000002,
                    "velocity": 0.7086614173228346,
                    "duration": 0.999998999999999
                },
                {
                    "name": "B5",
                    "midi": 83,
                    "time": 16.66665,
                    "velocity": 0.7086614173228346,
                    "duration": 0.33333299999999966
                },
                {
                    "name": "G#5",
                    "midi": 80,
                    "time": 16.999983,
                    "velocity": 0.7086614173228346,
                    "duration": 0.999998999999999
                },
                {
                    "name": "E5",
                    "midi": 76,
                    "time": 17.999982,
                    "velocity": 0.7086614173228346,
                    "duration": 0.33333299999999966
                },
                {
                    "name": "F5",
                    "midi": 77,
                    "time": 18.333315,
                    "velocity": 0.7086614173228346,
                    "duration": 0.999998999999999
                },
                {
                    "name": "F5",
                    "midi": 77,
                    "time": 19.4999805,
                    "velocity": 0.7086614173228346,
                    "duration": 0.05381939062500152
                },
                {
                    "name": "E5",
                    "midi": 76,
                    "time": 19.555536,
                    "velocity": 0.7086614173228346,
                    "duration": 0.05381939062500152
                },
                {
                    "name": "D5",
                    "midi": 74,
                    "time": 19.6110915,
                    "velocity": 0.7086614173228346,
                    "duration": 0.05381939062500152
                },
                {
                    "name": "E5",
                    "midi": 76,
                    "time": 19.666647,
                    "velocity": 0.7086614173228346,
                    "duration": 0.6666659999999993
                },
                {
                    "name": "A5",
                    "midi": 81,
                    "time": 20.333313,
                    "velocity": 0.7086614173228346,
                    "duration": 1.3333319999999986
                },
                {
                    "name": "G#5",
                    "midi": 80,
                    "time": 21.666645,
                    "velocity": 0.7086614173228346,
                    "duration": 0.6666659999999993
                },
                {
                    "name": "A5",
                    "midi": 81,
                    "time": 22.333311,
                    "velocity": 0.7086614173228346,
                    "duration": 0.49999950000000126
                },
                {
                    "name": "G5",
                    "midi": 79,
                    "time": 22.8333105,
                    "velocity": 0.7086614173228346,
                    "duration": 0.1666665000000016
                },
                {
                    "name": "F5",
                    "midi": 77,
                    "time": 22.999977,
                    "velocity": 0.7086614173228346,
                    "duration": 0.49999950000000126
                },
                {
                    "name": "E5",
                    "midi": 76,
                    "time": 23.499976500000002,
                    "velocity": 0.7086614173228346,
                    "duration": 0.1666665000000016
                },
                {
                    "name": "D5",
                    "midi": 74,
                    "time": 23.666643000000004,
                    "velocity": 0.7086614173228346,
                    "duration": 0.49999950000000126
                },
                {
                    "name": "C5",
                    "midi": 72,
                    "time": 24.166642500000005,
                    "velocity": 0.7086614173228346,
                    "duration": 0.1666665000000016
                },
                {
                    "name": "B4",
                    "midi": 71,
                    "time": 24.333309000000007,
                    "velocity": 0.7086614173228346,
                    "duration": 0.49999950000000126
                },
                {
                    "name": "A4",
                    "midi": 69,
                    "time": 24.833308500000008,
                    "velocity": 0.7086614173228346,
                    "duration": 0.1666665000000016
                },
                {
                    "name": "E4",
                    "midi": 64,
                    "time": 24.99997500000001,
                    "velocity": 0.7086614173228346,
                    "duration": 1.3333319999999986
                },
                {
                    "name": "B4",
                    "midi": 71,
                    "time": 26.666640000000008,
                    "velocity": 0.7086614173228346,
                    "duration": 0.33333299999999966
                },
                {
                    "name": "E5",
                    "midi": 76,
                    "time": 26.999973000000008,
                    "velocity": 0.7086614173228346,
                    "duration": 0.49999950000000126
                },
                {
                    "name": "E5",
                    "midi": 76,
                    "time": 27.49997250000001,
                    "velocity": 0.7086614173228346,
                    "duration": 0.1666665000000016
                },
                {
                    "name": "G#5",
                    "midi": 80,
                    "time": 27.66663900000001,
                    "velocity": 0.7086614173228346,
                    "duration": 1.3333319999999986
                },
                {
                    "name": "E5",
                    "midi": 76,
                    "time": 29.33330400000001,
                    "velocity": 0.7086614173228346,
                    "duration": 0.33333299999999966
                },
                {
                    "name": "G#5",
                    "midi": 80,
                    "time": 29.66663700000001,
                    "velocity": 0.7086614173228346,
                    "duration": 0.49999950000000126
                },
                {
                    "name": "G#5",
                    "midi": 80,
                    "time": 30.16663650000001,
                    "velocity": 0.7086614173228346,
                    "duration": 0.1666665000000016
                },
                {
                    "name": "B5",
                    "midi": 83,
                    "time": 30.33330300000001,
                    "velocity": 0.7086614173228346,
                    "duration": 0.999998999999999
                },
                {
                    "name": "A5",
                    "midi": 81,
                    "time": 31.499968500000012,
                    "velocity": 0.7086614173228346,
                    "duration": 0.05381939062500152
                },
                {
                    "name": "G#5",
                    "midi": 80,
                    "time": 31.555524000000013,
                    "velocity": 0.7086614173228346,
                    "duration": 0.05381939062500152
                },
                {
                    "name": "F#5",
                    "midi": 78,
                    "time": 31.611079500000013,
                    "velocity": 0.7086614173228346,
                    "duration": 0.05381939062500152
                },
                {
                    "name": "E5",
                    "midi": 76,
                    "time": 31.666635000000014,
                    "velocity": 0.7086614173228346,
                    "duration": 0.49999950000000126
                },
                {
                    "name": "D5",
                    "midi": 74,
                    "time": 32.166634500000015,
                    "velocity": 0.7086614173228346,
                    "duration": 0.16666649999999805
                },
                {
                    "name": "C5",
                    "midi": 72,
                    "time": 32.33330100000001,
                    "velocity": 0.7086614173228346,
                    "duration": 0.49999950000000126
                },
                {
                    "name": "B4",
                    "midi": 71,
                    "time": 32.833300500000014,
                    "velocity": 0.7086614173228346,
                    "duration": 0.16666649999999805
                },
                {
                    "name": "C5",
                    "midi": 72,
                    "time": 32.99996700000001,
                    "velocity": 0.7086614173228346,
                    "duration": 0.49999950000000126
                },
                {
                    "name": "E5",
                    "midi": 76,
                    "time": 33.49996650000001,
                    "velocity": 0.7086614173228346,
                    "duration": 0.16666649999999805
                },
                {
                    "name": "A5",
                    "midi": 81,
                    "time": 33.66663300000001,
                    "velocity": 0.7086614173228346,
                    "duration": 0.49999950000000126
                },
                {
                    "name": "C5",
                    "midi": 72,
                    "time": 34.16663250000001,
                    "velocity": 0.7086614173228346,
                    "duration": 0.16666649999999805
                },
                {
                    "name": "B4",
                    "midi": 71,
                    "time": 34.33329900000001,
                    "velocity": 0.7086614173228346,
                    "duration": 0.9999990000000025
                },
                {
                    "name": "A4",
                    "midi": 69,
                    "time": 35.33329800000001,
                    "velocity": 0.7086614173228346,
                    "duration": 0.3333330000000032
                },
                {
                    "name": "A4",
                    "midi": 69,
                    "time": 35.66663100000002,
                    "velocity": 0.7086614173228346,
                    "duration": 1.3333319999999986
                },
                {
                    "name": "A4",
                    "midi": 69,
                    "time": 37.33329600000002,
                    "velocity": 0.7086614173228346,
                    "duration": 0.3333330000000032
                },
                {
                    "name": "D5",
                    "midi": 74,
                    "time": 37.66662900000002,
                    "velocity": 0.7086614173228346,
                    "duration": 0.49999950000000126
                },
                {
                    "name": "D5",
                    "midi": 74,
                    "time": 38.16662850000002,
                    "velocity": 0.7086614173228346,
                    "duration": 0.16666649999999805
                },
                {
                    "name": "A4",
                    "midi": 69,
                    "time": 38.33329500000002,
                    "velocity": 0.7086614173228346,
                    "duration": 2.6666639999999973
                },
                {
                    "name": "A4",
                    "midi": 69,
                    "time": 41.33329200000002,
                    "velocity": 0.7086614173228346,
                    "duration": 0.3333330000000032
                },
                {
                    "name": "A4",
                    "midi": 69,
                    "time": 41.666625000000025,
                    "velocity": 0.7086614173228346,
                    "duration": 0.3333330000000032
                },
                {
                    "name": "B4",
                    "midi": 71,
                    "time": 41.99995800000003,
                    "velocity": 0.7086614173228346,
                    "duration": 0.3333330000000032
                },
                {
                    "name": "C#5",
                    "midi": 73,
                    "time": 42.33329100000003,
                    "velocity": 0.7086614173228346,
                    "duration": 0.3333330000000032
                },
                {
                    "name": "C#5",
                    "midi": 73,
                    "time": 42.666624000000034,
                    "velocity": 0.7086614173228346,
                    "duration": 0.3333330000000032
                },
                {
                    "name": "C#5",
                    "midi": 73,
                    "time": 42.99995700000004,
                    "velocity": 0.7086614173228346,
                    "duration": 0.3333330000000032
                },
                {
                    "name": "D5",
                    "midi": 74,
                    "time": 43.33329000000004,
                    "velocity": 0.7086614173228346,
                    "duration": 0.3333330000000032
                },
                {
                    "name": "E5",
                    "midi": 76,
                    "time": 43.666623000000044,
                    "velocity": 0.7086614173228346,
                    "duration": 0.3333330000000032
                },
                {
                    "name": "E5",
                    "midi": 76,
                    "time": 43.99995600000005,
                    "velocity": 0.7086614173228346,
                    "duration": 0.3333330000000032
                },
                {
                    "name": "E5",
                    "midi": 76,
                    "time": 44.33328900000005,
                    "velocity": 0.7086614173228346,
                    "duration": 0.3333330000000032
                },
                {
                    "name": "F5",
                    "midi": 77,
                    "time": 44.666622000000054,
                    "velocity": 0.7086614173228346,
                    "duration": 0.3333330000000032
                },
                {
                    "name": "G5",
                    "midi": 79,
                    "time": 44.99995500000006,
                    "velocity": 0.7086614173228346,
                    "duration": 0.3333330000000032
                },
                {
                    "name": "G5",
                    "midi": 79,
                    "time": 45.33328800000006,
                    "velocity": 0.7086614173228346,
                    "duration": 0.3333330000000032
                },
                {
                    "name": "F5",
                    "midi": 77,
                    "time": 45.66662100000006,
                    "velocity": 0.7086614173228346,
                    "duration": 0.3333330000000032
                },
                {
                    "name": "E5",
                    "midi": 76,
                    "time": 45.999954000000066,
                    "velocity": 0.7086614173228346,
                    "duration": 0.3333330000000032
                },
                {
                    "name": "F5",
                    "midi": 77,
                    "time": 46.33328700000007,
                    "velocity": 0.7086614173228346,
                    "duration": 0.9999990000000025
                },
                {
                    "name": "D5",
                    "midi": 74,
                    "time": 47.33328600000007,
                    "velocity": 0.7086614173228346,
                    "duration": 0.3333330000000032
                },
                {
                    "name": "G5",
                    "midi": 79,
                    "time": 47.666619000000075,
                    "velocity": 0.7086614173228346,
                    "duration": 0.6666659999999993
                },
                {
                    "name": "G5",
                    "midi": 79,
                    "time": 48.333285000000075,
                    "velocity": 0.7086614173228346,
                    "duration": 0.3333330000000032
                },
                {
                    "name": "A5",
                    "midi": 81,
                    "time": 48.66661800000008,
                    "velocity": 0.7086614173228346,
                    "duration": 0.3333330000000032
                },
                {
                    "name": "A#5",
                    "midi": 82,
                    "time": 48.99995100000008,
                    "velocity": 0.7086614173228346,
                    "duration": 0.9999990000000025
                },
                {
                    "name": "A5",
                    "midi": 81,
                    "time": 49.999950000000084,
                    "velocity": 0.7086614173228346,
                    "duration": 0.3333330000000032
                },
                {
                    "name": "G5",
                    "midi": 79,
                    "time": 50.33328300000009,
                    "velocity": 0.7086614173228346,
                    "duration": 0.9999990000000025
                },
                {
                    "name": "F5",
                    "midi": 77,
                    "time": 51.33328200000009,
                    "velocity": 0.7086614173228346,
                    "duration": 0.3333330000000032
                },
                {
                    "name": "E5",
                    "midi": 76,
                    "time": 51.66661500000009,
                    "velocity": 0.7086614173228346,
                    "duration": 0.9999990000000025
                },
                {
                    "name": "E5",
                    "midi": 76,
                    "time": 52.666614000000095,
                    "velocity": 0.7086614173228346,
                    "duration": 0.3333330000000032
                },
                {
                    "name": "A5",
                    "midi": 81,
                    "time": 52.9999470000001,
                    "velocity": 0.7086614173228346,
                    "duration": 0.9999990000000025
                },
                {
                    "name": "A5",
                    "midi": 81,
                    "time": 53.9999460000001,
                    "velocity": 0.7086614173228346,
                    "duration": 0.3333330000000032
                },
                {
                    "name": "A5",
                    "midi": 81,
                    "time": 54.333279000000104,
                    "velocity": 0.7086614173228346,
                    "duration": 0.9999990000000025
                },
                {
                    "name": "C#5",
                    "midi": 73,
                    "time": 55.33327800000011,
                    "velocity": 0.7086614173228346,
                    "duration": 0.3333330000000032
                },
                {
                    "name": "C#5",
                    "midi": 73,
                    "time": 55.66661100000011,
                    "velocity": 0.7086614173228346,
                    "duration": 0.3333330000000032
                },
                {
                    "name": "C#5",
                    "midi": 73,
                    "time": 55.99994400000011,
                    "velocity": 0.7086614173228346,
                    "duration": 0.3333330000000032
                },
                {
                    "name": "D5",
                    "midi": 74,
                    "time": 56.333277000000116,
                    "velocity": 0.7086614173228346,
                    "duration": 0.3333330000000032
                },
                {
                    "name": "E5",
                    "midi": 76,
                    "time": 56.66661000000012,
                    "velocity": 0.7086614173228346,
                    "duration": 0.3333330000000032
                },
                {
                    "name": "A4",
                    "midi": 69,
                    "time": 56.99994300000012,
                    "velocity": 0.7086614173228346,
                    "duration": 1.3333319999999986
                },
                {
                    "name": "D5",
                    "midi": 74,
                    "time": 58.666608000000124,
                    "velocity": 0.7086614173228346,
                    "duration": 0.3333330000000032
                },
                {
                    "name": "D5",
                    "midi": 74,
                    "time": 58.99994100000013,
                    "velocity": 0.7086614173228346,
                    "duration": 0.3333330000000032
                },
                {
                    "name": "C5",
                    "midi": 72,
                    "time": 59.33327400000013,
                    "velocity": 0.7086614173228346,
                    "duration": 0.3333330000000032
                },
                {
                    "name": "A#4",
                    "midi": 70,
                    "time": 59.666607000000134,
                    "velocity": 0.7086614173228346,
                    "duration": 0.3333330000000032
                },
                {
                    "name": "A#4",
                    "midi": 70,
                    "time": 59.99994000000014,
                    "velocity": 0.7086614173228346,
                    "duration": 0.3333330000000032
                },
                {
                    "name": "A#4",
                    "midi": 70,
                    "time": 60.33327300000014,
                    "velocity": 0.7086614173228346,
                    "duration": 0.3333330000000032
                },
                {
                    "name": "A4",
                    "midi": 69,
                    "time": 60.666606000000144,
                    "velocity": 0.7086614173228346,
                    "duration": 0.3333330000000032
                },
                {
                    "name": "G4",
                    "midi": 67,
                    "time": 60.99993900000015,
                    "velocity": 0.7086614173228346,
                    "duration": 0.9999990000000025
                },
                {
                    "name": "G4",
                    "midi": 67,
                    "time": 61.99993800000015,
                    "velocity": 0.7086614173228346,
                    "duration": 0.3333330000000032
                },
                {
                    "name": "G4",
                    "midi": 67,
                    "time": 62.33327100000015,
                    "velocity": 0.7086614173228346,
                    "duration": 0.9999990000000025
                },
                {
                    "name": "A4",
                    "midi": 69,
                    "time": 63.333270000000155,
                    "velocity": 0.7086614173228346,
                    "duration": 0.3333330000000032
                },
                {
                    "name": "F4",
                    "midi": 65,
                    "time": 63.66660300000016,
                    "velocity": 0.7086614173228346,
                    "duration": 0.9999989999999954
                },
                {
                    "name": "E4",
                    "midi": 64,
                    "time": 64.66660200000015,
                    "velocity": 0.7086614173228346,
                    "duration": 0.3333329999999961
                },
                {
                    "name": "E4",
                    "midi": 64,
                    "time": 64.99993500000015,
                    "velocity": 0.7086614173228346,
                    "duration": 1.3333319999999986
                },
                {
                    "name": "A4",
                    "midi": 69,
                    "time": 66.66660000000014,
                    "velocity": 0.7086614173228346,
                    "duration": 0.3333329999999961
                },
                {
                    "name": "A4",
                    "midi": 69,
                    "time": 66.99993300000014,
                    "velocity": 0.7086614173228346,
                    "duration": 0.3333329999999961
                },
                {
                    "name": "G4",
                    "midi": 67,
                    "time": 67.33326600000014,
                    "velocity": 0.7086614173228346,
                    "duration": 0.3333329999999961
                },
                {
                    "name": "F#4",
                    "midi": 66,
                    "time": 67.66659900000013,
                    "velocity": 0.7086614173228346,
                    "duration": 0.6666660000000064
                },
                {
                    "name": "D4",
                    "midi": 62,
                    "time": 68.33326500000014,
                    "velocity": 0.7086614173228346,
                    "duration": 0.6666660000000064
                },
                {
                    "name": "G4",
                    "midi": 67,
                    "time": 68.99993100000015,
                    "velocity": 0.7086614173228346,
                    "duration": 0.6666660000000064
                },
                {
                    "name": "G4",
                    "midi": 67,
                    "time": 69.66659700000015,
                    "velocity": 0.7086614173228346,
                    "duration": 0.3333329999999961
                },
                {
                    "name": "A4",
                    "midi": 69,
                    "time": 69.99993000000015,
                    "velocity": 0.7086614173228346,
                    "duration": 0.3333329999999961
                },
                {
                    "name": "A#4",
                    "midi": 70,
                    "time": 70.33326300000014,
                    "velocity": 0.7086614173228346,
                    "duration": 1.3333319999999986
                },
                {
                    "name": "G4",
                    "midi": 67,
                    "time": 71.99992800000014,
                    "velocity": 0.7086614173228346,
                    "duration": 0.3333329999999961
                },
                {
                    "name": "G4",
                    "midi": 67,
                    "time": 72.33326100000014,
                    "velocity": 0.7086614173228346,
                    "duration": 0.3333329999999961
                },
                {
                    "name": "F4",
                    "midi": 65,
                    "time": 72.66659400000013,
                    "velocity": 0.7086614173228346,
                    "duration": 0.3333329999999961
                },
                {
                    "name": "E4",
                    "midi": 64,
                    "time": 72.99992700000013,
                    "velocity": 0.7086614173228346,
                    "duration": 0.6666660000000064
                },
                {
                    "name": "C4",
                    "midi": 60,
                    "time": 73.66659300000013,
                    "velocity": 0.7086614173228346,
                    "duration": 0.6666660000000064
                },
                {
                    "name": "F4",
                    "midi": 65,
                    "time": 74.33325900000014,
                    "velocity": 0.7086614173228346,
                    "duration": 0.6666660000000064
                },
                {
                    "name": "F4",
                    "midi": 65,
                    "time": 74.99992500000015,
                    "velocity": 0.7086614173228346,
                    "duration": 0.3333329999999961
                },
                {
                    "name": "G4",
                    "midi": 67,
                    "time": 75.33325800000014,
                    "velocity": 0.7086614173228346,
                    "duration": 0.3333329999999961
                },
                {
                    "name": "A4",
                    "midi": 69,
                    "time": 75.66659100000014,
                    "velocity": 0.7086614173228346,
                    "duration": 0.9999990000000025
                },
                {
                    "name": "A4",
                    "midi": 69,
                    "time": 76.66659000000014,
                    "velocity": 0.7086614173228346,
                    "duration": 0.3333329999999961
                },
                {
                    "name": "A#4",
                    "midi": 70,
                    "time": 76.99992300000014,
                    "velocity": 0.7086614173228346,
                    "duration": 0.6666660000000064
                },
                {
                    "name": "C5",
                    "midi": 72,
                    "time": 77.66658900000014,
                    "velocity": 0.7086614173228346,
                    "duration": 0.6666660000000064
                },
                {
                    "name": "D5",
                    "midi": 74,
                    "time": 78.33325500000015,
                    "velocity": 0.7086614173228346,
                    "duration": 0.9999990000000025
                },
                {
                    "name": "D5",
                    "midi": 74,
                    "time": 79.33325400000015,
                    "velocity": 0.7086614173228346,
                    "duration": 0.3333329999999961
                },
                {
                    "name": "E5",
                    "midi": 76,
                    "time": 79.66658700000015,
                    "velocity": 0.7086614173228346,
                    "duration": 0.6666660000000064
                },
                {
                    "name": "F5",
                    "midi": 77,
                    "time": 80.33325300000016,
                    "velocity": 0.7086614173228346,
                    "duration": 0.6666660000000064
                },
                {
                    "name": "E5",
                    "midi": 76,
                    "time": 80.99991900000016,
                    "velocity": 0.7086614173228346,
                    "duration": 0.9999990000000025
                },
                {
                    "name": "G5",
                    "midi": 79,
                    "time": 81.99991800000016,
                    "velocity": 0.7086614173228346,
                    "duration": 0.3333329999999961
                },
                {
                    "name": "C6",
                    "midi": 84,
                    "time": 82.33325100000016,
                    "velocity": 0.7086614173228346,
                    "duration": 0.9999990000000025
                },
                {
                    "name": "C6",
                    "midi": 84,
                    "time": 83.33325000000016,
                    "velocity": 0.7086614173228346,
                    "duration": 0.3333329999999961
                },
                {
                    "name": "C6",
                    "midi": 84,
                    "time": 83.66658300000016,
                    "velocity": 0.7086614173228346,
                    "duration": 0.9999990000000025
                },
                {
                    "name": "E5",
                    "midi": 76,
                    "time": 84.66658200000016,
                    "velocity": 0.7086614173228346,
                    "duration": 0.3333329999999961
                },
                {
                    "name": "E5",
                    "midi": 76,
                    "time": 84.99991500000016,
                    "velocity": 0.7086614173228346,
                    "duration": 0.3333329999999961
                },
                {
                    "name": "E5",
                    "midi": 76,
                    "time": 85.33324800000015,
                    "velocity": 0.7086614173228346,
                    "duration": 0.3333329999999961
                },
                {
                    "name": "F5",
                    "midi": 77,
                    "time": 85.66658100000015,
                    "velocity": 0.7086614173228346,
                    "duration": 0.3333329999999961
                },
                {
                    "name": "G5",
                    "midi": 79,
                    "time": 85.99991400000015,
                    "velocity": 0.7086614173228346,
                    "duration": 0.3333329999999961
                },
                {
                    "name": "C5",
                    "midi": 72,
                    "time": 86.33324700000014,
                    "velocity": 0.7086614173228346,
                    "duration": 1.3333319999999986
                },
                {
                    "name": "F5",
                    "midi": 77,
                    "time": 87.99991200000014,
                    "velocity": 0.7086614173228346,
                    "duration": 0.3333329999999961
                },
                {
                    "name": "F5",
                    "midi": 77,
                    "time": 88.33324500000013,
                    "velocity": 0.7086614173228346,
                    "duration": 0.3333329999999961
                },
                {
                    "name": "E5",
                    "midi": 76,
                    "time": 88.66657800000013,
                    "velocity": 0.7086614173228346,
                    "duration": 0.3333329999999961
                },
                {
                    "name": "D5",
                    "midi": 74,
                    "time": 88.99991100000013,
                    "velocity": 0.7086614173228346,
                    "duration": 0.3333329999999961
                },
                {
                    "name": "D5",
                    "midi": 74,
                    "time": 89.33324400000012,
                    "velocity": 0.7086614173228346,
                    "duration": 0.3333329999999961
                },
                {
                    "name": "D5",
                    "midi": 74,
                    "time": 89.66657700000012,
                    "velocity": 0.7086614173228346,
                    "duration": 0.3333329999999961
                },
                {
                    "name": "C5",
                    "midi": 72,
                    "time": 89.99991000000011,
                    "velocity": 0.7086614173228346,
                    "duration": 0.3333329999999961
                },
                {
                    "name": "A#4",
                    "midi": 70,
                    "time": 90.33324300000011,
                    "velocity": 0.7086614173228346,
                    "duration": 0.3333329999999961
                },
                {
                    "name": "A#4",
                    "midi": 70,
                    "time": 90.6665760000001,
                    "velocity": 0.7086614173228346,
                    "duration": 0.3333329999999961
                },
                {
                    "name": "A#4",
                    "midi": 70,
                    "time": 90.9999090000001,
                    "velocity": 0.7086614173228346,
                    "duration": 0.3333329999999961
                },
                {
                    "name": "A4",
                    "midi": 69,
                    "time": 91.3332420000001,
                    "velocity": 0.7086614173228346,
                    "duration": 0.3333329999999961
                },
                {
                    "name": "G4",
                    "midi": 67,
                    "time": 91.6665750000001,
                    "velocity": 0.7086614173228346,
                    "duration": 0.6666660000000064
                },
                {
                    "name": "A4",
                    "midi": 69,
                    "time": 92.3332410000001,
                    "velocity": 0.7086614173228346,
                    "duration": 0.6666660000000064
                },
                {
                    "name": "G4",
                    "midi": 67,
                    "time": 92.9999070000001,
                    "velocity": 0.7086614173228346,
                    "duration": 0.9999990000000025
                },
                {
                    "name": "F4",
                    "midi": 65,
                    "time": 93.99990600000011,
                    "velocity": 0.7086614173228346,
                    "duration": 0.3333329999999961
                },
                {
                    "name": "F4",
                    "midi": 65,
                    "time": 94.3332390000001,
                    "velocity": 0.7086614173228346,
                    "duration": 1.3333319999999986
                },
                {
                    "name": "C5",
                    "midi": 72,
                    "time": 95.9999040000001,
                    "velocity": 0.7086614173228346,
                    "duration": 0.3333329999999961
                },
                {
                    "name": "A#4",
                    "midi": 70,
                    "time": 96.3332370000001,
                    "velocity": 0.7086614173228346,
                    "duration": 0.3333329999999961
                },
                {
                    "name": "A4",
                    "midi": 69,
                    "time": 96.66657000000009,
                    "velocity": 0.7086614173228346,
                    "duration": 0.3333329999999961
                },
                {
                    "name": "G4",
                    "midi": 67,
                    "time": 96.99990300000009,
                    "velocity": 0.7086614173228346,
                    "duration": 0.6666660000000064
                },
                {
                    "name": "C4",
                    "midi": 60,
                    "time": 97.6665690000001,
                    "velocity": 0.7086614173228346,
                    "duration": 0.6666660000000064
                },
                {
                    "name": "G4",
                    "midi": 67,
                    "time": 98.3332350000001,
                    "velocity": 0.7086614173228346,
                    "duration": 0.6666660000000064
                },
                {
                    "name": "G4",
                    "midi": 67,
                    "time": 98.99990100000011,
                    "velocity": 0.7086614173228346,
                    "duration": 0.3333329999999961
                },
                {
                    "name": "A4",
                    "midi": 69,
                    "time": 99.3332340000001,
                    "velocity": 0.7086614173228346,
                    "duration": 0.3333329999999961
                },
                {
                    "name": "A#4",
                    "midi": 70,
                    "time": 99.6665670000001,
                    "velocity": 0.7086614173228346,
                    "duration": 1.3333319999999986
                },
                {
                    "name": "D5",
                    "midi": 74,
                    "time": 101.3332320000001,
                    "velocity": 0.7086614173228346,
                    "duration": 0.3333329999999961
                },
                {
                    "name": "C5",
                    "midi": 72,
                    "time": 101.66656500000009,
                    "velocity": 0.7086614173228346,
                    "duration": 0.3333329999999961
                },
                {
                    "name": "A#4",
                    "midi": 70,
                    "time": 101.99989800000009,
                    "velocity": 0.7086614173228346,
                    "duration": 0.3333329999999961
                },
                {
                    "name": "A4",
                    "midi": 69,
                    "time": 102.33323100000008,
                    "velocity": 0.7086614173228346,
                    "duration": 0.6666660000000064
                },
                {
                    "name": "A4",
                    "midi": 69,
                    "time": 102.99989700000009,
                    "velocity": 0.7086614173228346,
                    "duration": 0.6666660000000064
                },
                {
                    "name": "D5",
                    "midi": 74,
                    "time": 103.6665630000001,
                    "velocity": 0.7086614173228346,
                    "duration": 0.9999990000000025
                },
                {
                    "name": "E5",
                    "midi": 76,
                    "time": 104.6665620000001,
                    "velocity": 0.7086614173228346,
                    "duration": 0.3333329999999961
                },
                {
                    "name": "C#5",
                    "midi": 73,
                    "time": 104.9998950000001,
                    "velocity": 0.7086614173228346,
                    "duration": 0.9999990000000025
                },
                {
                    "name": "A4",
                    "midi": 69,
                    "time": 105.9998940000001,
                    "velocity": 0.7086614173228346,
                    "duration": 0.3333329999999961
                },
                {
                    "name": "E5",
                    "midi": 76,
                    "time": 106.3332270000001,
                    "velocity": 0.7086614173228346,
                    "duration": 0.9999990000000025
                },
                {
                    "name": "E5",
                    "midi": 76,
                    "time": 107.3332260000001,
                    "velocity": 0.7086614173228346,
                    "duration": 0.3333329999999961
                },
                {
                    "name": "E5",
                    "midi": 76,
                    "time": 107.66655900000009,
                    "velocity": 0.7086614173228346,
                    "duration": 11.666655000000006
                },
                {
                    "name": "A4",
                    "midi": 69,
                    "time": 119.3332140000001,
                    "velocity": 0.7086614173228346,
                    "duration": 0.3333329999999961
                },
                {
                    "name": "D5",
                    "midi": 74,
                    "time": 119.6665470000001,
                    "velocity": 0.7086614173228346,
                    "duration": 0.9999990000000025
                },
                {
                    "name": "D5",
                    "midi": 74,
                    "time": 120.6665460000001,
                    "velocity": 0.7086614173228346,
                    "duration": 0.3333329999999961
                },
                {
                    "name": "D5",
                    "midi": 74,
                    "time": 120.99987900000009,
                    "velocity": 0.7086614173228346,
                    "duration": 0.6666660000000064
                },
                {
                    "name": "C5",
                    "midi": 72,
                    "time": 121.6665450000001,
                    "velocity": 0.7086614173228346,
                    "duration": 0.3333329999999961
                },
                {
                    "name": "B4",
                    "midi": 71,
                    "time": 121.9998780000001,
                    "velocity": 0.7086614173228346,
                    "duration": 0.3333329999999961
                },
                {
                    "name": "C5",
                    "midi": 72,
                    "time": 122.33321100000009,
                    "velocity": 0.7086614173228346,
                    "duration": 0.9999990000000025
                },
                {
                    "name": "C5",
                    "midi": 72,
                    "time": 123.3332100000001,
                    "velocity": 0.7086614173228346,
                    "duration": 0.3333329999999961
                },
                {
                    "name": "C5",
                    "midi": 72,
                    "time": 123.66654300000009,
                    "velocity": 0.7086614173228346,
                    "duration": 0.9999990000000025
                },
                {
                    "name": "B4",
                    "midi": 71,
                    "time": 124.66654200000009,
                    "velocity": 0.7086614173228346,
                    "duration": 0.3333329999999961
                },
                {
                    "name": "B4",
                    "midi": 71,
                    "time": 124.99987500000009,
                    "velocity": 0.7086614173228346,
                    "duration": 0.9999990000000025
                },
                {
                    "name": "A4",
                    "midi": 69,
                    "time": 125.99987400000009,
                    "velocity": 0.7086614173228346,
                    "duration": 0.3333329999999961
                },
                {
                    "name": "A4",
                    "midi": 69,
                    "time": 126.33320700000009,
                    "velocity": 0.7086614173228346,
                    "duration": 0.3333329999999961
                },
                {
                    "name": "A4",
                    "midi": 69,
                    "time": 126.66654000000008,
                    "velocity": 0.7086614173228346,
                    "duration": 0.3333329999999961
                },
                {
                    "name": "A4",
                    "midi": 69,
                    "time": 126.99987300000008,
                    "velocity": 0.7086614173228346,
                    "duration": 0.3333329999999961
                },
                {
                    "name": "B4",
                    "midi": 71,
                    "time": 127.33320600000008,
                    "velocity": 0.7086614173228346,
                    "duration": 0.3333329999999961
                },
                {
                    "name": "C#5",
                    "midi": 73,
                    "time": 127.66653900000007,
                    "velocity": 0.7086614173228346,
                    "duration": 0.3333329999999961
                },
                {
                    "name": "C#5",
                    "midi": 73,
                    "time": 127.99987200000007,
                    "velocity": 0.7086614173228346,
                    "duration": 0.3333330000000103
                },
                {
                    "name": "C#5",
                    "midi": 73,
                    "time": 128.33320500000008,
                    "velocity": 0.7086614173228346,
                    "duration": 0.3333330000000103
                },
                {
                    "name": "D5",
                    "midi": 74,
                    "time": 128.6665380000001,
                    "velocity": 0.7086614173228346,
                    "duration": 0.3333330000000103
                },
                {
                    "name": "E5",
                    "midi": 76,
                    "time": 128.9998710000001,
                    "velocity": 0.7086614173228346,
                    "duration": 0.3333330000000103
                },
                {
                    "name": "E5",
                    "midi": 76,
                    "time": 129.3332040000001,
                    "velocity": 0.7086614173228346,
                    "duration": 0.3333330000000103
                },
                {
                    "name": "E5",
                    "midi": 76,
                    "time": 129.66653700000012,
                    "velocity": 0.7086614173228346,
                    "duration": 0.3333330000000103
                },
                {
                    "name": "F5",
                    "midi": 77,
                    "time": 129.99987000000013,
                    "velocity": 0.7086614173228346,
                    "duration": 0.3333330000000103
                },
                {
                    "name": "G5",
                    "midi": 79,
                    "time": 130.33320300000014,
                    "velocity": 0.7086614173228346,
                    "duration": 0.3333330000000103
                },
                {
                    "name": "G5",
                    "midi": 79,
                    "time": 130.66653600000015,
                    "velocity": 0.7086614173228346,
                    "duration": 0.3333330000000103
                },
                {
                    "name": "F5",
                    "midi": 77,
                    "time": 130.99986900000016,
                    "velocity": 0.7086614173228346,
                    "duration": 0.3333330000000103
                },
                {
                    "name": "E5",
                    "midi": 76,
                    "time": 131.33320200000017,
                    "velocity": 0.7086614173228346,
                    "duration": 0.3333330000000103
                },
                {
                    "name": "F5",
                    "midi": 77,
                    "time": 131.66653500000018,
                    "velocity": 0.7086614173228346,
                    "duration": 0.3333330000000103
                },
                {
                    "name": "D5",
                    "midi": 74,
                    "time": 131.9998680000002,
                    "velocity": 0.7086614173228346,
                    "duration": 0.3333330000000103
                },
                {
                    "name": "D5",
                    "midi": 74,
                    "time": 132.3332010000002,
                    "velocity": 0.7086614173228346,
                    "duration": 0.3333330000000103
                },
                {
                    "name": "E5",
                    "midi": 76,
                    "time": 132.6665340000002,
                    "velocity": 0.7086614173228346,
                    "duration": 0.3333330000000103
                },
                {
                    "name": "F#5",
                    "midi": 78,
                    "time": 132.99986700000022,
                    "velocity": 0.7086614173228346,
                    "duration": 0.3333330000000103
                },
                {
                    "name": "F#5",
                    "midi": 78,
                    "time": 133.33320000000023,
                    "velocity": 0.7086614173228346,
                    "duration": 0.3333330000000103
                },
                {
                    "name": "F#5",
                    "midi": 78,
                    "time": 133.66653300000024,
                    "velocity": 0.7086614173228346,
                    "duration": 0.3333330000000103
                },
                {
                    "name": "G5",
                    "midi": 79,
                    "time": 133.99986600000025,
                    "velocity": 0.7086614173228346,
                    "duration": 0.3333330000000103
                },
                {
                    "name": "A5",
                    "midi": 81,
                    "time": 134.33319900000026,
                    "velocity": 0.7086614173228346,
                    "duration": 0.3333330000000103
                },
                {
                    "name": "A5",
                    "midi": 81,
                    "time": 134.66653200000027,
                    "velocity": 0.7086614173228346,
                    "duration": 0.3333330000000103
                },
                {
                    "name": "A5",
                    "midi": 81,
                    "time": 134.99986500000028,
                    "velocity": 0.7086614173228346,
                    "duration": 0.3333330000000103
                },
                {
                    "name": "A#5",
                    "midi": 82,
                    "time": 135.3331980000003,
                    "velocity": 0.7086614173228346,
                    "duration": 0.3333330000000103
                },
                {
                    "name": "C6",
                    "midi": 84,
                    "time": 135.6665310000003,
                    "velocity": 0.7086614173228346,
                    "duration": 0.3333330000000103
                },
                {
                    "name": "C6",
                    "midi": 84,
                    "time": 135.99986400000031,
                    "velocity": 0.7086614173228346,
                    "duration": 0.3333330000000103
                },
                {
                    "name": "A#5",
                    "midi": 82,
                    "time": 136.33319700000033,
                    "velocity": 0.7086614173228346,
                    "duration": 0.3333330000000103
                },
                {
                    "name": "A5",
                    "midi": 81,
                    "time": 136.66653000000034,
                    "velocity": 0.7086614173228346,
                    "duration": 0.3333330000000103
                },
                {
                    "name": "A#5",
                    "midi": 82,
                    "time": 136.99986300000035,
                    "velocity": 0.7086614173228346,
                    "duration": 0.3333330000000103
                },
                {
                    "name": "D6",
                    "midi": 86,
                    "time": 137.33319600000036,
                    "velocity": 0.7086614173228346,
                    "duration": 0.3333330000000103
                },
                {
                    "name": "D6",
                    "midi": 86,
                    "time": 137.66652900000037,
                    "velocity": 0.7086614173228346,
                    "duration": 0.3333330000000103
                },
                {
                    "name": "C6",
                    "midi": 84,
                    "time": 137.99986200000038,
                    "velocity": 0.7086614173228346,
                    "duration": 0.3333330000000103
                },
                {
                    "name": "A#5",
                    "midi": 82,
                    "time": 138.3331950000004,
                    "velocity": 0.7086614173228346,
                    "duration": 0.3333330000000103
                },
                {
                    "name": "A#5",
                    "midi": 82,
                    "time": 138.6665280000004,
                    "velocity": 0.7086614173228346,
                    "duration": 0.3333330000000103
                },
                {
                    "name": "A#5",
                    "midi": 82,
                    "time": 138.9998610000004,
                    "velocity": 0.7086614173228346,
                    "duration": 0.3333330000000103
                },
                {
                    "name": "A5",
                    "midi": 81,
                    "time": 139.33319400000042,
                    "velocity": 0.7086614173228346,
                    "duration": 0.3333330000000103
                },
                {
                    "name": "G5",
                    "midi": 79,
                    "time": 139.66652700000043,
                    "velocity": 0.7086614173228346,
                    "duration": 0.3333330000000103
                },
                {
                    "name": "G5",
                    "midi": 79,
                    "time": 139.99986000000044,
                    "velocity": 0.7086614173228346,
                    "duration": 0.3333330000000103
                },
                {
                    "name": "G5",
                    "midi": 79,
                    "time": 140.33319300000045,
                    "velocity": 0.7086614173228346,
                    "duration": 0.3333330000000103
                },
                {
                    "name": "F5",
                    "midi": 77,
                    "time": 140.66652600000046,
                    "velocity": 0.7086614173228346,
                    "duration": 0.3333330000000103
                },
                {
                    "name": "E5",
                    "midi": 76,
                    "time": 140.99985900000047,
                    "velocity": 0.7086614173228346,
                    "duration": 0.3333330000000103
                },
                {
                    "name": "E5",
                    "midi": 76,
                    "time": 141.33319200000048,
                    "velocity": 0.7086614173228346,
                    "duration": 0.3333330000000103
                },
                {
                    "name": "E5",
                    "midi": 76,
                    "time": 141.6665250000005,
                    "velocity": 0.7086614173228346,
                    "duration": 0.3333330000000103
                },
                {
                    "name": "D5",
                    "midi": 74,
                    "time": 141.9998580000005,
                    "velocity": 0.7086614173228346,
                    "duration": 0.3333330000000103
                },
                {
                    "name": "C#5",
                    "midi": 73,
                    "time": 142.3331910000005,
                    "velocity": 0.7086614173228346,
                    "duration": 0.3333330000000103
                },
                {
                    "name": "D5",
                    "midi": 74,
                    "time": 142.66652400000052,
                    "velocity": 0.7086614173228346,
                    "duration": 0.3333330000000103
                },
                {
                    "name": "C#5",
                    "midi": 73,
                    "time": 142.99985700000053,
                    "velocity": 0.7086614173228346,
                    "duration": 0.3333330000000103
                },
                {
                    "name": "D5",
                    "midi": 74,
                    "time": 143.33319000000054,
                    "velocity": 0.7086614173228346,
                    "duration": 0.3333330000000103
                },
                {
                    "name": "E5",
                    "midi": 76,
                    "time": 143.66652300000055,
                    "velocity": 0.7086614173228346,
                    "duration": 0.3333330000000103
                },
                {
                    "name": "F5",
                    "midi": 77,
                    "time": 143.99985600000056,
                    "velocity": 0.7086614173228346,
                    "duration": 0.3333330000000103
                },
                {
                    "name": "G5",
                    "midi": 79,
                    "time": 144.33318900000057,
                    "velocity": 0.7086614173228346,
                    "duration": 0.3333330000000103
                },
                {
                    "name": "A5",
                    "midi": 81,
                    "time": 144.66652200000058,
                    "velocity": 0.7086614173228346,
                    "duration": 0.3333330000000103
                },
                {
                    "name": "F5",
                    "midi": 77,
                    "time": 144.9998550000006,
                    "velocity": 0.7086614173228346,
                    "duration": 0.9999990000000025
                },
                {
                    "name": "E5",
                    "midi": 76,
                    "time": 145.9998540000006,
                    "velocity": 0.7086614173228346,
                    "duration": 0.3333330000000103
                },
                {
                    "name": "E5",
                    "midi": 76,
                    "time": 146.3331870000006,
                    "velocity": 0.7086614173228346,
                    "duration": 0.9999990000000025
                },
                {
                    "name": "D5",
                    "midi": 74,
                    "time": 147.3331860000006,
                    "velocity": 0.7086614173228346,
                    "duration": 0.3333330000000103
                },
                {
                    "name": "D5",
                    "midi": 74,
                    "time": 147.66651900000062,
                    "velocity": 0.7086614173228346,
                    "duration": 0.3333330000000103
                },
                {
                    "name": "C5",
                    "midi": 72,
                    "time": 147.99985200000063,
                    "velocity": 0.7086614173228346,
                    "duration": 0.3333330000000103
                },
                {
                    "name": "A#4",
                    "midi": 70,
                    "time": 148.33318500000064,
                    "velocity": 0.7086614173228346,
                    "duration": 0.3333330000000103
                },
                {
                    "name": "A4",
                    "midi": 69,
                    "time": 148.66651800000065,
                    "velocity": 0.7086614173228346,
                    "duration": 0.3333330000000103
                },
                {
                    "name": "G4",
                    "midi": 67,
                    "time": 148.99985100000066,
                    "velocity": 0.7086614173228346,
                    "duration": 0.3333330000000103
                },
                {
                    "name": "F4",
                    "midi": 65,
                    "time": 149.33318400000067,
                    "velocity": 0.7086614173228346,
                    "duration": 0.3333330000000103
                },
                {
                    "name": "E4",
                    "midi": 64,
                    "time": 149.66651700000068,
                    "velocity": 0.7086614173228346,
                    "duration": 0.3333330000000103
                },
                {
                    "name": "D4",
                    "midi": 62,
                    "time": 149.9998500000007,
                    "velocity": 0.7086614173228346,
                    "duration": 0.3333330000000103
                },
                {
                    "name": "A#4",
                    "midi": 70,
                    "time": 150.3331830000007,
                    "velocity": 0.7086614173228346,
                    "duration": 0.3333330000000103
                },
                {
                    "name": "A4",
                    "midi": 69,
                    "time": 150.6665160000007,
                    "velocity": 0.7086614173228346,
                    "duration": 0.3333330000000103
                },
                {
                    "name": "G4",
                    "midi": 67,
                    "time": 150.99984900000072,
                    "velocity": 0.7086614173228346,
                    "duration": 0.3333330000000103
                },
                {
                    "name": "F4",
                    "midi": 65,
                    "time": 151.33318200000073,
                    "velocity": 0.7086614173228346,
                    "duration": 0.3333330000000103
                },
                {
                    "name": "E4",
                    "midi": 64,
                    "time": 151.66651500000074,
                    "velocity": 0.7086614173228346,
                    "duration": 0.3333330000000103
                },
                {
                    "name": "D4",
                    "midi": 62,
                    "time": 151.99984800000075,
                    "velocity": 0.7086614173228346,
                    "duration": 0.3333330000000103
                },
                {
                    "name": "C#4",
                    "midi": 61,
                    "time": 152.33318100000076,
                    "velocity": 0.7086614173228346,
                    "duration": 0.3333330000000103
                },
                {
                    "name": "B3",
                    "midi": 59,
                    "time": 152.66651400000077,
                    "velocity": 0.7086614173228346,
                    "duration": 0.3333330000000103
                },
                {
                    "name": "C#4",
                    "midi": 61,
                    "time": 152.99984700000078,
                    "velocity": 0.7086614173228346,
                    "duration": 1.3333320000000128
                },
                {
                    "name": "B3",
                    "midi": 59,
                    "time": 154.6665120000008,
                    "velocity": 0.7086614173228346,
                    "duration": 0.3333330000000103
                },
                {
                    "name": "C#4",
                    "midi": 61,
                    "time": 154.99984500000082,
                    "velocity": 0.7086614173228346,
                    "duration": 0.3333330000000103
                },
                {
                    "name": "C#4",
                    "midi": 61,
                    "time": 155.33317800000083,
                    "velocity": 0.7086614173228346,
                    "duration": 0.3333330000000103
                },
                {
                    "name": "C#4",
                    "midi": 61,
                    "time": 155.66651100000084,
                    "velocity": 0.7086614173228346,
                    "duration": 0.3333330000000103
                },
                {
                    "name": "D4",
                    "midi": 62,
                    "time": 155.99984400000085,
                    "velocity": 0.7086614173228346,
                    "duration": 0.3333330000000103
                },
                {
                    "name": "E4",
                    "midi": 64,
                    "time": 156.33317700000086,
                    "velocity": 0.7086614173228346,
                    "duration": 0.3333330000000103
                },
                {
                    "name": "E4",
                    "midi": 64,
                    "time": 156.66651000000087,
                    "velocity": 0.7086614173228346,
                    "duration": 0.3333330000000103
                },
                {
                    "name": "E4",
                    "midi": 64,
                    "time": 156.99984300000088,
                    "velocity": 0.7086614173228346,
                    "duration": 0.3333330000000103
                },
                {
                    "name": "F4",
                    "midi": 65,
                    "time": 157.3331760000009,
                    "velocity": 0.7086614173228346,
                    "duration": 0.3333330000000103
                },
                {
                    "name": "G4",
                    "midi": 67,
                    "time": 157.6665090000009,
                    "velocity": 0.7086614173228346,
                    "duration": 0.3333330000000103
                },
                {
                    "name": "G4",
                    "midi": 67,
                    "time": 157.9998420000009,
                    "velocity": 0.7086614173228346,
                    "duration": 0.3333330000000103
                },
                {
                    "name": "G4",
                    "midi": 67,
                    "time": 158.33317500000092,
                    "velocity": 0.7086614173228346,
                    "duration": 0.3333330000000103
                },
                {
                    "name": "A4",
                    "midi": 69,
                    "time": 158.66650800000093,
                    "velocity": 0.7086614173228346,
                    "duration": 0.3333330000000103
                },
                {
                    "name": "A#4",
                    "midi": 70,
                    "time": 158.99984100000094,
                    "velocity": 0.7086614173228346,
                    "duration": 0.3333330000000103
                },
                {
                    "name": "A#4",
                    "midi": 70,
                    "time": 159.33317400000095,
                    "velocity": 0.7086614173228346,
                    "duration": 0.3333330000000103
                },
                {
                    "name": "A#4",
                    "midi": 70,
                    "time": 159.66650700000096,
                    "velocity": 0.7086614173228346,
                    "duration": 0.3333330000000103
                },
                {
                    "name": "A#4",
                    "midi": 70,
                    "time": 159.99984000000097,
                    "velocity": 0.7086614173228346,
                    "duration": 0.3333330000000103
                },
                {
                    "name": "A4",
                    "midi": 69,
                    "time": 160.33317300000098,
                    "velocity": 0.7086614173228346,
                    "duration": 0.3333330000000103
                },
                {
                    "name": "G4",
                    "midi": 67,
                    "time": 160.666506000001,
                    "velocity": 0.7086614173228346,
                    "duration": 0.3333330000000103
                },
                {
                    "name": "F4",
                    "midi": 65,
                    "time": 160.999839000001,
                    "velocity": 0.7086614173228346,
                    "duration": 0.3333330000000103
                },
                {
                    "name": "E4",
                    "midi": 64,
                    "time": 161.333172000001,
                    "velocity": 0.7086614173228346,
                    "duration": 0.3333330000000103
                },
                {
                    "name": "D4",
                    "midi": 62,
                    "time": 161.66650500000102,
                    "velocity": 0.7086614173228346,
                    "duration": 0.3333330000000103
                },
                {
                    "name": "E4",
                    "midi": 64,
                    "time": 161.99983800000103,
                    "velocity": 0.7086614173228346,
                    "duration": 0.3333330000000103
                },
                {
                    "name": "F4",
                    "midi": 65,
                    "time": 162.33317100000104,
                    "velocity": 0.7086614173228346,
                    "duration": 0.3333330000000103
                },
                {
                    "name": "G4",
                    "midi": 67,
                    "time": 162.66650400000105,
                    "velocity": 0.7086614173228346,
                    "duration": 0.3333330000000103
                },
                {
                    "name": "A4",
                    "midi": 69,
                    "time": 162.99983700000107,
                    "velocity": 0.7086614173228346,
                    "duration": 0.3333330000000103
                },
                {
                    "name": "B4",
                    "midi": 71,
                    "time": 163.33317000000108,
                    "velocity": 0.7086614173228346,
                    "duration": 0.3333330000000103
                },
                {
                    "name": "C#5",
                    "midi": 73,
                    "time": 163.6665030000011,
                    "velocity": 0.7086614173228346,
                    "duration": 0.3333330000000103
                },
                {
                    "name": "A4",
                    "midi": 69,
                    "time": 163.9998360000011,
                    "velocity": 0.7086614173228346,
                    "duration": 0.3333330000000103
                },
                {
                    "name": "D5",
                    "midi": 74,
                    "time": 164.3331690000011,
                    "velocity": 0.7086614173228346,
                    "duration": 0.3333330000000103
                },
                {
                    "name": "F4",
                    "midi": 65,
                    "time": 164.66650200000112,
                    "velocity": 0.7086614173228346,
                    "duration": 0.3333330000000103
                },
                {
                    "name": "E4",
                    "midi": 64,
                    "time": 164.99983500000113,
                    "velocity": 0.7086614173228346,
                    "duration": 0.9999990000000025
                },
                {
                    "name": "D4",
                    "midi": 62,
                    "time": 165.99983400000113,
                    "velocity": 0.7086614173228346,
                    "duration": 0.3333330000000103
                },
                {
                    "name": "D4",
                    "midi": 62,
                    "time": 166.33316700000114,
                    "velocity": 0.7086614173228346,
                    "duration": 2.6666639999999973
                }
            ],
            "controlChanges": {},
            "id": 2,
            "name": "",
            "instrumentNumber": 68,
            "instrument": "oboe",
            "instrumentFamily": "reed",
            "channelNumber": 2,
            "isPercussion": false
        },
        {
            "startTime": 0,
            "duration": 0,
            "length": 0,
            "notes": [],
            "controlChanges": {},
            "id": 3,
            "name": "",
            "instrumentNumber": 73,
            "instrument": "flute",
            "instrumentFamily": "pipe",
            "channelNumber": 3,
            "isPercussion": false
        },
        {
            "startTime": 1.333332,
            "duration": 168.99983099999977,
            "length": 280,
            "notes": [
                {
                    "name": "D3",
                    "midi": 50,
                    "time": 1.333332,
                    "velocity": 0.7086614173228346,
                    "duration": 0.3333330000000001
                },
                {
                    "name": "D4",
                    "midi": 62,
                    "time": 1.666665,
                    "velocity": 0.7086614173228346,
                    "duration": 0.49999949999999993
                },
                {
                    "name": "D4",
                    "midi": 62,
                    "time": 2.1666645,
                    "velocity": 0.7086614173228346,
                    "duration": 0.16666649999999983
                },
                {
                    "name": "D4",
                    "midi": 62,
                    "time": 2.333331,
                    "velocity": 0.7086614173228346,
                    "duration": 1.333332
                },
                {
                    "name": "D3",
                    "midi": 50,
                    "time": 3.999996,
                    "velocity": 0.7086614173228346,
                    "duration": 0.3333330000000001
                },
                {
                    "name": "D4",
                    "midi": 62,
                    "time": 4.333329,
                    "velocity": 0.7086614173228346,
                    "duration": 0.4999995000000004
                },
                {
                    "name": "D4",
                    "midi": 62,
                    "time": 4.8333285,
                    "velocity": 0.7086614173228346,
                    "duration": 0.16666649999999983
                },
                {
                    "name": "F4",
                    "midi": 65,
                    "time": 4.999995,
                    "velocity": 0.7086614173228346,
                    "duration": 1.3333320000000004
                },
                {
                    "name": "D4",
                    "midi": 62,
                    "time": 6.66666,
                    "velocity": 0.7086614173228346,
                    "duration": 0.33333299999999966
                },
                {
                    "name": "A3",
                    "midi": 57,
                    "time": 6.999993,
                    "velocity": 0.7086614173228346,
                    "duration": 0.4999995000000004
                },
                {
                    "name": "D3",
                    "midi": 50,
                    "time": 7.4999925,
                    "velocity": 0.7086614173228346,
                    "duration": 0.16666649999999983
                },
                {
                    "name": "G3",
                    "midi": 55,
                    "time": 7.666659,
                    "velocity": 0.7086614173228346,
                    "duration": 0.4999995000000004
                },
                {
                    "name": "A#3",
                    "midi": 58,
                    "time": 8.1666585,
                    "velocity": 0.7086614173228346,
                    "duration": 0.16666649999999983
                },
                {
                    "name": "E3",
                    "midi": 52,
                    "time": 8.333325,
                    "velocity": 0.7086614173228346,
                    "duration": 0.4999994999999995
                },
                {
                    "name": "G3",
                    "midi": 55,
                    "time": 8.8333245,
                    "velocity": 0.7086614173228346,
                    "duration": 0.16666649999999983
                },
                {
                    "name": "C#3",
                    "midi": 49,
                    "time": 8.999991,
                    "velocity": 0.7086614173228346,
                    "duration": 0.6666659999999993
                },
                {
                    "name": "A2",
                    "midi": 45,
                    "time": 9.666656999999999,
                    "velocity": 0.7086614173228346,
                    "duration": 0.6666659999999993
                },
                {
                    "name": "D3",
                    "midi": 50,
                    "time": 10.333322999999998,
                    "velocity": 0.7086614173228346,
                    "duration": 0.6666659999999993
                },
                {
                    "name": "D2",
                    "midi": 38,
                    "time": 10.999988999999998,
                    "velocity": 0.7086614173228346,
                    "duration": 0.6666659999999993
                },
                {
                    "name": "A2",
                    "midi": 45,
                    "time": 11.666654999999997,
                    "velocity": 0.7086614173228346,
                    "duration": 1.3333320000000004
                },
                {
                    "name": "A2",
                    "midi": 45,
                    "time": 13.333319999999997,
                    "velocity": 0.7086614173228346,
                    "duration": 0.33333299999999966
                },
                {
                    "name": "A3",
                    "midi": 57,
                    "time": 13.666652999999997,
                    "velocity": 0.7086614173228346,
                    "duration": 0.4999994999999995
                },
                {
                    "name": "A3",
                    "midi": 57,
                    "time": 14.166652499999996,
                    "velocity": 0.7086614173228346,
                    "duration": 0.16666649999999983
                },
                {
                    "name": "A3",
                    "midi": 57,
                    "time": 14.333318999999996,
                    "velocity": 0.7086614173228346,
                    "duration": 0.6666659999999993
                },
                {
                    "name": "G3",
                    "midi": 55,
                    "time": 14.999984999999995,
                    "velocity": 0.7086614173228346,
                    "duration": 0.6666659999999993
                },
                {
                    "name": "F3",
                    "midi": 53,
                    "time": 15.666650999999995,
                    "velocity": 0.7086614173228346,
                    "duration": 0.6666659999999993
                },
                {
                    "name": "D3",
                    "midi": 50,
                    "time": 16.333316999999994,
                    "velocity": 0.7086614173228346,
                    "duration": 0.6666659999999993
                },
                {
                    "name": "E3",
                    "midi": 52,
                    "time": 16.999982999999993,
                    "velocity": 0.7086614173228346,
                    "duration": 0.49999950000000126
                },
                {
                    "name": "E3",
                    "midi": 52,
                    "time": 17.499982499999994,
                    "velocity": 0.7086614173228346,
                    "duration": 0.1666665000000016
                },
                {
                    "name": "E4",
                    "midi": 64,
                    "time": 17.666648999999996,
                    "velocity": 0.7086614173228346,
                    "duration": 0.49999950000000126
                },
                {
                    "name": "E4",
                    "midi": 64,
                    "time": 18.166648499999997,
                    "velocity": 0.7086614173228346,
                    "duration": 0.1666665000000016
                },
                {
                    "name": "E4",
                    "midi": 64,
                    "time": 18.333315,
                    "velocity": 0.7086614173228346,
                    "duration": 0.49999950000000126
                },
                {
                    "name": "E4",
                    "midi": 64,
                    "time": 18.8333145,
                    "velocity": 0.7086614173228346,
                    "duration": 0.05381939062500152
                },
                {
                    "name": "D4",
                    "midi": 62,
                    "time": 18.88887,
                    "velocity": 0.7086614173228346,
                    "duration": 0.05381939062500152
                },
                {
                    "name": "C4",
                    "midi": 60,
                    "time": 18.9444255,
                    "velocity": 0.7086614173228346,
                    "duration": 0.05381939062500152
                },
                {
                    "name": "D4",
                    "midi": 62,
                    "time": 18.999981000000002,
                    "velocity": 0.7086614173228346,
                    "duration": 1.1666655000000006
                },
                {
                    "name": "D4",
                    "midi": 62,
                    "time": 20.166646500000002,
                    "velocity": 0.7086614173228346,
                    "duration": 0.05381939062500152
                },
                {
                    "name": "C4",
                    "midi": 60,
                    "time": 20.222202000000003,
                    "velocity": 0.7086614173228346,
                    "duration": 0.05381939062500152
                },
                {
                    "name": "B3",
                    "midi": 59,
                    "time": 20.277757500000003,
                    "velocity": 0.7086614173228346,
                    "duration": 0.05381939062500152
                },
                {
                    "name": "C4",
                    "midi": 60,
                    "time": 20.333313000000004,
                    "velocity": 0.7086614173228346,
                    "duration": 0.49999950000000126
                },
                {
                    "name": "C4",
                    "midi": 60,
                    "time": 20.833312500000005,
                    "velocity": 0.7086614173228346,
                    "duration": 0.05381939062500152
                },
                {
                    "name": "D4",
                    "midi": 62,
                    "time": 20.888868000000006,
                    "velocity": 0.7086614173228346,
                    "duration": 0.05381939062500152
                },
                {
                    "name": "C4",
                    "midi": 60,
                    "time": 20.944423500000006,
                    "velocity": 0.7086614173228346,
                    "duration": 0.05381939062500152
                },
                {
                    "name": "B3",
                    "midi": 59,
                    "time": 20.999979000000007,
                    "velocity": 0.7086614173228346,
                    "duration": 0.6666659999999993
                },
                {
                    "name": "E4",
                    "midi": 64,
                    "time": 21.666645000000006,
                    "velocity": 0.7086614173228346,
                    "duration": 0.6666659999999993
                },
                {
                    "name": "A3",
                    "midi": 57,
                    "time": 22.333311000000005,
                    "velocity": 0.7086614173228346,
                    "duration": 0.49999950000000126
                },
                {
                    "name": "A2",
                    "midi": 45,
                    "time": 22.833310500000007,
                    "velocity": 0.7086614173228346,
                    "duration": 0.1666665000000016
                },
                {
                    "name": "D3",
                    "midi": 50,
                    "time": 22.99997700000001,
                    "velocity": 0.7086614173228346,
                    "duration": 0.49999950000000126
                },
                {
                    "name": "D3",
                    "midi": 50,
                    "time": 23.49997650000001,
                    "velocity": 0.7086614173228346,
                    "duration": 0.1666665000000016
                },
                {
                    "name": "D3",
                    "midi": 50,
                    "time": 23.66664300000001,
                    "velocity": 0.7086614173228346,
                    "duration": 1.3333319999999986
                },
                {
                    "name": "D3",
                    "midi": 50,
                    "time": 25.33330800000001,
                    "velocity": 0.7086614173228346,
                    "duration": 0.33333299999999966
                },
                {
                    "name": "B3",
                    "midi": 59,
                    "time": 25.66664100000001,
                    "velocity": 0.7086614173228346,
                    "duration": 0.49999950000000126
                },
                {
                    "name": "B3",
                    "midi": 59,
                    "time": 26.16664050000001,
                    "velocity": 0.7086614173228346,
                    "duration": 0.1666665000000016
                },
                {
                    "name": "D4",
                    "midi": 62,
                    "time": 26.333307000000012,
                    "velocity": 0.7086614173228346,
                    "duration": 1.3333319999999986
                },
                {
                    "name": "D3",
                    "midi": 50,
                    "time": 27.99997200000001,
                    "velocity": 0.7086614173228346,
                    "duration": 0.33333299999999966
                },
                {
                    "name": "B3",
                    "midi": 59,
                    "time": 28.33330500000001,
                    "velocity": 0.7086614173228346,
                    "duration": 0.49999950000000126
                },
                {
                    "name": "B3",
                    "midi": 59,
                    "time": 28.83330450000001,
                    "velocity": 0.7086614173228346,
                    "duration": 0.1666665000000016
                },
                {
                    "name": "G#2",
                    "midi": 44,
                    "time": 28.999971000000013,
                    "velocity": 0.7086614173228346,
                    "duration": 1.3333319999999986
                },
                {
                    "name": "E3",
                    "midi": 52,
                    "time": 30.66663600000001,
                    "velocity": 0.7086614173228346,
                    "duration": 0.33333299999999966
                },
                {
                    "name": "E3",
                    "midi": 52,
                    "time": 30.99996900000001,
                    "velocity": 0.7086614173228346,
                    "duration": 0.49999950000000126
                },
                {
                    "name": "F#3",
                    "midi": 54,
                    "time": 31.499968500000012,
                    "velocity": 0.7086614173228346,
                    "duration": 0.1666665000000016
                },
                {
                    "name": "G#3",
                    "midi": 56,
                    "time": 31.666635000000014,
                    "velocity": 0.7086614173228346,
                    "duration": 0.49999950000000126
                },
                {
                    "name": "A3",
                    "midi": 57,
                    "time": 32.166634500000015,
                    "velocity": 0.7086614173228346,
                    "duration": 0.16666649999999805
                },
                {
                    "name": "B3",
                    "midi": 59,
                    "time": 32.33330100000001,
                    "velocity": 0.7086614173228346,
                    "duration": 0.49999950000000126
                },
                {
                    "name": "G#3",
                    "midi": 56,
                    "time": 32.833300500000014,
                    "velocity": 0.7086614173228346,
                    "duration": 0.16666649999999805
                },
                {
                    "name": "A3",
                    "midi": 57,
                    "time": 32.99996700000001,
                    "velocity": 0.7086614173228346,
                    "duration": 0.6666659999999993
                },
                {
                    "name": "C3",
                    "midi": 48,
                    "time": 33.66663300000001,
                    "velocity": 0.7086614173228346,
                    "duration": 0.49999950000000126
                },
                {
                    "name": "D3",
                    "midi": 50,
                    "time": 34.16663250000001,
                    "velocity": 0.7086614173228346,
                    "duration": 0.16666649999999805
                },
                {
                    "name": "E3",
                    "midi": 52,
                    "time": 34.33329900000001,
                    "velocity": 0.7086614173228346,
                    "duration": 0.6666659999999993
                },
                {
                    "name": "E2",
                    "midi": 40,
                    "time": 34.99996500000001,
                    "velocity": 0.7086614173228346,
                    "duration": 0.6666659999999993
                },
                {
                    "name": "A2",
                    "midi": 45,
                    "time": 35.66663100000001,
                    "velocity": 0.7086614173228346,
                    "duration": 0.49999950000000126
                },
                {
                    "name": "A3",
                    "midi": 57,
                    "time": 36.16663050000001,
                    "velocity": 0.7086614173228346,
                    "duration": 0.16666649999999805
                },
                {
                    "name": "A2",
                    "midi": 45,
                    "time": 36.33329700000001,
                    "velocity": 0.7086614173228346,
                    "duration": 0.49999950000000126
                },
                {
                    "name": "A2",
                    "midi": 45,
                    "time": 36.83329650000001,
                    "velocity": 0.7086614173228346,
                    "duration": 0.16666649999999805
                },
                {
                    "name": "D2",
                    "midi": 38,
                    "time": 36.99996300000001,
                    "velocity": 0.7086614173228346,
                    "duration": 1.3333319999999986
                },
                {
                    "name": "A2",
                    "midi": 45,
                    "time": 38.33329500000001,
                    "velocity": 0.7086614173228346,
                    "duration": 2.6666639999999973
                },
                {
                    "name": "A3",
                    "midi": 57,
                    "time": 51.999948,
                    "velocity": 0.7086614173228346,
                    "duration": 0.3333330000000032
                },
                {
                    "name": "A3",
                    "midi": 57,
                    "time": 52.33328100000001,
                    "velocity": 0.7086614173228346,
                    "duration": 0.3333330000000032
                },
                {
                    "name": "B3",
                    "midi": 59,
                    "time": 52.66661400000001,
                    "velocity": 0.7086614173228346,
                    "duration": 0.3333330000000032
                },
                {
                    "name": "C#4",
                    "midi": 61,
                    "time": 52.99994700000001,
                    "velocity": 0.7086614173228346,
                    "duration": 0.3333330000000032
                },
                {
                    "name": "C#4",
                    "midi": 61,
                    "time": 53.333280000000016,
                    "velocity": 0.7086614173228346,
                    "duration": 0.3333330000000032
                },
                {
                    "name": "C#4",
                    "midi": 61,
                    "time": 53.66661300000002,
                    "velocity": 0.7086614173228346,
                    "duration": 0.3333330000000032
                },
                {
                    "name": "D4",
                    "midi": 62,
                    "time": 53.99994600000002,
                    "velocity": 0.7086614173228346,
                    "duration": 0.3333330000000032
                },
                {
                    "name": "E4",
                    "midi": 64,
                    "time": 54.333279000000026,
                    "velocity": 0.7086614173228346,
                    "duration": 0.3333330000000032
                },
                {
                    "name": "E4",
                    "midi": 64,
                    "time": 54.66661200000003,
                    "velocity": 0.7086614173228346,
                    "duration": 0.3333330000000032
                },
                {
                    "name": "E4",
                    "midi": 64,
                    "time": 54.99994500000003,
                    "velocity": 0.7086614173228346,
                    "duration": 0.3333330000000032
                },
                {
                    "name": "F4",
                    "midi": 65,
                    "time": 55.333278000000035,
                    "velocity": 0.7086614173228346,
                    "duration": 0.3333330000000032
                },
                {
                    "name": "G4",
                    "midi": 67,
                    "time": 55.66661100000004,
                    "velocity": 0.7086614173228346,
                    "duration": 0.3333330000000032
                },
                {
                    "name": "G4",
                    "midi": 67,
                    "time": 55.99994400000004,
                    "velocity": 0.7086614173228346,
                    "duration": 0.3333330000000032
                },
                {
                    "name": "F4",
                    "midi": 65,
                    "time": 56.333277000000045,
                    "velocity": 0.7086614173228346,
                    "duration": 0.3333330000000032
                },
                {
                    "name": "E4",
                    "midi": 64,
                    "time": 56.66661000000005,
                    "velocity": 0.7086614173228346,
                    "duration": 0.3333330000000032
                },
                {
                    "name": "F4",
                    "midi": 65,
                    "time": 56.99994300000005,
                    "velocity": 0.7086614173228346,
                    "duration": 0.3333330000000032
                },
                {
                    "name": "D4",
                    "midi": 62,
                    "time": 57.333276000000055,
                    "velocity": 0.7086614173228346,
                    "duration": 0.3333330000000032
                },
                {
                    "name": "D4",
                    "midi": 62,
                    "time": 57.66660900000006,
                    "velocity": 0.7086614173228346,
                    "duration": 0.3333330000000032
                },
                {
                    "name": "C4",
                    "midi": 60,
                    "time": 57.99994200000006,
                    "velocity": 0.7086614173228346,
                    "duration": 0.3333330000000032
                },
                {
                    "name": "A#3",
                    "midi": 58,
                    "time": 58.333275000000064,
                    "velocity": 0.7086614173228346,
                    "duration": 0.3333330000000032
                },
                {
                    "name": "A#3",
                    "midi": 58,
                    "time": 58.66660800000007,
                    "velocity": 0.7086614173228346,
                    "duration": 0.3333330000000032
                },
                {
                    "name": "A#3",
                    "midi": 58,
                    "time": 58.99994100000007,
                    "velocity": 0.7086614173228346,
                    "duration": 0.3333330000000032
                },
                {
                    "name": "A3",
                    "midi": 57,
                    "time": 59.333274000000074,
                    "velocity": 0.7086614173228346,
                    "duration": 0.3333330000000032
                },
                {
                    "name": "G3",
                    "midi": 55,
                    "time": 59.66660700000008,
                    "velocity": 0.7086614173228346,
                    "duration": 0.3333330000000032
                },
                {
                    "name": "G3",
                    "midi": 55,
                    "time": 59.99994000000008,
                    "velocity": 0.7086614173228346,
                    "duration": 0.3333330000000032
                },
                {
                    "name": "G3",
                    "midi": 55,
                    "time": 60.333273000000084,
                    "velocity": 0.7086614173228346,
                    "duration": 0.3333330000000032
                },
                {
                    "name": "F3",
                    "midi": 53,
                    "time": 60.66660600000009,
                    "velocity": 0.7086614173228346,
                    "duration": 0.3333330000000032
                },
                {
                    "name": "E3",
                    "midi": 52,
                    "time": 60.99993900000009,
                    "velocity": 0.7086614173228346,
                    "duration": 0.3333330000000032
                },
                {
                    "name": "E3",
                    "midi": 52,
                    "time": 61.33327200000009,
                    "velocity": 0.7086614173228346,
                    "duration": 0.3333330000000032
                },
                {
                    "name": "E3",
                    "midi": 52,
                    "time": 61.6666050000001,
                    "velocity": 0.7086614173228346,
                    "duration": 0.3333330000000032
                },
                {
                    "name": "D3",
                    "midi": 50,
                    "time": 61.9999380000001,
                    "velocity": 0.7086614173228346,
                    "duration": 0.3333330000000032
                },
                {
                    "name": "C#3",
                    "midi": 49,
                    "time": 62.3332710000001,
                    "velocity": 0.7086614173228346,
                    "duration": 0.6666659999999993
                },
                {
                    "name": "A2",
                    "midi": 45,
                    "time": 62.9999370000001,
                    "velocity": 0.7086614173228346,
                    "duration": 0.6666659999999993
                },
                {
                    "name": "D3",
                    "midi": 50,
                    "time": 63.6666030000001,
                    "velocity": 0.7086614173228346,
                    "duration": 0.6666659999999993
                },
                {
                    "name": "D2",
                    "midi": 38,
                    "time": 64.3332690000001,
                    "velocity": 0.7086614173228346,
                    "duration": 0.6666660000000064
                },
                {
                    "name": "A2",
                    "midi": 45,
                    "time": 64.99993500000011,
                    "velocity": 0.7086614173228346,
                    "duration": 0.3333329999999961
                },
                {
                    "name": "A3",
                    "midi": 57,
                    "time": 65.3332680000001,
                    "velocity": 0.7086614173228346,
                    "duration": 0.3333329999999961
                },
                {
                    "name": "A3",
                    "midi": 57,
                    "time": 65.6666010000001,
                    "velocity": 0.7086614173228346,
                    "duration": 0.3333329999999961
                },
                {
                    "name": "G3",
                    "midi": 55,
                    "time": 65.9999340000001,
                    "velocity": 0.7086614173228346,
                    "duration": 0.3333329999999961
                },
                {
                    "name": "F#3",
                    "midi": 54,
                    "time": 66.33326700000009,
                    "velocity": 0.7086614173228346,
                    "duration": 0.3333329999999961
                },
                {
                    "name": "F#3",
                    "midi": 54,
                    "time": 66.66660000000009,
                    "velocity": 0.7086614173228346,
                    "duration": 0.3333329999999961
                },
                {
                    "name": "F#3",
                    "midi": 54,
                    "time": 66.99993300000008,
                    "velocity": 0.7086614173228346,
                    "duration": 0.3333329999999961
                },
                {
                    "name": "E3",
                    "midi": 52,
                    "time": 67.33326600000008,
                    "velocity": 0.7086614173228346,
                    "duration": 0.3333329999999961
                },
                {
                    "name": "D3",
                    "midi": 50,
                    "time": 67.66659900000008,
                    "velocity": 0.7086614173228346,
                    "duration": 0.3333329999999961
                },
                {
                    "name": "D3",
                    "midi": 50,
                    "time": 67.99993200000007,
                    "velocity": 0.7086614173228346,
                    "duration": 0.3333329999999961
                },
                {
                    "name": "D3",
                    "midi": 50,
                    "time": 68.33326500000007,
                    "velocity": 0.7086614173228346,
                    "duration": 0.3333329999999961
                },
                {
                    "name": "C3",
                    "midi": 48,
                    "time": 68.66659800000006,
                    "velocity": 0.7086614173228346,
                    "duration": 0.3333329999999961
                },
                {
                    "name": "A#2",
                    "midi": 46,
                    "time": 68.99993100000006,
                    "velocity": 0.7086614173228346,
                    "duration": 0.3333329999999961
                },
                {
                    "name": "A#2",
                    "midi": 46,
                    "time": 69.33326400000006,
                    "velocity": 0.7086614173228346,
                    "duration": 0.3333329999999961
                },
                {
                    "name": "A#2",
                    "midi": 46,
                    "time": 69.66659700000005,
                    "velocity": 0.7086614173228346,
                    "duration": 0.3333329999999961
                },
                {
                    "name": "A2",
                    "midi": 45,
                    "time": 69.99993000000005,
                    "velocity": 0.7086614173228346,
                    "duration": 0.3333329999999961
                },
                {
                    "name": "G2",
                    "midi": 43,
                    "time": 70.33326300000004,
                    "velocity": 0.7086614173228346,
                    "duration": 0.3333329999999961
                },
                {
                    "name": "G3",
                    "midi": 55,
                    "time": 70.66659600000004,
                    "velocity": 0.7086614173228346,
                    "duration": 0.3333329999999961
                },
                {
                    "name": "G3",
                    "midi": 55,
                    "time": 70.99992900000004,
                    "velocity": 0.7086614173228346,
                    "duration": 0.3333329999999961
                },
                {
                    "name": "F3",
                    "midi": 53,
                    "time": 71.33326200000003,
                    "velocity": 0.7086614173228346,
                    "duration": 0.3333329999999961
                },
                {
                    "name": "E3",
                    "midi": 52,
                    "time": 71.66659500000003,
                    "velocity": 0.7086614173228346,
                    "duration": 0.3333329999999961
                },
                {
                    "name": "E3",
                    "midi": 52,
                    "time": 71.99992800000003,
                    "velocity": 0.7086614173228346,
                    "duration": 0.3333329999999961
                },
                {
                    "name": "E3",
                    "midi": 52,
                    "time": 72.33326100000002,
                    "velocity": 0.7086614173228346,
                    "duration": 0.3333329999999961
                },
                {
                    "name": "D3",
                    "midi": 50,
                    "time": 72.66659400000002,
                    "velocity": 0.7086614173228346,
                    "duration": 0.3333329999999961
                },
                {
                    "name": "C3",
                    "midi": 48,
                    "time": 72.99992700000001,
                    "velocity": 0.7086614173228346,
                    "duration": 0.3333329999999961
                },
                {
                    "name": "C3",
                    "midi": 48,
                    "time": 73.33326000000001,
                    "velocity": 0.7086614173228346,
                    "duration": 0.3333329999999961
                },
                {
                    "name": "C3",
                    "midi": 48,
                    "time": 73.666593,
                    "velocity": 0.7086614173228346,
                    "duration": 0.3333329999999961
                },
                {
                    "name": "A#2",
                    "midi": 46,
                    "time": 73.999926,
                    "velocity": 0.7086614173228346,
                    "duration": 0.3333329999999961
                },
                {
                    "name": "A2",
                    "midi": 45,
                    "time": 74.333259,
                    "velocity": 0.7086614173228346,
                    "duration": 0.3333329999999961
                },
                {
                    "name": "A2",
                    "midi": 45,
                    "time": 74.666592,
                    "velocity": 0.7086614173228346,
                    "duration": 0.3333329999999961
                },
                {
                    "name": "A2",
                    "midi": 45,
                    "time": 74.99992499999999,
                    "velocity": 0.7086614173228346,
                    "duration": 0.3333329999999961
                },
                {
                    "name": "G2",
                    "midi": 43,
                    "time": 75.33325799999999,
                    "velocity": 0.7086614173228346,
                    "duration": 0.3333329999999961
                },
                {
                    "name": "F2",
                    "midi": 41,
                    "time": 75.66659099999998,
                    "velocity": 0.7086614173228346,
                    "duration": 0.3333329999999961
                },
                {
                    "name": "F3",
                    "midi": 53,
                    "time": 75.99992399999998,
                    "velocity": 0.7086614173228346,
                    "duration": 0.3333329999999961
                },
                {
                    "name": "F3",
                    "midi": 53,
                    "time": 76.33325699999997,
                    "velocity": 0.7086614173228346,
                    "duration": 0.3333329999999961
                },
                {
                    "name": "D#3",
                    "midi": 51,
                    "time": 76.66658999999997,
                    "velocity": 0.7086614173228346,
                    "duration": 0.3333329999999961
                },
                {
                    "name": "D3",
                    "midi": 50,
                    "time": 76.99992299999997,
                    "velocity": 0.7086614173228346,
                    "duration": 0.3333329999999961
                },
                {
                    "name": "D3",
                    "midi": 50,
                    "time": 77.33325599999996,
                    "velocity": 0.7086614173228346,
                    "duration": 0.3333329999999961
                },
                {
                    "name": "D3",
                    "midi": 50,
                    "time": 77.66658899999996,
                    "velocity": 0.7086614173228346,
                    "duration": 0.3333329999999961
                },
                {
                    "name": "C3",
                    "midi": 48,
                    "time": 77.99992199999996,
                    "velocity": 0.7086614173228346,
                    "duration": 0.3333329999999961
                },
                {
                    "name": "A#2",
                    "midi": 46,
                    "time": 78.33325499999995,
                    "velocity": 0.7086614173228346,
                    "duration": 0.3333329999999961
                },
                {
                    "name": "A#2",
                    "midi": 46,
                    "time": 78.66658799999995,
                    "velocity": 0.7086614173228346,
                    "duration": 0.3333329999999961
                },
                {
                    "name": "A#2",
                    "midi": 46,
                    "time": 78.99992099999994,
                    "velocity": 0.7086614173228346,
                    "duration": 0.3333329999999961
                },
                {
                    "name": "A2",
                    "midi": 45,
                    "time": 79.33325399999994,
                    "velocity": 0.7086614173228346,
                    "duration": 0.3333329999999961
                },
                {
                    "name": "G2",
                    "midi": 43,
                    "time": 79.66658699999994,
                    "velocity": 0.7086614173228346,
                    "duration": 0.3333329999999961
                },
                {
                    "name": "G2",
                    "midi": 43,
                    "time": 79.99991999999993,
                    "velocity": 0.7086614173228346,
                    "duration": 0.3333329999999961
                },
                {
                    "name": "G2",
                    "midi": 43,
                    "time": 80.33325299999993,
                    "velocity": 0.7086614173228346,
                    "duration": 0.3333329999999961
                },
                {
                    "name": "F2",
                    "midi": 41,
                    "time": 80.66658599999992,
                    "velocity": 0.7086614173228346,
                    "duration": 0.3333329999999961
                },
                {
                    "name": "C3",
                    "midi": 48,
                    "time": 80.99991899999992,
                    "velocity": 0.7086614173228346,
                    "duration": 0.6666660000000064
                },
                {
                    "name": "F2",
                    "midi": 41,
                    "time": 86.66657999999993,
                    "velocity": 0.7086614173228346,
                    "duration": 0.3333329999999961
                },
                {
                    "name": "F2",
                    "midi": 41,
                    "time": 86.99991299999992,
                    "velocity": 0.7086614173228346,
                    "duration": 0.3333329999999961
                },
                {
                    "name": "G2",
                    "midi": 43,
                    "time": 87.33324599999992,
                    "velocity": 0.7086614173228346,
                    "duration": 0.3333329999999961
                },
                {
                    "name": "A2",
                    "midi": 45,
                    "time": 87.66657899999991,
                    "velocity": 0.7086614173228346,
                    "duration": 0.3333329999999961
                },
                {
                    "name": "A2",
                    "midi": 45,
                    "time": 87.99991199999991,
                    "velocity": 0.7086614173228346,
                    "duration": 0.3333329999999961
                },
                {
                    "name": "A2",
                    "midi": 45,
                    "time": 88.3332449999999,
                    "velocity": 0.7086614173228346,
                    "duration": 0.3333329999999961
                },
                {
                    "name": "F2",
                    "midi": 41,
                    "time": 88.6665779999999,
                    "velocity": 0.7086614173228346,
                    "duration": 0.3333329999999961
                },
                {
                    "name": "A#2",
                    "midi": 46,
                    "time": 88.9999109999999,
                    "velocity": 0.7086614173228346,
                    "duration": 0.3333329999999961
                },
                {
                    "name": "A#2",
                    "midi": 46,
                    "time": 89.3332439999999,
                    "velocity": 0.7086614173228346,
                    "duration": 0.3333329999999961
                },
                {
                    "name": "A#2",
                    "midi": 46,
                    "time": 89.66657699999989,
                    "velocity": 0.7086614173228346,
                    "duration": 0.3333329999999961
                },
                {
                    "name": "C3",
                    "midi": 48,
                    "time": 89.99990999999989,
                    "velocity": 0.7086614173228346,
                    "duration": 0.3333329999999961
                },
                {
                    "name": "D3",
                    "midi": 50,
                    "time": 90.33324299999988,
                    "velocity": 0.7086614173228346,
                    "duration": 0.3333329999999961
                },
                {
                    "name": "D3",
                    "midi": 50,
                    "time": 90.66657599999988,
                    "velocity": 0.7086614173228346,
                    "duration": 0.3333329999999961
                },
                {
                    "name": "E3",
                    "midi": 52,
                    "time": 90.99990899999987,
                    "velocity": 0.7086614173228346,
                    "duration": 0.3333329999999961
                },
                {
                    "name": "F3",
                    "midi": 53,
                    "time": 91.33324199999987,
                    "velocity": 0.7086614173228346,
                    "duration": 0.3333329999999961
                },
                {
                    "name": "E3",
                    "midi": 52,
                    "time": 91.66657499999987,
                    "velocity": 0.7086614173228346,
                    "duration": 0.3333329999999961
                },
                {
                    "name": "C3",
                    "midi": 48,
                    "time": 91.99990799999986,
                    "velocity": 0.7086614173228346,
                    "duration": 0.3333329999999961
                },
                {
                    "name": "F3",
                    "midi": 53,
                    "time": 92.33324099999986,
                    "velocity": 0.7086614173228346,
                    "duration": 0.3333329999999961
                },
                {
                    "name": "A#2",
                    "midi": 46,
                    "time": 92.66657399999986,
                    "velocity": 0.7086614173228346,
                    "duration": 0.3333329999999961
                },
                {
                    "name": "C3",
                    "midi": 48,
                    "time": 92.99990699999985,
                    "velocity": 0.7086614173228346,
                    "duration": 0.6666660000000064
                },
                {
                    "name": "C2",
                    "midi": 36,
                    "time": 93.66657299999986,
                    "velocity": 0.7086614173228346,
                    "duration": 0.6666660000000064
                },
                {
                    "name": "F2",
                    "midi": 41,
                    "time": 94.33323899999986,
                    "velocity": 0.7086614173228346,
                    "duration": 0.3333329999999961
                },
                {
                    "name": "F3",
                    "midi": 53,
                    "time": 94.66657199999986,
                    "velocity": 0.7086614173228346,
                    "duration": 0.3333329999999961
                },
                {
                    "name": "F3",
                    "midi": 53,
                    "time": 94.99990499999986,
                    "velocity": 0.7086614173228346,
                    "duration": 0.3333329999999961
                },
                {
                    "name": "G3",
                    "midi": 55,
                    "time": 95.33323799999985,
                    "velocity": 0.7086614173228346,
                    "duration": 0.3333329999999961
                },
                {
                    "name": "A3",
                    "midi": 57,
                    "time": 95.66657099999985,
                    "velocity": 0.7086614173228346,
                    "duration": 0.3333329999999961
                },
                {
                    "name": "A3",
                    "midi": 57,
                    "time": 95.99990399999984,
                    "velocity": 0.7086614173228346,
                    "duration": 0.3333329999999961
                },
                {
                    "name": "A3",
                    "midi": 57,
                    "time": 96.33323699999984,
                    "velocity": 0.7086614173228346,
                    "duration": 0.3333329999999961
                },
                {
                    "name": "A#3",
                    "midi": 58,
                    "time": 96.66656999999984,
                    "velocity": 0.7086614173228346,
                    "duration": 0.3333329999999961
                },
                {
                    "name": "C4",
                    "midi": 60,
                    "time": 96.99990299999983,
                    "velocity": 0.7086614173228346,
                    "duration": 0.3333329999999961
                },
                {
                    "name": "C3",
                    "midi": 48,
                    "time": 97.33323599999983,
                    "velocity": 0.7086614173228346,
                    "duration": 0.3333329999999961
                },
                {
                    "name": "C3",
                    "midi": 48,
                    "time": 97.66656899999982,
                    "velocity": 0.7086614173228346,
                    "duration": 0.3333329999999961
                },
                {
                    "name": "C3",
                    "midi": 48,
                    "time": 97.99990199999982,
                    "velocity": 0.7086614173228346,
                    "duration": 0.3333329999999961
                },
                {
                    "name": "A#2",
                    "midi": 46,
                    "time": 98.33323499999982,
                    "velocity": 0.7086614173228346,
                    "duration": 0.3333329999999961
                },
                {
                    "name": "A#2",
                    "midi": 46,
                    "time": 98.66656799999981,
                    "velocity": 0.7086614173228346,
                    "duration": 0.3333329999999961
                },
                {
                    "name": "A#2",
                    "midi": 46,
                    "time": 98.99990099999981,
                    "velocity": 0.7086614173228346,
                    "duration": 0.3333329999999961
                },
                {
                    "name": "A2",
                    "midi": 45,
                    "time": 99.3332339999998,
                    "velocity": 0.7086614173228346,
                    "duration": 0.3333329999999961
                },
                {
                    "name": "G2",
                    "midi": 43,
                    "time": 99.6665669999998,
                    "velocity": 0.7086614173228346,
                    "duration": 0.3333329999999961
                },
                {
                    "name": "G3",
                    "midi": 55,
                    "time": 99.9998999999998,
                    "velocity": 0.7086614173228346,
                    "duration": 0.3333329999999961
                },
                {
                    "name": "G3",
                    "midi": 55,
                    "time": 100.3332329999998,
                    "velocity": 0.7086614173228346,
                    "duration": 0.3333329999999961
                },
                {
                    "name": "A3",
                    "midi": 57,
                    "time": 100.66656599999979,
                    "velocity": 0.7086614173228346,
                    "duration": 0.3333329999999961
                },
                {
                    "name": "A#3",
                    "midi": 58,
                    "time": 100.99989899999979,
                    "velocity": 0.7086614173228346,
                    "duration": 0.3333329999999961
                },
                {
                    "name": "A#3",
                    "midi": 58,
                    "time": 101.33323199999978,
                    "velocity": 0.7086614173228346,
                    "duration": 0.3333329999999961
                },
                {
                    "name": "A#3",
                    "midi": 58,
                    "time": 101.66656499999978,
                    "velocity": 0.7086614173228346,
                    "duration": 0.3333329999999961
                },
                {
                    "name": "C4",
                    "midi": 60,
                    "time": 101.99989799999977,
                    "velocity": 0.7086614173228346,
                    "duration": 0.3333329999999961
                },
                {
                    "name": "D4",
                    "midi": 62,
                    "time": 102.33323099999977,
                    "velocity": 0.7086614173228346,
                    "duration": 0.3333329999999961
                },
                {
                    "name": "D3",
                    "midi": 50,
                    "time": 102.66656399999977,
                    "velocity": 0.7086614173228346,
                    "duration": 0.3333329999999961
                },
                {
                    "name": "D3",
                    "midi": 50,
                    "time": 102.99989699999976,
                    "velocity": 0.7086614173228346,
                    "duration": 0.3333329999999961
                },
                {
                    "name": "C3",
                    "midi": 48,
                    "time": 103.33322999999976,
                    "velocity": 0.7086614173228346,
                    "duration": 0.3333329999999961
                },
                {
                    "name": "A#2",
                    "midi": 46,
                    "time": 103.66656299999975,
                    "velocity": 0.7086614173228346,
                    "duration": 0.3333329999999961
                },
                {
                    "name": "A#2",
                    "midi": 46,
                    "time": 103.99989599999975,
                    "velocity": 0.7086614173228346,
                    "duration": 0.3333329999999961
                },
                {
                    "name": "A#2",
                    "midi": 46,
                    "time": 104.33322899999975,
                    "velocity": 0.7086614173228346,
                    "duration": 0.3333329999999961
                },
                {
                    "name": "G2",
                    "midi": 43,
                    "time": 104.66656199999974,
                    "velocity": 0.7086614173228346,
                    "duration": 0.3333329999999961
                },
                {
                    "name": "A2",
                    "midi": 45,
                    "time": 104.99989499999974,
                    "velocity": 0.7086614173228346,
                    "duration": 1.3333319999999986
                },
                {
                    "name": "A2",
                    "midi": 45,
                    "time": 113.33321999999974,
                    "velocity": 0.7086614173228346,
                    "duration": 0.3333329999999961
                },
                {
                    "name": "A2",
                    "midi": 45,
                    "time": 113.66655299999974,
                    "velocity": 0.7086614173228346,
                    "duration": 0.3333329999999961
                },
                {
                    "name": "B2",
                    "midi": 47,
                    "time": 113.99988599999973,
                    "velocity": 0.7086614173228346,
                    "duration": 0.3333329999999961
                },
                {
                    "name": "C#3",
                    "midi": 49,
                    "time": 114.33321899999973,
                    "velocity": 0.7086614173228346,
                    "duration": 0.3333329999999961
                },
                {
                    "name": "C#3",
                    "midi": 49,
                    "time": 114.66655199999973,
                    "velocity": 0.7086614173228346,
                    "duration": 0.3333329999999961
                },
                {
                    "name": "C#3",
                    "midi": 49,
                    "time": 114.99988499999972,
                    "velocity": 0.7086614173228346,
                    "duration": 0.3333329999999961
                },
                {
                    "name": "D3",
                    "midi": 50,
                    "time": 115.33321799999972,
                    "velocity": 0.7086614173228346,
                    "duration": 0.3333329999999961
                },
                {
                    "name": "E3",
                    "midi": 52,
                    "time": 115.66655099999971,
                    "velocity": 0.7086614173228346,
                    "duration": 0.3333329999999961
                },
                {
                    "name": "E3",
                    "midi": 52,
                    "time": 115.99988399999971,
                    "velocity": 0.7086614173228346,
                    "duration": 0.3333329999999961
                },
                {
                    "name": "E3",
                    "midi": 52,
                    "time": 116.3332169999997,
                    "velocity": 0.7086614173228346,
                    "duration": 0.3333329999999961
                },
                {
                    "name": "F3",
                    "midi": 53,
                    "time": 116.6665499999997,
                    "velocity": 0.7086614173228346,
                    "duration": 0.3333329999999961
                },
                {
                    "name": "G3",
                    "midi": 55,
                    "time": 116.9998829999997,
                    "velocity": 0.7086614173228346,
                    "duration": 0.3333329999999961
                },
                {
                    "name": "G3",
                    "midi": 55,
                    "time": 117.3332159999997,
                    "velocity": 0.7086614173228346,
                    "duration": 0.3333329999999961
                },
                {
                    "name": "F3",
                    "midi": 53,
                    "time": 117.66654899999969,
                    "velocity": 0.7086614173228346,
                    "duration": 0.3333329999999961
                },
                {
                    "name": "E3",
                    "midi": 52,
                    "time": 117.99988199999969,
                    "velocity": 0.7086614173228346,
                    "duration": 0.3333329999999961
                },
                {
                    "name": "F3",
                    "midi": 53,
                    "time": 118.33321499999968,
                    "velocity": 0.7086614173228346,
                    "duration": 1.3333319999999986
                },
                {
                    "name": "F3",
                    "midi": 53,
                    "time": 119.99987999999968,
                    "velocity": 0.7086614173228346,
                    "duration": 0.3333329999999961
                },
                {
                    "name": "E3",
                    "midi": 52,
                    "time": 120.33321299999967,
                    "velocity": 0.7086614173228346,
                    "duration": 0.3333329999999961
                },
                {
                    "name": "D3",
                    "midi": 50,
                    "time": 120.66654599999967,
                    "velocity": 0.7086614173228346,
                    "duration": 0.3333329999999961
                },
                {
                    "name": "E3",
                    "midi": 52,
                    "time": 120.99987899999967,
                    "velocity": 0.7086614173228346,
                    "duration": 0.3333329999999961
                },
                {
                    "name": "E3",
                    "midi": 52,
                    "time": 121.33321199999966,
                    "velocity": 0.7086614173228346,
                    "duration": 0.3333329999999961
                },
                {
                    "name": "F#3",
                    "midi": 54,
                    "time": 121.66654499999966,
                    "velocity": 0.7086614173228346,
                    "duration": 0.3333329999999961
                },
                {
                    "name": "G#3",
                    "midi": 56,
                    "time": 121.99987799999965,
                    "velocity": 0.7086614173228346,
                    "duration": 0.3333329999999961
                },
                {
                    "name": "A3",
                    "midi": 57,
                    "time": 122.33321099999965,
                    "velocity": 0.7086614173228346,
                    "duration": 0.3333329999999961
                },
                {
                    "name": "A3",
                    "midi": 57,
                    "time": 122.66654399999965,
                    "velocity": 0.7086614173228346,
                    "duration": 0.3333329999999961
                },
                {
                    "name": "B3",
                    "midi": 59,
                    "time": 122.99987699999964,
                    "velocity": 0.7086614173228346,
                    "duration": 0.3333329999999961
                },
                {
                    "name": "C4",
                    "midi": 60,
                    "time": 123.33320999999964,
                    "velocity": 0.7086614173228346,
                    "duration": 0.3333329999999961
                },
                {
                    "name": "D3",
                    "midi": 50,
                    "time": 123.66654299999963,
                    "velocity": 0.7086614173228346,
                    "duration": 1.3333319999999986
                },
                {
                    "name": "E3",
                    "midi": 52,
                    "time": 124.99987499999963,
                    "velocity": 0.7086614173228346,
                    "duration": 0.6666660000000064
                },
                {
                    "name": "E2",
                    "midi": 40,
                    "time": 125.66654099999964,
                    "velocity": 0.7086614173228346,
                    "duration": 0.6666660000000064
                },
                {
                    "name": "A2",
                    "midi": 45,
                    "time": 126.33320699999965,
                    "velocity": 0.7086614173228346,
                    "duration": 1.3333319999999986
                },
                {
                    "name": "A3",
                    "midi": 57,
                    "time": 132.66653399999964,
                    "velocity": 0.7086614173228346,
                    "duration": 0.3333330000000103
                },
                {
                    "name": "D4",
                    "midi": 62,
                    "time": 132.99986699999965,
                    "velocity": 0.7086614173228346,
                    "duration": 0.9999990000000025
                },
                {
                    "name": "D4",
                    "midi": 62,
                    "time": 133.99986599999966,
                    "velocity": 0.7086614173228346,
                    "duration": 0.3333330000000103
                },
                {
                    "name": "D4",
                    "midi": 62,
                    "time": 134.33319899999967,
                    "velocity": 0.7086614173228346,
                    "duration": 1.3333320000000128
                },
                {
                    "name": "D3",
                    "midi": 50,
                    "time": 137.99986199999967,
                    "velocity": 0.7086614173228346,
                    "duration": 0.3333330000000103
                },
                {
                    "name": "G3",
                    "midi": 55,
                    "time": 138.33319499999968,
                    "velocity": 0.7086614173228346,
                    "duration": 0.9999990000000025
                },
                {
                    "name": "G3",
                    "midi": 55,
                    "time": 139.33319399999968,
                    "velocity": 0.7086614173228346,
                    "duration": 0.3333330000000103
                },
                {
                    "name": "G3",
                    "midi": 55,
                    "time": 139.6665269999997,
                    "velocity": 0.7086614173228346,
                    "duration": 1.3333320000000128
                },
                {
                    "name": "E3",
                    "midi": 52,
                    "time": 141.9998579999997,
                    "velocity": 0.7086614173228346,
                    "duration": 0.3333330000000103
                },
                {
                    "name": "A3",
                    "midi": 57,
                    "time": 142.33319099999972,
                    "velocity": 0.7086614173228346,
                    "duration": 1.3333320000000128
                },
                {
                    "name": "C#3",
                    "midi": 49,
                    "time": 143.66652299999973,
                    "velocity": 0.7086614173228346,
                    "duration": 1.3333320000000128
                },
                {
                    "name": "D3",
                    "midi": 50,
                    "time": 144.99985499999974,
                    "velocity": 0.7086614173228346,
                    "duration": 0.6666659999999922
                },
                {
                    "name": "G2",
                    "midi": 43,
                    "time": 145.66652099999973,
                    "velocity": 0.7086614173228346,
                    "duration": 0.6666659999999922
                },
                {
                    "name": "A2",
                    "midi": 45,
                    "time": 146.33318699999973,
                    "velocity": 0.7086614173228346,
                    "duration": 0.6666659999999922
                },
                {
                    "name": "A2",
                    "midi": 45,
                    "time": 146.99985299999972,
                    "velocity": 0.7086614173228346,
                    "duration": 0.6666659999999922
                },
                {
                    "name": "D2",
                    "midi": 38,
                    "time": 147.6665189999997,
                    "velocity": 0.7086614173228346,
                    "duration": 1.3333320000000128
                },
                {
                    "name": "D3",
                    "midi": 50,
                    "time": 151.3331819999997,
                    "velocity": 0.7086614173228346,
                    "duration": 0.3333330000000103
                },
                {
                    "name": "G3",
                    "midi": 55,
                    "time": 151.66651499999972,
                    "velocity": 0.7086614173228346,
                    "duration": 0.9999990000000025
                },
                {
                    "name": "G3",
                    "midi": 55,
                    "time": 152.66651399999972,
                    "velocity": 0.7086614173228346,
                    "duration": 0.3333330000000103
                },
                {
                    "name": "G3",
                    "midi": 55,
                    "time": 152.99984699999973,
                    "velocity": 0.7086614173228346,
                    "duration": 1.3333320000000128
                },
                {
                    "name": "G2",
                    "midi": 43,
                    "time": 156.66650999999973,
                    "velocity": 0.7086614173228346,
                    "duration": 0.3333330000000103
                },
                {
                    "name": "A#3",
                    "midi": 58,
                    "time": 156.99984299999974,
                    "velocity": 0.7086614173228346,
                    "duration": 0.9999990000000025
                },
                {
                    "name": "A#3",
                    "midi": 58,
                    "time": 157.99984199999975,
                    "velocity": 0.7086614173228346,
                    "duration": 0.3333330000000103
                },
                {
                    "name": "A#3",
                    "midi": 58,
                    "time": 158.33317499999976,
                    "velocity": 0.7086614173228346,
                    "duration": 0.9999990000000025
                },
                {
                    "name": "G3",
                    "midi": 55,
                    "time": 159.33317399999976,
                    "velocity": 0.7086614173228346,
                    "duration": 0.3333330000000103
                },
                {
                    "name": "C#4",
                    "midi": 61,
                    "time": 159.66650699999977,
                    "velocity": 0.7086614173228346,
                    "duration": 0.9999990000000025
                },
                {
                    "name": "A3",
                    "midi": 57,
                    "time": 160.66650599999977,
                    "velocity": 0.7086614173228346,
                    "duration": 0.3333330000000103
                },
                {
                    "name": "D4",
                    "midi": 62,
                    "time": 160.99983899999978,
                    "velocity": 0.7086614173228346,
                    "duration": 1.3333320000000128
                },
                {
                    "name": "D3",
                    "midi": 50,
                    "time": 162.9998369999998,
                    "velocity": 0.7086614173228346,
                    "duration": 0.6666659999999922
                },
                {
                    "name": "G2",
                    "midi": 43,
                    "time": 163.66650299999978,
                    "velocity": 0.7086614173228346,
                    "duration": 0.6666659999999922
                },
                {
                    "name": "F2",
                    "midi": 41,
                    "time": 164.33316899999977,
                    "velocity": 0.7086614173228346,
                    "duration": 0.3333330000000103
                },
                {
                    "name": "G2",
                    "midi": 43,
                    "time": 164.66650199999978,
                    "velocity": 0.7086614173228346,
                    "duration": 0.3333330000000103
                },
                {
                    "name": "A2",
                    "midi": 45,
                    "time": 164.9998349999998,
                    "velocity": 0.7086614173228346,
                    "duration": 0.6666659999999922
                },
                {
                    "name": "A2",
                    "midi": 45,
                    "time": 165.66650099999978,
                    "velocity": 0.7086614173228346,
                    "duration": 0.6666659999999922
                },
                {
                    "name": "D2",
                    "midi": 38,
                    "time": 166.33316699999978,
                    "velocity": 0.7086614173228346,
                    "duration": 2.6666639999999973
                }
            ],
            "controlChanges": {},
            "id": 4,
            "name": "",
            "instrumentNumber": 70,
            "instrument": "bassoon",
            "instrumentFamily": "reed",
            "channelNumber": 4,
            "isPercussion": false
        },
        {
            "startTime": 0,
            "duration": 168.99983100000117,
            "length": 332,
            "notes": [
                {
                    "name": "A4",
                    "midi": 69,
                    "time": 0,
                    "velocity": 0.7086614173228346,
                    "duration": 0.333333
                },
                {
                    "name": "D5",
                    "midi": 74,
                    "time": 0.333333,
                    "velocity": 0.7086614173228346,
                    "duration": 0.49999950000000004
                },
                {
                    "name": "D5",
                    "midi": 74,
                    "time": 0.8333325,
                    "velocity": 0.7086614173228346,
                    "duration": 0.16666650000000005
                },
                {
                    "name": "F5",
                    "midi": 77,
                    "time": 0.9999990000000001,
                    "velocity": 0.7086614173228346,
                    "duration": 1.3333320000000002
                },
                {
                    "name": "D5",
                    "midi": 74,
                    "time": 2.6666640000000004,
                    "velocity": 0.7086614173228346,
                    "duration": 0.3333330000000001
                },
                {
                    "name": "F5",
                    "midi": 77,
                    "time": 2.9999970000000005,
                    "velocity": 0.7086614173228346,
                    "duration": 0.49999949999999993
                },
                {
                    "name": "F5",
                    "midi": 77,
                    "time": 3.4999965000000004,
                    "velocity": 0.7086614173228346,
                    "duration": 0.16666649999999983
                },
                {
                    "name": "A5",
                    "midi": 81,
                    "time": 3.6666630000000002,
                    "velocity": 0.7086614173228346,
                    "duration": 1.333332
                },
                {
                    "name": "C#5",
                    "midi": 73,
                    "time": 5.416661250000001,
                    "velocity": 0.7086614173228346,
                    "duration": 0.048611062500000024
                },
                {
                    "name": "D5",
                    "midi": 74,
                    "time": 5.465272312500001,
                    "velocity": 0.7086614173228346,
                    "duration": 0.048611062500000024
                },
                {
                    "name": "E5",
                    "midi": 76,
                    "time": 5.515619484375001,
                    "velocity": 0.7086614173228346,
                    "duration": 0.048611062500000024
                },
                {
                    "name": "F5",
                    "midi": 77,
                    "time": 5.5659666562500005,
                    "velocity": 0.7086614173228346,
                    "duration": 0.048611062500000024
                },
                {
                    "name": "G5",
                    "midi": 79,
                    "time": 5.6163138281250005,
                    "velocity": 0.7086614173228346,
                    "duration": 0.048611062500000024
                },
                {
                    "name": "A5",
                    "midi": 81,
                    "time": 5.666661,
                    "velocity": 0.7086614173228346,
                    "duration": 0.4999995000000004
                },
                {
                    "name": "A5",
                    "midi": 81,
                    "time": 6.166660500000001,
                    "velocity": 0.7086614173228346,
                    "duration": 0.16666649999999983
                },
                {
                    "name": "D6",
                    "midi": 86,
                    "time": 6.333327000000001,
                    "velocity": 0.7086614173228346,
                    "duration": 0.9999989999999999
                },
                {
                    "name": "C6",
                    "midi": 84,
                    "time": 7.3333260000000005,
                    "velocity": 0.7086614173228346,
                    "duration": 0.10937489062500028
                },
                {
                    "name": "A#5",
                    "midi": 82,
                    "time": 7.444437000000001,
                    "velocity": 0.7086614173228346,
                    "duration": 0.10937489062500028
                },
                {
                    "name": "A5",
                    "midi": 81,
                    "time": 7.555548000000001,
                    "velocity": 0.7086614173228346,
                    "duration": 0.10937489062500028
                },
                {
                    "name": "A#5",
                    "midi": 82,
                    "time": 7.666659000000001,
                    "velocity": 0.7086614173228346,
                    "duration": 0.4999994999999995
                },
                {
                    "name": "A5",
                    "midi": 81,
                    "time": 8.1666585,
                    "velocity": 0.7086614173228346,
                    "duration": 0.16666649999999983
                },
                {
                    "name": "G5",
                    "midi": 79,
                    "time": 8.333325,
                    "velocity": 0.7086614173228346,
                    "duration": 0.4999994999999995
                },
                {
                    "name": "F5",
                    "midi": 77,
                    "time": 8.8333245,
                    "velocity": 0.7086614173228346,
                    "duration": 0.16666649999999983
                },
                {
                    "name": "G5",
                    "midi": 79,
                    "time": 8.999991,
                    "velocity": 0.7086614173228346,
                    "duration": 0.9999990000000007
                },
                {
                    "name": "A5",
                    "midi": 81,
                    "time": 9.99999,
                    "velocity": 0.7086614173228346,
                    "duration": 0.33333299999999966
                },
                {
                    "name": "F5",
                    "midi": 77,
                    "time": 10.333323,
                    "velocity": 0.7086614173228346,
                    "duration": 0.9999990000000007
                },
                {
                    "name": "E5",
                    "midi": 76,
                    "time": 11.333322,
                    "velocity": 0.7086614173228346,
                    "duration": 0.33333299999999966
                },
                {
                    "name": "E5",
                    "midi": 76,
                    "time": 11.666655,
                    "velocity": 0.7086614173228346,
                    "duration": 0.4999994999999995
                },
                {
                    "name": "E5",
                    "midi": 76,
                    "time": 12.1666545,
                    "velocity": 0.7086614173228346,
                    "duration": 0.16666649999999983
                },
                {
                    "name": "C6",
                    "midi": 84,
                    "time": 12.333321,
                    "velocity": 0.7086614173228346,
                    "duration": 0.4999994999999995
                },
                {
                    "name": "C6",
                    "midi": 84,
                    "time": 12.8333205,
                    "velocity": 0.7086614173228346,
                    "duration": 0.16666649999999983
                },
                {
                    "name": "C6",
                    "midi": 84,
                    "time": 12.999986999999999,
                    "velocity": 0.7086614173228346,
                    "duration": 0.9999990000000007
                },
                {
                    "name": "C6",
                    "midi": 84,
                    "time": 13.999986,
                    "velocity": 0.7086614173228346,
                    "duration": 0.10937489062500028
                },
                {
                    "name": "B5",
                    "midi": 83,
                    "time": 14.111097000000001,
                    "velocity": 0.7086614173228346,
                    "duration": 0.10937489062500028
                },
                {
                    "name": "A5",
                    "midi": 81,
                    "time": 14.222208000000002,
                    "velocity": 0.7086614173228346,
                    "duration": 0.10937489062500028
                },
                {
                    "name": "B5",
                    "midi": 83,
                    "time": 14.333319000000003,
                    "velocity": 0.7086614173228346,
                    "duration": 0.6666659999999993
                },
                {
                    "name": "E5",
                    "midi": 76,
                    "time": 14.999985000000002,
                    "velocity": 0.7086614173228346,
                    "duration": 0.6666659999999993
                },
                {
                    "name": "A5",
                    "midi": 81,
                    "time": 15.666651000000002,
                    "velocity": 0.7086614173228346,
                    "duration": 0.999998999999999
                },
                {
                    "name": "B5",
                    "midi": 83,
                    "time": 16.66665,
                    "velocity": 0.7086614173228346,
                    "duration": 0.33333299999999966
                },
                {
                    "name": "G#5",
                    "midi": 80,
                    "time": 16.999983,
                    "velocity": 0.7086614173228346,
                    "duration": 0.999998999999999
                },
                {
                    "name": "E5",
                    "midi": 76,
                    "time": 17.999982,
                    "velocity": 0.7086614173228346,
                    "duration": 0.33333299999999966
                },
                {
                    "name": "F5",
                    "midi": 77,
                    "time": 18.333315,
                    "velocity": 0.7086614173228346,
                    "duration": 0.999998999999999
                },
                {
                    "name": "F5",
                    "midi": 77,
                    "time": 19.4999805,
                    "velocity": 0.7086614173228346,
                    "duration": 0.05381939062500152
                },
                {
                    "name": "E5",
                    "midi": 76,
                    "time": 19.555536,
                    "velocity": 0.7086614173228346,
                    "duration": 0.05381939062500152
                },
                {
                    "name": "D5",
                    "midi": 74,
                    "time": 19.6110915,
                    "velocity": 0.7086614173228346,
                    "duration": 0.05381939062500152
                },
                {
                    "name": "E5",
                    "midi": 76,
                    "time": 19.666647,
                    "velocity": 0.7086614173228346,
                    "duration": 0.6666659999999993
                },
                {
                    "name": "A5",
                    "midi": 81,
                    "time": 20.333313,
                    "velocity": 0.7086614173228346,
                    "duration": 1.3333319999999986
                },
                {
                    "name": "G#5",
                    "midi": 80,
                    "time": 21.666645,
                    "velocity": 0.7086614173228346,
                    "duration": 0.6666659999999993
                },
                {
                    "name": "A5",
                    "midi": 81,
                    "time": 22.333311,
                    "velocity": 0.7086614173228346,
                    "duration": 0.49999950000000126
                },
                {
                    "name": "G5",
                    "midi": 79,
                    "time": 22.8333105,
                    "velocity": 0.7086614173228346,
                    "duration": 0.1666665000000016
                },
                {
                    "name": "F5",
                    "midi": 77,
                    "time": 22.999977,
                    "velocity": 0.7086614173228346,
                    "duration": 0.49999950000000126
                },
                {
                    "name": "E5",
                    "midi": 76,
                    "time": 23.499976500000002,
                    "velocity": 0.7086614173228346,
                    "duration": 0.1666665000000016
                },
                {
                    "name": "D5",
                    "midi": 74,
                    "time": 23.666643000000004,
                    "velocity": 0.7086614173228346,
                    "duration": 0.49999950000000126
                },
                {
                    "name": "C5",
                    "midi": 72,
                    "time": 24.166642500000005,
                    "velocity": 0.7086614173228346,
                    "duration": 0.1666665000000016
                },
                {
                    "name": "B4",
                    "midi": 71,
                    "time": 24.333309000000007,
                    "velocity": 0.7086614173228346,
                    "duration": 0.49999950000000126
                },
                {
                    "name": "A4",
                    "midi": 69,
                    "time": 24.833308500000008,
                    "velocity": 0.7086614173228346,
                    "duration": 0.1666665000000016
                },
                {
                    "name": "E4",
                    "midi": 64,
                    "time": 24.99997500000001,
                    "velocity": 0.7086614173228346,
                    "duration": 1.3333319999999986
                },
                {
                    "name": "B4",
                    "midi": 71,
                    "time": 26.666640000000008,
                    "velocity": 0.7086614173228346,
                    "duration": 0.33333299999999966
                },
                {
                    "name": "E5",
                    "midi": 76,
                    "time": 26.999973000000008,
                    "velocity": 0.7086614173228346,
                    "duration": 0.49999950000000126
                },
                {
                    "name": "E5",
                    "midi": 76,
                    "time": 27.49997250000001,
                    "velocity": 0.7086614173228346,
                    "duration": 0.1666665000000016
                },
                {
                    "name": "G#5",
                    "midi": 80,
                    "time": 27.66663900000001,
                    "velocity": 0.7086614173228346,
                    "duration": 1.3333319999999986
                },
                {
                    "name": "E5",
                    "midi": 76,
                    "time": 29.33330400000001,
                    "velocity": 0.7086614173228346,
                    "duration": 0.33333299999999966
                },
                {
                    "name": "G#5",
                    "midi": 80,
                    "time": 29.66663700000001,
                    "velocity": 0.7086614173228346,
                    "duration": 0.49999950000000126
                },
                {
                    "name": "G#5",
                    "midi": 80,
                    "time": 30.16663650000001,
                    "velocity": 0.7086614173228346,
                    "duration": 0.1666665000000016
                },
                {
                    "name": "B5",
                    "midi": 83,
                    "time": 30.33330300000001,
                    "velocity": 0.7086614173228346,
                    "duration": 0.999998999999999
                },
                {
                    "name": "A5",
                    "midi": 81,
                    "time": 31.499968500000012,
                    "velocity": 0.7086614173228346,
                    "duration": 0.05381939062500152
                },
                {
                    "name": "G#5",
                    "midi": 80,
                    "time": 31.555524000000013,
                    "velocity": 0.7086614173228346,
                    "duration": 0.05381939062500152
                },
                {
                    "name": "F#5",
                    "midi": 78,
                    "time": 31.611079500000013,
                    "velocity": 0.7086614173228346,
                    "duration": 0.05381939062500152
                },
                {
                    "name": "E5",
                    "midi": 76,
                    "time": 31.666635000000014,
                    "velocity": 0.7086614173228346,
                    "duration": 0.49999950000000126
                },
                {
                    "name": "D5",
                    "midi": 74,
                    "time": 32.166634500000015,
                    "velocity": 0.7086614173228346,
                    "duration": 0.16666649999999805
                },
                {
                    "name": "C5",
                    "midi": 72,
                    "time": 32.33330100000001,
                    "velocity": 0.7086614173228346,
                    "duration": 0.49999950000000126
                },
                {
                    "name": "B4",
                    "midi": 71,
                    "time": 32.833300500000014,
                    "velocity": 0.7086614173228346,
                    "duration": 0.16666649999999805
                },
                {
                    "name": "C5",
                    "midi": 72,
                    "time": 32.99996700000001,
                    "velocity": 0.7086614173228346,
                    "duration": 0.49999950000000126
                },
                {
                    "name": "E5",
                    "midi": 76,
                    "time": 33.49996650000001,
                    "velocity": 0.7086614173228346,
                    "duration": 0.16666649999999805
                },
                {
                    "name": "A5",
                    "midi": 81,
                    "time": 33.66663300000001,
                    "velocity": 0.7086614173228346,
                    "duration": 0.49999950000000126
                },
                {
                    "name": "C5",
                    "midi": 72,
                    "time": 34.16663250000001,
                    "velocity": 0.7086614173228346,
                    "duration": 0.16666649999999805
                },
                {
                    "name": "B4",
                    "midi": 71,
                    "time": 34.33329900000001,
                    "velocity": 0.7086614173228346,
                    "duration": 0.9999990000000025
                },
                {
                    "name": "A4",
                    "midi": 69,
                    "time": 35.33329800000001,
                    "velocity": 0.7086614173228346,
                    "duration": 0.3333330000000032
                },
                {
                    "name": "A4",
                    "midi": 69,
                    "time": 35.66663100000002,
                    "velocity": 0.7086614173228346,
                    "duration": 1.3333319999999986
                },
                {
                    "name": "A4",
                    "midi": 69,
                    "time": 37.33329600000002,
                    "velocity": 0.7086614173228346,
                    "duration": 0.3333330000000032
                },
                {
                    "name": "D5",
                    "midi": 74,
                    "time": 37.66662900000002,
                    "velocity": 0.7086614173228346,
                    "duration": 0.49999950000000126
                },
                {
                    "name": "D5",
                    "midi": 74,
                    "time": 38.16662850000002,
                    "velocity": 0.7086614173228346,
                    "duration": 0.16666649999999805
                },
                {
                    "name": "A4",
                    "midi": 69,
                    "time": 38.33329500000002,
                    "velocity": 0.7086614173228346,
                    "duration": 2.6666639999999973
                },
                {
                    "name": "A4",
                    "midi": 69,
                    "time": 41.33329200000002,
                    "velocity": 0.7086614173228346,
                    "duration": 0.3333330000000032
                },
                {
                    "name": "A4",
                    "midi": 69,
                    "time": 41.666625000000025,
                    "velocity": 0.7086614173228346,
                    "duration": 0.3333330000000032
                },
                {
                    "name": "B4",
                    "midi": 71,
                    "time": 41.99995800000003,
                    "velocity": 0.7086614173228346,
                    "duration": 0.3333330000000032
                },
                {
                    "name": "C#5",
                    "midi": 73,
                    "time": 42.33329100000003,
                    "velocity": 0.7086614173228346,
                    "duration": 0.3333330000000032
                },
                {
                    "name": "C#5",
                    "midi": 73,
                    "time": 42.666624000000034,
                    "velocity": 0.7086614173228346,
                    "duration": 0.3333330000000032
                },
                {
                    "name": "C#5",
                    "midi": 73,
                    "time": 42.99995700000004,
                    "velocity": 0.7086614173228346,
                    "duration": 0.3333330000000032
                },
                {
                    "name": "D5",
                    "midi": 74,
                    "time": 43.33329000000004,
                    "velocity": 0.7086614173228346,
                    "duration": 0.3333330000000032
                },
                {
                    "name": "E5",
                    "midi": 76,
                    "time": 43.666623000000044,
                    "velocity": 0.7086614173228346,
                    "duration": 0.3333330000000032
                },
                {
                    "name": "E5",
                    "midi": 76,
                    "time": 43.99995600000005,
                    "velocity": 0.7086614173228346,
                    "duration": 0.3333330000000032
                },
                {
                    "name": "E5",
                    "midi": 76,
                    "time": 44.33328900000005,
                    "velocity": 0.7086614173228346,
                    "duration": 0.3333330000000032
                },
                {
                    "name": "F5",
                    "midi": 77,
                    "time": 44.666622000000054,
                    "velocity": 0.7086614173228346,
                    "duration": 0.3333330000000032
                },
                {
                    "name": "G5",
                    "midi": 79,
                    "time": 44.99995500000006,
                    "velocity": 0.7086614173228346,
                    "duration": 0.3333330000000032
                },
                {
                    "name": "G5",
                    "midi": 79,
                    "time": 45.33328800000006,
                    "velocity": 0.7086614173228346,
                    "duration": 0.3333330000000032
                },
                {
                    "name": "F5",
                    "midi": 77,
                    "time": 45.66662100000006,
                    "velocity": 0.7086614173228346,
                    "duration": 0.3333330000000032
                },
                {
                    "name": "E5",
                    "midi": 76,
                    "time": 45.999954000000066,
                    "velocity": 0.7086614173228346,
                    "duration": 0.3333330000000032
                },
                {
                    "name": "F5",
                    "midi": 77,
                    "time": 46.33328700000007,
                    "velocity": 0.7086614173228346,
                    "duration": 0.9999990000000025
                },
                {
                    "name": "D5",
                    "midi": 74,
                    "time": 47.33328600000007,
                    "velocity": 0.7086614173228346,
                    "duration": 0.3333330000000032
                },
                {
                    "name": "G5",
                    "midi": 79,
                    "time": 47.666619000000075,
                    "velocity": 0.7086614173228346,
                    "duration": 0.6666659999999993
                },
                {
                    "name": "G5",
                    "midi": 79,
                    "time": 48.333285000000075,
                    "velocity": 0.7086614173228346,
                    "duration": 0.3333330000000032
                },
                {
                    "name": "A5",
                    "midi": 81,
                    "time": 48.66661800000008,
                    "velocity": 0.7086614173228346,
                    "duration": 0.3333330000000032
                },
                {
                    "name": "A#5",
                    "midi": 82,
                    "time": 48.99995100000008,
                    "velocity": 0.7086614173228346,
                    "duration": 0.9999990000000025
                },
                {
                    "name": "A5",
                    "midi": 81,
                    "time": 49.999950000000084,
                    "velocity": 0.7086614173228346,
                    "duration": 0.3333330000000032
                },
                {
                    "name": "G5",
                    "midi": 79,
                    "time": 50.33328300000009,
                    "velocity": 0.7086614173228346,
                    "duration": 0.9999990000000025
                },
                {
                    "name": "F5",
                    "midi": 77,
                    "time": 51.33328200000009,
                    "velocity": 0.7086614173228346,
                    "duration": 0.3333330000000032
                },
                {
                    "name": "E5",
                    "midi": 76,
                    "time": 51.66661500000009,
                    "velocity": 0.7086614173228346,
                    "duration": 0.9999990000000025
                },
                {
                    "name": "E5",
                    "midi": 76,
                    "time": 52.666614000000095,
                    "velocity": 0.7086614173228346,
                    "duration": 0.3333330000000032
                },
                {
                    "name": "A5",
                    "midi": 81,
                    "time": 52.9999470000001,
                    "velocity": 0.7086614173228346,
                    "duration": 0.9999990000000025
                },
                {
                    "name": "A5",
                    "midi": 81,
                    "time": 53.9999460000001,
                    "velocity": 0.7086614173228346,
                    "duration": 0.3333330000000032
                },
                {
                    "name": "A5",
                    "midi": 81,
                    "time": 54.333279000000104,
                    "velocity": 0.7086614173228346,
                    "duration": 0.9999990000000025
                },
                {
                    "name": "C#5",
                    "midi": 73,
                    "time": 55.33327800000011,
                    "velocity": 0.7086614173228346,
                    "duration": 0.3333330000000032
                },
                {
                    "name": "C#5",
                    "midi": 73,
                    "time": 55.66661100000011,
                    "velocity": 0.7086614173228346,
                    "duration": 0.3333330000000032
                },
                {
                    "name": "C#5",
                    "midi": 73,
                    "time": 55.99994400000011,
                    "velocity": 0.7086614173228346,
                    "duration": 0.3333330000000032
                },
                {
                    "name": "D5",
                    "midi": 74,
                    "time": 56.333277000000116,
                    "velocity": 0.7086614173228346,
                    "duration": 0.3333330000000032
                },
                {
                    "name": "E5",
                    "midi": 76,
                    "time": 56.66661000000012,
                    "velocity": 0.7086614173228346,
                    "duration": 0.3333330000000032
                },
                {
                    "name": "A4",
                    "midi": 69,
                    "time": 56.99994300000012,
                    "velocity": 0.7086614173228346,
                    "duration": 1.3333319999999986
                },
                {
                    "name": "D5",
                    "midi": 74,
                    "time": 58.666608000000124,
                    "velocity": 0.7086614173228346,
                    "duration": 0.3333330000000032
                },
                {
                    "name": "D5",
                    "midi": 74,
                    "time": 58.99994100000013,
                    "velocity": 0.7086614173228346,
                    "duration": 0.3333330000000032
                },
                {
                    "name": "C5",
                    "midi": 72,
                    "time": 59.33327400000013,
                    "velocity": 0.7086614173228346,
                    "duration": 0.3333330000000032
                },
                {
                    "name": "A#4",
                    "midi": 70,
                    "time": 59.666607000000134,
                    "velocity": 0.7086614173228346,
                    "duration": 0.3333330000000032
                },
                {
                    "name": "A#4",
                    "midi": 70,
                    "time": 59.99994000000014,
                    "velocity": 0.7086614173228346,
                    "duration": 0.3333330000000032
                },
                {
                    "name": "A#4",
                    "midi": 70,
                    "time": 60.33327300000014,
                    "velocity": 0.7086614173228346,
                    "duration": 0.3333330000000032
                },
                {
                    "name": "A4",
                    "midi": 69,
                    "time": 60.666606000000144,
                    "velocity": 0.7086614173228346,
                    "duration": 0.3333330000000032
                },
                {
                    "name": "G4",
                    "midi": 67,
                    "time": 60.99993900000015,
                    "velocity": 0.7086614173228346,
                    "duration": 0.9999990000000025
                },
                {
                    "name": "G4",
                    "midi": 67,
                    "time": 61.99993800000015,
                    "velocity": 0.7086614173228346,
                    "duration": 0.3333330000000032
                },
                {
                    "name": "G4",
                    "midi": 67,
                    "time": 62.33327100000015,
                    "velocity": 0.7086614173228346,
                    "duration": 0.9999990000000025
                },
                {
                    "name": "A4",
                    "midi": 69,
                    "time": 63.333270000000155,
                    "velocity": 0.7086614173228346,
                    "duration": 0.3333330000000032
                },
                {
                    "name": "F4",
                    "midi": 65,
                    "time": 63.66660300000016,
                    "velocity": 0.7086614173228346,
                    "duration": 0.9999989999999954
                },
                {
                    "name": "E4",
                    "midi": 64,
                    "time": 64.66660200000015,
                    "velocity": 0.7086614173228346,
                    "duration": 0.3333329999999961
                },
                {
                    "name": "E4",
                    "midi": 64,
                    "time": 64.99993500000015,
                    "velocity": 0.7086614173228346,
                    "duration": 1.3333319999999986
                },
                {
                    "name": "A4",
                    "midi": 69,
                    "time": 66.66660000000014,
                    "velocity": 0.7086614173228346,
                    "duration": 0.3333329999999961
                },
                {
                    "name": "A4",
                    "midi": 69,
                    "time": 66.99993300000014,
                    "velocity": 0.7086614173228346,
                    "duration": 0.3333329999999961
                },
                {
                    "name": "G4",
                    "midi": 67,
                    "time": 67.33326600000014,
                    "velocity": 0.7086614173228346,
                    "duration": 0.3333329999999961
                },
                {
                    "name": "F#4",
                    "midi": 66,
                    "time": 67.66659900000013,
                    "velocity": 0.7086614173228346,
                    "duration": 0.6666660000000064
                },
                {
                    "name": "D4",
                    "midi": 62,
                    "time": 68.33326500000014,
                    "velocity": 0.7086614173228346,
                    "duration": 0.6666660000000064
                },
                {
                    "name": "G4",
                    "midi": 67,
                    "time": 68.99993100000015,
                    "velocity": 0.7086614173228346,
                    "duration": 0.6666660000000064
                },
                {
                    "name": "G4",
                    "midi": 67,
                    "time": 69.66659700000015,
                    "velocity": 0.7086614173228346,
                    "duration": 0.3333329999999961
                },
                {
                    "name": "A4",
                    "midi": 69,
                    "time": 69.99993000000015,
                    "velocity": 0.7086614173228346,
                    "duration": 0.3333329999999961
                },
                {
                    "name": "A#4",
                    "midi": 70,
                    "time": 70.33326300000014,
                    "velocity": 0.7086614173228346,
                    "duration": 1.3333319999999986
                },
                {
                    "name": "G4",
                    "midi": 67,
                    "time": 71.99992800000014,
                    "velocity": 0.7086614173228346,
                    "duration": 0.3333329999999961
                },
                {
                    "name": "G4",
                    "midi": 67,
                    "time": 72.33326100000014,
                    "velocity": 0.7086614173228346,
                    "duration": 0.3333329999999961
                },
                {
                    "name": "F4",
                    "midi": 65,
                    "time": 72.66659400000013,
                    "velocity": 0.7086614173228346,
                    "duration": 0.3333329999999961
                },
                {
                    "name": "E4",
                    "midi": 64,
                    "time": 72.99992700000013,
                    "velocity": 0.7086614173228346,
                    "duration": 0.6666660000000064
                },
                {
                    "name": "C4",
                    "midi": 60,
                    "time": 73.66659300000013,
                    "velocity": 0.7086614173228346,
                    "duration": 0.6666660000000064
                },
                {
                    "name": "F4",
                    "midi": 65,
                    "time": 74.33325900000014,
                    "velocity": 0.7086614173228346,
                    "duration": 0.6666660000000064
                },
                {
                    "name": "F4",
                    "midi": 65,
                    "time": 74.99992500000015,
                    "velocity": 0.7086614173228346,
                    "duration": 0.3333329999999961
                },
                {
                    "name": "G4",
                    "midi": 67,
                    "time": 75.33325800000014,
                    "velocity": 0.7086614173228346,
                    "duration": 0.3333329999999961
                },
                {
                    "name": "A4",
                    "midi": 69,
                    "time": 75.66659100000014,
                    "velocity": 0.7086614173228346,
                    "duration": 0.9999990000000025
                },
                {
                    "name": "A4",
                    "midi": 69,
                    "time": 76.66659000000014,
                    "velocity": 0.7086614173228346,
                    "duration": 0.3333329999999961
                },
                {
                    "name": "A#4",
                    "midi": 70,
                    "time": 76.99992300000014,
                    "velocity": 0.7086614173228346,
                    "duration": 0.6666660000000064
                },
                {
                    "name": "C5",
                    "midi": 72,
                    "time": 77.66658900000014,
                    "velocity": 0.7086614173228346,
                    "duration": 0.6666660000000064
                },
                {
                    "name": "D5",
                    "midi": 74,
                    "time": 78.33325500000015,
                    "velocity": 0.7086614173228346,
                    "duration": 0.9999990000000025
                },
                {
                    "name": "D5",
                    "midi": 74,
                    "time": 79.33325400000015,
                    "velocity": 0.7086614173228346,
                    "duration": 0.3333329999999961
                },
                {
                    "name": "E5",
                    "midi": 76,
                    "time": 79.66658700000015,
                    "velocity": 0.7086614173228346,
                    "duration": 0.6666660000000064
                },
                {
                    "name": "F5",
                    "midi": 77,
                    "time": 80.33325300000016,
                    "velocity": 0.7086614173228346,
                    "duration": 0.6666660000000064
                },
                {
                    "name": "E5",
                    "midi": 76,
                    "time": 80.99991900000016,
                    "velocity": 0.7086614173228346,
                    "duration": 0.9999990000000025
                },
                {
                    "name": "G5",
                    "midi": 79,
                    "time": 81.99991800000016,
                    "velocity": 0.7086614173228346,
                    "duration": 0.3333329999999961
                },
                {
                    "name": "C6",
                    "midi": 84,
                    "time": 82.33325100000016,
                    "velocity": 0.7086614173228346,
                    "duration": 0.9999990000000025
                },
                {
                    "name": "C6",
                    "midi": 84,
                    "time": 83.33325000000016,
                    "velocity": 0.7086614173228346,
                    "duration": 0.3333329999999961
                },
                {
                    "name": "C6",
                    "midi": 84,
                    "time": 83.66658300000016,
                    "velocity": 0.7086614173228346,
                    "duration": 0.9999990000000025
                },
                {
                    "name": "E5",
                    "midi": 76,
                    "time": 84.66658200000016,
                    "velocity": 0.7086614173228346,
                    "duration": 0.3333329999999961
                },
                {
                    "name": "E5",
                    "midi": 76,
                    "time": 84.99991500000016,
                    "velocity": 0.7086614173228346,
                    "duration": 0.3333329999999961
                },
                {
                    "name": "E5",
                    "midi": 76,
                    "time": 85.33324800000015,
                    "velocity": 0.7086614173228346,
                    "duration": 0.3333329999999961
                },
                {
                    "name": "F5",
                    "midi": 77,
                    "time": 85.66658100000015,
                    "velocity": 0.7086614173228346,
                    "duration": 0.3333329999999961
                },
                {
                    "name": "G5",
                    "midi": 79,
                    "time": 85.99991400000015,
                    "velocity": 0.7086614173228346,
                    "duration": 0.3333329999999961
                },
                {
                    "name": "C5",
                    "midi": 72,
                    "time": 86.33324700000014,
                    "velocity": 0.7086614173228346,
                    "duration": 1.3333319999999986
                },
                {
                    "name": "F5",
                    "midi": 77,
                    "time": 87.99991200000014,
                    "velocity": 0.7086614173228346,
                    "duration": 0.3333329999999961
                },
                {
                    "name": "F5",
                    "midi": 77,
                    "time": 88.33324500000013,
                    "velocity": 0.7086614173228346,
                    "duration": 0.3333329999999961
                },
                {
                    "name": "E5",
                    "midi": 76,
                    "time": 88.66657800000013,
                    "velocity": 0.7086614173228346,
                    "duration": 0.3333329999999961
                },
                {
                    "name": "D5",
                    "midi": 74,
                    "time": 88.99991100000013,
                    "velocity": 0.7086614173228346,
                    "duration": 0.3333329999999961
                },
                {
                    "name": "D5",
                    "midi": 74,
                    "time": 89.33324400000012,
                    "velocity": 0.7086614173228346,
                    "duration": 0.3333329999999961
                },
                {
                    "name": "D5",
                    "midi": 74,
                    "time": 89.66657700000012,
                    "velocity": 0.7086614173228346,
                    "duration": 0.3333329999999961
                },
                {
                    "name": "C5",
                    "midi": 72,
                    "time": 89.99991000000011,
                    "velocity": 0.7086614173228346,
                    "duration": 0.3333329999999961
                },
                {
                    "name": "A#4",
                    "midi": 70,
                    "time": 90.33324300000011,
                    "velocity": 0.7086614173228346,
                    "duration": 0.3333329999999961
                },
                {
                    "name": "A#4",
                    "midi": 70,
                    "time": 90.6665760000001,
                    "velocity": 0.7086614173228346,
                    "duration": 0.3333329999999961
                },
                {
                    "name": "A#4",
                    "midi": 70,
                    "time": 90.9999090000001,
                    "velocity": 0.7086614173228346,
                    "duration": 0.3333329999999961
                },
                {
                    "name": "A4",
                    "midi": 69,
                    "time": 91.3332420000001,
                    "velocity": 0.7086614173228346,
                    "duration": 0.3333329999999961
                },
                {
                    "name": "G4",
                    "midi": 67,
                    "time": 91.6665750000001,
                    "velocity": 0.7086614173228346,
                    "duration": 0.6666660000000064
                },
                {
                    "name": "A4",
                    "midi": 69,
                    "time": 92.3332410000001,
                    "velocity": 0.7086614173228346,
                    "duration": 0.6666660000000064
                },
                {
                    "name": "G4",
                    "midi": 67,
                    "time": 92.9999070000001,
                    "velocity": 0.7086614173228346,
                    "duration": 0.9999990000000025
                },
                {
                    "name": "F4",
                    "midi": 65,
                    "time": 93.99990600000011,
                    "velocity": 0.7086614173228346,
                    "duration": 0.3333329999999961
                },
                {
                    "name": "F4",
                    "midi": 65,
                    "time": 94.3332390000001,
                    "velocity": 0.7086614173228346,
                    "duration": 1.3333319999999986
                },
                {
                    "name": "C5",
                    "midi": 72,
                    "time": 95.9999040000001,
                    "velocity": 0.7086614173228346,
                    "duration": 0.3333329999999961
                },
                {
                    "name": "A#4",
                    "midi": 70,
                    "time": 96.3332370000001,
                    "velocity": 0.7086614173228346,
                    "duration": 0.3333329999999961
                },
                {
                    "name": "A4",
                    "midi": 69,
                    "time": 96.66657000000009,
                    "velocity": 0.7086614173228346,
                    "duration": 0.3333329999999961
                },
                {
                    "name": "G4",
                    "midi": 67,
                    "time": 96.99990300000009,
                    "velocity": 0.7086614173228346,
                    "duration": 0.6666660000000064
                },
                {
                    "name": "C4",
                    "midi": 60,
                    "time": 97.6665690000001,
                    "velocity": 0.7086614173228346,
                    "duration": 0.6666660000000064
                },
                {
                    "name": "G4",
                    "midi": 67,
                    "time": 98.3332350000001,
                    "velocity": 0.7086614173228346,
                    "duration": 0.6666660000000064
                },
                {
                    "name": "G4",
                    "midi": 67,
                    "time": 98.99990100000011,
                    "velocity": 0.7086614173228346,
                    "duration": 0.3333329999999961
                },
                {
                    "name": "A4",
                    "midi": 69,
                    "time": 99.3332340000001,
                    "velocity": 0.7086614173228346,
                    "duration": 0.3333329999999961
                },
                {
                    "name": "A#4",
                    "midi": 70,
                    "time": 99.6665670000001,
                    "velocity": 0.7086614173228346,
                    "duration": 1.3333319999999986
                },
                {
                    "name": "D5",
                    "midi": 74,
                    "time": 101.3332320000001,
                    "velocity": 0.7086614173228346,
                    "duration": 0.3333329999999961
                },
                {
                    "name": "C5",
                    "midi": 72,
                    "time": 101.66656500000009,
                    "velocity": 0.7086614173228346,
                    "duration": 0.3333329999999961
                },
                {
                    "name": "A#4",
                    "midi": 70,
                    "time": 101.99989800000009,
                    "velocity": 0.7086614173228346,
                    "duration": 0.3333329999999961
                },
                {
                    "name": "A4",
                    "midi": 69,
                    "time": 102.33323100000008,
                    "velocity": 0.7086614173228346,
                    "duration": 0.6666660000000064
                },
                {
                    "name": "A4",
                    "midi": 69,
                    "time": 102.99989700000009,
                    "velocity": 0.7086614173228346,
                    "duration": 0.6666660000000064
                },
                {
                    "name": "D5",
                    "midi": 74,
                    "time": 103.6665630000001,
                    "velocity": 0.7086614173228346,
                    "duration": 0.9999990000000025
                },
                {
                    "name": "E5",
                    "midi": 76,
                    "time": 104.6665620000001,
                    "velocity": 0.7086614173228346,
                    "duration": 0.3333329999999961
                },
                {
                    "name": "C#5",
                    "midi": 73,
                    "time": 104.9998950000001,
                    "velocity": 0.7086614173228346,
                    "duration": 0.9999990000000025
                },
                {
                    "name": "A4",
                    "midi": 69,
                    "time": 105.9998940000001,
                    "velocity": 0.7086614173228346,
                    "duration": 0.3333329999999961
                },
                {
                    "name": "E5",
                    "midi": 76,
                    "time": 106.3332270000001,
                    "velocity": 0.7086614173228346,
                    "duration": 0.9999990000000025
                },
                {
                    "name": "E5",
                    "midi": 76,
                    "time": 107.3332260000001,
                    "velocity": 0.7086614173228346,
                    "duration": 0.3333329999999961
                },
                {
                    "name": "E5",
                    "midi": 76,
                    "time": 107.66655900000009,
                    "velocity": 0.7086614173228346,
                    "duration": 11.666655000000006
                },
                {
                    "name": "A4",
                    "midi": 69,
                    "time": 119.3332140000001,
                    "velocity": 0.7086614173228346,
                    "duration": 0.3333329999999961
                },
                {
                    "name": "D5",
                    "midi": 74,
                    "time": 119.6665470000001,
                    "velocity": 0.7086614173228346,
                    "duration": 0.9999990000000025
                },
                {
                    "name": "D5",
                    "midi": 74,
                    "time": 120.6665460000001,
                    "velocity": 0.7086614173228346,
                    "duration": 0.3333329999999961
                },
                {
                    "name": "D5",
                    "midi": 74,
                    "time": 120.99987900000009,
                    "velocity": 0.7086614173228346,
                    "duration": 0.6666660000000064
                },
                {
                    "name": "C5",
                    "midi": 72,
                    "time": 121.6665450000001,
                    "velocity": 0.7086614173228346,
                    "duration": 0.3333329999999961
                },
                {
                    "name": "B4",
                    "midi": 71,
                    "time": 121.9998780000001,
                    "velocity": 0.7086614173228346,
                    "duration": 0.3333329999999961
                },
                {
                    "name": "C5",
                    "midi": 72,
                    "time": 122.33321100000009,
                    "velocity": 0.7086614173228346,
                    "duration": 0.9999990000000025
                },
                {
                    "name": "C5",
                    "midi": 72,
                    "time": 123.3332100000001,
                    "velocity": 0.7086614173228346,
                    "duration": 0.3333329999999961
                },
                {
                    "name": "C5",
                    "midi": 72,
                    "time": 123.66654300000009,
                    "velocity": 0.7086614173228346,
                    "duration": 0.9999990000000025
                },
                {
                    "name": "B4",
                    "midi": 71,
                    "time": 124.66654200000009,
                    "velocity": 0.7086614173228346,
                    "duration": 0.3333329999999961
                },
                {
                    "name": "B4",
                    "midi": 71,
                    "time": 124.99987500000009,
                    "velocity": 0.7086614173228346,
                    "duration": 0.9999990000000025
                },
                {
                    "name": "A4",
                    "midi": 69,
                    "time": 125.99987400000009,
                    "velocity": 0.7086614173228346,
                    "duration": 0.3333329999999961
                },
                {
                    "name": "A4",
                    "midi": 69,
                    "time": 126.33320700000009,
                    "velocity": 0.7086614173228346,
                    "duration": 0.3333329999999961
                },
                {
                    "name": "A4",
                    "midi": 69,
                    "time": 126.66654000000008,
                    "velocity": 0.7086614173228346,
                    "duration": 0.3333329999999961
                },
                {
                    "name": "A4",
                    "midi": 69,
                    "time": 126.99987300000008,
                    "velocity": 0.7086614173228346,
                    "duration": 0.3333329999999961
                },
                {
                    "name": "B4",
                    "midi": 71,
                    "time": 127.33320600000008,
                    "velocity": 0.7086614173228346,
                    "duration": 0.3333329999999961
                },
                {
                    "name": "C#5",
                    "midi": 73,
                    "time": 127.66653900000007,
                    "velocity": 0.7086614173228346,
                    "duration": 0.3333329999999961
                },
                {
                    "name": "C#5",
                    "midi": 73,
                    "time": 127.99987200000007,
                    "velocity": 0.7086614173228346,
                    "duration": 0.3333330000000103
                },
                {
                    "name": "C#5",
                    "midi": 73,
                    "time": 128.33320500000008,
                    "velocity": 0.7086614173228346,
                    "duration": 0.3333330000000103
                },
                {
                    "name": "D5",
                    "midi": 74,
                    "time": 128.6665380000001,
                    "velocity": 0.7086614173228346,
                    "duration": 0.3333330000000103
                },
                {
                    "name": "E5",
                    "midi": 76,
                    "time": 128.9998710000001,
                    "velocity": 0.7086614173228346,
                    "duration": 0.3333330000000103
                },
                {
                    "name": "E5",
                    "midi": 76,
                    "time": 129.3332040000001,
                    "velocity": 0.7086614173228346,
                    "duration": 0.3333330000000103
                },
                {
                    "name": "E5",
                    "midi": 76,
                    "time": 129.66653700000012,
                    "velocity": 0.7086614173228346,
                    "duration": 0.3333330000000103
                },
                {
                    "name": "F5",
                    "midi": 77,
                    "time": 129.99987000000013,
                    "velocity": 0.7086614173228346,
                    "duration": 0.3333330000000103
                },
                {
                    "name": "G5",
                    "midi": 79,
                    "time": 130.33320300000014,
                    "velocity": 0.7086614173228346,
                    "duration": 0.3333330000000103
                },
                {
                    "name": "G5",
                    "midi": 79,
                    "time": 130.66653600000015,
                    "velocity": 0.7086614173228346,
                    "duration": 0.3333330000000103
                },
                {
                    "name": "F5",
                    "midi": 77,
                    "time": 130.99986900000016,
                    "velocity": 0.7086614173228346,
                    "duration": 0.3333330000000103
                },
                {
                    "name": "E5",
                    "midi": 76,
                    "time": 131.33320200000017,
                    "velocity": 0.7086614173228346,
                    "duration": 0.3333330000000103
                },
                {
                    "name": "F5",
                    "midi": 77,
                    "time": 131.66653500000018,
                    "velocity": 0.7086614173228346,
                    "duration": 0.3333330000000103
                },
                {
                    "name": "D5",
                    "midi": 74,
                    "time": 131.9998680000002,
                    "velocity": 0.7086614173228346,
                    "duration": 0.3333330000000103
                },
                {
                    "name": "D5",
                    "midi": 74,
                    "time": 132.3332010000002,
                    "velocity": 0.7086614173228346,
                    "duration": 0.3333330000000103
                },
                {
                    "name": "E5",
                    "midi": 76,
                    "time": 132.6665340000002,
                    "velocity": 0.7086614173228346,
                    "duration": 0.3333330000000103
                },
                {
                    "name": "F#5",
                    "midi": 78,
                    "time": 132.99986700000022,
                    "velocity": 0.7086614173228346,
                    "duration": 0.3333330000000103
                },
                {
                    "name": "F#5",
                    "midi": 78,
                    "time": 133.33320000000023,
                    "velocity": 0.7086614173228346,
                    "duration": 0.3333330000000103
                },
                {
                    "name": "F#5",
                    "midi": 78,
                    "time": 133.66653300000024,
                    "velocity": 0.7086614173228346,
                    "duration": 0.3333330000000103
                },
                {
                    "name": "G5",
                    "midi": 79,
                    "time": 133.99986600000025,
                    "velocity": 0.7086614173228346,
                    "duration": 0.3333330000000103
                },
                {
                    "name": "A5",
                    "midi": 81,
                    "time": 134.33319900000026,
                    "velocity": 0.7086614173228346,
                    "duration": 0.3333330000000103
                },
                {
                    "name": "A5",
                    "midi": 81,
                    "time": 134.66653200000027,
                    "velocity": 0.7086614173228346,
                    "duration": 0.3333330000000103
                },
                {
                    "name": "A5",
                    "midi": 81,
                    "time": 134.99986500000028,
                    "velocity": 0.7086614173228346,
                    "duration": 0.3333330000000103
                },
                {
                    "name": "A#5",
                    "midi": 82,
                    "time": 135.3331980000003,
                    "velocity": 0.7086614173228346,
                    "duration": 0.3333330000000103
                },
                {
                    "name": "C6",
                    "midi": 84,
                    "time": 135.6665310000003,
                    "velocity": 0.7086614173228346,
                    "duration": 0.3333330000000103
                },
                {
                    "name": "C6",
                    "midi": 84,
                    "time": 135.99986400000031,
                    "velocity": 0.7086614173228346,
                    "duration": 0.3333330000000103
                },
                {
                    "name": "A#5",
                    "midi": 82,
                    "time": 136.33319700000033,
                    "velocity": 0.7086614173228346,
                    "duration": 0.3333330000000103
                },
                {
                    "name": "A5",
                    "midi": 81,
                    "time": 136.66653000000034,
                    "velocity": 0.7086614173228346,
                    "duration": 0.3333330000000103
                },
                {
                    "name": "A#5",
                    "midi": 82,
                    "time": 136.99986300000035,
                    "velocity": 0.7086614173228346,
                    "duration": 0.3333330000000103
                },
                {
                    "name": "D6",
                    "midi": 86,
                    "time": 137.33319600000036,
                    "velocity": 0.7086614173228346,
                    "duration": 0.3333330000000103
                },
                {
                    "name": "D6",
                    "midi": 86,
                    "time": 137.66652900000037,
                    "velocity": 0.7086614173228346,
                    "duration": 0.3333330000000103
                },
                {
                    "name": "C6",
                    "midi": 84,
                    "time": 137.99986200000038,
                    "velocity": 0.7086614173228346,
                    "duration": 0.3333330000000103
                },
                {
                    "name": "A#5",
                    "midi": 82,
                    "time": 138.3331950000004,
                    "velocity": 0.7086614173228346,
                    "duration": 0.3333330000000103
                },
                {
                    "name": "A#5",
                    "midi": 82,
                    "time": 138.6665280000004,
                    "velocity": 0.7086614173228346,
                    "duration": 0.3333330000000103
                },
                {
                    "name": "A#5",
                    "midi": 82,
                    "time": 138.9998610000004,
                    "velocity": 0.7086614173228346,
                    "duration": 0.3333330000000103
                },
                {
                    "name": "A5",
                    "midi": 81,
                    "time": 139.33319400000042,
                    "velocity": 0.7086614173228346,
                    "duration": 0.3333330000000103
                },
                {
                    "name": "G5",
                    "midi": 79,
                    "time": 139.66652700000043,
                    "velocity": 0.7086614173228346,
                    "duration": 0.3333330000000103
                },
                {
                    "name": "G5",
                    "midi": 79,
                    "time": 139.99986000000044,
                    "velocity": 0.7086614173228346,
                    "duration": 0.3333330000000103
                },
                {
                    "name": "G5",
                    "midi": 79,
                    "time": 140.33319300000045,
                    "velocity": 0.7086614173228346,
                    "duration": 0.3333330000000103
                },
                {
                    "name": "F5",
                    "midi": 77,
                    "time": 140.66652600000046,
                    "velocity": 0.7086614173228346,
                    "duration": 0.3333330000000103
                },
                {
                    "name": "E5",
                    "midi": 76,
                    "time": 140.99985900000047,
                    "velocity": 0.7086614173228346,
                    "duration": 0.3333330000000103
                },
                {
                    "name": "E5",
                    "midi": 76,
                    "time": 141.33319200000048,
                    "velocity": 0.7086614173228346,
                    "duration": 0.3333330000000103
                },
                {
                    "name": "E5",
                    "midi": 76,
                    "time": 141.6665250000005,
                    "velocity": 0.7086614173228346,
                    "duration": 0.3333330000000103
                },
                {
                    "name": "D5",
                    "midi": 74,
                    "time": 141.9998580000005,
                    "velocity": 0.7086614173228346,
                    "duration": 0.3333330000000103
                },
                {
                    "name": "C#5",
                    "midi": 73,
                    "time": 142.3331910000005,
                    "velocity": 0.7086614173228346,
                    "duration": 0.3333330000000103
                },
                {
                    "name": "D5",
                    "midi": 74,
                    "time": 142.66652400000052,
                    "velocity": 0.7086614173228346,
                    "duration": 0.3333330000000103
                },
                {
                    "name": "C#5",
                    "midi": 73,
                    "time": 142.99985700000053,
                    "velocity": 0.7086614173228346,
                    "duration": 0.3333330000000103
                },
                {
                    "name": "D5",
                    "midi": 74,
                    "time": 143.33319000000054,
                    "velocity": 0.7086614173228346,
                    "duration": 0.3333330000000103
                },
                {
                    "name": "E5",
                    "midi": 76,
                    "time": 143.66652300000055,
                    "velocity": 0.7086614173228346,
                    "duration": 0.3333330000000103
                },
                {
                    "name": "F5",
                    "midi": 77,
                    "time": 143.99985600000056,
                    "velocity": 0.7086614173228346,
                    "duration": 0.3333330000000103
                },
                {
                    "name": "G5",
                    "midi": 79,
                    "time": 144.33318900000057,
                    "velocity": 0.7086614173228346,
                    "duration": 0.3333330000000103
                },
                {
                    "name": "A5",
                    "midi": 81,
                    "time": 144.66652200000058,
                    "velocity": 0.7086614173228346,
                    "duration": 0.3333330000000103
                },
                {
                    "name": "F5",
                    "midi": 77,
                    "time": 144.9998550000006,
                    "velocity": 0.7086614173228346,
                    "duration": 0.9999990000000025
                },
                {
                    "name": "E5",
                    "midi": 76,
                    "time": 145.9998540000006,
                    "velocity": 0.7086614173228346,
                    "duration": 0.3333330000000103
                },
                {
                    "name": "E5",
                    "midi": 76,
                    "time": 146.3331870000006,
                    "velocity": 0.7086614173228346,
                    "duration": 0.9999990000000025
                },
                {
                    "name": "D5",
                    "midi": 74,
                    "time": 147.3331860000006,
                    "velocity": 0.7086614173228346,
                    "duration": 0.3333330000000103
                },
                {
                    "name": "D5",
                    "midi": 74,
                    "time": 147.66651900000062,
                    "velocity": 0.7086614173228346,
                    "duration": 0.3333330000000103
                },
                {
                    "name": "C5",
                    "midi": 72,
                    "time": 147.99985200000063,
                    "velocity": 0.7086614173228346,
                    "duration": 0.3333330000000103
                },
                {
                    "name": "A#4",
                    "midi": 70,
                    "time": 148.33318500000064,
                    "velocity": 0.7086614173228346,
                    "duration": 0.3333330000000103
                },
                {
                    "name": "A4",
                    "midi": 69,
                    "time": 148.66651800000065,
                    "velocity": 0.7086614173228346,
                    "duration": 0.3333330000000103
                },
                {
                    "name": "G4",
                    "midi": 67,
                    "time": 148.99985100000066,
                    "velocity": 0.7086614173228346,
                    "duration": 0.3333330000000103
                },
                {
                    "name": "F4",
                    "midi": 65,
                    "time": 149.33318400000067,
                    "velocity": 0.7086614173228346,
                    "duration": 0.3333330000000103
                },
                {
                    "name": "E4",
                    "midi": 64,
                    "time": 149.66651700000068,
                    "velocity": 0.7086614173228346,
                    "duration": 0.3333330000000103
                },
                {
                    "name": "D4",
                    "midi": 62,
                    "time": 149.9998500000007,
                    "velocity": 0.7086614173228346,
                    "duration": 0.3333330000000103
                },
                {
                    "name": "A#4",
                    "midi": 70,
                    "time": 150.3331830000007,
                    "velocity": 0.7086614173228346,
                    "duration": 0.3333330000000103
                },
                {
                    "name": "A4",
                    "midi": 69,
                    "time": 150.6665160000007,
                    "velocity": 0.7086614173228346,
                    "duration": 0.3333330000000103
                },
                {
                    "name": "G4",
                    "midi": 67,
                    "time": 150.99984900000072,
                    "velocity": 0.7086614173228346,
                    "duration": 0.3333330000000103
                },
                {
                    "name": "F4",
                    "midi": 65,
                    "time": 151.33318200000073,
                    "velocity": 0.7086614173228346,
                    "duration": 0.3333330000000103
                },
                {
                    "name": "E4",
                    "midi": 64,
                    "time": 151.66651500000074,
                    "velocity": 0.7086614173228346,
                    "duration": 0.3333330000000103
                },
                {
                    "name": "D4",
                    "midi": 62,
                    "time": 151.99984800000075,
                    "velocity": 0.7086614173228346,
                    "duration": 0.3333330000000103
                },
                {
                    "name": "C#4",
                    "midi": 61,
                    "time": 152.33318100000076,
                    "velocity": 0.7086614173228346,
                    "duration": 0.3333330000000103
                },
                {
                    "name": "B3",
                    "midi": 59,
                    "time": 152.66651400000077,
                    "velocity": 0.7086614173228346,
                    "duration": 0.3333330000000103
                },
                {
                    "name": "A3",
                    "midi": 57,
                    "time": 152.99984700000078,
                    "velocity": 0.7086614173228346,
                    "duration": 0.3333330000000103
                },
                {
                    "name": "A3",
                    "midi": 57,
                    "time": 153.3331800000008,
                    "velocity": 0.7086614173228346,
                    "duration": 0.3333330000000103
                },
                {
                    "name": "A3",
                    "midi": 57,
                    "time": 153.6665130000008,
                    "velocity": 0.7086614173228346,
                    "duration": 0.3333330000000103
                },
                {
                    "name": "A3",
                    "midi": 57,
                    "time": 153.99984600000082,
                    "velocity": 0.7086614173228346,
                    "duration": 0.3333330000000103
                },
                {
                    "name": "A3",
                    "midi": 57,
                    "time": 154.33317900000083,
                    "velocity": 0.7086614173228346,
                    "duration": 0.3333330000000103
                },
                {
                    "name": "B3",
                    "midi": 59,
                    "time": 154.66651200000084,
                    "velocity": 0.7086614173228346,
                    "duration": 0.3333330000000103
                },
                {
                    "name": "C#4",
                    "midi": 61,
                    "time": 154.99984500000085,
                    "velocity": 0.7086614173228346,
                    "duration": 0.3333330000000103
                },
                {
                    "name": "C#4",
                    "midi": 61,
                    "time": 155.33317800000086,
                    "velocity": 0.7086614173228346,
                    "duration": 0.3333330000000103
                },
                {
                    "name": "C#4",
                    "midi": 61,
                    "time": 155.66651100000087,
                    "velocity": 0.7086614173228346,
                    "duration": 0.3333330000000103
                },
                {
                    "name": "D4",
                    "midi": 62,
                    "time": 155.99984400000088,
                    "velocity": 0.7086614173228346,
                    "duration": 0.3333330000000103
                },
                {
                    "name": "E4",
                    "midi": 64,
                    "time": 156.3331770000009,
                    "velocity": 0.7086614173228346,
                    "duration": 0.3333330000000103
                },
                {
                    "name": "E4",
                    "midi": 64,
                    "time": 156.6665100000009,
                    "velocity": 0.7086614173228346,
                    "duration": 0.3333330000000103
                },
                {
                    "name": "E4",
                    "midi": 64,
                    "time": 156.9998430000009,
                    "velocity": 0.7086614173228346,
                    "duration": 0.3333330000000103
                },
                {
                    "name": "F4",
                    "midi": 65,
                    "time": 157.33317600000092,
                    "velocity": 0.7086614173228346,
                    "duration": 0.3333330000000103
                },
                {
                    "name": "G4",
                    "midi": 67,
                    "time": 157.66650900000093,
                    "velocity": 0.7086614173228346,
                    "duration": 0.3333330000000103
                },
                {
                    "name": "G4",
                    "midi": 67,
                    "time": 157.99984200000094,
                    "velocity": 0.7086614173228346,
                    "duration": 0.3333330000000103
                },
                {
                    "name": "G4",
                    "midi": 67,
                    "time": 158.33317500000095,
                    "velocity": 0.7086614173228346,
                    "duration": 0.3333330000000103
                },
                {
                    "name": "A4",
                    "midi": 69,
                    "time": 158.66650800000096,
                    "velocity": 0.7086614173228346,
                    "duration": 0.3333330000000103
                },
                {
                    "name": "A#4",
                    "midi": 70,
                    "time": 158.99984100000097,
                    "velocity": 0.7086614173228346,
                    "duration": 0.3333330000000103
                },
                {
                    "name": "A#4",
                    "midi": 70,
                    "time": 159.33317400000098,
                    "velocity": 0.7086614173228346,
                    "duration": 0.3333330000000103
                },
                {
                    "name": "A#4",
                    "midi": 70,
                    "time": 159.666507000001,
                    "velocity": 0.7086614173228346,
                    "duration": 0.3333330000000103
                },
                {
                    "name": "A#4",
                    "midi": 70,
                    "time": 159.999840000001,
                    "velocity": 0.7086614173228346,
                    "duration": 0.3333330000000103
                },
                {
                    "name": "A4",
                    "midi": 69,
                    "time": 160.333173000001,
                    "velocity": 0.7086614173228346,
                    "duration": 0.3333330000000103
                },
                {
                    "name": "G4",
                    "midi": 67,
                    "time": 160.66650600000102,
                    "velocity": 0.7086614173228346,
                    "duration": 0.3333330000000103
                },
                {
                    "name": "F4",
                    "midi": 65,
                    "time": 160.99983900000103,
                    "velocity": 0.7086614173228346,
                    "duration": 0.3333330000000103
                },
                {
                    "name": "E4",
                    "midi": 64,
                    "time": 161.33317200000104,
                    "velocity": 0.7086614173228346,
                    "duration": 0.3333330000000103
                },
                {
                    "name": "D4",
                    "midi": 62,
                    "time": 161.66650500000105,
                    "velocity": 0.7086614173228346,
                    "duration": 0.3333330000000103
                },
                {
                    "name": "E4",
                    "midi": 64,
                    "time": 161.99983800000106,
                    "velocity": 0.7086614173228346,
                    "duration": 0.3333330000000103
                },
                {
                    "name": "F4",
                    "midi": 65,
                    "time": 162.33317100000107,
                    "velocity": 0.7086614173228346,
                    "duration": 0.3333330000000103
                },
                {
                    "name": "G4",
                    "midi": 67,
                    "time": 162.66650400000108,
                    "velocity": 0.7086614173228346,
                    "duration": 0.3333330000000103
                },
                {
                    "name": "A4",
                    "midi": 69,
                    "time": 162.9998370000011,
                    "velocity": 0.7086614173228346,
                    "duration": 0.3333330000000103
                },
                {
                    "name": "B4",
                    "midi": 71,
                    "time": 163.3331700000011,
                    "velocity": 0.7086614173228346,
                    "duration": 0.3333330000000103
                },
                {
                    "name": "C#5",
                    "midi": 73,
                    "time": 163.66650300000111,
                    "velocity": 0.7086614173228346,
                    "duration": 0.3333330000000103
                },
                {
                    "name": "A4",
                    "midi": 69,
                    "time": 163.99983600000112,
                    "velocity": 0.7086614173228346,
                    "duration": 0.3333330000000103
                },
                {
                    "name": "D5",
                    "midi": 74,
                    "time": 164.33316900000113,
                    "velocity": 0.7086614173228346,
                    "duration": 0.3333330000000103
                },
                {
                    "name": "F4",
                    "midi": 65,
                    "time": 164.66650200000115,
                    "velocity": 0.7086614173228346,
                    "duration": 0.3333330000000103
                },
                {
                    "name": "E4",
                    "midi": 64,
                    "time": 164.99983500000116,
                    "velocity": 0.7086614173228346,
                    "duration": 0.9999990000000025
                },
                {
                    "name": "D4",
                    "midi": 62,
                    "time": 165.99983400000116,
                    "velocity": 0.7086614173228346,
                    "duration": 0.3333330000000103
                },
                {
                    "name": "D4",
                    "midi": 62,
                    "time": 166.33316700000117,
                    "velocity": 0.7086614173228346,
                    "duration": 2.6666639999999973
                }
            ],
            "controlChanges": {},
            "id": 5,
            "name": "",
            "instrumentNumber": 48,
            "instrument": "string ensemble 1",
            "instrumentFamily": "ensemble",
            "channelNumber": 5,
            "isPercussion": false
        },
        {
            "startTime": 0,
            "duration": 168.99983100000108,
            "length": 350,
            "notes": [
                {
                    "name": "A4",
                    "midi": 69,
                    "time": 0,
                    "velocity": 0.7086614173228346,
                    "duration": 0.333333
                },
                {
                    "name": "D5",
                    "midi": 74,
                    "time": 0.333333,
                    "velocity": 0.7086614173228346,
                    "duration": 0.49999950000000004
                },
                {
                    "name": "D5",
                    "midi": 74,
                    "time": 0.8333325,
                    "velocity": 0.7086614173228346,
                    "duration": 0.16666650000000005
                },
                {
                    "name": "F5",
                    "midi": 77,
                    "time": 0.9999990000000001,
                    "velocity": 0.7086614173228346,
                    "duration": 1.3333320000000002
                },
                {
                    "name": "D5",
                    "midi": 74,
                    "time": 2.6666640000000004,
                    "velocity": 0.7086614173228346,
                    "duration": 0.3333330000000001
                },
                {
                    "name": "F5",
                    "midi": 77,
                    "time": 2.9999970000000005,
                    "velocity": 0.7086614173228346,
                    "duration": 0.49999949999999993
                },
                {
                    "name": "F5",
                    "midi": 77,
                    "time": 3.4999965000000004,
                    "velocity": 0.7086614173228346,
                    "duration": 0.16666649999999983
                },
                {
                    "name": "A5",
                    "midi": 81,
                    "time": 3.6666630000000002,
                    "velocity": 0.7086614173228346,
                    "duration": 1.333332
                },
                {
                    "name": "C#5",
                    "midi": 73,
                    "time": 5.416661250000001,
                    "velocity": 0.7086614173228346,
                    "duration": 0.048611062500000024
                },
                {
                    "name": "D5",
                    "midi": 74,
                    "time": 5.465272312500001,
                    "velocity": 0.7086614173228346,
                    "duration": 0.048611062500000024
                },
                {
                    "name": "E5",
                    "midi": 76,
                    "time": 5.515619484375001,
                    "velocity": 0.7086614173228346,
                    "duration": 0.048611062500000024
                },
                {
                    "name": "F5",
                    "midi": 77,
                    "time": 5.5659666562500005,
                    "velocity": 0.7086614173228346,
                    "duration": 0.048611062500000024
                },
                {
                    "name": "G5",
                    "midi": 79,
                    "time": 5.6163138281250005,
                    "velocity": 0.7086614173228346,
                    "duration": 0.048611062500000024
                },
                {
                    "name": "A5",
                    "midi": 81,
                    "time": 5.666661,
                    "velocity": 0.7086614173228346,
                    "duration": 0.4999995000000004
                },
                {
                    "name": "A5",
                    "midi": 81,
                    "time": 6.166660500000001,
                    "velocity": 0.7086614173228346,
                    "duration": 0.16666649999999983
                },
                {
                    "name": "D6",
                    "midi": 86,
                    "time": 6.333327000000001,
                    "velocity": 0.7086614173228346,
                    "duration": 0.9999989999999999
                },
                {
                    "name": "C6",
                    "midi": 84,
                    "time": 7.3333260000000005,
                    "velocity": 0.7086614173228346,
                    "duration": 0.10937489062500028
                },
                {
                    "name": "A#5",
                    "midi": 82,
                    "time": 7.444437000000001,
                    "velocity": 0.7086614173228346,
                    "duration": 0.10937489062500028
                },
                {
                    "name": "A5",
                    "midi": 81,
                    "time": 7.555548000000001,
                    "velocity": 0.7086614173228346,
                    "duration": 0.10937489062500028
                },
                {
                    "name": "A#5",
                    "midi": 82,
                    "time": 7.666659000000001,
                    "velocity": 0.7086614173228346,
                    "duration": 0.4999994999999995
                },
                {
                    "name": "A5",
                    "midi": 81,
                    "time": 8.1666585,
                    "velocity": 0.7086614173228346,
                    "duration": 0.16666649999999983
                },
                {
                    "name": "G5",
                    "midi": 79,
                    "time": 8.333325,
                    "velocity": 0.7086614173228346,
                    "duration": 0.4999994999999995
                },
                {
                    "name": "F5",
                    "midi": 77,
                    "time": 8.8333245,
                    "velocity": 0.7086614173228346,
                    "duration": 0.16666649999999983
                },
                {
                    "name": "G5",
                    "midi": 79,
                    "time": 8.999991,
                    "velocity": 0.7086614173228346,
                    "duration": 0.9999990000000007
                },
                {
                    "name": "A5",
                    "midi": 81,
                    "time": 9.99999,
                    "velocity": 0.7086614173228346,
                    "duration": 0.33333299999999966
                },
                {
                    "name": "F5",
                    "midi": 77,
                    "time": 10.333323,
                    "velocity": 0.7086614173228346,
                    "duration": 0.9999990000000007
                },
                {
                    "name": "E5",
                    "midi": 76,
                    "time": 11.333322,
                    "velocity": 0.7086614173228346,
                    "duration": 0.33333299999999966
                },
                {
                    "name": "E5",
                    "midi": 76,
                    "time": 11.666655,
                    "velocity": 0.7086614173228346,
                    "duration": 0.4999994999999995
                },
                {
                    "name": "E5",
                    "midi": 76,
                    "time": 12.1666545,
                    "velocity": 0.7086614173228346,
                    "duration": 0.16666649999999983
                },
                {
                    "name": "C6",
                    "midi": 84,
                    "time": 12.333321,
                    "velocity": 0.7086614173228346,
                    "duration": 0.4999994999999995
                },
                {
                    "name": "C6",
                    "midi": 84,
                    "time": 12.8333205,
                    "velocity": 0.7086614173228346,
                    "duration": 0.16666649999999983
                },
                {
                    "name": "C6",
                    "midi": 84,
                    "time": 12.999986999999999,
                    "velocity": 0.7086614173228346,
                    "duration": 0.9999990000000007
                },
                {
                    "name": "C6",
                    "midi": 84,
                    "time": 13.999986,
                    "velocity": 0.7086614173228346,
                    "duration": 0.10937489062500028
                },
                {
                    "name": "B5",
                    "midi": 83,
                    "time": 14.111097000000001,
                    "velocity": 0.7086614173228346,
                    "duration": 0.10937489062500028
                },
                {
                    "name": "A5",
                    "midi": 81,
                    "time": 14.222208000000002,
                    "velocity": 0.7086614173228346,
                    "duration": 0.10937489062500028
                },
                {
                    "name": "B5",
                    "midi": 83,
                    "time": 14.333319000000003,
                    "velocity": 0.7086614173228346,
                    "duration": 0.6666659999999993
                },
                {
                    "name": "E5",
                    "midi": 76,
                    "time": 14.999985000000002,
                    "velocity": 0.7086614173228346,
                    "duration": 0.6666659999999993
                },
                {
                    "name": "A5",
                    "midi": 81,
                    "time": 15.666651000000002,
                    "velocity": 0.7086614173228346,
                    "duration": 0.999998999999999
                },
                {
                    "name": "B5",
                    "midi": 83,
                    "time": 16.66665,
                    "velocity": 0.7086614173228346,
                    "duration": 0.33333299999999966
                },
                {
                    "name": "G#5",
                    "midi": 80,
                    "time": 16.999983,
                    "velocity": 0.7086614173228346,
                    "duration": 0.999998999999999
                },
                {
                    "name": "E5",
                    "midi": 76,
                    "time": 17.999982,
                    "velocity": 0.7086614173228346,
                    "duration": 0.33333299999999966
                },
                {
                    "name": "F5",
                    "midi": 77,
                    "time": 18.333315,
                    "velocity": 0.7086614173228346,
                    "duration": 0.999998999999999
                },
                {
                    "name": "F5",
                    "midi": 77,
                    "time": 19.4999805,
                    "velocity": 0.7086614173228346,
                    "duration": 0.05381939062500152
                },
                {
                    "name": "E5",
                    "midi": 76,
                    "time": 19.555536,
                    "velocity": 0.7086614173228346,
                    "duration": 0.05381939062500152
                },
                {
                    "name": "D5",
                    "midi": 74,
                    "time": 19.6110915,
                    "velocity": 0.7086614173228346,
                    "duration": 0.05381939062500152
                },
                {
                    "name": "E5",
                    "midi": 76,
                    "time": 19.666647,
                    "velocity": 0.7086614173228346,
                    "duration": 0.6666659999999993
                },
                {
                    "name": "A5",
                    "midi": 81,
                    "time": 20.333313,
                    "velocity": 0.7086614173228346,
                    "duration": 1.3333319999999986
                },
                {
                    "name": "G#5",
                    "midi": 80,
                    "time": 21.666645,
                    "velocity": 0.7086614173228346,
                    "duration": 0.6666659999999993
                },
                {
                    "name": "A5",
                    "midi": 81,
                    "time": 22.333311,
                    "velocity": 0.7086614173228346,
                    "duration": 0.49999950000000126
                },
                {
                    "name": "G5",
                    "midi": 79,
                    "time": 22.8333105,
                    "velocity": 0.7086614173228346,
                    "duration": 0.1666665000000016
                },
                {
                    "name": "F5",
                    "midi": 77,
                    "time": 22.999977,
                    "velocity": 0.7086614173228346,
                    "duration": 0.49999950000000126
                },
                {
                    "name": "E5",
                    "midi": 76,
                    "time": 23.499976500000002,
                    "velocity": 0.7086614173228346,
                    "duration": 0.1666665000000016
                },
                {
                    "name": "D5",
                    "midi": 74,
                    "time": 23.666643000000004,
                    "velocity": 0.7086614173228346,
                    "duration": 0.49999950000000126
                },
                {
                    "name": "C5",
                    "midi": 72,
                    "time": 24.166642500000005,
                    "velocity": 0.7086614173228346,
                    "duration": 0.1666665000000016
                },
                {
                    "name": "B4",
                    "midi": 71,
                    "time": 24.333309000000007,
                    "velocity": 0.7086614173228346,
                    "duration": 0.49999950000000126
                },
                {
                    "name": "A4",
                    "midi": 69,
                    "time": 24.833308500000008,
                    "velocity": 0.7086614173228346,
                    "duration": 0.1666665000000016
                },
                {
                    "name": "E4",
                    "midi": 64,
                    "time": 24.99997500000001,
                    "velocity": 0.7086614173228346,
                    "duration": 1.3333319999999986
                },
                {
                    "name": "B4",
                    "midi": 71,
                    "time": 26.666640000000008,
                    "velocity": 0.7086614173228346,
                    "duration": 0.33333299999999966
                },
                {
                    "name": "E5",
                    "midi": 76,
                    "time": 26.999973000000008,
                    "velocity": 0.7086614173228346,
                    "duration": 0.49999950000000126
                },
                {
                    "name": "E5",
                    "midi": 76,
                    "time": 27.49997250000001,
                    "velocity": 0.7086614173228346,
                    "duration": 0.1666665000000016
                },
                {
                    "name": "G#5",
                    "midi": 80,
                    "time": 27.66663900000001,
                    "velocity": 0.7086614173228346,
                    "duration": 1.3333319999999986
                },
                {
                    "name": "E5",
                    "midi": 76,
                    "time": 29.33330400000001,
                    "velocity": 0.7086614173228346,
                    "duration": 0.33333299999999966
                },
                {
                    "name": "G#5",
                    "midi": 80,
                    "time": 29.66663700000001,
                    "velocity": 0.7086614173228346,
                    "duration": 0.49999950000000126
                },
                {
                    "name": "G#5",
                    "midi": 80,
                    "time": 30.16663650000001,
                    "velocity": 0.7086614173228346,
                    "duration": 0.1666665000000016
                },
                {
                    "name": "B5",
                    "midi": 83,
                    "time": 30.33330300000001,
                    "velocity": 0.7086614173228346,
                    "duration": 0.999998999999999
                },
                {
                    "name": "A5",
                    "midi": 81,
                    "time": 31.499968500000012,
                    "velocity": 0.7086614173228346,
                    "duration": 0.05381939062500152
                },
                {
                    "name": "G#5",
                    "midi": 80,
                    "time": 31.555524000000013,
                    "velocity": 0.7086614173228346,
                    "duration": 0.05381939062500152
                },
                {
                    "name": "F#5",
                    "midi": 78,
                    "time": 31.611079500000013,
                    "velocity": 0.7086614173228346,
                    "duration": 0.05381939062500152
                },
                {
                    "name": "E5",
                    "midi": 76,
                    "time": 31.666635000000014,
                    "velocity": 0.7086614173228346,
                    "duration": 0.49999950000000126
                },
                {
                    "name": "D5",
                    "midi": 74,
                    "time": 32.166634500000015,
                    "velocity": 0.7086614173228346,
                    "duration": 0.16666649999999805
                },
                {
                    "name": "C5",
                    "midi": 72,
                    "time": 32.33330100000001,
                    "velocity": 0.7086614173228346,
                    "duration": 0.49999950000000126
                },
                {
                    "name": "B4",
                    "midi": 71,
                    "time": 32.833300500000014,
                    "velocity": 0.7086614173228346,
                    "duration": 0.16666649999999805
                },
                {
                    "name": "C5",
                    "midi": 72,
                    "time": 32.99996700000001,
                    "velocity": 0.7086614173228346,
                    "duration": 0.49999950000000126
                },
                {
                    "name": "E5",
                    "midi": 76,
                    "time": 33.49996650000001,
                    "velocity": 0.7086614173228346,
                    "duration": 0.16666649999999805
                },
                {
                    "name": "A5",
                    "midi": 81,
                    "time": 33.66663300000001,
                    "velocity": 0.7086614173228346,
                    "duration": 0.49999950000000126
                },
                {
                    "name": "C5",
                    "midi": 72,
                    "time": 34.16663250000001,
                    "velocity": 0.7086614173228346,
                    "duration": 0.16666649999999805
                },
                {
                    "name": "B4",
                    "midi": 71,
                    "time": 34.33329900000001,
                    "velocity": 0.7086614173228346,
                    "duration": 0.9999990000000025
                },
                {
                    "name": "A4",
                    "midi": 69,
                    "time": 35.33329800000001,
                    "velocity": 0.7086614173228346,
                    "duration": 0.3333330000000032
                },
                {
                    "name": "A4",
                    "midi": 69,
                    "time": 35.66663100000002,
                    "velocity": 0.7086614173228346,
                    "duration": 1.3333319999999986
                },
                {
                    "name": "A4",
                    "midi": 69,
                    "time": 37.33329600000002,
                    "velocity": 0.7086614173228346,
                    "duration": 0.3333330000000032
                },
                {
                    "name": "D5",
                    "midi": 74,
                    "time": 37.66662900000002,
                    "velocity": 0.7086614173228346,
                    "duration": 0.49999950000000126
                },
                {
                    "name": "D5",
                    "midi": 74,
                    "time": 38.16662850000002,
                    "velocity": 0.7086614173228346,
                    "duration": 0.16666649999999805
                },
                {
                    "name": "A4",
                    "midi": 69,
                    "time": 38.33329500000002,
                    "velocity": 0.7086614173228346,
                    "duration": 2.6666639999999973
                },
                {
                    "name": "A4",
                    "midi": 69,
                    "time": 41.33329200000002,
                    "velocity": 0.7086614173228346,
                    "duration": 0.3333330000000032
                },
                {
                    "name": "A4",
                    "midi": 69,
                    "time": 41.666625000000025,
                    "velocity": 0.7086614173228346,
                    "duration": 0.3333330000000032
                },
                {
                    "name": "B4",
                    "midi": 71,
                    "time": 41.99995800000003,
                    "velocity": 0.7086614173228346,
                    "duration": 0.3333330000000032
                },
                {
                    "name": "C#5",
                    "midi": 73,
                    "time": 42.33329100000003,
                    "velocity": 0.7086614173228346,
                    "duration": 0.3333330000000032
                },
                {
                    "name": "C#5",
                    "midi": 73,
                    "time": 42.666624000000034,
                    "velocity": 0.7086614173228346,
                    "duration": 0.3333330000000032
                },
                {
                    "name": "C#5",
                    "midi": 73,
                    "time": 42.99995700000004,
                    "velocity": 0.7086614173228346,
                    "duration": 0.3333330000000032
                },
                {
                    "name": "D5",
                    "midi": 74,
                    "time": 43.33329000000004,
                    "velocity": 0.7086614173228346,
                    "duration": 0.3333330000000032
                },
                {
                    "name": "E5",
                    "midi": 76,
                    "time": 43.666623000000044,
                    "velocity": 0.7086614173228346,
                    "duration": 0.3333330000000032
                },
                {
                    "name": "E5",
                    "midi": 76,
                    "time": 43.99995600000005,
                    "velocity": 0.7086614173228346,
                    "duration": 0.3333330000000032
                },
                {
                    "name": "E5",
                    "midi": 76,
                    "time": 44.33328900000005,
                    "velocity": 0.7086614173228346,
                    "duration": 0.3333330000000032
                },
                {
                    "name": "F5",
                    "midi": 77,
                    "time": 44.666622000000054,
                    "velocity": 0.7086614173228346,
                    "duration": 0.3333330000000032
                },
                {
                    "name": "G5",
                    "midi": 79,
                    "time": 44.99995500000006,
                    "velocity": 0.7086614173228346,
                    "duration": 0.3333330000000032
                },
                {
                    "name": "G5",
                    "midi": 79,
                    "time": 45.33328800000006,
                    "velocity": 0.7086614173228346,
                    "duration": 0.3333330000000032
                },
                {
                    "name": "F5",
                    "midi": 77,
                    "time": 45.66662100000006,
                    "velocity": 0.7086614173228346,
                    "duration": 0.3333330000000032
                },
                {
                    "name": "E5",
                    "midi": 76,
                    "time": 45.999954000000066,
                    "velocity": 0.7086614173228346,
                    "duration": 0.3333330000000032
                },
                {
                    "name": "F5",
                    "midi": 77,
                    "time": 46.33328700000007,
                    "velocity": 0.7086614173228346,
                    "duration": 0.9999990000000025
                },
                {
                    "name": "D5",
                    "midi": 74,
                    "time": 47.33328600000007,
                    "velocity": 0.7086614173228346,
                    "duration": 0.3333330000000032
                },
                {
                    "name": "G5",
                    "midi": 79,
                    "time": 47.666619000000075,
                    "velocity": 0.7086614173228346,
                    "duration": 0.6666659999999993
                },
                {
                    "name": "G5",
                    "midi": 79,
                    "time": 48.333285000000075,
                    "velocity": 0.7086614173228346,
                    "duration": 0.3333330000000032
                },
                {
                    "name": "A5",
                    "midi": 81,
                    "time": 48.66661800000008,
                    "velocity": 0.7086614173228346,
                    "duration": 0.3333330000000032
                },
                {
                    "name": "A#5",
                    "midi": 82,
                    "time": 48.99995100000008,
                    "velocity": 0.7086614173228346,
                    "duration": 0.9999990000000025
                },
                {
                    "name": "A5",
                    "midi": 81,
                    "time": 49.999950000000084,
                    "velocity": 0.7086614173228346,
                    "duration": 0.3333330000000032
                },
                {
                    "name": "G5",
                    "midi": 79,
                    "time": 50.33328300000009,
                    "velocity": 0.7086614173228346,
                    "duration": 0.9999990000000025
                },
                {
                    "name": "F5",
                    "midi": 77,
                    "time": 51.33328200000009,
                    "velocity": 0.7086614173228346,
                    "duration": 0.3333330000000032
                },
                {
                    "name": "E5",
                    "midi": 76,
                    "time": 51.66661500000009,
                    "velocity": 0.7086614173228346,
                    "duration": 0.9999990000000025
                },
                {
                    "name": "E5",
                    "midi": 76,
                    "time": 52.666614000000095,
                    "velocity": 0.7086614173228346,
                    "duration": 0.3333330000000032
                },
                {
                    "name": "A5",
                    "midi": 81,
                    "time": 52.9999470000001,
                    "velocity": 0.7086614173228346,
                    "duration": 0.9999990000000025
                },
                {
                    "name": "A5",
                    "midi": 81,
                    "time": 53.9999460000001,
                    "velocity": 0.7086614173228346,
                    "duration": 0.3333330000000032
                },
                {
                    "name": "A5",
                    "midi": 81,
                    "time": 54.333279000000104,
                    "velocity": 0.7086614173228346,
                    "duration": 0.9999990000000025
                },
                {
                    "name": "C#5",
                    "midi": 73,
                    "time": 55.33327800000011,
                    "velocity": 0.7086614173228346,
                    "duration": 0.3333330000000032
                },
                {
                    "name": "C#5",
                    "midi": 73,
                    "time": 55.66661100000011,
                    "velocity": 0.7086614173228346,
                    "duration": 0.3333330000000032
                },
                {
                    "name": "C#5",
                    "midi": 73,
                    "time": 55.99994400000011,
                    "velocity": 0.7086614173228346,
                    "duration": 0.3333330000000032
                },
                {
                    "name": "D5",
                    "midi": 74,
                    "time": 56.333277000000116,
                    "velocity": 0.7086614173228346,
                    "duration": 0.3333330000000032
                },
                {
                    "name": "E5",
                    "midi": 76,
                    "time": 56.66661000000012,
                    "velocity": 0.7086614173228346,
                    "duration": 0.3333330000000032
                },
                {
                    "name": "A4",
                    "midi": 69,
                    "time": 56.99994300000012,
                    "velocity": 0.7086614173228346,
                    "duration": 1.3333319999999986
                },
                {
                    "name": "D5",
                    "midi": 74,
                    "time": 58.666608000000124,
                    "velocity": 0.7086614173228346,
                    "duration": 0.3333330000000032
                },
                {
                    "name": "D5",
                    "midi": 74,
                    "time": 58.99994100000013,
                    "velocity": 0.7086614173228346,
                    "duration": 0.3333330000000032
                },
                {
                    "name": "C5",
                    "midi": 72,
                    "time": 59.33327400000013,
                    "velocity": 0.7086614173228346,
                    "duration": 0.3333330000000032
                },
                {
                    "name": "A#4",
                    "midi": 70,
                    "time": 59.666607000000134,
                    "velocity": 0.7086614173228346,
                    "duration": 0.3333330000000032
                },
                {
                    "name": "A#4",
                    "midi": 70,
                    "time": 59.99994000000014,
                    "velocity": 0.7086614173228346,
                    "duration": 0.3333330000000032
                },
                {
                    "name": "A#4",
                    "midi": 70,
                    "time": 60.33327300000014,
                    "velocity": 0.7086614173228346,
                    "duration": 0.3333330000000032
                },
                {
                    "name": "A4",
                    "midi": 69,
                    "time": 60.666606000000144,
                    "velocity": 0.7086614173228346,
                    "duration": 0.3333330000000032
                },
                {
                    "name": "G4",
                    "midi": 67,
                    "time": 60.99993900000015,
                    "velocity": 0.7086614173228346,
                    "duration": 0.9999990000000025
                },
                {
                    "name": "G4",
                    "midi": 67,
                    "time": 61.99993800000015,
                    "velocity": 0.7086614173228346,
                    "duration": 0.3333330000000032
                },
                {
                    "name": "G4",
                    "midi": 67,
                    "time": 62.33327100000015,
                    "velocity": 0.7086614173228346,
                    "duration": 0.9999990000000025
                },
                {
                    "name": "A4",
                    "midi": 69,
                    "time": 63.333270000000155,
                    "velocity": 0.7086614173228346,
                    "duration": 0.3333330000000032
                },
                {
                    "name": "F4",
                    "midi": 65,
                    "time": 63.66660300000016,
                    "velocity": 0.7086614173228346,
                    "duration": 0.9999989999999954
                },
                {
                    "name": "E4",
                    "midi": 64,
                    "time": 64.66660200000015,
                    "velocity": 0.7086614173228346,
                    "duration": 0.3333329999999961
                },
                {
                    "name": "E4",
                    "midi": 64,
                    "time": 64.99993500000015,
                    "velocity": 0.7086614173228346,
                    "duration": 1.3333319999999986
                },
                {
                    "name": "A4",
                    "midi": 69,
                    "time": 66.66660000000014,
                    "velocity": 0.7086614173228346,
                    "duration": 0.3333329999999961
                },
                {
                    "name": "A4",
                    "midi": 69,
                    "time": 66.99993300000014,
                    "velocity": 0.7086614173228346,
                    "duration": 0.3333329999999961
                },
                {
                    "name": "G4",
                    "midi": 67,
                    "time": 67.33326600000014,
                    "velocity": 0.7086614173228346,
                    "duration": 0.3333329999999961
                },
                {
                    "name": "F#4",
                    "midi": 66,
                    "time": 67.66659900000013,
                    "velocity": 0.7086614173228346,
                    "duration": 0.6666660000000064
                },
                {
                    "name": "D4",
                    "midi": 62,
                    "time": 68.33326500000014,
                    "velocity": 0.7086614173228346,
                    "duration": 0.6666660000000064
                },
                {
                    "name": "G4",
                    "midi": 67,
                    "time": 68.99993100000015,
                    "velocity": 0.7086614173228346,
                    "duration": 0.6666660000000064
                },
                {
                    "name": "G4",
                    "midi": 67,
                    "time": 69.66659700000015,
                    "velocity": 0.7086614173228346,
                    "duration": 0.3333329999999961
                },
                {
                    "name": "A4",
                    "midi": 69,
                    "time": 69.99993000000015,
                    "velocity": 0.7086614173228346,
                    "duration": 0.3333329999999961
                },
                {
                    "name": "A#4",
                    "midi": 70,
                    "time": 70.33326300000014,
                    "velocity": 0.7086614173228346,
                    "duration": 1.3333319999999986
                },
                {
                    "name": "G4",
                    "midi": 67,
                    "time": 71.99992800000014,
                    "velocity": 0.7086614173228346,
                    "duration": 0.3333329999999961
                },
                {
                    "name": "G4",
                    "midi": 67,
                    "time": 72.33326100000014,
                    "velocity": 0.7086614173228346,
                    "duration": 0.3333329999999961
                },
                {
                    "name": "F4",
                    "midi": 65,
                    "time": 72.66659400000013,
                    "velocity": 0.7086614173228346,
                    "duration": 0.3333329999999961
                },
                {
                    "name": "E4",
                    "midi": 64,
                    "time": 72.99992700000013,
                    "velocity": 0.7086614173228346,
                    "duration": 0.6666660000000064
                },
                {
                    "name": "C4",
                    "midi": 60,
                    "time": 73.66659300000013,
                    "velocity": 0.7086614173228346,
                    "duration": 0.6666660000000064
                },
                {
                    "name": "F4",
                    "midi": 65,
                    "time": 74.33325900000014,
                    "velocity": 0.7086614173228346,
                    "duration": 0.6666660000000064
                },
                {
                    "name": "F4",
                    "midi": 65,
                    "time": 74.99992500000015,
                    "velocity": 0.7086614173228346,
                    "duration": 0.3333329999999961
                },
                {
                    "name": "G4",
                    "midi": 67,
                    "time": 75.33325800000014,
                    "velocity": 0.7086614173228346,
                    "duration": 0.3333329999999961
                },
                {
                    "name": "A4",
                    "midi": 69,
                    "time": 75.66659100000014,
                    "velocity": 0.7086614173228346,
                    "duration": 0.9999990000000025
                },
                {
                    "name": "A4",
                    "midi": 69,
                    "time": 76.66659000000014,
                    "velocity": 0.7086614173228346,
                    "duration": 0.3333329999999961
                },
                {
                    "name": "A#4",
                    "midi": 70,
                    "time": 76.99992300000014,
                    "velocity": 0.7086614173228346,
                    "duration": 0.6666660000000064
                },
                {
                    "name": "C5",
                    "midi": 72,
                    "time": 77.66658900000014,
                    "velocity": 0.7086614173228346,
                    "duration": 0.6666660000000064
                },
                {
                    "name": "D5",
                    "midi": 74,
                    "time": 78.33325500000015,
                    "velocity": 0.7086614173228346,
                    "duration": 0.9999990000000025
                },
                {
                    "name": "D5",
                    "midi": 74,
                    "time": 79.33325400000015,
                    "velocity": 0.7086614173228346,
                    "duration": 0.3333329999999961
                },
                {
                    "name": "E5",
                    "midi": 76,
                    "time": 79.66658700000015,
                    "velocity": 0.7086614173228346,
                    "duration": 0.6666660000000064
                },
                {
                    "name": "F5",
                    "midi": 77,
                    "time": 80.33325300000016,
                    "velocity": 0.7086614173228346,
                    "duration": 0.6666660000000064
                },
                {
                    "name": "E5",
                    "midi": 76,
                    "time": 80.99991900000016,
                    "velocity": 0.7086614173228346,
                    "duration": 0.9999990000000025
                },
                {
                    "name": "G5",
                    "midi": 79,
                    "time": 81.99991800000016,
                    "velocity": 0.7086614173228346,
                    "duration": 0.3333329999999961
                },
                {
                    "name": "C6",
                    "midi": 84,
                    "time": 82.33325100000016,
                    "velocity": 0.7086614173228346,
                    "duration": 0.9999990000000025
                },
                {
                    "name": "C6",
                    "midi": 84,
                    "time": 83.33325000000016,
                    "velocity": 0.7086614173228346,
                    "duration": 0.3333329999999961
                },
                {
                    "name": "C6",
                    "midi": 84,
                    "time": 83.66658300000016,
                    "velocity": 0.7086614173228346,
                    "duration": 0.9999990000000025
                },
                {
                    "name": "E5",
                    "midi": 76,
                    "time": 84.66658200000016,
                    "velocity": 0.7086614173228346,
                    "duration": 0.3333329999999961
                },
                {
                    "name": "E5",
                    "midi": 76,
                    "time": 84.99991500000016,
                    "velocity": 0.7086614173228346,
                    "duration": 0.3333329999999961
                },
                {
                    "name": "E5",
                    "midi": 76,
                    "time": 85.33324800000015,
                    "velocity": 0.7086614173228346,
                    "duration": 0.3333329999999961
                },
                {
                    "name": "F5",
                    "midi": 77,
                    "time": 85.66658100000015,
                    "velocity": 0.7086614173228346,
                    "duration": 0.3333329999999961
                },
                {
                    "name": "G5",
                    "midi": 79,
                    "time": 85.99991400000015,
                    "velocity": 0.7086614173228346,
                    "duration": 0.3333329999999961
                },
                {
                    "name": "C5",
                    "midi": 72,
                    "time": 86.33324700000014,
                    "velocity": 0.7086614173228346,
                    "duration": 1.3333319999999986
                },
                {
                    "name": "F5",
                    "midi": 77,
                    "time": 87.99991200000014,
                    "velocity": 0.7086614173228346,
                    "duration": 0.3333329999999961
                },
                {
                    "name": "F5",
                    "midi": 77,
                    "time": 88.33324500000013,
                    "velocity": 0.7086614173228346,
                    "duration": 0.3333329999999961
                },
                {
                    "name": "E5",
                    "midi": 76,
                    "time": 88.66657800000013,
                    "velocity": 0.7086614173228346,
                    "duration": 0.3333329999999961
                },
                {
                    "name": "D5",
                    "midi": 74,
                    "time": 88.99991100000013,
                    "velocity": 0.7086614173228346,
                    "duration": 0.3333329999999961
                },
                {
                    "name": "D5",
                    "midi": 74,
                    "time": 89.33324400000012,
                    "velocity": 0.7086614173228346,
                    "duration": 0.3333329999999961
                },
                {
                    "name": "D5",
                    "midi": 74,
                    "time": 89.66657700000012,
                    "velocity": 0.7086614173228346,
                    "duration": 0.3333329999999961
                },
                {
                    "name": "C5",
                    "midi": 72,
                    "time": 89.99991000000011,
                    "velocity": 0.7086614173228346,
                    "duration": 0.3333329999999961
                },
                {
                    "name": "A#4",
                    "midi": 70,
                    "time": 90.33324300000011,
                    "velocity": 0.7086614173228346,
                    "duration": 0.3333329999999961
                },
                {
                    "name": "A#4",
                    "midi": 70,
                    "time": 90.6665760000001,
                    "velocity": 0.7086614173228346,
                    "duration": 0.3333329999999961
                },
                {
                    "name": "A#4",
                    "midi": 70,
                    "time": 90.9999090000001,
                    "velocity": 0.7086614173228346,
                    "duration": 0.3333329999999961
                },
                {
                    "name": "A4",
                    "midi": 69,
                    "time": 91.3332420000001,
                    "velocity": 0.7086614173228346,
                    "duration": 0.3333329999999961
                },
                {
                    "name": "G4",
                    "midi": 67,
                    "time": 91.6665750000001,
                    "velocity": 0.7086614173228346,
                    "duration": 0.6666660000000064
                },
                {
                    "name": "A4",
                    "midi": 69,
                    "time": 92.3332410000001,
                    "velocity": 0.7086614173228346,
                    "duration": 0.6666660000000064
                },
                {
                    "name": "G4",
                    "midi": 67,
                    "time": 92.9999070000001,
                    "velocity": 0.7086614173228346,
                    "duration": 0.9999990000000025
                },
                {
                    "name": "F4",
                    "midi": 65,
                    "time": 93.99990600000011,
                    "velocity": 0.7086614173228346,
                    "duration": 0.3333329999999961
                },
                {
                    "name": "F4",
                    "midi": 65,
                    "time": 94.3332390000001,
                    "velocity": 0.7086614173228346,
                    "duration": 1.3333319999999986
                },
                {
                    "name": "C5",
                    "midi": 72,
                    "time": 95.9999040000001,
                    "velocity": 0.7086614173228346,
                    "duration": 0.3333329999999961
                },
                {
                    "name": "A#4",
                    "midi": 70,
                    "time": 96.3332370000001,
                    "velocity": 0.7086614173228346,
                    "duration": 0.3333329999999961
                },
                {
                    "name": "A4",
                    "midi": 69,
                    "time": 96.66657000000009,
                    "velocity": 0.7086614173228346,
                    "duration": 0.3333329999999961
                },
                {
                    "name": "G4",
                    "midi": 67,
                    "time": 96.99990300000009,
                    "velocity": 0.7086614173228346,
                    "duration": 0.6666660000000064
                },
                {
                    "name": "C4",
                    "midi": 60,
                    "time": 97.6665690000001,
                    "velocity": 0.7086614173228346,
                    "duration": 0.6666660000000064
                },
                {
                    "name": "G4",
                    "midi": 67,
                    "time": 98.3332350000001,
                    "velocity": 0.7086614173228346,
                    "duration": 0.6666660000000064
                },
                {
                    "name": "G4",
                    "midi": 67,
                    "time": 98.99990100000011,
                    "velocity": 0.7086614173228346,
                    "duration": 0.3333329999999961
                },
                {
                    "name": "A4",
                    "midi": 69,
                    "time": 99.3332340000001,
                    "velocity": 0.7086614173228346,
                    "duration": 0.3333329999999961
                },
                {
                    "name": "A#4",
                    "midi": 70,
                    "time": 99.6665670000001,
                    "velocity": 0.7086614173228346,
                    "duration": 1.3333319999999986
                },
                {
                    "name": "D5",
                    "midi": 74,
                    "time": 101.3332320000001,
                    "velocity": 0.7086614173228346,
                    "duration": 0.3333329999999961
                },
                {
                    "name": "C5",
                    "midi": 72,
                    "time": 101.66656500000009,
                    "velocity": 0.7086614173228346,
                    "duration": 0.3333329999999961
                },
                {
                    "name": "A#4",
                    "midi": 70,
                    "time": 101.99989800000009,
                    "velocity": 0.7086614173228346,
                    "duration": 0.3333329999999961
                },
                {
                    "name": "A4",
                    "midi": 69,
                    "time": 102.33323100000008,
                    "velocity": 0.7086614173228346,
                    "duration": 0.6666660000000064
                },
                {
                    "name": "A4",
                    "midi": 69,
                    "time": 102.99989700000009,
                    "velocity": 0.7086614173228346,
                    "duration": 0.6666660000000064
                },
                {
                    "name": "D5",
                    "midi": 74,
                    "time": 103.6665630000001,
                    "velocity": 0.7086614173228346,
                    "duration": 0.9999990000000025
                },
                {
                    "name": "E5",
                    "midi": 76,
                    "time": 104.6665620000001,
                    "velocity": 0.7086614173228346,
                    "duration": 0.3333329999999961
                },
                {
                    "name": "C#5",
                    "midi": 73,
                    "time": 104.9998950000001,
                    "velocity": 0.7086614173228346,
                    "duration": 0.9999990000000025
                },
                {
                    "name": "A4",
                    "midi": 69,
                    "time": 105.9998940000001,
                    "velocity": 0.7086614173228346,
                    "duration": 0.3333329999999961
                },
                {
                    "name": "E5",
                    "midi": 76,
                    "time": 106.3332270000001,
                    "velocity": 0.7086614173228346,
                    "duration": 0.9999990000000025
                },
                {
                    "name": "E5",
                    "midi": 76,
                    "time": 107.3332260000001,
                    "velocity": 0.7086614173228346,
                    "duration": 0.3333329999999961
                },
                {
                    "name": "E5",
                    "midi": 76,
                    "time": 107.66655900000009,
                    "velocity": 0.7086614173228346,
                    "duration": 0.3333329999999961
                },
                {
                    "name": "E4",
                    "midi": 64,
                    "time": 107.99989200000009,
                    "velocity": 0.7086614173228346,
                    "duration": 0.3333329999999961
                },
                {
                    "name": "E4",
                    "midi": 64,
                    "time": 108.33322500000008,
                    "velocity": 0.7086614173228346,
                    "duration": 0.3333329999999961
                },
                {
                    "name": "F#4",
                    "midi": 66,
                    "time": 108.66655800000008,
                    "velocity": 0.7086614173228346,
                    "duration": 0.3333329999999961
                },
                {
                    "name": "G#4",
                    "midi": 68,
                    "time": 108.99989100000008,
                    "velocity": 0.7086614173228346,
                    "duration": 0.3333329999999961
                },
                {
                    "name": "G#4",
                    "midi": 68,
                    "time": 109.33322400000007,
                    "velocity": 0.7086614173228346,
                    "duration": 0.3333329999999961
                },
                {
                    "name": "G#4",
                    "midi": 68,
                    "time": 109.66655700000007,
                    "velocity": 0.7086614173228346,
                    "duration": 0.3333329999999961
                },
                {
                    "name": "A4",
                    "midi": 69,
                    "time": 109.99989000000006,
                    "velocity": 0.7086614173228346,
                    "duration": 0.3333329999999961
                },
                {
                    "name": "B4",
                    "midi": 71,
                    "time": 110.33322300000006,
                    "velocity": 0.7086614173228346,
                    "duration": 0.3333329999999961
                },
                {
                    "name": "B4",
                    "midi": 71,
                    "time": 110.66655600000006,
                    "velocity": 0.7086614173228346,
                    "duration": 0.3333329999999961
                },
                {
                    "name": "B4",
                    "midi": 71,
                    "time": 110.99988900000005,
                    "velocity": 0.7086614173228346,
                    "duration": 0.3333329999999961
                },
                {
                    "name": "C5",
                    "midi": 72,
                    "time": 111.33322200000005,
                    "velocity": 0.7086614173228346,
                    "duration": 0.3333329999999961
                },
                {
                    "name": "D5",
                    "midi": 74,
                    "time": 111.66655500000005,
                    "velocity": 0.7086614173228346,
                    "duration": 0.3333329999999961
                },
                {
                    "name": "D5",
                    "midi": 74,
                    "time": 111.99988800000004,
                    "velocity": 0.7086614173228346,
                    "duration": 0.3333329999999961
                },
                {
                    "name": "C5",
                    "midi": 72,
                    "time": 112.33322100000004,
                    "velocity": 0.7086614173228346,
                    "duration": 0.3333329999999961
                },
                {
                    "name": "B4",
                    "midi": 71,
                    "time": 112.66655400000003,
                    "velocity": 0.7086614173228346,
                    "duration": 0.3333329999999961
                },
                {
                    "name": "C5",
                    "midi": 72,
                    "time": 112.99988700000003,
                    "velocity": 0.7086614173228346,
                    "duration": 0.3333329999999961
                },
                {
                    "name": "A4",
                    "midi": 69,
                    "time": 113.33322000000003,
                    "velocity": 0.7086614173228346,
                    "duration": 0.3333329999999961
                },
                {
                    "name": "A3",
                    "midi": 57,
                    "time": 113.66655300000002,
                    "velocity": 0.7086614173228346,
                    "duration": 0.6666660000000064
                },
                {
                    "name": "A4",
                    "midi": 69,
                    "time": 119.33321400000003,
                    "velocity": 0.7086614173228346,
                    "duration": 0.3333329999999961
                },
                {
                    "name": "D5",
                    "midi": 74,
                    "time": 119.66654700000002,
                    "velocity": 0.7086614173228346,
                    "duration": 0.9999990000000025
                },
                {
                    "name": "D5",
                    "midi": 74,
                    "time": 120.66654600000003,
                    "velocity": 0.7086614173228346,
                    "duration": 0.3333329999999961
                },
                {
                    "name": "D5",
                    "midi": 74,
                    "time": 120.99987900000002,
                    "velocity": 0.7086614173228346,
                    "duration": 0.6666660000000064
                },
                {
                    "name": "C5",
                    "midi": 72,
                    "time": 121.66654500000003,
                    "velocity": 0.7086614173228346,
                    "duration": 0.3333329999999961
                },
                {
                    "name": "B4",
                    "midi": 71,
                    "time": 121.99987800000002,
                    "velocity": 0.7086614173228346,
                    "duration": 0.3333329999999961
                },
                {
                    "name": "C5",
                    "midi": 72,
                    "time": 122.33321100000002,
                    "velocity": 0.7086614173228346,
                    "duration": 0.9999990000000025
                },
                {
                    "name": "C5",
                    "midi": 72,
                    "time": 123.33321000000002,
                    "velocity": 0.7086614173228346,
                    "duration": 0.3333329999999961
                },
                {
                    "name": "C5",
                    "midi": 72,
                    "time": 123.66654300000002,
                    "velocity": 0.7086614173228346,
                    "duration": 0.9999990000000025
                },
                {
                    "name": "B4",
                    "midi": 71,
                    "time": 124.66654200000002,
                    "velocity": 0.7086614173228346,
                    "duration": 0.3333329999999961
                },
                {
                    "name": "B4",
                    "midi": 71,
                    "time": 124.99987500000002,
                    "velocity": 0.7086614173228346,
                    "duration": 0.9999990000000025
                },
                {
                    "name": "A4",
                    "midi": 69,
                    "time": 125.99987400000002,
                    "velocity": 0.7086614173228346,
                    "duration": 0.3333329999999961
                },
                {
                    "name": "A4",
                    "midi": 69,
                    "time": 126.33320700000002,
                    "velocity": 0.7086614173228346,
                    "duration": 0.3333329999999961
                },
                {
                    "name": "A4",
                    "midi": 69,
                    "time": 126.66654000000001,
                    "velocity": 0.7086614173228346,
                    "duration": 0.3333329999999961
                },
                {
                    "name": "A4",
                    "midi": 69,
                    "time": 126.99987300000001,
                    "velocity": 0.7086614173228346,
                    "duration": 0.3333329999999961
                },
                {
                    "name": "B4",
                    "midi": 71,
                    "time": 127.333206,
                    "velocity": 0.7086614173228346,
                    "duration": 0.3333329999999961
                },
                {
                    "name": "C#5",
                    "midi": 73,
                    "time": 127.666539,
                    "velocity": 0.7086614173228346,
                    "duration": 0.3333329999999961
                },
                {
                    "name": "C#5",
                    "midi": 73,
                    "time": 127.999872,
                    "velocity": 0.7086614173228346,
                    "duration": 0.3333329999999961
                },
                {
                    "name": "C#5",
                    "midi": 73,
                    "time": 128.333205,
                    "velocity": 0.7086614173228346,
                    "duration": 0.3333330000000103
                },
                {
                    "name": "D5",
                    "midi": 74,
                    "time": 128.666538,
                    "velocity": 0.7086614173228346,
                    "duration": 0.3333330000000103
                },
                {
                    "name": "E5",
                    "midi": 76,
                    "time": 128.999871,
                    "velocity": 0.7086614173228346,
                    "duration": 0.3333330000000103
                },
                {
                    "name": "E5",
                    "midi": 76,
                    "time": 129.33320400000002,
                    "velocity": 0.7086614173228346,
                    "duration": 0.3333330000000103
                },
                {
                    "name": "E5",
                    "midi": 76,
                    "time": 129.66653700000003,
                    "velocity": 0.7086614173228346,
                    "duration": 0.3333330000000103
                },
                {
                    "name": "F5",
                    "midi": 77,
                    "time": 129.99987000000004,
                    "velocity": 0.7086614173228346,
                    "duration": 0.3333330000000103
                },
                {
                    "name": "G5",
                    "midi": 79,
                    "time": 130.33320300000005,
                    "velocity": 0.7086614173228346,
                    "duration": 0.3333330000000103
                },
                {
                    "name": "G5",
                    "midi": 79,
                    "time": 130.66653600000006,
                    "velocity": 0.7086614173228346,
                    "duration": 0.3333330000000103
                },
                {
                    "name": "F5",
                    "midi": 77,
                    "time": 130.99986900000007,
                    "velocity": 0.7086614173228346,
                    "duration": 0.3333330000000103
                },
                {
                    "name": "E5",
                    "midi": 76,
                    "time": 131.33320200000009,
                    "velocity": 0.7086614173228346,
                    "duration": 0.3333330000000103
                },
                {
                    "name": "F5",
                    "midi": 77,
                    "time": 131.6665350000001,
                    "velocity": 0.7086614173228346,
                    "duration": 0.3333330000000103
                },
                {
                    "name": "D5",
                    "midi": 74,
                    "time": 131.9998680000001,
                    "velocity": 0.7086614173228346,
                    "duration": 0.3333330000000103
                },
                {
                    "name": "D5",
                    "midi": 74,
                    "time": 132.33320100000012,
                    "velocity": 0.7086614173228346,
                    "duration": 0.3333330000000103
                },
                {
                    "name": "E5",
                    "midi": 76,
                    "time": 132.66653400000013,
                    "velocity": 0.7086614173228346,
                    "duration": 0.3333330000000103
                },
                {
                    "name": "F#5",
                    "midi": 78,
                    "time": 132.99986700000014,
                    "velocity": 0.7086614173228346,
                    "duration": 0.3333330000000103
                },
                {
                    "name": "F#5",
                    "midi": 78,
                    "time": 133.33320000000015,
                    "velocity": 0.7086614173228346,
                    "duration": 0.3333330000000103
                },
                {
                    "name": "F#5",
                    "midi": 78,
                    "time": 133.66653300000016,
                    "velocity": 0.7086614173228346,
                    "duration": 0.3333330000000103
                },
                {
                    "name": "G5",
                    "midi": 79,
                    "time": 133.99986600000017,
                    "velocity": 0.7086614173228346,
                    "duration": 0.3333330000000103
                },
                {
                    "name": "A5",
                    "midi": 81,
                    "time": 134.33319900000018,
                    "velocity": 0.7086614173228346,
                    "duration": 0.3333330000000103
                },
                {
                    "name": "A5",
                    "midi": 81,
                    "time": 134.6665320000002,
                    "velocity": 0.7086614173228346,
                    "duration": 0.3333330000000103
                },
                {
                    "name": "A5",
                    "midi": 81,
                    "time": 134.9998650000002,
                    "velocity": 0.7086614173228346,
                    "duration": 0.3333330000000103
                },
                {
                    "name": "A#5",
                    "midi": 82,
                    "time": 135.3331980000002,
                    "velocity": 0.7086614173228346,
                    "duration": 0.3333330000000103
                },
                {
                    "name": "C6",
                    "midi": 84,
                    "time": 135.66653100000022,
                    "velocity": 0.7086614173228346,
                    "duration": 0.3333330000000103
                },
                {
                    "name": "C6",
                    "midi": 84,
                    "time": 135.99986400000023,
                    "velocity": 0.7086614173228346,
                    "duration": 0.3333330000000103
                },
                {
                    "name": "A#5",
                    "midi": 82,
                    "time": 136.33319700000024,
                    "velocity": 0.7086614173228346,
                    "duration": 0.3333330000000103
                },
                {
                    "name": "A5",
                    "midi": 81,
                    "time": 136.66653000000025,
                    "velocity": 0.7086614173228346,
                    "duration": 0.3333330000000103
                },
                {
                    "name": "A#5",
                    "midi": 82,
                    "time": 136.99986300000026,
                    "velocity": 0.7086614173228346,
                    "duration": 0.3333330000000103
                },
                {
                    "name": "D6",
                    "midi": 86,
                    "time": 137.33319600000027,
                    "velocity": 0.7086614173228346,
                    "duration": 0.3333330000000103
                },
                {
                    "name": "D6",
                    "midi": 86,
                    "time": 137.66652900000028,
                    "velocity": 0.7086614173228346,
                    "duration": 0.3333330000000103
                },
                {
                    "name": "C6",
                    "midi": 84,
                    "time": 137.9998620000003,
                    "velocity": 0.7086614173228346,
                    "duration": 0.3333330000000103
                },
                {
                    "name": "A#5",
                    "midi": 82,
                    "time": 138.3331950000003,
                    "velocity": 0.7086614173228346,
                    "duration": 0.3333330000000103
                },
                {
                    "name": "A#5",
                    "midi": 82,
                    "time": 138.6665280000003,
                    "velocity": 0.7086614173228346,
                    "duration": 0.3333330000000103
                },
                {
                    "name": "A#5",
                    "midi": 82,
                    "time": 138.99986100000032,
                    "velocity": 0.7086614173228346,
                    "duration": 0.3333330000000103
                },
                {
                    "name": "A5",
                    "midi": 81,
                    "time": 139.33319400000033,
                    "velocity": 0.7086614173228346,
                    "duration": 0.3333330000000103
                },
                {
                    "name": "G5",
                    "midi": 79,
                    "time": 139.66652700000034,
                    "velocity": 0.7086614173228346,
                    "duration": 0.3333330000000103
                },
                {
                    "name": "G5",
                    "midi": 79,
                    "time": 139.99986000000035,
                    "velocity": 0.7086614173228346,
                    "duration": 0.3333330000000103
                },
                {
                    "name": "G5",
                    "midi": 79,
                    "time": 140.33319300000036,
                    "velocity": 0.7086614173228346,
                    "duration": 0.3333330000000103
                },
                {
                    "name": "F5",
                    "midi": 77,
                    "time": 140.66652600000037,
                    "velocity": 0.7086614173228346,
                    "duration": 0.3333330000000103
                },
                {
                    "name": "E5",
                    "midi": 76,
                    "time": 140.99985900000038,
                    "velocity": 0.7086614173228346,
                    "duration": 0.3333330000000103
                },
                {
                    "name": "E5",
                    "midi": 76,
                    "time": 141.3331920000004,
                    "velocity": 0.7086614173228346,
                    "duration": 0.3333330000000103
                },
                {
                    "name": "E5",
                    "midi": 76,
                    "time": 141.6665250000004,
                    "velocity": 0.7086614173228346,
                    "duration": 0.3333330000000103
                },
                {
                    "name": "D5",
                    "midi": 74,
                    "time": 141.99985800000042,
                    "velocity": 0.7086614173228346,
                    "duration": 0.3333330000000103
                },
                {
                    "name": "C#5",
                    "midi": 73,
                    "time": 142.33319100000043,
                    "velocity": 0.7086614173228346,
                    "duration": 0.3333330000000103
                },
                {
                    "name": "D5",
                    "midi": 74,
                    "time": 142.66652400000044,
                    "velocity": 0.7086614173228346,
                    "duration": 0.3333330000000103
                },
                {
                    "name": "C#5",
                    "midi": 73,
                    "time": 142.99985700000045,
                    "velocity": 0.7086614173228346,
                    "duration": 0.3333330000000103
                },
                {
                    "name": "D5",
                    "midi": 74,
                    "time": 143.33319000000046,
                    "velocity": 0.7086614173228346,
                    "duration": 0.3333330000000103
                },
                {
                    "name": "E5",
                    "midi": 76,
                    "time": 143.66652300000047,
                    "velocity": 0.7086614173228346,
                    "duration": 0.3333330000000103
                },
                {
                    "name": "F5",
                    "midi": 77,
                    "time": 143.99985600000048,
                    "velocity": 0.7086614173228346,
                    "duration": 0.3333330000000103
                },
                {
                    "name": "G5",
                    "midi": 79,
                    "time": 144.3331890000005,
                    "velocity": 0.7086614173228346,
                    "duration": 0.3333330000000103
                },
                {
                    "name": "A5",
                    "midi": 81,
                    "time": 144.6665220000005,
                    "velocity": 0.7086614173228346,
                    "duration": 0.3333330000000103
                },
                {
                    "name": "F5",
                    "midi": 77,
                    "time": 144.9998550000005,
                    "velocity": 0.7086614173228346,
                    "duration": 0.9999990000000025
                },
                {
                    "name": "E5",
                    "midi": 76,
                    "time": 145.9998540000005,
                    "velocity": 0.7086614173228346,
                    "duration": 0.3333330000000103
                },
                {
                    "name": "E5",
                    "midi": 76,
                    "time": 146.33318700000052,
                    "velocity": 0.7086614173228346,
                    "duration": 0.9999990000000025
                },
                {
                    "name": "D5",
                    "midi": 74,
                    "time": 147.33318600000052,
                    "velocity": 0.7086614173228346,
                    "duration": 0.3333330000000103
                },
                {
                    "name": "D5",
                    "midi": 74,
                    "time": 147.66651900000053,
                    "velocity": 0.7086614173228346,
                    "duration": 0.3333330000000103
                },
                {
                    "name": "C5",
                    "midi": 72,
                    "time": 147.99985200000054,
                    "velocity": 0.7086614173228346,
                    "duration": 0.3333330000000103
                },
                {
                    "name": "A#4",
                    "midi": 70,
                    "time": 148.33318500000055,
                    "velocity": 0.7086614173228346,
                    "duration": 0.3333330000000103
                },
                {
                    "name": "A4",
                    "midi": 69,
                    "time": 148.66651800000056,
                    "velocity": 0.7086614173228346,
                    "duration": 0.3333330000000103
                },
                {
                    "name": "G4",
                    "midi": 67,
                    "time": 148.99985100000058,
                    "velocity": 0.7086614173228346,
                    "duration": 0.3333330000000103
                },
                {
                    "name": "F4",
                    "midi": 65,
                    "time": 149.33318400000059,
                    "velocity": 0.7086614173228346,
                    "duration": 0.3333330000000103
                },
                {
                    "name": "E4",
                    "midi": 64,
                    "time": 149.6665170000006,
                    "velocity": 0.7086614173228346,
                    "duration": 0.3333330000000103
                },
                {
                    "name": "D4",
                    "midi": 62,
                    "time": 149.9998500000006,
                    "velocity": 0.7086614173228346,
                    "duration": 0.3333330000000103
                },
                {
                    "name": "A#4",
                    "midi": 70,
                    "time": 150.33318300000062,
                    "velocity": 0.7086614173228346,
                    "duration": 0.3333330000000103
                },
                {
                    "name": "A4",
                    "midi": 69,
                    "time": 150.66651600000063,
                    "velocity": 0.7086614173228346,
                    "duration": 0.3333330000000103
                },
                {
                    "name": "G4",
                    "midi": 67,
                    "time": 150.99984900000064,
                    "velocity": 0.7086614173228346,
                    "duration": 0.3333330000000103
                },
                {
                    "name": "F4",
                    "midi": 65,
                    "time": 151.33318200000065,
                    "velocity": 0.7086614173228346,
                    "duration": 0.3333330000000103
                },
                {
                    "name": "E4",
                    "midi": 64,
                    "time": 151.66651500000066,
                    "velocity": 0.7086614173228346,
                    "duration": 0.3333330000000103
                },
                {
                    "name": "D4",
                    "midi": 62,
                    "time": 151.99984800000067,
                    "velocity": 0.7086614173228346,
                    "duration": 0.3333330000000103
                },
                {
                    "name": "C#4",
                    "midi": 61,
                    "time": 152.33318100000068,
                    "velocity": 0.7086614173228346,
                    "duration": 0.3333330000000103
                },
                {
                    "name": "B3",
                    "midi": 59,
                    "time": 152.6665140000007,
                    "velocity": 0.7086614173228346,
                    "duration": 0.3333330000000103
                },
                {
                    "name": "A3",
                    "midi": 57,
                    "time": 152.9998470000007,
                    "velocity": 0.7086614173228346,
                    "duration": 0.3333330000000103
                },
                {
                    "name": "A3",
                    "midi": 57,
                    "time": 153.3331800000007,
                    "velocity": 0.7086614173228346,
                    "duration": 0.3333330000000103
                },
                {
                    "name": "A3",
                    "midi": 57,
                    "time": 153.66651300000072,
                    "velocity": 0.7086614173228346,
                    "duration": 0.3333330000000103
                },
                {
                    "name": "A3",
                    "midi": 57,
                    "time": 153.99984600000073,
                    "velocity": 0.7086614173228346,
                    "duration": 0.3333330000000103
                },
                {
                    "name": "A3",
                    "midi": 57,
                    "time": 154.33317900000074,
                    "velocity": 0.7086614173228346,
                    "duration": 0.3333330000000103
                },
                {
                    "name": "B3",
                    "midi": 59,
                    "time": 154.66651200000075,
                    "velocity": 0.7086614173228346,
                    "duration": 0.3333330000000103
                },
                {
                    "name": "C#4",
                    "midi": 61,
                    "time": 154.99984500000076,
                    "velocity": 0.7086614173228346,
                    "duration": 0.3333330000000103
                },
                {
                    "name": "C#4",
                    "midi": 61,
                    "time": 155.33317800000077,
                    "velocity": 0.7086614173228346,
                    "duration": 0.3333330000000103
                },
                {
                    "name": "C#4",
                    "midi": 61,
                    "time": 155.66651100000078,
                    "velocity": 0.7086614173228346,
                    "duration": 0.3333330000000103
                },
                {
                    "name": "D4",
                    "midi": 62,
                    "time": 155.9998440000008,
                    "velocity": 0.7086614173228346,
                    "duration": 0.3333330000000103
                },
                {
                    "name": "E4",
                    "midi": 64,
                    "time": 156.3331770000008,
                    "velocity": 0.7086614173228346,
                    "duration": 0.3333330000000103
                },
                {
                    "name": "E4",
                    "midi": 64,
                    "time": 156.6665100000008,
                    "velocity": 0.7086614173228346,
                    "duration": 0.3333330000000103
                },
                {
                    "name": "E4",
                    "midi": 64,
                    "time": 156.99984300000082,
                    "velocity": 0.7086614173228346,
                    "duration": 0.3333330000000103
                },
                {
                    "name": "F4",
                    "midi": 65,
                    "time": 157.33317600000083,
                    "velocity": 0.7086614173228346,
                    "duration": 0.3333330000000103
                },
                {
                    "name": "G4",
                    "midi": 67,
                    "time": 157.66650900000084,
                    "velocity": 0.7086614173228346,
                    "duration": 0.3333330000000103
                },
                {
                    "name": "G4",
                    "midi": 67,
                    "time": 157.99984200000085,
                    "velocity": 0.7086614173228346,
                    "duration": 0.3333330000000103
                },
                {
                    "name": "G4",
                    "midi": 67,
                    "time": 158.33317500000086,
                    "velocity": 0.7086614173228346,
                    "duration": 0.3333330000000103
                },
                {
                    "name": "A4",
                    "midi": 69,
                    "time": 158.66650800000087,
                    "velocity": 0.7086614173228346,
                    "duration": 0.3333330000000103
                },
                {
                    "name": "A#4",
                    "midi": 70,
                    "time": 158.99984100000088,
                    "velocity": 0.7086614173228346,
                    "duration": 0.3333330000000103
                },
                {
                    "name": "A#4",
                    "midi": 70,
                    "time": 159.3331740000009,
                    "velocity": 0.7086614173228346,
                    "duration": 0.3333330000000103
                },
                {
                    "name": "A#4",
                    "midi": 70,
                    "time": 159.6665070000009,
                    "velocity": 0.7086614173228346,
                    "duration": 0.3333330000000103
                },
                {
                    "name": "A#4",
                    "midi": 70,
                    "time": 159.99984000000092,
                    "velocity": 0.7086614173228346,
                    "duration": 0.3333330000000103
                },
                {
                    "name": "A4",
                    "midi": 69,
                    "time": 160.33317300000093,
                    "velocity": 0.7086614173228346,
                    "duration": 0.3333330000000103
                },
                {
                    "name": "G4",
                    "midi": 67,
                    "time": 160.66650600000094,
                    "velocity": 0.7086614173228346,
                    "duration": 0.3333330000000103
                },
                {
                    "name": "F4",
                    "midi": 65,
                    "time": 160.99983900000095,
                    "velocity": 0.7086614173228346,
                    "duration": 0.3333330000000103
                },
                {
                    "name": "E4",
                    "midi": 64,
                    "time": 161.33317200000096,
                    "velocity": 0.7086614173228346,
                    "duration": 0.3333330000000103
                },
                {
                    "name": "D4",
                    "midi": 62,
                    "time": 161.66650500000097,
                    "velocity": 0.7086614173228346,
                    "duration": 0.3333330000000103
                },
                {
                    "name": "E4",
                    "midi": 64,
                    "time": 161.99983800000098,
                    "velocity": 0.7086614173228346,
                    "duration": 0.3333330000000103
                },
                {
                    "name": "F4",
                    "midi": 65,
                    "time": 162.333171000001,
                    "velocity": 0.7086614173228346,
                    "duration": 0.3333330000000103
                },
                {
                    "name": "G4",
                    "midi": 67,
                    "time": 162.666504000001,
                    "velocity": 0.7086614173228346,
                    "duration": 0.3333330000000103
                },
                {
                    "name": "A4",
                    "midi": 69,
                    "time": 162.999837000001,
                    "velocity": 0.7086614173228346,
                    "duration": 0.3333330000000103
                },
                {
                    "name": "B4",
                    "midi": 71,
                    "time": 163.33317000000102,
                    "velocity": 0.7086614173228346,
                    "duration": 0.3333330000000103
                },
                {
                    "name": "C#5",
                    "midi": 73,
                    "time": 163.66650300000103,
                    "velocity": 0.7086614173228346,
                    "duration": 0.3333330000000103
                },
                {
                    "name": "A4",
                    "midi": 69,
                    "time": 163.99983600000104,
                    "velocity": 0.7086614173228346,
                    "duration": 0.3333330000000103
                },
                {
                    "name": "D5",
                    "midi": 74,
                    "time": 164.33316900000105,
                    "velocity": 0.7086614173228346,
                    "duration": 0.3333330000000103
                },
                {
                    "name": "F4",
                    "midi": 65,
                    "time": 164.66650200000106,
                    "velocity": 0.7086614173228346,
                    "duration": 0.3333330000000103
                },
                {
                    "name": "E4",
                    "midi": 64,
                    "time": 164.99983500000107,
                    "velocity": 0.7086614173228346,
                    "duration": 0.9999990000000025
                },
                {
                    "name": "D4",
                    "midi": 62,
                    "time": 165.99983400000107,
                    "velocity": 0.7086614173228346,
                    "duration": 0.3333330000000103
                },
                {
                    "name": "D4",
                    "midi": 62,
                    "time": 166.33316700000108,
                    "velocity": 0.7086614173228346,
                    "duration": 2.6666639999999973
                }
            ],
            "controlChanges": {},
            "id": 6,
            "name": "",
            "instrumentNumber": 48,
            "instrument": "string ensemble 1",
            "instrumentFamily": "ensemble",
            "channelNumber": 6,
            "isPercussion": false
        },
        {
            "startTime": 1.333332,
            "duration": 168.99983099999983,
            "length": 298,
            "notes": [
                {
                    "name": "D5",
                    "midi": 74,
                    "time": 1.333332,
                    "velocity": 0.7086614173228346,
                    "duration": 0.3333330000000001
                },
                {
                    "name": "D5",
                    "midi": 74,
                    "time": 1.666665,
                    "velocity": 0.7086614173228346,
                    "duration": 0.49999949999999993
                },
                {
                    "name": "D5",
                    "midi": 74,
                    "time": 2.1666645,
                    "velocity": 0.7086614173228346,
                    "duration": 0.16666649999999983
                },
                {
                    "name": "D5",
                    "midi": 74,
                    "time": 2.333331,
                    "velocity": 0.7086614173228346,
                    "duration": 1.333332
                },
                {
                    "name": "A4",
                    "midi": 69,
                    "time": 3.999996,
                    "velocity": 0.7086614173228346,
                    "duration": 0.3333330000000001
                },
                {
                    "name": "A4",
                    "midi": 69,
                    "time": 4.333329,
                    "velocity": 0.7086614173228346,
                    "duration": 0.4999995000000004
                },
                {
                    "name": "A4",
                    "midi": 69,
                    "time": 4.8333285,
                    "velocity": 0.7086614173228346,
                    "duration": 0.16666649999999983
                },
                {
                    "name": "D5",
                    "midi": 74,
                    "time": 4.999995,
                    "velocity": 0.7086614173228346,
                    "duration": 1.3333320000000004
                },
                {
                    "name": "A4",
                    "midi": 69,
                    "time": 6.66666,
                    "velocity": 0.7086614173228346,
                    "duration": 0.33333299999999966
                },
                {
                    "name": "A4",
                    "midi": 69,
                    "time": 6.999993,
                    "velocity": 0.7086614173228346,
                    "duration": 0.4999995000000004
                },
                {
                    "name": "A4",
                    "midi": 69,
                    "time": 7.4999925,
                    "velocity": 0.7086614173228346,
                    "duration": 0.16666649999999983
                },
                {
                    "name": "G4",
                    "midi": 67,
                    "time": 7.666659,
                    "velocity": 0.7086614173228346,
                    "duration": 0.4999995000000004
                },
                {
                    "name": "A4",
                    "midi": 69,
                    "time": 8.1666585,
                    "velocity": 0.7086614173228346,
                    "duration": 0.16666649999999983
                },
                {
                    "name": "A#4",
                    "midi": 70,
                    "time": 8.333325,
                    "velocity": 0.7086614173228346,
                    "duration": 0.4999994999999995
                },
                {
                    "name": "A#4",
                    "midi": 70,
                    "time": 8.8333245,
                    "velocity": 0.7086614173228346,
                    "duration": 0.16666649999999983
                },
                {
                    "name": "A4",
                    "midi": 69,
                    "time": 8.999991,
                    "velocity": 0.7086614173228346,
                    "duration": 0.6666659999999993
                },
                {
                    "name": "A4",
                    "midi": 69,
                    "time": 9.666656999999999,
                    "velocity": 0.7086614173228346,
                    "duration": 0.6666659999999993
                },
                {
                    "name": "A4",
                    "midi": 69,
                    "time": 10.333322999999998,
                    "velocity": 0.7086614173228346,
                    "duration": 1.3333320000000004
                },
                {
                    "name": "A4",
                    "midi": 69,
                    "time": 11.666654999999999,
                    "velocity": 0.7086614173228346,
                    "duration": 1.3333320000000004
                },
                {
                    "name": "A4",
                    "midi": 69,
                    "time": 13.333319999999999,
                    "velocity": 0.7086614173228346,
                    "duration": 0.33333299999999966
                },
                {
                    "name": "A4",
                    "midi": 69,
                    "time": 13.666652999999998,
                    "velocity": 0.7086614173228346,
                    "duration": 0.4999994999999995
                },
                {
                    "name": "A4",
                    "midi": 69,
                    "time": 14.166652499999998,
                    "velocity": 0.7086614173228346,
                    "duration": 0.16666649999999983
                },
                {
                    "name": "D5",
                    "midi": 74,
                    "time": 14.333318999999998,
                    "velocity": 0.7086614173228346,
                    "duration": 0.6666659999999993
                },
                {
                    "name": "C5",
                    "midi": 72,
                    "time": 14.999984999999997,
                    "velocity": 0.7086614173228346,
                    "duration": 1.3333320000000004
                },
                {
                    "name": "B4",
                    "midi": 71,
                    "time": 16.333316999999997,
                    "velocity": 0.7086614173228346,
                    "duration": 0.6666659999999993
                },
                {
                    "name": "E4",
                    "midi": 64,
                    "time": 16.999982999999997,
                    "velocity": 0.7086614173228346,
                    "duration": 0.49999950000000126
                },
                {
                    "name": "E5",
                    "midi": 76,
                    "time": 17.499982499999998,
                    "velocity": 0.7086614173228346,
                    "duration": 0.1666665000000016
                },
                {
                    "name": "E5",
                    "midi": 76,
                    "time": 17.666649,
                    "velocity": 0.7086614173228346,
                    "duration": 0.49999950000000126
                },
                {
                    "name": "D5",
                    "midi": 74,
                    "time": 18.1666485,
                    "velocity": 0.7086614173228346,
                    "duration": 0.1666665000000016
                },
                {
                    "name": "C5",
                    "midi": 72,
                    "time": 18.333315000000002,
                    "velocity": 0.7086614173228346,
                    "duration": 0.49999950000000126
                },
                {
                    "name": "C5",
                    "midi": 72,
                    "time": 18.833314500000004,
                    "velocity": 0.7086614173228346,
                    "duration": 0.05381939062500152
                },
                {
                    "name": "B4",
                    "midi": 71,
                    "time": 18.888870000000004,
                    "velocity": 0.7086614173228346,
                    "duration": 0.05381939062500152
                },
                {
                    "name": "A4",
                    "midi": 69,
                    "time": 18.944425500000005,
                    "velocity": 0.7086614173228346,
                    "duration": 0.05381939062500152
                },
                {
                    "name": "B4",
                    "midi": 71,
                    "time": 18.999981000000005,
                    "velocity": 0.7086614173228346,
                    "duration": 1.1666655000000006
                },
                {
                    "name": "B4",
                    "midi": 71,
                    "time": 20.166646500000006,
                    "velocity": 0.7086614173228346,
                    "duration": 0.1666665000000016
                },
                {
                    "name": "E4",
                    "midi": 64,
                    "time": 20.333313000000008,
                    "velocity": 0.7086614173228346,
                    "duration": 0.49999950000000126
                },
                {
                    "name": "E4",
                    "midi": 64,
                    "time": 20.83331250000001,
                    "velocity": 0.7086614173228346,
                    "duration": 0.05381939062500152
                },
                {
                    "name": "D4",
                    "midi": 62,
                    "time": 20.88886800000001,
                    "velocity": 0.7086614173228346,
                    "duration": 0.05381939062500152
                },
                {
                    "name": "E4",
                    "midi": 64,
                    "time": 20.94442350000001,
                    "velocity": 0.7086614173228346,
                    "duration": 0.05381939062500152
                },
                {
                    "name": "F4",
                    "midi": 65,
                    "time": 20.99997900000001,
                    "velocity": 0.7086614173228346,
                    "duration": 0.6666659999999993
                },
                {
                    "name": "E4",
                    "midi": 64,
                    "time": 21.66664500000001,
                    "velocity": 0.7086614173228346,
                    "duration": 0.6666659999999993
                },
                {
                    "name": "E4",
                    "midi": 64,
                    "time": 22.33331100000001,
                    "velocity": 0.7086614173228346,
                    "duration": 0.49999950000000126
                },
                {
                    "name": "A4",
                    "midi": 69,
                    "time": 22.83331050000001,
                    "velocity": 0.7086614173228346,
                    "duration": 0.1666665000000016
                },
                {
                    "name": "A4",
                    "midi": 69,
                    "time": 22.999977000000012,
                    "velocity": 0.7086614173228346,
                    "duration": 0.49999950000000126
                },
                {
                    "name": "A4",
                    "midi": 69,
                    "time": 23.499976500000013,
                    "velocity": 0.7086614173228346,
                    "duration": 0.1666665000000016
                },
                {
                    "name": "F4",
                    "midi": 65,
                    "time": 23.666643000000015,
                    "velocity": 0.7086614173228346,
                    "duration": 1.3333319999999986
                },
                {
                    "name": "E4",
                    "midi": 64,
                    "time": 25.333308000000013,
                    "velocity": 0.7086614173228346,
                    "duration": 0.33333299999999966
                },
                {
                    "name": "G#4",
                    "midi": 68,
                    "time": 25.666641000000013,
                    "velocity": 0.7086614173228346,
                    "duration": 0.49999950000000126
                },
                {
                    "name": "G#4",
                    "midi": 68,
                    "time": 26.166640500000014,
                    "velocity": 0.7086614173228346,
                    "duration": 0.1666665000000016
                },
                {
                    "name": "B4",
                    "midi": 71,
                    "time": 26.333307000000016,
                    "velocity": 0.7086614173228346,
                    "duration": 1.3333319999999986
                },
                {
                    "name": "B4",
                    "midi": 71,
                    "time": 27.999972000000014,
                    "velocity": 0.7086614173228346,
                    "duration": 0.33333299999999966
                },
                {
                    "name": "D5",
                    "midi": 74,
                    "time": 28.333305000000014,
                    "velocity": 0.7086614173228346,
                    "duration": 0.49999950000000126
                },
                {
                    "name": "D5",
                    "midi": 74,
                    "time": 28.833304500000015,
                    "velocity": 0.7086614173228346,
                    "duration": 0.1666665000000016
                },
                {
                    "name": "D5",
                    "midi": 74,
                    "time": 28.999971000000016,
                    "velocity": 0.7086614173228346,
                    "duration": 1.3333319999999986
                },
                {
                    "name": "D5",
                    "midi": 74,
                    "time": 30.666636000000015,
                    "velocity": 0.7086614173228346,
                    "duration": 0.33333299999999966
                },
                {
                    "name": "D5",
                    "midi": 74,
                    "time": 30.999969000000014,
                    "velocity": 0.7086614173228346,
                    "duration": 0.49999950000000126
                },
                {
                    "name": "D5",
                    "midi": 74,
                    "time": 31.499968500000016,
                    "velocity": 0.7086614173228346,
                    "duration": 0.1666665000000016
                },
                {
                    "name": "D5",
                    "midi": 74,
                    "time": 31.666635000000017,
                    "velocity": 0.7086614173228346,
                    "duration": 0.4999994999999977
                },
                {
                    "name": "B4",
                    "midi": 71,
                    "time": 32.166634500000015,
                    "velocity": 0.7086614173228346,
                    "duration": 0.16666649999999805
                },
                {
                    "name": "B4",
                    "midi": 71,
                    "time": 32.33330100000001,
                    "velocity": 0.7086614173228346,
                    "duration": 0.49999950000000126
                },
                {
                    "name": "B4",
                    "midi": 71,
                    "time": 32.833300500000014,
                    "velocity": 0.7086614173228346,
                    "duration": 0.16666649999999805
                },
                {
                    "name": "A4",
                    "midi": 69,
                    "time": 32.99996700000001,
                    "velocity": 0.7086614173228346,
                    "duration": 0.6666659999999993
                },
                {
                    "name": "A4",
                    "midi": 69,
                    "time": 33.66663300000001,
                    "velocity": 0.7086614173228346,
                    "duration": 1.3333319999999986
                },
                {
                    "name": "G#4",
                    "midi": 68,
                    "time": 34.99996500000001,
                    "velocity": 0.7086614173228346,
                    "duration": 0.6666659999999993
                },
                {
                    "name": "A4",
                    "midi": 69,
                    "time": 35.66663100000001,
                    "velocity": 0.7086614173228346,
                    "duration": 0.49999950000000126
                },
                {
                    "name": "E4",
                    "midi": 64,
                    "time": 36.16663050000001,
                    "velocity": 0.7086614173228346,
                    "duration": 0.16666649999999805
                },
                {
                    "name": "E4",
                    "midi": 64,
                    "time": 36.33329700000001,
                    "velocity": 0.7086614173228346,
                    "duration": 0.49999950000000126
                },
                {
                    "name": "E4",
                    "midi": 64,
                    "time": 36.83329650000001,
                    "velocity": 0.7086614173228346,
                    "duration": 0.16666649999999805
                },
                {
                    "name": "F4",
                    "midi": 65,
                    "time": 36.99996300000001,
                    "velocity": 0.7086614173228346,
                    "duration": 1.3333319999999986
                },
                {
                    "name": "A4",
                    "midi": 69,
                    "time": 38.33329500000001,
                    "velocity": 0.7086614173228346,
                    "duration": 2.6666639999999973
                },
                {
                    "name": "D5",
                    "midi": 74,
                    "time": 46.66662,
                    "velocity": 0.7086614173228346,
                    "duration": 0.3333330000000032
                },
                {
                    "name": "D5",
                    "midi": 74,
                    "time": 46.999953000000005,
                    "velocity": 0.7086614173228346,
                    "duration": 0.3333330000000032
                },
                {
                    "name": "C5",
                    "midi": 72,
                    "time": 47.33328600000001,
                    "velocity": 0.7086614173228346,
                    "duration": 0.3333330000000032
                },
                {
                    "name": "A#4",
                    "midi": 70,
                    "time": 47.66661900000001,
                    "velocity": 0.7086614173228346,
                    "duration": 0.3333330000000032
                },
                {
                    "name": "A#4",
                    "midi": 70,
                    "time": 47.999952000000015,
                    "velocity": 0.7086614173228346,
                    "duration": 0.3333330000000032
                },
                {
                    "name": "A#4",
                    "midi": 70,
                    "time": 48.33328500000002,
                    "velocity": 0.7086614173228346,
                    "duration": 0.3333330000000032
                },
                {
                    "name": "A4",
                    "midi": 69,
                    "time": 48.66661800000002,
                    "velocity": 0.7086614173228346,
                    "duration": 0.3333330000000032
                },
                {
                    "name": "G4",
                    "midi": 67,
                    "time": 48.999951000000024,
                    "velocity": 0.7086614173228346,
                    "duration": 0.3333330000000032
                },
                {
                    "name": "G4",
                    "midi": 67,
                    "time": 49.33328400000003,
                    "velocity": 0.7086614173228346,
                    "duration": 0.3333330000000032
                },
                {
                    "name": "G4",
                    "midi": 67,
                    "time": 49.66661700000003,
                    "velocity": 0.7086614173228346,
                    "duration": 0.3333330000000032
                },
                {
                    "name": "F4",
                    "midi": 65,
                    "time": 49.999950000000034,
                    "velocity": 0.7086614173228346,
                    "duration": 0.3333330000000032
                },
                {
                    "name": "E4",
                    "midi": 64,
                    "time": 50.33328300000004,
                    "velocity": 0.7086614173228346,
                    "duration": 0.3333330000000032
                },
                {
                    "name": "E4",
                    "midi": 64,
                    "time": 50.66661600000004,
                    "velocity": 0.7086614173228346,
                    "duration": 0.3333330000000032
                },
                {
                    "name": "E4",
                    "midi": 64,
                    "time": 50.99994900000004,
                    "velocity": 0.7086614173228346,
                    "duration": 0.3333330000000032
                },
                {
                    "name": "D4",
                    "midi": 62,
                    "time": 51.33328200000005,
                    "velocity": 0.7086614173228346,
                    "duration": 0.3333330000000032
                },
                {
                    "name": "C#4",
                    "midi": 61,
                    "time": 51.66661500000005,
                    "velocity": 0.7086614173228346,
                    "duration": 0.3333330000000032
                },
                {
                    "name": "C#4",
                    "midi": 61,
                    "time": 51.99994800000005,
                    "velocity": 0.7086614173228346,
                    "duration": 0.3333330000000032
                },
                {
                    "name": "C#4",
                    "midi": 61,
                    "time": 52.333281000000056,
                    "velocity": 0.7086614173228346,
                    "duration": 0.3333330000000032
                },
                {
                    "name": "D4",
                    "midi": 62,
                    "time": 52.66661400000006,
                    "velocity": 0.7086614173228346,
                    "duration": 0.3333330000000032
                },
                {
                    "name": "E4",
                    "midi": 64,
                    "time": 52.99994700000006,
                    "velocity": 0.7086614173228346,
                    "duration": 0.3333330000000032
                },
                {
                    "name": "E4",
                    "midi": 64,
                    "time": 53.333280000000066,
                    "velocity": 0.7086614173228346,
                    "duration": 0.3333330000000032
                },
                {
                    "name": "E4",
                    "midi": 64,
                    "time": 53.66661300000007,
                    "velocity": 0.7086614173228346,
                    "duration": 0.3333330000000032
                },
                {
                    "name": "F4",
                    "midi": 65,
                    "time": 53.99994600000007,
                    "velocity": 0.7086614173228346,
                    "duration": 0.3333330000000032
                },
                {
                    "name": "G4",
                    "midi": 67,
                    "time": 54.333279000000076,
                    "velocity": 0.7086614173228346,
                    "duration": 0.3333330000000032
                },
                {
                    "name": "G4",
                    "midi": 67,
                    "time": 54.66661200000008,
                    "velocity": 0.7086614173228346,
                    "duration": 0.3333330000000032
                },
                {
                    "name": "G4",
                    "midi": 67,
                    "time": 54.99994500000008,
                    "velocity": 0.7086614173228346,
                    "duration": 0.3333330000000032
                },
                {
                    "name": "A4",
                    "midi": 69,
                    "time": 55.333278000000085,
                    "velocity": 0.7086614173228346,
                    "duration": 0.3333330000000032
                },
                {
                    "name": "A#4",
                    "midi": 70,
                    "time": 55.66661100000009,
                    "velocity": 0.7086614173228346,
                    "duration": 0.3333330000000032
                },
                {
                    "name": "A#4",
                    "midi": 70,
                    "time": 55.99994400000009,
                    "velocity": 0.7086614173228346,
                    "duration": 0.3333330000000032
                },
                {
                    "name": "A4",
                    "midi": 69,
                    "time": 56.333277000000095,
                    "velocity": 0.7086614173228346,
                    "duration": 0.3333330000000032
                },
                {
                    "name": "C#4",
                    "midi": 61,
                    "time": 56.6666100000001,
                    "velocity": 0.7086614173228346,
                    "duration": 0.3333330000000032
                },
                {
                    "name": "D4",
                    "midi": 62,
                    "time": 56.9999430000001,
                    "velocity": 0.7086614173228346,
                    "duration": 0.3333330000000032
                },
                {
                    "name": "A4",
                    "midi": 69,
                    "time": 57.333276000000104,
                    "velocity": 0.7086614173228346,
                    "duration": 0.3333330000000032
                },
                {
                    "name": "A4",
                    "midi": 69,
                    "time": 57.66660900000011,
                    "velocity": 0.7086614173228346,
                    "duration": 0.3333330000000032
                },
                {
                    "name": "A4",
                    "midi": 69,
                    "time": 57.99994200000011,
                    "velocity": 0.7086614173228346,
                    "duration": 0.3333330000000032
                },
                {
                    "name": "A4",
                    "midi": 69,
                    "time": 58.333275000000114,
                    "velocity": 0.7086614173228346,
                    "duration": 0.3333330000000032
                },
                {
                    "name": "A4",
                    "midi": 69,
                    "time": 58.66660800000012,
                    "velocity": 0.7086614173228346,
                    "duration": 0.3333330000000032
                },
                {
                    "name": "G4",
                    "midi": 67,
                    "time": 58.99994100000012,
                    "velocity": 0.7086614173228346,
                    "duration": 0.3333330000000032
                },
                {
                    "name": "A4",
                    "midi": 69,
                    "time": 59.333274000000124,
                    "velocity": 0.7086614173228346,
                    "duration": 0.3333330000000032
                },
                {
                    "name": "D4",
                    "midi": 62,
                    "time": 59.66660700000013,
                    "velocity": 0.7086614173228346,
                    "duration": 0.3333330000000032
                },
                {
                    "name": "D4",
                    "midi": 62,
                    "time": 59.99994000000013,
                    "velocity": 0.7086614173228346,
                    "duration": 0.3333330000000032
                },
                {
                    "name": "D4",
                    "midi": 62,
                    "time": 60.33327300000013,
                    "velocity": 0.7086614173228346,
                    "duration": 0.3333330000000032
                },
                {
                    "name": "D4",
                    "midi": 62,
                    "time": 60.66660600000014,
                    "velocity": 0.7086614173228346,
                    "duration": 0.3333330000000032
                },
                {
                    "name": "D4",
                    "midi": 62,
                    "time": 60.99993900000014,
                    "velocity": 0.7086614173228346,
                    "duration": 0.3333330000000032
                },
                {
                    "name": "D4",
                    "midi": 62,
                    "time": 61.33327200000014,
                    "velocity": 0.7086614173228346,
                    "duration": 0.3333330000000032
                },
                {
                    "name": "C#4",
                    "midi": 61,
                    "time": 61.666605000000146,
                    "velocity": 0.7086614173228346,
                    "duration": 0.3333330000000032
                },
                {
                    "name": "D4",
                    "midi": 62,
                    "time": 61.99993800000015,
                    "velocity": 0.7086614173228346,
                    "duration": 0.3333330000000032
                },
                {
                    "name": "E4",
                    "midi": 64,
                    "time": 62.33327100000015,
                    "velocity": 0.7086614173228346,
                    "duration": 0.6666659999999993
                },
                {
                    "name": "C#4",
                    "midi": 61,
                    "time": 62.99993700000015,
                    "velocity": 0.7086614173228346,
                    "duration": 0.6666659999999993
                },
                {
                    "name": "D4",
                    "midi": 62,
                    "time": 63.66660300000015,
                    "velocity": 0.7086614173228346,
                    "duration": 0.9999990000000025
                },
                {
                    "name": "E4",
                    "midi": 64,
                    "time": 64.66660200000015,
                    "velocity": 0.7086614173228346,
                    "duration": 0.3333329999999961
                },
                {
                    "name": "C#4",
                    "midi": 61,
                    "time": 64.99993500000015,
                    "velocity": 0.7086614173228346,
                    "duration": 0.3333329999999961
                },
                {
                    "name": "C#4",
                    "midi": 61,
                    "time": 65.33326800000015,
                    "velocity": 0.7086614173228346,
                    "duration": 0.3333329999999961
                },
                {
                    "name": "C#4",
                    "midi": 61,
                    "time": 65.66660100000014,
                    "velocity": 0.7086614173228346,
                    "duration": 0.3333329999999961
                },
                {
                    "name": "C#4",
                    "midi": 61,
                    "time": 65.99993400000014,
                    "velocity": 0.7086614173228346,
                    "duration": 0.3333329999999961
                },
                {
                    "name": "D4",
                    "midi": 62,
                    "time": 66.33326700000013,
                    "velocity": 0.7086614173228346,
                    "duration": 0.3333329999999961
                },
                {
                    "name": "D4",
                    "midi": 62,
                    "time": 66.66660000000013,
                    "velocity": 0.7086614173228346,
                    "duration": 0.3333329999999961
                },
                {
                    "name": "D4",
                    "midi": 62,
                    "time": 66.99993300000013,
                    "velocity": 0.7086614173228346,
                    "duration": 0.3333329999999961
                },
                {
                    "name": "C#4",
                    "midi": 61,
                    "time": 67.33326600000012,
                    "velocity": 0.7086614173228346,
                    "duration": 0.3333329999999961
                },
                {
                    "name": "D4",
                    "midi": 62,
                    "time": 67.66659900000012,
                    "velocity": 0.7086614173228346,
                    "duration": 0.3333329999999961
                },
                {
                    "name": "D4",
                    "midi": 62,
                    "time": 67.99993200000011,
                    "velocity": 0.7086614173228346,
                    "duration": 0.3333329999999961
                },
                {
                    "name": "D4",
                    "midi": 62,
                    "time": 68.33326500000011,
                    "velocity": 0.7086614173228346,
                    "duration": 0.3333329999999961
                },
                {
                    "name": "D4",
                    "midi": 62,
                    "time": 68.6665980000001,
                    "velocity": 0.7086614173228346,
                    "duration": 0.3333329999999961
                },
                {
                    "name": "D4",
                    "midi": 62,
                    "time": 68.9999310000001,
                    "velocity": 0.7086614173228346,
                    "duration": 0.3333329999999961
                },
                {
                    "name": "D4",
                    "midi": 62,
                    "time": 69.3332640000001,
                    "velocity": 0.7086614173228346,
                    "duration": 0.3333329999999961
                },
                {
                    "name": "D4",
                    "midi": 62,
                    "time": 69.6665970000001,
                    "velocity": 0.7086614173228346,
                    "duration": 0.3333329999999961
                },
                {
                    "name": "F#3",
                    "midi": 54,
                    "time": 69.99993000000009,
                    "velocity": 0.7086614173228346,
                    "duration": 0.3333329999999961
                },
                {
                    "name": "G3",
                    "midi": 55,
                    "time": 70.33326300000009,
                    "velocity": 0.7086614173228346,
                    "duration": 1.3333319999999986
                },
                {
                    "name": "G3",
                    "midi": 55,
                    "time": 71.99992800000008,
                    "velocity": 0.7086614173228346,
                    "duration": 0.3333329999999961
                },
                {
                    "name": "G3",
                    "midi": 55,
                    "time": 72.33326100000008,
                    "velocity": 0.7086614173228346,
                    "duration": 0.3333329999999961
                },
                {
                    "name": "G3",
                    "midi": 55,
                    "time": 72.66659400000007,
                    "velocity": 0.7086614173228346,
                    "duration": 0.3333329999999961
                },
                {
                    "name": "G3",
                    "midi": 55,
                    "time": 72.99992700000007,
                    "velocity": 0.7086614173228346,
                    "duration": 0.3333329999999961
                },
                {
                    "name": "G3",
                    "midi": 55,
                    "time": 73.33326000000007,
                    "velocity": 0.7086614173228346,
                    "duration": 0.3333329999999961
                },
                {
                    "name": "G3",
                    "midi": 55,
                    "time": 73.66659300000006,
                    "velocity": 0.7086614173228346,
                    "duration": 0.3333329999999961
                },
                {
                    "name": "G3",
                    "midi": 55,
                    "time": 73.99992600000006,
                    "velocity": 0.7086614173228346,
                    "duration": 0.3333329999999961
                },
                {
                    "name": "A3",
                    "midi": 57,
                    "time": 74.33325900000006,
                    "velocity": 0.7086614173228346,
                    "duration": 0.3333329999999961
                },
                {
                    "name": "A3",
                    "midi": 57,
                    "time": 74.66659200000005,
                    "velocity": 0.7086614173228346,
                    "duration": 0.3333329999999961
                },
                {
                    "name": "A3",
                    "midi": 57,
                    "time": 74.99992500000005,
                    "velocity": 0.7086614173228346,
                    "duration": 0.3333329999999961
                },
                {
                    "name": "A#3",
                    "midi": 58,
                    "time": 75.33325800000004,
                    "velocity": 0.7086614173228346,
                    "duration": 0.3333329999999961
                },
                {
                    "name": "C4",
                    "midi": 60,
                    "time": 75.66659100000004,
                    "velocity": 0.7086614173228346,
                    "duration": 0.3333329999999961
                },
                {
                    "name": "C4",
                    "midi": 60,
                    "time": 75.99992400000004,
                    "velocity": 0.7086614173228346,
                    "duration": 0.3333329999999961
                },
                {
                    "name": "C4",
                    "midi": 60,
                    "time": 76.33325700000003,
                    "velocity": 0.7086614173228346,
                    "duration": 0.3333329999999961
                },
                {
                    "name": "C4",
                    "midi": 60,
                    "time": 76.66659000000003,
                    "velocity": 0.7086614173228346,
                    "duration": 0.3333329999999961
                },
                {
                    "name": "D4",
                    "midi": 62,
                    "time": 76.99992300000002,
                    "velocity": 0.7086614173228346,
                    "duration": 0.3333329999999961
                },
                {
                    "name": "D4",
                    "midi": 62,
                    "time": 77.33325600000002,
                    "velocity": 0.7086614173228346,
                    "duration": 0.3333329999999961
                },
                {
                    "name": "D4",
                    "midi": 62,
                    "time": 77.66658900000002,
                    "velocity": 0.7086614173228346,
                    "duration": 0.3333329999999961
                },
                {
                    "name": "D#4",
                    "midi": 63,
                    "time": 77.99992200000001,
                    "velocity": 0.7086614173228346,
                    "duration": 0.3333329999999961
                },
                {
                    "name": "F4",
                    "midi": 65,
                    "time": 78.33325500000001,
                    "velocity": 0.7086614173228346,
                    "duration": 0.3333329999999961
                },
                {
                    "name": "F4",
                    "midi": 65,
                    "time": 78.666588,
                    "velocity": 0.7086614173228346,
                    "duration": 0.3333329999999961
                },
                {
                    "name": "F4",
                    "midi": 65,
                    "time": 78.999921,
                    "velocity": 0.7086614173228346,
                    "duration": 0.3333329999999961
                },
                {
                    "name": "F4",
                    "midi": 65,
                    "time": 79.333254,
                    "velocity": 0.7086614173228346,
                    "duration": 0.3333329999999961
                },
                {
                    "name": "G4",
                    "midi": 67,
                    "time": 79.66658699999999,
                    "velocity": 0.7086614173228346,
                    "duration": 0.3333329999999961
                },
                {
                    "name": "G4",
                    "midi": 67,
                    "time": 79.99991999999999,
                    "velocity": 0.7086614173228346,
                    "duration": 0.3333329999999961
                },
                {
                    "name": "G4",
                    "midi": 67,
                    "time": 80.33325299999998,
                    "velocity": 0.7086614173228346,
                    "duration": 0.3333329999999961
                },
                {
                    "name": "A4",
                    "midi": 69,
                    "time": 80.66658599999998,
                    "velocity": 0.7086614173228346,
                    "duration": 0.3333329999999961
                },
                {
                    "name": "G4",
                    "midi": 67,
                    "time": 80.99991899999998,
                    "velocity": 0.7086614173228346,
                    "duration": 0.3333329999999961
                },
                {
                    "name": "C4",
                    "midi": 60,
                    "time": 81.33325199999997,
                    "velocity": 0.7086614173228346,
                    "duration": 0.3333329999999961
                },
                {
                    "name": "C4",
                    "midi": 60,
                    "time": 81.66658499999997,
                    "velocity": 0.7086614173228346,
                    "duration": 0.3333329999999961
                },
                {
                    "name": "D4",
                    "midi": 62,
                    "time": 81.99991799999997,
                    "velocity": 0.7086614173228346,
                    "duration": 0.3333329999999961
                },
                {
                    "name": "E4",
                    "midi": 64,
                    "time": 82.33325099999996,
                    "velocity": 0.7086614173228346,
                    "duration": 0.3333329999999961
                },
                {
                    "name": "E4",
                    "midi": 64,
                    "time": 82.66658399999996,
                    "velocity": 0.7086614173228346,
                    "duration": 0.3333329999999961
                },
                {
                    "name": "E4",
                    "midi": 64,
                    "time": 82.99991699999995,
                    "velocity": 0.7086614173228346,
                    "duration": 0.3333329999999961
                },
                {
                    "name": "F4",
                    "midi": 65,
                    "time": 83.33324999999995,
                    "velocity": 0.7086614173228346,
                    "duration": 0.3333329999999961
                },
                {
                    "name": "G4",
                    "midi": 67,
                    "time": 83.66658299999995,
                    "velocity": 0.7086614173228346,
                    "duration": 0.3333329999999961
                },
                {
                    "name": "G4",
                    "midi": 67,
                    "time": 83.99991599999994,
                    "velocity": 0.7086614173228346,
                    "duration": 0.3333329999999961
                },
                {
                    "name": "G4",
                    "midi": 67,
                    "time": 84.33324899999994,
                    "velocity": 0.7086614173228346,
                    "duration": 0.3333329999999961
                },
                {
                    "name": "A4",
                    "midi": 69,
                    "time": 84.66658199999993,
                    "velocity": 0.7086614173228346,
                    "duration": 0.3333329999999961
                },
                {
                    "name": "A#4",
                    "midi": 70,
                    "time": 84.99991499999993,
                    "velocity": 0.7086614173228346,
                    "duration": 0.3333329999999961
                },
                {
                    "name": "A#4",
                    "midi": 70,
                    "time": 85.33324799999993,
                    "velocity": 0.7086614173228346,
                    "duration": 0.3333329999999961
                },
                {
                    "name": "A4",
                    "midi": 69,
                    "time": 85.66658099999992,
                    "velocity": 0.7086614173228346,
                    "duration": 0.3333329999999961
                },
                {
                    "name": "G4",
                    "midi": 67,
                    "time": 85.99991399999992,
                    "velocity": 0.7086614173228346,
                    "duration": 0.3333329999999961
                },
                {
                    "name": "A4",
                    "midi": 69,
                    "time": 86.33324699999991,
                    "velocity": 0.7086614173228346,
                    "duration": 0.3333329999999961
                },
                {
                    "name": "A4",
                    "midi": 69,
                    "time": 86.66657999999991,
                    "velocity": 0.7086614173228346,
                    "duration": 0.3333329999999961
                },
                {
                    "name": "A4",
                    "midi": 69,
                    "time": 86.9999129999999,
                    "velocity": 0.7086614173228346,
                    "duration": 0.3333329999999961
                },
                {
                    "name": "A#4",
                    "midi": 70,
                    "time": 87.3332459999999,
                    "velocity": 0.7086614173228346,
                    "duration": 0.3333329999999961
                },
                {
                    "name": "C5",
                    "midi": 72,
                    "time": 87.6665789999999,
                    "velocity": 0.7086614173228346,
                    "duration": 0.3333329999999961
                },
                {
                    "name": "C5",
                    "midi": 72,
                    "time": 87.9999119999999,
                    "velocity": 0.7086614173228346,
                    "duration": 0.3333329999999961
                },
                {
                    "name": "C5",
                    "midi": 72,
                    "time": 88.33324499999989,
                    "velocity": 0.7086614173228346,
                    "duration": 0.3333329999999961
                },
                {
                    "name": "C5",
                    "midi": 72,
                    "time": 88.66657799999989,
                    "velocity": 0.7086614173228346,
                    "duration": 0.3333329999999961
                },
                {
                    "name": "C5",
                    "midi": 72,
                    "time": 88.99991099999988,
                    "velocity": 0.7086614173228346,
                    "duration": 0.3333329999999961
                },
                {
                    "name": "A#4",
                    "midi": 70,
                    "time": 89.33324399999988,
                    "velocity": 0.7086614173228346,
                    "duration": 0.3333329999999961
                },
                {
                    "name": "A#4",
                    "midi": 70,
                    "time": 89.66657699999988,
                    "velocity": 0.7086614173228346,
                    "duration": 0.3333329999999961
                },
                {
                    "name": "A4",
                    "midi": 69,
                    "time": 89.99990999999987,
                    "velocity": 0.7086614173228346,
                    "duration": 0.3333329999999961
                },
                {
                    "name": "F4",
                    "midi": 65,
                    "time": 90.33324299999987,
                    "velocity": 0.7086614173228346,
                    "duration": 0.3333329999999961
                },
                {
                    "name": "F4",
                    "midi": 65,
                    "time": 90.66657599999986,
                    "velocity": 0.7086614173228346,
                    "duration": 0.3333329999999961
                },
                {
                    "name": "G4",
                    "midi": 67,
                    "time": 90.99990899999986,
                    "velocity": 0.7086614173228346,
                    "duration": 0.3333329999999961
                },
                {
                    "name": "F4",
                    "midi": 65,
                    "time": 91.33324199999986,
                    "velocity": 0.7086614173228346,
                    "duration": 0.3333329999999961
                },
                {
                    "name": "A#3",
                    "midi": 58,
                    "time": 91.66657499999985,
                    "velocity": 0.7086614173228346,
                    "duration": 0.6666660000000064
                },
                {
                    "name": "A3",
                    "midi": 57,
                    "time": 92.33324099999986,
                    "velocity": 0.7086614173228346,
                    "duration": 0.3333329999999961
                },
                {
                    "name": "D4",
                    "midi": 62,
                    "time": 92.66657399999986,
                    "velocity": 0.7086614173228346,
                    "duration": 0.3333329999999961
                },
                {
                    "name": "G3",
                    "midi": 55,
                    "time": 92.99990699999985,
                    "velocity": 0.7086614173228346,
                    "duration": 0.6666660000000064
                },
                {
                    "name": "C4",
                    "midi": 60,
                    "time": 93.66657299999986,
                    "velocity": 0.7086614173228346,
                    "duration": 0.6666660000000064
                },
                {
                    "name": "C4",
                    "midi": 60,
                    "time": 94.33323899999986,
                    "velocity": 0.7086614173228346,
                    "duration": 1.3333319999999986
                },
                {
                    "name": "F4",
                    "midi": 65,
                    "time": 95.66657099999986,
                    "velocity": 0.7086614173228346,
                    "duration": 1.3333319999999986
                },
                {
                    "name": "E4",
                    "midi": 64,
                    "time": 96.99990299999986,
                    "velocity": 0.7086614173228346,
                    "duration": 0.3333329999999961
                },
                {
                    "name": "E4",
                    "midi": 64,
                    "time": 97.33323599999986,
                    "velocity": 0.7086614173228346,
                    "duration": 0.3333329999999961
                },
                {
                    "name": "E4",
                    "midi": 64,
                    "time": 97.66656899999985,
                    "velocity": 0.7086614173228346,
                    "duration": 0.3333329999999961
                },
                {
                    "name": "E4",
                    "midi": 64,
                    "time": 97.99990199999985,
                    "velocity": 0.7086614173228346,
                    "duration": 0.3333329999999961
                },
                {
                    "name": "E4",
                    "midi": 64,
                    "time": 98.33323499999985,
                    "velocity": 0.7086614173228346,
                    "duration": 0.3333329999999961
                },
                {
                    "name": "E4",
                    "midi": 64,
                    "time": 98.66656799999984,
                    "velocity": 0.7086614173228346,
                    "duration": 0.3333329999999961
                },
                {
                    "name": "E4",
                    "midi": 64,
                    "time": 98.99990099999984,
                    "velocity": 0.7086614173228346,
                    "duration": 0.3333329999999961
                },
                {
                    "name": "F#4",
                    "midi": 66,
                    "time": 99.33323399999983,
                    "velocity": 0.7086614173228346,
                    "duration": 0.3333329999999961
                },
                {
                    "name": "G4",
                    "midi": 67,
                    "time": 99.66656699999983,
                    "velocity": 0.7086614173228346,
                    "duration": 1.3333319999999986
                },
                {
                    "name": "G4",
                    "midi": 67,
                    "time": 100.99989899999983,
                    "velocity": 0.7086614173228346,
                    "duration": 1.3333319999999986
                },
                {
                    "name": "F4",
                    "midi": 65,
                    "time": 102.33323099999983,
                    "velocity": 0.7086614173228346,
                    "duration": 0.3333329999999961
                },
                {
                    "name": "F4",
                    "midi": 65,
                    "time": 102.66656399999982,
                    "velocity": 0.7086614173228346,
                    "duration": 0.3333329999999961
                },
                {
                    "name": "F4",
                    "midi": 65,
                    "time": 102.99989699999982,
                    "velocity": 0.7086614173228346,
                    "duration": 0.3333329999999961
                },
                {
                    "name": "F4",
                    "midi": 65,
                    "time": 103.33322999999982,
                    "velocity": 0.7086614173228346,
                    "duration": 0.3333329999999961
                },
                {
                    "name": "F4",
                    "midi": 65,
                    "time": 103.66656299999981,
                    "velocity": 0.7086614173228346,
                    "duration": 0.3333329999999961
                },
                {
                    "name": "F4",
                    "midi": 65,
                    "time": 103.99989599999981,
                    "velocity": 0.7086614173228346,
                    "duration": 0.3333329999999961
                },
                {
                    "name": "E4",
                    "midi": 64,
                    "time": 104.3332289999998,
                    "velocity": 0.7086614173228346,
                    "duration": 0.3333329999999961
                },
                {
                    "name": "E4",
                    "midi": 64,
                    "time": 104.6665619999998,
                    "velocity": 0.7086614173228346,
                    "duration": 0.3333329999999961
                },
                {
                    "name": "E4",
                    "midi": 64,
                    "time": 104.9998949999998,
                    "velocity": 0.7086614173228346,
                    "duration": 1.3333319999999986
                },
                {
                    "name": "E4",
                    "midi": 64,
                    "time": 107.99989199999979,
                    "velocity": 0.7086614173228346,
                    "duration": 0.3333329999999961
                },
                {
                    "name": "E4",
                    "midi": 64,
                    "time": 108.33322499999979,
                    "velocity": 0.7086614173228346,
                    "duration": 0.3333329999999961
                },
                {
                    "name": "F#4",
                    "midi": 66,
                    "time": 108.66655799999978,
                    "velocity": 0.7086614173228346,
                    "duration": 0.3333329999999961
                },
                {
                    "name": "G#4",
                    "midi": 68,
                    "time": 108.99989099999978,
                    "velocity": 0.7086614173228346,
                    "duration": 0.3333329999999961
                },
                {
                    "name": "G#4",
                    "midi": 68,
                    "time": 109.33322399999977,
                    "velocity": 0.7086614173228346,
                    "duration": 0.3333329999999961
                },
                {
                    "name": "G#4",
                    "midi": 68,
                    "time": 109.66655699999977,
                    "velocity": 0.7086614173228346,
                    "duration": 0.3333329999999961
                },
                {
                    "name": "A4",
                    "midi": 69,
                    "time": 109.99988999999977,
                    "velocity": 0.7086614173228346,
                    "duration": 0.3333329999999961
                },
                {
                    "name": "B4",
                    "midi": 71,
                    "time": 110.33322299999976,
                    "velocity": 0.7086614173228346,
                    "duration": 0.3333329999999961
                },
                {
                    "name": "B4",
                    "midi": 71,
                    "time": 110.66655599999976,
                    "velocity": 0.7086614173228346,
                    "duration": 0.3333329999999961
                },
                {
                    "name": "B4",
                    "midi": 71,
                    "time": 110.99988899999975,
                    "velocity": 0.7086614173228346,
                    "duration": 0.3333329999999961
                },
                {
                    "name": "C5",
                    "midi": 72,
                    "time": 111.33322199999975,
                    "velocity": 0.7086614173228346,
                    "duration": 0.3333329999999961
                },
                {
                    "name": "D5",
                    "midi": 74,
                    "time": 111.66655499999975,
                    "velocity": 0.7086614173228346,
                    "duration": 0.3333329999999961
                },
                {
                    "name": "D5",
                    "midi": 74,
                    "time": 111.99988799999974,
                    "velocity": 0.7086614173228346,
                    "duration": 0.3333329999999961
                },
                {
                    "name": "C5",
                    "midi": 72,
                    "time": 112.33322099999974,
                    "velocity": 0.7086614173228346,
                    "duration": 0.3333329999999961
                },
                {
                    "name": "B4",
                    "midi": 71,
                    "time": 112.66655399999973,
                    "velocity": 0.7086614173228346,
                    "duration": 0.3333329999999961
                },
                {
                    "name": "C5",
                    "midi": 72,
                    "time": 112.99988699999973,
                    "velocity": 0.7086614173228346,
                    "duration": 0.3333329999999961
                },
                {
                    "name": "C#5",
                    "midi": 73,
                    "time": 113.33321999999973,
                    "velocity": 0.7086614173228346,
                    "duration": 0.3333329999999961
                },
                {
                    "name": "C#5",
                    "midi": 73,
                    "time": 113.66655299999972,
                    "velocity": 0.7086614173228346,
                    "duration": 0.3333329999999961
                },
                {
                    "name": "D5",
                    "midi": 74,
                    "time": 113.99988599999972,
                    "velocity": 0.7086614173228346,
                    "duration": 0.3333329999999961
                },
                {
                    "name": "A4",
                    "midi": 69,
                    "time": 114.33321899999972,
                    "velocity": 0.7086614173228346,
                    "duration": 1.3333319999999986
                },
                {
                    "name": "G4",
                    "midi": 67,
                    "time": 115.66655099999971,
                    "velocity": 0.7086614173228346,
                    "duration": 0.9999990000000025
                },
                {
                    "name": "F4",
                    "midi": 65,
                    "time": 116.66654999999972,
                    "velocity": 0.7086614173228346,
                    "duration": 0.3333329999999961
                },
                {
                    "name": "C#4",
                    "midi": 61,
                    "time": 116.99988299999971,
                    "velocity": 0.7086614173228346,
                    "duration": 0.3333329999999961
                },
                {
                    "name": "C#4",
                    "midi": 61,
                    "time": 117.33321599999971,
                    "velocity": 0.7086614173228346,
                    "duration": 0.3333329999999961
                },
                {
                    "name": "D4",
                    "midi": 62,
                    "time": 117.6665489999997,
                    "velocity": 0.7086614173228346,
                    "duration": 0.3333329999999961
                },
                {
                    "name": "E4",
                    "midi": 64,
                    "time": 117.9998819999997,
                    "velocity": 0.7086614173228346,
                    "duration": 0.3333329999999961
                },
                {
                    "name": "A3",
                    "midi": 57,
                    "time": 118.3332149999997,
                    "velocity": 0.7086614173228346,
                    "duration": 1.3333319999999986
                },
                {
                    "name": "A4",
                    "midi": 69,
                    "time": 119.99987999999969,
                    "velocity": 0.7086614173228346,
                    "duration": 0.3333329999999961
                },
                {
                    "name": "A4",
                    "midi": 69,
                    "time": 120.33321299999969,
                    "velocity": 0.7086614173228346,
                    "duration": 0.3333329999999961
                },
                {
                    "name": "B4",
                    "midi": 71,
                    "time": 120.66654599999968,
                    "velocity": 0.7086614173228346,
                    "duration": 0.3333329999999961
                },
                {
                    "name": "G#4",
                    "midi": 68,
                    "time": 120.99987899999968,
                    "velocity": 0.7086614173228346,
                    "duration": 0.3333329999999961
                },
                {
                    "name": "G#4",
                    "midi": 68,
                    "time": 121.33321199999968,
                    "velocity": 0.7086614173228346,
                    "duration": 0.3333329999999961
                },
                {
                    "name": "A4",
                    "midi": 69,
                    "time": 121.66654499999967,
                    "velocity": 0.7086614173228346,
                    "duration": 0.3333329999999961
                },
                {
                    "name": "B4",
                    "midi": 71,
                    "time": 121.99987799999967,
                    "velocity": 0.7086614173228346,
                    "duration": 0.3333329999999961
                },
                {
                    "name": "E4",
                    "midi": 64,
                    "time": 122.33321099999966,
                    "velocity": 0.7086614173228346,
                    "duration": 0.9999990000000025
                },
                {
                    "name": "A4",
                    "midi": 69,
                    "time": 123.33320999999967,
                    "velocity": 0.7086614173228346,
                    "duration": 0.3333329999999961
                },
                {
                    "name": "A4",
                    "midi": 69,
                    "time": 123.66654299999966,
                    "velocity": 0.7086614173228346,
                    "duration": 0.9999990000000025
                },
                {
                    "name": "B4",
                    "midi": 71,
                    "time": 124.66654199999967,
                    "velocity": 0.7086614173228346,
                    "duration": 0.3333329999999961
                },
                {
                    "name": "G#4",
                    "midi": 68,
                    "time": 124.99987499999966,
                    "velocity": 0.7086614173228346,
                    "duration": 0.9999990000000025
                },
                {
                    "name": "A4",
                    "midi": 69,
                    "time": 125.99987399999966,
                    "velocity": 0.7086614173228346,
                    "duration": 0.3333329999999961
                },
                {
                    "name": "A4",
                    "midi": 69,
                    "time": 126.33320699999966,
                    "velocity": 0.7086614173228346,
                    "duration": 1.3333319999999986
                },
                {
                    "name": "C#5",
                    "midi": 73,
                    "time": 132.66653399999967,
                    "velocity": 0.7086614173228346,
                    "duration": 0.3333330000000103
                },
                {
                    "name": "D5",
                    "midi": 74,
                    "time": 132.99986699999968,
                    "velocity": 0.7086614173228346,
                    "duration": 0.9999990000000025
                },
                {
                    "name": "D5",
                    "midi": 74,
                    "time": 133.99986599999968,
                    "velocity": 0.7086614173228346,
                    "duration": 0.3333330000000103
                },
                {
                    "name": "D5",
                    "midi": 74,
                    "time": 134.3331989999997,
                    "velocity": 0.7086614173228346,
                    "duration": 1.3333320000000128
                },
                {
                    "name": "D5",
                    "midi": 74,
                    "time": 137.9998619999997,
                    "velocity": 0.7086614173228346,
                    "duration": 0.3333330000000103
                },
                {
                    "name": "D5",
                    "midi": 74,
                    "time": 138.3331949999997,
                    "velocity": 0.7086614173228346,
                    "duration": 0.9999990000000025
                },
                {
                    "name": "D5",
                    "midi": 74,
                    "time": 139.3331939999997,
                    "velocity": 0.7086614173228346,
                    "duration": 0.3333330000000103
                },
                {
                    "name": "D5",
                    "midi": 74,
                    "time": 139.66652699999972,
                    "velocity": 0.7086614173228346,
                    "duration": 1.3333320000000128
                },
                {
                    "name": "G4",
                    "midi": 67,
                    "time": 141.99985799999973,
                    "velocity": 0.7086614173228346,
                    "duration": 0.3333330000000103
                },
                {
                    "name": "G4",
                    "midi": 67,
                    "time": 142.33319099999974,
                    "velocity": 0.7086614173228346,
                    "duration": 1.3333320000000128
                },
                {
                    "name": "E4",
                    "midi": 64,
                    "time": 143.66652299999976,
                    "velocity": 0.7086614173228346,
                    "duration": 1.3333320000000128
                },
                {
                    "name": "A3",
                    "midi": 57,
                    "time": 144.99985499999977,
                    "velocity": 0.7086614173228346,
                    "duration": 0.6666659999999922
                },
                {
                    "name": "A#3",
                    "midi": 58,
                    "time": 145.66652099999976,
                    "velocity": 0.7086614173228346,
                    "duration": 0.6666659999999922
                },
                {
                    "name": "A3",
                    "midi": 57,
                    "time": 146.33318699999975,
                    "velocity": 0.7086614173228346,
                    "duration": 1.3333320000000128
                },
                {
                    "name": "A3",
                    "midi": 57,
                    "time": 147.66651899999977,
                    "velocity": 0.7086614173228346,
                    "duration": 1.3333320000000128
                },
                {
                    "name": "D4",
                    "midi": 62,
                    "time": 151.33318199999977,
                    "velocity": 0.7086614173228346,
                    "duration": 0.3333330000000103
                },
                {
                    "name": "E4",
                    "midi": 64,
                    "time": 151.66651499999978,
                    "velocity": 0.7086614173228346,
                    "duration": 0.9999990000000025
                },
                {
                    "name": "E4",
                    "midi": 64,
                    "time": 152.66651399999978,
                    "velocity": 0.7086614173228346,
                    "duration": 0.3333330000000103
                },
                {
                    "name": "E4",
                    "midi": 64,
                    "time": 152.9998469999998,
                    "velocity": 0.7086614173228346,
                    "duration": 1.3333320000000128
                },
                {
                    "name": "C#4",
                    "midi": 61,
                    "time": 156.6665099999998,
                    "velocity": 0.7086614173228346,
                    "duration": 0.3333330000000103
                },
                {
                    "name": "C#4",
                    "midi": 61,
                    "time": 156.9998429999998,
                    "velocity": 0.7086614173228346,
                    "duration": 0.9999990000000025
                },
                {
                    "name": "C#4",
                    "midi": 61,
                    "time": 157.9998419999998,
                    "velocity": 0.7086614173228346,
                    "duration": 0.3333330000000103
                },
                {
                    "name": "C#4",
                    "midi": 61,
                    "time": 158.3331749999998,
                    "velocity": 0.7086614173228346,
                    "duration": 0.9999990000000025
                },
                {
                    "name": "G4",
                    "midi": 67,
                    "time": 159.33317399999981,
                    "velocity": 0.7086614173228346,
                    "duration": 0.3333330000000103
                },
                {
                    "name": "G4",
                    "midi": 67,
                    "time": 159.66650699999983,
                    "velocity": 0.7086614173228346,
                    "duration": 0.9999990000000025
                },
                {
                    "name": "A4",
                    "midi": 69,
                    "time": 160.66650599999983,
                    "velocity": 0.7086614173228346,
                    "duration": 0.3333330000000103
                },
                {
                    "name": "A4",
                    "midi": 69,
                    "time": 160.99983899999984,
                    "velocity": 0.7086614173228346,
                    "duration": 1.3333320000000128
                },
                {
                    "name": "A4",
                    "midi": 69,
                    "time": 162.99983699999984,
                    "velocity": 0.7086614173228346,
                    "duration": 0.6666659999999922
                },
                {
                    "name": "A4",
                    "midi": 69,
                    "time": 163.66650299999984,
                    "velocity": 0.7086614173228346,
                    "duration": 0.9999990000000025
                },
                {
                    "name": "G4",
                    "midi": 67,
                    "time": 164.66650199999984,
                    "velocity": 0.7086614173228346,
                    "duration": 0.3333330000000103
                },
                {
                    "name": "G4",
                    "midi": 67,
                    "time": 164.99983499999985,
                    "velocity": 0.7086614173228346,
                    "duration": 0.9999990000000025
                },
                {
                    "name": "F4",
                    "midi": 65,
                    "time": 165.99983399999985,
                    "velocity": 0.7086614173228346,
                    "duration": 0.16666649999999095
                },
                {
                    "name": "E4",
                    "midi": 64,
                    "time": 166.16650049999984,
                    "velocity": 0.7086614173228346,
                    "duration": 0.16666649999999095
                },
                {
                    "name": "F4",
                    "midi": 65,
                    "time": 166.33316699999983,
                    "velocity": 0.7086614173228346,
                    "duration": 2.6666639999999973
                }
            ],
            "controlChanges": {},
            "id": 7,
            "name": "",
            "instrumentNumber": 48,
            "instrument": "string ensemble 1",
            "instrumentFamily": "ensemble",
            "channelNumber": 7,
            "isPercussion": false
        },
        {
            "startTime": 1.333332,
            "duration": 168.99983099999977,
            "length": 282,
            "notes": [
                {
                    "name": "A4",
                    "midi": 69,
                    "time": 1.333332,
                    "velocity": 0.7086614173228346,
                    "duration": 0.3333330000000001
                },
                {
                    "name": "A4",
                    "midi": 69,
                    "time": 1.666665,
                    "velocity": 0.7086614173228346,
                    "duration": 0.49999949999999993
                },
                {
                    "name": "A4",
                    "midi": 69,
                    "time": 2.1666645,
                    "velocity": 0.7086614173228346,
                    "duration": 0.16666649999999983
                },
                {
                    "name": "A4",
                    "midi": 69,
                    "time": 2.333331,
                    "velocity": 0.7086614173228346,
                    "duration": 1.333332
                },
                {
                    "name": "F4",
                    "midi": 65,
                    "time": 3.999996,
                    "velocity": 0.7086614173228346,
                    "duration": 0.3333330000000001
                },
                {
                    "name": "F4",
                    "midi": 65,
                    "time": 4.333329,
                    "velocity": 0.7086614173228346,
                    "duration": 0.4999995000000004
                },
                {
                    "name": "F4",
                    "midi": 65,
                    "time": 4.8333285,
                    "velocity": 0.7086614173228346,
                    "duration": 0.16666649999999983
                },
                {
                    "name": "A4",
                    "midi": 69,
                    "time": 4.999995,
                    "velocity": 0.7086614173228346,
                    "duration": 1.3333320000000004
                },
                {
                    "name": "D4",
                    "midi": 62,
                    "time": 6.66666,
                    "velocity": 0.7086614173228346,
                    "duration": 0.33333299999999966
                },
                {
                    "name": "F4",
                    "midi": 65,
                    "time": 6.999993,
                    "velocity": 0.7086614173228346,
                    "duration": 0.4999995000000004
                },
                {
                    "name": "A4",
                    "midi": 69,
                    "time": 7.4999925,
                    "velocity": 0.7086614173228346,
                    "duration": 0.16666649999999983
                },
                {
                    "name": "D4",
                    "midi": 62,
                    "time": 7.666659,
                    "velocity": 0.7086614173228346,
                    "duration": 0.4999995000000004
                },
                {
                    "name": "D4",
                    "midi": 62,
                    "time": 8.1666585,
                    "velocity": 0.7086614173228346,
                    "duration": 0.16666649999999983
                },
                {
                    "name": "E4",
                    "midi": 64,
                    "time": 8.333325,
                    "velocity": 0.7086614173228346,
                    "duration": 0.4999994999999995
                },
                {
                    "name": "E4",
                    "midi": 64,
                    "time": 8.8333245,
                    "velocity": 0.7086614173228346,
                    "duration": 0.16666649999999983
                },
                {
                    "name": "E4",
                    "midi": 64,
                    "time": 8.999991,
                    "velocity": 0.7086614173228346,
                    "duration": 0.6666659999999993
                },
                {
                    "name": "E4",
                    "midi": 64,
                    "time": 9.666656999999999,
                    "velocity": 0.7086614173228346,
                    "duration": 0.6666659999999993
                },
                {
                    "name": "D4",
                    "midi": 62,
                    "time": 10.333322999999998,
                    "velocity": 0.7086614173228346,
                    "duration": 1.3333320000000004
                },
                {
                    "name": "C#4",
                    "midi": 61,
                    "time": 11.666654999999999,
                    "velocity": 0.7086614173228346,
                    "duration": 0.6666659999999993
                },
                {
                    "name": "A3",
                    "midi": 57,
                    "time": 12.333320999999998,
                    "velocity": 0.7086614173228346,
                    "duration": 0.6666659999999993
                },
                {
                    "name": "E4",
                    "midi": 64,
                    "time": 13.333319999999997,
                    "velocity": 0.7086614173228346,
                    "duration": 0.33333299999999966
                },
                {
                    "name": "E4",
                    "midi": 64,
                    "time": 13.666652999999997,
                    "velocity": 0.7086614173228346,
                    "duration": 0.4999994999999995
                },
                {
                    "name": "E4",
                    "midi": 64,
                    "time": 14.166652499999996,
                    "velocity": 0.7086614173228346,
                    "duration": 0.16666649999999983
                },
                {
                    "name": "F4",
                    "midi": 65,
                    "time": 14.333318999999996,
                    "velocity": 0.7086614173228346,
                    "duration": 0.6666659999999993
                },
                {
                    "name": "E4",
                    "midi": 64,
                    "time": 14.999984999999995,
                    "velocity": 0.7086614173228346,
                    "duration": 1.3333319999999986
                },
                {
                    "name": "D4",
                    "midi": 62,
                    "time": 16.333316999999994,
                    "velocity": 0.7086614173228346,
                    "duration": 0.6666659999999993
                },
                {
                    "name": "B3",
                    "midi": 59,
                    "time": 16.999982999999993,
                    "velocity": 0.7086614173228346,
                    "duration": 0.999998999999999
                },
                {
                    "name": "G#4",
                    "midi": 68,
                    "time": 17.999981999999992,
                    "velocity": 0.7086614173228346,
                    "duration": 0.33333299999999966
                },
                {
                    "name": "A4",
                    "midi": 69,
                    "time": 18.333314999999992,
                    "velocity": 0.7086614173228346,
                    "duration": 0.999998999999999
                },
                {
                    "name": "B4",
                    "midi": 71,
                    "time": 19.33331399999999,
                    "velocity": 0.7086614173228346,
                    "duration": 0.33333299999999966
                },
                {
                    "name": "G#4",
                    "midi": 68,
                    "time": 19.66664699999999,
                    "velocity": 0.7086614173228346,
                    "duration": 0.6666659999999993
                },
                {
                    "name": "A4",
                    "midi": 69,
                    "time": 20.33331299999999,
                    "velocity": 0.7086614173228346,
                    "duration": 0.6666659999999993
                },
                {
                    "name": "D5",
                    "midi": 74,
                    "time": 20.99997899999999,
                    "velocity": 0.7086614173228346,
                    "duration": 0.6666659999999993
                },
                {
                    "name": "B4",
                    "midi": 71,
                    "time": 21.66664499999999,
                    "velocity": 0.7086614173228346,
                    "duration": 0.6666659999999993
                },
                {
                    "name": "C5",
                    "midi": 72,
                    "time": 22.333310999999988,
                    "velocity": 0.7086614173228346,
                    "duration": 0.49999950000000126
                },
                {
                    "name": "C5",
                    "midi": 72,
                    "time": 22.83331049999999,
                    "velocity": 0.7086614173228346,
                    "duration": 0.1666665000000016
                },
                {
                    "name": "B4",
                    "midi": 71,
                    "time": 22.99997699999999,
                    "velocity": 0.7086614173228346,
                    "duration": 0.49999950000000126
                },
                {
                    "name": "B4",
                    "midi": 71,
                    "time": 23.499976499999992,
                    "velocity": 0.7086614173228346,
                    "duration": 0.1666665000000016
                },
                {
                    "name": "B4",
                    "midi": 71,
                    "time": 23.666642999999993,
                    "velocity": 0.7086614173228346,
                    "duration": 1.3333319999999986
                },
                {
                    "name": "D5",
                    "midi": 74,
                    "time": 25.33330799999999,
                    "velocity": 0.7086614173228346,
                    "duration": 0.33333299999999966
                },
                {
                    "name": "D5",
                    "midi": 74,
                    "time": 25.66664099999999,
                    "velocity": 0.7086614173228346,
                    "duration": 0.49999950000000126
                },
                {
                    "name": "D5",
                    "midi": 74,
                    "time": 26.166640499999993,
                    "velocity": 0.7086614173228346,
                    "duration": 0.1666665000000016
                },
                {
                    "name": "G#4",
                    "midi": 68,
                    "time": 26.333306999999994,
                    "velocity": 0.7086614173228346,
                    "duration": 1.3333319999999986
                },
                {
                    "name": "E4",
                    "midi": 64,
                    "time": 27.999971999999993,
                    "velocity": 0.7086614173228346,
                    "duration": 0.33333299999999966
                },
                {
                    "name": "E4",
                    "midi": 64,
                    "time": 28.333304999999992,
                    "velocity": 0.7086614173228346,
                    "duration": 0.49999950000000126
                },
                {
                    "name": "E4",
                    "midi": 64,
                    "time": 28.833304499999993,
                    "velocity": 0.7086614173228346,
                    "duration": 0.1666665000000016
                },
                {
                    "name": "E4",
                    "midi": 64,
                    "time": 28.999970999999995,
                    "velocity": 0.7086614173228346,
                    "duration": 1.3333319999999986
                },
                {
                    "name": "G#4",
                    "midi": 68,
                    "time": 30.666635999999993,
                    "velocity": 0.7086614173228346,
                    "duration": 0.33333299999999966
                },
                {
                    "name": "G#4",
                    "midi": 68,
                    "time": 30.999968999999993,
                    "velocity": 0.7086614173228346,
                    "duration": 0.49999950000000126
                },
                {
                    "name": "A4",
                    "midi": 69,
                    "time": 31.499968499999994,
                    "velocity": 0.7086614173228346,
                    "duration": 0.1666665000000016
                },
                {
                    "name": "B4",
                    "midi": 71,
                    "time": 31.666634999999996,
                    "velocity": 0.7086614173228346,
                    "duration": 0.4999994999999977
                },
                {
                    "name": "E4",
                    "midi": 64,
                    "time": 32.166634499999994,
                    "velocity": 0.7086614173228346,
                    "duration": 0.16666649999999805
                },
                {
                    "name": "E4",
                    "midi": 64,
                    "time": 32.33330099999999,
                    "velocity": 0.7086614173228346,
                    "duration": 0.49999950000000126
                },
                {
                    "name": "E4",
                    "midi": 64,
                    "time": 32.83330049999999,
                    "velocity": 0.7086614173228346,
                    "duration": 0.16666649999999805
                },
                {
                    "name": "E4",
                    "midi": 64,
                    "time": 32.99996699999999,
                    "velocity": 0.7086614173228346,
                    "duration": 1.3333319999999986
                },
                {
                    "name": "E4",
                    "midi": 64,
                    "time": 34.33329899999999,
                    "velocity": 0.7086614173228346,
                    "duration": 0.6666659999999993
                },
                {
                    "name": "D4",
                    "midi": 62,
                    "time": 34.99996499999999,
                    "velocity": 0.7086614173228346,
                    "duration": 0.6666659999999993
                },
                {
                    "name": "C#4",
                    "midi": 61,
                    "time": 35.66663099999999,
                    "velocity": 0.7086614173228346,
                    "duration": 0.49999950000000126
                },
                {
                    "name": "A3",
                    "midi": 57,
                    "time": 36.16663049999999,
                    "velocity": 0.7086614173228346,
                    "duration": 0.16666649999999805
                },
                {
                    "name": "A3",
                    "midi": 57,
                    "time": 36.33329699999999,
                    "velocity": 0.7086614173228346,
                    "duration": 0.49999950000000126
                },
                {
                    "name": "A3",
                    "midi": 57,
                    "time": 36.83329649999999,
                    "velocity": 0.7086614173228346,
                    "duration": 0.16666649999999805
                },
                {
                    "name": "A3",
                    "midi": 57,
                    "time": 36.99996299999999,
                    "velocity": 0.7086614173228346,
                    "duration": 1.3333319999999986
                },
                {
                    "name": "C#4",
                    "midi": 61,
                    "time": 38.333294999999985,
                    "velocity": 0.7086614173228346,
                    "duration": 2.6666639999999973
                },
                {
                    "name": "D5",
                    "midi": 74,
                    "time": 46.66661999999998,
                    "velocity": 0.7086614173228346,
                    "duration": 0.3333330000000032
                },
                {
                    "name": "D5",
                    "midi": 74,
                    "time": 46.999952999999984,
                    "velocity": 0.7086614173228346,
                    "duration": 0.3333330000000032
                },
                {
                    "name": "C5",
                    "midi": 72,
                    "time": 47.33328599999999,
                    "velocity": 0.7086614173228346,
                    "duration": 0.3333330000000032
                },
                {
                    "name": "A#4",
                    "midi": 70,
                    "time": 47.66661899999999,
                    "velocity": 0.7086614173228346,
                    "duration": 0.3333330000000032
                },
                {
                    "name": "A#4",
                    "midi": 70,
                    "time": 47.99995199999999,
                    "velocity": 0.7086614173228346,
                    "duration": 0.3333330000000032
                },
                {
                    "name": "A#4",
                    "midi": 70,
                    "time": 48.333285,
                    "velocity": 0.7086614173228346,
                    "duration": 0.3333330000000032
                },
                {
                    "name": "A4",
                    "midi": 69,
                    "time": 48.666618,
                    "velocity": 0.7086614173228346,
                    "duration": 0.3333330000000032
                },
                {
                    "name": "G4",
                    "midi": 67,
                    "time": 48.999951,
                    "velocity": 0.7086614173228346,
                    "duration": 0.3333330000000032
                },
                {
                    "name": "G4",
                    "midi": 67,
                    "time": 49.333284000000006,
                    "velocity": 0.7086614173228346,
                    "duration": 0.3333330000000032
                },
                {
                    "name": "G4",
                    "midi": 67,
                    "time": 49.66661700000001,
                    "velocity": 0.7086614173228346,
                    "duration": 0.3333330000000032
                },
                {
                    "name": "F4",
                    "midi": 65,
                    "time": 49.99995000000001,
                    "velocity": 0.7086614173228346,
                    "duration": 0.3333330000000032
                },
                {
                    "name": "E4",
                    "midi": 64,
                    "time": 50.333283000000016,
                    "velocity": 0.7086614173228346,
                    "duration": 0.3333330000000032
                },
                {
                    "name": "E4",
                    "midi": 64,
                    "time": 50.66661600000002,
                    "velocity": 0.7086614173228346,
                    "duration": 0.3333330000000032
                },
                {
                    "name": "E4",
                    "midi": 64,
                    "time": 50.99994900000002,
                    "velocity": 0.7086614173228346,
                    "duration": 0.3333330000000032
                },
                {
                    "name": "D4",
                    "midi": 62,
                    "time": 51.333282000000025,
                    "velocity": 0.7086614173228346,
                    "duration": 0.3333330000000032
                },
                {
                    "name": "C#4",
                    "midi": 61,
                    "time": 51.66661500000003,
                    "velocity": 0.7086614173228346,
                    "duration": 0.3333330000000032
                },
                {
                    "name": "A3",
                    "midi": 57,
                    "time": 51.99994800000003,
                    "velocity": 0.7086614173228346,
                    "duration": 0.3333330000000032
                },
                {
                    "name": "A3",
                    "midi": 57,
                    "time": 52.333281000000035,
                    "velocity": 0.7086614173228346,
                    "duration": 0.3333330000000032
                },
                {
                    "name": "B3",
                    "midi": 59,
                    "time": 52.66661400000004,
                    "velocity": 0.7086614173228346,
                    "duration": 0.3333330000000032
                },
                {
                    "name": "C#4",
                    "midi": 61,
                    "time": 52.99994700000004,
                    "velocity": 0.7086614173228346,
                    "duration": 0.3333330000000032
                },
                {
                    "name": "C#4",
                    "midi": 61,
                    "time": 53.333280000000045,
                    "velocity": 0.7086614173228346,
                    "duration": 0.3333330000000032
                },
                {
                    "name": "C#4",
                    "midi": 61,
                    "time": 53.66661300000005,
                    "velocity": 0.7086614173228346,
                    "duration": 0.3333330000000032
                },
                {
                    "name": "D4",
                    "midi": 62,
                    "time": 53.99994600000005,
                    "velocity": 0.7086614173228346,
                    "duration": 0.3333330000000032
                },
                {
                    "name": "E4",
                    "midi": 64,
                    "time": 54.333279000000054,
                    "velocity": 0.7086614173228346,
                    "duration": 0.3333330000000032
                },
                {
                    "name": "E4",
                    "midi": 64,
                    "time": 54.66661200000006,
                    "velocity": 0.7086614173228346,
                    "duration": 0.3333330000000032
                },
                {
                    "name": "E4",
                    "midi": 64,
                    "time": 54.99994500000006,
                    "velocity": 0.7086614173228346,
                    "duration": 0.3333330000000032
                },
                {
                    "name": "F4",
                    "midi": 65,
                    "time": 55.333278000000064,
                    "velocity": 0.7086614173228346,
                    "duration": 0.3333330000000032
                },
                {
                    "name": "G4",
                    "midi": 67,
                    "time": 55.66661100000007,
                    "velocity": 0.7086614173228346,
                    "duration": 0.3333330000000032
                },
                {
                    "name": "G4",
                    "midi": 67,
                    "time": 55.99994400000007,
                    "velocity": 0.7086614173228346,
                    "duration": 0.3333330000000032
                },
                {
                    "name": "F4",
                    "midi": 65,
                    "time": 56.33327700000007,
                    "velocity": 0.7086614173228346,
                    "duration": 0.3333330000000032
                },
                {
                    "name": "E4",
                    "midi": 64,
                    "time": 56.66661000000008,
                    "velocity": 0.7086614173228346,
                    "duration": 0.3333330000000032
                },
                {
                    "name": "F4",
                    "midi": 65,
                    "time": 56.99994300000008,
                    "velocity": 0.7086614173228346,
                    "duration": 0.3333330000000032
                },
                {
                    "name": "F4",
                    "midi": 65,
                    "time": 57.33327600000008,
                    "velocity": 0.7086614173228346,
                    "duration": 0.3333330000000032
                },
                {
                    "name": "F4",
                    "midi": 65,
                    "time": 57.666609000000086,
                    "velocity": 0.7086614173228346,
                    "duration": 0.3333330000000032
                },
                {
                    "name": "F4",
                    "midi": 65,
                    "time": 57.99994200000009,
                    "velocity": 0.7086614173228346,
                    "duration": 0.3333330000000032
                },
                {
                    "name": "F4",
                    "midi": 65,
                    "time": 58.33327500000009,
                    "velocity": 0.7086614173228346,
                    "duration": 0.3333330000000032
                },
                {
                    "name": "F4",
                    "midi": 65,
                    "time": 58.666608000000096,
                    "velocity": 0.7086614173228346,
                    "duration": 0.3333330000000032
                },
                {
                    "name": "E4",
                    "midi": 64,
                    "time": 58.9999410000001,
                    "velocity": 0.7086614173228346,
                    "duration": 0.3333330000000032
                },
                {
                    "name": "F#4",
                    "midi": 66,
                    "time": 59.3332740000001,
                    "velocity": 0.7086614173228346,
                    "duration": 0.3333330000000032
                },
                {
                    "name": "G4",
                    "midi": 67,
                    "time": 59.666607000000106,
                    "velocity": 0.7086614173228346,
                    "duration": 0.3333330000000032
                },
                {
                    "name": "G3",
                    "midi": 55,
                    "time": 59.99994000000011,
                    "velocity": 0.7086614173228346,
                    "duration": 0.3333330000000032
                },
                {
                    "name": "G3",
                    "midi": 55,
                    "time": 60.33327300000011,
                    "velocity": 0.7086614173228346,
                    "duration": 0.3333330000000032
                },
                {
                    "name": "A3",
                    "midi": 57,
                    "time": 60.666606000000115,
                    "velocity": 0.7086614173228346,
                    "duration": 0.3333330000000032
                },
                {
                    "name": "A#3",
                    "midi": 58,
                    "time": 60.99993900000012,
                    "velocity": 0.7086614173228346,
                    "duration": 0.9999990000000025
                },
                {
                    "name": "A#3",
                    "midi": 58,
                    "time": 61.99993800000012,
                    "velocity": 0.7086614173228346,
                    "duration": 0.3333330000000032
                },
                {
                    "name": "A3",
                    "midi": 57,
                    "time": 62.333271000000124,
                    "velocity": 0.7086614173228346,
                    "duration": 1.3333319999999986
                },
                {
                    "name": "A3",
                    "midi": 57,
                    "time": 63.66660300000012,
                    "velocity": 0.7086614173228346,
                    "duration": 1.3333319999999986
                },
                {
                    "name": "A3",
                    "midi": 57,
                    "time": 64.99993500000012,
                    "velocity": 0.7086614173228346,
                    "duration": 1.3333319999999986
                },
                {
                    "name": "A3",
                    "midi": 57,
                    "time": 66.66660000000012,
                    "velocity": 0.7086614173228346,
                    "duration": 0.3333329999999961
                },
                {
                    "name": "A3",
                    "midi": 57,
                    "time": 66.99993300000011,
                    "velocity": 0.7086614173228346,
                    "duration": 0.3333329999999961
                },
                {
                    "name": "A3",
                    "midi": 57,
                    "time": 67.33326600000011,
                    "velocity": 0.7086614173228346,
                    "duration": 0.3333329999999961
                },
                {
                    "name": "A3",
                    "midi": 57,
                    "time": 67.6665990000001,
                    "velocity": 0.7086614173228346,
                    "duration": 0.3333329999999961
                },
                {
                    "name": "A3",
                    "midi": 57,
                    "time": 67.9999320000001,
                    "velocity": 0.7086614173228346,
                    "duration": 0.3333329999999961
                },
                {
                    "name": "A3",
                    "midi": 57,
                    "time": 68.3332650000001,
                    "velocity": 0.7086614173228346,
                    "duration": 0.3333329999999961
                },
                {
                    "name": "A3",
                    "midi": 57,
                    "time": 68.66659800000009,
                    "velocity": 0.7086614173228346,
                    "duration": 0.3333329999999961
                },
                {
                    "name": "A#3",
                    "midi": 58,
                    "time": 68.99993100000009,
                    "velocity": 0.7086614173228346,
                    "duration": 0.3333329999999961
                },
                {
                    "name": "A#3",
                    "midi": 58,
                    "time": 69.33326400000009,
                    "velocity": 0.7086614173228346,
                    "duration": 0.3333329999999961
                },
                {
                    "name": "A#3",
                    "midi": 58,
                    "time": 69.66659700000008,
                    "velocity": 0.7086614173228346,
                    "duration": 0.3333329999999961
                },
                {
                    "name": "C4",
                    "midi": 60,
                    "time": 69.99993000000008,
                    "velocity": 0.7086614173228346,
                    "duration": 0.3333329999999961
                },
                {
                    "name": "D4",
                    "midi": 62,
                    "time": 70.33326300000007,
                    "velocity": 0.7086614173228346,
                    "duration": 1.3333319999999986
                },
                {
                    "name": "C4",
                    "midi": 60,
                    "time": 71.99992800000007,
                    "velocity": 0.7086614173228346,
                    "duration": 0.3333329999999961
                },
                {
                    "name": "C4",
                    "midi": 60,
                    "time": 72.33326100000006,
                    "velocity": 0.7086614173228346,
                    "duration": 0.3333329999999961
                },
                {
                    "name": "C4",
                    "midi": 60,
                    "time": 72.66659400000006,
                    "velocity": 0.7086614173228346,
                    "duration": 0.3333329999999961
                },
                {
                    "name": "C4",
                    "midi": 60,
                    "time": 72.99992700000006,
                    "velocity": 0.7086614173228346,
                    "duration": 0.3333329999999961
                },
                {
                    "name": "C4",
                    "midi": 60,
                    "time": 73.33326000000005,
                    "velocity": 0.7086614173228346,
                    "duration": 0.3333329999999961
                },
                {
                    "name": "C4",
                    "midi": 60,
                    "time": 73.66659300000005,
                    "velocity": 0.7086614173228346,
                    "duration": 0.3333329999999961
                },
                {
                    "name": "C4",
                    "midi": 60,
                    "time": 73.99992600000004,
                    "velocity": 0.7086614173228346,
                    "duration": 0.3333329999999961
                },
                {
                    "name": "C4",
                    "midi": 60,
                    "time": 74.33325900000004,
                    "velocity": 0.7086614173228346,
                    "duration": 0.3333329999999961
                },
                {
                    "name": "C4",
                    "midi": 60,
                    "time": 74.66659200000004,
                    "velocity": 0.7086614173228346,
                    "duration": 0.3333329999999961
                },
                {
                    "name": "C4",
                    "midi": 60,
                    "time": 74.99992500000003,
                    "velocity": 0.7086614173228346,
                    "duration": 0.3333329999999961
                },
                {
                    "name": "E3",
                    "midi": 52,
                    "time": 75.33325800000003,
                    "velocity": 0.7086614173228346,
                    "duration": 0.3333329999999961
                },
                {
                    "name": "F3",
                    "midi": 53,
                    "time": 75.66659100000003,
                    "velocity": 0.7086614173228346,
                    "duration": 0.3333329999999961
                },
                {
                    "name": "F4",
                    "midi": 65,
                    "time": 75.99992400000002,
                    "velocity": 0.7086614173228346,
                    "duration": 0.3333329999999961
                },
                {
                    "name": "F4",
                    "midi": 65,
                    "time": 76.33325700000002,
                    "velocity": 0.7086614173228346,
                    "duration": 0.3333329999999961
                },
                {
                    "name": "F4",
                    "midi": 65,
                    "time": 76.66659000000001,
                    "velocity": 0.7086614173228346,
                    "duration": 0.3333329999999961
                },
                {
                    "name": "F4",
                    "midi": 65,
                    "time": 76.99992300000001,
                    "velocity": 0.7086614173228346,
                    "duration": 0.3333329999999961
                },
                {
                    "name": "F4",
                    "midi": 65,
                    "time": 77.333256,
                    "velocity": 0.7086614173228346,
                    "duration": 0.3333329999999961
                },
                {
                    "name": "F4",
                    "midi": 65,
                    "time": 77.666589,
                    "velocity": 0.7086614173228346,
                    "duration": 0.3333329999999961
                },
                {
                    "name": "A3",
                    "midi": 57,
                    "time": 77.999922,
                    "velocity": 0.7086614173228346,
                    "duration": 0.3333329999999961
                },
                {
                    "name": "A#3",
                    "midi": 58,
                    "time": 78.333255,
                    "velocity": 0.7086614173228346,
                    "duration": 0.3333329999999961
                },
                {
                    "name": "A#4",
                    "midi": 70,
                    "time": 78.66658799999999,
                    "velocity": 0.7086614173228346,
                    "duration": 0.3333329999999961
                },
                {
                    "name": "A#4",
                    "midi": 70,
                    "time": 78.99992099999999,
                    "velocity": 0.7086614173228346,
                    "duration": 0.3333329999999961
                },
                {
                    "name": "A#4",
                    "midi": 70,
                    "time": 79.33325399999998,
                    "velocity": 0.7086614173228346,
                    "duration": 0.3333329999999961
                },
                {
                    "name": "A#4",
                    "midi": 70,
                    "time": 79.66658699999998,
                    "velocity": 0.7086614173228346,
                    "duration": 0.3333329999999961
                },
                {
                    "name": "C4",
                    "midi": 60,
                    "time": 79.99991999999997,
                    "velocity": 0.7086614173228346,
                    "duration": 0.3333329999999961
                },
                {
                    "name": "C4",
                    "midi": 60,
                    "time": 80.33325299999997,
                    "velocity": 0.7086614173228346,
                    "duration": 0.3333329999999961
                },
                {
                    "name": "C4",
                    "midi": 60,
                    "time": 80.66658599999997,
                    "velocity": 0.7086614173228346,
                    "duration": 0.3333329999999961
                },
                {
                    "name": "C4",
                    "midi": 60,
                    "time": 80.99991899999996,
                    "velocity": 0.7086614173228346,
                    "duration": 0.3333329999999961
                },
                {
                    "name": "C4",
                    "midi": 60,
                    "time": 81.33325199999996,
                    "velocity": 0.7086614173228346,
                    "duration": 0.3333329999999961
                },
                {
                    "name": "C4",
                    "midi": 60,
                    "time": 81.66658499999996,
                    "velocity": 0.7086614173228346,
                    "duration": 0.3333329999999961
                },
                {
                    "name": "D4",
                    "midi": 62,
                    "time": 81.99991799999995,
                    "velocity": 0.7086614173228346,
                    "duration": 0.3333329999999961
                },
                {
                    "name": "E4",
                    "midi": 64,
                    "time": 82.33325099999995,
                    "velocity": 0.7086614173228346,
                    "duration": 0.3333329999999961
                },
                {
                    "name": "E4",
                    "midi": 64,
                    "time": 82.66658399999994,
                    "velocity": 0.7086614173228346,
                    "duration": 0.3333329999999961
                },
                {
                    "name": "E4",
                    "midi": 64,
                    "time": 82.99991699999994,
                    "velocity": 0.7086614173228346,
                    "duration": 0.3333329999999961
                },
                {
                    "name": "F4",
                    "midi": 65,
                    "time": 83.33324999999994,
                    "velocity": 0.7086614173228346,
                    "duration": 0.3333329999999961
                },
                {
                    "name": "G4",
                    "midi": 67,
                    "time": 83.66658299999993,
                    "velocity": 0.7086614173228346,
                    "duration": 0.3333329999999961
                },
                {
                    "name": "G4",
                    "midi": 67,
                    "time": 83.99991599999993,
                    "velocity": 0.7086614173228346,
                    "duration": 0.3333329999999961
                },
                {
                    "name": "G4",
                    "midi": 67,
                    "time": 84.33324899999992,
                    "velocity": 0.7086614173228346,
                    "duration": 0.3333329999999961
                },
                {
                    "name": "A4",
                    "midi": 69,
                    "time": 84.66658199999992,
                    "velocity": 0.7086614173228346,
                    "duration": 0.3333329999999961
                },
                {
                    "name": "A#4",
                    "midi": 70,
                    "time": 84.99991499999992,
                    "velocity": 0.7086614173228346,
                    "duration": 0.3333329999999961
                },
                {
                    "name": "A#4",
                    "midi": 70,
                    "time": 85.33324799999991,
                    "velocity": 0.7086614173228346,
                    "duration": 0.3333329999999961
                },
                {
                    "name": "A4",
                    "midi": 69,
                    "time": 85.66658099999991,
                    "velocity": 0.7086614173228346,
                    "duration": 0.3333329999999961
                },
                {
                    "name": "G4",
                    "midi": 67,
                    "time": 85.9999139999999,
                    "velocity": 0.7086614173228346,
                    "duration": 0.3333329999999961
                },
                {
                    "name": "A4",
                    "midi": 69,
                    "time": 86.3332469999999,
                    "velocity": 0.7086614173228346,
                    "duration": 0.3333329999999961
                },
                {
                    "name": "A4",
                    "midi": 69,
                    "time": 86.6665799999999,
                    "velocity": 0.7086614173228346,
                    "duration": 0.3333329999999961
                },
                {
                    "name": "A4",
                    "midi": 69,
                    "time": 86.99991299999989,
                    "velocity": 0.7086614173228346,
                    "duration": 0.3333329999999961
                },
                {
                    "name": "E4",
                    "midi": 64,
                    "time": 87.33324599999989,
                    "velocity": 0.7086614173228346,
                    "duration": 0.3333329999999961
                },
                {
                    "name": "F4",
                    "midi": 65,
                    "time": 87.66657899999989,
                    "velocity": 0.7086614173228346,
                    "duration": 0.3333329999999961
                },
                {
                    "name": "F4",
                    "midi": 65,
                    "time": 87.99991199999988,
                    "velocity": 0.7086614173228346,
                    "duration": 0.3333329999999961
                },
                {
                    "name": "F4",
                    "midi": 65,
                    "time": 88.33324499999988,
                    "velocity": 0.7086614173228346,
                    "duration": 0.3333329999999961
                },
                {
                    "name": "F4",
                    "midi": 65,
                    "time": 88.66657799999987,
                    "velocity": 0.7086614173228346,
                    "duration": 0.3333329999999961
                },
                {
                    "name": "F4",
                    "midi": 65,
                    "time": 88.99991099999987,
                    "velocity": 0.7086614173228346,
                    "duration": 0.3333329999999961
                },
                {
                    "name": "F4",
                    "midi": 65,
                    "time": 89.33324399999987,
                    "velocity": 0.7086614173228346,
                    "duration": 0.3333329999999961
                },
                {
                    "name": "F4",
                    "midi": 65,
                    "time": 89.66657699999986,
                    "velocity": 0.7086614173228346,
                    "duration": 0.3333329999999961
                },
                {
                    "name": "F4",
                    "midi": 65,
                    "time": 89.99990999999986,
                    "velocity": 0.7086614173228346,
                    "duration": 0.3333329999999961
                },
                {
                    "name": "F4",
                    "midi": 65,
                    "time": 90.33324299999985,
                    "velocity": 0.7086614173228346,
                    "duration": 0.3333329999999961
                },
                {
                    "name": "D4",
                    "midi": 62,
                    "time": 90.66657599999985,
                    "velocity": 0.7086614173228346,
                    "duration": 0.3333329999999961
                },
                {
                    "name": "C4",
                    "midi": 60,
                    "time": 90.99990899999985,
                    "velocity": 0.7086614173228346,
                    "duration": 0.3333329999999961
                },
                {
                    "name": "C4",
                    "midi": 60,
                    "time": 91.33324199999984,
                    "velocity": 0.7086614173228346,
                    "duration": 0.3333329999999961
                },
                {
                    "name": "C4",
                    "midi": 60,
                    "time": 91.66657499999984,
                    "velocity": 0.7086614173228346,
                    "duration": 0.6666660000000064
                },
                {
                    "name": "C4",
                    "midi": 60,
                    "time": 92.33324099999984,
                    "velocity": 0.7086614173228346,
                    "duration": 0.3333329999999961
                },
                {
                    "name": "A#3",
                    "midi": 58,
                    "time": 92.66657399999984,
                    "velocity": 0.7086614173228346,
                    "duration": 0.3333329999999961
                },
                {
                    "name": "A#3",
                    "midi": 58,
                    "time": 92.99990699999984,
                    "velocity": 0.7086614173228346,
                    "duration": 1.3333319999999986
                },
                {
                    "name": "A3",
                    "midi": 57,
                    "time": 94.33323899999984,
                    "velocity": 0.7086614173228346,
                    "duration": 1.3333319999999986
                },
                {
                    "name": "C4",
                    "midi": 60,
                    "time": 95.66657099999983,
                    "velocity": 0.7086614173228346,
                    "duration": 1.3333319999999986
                },
                {
                    "name": "C4",
                    "midi": 60,
                    "time": 96.99990299999983,
                    "velocity": 0.7086614173228346,
                    "duration": 0.3333329999999961
                },
                {
                    "name": "C4",
                    "midi": 60,
                    "time": 97.33323599999983,
                    "velocity": 0.7086614173228346,
                    "duration": 0.3333329999999961
                },
                {
                    "name": "C4",
                    "midi": 60,
                    "time": 97.66656899999982,
                    "velocity": 0.7086614173228346,
                    "duration": 0.3333329999999961
                },
                {
                    "name": "C4",
                    "midi": 60,
                    "time": 97.99990199999982,
                    "velocity": 0.7086614173228346,
                    "duration": 0.3333329999999961
                },
                {
                    "name": "C4",
                    "midi": 60,
                    "time": 98.33323499999982,
                    "velocity": 0.7086614173228346,
                    "duration": 0.3333329999999961
                },
                {
                    "name": "C4",
                    "midi": 60,
                    "time": 98.66656799999981,
                    "velocity": 0.7086614173228346,
                    "duration": 0.3333329999999961
                },
                {
                    "name": "D4",
                    "midi": 62,
                    "time": 98.99990099999981,
                    "velocity": 0.7086614173228346,
                    "duration": 0.3333329999999961
                },
                {
                    "name": "D4",
                    "midi": 62,
                    "time": 99.3332339999998,
                    "velocity": 0.7086614173228346,
                    "duration": 0.3333329999999961
                },
                {
                    "name": "D4",
                    "midi": 62,
                    "time": 99.6665669999998,
                    "velocity": 0.7086614173228346,
                    "duration": 1.3333319999999986
                },
                {
                    "name": "D4",
                    "midi": 62,
                    "time": 100.9998989999998,
                    "velocity": 0.7086614173228346,
                    "duration": 1.3333319999999986
                },
                {
                    "name": "D4",
                    "midi": 62,
                    "time": 102.3332309999998,
                    "velocity": 0.7086614173228346,
                    "duration": 0.3333329999999961
                },
                {
                    "name": "A4",
                    "midi": 69,
                    "time": 102.6665639999998,
                    "velocity": 0.7086614173228346,
                    "duration": 0.3333329999999961
                },
                {
                    "name": "A4",
                    "midi": 69,
                    "time": 102.99989699999979,
                    "velocity": 0.7086614173228346,
                    "duration": 0.3333329999999961
                },
                {
                    "name": "A4",
                    "midi": 69,
                    "time": 103.33322999999979,
                    "velocity": 0.7086614173228346,
                    "duration": 0.3333329999999961
                },
                {
                    "name": "A4",
                    "midi": 69,
                    "time": 103.66656299999978,
                    "velocity": 0.7086614173228346,
                    "duration": 0.3333329999999961
                },
                {
                    "name": "A4",
                    "midi": 69,
                    "time": 103.99989599999978,
                    "velocity": 0.7086614173228346,
                    "duration": 0.3333329999999961
                },
                {
                    "name": "G4",
                    "midi": 67,
                    "time": 104.33322899999978,
                    "velocity": 0.7086614173228346,
                    "duration": 0.3333329999999961
                },
                {
                    "name": "A#4",
                    "midi": 70,
                    "time": 104.66656199999977,
                    "velocity": 0.7086614173228346,
                    "duration": 0.3333329999999961
                },
                {
                    "name": "A4",
                    "midi": 69,
                    "time": 104.99989499999977,
                    "velocity": 0.7086614173228346,
                    "duration": 1.3333319999999986
                },
                {
                    "name": "E4",
                    "midi": 64,
                    "time": 107.99989199999976,
                    "velocity": 0.7086614173228346,
                    "duration": 0.3333329999999961
                },
                {
                    "name": "E4",
                    "midi": 64,
                    "time": 108.33322499999976,
                    "velocity": 0.7086614173228346,
                    "duration": 0.3333329999999961
                },
                {
                    "name": "F#4",
                    "midi": 66,
                    "time": 108.66655799999975,
                    "velocity": 0.7086614173228346,
                    "duration": 0.3333329999999961
                },
                {
                    "name": "G#4",
                    "midi": 68,
                    "time": 108.99989099999975,
                    "velocity": 0.7086614173228346,
                    "duration": 0.3333329999999961
                },
                {
                    "name": "G#4",
                    "midi": 68,
                    "time": 109.33322399999975,
                    "velocity": 0.7086614173228346,
                    "duration": 0.3333329999999961
                },
                {
                    "name": "G#4",
                    "midi": 68,
                    "time": 109.66655699999974,
                    "velocity": 0.7086614173228346,
                    "duration": 0.3333329999999961
                },
                {
                    "name": "A4",
                    "midi": 69,
                    "time": 109.99988999999974,
                    "velocity": 0.7086614173228346,
                    "duration": 0.3333329999999961
                },
                {
                    "name": "B4",
                    "midi": 71,
                    "time": 110.33322299999973,
                    "velocity": 0.7086614173228346,
                    "duration": 0.3333329999999961
                },
                {
                    "name": "B4",
                    "midi": 71,
                    "time": 110.66655599999973,
                    "velocity": 0.7086614173228346,
                    "duration": 0.3333329999999961
                },
                {
                    "name": "B4",
                    "midi": 71,
                    "time": 110.99988899999973,
                    "velocity": 0.7086614173228346,
                    "duration": 0.3333329999999961
                },
                {
                    "name": "C5",
                    "midi": 72,
                    "time": 111.33322199999972,
                    "velocity": 0.7086614173228346,
                    "duration": 0.3333329999999961
                },
                {
                    "name": "E5",
                    "midi": 76,
                    "time": 111.66655499999972,
                    "velocity": 0.7086614173228346,
                    "duration": 0.3333329999999961
                },
                {
                    "name": "E5",
                    "midi": 76,
                    "time": 111.99988799999971,
                    "velocity": 0.7086614173228346,
                    "duration": 0.3333329999999961
                },
                {
                    "name": "C5",
                    "midi": 72,
                    "time": 112.33322099999971,
                    "velocity": 0.7086614173228346,
                    "duration": 0.3333329999999961
                },
                {
                    "name": "B4",
                    "midi": 71,
                    "time": 112.6665539999997,
                    "velocity": 0.7086614173228346,
                    "duration": 0.3333329999999961
                },
                {
                    "name": "C5",
                    "midi": 72,
                    "time": 112.9998869999997,
                    "velocity": 0.7086614173228346,
                    "duration": 0.3333329999999961
                },
                {
                    "name": "A4",
                    "midi": 69,
                    "time": 113.3332199999997,
                    "velocity": 0.7086614173228346,
                    "duration": 0.3333329999999961
                },
                {
                    "name": "A4",
                    "midi": 69,
                    "time": 113.6665529999997,
                    "velocity": 0.7086614173228346,
                    "duration": 0.3333329999999961
                },
                {
                    "name": "A4",
                    "midi": 69,
                    "time": 113.99988599999969,
                    "velocity": 0.7086614173228346,
                    "duration": 0.3333329999999961
                },
                {
                    "name": "G4",
                    "midi": 67,
                    "time": 114.33321899999969,
                    "velocity": 0.7086614173228346,
                    "duration": 0.3333329999999961
                },
                {
                    "name": "G4",
                    "midi": 67,
                    "time": 114.66655199999968,
                    "velocity": 0.7086614173228346,
                    "duration": 0.3333329999999961
                },
                {
                    "name": "G4",
                    "midi": 67,
                    "time": 114.99988499999968,
                    "velocity": 0.7086614173228346,
                    "duration": 0.3333329999999961
                },
                {
                    "name": "F4",
                    "midi": 65,
                    "time": 115.33321799999968,
                    "velocity": 0.7086614173228346,
                    "duration": 0.3333329999999961
                },
                {
                    "name": "C#4",
                    "midi": 61,
                    "time": 115.66655099999967,
                    "velocity": 0.7086614173228346,
                    "duration": 0.3333329999999961
                },
                {
                    "name": "C#4",
                    "midi": 61,
                    "time": 115.99988399999967,
                    "velocity": 0.7086614173228346,
                    "duration": 0.3333329999999961
                },
                {
                    "name": "C#4",
                    "midi": 61,
                    "time": 116.33321699999966,
                    "velocity": 0.7086614173228346,
                    "duration": 0.3333329999999961
                },
                {
                    "name": "D4",
                    "midi": 62,
                    "time": 116.66654999999966,
                    "velocity": 0.7086614173228346,
                    "duration": 0.3333329999999961
                },
                {
                    "name": "E4",
                    "midi": 64,
                    "time": 116.99988299999966,
                    "velocity": 0.7086614173228346,
                    "duration": 0.3333329999999961
                },
                {
                    "name": "E4",
                    "midi": 64,
                    "time": 117.33321599999965,
                    "velocity": 0.7086614173228346,
                    "duration": 0.3333329999999961
                },
                {
                    "name": "F4",
                    "midi": 65,
                    "time": 117.66654899999965,
                    "velocity": 0.7086614173228346,
                    "duration": 0.3333329999999961
                },
                {
                    "name": "G4",
                    "midi": 67,
                    "time": 117.99988199999964,
                    "velocity": 0.7086614173228346,
                    "duration": 0.3333329999999961
                },
                {
                    "name": "G4",
                    "midi": 67,
                    "time": 118.33321499999964,
                    "velocity": 0.7086614173228346,
                    "duration": 1.3333319999999986
                },
                {
                    "name": "F4",
                    "midi": 65,
                    "time": 119.66654699999964,
                    "velocity": 0.7086614173228346,
                    "duration": 0.3333329999999961
                },
                {
                    "name": "D4",
                    "midi": 62,
                    "time": 119.99987999999964,
                    "velocity": 0.7086614173228346,
                    "duration": 0.3333329999999961
                },
                {
                    "name": "C4",
                    "midi": 60,
                    "time": 120.33321299999963,
                    "velocity": 0.7086614173228346,
                    "duration": 0.3333329999999961
                },
                {
                    "name": "B3",
                    "midi": 59,
                    "time": 120.66654599999963,
                    "velocity": 0.7086614173228346,
                    "duration": 0.3333329999999961
                },
                {
                    "name": "B3",
                    "midi": 59,
                    "time": 120.99987899999962,
                    "velocity": 0.7086614173228346,
                    "duration": 0.6666660000000064
                },
                {
                    "name": "E4",
                    "midi": 64,
                    "time": 121.66654499999963,
                    "velocity": 0.7086614173228346,
                    "duration": 1.3333319999999986
                },
                {
                    "name": "E4",
                    "midi": 64,
                    "time": 122.99987699999963,
                    "velocity": 0.7086614173228346,
                    "duration": 0.6666660000000064
                },
                {
                    "name": "F4",
                    "midi": 65,
                    "time": 123.66654299999963,
                    "velocity": 0.7086614173228346,
                    "duration": 1.3333319999999986
                },
                {
                    "name": "E4",
                    "midi": 64,
                    "time": 124.99987499999963,
                    "velocity": 0.7086614173228346,
                    "duration": 1.3333319999999986
                },
                {
                    "name": "E4",
                    "midi": 64,
                    "time": 126.33320699999963,
                    "velocity": 0.7086614173228346,
                    "duration": 1.3333319999999986
                },
                {
                    "name": "A4",
                    "midi": 69,
                    "time": 132.66653399999964,
                    "velocity": 0.7086614173228346,
                    "duration": 0.3333330000000103
                },
                {
                    "name": "A4",
                    "midi": 69,
                    "time": 132.99986699999965,
                    "velocity": 0.7086614173228346,
                    "duration": 0.9999990000000025
                },
                {
                    "name": "A4",
                    "midi": 69,
                    "time": 133.99986599999966,
                    "velocity": 0.7086614173228346,
                    "duration": 0.3333330000000103
                },
                {
                    "name": "A4",
                    "midi": 69,
                    "time": 134.33319899999967,
                    "velocity": 0.7086614173228346,
                    "duration": 1.3333320000000128
                },
                {
                    "name": "F#4",
                    "midi": 66,
                    "time": 137.99986199999967,
                    "velocity": 0.7086614173228346,
                    "duration": 0.3333330000000103
                },
                {
                    "name": "G4",
                    "midi": 67,
                    "time": 138.33319499999968,
                    "velocity": 0.7086614173228346,
                    "duration": 0.9999990000000025
                },
                {
                    "name": "G4",
                    "midi": 67,
                    "time": 139.33319399999968,
                    "velocity": 0.7086614173228346,
                    "duration": 0.3333330000000103
                },
                {
                    "name": "A#4",
                    "midi": 70,
                    "time": 139.6665269999997,
                    "velocity": 0.7086614173228346,
                    "duration": 1.3333320000000128
                },
                {
                    "name": "E4",
                    "midi": 64,
                    "time": 141.9998579999997,
                    "velocity": 0.7086614173228346,
                    "duration": 0.3333330000000103
                },
                {
                    "name": "E4",
                    "midi": 64,
                    "time": 142.33319099999972,
                    "velocity": 0.7086614173228346,
                    "duration": 1.3333320000000128
                },
                {
                    "name": "A4",
                    "midi": 69,
                    "time": 143.66652299999973,
                    "velocity": 0.7086614173228346,
                    "duration": 1.3333320000000128
                },
                {
                    "name": "A4",
                    "midi": 69,
                    "time": 144.99985499999974,
                    "velocity": 0.7086614173228346,
                    "duration": 0.6666659999999922
                },
                {
                    "name": "D5",
                    "midi": 74,
                    "time": 145.66652099999973,
                    "velocity": 0.7086614173228346,
                    "duration": 0.6666659999999922
                },
                {
                    "name": "D4",
                    "midi": 62,
                    "time": 146.33318699999973,
                    "velocity": 0.7086614173228346,
                    "duration": 0.6666659999999922
                },
                {
                    "name": "C#4",
                    "midi": 61,
                    "time": 146.99985299999972,
                    "velocity": 0.7086614173228346,
                    "duration": 0.6666659999999922
                },
                {
                    "name": "D4",
                    "midi": 62,
                    "time": 147.6665189999997,
                    "velocity": 0.7086614173228346,
                    "duration": 1.3333320000000128
                },
                {
                    "name": "A3",
                    "midi": 57,
                    "time": 151.3331819999997,
                    "velocity": 0.7086614173228346,
                    "duration": 0.3333330000000103
                },
                {
                    "name": "A#3",
                    "midi": 58,
                    "time": 151.66651499999972,
                    "velocity": 0.7086614173228346,
                    "duration": 0.9999990000000025
                },
                {
                    "name": "G3",
                    "midi": 55,
                    "time": 152.66651399999972,
                    "velocity": 0.7086614173228346,
                    "duration": 0.3333330000000103
                },
                {
                    "name": "C#4",
                    "midi": 61,
                    "time": 152.99984699999973,
                    "velocity": 0.7086614173228346,
                    "duration": 1.3333320000000128
                },
                {
                    "name": "G3",
                    "midi": 55,
                    "time": 156.66650999999973,
                    "velocity": 0.7086614173228346,
                    "duration": 0.3333330000000103
                },
                {
                    "name": "G3",
                    "midi": 55,
                    "time": 156.99984299999974,
                    "velocity": 0.7086614173228346,
                    "duration": 0.9999990000000025
                },
                {
                    "name": "G3",
                    "midi": 55,
                    "time": 157.99984199999975,
                    "velocity": 0.7086614173228346,
                    "duration": 0.3333330000000103
                },
                {
                    "name": "G3",
                    "midi": 55,
                    "time": 158.33317499999976,
                    "velocity": 0.7086614173228346,
                    "duration": 0.9999990000000025
                },
                {
                    "name": "E4",
                    "midi": 64,
                    "time": 159.33317399999976,
                    "velocity": 0.7086614173228346,
                    "duration": 0.3333330000000103
                },
                {
                    "name": "E4",
                    "midi": 64,
                    "time": 159.66650699999977,
                    "velocity": 0.7086614173228346,
                    "duration": 0.9999990000000025
                },
                {
                    "name": "E4",
                    "midi": 64,
                    "time": 160.66650599999977,
                    "velocity": 0.7086614173228346,
                    "duration": 0.3333330000000103
                },
                {
                    "name": "A3",
                    "midi": 57,
                    "time": 160.99983899999978,
                    "velocity": 0.7086614173228346,
                    "duration": 1.3333320000000128
                },
                {
                    "name": "F4",
                    "midi": 65,
                    "time": 162.9998369999998,
                    "velocity": 0.7086614173228346,
                    "duration": 0.6666659999999922
                },
                {
                    "name": "E4",
                    "midi": 64,
                    "time": 163.66650299999978,
                    "velocity": 0.7086614173228346,
                    "duration": 0.6666659999999922
                },
                {
                    "name": "D4",
                    "midi": 62,
                    "time": 164.33316899999977,
                    "velocity": 0.7086614173228346,
                    "duration": 1.3333320000000128
                },
                {
                    "name": "A3",
                    "midi": 57,
                    "time": 165.66650099999978,
                    "velocity": 0.7086614173228346,
                    "duration": 0.6666659999999922
                },
                {
                    "name": "A3",
                    "midi": 57,
                    "time": 166.33316699999978,
                    "velocity": 0.7086614173228346,
                    "duration": 2.6666639999999973
                }
            ],
            "controlChanges": {},
            "id": 8,
            "name": "",
            "instrumentNumber": 48,
            "instrument": "string ensemble 1",
            "instrumentFamily": "ensemble",
            "channelNumber": 8,
            "isPercussion": false
        },
        {
            "startTime": 1.333332,
            "duration": 168.99983099999983,
            "length": 248,
            "notes": [
                {
                    "name": "D3",
                    "midi": 50,
                    "time": 1.333332,
                    "velocity": 0.7086614173228346,
                    "duration": 0.3333330000000001
                },
                {
                    "name": "D4",
                    "midi": 62,
                    "time": 1.666665,
                    "velocity": 0.7086614173228346,
                    "duration": 0.49999949999999993
                },
                {
                    "name": "D4",
                    "midi": 62,
                    "time": 2.1666645,
                    "velocity": 0.7086614173228346,
                    "duration": 0.16666649999999983
                },
                {
                    "name": "D4",
                    "midi": 62,
                    "time": 2.333331,
                    "velocity": 0.7086614173228346,
                    "duration": 1.333332
                },
                {
                    "name": "D3",
                    "midi": 50,
                    "time": 3.999996,
                    "velocity": 0.7086614173228346,
                    "duration": 0.3333330000000001
                },
                {
                    "name": "D4",
                    "midi": 62,
                    "time": 4.333329,
                    "velocity": 0.7086614173228346,
                    "duration": 0.4999995000000004
                },
                {
                    "name": "D4",
                    "midi": 62,
                    "time": 4.8333285,
                    "velocity": 0.7086614173228346,
                    "duration": 0.16666649999999983
                },
                {
                    "name": "F4",
                    "midi": 65,
                    "time": 4.999995,
                    "velocity": 0.7086614173228346,
                    "duration": 1.3333320000000004
                },
                {
                    "name": "D4",
                    "midi": 62,
                    "time": 6.66666,
                    "velocity": 0.7086614173228346,
                    "duration": 0.33333299999999966
                },
                {
                    "name": "A3",
                    "midi": 57,
                    "time": 6.999993,
                    "velocity": 0.7086614173228346,
                    "duration": 0.4999995000000004
                },
                {
                    "name": "D3",
                    "midi": 50,
                    "time": 7.4999925,
                    "velocity": 0.7086614173228346,
                    "duration": 0.16666649999999983
                },
                {
                    "name": "G3",
                    "midi": 55,
                    "time": 7.666659,
                    "velocity": 0.7086614173228346,
                    "duration": 0.4999995000000004
                },
                {
                    "name": "A#3",
                    "midi": 58,
                    "time": 8.1666585,
                    "velocity": 0.7086614173228346,
                    "duration": 0.16666649999999983
                },
                {
                    "name": "E3",
                    "midi": 52,
                    "time": 8.333325,
                    "velocity": 0.7086614173228346,
                    "duration": 0.4999994999999995
                },
                {
                    "name": "G3",
                    "midi": 55,
                    "time": 8.8333245,
                    "velocity": 0.7086614173228346,
                    "duration": 0.16666649999999983
                },
                {
                    "name": "C#3",
                    "midi": 49,
                    "time": 8.999991,
                    "velocity": 0.7086614173228346,
                    "duration": 0.6666659999999993
                },
                {
                    "name": "A2",
                    "midi": 45,
                    "time": 9.666656999999999,
                    "velocity": 0.7086614173228346,
                    "duration": 0.6666659999999993
                },
                {
                    "name": "D3",
                    "midi": 50,
                    "time": 10.333322999999998,
                    "velocity": 0.7086614173228346,
                    "duration": 0.6666659999999993
                },
                {
                    "name": "D2",
                    "midi": 38,
                    "time": 10.999988999999998,
                    "velocity": 0.7086614173228346,
                    "duration": 0.6666659999999993
                },
                {
                    "name": "A2",
                    "midi": 45,
                    "time": 11.666654999999997,
                    "velocity": 0.7086614173228346,
                    "duration": 1.3333320000000004
                },
                {
                    "name": "A2",
                    "midi": 45,
                    "time": 13.333319999999997,
                    "velocity": 0.7086614173228346,
                    "duration": 0.33333299999999966
                },
                {
                    "name": "A3",
                    "midi": 57,
                    "time": 13.666652999999997,
                    "velocity": 0.7086614173228346,
                    "duration": 0.4999994999999995
                },
                {
                    "name": "A3",
                    "midi": 57,
                    "time": 14.166652499999996,
                    "velocity": 0.7086614173228346,
                    "duration": 0.16666649999999983
                },
                {
                    "name": "A3",
                    "midi": 57,
                    "time": 14.333318999999996,
                    "velocity": 0.7086614173228346,
                    "duration": 0.6666659999999993
                },
                {
                    "name": "G3",
                    "midi": 55,
                    "time": 14.999984999999995,
                    "velocity": 0.7086614173228346,
                    "duration": 0.6666659999999993
                },
                {
                    "name": "F3",
                    "midi": 53,
                    "time": 15.666650999999995,
                    "velocity": 0.7086614173228346,
                    "duration": 0.6666659999999993
                },
                {
                    "name": "D3",
                    "midi": 50,
                    "time": 16.333316999999994,
                    "velocity": 0.7086614173228346,
                    "duration": 0.6666659999999993
                },
                {
                    "name": "E3",
                    "midi": 52,
                    "time": 16.999982999999993,
                    "velocity": 0.7086614173228346,
                    "duration": 0.49999950000000126
                },
                {
                    "name": "E3",
                    "midi": 52,
                    "time": 17.499982499999994,
                    "velocity": 0.7086614173228346,
                    "duration": 0.1666665000000016
                },
                {
                    "name": "E4",
                    "midi": 64,
                    "time": 17.666648999999996,
                    "velocity": 0.7086614173228346,
                    "duration": 0.49999950000000126
                },
                {
                    "name": "E4",
                    "midi": 64,
                    "time": 18.166648499999997,
                    "velocity": 0.7086614173228346,
                    "duration": 0.1666665000000016
                },
                {
                    "name": "E4",
                    "midi": 64,
                    "time": 18.333315,
                    "velocity": 0.7086614173228346,
                    "duration": 0.49999950000000126
                },
                {
                    "name": "E4",
                    "midi": 64,
                    "time": 18.8333145,
                    "velocity": 0.7086614173228346,
                    "duration": 0.05381939062500152
                },
                {
                    "name": "D4",
                    "midi": 62,
                    "time": 18.88887,
                    "velocity": 0.7086614173228346,
                    "duration": 0.05381939062500152
                },
                {
                    "name": "C4",
                    "midi": 60,
                    "time": 18.9444255,
                    "velocity": 0.7086614173228346,
                    "duration": 0.05381939062500152
                },
                {
                    "name": "D4",
                    "midi": 62,
                    "time": 18.999981000000002,
                    "velocity": 0.7086614173228346,
                    "duration": 1.1666655000000006
                },
                {
                    "name": "D4",
                    "midi": 62,
                    "time": 20.166646500000002,
                    "velocity": 0.7086614173228346,
                    "duration": 0.05381939062500152
                },
                {
                    "name": "C4",
                    "midi": 60,
                    "time": 20.222202000000003,
                    "velocity": 0.7086614173228346,
                    "duration": 0.05381939062500152
                },
                {
                    "name": "B3",
                    "midi": 59,
                    "time": 20.277757500000003,
                    "velocity": 0.7086614173228346,
                    "duration": 0.05381939062500152
                },
                {
                    "name": "C4",
                    "midi": 60,
                    "time": 20.333313000000004,
                    "velocity": 0.7086614173228346,
                    "duration": 0.49999950000000126
                },
                {
                    "name": "C4",
                    "midi": 60,
                    "time": 20.833312500000005,
                    "velocity": 0.7086614173228346,
                    "duration": 0.05381939062500152
                },
                {
                    "name": "D4",
                    "midi": 62,
                    "time": 20.888868000000006,
                    "velocity": 0.7086614173228346,
                    "duration": 0.05381939062500152
                },
                {
                    "name": "C4",
                    "midi": 60,
                    "time": 20.944423500000006,
                    "velocity": 0.7086614173228346,
                    "duration": 0.05381939062500152
                },
                {
                    "name": "B3",
                    "midi": 59,
                    "time": 20.999979000000007,
                    "velocity": 0.7086614173228346,
                    "duration": 0.6666659999999993
                },
                {
                    "name": "E4",
                    "midi": 64,
                    "time": 21.666645000000006,
                    "velocity": 0.7086614173228346,
                    "duration": 0.6666659999999993
                },
                {
                    "name": "A3",
                    "midi": 57,
                    "time": 22.333311000000005,
                    "velocity": 0.7086614173228346,
                    "duration": 0.49999950000000126
                },
                {
                    "name": "A2",
                    "midi": 45,
                    "time": 22.833310500000007,
                    "velocity": 0.7086614173228346,
                    "duration": 0.1666665000000016
                },
                {
                    "name": "D3",
                    "midi": 50,
                    "time": 22.99997700000001,
                    "velocity": 0.7086614173228346,
                    "duration": 0.49999950000000126
                },
                {
                    "name": "D3",
                    "midi": 50,
                    "time": 23.49997650000001,
                    "velocity": 0.7086614173228346,
                    "duration": 0.1666665000000016
                },
                {
                    "name": "D3",
                    "midi": 50,
                    "time": 23.66664300000001,
                    "velocity": 0.7086614173228346,
                    "duration": 1.3333319999999986
                },
                {
                    "name": "D3",
                    "midi": 50,
                    "time": 25.33330800000001,
                    "velocity": 0.7086614173228346,
                    "duration": 0.33333299999999966
                },
                {
                    "name": "B3",
                    "midi": 59,
                    "time": 25.66664100000001,
                    "velocity": 0.7086614173228346,
                    "duration": 0.49999950000000126
                },
                {
                    "name": "B3",
                    "midi": 59,
                    "time": 26.16664050000001,
                    "velocity": 0.7086614173228346,
                    "duration": 0.1666665000000016
                },
                {
                    "name": "D4",
                    "midi": 62,
                    "time": 26.333307000000012,
                    "velocity": 0.7086614173228346,
                    "duration": 1.3333319999999986
                },
                {
                    "name": "D3",
                    "midi": 50,
                    "time": 27.99997200000001,
                    "velocity": 0.7086614173228346,
                    "duration": 0.33333299999999966
                },
                {
                    "name": "B3",
                    "midi": 59,
                    "time": 28.33330500000001,
                    "velocity": 0.7086614173228346,
                    "duration": 0.49999950000000126
                },
                {
                    "name": "B3",
                    "midi": 59,
                    "time": 28.83330450000001,
                    "velocity": 0.7086614173228346,
                    "duration": 0.1666665000000016
                },
                {
                    "name": "G#2",
                    "midi": 44,
                    "time": 28.999971000000013,
                    "velocity": 0.7086614173228346,
                    "duration": 1.3333319999999986
                },
                {
                    "name": "E3",
                    "midi": 52,
                    "time": 30.66663600000001,
                    "velocity": 0.7086614173228346,
                    "duration": 0.33333299999999966
                },
                {
                    "name": "E3",
                    "midi": 52,
                    "time": 30.99996900000001,
                    "velocity": 0.7086614173228346,
                    "duration": 0.49999950000000126
                },
                {
                    "name": "F#3",
                    "midi": 54,
                    "time": 31.499968500000012,
                    "velocity": 0.7086614173228346,
                    "duration": 0.1666665000000016
                },
                {
                    "name": "G#3",
                    "midi": 56,
                    "time": 31.666635000000014,
                    "velocity": 0.7086614173228346,
                    "duration": 0.49999950000000126
                },
                {
                    "name": "A3",
                    "midi": 57,
                    "time": 32.166634500000015,
                    "velocity": 0.7086614173228346,
                    "duration": 0.16666649999999805
                },
                {
                    "name": "B3",
                    "midi": 59,
                    "time": 32.33330100000001,
                    "velocity": 0.7086614173228346,
                    "duration": 0.49999950000000126
                },
                {
                    "name": "G#3",
                    "midi": 56,
                    "time": 32.833300500000014,
                    "velocity": 0.7086614173228346,
                    "duration": 0.16666649999999805
                },
                {
                    "name": "A3",
                    "midi": 57,
                    "time": 32.99996700000001,
                    "velocity": 0.7086614173228346,
                    "duration": 0.6666659999999993
                },
                {
                    "name": "C3",
                    "midi": 48,
                    "time": 33.66663300000001,
                    "velocity": 0.7086614173228346,
                    "duration": 0.49999950000000126
                },
                {
                    "name": "D3",
                    "midi": 50,
                    "time": 34.16663250000001,
                    "velocity": 0.7086614173228346,
                    "duration": 0.16666649999999805
                },
                {
                    "name": "E3",
                    "midi": 52,
                    "time": 34.33329900000001,
                    "velocity": 0.7086614173228346,
                    "duration": 0.6666659999999993
                },
                {
                    "name": "E2",
                    "midi": 40,
                    "time": 34.99996500000001,
                    "velocity": 0.7086614173228346,
                    "duration": 0.6666659999999993
                },
                {
                    "name": "A2",
                    "midi": 45,
                    "time": 35.66663100000001,
                    "velocity": 0.7086614173228346,
                    "duration": 0.49999950000000126
                },
                {
                    "name": "A3",
                    "midi": 57,
                    "time": 36.16663050000001,
                    "velocity": 0.7086614173228346,
                    "duration": 0.16666649999999805
                },
                {
                    "name": "A2",
                    "midi": 45,
                    "time": 36.33329700000001,
                    "velocity": 0.7086614173228346,
                    "duration": 0.49999950000000126
                },
                {
                    "name": "A2",
                    "midi": 45,
                    "time": 36.83329650000001,
                    "velocity": 0.7086614173228346,
                    "duration": 0.16666649999999805
                },
                {
                    "name": "D2",
                    "midi": 38,
                    "time": 36.99996300000001,
                    "velocity": 0.7086614173228346,
                    "duration": 1.3333319999999986
                },
                {
                    "name": "A2",
                    "midi": 45,
                    "time": 38.33329500000001,
                    "velocity": 0.7086614173228346,
                    "duration": 2.6666639999999973
                },
                {
                    "name": "D4",
                    "midi": 62,
                    "time": 57.333276000000005,
                    "velocity": 0.7086614173228346,
                    "duration": 0.3333330000000032
                },
                {
                    "name": "D4",
                    "midi": 62,
                    "time": 57.66660900000001,
                    "velocity": 0.7086614173228346,
                    "duration": 0.3333330000000032
                },
                {
                    "name": "C4",
                    "midi": 60,
                    "time": 57.99994200000001,
                    "velocity": 0.7086614173228346,
                    "duration": 0.3333330000000032
                },
                {
                    "name": "A#3",
                    "midi": 58,
                    "time": 58.333275000000015,
                    "velocity": 0.7086614173228346,
                    "duration": 0.3333330000000032
                },
                {
                    "name": "A#3",
                    "midi": 58,
                    "time": 58.66660800000002,
                    "velocity": 0.7086614173228346,
                    "duration": 0.3333330000000032
                },
                {
                    "name": "A#3",
                    "midi": 58,
                    "time": 58.99994100000002,
                    "velocity": 0.7086614173228346,
                    "duration": 0.3333330000000032
                },
                {
                    "name": "A3",
                    "midi": 57,
                    "time": 59.333274000000024,
                    "velocity": 0.7086614173228346,
                    "duration": 0.3333330000000032
                },
                {
                    "name": "G3",
                    "midi": 55,
                    "time": 59.66660700000003,
                    "velocity": 0.7086614173228346,
                    "duration": 0.3333330000000032
                },
                {
                    "name": "G3",
                    "midi": 55,
                    "time": 59.99994000000003,
                    "velocity": 0.7086614173228346,
                    "duration": 0.3333330000000032
                },
                {
                    "name": "G3",
                    "midi": 55,
                    "time": 60.333273000000034,
                    "velocity": 0.7086614173228346,
                    "duration": 0.3333330000000032
                },
                {
                    "name": "F3",
                    "midi": 53,
                    "time": 60.66660600000004,
                    "velocity": 0.7086614173228346,
                    "duration": 0.3333330000000032
                },
                {
                    "name": "E3",
                    "midi": 52,
                    "time": 60.99993900000004,
                    "velocity": 0.7086614173228346,
                    "duration": 0.3333330000000032
                },
                {
                    "name": "E3",
                    "midi": 52,
                    "time": 61.33327200000004,
                    "velocity": 0.7086614173228346,
                    "duration": 0.3333330000000032
                },
                {
                    "name": "E3",
                    "midi": 52,
                    "time": 61.66660500000005,
                    "velocity": 0.7086614173228346,
                    "duration": 0.3333330000000032
                },
                {
                    "name": "D3",
                    "midi": 50,
                    "time": 61.99993800000005,
                    "velocity": 0.7086614173228346,
                    "duration": 0.3333330000000032
                },
                {
                    "name": "C#3",
                    "midi": 49,
                    "time": 62.33327100000005,
                    "velocity": 0.7086614173228346,
                    "duration": 0.6666659999999993
                },
                {
                    "name": "A2",
                    "midi": 45,
                    "time": 62.99993700000005,
                    "velocity": 0.7086614173228346,
                    "duration": 0.6666659999999993
                },
                {
                    "name": "D3",
                    "midi": 50,
                    "time": 63.66660300000005,
                    "velocity": 0.7086614173228346,
                    "duration": 0.6666660000000064
                },
                {
                    "name": "D2",
                    "midi": 38,
                    "time": 64.33326900000006,
                    "velocity": 0.7086614173228346,
                    "duration": 0.6666660000000064
                },
                {
                    "name": "A2",
                    "midi": 45,
                    "time": 64.99993500000006,
                    "velocity": 0.7086614173228346,
                    "duration": 0.3333329999999961
                },
                {
                    "name": "A3",
                    "midi": 57,
                    "time": 65.33326800000006,
                    "velocity": 0.7086614173228346,
                    "duration": 0.3333329999999961
                },
                {
                    "name": "A3",
                    "midi": 57,
                    "time": 65.66660100000006,
                    "velocity": 0.7086614173228346,
                    "duration": 0.3333329999999961
                },
                {
                    "name": "G3",
                    "midi": 55,
                    "time": 65.99993400000005,
                    "velocity": 0.7086614173228346,
                    "duration": 0.3333329999999961
                },
                {
                    "name": "F#3",
                    "midi": 54,
                    "time": 66.33326700000005,
                    "velocity": 0.7086614173228346,
                    "duration": 0.3333329999999961
                },
                {
                    "name": "F#3",
                    "midi": 54,
                    "time": 66.66660000000005,
                    "velocity": 0.7086614173228346,
                    "duration": 0.3333329999999961
                },
                {
                    "name": "F#3",
                    "midi": 54,
                    "time": 66.99993300000004,
                    "velocity": 0.7086614173228346,
                    "duration": 0.3333329999999961
                },
                {
                    "name": "E3",
                    "midi": 52,
                    "time": 67.33326600000004,
                    "velocity": 0.7086614173228346,
                    "duration": 0.3333329999999961
                },
                {
                    "name": "D3",
                    "midi": 50,
                    "time": 67.66659900000003,
                    "velocity": 0.7086614173228346,
                    "duration": 0.3333329999999961
                },
                {
                    "name": "D3",
                    "midi": 50,
                    "time": 67.99993200000003,
                    "velocity": 0.7086614173228346,
                    "duration": 0.3333329999999961
                },
                {
                    "name": "D3",
                    "midi": 50,
                    "time": 68.33326500000003,
                    "velocity": 0.7086614173228346,
                    "duration": 0.3333329999999961
                },
                {
                    "name": "C3",
                    "midi": 48,
                    "time": 68.66659800000002,
                    "velocity": 0.7086614173228346,
                    "duration": 0.3333329999999961
                },
                {
                    "name": "A#2",
                    "midi": 46,
                    "time": 68.99993100000002,
                    "velocity": 0.7086614173228346,
                    "duration": 0.3333329999999961
                },
                {
                    "name": "A#2",
                    "midi": 46,
                    "time": 69.33326400000001,
                    "velocity": 0.7086614173228346,
                    "duration": 0.3333329999999961
                },
                {
                    "name": "A#2",
                    "midi": 46,
                    "time": 69.66659700000001,
                    "velocity": 0.7086614173228346,
                    "duration": 0.3333329999999961
                },
                {
                    "name": "A2",
                    "midi": 45,
                    "time": 69.99993,
                    "velocity": 0.7086614173228346,
                    "duration": 0.3333329999999961
                },
                {
                    "name": "G2",
                    "midi": 43,
                    "time": 70.333263,
                    "velocity": 0.7086614173228346,
                    "duration": 0.3333329999999961
                },
                {
                    "name": "G3",
                    "midi": 55,
                    "time": 70.666596,
                    "velocity": 0.7086614173228346,
                    "duration": 0.3333329999999961
                },
                {
                    "name": "G3",
                    "midi": 55,
                    "time": 70.999929,
                    "velocity": 0.7086614173228346,
                    "duration": 0.3333329999999961
                },
                {
                    "name": "F3",
                    "midi": 53,
                    "time": 71.33326199999999,
                    "velocity": 0.7086614173228346,
                    "duration": 0.3333329999999961
                },
                {
                    "name": "E3",
                    "midi": 52,
                    "time": 71.66659499999999,
                    "velocity": 0.7086614173228346,
                    "duration": 0.3333329999999961
                },
                {
                    "name": "E3",
                    "midi": 52,
                    "time": 71.99992799999998,
                    "velocity": 0.7086614173228346,
                    "duration": 0.3333329999999961
                },
                {
                    "name": "E3",
                    "midi": 52,
                    "time": 72.33326099999998,
                    "velocity": 0.7086614173228346,
                    "duration": 0.3333329999999961
                },
                {
                    "name": "D3",
                    "midi": 50,
                    "time": 72.66659399999998,
                    "velocity": 0.7086614173228346,
                    "duration": 0.3333329999999961
                },
                {
                    "name": "C3",
                    "midi": 48,
                    "time": 72.99992699999997,
                    "velocity": 0.7086614173228346,
                    "duration": 0.3333329999999961
                },
                {
                    "name": "C3",
                    "midi": 48,
                    "time": 73.33325999999997,
                    "velocity": 0.7086614173228346,
                    "duration": 0.3333329999999961
                },
                {
                    "name": "C3",
                    "midi": 48,
                    "time": 73.66659299999996,
                    "velocity": 0.7086614173228346,
                    "duration": 0.3333329999999961
                },
                {
                    "name": "A#2",
                    "midi": 46,
                    "time": 73.99992599999996,
                    "velocity": 0.7086614173228346,
                    "duration": 0.3333329999999961
                },
                {
                    "name": "A2",
                    "midi": 45,
                    "time": 74.33325899999996,
                    "velocity": 0.7086614173228346,
                    "duration": 0.3333329999999961
                },
                {
                    "name": "A2",
                    "midi": 45,
                    "time": 74.66659199999995,
                    "velocity": 0.7086614173228346,
                    "duration": 0.3333329999999961
                },
                {
                    "name": "A2",
                    "midi": 45,
                    "time": 74.99992499999995,
                    "velocity": 0.7086614173228346,
                    "duration": 0.3333329999999961
                },
                {
                    "name": "G2",
                    "midi": 43,
                    "time": 75.33325799999994,
                    "velocity": 0.7086614173228346,
                    "duration": 0.3333329999999961
                },
                {
                    "name": "F2",
                    "midi": 41,
                    "time": 75.66659099999994,
                    "velocity": 0.7086614173228346,
                    "duration": 0.3333329999999961
                },
                {
                    "name": "F3",
                    "midi": 53,
                    "time": 75.99992399999994,
                    "velocity": 0.7086614173228346,
                    "duration": 0.3333329999999961
                },
                {
                    "name": "F3",
                    "midi": 53,
                    "time": 76.33325699999993,
                    "velocity": 0.7086614173228346,
                    "duration": 0.3333329999999961
                },
                {
                    "name": "D#3",
                    "midi": 51,
                    "time": 76.66658999999993,
                    "velocity": 0.7086614173228346,
                    "duration": 0.3333329999999961
                },
                {
                    "name": "D3",
                    "midi": 50,
                    "time": 76.99992299999992,
                    "velocity": 0.7086614173228346,
                    "duration": 0.3333329999999961
                },
                {
                    "name": "D3",
                    "midi": 50,
                    "time": 77.33325599999992,
                    "velocity": 0.7086614173228346,
                    "duration": 0.3333329999999961
                },
                {
                    "name": "D3",
                    "midi": 50,
                    "time": 77.66658899999992,
                    "velocity": 0.7086614173228346,
                    "duration": 0.3333329999999961
                },
                {
                    "name": "C3",
                    "midi": 48,
                    "time": 77.99992199999991,
                    "velocity": 0.7086614173228346,
                    "duration": 0.3333329999999961
                },
                {
                    "name": "A#2",
                    "midi": 46,
                    "time": 78.33325499999991,
                    "velocity": 0.7086614173228346,
                    "duration": 0.3333329999999961
                },
                {
                    "name": "A#2",
                    "midi": 46,
                    "time": 78.6665879999999,
                    "velocity": 0.7086614173228346,
                    "duration": 0.3333329999999961
                },
                {
                    "name": "A#2",
                    "midi": 46,
                    "time": 78.9999209999999,
                    "velocity": 0.7086614173228346,
                    "duration": 0.3333329999999961
                },
                {
                    "name": "A2",
                    "midi": 45,
                    "time": 79.3332539999999,
                    "velocity": 0.7086614173228346,
                    "duration": 0.3333329999999961
                },
                {
                    "name": "G2",
                    "midi": 43,
                    "time": 79.6665869999999,
                    "velocity": 0.7086614173228346,
                    "duration": 0.3333329999999961
                },
                {
                    "name": "G2",
                    "midi": 43,
                    "time": 79.99991999999989,
                    "velocity": 0.7086614173228346,
                    "duration": 0.3333329999999961
                },
                {
                    "name": "G2",
                    "midi": 43,
                    "time": 80.33325299999989,
                    "velocity": 0.7086614173228346,
                    "duration": 0.3333329999999961
                },
                {
                    "name": "F2",
                    "midi": 41,
                    "time": 80.66658599999988,
                    "velocity": 0.7086614173228346,
                    "duration": 0.3333329999999961
                },
                {
                    "name": "C3",
                    "midi": 48,
                    "time": 80.99991899999988,
                    "velocity": 0.7086614173228346,
                    "duration": 0.6666660000000064
                },
                {
                    "name": "F2",
                    "midi": 41,
                    "time": 86.66657999999988,
                    "velocity": 0.7086614173228346,
                    "duration": 0.3333329999999961
                },
                {
                    "name": "F2",
                    "midi": 41,
                    "time": 86.99991299999988,
                    "velocity": 0.7086614173228346,
                    "duration": 0.3333329999999961
                },
                {
                    "name": "G2",
                    "midi": 43,
                    "time": 87.33324599999987,
                    "velocity": 0.7086614173228346,
                    "duration": 0.3333329999999961
                },
                {
                    "name": "A2",
                    "midi": 45,
                    "time": 87.66657899999987,
                    "velocity": 0.7086614173228346,
                    "duration": 0.3333329999999961
                },
                {
                    "name": "A2",
                    "midi": 45,
                    "time": 87.99991199999987,
                    "velocity": 0.7086614173228346,
                    "duration": 0.3333329999999961
                },
                {
                    "name": "A2",
                    "midi": 45,
                    "time": 88.33324499999986,
                    "velocity": 0.7086614173228346,
                    "duration": 0.3333329999999961
                },
                {
                    "name": "F2",
                    "midi": 41,
                    "time": 88.66657799999986,
                    "velocity": 0.7086614173228346,
                    "duration": 0.3333329999999961
                },
                {
                    "name": "A#2",
                    "midi": 46,
                    "time": 88.99991099999986,
                    "velocity": 0.7086614173228346,
                    "duration": 0.3333329999999961
                },
                {
                    "name": "A#2",
                    "midi": 46,
                    "time": 89.33324399999985,
                    "velocity": 0.7086614173228346,
                    "duration": 0.3333329999999961
                },
                {
                    "name": "A#2",
                    "midi": 46,
                    "time": 89.66657699999985,
                    "velocity": 0.7086614173228346,
                    "duration": 0.3333329999999961
                },
                {
                    "name": "C3",
                    "midi": 48,
                    "time": 89.99990999999984,
                    "velocity": 0.7086614173228346,
                    "duration": 0.3333329999999961
                },
                {
                    "name": "D3",
                    "midi": 50,
                    "time": 90.33324299999984,
                    "velocity": 0.7086614173228346,
                    "duration": 0.3333329999999961
                },
                {
                    "name": "D3",
                    "midi": 50,
                    "time": 90.66657599999984,
                    "velocity": 0.7086614173228346,
                    "duration": 0.3333329999999961
                },
                {
                    "name": "E3",
                    "midi": 52,
                    "time": 90.99990899999983,
                    "velocity": 0.7086614173228346,
                    "duration": 0.3333329999999961
                },
                {
                    "name": "F3",
                    "midi": 53,
                    "time": 91.33324199999983,
                    "velocity": 0.7086614173228346,
                    "duration": 0.3333329999999961
                },
                {
                    "name": "E3",
                    "midi": 52,
                    "time": 91.66657499999982,
                    "velocity": 0.7086614173228346,
                    "duration": 0.3333329999999961
                },
                {
                    "name": "C3",
                    "midi": 48,
                    "time": 91.99990799999982,
                    "velocity": 0.7086614173228346,
                    "duration": 0.3333329999999961
                },
                {
                    "name": "F3",
                    "midi": 53,
                    "time": 92.33324099999982,
                    "velocity": 0.7086614173228346,
                    "duration": 0.3333329999999961
                },
                {
                    "name": "A#2",
                    "midi": 46,
                    "time": 92.66657399999981,
                    "velocity": 0.7086614173228346,
                    "duration": 0.3333329999999961
                },
                {
                    "name": "C3",
                    "midi": 48,
                    "time": 92.99990699999981,
                    "velocity": 0.7086614173228346,
                    "duration": 0.6666660000000064
                },
                {
                    "name": "C2",
                    "midi": 36,
                    "time": 93.66657299999981,
                    "velocity": 0.7086614173228346,
                    "duration": 0.6666660000000064
                },
                {
                    "name": "F2",
                    "midi": 41,
                    "time": 94.33323899999982,
                    "velocity": 0.7086614173228346,
                    "duration": 0.6666660000000064
                },
                {
                    "name": "C3",
                    "midi": 48,
                    "time": 97.33323599999983,
                    "velocity": 0.7086614173228346,
                    "duration": 0.3333329999999961
                },
                {
                    "name": "C3",
                    "midi": 48,
                    "time": 97.66656899999982,
                    "velocity": 0.7086614173228346,
                    "duration": 0.3333329999999961
                },
                {
                    "name": "C3",
                    "midi": 48,
                    "time": 97.99990199999982,
                    "velocity": 0.7086614173228346,
                    "duration": 0.3333329999999961
                },
                {
                    "name": "A#2",
                    "midi": 46,
                    "time": 98.33323499999982,
                    "velocity": 0.7086614173228346,
                    "duration": 0.3333329999999961
                },
                {
                    "name": "A#2",
                    "midi": 46,
                    "time": 98.66656799999981,
                    "velocity": 0.7086614173228346,
                    "duration": 0.3333329999999961
                },
                {
                    "name": "A#2",
                    "midi": 46,
                    "time": 98.99990099999981,
                    "velocity": 0.7086614173228346,
                    "duration": 0.3333329999999961
                },
                {
                    "name": "A2",
                    "midi": 45,
                    "time": 99.3332339999998,
                    "velocity": 0.7086614173228346,
                    "duration": 0.3333329999999961
                },
                {
                    "name": "G2",
                    "midi": 43,
                    "time": 99.6665669999998,
                    "velocity": 0.7086614173228346,
                    "duration": 0.6666660000000064
                },
                {
                    "name": "D3",
                    "midi": 50,
                    "time": 102.66656399999981,
                    "velocity": 0.7086614173228346,
                    "duration": 0.3333329999999961
                },
                {
                    "name": "D3",
                    "midi": 50,
                    "time": 102.9998969999998,
                    "velocity": 0.7086614173228346,
                    "duration": 0.3333329999999961
                },
                {
                    "name": "C3",
                    "midi": 48,
                    "time": 103.3332299999998,
                    "velocity": 0.7086614173228346,
                    "duration": 0.3333329999999961
                },
                {
                    "name": "A#2",
                    "midi": 46,
                    "time": 103.6665629999998,
                    "velocity": 0.7086614173228346,
                    "duration": 0.3333329999999961
                },
                {
                    "name": "A#2",
                    "midi": 46,
                    "time": 103.9998959999998,
                    "velocity": 0.7086614173228346,
                    "duration": 0.3333329999999961
                },
                {
                    "name": "A#2",
                    "midi": 46,
                    "time": 104.33322899999979,
                    "velocity": 0.7086614173228346,
                    "duration": 0.3333329999999961
                },
                {
                    "name": "G2",
                    "midi": 43,
                    "time": 104.66656199999979,
                    "velocity": 0.7086614173228346,
                    "duration": 0.3333329999999961
                },
                {
                    "name": "A2",
                    "midi": 45,
                    "time": 104.99989499999978,
                    "velocity": 0.7086614173228346,
                    "duration": 1.3333319999999986
                },
                {
                    "name": "A2",
                    "midi": 45,
                    "time": 113.33321999999978,
                    "velocity": 0.7086614173228346,
                    "duration": 0.3333329999999961
                },
                {
                    "name": "A2",
                    "midi": 45,
                    "time": 113.66655299999978,
                    "velocity": 0.7086614173228346,
                    "duration": 0.3333329999999961
                },
                {
                    "name": "B2",
                    "midi": 47,
                    "time": 113.99988599999978,
                    "velocity": 0.7086614173228346,
                    "duration": 0.3333329999999961
                },
                {
                    "name": "C#3",
                    "midi": 49,
                    "time": 114.33321899999977,
                    "velocity": 0.7086614173228346,
                    "duration": 0.3333329999999961
                },
                {
                    "name": "C#3",
                    "midi": 49,
                    "time": 114.66655199999977,
                    "velocity": 0.7086614173228346,
                    "duration": 0.3333329999999961
                },
                {
                    "name": "C#3",
                    "midi": 49,
                    "time": 114.99988499999976,
                    "velocity": 0.7086614173228346,
                    "duration": 0.3333329999999961
                },
                {
                    "name": "D3",
                    "midi": 50,
                    "time": 115.33321799999976,
                    "velocity": 0.7086614173228346,
                    "duration": 0.3333329999999961
                },
                {
                    "name": "E3",
                    "midi": 52,
                    "time": 115.66655099999976,
                    "velocity": 0.7086614173228346,
                    "duration": 0.3333329999999961
                },
                {
                    "name": "E3",
                    "midi": 52,
                    "time": 115.99988399999975,
                    "velocity": 0.7086614173228346,
                    "duration": 0.3333329999999961
                },
                {
                    "name": "E3",
                    "midi": 52,
                    "time": 116.33321699999975,
                    "velocity": 0.7086614173228346,
                    "duration": 0.3333329999999961
                },
                {
                    "name": "F3",
                    "midi": 53,
                    "time": 116.66654999999975,
                    "velocity": 0.7086614173228346,
                    "duration": 0.3333329999999961
                },
                {
                    "name": "G3",
                    "midi": 55,
                    "time": 116.99988299999974,
                    "velocity": 0.7086614173228346,
                    "duration": 0.3333329999999961
                },
                {
                    "name": "G3",
                    "midi": 55,
                    "time": 117.33321599999974,
                    "velocity": 0.7086614173228346,
                    "duration": 0.3333329999999961
                },
                {
                    "name": "F3",
                    "midi": 53,
                    "time": 117.66654899999973,
                    "velocity": 0.7086614173228346,
                    "duration": 0.3333329999999961
                },
                {
                    "name": "E3",
                    "midi": 52,
                    "time": 117.99988199999973,
                    "velocity": 0.7086614173228346,
                    "duration": 0.3333329999999961
                },
                {
                    "name": "F3",
                    "midi": 53,
                    "time": 118.33321499999973,
                    "velocity": 0.7086614173228346,
                    "duration": 1.3333319999999986
                },
                {
                    "name": "F3",
                    "midi": 53,
                    "time": 119.99987999999972,
                    "velocity": 0.7086614173228346,
                    "duration": 0.3333329999999961
                },
                {
                    "name": "E3",
                    "midi": 52,
                    "time": 120.33321299999972,
                    "velocity": 0.7086614173228346,
                    "duration": 0.3333329999999961
                },
                {
                    "name": "D3",
                    "midi": 50,
                    "time": 120.66654599999971,
                    "velocity": 0.7086614173228346,
                    "duration": 0.3333329999999961
                },
                {
                    "name": "E3",
                    "midi": 52,
                    "time": 120.99987899999971,
                    "velocity": 0.7086614173228346,
                    "duration": 0.3333329999999961
                },
                {
                    "name": "E3",
                    "midi": 52,
                    "time": 121.3332119999997,
                    "velocity": 0.7086614173228346,
                    "duration": 0.3333329999999961
                },
                {
                    "name": "F#3",
                    "midi": 54,
                    "time": 121.6665449999997,
                    "velocity": 0.7086614173228346,
                    "duration": 0.3333329999999961
                },
                {
                    "name": "G#3",
                    "midi": 56,
                    "time": 121.9998779999997,
                    "velocity": 0.7086614173228346,
                    "duration": 0.3333329999999961
                },
                {
                    "name": "A3",
                    "midi": 57,
                    "time": 122.3332109999997,
                    "velocity": 0.7086614173228346,
                    "duration": 0.3333329999999961
                },
                {
                    "name": "A3",
                    "midi": 57,
                    "time": 122.66654399999969,
                    "velocity": 0.7086614173228346,
                    "duration": 0.3333329999999961
                },
                {
                    "name": "B3",
                    "midi": 59,
                    "time": 122.99987699999969,
                    "velocity": 0.7086614173228346,
                    "duration": 0.3333329999999961
                },
                {
                    "name": "C4",
                    "midi": 60,
                    "time": 123.33320999999968,
                    "velocity": 0.7086614173228346,
                    "duration": 0.3333329999999961
                },
                {
                    "name": "D3",
                    "midi": 50,
                    "time": 123.66654299999968,
                    "velocity": 0.7086614173228346,
                    "duration": 1.3333319999999986
                },
                {
                    "name": "E3",
                    "midi": 52,
                    "time": 124.99987499999968,
                    "velocity": 0.7086614173228346,
                    "duration": 0.6666660000000064
                },
                {
                    "name": "E2",
                    "midi": 40,
                    "time": 125.66654099999968,
                    "velocity": 0.7086614173228346,
                    "duration": 0.6666660000000064
                },
                {
                    "name": "A2",
                    "midi": 45,
                    "time": 126.33320699999969,
                    "velocity": 0.7086614173228346,
                    "duration": 1.3333319999999986
                },
                {
                    "name": "A3",
                    "midi": 57,
                    "time": 132.6665339999997,
                    "velocity": 0.7086614173228346,
                    "duration": 0.3333330000000103
                },
                {
                    "name": "D4",
                    "midi": 62,
                    "time": 132.9998669999997,
                    "velocity": 0.7086614173228346,
                    "duration": 0.9999990000000025
                },
                {
                    "name": "D4",
                    "midi": 62,
                    "time": 133.9998659999997,
                    "velocity": 0.7086614173228346,
                    "duration": 0.3333330000000103
                },
                {
                    "name": "D4",
                    "midi": 62,
                    "time": 134.33319899999972,
                    "velocity": 0.7086614173228346,
                    "duration": 1.3333320000000128
                },
                {
                    "name": "D3",
                    "midi": 50,
                    "time": 137.99986199999972,
                    "velocity": 0.7086614173228346,
                    "duration": 0.3333330000000103
                },
                {
                    "name": "G3",
                    "midi": 55,
                    "time": 138.33319499999973,
                    "velocity": 0.7086614173228346,
                    "duration": 0.9999990000000025
                },
                {
                    "name": "G3",
                    "midi": 55,
                    "time": 139.33319399999974,
                    "velocity": 0.7086614173228346,
                    "duration": 0.3333330000000103
                },
                {
                    "name": "G3",
                    "midi": 55,
                    "time": 139.66652699999975,
                    "velocity": 0.7086614173228346,
                    "duration": 1.3333320000000128
                },
                {
                    "name": "E3",
                    "midi": 52,
                    "time": 141.99985799999976,
                    "velocity": 0.7086614173228346,
                    "duration": 0.3333330000000103
                },
                {
                    "name": "A3",
                    "midi": 57,
                    "time": 142.33319099999977,
                    "velocity": 0.7086614173228346,
                    "duration": 1.3333320000000128
                },
                {
                    "name": "C#3",
                    "midi": 49,
                    "time": 143.66652299999978,
                    "velocity": 0.7086614173228346,
                    "duration": 1.3333320000000128
                },
                {
                    "name": "D3",
                    "midi": 50,
                    "time": 144.9998549999998,
                    "velocity": 0.7086614173228346,
                    "duration": 0.6666659999999922
                },
                {
                    "name": "G2",
                    "midi": 43,
                    "time": 145.6665209999998,
                    "velocity": 0.7086614173228346,
                    "duration": 0.6666659999999922
                },
                {
                    "name": "A2",
                    "midi": 45,
                    "time": 146.33318699999978,
                    "velocity": 0.7086614173228346,
                    "duration": 0.6666659999999922
                },
                {
                    "name": "A2",
                    "midi": 45,
                    "time": 146.99985299999977,
                    "velocity": 0.7086614173228346,
                    "duration": 0.6666659999999922
                },
                {
                    "name": "D2",
                    "midi": 38,
                    "time": 147.66651899999977,
                    "velocity": 0.7086614173228346,
                    "duration": 1.3333320000000128
                },
                {
                    "name": "D3",
                    "midi": 50,
                    "time": 151.33318199999977,
                    "velocity": 0.7086614173228346,
                    "duration": 0.3333330000000103
                },
                {
                    "name": "G3",
                    "midi": 55,
                    "time": 151.66651499999978,
                    "velocity": 0.7086614173228346,
                    "duration": 0.9999990000000025
                },
                {
                    "name": "G3",
                    "midi": 55,
                    "time": 152.66651399999978,
                    "velocity": 0.7086614173228346,
                    "duration": 0.3333330000000103
                },
                {
                    "name": "G3",
                    "midi": 55,
                    "time": 152.9998469999998,
                    "velocity": 0.7086614173228346,
                    "duration": 1.3333320000000128
                },
                {
                    "name": "G2",
                    "midi": 43,
                    "time": 156.6665099999998,
                    "velocity": 0.7086614173228346,
                    "duration": 0.3333330000000103
                },
                {
                    "name": "A#3",
                    "midi": 58,
                    "time": 156.9998429999998,
                    "velocity": 0.7086614173228346,
                    "duration": 0.9999990000000025
                },
                {
                    "name": "A#3",
                    "midi": 58,
                    "time": 157.9998419999998,
                    "velocity": 0.7086614173228346,
                    "duration": 0.3333330000000103
                },
                {
                    "name": "A#3",
                    "midi": 58,
                    "time": 158.3331749999998,
                    "velocity": 0.7086614173228346,
                    "duration": 0.9999990000000025
                },
                {
                    "name": "G3",
                    "midi": 55,
                    "time": 159.33317399999981,
                    "velocity": 0.7086614173228346,
                    "duration": 0.3333330000000103
                },
                {
                    "name": "C#4",
                    "midi": 61,
                    "time": 159.66650699999983,
                    "velocity": 0.7086614173228346,
                    "duration": 0.9999990000000025
                },
                {
                    "name": "A3",
                    "midi": 57,
                    "time": 160.66650599999983,
                    "velocity": 0.7086614173228346,
                    "duration": 0.3333330000000103
                },
                {
                    "name": "D4",
                    "midi": 62,
                    "time": 160.99983899999984,
                    "velocity": 0.7086614173228346,
                    "duration": 1.3333320000000128
                },
                {
                    "name": "D3",
                    "midi": 50,
                    "time": 162.99983699999984,
                    "velocity": 0.7086614173228346,
                    "duration": 0.6666659999999922
                },
                {
                    "name": "G2",
                    "midi": 43,
                    "time": 163.66650299999984,
                    "velocity": 0.7086614173228346,
                    "duration": 0.6666659999999922
                },
                {
                    "name": "F2",
                    "midi": 41,
                    "time": 164.33316899999983,
                    "velocity": 0.7086614173228346,
                    "duration": 0.3333330000000103
                },
                {
                    "name": "G2",
                    "midi": 43,
                    "time": 164.66650199999984,
                    "velocity": 0.7086614173228346,
                    "duration": 0.3333330000000103
                },
                {
                    "name": "A2",
                    "midi": 45,
                    "time": 164.99983499999985,
                    "velocity": 0.7086614173228346,
                    "duration": 0.6666659999999922
                },
                {
                    "name": "A2",
                    "midi": 45,
                    "time": 165.66650099999984,
                    "velocity": 0.7086614173228346,
                    "duration": 0.6666659999999922
                },
                {
                    "name": "D2",
                    "midi": 38,
                    "time": 166.33316699999983,
                    "velocity": 0.7086614173228346,
                    "duration": 2.6666639999999973
                }
            ],
            "controlChanges": {},
            "id": 9,
            "name": "",
            "instrumentNumber": 48,
            "instrument": "orchestra kit",
            "instrumentFamily": "drums",
            "channelNumber": 10,
            "isPercussion": true
        },
        {
            "startTime": 0,
            "duration": 0,
            "length": 0,
            "notes": [],
            "controlChanges": {},
            "id": 10,
            "name": "",
            "instrumentNumber": 48,
            "instrument": "string ensemble 1",
            "instrumentFamily": "ensemble",
            "channelNumber": 11,
            "isPercussion": false
        },
        {
            "startTime": 1.333332,
            "duration": 168.99983099999983,
            "length": 248,
            "notes": [
                {
                    "name": "D2",
                    "midi": 38,
                    "time": 1.333332,
                    "velocity": 0.7086614173228346,
                    "duration": 0.3333330000000001
                },
                {
                    "name": "D3",
                    "midi": 50,
                    "time": 1.666665,
                    "velocity": 0.7086614173228346,
                    "duration": 0.49999949999999993
                },
                {
                    "name": "D3",
                    "midi": 50,
                    "time": 2.1666645,
                    "velocity": 0.7086614173228346,
                    "duration": 0.16666649999999983
                },
                {
                    "name": "D3",
                    "midi": 50,
                    "time": 2.333331,
                    "velocity": 0.7086614173228346,
                    "duration": 1.333332
                },
                {
                    "name": "D2",
                    "midi": 38,
                    "time": 3.999996,
                    "velocity": 0.7086614173228346,
                    "duration": 0.3333330000000001
                },
                {
                    "name": "D3",
                    "midi": 50,
                    "time": 4.333329,
                    "velocity": 0.7086614173228346,
                    "duration": 0.4999995000000004
                },
                {
                    "name": "D3",
                    "midi": 50,
                    "time": 4.8333285,
                    "velocity": 0.7086614173228346,
                    "duration": 0.16666649999999983
                },
                {
                    "name": "F3",
                    "midi": 53,
                    "time": 4.999995,
                    "velocity": 0.7086614173228346,
                    "duration": 1.3333320000000004
                },
                {
                    "name": "D3",
                    "midi": 50,
                    "time": 6.66666,
                    "velocity": 0.7086614173228346,
                    "duration": 0.33333299999999966
                },
                {
                    "name": "A2",
                    "midi": 45,
                    "time": 6.999993,
                    "velocity": 0.7086614173228346,
                    "duration": 0.4999995000000004
                },
                {
                    "name": "D2",
                    "midi": 38,
                    "time": 7.4999925,
                    "velocity": 0.7086614173228346,
                    "duration": 0.16666649999999983
                },
                {
                    "name": "G2",
                    "midi": 43,
                    "time": 7.666659,
                    "velocity": 0.7086614173228346,
                    "duration": 0.4999995000000004
                },
                {
                    "name": "A#2",
                    "midi": 46,
                    "time": 8.1666585,
                    "velocity": 0.7086614173228346,
                    "duration": 0.16666649999999983
                },
                {
                    "name": "E2",
                    "midi": 40,
                    "time": 8.333325,
                    "velocity": 0.7086614173228346,
                    "duration": 0.4999994999999995
                },
                {
                    "name": "G2",
                    "midi": 43,
                    "time": 8.8333245,
                    "velocity": 0.7086614173228346,
                    "duration": 0.16666649999999983
                },
                {
                    "name": "C#2",
                    "midi": 37,
                    "time": 8.999991,
                    "velocity": 0.7086614173228346,
                    "duration": 0.6666659999999993
                },
                {
                    "name": "A1",
                    "midi": 33,
                    "time": 9.666656999999999,
                    "velocity": 0.7086614173228346,
                    "duration": 0.6666659999999993
                },
                {
                    "name": "D2",
                    "midi": 38,
                    "time": 10.333322999999998,
                    "velocity": 0.7086614173228346,
                    "duration": 0.6666659999999993
                },
                {
                    "name": "D1",
                    "midi": 26,
                    "time": 10.999988999999998,
                    "velocity": 0.7086614173228346,
                    "duration": 0.6666659999999993
                },
                {
                    "name": "A1",
                    "midi": 33,
                    "time": 11.666654999999997,
                    "velocity": 0.7086614173228346,
                    "duration": 1.3333320000000004
                },
                {
                    "name": "A1",
                    "midi": 33,
                    "time": 13.333319999999997,
                    "velocity": 0.7086614173228346,
                    "duration": 0.33333299999999966
                },
                {
                    "name": "A2",
                    "midi": 45,
                    "time": 13.666652999999997,
                    "velocity": 0.7086614173228346,
                    "duration": 0.4999994999999995
                },
                {
                    "name": "A2",
                    "midi": 45,
                    "time": 14.166652499999996,
                    "velocity": 0.7086614173228346,
                    "duration": 0.16666649999999983
                },
                {
                    "name": "A2",
                    "midi": 45,
                    "time": 14.333318999999996,
                    "velocity": 0.7086614173228346,
                    "duration": 0.6666659999999993
                },
                {
                    "name": "G2",
                    "midi": 43,
                    "time": 14.999984999999995,
                    "velocity": 0.7086614173228346,
                    "duration": 0.6666659999999993
                },
                {
                    "name": "F2",
                    "midi": 41,
                    "time": 15.666650999999995,
                    "velocity": 0.7086614173228346,
                    "duration": 0.6666659999999993
                },
                {
                    "name": "D2",
                    "midi": 38,
                    "time": 16.333316999999994,
                    "velocity": 0.7086614173228346,
                    "duration": 0.6666659999999993
                },
                {
                    "name": "E2",
                    "midi": 40,
                    "time": 16.999982999999993,
                    "velocity": 0.7086614173228346,
                    "duration": 0.49999950000000126
                },
                {
                    "name": "E2",
                    "midi": 40,
                    "time": 17.499982499999994,
                    "velocity": 0.7086614173228346,
                    "duration": 0.1666665000000016
                },
                {
                    "name": "E3",
                    "midi": 52,
                    "time": 17.666648999999996,
                    "velocity": 0.7086614173228346,
                    "duration": 0.49999950000000126
                },
                {
                    "name": "E3",
                    "midi": 52,
                    "time": 18.166648499999997,
                    "velocity": 0.7086614173228346,
                    "duration": 0.1666665000000016
                },
                {
                    "name": "E3",
                    "midi": 52,
                    "time": 18.333315,
                    "velocity": 0.7086614173228346,
                    "duration": 0.49999950000000126
                },
                {
                    "name": "E3",
                    "midi": 52,
                    "time": 18.8333145,
                    "velocity": 0.7086614173228346,
                    "duration": 0.05381939062500152
                },
                {
                    "name": "D3",
                    "midi": 50,
                    "time": 18.88887,
                    "velocity": 0.7086614173228346,
                    "duration": 0.05381939062500152
                },
                {
                    "name": "C3",
                    "midi": 48,
                    "time": 18.9444255,
                    "velocity": 0.7086614173228346,
                    "duration": 0.05381939062500152
                },
                {
                    "name": "D3",
                    "midi": 50,
                    "time": 18.999981000000002,
                    "velocity": 0.7086614173228346,
                    "duration": 1.1666655000000006
                },
                {
                    "name": "D3",
                    "midi": 50,
                    "time": 20.166646500000002,
                    "velocity": 0.7086614173228346,
                    "duration": 0.05381939062500152
                },
                {
                    "name": "C3",
                    "midi": 48,
                    "time": 20.222202000000003,
                    "velocity": 0.7086614173228346,
                    "duration": 0.05381939062500152
                },
                {
                    "name": "B2",
                    "midi": 47,
                    "time": 20.277757500000003,
                    "velocity": 0.7086614173228346,
                    "duration": 0.05381939062500152
                },
                {
                    "name": "C3",
                    "midi": 48,
                    "time": 20.333313000000004,
                    "velocity": 0.7086614173228346,
                    "duration": 0.49999950000000126
                },
                {
                    "name": "C3",
                    "midi": 48,
                    "time": 20.833312500000005,
                    "velocity": 0.7086614173228346,
                    "duration": 0.05381939062500152
                },
                {
                    "name": "D3",
                    "midi": 50,
                    "time": 20.888868000000006,
                    "velocity": 0.7086614173228346,
                    "duration": 0.05381939062500152
                },
                {
                    "name": "C3",
                    "midi": 48,
                    "time": 20.944423500000006,
                    "velocity": 0.7086614173228346,
                    "duration": 0.05381939062500152
                },
                {
                    "name": "B2",
                    "midi": 47,
                    "time": 20.999979000000007,
                    "velocity": 0.7086614173228346,
                    "duration": 0.6666659999999993
                },
                {
                    "name": "E3",
                    "midi": 52,
                    "time": 21.666645000000006,
                    "velocity": 0.7086614173228346,
                    "duration": 0.6666659999999993
                },
                {
                    "name": "A2",
                    "midi": 45,
                    "time": 22.333311000000005,
                    "velocity": 0.7086614173228346,
                    "duration": 0.49999950000000126
                },
                {
                    "name": "A1",
                    "midi": 33,
                    "time": 22.833310500000007,
                    "velocity": 0.7086614173228346,
                    "duration": 0.1666665000000016
                },
                {
                    "name": "D2",
                    "midi": 38,
                    "time": 22.99997700000001,
                    "velocity": 0.7086614173228346,
                    "duration": 0.49999950000000126
                },
                {
                    "name": "D2",
                    "midi": 38,
                    "time": 23.49997650000001,
                    "velocity": 0.7086614173228346,
                    "duration": 0.1666665000000016
                },
                {
                    "name": "D2",
                    "midi": 38,
                    "time": 23.66664300000001,
                    "velocity": 0.7086614173228346,
                    "duration": 1.3333319999999986
                },
                {
                    "name": "D2",
                    "midi": 38,
                    "time": 25.33330800000001,
                    "velocity": 0.7086614173228346,
                    "duration": 0.33333299999999966
                },
                {
                    "name": "B2",
                    "midi": 47,
                    "time": 25.66664100000001,
                    "velocity": 0.7086614173228346,
                    "duration": 0.49999950000000126
                },
                {
                    "name": "B2",
                    "midi": 47,
                    "time": 26.16664050000001,
                    "velocity": 0.7086614173228346,
                    "duration": 0.1666665000000016
                },
                {
                    "name": "D3",
                    "midi": 50,
                    "time": 26.333307000000012,
                    "velocity": 0.7086614173228346,
                    "duration": 1.3333319999999986
                },
                {
                    "name": "D2",
                    "midi": 38,
                    "time": 27.99997200000001,
                    "velocity": 0.7086614173228346,
                    "duration": 0.33333299999999966
                },
                {
                    "name": "B2",
                    "midi": 47,
                    "time": 28.33330500000001,
                    "velocity": 0.7086614173228346,
                    "duration": 0.49999950000000126
                },
                {
                    "name": "B2",
                    "midi": 47,
                    "time": 28.83330450000001,
                    "velocity": 0.7086614173228346,
                    "duration": 0.1666665000000016
                },
                {
                    "name": "G#1",
                    "midi": 32,
                    "time": 28.999971000000013,
                    "velocity": 0.7086614173228346,
                    "duration": 1.3333319999999986
                },
                {
                    "name": "E2",
                    "midi": 40,
                    "time": 30.66663600000001,
                    "velocity": 0.7086614173228346,
                    "duration": 0.33333299999999966
                },
                {
                    "name": "E2",
                    "midi": 40,
                    "time": 30.99996900000001,
                    "velocity": 0.7086614173228346,
                    "duration": 0.49999950000000126
                },
                {
                    "name": "F#2",
                    "midi": 42,
                    "time": 31.499968500000012,
                    "velocity": 0.7086614173228346,
                    "duration": 0.1666665000000016
                },
                {
                    "name": "G#2",
                    "midi": 44,
                    "time": 31.666635000000014,
                    "velocity": 0.7086614173228346,
                    "duration": 0.49999950000000126
                },
                {
                    "name": "A2",
                    "midi": 45,
                    "time": 32.166634500000015,
                    "velocity": 0.7086614173228346,
                    "duration": 0.16666649999999805
                },
                {
                    "name": "B2",
                    "midi": 47,
                    "time": 32.33330100000001,
                    "velocity": 0.7086614173228346,
                    "duration": 0.49999950000000126
                },
                {
                    "name": "G#2",
                    "midi": 44,
                    "time": 32.833300500000014,
                    "velocity": 0.7086614173228346,
                    "duration": 0.16666649999999805
                },
                {
                    "name": "A2",
                    "midi": 45,
                    "time": 32.99996700000001,
                    "velocity": 0.7086614173228346,
                    "duration": 0.6666659999999993
                },
                {
                    "name": "C2",
                    "midi": 36,
                    "time": 33.66663300000001,
                    "velocity": 0.7086614173228346,
                    "duration": 0.49999950000000126
                },
                {
                    "name": "D2",
                    "midi": 38,
                    "time": 34.16663250000001,
                    "velocity": 0.7086614173228346,
                    "duration": 0.16666649999999805
                },
                {
                    "name": "E2",
                    "midi": 40,
                    "time": 34.33329900000001,
                    "velocity": 0.7086614173228346,
                    "duration": 0.6666659999999993
                },
                {
                    "name": "E1",
                    "midi": 28,
                    "time": 34.99996500000001,
                    "velocity": 0.7086614173228346,
                    "duration": 0.6666659999999993
                },
                {
                    "name": "A1",
                    "midi": 33,
                    "time": 35.66663100000001,
                    "velocity": 0.7086614173228346,
                    "duration": 0.49999950000000126
                },
                {
                    "name": "A2",
                    "midi": 45,
                    "time": 36.16663050000001,
                    "velocity": 0.7086614173228346,
                    "duration": 0.16666649999999805
                },
                {
                    "name": "A1",
                    "midi": 33,
                    "time": 36.33329700000001,
                    "velocity": 0.7086614173228346,
                    "duration": 0.49999950000000126
                },
                {
                    "name": "A1",
                    "midi": 33,
                    "time": 36.83329650000001,
                    "velocity": 0.7086614173228346,
                    "duration": 0.16666649999999805
                },
                {
                    "name": "D1",
                    "midi": 26,
                    "time": 36.99996300000001,
                    "velocity": 0.7086614173228346,
                    "duration": 1.3333319999999986
                },
                {
                    "name": "A1",
                    "midi": 33,
                    "time": 38.33329500000001,
                    "velocity": 0.7086614173228346,
                    "duration": 2.6666639999999973
                },
                {
                    "name": "D3",
                    "midi": 50,
                    "time": 57.333276000000005,
                    "velocity": 0.7086614173228346,
                    "duration": 0.3333330000000032
                },
                {
                    "name": "D3",
                    "midi": 50,
                    "time": 57.66660900000001,
                    "velocity": 0.7086614173228346,
                    "duration": 0.3333330000000032
                },
                {
                    "name": "C3",
                    "midi": 48,
                    "time": 57.99994200000001,
                    "velocity": 0.7086614173228346,
                    "duration": 0.3333330000000032
                },
                {
                    "name": "A#2",
                    "midi": 46,
                    "time": 58.333275000000015,
                    "velocity": 0.7086614173228346,
                    "duration": 0.3333330000000032
                },
                {
                    "name": "A#2",
                    "midi": 46,
                    "time": 58.66660800000002,
                    "velocity": 0.7086614173228346,
                    "duration": 0.3333330000000032
                },
                {
                    "name": "A#2",
                    "midi": 46,
                    "time": 58.99994100000002,
                    "velocity": 0.7086614173228346,
                    "duration": 0.3333330000000032
                },
                {
                    "name": "A2",
                    "midi": 45,
                    "time": 59.333274000000024,
                    "velocity": 0.7086614173228346,
                    "duration": 0.3333330000000032
                },
                {
                    "name": "G2",
                    "midi": 43,
                    "time": 59.66660700000003,
                    "velocity": 0.7086614173228346,
                    "duration": 0.3333330000000032
                },
                {
                    "name": "G2",
                    "midi": 43,
                    "time": 59.99994000000003,
                    "velocity": 0.7086614173228346,
                    "duration": 0.3333330000000032
                },
                {
                    "name": "G2",
                    "midi": 43,
                    "time": 60.333273000000034,
                    "velocity": 0.7086614173228346,
                    "duration": 0.3333330000000032
                },
                {
                    "name": "F2",
                    "midi": 41,
                    "time": 60.66660600000004,
                    "velocity": 0.7086614173228346,
                    "duration": 0.3333330000000032
                },
                {
                    "name": "E2",
                    "midi": 40,
                    "time": 60.99993900000004,
                    "velocity": 0.7086614173228346,
                    "duration": 0.3333330000000032
                },
                {
                    "name": "E2",
                    "midi": 40,
                    "time": 61.33327200000004,
                    "velocity": 0.7086614173228346,
                    "duration": 0.3333330000000032
                },
                {
                    "name": "E2",
                    "midi": 40,
                    "time": 61.66660500000005,
                    "velocity": 0.7086614173228346,
                    "duration": 0.3333330000000032
                },
                {
                    "name": "D2",
                    "midi": 38,
                    "time": 61.99993800000005,
                    "velocity": 0.7086614173228346,
                    "duration": 0.3333330000000032
                },
                {
                    "name": "C#2",
                    "midi": 37,
                    "time": 62.33327100000005,
                    "velocity": 0.7086614173228346,
                    "duration": 0.6666659999999993
                },
                {
                    "name": "A1",
                    "midi": 33,
                    "time": 62.99993700000005,
                    "velocity": 0.7086614173228346,
                    "duration": 0.6666659999999993
                },
                {
                    "name": "D2",
                    "midi": 38,
                    "time": 63.66660300000005,
                    "velocity": 0.7086614173228346,
                    "duration": 0.6666660000000064
                },
                {
                    "name": "D1",
                    "midi": 26,
                    "time": 64.33326900000006,
                    "velocity": 0.7086614173228346,
                    "duration": 0.6666660000000064
                },
                {
                    "name": "A1",
                    "midi": 33,
                    "time": 64.99993500000006,
                    "velocity": 0.7086614173228346,
                    "duration": 0.3333329999999961
                },
                {
                    "name": "A2",
                    "midi": 45,
                    "time": 65.33326800000006,
                    "velocity": 0.7086614173228346,
                    "duration": 0.3333329999999961
                },
                {
                    "name": "A2",
                    "midi": 45,
                    "time": 65.66660100000006,
                    "velocity": 0.7086614173228346,
                    "duration": 0.3333329999999961
                },
                {
                    "name": "G2",
                    "midi": 43,
                    "time": 65.99993400000005,
                    "velocity": 0.7086614173228346,
                    "duration": 0.3333329999999961
                },
                {
                    "name": "F#2",
                    "midi": 42,
                    "time": 66.33326700000005,
                    "velocity": 0.7086614173228346,
                    "duration": 0.3333329999999961
                },
                {
                    "name": "F#2",
                    "midi": 42,
                    "time": 66.66660000000005,
                    "velocity": 0.7086614173228346,
                    "duration": 0.3333329999999961
                },
                {
                    "name": "F#2",
                    "midi": 42,
                    "time": 66.99993300000004,
                    "velocity": 0.7086614173228346,
                    "duration": 0.3333329999999961
                },
                {
                    "name": "E2",
                    "midi": 40,
                    "time": 67.33326600000004,
                    "velocity": 0.7086614173228346,
                    "duration": 0.3333329999999961
                },
                {
                    "name": "D2",
                    "midi": 38,
                    "time": 67.66659900000003,
                    "velocity": 0.7086614173228346,
                    "duration": 0.3333329999999961
                },
                {
                    "name": "D2",
                    "midi": 38,
                    "time": 67.99993200000003,
                    "velocity": 0.7086614173228346,
                    "duration": 0.3333329999999961
                },
                {
                    "name": "D2",
                    "midi": 38,
                    "time": 68.33326500000003,
                    "velocity": 0.7086614173228346,
                    "duration": 0.3333329999999961
                },
                {
                    "name": "C2",
                    "midi": 36,
                    "time": 68.66659800000002,
                    "velocity": 0.7086614173228346,
                    "duration": 0.3333329999999961
                },
                {
                    "name": "A#1",
                    "midi": 34,
                    "time": 68.99993100000002,
                    "velocity": 0.7086614173228346,
                    "duration": 0.3333329999999961
                },
                {
                    "name": "A#1",
                    "midi": 34,
                    "time": 69.33326400000001,
                    "velocity": 0.7086614173228346,
                    "duration": 0.3333329999999961
                },
                {
                    "name": "A#1",
                    "midi": 34,
                    "time": 69.66659700000001,
                    "velocity": 0.7086614173228346,
                    "duration": 0.3333329999999961
                },
                {
                    "name": "A1",
                    "midi": 33,
                    "time": 69.99993,
                    "velocity": 0.7086614173228346,
                    "duration": 0.3333329999999961
                },
                {
                    "name": "G1",
                    "midi": 31,
                    "time": 70.333263,
                    "velocity": 0.7086614173228346,
                    "duration": 0.3333329999999961
                },
                {
                    "name": "G2",
                    "midi": 43,
                    "time": 70.666596,
                    "velocity": 0.7086614173228346,
                    "duration": 0.3333329999999961
                },
                {
                    "name": "G2",
                    "midi": 43,
                    "time": 70.999929,
                    "velocity": 0.7086614173228346,
                    "duration": 0.3333329999999961
                },
                {
                    "name": "F2",
                    "midi": 41,
                    "time": 71.33326199999999,
                    "velocity": 0.7086614173228346,
                    "duration": 0.3333329999999961
                },
                {
                    "name": "E2",
                    "midi": 40,
                    "time": 71.66659499999999,
                    "velocity": 0.7086614173228346,
                    "duration": 0.3333329999999961
                },
                {
                    "name": "E2",
                    "midi": 40,
                    "time": 71.99992799999998,
                    "velocity": 0.7086614173228346,
                    "duration": 0.3333329999999961
                },
                {
                    "name": "E2",
                    "midi": 40,
                    "time": 72.33326099999998,
                    "velocity": 0.7086614173228346,
                    "duration": 0.3333329999999961
                },
                {
                    "name": "D2",
                    "midi": 38,
                    "time": 72.66659399999998,
                    "velocity": 0.7086614173228346,
                    "duration": 0.3333329999999961
                },
                {
                    "name": "C2",
                    "midi": 36,
                    "time": 72.99992699999997,
                    "velocity": 0.7086614173228346,
                    "duration": 0.3333329999999961
                },
                {
                    "name": "C2",
                    "midi": 36,
                    "time": 73.33325999999997,
                    "velocity": 0.7086614173228346,
                    "duration": 0.3333329999999961
                },
                {
                    "name": "C2",
                    "midi": 36,
                    "time": 73.66659299999996,
                    "velocity": 0.7086614173228346,
                    "duration": 0.3333329999999961
                },
                {
                    "name": "A#1",
                    "midi": 34,
                    "time": 73.99992599999996,
                    "velocity": 0.7086614173228346,
                    "duration": 0.3333329999999961
                },
                {
                    "name": "A1",
                    "midi": 33,
                    "time": 74.33325899999996,
                    "velocity": 0.7086614173228346,
                    "duration": 0.3333329999999961
                },
                {
                    "name": "A1",
                    "midi": 33,
                    "time": 74.66659199999995,
                    "velocity": 0.7086614173228346,
                    "duration": 0.3333329999999961
                },
                {
                    "name": "A1",
                    "midi": 33,
                    "time": 74.99992499999995,
                    "velocity": 0.7086614173228346,
                    "duration": 0.3333329999999961
                },
                {
                    "name": "G1",
                    "midi": 31,
                    "time": 75.33325799999994,
                    "velocity": 0.7086614173228346,
                    "duration": 0.3333329999999961
                },
                {
                    "name": "F1",
                    "midi": 29,
                    "time": 75.66659099999994,
                    "velocity": 0.7086614173228346,
                    "duration": 0.3333329999999961
                },
                {
                    "name": "F2",
                    "midi": 41,
                    "time": 75.99992399999994,
                    "velocity": 0.7086614173228346,
                    "duration": 0.3333329999999961
                },
                {
                    "name": "F2",
                    "midi": 41,
                    "time": 76.33325699999993,
                    "velocity": 0.7086614173228346,
                    "duration": 0.3333329999999961
                },
                {
                    "name": "D#2",
                    "midi": 39,
                    "time": 76.66658999999993,
                    "velocity": 0.7086614173228346,
                    "duration": 0.3333329999999961
                },
                {
                    "name": "D2",
                    "midi": 38,
                    "time": 76.99992299999992,
                    "velocity": 0.7086614173228346,
                    "duration": 0.3333329999999961
                },
                {
                    "name": "D2",
                    "midi": 38,
                    "time": 77.33325599999992,
                    "velocity": 0.7086614173228346,
                    "duration": 0.3333329999999961
                },
                {
                    "name": "D2",
                    "midi": 38,
                    "time": 77.66658899999992,
                    "velocity": 0.7086614173228346,
                    "duration": 0.3333329999999961
                },
                {
                    "name": "C2",
                    "midi": 36,
                    "time": 77.99992199999991,
                    "velocity": 0.7086614173228346,
                    "duration": 0.3333329999999961
                },
                {
                    "name": "A#1",
                    "midi": 34,
                    "time": 78.33325499999991,
                    "velocity": 0.7086614173228346,
                    "duration": 0.3333329999999961
                },
                {
                    "name": "A#1",
                    "midi": 34,
                    "time": 78.6665879999999,
                    "velocity": 0.7086614173228346,
                    "duration": 0.3333329999999961
                },
                {
                    "name": "A#1",
                    "midi": 34,
                    "time": 78.9999209999999,
                    "velocity": 0.7086614173228346,
                    "duration": 0.3333329999999961
                },
                {
                    "name": "A1",
                    "midi": 33,
                    "time": 79.3332539999999,
                    "velocity": 0.7086614173228346,
                    "duration": 0.3333329999999961
                },
                {
                    "name": "G1",
                    "midi": 31,
                    "time": 79.6665869999999,
                    "velocity": 0.7086614173228346,
                    "duration": 0.3333329999999961
                },
                {
                    "name": "G1",
                    "midi": 31,
                    "time": 79.99991999999989,
                    "velocity": 0.7086614173228346,
                    "duration": 0.3333329999999961
                },
                {
                    "name": "G1",
                    "midi": 31,
                    "time": 80.33325299999989,
                    "velocity": 0.7086614173228346,
                    "duration": 0.3333329999999961
                },
                {
                    "name": "F1",
                    "midi": 29,
                    "time": 80.66658599999988,
                    "velocity": 0.7086614173228346,
                    "duration": 0.3333329999999961
                },
                {
                    "name": "C2",
                    "midi": 36,
                    "time": 80.99991899999988,
                    "velocity": 0.7086614173228346,
                    "duration": 0.6666660000000064
                },
                {
                    "name": "F1",
                    "midi": 29,
                    "time": 86.66657999999988,
                    "velocity": 0.7086614173228346,
                    "duration": 0.3333329999999961
                },
                {
                    "name": "F1",
                    "midi": 29,
                    "time": 86.99991299999988,
                    "velocity": 0.7086614173228346,
                    "duration": 0.3333329999999961
                },
                {
                    "name": "G1",
                    "midi": 31,
                    "time": 87.33324599999987,
                    "velocity": 0.7086614173228346,
                    "duration": 0.3333329999999961
                },
                {
                    "name": "A1",
                    "midi": 33,
                    "time": 87.66657899999987,
                    "velocity": 0.7086614173228346,
                    "duration": 0.3333329999999961
                },
                {
                    "name": "A1",
                    "midi": 33,
                    "time": 87.99991199999987,
                    "velocity": 0.7086614173228346,
                    "duration": 0.3333329999999961
                },
                {
                    "name": "A1",
                    "midi": 33,
                    "time": 88.33324499999986,
                    "velocity": 0.7086614173228346,
                    "duration": 0.3333329999999961
                },
                {
                    "name": "F1",
                    "midi": 29,
                    "time": 88.66657799999986,
                    "velocity": 0.7086614173228346,
                    "duration": 0.3333329999999961
                },
                {
                    "name": "A#1",
                    "midi": 34,
                    "time": 88.99991099999986,
                    "velocity": 0.7086614173228346,
                    "duration": 0.3333329999999961
                },
                {
                    "name": "A#1",
                    "midi": 34,
                    "time": 89.33324399999985,
                    "velocity": 0.7086614173228346,
                    "duration": 0.3333329999999961
                },
                {
                    "name": "A#1",
                    "midi": 34,
                    "time": 89.66657699999985,
                    "velocity": 0.7086614173228346,
                    "duration": 0.3333329999999961
                },
                {
                    "name": "C2",
                    "midi": 36,
                    "time": 89.99990999999984,
                    "velocity": 0.7086614173228346,
                    "duration": 0.3333329999999961
                },
                {
                    "name": "D2",
                    "midi": 38,
                    "time": 90.33324299999984,
                    "velocity": 0.7086614173228346,
                    "duration": 0.3333329999999961
                },
                {
                    "name": "D2",
                    "midi": 38,
                    "time": 90.66657599999984,
                    "velocity": 0.7086614173228346,
                    "duration": 0.3333329999999961
                },
                {
                    "name": "E2",
                    "midi": 40,
                    "time": 90.99990899999983,
                    "velocity": 0.7086614173228346,
                    "duration": 0.3333329999999961
                },
                {
                    "name": "F2",
                    "midi": 41,
                    "time": 91.33324199999983,
                    "velocity": 0.7086614173228346,
                    "duration": 0.3333329999999961
                },
                {
                    "name": "E2",
                    "midi": 40,
                    "time": 91.66657499999982,
                    "velocity": 0.7086614173228346,
                    "duration": 0.3333329999999961
                },
                {
                    "name": "C2",
                    "midi": 36,
                    "time": 91.99990799999982,
                    "velocity": 0.7086614173228346,
                    "duration": 0.3333329999999961
                },
                {
                    "name": "F2",
                    "midi": 41,
                    "time": 92.33324099999982,
                    "velocity": 0.7086614173228346,
                    "duration": 0.3333329999999961
                },
                {
                    "name": "A#1",
                    "midi": 34,
                    "time": 92.66657399999981,
                    "velocity": 0.7086614173228346,
                    "duration": 0.3333329999999961
                },
                {
                    "name": "C2",
                    "midi": 36,
                    "time": 92.99990699999981,
                    "velocity": 0.7086614173228346,
                    "duration": 0.6666660000000064
                },
                {
                    "name": "C1",
                    "midi": 24,
                    "time": 93.66657299999981,
                    "velocity": 0.7086614173228346,
                    "duration": 0.6666660000000064
                },
                {
                    "name": "F1",
                    "midi": 29,
                    "time": 94.33323899999982,
                    "velocity": 0.7086614173228346,
                    "duration": 0.6666660000000064
                },
                {
                    "name": "C2",
                    "midi": 36,
                    "time": 97.33323599999983,
                    "velocity": 0.7086614173228346,
                    "duration": 0.3333329999999961
                },
                {
                    "name": "C2",
                    "midi": 36,
                    "time": 97.66656899999982,
                    "velocity": 0.7086614173228346,
                    "duration": 0.3333329999999961
                },
                {
                    "name": "C2",
                    "midi": 36,
                    "time": 97.99990199999982,
                    "velocity": 0.7086614173228346,
                    "duration": 0.3333329999999961
                },
                {
                    "name": "A#1",
                    "midi": 34,
                    "time": 98.33323499999982,
                    "velocity": 0.7086614173228346,
                    "duration": 0.3333329999999961
                },
                {
                    "name": "A#1",
                    "midi": 34,
                    "time": 98.66656799999981,
                    "velocity": 0.7086614173228346,
                    "duration": 0.3333329999999961
                },
                {
                    "name": "A#1",
                    "midi": 34,
                    "time": 98.99990099999981,
                    "velocity": 0.7086614173228346,
                    "duration": 0.3333329999999961
                },
                {
                    "name": "A1",
                    "midi": 33,
                    "time": 99.3332339999998,
                    "velocity": 0.7086614173228346,
                    "duration": 0.3333329999999961
                },
                {
                    "name": "G1",
                    "midi": 31,
                    "time": 99.6665669999998,
                    "velocity": 0.7086614173228346,
                    "duration": 0.6666660000000064
                },
                {
                    "name": "D2",
                    "midi": 38,
                    "time": 102.66656399999981,
                    "velocity": 0.7086614173228346,
                    "duration": 0.3333329999999961
                },
                {
                    "name": "D2",
                    "midi": 38,
                    "time": 102.9998969999998,
                    "velocity": 0.7086614173228346,
                    "duration": 0.3333329999999961
                },
                {
                    "name": "C2",
                    "midi": 36,
                    "time": 103.3332299999998,
                    "velocity": 0.7086614173228346,
                    "duration": 0.3333329999999961
                },
                {
                    "name": "A#1",
                    "midi": 34,
                    "time": 103.6665629999998,
                    "velocity": 0.7086614173228346,
                    "duration": 0.3333329999999961
                },
                {
                    "name": "A#1",
                    "midi": 34,
                    "time": 103.9998959999998,
                    "velocity": 0.7086614173228346,
                    "duration": 0.3333329999999961
                },
                {
                    "name": "A#1",
                    "midi": 34,
                    "time": 104.33322899999979,
                    "velocity": 0.7086614173228346,
                    "duration": 0.3333329999999961
                },
                {
                    "name": "G1",
                    "midi": 31,
                    "time": 104.66656199999979,
                    "velocity": 0.7086614173228346,
                    "duration": 0.3333329999999961
                },
                {
                    "name": "A1",
                    "midi": 33,
                    "time": 104.99989499999978,
                    "velocity": 0.7086614173228346,
                    "duration": 1.3333319999999986
                },
                {
                    "name": "A1",
                    "midi": 33,
                    "time": 113.33321999999978,
                    "velocity": 0.7086614173228346,
                    "duration": 0.3333329999999961
                },
                {
                    "name": "A1",
                    "midi": 33,
                    "time": 113.66655299999978,
                    "velocity": 0.7086614173228346,
                    "duration": 0.3333329999999961
                },
                {
                    "name": "B1",
                    "midi": 35,
                    "time": 113.99988599999978,
                    "velocity": 0.7086614173228346,
                    "duration": 0.3333329999999961
                },
                {
                    "name": "C#2",
                    "midi": 37,
                    "time": 114.33321899999977,
                    "velocity": 0.7086614173228346,
                    "duration": 0.3333329999999961
                },
                {
                    "name": "C#2",
                    "midi": 37,
                    "time": 114.66655199999977,
                    "velocity": 0.7086614173228346,
                    "duration": 0.3333329999999961
                },
                {
                    "name": "C#2",
                    "midi": 37,
                    "time": 114.99988499999976,
                    "velocity": 0.7086614173228346,
                    "duration": 0.3333329999999961
                },
                {
                    "name": "D2",
                    "midi": 38,
                    "time": 115.33321799999976,
                    "velocity": 0.7086614173228346,
                    "duration": 0.3333329999999961
                },
                {
                    "name": "E2",
                    "midi": 40,
                    "time": 115.66655099999976,
                    "velocity": 0.7086614173228346,
                    "duration": 0.3333329999999961
                },
                {
                    "name": "E2",
                    "midi": 40,
                    "time": 115.99988399999975,
                    "velocity": 0.7086614173228346,
                    "duration": 0.3333329999999961
                },
                {
                    "name": "E2",
                    "midi": 40,
                    "time": 116.33321699999975,
                    "velocity": 0.7086614173228346,
                    "duration": 0.3333329999999961
                },
                {
                    "name": "F2",
                    "midi": 41,
                    "time": 116.66654999999975,
                    "velocity": 0.7086614173228346,
                    "duration": 0.3333329999999961
                },
                {
                    "name": "G2",
                    "midi": 43,
                    "time": 116.99988299999974,
                    "velocity": 0.7086614173228346,
                    "duration": 0.3333329999999961
                },
                {
                    "name": "G2",
                    "midi": 43,
                    "time": 117.33321599999974,
                    "velocity": 0.7086614173228346,
                    "duration": 0.3333329999999961
                },
                {
                    "name": "F2",
                    "midi": 41,
                    "time": 117.66654899999973,
                    "velocity": 0.7086614173228346,
                    "duration": 0.3333329999999961
                },
                {
                    "name": "E2",
                    "midi": 40,
                    "time": 117.99988199999973,
                    "velocity": 0.7086614173228346,
                    "duration": 0.3333329999999961
                },
                {
                    "name": "F2",
                    "midi": 41,
                    "time": 118.33321499999973,
                    "velocity": 0.7086614173228346,
                    "duration": 1.3333319999999986
                },
                {
                    "name": "F2",
                    "midi": 41,
                    "time": 119.99987999999972,
                    "velocity": 0.7086614173228346,
                    "duration": 0.3333329999999961
                },
                {
                    "name": "E2",
                    "midi": 40,
                    "time": 120.33321299999972,
                    "velocity": 0.7086614173228346,
                    "duration": 0.3333329999999961
                },
                {
                    "name": "D2",
                    "midi": 38,
                    "time": 120.66654599999971,
                    "velocity": 0.7086614173228346,
                    "duration": 0.3333329999999961
                },
                {
                    "name": "E2",
                    "midi": 40,
                    "time": 120.99987899999971,
                    "velocity": 0.7086614173228346,
                    "duration": 0.3333329999999961
                },
                {
                    "name": "E2",
                    "midi": 40,
                    "time": 121.3332119999997,
                    "velocity": 0.7086614173228346,
                    "duration": 0.3333329999999961
                },
                {
                    "name": "F#2",
                    "midi": 42,
                    "time": 121.6665449999997,
                    "velocity": 0.7086614173228346,
                    "duration": 0.3333329999999961
                },
                {
                    "name": "G#2",
                    "midi": 44,
                    "time": 121.9998779999997,
                    "velocity": 0.7086614173228346,
                    "duration": 0.3333329999999961
                },
                {
                    "name": "A2",
                    "midi": 45,
                    "time": 122.3332109999997,
                    "velocity": 0.7086614173228346,
                    "duration": 0.3333329999999961
                },
                {
                    "name": "A2",
                    "midi": 45,
                    "time": 122.66654399999969,
                    "velocity": 0.7086614173228346,
                    "duration": 0.3333329999999961
                },
                {
                    "name": "B2",
                    "midi": 47,
                    "time": 122.99987699999969,
                    "velocity": 0.7086614173228346,
                    "duration": 0.3333329999999961
                },
                {
                    "name": "C3",
                    "midi": 48,
                    "time": 123.33320999999968,
                    "velocity": 0.7086614173228346,
                    "duration": 0.3333329999999961
                },
                {
                    "name": "D2",
                    "midi": 38,
                    "time": 123.66654299999968,
                    "velocity": 0.7086614173228346,
                    "duration": 1.3333319999999986
                },
                {
                    "name": "E2",
                    "midi": 40,
                    "time": 124.99987499999968,
                    "velocity": 0.7086614173228346,
                    "duration": 0.6666660000000064
                },
                {
                    "name": "E1",
                    "midi": 28,
                    "time": 125.66654099999968,
                    "velocity": 0.7086614173228346,
                    "duration": 0.6666660000000064
                },
                {
                    "name": "A1",
                    "midi": 33,
                    "time": 126.33320699999969,
                    "velocity": 0.7086614173228346,
                    "duration": 1.3333319999999986
                },
                {
                    "name": "A2",
                    "midi": 45,
                    "time": 132.6665339999997,
                    "velocity": 0.7086614173228346,
                    "duration": 0.3333330000000103
                },
                {
                    "name": "D3",
                    "midi": 50,
                    "time": 132.9998669999997,
                    "velocity": 0.7086614173228346,
                    "duration": 0.9999990000000025
                },
                {
                    "name": "D3",
                    "midi": 50,
                    "time": 133.9998659999997,
                    "velocity": 0.7086614173228346,
                    "duration": 0.3333330000000103
                },
                {
                    "name": "D3",
                    "midi": 50,
                    "time": 134.33319899999972,
                    "velocity": 0.7086614173228346,
                    "duration": 1.3333320000000128
                },
                {
                    "name": "D2",
                    "midi": 38,
                    "time": 137.99986199999972,
                    "velocity": 0.7086614173228346,
                    "duration": 0.3333330000000103
                },
                {
                    "name": "G2",
                    "midi": 43,
                    "time": 138.33319499999973,
                    "velocity": 0.7086614173228346,
                    "duration": 0.9999990000000025
                },
                {
                    "name": "G2",
                    "midi": 43,
                    "time": 139.33319399999974,
                    "velocity": 0.7086614173228346,
                    "duration": 0.3333330000000103
                },
                {
                    "name": "G2",
                    "midi": 43,
                    "time": 139.66652699999975,
                    "velocity": 0.7086614173228346,
                    "duration": 1.3333320000000128
                },
                {
                    "name": "E2",
                    "midi": 40,
                    "time": 141.99985799999976,
                    "velocity": 0.7086614173228346,
                    "duration": 0.3333330000000103
                },
                {
                    "name": "A2",
                    "midi": 45,
                    "time": 142.33319099999977,
                    "velocity": 0.7086614173228346,
                    "duration": 1.3333320000000128
                },
                {
                    "name": "C#2",
                    "midi": 37,
                    "time": 143.66652299999978,
                    "velocity": 0.7086614173228346,
                    "duration": 1.3333320000000128
                },
                {
                    "name": "D2",
                    "midi": 38,
                    "time": 144.9998549999998,
                    "velocity": 0.7086614173228346,
                    "duration": 0.6666659999999922
                },
                {
                    "name": "G1",
                    "midi": 31,
                    "time": 145.6665209999998,
                    "velocity": 0.7086614173228346,
                    "duration": 0.6666659999999922
                },
                {
                    "name": "A1",
                    "midi": 33,
                    "time": 146.33318699999978,
                    "velocity": 0.7086614173228346,
                    "duration": 0.6666659999999922
                },
                {
                    "name": "A1",
                    "midi": 33,
                    "time": 146.99985299999977,
                    "velocity": 0.7086614173228346,
                    "duration": 0.6666659999999922
                },
                {
                    "name": "D1",
                    "midi": 26,
                    "time": 147.66651899999977,
                    "velocity": 0.7086614173228346,
                    "duration": 1.3333320000000128
                },
                {
                    "name": "D2",
                    "midi": 38,
                    "time": 151.33318199999977,
                    "velocity": 0.7086614173228346,
                    "duration": 0.3333330000000103
                },
                {
                    "name": "G2",
                    "midi": 43,
                    "time": 151.66651499999978,
                    "velocity": 0.7086614173228346,
                    "duration": 0.9999990000000025
                },
                {
                    "name": "G2",
                    "midi": 43,
                    "time": 152.66651399999978,
                    "velocity": 0.7086614173228346,
                    "duration": 0.3333330000000103
                },
                {
                    "name": "G2",
                    "midi": 43,
                    "time": 152.9998469999998,
                    "velocity": 0.7086614173228346,
                    "duration": 1.3333320000000128
                },
                {
                    "name": "G1",
                    "midi": 31,
                    "time": 156.6665099999998,
                    "velocity": 0.7086614173228346,
                    "duration": 0.3333330000000103
                },
                {
                    "name": "A#2",
                    "midi": 46,
                    "time": 156.9998429999998,
                    "velocity": 0.7086614173228346,
                    "duration": 0.9999990000000025
                },
                {
                    "name": "A#2",
                    "midi": 46,
                    "time": 157.9998419999998,
                    "velocity": 0.7086614173228346,
                    "duration": 0.3333330000000103
                },
                {
                    "name": "A#2",
                    "midi": 46,
                    "time": 158.3331749999998,
                    "velocity": 0.7086614173228346,
                    "duration": 0.9999990000000025
                },
                {
                    "name": "G2",
                    "midi": 43,
                    "time": 159.33317399999981,
                    "velocity": 0.7086614173228346,
                    "duration": 0.3333330000000103
                },
                {
                    "name": "C#3",
                    "midi": 49,
                    "time": 159.66650699999983,
                    "velocity": 0.7086614173228346,
                    "duration": 0.9999990000000025
                },
                {
                    "name": "A2",
                    "midi": 45,
                    "time": 160.66650599999983,
                    "velocity": 0.7086614173228346,
                    "duration": 0.3333330000000103
                },
                {
                    "name": "D3",
                    "midi": 50,
                    "time": 160.99983899999984,
                    "velocity": 0.7086614173228346,
                    "duration": 1.3333320000000128
                },
                {
                    "name": "D2",
                    "midi": 38,
                    "time": 162.99983699999984,
                    "velocity": 0.7086614173228346,
                    "duration": 0.6666659999999922
                },
                {
                    "name": "G1",
                    "midi": 31,
                    "time": 163.66650299999984,
                    "velocity": 0.7086614173228346,
                    "duration": 0.6666659999999922
                },
                {
                    "name": "F1",
                    "midi": 29,
                    "time": 164.33316899999983,
                    "velocity": 0.7086614173228346,
                    "duration": 0.3333330000000103
                },
                {
                    "name": "G1",
                    "midi": 31,
                    "time": 164.66650199999984,
                    "velocity": 0.7086614173228346,
                    "duration": 0.3333330000000103
                },
                {
                    "name": "A1",
                    "midi": 33,
                    "time": 164.99983499999985,
                    "velocity": 0.7086614173228346,
                    "duration": 0.6666659999999922
                },
                {
                    "name": "A1",
                    "midi": 33,
                    "time": 165.66650099999984,
                    "velocity": 0.7086614173228346,
                    "duration": 0.6666659999999922
                },
                {
                    "name": "D1",
                    "midi": 26,
                    "time": 166.33316699999983,
                    "velocity": 0.7086614173228346,
                    "duration": 2.6666639999999973
                }
            ],
            "controlChanges": {},
            "id": 11,
            "name": "",
            "instrumentNumber": 48,
            "instrument": "string ensemble 1",
            "instrumentFamily": "ensemble",
            "channelNumber": 12,
            "isPercussion": false
        },
        {
            "startTime": 0,
            "duration": 0,
            "length": 0,
            "notes": [],
            "controlChanges": {},
            "id": 12,
            "name": "upperaa",
            "instrumentNumber": 6,
            "instrument": "harpsichord",
            "instrumentFamily": "piano",
            "channelNumber": 13,
            "isPercussion": false
        },
        {
            "startTime": 1.333332,
            "duration": 168.99983099999983,
            "length": 248,
            "notes": [
                {
                    "name": "D3",
                    "midi": 50,
                    "time": 1.333332,
                    "velocity": 0.7086614173228346,
                    "duration": 0.3333330000000001
                },
                {
                    "name": "D4",
                    "midi": 62,
                    "time": 1.666665,
                    "velocity": 0.7086614173228346,
                    "duration": 0.49999949999999993
                },
                {
                    "name": "D4",
                    "midi": 62,
                    "time": 2.1666645,
                    "velocity": 0.7086614173228346,
                    "duration": 0.16666649999999983
                },
                {
                    "name": "D4",
                    "midi": 62,
                    "time": 2.333331,
                    "velocity": 0.7086614173228346,
                    "duration": 1.333332
                },
                {
                    "name": "D3",
                    "midi": 50,
                    "time": 3.999996,
                    "velocity": 0.7086614173228346,
                    "duration": 0.3333330000000001
                },
                {
                    "name": "D4",
                    "midi": 62,
                    "time": 4.333329,
                    "velocity": 0.7086614173228346,
                    "duration": 0.4999995000000004
                },
                {
                    "name": "D4",
                    "midi": 62,
                    "time": 4.8333285,
                    "velocity": 0.7086614173228346,
                    "duration": 0.16666649999999983
                },
                {
                    "name": "F4",
                    "midi": 65,
                    "time": 4.999995,
                    "velocity": 0.7086614173228346,
                    "duration": 1.3333320000000004
                },
                {
                    "name": "D4",
                    "midi": 62,
                    "time": 6.66666,
                    "velocity": 0.7086614173228346,
                    "duration": 0.33333299999999966
                },
                {
                    "name": "A3",
                    "midi": 57,
                    "time": 6.999993,
                    "velocity": 0.7086614173228346,
                    "duration": 0.4999995000000004
                },
                {
                    "name": "D3",
                    "midi": 50,
                    "time": 7.4999925,
                    "velocity": 0.7086614173228346,
                    "duration": 0.16666649999999983
                },
                {
                    "name": "G3",
                    "midi": 55,
                    "time": 7.666659,
                    "velocity": 0.7086614173228346,
                    "duration": 0.4999995000000004
                },
                {
                    "name": "A#3",
                    "midi": 58,
                    "time": 8.1666585,
                    "velocity": 0.7086614173228346,
                    "duration": 0.16666649999999983
                },
                {
                    "name": "E3",
                    "midi": 52,
                    "time": 8.333325,
                    "velocity": 0.7086614173228346,
                    "duration": 0.4999994999999995
                },
                {
                    "name": "G3",
                    "midi": 55,
                    "time": 8.8333245,
                    "velocity": 0.7086614173228346,
                    "duration": 0.16666649999999983
                },
                {
                    "name": "C#3",
                    "midi": 49,
                    "time": 8.999991,
                    "velocity": 0.7086614173228346,
                    "duration": 0.6666659999999993
                },
                {
                    "name": "A2",
                    "midi": 45,
                    "time": 9.666656999999999,
                    "velocity": 0.7086614173228346,
                    "duration": 0.6666659999999993
                },
                {
                    "name": "D3",
                    "midi": 50,
                    "time": 10.333322999999998,
                    "velocity": 0.7086614173228346,
                    "duration": 0.6666659999999993
                },
                {
                    "name": "D2",
                    "midi": 38,
                    "time": 10.999988999999998,
                    "velocity": 0.7086614173228346,
                    "duration": 0.6666659999999993
                },
                {
                    "name": "A2",
                    "midi": 45,
                    "time": 11.666654999999997,
                    "velocity": 0.7086614173228346,
                    "duration": 1.3333320000000004
                },
                {
                    "name": "A2",
                    "midi": 45,
                    "time": 13.333319999999997,
                    "velocity": 0.7086614173228346,
                    "duration": 0.33333299999999966
                },
                {
                    "name": "A3",
                    "midi": 57,
                    "time": 13.666652999999997,
                    "velocity": 0.7086614173228346,
                    "duration": 0.4999994999999995
                },
                {
                    "name": "A3",
                    "midi": 57,
                    "time": 14.166652499999996,
                    "velocity": 0.7086614173228346,
                    "duration": 0.16666649999999983
                },
                {
                    "name": "A3",
                    "midi": 57,
                    "time": 14.333318999999996,
                    "velocity": 0.7086614173228346,
                    "duration": 0.6666659999999993
                },
                {
                    "name": "G3",
                    "midi": 55,
                    "time": 14.999984999999995,
                    "velocity": 0.7086614173228346,
                    "duration": 0.6666659999999993
                },
                {
                    "name": "F3",
                    "midi": 53,
                    "time": 15.666650999999995,
                    "velocity": 0.7086614173228346,
                    "duration": 0.6666659999999993
                },
                {
                    "name": "D3",
                    "midi": 50,
                    "time": 16.333316999999994,
                    "velocity": 0.7086614173228346,
                    "duration": 0.6666659999999993
                },
                {
                    "name": "E3",
                    "midi": 52,
                    "time": 16.999982999999993,
                    "velocity": 0.7086614173228346,
                    "duration": 0.49999950000000126
                },
                {
                    "name": "E3",
                    "midi": 52,
                    "time": 17.499982499999994,
                    "velocity": 0.7086614173228346,
                    "duration": 0.1666665000000016
                },
                {
                    "name": "E4",
                    "midi": 64,
                    "time": 17.666648999999996,
                    "velocity": 0.7086614173228346,
                    "duration": 0.49999950000000126
                },
                {
                    "name": "E4",
                    "midi": 64,
                    "time": 18.166648499999997,
                    "velocity": 0.7086614173228346,
                    "duration": 0.1666665000000016
                },
                {
                    "name": "E4",
                    "midi": 64,
                    "time": 18.333315,
                    "velocity": 0.7086614173228346,
                    "duration": 0.49999950000000126
                },
                {
                    "name": "E4",
                    "midi": 64,
                    "time": 18.8333145,
                    "velocity": 0.7086614173228346,
                    "duration": 0.05381939062500152
                },
                {
                    "name": "D4",
                    "midi": 62,
                    "time": 18.88887,
                    "velocity": 0.7086614173228346,
                    "duration": 0.05381939062500152
                },
                {
                    "name": "C4",
                    "midi": 60,
                    "time": 18.9444255,
                    "velocity": 0.7086614173228346,
                    "duration": 0.05381939062500152
                },
                {
                    "name": "D4",
                    "midi": 62,
                    "time": 18.999981000000002,
                    "velocity": 0.7086614173228346,
                    "duration": 1.1666655000000006
                },
                {
                    "name": "D4",
                    "midi": 62,
                    "time": 20.166646500000002,
                    "velocity": 0.7086614173228346,
                    "duration": 0.05381939062500152
                },
                {
                    "name": "C4",
                    "midi": 60,
                    "time": 20.222202000000003,
                    "velocity": 0.7086614173228346,
                    "duration": 0.05381939062500152
                },
                {
                    "name": "B3",
                    "midi": 59,
                    "time": 20.277757500000003,
                    "velocity": 0.7086614173228346,
                    "duration": 0.05381939062500152
                },
                {
                    "name": "C4",
                    "midi": 60,
                    "time": 20.333313000000004,
                    "velocity": 0.7086614173228346,
                    "duration": 0.49999950000000126
                },
                {
                    "name": "C4",
                    "midi": 60,
                    "time": 20.833312500000005,
                    "velocity": 0.7086614173228346,
                    "duration": 0.05381939062500152
                },
                {
                    "name": "D4",
                    "midi": 62,
                    "time": 20.888868000000006,
                    "velocity": 0.7086614173228346,
                    "duration": 0.05381939062500152
                },
                {
                    "name": "C4",
                    "midi": 60,
                    "time": 20.944423500000006,
                    "velocity": 0.7086614173228346,
                    "duration": 0.05381939062500152
                },
                {
                    "name": "B3",
                    "midi": 59,
                    "time": 20.999979000000007,
                    "velocity": 0.7086614173228346,
                    "duration": 0.6666659999999993
                },
                {
                    "name": "E4",
                    "midi": 64,
                    "time": 21.666645000000006,
                    "velocity": 0.7086614173228346,
                    "duration": 0.6666659999999993
                },
                {
                    "name": "A3",
                    "midi": 57,
                    "time": 22.333311000000005,
                    "velocity": 0.7086614173228346,
                    "duration": 0.49999950000000126
                },
                {
                    "name": "A2",
                    "midi": 45,
                    "time": 22.833310500000007,
                    "velocity": 0.7086614173228346,
                    "duration": 0.1666665000000016
                },
                {
                    "name": "D3",
                    "midi": 50,
                    "time": 22.99997700000001,
                    "velocity": 0.7086614173228346,
                    "duration": 0.49999950000000126
                },
                {
                    "name": "D3",
                    "midi": 50,
                    "time": 23.49997650000001,
                    "velocity": 0.7086614173228346,
                    "duration": 0.1666665000000016
                },
                {
                    "name": "D3",
                    "midi": 50,
                    "time": 23.66664300000001,
                    "velocity": 0.7086614173228346,
                    "duration": 1.3333319999999986
                },
                {
                    "name": "D3",
                    "midi": 50,
                    "time": 25.33330800000001,
                    "velocity": 0.7086614173228346,
                    "duration": 0.33333299999999966
                },
                {
                    "name": "B3",
                    "midi": 59,
                    "time": 25.66664100000001,
                    "velocity": 0.7086614173228346,
                    "duration": 0.49999950000000126
                },
                {
                    "name": "B3",
                    "midi": 59,
                    "time": 26.16664050000001,
                    "velocity": 0.7086614173228346,
                    "duration": 0.1666665000000016
                },
                {
                    "name": "D4",
                    "midi": 62,
                    "time": 26.333307000000012,
                    "velocity": 0.7086614173228346,
                    "duration": 1.3333319999999986
                },
                {
                    "name": "D3",
                    "midi": 50,
                    "time": 27.99997200000001,
                    "velocity": 0.7086614173228346,
                    "duration": 0.33333299999999966
                },
                {
                    "name": "B3",
                    "midi": 59,
                    "time": 28.33330500000001,
                    "velocity": 0.7086614173228346,
                    "duration": 0.49999950000000126
                },
                {
                    "name": "B3",
                    "midi": 59,
                    "time": 28.83330450000001,
                    "velocity": 0.7086614173228346,
                    "duration": 0.1666665000000016
                },
                {
                    "name": "G#2",
                    "midi": 44,
                    "time": 28.999971000000013,
                    "velocity": 0.7086614173228346,
                    "duration": 1.3333319999999986
                },
                {
                    "name": "E3",
                    "midi": 52,
                    "time": 30.66663600000001,
                    "velocity": 0.7086614173228346,
                    "duration": 0.33333299999999966
                },
                {
                    "name": "E3",
                    "midi": 52,
                    "time": 30.99996900000001,
                    "velocity": 0.7086614173228346,
                    "duration": 0.49999950000000126
                },
                {
                    "name": "F#3",
                    "midi": 54,
                    "time": 31.499968500000012,
                    "velocity": 0.7086614173228346,
                    "duration": 0.1666665000000016
                },
                {
                    "name": "G#3",
                    "midi": 56,
                    "time": 31.666635000000014,
                    "velocity": 0.7086614173228346,
                    "duration": 0.49999950000000126
                },
                {
                    "name": "A3",
                    "midi": 57,
                    "time": 32.166634500000015,
                    "velocity": 0.7086614173228346,
                    "duration": 0.16666649999999805
                },
                {
                    "name": "B3",
                    "midi": 59,
                    "time": 32.33330100000001,
                    "velocity": 0.7086614173228346,
                    "duration": 0.49999950000000126
                },
                {
                    "name": "G#3",
                    "midi": 56,
                    "time": 32.833300500000014,
                    "velocity": 0.7086614173228346,
                    "duration": 0.16666649999999805
                },
                {
                    "name": "A3",
                    "midi": 57,
                    "time": 32.99996700000001,
                    "velocity": 0.7086614173228346,
                    "duration": 0.6666659999999993
                },
                {
                    "name": "C3",
                    "midi": 48,
                    "time": 33.66663300000001,
                    "velocity": 0.7086614173228346,
                    "duration": 0.49999950000000126
                },
                {
                    "name": "D3",
                    "midi": 50,
                    "time": 34.16663250000001,
                    "velocity": 0.7086614173228346,
                    "duration": 0.16666649999999805
                },
                {
                    "name": "E3",
                    "midi": 52,
                    "time": 34.33329900000001,
                    "velocity": 0.7086614173228346,
                    "duration": 0.6666659999999993
                },
                {
                    "name": "E2",
                    "midi": 40,
                    "time": 34.99996500000001,
                    "velocity": 0.7086614173228346,
                    "duration": 0.6666659999999993
                },
                {
                    "name": "A2",
                    "midi": 45,
                    "time": 35.66663100000001,
                    "velocity": 0.7086614173228346,
                    "duration": 0.49999950000000126
                },
                {
                    "name": "A3",
                    "midi": 57,
                    "time": 36.16663050000001,
                    "velocity": 0.7086614173228346,
                    "duration": 0.16666649999999805
                },
                {
                    "name": "A2",
                    "midi": 45,
                    "time": 36.33329700000001,
                    "velocity": 0.7086614173228346,
                    "duration": 0.49999950000000126
                },
                {
                    "name": "A2",
                    "midi": 45,
                    "time": 36.83329650000001,
                    "velocity": 0.7086614173228346,
                    "duration": 0.16666649999999805
                },
                {
                    "name": "D2",
                    "midi": 38,
                    "time": 36.99996300000001,
                    "velocity": 0.7086614173228346,
                    "duration": 1.3333319999999986
                },
                {
                    "name": "A2",
                    "midi": 45,
                    "time": 38.33329500000001,
                    "velocity": 0.7086614173228346,
                    "duration": 2.6666639999999973
                },
                {
                    "name": "D4",
                    "midi": 62,
                    "time": 57.333276000000005,
                    "velocity": 0.7086614173228346,
                    "duration": 0.3333330000000032
                },
                {
                    "name": "D4",
                    "midi": 62,
                    "time": 57.66660900000001,
                    "velocity": 0.7086614173228346,
                    "duration": 0.3333330000000032
                },
                {
                    "name": "C4",
                    "midi": 60,
                    "time": 57.99994200000001,
                    "velocity": 0.7086614173228346,
                    "duration": 0.3333330000000032
                },
                {
                    "name": "A#3",
                    "midi": 58,
                    "time": 58.333275000000015,
                    "velocity": 0.7086614173228346,
                    "duration": 0.3333330000000032
                },
                {
                    "name": "A#3",
                    "midi": 58,
                    "time": 58.66660800000002,
                    "velocity": 0.7086614173228346,
                    "duration": 0.3333330000000032
                },
                {
                    "name": "A#3",
                    "midi": 58,
                    "time": 58.99994100000002,
                    "velocity": 0.7086614173228346,
                    "duration": 0.3333330000000032
                },
                {
                    "name": "A3",
                    "midi": 57,
                    "time": 59.333274000000024,
                    "velocity": 0.7086614173228346,
                    "duration": 0.3333330000000032
                },
                {
                    "name": "G3",
                    "midi": 55,
                    "time": 59.66660700000003,
                    "velocity": 0.7086614173228346,
                    "duration": 0.3333330000000032
                },
                {
                    "name": "G3",
                    "midi": 55,
                    "time": 59.99994000000003,
                    "velocity": 0.7086614173228346,
                    "duration": 0.3333330000000032
                },
                {
                    "name": "G3",
                    "midi": 55,
                    "time": 60.333273000000034,
                    "velocity": 0.7086614173228346,
                    "duration": 0.3333330000000032
                },
                {
                    "name": "F3",
                    "midi": 53,
                    "time": 60.66660600000004,
                    "velocity": 0.7086614173228346,
                    "duration": 0.3333330000000032
                },
                {
                    "name": "E3",
                    "midi": 52,
                    "time": 60.99993900000004,
                    "velocity": 0.7086614173228346,
                    "duration": 0.3333330000000032
                },
                {
                    "name": "E3",
                    "midi": 52,
                    "time": 61.33327200000004,
                    "velocity": 0.7086614173228346,
                    "duration": 0.3333330000000032
                },
                {
                    "name": "E3",
                    "midi": 52,
                    "time": 61.66660500000005,
                    "velocity": 0.7086614173228346,
                    "duration": 0.3333330000000032
                },
                {
                    "name": "D3",
                    "midi": 50,
                    "time": 61.99993800000005,
                    "velocity": 0.7086614173228346,
                    "duration": 0.3333330000000032
                },
                {
                    "name": "C#3",
                    "midi": 49,
                    "time": 62.33327100000005,
                    "velocity": 0.7086614173228346,
                    "duration": 0.6666659999999993
                },
                {
                    "name": "A2",
                    "midi": 45,
                    "time": 62.99993700000005,
                    "velocity": 0.7086614173228346,
                    "duration": 0.6666659999999993
                },
                {
                    "name": "D3",
                    "midi": 50,
                    "time": 63.66660300000005,
                    "velocity": 0.7086614173228346,
                    "duration": 0.6666660000000064
                },
                {
                    "name": "D2",
                    "midi": 38,
                    "time": 64.33326900000006,
                    "velocity": 0.7086614173228346,
                    "duration": 0.6666660000000064
                },
                {
                    "name": "A2",
                    "midi": 45,
                    "time": 64.99993500000006,
                    "velocity": 0.7086614173228346,
                    "duration": 0.3333329999999961
                },
                {
                    "name": "A3",
                    "midi": 57,
                    "time": 65.33326800000006,
                    "velocity": 0.7086614173228346,
                    "duration": 0.3333329999999961
                },
                {
                    "name": "A3",
                    "midi": 57,
                    "time": 65.66660100000006,
                    "velocity": 0.7086614173228346,
                    "duration": 0.3333329999999961
                },
                {
                    "name": "G3",
                    "midi": 55,
                    "time": 65.99993400000005,
                    "velocity": 0.7086614173228346,
                    "duration": 0.3333329999999961
                },
                {
                    "name": "F#3",
                    "midi": 54,
                    "time": 66.33326700000005,
                    "velocity": 0.7086614173228346,
                    "duration": 0.3333329999999961
                },
                {
                    "name": "F#3",
                    "midi": 54,
                    "time": 66.66660000000005,
                    "velocity": 0.7086614173228346,
                    "duration": 0.3333329999999961
                },
                {
                    "name": "F#3",
                    "midi": 54,
                    "time": 66.99993300000004,
                    "velocity": 0.7086614173228346,
                    "duration": 0.3333329999999961
                },
                {
                    "name": "E3",
                    "midi": 52,
                    "time": 67.33326600000004,
                    "velocity": 0.7086614173228346,
                    "duration": 0.3333329999999961
                },
                {
                    "name": "D3",
                    "midi": 50,
                    "time": 67.66659900000003,
                    "velocity": 0.7086614173228346,
                    "duration": 0.3333329999999961
                },
                {
                    "name": "D3",
                    "midi": 50,
                    "time": 67.99993200000003,
                    "velocity": 0.7086614173228346,
                    "duration": 0.3333329999999961
                },
                {
                    "name": "D3",
                    "midi": 50,
                    "time": 68.33326500000003,
                    "velocity": 0.7086614173228346,
                    "duration": 0.3333329999999961
                },
                {
                    "name": "C3",
                    "midi": 48,
                    "time": 68.66659800000002,
                    "velocity": 0.7086614173228346,
                    "duration": 0.3333329999999961
                },
                {
                    "name": "A#2",
                    "midi": 46,
                    "time": 68.99993100000002,
                    "velocity": 0.7086614173228346,
                    "duration": 0.3333329999999961
                },
                {
                    "name": "A#2",
                    "midi": 46,
                    "time": 69.33326400000001,
                    "velocity": 0.7086614173228346,
                    "duration": 0.3333329999999961
                },
                {
                    "name": "A#2",
                    "midi": 46,
                    "time": 69.66659700000001,
                    "velocity": 0.7086614173228346,
                    "duration": 0.3333329999999961
                },
                {
                    "name": "A2",
                    "midi": 45,
                    "time": 69.99993,
                    "velocity": 0.7086614173228346,
                    "duration": 0.3333329999999961
                },
                {
                    "name": "G2",
                    "midi": 43,
                    "time": 70.333263,
                    "velocity": 0.7086614173228346,
                    "duration": 0.3333329999999961
                },
                {
                    "name": "G3",
                    "midi": 55,
                    "time": 70.666596,
                    "velocity": 0.7086614173228346,
                    "duration": 0.3333329999999961
                },
                {
                    "name": "G3",
                    "midi": 55,
                    "time": 70.999929,
                    "velocity": 0.7086614173228346,
                    "duration": 0.3333329999999961
                },
                {
                    "name": "F3",
                    "midi": 53,
                    "time": 71.33326199999999,
                    "velocity": 0.7086614173228346,
                    "duration": 0.3333329999999961
                },
                {
                    "name": "E3",
                    "midi": 52,
                    "time": 71.66659499999999,
                    "velocity": 0.7086614173228346,
                    "duration": 0.3333329999999961
                },
                {
                    "name": "E3",
                    "midi": 52,
                    "time": 71.99992799999998,
                    "velocity": 0.7086614173228346,
                    "duration": 0.3333329999999961
                },
                {
                    "name": "E3",
                    "midi": 52,
                    "time": 72.33326099999998,
                    "velocity": 0.7086614173228346,
                    "duration": 0.3333329999999961
                },
                {
                    "name": "D3",
                    "midi": 50,
                    "time": 72.66659399999998,
                    "velocity": 0.7086614173228346,
                    "duration": 0.3333329999999961
                },
                {
                    "name": "C3",
                    "midi": 48,
                    "time": 72.99992699999997,
                    "velocity": 0.7086614173228346,
                    "duration": 0.3333329999999961
                },
                {
                    "name": "C3",
                    "midi": 48,
                    "time": 73.33325999999997,
                    "velocity": 0.7086614173228346,
                    "duration": 0.3333329999999961
                },
                {
                    "name": "C3",
                    "midi": 48,
                    "time": 73.66659299999996,
                    "velocity": 0.7086614173228346,
                    "duration": 0.3333329999999961
                },
                {
                    "name": "A#2",
                    "midi": 46,
                    "time": 73.99992599999996,
                    "velocity": 0.7086614173228346,
                    "duration": 0.3333329999999961
                },
                {
                    "name": "A2",
                    "midi": 45,
                    "time": 74.33325899999996,
                    "velocity": 0.7086614173228346,
                    "duration": 0.3333329999999961
                },
                {
                    "name": "A2",
                    "midi": 45,
                    "time": 74.66659199999995,
                    "velocity": 0.7086614173228346,
                    "duration": 0.3333329999999961
                },
                {
                    "name": "A2",
                    "midi": 45,
                    "time": 74.99992499999995,
                    "velocity": 0.7086614173228346,
                    "duration": 0.3333329999999961
                },
                {
                    "name": "G2",
                    "midi": 43,
                    "time": 75.33325799999994,
                    "velocity": 0.7086614173228346,
                    "duration": 0.3333329999999961
                },
                {
                    "name": "F2",
                    "midi": 41,
                    "time": 75.66659099999994,
                    "velocity": 0.7086614173228346,
                    "duration": 0.3333329999999961
                },
                {
                    "name": "F3",
                    "midi": 53,
                    "time": 75.99992399999994,
                    "velocity": 0.7086614173228346,
                    "duration": 0.3333329999999961
                },
                {
                    "name": "F3",
                    "midi": 53,
                    "time": 76.33325699999993,
                    "velocity": 0.7086614173228346,
                    "duration": 0.3333329999999961
                },
                {
                    "name": "D#3",
                    "midi": 51,
                    "time": 76.66658999999993,
                    "velocity": 0.7086614173228346,
                    "duration": 0.3333329999999961
                },
                {
                    "name": "D3",
                    "midi": 50,
                    "time": 76.99992299999992,
                    "velocity": 0.7086614173228346,
                    "duration": 0.3333329999999961
                },
                {
                    "name": "D3",
                    "midi": 50,
                    "time": 77.33325599999992,
                    "velocity": 0.7086614173228346,
                    "duration": 0.3333329999999961
                },
                {
                    "name": "D3",
                    "midi": 50,
                    "time": 77.66658899999992,
                    "velocity": 0.7086614173228346,
                    "duration": 0.3333329999999961
                },
                {
                    "name": "C3",
                    "midi": 48,
                    "time": 77.99992199999991,
                    "velocity": 0.7086614173228346,
                    "duration": 0.3333329999999961
                },
                {
                    "name": "A#2",
                    "midi": 46,
                    "time": 78.33325499999991,
                    "velocity": 0.7086614173228346,
                    "duration": 0.3333329999999961
                },
                {
                    "name": "A#2",
                    "midi": 46,
                    "time": 78.6665879999999,
                    "velocity": 0.7086614173228346,
                    "duration": 0.3333329999999961
                },
                {
                    "name": "A#2",
                    "midi": 46,
                    "time": 78.9999209999999,
                    "velocity": 0.7086614173228346,
                    "duration": 0.3333329999999961
                },
                {
                    "name": "A2",
                    "midi": 45,
                    "time": 79.3332539999999,
                    "velocity": 0.7086614173228346,
                    "duration": 0.3333329999999961
                },
                {
                    "name": "G2",
                    "midi": 43,
                    "time": 79.6665869999999,
                    "velocity": 0.7086614173228346,
                    "duration": 0.3333329999999961
                },
                {
                    "name": "G2",
                    "midi": 43,
                    "time": 79.99991999999989,
                    "velocity": 0.7086614173228346,
                    "duration": 0.3333329999999961
                },
                {
                    "name": "G2",
                    "midi": 43,
                    "time": 80.33325299999989,
                    "velocity": 0.7086614173228346,
                    "duration": 0.3333329999999961
                },
                {
                    "name": "F2",
                    "midi": 41,
                    "time": 80.66658599999988,
                    "velocity": 0.7086614173228346,
                    "duration": 0.3333329999999961
                },
                {
                    "name": "C3",
                    "midi": 48,
                    "time": 80.99991899999988,
                    "velocity": 0.7086614173228346,
                    "duration": 0.6666660000000064
                },
                {
                    "name": "F2",
                    "midi": 41,
                    "time": 86.66657999999988,
                    "velocity": 0.7086614173228346,
                    "duration": 0.3333329999999961
                },
                {
                    "name": "F2",
                    "midi": 41,
                    "time": 86.99991299999988,
                    "velocity": 0.7086614173228346,
                    "duration": 0.3333329999999961
                },
                {
                    "name": "G2",
                    "midi": 43,
                    "time": 87.33324599999987,
                    "velocity": 0.7086614173228346,
                    "duration": 0.3333329999999961
                },
                {
                    "name": "A2",
                    "midi": 45,
                    "time": 87.66657899999987,
                    "velocity": 0.7086614173228346,
                    "duration": 0.3333329999999961
                },
                {
                    "name": "A2",
                    "midi": 45,
                    "time": 87.99991199999987,
                    "velocity": 0.7086614173228346,
                    "duration": 0.3333329999999961
                },
                {
                    "name": "A2",
                    "midi": 45,
                    "time": 88.33324499999986,
                    "velocity": 0.7086614173228346,
                    "duration": 0.3333329999999961
                },
                {
                    "name": "F2",
                    "midi": 41,
                    "time": 88.66657799999986,
                    "velocity": 0.7086614173228346,
                    "duration": 0.3333329999999961
                },
                {
                    "name": "A#2",
                    "midi": 46,
                    "time": 88.99991099999986,
                    "velocity": 0.7086614173228346,
                    "duration": 0.3333329999999961
                },
                {
                    "name": "A#2",
                    "midi": 46,
                    "time": 89.33324399999985,
                    "velocity": 0.7086614173228346,
                    "duration": 0.3333329999999961
                },
                {
                    "name": "A#2",
                    "midi": 46,
                    "time": 89.66657699999985,
                    "velocity": 0.7086614173228346,
                    "duration": 0.3333329999999961
                },
                {
                    "name": "C3",
                    "midi": 48,
                    "time": 89.99990999999984,
                    "velocity": 0.7086614173228346,
                    "duration": 0.3333329999999961
                },
                {
                    "name": "D3",
                    "midi": 50,
                    "time": 90.33324299999984,
                    "velocity": 0.7086614173228346,
                    "duration": 0.3333329999999961
                },
                {
                    "name": "D3",
                    "midi": 50,
                    "time": 90.66657599999984,
                    "velocity": 0.7086614173228346,
                    "duration": 0.3333329999999961
                },
                {
                    "name": "E3",
                    "midi": 52,
                    "time": 90.99990899999983,
                    "velocity": 0.7086614173228346,
                    "duration": 0.3333329999999961
                },
                {
                    "name": "F3",
                    "midi": 53,
                    "time": 91.33324199999983,
                    "velocity": 0.7086614173228346,
                    "duration": 0.3333329999999961
                },
                {
                    "name": "E3",
                    "midi": 52,
                    "time": 91.66657499999982,
                    "velocity": 0.7086614173228346,
                    "duration": 0.3333329999999961
                },
                {
                    "name": "C3",
                    "midi": 48,
                    "time": 91.99990799999982,
                    "velocity": 0.7086614173228346,
                    "duration": 0.3333329999999961
                },
                {
                    "name": "F3",
                    "midi": 53,
                    "time": 92.33324099999982,
                    "velocity": 0.7086614173228346,
                    "duration": 0.3333329999999961
                },
                {
                    "name": "A#2",
                    "midi": 46,
                    "time": 92.66657399999981,
                    "velocity": 0.7086614173228346,
                    "duration": 0.3333329999999961
                },
                {
                    "name": "C3",
                    "midi": 48,
                    "time": 92.99990699999981,
                    "velocity": 0.7086614173228346,
                    "duration": 0.6666660000000064
                },
                {
                    "name": "C2",
                    "midi": 36,
                    "time": 93.66657299999981,
                    "velocity": 0.7086614173228346,
                    "duration": 0.6666660000000064
                },
                {
                    "name": "F2",
                    "midi": 41,
                    "time": 94.33323899999982,
                    "velocity": 0.7086614173228346,
                    "duration": 0.6666660000000064
                },
                {
                    "name": "C3",
                    "midi": 48,
                    "time": 97.33323599999983,
                    "velocity": 0.7086614173228346,
                    "duration": 0.3333329999999961
                },
                {
                    "name": "C3",
                    "midi": 48,
                    "time": 97.66656899999982,
                    "velocity": 0.7086614173228346,
                    "duration": 0.3333329999999961
                },
                {
                    "name": "C3",
                    "midi": 48,
                    "time": 97.99990199999982,
                    "velocity": 0.7086614173228346,
                    "duration": 0.3333329999999961
                },
                {
                    "name": "A#2",
                    "midi": 46,
                    "time": 98.33323499999982,
                    "velocity": 0.7086614173228346,
                    "duration": 0.3333329999999961
                },
                {
                    "name": "A#2",
                    "midi": 46,
                    "time": 98.66656799999981,
                    "velocity": 0.7086614173228346,
                    "duration": 0.3333329999999961
                },
                {
                    "name": "A#2",
                    "midi": 46,
                    "time": 98.99990099999981,
                    "velocity": 0.7086614173228346,
                    "duration": 0.3333329999999961
                },
                {
                    "name": "A2",
                    "midi": 45,
                    "time": 99.3332339999998,
                    "velocity": 0.7086614173228346,
                    "duration": 0.3333329999999961
                },
                {
                    "name": "G2",
                    "midi": 43,
                    "time": 99.6665669999998,
                    "velocity": 0.7086614173228346,
                    "duration": 0.6666660000000064
                },
                {
                    "name": "D3",
                    "midi": 50,
                    "time": 102.66656399999981,
                    "velocity": 0.7086614173228346,
                    "duration": 0.3333329999999961
                },
                {
                    "name": "D3",
                    "midi": 50,
                    "time": 102.9998969999998,
                    "velocity": 0.7086614173228346,
                    "duration": 0.3333329999999961
                },
                {
                    "name": "C3",
                    "midi": 48,
                    "time": 103.3332299999998,
                    "velocity": 0.7086614173228346,
                    "duration": 0.3333329999999961
                },
                {
                    "name": "A#2",
                    "midi": 46,
                    "time": 103.6665629999998,
                    "velocity": 0.7086614173228346,
                    "duration": 0.3333329999999961
                },
                {
                    "name": "A#2",
                    "midi": 46,
                    "time": 103.9998959999998,
                    "velocity": 0.7086614173228346,
                    "duration": 0.3333329999999961
                },
                {
                    "name": "A#2",
                    "midi": 46,
                    "time": 104.33322899999979,
                    "velocity": 0.7086614173228346,
                    "duration": 0.3333329999999961
                },
                {
                    "name": "G2",
                    "midi": 43,
                    "time": 104.66656199999979,
                    "velocity": 0.7086614173228346,
                    "duration": 0.3333329999999961
                },
                {
                    "name": "A2",
                    "midi": 45,
                    "time": 104.99989499999978,
                    "velocity": 0.7086614173228346,
                    "duration": 1.3333319999999986
                },
                {
                    "name": "A2",
                    "midi": 45,
                    "time": 113.33321999999978,
                    "velocity": 0.7086614173228346,
                    "duration": 0.3333329999999961
                },
                {
                    "name": "A2",
                    "midi": 45,
                    "time": 113.66655299999978,
                    "velocity": 0.7086614173228346,
                    "duration": 0.3333329999999961
                },
                {
                    "name": "B2",
                    "midi": 47,
                    "time": 113.99988599999978,
                    "velocity": 0.7086614173228346,
                    "duration": 0.3333329999999961
                },
                {
                    "name": "C#3",
                    "midi": 49,
                    "time": 114.33321899999977,
                    "velocity": 0.7086614173228346,
                    "duration": 0.3333329999999961
                },
                {
                    "name": "C#3",
                    "midi": 49,
                    "time": 114.66655199999977,
                    "velocity": 0.7086614173228346,
                    "duration": 0.3333329999999961
                },
                {
                    "name": "C#3",
                    "midi": 49,
                    "time": 114.99988499999976,
                    "velocity": 0.7086614173228346,
                    "duration": 0.3333329999999961
                },
                {
                    "name": "D3",
                    "midi": 50,
                    "time": 115.33321799999976,
                    "velocity": 0.7086614173228346,
                    "duration": 0.3333329999999961
                },
                {
                    "name": "E3",
                    "midi": 52,
                    "time": 115.66655099999976,
                    "velocity": 0.7086614173228346,
                    "duration": 0.3333329999999961
                },
                {
                    "name": "E3",
                    "midi": 52,
                    "time": 115.99988399999975,
                    "velocity": 0.7086614173228346,
                    "duration": 0.3333329999999961
                },
                {
                    "name": "E3",
                    "midi": 52,
                    "time": 116.33321699999975,
                    "velocity": 0.7086614173228346,
                    "duration": 0.3333329999999961
                },
                {
                    "name": "F3",
                    "midi": 53,
                    "time": 116.66654999999975,
                    "velocity": 0.7086614173228346,
                    "duration": 0.3333329999999961
                },
                {
                    "name": "G3",
                    "midi": 55,
                    "time": 116.99988299999974,
                    "velocity": 0.7086614173228346,
                    "duration": 0.3333329999999961
                },
                {
                    "name": "G3",
                    "midi": 55,
                    "time": 117.33321599999974,
                    "velocity": 0.7086614173228346,
                    "duration": 0.3333329999999961
                },
                {
                    "name": "F3",
                    "midi": 53,
                    "time": 117.66654899999973,
                    "velocity": 0.7086614173228346,
                    "duration": 0.3333329999999961
                },
                {
                    "name": "E3",
                    "midi": 52,
                    "time": 117.99988199999973,
                    "velocity": 0.7086614173228346,
                    "duration": 0.3333329999999961
                },
                {
                    "name": "F3",
                    "midi": 53,
                    "time": 118.33321499999973,
                    "velocity": 0.7086614173228346,
                    "duration": 1.3333319999999986
                },
                {
                    "name": "F3",
                    "midi": 53,
                    "time": 119.99987999999972,
                    "velocity": 0.7086614173228346,
                    "duration": 0.3333329999999961
                },
                {
                    "name": "E3",
                    "midi": 52,
                    "time": 120.33321299999972,
                    "velocity": 0.7086614173228346,
                    "duration": 0.3333329999999961
                },
                {
                    "name": "D3",
                    "midi": 50,
                    "time": 120.66654599999971,
                    "velocity": 0.7086614173228346,
                    "duration": 0.3333329999999961
                },
                {
                    "name": "E3",
                    "midi": 52,
                    "time": 120.99987899999971,
                    "velocity": 0.7086614173228346,
                    "duration": 0.3333329999999961
                },
                {
                    "name": "E3",
                    "midi": 52,
                    "time": 121.3332119999997,
                    "velocity": 0.7086614173228346,
                    "duration": 0.3333329999999961
                },
                {
                    "name": "F#3",
                    "midi": 54,
                    "time": 121.6665449999997,
                    "velocity": 0.7086614173228346,
                    "duration": 0.3333329999999961
                },
                {
                    "name": "G#3",
                    "midi": 56,
                    "time": 121.9998779999997,
                    "velocity": 0.7086614173228346,
                    "duration": 0.3333329999999961
                },
                {
                    "name": "A3",
                    "midi": 57,
                    "time": 122.3332109999997,
                    "velocity": 0.7086614173228346,
                    "duration": 0.3333329999999961
                },
                {
                    "name": "A3",
                    "midi": 57,
                    "time": 122.66654399999969,
                    "velocity": 0.7086614173228346,
                    "duration": 0.3333329999999961
                },
                {
                    "name": "B3",
                    "midi": 59,
                    "time": 122.99987699999969,
                    "velocity": 0.7086614173228346,
                    "duration": 0.3333329999999961
                },
                {
                    "name": "C4",
                    "midi": 60,
                    "time": 123.33320999999968,
                    "velocity": 0.7086614173228346,
                    "duration": 0.3333329999999961
                },
                {
                    "name": "D3",
                    "midi": 50,
                    "time": 123.66654299999968,
                    "velocity": 0.7086614173228346,
                    "duration": 1.3333319999999986
                },
                {
                    "name": "E3",
                    "midi": 52,
                    "time": 124.99987499999968,
                    "velocity": 0.7086614173228346,
                    "duration": 0.6666660000000064
                },
                {
                    "name": "E2",
                    "midi": 40,
                    "time": 125.66654099999968,
                    "velocity": 0.7086614173228346,
                    "duration": 0.6666660000000064
                },
                {
                    "name": "A2",
                    "midi": 45,
                    "time": 126.33320699999969,
                    "velocity": 0.7086614173228346,
                    "duration": 1.3333319999999986
                },
                {
                    "name": "A3",
                    "midi": 57,
                    "time": 132.6665339999997,
                    "velocity": 0.7086614173228346,
                    "duration": 0.3333330000000103
                },
                {
                    "name": "D4",
                    "midi": 62,
                    "time": 132.9998669999997,
                    "velocity": 0.7086614173228346,
                    "duration": 0.9999990000000025
                },
                {
                    "name": "D4",
                    "midi": 62,
                    "time": 133.9998659999997,
                    "velocity": 0.7086614173228346,
                    "duration": 0.3333330000000103
                },
                {
                    "name": "D4",
                    "midi": 62,
                    "time": 134.33319899999972,
                    "velocity": 0.7086614173228346,
                    "duration": 1.3333320000000128
                },
                {
                    "name": "D3",
                    "midi": 50,
                    "time": 137.99986199999972,
                    "velocity": 0.7086614173228346,
                    "duration": 0.3333330000000103
                },
                {
                    "name": "G3",
                    "midi": 55,
                    "time": 138.33319499999973,
                    "velocity": 0.7086614173228346,
                    "duration": 0.9999990000000025
                },
                {
                    "name": "G3",
                    "midi": 55,
                    "time": 139.33319399999974,
                    "velocity": 0.7086614173228346,
                    "duration": 0.3333330000000103
                },
                {
                    "name": "G3",
                    "midi": 55,
                    "time": 139.66652699999975,
                    "velocity": 0.7086614173228346,
                    "duration": 1.3333320000000128
                },
                {
                    "name": "E3",
                    "midi": 52,
                    "time": 141.99985799999976,
                    "velocity": 0.7086614173228346,
                    "duration": 0.3333330000000103
                },
                {
                    "name": "A3",
                    "midi": 57,
                    "time": 142.33319099999977,
                    "velocity": 0.7086614173228346,
                    "duration": 1.3333320000000128
                },
                {
                    "name": "C#3",
                    "midi": 49,
                    "time": 143.66652299999978,
                    "velocity": 0.7086614173228346,
                    "duration": 1.3333320000000128
                },
                {
                    "name": "D3",
                    "midi": 50,
                    "time": 144.9998549999998,
                    "velocity": 0.7086614173228346,
                    "duration": 0.6666659999999922
                },
                {
                    "name": "G2",
                    "midi": 43,
                    "time": 145.6665209999998,
                    "velocity": 0.7086614173228346,
                    "duration": 0.6666659999999922
                },
                {
                    "name": "A2",
                    "midi": 45,
                    "time": 146.33318699999978,
                    "velocity": 0.7086614173228346,
                    "duration": 0.6666659999999922
                },
                {
                    "name": "A2",
                    "midi": 45,
                    "time": 146.99985299999977,
                    "velocity": 0.7086614173228346,
                    "duration": 0.6666659999999922
                },
                {
                    "name": "D2",
                    "midi": 38,
                    "time": 147.66651899999977,
                    "velocity": 0.7086614173228346,
                    "duration": 1.3333320000000128
                },
                {
                    "name": "D3",
                    "midi": 50,
                    "time": 151.33318199999977,
                    "velocity": 0.7086614173228346,
                    "duration": 0.3333330000000103
                },
                {
                    "name": "G3",
                    "midi": 55,
                    "time": 151.66651499999978,
                    "velocity": 0.7086614173228346,
                    "duration": 0.9999990000000025
                },
                {
                    "name": "G3",
                    "midi": 55,
                    "time": 152.66651399999978,
                    "velocity": 0.7086614173228346,
                    "duration": 0.3333330000000103
                },
                {
                    "name": "G3",
                    "midi": 55,
                    "time": 152.9998469999998,
                    "velocity": 0.7086614173228346,
                    "duration": 1.3333320000000128
                },
                {
                    "name": "G2",
                    "midi": 43,
                    "time": 156.6665099999998,
                    "velocity": 0.7086614173228346,
                    "duration": 0.3333330000000103
                },
                {
                    "name": "A#3",
                    "midi": 58,
                    "time": 156.9998429999998,
                    "velocity": 0.7086614173228346,
                    "duration": 0.9999990000000025
                },
                {
                    "name": "A#3",
                    "midi": 58,
                    "time": 157.9998419999998,
                    "velocity": 0.7086614173228346,
                    "duration": 0.3333330000000103
                },
                {
                    "name": "A#3",
                    "midi": 58,
                    "time": 158.3331749999998,
                    "velocity": 0.7086614173228346,
                    "duration": 0.9999990000000025
                },
                {
                    "name": "G3",
                    "midi": 55,
                    "time": 159.33317399999981,
                    "velocity": 0.7086614173228346,
                    "duration": 0.3333330000000103
                },
                {
                    "name": "C#4",
                    "midi": 61,
                    "time": 159.66650699999983,
                    "velocity": 0.7086614173228346,
                    "duration": 0.9999990000000025
                },
                {
                    "name": "A3",
                    "midi": 57,
                    "time": 160.66650599999983,
                    "velocity": 0.7086614173228346,
                    "duration": 0.3333330000000103
                },
                {
                    "name": "D4",
                    "midi": 62,
                    "time": 160.99983899999984,
                    "velocity": 0.7086614173228346,
                    "duration": 1.3333320000000128
                },
                {
                    "name": "D3",
                    "midi": 50,
                    "time": 162.99983699999984,
                    "velocity": 0.7086614173228346,
                    "duration": 0.6666659999999922
                },
                {
                    "name": "G2",
                    "midi": 43,
                    "time": 163.66650299999984,
                    "velocity": 0.7086614173228346,
                    "duration": 0.6666659999999922
                },
                {
                    "name": "F2",
                    "midi": 41,
                    "time": 164.33316899999983,
                    "velocity": 0.7086614173228346,
                    "duration": 0.3333330000000103
                },
                {
                    "name": "G2",
                    "midi": 43,
                    "time": 164.66650199999984,
                    "velocity": 0.7086614173228346,
                    "duration": 0.3333330000000103
                },
                {
                    "name": "A2",
                    "midi": 45,
                    "time": 164.99983499999985,
                    "velocity": 0.7086614173228346,
                    "duration": 0.6666659999999922
                },
                {
                    "name": "A2",
                    "midi": 45,
                    "time": 165.66650099999984,
                    "velocity": 0.7086614173228346,
                    "duration": 0.6666659999999922
                },
                {
                    "name": "D2",
                    "midi": 38,
                    "time": 166.33316699999983,
                    "velocity": 0.7086614173228346,
                    "duration": 2.6666639999999973
                }
            ],
            "controlChanges": {},
            "id": 13,
            "name": "loweraa",
            "instrumentNumber": 6,
            "instrument": "harpsichord",
            "instrumentFamily": "piano",
            "channelNumber": 14,
            "isPercussion": false
        }
    ]
}