{
    "header": {
        "PPQ": 1024,
        "timeSignature": [
            3,
            4
        ],
        "bpm": 112.00005973336519,
        "name": ""
    },
    "startTime": 0,
    "duration": 271.5306169023439,
    "tracks": [
        {
            "startTime": 0,
            "duration": 0,
            "length": 0,
            "notes": [],
            "controlChanges": {},
            "id": 0
        },
        {
            "startTime": 0.288783328125,
            "duration": 271.5306169023439,
            "length": 2954,
            "notes": [
                {
                    "name": "G4",
                    "midi": 67,
                    "time": 0.288783328125,
                    "velocity": 0.8818897637795275,
                    "duration": 0.24169908984375005
                },
                {
                    "name": "G4",
                    "midi": 67,
                    "time": 0.5519319042968751,
                    "velocity": 0.8818897637795275,
                    "duration": 0.23908329882812507
                },
                {
                    "name": "G4",
                    "midi": 67,
                    "time": 0.8124646894531252,
                    "velocity": 0.8818897637795275,
                    "duration": 0.23908329882812496
                },
                {
                    "name": "G4",
                    "midi": 67,
                    "time": 1.0729974746093751,
                    "velocity": 0.8818897637795275,
                    "duration": 0.24222224804687498
                },
                {
                    "name": "G4",
                    "midi": 67,
                    "time": 1.336669208984375,
                    "velocity": 0.8818897637795275,
                    "duration": 0.2490233046875001
                },
                {
                    "name": "G4",
                    "midi": 67,
                    "time": 1.607142,
                    "velocity": 1,
                    "duration": 0.07899688867187504
                },
                {
                    "name": "A#4",
                    "midi": 70,
                    "time": 1.6924167871093752,
                    "velocity": 0.9763779527559056,
                    "duration": 0.06434845898437502
                },
                {
                    "name": "D5",
                    "midi": 74,
                    "time": 1.7630431445312502,
                    "velocity": 0.9763779527559056,
                    "duration": 0.12137270312500004
                },
                {
                    "name": "G4",
                    "midi": 67,
                    "time": 1.8959253281250001,
                    "velocity": 0.8818897637795275,
                    "duration": 0.24169908984374988
                },
                {
                    "name": "G4",
                    "midi": 67,
                    "time": 2.159073904296875,
                    "velocity": 0.8818897637795275,
                    "duration": 0.23908329882812485
                },
                {
                    "name": "G4",
                    "midi": 67,
                    "time": 2.4196066894531247,
                    "velocity": 0.8818897637795275,
                    "duration": 0.23908329882812485
                },
                {
                    "name": "G4",
                    "midi": 67,
                    "time": 2.6801394746093745,
                    "velocity": 0.8818897637795275,
                    "duration": 0.24222224804687498
                },
                {
                    "name": "G4",
                    "midi": 67,
                    "time": 2.9438112089843744,
                    "velocity": 0.8818897637795275,
                    "duration": 0.2490233046874999
                },
                {
                    "name": "G4",
                    "midi": 67,
                    "time": 3.2142839999999993,
                    "velocity": 1,
                    "duration": 0.07899688867187482
                },
                {
                    "name": "A#4",
                    "midi": 70,
                    "time": 3.299558787109374,
                    "velocity": 0.9763779527559056,
                    "duration": 0.0643484589843748
                },
                {
                    "name": "D5",
                    "midi": 74,
                    "time": 3.3701851445312485,
                    "velocity": 0.9763779527559056,
                    "duration": 0.06016319335937492
                },
                {
                    "name": "G5",
                    "midi": 79,
                    "time": 3.4366262363281233,
                    "velocity": 0.9763779527559056,
                    "duration": 0.06016319335937492
                },
                {
                    "name": "A#3",
                    "midi": 58,
                    "time": 3.503067328124998,
                    "velocity": 0.8818897637795275,
                    "duration": 0.24169908984374988
                },
                {
                    "name": "G3",
                    "midi": 55,
                    "time": 3.503067328124998,
                    "velocity": 0.8818897637795275,
                    "duration": 0.24169908984374988
                },
                {
                    "name": "A#3",
                    "midi": 58,
                    "time": 3.766215904296873,
                    "velocity": 0.8818897637795275,
                    "duration": 0.23908329882812485
                },
                {
                    "name": "G3",
                    "midi": 55,
                    "time": 3.766215904296873,
                    "velocity": 0.8818897637795275,
                    "duration": 0.23908329882812485
                },
                {
                    "name": "A#3",
                    "midi": 58,
                    "time": 4.026748689453123,
                    "velocity": 0.8818897637795275,
                    "duration": 0.23908329882812485
                },
                {
                    "name": "G3",
                    "midi": 55,
                    "time": 4.026748689453123,
                    "velocity": 0.8818897637795275,
                    "duration": 0.23908329882812485
                },
                {
                    "name": "A#3",
                    "midi": 58,
                    "time": 4.287281474609372,
                    "velocity": 0.8818897637795275,
                    "duration": 0.24222224804687542
                },
                {
                    "name": "G3",
                    "midi": 55,
                    "time": 4.287281474609372,
                    "velocity": 0.8818897637795275,
                    "duration": 0.24222224804687542
                },
                {
                    "name": "D5",
                    "midi": 74,
                    "time": 4.550953208984373,
                    "velocity": 0.9763779527559056,
                    "duration": 0.24902330468750034
                },
                {
                    "name": "A#3",
                    "midi": 58,
                    "time": 4.550953208984373,
                    "velocity": 0.8818897637795275,
                    "duration": 0.28041279687499987
                },
                {
                    "name": "G3",
                    "midi": 55,
                    "time": 4.550953208984373,
                    "velocity": 0.8818897637795275,
                    "duration": 0.24902330468750034
                },
                {
                    "name": "D5",
                    "midi": 74,
                    "time": 4.754461749999998,
                    "velocity": 0.9763779527559056,
                    "duration": 0.06696424999999984
                },
                {
                    "name": "D#5",
                    "midi": 75,
                    "time": 4.821425999999998,
                    "velocity": 1,
                    "duration": 0.09626110937499899
                },
                {
                    "name": "C4",
                    "midi": 60,
                    "time": 4.821425999999998,
                    "velocity": 0.9133858267716536,
                    "duration": 0.2673338417968729
                },
                {
                    "name": "G3",
                    "midi": 55,
                    "time": 4.821425999999998,
                    "velocity": 0.9133858267716536,
                    "duration": 0.2673338417968729
                },
                {
                    "name": "D5",
                    "midi": 74,
                    "time": 4.907747103515622,
                    "velocity": 0.9763779527559056,
                    "duration": 0.09626110937499899
                },
                {
                    "name": "D#5",
                    "midi": 75,
                    "time": 4.994068207031247,
                    "velocity": 0.937007874015748,
                    "duration": 0.08789057812499923
                },
                {
                    "name": "D#5",
                    "midi": 75,
                    "time": 5.110209328124996,
                    "velocity": 0.9763779527559056,
                    "duration": 0.24169908984374988
                },
                {
                    "name": "C4",
                    "midi": 60,
                    "time": 5.110209328124996,
                    "velocity": 0.8818897637795275,
                    "duration": 0.24169908984374988
                },
                {
                    "name": "G3",
                    "midi": 55,
                    "time": 5.110209328124996,
                    "velocity": 0.8818897637795275,
                    "duration": 0.24169908984374988
                },
                {
                    "name": "D#5",
                    "midi": 75,
                    "time": 5.373357904296871,
                    "velocity": 0.9763779527559056,
                    "duration": 0.23908329882812485
                },
                {
                    "name": "C4",
                    "midi": 60,
                    "time": 5.373357904296871,
                    "velocity": 0.8818897637795275,
                    "duration": 0.23908329882812485
                },
                {
                    "name": "G3",
                    "midi": 55,
                    "time": 5.373357904296871,
                    "velocity": 0.8818897637795275,
                    "duration": 0.23908329882812485
                },
                {
                    "name": "D#5",
                    "midi": 75,
                    "time": 5.63389068945312,
                    "velocity": 0.9763779527559056,
                    "duration": 0.23908329882812485
                },
                {
                    "name": "C4",
                    "midi": 60,
                    "time": 5.63389068945312,
                    "velocity": 0.8818897637795275,
                    "duration": 0.23908329882812485
                },
                {
                    "name": "G3",
                    "midi": 55,
                    "time": 5.63389068945312,
                    "velocity": 0.8818897637795275,
                    "duration": 0.23908329882812485
                },
                {
                    "name": "D#5",
                    "midi": 75,
                    "time": 5.89442347460937,
                    "velocity": 0.9763779527559056,
                    "duration": 0.3960307597656252
                },
                {
                    "name": "C4",
                    "midi": 60,
                    "time": 5.89442347460937,
                    "velocity": 0.8818897637795275,
                    "duration": 0.24222224804687542
                },
                {
                    "name": "G3",
                    "midi": 55,
                    "time": 5.89442347460937,
                    "velocity": 0.8818897637795275,
                    "duration": 0.24222224804687542
                },
                {
                    "name": "C4",
                    "midi": 60,
                    "time": 6.158095208984371,
                    "velocity": 0.8818897637795275,
                    "duration": 0.28041279687499987
                },
                {
                    "name": "G3",
                    "midi": 55,
                    "time": 6.158095208984371,
                    "velocity": 0.8818897637795275,
                    "duration": 0.24902330468750034
                },
                {
                    "name": "G5",
                    "midi": 79,
                    "time": 6.29097739257812,
                    "velocity": 0.9763779527559056,
                    "duration": 0.04080633984375037
                },
                {
                    "name": "A5",
                    "midi": 81,
                    "time": 6.335445839843746,
                    "velocity": 0.9763779527559056,
                    "duration": 0.041852656249999676
                },
                {
                    "name": "C6",
                    "midi": 84,
                    "time": 6.3809606035156206,
                    "velocity": 0.9763779527559056,
                    "duration": 0.04394528906250006
                },
                {
                    "name": "C5",
                    "midi": 72,
                    "time": 6.428567999999996,
                    "velocity": 0.9133858267716536,
                    "duration": 0.2673338417968747
                },
                {
                    "name": "A3",
                    "midi": 57,
                    "time": 6.428567999999996,
                    "velocity": 0.9133858267716536,
                    "duration": 0.2673338417968747
                },
                {
                    "name": "G3",
                    "midi": 55,
                    "time": 6.428567999999996,
                    "velocity": 0.9133858267716536,
                    "duration": 0.2673338417968747
                },
                {
                    "name": "C5",
                    "midi": 72,
                    "time": 6.7173513281249955,
                    "velocity": 0.8818897637795275,
                    "duration": 0.24169908984374988
                },
                {
                    "name": "A3",
                    "midi": 57,
                    "time": 6.7173513281249955,
                    "velocity": 0.8818897637795275,
                    "duration": 0.24169908984374988
                },
                {
                    "name": "G3",
                    "midi": 55,
                    "time": 6.7173513281249955,
                    "velocity": 0.8818897637795275,
                    "duration": 0.24169908984374988
                },
                {
                    "name": "C5",
                    "midi": 72,
                    "time": 6.98049990429687,
                    "velocity": 0.8818897637795275,
                    "duration": 0.23908329882812485
                },
                {
                    "name": "A3",
                    "midi": 57,
                    "time": 6.98049990429687,
                    "velocity": 0.8818897637795275,
                    "duration": 0.23908329882812485
                },
                {
                    "name": "G3",
                    "midi": 55,
                    "time": 6.98049990429687,
                    "velocity": 0.8818897637795275,
                    "duration": 0.23908329882812485
                },
                {
                    "name": "C5",
                    "midi": 72,
                    "time": 7.24103268945312,
                    "velocity": 0.8818897637795275,
                    "duration": 0.23908329882812485
                },
                {
                    "name": "A3",
                    "midi": 57,
                    "time": 7.24103268945312,
                    "velocity": 0.8818897637795275,
                    "duration": 0.23908329882812485
                },
                {
                    "name": "G3",
                    "midi": 55,
                    "time": 7.24103268945312,
                    "velocity": 0.8818897637795275,
                    "duration": 0.23908329882812485
                },
                {
                    "name": "C5",
                    "midi": 72,
                    "time": 7.50156547460937,
                    "velocity": 0.9763779527559056,
                    "duration": 0.3960307597656252
                },
                {
                    "name": "A3",
                    "midi": 57,
                    "time": 7.50156547460937,
                    "velocity": 0.8818897637795275,
                    "duration": 0.24222224804687542
                },
                {
                    "name": "G3",
                    "midi": 55,
                    "time": 7.50156547460937,
                    "velocity": 0.8818897637795275,
                    "duration": 0.24222224804687542
                },
                {
                    "name": "A3",
                    "midi": 57,
                    "time": 7.76523720898437,
                    "velocity": 0.8818897637795275,
                    "duration": 0.24902330468749945
                },
                {
                    "name": "G3",
                    "midi": 55,
                    "time": 7.76523720898437,
                    "velocity": 0.8818897637795275,
                    "duration": 0.28041279687499987
                },
                {
                    "name": "D#5",
                    "midi": 75,
                    "time": 7.89811939257812,
                    "velocity": 0.9763779527559056,
                    "duration": 0.04080633984375037
                },
                {
                    "name": "F#5",
                    "midi": 78,
                    "time": 7.942587839843745,
                    "velocity": 0.9763779527559056,
                    "duration": 0.041852656249999676
                },
                {
                    "name": "A5",
                    "midi": 81,
                    "time": 7.98810260351562,
                    "velocity": 0.9763779527559056,
                    "duration": 0.04394528906250006
                },
                {
                    "name": "A4",
                    "midi": 69,
                    "time": 8.035709999999995,
                    "velocity": 1,
                    "duration": 0.2673338417968747
                },
                {
                    "name": "A3",
                    "midi": 57,
                    "time": 8.035709999999995,
                    "velocity": 0.8503937007874016,
                    "duration": 0.2673338417968747
                },
                {
                    "name": "C4",
                    "midi": 60,
                    "time": 8.035709999999995,
                    "velocity": 0.9291338582677166,
                    "duration": 0.2673338417968747
                },
                {
                    "name": "F#3",
                    "midi": 54,
                    "time": 8.035709999999995,
                    "velocity": 0.9133858267716536,
                    "duration": 0.2673338417968747
                },
                {
                    "name": "D#5",
                    "midi": 75,
                    "time": 8.324493328124994,
                    "velocity": 0.9763779527559056,
                    "duration": 0.24169908984375077
                },
                {
                    "name": "A3",
                    "midi": 57,
                    "time": 8.324493328124994,
                    "velocity": 0.8188976377952756,
                    "duration": 0.24169908984375077
                },
                {
                    "name": "C4",
                    "midi": 60,
                    "time": 8.324493328124994,
                    "velocity": 0.9291338582677166,
                    "duration": 0.24169908984375077
                },
                {
                    "name": "F#3",
                    "midi": 54,
                    "time": 8.324493328124994,
                    "velocity": 0.8818897637795275,
                    "duration": 0.24169908984375077
                },
                {
                    "name": "D5",
                    "midi": 74,
                    "time": 8.58764190429687,
                    "velocity": 0.9763779527559056,
                    "duration": 0.23908329882812573
                },
                {
                    "name": "A3",
                    "midi": 57,
                    "time": 8.58764190429687,
                    "velocity": 0.8188976377952756,
                    "duration": 0.23908329882812573
                },
                {
                    "name": "D4",
                    "midi": 62,
                    "time": 8.58764190429687,
                    "velocity": 0.9291338582677166,
                    "duration": 0.23908329882812573
                },
                {
                    "name": "F#3",
                    "midi": 54,
                    "time": 8.58764190429687,
                    "velocity": 0.8818897637795275,
                    "duration": 0.23908329882812573
                },
                {
                    "name": "C5",
                    "midi": 72,
                    "time": 8.84817468945312,
                    "velocity": 0.9763779527559056,
                    "duration": 0.23908329882812573
                },
                {
                    "name": "A3",
                    "midi": 57,
                    "time": 8.84817468945312,
                    "velocity": 0.8188976377952756,
                    "duration": 0.23908329882812573
                },
                {
                    "name": "D4",
                    "midi": 62,
                    "time": 8.84817468945312,
                    "velocity": 0.8976377952755905,
                    "duration": 0.23908329882812573
                },
                {
                    "name": "F#3",
                    "midi": 54,
                    "time": 8.84817468945312,
                    "velocity": 0.8818897637795275,
                    "duration": 0.23908329882812573
                },
                {
                    "name": "C5",
                    "midi": 72,
                    "time": 9.107137999999996,
                    "velocity": 0.9763779527559056,
                    "duration": 0.07062635742187595
                },
                {
                    "name": "A3",
                    "midi": 57,
                    "time": 9.108707474609371,
                    "velocity": 0.8188976377952756,
                    "duration": 0.24222224804687542
                },
                {
                    "name": "D4",
                    "midi": 62,
                    "time": 9.108707474609371,
                    "velocity": 0.8976377952755905,
                    "duration": 0.24222224804687542
                },
                {
                    "name": "F#3",
                    "midi": 54,
                    "time": 9.108707474609371,
                    "velocity": 0.8818897637795275,
                    "duration": 0.24222224804687542
                },
                {
                    "name": "A#4",
                    "midi": 70,
                    "time": 9.170440142578121,
                    "velocity": 0.9763779527559056,
                    "duration": 0.07062635742187595
                },
                {
                    "name": "C5",
                    "midi": 72,
                    "time": 9.233742285156247,
                    "velocity": 0.9763779527559056,
                    "duration": 0.07062635742187595
                },
                {
                    "name": "A#4",
                    "midi": 70,
                    "time": 9.297044427734372,
                    "velocity": 0.937007874015748,
                    "duration": 0.0721958320312499
                },
                {
                    "name": "A4",
                    "midi": 69,
                    "time": 9.372379208984372,
                    "velocity": 0.9763779527559056,
                    "duration": 0.24902330468749945
                },
                {
                    "name": "A3",
                    "midi": 57,
                    "time": 9.372379208984372,
                    "velocity": 0.8188976377952756,
                    "duration": 0.28041279687499987
                },
                {
                    "name": "D4",
                    "midi": 62,
                    "time": 9.372379208984372,
                    "velocity": 0.8976377952755905,
                    "duration": 0.24902330468749945
                },
                {
                    "name": "F#3",
                    "midi": 54,
                    "time": 9.372379208984372,
                    "velocity": 0.8818897637795275,
                    "duration": 0.28041279687499987
                },
                {
                    "name": "A4",
                    "midi": 69,
                    "time": 9.642851999999996,
                    "velocity": 0.9763779527559056,
                    "duration": 0.17107273242187482
                },
                {
                    "name": "D4",
                    "midi": 62,
                    "time": 9.642851999999996,
                    "velocity": 0.9763779527559056,
                    "duration": 1.0724743164062485
                },
                {
                    "name": "G3",
                    "midi": 55,
                    "time": 9.642851999999996,
                    "velocity": 0.9763779527559056,
                    "duration": 1.0714279999999992
                },
                {
                    "name": "A#4",
                    "midi": 70,
                    "time": 9.776780499999996,
                    "velocity": 0.9763779527559056,
                    "duration": 0.047607396484375286
                },
                {
                    "name": "A4",
                    "midi": 69,
                    "time": 9.819679472656246,
                    "velocity": 0.9763779527559056,
                    "duration": 0.047607396484375286
                },
                {
                    "name": "A#4",
                    "midi": 70,
                    "time": 9.862578445312495,
                    "velocity": 0.937007874015748,
                    "duration": 0.5922150859375002
                },
                {
                    "name": "A4",
                    "midi": 69,
                    "time": 10.45531668945312,
                    "velocity": 0.9763779527559056,
                    "duration": 0.23908329882812573
                },
                {
                    "name": "G4",
                    "midi": 67,
                    "time": 10.715849474609369,
                    "velocity": 0.9763779527559056,
                    "duration": 0.5336213671875001
                },
                {
                    "name": "G3",
                    "midi": 55,
                    "time": 10.715849474609369,
                    "velocity": 0.9763779527559056,
                    "duration": 0.5336213671875001
                },
                {
                    "name": "G2",
                    "midi": 43,
                    "time": 10.715849474609369,
                    "velocity": 0.9763779527559056,
                    "duration": 0.5336213671875001
                },
                {
                    "name": "D#5",
                    "midi": 75,
                    "time": 11.249993999999994,
                    "velocity": 0.6614173228346457,
                    "duration": 0.10463164062499963
                },
                {
                    "name": "G4",
                    "midi": 67,
                    "time": 11.249993999999994,
                    "velocity": 0.5039370078740157,
                    "duration": 0.2673338417968747
                },
                {
                    "name": "A#4",
                    "midi": 70,
                    "time": 11.249993999999994,
                    "velocity": 0.5826771653543307,
                    "duration": 0.2673338417968747
                },
                {
                    "name": "D5",
                    "midi": 74,
                    "time": 11.343639318359369,
                    "velocity": 0.6299212598425197,
                    "duration": 0.10463164062499963
                },
                {
                    "name": "D#5",
                    "midi": 75,
                    "time": 11.437284636718744,
                    "velocity": 0.5905511811023622,
                    "duration": 0.3206959785156247
                },
                {
                    "name": "G4",
                    "midi": 67,
                    "time": 11.538777328124993,
                    "velocity": 0.47244094488188976,
                    "duration": 0.241699089843749
                },
                {
                    "name": "A#4",
                    "midi": 70,
                    "time": 11.538777328124993,
                    "velocity": 0.5511811023622047,
                    "duration": 0.241699089843749
                },
                {
                    "name": "D#5",
                    "midi": 75,
                    "time": 11.785707999999993,
                    "velocity": 0.6299212598425197,
                    "duration": 0.10410848242187498
                },
                {
                    "name": "G4",
                    "midi": 67,
                    "time": 11.801925904296867,
                    "velocity": 0.47244094488188976,
                    "duration": 0.23908329882812573
                },
                {
                    "name": "A#4",
                    "midi": 70,
                    "time": 11.801925904296867,
                    "velocity": 0.5511811023622047,
                    "duration": 0.23908329882812573
                },
                {
                    "name": "D5",
                    "midi": 74,
                    "time": 11.878830160156243,
                    "velocity": 0.6299212598425197,
                    "duration": 0.10410848242187498
                },
                {
                    "name": "D#5",
                    "midi": 75,
                    "time": 11.971952320312493,
                    "velocity": 0.5905511811023622,
                    "duration": 0.6173266796875012
                },
                {
                    "name": "G4",
                    "midi": 67,
                    "time": 12.062458689453118,
                    "velocity": 0.47244094488188976,
                    "duration": 0.23908329882812573
                },
                {
                    "name": "A#4",
                    "midi": 70,
                    "time": 12.062458689453118,
                    "velocity": 0.5511811023622047,
                    "duration": 0.23908329882812573
                },
                {
                    "name": "G4",
                    "midi": 67,
                    "time": 12.322991474609369,
                    "velocity": 0.47244094488188976,
                    "duration": 0.24222224804687542
                },
                {
                    "name": "A#4",
                    "midi": 70,
                    "time": 12.322991474609369,
                    "velocity": 0.5511811023622047,
                    "duration": 0.24222224804687542
                },
                {
                    "name": "G5",
                    "midi": 79,
                    "time": 12.586663208984369,
                    "velocity": 0.6299212598425197,
                    "duration": 0.12189586132812558
                },
                {
                    "name": "G4",
                    "midi": 67,
                    "time": 12.586663208984369,
                    "velocity": 0.47244094488188976,
                    "duration": 0.28041279687500165
                },
                {
                    "name": "A#4",
                    "midi": 70,
                    "time": 12.586663208984369,
                    "velocity": 0.5826771653543307,
                    "duration": 0.24902330468750122
                },
                {
                    "name": "C#5",
                    "midi": 73,
                    "time": 12.71954539257812,
                    "velocity": 0.6299212598425197,
                    "duration": 0.126604285156251
                },
                {
                    "name": "C#5",
                    "midi": 73,
                    "time": 12.857135999999995,
                    "velocity": 0.6299212598425197,
                    "duration": 0.5780898144531257
                },
                {
                    "name": "F#4",
                    "midi": 66,
                    "time": 12.857135999999995,
                    "velocity": 0.5039370078740157,
                    "duration": 0.2673338417968747
                },
                {
                    "name": "A4",
                    "midi": 69,
                    "time": 12.857135999999995,
                    "velocity": 0.6141732283464567,
                    "duration": 0.2673338417968747
                },
                {
                    "name": "F#4",
                    "midi": 66,
                    "time": 13.145919328124995,
                    "velocity": 0.47244094488188976,
                    "duration": 0.24169908984375077
                },
                {
                    "name": "A4",
                    "midi": 69,
                    "time": 13.145919328124995,
                    "velocity": 0.5511811023622047,
                    "duration": 0.24169908984375077
                },
                {
                    "name": "D5",
                    "midi": 74,
                    "time": 13.392849999999996,
                    "velocity": 0.6299212598425197,
                    "duration": 0.10358532421875033
                },
                {
                    "name": "F#4",
                    "midi": 66,
                    "time": 13.40906790429687,
                    "velocity": 0.47244094488188976,
                    "duration": 0.23908329882812573
                },
                {
                    "name": "A4",
                    "midi": 69,
                    "time": 13.40906790429687,
                    "velocity": 0.5511811023622047,
                    "duration": 0.23908329882812573
                },
                {
                    "name": "C#5",
                    "midi": 73,
                    "time": 13.485449001953121,
                    "velocity": 0.6299212598425197,
                    "duration": 0.10358532421875033
                },
                {
                    "name": "D5",
                    "midi": 74,
                    "time": 13.578048003906247,
                    "velocity": 0.5905511811023622,
                    "duration": 0.6183729960937505
                },
                {
                    "name": "F#4",
                    "midi": 66,
                    "time": 13.669600689453121,
                    "velocity": 0.47244094488188976,
                    "duration": 0.23908329882812573
                },
                {
                    "name": "A4",
                    "midi": 69,
                    "time": 13.669600689453121,
                    "velocity": 0.5511811023622047,
                    "duration": 0.23908329882812573
                },
                {
                    "name": "F#4",
                    "midi": 66,
                    "time": 13.930133474609372,
                    "velocity": 0.47244094488188976,
                    "duration": 0.24222224804687542
                },
                {
                    "name": "A4",
                    "midi": 69,
                    "time": 13.930133474609372,
                    "velocity": 0.5511811023622047,
                    "duration": 0.24222224804687542
                },
                {
                    "name": "F#4",
                    "midi": 66,
                    "time": 14.193805208984372,
                    "velocity": 0.47244094488188976,
                    "duration": 0.28041279687499987
                },
                {
                    "name": "A4",
                    "midi": 69,
                    "time": 14.193805208984372,
                    "velocity": 0.5826771653543307,
                    "duration": 0.24902330468749945
                },
                {
                    "name": "D5",
                    "midi": 74,
                    "time": 14.464277999999997,
                    "velocity": 0.6614173228346457,
                    "duration": 0.10515479882812606
                },
                {
                    "name": "F4",
                    "midi": 65,
                    "time": 14.464277999999997,
                    "velocity": 0.5039370078740157,
                    "duration": 0.2673338417968747
                },
                {
                    "name": "G#4",
                    "midi": 68,
                    "time": 14.464277999999997,
                    "velocity": 0.6141732283464567,
                    "duration": 0.2673338417968747
                },
                {
                    "name": "C5",
                    "midi": 72,
                    "time": 14.558446476562498,
                    "velocity": 0.6299212598425197,
                    "duration": 0.10515479882812429
                },
                {
                    "name": "D5",
                    "midi": 74,
                    "time": 14.652614953124997,
                    "velocity": 0.5905511811023622,
                    "duration": 0.3196496621093736
                },
                {
                    "name": "F4",
                    "midi": 65,
                    "time": 14.753061328124996,
                    "velocity": 0.47244094488188976,
                    "duration": 0.241699089843749
                },
                {
                    "name": "G#4",
                    "midi": 68,
                    "time": 14.753061328124996,
                    "velocity": 0.5511811023622047,
                    "duration": 0.241699089843749
                },
                {
                    "name": "D5",
                    "midi": 74,
                    "time": 14.999991999999995,
                    "velocity": 0.6299212598425197,
                    "duration": 0.10358532421875033
                },
                {
                    "name": "F4",
                    "midi": 65,
                    "time": 15.01620990429687,
                    "velocity": 0.47244094488188976,
                    "duration": 0.23908329882812573
                },
                {
                    "name": "G#4",
                    "midi": 68,
                    "time": 15.01620990429687,
                    "velocity": 0.5511811023622047,
                    "duration": 0.23908329882812573
                },
                {
                    "name": "C5",
                    "midi": 72,
                    "time": 15.09259100195312,
                    "velocity": 0.6299212598425197,
                    "duration": 0.10358532421875033
                },
                {
                    "name": "D5",
                    "midi": 74,
                    "time": 15.185190003906246,
                    "velocity": 0.5905511811023622,
                    "duration": 0.6183729960937505
                },
                {
                    "name": "F4",
                    "midi": 65,
                    "time": 15.27674268945312,
                    "velocity": 0.47244094488188976,
                    "duration": 0.23908329882812573
                },
                {
                    "name": "G#4",
                    "midi": 68,
                    "time": 15.27674268945312,
                    "velocity": 0.5511811023622047,
                    "duration": 0.23908329882812573
                },
                {
                    "name": "F4",
                    "midi": 65,
                    "time": 15.537275474609372,
                    "velocity": 0.47244094488188976,
                    "duration": 0.24222224804687542
                },
                {
                    "name": "G#4",
                    "midi": 68,
                    "time": 15.537275474609372,
                    "velocity": 0.5511811023622047,
                    "duration": 0.24222224804687542
                },
                {
                    "name": "F5",
                    "midi": 77,
                    "time": 15.800947208984372,
                    "velocity": 0.6299212598425197,
                    "duration": 0.12189586132812558
                },
                {
                    "name": "F4",
                    "midi": 65,
                    "time": 15.800947208984372,
                    "velocity": 0.47244094488188976,
                    "duration": 0.28041279687500165
                },
                {
                    "name": "G#4",
                    "midi": 68,
                    "time": 15.800947208984372,
                    "velocity": 0.5826771653543307,
                    "duration": 0.24902330468750122
                },
                {
                    "name": "B4",
                    "midi": 71,
                    "time": 15.933829392578122,
                    "velocity": 0.6299212598425197,
                    "duration": 0.126604285156251
                },
                {
                    "name": "B4",
                    "midi": 71,
                    "time": 16.07142,
                    "velocity": 0.6299212598425197,
                    "duration": 0.5780898144531257
                },
                {
                    "name": "E4",
                    "midi": 64,
                    "time": 16.07142,
                    "velocity": 0.5039370078740157,
                    "duration": 0.2673338417968729
                },
                {
                    "name": "G4",
                    "midi": 67,
                    "time": 16.07142,
                    "velocity": 0.6141732283464567,
                    "duration": 0.2673338417968729
                },
                {
                    "name": "E4",
                    "midi": 64,
                    "time": 16.360203328125,
                    "velocity": 0.47244094488188976,
                    "duration": 0.241699089843749
                },
                {
                    "name": "G4",
                    "midi": 67,
                    "time": 16.360203328125,
                    "velocity": 0.5511811023622047,
                    "duration": 0.241699089843749
                },
                {
                    "name": "C5",
                    "midi": 72,
                    "time": 16.607134,
                    "velocity": 0.6299212598425197,
                    "duration": 0.10463164062500496
                },
                {
                    "name": "E4",
                    "midi": 64,
                    "time": 16.623351904296875,
                    "velocity": 0.47244094488188976,
                    "duration": 0.2390832988281275
                },
                {
                    "name": "G4",
                    "midi": 67,
                    "time": 16.623351904296875,
                    "velocity": 0.5511811023622047,
                    "duration": 0.2390832988281275
                },
                {
                    "name": "B4",
                    "midi": 71,
                    "time": 16.700779318359377,
                    "velocity": 0.6299212598425197,
                    "duration": 0.10463164062500141
                },
                {
                    "name": "C5",
                    "midi": 72,
                    "time": 16.79442463671875,
                    "velocity": 0.5905511811023622,
                    "duration": 0.6162803632812555
                },
                {
                    "name": "E4",
                    "midi": 64,
                    "time": 16.88388468945313,
                    "velocity": 0.47244094488188976,
                    "duration": 0.23908329882812396
                },
                {
                    "name": "G4",
                    "midi": 67,
                    "time": 16.88388468945313,
                    "velocity": 0.5511811023622047,
                    "duration": 0.23908329882812396
                },
                {
                    "name": "E4",
                    "midi": 64,
                    "time": 17.14441747460938,
                    "velocity": 0.47244094488188976,
                    "duration": 0.24222224804687542
                },
                {
                    "name": "G4",
                    "midi": 67,
                    "time": 17.14441747460938,
                    "velocity": 0.5511811023622047,
                    "duration": 0.24222224804687542
                },
                {
                    "name": "E4",
                    "midi": 64,
                    "time": 17.408089208984382,
                    "velocity": 0.47244094488188976,
                    "duration": 0.28041279687500165
                },
                {
                    "name": "G4",
                    "midi": 67,
                    "time": 17.408089208984382,
                    "velocity": 0.5826771653543307,
                    "duration": 0.24902330468750122
                },
                {
                    "name": "C5",
                    "midi": 72,
                    "time": 17.67856200000001,
                    "velocity": 0.6614173228346457,
                    "duration": 0.2673338417968729
                },
                {
                    "name": "F#4",
                    "midi": 66,
                    "time": 17.67856200000001,
                    "velocity": 0.5039370078740157,
                    "duration": 0.2673338417968729
                },
                {
                    "name": "A4",
                    "midi": 69,
                    "time": 17.67856200000001,
                    "velocity": 0.6141732283464567,
                    "duration": 0.2673338417968729
                },
                {
                    "name": "D#5",
                    "midi": 75,
                    "time": 17.96734532812501,
                    "velocity": 0.6299212598425197,
                    "duration": 0.241699089843749
                },
                {
                    "name": "F#4",
                    "midi": 66,
                    "time": 17.96734532812501,
                    "velocity": 0.47244094488188976,
                    "duration": 0.241699089843749
                },
                {
                    "name": "A4",
                    "midi": 69,
                    "time": 17.96734532812501,
                    "velocity": 0.5511811023622047,
                    "duration": 0.241699089843749
                },
                {
                    "name": "D5",
                    "midi": 74,
                    "time": 18.230493904296885,
                    "velocity": 0.6299212598425197,
                    "duration": 0.23908329882812396
                },
                {
                    "name": "F#4",
                    "midi": 66,
                    "time": 18.230493904296885,
                    "velocity": 0.47244094488188976,
                    "duration": 0.23908329882812396
                },
                {
                    "name": "A4",
                    "midi": 69,
                    "time": 18.230493904296885,
                    "velocity": 0.5511811023622047,
                    "duration": 0.23908329882812396
                },
                {
                    "name": "C5",
                    "midi": 72,
                    "time": 18.491026689453136,
                    "velocity": 0.6299212598425197,
                    "duration": 0.23908329882812396
                },
                {
                    "name": "F#4",
                    "midi": 66,
                    "time": 18.491026689453136,
                    "velocity": 0.47244094488188976,
                    "duration": 0.23908329882812396
                },
                {
                    "name": "A4",
                    "midi": 69,
                    "time": 18.491026689453136,
                    "velocity": 0.5511811023622047,
                    "duration": 0.23908329882812396
                },
                {
                    "name": "C5",
                    "midi": 72,
                    "time": 18.74999000000001,
                    "velocity": 0.6299212598425197,
                    "duration": 0.07062635742187595
                },
                {
                    "name": "F#4",
                    "midi": 66,
                    "time": 18.751559474609387,
                    "velocity": 0.5354330708661418,
                    "duration": 0.24222224804687187
                },
                {
                    "name": "A#4",
                    "midi": 70,
                    "time": 18.81329214257814,
                    "velocity": 0.6299212598425197,
                    "duration": 0.0706263574218724
                },
                {
                    "name": "C5",
                    "midi": 72,
                    "time": 18.876594285156262,
                    "velocity": 0.6299212598425197,
                    "duration": 0.0706263574218724
                },
                {
                    "name": "A#4",
                    "midi": 70,
                    "time": 18.939896427734386,
                    "velocity": 0.5905511811023622,
                    "duration": 0.07219583203124813
                },
                {
                    "name": "A4",
                    "midi": 69,
                    "time": 19.015231208984385,
                    "velocity": 0.6299212598425197,
                    "duration": 0.24902330468750122
                },
                {
                    "name": "F#4",
                    "midi": 66,
                    "time": 19.015231208984385,
                    "velocity": 0.5354330708661418,
                    "duration": 0.28041279687500165
                },
                {
                    "name": "A#4",
                    "midi": 70,
                    "time": 19.285704000000013,
                    "velocity": 0.6614173228346457,
                    "duration": 0.1443916640624998
                },
                {
                    "name": "G4",
                    "midi": 67,
                    "time": 19.285704000000013,
                    "velocity": 0.6614173228346457,
                    "duration": 0.5514087460937489
                },
                {
                    "name": "A4",
                    "midi": 69,
                    "time": 19.441605144531263,
                    "velocity": 0.6299212598425197,
                    "duration": 0.12137270312500092
                },
                {
                    "name": "A#4",
                    "midi": 70,
                    "time": 19.553561000000013,
                    "velocity": 0.6299212598425197,
                    "duration": 0.04760739648437351
                },
                {
                    "name": "A4",
                    "midi": 69,
                    "time": 19.596459972656262,
                    "velocity": 0.6299212598425197,
                    "duration": 0.04760739648437351
                },
                {
                    "name": "A#4",
                    "midi": 70,
                    "time": 19.639358945312512,
                    "velocity": 0.5905511811023622,
                    "duration": 0.044468447265622046
                },
                {
                    "name": "D5",
                    "midi": 74,
                    "time": 19.70632319531251,
                    "velocity": 0.6299212598425197,
                    "duration": 0.11980322851562519
                },
                {
                    "name": "A#4",
                    "midi": 70,
                    "time": 19.83763590429689,
                    "velocity": 0.6299212598425197,
                    "duration": 0.11875691210937589
                },
                {
                    "name": "G3",
                    "midi": 55,
                    "time": 19.83763590429689,
                    "velocity": 0.6299212598425197,
                    "duration": 0.23908329882812396
                },
                {
                    "name": "A4",
                    "midi": 69,
                    "time": 19.967902296875014,
                    "velocity": 0.6299212598425197,
                    "duration": 0.11928007031249876
                },
                {
                    "name": "A#4",
                    "midi": 70,
                    "time": 20.08927500000001,
                    "velocity": 0.6299212598425197,
                    "duration": 0.04760739648437351
                },
                {
                    "name": "G4",
                    "midi": 67,
                    "time": 20.098168689453136,
                    "velocity": 0.6299212598425197,
                    "duration": 0.2390832988281204
                },
                {
                    "name": "A4",
                    "midi": 69,
                    "time": 20.13217397265626,
                    "velocity": 0.6299212598425197,
                    "duration": 0.04760739648437351
                },
                {
                    "name": "A#4",
                    "midi": 70,
                    "time": 20.17507294531251,
                    "velocity": 0.5905511811023622,
                    "duration": 0.044468447265622046
                },
                {
                    "name": "D5",
                    "midi": 74,
                    "time": 20.228435082031258,
                    "velocity": 0.6299212598425197,
                    "duration": 0.11928007031249876
                },
                {
                    "name": "A4",
                    "midi": 69,
                    "time": 20.358701474609383,
                    "velocity": 0.6299212598425197,
                    "duration": 0.1208495449218745
                },
                {
                    "name": "F#4",
                    "midi": 66,
                    "time": 20.358701474609383,
                    "velocity": 0.6299212598425197,
                    "duration": 0.24222224804687542
                },
                {
                    "name": "G4",
                    "midi": 67,
                    "time": 20.490537341796884,
                    "velocity": 0.6299212598425197,
                    "duration": 0.1208495449218745
                },
                {
                    "name": "D4",
                    "midi": 62,
                    "time": 20.622373208984385,
                    "velocity": 0.6299212598425197,
                    "duration": 0.24902330468749767
                },
                {
                    "name": "A4",
                    "midi": 69,
                    "time": 20.62498900000001,
                    "velocity": 0.6299212598425197,
                    "duration": 0.04760739648437351
                },
                {
                    "name": "G4",
                    "midi": 67,
                    "time": 20.66788797265626,
                    "velocity": 0.6299212598425197,
                    "duration": 0.04760739648437351
                },
                {
                    "name": "A4",
                    "midi": 69,
                    "time": 20.71078694531251,
                    "velocity": 0.5905511811023622,
                    "duration": 0.044468447265622046
                },
                {
                    "name": "C5",
                    "midi": 72,
                    "time": 20.755255392578132,
                    "velocity": 0.6299212598425197,
                    "duration": 0.126604285156251
                },
                {
                    "name": "A#4",
                    "midi": 70,
                    "time": 20.89284600000001,
                    "velocity": 0.6614173228346457,
                    "duration": 0.1443916640624998
                },
                {
                    "name": "G4",
                    "midi": 67,
                    "time": 20.89284600000001,
                    "velocity": 0.6614173228346457,
                    "duration": 0.5514087460937489
                },
                {
                    "name": "A4",
                    "midi": 69,
                    "time": 21.04874714453126,
                    "velocity": 0.6299212598425197,
                    "duration": 0.12137270312500092
                },
                {
                    "name": "A#4",
                    "midi": 70,
                    "time": 21.16070300000001,
                    "velocity": 0.6299212598425197,
                    "duration": 0.04760739648437351
                },
                {
                    "name": "A4",
                    "midi": 69,
                    "time": 21.20360197265626,
                    "velocity": 0.6299212598425197,
                    "duration": 0.04760739648437351
                },
                {
                    "name": "A#4",
                    "midi": 70,
                    "time": 21.24650094531251,
                    "velocity": 0.5905511811023622,
                    "duration": 0.044468447265622046
                },
                {
                    "name": "D5",
                    "midi": 74,
                    "time": 21.313465195312506,
                    "velocity": 0.6299212598425197,
                    "duration": 0.11980322851562519
                },
                {
                    "name": "A#4",
                    "midi": 70,
                    "time": 21.444777904296885,
                    "velocity": 0.6299212598425197,
                    "duration": 0.11875691210937589
                },
                {
                    "name": "G3",
                    "midi": 55,
                    "time": 21.444777904296885,
                    "velocity": 0.6299212598425197,
                    "duration": 0.23908329882812396
                },
                {
                    "name": "A4",
                    "midi": 69,
                    "time": 21.57504429687501,
                    "velocity": 0.6299212598425197,
                    "duration": 0.11928007031249876
                },
                {
                    "name": "A#4",
                    "midi": 70,
                    "time": 21.696417000000007,
                    "velocity": 0.6299212598425197,
                    "duration": 0.04760739648437351
                },
                {
                    "name": "G4",
                    "midi": 67,
                    "time": 21.705310689453132,
                    "velocity": 0.6299212598425197,
                    "duration": 0.2390832988281204
                },
                {
                    "name": "A4",
                    "midi": 69,
                    "time": 21.739315972656257,
                    "velocity": 0.6299212598425197,
                    "duration": 0.04760739648437351
                },
                {
                    "name": "A#4",
                    "midi": 70,
                    "time": 21.782214945312507,
                    "velocity": 0.5905511811023622,
                    "duration": 0.044468447265622046
                },
                {
                    "name": "D5",
                    "midi": 74,
                    "time": 21.835577082031254,
                    "velocity": 0.6299212598425197,
                    "duration": 0.11928007031249876
                },
                {
                    "name": "A4",
                    "midi": 69,
                    "time": 21.96584347460938,
                    "velocity": 0.6299212598425197,
                    "duration": 0.1208495449218745
                },
                {
                    "name": "F#4",
                    "midi": 66,
                    "time": 21.96584347460938,
                    "velocity": 0.6299212598425197,
                    "duration": 0.24222224804687542
                },
                {
                    "name": "G4",
                    "midi": 67,
                    "time": 22.09767934179688,
                    "velocity": 0.6299212598425197,
                    "duration": 0.1208495449218745
                },
                {
                    "name": "D4",
                    "midi": 62,
                    "time": 22.22951520898438,
                    "velocity": 0.6299212598425197,
                    "duration": 0.24902330468749767
                },
                {
                    "name": "A4",
                    "midi": 69,
                    "time": 22.232131000000006,
                    "velocity": 0.6299212598425197,
                    "duration": 0.04760739648437351
                },
                {
                    "name": "G4",
                    "midi": 67,
                    "time": 22.275029972656256,
                    "velocity": 0.6299212598425197,
                    "duration": 0.04760739648437351
                },
                {
                    "name": "A4",
                    "midi": 69,
                    "time": 22.317928945312506,
                    "velocity": 0.5905511811023622,
                    "duration": 0.044468447265622046
                },
                {
                    "name": "C5",
                    "midi": 72,
                    "time": 22.362397392578128,
                    "velocity": 0.6299212598425197,
                    "duration": 0.126604285156251
                },
                {
                    "name": "A#4",
                    "midi": 70,
                    "time": 22.499988000000005,
                    "velocity": 0.6614173228346457,
                    "duration": 0.1443916640624998
                },
                {
                    "name": "G4",
                    "midi": 67,
                    "time": 22.499988000000005,
                    "velocity": 0.6614173228346457,
                    "duration": 0.5514087460937489
                },
                {
                    "name": "A4",
                    "midi": 69,
                    "time": 22.655889144531255,
                    "velocity": 0.6299212598425197,
                    "duration": 0.12137270312500092
                },
                {
                    "name": "A#4",
                    "midi": 70,
                    "time": 22.767845000000005,
                    "velocity": 0.6299212598425197,
                    "duration": 0.04760739648437351
                },
                {
                    "name": "A4",
                    "midi": 69,
                    "time": 22.810743972656255,
                    "velocity": 0.6299212598425197,
                    "duration": 0.04760739648437351
                },
                {
                    "name": "A#4",
                    "midi": 70,
                    "time": 22.853642945312505,
                    "velocity": 0.5905511811023622,
                    "duration": 0.044468447265622046
                },
                {
                    "name": "C5",
                    "midi": 72,
                    "time": 22.920607195312503,
                    "velocity": 0.6299212598425197,
                    "duration": 0.11980322851562519
                },
                {
                    "name": "A#4",
                    "midi": 70,
                    "time": 23.05191990429688,
                    "velocity": 0.6299212598425197,
                    "duration": 0.23908329882812396
                },
                {
                    "name": "G3",
                    "midi": 55,
                    "time": 23.05191990429688,
                    "velocity": 0.6299212598425197,
                    "duration": 0.23908329882812396
                },
                {
                    "name": "D5",
                    "midi": 74,
                    "time": 23.31245268945313,
                    "velocity": 0.6299212598425197,
                    "duration": 0.23908329882812396
                },
                {
                    "name": "A#4",
                    "midi": 70,
                    "time": 23.31245268945313,
                    "velocity": 0.6299212598425197,
                    "duration": 0.23908329882812396
                },
                {
                    "name": "D5",
                    "midi": 74,
                    "time": 23.571416000000006,
                    "velocity": 0.6299212598425197,
                    "duration": 0.07062635742187595
                },
                {
                    "name": "A4",
                    "midi": 69,
                    "time": 23.572985474609382,
                    "velocity": 0.6299212598425197,
                    "duration": 0.24222224804687187
                },
                {
                    "name": "C5",
                    "midi": 72,
                    "time": 23.634718142578134,
                    "velocity": 0.6299212598425197,
                    "duration": 0.0706263574218724
                },
                {
                    "name": "D5",
                    "midi": 74,
                    "time": 23.698020285156257,
                    "velocity": 0.6299212598425197,
                    "duration": 0.0706263574218724
                },
                {
                    "name": "C5",
                    "midi": 72,
                    "time": 23.76132242773438,
                    "velocity": 0.5905511811023622,
                    "duration": 0.07219583203124813
                },
                {
                    "name": "A#4",
                    "midi": 70,
                    "time": 23.83665720898438,
                    "velocity": 0.6299212598425197,
                    "duration": 0.24902330468750122
                },
                {
                    "name": "G4",
                    "midi": 67,
                    "time": 23.83665720898438,
                    "velocity": 0.6299212598425197,
                    "duration": 0.24902330468750122
                },
                {
                    "name": "A#4",
                    "midi": 70,
                    "time": 24.10713000000001,
                    "velocity": 0.6614173228346457,
                    "duration": 0.12869691796875316
                },
                {
                    "name": "D4",
                    "midi": 62,
                    "time": 24.10713000000001,
                    "velocity": 0.6614173228346457,
                    "duration": 0.4200960371093778
                },
                {
                    "name": "A4",
                    "midi": 69,
                    "time": 24.22222480468751,
                    "velocity": 0.6299212598425197,
                    "duration": 0.08527478710937686
                },
                {
                    "name": "A#4",
                    "midi": 70,
                    "time": 24.298605902343763,
                    "velocity": 0.6299212598425197,
                    "duration": 0.0852747871093733
                },
                {
                    "name": "A4",
                    "midi": 69,
                    "time": 24.37498700000001,
                    "velocity": 0.6299212598425197,
                    "duration": 0.0852747871093733
                },
                {
                    "name": "A#4",
                    "midi": 70,
                    "time": 24.45136809765626,
                    "velocity": 0.6299212598425197,
                    "duration": 0.08527478710937686
                },
                {
                    "name": "A4",
                    "midi": 69,
                    "time": 24.527749195312513,
                    "velocity": 0.6299212598425197,
                    "duration": 0.0852747871093733
                },
                {
                    "name": "A3",
                    "midi": 57,
                    "time": 24.527749195312513,
                    "velocity": 0.6299212598425197,
                    "duration": 0.11980322851562164
                },
                {
                    "name": "A#4",
                    "midi": 70,
                    "time": 24.60413029296876,
                    "velocity": 0.6299212598425197,
                    "duration": 0.0852747871093733
                },
                {
                    "name": "F#3",
                    "midi": 54,
                    "time": 24.659061904296884,
                    "velocity": 0.6299212598425197,
                    "duration": 0.11875691210937589
                },
                {
                    "name": "A4",
                    "midi": 69,
                    "time": 24.68051139062501,
                    "velocity": 0.6299212598425197,
                    "duration": 0.0852747871093733
                },
                {
                    "name": "A#4",
                    "midi": 70,
                    "time": 24.75689248828126,
                    "velocity": 0.6299212598425197,
                    "duration": 0.0852747871093733
                },
                {
                    "name": "D3",
                    "midi": 50,
                    "time": 24.78932829687501,
                    "velocity": 0.6299212598425197,
                    "duration": 0.11928007031249876
                },
                {
                    "name": "A4",
                    "midi": 69,
                    "time": 24.83327358593751,
                    "velocity": 0.6299212598425197,
                    "duration": 0.0852747871093733
                },
                {
                    "name": "A#4",
                    "midi": 70,
                    "time": 24.909654683593757,
                    "velocity": 0.6299212598425197,
                    "duration": 0.0852747871093733
                },
                {
                    "name": "A2",
                    "midi": 45,
                    "time": 24.91959468945313,
                    "velocity": 0.6299212598425197,
                    "duration": 0.11928007031249876
                },
                {
                    "name": "A4",
                    "midi": 69,
                    "time": 24.986035781250006,
                    "velocity": 0.6299212598425197,
                    "duration": 0.0852747871093733
                },
                {
                    "name": "D2",
                    "midi": 38,
                    "time": 25.049861082031256,
                    "velocity": 0.6141732283464567,
                    "duration": 0.11928007031249876
                },
                {
                    "name": "A#4",
                    "midi": 70,
                    "time": 25.062416878906255,
                    "velocity": 0.6299212598425197,
                    "duration": 0.0852747871093733
                },
                {
                    "name": "A4",
                    "midi": 69,
                    "time": 25.138797976562504,
                    "velocity": 0.5905511811023622,
                    "duration": 0.03662107421875049
                },
                {
                    "name": "F4",
                    "midi": 65,
                    "time": 26.003055328125004,
                    "velocity": 0.8818897637795275,
                    "duration": 0.241699089843749
                },
                {
                    "name": "F4",
                    "midi": 65,
                    "time": 26.26620390429688,
                    "velocity": 0.8818897637795275,
                    "duration": 0.23908329882812396
                },
                {
                    "name": "F4",
                    "midi": 65,
                    "time": 26.52673668945313,
                    "velocity": 0.8818897637795275,
                    "duration": 0.23908329882812396
                },
                {
                    "name": "F4",
                    "midi": 65,
                    "time": 26.78726947460938,
                    "velocity": 0.8818897637795275,
                    "duration": 0.24222224804687542
                },
                {
                    "name": "F4",
                    "midi": 65,
                    "time": 27.050941208984383,
                    "velocity": 0.8818897637795275,
                    "duration": 0.24902330468750122
                },
                {
                    "name": "F4",
                    "midi": 65,
                    "time": 27.32141400000001,
                    "velocity": 1,
                    "duration": 0.07899688867187393
                },
                {
                    "name": "A#4",
                    "midi": 70,
                    "time": 27.406688787109385,
                    "velocity": 0.9763779527559056,
                    "duration": 0.06434845898437658
                },
                {
                    "name": "D5",
                    "midi": 74,
                    "time": 27.47731514453126,
                    "velocity": 0.9763779527559056,
                    "duration": 0.12137270312500092
                },
                {
                    "name": "F4",
                    "midi": 65,
                    "time": 27.61019732812501,
                    "velocity": 0.8818897637795275,
                    "duration": 0.241699089843749
                },
                {
                    "name": "F4",
                    "midi": 65,
                    "time": 27.873345904296887,
                    "velocity": 0.8818897637795275,
                    "duration": 0.23908329882812396
                },
                {
                    "name": "F4",
                    "midi": 65,
                    "time": 28.133878689453137,
                    "velocity": 0.8818897637795275,
                    "duration": 0.23908329882812396
                },
                {
                    "name": "F4",
                    "midi": 65,
                    "time": 28.394411474609388,
                    "velocity": 0.8818897637795275,
                    "duration": 0.24222224804687542
                },
                {
                    "name": "F4",
                    "midi": 65,
                    "time": 28.65808320898439,
                    "velocity": 0.8818897637795275,
                    "duration": 0.24902330468750122
                },
                {
                    "name": "F4",
                    "midi": 65,
                    "time": 28.928556000000018,
                    "velocity": 1,
                    "duration": 0.07899688867187393
                },
                {
                    "name": "A#4",
                    "midi": 70,
                    "time": 29.01383078710939,
                    "velocity": 0.9763779527559056,
                    "duration": 0.06434845898437658
                },
                {
                    "name": "D5",
                    "midi": 74,
                    "time": 29.084457144531267,
                    "velocity": 0.9763779527559056,
                    "duration": 0.06016319335937581
                },
                {
                    "name": "F5",
                    "midi": 77,
                    "time": 29.150898236328143,
                    "velocity": 0.9763779527559056,
                    "duration": 0.06016319335937581
                },
                {
                    "name": "A#3",
                    "midi": 58,
                    "time": 29.217339328125018,
                    "velocity": 0.8188976377952756,
                    "duration": 0.241699089843749
                },
                {
                    "name": "D4",
                    "midi": 62,
                    "time": 29.217339328125018,
                    "velocity": 0.8976377952755905,
                    "duration": 0.241699089843749
                },
                {
                    "name": "A#3",
                    "midi": 58,
                    "time": 29.480487904296893,
                    "velocity": 0.8188976377952756,
                    "duration": 0.23908329882812396
                },
                {
                    "name": "D4",
                    "midi": 62,
                    "time": 29.480487904296893,
                    "velocity": 0.8976377952755905,
                    "duration": 0.23908329882812396
                },
                {
                    "name": "A#3",
                    "midi": 58,
                    "time": 29.741020689453144,
                    "velocity": 0.8188976377952756,
                    "duration": 0.23908329882812396
                },
                {
                    "name": "D4",
                    "midi": 62,
                    "time": 29.741020689453144,
                    "velocity": 0.8976377952755905,
                    "duration": 0.23908329882812396
                },
                {
                    "name": "A#3",
                    "midi": 58,
                    "time": 30.001553474609395,
                    "velocity": 0.8188976377952756,
                    "duration": 0.24222224804687542
                },
                {
                    "name": "D4",
                    "midi": 62,
                    "time": 30.001553474609395,
                    "velocity": 0.8976377952755905,
                    "duration": 0.24222224804687542
                },
                {
                    "name": "A#3",
                    "midi": 58,
                    "time": 30.265225208984397,
                    "velocity": 0.8188976377952756,
                    "duration": 0.24902330468750122
                },
                {
                    "name": "D4",
                    "midi": 62,
                    "time": 30.265225208984397,
                    "velocity": 0.9291338582677166,
                    "duration": 0.24902330468750122
                },
                {
                    "name": "G4",
                    "midi": 67,
                    "time": 30.535698000000025,
                    "velocity": 0.9133858267716536,
                    "duration": 0.26733384179687647
                },
                {
                    "name": "A#3",
                    "midi": 58,
                    "time": 30.535698000000025,
                    "velocity": 0.8503937007874016,
                    "duration": 0.26733384179687647
                },
                {
                    "name": "D#4",
                    "midi": 63,
                    "time": 30.535698000000025,
                    "velocity": 0.9606299212598425,
                    "duration": 0.26733384179687647
                },
                {
                    "name": "G4",
                    "midi": 67,
                    "time": 30.824481328125028,
                    "velocity": 0.8818897637795275,
                    "duration": 0.241699089843749
                },
                {
                    "name": "A#3",
                    "midi": 58,
                    "time": 30.824481328125028,
                    "velocity": 0.8188976377952756,
                    "duration": 0.241699089843749
                },
                {
                    "name": "D#4",
                    "midi": 63,
                    "time": 30.824481328125028,
                    "velocity": 0.8976377952755905,
                    "duration": 0.241699089843749
                },
                {
                    "name": "G4",
                    "midi": 67,
                    "time": 31.087629904296904,
                    "velocity": 0.8818897637795275,
                    "duration": 0.23908329882812396
                },
                {
                    "name": "A#3",
                    "midi": 58,
                    "time": 31.087629904296904,
                    "velocity": 0.8188976377952756,
                    "duration": 0.23908329882812396
                },
                {
                    "name": "D#4",
                    "midi": 63,
                    "time": 31.087629904296904,
                    "velocity": 0.8976377952755905,
                    "duration": 0.23908329882812396
                },
                {
                    "name": "G4",
                    "midi": 67,
                    "time": 31.348162689453154,
                    "velocity": 0.8818897637795275,
                    "duration": 0.23908329882812396
                },
                {
                    "name": "A#3",
                    "midi": 58,
                    "time": 31.348162689453154,
                    "velocity": 0.8188976377952756,
                    "duration": 0.23908329882812396
                },
                {
                    "name": "D#4",
                    "midi": 63,
                    "time": 31.348162689453154,
                    "velocity": 0.8976377952755905,
                    "duration": 0.23908329882812396
                },
                {
                    "name": "G4",
                    "midi": 67,
                    "time": 31.608695474609405,
                    "velocity": 0.9763779527559056,
                    "duration": 0.3960307597656296
                },
                {
                    "name": "A#3",
                    "midi": 58,
                    "time": 31.608695474609405,
                    "velocity": 0.8188976377952756,
                    "duration": 0.24222224804687542
                },
                {
                    "name": "D#4",
                    "midi": 63,
                    "time": 31.608695474609405,
                    "velocity": 0.8976377952755905,
                    "duration": 0.24222224804687542
                },
                {
                    "name": "A#3",
                    "midi": 58,
                    "time": 31.872367208984407,
                    "velocity": 0.8188976377952756,
                    "duration": 0.24902330468749767
                },
                {
                    "name": "D#4",
                    "midi": 63,
                    "time": 31.872367208984407,
                    "velocity": 0.9291338582677166,
                    "duration": 0.24902330468749767
                },
                {
                    "name": "A#4",
                    "midi": 70,
                    "time": 32.00524939257816,
                    "velocity": 0.9763779527559056,
                    "duration": 0.04080633984374771
                },
                {
                    "name": "D#5",
                    "midi": 75,
                    "time": 32.04971783984378,
                    "velocity": 0.9763779527559056,
                    "duration": 0.041852656250000564
                },
                {
                    "name": "G5",
                    "midi": 79,
                    "time": 32.095232603515655,
                    "velocity": 0.9763779527559056,
                    "duration": 0.04394528906249917
                },
                {
                    "name": "F4",
                    "midi": 65,
                    "time": 32.14284000000003,
                    "velocity": 0.9133858267716536,
                    "duration": 0.26733384179687647
                },
                {
                    "name": "A#3",
                    "midi": 58,
                    "time": 32.14284000000003,
                    "velocity": 0.8503937007874016,
                    "duration": 0.26733384179687647
                },
                {
                    "name": "D4",
                    "midi": 62,
                    "time": 32.14284000000003,
                    "velocity": 0.9606299212598425,
                    "duration": 0.26733384179687647
                },
                {
                    "name": "F4",
                    "midi": 65,
                    "time": 32.43162332812503,
                    "velocity": 0.8818897637795275,
                    "duration": 0.241699089843749
                },
                {
                    "name": "A#3",
                    "midi": 58,
                    "time": 32.43162332812503,
                    "velocity": 0.8188976377952756,
                    "duration": 0.241699089843749
                },
                {
                    "name": "D4",
                    "midi": 62,
                    "time": 32.43162332812503,
                    "velocity": 0.8976377952755905,
                    "duration": 0.241699089843749
                },
                {
                    "name": "F4",
                    "midi": 65,
                    "time": 32.6947719042969,
                    "velocity": 0.8818897637795275,
                    "duration": 0.2390832988281275
                },
                {
                    "name": "A#3",
                    "midi": 58,
                    "time": 32.6947719042969,
                    "velocity": 0.8188976377952756,
                    "duration": 0.2390832988281275
                },
                {
                    "name": "D4",
                    "midi": 62,
                    "time": 32.6947719042969,
                    "velocity": 0.8976377952755905,
                    "duration": 0.2390832988281275
                },
                {
                    "name": "F4",
                    "midi": 65,
                    "time": 32.95530468945315,
                    "velocity": 0.8818897637795275,
                    "duration": 0.2390832988281275
                },
                {
                    "name": "A#3",
                    "midi": 58,
                    "time": 32.95530468945315,
                    "velocity": 0.8188976377952756,
                    "duration": 0.2390832988281275
                },
                {
                    "name": "D4",
                    "midi": 62,
                    "time": 32.95530468945315,
                    "velocity": 0.8976377952755905,
                    "duration": 0.2390832988281275
                },
                {
                    "name": "F4",
                    "midi": 65,
                    "time": 33.2158374746094,
                    "velocity": 0.9763779527559056,
                    "duration": 0.3960307597656225
                },
                {
                    "name": "A#3",
                    "midi": 58,
                    "time": 33.2158374746094,
                    "velocity": 0.8188976377952756,
                    "duration": 0.24222224804687187
                },
                {
                    "name": "D4",
                    "midi": 62,
                    "time": 33.2158374746094,
                    "velocity": 0.8976377952755905,
                    "duration": 0.24222224804687187
                },
                {
                    "name": "A#3",
                    "midi": 58,
                    "time": 33.479509208984396,
                    "velocity": 0.8188976377952756,
                    "duration": 0.24902330468749767
                },
                {
                    "name": "D4",
                    "midi": 62,
                    "time": 33.479509208984396,
                    "velocity": 0.9291338582677166,
                    "duration": 0.24902330468749767
                },
                {
                    "name": "A#4",
                    "midi": 70,
                    "time": 33.61239139257815,
                    "velocity": 0.9763779527559056,
                    "duration": 0.04080633984374771
                },
                {
                    "name": "D5",
                    "midi": 74,
                    "time": 33.65685983984377,
                    "velocity": 0.9763779527559056,
                    "duration": 0.041852656250000564
                },
                {
                    "name": "F5",
                    "midi": 77,
                    "time": 33.70237460351564,
                    "velocity": 0.9763779527559056,
                    "duration": 0.04394528906249917
                },
                {
                    "name": "G4",
                    "midi": 67,
                    "time": 33.74998200000002,
                    "velocity": 0.9133858267716536,
                    "duration": 0.26733384179687647
                },
                {
                    "name": "A#3",
                    "midi": 58,
                    "time": 33.74998200000002,
                    "velocity": 0.8503937007874016,
                    "duration": 0.26733384179687647
                },
                {
                    "name": "D#4",
                    "midi": 63,
                    "time": 33.74998200000002,
                    "velocity": 0.9606299212598425,
                    "duration": 0.26733384179687647
                },
                {
                    "name": "G4",
                    "midi": 67,
                    "time": 34.03876532812502,
                    "velocity": 0.8818897637795275,
                    "duration": 0.241699089843749
                },
                {
                    "name": "A#3",
                    "midi": 58,
                    "time": 34.03876532812502,
                    "velocity": 0.8188976377952756,
                    "duration": 0.241699089843749
                },
                {
                    "name": "D#4",
                    "midi": 63,
                    "time": 34.03876532812502,
                    "velocity": 0.8976377952755905,
                    "duration": 0.241699089843749
                },
                {
                    "name": "G4",
                    "midi": 67,
                    "time": 34.30191390429689,
                    "velocity": 0.8818897637795275,
                    "duration": 0.2390832988281275
                },
                {
                    "name": "A#3",
                    "midi": 58,
                    "time": 34.30191390429689,
                    "velocity": 0.8188976377952756,
                    "duration": 0.2390832988281275
                },
                {
                    "name": "D#4",
                    "midi": 63,
                    "time": 34.30191390429689,
                    "velocity": 0.8976377952755905,
                    "duration": 0.2390832988281275
                },
                {
                    "name": "G4",
                    "midi": 67,
                    "time": 34.56244668945314,
                    "velocity": 0.8818897637795275,
                    "duration": 0.2390832988281275
                },
                {
                    "name": "A#3",
                    "midi": 58,
                    "time": 34.56244668945314,
                    "velocity": 0.8188976377952756,
                    "duration": 0.2390832988281275
                },
                {
                    "name": "D#4",
                    "midi": 63,
                    "time": 34.56244668945314,
                    "velocity": 0.8976377952755905,
                    "duration": 0.2390832988281275
                },
                {
                    "name": "G4",
                    "midi": 67,
                    "time": 34.82297947460939,
                    "velocity": 0.9763779527559056,
                    "duration": 0.3960307597656225
                },
                {
                    "name": "A#3",
                    "midi": 58,
                    "time": 34.82297947460939,
                    "velocity": 0.8188976377952756,
                    "duration": 0.24222224804687187
                },
                {
                    "name": "D#4",
                    "midi": 63,
                    "time": 34.82297947460939,
                    "velocity": 0.8976377952755905,
                    "duration": 0.24222224804687187
                },
                {
                    "name": "A#3",
                    "midi": 58,
                    "time": 35.086651208984385,
                    "velocity": 0.8188976377952756,
                    "duration": 0.24902330468749767
                },
                {
                    "name": "D#4",
                    "midi": 63,
                    "time": 35.086651208984385,
                    "velocity": 0.9291338582677166,
                    "duration": 0.24902330468749767
                },
                {
                    "name": "A#4",
                    "midi": 70,
                    "time": 35.219533392578136,
                    "velocity": 0.9763779527559056,
                    "duration": 0.04080633984374771
                },
                {
                    "name": "D#5",
                    "midi": 75,
                    "time": 35.26400183984376,
                    "velocity": 0.9763779527559056,
                    "duration": 0.041852656250000564
                },
                {
                    "name": "G5",
                    "midi": 79,
                    "time": 35.30951660351563,
                    "velocity": 0.9763779527559056,
                    "duration": 0.04394528906249917
                },
                {
                    "name": "F4",
                    "midi": 65,
                    "time": 35.357124000000006,
                    "velocity": 0.9133858267716536,
                    "duration": 0.26733384179687647
                },
                {
                    "name": "A#3",
                    "midi": 58,
                    "time": 35.357124000000006,
                    "velocity": 0.8503937007874016,
                    "duration": 0.26733384179687647
                },
                {
                    "name": "D4",
                    "midi": 62,
                    "time": 35.357124000000006,
                    "velocity": 0.9606299212598425,
                    "duration": 0.26733384179687647
                },
                {
                    "name": "F4",
                    "midi": 65,
                    "time": 35.645907328125006,
                    "velocity": 0.8818897637795275,
                    "duration": 0.241699089843749
                },
                {
                    "name": "A#3",
                    "midi": 58,
                    "time": 35.645907328125006,
                    "velocity": 0.8188976377952756,
                    "duration": 0.241699089843749
                },
                {
                    "name": "D4",
                    "midi": 62,
                    "time": 35.645907328125006,
                    "velocity": 0.8976377952755905,
                    "duration": 0.241699089843749
                },
                {
                    "name": "F4",
                    "midi": 65,
                    "time": 35.90905590429688,
                    "velocity": 0.8818897637795275,
                    "duration": 0.2390832988281275
                },
                {
                    "name": "A#3",
                    "midi": 58,
                    "time": 35.90905590429688,
                    "velocity": 0.8188976377952756,
                    "duration": 0.2390832988281275
                },
                {
                    "name": "D4",
                    "midi": 62,
                    "time": 35.90905590429688,
                    "velocity": 0.8976377952755905,
                    "duration": 0.2390832988281275
                },
                {
                    "name": "F4",
                    "midi": 65,
                    "time": 36.16958868945313,
                    "velocity": 0.8818897637795275,
                    "duration": 0.2390832988281275
                },
                {
                    "name": "A#3",
                    "midi": 58,
                    "time": 36.16958868945313,
                    "velocity": 0.8188976377952756,
                    "duration": 0.2390832988281275
                },
                {
                    "name": "D4",
                    "midi": 62,
                    "time": 36.16958868945313,
                    "velocity": 0.8976377952755905,
                    "duration": 0.2390832988281275
                },
                {
                    "name": "F4",
                    "midi": 65,
                    "time": 36.43012147460938,
                    "velocity": 0.9763779527559056,
                    "duration": 0.3960307597656225
                },
                {
                    "name": "A#3",
                    "midi": 58,
                    "time": 36.43012147460938,
                    "velocity": 0.8188976377952756,
                    "duration": 0.24222224804687187
                },
                {
                    "name": "D4",
                    "midi": 62,
                    "time": 36.43012147460938,
                    "velocity": 0.8976377952755905,
                    "duration": 0.24222224804687187
                },
                {
                    "name": "A#3",
                    "midi": 58,
                    "time": 36.693793208984374,
                    "velocity": 0.8188976377952756,
                    "duration": 0.2804127968749981
                },
                {
                    "name": "D4",
                    "midi": 62,
                    "time": 36.693793208984374,
                    "velocity": 0.8976377952755905,
                    "duration": 0.24902330468749767
                },
                {
                    "name": "A#4",
                    "midi": 70,
                    "time": 36.826675392578125,
                    "velocity": 0.9763779527559056,
                    "duration": 0.04080633984374771
                },
                {
                    "name": "D5",
                    "midi": 74,
                    "time": 36.87114383984375,
                    "velocity": 0.9763779527559056,
                    "duration": 0.041852656250000564
                },
                {
                    "name": "F5",
                    "midi": 77,
                    "time": 36.91665860351562,
                    "velocity": 0.9763779527559056,
                    "duration": 0.04394528906249917
                },
                {
                    "name": "D#4",
                    "midi": 63,
                    "time": 36.964265999999995,
                    "velocity": 1,
                    "duration": 0.26733384179687647
                },
                {
                    "name": "C4",
                    "midi": 60,
                    "time": 36.964265999999995,
                    "velocity": 0.9133858267716536,
                    "duration": 0.26733384179687647
                },
                {
                    "name": "A#3",
                    "midi": 58,
                    "time": 36.964265999999995,
                    "velocity": 0.9133858267716536,
                    "duration": 0.26733384179687647
                },
                {
                    "name": "C5",
                    "midi": 72,
                    "time": 37.253049328124995,
                    "velocity": 0.9763779527559056,
                    "duration": 0.12032638671875162
                },
                {
                    "name": "C4",
                    "midi": 60,
                    "time": 37.253049328124995,
                    "velocity": 0.8818897637795275,
                    "duration": 0.2416990898437561
                },
                {
                    "name": "A#3",
                    "midi": 58,
                    "time": 37.253049328124995,
                    "velocity": 0.8818897637795275,
                    "duration": 0.2730885820312636
                },
                {
                    "name": "A#4",
                    "midi": 70,
                    "time": 37.3848851953125,
                    "velocity": 0.9763779527559056,
                    "duration": 0.11980322851562875
                },
                {
                    "name": "A4",
                    "midi": 69,
                    "time": 37.51619790429688,
                    "velocity": 0.9763779527559056,
                    "duration": 0.2390832988281275
                },
                {
                    "name": "C4",
                    "midi": 60,
                    "time": 37.51619790429688,
                    "velocity": 0.8818897637795275,
                    "duration": 0.2390832988281275
                },
                {
                    "name": "A3",
                    "midi": 57,
                    "time": 37.51619790429688,
                    "velocity": 0.8818897637795275,
                    "duration": 0.2390832988281275
                },
                {
                    "name": "G4",
                    "midi": 67,
                    "time": 37.77673068945313,
                    "velocity": 0.9763779527559056,
                    "duration": 0.2390832988281275
                },
                {
                    "name": "C4",
                    "midi": 60,
                    "time": 37.77673068945313,
                    "velocity": 0.8818897637795275,
                    "duration": 0.2390832988281275
                },
                {
                    "name": "A3",
                    "midi": 57,
                    "time": 37.77673068945313,
                    "velocity": 0.8818897637795275,
                    "duration": 0.2390832988281275
                },
                {
                    "name": "F4",
                    "midi": 65,
                    "time": 38.03726347460938,
                    "velocity": 0.9763779527559056,
                    "duration": 0.24222224804687187
                },
                {
                    "name": "C4",
                    "midi": 60,
                    "time": 38.03726347460938,
                    "velocity": 0.8818897637795275,
                    "duration": 0.24222224804687187
                },
                {
                    "name": "A3",
                    "midi": 57,
                    "time": 38.03726347460938,
                    "velocity": 0.8818897637795275,
                    "duration": 0.24222224804687187
                },
                {
                    "name": "D#4",
                    "midi": 63,
                    "time": 38.30093520898438,
                    "velocity": 0.9763779527559056,
                    "duration": 0.24902330468749767
                },
                {
                    "name": "C4",
                    "midi": 60,
                    "time": 38.30093520898438,
                    "velocity": 0.8818897637795275,
                    "duration": 0.2804127968749981
                },
                {
                    "name": "A3",
                    "midi": 57,
                    "time": 38.30093520898438,
                    "velocity": 0.8818897637795275,
                    "duration": 0.2804127968749981
                },
                {
                    "name": "F4",
                    "midi": 65,
                    "time": 38.571408,
                    "velocity": 1,
                    "duration": 0.08475162890625398
                },
                {
                    "name": "A#3",
                    "midi": 58,
                    "time": 38.571408,
                    "velocity": 0.9763779527559056,
                    "duration": 1.0724743164062502
                },
                {
                    "name": "D#4",
                    "midi": 63,
                    "time": 38.64726593945313,
                    "velocity": 0.9763779527559056,
                    "duration": 0.08475162890624688
                },
                {
                    "name": "F4",
                    "midi": 65,
                    "time": 38.72312387890625,
                    "velocity": 0.9763779527559056,
                    "duration": 0.08475162890624688
                },
                {
                    "name": "D#4",
                    "midi": 63,
                    "time": 38.79898181835937,
                    "velocity": 0.937007874015748,
                    "duration": 0.28355174609374956
                },
                {
                    "name": "D4",
                    "midi": 62,
                    "time": 39.12333990429687,
                    "velocity": 0.9763779527559056,
                    "duration": 0.5205424121093785
                },
                {
                    "name": "A#2",
                    "midi": 46,
                    "time": 39.12333990429687,
                    "velocity": 0.9763779527559056,
                    "duration": 0.5205424121093785
                },
                {
                    "name": "G4",
                    "midi": 67,
                    "time": 40.17855,
                    "velocity": 1,
                    "duration": 0.09626110937499988
                },
                {
                    "name": "A#3",
                    "midi": 58,
                    "time": 40.17855,
                    "velocity": 0.9133858267716536,
                    "duration": 0.2673338417968836
                },
                {
                    "name": "D#3",
                    "midi": 51,
                    "time": 40.17855,
                    "velocity": 0.9133858267716536,
                    "duration": 0.2673338417968836
                },
                {
                    "name": "F4",
                    "midi": 65,
                    "time": 40.264871103515624,
                    "velocity": 0.9763779527559056,
                    "duration": 0.09626110937500698
                },
                {
                    "name": "G4",
                    "midi": 67,
                    "time": 40.351192207031254,
                    "velocity": 0.937007874015748,
                    "duration": 0.08789057812500545
                },
                {
                    "name": "G4",
                    "midi": 67,
                    "time": 40.46733332812501,
                    "velocity": 0.8818897637795275,
                    "duration": 0.2254811855468759
                },
                {
                    "name": "A#3",
                    "midi": 58,
                    "time": 40.46733332812501,
                    "velocity": 0.8818897637795275,
                    "duration": 0.241699089843749
                },
                {
                    "name": "D#3",
                    "midi": 51,
                    "time": 40.46733332812501,
                    "velocity": 0.8818897637795275,
                    "duration": 0.241699089843749
                },
                {
                    "name": "G4",
                    "midi": 67,
                    "time": 40.71426400000001,
                    "velocity": 0.9763779527559056,
                    "duration": 0.09626110937499988
                },
                {
                    "name": "A#3",
                    "midi": 58,
                    "time": 40.73048190429688,
                    "velocity": 0.8818897637795275,
                    "duration": 0.23908329882813462
                },
                {
                    "name": "D#3",
                    "midi": 51,
                    "time": 40.73048190429688,
                    "velocity": 0.8818897637795275,
                    "duration": 0.23908329882813462
                },
                {
                    "name": "F4",
                    "midi": 65,
                    "time": 40.80058510351563,
                    "velocity": 0.9763779527559056,
                    "duration": 0.09626110937500698
                },
                {
                    "name": "G4",
                    "midi": 67,
                    "time": 40.88690620703126,
                    "velocity": 0.937007874015748,
                    "duration": 0.08789057812500545
                },
                {
                    "name": "G4",
                    "midi": 67,
                    "time": 40.99101468945314,
                    "velocity": 0.8818897637795275,
                    "duration": 0.2390832988281275
                },
                {
                    "name": "A#3",
                    "midi": 58,
                    "time": 40.99101468945314,
                    "velocity": 0.8818897637795275,
                    "duration": 0.2390832988281275
                },
                {
                    "name": "D#3",
                    "midi": 51,
                    "time": 40.99101468945314,
                    "velocity": 0.8818897637795275,
                    "duration": 0.2390832988281275
                },
                {
                    "name": "G4",
                    "midi": 67,
                    "time": 41.25154747460939,
                    "velocity": 0.8818897637795275,
                    "duration": 0.2736117402343652
                },
                {
                    "name": "A#3",
                    "midi": 58,
                    "time": 41.25154747460939,
                    "velocity": 0.8818897637795275,
                    "duration": 0.2736117402343652
                },
                {
                    "name": "D#3",
                    "midi": 51,
                    "time": 41.25154747460939,
                    "velocity": 0.8818897637795275,
                    "duration": 0.24222224804687187
                },
                {
                    "name": "C4",
                    "midi": 60,
                    "time": 41.515219208984384,
                    "velocity": 0.8818897637795275,
                    "duration": 0.2804127968750123
                },
                {
                    "name": "D#3",
                    "midi": 51,
                    "time": 41.515219208984384,
                    "velocity": 0.8818897637795275,
                    "duration": 0.2804127968750123
                },
                {
                    "name": "A#4",
                    "midi": 70,
                    "time": 41.517835000000005,
                    "velocity": 0.9763779527559056,
                    "duration": 0.016741062499995962
                },
                {
                    "name": "A4",
                    "midi": 69,
                    "time": 41.58113714257813,
                    "velocity": 0.9763779527559056,
                    "duration": 0.016741062500003068
                },
                {
                    "name": "A#4",
                    "midi": 70,
                    "time": 41.64443928515626,
                    "velocity": 0.9763779527559056,
                    "duration": 0.016741062500003068
                },
                {
                    "name": "A4",
                    "midi": 69,
                    "time": 41.70774142773439,
                    "velocity": 0.937007874015748,
                    "duration": 0.016741062500003068
                },
                {
                    "name": "A#4",
                    "midi": 70,
                    "time": 41.78569200000002,
                    "velocity": 1,
                    "duration": 0.14439166406250337
                },
                {
                    "name": "D4",
                    "midi": 62,
                    "time": 41.78569200000002,
                    "velocity": 1,
                    "duration": 0.14439166406250337
                },
                {
                    "name": "D3",
                    "midi": 50,
                    "time": 41.78569200000002,
                    "velocity": 1,
                    "duration": 0.14439166406250337
                },
                {
                    "name": "F4",
                    "midi": 65,
                    "time": 41.941593144531275,
                    "velocity": 0.9763779527559056,
                    "duration": 0.12137270312499737
                },
                {
                    "name": "D#4",
                    "midi": 63,
                    "time": 42.074475328125025,
                    "velocity": 0.9763779527559056,
                    "duration": 0.12032638671875162
                },
                {
                    "name": "D4",
                    "midi": 62,
                    "time": 42.20631119531253,
                    "velocity": 0.9763779527559056,
                    "duration": 0.11980322851562164
                },
                {
                    "name": "D4",
                    "midi": 62,
                    "time": 42.337623904296905,
                    "velocity": 0.9133858267716536,
                    "duration": 0.11875691210937589
                },
                {
                    "name": "F4",
                    "midi": 65,
                    "time": 42.337623904296905,
                    "velocity": 1,
                    "duration": 0.11875691210937589
                },
                {
                    "name": "D4",
                    "midi": 62,
                    "time": 42.467890296875034,
                    "velocity": 0.9763779527559056,
                    "duration": 0.11928007031249876
                },
                {
                    "name": "C4",
                    "midi": 60,
                    "time": 42.598156689453155,
                    "velocity": 0.9763779527559056,
                    "duration": 0.11928007031249876
                },
                {
                    "name": "A#3",
                    "midi": 58,
                    "time": 42.72842308203128,
                    "velocity": 0.9763779527559056,
                    "duration": 0.11928007031249876
                },
                {
                    "name": "A#3",
                    "midi": 58,
                    "time": 42.8586894746094,
                    "velocity": 0.9133858267716536,
                    "duration": 0.1208495449218745
                },
                {
                    "name": "D4",
                    "midi": 62,
                    "time": 42.8586894746094,
                    "velocity": 1,
                    "duration": 0.1208495449218745
                },
                {
                    "name": "D4",
                    "midi": 62,
                    "time": 42.990525341796896,
                    "velocity": 0.9763779527559056,
                    "duration": 0.1208495449218745
                },
                {
                    "name": "C4",
                    "midi": 60,
                    "time": 43.122361208984394,
                    "velocity": 0.9763779527559056,
                    "duration": 0.12189586132812735
                },
                {
                    "name": "A#3",
                    "midi": 58,
                    "time": 43.255243392578144,
                    "velocity": 0.9763779527559056,
                    "duration": 0.12660428515624744
                },
                {
                    "name": "G4",
                    "midi": 67,
                    "time": 43.392834000000015,
                    "velocity": 0.5669291338582677,
                    "duration": 0.26733384179687647
                },
                {
                    "name": "A#3",
                    "midi": 58,
                    "time": 43.392834000000015,
                    "velocity": 0.5669291338582677,
                    "duration": 0.26733384179687647
                },
                {
                    "name": "D#3",
                    "midi": 51,
                    "time": 43.392834000000015,
                    "velocity": 0.5669291338582677,
                    "duration": 0.26733384179687647
                },
                {
                    "name": "G4",
                    "midi": 67,
                    "time": 43.681617328125014,
                    "velocity": 0.5354330708661418,
                    "duration": 0.2254811855468759
                },
                {
                    "name": "A#3",
                    "midi": 58,
                    "time": 43.681617328125014,
                    "velocity": 0.5354330708661418,
                    "duration": 0.241699089843749
                },
                {
                    "name": "D#3",
                    "midi": 51,
                    "time": 43.681617328125014,
                    "velocity": 0.5354330708661418,
                    "duration": 0.241699089843749
                },
                {
                    "name": "G4",
                    "midi": 67,
                    "time": 43.92854800000001,
                    "velocity": 0.6299212598425197,
                    "duration": 0.09626110937499988
                },
                {
                    "name": "A#3",
                    "midi": 58,
                    "time": 43.94476590429689,
                    "velocity": 0.5354330708661418,
                    "duration": 0.23908329882813462
                },
                {
                    "name": "D#3",
                    "midi": 51,
                    "time": 43.94476590429689,
                    "velocity": 0.5354330708661418,
                    "duration": 0.23908329882813462
                },
                {
                    "name": "F4",
                    "midi": 65,
                    "time": 44.014869103515636,
                    "velocity": 0.6299212598425197,
                    "duration": 0.09626110937500698
                },
                {
                    "name": "G4",
                    "midi": 67,
                    "time": 44.101190207031266,
                    "velocity": 0.5905511811023622,
                    "duration": 0.08789057812500545
                },
                {
                    "name": "G4",
                    "midi": 67,
                    "time": 44.205298689453144,
                    "velocity": 0.5354330708661418,
                    "duration": 0.2390832988281275
                },
                {
                    "name": "A#3",
                    "midi": 58,
                    "time": 44.205298689453144,
                    "velocity": 0.5354330708661418,
                    "duration": 0.2390832988281275
                },
                {
                    "name": "D#3",
                    "midi": 51,
                    "time": 44.205298689453144,
                    "velocity": 0.5354330708661418,
                    "duration": 0.2390832988281275
                },
                {
                    "name": "G4",
                    "midi": 67,
                    "time": 44.465831474609395,
                    "velocity": 0.5354330708661418,
                    "duration": 0.2736117402343652
                },
                {
                    "name": "A#3",
                    "midi": 58,
                    "time": 44.465831474609395,
                    "velocity": 0.5354330708661418,
                    "duration": 0.2736117402343652
                },
                {
                    "name": "D#3",
                    "midi": 51,
                    "time": 44.465831474609395,
                    "velocity": 0.5354330708661418,
                    "duration": 0.24222224804687187
                },
                {
                    "name": "C4",
                    "midi": 60,
                    "time": 44.72950320898439,
                    "velocity": 0.5354330708661418,
                    "duration": 0.2804127968750123
                },
                {
                    "name": "D#3",
                    "midi": 51,
                    "time": 44.72950320898439,
                    "velocity": 0.5354330708661418,
                    "duration": 0.2804127968750123
                },
                {
                    "name": "A#4",
                    "midi": 70,
                    "time": 44.73211900000001,
                    "velocity": 0.6299212598425197,
                    "duration": 0.016741062499995962
                },
                {
                    "name": "A4",
                    "midi": 69,
                    "time": 44.795421142578135,
                    "velocity": 0.6299212598425197,
                    "duration": 0.016741062500003068
                },
                {
                    "name": "A#4",
                    "midi": 70,
                    "time": 44.858723285156266,
                    "velocity": 0.6299212598425197,
                    "duration": 0.016741062500003068
                },
                {
                    "name": "A4",
                    "midi": 69,
                    "time": 44.9220254277344,
                    "velocity": 0.5905511811023622,
                    "duration": 0.016741062500003068
                },
                {
                    "name": "A#4",
                    "midi": 70,
                    "time": 44.999976000000025,
                    "velocity": 0.6614173228346457,
                    "duration": 0.14439166406250337
                },
                {
                    "name": "D4",
                    "midi": 62,
                    "time": 44.999976000000025,
                    "velocity": 0.6614173228346457,
                    "duration": 0.14439166406250337
                },
                {
                    "name": "D3",
                    "midi": 50,
                    "time": 44.999976000000025,
                    "velocity": 0.6614173228346457,
                    "duration": 0.14439166406250337
                },
                {
                    "name": "F4",
                    "midi": 65,
                    "time": 45.15587714453128,
                    "velocity": 0.6299212598425197,
                    "duration": 0.12137270312499737
                },
                {
                    "name": "D#4",
                    "midi": 63,
                    "time": 45.28875932812503,
                    "velocity": 0.6299212598425197,
                    "duration": 0.12032638671875162
                },
                {
                    "name": "D4",
                    "midi": 62,
                    "time": 45.420595195312536,
                    "velocity": 0.6299212598425197,
                    "duration": 0.11980322851562164
                },
                {
                    "name": "D4",
                    "midi": 62,
                    "time": 45.55190790429691,
                    "velocity": 0.5669291338582677,
                    "duration": 0.11875691210937589
                },
                {
                    "name": "F4",
                    "midi": 65,
                    "time": 45.55190790429691,
                    "velocity": 0.6771653543307087,
                    "duration": 0.11875691210937589
                },
                {
                    "name": "D4",
                    "midi": 62,
                    "time": 45.68217429687504,
                    "velocity": 0.6299212598425197,
                    "duration": 0.11928007031249876
                },
                {
                    "name": "C4",
                    "midi": 60,
                    "time": 45.81244068945316,
                    "velocity": 0.6299212598425197,
                    "duration": 0.11928007031249876
                },
                {
                    "name": "A#3",
                    "midi": 58,
                    "time": 45.94270708203128,
                    "velocity": 0.6299212598425197,
                    "duration": 0.11928007031249876
                },
                {
                    "name": "A#3",
                    "midi": 58,
                    "time": 46.072973474609405,
                    "velocity": 0.5669291338582677,
                    "duration": 0.1208495449218745
                },
                {
                    "name": "D4",
                    "midi": 62,
                    "time": 46.072973474609405,
                    "velocity": 0.6771653543307087,
                    "duration": 0.1208495449218745
                },
                {
                    "name": "D4",
                    "midi": 62,
                    "time": 46.2048093417969,
                    "velocity": 0.6299212598425197,
                    "duration": 0.1208495449218745
                },
                {
                    "name": "C4",
                    "midi": 60,
                    "time": 46.3366452089844,
                    "velocity": 0.6299212598425197,
                    "duration": 0.12189586132812735
                },
                {
                    "name": "A#3",
                    "midi": 58,
                    "time": 46.46952739257815,
                    "velocity": 0.6299212598425197,
                    "duration": 0.12660428515624744
                },
                {
                    "name": "G4",
                    "midi": 67,
                    "time": 46.60711800000002,
                    "velocity": 1,
                    "duration": 0.26733384179687647
                },
                {
                    "name": "A#3",
                    "midi": 58,
                    "time": 46.60711800000002,
                    "velocity": 0.9133858267716536,
                    "duration": 0.26733384179687647
                },
                {
                    "name": "D#3",
                    "midi": 51,
                    "time": 46.60711800000002,
                    "velocity": 0.9133858267716536,
                    "duration": 0.26733384179687647
                },
                {
                    "name": "G4",
                    "midi": 67,
                    "time": 46.89590132812502,
                    "velocity": 0.9763779527559056,
                    "duration": 0.2254811855468759
                },
                {
                    "name": "A#3",
                    "midi": 58,
                    "time": 46.89590132812502,
                    "velocity": 0.8818897637795275,
                    "duration": 0.241699089843749
                },
                {
                    "name": "D#3",
                    "midi": 51,
                    "time": 46.89590132812502,
                    "velocity": 0.8818897637795275,
                    "duration": 0.241699089843749
                },
                {
                    "name": "G4",
                    "midi": 67,
                    "time": 47.14283200000002,
                    "velocity": 0.9763779527559056,
                    "duration": 0.09626110937499988
                },
                {
                    "name": "A#3",
                    "midi": 58,
                    "time": 47.15904990429689,
                    "velocity": 0.8818897637795275,
                    "duration": 0.23908329882813462
                },
                {
                    "name": "D#3",
                    "midi": 51,
                    "time": 47.15904990429689,
                    "velocity": 0.8818897637795275,
                    "duration": 0.23908329882813462
                },
                {
                    "name": "F4",
                    "midi": 65,
                    "time": 47.22915310351564,
                    "velocity": 0.9763779527559056,
                    "duration": 0.09626110937500698
                },
                {
                    "name": "G4",
                    "midi": 67,
                    "time": 47.31547420703127,
                    "velocity": 0.937007874015748,
                    "duration": 0.08789057812500545
                },
                {
                    "name": "G4",
                    "midi": 67,
                    "time": 47.41958268945315,
                    "velocity": 0.9763779527559056,
                    "duration": 0.2390832988281275
                },
                {
                    "name": "A#3",
                    "midi": 58,
                    "time": 47.41958268945315,
                    "velocity": 0.8818897637795275,
                    "duration": 0.2390832988281275
                },
                {
                    "name": "D#3",
                    "midi": 51,
                    "time": 47.41958268945315,
                    "velocity": 0.8818897637795275,
                    "duration": 0.2390832988281275
                },
                {
                    "name": "G4",
                    "midi": 67,
                    "time": 47.6801154746094,
                    "velocity": 0.9763779527559056,
                    "duration": 0.24222224804687187
                },
                {
                    "name": "A#3",
                    "midi": 58,
                    "time": 47.6801154746094,
                    "velocity": 0.8818897637795275,
                    "duration": 0.2736117402343652
                },
                {
                    "name": "D#3",
                    "midi": 51,
                    "time": 47.6801154746094,
                    "velocity": 0.8818897637795275,
                    "duration": 0.24222224804687187
                },
                {
                    "name": "C4",
                    "midi": 60,
                    "time": 47.943787208984396,
                    "velocity": 0.8818897637795275,
                    "duration": 0.2804127968750123
                },
                {
                    "name": "D#3",
                    "midi": 51,
                    "time": 47.943787208984396,
                    "velocity": 0.8818897637795275,
                    "duration": 0.2804127968750123
                },
                {
                    "name": "A#4",
                    "midi": 70,
                    "time": 47.94640300000002,
                    "velocity": 0.9763779527559056,
                    "duration": 0.016741062499995962
                },
                {
                    "name": "A4",
                    "midi": 69,
                    "time": 48.00970514257814,
                    "velocity": 0.9763779527559056,
                    "duration": 0.016741062500003068
                },
                {
                    "name": "A#4",
                    "midi": 70,
                    "time": 48.07300728515627,
                    "velocity": 0.9763779527559056,
                    "duration": 0.016741062500003068
                },
                {
                    "name": "A4",
                    "midi": 69,
                    "time": 48.1363094277344,
                    "velocity": 0.937007874015748,
                    "duration": 0.016741062500003068
                },
                {
                    "name": "A#4",
                    "midi": 70,
                    "time": 48.21426000000003,
                    "velocity": 1,
                    "duration": 0.26733384179687647
                },
                {
                    "name": "D4",
                    "midi": 62,
                    "time": 48.21426000000003,
                    "velocity": 1,
                    "duration": 0.5514087460937489
                },
                {
                    "name": "D3",
                    "midi": 50,
                    "time": 48.21426000000003,
                    "velocity": 1,
                    "duration": 0.8119415312499996
                },
                {
                    "name": "F4",
                    "midi": 65,
                    "time": 48.50304332812503,
                    "velocity": 0.9763779527559056,
                    "duration": 0.241699089843749
                },
                {
                    "name": "F4",
                    "midi": 65,
                    "time": 48.7661919042969,
                    "velocity": 0.9133858267716536,
                    "duration": 1.1080490742187408
                },
                {
                    "name": "D5",
                    "midi": 74,
                    "time": 48.7661919042969,
                    "velocity": 1,
                    "duration": 1.0546869374999943
                },
                {
                    "name": "D4",
                    "midi": 62,
                    "time": 48.7661919042969,
                    "velocity": 0.9763779527559056,
                    "duration": 1.0546869374999943
                },
                {
                    "name": "C3",
                    "midi": 48,
                    "time": 49.026724689453154,
                    "velocity": 0.9763779527559056,
                    "duration": 0.2390832988281275
                },
                {
                    "name": "D3",
                    "midi": 50,
                    "time": 49.287257474609405,
                    "velocity": 0.9763779527559056,
                    "duration": 0.24222224804687187
                },
                {
                    "name": "A#2",
                    "midi": 46,
                    "time": 49.5509292089844,
                    "velocity": 0.9763779527559056,
                    "duration": 0.24902330468749767
                },
                {
                    "name": "G4",
                    "midi": 67,
                    "time": 49.82140200000002,
                    "velocity": 0.8740157480314961,
                    "duration": 0.42009603710937427
                },
                {
                    "name": "A#4",
                    "midi": 70,
                    "time": 49.82140200000002,
                    "velocity": 0.984251968503937,
                    "duration": 0.42009603710937427
                },
                {
                    "name": "C4",
                    "midi": 60,
                    "time": 49.82140200000002,
                    "velocity": 1,
                    "duration": 0.5514087460937489
                },
                {
                    "name": "D#3",
                    "midi": 51,
                    "time": 49.82140200000002,
                    "velocity": 1,
                    "duration": 0.26733384179687647
                },
                {
                    "name": "C3",
                    "midi": 48,
                    "time": 50.11018532812502,
                    "velocity": 0.9763779527559056,
                    "duration": 0.241699089843749
                },
                {
                    "name": "C5",
                    "midi": 72,
                    "time": 50.24202119531252,
                    "velocity": 0.9763779527559056,
                    "duration": 0.11980322851562875
                },
                {
                    "name": "A#4",
                    "midi": 70,
                    "time": 50.35711600000002,
                    "velocity": 0.9763779527559056,
                    "duration": 0.08579794531249973
                },
                {
                    "name": "F3",
                    "midi": 53,
                    "time": 50.37333390429689,
                    "velocity": 0.9763779527559056,
                    "duration": 1.0546869375000014
                },
                {
                    "name": "A4",
                    "midi": 69,
                    "time": 50.434020255859394,
                    "velocity": 0.9763779527559056,
                    "duration": 0.08579794531249973
                },
                {
                    "name": "A#4",
                    "midi": 70,
                    "time": 50.51092451171877,
                    "velocity": 0.9763779527559056,
                    "duration": 0.08579794531249973
                },
                {
                    "name": "A4",
                    "midi": 69,
                    "time": 50.587828767578145,
                    "velocity": 0.937007874015748,
                    "duration": 0.5728582324218721
                },
                {
                    "name": "F2",
                    "midi": 41,
                    "time": 50.89439947460939,
                    "velocity": 0.968503937007874,
                    "duration": 0.5336213671875001
                },
                {
                    "name": "A#4",
                    "midi": 70,
                    "time": 51.158071208984396,
                    "velocity": 0.9763779527559056,
                    "duration": 0.24902330468749767
                },
                {
                    "name": "D#4",
                    "midi": 63,
                    "time": 51.158071208984396,
                    "velocity": 0.9763779527559056,
                    "duration": 0.24902330468749767
                },
                {
                    "name": "F4",
                    "midi": 65,
                    "time": 51.42854400000002,
                    "velocity": 0.9448818897637795,
                    "duration": 0.26733384179687647
                },
                {
                    "name": "A#4",
                    "midi": 70,
                    "time": 51.42854400000002,
                    "velocity": 1,
                    "duration": 0.26733384179687647
                },
                {
                    "name": "D4",
                    "midi": 62,
                    "time": 51.42854400000002,
                    "velocity": 1,
                    "duration": 0.26733384179687647
                },
                {
                    "name": "A#2",
                    "midi": 46,
                    "time": 51.42854400000002,
                    "velocity": 0.9763779527559056,
                    "duration": 1.0724743164062573
                },
                {
                    "name": "A#1",
                    "midi": 34,
                    "time": 51.42854400000002,
                    "velocity": 0.9448818897637795,
                    "duration": 1.0724743164062573
                },
                {
                    "name": "A#4",
                    "midi": 70,
                    "time": 51.717327328125016,
                    "velocity": 0.9763779527559056,
                    "duration": 0.2254811855468759
                },
                {
                    "name": "A#4",
                    "midi": 70,
                    "time": 51.964258000000015,
                    "velocity": 0.9763779527559056,
                    "duration": 0.09626110937499988
                },
                {
                    "name": "A4",
                    "midi": 69,
                    "time": 52.05057910351564,
                    "velocity": 0.9763779527559056,
                    "duration": 0.09626110937500698
                },
                {
                    "name": "A#4",
                    "midi": 70,
                    "time": 52.13690020703127,
                    "velocity": 0.937007874015748,
                    "duration": 0.08789057812500545
                },
                {
                    "name": "A#4",
                    "midi": 70,
                    "time": 52.241008689453146,
                    "velocity": 0.9763779527559056,
                    "duration": 0.2390832988281275
                },
                {
                    "name": "A#4",
                    "midi": 70,
                    "time": 52.5015414746094,
                    "velocity": 0.9763779527559056,
                    "duration": 0.24222224804687187
                },
                {
                    "name": "A#4",
                    "midi": 70,
                    "time": 52.76521320898439,
                    "velocity": 0.9763779527559056,
                    "duration": 0.24902330468749767
                },
                {
                    "name": "A#4",
                    "midi": 70,
                    "time": 53.03568600000001,
                    "velocity": 1,
                    "duration": 0.10306216601562568
                },
                {
                    "name": "D5",
                    "midi": 74,
                    "time": 53.14659553906251,
                    "velocity": 0.9763779527559056,
                    "duration": 0.08161267968750252
                },
                {
                    "name": "F5",
                    "midi": 77,
                    "time": 53.236055591796884,
                    "velocity": 0.9763779527559056,
                    "duration": 0.08056636328124966
                },
                {
                    "name": "A#4",
                    "midi": 70,
                    "time": 53.324469328125005,
                    "velocity": 0.8818897637795275,
                    "duration": 0.241699089843749
                },
                {
                    "name": "A#4",
                    "midi": 70,
                    "time": 53.58761790429688,
                    "velocity": 0.8818897637795275,
                    "duration": 0.2390832988281275
                },
                {
                    "name": "A#4",
                    "midi": 70,
                    "time": 53.84815068945313,
                    "velocity": 0.8818897637795275,
                    "duration": 0.2390832988281275
                },
                {
                    "name": "A#4",
                    "midi": 70,
                    "time": 54.10868347460938,
                    "velocity": 0.8818897637795275,
                    "duration": 0.24222224804687187
                },
                {
                    "name": "A#4",
                    "midi": 70,
                    "time": 54.372355208984374,
                    "velocity": 0.8818897637795275,
                    "duration": 0.24902330468749767
                },
                {
                    "name": "A#4",
                    "midi": 70,
                    "time": 54.642827999999994,
                    "velocity": 1,
                    "duration": 0.07899688867187393
                },
                {
                    "name": "D5",
                    "midi": 74,
                    "time": 54.72810278710937,
                    "velocity": 0.9763779527559056,
                    "duration": 0.06434845898437658
                },
                {
                    "name": "F5",
                    "midi": 77,
                    "time": 54.79872914453125,
                    "velocity": 0.9763779527559056,
                    "duration": 0.06016319335937226
                },
                {
                    "name": "A#5",
                    "midi": 82,
                    "time": 54.865170236328126,
                    "velocity": 0.9763779527559056,
                    "duration": 0.8501320800781258
                },
                {
                    "name": "D3",
                    "midi": 50,
                    "time": 54.931611328125,
                    "velocity": 0.8188976377952756,
                    "duration": 0.241699089843749
                },
                {
                    "name": "F3",
                    "midi": 53,
                    "time": 54.931611328125,
                    "velocity": 0.8976377952755905,
                    "duration": 0.241699089843749
                },
                {
                    "name": "A#2",
                    "midi": 46,
                    "time": 54.931611328125,
                    "velocity": 0.8818897637795275,
                    "duration": 0.241699089843749
                },
                {
                    "name": "D3",
                    "midi": 50,
                    "time": 55.19475990429687,
                    "velocity": 0.8188976377952756,
                    "duration": 0.2390832988281275
                },
                {
                    "name": "F3",
                    "midi": 53,
                    "time": 55.19475990429687,
                    "velocity": 0.8976377952755905,
                    "duration": 0.2390832988281275
                },
                {
                    "name": "A#2",
                    "midi": 46,
                    "time": 55.19475990429687,
                    "velocity": 0.8818897637795275,
                    "duration": 0.2390832988281275
                },
                {
                    "name": "D3",
                    "midi": 50,
                    "time": 55.455292689453124,
                    "velocity": 0.8188976377952756,
                    "duration": 0.2390832988281275
                },
                {
                    "name": "F3",
                    "midi": 53,
                    "time": 55.455292689453124,
                    "velocity": 0.8976377952755905,
                    "duration": 0.2390832988281275
                },
                {
                    "name": "A#2",
                    "midi": 46,
                    "time": 55.455292689453124,
                    "velocity": 0.8818897637795275,
                    "duration": 0.2390832988281275
                },
                {
                    "name": "G#5",
                    "midi": 80,
                    "time": 55.715825474609375,
                    "velocity": 0.9763779527559056,
                    "duration": 0.533621367187493
                },
                {
                    "name": "D3",
                    "midi": 50,
                    "time": 55.715825474609375,
                    "velocity": 0.8188976377952756,
                    "duration": 0.24222224804687187
                },
                {
                    "name": "F3",
                    "midi": 53,
                    "time": 55.715825474609375,
                    "velocity": 0.8976377952755905,
                    "duration": 0.24222224804687187
                },
                {
                    "name": "A#2",
                    "midi": 46,
                    "time": 55.715825474609375,
                    "velocity": 0.8818897637795275,
                    "duration": 0.24222224804687187
                },
                {
                    "name": "D3",
                    "midi": 50,
                    "time": 55.97949720898437,
                    "velocity": 0.8188976377952756,
                    "duration": 0.24902330468749767
                },
                {
                    "name": "F3",
                    "midi": 53,
                    "time": 55.97949720898437,
                    "velocity": 0.9291338582677166,
                    "duration": 0.24902330468749767
                },
                {
                    "name": "A#2",
                    "midi": 46,
                    "time": 55.97949720898437,
                    "velocity": 0.8818897637795275,
                    "duration": 0.2804127968749981
                },
                {
                    "name": "G#5",
                    "midi": 80,
                    "time": 56.24996999999999,
                    "velocity": 1,
                    "duration": 0.14439166406250337
                },
                {
                    "name": "D3",
                    "midi": 50,
                    "time": 56.24996999999999,
                    "velocity": 0.8503937007874016,
                    "duration": 0.2673338417968836
                },
                {
                    "name": "G3",
                    "midi": 55,
                    "time": 56.24996999999999,
                    "velocity": 0.9606299212598425,
                    "duration": 0.2673338417968836
                },
                {
                    "name": "B2",
                    "midi": 47,
                    "time": 56.24996999999999,
                    "velocity": 0.9133858267716536,
                    "duration": 0.2673338417968836
                },
                {
                    "name": "G#5",
                    "midi": 80,
                    "time": 56.383898499999994,
                    "velocity": 0.9763779527559056,
                    "duration": 0.1302663925781289
                },
                {
                    "name": "G5",
                    "midi": 79,
                    "time": 56.50056277929687,
                    "velocity": 0.9763779527559056,
                    "duration": 0.07481162304686961
                },
                {
                    "name": "D3",
                    "midi": 50,
                    "time": 56.538753328125,
                    "velocity": 0.8188976377952756,
                    "duration": 0.24169908984373478
                },
                {
                    "name": "G3",
                    "midi": 55,
                    "time": 56.538753328125,
                    "velocity": 0.8976377952755905,
                    "duration": 0.24169908984373478
                },
                {
                    "name": "B2",
                    "midi": 47,
                    "time": 56.538753328125,
                    "velocity": 0.8818897637795275,
                    "duration": 0.24169908984373478
                },
                {
                    "name": "G#5",
                    "midi": 80,
                    "time": 56.56752702929687,
                    "velocity": 0.9763779527559056,
                    "duration": 0.07481162304686961
                },
                {
                    "name": "G5",
                    "midi": 79,
                    "time": 56.63449127929687,
                    "velocity": 0.9763779527559056,
                    "duration": 0.07481162304686961
                },
                {
                    "name": "G#5",
                    "midi": 80,
                    "time": 56.701455529296865,
                    "velocity": 0.9763779527559056,
                    "duration": 0.07481162304686961
                },
                {
                    "name": "G5",
                    "midi": 79,
                    "time": 56.76841977929686,
                    "velocity": 0.937007874015748,
                    "duration": 0.5540245371093704
                },
                {
                    "name": "D3",
                    "midi": 50,
                    "time": 56.801901904296855,
                    "velocity": 0.8188976377952756,
                    "duration": 0.2390832988281275
                },
                {
                    "name": "G3",
                    "midi": 55,
                    "time": 56.801901904296855,
                    "velocity": 0.8976377952755905,
                    "duration": 0.2390832988281275
                },
                {
                    "name": "B2",
                    "midi": 47,
                    "time": 56.801901904296855,
                    "velocity": 0.8818897637795275,
                    "duration": 0.2390832988281275
                },
                {
                    "name": "D3",
                    "midi": 50,
                    "time": 57.062434689453106,
                    "velocity": 0.8188976377952756,
                    "duration": 0.2390832988281275
                },
                {
                    "name": "G3",
                    "midi": 55,
                    "time": 57.062434689453106,
                    "velocity": 0.8976377952755905,
                    "duration": 0.2390832988281275
                },
                {
                    "name": "B2",
                    "midi": 47,
                    "time": 57.062434689453106,
                    "velocity": 0.8818897637795275,
                    "duration": 0.2390832988281275
                },
                {
                    "name": "F5",
                    "midi": 77,
                    "time": 57.32296747460936,
                    "velocity": 0.9763779527559056,
                    "duration": 0.533621367187493
                },
                {
                    "name": "D3",
                    "midi": 50,
                    "time": 57.32296747460936,
                    "velocity": 0.8188976377952756,
                    "duration": 0.24222224804687187
                },
                {
                    "name": "G3",
                    "midi": 55,
                    "time": 57.32296747460936,
                    "velocity": 0.8976377952755905,
                    "duration": 0.24222224804687187
                },
                {
                    "name": "B2",
                    "midi": 47,
                    "time": 57.32296747460936,
                    "velocity": 0.8818897637795275,
                    "duration": 0.24222224804687187
                },
                {
                    "name": "D3",
                    "midi": 50,
                    "time": 57.58663920898435,
                    "velocity": 0.905511811023622,
                    "duration": 0.2804127968749981
                },
                {
                    "name": "G3",
                    "midi": 55,
                    "time": 57.58663920898435,
                    "velocity": 0.8661417322834646,
                    "duration": 0.24902330468749767
                },
                {
                    "name": "B2",
                    "midi": 47,
                    "time": 57.58663920898435,
                    "velocity": 0.8818897637795275,
                    "duration": 0.2804127968749981
                },
                {
                    "name": "F5",
                    "midi": 77,
                    "time": 57.85711199999997,
                    "velocity": 1,
                    "duration": 0.14439166406250337
                },
                {
                    "name": "D#3",
                    "midi": 51,
                    "time": 57.85711199999997,
                    "velocity": 0.937007874015748,
                    "duration": 0.298723333984384
                },
                {
                    "name": "G3",
                    "midi": 55,
                    "time": 57.85711199999997,
                    "velocity": 0.8976377952755905,
                    "duration": 0.298723333984384
                },
                {
                    "name": "C3",
                    "midi": 48,
                    "time": 57.85711199999997,
                    "velocity": 0.9133858267716536,
                    "duration": 0.2673338417968836
                },
                {
                    "name": "F5",
                    "midi": 77,
                    "time": 57.991040499999976,
                    "velocity": 0.9763779527559056,
                    "duration": 0.12869691796875316
                },
                {
                    "name": "D#5",
                    "midi": 75,
                    "time": 58.10613530468748,
                    "velocity": 0.9763779527559056,
                    "duration": 0.07481162304687672
                },
                {
                    "name": "C3",
                    "midi": 48,
                    "time": 58.14589532812498,
                    "velocity": 0.8818897637795275,
                    "duration": 0.2416990898437419
                },
                {
                    "name": "F5",
                    "midi": 77,
                    "time": 58.17309955468748,
                    "velocity": 0.9763779527559056,
                    "duration": 0.07481162304686961
                },
                {
                    "name": "D#5",
                    "midi": 75,
                    "time": 58.24006380468748,
                    "velocity": 0.9763779527559056,
                    "duration": 0.07481162304686961
                },
                {
                    "name": "F5",
                    "midi": 77,
                    "time": 58.30702805468748,
                    "velocity": 0.9763779527559056,
                    "duration": 0.07481162304686961
                },
                {
                    "name": "D#5",
                    "midi": 75,
                    "time": 58.37399230468748,
                    "velocity": 0.937007874015748,
                    "duration": 0.017787378906241713
                },
                {
                    "name": "D#5",
                    "midi": 75,
                    "time": 58.409043904296844,
                    "velocity": 0.9763779527559056,
                    "duration": 0.2390832988281275
                },
                {
                    "name": "C3",
                    "midi": 48,
                    "time": 58.409043904296844,
                    "velocity": 0.8818897637795275,
                    "duration": 0.2390832988281275
                },
                {
                    "name": "D5",
                    "midi": 74,
                    "time": 58.669576689453095,
                    "velocity": 0.9763779527559056,
                    "duration": 0.2390832988281275
                },
                {
                    "name": "C3",
                    "midi": 48,
                    "time": 58.669576689453095,
                    "velocity": 0.8818897637795275,
                    "duration": 0.2390832988281275
                },
                {
                    "name": "C5",
                    "midi": 72,
                    "time": 58.930109474609345,
                    "velocity": 0.9763779527559056,
                    "duration": 0.533621367187493
                },
                {
                    "name": "C3",
                    "midi": 48,
                    "time": 58.930109474609345,
                    "velocity": 0.8818897637795275,
                    "duration": 0.24222224804687187
                },
                {
                    "name": "C3",
                    "midi": 48,
                    "time": 59.19378120898434,
                    "velocity": 0.8818897637795275,
                    "duration": 0.2804127968749981
                },
                {
                    "name": "C3",
                    "midi": 48,
                    "time": 59.46425399999996,
                    "velocity": 1,
                    "duration": 0.07899688867187393
                },
                {
                    "name": "D#3",
                    "midi": 51,
                    "time": 59.54952878710934,
                    "velocity": 0.9763779527559056,
                    "duration": 0.06434845898437658
                },
                {
                    "name": "G3",
                    "midi": 55,
                    "time": 59.62015514453122,
                    "velocity": 0.9763779527559056,
                    "duration": 0.06016319335937226
                },
                {
                    "name": "C4",
                    "midi": 60,
                    "time": 59.68659623632809,
                    "velocity": 0.9763779527559056,
                    "duration": 0.06016319335937226
                },
                {
                    "name": "C5",
                    "midi": 72,
                    "time": 59.75303732812497,
                    "velocity": 0.5354330708661418,
                    "duration": 0.241699089843749
                },
                {
                    "name": "C5",
                    "midi": 72,
                    "time": 60.01618590429684,
                    "velocity": 0.5354330708661418,
                    "duration": 0.2390832988281275
                },
                {
                    "name": "C5",
                    "midi": 72,
                    "time": 60.27671868945309,
                    "velocity": 0.5354330708661418,
                    "duration": 0.2390832988281275
                },
                {
                    "name": "C5",
                    "midi": 72,
                    "time": 60.53725147460934,
                    "velocity": 0.5354330708661418,
                    "duration": 0.24222224804687187
                },
                {
                    "name": "C5",
                    "midi": 72,
                    "time": 60.80092320898434,
                    "velocity": 0.5354330708661418,
                    "duration": 0.24902330468749767
                },
                {
                    "name": "C5",
                    "midi": 72,
                    "time": 61.07139599999996,
                    "velocity": 0.6614173228346457,
                    "duration": 0.10306216601562568
                },
                {
                    "name": "D#5",
                    "midi": 75,
                    "time": 61.182305539062455,
                    "velocity": 0.6299212598425197,
                    "duration": 0.08161267968750252
                },
                {
                    "name": "G5",
                    "midi": 79,
                    "time": 61.27176559179683,
                    "velocity": 0.6299212598425197,
                    "duration": 0.08056636328124966
                },
                {
                    "name": "C5",
                    "midi": 72,
                    "time": 61.36017932812495,
                    "velocity": 0.5354330708661418,
                    "duration": 0.241699089843749
                },
                {
                    "name": "C5",
                    "midi": 72,
                    "time": 61.62332790429682,
                    "velocity": 0.5354330708661418,
                    "duration": 0.2390832988281275
                },
                {
                    "name": "C5",
                    "midi": 72,
                    "time": 61.88386068945307,
                    "velocity": 0.5354330708661418,
                    "duration": 0.2390832988281275
                },
                {
                    "name": "C5",
                    "midi": 72,
                    "time": 62.14439347460932,
                    "velocity": 0.5354330708661418,
                    "duration": 0.24222224804687187
                },
                {
                    "name": "C5",
                    "midi": 72,
                    "time": 62.40806520898432,
                    "velocity": 0.5354330708661418,
                    "duration": 0.24902330468749767
                },
                {
                    "name": "C5",
                    "midi": 72,
                    "time": 62.67853799999994,
                    "velocity": 0.6614173228346457,
                    "duration": 0.10306216601562568
                },
                {
                    "name": "D#5",
                    "midi": 75,
                    "time": 62.78944753906244,
                    "velocity": 0.6299212598425197,
                    "duration": 0.08161267968750252
                },
                {
                    "name": "G5",
                    "midi": 79,
                    "time": 62.87890759179681,
                    "velocity": 0.6299212598425197,
                    "duration": 0.08056636328124966
                },
                {
                    "name": "C6",
                    "midi": 84,
                    "time": 62.96732132812493,
                    "velocity": 0.6299212598425197,
                    "duration": 0.7836909882812506
                },
                {
                    "name": "D#3",
                    "midi": 51,
                    "time": 62.96732132812493,
                    "velocity": 0.47244094488188976,
                    "duration": 0.241699089843749
                },
                {
                    "name": "G3",
                    "midi": 55,
                    "time": 62.96732132812493,
                    "velocity": 0.5511811023622047,
                    "duration": 0.241699089843749
                },
                {
                    "name": "C3",
                    "midi": 48,
                    "time": 62.96732132812493,
                    "velocity": 0.5354330708661418,
                    "duration": 0.241699089843749
                },
                {
                    "name": "D#3",
                    "midi": 51,
                    "time": 63.230469904296804,
                    "velocity": 0.47244094488188976,
                    "duration": 0.2390832988281275
                },
                {
                    "name": "G3",
                    "midi": 55,
                    "time": 63.230469904296804,
                    "velocity": 0.5511811023622047,
                    "duration": 0.2390832988281275
                },
                {
                    "name": "C3",
                    "midi": 48,
                    "time": 63.230469904296804,
                    "velocity": 0.5354330708661418,
                    "duration": 0.2390832988281275
                },
                {
                    "name": "D#3",
                    "midi": 51,
                    "time": 63.491002689453055,
                    "velocity": 0.47244094488188976,
                    "duration": 0.2390832988281275
                },
                {
                    "name": "G3",
                    "midi": 55,
                    "time": 63.491002689453055,
                    "velocity": 0.5511811023622047,
                    "duration": 0.2390832988281275
                },
                {
                    "name": "C3",
                    "midi": 48,
                    "time": 63.491002689453055,
                    "velocity": 0.5354330708661418,
                    "duration": 0.2390832988281275
                },
                {
                    "name": "A#5",
                    "midi": 82,
                    "time": 63.751535474609305,
                    "velocity": 0.6299212598425197,
                    "duration": 0.5336213671875001
                },
                {
                    "name": "D#3",
                    "midi": 51,
                    "time": 63.751535474609305,
                    "velocity": 0.47244094488188976,
                    "duration": 0.24222224804687187
                },
                {
                    "name": "G3",
                    "midi": 55,
                    "time": 63.751535474609305,
                    "velocity": 0.5511811023622047,
                    "duration": 0.24222224804687187
                },
                {
                    "name": "C3",
                    "midi": 48,
                    "time": 63.751535474609305,
                    "velocity": 0.5354330708661418,
                    "duration": 0.24222224804687187
                },
                {
                    "name": "D#3",
                    "midi": 51,
                    "time": 64.01520720898431,
                    "velocity": 0.47244094488188976,
                    "duration": 0.2804127968749981
                },
                {
                    "name": "G3",
                    "midi": 55,
                    "time": 64.01520720898431,
                    "velocity": 0.5826771653543307,
                    "duration": 0.24902330468749767
                },
                {
                    "name": "C3",
                    "midi": 48,
                    "time": 64.01520720898431,
                    "velocity": 0.5354330708661418,
                    "duration": 0.2804127968749981
                },
                {
                    "name": "A#5",
                    "midi": 82,
                    "time": 64.28567999999993,
                    "velocity": 0.6614173228346457,
                    "duration": 0.14439166406249626
                },
                {
                    "name": "E3",
                    "midi": 52,
                    "time": 64.28567999999993,
                    "velocity": 0.5039370078740157,
                    "duration": 0.26733384179686936
                },
                {
                    "name": "A3",
                    "midi": 57,
                    "time": 64.28567999999993,
                    "velocity": 0.6141732283464567,
                    "duration": 0.26733384179686936
                },
                {
                    "name": "C#3",
                    "midi": 49,
                    "time": 64.28567999999993,
                    "velocity": 0.5669291338582677,
                    "duration": 0.26733384179686936
                },
                {
                    "name": "A#5",
                    "midi": 82,
                    "time": 64.41960849999992,
                    "velocity": 0.6299212598425197,
                    "duration": 0.1297432343749989
                },
                {
                    "name": "A5",
                    "midi": 81,
                    "time": 64.53574962109367,
                    "velocity": 0.6299212598425197,
                    "duration": 0.07481162304686961
                },
                {
                    "name": "E3",
                    "midi": 52,
                    "time": 64.57446332812492,
                    "velocity": 0.47244094488188976,
                    "duration": 0.24169908984373478
                },
                {
                    "name": "A3",
                    "midi": 57,
                    "time": 64.57446332812492,
                    "velocity": 0.5511811023622047,
                    "duration": 0.24169908984373478
                },
                {
                    "name": "C#3",
                    "midi": 49,
                    "time": 64.57446332812492,
                    "velocity": 0.5354330708661418,
                    "duration": 0.24169908984373478
                },
                {
                    "name": "A#5",
                    "midi": 82,
                    "time": 64.60271387109367,
                    "velocity": 0.6299212598425197,
                    "duration": 0.07481162304686961
                },
                {
                    "name": "A5",
                    "midi": 81,
                    "time": 64.66967812109367,
                    "velocity": 0.6299212598425197,
                    "duration": 0.07481162304686961
                },
                {
                    "name": "A#5",
                    "midi": 82,
                    "time": 64.73664237109367,
                    "velocity": 0.6299212598425197,
                    "duration": 0.07481162304686961
                },
                {
                    "name": "A5",
                    "midi": 81,
                    "time": 64.80360662109366,
                    "velocity": 0.5905511811023622,
                    "duration": 0.016741062499988857
                },
                {
                    "name": "A5",
                    "midi": 81,
                    "time": 64.83761190429678,
                    "velocity": 0.6299212598425197,
                    "duration": 0.5205424121093642
                },
                {
                    "name": "E3",
                    "midi": 52,
                    "time": 64.83761190429678,
                    "velocity": 0.47244094488188976,
                    "duration": 0.2390832988281204
                },
                {
                    "name": "A3",
                    "midi": 57,
                    "time": 64.83761190429678,
                    "velocity": 0.5511811023622047,
                    "duration": 0.2390832988281204
                },
                {
                    "name": "C#3",
                    "midi": 49,
                    "time": 64.83761190429678,
                    "velocity": 0.5354330708661418,
                    "duration": 0.2390832988281204
                },
                {
                    "name": "E3",
                    "midi": 52,
                    "time": 65.09814468945302,
                    "velocity": 0.47244094488188976,
                    "duration": 0.2390832988281204
                },
                {
                    "name": "A3",
                    "midi": 57,
                    "time": 65.09814468945302,
                    "velocity": 0.5511811023622047,
                    "duration": 0.2390832988281204
                },
                {
                    "name": "C#3",
                    "midi": 49,
                    "time": 65.09814468945302,
                    "velocity": 0.5354330708661418,
                    "duration": 0.2390832988281204
                },
                {
                    "name": "G5",
                    "midi": 79,
                    "time": 65.35867747460927,
                    "velocity": 0.6299212598425197,
                    "duration": 0.533621367187493
                },
                {
                    "name": "E3",
                    "midi": 52,
                    "time": 65.35867747460927,
                    "velocity": 0.47244094488188976,
                    "duration": 0.24222224804687187
                },
                {
                    "name": "A3",
                    "midi": 57,
                    "time": 65.35867747460927,
                    "velocity": 0.5511811023622047,
                    "duration": 0.24222224804687187
                },
                {
                    "name": "C#3",
                    "midi": 49,
                    "time": 65.35867747460927,
                    "velocity": 0.5354330708661418,
                    "duration": 0.24222224804687187
                },
                {
                    "name": "E3",
                    "midi": 52,
                    "time": 65.62234920898426,
                    "velocity": 0.5590551181102362,
                    "duration": 0.2804127968749981
                },
                {
                    "name": "A3",
                    "midi": 57,
                    "time": 65.62234920898426,
                    "velocity": 0.5196850393700787,
                    "duration": 0.24902330468749767
                },
                {
                    "name": "C#3",
                    "midi": 49,
                    "time": 65.62234920898426,
                    "velocity": 0.5354330708661418,
                    "duration": 0.2804127968749981
                },
                {
                    "name": "G5",
                    "midi": 79,
                    "time": 65.89282199999988,
                    "velocity": 0.6614173228346457,
                    "duration": 0.14439166406249626
                },
                {
                    "name": "F#3",
                    "midi": 54,
                    "time": 65.89282199999988,
                    "velocity": 0.5905511811023622,
                    "duration": 0.2987233339843698
                },
                {
                    "name": "A3",
                    "midi": 57,
                    "time": 65.89282199999988,
                    "velocity": 0.5511811023622047,
                    "duration": 0.2987233339843698
                },
                {
                    "name": "D3",
                    "midi": 50,
                    "time": 65.89282199999988,
                    "velocity": 0.5669291338582677,
                    "duration": 0.26733384179686936
                },
                {
                    "name": "G5",
                    "midi": 79,
                    "time": 66.02675049999988,
                    "velocity": 0.6299212598425197,
                    "duration": 0.12712744335937032
                },
                {
                    "name": "F#5",
                    "midi": 78,
                    "time": 66.140275830078,
                    "velocity": 0.6299212598425197,
                    "duration": 0.07481162304686961
                },
                {
                    "name": "D3",
                    "midi": 50,
                    "time": 66.18160532812487,
                    "velocity": 0.5354330708661418,
                    "duration": 0.24169908984373478
                },
                {
                    "name": "G5",
                    "midi": 79,
                    "time": 66.207240080078,
                    "velocity": 0.6299212598425197,
                    "duration": 0.07481162304686961
                },
                {
                    "name": "F#5",
                    "midi": 78,
                    "time": 66.27420433007799,
                    "velocity": 0.6299212598425197,
                    "duration": 0.07481162304686961
                },
                {
                    "name": "G5",
                    "midi": 79,
                    "time": 66.34116858007799,
                    "velocity": 0.6299212598425197,
                    "duration": 0.07481162304686961
                },
                {
                    "name": "F#5",
                    "midi": 78,
                    "time": 66.40813283007799,
                    "velocity": 0.5905511811023622,
                    "duration": 0.01883369531249457
                },
                {
                    "name": "F#5",
                    "midi": 78,
                    "time": 66.44475390429673,
                    "velocity": 0.6299212598425197,
                    "duration": 0.2390832988281204
                },
                {
                    "name": "D3",
                    "midi": 50,
                    "time": 66.44475390429673,
                    "velocity": 0.5354330708661418,
                    "duration": 0.2390832988281204
                },
                {
                    "name": "E5",
                    "midi": 76,
                    "time": 66.70528668945298,
                    "velocity": 0.6299212598425197,
                    "duration": 0.2390832988281204
                },
                {
                    "name": "D3",
                    "midi": 50,
                    "time": 66.70528668945298,
                    "velocity": 0.5354330708661418,
                    "duration": 0.2390832988281204
                },
                {
                    "name": "D5",
                    "midi": 74,
                    "time": 66.96581947460922,
                    "velocity": 0.6299212598425197,
                    "duration": 0.533621367187493
                },
                {
                    "name": "D3",
                    "midi": 50,
                    "time": 66.96581947460922,
                    "velocity": 0.5354330708661418,
                    "duration": 0.24222224804687187
                },
                {
                    "name": "D3",
                    "midi": 50,
                    "time": 67.22949120898421,
                    "velocity": 0.5354330708661418,
                    "duration": 0.2804127968749981
                },
                {
                    "name": "D3",
                    "midi": 50,
                    "time": 67.49996399999984,
                    "velocity": 0.6614173228346457,
                    "duration": 0.07899688867188104
                },
                {
                    "name": "F#3",
                    "midi": 54,
                    "time": 67.58523878710922,
                    "velocity": 0.6299212598425197,
                    "duration": 0.06434845898436947
                },
                {
                    "name": "A3",
                    "midi": 57,
                    "time": 67.65586514453109,
                    "velocity": 0.6299212598425197,
                    "duration": 0.06016319335937226
                },
                {
                    "name": "D4",
                    "midi": 62,
                    "time": 67.72230623632797,
                    "velocity": 0.6299212598425197,
                    "duration": 0.06016319335937226
                },
                {
                    "name": "A4",
                    "midi": 69,
                    "time": 67.78874732812484,
                    "velocity": 0.8818897637795275,
                    "duration": 0.241699089843749
                },
                {
                    "name": "A4",
                    "midi": 69,
                    "time": 68.05189590429671,
                    "velocity": 0.8818897637795275,
                    "duration": 0.2390832988281204
                },
                {
                    "name": "A4",
                    "midi": 69,
                    "time": 68.31242868945296,
                    "velocity": 0.8818897637795275,
                    "duration": 0.2390832988281204
                },
                {
                    "name": "A4",
                    "midi": 69,
                    "time": 68.5729614746092,
                    "velocity": 0.8818897637795275,
                    "duration": 0.24222224804687187
                },
                {
                    "name": "A4",
                    "midi": 69,
                    "time": 68.8366332089842,
                    "velocity": 0.8818897637795275,
                    "duration": 0.2804127968749981
                },
                {
                    "name": "D4",
                    "midi": 62,
                    "time": 68.8366332089842,
                    "velocity": 0.9763779527559056,
                    "duration": 0.24902330468749767
                },
                {
                    "name": "A#4",
                    "midi": 70,
                    "time": 69.10710599999982,
                    "velocity": 1,
                    "duration": 0.14439166406249626
                },
                {
                    "name": "G4",
                    "midi": 67,
                    "time": 69.10710599999982,
                    "velocity": 1,
                    "duration": 0.14439166406249626
                },
                {
                    "name": "A4",
                    "midi": 69,
                    "time": 69.26300714453106,
                    "velocity": 0.9763779527559056,
                    "duration": 0.12137270312500448
                },
                {
                    "name": "F#4",
                    "midi": 66,
                    "time": 69.26300714453106,
                    "velocity": 0.9763779527559056,
                    "duration": 0.12137270312500448
                },
                {
                    "name": "A#4",
                    "midi": 70,
                    "time": 69.37496299999981,
                    "velocity": 0.9763779527559056,
                    "duration": 0.047607396484380615
                },
                {
                    "name": "G4",
                    "midi": 67,
                    "time": 69.37496299999981,
                    "velocity": 0.9763779527559056,
                    "duration": 0.047607396484380615
                },
                {
                    "name": "A4",
                    "midi": 69,
                    "time": 69.41786197265607,
                    "velocity": 0.9763779527559056,
                    "duration": 0.047607396484366404
                },
                {
                    "name": "F#4",
                    "midi": 66,
                    "time": 69.41786197265607,
                    "velocity": 0.9763779527559056,
                    "duration": 0.047607396484366404
                },
                {
                    "name": "A#4",
                    "midi": 70,
                    "time": 69.46076094531232,
                    "velocity": 0.937007874015748,
                    "duration": 0.04446844726561494
                },
                {
                    "name": "G4",
                    "midi": 67,
                    "time": 69.46076094531232,
                    "velocity": 0.937007874015748,
                    "duration": 0.04446844726561494
                },
                {
                    "name": "C5",
                    "midi": 72,
                    "time": 69.5277251953123,
                    "velocity": 0.9763779527559056,
                    "duration": 0.11980322851562164
                },
                {
                    "name": "A4",
                    "midi": 69,
                    "time": 69.5277251953123,
                    "velocity": 0.9763779527559056,
                    "duration": 0.11980322851562164
                },
                {
                    "name": "D5",
                    "midi": 74,
                    "time": 69.65903790429667,
                    "velocity": 0.9763779527559056,
                    "duration": 0.2390832988281204
                },
                {
                    "name": "A#4",
                    "midi": 70,
                    "time": 69.65903790429667,
                    "velocity": 0.8818897637795275,
                    "duration": 0.2390832988281204
                },
                {
                    "name": "D5",
                    "midi": 74,
                    "time": 69.91957068945291,
                    "velocity": 0.9763779527559056,
                    "duration": 0.5236813613281157
                },
                {
                    "name": "A#4",
                    "midi": 70,
                    "time": 69.91957068945291,
                    "velocity": 0.8818897637795275,
                    "duration": 0.2390832988281204
                },
                {
                    "name": "A#4",
                    "midi": 70,
                    "time": 70.18010347460915,
                    "velocity": 0.8818897637795275,
                    "duration": 0.2736117402343723
                },
                {
                    "name": "D5",
                    "midi": 74,
                    "time": 70.44639099999978,
                    "velocity": 0.9763779527559056,
                    "duration": 0.03505159960937476
                },
                {
                    "name": "A#4",
                    "midi": 70,
                    "time": 70.44639099999978,
                    "velocity": 0.9763779527559056,
                    "duration": 0.03505159960937476
                },
                {
                    "name": "C5",
                    "midi": 72,
                    "time": 70.47778049218728,
                    "velocity": 0.9763779527559056,
                    "duration": 0.03505159960937476
                },
                {
                    "name": "A4",
                    "midi": 69,
                    "time": 70.47778049218728,
                    "velocity": 0.9763779527559056,
                    "duration": 0.03505159960937476
                },
                {
                    "name": "D5",
                    "midi": 74,
                    "time": 70.50916998437478,
                    "velocity": 0.9763779527559056,
                    "duration": 0.03505159960937476
                },
                {
                    "name": "A#4",
                    "midi": 70,
                    "time": 70.50916998437478,
                    "velocity": 0.9763779527559056,
                    "duration": 0.03505159960937476
                },
                {
                    "name": "C5",
                    "midi": 72,
                    "time": 70.54055947656228,
                    "velocity": 0.937007874015748,
                    "duration": 0.03662107421874339
                },
                {
                    "name": "A4",
                    "midi": 69,
                    "time": 70.54055947656228,
                    "velocity": 0.937007874015748,
                    "duration": 0.03662107421874339
                },
                {
                    "name": "A#4",
                    "midi": 70,
                    "time": 70.5766573925779,
                    "velocity": 0.9763779527559056,
                    "duration": 0.12660428515624744
                },
                {
                    "name": "G4",
                    "midi": 67,
                    "time": 70.5766573925779,
                    "velocity": 0.9763779527559056,
                    "duration": 0.12660428515624744
                },
                {
                    "name": "A4",
                    "midi": 69,
                    "time": 70.71424799999977,
                    "velocity": 1,
                    "duration": 0.14439166406249626
                },
                {
                    "name": "F#4",
                    "midi": 66,
                    "time": 70.71424799999977,
                    "velocity": 1,
                    "duration": 0.14439166406249626
                },
                {
                    "name": "G4",
                    "midi": 67,
                    "time": 70.87014914453101,
                    "velocity": 0.9763779527559056,
                    "duration": 0.12137270312500448
                },
                {
                    "name": "D4",
                    "midi": 62,
                    "time": 70.87014914453101,
                    "velocity": 0.9763779527559056,
                    "duration": 0.12137270312500448
                },
                {
                    "name": "A4",
                    "midi": 69,
                    "time": 70.98210499999976,
                    "velocity": 0.9763779527559056,
                    "duration": 0.047607396484366404
                },
                {
                    "name": "F#4",
                    "midi": 66,
                    "time": 71.00303132812476,
                    "velocity": 0.9763779527559056,
                    "duration": 0.1203263867187303
                },
                {
                    "name": "G4",
                    "midi": 67,
                    "time": 71.02500397265601,
                    "velocity": 0.9763779527559056,
                    "duration": 0.047607396484366404
                },
                {
                    "name": "A4",
                    "midi": 69,
                    "time": 71.06790294531226,
                    "velocity": 0.937007874015748,
                    "duration": 0.04446844726561494
                },
                {
                    "name": "A#4",
                    "midi": 70,
                    "time": 71.13486719531224,
                    "velocity": 0.9763779527559056,
                    "duration": 0.11980322851562164
                },
                {
                    "name": "G4",
                    "midi": 67,
                    "time": 71.13486719531224,
                    "velocity": 0.9763779527559056,
                    "duration": 0.11980322851562164
                },
                {
                    "name": "C5",
                    "midi": 72,
                    "time": 71.2661799042966,
                    "velocity": 0.9763779527559056,
                    "duration": 0.2390832988281204
                },
                {
                    "name": "A4",
                    "midi": 69,
                    "time": 71.2661799042966,
                    "velocity": 0.8818897637795275,
                    "duration": 0.2390832988281204
                },
                {
                    "name": "C5",
                    "midi": 72,
                    "time": 71.52671268945285,
                    "velocity": 0.9763779527559056,
                    "duration": 0.5236813613281157
                },
                {
                    "name": "A4",
                    "midi": 69,
                    "time": 71.52671268945285,
                    "velocity": 0.8818897637795275,
                    "duration": 0.2390832988281204
                },
                {
                    "name": "A4",
                    "midi": 69,
                    "time": 71.7872454746091,
                    "velocity": 0.8818897637795275,
                    "duration": 0.2736117402343723
                },
                {
                    "name": "C5",
                    "midi": 72,
                    "time": 72.05353299999972,
                    "velocity": 0.9763779527559056,
                    "duration": 0.03505159960937476
                },
                {
                    "name": "A4",
                    "midi": 69,
                    "time": 72.05353299999972,
                    "velocity": 0.9763779527559056,
                    "duration": 0.03505159960937476
                },
                {
                    "name": "A#4",
                    "midi": 70,
                    "time": 72.08492249218722,
                    "velocity": 0.9763779527559056,
                    "duration": 0.03505159960937476
                },
                {
                    "name": "G4",
                    "midi": 67,
                    "time": 72.08492249218722,
                    "velocity": 0.9763779527559056,
                    "duration": 0.03505159960937476
                },
                {
                    "name": "C5",
                    "midi": 72,
                    "time": 72.11631198437472,
                    "velocity": 0.9763779527559056,
                    "duration": 0.03505159960937476
                },
                {
                    "name": "A4",
                    "midi": 69,
                    "time": 72.11631198437472,
                    "velocity": 0.9763779527559056,
                    "duration": 0.03505159960937476
                },
                {
                    "name": "A#4",
                    "midi": 70,
                    "time": 72.14770147656222,
                    "velocity": 0.937007874015748,
                    "duration": 0.03662107421874339
                },
                {
                    "name": "G4",
                    "midi": 67,
                    "time": 72.14770147656222,
                    "velocity": 0.937007874015748,
                    "duration": 0.03662107421874339
                },
                {
                    "name": "A4",
                    "midi": 69,
                    "time": 72.18379939257784,
                    "velocity": 0.9763779527559056,
                    "duration": 0.12660428515624744
                },
                {
                    "name": "F#4",
                    "midi": 66,
                    "time": 72.18379939257784,
                    "velocity": 0.9763779527559056,
                    "duration": 0.12660428515624744
                },
                {
                    "name": "A#4",
                    "midi": 70,
                    "time": 72.32138999999971,
                    "velocity": 1,
                    "duration": 0.14439166406249626
                },
                {
                    "name": "G4",
                    "midi": 67,
                    "time": 72.32138999999971,
                    "velocity": 1,
                    "duration": 0.14439166406249626
                },
                {
                    "name": "A4",
                    "midi": 69,
                    "time": 72.47729114453095,
                    "velocity": 0.9763779527559056,
                    "duration": 0.12137270312500448
                },
                {
                    "name": "F#4",
                    "midi": 66,
                    "time": 72.47729114453095,
                    "velocity": 0.9763779527559056,
                    "duration": 0.12137270312500448
                },
                {
                    "name": "A#4",
                    "midi": 70,
                    "time": 72.5892469999997,
                    "velocity": 0.9763779527559056,
                    "duration": 0.047607396484380615
                },
                {
                    "name": "G4",
                    "midi": 67,
                    "time": 72.5892469999997,
                    "velocity": 0.9763779527559056,
                    "duration": 0.047607396484380615
                },
                {
                    "name": "A4",
                    "midi": 69,
                    "time": 72.63214597265596,
                    "velocity": 0.9763779527559056,
                    "duration": 0.047607396484366404
                },
                {
                    "name": "F#4",
                    "midi": 66,
                    "time": 72.63214597265596,
                    "velocity": 0.9763779527559056,
                    "duration": 0.047607396484366404
                },
                {
                    "name": "A#4",
                    "midi": 70,
                    "time": 72.67504494531221,
                    "velocity": 0.937007874015748,
                    "duration": 0.04446844726561494
                },
                {
                    "name": "G4",
                    "midi": 67,
                    "time": 72.67504494531221,
                    "velocity": 0.937007874015748,
                    "duration": 0.04446844726561494
                },
                {
                    "name": "C5",
                    "midi": 72,
                    "time": 72.74200919531219,
                    "velocity": 0.9763779527559056,
                    "duration": 0.11980322851562164
                },
                {
                    "name": "A4",
                    "midi": 69,
                    "time": 72.74200919531219,
                    "velocity": 0.9763779527559056,
                    "duration": 0.11980322851562164
                },
                {
                    "name": "D5",
                    "midi": 74,
                    "time": 72.87332190429656,
                    "velocity": 0.9763779527559056,
                    "duration": 0.2390832988281204
                },
                {
                    "name": "A#4",
                    "midi": 70,
                    "time": 72.87332190429656,
                    "velocity": 0.8818897637795275,
                    "duration": 0.2390832988281204
                },
                {
                    "name": "D5",
                    "midi": 74,
                    "time": 73.1338546894528,
                    "velocity": 0.9763779527559056,
                    "duration": 0.5236813613281157
                },
                {
                    "name": "A#4",
                    "midi": 70,
                    "time": 73.1338546894528,
                    "velocity": 0.8818897637795275,
                    "duration": 0.2390832988281204
                },
                {
                    "name": "A#4",
                    "midi": 70,
                    "time": 73.39438747460905,
                    "velocity": 0.8818897637795275,
                    "duration": 0.2736117402343723
                },
                {
                    "name": "D5",
                    "midi": 74,
                    "time": 73.66067499999967,
                    "velocity": 0.9763779527559056,
                    "duration": 0.03505159960937476
                },
                {
                    "name": "A#4",
                    "midi": 70,
                    "time": 73.66067499999967,
                    "velocity": 0.9763779527559056,
                    "duration": 0.03505159960937476
                },
                {
                    "name": "C5",
                    "midi": 72,
                    "time": 73.69206449218717,
                    "velocity": 0.9763779527559056,
                    "duration": 0.03505159960937476
                },
                {
                    "name": "A4",
                    "midi": 69,
                    "time": 73.69206449218717,
                    "velocity": 0.9763779527559056,
                    "duration": 0.03505159960937476
                },
                {
                    "name": "D5",
                    "midi": 74,
                    "time": 73.72345398437467,
                    "velocity": 0.9763779527559056,
                    "duration": 0.03505159960937476
                },
                {
                    "name": "A#4",
                    "midi": 70,
                    "time": 73.72345398437467,
                    "velocity": 0.9763779527559056,
                    "duration": 0.03505159960937476
                },
                {
                    "name": "C5",
                    "midi": 72,
                    "time": 73.75484347656217,
                    "velocity": 0.937007874015748,
                    "duration": 0.03662107421874339
                },
                {
                    "name": "A4",
                    "midi": 69,
                    "time": 73.75484347656217,
                    "velocity": 0.937007874015748,
                    "duration": 0.03662107421874339
                },
                {
                    "name": "A#4",
                    "midi": 70,
                    "time": 73.79094139257779,
                    "velocity": 0.9763779527559056,
                    "duration": 0.12660428515624744
                },
                {
                    "name": "G4",
                    "midi": 67,
                    "time": 73.79094139257779,
                    "velocity": 0.9763779527559056,
                    "duration": 0.12660428515624744
                },
                {
                    "name": "A#4",
                    "midi": 70,
                    "time": 73.92853199999966,
                    "velocity": 1,
                    "duration": 0.08527478710938396
                },
                {
                    "name": "D4",
                    "midi": 62,
                    "time": 73.92853199999966,
                    "velocity": 0.9133858267716536,
                    "duration": 1.0724743164062573
                },
                {
                    "name": "F#4",
                    "midi": 66,
                    "time": 73.92853199999966,
                    "velocity": 1,
                    "duration": 1.0724743164062573
                },
                {
                    "name": "A4",
                    "midi": 69,
                    "time": 74.00491309765592,
                    "velocity": 0.9763779527559056,
                    "duration": 0.08527478710938396
                },
                {
                    "name": "A#4",
                    "midi": 70,
                    "time": 74.08129419531217,
                    "velocity": 0.9763779527559056,
                    "duration": 0.08527478710938396
                },
                {
                    "name": "A4",
                    "midi": 69,
                    "time": 74.15767529296842,
                    "velocity": 0.937007874015748,
                    "duration": 0.8422847070312542
                },
                {
                    "name": "A#4",
                    "midi": 70,
                    "time": 75.53567399999967,
                    "velocity": 0.6614173228346457,
                    "duration": 0.14439166406249626
                },
                {
                    "name": "G4",
                    "midi": 67,
                    "time": 75.53567399999967,
                    "velocity": 0.6614173228346457,
                    "duration": 0.26733384179686936
                },
                {
                    "name": "A4",
                    "midi": 69,
                    "time": 75.69157514453092,
                    "velocity": 0.6299212598425197,
                    "duration": 0.12137270312500448
                },
                {
                    "name": "A#4",
                    "midi": 70,
                    "time": 75.80353099999967,
                    "velocity": 0.6299212598425197,
                    "duration": 0.047607396484366404
                },
                {
                    "name": "G4",
                    "midi": 67,
                    "time": 75.82445732812467,
                    "velocity": 0.6299212598425197,
                    "duration": 0.24169908984372057
                },
                {
                    "name": "A4",
                    "midi": 69,
                    "time": 75.84642997265591,
                    "velocity": 0.6299212598425197,
                    "duration": 0.047607396484366404
                },
                {
                    "name": "A#4",
                    "midi": 70,
                    "time": 75.88932894531216,
                    "velocity": 0.5905511811023622,
                    "duration": 0.04446844726561494
                },
                {
                    "name": "D5",
                    "midi": 74,
                    "time": 75.95629319531214,
                    "velocity": 0.6299212598425197,
                    "duration": 0.11980322851562164
                },
                {
                    "name": "A#4",
                    "midi": 70,
                    "time": 76.08760590429651,
                    "velocity": 0.6299212598425197,
                    "duration": 0.11875691210937589
                },
                {
                    "name": "G4",
                    "midi": 67,
                    "time": 76.08760590429651,
                    "velocity": 0.6299212598425197,
                    "duration": 0.2390832988281204
                },
                {
                    "name": "A4",
                    "midi": 69,
                    "time": 76.21787229687463,
                    "velocity": 0.6299212598425197,
                    "duration": 0.11928007031249876
                },
                {
                    "name": "A#4",
                    "midi": 70,
                    "time": 76.33924499999964,
                    "velocity": 0.6299212598425197,
                    "duration": 0.047607396484380615
                },
                {
                    "name": "G4",
                    "midi": 67,
                    "time": 76.34813868945277,
                    "velocity": 0.6299212598425197,
                    "duration": 0.2390832988281204
                },
                {
                    "name": "A4",
                    "midi": 69,
                    "time": 76.3821439726559,
                    "velocity": 0.6299212598425197,
                    "duration": 0.047607396484366404
                },
                {
                    "name": "A#4",
                    "midi": 70,
                    "time": 76.42504294531214,
                    "velocity": 0.5905511811023622,
                    "duration": 0.04446844726561494
                },
                {
                    "name": "D5",
                    "midi": 74,
                    "time": 76.47840508203089,
                    "velocity": 0.6299212598425197,
                    "duration": 0.11928007031249876
                },
                {
                    "name": "B4",
                    "midi": 71,
                    "time": 76.60867147460901,
                    "velocity": 0.6299212598425197,
                    "duration": 0.1208495449218816
                },
                {
                    "name": "D4",
                    "midi": 62,
                    "time": 76.60867147460901,
                    "velocity": 0.6299212598425197,
                    "duration": 0.24222224804688608
                },
                {
                    "name": "A4",
                    "midi": 69,
                    "time": 76.74050734179652,
                    "velocity": 0.6299212598425197,
                    "duration": 0.1208495449218816
                },
                {
                    "name": "F4",
                    "midi": 65,
                    "time": 76.87234320898402,
                    "velocity": 0.6299212598425197,
                    "duration": 0.24902330468748346
                },
                {
                    "name": "B4",
                    "midi": 71,
                    "time": 76.87495899999965,
                    "velocity": 0.6299212598425197,
                    "duration": 0.047607396484366404
                },
                {
                    "name": "A4",
                    "midi": 69,
                    "time": 76.9178579726559,
                    "velocity": 0.6299212598425197,
                    "duration": 0.047607396484366404
                },
                {
                    "name": "B4",
                    "midi": 71,
                    "time": 76.96075694531214,
                    "velocity": 0.5905511811023622,
                    "duration": 0.04446844726561494
                },
                {
                    "name": "D5",
                    "midi": 74,
                    "time": 77.00522539257776,
                    "velocity": 0.6299212598425197,
                    "duration": 0.12660428515624744
                },
                {
                    "name": "C5",
                    "midi": 72,
                    "time": 77.14281599999963,
                    "velocity": 0.6614173228346457,
                    "duration": 0.14439166406249626
                },
                {
                    "name": "D#4",
                    "midi": 63,
                    "time": 77.14281599999963,
                    "velocity": 0.6614173228346457,
                    "duration": 0.26733384179686936
                },
                {
                    "name": "B4",
                    "midi": 71,
                    "time": 77.29871714453087,
                    "velocity": 0.6299212598425197,
                    "duration": 0.12137270312500448
                },
                {
                    "name": "C5",
                    "midi": 72,
                    "time": 77.41067299999962,
                    "velocity": 0.6299212598425197,
                    "duration": 0.047607396484366404
                },
                {
                    "name": "G4",
                    "midi": 67,
                    "time": 77.43159932812462,
                    "velocity": 0.6299212598425197,
                    "duration": 0.24169908984372057
                },
                {
                    "name": "B4",
                    "midi": 71,
                    "time": 77.45357197265587,
                    "velocity": 0.6299212598425197,
                    "duration": 0.047607396484366404
                },
                {
                    "name": "C5",
                    "midi": 72,
                    "time": 77.49647094531211,
                    "velocity": 0.5905511811023622,
                    "duration": 0.04446844726561494
                },
                {
                    "name": "D#5",
                    "midi": 75,
                    "time": 77.5634351953121,
                    "velocity": 0.6299212598425197,
                    "duration": 0.11980322851562164
                },
                {
                    "name": "C5",
                    "midi": 72,
                    "time": 77.69474790429646,
                    "velocity": 0.6299212598425197,
                    "duration": 0.11875691210937589
                },
                {
                    "name": "D#4",
                    "midi": 63,
                    "time": 77.69474790429646,
                    "velocity": 0.6299212598425197,
                    "duration": 0.2390832988281204
                },
                {
                    "name": "B4",
                    "midi": 71,
                    "time": 77.82501429687458,
                    "velocity": 0.6299212598425197,
                    "duration": 0.11928007031249876
                },
                {
                    "name": "C5",
                    "midi": 72,
                    "time": 77.94638699999959,
                    "velocity": 0.6299212598425197,
                    "duration": 0.047607396484380615
                },
                {
                    "name": "G4",
                    "midi": 67,
                    "time": 77.95528068945272,
                    "velocity": 0.6299212598425197,
                    "duration": 0.2390832988281204
                },
                {
                    "name": "B4",
                    "midi": 71,
                    "time": 77.98928597265585,
                    "velocity": 0.6299212598425197,
                    "duration": 0.047607396484366404
                },
                {
                    "name": "C5",
                    "midi": 72,
                    "time": 78.0321849453121,
                    "velocity": 0.5905511811023622,
                    "duration": 0.04446844726561494
                },
                {
                    "name": "E5",
                    "midi": 76,
                    "time": 78.08554708203084,
                    "velocity": 0.6299212598425197,
                    "duration": 0.11928007031249876
                },
                {
                    "name": "C#5",
                    "midi": 73,
                    "time": 78.21581347460896,
                    "velocity": 0.6299212598425197,
                    "duration": 0.1208495449218816
                },
                {
                    "name": "E4",
                    "midi": 64,
                    "time": 78.21581347460896,
                    "velocity": 0.6299212598425197,
                    "duration": 0.24222224804688608
                },
                {
                    "name": "B4",
                    "midi": 71,
                    "time": 78.34764934179647,
                    "velocity": 0.6299212598425197,
                    "duration": 0.1208495449218816
                },
                {
                    "name": "G4",
                    "midi": 67,
                    "time": 78.47948520898397,
                    "velocity": 0.6299212598425197,
                    "duration": 0.24902330468748346
                },
                {
                    "name": "C#5",
                    "midi": 73,
                    "time": 78.4821009999996,
                    "velocity": 0.6299212598425197,
                    "duration": 0.047607396484366404
                },
                {
                    "name": "B4",
                    "midi": 71,
                    "time": 78.52499997265585,
                    "velocity": 0.6299212598425197,
                    "duration": 0.047607396484366404
                },
                {
                    "name": "C#5",
                    "midi": 73,
                    "time": 78.5678989453121,
                    "velocity": 0.5905511811023622,
                    "duration": 0.04446844726561494
                },
                {
                    "name": "E5",
                    "midi": 76,
                    "time": 78.61236739257771,
                    "velocity": 0.6299212598425197,
                    "duration": 0.12660428515624744
                },
                {
                    "name": "D5",
                    "midi": 74,
                    "time": 78.74995799999958,
                    "velocity": 0.6614173228346457,
                    "duration": 0.14439166406249626
                },
                {
                    "name": "F4",
                    "midi": 65,
                    "time": 78.74995799999958,
                    "velocity": 0.6614173228346457,
                    "duration": 0.26733384179686936
                },
                {
                    "name": "C#5",
                    "midi": 73,
                    "time": 78.90585914453082,
                    "velocity": 0.6299212598425197,
                    "duration": 0.12137270312500448
                },
                {
                    "name": "D5",
                    "midi": 74,
                    "time": 79.01781499999957,
                    "velocity": 0.6299212598425197,
                    "duration": 0.047607396484366404
                },
                {
                    "name": "A4",
                    "midi": 69,
                    "time": 79.03874132812457,
                    "velocity": 0.6299212598425197,
                    "duration": 0.24169908984372057
                },
                {
                    "name": "C#5",
                    "midi": 73,
                    "time": 79.06071397265582,
                    "velocity": 0.6299212598425197,
                    "duration": 0.047607396484366404
                },
                {
                    "name": "D5",
                    "midi": 74,
                    "time": 79.10361294531207,
                    "velocity": 0.5905511811023622,
                    "duration": 0.04446844726561494
                },
                {
                    "name": "F5",
                    "midi": 77,
                    "time": 79.17057719531205,
                    "velocity": 0.6299212598425197,
                    "duration": 0.11980322851562164
                },
                {
                    "name": "D5",
                    "midi": 74,
                    "time": 79.30188990429642,
                    "velocity": 0.6299212598425197,
                    "duration": 0.11875691210937589
                },
                {
                    "name": "F4",
                    "midi": 65,
                    "time": 79.30188990429642,
                    "velocity": 0.6299212598425197,
                    "duration": 0.2390832988281204
                },
                {
                    "name": "C#5",
                    "midi": 73,
                    "time": 79.43215629687454,
                    "velocity": 0.6299212598425197,
                    "duration": 0.11928007031249876
                },
                {
                    "name": "D5",
                    "midi": 74,
                    "time": 79.55352899999954,
                    "velocity": 0.6299212598425197,
                    "duration": 0.047607396484380615
                },
                {
                    "name": "D4",
                    "midi": 62,
                    "time": 79.56242268945267,
                    "velocity": 0.6299212598425197,
                    "duration": 0.2390832988281204
                },
                {
                    "name": "C#5",
                    "midi": 73,
                    "time": 79.5964279726558,
                    "velocity": 0.6299212598425197,
                    "duration": 0.047607396484366404
                },
                {
                    "name": "D5",
                    "midi": 74,
                    "time": 79.63932694531205,
                    "velocity": 0.5905511811023622,
                    "duration": 0.04446844726561494
                },
                {
                    "name": "F5",
                    "midi": 77,
                    "time": 79.6926890820308,
                    "velocity": 0.6299212598425197,
                    "duration": 0.11928007031249876
                },
                {
                    "name": "E5",
                    "midi": 76,
                    "time": 79.82295547460892,
                    "velocity": 0.6299212598425197,
                    "duration": 0.1208495449218816
                },
                {
                    "name": "C#4",
                    "midi": 61,
                    "time": 79.82295547460892,
                    "velocity": 0.6299212598425197,
                    "duration": 0.24222224804688608
                },
                {
                    "name": "D5",
                    "midi": 74,
                    "time": 79.95479134179642,
                    "velocity": 0.6299212598425197,
                    "duration": 0.1208495449218816
                },
                {
                    "name": "A3",
                    "midi": 57,
                    "time": 80.08662720898393,
                    "velocity": 0.6299212598425197,
                    "duration": 0.24902330468748346
                },
                {
                    "name": "E5",
                    "midi": 76,
                    "time": 80.08924299999956,
                    "velocity": 0.6299212598425197,
                    "duration": 0.047607396484366404
                },
                {
                    "name": "D5",
                    "midi": 74,
                    "time": 80.1321419726558,
                    "velocity": 0.6299212598425197,
                    "duration": 0.047607396484366404
                },
                {
                    "name": "E5",
                    "midi": 76,
                    "time": 80.17504094531205,
                    "velocity": 0.5905511811023622,
                    "duration": 0.04446844726561494
                },
                {
                    "name": "G5",
                    "midi": 79,
                    "time": 80.21950939257766,
                    "velocity": 0.6299212598425197,
                    "duration": 0.12660428515624744
                },
                {
                    "name": "F5",
                    "midi": 77,
                    "time": 80.35709999999953,
                    "velocity": 0.6614173228346457,
                    "duration": 0.09626110937500698
                },
                {
                    "name": "D4",
                    "midi": 62,
                    "time": 80.35709999999953,
                    "velocity": 0.6614173228346457,
                    "duration": 0.2673338417968836
                },
                {
                    "name": "E5",
                    "midi": 76,
                    "time": 80.44342110351516,
                    "velocity": 0.6299212598425197,
                    "duration": 0.09626110937500698
                },
                {
                    "name": "F5",
                    "midi": 77,
                    "time": 80.5297422070308,
                    "velocity": 0.5905511811023622,
                    "duration": 0.08789057812499834
                },
                {
                    "name": "G5",
                    "midi": 79,
                    "time": 80.62495699999954,
                    "velocity": 0.6299212598425197,
                    "duration": 0.07481162304686961
                },
                {
                    "name": "D5",
                    "midi": 74,
                    "time": 80.64588332812454,
                    "velocity": 0.6299212598425197,
                    "duration": 0.24169908984373478
                },
                {
                    "name": "F5",
                    "midi": 77,
                    "time": 80.69192124999954,
                    "velocity": 0.6299212598425197,
                    "duration": 0.07481162304686961
                },
                {
                    "name": "E5",
                    "midi": 76,
                    "time": 80.75888549999954,
                    "velocity": 0.6299212598425197,
                    "duration": 0.07481162304686961
                },
                {
                    "name": "F5",
                    "midi": 77,
                    "time": 80.82584974999953,
                    "velocity": 0.5905511811023622,
                    "duration": 0.061732667968740884
                },
                {
                    "name": "G5",
                    "midi": 79,
                    "time": 80.9090319042964,
                    "velocity": 0.6299212598425197,
                    "duration": 0.2390832988281204
                },
                {
                    "name": "G4",
                    "midi": 67,
                    "time": 80.9090319042964,
                    "velocity": 0.6299212598425197,
                    "duration": 0.2390832988281204
                },
                {
                    "name": "F5",
                    "midi": 77,
                    "time": 81.16956468945264,
                    "velocity": 0.6299212598425197,
                    "duration": 0.2390832988281204
                },
                {
                    "name": "A4",
                    "midi": 69,
                    "time": 81.16956468945264,
                    "velocity": 0.6299212598425197,
                    "duration": 0.2390832988281204
                },
                {
                    "name": "F5",
                    "midi": 77,
                    "time": 81.42852799999952,
                    "velocity": 0.6299212598425197,
                    "duration": 0.0706263574218724
                },
                {
                    "name": "A#4",
                    "midi": 70,
                    "time": 81.43009747460889,
                    "velocity": 0.6299212598425197,
                    "duration": 0.24222224804687187
                },
                {
                    "name": "E5",
                    "midi": 76,
                    "time": 81.49183014257764,
                    "velocity": 0.6299212598425197,
                    "duration": 0.0706263574218724
                },
                {
                    "name": "F5",
                    "midi": 77,
                    "time": 81.55513228515576,
                    "velocity": 0.6299212598425197,
                    "duration": 0.0706263574218724
                },
                {
                    "name": "E5",
                    "midi": 76,
                    "time": 81.61843442773389,
                    "velocity": 0.5905511811023622,
                    "duration": 0.07219583203124103
                },
                {
                    "name": "D5",
                    "midi": 74,
                    "time": 81.69376920898388,
                    "velocity": 0.6299212598425197,
                    "duration": 0.24902330468749767
                },
                {
                    "name": "G4",
                    "midi": 67,
                    "time": 81.69376920898388,
                    "velocity": 0.6299212598425197,
                    "duration": 0.24902330468749767
                },
                {
                    "name": "D5",
                    "midi": 74,
                    "time": 81.9642419999995,
                    "velocity": 0.6614173228346457,
                    "duration": 0.08684426171875259
                },
                {
                    "name": "A4",
                    "midi": 69,
                    "time": 81.9642419999995,
                    "velocity": 0.6614173228346457,
                    "duration": 0.2673338417968978
                },
                {
                    "name": "C#5",
                    "midi": 73,
                    "time": 82.04219257226512,
                    "velocity": 0.6299212598425197,
                    "duration": 0.0868442617187668
                },
                {
                    "name": "D5",
                    "midi": 74,
                    "time": 82.12014314453076,
                    "velocity": 0.6299212598425197,
                    "duration": 0.0868442617187668
                },
                {
                    "name": "C#5",
                    "midi": 73,
                    "time": 82.1980937167964,
                    "velocity": 0.5905511811023622,
                    "duration": 0.5697192832031277
                },
                {
                    "name": "A2",
                    "midi": 45,
                    "time": 82.25302532812452,
                    "velocity": 0.9763779527559056,
                    "duration": 0.241699089843749
                },
                {
                    "name": "A2",
                    "midi": 45,
                    "time": 82.5161739042964,
                    "velocity": 0.9763779527559056,
                    "duration": 0.2390832988281204
                },
                {
                    "name": "B4",
                    "midi": 71,
                    "time": 82.77670668945265,
                    "velocity": 0.9763779527559056,
                    "duration": 0.2390832988281204
                },
                {
                    "name": "A2",
                    "midi": 45,
                    "time": 82.77670668945265,
                    "velocity": 0.9763779527559056,
                    "duration": 0.2390832988281204
                },
                {
                    "name": "A4",
                    "midi": 69,
                    "time": 83.0372394746089,
                    "velocity": 0.9763779527559056,
                    "duration": 0.533621367187493
                },
                {
                    "name": "A2",
                    "midi": 45,
                    "time": 83.0372394746089,
                    "velocity": 0.9763779527559056,
                    "duration": 0.24222224804687187
                },
                {
                    "name": "A2",
                    "midi": 45,
                    "time": 83.30091120898389,
                    "velocity": 0.9763779527559056,
                    "duration": 0.24902330468749767
                },
                {
                    "name": "A2",
                    "midi": 45,
                    "time": 83.57138399999951,
                    "velocity": 1,
                    "duration": 0.07899688867188104
                },
                {
                    "name": "C#3",
                    "midi": 49,
                    "time": 83.6566587871089,
                    "velocity": 0.9763779527559056,
                    "duration": 0.06434845898436947
                },
                {
                    "name": "E3",
                    "midi": 52,
                    "time": 83.72728514453077,
                    "velocity": 0.9763779527559056,
                    "duration": 0.06016319335937226
                },
                {
                    "name": "A3",
                    "midi": 57,
                    "time": 83.79372623632764,
                    "velocity": 0.9763779527559056,
                    "duration": 0.06016319335937226
                },
                {
                    "name": "E4",
                    "midi": 64,
                    "time": 83.86016732812452,
                    "velocity": 0.8818897637795275,
                    "duration": 0.241699089843749
                },
                {
                    "name": "E4",
                    "midi": 64,
                    "time": 84.12331590429639,
                    "velocity": 0.8818897637795275,
                    "duration": 0.2390832988281204
                },
                {
                    "name": "E4",
                    "midi": 64,
                    "time": 84.38384868945263,
                    "velocity": 0.8818897637795275,
                    "duration": 0.2390832988281204
                },
                {
                    "name": "E4",
                    "midi": 64,
                    "time": 84.64438147460888,
                    "velocity": 0.8818897637795275,
                    "duration": 0.24222224804687187
                },
                {
                    "name": "E4",
                    "midi": 64,
                    "time": 84.90805320898387,
                    "velocity": 0.8818897637795275,
                    "duration": 0.24902330468749767
                },
                {
                    "name": "E4",
                    "midi": 64,
                    "time": 85.1785259999995,
                    "velocity": 1,
                    "duration": 0.07899688867188104
                },
                {
                    "name": "G4",
                    "midi": 67,
                    "time": 85.26380078710888,
                    "velocity": 0.9763779527559056,
                    "duration": 0.06434845898436947
                },
                {
                    "name": "A4",
                    "midi": 69,
                    "time": 85.33442714453075,
                    "velocity": 0.9763779527559056,
                    "duration": 0.06016319335937226
                },
                {
                    "name": "C#5",
                    "midi": 73,
                    "time": 85.40086823632763,
                    "velocity": 0.9763779527559056,
                    "duration": 0.06016319335937226
                },
                {
                    "name": "A2",
                    "midi": 45,
                    "time": 85.4673093281245,
                    "velocity": 0.8818897637795275,
                    "duration": 0.241699089843749
                },
                {
                    "name": "A2",
                    "midi": 45,
                    "time": 85.73045790429637,
                    "velocity": 0.8818897637795275,
                    "duration": 0.2390832988281204
                },
                {
                    "name": "A2",
                    "midi": 45,
                    "time": 85.99099068945262,
                    "velocity": 0.8818897637795275,
                    "duration": 0.2390832988281204
                },
                {
                    "name": "A2",
                    "midi": 45,
                    "time": 86.25152347460886,
                    "velocity": 0.8818897637795275,
                    "duration": 0.24222224804687187
                },
                {
                    "name": "A2",
                    "midi": 45,
                    "time": 86.51519520898385,
                    "velocity": 0.8818897637795275,
                    "duration": 0.24902330468749767
                },
                {
                    "name": "A2",
                    "midi": 45,
                    "time": 86.78566799999948,
                    "velocity": 1,
                    "duration": 0.0638253007812466
                },
                {
                    "name": "C#3",
                    "midi": 49,
                    "time": 86.85472488281196,
                    "velocity": 0.9763779527559056,
                    "duration": 0.05493161132812929
                },
                {
                    "name": "E3",
                    "midi": 52,
                    "time": 86.91488807617134,
                    "velocity": 0.9763779527559056,
                    "duration": 0.04813055468750349
                },
                {
                    "name": "A3",
                    "midi": 57,
                    "time": 86.96825021289008,
                    "velocity": 0.9763779527559056,
                    "duration": 0.04813055468750349
                },
                {
                    "name": "C#4",
                    "midi": 61,
                    "time": 87.02161234960883,
                    "velocity": 0.9763779527559056,
                    "duration": 0.047607396484380615
                },
                {
                    "name": "G4",
                    "midi": 67,
                    "time": 87.07445132812445,
                    "velocity": 0.8818897637795275,
                    "duration": 0.241699089843749
                },
                {
                    "name": "G4",
                    "midi": 67,
                    "time": 87.33759990429633,
                    "velocity": 0.8818897637795275,
                    "duration": 0.2390832988281204
                },
                {
                    "name": "G4",
                    "midi": 67,
                    "time": 87.59813268945257,
                    "velocity": 0.8818897637795275,
                    "duration": 0.2390832988281204
                },
                {
                    "name": "G4",
                    "midi": 67,
                    "time": 87.85866547460881,
                    "velocity": 0.8818897637795275,
                    "duration": 0.24222224804687187
                },
                {
                    "name": "G4",
                    "midi": 67,
                    "time": 88.12233720898381,
                    "velocity": 0.8818897637795275,
                    "duration": 0.24902330468749767
                },
                {
                    "name": "G4",
                    "midi": 67,
                    "time": 88.39280999999943,
                    "velocity": 1,
                    "duration": 0.10306216601561857
                },
                {
                    "name": "A4",
                    "midi": 69,
                    "time": 88.50371953906192,
                    "velocity": 0.9763779527559056,
                    "duration": 0.08161267968749542
                },
                {
                    "name": "C#5",
                    "midi": 73,
                    "time": 88.59317959179629,
                    "velocity": 0.9763779527559056,
                    "duration": 0.08056636328124966
                },
                {
                    "name": "E5",
                    "midi": 76,
                    "time": 88.6815933281244,
                    "velocity": 0.9763779527559056,
                    "duration": 2.451519339843756
                },
                {
                    "name": "A2",
                    "midi": 45,
                    "time": 88.6815933281244,
                    "velocity": 0.8818897637795275,
                    "duration": 0.241699089843749
                },
                {
                    "name": "A2",
                    "midi": 45,
                    "time": 88.94474190429628,
                    "velocity": 0.8818897637795275,
                    "duration": 0.2390832988281204
                },
                {
                    "name": "A2",
                    "midi": 45,
                    "time": 89.20527468945252,
                    "velocity": 0.8818897637795275,
                    "duration": 0.2390832988281204
                },
                {
                    "name": "A2",
                    "midi": 45,
                    "time": 89.46580747460877,
                    "velocity": 0.8818897637795275,
                    "duration": 0.24222224804687187
                },
                {
                    "name": "A2",
                    "midi": 45,
                    "time": 89.72947920898376,
                    "velocity": 0.8818897637795275,
                    "duration": 0.24902330468749767
                },
                {
                    "name": "A2",
                    "midi": 45,
                    "time": 89.99995199999938,
                    "velocity": 1,
                    "duration": 0.08946005273438118
                },
                {
                    "name": "C#3",
                    "midi": 49,
                    "time": 90.09621310937439,
                    "velocity": 0.9763779527559056,
                    "duration": 0.07219583203125524
                },
                {
                    "name": "E3",
                    "midi": 52,
                    "time": 90.17520999804627,
                    "velocity": 0.9763779527559056,
                    "duration": 0.06905688281250377
                },
                {
                    "name": "A3",
                    "midi": 57,
                    "time": 90.2510679374994,
                    "velocity": 0.9763779527559056,
                    "duration": 0.0685337246093809
                },
                {
                    "name": "C#4",
                    "midi": 61,
                    "time": 90.3264027187494,
                    "velocity": 0.9763779527559056,
                    "duration": 0.0685337246093809
                },
                {
                    "name": "E4",
                    "midi": 64,
                    "time": 90.40173749999941,
                    "velocity": 0.9763779527559056,
                    "duration": 0.0685337246093809
                },
                {
                    "name": "G4",
                    "midi": 67,
                    "time": 90.47707228124942,
                    "velocity": 0.9763779527559056,
                    "duration": 0.8590257695312431
                },
                {
                    "name": "D5",
                    "midi": 74,
                    "time": 91.13886740820254,
                    "velocity": 0.9763779527559056,
                    "duration": 0.06016319335937226
                },
                {
                    "name": "C#5",
                    "midi": 73,
                    "time": 91.2047853417963,
                    "velocity": 0.9763779527559056,
                    "duration": 0.06016319335937226
                },
                {
                    "name": "B4",
                    "midi": 71,
                    "time": 91.27070327539005,
                    "velocity": 0.9763779527559056,
                    "duration": 0.06016319335937226
                },
                {
                    "name": "A4",
                    "midi": 69,
                    "time": 91.33662120898379,
                    "velocity": 0.9763779527559056,
                    "duration": 0.06068635156249513
                },
                {
                    "name": "C#4",
                    "midi": 61,
                    "time": 91.33662120898379,
                    "velocity": 0.9763779527559056,
                    "duration": 0.24902330468751188
                },
                {
                    "name": "G4",
                    "midi": 67,
                    "time": 91.40306230078066,
                    "velocity": 0.9763779527559056,
                    "duration": 0.06068635156249513
                },
                {
                    "name": "F4",
                    "midi": 65,
                    "time": 91.46950339257754,
                    "velocity": 0.9763779527559056,
                    "duration": 0.061732667968755095
                },
                {
                    "name": "E4",
                    "midi": 64,
                    "time": 91.53699080078067,
                    "velocity": 0.9763779527559056,
                    "duration": 0.06434845898436947
                },
                {
                    "name": "F4",
                    "midi": 65,
                    "time": 91.60709399999942,
                    "velocity": 1,
                    "duration": 0.8119415312499854
                },
                {
                    "name": "D4",
                    "midi": 62,
                    "time": 91.60709399999942,
                    "velocity": 1,
                    "duration": 0.26733384179686936
                },
                {
                    "name": "A4",
                    "midi": 69,
                    "time": 91.89587732812441,
                    "velocity": 0.9763779527559056,
                    "duration": 0.241699089843749
                },
                {
                    "name": "C4",
                    "midi": 60,
                    "time": 91.89587732812441,
                    "velocity": 0.9763779527559056,
                    "duration": 0.241699089843749
                },
                {
                    "name": "D5",
                    "midi": 74,
                    "time": 92.15902590429629,
                    "velocity": 0.9763779527559056,
                    "duration": 0.7842141464843593
                },
                {
                    "name": "A#3",
                    "midi": 58,
                    "time": 92.15902590429629,
                    "velocity": 0.9763779527559056,
                    "duration": 0.2390832988281204
                },
                {
                    "name": "F4",
                    "midi": 65,
                    "time": 92.41955868945253,
                    "velocity": 0.9763779527559056,
                    "duration": 0.2390832988281204
                },
                {
                    "name": "A3",
                    "midi": 57,
                    "time": 92.41955868945253,
                    "velocity": 0.9763779527559056,
                    "duration": 0.2390832988281204
                },
                {
                    "name": "E4",
                    "midi": 64,
                    "time": 92.68009147460877,
                    "velocity": 0.9763779527559056,
                    "duration": 0.24222224804687187
                },
                {
                    "name": "G3",
                    "midi": 55,
                    "time": 92.68009147460877,
                    "velocity": 0.9763779527559056,
                    "duration": 0.24222224804687187
                },
                {
                    "name": "G4",
                    "midi": 67,
                    "time": 92.94376320898377,
                    "velocity": 0.9763779527559056,
                    "duration": 0.24902330468749767
                },
                {
                    "name": "A3",
                    "midi": 57,
                    "time": 92.94376320898377,
                    "velocity": 0.9763779527559056,
                    "duration": 0.24902330468749767
                },
                {
                    "name": "D5",
                    "midi": 74,
                    "time": 92.9463789999994,
                    "velocity": 0.9763779527559056,
                    "duration": 0.0706263574218724
                },
                {
                    "name": "C#5",
                    "midi": 73,
                    "time": 93.00968114257752,
                    "velocity": 0.9763779527559056,
                    "duration": 0.0706263574218724
                },
                {
                    "name": "D5",
                    "midi": 74,
                    "time": 93.07298328515564,
                    "velocity": 0.9763779527559056,
                    "duration": 0.0706263574218724
                },
                {
                    "name": "C#5",
                    "midi": 73,
                    "time": 93.13628542773377,
                    "velocity": 0.937007874015748,
                    "duration": 0.07219583203124103
                },
                {
                    "name": "C#5",
                    "midi": 73,
                    "time": 93.21423599999939,
                    "velocity": 0.9763779527559056,
                    "duration": 0.5780898144531221
                },
                {
                    "name": "G4",
                    "midi": 67,
                    "time": 93.21423599999939,
                    "velocity": 1,
                    "duration": 0.6706888164062406
                },
                {
                    "name": "D3",
                    "midi": 50,
                    "time": 93.21423599999939,
                    "velocity": 0.9763779527559056,
                    "duration": 1.1938470195312334
                },
                {
                    "name": "D5",
                    "midi": 74,
                    "time": 93.76616790429627,
                    "velocity": 0.937007874015748,
                    "duration": 1.05468693749998
                },
                {
                    "name": "A4",
                    "midi": 69,
                    "time": 93.89643429687438,
                    "velocity": 0.9763779527559056,
                    "duration": 0.9244205449218725
                },
                {
                    "name": "F#4",
                    "midi": 66,
                    "time": 94.0267006894525,
                    "velocity": 0.9133858267716536,
                    "duration": 0.7941541523437508
                },
                {
                    "name": "D4",
                    "midi": 62,
                    "time": 94.15696708203062,
                    "velocity": 1,
                    "duration": 0.663887759765629
                },
                {
                    "name": "A2",
                    "midi": 45,
                    "time": 94.41906934179624,
                    "velocity": 0.9763779527559056,
                    "duration": 0.1208495449218816
                },
                {
                    "name": "F#2",
                    "midi": 42,
                    "time": 94.55090520898375,
                    "velocity": 0.968503937007874,
                    "duration": 0.12189586132812735
                },
                {
                    "name": "D2",
                    "midi": 38,
                    "time": 94.6837873925775,
                    "velocity": 0.9606299212598425,
                    "duration": 0.12660428515624744
                },
                {
                    "name": "G4",
                    "midi": 67,
                    "time": 95.11016132812436,
                    "velocity": 0.8818897637795275,
                    "duration": 0.241699089843749
                },
                {
                    "name": "G4",
                    "midi": 67,
                    "time": 95.37330990429624,
                    "velocity": 0.8818897637795275,
                    "duration": 0.2390832988281204
                },
                {
                    "name": "G4",
                    "midi": 67,
                    "time": 95.63384268945248,
                    "velocity": 0.8818897637795275,
                    "duration": 0.2390832988281204
                },
                {
                    "name": "G4",
                    "midi": 67,
                    "time": 95.89437547460872,
                    "velocity": 0.8818897637795275,
                    "duration": 0.24222224804687187
                },
                {
                    "name": "G4",
                    "midi": 67,
                    "time": 96.15804720898372,
                    "velocity": 0.8818897637795275,
                    "duration": 0.24902330468749767
                },
                {
                    "name": "G4",
                    "midi": 67,
                    "time": 96.42851999999934,
                    "velocity": 1,
                    "duration": 0.07899688867188104
                },
                {
                    "name": "A#4",
                    "midi": 70,
                    "time": 96.51379478710872,
                    "velocity": 0.9763779527559056,
                    "duration": 0.06434845898436947
                },
                {
                    "name": "D5",
                    "midi": 74,
                    "time": 96.5844211445306,
                    "velocity": 0.9763779527559056,
                    "duration": 0.12137270312500448
                },
                {
                    "name": "G4",
                    "midi": 67,
                    "time": 96.71730332812434,
                    "velocity": 0.8818897637795275,
                    "duration": 0.241699089843749
                },
                {
                    "name": "G4",
                    "midi": 67,
                    "time": 96.98045190429622,
                    "velocity": 0.8818897637795275,
                    "duration": 0.2390832988281204
                },
                {
                    "name": "G4",
                    "midi": 67,
                    "time": 97.24098468945246,
                    "velocity": 0.8818897637795275,
                    "duration": 0.2390832988281204
                },
                {
                    "name": "G4",
                    "midi": 67,
                    "time": 97.5015174746087,
                    "velocity": 0.8818897637795275,
                    "duration": 0.24222224804687187
                },
                {
                    "name": "G4",
                    "midi": 67,
                    "time": 97.7651892089837,
                    "velocity": 0.8818897637795275,
                    "duration": 0.24902330468749767
                },
                {
                    "name": "G4",
                    "midi": 67,
                    "time": 98.03566199999932,
                    "velocity": 1,
                    "duration": 0.07899688867188104
                },
                {
                    "name": "A#4",
                    "midi": 70,
                    "time": 98.1209367871087,
                    "velocity": 0.9763779527559056,
                    "duration": 0.06434845898436947
                },
                {
                    "name": "D5",
                    "midi": 74,
                    "time": 98.19156314453058,
                    "velocity": 0.9763779527559056,
                    "duration": 0.06016319335937226
                },
                {
                    "name": "G5",
                    "midi": 79,
                    "time": 98.25800423632745,
                    "velocity": 0.9763779527559056,
                    "duration": 0.06016319335937226
                },
                {
                    "name": "A#3",
                    "midi": 58,
                    "time": 98.32444532812433,
                    "velocity": 0.8818897637795275,
                    "duration": 0.241699089843749
                },
                {
                    "name": "G3",
                    "midi": 55,
                    "time": 98.32444532812433,
                    "velocity": 0.8818897637795275,
                    "duration": 0.241699089843749
                },
                {
                    "name": "A#3",
                    "midi": 58,
                    "time": 98.5875939042962,
                    "velocity": 0.8818897637795275,
                    "duration": 0.2390832988281204
                },
                {
                    "name": "G3",
                    "midi": 55,
                    "time": 98.5875939042962,
                    "velocity": 0.8818897637795275,
                    "duration": 0.2390832988281204
                },
                {
                    "name": "A#3",
                    "midi": 58,
                    "time": 98.84812668945244,
                    "velocity": 0.8818897637795275,
                    "duration": 0.2390832988281204
                },
                {
                    "name": "G3",
                    "midi": 55,
                    "time": 98.84812668945244,
                    "velocity": 0.8818897637795275,
                    "duration": 0.2390832988281204
                },
                {
                    "name": "A#3",
                    "midi": 58,
                    "time": 99.10865947460869,
                    "velocity": 0.8818897637795275,
                    "duration": 0.24222224804687187
                },
                {
                    "name": "G3",
                    "midi": 55,
                    "time": 99.10865947460869,
                    "velocity": 0.8818897637795275,
                    "duration": 0.24222224804687187
                },
                {
                    "name": "D5",
                    "midi": 74,
                    "time": 99.37233120898368,
                    "velocity": 0.9763779527559056,
                    "duration": 0.24902330468749767
                },
                {
                    "name": "A#3",
                    "midi": 58,
                    "time": 99.37233120898368,
                    "velocity": 0.8818897637795275,
                    "duration": 0.2804127968749981
                },
                {
                    "name": "G3",
                    "midi": 55,
                    "time": 99.37233120898368,
                    "velocity": 0.8818897637795275,
                    "duration": 0.24902330468749767
                },
                {
                    "name": "D5",
                    "midi": 74,
                    "time": 99.5758397499993,
                    "velocity": 0.9763779527559056,
                    "duration": 0.06696424999999806
                },
                {
                    "name": "D#5",
                    "midi": 75,
                    "time": 99.6428039999993,
                    "velocity": 1,
                    "duration": 0.09626110937500698
                },
                {
                    "name": "C4",
                    "midi": 60,
                    "time": 99.6428039999993,
                    "velocity": 0.9133858267716536,
                    "duration": 0.2673338417968836
                },
                {
                    "name": "G3",
                    "midi": 55,
                    "time": 99.6428039999993,
                    "velocity": 0.9133858267716536,
                    "duration": 0.2673338417968836
                },
                {
                    "name": "D5",
                    "midi": 74,
                    "time": 99.72912510351493,
                    "velocity": 0.9763779527559056,
                    "duration": 0.09626110937500698
                },
                {
                    "name": "D#5",
                    "midi": 75,
                    "time": 99.81544620703056,
                    "velocity": 0.937007874015748,
                    "duration": 0.08789057812499834
                },
                {
                    "name": "D#5",
                    "midi": 75,
                    "time": 99.93158732812431,
                    "velocity": 0.9763779527559056,
                    "duration": 0.241699089843749
                },
                {
                    "name": "C4",
                    "midi": 60,
                    "time": 99.93158732812431,
                    "velocity": 0.8818897637795275,
                    "duration": 0.241699089843749
                },
                {
                    "name": "G3",
                    "midi": 55,
                    "time": 99.93158732812431,
                    "velocity": 0.8818897637795275,
                    "duration": 0.241699089843749
                },
                {
                    "name": "D#5",
                    "midi": 75,
                    "time": 100.19473590429618,
                    "velocity": 0.9763779527559056,
                    "duration": 0.2390832988281204
                },
                {
                    "name": "C4",
                    "midi": 60,
                    "time": 100.19473590429618,
                    "velocity": 0.8818897637795275,
                    "duration": 0.2390832988281204
                },
                {
                    "name": "G3",
                    "midi": 55,
                    "time": 100.19473590429618,
                    "velocity": 0.8818897637795275,
                    "duration": 0.2390832988281204
                },
                {
                    "name": "D#5",
                    "midi": 75,
                    "time": 100.45526868945242,
                    "velocity": 0.9763779527559056,
                    "duration": 0.2390832988281204
                },
                {
                    "name": "C4",
                    "midi": 60,
                    "time": 100.45526868945242,
                    "velocity": 0.8818897637795275,
                    "duration": 0.2390832988281204
                },
                {
                    "name": "G3",
                    "midi": 55,
                    "time": 100.45526868945242,
                    "velocity": 0.8818897637795275,
                    "duration": 0.2390832988281204
                },
                {
                    "name": "D#5",
                    "midi": 75,
                    "time": 100.71580147460867,
                    "velocity": 0.9763779527559056,
                    "duration": 0.3960307597656225
                },
                {
                    "name": "C4",
                    "midi": 60,
                    "time": 100.71580147460867,
                    "velocity": 0.8818897637795275,
                    "duration": 0.24222224804687187
                },
                {
                    "name": "G3",
                    "midi": 55,
                    "time": 100.71580147460867,
                    "velocity": 0.8818897637795275,
                    "duration": 0.24222224804687187
                },
                {
                    "name": "C4",
                    "midi": 60,
                    "time": 100.97947320898366,
                    "velocity": 0.8818897637795275,
                    "duration": 0.2804127968749981
                },
                {
                    "name": "G3",
                    "midi": 55,
                    "time": 100.97947320898366,
                    "velocity": 0.8818897637795275,
                    "duration": 0.24902330468749767
                },
                {
                    "name": "G5",
                    "midi": 79,
                    "time": 101.11235539257741,
                    "velocity": 0.9763779527559056,
                    "duration": 0.04080633984375481
                },
                {
                    "name": "A5",
                    "midi": 81,
                    "time": 101.15682383984304,
                    "velocity": 0.9763779527559056,
                    "duration": 0.041852656250000564
                },
                {
                    "name": "C6",
                    "midi": 84,
                    "time": 101.20233860351492,
                    "velocity": 0.9763779527559056,
                    "duration": 0.043945289062492066
                },
                {
                    "name": "C5",
                    "midi": 72,
                    "time": 101.24994599999928,
                    "velocity": 0.9133858267716536,
                    "duration": 0.2673338417968836
                },
                {
                    "name": "A3",
                    "midi": 57,
                    "time": 101.24994599999928,
                    "velocity": 0.9133858267716536,
                    "duration": 0.2673338417968836
                },
                {
                    "name": "G3",
                    "midi": 55,
                    "time": 101.24994599999928,
                    "velocity": 0.9133858267716536,
                    "duration": 0.2673338417968836
                },
                {
                    "name": "C5",
                    "midi": 72,
                    "time": 101.53872932812429,
                    "velocity": 0.8818897637795275,
                    "duration": 0.241699089843749
                },
                {
                    "name": "A3",
                    "midi": 57,
                    "time": 101.53872932812429,
                    "velocity": 0.8818897637795275,
                    "duration": 0.241699089843749
                },
                {
                    "name": "G3",
                    "midi": 55,
                    "time": 101.53872932812429,
                    "velocity": 0.8818897637795275,
                    "duration": 0.241699089843749
                },
                {
                    "name": "C5",
                    "midi": 72,
                    "time": 101.80187790429616,
                    "velocity": 0.8818897637795275,
                    "duration": 0.2390832988281204
                },
                {
                    "name": "A3",
                    "midi": 57,
                    "time": 101.80187790429616,
                    "velocity": 0.8818897637795275,
                    "duration": 0.2390832988281204
                },
                {
                    "name": "G3",
                    "midi": 55,
                    "time": 101.80187790429616,
                    "velocity": 0.8818897637795275,
                    "duration": 0.2390832988281204
                },
                {
                    "name": "C5",
                    "midi": 72,
                    "time": 102.0624106894524,
                    "velocity": 0.8818897637795275,
                    "duration": 0.2390832988281204
                },
                {
                    "name": "A3",
                    "midi": 57,
                    "time": 102.0624106894524,
                    "velocity": 0.8818897637795275,
                    "duration": 0.2390832988281204
                },
                {
                    "name": "G3",
                    "midi": 55,
                    "time": 102.0624106894524,
                    "velocity": 0.8818897637795275,
                    "duration": 0.2390832988281204
                },
                {
                    "name": "C5",
                    "midi": 72,
                    "time": 102.32294347460865,
                    "velocity": 0.9763779527559056,
                    "duration": 0.3960307597656225
                },
                {
                    "name": "A3",
                    "midi": 57,
                    "time": 102.32294347460865,
                    "velocity": 0.8818897637795275,
                    "duration": 0.24222224804687187
                },
                {
                    "name": "G3",
                    "midi": 55,
                    "time": 102.32294347460865,
                    "velocity": 0.8818897637795275,
                    "duration": 0.24222224804687187
                },
                {
                    "name": "A3",
                    "midi": 57,
                    "time": 102.58661520898364,
                    "velocity": 0.8818897637795275,
                    "duration": 0.24902330468749767
                },
                {
                    "name": "G3",
                    "midi": 55,
                    "time": 102.58661520898364,
                    "velocity": 0.8818897637795275,
                    "duration": 0.2804127968749981
                },
                {
                    "name": "D#5",
                    "midi": 75,
                    "time": 102.7194973925774,
                    "velocity": 0.9763779527559056,
                    "duration": 0.04080633984375481
                },
                {
                    "name": "F#5",
                    "midi": 78,
                    "time": 102.76396583984302,
                    "velocity": 0.9763779527559056,
                    "duration": 0.041852656250000564
                },
                {
                    "name": "A5",
                    "midi": 81,
                    "time": 102.8094806035149,
                    "velocity": 0.9763779527559056,
                    "duration": 0.043945289062492066
                },
                {
                    "name": "A4",
                    "midi": 69,
                    "time": 102.85708799999927,
                    "velocity": 1,
                    "duration": 0.2673338417968836
                },
                {
                    "name": "A3",
                    "midi": 57,
                    "time": 102.85708799999927,
                    "velocity": 0.8503937007874016,
                    "duration": 0.2673338417968836
                },
                {
                    "name": "C4",
                    "midi": 60,
                    "time": 102.85708799999927,
                    "velocity": 0.9291338582677166,
                    "duration": 0.2673338417968836
                },
                {
                    "name": "F#3",
                    "midi": 54,
                    "time": 102.85708799999927,
                    "velocity": 0.9133858267716536,
                    "duration": 0.2673338417968836
                },
                {
                    "name": "D#5",
                    "midi": 75,
                    "time": 103.14587132812427,
                    "velocity": 0.9763779527559056,
                    "duration": 0.241699089843749
                },
                {
                    "name": "A3",
                    "midi": 57,
                    "time": 103.14587132812427,
                    "velocity": 0.8188976377952756,
                    "duration": 0.241699089843749
                },
                {
                    "name": "C4",
                    "midi": 60,
                    "time": 103.14587132812427,
                    "velocity": 0.9291338582677166,
                    "duration": 0.241699089843749
                },
                {
                    "name": "F#3",
                    "midi": 54,
                    "time": 103.14587132812427,
                    "velocity": 0.8818897637795275,
                    "duration": 0.241699089843749
                },
                {
                    "name": "D5",
                    "midi": 74,
                    "time": 103.40901990429614,
                    "velocity": 0.9763779527559056,
                    "duration": 0.2390832988281204
                },
                {
                    "name": "A3",
                    "midi": 57,
                    "time": 103.40901990429614,
                    "velocity": 0.8188976377952756,
                    "duration": 0.2390832988281204
                },
                {
                    "name": "D4",
                    "midi": 62,
                    "time": 103.40901990429614,
                    "velocity": 0.9291338582677166,
                    "duration": 0.2390832988281204
                },
                {
                    "name": "F#3",
                    "midi": 54,
                    "time": 103.40901990429614,
                    "velocity": 0.8818897637795275,
                    "duration": 0.2390832988281204
                },
                {
                    "name": "C5",
                    "midi": 72,
                    "time": 103.66955268945239,
                    "velocity": 0.9763779527559056,
                    "duration": 0.2390832988281204
                },
                {
                    "name": "A3",
                    "midi": 57,
                    "time": 103.66955268945239,
                    "velocity": 0.8188976377952756,
                    "duration": 0.2390832988281204
                },
                {
                    "name": "D4",
                    "midi": 62,
                    "time": 103.66955268945239,
                    "velocity": 0.8976377952755905,
                    "duration": 0.2390832988281204
                },
                {
                    "name": "F#3",
                    "midi": 54,
                    "time": 103.66955268945239,
                    "velocity": 0.8818897637795275,
                    "duration": 0.2390832988281204
                },
                {
                    "name": "C5",
                    "midi": 72,
                    "time": 103.92851599999926,
                    "velocity": 0.9763779527559056,
                    "duration": 0.0706263574218724
                },
                {
                    "name": "A3",
                    "midi": 57,
                    "time": 103.93008547460863,
                    "velocity": 0.8188976377952756,
                    "duration": 0.24222224804687187
                },
                {
                    "name": "D4",
                    "midi": 62,
                    "time": 103.93008547460863,
                    "velocity": 0.8976377952755905,
                    "duration": 0.24222224804687187
                },
                {
                    "name": "F#3",
                    "midi": 54,
                    "time": 103.93008547460863,
                    "velocity": 0.8818897637795275,
                    "duration": 0.24222224804687187
                },
                {
                    "name": "A#4",
                    "midi": 70,
                    "time": 103.99181814257739,
                    "velocity": 0.9763779527559056,
                    "duration": 0.0706263574218724
                },
                {
                    "name": "C5",
                    "midi": 72,
                    "time": 104.05512028515551,
                    "velocity": 0.9763779527559056,
                    "duration": 0.0706263574218724
                },
                {
                    "name": "A#4",
                    "midi": 70,
                    "time": 104.11842242773363,
                    "velocity": 0.937007874015748,
                    "duration": 0.07219583203124103
                },
                {
                    "name": "A4",
                    "midi": 69,
                    "time": 104.19375720898363,
                    "velocity": 0.9763779527559056,
                    "duration": 0.24902330468749767
                },
                {
                    "name": "A3",
                    "midi": 57,
                    "time": 104.19375720898363,
                    "velocity": 0.8188976377952756,
                    "duration": 0.2804127968749981
                },
                {
                    "name": "D4",
                    "midi": 62,
                    "time": 104.19375720898363,
                    "velocity": 0.8976377952755905,
                    "duration": 0.24902330468749767
                },
                {
                    "name": "F#3",
                    "midi": 54,
                    "time": 104.19375720898363,
                    "velocity": 0.8818897637795275,
                    "duration": 0.2804127968749981
                },
                {
                    "name": "A4",
                    "midi": 69,
                    "time": 104.46422999999925,
                    "velocity": 0.9763779527559056,
                    "duration": 0.1710727324218766
                },
                {
                    "name": "D4",
                    "midi": 62,
                    "time": 104.46422999999925,
                    "velocity": 0.9763779527559056,
                    "duration": 1.0724743164062431
                },
                {
                    "name": "G3",
                    "midi": 55,
                    "time": 104.46422999999925,
                    "velocity": 0.9763779527559056,
                    "duration": 1.0714279999999974
                },
                {
                    "name": "A#4",
                    "midi": 70,
                    "time": 104.59815849999924,
                    "velocity": 0.9763779527559056,
                    "duration": 0.047607396484380615
                },
                {
                    "name": "A4",
                    "midi": 69,
                    "time": 104.6410574726555,
                    "velocity": 0.9763779527559056,
                    "duration": 0.047607396484366404
                },
                {
                    "name": "A#4",
                    "midi": 70,
                    "time": 104.68395644531175,
                    "velocity": 0.937007874015748,
                    "duration": 0.5922150859374966
                },
                {
                    "name": "A4",
                    "midi": 69,
                    "time": 105.27669468945237,
                    "velocity": 0.9763779527559056,
                    "duration": 0.2390832988281204
                },
                {
                    "name": "G4",
                    "midi": 67,
                    "time": 105.53722747460861,
                    "velocity": 0.9763779527559056,
                    "duration": 0.533621367187493
                },
                {
                    "name": "G3",
                    "midi": 55,
                    "time": 105.53722747460861,
                    "velocity": 0.9763779527559056,
                    "duration": 0.533621367187493
                },
                {
                    "name": "G2",
                    "midi": 43,
                    "time": 105.53722747460861,
                    "velocity": 0.9763779527559056,
                    "duration": 0.533621367187493
                },
                {
                    "name": "D#5",
                    "midi": 75,
                    "time": 106.07137199999923,
                    "velocity": 0.6614173228346457,
                    "duration": 0.10463164062500141
                },
                {
                    "name": "G4",
                    "midi": 67,
                    "time": 106.07137199999923,
                    "velocity": 0.5039370078740157,
                    "duration": 0.2673338417968836
                },
                {
                    "name": "A#4",
                    "midi": 70,
                    "time": 106.07137199999923,
                    "velocity": 0.5826771653543307,
                    "duration": 0.2673338417968836
                },
                {
                    "name": "D5",
                    "midi": 74,
                    "time": 106.16501731835861,
                    "velocity": 0.6299212598425197,
                    "duration": 0.10463164062500141
                },
                {
                    "name": "D#5",
                    "midi": 75,
                    "time": 106.25866263671799,
                    "velocity": 0.5905511811023622,
                    "duration": 0.32069597851563003
                },
                {
                    "name": "G4",
                    "midi": 67,
                    "time": 106.36015532812424,
                    "velocity": 0.47244094488188976,
                    "duration": 0.241699089843749
                },
                {
                    "name": "A#4",
                    "midi": 70,
                    "time": 106.36015532812424,
                    "velocity": 0.5511811023622047,
                    "duration": 0.241699089843749
                },
                {
                    "name": "D#5",
                    "midi": 75,
                    "time": 106.60708599999923,
                    "velocity": 0.6299212598425197,
                    "duration": 0.10410848242187853
                },
                {
                    "name": "G4",
                    "midi": 67,
                    "time": 106.62330390429611,
                    "velocity": 0.47244094488188976,
                    "duration": 0.2390832988281204
                },
                {
                    "name": "A#4",
                    "midi": 70,
                    "time": 106.62330390429611,
                    "velocity": 0.5511811023622047,
                    "duration": 0.2390832988281204
                },
                {
                    "name": "D5",
                    "midi": 74,
                    "time": 106.70020816015548,
                    "velocity": 0.6299212598425197,
                    "duration": 0.10410848242186432
                },
                {
                    "name": "D#5",
                    "midi": 75,
                    "time": 106.79333032031172,
                    "velocity": 0.5905511811023622,
                    "duration": 0.6173266796874941
                },
                {
                    "name": "G4",
                    "midi": 67,
                    "time": 106.88383668945235,
                    "velocity": 0.47244094488188976,
                    "duration": 0.2390832988281204
                },
                {
                    "name": "A#4",
                    "midi": 70,
                    "time": 106.88383668945235,
                    "velocity": 0.5511811023622047,
                    "duration": 0.2390832988281204
                },
                {
                    "name": "G4",
                    "midi": 67,
                    "time": 107.1443694746086,
                    "velocity": 0.47244094488188976,
                    "duration": 0.24222224804687187
                },
                {
                    "name": "A#4",
                    "midi": 70,
                    "time": 107.1443694746086,
                    "velocity": 0.5511811023622047,
                    "duration": 0.24222224804687187
                },
                {
                    "name": "G5",
                    "midi": 79,
                    "time": 107.40804120898359,
                    "velocity": 0.6299212598425197,
                    "duration": 0.12189586132812735
                },
                {
                    "name": "G4",
                    "midi": 67,
                    "time": 107.40804120898359,
                    "velocity": 0.47244094488188976,
                    "duration": 0.2804127968749981
                },
                {
                    "name": "A#4",
                    "midi": 70,
                    "time": 107.40804120898359,
                    "velocity": 0.5826771653543307,
                    "duration": 0.24902330468749767
                },
                {
                    "name": "C#5",
                    "midi": 73,
                    "time": 107.54092339257734,
                    "velocity": 0.6299212598425197,
                    "duration": 0.12660428515624744
                },
                {
                    "name": "C#5",
                    "midi": 73,
                    "time": 107.67851399999921,
                    "velocity": 0.6299212598425197,
                    "duration": 0.5780898144531221
                },
                {
                    "name": "F#4",
                    "midi": 66,
                    "time": 107.67851399999921,
                    "velocity": 0.5039370078740157,
                    "duration": 0.2673338417968836
                },
                {
                    "name": "A4",
                    "midi": 69,
                    "time": 107.67851399999921,
                    "velocity": 0.6141732283464567,
                    "duration": 0.2673338417968836
                },
                {
                    "name": "F#4",
                    "midi": 66,
                    "time": 107.96729732812422,
                    "velocity": 0.47244094488188976,
                    "duration": 0.241699089843749
                },
                {
                    "name": "A4",
                    "midi": 69,
                    "time": 107.96729732812422,
                    "velocity": 0.5511811023622047,
                    "duration": 0.241699089843749
                },
                {
                    "name": "D5",
                    "midi": 74,
                    "time": 108.21422799999921,
                    "velocity": 0.6299212598425197,
                    "duration": 0.10358532421874145
                },
                {
                    "name": "F#4",
                    "midi": 66,
                    "time": 108.23044590429609,
                    "velocity": 0.47244094488188976,
                    "duration": 0.2390832988281062
                },
                {
                    "name": "A4",
                    "midi": 69,
                    "time": 108.23044590429609,
                    "velocity": 0.5511811023622047,
                    "duration": 0.2390832988281062
                },
                {
                    "name": "C#5",
                    "midi": 73,
                    "time": 108.30682700195233,
                    "velocity": 0.6299212598425197,
                    "duration": 0.10358532421874145
                },
                {
                    "name": "D5",
                    "midi": 74,
                    "time": 108.39942600390545,
                    "velocity": 0.5905511811023622,
                    "duration": 0.6183729960937399
                },
                {
                    "name": "F#4",
                    "midi": 66,
                    "time": 108.49097868945232,
                    "velocity": 0.47244094488188976,
                    "duration": 0.2390832988281204
                },
                {
                    "name": "A4",
                    "midi": 69,
                    "time": 108.49097868945232,
                    "velocity": 0.5511811023622047,
                    "duration": 0.2390832988281204
                },
                {
                    "name": "F#4",
                    "midi": 66,
                    "time": 108.75151147460856,
                    "velocity": 0.47244094488188976,
                    "duration": 0.24222224804687187
                },
                {
                    "name": "A4",
                    "midi": 69,
                    "time": 108.75151147460856,
                    "velocity": 0.5511811023622047,
                    "duration": 0.24222224804687187
                },
                {
                    "name": "F#4",
                    "midi": 66,
                    "time": 109.01518320898356,
                    "velocity": 0.47244094488188976,
                    "duration": 0.2804127968749981
                },
                {
                    "name": "A4",
                    "midi": 69,
                    "time": 109.01518320898356,
                    "velocity": 0.5826771653543307,
                    "duration": 0.24902330468749767
                },
                {
                    "name": "D5",
                    "midi": 74,
                    "time": 109.28565599999918,
                    "velocity": 0.6614173228346457,
                    "duration": 0.10515479882812429
                },
                {
                    "name": "F4",
                    "midi": 65,
                    "time": 109.28565599999918,
                    "velocity": 0.5039370078740157,
                    "duration": 0.26733384179686936
                },
                {
                    "name": "G#4",
                    "midi": 68,
                    "time": 109.28565599999918,
                    "velocity": 0.6141732283464567,
                    "duration": 0.26733384179686936
                },
                {
                    "name": "C5",
                    "midi": 72,
                    "time": 109.37982447656168,
                    "velocity": 0.6299212598425197,
                    "duration": 0.10515479882812429
                },
                {
                    "name": "D5",
                    "midi": 74,
                    "time": 109.47399295312418,
                    "velocity": 0.5905511811023622,
                    "duration": 0.31964966210937007
                },
                {
                    "name": "F4",
                    "midi": 65,
                    "time": 109.57443932812417,
                    "velocity": 0.47244094488188976,
                    "duration": 0.241699089843749
                },
                {
                    "name": "G#4",
                    "midi": 68,
                    "time": 109.57443932812417,
                    "velocity": 0.5511811023622047,
                    "duration": 0.241699089843749
                },
                {
                    "name": "D5",
                    "midi": 74,
                    "time": 109.82136999999916,
                    "velocity": 0.6299212598425197,
                    "duration": 0.10358532421875566
                },
                {
                    "name": "F4",
                    "midi": 65,
                    "time": 109.83758790429604,
                    "velocity": 0.47244094488188976,
                    "duration": 0.2390832988281204
                },
                {
                    "name": "G#4",
                    "midi": 68,
                    "time": 109.83758790429604,
                    "velocity": 0.5511811023622047,
                    "duration": 0.2390832988281204
                },
                {
                    "name": "C5",
                    "midi": 72,
                    "time": 109.9139690019523,
                    "velocity": 0.6299212598425197,
                    "duration": 0.10358532421874145
                },
                {
                    "name": "D5",
                    "midi": 74,
                    "time": 110.00656800390541,
                    "velocity": 0.5905511811023622,
                    "duration": 0.6183729960937399
                },
                {
                    "name": "F4",
                    "midi": 65,
                    "time": 110.09812068945229,
                    "velocity": 0.47244094488188976,
                    "duration": 0.2390832988281204
                },
                {
                    "name": "G#4",
                    "midi": 68,
                    "time": 110.09812068945229,
                    "velocity": 0.5511811023622047,
                    "duration": 0.2390832988281204
                },
                {
                    "name": "F4",
                    "midi": 65,
                    "time": 110.35865347460853,
                    "velocity": 0.47244094488188976,
                    "duration": 0.24222224804687187
                },
                {
                    "name": "G#4",
                    "midi": 68,
                    "time": 110.35865347460853,
                    "velocity": 0.5511811023622047,
                    "duration": 0.24222224804687187
                },
                {
                    "name": "F5",
                    "midi": 77,
                    "time": 110.62232520898353,
                    "velocity": 0.6299212598425197,
                    "duration": 0.12189586132812735
                },
                {
                    "name": "F4",
                    "midi": 65,
                    "time": 110.62232520898353,
                    "velocity": 0.47244094488188976,
                    "duration": 0.2804127968749981
                },
                {
                    "name": "G#4",
                    "midi": 68,
                    "time": 110.62232520898353,
                    "velocity": 0.5826771653543307,
                    "duration": 0.24902330468749767
                },
                {
                    "name": "B4",
                    "midi": 71,
                    "time": 110.75520739257728,
                    "velocity": 0.6299212598425197,
                    "duration": 0.12660428515624744
                },
                {
                    "name": "B4",
                    "midi": 71,
                    "time": 110.89279799999915,
                    "velocity": 0.6299212598425197,
                    "duration": 0.5780898144531221
                },
                {
                    "name": "E4",
                    "midi": 64,
                    "time": 110.89279799999915,
                    "velocity": 0.5039370078740157,
                    "duration": 0.2673338417968836
                },
                {
                    "name": "G4",
                    "midi": 67,
                    "time": 110.89279799999915,
                    "velocity": 0.6141732283464567,
                    "duration": 0.2673338417968836
                },
                {
                    "name": "E4",
                    "midi": 64,
                    "time": 111.18158132812415,
                    "velocity": 0.47244094488188976,
                    "duration": 0.241699089843749
                },
                {
                    "name": "G4",
                    "midi": 67,
                    "time": 111.18158132812415,
                    "velocity": 0.5511811023622047,
                    "duration": 0.241699089843749
                },
                {
                    "name": "C5",
                    "midi": 72,
                    "time": 111.42851199999915,
                    "velocity": 0.6299212598425197,
                    "duration": 0.10463164062500141
                },
                {
                    "name": "E4",
                    "midi": 64,
                    "time": 111.44472990429603,
                    "velocity": 0.47244094488188976,
                    "duration": 0.2390832988281204
                },
                {
                    "name": "G4",
                    "midi": 67,
                    "time": 111.44472990429603,
                    "velocity": 0.5511811023622047,
                    "duration": 0.2390832988281204
                },
                {
                    "name": "B4",
                    "midi": 71,
                    "time": 111.52215731835852,
                    "velocity": 0.6299212598425197,
                    "duration": 0.10463164062500141
                },
                {
                    "name": "C5",
                    "midi": 72,
                    "time": 111.6158026367179,
                    "velocity": 0.5905511811023622,
                    "duration": 0.6162803632812341
                },
                {
                    "name": "E4",
                    "midi": 64,
                    "time": 111.70526268945227,
                    "velocity": 0.47244094488188976,
                    "duration": 0.2390832988281204
                },
                {
                    "name": "G4",
                    "midi": 67,
                    "time": 111.70526268945227,
                    "velocity": 0.5511811023622047,
                    "duration": 0.2390832988281204
                },
                {
                    "name": "E4",
                    "midi": 64,
                    "time": 111.96579547460851,
                    "velocity": 0.47244094488188976,
                    "duration": 0.24222224804687187
                },
                {
                    "name": "G4",
                    "midi": 67,
                    "time": 111.96579547460851,
                    "velocity": 0.5511811023622047,
                    "duration": 0.24222224804687187
                },
                {
                    "name": "E4",
                    "midi": 64,
                    "time": 112.22946720898351,
                    "velocity": 0.47244094488188976,
                    "duration": 0.2804127968749981
                },
                {
                    "name": "G4",
                    "midi": 67,
                    "time": 112.22946720898351,
                    "velocity": 0.5826771653543307,
                    "duration": 0.24902330468749767
                },
                {
                    "name": "C5",
                    "midi": 72,
                    "time": 112.49993999999913,
                    "velocity": 0.6614173228346457,
                    "duration": 0.2673338417968836
                },
                {
                    "name": "F#4",
                    "midi": 66,
                    "time": 112.49993999999913,
                    "velocity": 0.5039370078740157,
                    "duration": 0.2673338417968836
                },
                {
                    "name": "A4",
                    "midi": 69,
                    "time": 112.49993999999913,
                    "velocity": 0.6141732283464567,
                    "duration": 0.2673338417968836
                },
                {
                    "name": "D#5",
                    "midi": 75,
                    "time": 112.78872332812414,
                    "velocity": 0.6299212598425197,
                    "duration": 0.241699089843749
                },
                {
                    "name": "F#4",
                    "midi": 66,
                    "time": 112.78872332812414,
                    "velocity": 0.47244094488188976,
                    "duration": 0.241699089843749
                },
                {
                    "name": "A4",
                    "midi": 69,
                    "time": 112.78872332812414,
                    "velocity": 0.5511811023622047,
                    "duration": 0.241699089843749
                },
                {
                    "name": "D5",
                    "midi": 74,
                    "time": 113.05187190429601,
                    "velocity": 0.6299212598425197,
                    "duration": 0.2390832988281204
                },
                {
                    "name": "F#4",
                    "midi": 66,
                    "time": 113.05187190429601,
                    "velocity": 0.47244094488188976,
                    "duration": 0.2390832988281204
                },
                {
                    "name": "A4",
                    "midi": 69,
                    "time": 113.05187190429601,
                    "velocity": 0.5511811023622047,
                    "duration": 0.2390832988281204
                },
                {
                    "name": "C5",
                    "midi": 72,
                    "time": 113.31240468945225,
                    "velocity": 0.6299212598425197,
                    "duration": 0.2390832988281204
                },
                {
                    "name": "F#4",
                    "midi": 66,
                    "time": 113.31240468945225,
                    "velocity": 0.47244094488188976,
                    "duration": 0.2390832988281204
                },
                {
                    "name": "A4",
                    "midi": 69,
                    "time": 113.31240468945225,
                    "velocity": 0.5511811023622047,
                    "duration": 0.2390832988281204
                },
                {
                    "name": "C5",
                    "midi": 72,
                    "time": 113.57136799999913,
                    "velocity": 0.6299212598425197,
                    "duration": 0.0706263574218724
                },
                {
                    "name": "F#4",
                    "midi": 66,
                    "time": 113.5729374746085,
                    "velocity": 0.5354330708661418,
                    "duration": 0.24222224804687187
                },
                {
                    "name": "A#4",
                    "midi": 70,
                    "time": 113.63467014257725,
                    "velocity": 0.6299212598425197,
                    "duration": 0.0706263574218724
                },
                {
                    "name": "C5",
                    "midi": 72,
                    "time": 113.69797228515537,
                    "velocity": 0.6299212598425197,
                    "duration": 0.0706263574218724
                },
                {
                    "name": "A#4",
                    "midi": 70,
                    "time": 113.7612744277335,
                    "velocity": 0.5905511811023622,
                    "duration": 0.07219583203124103
                },
                {
                    "name": "A4",
                    "midi": 69,
                    "time": 113.83660920898349,
                    "velocity": 0.6299212598425197,
                    "duration": 0.24902330468749767
                },
                {
                    "name": "F#4",
                    "midi": 66,
                    "time": 113.83660920898349,
                    "velocity": 0.5354330708661418,
                    "duration": 0.2804127968749981
                },
                {
                    "name": "A#4",
                    "midi": 70,
                    "time": 114.10708199999911,
                    "velocity": 0.6614173228346457,
                    "duration": 0.14439166406249626
                },
                {
                    "name": "G4",
                    "midi": 67,
                    "time": 114.10708199999911,
                    "velocity": 0.6614173228346457,
                    "duration": 0.5514087460937276
                },
                {
                    "name": "A4",
                    "midi": 69,
                    "time": 114.26298314453035,
                    "velocity": 0.6299212598425197,
                    "duration": 0.12137270312500448
                },
                {
                    "name": "A#4",
                    "midi": 70,
                    "time": 114.3749389999991,
                    "velocity": 0.6299212598425197,
                    "duration": 0.047607396484380615
                },
                {
                    "name": "A4",
                    "midi": 69,
                    "time": 114.41783797265536,
                    "velocity": 0.6299212598425197,
                    "duration": 0.047607396484366404
                },
                {
                    "name": "A#4",
                    "midi": 70,
                    "time": 114.46073694531161,
                    "velocity": 0.5905511811023622,
                    "duration": 0.04446844726561494
                },
                {
                    "name": "D5",
                    "midi": 74,
                    "time": 114.5277011953116,
                    "velocity": 0.6299212598425197,
                    "duration": 0.11980322851562164
                },
                {
                    "name": "A#4",
                    "midi": 70,
                    "time": 114.65901390429596,
                    "velocity": 0.6299212598425197,
                    "duration": 0.11875691210937589
                },
                {
                    "name": "G3",
                    "midi": 55,
                    "time": 114.65901390429596,
                    "velocity": 0.6299212598425197,
                    "duration": 0.2390832988281204
                },
                {
                    "name": "A4",
                    "midi": 69,
                    "time": 114.78928029687408,
                    "velocity": 0.6299212598425197,
                    "duration": 0.11928007031249876
                },
                {
                    "name": "A#4",
                    "midi": 70,
                    "time": 114.91065299999909,
                    "velocity": 0.6299212598425197,
                    "duration": 0.047607396484380615
                },
                {
                    "name": "G4",
                    "midi": 67,
                    "time": 114.91954668945222,
                    "velocity": 0.6299212598425197,
                    "duration": 0.2390832988281204
                },
                {
                    "name": "A4",
                    "midi": 69,
                    "time": 114.95355197265535,
                    "velocity": 0.6299212598425197,
                    "duration": 0.047607396484366404
                },
                {
                    "name": "A#4",
                    "midi": 70,
                    "time": 114.9964509453116,
                    "velocity": 0.5905511811023622,
                    "duration": 0.04446844726561494
                },
                {
                    "name": "D5",
                    "midi": 74,
                    "time": 115.04981308203034,
                    "velocity": 0.6299212598425197,
                    "duration": 0.11928007031249876
                },
                {
                    "name": "A4",
                    "midi": 69,
                    "time": 115.18007947460846,
                    "velocity": 0.6299212598425197,
                    "duration": 0.1208495449218816
                },
                {
                    "name": "F#4",
                    "midi": 66,
                    "time": 115.18007947460846,
                    "velocity": 0.6299212598425197,
                    "duration": 0.24222224804688608
                },
                {
                    "name": "G4",
                    "midi": 67,
                    "time": 115.31191534179597,
                    "velocity": 0.6299212598425197,
                    "duration": 0.1208495449218816
                },
                {
                    "name": "D4",
                    "midi": 62,
                    "time": 115.44375120898347,
                    "velocity": 0.6299212598425197,
                    "duration": 0.24902330468748346
                },
                {
                    "name": "A4",
                    "midi": 69,
                    "time": 115.4463669999991,
                    "velocity": 0.6299212598425197,
                    "duration": 0.047607396484366404
                },
                {
                    "name": "G4",
                    "midi": 67,
                    "time": 115.48926597265535,
                    "velocity": 0.6299212598425197,
                    "duration": 0.047607396484366404
                },
                {
                    "name": "A4",
                    "midi": 69,
                    "time": 115.53216494531159,
                    "velocity": 0.5905511811023622,
                    "duration": 0.04446844726561494
                },
                {
                    "name": "C5",
                    "midi": 72,
                    "time": 115.57663339257721,
                    "velocity": 0.6299212598425197,
                    "duration": 0.12660428515624744
                },
                {
                    "name": "A#4",
                    "midi": 70,
                    "time": 115.71422399999908,
                    "velocity": 0.6614173228346457,
                    "duration": 0.14439166406249626
                },
                {
                    "name": "G4",
                    "midi": 67,
                    "time": 115.71422399999908,
                    "velocity": 0.6614173228346457,
                    "duration": 0.5514087460937276
                },
                {
                    "name": "A4",
                    "midi": 69,
                    "time": 115.87012514453032,
                    "velocity": 0.6299212598425197,
                    "duration": 0.12137270312500448
                },
                {
                    "name": "A#4",
                    "midi": 70,
                    "time": 115.98208099999907,
                    "velocity": 0.6299212598425197,
                    "duration": 0.047607396484380615
                },
                {
                    "name": "A4",
                    "midi": 69,
                    "time": 116.02497997265533,
                    "velocity": 0.6299212598425197,
                    "duration": 0.047607396484366404
                },
                {
                    "name": "A#4",
                    "midi": 70,
                    "time": 116.06787894531158,
                    "velocity": 0.5905511811023622,
                    "duration": 0.04446844726561494
                },
                {
                    "name": "D5",
                    "midi": 74,
                    "time": 116.13484319531156,
                    "velocity": 0.6299212598425197,
                    "duration": 0.11980322851562164
                },
                {
                    "name": "A#4",
                    "midi": 70,
                    "time": 116.26615590429593,
                    "velocity": 0.6299212598425197,
                    "duration": 0.11875691210937589
                },
                {
                    "name": "G3",
                    "midi": 55,
                    "time": 116.26615590429593,
                    "velocity": 0.6299212598425197,
                    "duration": 0.2390832988281204
                },
                {
                    "name": "A4",
                    "midi": 69,
                    "time": 116.39642229687405,
                    "velocity": 0.6299212598425197,
                    "duration": 0.11928007031249876
                },
                {
                    "name": "A#4",
                    "midi": 70,
                    "time": 116.51779499999905,
                    "velocity": 0.6299212598425197,
                    "duration": 0.047607396484380615
                },
                {
                    "name": "G4",
                    "midi": 67,
                    "time": 116.52668868945219,
                    "velocity": 0.6299212598425197,
                    "duration": 0.2390832988281204
                },
                {
                    "name": "A4",
                    "midi": 69,
                    "time": 116.56069397265532,
                    "velocity": 0.6299212598425197,
                    "duration": 0.047607396484366404
                },
                {
                    "name": "A#4",
                    "midi": 70,
                    "time": 116.60359294531156,
                    "velocity": 0.5905511811023622,
                    "duration": 0.04446844726561494
                },
                {
                    "name": "D5",
                    "midi": 74,
                    "time": 116.65695508203031,
                    "velocity": 0.6299212598425197,
                    "duration": 0.11928007031249876
                },
                {
                    "name": "A4",
                    "midi": 69,
                    "time": 116.78722147460843,
                    "velocity": 0.6299212598425197,
                    "duration": 0.1208495449218816
                },
                {
                    "name": "F#4",
                    "midi": 66,
                    "time": 116.78722147460843,
                    "velocity": 0.6299212598425197,
                    "duration": 0.24222224804688608
                },
                {
                    "name": "G4",
                    "midi": 67,
                    "time": 116.91905734179593,
                    "velocity": 0.6299212598425197,
                    "duration": 0.1208495449218816
                },
                {
                    "name": "D4",
                    "midi": 62,
                    "time": 117.05089320898344,
                    "velocity": 0.6299212598425197,
                    "duration": 0.24902330468748346
                },
                {
                    "name": "A4",
                    "midi": 69,
                    "time": 117.05350899999907,
                    "velocity": 0.6299212598425197,
                    "duration": 0.047607396484366404
                },
                {
                    "name": "G4",
                    "midi": 67,
                    "time": 117.09640797265531,
                    "velocity": 0.6299212598425197,
                    "duration": 0.047607396484366404
                },
                {
                    "name": "A4",
                    "midi": 69,
                    "time": 117.13930694531156,
                    "velocity": 0.5905511811023622,
                    "duration": 0.04446844726561494
                },
                {
                    "name": "C5",
                    "midi": 72,
                    "time": 117.18377539257718,
                    "velocity": 0.6299212598425197,
                    "duration": 0.12660428515624744
                },
                {
                    "name": "A#4",
                    "midi": 70,
                    "time": 117.32136599999905,
                    "velocity": 0.6614173228346457,
                    "duration": 0.14439166406249626
                },
                {
                    "name": "G4",
                    "midi": 67,
                    "time": 117.32136599999905,
                    "velocity": 0.6614173228346457,
                    "duration": 0.5514087460937276
                },
                {
                    "name": "A4",
                    "midi": 69,
                    "time": 117.47726714453029,
                    "velocity": 0.6299212598425197,
                    "duration": 0.12137270312500448
                },
                {
                    "name": "A#4",
                    "midi": 70,
                    "time": 117.58922299999904,
                    "velocity": 0.6299212598425197,
                    "duration": 0.047607396484380615
                },
                {
                    "name": "A4",
                    "midi": 69,
                    "time": 117.6321219726553,
                    "velocity": 0.6299212598425197,
                    "duration": 0.047607396484366404
                },
                {
                    "name": "A#4",
                    "midi": 70,
                    "time": 117.67502094531154,
                    "velocity": 0.5905511811023622,
                    "duration": 0.04446844726561494
                },
                {
                    "name": "C5",
                    "midi": 72,
                    "time": 117.74198519531153,
                    "velocity": 0.6299212598425197,
                    "duration": 0.11980322851562164
                },
                {
                    "name": "A#4",
                    "midi": 70,
                    "time": 117.8732979042959,
                    "velocity": 0.6299212598425197,
                    "duration": 0.2390832988281204
                },
                {
                    "name": "G3",
                    "midi": 55,
                    "time": 117.8732979042959,
                    "velocity": 0.6299212598425197,
                    "duration": 0.2390832988281204
                },
                {
                    "name": "D5",
                    "midi": 74,
                    "time": 118.13383068945214,
                    "velocity": 0.6299212598425197,
                    "duration": 0.2390832988281204
                },
                {
                    "name": "A#4",
                    "midi": 70,
                    "time": 118.13383068945214,
                    "velocity": 0.6299212598425197,
                    "duration": 0.2390832988281204
                },
                {
                    "name": "D5",
                    "midi": 74,
                    "time": 118.39279399999901,
                    "velocity": 0.6299212598425197,
                    "duration": 0.0706263574218724
                },
                {
                    "name": "A4",
                    "midi": 69,
                    "time": 118.39436347460838,
                    "velocity": 0.6299212598425197,
                    "duration": 0.24222224804687187
                },
                {
                    "name": "C5",
                    "midi": 72,
                    "time": 118.45609614257714,
                    "velocity": 0.6299212598425197,
                    "duration": 0.0706263574218724
                },
                {
                    "name": "D5",
                    "midi": 74,
                    "time": 118.51939828515526,
                    "velocity": 0.6299212598425197,
                    "duration": 0.0706263574218724
                },
                {
                    "name": "C5",
                    "midi": 72,
                    "time": 118.58270042773339,
                    "velocity": 0.5905511811023622,
                    "duration": 0.07219583203124103
                },
                {
                    "name": "A#4",
                    "midi": 70,
                    "time": 118.65803520898338,
                    "velocity": 0.6299212598425197,
                    "duration": 0.24902330468749767
                },
                {
                    "name": "G4",
                    "midi": 67,
                    "time": 118.65803520898338,
                    "velocity": 0.6299212598425197,
                    "duration": 0.24902330468749767
                },
                {
                    "name": "A#4",
                    "midi": 70,
                    "time": 118.928507999999,
                    "velocity": 0.6614173228346457,
                    "duration": 0.12869691796875316
                },
                {
                    "name": "D4",
                    "midi": 62,
                    "time": 118.928507999999,
                    "velocity": 0.6614173228346457,
                    "duration": 0.4200960371093885
                },
                {
                    "name": "A4",
                    "midi": 69,
                    "time": 119.0436028046865,
                    "velocity": 0.6299212598425197,
                    "duration": 0.08527478710938396
                },
                {
                    "name": "A#4",
                    "midi": 70,
                    "time": 119.11998390234275,
                    "velocity": 0.6299212598425197,
                    "duration": 0.08527478710938396
                },
                {
                    "name": "A4",
                    "midi": 69,
                    "time": 119.196364999999,
                    "velocity": 0.6299212598425197,
                    "duration": 0.08527478710938396
                },
                {
                    "name": "A#4",
                    "midi": 70,
                    "time": 119.27274609765526,
                    "velocity": 0.6299212598425197,
                    "duration": 0.08527478710938396
                },
                {
                    "name": "A4",
                    "midi": 69,
                    "time": 119.34912719531151,
                    "velocity": 0.6299212598425197,
                    "duration": 0.08527478710938396
                },
                {
                    "name": "A3",
                    "midi": 57,
                    "time": 119.34912719531151,
                    "velocity": 0.6299212598425197,
                    "duration": 0.11980322851563585
                },
                {
                    "name": "A#4",
                    "midi": 70,
                    "time": 119.42550829296776,
                    "velocity": 0.6299212598425197,
                    "duration": 0.08527478710938396
                },
                {
                    "name": "F#3",
                    "midi": 54,
                    "time": 119.48043990429589,
                    "velocity": 0.6299212598425197,
                    "duration": 0.11875691210937589
                },
                {
                    "name": "A4",
                    "midi": 69,
                    "time": 119.50188939062402,
                    "velocity": 0.6299212598425197,
                    "duration": 0.08527478710938396
                },
                {
                    "name": "A#4",
                    "midi": 70,
                    "time": 119.57827048828027,
                    "velocity": 0.6299212598425197,
                    "duration": 0.08527478710938396
                },
                {
                    "name": "D3",
                    "midi": 50,
                    "time": 119.61070629687401,
                    "velocity": 0.6299212598425197,
                    "duration": 0.11928007031251298
                },
                {
                    "name": "A4",
                    "midi": 69,
                    "time": 119.65465158593652,
                    "velocity": 0.6299212598425197,
                    "duration": 0.08527478710938396
                },
                {
                    "name": "A#4",
                    "midi": 70,
                    "time": 119.73103268359277,
                    "velocity": 0.6299212598425197,
                    "duration": 0.08527478710938396
                },
                {
                    "name": "A2",
                    "midi": 45,
                    "time": 119.74097268945215,
                    "velocity": 0.6299212598425197,
                    "duration": 0.11928007031251298
                },
                {
                    "name": "A4",
                    "midi": 69,
                    "time": 119.80741378124902,
                    "velocity": 0.6299212598425197,
                    "duration": 0.08527478710939818
                },
                {
                    "name": "D2",
                    "midi": 38,
                    "time": 119.87123908203029,
                    "velocity": 0.6141732283464567,
                    "duration": 0.11928007031251298
                },
                {
                    "name": "A#4",
                    "midi": 70,
                    "time": 119.88379487890529,
                    "velocity": 0.6299212598425197,
                    "duration": 0.08527478710938396
                },
                {
                    "name": "A4",
                    "midi": 69,
                    "time": 119.96017597656154,
                    "velocity": 0.5905511811023622,
                    "duration": 0.0366210742187576
                },
                {
                    "name": "F4",
                    "midi": 65,
                    "time": 120.82443332812406,
                    "velocity": 0.8818897637795275,
                    "duration": 0.241699089843749
                },
                {
                    "name": "F4",
                    "midi": 65,
                    "time": 121.08758190429593,
                    "velocity": 0.8818897637795275,
                    "duration": 0.2390832988281204
                },
                {
                    "name": "F4",
                    "midi": 65,
                    "time": 121.34811468945217,
                    "velocity": 0.8818897637795275,
                    "duration": 0.2390832988281204
                },
                {
                    "name": "F4",
                    "midi": 65,
                    "time": 121.60864747460842,
                    "velocity": 0.8818897637795275,
                    "duration": 0.24222224804687187
                },
                {
                    "name": "F4",
                    "midi": 65,
                    "time": 121.87231920898341,
                    "velocity": 0.8818897637795275,
                    "duration": 0.24902330468749767
                },
                {
                    "name": "F4",
                    "midi": 65,
                    "time": 122.14279199999903,
                    "velocity": 1,
                    "duration": 0.07899688867188104
                },
                {
                    "name": "A#4",
                    "midi": 70,
                    "time": 122.22806678710842,
                    "velocity": 0.9763779527559056,
                    "duration": 0.06434845898436947
                },
                {
                    "name": "D5",
                    "midi": 74,
                    "time": 122.29869314453029,
                    "velocity": 0.9763779527559056,
                    "duration": 0.12137270312500448
                },
                {
                    "name": "F4",
                    "midi": 65,
                    "time": 122.43157532812404,
                    "velocity": 0.8818897637795275,
                    "duration": 0.241699089843749
                },
                {
                    "name": "F4",
                    "midi": 65,
                    "time": 122.69472390429591,
                    "velocity": 0.8818897637795275,
                    "duration": 0.2390832988281204
                },
                {
                    "name": "F4",
                    "midi": 65,
                    "time": 122.95525668945216,
                    "velocity": 0.8818897637795275,
                    "duration": 0.2390832988281204
                },
                {
                    "name": "F4",
                    "midi": 65,
                    "time": 123.2157894746084,
                    "velocity": 0.8818897637795275,
                    "duration": 0.24222224804687187
                },
                {
                    "name": "F4",
                    "midi": 65,
                    "time": 123.4794612089834,
                    "velocity": 0.8818897637795275,
                    "duration": 0.24902330468749767
                },
                {
                    "name": "F4",
                    "midi": 65,
                    "time": 123.74993399999902,
                    "velocity": 1,
                    "duration": 0.07899688867188104
                },
                {
                    "name": "A#4",
                    "midi": 70,
                    "time": 123.8352087871084,
                    "velocity": 0.9763779527559056,
                    "duration": 0.06434845898436947
                },
                {
                    "name": "D5",
                    "midi": 74,
                    "time": 123.90583514453027,
                    "velocity": 0.9763779527559056,
                    "duration": 0.06016319335937226
                },
                {
                    "name": "F5",
                    "midi": 77,
                    "time": 123.97227623632715,
                    "velocity": 0.9763779527559056,
                    "duration": 0.06016319335937226
                },
                {
                    "name": "A#3",
                    "midi": 58,
                    "time": 124.03871732812402,
                    "velocity": 0.8188976377952756,
                    "duration": 0.241699089843749
                },
                {
                    "name": "D4",
                    "midi": 62,
                    "time": 124.03871732812402,
                    "velocity": 0.8976377952755905,
                    "duration": 0.241699089843749
                },
                {
                    "name": "A#3",
                    "midi": 58,
                    "time": 124.3018659042959,
                    "velocity": 0.8188976377952756,
                    "duration": 0.2390832988281204
                },
                {
                    "name": "D4",
                    "midi": 62,
                    "time": 124.3018659042959,
                    "velocity": 0.8976377952755905,
                    "duration": 0.2390832988281204
                },
                {
                    "name": "A#3",
                    "midi": 58,
                    "time": 124.56239868945214,
                    "velocity": 0.8188976377952756,
                    "duration": 0.2390832988281204
                },
                {
                    "name": "D4",
                    "midi": 62,
                    "time": 124.56239868945214,
                    "velocity": 0.8976377952755905,
                    "duration": 0.2390832988281204
                },
                {
                    "name": "A#3",
                    "midi": 58,
                    "time": 124.82293147460838,
                    "velocity": 0.8188976377952756,
                    "duration": 0.24222224804687187
                },
                {
                    "name": "D4",
                    "midi": 62,
                    "time": 124.82293147460838,
                    "velocity": 0.8976377952755905,
                    "duration": 0.24222224804687187
                },
                {
                    "name": "A#3",
                    "midi": 58,
                    "time": 125.08660320898338,
                    "velocity": 0.8188976377952756,
                    "duration": 0.24902330468749767
                },
                {
                    "name": "D4",
                    "midi": 62,
                    "time": 125.08660320898338,
                    "velocity": 0.9291338582677166,
                    "duration": 0.24902330468749767
                },
                {
                    "name": "G4",
                    "midi": 67,
                    "time": 125.357075999999,
                    "velocity": 0.9133858267716536,
                    "duration": 0.26733384179686936
                },
                {
                    "name": "A#3",
                    "midi": 58,
                    "time": 125.357075999999,
                    "velocity": 0.8503937007874016,
                    "duration": 0.26733384179686936
                },
                {
                    "name": "D#4",
                    "midi": 63,
                    "time": 125.357075999999,
                    "velocity": 0.9606299212598425,
                    "duration": 0.26733384179686936
                },
                {
                    "name": "G4",
                    "midi": 67,
                    "time": 125.64585932812399,
                    "velocity": 0.8818897637795275,
                    "duration": 0.241699089843749
                },
                {
                    "name": "A#3",
                    "midi": 58,
                    "time": 125.64585932812399,
                    "velocity": 0.8188976377952756,
                    "duration": 0.241699089843749
                },
                {
                    "name": "D#4",
                    "midi": 63,
                    "time": 125.64585932812399,
                    "velocity": 0.8976377952755905,
                    "duration": 0.241699089843749
                },
                {
                    "name": "G4",
                    "midi": 67,
                    "time": 125.90900790429586,
                    "velocity": 0.8818897637795275,
                    "duration": 0.2390832988281204
                },
                {
                    "name": "A#3",
                    "midi": 58,
                    "time": 125.90900790429586,
                    "velocity": 0.8188976377952756,
                    "duration": 0.2390832988281204
                },
                {
                    "name": "D#4",
                    "midi": 63,
                    "time": 125.90900790429586,
                    "velocity": 0.8976377952755905,
                    "duration": 0.2390832988281204
                },
                {
                    "name": "G4",
                    "midi": 67,
                    "time": 126.1695406894521,
                    "velocity": 0.8818897637795275,
                    "duration": 0.2390832988281204
                },
                {
                    "name": "A#3",
                    "midi": 58,
                    "time": 126.1695406894521,
                    "velocity": 0.8188976377952756,
                    "duration": 0.2390832988281204
                },
                {
                    "name": "D#4",
                    "midi": 63,
                    "time": 126.1695406894521,
                    "velocity": 0.8976377952755905,
                    "duration": 0.2390832988281204
                },
                {
                    "name": "G4",
                    "midi": 67,
                    "time": 126.43007347460835,
                    "velocity": 0.9763779527559056,
                    "duration": 0.3960307597656225
                },
                {
                    "name": "A#3",
                    "midi": 58,
                    "time": 126.43007347460835,
                    "velocity": 0.8188976377952756,
                    "duration": 0.24222224804687187
                },
                {
                    "name": "D#4",
                    "midi": 63,
                    "time": 126.43007347460835,
                    "velocity": 0.8976377952755905,
                    "duration": 0.24222224804687187
                },
                {
                    "name": "A#3",
                    "midi": 58,
                    "time": 126.69374520898334,
                    "velocity": 0.8188976377952756,
                    "duration": 0.24902330468749767
                },
                {
                    "name": "D#4",
                    "midi": 63,
                    "time": 126.69374520898334,
                    "velocity": 0.9291338582677166,
                    "duration": 0.24902330468749767
                },
                {
                    "name": "A#4",
                    "midi": 70,
                    "time": 126.8266273925771,
                    "velocity": 0.9763779527559056,
                    "duration": 0.04080633984375481
                },
                {
                    "name": "D#5",
                    "midi": 75,
                    "time": 126.87109583984272,
                    "velocity": 0.9763779527559056,
                    "duration": 0.041852656250000564
                },
                {
                    "name": "G5",
                    "midi": 79,
                    "time": 126.9166106035146,
                    "velocity": 0.9763779527559056,
                    "duration": 0.043945289062492066
                },
                {
                    "name": "F4",
                    "midi": 65,
                    "time": 126.96421799999897,
                    "velocity": 0.9133858267716536,
                    "duration": 0.26733384179686936
                },
                {
                    "name": "A#3",
                    "midi": 58,
                    "time": 126.96421799999897,
                    "velocity": 0.8503937007874016,
                    "duration": 0.26733384179686936
                },
                {
                    "name": "D4",
                    "midi": 62,
                    "time": 126.96421799999897,
                    "velocity": 0.9606299212598425,
                    "duration": 0.26733384179686936
                },
                {
                    "name": "F4",
                    "midi": 65,
                    "time": 127.25300132812396,
                    "velocity": 0.8818897637795275,
                    "duration": 0.241699089843749
                },
                {
                    "name": "A#3",
                    "midi": 58,
                    "time": 127.25300132812396,
                    "velocity": 0.8188976377952756,
                    "duration": 0.241699089843749
                },
                {
                    "name": "D4",
                    "midi": 62,
                    "time": 127.25300132812396,
                    "velocity": 0.8976377952755905,
                    "duration": 0.241699089843749
                },
                {
                    "name": "F4",
                    "midi": 65,
                    "time": 127.51614990429583,
                    "velocity": 0.8818897637795275,
                    "duration": 0.2390832988281204
                },
                {
                    "name": "A#3",
                    "midi": 58,
                    "time": 127.51614990429583,
                    "velocity": 0.8188976377952756,
                    "duration": 0.2390832988281204
                },
                {
                    "name": "D4",
                    "midi": 62,
                    "time": 127.51614990429583,
                    "velocity": 0.8976377952755905,
                    "duration": 0.2390832988281204
                },
                {
                    "name": "F4",
                    "midi": 65,
                    "time": 127.77668268945207,
                    "velocity": 0.8818897637795275,
                    "duration": 0.23908329882813462
                },
                {
                    "name": "A#3",
                    "midi": 58,
                    "time": 127.77668268945207,
                    "velocity": 0.8188976377952756,
                    "duration": 0.23908329882813462
                },
                {
                    "name": "D4",
                    "midi": 62,
                    "time": 127.77668268945207,
                    "velocity": 0.8976377952755905,
                    "duration": 0.23908329882813462
                },
                {
                    "name": "F4",
                    "midi": 65,
                    "time": 128.03721547460833,
                    "velocity": 0.9763779527559056,
                    "duration": 0.39603075976563673
                },
                {
                    "name": "A#3",
                    "midi": 58,
                    "time": 128.03721547460833,
                    "velocity": 0.8188976377952756,
                    "duration": 0.24222224804688608
                },
                {
                    "name": "D4",
                    "midi": 62,
                    "time": 128.03721547460833,
                    "velocity": 0.8976377952755905,
                    "duration": 0.24222224804688608
                },
                {
                    "name": "A#3",
                    "midi": 58,
                    "time": 128.30088720898334,
                    "velocity": 0.8188976377952756,
                    "duration": 0.2490233046875403
                },
                {
                    "name": "D4",
                    "midi": 62,
                    "time": 128.30088720898334,
                    "velocity": 0.9291338582677166,
                    "duration": 0.2490233046875403
                },
                {
                    "name": "A#4",
                    "midi": 70,
                    "time": 128.4337693925771,
                    "velocity": 0.9763779527559056,
                    "duration": 0.04080633984375481
                },
                {
                    "name": "D5",
                    "midi": 74,
                    "time": 128.47823783984273,
                    "velocity": 0.9763779527559056,
                    "duration": 0.041852656250000564
                },
                {
                    "name": "F5",
                    "midi": 77,
                    "time": 128.52375260351462,
                    "velocity": 0.9763779527559056,
                    "duration": 0.04394528906252049
                },
                {
                    "name": "G4",
                    "midi": 67,
                    "time": 128.57135999999903,
                    "velocity": 0.9133858267716536,
                    "duration": 0.26733384179686936
                },
                {
                    "name": "A#3",
                    "midi": 58,
                    "time": 128.57135999999903,
                    "velocity": 0.8503937007874016,
                    "duration": 0.26733384179686936
                },
                {
                    "name": "D#4",
                    "midi": 63,
                    "time": 128.57135999999903,
                    "velocity": 0.9606299212598425,
                    "duration": 0.26733384179686936
                },
                {
                    "name": "G4",
                    "midi": 67,
                    "time": 128.86014332812402,
                    "velocity": 0.8818897637795275,
                    "duration": 0.2416990898437632
                },
                {
                    "name": "A#3",
                    "midi": 58,
                    "time": 128.86014332812402,
                    "velocity": 0.8188976377952756,
                    "duration": 0.2416990898437632
                },
                {
                    "name": "D#4",
                    "midi": 63,
                    "time": 128.86014332812402,
                    "velocity": 0.8976377952755905,
                    "duration": 0.2416990898437632
                },
                {
                    "name": "G4",
                    "midi": 67,
                    "time": 129.1232919042959,
                    "velocity": 0.8818897637795275,
                    "duration": 0.2390832988281204
                },
                {
                    "name": "A#3",
                    "midi": 58,
                    "time": 129.1232919042959,
                    "velocity": 0.8188976377952756,
                    "duration": 0.2390832988281204
                },
                {
                    "name": "D#4",
                    "midi": 63,
                    "time": 129.1232919042959,
                    "velocity": 0.8976377952755905,
                    "duration": 0.2390832988281204
                },
                {
                    "name": "G4",
                    "midi": 67,
                    "time": 129.38382468945215,
                    "velocity": 0.8818897637795275,
                    "duration": 0.2390832988281204
                },
                {
                    "name": "A#3",
                    "midi": 58,
                    "time": 129.38382468945215,
                    "velocity": 0.8188976377952756,
                    "duration": 0.2390832988281204
                },
                {
                    "name": "D#4",
                    "midi": 63,
                    "time": 129.38382468945215,
                    "velocity": 0.8976377952755905,
                    "duration": 0.2390832988281204
                },
                {
                    "name": "G4",
                    "midi": 67,
                    "time": 129.6443574746084,
                    "velocity": 0.9763779527559056,
                    "duration": 0.39603075976563673
                },
                {
                    "name": "A#3",
                    "midi": 58,
                    "time": 129.6443574746084,
                    "velocity": 0.8188976377952756,
                    "duration": 0.24222224804688608
                },
                {
                    "name": "D#4",
                    "midi": 63,
                    "time": 129.6443574746084,
                    "velocity": 0.8976377952755905,
                    "duration": 0.24222224804688608
                },
                {
                    "name": "A#3",
                    "midi": 58,
                    "time": 129.9080292089834,
                    "velocity": 0.8188976377952756,
                    "duration": 0.2490233046875403
                },
                {
                    "name": "D#4",
                    "midi": 63,
                    "time": 129.9080292089834,
                    "velocity": 0.9291338582677166,
                    "duration": 0.2490233046875403
                },
                {
                    "name": "A#4",
                    "midi": 70,
                    "time": 130.04091139257716,
                    "velocity": 0.9763779527559056,
                    "duration": 0.04080633984375481
                },
                {
                    "name": "D#5",
                    "midi": 75,
                    "time": 130.0853798398428,
                    "velocity": 0.9763779527559056,
                    "duration": 0.041852656250000564
                },
                {
                    "name": "G5",
                    "midi": 79,
                    "time": 130.1308946035147,
                    "velocity": 0.9763779527559056,
                    "duration": 0.04394528906252049
                },
                {
                    "name": "F4",
                    "midi": 65,
                    "time": 130.1785019999991,
                    "velocity": 0.9133858267716536,
                    "duration": 0.26733384179686936
                },
                {
                    "name": "A#3",
                    "midi": 58,
                    "time": 130.1785019999991,
                    "velocity": 0.8503937007874016,
                    "duration": 0.26733384179686936
                },
                {
                    "name": "D4",
                    "midi": 62,
                    "time": 130.1785019999991,
                    "velocity": 0.9606299212598425,
                    "duration": 0.26733384179686936
                },
                {
                    "name": "F4",
                    "midi": 65,
                    "time": 130.4672853281241,
                    "velocity": 0.8818897637795275,
                    "duration": 0.2416990898437632
                },
                {
                    "name": "A#3",
                    "midi": 58,
                    "time": 130.4672853281241,
                    "velocity": 0.8188976377952756,
                    "duration": 0.2416990898437632
                },
                {
                    "name": "D4",
                    "midi": 62,
                    "time": 130.4672853281241,
                    "velocity": 0.8976377952755905,
                    "duration": 0.2416990898437632
                },
                {
                    "name": "F4",
                    "midi": 65,
                    "time": 130.73043390429598,
                    "velocity": 0.8818897637795275,
                    "duration": 0.2390832988281204
                },
                {
                    "name": "A#3",
                    "midi": 58,
                    "time": 130.73043390429598,
                    "velocity": 0.8188976377952756,
                    "duration": 0.2390832988281204
                },
                {
                    "name": "D4",
                    "midi": 62,
                    "time": 130.73043390429598,
                    "velocity": 0.8976377952755905,
                    "duration": 0.2390832988281204
                },
                {
                    "name": "F4",
                    "midi": 65,
                    "time": 130.99096668945222,
                    "velocity": 0.8818897637795275,
                    "duration": 0.2390832988281204
                },
                {
                    "name": "A#3",
                    "midi": 58,
                    "time": 130.99096668945222,
                    "velocity": 0.8188976377952756,
                    "duration": 0.2390832988281204
                },
                {
                    "name": "D4",
                    "midi": 62,
                    "time": 130.99096668945222,
                    "velocity": 0.8976377952755905,
                    "duration": 0.2390832988281204
                },
                {
                    "name": "F4",
                    "midi": 65,
                    "time": 131.25149947460847,
                    "velocity": 0.9763779527559056,
                    "duration": 0.39603075976563673
                },
                {
                    "name": "A#3",
                    "midi": 58,
                    "time": 131.25149947460847,
                    "velocity": 0.8188976377952756,
                    "duration": 0.24222224804688608
                },
                {
                    "name": "D4",
                    "midi": 62,
                    "time": 131.25149947460847,
                    "velocity": 0.8976377952755905,
                    "duration": 0.24222224804688608
                },
                {
                    "name": "A#3",
                    "midi": 58,
                    "time": 131.51517120898347,
                    "velocity": 0.8188976377952756,
                    "duration": 0.28041279687505494
                },
                {
                    "name": "D4",
                    "midi": 62,
                    "time": 131.51517120898347,
                    "velocity": 0.8976377952755905,
                    "duration": 0.2490233046875403
                },
                {
                    "name": "A#4",
                    "midi": 70,
                    "time": 131.64805339257722,
                    "velocity": 0.9763779527559056,
                    "duration": 0.04080633984375481
                },
                {
                    "name": "D5",
                    "midi": 74,
                    "time": 131.69252183984287,
                    "velocity": 0.9763779527559056,
                    "duration": 0.041852656250000564
                },
                {
                    "name": "F5",
                    "midi": 77,
                    "time": 131.73803660351476,
                    "velocity": 0.9763779527559056,
                    "duration": 0.04394528906252049
                },
                {
                    "name": "D#4",
                    "midi": 63,
                    "time": 131.78564399999917,
                    "velocity": 1,
                    "duration": 0.26733384179686936
                },
                {
                    "name": "C4",
                    "midi": 60,
                    "time": 131.78564399999917,
                    "velocity": 0.9133858267716536,
                    "duration": 0.26733384179686936
                },
                {
                    "name": "A#3",
                    "midi": 58,
                    "time": 131.78564399999917,
                    "velocity": 0.9133858267716536,
                    "duration": 0.26733384179686936
                },
                {
                    "name": "C5",
                    "midi": 72,
                    "time": 132.07442732812416,
                    "velocity": 0.9763779527559056,
                    "duration": 0.12032638671874452
                },
                {
                    "name": "C4",
                    "midi": 60,
                    "time": 132.07442732812416,
                    "velocity": 0.8818897637795275,
                    "duration": 0.2416990898437632
                },
                {
                    "name": "A#3",
                    "midi": 58,
                    "time": 132.07442732812416,
                    "velocity": 0.8818897637795275,
                    "duration": 0.2730885820312494
                },
                {
                    "name": "A#4",
                    "midi": 70,
                    "time": 132.20626319531166,
                    "velocity": 0.9763779527559056,
                    "duration": 0.11980322851562164
                },
                {
                    "name": "A4",
                    "midi": 69,
                    "time": 132.33757590429605,
                    "velocity": 0.9763779527559056,
                    "duration": 0.2390832988281204
                },
                {
                    "name": "C4",
                    "midi": 60,
                    "time": 132.33757590429605,
                    "velocity": 0.8818897637795275,
                    "duration": 0.2390832988281204
                },
                {
                    "name": "A3",
                    "midi": 57,
                    "time": 132.33757590429605,
                    "velocity": 0.8818897637795275,
                    "duration": 0.2390832988281204
                },
                {
                    "name": "G4",
                    "midi": 67,
                    "time": 132.5981086894523,
                    "velocity": 0.9763779527559056,
                    "duration": 0.2390832988281204
                },
                {
                    "name": "C4",
                    "midi": 60,
                    "time": 132.5981086894523,
                    "velocity": 0.8818897637795275,
                    "duration": 0.2390832988281204
                },
                {
                    "name": "A3",
                    "midi": 57,
                    "time": 132.5981086894523,
                    "velocity": 0.8818897637795275,
                    "duration": 0.2390832988281204
                },
                {
                    "name": "F4",
                    "midi": 65,
                    "time": 132.85864147460853,
                    "velocity": 0.9763779527559056,
                    "duration": 0.24222224804688608
                },
                {
                    "name": "C4",
                    "midi": 60,
                    "time": 132.85864147460853,
                    "velocity": 0.8818897637795275,
                    "duration": 0.24222224804688608
                },
                {
                    "name": "A3",
                    "midi": 57,
                    "time": 132.85864147460853,
                    "velocity": 0.8818897637795275,
                    "duration": 0.24222224804688608
                },
                {
                    "name": "D#4",
                    "midi": 63,
                    "time": 133.12231320898354,
                    "velocity": 0.9763779527559056,
                    "duration": 0.24902330468751188
                },
                {
                    "name": "C4",
                    "midi": 60,
                    "time": 133.12231320898354,
                    "velocity": 0.8818897637795275,
                    "duration": 0.2804127968749981
                },
                {
                    "name": "A3",
                    "midi": 57,
                    "time": 133.12231320898354,
                    "velocity": 0.8818897637795275,
                    "duration": 0.2804127968749981
                },
                {
                    "name": "F4",
                    "midi": 65,
                    "time": 133.39278599999918,
                    "velocity": 1,
                    "duration": 0.08475162890621846
                },
                {
                    "name": "A#3",
                    "midi": 58,
                    "time": 133.39278599999918,
                    "velocity": 0.9763779527559056,
                    "duration": 1.0724743164062147
                },
                {
                    "name": "D#4",
                    "midi": 63,
                    "time": 133.46864393945228,
                    "velocity": 0.9763779527559056,
                    "duration": 0.08475162890624688
                },
                {
                    "name": "F4",
                    "midi": 65,
                    "time": 133.5445018789054,
                    "velocity": 0.9763779527559056,
                    "duration": 0.08475162890624688
                },
                {
                    "name": "D#4",
                    "midi": 63,
                    "time": 133.62035981835854,
                    "velocity": 0.937007874015748,
                    "duration": 0.28355174609373535
                },
                {
                    "name": "D4",
                    "midi": 62,
                    "time": 133.94471790429603,
                    "velocity": 0.9763779527559056,
                    "duration": 0.5205424121093642
                },
                {
                    "name": "A#2",
                    "midi": 46,
                    "time": 133.94471790429603,
                    "velocity": 0.9763779527559056,
                    "duration": 0.5205424121093642
                },
                {
                    "name": "G4",
                    "midi": 67,
                    "time": 134.99992799999913,
                    "velocity": 1,
                    "duration": 0.09626110937497856
                },
                {
                    "name": "A#3",
                    "midi": 58,
                    "time": 134.99992799999913,
                    "velocity": 0.9133858267716536,
                    "duration": 0.26733384179684094
                },
                {
                    "name": "D#3",
                    "midi": 51,
                    "time": 134.99992799999913,
                    "velocity": 0.9133858267716536,
                    "duration": 0.26733384179684094
                },
                {
                    "name": "F4",
                    "midi": 65,
                    "time": 135.08624910351475,
                    "velocity": 0.9763779527559056,
                    "duration": 0.09626110937497856
                },
                {
                    "name": "G4",
                    "midi": 67,
                    "time": 135.17257020703036,
                    "velocity": 0.937007874015748,
                    "duration": 0.08789057812498413
                },
                {
                    "name": "G4",
                    "midi": 67,
                    "time": 135.2887113281241,
                    "velocity": 0.8818897637795275,
                    "duration": 0.2254811855468688
                },
                {
                    "name": "A#3",
                    "midi": 58,
                    "time": 135.2887113281241,
                    "velocity": 0.8818897637795275,
                    "duration": 0.24169908984373478
                },
                {
                    "name": "D#3",
                    "midi": 51,
                    "time": 135.2887113281241,
                    "velocity": 0.8818897637795275,
                    "duration": 0.24169908984373478
                },
                {
                    "name": "G4",
                    "midi": 67,
                    "time": 135.5356419999991,
                    "velocity": 0.9763779527559056,
                    "duration": 0.09626110937497856
                },
                {
                    "name": "A#3",
                    "midi": 58,
                    "time": 135.55185990429595,
                    "velocity": 0.8818897637795275,
                    "duration": 0.23908329882809198
                },
                {
                    "name": "D#3",
                    "midi": 51,
                    "time": 135.55185990429595,
                    "velocity": 0.8818897637795275,
                    "duration": 0.23908329882809198
                },
                {
                    "name": "F4",
                    "midi": 65,
                    "time": 135.6219631035147,
                    "velocity": 0.9763779527559056,
                    "duration": 0.09626110937497856
                },
                {
                    "name": "G4",
                    "midi": 67,
                    "time": 135.70828420703032,
                    "velocity": 0.937007874015748,
                    "duration": 0.08789057812498413
                },
                {
                    "name": "G4",
                    "midi": 67,
                    "time": 135.81239268945217,
                    "velocity": 0.8818897637795275,
                    "duration": 0.2390832988281204
                },
                {
                    "name": "A#3",
                    "midi": 58,
                    "time": 135.81239268945217,
                    "velocity": 0.8818897637795275,
                    "duration": 0.2390832988281204
                },
                {
                    "name": "D#3",
                    "midi": 51,
                    "time": 135.81239268945217,
                    "velocity": 0.8818897637795275,
                    "duration": 0.2390832988281204
                },
                {
                    "name": "G4",
                    "midi": 67,
                    "time": 136.0729254746084,
                    "velocity": 0.8818897637795275,
                    "duration": 0.2736117402343723
                },
                {
                    "name": "A#3",
                    "midi": 58,
                    "time": 136.0729254746084,
                    "velocity": 0.8818897637795275,
                    "duration": 0.2736117402343723
                },
                {
                    "name": "D#3",
                    "midi": 51,
                    "time": 136.0729254746084,
                    "velocity": 0.8818897637795275,
                    "duration": 0.24222224804688608
                },
                {
                    "name": "C4",
                    "midi": 60,
                    "time": 136.33659720898342,
                    "velocity": 0.8818897637795275,
                    "duration": 0.28041279687496967
                },
                {
                    "name": "D#3",
                    "midi": 51,
                    "time": 136.33659720898342,
                    "velocity": 0.8818897637795275,
                    "duration": 0.28041279687496967
                },
                {
                    "name": "A#4",
                    "midi": 70,
                    "time": 136.33921299999903,
                    "velocity": 0.9763779527559056,
                    "duration": 0.016741062499988857
                },
                {
                    "name": "A4",
                    "midi": 69,
                    "time": 136.40251514257716,
                    "velocity": 0.9763779527559056,
                    "duration": 0.016741062499988857
                },
                {
                    "name": "A#4",
                    "midi": 70,
                    "time": 136.46581728515528,
                    "velocity": 0.9763779527559056,
                    "duration": 0.016741062499988857
                },
                {
                    "name": "A4",
                    "midi": 69,
                    "time": 136.5291194277334,
                    "velocity": 0.937007874015748,
                    "duration": 0.016741062499988857
                },
                {
                    "name": "A#4",
                    "midi": 70,
                    "time": 136.60706999999903,
                    "velocity": 1,
                    "duration": 0.14439166406248205
                },
                {
                    "name": "D4",
                    "midi": 62,
                    "time": 136.60706999999903,
                    "velocity": 1,
                    "duration": 0.14439166406248205
                },
                {
                    "name": "D3",
                    "midi": 50,
                    "time": 136.60706999999903,
                    "velocity": 1,
                    "duration": 0.14439166406248205
                },
                {
                    "name": "F4",
                    "midi": 65,
                    "time": 136.76297114453027,
                    "velocity": 0.9763779527559056,
                    "duration": 0.12137270312499027
                },
                {
                    "name": "D#4",
                    "midi": 63,
                    "time": 136.89585332812402,
                    "velocity": 0.9763779527559056,
                    "duration": 0.12032638671874452
                },
                {
                    "name": "D4",
                    "midi": 62,
                    "time": 137.02768919531152,
                    "velocity": 0.9763779527559056,
                    "duration": 0.11980322851562164
                },
                {
                    "name": "D4",
                    "midi": 62,
                    "time": 137.1590019042959,
                    "velocity": 0.9133858267716536,
                    "duration": 0.11875691210937589
                },
                {
                    "name": "F4",
                    "midi": 65,
                    "time": 137.1590019042959,
                    "velocity": 1,
                    "duration": 0.11875691210937589
                },
                {
                    "name": "D4",
                    "midi": 62,
                    "time": 137.28926829687404,
                    "velocity": 0.9763779527559056,
                    "duration": 0.11928007031249876
                },
                {
                    "name": "C4",
                    "midi": 60,
                    "time": 137.41953468945218,
                    "velocity": 0.9763779527559056,
                    "duration": 0.11928007031249876
                },
                {
                    "name": "A#3",
                    "midi": 58,
                    "time": 137.5498010820303,
                    "velocity": 0.9763779527559056,
                    "duration": 0.11928007031249876
                },
                {
                    "name": "A#3",
                    "midi": 58,
                    "time": 137.68006747460845,
                    "velocity": 0.9133858267716536,
                    "duration": 0.12084954492186739
                },
                {
                    "name": "D4",
                    "midi": 62,
                    "time": 137.68006747460845,
                    "velocity": 1,
                    "duration": 0.12084954492186739
                },
                {
                    "name": "D4",
                    "midi": 62,
                    "time": 137.81190334179595,
                    "velocity": 0.9763779527559056,
                    "duration": 0.12084954492186739
                },
                {
                    "name": "C4",
                    "midi": 60,
                    "time": 137.94373920898346,
                    "velocity": 0.9763779527559056,
                    "duration": 0.12189586132811314
                },
                {
                    "name": "A#3",
                    "midi": 58,
                    "time": 138.0766213925772,
                    "velocity": 0.9763779527559056,
                    "duration": 0.12660428515624744
                },
                {
                    "name": "G4",
                    "midi": 67,
                    "time": 138.2142119999991,
                    "velocity": 0.5669291338582677,
                    "duration": 0.26733384179686936
                },
                {
                    "name": "A#3",
                    "midi": 58,
                    "time": 138.2142119999991,
                    "velocity": 0.5669291338582677,
                    "duration": 0.26733384179686936
                },
                {
                    "name": "D#3",
                    "midi": 51,
                    "time": 138.2142119999991,
                    "velocity": 0.5669291338582677,
                    "duration": 0.26733384179686936
                },
                {
                    "name": "G4",
                    "midi": 67,
                    "time": 138.5029953281241,
                    "velocity": 0.5354330708661418,
                    "duration": 0.2254811855468688
                },
                {
                    "name": "A#3",
                    "midi": 58,
                    "time": 138.5029953281241,
                    "velocity": 0.5354330708661418,
                    "duration": 0.24169908984373478
                },
                {
                    "name": "D#3",
                    "midi": 51,
                    "time": 138.5029953281241,
                    "velocity": 0.5354330708661418,
                    "duration": 0.24169908984373478
                },
                {
                    "name": "G4",
                    "midi": 67,
                    "time": 138.74992599999908,
                    "velocity": 0.6299212598425197,
                    "duration": 0.09626110937497856
                },
                {
                    "name": "A#3",
                    "midi": 58,
                    "time": 138.76614390429594,
                    "velocity": 0.5354330708661418,
                    "duration": 0.23908329882809198
                },
                {
                    "name": "D#3",
                    "midi": 51,
                    "time": 138.76614390429594,
                    "velocity": 0.5354330708661418,
                    "duration": 0.23908329882809198
                },
                {
                    "name": "F4",
                    "midi": 65,
                    "time": 138.8362471035147,
                    "velocity": 0.6299212598425197,
                    "duration": 0.09626110937497856
                },
                {
                    "name": "G4",
                    "midi": 67,
                    "time": 138.9225682070303,
                    "velocity": 0.5905511811023622,
                    "duration": 0.08789057812498413
                },
                {
                    "name": "G4",
                    "midi": 67,
                    "time": 139.02667668945216,
                    "velocity": 0.5354330708661418,
                    "duration": 0.2390832988281204
                },
                {
                    "name": "A#3",
                    "midi": 58,
                    "time": 139.02667668945216,
                    "velocity": 0.5354330708661418,
                    "duration": 0.2390832988281204
                },
                {
                    "name": "D#3",
                    "midi": 51,
                    "time": 139.02667668945216,
                    "velocity": 0.5354330708661418,
                    "duration": 0.2390832988281204
                },
                {
                    "name": "G4",
                    "midi": 67,
                    "time": 139.2872094746084,
                    "velocity": 0.5354330708661418,
                    "duration": 0.2736117402343723
                },
                {
                    "name": "A#3",
                    "midi": 58,
                    "time": 139.2872094746084,
                    "velocity": 0.5354330708661418,
                    "duration": 0.2736117402343723
                },
                {
                    "name": "D#3",
                    "midi": 51,
                    "time": 139.2872094746084,
                    "velocity": 0.5354330708661418,
                    "duration": 0.24222224804688608
                },
                {
                    "name": "C4",
                    "midi": 60,
                    "time": 139.5508812089834,
                    "velocity": 0.5354330708661418,
                    "duration": 0.28041279687496967
                },
                {
                    "name": "D#3",
                    "midi": 51,
                    "time": 139.5508812089834,
                    "velocity": 0.5354330708661418,
                    "duration": 0.28041279687496967
                },
                {
                    "name": "A#4",
                    "midi": 70,
                    "time": 139.55349699999903,
                    "velocity": 0.6299212598425197,
                    "duration": 0.016741062499988857
                },
                {
                    "name": "A4",
                    "midi": 69,
                    "time": 139.61679914257715,
                    "velocity": 0.6299212598425197,
                    "duration": 0.016741062499988857
                },
                {
                    "name": "A#4",
                    "midi": 70,
                    "time": 139.68010128515527,
                    "velocity": 0.6299212598425197,
                    "duration": 0.016741062499988857
                },
                {
                    "name": "A4",
                    "midi": 69,
                    "time": 139.7434034277334,
                    "velocity": 0.5905511811023622,
                    "duration": 0.016741062499988857
                },
                {
                    "name": "A#4",
                    "midi": 70,
                    "time": 139.82135399999902,
                    "velocity": 0.6614173228346457,
                    "duration": 0.14439166406248205
                },
                {
                    "name": "D4",
                    "midi": 62,
                    "time": 139.82135399999902,
                    "velocity": 0.6614173228346457,
                    "duration": 0.14439166406248205
                },
                {
                    "name": "D3",
                    "midi": 50,
                    "time": 139.82135399999902,
                    "velocity": 0.6614173228346457,
                    "duration": 0.14439166406248205
                },
                {
                    "name": "F4",
                    "midi": 65,
                    "time": 139.97725514453026,
                    "velocity": 0.6299212598425197,
                    "duration": 0.12137270312499027
                },
                {
                    "name": "D#4",
                    "midi": 63,
                    "time": 140.110137328124,
                    "velocity": 0.6299212598425197,
                    "duration": 0.12032638671874452
                },
                {
                    "name": "D4",
                    "midi": 62,
                    "time": 140.24197319531152,
                    "velocity": 0.6299212598425197,
                    "duration": 0.11980322851562164
                },
                {
                    "name": "D4",
                    "midi": 62,
                    "time": 140.3732859042959,
                    "velocity": 0.5669291338582677,
                    "duration": 0.11875691210937589
                },
                {
                    "name": "F4",
                    "midi": 65,
                    "time": 140.3732859042959,
                    "velocity": 0.6771653543307087,
                    "duration": 0.11875691210937589
                },
                {
                    "name": "D4",
                    "midi": 62,
                    "time": 140.50355229687403,
                    "velocity": 0.6299212598425197,
                    "duration": 0.11928007031249876
                },
                {
                    "name": "C4",
                    "midi": 60,
                    "time": 140.63381868945217,
                    "velocity": 0.6299212598425197,
                    "duration": 0.11928007031249876
                },
                {
                    "name": "A#3",
                    "midi": 58,
                    "time": 140.7640850820303,
                    "velocity": 0.6299212598425197,
                    "duration": 0.11928007031249876
                },
                {
                    "name": "A#3",
                    "midi": 58,
                    "time": 140.89435147460844,
                    "velocity": 0.5669291338582677,
                    "duration": 0.12084954492186739
                },
                {
                    "name": "D4",
                    "midi": 62,
                    "time": 140.89435147460844,
                    "velocity": 0.6771653543307087,
                    "duration": 0.12084954492186739
                },
                {
                    "name": "D4",
                    "midi": 62,
                    "time": 141.02618734179595,
                    "velocity": 0.6299212598425197,
                    "duration": 0.12084954492186739
                },
                {
                    "name": "C4",
                    "midi": 60,
                    "time": 141.15802320898345,
                    "velocity": 0.6299212598425197,
                    "duration": 0.12189586132811314
                },
                {
                    "name": "A#3",
                    "midi": 58,
                    "time": 141.2909053925772,
                    "velocity": 0.6299212598425197,
                    "duration": 0.12660428515624744
                },
                {
                    "name": "G4",
                    "midi": 67,
                    "time": 141.4284959999991,
                    "velocity": 1,
                    "duration": 0.26733384179686936
                },
                {
                    "name": "A#3",
                    "midi": 58,
                    "time": 141.4284959999991,
                    "velocity": 0.9133858267716536,
                    "duration": 0.26733384179686936
                },
                {
                    "name": "D#3",
                    "midi": 51,
                    "time": 141.4284959999991,
                    "velocity": 0.9133858267716536,
                    "duration": 0.26733384179686936
                },
                {
                    "name": "G4",
                    "midi": 67,
                    "time": 141.71727932812408,
                    "velocity": 0.9763779527559056,
                    "duration": 0.2254811855468688
                },
                {
                    "name": "A#3",
                    "midi": 58,
                    "time": 141.71727932812408,
                    "velocity": 0.8818897637795275,
                    "duration": 0.24169908984373478
                },
                {
                    "name": "D#3",
                    "midi": 51,
                    "time": 141.71727932812408,
                    "velocity": 0.8818897637795275,
                    "duration": 0.24169908984373478
                },
                {
                    "name": "G4",
                    "midi": 67,
                    "time": 141.96420999999907,
                    "velocity": 0.9763779527559056,
                    "duration": 0.09626110937497856
                },
                {
                    "name": "A#3",
                    "midi": 58,
                    "time": 141.98042790429594,
                    "velocity": 0.8818897637795275,
                    "duration": 0.23908329882809198
                },
                {
                    "name": "D#3",
                    "midi": 51,
                    "time": 141.98042790429594,
                    "velocity": 0.8818897637795275,
                    "duration": 0.23908329882809198
                },
                {
                    "name": "F4",
                    "midi": 65,
                    "time": 142.0505311035147,
                    "velocity": 0.9763779527559056,
                    "duration": 0.09626110937497856
                },
                {
                    "name": "G4",
                    "midi": 67,
                    "time": 142.1368522070303,
                    "velocity": 0.937007874015748,
                    "duration": 0.08789057812498413
                },
                {
                    "name": "G4",
                    "midi": 67,
                    "time": 142.24096068945215,
                    "velocity": 0.9763779527559056,
                    "duration": 0.2390832988281204
                },
                {
                    "name": "A#3",
                    "midi": 58,
                    "time": 142.24096068945215,
                    "velocity": 0.8818897637795275,
                    "duration": 0.2390832988281204
                },
                {
                    "name": "D#3",
                    "midi": 51,
                    "time": 142.24096068945215,
                    "velocity": 0.8818897637795275,
                    "duration": 0.2390832988281204
                },
                {
                    "name": "G4",
                    "midi": 67,
                    "time": 142.5014934746084,
                    "velocity": 0.9763779527559056,
                    "duration": 0.24222224804688608
                },
                {
                    "name": "A#3",
                    "midi": 58,
                    "time": 142.5014934746084,
                    "velocity": 0.8818897637795275,
                    "duration": 0.2736117402343723
                },
                {
                    "name": "D#3",
                    "midi": 51,
                    "time": 142.5014934746084,
                    "velocity": 0.8818897637795275,
                    "duration": 0.24222224804688608
                },
                {
                    "name": "C4",
                    "midi": 60,
                    "time": 142.7651652089834,
                    "velocity": 0.8818897637795275,
                    "duration": 0.28041279687496967
                },
                {
                    "name": "D#3",
                    "midi": 51,
                    "time": 142.7651652089834,
                    "velocity": 0.8818897637795275,
                    "duration": 0.28041279687496967
                },
                {
                    "name": "A#4",
                    "midi": 70,
                    "time": 142.76778099999902,
                    "velocity": 0.9763779527559056,
                    "duration": 0.016741062499988857
                },
                {
                    "name": "A4",
                    "midi": 69,
                    "time": 142.83108314257714,
                    "velocity": 0.9763779527559056,
                    "duration": 0.016741062499988857
                },
                {
                    "name": "A#4",
                    "midi": 70,
                    "time": 142.89438528515527,
                    "velocity": 0.9763779527559056,
                    "duration": 0.016741062499988857
                },
                {
                    "name": "A4",
                    "midi": 69,
                    "time": 142.9576874277334,
                    "velocity": 0.937007874015748,
                    "duration": 0.016741062499988857
                },
                {
                    "name": "A#4",
                    "midi": 70,
                    "time": 143.035637999999,
                    "velocity": 1,
                    "duration": 0.26733384179686936
                },
                {
                    "name": "D4",
                    "midi": 62,
                    "time": 143.035637999999,
                    "velocity": 1,
                    "duration": 0.551408746093756
                },
                {
                    "name": "D3",
                    "midi": 50,
                    "time": 143.035637999999,
                    "velocity": 1,
                    "duration": 0.8119415312499996
                },
                {
                    "name": "F4",
                    "midi": 65,
                    "time": 143.324421328124,
                    "velocity": 0.9763779527559056,
                    "duration": 0.2416990898437632
                },
                {
                    "name": "F4",
                    "midi": 65,
                    "time": 143.5875699042959,
                    "velocity": 0.9133858267716536,
                    "duration": 1.1080490742187692
                },
                {
                    "name": "D5",
                    "midi": 74,
                    "time": 143.5875699042959,
                    "velocity": 1,
                    "duration": 1.0546869375000085
                },
                {
                    "name": "D4",
                    "midi": 62,
                    "time": 143.5875699042959,
                    "velocity": 0.9763779527559056,
                    "duration": 1.0546869375000085
                },
                {
                    "name": "C3",
                    "midi": 48,
                    "time": 143.84810268945213,
                    "velocity": 0.9763779527559056,
                    "duration": 0.2390832988281204
                },
                {
                    "name": "D3",
                    "midi": 50,
                    "time": 144.10863547460838,
                    "velocity": 0.9763779527559056,
                    "duration": 0.24222224804688608
                },
                {
                    "name": "A#2",
                    "midi": 46,
                    "time": 144.3723072089834,
                    "velocity": 0.9763779527559056,
                    "duration": 0.24902330468751188
                },
                {
                    "name": "G4",
                    "midi": 67,
                    "time": 144.64277999999902,
                    "velocity": 0.8740157480314961,
                    "duration": 0.4200960371094027
                },
                {
                    "name": "A#4",
                    "midi": 70,
                    "time": 144.64277999999902,
                    "velocity": 0.984251968503937,
                    "duration": 0.4200960371094027
                },
                {
                    "name": "C4",
                    "midi": 60,
                    "time": 144.64277999999902,
                    "velocity": 1,
                    "duration": 0.5514087460938129
                },
                {
                    "name": "D#3",
                    "midi": 51,
                    "time": 144.64277999999902,
                    "velocity": 1,
                    "duration": 0.2673338417968978
                },
                {
                    "name": "C3",
                    "midi": 48,
                    "time": 144.93156332812404,
                    "velocity": 0.9763779527559056,
                    "duration": 0.2416990898437632
                },
                {
                    "name": "C5",
                    "midi": 72,
                    "time": 145.06339919531155,
                    "velocity": 0.9763779527559056,
                    "duration": 0.11980322851565006
                },
                {
                    "name": "A#4",
                    "midi": 70,
                    "time": 145.17849399999906,
                    "velocity": 0.9763779527559056,
                    "duration": 0.08579794531252105
                },
                {
                    "name": "F3",
                    "midi": 53,
                    "time": 145.19471190429596,
                    "velocity": 0.9763779527559056,
                    "duration": 1.0546869375000085
                },
                {
                    "name": "A4",
                    "midi": 69,
                    "time": 145.25539825585847,
                    "velocity": 0.9763779527559056,
                    "duration": 0.08579794531249263
                },
                {
                    "name": "A#4",
                    "midi": 70,
                    "time": 145.33230251171784,
                    "velocity": 0.9763779527559056,
                    "duration": 0.08579794531249263
                },
                {
                    "name": "A4",
                    "midi": 69,
                    "time": 145.40920676757722,
                    "velocity": 0.937007874015748,
                    "duration": 0.5728582324218792
                },
                {
                    "name": "F2",
                    "midi": 41,
                    "time": 145.71577747460847,
                    "velocity": 0.968503937007874,
                    "duration": 0.533621367187493
                },
                {
                    "name": "A#4",
                    "midi": 70,
                    "time": 145.97944920898348,
                    "velocity": 0.9763779527559056,
                    "duration": 0.24902330468748346
                },
                {
                    "name": "D#4",
                    "midi": 63,
                    "time": 145.97944920898348,
                    "velocity": 0.9763779527559056,
                    "duration": 0.24902330468748346
                },
                {
                    "name": "F4",
                    "midi": 65,
                    "time": 146.2499219999991,
                    "velocity": 0.9448818897637795,
                    "duration": 0.26733384179686936
                },
                {
                    "name": "A#4",
                    "midi": 70,
                    "time": 146.2499219999991,
                    "velocity": 1,
                    "duration": 0.26733384179686936
                },
                {
                    "name": "D4",
                    "midi": 62,
                    "time": 146.2499219999991,
                    "velocity": 1,
                    "duration": 0.26733384179686936
                },
                {
                    "name": "A#2",
                    "midi": 46,
                    "time": 146.2499219999991,
                    "velocity": 0.9763779527559056,
                    "duration": 1.0724743164061863
                },
                {
                    "name": "A#1",
                    "midi": 34,
                    "time": 146.2499219999991,
                    "velocity": 0.9448818897637795,
                    "duration": 1.0724743164061863
                },
                {
                    "name": "A#4",
                    "midi": 70,
                    "time": 146.53870532812408,
                    "velocity": 0.9763779527559056,
                    "duration": 0.2254811855468688
                },
                {
                    "name": "A#4",
                    "midi": 70,
                    "time": 146.78563599999907,
                    "velocity": 0.9763779527559056,
                    "duration": 0.09626110937497856
                },
                {
                    "name": "A4",
                    "midi": 69,
                    "time": 146.8719571035147,
                    "velocity": 0.9763779527559056,
                    "duration": 0.09626110937497856
                },
                {
                    "name": "A#4",
                    "midi": 70,
                    "time": 146.9582782070303,
                    "velocity": 0.937007874015748,
                    "duration": 0.08789057812498413
                },
                {
                    "name": "A#4",
                    "midi": 70,
                    "time": 147.06238668945215,
                    "velocity": 0.9763779527559056,
                    "duration": 0.2390832988281204
                },
                {
                    "name": "A#4",
                    "midi": 70,
                    "time": 147.3229194746084,
                    "velocity": 0.9763779527559056,
                    "duration": 0.24222224804688608
                },
                {
                    "name": "A#4",
                    "midi": 70,
                    "time": 147.5865912089834,
                    "velocity": 0.9763779527559056,
                    "duration": 0.24902330468751188
                },
                {
                    "name": "A#4",
                    "midi": 70,
                    "time": 147.85706399999904,
                    "velocity": 1,
                    "duration": 0.10306216601563278
                },
                {
                    "name": "D5",
                    "midi": 74,
                    "time": 147.96797353906155,
                    "velocity": 0.9763779527559056,
                    "duration": 0.08161267968750963
                },
                {
                    "name": "F5",
                    "midi": 77,
                    "time": 148.05743359179593,
                    "velocity": 0.9763779527559056,
                    "duration": 0.08056636328126388
                },
                {
                    "name": "A#4",
                    "midi": 70,
                    "time": 148.14584732812406,
                    "velocity": 0.8818897637795275,
                    "duration": 0.2416990898437632
                },
                {
                    "name": "A#4",
                    "midi": 70,
                    "time": 148.40899590429595,
                    "velocity": 0.8818897637795275,
                    "duration": 0.2390832988281204
                },
                {
                    "name": "A#4",
                    "midi": 70,
                    "time": 148.6695286894522,
                    "velocity": 0.8818897637795275,
                    "duration": 0.2390832988281204
                },
                {
                    "name": "A#4",
                    "midi": 70,
                    "time": 148.93006147460844,
                    "velocity": 0.8818897637795275,
                    "duration": 0.24222224804688608
                },
                {
                    "name": "A#4",
                    "midi": 70,
                    "time": 149.19373320898345,
                    "velocity": 0.8818897637795275,
                    "duration": 0.24902330468751188
                },
                {
                    "name": "A#4",
                    "midi": 70,
                    "time": 149.46420599999908,
                    "velocity": 1,
                    "duration": 0.07899688867186683
                },
                {
                    "name": "D5",
                    "midi": 74,
                    "time": 149.54948078710845,
                    "velocity": 0.9763779527559056,
                    "duration": 0.06434845898436947
                },
                {
                    "name": "F5",
                    "midi": 77,
                    "time": 149.62010714453032,
                    "velocity": 0.9763779527559056,
                    "duration": 0.06016319335938647
                },
                {
                    "name": "A#5",
                    "midi": 82,
                    "time": 149.6865482363272,
                    "velocity": 0.9763779527559056,
                    "duration": 0.8501320800781116
                },
                {
                    "name": "D3",
                    "midi": 50,
                    "time": 149.75298932812407,
                    "velocity": 0.8188976377952756,
                    "duration": 0.2416990898437632
                },
                {
                    "name": "F3",
                    "midi": 53,
                    "time": 149.75298932812407,
                    "velocity": 0.8976377952755905,
                    "duration": 0.2416990898437632
                },
                {
                    "name": "A#2",
                    "midi": 46,
                    "time": 149.75298932812407,
                    "velocity": 0.8818897637795275,
                    "duration": 0.2416990898437632
                },
                {
                    "name": "D3",
                    "midi": 50,
                    "time": 150.01613790429596,
                    "velocity": 0.8188976377952756,
                    "duration": 0.2390832988281204
                },
                {
                    "name": "F3",
                    "midi": 53,
                    "time": 150.01613790429596,
                    "velocity": 0.8976377952755905,
                    "duration": 0.2390832988281204
                },
                {
                    "name": "A#2",
                    "midi": 46,
                    "time": 150.01613790429596,
                    "velocity": 0.8818897637795275,
                    "duration": 0.2390832988281204
                },
                {
                    "name": "D3",
                    "midi": 50,
                    "time": 150.2766706894522,
                    "velocity": 0.8188976377952756,
                    "duration": 0.2390832988281204
                },
                {
                    "name": "F3",
                    "midi": 53,
                    "time": 150.2766706894522,
                    "velocity": 0.8976377952755905,
                    "duration": 0.2390832988281204
                },
                {
                    "name": "A#2",
                    "midi": 46,
                    "time": 150.2766706894522,
                    "velocity": 0.8818897637795275,
                    "duration": 0.2390832988281204
                },
                {
                    "name": "G#5",
                    "midi": 80,
                    "time": 150.53720347460845,
                    "velocity": 0.9763779527559056,
                    "duration": 0.5336213671875214
                },
                {
                    "name": "D3",
                    "midi": 50,
                    "time": 150.53720347460845,
                    "velocity": 0.8188976377952756,
                    "duration": 0.24222224804688608
                },
                {
                    "name": "F3",
                    "midi": 53,
                    "time": 150.53720347460845,
                    "velocity": 0.8976377952755905,
                    "duration": 0.24222224804688608
                },
                {
                    "name": "A#2",
                    "midi": 46,
                    "time": 150.53720347460845,
                    "velocity": 0.8818897637795275,
                    "duration": 0.24222224804688608
                },
                {
                    "name": "D3",
                    "midi": 50,
                    "time": 150.80087520898346,
                    "velocity": 0.8188976377952756,
                    "duration": 0.24902330468751188
                },
                {
                    "name": "F3",
                    "midi": 53,
                    "time": 150.80087520898346,
                    "velocity": 0.9291338582677166,
                    "duration": 0.24902330468751188
                },
                {
                    "name": "A#2",
                    "midi": 46,
                    "time": 150.80087520898346,
                    "velocity": 0.8818897637795275,
                    "duration": 0.2804127968749981
                },
                {
                    "name": "G#5",
                    "midi": 80,
                    "time": 151.0713479999991,
                    "velocity": 1,
                    "duration": 0.14439166406248205
                },
                {
                    "name": "D3",
                    "midi": 50,
                    "time": 151.0713479999991,
                    "velocity": 0.8503937007874016,
                    "duration": 0.26733384179684094
                },
                {
                    "name": "G3",
                    "midi": 55,
                    "time": 151.0713479999991,
                    "velocity": 0.9606299212598425,
                    "duration": 0.26733384179684094
                },
                {
                    "name": "B2",
                    "midi": 47,
                    "time": 151.0713479999991,
                    "velocity": 0.9133858267716536,
                    "duration": 0.26733384179684094
                },
                {
                    "name": "G#5",
                    "midi": 80,
                    "time": 151.2052764999991,
                    "velocity": 0.9763779527559056,
                    "duration": 0.13026639257810757
                },
                {
                    "name": "G5",
                    "midi": 79,
                    "time": 151.32194077929594,
                    "velocity": 0.9763779527559056,
                    "duration": 0.0748116230468554
                },
                {
                    "name": "D3",
                    "midi": 50,
                    "time": 151.36013132812406,
                    "velocity": 0.8188976377952756,
                    "duration": 0.24169908984370636
                },
                {
                    "name": "G3",
                    "midi": 55,
                    "time": 151.36013132812406,
                    "velocity": 0.8976377952755905,
                    "duration": 0.24169908984370636
                },
                {
                    "name": "B2",
                    "midi": 47,
                    "time": 151.36013132812406,
                    "velocity": 0.8818897637795275,
                    "duration": 0.24169908984370636
                },
                {
                    "name": "G#5",
                    "midi": 80,
                    "time": 151.38890502929593,
                    "velocity": 0.9763779527559056,
                    "duration": 0.0748116230468554
                },
                {
                    "name": "G5",
                    "midi": 79,
                    "time": 151.4558692792959,
                    "velocity": 0.9763779527559056,
                    "duration": 0.0748116230468554
                },
                {
                    "name": "G#5",
                    "midi": 80,
                    "time": 151.5228335292959,
                    "velocity": 0.9763779527559056,
                    "duration": 0.0748116230468554
                },
                {
                    "name": "G5",
                    "midi": 79,
                    "time": 151.58979777929588,
                    "velocity": 0.937007874015748,
                    "duration": 0.5540245371093704
                },
                {
                    "name": "D3",
                    "midi": 50,
                    "time": 151.62327990429588,
                    "velocity": 0.8188976377952756,
                    "duration": 0.2390832988281204
                },
                {
                    "name": "G3",
                    "midi": 55,
                    "time": 151.62327990429588,
                    "velocity": 0.8976377952755905,
                    "duration": 0.2390832988281204
                },
                {
                    "name": "B2",
                    "midi": 47,
                    "time": 151.62327990429588,
                    "velocity": 0.8818897637795275,
                    "duration": 0.2390832988281204
                },
                {
                    "name": "D3",
                    "midi": 50,
                    "time": 151.88381268945213,
                    "velocity": 0.8188976377952756,
                    "duration": 0.2390832988281204
                },
                {
                    "name": "G3",
                    "midi": 55,
                    "time": 151.88381268945213,
                    "velocity": 0.8976377952755905,
                    "duration": 0.2390832988281204
                },
                {
                    "name": "B2",
                    "midi": 47,
                    "time": 151.88381268945213,
                    "velocity": 0.8818897637795275,
                    "duration": 0.2390832988281204
                },
                {
                    "name": "F5",
                    "midi": 77,
                    "time": 152.14434547460837,
                    "velocity": 0.9763779527559056,
                    "duration": 0.5336213671875214
                },
                {
                    "name": "D3",
                    "midi": 50,
                    "time": 152.14434547460837,
                    "velocity": 0.8188976377952756,
                    "duration": 0.24222224804688608
                },
                {
                    "name": "G3",
                    "midi": 55,
                    "time": 152.14434547460837,
                    "velocity": 0.8976377952755905,
                    "duration": 0.24222224804688608
                },
                {
                    "name": "B2",
                    "midi": 47,
                    "time": 152.14434547460837,
                    "velocity": 0.8818897637795275,
                    "duration": 0.24222224804688608
                },
                {
                    "name": "D3",
                    "midi": 50,
                    "time": 152.40801720898338,
                    "velocity": 0.905511811023622,
                    "duration": 0.2804127968749981
                },
                {
                    "name": "G3",
                    "midi": 55,
                    "time": 152.40801720898338,
                    "velocity": 0.8661417322834646,
                    "duration": 0.24902330468751188
                },
                {
                    "name": "B2",
                    "midi": 47,
                    "time": 152.40801720898338,
                    "velocity": 0.8818897637795275,
                    "duration": 0.2804127968749981
                },
                {
                    "name": "F5",
                    "midi": 77,
                    "time": 152.67848999999902,
                    "velocity": 1,
                    "duration": 0.14439166406248205
                },
                {
                    "name": "D#3",
                    "midi": 51,
                    "time": 152.67848999999902,
                    "velocity": 0.937007874015748,
                    "duration": 0.2987233339843556
                },
                {
                    "name": "G3",
                    "midi": 55,
                    "time": 152.67848999999902,
                    "velocity": 0.8976377952755905,
                    "duration": 0.2987233339843556
                },
                {
                    "name": "C3",
                    "midi": 48,
                    "time": 152.67848999999902,
                    "velocity": 0.9133858267716536,
                    "duration": 0.26733384179686936
                },
                {
                    "name": "F5",
                    "midi": 77,
                    "time": 152.812418499999,
                    "velocity": 0.9763779527559056,
                    "duration": 0.12869691796873894
                },
                {
                    "name": "D#5",
                    "midi": 75,
                    "time": 152.9275133046865,
                    "velocity": 0.9763779527559056,
                    "duration": 0.0748116230468554
                },
                {
                    "name": "C3",
                    "midi": 48,
                    "time": 152.967273328124,
                    "velocity": 0.8818897637795275,
                    "duration": 0.24169908984367794
                },
                {
                    "name": "F5",
                    "midi": 77,
                    "time": 152.99447755468648,
                    "velocity": 0.9763779527559056,
                    "duration": 0.0748116230468554
                },
                {
                    "name": "D#5",
                    "midi": 75,
                    "time": 153.06144180468647,
                    "velocity": 0.9763779527559056,
                    "duration": 0.0748116230468554
                },
                {
                    "name": "F5",
                    "midi": 77,
                    "time": 153.12840605468645,
                    "velocity": 0.9763779527559056,
                    "duration": 0.0748116230468554
                },
                {
                    "name": "D#5",
                    "midi": 75,
                    "time": 153.19537030468643,
                    "velocity": 0.937007874015748,
                    "duration": 0.01778737890626303
                },
                {
                    "name": "D#5",
                    "midi": 75,
                    "time": 153.2304219042958,
                    "velocity": 0.9763779527559056,
                    "duration": 0.2390832988281204
                },
                {
                    "name": "C3",
                    "midi": 48,
                    "time": 153.2304219042958,
                    "velocity": 0.8818897637795275,
                    "duration": 0.2390832988281204
                },
                {
                    "name": "D5",
                    "midi": 74,
                    "time": 153.49095468945205,
                    "velocity": 0.9763779527559056,
                    "duration": 0.2390832988281204
                },
                {
                    "name": "C3",
                    "midi": 48,
                    "time": 153.49095468945205,
                    "velocity": 0.8818897637795275,
                    "duration": 0.2390832988281204
                },
                {
                    "name": "C5",
                    "midi": 72,
                    "time": 153.7514874746083,
                    "velocity": 0.9763779527559056,
                    "duration": 0.5336213671875214
                },
                {
                    "name": "C3",
                    "midi": 48,
                    "time": 153.7514874746083,
                    "velocity": 0.8818897637795275,
                    "duration": 0.24222224804688608
                },
                {
                    "name": "C3",
                    "midi": 48,
                    "time": 154.0151592089833,
                    "velocity": 0.8818897637795275,
                    "duration": 0.2804127968749981
                },
                {
                    "name": "C3",
                    "midi": 48,
                    "time": 154.28563199999894,
                    "velocity": 1,
                    "duration": 0.07899688867186683
                },
                {
                    "name": "D#3",
                    "midi": 51,
                    "time": 154.3709067871083,
                    "velocity": 0.9763779527559056,
                    "duration": 0.06434845898436947
                },
                {
                    "name": "G3",
                    "midi": 55,
                    "time": 154.44153314453018,
                    "velocity": 0.9763779527559056,
                    "duration": 0.06016319335938647
                },
                {
                    "name": "C4",
                    "midi": 60,
                    "time": 154.50797423632707,
                    "velocity": 0.9763779527559056,
                    "duration": 0.06016319335938647
                },
                {
                    "name": "C5",
                    "midi": 72,
                    "time": 154.57441532812396,
                    "velocity": 0.5354330708661418,
                    "duration": 0.2416990898437632
                },
                {
                    "name": "C5",
                    "midi": 72,
                    "time": 154.83756390429585,
                    "velocity": 0.5354330708661418,
                    "duration": 0.2390832988281204
                },
                {
                    "name": "C5",
                    "midi": 72,
                    "time": 155.0980966894521,
                    "velocity": 0.5354330708661418,
                    "duration": 0.2390832988281204
                },
                {
                    "name": "C5",
                    "midi": 72,
                    "time": 155.35862947460834,
                    "velocity": 0.5354330708661418,
                    "duration": 0.24222224804688608
                },
                {
                    "name": "C5",
                    "midi": 72,
                    "time": 155.62230120898334,
                    "velocity": 0.5354330708661418,
                    "duration": 0.24902330468751188
                },
                {
                    "name": "C5",
                    "midi": 72,
                    "time": 155.89277399999898,
                    "velocity": 0.6614173228346457,
                    "duration": 0.10306216601563278
                },
                {
                    "name": "D#5",
                    "midi": 75,
                    "time": 156.00368353906148,
                    "velocity": 0.6299212598425197,
                    "duration": 0.08161267968750963
                },
                {
                    "name": "G5",
                    "midi": 79,
                    "time": 156.09314359179587,
                    "velocity": 0.6299212598425197,
                    "duration": 0.08056636328126388
                },
                {
                    "name": "C5",
                    "midi": 72,
                    "time": 156.181557328124,
                    "velocity": 0.5354330708661418,
                    "duration": 0.2416990898437632
                },
                {
                    "name": "C5",
                    "midi": 72,
                    "time": 156.4447059042959,
                    "velocity": 0.5354330708661418,
                    "duration": 0.2390832988281204
                },
                {
                    "name": "C5",
                    "midi": 72,
                    "time": 156.70523868945213,
                    "velocity": 0.5354330708661418,
                    "duration": 0.2390832988281204
                },
                {
                    "name": "C5",
                    "midi": 72,
                    "time": 156.96577147460837,
                    "velocity": 0.5354330708661418,
                    "duration": 0.24222224804688608
                },
                {
                    "name": "C5",
                    "midi": 72,
                    "time": 157.22944320898338,
                    "velocity": 0.5354330708661418,
                    "duration": 0.24902330468751188
                },
                {
                    "name": "C5",
                    "midi": 72,
                    "time": 157.49991599999902,
                    "velocity": 0.6614173228346457,
                    "duration": 0.10306216601563278
                },
                {
                    "name": "D#5",
                    "midi": 75,
                    "time": 157.61082553906152,
                    "velocity": 0.6299212598425197,
                    "duration": 0.08161267968750963
                },
                {
                    "name": "G5",
                    "midi": 79,
                    "time": 157.7002855917959,
                    "velocity": 0.6299212598425197,
                    "duration": 0.08056636328126388
                },
                {
                    "name": "C6",
                    "midi": 84,
                    "time": 157.78869932812404,
                    "velocity": 0.6299212598425197,
                    "duration": 0.7836909882812506
                },
                {
                    "name": "D#3",
                    "midi": 51,
                    "time": 157.78869932812404,
                    "velocity": 0.47244094488188976,
                    "duration": 0.2416990898437632
                },
                {
                    "name": "G3",
                    "midi": 55,
                    "time": 157.78869932812404,
                    "velocity": 0.5511811023622047,
                    "duration": 0.2416990898437632
                },
                {
                    "name": "C3",
                    "midi": 48,
                    "time": 157.78869932812404,
                    "velocity": 0.5354330708661418,
                    "duration": 0.2416990898437632
                },
                {
                    "name": "D#3",
                    "midi": 51,
                    "time": 158.05184790429593,
                    "velocity": 0.47244094488188976,
                    "duration": 0.2390832988281204
                },
                {
                    "name": "G3",
                    "midi": 55,
                    "time": 158.05184790429593,
                    "velocity": 0.5511811023622047,
                    "duration": 0.2390832988281204
                },
                {
                    "name": "C3",
                    "midi": 48,
                    "time": 158.05184790429593,
                    "velocity": 0.5354330708661418,
                    "duration": 0.2390832988281204
                },
                {
                    "name": "D#3",
                    "midi": 51,
                    "time": 158.31238068945217,
                    "velocity": 0.47244094488188976,
                    "duration": 0.2390832988281204
                },
                {
                    "name": "G3",
                    "midi": 55,
                    "time": 158.31238068945217,
                    "velocity": 0.5511811023622047,
                    "duration": 0.2390832988281204
                },
                {
                    "name": "C3",
                    "midi": 48,
                    "time": 158.31238068945217,
                    "velocity": 0.5354330708661418,
                    "duration": 0.2390832988281204
                },
                {
                    "name": "A#5",
                    "midi": 82,
                    "time": 158.5729134746084,
                    "velocity": 0.6299212598425197,
                    "duration": 0.5336213671875214
                },
                {
                    "name": "D#3",
                    "midi": 51,
                    "time": 158.5729134746084,
                    "velocity": 0.47244094488188976,
                    "duration": 0.24222224804688608
                },
                {
                    "name": "G3",
                    "midi": 55,
                    "time": 158.5729134746084,
                    "velocity": 0.5511811023622047,
                    "duration": 0.24222224804688608
                },
                {
                    "name": "C3",
                    "midi": 48,
                    "time": 158.5729134746084,
                    "velocity": 0.5354330708661418,
                    "duration": 0.24222224804688608
                },
                {
                    "name": "D#3",
                    "midi": 51,
                    "time": 158.83658520898342,
                    "velocity": 0.47244094488188976,
                    "duration": 0.2804127968749981
                },
                {
                    "name": "G3",
                    "midi": 55,
                    "time": 158.83658520898342,
                    "velocity": 0.5826771653543307,
                    "duration": 0.24902330468751188
                },
                {
                    "name": "C3",
                    "midi": 48,
                    "time": 158.83658520898342,
                    "velocity": 0.5354330708661418,
                    "duration": 0.2804127968749981
                },
                {
                    "name": "A#5",
                    "midi": 82,
                    "time": 159.10705799999906,
                    "velocity": 0.6614173228346457,
                    "duration": 0.14439166406248205
                },
                {
                    "name": "E3",
                    "midi": 52,
                    "time": 159.10705799999906,
                    "velocity": 0.5039370078740157,
                    "duration": 0.26733384179686936
                },
                {
                    "name": "A3",
                    "midi": 57,
                    "time": 159.10705799999906,
                    "velocity": 0.6141732283464567,
                    "duration": 0.26733384179686936
                },
                {
                    "name": "C#3",
                    "midi": 49,
                    "time": 159.10705799999906,
                    "velocity": 0.5669291338582677,
                    "duration": 0.26733384179686936
                },
                {
                    "name": "A#5",
                    "midi": 82,
                    "time": 159.24098649999905,
                    "velocity": 0.6299212598425197,
                    "duration": 0.1297432343749847
                },
                {
                    "name": "A5",
                    "midi": 81,
                    "time": 159.3571276210928,
                    "velocity": 0.6299212598425197,
                    "duration": 0.07481162304688382
                },
                {
                    "name": "E3",
                    "midi": 52,
                    "time": 159.39584132812405,
                    "velocity": 0.47244094488188976,
                    "duration": 0.24169908984370636
                },
                {
                    "name": "A3",
                    "midi": 57,
                    "time": 159.39584132812405,
                    "velocity": 0.5511811023622047,
                    "duration": 0.24169908984370636
                },
                {
                    "name": "C#3",
                    "midi": 49,
                    "time": 159.39584132812405,
                    "velocity": 0.5354330708661418,
                    "duration": 0.24169908984370636
                },
                {
                    "name": "A#5",
                    "midi": 82,
                    "time": 159.4240918710928,
                    "velocity": 0.6299212598425197,
                    "duration": 0.0748116230468554
                },
                {
                    "name": "A5",
                    "midi": 81,
                    "time": 159.49105612109278,
                    "velocity": 0.6299212598425197,
                    "duration": 0.0748116230468554
                },
                {
                    "name": "A#5",
                    "midi": 82,
                    "time": 159.55802037109277,
                    "velocity": 0.6299212598425197,
                    "duration": 0.0748116230468554
                },
                {
                    "name": "A5",
                    "midi": 81,
                    "time": 159.62498462109275,
                    "velocity": 0.5905511811023622,
                    "duration": 0.01674106250001728
                },
                {
                    "name": "A5",
                    "midi": 81,
                    "time": 159.65898990429588,
                    "velocity": 0.6299212598425197,
                    "duration": 0.5205424121093642
                },
                {
                    "name": "E3",
                    "midi": 52,
                    "time": 159.65898990429588,
                    "velocity": 0.47244094488188976,
                    "duration": 0.2390832988281204
                },
                {
                    "name": "A3",
                    "midi": 57,
                    "time": 159.65898990429588,
                    "velocity": 0.5511811023622047,
                    "duration": 0.2390832988281204
                },
                {
                    "name": "C#3",
                    "midi": 49,
                    "time": 159.65898990429588,
                    "velocity": 0.5354330708661418,
                    "duration": 0.2390832988281204
                },
                {
                    "name": "E3",
                    "midi": 52,
                    "time": 159.91952268945212,
                    "velocity": 0.47244094488188976,
                    "duration": 0.2390832988281204
                },
                {
                    "name": "A3",
                    "midi": 57,
                    "time": 159.91952268945212,
                    "velocity": 0.5511811023622047,
                    "duration": 0.2390832988281204
                },
                {
                    "name": "C#3",
                    "midi": 49,
                    "time": 159.91952268945212,
                    "velocity": 0.5354330708661418,
                    "duration": 0.2390832988281204
                },
                {
                    "name": "G5",
                    "midi": 79,
                    "time": 160.18005547460837,
                    "velocity": 0.6299212598425197,
                    "duration": 0.5336213671875214
                },
                {
                    "name": "E3",
                    "midi": 52,
                    "time": 160.18005547460837,
                    "velocity": 0.47244094488188976,
                    "duration": 0.24222224804688608
                },
                {
                    "name": "A3",
                    "midi": 57,
                    "time": 160.18005547460837,
                    "velocity": 0.5511811023622047,
                    "duration": 0.24222224804688608
                },
                {
                    "name": "C#3",
                    "midi": 49,
                    "time": 160.18005547460837,
                    "velocity": 0.5354330708661418,
                    "duration": 0.24222224804688608
                },
                {
                    "name": "E3",
                    "midi": 52,
                    "time": 160.44372720898338,
                    "velocity": 0.5590551181102362,
                    "duration": 0.2804127968749981
                },
                {
                    "name": "A3",
                    "midi": 57,
                    "time": 160.44372720898338,
                    "velocity": 0.5196850393700787,
                    "duration": 0.24902330468751188
                },
                {
                    "name": "C#3",
                    "midi": 49,
                    "time": 160.44372720898338,
                    "velocity": 0.5354330708661418,
                    "duration": 0.2804127968749981
                },
                {
                    "name": "G5",
                    "midi": 79,
                    "time": 160.714199999999,
                    "velocity": 0.6614173228346457,
                    "duration": 0.14439166406248205
                },
                {
                    "name": "F#3",
                    "midi": 54,
                    "time": 160.714199999999,
                    "velocity": 0.5905511811023622,
                    "duration": 0.2987233339843556
                },
                {
                    "name": "A3",
                    "midi": 57,
                    "time": 160.714199999999,
                    "velocity": 0.5511811023622047,
                    "duration": 0.2987233339843556
                },
                {
                    "name": "D3",
                    "midi": 50,
                    "time": 160.714199999999,
                    "velocity": 0.5669291338582677,
                    "duration": 0.26733384179686936
                },
                {
                    "name": "G5",
                    "midi": 79,
                    "time": 160.848128499999,
                    "velocity": 0.6299212598425197,
                    "duration": 0.12712744335937032
                },
                {
                    "name": "F#5",
                    "midi": 78,
                    "time": 160.96165383007713,
                    "velocity": 0.6299212598425197,
                    "duration": 0.0748116230468554
                },
                {
                    "name": "D3",
                    "midi": 50,
                    "time": 161.002983328124,
                    "velocity": 0.5354330708661418,
                    "duration": 0.24169908984367794
                },
                {
                    "name": "G5",
                    "midi": 79,
                    "time": 161.0286180800771,
                    "velocity": 0.6299212598425197,
                    "duration": 0.0748116230468554
                },
                {
                    "name": "F#5",
                    "midi": 78,
                    "time": 161.0955823300771,
                    "velocity": 0.6299212598425197,
                    "duration": 0.0748116230468554
                },
                {
                    "name": "G5",
                    "midi": 79,
                    "time": 161.16254658007708,
                    "velocity": 0.6299212598425197,
                    "duration": 0.0748116230468554
                },
                {
                    "name": "F#5",
                    "midi": 78,
                    "time": 161.22951083007706,
                    "velocity": 0.5905511811023622,
                    "duration": 0.01883369531250878
                },
                {
                    "name": "F#5",
                    "midi": 78,
                    "time": 161.26613190429583,
                    "velocity": 0.6299212598425197,
                    "duration": 0.2390832988281204
                },
                {
                    "name": "D3",
                    "midi": 50,
                    "time": 161.26613190429583,
                    "velocity": 0.5354330708661418,
                    "duration": 0.2390832988281204
                },
                {
                    "name": "E5",
                    "midi": 76,
                    "time": 161.52666468945208,
                    "velocity": 0.6299212598425197,
                    "duration": 0.2390832988281204
                },
                {
                    "name": "D3",
                    "midi": 50,
                    "time": 161.52666468945208,
                    "velocity": 0.5354330708661418,
                    "duration": 0.2390832988281204
                },
                {
                    "name": "D5",
                    "midi": 74,
                    "time": 161.78719747460832,
                    "velocity": 0.6299212598425197,
                    "duration": 0.5336213671875214
                },
                {
                    "name": "D3",
                    "midi": 50,
                    "time": 161.78719747460832,
                    "velocity": 0.5354330708661418,
                    "duration": 0.24222224804688608
                },
                {
                    "name": "D3",
                    "midi": 50,
                    "time": 162.05086920898333,
                    "velocity": 0.5354330708661418,
                    "duration": 0.2804127968749981
                },
                {
                    "name": "D3",
                    "midi": 50,
                    "time": 162.32134199999896,
                    "velocity": 0.6614173228346457,
                    "duration": 0.07899688867186683
                },
                {
                    "name": "F#3",
                    "midi": 54,
                    "time": 162.40661678710833,
                    "velocity": 0.6299212598425197,
                    "duration": 0.06434845898436947
                },
                {
                    "name": "A3",
                    "midi": 57,
                    "time": 162.4772431445302,
                    "velocity": 0.6299212598425197,
                    "duration": 0.06016319335938647
                },
                {
                    "name": "D4",
                    "midi": 62,
                    "time": 162.5436842363271,
                    "velocity": 0.6299212598425197,
                    "duration": 0.06016319335938647
                },
                {
                    "name": "A4",
                    "midi": 69,
                    "time": 162.61012532812398,
                    "velocity": 0.8818897637795275,
                    "duration": 0.2416990898437632
                },
                {
                    "name": "A4",
                    "midi": 69,
                    "time": 162.87327390429587,
                    "velocity": 0.8818897637795275,
                    "duration": 0.2390832988281204
                },
                {
                    "name": "A4",
                    "midi": 69,
                    "time": 163.13380668945211,
                    "velocity": 0.8818897637795275,
                    "duration": 0.2390832988281204
                },
                {
                    "name": "A4",
                    "midi": 69,
                    "time": 163.39433947460836,
                    "velocity": 0.8818897637795275,
                    "duration": 0.24222224804688608
                },
                {
                    "name": "A4",
                    "midi": 69,
                    "time": 163.65801120898337,
                    "velocity": 0.8818897637795275,
                    "duration": 0.2804127968749981
                },
                {
                    "name": "D4",
                    "midi": 62,
                    "time": 163.65801120898337,
                    "velocity": 0.9763779527559056,
                    "duration": 0.24902330468751188
                },
                {
                    "name": "A#4",
                    "midi": 70,
                    "time": 163.928483999999,
                    "velocity": 1,
                    "duration": 0.14439166406248205
                },
                {
                    "name": "G4",
                    "midi": 67,
                    "time": 163.928483999999,
                    "velocity": 1,
                    "duration": 0.14439166406248205
                },
                {
                    "name": "A4",
                    "midi": 69,
                    "time": 164.08438514453024,
                    "velocity": 0.9763779527559056,
                    "duration": 0.12137270312499027
                },
                {
                    "name": "F#4",
                    "midi": 66,
                    "time": 164.08438514453024,
                    "velocity": 0.9763779527559056,
                    "duration": 0.12137270312499027
                },
                {
                    "name": "A#4",
                    "midi": 70,
                    "time": 164.196340999999,
                    "velocity": 0.9763779527559056,
                    "duration": 0.047607396484380615
                },
                {
                    "name": "G4",
                    "midi": 67,
                    "time": 164.196340999999,
                    "velocity": 0.9763779527559056,
                    "duration": 0.047607396484380615
                },
                {
                    "name": "A4",
                    "midi": 69,
                    "time": 164.23923997265524,
                    "velocity": 0.9763779527559056,
                    "duration": 0.047607396484380615
                },
                {
                    "name": "F#4",
                    "midi": 66,
                    "time": 164.23923997265524,
                    "velocity": 0.9763779527559056,
                    "duration": 0.047607396484380615
                },
                {
                    "name": "A#4",
                    "midi": 70,
                    "time": 164.2821389453115,
                    "velocity": 0.937007874015748,
                    "duration": 0.04446844726564336
                },
                {
                    "name": "G4",
                    "midi": 67,
                    "time": 164.2821389453115,
                    "velocity": 0.937007874015748,
                    "duration": 0.04446844726564336
                },
                {
                    "name": "C5",
                    "midi": 72,
                    "time": 164.3491031953115,
                    "velocity": 0.9763779527559056,
                    "duration": 0.11980322851562164
                },
                {
                    "name": "A4",
                    "midi": 69,
                    "time": 164.3491031953115,
                    "velocity": 0.9763779527559056,
                    "duration": 0.11980322851562164
                },
                {
                    "name": "D5",
                    "midi": 74,
                    "time": 164.48041590429588,
                    "velocity": 0.9763779527559056,
                    "duration": 0.2390832988281204
                },
                {
                    "name": "A#4",
                    "midi": 70,
                    "time": 164.48041590429588,
                    "velocity": 0.8818897637795275,
                    "duration": 0.2390832988281204
                },
                {
                    "name": "D5",
                    "midi": 74,
                    "time": 164.74094868945213,
                    "velocity": 0.9763779527559056,
                    "duration": 0.5236813613281299
                },
                {
                    "name": "A#4",
                    "midi": 70,
                    "time": 164.74094868945213,
                    "velocity": 0.8818897637795275,
                    "duration": 0.2390832988281204
                },
                {
                    "name": "A#4",
                    "midi": 70,
                    "time": 165.00148147460837,
                    "velocity": 0.8818897637795275,
                    "duration": 0.2736117402343723
                },
                {
                    "name": "D5",
                    "midi": 74,
                    "time": 165.267768999999,
                    "velocity": 0.9763779527559056,
                    "duration": 0.03505159960937476
                },
                {
                    "name": "A#4",
                    "midi": 70,
                    "time": 165.267768999999,
                    "velocity": 0.9763779527559056,
                    "duration": 0.03505159960937476
                },
                {
                    "name": "C5",
                    "midi": 72,
                    "time": 165.29915849218648,
                    "velocity": 0.9763779527559056,
                    "duration": 0.03505159960940318
                },
                {
                    "name": "A4",
                    "midi": 69,
                    "time": 165.29915849218648,
                    "velocity": 0.9763779527559056,
                    "duration": 0.03505159960940318
                },
                {
                    "name": "D5",
                    "midi": 74,
                    "time": 165.330547984374,
                    "velocity": 0.9763779527559056,
                    "duration": 0.03505159960940318
                },
                {
                    "name": "A#4",
                    "midi": 70,
                    "time": 165.330547984374,
                    "velocity": 0.9763779527559056,
                    "duration": 0.03505159960940318
                },
                {
                    "name": "C5",
                    "midi": 72,
                    "time": 165.3619374765615,
                    "velocity": 0.937007874015748,
                    "duration": 0.03662107421877181
                },
                {
                    "name": "A4",
                    "midi": 69,
                    "time": 165.3619374765615,
                    "velocity": 0.937007874015748,
                    "duration": 0.03662107421877181
                },
                {
                    "name": "A#4",
                    "midi": 70,
                    "time": 165.39803539257716,
                    "velocity": 0.9763779527559056,
                    "duration": 0.12660428515624744
                },
                {
                    "name": "G4",
                    "midi": 67,
                    "time": 165.39803539257716,
                    "velocity": 0.9763779527559056,
                    "duration": 0.12660428515624744
                },
                {
                    "name": "A4",
                    "midi": 69,
                    "time": 165.53562599999904,
                    "velocity": 1,
                    "duration": 0.14439166406251047
                },
                {
                    "name": "F#4",
                    "midi": 66,
                    "time": 165.53562599999904,
                    "velocity": 1,
                    "duration": 0.14439166406251047
                },
                {
                    "name": "G4",
                    "midi": 67,
                    "time": 165.6915271445303,
                    "velocity": 0.9763779527559056,
                    "duration": 0.12137270312499027
                },
                {
                    "name": "D4",
                    "midi": 62,
                    "time": 165.6915271445303,
                    "velocity": 0.9763779527559056,
                    "duration": 0.12137270312499027
                },
                {
                    "name": "A4",
                    "midi": 69,
                    "time": 165.80348299999906,
                    "velocity": 0.9763779527559056,
                    "duration": 0.047607396484380615
                },
                {
                    "name": "F#4",
                    "midi": 66,
                    "time": 165.82440932812406,
                    "velocity": 0.9763779527559056,
                    "duration": 0.12032638671877294
                },
                {
                    "name": "G4",
                    "midi": 67,
                    "time": 165.8463819726553,
                    "velocity": 0.9763779527559056,
                    "duration": 0.047607396484380615
                },
                {
                    "name": "A4",
                    "midi": 69,
                    "time": 165.88928094531155,
                    "velocity": 0.937007874015748,
                    "duration": 0.04446844726564336
                },
                {
                    "name": "A#4",
                    "midi": 70,
                    "time": 165.9562451953116,
                    "velocity": 0.9763779527559056,
                    "duration": 0.11980322851562164
                },
                {
                    "name": "G4",
                    "midi": 67,
                    "time": 165.9562451953116,
                    "velocity": 0.9763779527559056,
                    "duration": 0.11980322851562164
                },
                {
                    "name": "C5",
                    "midi": 72,
                    "time": 166.08755790429598,
                    "velocity": 0.9763779527559056,
                    "duration": 0.2390832988281204
                },
                {
                    "name": "A4",
                    "midi": 69,
                    "time": 166.08755790429598,
                    "velocity": 0.8818897637795275,
                    "duration": 0.2390832988281204
                },
                {
                    "name": "C5",
                    "midi": 72,
                    "time": 166.34809068945222,
                    "velocity": 0.9763779527559056,
                    "duration": 0.5236813613281299
                },
                {
                    "name": "A4",
                    "midi": 69,
                    "time": 166.34809068945222,
                    "velocity": 0.8818897637795275,
                    "duration": 0.2390832988281204
                },
                {
                    "name": "A4",
                    "midi": 69,
                    "time": 166.60862347460846,
                    "velocity": 0.8818897637795275,
                    "duration": 0.2736117402343723
                },
                {
                    "name": "C5",
                    "midi": 72,
                    "time": 166.8749109999991,
                    "velocity": 0.9763779527559056,
                    "duration": 0.03505159960937476
                },
                {
                    "name": "A4",
                    "midi": 69,
                    "time": 166.8749109999991,
                    "velocity": 0.9763779527559056,
                    "duration": 0.03505159960937476
                },
                {
                    "name": "A#4",
                    "midi": 70,
                    "time": 166.90630049218657,
                    "velocity": 0.9763779527559056,
                    "duration": 0.03505159960940318
                },
                {
                    "name": "G4",
                    "midi": 67,
                    "time": 166.90630049218657,
                    "velocity": 0.9763779527559056,
                    "duration": 0.03505159960940318
                },
                {
                    "name": "C5",
                    "midi": 72,
                    "time": 166.9376899843741,
                    "velocity": 0.9763779527559056,
                    "duration": 0.03505159960940318
                },
                {
                    "name": "A4",
                    "midi": 69,
                    "time": 166.9376899843741,
                    "velocity": 0.9763779527559056,
                    "duration": 0.03505159960940318
                },
                {
                    "name": "A#4",
                    "midi": 70,
                    "time": 166.9690794765616,
                    "velocity": 0.937007874015748,
                    "duration": 0.03662107421877181
                },
                {
                    "name": "G4",
                    "midi": 67,
                    "time": 166.9690794765616,
                    "velocity": 0.937007874015748,
                    "duration": 0.03662107421877181
                },
                {
                    "name": "A4",
                    "midi": 69,
                    "time": 167.00517739257725,
                    "velocity": 0.9763779527559056,
                    "duration": 0.12660428515624744
                },
                {
                    "name": "F#4",
                    "midi": 66,
                    "time": 167.00517739257725,
                    "velocity": 0.9763779527559056,
                    "duration": 0.12660428515624744
                },
                {
                    "name": "A#4",
                    "midi": 70,
                    "time": 167.14276799999914,
                    "velocity": 1,
                    "duration": 0.14439166406251047
                },
                {
                    "name": "G4",
                    "midi": 67,
                    "time": 167.14276799999914,
                    "velocity": 1,
                    "duration": 0.14439166406251047
                },
                {
                    "name": "A4",
                    "midi": 69,
                    "time": 167.2986691445304,
                    "velocity": 0.9763779527559056,
                    "duration": 0.12137270312499027
                },
                {
                    "name": "F#4",
                    "midi": 66,
                    "time": 167.2986691445304,
                    "velocity": 0.9763779527559056,
                    "duration": 0.12137270312499027
                },
                {
                    "name": "A#4",
                    "midi": 70,
                    "time": 167.41062499999916,
                    "velocity": 0.9763779527559056,
                    "duration": 0.047607396484380615
                },
                {
                    "name": "G4",
                    "midi": 67,
                    "time": 167.41062499999916,
                    "velocity": 0.9763779527559056,
                    "duration": 0.047607396484380615
                },
                {
                    "name": "A4",
                    "midi": 69,
                    "time": 167.4535239726554,
                    "velocity": 0.9763779527559056,
                    "duration": 0.047607396484380615
                },
                {
                    "name": "F#4",
                    "midi": 66,
                    "time": 167.4535239726554,
                    "velocity": 0.9763779527559056,
                    "duration": 0.047607396484380615
                },
                {
                    "name": "A#4",
                    "midi": 70,
                    "time": 167.49642294531165,
                    "velocity": 0.937007874015748,
                    "duration": 0.04446844726564336
                },
                {
                    "name": "G4",
                    "midi": 67,
                    "time": 167.49642294531165,
                    "velocity": 0.937007874015748,
                    "duration": 0.04446844726564336
                },
                {
                    "name": "C5",
                    "midi": 72,
                    "time": 167.56338719531166,
                    "velocity": 0.9763779527559056,
                    "duration": 0.11980322851562164
                },
                {
                    "name": "A4",
                    "midi": 69,
                    "time": 167.56338719531166,
                    "velocity": 0.9763779527559056,
                    "duration": 0.11980322851562164
                },
                {
                    "name": "D5",
                    "midi": 74,
                    "time": 167.69469990429604,
                    "velocity": 0.9763779527559056,
                    "duration": 0.2390832988281204
                },
                {
                    "name": "A#4",
                    "midi": 70,
                    "time": 167.69469990429604,
                    "velocity": 0.8818897637795275,
                    "duration": 0.2390832988281204
                },
                {
                    "name": "D5",
                    "midi": 74,
                    "time": 167.9552326894523,
                    "velocity": 0.9763779527559056,
                    "duration": 0.5236813613281299
                },
                {
                    "name": "A#4",
                    "midi": 70,
                    "time": 167.9552326894523,
                    "velocity": 0.8818897637795275,
                    "duration": 0.2390832988281204
                },
                {
                    "name": "A#4",
                    "midi": 70,
                    "time": 168.21576547460853,
                    "velocity": 0.8818897637795275,
                    "duration": 0.2736117402343723
                },
                {
                    "name": "D5",
                    "midi": 74,
                    "time": 168.48205299999915,
                    "velocity": 0.9763779527559056,
                    "duration": 0.03505159960937476
                },
                {
                    "name": "A#4",
                    "midi": 70,
                    "time": 168.48205299999915,
                    "velocity": 0.9763779527559056,
                    "duration": 0.03505159960937476
                },
                {
                    "name": "C5",
                    "midi": 72,
                    "time": 168.51344249218664,
                    "velocity": 0.9763779527559056,
                    "duration": 0.03505159960940318
                },
                {
                    "name": "A4",
                    "midi": 69,
                    "time": 168.51344249218664,
                    "velocity": 0.9763779527559056,
                    "duration": 0.03505159960940318
                },
                {
                    "name": "D5",
                    "midi": 74,
                    "time": 168.54483198437416,
                    "velocity": 0.9763779527559056,
                    "duration": 0.03505159960940318
                },
                {
                    "name": "A#4",
                    "midi": 70,
                    "time": 168.54483198437416,
                    "velocity": 0.9763779527559056,
                    "duration": 0.03505159960940318
                },
                {
                    "name": "C5",
                    "midi": 72,
                    "time": 168.57622147656167,
                    "velocity": 0.937007874015748,
                    "duration": 0.03662107421877181
                },
                {
                    "name": "A4",
                    "midi": 69,
                    "time": 168.57622147656167,
                    "velocity": 0.937007874015748,
                    "duration": 0.03662107421877181
                },
                {
                    "name": "A#4",
                    "midi": 70,
                    "time": 168.61231939257732,
                    "velocity": 0.9763779527559056,
                    "duration": 0.12660428515624744
                },
                {
                    "name": "G4",
                    "midi": 67,
                    "time": 168.61231939257732,
                    "velocity": 0.9763779527559056,
                    "duration": 0.12660428515624744
                },
                {
                    "name": "A#4",
                    "midi": 70,
                    "time": 168.7499099999992,
                    "velocity": 1,
                    "duration": 0.08527478710936975
                },
                {
                    "name": "D4",
                    "midi": 62,
                    "time": 168.7499099999992,
                    "velocity": 0.9133858267716536,
                    "duration": 1.0724743164062431
                },
                {
                    "name": "F#4",
                    "midi": 66,
                    "time": 168.7499099999992,
                    "velocity": 1,
                    "duration": 1.0724743164062431
                },
                {
                    "name": "A4",
                    "midi": 69,
                    "time": 168.82629109765546,
                    "velocity": 0.9763779527559056,
                    "duration": 0.08527478710936975
                },
                {
                    "name": "A#4",
                    "midi": 70,
                    "time": 168.9026721953117,
                    "velocity": 0.9763779527559056,
                    "duration": 0.08527478710936975
                },
                {
                    "name": "A4",
                    "midi": 69,
                    "time": 168.97905329296796,
                    "velocity": 0.937007874015748,
                    "duration": 0.84228470703124
                },
                {
                    "name": "A#4",
                    "midi": 70,
                    "time": 170.3570519999992,
                    "velocity": 0.6614173228346457,
                    "duration": 0.14439166406251047
                },
                {
                    "name": "G4",
                    "midi": 67,
                    "time": 170.3570519999992,
                    "velocity": 0.6614173228346457,
                    "duration": 0.2673338417968978
                },
                {
                    "name": "A4",
                    "midi": 69,
                    "time": 170.51295314453046,
                    "velocity": 0.6299212598425197,
                    "duration": 0.12137270312499027
                },
                {
                    "name": "A#4",
                    "midi": 70,
                    "time": 170.6249089999992,
                    "velocity": 0.6299212598425197,
                    "duration": 0.047607396484380615
                },
                {
                    "name": "G4",
                    "midi": 67,
                    "time": 170.6458353281242,
                    "velocity": 0.6299212598425197,
                    "duration": 0.2416990898437632
                },
                {
                    "name": "A4",
                    "midi": 69,
                    "time": 170.66780797265545,
                    "velocity": 0.6299212598425197,
                    "duration": 0.047607396484380615
                },
                {
                    "name": "A#4",
                    "midi": 70,
                    "time": 170.7107069453117,
                    "velocity": 0.5905511811023622,
                    "duration": 0.04446844726564336
                },
                {
                    "name": "D5",
                    "midi": 74,
                    "time": 170.7776711953117,
                    "velocity": 0.6299212598425197,
                    "duration": 0.11980322851562164
                },
                {
                    "name": "A#4",
                    "midi": 70,
                    "time": 170.9089839042961,
                    "velocity": 0.6299212598425197,
                    "duration": 0.11875691210937589
                },
                {
                    "name": "G4",
                    "midi": 67,
                    "time": 170.9089839042961,
                    "velocity": 0.6299212598425197,
                    "duration": 0.23908329882814883
                },
                {
                    "name": "A4",
                    "midi": 69,
                    "time": 171.03925029687423,
                    "velocity": 0.6299212598425197,
                    "duration": 0.11928007031249876
                },
                {
                    "name": "A#4",
                    "midi": 70,
                    "time": 171.16062299999922,
                    "velocity": 0.6299212598425197,
                    "duration": 0.047607396484380615
                },
                {
                    "name": "G4",
                    "midi": 67,
                    "time": 171.16951668945234,
                    "velocity": 0.6299212598425197,
                    "duration": 0.23908329882814883
                },
                {
                    "name": "A4",
                    "midi": 69,
                    "time": 171.20352197265547,
                    "velocity": 0.6299212598425197,
                    "duration": 0.047607396484380615
                },
                {
                    "name": "A#4",
                    "midi": 70,
                    "time": 171.2464209453117,
                    "velocity": 0.5905511811023622,
                    "duration": 0.04446844726564336
                },
                {
                    "name": "D5",
                    "midi": 74,
                    "time": 171.29978308203047,
                    "velocity": 0.6299212598425197,
                    "duration": 0.11928007031249876
                },
                {
                    "name": "B4",
                    "midi": 71,
                    "time": 171.4300494746086,
                    "velocity": 0.6299212598425197,
                    "duration": 0.12084954492186739
                },
                {
                    "name": "D4",
                    "midi": 62,
                    "time": 171.4300494746086,
                    "velocity": 0.6299212598425197,
                    "duration": 0.24222224804688608
                },
                {
                    "name": "A4",
                    "midi": 69,
                    "time": 171.5618853417961,
                    "velocity": 0.6299212598425197,
                    "duration": 0.12084954492186739
                },
                {
                    "name": "F4",
                    "midi": 65,
                    "time": 171.69372120898362,
                    "velocity": 0.6299212598425197,
                    "duration": 0.24902330468751188
                },
                {
                    "name": "B4",
                    "midi": 71,
                    "time": 171.69633699999923,
                    "velocity": 0.6299212598425197,
                    "duration": 0.047607396484380615
                },
                {
                    "name": "A4",
                    "midi": 69,
                    "time": 171.73923597265548,
                    "velocity": 0.6299212598425197,
                    "duration": 0.047607396484380615
                },
                {
                    "name": "B4",
                    "midi": 71,
                    "time": 171.78213494531173,
                    "velocity": 0.5905511811023622,
                    "duration": 0.04446844726564336
                },
                {
                    "name": "D5",
                    "midi": 74,
                    "time": 171.82660339257737,
                    "velocity": 0.6299212598425197,
                    "duration": 0.12660428515624744
                },
                {
                    "name": "C5",
                    "midi": 72,
                    "time": 171.96419399999925,
                    "velocity": 0.6614173228346457,
                    "duration": 0.14439166406251047
                },
                {
                    "name": "D#4",
                    "midi": 63,
                    "time": 171.96419399999925,
                    "velocity": 0.6614173228346457,
                    "duration": 0.2673338417968978
                },
                {
                    "name": "B4",
                    "midi": 71,
                    "time": 172.12009514453052,
                    "velocity": 0.6299212598425197,
                    "duration": 0.12137270312499027
                },
                {
                    "name": "C5",
                    "midi": 72,
                    "time": 172.23205099999927,
                    "velocity": 0.6299212598425197,
                    "duration": 0.047607396484380615
                },
                {
                    "name": "G4",
                    "midi": 67,
                    "time": 172.25297732812427,
                    "velocity": 0.6299212598425197,
                    "duration": 0.2416990898437632
                },
                {
                    "name": "B4",
                    "midi": 71,
                    "time": 172.27494997265552,
                    "velocity": 0.6299212598425197,
                    "duration": 0.047607396484380615
                },
                {
                    "name": "C5",
                    "midi": 72,
                    "time": 172.31784894531177,
                    "velocity": 0.5905511811023622,
                    "duration": 0.04446844726564336
                },
                {
                    "name": "D#5",
                    "midi": 75,
                    "time": 172.38481319531178,
                    "velocity": 0.6299212598425197,
                    "duration": 0.11980322851562164
                },
                {
                    "name": "C5",
                    "midi": 72,
                    "time": 172.51612590429616,
                    "velocity": 0.6299212598425197,
                    "duration": 0.11875691210937589
                },
                {
                    "name": "D#4",
                    "midi": 63,
                    "time": 172.51612590429616,
                    "velocity": 0.6299212598425197,
                    "duration": 0.23908329882814883
                },
                {
                    "name": "B4",
                    "midi": 71,
                    "time": 172.6463922968743,
                    "velocity": 0.6299212598425197,
                    "duration": 0.11928007031249876
                },
                {
                    "name": "C5",
                    "midi": 72,
                    "time": 172.7677649999993,
                    "velocity": 0.6299212598425197,
                    "duration": 0.047607396484380615
                },
                {
                    "name": "G4",
                    "midi": 67,
                    "time": 172.7766586894524,
                    "velocity": 0.6299212598425197,
                    "duration": 0.23908329882814883
                },
                {
                    "name": "B4",
                    "midi": 71,
                    "time": 172.81066397265553,
                    "velocity": 0.6299212598425197,
                    "duration": 0.047607396484380615
                },
                {
                    "name": "C5",
                    "midi": 72,
                    "time": 172.85356294531178,
                    "velocity": 0.5905511811023622,
                    "duration": 0.04446844726564336
                },
                {
                    "name": "E5",
                    "midi": 76,
                    "time": 172.90692508203054,
                    "velocity": 0.6299212598425197,
                    "duration": 0.11928007031249876
                },
                {
                    "name": "C#5",
                    "midi": 73,
                    "time": 173.03719147460868,
                    "velocity": 0.6299212598425197,
                    "duration": 0.12084954492186739
                },
                {
                    "name": "E4",
                    "midi": 64,
                    "time": 173.03719147460868,
                    "velocity": 0.6299212598425197,
                    "duration": 0.24222224804688608
                },
                {
                    "name": "B4",
                    "midi": 71,
                    "time": 173.16902734179618,
                    "velocity": 0.6299212598425197,
                    "duration": 0.12084954492186739
                },
                {
                    "name": "G4",
                    "midi": 67,
                    "time": 173.30086320898369,
                    "velocity": 0.6299212598425197,
                    "duration": 0.24902330468751188
                },
                {
                    "name": "C#5",
                    "midi": 73,
                    "time": 173.3034789999993,
                    "velocity": 0.6299212598425197,
                    "duration": 0.047607396484380615
                },
                {
                    "name": "B4",
                    "midi": 71,
                    "time": 173.34637797265555,
                    "velocity": 0.6299212598425197,
                    "duration": 0.047607396484380615
                },
                {
                    "name": "C#5",
                    "midi": 73,
                    "time": 173.3892769453118,
                    "velocity": 0.5905511811023622,
                    "duration": 0.04446844726564336
                },
                {
                    "name": "E5",
                    "midi": 76,
                    "time": 173.43374539257744,
                    "velocity": 0.6299212598425197,
                    "duration": 0.12660428515624744
                },
                {
                    "name": "D5",
                    "midi": 74,
                    "time": 173.57133599999932,
                    "velocity": 0.6614173228346457,
                    "duration": 0.14439166406251047
                },
                {
                    "name": "F4",
                    "midi": 65,
                    "time": 173.57133599999932,
                    "velocity": 0.6614173228346457,
                    "duration": 0.2673338417968978
                },
                {
                    "name": "C#5",
                    "midi": 73,
                    "time": 173.7272371445306,
                    "velocity": 0.6299212598425197,
                    "duration": 0.12137270312499027
                },
                {
                    "name": "D5",
                    "midi": 74,
                    "time": 173.83919299999934,
                    "velocity": 0.6299212598425197,
                    "duration": 0.047607396484380615
                },
                {
                    "name": "A4",
                    "midi": 69,
                    "time": 173.86011932812434,
                    "velocity": 0.6299212598425197,
                    "duration": 0.2416990898437632
                },
                {
                    "name": "C#5",
                    "midi": 73,
                    "time": 173.8820919726556,
                    "velocity": 0.6299212598425197,
                    "duration": 0.047607396484380615
                },
                {
                    "name": "D5",
                    "midi": 74,
                    "time": 173.92499094531183,
                    "velocity": 0.5905511811023622,
                    "duration": 0.04446844726564336
                },
                {
                    "name": "F5",
                    "midi": 77,
                    "time": 173.99195519531185,
                    "velocity": 0.6299212598425197,
                    "duration": 0.11980322851562164
                },
                {
                    "name": "D5",
                    "midi": 74,
                    "time": 174.12326790429623,
                    "velocity": 0.6299212598425197,
                    "duration": 0.11875691210937589
                },
                {
                    "name": "F4",
                    "midi": 65,
                    "time": 174.12326790429623,
                    "velocity": 0.6299212598425197,
                    "duration": 0.23908329882814883
                },
                {
                    "name": "C#5",
                    "midi": 73,
                    "time": 174.25353429687436,
                    "velocity": 0.6299212598425197,
                    "duration": 0.11928007031249876
                },
                {
                    "name": "D5",
                    "midi": 74,
                    "time": 174.37490699999935,
                    "velocity": 0.6299212598425197,
                    "duration": 0.047607396484380615
                },
                {
                    "name": "D4",
                    "midi": 62,
                    "time": 174.38380068945247,
                    "velocity": 0.6299212598425197,
                    "duration": 0.23908329882814883
                },
                {
                    "name": "C#5",
                    "midi": 73,
                    "time": 174.4178059726556,
                    "velocity": 0.6299212598425197,
                    "duration": 0.047607396484380615
                },
                {
                    "name": "D5",
                    "midi": 74,
                    "time": 174.46070494531185,
                    "velocity": 0.5905511811023622,
                    "duration": 0.04446844726564336
                },
                {
                    "name": "F5",
                    "midi": 77,
                    "time": 174.5140670820306,
                    "velocity": 0.6299212598425197,
                    "duration": 0.11928007031249876
                },
                {
                    "name": "E5",
                    "midi": 76,
                    "time": 174.64433347460874,
                    "velocity": 0.6299212598425197,
                    "duration": 0.12084954492186739
                },
                {
                    "name": "C#4",
                    "midi": 61,
                    "time": 174.64433347460874,
                    "velocity": 0.6299212598425197,
                    "duration": 0.24222224804688608
                },
                {
                    "name": "D5",
                    "midi": 74,
                    "time": 174.77616934179625,
                    "velocity": 0.6299212598425197,
                    "duration": 0.12084954492186739
                },
                {
                    "name": "A3",
                    "midi": 57,
                    "time": 174.90800520898375,
                    "velocity": 0.6299212598425197,
                    "duration": 0.24902330468751188
                },
                {
                    "name": "E5",
                    "midi": 76,
                    "time": 174.91062099999937,
                    "velocity": 0.6299212598425197,
                    "duration": 0.047607396484380615
                },
                {
                    "name": "D5",
                    "midi": 74,
                    "time": 174.9535199726556,
                    "velocity": 0.6299212598425197,
                    "duration": 0.047607396484380615
                },
                {
                    "name": "E5",
                    "midi": 76,
                    "time": 174.99641894531186,
                    "velocity": 0.5905511811023622,
                    "duration": 0.04446844726564336
                },
                {
                    "name": "G5",
                    "midi": 79,
                    "time": 175.0408873925775,
                    "velocity": 0.6299212598425197,
                    "duration": 0.12660428515624744
                },
                {
                    "name": "F5",
                    "midi": 77,
                    "time": 175.1784779999994,
                    "velocity": 0.6614173228346457,
                    "duration": 0.09626110937497856
                },
                {
                    "name": "D4",
                    "midi": 62,
                    "time": 175.1784779999994,
                    "velocity": 0.6614173228346457,
                    "duration": 0.26733384179684094
                },
                {
                    "name": "E5",
                    "midi": 76,
                    "time": 175.264799103515,
                    "velocity": 0.6299212598425197,
                    "duration": 0.09626110937497856
                },
                {
                    "name": "F5",
                    "midi": 77,
                    "time": 175.35112020703062,
                    "velocity": 0.5905511811023622,
                    "duration": 0.08789057812498413
                },
                {
                    "name": "G5",
                    "midi": 79,
                    "time": 175.44633499999935,
                    "velocity": 0.6299212598425197,
                    "duration": 0.07481162304688382
                },
                {
                    "name": "D5",
                    "midi": 74,
                    "time": 175.46726132812435,
                    "velocity": 0.6299212598425197,
                    "duration": 0.24169908984373478
                },
                {
                    "name": "F5",
                    "midi": 77,
                    "time": 175.51329924999936,
                    "velocity": 0.6299212598425197,
                    "duration": 0.0748116230468554
                },
                {
                    "name": "E5",
                    "midi": 76,
                    "time": 175.58026349999935,
                    "velocity": 0.6299212598425197,
                    "duration": 0.0748116230468554
                },
                {
                    "name": "F5",
                    "midi": 77,
                    "time": 175.64722774999933,
                    "velocity": 0.5905511811023622,
                    "duration": 0.061732667968755095
                },
                {
                    "name": "G5",
                    "midi": 79,
                    "time": 175.7304099042962,
                    "velocity": 0.6299212598425197,
                    "duration": 0.2390832988281204
                },
                {
                    "name": "G4",
                    "midi": 67,
                    "time": 175.7304099042962,
                    "velocity": 0.6299212598425197,
                    "duration": 0.2390832988281204
                },
                {
                    "name": "F5",
                    "midi": 77,
                    "time": 175.99094268945245,
                    "velocity": 0.6299212598425197,
                    "duration": 0.2390832988281204
                },
                {
                    "name": "A4",
                    "midi": 69,
                    "time": 175.99094268945245,
                    "velocity": 0.6299212598425197,
                    "duration": 0.2390832988281204
                },
                {
                    "name": "F5",
                    "midi": 77,
                    "time": 176.24990599999933,
                    "velocity": 0.6299212598425197,
                    "duration": 0.0706263574218724
                },
                {
                    "name": "A#4",
                    "midi": 70,
                    "time": 176.2514754746087,
                    "velocity": 0.6299212598425197,
                    "duration": 0.24222224804688608
                },
                {
                    "name": "E5",
                    "midi": 76,
                    "time": 176.31320814257745,
                    "velocity": 0.6299212598425197,
                    "duration": 0.0706263574218724
                },
                {
                    "name": "F5",
                    "midi": 77,
                    "time": 176.37651028515558,
                    "velocity": 0.6299212598425197,
                    "duration": 0.0706263574218724
                },
                {
                    "name": "E5",
                    "midi": 76,
                    "time": 176.4398124277337,
                    "velocity": 0.5905511811023622,
                    "duration": 0.07219583203126945
                },
                {
                    "name": "D5",
                    "midi": 74,
                    "time": 176.5151472089837,
                    "velocity": 0.6299212598425197,
                    "duration": 0.24902330468751188
                },
                {
                    "name": "G4",
                    "midi": 67,
                    "time": 176.5151472089837,
                    "velocity": 0.6299212598425197,
                    "duration": 0.24902330468751188
                },
                {
                    "name": "D5",
                    "midi": 74,
                    "time": 176.78561999999934,
                    "velocity": 0.6614173228346457,
                    "duration": 0.08684426171873838
                },
                {
                    "name": "A4",
                    "midi": 69,
                    "time": 176.78561999999934,
                    "velocity": 0.6614173228346457,
                    "duration": 0.26733384179686936
                },
                {
                    "name": "C#5",
                    "midi": 73,
                    "time": 176.86357057226496,
                    "velocity": 0.6299212598425197,
                    "duration": 0.08684426171873838
                },
                {
                    "name": "D5",
                    "midi": 74,
                    "time": 176.94152114453058,
                    "velocity": 0.6299212598425197,
                    "duration": 0.08684426171873838
                },
                {
                    "name": "C#5",
                    "midi": 73,
                    "time": 177.0194717167962,
                    "velocity": 0.5905511811023622,
                    "duration": 0.5697192832031419
                },
                {
                    "name": "A2",
                    "midi": 45,
                    "time": 177.07440332812433,
                    "velocity": 0.9763779527559056,
                    "duration": 0.2416990898437632
                },
                {
                    "name": "A2",
                    "midi": 45,
                    "time": 177.33755190429622,
                    "velocity": 0.9763779527559056,
                    "duration": 0.2390832988281204
                },
                {
                    "name": "B4",
                    "midi": 71,
                    "time": 177.59808468945246,
                    "velocity": 0.9763779527559056,
                    "duration": 0.2390832988281204
                },
                {
                    "name": "A2",
                    "midi": 45,
                    "time": 177.59808468945246,
                    "velocity": 0.9763779527559056,
                    "duration": 0.2390832988281204
                },
                {
                    "name": "A4",
                    "midi": 69,
                    "time": 177.8586174746087,
                    "velocity": 0.9763779527559056,
                    "duration": 0.5336213671875214
                },
                {
                    "name": "A2",
                    "midi": 45,
                    "time": 177.8586174746087,
                    "velocity": 0.9763779527559056,
                    "duration": 0.24222224804688608
                },
                {
                    "name": "A2",
                    "midi": 45,
                    "time": 178.12228920898372,
                    "velocity": 0.9763779527559056,
                    "duration": 0.24902330468751188
                },
                {
                    "name": "A2",
                    "midi": 45,
                    "time": 178.39276199999935,
                    "velocity": 1,
                    "duration": 0.07899688867186683
                },
                {
                    "name": "C#3",
                    "midi": 49,
                    "time": 178.47803678710872,
                    "velocity": 0.9763779527559056,
                    "duration": 0.06434845898436947
                },
                {
                    "name": "E3",
                    "midi": 52,
                    "time": 178.5486631445306,
                    "velocity": 0.9763779527559056,
                    "duration": 0.06016319335938647
                },
                {
                    "name": "A3",
                    "midi": 57,
                    "time": 178.61510423632748,
                    "velocity": 0.9763779527559056,
                    "duration": 0.06016319335938647
                },
                {
                    "name": "E4",
                    "midi": 64,
                    "time": 178.68154532812437,
                    "velocity": 0.8818897637795275,
                    "duration": 0.2416990898437632
                },
                {
                    "name": "E4",
                    "midi": 64,
                    "time": 178.94469390429626,
                    "velocity": 0.8818897637795275,
                    "duration": 0.2390832988281204
                },
                {
                    "name": "E4",
                    "midi": 64,
                    "time": 179.2052266894525,
                    "velocity": 0.8818897637795275,
                    "duration": 0.2390832988281204
                },
                {
                    "name": "E4",
                    "midi": 64,
                    "time": 179.46575947460875,
                    "velocity": 0.8818897637795275,
                    "duration": 0.24222224804688608
                },
                {
                    "name": "E4",
                    "midi": 64,
                    "time": 179.72943120898375,
                    "velocity": 0.8818897637795275,
                    "duration": 0.24902330468751188
                },
                {
                    "name": "E4",
                    "midi": 64,
                    "time": 179.9999039999994,
                    "velocity": 1,
                    "duration": 0.07899688867186683
                },
                {
                    "name": "G4",
                    "midi": 67,
                    "time": 180.08517878710876,
                    "velocity": 0.9763779527559056,
                    "duration": 0.06434845898436947
                },
                {
                    "name": "A4",
                    "midi": 69,
                    "time": 180.15580514453063,
                    "velocity": 0.9763779527559056,
                    "duration": 0.06016319335938647
                },
                {
                    "name": "C#5",
                    "midi": 73,
                    "time": 180.22224623632752,
                    "velocity": 0.9763779527559056,
                    "duration": 0.06016319335938647
                },
                {
                    "name": "A2",
                    "midi": 45,
                    "time": 180.2886873281244,
                    "velocity": 0.8818897637795275,
                    "duration": 0.2416990898437632
                },
                {
                    "name": "A2",
                    "midi": 45,
                    "time": 180.5518359042963,
                    "velocity": 0.8818897637795275,
                    "duration": 0.2390832988281204
                },
                {
                    "name": "A2",
                    "midi": 45,
                    "time": 180.81236868945254,
                    "velocity": 0.8818897637795275,
                    "duration": 0.2390832988281204
                },
                {
                    "name": "A2",
                    "midi": 45,
                    "time": 181.07290147460878,
                    "velocity": 0.8818897637795275,
                    "duration": 0.24222224804688608
                },
                {
                    "name": "A2",
                    "midi": 45,
                    "time": 181.3365732089838,
                    "velocity": 0.8818897637795275,
                    "duration": 0.24902330468751188
                },
                {
                    "name": "A2",
                    "midi": 45,
                    "time": 181.60704599999943,
                    "velocity": 1,
                    "duration": 0.0638253007812466
                },
                {
                    "name": "C#3",
                    "midi": 49,
                    "time": 181.67610288281193,
                    "velocity": 0.9763779527559056,
                    "duration": 0.05493161132812929
                },
                {
                    "name": "E3",
                    "midi": 52,
                    "time": 181.73626607617132,
                    "velocity": 0.9763779527559056,
                    "duration": 0.04813055468750349
                },
                {
                    "name": "A3",
                    "midi": 57,
                    "time": 181.78962821289008,
                    "velocity": 0.9763779527559056,
                    "duration": 0.04813055468750349
                },
                {
                    "name": "C#4",
                    "midi": 61,
                    "time": 181.84299034960884,
                    "velocity": 0.9763779527559056,
                    "duration": 0.047607396484380615
                },
                {
                    "name": "G4",
                    "midi": 67,
                    "time": 181.89582932812448,
                    "velocity": 0.8818897637795275,
                    "duration": 0.2416990898437632
                },
                {
                    "name": "G4",
                    "midi": 67,
                    "time": 182.15897790429636,
                    "velocity": 0.8818897637795275,
                    "duration": 0.2390832988281204
                },
                {
                    "name": "G4",
                    "midi": 67,
                    "time": 182.4195106894526,
                    "velocity": 0.8818897637795275,
                    "duration": 0.2390832988281204
                },
                {
                    "name": "G4",
                    "midi": 67,
                    "time": 182.68004347460885,
                    "velocity": 0.8818897637795275,
                    "duration": 0.24222224804688608
                },
                {
                    "name": "G4",
                    "midi": 67,
                    "time": 182.94371520898386,
                    "velocity": 0.8818897637795275,
                    "duration": 0.24902330468751188
                },
                {
                    "name": "G4",
                    "midi": 67,
                    "time": 183.2141879999995,
                    "velocity": 1,
                    "duration": 0.10306216601563278
                },
                {
                    "name": "A4",
                    "midi": 69,
                    "time": 183.325097539062,
                    "velocity": 0.9763779527559056,
                    "duration": 0.08161267968750963
                },
                {
                    "name": "C#5",
                    "midi": 73,
                    "time": 183.41455759179638,
                    "velocity": 0.9763779527559056,
                    "duration": 0.08056636328126388
                },
                {
                    "name": "E5",
                    "midi": 76,
                    "time": 183.50297132812452,
                    "velocity": 0.9763779527559056,
                    "duration": 2.4515193398437987
                },
                {
                    "name": "A2",
                    "midi": 45,
                    "time": 183.50297132812452,
                    "velocity": 0.8818897637795275,
                    "duration": 0.2416990898437632
                },
                {
                    "name": "A2",
                    "midi": 45,
                    "time": 183.7661199042964,
                    "velocity": 0.8818897637795275,
                    "duration": 0.2390832988281204
                },
                {
                    "name": "A2",
                    "midi": 45,
                    "time": 184.02665268945265,
                    "velocity": 0.8818897637795275,
                    "duration": 0.2390832988281204
                },
                {
                    "name": "A2",
                    "midi": 45,
                    "time": 184.2871854746089,
                    "velocity": 0.8818897637795275,
                    "duration": 0.24222224804688608
                },
                {
                    "name": "A2",
                    "midi": 45,
                    "time": 184.5508572089839,
                    "velocity": 0.8818897637795275,
                    "duration": 0.24902330468751188
                },
                {
                    "name": "A2",
                    "midi": 45,
                    "time": 184.82132999999953,
                    "velocity": 1,
                    "duration": 0.08946005273438118
                },
                {
                    "name": "C#3",
                    "midi": 49,
                    "time": 184.91759110937454,
                    "velocity": 0.9763779527559056,
                    "duration": 0.07219583203124103
                },
                {
                    "name": "E3",
                    "midi": 52,
                    "time": 184.9965879980464,
                    "velocity": 0.9763779527559056,
                    "duration": 0.06905688281250377
                },
                {
                    "name": "A3",
                    "midi": 57,
                    "time": 185.07244593749954,
                    "velocity": 0.9763779527559056,
                    "duration": 0.0685337246093809
                },
                {
                    "name": "C#4",
                    "midi": 61,
                    "time": 185.14778071874954,
                    "velocity": 0.9763779527559056,
                    "duration": 0.0685337246093809
                },
                {
                    "name": "E4",
                    "midi": 64,
                    "time": 185.22311549999955,
                    "velocity": 0.9763779527559056,
                    "duration": 0.0685337246093809
                },
                {
                    "name": "G4",
                    "midi": 67,
                    "time": 185.29845028124956,
                    "velocity": 0.9763779527559056,
                    "duration": 0.8590257695313142
                },
                {
                    "name": "D5",
                    "midi": 74,
                    "time": 185.9602454082027,
                    "velocity": 0.9763779527559056,
                    "duration": 0.06016319335938647
                },
                {
                    "name": "C#5",
                    "midi": 73,
                    "time": 186.02616334179646,
                    "velocity": 0.9763779527559056,
                    "duration": 0.06016319335938647
                },
                {
                    "name": "B4",
                    "midi": 71,
                    "time": 186.09208127539023,
                    "velocity": 0.9763779527559056,
                    "duration": 0.06016319335938647
                },
                {
                    "name": "A4",
                    "midi": 69,
                    "time": 186.157999208984,
                    "velocity": 0.9763779527559056,
                    "duration": 0.060686351562509344
                },
                {
                    "name": "C#4",
                    "midi": 61,
                    "time": 186.157999208984,
                    "velocity": 0.9763779527559056,
                    "duration": 0.2490233046875403
                },
                {
                    "name": "G4",
                    "midi": 67,
                    "time": 186.22444030078088,
                    "velocity": 0.9763779527559056,
                    "duration": 0.060686351562509344
                },
                {
                    "name": "F4",
                    "midi": 65,
                    "time": 186.29088139257777,
                    "velocity": 0.9763779527559056,
                    "duration": 0.061732667968755095
                },
                {
                    "name": "E4",
                    "midi": 64,
                    "time": 186.3583688007809,
                    "velocity": 0.9763779527559056,
                    "duration": 0.06434845898436947
                },
                {
                    "name": "F4",
                    "midi": 65,
                    "time": 186.42847199999966,
                    "velocity": 1,
                    "duration": 0.8119415312499996
                },
                {
                    "name": "D4",
                    "midi": 62,
                    "time": 186.42847199999966,
                    "velocity": 1,
                    "duration": 0.26733384179686936
                },
                {
                    "name": "A4",
                    "midi": 69,
                    "time": 186.71725532812465,
                    "velocity": 0.9763779527559056,
                    "duration": 0.2416990898437632
                },
                {
                    "name": "C4",
                    "midi": 60,
                    "time": 186.71725532812465,
                    "velocity": 0.9763779527559056,
                    "duration": 0.2416990898437632
                },
                {
                    "name": "D5",
                    "midi": 74,
                    "time": 186.98040390429654,
                    "velocity": 0.9763779527559056,
                    "duration": 0.7842141464843735
                },
                {
                    "name": "A#3",
                    "midi": 58,
                    "time": 186.98040390429654,
                    "velocity": 0.9763779527559056,
                    "duration": 0.2390832988281204
                },
                {
                    "name": "F4",
                    "midi": 65,
                    "time": 187.24093668945278,
                    "velocity": 0.9763779527559056,
                    "duration": 0.2390832988281204
                },
                {
                    "name": "A3",
                    "midi": 57,
                    "time": 187.24093668945278,
                    "velocity": 0.9763779527559056,
                    "duration": 0.2390832988281204
                },
                {
                    "name": "E4",
                    "midi": 64,
                    "time": 187.50146947460902,
                    "velocity": 0.9763779527559056,
                    "duration": 0.24222224804688608
                },
                {
                    "name": "G3",
                    "midi": 55,
                    "time": 187.50146947460902,
                    "velocity": 0.9763779527559056,
                    "duration": 0.24222224804688608
                },
                {
                    "name": "G4",
                    "midi": 67,
                    "time": 187.76514120898403,
                    "velocity": 0.9763779527559056,
                    "duration": 0.24902330468748346
                },
                {
                    "name": "A3",
                    "midi": 57,
                    "time": 187.76514120898403,
                    "velocity": 0.9763779527559056,
                    "duration": 0.24902330468748346
                },
                {
                    "name": "D5",
                    "midi": 74,
                    "time": 187.76775699999965,
                    "velocity": 0.9763779527559056,
                    "duration": 0.0706263574218724
                },
                {
                    "name": "C#5",
                    "midi": 73,
                    "time": 187.83105914257777,
                    "velocity": 0.9763779527559056,
                    "duration": 0.0706263574218724
                },
                {
                    "name": "D5",
                    "midi": 74,
                    "time": 187.8943612851559,
                    "velocity": 0.9763779527559056,
                    "duration": 0.0706263574218724
                },
                {
                    "name": "C#5",
                    "midi": 73,
                    "time": 187.95766342773402,
                    "velocity": 0.937007874015748,
                    "duration": 0.07219583203124103
                },
                {
                    "name": "C#5",
                    "midi": 73,
                    "time": 188.03561399999964,
                    "velocity": 0.9763779527559056,
                    "duration": 0.5780898144531363
                },
                {
                    "name": "G4",
                    "midi": 67,
                    "time": 188.03561399999964,
                    "velocity": 1,
                    "duration": 0.6706888164062548
                },
                {
                    "name": "D3",
                    "midi": 50,
                    "time": 188.03561399999964,
                    "velocity": 0.9763779527559056,
                    "duration": 1.1938470195312902
                },
                {
                    "name": "D5",
                    "midi": 74,
                    "time": 188.58754590429652,
                    "velocity": 0.937007874015748,
                    "duration": 1.054686937500037
                },
                {
                    "name": "A4",
                    "midi": 69,
                    "time": 188.71781229687465,
                    "velocity": 0.9763779527559056,
                    "duration": 0.924420544921901
                },
                {
                    "name": "F#4",
                    "midi": 66,
                    "time": 188.8480786894528,
                    "velocity": 0.9133858267716536,
                    "duration": 0.794154152343765
                },
                {
                    "name": "D4",
                    "midi": 62,
                    "time": 188.97834508203093,
                    "velocity": 1,
                    "duration": 0.663887759765629
                },
                {
                    "name": "A2",
                    "midi": 45,
                    "time": 189.24044734179657,
                    "velocity": 0.9763779527559056,
                    "duration": 0.12084954492186739
                },
                {
                    "name": "F#2",
                    "midi": 42,
                    "time": 189.37228320898407,
                    "velocity": 0.968503937007874,
                    "duration": 0.12189586132811314
                },
                {
                    "name": "D2",
                    "midi": 38,
                    "time": 189.50516539257782,
                    "velocity": 0.9606299212598425,
                    "duration": 0.12660428515624744
                },
                {
                    "name": "D4",
                    "midi": 62,
                    "time": 189.93153932812467,
                    "velocity": 0.8818897637795275,
                    "duration": 0.2416990898437632
                },
                {
                    "name": "D4",
                    "midi": 62,
                    "time": 190.19468790429656,
                    "velocity": 0.8818897637795275,
                    "duration": 0.2390832988281204
                },
                {
                    "name": "D4",
                    "midi": 62,
                    "time": 190.4552206894528,
                    "velocity": 0.8818897637795275,
                    "duration": 0.2390832988281204
                },
                {
                    "name": "D4",
                    "midi": 62,
                    "time": 190.71575347460904,
                    "velocity": 0.8818897637795275,
                    "duration": 0.24222224804688608
                },
                {
                    "name": "D4",
                    "midi": 62,
                    "time": 190.97942520898405,
                    "velocity": 0.8818897637795275,
                    "duration": 0.24902330468751188
                },
                {
                    "name": "D4",
                    "midi": 62,
                    "time": 191.2498979999997,
                    "velocity": 1,
                    "duration": 0.07899688867186683
                },
                {
                    "name": "F4",
                    "midi": 65,
                    "time": 191.33517278710906,
                    "velocity": 0.9763779527559056,
                    "duration": 0.06434845898436947
                },
                {
                    "name": "A4",
                    "midi": 69,
                    "time": 191.40579914453093,
                    "velocity": 0.9763779527559056,
                    "duration": 0.12137270312499027
                },
                {
                    "name": "D4",
                    "midi": 62,
                    "time": 191.53868132812468,
                    "velocity": 0.8818897637795275,
                    "duration": 0.2416990898437632
                },
                {
                    "name": "D4",
                    "midi": 62,
                    "time": 191.80182990429657,
                    "velocity": 0.8818897637795275,
                    "duration": 0.2390832988281204
                },
                {
                    "name": "D4",
                    "midi": 62,
                    "time": 192.0623626894528,
                    "velocity": 0.8818897637795275,
                    "duration": 0.2390832988281204
                },
                {
                    "name": "D4",
                    "midi": 62,
                    "time": 192.32289547460906,
                    "velocity": 0.8818897637795275,
                    "duration": 0.24222224804688608
                },
                {
                    "name": "D4",
                    "midi": 62,
                    "time": 192.58656720898406,
                    "velocity": 0.8818897637795275,
                    "duration": 0.24902330468751188
                },
                {
                    "name": "D4",
                    "midi": 62,
                    "time": 192.8570399999997,
                    "velocity": 1,
                    "duration": 0.07899688867186683
                },
                {
                    "name": "F4",
                    "midi": 65,
                    "time": 192.94231478710907,
                    "velocity": 0.9763779527559056,
                    "duration": 0.06434845898436947
                },
                {
                    "name": "A4",
                    "midi": 69,
                    "time": 193.01294114453094,
                    "velocity": 0.9763779527559056,
                    "duration": 0.06016319335938647
                },
                {
                    "name": "D5",
                    "midi": 74,
                    "time": 193.07938223632783,
                    "velocity": 0.9763779527559056,
                    "duration": 0.06016319335938647
                },
                {
                    "name": "F4",
                    "midi": 65,
                    "time": 193.14582332812472,
                    "velocity": 0.8818897637795275,
                    "duration": 0.2416990898437632
                },
                {
                    "name": "F3",
                    "midi": 53,
                    "time": 193.14582332812472,
                    "velocity": 0.8188976377952756,
                    "duration": 0.2416990898437632
                },
                {
                    "name": "A3",
                    "midi": 57,
                    "time": 193.14582332812472,
                    "velocity": 0.8976377952755905,
                    "duration": 0.2416990898437632
                },
                {
                    "name": "D3",
                    "midi": 50,
                    "time": 193.14582332812472,
                    "velocity": 0.8818897637795275,
                    "duration": 0.2416990898437632
                },
                {
                    "name": "F4",
                    "midi": 65,
                    "time": 193.4089719042966,
                    "velocity": 0.8818897637795275,
                    "duration": 0.2390832988281204
                },
                {
                    "name": "F3",
                    "midi": 53,
                    "time": 193.4089719042966,
                    "velocity": 0.8188976377952756,
                    "duration": 0.2390832988281204
                },
                {
                    "name": "A3",
                    "midi": 57,
                    "time": 193.4089719042966,
                    "velocity": 0.8976377952755905,
                    "duration": 0.2390832988281204
                },
                {
                    "name": "D3",
                    "midi": 50,
                    "time": 193.4089719042966,
                    "velocity": 0.8818897637795275,
                    "duration": 0.2390832988281204
                },
                {
                    "name": "F4",
                    "midi": 65,
                    "time": 193.66950468945285,
                    "velocity": 0.8818897637795275,
                    "duration": 0.2390832988281204
                },
                {
                    "name": "F3",
                    "midi": 53,
                    "time": 193.66950468945285,
                    "velocity": 0.8188976377952756,
                    "duration": 0.2390832988281204
                },
                {
                    "name": "A3",
                    "midi": 57,
                    "time": 193.66950468945285,
                    "velocity": 0.8976377952755905,
                    "duration": 0.2390832988281204
                },
                {
                    "name": "D3",
                    "midi": 50,
                    "time": 193.66950468945285,
                    "velocity": 0.8818897637795275,
                    "duration": 0.2390832988281204
                },
                {
                    "name": "F4",
                    "midi": 65,
                    "time": 193.9300374746091,
                    "velocity": 0.8818897637795275,
                    "duration": 0.24222224804688608
                },
                {
                    "name": "F3",
                    "midi": 53,
                    "time": 193.9300374746091,
                    "velocity": 0.8188976377952756,
                    "duration": 0.24222224804688608
                },
                {
                    "name": "A3",
                    "midi": 57,
                    "time": 193.9300374746091,
                    "velocity": 0.8976377952755905,
                    "duration": 0.24222224804688608
                },
                {
                    "name": "D3",
                    "midi": 50,
                    "time": 193.9300374746091,
                    "velocity": 0.8818897637795275,
                    "duration": 0.24222224804688608
                },
                {
                    "name": "F4",
                    "midi": 65,
                    "time": 194.1937092089841,
                    "velocity": 0.8818897637795275,
                    "duration": 0.2804127968749981
                },
                {
                    "name": "F3",
                    "midi": 53,
                    "time": 194.1937092089841,
                    "velocity": 0.8188976377952756,
                    "duration": 0.24902330468751188
                },
                {
                    "name": "A3",
                    "midi": 57,
                    "time": 194.1937092089841,
                    "velocity": 0.8976377952755905,
                    "duration": 0.24902330468751188
                },
                {
                    "name": "D3",
                    "midi": 50,
                    "time": 194.1937092089841,
                    "velocity": 0.8818897637795275,
                    "duration": 0.24902330468751188
                },
                {
                    "name": "A4",
                    "midi": 69,
                    "time": 194.46418199999974,
                    "velocity": 1,
                    "duration": 0.07899688867186683
                },
                {
                    "name": "F3",
                    "midi": 53,
                    "time": 194.46418199999974,
                    "velocity": 0.8503937007874016,
                    "duration": 0.26733384179686936
                },
                {
                    "name": "A3",
                    "midi": 57,
                    "time": 194.46418199999974,
                    "velocity": 0.9291338582677166,
                    "duration": 0.26733384179686936
                },
                {
                    "name": "D3",
                    "midi": 50,
                    "time": 194.46418199999974,
                    "velocity": 0.9133858267716536,
                    "duration": 0.26733384179686936
                },
                {
                    "name": "D5",
                    "midi": 74,
                    "time": 194.5494567871091,
                    "velocity": 0.9763779527559056,
                    "duration": 0.06434845898436947
                },
                {
                    "name": "F5",
                    "midi": 77,
                    "time": 194.62008314453098,
                    "velocity": 0.9763779527559056,
                    "duration": 0.06016319335938647
                },
                {
                    "name": "A5",
                    "midi": 81,
                    "time": 194.68652423632787,
                    "velocity": 0.9763779527559056,
                    "duration": 0.06016319335935805
                },
                {
                    "name": "A4",
                    "midi": 69,
                    "time": 194.75296532812473,
                    "velocity": 0.8818897637795275,
                    "duration": 0.2416990898437632
                },
                {
                    "name": "F3",
                    "midi": 53,
                    "time": 194.75296532812473,
                    "velocity": 0.8188976377952756,
                    "duration": 0.2416990898437632
                },
                {
                    "name": "A3",
                    "midi": 57,
                    "time": 194.75296532812473,
                    "velocity": 0.8976377952755905,
                    "duration": 0.2416990898437632
                },
                {
                    "name": "D3",
                    "midi": 50,
                    "time": 194.75296532812473,
                    "velocity": 0.8818897637795275,
                    "duration": 0.2416990898437632
                },
                {
                    "name": "A4",
                    "midi": 69,
                    "time": 195.01611390429662,
                    "velocity": 0.8818897637795275,
                    "duration": 0.2390832988281204
                },
                {
                    "name": "F3",
                    "midi": 53,
                    "time": 195.01611390429662,
                    "velocity": 0.8188976377952756,
                    "duration": 0.2390832988281204
                },
                {
                    "name": "A3",
                    "midi": 57,
                    "time": 195.01611390429662,
                    "velocity": 0.8976377952755905,
                    "duration": 0.2390832988281204
                },
                {
                    "name": "D3",
                    "midi": 50,
                    "time": 195.01611390429662,
                    "velocity": 0.8818897637795275,
                    "duration": 0.2390832988281204
                },
                {
                    "name": "A4",
                    "midi": 69,
                    "time": 195.27664668945286,
                    "velocity": 0.8818897637795275,
                    "duration": 0.2390832988281204
                },
                {
                    "name": "F3",
                    "midi": 53,
                    "time": 195.27664668945286,
                    "velocity": 0.8188976377952756,
                    "duration": 0.2390832988281204
                },
                {
                    "name": "A3",
                    "midi": 57,
                    "time": 195.27664668945286,
                    "velocity": 0.8976377952755905,
                    "duration": 0.2390832988281204
                },
                {
                    "name": "D3",
                    "midi": 50,
                    "time": 195.27664668945286,
                    "velocity": 0.8818897637795275,
                    "duration": 0.2390832988281204
                },
                {
                    "name": "A4",
                    "midi": 69,
                    "time": 195.5371794746091,
                    "velocity": 0.8818897637795275,
                    "duration": 0.24222224804688608
                },
                {
                    "name": "F3",
                    "midi": 53,
                    "time": 195.5371794746091,
                    "velocity": 0.8188976377952756,
                    "duration": 0.24222224804688608
                },
                {
                    "name": "A3",
                    "midi": 57,
                    "time": 195.5371794746091,
                    "velocity": 0.8976377952755905,
                    "duration": 0.24222224804688608
                },
                {
                    "name": "D3",
                    "midi": 50,
                    "time": 195.5371794746091,
                    "velocity": 0.8818897637795275,
                    "duration": 0.24222224804688608
                },
                {
                    "name": "A4",
                    "midi": 69,
                    "time": 195.8008512089841,
                    "velocity": 0.8818897637795275,
                    "duration": 0.2804127968749981
                },
                {
                    "name": "F3",
                    "midi": 53,
                    "time": 195.8008512089841,
                    "velocity": 0.8188976377952756,
                    "duration": 0.2804127968749981
                },
                {
                    "name": "A3",
                    "midi": 57,
                    "time": 195.8008512089841,
                    "velocity": 0.8976377952755905,
                    "duration": 0.24902330468751188
                },
                {
                    "name": "D3",
                    "midi": 50,
                    "time": 195.8008512089841,
                    "velocity": 0.8818897637795275,
                    "duration": 0.2804127968749981
                },
                {
                    "name": "D5",
                    "midi": 74,
                    "time": 196.07132399999975,
                    "velocity": 1,
                    "duration": 0.10306216601560436
                },
                {
                    "name": "D3",
                    "midi": 50,
                    "time": 196.07132399999975,
                    "velocity": 1,
                    "duration": 0.10306216601560436
                },
                {
                    "name": "F5",
                    "midi": 77,
                    "time": 196.18223353906222,
                    "velocity": 0.9763779527559056,
                    "duration": 0.08161267968750963
                },
                {
                    "name": "A2",
                    "midi": 45,
                    "time": 196.18223353906222,
                    "velocity": 0.9763779527559056,
                    "duration": 0.08161267968750963
                },
                {
                    "name": "A5",
                    "midi": 81,
                    "time": 196.2716935917966,
                    "velocity": 0.9763779527559056,
                    "duration": 0.08056636328126388
                },
                {
                    "name": "F2",
                    "midi": 41,
                    "time": 196.2716935917966,
                    "velocity": 0.968503937007874,
                    "duration": 0.08056636328126388
                },
                {
                    "name": "D6",
                    "midi": 86,
                    "time": 196.36010732812474,
                    "velocity": 0.9763779527559056,
                    "duration": 0.9050636914062409
                },
                {
                    "name": "D2",
                    "midi": 38,
                    "time": 196.36010732812474,
                    "velocity": 0.9606299212598425,
                    "duration": 1.0473627226562314
                },
                {
                    "name": "C6",
                    "midi": 84,
                    "time": 197.27615734179662,
                    "velocity": 0.9763779527559056,
                    "duration": 0.12084954492186739
                },
                {
                    "name": "A#5",
                    "midi": 82,
                    "time": 197.4079932089841,
                    "velocity": 0.9763779527559056,
                    "duration": 0.12189586132811314
                },
                {
                    "name": "D4",
                    "midi": 62,
                    "time": 197.4079932089841,
                    "velocity": 0.9763779527559056,
                    "duration": 0.24902330468751188
                },
                {
                    "name": "A5",
                    "midi": 81,
                    "time": 197.54087539257785,
                    "velocity": 0.9763779527559056,
                    "duration": 0.12660428515624744
                },
                {
                    "name": "A#5",
                    "midi": 82,
                    "time": 197.67846599999973,
                    "velocity": 1,
                    "duration": 0.14439166406251047
                },
                {
                    "name": "G4",
                    "midi": 67,
                    "time": 197.67846599999973,
                    "velocity": 1,
                    "duration": 0.2673338417968978
                },
                {
                    "name": "C6",
                    "midi": 84,
                    "time": 197.834367144531,
                    "velocity": 0.9763779527559056,
                    "duration": 0.12137270312499027
                },
                {
                    "name": "A5",
                    "midi": 81,
                    "time": 197.96724932812475,
                    "velocity": 0.9763779527559056,
                    "duration": 0.12032638671874452
                },
                {
                    "name": "A4",
                    "midi": 69,
                    "time": 197.96724932812475,
                    "velocity": 0.9763779527559056,
                    "duration": 0.2416990898437632
                },
                {
                    "name": "A#5",
                    "midi": 82,
                    "time": 198.09908519531226,
                    "velocity": 0.9763779527559056,
                    "duration": 0.11980322851562164
                },
                {
                    "name": "G5",
                    "midi": 79,
                    "time": 198.23039790429664,
                    "velocity": 0.9763779527559056,
                    "duration": 0.11875691210937589
                },
                {
                    "name": "A#4",
                    "midi": 70,
                    "time": 198.23039790429664,
                    "velocity": 0.9763779527559056,
                    "duration": 0.7842141464844019
                },
                {
                    "name": "A5",
                    "midi": 81,
                    "time": 198.36066429687477,
                    "velocity": 0.9763779527559056,
                    "duration": 0.11928007031249876
                },
                {
                    "name": "F5",
                    "midi": 77,
                    "time": 198.4909306894529,
                    "velocity": 0.9763779527559056,
                    "duration": 0.11928007031249876
                },
                {
                    "name": "G5",
                    "midi": 79,
                    "time": 198.62119708203105,
                    "velocity": 0.9763779527559056,
                    "duration": 0.11928007031249876
                },
                {
                    "name": "E5",
                    "midi": 76,
                    "time": 198.75146347460918,
                    "velocity": 0.9763779527559056,
                    "duration": 0.12084954492186739
                },
                {
                    "name": "F5",
                    "midi": 77,
                    "time": 198.8832993417967,
                    "velocity": 0.9763779527559056,
                    "duration": 0.12084954492186739
                },
                {
                    "name": "D5",
                    "midi": 74,
                    "time": 199.01513520898416,
                    "velocity": 0.9763779527559056,
                    "duration": 0.12189586132811314
                },
                {
                    "name": "G4",
                    "midi": 67,
                    "time": 199.01513520898416,
                    "velocity": 0.9763779527559056,
                    "duration": 0.24902330468751188
                },
                {
                    "name": "E5",
                    "midi": 76,
                    "time": 199.1480173925779,
                    "velocity": 0.9763779527559056,
                    "duration": 0.12660428515624744
                },
                {
                    "name": "C#5",
                    "midi": 73,
                    "time": 199.2856079999998,
                    "velocity": 1,
                    "duration": 0.14439166406251047
                },
                {
                    "name": "A4",
                    "midi": 69,
                    "time": 199.2856079999998,
                    "velocity": 1,
                    "duration": 0.2673338417968978
                },
                {
                    "name": "D5",
                    "midi": 74,
                    "time": 199.44150914453107,
                    "velocity": 0.9763779527559056,
                    "duration": 0.12137270312499027
                },
                {
                    "name": "B4",
                    "midi": 71,
                    "time": 199.57439132812482,
                    "velocity": 0.9763779527559056,
                    "duration": 0.12032638671874452
                },
                {
                    "name": "E4",
                    "midi": 64,
                    "time": 199.57439132812482,
                    "velocity": 0.9763779527559056,
                    "duration": 0.2416990898437632
                },
                {
                    "name": "C#5",
                    "midi": 73,
                    "time": 199.70622719531232,
                    "velocity": 0.9763779527559056,
                    "duration": 0.11980322851562164
                },
                {
                    "name": "A4",
                    "midi": 69,
                    "time": 199.8375399042967,
                    "velocity": 0.9763779527559056,
                    "duration": 0.11875691210937589
                },
                {
                    "name": "C#4",
                    "midi": 61,
                    "time": 199.8375399042967,
                    "velocity": 0.9763779527559056,
                    "duration": 0.7842141464844019
                },
                {
                    "name": "A#4",
                    "midi": 70,
                    "time": 199.96780629687484,
                    "velocity": 0.9763779527559056,
                    "duration": 0.11928007031249876
                },
                {
                    "name": "G4",
                    "midi": 67,
                    "time": 200.09807268945298,
                    "velocity": 0.9763779527559056,
                    "duration": 0.11928007031249876
                },
                {
                    "name": "A4",
                    "midi": 69,
                    "time": 200.2283390820311,
                    "velocity": 0.9763779527559056,
                    "duration": 0.11928007031249876
                },
                {
                    "name": "F4",
                    "midi": 65,
                    "time": 200.35860547460925,
                    "velocity": 0.9763779527559056,
                    "duration": 0.12084954492186739
                },
                {
                    "name": "G4",
                    "midi": 67,
                    "time": 200.49044134179675,
                    "velocity": 0.9763779527559056,
                    "duration": 0.12084954492186739
                },
                {
                    "name": "E4",
                    "midi": 64,
                    "time": 200.62227720898423,
                    "velocity": 0.9763779527559056,
                    "duration": 0.12189586132811314
                },
                {
                    "name": "A3",
                    "midi": 57,
                    "time": 200.62227720898423,
                    "velocity": 0.9763779527559056,
                    "duration": 0.24902330468751188
                },
                {
                    "name": "G4",
                    "midi": 67,
                    "time": 200.75515939257798,
                    "velocity": 0.9763779527559056,
                    "duration": 0.12660428515624744
                },
                {
                    "name": "G4",
                    "midi": 67,
                    "time": 200.89274999999986,
                    "velocity": 1,
                    "duration": 0.0706263574218724
                },
                {
                    "name": "D4",
                    "midi": 62,
                    "time": 200.89274999999986,
                    "velocity": 1,
                    "duration": 0.26733384179686936
                },
                {
                    "name": "F4",
                    "midi": 65,
                    "time": 200.956052142578,
                    "velocity": 0.9763779527559056,
                    "duration": 0.0706263574218724
                },
                {
                    "name": "G4",
                    "midi": 67,
                    "time": 201.0193542851561,
                    "velocity": 0.9763779527559056,
                    "duration": 0.0706263574218724
                },
                {
                    "name": "F4",
                    "midi": 65,
                    "time": 201.08265642773424,
                    "velocity": 0.937007874015748,
                    "duration": 0.07219583203124103
                },
                {
                    "name": "E4",
                    "midi": 64,
                    "time": 201.18153332812486,
                    "velocity": 0.9763779527559056,
                    "duration": 0.2416990898437632
                },
                {
                    "name": "C#4",
                    "midi": 61,
                    "time": 201.18153332812486,
                    "velocity": 0.9763779527559056,
                    "duration": 0.2416990898437632
                },
                {
                    "name": "F4",
                    "midi": 65,
                    "time": 201.42846399999988,
                    "velocity": 0.9763779527559056,
                    "duration": 0.09626110937497856
                },
                {
                    "name": "D4",
                    "midi": 62,
                    "time": 201.44468190429674,
                    "velocity": 0.9763779527559056,
                    "duration": 0.23908329882809198
                },
                {
                    "name": "E4",
                    "midi": 64,
                    "time": 201.5147851035155,
                    "velocity": 0.9763779527559056,
                    "duration": 0.09626110937497856
                },
                {
                    "name": "F4",
                    "midi": 65,
                    "time": 201.6011062070311,
                    "velocity": 0.937007874015748,
                    "duration": 0.08789057812498413
                },
                {
                    "name": "E4",
                    "midi": 64,
                    "time": 201.70521468945296,
                    "velocity": 0.9763779527559056,
                    "duration": 0.2390832988281204
                },
                {
                    "name": "C#4",
                    "midi": 61,
                    "time": 201.70521468945296,
                    "velocity": 0.9763779527559056,
                    "duration": 0.2390832988281204
                },
                {
                    "name": "F4",
                    "midi": 65,
                    "time": 201.96417799999983,
                    "velocity": 0.9763779527559056,
                    "duration": 0.09626110937497856
                },
                {
                    "name": "D4",
                    "midi": 62,
                    "time": 201.9657474746092,
                    "velocity": 0.9763779527559056,
                    "duration": 0.24222224804685766
                },
                {
                    "name": "E4",
                    "midi": 64,
                    "time": 202.05049910351545,
                    "velocity": 0.9763779527559056,
                    "duration": 0.09626110937497856
                },
                {
                    "name": "F4",
                    "midi": 65,
                    "time": 202.13682020703106,
                    "velocity": 0.937007874015748,
                    "duration": 0.08789057812498413
                },
                {
                    "name": "A#3",
                    "midi": 58,
                    "time": 202.22941920898418,
                    "velocity": 0.9763779527559056,
                    "duration": 0.24902330468748346
                },
                {
                    "name": "A4",
                    "midi": 69,
                    "time": 202.2320349999998,
                    "velocity": 0.9763779527559056,
                    "duration": 0.016741062499988857
                },
                {
                    "name": "G4",
                    "midi": 67,
                    "time": 202.29533714257792,
                    "velocity": 0.9763779527559056,
                    "duration": 0.016741062499988857
                },
                {
                    "name": "A4",
                    "midi": 69,
                    "time": 202.35863928515604,
                    "velocity": 0.9763779527559056,
                    "duration": 0.016741062499988857
                },
                {
                    "name": "G4",
                    "midi": 67,
                    "time": 202.42194142773417,
                    "velocity": 0.937007874015748,
                    "duration": 0.016741062499988857
                },
                {
                    "name": "E4",
                    "midi": 64,
                    "time": 202.4998919999998,
                    "velocity": 0.9133858267716536,
                    "duration": 1.6066188417968874
                },
                {
                    "name": "A4",
                    "midi": 69,
                    "time": 202.4998919999998,
                    "velocity": 1,
                    "duration": 1.6066188417968874
                },
                {
                    "name": "C#4",
                    "midi": 61,
                    "time": 202.4998919999998,
                    "velocity": 0.9763779527559056,
                    "duration": 1.6066188417968874
                },
                {
                    "name": "A3",
                    "midi": 57,
                    "time": 202.4998919999998,
                    "velocity": 1,
                    "duration": 0.26733384179686936
                },
                {
                    "name": "E3",
                    "midi": 52,
                    "time": 202.78867532812478,
                    "velocity": 0.9763779527559056,
                    "duration": 0.2416990898437632
                },
                {
                    "name": "C#3",
                    "midi": 49,
                    "time": 203.05182390429667,
                    "velocity": 0.9763779527559056,
                    "duration": 0.2390832988281204
                },
                {
                    "name": "A2",
                    "midi": 45,
                    "time": 203.3123566894529,
                    "velocity": 0.9763779527559056,
                    "duration": 0.2390832988281204
                },
                {
                    "name": "A1",
                    "midi": 33,
                    "time": 203.57288947460916,
                    "velocity": 0.937007874015748,
                    "duration": 0.24222224804688608
                },
                {
                    "name": "F5",
                    "midi": 77,
                    "time": 204.1070339999998,
                    "velocity": 0.6614173228346457,
                    "duration": 0.09626110937497856
                },
                {
                    "name": "A4",
                    "midi": 69,
                    "time": 204.1070339999998,
                    "velocity": 0.5984251968503937,
                    "duration": 0.26733384179684094
                },
                {
                    "name": "C5",
                    "midi": 72,
                    "time": 204.1070339999998,
                    "velocity": 0.6771653543307087,
                    "duration": 0.26733384179684094
                },
                {
                    "name": "D#5",
                    "midi": 75,
                    "time": 204.19335510351542,
                    "velocity": 0.6299212598425197,
                    "duration": 0.09626110937497856
                },
                {
                    "name": "F5",
                    "midi": 77,
                    "time": 204.27967620703103,
                    "velocity": 0.5905511811023622,
                    "duration": 0.08789057812498413
                },
                {
                    "name": "F5",
                    "midi": 77,
                    "time": 204.39581732812476,
                    "velocity": 0.5354330708661418,
                    "duration": 0.2254811855468688
                },
                {
                    "name": "A4",
                    "midi": 69,
                    "time": 204.39581732812476,
                    "velocity": 0.5669291338582677,
                    "duration": 0.24169908984373478
                },
                {
                    "name": "C5",
                    "midi": 72,
                    "time": 204.39581732812476,
                    "velocity": 0.6456692913385826,
                    "duration": 0.24169908984373478
                },
                {
                    "name": "F5",
                    "midi": 77,
                    "time": 204.64274799999976,
                    "velocity": 0.6299212598425197,
                    "duration": 0.09626110937497856
                },
                {
                    "name": "A4",
                    "midi": 69,
                    "time": 204.65896590429662,
                    "velocity": 0.5669291338582677,
                    "duration": 0.23908329882809198
                },
                {
                    "name": "C5",
                    "midi": 72,
                    "time": 204.65896590429662,
                    "velocity": 0.6456692913385826,
                    "duration": 0.23908329882809198
                },
                {
                    "name": "E5",
                    "midi": 76,
                    "time": 204.72906910351537,
                    "velocity": 0.6299212598425197,
                    "duration": 0.09626110937497856
                },
                {
                    "name": "F5",
                    "midi": 77,
                    "time": 204.815390207031,
                    "velocity": 0.5905511811023622,
                    "duration": 0.08789057812498413
                },
                {
                    "name": "F5",
                    "midi": 77,
                    "time": 204.91949868945284,
                    "velocity": 0.5354330708661418,
                    "duration": 0.2390832988281204
                },
                {
                    "name": "A4",
                    "midi": 69,
                    "time": 204.91949868945284,
                    "velocity": 0.5669291338582677,
                    "duration": 0.2390832988281204
                },
                {
                    "name": "C5",
                    "midi": 72,
                    "time": 204.91949868945284,
                    "velocity": 0.6456692913385826,
                    "duration": 0.2390832988281204
                },
                {
                    "name": "F5",
                    "midi": 77,
                    "time": 205.18003147460908,
                    "velocity": 0.5354330708661418,
                    "duration": 0.2736117402343723
                },
                {
                    "name": "A4",
                    "midi": 69,
                    "time": 205.18003147460908,
                    "velocity": 0.5669291338582677,
                    "duration": 0.24222224804688608
                },
                {
                    "name": "C5",
                    "midi": 72,
                    "time": 205.18003147460908,
                    "velocity": 0.6456692913385826,
                    "duration": 0.24222224804688608
                },
                {
                    "name": "A4",
                    "midi": 69,
                    "time": 205.4437032089841,
                    "velocity": 0.5669291338582677,
                    "duration": 0.24902330468751188
                },
                {
                    "name": "C5",
                    "midi": 72,
                    "time": 205.4437032089841,
                    "velocity": 0.6771653543307087,
                    "duration": 0.24902330468751188
                },
                {
                    "name": "G5",
                    "midi": 79,
                    "time": 205.4463189999997,
                    "velocity": 0.6299212598425197,
                    "duration": 0.047607396484380615
                },
                {
                    "name": "F5",
                    "midi": 77,
                    "time": 205.48921797265595,
                    "velocity": 0.6299212598425197,
                    "duration": 0.047607396484380615
                },
                {
                    "name": "G5",
                    "midi": 79,
                    "time": 205.5321169453122,
                    "velocity": 0.5905511811023622,
                    "duration": 0.04446844726564336
                },
                {
                    "name": "A5",
                    "midi": 81,
                    "time": 205.57658539257784,
                    "velocity": 0.6299212598425197,
                    "duration": 0.12660428515624744
                },
                {
                    "name": "G5",
                    "midi": 79,
                    "time": 205.71417599999972,
                    "velocity": 0.6614173228346457,
                    "duration": 0.08579794531249263
                },
                {
                    "name": "A#4",
                    "midi": 70,
                    "time": 205.71417599999972,
                    "velocity": 0.5984251968503937,
                    "duration": 0.26733384179686936
                },
                {
                    "name": "D5",
                    "midi": 74,
                    "time": 205.71417599999972,
                    "velocity": 0.7086614173228346,
                    "duration": 0.26733384179686936
                },
                {
                    "name": "F5",
                    "midi": 77,
                    "time": 205.7910802558591,
                    "velocity": 0.6299212598425197,
                    "duration": 0.08579794531249263
                },
                {
                    "name": "G5",
                    "midi": 79,
                    "time": 205.86798451171848,
                    "velocity": 0.6299212598425197,
                    "duration": 0.08579794531249263
                },
                {
                    "name": "F5",
                    "midi": 77,
                    "time": 205.94488876757785,
                    "velocity": 0.5905511811023622,
                    "duration": 0.5728582324218792
                },
                {
                    "name": "A#4",
                    "midi": 70,
                    "time": 206.00295932812472,
                    "velocity": 0.5669291338582677,
                    "duration": 0.2416990898437632
                },
                {
                    "name": "D5",
                    "midi": 74,
                    "time": 206.00295932812472,
                    "velocity": 0.6456692913385826,
                    "duration": 0.2416990898437632
                },
                {
                    "name": "A#4",
                    "midi": 70,
                    "time": 206.2661079042966,
                    "velocity": 0.5669291338582677,
                    "duration": 0.2390832988281204
                },
                {
                    "name": "D5",
                    "midi": 74,
                    "time": 206.2661079042966,
                    "velocity": 0.6456692913385826,
                    "duration": 0.2390832988281204
                },
                {
                    "name": "E5",
                    "midi": 76,
                    "time": 206.52664068945285,
                    "velocity": 0.6299212598425197,
                    "duration": 0.2390832988281204
                },
                {
                    "name": "A#4",
                    "midi": 70,
                    "time": 206.52664068945285,
                    "velocity": 0.5669291338582677,
                    "duration": 0.2390832988281204
                },
                {
                    "name": "D5",
                    "midi": 74,
                    "time": 206.52664068945285,
                    "velocity": 0.6456692913385826,
                    "duration": 0.2390832988281204
                },
                {
                    "name": "E5",
                    "midi": 76,
                    "time": 206.7186397499997,
                    "velocity": 0.6299212598425197,
                    "duration": 0.06696425000001227
                },
                {
                    "name": "F5",
                    "midi": 77,
                    "time": 206.78560399999972,
                    "velocity": 0.6299212598425197,
                    "duration": 0.09626110937497856
                },
                {
                    "name": "A#4",
                    "midi": 70,
                    "time": 206.7871734746091,
                    "velocity": 0.5669291338582677,
                    "duration": 0.24222224804685766
                },
                {
                    "name": "D5",
                    "midi": 74,
                    "time": 206.7871734746091,
                    "velocity": 0.6456692913385826,
                    "duration": 0.24222224804685766
                },
                {
                    "name": "E5",
                    "midi": 76,
                    "time": 206.87192510351534,
                    "velocity": 0.6299212598425197,
                    "duration": 0.09626110937497856
                },
                {
                    "name": "F5",
                    "midi": 77,
                    "time": 206.95824620703095,
                    "velocity": 0.5905511811023622,
                    "duration": 0.08789057812498413
                },
                {
                    "name": "A#4",
                    "midi": 70,
                    "time": 207.05084520898407,
                    "velocity": 0.6535433070866141,
                    "duration": 0.24902330468751188
                },
                {
                    "name": "D5",
                    "midi": 74,
                    "time": 207.05084520898407,
                    "velocity": 0.6141732283464567,
                    "duration": 0.24902330468751188
                },
                {
                    "name": "G5",
                    "midi": 79,
                    "time": 207.3213179999997,
                    "velocity": 0.6614173228346457,
                    "duration": 0.09626110937497856
                },
                {
                    "name": "B4",
                    "midi": 71,
                    "time": 207.3213179999997,
                    "velocity": 0.6850393700787402,
                    "duration": 0.26733384179684094
                },
                {
                    "name": "D5",
                    "midi": 74,
                    "time": 207.3213179999997,
                    "velocity": 0.6456692913385826,
                    "duration": 0.26733384179684094
                },
                {
                    "name": "F5",
                    "midi": 77,
                    "time": 207.40763910351532,
                    "velocity": 0.6299212598425197,
                    "duration": 0.09626110937497856
                },
                {
                    "name": "G5",
                    "midi": 79,
                    "time": 207.49396020703094,
                    "velocity": 0.5905511811023622,
                    "duration": 0.08789057812498413
                },
                {
                    "name": "G5",
                    "midi": 79,
                    "time": 207.61010132812467,
                    "velocity": 0.6299212598425197,
                    "duration": 0.2254811855468688
                },
                {
                    "name": "B4",
                    "midi": 71,
                    "time": 207.61010132812467,
                    "velocity": 0.5669291338582677,
                    "duration": 0.24169908984373478
                },
                {
                    "name": "D5",
                    "midi": 74,
                    "time": 207.61010132812467,
                    "velocity": 0.6456692913385826,
                    "duration": 0.24169908984373478
                },
                {
                    "name": "G5",
                    "midi": 79,
                    "time": 207.85703199999966,
                    "velocity": 0.6299212598425197,
                    "duration": 0.09626110937497856
                },
                {
                    "name": "B4",
                    "midi": 71,
                    "time": 207.87324990429653,
                    "velocity": 0.5669291338582677,
                    "duration": 0.23908329882809198
                },
                {
                    "name": "D5",
                    "midi": 74,
                    "time": 207.87324990429653,
                    "velocity": 0.6456692913385826,
                    "duration": 0.23908329882809198
                },
                {
                    "name": "F5",
                    "midi": 77,
                    "time": 207.94335310351528,
                    "velocity": 0.6299212598425197,
                    "duration": 0.09626110937497856
                },
                {
                    "name": "G5",
                    "midi": 79,
                    "time": 208.0296742070309,
                    "velocity": 0.5905511811023622,
                    "duration": 0.08789057812498413
                },
                {
                    "name": "G5",
                    "midi": 79,
                    "time": 208.13378268945274,
                    "velocity": 0.6299212598425197,
                    "duration": 0.2390832988281204
                },
                {
                    "name": "B4",
                    "midi": 71,
                    "time": 208.13378268945274,
                    "velocity": 0.5669291338582677,
                    "duration": 0.2390832988281204
                },
                {
                    "name": "D5",
                    "midi": 74,
                    "time": 208.13378268945274,
                    "velocity": 0.6456692913385826,
                    "duration": 0.2390832988281204
                },
                {
                    "name": "G5",
                    "midi": 79,
                    "time": 208.394315474609,
                    "velocity": 0.6299212598425197,
                    "duration": 0.24222224804688608
                },
                {
                    "name": "B4",
                    "midi": 71,
                    "time": 208.394315474609,
                    "velocity": 0.5669291338582677,
                    "duration": 0.24222224804688608
                },
                {
                    "name": "D5",
                    "midi": 74,
                    "time": 208.394315474609,
                    "velocity": 0.6456692913385826,
                    "duration": 0.24222224804688608
                },
                {
                    "name": "B4",
                    "midi": 71,
                    "time": 208.657987208984,
                    "velocity": 0.5669291338582677,
                    "duration": 0.24902330468751188
                },
                {
                    "name": "D5",
                    "midi": 74,
                    "time": 208.657987208984,
                    "velocity": 0.6771653543307087,
                    "duration": 0.24902330468751188
                },
                {
                    "name": "A5",
                    "midi": 81,
                    "time": 208.6606029999996,
                    "velocity": 0.6299212598425197,
                    "duration": 0.047607396484380615
                },
                {
                    "name": "G5",
                    "midi": 79,
                    "time": 208.70350197265586,
                    "velocity": 0.6299212598425197,
                    "duration": 0.047607396484380615
                },
                {
                    "name": "A5",
                    "midi": 81,
                    "time": 208.7464009453121,
                    "velocity": 0.5905511811023622,
                    "duration": 0.04446844726564336
                },
                {
                    "name": "A#5",
                    "midi": 82,
                    "time": 208.79086939257775,
                    "velocity": 0.6299212598425197,
                    "duration": 0.12660428515624744
                },
                {
                    "name": "A5",
                    "midi": 81,
                    "time": 208.92845999999963,
                    "velocity": 0.6614173228346457,
                    "duration": 0.0863211035156155
                },
                {
                    "name": "C5",
                    "midi": 72,
                    "time": 208.92845999999963,
                    "velocity": 0.5984251968503937,
                    "duration": 0.26733384179686936
                },
                {
                    "name": "E5",
                    "midi": 76,
                    "time": 208.92845999999963,
                    "velocity": 0.7086614173228346,
                    "duration": 0.26733384179686936
                },
                {
                    "name": "G5",
                    "midi": 79,
                    "time": 209.00588741406213,
                    "velocity": 0.6299212598425197,
                    "duration": 0.0863211035156155
                },
                {
                    "name": "A5",
                    "midi": 81,
                    "time": 209.08331482812463,
                    "velocity": 0.6299212598425197,
                    "duration": 0.0863211035156155
                },
                {
                    "name": "G5",
                    "midi": 79,
                    "time": 209.16074224218713,
                    "velocity": 0.5905511811023622,
                    "duration": 0.5712887578125105
                },
                {
                    "name": "C5",
                    "midi": 72,
                    "time": 209.21724332812462,
                    "velocity": 0.5669291338582677,
                    "duration": 0.2416990898437632
                },
                {
                    "name": "E5",
                    "midi": 76,
                    "time": 209.21724332812462,
                    "velocity": 0.6456692913385826,
                    "duration": 0.2416990898437632
                },
                {
                    "name": "C5",
                    "midi": 72,
                    "time": 209.4803919042965,
                    "velocity": 0.5669291338582677,
                    "duration": 0.2390832988281204
                },
                {
                    "name": "E5",
                    "midi": 76,
                    "time": 209.4803919042965,
                    "velocity": 0.6456692913385826,
                    "duration": 0.2390832988281204
                },
                {
                    "name": "F5",
                    "midi": 77,
                    "time": 209.74092468945275,
                    "velocity": 0.6299212598425197,
                    "duration": 0.2390832988281204
                },
                {
                    "name": "C5",
                    "midi": 72,
                    "time": 209.74092468945275,
                    "velocity": 0.5669291338582677,
                    "duration": 0.2390832988281204
                },
                {
                    "name": "E5",
                    "midi": 76,
                    "time": 209.74092468945275,
                    "velocity": 0.6456692913385826,
                    "duration": 0.2390832988281204
                },
                {
                    "name": "G5",
                    "midi": 79,
                    "time": 209.99988799999963,
                    "velocity": 0.6299212598425197,
                    "duration": 0.09626110937497856
                },
                {
                    "name": "C5",
                    "midi": 72,
                    "time": 210.001457474609,
                    "velocity": 0.5669291338582677,
                    "duration": 0.24222224804685766
                },
                {
                    "name": "E5",
                    "midi": 76,
                    "time": 210.001457474609,
                    "velocity": 0.6456692913385826,
                    "duration": 0.24222224804685766
                },
                {
                    "name": "F5",
                    "midi": 77,
                    "time": 210.08620910351524,
                    "velocity": 0.6299212598425197,
                    "duration": 0.09626110937497856
                },
                {
                    "name": "G5",
                    "midi": 79,
                    "time": 210.17253020703086,
                    "velocity": 0.5905511811023622,
                    "duration": 0.08789057812498413
                },
                {
                    "name": "A5",
                    "midi": 81,
                    "time": 210.26512920898398,
                    "velocity": 0.6299212598425197,
                    "duration": 0.24902330468751188
                },
                {
                    "name": "C5",
                    "midi": 72,
                    "time": 210.26512920898398,
                    "velocity": 0.5669291338582677,
                    "duration": 0.24902330468751188
                },
                {
                    "name": "E5",
                    "midi": 76,
                    "time": 210.26512920898398,
                    "velocity": 0.6771653543307087,
                    "duration": 0.24902330468751188
                },
                {
                    "name": "A5",
                    "midi": 81,
                    "time": 210.4686377499996,
                    "velocity": 0.6299212598425197,
                    "duration": 0.06696425000001227
                },
                {
                    "name": "A#5",
                    "midi": 82,
                    "time": 210.5356019999996,
                    "velocity": 0.6614173228346457,
                    "duration": 0.10463164062500141
                },
                {
                    "name": "D5",
                    "midi": 74,
                    "time": 210.5356019999996,
                    "velocity": 0.5984251968503937,
                    "duration": 0.2673338417968978
                },
                {
                    "name": "F5",
                    "midi": 77,
                    "time": 210.5356019999996,
                    "velocity": 0.7086614173228346,
                    "duration": 0.2673338417968978
                },
                {
                    "name": "A5",
                    "midi": 81,
                    "time": 210.62924731835898,
                    "velocity": 0.6299212598425197,
                    "duration": 0.10463164062502983
                },
                {
                    "name": "A#5",
                    "midi": 82,
                    "time": 210.72289263671837,
                    "velocity": 0.5905511811023622,
                    "duration": 0.6162803632812768
                },
                {
                    "name": "D5",
                    "midi": 74,
                    "time": 210.82438532812463,
                    "velocity": 0.5669291338582677,
                    "duration": 0.2416990898437632
                },
                {
                    "name": "F5",
                    "midi": 77,
                    "time": 210.82438532812463,
                    "velocity": 0.6456692913385826,
                    "duration": 0.2416990898437632
                },
                {
                    "name": "D5",
                    "midi": 74,
                    "time": 211.08753390429652,
                    "velocity": 0.5669291338582677,
                    "duration": 0.2390832988281204
                },
                {
                    "name": "F5",
                    "midi": 77,
                    "time": 211.08753390429652,
                    "velocity": 0.6456692913385826,
                    "duration": 0.2390832988281204
                },
                {
                    "name": "C6",
                    "midi": 84,
                    "time": 211.33917299999965,
                    "velocity": 0.6299212598425197,
                    "duration": 0.016741062499988857
                },
                {
                    "name": "D5",
                    "midi": 74,
                    "time": 211.34806668945276,
                    "velocity": 0.5669291338582677,
                    "duration": 0.2390832988281204
                },
                {
                    "name": "F5",
                    "midi": 77,
                    "time": 211.34806668945276,
                    "velocity": 0.6771653543307087,
                    "duration": 0.2390832988281204
                },
                {
                    "name": "A#5",
                    "midi": 82,
                    "time": 211.40247514257777,
                    "velocity": 0.6299212598425197,
                    "duration": 0.016741062499988857
                },
                {
                    "name": "C6",
                    "midi": 84,
                    "time": 211.4657772851559,
                    "velocity": 0.6299212598425197,
                    "duration": 0.016741062499988857
                },
                {
                    "name": "A#5",
                    "midi": 82,
                    "time": 211.52907942773402,
                    "velocity": 0.5905511811023622,
                    "duration": 0.016741062499988857
                },
                {
                    "name": "C6",
                    "midi": 84,
                    "time": 211.608599474609,
                    "velocity": 0.6299212598425197,
                    "duration": 0.24222224804688608
                },
                {
                    "name": "E5",
                    "midi": 76,
                    "time": 211.608599474609,
                    "velocity": 0.5669291338582677,
                    "duration": 0.24222224804688608
                },
                {
                    "name": "G5",
                    "midi": 79,
                    "time": 211.608599474609,
                    "velocity": 0.6771653543307087,
                    "duration": 0.24222224804688608
                },
                {
                    "name": "A#5",
                    "midi": 82,
                    "time": 211.87227120898402,
                    "velocity": 0.6299212598425197,
                    "duration": 0.24902330468751188
                },
                {
                    "name": "E5",
                    "midi": 76,
                    "time": 211.87227120898402,
                    "velocity": 0.5669291338582677,
                    "duration": 0.24902330468751188
                },
                {
                    "name": "G5",
                    "midi": 79,
                    "time": 211.87227120898402,
                    "velocity": 0.6456692913385826,
                    "duration": 0.24902330468751188
                },
                {
                    "name": "A#5",
                    "midi": 82,
                    "time": 212.14274399999965,
                    "velocity": 0.6614173228346457,
                    "duration": 0.0863211035156155
                },
                {
                    "name": "F5",
                    "midi": 77,
                    "time": 212.14274399999965,
                    "velocity": 0.6614173228346457,
                    "duration": 0.8119415312499711
                },
                {
                    "name": "A5",
                    "midi": 81,
                    "time": 212.22017141406215,
                    "velocity": 0.6299212598425197,
                    "duration": 0.0863211035156155
                },
                {
                    "name": "A#5",
                    "midi": 82,
                    "time": 212.29759882812465,
                    "velocity": 0.6299212598425197,
                    "duration": 0.0863211035156155
                },
                {
                    "name": "A5",
                    "midi": 81,
                    "time": 212.37502624218715,
                    "velocity": 0.5905511811023622,
                    "duration": 0.5712887578124821
                },
                {
                    "name": "G5",
                    "midi": 79,
                    "time": 212.95520868945275,
                    "velocity": 0.6299212598425197,
                    "duration": 0.11928007031249876
                },
                {
                    "name": "E5",
                    "midi": 76,
                    "time": 212.95520868945275,
                    "velocity": 0.6299212598425197,
                    "duration": 0.23908329882814883
                },
                {
                    "name": "A5",
                    "midi": 81,
                    "time": 213.08547508203088,
                    "velocity": 0.6299212598425197,
                    "duration": 0.11928007031249876
                },
                {
                    "name": "A#5",
                    "midi": 82,
                    "time": 213.21574147460902,
                    "velocity": 0.6299212598425197,
                    "duration": 0.12084954492186739
                },
                {
                    "name": "D5",
                    "midi": 74,
                    "time": 213.21574147460902,
                    "velocity": 0.5669291338582677,
                    "duration": 0.24222224804688608
                },
                {
                    "name": "F5",
                    "midi": 77,
                    "time": 213.21574147460902,
                    "velocity": 0.6771653543307087,
                    "duration": 0.24222224804688608
                },
                {
                    "name": "C6",
                    "midi": 84,
                    "time": 213.34757734179652,
                    "velocity": 0.6299212598425197,
                    "duration": 0.12084954492186739
                },
                {
                    "name": "A5",
                    "midi": 81,
                    "time": 213.47941320898403,
                    "velocity": 0.6299212598425197,
                    "duration": 0.12189586132811314
                },
                {
                    "name": "C5",
                    "midi": 72,
                    "time": 213.47941320898403,
                    "velocity": 0.5669291338582677,
                    "duration": 0.24902330468751188
                },
                {
                    "name": "E5",
                    "midi": 76,
                    "time": 213.47941320898403,
                    "velocity": 0.6771653543307087,
                    "duration": 0.24902330468751188
                },
                {
                    "name": "A#5",
                    "midi": 82,
                    "time": 213.61229539257778,
                    "velocity": 0.6299212598425197,
                    "duration": 0.12660428515624744
                },
                {
                    "name": "A5",
                    "midi": 81,
                    "time": 213.74988599999966,
                    "velocity": 0.6614173228346457,
                    "duration": 0.0863211035156155
                },
                {
                    "name": "A#4",
                    "midi": 70,
                    "time": 213.74988599999966,
                    "velocity": 0.5984251968503937,
                    "duration": 0.8119415312499711
                },
                {
                    "name": "D5",
                    "midi": 74,
                    "time": 213.74988599999966,
                    "velocity": 0.7086614173228346,
                    "duration": 0.8119415312499711
                },
                {
                    "name": "G5",
                    "midi": 79,
                    "time": 213.82731341406216,
                    "velocity": 0.6299212598425197,
                    "duration": 0.0863211035156155
                },
                {
                    "name": "A5",
                    "midi": 81,
                    "time": 213.90474082812466,
                    "velocity": 0.6299212598425197,
                    "duration": 0.0863211035156155
                },
                {
                    "name": "G5",
                    "midi": 79,
                    "time": 213.98216824218716,
                    "velocity": 0.5905511811023622,
                    "duration": 0.5712887578124821
                },
                {
                    "name": "A5",
                    "midi": 81,
                    "time": 214.56235068945276,
                    "velocity": 0.6299212598425197,
                    "duration": 0.0795200468749897
                },
                {
                    "name": "A4",
                    "midi": 69,
                    "time": 214.56235068945276,
                    "velocity": 0.5669291338582677,
                    "duration": 0.23908329882809198
                },
                {
                    "name": "C5",
                    "midi": 72,
                    "time": 214.56235068945276,
                    "velocity": 0.6771653543307087,
                    "duration": 0.23908329882809198
                },
                {
                    "name": "A#5",
                    "midi": 82,
                    "time": 214.6491949511715,
                    "velocity": 0.6299212598425197,
                    "duration": 0.0795200468749897
                },
                {
                    "name": "C6",
                    "midi": 84,
                    "time": 214.73603921289023,
                    "velocity": 0.6299212598425197,
                    "duration": 0.0795200468749897
                },
                {
                    "name": "F5",
                    "midi": 77,
                    "time": 214.8213139999996,
                    "velocity": 0.6299212598425197,
                    "duration": 0.0706263574218724
                },
                {
                    "name": "G4",
                    "midi": 67,
                    "time": 214.82288347460897,
                    "velocity": 0.5669291338582677,
                    "duration": 0.24222224804688608
                },
                {
                    "name": "A#4",
                    "midi": 70,
                    "time": 214.82288347460897,
                    "velocity": 0.6771653543307087,
                    "duration": 0.24222224804688608
                },
                {
                    "name": "E5",
                    "midi": 76,
                    "time": 214.88461614257773,
                    "velocity": 0.6299212598425197,
                    "duration": 0.0706263574218724
                },
                {
                    "name": "F5",
                    "midi": 77,
                    "time": 214.94791828515585,
                    "velocity": 0.6299212598425197,
                    "duration": 0.0706263574218724
                },
                {
                    "name": "E5",
                    "midi": 76,
                    "time": 215.01122042773397,
                    "velocity": 0.5905511811023622,
                    "duration": 0.07219583203126945
                },
                {
                    "name": "F5",
                    "midi": 77,
                    "time": 215.08655520898398,
                    "velocity": 0.6299212598425197,
                    "duration": 0.24902330468751188
                },
                {
                    "name": "F4",
                    "midi": 65,
                    "time": 215.08655520898398,
                    "velocity": 0.5669291338582677,
                    "duration": 0.24902330468751188
                },
                {
                    "name": "A4",
                    "midi": 69,
                    "time": 215.08655520898398,
                    "velocity": 0.6771653543307087,
                    "duration": 0.24902330468751188
                },
                {
                    "name": "A5",
                    "midi": 81,
                    "time": 215.35702799999962,
                    "velocity": 0.6614173228346457,
                    "duration": 0.130266392578136
                },
                {
                    "name": "C4",
                    "midi": 60,
                    "time": 215.35702799999962,
                    "velocity": 0.5669291338582677,
                    "duration": 1.0724743164063
                },
                {
                    "name": "E4",
                    "midi": 64,
                    "time": 215.35702799999962,
                    "velocity": 0.6771653543307087,
                    "duration": 1.0724743164063
                },
                {
                    "name": "G5",
                    "midi": 79,
                    "time": 215.4736922792965,
                    "velocity": 0.6299212598425197,
                    "duration": 0.08527478710936975
                },
                {
                    "name": "A5",
                    "midi": 81,
                    "time": 215.55007337695275,
                    "velocity": 0.6299212598425197,
                    "duration": 0.08527478710936975
                },
                {
                    "name": "G5",
                    "midi": 79,
                    "time": 215.626454474609,
                    "velocity": 0.6299212598425197,
                    "duration": 0.08527478710936975
                },
                {
                    "name": "A5",
                    "midi": 81,
                    "time": 215.70283557226526,
                    "velocity": 0.6299212598425197,
                    "duration": 0.08527478710936975
                },
                {
                    "name": "G5",
                    "midi": 79,
                    "time": 215.7792166699215,
                    "velocity": 0.6299212598425197,
                    "duration": 0.08527478710936975
                },
                {
                    "name": "A5",
                    "midi": 81,
                    "time": 215.85559776757776,
                    "velocity": 0.6299212598425197,
                    "duration": 0.08527478710936975
                },
                {
                    "name": "G5",
                    "midi": 79,
                    "time": 215.93197886523402,
                    "velocity": 0.6299212598425197,
                    "duration": 0.08527478710936975
                },
                {
                    "name": "A5",
                    "midi": 81,
                    "time": 216.00835996289027,
                    "velocity": 0.6299212598425197,
                    "duration": 0.08527478710936975
                },
                {
                    "name": "G5",
                    "midi": 79,
                    "time": 216.08474106054652,
                    "velocity": 0.6299212598425197,
                    "duration": 0.08527478710936975
                },
                {
                    "name": "A5",
                    "midi": 81,
                    "time": 216.16112215820277,
                    "velocity": 0.6299212598425197,
                    "duration": 0.08527478710936975
                },
                {
                    "name": "G5",
                    "midi": 79,
                    "time": 216.23750325585902,
                    "velocity": 0.6299212598425197,
                    "duration": 0.08527478710936975
                },
                {
                    "name": "A5",
                    "midi": 81,
                    "time": 216.31388435351528,
                    "velocity": 0.6299212598425197,
                    "duration": 0.08527478710936975
                },
                {
                    "name": "G5",
                    "midi": 79,
                    "time": 216.39026545117153,
                    "velocity": 0.5905511811023622,
                    "duration": 0.03557475781249764
                },
                {
                    "name": "D5",
                    "midi": 74,
                    "time": 216.96416999999965,
                    "velocity": 1,
                    "duration": 0.09626110937497856
                },
                {
                    "name": "F4",
                    "midi": 65,
                    "time": 216.96416999999965,
                    "velocity": 1,
                    "duration": 0.26733384179684094
                },
                {
                    "name": "A#3",
                    "midi": 58,
                    "time": 216.96416999999965,
                    "velocity": 1,
                    "duration": 0.26733384179684094
                },
                {
                    "name": "C5",
                    "midi": 72,
                    "time": 217.05049110351527,
                    "velocity": 0.9763779527559056,
                    "duration": 0.09626110937497856
                },
                {
                    "name": "D5",
                    "midi": 74,
                    "time": 217.13681220703089,
                    "velocity": 0.937007874015748,
                    "duration": 0.08789057812498413
                },
                {
                    "name": "D5",
                    "midi": 74,
                    "time": 217.25295332812462,
                    "velocity": 0.8818897637795275,
                    "duration": 0.2254811855468688
                },
                {
                    "name": "F4",
                    "midi": 65,
                    "time": 217.25295332812462,
                    "velocity": 0.9763779527559056,
                    "duration": 0.24169908984373478
                },
                {
                    "name": "A#3",
                    "midi": 58,
                    "time": 217.25295332812462,
                    "velocity": 0.9763779527559056,
                    "duration": 0.24169908984373478
                },
                {
                    "name": "D5",
                    "midi": 74,
                    "time": 217.4998839999996,
                    "velocity": 0.9763779527559056,
                    "duration": 0.09626110937497856
                },
                {
                    "name": "F4",
                    "midi": 65,
                    "time": 217.51610190429648,
                    "velocity": 0.9763779527559056,
                    "duration": 0.23908329882809198
                },
                {
                    "name": "A#3",
                    "midi": 58,
                    "time": 217.51610190429648,
                    "velocity": 0.9763779527559056,
                    "duration": 0.23908329882809198
                },
                {
                    "name": "C5",
                    "midi": 72,
                    "time": 217.58620510351523,
                    "velocity": 0.9763779527559056,
                    "duration": 0.09626110937497856
                },
                {
                    "name": "D5",
                    "midi": 74,
                    "time": 217.67252620703084,
                    "velocity": 0.937007874015748,
                    "duration": 0.08789057812498413
                },
                {
                    "name": "D5",
                    "midi": 74,
                    "time": 217.7766346894527,
                    "velocity": 0.8818897637795275,
                    "duration": 0.2390832988281204
                },
                {
                    "name": "F4",
                    "midi": 65,
                    "time": 217.7766346894527,
                    "velocity": 0.9763779527559056,
                    "duration": 0.2390832988281204
                },
                {
                    "name": "A#3",
                    "midi": 58,
                    "time": 217.7766346894527,
                    "velocity": 0.9763779527559056,
                    "duration": 0.2390832988281204
                },
                {
                    "name": "D5",
                    "midi": 74,
                    "time": 218.03716747460894,
                    "velocity": 0.8818897637795275,
                    "duration": 0.2736117402343723
                },
                {
                    "name": "F4",
                    "midi": 65,
                    "time": 218.03716747460894,
                    "velocity": 0.9763779527559056,
                    "duration": 0.24222224804688608
                },
                {
                    "name": "A#3",
                    "midi": 58,
                    "time": 218.03716747460894,
                    "velocity": 0.9763779527559056,
                    "duration": 0.24222224804688608
                },
                {
                    "name": "G4",
                    "midi": 67,
                    "time": 218.30083920898394,
                    "velocity": 0.9763779527559056,
                    "duration": 0.24902330468748346
                },
                {
                    "name": "A#3",
                    "midi": 58,
                    "time": 218.30083920898394,
                    "velocity": 0.9763779527559056,
                    "duration": 0.24902330468748346
                },
                {
                    "name": "F5",
                    "midi": 77,
                    "time": 218.30345499999956,
                    "velocity": 0.9763779527559056,
                    "duration": 0.016741062499988857
                },
                {
                    "name": "E5",
                    "midi": 76,
                    "time": 218.36675714257768,
                    "velocity": 0.9763779527559056,
                    "duration": 0.016741062499988857
                },
                {
                    "name": "F5",
                    "midi": 77,
                    "time": 218.4300592851558,
                    "velocity": 0.9763779527559056,
                    "duration": 0.016741062499988857
                },
                {
                    "name": "E5",
                    "midi": 76,
                    "time": 218.49336142773393,
                    "velocity": 0.937007874015748,
                    "duration": 0.016741062499988857
                },
                {
                    "name": "F5",
                    "midi": 77,
                    "time": 218.57131199999955,
                    "velocity": 1,
                    "duration": 0.14439166406251047
                },
                {
                    "name": "A4",
                    "midi": 69,
                    "time": 218.57131199999955,
                    "velocity": 1,
                    "duration": 0.2673338417968978
                },
                {
                    "name": "A3",
                    "midi": 57,
                    "time": 218.57131199999955,
                    "velocity": 1,
                    "duration": 0.2673338417968978
                },
                {
                    "name": "C5",
                    "midi": 72,
                    "time": 218.72721314453082,
                    "velocity": 0.9763779527559056,
                    "duration": 0.12137270312499027
                },
                {
                    "name": "A#4",
                    "midi": 70,
                    "time": 218.86009532812457,
                    "velocity": 0.9763779527559056,
                    "duration": 0.12032638671874452
                },
                {
                    "name": "A4",
                    "midi": 69,
                    "time": 218.99193119531208,
                    "velocity": 0.9763779527559056,
                    "duration": 0.11980322851562164
                },
                {
                    "name": "A4",
                    "midi": 69,
                    "time": 219.12324390429646,
                    "velocity": 0.9133858267716536,
                    "duration": 0.11875691210937589
                },
                {
                    "name": "C5",
                    "midi": 72,
                    "time": 219.12324390429646,
                    "velocity": 1,
                    "duration": 0.11875691210937589
                },
                {
                    "name": "A4",
                    "midi": 69,
                    "time": 219.2535102968746,
                    "velocity": 0.9763779527559056,
                    "duration": 0.11928007031249876
                },
                {
                    "name": "G4",
                    "midi": 67,
                    "time": 219.38377668945273,
                    "velocity": 0.9763779527559056,
                    "duration": 0.11928007031249876
                },
                {
                    "name": "F4",
                    "midi": 65,
                    "time": 219.51404308203087,
                    "velocity": 0.9763779527559056,
                    "duration": 0.11928007031249876
                },
                {
                    "name": "F4",
                    "midi": 65,
                    "time": 219.644309474609,
                    "velocity": 0.9133858267716536,
                    "duration": 0.12084954492186739
                },
                {
                    "name": "A4",
                    "midi": 69,
                    "time": 219.644309474609,
                    "velocity": 1,
                    "duration": 0.12084954492186739
                },
                {
                    "name": "A4",
                    "midi": 69,
                    "time": 219.7761453417965,
                    "velocity": 0.9763779527559056,
                    "duration": 0.12084954492186739
                },
                {
                    "name": "G4",
                    "midi": 67,
                    "time": 219.907981208984,
                    "velocity": 0.9763779527559056,
                    "duration": 0.12189586132811314
                },
                {
                    "name": "F4",
                    "midi": 65,
                    "time": 220.04086339257776,
                    "velocity": 0.9763779527559056,
                    "duration": 0.12660428515624744
                },
                {
                    "name": "D5",
                    "midi": 74,
                    "time": 220.17845399999965,
                    "velocity": 0.5669291338582677,
                    "duration": 0.26733384179686936
                },
                {
                    "name": "F4",
                    "midi": 65,
                    "time": 220.17845399999965,
                    "velocity": 0.6614173228346457,
                    "duration": 0.26733384179686936
                },
                {
                    "name": "A#3",
                    "midi": 58,
                    "time": 220.17845399999965,
                    "velocity": 0.6614173228346457,
                    "duration": 0.26733384179686936
                },
                {
                    "name": "D5",
                    "midi": 74,
                    "time": 220.46723732812464,
                    "velocity": 0.5354330708661418,
                    "duration": 0.2254811855468688
                },
                {
                    "name": "F4",
                    "midi": 65,
                    "time": 220.46723732812464,
                    "velocity": 0.6299212598425197,
                    "duration": 0.24169908984373478
                },
                {
                    "name": "A#3",
                    "midi": 58,
                    "time": 220.46723732812464,
                    "velocity": 0.6299212598425197,
                    "duration": 0.24169908984373478
                },
                {
                    "name": "D5",
                    "midi": 74,
                    "time": 220.71416799999963,
                    "velocity": 0.6299212598425197,
                    "duration": 0.09626110937497856
                },
                {
                    "name": "F4",
                    "midi": 65,
                    "time": 220.7303859042965,
                    "velocity": 0.6299212598425197,
                    "duration": 0.23908329882809198
                },
                {
                    "name": "A#3",
                    "midi": 58,
                    "time": 220.7303859042965,
                    "velocity": 0.6299212598425197,
                    "duration": 0.23908329882809198
                },
                {
                    "name": "C5",
                    "midi": 72,
                    "time": 220.80048910351525,
                    "velocity": 0.6299212598425197,
                    "duration": 0.09626110937497856
                },
                {
                    "name": "D5",
                    "midi": 74,
                    "time": 220.88681020703086,
                    "velocity": 0.5905511811023622,
                    "duration": 0.08789057812498413
                },
                {
                    "name": "D5",
                    "midi": 74,
                    "time": 220.9909186894527,
                    "velocity": 0.5354330708661418,
                    "duration": 0.2390832988281204
                },
                {
                    "name": "F4",
                    "midi": 65,
                    "time": 220.9909186894527,
                    "velocity": 0.6299212598425197,
                    "duration": 0.2390832988281204
                },
                {
                    "name": "A#3",
                    "midi": 58,
                    "time": 220.9909186894527,
                    "velocity": 0.6299212598425197,
                    "duration": 0.2390832988281204
                },
                {
                    "name": "D5",
                    "midi": 74,
                    "time": 221.25145147460896,
                    "velocity": 0.5354330708661418,
                    "duration": 0.2736117402343723
                },
                {
                    "name": "F4",
                    "midi": 65,
                    "time": 221.25145147460896,
                    "velocity": 0.6299212598425197,
                    "duration": 0.24222224804688608
                },
                {
                    "name": "A#3",
                    "midi": 58,
                    "time": 221.25145147460896,
                    "velocity": 0.6299212598425197,
                    "duration": 0.24222224804688608
                },
                {
                    "name": "G4",
                    "midi": 67,
                    "time": 221.51512320898397,
                    "velocity": 0.6299212598425197,
                    "duration": 0.24902330468748346
                },
                {
                    "name": "A#3",
                    "midi": 58,
                    "time": 221.51512320898397,
                    "velocity": 0.6299212598425197,
                    "duration": 0.24902330468748346
                },
                {
                    "name": "F5",
                    "midi": 77,
                    "time": 221.51773899999958,
                    "velocity": 0.6299212598425197,
                    "duration": 0.016741062499988857
                },
                {
                    "name": "E5",
                    "midi": 76,
                    "time": 221.5810411425777,
                    "velocity": 0.6299212598425197,
                    "duration": 0.016741062499988857
                },
                {
                    "name": "F5",
                    "midi": 77,
                    "time": 221.64434328515583,
                    "velocity": 0.6299212598425197,
                    "duration": 0.016741062499988857
                },
                {
                    "name": "E5",
                    "midi": 76,
                    "time": 221.70764542773395,
                    "velocity": 0.5905511811023622,
                    "duration": 0.016741062499988857
                },
                {
                    "name": "F5",
                    "midi": 77,
                    "time": 221.78559599999957,
                    "velocity": 0.6614173228346457,
                    "duration": 0.14439166406251047
                },
                {
                    "name": "A4",
                    "midi": 69,
                    "time": 221.78559599999957,
                    "velocity": 0.6614173228346457,
                    "duration": 0.2673338417968978
                },
                {
                    "name": "A3",
                    "midi": 57,
                    "time": 221.78559599999957,
                    "velocity": 0.6614173228346457,
                    "duration": 0.2673338417968978
                },
                {
                    "name": "C5",
                    "midi": 72,
                    "time": 221.94149714453084,
                    "velocity": 0.6299212598425197,
                    "duration": 0.12137270312499027
                },
                {
                    "name": "A#4",
                    "midi": 70,
                    "time": 222.0743793281246,
                    "velocity": 0.6299212598425197,
                    "duration": 0.12032638671874452
                },
                {
                    "name": "A4",
                    "midi": 69,
                    "time": 222.2062151953121,
                    "velocity": 0.6299212598425197,
                    "duration": 0.11980322851562164
                },
                {
                    "name": "A4",
                    "midi": 69,
                    "time": 222.33752790429648,
                    "velocity": 0.5669291338582677,
                    "duration": 0.11875691210937589
                },
                {
                    "name": "C5",
                    "midi": 72,
                    "time": 222.33752790429648,
                    "velocity": 0.6771653543307087,
                    "duration": 0.11875691210937589
                },
                {
                    "name": "A4",
                    "midi": 69,
                    "time": 222.46779429687462,
                    "velocity": 0.6299212598425197,
                    "duration": 0.11928007031249876
                },
                {
                    "name": "G4",
                    "midi": 67,
                    "time": 222.59806068945275,
                    "velocity": 0.6299212598425197,
                    "duration": 0.11928007031249876
                },
                {
                    "name": "F4",
                    "midi": 65,
                    "time": 222.7283270820309,
                    "velocity": 0.6299212598425197,
                    "duration": 0.11928007031249876
                },
                {
                    "name": "F4",
                    "midi": 65,
                    "time": 222.85859347460902,
                    "velocity": 0.5669291338582677,
                    "duration": 0.12084954492186739
                },
                {
                    "name": "A4",
                    "midi": 69,
                    "time": 222.85859347460902,
                    "velocity": 0.6771653543307087,
                    "duration": 0.12084954492186739
                },
                {
                    "name": "A4",
                    "midi": 69,
                    "time": 222.99042934179653,
                    "velocity": 0.6299212598425197,
                    "duration": 0.12084954492186739
                },
                {
                    "name": "G4",
                    "midi": 67,
                    "time": 223.12226520898403,
                    "velocity": 0.6299212598425197,
                    "duration": 0.12189586132811314
                },
                {
                    "name": "F4",
                    "midi": 65,
                    "time": 223.25514739257778,
                    "velocity": 0.6299212598425197,
                    "duration": 0.12660428515624744
                },
                {
                    "name": "D5",
                    "midi": 74,
                    "time": 223.39273799999967,
                    "velocity": 0.9133858267716536,
                    "duration": 0.26733384179686936
                },
                {
                    "name": "F4",
                    "midi": 65,
                    "time": 223.39273799999967,
                    "velocity": 1,
                    "duration": 0.26733384179686936
                },
                {
                    "name": "A#3",
                    "midi": 58,
                    "time": 223.39273799999967,
                    "velocity": 1,
                    "duration": 0.26733384179686936
                },
                {
                    "name": "D5",
                    "midi": 74,
                    "time": 223.68152132812466,
                    "velocity": 0.8818897637795275,
                    "duration": 0.2254811855468688
                },
                {
                    "name": "F4",
                    "midi": 65,
                    "time": 223.68152132812466,
                    "velocity": 0.9763779527559056,
                    "duration": 0.24169908984373478
                },
                {
                    "name": "A#3",
                    "midi": 58,
                    "time": 223.68152132812466,
                    "velocity": 0.9763779527559056,
                    "duration": 0.24169908984373478
                },
                {
                    "name": "D5",
                    "midi": 74,
                    "time": 223.92845199999965,
                    "velocity": 0.9763779527559056,
                    "duration": 0.09626110937497856
                },
                {
                    "name": "F4",
                    "midi": 65,
                    "time": 223.94466990429652,
                    "velocity": 0.9763779527559056,
                    "duration": 0.23908329882809198
                },
                {
                    "name": "A#3",
                    "midi": 58,
                    "time": 223.94466990429652,
                    "velocity": 0.9763779527559056,
                    "duration": 0.23908329882809198
                },
                {
                    "name": "C5",
                    "midi": 72,
                    "time": 224.01477310351527,
                    "velocity": 0.9763779527559056,
                    "duration": 0.09626110937497856
                },
                {
                    "name": "D5",
                    "midi": 74,
                    "time": 224.10109420703088,
                    "velocity": 0.937007874015748,
                    "duration": 0.08789057812498413
                },
                {
                    "name": "D5",
                    "midi": 74,
                    "time": 224.20520268945273,
                    "velocity": 0.8818897637795275,
                    "duration": 0.2390832988281204
                },
                {
                    "name": "F4",
                    "midi": 65,
                    "time": 224.20520268945273,
                    "velocity": 0.9763779527559056,
                    "duration": 0.2390832988281204
                },
                {
                    "name": "A#3",
                    "midi": 58,
                    "time": 224.20520268945273,
                    "velocity": 0.9763779527559056,
                    "duration": 0.2390832988281204
                },
                {
                    "name": "D5",
                    "midi": 74,
                    "time": 224.46573547460898,
                    "velocity": 0.8818897637795275,
                    "duration": 0.2736117402343723
                },
                {
                    "name": "F4",
                    "midi": 65,
                    "time": 224.46573547460898,
                    "velocity": 0.9763779527559056,
                    "duration": 0.24222224804688608
                },
                {
                    "name": "G#3",
                    "midi": 56,
                    "time": 224.46573547460898,
                    "velocity": 0.9763779527559056,
                    "duration": 0.24222224804688608
                },
                {
                    "name": "F4",
                    "midi": 65,
                    "time": 224.729407208984,
                    "velocity": 0.9763779527559056,
                    "duration": 0.24902330468751188
                },
                {
                    "name": "G#3",
                    "midi": 56,
                    "time": 224.729407208984,
                    "velocity": 0.9763779527559056,
                    "duration": 0.24902330468751188
                },
                {
                    "name": "D#5",
                    "midi": 75,
                    "time": 224.7320229999996,
                    "velocity": 0.9763779527559056,
                    "duration": 0.047607396484380615
                },
                {
                    "name": "D5",
                    "midi": 74,
                    "time": 224.77492197265585,
                    "velocity": 0.9763779527559056,
                    "duration": 0.047607396484380615
                },
                {
                    "name": "D#5",
                    "midi": 75,
                    "time": 224.8178209453121,
                    "velocity": 0.937007874015748,
                    "duration": 0.04446844726564336
                },
                {
                    "name": "F5",
                    "midi": 77,
                    "time": 224.86228939257774,
                    "velocity": 0.9763779527559056,
                    "duration": 0.12660428515624744
                },
                {
                    "name": "C5",
                    "midi": 72,
                    "time": 224.99987999999962,
                    "velocity": 1,
                    "duration": 0.08579794531249263
                },
                {
                    "name": "G3",
                    "midi": 55,
                    "time": 224.99987999999962,
                    "velocity": 0.9133858267716536,
                    "duration": 1.606618841796859
                },
                {
                    "name": "D4",
                    "midi": 62,
                    "time": 224.99987999999962,
                    "velocity": 0.9133858267716536,
                    "duration": 1.606618841796859
                },
                {
                    "name": "F4",
                    "midi": 65,
                    "time": 224.99987999999962,
                    "velocity": 1,
                    "duration": 1.606618841796859
                },
                {
                    "name": "B4",
                    "midi": 71,
                    "time": 225.076784255859,
                    "velocity": 0.9763779527559056,
                    "duration": 0.08579794531249263
                },
                {
                    "name": "C5",
                    "midi": 72,
                    "time": 225.15368851171837,
                    "velocity": 0.9763779527559056,
                    "duration": 0.08579794531249263
                },
                {
                    "name": "B4",
                    "midi": 71,
                    "time": 225.23059276757775,
                    "velocity": 0.937007874015748,
                    "duration": 1.3764292324218559
                },
                {
                    "name": "C5",
                    "midi": 72,
                    "time": 226.6070219999996,
                    "velocity": 1,
                    "duration": 0.14439166406251047
                },
                {
                    "name": "C4",
                    "midi": 60,
                    "time": 226.6070219999996,
                    "velocity": 0.8503937007874016,
                    "duration": 0.2673338417968978
                },
                {
                    "name": "D#4",
                    "midi": 63,
                    "time": 226.6070219999996,
                    "velocity": 0.9606299212598425,
                    "duration": 0.2673338417968978
                },
                {
                    "name": "G3",
                    "midi": 55,
                    "time": 226.6070219999996,
                    "velocity": 0.9133858267716536,
                    "duration": 0.2673338417968978
                },
                {
                    "name": "B4",
                    "midi": 71,
                    "time": 226.76292314453087,
                    "velocity": 0.9763779527559056,
                    "duration": 0.12137270312499027
                },
                {
                    "name": "C5",
                    "midi": 72,
                    "time": 226.87487899999962,
                    "velocity": 0.9763779527559056,
                    "duration": 0.047607396484380615
                },
                {
                    "name": "C4",
                    "midi": 60,
                    "time": 226.89580532812462,
                    "velocity": 0.8188976377952756,
                    "duration": 0.2416990898437632
                },
                {
                    "name": "D#4",
                    "midi": 63,
                    "time": 226.89580532812462,
                    "velocity": 0.8976377952755905,
                    "duration": 0.2416990898437632
                },
                {
                    "name": "G3",
                    "midi": 55,
                    "time": 226.89580532812462,
                    "velocity": 0.8818897637795275,
                    "duration": 0.2416990898437632
                },
                {
                    "name": "B4",
                    "midi": 71,
                    "time": 226.91777797265587,
                    "velocity": 0.9763779527559056,
                    "duration": 0.047607396484380615
                },
                {
                    "name": "C5",
                    "midi": 72,
                    "time": 226.96067694531212,
                    "velocity": 0.937007874015748,
                    "duration": 0.04446844726564336
                },
                {
                    "name": "D#5",
                    "midi": 75,
                    "time": 227.02764119531213,
                    "velocity": 0.9763779527559056,
                    "duration": 0.11980322851562164
                },
                {
                    "name": "C5",
                    "midi": 72,
                    "time": 227.1589539042965,
                    "velocity": 0.9763779527559056,
                    "duration": 0.11875691210937589
                },
                {
                    "name": "C4",
                    "midi": 60,
                    "time": 227.1589539042965,
                    "velocity": 0.8188976377952756,
                    "duration": 0.23908329882814883
                },
                {
                    "name": "D#4",
                    "midi": 63,
                    "time": 227.1589539042965,
                    "velocity": 0.8976377952755905,
                    "duration": 0.23908329882814883
                },
                {
                    "name": "G3",
                    "midi": 55,
                    "time": 227.1589539042965,
                    "velocity": 0.8818897637795275,
                    "duration": 0.23908329882814883
                },
                {
                    "name": "B4",
                    "midi": 71,
                    "time": 227.28922029687465,
                    "velocity": 0.9763779527559056,
                    "duration": 0.11928007031249876
                },
                {
                    "name": "C5",
                    "midi": 72,
                    "time": 227.41059299999964,
                    "velocity": 0.9763779527559056,
                    "duration": 0.047607396484380615
                },
                {
                    "name": "C4",
                    "midi": 60,
                    "time": 227.41948668945275,
                    "velocity": 0.8188976377952756,
                    "duration": 0.23908329882814883
                },
                {
                    "name": "D#4",
                    "midi": 63,
                    "time": 227.41948668945275,
                    "velocity": 0.8976377952755905,
                    "duration": 0.23908329882814883
                },
                {
                    "name": "G3",
                    "midi": 55,
                    "time": 227.41948668945275,
                    "velocity": 0.8818897637795275,
                    "duration": 0.23908329882814883
                },
                {
                    "name": "B4",
                    "midi": 71,
                    "time": 227.45349197265588,
                    "velocity": 0.9763779527559056,
                    "duration": 0.047607396484380615
                },
                {
                    "name": "C5",
                    "midi": 72,
                    "time": 227.49639094531213,
                    "velocity": 0.937007874015748,
                    "duration": 0.04446844726564336
                },
                {
                    "name": "D#5",
                    "midi": 75,
                    "time": 227.5497530820309,
                    "velocity": 0.9763779527559056,
                    "duration": 0.11928007031249876
                },
                {
                    "name": "C5",
                    "midi": 72,
                    "time": 227.68001947460903,
                    "velocity": 0.9763779527559056,
                    "duration": 0.12084954492186739
                },
                {
                    "name": "C4",
                    "midi": 60,
                    "time": 227.68001947460903,
                    "velocity": 0.8188976377952756,
                    "duration": 0.24222224804688608
                },
                {
                    "name": "D#4",
                    "midi": 63,
                    "time": 227.68001947460903,
                    "velocity": 0.8976377952755905,
                    "duration": 0.24222224804688608
                },
                {
                    "name": "G3",
                    "midi": 55,
                    "time": 227.68001947460903,
                    "velocity": 0.8818897637795275,
                    "duration": 0.24222224804688608
                },
                {
                    "name": "B4",
                    "midi": 71,
                    "time": 227.81185534179653,
                    "velocity": 0.9763779527559056,
                    "duration": 0.12084954492186739
                },
                {
                    "name": "C4",
                    "midi": 60,
                    "time": 227.94369120898403,
                    "velocity": 0.8188976377952756,
                    "duration": 0.24902330468751188
                },
                {
                    "name": "D#4",
                    "midi": 63,
                    "time": 227.94369120898403,
                    "velocity": 0.8976377952755905,
                    "duration": 0.24902330468751188
                },
                {
                    "name": "G3",
                    "midi": 55,
                    "time": 227.94369120898403,
                    "velocity": 0.8818897637795275,
                    "duration": 0.2804127968749981
                },
                {
                    "name": "C5",
                    "midi": 72,
                    "time": 227.94630699999965,
                    "velocity": 0.9763779527559056,
                    "duration": 0.047607396484380615
                },
                {
                    "name": "B4",
                    "midi": 71,
                    "time": 227.9892059726559,
                    "velocity": 0.9763779527559056,
                    "duration": 0.047607396484380615
                },
                {
                    "name": "C5",
                    "midi": 72,
                    "time": 228.03210494531214,
                    "velocity": 0.937007874015748,
                    "duration": 0.04446844726564336
                },
                {
                    "name": "D#5",
                    "midi": 75,
                    "time": 228.07657339257779,
                    "velocity": 0.9763779527559056,
                    "duration": 0.12660428515624744
                },
                {
                    "name": "A4",
                    "midi": 69,
                    "time": 228.21416399999967,
                    "velocity": 1,
                    "duration": 0.14439166406248205
                },
                {
                    "name": "C4",
                    "midi": 60,
                    "time": 228.21416399999967,
                    "velocity": 0.8503937007874016,
                    "duration": 0.26733384179686936
                },
                {
                    "name": "D#4",
                    "midi": 63,
                    "time": 228.21416399999967,
                    "velocity": 0.9291338582677166,
                    "duration": 0.26733384179686936
                },
                {
                    "name": "F#3",
                    "midi": 54,
                    "time": 228.21416399999967,
                    "velocity": 0.9133858267716536,
                    "duration": 0.26733384179686936
                },
                {
                    "name": "G4",
                    "midi": 67,
                    "time": 228.3700651445309,
                    "velocity": 0.9763779527559056,
                    "duration": 0.12137270312499027
                },
                {
                    "name": "A4",
                    "midi": 69,
                    "time": 228.48202099999966,
                    "velocity": 0.9763779527559056,
                    "duration": 0.047607396484380615
                },
                {
                    "name": "C4",
                    "midi": 60,
                    "time": 228.50294732812466,
                    "velocity": 0.8188976377952756,
                    "duration": 0.2416990898437632
                },
                {
                    "name": "D#4",
                    "midi": 63,
                    "time": 228.50294732812466,
                    "velocity": 0.8976377952755905,
                    "duration": 0.2416990898437632
                },
                {
                    "name": "F#3",
                    "midi": 54,
                    "time": 228.50294732812466,
                    "velocity": 0.8818897637795275,
                    "duration": 0.2416990898437632
                },
                {
                    "name": "G4",
                    "midi": 67,
                    "time": 228.5249199726559,
                    "velocity": 0.9763779527559056,
                    "duration": 0.047607396484380615
                },
                {
                    "name": "A4",
                    "midi": 69,
                    "time": 228.56781894531215,
                    "velocity": 0.937007874015748,
                    "duration": 0.04446844726564336
                },
                {
                    "name": "C5",
                    "midi": 72,
                    "time": 228.63478319531217,
                    "velocity": 0.9763779527559056,
                    "duration": 0.11980322851562164
                },
                {
                    "name": "A4",
                    "midi": 69,
                    "time": 228.76609590429655,
                    "velocity": 0.9763779527559056,
                    "duration": 0.11875691210937589
                },
                {
                    "name": "C4",
                    "midi": 60,
                    "time": 228.76609590429655,
                    "velocity": 0.8188976377952756,
                    "duration": 0.23908329882814883
                },
                {
                    "name": "D#4",
                    "midi": 63,
                    "time": 228.76609590429655,
                    "velocity": 0.8976377952755905,
                    "duration": 0.23908329882814883
                },
                {
                    "name": "F#3",
                    "midi": 54,
                    "time": 228.76609590429655,
                    "velocity": 0.8818897637795275,
                    "duration": 0.23908329882814883
                },
                {
                    "name": "G4",
                    "midi": 67,
                    "time": 228.89636229687468,
                    "velocity": 0.9763779527559056,
                    "duration": 0.11928007031249876
                },
                {
                    "name": "A4",
                    "midi": 69,
                    "time": 229.01773499999967,
                    "velocity": 0.9763779527559056,
                    "duration": 0.047607396484380615
                },
                {
                    "name": "C4",
                    "midi": 60,
                    "time": 229.0266286894528,
                    "velocity": 0.8188976377952756,
                    "duration": 0.23908329882814883
                },
                {
                    "name": "D#4",
                    "midi": 63,
                    "time": 229.0266286894528,
                    "velocity": 0.8976377952755905,
                    "duration": 0.23908329882814883
                },
                {
                    "name": "F#3",
                    "midi": 54,
                    "time": 229.0266286894528,
                    "velocity": 0.8818897637795275,
                    "duration": 0.23908329882814883
                },
                {
                    "name": "G4",
                    "midi": 67,
                    "time": 229.06063397265592,
                    "velocity": 0.9763779527559056,
                    "duration": 0.047607396484380615
                },
                {
                    "name": "A4",
                    "midi": 69,
                    "time": 229.10353294531217,
                    "velocity": 0.937007874015748,
                    "duration": 0.04446844726564336
                },
                {
                    "name": "C5",
                    "midi": 72,
                    "time": 229.15689508203093,
                    "velocity": 0.9763779527559056,
                    "duration": 0.11928007031249876
                },
                {
                    "name": "A4",
                    "midi": 69,
                    "time": 229.28716147460906,
                    "velocity": 0.9763779527559056,
                    "duration": 0.12084954492186739
                },
                {
                    "name": "C4",
                    "midi": 60,
                    "time": 229.28716147460906,
                    "velocity": 0.8188976377952756,
                    "duration": 0.24222224804688608
                },
                {
                    "name": "D#4",
                    "midi": 63,
                    "time": 229.28716147460906,
                    "velocity": 0.8976377952755905,
                    "duration": 0.24222224804688608
                },
                {
                    "name": "F#3",
                    "midi": 54,
                    "time": 229.28716147460906,
                    "velocity": 0.8818897637795275,
                    "duration": 0.24222224804688608
                },
                {
                    "name": "G4",
                    "midi": 67,
                    "time": 229.41899734179657,
                    "velocity": 0.9763779527559056,
                    "duration": 0.12084954492186739
                },
                {
                    "name": "C4",
                    "midi": 60,
                    "time": 229.55083320898407,
                    "velocity": 0.8188976377952756,
                    "duration": 0.2804127968749981
                },
                {
                    "name": "D#4",
                    "midi": 63,
                    "time": 229.55083320898407,
                    "velocity": 0.9291338582677166,
                    "duration": 0.24902330468751188
                },
                {
                    "name": "F#3",
                    "midi": 54,
                    "time": 229.55083320898407,
                    "velocity": 0.8818897637795275,
                    "duration": 0.2804127968749981
                },
                {
                    "name": "A4",
                    "midi": 69,
                    "time": 229.5534489999997,
                    "velocity": 0.9763779527559056,
                    "duration": 0.047607396484380615
                },
                {
                    "name": "G4",
                    "midi": 67,
                    "time": 229.59634797265593,
                    "velocity": 0.9763779527559056,
                    "duration": 0.047607396484380615
                },
                {
                    "name": "A4",
                    "midi": 69,
                    "time": 229.63924694531218,
                    "velocity": 0.937007874015748,
                    "duration": 0.04446844726564336
                },
                {
                    "name": "C5",
                    "midi": 72,
                    "time": 229.68371539257782,
                    "velocity": 0.9763779527559056,
                    "duration": 0.12660428515624744
                },
                {
                    "name": "A#4",
                    "midi": 70,
                    "time": 229.8213059999997,
                    "velocity": 1,
                    "duration": 0.14439166406248205
                },
                {
                    "name": "A#3",
                    "midi": 58,
                    "time": 229.8213059999997,
                    "velocity": 0.8503937007874016,
                    "duration": 0.26733384179686936
                },
                {
                    "name": "D4",
                    "midi": 62,
                    "time": 229.8213059999997,
                    "velocity": 0.9606299212598425,
                    "duration": 0.26733384179686936
                },
                {
                    "name": "F3",
                    "midi": 53,
                    "time": 229.8213059999997,
                    "velocity": 0.9133858267716536,
                    "duration": 0.26733384179686936
                },
                {
                    "name": "A4",
                    "midi": 69,
                    "time": 229.97720714453095,
                    "velocity": 0.9763779527559056,
                    "duration": 0.12137270312499027
                },
                {
                    "name": "A#4",
                    "midi": 70,
                    "time": 230.0891629999997,
                    "velocity": 0.9763779527559056,
                    "duration": 0.047607396484380615
                },
                {
                    "name": "A#3",
                    "midi": 58,
                    "time": 230.1100893281247,
                    "velocity": 0.8188976377952756,
                    "duration": 0.2416990898437632
                },
                {
                    "name": "D4",
                    "midi": 62,
                    "time": 230.1100893281247,
                    "velocity": 0.8976377952755905,
                    "duration": 0.2416990898437632
                },
                {
                    "name": "F3",
                    "midi": 53,
                    "time": 230.1100893281247,
                    "velocity": 0.8818897637795275,
                    "duration": 0.2416990898437632
                },
                {
                    "name": "A4",
                    "midi": 69,
                    "time": 230.13206197265595,
                    "velocity": 0.9763779527559056,
                    "duration": 0.047607396484380615
                },
                {
                    "name": "A#4",
                    "midi": 70,
                    "time": 230.1749609453122,
                    "velocity": 0.937007874015748,
                    "duration": 0.04446844726564336
                },
                {
                    "name": "D5",
                    "midi": 74,
                    "time": 230.2419251953122,
                    "velocity": 0.9763779527559056,
                    "duration": 0.11980322851562164
                },
                {
                    "name": "A#4",
                    "midi": 70,
                    "time": 230.3732379042966,
                    "velocity": 0.9763779527559056,
                    "duration": 0.11875691210937589
                },
                {
                    "name": "A#3",
                    "midi": 58,
                    "time": 230.3732379042966,
                    "velocity": 0.8188976377952756,
                    "duration": 0.23908329882814883
                },
                {
                    "name": "D4",
                    "midi": 62,
                    "time": 230.3732379042966,
                    "velocity": 0.8976377952755905,
                    "duration": 0.23908329882814883
                },
                {
                    "name": "F3",
                    "midi": 53,
                    "time": 230.3732379042966,
                    "velocity": 0.8818897637795275,
                    "duration": 0.23908329882814883
                },
                {
                    "name": "A4",
                    "midi": 69,
                    "time": 230.50350429687472,
                    "velocity": 0.9763779527559056,
                    "duration": 0.11928007031249876
                },
                {
                    "name": "A#4",
                    "midi": 70,
                    "time": 230.6248769999997,
                    "velocity": 0.9763779527559056,
                    "duration": 0.047607396484380615
                },
                {
                    "name": "A#3",
                    "midi": 58,
                    "time": 230.63377068945283,
                    "velocity": 0.8188976377952756,
                    "duration": 0.23908329882814883
                },
                {
                    "name": "D4",
                    "midi": 62,
                    "time": 230.63377068945283,
                    "velocity": 0.8976377952755905,
                    "duration": 0.23908329882814883
                },
                {
                    "name": "F3",
                    "midi": 53,
                    "time": 230.63377068945283,
                    "velocity": 0.8818897637795275,
                    "duration": 0.23908329882814883
                },
                {
                    "name": "A4",
                    "midi": 69,
                    "time": 230.66777597265596,
                    "velocity": 0.9763779527559056,
                    "duration": 0.047607396484380615
                },
                {
                    "name": "A#4",
                    "midi": 70,
                    "time": 230.7106749453122,
                    "velocity": 0.937007874015748,
                    "duration": 0.04446844726564336
                },
                {
                    "name": "D5",
                    "midi": 74,
                    "time": 230.76403708203097,
                    "velocity": 0.9763779527559056,
                    "duration": 0.11928007031249876
                },
                {
                    "name": "A#4",
                    "midi": 70,
                    "time": 230.8943034746091,
                    "velocity": 0.9763779527559056,
                    "duration": 0.12084954492186739
                },
                {
                    "name": "A#3",
                    "midi": 58,
                    "time": 230.8943034746091,
                    "velocity": 0.8188976377952756,
                    "duration": 0.24222224804688608
                },
                {
                    "name": "D4",
                    "midi": 62,
                    "time": 230.8943034746091,
                    "velocity": 0.8976377952755905,
                    "duration": 0.24222224804688608
                },
                {
                    "name": "F3",
                    "midi": 53,
                    "time": 230.8943034746091,
                    "velocity": 0.8818897637795275,
                    "duration": 0.24222224804688608
                },
                {
                    "name": "A4",
                    "midi": 69,
                    "time": 231.0261393417966,
                    "velocity": 0.9763779527559056,
                    "duration": 0.12084954492186739
                },
                {
                    "name": "A#3",
                    "midi": 58,
                    "time": 231.1579752089841,
                    "velocity": 0.8188976377952756,
                    "duration": 0.24902330468751188
                },
                {
                    "name": "D4",
                    "midi": 62,
                    "time": 231.1579752089841,
                    "velocity": 0.8976377952755905,
                    "duration": 0.24902330468751188
                },
                {
                    "name": "F3",
                    "midi": 53,
                    "time": 231.1579752089841,
                    "velocity": 0.8818897637795275,
                    "duration": 0.2804127968749981
                },
                {
                    "name": "A#4",
                    "midi": 70,
                    "time": 231.16059099999973,
                    "velocity": 0.9763779527559056,
                    "duration": 0.047607396484380615
                },
                {
                    "name": "A4",
                    "midi": 69,
                    "time": 231.20348997265597,
                    "velocity": 0.9763779527559056,
                    "duration": 0.047607396484380615
                },
                {
                    "name": "A#4",
                    "midi": 70,
                    "time": 231.24638894531222,
                    "velocity": 0.937007874015748,
                    "duration": 0.04446844726564336
                },
                {
                    "name": "D5",
                    "midi": 74,
                    "time": 231.29085739257786,
                    "velocity": 0.9763779527559056,
                    "duration": 0.12660428515624744
                },
                {
                    "name": "G4",
                    "midi": 67,
                    "time": 231.42844799999975,
                    "velocity": 1,
                    "duration": 0.14439166406248205
                },
                {
                    "name": "A#3",
                    "midi": 58,
                    "time": 231.42844799999975,
                    "velocity": 0.8503937007874016,
                    "duration": 0.26733384179686936
                },
                {
                    "name": "D4",
                    "midi": 62,
                    "time": 231.42844799999975,
                    "velocity": 0.9291338582677166,
                    "duration": 0.26733384179686936
                },
                {
                    "name": "E3",
                    "midi": 52,
                    "time": 231.42844799999975,
                    "velocity": 0.9133858267716536,
                    "duration": 0.26733384179686936
                },
                {
                    "name": "F#4",
                    "midi": 66,
                    "time": 231.584349144531,
                    "velocity": 0.9763779527559056,
                    "duration": 0.12137270312499027
                },
                {
                    "name": "G4",
                    "midi": 67,
                    "time": 231.69630499999974,
                    "velocity": 0.9763779527559056,
                    "duration": 0.047607396484380615
                },
                {
                    "name": "A#3",
                    "midi": 58,
                    "time": 231.71723132812474,
                    "velocity": 0.8188976377952756,
                    "duration": 0.2416990898437632
                },
                {
                    "name": "D4",
                    "midi": 62,
                    "time": 231.71723132812474,
                    "velocity": 0.8976377952755905,
                    "duration": 0.2416990898437632
                },
                {
                    "name": "E3",
                    "midi": 52,
                    "time": 231.71723132812474,
                    "velocity": 0.8818897637795275,
                    "duration": 0.2416990898437632
                },
                {
                    "name": "F#4",
                    "midi": 66,
                    "time": 231.739203972656,
                    "velocity": 0.9763779527559056,
                    "duration": 0.047607396484380615
                },
                {
                    "name": "G4",
                    "midi": 67,
                    "time": 231.78210294531223,
                    "velocity": 0.937007874015748,
                    "duration": 0.04446844726564336
                },
                {
                    "name": "A#4",
                    "midi": 70,
                    "time": 231.84906719531224,
                    "velocity": 0.9763779527559056,
                    "duration": 0.11980322851562164
                },
                {
                    "name": "G4",
                    "midi": 67,
                    "time": 231.98037990429663,
                    "velocity": 0.9763779527559056,
                    "duration": 0.11875691210937589
                },
                {
                    "name": "A#3",
                    "midi": 58,
                    "time": 231.98037990429663,
                    "velocity": 0.8188976377952756,
                    "duration": 0.23908329882814883
                },
                {
                    "name": "D4",
                    "midi": 62,
                    "time": 231.98037990429663,
                    "velocity": 0.8976377952755905,
                    "duration": 0.23908329882814883
                },
                {
                    "name": "E3",
                    "midi": 52,
                    "time": 231.98037990429663,
                    "velocity": 0.8818897637795275,
                    "duration": 0.23908329882814883
                },
                {
                    "name": "F#4",
                    "midi": 66,
                    "time": 232.11064629687476,
                    "velocity": 0.9763779527559056,
                    "duration": 0.11928007031249876
                },
                {
                    "name": "G4",
                    "midi": 67,
                    "time": 232.23201899999975,
                    "velocity": 0.9763779527559056,
                    "duration": 0.047607396484380615
                },
                {
                    "name": "A#3",
                    "midi": 58,
                    "time": 232.24091268945287,
                    "velocity": 0.8188976377952756,
                    "duration": 0.23908329882814883
                },
                {
                    "name": "D4",
                    "midi": 62,
                    "time": 232.24091268945287,
                    "velocity": 0.8976377952755905,
                    "duration": 0.23908329882814883
                },
                {
                    "name": "E3",
                    "midi": 52,
                    "time": 232.24091268945287,
                    "velocity": 0.8818897637795275,
                    "duration": 0.23908329882814883
                },
                {
                    "name": "F#4",
                    "midi": 66,
                    "time": 232.274917972656,
                    "velocity": 0.9763779527559056,
                    "duration": 0.047607396484380615
                },
                {
                    "name": "G4",
                    "midi": 67,
                    "time": 232.31781694531225,
                    "velocity": 0.937007874015748,
                    "duration": 0.04446844726564336
                },
                {
                    "name": "A#4",
                    "midi": 70,
                    "time": 232.371179082031,
                    "velocity": 0.9763779527559056,
                    "duration": 0.11928007031249876
                },
                {
                    "name": "G4",
                    "midi": 67,
                    "time": 232.50144547460914,
                    "velocity": 0.9763779527559056,
                    "duration": 0.12084954492186739
                },
                {
                    "name": "A#3",
                    "midi": 58,
                    "time": 232.50144547460914,
                    "velocity": 0.8188976377952756,
                    "duration": 0.24222224804688608
                },
                {
                    "name": "D4",
                    "midi": 62,
                    "time": 232.50144547460914,
                    "velocity": 0.8976377952755905,
                    "duration": 0.24222224804688608
                },
                {
                    "name": "E3",
                    "midi": 52,
                    "time": 232.50144547460914,
                    "velocity": 0.8818897637795275,
                    "duration": 0.24222224804688608
                },
                {
                    "name": "F#4",
                    "midi": 66,
                    "time": 232.63328134179665,
                    "velocity": 0.9763779527559056,
                    "duration": 0.12084954492186739
                },
                {
                    "name": "A#3",
                    "midi": 58,
                    "time": 232.76511720898415,
                    "velocity": 0.8188976377952756,
                    "duration": 0.2804127968749981
                },
                {
                    "name": "D4",
                    "midi": 62,
                    "time": 232.76511720898415,
                    "velocity": 0.9291338582677166,
                    "duration": 0.24902330468751188
                },
                {
                    "name": "E3",
                    "midi": 52,
                    "time": 232.76511720898415,
                    "velocity": 0.8818897637795275,
                    "duration": 0.2804127968749981
                },
                {
                    "name": "G4",
                    "midi": 67,
                    "time": 232.76773299999977,
                    "velocity": 0.9763779527559056,
                    "duration": 0.047607396484380615
                },
                {
                    "name": "F#4",
                    "midi": 66,
                    "time": 232.810631972656,
                    "velocity": 0.9763779527559056,
                    "duration": 0.047607396484380615
                },
                {
                    "name": "G4",
                    "midi": 67,
                    "time": 232.85353094531226,
                    "velocity": 0.937007874015748,
                    "duration": 0.04446844726564336
                },
                {
                    "name": "A#4",
                    "midi": 70,
                    "time": 232.8979993925779,
                    "velocity": 0.9763779527559056,
                    "duration": 0.12660428515624744
                },
                {
                    "name": "A4",
                    "midi": 69,
                    "time": 233.0355899999998,
                    "velocity": 1,
                    "duration": 0.14439166406248205
                },
                {
                    "name": "A3",
                    "midi": 57,
                    "time": 233.0355899999998,
                    "velocity": 0.8503937007874016,
                    "duration": 0.26733384179686936
                },
                {
                    "name": "C4",
                    "midi": 60,
                    "time": 233.0355899999998,
                    "velocity": 0.9606299212598425,
                    "duration": 0.26733384179686936
                },
                {
                    "name": "D#3",
                    "midi": 51,
                    "time": 233.0355899999998,
                    "velocity": 0.9133858267716536,
                    "duration": 0.26733384179686936
                },
                {
                    "name": "G4",
                    "midi": 67,
                    "time": 233.19149114453103,
                    "velocity": 0.9763779527559056,
                    "duration": 0.12137270312499027
                },
                {
                    "name": "A4",
                    "midi": 69,
                    "time": 233.30344699999978,
                    "velocity": 0.9763779527559056,
                    "duration": 0.047607396484380615
                },
                {
                    "name": "A3",
                    "midi": 57,
                    "time": 233.32437332812478,
                    "velocity": 0.8188976377952756,
                    "duration": 0.2416990898437632
                },
                {
                    "name": "C4",
                    "midi": 60,
                    "time": 233.32437332812478,
                    "velocity": 0.8976377952755905,
                    "duration": 0.2416990898437632
                },
                {
                    "name": "D#3",
                    "midi": 51,
                    "time": 233.32437332812478,
                    "velocity": 0.8818897637795275,
                    "duration": 0.2416990898437632
                },
                {
                    "name": "G4",
                    "midi": 67,
                    "time": 233.34634597265602,
                    "velocity": 0.9763779527559056,
                    "duration": 0.047607396484380615
                },
                {
                    "name": "A4",
                    "midi": 69,
                    "time": 233.38924494531227,
                    "velocity": 0.937007874015748,
                    "duration": 0.04446844726564336
                },
                {
                    "name": "C5",
                    "midi": 72,
                    "time": 233.45620919531228,
                    "velocity": 0.9763779527559056,
                    "duration": 0.11980322851562164
                },
                {
                    "name": "A4",
                    "midi": 69,
                    "time": 233.58752190429666,
                    "velocity": 0.9763779527559056,
                    "duration": 0.11875691210937589
                },
                {
                    "name": "A3",
                    "midi": 57,
                    "time": 233.58752190429666,
                    "velocity": 0.8188976377952756,
                    "duration": 0.23908329882814883
                },
                {
                    "name": "C4",
                    "midi": 60,
                    "time": 233.58752190429666,
                    "velocity": 0.8976377952755905,
                    "duration": 0.23908329882814883
                },
                {
                    "name": "D#3",
                    "midi": 51,
                    "time": 233.58752190429666,
                    "velocity": 0.8818897637795275,
                    "duration": 0.23908329882814883
                },
                {
                    "name": "G4",
                    "midi": 67,
                    "time": 233.7177882968748,
                    "velocity": 0.9763779527559056,
                    "duration": 0.11928007031249876
                },
                {
                    "name": "A4",
                    "midi": 69,
                    "time": 233.8391609999998,
                    "velocity": 0.9763779527559056,
                    "duration": 0.047607396484380615
                },
                {
                    "name": "A3",
                    "midi": 57,
                    "time": 233.8480546894529,
                    "velocity": 0.8188976377952756,
                    "duration": 0.23908329882814883
                },
                {
                    "name": "C4",
                    "midi": 60,
                    "time": 233.8480546894529,
                    "velocity": 0.8976377952755905,
                    "duration": 0.23908329882814883
                },
                {
                    "name": "D#3",
                    "midi": 51,
                    "time": 233.8480546894529,
                    "velocity": 0.8818897637795275,
                    "duration": 0.23908329882814883
                },
                {
                    "name": "G4",
                    "midi": 67,
                    "time": 233.88205997265604,
                    "velocity": 0.9763779527559056,
                    "duration": 0.047607396484380615
                },
                {
                    "name": "A4",
                    "midi": 69,
                    "time": 233.92495894531228,
                    "velocity": 0.937007874015748,
                    "duration": 0.04446844726564336
                },
                {
                    "name": "C5",
                    "midi": 72,
                    "time": 233.97832108203104,
                    "velocity": 0.9763779527559056,
                    "duration": 0.11928007031249876
                },
                {
                    "name": "A4",
                    "midi": 69,
                    "time": 234.10858747460918,
                    "velocity": 0.9763779527559056,
                    "duration": 0.12084954492186739
                },
                {
                    "name": "A3",
                    "midi": 57,
                    "time": 234.10858747460918,
                    "velocity": 0.8188976377952756,
                    "duration": 0.24222224804688608
                },
                {
                    "name": "C4",
                    "midi": 60,
                    "time": 234.10858747460918,
                    "velocity": 0.8976377952755905,
                    "duration": 0.24222224804688608
                },
                {
                    "name": "D#3",
                    "midi": 51,
                    "time": 234.10858747460918,
                    "velocity": 0.8818897637795275,
                    "duration": 0.24222224804688608
                },
                {
                    "name": "G4",
                    "midi": 67,
                    "time": 234.24042334179669,
                    "velocity": 0.9763779527559056,
                    "duration": 0.12084954492186739
                },
                {
                    "name": "A3",
                    "midi": 57,
                    "time": 234.3722592089842,
                    "velocity": 0.8188976377952756,
                    "duration": 0.24902330468751188
                },
                {
                    "name": "C4",
                    "midi": 60,
                    "time": 234.3722592089842,
                    "velocity": 0.9291338582677166,
                    "duration": 0.24902330468751188
                },
                {
                    "name": "D#3",
                    "midi": 51,
                    "time": 234.3722592089842,
                    "velocity": 0.8818897637795275,
                    "duration": 0.2804127968749981
                },
                {
                    "name": "A4",
                    "midi": 69,
                    "time": 234.3748749999998,
                    "velocity": 0.9763779527559056,
                    "duration": 0.047607396484380615
                },
                {
                    "name": "G4",
                    "midi": 67,
                    "time": 234.41777397265605,
                    "velocity": 0.9763779527559056,
                    "duration": 0.047607396484380615
                },
                {
                    "name": "A4",
                    "midi": 69,
                    "time": 234.4606729453123,
                    "velocity": 0.937007874015748,
                    "duration": 0.04446844726564336
                },
                {
                    "name": "C5",
                    "midi": 72,
                    "time": 234.50514139257794,
                    "velocity": 0.9763779527559056,
                    "duration": 0.12660428515624744
                },
                {
                    "name": "G4",
                    "midi": 67,
                    "time": 234.64273199999982,
                    "velocity": 1,
                    "duration": 0.08527478710934133
                },
                {
                    "name": "A3",
                    "midi": 57,
                    "time": 234.64273199999982,
                    "velocity": 0.9133858267716536,
                    "duration": 1.0724743164062147
                },
                {
                    "name": "D4",
                    "midi": 62,
                    "time": 234.64273199999982,
                    "velocity": 1,
                    "duration": 1.0724743164062147
                },
                {
                    "name": "D3",
                    "midi": 50,
                    "time": 234.64273199999982,
                    "velocity": 0.9763779527559056,
                    "duration": 1.0724743164062147
                },
                {
                    "name": "F#4",
                    "midi": 66,
                    "time": 234.71911309765605,
                    "velocity": 0.9763779527559056,
                    "duration": 0.08527478710936975
                },
                {
                    "name": "G4",
                    "midi": 67,
                    "time": 234.7954941953123,
                    "velocity": 0.9763779527559056,
                    "duration": 0.08527478710936975
                },
                {
                    "name": "F#4",
                    "midi": 66,
                    "time": 234.87187529296855,
                    "velocity": 0.937007874015748,
                    "duration": 0.84228470703124
                },
                {
                    "name": "D#5",
                    "midi": 75,
                    "time": 236.24987399999978,
                    "velocity": 1,
                    "duration": 0.09626110937497856
                },
                {
                    "name": "G4",
                    "midi": 67,
                    "time": 236.24987399999978,
                    "velocity": 1,
                    "duration": 0.26733384179684094
                },
                {
                    "name": "C4",
                    "midi": 60,
                    "time": 236.24987399999978,
                    "velocity": 1,
                    "duration": 0.26733384179684094
                },
                {
                    "name": "D5",
                    "midi": 74,
                    "time": 236.3361951035154,
                    "velocity": 0.9763779527559056,
                    "duration": 0.09626110937497856
                },
                {
                    "name": "D#5",
                    "midi": 75,
                    "time": 236.422516207031,
                    "velocity": 0.937007874015748,
                    "duration": 0.08789057812498413
                },
                {
                    "name": "D#5",
                    "midi": 75,
                    "time": 236.53865732812474,
                    "velocity": 0.9763779527559056,
                    "duration": 0.2254811855468688
                },
                {
                    "name": "G4",
                    "midi": 67,
                    "time": 236.53865732812474,
                    "velocity": 0.9763779527559056,
                    "duration": 0.24169908984373478
                },
                {
                    "name": "C4",
                    "midi": 60,
                    "time": 236.53865732812474,
                    "velocity": 0.9763779527559056,
                    "duration": 0.24169908984373478
                },
                {
                    "name": "D#5",
                    "midi": 75,
                    "time": 236.78558799999973,
                    "velocity": 0.9763779527559056,
                    "duration": 0.09626110937497856
                },
                {
                    "name": "G4",
                    "midi": 67,
                    "time": 236.8018059042966,
                    "velocity": 0.9763779527559056,
                    "duration": 0.23908329882809198
                },
                {
                    "name": "C4",
                    "midi": 60,
                    "time": 236.8018059042966,
                    "velocity": 0.9763779527559056,
                    "duration": 0.23908329882809198
                },
                {
                    "name": "D5",
                    "midi": 74,
                    "time": 236.87190910351535,
                    "velocity": 0.9763779527559056,
                    "duration": 0.09626110937497856
                },
                {
                    "name": "D#5",
                    "midi": 75,
                    "time": 236.95823020703097,
                    "velocity": 0.937007874015748,
                    "duration": 0.08789057812498413
                },
                {
                    "name": "D#5",
                    "midi": 75,
                    "time": 237.06233868945282,
                    "velocity": 0.9763779527559056,
                    "duration": 0.2390832988281204
                },
                {
                    "name": "G4",
                    "midi": 67,
                    "time": 237.06233868945282,
                    "velocity": 0.9763779527559056,
                    "duration": 0.2390832988281204
                },
                {
                    "name": "C4",
                    "midi": 60,
                    "time": 237.06233868945282,
                    "velocity": 0.9763779527559056,
                    "duration": 0.2390832988281204
                },
                {
                    "name": "D5",
                    "midi": 74,
                    "time": 237.32287147460906,
                    "velocity": 0.9763779527559056,
                    "duration": 0.24222224804688608
                },
                {
                    "name": "A4",
                    "midi": 69,
                    "time": 237.32287147460906,
                    "velocity": 0.9763779527559056,
                    "duration": 0.24222224804688608
                },
                {
                    "name": "C4",
                    "midi": 60,
                    "time": 237.32287147460906,
                    "velocity": 0.9763779527559056,
                    "duration": 0.24222224804688608
                },
                {
                    "name": "A4",
                    "midi": 69,
                    "time": 237.58654320898407,
                    "velocity": 0.9763779527559056,
                    "duration": 0.24902330468748346
                },
                {
                    "name": "C4",
                    "midi": 60,
                    "time": 237.58654320898407,
                    "velocity": 0.9763779527559056,
                    "duration": 0.24902330468748346
                },
                {
                    "name": "G5",
                    "midi": 79,
                    "time": 237.58915899999968,
                    "velocity": 0.9763779527559056,
                    "duration": 0.0706263574218724
                },
                {
                    "name": "F#5",
                    "midi": 78,
                    "time": 237.6524611425778,
                    "velocity": 0.9763779527559056,
                    "duration": 0.0706263574218724
                },
                {
                    "name": "G5",
                    "midi": 79,
                    "time": 237.71576328515593,
                    "velocity": 0.9763779527559056,
                    "duration": 0.0706263574218724
                },
                {
                    "name": "F#5",
                    "midi": 78,
                    "time": 237.77906542773405,
                    "velocity": 0.937007874015748,
                    "duration": 0.07219583203124103
                },
                {
                    "name": "F#5",
                    "midi": 78,
                    "time": 237.85701599999967,
                    "velocity": 0.9763779527559056,
                    "duration": 0.06748740820313515
                },
                {
                    "name": "A#4",
                    "midi": 70,
                    "time": 237.85701599999967,
                    "velocity": 1,
                    "duration": 0.2673338417968978
                },
                {
                    "name": "A#3",
                    "midi": 58,
                    "time": 237.85701599999967,
                    "velocity": 1,
                    "duration": 0.2673338417968978
                },
                {
                    "name": "G5",
                    "midi": 79,
                    "time": 237.91770235156218,
                    "velocity": 0.937007874015748,
                    "duration": 0.06748740820313515
                },
                {
                    "name": "D5",
                    "midi": 74,
                    "time": 238.01291714453095,
                    "velocity": 0.9763779527559056,
                    "duration": 0.12137270312499027
                },
                {
                    "name": "C5",
                    "midi": 72,
                    "time": 238.1457993281247,
                    "velocity": 0.9763779527559056,
                    "duration": 0.12032638671874452
                },
                {
                    "name": "A#4",
                    "midi": 70,
                    "time": 238.2776351953122,
                    "velocity": 0.9763779527559056,
                    "duration": 0.11980322851562164
                },
                {
                    "name": "A#4",
                    "midi": 70,
                    "time": 238.40894790429658,
                    "velocity": 0.9133858267716536,
                    "duration": 0.11875691210937589
                },
                {
                    "name": "D5",
                    "midi": 74,
                    "time": 238.40894790429658,
                    "velocity": 1,
                    "duration": 0.11875691210937589
                },
                {
                    "name": "A#4",
                    "midi": 70,
                    "time": 238.53921429687472,
                    "velocity": 0.9763779527559056,
                    "duration": 0.11928007031249876
                },
                {
                    "name": "A4",
                    "midi": 69,
                    "time": 238.66948068945285,
                    "velocity": 0.9763779527559056,
                    "duration": 0.11928007031249876
                },
                {
                    "name": "G4",
                    "midi": 67,
                    "time": 238.799747082031,
                    "velocity": 0.9763779527559056,
                    "duration": 0.11928007031249876
                },
                {
                    "name": "G4",
                    "midi": 67,
                    "time": 238.93001347460913,
                    "velocity": 0.9133858267716536,
                    "duration": 0.12084954492186739
                },
                {
                    "name": "A#4",
                    "midi": 70,
                    "time": 238.93001347460913,
                    "velocity": 1,
                    "duration": 0.12084954492186739
                },
                {
                    "name": "A#4",
                    "midi": 70,
                    "time": 239.06184934179663,
                    "velocity": 0.9763779527559056,
                    "duration": 0.12084954492186739
                },
                {
                    "name": "A4",
                    "midi": 69,
                    "time": 239.19368520898414,
                    "velocity": 0.9763779527559056,
                    "duration": 0.12189586132811314
                },
                {
                    "name": "G4",
                    "midi": 67,
                    "time": 239.32656739257789,
                    "velocity": 0.9763779527559056,
                    "duration": 0.12660428515624744
                },
                {
                    "name": "D#5",
                    "midi": 75,
                    "time": 239.46415799999977,
                    "velocity": 0.6614173228346457,
                    "duration": 0.26733384179686936
                },
                {
                    "name": "G4",
                    "midi": 67,
                    "time": 239.46415799999977,
                    "velocity": 0.6614173228346457,
                    "duration": 0.26733384179686936
                },
                {
                    "name": "C4",
                    "midi": 60,
                    "time": 239.46415799999977,
                    "velocity": 0.6614173228346457,
                    "duration": 0.26733384179686936
                },
                {
                    "name": "D#5",
                    "midi": 75,
                    "time": 239.75294132812476,
                    "velocity": 0.6299212598425197,
                    "duration": 0.2254811855468688
                },
                {
                    "name": "G4",
                    "midi": 67,
                    "time": 239.75294132812476,
                    "velocity": 0.6299212598425197,
                    "duration": 0.24169908984373478
                },
                {
                    "name": "C4",
                    "midi": 60,
                    "time": 239.75294132812476,
                    "velocity": 0.6299212598425197,
                    "duration": 0.24169908984373478
                },
                {
                    "name": "D#5",
                    "midi": 75,
                    "time": 239.99987199999975,
                    "velocity": 0.6299212598425197,
                    "duration": 0.09626110937497856
                },
                {
                    "name": "G4",
                    "midi": 67,
                    "time": 240.01608990429662,
                    "velocity": 0.6299212598425197,
                    "duration": 0.23908329882809198
                },
                {
                    "name": "C4",
                    "midi": 60,
                    "time": 240.01608990429662,
                    "velocity": 0.6299212598425197,
                    "duration": 0.23908329882809198
                },
                {
                    "name": "D5",
                    "midi": 74,
                    "time": 240.08619310351537,
                    "velocity": 0.6299212598425197,
                    "duration": 0.09626110937497856
                },
                {
                    "name": "D#5",
                    "midi": 75,
                    "time": 240.17251420703099,
                    "velocity": 0.5905511811023622,
                    "duration": 0.08789057812498413
                },
                {
                    "name": "D#5",
                    "midi": 75,
                    "time": 240.27662268945284,
                    "velocity": 0.6299212598425197,
                    "duration": 0.2390832988281204
                },
                {
                    "name": "G4",
                    "midi": 67,
                    "time": 240.27662268945284,
                    "velocity": 0.6299212598425197,
                    "duration": 0.2390832988281204
                },
                {
                    "name": "C4",
                    "midi": 60,
                    "time": 240.27662268945284,
                    "velocity": 0.6299212598425197,
                    "duration": 0.2390832988281204
                },
                {
                    "name": "D5",
                    "midi": 74,
                    "time": 240.53715547460908,
                    "velocity": 0.6299212598425197,
                    "duration": 0.24222224804688608
                },
                {
                    "name": "A4",
                    "midi": 69,
                    "time": 240.53715547460908,
                    "velocity": 0.6299212598425197,
                    "duration": 0.24222224804688608
                },
                {
                    "name": "C4",
                    "midi": 60,
                    "time": 240.53715547460908,
                    "velocity": 0.6299212598425197,
                    "duration": 0.24222224804688608
                },
                {
                    "name": "A4",
                    "midi": 69,
                    "time": 240.8008272089841,
                    "velocity": 0.6299212598425197,
                    "duration": 0.24902330468748346
                },
                {
                    "name": "C4",
                    "midi": 60,
                    "time": 240.8008272089841,
                    "velocity": 0.6299212598425197,
                    "duration": 0.24902330468748346
                },
                {
                    "name": "G5",
                    "midi": 79,
                    "time": 240.8034429999997,
                    "velocity": 0.6299212598425197,
                    "duration": 0.0706263574218724
                },
                {
                    "name": "F#5",
                    "midi": 78,
                    "time": 240.86674514257783,
                    "velocity": 0.6299212598425197,
                    "duration": 0.0706263574218724
                },
                {
                    "name": "G5",
                    "midi": 79,
                    "time": 240.93004728515595,
                    "velocity": 0.6299212598425197,
                    "duration": 0.0706263574218724
                },
                {
                    "name": "F#5",
                    "midi": 78,
                    "time": 240.99334942773407,
                    "velocity": 0.5905511811023622,
                    "duration": 0.07219583203124103
                },
                {
                    "name": "F#5",
                    "midi": 78,
                    "time": 241.0712999999997,
                    "velocity": 0.6299212598425197,
                    "duration": 0.06748740820313515
                },
                {
                    "name": "A#4",
                    "midi": 70,
                    "time": 241.0712999999997,
                    "velocity": 0.6614173228346457,
                    "duration": 0.2673338417968978
                },
                {
                    "name": "A#3",
                    "midi": 58,
                    "time": 241.0712999999997,
                    "velocity": 0.6614173228346457,
                    "duration": 0.2673338417968978
                },
                {
                    "name": "G5",
                    "midi": 79,
                    "time": 241.1319863515622,
                    "velocity": 0.5905511811023622,
                    "duration": 0.06748740820313515
                },
                {
                    "name": "D5",
                    "midi": 74,
                    "time": 241.22720114453097,
                    "velocity": 0.6299212598425197,
                    "duration": 0.12137270312499027
                },
                {
                    "name": "C5",
                    "midi": 72,
                    "time": 241.36008332812472,
                    "velocity": 0.6299212598425197,
                    "duration": 0.12032638671874452
                },
                {
                    "name": "A#4",
                    "midi": 70,
                    "time": 241.49191919531222,
                    "velocity": 0.6299212598425197,
                    "duration": 0.11980322851562164
                },
                {
                    "name": "A#4",
                    "midi": 70,
                    "time": 241.6232319042966,
                    "velocity": 0.5669291338582677,
                    "duration": 0.11875691210937589
                },
                {
                    "name": "D5",
                    "midi": 74,
                    "time": 241.6232319042966,
                    "velocity": 0.6771653543307087,
                    "duration": 0.11875691210937589
                },
                {
                    "name": "A#4",
                    "midi": 70,
                    "time": 241.75349829687474,
                    "velocity": 0.6299212598425197,
                    "duration": 0.11928007031249876
                },
                {
                    "name": "A4",
                    "midi": 69,
                    "time": 241.88376468945287,
                    "velocity": 0.6299212598425197,
                    "duration": 0.11928007031249876
                },
                {
                    "name": "G4",
                    "midi": 67,
                    "time": 242.014031082031,
                    "velocity": 0.6299212598425197,
                    "duration": 0.11928007031249876
                },
                {
                    "name": "G4",
                    "midi": 67,
                    "time": 242.14429747460915,
                    "velocity": 0.5669291338582677,
                    "duration": 0.12084954492186739
                },
                {
                    "name": "A#4",
                    "midi": 70,
                    "time": 242.14429747460915,
                    "velocity": 0.6771653543307087,
                    "duration": 0.12084954492186739
                },
                {
                    "name": "A#4",
                    "midi": 70,
                    "time": 242.27613334179665,
                    "velocity": 0.6299212598425197,
                    "duration": 0.12084954492186739
                },
                {
                    "name": "A4",
                    "midi": 69,
                    "time": 242.40796920898416,
                    "velocity": 0.6299212598425197,
                    "duration": 0.12189586132811314
                },
                {
                    "name": "G4",
                    "midi": 67,
                    "time": 242.5408513925779,
                    "velocity": 0.6299212598425197,
                    "duration": 0.12660428515624744
                },
                {
                    "name": "C5",
                    "midi": 72,
                    "time": 242.6784419999998,
                    "velocity": 1,
                    "duration": 0.09626110937497856
                },
                {
                    "name": "D#4",
                    "midi": 63,
                    "time": 242.6784419999998,
                    "velocity": 0.9448818897637795,
                    "duration": 0.26733384179684094
                },
                {
                    "name": "G4",
                    "midi": 67,
                    "time": 242.6784419999998,
                    "velocity": 1,
                    "duration": 0.26733384179684094
                },
                {
                    "name": "A#4",
                    "midi": 70,
                    "time": 242.7647631035154,
                    "velocity": 0.9763779527559056,
                    "duration": 0.09626110937497856
                },
                {
                    "name": "C5",
                    "midi": 72,
                    "time": 242.85108420703102,
                    "velocity": 0.937007874015748,
                    "duration": 0.08789057812498413
                },
                {
                    "name": "C5",
                    "midi": 72,
                    "time": 242.96722532812475,
                    "velocity": 0.8818897637795275,
                    "duration": 0.2254811855468688
                },
                {
                    "name": "D#4",
                    "midi": 63,
                    "time": 242.96722532812475,
                    "velocity": 0.9133858267716536,
                    "duration": 0.24169908984373478
                },
                {
                    "name": "G4",
                    "midi": 67,
                    "time": 242.96722532812475,
                    "velocity": 0.9921259842519685,
                    "duration": 0.24169908984373478
                },
                {
                    "name": "C5",
                    "midi": 72,
                    "time": 243.21415599999975,
                    "velocity": 0.9763779527559056,
                    "duration": 0.09626110937497856
                },
                {
                    "name": "D#4",
                    "midi": 63,
                    "time": 243.2303739042966,
                    "velocity": 0.9133858267716536,
                    "duration": 0.23908329882809198
                },
                {
                    "name": "G4",
                    "midi": 67,
                    "time": 243.2303739042966,
                    "velocity": 0.9921259842519685,
                    "duration": 0.23908329882809198
                },
                {
                    "name": "A#4",
                    "midi": 70,
                    "time": 243.30047710351536,
                    "velocity": 0.9763779527559056,
                    "duration": 0.09626110937497856
                },
                {
                    "name": "C5",
                    "midi": 72,
                    "time": 243.38679820703098,
                    "velocity": 0.937007874015748,
                    "duration": 0.08789057812498413
                },
                {
                    "name": "C5",
                    "midi": 72,
                    "time": 243.49090668945283,
                    "velocity": 0.8818897637795275,
                    "duration": 0.23751382421875178
                },
                {
                    "name": "D#4",
                    "midi": 63,
                    "time": 243.49090668945283,
                    "velocity": 0.9133858267716536,
                    "duration": 0.2390832988281204
                },
                {
                    "name": "G4",
                    "midi": 67,
                    "time": 243.49090668945283,
                    "velocity": 1,
                    "duration": 0.2390832988281204
                },
                {
                    "name": "C5",
                    "midi": 72,
                    "time": 243.7498699999997,
                    "velocity": 0.9763779527559056,
                    "duration": 0.09626110937497856
                },
                {
                    "name": "D#4",
                    "midi": 63,
                    "time": 243.75143947460907,
                    "velocity": 0.9133858267716536,
                    "duration": 0.24222224804685766
                },
                {
                    "name": "A4",
                    "midi": 69,
                    "time": 243.75143947460907,
                    "velocity": 1,
                    "duration": 0.24222224804685766
                },
                {
                    "name": "A#4",
                    "midi": 70,
                    "time": 243.83619110351532,
                    "velocity": 0.9763779527559056,
                    "duration": 0.09626110937497856
                },
                {
                    "name": "C5",
                    "midi": 72,
                    "time": 243.92251220703093,
                    "velocity": 0.937007874015748,
                    "duration": 0.08789057812498413
                },
                {
                    "name": "C5",
                    "midi": 72,
                    "time": 244.01511120898405,
                    "velocity": 0.8818897637795275,
                    "duration": 0.24902330468751188
                },
                {
                    "name": "D#4",
                    "midi": 63,
                    "time": 244.01511120898405,
                    "velocity": 0.9133858267716536,
                    "duration": 0.24902330468751188
                },
                {
                    "name": "G4",
                    "midi": 67,
                    "time": 244.01511120898405,
                    "velocity": 1,
                    "duration": 0.24902330468751188
                },
                {
                    "name": "C5",
                    "midi": 72,
                    "time": 244.2855839999997,
                    "velocity": 1,
                    "duration": 0.14439166406251047
                },
                {
                    "name": "D4",
                    "midi": 62,
                    "time": 244.2855839999997,
                    "velocity": 0.9448818897637795,
                    "duration": 0.2673338417968978
                },
                {
                    "name": "F#4",
                    "midi": 66,
                    "time": 244.2855839999997,
                    "velocity": 1,
                    "duration": 0.2673338417968978
                },
                {
                    "name": "D#5",
                    "midi": 75,
                    "time": 244.44148514453096,
                    "velocity": 0.9763779527559056,
                    "duration": 0.12137270312499027
                },
                {
                    "name": "D5",
                    "midi": 74,
                    "time": 244.5743673281247,
                    "velocity": 0.9763779527559056,
                    "duration": 0.12032638671874452
                },
                {
                    "name": "C5",
                    "midi": 72,
                    "time": 244.7062031953122,
                    "velocity": 0.9763779527559056,
                    "duration": 0.11980322851562164
                },
                {
                    "name": "A4",
                    "midi": 69,
                    "time": 244.8375159042966,
                    "velocity": 0.9133858267716536,
                    "duration": 0.11875691210937589
                },
                {
                    "name": "C5",
                    "midi": 72,
                    "time": 244.8375159042966,
                    "velocity": 1,
                    "duration": 0.11875691210937589
                },
                {
                    "name": "C5",
                    "midi": 72,
                    "time": 244.96778229687473,
                    "velocity": 0.9763779527559056,
                    "duration": 0.11928007031249876
                },
                {
                    "name": "A#4",
                    "midi": 70,
                    "time": 245.09804868945287,
                    "velocity": 0.9763779527559056,
                    "duration": 0.11928007031249876
                },
                {
                    "name": "A4",
                    "midi": 69,
                    "time": 245.228315082031,
                    "velocity": 0.9763779527559056,
                    "duration": 0.11928007031249876
                },
                {
                    "name": "D4",
                    "midi": 62,
                    "time": 245.35858147460914,
                    "velocity": 0.9133858267716536,
                    "duration": 0.12084954492186739
                },
                {
                    "name": "F#4",
                    "midi": 66,
                    "time": 245.35858147460914,
                    "velocity": 0.9133858267716536,
                    "duration": 0.12084954492186739
                },
                {
                    "name": "A4",
                    "midi": 69,
                    "time": 245.35858147460914,
                    "velocity": 1,
                    "duration": 0.12084954492186739
                },
                {
                    "name": "C5",
                    "midi": 72,
                    "time": 245.49041734179664,
                    "velocity": 0.9763779527559056,
                    "duration": 0.12084954492186739
                },
                {
                    "name": "A#4",
                    "midi": 70,
                    "time": 245.62225320898415,
                    "velocity": 0.9763779527559056,
                    "duration": 0.12189586132811314
                },
                {
                    "name": "A4",
                    "midi": 69,
                    "time": 245.7551353925779,
                    "velocity": 0.9763779527559056,
                    "duration": 0.12660428515624744
                },
                {
                    "name": "A#4",
                    "midi": 70,
                    "time": 245.89272599999978,
                    "velocity": 1,
                    "duration": 0.26733384179686936
                },
                {
                    "name": "G4",
                    "midi": 67,
                    "time": 245.89272599999978,
                    "velocity": 1,
                    "duration": 0.26733384179686936
                },
                {
                    "name": "D5",
                    "midi": 74,
                    "time": 246.18150932812478,
                    "velocity": 0.9763779527559056,
                    "duration": 0.2416990898437632
                },
                {
                    "name": "A#4",
                    "midi": 70,
                    "time": 246.18150932812478,
                    "velocity": 0.9763779527559056,
                    "duration": 0.2416990898437632
                },
                {
                    "name": "C5",
                    "midi": 72,
                    "time": 246.44465790429666,
                    "velocity": 0.9763779527559056,
                    "duration": 0.14543798046875622
                },
                {
                    "name": "G4",
                    "midi": 67,
                    "time": 246.44465790429666,
                    "velocity": 0.9763779527559056,
                    "duration": 0.2390832988281204
                },
                {
                    "name": "A#4",
                    "midi": 70,
                    "time": 246.5749242968748,
                    "velocity": 0.937007874015748,
                    "duration": 0.10620111523437004
                },
                {
                    "name": "A4",
                    "midi": 69,
                    "time": 246.7051906894529,
                    "velocity": 0.9763779527559056,
                    "duration": 0.14543798046875622
                },
                {
                    "name": "D#4",
                    "midi": 63,
                    "time": 246.7051906894529,
                    "velocity": 0.9763779527559056,
                    "duration": 0.2390832988281204
                },
                {
                    "name": "G4",
                    "midi": 67,
                    "time": 246.83545708203104,
                    "velocity": 0.937007874015748,
                    "duration": 0.10620111523437004
                },
                {
                    "name": "A#4",
                    "midi": 70,
                    "time": 246.96572347460915,
                    "velocity": 0.9763779527559056,
                    "duration": 0.14700745507812485
                },
                {
                    "name": "C4",
                    "midi": 60,
                    "time": 246.96572347460915,
                    "velocity": 0.9763779527559056,
                    "duration": 0.24222224804685766
                },
                {
                    "name": "A4",
                    "midi": 69,
                    "time": 247.09755934179665,
                    "velocity": 0.937007874015748,
                    "duration": 0.10777058984373866
                },
                {
                    "name": "G4",
                    "midi": 67,
                    "time": 247.22939520898413,
                    "velocity": 0.9763779527559056,
                    "duration": 0.1480537714843706
                },
                {
                    "name": "D4",
                    "midi": 62,
                    "time": 247.22939520898413,
                    "velocity": 0.9763779527559056,
                    "duration": 0.24902330468748346
                },
                {
                    "name": "F#4",
                    "midi": 66,
                    "time": 247.36227739257788,
                    "velocity": 0.937007874015748,
                    "duration": 0.11352533007811871
                },
                {
                    "name": "F#4",
                    "midi": 66,
                    "time": 247.49986799999974,
                    "velocity": 0.9763779527559056,
                    "duration": 0.17107273242186238
                },
                {
                    "name": "G3",
                    "midi": 55,
                    "time": 247.49986799999974,
                    "velocity": 1,
                    "duration": 0.26733384179686936
                },
                {
                    "name": "G4",
                    "midi": 67,
                    "time": 247.63379649999973,
                    "velocity": 0.9763779527559056,
                    "duration": 0.10358532421875566
                },
                {
                    "name": "F#4",
                    "midi": 66,
                    "time": 247.72639550195285,
                    "velocity": 0.9763779527559056,
                    "duration": 0.10358532421875566
                },
                {
                    "name": "G2",
                    "midi": 43,
                    "time": 247.78865132812473,
                    "velocity": 0.6299212598425197,
                    "duration": 0.2416990898437632
                },
                {
                    "name": "G4",
                    "midi": 67,
                    "time": 247.81899450390597,
                    "velocity": 0.5905511811023622,
                    "duration": 0.19932327539063976
                },
                {
                    "name": "G2",
                    "midi": 43,
                    "time": 248.05179990429662,
                    "velocity": 0.6299212598425197,
                    "duration": 0.2390832988281204
                },
                {
                    "name": "G2",
                    "midi": 43,
                    "time": 248.31233268945286,
                    "velocity": 0.6299212598425197,
                    "duration": 0.2390832988281204
                },
                {
                    "name": "G2",
                    "midi": 43,
                    "time": 248.5728654746091,
                    "velocity": 0.6299212598425197,
                    "duration": 0.24222224804688608
                },
                {
                    "name": "G2",
                    "midi": 43,
                    "time": 248.8365372089841,
                    "velocity": 0.6299212598425197,
                    "duration": 0.24902330468751188
                },
                {
                    "name": "G2",
                    "midi": 43,
                    "time": 249.10700999999975,
                    "velocity": 0.6535433070866141,
                    "duration": 0.07899688867186683
                },
                {
                    "name": "A#2",
                    "midi": 46,
                    "time": 249.19228478710912,
                    "velocity": 0.6299212598425197,
                    "duration": 0.06434845898436947
                },
                {
                    "name": "D3",
                    "midi": 50,
                    "time": 249.262911144531,
                    "velocity": 0.6299212598425197,
                    "duration": 0.06016319335938647
                },
                {
                    "name": "G3",
                    "midi": 55,
                    "time": 249.32935223632788,
                    "velocity": 0.6299212598425197,
                    "duration": 0.06016319335938647
                },
                {
                    "name": "G4",
                    "midi": 67,
                    "time": 249.39579332812477,
                    "velocity": 0.5354330708661418,
                    "duration": 0.2416990898437632
                },
                {
                    "name": "G4",
                    "midi": 67,
                    "time": 249.65894190429665,
                    "velocity": 0.5354330708661418,
                    "duration": 0.2390832988281204
                },
                {
                    "name": "G4",
                    "midi": 67,
                    "time": 249.9194746894529,
                    "velocity": 0.5354330708661418,
                    "duration": 0.2390832988281204
                },
                {
                    "name": "G4",
                    "midi": 67,
                    "time": 250.18000747460914,
                    "velocity": 0.5354330708661418,
                    "duration": 0.24222224804688608
                },
                {
                    "name": "G4",
                    "midi": 67,
                    "time": 250.44367920898415,
                    "velocity": 0.5354330708661418,
                    "duration": 0.24902330468751188
                },
                {
                    "name": "G4",
                    "midi": 67,
                    "time": 250.71415199999979,
                    "velocity": 0.6614173228346457,
                    "duration": 0.07899688867186683
                },
                {
                    "name": "A#4",
                    "midi": 70,
                    "time": 250.79942678710916,
                    "velocity": 0.6299212598425197,
                    "duration": 0.06434845898436947
                },
                {
                    "name": "D5",
                    "midi": 74,
                    "time": 250.87005314453103,
                    "velocity": 0.6299212598425197,
                    "duration": 0.06016319335938647
                },
                {
                    "name": "G5",
                    "midi": 79,
                    "time": 250.93649423632792,
                    "velocity": 0.6299212598425197,
                    "duration": 0.06016319335938647
                },
                {
                    "name": "G3",
                    "midi": 55,
                    "time": 251.0029353281248,
                    "velocity": 0.8818897637795275,
                    "duration": 0.2416990898437632
                },
                {
                    "name": "G3",
                    "midi": 55,
                    "time": 251.2660839042967,
                    "velocity": 0.8818897637795275,
                    "duration": 0.2390832988281204
                },
                {
                    "name": "G3",
                    "midi": 55,
                    "time": 251.52661668945294,
                    "velocity": 0.8818897637795275,
                    "duration": 0.2390832988281204
                },
                {
                    "name": "G3",
                    "midi": 55,
                    "time": 251.78714947460918,
                    "velocity": 0.9763779527559056,
                    "duration": 0.39603075976563673
                },
                {
                    "name": "A3",
                    "midi": 57,
                    "time": 252.18370339257794,
                    "velocity": 0.9763779527559056,
                    "duration": 0.04080633984375481
                },
                {
                    "name": "A#3",
                    "midi": 58,
                    "time": 252.22817183984358,
                    "velocity": 0.9763779527559056,
                    "duration": 0.041852656250000564
                },
                {
                    "name": "D4",
                    "midi": 62,
                    "time": 252.27368660351547,
                    "velocity": 0.9763779527559056,
                    "duration": 0.043945289062492066
                },
                {
                    "name": "D#5",
                    "midi": 75,
                    "time": 252.32129399999985,
                    "velocity": 0.9448818897637795,
                    "duration": 0.26733384179686936
                },
                {
                    "name": "G5",
                    "midi": 79,
                    "time": 252.32129399999985,
                    "velocity": 1,
                    "duration": 0.26733384179686936
                },
                {
                    "name": "G4",
                    "midi": 67,
                    "time": 252.32129399999985,
                    "velocity": 0.8503937007874016,
                    "duration": 0.26733384179686936
                },
                {
                    "name": "A#4",
                    "midi": 70,
                    "time": 252.32129399999985,
                    "velocity": 0.9291338582677166,
                    "duration": 0.26733384179686936
                },
                {
                    "name": "D#3",
                    "midi": 51,
                    "time": 252.32129399999985,
                    "velocity": 1,
                    "duration": 0.8119415312499996
                },
                {
                    "name": "D#5",
                    "midi": 75,
                    "time": 252.61007732812485,
                    "velocity": 0.9133858267716536,
                    "duration": 0.2416990898437632
                },
                {
                    "name": "G5",
                    "midi": 79,
                    "time": 252.61007732812485,
                    "velocity": 0.9921259842519685,
                    "duration": 0.2416990898437632
                },
                {
                    "name": "G4",
                    "midi": 67,
                    "time": 252.61007732812485,
                    "velocity": 0.8188976377952756,
                    "duration": 0.2416990898437632
                },
                {
                    "name": "A#4",
                    "midi": 70,
                    "time": 252.61007732812485,
                    "velocity": 0.8976377952755905,
                    "duration": 0.2416990898437632
                },
                {
                    "name": "D#5",
                    "midi": 75,
                    "time": 252.87322590429673,
                    "velocity": 0.9133858267716536,
                    "duration": 0.2390832988281204
                },
                {
                    "name": "G5",
                    "midi": 79,
                    "time": 252.87322590429673,
                    "velocity": 0.9921259842519685,
                    "duration": 0.2390832988281204
                },
                {
                    "name": "G4",
                    "midi": 67,
                    "time": 252.87322590429673,
                    "velocity": 0.8188976377952756,
                    "duration": 0.2390832988281204
                },
                {
                    "name": "A#4",
                    "midi": 70,
                    "time": 252.87322590429673,
                    "velocity": 0.8976377952755905,
                    "duration": 0.2390832988281204
                },
                {
                    "name": "D#5",
                    "midi": 75,
                    "time": 253.13375868945297,
                    "velocity": 0.9133858267716536,
                    "duration": 0.23908329882809198
                },
                {
                    "name": "G5",
                    "midi": 79,
                    "time": 253.13375868945297,
                    "velocity": 1,
                    "duration": 0.23908329882809198
                },
                {
                    "name": "G4",
                    "midi": 67,
                    "time": 253.13375868945297,
                    "velocity": 0.8188976377952756,
                    "duration": 0.23908329882809198
                },
                {
                    "name": "A#4",
                    "midi": 70,
                    "time": 253.13375868945297,
                    "velocity": 0.9291338582677166,
                    "duration": 0.23908329882809198
                },
                {
                    "name": "F3",
                    "midi": 53,
                    "time": 253.13375868945297,
                    "velocity": 0.9763779527559056,
                    "duration": 0.0795200468749897
                },
                {
                    "name": "G3",
                    "midi": 55,
                    "time": 253.2206029511717,
                    "velocity": 0.9763779527559056,
                    "duration": 0.0795200468749897
                },
                {
                    "name": "A#3",
                    "midi": 58,
                    "time": 253.30744721289045,
                    "velocity": 0.9763779527559056,
                    "duration": 0.0795200468749897
                },
                {
                    "name": "D5",
                    "midi": 74,
                    "time": 253.3942914746092,
                    "velocity": 0.9133858267716536,
                    "duration": 0.24222224804688608
                },
                {
                    "name": "F5",
                    "midi": 77,
                    "time": 253.3942914746092,
                    "velocity": 1,
                    "duration": 0.24222224804688608
                },
                {
                    "name": "G4",
                    "midi": 67,
                    "time": 253.3942914746092,
                    "velocity": 0.8188976377952756,
                    "duration": 0.24222224804688608
                },
                {
                    "name": "B4",
                    "midi": 71,
                    "time": 253.3942914746092,
                    "velocity": 0.9291338582677166,
                    "duration": 0.24222224804688608
                },
                {
                    "name": "D3",
                    "midi": 50,
                    "time": 253.3942914746092,
                    "velocity": 0.9763779527559056,
                    "duration": 0.39603075976563673
                },
                {
                    "name": "D5",
                    "midi": 74,
                    "time": 253.6579632089842,
                    "velocity": 0.9133858267716536,
                    "duration": 0.2490233046875403
                },
                {
                    "name": "F5",
                    "midi": 77,
                    "time": 253.6579632089842,
                    "velocity": 1,
                    "duration": 0.2490233046875403
                },
                {
                    "name": "G4",
                    "midi": 67,
                    "time": 253.6579632089842,
                    "velocity": 0.8188976377952756,
                    "duration": 0.2490233046875403
                },
                {
                    "name": "B4",
                    "midi": 71,
                    "time": 253.6579632089842,
                    "velocity": 0.8976377952755905,
                    "duration": 0.2490233046875403
                },
                {
                    "name": "F3",
                    "midi": 53,
                    "time": 253.79084539257795,
                    "velocity": 0.9763779527559056,
                    "duration": 0.04080633984375481
                },
                {
                    "name": "G3",
                    "midi": 55,
                    "time": 253.8353138398436,
                    "velocity": 0.9763779527559056,
                    "duration": 0.041852656250000564
                },
                {
                    "name": "B3",
                    "midi": 59,
                    "time": 253.88082860351548,
                    "velocity": 0.9763779527559056,
                    "duration": 0.04394528906252049
                },
                {
                    "name": "C5",
                    "midi": 72,
                    "time": 253.9284359999999,
                    "velocity": 0.9448818897637795,
                    "duration": 0.26733384179686936
                },
                {
                    "name": "D#5",
                    "midi": 75,
                    "time": 253.9284359999999,
                    "velocity": 1,
                    "duration": 0.26733384179686936
                },
                {
                    "name": "G4",
                    "midi": 67,
                    "time": 253.9284359999999,
                    "velocity": 0.9133858267716536,
                    "duration": 0.26733384179686936
                },
                {
                    "name": "C3",
                    "midi": 48,
                    "time": 253.9284359999999,
                    "velocity": 1,
                    "duration": 0.8119415312499996
                },
                {
                    "name": "C5",
                    "midi": 72,
                    "time": 254.21721932812488,
                    "velocity": 0.9133858267716536,
                    "duration": 0.2416990898437632
                },
                {
                    "name": "D#5",
                    "midi": 75,
                    "time": 254.21721932812488,
                    "velocity": 0.9921259842519685,
                    "duration": 0.2416990898437632
                },
                {
                    "name": "G4",
                    "midi": 67,
                    "time": 254.21721932812488,
                    "velocity": 0.8818897637795275,
                    "duration": 0.2416990898437632
                },
                {
                    "name": "C5",
                    "midi": 72,
                    "time": 254.48036790429677,
                    "velocity": 0.9133858267716536,
                    "duration": 0.2390832988281204
                },
                {
                    "name": "D#5",
                    "midi": 75,
                    "time": 254.48036790429677,
                    "velocity": 0.9921259842519685,
                    "duration": 0.2390832988281204
                },
                {
                    "name": "G4",
                    "midi": 67,
                    "time": 254.48036790429677,
                    "velocity": 0.8818897637795275,
                    "duration": 0.2390832988281204
                },
                {
                    "name": "C5",
                    "midi": 72,
                    "time": 254.740900689453,
                    "velocity": 0.9133858267716536,
                    "duration": 0.23908329882809198
                },
                {
                    "name": "D#5",
                    "midi": 75,
                    "time": 254.740900689453,
                    "velocity": 1,
                    "duration": 0.23908329882809198
                },
                {
                    "name": "G4",
                    "midi": 67,
                    "time": 254.740900689453,
                    "velocity": 0.8818897637795275,
                    "duration": 0.23908329882809198
                },
                {
                    "name": "D#3",
                    "midi": 51,
                    "time": 254.740900689453,
                    "velocity": 0.9763779527559056,
                    "duration": 0.0795200468749897
                },
                {
                    "name": "G3",
                    "midi": 55,
                    "time": 254.82774495117175,
                    "velocity": 0.9763779527559056,
                    "duration": 0.0795200468749897
                },
                {
                    "name": "C4",
                    "midi": 60,
                    "time": 254.9145892128905,
                    "velocity": 0.9763779527559056,
                    "duration": 0.0795200468749897
                },
                {
                    "name": "A#4",
                    "midi": 70,
                    "time": 255.00143347460923,
                    "velocity": 0.9133858267716536,
                    "duration": 0.24222224804688608
                },
                {
                    "name": "D5",
                    "midi": 74,
                    "time": 255.00143347460923,
                    "velocity": 1,
                    "duration": 0.24222224804688608
                },
                {
                    "name": "D4",
                    "midi": 62,
                    "time": 255.00143347460923,
                    "velocity": 0.8188976377952756,
                    "duration": 0.24222224804688608
                },
                {
                    "name": "G4",
                    "midi": 67,
                    "time": 255.00143347460923,
                    "velocity": 0.8976377952755905,
                    "duration": 0.24222224804688608
                },
                {
                    "name": "A#2",
                    "midi": 46,
                    "time": 255.00143347460923,
                    "velocity": 0.9763779527559056,
                    "duration": 0.39603075976563673
                },
                {
                    "name": "A#4",
                    "midi": 70,
                    "time": 255.26510520898424,
                    "velocity": 0.9133858267716536,
                    "duration": 0.2490233046875403
                },
                {
                    "name": "D5",
                    "midi": 74,
                    "time": 255.26510520898424,
                    "velocity": 1,
                    "duration": 0.2490233046875403
                },
                {
                    "name": "D4",
                    "midi": 62,
                    "time": 255.26510520898424,
                    "velocity": 0.8188976377952756,
                    "duration": 0.2490233046875403
                },
                {
                    "name": "G4",
                    "midi": 67,
                    "time": 255.26510520898424,
                    "velocity": 0.9291338582677166,
                    "duration": 0.2490233046875403
                },
                {
                    "name": "C3",
                    "midi": 48,
                    "time": 255.397987392578,
                    "velocity": 0.9763779527559056,
                    "duration": 0.04080633984375481
                },
                {
                    "name": "D3",
                    "midi": 50,
                    "time": 255.44245583984363,
                    "velocity": 0.9763779527559056,
                    "duration": 0.041852656250000564
                },
                {
                    "name": "G3",
                    "midi": 55,
                    "time": 255.48797060351552,
                    "velocity": 0.9763779527559056,
                    "duration": 0.04394528906252049
                },
                {
                    "name": "A4",
                    "midi": 69,
                    "time": 255.53557799999993,
                    "velocity": 0.9448818897637795,
                    "duration": 0.26733384179686936
                },
                {
                    "name": "C5",
                    "midi": 72,
                    "time": 255.53557799999993,
                    "velocity": 1,
                    "duration": 0.26733384179686936
                },
                {
                    "name": "D4",
                    "midi": 62,
                    "time": 255.53557799999993,
                    "velocity": 0.8503937007874016,
                    "duration": 0.26733384179686936
                },
                {
                    "name": "F#4",
                    "midi": 66,
                    "time": 255.53557799999993,
                    "velocity": 0.9606299212598425,
                    "duration": 0.26733384179686936
                },
                {
                    "name": "A2",
                    "midi": 45,
                    "time": 255.53557799999993,
                    "velocity": 1,
                    "duration": 0.8119415312499996
                },
                {
                    "name": "A4",
                    "midi": 69,
                    "time": 255.82436132812492,
                    "velocity": 0.9133858267716536,
                    "duration": 0.2416990898437632
                },
                {
                    "name": "C5",
                    "midi": 72,
                    "time": 255.82436132812492,
                    "velocity": 0.9921259842519685,
                    "duration": 0.2416990898437632
                },
                {
                    "name": "D4",
                    "midi": 62,
                    "time": 255.82436132812492,
                    "velocity": 0.8188976377952756,
                    "duration": 0.2416990898437632
                },
                {
                    "name": "F#4",
                    "midi": 66,
                    "time": 255.82436132812492,
                    "velocity": 0.8976377952755905,
                    "duration": 0.2416990898437632
                },
                {
                    "name": "A4",
                    "midi": 69,
                    "time": 256.08750990429684,
                    "velocity": 0.9133858267716536,
                    "duration": 0.2390832988281204
                },
                {
                    "name": "C5",
                    "midi": 72,
                    "time": 256.08750990429684,
                    "velocity": 0.9921259842519685,
                    "duration": 0.2390832988281204
                },
                {
                    "name": "D4",
                    "midi": 62,
                    "time": 256.08750990429684,
                    "velocity": 0.8188976377952756,
                    "duration": 0.2390832988281204
                },
                {
                    "name": "F#4",
                    "midi": 66,
                    "time": 256.08750990429684,
                    "velocity": 0.8976377952755905,
                    "duration": 0.2390832988281204
                },
                {
                    "name": "A4",
                    "midi": 69,
                    "time": 256.34804268945305,
                    "velocity": 0.9133858267716536,
                    "duration": 0.2390832988282341
                },
                {
                    "name": "C5",
                    "midi": 72,
                    "time": 256.34804268945305,
                    "velocity": 1,
                    "duration": 0.2390832988282341
                },
                {
                    "name": "D4",
                    "midi": 62,
                    "time": 256.34804268945305,
                    "velocity": 0.8188976377952756,
                    "duration": 0.2390832988282341
                },
                {
                    "name": "F#4",
                    "midi": 66,
                    "time": 256.34804268945305,
                    "velocity": 0.8976377952755905,
                    "duration": 0.2390832988282341
                },
                {
                    "name": "C3",
                    "midi": 48,
                    "time": 256.34804268945305,
                    "velocity": 0.9763779527559056,
                    "duration": 0.07952004687501812
                },
                {
                    "name": "D3",
                    "midi": 50,
                    "time": 256.43488695117185,
                    "velocity": 0.9763779527559056,
                    "duration": 0.07952004687501812
                },
                {
                    "name": "F#3",
                    "midi": 54,
                    "time": 256.52173121289064,
                    "velocity": 0.9763779527559056,
                    "duration": 0.07952004687501812
                },
                {
                    "name": "G4",
                    "midi": 67,
                    "time": 256.60857547460944,
                    "velocity": 0.9133858267716536,
                    "duration": 0.24222224804685766
                },
                {
                    "name": "A#4",
                    "midi": 70,
                    "time": 256.60857547460944,
                    "velocity": 1,
                    "duration": 0.24222224804685766
                },
                {
                    "name": "D4",
                    "midi": 62,
                    "time": 256.60857547460944,
                    "velocity": 0.8818897637795275,
                    "duration": 0.24222224804685766
                },
                {
                    "name": "G2",
                    "midi": 43,
                    "time": 256.60857547460944,
                    "velocity": 0.9763779527559056,
                    "duration": 0.3960307597656083
                },
                {
                    "name": "G4",
                    "midi": 67,
                    "time": 256.87224720898445,
                    "velocity": 0.9133858267716536,
                    "duration": 0.24902330468745504
                },
                {
                    "name": "A#4",
                    "midi": 70,
                    "time": 256.87224720898445,
                    "velocity": 1,
                    "duration": 0.24902330468745504
                },
                {
                    "name": "D4",
                    "midi": 62,
                    "time": 256.87224720898445,
                    "velocity": 0.8818897637795275,
                    "duration": 0.28041279687494125
                },
                {
                    "name": "A#2",
                    "midi": 46,
                    "time": 257.00512939257817,
                    "velocity": 0.9763779527559056,
                    "duration": 0.04080633984375481
                },
                {
                    "name": "D3",
                    "midi": 50,
                    "time": 257.0495978398438,
                    "velocity": 0.9763779527559056,
                    "duration": 0.041852656250000564
                },
                {
                    "name": "G3",
                    "midi": 55,
                    "time": 257.09511260351564,
                    "velocity": 0.9763779527559056,
                    "duration": 0.043945289062492066
                },
                {
                    "name": "D4",
                    "midi": 62,
                    "time": 257.14272,
                    "velocity": 0.9448818897637795,
                    "duration": 0.26733384179686936
                },
                {
                    "name": "F#4",
                    "midi": 66,
                    "time": 257.14272,
                    "velocity": 0.9448818897637795,
                    "duration": 0.26733384179686936
                },
                {
                    "name": "A4",
                    "midi": 69,
                    "time": 257.14272,
                    "velocity": 1,
                    "duration": 0.26733384179686936
                },
                {
                    "name": "C4",
                    "midi": 60,
                    "time": 257.14272,
                    "velocity": 0.9133858267716536,
                    "duration": 0.26733384179686936
                },
                {
                    "name": "F#2",
                    "midi": 42,
                    "time": 257.14272,
                    "velocity": 0.9921259842519685,
                    "duration": 0.8119415312499996
                },
                {
                    "name": "D4",
                    "midi": 62,
                    "time": 257.431503328125,
                    "velocity": 0.9133858267716536,
                    "duration": 0.24169908984373478
                },
                {
                    "name": "F#4",
                    "midi": 66,
                    "time": 257.431503328125,
                    "velocity": 0.9133858267716536,
                    "duration": 0.24169908984373478
                },
                {
                    "name": "A4",
                    "midi": 69,
                    "time": 257.431503328125,
                    "velocity": 0.9921259842519685,
                    "duration": 0.24169908984373478
                },
                {
                    "name": "C4",
                    "midi": 60,
                    "time": 257.431503328125,
                    "velocity": 0.8818897637795275,
                    "duration": 0.24169908984373478
                },
                {
                    "name": "D4",
                    "midi": 62,
                    "time": 257.6946519042969,
                    "velocity": 0.9133858267716536,
                    "duration": 0.2390832988281204
                },
                {
                    "name": "F#4",
                    "midi": 66,
                    "time": 257.6946519042969,
                    "velocity": 0.9133858267716536,
                    "duration": 0.2390832988281204
                },
                {
                    "name": "A4",
                    "midi": 69,
                    "time": 257.6946519042969,
                    "velocity": 0.9921259842519685,
                    "duration": 0.2390832988281204
                },
                {
                    "name": "C4",
                    "midi": 60,
                    "time": 257.6946519042969,
                    "velocity": 0.8818897637795275,
                    "duration": 0.2390832988281204
                },
                {
                    "name": "D4",
                    "midi": 62,
                    "time": 257.9551846894531,
                    "velocity": 0.9133858267716536,
                    "duration": 0.2390832988282341
                },
                {
                    "name": "F#4",
                    "midi": 66,
                    "time": 257.9551846894531,
                    "velocity": 0.9133858267716536,
                    "duration": 0.2390832988282341
                },
                {
                    "name": "A4",
                    "midi": 69,
                    "time": 257.9551846894531,
                    "velocity": 1,
                    "duration": 0.2390832988282341
                },
                {
                    "name": "C4",
                    "midi": 60,
                    "time": 257.9551846894531,
                    "velocity": 0.8818897637795275,
                    "duration": 0.27047279101577715
                },
                {
                    "name": "G2",
                    "midi": 43,
                    "time": 257.9551846894531,
                    "velocity": 0.9763779527559056,
                    "duration": 0.07952004687501812
                },
                {
                    "name": "A2",
                    "midi": 45,
                    "time": 258.0420289511719,
                    "velocity": 0.9763779527559056,
                    "duration": 0.07952004687501812
                },
                {
                    "name": "D3",
                    "midi": 50,
                    "time": 258.1288732128907,
                    "velocity": 0.9763779527559056,
                    "duration": 0.07952004687501812
                },
                {
                    "name": "D4",
                    "midi": 62,
                    "time": 258.2157174746095,
                    "velocity": 0.9133858267716536,
                    "duration": 0.2422222480469145
                },
                {
                    "name": "G4",
                    "midi": 67,
                    "time": 258.2157174746095,
                    "velocity": 1,
                    "duration": 0.2422222480469145
                },
                {
                    "name": "A#3",
                    "midi": 58,
                    "time": 258.2157174746095,
                    "velocity": 0.8818897637795275,
                    "duration": 0.2422222480469145
                },
                {
                    "name": "G2",
                    "midi": 43,
                    "time": 258.2157174746095,
                    "velocity": 0.9763779527559056,
                    "duration": 0.39603075976566515
                },
                {
                    "name": "D4",
                    "midi": 62,
                    "time": 258.47938920898457,
                    "velocity": 0.9133858267716536,
                    "duration": 0.24902330468745504
                },
                {
                    "name": "G4",
                    "midi": 67,
                    "time": 258.47938920898457,
                    "velocity": 1,
                    "duration": 0.24902330468745504
                },
                {
                    "name": "A#3",
                    "midi": 58,
                    "time": 258.47938920898457,
                    "velocity": 0.8818897637795275,
                    "duration": 0.28041279687494125
                },
                {
                    "name": "A2",
                    "midi": 45,
                    "time": 258.6122713925783,
                    "velocity": 0.9763779527559056,
                    "duration": 0.04080633984375481
                },
                {
                    "name": "A#2",
                    "midi": 46,
                    "time": 258.6567398398439,
                    "velocity": 0.9763779527559056,
                    "duration": 0.041852656250000564
                },
                {
                    "name": "D3",
                    "midi": 50,
                    "time": 258.70225460351577,
                    "velocity": 0.9763779527559056,
                    "duration": 0.043945289062492066
                },
                {
                    "name": "A3",
                    "midi": 57,
                    "time": 258.7498620000001,
                    "velocity": 0.9763779527559056,
                    "duration": 1.0714280000001395
                },
                {
                    "name": "D4",
                    "midi": 62,
                    "time": 258.7498620000001,
                    "velocity": 0.9133858267716536,
                    "duration": 1.0724743164063852
                },
                {
                    "name": "G4",
                    "midi": 67,
                    "time": 258.7498620000001,
                    "velocity": 0.9448818897637795,
                    "duration": 0.08684426171879522
                },
                {
                    "name": "D2",
                    "midi": 38,
                    "time": 258.7498620000001,
                    "velocity": 0.8976377952755905,
                    "duration": 0.29872333398446926
                },
                {
                    "name": "F#4",
                    "midi": 66,
                    "time": 258.82781257226577,
                    "velocity": 0.9133858267716536,
                    "duration": 0.08684426171879522
                },
                {
                    "name": "G4",
                    "midi": 67,
                    "time": 258.9057631445314,
                    "velocity": 1,
                    "duration": 0.08684426171879522
                },
                {
                    "name": "F#4",
                    "midi": 66,
                    "time": 258.98371371679707,
                    "velocity": 0.8740157480314961,
                    "duration": 0.837576283203191
                },
                {
                    "name": "D3",
                    "midi": 50,
                    "time": 259.0386453281252,
                    "velocity": 0.8818897637795275,
                    "duration": 0.24169908984379163
                },
                {
                    "name": "D3",
                    "midi": 50,
                    "time": 259.30179390429714,
                    "velocity": 0.8818897637795275,
                    "duration": 0.2390832988281204
                },
                {
                    "name": "D3",
                    "midi": 50,
                    "time": 259.5623266894534,
                    "velocity": 0.8818897637795275,
                    "duration": 0.2390832988281204
                },
                {
                    "name": "D3",
                    "midi": 50,
                    "time": 259.82285947460963,
                    "velocity": 0.8818897637795275,
                    "duration": 0.24222224804685766
                },
                {
                    "name": "D3",
                    "midi": 50,
                    "time": 260.08653120898464,
                    "velocity": 0.8818897637795275,
                    "duration": 0.24902330468751188
                },
                {
                    "name": "D3",
                    "midi": 50,
                    "time": 260.3570040000003,
                    "velocity": 1,
                    "duration": 0.07899688867189525
                },
                {
                    "name": "F#3",
                    "midi": 54,
                    "time": 260.4422787871097,
                    "velocity": 0.9763779527559056,
                    "duration": 0.0643484589843979
                },
                {
                    "name": "A3",
                    "midi": 57,
                    "time": 260.51290514453154,
                    "velocity": 0.9763779527559056,
                    "duration": 0.06016319335935805
                },
                {
                    "name": "D4",
                    "midi": 62,
                    "time": 260.5793462363284,
                    "velocity": 0.9763779527559056,
                    "duration": 0.06016319335935805
                },
                {
                    "name": "A4",
                    "midi": 69,
                    "time": 260.6457873281252,
                    "velocity": 0.8818897637795275,
                    "duration": 0.24169908984373478
                },
                {
                    "name": "A4",
                    "midi": 69,
                    "time": 260.9089359042971,
                    "velocity": 0.8818897637795275,
                    "duration": 0.2390832988281204
                },
                {
                    "name": "A4",
                    "midi": 69,
                    "time": 261.16946868945337,
                    "velocity": 0.8818897637795275,
                    "duration": 0.2390832988281204
                },
                {
                    "name": "A4",
                    "midi": 69,
                    "time": 261.43000147460964,
                    "velocity": 0.8818897637795275,
                    "duration": 0.24222224804685766
                },
                {
                    "name": "A4",
                    "midi": 69,
                    "time": 261.69367320898465,
                    "velocity": 0.8818897637795275,
                    "duration": 0.24902330468751188
                },
                {
                    "name": "A4",
                    "midi": 69,
                    "time": 261.9641460000003,
                    "velocity": 1,
                    "duration": 0.07899688867189525
                },
                {
                    "name": "C5",
                    "midi": 72,
                    "time": 262.0494207871097,
                    "velocity": 0.9763779527559056,
                    "duration": 0.0643484589843979
                },
                {
                    "name": "D5",
                    "midi": 74,
                    "time": 262.12004714453155,
                    "velocity": 0.9763779527559056,
                    "duration": 0.06016319335935805
                },
                {
                    "name": "F#5",
                    "midi": 78,
                    "time": 262.1864882363284,
                    "velocity": 0.9763779527559056,
                    "duration": 0.06016319335935805
                },
                {
                    "name": "D3",
                    "midi": 50,
                    "time": 262.2529293281252,
                    "velocity": 0.8818897637795275,
                    "duration": 0.24169908984373478
                },
                {
                    "name": "D3",
                    "midi": 50,
                    "time": 262.5160779042971,
                    "velocity": 0.8818897637795275,
                    "duration": 0.2390832988281204
                },
                {
                    "name": "D3",
                    "midi": 50,
                    "time": 262.7766106894534,
                    "velocity": 0.8818897637795275,
                    "duration": 0.2390832988281204
                },
                {
                    "name": "D3",
                    "midi": 50,
                    "time": 263.03714347460965,
                    "velocity": 0.8818897637795275,
                    "duration": 0.24222224804685766
                },
                {
                    "name": "D3",
                    "midi": 50,
                    "time": 263.30081520898466,
                    "velocity": 0.8818897637795275,
                    "duration": 0.24902330468751188
                },
                {
                    "name": "D3",
                    "midi": 50,
                    "time": 263.5712880000003,
                    "velocity": 1,
                    "duration": 0.06382530078127502
                },
                {
                    "name": "F#3",
                    "midi": 54,
                    "time": 263.6403448828128,
                    "velocity": 0.9763779527559056,
                    "duration": 0.05493161132812929
                },
                {
                    "name": "A3",
                    "midi": 57,
                    "time": 263.7005080761722,
                    "velocity": 0.9763779527559056,
                    "duration": 0.04813055468747507
                },
                {
                    "name": "D4",
                    "midi": 62,
                    "time": 263.7538702128909,
                    "velocity": 0.9763779527559056,
                    "duration": 0.04813055468747507
                },
                {
                    "name": "F#4",
                    "midi": 66,
                    "time": 263.8072323496096,
                    "velocity": 0.9763779527559056,
                    "duration": 0.047607396484352194
                },
                {
                    "name": "C5",
                    "midi": 72,
                    "time": 263.8600713281252,
                    "velocity": 0.8818897637795275,
                    "duration": 0.24169908984373478
                },
                {
                    "name": "C5",
                    "midi": 72,
                    "time": 264.12321990429706,
                    "velocity": 0.8818897637795275,
                    "duration": 0.2390832988281204
                },
                {
                    "name": "C5",
                    "midi": 72,
                    "time": 264.38375268945333,
                    "velocity": 0.8818897637795275,
                    "duration": 0.2390832988281204
                },
                {
                    "name": "C5",
                    "midi": 72,
                    "time": 264.6442854746096,
                    "velocity": 0.8818897637795275,
                    "duration": 0.24222224804685766
                },
                {
                    "name": "C5",
                    "midi": 72,
                    "time": 264.9079572089846,
                    "velocity": 0.8818897637795275,
                    "duration": 0.24902330468751188
                },
                {
                    "name": "C5",
                    "midi": 72,
                    "time": 265.1784300000003,
                    "velocity": 1,
                    "duration": 0.10306216601560436
                },
                {
                    "name": "D5",
                    "midi": 74,
                    "time": 265.2893395390628,
                    "velocity": 0.9763779527559056,
                    "duration": 0.08161267968750963
                },
                {
                    "name": "F#5",
                    "midi": 78,
                    "time": 265.3787995917972,
                    "velocity": 0.9763779527559056,
                    "duration": 0.08056636328126388
                },
                {
                    "name": "A5",
                    "midi": 81,
                    "time": 265.46721332812535,
                    "velocity": 0.9763779527559056,
                    "duration": 2.451519339843685
                },
                {
                    "name": "D3",
                    "midi": 50,
                    "time": 265.46721332812535,
                    "velocity": 0.8818897637795275,
                    "duration": 0.24169908984373478
                },
                {
                    "name": "D3",
                    "midi": 50,
                    "time": 265.73036190429724,
                    "velocity": 0.8818897637795275,
                    "duration": 0.2390832988281204
                },
                {
                    "name": "D3",
                    "midi": 50,
                    "time": 265.9908946894535,
                    "velocity": 0.8818897637795275,
                    "duration": 0.2390832988281204
                },
                {
                    "name": "D3",
                    "midi": 50,
                    "time": 266.2514274746098,
                    "velocity": 0.8818897637795275,
                    "duration": 0.24222224804685766
                },
                {
                    "name": "D3",
                    "midi": 50,
                    "time": 266.5150992089848,
                    "velocity": 0.8818897637795275,
                    "duration": 0.24902330468751188
                },
                {
                    "name": "D3",
                    "midi": 50,
                    "time": 266.78557200000046,
                    "velocity": 1,
                    "duration": 0.08946005273435276
                },
                {
                    "name": "F#3",
                    "midi": 54,
                    "time": 266.8818331093754,
                    "velocity": 0.9763779527559056,
                    "duration": 0.07219583203124103
                },
                {
                    "name": "A3",
                    "midi": 57,
                    "time": 266.96082999804725,
                    "velocity": 0.9763779527559056,
                    "duration": 0.06905688281250377
                },
                {
                    "name": "D4",
                    "midi": 62,
                    "time": 267.03668793750035,
                    "velocity": 0.9763779527559056,
                    "duration": 0.0685337246093809
                },
                {
                    "name": "F#4",
                    "midi": 66,
                    "time": 267.1120227187503,
                    "velocity": 0.9763779527559056,
                    "duration": 0.0685337246093809
                },
                {
                    "name": "A4",
                    "midi": 69,
                    "time": 267.1873575000003,
                    "velocity": 0.9763779527559056,
                    "duration": 0.0685337246093809
                },
                {
                    "name": "C5",
                    "midi": 72,
                    "time": 267.2626922812503,
                    "velocity": 0.9763779527559056,
                    "duration": 0.8590257695311152
                },
                {
                    "name": "G5",
                    "midi": 79,
                    "time": 267.9244874082034,
                    "velocity": 0.9763779527559056,
                    "duration": 0.06016319335935805
                },
                {
                    "name": "F#5",
                    "midi": 78,
                    "time": 267.9904053417971,
                    "velocity": 0.9763779527559056,
                    "duration": 0.06016319335935805
                },
                {
                    "name": "E5",
                    "midi": 76,
                    "time": 268.0563232753908,
                    "velocity": 0.9763779527559056,
                    "duration": 0.06016319335935805
                },
                {
                    "name": "D5",
                    "midi": 74,
                    "time": 268.1222412089845,
                    "velocity": 0.9763779527559056,
                    "duration": 0.06068635156248092
                },
                {
                    "name": "F#4",
                    "midi": 66,
                    "time": 268.1222412089845,
                    "velocity": 0.9763779527559056,
                    "duration": 0.24902330468734135
                },
                {
                    "name": "C5",
                    "midi": 72,
                    "time": 268.18868230078135,
                    "velocity": 0.9763779527559056,
                    "duration": 0.06068635156248092
                },
                {
                    "name": "A#4",
                    "midi": 70,
                    "time": 268.2551233925782,
                    "velocity": 0.9763779527559056,
                    "duration": 0.06173266796872667
                },
                {
                    "name": "A4",
                    "midi": 69,
                    "time": 268.32261080078126,
                    "velocity": 0.9763779527559056,
                    "duration": 0.06434845898434105
                },
                {
                    "name": "A#4",
                    "midi": 70,
                    "time": 268.39271399999996,
                    "velocity": 1,
                    "duration": 0.8119415312499996
                },
                {
                    "name": "G4",
                    "midi": 67,
                    "time": 268.39271399999996,
                    "velocity": 1,
                    "duration": 0.26733384179686936
                },
                {
                    "name": "D5",
                    "midi": 74,
                    "time": 268.681497328125,
                    "velocity": 0.9763779527559056,
                    "duration": 0.24169908984373478
                },
                {
                    "name": "F4",
                    "midi": 65,
                    "time": 268.681497328125,
                    "velocity": 0.9763779527559056,
                    "duration": 0.24169908984373478
                },
                {
                    "name": "G5",
                    "midi": 79,
                    "time": 268.94464590429686,
                    "velocity": 0.9763779527559056,
                    "duration": 0.7842141464843166
                },
                {
                    "name": "D#4",
                    "midi": 63,
                    "time": 268.94464590429686,
                    "velocity": 0.9763779527559056,
                    "duration": 0.2390832988281204
                },
                {
                    "name": "A#4",
                    "midi": 70,
                    "time": 269.2051786894531,
                    "velocity": 0.9763779527559056,
                    "duration": 0.2390832988281204
                },
                {
                    "name": "D4",
                    "midi": 62,
                    "time": 269.2051786894531,
                    "velocity": 0.9763779527559056,
                    "duration": 0.2390832988281204
                },
                {
                    "name": "A4",
                    "midi": 69,
                    "time": 269.46571147460935,
                    "velocity": 0.9763779527559056,
                    "duration": 0.24222224804685766
                },
                {
                    "name": "C4",
                    "midi": 60,
                    "time": 269.46571147460935,
                    "velocity": 0.9763779527559056,
                    "duration": 0.24222224804685766
                },
                {
                    "name": "C5",
                    "midi": 72,
                    "time": 269.7293832089843,
                    "velocity": 0.9763779527559056,
                    "duration": 0.24902330468762557
                },
                {
                    "name": "D4",
                    "midi": 62,
                    "time": 269.7293832089843,
                    "velocity": 0.9763779527559056,
                    "duration": 0.24902330468762557
                },
                {
                    "name": "G5",
                    "midi": 79,
                    "time": 269.7319989999999,
                    "velocity": 0.9763779527559056,
                    "duration": 0.07062635742192924
                },
                {
                    "name": "F#5",
                    "midi": 78,
                    "time": 269.79530114257807,
                    "velocity": 0.9763779527559056,
                    "duration": 0.07062635742192924
                },
                {
                    "name": "G5",
                    "midi": 79,
                    "time": 269.8586032851562,
                    "velocity": 0.9763779527559056,
                    "duration": 0.07062635742192924
                },
                {
                    "name": "F#5",
                    "midi": 78,
                    "time": 269.9219054277344,
                    "velocity": 0.937007874015748,
                    "duration": 0.07219583203129787
                },
                {
                    "name": "F#5",
                    "midi": 78,
                    "time": 269.999856,
                    "velocity": 0.9763779527559056,
                    "duration": 0.5780898144531079
                },
                {
                    "name": "C5",
                    "midi": 72,
                    "time": 269.999856,
                    "velocity": 1,
                    "duration": 0.6706888164062548
                },
                {
                    "name": "G3",
                    "midi": 55,
                    "time": 269.999856,
                    "velocity": 0.9763779527559056,
                    "duration": 1.1535638378906015
                },
                {
                    "name": "G5",
                    "midi": 79,
                    "time": 270.5517879042969,
                    "velocity": 0.937007874015748,
                    "duration": 0.5362371582031074
                },
                {
                    "name": "D5",
                    "midi": 74,
                    "time": 270.68205429687504,
                    "velocity": 0.9763779527559056,
                    "duration": 0.40597076562494294
                },
                {
                    "name": "A#4",
                    "midi": 70,
                    "time": 270.81232068945314,
                    "velocity": 0.9133858267716536,
                    "duration": 0.27570437304683537
                },
                {
                    "name": "G4",
                    "midi": 67,
                    "time": 270.94258708203125,
                    "velocity": 1,
                    "duration": 0.1454379804687278
                },
                {
                    "name": "D3",
                    "midi": 50,
                    "time": 271.1607440527344,
                    "velocity": 0.9763779527559056,
                    "duration": 0.080043205078141
                },
                {
                    "name": "A#2",
                    "midi": 46,
                    "time": 271.2481114726563,
                    "velocity": 0.9763779527559056,
                    "duration": 0.08108952148438675
                },
                {
                    "name": "G2",
                    "midi": 43,
                    "time": 271.3365252089845,
                    "velocity": 0.9763779527559056,
                    "duration": 0.08108952148438675
                },
                {
                    "name": "D2",
                    "midi": 38,
                    "time": 271.42493894531265,
                    "velocity": 0.9606299212598425,
                    "duration": 0.08161267968750963
                },
                {
                    "name": "G1",
                    "midi": 31,
                    "time": 271.51387583984393,
                    "velocity": 0.9291338582677166,
                    "duration": 0.016741062499988857
                }
            ],
            "controlChanges": {
                "6": [
                    {
                        "number": 6,
                        "time": 0.0020926328125,
                        "value": 0.09448818897637795
                    },
                    {
                        "number": 6,
                        "time": 0.0020926328125,
                        "value": 0.09448818897637795
                    },
                    {
                        "number": 6,
                        "time": 94.82347063281186,
                        "value": 0.09448818897637795
                    },
                    {
                        "number": 6,
                        "time": 94.82347063281186,
                        "value": 0.09448818897637795
                    }
                ],
                "7": [
                    {
                        "number": 7,
                        "time": 0,
                        "value": 1
                    },
                    {
                        "number": 7,
                        "time": 0,
                        "value": 1
                    },
                    {
                        "number": 7,
                        "time": 94.82137799999937,
                        "value": 1
                    },
                    {
                        "number": 7,
                        "time": 94.82137799999937,
                        "value": 1
                    }
                ],
                "10": [
                    {
                        "number": 10,
                        "time": 0.000523158203125,
                        "value": 0.5039370078740157
                    },
                    {
                        "number": 10,
                        "time": 0.000523158203125,
                        "value": 0.5039370078740157
                    },
                    {
                        "number": 10,
                        "time": 94.8219011582025,
                        "value": 0.5039370078740157
                    },
                    {
                        "number": 10,
                        "time": 94.8219011582025,
                        "value": 0.5039370078740157
                    }
                ],
                "12": [
                    {
                        "number": 12,
                        "time": 0.00104631640625,
                        "value": 0.023622047244094488
                    },
                    {
                        "number": 12,
                        "time": 0.00104631640625,
                        "value": 0.023622047244094488
                    },
                    {
                        "number": 12,
                        "time": 94.82242431640562,
                        "value": 0.023622047244094488
                    },
                    {
                        "number": 12,
                        "time": 94.82242431640562,
                        "value": 0.023622047244094488
                    }
                ],
                "38": [
                    {
                        "number": 38,
                        "time": 0.002615791015625,
                        "value": 0
                    },
                    {
                        "number": 38,
                        "time": 0.002615791015625,
                        "value": 0
                    },
                    {
                        "number": 38,
                        "time": 94.82399379101498,
                        "value": 0
                    },
                    {
                        "number": 38,
                        "time": 94.82399379101498,
                        "value": 0
                    }
                ],
                "91": [
                    {
                        "number": 91,
                        "time": 0.00104631640625,
                        "value": 0.5984251968503937
                    },
                    {
                        "number": 91,
                        "time": 0.00104631640625,
                        "value": 0.5984251968503937
                    },
                    {
                        "number": 91,
                        "time": 94.82242431640562,
                        "value": 0.5984251968503937
                    },
                    {
                        "number": 91,
                        "time": 94.82242431640562,
                        "value": 0.5984251968503937
                    }
                ],
                "100": [
                    {
                        "number": 100,
                        "time": 0.001569474609375,
                        "value": 0
                    },
                    {
                        "number": 100,
                        "time": 0.001569474609375,
                        "value": 0
                    },
                    {
                        "number": 100,
                        "time": 94.82294747460874,
                        "value": 0
                    },
                    {
                        "number": 100,
                        "time": 94.82294747460874,
                        "value": 0
                    }
                ],
                "101": [
                    {
                        "number": 101,
                        "time": 0.001569474609375,
                        "value": 0
                    },
                    {
                        "number": 101,
                        "time": 0.001569474609375,
                        "value": 0
                    },
                    {
                        "number": 101,
                        "time": 94.82294747460874,
                        "value": 0
                    },
                    {
                        "number": 101,
                        "time": 94.82294747460874,
                        "value": 0
                    }
                ]
            },
            "id": 1,
            "name": "Instrument 1",
            "instrumentNumber": 6,
            "instrument": "harpsichord",
            "instrumentFamily": "piano",
            "channelNumber": 0,
            "isPercussion": false
        },
        {
            "startTime": 0,
            "duration": 0,
            "length": 0,
            "notes": [],
            "controlChanges": {},
            "id": 2
        }
    ]
}